<svg xmlns="http://www.w3.org/2000/svg" width="200" height="200"><path stroke="#000" d="M0 0h200v200h-36.5l-.5-1.5q3.9-7.6 2-21l-5-16 5.5-6.5 8 7h4l4.5-3.5 6-7 1-6-9-14 16-18 3-7q-4.7-10.3-13.5-16.5l-4-1-21 25-3.5-2.5q4-6.5 2-19l-1-1v-12l-2-5q9.2-3.8 15-11l2-4v-14q-4.9-15.6-16.5-24.5l-26-20h-4L125 2.5v12l2 7-1.5-.5-19-6-6.5-5.5L96.5 5h-14l-9-2-3-2h-4Q63 2 64 7.5 71.8 22.3 84.5 32q7 4.7 16.5 6l-2 6-13.5 2-18 8-.5-9.5 1-1 1-13-5.5-2.5Q51.5 38.5 44 53.5q-7.5 14-8 35 1.5 9 7 14-1.3 6.8 1 10l-4-3L24.5 92q-7.2.3-9.5 5.5l-9 14q10.2 14.8 24 26-7.1 5.4-10 15 1.4 6.1 6.5 8.5 2.9 4.1 11 3l7-7 2.5 2.5q-9.7 8.3-15 21l-2 8v8l1 3.5H.5l-.5-.5z" opacity="0"/><path stroke="#000" d="m119 43 6 4.5-1.5.5-3.5-1zm28 2 5 3.5 1 2-3.5 5.5z" opacity="0"/><path stroke="#000" d="m80.5 5 2.5.5-2.5.5zm54 0 1 2zm4 3 1 2zm-39 2 1 2zm-32 1 1 2zm75 0 1 2zm-73 3 1 2zm77 0 1 2zm-74 4 1 2zm79 0 2 3zm-23 4 .5 2-2-.5zm29 1 4 5zm-75 5 2 3zm-19 1-4 5zm3 0 1 2zm98 2 1 2zm-97 4 .5 2.5h-1zm31 1 2.5.5-2.5.5zm-43 2-2 3zm11 4 .5 5.5h-1zm79 0 .5 2.5h-1zm-23 1 1 2zm-23 1-1 2-2.5-.5zm50 0 3 4zm22 0 .5 3.5h-1zm-122 2-1 2zm77 1 1 2zm27 2 .5 2.5h-1zm-6 3 .5 5.5h-1zm22 11-4 5zm-9 7-1 2zm-123 8 .5 2.5h-1zm0 9 .5 3.5h-1zm143 4-1 2zm5 0 7 8zm-164 2 2.5.5-2.5.5zm-2 1-3 4zm6 0 1 2zm2 3 8 9zm148 0-1 2zm-161 3-2 3zm157 2-2 3zm24 0 1 2zm-151 6 .5 2.5h-1zm121 2-3 4zm-123 3 3.5 2.5-1.5.5zm115 0 1 2zm37 0-1 2zm-3 4-5 6zm-173 7 12 13zm164 3-3 4zm0 10 2 3zm-152 1-3 4zm155 3 1 2zm1 10-2 3zm-21 2 8.5 7.5-7.5-6.5-2 1zm-143 2 3 4zm21 1-6 7zm119 1-3 4zm-134 3 1 2zm16 4-4 5zm-6 7-1 2zm125 4 .5 2.5h-1zm1 7 .5 5.5h-1zm-133 4 .5 2.5h-1zm0 9 .5 2.5h-1z" opacity=".922"/><path fill="#c0644b" stroke="#c0644b" d="M75.5 11q6.7 2.3 17 1l2.5 2.5 3.5 4.5 6 3 13 3 12.5 6.5-5.5.5-9.5-2-1.5-3-3-2-3.5 2.5q.9 3.4-4.5 1.5l-2 1-13-5L77 14.5zm57 1 17 12L162 36.5l3 6 1 14h-1q-1.9-11.6-10.5-16.5l-9-5q-6.7 1.7-8.5-1.5zm-37 54 .5 6.5h-1zm5 1 1.5.5v7l1 4h-1zm-4 8 .5 4.5h-1zm-33 2 2.5 1.5-1.5.5zm5 0-1 2zm79.5 0q2.7-1.1 2 1.5l1 5.5q-5.2 2.1-4-2.5-2.5-1.5 1-3zm-44.5 3 2.5 5.5-3.5 2.5v-1l2.5-1.5zm-6 1 3.5 5.5-3-2zm10 11-.5 1.5q-5.8 11.2-15.5 18.5-2.2.8-1.5-1.5-2.4-5.1-8.5-6.5l-4.5 3.5-.5 5.5L60 97.5l2.5-.5 9 5 6-7 5-1q7.2 1.3 11 6zm39 5 4 3 1-3 .5 3.5-3 10-7.5 8.5q-2.6.8-1.5-2.5 2.7-3.3 2-10l-1-6.5zm-28 1h9l1.5 1.5 1 7-3 10-5.5 5.5-.5-1.5q5.8-5.9 4-18.5-17.5 4.8-28.5 17l.5-1.5 8.5-11.5zm-68 1 2.5 1.5-1.5 3.5-1.5-.5 2-.5q1.5-3.7-1.5-3zm132 0-1 2zm2 0 3 4zm-163 2 5.5 4.5 5 6v2l-7.5 7.5-5.5-5.5q.8-2.2-1.5-1.5l3.5-4.5 3-6zm159 1-3 4zm-160 1-1 2zm163 1h2l4.5 4.5-5.5 6.5-8.5-7.5 2.5 1.5 3.5-2.5zm-132 2h5l8 3L79 121.5l-1.5-.5L57 110.5q1.8-6.1-5.5-3.5zm-35 3 .5 2.5h-1zm36 12 1 2zm100 0 .5 2.5 13 13 2 7.5 6 1 1 5.5-1 2 .5 1.5-26.5-25.5z"/><path fill="#c0644b" stroke="#c0644b" d="M155.5 121q.6 5.9 5.5 7.5l-6-5zm-100 2 3 4zm5 4 1 2zm-12 2 1 2-1-1L36 141.5zm22 2 2.5.5-2.5.5zm58 0q2.3-.7 1.5 1.5l-4.5 5.5-.5-1.5zm36 0 6 7zm-114 1 2.5 5.5L34.5 157l-6.5-4.5.5-1.5.5 2h2.5l3-3q3.8.8 4.5-1.5-1.5-6 1.5-7.5zm19 3 2 3zm105 3 4 5zm-140 6-5 6zm145 0 1 2zm1 4-4 5zm-59 27h8l1.5 1.5q-3.1 5.4-11.5 5.5l-7.5-2.5zm-51 7 12.5.5-5.5 8.5-10.5-6.5zm22 2 13.5 2-7 11.5v2.5h-5.5l-8.5-4 2-7.5 3.5-3.5z"/><path stroke="#000" d="m66.5 2 14 4h16L98 7.5l5.5 7.5 17 5 8.5 4-3-11.5v-9l3.5-1.5q19.1 12.4 34.5 28.5l7 11 1 16q-2.1 7.9-8.5 11.5l-8.5 4 2 7.5v10l1 14-2 8 4.5 3.5 21-25h3l10.5 10.5q2.8 1.7 2 7l-4 7-14 15v3l8 10 1 4q-3.2 7.8-9.5 12.5l-4 1-9-8-6.5 7.5v2l5 16v14l-2 7.5h-7.5l-.5-1.5 3-4 1-10-4-19q-4.5-11.5-13.5-18.5l-9-6q-8.2 11-22.5 15l-3 8.5-11 12q2.4 2.6 8.5 1.5l14-9 10-2 8 3 3.5 3.5q0 9-6.5 11.5l-5 3-9 1-3-1-10 12q-6.1 1.3-5.5-1.5l8-12-1.5-1.5-15-3-20-1-6.5 2q-1.1 2.7 1.5 2L90 199.5l-12.5.5L57 185.5l-1-5L68 159q7.5-2.7 5 5.5-5.8 4.5-7 12.5l2.5-1H85q-2.3-5.6-1-16.5 2.3-1.2-.5-2.5l-15-5q-12.3 7.2-21.5 17.5l-8 12-2 13 2 5-5.5.5q-3.3-3.2-2.5-10.5 1.5-9.5 6-16l11-14-4.5-3.5-7 7h-4L22 154.5v-4q3.1-7.4 9-12v-2l-23-23v-3q4.6-9.9 12.5-16.5 5.5-1 6.5 2.5L40 112q2.7-1.1 2 1.5l3.5 2.5-.5-1.5-1-12-6-10-1-11 2-11 9-22Q54.8 37.3 64.5 29l3.5 2.5-2 11V55l17.5-7 8-2h7l1.5-1.5 2-7-1.5-1.5h-4l-8-3L74 20.5l-7-10-2-7zM73 9l6 10 12 9 13 4 2-1 4-5 4 2 1 5 14 8 5 8 2 7 5 4 1-1v-7l-3-9q-2-4-6-4-5-2-3-9l-10-5-19-6-6-6-1-2H81zm58 2 5 18v5l2 1 8 1 11 7 2 4-1 9-12 11 6 3 12-8 3-4-1-14-5-9q-13-15-30-24Zm-21 26-8 19v9q-26-2-39 10l-3-6V46l1-1v-3Q48 55 44 76v15l5 8v6l-1 2 4 18 9 14 7 6 18 8q23 2 35-8l9-10 6-17v-12l-2-11-15-28zm8 3v6l8 4q3 1 2-1zm28 2q-2 4 1 7v9h2l5-6-1-4zm-50 9-13 3-14 7q-3 1-2 5l18-5h10l2-6q1-5-1-4Zm26 4 3 12 9 15h3l6-6v-3l-5-7q-6-9-16-11Zm26 20-4 8-7 4 2 3q4-6 14-5l-1-6-2-2q1-3-2-2Zm0 16-8 7v9l1 1-2 12 4-1q6-5 9-13V95l-1-2zm35 7-15 19-5 5 8 7 5-2 15-19-5-8zm-162 2-6 11 4 6 17 16 8-8-16-19zm133 18-7 11 27 25h3l5-6-5-8q-1-4-6-3l-2-2-3-3-9-8v-5zm-13 9-3 1-1 4 5-4zm-93 2-21 23 1 2 5 3h3l18-19-3-7zm97 6-4 5q-1 2 2 1l10 12 4 2 4-6-14-14zm-87 8-9 8q0 4 4 5l9-6 1-2zm34 16-1 4 1 7 8-10zm30 15-9 4-2 3 9 2 8-2 4-5-1-2z"/><path stroke="#000" d="m123.5 103 .5 9.5q-1.4 8.1-7.5 11.5l-7 2h-6l-7.5-4.5 5.5-6.5zm-6.5 7-15 9 1 3h10l5-6 1-5zm-63 1 26 12-2.5 6q-3.2 2.3-10 1l-9.5-6.5-4-9zm6 6 2 5 7 4q7 1 6-2z"/><path fill="#d9beb3" stroke="#d9beb3" d="M108 40q2.7-1.1 2 1.5l-1 1-1 20 3 14 3.5 4.5 6 2 4.5-1 .5-2 4.5 7.5q-4.1 6.4-14.5 6.5l-6-2-3 4 .5-1.5-1-2 3-1-5-4 2-3q-5.7-7.3-4-22l2-11zm-48.5 4 .5 3.5h-1l-.5-1.5-1.5.5zm-4 6 .5 3.5-4 10v15l1 5 3.5 5.5 1-1H64v2.5l-4 5 2 1-2 1 5.5 6.5-6.5-5.5-2 7 2 1-1.5.5q-1.3-2.2-6-1l-1.5.5q-1.1-3.3 1.5-2.5l1.5-3.5-3-1.5-5-8.5v-16Q48.2 60.2 55.5 50Zm31 16 5.5.5-5.5.5zm-5 1 2.5.5-2.5.5zm14 6 .5 4.5h-1z"/><path fill="#d9beb3" stroke="#d9beb3" d="m69.5 74 .5 3.5-1 2.5q-5.5 1.3-7-2.5l-1-2 2 1 1.5 2.5q3.8.8 4.5-1.5zm29 11 3.5 2.5-1.5.5zm48 7q3.8-.7 4.5 1.5l-.5 6.5-4-3-5.5 3v-2.5zm-42 1-1 2-2 1 1-2zm-26 1 2.5.5-2.5.5zm5 0 4.5 1.5-1.5.5-3-1zm-7 1L74 98.5l-2.5 3.5-3.5-2.5 1.5.5 2 1zm13 1 4.5 3.5-1.5.5zm16 1-3 4zm14 0 7.5.5-7.5.5zm-3 1 1.5.5-4.5 2.5 1-2zm17 0 .5 3.5h-1zm50 1q5.1 2.4 6.5 8.5l-4.5-3.5-3.5 1.5-2.5 3.5-2.5-1.5zm-54 1 .5 4.5h-1zM21 102l3 1.5v2l-6.5 7.5-.5-4.5zm88.5 0-3 4zm-9 1-7 8zm-21 2-1.5 2.5-.5 1.5-.5-1.5zm5 0 1 2zm50 1 .5 4.5h-1zm-5 1 .5 3.5h-1zm-64 2 1 2zm7 0 4.5 3.5.5-1.5.5 3h-1.5zm30 0-4 5zm-34 2 2 3zm4 3 6 7zm25 1-.5 1.5-.5 1.5-.5-1.5zm9 2-1 2zm8 1-1 2zm11 0-3 4zm9 0-1 2-1.5-.5zm20 1q2.7 1.3.5 2.5v2l5.5 5.5 12 10 1-1 5.5 5.5 2 4-7 5.5 1-5.5-1-2.5-6-1-2-7.5-13-13v-3zm-91 2 2 3zm32 1 1 2zm-42 1q5.7 6.8 16.5 8.5l-.5 1.5 12 5 12 2 1-1h10l6-3-1.5 2.5-3 12.5q-7.5 2.3-20.5 1l-4-1-4.5-4.5-7.5-11.5-14.5-7.5zm65 0-1 2zm2 2-1 2zm-10 1 2.5.5-2.5.5zm7 1-5 6zm-38 1-1 2zm-31 2 1.5 2.5-11 10q1.5 6-1.5 7.5h-3q-1.2 3.7-5.5 3v-2.5z"/><path fill="#eae6ed" stroke="#eae6ed" d="m109 44 2 .5-1.5 5.5zm-52.5 6 .5 2.5h-1zm2 0 .5 15.5h-1zm50 5 .5 7.5h-1zm-56 8 .5 2.5h-1zM92 66l3 1.5-.5 4.5-.5-4q-3 1-2-2Zm17.5 0 .5 2.5h-1zm-57 10 .5 2.5h-1zm10 2q1.3 2.8 5.5 2.5l-3.5.5zm62 1 .5 3-2-.5zm-71 2 .5 2.5h-1zm2 6 1 2zm6 0q4.8-1.7 3.5 2.5h-1q.8-2.6-2.5-1.5zm40 1 3.5.5-3.5.5zm27 0 1.5.5-4.5 3.5zm-22 1 2 3q-2.2.8-1.5-1.5zm-43 2-1 2zm39 10-1 2zm-44 1 .5 2.5-2 1zm8 2 5 6zm39 1-2 3zm-19 2 2 3zm6 4-1 2zm23 1q2.6-.8 1.5 2.5l-5.5 6.5h-7l-.5-2zm19 3 .5 2.5h-1zm-72 4 10.5 5.5-4.5.5zm33 4 2.5 1.5-1.5.5zm8 4 7.5.5-7.5.5zm-18 11 3.5.5-3.5.5zm16 0 3.5.5-3.5.5z"/><path fill="#63282a" stroke="#63282a" d="m74 10 3 .5-2 1 1.5 2.5zm5.5 1 4.5.5-4.5.5zm14 1 5.5 6.5-4-3zm40 0 1 2zm-56 3 9 10zm63 2 1 2zm-40 2 2.5 1.5-1.5.5zm43 0 1 2zm4 3 1 2zm-59 3 2.5 1.5-1.5.5zm20 1-1 2zm5 1 1 2zm40 0 3 4zm-59 1 5.5 1.5-3.5.5zm8 1 3.5.5q-.7 2.3-4.5 1.5zm13 1 3.5.5-3.5.5zm6 1 2.5.5-2.5.5zm4 1 4.5.5-4.5.5zm0 5 12.5 4q4.4 5.4 3 17.5l-5-4-3-9zm26 1 1 2zm3 2q9.1 5.9 11.5 18.5h-1l-3-9zm11 4 .5 2.5h-1zm-7 12 1.5 9-8.5 4-4.5-2.5zm-94 18-1 2-1.5-.5zm84 2 2.5 1.5-.5 1.5-.5-2zm-1 2-1 2zm4 2 .5 5h-7.5l-6.5 4q-1.1-2.7 1.5-2l7.5-6q-1.6 4.9 4 3zm37 23 1 2zm-161 3 5.5 5.5v2l-8 7 7-7v-2zm23 1H57v3.5l.5 1.5q-1.7-3.7-3.5-.5-.3 12.3 8 16l-1.5-.5-8.5-6.5-3-12zm74 1 .5 4.5h-1zm52 0 7.5 6.5-.5 1.5zm-68 1-1 2zm80 1-2 3zm-83 1-1 2zm-46 1 8.5 4.5-1.5.5-6-3zm43 1-6 7zm69 0 2.5 1.5 2.5 3.5 2.5 1.5v2l-6.5 6.5h-2l-6.5-6.5 1.5.5q5 .5 5.5-3.5l2-3q-2-3.5-4 1l-1.5 2.5-1.5-.5zm-48 1 .5 2.5-2.5 3.5.5-1.5zm-103 3 3 4zm17 2 5.5 4.5-7.5 8.5-5.5-5.5zm36 0 2.5 1.5-1.5-.5zm83 3 1.5 2.5-2-1zm-25 4 .5 3.5-1.5 2.5-2-1-3.5 6.5 3-2 1.5-2.5-.5 1.5-9.5 10.5-7.5 4q1.7-10.7 8.5-17zm18 0-1 2zm-33 3-2 3zm32 0 2 3zm14 0 1 2zm-110 6 1.5 2.5-16 15 15-16zm93 0 14.5 13.5-3 6.5q-2.7 1.1-2-1.5l-9.5-11.5-3.5-1.5q-.5-5 3.5-5.5Zm-76 1 1 2zm-6 3 4.5 3.5-.5 1.5zm-28 3-3 4zm22 2 4.5 3.5-9.5 7.5q-6.5-3-1-6zm107 0 9 10zm-57 2 .5 2.5h-1zm-77 8 1 2zm93 20 5.5.5-5.5.5zm7 1q2.3-.7 1.5 1.5l-5.5 4.5 1-2 3.5-2.5zm-47 7 10.5 1.5-6 2.5-3 10 8 3.5-1.5.5-7.5-4.5 1-6.5-4.5-1-1.5 4-13-7.5q-.7-2.2 1.5-1.5v2l10 6zm14 2 2.5.5-2.5.5zm5 1 2.5.5-2.5.5zm3.5 1 2 .5-3 2zm-2.5 5-1 2zm-3 5-.5 1.5-.5 2.5-.5-2.5z"/><path fill="#efe6ed" stroke="#efe6ed" d="m110.5 45 5.5 18.5 8 14v3q-1 2.5-5.5 1.5l-5.5-2-4-14.5v-15zm-52 1 .5 3.5-1 1v15l3 11 3.5 4.5q4.8.8 5.5-2.5-1.5-6 1.5-7.5 8.3-3.7 20-4l2.5 1 2 14.5 5.5 6.5q4.5-1 5.5 1.5l-1.5 2.5-13 6q-3-6.5-14-5L73 98.5l-1.5 2.5L61 96l4-6.5V87l-8.5 1Q51 80.5 52 66.5l5-16q-2.5-1.5 1-3z"/><path fill="#efe6ed" stroke="#efe6ed" d="M128.5 89q2.3-.7 1.5 1.5l3 7 2 17-1 4.5q-11.8 3.3-20 10l-4 8-9.5 2h-11l-10-2-9.5-4.5q7.5.5 10-4l1-6.5q-2.7 1.1-2-1.5-8.1-9.9-21-15l2.5-6.5q6.8 9.8 18 15l-.5-1.5q-1.2-6.2 2.5-7.5h3l6.5 6.5q-.7 2.3 1.5 1.5 10.8-8.7 18-21 3.3 3.2 11 2zm-8.5 8-14 8-10 12-1 7 9 4h7l14-7 5-10v-11q-2-5-10-3Z"/><path fill="#281516" stroke="#281516" d="m73 9 2 .5-2 1zm4.5 1 2.5.5-2.5.5zm7 1h9l1.5 1.5-1.5-.5h-9zm46.5 0 2 .5-2 1zm-55.5 2 1 2zm21 2 3 4zm-17 3 3 4zm72 7 1 2zm-40 1 1 2zm-21 1 3.5 1.5-1.5.5zm17 1-2 3zm-9 2 2.5.5-2.5.5zm16.5 1 15 2q-1 4.3 2 5.5l-1.5-.5-5-1 2 4-5-5-7.5-3.5zm42.5 0 3 4zm-16 4 2.5.5-2.5.5zm12 5 2 3zm-93 2 .5 2.5h-1zm69 0 4.5 5.5-2-1zm29 3 3.5 4.5 4 10-5.5 4.5-2-8-8.5 7.5 8-8 1-9zm-17 6 .5 7.5-1.5 1.5-4.5-4.5 5 3zm-46 8-1 2-3.5-.5zm36 0 1 2zm-58 4 2.5.5-6.5 2.5v-1zm75 1-1 3 1.5.5-1.5.5q-3.5-2 1-4Zm-62 1 2.5.5-2.5.5zm10 0 5.5.5-5.5.5zm62 0-1 2zm-8 3 2 1 1.5-.5-2.5 1.5zm-84 3 1.5.5-4.5 3.5zm76 4-1 2zm-11 2 5 4 1.5-.5-4 1.5zm14 3-1 2zm-4 4-2 3zm1 2-1 2zm-5 1 1.5 2.5-2-1zm45 11-1 2zm2 0 1 2zm-163 2 6.5 5.5-5.5-4.5zm119 2 .5 4.5h-1zm39 0-2 3zm-55 1 .5 4.5h-1zm11 2 .5 3.5h-1zm-87 1 .5 2.5h-1zm127 2 8 8 2.5-1.5-8.5 9.5 2.5-3.5q.8-2.2-1.5-1.5l-4.5-3-1.5-3-4 3zm-66 1-1 2zm31 0 .5 3.5h-1zm-91 1 .5 3.5h-1zm6 0 1 2zm-22 2L44 124.5l-8.5 8.5L24 121.5l9-8zm4.5 7-8 8 6 5 7-8zm65.5-6-1 2zm44 0-1 2zm-8 3 .5 3.5h-1zm4 1-1 2zm-92 2 .5 2.5h-1zm62 1-1 2zm7 0-2 3zm14 0 .5 1.5-2.5 7.5-1-3-13.5 8.5q-4.9 5.1-6 14l.5 1.5-6 2 .5-1.5q1.9-16.1 12.5-23.5zm30 0-.5 1.5 6.5 6.5 1.5.5-1.5.5-7.5-7.5zm-108 1 1 2zm102 4 3 4zm18 0-1 2zm-36.5 2 2 .5-5 4 1.5-3.5 1.5.5zm-92.5 2-10 11zm9 1 11 5 4.5 4.5 8 11-1.5-.5Q67 147 61 138.5zm7.5 9 4 5v-1zm5.5-9 3.5.5-3.5.5zm82 2 12 13zm15 0 2 3zm-22 3-2 3zm2 0 14.5 13.5-.5 1.5-3-4zm-19 2-7 8zm47 0 2 3zm-30 5 7.5 6.5-.5 1.5zm-87 1 5.5 4.5-1.5 2.5-9 6-3-4 4 3 8.5-7.5-4.5-3.5-5.5 4.5zm72 0-6 7-2 1 1-2zm6 0 1 2zm-17 2-2 3zm-87 1-2 3zm109 1 6 7zm-90 2-1 2zm130 0-4 5zm-21 2-2 3zm-120 1-4 5zm31 0 1 2zm83 0 1 2zm-80 2 5.5 1.5-3.5.5zm-5 4q4.5-1 5.5 1.5 1.3 7.3-3.5 8.5l2.5-3.5q2.5-8.2-5-5.5l-1.5 3 .5-1.5zm23.5 1 8 .5-8.5 10.5-.5-7.5zm-8.5 3 .5 5.5h-1zm-31 2-5 6zm11 2-1 2zm40 1-1 2zm21 0 2.5.5-2.5.5zm-55 2-1 2zm67 1 2 3zm-66 5 9.5.5-9.5.5zm42 3-.5 1.5-.5 1.5-.5-1.5zm26 0 .5 1.5-8.5 7.5 1-2 6.5-5.5zm-67 3 11.5.5-11.5.5zm14 1 6.5.5-6.5.5zm34 0 3.5.5-3.5.5zm-25 1 3.5.5-3.5.5zm-34 5 1 2zm20 0 3.5 1.5-1 5 1.5 2.5-6.5-4.5zm26 0-2 3zm9 0 2.5.5-2.5.5zm42 0 .5 2.5h-1zm-84 1 1 2zm-36 3 .5 2.5h-1zm30 1 1 2zm43 0-2 3zm45 3-1 2z"/><path stroke="#000" d="m127.5 1 2.5.5-3.5 1.5zm4 1 2 3zm-6 2 .5 7.5h-1zm-42 1 12.5.5-12.5.5zm14 1 1 2zm39 0 1 2zm4 3 1 2zm-39 3 1 2zm43 0 1 2zm4 3 2 3zm-78 1 1 2zm83 3 3 4zm-80 1 9 10zm89 8 2 3zm4 5 1 2zm-108 1-3 4zm9 4 .5 2.5h-1zm-15 3-1 2zm-2 3-1 2zm42 1 3.5.5-3.5.5zm32 0 1 2zm-58 3 1.5 6.5-2 .5zm106 0 .5 9.5h-1zm-25 1 .5 2.5h-1zm4 5-3 4zm13 14-1 2zm-8 5-.5 1.5-.5 1.5-.5-1.5zm1 8 .5 6.5h-1zm21 12-2 3zm-20 2 .5 9.5h-1zm-131 1 1 2zm-12 2-1 2zm25 0 1 2zm133 1-2 3zm20 0 2 3zm-150 3 .5 3.5h-1zm125 3-1 2zm-132 1 7.5 6.5.5-1.5.5 3.5zm129 3-1 2zm-158 1 .5 2.5H7zm1 4 9 10zm185 1-1 2zm-6 7-4 5zm-7 12 1 2zm-156 11-1 2zm142 9 6 7zm18 0-6 7zm-20 1-1 2zm-120 1 3.5 4.5-6 5 5-6zm-18 3 1 2zm15 0-2 3zm133 2 2.5.5-2.5.5zm-142 2 3.5.5-3.5.5zm7 6-1 2zm125 10 .5 2.5h-1zm0 9 .5 2.5h-1zm-134 3 .5 3.5h-1z" opacity=".608"/><path fill="#545160" stroke="#545160" d="m109.5 38-1 2zm-50 5-1 2zm0 5 .5 8.5h-1zm35 4q3-.9 1.5 3.5L95 60h-9.5l-9 2 2-3 3.5-2.5q-.8-2.6 2.5-1.5zm29 4q9.3 3.2 14.5 10.5l2 4.5-2.5 1-4.5-1-4.5-7q-4 .5-4.5-2.5zm-21 1 .5 3.5h-1zm-43 7 .5 3.5h-1zm24 2 2.5.5-2.5.5zM96 66l6 .5-2 1 2 11 3 7-3.5 1.5-4.5-6.5zm-29.5 6q2.3-.7 1.5 1.5l1 3q-1.7 4.2-3.5 1.5L63 76.5zm-22 5 .5 11.5h-1zm100 16-2 3zm-94 7q3-.8 1.5 3-3-1.2-2 2.5h-1q-1-4.5 1.5-5.5Zm101 1 .5 2.5h-1zm-17 1 .5 3.5h-1zm7 6 .5 3.5h-1zm-6 4 .5 2.5h-1zm-24 1-1 2zm60 1q3.3 1.8-.5 3.5l-3.5 4.5q-3.3 1.1-2.5-1.5l4-3zm-63 1-1 2zM61 118l2 .5-.5 2.5zm43.5 0-2 3zm0 3 6.5.5-6.5.5zm-31 3 .5 2-2-.5zm30 2 5.5.5-5.5.5zm-24 1-2 3zm39 0-1 2zm-5 5-1 2zm-42 6 1 2zm60 4 14.5 11.5q12.1 12.9 11 39h-1l-2-7v-6l-3-7-3.5-3.5q-2.7.6-1.5-5.5l1-3zm-54 5 1 2zm5 4 2.5.5-2.5.5zm39 0 .5 2.5-7 13-6.5 7.5-8 4-4.5-1.5 6-7.5q2.7 1.1 2-1.5l7.5-11.5zm-34 1 13.5.5-13.5.5zm-20 1 1.5.5-13 12-1 6-6 6 5 2.5 2 6-7.5 1-4 2-5.5-5.5 1-1q2.9-9.1 9.5-14.5zm10 3 6.5 2.5-1 1v11l1 4.5h-9.5l-.5-2.5q3-5 2-14zm38 33 6 1q1.8-2.7 8-1v1q-5 4-16 2z"/><path fill="#212735" stroke="#212735" d="m91.5 52 2.5.5-2.5.5zm-5 1 2.5.5-2.5.5zm-5 2 .5 1.5-6 5 2 1q-6.5 0-9.5 3.5L67 62zm41 0 .5 2.5h-1zm-27 1 .5 2.5h-1zm-36 1 .5 6.5h-1zm26 3 5.5.5-5.5.5zm48 1 3 4zm-9 1 6.5 4.5 2 4.5 4.5 1 3-2 2.5 4.5-4.5 5.5-3 1q-9-6.8-11-19Zm-35 3 3.5.5-3.5.5zm49 2 1 2zm-4 32 .5 2.5h-1zm1 10 .5 2.5h-1zm40 7 1 2zm-112 6 1 2zm113 2-2 3zm-46 18q10.9 7.6 16.5 20.5l-1 6.5 5 3.5 3 7 1 11 2 3-4.5 6.5h-45l-.5-1.5 7.5-9.5-1 3q11.6 2.1 16.5-2.5l-5-1q9.9-1.6 14-9 1.8-7.7-2.5-9.5l-7-3h-5l-8 2-5 3 1.5-2.5 9-16V150l8-6.5zm3 0 1 2zm4 3 2 3zm-69 7 8.5 4-3 19-7.5 1 .5-1.5 7-10v-5q-1-2.5-5.5-1.5l-6.5 9.5-6 12v3l5.5 7.5 14.5 9.5-37 .5q-2.4-3.9-1-13.5l1.5-2.5 5 5 1-1 10.5-2-2-6-5-2.5 6-6 1-6 6.5-6.5 6.5-5.5zm50 0-1 2zm28 2 2 3zm-84 2-1 2zm16 0 2.5.5-2.5.5zm32 0-1 2zm39 2 1 2zm-91 1-8 9zm25 0 .5 2.5h-1zm23 5-2 3zm-23 4 .5 2.5h-1zm-36 2-3 4zm54 0-6 7zm-17 4-1 2-3.5-.5zm-41 1-1 2zm61 1-1 2zm-20 13 .5 2.5h-1z"/><path stroke="#000" d="m126.5 1-.5 1.5-.5 1.5-.5-1.5zm-62 2 .5 4.5h-1zm15 1 2.5.5-2.5.5zm55 0 1 2zm4 3 1 2zm-38 3 3 4zm42 0 1 2zm-17 2 .5 2.5h-1zm21 1 1 2zm-78 1 1 2zm82 2 2 3zm-79 2 1 2zm85 3 6 7zm-93 7-4 5zm4 1 1.5 2.5h-1zm16 1 1 2zm82 1 1 2zm-111 7-2 3zm13 3 .5 2.5h-1zm54 2 5 6q-2.2.8-1.5-1.5zm-25 1 2.5.5-2.5.5zm53 1 3.5 4.5h-1zm23 0 .5 2.5h-1zm-124 1-1 2zm104 5 .5 1.5-2 1zm-4 2 .5 3.5h-1zm22 10-1 2zm-3 3-2 3zm-7 5-1 2zm-124 9 .5 8.5h-1zm121 8 .5 2.5h-1zm24 1 2.5.5-5.5 3.5zm4 1 9 10zm-164 2q5.8-.7 6.5 3.5L24.5 93q-4 .8-3-1Zm137 0 .5 2.5h-1zm-139 1-4 5zm156 3-2 3zm-146 2 10 11zm-16 2-1 2zm28 0 1 2zm129 2-2 3zm-161 4-1 2zm34 0 .5 4.5h-1zm155 0 .5 2.5-2 1zm-32 1-1 2zm-3 4-3 4zm-6 1 1 2zm38 1-1 2zm-4 5-3 4zm-179 1 17 18zm173 6-5 6zm-3 11 2 3zm-153 2-2 3zm-4 5-2 3zm163 2 .5 4.5h-1zm-1 6-2 3zm-166 4 5 6zm22 2-1 2zm120 0-3 4zm18 1-2 3zm-153 3 1 2zm10 1-1 2-1.5-.5zm3 4-2 3zm-4 5-1 2zm-7 17 .5 2.5h-1z" opacity=".271"/></svg>