<svg xmlns="http://www.w3.org/2000/svg" width="200" height="200"><path stroke="#000" d="M0 0h200v200h-47.5l-.5-2.5 4-9v-6q-4.7-10.3-13.5-16.5l-6.5-5.5 14.5-2.5h10l1 1 14 1q3.3-1.7 2.5-7.5-2.5-14.5-11-23 2.8-1.7 1-8l-1-3 18-14v-4l-4-6-15-18 14-12 1-3-3.5-3.5-11-6-17-5-8-1-1.5-1.5-1-14 1-3-1-2.5q-2.3-2.6-8.5-2l-9 3-18 3q-11.2 2.8-19 9h-4l-17-6-10-6-3 1-2.5 1.5-4 15-1 11-1.5 1.5-14 5-11 2-4.5 2.5 1 7 10 15 6 6v3l-3 11v14q1.3 2.8 6.5 1.5l7-3 .5 3q-17.3 4.5-29 15.5l-1 5 3.5 3.5q14 3.5 25 10 10.9 5.6 18.5 14.5l2 5-5 17-3.5 6.5H.5l-.5-.5z" opacity="0"/><path stroke="#000" d="m126.5 24 2.5.5-2.5.5zm-7 2 2.5.5-2.5.5zm19 0 .5 14.5h-1zm-88 1-1 2zm41 7-1 2zm-5 3-1 2-1.5-.5zm-41 3 .5 2.5h-1zm-1 6 .5 4.5h-1zm124 8 2.5 1.5-1.5-.5zm10 5 1.5 2.5h-1zm-2 7-1 2zm-5 4-1 2zm-5 4-1.5 2.5 7 8-8-7zm-148 5 1 2zm154 7 1 2zm3 3 4 5zm6 8 1 2zm-154 6 .5 4.5h-1zm-1 6 .5 10.5h-1zm147 2-2 3zm-5 4-1 2zm-132 4q4.5-1 5.5 1.5l-1.5-.5-5 1zm4 3-1 2-4 1v-1zm126 7 2.5 3.5-3-2zm3 5 1 2zm-155 2-3 4zm1 10 5.5 2.5-1.5.5-4-2zm25 11 1 2zm109 0 12.5.5-12.5.5zm-6 1 2.5.5-2.5.5zm24 0 2.5.5-2.5.5zm-121 3 4.5 3.5-2.5-1.5zm93 3 4 5zm-82 7 1 2zm93 4 1 2zm2 3 1 2zm3 6 .5 3.5h-1z" opacity=".78"/><path fill="#fdfefe" stroke="#fdfefe" d="m110.5 36 3.5.5q-14 5-24.5 13.5l-8 2q-8.2-1.8-13-7L57 41l-4.5 15-.5-9.5 2-8.5 25.5 9h6l11-6 6-1zM128 51h3.5l8 4h6l15 4 4.5 2.5-7.5.5-7-3-20-1-2.5-2.5zm28.5 17 2.5.5-3.5 1.5zm-119 30 .5 1.5-1 3 .5 1.5-2 1 .5-1.5zm70 11q7-1 10.5 1.5l-3.5.5q-1.5-2.5-7-1zm-51 3q5.4-.9 7.5 1.5l-9.5.5v-1zm58 8q4.6-1.3 2.5 4.5-3.2 4.8-11.5 4.5l-3.5-1q-1.1-2.7 1.5-2zm-46 3 1.5 6.5-2 4.5-8.5 3-6.5-2.5 1.5-2.5zm-29 8 4.5 10.5-5.5 5.5h-2q-5.2-4.7-13.5-6.5zm122 13h4.5v3q2.7-1.1 2 1.5l.5 1.5h-17l-1.5-1.5q-.8-2.6 2.5-1.5zm-33 23h2l4.5 4.5-.5 1.5 1.5.5q-2.5 1.5 1 3l1 6-3 3q1.3 6.3-2.5 7.5l-8.5-3q-1-3 2-2v-2.5l4-6V174l-3.5-1-5 3-2.5-4-2-.5zm-20.5 6q5.2-2.1 4 2.5l-2 6 1 4q-2.3 1.3-1 6l10 6-1.5 2.5q-7.8 1.7-9.5-2.5.2-5.2-3-7v-11z"/><path fill="#b2baa7" stroke="#b2baa7" d="m54.5 37 1.5.5-2 .5-.5 2-.5-1.5zm76 1 1.5 2.5v9l1 1-1.5-.5-2.5-1.5 1-4-1-3zm-40 5-1 2zm-39 5 .5 2.5h-1zM91 51h5.5l10 8q3.6-2.9 11-2l2.5 1 1 3.5q-1.7 3.3-6.5 3.5l-2-1-10 2-2.5-4-9-5-1-3.5zm-39.5 2 .5 5.5h-1zm91 1 2.5.5-2.5.5zm26 8 .5 1.5-2 1zm-125 1 2.5.5-2.5.5zm121 3-1 2-8.5 7.5v3l5.5 5.5 5.5 4.5 9 13-11 7.5-1.5 3q-4.6.6-6-2h-5l-1.5-1.5L139.5 93l-3-1q-3.2.8-2.5 5.5l10 14-2.5.5-12-3-9-7-7-2h-6l-9-5H95l-3 14.5-4.5 7.5L71 106.5q.8-2.2-1.5-1.5L64 98l-5-3.5 1.5.5 9 7 19.5 8q-1.9-13.1 4.5-19l6 1 26 11h4l-.5-1.5 1-8-1-5.5 31.5 2-.5-1.5-2-3-9-11zm-140 8 11 6q6-1.5 7.5 1.5l-.5 1.5-.5-2h-3.5l-5 5q-6.9-4.8-9-12Zm18 12-.5 1.5-2.5 4.5-.5-1.5zm13 8 1.5.5-3 2 2 6.5-12.5 8-9.5 2v-6.5l1.5-.5q12-4 20-12Z"/><path fill="#b2baa7" stroke="#b2baa7" d="m108.5 108 5.5.5-5.5.5zm-6 2 1 2-1.5-.5q.8 2.3-1.5 1.5zm5 0 5.5.5-5.5.5zm-55 4 4.5.5-4.5.5zm100 4q5.8-.7 6.5 3.5 1.8 10.8-4.5 13.5l-3 2h-13l-12 7-22 7-22 2v-1l1.5-.5-5.5-.5q-1.2 2.2-6 1l-9-2-7.5-3.5 3.5-.5h2q11.8-.7 16.5-8.5-.7-2.6 2-1.5v-2.5q2.7-3.2 8-2.5l3 8-12.5 2-1.5 1.5 1.5 3.5h11l7-4h3q5.4 3.1 15 2 10.1-2.4 15.5-9.5l5.5-8.5h3l2-2q4.5 1 5.5-1.5l1.5-2.5zm.5 1-1 1q-3-1-2 2l6-1q1-3-3-2Zm-4 4-6 6v4l3 1 3-1 6-6v-2q-1-3-6-2Zm-34.5-4q4.4-1.5 3.5 1.5l-1.5-.5q-3 .5-2-1Zm-6 2 1.5.5-2.5 1.5zm-43 2-1 2zm38 1-1 2zm-47 5-2 3z"/><path fill="#b2baa7" stroke="#b2baa7" d="m105.5 129 5.5.5-5.5.5zm-36 3-1 2zm-17 2 5.5 3.5-1.5.5zm110 5q2.3-.7 1.5 1.5l2.5 3.5-5-1-7 3h-4l-2.5 2.5q.9 3.4-4.5 1.5l-30 8v-1l12-4 1.5.5q-.7-2.2 1.5-1.5l13-6 15-2zm-118 3 .5 4.5 6.5 6.5 14 6H70l-3 8.5-.5 5.5-2.5-5.5L52.5 156 37 147.5q5.9-.6 7.5-5.5Zm125 7 .5 1.5-2 1z"/><path fill="#b2baa7" stroke="#b2baa7" d="m152.5 150 12.5.5-12.5.5zm-34 13q8-1.5 10.5 2.5-4.5 4.5-13 5l.5 1.5-4 2 .5-1.5q.8-2.2-1.5-1.5l-3 1 .5-1.5 4.5-5.5zm17 8 9.5 8.5 3 6-5.5 14.5-8-6-3.5-.5 5-3v-5q3.8-.7 3-6zm-16 3 2 3zm6 0 3.5 1.5q.8 7.3-3.5 9.5l-2.5-8.5zm-13 4 4.5 6.5-6 3-.5 1.5-.5-1.5q2.7-1.7 1-8zm-7 1 .5 8.5h-1zm-15 8q2.3-.7 1.5 1.5l6 11-9.5.5q-3.2-1.7-1.5-8.5zm-26 1 1.5 2.5v9.5h-5.5l-.5-1.5zm46 2 1 2zm-33 3 2.5 1.5q2.5 8.3-5 5.5-1.2-5.5 2.5-7Zm45 4 3.5 2.5-5.5.5v-1q2.5.7 2-2Z"/><path fill="#ddebe3" stroke="#ddebe3" d="m125.5 33 2.5.5-2.5.5zm5 0 .5 4.5-1.5 3.5-.5-2.5zm-11 1q5.8-1.7 4.5 2l-20 10.5 3 10.5 4 .5-4.5 1.5-10-8H91l-1 3.5 1 2.5 9 5.5-1.5.5-8.5-6.5-1.5-2.5-4 1-12-4L59 42.5l1.5-.5 23 11zm12 16 2 3zm-13 7 2.5 1.5 1 3-1 2.5-3.5 1v-1l3.5-2.5-1-3.5zm-67 2 .5 5.5-8.5 3.5-13 2 1-2L51 62zm49 5 4 2 5-1v1l-7 1zm66 0-1 2zm-5 3-1 2-7 3v-1zm-137 6L38 79.5l-2.5.5-10-5zm125 0-.5 1.5 9 11-7-6-3-5zm-107 7q2.5 1 1.5 5.5h-1zm87 7 6.5.5-7 .5-.5 4-.5-3.5zm29 0q2.3-.7 1.5 1.5l.5 1.5zm-20 1 8.5.5-8.5.5zm-97 1-1 2zm109 0 7.5.5-7.5.5zm-58 1 2.5.5-4 3q-3.4 6.3-2 16.5l-5-1.5 1.5-.5q1.3 2.3 2.5-.5-1.2-12.2 4.5-17.5Zm-36 3 2.5.5-2.5.5zm73 0 .5 4.5-1.5 3.5-.5-2.5zm-76 2-2 3zm60 2 3.5 1.5-1.5.5zm-48 1 1 2zm-18 1-1 2-7 3v-1zm71 0 11.5 3.5-4.5.5-7-3zm-50 1 6.5 3.5-1.5.5q-4.6-1.2-5-4Zm8 4 4.5 2.5-1.5.5zm29 5 1 2q-2.8.7-1-2Zm47 10q4.8-1.3 3.5 2l-6 1q-1.1-2.7 1.5-2zm-84 3q2.6-.8 1.5 2.5l1 5h-1q.5-5.8-1.5-7.5Zm-2 1-1 2zm38 1-1 2zm12 1-1 2zm-55 1-1 2zm-4 3-1 2zm-17 2 .5 2.5h-1zm29 0-1 2zm-16 1-1 2zm12 3-1 2-1.5-.5zm-7 2 3.5.5-3.5.5zm-15 5-4 5zm118 1 2.5.5-2.5.5zm-83 8 5.5.5-5.5.5zm50 15 1.5.5-3.5 1.5v-1zm3 1 1 2zm-15 3 3.5.5-3.5.5zm-5 1q2.3-.7 1.5 1.5l-2.5.5-2.5-.5zm13 3-1 2zm5 2 .5 2.5h-1zm6 10 .5 4.5-3 2q3.1-1.5 2.5-6.5Zm-25 5 1 2z"/><path fill="#eefaf6" stroke="#eefaf6" d="M128.5 33q3.4-.9 1.5 4.5l-1 1V50l2 .5-3 .5q-1.2 5.5 2.5 7h13l11 2 3 2h9q2.6-.7 1.5 2l-13 5.5q.8 2.3-1.5 1.5l-5.5 3.5 12 15-1.5.5-1-1-28-2q-2.2.8-1.5 4.5 2.3 1.2 1 6l-1 3 .5 1.5-8.5-2-.5-2-2 1-25-9q-5.9 5.8-4.5 18-6 .7-9-2l-.5-2h-2l-3.5-1-.5-2h-2l-10-7-4-1-8 6-1.5-.5q.8 2.3-1.5 1.5l-7 4-2.5-4.5h2l-1-3 7-11v-4L39.5 79h-2l-10-4-4.5-3.5 6.5-2.5 5 1 16-4 1.5-1.5 1-13L58.5 41l1.5.5q-2.7 1.8 1.5 3.5l11 6 12 4 4-1 3 4 8.5 5 2.5 4 18.5-3 1-3.5-2.5-3.5h-12l-.5-2.5q-3.5-2-3-8L124 36q-1.3-3.3 3.5-2z"/><path fill="#eefaf6" stroke="#eefaf6" d="m114 35 3 .5-2.5 1.5zm-4.5 3-1 2-1.5-.5zm-4 2-1 2-2 1 1-2zm-44 2 1 2zm37 2-1 2zm-31 1 2.5 1.5-1.5-.5zm24 3-1 2zm-4 2 1.5.5-3.5 1.5v-1zm-23 63 .5 2-2-.5zm50 13-1 2zm-82 8-1 2-1.5-.5zm117 13 1.5 2.5-3 .5zm-16 22 1 2zm2 5 1 2zm3 6 .5 2.5-2 1zm-19 16 1.5 2.5-2 1 1-2z"/><path fill="#080d07" stroke="#080d07" d="m132.5 40 1.5 3.5-2-1zm-48 4 2.5.5-2.5.5zm84 46 1 2zm-106 9-1 2zm42 2 2.5.5-11 4.5-1.5 3q-2.6.8-1.5-2.5h2q-.8-2.6 2.5-1.5zm8 1 7.5 1.5-3.5.5-4-1zm-58 2 1 1h8l8.5 3 .5 2 1.5-.5-1 1 4 4 3 6-2-1-6.5-9.5H69q1.1-2.7-1.5-2-4.5-3.7-13.5-2v4h11.5l.5 2.5-1.5-.5-9-1-1.5.5-.5-1.5H48v-2zm54 3 5.5.5-5.5.5zm18 0 .5 2q3.8-1.5 3 1.5l2 4-2-1-1-3.5q-5.2-1.8-3 5.5h-1l-4-5 5-.5zm-94 3 1.5 4.5-2 .5zm13 0 .5 1.5-3.5 4.5.5-1.5 1-2-.5-1.5zm95 2 5.5 3.5-5.5 1.5v-1l3.5-1.5q-3.8-.1-3.5-2.5Z" opacity=".996"/><path fill="#080d07" stroke="#080d07" d="M70.5 116q2.6-.8 1.5 2.5l1 2h-1zm56 1 .5 2.5h-1zm17 0-.5 1.5-1 3.5 2 .5-1.5.5-2.5-1.5zm-55 2-.5 1.5-1.5 3.5-4.5-1.5 1.5-.5 2 1zm-47 2 .5 7q-3.7 1.3-2-4.5zm33 5 .5 4.5h-1zm51.5 2h5v1.5l-4.5 6.5zm-91.5 3-1 2zm8.5 3h5.5l5.5 4.5-.5 1.5H45zm76.5 1 1.5 5.5-4.5 1.5v-1l1.5-.5-4-.5q-1.7-4.5 3.5-3zm-42 1-6 7-5 2-.5-5h7.5l.5-1.5zm-16 4 3.5.5-3.5.5zm-15 2 7.5 3.5-1.5-.5-6-2zm-16 3 2.5 1.5-1.5-.5zm75 6 2.5.5-2.5.5zm-23 2 2.5.5-2.5.5zm10 0 2.5.5-2.5.5zm11 5q2.3-.7 1.5 1.5zm20 1 1 2q-2.8.7-1-2Zm-30 1q4.2-1.3 2.5 3.5l1 6.5q3-1.2 2 2.5l-2.5 3.5-4.5-.5 1-4-2-10.5zm43 10q2.3-.7 1.5 1.5zm-32 4 .5 3.5h-1zm9 1 .5 2.5h-1zm-48 1 .5 2.5h-1zm5 0 .5 4.5h-1zm28 2 .5 2.5h-1zm-3 1-5 6zm-8 1-2 3zm-3 4-2 3-2.5-.5zm-10 1 1 2zm-5 2 .5 4.5h-1zm19 0-.5 1.5-.5 1.5-.5-1.5zm30 7 4.5 2.5-1.5-.5q-3.8-.2-3-2Z" opacity=".996"/><path stroke="#000" d="m130.5 23 4.5.5-4.5.5zm6 1 2.5 1.5-1.5.5zm-87 3-.5 1.5-.5 1.5-.5-1.5zm90 0 .5 2.5h-1zm-82 1 1 2zm10 5 3.5 1.5-1.5.5zm23 1-1 2-2 1 1-2zm49 6 .5 3.5h-1zm-95 3 .5 2.5h-1zm98 3 2.5.5-2.5.5zm5 1 2.5.5-2.5.5zm-104 3 .5 4.5-2 1zm122 2 2.5 1.5-1.5-.5zm5 2 1 2zm9 10-3 4zm-167 3 2.5 6.5-2-1zm162 1-3 4zm-5 4-3.5 4.5 6 7-7-6zm-154 3 1 2zm4 6 1 2zm2 3 1 2zm151 1 3 4zm-149 2 6.5 7.5h-1zm160 12q2.5 1 1.5 5.5h-1zm-1 7-1 2zm-7 4-2 3zm-5 4-3.5 4.5-.5 1.5-.5-1.5zm-144 6 1.5 2.5-2-1zm10 0 2.5.5-2.5.5zm131 1 .5 7.5h-1zm-137 1 2.5.5-2.5.5zm-6 7-1 2-2 1 1-2zm143 1 1 2zm-148 2-1 2zm-3 2-1 2zm-4 3-1 2zm0 8 2.5 1.5-1.5.5zm164 2 .5 2.5h-1zm1 5 .5 4.5h-1zm-138 5 1 2zm107 1 3.5.5-3.5.5zm15 0 5.5.5-5.5.5zm15 0-1 2zm-38 1 4.5.5-4.5.5zm32 0 2.5.5-2.5.5zm-126 1 1 2zm91 0 1 2zm-87 3 1 2zm3 2 5 6zm91 1 9 10zm-85 6 1.5 2.5h-1zm95 5 1 2z" opacity=".388"/><path stroke="#000" d="m129.5 24 2.5.5-2.5.5zm7 1 1 2q-2.8.7-1-2Zm-44 9-1 2zM72 36l5 1.5-5 .5zm6 2 6 1v5h-6zm60.5 3 .5 5 2 .5-3 .5zm-93 2 .5 3.5h-1zm-1 8 .5 3.5h-1zm118 1 7.5 3.5-8 .5zm-123 5 1.5.5-4.5 1.5v-1zm138 2 2.5 3.5-2.5 3.5.5-1.5zm-150 2 2.5.5-2.5.5zm-14 4 .5 2.5h-1zM166 72q3-1 2 2-3 1-2-2Zm.5 8 1 2q-2.8.7-1-2ZM30 92h6v5l-6 1v6h-2zm148.5 1 1 2zm-2 15 1.5.5-3.5 2.5zm-4 3-2 3zM30 116h6v3.5l-6 2.5zm136.5 6 .5 6.5h-1zm0 9 2 3zm-150 4-3 4zm153 0 1 2zm-158 5 .5 3.5h-1zm12.5 6h6v5.5l-1.5-.5-4.5-1zm18.5 12q7.3-2.6 5.5 3.5l-1.5-.5q-4.7-.8-4-3Zm128 0 3.5.5-3.5.5zm-116 9 2 3zm90 2 1 2zm4 4 1 2zm4 6 1 2zM56 188h4v6l-6-.5z" opacity=".996"/><path fill="#54be2e" stroke="#54be2e" d="M119.5 110q7.2 3.8 6.5 15.5l-6.5 9.5-12 3q-8.3-2.2-12.5-8.5l-1-8 2-6 2.5-2.5q4.6.6 6-2h10l3 1zm-4.5 9-11 5q-3 1-2 5l4 1h5l7-5q3-8-3-6Zm-62.5-6v2l6-1 6 2 2-2 3.5 3.5q3.9 4.1 3 13l-5.5 7.5q-3.8 2.7-12 1l-7.5-6.5q-2.3-4.8-1-13zm15.5 9-11 7-5 6 5 3h6l6-4q3-3 2-10zm10.5 39 1.5.5-2 4 2.5 3.5 3.5-1.5 2.5-6.5q4.4-1.5 3.5 1.5l1 1 1 11-4 1.5-3.5 6-.5-4q-6.1 1.8-8-1.5l-2-5z"/><path stroke="#000" d="m132.5 24 3.5 1q-.7 3.1 2 2.5V47h6.5l17.5 5v4h9.5l6.5 4.5v4l-4.5 4.5-5 4-2.5-1-2 5.5q2.7 1.1 2 4.5 4.7-.7 6 3.5-1.1 3.3 1.5 2.5l6.5 7.5V98q2.7-1.1 2 1.5l2 4-2.5 3.5-5 1-6.5 5.5q.8 2.3-1.5 1.5-3.2.8-2.5 5.5v11q9.6 7.9 11 24l-2.5 3.5-11-2h-16l-13.5 3.5 14 12 6 9 1 6-5 12.5-6-.5 2-3 3-13-11-13.5h-2.5l-6.5-5.5q.8-2.2-1.5-1.5l-2.5-1-1-3.5 4.5-3.5 11-3 23-1 1 1h7.5q-1.9-8.9-7.5-15l-8 6-15 2-7 4h-3q-5.8 4.7-15 6l-6.5 5.5-3 5-2 9v16l5 9-7 .5-4-10.5v-8l1-3.5h-2.5l-6.5 6.5-5.5 8.5-3 1-7-9-.5 15h-6v-3.5l2-5 1-15q-3.9-1.6-3-8l4-9.5-17.5-5-6.5-5.5-2-5.5 21.5 9 14 1 1 1h12l7-2h6l18-7h3l12-7h12l7.5-7.5 1-7-3.5-5.5-5-1-8 5H142l2-6 2-.5-.5-1.5h3l6-3q2.3 2.7 8 2 5.3-6.7 13.5-10.5L168.5 90l-2.5-1.5-2-4.5-8-5.5q.5-5.5 4.5-7.5l3.5-1 3.5-5 2.5-1.5q1.3-3.7-2.5-2.5-13.2-7.3-32-9l-2.5-2.5q-1.3-4.8 1-6-3.5-4.2-2-12.5l-23.5 4-18 8-6 1-2 2L53 36l-3 12.5v11L47.5 62h-4l-14 6-7.5 1v3.5l3 6.5q2.7-1.1 2 1.5l4.5 5.5 2.5 1.5 2.5 3.5q2.3-.7 1.5 1.5L36.5 95l-.5-3q-9.7 2-12-4.5l-11-19 1-3.5 10.5-3h5l5-3h4l5.5-2 4-26q3.3 1.1 2-3h5.5l9 6 7.5 2v2h6v6h6v-5h1.5l10-6 12-4 16-2 3-2q4.8 1.2 6-1ZM104 158l-11 3-3-1H77l-3 9q-1 12 6 17-1 2 3 1l5-7q1-5 9-4l8-16q1-3-1-2Z"/><path stroke="#000" d="m96 96 11 4.5-12 4.5-.5 2-.5-5.5zm-61.5 1 .5 3.5-2 5-1 9.5 4.5-2 7-1-.5 1.5-2 5.5h-5l-.5-3H30v6h-2q-2.3-3.6-1-12.5l1-5.5h2v-6h3.5zm28 3 8.5 7.5-1.5.5q-4.7-4.2-14.5-3.5zm10 9 15.5 9.5-2.5 4.5q-4.7-.2-6.5-3.5-2.1-7.2-6.5-10.5Zm58 1q8.3.7 13.5 4.5-2.9 3.6-10.5 2.5zm-91 14 1.5 4.5L21 139q-1.7 4.1 2.5 3l26 13L63 167.5l3 8-7 24.5-7-.5 2-5.5h6v-6q-3.8 1.5-3-1.5l3-12-5.5-7.5-4.5-3.5q.7-2.6-2-1.5v-4h-6.5L30 152v-6h-6q1.5 3.8-1.5 3-4-3.7-10.5-4v-5.5l1.5-.5q4-7.1 12.5-8-1.2-3 2.5-2l4-3zm74.5 49q3.8-1 5 1.5l1 3.5h2q-1.3 4.1 2 3v4.5l-1 5.5 18 8.5-11.5.5-10-6H117l-.5-2-1.5.5 2-10q-4.7-2-3-9.5Z"/><path fill="#1a2a13" stroke="#1a2a13" d="m129.5 31 2.5.5-2.5.5zm-6 1 2.5.5-2.5.5zm-73 18 .5 9.5-3 2 2-2zm83 0 1 2zm31 17-3 4zm-8 12 1 2zm3 2 6 7zm-130 2 2 3zm5 5 4.5 3.5-1.5-.5zm134 3 1 2zm-107 8-2 3-2 1 2-3zm2 0 1 2zm44 1 .5 2 6.5-1v1l-2.5.5 7.5 1.5h2l4.5 2.5v3.5q3.8-1.5 3 1.5l4 5 .5 3.5 2.5-1.5-.5-1.5 3 1 5-2-2.5 3.5-1 2 2 1-2.5 1.5-1.5-.5q.8 2.6-2.5 1.5l-3.5 2.5q-1.4 8.1-7.5 11.5l-4.5 1v-5.5l6-8 1-9h-1l-.5 1.5-2.5-5.5 2 1 .5 1.5.5-6-5 .5.5 1.5-8-5h-5q-8 2.5-12.5 8.5l-2 5v6q1.4 6.1 6.5 8.5l7 3h4l2.5-1q-1.7 4.5 3.5 3l2.5 1.5-1.5.5-2-1v2l-2-1q-1.4 2.6-6 2l-10-2-6-3-1.5.5 1-3-4.5-6.5q-5.4-.6-7.5 1l-3.5 6-2.5 1.5.5 1.5 1.5-.5q-1.2 2.8-2.5.5H66v5h-1.5l-9 2-3-3-6.5-2 1 4.5h-1l-1-6.5h8.5l.5-1.5-.5-1.5 2 2h4q.8 2.8 5 2v-1l-1.5-.5q6.6-1.4 10-6v-2q1.3-6.8-1-10l1-2-3-1-4-5V110H54.5l-.5 3h-1.5l-3.5 2q-3.4 4.2-2 14.5l5 7-3.5-2.5q-4.7-1.2-6 1l-2.5-5.5q3.8-1.7 2-9v-2l5.5-10.5.5 2h6l.5-4h9l5.5 2q-1.2 3 2.5 2l8 11 1.5.5-1 2.5 3.5-1 3 1 2.5-4.5-1-2 4-8.5 4-1.5q-.7-2.2 1.5-1.5l9.5-4zM71 116v3h1q1-4-1-3Zm4 10-1 5h1zm51 2 1 8 4-6v-2zm48.5-28 1.5 2.5h-1z" opacity=".996"/><path fill="#1a2a13" stroke="#1a2a13" d="m93.5 103 .5 2.5h-1zm77 2-1 2zm-137 1 .5 3.5h-1zm17 0-1 2zm20 0 2 3zm4 3 1 2zm91 0-3 4zm-15 2 1.5.5-2.5 1.5zm-6 2 3.5.5-3.5.5zm13 5 1 2zm-12 3-1 2zm15 3 .5 2.5h-1zm-2 7-1 2zm-4 4-1 2zm-10 2 2.5.5-2.5.5zm19 0 1 2zm-27 2-1 2zm23 1-1 2zm-111 9 1 2zm94 2 2.5.5-2.5.5zm-90 1 1 2zm33 1 6.5.5-6.5.5zm41 2-3.5 4.5-.5 1.5-.5-1.5zm-73 2 8 9zm58 1-.5 1.5-4.5 10.5-.5-2.5zm-12 1q5.4-1.9 4.5 1.5l-4 9.5q-5.2 1.8-3-5.5l-1-4.5zm-21 1 10.5.5-10.5.5-1 1zm46 1 1 2zm-54 1-.5 1.5-.5 1.5-.5-1.5zm21 1 .5 4.5h-1zM79 164h5v2.5l-3.5 1.5zm14.5 6-.5 1.5q.8 4.8-2.5 5.5-2.2-.7-1.5 1.5l-6.5 7.5-3.5-1.5-5-11h1l2.5 4.5H84v3.5l2-1 2-4.5 4-1.5q-.7-3.7 1.5-4.5Zm12 1 .5 4.5h-1zm9 1 2.5.5-3 .5-.5 2-.5-1.5zm24 0 3 4zm-70 2q2.3.8 1.5 4.5h-1zm36 4 .5 9.5h-1zm-39 1 .5 3.5h-1zm80 0 1 2zm-76 2 .5 5.5h-1zm28 0 .5 7.5h-1zm-6 3-2 3zm-17 2 2 3-1.5-.5-.5 7.5zm42 0-1 2-1.5-.5zm-48 2 .5 6.5-1.5 2.5-.5-1.5zm9 2 3 4zm37 0 .5 2.5h-1zm-28 1-2 3z" opacity=".996"/><path fill="#5b6054" stroke="#5b6054" d="m126.5 32 2.5.5-2.5.5zm5 0 .5 7.5h-1zm-12 1 3.5.5-3.5.5zm-5 1 2.5.5-2.5.5zm18 10 .5 5.5h-1zm-81 1 .5 2.5h-1zm84 7 2.5.5-2.5.5zm4 1 2.5.5-2.5.5zm-89 7-1 2zm116 5-1 2zm-4 3-4 5zm-6 6-.5 1.5-.5 3.5-.5-3.5zm-132 1 1 2zm4 6 5 5 5-5q4.4-1.5 3.5 1.5l1 3-4.5 5.5zm130 0 2 3zm8 8 1 2zm-30 3 4.5 2.5 10.5 15.5 5.5.5-6.5.5-2 2h-6v-1l1.5-.5-8-10-2-7zm33 1 1 2zm-112 1 6.5 4.5q-5.2.8-7.5 4.5L54 96.5zm38 1 3.5.5-3.5.5zm77 3 1 2zm-64 2 5.5.5-5.5.5zm-43 1 5.5 4.5-1.5.5zm50 0 2.5.5-2.5.5zm4 1 4.5 2.5-1.5-.5q-3.8-.2-3-2Zm55 0-1 2-2 1 1-2zm-140 1 .5 2.5h-1zm20 0-1 2zm71 2 3 4zm-76 1-1 2zm43 0 .5 2.5h-1zm76 0-2 3zm-63 2 2.5.5-2.5.5zm-60 1-1 2zm-12 1 1.5 3.5-2 .5zm43 0 1 2zm15 0-.5 1.5-2.5 5.5-.5-1.5zm-35 1 4.5.5-4.5.5zm44 0-1 2zm-21 1 1 2zm54 5 2.5 1.5-2.5 1.5zm23 1q5.3 1.8 3.5 10.5h-1v-7zm-75 4 .5 2-2-.5zm64 0-1 2h-4l-7.5 4.5-2.5 4.5.5-1.5 2.5-5.5zm3 1q5.3-1.2 6.5 1.5v2l-6.5 6.5-3 1-2.5-1v-4.5zm-66 7q5.3-1.2 6.5 1.5l3 7.5 6 2.5q-5.6 6.4-19.5 4.5l-1.5-3.5 1.5-1.5 12.5-2-3-8q-5.3-.7-8 2.5 1.1 3.3-1.5 2.5l.5-1.5 1-3.5zm74 3-1 2zm-27 1-3 4zm24 1-1 2zm-76 2-1 2zm31 0 3.5.5-3.5.5zm30 0 5.5.5-6.5 1.5zm9 0 2.5.5-2.5.5zm15 1 3.5 2.5 1 2-3-2q.8-2.2-1.5-1.5l-5 4v-1zm-140 1-1 2zm38 0 2.5.5-2.5.5zm63 0-1 2-2 1 1-2zm12 0-1 2-5 2v-1zm-62 2-1 2zm32 2 2.5.5-2.5.5zm7 0 2.5.5-2.5.5zm38 1 2.5.5-2.5.5zm-105 1 2.5 3.5-3-2zm19 0 2.5.5-2.5.5zm57 0 1.5.5-17.5 5.5v-1zm23 0 3.5.5-3.5.5zm-103 4 3.5 2.5-1.5-.5zm102 1 8.5.5-8.5.5zm-93 1 1 2zm19 0 2.5.5-2.5.5zm29 0 4.5.5q-5.9 2.6-15.5 1.5v-1h10zm40 0 3.5.5-3.5.5zm-92 1 1 2zm28 0 7.5.5-7.5.5zm60 0 2.5.5-2.5.5zm-85 2 1 2zm75 1 1.5.5-4 5.5 3 1.5q-11.7-.2-16 7l-2.5 5.5-.5-4.5q2.2-8.8 7.5-14.5l5 1zm-54 4 .5 2.5-2 1zm10 2 5.5.5-1.5 3.5-5.5-1-.5 2-.5-1.5zm48 3 1 2zm-66 2 1 2zm69 0 7 8zm-64 1 .5 2.5h-1zm12 0 3 1 1.5-.5-3.5 1.5zm-12 5 .5 1.5-.5 1.5q3-.9 1.5 3.5l1 2-3.5 19.5-.5-9.5-1.5-2.5-1 2-.5-1.5 3-6v-9zm50 0 1 2zm-5 2 .5 3.5h-1zm-7 2 .5 2.5h-1zm37 0 2 3zm-20 1 2.5 4.5h-1zm-26 2q2.3-.7 1.5 1.5-2.7 1.7-1 8l4 11.5-4-1.5-5-11.5-2.5 1 2.5-3.5zm18 1 1 2zm31 0 2 3zm-29 5-1 2-1.5.5 1 2-1 3.5q-2.7 1.1-2-1.5-3.5-1.5-1-3l1.5-2.5zm-41 3 5 6q5 1 6-2l1.5 7.5-8 .5q1.5-5.4-1.5-7l-3 2zm48 0 1.5 2.5-2-1zm-35 1-1 2zm-26 2 .5 1.5-1.5 2.5-.5-1.5zm71 3 3.5 2.5-2.5-1.5zm-59 2 .5 3.5h-1z"/></svg>