<svg xmlns="http://www.w3.org/2000/svg" width="200" height="200"><path stroke="#000" d="m109.5 19 2.5.5-5.5 3.5zm13 0 5.5 4.5-4.5-3.5zm13 12 3 4zm-31 2 1.5 2.5-2 .5zm2 4 5.5 3.5-1.5.5zm9 7 1.5 2.5-2-1zm23 1-.5 1.5-.5 1.5-.5-1.5zm-19 4 1 2zm19 1 .5 2.5h-1zm-13 2 3.5.5-3.5.5zm5 0 .5 6.5h-1zm-34 9-2 3zm3 0 2 3zm-70 2-1 2zm135 1 6.5 5.5-5.5-4.5zm-82 1 3.5.5-3.5.5zm22 0 7.5.5-7.5.5zm-28 1 2.5.5-2.5.5zm39 0 2.5.5-2.5.5zm12 0-.5 1.5-.5 1.5-.5-1.5zm9 0 .5 1.5-1 4.5q-2.7-1.1-2 1.5h-1zm-65 1 2.5.5-4.5 1.5v-1zm75 0 3.5.5-5.5 1.5v-1zm15 0 .5 2.5h-1zm-138 2-1 2zm11 0 .5 5.5h-1zm31 1-1 2-4.5 2q-1.2-3 2.5-2zm73 1-1 2zm13 0 .5 2.5h-1zm20 0 2 3zm-150 1-1 2zm33 0 1 2zm-35 3-1 2zm155 0 1 2zm-22 2 .5 4.5h-1zm8 1 .5 4.5h-1zm16 0 2.5 3.5-2-1zm-141 2 .5 4.5h-1zm8 0 .5 2.5h-1zm-7 6 .5 6 3 .5-2.5.5q-3.1-1.6-1-7Zm6 1 .5 4.5h-1zm117 0 .5 4-2-.5zm-6 3 2.5 1.5-3 .5zm-145 14 .5 7.5H8zm181 3 .5 2.5h-1zm-181 6 .5 3 2 .5-1.5.5q-2.5-1-1-4Zm13 5 2.5.5-2.5.5zm5 1-1 2zm152 3 1.5 4.5h-1zm0 12-7 8zm-155 8 2 3zm150 8 .5 4.5h-1zm-1 6-.5 1.5q1.3 3.8-2.5 2.5zm-143 1 4 5 2.5 1.5-1.5-.5-5.5-4.5zm133 5 1.5.5-3.5 1.5v-1zm-5 14 4.5 7.5-2-1-3-5zm-122 1 .5 1.5-2 1zm-4 7-.5 1.5-.5 1.5-.5-1.5zm134 7 3.5 7.5h-1z" opacity=".016"/><path stroke="#000" d="M0 0h200v200h-30.5l-.5-2.5-13-24v-3l3.5-6.5 9-4h3.5l2-5.5v-4l-3-8q8-4 10-14l-4-9 14-2.5q-4.9-33.7-25.5-53-4.8-1.7-3.5 2.5l-1 1-1 19-2.5 4.5q-3.7.8-4.5-1.5l1-3-1-1-1-14-2-4.5h-3.5l-12 7-.5-2q3.3 1.3 2-3.5l3-9v-9l-1-4 3-7q-1.2-5.7-5.5-8.5l-6.5-2q.1-7.3-5.5-10l-10-1-4 1-3.5 3.5-3 8 1 5.5q2.7-1.1 2 1.5l9 5v3l5.5 5.5 8 2 1.5-.5q1.4 11.9-4.5 16.5l-8-3-13-1q-1.2 2.3-2.5-.5L99.5 61q-4.7-.7-5.5 2.5l-.5 1.5h-11l-11 2L60 72q1.5 3.8-1.5 3-5-5.1-12.5-6l-2 4.5L42 92q-7.5 2.8-5-5.5l-2-7L34 62l-4.5 1-7.5 7.5q-7.2 9.8-11 23l-3 11v11l1.5 1.5 16.5 2.5q-6.3 6.2-6 19l5.5 6.5 5.5 2.5q-3.2 3.3-2 11l9 7 1 4L23.5 200H.5l-.5-.5z" opacity="0"/><path fill="#060504" stroke="#060504" d="m111.5 32 1 2zm12 5-1 2zm2 8 2.5.5-2.5.5zm-17 29 2 3zm-6 1 3 4zm-18 1-2 3zm7 0-3 4zm76 1 1 2zm-31 3-1 2zm30 3 .5 5.5h-1zm-89 1-1 2zm6 1-2 3zm63 2 .5 3.5h-1zm12 10 4.5.5-4.5.5zm-12 11 .5 3.5h-1zm5 3 .5 2.5h-1zm14 7 3.5.5-3.5.5zm-125 1 2.5.5-2.5.5zm129 15-1 2zm-29 4-1 2zm1 7-4 5zm-74 5 2.5 1.5-1.5.5zm-5 4-1 2zm27 2 2.5.5-2.5.5zm69 1q3-.8 1.5 3l-4-.5zm-43 3 2.5.5-2.5.5zm-53 2 1 2zm71 5-.5 1.5-.5 1.5-.5-1.5zm-71 3 2 3zm34 5 3.5.5-3.5.5zm-40 7 1 2q-2.8.7-1-2Zm78 2 1 2zm2 3 1 2zm-100 2 1 2zm93 0 3.5 1.5-1.5-.5q-3 .5-2-1Z" opacity=".996"/><path fill="#16100c" stroke="#16100c" d="m95.5 72-3 4zm5 1 1 2zm-72 5 .5 2.5h-1zm53 1-2 3zm4 4-1 2zm-36 3 .5 2.5h-1zm117 3 .5 2.5h-1zm-20 2 .5 5.5h-1zm-103 10 .5 12.5h-1zm103 3 .5 3.5h-1zm17 34-.5 1.5-.5 1.5-.5-1.5zm-25 2-1 2zm-81 2 4 5zm86 1-1 2zm-91 2 5.5 6.5h-1zm81 0-1 2zm3 5-1 2zm-6 5 1 2zm-38 1 9.5.5-9.5.5zm62 4-1 2zm-24 3-1 2zm-49 9 2.5.5-2.5.5zm36 5q2.3-.7 1.5 1.5zm-1 8 .5 4.5h-1zm28 2-1 2zm-99 5q2.3-.7 1.5 1.5zm74 0 2.5.5-2.5.5zm14 0 3 4zm18 2 3.5.5-3.5.5zm-13 2 2.5.5-2.5.5z" opacity=".996"/><path fill="#616769" stroke="#616769" d="m113.5 26-1 2zm6 0 1 2zm2 3-4 5-3.5-.5q6 0 7.5-4.5Zm-22 44 2 3zm68 7 .5 6.5h-1zm-117 2 .5 2.5h-1zm-22 2 .5 3.5h-1zm95 5-1 2zm-74 3 .5 22.5h-1zm117 4-1 2zm-10 2 2.5.5-2.5.5zm-4 2 .5 13 3 .5-4 .5zm-81 7 2.5.5-2.5.5zm45 1 2.5.5-2.5.5zm-74 1 .5 3.5h-1zm25 0-1 2zm-49 1 3.5.5-3.5.5zm60 0 1 2zm44 0 1 2zm-96 1 3.5.5-3.5.5zm85 0-1 2zm60 0 3.5.5-3.5.5zm-136 1 2.5.5-2.5.5zm30 0 .5 3.5h-1zm96 0 3.5.5-3.5.5zm-81 1 .5 3.5h-1zm44 0 .5 3.5h-1zm-15 1 .5 3.5h-1zm-43 3 2 3zm13 1-2 3-1.5-.5zm31 1 3.5 2.5-1.5.5zm11 1-1 2zm-6 2 2.5.5-2.5.5zm-58 19 1 2zm4 4 1 2zm77 6q14.3-1.8 19.5 5.5l-7 6q2.8-1.8-1.5-3.5l-3.5-1.5 3-4-7.5-1.5-3.5 1.5-.5 3.5-.5-4.5zm-89 2q5.3-1.2 6.5 1.5l-1 5 .5 1.5-6.5-1q1-3.8-1.5-5l-4.5 1 3 4.5-2 1-3-5zm7 9 4.5 7.5q-9.6.1-15 3.5v-6.5l-1-1 2 1q-1.9 5.4 1.5 4.5l3.5-1.5-2-5.5h6zm81 0 .5 2.5-3 4 6 .5 1-5 7 1-1 7q-5.1-3-15-2.5zm-62 16 11 1h2q3.8 4.2 13 3l8-4 1 1h6.5q-1.9 4.3-1 12l-16.5-6h-5l-18 7-.5-1.5q2.3-1.2 1-6l-1-3zM55 190l11.5 3 1.5 1.5-10.5 5.5H51zm-18.5 1q1.5 3.9 7.5 3.5l-8.5 5.5H33zm91 0q5.4-1.9 4.5 1.5 1.7 5.8 9 4.5l1 2.5-4.5.5-14.5-6.5zm21 4h9l1.5 1.5 1 3.5-9.5-2z" opacity=".996"/><path stroke="#000" d="m115.5 18 3.5.5-3.5.5zm-6 2-3 4zm14 0 1 2zm3 3 1.5 2.5h-1zm2 4 1.5 2.5-2-1zm-24 1 .5 4.5h-1zm30 3 1 2zm3 3 1.5 2.5h-1zm-31 2 1 2zm33 2 .5 3.5h-1zm-27 2 3.5 1.5-.5 2.5-.5-3q-3.3.8-2.5-1Zm5 7 1 2zm6 4 7.5.5-7.5.5zm15 2 .5 4.5h-1zm-41 8 5.5 4.5-4.5-3.5-2 1zm-64 3 .5 2.5h-1zm61 0-1 2-7.5-.5zm69 0-1 2zm-136 1-3 4zm52 1 2.5.5-2.5.5zm33 0 2.5.5-2.5.5zm-38 1 2.5.5-2.5.5zm43 0 2.5.5-2.5.5zm29 1 3.5.5-3.5.5zm23 1 1 2zm-146 1-1 2zm43 0-1 2zm95 0 .5 5.5h-1zm-28 1-.5 1.5-.5 1.5-.5-1.5zm6 0-1 2zm-76 1-1 2zm-42 1-1 2zm115 0-1 2-1.5-.5zm36 0 1 2zm-112 1-1 2-1.5-.5zm-26 1 .5 3.5h-1zm10 0 .5 3.5h-1zm-25 1-1 2zm155 0 1 2zm3 5 1 2zm-25 1 .5 8.5h-1zm-109 1 .5 3.5h-1zm117 0 .5 6.5h-1zm-125 2 .5 3.5h-1zm121 6 3.5.5-3.5.5zm-116 1 2.5.5-2.5.5zm-31 10 .5 2.5H9zm181 11 .5 2.5-2 1zm-179 3 2.5.5-2.5.5zm6 1 2.5.5-2.5.5zm165 0 4.5.5-4.5.5zm-158 1 2.5.5-2.5.5zm151.5 0 2 .5-2 1zm-149.5 2-1 2zm153 7 .5 4.5h-1zm-159 7 .5 2.5h-1zm152 5-1.5 2.5-.5 1.5-.5-1.5zm-147 4 4.5 2.5-1.5.5zm4 10 .5 3.5h-1zm140 5-1 2zm-134 4 1 2zm4 5 .5 2.5h-1zm116 3 .5 3.5h-1zm2 8 1 2zm-122 1-1.5 2.5-1.5 2.5.5-1.5zm125 4 4.5 8.5h-1z" opacity=".298"/><path fill="#47342b" stroke="#47342b" d="m120.5 31-1 2zm11 11-1 2zm-46 30q2.3-.7 1.5 1.5l-2 1zm23 1 4 5zm-81 3-1 2zm75 0 2 3zm-20 1-5 6zm43 0 1.5 2.5h-1zm-36 2-2 3zm24 0 1 2zm11 1-1 2zm21 0 .5 5.5h-1zm-30 2 1 2zm6 0-1 2zm-39 5-2 3zm38 4-1 2zm-83 8 2.5.5-2.5.5zm-22 9 .5 2 2 .5-1.5.5zm8 3 2.5.5-2.5.5zm8 1 2.5.5-2.5.5zm135 0 2.5.5-2.5.5zm-127 1 3.5.5-3.5.5zm106 0 .5 3.5h-1zm11 0 2.5.5-2.5.5zm-107 2 .5 2.5h-1zm115 4 4.5.5-4.5.5zm-130 1-1 2zm6 0 2.5.5-2.5.5zm116 0 2.5.5-2.5.5zm-12 2 .5 2.5h-1zm5 11 .5 2.5h-1zm17 2-1 2zm-138 1 1 2zm120 1-.5 1.5-1.5 2.5.5-1.5zm15 0-2 3zm-124 5 1 2zm10 0 1 2zm95 1-4 5zm-93 2 5.5 5.5v2h-1v-2zm87 4-1.5 2.5-.5 1.5-.5-1.5zm27 1 .5 2.5-4.5 2.5v-1l3.5-1zm-79 5 2.5.5-2.5.5zm19 0 6.5.5-6.5.5zm53 1-2 3zm-75 5 3.5.5-3.5.5zm28 0 2.5.5-2.5.5zm-48 1 1 2zm28 0 7.5.5-7.5.5zm14 0 2.5.5-2.5.5zm-31 6 1 2zm-13 2 2 3zm49 2 3.5.5-3.5.5zm-46 2 1 2zm63 1-.5 1.5-.5 1.5-.5-1.5zm-40 2 1 2h-2l-1.5-.5zm29 1q2.3-.7 1.5 1.5zm-65 3-1 2zm-3 2-1 2zm86 0 2 3zm-65 1 .5 2.5h-1zm-27 1 1 2zm102 1-2 3zm6 1 2.5.5-2.5.5zm-18 5 4 5zm-88 1q2.6-.8 1.5 2.5h-1zm23 0 2.5.5-2.5.5zm89 1 2.5 1.5-1.5-.5z"/><path fill="#e2ac60" stroke="#e2ac60" d="M125.5 37q5.3-1.2 6.5 1.5.8 4.8-2.5 5.5-5.2 1.3-6.5-1.5-.7-4.7 2.5-5.5Zm-43 36 3.5.5L69.5 82 66 79.5l7.5-4.5zm27 0 10.5 2.5-2.5.5q-1.5-2.5-7-1zm-14 1-.5 1.5L79.5 99l-1.5.5 8 7 1 5h-1q-.6-6.3-5.5-8.5l-10-2-8.5 4-3 6.5v6l5.5 7.5q3.3 3 9.5 2v17.5l1 1v6.5q-3.8 1.5-3-1.5-9.1-6.4-14-17l-3-13v-20l1-1V87q11 3.2 18.5 11h5L88 85.5v-2l-1-1zm45 5q4.5-.5 4.5.5v38l-3 16-11.5 13.5-13 6v-1l1.5-.5-2-1 2-5 1-16-.5-1.5h3l6.5-5.5q3.2-3.3 2-11l-3-5.5q-4-3.8-12.5-4-7.4 1.1-10.5 6.5-2.7 3.3-2 10l5 8-1.5-.5-2.5-1.5q-3-4-2-12l6.5-9.5 8.5-3q-2.2-5.6 3.5-4L138 82.5l-.5-1.5 1.5.5zm3.5 1-1 4h1zm-1 30-1 7h1zm-1 10-1 3h1zM86.5 84l-6 7zm-36 1 .5 3.5h-1zm78 1-1 2zm39 1 .5 2.5h-1zm-101 1 1 2zm6 4 1 2zm87 6 2.5.5-2.5.5zm-128 2 3.5.5-3.5.5zm11 0 .5 8.5-1 4.5-26-3 .5-4 1 1h9l1 1h9l5.5 1zm138 6 1.5 3.5-2.5 1.5-26.5 2q-1.8-5.2 5.5-3zm-93 7 .5 3.5h-1zm-37 6 .5 3.5h-1zM33 122q7.8-1.2 11 3.5L36.5 136l-8.5-2.5zm118.5 20 6.5 3q1.8 4.5-3.5 3-1.7 2.8-8 1l1.5-2.5zm-92 1 1 2zm-16 2q3.3-1.1 2.5 1.5l-4.5 6.5-3.5-1 2.5-6zm20 10 5.5 3.5-2.5 5.5-3.5-2.5-1-5zm66 1q2.5 1 1.5 5.5l-4 3-2-6.5zm15.5 3 6 1q1 3.8-1.5 5l-5.5-2.5zm-67.5 1q3 2.8 8.5 2l-1 9-3.5 1-6.5-3.5-1-5zM49 161q5.4-1.5 7 1.5l-.5 1.5-3-1-2 1zm66.5 0q4-.5 4.5 2.5l1 3-3.5 4.5-4 1-3.5-9.5zm-20 2 8.5 1 1 6.5q-2.2 4.8-10.5 3.5l-3.5-5.5 2-4.5zm-49 10q4.8-1.7 3.5 2.5l-6.5 8.5-.5-4.5zm86 2q2.3-.7 1.5 1.5l-4.5 6.5-5 2-.5-2.5 1-2.5zm-72 1 4.5 8.5-1.5-.5-5.5-1zm81 5 .5 8-4-1.5q-.7-5.7 3.5-6.5Zm-51 5h11l20 8h2l11.5 5.5-76.5.5v-1l10-5h6l3-3zm-51 11 .5 3-4-.5z"/><path fill="#cff4bf" stroke="#cff4bf" d="M114.5 26q5.5-1 6.5 2.5l-3.5 4.5q-4.5 1-5.5-1.5-.7-4.7 2.5-5.5Zm-88 52 1.5 1.5 1 17 2.5 4.5 10.5-1v9h-4.5l-1-1-19-1-1.5-1.5 5-17zm142 2 12.5 25.5-1.5 1.5-26.5 3V99h8.5l5.5-2.5zM51 81l4.5 1 21 13 11-12 .5 2.5L79.5 98h-5Q67 90.2 56 87v12.5l-1 1v20q2.5 1.5 1 7l4 10 12 13-1.5.5q-8.4-3.6-13.5-10.5l-6-14q1.8-6.2-1-8v-29l1-1zm87.5 0-2 3-14 11-5 1 3-4z"/><path fill="#cff4bf" stroke="#cff4bf" d="M70.5 108q5.4-.6 7.5 1l2 3.5v5q-1.6 4.4-8.5 3.5l-5.5-4.5q-1.2-6.2 2.5-7.5zm44 1q7.6-1.1 9.5 3.5.6 5.4-1 7.5l-3.5 2h-5l-4.5-3.5v-5l2-3.5zm25 43h2l7.5 1.5-7 11-1 4.5-6-.5q4.3-2.5 3-9.5l2-.5-2-.5q-1.2-4.6 1.5-6Zm-93 3 2.5 1.5-1 4 4 9-5 1.5 1-5q-2.7 1.1-2-1.5l-1-3 1-1-3-3q-.8-2.6 2.5-1.5z"/><path fill="#8c3d3f" stroke="#8c3d3f" d="m124.5 37-1 2zm1 7 3.5.5-3.5.5zm-29 28-5 6zm15 1 2.5.5-2.5.5zm6 1v2l4-1 4.5 3.5q.8 2.3-1.5 1.5l-7 5-6.5-9.5zm-34 1L77 82.5 75.5 85 70 82.5l2.5-2.5zm62 12 .5 4.5h-1zm-67 5-1 2zm-8 9q10.9-.4 14.5 6.5 2.9 3.6 2 11l-5.5 7.5-7 2q-1.2-2.3-6-1l-7.5-5.5q-3-3-2-10l3-6.5zm1.5 6-4 2-3 4 1 5q2 5 12 3l3-4-1-5q-2-5-8-5Zm43.5-5q8.5.2 12.5 4l3 5.5v7l-5.5 7.5q-3.5 3.5-11 3-6.6-.9-9.5-5.5-2.7-3.3-2-10 1.5-6.5 6.5-9.5zm1.5 6-3 1-5 6 1 5 6 3 5-1 4-5-1-5zm28.5 0 .5 2.5h-1zm-110 12 7.5 1 1 3.5-2.5-1.5-7.5-1.5zm124 0h9l.5 1.5 3 8-4.5 5.5-6.5 4.5 4 9v4.5l-5.5 3h-3q-4.6-6.9-18-5l-1.5.5q8.2-6.3 13-16l2-14.5h6.5zm-7.5 22-4 5-1 2q6 2 8-1 5 2 3-3zM43.5 127l3.5 11.5q3.1 7.4 9 12v3l-1.5-.5h-5l-11 3q-2.2-.7-1.5-4.5l1.5.5 3 1 4.5-8-6.5 2 .5-1.5 1-2-13-8q-.8-2.6 2.5-1.5l6 2zm41 8 11 3 10-3 1.5 3.5-5.5 3.5-7 1-10.5-3-1-3.5zm54 4-6 7zm-70 18q2.4 3.6 8.5 3.5l-2 .5-1 5.5.5 1.5-8.5-3.5 3-6zm56 1q3.2 2.7 2.5 8-6 .2-8.5 5l1.5-2.5 1-3-3-4zM86 162l8 1.5q-3.6 1.4-3 7l2.5 3.5-10.5-2.5 2-.5zm22.5 0q2.3-.7 1.5 1.5l3 8-9.5 1.5 1.5-2.5-1-6.5-3-.5zm22 0-2 3zm-76 8q8-1.5 9.5 3.5 4.5 4.9 5 12.5l-4-1-4.5-9-3 6q-1.3-2.2-6-1l-8 5-1.5-3.5h1l.5 1.5 6.5-8.5V173l-2-.5zm79 0q10.8-1.7 14.5 3.5l4 13.5-7.5-1-2.5 1.5-.5-6.5-4 6-3-4-3-1-1.5.5 4-7.5-7.5 5-.5-1.5 3-6.5zm-38 4 4.5.5-4.5.5zm-1 11 5.5.5-5.5.5zm44 3 2.5 1.5-1.5.5zm-22 3 1 2zm-41 1-1 2zm44 1 2.5.5-2.5.5zm-75 1 .5 3.5-1 2.5q-5.6 2.2-4-3.5zm86 2 6.5 3.5-1.5.5q-4.6-1.2-5-4Zm19 1 7.5 2.5-8 .5z"/><path stroke="#000" d="M116.5 19q6.6.4 9.5 4.5l2 6.5q6.1.3 9 4.5l2 7-3 6 2 9-2 9-5 8.5 5.5 1q4.6-5.6 13.5-6l1 3.5 1 20.5 9-1 1-24.5 1.5-1.5h2l4.5 4.5q14.6 18.6 20 45.5-3.6 2.2-12.5 1l-2.5 1.5 4 9v4l-7.5 8.5q-3.4-.9-1.5 4.5 3.2 3.3 2 11l-5.5 4.5-9.5 4.5q-3 3-2 10l13 25-5.5.5-3.5-7q-2.7 1.9-9.5 1l-3-1 .5 1.5 1 5.5h-5v-1.5l-1-2.5q-7.3 1.3-9-4.5l-1.5-2.5-8 3h-5q-3.2-1.7-1.5-8.5l2-6.5-7.5 1-3-2q-3.8 4.7-12 5l-8-4h-3q-1.3 2.3-6 1l-7-3 .5 1.5 3 8v5l-2.5 3.5h-5l-13-5q-4.9 4.3-5.5 12h-5v-1.5l2-6.5q-2.1 1.6-7.5 1l-3-4-4.5 11-6-.5q4.3-13.2 12-23l2-10-2.5-3.5-6.5-4.5-1-4 2-8-10-7-1-4 2-8 5-9.5-17.5-2-1.5-1.5Q11.4 80.9 30.5 64l2-1 1.5 8.5v13l2 9.5q5.7 1 8-2.5l1-16 2.5-4.5 12 6 12-8 19-3 2 1 6-5 4 5h12l12 4q6-6.5 5.5-19.5-1.2-2.7-2.5-.5-9.7.8-12.5-5.5l-1-5.5q-7.3.1-10-5.5l-1-6 3-6.5zm-2.5 6q-4 1-3 8l5 2 3-1q4-1 3-6-1-4-8-3Zm12 11-4 3 1 6 3 1 7-3-1-5q0-3-6-2ZM97 71 81 88l-3 5h-3L59 82l-9-3-1 6v39q2 10 7 18l13 10 21 5 24-1q11-2 19-9 7-5 11-14l1-11 1-1v-8l1-1V88l-1-1V76q-17 6-29 18l-11-15q-3-6-9-8Zm-15 1-11 3-7 5 8 5 5 1 11-13zm26 0v3l10 11 11-7-7-5zm-80 3q-12 14-13 36l12 2h7l1 1h9V99H31l-2-12V77zm140 2-2 7v12l-14 2v13l-1 1 2 3 29-3 1-1q-4-21-15-34Zm-2 41-1 1-14 1-1 3-1 11-2 5-12 13 2 5v6l-5 7-4 1-6 15 12-2 6 7 6-4 8 2-5-15q0-11 7-14 6 2 4-4l7-3-4-13 6-4 4-5v-4l-3-7q-1-3-4-2Zm-132 1-6 11-1 7q4 5 12 6l-3 9v4l4 2 2-1 4 11v4l-3 4-2 7 1 4h4l7-5q4-1 3 2l15 4v-3l-4-9-11-15q-1-7 2-9-12-11-14-31l-1-2zm29 35-2 2 1 7 19 10h8l8 3 10-3 12-1 13-9q1-7-1-8l-11 5-11 2-26-1q-3-3-9-2z" opacity=".996"/><path fill="#27211e" stroke="#27211e" d="m84.5 75-1 2zm-6 7-3 4-1.5-.5zm68 15 .5 6.5h-1zm-111 22 2.5.5-2.5.5zm125 0 3.5.5-3.5.5zm-8 1 3.5.5-4.5 1.5zm19 11-2 3zm-144 2 .5 2.5h-1zm118 8-1 2zm-9 1-2 3zm-37 20 5.5.5-5.5.5zm8 10 2.5.5-2.5.5zm0 5-1 2zm-27 1 4.5.5-4.5.5zm9 0 1 2zm23 0 3.5.5-3.5.5zm-16 3 3.5.5-3.5.5zm-39 1 1 2zm19 2 .5 5.5h-1zm69 2 2.5.5-2.5.5zm-109 4 1 2zm95 0 1 2zm-61 3 2.5.5-2.5.5zm87 0 1 2z"/><path fill="#a0d63e" stroke="#a0d63e" d="m97.5 72 8.5 8.5q3.9 9.1 11 15v4.5q-8 .9-12 6.5l-3 6v7l3.5 6.5 4 2 10.5 1-1 16.5-2 5 1.5.5 5-3-1 2-3.5 1.5 2 1-1.5.5-2.5-1q1.3 3.7-4.5 2l-9 2h-12L75 153l-1-25 7.5-2 3.5-3.5q3-3 3-9l-2-7-6.5-6.5-1.5-.5 4-3zM85 135l-2 4 6 3 5 1 11-2 2-2-1-4-5 2q-11 1-16-2Zm58.5-55 .5 3.5h-1zm-57 3-1 2zm59 9 .5 15.5h-1zm-3 18 .5 6.5h-1zm-1 10 .5 2.5h-1zm-3 12 .5 1.5-2 1zm-3 6-1 2zm-5 5-2 3-3 2 2-3zm-82 17q6-1.5 7.5 1.5l-1.5-.5h-6zm4 3 2.5.5-2.5.5z"/><path stroke="#000" d="m113.5 19 2.5.5-2.5.5zm-3 1 1.5.5-2.5 1.5zm-3 3-1 2zm-1 12 3 4zm31 10-.5 1.5-.5 1.5-.5-1.5zm-20 1 3 4zm13 4q3.3 1.8 1.5 8.5h-1q.6-6.7-.5-8.5Zm7 0 .5 3.5h-1zm0 7 .5 3.5h-1zm-108 7-5 6zm72 1 1 1 9.5.5-9.5.5zm62 0 1.5.5-2.5 1.5zm-81 1 5.5.5-5.5.5zm84 0 2 3zm-133 1 .5 3.5h-1zm111 2 1.5.5-3.5 1.5v-1zm-97 1-1 2zm20 0 1.5.5-2.5 1.5zm66 0-1.5 2.5-.5 1.5-.5-1.5zm-110 1-1 2zm147 0 1 2zm-118 1 3.5 2.5-1.5-.5zm12 0-1 2zm73 1-1 2zm-116 1-1 2zm40 0-2 3zm111 0 1 2zm-21 2 .5 6.5h-1zm10 0 .5 5.5h-1zm-142 1-.5 1.5-1.5 3.5-.5-1.5zm155 0 1 2zm-140 2 .5 5.5h-1zm10 0 .5 2.5h-1zm133 3 1 2zm-134 5 .5 4.5h-1zm-8 2 .5 2.5h-1zm117 2 4.5 1.5-5 .5zm-116 2 4.5.5-4.5.5zm-27 12 .5 4.5H9zm5 11 2.5.5-2.5.5zm6 1 3.5.5-3.5.5zm157 0 4.5.5-4.5.5zm-151 4-.5 1.5-1.5 2.5.5-1.5zm-5 11 .5 2.5h-1zm156 2-4 5zm-156 2 .5 2.5h-1zm1 4 2 3zm150 10 .5 4.5h-1zm-142 1 .5 2.5h-1zm141 5-1 2zm-3 2-1 2zm-137 1 1 2zm133 1 1.5.5-3.5 1.5v-1zm-127 3 1 2zm121 0-1 2zm-1 16 1 2zm-124 4-1 2z" opacity=".757"/></svg>