<svg xmlns="http://www.w3.org/2000/svg" width="200" height="200"><path stroke="#000" d="m139.5 29 2.5 1.5-1.5.5q-1.7-2.7-3.5 1.5l-1.5 3.5-.5-1.5 2-4.5zm-76 1 2.5 1.5-1.5-.5-3.5 2.5-14 28-3.5 3.5-15 7v-1l15-7 2.5-2.5L61 31zm79 2 2.5 3.5-2-1zm-8 5 .5 1.5-6 16v3l-2.5 3.5-14 6-11-12q-5-.5-5.5 3.5L89.5 67h-3L79 63.5l2.5-.5 7 3q6.6-4.8 9.5-12h3.5l7.5 7.5 3.5 4.5 14.5-6 1-6.5zm11 0 5.5 10.5h-1zm6 12 8.5 15.5V67l21 13.5-2.5 3.5-16.5 9.5 1 6h-1l-1-6 1-2.5 17-9.5-2.5-3.5L159 66.5l-8-16zm-78 3 1.5 3.5h-1zm2 5 2.5 5.5-2-1zm-50 15 1.5.5-3 2 9 10-10-9zm8 14 4.5 5.5-1.5 3.5-.5-2.5 1-2zm2 10 .5 4.5h-1zm128 6 .5 3.5h-1zm-129 1 .5 5.5-9 12-1 12q2.2 9.3 8 15l-3-2-6-12v-10q2.9-9.6 10-15zm130 4 7.5 11.5h-1l-7-10zm8 13 .5 2.5h-1zm1 4 .5 10.5q-3.4 11.6-12.5 17.5l-8.5 3v2.5l11 18 3 10h-1l-5-14-10-16.5q11.3-2 17-10.5 6.5-6.5 5.5-20.5Zm-139 24q5.3 6 13.5 8l-11.5 21-.5-1.5 11-18-9.5-5.5zm1 30 .5 1.5-1.5 2.5-.5-1.5zm-2 5 .5 1.5-4.5 15.5-.5-2.5zm134 4 3.5 12.5h-1z" opacity=".063"/><path stroke="#000" d="M0 0h200v200h-28.5l-.5-2.5-7-22-11-18V155q11.5-2.1 17-11.5l4-9v-10q-2.4-11.6-10-18l-2-13 19-12-1.5-2.5L160 67v-2.5l-13-26-6.5-9.5-3.5 1-8 20.5-2 9.5-14.5 6-11-12q-4.4-1.5-3.5 1.5L88.5 66 77 61.5l-7-21L64.5 30 61 31 46 61.5 43.5 64l-18 8-2.5 2.5 14 17-2 5-1 12q-7.1 5.4-10 15v10q2.6 8.9 8.5 14.5l14.5 9.5Q33.1 174.3 29 200H.5l-.5-.5z" opacity="0"/><path fill="#9bdcf3" stroke="#9bdcf3" d="m62.5 45 1.5 3.5-1 1-2 17-2.5 3.5-12 5-10 2 1-2L52 68zm77 1 .5 23.5-3.5 2.5h-4l-14 4h-6v-1l18-8 3.5-3.5zm-40 20 .5 13-8-4.5zm-41 16 3.5.5q-9.3 1.7-14 8l-3 15 1 2-1 4-9 11q-2.4 5.1-1 14l.5 1.5q-4-3.5-3.5-11.5l1-4 9-11 1-14Q44.5 90 49.5 86zm72 1 2.5.5-7 5q-.2 4.8-3.5 6.5l-2.5-.5 6.5-9.5zm-74 17h6l8.5 6.5q2.7 2.3 2 8-2.3 3.2-8.5 2.5l-9.5-5.5-2-7zm79 0q7-1.5 8.5 2.5l1 5-6.5 7.5q-3.3 2.7-10 2l-3.5-2.5q.4-9.1 6.5-12.5zm-78 78 .5 5.5-1 1-1 15.5q-6 2.3-4-4.5zM42 183l3 .5-2 3-2 13.5-4-.5z"/><path fill="#5e95ba" stroke="#5e95ba" d="M139.5 45q2.3-.7 1.5 1.5L151 68q2.7-1.1 2 1.5l3 4.5 10 5q1.1 2.7-1.5 2l-7 4q-4.6-6.9-13-10h-14q-10.2 2.8-15.5 10.5l-.5 1.5h-24q-1.5 2.5-7 1l-6-7q-6.4-8.1-23-6-8.1 2.4-13 8l-5-6 10-2L60 68.5 63.5 49 70 67l12.5 6 8 2 1-1 3 3 5.5 2 .5-14 10 10 8 1 5-2 13-2 3.5-2.5v-23zm-82 54q7.6-1.1 9.5 3.5l-2.5-1.5-7-1zm79 0 4.5.5-4.5.5zm-81 1-1 2zm78 0 1.5.5-2.5 1.5zm9 0 1 2zm-12 2-3 4zm-62 1 1 2zm58 4-.5 1.5-1 6 3 2-1.5.5q-3.5-1-2.5-6.5zm-73 1 1.5 2.5-2-1zm90 2-3 4zm-71 5-1 2-2.5-.5z"/><path fill="#4b2d4c" stroke="#4b2d4c" d="m96.5 68-3 4zm11 3 2 3zm-16 2-1 2-1.5-.5zm-35 2 8.5.5-8.5.5zm-11 5-1 2zm13 1 3.5.5-3.5.5zm77 0 4.5.5-4.5.5zm28 1-1 2zm-95 1 1 2zm76 0 7.5 6.5-5.5-4.5zm-72 3 2 3zm20 1 16.5.5-16.5.5zm-5 7 2.5.5-2.5.5zm6 0 25.5.5-25.5.5zm62 5 .5 2.5h-1zm-114 4 .5 4.5h-1zm115 2 .5 2.5h-1zm1 5 2.5 3.5-3-2zm-118 3-4 5zm121 2 3 4zm5 7 .5 3.5h-1zm-51 1q5.8-.8 7.5 2.5l-2.5 3.5-42 1q-2.5-1.2-1.5-5h12.5l1-1h24zm-83 6 .5 2.5h-1zm132 9-1 2zm-2 3-1 2zm-4 3-1 2zm-24 8 2.5.5-2.5.5zm-65 2 2.5.5-2.5.5zm12 1 9.5.5-9.5.5zm28 0 3.5.5-3.5.5zm-52 3 13.5 3.5L53.5 172l1.5-2.5 3-5q-.5-3-4.5-2.5l-2.5 1.5zm84 0q5.8-.7 6.5 3.5l7 13.5-7-1.5 3-1q-1.4-6.1-6.5-8.5h-9l-1.5 1.5.5 1.5-5.5-7q7.6.9 12.5-2Zm-24 3 3.5.5-3.5.5zm-38 1-4 5zm14 0 2.5.5-2.5.5zm-42 3-1 2zm73 1 1 2zm-51 1-2 3z" opacity=".996"/><path fill="#4b2d4c" stroke="#4b2d4c" d="m135.5 167 3.5 2.5-1.5-.5zm-67 3-1 2zm60 0 2 3zm-82 2v3q-2.2.8-1.5-1.5zm4 0 1.5.5-3.5 1.5v-1zm13 1-1 2zm69 0 5.5 3.5-1.5-.5q-4-.5-4-3Zm-75 3-1.5 2.5-5 17v4.5h-6v-5.5l3.5-14.5 2 1zm82 1q3 3.5 9.5 3.5l-1 2 2 3 3 14.5h-6.5l-1.5-1.5-1-8zm14 5 4.5.5-4.5.5zm9 14 .5 2.5h-1z" opacity=".996"/><path fill="#877bb2" stroke="#877bb2" d="m56.5 82 5 1 3-1v1l-6 1zm75 0 3 1 4-1v1q-7.8.7-11.5 5.5l-1.5 3.5-.5-1.5 4.5-5.5 3.5-1.5zm-80 2-1 2zm3 1-2 3-4 3 3-4zm-8 4-1 2zm78 4-2 3-3.5-.5q4.3.3 5.5-2.5Zm-78 3 .5 2.5h-1zm-1 12 .5 2.5h-1zm-1 4-5.5 6.5-1.5 2.5.5-1.5zm11 0 1 2zm-15 1-5 6zm-5 12 .5 5.5h-1zm87.5 1q18.6 2 30 11l2 3.5q-9.9 9.1-25.5 12.5l-15 1-1 1h-36l-1-1h-9l-10-2-14-6-3.5-3.5 2.5-3.5q13.6-9.2 32.5-12l1.5 3 2 1h11l1-1h25q1.2-2.2 6-1l1.5-1.5zm-87.5 7 .5 3.5-1 1 1.5 2.5q-4.3-1.7-1.5-3.5zm84 34q6.1 1.4 8.5 6.5l5 13 2 13.5H63.5q-1.2-.2-.5-6.5l2-11 3-7.5 13.5-6h27zm-62 10q2.6-.8 1.5 2.5h-1zm-14 5 2.5.5-2.5.5zm14 2 .5 5.5h-1zm-14 2 .5 2.5h-1zm-1 5 .5 2.5h-1zm14 1 .5 7.5h-1zm-15 4 .5 3.5h-1z"/><path fill="#6c6398" stroke="#6c6398" d="m139.5 82-1 2-2.5-.5zm-77 1 4.5.5-4.5.5zm98 0-1 2zm-105 2-1 2zm-7 1-1 2zm81 0-2 3zm-78 2L49 91.5l-.5 1.5-.5-1.5zm-4 6 .5 2.5h-1zm77 0-2 3-2.5-.5zm-78 5 .5 10.5h-1zm8 1-1 2zm11 0 1 2zm67 0-1 2zm11 0 1 2zm-91 3 .5 2.5h-1zm93 1 .5 3.5h-1zm-75 1 2 3zm-17 5 1 2zm70 1 .5 2.5h-1zm20 0-3 4zm-99 2-5 6zm13 1 4.5 2.5-1.5.5zm16 0 .5 1.5q-2 4.5-10.5 2.5v-1h8l1.5-1.5zm51 1 2 2 8.5.5-8.5.5zm-86 5-.5 1.5-.5 1.5-.5-1.5zm-2 4 .5 2.5h-1zm87 1 2.5.5-3 .5-1.5 3 .5-1.5zm4 1 3.5.5-3.5.5zm-58 1 2.5.5-2.5.5zm-4 1 2.5.5-2.5.5zm70 0 4.5 1.5-1.5.5-3-1zm-34 1 14.5.5-14.5.5zm-23 1 11.5.5-11.5.5zm63 0 6.5 3.5-1.5-.5-5-2zm-85 1 1.5.5-3.5 1.5v-1zm93 3 4.5 3.5 1 2-2-1q.8-2.2-1.5-1.5zm-113 3 .5 1.5-.5 1.5 1.5.5-1.5.5q-2.7-1.2-.5-2.5zm8 0-1 2zm-3 2-1.5 2.5 1 2-2-1zm113 2 .5 5-17.5 5v-1l14-6zm-80 13 2.5.5-2.5.5zm25 1 3.5.5-3.5.5zm18 7 4.5 3.5 6 7-5.5-4.5-3-1-11 2h-27l-12 6 1-2 2.5-1.5v-2l6.5-6.5h37zm-59 18 .5 5.5h-1zm-12 2-1 2zm17 5 .5 5.5h-1z"/><path fill="#685d90" stroke="#685d90" d="m103.5 67 1 2zm-67 11 4 5zm41 3 3 4zm64 2 4.5 2.5 4 9h-1l-4-9.5q-4.2 0-3.5-2Zm-70 3 1 2zm13 9 31.5.5-31.5.5zm-5 1 3.5.5-3.5.5zm72 3 .5 3.5h-1zm1 6 .5 8.5 8 9v9h-1q2.1-12.6-5.5-15.5-2.2.8-1.5-1.5l-1-1zm-41 17q9.4-1.9 12.5 2.5l-2 1-1.5-2.5h-9zm-34 1 26.5.5-26.5.5zm-5.5 1 4 .5-3.5 2.5zm3.5 4 1 2zm84 5 .5 1.5-4 5-.5 6.5-.5-6.5zm-80 29 4.5.5q-6.9-.4-8.5 4.5zm33 0 3.5.5-3.5.5zm10 4 1 2zm-54 5-1 2zm-5 3 .5 2-3.5 1v-1zm-19 19 .5 3.5h-1z" opacity=".996"/><path fill="#695d91" stroke="#695d91" d="m139.5 83 5.5 2 6 13.5 1 15 1 2.5 6 4.5q2.7 3.8 1 12l-4.5 6.5q-2.2.8-1.5-1.5-6.7-6.2-16.5-9.5l-11-2-6-4h-9l-1 1h-33l-5.5 1q1.7 4.1-2.5 3-18.8 4.2-31 15-3.9-4.6-2.5-14.5l3-8 8-10 1-16 5.5-6.5q4.2-4.3 14-3l6.5 4 3 8 5.5 1 1-1h32l1-1 6 2 8-11zM57 99l-2 1-3 4v4l3 6 9 4q8 2 10-2l-1-8-7-8zm78 0-7 4-5 9q0 4 4 6h8l6-3 5-7-1-6q-3-4-10-3Zm-60.5 68-1.5 2.5-1.5 3.5-5.5 2.5 1 2-4 10q1.3 8.9-1 12.5h-5v-7.5l2-7v-8l-.5-1.5 3 1 2.5-1q-1.1-2.7 1.5-2zm50 1 2 3zm-77 14-.5 1.5-3 10v6.5q-3.3 1.3-2-3.5l2-10z"/><path fill="#654776" stroke="#654776" d="m70.5 65 1 2zm28 1-1 2zm7 3 1 2zm49 1 1 2zm-3 9 2 3zm-5 6 7.5 9.5 3 17 8 10 1 11q-2.1 7.4-7.5 11.5l-2 1-.5-5.5q6.7-4.3 5-17l-8-9-1-14-3-9-3-4zm-69 9 2.5 1.5-1.5.5zm13 0 2.5.5-2.5.5zm14 29 9.5.5-9.5.5zm15 0 2.5 1.5-1.5-.5zm-43 1 12.5.5-13 .5-.5 3-.5-2.5zm45 3-1 2zm-28 2 5.5.5-5.5.5zm-3 26 5.5.5-5.5.5zm15 0 2.5.5-2.5.5zm-52 7q4-.5 4.5 2.5l-5.5 7.5-6 2 .5-1.5zm31 0 7.5.5-7.5.5zm11 0 16.5.5-16.5.5zm24 0 3 4zm15 2h9l5.5 5.5 1 3-3.5.5-13.5-7.5zm-61 3-2 3zm52 1q5.6 6.9 14.5 10.5l6 21-10 .5-6-24.5zm22.5 13q3.6 2.6 10 2l5 16.5-10 .5-3-14.5zM45.5 191l.5 2.5h-1zm-1 6 .5 2.5h-1z" opacity=".996"/><path stroke="#000" d="m139.5 30 2.5 1 18.5 37L179 80.5l-2.5 3.5-14.5 7-1 4.5 3 13 8 11 1 15q-3.4 10.6-11.5 16.5l-10.5 4 10 16.5q6.6 12.7 9 28.5h-5.5l-.5-1.5-5-15-4-7v-3L144.5 158l-2-1-19 4-40 1-4-1-3 1-21-4L44 174.5l-7 19-1 6.5h-6v-2.5q5.3-24.9 18-41.5-10.2-2.9-17-10.5-7-7-6-22 3-9.5 10-15v-7l3-11-14-16L43.5 65l3.5-3.5 11-23 5.5-7.5 2.5 1.5L77.5 63l9 4h3l10-12h2l5.5 5.5 5.5 6.5 15.5-7.5 7-23zm-.5 12-7 23-16 8-5 1-5-5-4-5h-3v2l-8 8-16-6-5-5-6-17q1-4-1-3L51 67 34 77l7 7h2q4-6 12-8h12l12 7 5 6 2-1 3 1 2-1h22l1 1 2-3q5-7 14-10h14l8 4 2 4 4 2 9-4 1-2-10-7-6-6-10-23zM58 81l-10 5-6 11-2 16q-6 4-9 12-1 10 3 15 9 9 24 13 6-1 9 2l32 1 1 1 38-4 14-4 7-4q5-4 8-11l-1-12-8-11-2-13-5-10-10-7q-10-1-14 3-7 3-7 10H86q-2 2-6 1l-4-5q-5-9-18-9Z" opacity=".973"/><path fill="#330e18" stroke="#330e18" d="m139.5 42 2.5 1.5-.5 1.5-.5-2zm-77 1 1.5.5-2.5 1.5zm88 20 1 2zm-49 1 4 5zm-30 1 1 2zm83 4 1 2zm-119 6-1 2zm97 0 8.5.5-8.5.5zm31 1 1 2zm3 2 1 2zm-130 1 4 5zm40 2 1 2zm43 0-2 3zm-76 1-1 2zm111 1 1 2zm-84 1 1 2zm9 0 1 2zm69 1 2 3zm-101 1-1 2zm30 7 1 2zm79 9 .5 2.5h-1zm4 12 3 4zm6 10 .5 4.5h-1zm0 7 .5 2.5h-1zm-1 4 .5 1.5-2 1zm-131 4 1 2zm129 0-1 2zm-4 4-1 2zm-38 11 2.5.5-2.5.5zm-44 1 2.5.5-2.5.5zm35 0 2.5.5-2.5.5zm-13 1 3.5.5-3.5.5zm-44 2-3 4zm82 0 2.5.5-2.5.5zm7 0 2 3zm-12 1 2.5.5-2.5.5zm-66 1 2.5.5-2.5.5zm58 0q4.4-1.5 3.5 1.5l8.5 7.5 11 5 6.5 1-3-6.5 2 1 5 12-5.5.5q-20.9-5.1-32.5-19.5-.9-3 3.5-1.5zm-54 1q5.4-.9 7.5 1.5L66.5 172l-17 9h-2l-5.5 1 2.5-8 2 1q14-5 24-14Zm9 0 3.5.5-3.5.5zm33 0 3.5.5-3.5.5zm35 1 3.5 4.5-2-1z" opacity=".996"/></svg>