<svg xmlns="http://www.w3.org/2000/svg" width="200" height="200"><path fill="#49251b" stroke="#49251b" d="M72.5 27q3.8-1 2.5 2l-4 1.5-2 25 1 1 1 11-8 5.5q1.1 2.7-1.5 2l-8 7q-8.3-1.3-12 2L35 90.5q-7.2 9.1-5 26.5l-5.5 4 4.5-5.5v-13L32 92q3 1.3 2-2.5l5-3.5 1.5-3 8-3h6l4.5-3.5 2.5-3.5 8.5-5.5-2-11v-11l1-1 1-15zm5 5 3.5 2v1.5L101.5 58h6l18-5 14-2 7-3h5l1.5 3.5-8 17.5q-2.7-1.1-2 1.5l-2 3.5-8 5.5 3.5 2.5 7-4h3v1l-12 4q-3-.5-2.5-4.5l8-6 5-6 7-16q-.7-2.2-4.5-1.5-6 4-16 4l-3 2h-6l-3 2-17 3zm113 43 1.5.5-6.5 7.5-1.5-.5 3-1.5q-.7-4.7 3.5-6Zm-37 2 2.5.5-2.5.5zm7 1 3.5 1.5-1.5.5zm5 2 2.5.5-2.5.5zm4 1 2.5 1.5-1.5-.5zm4 2q2.3-.7 1.5 1.5l.5 1.5zm5 4 2.5.5q-2.1 3.3-2.5-.5Zm19 3 .5 7.5h-1zm-1 13 .5 1.5-6 18 1 1v27l-1 1-1 19-4 19-4.5 10.5-.5-2.5 3-7 5-23 1-33 1-3-1-1v-11zm-190 13 1 2zm-5 2 .5 5.5H1zm7 1 1 2zm12.5 3 2 .5-5.5 6.5-3.5-2.5 2.5 1.5q2.3.8 1.5-1.5l1-2.5q3 1 2-2Zm-19.5 3 .5 11.5 2 9H3l-2-8zm148 12 1.5 2.5-1.5 2.5zm-144 14 7.5 13.5q1.1 20.9 9 35l-2 .5-5-13.5-4-23-6-11z" opacity=".122"/><path stroke="#000" d="m72 31 9 7.5L90 50q2.7-1.1 2 1.5l6 7.5 3.5 2h5l22-6 13-2 8-3 .5 2.5-4 9-6.5 8.5q-2.2-.7-1.5 1.5l-7 6-1 2 2 4.5q2.7-1.1 2 1.5 6.8 6.3 10.5 15.5l6 1q4.8 5.2 13 7l7-8 2.5-1.5 4-5v-2q-7.8-11.2-27.5-10.5l-11 4q-3-1.5 0-3l9-3h12q13.4 2.1 20 11l2.5-1 8-9.5 1-3.5 4.5-3 .5 20.5-2 11q-3 3-3 9l-2 2-1 9 1 1v21l-1 3q1.5 7.5-1 11v9q-3.2 2.3-2 9l-6 20.5q-2.7 1.1-2-1.5l5-13 4-22 1-37.5-2.5-1-3.5 3.5q1.8 10.3-4 13 1.3 11.8-2 19l-6.5 9.5q-3.6 4.4-11 5l-7.5-5.5q-3.6-5.4-2-16 2.5-1.5 1-7l4-7V136l-5-1-1 12.5-2 6-6.5 7.5-3 2-3.5 1-1 2.5v24l1 1v8l-2-1-1-33-1.5-1.5-6.5-3-3-6.5v-6l7-12.5 4-1-6 7.5-3 10q1.3 5.8 5.5 8.5l9 1 4.5-3.5 6-11 1-18-1-5-2.5-3.5-5 3h-7q-7.9-2.1-11.5-8.5l-4.5-7.5-.5 6.5 1 1v9l-4 15-6.5 6.5-9 2q-8.9-1.6-12.5-8.5-5-6.6-3-20 2.3-1.3 1-6l-4-7.5-10.5 5h-4l-7.5-4.5-3-10 2-10q-1.2-2.7-6.5-1.5l-3 1-7.5 7.5-3 8-1 12 5 18 10 15v2l-3 13-1 22 1 1 1 15.5q-3.7 1.3-2-4.5l-2-9v-17l1-1v-13q2.6-2.9 2-9l-4-5-7-15v-3l-2.5-2.5q-6.1 1.4-8.5 6.5-3.8 2.7-3 8.5l11.5 9h2l5-3 .5 3-6.5 3L17 135.5l-2.5-3.5q-2.2.8-1.5-1.5L7.5 125 6 126.5Q6 151 17.5 164l5-1q2.5-5.5 9-7 2.8 5.7 9.5 6v4H30.5l-5.5 3.5q-1 4.5 1.5 5.5l8 3 5-2 .5 3-8.5 1-2.5 2.5 2.5 5.5 9.5 1q1.3 3.3-3.5 2l-2 1-7.5-4.5-1-5 1-4.5-4-2.5-1-8.5q-4.6-1.2-6 1.5l3 18 6 13-1.5.5q-5.2-6.7-7.5-16.5l-3-21-4-5-5-13-2-11v-14l1.5-2.5 12 14 3.5-2.5 3-5.5 8-5v-11.5l3-11L42.5 85q3.6-2.9 11-2h2l2.5-1.5 5.5-6.5 8.5-5.5-2-22 1-1zm3 5-3 7q-1 20 6 32l6 4h8l8-4 2 4 7 4h7l9-3 8-5 1-2 3-2 8-11 1-6-18 3-17 5-10 1-20-21zm-7 41-4 2q-8 5-10 15-1 7 2 11l5 3q8 1 12-2 7-4 9-12l-1-12q-2-7-13-5Zm29 1q-4 5-13 4v13l-2 4 9 4h8l1 1 2-1h10q-1 3 2 2l1-2 1-11 5-7h-7l-1 1-6-1-7-7zm28 4-2 3 6 1q2-1 0-2 1-4-4-2Zm67 0-17 19-3 1-6 9-2 1-16-8-3-1v17l3 12 5 2 6-1 7-10h4l6 4 6-1 4-5 4-9 3-13 1-15zm-67 6-3 1-3 3-3 8 1 8 3 6q4 5 12 8h6l6-9q0-10-3-15l-8-9zm-43 15-3 3 2 6 3 2-3 9v7l3 8 10 7q8 1 12-3l5-8 2-10v-9l-1-5-3-5-2 1h-9q-2-2-7-1l-4-2zm86 23-2 3 3 1 1-2zm3 5-8 2-7 4-6 12v16l6 7h7l8-6 3-7 1-12 1-1-2-4 4-3 2-4-1-2q-2-4-8-2ZM30 160q-3 1-2 5l4-1q3 1 2-1 0-3-4-3Z" opacity=".996"/><path stroke="#000" d="M67.5 86q4.3 1.8 1.5 3.5L66.5 93q-4.6 1.3-2.5-4.5zm64 12 3.5 2.5q1.9 6.3-3 4.5l-2-5.5z" opacity=".996"/><path stroke="#000" d="M0 0h200v200l-18-.5 4-10 4-19 1-19 1-1v-27l-1-2q4.5-7.5 6-18l-1-3 .5-3.5 1.5.5-1-16 1-3-1-5.5h-4q1.3 3-2.5 2-4.2 1.3-3.5 6l-3 1.5.5 1.5q-2.2-.7-1.5 1.5l-1.5 2.5-3-1q-1.2 2.3-2.5-.5l-1-3.5-2.5 1-1-2-1.5.5.5-1.5-2 1-.5-2-7.5-2-1.5.5-.5-1.5-2 1-3-1-4 1-1.5-.5-.5 1.5-4-1-8 4-2-3 7.5-5.5 1.5-2.5q2.3.8 1.5-1.5 6.9-7.6 9-20-1.2-2.7-6.5-1.5l-11 4-10 1-18 5h-6L81 35.5 79 31l-3-1.5-1.5-2.5q-4-.5-4.5 2.5l-1 15-1 1v11l2 11Q60.8 72.3 54.5 80l-10 1-8.5 5-5 8.5-2 8v13l-1 1 .5 1.5-1-1-3.5 3.5q.8 3-3 1.5v2q-2.7-1.1-2 1.5l-1 2.5-8-5.5-1.5-3.5-1.5-.5q2.3-1.2-.5-2.5H3q1 3-2 2v19.5l2 8.5 2 .5-1 2q3.5 1.5 1 3l6 12 4 23 5 13.5H.5l-.5-.5z" opacity="0"/><path fill="#060000" stroke="#060000" d="m74.5 36 1.5.5-2.5 1.5zm-2 6 .5 13.5h-1zm69 12 4.5.5-13.5 2.5v-1zm-14 3 3.5.5-6.5 1.5v-1zm-54 2 .5 2.5h-1zm47 0 2.5.5-2.5.5zm-6 1 4.5.5-7.5 1.5v-1zm-8 2 3.5.5-8.5 1.5v-1zm31 7 1 2-2.5-.5zm0 3-2 3zm-4 1-1 2zm-55 1 3 4zm21 0 2 3zm3 4 2 3zm49 1 5.5.5-5.5.5zm11 4 8.5 4.5-1.5-.5-6-2zm10 5 1 2zm4 0 1 2zm-1 3 1 2zm-94 12 5.5.5q-5.4-.9-7 2l-.5 2.5-.5-2.5zm10 2 5.5.5-5.5.5zm11 1 3.5.5-3.5.5zm90 2 .5 2.5h-1zm-108 5 .5 3.5-2 2-1.5 11.5-.5-7.5zm106 2 .5 1.5-1.5 2.5-.5-2.5zm-78 1 .5 7.5h-1zm-107 2 1 2zm183 2 .5 5.5h-1zm-166 4-1 2zm-11 1 5 6zm173 0 .5 1.5-4 3zm-17 1-.5 1.5 1 2-2-1zm22 4 .5 3.5h-1zm-19 1 2.5.5-2.5.5zm5 0 2.5.5-2.5.5zm6 0 .5 5.5-4.5 6.5-.5-1.5q5-2.5 4.5-10.5Zm-15 1 2.5.5q-8.8 1.2-13 7l-5 9-.5 5.5-.5-5.5 6-11.5zm-83 2 3.5 5.5-3-2zm24 5-1 2zm-19 2 1 2zm86 2 1.5 2.5-2-1zm3 2 .5 7.5h-1zm9 4 .5 3.5h-1zm2 1 .5 8.5h-1zm-44 4-.5 1.5-4.5 5.5 3.5-4.5zm32 0 .5 3.5q-2.8 9.2-9.5 14.5-1.9 3.6-8 3v-1l5-1 6.5-5.5q.8-2.2-1.5-1.5l1-2 1 2q4.2-4.3 5-12Zm-165 5 2.5 4.5h-1zm139 3 1.5 4.5h-1zm37 1 .5 4.5h-1zm-157 3 9.5.5-9.5.5-4.5 2.5 1 5-2-1q-1-5.5 2.5-6.5zm-16 1 .5 2.5h-1zm138 1 3 4zm14 0-1 2zm-15 3 2 3zm35 0 .5 2.5-1.5 5.5-.5-5.5zm-158 4 1 2zm4 2 2.5.5-2.5.5zm3 2 4.5.5-4.5.5zm-4 1 1.5.5-3.5 4.5-.5-2.5zm153 0 .5 2.5-1.5 4.5-.5-3.5zm-154 6 1 2zm152 2 .5 2.5-1.5 3.5-.5-2.5z" opacity=".996"/><path fill="#0e0d0b" stroke="#0e0d0b" d="m71.5 32 .5 3.5h-1zm6 2 3 4zm-7 4 .5 7.5h-1zm12 6 2 3zm4 0 6 7zm-17 3 .5 7.5h-1zm21 6 4 5zm6 2 5 6zm-26 1 .5 5.5h-1zm1 9 .5 3.5h-1zm71 2-1 2zm-6 2-1 2zm-72 4-9 10-8.5-.5 8.5-.5zm72 1-1 2zm-75 7-2 3zm24 1 2.5.5-3 .5-.5 2-.5-1.5zm47 0 1 2zm-91 3-1 2zm8 0 2.5.5-2.5.5zm16 1-1 2zm-23 2-1 2zm83 0 3.5.5-3.5.5zm53 0 2.5.5q.7 3-3 1.5zm-141 1-1 2zm155 2 .5 2.5h-1zm-57 1 3 4zm-4 5 1.5.5-2.5 1.5zm41 1-1 2zm-94 1-1 2zm57 5-1 2zm-105 2 .5 10.5h-1zm156 27 .5 6.5h-1zm-171 1 3 4zm110 1-1 2zm-86 5 3.5 4.5-1.5-.5q-2.2.8-1.5-1.5zm112 0-1 2zm-126 3 1 2zm21 0 1 2zm39 0 1 2zm89 3 .5 3.5h-1zm-132 9 .5 3.5h-1zm-15 2-4 5zm111 0-1 2zm-99 18 2.5.5-2.5.5zm89 5 .5 2.5h-1zm-108 15 1 2z" opacity=".929"/><path fill="#0b0301" stroke="#0b0301" d="M194.5 73q4.6-1.3 2.5 4.5l1 3-1 1-1 22-2.5 6.5-.5-2.5 3-11v-15l1-2-1.5-5.5-5 4zm-45 5h9l9 3 5.5 3.5-1.5-.5-13-5h-9l-2 1v-1zm40 1-1.5 2.5-1.5 2.5q-2.2-.7-1.5 1.5l-4 3zm-46 1 2.5.5-2.5.5zm-3 1 1.5.5-4.5 2.5-.5-2zm34 4 3 4-2.5-1zM3 116l4 1.5 10 12-10-9-2.5-3.5-1.5 2.5-.5 16.5-.5-17.5zm26.5 1-3 4-5.5 4.5-2.5 3.5.5-1.5 8.5-9.5zm160 9 .5 3.5h-1zm0 9 .5 12.5h-1zm-186 2q1.1 10.9 5.5 18.5H8q-5-7.2-4.5-18.5Zm6 20 1 2zm179 2 .5 2.5h-1zm-1 9 .5 4.5h-1zm-1 7 .5 2.5h-1zm-170 6 .5 2.5h-1z" opacity=".847"/><path fill="#65c057" stroke="#65c057" d="m92.5 82 1 3 7 1 2-3 2 3 9 2 2.5-1-3 8.5v5.5l-15.5 1L85 99l1-15q4.5.8 6.5-2Zm39 8 1 2zm-76 4 .5 3.5h-1z"/><path fill="#65c057" stroke="#65c057" d="M42.5 96H51v6.5l4 7.5 10.5 3 10.5-4 3 5.5v4l-1 1v13q2.1 9.4 8.5 14.5 4.1 3.9 13 3 7.4-1.1 10.5-6.5l6-13 .5-15.5 6 7 8 4h5l1.5-.5v2l7 17-6.5 8.5-9 2-4.5-2.5-1-6 2-4.5q2.7 1.1 2-1.5l4-5-1-2.5h-3.5l-6.5 6.5q-4 5-4 14l1 1q-1.2 8.3 1 13l5.5 6.5 3.5 1 1 22.5 1 2.5H48.5l-.5-2.5-2-10v-20l1-1 1-14 2-4v-11l-1-3-10-10-3-6-1-14 1.5-5.5q1.5 2.5 3-1zm102 36 .5 6.5h-1z"/><path fill="#060604" stroke="#060604" d="m74.5 31 2 3zm2 6 4 5zm-3 1 .5 3.5h-1zm8 1 4 5zm4 8 4 5zm8 5 2 3zm55 4-.5 1.5-.5 1.5-.5-1.5zm-53 2 5 6zm48 2-1 2zm-2 3-.5 1.5-3.5 4.5 2.5-3.5zm2 2-1 2zm-72 4-1 2zm63 2-4 5zm-57 1 1 2zm-12 1-1 2zm29 3-1 2-5 1v-1q4.6.6 6-2Zm38 0-1 2zm-56 1 1 2zm20 1 1.5.5-2.5 1.5zm3 0 6 7zm-36 1-1 2zm53 2 2.5.5-2.5.5zm-6 1 3.5.5-3.5.5zm14 0 1.5.5-1 2.5q-2.7 1.1-2-1.5zm4 0 1.5 2.5-2.5 1.5v-1l1.5-.5zm21 0 7.5.5-7.5.5zm42 0 2.5 1.5-.5 6.5-.5-7-2.5 1zm-47 1-1 2zm16 0 2.5 1.5-1.5-.5zm-102 1-1 2zm63 0-.5 1.5-4.5 5.5 2.5-3.5q.6-2.7-5.5-1.5v-1q4.7-1.2 6 1zm-69 1 1 2zm32 0 .5 8.5h-1zm23 0 3.5.5-3.5.5zm27 0 1 2zm3 0 1 2zm52 0-4 5zm-145 1-1 2zm24 0 1 2zm-29 1-1 2zm24 2 .5 2.5h-1zm58 0-2 3zm11 0 2 3zm5 0 2 3zm-69 2-1 2zm115 0-8 9zm-131 1 .5 3.5h-1zm2 1 .5 6.5h-1zm138 1 .5 4.5h-1zm-53 2 1 2zm35 0-1 2zm-60 1 .5 5.5-1 2.5q-3.1.8-2.5-2h-7v-1q6.8-.9 9.5 1zm-62 1 .5 3.5h-1zm30 0 1 2zm51 0 1 2zm-3 3 1.5 2.5h-1zm5 0 .5 2.5h-1zm34 0-1.5 2.5-4.5 5.5-3.5-1.5 1.5-.5 2 1zm-79 1 2.5.5-2.5.5zm55 0 4.5 3.5-1.5-.5-3.5-1zm-114 1 .5 2.5h-1zm22 0 1.5 2.5-2-1zm3 1 2 3zm17 0-1 2zm98 0-5 6zm-96 2 1.5.5-4.5 2.5 1-2zm23 0 3.5.5-3.5.5zm11 0 1 2zm42 0 4.5 2.5-1.5-.5q-3.7-.2-3-2Zm-118 1 .5 6.5h-1zm22 0 3.5 2.5-1.5-.5zm88 0 .5 5.5h-1zm-66 1 3.5 5.5-3-2zm37 0 2.5 3.5h-2l-.5 3.5zm-45 1 1.5.5-3.5 1.5v-1zm89 0 1 2zm31 0 .5 2.5-1.5 2.5-.5-1.5zm-108 1 2 3zm36 3 1 2zm3 0 5 6zm22 1 .5 1.5-2 1zm45 1 .5 1.5-4.5 6.5 1.5-2.5zm-153 1 .5 2.5h-1zm85 0 5 6zm19 4-1 2-6.5-.5zm-103 1 1.5 4.5h-1zm44 0 .5 10.5h-1zm-51 1-5 6zm99 0 2.5 1.5-1.5.5zm12 0-1 2zm31 1 2 3zm-39 1 4.5.5-4.5.5zm34 0-2.5 3.5-4.5 5.5 3.5-4.5zm17 0-1 2zm-175 1 5 6-5-5-1.5.5zm107 0 .5 4.5h-1zm54 1 1.5 2.5q-1.5 3-3 0zm7 0 4.5.5-4.5.5zm10 0q3-.5 1.5 6.5h-1zm-167 3-1 2zm4 0-1 2zm123 0 .5 12.5h-1zm-139 1 .5 5.5H6zm32 0 2.5 4.5-2-1zm-24 2 2 3zm6 0 .5 3.5h-1zm89 2 .5 1.5-2.5 3.5.5-1.5zm18 0 1.5.5-2.5 1.5zm-15 1 .5 1.5-1.5 2.5-.5-1.5zm-90 1 4 5zm19 0 6 9q2.6-.8 1.5 2.5h-1l-7-10zm40 0q2.2 6.8 8 10l1.5.5-1.5.5-7.5-7.5zm97 0-1 2zm-54 1-2.5 3.5-1.5 2.5.5-1.5zm4 0-4.5 5.5-2.5 5.5-.5-1.5zm24 0 .5 2.5h-1zm-132 1 4 5zm19 0 3.5 5.5-3-1-.5 2.5-1-3-7 3-2-3 4 2 5-3 1.5.5zm71 2-5 6zm76 0 .5 8.5h-1zm-13 1 1.5 4.5-1.5-.5-2-1-2.5 2.5v6l-4 8.5-4.5 1-2.5-1q-1.6-2.1-1-7.5l5.5-9.5q7.5.5 11-3Zm-8.5 6-3 1-2 6v4l3 1 3-5q1-8-1-7Zm-62.5-5 1.5.5-2.5 1.5zm45 1 .5 4.5h-1zm-120 1 2 3zm67 0 5.5.5-5.5.5zm-51 1q2.5 1 1.5 5.5h-1zm-8 1-1 2-1.5-.5zm57 1 2.5.5-2.5.5zm7 0 2.5.5-2.5.5zm44 2 .5 1.5-1.5 2.5-.5-1.5zm-23 1 .5 2.5h-1zm54 0 .5 4.5h-1zm-26 1 .5 1.5-1.5 4.5-.5-3.5zm-137 2 1.5 2.5-2-1zm35 1 .5 2.5h-1zm95 0-2 3zm9 0 .5 7.5h-1zm-29 1 4 5 9 1 4-3-1 2q-2.6 3.4-10 2l-5.5-4.5zm-89 1 7.5 5.5-1.5.5zm87 2 1.5 2.5h-1zm28 0 .5 5.5h-1zm38 0 .5 3.5h-1zm-171 1 1 2zm15 1q4-.5 4.5 2.5.8 2.3-1.5 1.5l-1-3-2.5 1.5q-.7 2.3 1.5 1.5v1q-4.2 1.3-2.5-3.5zm16 1 .5 4.5h-1zm77 0 2 3zm-106 1 2.5 1.5-1.5.5zm24.5 0q3.5-1.1 2 6.5h-1zm85.5 2 2.5 1.5-1.5-.5zm7 0 1.5.5-2.5 1.5zm-93 2-1 2-2.5-.5zm128 0-1 2zm16 0 .5 3.5h-1zm-166 1q5.4-1.9 4.5 1.5l-1.5-.5q-5.7-1.8-3.5 4.5h-1q-1-4.5 1.5-5.5Zm113 0 .5 22.5h-1zm18 2 1 2zm15 0-2 3-6.5-.5 6.5-.5zm-120 2 .5 12.5h-1zm84 1 .5 7.5h-1zm-99 3 1 2zm-11 1 .5 2.5h-1zm6 0 3.5 2-.5 4zm15.5 0q3-1.2 2 2.5l-2 1zm-20.5 4 .5 2.5h-1zm14 0 2.5.5-2.5.5zm-13 4 1.5 4.5h-1zm22 3 .5 5-6-.5 4-.5-1-2.5zm-14 1 6.5 3.5-2.5.5zm6 0 4.5.5-4.5.5zm11 1 .5 4.5h-1zm84 1 .5 4.5h-1zm-106 3 1.5 3.5h-1zm109 1 .5 3.5h-1zm-89 1 .5 2.5h-1zm3 2 .5 2.5h-1z" opacity=".996"/><path fill="#968ca0" stroke="#968ca0" d="m75.5 29 4 5-3.5-2zm1 11L101 66.5l-5.5.5-13 8Q77 70.5 76 61.5l11-7-11-13zM90 55l-1 2 2 1zm6 7-1 2 3 1zM58.5 76l-2 3zm12 2 4.5.5-4.5.5zm6 1 2 3zm-12 1 1.5.5-6.5 5.5zm32 0-1 2-2.5 1.5.5 1.5q-3.5-2 1-4zm3 0 2 3zm-33 4 2.5.5-2.5.5zm82 0 9.5.5-9.5.5zm-84 1-1 2zm16 1 .5 5.5h-1zm61 0 1.5.5-3.5 1.5v-1zm-95 1 2.5.5-3.5 1.5zm-3 2-4 5zm96 0 1 2zm-10 1 2.5 1.5-1.5-.5zm-59 1-3 4-1.5-.5zm116 0-4 5zm-65 1-1 2zm12 0 5 6zm-83 2 .5 2-2-.5zm108 0-2 3zm-28 2-1 2zm13 0 2 3zm-106 1 .5 2.5h-1zm98 0 1.5 3.5h-1zm-58 1-4 5zm41 0 .5 7.5h-1zm-61 4 3 4zm14 1-1 2-3 1v-1zm103 0 .5 1.5-3 2zm-44 2 1 2zm6 0-1 2zm5 0 .5 8.5h-1zm-79 1 2.5.5-2.5.5zm83.5 0 18 8.5q-7.8 6-12 14.5l-2.5 1-3.5-11.5zm-26.5 1 1.5 2.5-2-1zm2 4 1 2zm2 3 1 2zm3 2 1 2zm13 1-1 2zm-8 2 2.5.5-2.5.5zm-101 4 2.5 1.5-.5 1.5-.5-2zm111 0q2.3-.7 1.5 1.5h-3zm-113 1-1 2zm109 1 1.5.5-2.5 1.5zm6 1 .5 2.5h-1zm-117 1-.5 1.5 1 6.5 7.5 2 2.5-1.5 1 4-5.5 3.5-10.5-8.5q.5-5.5 4.5-7.5Zm-18 2q9.9 13.1 25 21l1.5-.5L22.5 161l-4 1-6.5-10.5 8-8-1-1-2-3-8-8zm134 12q2.6-.8 1.5 2.5h-1zm-103 5 1.5.5-2.5 1.5zM19 169q3.3-1.3 2 3.5l3 6.5q3-1.2 2 2.5l-1 4 3.5 5.5q2.8 3.7 10 3l3.5-1 1 7H28.5l-1.5-1.5q-7.2-12.1-8-29.5Z" opacity=".933"/><path fill="#a74c48" stroke="#a74c48" d="m75 39 4 2.5-3-1 11 14-11 7q1 9 6.5 13.5l13-8 5.5-.5-1.5-2.5q1.5 2.5 7 1l37.5-9-9.5 14-2.5 1.5q.8 2.3-1.5 1.5l-9 6-7 2h-5l-6.5-4.5-2.5-3.5h-3l-7 4h-6L79 72.5l-4-10-1-19zm10.5 10 3 4zm10 11 2 3zm65 25 10 4 4.5 4.5q.8 2.3-1.5 1.5l-10 11-6.5-2q1.3-3-2.5-2l-5.5-1.5q6.6-1.4 10-6l2-7zM81 105h5.5l4 2q5.5-1.5 7 1H110l1 5.5v12l-4 11-3.5 3.5q-3.8 2.7-12 1l-6.5-5.5-2-6v-6l2-3.5q3.7-1.3 2 4.5l2 7 3.5 3.5q7.6 1.1 9.5-3.5l3-7v-5l-2-4.5q-14.2 1.4-21-5.5zm102 24 2 .5v26l-1 1-2 21-7 22.5h-39.5l-1.5-1.5q1.8-6.2-1-8v-23l9-6 2.5-3.5 2.5 11.5 3 4.5 6.5 3h4l7-3 6.5-6.5 5-12v-12q5.8-4 4-14.5Z" opacity=".98"/><path fill="#a74c48" stroke="#a74c48" d="M170.5 133h7l.5 1.5-2.5 3.5-14.5 4-5 9.5v8l3.5 4.5q6.2.7 7.5-3.5l4-8V148q3-1.2 2 2.5l-1 2 1 4q-2.6 7.4-8.5 11.5l-8 1-4.5-6.5v-13q2.4-9.1 9.5-13.5zm-138 35 8.5 1q1.3 4.6-1.5 6h-10l-2.5-2.5 1.5-3.5zm5 13q5.3-1.7 3.5 3.5-1 3.5-6.5 2.5l-2.5-3.5z" opacity=".98"/><path fill="#464340" stroke="#464340" d="m74.5 29 1 2zm2 3 7 8zm-1 6-.5 1.5-.5 3.5-.5-3.5zm4 4 5 6zm10 4 4 5zm0 7 5 6zm7 1 5 6zm13 4 2.5.5-2.5.5zm32 3-1 2zm-3 4-1 2zm6 1-2 3zm-74 2-1 2zm63 2-1 2zm6 2-1 2zm-60 1 2 3zm51 0-2 3zm-35 1-1 2-3 1v-1zm-35 2-5 6-1.5-.5zm25 1 4.5.5-4.5.5zm38 0 1.5.5-2.5 1.5zm-46 2 1 2zm-15 2-3 4zm71 1 2.5 1 1 2.5zM85 83l5 .5-4 .5-.5 3zm65.5 0 7.5.5-7.5.5zm-109 1-1 2zm62 0 1 2zm88 0 .5 10.5-5 20q-2.2 6.8-7.5 10.5h-5l-7-4-2.5 1-4 7h-2q1.1 2.7-1.5 2l-3 2-6.5-3.5.5-1.5.5 2 3-1.5 12-14-4-2 1.5-.5 3 1L185 91.5V90l4-2.5zm-126 1-2 3zm-14 1 1.5 3.5h-1zm55 0 2.5.5-2.5.5zm9.5 0q2.7-1.1 2 1.5l-3 2zm-45.5 1 .5 2.5h-1zm41 0 2.5.5-2.5.5zm-68 1-4 5zm95 1 2 3zm34 1 2 3zm-121 2 .5 2.5h-1zm69 0-1 2zm14 0 4 5zm-101 1 .5 1.5-1.5 2.5-.5-1.5zm5 1-1 2zm75 1 .5 4.5h-1zm60 0-2.5 3.5-1.5 2.5-3.5 2.5-2.5 3.5-1.5-.5 3-2zm-89 1 .5 2.5h-1zm60 2 1 2zm-67 1-3 4zm9 0 4.5 1.5-2.5.5zm-51 2 .5 2.5h-1zm57 0 4.5.5-4.5.5zm10 0 10.5.5-10.5.5zm34 0 .5 2.5h-1zm-80 1 1 2zm99 0 3 2 2.5 1.5-1.5.5zm-96 3 2.5 1.5-1.5.5zm76 0-1 2-1.5-.5zm11 0 9.5 4.5-1.5.5-8-4-1.5.5zm-49 2 2.5.5-2.5.5zm45 0 .5 4.5h-1zm-108 1 .5 3.5h-1zm41 0 1.5 2.5h-1zm70 1 .5 2.5h-1zm12 1 1 2zm-37 1 1 2zm-58 1 3.5.5-3.5.5zm15 0q3.3.8 2.5 5.5h-1q.5-4.7-1.5-5.5Zm39 2 2 3zm-81 1 .5 2.5h-1zm91 2 1 2zm-7 1 3 4zm20 0-1 2zm-103 1q3.6 10.4 12.5 15.5 2.4 5.1 1 14h-1v-4q-7.1-5.4-10-15zm42 0 .5 3.5h-1zm7 0 2.5 1.5-.5 1.5-.5-2zm47 1 4.5.5-4.5.5zm-102 2 2.5 1.5-1.5-.5zm94 0 4.5 2.5-1.5.5zm17 0 1.5.5-2.5 1.5zm6 0 .5 2.5h-1zm-17 3 2.5.5-2.5.5zm-20 1 .5 2.5h-1zm5 0 .5 4.5h-1zm-108 1 15 16L9 130.5l8 10.5q2.7-1.1 2 1.5l1 1-7.5 7.5q-2.6.8-1.5-2.5l-3-9zm18 0-2.5 3.5-1 4 10.5 8.5 5.5-3.5.5-1.5.5 1.5-6.5 4.5-11.5-9.5q.5-5.5 4.5-7.5Zm159 1 1.5 1.5v16h-1v-16zm-106 1 .5 3.5h-1zm66 0 .5 2.5h-1zm-18 4 3.5.5-3.5.5-5.5 5.5-1.5 2.5.5-1.5zm-46 4 1.5 2.5-2-1zm26 0-3 4-7 2-4.5-1.5 9.5-.5zm68 1-1 2-1.5-.5zm-30 1 .5 3.5h-1zm24 1 2.5.5-2.5.5zm-86 1 2.5 4 4 2.5-1.5-.5-3.5-2.5zm81 0 2.5.5-2.5.5zm17 0-1 2zm-156 2 3 4zm85 0-4 5-4 1v-1q5.9-.6 8-5Zm9 0 .5 1.5-1.5 2.5-.5-1.5zm-79 2q4.8-1.7 3.5 2.5v2L42 161q-6-1-9.5-6h-3l-6.5 5.5 11-10q-2.3-1.2.5-2.5zm.5 1-1 2 2-1zm103.5-1 .5 1.5-3 7-6.5 6.5q-9 1.5-11.5-3.5l-1-8h1l2.5 5.5 6 1q7.4-1.1 10.5-6.5zm-114 2 1 2zm142 0q3.8-1.2 2.5 2.5h-1q.8-2.2-1.5-1.5zm-78 2 6.5.5-6.5.5zm23 0 .5 4.5h-1zm-104 3 3.5 6.5-2-1zm35 2 .5 2.5h-1zm70 2q.9 5.6 5 8l5.5 2v6.5l-1 1 1 1v10h-1v-9l-1.5-.5-6.5-5.5q-3.5-4.9-1.5-13.5Zm28 0 1.5 10.5 3 5-3-2-2.5-11.5-2.5 1.5zm39 0 .5 4.5h-1zm-13 3 .5 1.5-2 1zm-155 1 3.5 2.5-1.5.5zm125 1-2 3zm-95 2 .5 3.5h-1zm123 0-4 5zm-35 2 1.5.5-3 2-.5 21.5-.5-21.5zm49 0 .5 4.5h-1zm-29 2q1.7 3.3 7.5 2.5l-5.5.5zm19 0-1 2zm-155 2 .5 4.5h-1zm3 0 .5 3.5h-1zm147 3-1 2zm-146 2 4.5 6.5h-1l-2-3q-3-1-1.5-3.5Zm10 1 3.5.5-3.5.5zm13 0 .5 5.5h-1zm116 0 1.5.5q-1.7 2.3-6.5 1.5v-1zm-142 1 .5 2.5h-1zm1 4 .5 2.5h-1zm5 2q.7 7.3 6 10l7 1 3-1v1l-7 1-7.5-4.5q-3-2.7-1.5-7.5Zm6 1 2.5 3.5-3-2zm9 2 .5 2-2-.5zm6 3 .5 4.5h-1zm132 1 .5 1.5-3.5 8.5-.5-1.5zm-45 2 .5 6.5h-1zm-5 3 .5 3.5h-1zm-103 1 2.5 4.5-2-1zm17 0 .5 2.5h-1z" opacity=".961"/><path fill="#ecf1db" stroke="#ecf1db" d="m89.5 55 8.5 9.5-1.5.5-7.5-8.5zm-20 24q8-1.5 9.5 3.5l1 11-7.5 9.5-6 3h-5q-6.2-2.7-5.5-12.5 2.1-8.3 8.5-12.5zM67 84l-2 1q-4 2-3 8 1 3 6 2l4-5-1-5zm30.5-4 4.5 3.5q.8 2.3-1.5 1.5l-4 1-3.5-2.5zm50 5h11l1.5 1.5q.4 8.9-5.5 11.5l-6 2-5.5-4.5-4-7zm-98 2 2.5 1.5-1 5-2.5 2.5-2-1-8 4-.5-2.5 6.5-7.5zm75 3q10.7.8 14.5 8.5 4 5 2 16l-3.5 4.5-3 1q-7.5-1.4-11.5-6.5-5.8-4.7-4-17l3-5.5zm6.5 6-3 4 4 7q4 1 5-1 1-7-1-9zM29.5 124q3.3-1.1 2.5 1.5l4 10q-.7 2.3-4.5 1.5l-4.5-2-1-6.5zm112 0q4.4 5.8 2.5 17-3.3 1.3-2-3.5l-5-11.5z" opacity=".996"/><path fill="#22231b" stroke="#22231b" d="m73.5 29 2 3zm2 8 6 7-6-6-1.5.5zm6 1 7 8zm4 10 4 5zm-12 1 .5 3.5h-1zm20 2 2 3zm50 4q2.6-.8 1.5 2.5l-2.5 3.5.5-1.5 1-3zm-69 3 .5 3.5h-1zm21 1 4 5zm12 0 2.5.5-2.5.5zm-5 1 2.5.5-2.5.5zm45 0-1 2zm-6 2-1.5 2.5L129.5 76l9.5-10.5zm3 3-1 2zm-3 4-2 3zm-73 1-1 2zm32 3 1 2zm-4 1-1 2zm6 2 3 4zm-32 1q5.3-1.2 6.5 1.5l-1.5-.5q-6 1.3-5-1Zm-6 2-1 2zm35 0 1 2zm32 0 1.5 2.5-2-1zm-14 1 2.5.5-2.5.5zm-8 1 5.5.5-5.5.5zm-64 1 1.5.5-4.5 2.5 1-2zm43 0 2.5.5-2.5.5zm14 0 4.5 3.5-1.5.5zm24 0 1.5 3-3-1.5zm20 1 3.5.5-3.5.5zm45 0 1.5.5v7h-1q.5-6-.5-7.5Zm-57 1 2.5.5-.5 1.5q2.6-.8 1.5 2.5h-1zm-76 1-1 2zm8 0 3.5 1.5-1.5-.5q-3 .5-2-1Zm-27 1-3 4zm70 0 6.5.5-6.5.5zm9 0 .5 1.5-3.5 4.5-.5-1.5zm-37 1 .5 4.5h-1zm4 0 .5 4.5h-1zm103 0-2 3zm-18 1 1 2zm-38 2 1 2zm-97 1-.5 1.5-.5 1.5-.5-1.5zm149 0-6 7zm-121 1 3.5 1.5-2.5.5zm51 1 .5 2.5h-1zm61 0 .5 1.5-5 4zm-124 2 .5 5.5h-1zm140 0 .5 4.5h-1zm-49 1 1 2zm-63 1-1 2zm38 0 .5 2.5h-1zm16 0 1 2zm-20 3 .5 3-2-.5zm-37 1-1 2zm92 0-1.5 2.5-3.5 4.5-3.5-1.5 1.5-.5 2 1zm6 0-1 2zm16 0 .5 3.5h-1zm-96 1 7.5.5-7.5.5zm23 0 .5 3.5h-1zm37 0 2 3zm-124 1 .5 2.5h-1zm43 0-1 2zm-39 1 .5 3.5h-1zm23 0 1 2zm25 0 3.5.5-3.5.5zm49 0 1 2zm13.5 0 2 .5-2 1zm27.5 0-6 7zm-119 1 3.5 4.5-3-2zm38 1 2.5.5-2.5.5zm98 0 .5 2.5-2.5 5.5-.5-1.5zm-127 1 3.5.5-3.5.5zm13 0 1 2h-2l-2 1 1-2zm25 0 9.5.5-9.5.5zm-19 2 2 3zm29 0 .5 2.5h-1zm-33 1 2.5 3.5-3-2zm81 0 2.5 1.5-1.5.5zm-98 1 7.5.5-7.5.5zm-26 1 .5 3.5h-1zm80.5 0q2.7-1.1 2 1.5l1.5 2.5-2.5-1.5-.5 11.5zm5.5 0 6 7zm25 0 .5 6.5h-1zm17 0 2.5.5-2.5.5zm-66 3 5.5.5-5.5.5zm90 0 .5 1.5-5 8.5q-2.1 1.6-7.5 1l-4.5-3.5 2.5 1.5 7 1q5.1-3.4 7-10Zm-75 1 .5 8.5h-1zm8 1 4 5zm-84 1q2.5 12 8.5 20.5l-2-1q-5.5-8.4-6.5-19.5Zm50 0 3.5 1-1.5 5-.5-1.5 1-2-3-1.5-.5 2-.5-1.5zm19 1 .5 5.5h-1zM94 120l6 1-2 8h-5v-6.5zm73.5 1 1.5.5-7 6-.5 1.5-.5-1.5 4-5.5zm-138 1-1 2zm96 0 2.5 1.5-1.5-.5zm15 0-1 2zm-62 1 .5 5.5h-1zm-52 2-3 4zm62 1 .5 3.5h-1zm56 0 .5 2.5h-1zm-136 1 6 7zm151 2 .5 1.5-4.5 2.5v-1l3.5-1zm23 0 .5 3.5h-1zm-68 1 .5 2.5h-1zm-107 1 .5 6.5H7zm165 1 4.5.5-4.5.5zm-81 1 2.5 1.5-1.5.5zm17 1 .5 1.5-2 1zm21 0 .5 3.5-6 5q5.4-1.6 5.5-8.5Zm-44 2 6.5 5.5-1.5.5zm92 0-3 4zm-54 1-2 3zm36 0-3 4zm-140 1 4 5zm6 0 2 3zm81 0-3 4-1.5-.5zm75 1-1 2zm-173 1 .5 2.5H8zm30 0-1 2zm6 0 4 5zm38 0 2 3zm28 1-5 6-3 1v-1q5.8-1.2 8-6Zm10 0-1 2zm28 0 1.5 2.5-3 10-.5 8.5-1-6-1.5.5 3-4zm18 0 3.5.5-3.5.5zm-136 1 1 2zm63 0 4 1 3-1v1l-5 1zm69 0-2 3zm16 1 .5 2.5h-1zm-169 1 .5 2.5H9zm18 1 1 2zm60 0q4 4.5 13.5 3.5l-8.5.5q-4.6-.7-5-4Zm-51 1-1 2zm123 0-1 2zm12 0 2.5.5-3 .5-.5 6-.5-5.5zm14 0 .5 10.5h-1zm-155 1 3.5 1.5-2.5.5zm87 0 .5 3.5h-1zm26 0 .5 1.5-2.5 4.5-.5-1.5zm21 1q2.8 1.3.5 2.5.5 5.5-2.5 7.5-2.7.6-1.5-5.5zm-121 1 .5 2.5h-1zm78 0 .5 4.5h-1zm52 1 .5 5.5h-1zm5 0 .5 4.5h-1zm-131 1 .5 2.5h-1zm104 1 .5 9.5h-1zm-34 1 .5 2.5h-1zm39 0 .5 5.5h-1zm-16 1-5 6zm-111 1-1 2zm3 0q3.5 5 9.5 6l.5-2 .5 1.5-2.5 1.5q-6-2.5-8-7Zm91 2q2.8 4.3 10.5 3.5l-6.5.5zm-77 1 .5 4.5h-1zm73 2 8.5 5.5-1.5.5q-5.5-1.8-7-6Zm22 0-3 4zm25 0-2 3zm-150 1 1 2zm6 0-1 2-1.5-.5zm8 0 2.5 1.5-4 1.5zm127 0 3.5 2.5-1.5.5zm14 0-1 2zm13 0 .5 3.5h-1zm-51 4-1 2zm-92 1 .5 8.5h-1q2.7-7.8-4.5-5.5v-1q4.3.8 5-2Zm112 0 3 4q6 1 8-2l-1 2-7 1-3.5-3.5zm-108 1 .5 7.5h-1zm83 0 .5 2.5h-1zm-110 1q3.8-.7 4.5 1.5l-.5 4.5-.5-5q-4.4 1-3.5-1Zm10 0 1.5.5-3 2-.5 2.5-.5-2.5zm120 0 1.5 2.5-2-1zm23 1-2 3zm-21 3 2 3zm16 1-1 2zm-11 2 5.5.5-5.5.5zm27 0 .5 2.5h-1zm-142 5 1.5.5v7.5l-8-.5 7-.5zm-7 1 2.5.5-3.5 1.5zm12 0 .5 6.5h-1zm83 2 .5 10.5h-1zm-97 2 1 2zm101 4 .5 3.5h-1zm-98 3 4.5.5-4.5.5zm8 0 .5 2.5h-1zm4 1 .5 3.5h-1zm83 4 .5 2.5h-1zm47 0 .5 1.5-2 1z" opacity=".973"/><path fill="#2b0a09" stroke="#2b0a09" d="m73.5 42 .5 6.5h-1zm0 11 .5 3.5h-1zm59 4 2.5.5-2.5.5zm-31 7 2.5.5-2.5.5zm-22 10 2 3zm24 4 1 2zm71 13 1 2zm-93 13-.5 1.5-.5 2.5-.5-2.5zm13 2 3.5.5-3.5.5zm-10 6 5 3 13.5 1q1.9 2.7 1 9.5l-3 7.5-6.5 2-4.5-2-2-10.5 1-3.5-3.5-1q-3.9 4.1-3 13l-.5-8.5 4-8zm9.5 8-1 3v6h5l2-8zm17.5-7 .5 2.5h-1zm79 5-.5 1.5-.5 6.5-.5-6.5zm-6 9 1.5.5-2.5 1.5zm6 4 .5 2.5h-1zm-13 1 1 2zm-11 1 2.5.5-2.5.5zm16 0 .5 2.5h-1zm-19 1 1.5.5-8.5 5.5 3-4zm-14 2 2.5 1.5-1.5.5zm-64 1 4 5zm88 3-1 2-10 2-1.5 1.5-3.5 7.5-.5-2.5 6.5-8.5q7 1 10-2Zm-18 1-1 2zm24 0-1 2zm-88 1 3.5 1.5-1.5.5zm79 3 3.5.5-4 2q.7 11.7-6.5 15.5l-2 1-4.5-3.5.5-1.5.5 2 4.5 1 2.5-1 3-5.5 1-9zm-18 1 .5 1.5-1.5 4.5-.5-3.5zm26 0 .5 3.5h-1z" opacity=".945"/><path fill="#2b0a09" stroke="#2b0a09" d="M164.5 147q2.3-.7 1.5 1.5-2-1.7-4 2l-.5 1.5-.5-1.5 1-2.5zm25 1 .5 3.5h-1zm-24 2 .5 3.5-1.5 2.5-.5-1.5zm-5 3 .5 5 2.5-1-1 2-2.5-1.5zm29 0 .5 5.5h-1zm-46 4-6 7zm-134 1 1 2zm179 4 .5 5.5h-1zm-19 2-1 2zm5 0-1 2zm-161 2 .5 4.5h-1zm17 1 6.5.5-6.5.5zm142 0-5 6zm-145 1-1 2zm126 0 2 3zm-3 3 3 4zm-124 2 1 2zm139 0-1 2-1.5-.5zm22 0-1 2zm-173 1 .5 2.5h-1zm22 6 3.5.5-3.5.5zm-4 1-1.5 2.5-.5 1.5-.5-1.5zm152 3 .5 2.5-3.5 10.5-.5-2.5z" opacity=".945"/></svg>