<svg width="200" height="200" version="1.1" xmlns="http://www.w3.org/2000/svg" desc="Created with imagetracer.js version 1.2.6" ><path fill="rgb(0,0,0)" stroke="rgb(0,0,0)" stroke-width="1" opacity="0" d="M 0 0 L 200 0 L 200 200 L 174.5 200 L 174 196.5 L 168 170.5 L 161 153.5 L 155 145.5 Q 167.8 140.3 176 130.5 L 180 112.5 L 180 89.5 L 171 76.5 L 171 69.5 L 166 50.5 L 159 35.5 L 154.5 30 L 150.5 29 Q 128.3 35.3 113.5 49 L 107.5 49 L 106.5 48 L 88.5 48 L 69.5 31 L 63.5 27 L 58.5 26 L 51 31.5 L 39 55.5 L 35 75.5 L 24 90.5 L 24 114.5 L 26 124 Q 17.9 124.8 14 131.5 L 11 137.5 L 11 151.5 Q 15.2 171.8 28.5 183 L 37.5 186 L 46 186 L 46 199.5 L 45.5 200 L 0 200 L 0 0 Z " /><path fill="rgb(0,0,0)" stroke="rgb(0,0,0)" stroke-width="1" opacity="0.3058823529411765" d="M 58.5 26 L 61 26.5 L 58.5 27 L 58.5 26 Z " /><path fill="rgb(0,0,0)" stroke="rgb(0,0,0)" stroke-width="1" opacity="0.3058823529411765" d="M 54.5 28 L 51.5 32 L 54.5 28 Z " /><path fill="rgb(0,0,0)" stroke="rgb(0,0,0)" stroke-width="1" opacity="0.3058823529411765" d="M 150.5 29 L 153 29.5 L 150.5 30 L 150.5 29 Z " /><path fill="rgb(0,0,0)" stroke="rgb(0,0,0)" stroke-width="1" opacity="0.3058823529411765" d="M 154.5 30 L 156.5 33 L 154.5 30 Z " /><path fill="rgb(0,0,0)" stroke="rgb(0,0,0)" stroke-width="1" opacity="0.3058823529411765" d="M 50.5 33 L 49.5 35 L 50.5 33 Z " /><path fill="rgb(0,0,0)" stroke="rgb(0,0,0)" stroke-width="1" opacity="0.3058823529411765" d="M 157.5 34 L 161 39.5 L 159 38.5 L 157.5 34 Z " /><path fill="rgb(0,0,0)" stroke="rgb(0,0,0)" stroke-width="1" opacity="0.3058823529411765" d="M 77.5 37 L 87.5 48 L 77.5 37 Z " /><path fill="rgb(0,0,0)" stroke="rgb(0,0,0)" stroke-width="1" opacity="0.3058823529411765" d="M 130.5 37 L 129.5 39 L 130.5 37 Z " /><path fill="rgb(0,0,0)" stroke="rgb(0,0,0)" stroke-width="1" opacity="0.3058823529411765" d="M 47.5 38 L 46.5 40 L 47.5 38 Z " /><path fill="rgb(0,0,0)" stroke="rgb(0,0,0)" stroke-width="1" opacity="0.3058823529411765" d="M 125.5 40 L 124.5 42 L 125.5 40 Z " /><path fill="rgb(0,0,0)" stroke="rgb(0,0,0)" stroke-width="1" opacity="0.3058823529411765" d="M 122.5 42 L 121.5 44 L 122.5 42 Z " /><path fill="rgb(0,0,0)" stroke="rgb(0,0,0)" stroke-width="1" opacity="0.3058823529411765" d="M 119.5 44 L 117.5 47 L 119.5 44 Z " /><path fill="rgb(0,0,0)" stroke="rgb(0,0,0)" stroke-width="1" opacity="0.3058823529411765" d="M 115.5 47 L 114.5 49 L 115.5 47 Z " /><path fill="rgb(0,0,0)" stroke="rgb(0,0,0)" stroke-width="1" opacity="0.3058823529411765" d="M 102.5 48 L 107 48.5 L 102.5 49 L 102.5 48 Z " /><path fill="rgb(0,0,0)" stroke="rgb(0,0,0)" stroke-width="1" opacity="0.3058823529411765" d="M 170.5 69 L 171 71.5 L 170 71.5 L 170.5 69 Z " /><path fill="rgb(0,0,0)" stroke="rgb(0,0,0)" stroke-width="1" opacity="0.3058823529411765" d="M 35.5 71 L 36 73.5 L 35 73.5 L 35.5 71 Z " /><path fill="rgb(0,0,0)" stroke="rgb(0,0,0)" stroke-width="1" opacity="0.3058823529411765" d="M 34.5 76 L 33.5 78 L 34.5 76 Z " /><path fill="rgb(0,0,0)" stroke="rgb(0,0,0)" stroke-width="1" opacity="0.3058823529411765" d="M 31.5 80 L 29.5 83 L 31.5 80 Z " /><path fill="rgb(0,0,0)" stroke="rgb(0,0,0)" stroke-width="1" opacity="0.3058823529411765" d="M 173.5 80 L 174.5 82 L 173.5 80 Z " /><path fill="rgb(0,0,0)" stroke="rgb(0,0,0)" stroke-width="1" opacity="0.3058823529411765" d="M 175.5 83 L 176.5 85 L 175.5 83 Z " /><path fill="rgb(0,0,0)" stroke="rgb(0,0,0)" stroke-width="1" opacity="0.3058823529411765" d="M 27.5 85 L 26.5 87 L 27.5 85 Z " /><path fill="rgb(0,0,0)" stroke="rgb(0,0,0)" stroke-width="1" opacity="0.3058823529411765" d="M 177.5 86 L 178.5 88 L 177.5 86 Z " /><path fill="rgb(0,0,0)" stroke="rgb(0,0,0)" stroke-width="1" opacity="0.3058823529411765" d="M 179.5 89 L 180 95.5 L 179 95.5 L 179.5 89 Z " /><path fill="rgb(0,0,0)" stroke="rgb(0,0,0)" stroke-width="1" opacity="0.3058823529411765" d="M 178.5 117 L 179 119.5 L 178 119.5 L 178.5 117 Z " /><path fill="rgb(0,0,0)" stroke="rgb(0,0,0)" stroke-width="1" opacity="0.3058823529411765" d="M 21.5 125 L 23 125.5 L 20.5 127 L 21.5 125 Z " /><path fill="rgb(0,0,0)" stroke="rgb(0,0,0)" stroke-width="1" opacity="0.3058823529411765" d="M 18.5 127 L 14.5 132 L 18.5 127 Z " /><path fill="rgb(0,0,0)" stroke="rgb(0,0,0)" stroke-width="1" opacity="0.3058823529411765" d="M 171.5 134 L 169.5 137 L 171.5 134 Z " /><path fill="rgb(0,0,0)" stroke="rgb(0,0,0)" stroke-width="1" opacity="0.3058823529411765" d="M 167.5 137 L 166.5 139 L 167.5 137 Z " /><path fill="rgb(0,0,0)" stroke="rgb(0,0,0)" stroke-width="1" opacity="0.3058823529411765" d="M 164.5 139 L 163.5 141 L 164.5 139 Z " /><path fill="rgb(0,0,0)" stroke="rgb(0,0,0)" stroke-width="1" opacity="0.3058823529411765" d="M 155.5 144 L 156.5 148 Q 152 146 155.5 144 Z " /><path fill="rgb(0,0,0)" stroke="rgb(0,0,0)" stroke-width="1" opacity="0.3058823529411765" d="M 159.5 152 L 160.5 154 L 159.5 152 Z " /><path fill="rgb(0,0,0)" stroke="rgb(0,0,0)" stroke-width="1" opacity="0.3058823529411765" d="M 22.5 176 L 28.5 183 L 22.5 176 Z " /><path fill="rgb(0,0,0)" stroke="rgb(0,0,0)" stroke-width="1" opacity="0.3058823529411765" d="M 172.5 189 L 173 191.5 L 172 191.5 L 172.5 189 Z " /><path fill="rgb(0,0,0)" stroke="rgb(0,0,0)" stroke-width="1" opacity="0.3058823529411765" d="M 173.5 196 L 174 199.5 L 173 199.5 L 173.5 196 Z " /><path fill="rgb(0,0,0)" stroke="rgb(0,0,0)" stroke-width="1" opacity="0.6549019607843137" d="M 55.5 28 L 51.5 33 L 55.5 28 Z " /><path fill="rgb(0,0,0)" stroke="rgb(0,0,0)" stroke-width="1" opacity="0.6549019607843137" d="M 64.5 28 L 65.5 30 L 64.5 28 Z " /><path fill="rgb(0,0,0)" stroke="rgb(0,0,0)" stroke-width="1" opacity="0.6549019607843137" d="M 67.5 30 L 68.5 32 L 67.5 30 Z " /><path fill="rgb(0,0,0)" stroke="rgb(0,0,0)" stroke-width="1" opacity="0.6549019607843137" d="M 70.5 32 L 72.5 35 L 70.5 32 Z " /><path fill="rgb(0,0,0)" stroke="rgb(0,0,0)" stroke-width="1" opacity="0.6549019607843137" d="M 50.5 34 L 49.5 36 L 50.5 34 Z " /><path fill="rgb(0,0,0)" stroke="rgb(0,0,0)" stroke-width="1" opacity="0.6549019607843137" d="M 74.5 35 L 76.5 38 L 74.5 35 Z " /><path fill="rgb(0,0,0)" stroke="rgb(0,0,0)" stroke-width="1" opacity="0.6549019607843137" d="M 131.5 37 L 130.5 39 L 131.5 37 Z " /><path fill="rgb(0,0,0)" stroke="rgb(0,0,0)" stroke-width="1" opacity="0.6549019607843137" d="M 47.5 39 L 46.5 41 L 47.5 39 Z " /><path fill="rgb(0,0,0)" stroke="rgb(0,0,0)" stroke-width="1" opacity="0.6549019607843137" d="M 159.5 39 L 163 45.5 L 162 45.5 L 159.5 39 Z " /><path fill="rgb(0,0,0)" stroke="rgb(0,0,0)" stroke-width="1" opacity="0.6549019607843137" d="M 126.5 40 L 125.5 42 L 126.5 40 Z " /><path fill="rgb(0,0,0)" stroke="rgb(0,0,0)" stroke-width="1" opacity="0.6549019607843137" d="M 123.5 42 L 122.5 44 L 123.5 42 Z " /><path fill="rgb(0,0,0)" stroke="rgb(0,0,0)" stroke-width="1" opacity="0.6549019607843137" d="M 120.5 44 L 119.5 46 L 120.5 44 Z " /><path fill="rgb(0,0,0)" stroke="rgb(0,0,0)" stroke-width="1" opacity="0.6549019607843137" d="M 86.5 47 L 87.5 48 L 102 48.5 L 87.5 49 L 86.5 47 Z " /><path fill="rgb(0,0,0)" stroke="rgb(0,0,0)" stroke-width="1" opacity="0.6549019607843137" d="M 116.5 47 L 115.5 49 L 116.5 47 Z " /><path fill="rgb(0,0,0)" stroke="rgb(0,0,0)" stroke-width="1" opacity="0.6549019607843137" d="M 169.5 66 L 170 68.5 L 169 68.5 L 169.5 66 Z " /><path fill="rgb(0,0,0)" stroke="rgb(0,0,0)" stroke-width="1" opacity="0.6549019607843137" d="M 36.5 68 L 37 70.5 L 36 70.5 L 36.5 68 Z " /><path fill="rgb(0,0,0)" stroke="rgb(0,0,0)" stroke-width="1" opacity="0.6549019607843137" d="M 170.5 72 L 171 76.5 L 170 76.5 L 170.5 72 Z " /><path fill="rgb(0,0,0)" stroke="rgb(0,0,0)" stroke-width="1" opacity="0.6549019607843137" d="M 34.5 77 L 32.5 80 L 34.5 77 Z " /><path fill="rgb(0,0,0)" stroke="rgb(0,0,0)" stroke-width="1" opacity="0.6549019607843137" d="M 171.5 78 L 172.5 80 L 171.5 78 Z " /><path fill="rgb(0,0,0)" stroke="rgb(0,0,0)" stroke-width="1" opacity="0.6549019607843137" d="M 173.5 81 L 174.5 83 L 173.5 81 Z " /><path fill="rgb(0,0,0)" stroke="rgb(0,0,0)" stroke-width="1" opacity="0.6549019607843137" d="M 29.5 83 L 28.5 85 L 29.5 83 Z " /><path fill="rgb(0,0,0)" stroke="rgb(0,0,0)" stroke-width="1" opacity="0.6549019607843137" d="M 175.5 84 L 176.5 86 L 175.5 84 Z " /><path fill="rgb(0,0,0)" stroke="rgb(0,0,0)" stroke-width="1" opacity="0.6549019607843137" d="M 24.5 92 L 25 97.5 L 24 97.5 L 24.5 92 Z " /><path fill="rgb(0,0,0)" stroke="rgb(0,0,0)" stroke-width="1" opacity="0.6549019607843137" d="M 179.5 96 L 180 100.5 L 179 100.5 L 179.5 96 Z " /><path fill="rgb(0,0,0)" stroke="rgb(0,0,0)" stroke-width="1" opacity="0.6549019607843137" d="M 179.5 104 L 180 110.5 L 179 110.5 L 179.5 104 Z " /><path fill="rgb(0,0,0)" stroke="rgb(0,0,0)" stroke-width="1" opacity="0.6549019607843137" d="M 24.5 109 L 25 112.5 L 24 112.5 L 24.5 109 Z " /><path fill="rgb(0,0,0)" stroke="rgb(0,0,0)" stroke-width="1" opacity="0.6549019607843137" d="M 19.5 127 L 14.5 133 L 19.5 127 Z " /><path fill="rgb(0,0,0)" stroke="rgb(0,0,0)" stroke-width="1" opacity="0.6549019607843137" d="M 174.5 131 L 172.5 134 L 174.5 131 Z " /><path fill="rgb(0,0,0)" stroke="rgb(0,0,0)" stroke-width="1" opacity="0.6549019607843137" d="M 11.5 139 L 12 142.5 L 11 142.5 L 11.5 139 Z " /><path fill="rgb(0,0,0)" stroke="rgb(0,0,0)" stroke-width="1" opacity="0.6549019607843137" d="M 155.5 147 L 157.5 150 L 155.5 147 Z " /><path fill="rgb(0,0,0)" stroke="rgb(0,0,0)" stroke-width="1" opacity="0.6549019607843137" d="M 159.5 153 L 160.5 155 L 159.5 153 Z " /><path fill="rgb(0,0,0)" stroke="rgb(0,0,0)" stroke-width="1" opacity="0.6549019607843137" d="M 19.5 171 L 20.5 173 L 19.5 171 Z " /><path fill="rgb(0,0,0)" stroke="rgb(0,0,0)" stroke-width="1" opacity="0.6549019607843137" d="M 21.5 174 L 23.5 177 L 21.5 174 Z " /><path fill="rgb(0,0,0)" stroke="rgb(0,0,0)" stroke-width="1" opacity="0.6549019607843137" d="M 28.5 181 L 29.5 183 L 28.5 181 Z " /><path fill="rgb(0,0,0)" stroke="rgb(0,0,0)" stroke-width="1" opacity="0.6549019607843137" d="M 39.5 185 L 47 185.5 L 39.5 186 L 39.5 185 Z " /><path fill="rgb(0,0,0)" stroke="rgb(0,0,0)" stroke-width="1" opacity="0.6549019607843137" d="M 46.5 188 L 47 199.5 L 46 199.5 L 46.5 188 Z " /><path fill="rgb(0,0,0)" stroke="rgb(0,0,0)" stroke-width="1" opacity="0.6549019607843137" d="M 172.5 192 L 173 194.5 L 172 194.5 L 172.5 192 Z " /><path fill="rgb(47,32,40)" stroke="rgb(47,32,40)" stroke-width="1" opacity="1" d="M 56.5 36 L 55.5 38 L 56.5 36 Z " /><path fill="rgb(47,32,40)" stroke="rgb(47,32,40)" stroke-width="1" opacity="1" d="M 64.5 36 L 65.5 38 L 64.5 36 Z " /><path fill="rgb(47,32,40)" stroke="rgb(47,32,40)" stroke-width="1" opacity="1" d="M 68.5 39 L 69.5 41 L 68.5 39 Z " /><path fill="rgb(47,32,40)" stroke="rgb(47,32,40)" stroke-width="1" opacity="1" d="M 72.5 42 L 74.5 45 L 72.5 42 Z " /><path fill="rgb(47,32,40)" stroke="rgb(47,32,40)" stroke-width="1" opacity="1" d="M 81.5 51 L 83.5 54 L 81.5 51 Z " /><path fill="rgb(47,32,40)" stroke="rgb(47,32,40)" stroke-width="1" opacity="1" d="M 121.5 51 L 120.5 53 L 121.5 51 Z " /><path fill="rgb(47,32,40)" stroke="rgb(47,32,40)" stroke-width="1" opacity="1" d="M 90.5 55 L 105 55.5 L 90.5 56 L 90.5 55 Z " /><path fill="rgb(47,32,40)" stroke="rgb(47,32,40)" stroke-width="1" opacity="1" d="M 40.5 80 L 37.5 84 L 40.5 80 Z " /><path fill="rgb(47,32,40)" stroke="rgb(47,32,40)" stroke-width="1" opacity="1" d="M 165.5 80 L 168 83.5 L 165 81.5 L 165.5 80 Z " /><path fill="rgb(47,32,40)" stroke="rgb(47,32,40)" stroke-width="1" opacity="1" d="M 62.5 85 L 61.5 87 L 62.5 85 Z " /><path fill="rgb(47,32,40)" stroke="rgb(47,32,40)" stroke-width="1" opacity="1" d="M 113.5 87 L 110.5 91 L 113.5 87 Z " /><path fill="rgb(47,32,40)" stroke="rgb(47,32,40)" stroke-width="1" opacity="1" d="M 72.5 88 L 73.5 90 L 72.5 88 Z " /><path fill="rgb(47,32,40)" stroke="rgb(47,32,40)" stroke-width="1" opacity="1" d="M 170.5 88 L 171.5 90 L 170.5 88 Z " /><path fill="rgb(47,32,40)" stroke="rgb(47,32,40)" stroke-width="1" opacity="1" d="M 131.5 89 L 132.5 91 L 131.5 89 Z " /><path fill="rgb(47,32,40)" stroke="rgb(47,32,40)" stroke-width="1" opacity="1" d="M 54.5 91 L 53.5 93 L 54.5 91 Z " /><path fill="rgb(47,32,40)" stroke="rgb(47,32,40)" stroke-width="1" opacity="1" d="M 117.5 91 L 114.5 95 L 117.5 91 Z " /><path fill="rgb(47,32,40)" stroke="rgb(47,32,40)" stroke-width="1" opacity="1" d="M 68.5 92 L 71.5 96 L 68.5 92 Z " /><path fill="rgb(47,32,40)" stroke="rgb(47,32,40)" stroke-width="1" opacity="1" d="M 135.5 92 L 137.5 95 L 135.5 92 Z " /><path fill="rgb(47,32,40)" stroke="rgb(47,32,40)" stroke-width="1" opacity="1" d="M 106.5 93 L 104.5 96 L 106.5 93 Z " /><path fill="rgb(47,32,40)" stroke="rgb(47,32,40)" stroke-width="1" opacity="1" d="M 77.5 94 L 79.5 97 L 77.5 94 Z " /><path fill="rgb(47,32,40)" stroke="rgb(47,32,40)" stroke-width="1" opacity="1" d="M 59.5 95 L 58.5 97 L 59.5 95 Z " /><path fill="rgb(47,32,40)" stroke="rgb(47,32,40)" stroke-width="1" opacity="1" d="M 102.5 96 L 101.5 98 L 100 97.5 L 102.5 96 Z " /><path fill="rgb(47,32,40)" stroke="rgb(47,32,40)" stroke-width="1" opacity="1" d="M 111.5 96 L 109.5 99 L 111.5 96 Z " /><path fill="rgb(47,32,40)" stroke="rgb(47,32,40)" stroke-width="1" opacity="1" d="M 131.5 96 L 133.5 99 L 131.5 96 Z " /><path fill="rgb(47,32,40)" stroke="rgb(47,32,40)" stroke-width="1" opacity="1" d="M 82.5 97 L 86 97.5 L 82.5 98 L 82.5 97 Z " /><path fill="rgb(47,32,40)" stroke="rgb(47,32,40)" stroke-width="1" opacity="1" d="M 141.5 97 L 142.5 99 L 141.5 97 Z " /><path fill="rgb(47,32,40)" stroke="rgb(47,32,40)" stroke-width="1" opacity="1" d="M 75.5 100 L 76.5 102 L 75.5 100 Z " /><path fill="rgb(47,32,40)" stroke="rgb(47,32,40)" stroke-width="1" opacity="1" d="M 106.5 100 L 105.5 102 L 106.5 100 Z " /><path fill="rgb(47,32,40)" stroke="rgb(47,32,40)" stroke-width="1" opacity="1" d="M 46.5 103 L 47 111.5 L 46 111.5 L 46.5 103 Z " /><path fill="rgb(47,32,40)" stroke="rgb(47,32,40)" stroke-width="1" opacity="1" d="M 86.5 103 L 102 103.5 L 86.5 104 L 86.5 103 Z " /><path fill="rgb(47,32,40)" stroke="rgb(47,32,40)" stroke-width="1" opacity="1" d="M 173.5 103 L 174 107.5 L 173 107.5 L 173.5 103 Z " /><path fill="rgb(47,32,40)" stroke="rgb(47,32,40)" stroke-width="1" opacity="1" d="M 138.5 104 L 139 107.5 L 138 107.5 L 138.5 104 Z " /><path fill="rgb(47,32,40)" stroke="rgb(47,32,40)" stroke-width="1" opacity="1" d="M 51.5 107 L 52 117.5 L 51 117.5 L 51.5 107 Z " /><path fill="rgb(47,32,40)" stroke="rgb(47,32,40)" stroke-width="1" opacity="1" d="M 63.5 109 L 62.5 111 L 63.5 109 Z " /><path fill="rgb(47,32,40)" stroke="rgb(47,32,40)" stroke-width="1" opacity="1" d="M 75.5 111 L 76 114.5 L 75 114.5 L 75.5 111 Z " /><path fill="rgb(47,32,40)" stroke="rgb(47,32,40)" stroke-width="1" opacity="1" d="M 144.5 111 L 145 120.5 L 144 120.5 L 144.5 111 Z " /><path fill="rgb(47,32,40)" stroke="rgb(47,32,40)" stroke-width="1" opacity="1" d="M 46.5 115 L 47 120.5 L 46 120.5 L 46.5 115 Z " /><path fill="rgb(47,32,40)" stroke="rgb(47,32,40)" stroke-width="1" opacity="1" d="M 136.5 120 L 135.5 122 L 136.5 120 Z " /><path fill="rgb(47,32,40)" stroke="rgb(47,32,40)" stroke-width="1" opacity="1" d="M 47.5 122 L 48.5 124 L 47.5 122 Z " /><path fill="rgb(47,32,40)" stroke="rgb(47,32,40)" stroke-width="1" opacity="1" d="M 33.5 123 L 35.5 126 L 33.5 123 Z " /><path fill="rgb(47,32,40)" stroke="rgb(47,32,40)" stroke-width="1" opacity="1" d="M 61.5 124 L 62.5 126 L 61.5 124 Z " /><path fill="rgb(47,32,40)" stroke="rgb(47,32,40)" stroke-width="1" opacity="1" d="M 141.5 124 L 140.5 126 L 141.5 124 Z " /><path fill="rgb(47,32,40)" stroke="rgb(47,32,40)" stroke-width="1" opacity="1" d="M 86.5 126 L 90 127.5 L 87.5 128 L 86.5 126 Z " /><path fill="rgb(47,32,40)" stroke="rgb(47,32,40)" stroke-width="1" opacity="1" d="M 38.5 127 L 39.5 129 L 38.5 127 Z " /><path fill="rgb(47,32,40)" stroke="rgb(47,32,40)" stroke-width="1" opacity="1" d="M 101.5 127 L 100.5 129 L 99 128.5 L 101.5 127 Z " /><path fill="rgb(47,32,40)" stroke="rgb(47,32,40)" stroke-width="1" opacity="1" d="M 122.5 128 L 123 131.5 L 122 131.5 L 122.5 128 Z " /><path fill="rgb(47,32,40)" stroke="rgb(47,32,40)" stroke-width="1" opacity="1" d="M 163.5 131 L 162.5 133 L 163.5 131 Z " /><path fill="rgb(47,32,40)" stroke="rgb(47,32,40)" stroke-width="1" opacity="1" d="M 21.5 133 L 19.5 136 L 21.5 133 Z " /><path fill="rgb(47,32,40)" stroke="rgb(47,32,40)" stroke-width="1" opacity="1" d="M 58.5 133 L 60.5 136 L 58.5 133 Z " /><path fill="rgb(47,32,40)" stroke="rgb(47,32,40)" stroke-width="1" opacity="1" d="M 62.5 136 L 63.5 138 L 62.5 136 Z " /><path fill="rgb(47,32,40)" stroke="rgb(47,32,40)" stroke-width="1" opacity="1" d="M 82.5 136 L 85 136.5 L 82.5 137 L 82.5 136 Z " /><path fill="rgb(47,32,40)" stroke="rgb(47,32,40)" stroke-width="1" opacity="1" d="M 128.5 136 L 127.5 138 L 124.5 140 L 126.5 137 L 128.5 136 Z " /><path fill="rgb(47,32,40)" stroke="rgb(47,32,40)" stroke-width="1" opacity="1" d="M 38.5 139 L 39.5 141 L 38.5 139 Z " /><path fill="rgb(47,32,40)" stroke="rgb(47,32,40)" stroke-width="1" opacity="1" d="M 78.5 141 L 81 141.5 L 78.5 142 L 78.5 141 Z " /><path fill="rgb(47,32,40)" stroke="rgb(47,32,40)" stroke-width="1" opacity="1" d="M 86.5 142 L 91 142.5 L 86.5 143 L 86.5 142 Z " /><path fill="rgb(47,32,40)" stroke="rgb(47,32,40)" stroke-width="1" opacity="1" d="M 105.5 142 L 110 142.5 L 105.5 143 L 105.5 142 Z " /><path fill="rgb(47,32,40)" stroke="rgb(47,32,40)" stroke-width="1" opacity="1" d="M 42.5 144 L 43.5 146 L 42.5 144 Z " /><path fill="rgb(47,32,40)" stroke="rgb(47,32,40)" stroke-width="1" opacity="1" d="M 84.5 147 L 87 147.5 L 84.5 148 L 84.5 147 Z " /><path fill="rgb(47,32,40)" stroke="rgb(47,32,40)" stroke-width="1" opacity="1" d="M 145.5 147 L 148 147.5 L 145 148 L 150 156.5 Q 148.2 164.3 152.5 166 Q 154.8 165.3 154 167.5 L 156 174.5 Q 154.6 177.3 150 176 Q 149.7 168 144 164.5 L 144 156 L 137.5 155 L 119.5 163 L 127.5 154 L 131.5 151 Q 140.1 150.6 145.5 147 Z " /><path fill="rgb(47,32,40)" stroke="rgb(47,32,40)" stroke-width="1" opacity="1" d="M 18.5 148 L 19 150.5 L 18 150.5 L 18.5 148 Z " /><path fill="rgb(47,32,40)" stroke="rgb(47,32,40)" stroke-width="1" opacity="1" d="M 49.5 151 L 52 151.5 L 49.5 152 L 49.5 151 Z " /><path fill="rgb(47,32,40)" stroke="rgb(47,32,40)" stroke-width="1" opacity="1" d="M 74.5 152 L 78 152.5 L 74.5 153 L 74.5 152 Z " /><path fill="rgb(47,32,40)" stroke="rgb(47,32,40)" stroke-width="1" opacity="1" d="M 86.5 153 L 90 153.5 L 86.5 154 L 86.5 153 Z " /><path fill="rgb(47,32,40)" stroke="rgb(47,32,40)" stroke-width="1" opacity="1" d="M 110.5 153 L 113 153.5 L 110.5 154 L 110.5 153 Z " /><path fill="rgb(47,32,40)" stroke="rgb(47,32,40)" stroke-width="1" opacity="1" d="M 57.5 157 L 58.5 159 L 57.5 157 Z " /><path fill="rgb(47,32,40)" stroke="rgb(47,32,40)" stroke-width="1" opacity="1" d="M 102 167 Q 104.7 165.9 104 168.5 L 115 181.5 L 115 184.5 L 102.5 198 Q 99.9 201.4 92.5 200 L 98.5 193 L 109 183.5 L 100 172.5 L 100 170.5 L 102 167 Z " /><path fill="rgb(47,32,40)" stroke="rgb(47,32,40)" stroke-width="1" opacity="1" d="M 48.5 170 L 49 173.5 L 48 173.5 L 48.5 170 Z " /><path fill="rgb(47,32,40)" stroke="rgb(47,32,40)" stroke-width="1" opacity="1" d="M 27.5 171 L 28.5 173 L 27.5 171 Z " /><path fill="rgb(47,32,40)" stroke="rgb(47,32,40)" stroke-width="1" opacity="1" d="M 132.5 171 Q 137.5 170.5 138 174.5 L 137.5 176 L 134.5 172 L 131 173.5 L 130.5 175 L 130 172 L 132.5 171 Z " /><path fill="rgb(47,32,40)" stroke="rgb(47,32,40)" stroke-width="1" opacity="1" d="M 47.5 176 L 48 177.5 Q 46.3 180.8 39.5 179 L 39.5 178 Q 47.6 179.8 47.5 176 Z " /><path fill="rgb(47,32,40)" stroke="rgb(47,32,40)" stroke-width="1" opacity="1" d="M 132.5 182 L 138 200 Q 127.3 202 124 195.5 L 132.5 182 Z " /><path fill="rgb(47,32,40)" stroke="rgb(47,32,40)" stroke-width="1" opacity="1" d="M 62 183 L 68.5 183 L 70 184.5 L 84 199.5 L 76.5 200 Q 67.4 192.7 62 183 Z " /><path fill="rgb(47,32,40)" stroke="rgb(47,32,40)" stroke-width="1" opacity="1" d="M 165.5 193 L 166 195.5 L 165 195.5 L 165.5 193 Z " /><path fill="rgb(152,65,92)" stroke="rgb(152,65,92)" stroke-width="1" opacity="1" d="M 147.5 42 L 146.5 44 L 141.5 47 L 142.5 45 L 147.5 42 Z " /><path fill="rgb(152,65,92)" stroke="rgb(152,65,92)" stroke-width="1" opacity="1" d="M 150.5 43 L 153.5 47 L 150.5 43 Z " /><path fill="rgb(152,65,92)" stroke="rgb(152,65,92)" stroke-width="1" opacity="1" d="M 51.5 46 L 50.5 48 L 51.5 46 Z " /><path fill="rgb(152,65,92)" stroke="rgb(152,65,92)" stroke-width="1" opacity="1" d="M 137.5 48 L 136.5 50 L 137.5 48 Z " /><path fill="rgb(152,65,92)" stroke="rgb(152,65,92)" stroke-width="1" opacity="1" d="M 154.5 48 L 157 48.5 Q 154.9 51.8 154.5 48 Z " /><path fill="rgb(152,65,92)" stroke="rgb(152,65,92)" stroke-width="1" opacity="1" d="M 134.5 50 L 132.5 53 L 134.5 50 Z " /><path fill="rgb(152,65,92)" stroke="rgb(152,65,92)" stroke-width="1" opacity="1" d="M 122.5 51 L 121.5 53 L 122.5 51 Z " /><path fill="rgb(152,65,92)" stroke="rgb(152,65,92)" stroke-width="1" opacity="1" d="M 69.5 59 L 72 59.5 L 69.5 60 L 69.5 59 Z " /><path fill="rgb(152,65,92)" stroke="rgb(152,65,92)" stroke-width="1" opacity="1" d="M 113.5 60 L 117 60.5 L 112.5 62 L 113.5 60 Z " /><path fill="rgb(152,65,92)" stroke="rgb(152,65,92)" stroke-width="1" opacity="1" d="M 122.5 61 L 130 61.5 L 122.5 62 L 122.5 61 Z " /><path fill="rgb(152,65,92)" stroke="rgb(152,65,92)" stroke-width="1" opacity="1" d="M 110.5 62 L 109.5 64 L 110.5 62 Z " /><path fill="rgb(152,65,92)" stroke="rgb(152,65,92)" stroke-width="1" opacity="1" d="M 94 63 L 96 63.5 L 91 67.5 L 94 63 Z " /><path fill="rgb(152,65,92)" stroke="rgb(152,65,92)" stroke-width="1" opacity="1" d="M 106.5 65 L 105.5 67 L 106.5 65 Z " /><path fill="rgb(152,65,92)" stroke="rgb(152,65,92)" stroke-width="1" opacity="1" d="M 76.5 67 L 79 68.5 L 77.5 68 L 76.5 67 Z " /><path fill="rgb(152,65,92)" stroke="rgb(152,65,92)" stroke-width="1" opacity="1" d="M 102.5 68 L 101.5 70 L 102.5 68 Z " /><path fill="rgb(152,65,92)" stroke="rgb(152,65,92)" stroke-width="1" opacity="1" d="M 65.5 70 L 68 70.5 L 65.5 71 L 65.5 70 Z " /><path fill="rgb(152,65,92)" stroke="rgb(152,65,92)" stroke-width="1" opacity="1" d="M 62.5 71 L 64 71.5 L 57.5 76 L 60.5 72 L 62.5 71 Z " /><path fill="rgb(152,65,92)" stroke="rgb(152,65,92)" stroke-width="1" opacity="1" d="M 80.5 71 L 81.5 73 L 80.5 71 Z " /><path fill="rgb(152,65,92)" stroke="rgb(152,65,92)" stroke-width="1" opacity="1" d="M 98.5 71 L 100 71.5 L 97.5 73 L 98.5 71 Z " /><path fill="rgb(152,65,92)" stroke="rgb(152,65,92)" stroke-width="1" opacity="1" d="M 94.5 74 L 92.5 77 L 94.5 74 Z " /><path fill="rgb(152,65,92)" stroke="rgb(152,65,92)" stroke-width="1" opacity="1" d="M 56.5 77 L 53.5 81 L 50 80.5 Q 55.1 80.6 56.5 77 Z " /><path fill="rgb(152,65,92)" stroke="rgb(152,65,92)" stroke-width="1" opacity="1" d="M 115.5 77 L 114.5 79 L 115.5 77 Z " /><path fill="rgb(152,65,92)" stroke="rgb(152,65,92)" stroke-width="1" opacity="1" d="M 127.5 79 L 133 82.5 L 131.5 82 Q 127.5 81.5 127.5 79 Z " /><path fill="rgb(152,65,92)" stroke="rgb(152,65,92)" stroke-width="1" opacity="1" d="M 76.5 80 L 78.5 83 L 76.5 80 Z " /><path fill="rgb(152,65,92)" stroke="rgb(152,65,92)" stroke-width="1" opacity="1" d="M 55.5 81 L 54.5 83 L 55.5 81 Z " /><path fill="rgb(152,65,92)" stroke="rgb(152,65,92)" stroke-width="1" opacity="1" d="M 110.5 81 L 108.5 84 L 103.5 88 L 107.5 83 L 110.5 81 Z " /><path fill="rgb(152,65,92)" stroke="rgb(152,65,92)" stroke-width="1" opacity="1" d="M 39.5 82 L 37.5 85 L 39.5 82 Z " /><path fill="rgb(152,65,92)" stroke="rgb(152,65,92)" stroke-width="1" opacity="1" d="M 46.5 82 L 44.5 85 L 41.5 87 L 43.5 84 L 46.5 82 Z " /><path fill="rgb(152,65,92)" stroke="rgb(152,65,92)" stroke-width="1" opacity="1" d="M 51.5 84 L 50.5 86 L 51.5 84 Z " /><path fill="rgb(152,65,92)" stroke="rgb(152,65,92)" stroke-width="1" opacity="1" d="M 136.5 84 L 137.5 86 L 136.5 84 Z " /><path fill="rgb(152,65,92)" stroke="rgb(152,65,92)" stroke-width="1" opacity="1" d="M 80.5 85 L 81.5 87 L 80.5 85 Z " /><path fill="rgb(152,65,92)" stroke="rgb(152,65,92)" stroke-width="1" opacity="1" d="M 141.5 87 L 143.5 90 L 141.5 87 Z " /><path fill="rgb(152,65,92)" stroke="rgb(152,65,92)" stroke-width="1" opacity="1" d="M 38.5 88 L 36 91.5 L 35.5 99 L 35 91.5 L 38.5 88 Z " /><path fill="rgb(152,65,92)" stroke="rgb(152,65,92)" stroke-width="1" opacity="1" d="M 83.5 88 L 86 89.5 L 84.5 90 L 83.5 88 Z " /><path fill="rgb(152,65,92)" stroke="rgb(152,65,92)" stroke-width="1" opacity="1" d="M 45.5 89 L 40.5 95 L 45.5 89 Z " /><path fill="rgb(152,65,92)" stroke="rgb(152,65,92)" stroke-width="1" opacity="1" d="M 91.5 89 L 100 89.5 L 91.5 90 L 91.5 89 Z " /><path fill="rgb(152,65,92)" stroke="rgb(152,65,92)" stroke-width="1" opacity="1" d="M 146.5 91 L 149.5 95 L 146.5 91 Z " /><path fill="rgb(152,65,92)" stroke="rgb(152,65,92)" stroke-width="1" opacity="1" d="M 163.5 91 L 158.5 97 L 160 94.5 Q 158.8 90.8 162.5 92 L 163.5 91 Z " /><path fill="rgb(152,65,92)" stroke="rgb(152,65,92)" stroke-width="1" opacity="1" d="M 77.5 93 L 78.5 95 L 77.5 93 Z " /><path fill="rgb(152,65,92)" stroke="rgb(152,65,92)" stroke-width="1" opacity="1" d="M 168.5 97 L 168 98.5 Q 168.8 100.8 166.5 100 L 164 101.5 L 168.5 97 Z " /><path fill="rgb(152,65,92)" stroke="rgb(152,65,92)" stroke-width="1" opacity="1" d="M 170.5 97 Q 173 98 172 102.5 L 168 119 L 164 117.5 L 165.5 118 Q 168.1 118.8 167 115.5 L 171 102.5 L 171 98.5 L 170.5 97 Z " /><path fill="rgb(152,65,92)" stroke="rgb(152,65,92)" stroke-width="1" opacity="1" d="M 55.5 99 L 54.5 101 L 55.5 99 Z " /><path fill="rgb(152,65,92)" stroke="rgb(152,65,92)" stroke-width="1" opacity="1" d="M 156.5 99 L 157 107.5 L 156 107.5 L 156.5 99 Z " /><path fill="rgb(152,65,92)" stroke="rgb(152,65,92)" stroke-width="1" opacity="1" d="M 152.5 101 L 153 103.5 L 152 103.5 L 152.5 101 Z " /><path fill="rgb(152,65,92)" stroke="rgb(152,65,92)" stroke-width="1" opacity="1" d="M 164.5 109 L 165 113.5 L 164 113.5 L 164.5 109 Z " /><path fill="rgb(152,65,92)" stroke="rgb(152,65,92)" stroke-width="1" opacity="1" d="M 39.5 115 L 40 117.5 L 39 117.5 L 39.5 115 Z " /><path fill="rgb(152,65,92)" stroke="rgb(152,65,92)" stroke-width="1" opacity="1" d="M 35.5 116 L 36 123.5 L 35 123.5 L 35.5 116 Z " /><path fill="rgb(152,65,92)" stroke="rgb(152,65,92)" stroke-width="1" opacity="1" d="M 157.5 116 L 158 122.5 L 160 124.5 L 158.5 124 Q 154.3 125.3 156 120.5 L 157.5 116 Z " /><path fill="rgb(152,65,92)" stroke="rgb(152,65,92)" stroke-width="1" opacity="1" d="M 152.5 121 L 153 124.5 L 152 124.5 L 152.5 121 Z " /><path fill="rgb(152,65,92)" stroke="rgb(152,65,92)" stroke-width="1" opacity="1" d="M 41.5 124 L 42.5 126 L 41.5 124 Z " /><path fill="rgb(152,65,92)" stroke="rgb(152,65,92)" stroke-width="1" opacity="1" d="M 156.5 125 L 158 125.5 L 156 126 L 155.5 130 L 155 126.5 L 156.5 125 Z " /><path fill="rgb(152,65,92)" stroke="rgb(152,65,92)" stroke-width="1" opacity="1" d="M 161.5 125 Q 164.5 126.5 161.5 128 L 161.5 125 Z " /><path fill="rgb(152,65,92)" stroke="rgb(152,65,92)" stroke-width="1" opacity="1" d="M 42.5 131 L 51 135.5 L 48.5 137 L 48.5 135 L 46.5 136 L 46.5 134 L 42 133 L 42.5 131 Z " /><path fill="rgb(152,65,92)" stroke="rgb(152,65,92)" stroke-width="1" opacity="1" d="M 152.5 131 L 154 131.5 L 150.5 133 L 150.5 132 L 152.5 131 Z " /><path fill="rgb(152,65,92)" stroke="rgb(152,65,92)" stroke-width="1" opacity="1" d="M 140.5 133 L 139.5 135 L 140.5 133 Z " /><path fill="rgb(152,65,92)" stroke="rgb(152,65,92)" stroke-width="1" opacity="1" d="M 147.5 133 L 149 133.5 L 144.5 136 L 145.5 134 L 147.5 133 Z " /><path fill="rgb(152,65,92)" stroke="rgb(152,65,92)" stroke-width="1" opacity="1" d="M 18.5 142 L 19 144.5 L 18 144.5 L 18.5 142 Z " /><path fill="rgb(152,65,92)" stroke="rgb(152,65,92)" stroke-width="1" opacity="1" d="M 93.5 143 L 103 143.5 L 93.5 144 L 93.5 143 Z " /><path fill="rgb(152,65,92)" stroke="rgb(152,65,92)" stroke-width="1" opacity="1" d="M 36.5 144 L 37.5 146 L 36.5 145 L 32.5 149 L 28 150 Q 29 153 26 152 Q 24.9 149.3 27.5 150 Q 33.6 148.6 36.5 144 Z " /><path fill="rgb(152,65,92)" stroke="rgb(152,65,92)" stroke-width="1" opacity="1" d="M 19.5 147 L 22 148.5 L 20.5 152 L 19.5 147 Z " /><path fill="rgb(152,65,92)" stroke="rgb(152,65,92)" stroke-width="1" opacity="1" d="M 93.5 147 L 96 147.5 L 93.5 148 L 93.5 147 Z " /><path fill="rgb(152,65,92)" stroke="rgb(152,65,92)" stroke-width="1" opacity="1" d="M 67.5 152 L 68 155.5 L 67 155.5 L 67.5 152 Z " /><path fill="rgb(152,65,92)" stroke="rgb(152,65,92)" stroke-width="1" opacity="1" d="M 116.5 153 L 114.5 156 L 116.5 153 Z " /><path fill="rgb(152,65,92)" stroke="rgb(152,65,92)" stroke-width="1" opacity="1" d="M 33.5 154 L 35 154.5 L 27.5 158 L 27.5 157 L 33.5 154 Z " /><path fill="rgb(152,65,92)" stroke="rgb(152,65,92)" stroke-width="1" opacity="1" d="M 21 156 L 24 157.5 L 21 158 L 21 156 Z " /><path fill="rgb(152,65,92)" stroke="rgb(152,65,92)" stroke-width="1" opacity="1" d="M 68.5 157 L 69 159.5 L 68 159.5 L 68.5 157 Z " /><path fill="rgb(152,65,92)" stroke="rgb(152,65,92)" stroke-width="1" opacity="1" d="M 98.5 157 L 97.5 159 L 98.5 157 Z " /><path fill="rgb(152,65,92)" stroke="rgb(152,65,92)" stroke-width="1" opacity="1" d="M 88.5 158 L 93 158.5 L 88.5 159 L 88.5 158 Z " /><path fill="rgb(152,65,92)" stroke="rgb(152,65,92)" stroke-width="1" opacity="1" d="M 109.5 161 Q 109.6 167.9 115 169.5 L 109 164.5 L 109.5 161 Z " /><path fill="rgb(152,65,92)" stroke="rgb(152,65,92)" stroke-width="1" opacity="1" d="M 71.5 166 L 64.5 174 L 71.5 166 Z " /><path fill="rgb(152,65,92)" stroke="rgb(152,65,92)" stroke-width="1" opacity="1" d="M 116.5 172 L 119.5 176 L 116.5 172 Z " /><path fill="rgb(152,65,92)" stroke="rgb(152,65,92)" stroke-width="1" opacity="1" d="M 121.5 178 L 123.5 181 L 121.5 178 Z " /><path fill="rgb(152,65,92)" stroke="rgb(152,65,92)" stroke-width="1" opacity="1" d="M 123.5 182 L 118.5 188 L 123.5 182 Z " /><path fill="rgb(152,65,92)" stroke="rgb(152,65,92)" stroke-width="1" opacity="1" d="M 65.5 189 L 66.5 191 L 65.5 189 Z " /><path fill="rgb(152,65,92)" stroke="rgb(152,65,92)" stroke-width="1" opacity="1" d="M 153.5 189 L 156 189.5 L 153.5 190 L 153.5 189 Z " /><path fill="rgb(152,65,92)" stroke="rgb(152,65,92)" stroke-width="1" opacity="1" d="M 146.5 191 Q 149.5 190.5 148 197.5 L 149 199.5 L 148 199.5 L 146.5 191 Z " /><path fill="rgb(152,65,92)" stroke="rgb(152,65,92)" stroke-width="1" opacity="1" d="M 161.5 195 L 162 199.5 L 161 199.5 L 161.5 195 Z " /><path fill="rgb(152,65,92)" stroke="rgb(152,65,92)" stroke-width="1" opacity="1" d="M 65.5 197 L 63.5 200 L 65.5 197 Z " /><path fill="rgb(228,192,154)" stroke="rgb(228,192,154)" stroke-width="1" opacity="1" d="M 52.5 50 L 54 52.5 L 52 51.5 L 52.5 50 Z " /><path fill="rgb(228,192,154)" stroke="rgb(228,192,154)" stroke-width="1" opacity="1" d="M 156.5 51 L 158 51.5 L 154.5 54 L 156.5 51 Z " /><path fill="rgb(228,192,154)" stroke="rgb(228,192,154)" stroke-width="1" opacity="1" d="M 160.5 59 L 162 63.5 L 160 62.5 L 159 60.5 L 160.5 59 Z " /><path fill="rgb(228,192,154)" stroke="rgb(228,192,154)" stroke-width="1" opacity="1" d="M 44.5 65 L 45 67.5 L 44 67.5 L 44.5 65 Z " /><path fill="rgb(228,192,154)" stroke="rgb(228,192,154)" stroke-width="1" opacity="1" d="M 43.5 71 L 44.5 74 L 50.5 71 L 51 74.5 L 43.5 79 L 43.5 71 Z " /><path fill="rgb(228,192,154)" stroke="rgb(228,192,154)" stroke-width="1" opacity="1" d="M 162.5 76 Q 165.1 75.2 164 78.5 L 165 81 L 158 78.5 L 162.5 76 Z " /><path fill="rgb(228,192,154)" stroke="rgb(228,192,154)" stroke-width="1" opacity="1" d="M 58.5 80 L 57.5 82 L 58.5 80 Z " /><path fill="rgb(228,192,154)" stroke="rgb(228,192,154)" stroke-width="1" opacity="1" d="M 75.5 80 L 76.5 82 L 75.5 80 Z " /><path fill="rgb(228,192,154)" stroke="rgb(228,192,154)" stroke-width="1" opacity="1" d="M 55.5 82 L 54.5 84 L 55.5 82 Z " /><path fill="rgb(228,192,154)" stroke="rgb(228,192,154)" stroke-width="1" opacity="1" d="M 64.5 83 L 67 83.5 L 64.5 84 L 64.5 83 Z " /><path fill="rgb(228,192,154)" stroke="rgb(228,192,154)" stroke-width="1" opacity="1" d="M 109.5 83 L 112 87.5 Q 108.3 93.2 102 95 Q 100.5 89.6 103.5 88 L 109.5 83 Z " /><path fill="rgb(228,192,154)" stroke="rgb(228,192,154)" stroke-width="1" opacity="1" d="M 52.5 84 L 50.5 87 L 52.5 84 Z " /><path fill="rgb(228,192,154)" stroke="rgb(228,192,154)" stroke-width="1" opacity="1" d="M 69.5 84 L 73 86.5 L 70.5 85 L 69.5 84 Z " /><path fill="rgb(228,192,154)" stroke="rgb(228,192,154)" stroke-width="1" opacity="1" d="M 79.5 85 L 80.5 87 L 79.5 85 Z " /><path fill="rgb(228,192,154)" stroke="rgb(228,192,154)" stroke-width="1" opacity="1" d="M 59.5 86 L 58.5 88 L 59.5 86 Z " /><path fill="rgb(228,192,154)" stroke="rgb(228,192,154)" stroke-width="1" opacity="1" d="M 34.5 89 L 35 91.5 L 34 91.5 L 34.5 89 Z " /><path fill="rgb(228,192,154)" stroke="rgb(228,192,154)" stroke-width="1" opacity="1" d="M 46.5 89 L 41.5 95 L 46.5 89 Z " /><path fill="rgb(228,192,154)" stroke="rgb(228,192,154)" stroke-width="1" opacity="1" d="M 55.5 89 L 54.5 91 L 55.5 89 Z " /><path fill="rgb(228,192,154)" stroke="rgb(228,192,154)" stroke-width="1" opacity="1" d="M 74.5 89 L 78.5 94 L 74.5 89 Z " /><path fill="rgb(228,192,154)" stroke="rgb(228,192,154)" stroke-width="1" opacity="1" d="M 119.5 91 Q 130.4 94.6 137 102.5 L 135.5 102 L 126.5 96 L 122.5 95 L 106.5 107 L 81.5 107 Q 72.9 103.6 67.5 97 L 57 103.5 L 53.5 110 L 53 103.5 L 58.5 97 L 66.5 92 L 76.5 103 Q 80.3 105.7 88.5 104 L 89.5 105 L 100.5 105 L 105.5 103 L 119.5 91 Z " /><path fill="rgb(228,192,154)" stroke="rgb(228,192,154)" stroke-width="1" opacity="1" d="M 51.5 92 L 47.5 97 L 51.5 92 Z " /><path fill="rgb(228,192,154)" stroke="rgb(228,192,154)" stroke-width="1" opacity="1" d="M 46.5 98 L 47 99.5 L 45 100.5 L 46.5 98 Z " /><path fill="rgb(228,192,154)" stroke="rgb(228,192,154)" stroke-width="1" opacity="1" d="M 137.5 105 L 138 107.5 L 137 107.5 L 137.5 105 Z " /><path fill="rgb(228,192,154)" stroke="rgb(228,192,154)" stroke-width="1" opacity="1" d="M 163.5 106 L 164 114.5 L 163 114.5 L 163.5 106 Z " /><path fill="rgb(228,192,154)" stroke="rgb(228,192,154)" stroke-width="1" opacity="1" d="M 123.5 108 L 124.5 110 L 123.5 108 Z " /><path fill="rgb(228,192,154)" stroke="rgb(228,192,154)" stroke-width="1" opacity="1" d="M 157.5 108 L 158 111.5 L 157 111.5 L 157.5 108 Z " /><path fill="rgb(228,192,154)" stroke="rgb(228,192,154)" stroke-width="1" opacity="1" d="M 112.5 109 L 111.5 111 L 112.5 109 Z " /><path fill="rgb(228,192,154)" stroke="rgb(228,192,154)" stroke-width="1" opacity="1" d="M 126.5 111 L 127 114.5 L 126 114.5 L 126.5 111 Z " /><path fill="rgb(228,192,154)" stroke="rgb(228,192,154)" stroke-width="1" opacity="1" d="M 62.5 115 L 63.5 117 L 62.5 115 Z " /><path fill="rgb(228,192,154)" stroke="rgb(228,192,154)" stroke-width="1" opacity="1" d="M 90.5 115 L 97 116 L 95 119.5 L 95.5 121 L 91.5 120 L 90 120.5 L 90.5 119 L 88 117.5 Q 87.3 115.3 89.5 116 L 90.5 115 Z " /><path fill="rgb(228,192,154)" stroke="rgb(228,192,154)" stroke-width="1" opacity="1" d="M 111.5 116 L 112.5 118 L 111.5 116 Z " /><path fill="rgb(228,192,154)" stroke="rgb(228,192,154)" stroke-width="1" opacity="1" d="M 136.5 119 L 135.5 121 L 136.5 119 Z " /><path fill="rgb(228,192,154)" stroke="rgb(228,192,154)" stroke-width="1" opacity="1" d="M 144.5 123 L 143.5 125 L 144.5 123 Z " /><path fill="rgb(228,192,154)" stroke="rgb(228,192,154)" stroke-width="1" opacity="1" d="M 48.5 124 L 49.5 126 L 48.5 124 Z " /><path fill="rgb(228,192,154)" stroke="rgb(228,192,154)" stroke-width="1" opacity="1" d="M 151.5 124 L 152 125.5 L 150 126.5 L 151.5 124 Z " /><path fill="rgb(228,192,154)" stroke="rgb(228,192,154)" stroke-width="1" opacity="1" d="M 44.5 125 L 45.5 127 L 44.5 125 Z " /><path fill="rgb(228,192,154)" stroke="rgb(228,192,154)" stroke-width="1" opacity="1" d="M 64.5 125 L 65.5 127 L 64.5 125 Z " /><path fill="rgb(228,192,154)" stroke="rgb(228,192,154)" stroke-width="1" opacity="1" d="M 141.5 125 L 140.5 127 L 141.5 125 Z " /><path fill="rgb(228,192,154)" stroke="rgb(228,192,154)" stroke-width="1" opacity="1" d="M 147.5 128 L 146.5 130 L 147.5 128 Z " /><path fill="rgb(228,192,154)" stroke="rgb(228,192,154)" stroke-width="1" opacity="1" d="M 52.5 130 L 56 131.5 L 53.5 132 L 52.5 130 Z " /><path fill="rgb(228,192,154)" stroke="rgb(228,192,154)" stroke-width="1" opacity="1" d="M 144.5 130 L 143.5 132 L 144.5 130 Z " /><path fill="rgb(228,192,154)" stroke="rgb(228,192,154)" stroke-width="1" opacity="1" d="M 130 133 L 139 134.5 L 139 136.5 L 140 140.5 L 132.5 143 Q 128.9 139.8 130 133 Z " /><path fill="rgb(228,192,154)" stroke="rgb(228,192,154)" stroke-width="1" opacity="1" d="M 82.5 135 L 85 135.5 L 82.5 136 L 82.5 135 Z " /><path fill="rgb(228,192,154)" stroke="rgb(228,192,154)" stroke-width="1" opacity="1" d="M 63.5 140 L 65 142.5 L 63 141.5 L 63.5 140 Z " /><path fill="rgb(228,192,154)" stroke="rgb(228,192,154)" stroke-width="1" opacity="1" d="M 122.5 141 Q 127.1 139.8 125 145 L 114.5 147 L 115 145.5 L 117.5 142 L 122.5 141 Z " /><path fill="rgb(228,192,154)" stroke="rgb(228,192,154)" stroke-width="1" opacity="1" d="M 78.5 142 Q 80.8 141.3 80 143.5 L 78.5 142 Z " /><path fill="rgb(228,192,154)" stroke="rgb(228,192,154)" stroke-width="1" opacity="1" d="M 41.5 144 L 42.5 146 L 41 145.5 L 40.5 147 L 40 145.5 L 41.5 144 Z " /><path fill="rgb(228,192,154)" stroke="rgb(228,192,154)" stroke-width="1" opacity="1" d="M 76.5 145 L 79 145.5 L 76.5 146 L 76.5 145 Z " /><path fill="rgb(228,192,154)" stroke="rgb(228,192,154)" stroke-width="1" opacity="1" d="M 92.5 155 L 100 155.5 L 96.5 158 L 92.5 156 L 92.5 155 Z " /><path fill="rgb(228,192,154)" stroke="rgb(228,192,154)" stroke-width="1" opacity="1" d="M 22 158 Q 26.7 157 28 160.5 L 31 167.5 L 28.5 169 L 25 166.5 L 22 158 Z " /><path fill="rgb(228,192,154)" stroke="rgb(228,192,154)" stroke-width="1" opacity="1" d="M 45.5 158 L 44.5 160 L 45.5 158 Z " /><path fill="rgb(228,192,154)" stroke="rgb(228,192,154)" stroke-width="1" opacity="1" d="M 111.5 165 L 115.5 170 L 111.5 165 Z " /><path fill="rgb(228,192,154)" stroke="rgb(228,192,154)" stroke-width="1" opacity="1" d="M 59.5 170 L 57.5 173 L 59.5 170 Z " /><path fill="rgb(228,192,154)" stroke="rgb(228,192,154)" stroke-width="1" opacity="1" d="M 56.5 174 L 55.5 176 L 56.5 174 Z " /><path fill="rgb(228,192,154)" stroke="rgb(228,192,154)" stroke-width="1" opacity="1" d="M 119.5 174 L 120.5 176 L 119.5 174 Z " /><path fill="rgb(228,192,154)" stroke="rgb(228,192,154)" stroke-width="1" opacity="1" d="M 158.5 175 L 161 175.5 L 158.5 176 L 158.5 175 Z " /><path fill="rgb(228,192,154)" stroke="rgb(228,192,154)" stroke-width="1" opacity="1" d="M 142.5 179 L 146 191 L 142 189.5 L 140 180 L 142.5 179 Z " /><path fill="rgb(228,192,154)" stroke="rgb(228,192,154)" stroke-width="1" opacity="1" d="M 162.5 180 L 163 182.5 L 162 182.5 L 162.5 180 Z " /><path fill="rgb(154,58,91)" stroke="rgb(154,58,91)" stroke-width="1" opacity="1" d="M 60.5 34 L 80 50.5 L 70 54 L 70 59 L 68.5 59 L 69 57.5 L 64 40.5 L 60.5 34 Z " /><path fill="rgb(154,58,91)" stroke="rgb(154,58,91)" stroke-width="1" opacity="1" d="M 148.5 42 Q 150.8 41.3 150 43.5 L 156 51.5 L 151 55 L 152 65.5 L 154 70.5 L 154 78 Q 164.3 79 169 86.5 L 171 90.5 L 169.5 90 L 166.5 89 Q 164.6 92.6 160 92 L 160 94.5 L 156 99.5 L 156 107.5 L 157 108.5 L 157 119.5 L 156 124 L 162 126.5 L 160.5 127 L 156.5 125 Q 153.8 126.4 155 131 L 139 137 L 141.5 133 L 152 126.5 L 153 124.5 L 153 101.5 Q 151.9 94.1 146.5 91 L 125.5 78 L 115.5 77 L 100.5 90 L 99.5 89 L 91.5 89 L 86.5 90 L 82 88 L 74 76 L 67.5 75 Q 50.6 81.6 40 94.5 L 39 96.5 L 39 117.5 L 42.5 126 L 52 131 L 51.5 136 L 41 131 L 36 124.5 L 35 99.5 Q 37.7 97.8 36 91.5 L 40.5 87 L 49.5 81 L 53.5 81 L 57 77.5 L 60.5 73 L 77.5 68 L 86.5 78 L 90.5 78 Q 94 73 100 72 Q 98.9 69.3 101.5 70 L 113.5 61 L 121.5 61 Q 123.3 63.8 129.5 62 Q 133 60 132 53.5 L 135.5 50 L 148.5 42 Z " /><path fill="rgb(154,58,91)" stroke="rgb(154,58,91)" stroke-width="1" opacity="1" d="M 72.5 59 L 75 59.5 L 72.5 60 L 72.5 59 Z " /><path fill="rgb(154,58,91)" stroke="rgb(154,58,91)" stroke-width="1" opacity="1" d="M 91.5 64 L 94 64.5 Q 92.7 68.8 88 68 L 87 65.5 L 91.5 64 Z " /><path fill="rgb(154,58,91)" stroke="rgb(154,58,91)" stroke-width="1" opacity="1" d="M 169.5 97 Q 172 98 171 102.5 L 167 118 L 164 116.5 L 165 109.5 Q 162.5 108 164 102.5 L 168 100 L 169.5 97 Z " /><path fill="rgb(154,58,91)" stroke="rgb(154,58,91)" stroke-width="1" opacity="1" d="M 36.5 145 L 39 150.5 L 36 152 Q 37.3 155 33.5 154 L 28.5 157 L 26 152.5 L 28 152 Q 26.8 149 30.5 150 L 36.5 145 Z " /><path fill="rgb(154,58,91)" stroke="rgb(154,58,91)" stroke-width="1" opacity="1" d="M 19.5 148 L 20 150.5 L 19 150.5 L 19.5 148 Z " /><path fill="rgb(154,58,91)" stroke="rgb(154,58,91)" stroke-width="1" opacity="1" d="M 21 149 L 23 149.5 L 22 152.5 L 24 156.5 L 22.5 156 L 20 154.5 L 21 149 Z " /><path fill="rgb(154,58,91)" stroke="rgb(154,58,91)" stroke-width="1" opacity="1" d="M 67.5 151 L 72 152 L 76.5 162 L 98.5 164 L 110.5 154 L 114.5 154 L 110 159.5 L 109 164.5 L 124 181.5 L 113 194.5 L 117.5 200 L 101 199.5 L 113 188.5 L 116 184.5 L 116 181.5 L 104 166 L 101.5 165 L 73.5 165 L 72 165.5 Q 72.9 162.5 68.5 164 L 69 162.5 L 69 157.5 L 67.5 151 Z " /><path fill="rgb(154,58,91)" stroke="rgb(154,58,91)" stroke-width="1" opacity="1" d="M 156.5 189 Q 161.3 187.3 160 191.5 L 161 192.5 L 161 200 L 149.5 200 L 149 198.5 L 148 197.5 L 148 191 L 156.5 189 Z " /><path fill="rgb(154,58,91)" stroke="rgb(154,58,91)" stroke-width="1" opacity="1" d="M 67.5 192 L 74.5 200 L 64 199.5 L 66 197.5 L 67.5 192 Z " /><path fill="rgb(180,103,114)" stroke="rgb(180,103,114)" stroke-width="1" opacity="1" d="M 59.5 34 L 67 49.5 L 68 58.5 L 69.5 60 Q 74.8 58.8 76 61.5 L 79 67.5 L 77.5 67 L 62.5 71 L 57 75.5 L 53.5 80 L 46.5 82 L 35.5 91 L 34 88.5 L 42.5 78 L 44.5 78 L 51 74.5 L 55 54.5 L 51 47.5 L 59.5 34 Z " /><path fill="rgb(180,103,114)" stroke="rgb(180,103,114)" stroke-width="1" opacity="1" d="M 146.5 38 Q 151 37 152 39.5 L 158 50.5 L 156 51 L 149.5 41 L 132 52.5 L 131 61 L 117.5 61 L 114 59.5 L 115 57 Q 128.4 45.6 146.5 38 Z " /><path fill="rgb(180,103,114)" stroke="rgb(180,103,114)" stroke-width="1" opacity="1" d="M 86.5 56 L 107 56.5 L 94.5 66 L 95.5 63 L 87 65 L 89 68.5 L 86 66.5 L 83 57 L 86.5 56 Z " /><path fill="rgb(180,103,114)" stroke="rgb(180,103,114)" stroke-width="1" opacity="1" d="M 108.5 63 L 107.5 65 L 108.5 63 Z " /><path fill="rgb(180,103,114)" stroke="rgb(180,103,114)" stroke-width="1" opacity="1" d="M 105.5 65 L 103.5 68 L 105.5 65 Z " /><path fill="rgb(180,103,114)" stroke="rgb(180,103,114)" stroke-width="1" opacity="1" d="M 101.5 68 L 99.5 71 L 101.5 68 Z " /><path fill="rgb(180,103,114)" stroke="rgb(180,103,114)" stroke-width="1" opacity="1" d="M 96.5 72 L 95.5 74 L 96.5 72 Z " /><path fill="rgb(180,103,114)" stroke="rgb(180,103,114)" stroke-width="1" opacity="1" d="M 163.5 72 L 164 74.5 L 163 74.5 L 163.5 72 Z " /><path fill="rgb(180,103,114)" stroke="rgb(180,103,114)" stroke-width="1" opacity="1" d="M 82.5 73 L 85.5 77 L 82.5 73 Z " /><path fill="rgb(180,103,114)" stroke="rgb(180,103,114)" stroke-width="1" opacity="1" d="M 74.5 78 L 75.5 80 L 74.5 78 Z " /><path fill="rgb(180,103,114)" stroke="rgb(180,103,114)" stroke-width="1" opacity="1" d="M 113.5 79 L 110.5 83 L 113.5 79 Z " /><path fill="rgb(180,103,114)" stroke="rgb(180,103,114)" stroke-width="1" opacity="1" d="M 77.5 82 L 79.5 85 L 77.5 82 Z " /><path fill="rgb(180,103,114)" stroke="rgb(180,103,114)" stroke-width="1" opacity="1" d="M 118.5 83 L 121 83.5 L 118.5 84 L 118.5 83 Z " /><path fill="rgb(180,103,114)" stroke="rgb(180,103,114)" stroke-width="1" opacity="1" d="M 107.5 84 L 104.5 88 L 107.5 84 Z " /><path fill="rgb(180,103,114)" stroke="rgb(180,103,114)" stroke-width="1" opacity="1" d="M 135.5 84 L 136.5 86 L 135.5 84 Z " /><path fill="rgb(180,103,114)" stroke="rgb(180,103,114)" stroke-width="1" opacity="1" d="M 49.5 86 L 47.5 89 L 49.5 86 Z " /><path fill="rgb(180,103,114)" stroke="rgb(180,103,114)" stroke-width="1" opacity="1" d="M 81.5 87 L 83.5 90 L 81.5 87 Z " /><path fill="rgb(180,103,114)" stroke="rgb(180,103,114)" stroke-width="1" opacity="1" d="M 112.5 87 L 110.5 90 L 112.5 87 Z " /><path fill="rgb(180,103,114)" stroke="rgb(180,103,114)" stroke-width="1" opacity="1" d="M 140.5 87 L 141.5 89 L 140.5 87 Z " /><path fill="rgb(180,103,114)" stroke="rgb(180,103,114)" stroke-width="1" opacity="1" d="M 102.5 88 L 101.5 90 L 102.5 88 Z " /><path fill="rgb(180,103,114)" stroke="rgb(180,103,114)" stroke-width="1" opacity="1" d="M 144.5 90 L 145.5 92 L 144.5 90 Z " /><path fill="rgb(180,103,114)" stroke="rgb(180,103,114)" stroke-width="1" opacity="1" d="M 165.5 90 L 162.5 94 L 165.5 90 Z " /><path fill="rgb(180,103,114)" stroke="rgb(180,103,114)" stroke-width="1" opacity="1" d="M 64.5 92 L 63.5 94 L 64.5 92 Z " /><path fill="rgb(180,103,114)" stroke="rgb(180,103,114)" stroke-width="1" opacity="1" d="M 67.5 92 L 69.5 95 L 67.5 92 Z " /><path fill="rgb(180,103,114)" stroke="rgb(180,103,114)" stroke-width="1" opacity="1" d="M 117.5 92 L 114.5 96 L 117.5 92 Z " /><path fill="rgb(180,103,114)" stroke="rgb(180,103,114)" stroke-width="1" opacity="1" d="M 136.5 92 L 137.5 94 L 136.5 92 Z " /><path fill="rgb(180,103,114)" stroke="rgb(180,103,114)" stroke-width="1" opacity="1" d="M 60.5 95 L 59.5 97 L 60.5 95 Z " /><path fill="rgb(180,103,114)" stroke="rgb(180,103,114)" stroke-width="1" opacity="1" d="M 102.5 95 L 101.5 97 L 102.5 95 Z " /><path fill="rgb(180,103,114)" stroke="rgb(180,103,114)" stroke-width="1" opacity="1" d="M 149.5 95 L 150.5 97 L 149.5 95 Z " /><path fill="rgb(180,103,114)" stroke="rgb(180,103,114)" stroke-width="1" opacity="1" d="M 131.5 97 L 133.5 100 L 131.5 97 Z " /><path fill="rgb(180,103,114)" stroke="rgb(180,103,114)" stroke-width="1" opacity="1" d="M 171.5 97 L 173 98.5 L 173 109.5 L 171 121 L 166 119.5 L 168 119 L 172 98.5 L 171.5 97 Z " /><path fill="rgb(180,103,114)" stroke="rgb(180,103,114)" stroke-width="1" opacity="1" d="M 39.5 98 L 40 114.5 L 39 114.5 L 39.5 98 Z " /><path fill="rgb(180,103,114)" stroke="rgb(180,103,114)" stroke-width="1" opacity="1" d="M 110.5 98 L 109.5 100 L 110.5 98 Z " /><path fill="rgb(180,103,114)" stroke="rgb(180,103,114)" stroke-width="1" opacity="1" d="M 34.5 99 L 35 116.5 L 34 116.5 L 34.5 99 Z " /><path fill="rgb(180,103,114)" stroke="rgb(180,103,114)" stroke-width="1" opacity="1" d="M 73.5 99 L 76.5 103 L 73.5 99 Z " /><path fill="rgb(180,103,114)" stroke="rgb(180,103,114)" stroke-width="1" opacity="1" d="M 106.5 101 L 105.5 103 L 106.5 101 Z " /><path fill="rgb(180,103,114)" stroke="rgb(180,103,114)" stroke-width="1" opacity="1" d="M 163.5 102 L 164 105.5 L 163 105.5 L 163.5 102 Z " /><path fill="rgb(180,103,114)" stroke="rgb(180,103,114)" stroke-width="1" opacity="1" d="M 89.5 104 L 101 104.5 L 89.5 105 L 89.5 104 Z " /><path fill="rgb(180,103,114)" stroke="rgb(180,103,114)" stroke-width="1" opacity="1" d="M 152.5 104 L 153 120.5 L 152 120.5 L 152.5 104 Z " /><path fill="rgb(180,103,114)" stroke="rgb(180,103,114)" stroke-width="1" opacity="1" d="M 66.5 107 L 70 107.5 L 66.5 108 L 66.5 107 Z " /><path fill="rgb(180,103,114)" stroke="rgb(180,103,114)" stroke-width="1" opacity="1" d="M 45.5 108 L 46 120.5 L 45 120.5 L 45.5 108 Z " /><path fill="rgb(180,103,114)" stroke="rgb(180,103,114)" stroke-width="1" opacity="1" d="M 52.5 108 L 53 118.5 L 54 119.5 L 52 118.5 L 52.5 108 Z " /><path fill="rgb(180,103,114)" stroke="rgb(180,103,114)" stroke-width="1" opacity="1" d="M 63.5 108 L 62.5 110 L 63.5 108 Z " /><path fill="rgb(180,103,114)" stroke="rgb(180,103,114)" stroke-width="1" opacity="1" d="M 119.5 108 L 123 108.5 L 119.5 109 L 119.5 108 Z " /><path fill="rgb(180,103,114)" stroke="rgb(180,103,114)" stroke-width="1" opacity="1" d="M 138.5 111 L 139 117.5 L 138 117.5 L 138.5 111 Z " /><path fill="rgb(180,103,114)" stroke="rgb(180,103,114)" stroke-width="1" opacity="1" d="M 157.5 112 L 158 115.5 L 157 115.5 L 157.5 112 Z " /><path fill="rgb(180,103,114)" stroke="rgb(180,103,114)" stroke-width="1" opacity="1" d="M 75.5 115 L 74.5 117 L 75.5 115 Z " /><path fill="rgb(180,103,114)" stroke="rgb(180,103,114)" stroke-width="1" opacity="1" d="M 125.5 115 L 123.5 118 L 125.5 115 Z " /><path fill="rgb(180,103,114)" stroke="rgb(180,103,114)" stroke-width="1" opacity="1" d="M 40.5 118 Q 40.9 124.1 45 126.5 L 41 123.5 L 40.5 118 Z " /><path fill="rgb(180,103,114)" stroke="rgb(180,103,114)" stroke-width="1" opacity="1" d="M 116.5 118 L 121 118.5 L 116.5 119 L 116.5 118 Z " /><path fill="rgb(180,103,114)" stroke="rgb(180,103,114)" stroke-width="1" opacity="1" d="M 91.5 120 L 95 120.5 L 91.5 121 L 91.5 120 Z " /><path fill="rgb(180,103,114)" stroke="rgb(180,103,114)" stroke-width="1" opacity="1" d="M 46.5 122 L 47.5 124 L 46.5 122 Z " /><path fill="rgb(180,103,114)" stroke="rgb(180,103,114)" stroke-width="1" opacity="1" d="M 158.5 122 L 160.5 125 L 158.5 122 Z " /><path fill="rgb(180,103,114)" stroke="rgb(180,103,114)" stroke-width="1" opacity="1" d="M 85.5 124 L 87 127.5 L 85 126.5 L 85.5 124 Z " /><path fill="rgb(180,103,114)" stroke="rgb(180,103,114)" stroke-width="1" opacity="1" d="M 162.5 125 L 167 128.5 L 151.5 138 L 140.5 141 L 139 138 L 153.5 132 L 156 129.5 Q 154.3 124.7 158.5 126 L 161.5 128 L 162.5 125 Z " /><path fill="rgb(180,103,114)" stroke="rgb(180,103,114)" stroke-width="1" opacity="1" d="M 102.5 127 L 101.5 129 L 102.5 127 Z " /><path fill="rgb(180,103,114)" stroke="rgb(180,103,114)" stroke-width="1" opacity="1" d="M 149.5 127 L 148.5 129 L 149.5 127 Z " /><path fill="rgb(180,103,114)" stroke="rgb(180,103,114)" stroke-width="1" opacity="1" d="M 48.5 128 L 49.5 130 L 48.5 128 Z " /><path fill="rgb(180,103,114)" stroke="rgb(180,103,114)" stroke-width="1" opacity="1" d="M 51.5 130 L 52.5 132 L 51.5 130 Z " /><path fill="rgb(180,103,114)" stroke="rgb(180,103,114)" stroke-width="1" opacity="1" d="M 28 131 L 31 131.5 L 31 133.5 Q 30.1 136.5 34.5 135 L 41 144.5 L 39.5 149 L 36.5 144 Q 33.4 149.4 25.5 150 L 19 146.5 L 18 140.5 L 19 137 Q 22.7 138.5 22 135.5 L 21.5 134 L 24.5 133 L 26.5 134 L 28 131 Z M 26 135 L 24 136 L 20 142 Q 19 147 24 148 L 29 148 L 33 144 L 32 137 Q 31 134 26 135 Z " /><path fill="rgb(180,103,114)" stroke="rgb(180,103,114)" stroke-width="1" opacity="1" d="M 43.5 133 L 52 136 L 52.5 134 L 53 138.5 L 50.5 137 L 44.5 135 L 43.5 133 Z " /><path fill="rgb(180,103,114)" stroke="rgb(180,103,114)" stroke-width="1" opacity="1" d="M 129.5 133 L 130 136.5 L 129 136.5 L 129.5 133 Z " /><path fill="rgb(180,103,114)" stroke="rgb(180,103,114)" stroke-width="1" opacity="1" d="M 90.5 136 L 107 136.5 L 90.5 137 L 90.5 136 Z " /><path fill="rgb(180,103,114)" stroke="rgb(180,103,114)" stroke-width="1" opacity="1" d="M 89.5 143 L 93 143.5 L 89.5 144 L 89.5 143 Z " /><path fill="rgb(180,103,114)" stroke="rgb(180,103,114)" stroke-width="1" opacity="1" d="M 103.5 143 L 107 143.5 L 103.5 144 L 103.5 143 Z " /><path fill="rgb(180,103,114)" stroke="rgb(180,103,114)" stroke-width="1" opacity="1" d="M 96.5 147 L 100 147.5 L 96.5 148 L 96.5 147 Z " /><path fill="rgb(180,103,114)" stroke="rgb(180,103,114)" stroke-width="1" opacity="1" d="M 103.5 147 L 110 147.5 L 103.5 148 L 103.5 147 Z " /><path fill="rgb(180,103,114)" stroke="rgb(180,103,114)" stroke-width="1" opacity="1" d="M 38.5 151 L 35.5 155 L 38.5 151 Z " /><path fill="rgb(180,103,114)" stroke="rgb(180,103,114)" stroke-width="1" opacity="1" d="M 47.5 151 L 49 153.5 L 48 153.5 L 47.5 151 Z " /><path fill="rgb(180,103,114)" stroke="rgb(180,103,114)" stroke-width="1" opacity="1" d="M 91.5 154 L 102 154.5 L 99 156.5 L 99.5 155 L 91.5 155 L 91.5 154 Z " /><path fill="rgb(180,103,114)" stroke="rgb(180,103,114)" stroke-width="1" opacity="1" d="M 79.5 156 L 80.5 158 L 79.5 156 Z " /><path fill="rgb(180,103,114)" stroke="rgb(180,103,114)" stroke-width="1" opacity="1" d="M 113.5 156 L 111.5 159 L 113.5 156 Z " /><path fill="rgb(180,103,114)" stroke="rgb(180,103,114)" stroke-width="1" opacity="1" d="M 93.5 158 L 97 158.5 L 93.5 159 L 93.5 158 Z " /><path fill="rgb(180,103,114)" stroke="rgb(180,103,114)" stroke-width="1" opacity="1" d="M 45.5 159 L 43.5 162 L 45.5 159 Z " /><path fill="rgb(180,103,114)" stroke="rgb(180,103,114)" stroke-width="1" opacity="1" d="M 67.5 163 L 72 165.5 Q 63.8 171.8 59 181.5 L 67 192.5 L 65 195.5 L 65.5 197 L 54 179.5 Q 57.6 170.6 64.5 165 L 67.5 163 Z " /><path fill="rgb(180,103,114)" stroke="rgb(180,103,114)" stroke-width="1" opacity="1" d="M 121.5 166 L 122.5 168 L 121.5 166 Z " /><path fill="rgb(180,103,114)" stroke="rgb(180,103,114)" stroke-width="1" opacity="1" d="M 25.5 167 L 28 168.5 L 26.5 169 L 25.5 167 Z " /><path fill="rgb(180,103,114)" stroke="rgb(180,103,114)" stroke-width="1" opacity="1" d="M 115.5 170 L 118.5 174 L 115.5 170 Z " /><path fill="rgb(180,103,114)" stroke="rgb(180,103,114)" stroke-width="1" opacity="1" d="M 77.5 171 L 98 171.5 L 77.5 172 L 77.5 171 Z " /><path fill="rgb(180,103,114)" stroke="rgb(180,103,114)" stroke-width="1" opacity="1" d="M 75.5 172 L 74.5 174 L 75.5 172 Z " /><path fill="rgb(180,103,114)" stroke="rgb(180,103,114)" stroke-width="1" opacity="1" d="M 126.5 172 L 127.5 174 L 126.5 172 Z " /><path fill="rgb(180,103,114)" stroke="rgb(180,103,114)" stroke-width="1" opacity="1" d="M 120.5 176 L 122.5 179 L 120.5 176 Z " /><path fill="rgb(180,103,114)" stroke="rgb(180,103,114)" stroke-width="1" opacity="1" d="M 69.5 178 L 68.5 180 L 69.5 178 Z " /><path fill="rgb(180,103,114)" stroke="rgb(180,103,114)" stroke-width="1" opacity="1" d="M 68.5 182 L 69.5 184 L 68.5 182 Z " /><path fill="rgb(180,103,114)" stroke="rgb(180,103,114)" stroke-width="1" opacity="1" d="M 123.5 183 L 118.5 189 L 123.5 183 Z " /><path fill="rgb(180,103,114)" stroke="rgb(180,103,114)" stroke-width="1" opacity="1" d="M 157.5 188 L 164 189 Q 166.1 192.4 165 200 Q 160.1 201.8 162 195.5 L 159.5 189 Q 156.5 189.5 157.5 188 Z " /><path fill="rgb(180,103,114)" stroke="rgb(180,103,114)" stroke-width="1" opacity="1" d="M 117.5 190 L 114.5 194 L 117.5 190 Z " /><path fill="rgb(180,103,114)" stroke="rgb(180,103,114)" stroke-width="1" opacity="1" d="M 142.5 190 L 147 192.5 Q 146.4 197.9 148 200 L 145 198.5 Q 144.7 192.1 142.5 190 Z " /><path fill="rgb(180,103,114)" stroke="rgb(180,103,114)" stroke-width="1" opacity="1" d="M 114.5 195 L 118.5 200 L 114.5 195 Z " /><path fill="rgb(248,237,199)" stroke="rgb(248,237,199)" stroke-width="1" opacity="1" d="M 50 49 Q 53 47.8 52 51.5 L 55 56.5 L 51 70.5 L 49.5 72 L 44.5 74 L 44 68.5 L 50 49 Z " /><path fill="rgb(248,237,199)" stroke="rgb(248,237,199)" stroke-width="1" opacity="1" d="M 156.5 52 Q 159.1 51.2 158 54.5 L 160 59.5 L 158.5 59 L 153 63.5 L 152 56.5 L 156.5 52 Z " /><path fill="rgb(248,237,199)" stroke="rgb(248,237,199)" stroke-width="1" opacity="1" d="M 69.5 76 L 75 79.5 L 84 90.5 L 82 96 L 79 94.5 L 70.5 84 L 64.5 83 L 47 96.5 L 45.5 100 L 41 95.5 L 49.5 87 Q 57.5 79.5 69.5 76 Z " /><path fill="rgb(248,237,199)" stroke="rgb(248,237,199)" stroke-width="1" opacity="1" d="M 122.5 95 L 126.5 96 L 137 103.5 L 138 119 L 129.5 124 L 125.5 124 L 120 119.5 L 127 114.5 Q 127.8 108.8 123.5 108 Q 114.1 106.1 111 110.5 L 109.5 114 Q 101.5 109 86.5 111 L 77.5 114 L 76 109 L 67.5 106 L 61 110.5 Q 60.4 115.6 63.5 117 L 70 118.5 L 64 123.5 L 63.5 125 L 53 118.5 L 54 107.5 L 59.5 101 L 67.5 97 Q 72.9 103.6 81.5 107 L 106.5 107 L 122.5 95 Z " /><path fill="rgb(248,237,199)" stroke="rgb(248,237,199)" stroke-width="1" opacity="1" d="M 76.5 115 L 75.5 117 L 76.5 115 Z " /><path fill="rgb(248,237,199)" stroke="rgb(248,237,199)" stroke-width="1" opacity="1" d="M 87 115 L 90 115.5 L 88 116 L 89.5 119 L 91 119.5 L 89.5 120 Q 86.3 118.8 87 115 Z " /><path fill="rgb(248,237,199)" stroke="rgb(248,237,199)" stroke-width="1" opacity="1" d="M 95.5 115 L 99 116.5 Q 99.8 118.8 97.5 118 L 95 119.5 L 97 116 L 95.5 115 Z " /><path fill="rgb(248,237,199)" stroke="rgb(248,237,199)" stroke-width="1" opacity="1" d="M 43 122 L 46 122 Q 44.9 124.7 47.5 124 L 58 130.5 L 53.5 131 L 43 125 L 43 122 Z " /><path fill="rgb(248,237,199)" stroke="rgb(248,237,199)" stroke-width="1" opacity="1" d="M 145 122 Q 149.6 120.8 151 123.5 Q 151.5 127.5 148.5 128 L 138.5 134 L 132.5 134 L 130 132.5 L 134.5 131 L 145 123.5 L 145 122 Z " /><path fill="rgb(248,237,199)" stroke="rgb(248,237,199)" stroke-width="1" opacity="1" d="M 101.5 123 L 102.5 125 L 101.5 123 Z " /><path fill="rgb(248,237,199)" stroke="rgb(248,237,199)" stroke-width="1" opacity="1" d="M 88.5 135 L 95 135.5 L 88.5 136 L 88.5 135 Z " /><path fill="rgb(248,237,199)" stroke="rgb(248,237,199)" stroke-width="1" opacity="1" d="M 64.5 139 L 72.5 142 L 77.5 142 L 79 143.5 Q 79.6 146.3 73.5 145 L 64 141.5 L 64.5 139 Z " /><path fill="rgb(248,237,199)" stroke="rgb(248,237,199)" stroke-width="1" opacity="1" d="M 41.5 145 L 48 153.5 L 43.5 161 L 43 159 Q 38.9 160.7 40 156.5 L 41 152.5 L 40 147.5 L 41.5 145 Z " /><path fill="rgb(248,237,199)" stroke="rgb(248,237,199)" stroke-width="1" opacity="1" d="M 157 176 L 161 176 L 161 177.5 L 164 187.5 L 161 188 L 157 176 Z " /><path fill="rgb(232,250,246)" stroke="rgb(232,250,246)" stroke-width="1" opacity="1" d="M 78.5 58 Q 82.3 57.3 83 59.5 L 85 64.5 L 78.5 66 L 76 59 L 78.5 58 Z " /><path fill="rgb(232,250,246)" stroke="rgb(232,250,246)" stroke-width="1" opacity="1" d="M 102.5 60 L 107 63.5 L 98.5 70 L 95 67.5 Q 93.9 64.2 96.5 65 L 102.5 60 Z " /><path fill="rgb(232,250,246)" stroke="rgb(232,250,246)" stroke-width="1" opacity="1" d="M 33.5 91 L 35 93.5 L 33 94 L 33.5 91 Z " /><path fill="rgb(232,250,246)" stroke="rgb(232,250,246)" stroke-width="1" opacity="1" d="M 157 99 L 163 103.5 L 163 118.5 L 159.5 122 L 158 117.5 L 158 101.5 L 157 99 Z " /><path fill="rgb(232,250,246)" stroke="rgb(232,250,246)" stroke-width="1" opacity="1" d="M 86.5 111 Q 102.2 108.8 110 114.5 L 112.5 118 L 119.5 119 L 128 124.5 L 122 127 L 121 130.5 L 122 132.5 L 117.5 135 L 95.5 136 Q 94 133.5 88.5 135 L 86.5 136 L 66 132 L 67 128.5 L 64 123.5 L 68.5 119 Q 74.3 118.8 77 115.5 L 78.5 113 L 86.5 111 Z M 87 115 Q 86 119 90 121 L 85 123 L 84 126 L 87 129 Q 92 130 94 127 L 100 130 L 104 129 L 103 125 L 96 121 L 98 118 Q 100 119 99 117 L 98 115 L 87 115 Z " /><path fill="rgb(232,250,246)" stroke="rgb(232,250,246)" stroke-width="1" opacity="1" d="M 25.5 138 Q 29.3 137.3 30 139.5 Q 30.5 143.5 27.5 144 L 24 142.5 Q 23.3 138.8 25.5 138 Z " /><path fill="rgb(232,250,246)" stroke="rgb(232,250,246)" stroke-width="1" opacity="1" d="M 62.5 162 L 66 163.5 L 58 170.5 L 56.5 173 L 57 171.5 Q 57.9 164.9 62.5 162 Z " /><path fill="rgb(232,250,246)" stroke="rgb(232,250,246)" stroke-width="1" opacity="1" d="M 114.5 162 L 116.5 162 L 121 166.5 L 130 177.5 L 131 182.5 L 129.5 182 Q 124.8 181.8 123 178.5 L 111 163 L 114.5 162 Z " /><path fill="rgb(232,250,246)" stroke="rgb(232,250,246)" stroke-width="1" opacity="1" d="M 75 177 L 97.5 178 L 99 179.5 L 88.5 192 L 85 193 Q 86.1 190.3 83.5 191 L 75 179.5 L 75 177 Z " /><path fill="rgb(88,208,210)" stroke="rgb(88,208,210)" stroke-width="1" opacity="1" d="M 107.5 56 L 115 57 L 112.5 61 L 107.5 64 L 103 60.5 Q 102.3 58.3 104.5 59 L 107.5 56 Z " /><path fill="rgb(88,208,210)" stroke="rgb(88,208,210)" stroke-width="1" opacity="1" d="M 81.5 57 L 82.5 59 L 81.5 57 Z " /><path fill="rgb(88,208,210)" stroke="rgb(88,208,210)" stroke-width="1" opacity="1" d="M 81.5 65 Q 86.9 63.1 86 66.5 Q 86.5 69.5 90.5 69 L 94.5 66 L 96.5 69 L 98.5 70 L 100 69.5 L 88.5 78 L 80 70.5 L 78 66.5 L 81.5 65 Z " /><path fill="rgb(88,208,210)" stroke="rgb(88,208,210)" stroke-width="1" opacity="1" d="M 166.5 90 L 172 92.5 L 173 97.5 L 171.5 97 L 169.5 96 L 162.5 103 L 158 98.5 L 161.5 94 L 166.5 90 Z " /><path fill="rgb(88,208,210)" stroke="rgb(88,208,210)" stroke-width="1" opacity="1" d="M 32.5 92 L 33 94 Q 36.7 92.7 35 98.5 L 34 99.5 L 34 116.5 Q 36.5 118 35 123.5 L 34 123.5 L 31 111.5 L 31 98.5 L 32.5 92 Z " /><path fill="rgb(88,208,210)" stroke="rgb(88,208,210)" stroke-width="1" opacity="1" d="M 157.5 102 L 158 107.5 L 157 107.5 L 157.5 102 Z " /><path fill="rgb(88,208,210)" stroke="rgb(88,208,210)" stroke-width="1" opacity="1" d="M 163.5 118 L 170 121 Q 170.8 126 167.5 128 L 165.5 128 L 158 121.5 L 158.5 120 L 159.5 122 L 163.5 118 Z " /><path fill="rgb(88,208,210)" stroke="rgb(88,208,210)" stroke-width="1" opacity="1" d="M 27.5 131 L 28 132.5 L 25.5 134 L 24.5 132 L 27.5 131 Z " /><path fill="rgb(88,208,210)" stroke="rgb(88,208,210)" stroke-width="1" opacity="1" d="M 30.5 132 Q 34.9 130.5 34 133.5 L 34.5 135 L 31 135.5 Q 34 137.5 33 143.5 L 28.5 148 L 23.5 148 Q 19.3 147.2 20 141.5 L 22 137.5 L 19 136.5 L 22 135 L 22.5 137 Q 25 133.8 31 135 L 30.5 132 Z M 26 138 Q 23 139 24 143 L 28 144 Q 31 144 30 140 Q 29 137 26 138 Z " /><path fill="rgb(88,208,210)" stroke="rgb(88,208,210)" stroke-width="1" opacity="1" d="M 60.5 149 L 66 151.5 L 68 162.5 Q 66.3 165.8 64.5 162 Q 59.5 161.5 59 165.5 L 56.5 172 L 56 169.5 L 61 158.5 L 59 150.5 L 60.5 149 Z " /><path fill="rgb(88,208,210)" stroke="rgb(88,208,210)" stroke-width="1" opacity="1" d="M 123.5 152 L 129 152.5 L 118 161.5 L 121 165.5 L 116.5 162 L 110.5 164 L 110 161.5 L 116.5 154 L 123.5 152 Z " /><path fill="rgb(88,208,210)" stroke="rgb(88,208,210)" stroke-width="1" opacity="1" d="M 63.5 165 L 59.5 170 L 63.5 165 Z " /><path fill="rgb(88,208,210)" stroke="rgb(88,208,210)" stroke-width="1" opacity="1" d="M 121.5 167 L 125.5 172 L 121.5 167 Z " /><path fill="rgb(88,208,210)" stroke="rgb(88,208,210)" stroke-width="1" opacity="1" d="M 76.5 172 L 98.5 172 L 103 176.5 L 108 183.5 L 90.5 200 L 85.5 200 L 70 184.5 L 68 180.5 L 73.5 174 L 76.5 172 Z M 75 177 L 75 180 L 84 191 Q 86 190 85 193 L 89 192 L 99 180 L 98 178 L 75 177 Z " /><path fill="rgb(88,208,210)" stroke="rgb(88,208,210)" stroke-width="1" opacity="1" d="M 56.5 173 L 55.5 175 L 56.5 173 Z " /><path fill="rgb(88,208,210)" stroke="rgb(88,208,210)" stroke-width="1" opacity="1" d="M 126.5 173 L 129.5 177 L 126.5 173 Z " /><path fill="rgb(88,208,210)" stroke="rgb(88,208,210)" stroke-width="1" opacity="1" d="M 54.5 180 L 65 197.5 Q 63.1 201.8 56 200 L 57 195.5 L 53 190.5 L 53 187.5 L 54.5 180 Z " /><path fill="rgb(88,208,210)" stroke="rgb(88,208,210)" stroke-width="1" opacity="1" d="M 124.5 180 L 130.5 183 L 131.5 181 L 132 182.5 L 122 195.5 L 127 199.5 L 119.5 200 L 114 194.5 L 118 190.5 L 125 181.5 L 124.5 180 Z " /><path fill="rgb(240,185,92)" stroke="rgb(240,185,92)" stroke-width="1" opacity="1" d="M 153.5 54 L 151.5 57 L 153.5 54 Z " /><path fill="rgb(240,185,92)" stroke="rgb(240,185,92)" stroke-width="1" opacity="1" d="M 158.5 59 L 162 64.5 L 164 75.5 Q 161 78.9 155 78 L 153 64.5 L 158.5 59 Z " /><path fill="rgb(240,185,92)" stroke="rgb(240,185,92)" stroke-width="1" opacity="1" d="M 118.5 77 Q 136.5 83 149 94.5 L 152 100.5 L 152 123.5 L 151 123.5 Q 151.9 120.5 147.5 122 L 145 121 L 145 103.5 L 143 97 L 129.5 87 L 118.5 83 L 112.5 87 L 110 83.5 Q 112.4 78.4 118.5 77 Z " /><path fill="rgb(240,185,92)" stroke="rgb(240,185,92)" stroke-width="1" opacity="1" d="M 84.5 90 L 101.5 90 Q 102.6 90.1 102 95.5 L 100.5 97 L 82 97 L 84.5 90 Z " /><path fill="rgb(240,185,92)" stroke="rgb(240,185,92)" stroke-width="1" opacity="1" d="M 40 96 L 45 99.5 L 46 107.5 L 45 108.5 L 45 120.5 L 42.5 123 L 40 117.5 L 40 96 Z " /><path fill="rgb(240,185,92)" stroke="rgb(240,185,92)" stroke-width="1" opacity="1" d="M 56.5 131 Q 59.5 130.1 58 134.5 L 57 140 L 53 139 L 53 132 L 55.5 132 L 56.5 131 Z " /><path fill="rgb(240,185,92)" stroke="rgb(240,185,92)" stroke-width="1" opacity="1" d="M 80.5 143 L 106.5 144 L 107.5 143 L 115.5 143 L 115 144.5 L 113.5 147 Q 105.2 145.8 100.5 148 L 99.5 147 L 84.5 147 L 79 146 L 80.5 143 Z " /><path fill="rgb(240,185,92)" stroke="rgb(240,185,92)" stroke-width="1" opacity="1" d="M 39.5 150 L 41 154.5 L 40 159 Q 44.1 157.3 43 161.5 Q 39 166.6 31.5 168 L 26 158.5 Q 34.8 157.3 39 151.5 L 39.5 150 Z " /><path fill="rgb(240,185,92)" stroke="rgb(240,185,92)" stroke-width="1" opacity="1" d="M 79.5 153 L 80.5 154 L 90.5 154 L 96 157.5 L 81.5 158 Q 77.8 156.8 79.5 153 Z " /><path fill="rgb(240,185,92)" stroke="rgb(240,185,92)" stroke-width="1" opacity="1" d="M 154.5 176 Q 158.7 174.7 157 179.5 Q 160.7 182.3 160 188 L 146.5 191 L 143 179 L 154.5 176 Z " /><path fill="rgb(107,51,69)" stroke="rgb(107,51,69)" stroke-width="1" opacity="1" d="M 58.5 34 L 57.5 36 L 58.5 34 Z " /><path fill="rgb(107,51,69)" stroke="rgb(107,51,69)" stroke-width="1" opacity="1" d="M 62.5 35 L 63.5 37 L 62.5 35 Z " /><path fill="rgb(107,51,69)" stroke="rgb(107,51,69)" stroke-width="1" opacity="1" d="M 150.5 37 L 152.5 40 L 150.5 37 Z " /><path fill="rgb(107,51,69)" stroke="rgb(107,51,69)" stroke-width="1" opacity="1" d="M 70.5 41 L 71.5 43 L 70.5 41 Z " /><path fill="rgb(107,51,69)" stroke="rgb(107,51,69)" stroke-width="1" opacity="1" d="M 75.5 45 L 84 54.5 L 84 56.5 L 81.5 57 L 70 59 L 70 54 L 71.5 54 L 80 50.5 L 75.5 45 Z " /><path fill="rgb(107,51,69)" stroke="rgb(107,51,69)" stroke-width="1" opacity="1" d="M 119.5 53 L 117.5 56 L 119.5 53 Z " /><path fill="rgb(107,51,69)" stroke="rgb(107,51,69)" stroke-width="1" opacity="1" d="M 165.5 82 L 168.5 86 L 165.5 82 Z " /><path fill="rgb(107,51,69)" stroke="rgb(107,51,69)" stroke-width="1" opacity="1" d="M 115.5 85 L 114.5 87 L 115.5 85 Z " /><path fill="rgb(107,51,69)" stroke="rgb(107,51,69)" stroke-width="1" opacity="1" d="M 75.5 91 L 76.5 93 L 75.5 91 Z " /><path fill="rgb(107,51,69)" stroke="rgb(107,51,69)" stroke-width="1" opacity="1" d="M 108.5 91 L 107.5 93 L 108.5 91 Z " /><path fill="rgb(107,51,69)" stroke="rgb(107,51,69)" stroke-width="1" opacity="1" d="M 51.5 93 L 48.5 97 L 51.5 93 Z " /><path fill="rgb(107,51,69)" stroke="rgb(107,51,69)" stroke-width="1" opacity="1" d="M 113.5 95 L 112.5 97 L 113.5 95 Z " /><path fill="rgb(107,51,69)" stroke="rgb(107,51,69)" stroke-width="1" opacity="1" d="M 129.5 95 L 130.5 97 L 129.5 95 Z " /><path fill="rgb(107,51,69)" stroke="rgb(107,51,69)" stroke-width="1" opacity="1" d="M 139.5 95 L 140.5 97 L 139.5 95 Z " /><path fill="rgb(107,51,69)" stroke="rgb(107,51,69)" stroke-width="1" opacity="1" d="M 71.5 96 L 74.5 100 L 71.5 96 Z " /><path fill="rgb(107,51,69)" stroke="rgb(107,51,69)" stroke-width="1" opacity="1" d="M 57.5 97 L 56.5 99 L 57.5 97 Z " /><path fill="rgb(107,51,69)" stroke="rgb(107,51,69)" stroke-width="1" opacity="1" d="M 86.5 97 L 100 97.5 L 86.5 98 L 86.5 97 Z " /><path fill="rgb(107,51,69)" stroke="rgb(107,51,69)" stroke-width="1" opacity="1" d="M 134.5 99 L 135.5 101 L 134.5 99 Z " /><path fill="rgb(107,51,69)" stroke="rgb(107,51,69)" stroke-width="1" opacity="1" d="M 81.5 103 L 86 103.5 L 81.5 104 L 81.5 103 Z " /><path fill="rgb(107,51,69)" stroke="rgb(107,51,69)" stroke-width="1" opacity="1" d="M 144.5 106 L 145 110.5 L 144 110.5 L 144.5 106 Z " /><path fill="rgb(107,51,69)" stroke="rgb(107,51,69)" stroke-width="1" opacity="1" d="M 35.5 124 L 37.5 127 L 35.5 124 Z " /><path fill="rgb(107,51,69)" stroke="rgb(107,51,69)" stroke-width="1" opacity="1" d="M 42.5 133 L 43.5 135 L 42.5 133 Z " /><path fill="rgb(107,51,69)" stroke="rgb(107,51,69)" stroke-width="1" opacity="1" d="M 58.5 134 L 64 138.5 L 63 142 L 57.5 140 L 56 140.5 Q 59.1 139 58.5 134 Z " /><path fill="rgb(107,51,69)" stroke="rgb(107,51,69)" stroke-width="1" opacity="1" d="M 86.5 136 L 89 136.5 L 86.5 137 L 86.5 136 Z " /><path fill="rgb(107,51,69)" stroke="rgb(107,51,69)" stroke-width="1" opacity="1" d="M 128.5 137 L 131 142.5 Q 129.8 145 126 144 Q 127.5 140.2 124.5 141 L 126.5 138 L 128.5 137 Z " /><path fill="rgb(107,51,69)" stroke="rgb(107,51,69)" stroke-width="1" opacity="1" d="M 40.5 142 L 41.5 144 L 40.5 142 Z " /><path fill="rgb(107,51,69)" stroke="rgb(107,51,69)" stroke-width="1" opacity="1" d="M 82.5 142 L 86 142.5 L 82.5 143 L 82.5 142 Z " /><path fill="rgb(107,51,69)" stroke="rgb(107,51,69)" stroke-width="1" opacity="1" d="M 110.5 142 L 114 142.5 L 110.5 143 L 110.5 142 Z " /><path fill="rgb(107,51,69)" stroke="rgb(107,51,69)" stroke-width="1" opacity="1" d="M 18.5 145 L 19 147.5 L 18 147.5 L 18.5 145 Z " /><path fill="rgb(107,51,69)" stroke="rgb(107,51,69)" stroke-width="1" opacity="1" d="M 87.5 147 L 93 147.5 L 87.5 148 L 87.5 147 Z " /><path fill="rgb(107,51,69)" stroke="rgb(107,51,69)" stroke-width="1" opacity="1" d="M 22 150 L 26 151.5 L 28 156.5 L 24 158 L 22 150 Z " /><path fill="rgb(107,51,69)" stroke="rgb(107,51,69)" stroke-width="1" opacity="1" d="M 72 152 L 78 153 L 80.5 158 L 97.5 159 L 102.5 154 L 109.5 154 L 104.5 160 Q 101.1 165.6 90.5 164 L 89.5 163 L 80.5 163 L 75 160.5 L 72 152 Z " /><path fill="rgb(107,51,69)" stroke="rgb(107,51,69)" stroke-width="1" opacity="1" d="M 83.5 153 L 86 153.5 L 83.5 154 L 83.5 153 Z " /><path fill="rgb(107,51,69)" stroke="rgb(107,51,69)" stroke-width="1" opacity="1" d="M 113.5 153 L 116 153.5 L 113.5 154 L 113.5 153 Z " /><path fill="rgb(107,51,69)" stroke="rgb(107,51,69)" stroke-width="1" opacity="1" d="M 41.5 163 L 40.5 165 L 41.5 163 Z " /><path fill="rgb(107,51,69)" stroke="rgb(107,51,69)" stroke-width="1" opacity="1" d="M 73.5 165 L 101.5 165 L 104 166.5 L 102 167 L 100 172 L 97.5 171 L 77.5 171 L 68 179.5 Q 69.8 185.6 62.5 183 Q 61.3 185.3 60 182.5 L 62 176.5 L 73.5 165 Z " /><path fill="rgb(107,51,69)" stroke="rgb(107,51,69)" stroke-width="1" opacity="1" d="M 104.5 168 L 116 181.5 L 116 184.5 L 113 186.5 Q 115.8 185.8 115 181.5 L 104.5 168 Z " /><path fill="rgb(107,51,69)" stroke="rgb(107,51,69)" stroke-width="1" opacity="1" d="M 70.5 185 L 71.5 187 L 70.5 185 Z " /><path fill="rgb(107,51,69)" stroke="rgb(107,51,69)" stroke-width="1" opacity="1" d="M 63.5 186 L 66.5 190 L 63.5 186 Z " /><path fill="rgb(107,51,69)" stroke="rgb(107,51,69)" stroke-width="1" opacity="1" d="M 112.5 188 L 102.5 199 L 100.5 200 L 101.5 198 L 112.5 188 Z " /><path fill="rgb(107,51,69)" stroke="rgb(107,51,69)" stroke-width="1" opacity="1" d="M 67.5 191 L 75.5 200 L 67.5 191 Z " /><path fill="rgb(107,51,69)" stroke="rgb(107,51,69)" stroke-width="1" opacity="1" d="M 165.5 196 L 166 198.5 L 165 198.5 L 165.5 196 Z " /><path fill="rgb(46,61,70)" stroke="rgb(46,61,70)" stroke-width="1" opacity="0.996078431372549" d="M 109.5 56 L 114 56.5 L 109.5 57 L 109.5 56 Z " /><path fill="rgb(46,61,70)" stroke="rgb(46,61,70)" stroke-width="1" opacity="0.996078431372549" d="M 172.5 92 L 173 94.5 L 172 94.5 L 172.5 92 Z " /><path fill="rgb(46,61,70)" stroke="rgb(46,61,70)" stroke-width="1" opacity="0.996078431372549" d="M 31.5 94 L 32 97.5 L 31 97.5 L 31.5 94 Z " /><path fill="rgb(46,61,70)" stroke="rgb(46,61,70)" stroke-width="1" opacity="0.996078431372549" d="M 31.5 112 L 32 114.5 L 31 114.5 L 31.5 112 Z " /><path fill="rgb(46,61,70)" stroke="rgb(46,61,70)" stroke-width="1" opacity="0.996078431372549" d="M 168.5 127 L 167.5 129 L 168.5 127 Z " /><path fill="rgb(46,61,70)" stroke="rgb(46,61,70)" stroke-width="1" opacity="0.996078431372549" d="M 145 148 Q 149.7 147.3 151 151.5 L 158 164.5 L 160 173.5 L 162 175.5 L 160.5 175 L 155.5 176 L 156 174.5 L 154 166 L 150 163.5 L 150 156.5 L 145 148 Z " /><path fill="rgb(46,61,70)" stroke="rgb(46,61,70)" stroke-width="1" opacity="0.996078431372549" d="M 59.5 149 L 59 150.5 L 61 159.5 L 59 160.5 L 57.5 157 Q 52.8 156.3 52 159.5 L 48 170.5 Q 48.6 175.9 47 178 Q 34.6 179.7 29 173.5 L 26 169.5 Q 40.4 168.9 46 159.5 L 49 152.5 L 48.5 151 L 51.5 152 L 59.5 149 Z " /><path fill="rgb(46,61,70)" stroke="rgb(46,61,70)" stroke-width="1" opacity="0.996078431372549" d="M 127.5 151 L 131 151.5 L 120 161.5 L 121.5 162 L 139.5 155 L 144 156 L 144 164.5 Q 150 168.2 150 177 L 139.5 180 Q 139 173.5 134.5 171 L 130 172 L 129.5 176 L 118 161.5 L 129 152.5 L 127.5 151 Z " /><path fill="rgb(46,61,70)" stroke="rgb(46,61,70)" stroke-width="1" opacity="0.996078431372549" d="M 100.5 173 L 109 183.5 L 91.5 200 L 100.5 190 L 108 183.5 L 100.5 173 Z " /><path fill="rgb(46,61,70)" stroke="rgb(46,61,70)" stroke-width="1" opacity="0.996078431372549" d="M 53.5 183 L 54 186.5 L 53 186.5 L 53.5 183 Z " /><path fill="rgb(46,61,70)" stroke="rgb(46,61,70)" stroke-width="1" opacity="0.996078431372549" d="M 130.5 185 L 130 186.5 L 126.5 191 L 129 187.5 L 130.5 185 Z " /><path fill="rgb(46,61,70)" stroke="rgb(46,61,70)" stroke-width="1" opacity="0.996078431372549" d="M 72.5 187 L 84.5 200 L 72.5 187 Z " /><path fill="rgb(46,61,70)" stroke="rgb(46,61,70)" stroke-width="1" opacity="0.996078431372549" d="M 53.5 191 L 57 197.5 L 56 200 L 53 200 L 53 193.5 L 53.5 191 Z " /><path fill="rgb(46,61,70)" stroke="rgb(46,61,70)" stroke-width="1" opacity="0.996078431372549" d="M 124.5 193 L 124 194.5 L 127.5 199 L 129 199.5 L 127.5 200 L 122 195.5 L 124.5 193 Z " /><path fill="rgb(5,3,3)" stroke="rgb(5,3,3)" stroke-width="1" opacity="0.996078431372549" d="M 58.5 27 L 61.5 27 L 69.5 32 L 86 46.5 L 87.5 49 L 115.5 49 Q 129.7 35.2 152.5 30 L 156 32.5 L 167 56.5 L 170 69.5 L 170 76.5 L 179 89.5 Q 177.6 98.4 180 103.5 L 179 104.5 L 179 114.5 L 176 127.5 Q 174.6 133.6 169.5 136 L 154 144 L 161 155.5 L 167 170.5 Q 172 183.8 173 200 L 166 200 L 166 193.5 L 163 177.5 L 160 172.5 L 158 163.5 L 148 147 L 138.5 150 L 125.5 151 L 118.5 153 L 90.5 154 L 89.5 153 L 72.5 152 L 60.5 148 Q 57.4 152.9 47.5 151 L 36 135.5 L 35 132 L 28.5 130 L 19 135.5 L 17 141.5 L 18 142.5 L 18 150.5 L 22 163.5 L 31.5 176 L 39.5 179 L 46.5 179 L 48 177.5 L 49 169.5 L 53 158 L 56.5 157 L 59 160.5 L 57 163.5 L 54 175.5 L 53 200 L 47 200 L 47 185 L 36.5 185 Q 28.2 183.3 24 177.5 Q 12.8 165.2 11 143.5 L 14 133.5 L 20.5 127 L 27 125 L 25 117.5 L 24 102.5 L 24 100.5 L 25 90.5 L 36 75.5 L 38 62.5 L 45 43.5 Q 49.1 34.1 56.5 28 L 58.5 27 Z M 60 33 L 55 38 L 48 51 L 43 66 L 42 78 L 31 94 Q 33 100 30 102 L 31 104 L 31 116 L 33 124 L 37 126 L 41 133 L 45 136 L 56 141 Q 63 141 68 145 L 85 148 L 115 148 Q 116 146 121 147 L 154 138 L 167 130 L 171 124 L 174 108 L 173 93 L 165 80 L 164 68 L 159 51 L 154 41 L 151 37 L 144 38 L 134 43 L 117 56 L 106 56 L 105 55 L 86 56 L 84 54 Q 74 41 60 33 Z " /><path fill="rgb(5,3,3)" stroke="rgb(5,3,3)" stroke-width="1" opacity="0.996078431372549" d="M 119.5 84 L 127.5 87 L 143 99.5 L 144 102.5 L 144 104.5 L 144 122.5 L 142.5 124 L 129 132.5 L 128 134.5 Q 130.3 135.8 127.5 137 L 121.5 141 L 116.5 142 L 93.5 143 L 90.5 142 L 81.5 142 L 67.5 139 L 59 133.5 Q 60.9 128.1 57.5 129 L 47 121.5 L 46 112.5 L 47 111.5 L 47 99.5 L 52.5 93 L 63.5 85 L 68.5 85 L 72 87.5 L 79.5 97 L 82.5 98 L 101.5 98 L 119.5 84 Z M 120 90 L 104 103 L 79 103 L 68 91 L 60 95 L 52 103 L 51 108 Q 50 116 52 120 L 64 126 Q 67 128 65 133 L 83 137 L 111 137 L 122 135 Q 124 134 123 129 L 136 122 L 139 119 Q 140 107 138 101 L 126 92 L 120 90 Z " /><path fill="rgb(5,3,3)" stroke="rgb(5,3,3)" stroke-width="1" opacity="0.996078431372549" d="M 66.5 108 L 75 110 L 75 116 L 72.5 116 L 67.5 117 L 64 116 L 62 111.5 L 66.5 108 Z " /><path fill="rgb(5,3,3)" stroke="rgb(5,3,3)" stroke-width="1" opacity="0.996078431372549" d="M 115.5 109 Q 123.3 107.3 125 111.5 Q 126.9 116.9 123.5 116 L 116.5 118 L 111 114.5 L 113.5 110 L 115.5 109 Z " /><path fill="rgb(5,3,3)" stroke="rgb(5,3,3)" stroke-width="1" opacity="0.996078431372549" d="M 91.5 121 Q 98.4 121.6 102 125.5 L 100.5 128 L 91.5 126 L 87.5 127 L 86 124.5 L 91.5 121 Z " /><path fill="rgb(5,3,3)" stroke="rgb(5,3,3)" stroke-width="1" opacity="0.996078431372549" d="M 132.5 172 Q 136.5 171.5 137 174.5 L 145 199.5 L 138 200 L 130 175.5 L 132.5 172 Z " /></svg>