<svg xmlns="http://www.w3.org/2000/svg" width="200" height="200"><path stroke="#000" d="M0 0h200v133l-12.5 4-10.5-4.5 10-9 2-3-16-8 10-9 3-5-1.5-1.5h-5l-8-3-8.5-7.5q6.1-8 7-20.5h-4.5l-13 4L136 55.5l1-13-20-9v-13l-1-5.5q-5.5-.8-8.5 2l-18 14Q58.6 37.1 37 52.5l1 16-1.5-.5q-4-3-12-2L22 68.5v10l5 26.5-19 13.5q-.7 2.3 1.5 1.5 15.9 3.6 24.5 14.5l4 12-6.5 7.5-3.5 2.5q5.5 19.5 18 32V200H.5l-.5-.5z" opacity="0"/><path fill="#347ad6" stroke="#347ad6" d="M84.5 38q2.8 1.3.5 2.5L82 50q-2.7-1.1-2 1.5L63.5 67l-.5-3.5 2-6L80.5 39zm6 32q4.2-1.1 2.5 3h-3q1.3 3-2.5 2l-1.5.5zm-33 8-1 2zm88 5 1 2zm-7 3-1 2zm9.5 0 2 .5-7.5 7.5-4.5-4.5 4.5-1.5 3 1 2.5-1zM43.5 91l.5 3.5h-1zm16 4-1 2zm-23 1 6.5 9.5 1 5-3 2-1-7zm98 2 .5 2.5q-2 3.5-4-1zm-80 1h2l2.5 1.5-2 2v9l4 5-1.5-.5-1.5.5 1.5 2.5-4.5-2q-3.1-4.6-2-14.5zm122 4-1 2zm-148 6q2.3-.7 1.5 1.5l6 9-2.5 3.5-13.5-6.5 6.5-.5 4 1-.5-1.5-2.5-3.5-2.5-.5zm15 21q5.6 7.7 14.5 11l1 5.5-1 2.5q-4.7.8-6-3.5l-8-12zm111 1 2 3zm-2 4 1 2zm-47 8 3.5 1.5L94.5 155l-1.5-2.5zm-45 7 1.5 2.5-2-1zm80.5 0q3.4 2.1 11 1-.7 3.8 2.5 5l7.5 5q1.5 3.8-1.5 3l-6 4-12.5-14.5zm19.5 0q6.2-.7 7.5 3.5 1.3 3.8-2.5 2.5l-6.5-4.5zm-67 6-1 2zm-25 2 5.5 7.5-1.5 2.5q-4.7-3.3-4-10Zm30 5 3 1h2l2 1 1.5-.5 3 8-2.5-1.5-2.5.5 1.5 2.5-8.5-8.5zm4.5 5 2 3v-1zm-46.5-4q2.8 1.3.5 2.5v3l5 11q-3.1 1.8-1.5 3.5l-3.5-2 1-2.5-2-2-1-10q3.1-1.7 1.5-3.5Zm61 3 3.5 2.5-.5 1.5-2.5-1zm-56 1 1 2zm76 2 6.5 2.5.5 1.5 1.5-.5-1 2 2 4.5-4.5 2-5.5-10.5zm31 1q2.6-.8 1.5 2.5l-1 5.5 9 5.5-4.5 2.5-13 1-5.5-1.5 2-1-1-2.5 10.5 1-1.5-2.5-2-3 3.5-6.5zm-68 4 3.5 5-4.5-1-2 3-1.5-2.5zm4.5 7 8 6.5 1.5 2.5 1.5-.5-1 1 2.5 3.5q-3.4-4.3-10.5-4l4 9h-3.5l-9.5-9.5 3-1.5v-2q2.7 1.1 2-1.5zm-41.5 2q2.8 9.3 8.5 15.5l-5 .5-4-13.5zm-10 9 3.5 6.5-3 .5zm33.5 0 2.5 1 2-1 3 4q1.8-2.7 3.5 1.5l-.5 1.5H84l.5-2 2 1 2.5-3.5-2-.5zm29.5 3-2 3z" opacity=".996"/><path fill="#000710" stroke="#000710" d="m111.5 15 1.5.5-5.5 2.5-14 11 3-4zm5 5 .5 12.5h-1zm-25 9-2 3-2.5-.5zm-8 3 2.5.5-2.5.5zm-7 2 2.5.5-2.5.5zm41 0 2.5 1.5-1.5.5zm13 5 2.5 1.5-1.5-.5zm-73 2-1 2-1.5-.5zm77 0 2.5 1.5-.5 5.5-.5-6zm-91 7-1 2-2 1 1-2zm-5 3-1 2zm97 1q-.2 4.3 2.5 5.5l-1.5-.5q-2.9.4-1-5Zm-98 2 .5 6.5h-1zm102 4 2 3zm4 3 7 8zm-105 2 .5 6.5h-1zm-14 3L23 68.5 22.5 79 22 68.5zm5 0 2.5.5-2.5.5zm140 0 .5 4.5-1.5 3.5-.5-2.5zm-136 1 3.5 1.5-1.5.5zm122 2 2.5.5-2.5.5zm11 9 .5 1.5-1.5 2.5-.5-1.5zm-143 3 .5 5.5h-1zm141 2-.5 1.5-.5 1.5-.5-1.5zm-1 4 2 3zm-139 1 .5 3.5h-1zm145 4 1 2zm-144 2 .5 2.5h-1zm156 3 3.5.5-3.5.5zm-155 1 .5 2.5h-1zm159 1-1 2zm-158 3 .5 2.5-4.5 3.5 2-3q2.9.7 2-3Zm155 1-4 5zm-161 5-1 2zm-3 2-2 3zm-4 3-2 3zm-4 3L9 118.5l-.5 1.5-.5-1.5zm176 7-2 3zm-161 3 1 2zm3 2 5 6zm7 10 2.5 6.5h-1zm3 8-1.5 2.5-5.5 6.5q-2.2-.7-1.5 1.5l-1.5 2.5-.5-2.5 8-7zm-9 14 1.5 3.5h-1zm6 13 5.5 7.5-3-2zm6 9 4.5 5.5h-1zm5 8 .5 9.5h-1z" opacity=".941"/><path fill="#eaf7fa" stroke="#eaf7fa" d="m109.5 23 .5 2.5h-1zm-3 4-1 2zm3 1 .5 6.5h-1zm-13 6-1 2zm12 2 .5 3.5h-1zm-15 1q2.8 1.3.5 2.5L87.5 48l.5-1.5 2-4-.5-1.5q1.3 2.3 2.5-.5-.7-2.2 1.5-1.5zm-17 5-1 2zm-5 6-1 2zm10 2-1 2zm34 4 .5 3-2-.5zm-11 1 2.5.5-.5 2.5zm-49 1q6.5-1 8.5 2.5l-3.5.5-4-1zm49 2-1 2zm-55 1 3 2q2.3-4.2 4.5.5L52.5 63zm74 4-1 2zm14 1h2l4.5 4.5-1.5.5zm-106 9q9.8 2.3 16.5 7.5L42.5 88 40 85.5q.4-6.4-3.5-8.5-4.6-1.2-5-4Zm128 0 1.5.5-3.5 2.5-.5-2zm-38 1 3 4zm33 1q3 1.5 0 3zm-94 1 .5 2.5 3 6-1.5-.5q-2.2.8-1.5-1.5l-2-5zm91 0 1.5.5q-3.7 3.3-10.5 3.5v-1zm-123 1 1.5 2.5-2 .5zm55 2 1 2zm38 0 1 2zm-27 3 3.5 2.5-2.5 1.5q-1.5-2.5-3 1L90 85.5l4-2zm20 5 1 2zm45 4 12.5 7.5-2.5 1.5q-7.6-1.5-11.5-6.5zm-14 1 1.5 1.5-3.5 3.5-8 6-.5-1.5 4-2.5 2.5-4zm-114 3h2l2.5 1.5v4l3 5-4 .5zm143 5 4.5.5-4.5.5zm-103 10 .5 2.5h-1zM39 118l3 .5q-2.8 1.7-2 7l7 13-1.5 2.5-.5-2-4-1-4-11.5v-4zm11.5 0 5 1 1.5-.5q.6 2.8-5.5 1.5zm69 0 1 2zm49.5 1 5.5 1 1.5-.5-1 2 .5 1.5-5 1q-4.3-1.8-1.5-3.5zm-107.5 1-.5 1.5-.5 2.5-.5-2.5zm80 1 2 3-3 2-.5-2.5zm-21 2-3 4zm3.5 0 2 .5-.5 2.5zm-71.5 2 1 2zm82 11 3.5 2-.5 2-5.5-1.5 2-.5zm14 2 1 2zm27 1 1.5.5-2.5 1.5zm-129 4 4.5 5.5-5-4zm93 1q2.3-.7 1.5 1.5zm3 0 1 2zm-91 1 1 2zm131 0 2.5 1.5-3.5 1.5.5-1.5z" opacity=".996"/><path fill="#eaf7fa" stroke="#eaf7fa" d="M45.5 146q4.4 1.6 3.5 8.5l-1 2.5q-3 1.3-2-2.5l-3-4zm74 1-1 2zm-12.5 1q3-1 2 2-3 1-2-2Zm92.5 0-.5 1.5-2.5 4.5-2 1 2.5-3.5zm-145 1 2 3zm122 0-1 2zm-42 5 2.5 1.5q1.3 3.8-2.5 2.5l-1.5-2.5zm-28 1-.5 1.5q.8 2.3-1.5 1.5zm8 1 1.5 4.5-1.5.5-2.5-1zm-53 1 2.5 1.5-1.5.5zm32 1 .5 2-2.5 1zm32.5 3 5 1v2h-5zm11.5 0 2 3zm26 9q2.3-.7 1.5 1.5l-1.5 2.5-1.5-.5-1.5 2.5.5-1.5-1-2zm-95 1 3 1 1.5-.5-1.5 3.5-1.5-3zm57.5 3 5 1.5-1 2.5-4-2.5zm27 2q3.8-1 5 1.5.8 3.8-1.5 4.5-1.5-3.5-3-1l-3.5-1.5 1.5-2.5 1.5.5zm-39.5 2q4.6-.6 6 2l2.5-1 1 2.5-1 2.5q2.7-1.1 2 1.5l-1.5-.5q-7.1-2.3-9-7ZM72 181l2 .5-1 2 1.5 2.5-3-2-2 1 1-2q2.6.7 1.5-2Zm113.5 0-2 3zm-8 1 1 2q-2.8.7-1-2Zm-85 1 3 4q-2.2.8-1.5-1.5zm-14 4-1 2zm58.5 3 2.5 1 1.5-.5-2.5 3.5-3.5-1.5 2-.5zm14.5 3h3l4.5 3.5-2.5 1.5-3.5-1q1.3 3-2.5 2l-2.5-1.5 4-1.5zm40 2 1 1h6.5q1.1 2.7-1.5 2l-2 2h-9l-2.5-1.5z" opacity=".996"/><path fill="#50558f" stroke="#50558f" d="m107.5 23-2 3zm3 2 .5 5.5h-1zm-13 7-5 6zm-8 8-1 2zm-3 9 1.5 1.5v4l5 15-5 3-1 2q2.3 1.3-.5 2.5l-7 5 2.5-3.5 8-11-2-5L86.5 50l-6 14-2-1-2.5 1.5 5 .5-2 8.5v6L77.5 82 73 71.5l-1-6zm27 2 .5 2.5h-1zm17 0 .5 2.5h-1zm-22 5 .5 3.5h-1zm-34 1 .5 1.5-2 1zm-6 5-1 2zm53 3 3 4zm-60 3-2 3zm84 0 3.5 3.5-1.5 1.5.5-1.5zm-79 1-5 6zm50 0 1 2zm12 4 1 2zm-101 1 .5 3.5h-1zm21 5q3 1.5 0 3zm-2 5-1 2zm5 0-2 3zm54 0 1 2zm51 0-3 4zm-113 4 .5 2.5h-1zm116 2-8 9zm-105 1-2 3zm64 2 1 2zm-62 4-1 2zm87 0-1 2zm-99 1 .5 9.5h-1zm73 2 1 2zm9 1 1 2zm20 1-1 2zm-102 7 .5 3.5h-1zm86 0 2.5.5-2.5.5zm-81 2 .5 2.5h-1zm116 0v3q-3-1.5 0-3Zm-142 1-1 2zm135 5 1 2zm8 0 1 2zm-40 2-1 2zm55 1 2.5 1.5-1.5-.5zm-1 3-1 2zm-60 7-2 3zm27 6 2 3zm-55 5 2.5.5-2.5.5zM58 142l4 1.5-3.5 1.5zm100.5 0 5 6zm15 2-1 2zm-113 1 3.5 5.5v4l-2-1-3-6zm78 1 11.5.5-11.5.5zm-50 3 1.5.5-6.5 5.5-3.5-4.5 3-.5.5 2zm55 1 2.5.5-2.5.5zm-103 2-2 3zm50 2-3 4zm-12 1q5 2.5 0 5l.5-1.5zm92 0 .5 8.5q-2 3.5-4-1l3 1zm-110 2 2 3zm9 2-.5 1.5-.5 1.5-.5-1.5zm127 0 .5 2.5h-1zm-48 2 3 4zm-92 4 3.5 2.5-1.5-.5-2-1-1.5.5zm14 1 3 4zm9 0 .5 1.5-2 1zm59 0 2.5.5-2.5.5zm-74 2-1.5 2.5 2 2q-.7 2.3 1.5 1.5l2.5 2.5-5.5 5.5-1.5-.5 2-6-2-5zm107 1-1 2zm-104 1 1.5 2.5-2-1zm71 0 3.5.5-3.5.5zm-61 1 1 2zm-2 1 1 2zm72 1 1 2zm-40 1 1 2zm43 0 3.5 1.5-2.5.5zm-103 3 2.5.5-.5 2.5zm44 0 2.5.5-2.5.5zm-21 2 4.5.5-5 1 1 2h-1l-1-2zm23 1 .5 1.5-2 1zm24 2 1 2zm-39 2-1 2zm42 0 1 2zm-42 4q2.6-.8 1.5 2.5h-1zm8 0-1 2zm-3 1 .5 2.5h-1zm13.5 0 2 .5-1 1 8.5 9.5h-8l-.5-1.5-.5-1.5 3.5 1 1-2.5zm-44.5 1 12.5 8.5-.5 1.5h-7l-3.5-7q-3.5 1.1-1.5-3Zm123 0 2.5.5-2.5.5zm-95 2 1 2zm7 0 3.5.5q-1.2 2.8-2.5.5-2.6-.7-1.5 2l2 .5-2.5 3.5-2-1-1 2-.5-1.5 3-2v-2zm90 1 .5 2.5h-1zm-59 2 3 4-3-3-2.5 1.5zm-47 3 1 2zm127 0-1 2z" opacity=".996"/><path fill="#b6e8f6" stroke="#b6e8f6" d="m108.5 25-1 2zm8 16 4.5 1.5-6.5 11.5-.5-2.5v-2l1-7zm-43 5-1 2zm56 1 1.5.5-6.5 5.5zm-24 4 .5 1.5-2 1zm-60 3 2 5 1.5-.5-3 1.5-.5 2-1.5-6.5zm54 4-1 2zm5 1 1.5 1.5v8l-2 1 1-3q-2.8-1.8-.5-7.5Zm23 2 2 3zm-81 4q2.3-.7 1.5 1.5 2.6 1.4 2 6h-1zm78 2 1 2zm-65 1 1.5.5-2.5 1.5zm85 2 1 2zm-30 5 9.5 7.5-5.5 7.5 1.5-2.5q2.6-1.4 2-6l-5.5-4.5H114zm-51 3 .5 2.5h-1zm48 0 .5 3.5h-1zm-51 5 .5 3.5h-1zm93.5 1 2 .5-4 3zM33 85l3 .5-3.5 2.5.5-1.5zm7.5 1 1 2zm26 1 6 7-3.5-2zm-16 2-2 3zm25 0 .5 2.5h-1zm7 1v3q-3-1.5 0-3Zm67 1-1 2zm-72 1 1 2zm67 0-1 2zm-4 1q3.5 2-1 4zm16 1 6 4h2.5l-1.5 3-3-1-6.5-2zm-113 2 .5 9.5h-1l-3-6zm94 2-1 2zM126 99h2q-1.1 2.7 1.5 2l1.5-.5-1 2 2.5.5 2.5-1.5-4.5 3.5zm25.5 1 2.5 5.5-1.5-.5-4.5-2q-1.2-3 2.5-2zm-100 3 .5 4.5-2-1zm69 4 .5 2.5h-1zm-82 4 2.5 1.5-.5 2.5zm-15 2q5.5-1 6.5 2.5l-4.5.5-3.5-1.5zm89 0-1 2zm52 0 1.5 3.5-1.5-.5-3.5-1.5 1.5-.5 1.5.5zm-45 1-1 2zm-65 2 1 2zm113 1h2l1.5.5-2.5 1.5zm-119 2q3-.9 1.5 3.5l3 5.5-4-1.5-2-4zm35 0 2.5.5-2.5.5zm10 0 8.5.5-8.5.5zm49 0 9.5 1.5-4.5 2.5-3-2-2 1v-1l1.5-.5zm-81 4L72 135.5l-3.5-2.5-5.5 1-.5-2-1.5.5 1-2-4-3zm98 0q2.3-.7 1.5 1.5l-3 1.5zm-105 4 1 2zm65 3-1 2zm37 2 2 3zm-99 1 1 2zm107 0 1 2zm-26 6q2.3-.7 1.5 1.5zm-50 1 3.5.5-3.5.5zm34 0 3.5.5-2 1v2q1.1 3.3-1.5 2.5l-5.5 1.5.5 1.5q-2.7-1.2-.5-2.5l3-4-.5-1.5q1.5 2.5 3-1Zm20 0 1 3 1-2 4 2 4.5 2.5-8.5.5-3.5-3.5 1-1zm-13 1-1 2zm25 3 1 2q-2.8.7-1-2Zm-106 3 2.5 6.5-1 2.5-2-.5 2-3zm147 0-2 3zm-68 1 1.5 2.5-2-1zm-84 4 2 3-2-2-4.5 4.5 2 4-.5 2.5-3.5-2.5v-2l-1-2q1.3-2.7 2.5-.5zm82 1 1 2zm51 0 2.5 1 2 3.5v3l3 4v3.5l2 .5-.5 1.5 1.5.5-1 3 .5 1.5q-1.7-3.1-3.5-1.5l.5-1.5-3-2-1.5.5 1-2.5q-2.7 1.1-2-1.5-3.5-4.9-1.5-13.5Zm-80 1-.5 1.5 1 3-2-1zm35 1 .5 5.5h-1zm-16 1 .5 2.5h-1zm51 0q5.3-1.5 3.5 3zm-32 2 1 2zm26 1 2.5.5-2.5.5zm-37 1-.5 1.5q.7 2.6-2 1.5-1.1-2.7 1.5-2zm8 2 7.5 3.5-2.5.5-5.5-2.5zM45 164q2.7-1.1 2 1.5l1 2-3 1.5zm-2.5 2 2.5 7 3 1.5 1 3-3-2-5-7zm87 4 7.5 1 1 2.5-3.5.5-2.5-1q1.3-3-2.5-2zm70 1-1 2zm-40 1v2l1.5.5-2 4.5 2 .5-1.5.5-3.5-6zm-40 2 1.5 3.5q-1.7 3.3-3.5-.5l-3 1 1-2 2-1 1.5.5zm19 2 1 2zm13 0 1.5.5-2.5 1.5zm-24 5 3.5 1.5-.5 3.5-4.5-3.5zm51 0 1 2q-2.8.7-1-2Zm-46 1 1 2zm-38 2 1 2zm105 5 .5 6-5.5 1-2.5-1.5zm-17 1 2.5 1.5-1.5-.5zm-30 1 1 2z" opacity=".996"/><path fill="#000918" stroke="#000918" d="m113.5 15 2.5.5v17l2.5 3.5 6 1 11.5 5-1 15 3.5 1 7.5 6.5.5 2.5q1.8-2.7 3.5 1.5-1.1 3.3 1.5 2.5v-2l1 3 2.5-.5-.5-1.5 3 1 .5-2 11-3q-.1 11.1-5.5 18l-1.5.5 1 3h-1l-1-3v-6l4-7-2.5-.5-13 5-4.5-1.5 4-1.5-5.5-7-13.5-8.5 1-1q-.7-8 1-12.5-7.6-3.5-18-4l-1 14-3-1.5 1-31.5q-12.7 7.8-22.5 20v-2q-2.2.8-1.5-1.5l-1.5.5h-4l-9 3 3.5-4.5-.5-1.5 5-1 1.5.5q-.9-3 3.5-1.5l4-1 18-14zm-44 22-1 2-2.5-.5zm-8 3 1 2zm8 0 1.5.5-4.5 2.5 1-2zm-11 1v4l1.5.5L43 54l5 18.5-1 5.5-20-7q-.2 20.5 7 34.5-3.7 1.7-.5 3.5l1.5.5-1 5 .5 1.5-4.5-8-12 8.5q-.9 3.4 4.5 1.5l12.5 6 .5-2 .5 1.5v2l4 15v2l1 3-1 2 3 1-8 10q5.4 13.6 15.5 22.5l.5-1.5-2-4-1-7 7-13.5 7 4.5h-2l1 3-2.5-1.5q-2.2-.7-1.5 1.5l-5 10 1 5.5 2.5-1 6.5 18-9.5-6-.5 7.5 1 3.5h-6v-9.5l-1-4-11-14-6-15 1-2.5 7-5.5 2-3-5-13-5.5-5.5-13-7-6.5-1 2.5-4L28 104.5l-5-24v-12q.8-3.2 5.5-2.5l10 4 .5-6.5-2-10 7.5-5.5zm4 2 1.5.5-2.5 1.5z" opacity=".984"/><path fill="#000918" stroke="#000918" d="m109.5 54 .5 5.5h-1zm-73 62 .5 2-2-.5zm9 5 7 11 9 6 11 4 8 1 1.5 1.5.5 1.5 5-3 1.5 3 4 2.5-1.5-.5-13.5 1.5 1.5 2.5-1.5-.5-.5 1.5q-4.2-1.8-1.5-3.5.8-2.6-2.5-1.5-1.2-3.7-5.5-3l7 16.5-1.5-.5-3.5-1.5-2.5-4.5-2 4-.5-16q-13.6-3.1-21-13.5l2-1-3-1 3-2-2.5-3.5zm-4 3 1 2zm75 10 3 1 1.5-.5-3.5 2.5z" opacity=".984"/><path fill="#000918" stroke="#000918" d="m90.5 150 1 2 2.5-1.5q-1.8 4.2-3.5 1.5l-3.5 2.5 2 1-4 3v-3zm-8 5 1.5 2.5h-1zm-1 3-1 2zm25 5 3.5.5-3.5.5zm1 12 2 3zm6 5 2.5 4q-5.1 1.6-2.5-4Zm4 3 17.5 10 1 3.5-1 2.5-3.5 1-16.5-10.5 2-.5q-1.5-3.7 1.5-3z" opacity=".984"/><path fill="#dae3ee" stroke="#dae3ee" d="m109.5 22-1 2zm-8 7-4 5zm8 6 .5 5.5h-1zm-17 3-2 3zm-16 2 1 2zm12 2-1 2zm-2 6q2.3-.7 1.5 1.5L87 54q-2.7-1.1-2 1.5h-1l2-5-4 2zm-5 6-5 6zm2 3 .5 1.5-1.5 2.5-.5-1.5zm4 1 1.5 7.5-3-2Q85 59 87.5 58Zm-12 3-3 4-1-2 1 1zm6 1 .5 1.5-.5 1.5q2.3-.7 1.5 1.5l1.5-.5 5.5 1-10 13.5q2.3 1.2-.5 2.5l-2.5-.5 2-3v-6l2-8.5-5-.5 3.5-1.5 1.5.5zm62 5 1 2zm-24 5 1 2zm6 6 3 4zm-78 1 1 2zm3 7-1 2zm92 11-1 2zm2 36 1 2zm-6 3 3.5.5-3.5.5zm12 4 3 4zm-111 14-1 2zm24 5q2.3-.7 1.5 1.5zm21 12-1 2zm-10 5 1 2zm15 10-1 2zm108 12-1 2z" opacity=".996"/><path fill="#cef6fc" stroke="#cef6fc" d="m105.5 53 .5 2.5-2-1zm10 0-.5 1.5-.5 1.5-.5-1.5zm-67 3 4.5.5-4.5.5zm68 0 3.5.5-3.5.5zm-11 1 1.5 1.5v10h-1zM46 60q3.3-1.3 2 3.5l1 3h-1q.7-2.6-2-1.5zm51.5 0-1 2zm-44 2h4l4.5 4.5q.8 2.6-2.5 1.5l-2 1-5.5-5.5zm90 7 3.5 1.5-.5 1.5zm-80 4 .5 4.5-1.5 4.5-2.5-4.5zm50 1 1 3 3 1 1.5-.5-.5 1.5 3.5 2.5 1 4-3 1 1 2-1 2.5-8-5.5q1.8-6.2-1-8zm-15 1 .5 2.5h-1zm-45 8-.5 1.5-4.5 6.5-.5-1.5zm7.5 1 5 2.5 3 4-1.5-.5-6.5-3zm92.5 0 .5 1.5-6.5 7.5q-2.2.8-1.5-1.5zm-64 1 2 3-15 8 1-2 5.5-3.5 3.5-4.5zm5 0-1 2zm-60 6 .5 2.5h-1zm123 2 2 3zm4 3 1 2zm-8 1-.5 1.5q.8 2.3-1.5 1.5l-1.5.5zm-19 5-1 2zm-14 2 2.5 2.5 2 11-1 4v2l-3 6.5-18.5 9q-8.7 2.8-22 1-9.1-2.5-13.5-9.5l-6-9q1.2-2.7 2.5-.5l29-2 1 1h14l1.5-.5q-2.7.8-2 5l3.5 4.5 2-1h2l4.5-1q-.7-3.1 2-2.5v-5l-5-2 4-3 1-7zm-84 2q3.3-1.1 2.5 1.5l1 4-3-2zm14 1q3 2 2.5 7.5l3 4-2.5.5-3-1-1.5.5zm-10 6h2l1.5.5v2l-2.5 2.5q-2.2.8-1.5-1.5l1-2zm92 0 2.5.5-2.5.5zm33 1 3.5 2.5q-.9 3 3.5 1.5v1q-4.4-1.5-3.5 1.5l-.5 2.5q-4.5-2-1-4l1.5-.5-3-1.5zm-23 4-1 2zm32 1 7.5 2.5-5.5 1.5zm-31 1 3.5 2.5-2.5 1.5-1.5-1.5zm-83 4-1 2zm101 0 2.5 1.5-5.5 1.5v-1zm-103 4 3.5 2.5 1 2-1.5-.5-4.5-2.5zm97 2 7 2 6.5 5.5-1.5.5-7-2zm-23.5 6q3-1 2 2-3 1-2-2Zm-89.5 2 2.5 1 3 8.5-4-3zm132 1 2 1 2-1-2 3-4 3h-4l1-2zm-54 2-3.5 4.5-1.5 2.5-2-1-2.5 1.5 2 3.5h-7.5l-9 4 6-7zm-13.5 7q-1 3 2 2 1-3-2-2Zm23.5-7-1 2zm8 3 1 2zm-9 3q3.3-1.1 2.5 1.5l3 5q-1.7 4.3-3.5 1.5l-2.5-1.5.5-1.5-2.5-1.5zm-87 4 .5 1.5-7 6zm154 0-1 2zm-139 1 2 3zm37 5q3 1.5 0 3zm68 0q4.5-1 5.5 1.5l-4.5 1.5-2.5-1.5zm-71 2-2 3-2 1 1-2zm24 0 1 2zm-75 3v2q3-.9 1.5 3.5l-2-1-1-3zm83 0 2.5.5-2.5.5zm53 0 .5 2.5h-1zm17 1 3.5 1q-.6 4.6 3 6.5l-1.5.5zm-1 4 3 4zm-61 8 3.5 1.5-1.5.5zm27 4 2 1 2-1 2.5 4-8-1.5zm29 0-1 2zm-58 1 1 2zm25 0 1 2zm-22 7 8.5 2.5q-1.2 2.8-2.5.5-2.6-.7-1.5 2h-3zm48 2 2.5.5-2.5.5zm-40 3 .5 2-2-.5zm43 6 .5 2-2-.5z" opacity=".996"/><path fill="#fbfafc" stroke="#fbfafc" d="m108.5 24-3.5 4.5-13 21v3l2 9 1.5 1.5 7.5-6 .5-2 1.5 2.5-10 11v3q1.3 2.8 2.5.5l16-4 16 15h3q4.1-3.9 13-3l11-5v1q-16.8 10.7-37 18l-17-12-6 2q-3.2-1.9-1.5-8-8.6 1.2-14.5 7l2-3L94 73l-6.5-26L71 65.5v2L77 83l2 .5L76.5 94 75 82.5l-6-15Q78.2 51.7 91.5 40L90 42.5l.5 1.5 3.5-4.5-1-1L106.5 25zM103 72l-4 1-1 3v6h3l4-6q2-5-2-4Zm9 2v3l-4 6 12 8 5-8q-5-7-13-9Z" opacity=".996"/><path fill="#fbfafc" stroke="#fbfafc" d="m108.5 40 .5 9.5-1 1-.5 11.5-1.5-11.5q2.8-1.7 1-8zm-34 1 2.5.5L63.5 58q-2-3-8-2L53 57.5l1 2q-1.7 3.3-3.5-.5-2.6.7-1.5-2l4-.5-2-5.5zm48 1 7.5 2v2.5l-8.5 8.5-5.5 1v-2.5zM85 54q3.7-1.4 2 4.5l-1 5 2.5 3.5-7.5-2.5zm29 3q17.3-1.5 25 7.5h-2v3l3 6-4 .5q-1.6-8.1-8.5-13H125q1.1 2.7-1.5 2-2 4-4 0l-5.5-2zM32.5 75l6.5 4.5 1 5-3-2zm-3 5L35 94.5 32.5 96q-4.2-6.1-3-16Zm125 18q3.2 3.8 11 3l8.5-2q-1.1 2.7 1.5 2v1l-19 5-3.5-4.5v-3zm-48 2 6.5 2.5 1 8-4.5 5.5-7 1-4.5-2q-1.6-2.1-1-7.5l4.5-5.5zM59 101q7.5-1.3 10 3.5 3.4 2.6 2 10-1.2 3.8-7.5 2.5l-4.5-3.5-1-10zm78.5 12h7l13.5 5.5-4.5.5q-2.9-2.6-9-2l-4 2-7.5-4.5zm-24 5q6.3-1.2 7.5 2.5v2l-5.5 5.5q-5.8.8-7.5-2.5l-1-3 1-2.5zm-63 1q1.3 2.3 6 1l2-1 2.5 1.5-3 7.5h-2.5l-4.5-4.5zm84 2q7-1.5 6.5 1.5l-1 3.5-8.5 2-6.5-3.5 1.5-.5 8.5 3-2-4.5zm8 11 10.5 11.5-1.5.5-16.5-7.5 1.5-.5 5.5 1 1-2.5zm57 6 .5 4.5-1 2.5-8 6.5-4 9 9.5 11.5 3.5 2.5q1.3 6.1-1.5 5.5l-13.5 7.5 4 2.5 1 2.5-1.5-.5-6-3h-3l-3 1-2.5-1q1.1 2.7-1.5 2l-8 3-11-4-1.5 3q-13.9-4.6-24-14.5l2-.5q-1.1-2.7 1.5-2l8.5 2 2.5 5 13 5h17l6.5-2q-1.1-2.7 1.5-2l2 1 5.5-6.5-1.5.5-9.5 2-.5 2-6.5-4 1-9 5-2.5.5-2.5 4 8 10 4-.5-1.5q-6.2-7.8-9-19l-5-6 5.5-4.5v2l3.5-1.5-2-1q6.5-5.5 16.5-7.5Zm-153 1L59 154.5l-1.5-.5-10.5-9.5zm81 0q8.2-1.1 11.5 1-1.1 2.7 1.5 2l2.5 3.5-2 .5q1.3-3.3-3.5-2l-10-4zm1 4 5.5 2q1.4 4-5.5 2l-2.5 1.5 5 7v6.5q-8.5-.6-13.5-6h-3l-3 4-5.5-2 1.5-3q4.4-3.1 13-2l6 2-3-4-4.5-2.5z" opacity=".996"/><path fill="#fbfafc" stroke="#fbfafc" d="M195.5 154q2.3-.7 1.5 1.5l-1 1v6.5l-4-1.5q-.1-5.6 3.5-7.5Zm-58 3 6.5 8.5-2.5.5-6.5-7.5zm-56 6 1.5 6 3 .5-4 5 2.5 1.5 4.5-3.5q-.7-2.2 1.5-1.5l2 1 3-1v1q-2.2-.7-1.5 1.5-3.1 1.8-1.5 3.5l-4-1-3.5 2q-1.1 2.7 1.5 2l3 2 2.5-1 2 5.5-1.5-.5-3.5-1-.5 2-4-5q-3-.9-1.5 3.5l2.5 3.5-2.5-1-1.5 5-3-6-1.5.5q3.6-1.9 3-6.5l-5 1-.5 3-1.5-2.5.5-1.5-2.5-.5 7-1q-1.3-4.2-6-3.5l1.5-5 .5 2 6 3q.6-4.6-3-6.5l3-.5zm-11 8-1 2zm92 2q2.8 1.2.5 2.5 1.5 5.3-3 3.5zm-12 5-1 2zm-31 1 1.5 2.5h-1zm34 18 2.5.5-2.5.5z" opacity=".996"/><path fill="#082153" stroke="#082153" d="m109.5 21-1 2zm-10 9-1 2zm-8 8-1 2zm-4 4-5 6 .5-1.5q-.7-2.2 1.5-1.5v-2q1.5 2.5 3-1Zm44 2 .5 2.5h-1zm-22 4 .5 2.5h-1zm-36 10-.5 1.5-5.5 8.5.5-1.5v-2zm35 2 .5 3.5h-1zm-42 4-2 3zm77 2 1 2zM119 68h4v1.5l.5 1.5q-3.7.8-4.5-1.5zm-60.5 3-5 6zm68 0 1.5 3.5-5-2zm-6 1 1 2zm19 2q2.6-.7 1.5 2l-3-.5zm-16 1 7.5 6.5-1.5.5zm7 1 2.5.5-2.5.5zm-74 2-5 6zm-8 4-1 2zm54 1q13.5 7 23.5 17.5l3.5 4.5h2.5q-1.1 2.7 1.5 2 3 1.5 0 3l-2-3-2.5 1.5 1 5-1 2.5q-4.1-1.7-3 2.5h-1l.5-5.5.5 2q3 1.3 2-2.5l-1-2.5-3-.5v-2q1.1-3.3-1.5-2.5l-2.5-5h-3.5l-15-9q-13.2 4.3-23 12l-4.5-1v-2q-3.7 1.5-3-1.5h-2L67.5 96l-1.5.5 1-2.5-4-1.5 3.5-2.5.5 2q3.7-1.5 3 1.5 1.8-1.6 3.5 1.5l3 2 2.5-.5q-.7-2.2 1.5-1.5 1.8-3.1 3.5-1.5-.7-2.2 1.5-1.5l5.5-2 .5-2 1 1 3-3zM69 94q-2 3 1 2zm-22.5-9-2 3zm12 3L57 90.5q.8 2.3-1.5 1.5zm-11 1 1 8 3.5-2.5-3.5 3.5-1.5-1.5zm104 1-5 6zm-107 5 .5 2.5h-1zm14 0-1 2zm-6 5-2 3zm96 0-1 2zm-11 2-1 2zm6 2-1 2zm-94 1 .5 5.5h-1zm-29 9-1 2zm26 6 .5 2.5h-1zm136 2-1 2zm-47 6 1 2q-2.8.7-1-2Zm13 0-1 2zm-105 1 6 7zm126 2 1 2zm-114 2 1 2zm68 0 1.5.5-2.5 1.5zm27 0 1 2zm-3 2 5.5 4.5 4 6-7-6zm7 3 1 2zm-92 5 2.5 1.5-.5 11.5-.5-5.5-3.5-5.5-1 2-.5-3zm6 2L82 157.5l-5.5 5.5-1.5-1.5zM79 155l1 4q3-2-1-4Zm92.5-9-2 3zm7 0-1 2zm-44 1-1 2zm-46 1 3.5.5-8.5 7.5-1-2 2 1 5-6-6 3-.5-2-3 .5 1.5 2.5-2.5-4h8.5zm76 0 1 2zm10 1 .5 3.5h-1zm-80 1-3 4zm-57 5-1 2zm49 3-1 2zm60 1 1 2zm-4 3 4.5 6-2-.5 1-1zm-70 1 3.5 3.5v2l3 6-5-4-1-3 1-2zm11 1q4.5 2 1 4zm91 0 .5 2.5-3 2q-.7-2.6 2-1.5zm23 0 1 2z" opacity=".996"/><path fill="#082153" stroke="#082153" d="m93.5 165 3.5 2.5 6 9-2.5-1.5-4.5 4.5 5 8-4 1.5 6 7.5h-2q.8 2.6-2.5 1.5l-8-6h-3l-4.5 8h-9.5l-3.5-3.5-7-14 6-6-2.5-2.5q-2.2.8-1.5-1.5-4-2 0-4-1.4-4.6 4.5-2.5 3 .5 2.5 4.5l-1.5-.5q-4.4-1.5-3.5 1.5 3.7 1.3 3 5.5 4.6-1.2 6 1.5-5.4-.9-7 2l1 2q-3.7 1.8-.5 3.5l3.5-1 .5 3 4-6q2.3-.7 1.5 1.5l-3 5.5q3.7-1.5 3 1.5l2.5 3.5 3-5q1.3 2.3 2.5-.5l-3-4 1.5-.5 4 5 1-3q2 2.8 6.5 2l-4-5.5 1-2.5-4.5 1-2.5-1q-1.1-2.7 1.5-2l2-1 3.5 1-1-2.5 4-4-1.5-1.5-4 1-.5-2q-2.7-1.1-2 1.5l-2.5 3.5-2 1-.5-1.5 4-5-.5-1.5z" opacity=".996"/><path fill="#082153" stroke="#082153" d="m57 167 5 2.5 2 7-1.5 4.5zm-2.5 1 .5 3.5h-1zm88 2 2 2 6 1 9-2-1 2-5 2-3-1-1 1-4-2zm-33 6 1 2zm-4 4 8 9zm-50 11 1 2zm-3 2 .5 2.5h-1zm6 0 1 2zm60 3 4.5 3.5-8.5.5 1-2zm81 2-1 2z" opacity=".996"/><path fill="#7ec5e9" stroke="#7ec5e9" d="m110.5 22 .5 2.5h-1zm-6 4-1 2zm3 10 .5 2.5h-1zm-9 5-1 2zm8 3 .5 1.5-4 3zm8 0 .5 2.5h-1zm-29 1-2 3zm45 3 .5 2.5h-1zM93 49q3.8-1.5 3 1.5l2 2-3.5 3.5q-3-1.6-1.5-7Zm8.5 0-2 3zm-31 1-1 2zm7 4-1 2zm36 0 .5 2.5h-1zm-59 4 2 1q1.5-2.5 3 1l2-1 1.5 3.5-1.5 1.5q-1.5-3.5-3-1zm48 4 .5 7.5h-1q1.9-5.4-1.5-4.5zm35 3 6.5 5.5 1 2-3.5 1.5zm-83 1 4 5zm53 0 .5 2.5h-1zm18 3 1 2zm-75 2 .5 2.5h-1zm-23 1 2 1 1.5-.5-1.5 2.5-2.5-1zm37 0 .5 2.5h-1zm38 1 2.5.5-2.5 3.5-1.5-2.5zm-3 1 .5 4.5h-1zm-39 1-2 3zm99 3-.5 1.5q.8 2.3-1.5 1.5l-1.5.5zm-104 2 .5 2-3.5 2zm17 1 2.5 3.5q-1.5 7.5 1 11h-1L71.5 91 65 85.5q-.7-2.2 1.5-1.5zm12 0q3.4-.9 1.5 4.5L84 89q-2.7-1.1-2 1.5L78.5 93l-.5-2.5 1-6 1.5-1.5zm65 0q3.8-.7 4.5 1.5.8 2.3-1.5 1.5-2 4-4 0-2.6.7-1.5-2zm-118 2 1 2zm27 3 1.5.5q-.5 4-5.5 3.5l2-3zm94 2-2 3zm-5 1-2 3zm-95 1 1 2zm87 1 1 2zm-88 2-3 4zm96 0-3 4zm-25 2 1.5 2.5-2-1zm18 4-1 2zm10 0-1 2zm-98 2-2 3zm67 1 3 4q-1.7-3.1-3.5-1.5zm28 0-1 2zm-79 1 1 2zm60 0 1 2zm16 1-1 2zm-92 1 .5 3.5h-1zm62 0 .5 4.5h-1zm32 0-1 2zm8 1 1 2zm-111 5-1 2zm-16 1 1 2zm136 0 .5 2-2-.5zm-86 7 2.5.5-2.5.5zm86 2 8 4h2q2.3.8 1.5-1.5l1.5.5h2.5q-1.1-2.7 1.5-2l-2 3-9 4-8.5-2.5 1.5-.5 1.5.5-3-4 1.5.5 1.5-.5zm-6 3 1.5 3.5-2-1zm-108 3 1 2zm115 5q3.8-1.2 2.5 2.5l.5 1.5zm-35 5 1.5.5-3.5 1.5v-1zm41 0 1 2q-2.8.7-1-2Zm11 1 1.5.5-2.5 1.5zm-104 1q4.3 2.8 11.5 2.5-2.8 2.8-9 1.5l-.5-2-3.5.5zm122 5 .5 3q-2.7-1.1-2 1.5l-6.5 10.5-1-2-2.5 1.5q4-9 11.5-14.5Zm-49 2 2.5.5-2.5.5zm-96 2 1 2zm58 0 7.5 1v2q3.7-1.5 3 1.5l.5 1.5-10.5-3zm-70 2-1 2zm10 1 3.5 2.5-3 .5zm6 0 5 6-5.5-4.5zm46 2 4.5.5-5 2-.5 2.5-3-1-3.5 1q-1.1-2.7 1.5-2l2.5-.5q-.8-2.6 2.5-1.5zm71 0 .5 9.5h-1zm-17 3q3.8-1 2.5 2l-4-.5zm-72 3 .5 3.5h-1zm73 0 3.5 1.5-2.5.5zm8 0 2.5 1q1.5 3.7-1.5 3-2.5-1-1-4Zm21 1 2.5.5q1 7 6 10l-5-4zM43 163l2 .5-1 4 1 3h-1zm14.5 0q5.8-.7 6.5 3.5l-.5 2.5-4.5-2.5.5-1.5zm50.5 2 7.5 2 2.5 2.5 1 2-1.5.5-7-2-2.5-2.5zm26.5 5 2.5.5-2.5.5zm-39 2-2 3zm-51 1 1 2zm32 5-1 2zm51 0 1.5 2.5-1.5.5q-3-1.5 0-3Zm71 3q2.6-.8 1.5 2.5v4l-4.5 4.5-3 2-3.5-5-3-1.5zm-72 3 5.5 3.5 1 3-1.5-.5-3-2-1.5.5-2-3zm-41 3-1 2-1.5-.5zm57 2 9.5 5.5-4.5 3.5-5.5-3.5zm44 5h2l1.5.5-6.5 3.5zm-8 1 1.5 3 2 .5-4.5 1.5-.5-2.5z" opacity=".996"/><path fill="#000f28" stroke="#000f28" d="m102.5 27-2 3zm8 6 .5 3.5h-1zm-36 3 1.5.5-4.5 4.5-1-1-6 4-2-1-4 2-.5-2.5 1.5-1.5 9-2zm13 3 1.5.5-4.5 5.5.5-1.5zm22 12 2 3q2.3-.7 1.5 1.5v2q-2.1 5.9 2.5 4.5l10.5 8.5 1 2q-2.2 1.3.5 2.5 1.3-2.2 2.5.5-.8 2.6 2.5 1.5l5-2 3.5 1q-1.3-3.3 3.5-2l1.5-.5-.5 1.5 3.5.5-17.5 6.5-16-14-5-1-2.5 1 2-8.5v-5zm9.5 17v2q1 2 5 1l-1-1v-2zm5 4q0 4 2 1zm14.5-13 1 2zm-69 3L68 64.5l-1 4-9.5 9.5-6.5 5.5q-5.4 3.1-4 13l1.5 1.5 6-6q3.3 1.1 2.5-1.5l3.5-3.5 1 1 4.5 2.5-3 2 4 1.5.5 2 1-2 1 2-1.5.5.5 1.5-8-4-10.5 8.5q-2.3 4.7-1 13l-1.5 3.5-1.5-.5-1.5 3.5-1.5.5 2.5 3.5-3 1q1.6-1.7-1.5-3.5l1-3 3-5v-20q-2.5-1.5-1-7l6-8-3-1.5.5-6 2 4 2 1L63 69q-1.1-2.7 1.5-2zm77 3 1.5 2.5-2-1zm4 4 4.5 2.5-2.5.5-2.5-1zm2 4 1 2zm8 6q-.2 4.3 2.5 5.5l-1 3.5 5 2q-1.1 2.7 1.5 2l8 5 2-1q2 2.8 6.5 2l-1 3.5-6 7.5-4 1-1 4 15 6-4 7q-2.7-1.1-2 1.5l-5 4q4 4 11.5 4.5l11.5-4v4h-1.5l-7 2-17.5 10q1.8 5.3 1 14.5l-1 3.5q-2.7-1.1-2 1.5l-5.5 3.5-.5-4-7.5 4-10 1-6-3q-17.5 1-28-5l-1 1q-1.7-3.1-3.5-1.5.9-3-3.5-1.5h-2l-2-1h-2l-3.5 1 12.5 15 3.5 1.5q-1.9 6.3 3 4.5l.5-2 2.5 3.5-2 .5q1.7 4.1-2.5 3l-3.5-5-8-6.5-8.5-12.5-8 2-5-5-1.5 1.5-1 3.5q-4.7.8-6-3.5.8-2.2-1.5-1.5v-1l3-1v2l2 1 5.5-4.5-2-4.5q-3 1.3-2-2.5l1.5.5 2.5 1.5 1.5 4.5 1-2 1.5 8 13.5-6h3l3 1 21 6 18 2 2.5 1-13-19.5 1.5-1.5H157l-6.5-10-4.5-2-3.5-5q-2.7 1.4-1.5 6l-11.5-1-3-2h-2l-2-1-1 3h-2q-3.7-1.2-2.5 2.5h-2q.8 2.3-1.5 1.5l-11 5-11.5 8.5-1.5 2.5q-3.3-1.1-2.5 1.5h-1l3.5-4.5H91q-1.5-3.8 1.5-3l-2-3q-2.2.8-1.5-1.5l-.5-1.5 7-2 2 1q4.3-3.7 12-4l2-2 1 1q2.2-4.2 4.5-2.5V133q3.8 1.5 3-1.5l2-3.5q2.7 1.1 2-1.5l1.5.5 11 3v-2l23.5-9.5-17.5-7.5-8.5-1.5q2.3-1.3-.5-2.5l-1.5.5.5 1.5q-4.2-1.3-2.5 3.5h-1q-1-4.5 1.5-5.5 2.6.7 1.5-2h2.5l5.5-3q-1.1-2.7 1.5-2l3.5-2q-1.1-2.7 1.5-2L158 82q3.1 1.1 2.5-3Zm-.5 11-18 16 25 13-20 11 18 20-14 1-3-1-8 1 13 17h4l10-6 4 3-1-14-1-1 4-4q2 1 1-2l10-5-16-8q10-3 16-9l-1-2-9-2-9-5q9-5 15-12l-12-5zm-41.5 10q2.3-.7 1.5 1.5l.5 1.5zm-85 6q2.3-.7 1.5 1.5l4 9-2.5 5.5-.5-3.5 1-2-1.5.5-1.5-.5v-2l1-5-3-2z" opacity=".996"/><path fill="#000f28" stroke="#000f28" d="M125 110q2.7-1.1 2 1.5l1 3.5q-2.7 1.1-2-1.5zm1 6 2 .5-2.5 3.5.5-1.5zm-82.5 12 2.5.5-2.5.5zm-4 8 2.5 4.5q-2.5 1.5 1 3l1 4.5-2.5 1-1.5-2.5v-2l-1-3 1-3zm42 7 2 1 2-1-1 2-2 1zm-11 2q1.2 3.8 5.5 3l1 2.5-1.5-.5zm129 6 .5 16.5-2-1q2.5-1.5-1-3l1-3-1-3zm-132 4 1 2zm-9 1 1 2zm8 2q2.3-.7 1.5 1.5l-1 2 3 4-5.5.5-3.5-2-1-4.5 1.5.5 4 2 .5-1.5q-2.2-1.2.5-2.5Zm-13 13 1.5 2.5q-2.5 1.5 1 3l-1.5 1.5q-3.4.9-1.5-4.5-2.2-1.2.5-2.5Zm122 20q3-.5 1.5 6.5l-1 2.5h-5v-2.5l-1.5.5q-4.7 3.8-15 2v-1l11-3zm-113 3 .5 2-2-.5zm73 0 14.5 5.5-16.5.5v-1q2.3.8 1.5-1.5l1-2z" opacity=".996"/><path fill="#98dff8" stroke="#98dff8" d="m108.5 29 .5 2.5h-1zm-13 17L93 49.5l-.5 1.5-.5-1.5zm11 0-.5 1.5q.6 6.6-3.5 8.5l-3 2-4.5 3.5-2-6q2.8 1.9 5.5-3.5zm23 2 .5 7.5-1.5 2.5-1-1H121v-2h2q-1.1-2.7 1.5-2zm-81 4 2.5.5v2q.7 3-3 1.5v2.5h-1l-1-4zm55 8 1.5 8.5-2 1-.5-7.5-1.5.5zm23 1q6.8 5.4 9.5 14l-4.5 1-2.5-4q-2.7 1.1-2-1.5l-2.5-3.5-1.5-.5v-2zm-67 2 1 2z" opacity=".996"/><path fill="#98dff8" stroke="#98dff8" d="m99.5 64 2.5 1q1.3 4.6-1.5 6L96 72q-1.2-6.4 3.5-8Zm-71 8 2.5 1.5-1.5-.5zm75 0 1.5 2.5-2-1zm-3.5 1 2 .5v2l1 2-2 1q2.3 1.3-.5 2.5l-2 1-.5-3h2zm-5.5 3 .5 2.5-2.5 5.5-6.5 2v-5.5l1.5-.5zm16 3 1.5 5.5-1.5-.5q-2.6.8-1.5-2.5zm47 2-2 3-1.5-.5zm-121 4 2 1 1.5-.5 2 4-1.5-.5-2-1-1.5.5q.8-2.6-2.5-1.5v-1zm97 3h2l3.5 2.5 2 4-4.5 4.5-1.5-1.5zm-82 2h2l1.5.5-2 .5q1.1 2.7-1.5 2L48 95l1.5-4zm20 1 2 3zm53 3q4.4-1.5 3.5 1.5l.5 2.5 2.5 1.5-3 1.5q1.1-2.7-1.5-2-1.2 2.2-2.5-.5l-1-3zm7 7 1 2-2.5-.5zm-79 1 .5 2.5h-1zm93 2 .5 2q2.9 2.9 10.5 2l5.5 5.5-2.5.5-15.5-8.5zm-121 8 2.5.5-2.5.5zm107 1 1 2zm-109 2 2.5.5-2.5.5zm121 3q6.8-.7 10.5 1.5-1.2 2.8-2.5.5-6.7.8-8-2Zm-63 1 2.5.5-2.5.5zm22 0 3.5.5-3.5.5zm-39 1 7.5.5-7.5.5zm102 0 1 2-5 2 1-2zm-40.5 1q5.7-1 8 2.5l1 2-2.5.5-6.5-3zm44.5 2 2.5 1.5-1.5.5zm-116 4 8 6 4 1 3-1 8.5 6.5 1 2-1.5-.5-10-2-15.5-9.5q-.7-2.2 1.5-1.5zm75 8q2.3-.7 1.5 1.5zm3 2-1 2-1.5-.5zm-6 2 3.5 2.5-4.5 3.5-.5-1.5.5-2.5 1.5-.5zm-43 1 5.5.5-5.5.5zm10 0 2.5.5-2.5.5zm47.5 0q3-1 2 2-3 1-2-2Zm-9.5 2q3.3-1.1 2.5 1.5l-1.5-.5zm4 1 3.5 1.5-2.5 1.5zm34 0-1 2zm31 4-2 3zm-150 1 4.5 7.5-6.5 10.5-.5-2q-3.3-1.3-2 3.5l-2 1 2.5-5.5 2-1 1.5.5q.8-2.2-1.5-1.5l.5-1.5V156q2.7 1.1 2-1.5l1-3zm62 0 1 2zm-11 2-3 4zm8.5 2 2 .5-2 1zm7.5 4 8.5 5.5-1.5.5-2-1-3 1q-3.8-1.3-2-6Zm16 0 8.5 9.5-1.5.5-8.5-4.5zm31 0 2.5.5-2.5.5zm-2 1-1 2zm27 0 2.5.5 1 2-2.5 1.5-2.5-1.5 2-1zm4 6 7.5 9.5-1.5-.5q-2.2.8-1.5-1.5-4.8-2.4-4.5-7.5Zm-135 1 2 1 1.5-.5-1 1 2.5 3.5zm-10 4 .5 2.5v2l-.5 1.5-2.5-1v-4h1.5zm132 0 3 4 2.5 1.5-1.5-.5-3.5-1.5zm-70 1 4.5 1 .5 2 2.5-1 .5 2q1.3-2.2 2.5.5l-1.5 2.5h-2l-4 2zm12.5 0 10 2q-1.1 2.7 1.5 2l5.5 2.5-2.5 1.5q-3.2-3.3-10-3l-4.5-3.5zm64.5 2 3.5 4.5-1.5-.5-2.5-1.5zm-40 3 4.5 2.5-3.5 2.5zm-26 4q2 2.8 6.5 2l-1 2.5 4 3-1.5-.5-2-1-2.5 1.5 1-2-2-.5-1.5-4zm66 1-4 5q-3.3 1.1-2.5-1.5l-.5-1.5zm-55 3 5.5 3q-1.2 3 2.5 2 3.5 1 2.5 6.5h-1q1-4.5-1.5-5.5l-8.5-1zm-3 6 1 2zm71 0-2 3zm-21.5 2q4.5-.8 6.5 2 1.5-2.5 3 1l3 1 1.5-.5q.8 2.3-1.5 1.5l-1.5.5.5-1.5-2 1q-1.7-2.7-3.5 1.5l.5 1.5-1.5-.5-.5 1.5-2.5-1-2-3.5zm-23.5 2q6.6-.6 9.5 2.5-.7 2.3-4.5 1.5l-5-3zm40 0-1 2zm2 3 3.5.5-3.5.5z" opacity=".996"/><path fill="#53aeef" stroke="#53aeef" d="m108.5 26-.5 1.5v8l-2 7q2.5 1.5-1 3l-2.5 3.5-5 3-1.5-3-2-.5zm-41 28-2 3zm-19 5L58 71.5 52.5 77H50l-2-4.5 3 1zm15 1 .5 2.5h-1zm-4 2 2 3zm8 7q2.3-.7 1.5 1.5l5 11-2.5.5-7 3-.5-9.5 1-4zm77 2 1 2zm19 1-.5 1.5-2 4.5-2 .5.5 1.5-1-1-4 4-2-2-2.5-.5 5-1.5.5-2 1.5.5q-.7-2.2 1.5-1.5zm-133 2L38 85q-5.5 1.3-7-2.5l-2-7zm27 5q3.8 1.5 2.5 7l-8.5 4 .5-1.5zm89 3 2 3 1.5.5-2 .5 1 2.5-1.5-.5-4 1-2-1-4 1-1-2 1 1q2.3-4.3 4.5-2.5l.5-1.5 1.5.5.5-1.5 1.5.5zm-113 5 5.5 2q-1.2 3.7 4 2v3.5l1 1-3.5 3.5-4.5-3.5zm98 2 2.5 2.5 1 6q-1.2 2.5-5 1.5l-2-6-6.5 3-1-2zm-32 3q12.3 2.8 19.5 10.5l1 10-2.5 3.5-8 3-48 1q-1.8-3.1-3.5-1.5l.5-2.5q3.3 2.7 10 2 5-1.5 3.5-9.5l-3.5-5.5-8-3q-1.5 2.5-3-1l-2 1 2-3 5-2 15 9zm4.5 8-2 1-6 8 2 7 6 2 7-2 4-6q1-7-2-9t-9-1Zm27.5 0 1 2zm47 1-1 2zm-3 1 .5 1.5q-5.4 6.6-14.5 9.5l-3.5-5-2-.5 5.5-.5zm-28 1 7.5 4.5-3.5.5-5.5-3.5zm-16.5 7q6.4-.8 10 2.5l-10 1 9 6q-4.5 3-13.5 1.5l1.5-2.5zm-110.5 5-1 2zm7 1 3.5.5-3.5.5zm149 7 2.5.5-2.5.5zm-21 2q2.3-.7 1.5 1.5 1.3 2.8 2.5.5l4-1v2l5.5.5-2 1 3.5 4.5q1.5-2.5 3 1l3 2 1-1q1.7 3.1 3.5 1.5.5 3-6.5 1.5l-7.5 5.5 4 2q-2.7.8-2 5l1 3-2 1q.5-4-2.5-4.5l-1.5-.5 2-1-18-20zm.5 5-2 2 4 2 3 3h4l2 2 1-1 3 1h1l-2-2q-4-1-3-5zm-31.5 4 4.5 2.5q.8 2.3-1.5 1.5l-18 7-3.5-1.5zm-66 13q.8 5.3 4.5 7.5l-4-3-.5-1.5-1 2-1.5-3q2.8 1 2.5-2Zm93.5 4h6.5l6.5 4.5-3.5 1.5-3-1-2 1-4.5-3.5zm-28.5 1 1 2zm-31 1q1.8 3.1 3.5 1.5l-4 3q.8 2.3-1.5 1.5l-3.5 2v-2.5zm-49 1 2.5 1.5 1 7.5h-4v1.5h-1l-2-8zm62 0 1.5.5-2.5 1.5zm-9 3 1 2zm67 3q4.8-1.3 3.5 2l-4.5 1-.5-1.5zm-56 4 .5 2.5h-1zm-5 4 2.5 1.5q-.8 2.6 2.5 1.5l2.5.5-.5 1.5 1.5.5-.5 1.5q2.6-.7 1.5 2h-1.5zm16 2 2 1q1.7-2.7 3.5 1.5l3 6-3 1.5-.5-2-1.5.5zm-19 9 6.5 2.5-3 5.5-3-1.5-2-5zm46 1 11.5 2.5-1 2 .5 1.5-2 1-11.5-5.5zm-84 1 5.5 18.5-2-1-7-16q1.8 1.6 3.5-1.5Zm52 8q6.6 6.9 16.5 10.5l-6.5.5-5-5-1 1-6.5 4-4-9q7.1-.3 10.5 4zm-22 5-1 2zm2 1 1 2z" opacity=".996"/></svg>