<svg width="200" height="200" version="1.1" xmlns="http://www.w3.org/2000/svg" desc="Created with imagetracer.js version 1.2.6" ><path fill="rgb(0,0,0)" stroke="rgb(0,0,0)" stroke-width="1" opacity="0.06274509803921569" d="M 139.5 29 L 142 30.5 L 140.5 31 Q 138.8 28.3 137 32.5 L 135.5 36 L 135 34.5 L 137 30 L 139.5 29 Z " /><path fill="rgb(0,0,0)" stroke="rgb(0,0,0)" stroke-width="1" opacity="0.06274509803921569" d="M 63.5 30 L 66 31.5 L 64.5 31 L 61 33.5 L 47 61.5 L 43.5 65 L 28.5 72 L 28.5 71 L 43.5 64 L 46 61.5 L 61 31 L 63.5 30 Z " /><path fill="rgb(0,0,0)" stroke="rgb(0,0,0)" stroke-width="1" opacity="0.06274509803921569" d="M 142.5 32 L 145 35.5 L 143 34.5 L 142.5 32 Z " /><path fill="rgb(0,0,0)" stroke="rgb(0,0,0)" stroke-width="1" opacity="0.06274509803921569" d="M 134.5 37 L 135 38.5 L 129 54.5 L 129 57.5 L 126.5 61 L 112.5 67 L 101.5 55 Q 96.5 54.5 96 58.5 L 89.5 67 L 86.5 67 L 79 63.5 L 81.5 63 L 88.5 66 Q 95.1 61.2 98 54 L 101.5 54 L 109 61.5 L 112.5 66 L 127 60 L 128 53.5 L 134.5 37 Z " /><path fill="rgb(0,0,0)" stroke="rgb(0,0,0)" stroke-width="1" opacity="0.06274509803921569" d="M 145.5 37 L 151 47.5 L 150 47.5 L 145.5 37 Z " /><path fill="rgb(0,0,0)" stroke="rgb(0,0,0)" stroke-width="1" opacity="0.06274509803921569" d="M 151.5 49 L 160 64.5 L 160 67 L 181 80.5 L 178.5 84 L 162 93.5 L 163 99.5 L 162 99.5 L 161 93.5 L 162 91 L 179 81.5 L 176.5 78 L 159 66.5 L 151 50.5 L 151.5 49 Z " /><path fill="rgb(0,0,0)" stroke="rgb(0,0,0)" stroke-width="1" opacity="0.06274509803921569" d="M 73.5 52 L 75 55.5 L 74 55.5 L 73.5 52 Z " /><path fill="rgb(0,0,0)" stroke="rgb(0,0,0)" stroke-width="1" opacity="0.06274509803921569" d="M 75.5 57 L 78 62.5 L 76 61.5 L 75.5 57 Z " /><path fill="rgb(0,0,0)" stroke="rgb(0,0,0)" stroke-width="1" opacity="0.06274509803921569" d="M 25.5 72 L 27 72.5 L 24 74.5 L 33 84.5 L 23 75.5 L 25.5 72 Z " /><path fill="rgb(0,0,0)" stroke="rgb(0,0,0)" stroke-width="1" opacity="0.06274509803921569" d="M 33.5 86 L 38 91.5 L 36.5 95 L 36 92.5 L 37 90.5 L 33.5 86 Z " /><path fill="rgb(0,0,0)" stroke="rgb(0,0,0)" stroke-width="1" opacity="0.06274509803921569" d="M 35.5 96 L 36 100.5 L 35 100.5 L 35.5 96 Z " /><path fill="rgb(0,0,0)" stroke="rgb(0,0,0)" stroke-width="1" opacity="0.06274509803921569" d="M 163.5 102 L 164 105.5 L 163 105.5 L 163.5 102 Z " /><path fill="rgb(0,0,0)" stroke="rgb(0,0,0)" stroke-width="1" opacity="0.06274509803921569" d="M 34.5 103 L 35 108.5 L 26 120.5 L 25 132.5 Q 27.2 141.8 33 147.5 L 30 145.5 L 24 133.5 L 24 123.5 Q 26.9 113.9 34 108.5 L 34.5 103 Z " /><path fill="rgb(0,0,0)" stroke="rgb(0,0,0)" stroke-width="1" opacity="0.06274509803921569" d="M 164.5 107 L 172 118.5 L 171 118.5 L 164 108.5 L 164.5 107 Z " /><path fill="rgb(0,0,0)" stroke="rgb(0,0,0)" stroke-width="1" opacity="0.06274509803921569" d="M 172.5 120 L 173 122.5 L 172 122.5 L 172.5 120 Z " /><path fill="rgb(0,0,0)" stroke="rgb(0,0,0)" stroke-width="1" opacity="0.06274509803921569" d="M 173.5 124 L 174 134.5 Q 170.6 146.1 161.5 152 L 153 155 L 153 157.5 L 164 175.5 L 167 185.5 L 166 185.5 L 161 171.5 L 151 155 Q 162.3 153 168 144.5 Q 174.5 138 173.5 124 Z " /><path fill="rgb(0,0,0)" stroke="rgb(0,0,0)" stroke-width="1" opacity="0.06274509803921569" d="M 34.5 148 Q 39.8 154 48 156 L 36.5 177 L 36 175.5 L 47 157.5 L 37.5 152 L 34.5 148 Z " /><path fill="rgb(0,0,0)" stroke="rgb(0,0,0)" stroke-width="1" opacity="0.06274509803921569" d="M 35.5 178 L 36 179.5 L 34.5 182 L 34 180.5 L 35.5 178 Z " /><path fill="rgb(0,0,0)" stroke="rgb(0,0,0)" stroke-width="1" opacity="0.06274509803921569" d="M 33.5 183 L 34 184.5 L 29.5 200 L 29 197.5 L 33.5 183 Z " /><path fill="rgb(0,0,0)" stroke="rgb(0,0,0)" stroke-width="1" opacity="0.06274509803921569" d="M 167.5 187 L 171 199.5 L 170 199.5 L 167.5 187 Z " /><path fill="rgb(0,0,0)" stroke="rgb(0,0,0)" stroke-width="1" opacity="0" d="M 0 0 L 200 0 L 200 200 L 171.5 200 L 171 197.5 L 164 175.5 L 153 157.5 L 153 155 Q 164.5 152.9 170 143.5 L 174 134.5 L 174 124.5 Q 171.6 112.9 164 106.5 L 162 93.5 L 181 81.5 L 179.5 79 L 160 67 L 160 64.5 L 147 38.5 L 140.5 29 L 137 30 L 129 50.5 L 127 60 L 112.5 66 L 101.5 54 Q 97.1 52.5 98 55.5 L 88.5 66 L 77 61.5 L 70 40.5 L 64.5 30 L 61 31 L 46 61.5 L 43.5 64 L 25.5 72 L 23 74.5 L 37 91.5 L 35 96.5 L 34 108.5 Q 26.9 113.9 24 123.5 L 24 133.5 Q 26.6 142.4 32.5 148 L 47 157.5 Q 33.1 174.3 29 200 L 0.5 200 L 0 199.5 L 0 0 Z " /><path fill="rgb(155,220,243)" stroke="rgb(155,220,243)" stroke-width="1" opacity="1" d="M 62.5 45 L 64 48.5 L 63 49.5 L 61 66.5 L 58.5 70 L 46.5 75 L 36.5 77 L 37.5 75 L 52 68 L 62.5 45 Z " /><path fill="rgb(155,220,243)" stroke="rgb(155,220,243)" stroke-width="1" opacity="1" d="M 139.5 46 L 140 69.5 L 136.5 72 L 132.5 72 L 118.5 76 L 112.5 76 L 112.5 75 L 130.5 67 L 134 63.5 L 139.5 46 Z " /><path fill="rgb(155,220,243)" stroke="rgb(155,220,243)" stroke-width="1" opacity="1" d="M 99.5 66 L 100 79 L 92 74.5 L 99.5 66 Z " /><path fill="rgb(155,220,243)" stroke="rgb(155,220,243)" stroke-width="1" opacity="1" d="M 58.5 82 L 62 82.5 Q 52.7 84.2 48 90.5 L 45 105.5 L 46 107.5 L 45 111.5 L 36 122.5 Q 33.6 127.6 35 136.5 L 35.5 138 Q 31.5 134.5 32 126.5 L 33 122.5 L 42 111.5 L 43 97.5 Q 44.5 90 49.5 86 L 58.5 82 Z " /><path fill="rgb(155,220,243)" stroke="rgb(155,220,243)" stroke-width="1" opacity="1" d="M 130.5 83 L 133 83.5 L 126 88.5 Q 125.8 93.3 122.5 95 L 120 94.5 L 126.5 85 L 130.5 83 Z " /><path fill="rgb(155,220,243)" stroke="rgb(155,220,243)" stroke-width="1" opacity="1" d="M 56.5 100 L 62.5 100 L 71 106.5 Q 73.7 108.8 73 114.5 Q 70.7 117.7 64.5 117 L 55 111.5 L 53 104.5 L 56.5 100 Z " /><path fill="rgb(155,220,243)" stroke="rgb(155,220,243)" stroke-width="1" opacity="1" d="M 135.5 100 Q 142.5 98.5 144 102.5 L 145 107.5 L 138.5 115 Q 135.2 117.7 128.5 117 L 125 114.5 Q 125.4 105.4 131.5 102 L 135.5 100 Z " /><path fill="rgb(155,220,243)" stroke="rgb(155,220,243)" stroke-width="1" opacity="1" d="M 57.5 178 L 58 183.5 L 57 184.5 L 56 200 Q 50 202.3 52 195.5 L 57.5 178 Z " /><path fill="rgb(155,220,243)" stroke="rgb(155,220,243)" stroke-width="1" opacity="1" d="M 42 183 L 45 183.5 L 43 186.5 L 41 200 L 37 199.5 L 42 183 Z " /><path fill="rgb(94,149,186)" stroke="rgb(94,149,186)" stroke-width="1" opacity="1" d="M 139.5 45 Q 141.8 44.3 141 46.5 L 151 68 Q 153.7 66.9 153 69.5 L 156 74 L 166 79 Q 167.1 81.7 164.5 81 L 157.5 85 Q 152.9 78.1 144.5 75 L 130.5 75 Q 120.3 77.8 115 85.5 L 114.5 87 L 90.5 87 Q 89 89.5 83.5 88 L 77.5 81 Q 71.1 72.9 54.5 75 Q 46.4 77.4 41.5 83 L 36.5 77 L 46.5 75 L 60 68.5 L 63.5 49 L 70 67 L 82.5 73 L 90.5 75 L 91.5 74 L 94.5 77 L 100 79 L 100.5 65 L 110.5 75 L 118.5 76 L 123.5 74 L 136.5 72 L 140 69.5 L 140 46.5 L 139.5 45 Z " /><path fill="rgb(94,149,186)" stroke="rgb(94,149,186)" stroke-width="1" opacity="1" d="M 57.5 99 Q 65.1 97.9 67 102.5 L 64.5 101 L 57.5 100 L 57.5 99 Z " /><path fill="rgb(94,149,186)" stroke="rgb(94,149,186)" stroke-width="1" opacity="1" d="M 136.5 99 L 141 99.5 L 136.5 100 L 136.5 99 Z " /><path fill="rgb(94,149,186)" stroke="rgb(94,149,186)" stroke-width="1" opacity="1" d="M 55.5 100 L 54.5 102 L 55.5 100 Z " /><path fill="rgb(94,149,186)" stroke="rgb(94,149,186)" stroke-width="1" opacity="1" d="M 133.5 100 L 135 100.5 L 132.5 102 L 133.5 100 Z " /><path fill="rgb(94,149,186)" stroke="rgb(94,149,186)" stroke-width="1" opacity="1" d="M 142.5 100 L 143.5 102 L 142.5 100 Z " /><path fill="rgb(94,149,186)" stroke="rgb(94,149,186)" stroke-width="1" opacity="1" d="M 130.5 102 L 127.5 106 L 130.5 102 Z " /><path fill="rgb(94,149,186)" stroke="rgb(94,149,186)" stroke-width="1" opacity="1" d="M 68.5 103 L 69.5 105 L 68.5 103 Z " /><path fill="rgb(94,149,186)" stroke="rgb(94,149,186)" stroke-width="1" opacity="1" d="M 126.5 107 L 126 108.5 L 125 114.5 L 128 116.5 L 126.5 117 Q 123 116 124 110.5 L 126.5 107 Z " /><path fill="rgb(94,149,186)" stroke="rgb(94,149,186)" stroke-width="1" opacity="1" d="M 53.5 108 L 55 110.5 L 53 109.5 L 53.5 108 Z " /><path fill="rgb(94,149,186)" stroke="rgb(94,149,186)" stroke-width="1" opacity="1" d="M 143.5 110 L 140.5 114 L 143.5 110 Z " /><path fill="rgb(94,149,186)" stroke="rgb(94,149,186)" stroke-width="1" opacity="1" d="M 72.5 115 L 71.5 117 L 69 116.5 L 72.5 115 Z " /><path fill="rgb(75,45,76)" stroke="rgb(75,45,76)" stroke-width="1" opacity="0.996078431372549" d="M 96.5 68 L 93.5 72 L 96.5 68 Z " /><path fill="rgb(75,45,76)" stroke="rgb(75,45,76)" stroke-width="1" opacity="0.996078431372549" d="M 107.5 71 L 109.5 74 L 107.5 71 Z " /><path fill="rgb(75,45,76)" stroke="rgb(75,45,76)" stroke-width="1" opacity="0.996078431372549" d="M 91.5 73 L 90.5 75 L 89 74.5 L 91.5 73 Z " /><path fill="rgb(75,45,76)" stroke="rgb(75,45,76)" stroke-width="1" opacity="0.996078431372549" d="M 56.5 75 L 65 75.5 L 56.5 76 L 56.5 75 Z " /><path fill="rgb(75,45,76)" stroke="rgb(75,45,76)" stroke-width="1" opacity="0.996078431372549" d="M 45.5 80 L 44.5 82 L 45.5 80 Z " /><path fill="rgb(75,45,76)" stroke="rgb(75,45,76)" stroke-width="1" opacity="0.996078431372549" d="M 58.5 81 L 62 81.5 L 58.5 82 L 58.5 81 Z " /><path fill="rgb(75,45,76)" stroke="rgb(75,45,76)" stroke-width="1" opacity="0.996078431372549" d="M 135.5 81 L 140 81.5 L 135.5 82 L 135.5 81 Z " /><path fill="rgb(75,45,76)" stroke="rgb(75,45,76)" stroke-width="1" opacity="0.996078431372549" d="M 163.5 82 L 162.5 84 L 163.5 82 Z " /><path fill="rgb(75,45,76)" stroke="rgb(75,45,76)" stroke-width="1" opacity="0.996078431372549" d="M 68.5 83 L 69.5 85 L 68.5 83 Z " /><path fill="rgb(75,45,76)" stroke="rgb(75,45,76)" stroke-width="1" opacity="0.996078431372549" d="M 144.5 83 L 152 89.5 L 146.5 85 L 144.5 83 Z " /><path fill="rgb(75,45,76)" stroke="rgb(75,45,76)" stroke-width="1" opacity="0.996078431372549" d="M 72.5 86 L 74.5 89 L 72.5 86 Z " /><path fill="rgb(75,45,76)" stroke="rgb(75,45,76)" stroke-width="1" opacity="0.996078431372549" d="M 92.5 87 L 109 87.5 L 92.5 88 L 92.5 87 Z " /><path fill="rgb(75,45,76)" stroke="rgb(75,45,76)" stroke-width="1" opacity="0.996078431372549" d="M 87.5 94 L 90 94.5 L 87.5 95 L 87.5 94 Z " /><path fill="rgb(75,45,76)" stroke="rgb(75,45,76)" stroke-width="1" opacity="0.996078431372549" d="M 93.5 94 L 119 94.5 L 93.5 95 L 93.5 94 Z " /><path fill="rgb(75,45,76)" stroke="rgb(75,45,76)" stroke-width="1" opacity="0.996078431372549" d="M 155.5 99 L 156 101.5 L 155 101.5 L 155.5 99 Z " /><path fill="rgb(75,45,76)" stroke="rgb(75,45,76)" stroke-width="1" opacity="0.996078431372549" d="M 41.5 103 L 42 107.5 L 41 107.5 L 41.5 103 Z " /><path fill="rgb(75,45,76)" stroke="rgb(75,45,76)" stroke-width="1" opacity="0.996078431372549" d="M 156.5 105 L 157 107.5 L 156 107.5 L 156.5 105 Z " /><path fill="rgb(75,45,76)" stroke="rgb(75,45,76)" stroke-width="1" opacity="0.996078431372549" d="M 157.5 110 L 160 113.5 L 157 111.5 L 157.5 110 Z " /><path fill="rgb(75,45,76)" stroke="rgb(75,45,76)" stroke-width="1" opacity="0.996078431372549" d="M 39.5 113 L 35.5 118 L 39.5 113 Z " /><path fill="rgb(75,45,76)" stroke="rgb(75,45,76)" stroke-width="1" opacity="0.996078431372549" d="M 160.5 115 L 163.5 119 L 160.5 115 Z " /><path fill="rgb(75,45,76)" stroke="rgb(75,45,76)" stroke-width="1" opacity="0.996078431372549" d="M 165.5 122 L 166 125.5 L 165 125.5 L 165.5 122 Z " /><path fill="rgb(75,45,76)" stroke="rgb(75,45,76)" stroke-width="1" opacity="0.996078431372549" d="M 114.5 123 Q 120.3 122.2 122 125.5 L 119.5 129 L 77.5 130 Q 75 128.8 76 125 L 88.5 125 L 89.5 124 L 113.5 124 L 114.5 123 Z " /><path fill="rgb(75,45,76)" stroke="rgb(75,45,76)" stroke-width="1" opacity="0.996078431372549" d="M 31.5 129 L 32 131.5 L 31 131.5 L 31.5 129 Z " /><path fill="rgb(75,45,76)" stroke="rgb(75,45,76)" stroke-width="1" opacity="0.996078431372549" d="M 163.5 138 L 162.5 140 L 163.5 138 Z " /><path fill="rgb(75,45,76)" stroke="rgb(75,45,76)" stroke-width="1" opacity="0.996078431372549" d="M 161.5 141 L 160.5 143 L 161.5 141 Z " /><path fill="rgb(75,45,76)" stroke="rgb(75,45,76)" stroke-width="1" opacity="0.996078431372549" d="M 157.5 144 L 156.5 146 L 157.5 144 Z " /><path fill="rgb(75,45,76)" stroke="rgb(75,45,76)" stroke-width="1" opacity="0.996078431372549" d="M 133.5 152 L 136 152.5 L 133.5 153 L 133.5 152 Z " /><path fill="rgb(75,45,76)" stroke="rgb(75,45,76)" stroke-width="1" opacity="0.996078431372549" d="M 68.5 154 L 71 154.5 L 68.5 155 L 68.5 154 Z " /><path fill="rgb(75,45,76)" stroke="rgb(75,45,76)" stroke-width="1" opacity="0.996078431372549" d="M 80.5 155 L 90 155.5 L 80.5 156 L 80.5 155 Z " /><path fill="rgb(75,45,76)" stroke="rgb(75,45,76)" stroke-width="1" opacity="0.996078431372549" d="M 108.5 155 L 112 155.5 L 108.5 156 L 108.5 155 Z " /><path fill="rgb(75,45,76)" stroke="rgb(75,45,76)" stroke-width="1" opacity="0.996078431372549" d="M 56.5 158 L 70 161.5 L 53.5 172 L 55 169.5 L 58 164.5 Q 57.5 161.5 53.5 162 L 51 163.5 L 56.5 158 Z " /><path fill="rgb(75,45,76)" stroke="rgb(75,45,76)" stroke-width="1" opacity="0.996078431372549" d="M 140.5 158 Q 146.3 157.3 147 161.5 L 154 175 L 147 173.5 L 150 172.5 Q 148.6 166.4 143.5 164 L 134.5 164 L 133 165.5 L 133.5 167 L 128 160 Q 135.6 160.9 140.5 158 Z " /><path fill="rgb(75,45,76)" stroke="rgb(75,45,76)" stroke-width="1" opacity="0.996078431372549" d="M 116.5 161 L 120 161.5 L 116.5 162 L 116.5 161 Z " /><path fill="rgb(75,45,76)" stroke="rgb(75,45,76)" stroke-width="1" opacity="0.996078431372549" d="M 78.5 162 L 74.5 167 L 78.5 162 Z " /><path fill="rgb(75,45,76)" stroke="rgb(75,45,76)" stroke-width="1" opacity="0.996078431372549" d="M 92.5 162 L 95 162.5 L 92.5 163 L 92.5 162 Z " /><path fill="rgb(75,45,76)" stroke="rgb(75,45,76)" stroke-width="1" opacity="0.996078431372549" d="M 50.5 165 L 49.5 167 L 50.5 165 Z " /><path fill="rgb(75,45,76)" stroke="rgb(75,45,76)" stroke-width="1" opacity="0.996078431372549" d="M 123.5 166 L 124.5 168 L 123.5 166 Z " /><path fill="rgb(75,45,76)" stroke="rgb(75,45,76)" stroke-width="1" opacity="0.996078431372549" d="M 72.5 167 L 70.5 170 L 72.5 167 Z " /><path fill="rgb(75,45,76)" stroke="rgb(75,45,76)" stroke-width="1" opacity="0.996078431372549" d="M 135.5 167 L 139 169.5 L 137.5 169 L 135.5 167 Z " /><path fill="rgb(75,45,76)" stroke="rgb(75,45,76)" stroke-width="1" opacity="0.996078431372549" d="M 68.5 170 L 67.5 172 L 68.5 170 Z " /><path fill="rgb(75,45,76)" stroke="rgb(75,45,76)" stroke-width="1" opacity="0.996078431372549" d="M 128.5 170 L 130.5 173 L 128.5 170 Z " /><path fill="rgb(75,45,76)" stroke="rgb(75,45,76)" stroke-width="1" opacity="0.996078431372549" d="M 46.5 172 L 46.5 175 Q 44.3 175.8 45 173.5 L 46.5 172 Z " /><path fill="rgb(75,45,76)" stroke="rgb(75,45,76)" stroke-width="1" opacity="0.996078431372549" d="M 50.5 172 L 52 172.5 L 48.5 174 L 48.5 173 L 50.5 172 Z " /><path fill="rgb(75,45,76)" stroke="rgb(75,45,76)" stroke-width="1" opacity="0.996078431372549" d="M 63.5 173 L 62.5 175 L 63.5 173 Z " /><path fill="rgb(75,45,76)" stroke="rgb(75,45,76)" stroke-width="1" opacity="0.996078431372549" d="M 132.5 173 L 138 176.5 L 136.5 176 Q 132.5 175.5 132.5 173 Z " /><path fill="rgb(75,45,76)" stroke="rgb(75,45,76)" stroke-width="1" opacity="0.996078431372549" d="M 57.5 176 L 56 178.5 L 51 195.5 L 51 200 L 45 200 L 45 194.5 L 48.5 180 L 50.5 181 L 57.5 176 Z " /><path fill="rgb(75,45,76)" stroke="rgb(75,45,76)" stroke-width="1" opacity="0.996078431372549" d="M 139.5 177 Q 142.5 180.5 149 180.5 L 148 182.5 L 150 185.5 L 153 200 L 146.5 200 L 145 198.5 L 144 190.5 L 139.5 177 Z " /><path fill="rgb(75,45,76)" stroke="rgb(75,45,76)" stroke-width="1" opacity="0.996078431372549" d="M 153.5 182 L 158 182.5 L 153.5 183 L 153.5 182 Z " /><path fill="rgb(75,45,76)" stroke="rgb(75,45,76)" stroke-width="1" opacity="0.996078431372549" d="M 162.5 196 L 163 198.5 L 162 198.5 L 162.5 196 Z " /><path fill="rgb(135,123,178)" stroke="rgb(135,123,178)" stroke-width="1" opacity="1" d="M 56.5 82 L 61.5 83 L 64.5 82 L 64.5 83 L 58.5 84 L 56.5 82 Z " /><path fill="rgb(135,123,178)" stroke="rgb(135,123,178)" stroke-width="1" opacity="1" d="M 131.5 82 L 134.5 83 L 138.5 82 L 138.5 83 Q 130.7 83.7 127 88.5 L 125.5 92 L 125 90.5 L 129.5 85 L 133 83.5 L 131.5 82 Z " /><path fill="rgb(135,123,178)" stroke="rgb(135,123,178)" stroke-width="1" opacity="1" d="M 51.5 84 L 50.5 86 L 51.5 84 Z " /><path fill="rgb(135,123,178)" stroke="rgb(135,123,178)" stroke-width="1" opacity="1" d="M 54.5 85 L 52.5 88 L 48.5 91 L 51.5 87 L 54.5 85 Z " /><path fill="rgb(135,123,178)" stroke="rgb(135,123,178)" stroke-width="1" opacity="1" d="M 46.5 89 L 45.5 91 L 46.5 89 Z " /><path fill="rgb(135,123,178)" stroke="rgb(135,123,178)" stroke-width="1" opacity="1" d="M 124.5 93 L 122.5 96 L 119 95.5 Q 123.3 95.8 124.5 93 Z " /><path fill="rgb(135,123,178)" stroke="rgb(135,123,178)" stroke-width="1" opacity="1" d="M 46.5 96 L 47 98.5 L 46 98.5 L 46.5 96 Z " /><path fill="rgb(135,123,178)" stroke="rgb(135,123,178)" stroke-width="1" opacity="1" d="M 45.5 108 L 46 110.5 L 45 110.5 L 45.5 108 Z " /><path fill="rgb(135,123,178)" stroke="rgb(135,123,178)" stroke-width="1" opacity="1" d="M 44.5 112 L 39 118.5 L 37.5 121 L 38 119.5 L 44.5 112 Z " /><path fill="rgb(135,123,178)" stroke="rgb(135,123,178)" stroke-width="1" opacity="1" d="M 55.5 112 L 56.5 114 L 55.5 112 Z " /><path fill="rgb(135,123,178)" stroke="rgb(135,123,178)" stroke-width="1" opacity="1" d="M 40.5 113 L 35.5 119 L 40.5 113 Z " /><path fill="rgb(135,123,178)" stroke="rgb(135,123,178)" stroke-width="1" opacity="1" d="M 35.5 125 L 36 130.5 L 35 130.5 L 35.5 125 Z " /><path fill="rgb(135,123,178)" stroke="rgb(135,123,178)" stroke-width="1" opacity="1" d="M 123 126 Q 141.6 128 153 137 L 155 140.5 Q 145.1 149.6 129.5 153 L 114.5 154 L 113.5 155 L 77.5 155 L 76.5 154 L 67.5 154 L 57.5 152 L 43.5 146 L 40 142.5 L 42.5 139 Q 56.1 129.8 75 127 L 76.5 130 L 78.5 131 L 89.5 131 L 90.5 130 L 115.5 130 Q 116.7 127.8 121.5 129 L 123 127.5 L 123 126 Z " /><path fill="rgb(135,123,178)" stroke="rgb(135,123,178)" stroke-width="1" opacity="1" d="M 35.5 133 L 36 136.5 L 35 137.5 L 36.5 140 Q 32.2 138.3 35 136.5 L 35.5 133 Z " /><path fill="rgb(135,123,178)" stroke="rgb(135,123,178)" stroke-width="1" opacity="1" d="M 119.5 167 Q 125.6 168.4 128 173.5 L 133 186.5 L 135 200 L 63.5 200 Q 62.3 199.8 63 193.5 L 65 182.5 L 68 175 L 81.5 169 L 108.5 169 L 119.5 167 Z " /><path fill="rgb(135,123,178)" stroke="rgb(135,123,178)" stroke-width="1" opacity="1" d="M 57.5 177 Q 60.1 176.2 59 179.5 L 58 179.5 L 57.5 177 Z " /><path fill="rgb(135,123,178)" stroke="rgb(135,123,178)" stroke-width="1" opacity="1" d="M 43.5 182 L 46 182.5 L 43.5 183 L 43.5 182 Z " /><path fill="rgb(135,123,178)" stroke="rgb(135,123,178)" stroke-width="1" opacity="1" d="M 57.5 184 L 58 189.5 L 57 189.5 L 57.5 184 Z " /><path fill="rgb(135,123,178)" stroke="rgb(135,123,178)" stroke-width="1" opacity="1" d="M 43.5 186 L 44 188.5 L 43 188.5 L 43.5 186 Z " /><path fill="rgb(135,123,178)" stroke="rgb(135,123,178)" stroke-width="1" opacity="1" d="M 42.5 191 L 43 193.5 L 42 193.5 L 42.5 191 Z " /><path fill="rgb(135,123,178)" stroke="rgb(135,123,178)" stroke-width="1" opacity="1" d="M 56.5 192 L 57 199.5 L 56 199.5 L 56.5 192 Z " /><path fill="rgb(135,123,178)" stroke="rgb(135,123,178)" stroke-width="1" opacity="1" d="M 41.5 196 L 42 199.5 L 41 199.5 L 41.5 196 Z " /><path fill="rgb(108,99,152)" stroke="rgb(108,99,152)" stroke-width="1" opacity="1" d="M 139.5 82 L 138.5 84 L 136 83.5 L 139.5 82 Z " /><path fill="rgb(108,99,152)" stroke="rgb(108,99,152)" stroke-width="1" opacity="1" d="M 62.5 83 L 67 83.5 L 62.5 84 L 62.5 83 Z " /><path fill="rgb(108,99,152)" stroke="rgb(108,99,152)" stroke-width="1" opacity="1" d="M 160.5 83 L 159.5 85 L 160.5 83 Z " /><path fill="rgb(108,99,152)" stroke="rgb(108,99,152)" stroke-width="1" opacity="1" d="M 55.5 85 L 54.5 87 L 55.5 85 Z " /><path fill="rgb(108,99,152)" stroke="rgb(108,99,152)" stroke-width="1" opacity="1" d="M 48.5 86 L 47.5 88 L 48.5 86 Z " /><path fill="rgb(108,99,152)" stroke="rgb(108,99,152)" stroke-width="1" opacity="1" d="M 129.5 86 L 127.5 89 L 129.5 86 Z " /><path fill="rgb(108,99,152)" stroke="rgb(108,99,152)" stroke-width="1" opacity="1" d="M 51.5 88 L 49 91.5 L 48.5 93 L 48 91.5 L 51.5 88 Z " /><path fill="rgb(108,99,152)" stroke="rgb(108,99,152)" stroke-width="1" opacity="1" d="M 47.5 94 L 48 96.5 L 47 96.5 L 47.5 94 Z " /><path fill="rgb(108,99,152)" stroke="rgb(108,99,152)" stroke-width="1" opacity="1" d="M 124.5 94 L 122.5 97 L 120 96.5 L 124.5 94 Z " /><path fill="rgb(108,99,152)" stroke="rgb(108,99,152)" stroke-width="1" opacity="1" d="M 46.5 99 L 47 109.5 L 46 109.5 L 46.5 99 Z " /><path fill="rgb(108,99,152)" stroke="rgb(108,99,152)" stroke-width="1" opacity="1" d="M 54.5 100 L 53.5 102 L 54.5 100 Z " /><path fill="rgb(108,99,152)" stroke="rgb(108,99,152)" stroke-width="1" opacity="1" d="M 65.5 100 L 66.5 102 L 65.5 100 Z " /><path fill="rgb(108,99,152)" stroke="rgb(108,99,152)" stroke-width="1" opacity="1" d="M 132.5 100 L 131.5 102 L 132.5 100 Z " /><path fill="rgb(108,99,152)" stroke="rgb(108,99,152)" stroke-width="1" opacity="1" d="M 143.5 100 L 144.5 102 L 143.5 100 Z " /><path fill="rgb(108,99,152)" stroke="rgb(108,99,152)" stroke-width="1" opacity="1" d="M 52.5 103 L 53 105.5 L 52 105.5 L 52.5 103 Z " /><path fill="rgb(108,99,152)" stroke="rgb(108,99,152)" stroke-width="1" opacity="1" d="M 145.5 104 L 146 107.5 L 145 107.5 L 145.5 104 Z " /><path fill="rgb(108,99,152)" stroke="rgb(108,99,152)" stroke-width="1" opacity="1" d="M 70.5 105 L 72.5 108 L 70.5 105 Z " /><path fill="rgb(108,99,152)" stroke="rgb(108,99,152)" stroke-width="1" opacity="1" d="M 53.5 110 L 54.5 112 L 53.5 110 Z " /><path fill="rgb(108,99,152)" stroke="rgb(108,99,152)" stroke-width="1" opacity="1" d="M 123.5 111 L 124 113.5 L 123 113.5 L 123.5 111 Z " /><path fill="rgb(108,99,152)" stroke="rgb(108,99,152)" stroke-width="1" opacity="1" d="M 143.5 111 L 140.5 115 L 143.5 111 Z " /><path fill="rgb(108,99,152)" stroke="rgb(108,99,152)" stroke-width="1" opacity="1" d="M 44.5 113 L 39.5 119 L 44.5 113 Z " /><path fill="rgb(108,99,152)" stroke="rgb(108,99,152)" stroke-width="1" opacity="1" d="M 57.5 114 L 62 116.5 L 60.5 117 L 57.5 114 Z " /><path fill="rgb(108,99,152)" stroke="rgb(108,99,152)" stroke-width="1" opacity="1" d="M 73.5 114 L 74 115.5 Q 72 120 63.5 118 L 63.5 117 L 71.5 117 L 73 115.5 L 73.5 114 Z " /><path fill="rgb(108,99,152)" stroke="rgb(108,99,152)" stroke-width="1" opacity="1" d="M 124.5 115 L 126.5 117 L 135 117.5 L 126.5 118 L 124.5 115 Z " /><path fill="rgb(108,99,152)" stroke="rgb(108,99,152)" stroke-width="1" opacity="1" d="M 38.5 120 L 38 121.5 L 37.5 123 L 37 121.5 L 38.5 120 Z " /><path fill="rgb(108,99,152)" stroke="rgb(108,99,152)" stroke-width="1" opacity="1" d="M 36.5 124 L 37 126.5 L 36 126.5 L 36.5 124 Z " /><path fill="rgb(108,99,152)" stroke="rgb(108,99,152)" stroke-width="1" opacity="1" d="M 123.5 125 L 126 125.5 L 123 126 L 121.5 129 L 122 127.5 L 123.5 125 Z " /><path fill="rgb(108,99,152)" stroke="rgb(108,99,152)" stroke-width="1" opacity="1" d="M 127.5 126 L 131 126.5 L 127.5 127 L 127.5 126 Z " /><path fill="rgb(108,99,152)" stroke="rgb(108,99,152)" stroke-width="1" opacity="1" d="M 69.5 127 L 72 127.5 L 69.5 128 L 69.5 127 Z " /><path fill="rgb(108,99,152)" stroke="rgb(108,99,152)" stroke-width="1" opacity="1" d="M 65.5 128 L 68 128.5 L 65.5 129 L 65.5 128 Z " /><path fill="rgb(108,99,152)" stroke="rgb(108,99,152)" stroke-width="1" opacity="1" d="M 135.5 128 L 140 129.5 L 138.5 130 L 135.5 129 L 135.5 128 Z " /><path fill="rgb(108,99,152)" stroke="rgb(108,99,152)" stroke-width="1" opacity="1" d="M 101.5 129 L 116 129.5 L 101.5 130 L 101.5 129 Z " /><path fill="rgb(108,99,152)" stroke="rgb(108,99,152)" stroke-width="1" opacity="1" d="M 78.5 130 L 90 130.5 L 78.5 131 L 78.5 130 Z " /><path fill="rgb(108,99,152)" stroke="rgb(108,99,152)" stroke-width="1" opacity="1" d="M 141.5 130 L 148 133.5 L 146.5 133 L 141.5 131 L 141.5 130 Z " /><path fill="rgb(108,99,152)" stroke="rgb(108,99,152)" stroke-width="1" opacity="1" d="M 56.5 131 L 58 131.5 L 54.5 133 L 54.5 132 L 56.5 131 Z " /><path fill="rgb(108,99,152)" stroke="rgb(108,99,152)" stroke-width="1" opacity="1" d="M 149.5 134 L 154 137.5 L 155 139.5 L 153 138.5 Q 153.8 136.3 151.5 137 L 149.5 134 Z " /><path fill="rgb(108,99,152)" stroke="rgb(108,99,152)" stroke-width="1" opacity="1" d="M 36.5 137 L 37 138.5 L 36.5 140 L 38 140.5 L 36.5 141 Q 33.8 139.8 36 138.5 L 36.5 137 Z " /><path fill="rgb(108,99,152)" stroke="rgb(108,99,152)" stroke-width="1" opacity="1" d="M 44.5 137 L 43.5 139 L 44.5 137 Z " /><path fill="rgb(108,99,152)" stroke="rgb(108,99,152)" stroke-width="1" opacity="1" d="M 41.5 139 L 40 141.5 L 41 143.5 L 39 142.5 L 41.5 139 Z " /><path fill="rgb(108,99,152)" stroke="rgb(108,99,152)" stroke-width="1" opacity="1" d="M 154.5 141 L 155 146 L 137.5 151 L 137.5 150 L 151.5 144 L 154.5 141 Z " /><path fill="rgb(108,99,152)" stroke="rgb(108,99,152)" stroke-width="1" opacity="1" d="M 74.5 154 L 77 154.5 L 74.5 155 L 74.5 154 Z " /><path fill="rgb(108,99,152)" stroke="rgb(108,99,152)" stroke-width="1" opacity="1" d="M 99.5 155 L 103 155.5 L 99.5 156 L 99.5 155 Z " /><path fill="rgb(108,99,152)" stroke="rgb(108,99,152)" stroke-width="1" opacity="1" d="M 117.5 162 L 122 165.5 L 128 172.5 L 122.5 168 L 119.5 167 L 108.5 169 L 81.5 169 L 69.5 175 L 70.5 173 L 73 171.5 L 73 169.5 L 79.5 163 L 116.5 163 L 117.5 162 Z " /><path fill="rgb(108,99,152)" stroke="rgb(108,99,152)" stroke-width="1" opacity="1" d="M 58.5 180 L 59 185.5 L 58 185.5 L 58.5 180 Z " /><path fill="rgb(108,99,152)" stroke="rgb(108,99,152)" stroke-width="1" opacity="1" d="M 46.5 182 L 45.5 184 L 46.5 182 Z " /><path fill="rgb(108,99,152)" stroke="rgb(108,99,152)" stroke-width="1" opacity="1" d="M 63.5 187 L 64 192.5 L 63 192.5 L 63.5 187 Z " /><path fill="rgb(104,93,144)" stroke="rgb(104,93,144)" stroke-width="1" opacity="0.996078431372549" d="M 103.5 67 L 104.5 69 L 103.5 67 Z " /><path fill="rgb(104,93,144)" stroke="rgb(104,93,144)" stroke-width="1" opacity="0.996078431372549" d="M 36.5 78 L 40.5 83 L 36.5 78 Z " /><path fill="rgb(104,93,144)" stroke="rgb(104,93,144)" stroke-width="1" opacity="0.996078431372549" d="M 77.5 81 L 80.5 85 L 77.5 81 Z " /><path fill="rgb(104,93,144)" stroke="rgb(104,93,144)" stroke-width="1" opacity="0.996078431372549" d="M 141.5 83 L 146 85.5 L 150 94.5 L 149 94.5 L 145 85 Q 140.8 85 141.5 83 Z " /><path fill="rgb(104,93,144)" stroke="rgb(104,93,144)" stroke-width="1" opacity="0.996078431372549" d="M 71.5 86 L 72.5 88 L 71.5 86 Z " /><path fill="rgb(104,93,144)" stroke="rgb(104,93,144)" stroke-width="1" opacity="0.996078431372549" d="M 84.5 95 L 116 95.5 L 84.5 96 L 84.5 95 Z " /><path fill="rgb(104,93,144)" stroke="rgb(104,93,144)" stroke-width="1" opacity="0.996078431372549" d="M 79.5 96 L 83 96.5 L 79.5 97 L 79.5 96 Z " /><path fill="rgb(104,93,144)" stroke="rgb(104,93,144)" stroke-width="1" opacity="0.996078431372549" d="M 151.5 99 L 152 102.5 L 151 102.5 L 151.5 99 Z " /><path fill="rgb(104,93,144)" stroke="rgb(104,93,144)" stroke-width="1" opacity="0.996078431372549" d="M 152.5 105 L 153 113.5 L 161 122.5 L 161 131.5 L 160 131.5 Q 162.1 118.9 154.5 116 Q 152.3 116.8 153 114.5 L 152 113.5 L 152.5 105 Z " /><path fill="rgb(104,93,144)" stroke="rgb(104,93,144)" stroke-width="1" opacity="0.996078431372549" d="M 111.5 122 Q 120.9 120.1 124 124.5 L 122 125.5 L 120.5 123 L 111.5 123 L 111.5 122 Z " /><path fill="rgb(104,93,144)" stroke="rgb(104,93,144)" stroke-width="1" opacity="0.996078431372549" d="M 77.5 123 L 104 123.5 L 77.5 124 L 77.5 123 Z " /><path fill="rgb(104,93,144)" stroke="rgb(104,93,144)" stroke-width="1" opacity="0.996078431372549" d="M 72 124 L 76 124.5 L 72.5 127 L 72 124 Z " /><path fill="rgb(104,93,144)" stroke="rgb(104,93,144)" stroke-width="1" opacity="0.996078431372549" d="M 75.5 128 L 76.5 130 L 75.5 128 Z " /><path fill="rgb(104,93,144)" stroke="rgb(104,93,144)" stroke-width="1" opacity="0.996078431372549" d="M 159.5 133 L 160 134.5 L 156 139.5 L 155.5 146 L 155 139.5 L 159.5 133 Z " /><path fill="rgb(104,93,144)" stroke="rgb(104,93,144)" stroke-width="1" opacity="0.996078431372549" d="M 79.5 162 L 84 162.5 Q 77.1 162.1 75.5 167 L 79.5 162 Z " /><path fill="rgb(104,93,144)" stroke="rgb(104,93,144)" stroke-width="1" opacity="0.996078431372549" d="M 112.5 162 L 116 162.5 L 112.5 163 L 112.5 162 Z " /><path fill="rgb(104,93,144)" stroke="rgb(104,93,144)" stroke-width="1" opacity="0.996078431372549" d="M 122.5 166 L 123.5 168 L 122.5 166 Z " /><path fill="rgb(104,93,144)" stroke="rgb(104,93,144)" stroke-width="1" opacity="0.996078431372549" d="M 68.5 171 L 67.5 173 L 68.5 171 Z " /><path fill="rgb(104,93,144)" stroke="rgb(104,93,144)" stroke-width="1" opacity="0.996078431372549" d="M 63.5 174 L 64 176 L 60.5 177 L 60.5 176 L 63.5 174 Z " /><path fill="rgb(104,93,144)" stroke="rgb(104,93,144)" stroke-width="1" opacity="0.996078431372549" d="M 44.5 193 L 45 196.5 L 44 196.5 L 44.5 193 Z " /><path fill="rgb(105,93,145)" stroke="rgb(105,93,145)" stroke-width="1" opacity="1" d="M 139.5 83 L 145 85 L 151 98.5 L 152 113.5 L 153 116 L 159 120.5 Q 161.7 124.3 160 132.5 L 155.5 139 Q 153.3 139.8 154 137.5 Q 147.3 131.3 137.5 128 L 126.5 126 L 120.5 122 L 111.5 122 L 110.5 123 L 77.5 123 L 72 124 Q 73.7 128.1 69.5 127 Q 50.7 131.2 38.5 142 Q 34.6 137.4 36 127.5 L 39 119.5 L 47 109.5 L 48 93.5 L 53.5 87 Q 57.7 82.7 67.5 84 L 74 88 L 77 96 L 82.5 97 L 83.5 96 L 115.5 96 L 116.5 95 L 122.5 97 L 130.5 86 L 139.5 83 Z M 57 99 L 55 100 L 52 104 L 52 108 L 55 114 L 64 118 Q 72 120 74 116 L 73 108 L 66 100 L 57 99 Z M 135 99 L 128 103 L 123 112 Q 123 116 127 118 L 135 118 L 141 115 L 146 108 L 145 102 Q 142 98 135 99 Z " /><path fill="rgb(105,93,145)" stroke="rgb(105,93,145)" stroke-width="1" opacity="1" d="M 74.5 167 L 73 169.5 L 71.5 173 L 66 175.5 L 67 177.5 L 63 187.5 Q 64.3 196.4 62 200 L 57 200 L 57 192.5 L 59 185.5 L 59 177.5 L 58.5 176 L 61.5 177 L 64 176 Q 62.9 173.3 65.5 174 L 74.5 167 Z " /><path fill="rgb(105,93,145)" stroke="rgb(105,93,145)" stroke-width="1" opacity="1" d="M 124.5 168 L 126.5 171 L 124.5 168 Z " /><path fill="rgb(105,93,145)" stroke="rgb(105,93,145)" stroke-width="1" opacity="1" d="M 47.5 182 L 47 183.5 L 44 193.5 L 44 200 Q 40.7 201.3 42 196.5 L 44 186.5 L 47.5 182 Z " /><path fill="rgb(101,71,118)" stroke="rgb(101,71,118)" stroke-width="1" opacity="0.996078431372549" d="M 70.5 65 L 71.5 67 L 70.5 65 Z " /><path fill="rgb(101,71,118)" stroke="rgb(101,71,118)" stroke-width="1" opacity="0.996078431372549" d="M 98.5 66 L 97.5 68 L 98.5 66 Z " /><path fill="rgb(101,71,118)" stroke="rgb(101,71,118)" stroke-width="1" opacity="0.996078431372549" d="M 105.5 69 L 106.5 71 L 105.5 69 Z " /><path fill="rgb(101,71,118)" stroke="rgb(101,71,118)" stroke-width="1" opacity="0.996078431372549" d="M 154.5 70 L 155.5 72 L 154.5 70 Z " /><path fill="rgb(101,71,118)" stroke="rgb(101,71,118)" stroke-width="1" opacity="0.996078431372549" d="M 151.5 79 L 153.5 82 L 151.5 79 Z " /><path fill="rgb(101,71,118)" stroke="rgb(101,71,118)" stroke-width="1" opacity="0.996078431372549" d="M 146.5 85 L 154 94.5 L 157 111.5 L 165 121.5 L 166 132.5 Q 163.9 139.9 158.5 144 L 156.5 145 L 156 139.5 Q 162.7 135.2 161 122.5 L 153 113.5 L 152 99.5 L 149 90.5 L 146 86.5 L 146.5 85 Z " /><path fill="rgb(101,71,118)" stroke="rgb(101,71,118)" stroke-width="1" opacity="0.996078431372549" d="M 77.5 94 L 80 95.5 L 78.5 96 L 77.5 94 Z " /><path fill="rgb(101,71,118)" stroke="rgb(101,71,118)" stroke-width="1" opacity="0.996078431372549" d="M 90.5 94 L 93 94.5 L 90.5 95 L 90.5 94 Z " /><path fill="rgb(101,71,118)" stroke="rgb(101,71,118)" stroke-width="1" opacity="0.996078431372549" d="M 104.5 123 L 114 123.5 L 104.5 124 L 104.5 123 Z " /><path fill="rgb(101,71,118)" stroke="rgb(101,71,118)" stroke-width="1" opacity="0.996078431372549" d="M 119.5 123 L 122 124.5 L 120.5 124 L 119.5 123 Z " /><path fill="rgb(101,71,118)" stroke="rgb(101,71,118)" stroke-width="1" opacity="0.996078431372549" d="M 76.5 124 L 89 124.5 L 76 125 L 75.5 128 L 75 125.5 L 76.5 124 Z " /><path fill="rgb(101,71,118)" stroke="rgb(101,71,118)" stroke-width="1" opacity="0.996078431372549" d="M 121.5 127 L 120.5 129 L 121.5 127 Z " /><path fill="rgb(101,71,118)" stroke="rgb(101,71,118)" stroke-width="1" opacity="0.996078431372549" d="M 93.5 129 L 99 129.5 L 93.5 130 L 93.5 129 Z " /><path fill="rgb(101,71,118)" stroke="rgb(101,71,118)" stroke-width="1" opacity="0.996078431372549" d="M 90.5 155 L 96 155.5 L 90.5 156 L 90.5 155 Z " /><path fill="rgb(101,71,118)" stroke="rgb(101,71,118)" stroke-width="1" opacity="0.996078431372549" d="M 105.5 155 L 108 155.5 L 105.5 156 L 105.5 155 Z " /><path fill="rgb(101,71,118)" stroke="rgb(101,71,118)" stroke-width="1" opacity="0.996078431372549" d="M 53.5 162 Q 57.5 161.5 58 164.5 L 52.5 172 L 46.5 174 L 47 172.5 L 53.5 162 Z " /><path fill="rgb(101,71,118)" stroke="rgb(101,71,118)" stroke-width="1" opacity="0.996078431372549" d="M 84.5 162 L 92 162.5 L 84.5 163 L 84.5 162 Z " /><path fill="rgb(101,71,118)" stroke="rgb(101,71,118)" stroke-width="1" opacity="0.996078431372549" d="M 95.5 162 L 112 162.5 L 95.5 163 L 95.5 162 Z " /><path fill="rgb(101,71,118)" stroke="rgb(101,71,118)" stroke-width="1" opacity="0.996078431372549" d="M 119.5 162 L 122.5 166 L 119.5 162 Z " /><path fill="rgb(101,71,118)" stroke="rgb(101,71,118)" stroke-width="1" opacity="0.996078431372549" d="M 134.5 164 L 143.5 164 L 149 169.5 L 150 172.5 L 146.5 173 L 133 165.5 L 134.5 164 Z " /><path fill="rgb(101,71,118)" stroke="rgb(101,71,118)" stroke-width="1" opacity="0.996078431372549" d="M 73.5 167 L 71.5 170 L 73.5 167 Z " /><path fill="rgb(101,71,118)" stroke="rgb(101,71,118)" stroke-width="1" opacity="0.996078431372549" d="M 125.5 168 Q 131.1 174.9 140 178.5 L 146 199.5 L 136 200 L 130 175.5 L 125.5 168 Z " /><path fill="rgb(101,71,118)" stroke="rgb(101,71,118)" stroke-width="1" opacity="0.996078431372549" d="M 148 181 Q 151.6 183.6 158 183 L 163 199.5 L 153 200 L 150 185.5 L 148 181 Z " /><path fill="rgb(101,71,118)" stroke="rgb(101,71,118)" stroke-width="1" opacity="0.996078431372549" d="M 45.5 191 L 46 193.5 L 45 193.5 L 45.5 191 Z " /><path fill="rgb(101,71,118)" stroke="rgb(101,71,118)" stroke-width="1" opacity="0.996078431372549" d="M 44.5 197 L 45 199.5 L 44 199.5 L 44.5 197 Z " /><path fill="rgb(0,0,0)" stroke="rgb(0,0,0)" stroke-width="1" opacity="0.9725490196078431" d="M 139.5 30 L 142 31 L 160.5 68 L 179 80.5 L 176.5 84 L 162 91 L 161 95.5 L 164 108.5 L 172 119.5 L 173 134.5 Q 169.6 145.1 161.5 151 L 151 155 L 161 171.5 Q 167.6 184.2 170 200 L 164.5 200 L 164 198.5 L 159 183.5 L 155 176.5 L 155 173.5 L 144.5 158 L 142.5 157 L 123.5 161 L 83.5 162 L 79.5 161 L 76.5 162 L 55.5 158 L 44 174.5 L 37 193.5 L 36 200 L 30 200 L 30 197.5 Q 35.3 172.6 48 156 Q 37.8 153.1 31 145.5 Q 24 138.5 25 123.5 Q 28 114 35 108.5 L 35 101.5 L 38 90.5 L 24 74.5 L 43.5 65 L 47 61.5 L 58 38.5 L 63.5 31 L 66 32.5 L 77.5 63 L 86.5 67 L 89.5 67 L 99.5 55 L 101.5 55 L 107 60.5 L 112.5 67 L 128 59.5 L 135 36.5 L 139.5 30 Z M 139 42 L 132 65 L 116 73 L 111 74 L 106 69 L 102 64 L 99 64 L 99 66 L 91 74 L 75 68 L 70 63 L 64 46 Q 65 42 63 43 L 51 67 L 34 77 L 41 84 L 43 84 Q 47 78 55 76 L 67 76 L 79 83 L 84 89 L 86 88 L 89 89 L 91 88 L 113 88 L 114 89 L 116 86 Q 121 79 130 76 L 144 76 L 152 80 L 154 84 L 158 86 L 167 82 L 168 80 L 158 73 L 152 67 L 142 44 L 139 42 Z M 58 81 L 48 86 L 42 97 L 40 113 Q 34 117 31 125 Q 30 135 34 140 Q 43 149 58 153 Q 64 152 67 155 L 99 156 L 100 157 L 138 153 L 152 149 L 159 145 Q 164 141 167 134 L 166 122 L 158 111 L 156 98 L 151 88 L 141 81 Q 131 80 127 84 Q 120 87 120 94 L 86 94 Q 84 96 80 95 L 76 90 Q 71 81 58 81 Z " /><path fill="rgb(51,14,24)" stroke="rgb(51,14,24)" stroke-width="1" opacity="0.996078431372549" d="M 139.5 42 L 142 43.5 L 141.5 45 L 141 43 L 139.5 42 Z " /><path fill="rgb(51,14,24)" stroke="rgb(51,14,24)" stroke-width="1" opacity="0.996078431372549" d="M 62.5 43 L 64 43.5 L 61.5 45 L 62.5 43 Z " /><path fill="rgb(51,14,24)" stroke="rgb(51,14,24)" stroke-width="1" opacity="0.996078431372549" d="M 150.5 63 L 151.5 65 L 150.5 63 Z " /><path fill="rgb(51,14,24)" stroke="rgb(51,14,24)" stroke-width="1" opacity="0.996078431372549" d="M 101.5 64 L 105.5 69 L 101.5 64 Z " /><path fill="rgb(51,14,24)" stroke="rgb(51,14,24)" stroke-width="1" opacity="0.996078431372549" d="M 71.5 65 L 72.5 67 L 71.5 65 Z " /><path fill="rgb(51,14,24)" stroke="rgb(51,14,24)" stroke-width="1" opacity="0.996078431372549" d="M 154.5 69 L 155.5 71 L 154.5 69 Z " /><path fill="rgb(51,14,24)" stroke="rgb(51,14,24)" stroke-width="1" opacity="0.996078431372549" d="M 35.5 75 L 34.5 77 L 35.5 75 Z " /><path fill="rgb(51,14,24)" stroke="rgb(51,14,24)" stroke-width="1" opacity="0.996078431372549" d="M 132.5 75 L 141 75.5 L 132.5 76 L 132.5 75 Z " /><path fill="rgb(51,14,24)" stroke="rgb(51,14,24)" stroke-width="1" opacity="0.996078431372549" d="M 163.5 76 L 164.5 78 L 163.5 76 Z " /><path fill="rgb(51,14,24)" stroke="rgb(51,14,24)" stroke-width="1" opacity="0.996078431372549" d="M 166.5 78 L 167.5 80 L 166.5 78 Z " /><path fill="rgb(51,14,24)" stroke="rgb(51,14,24)" stroke-width="1" opacity="0.996078431372549" d="M 36.5 79 L 40.5 84 L 36.5 79 Z " /><path fill="rgb(51,14,24)" stroke="rgb(51,14,24)" stroke-width="1" opacity="0.996078431372549" d="M 76.5 81 L 77.5 83 L 76.5 81 Z " /><path fill="rgb(51,14,24)" stroke="rgb(51,14,24)" stroke-width="1" opacity="0.996078431372549" d="M 119.5 81 L 117.5 84 L 119.5 81 Z " /><path fill="rgb(51,14,24)" stroke="rgb(51,14,24)" stroke-width="1" opacity="0.996078431372549" d="M 43.5 82 L 42.5 84 L 43.5 82 Z " /><path fill="rgb(51,14,24)" stroke="rgb(51,14,24)" stroke-width="1" opacity="0.996078431372549" d="M 154.5 83 L 155.5 85 L 154.5 83 Z " /><path fill="rgb(51,14,24)" stroke="rgb(51,14,24)" stroke-width="1" opacity="0.996078431372549" d="M 70.5 84 L 71.5 86 L 70.5 84 Z " /><path fill="rgb(51,14,24)" stroke="rgb(51,14,24)" stroke-width="1" opacity="0.996078431372549" d="M 79.5 84 L 80.5 86 L 79.5 84 Z " /><path fill="rgb(51,14,24)" stroke="rgb(51,14,24)" stroke-width="1" opacity="0.996078431372549" d="M 148.5 85 L 150.5 88 L 148.5 85 Z " /><path fill="rgb(51,14,24)" stroke="rgb(51,14,24)" stroke-width="1" opacity="0.996078431372549" d="M 47.5 86 L 46.5 88 L 47.5 86 Z " /><path fill="rgb(51,14,24)" stroke="rgb(51,14,24)" stroke-width="1" opacity="0.996078431372549" d="M 77.5 93 L 78.5 95 L 77.5 93 Z " /><path fill="rgb(51,14,24)" stroke="rgb(51,14,24)" stroke-width="1" opacity="0.996078431372549" d="M 156.5 102 L 157 104.5 L 156 104.5 L 156.5 102 Z " /><path fill="rgb(51,14,24)" stroke="rgb(51,14,24)" stroke-width="1" opacity="0.996078431372549" d="M 160.5 114 L 163.5 118 L 160.5 114 Z " /><path fill="rgb(51,14,24)" stroke="rgb(51,14,24)" stroke-width="1" opacity="0.996078431372549" d="M 166.5 124 L 167 128.5 L 166 128.5 L 166.5 124 Z " /><path fill="rgb(51,14,24)" stroke="rgb(51,14,24)" stroke-width="1" opacity="0.996078431372549" d="M 166.5 131 L 167 133.5 L 166 133.5 L 166.5 131 Z " /><path fill="rgb(51,14,24)" stroke="rgb(51,14,24)" stroke-width="1" opacity="0.996078431372549" d="M 165.5 135 L 166 136.5 L 164 137.5 L 165.5 135 Z " /><path fill="rgb(51,14,24)" stroke="rgb(51,14,24)" stroke-width="1" opacity="0.996078431372549" d="M 34.5 139 L 35.5 141 L 34.5 139 Z " /><path fill="rgb(51,14,24)" stroke="rgb(51,14,24)" stroke-width="1" opacity="0.996078431372549" d="M 163.5 139 L 162.5 141 L 163.5 139 Z " /><path fill="rgb(51,14,24)" stroke="rgb(51,14,24)" stroke-width="1" opacity="0.996078431372549" d="M 159.5 143 L 158.5 145 L 159.5 143 Z " /><path fill="rgb(51,14,24)" stroke="rgb(51,14,24)" stroke-width="1" opacity="0.996078431372549" d="M 121.5 154 L 124 154.5 L 121.5 155 L 121.5 154 Z " /><path fill="rgb(51,14,24)" stroke="rgb(51,14,24)" stroke-width="1" opacity="0.996078431372549" d="M 77.5 155 L 80 155.5 L 77.5 156 L 77.5 155 Z " /><path fill="rgb(51,14,24)" stroke="rgb(51,14,24)" stroke-width="1" opacity="0.996078431372549" d="M 112.5 155 L 115 155.5 L 112.5 156 L 112.5 155 Z " /><path fill="rgb(51,14,24)" stroke="rgb(51,14,24)" stroke-width="1" opacity="0.996078431372549" d="M 99.5 156 L 103 156.5 L 99.5 157 L 99.5 156 Z " /><path fill="rgb(51,14,24)" stroke="rgb(51,14,24)" stroke-width="1" opacity="0.996078431372549" d="M 55.5 158 L 52.5 162 L 55.5 158 Z " /><path fill="rgb(51,14,24)" stroke="rgb(51,14,24)" stroke-width="1" opacity="0.996078431372549" d="M 137.5 158 L 140 158.5 L 137.5 159 L 137.5 158 Z " /><path fill="rgb(51,14,24)" stroke="rgb(51,14,24)" stroke-width="1" opacity="0.996078431372549" d="M 144.5 158 L 146.5 161 L 144.5 158 Z " /><path fill="rgb(51,14,24)" stroke="rgb(51,14,24)" stroke-width="1" opacity="0.996078431372549" d="M 132.5 159 L 135 159.5 L 132.5 160 L 132.5 159 Z " /><path fill="rgb(51,14,24)" stroke="rgb(51,14,24)" stroke-width="1" opacity="0.996078431372549" d="M 66.5 160 L 69 160.5 L 66.5 161 L 66.5 160 Z " /><path fill="rgb(51,14,24)" stroke="rgb(51,14,24)" stroke-width="1" opacity="0.996078431372549" d="M 124.5 160 Q 128.9 158.5 128 161.5 L 136.5 169 L 147.5 174 L 154 175 L 151 168.5 L 153 169.5 L 158 181.5 L 152.5 182 Q 131.6 176.9 120 162.5 Q 119.1 159.5 123.5 161 L 124.5 160 Z " /><path fill="rgb(51,14,24)" stroke="rgb(51,14,24)" stroke-width="1" opacity="0.996078431372549" d="M 70.5 161 Q 75.9 160.1 78 162.5 L 66.5 172 L 49.5 181 L 47.5 181 L 42 182 L 44.5 174 L 46.5 175 Q 60.5 170 70.5 161 Z " /><path fill="rgb(51,14,24)" stroke="rgb(51,14,24)" stroke-width="1" opacity="0.996078431372549" d="M 79.5 161 L 83 161.5 L 79.5 162 L 79.5 161 Z " /><path fill="rgb(51,14,24)" stroke="rgb(51,14,24)" stroke-width="1" opacity="0.996078431372549" d="M 112.5 161 L 116 161.5 L 112.5 162 L 112.5 161 Z " /><path fill="rgb(51,14,24)" stroke="rgb(51,14,24)" stroke-width="1" opacity="0.996078431372549" d="M 147.5 162 L 151 166.5 L 149 165.5 L 147.5 162 Z " /></svg>