<svg xmlns="http://www.w3.org/2000/svg" width="200" height="200"><path stroke="#000" d="M0 0h200v200h-25.5l-.5-3.5-6-26-7-17-6-8q12.8-5.2 21-15l4-18v-23l-9-13v-7l-5-19-7-15-4.5-5.5-4-1q-22.2 6.3-37 20h-6l-1-1h-18l-19-17-6-4-5-1-7.5 5.5-12 24-4 20-11 15v24l2 9.5q-8.1.8-12 7.5l-3 6v14q4.2 20.3 17.5 31.5l9 3H46v13.5l-.5.5H0z" opacity="0"/><path stroke="#000" d="m58.5 26 2.5.5-2.5.5zm-4 2-3 4zm96 1 2.5.5-2.5.5zm4 1 2 3zm-104 3-1 2zm107 1 3.5 5.5-2-1zm-80 3 10 11zm53 0-1 2zm-83 1-1 2zm78 2-1 2zm-3 2-1 2zm-3 2-2 3zm-4 3-1 2zm-13 1 4.5.5-4.5.5zm68 21 .5 2.5h-1zm-135 2 .5 2.5h-1zm-1 5-1 2zm-3 4-2 3zm142 0 1 2zm2 3 1 2zm-148 2-1 2zm150 1 1 2zm2 3 .5 6.5h-1zm-1 28 .5 2.5h-1zm-157 8 1.5.5-2.5 1.5zm-3 2-4 5zm153 7-2 3zm-4 3-1 2zm-3 2-1 2zm-9 5 1 4q-4.5-2-1-4Zm4 8 1 2zm-137 24 6 7zm150 13 .5 2.5h-1zm1 7 .5 3.5h-1z" opacity=".306"/><path stroke="#000" d="m55.5 28-4 5zm9 0 1 2zm3 2 1 2zm3 2 2 3zm-20 2-1 2zm24 1 2 3zm57 2-1 2zm-84 2-1 2zm112 0 3.5 6.5h-1zm-33 1-1 2zm-3 2-1 2zm-3 2-1 2zm-34 3 1 1 14.5.5-14.5.5zm30 0-1 2zm53 19 .5 2.5h-1zm-133 2 .5 2.5h-1zm134 4 .5 4.5h-1zm-136 5-2 3zm137 1 1 2zm2 3 1 2zm-144 2-1 2zm146 1 1 2zm-151 8 .5 5.5h-1zm155 4 .5 4.5h-1zm0 8 .5 6.5h-1zm-155 5 .5 3.5h-1zm-5 18-5 6zm155 4-2 3zm-163 8 .5 3.5h-1zm144 8 2 3zm4 6 1 2zm-140 18 1 2zm2 3 2 3zm7 7 1 2zm11 4 7.5.5-7.5.5zm7 3 .5 11.5h-1zm126 4 .5 2.5h-1z" opacity=".655"/><path fill="#2f2028" stroke="#2f2028" d="m56.5 36-1 2zm8 0 1 2zm4 3 1 2zm4 3 2 3zm9 9 2 3zm40 0-1 2zm-31 4 14.5.5-14.5.5zm-50 25-3 4zm125 0 2.5 3.5-3-2zm-103 5-1 2zm51 2-3 4zm-41 1 1 2zm98 0 1 2zm-39 1 1 2zm-77 2-1 2zm63 0-3 4zm-49 1 3 4zm67 0 2 3zm-29 1-2 3zm-29 1 2 3zm-18 1-1 2zm43 1-1 2-1.5-.5zm9 0-2 3zm20 0 2 3zm-49 1 3.5.5-3.5.5zm59 0 1 2zm-66 3 1 2zm31 0-1 2zm-60 3 .5 8.5h-1zm40 0 15.5.5-15.5.5zm87 0 .5 4.5h-1zm-35 1 .5 3.5h-1zm-87 3 .5 10.5h-1zm12 2-1 2zm12 2 .5 3.5h-1zm69 0 .5 9.5h-1zm-98 4 .5 5.5h-1zm90 5-1 2zm-89 2 1 2zm-14 1 2 3zm28 1 1 2zm80 0-1 2zm-55 2 3.5 1.5-2.5.5zm-48 1 1 2zm63 0-1 2-1.5-.5zm21 1 .5 3.5h-1zm41 3-1 2zm-142 2-2 3zm37 0 2 3zm4 3 1 2zm20 0 2.5.5-2.5.5zm46 0-1 2-3 2 2-3zm-90 3 1 2zm40 2 2.5.5-2.5.5zm8 1 4.5.5-4.5.5zm19 0 4.5.5-4.5.5zm-63 2 1 2zm42 3 2.5.5-2.5.5zm61 0 2.5.5-3 .5 5 8.5q-1.8 7.8 2.5 9.5 2.3-.7 1.5 1.5l2 7q-1.4 2.8-6 1.5-.3-8-6-11.5V156l-6.5-1-18 8 8-9 4-3q8.6-.4 14-4Zm-127 1 .5 2.5h-1zm31 3 2.5.5-2.5.5zm25 1 3.5.5-3.5.5zm12 1 3.5.5-3.5.5zm24 0 2.5.5-2.5.5zm-53 4 1 2zm44.5 10q2.7-1.1 2 1.5l11 13v3L102.5 198q-2.6 3.4-10 2l6-7 10.5-9.5-9-11v-2zm-53.5 3 .5 3.5h-1zm-21 1 1 2z"/><path fill="#2f2028" stroke="#2f2028" d="M132.5 171q5-.5 5.5 3.5l-.5 1.5-3-4-3.5 1.5-.5 1.5-.5-3zm-85 5 .5 1.5q-1.7 3.3-8.5 1.5v-1q8.1 1.8 8-2Zm85 6 5.5 18q-10.7 2-14-4.5zM62 183h6.5l1.5 1.5 14 15-7.5.5q-9.1-7.3-14.5-17Zm103.5 10 .5 2.5h-1z"/><path fill="#98415c" stroke="#98415c" d="m147.5 42-1 2-5 3 1-2zm3 1 3 4zm-99 3-1 2zm86 2-1 2zm17 0 2.5.5q-2.1 3.3-2.5-.5Zm-20 2-2 3zm-12 1-1 2zm-53 8 2.5.5-2.5.5zm44 1 3.5.5-4.5 1.5zm9 1 7.5.5-7.5.5zm-12 1-1 2zM94 63l2 .5-5 4zm12.5 2-1 2zm-30 2 2.5 1.5-1.5-.5zm26 1-1 2zm-37 2 2.5.5-2.5.5zm-3 1 1.5.5-6.5 4.5 3-4zm18 0 1 2zm18 0 1.5.5-2.5 1.5zm-4 3-2 3zm-38 3-3 4-3.5-.5q5.1.1 6.5-3.5Zm59 0-1 2zm12 2 5.5 3.5-1.5-.5q-4-.5-4-3Zm-51 1 2 3zm-21 1-1 2zm55 0-2 3-5 4 4-5zm-71 1-2 3zm7 0-2 3-3 2 2-3zm5 2-1 2zm85 0 1 2zm-56 1 1 2zm61 2 2 3zm-103 1L36 91.5l-.5 7.5-.5-7.5zm45 0 2.5 1.5-1.5.5zm-38 1-5 6zm46 0 8.5.5-8.5.5zm55 2 3 4zm17 0-5 6 1.5-2.5q-1.2-3.7 2.5-2.5zm-86 2 1 2zm91 4-.5 1.5q.8 2.3-1.5 1.5l-2.5 1.5zm2 0q2.5 1 1.5 5.5l-4 16.5-4-1.5 1.5.5q2.6.8 1.5-2.5l4-13v-4zm-115 2-1 2zm101 0 .5 8.5h-1zm-4 2 .5 2.5h-1zm12 8 .5 4.5h-1zm-125 6 .5 2.5h-1zm-4 1 .5 7.5h-1zm122 0 .5 6.5 2 2-1.5-.5q-4.2 1.3-2.5-3.5zm-5 5 .5 3.5h-1zm-111 3 1 2zm115 1 1.5.5-2 .5-.5 4-.5-3.5zm5 0q3 1.5 0 3zm-119 6 8.5 4.5-2.5 1.5v-2l-2 1v-2l-4.5-1zm110 0 1.5.5-3.5 1.5v-1zm-12 2-1 2zm7 0 1.5.5-4.5 2.5 1-2zm-129 9 .5 2.5h-1zm75 1 9.5.5-9.5.5zm-57 1 1 2-1-1-4 4-4.5 1q1 3-2 2-1.1-2.7 1.5-2 6.1-1.4 9-6Zm-17 3 2.5 1.5-1.5 3.5zm74 0 2.5.5-2.5.5zm-26 5 .5 3.5h-1zm49 1-2 3zm-83 1 1.5.5-7.5 3.5v-1zM21 156l3 1.5-3 .5zm47.5 1 .5 2.5h-1zm30 0-1 2zm-10 1 4.5.5-4.5.5zm21 3q.1 6.9 5.5 8.5l-6-5zm-38 5-7 8zm45 6 3 4zm5 6 2 3zm2 4-5 6zm-58 7 1 2zm88 0 2.5.5-2.5.5zm-7 2q3-.5 1.5 6.5l1 2h-1zm15 4 .5 4.5h-1zm-96 2-2 3z"/><path fill="#e4c09a" stroke="#e4c09a" d="m52.5 50 1.5 2.5-2-1zm104 1 1.5.5-3.5 2.5zm4 8 1.5 4.5-2-1-1-2zm-116 6 .5 2.5h-1zm-1 6 1 3 6-3 .5 3.5-7.5 4.5zm119 5q2.6-.8 1.5 2.5l1 2.5-7-2.5zm-104 4-1 2zm17 0 1 2zm-20 2-1 2zm9 1 2.5.5-2.5.5zm45 0 2.5 4.5q-3.7 5.7-10 7.5-1.5-5.4 1.5-7zm-57 1-2 3zm17 0 3.5 2.5-2.5-1.5zm10 1 1 2zm-20 1-1 2zm-25 3 .5 2.5h-1zm12 0-5 6zm9 0-1 2zm19 0 4 5z"/><path fill="#e4c09a" stroke="#e4c09a" d="M119.5 91q10.9 3.6 17.5 11.5l-1.5-.5-9-6-4-1-16 12h-25q-8.6-3.4-14-10L57 103.5l-3.5 6.5-.5-6.5 5.5-6.5 8-5 10 11q3.8 2.7 12 1l1 1h11l5-2zm-68 1-4 5zm-5 6 .5 1.5-2 1zm91 7 .5 2.5h-1zm26 1 .5 8.5h-1zm-40 2 1 2zm34 0 .5 3.5h-1zm-45 1-1 2zm14 2 .5 3.5h-1zm-64 4 1 2zm28 0 6.5 1-2 3.5.5 1.5-4-1-1.5.5.5-1.5-2.5-1.5q-.7-2.2 1.5-1.5zm21 1 1 2zm25 3-1 2zm8 4-1 2zm-96 1 1 2zm103 0 .5 1.5-2 1zm-107 1 1 2zm20 0 1 2zm77 0-1 2zm6 3-1 2zm-95 2 3.5 1.5-2.5.5zm92 0-1 2zm-14.5 3 9 1.5v2l1 4-7.5 2.5q-3.6-3.2-2.5-10Zm-47.5 2 2.5.5-2.5.5zm-19 5 1.5 2.5-2-1zm59 1q4.6-1.2 2.5 4l-10.5 2 .5-1.5 2.5-3.5zm-44 1q2.3-.7 1.5 1.5zm-37 2 1 2-1.5-.5-.5 1.5-.5-1.5zm35 1 2.5.5-2.5.5zm16 10 7.5.5-3.5 2.5-4-2zM22 158q4.7-1 6 2.5l3 7-2.5 1.5-3.5-2.5zm23.5 0-1 2zm66 7 4 5zm-52 5-2 3zm-3 4-1 2zm63 0 1 2zm39 1 2.5.5-2.5.5zm-16 4 3.5 12-4-1.5-2-9.5zm20 1 .5 2.5h-1z"/><path fill="#9a3a5b" stroke="#9a3a5b" d="M60.5 34 80 50.5 70 54v5h-1.5l.5-1.5-5-17zm88 8q2.3-.7 1.5 1.5l6 8-5 3.5 1 10.5 2 5V78q10.3 1 15 8.5l2 4-1.5-.5-3-1q-1.9 3.6-6.5 3v2.5l-4 5v8l1 1v11l-1 4.5 6 2.5-1.5.5-4-2q-2.7 1.4-1.5 6l-16 6 2.5-4 10.5-6.5 1-2v-23q-1.1-7.4-6.5-10.5l-21-13-10-1-15 13-1-1h-8l-5 1-4.5-2-8-12-6.5-1Q50.6 81.6 40 94.5l-1 2v21l3.5 8.5 9.5 5-.5 5-10.5-5-5-6.5-1-25q2.7-1.7 1-8l4.5-4.5 9-6h4l3.5-3.5 3.5-4.5 17-5 9 10h4q3.5-5 9.5-6-1.1-2.7 1.5-2l12-9h8q1.8 2.8 8 1 3.5-2 2.5-8.5l3.5-3.5zm-76 17 2.5.5-2.5.5z"/><path fill="#9a3a5b" stroke="#9a3a5b" d="m91.5 64 2.5.5q-1.3 4.3-6 3.5l-1-2.5zm78 33q2.5 1 1.5 5.5l-4 15.5-3-1.5 1-7q-2.5-1.5-1-7l4-2.5zm-133 48 2.5 5.5-3 1.5q1.3 3-2.5 2l-5 3-2.5-4.5 2-.5q-1.2-3 2.5-2zm-17 3 .5 2.5h-1zm1.5 1 2 .5-1 3 2 4-1.5-.5-2.5-1.5zm46.5 2 4.5 1 4.5 10 22 2 12-10h4l-4.5 5.5-1 5 15 17-11 13 4.5 5.5-16.5-.5 12-11 3-4v-3L104 166l-2.5-1h-28l-1.5.5q.9-3-3.5-1.5l.5-1.5v-5zm89 38q4.8-1.7 3.5 2.5l1 1v7.5h-11.5l-.5-1.5-1-1V191zm-89 3 7 8-10.5-.5 2-2z"/><path fill="#b46772" stroke="#b46772" d="M59.5 34 67 49.5l1 9 1.5 1.5q5.3-1.2 6.5 1.5l3 6-1.5-.5-15 4-5.5 4.5-3.5 4.5-7 2-11 9-1.5-2.5L42.5 78h2l6.5-3.5 4-20-4-7zm87 4q4.5-1 5.5 1.5l6 11-2 .5-6.5-10L132 52.5l-1 8.5h-13.5l-3.5-1.5 1-2.5q13.4-11.4 31.5-19Zm-60 18 20.5.5L94.5 66l1-3-8.5 2 2 3.5-3-2-3-9.5zm22 7-1 2zm-3 2-2 3zm-4 3-2 3zm-5 4-1 2zm67 0 .5 2.5h-1zm-81 1 3 4zm-8 5 1 2zm39 1-3 4zm-36 3 2 3zm41 1 2.5.5-2.5.5zm-11 1-3 4zm28 0 1 2zm-86 2-2 3zm32 1 2 3zm31 0-2 3zm28 0 1 2zm-38 1-1 2zm42 2 1 2zm21 0-3 4zm-101 2-1 2zm3 0 2 3zm50 0-3 4zm19 0 1 2zm-76 3-1 2zm42 0-1 2zm47 0 1 2zm-18 2 2 3zm40 0 1.5 1.5v11l-2 11.5-5-1.5 2-.5 4-20.5zm-132 1 .5 16.5h-1zm71 0-1 2zm-76 1 .5 17.5h-1zm39 0 3 4zm33 2-1 2zm57 1 .5 3.5h-1zm-74 2 11.5.5-11.5.5zm63 0 .5 16.5h-1zm-86 3 3.5.5-3.5.5zm-21 1 .5 12.5h-1zm7 0 .5 10.5 1 1-2-1zm11 0-1 2zm56 0 3.5.5-3.5.5zm19 3 .5 6.5h-1zm19 1 .5 3.5h-1zm-82 3-1 2zm50 0-2 3zm-85 3q.4 6.1 4.5 8.5l-4-3zm76 0 4.5.5-4.5.5zm-25 2 3.5.5-3.5.5zm-45 2 1 2zm112 0 2 3zm-73 2 1.5 3.5-2-1zm77 1 4.5 3.5-15.5 9.5-11 3-1.5-3 14.5-6 2.5-2.5q-1.7-4.8 2.5-3.5l3 2zm-60 2-1 2zm47 0-1 2zm-101 1 1 2zm3 2 1 2zM28 131l3 .5v2q-.9 3 3.5 1.5l6.5 9.5-1.5 4.5-3-5q-3.1 5.4-11 6l-6.5-3.5-1-6 1-3.5q3.7 1.5 3-1.5l-.5-1.5 3-1 2 1zm-2 4-2 1-4 6q-1 5 4 6h5l4-4-1-7q-1-3-6-2Zm17.5-2 8.5 3 .5-2 .5 4.5-2.5-1.5-6-2zm86 0 .5 3.5h-1zm-39 3 16.5.5-16.5.5zm-1 7 3.5.5-3.5.5zm14 0 3.5.5-3.5.5zm-7 4 3.5.5-3.5.5zm7 0 6.5.5-6.5.5zm-65 4-3 4zm9 0 1.5 2.5h-1zm44 3 10.5.5-3 2 .5-1.5h-8zm-12 2 1 2zm34 0-2 3zm-20 2 3.5.5-3.5.5zm-48 1-2 3zm22 4 4.5 2.5q-8.2 6.3-13 16l8 11-2 3 .5 1.5L54 179.5q3.6-8.9 10.5-14.5zm54 3 1 2zm-96 1 2.5 1.5-1.5.5zm90 3 3 4zm-38 1 20.5.5-20.5.5zm-2 1-1 2zm51 0 1 2zm-6 4 2 3zm-51 2-1 2zm-1 4 1 2zm55 1-5 6zm34 5 6.5 1q2.1 3.4 1 11-4.9 1.8-3-4.5l-2.5-6.5q-3 .5-2-1Zm-40 2-3 4zm25 0 4.5 2.5q-.6 5.4 1 7.5l-3-1.5q-.3-6.4-2.5-8.5Zm-28 5 4 5z"/><path fill="#f8edc7" stroke="#f8edc7" d="M50 49q3-1.2 2 2.5l3 5-4 14-1.5 1.5-5 2-.5-5.5zm106.5 3q2.6-.8 1.5 2.5l2 5-1.5-.5-5.5 4.5-1-7zm-87 24 5.5 3.5 9 11-2 5.5-3-1.5L70.5 84l-6-1L47 96.5l-1.5 3.5-4.5-4.5 8.5-8.5q8-7.5 20-11Z"/><path fill="#f8edc7" stroke="#f8edc7" d="m122.5 95 4 1 10.5 7.5 1 15.5-8.5 5h-4l-5.5-4.5 7-5q.8-5.7-3.5-6.5-9.4-1.9-12.5 2.5l-1.5 3.5q-8-5-23-3l-9 3-1.5-5-8.5-3-6.5 4.5q-.6 5.1 2.5 6.5l6.5 1.5-6 5-.5 1.5-10.5-6.5 1-11 5.5-6.5 8-4q5.4 6.6 14 10h25zm-46 20-1 2z"/><path fill="#f8edc7" stroke="#f8edc7" d="m87 115 3 .5-2 .5 1.5 3 1.5.5-1.5.5q-3.2-1.2-2.5-5Zm8.5 0 3.5 1.5q.8 2.3-1.5 1.5l-2.5 1.5 2-3.5zM43 122h3q-1.1 2.7 1.5 2l10.5 6.5-4.5.5-10.5-6zm102 0q4.6-1.2 6 1.5.5 4-2.5 4.5l-10 6h-6l-2.5-1.5 4.5-1.5 10.5-7.5zm-43.5 1 1 2zm-13 12 6.5.5-6.5.5zm-24 4 8 3h5l1.5 1.5q.6 2.8-5.5 1.5l-9.5-3.5zm-23 6 6.5 8.5-4.5 7.5-.5-2q-4.1 1.7-3-2.5l1-4-1-5zM157 176h4v1.5l3 10-3 .5z"/><path fill="#e8faf6" stroke="#e8faf6" d="M78.5 58q3.8-.7 4.5 1.5l2 5-6.5 1.5-2.5-7zm24 2 4.5 3.5-8.5 6.5-3.5-2.5q-1.1-3.3 1.5-2.5zm-69 31 1.5 2.5-2 .5zM157 99l6 4.5v15l-3.5 3.5-1.5-4.5v-16zm-70.5 12q15.7-2.2 23.5 3.5l2.5 3.5 7 1 8.5 5.5-6 2.5-1 3.5 1 2-4.5 2.5-22 1q-1.5-2.5-7-1l-2 1-20.5-4 1-3.5-3-5 4.5-4.5q5.8-.2 8.5-3.5l1.5-2.5zm.5 4q-1 4 3 6l-5 2-1 3 3 3q5 1 7-2l6 3 4-1-1-4-7-4 2-3q2 1 1-1l-1-2zm-61.5 23q3.8-.7 4.5 1.5.5 4-2.5 4.5l-3.5-1.5q-.7-3.7 1.5-4.5Zm37 24 3.5 1.5-8 7-1.5 2.5.5-1.5q.9-6.6 5.5-9.5Zm52 0h2l4.5 4.5 9 11 1 5-1.5-.5q-4.7-.2-6.5-3.5L111 163zM75 177l22.5 1 1.5 1.5L88.5 192l-3.5 1q1.1-2.7-1.5-2L75 179.5z"/><path fill="#58d0d2" stroke="#58d0d2" d="m107.5 56 7.5 1-2.5 4-5 3-4.5-3.5q-.7-2.2 1.5-1.5zm-26 1 1 2zm0 8q5.4-1.9 4.5 1.5.5 3 4.5 2.5l4-3 2 3 2 1 1.5-.5L88.5 78 80 70.5l-2-4zm85 25 5.5 2.5 1 5-1.5-.5-2-1-7 7-4.5-4.5 3.5-4.5zm-134 2 .5 2q3.7-1.3 2 4.5l-1 1v17q2.5 1.5 1 7h-1l-3-12v-13zm125 10 .5 5.5h-1zm6 16 6.5 3q.8 5-2.5 7h-2l-7.5-6.5.5-1.5 1 2zm-136 13 .5 1.5-2.5 1.5-1-2z"/><path fill="#58d0d2" stroke="#58d0d2" d="M30.5 132q4.4-1.5 3.5 1.5l.5 1.5-3.5.5q3 2 2 8l-4.5 4.5h-5q-4.2-.8-3.5-6.5l2-4-3-1 3-1.5.5 2q2.5-3.2 8.5-2zm-4.5 6q-3 1-2 5l4 1q3 0 2-4-1-3-4-2Zm34.5 11 5.5 2.5 2 11q-1.7 3.3-3.5-.5-5-.5-5.5 3.5l-2.5 6.5-.5-2.5 5-11-2-8zm63 3 5.5.5-11 9 3 4-4.5-3.5-6 2-.5-2.5 6.5-7.5zm-60 13-4 5zm58 2 4 5zm-45 5h22l4.5 4.5 5 7L90.5 200h-5L70 184.5l-2-4 5.5-6.5zm-1.5 5v3l9 11q2-1 1 2l4-1 10-12-1-2zm-18.5-4-1 2zm70 0 3 4zm-72 7L65 197.5q-1.9 4.3-9 2.5l1-4.5-4-5v-3zm70 0 6 3 1-2 .5 1.5-10 13 5 4-7.5.5-5.5-5.5 4-4 7-9z"/><path fill="#f0b95c" stroke="#f0b95c" d="m153.5 54-2 3zm5 5 3.5 5.5 2 11q-3 3.4-9 2.5l-2-13.5zm-40 18q18 6 30.5 17.5l3 6v23h-1q.9-3-3.5-1.5l-2.5-1v-17.5l-2-6.5-13.5-10-11-4-6 4-2.5-3.5q2.4-5.1 8.5-6.5Zm-34 13h17q1.1.1.5 5.5l-1.5 1.5H82zM40 96l5 3.5 1 8-1 1v12l-2.5 2.5-2.5-5.5zm16.5 35q3-.9 1.5 3.5l-1 5.5-4-1v-7h2.5zm24 12 26 1 1-1h8l-.5 1.5-1.5 2.5q-8.3-1.2-13 1l-1-1h-15l-5.5-1zm-41 7 1.5 4.5-1 4.5q4.1-1.7 3 2.5-4 5.1-11.5 6.5l-5.5-9.5q8.8-1.2 13-7zm40 3 1 1h10l5.5 3.5-14.5.5q-3.7-1.2-2-5Zm75 23q4.2-1.3 2.5 3.5 3.7 2.8 3 8.5l-13.5 3-3.5-12z"/><path fill="#6b3345" stroke="#6b3345" d="m58.5 34-1 2zm4 1 1 2zm88 2 2 3zm-80 4 1 2zm5 4 8.5 9.5v2l-2.5.5L70 59v-5h1.5l8.5-3.5zm44 8-2 3zm46 29 3 4zm-50 3-1 2zm-40 6 1 2zm33 0-1 2zm-57 2-3 4zm62 2-1 2zm16 0 1 2zm10 0 1 2zm-68 1 3 4zm-14 1-1 2zm29 0 13.5.5-13.5.5zm48 2 1 2zm-53 4 4.5.5-4.5.5zm63 3 .5 4.5h-1zm-109 18 2 3zm7 9 1 2zm16 1 5.5 4.5-1 3.5-5.5-2-1.5.5q3.1-1.5 2.5-6.5Zm28 2 2.5.5-2.5.5zm42 1 2.5 5.5q-1.2 2.5-5 1.5 1.5-3.8-1.5-3l2-3zm-88 5 1 2zm42 0 3.5.5-3.5.5zm28 0 3.5.5-3.5.5zm-92 3 .5 2.5h-1zm69 2 5.5.5-5.5.5zM22 150l4 1.5 2 5-4 1.5zm50 2 6 1 2.5 5 17 1 5-5h7l-5 6q-3.4 5.6-14 4l-1-1h-9l-5.5-2.5z"/><path fill="#6b3345" stroke="#6b3345" d="m83.5 153 2.5.5-2.5.5zm30 0 2.5.5-2.5.5zm-72 10-1 2zm32 2h28l2.5 1.5-2 .5-2 5-2.5-1h-20l-9.5 8.5q1.8 6.1-5.5 3.5-1.2 2.3-2.5-.5l2-6zm31 3 11.5 13.5v3l-3 2q2.8-.7 2-5zm-34 17 1 2zm-7 1 3 4zm49 2-10 11-2 1 1-2zm-45 3 8 9zm98 5 .5 2.5h-1z"/><path fill="#2e3d46" stroke="#2e3d46" d="m109.5 56 4.5.5-4.5.5zm63 36 .5 2.5h-1zm-141 2 .5 3.5h-1zm0 18 .5 2.5h-1zm137 15-1 2zM145 148q4.7-.7 6 3.5l7 13 2 9 2 2-1.5-.5-5 1 .5-1.5-2-8.5-4-2.5v-7zm-85.5 1-.5 1.5 2 9-2 1-1.5-3.5q-4.7-.7-5.5 2.5l-4 11q.6 5.4-1 7.5-12.4 1.7-18-4.5l-3-4q14.4-.6 20-10l3-7-.5-1.5 3 1zm68 2 3.5.5-11 10 1.5.5 18-7 4.5 1v8.5q6 3.7 6 12.5l-10.5 3q-.5-6.5-5-9l-4.5 1-.5 4-11.5-14.5 11-9zm-27 22 8.5 10.5L91.5 200l9-10 7.5-6.5zm-47 10 .5 3.5h-1zm77 2-.5 1.5-3.5 4.5 2.5-3.5zm-58 2 12 13zm-19 4 3.5 6.5-1 2.5h-3v-6.5zm71 2-.5 1.5 3.5 4.5 1.5.5-1.5.5-5.5-4.5z" opacity=".996"/><path fill="#050303" stroke="#050303" d="M58.5 27h3l8 5L86 46.5l1.5 2.5h28q14.2-13.8 37-19l3.5 2.5 11 24 3 13v7l9 13q-1.4 8.9 1 14l-1 1v10l-3 13q-1.4 6.1-6.5 8.5l-15.5 8 7 11.5 6 15q5 13.3 6 29.5h-7v-6.5l-3-16-3-5-2-9-10-16.5-9.5 3-13 1-7 2-28 1-1-1-17-1-12-4q-3.1 4.9-13 3L36 135.5l-1-3.5-6.5-2-9.5 5.5-2 6 1 1v8l4 13 9.5 12.5 8 3h7l1.5-1.5 1-8 4-11.5 3.5-1 2.5 3.5-2 3-3 12-1 24.5h-6v-15H36.5q-8.3-1.7-12.5-7.5-11.2-12.3-13-34l3-10 6.5-6.5 6.5-2-2-7.5-1-15v-2l1-10 11-15 2-13 7-19q4.1-9.4 11.5-15.5zm1.5 6-5 5-7 13-5 15-1 12-11 16q2 6-1 8l1 2v12l2 8 4 2 4 7 4 3 11 5q7 0 12 4l17 3h30q1-2 6-1l33-9 13-8 4-6 3-16-1-15-8-13-1-12-5-17-5-10-3-4-7 1-10 5-17 13h-11l-1-1-19 1-2-2Q74 41 60 33Z" opacity=".996"/><path fill="#050303" stroke="#050303" d="m119.5 84 8 3L143 99.5l1 3v20l-1.5 1.5-13.5 8.5-1 2q2.3 1.3-.5 2.5l-6 4-5 1-23 1-3-1h-9l-14-3-8.5-5.5q1.9-5.4-1.5-4.5L47 121.5l-1-9 1-1v-12l5.5-6.5 11-8h5l3.5 2.5 7.5 9.5 3 1h19zm.5 6-16 13H79L68 91l-8 4-8 8-1 5q-1 8 1 12l12 6q3 2 1 7l18 4h28l11-2q2-1 1-6l13-7 3-3q1-12-1-18l-12-9z" opacity=".996"/><path fill="#050303" stroke="#050303" d="m66.5 108 8.5 2v6h-2.5l-5 1-3.5-1-2-4.5zm49 1q7.8-1.7 9.5 2.5 1.9 5.4-1.5 4.5l-7 2-5.5-3.5 2.5-4.5zm-24 12q6.9.6 10.5 4.5l-1.5 2.5-9-2-4 1-1.5-2.5zm41 51q4-.5 4.5 2.5l8 25-7 .5-8-24.5z" opacity=".996"/></svg>