<svg width="200" height="200" version="1.1" xmlns="http://www.w3.org/2000/svg" desc="Created with imagetracer.js version 1.2.6" ><path fill="rgb(0,0,0)" stroke="rgb(0,0,0)" stroke-width="1" opacity="0" d="M 0 0 L 200 0 L 200 200 L 188.5 200 L 188 198.5 L 183 187.5 L 167 163.5 Q 171.7 159.7 172 151.5 L 169 142.5 L 164.5 138 L 163 137.5 L 169 132.5 L 172 126.5 L 172 118.5 L 170 113.5 L 190.5 99 L 197 92.5 L 190.5 87 L 172 76.5 L 180 71.5 L 186 62.5 L 187 50.5 L 183 37.5 L 173.5 27 L 169.5 24 L 163 23 L 167 31.5 L 167 38.5 L 163.5 45 L 155.5 46 Q 153 45 154 40.5 L 155 37.5 L 149.5 29 Q 140.5 20.5 120.5 23 L 117 25.5 Q 116.3 27.8 118.5 27 L 123 30.5 L 124 33.5 L 119 41.5 L 119 44.5 L 115.5 48 L 107 48 L 107 43.5 L 109.5 40 L 116 34.5 L 115.5 32 L 97.5 32 L 96.5 33 L 87.5 33 L 74.5 37 L 57 48 L 52 55.5 L 50 63.5 L 51 66 L 38.5 65 L 33 67.5 L 32 71.5 L 32 90 Q 17.3 99 6 112.5 Q 5.5 117.5 9.5 118 Q 19.3 124.7 33 127.5 Q 30.3 130.8 31 137.5 L 36 145.5 L 33.5 147 L 22 138.5 L 21 128 L 18.5 128 L 9 137.5 Q 2.2 142.7 4 156.5 L 9.5 165 L 17 168 L 8 179.5 L 16.5 183 L 18.5 183 L 25.5 182 L 37.5 176 L 35 179.5 L 26.5 200 L 0.5 200 L 0 199.5 L 0 0 Z " /><path fill="rgb(38,21,19)" stroke="rgb(38,21,19)" stroke-width="1" opacity="0.9803921568627451" d="M 119.5 24 Q 143.3 21.3 152 33.5 L 154 39.5 L 153 46 Q 155.7 47.9 162.5 47 Q 169.7 43.7 168 31.5 L 165 25.5 L 168.5 25 L 177 31 L 184 42.5 L 186 50.5 L 186 58.5 Q 183.9 68.4 176.5 73 L 168 76 L 165.5 80 L 164 73 L 173.5 69 L 178 64.5 L 181 56.5 L 181 51.5 L 179 43.5 L 173.5 36 Q 172.6 45.6 166.5 50 Q 162.8 53.3 154.5 52 L 150 50 L 148 46.5 L 148 40.5 L 149 38.5 L 144.5 33 L 135.5 29 L 129 29 L 130 34.5 L 125 42.5 L 124 48.5 L 120.5 52 L 110.5 55 L 104.5 53 L 102 50.5 L 101 42.5 L 103 39.5 Q 102.3 37.3 98.5 38 L 97.5 39 L 88.5 39 L 78.5 42 L 66.5 48 L 60 54.5 L 56 62.5 Q 61 66.5 61 75.5 L 56 78 L 56 73 L 54.5 73 L 55 71.5 L 53.5 68 L 52 67.5 L 52 65.5 L 51 61.5 Q 54.1 51.6 61.5 46 L 83.5 35 L 98.5 34 L 99.5 33 L 114.5 33 L 113 35.5 L 110.5 39 L 107 41.5 L 106 47.5 L 112.5 50 L 116.5 49 L 119 46.5 L 125 32.5 L 120.5 27 L 118 25.5 L 119.5 24 Z " /><path fill="rgb(38,21,19)" stroke="rgb(38,21,19)" stroke-width="1" opacity="0.9803921568627451" d="M 45.5 71 L 48 71.5 L 45.5 72 L 45.5 71 Z " /><path fill="rgb(38,21,19)" stroke="rgb(38,21,19)" stroke-width="1" opacity="0.9803921568627451" d="M 117.5 72 L 116.5 74 L 117.5 72 Z " /><path fill="rgb(38,21,19)" stroke="rgb(38,21,19)" stroke-width="1" opacity="0.9803921568627451" d="M 121.5 74 L 118.5 78 L 121.5 74 Z " /><path fill="rgb(38,21,19)" stroke="rgb(38,21,19)" stroke-width="1" opacity="0.9803921568627451" d="M 161.5 78 L 164 79.5 L 162.5 79 L 161.5 78 Z " /><path fill="rgb(38,21,19)" stroke="rgb(38,21,19)" stroke-width="1" opacity="0.9803921568627451" d="M 115.5 80 L 114.5 82 L 115.5 80 Z " /><path fill="rgb(38,21,19)" stroke="rgb(38,21,19)" stroke-width="1" opacity="0.9803921568627451" d="M 112.5 82 L 111.5 84 L 112.5 82 Z " /><path fill="rgb(38,21,19)" stroke="rgb(38,21,19)" stroke-width="1" opacity="0.9803921568627451" d="M 35.5 93 L 34.5 95 L 35.5 93 Z " /><path fill="rgb(38,21,19)" stroke="rgb(38,21,19)" stroke-width="1" opacity="0.9803921568627451" d="M 185.5 94 L 183.5 97 L 185.5 94 Z " /><path fill="rgb(38,21,19)" stroke="rgb(38,21,19)" stroke-width="1" opacity="0.9803921568627451" d="M 31.5 96 L 29.5 99 L 31.5 96 Z " /><path fill="rgb(38,21,19)" stroke="rgb(38,21,19)" stroke-width="1" opacity="0.9803921568627451" d="M 179.5 99 L 178.5 101 L 179.5 99 Z " /><path fill="rgb(38,21,19)" stroke="rgb(38,21,19)" stroke-width="1" opacity="0.9803921568627451" d="M 113.5 107 L 116 107.5 L 112.5 109 L 113.5 107 Z " /><path fill="rgb(38,21,19)" stroke="rgb(38,21,19)" stroke-width="1" opacity="0.9803921568627451" d="M 167.5 107 L 166.5 109 L 167.5 107 Z " /><path fill="rgb(38,21,19)" stroke="rgb(38,21,19)" stroke-width="1" opacity="0.9803921568627451" d="M 17.5 109 L 14.5 113 L 17.5 109 Z " /><path fill="rgb(38,21,19)" stroke="rgb(38,21,19)" stroke-width="1" opacity="0.9803921568627451" d="M 117.5 109 L 119.5 112 L 117.5 109 Z " /><path fill="rgb(38,21,19)" stroke="rgb(38,21,19)" stroke-width="1" opacity="0.9803921568627451" d="M 114.5 113 L 118.5 118 L 114 115 L 110.5 120 L 112 117.5 L 114.5 113 Z " /><path fill="rgb(38,21,19)" stroke="rgb(38,21,19)" stroke-width="1" opacity="0.9803921568627451" d="M 162.5 115 L 165 116.5 L 163.5 116 L 162.5 115 Z " /><path fill="rgb(38,21,19)" stroke="rgb(38,21,19)" stroke-width="1" opacity="0.9803921568627451" d="M 106.5 117 L 105.5 119 L 106.5 117 Z " /><path fill="rgb(38,21,19)" stroke="rgb(38,21,19)" stroke-width="1" opacity="0.9803921568627451" d="M 124.5 117 L 129.5 123 L 124.5 117 Z " /><path fill="rgb(38,21,19)" stroke="rgb(38,21,19)" stroke-width="1" opacity="0.9803921568627451" d="M 109.5 121 L 108.5 123 L 109.5 121 Z " /><path fill="rgb(38,21,19)" stroke="rgb(38,21,19)" stroke-width="1" opacity="0.9803921568627451" d="M 123.5 122 L 125.5 125 L 123.5 122 Z " /><path fill="rgb(38,21,19)" stroke="rgb(38,21,19)" stroke-width="1" opacity="0.9803921568627451" d="M 101.5 124 L 99.5 127 L 101.5 124 Z " /><path fill="rgb(38,21,19)" stroke="rgb(38,21,19)" stroke-width="1" opacity="0.9803921568627451" d="M 107.5 124 L 107 125.5 L 105 131 L 103 130.5 L 107.5 124 Z " /><path fill="rgb(38,21,19)" stroke="rgb(38,21,19)" stroke-width="1" opacity="0.9803921568627451" d="M 126.5 126 L 127 128 L 133.5 127 L 133.5 128 L 127.5 129 L 126.5 126 Z " /><path fill="rgb(38,21,19)" stroke="rgb(38,21,19)" stroke-width="1" opacity="0.9803921568627451" d="M 93.5 127 L 95 127.5 L 92 129.5 L 91.5 131 L 91 129.5 L 93.5 127 Z " /><path fill="rgb(38,21,19)" stroke="rgb(38,21,19)" stroke-width="1" opacity="0.9803921568627451" d="M 96.5 131 L 101 131.5 L 96.5 132 L 96.5 131 Z " /><path fill="rgb(38,21,19)" stroke="rgb(38,21,19)" stroke-width="1" opacity="0.9803921568627451" d="M 90.5 132 L 96 133 L 92.5 138 L 84.5 139 L 81 136.5 L 80 133 L 89.5 133 L 90.5 132 Z " /><path fill="rgb(38,21,19)" stroke="rgb(38,21,19)" stroke-width="1" opacity="0.9803921568627451" d="M 41.5 142 L 42.5 144 L 41.5 142 Z " /><path fill="rgb(38,21,19)" stroke="rgb(38,21,19)" stroke-width="1" opacity="0.9803921568627451" d="M 150.5 143 L 148.5 146 L 148 144 L 150.5 143 Z " /><path fill="rgb(38,21,19)" stroke="rgb(38,21,19)" stroke-width="1" opacity="0.9803921568627451" d="M 62.5 150 L 63.5 152 Q 60.7 152.7 62.5 150 Z " /><path fill="rgb(38,21,19)" stroke="rgb(38,21,19)" stroke-width="1" opacity="0.9803921568627451" d="M 107.5 151 L 110 151.5 L 107.5 152 L 107.5 151 Z " /><path fill="rgb(38,21,19)" stroke="rgb(38,21,19)" stroke-width="1" opacity="0.9803921568627451" d="M 165.5 151 L 166 153.5 L 165 153.5 L 165.5 151 Z " /><path fill="rgb(38,21,19)" stroke="rgb(38,21,19)" stroke-width="1" opacity="0.9803921568627451" d="M 70.5 152 L 73 152.5 L 70.5 153 L 70.5 152 Z " /><path fill="rgb(38,21,19)" stroke="rgb(38,21,19)" stroke-width="1" opacity="0.9803921568627451" d="M 89.5 152 L 99 152.5 L 89.5 153 L 89.5 152 Z " /><path fill="rgb(38,21,19)" stroke="rgb(38,21,19)" stroke-width="1" opacity="0.9803921568627451" d="M 122.5 153 L 122.5 155 L 124.5 154 L 123.5 156 Q 120.5 155.3 122 159 L 118 159 L 117 155.5 L 122.5 153 Z " /><path fill="rgb(38,21,19)" stroke="rgb(38,21,19)" stroke-width="1" opacity="0.9803921568627451" d="M 144.5 153 L 143.5 155 L 144.5 153 Z " /><path fill="rgb(38,21,19)" stroke="rgb(38,21,19)" stroke-width="1" opacity="0.9803921568627451" d="M 111.5 155 L 114 155.5 L 111.5 156 L 111.5 155 Z " /><path fill="rgb(38,21,19)" stroke="rgb(38,21,19)" stroke-width="1" opacity="0.9803921568627451" d="M 103.5 156 L 105.5 157 L 109.5 156 L 115 157.5 Q 102.6 156.6 98 163.5 L 96.5 166 L 95 165.5 L 103.5 156 Z " /><path fill="rgb(38,21,19)" stroke="rgb(38,21,19)" stroke-width="1" opacity="0.9803921568627451" d="M 71.5 157 Q 73.8 156.3 73 158.5 L 74.5 161 L 71.5 157 Z " /><path fill="rgb(38,21,19)" stroke="rgb(38,21,19)" stroke-width="1" opacity="0.9803921568627451" d="M 75.5 157 L 85 157.5 L 75.5 158 L 75.5 157 Z " /><path fill="rgb(38,21,19)" stroke="rgb(38,21,19)" stroke-width="1" opacity="0.9803921568627451" d="M 57.5 160 L 60 161.5 L 58.5 162 L 57.5 160 Z " /><path fill="rgb(38,21,19)" stroke="rgb(38,21,19)" stroke-width="1" opacity="0.9803921568627451" d="M 62.5 160 L 65 160.5 L 62.5 161 L 62.5 160 Z " /><path fill="rgb(38,21,19)" stroke="rgb(38,21,19)" stroke-width="1" opacity="0.9803921568627451" d="M 77.5 162 L 80 162.5 L 77.5 163 L 77.5 162 Z " /><path fill="rgb(38,21,19)" stroke="rgb(38,21,19)" stroke-width="1" opacity="0.9803921568627451" d="M 71.5 164 L 73.5 167 L 71.5 164 Z " /><path fill="rgb(38,21,19)" stroke="rgb(38,21,19)" stroke-width="1" opacity="0.9803921568627451" d="M 104.5 164 L 102.5 167 L 104.5 164 Z " /><path fill="rgb(38,21,19)" stroke="rgb(38,21,19)" stroke-width="1" opacity="0.9803921568627451" d="M 80.5 166 L 86 166.5 L 80.5 167 L 80.5 166 Z " /><path fill="rgb(38,21,19)" stroke="rgb(38,21,19)" stroke-width="1" opacity="0.9803921568627451" d="M 155.5 166 L 158 166.5 L 155.5 167 L 155.5 166 Z " /><path fill="rgb(38,21,19)" stroke="rgb(38,21,19)" stroke-width="1" opacity="0.9803921568627451" d="M 92.5 169 L 94.5 172 L 92.5 169 Z " /><path fill="rgb(38,21,19)" stroke="rgb(38,21,19)" stroke-width="1" opacity="0.9803921568627451" d="M 45.5 171 L 48 171.5 L 45.5 172 L 45.5 171 Z " /><path fill="rgb(38,21,19)" stroke="rgb(38,21,19)" stroke-width="1" opacity="0.9803921568627451" d="M 49.5 171 L 50.5 173 L 49.5 171 Z " /><path fill="rgb(38,21,19)" stroke="rgb(38,21,19)" stroke-width="1" opacity="0.9803921568627451" d="M 99.5 171 L 98.5 173 L 96 172.5 L 99.5 171 Z " /><path fill="rgb(38,21,19)" stroke="rgb(38,21,19)" stroke-width="1" opacity="0.9803921568627451" d="M 145.5 172 L 144.5 174 L 145.5 172 Z " /><path fill="rgb(38,21,19)" stroke="rgb(38,21,19)" stroke-width="1" opacity="0.9803921568627451" d="M 125.5 173 L 123.5 176 L 125.5 173 Z " /><path fill="rgb(38,21,19)" stroke="rgb(38,21,19)" stroke-width="1" opacity="0.9803921568627451" d="M 45.5 176 L 47.5 177 L 49 176.5 L 50 178.5 L 47.5 179 L 41.5 182 L 44 178.5 L 45.5 176 Z " /><path fill="rgb(38,21,19)" stroke="rgb(38,21,19)" stroke-width="1" opacity="0.9803921568627451" d="M 141.5 179 L 144 179.5 L 141.5 180 L 141.5 179 Z " /><path fill="rgb(38,21,19)" stroke="rgb(38,21,19)" stroke-width="1" opacity="0.9803921568627451" d="M 61.5 181 L 66 181.5 L 61.5 182 L 61.5 181 Z " /><path fill="rgb(38,21,19)" stroke="rgb(38,21,19)" stroke-width="1" opacity="0.9803921568627451" d="M 121.5 181 L 120.5 183 L 121.5 181 Z " /><path fill="rgb(38,21,19)" stroke="rgb(38,21,19)" stroke-width="1" opacity="0.9803921568627451" d="M 51.5 182 Q 53.6 185.4 59 185.5 L 58 187.5 L 65 197.5 L 65 200 L 60 200 L 60 198.5 L 51.5 182 Z " /><path fill="rgb(38,21,19)" stroke="rgb(38,21,19)" stroke-width="1" opacity="0.9803921568627451" d="M 126.5 182 L 124.5 185 L 126.5 182 Z " /><path fill="rgb(38,21,19)" stroke="rgb(38,21,19)" stroke-width="1" opacity="0.9803921568627451" d="M 100.5 186 L 101.5 188 L 100.5 186 Z " /><path fill="rgb(38,21,19)" stroke="rgb(38,21,19)" stroke-width="1" opacity="0.9803921568627451" d="M 122.5 186 L 120.5 189 L 122.5 186 Z " /><path fill="rgb(38,21,19)" stroke="rgb(38,21,19)" stroke-width="1" opacity="0.9803921568627451" d="M 72.5 188 L 74.5 191 L 72.5 188 Z " /><path fill="rgb(38,21,19)" stroke="rgb(38,21,19)" stroke-width="1" opacity="0.9803921568627451" d="M 96.5 188 L 93.5 192 L 96.5 188 Z " /><path fill="rgb(38,21,19)" stroke="rgb(38,21,19)" stroke-width="1" opacity="0.9803921568627451" d="M 84.5 189 L 87 189.5 L 84.5 190 L 84.5 189 Z " /><path fill="rgb(38,21,19)" stroke="rgb(38,21,19)" stroke-width="1" opacity="0.9803921568627451" d="M 118.5 189 L 117.5 191 L 116 190.5 L 118.5 189 Z " /><path fill="rgb(28,17,16)" stroke="rgb(28,17,16)" stroke-width="1" opacity="0.23921568627450981" d="M 120.5 23 Q 143.2 20.3 152 31.5 L 155 39.5 L 154 44.5 Q 155.5 47.5 161.5 46 L 165 43.5 Q 168 39.5 167 31.5 L 163 23 L 169.5 24 L 181 34.5 Q 187.8 43.2 187 59.5 Q 184.1 68.6 177.5 74 L 172 76.5 L 192 88.5 L 190.5 89 L 170 76.5 Q 177.6 73.6 182 67.5 L 186 58.5 L 186 50.5 L 184 42.5 L 177 31 L 170.5 26 L 165.5 25 L 166 26.5 Q 169.1 30.9 168 39.5 L 162.5 47 Q 155.7 47.9 153 46 L 154 38.5 Q 152.5 32 147.5 29 L 135.5 24 L 120.5 24 L 120.5 23 Z " /><path fill="rgb(28,17,16)" stroke="rgb(28,17,16)" stroke-width="1" opacity="0.23921568627450981" d="M 118.5 24 L 119.5 27 L 124 30.5 L 125 33.5 Q 120.3 38.3 119 46.5 L 116.5 49 L 110.5 50 L 106 47.5 Q 105.1 40.6 109.5 39 L 113 36.5 L 115 33.5 L 99.5 33 L 98.5 34 L 88.5 34 L 77.5 37 Q 64.3 41.8 56 51.5 Q 51.8 55.8 51 63.5 L 53 66.5 L 44.5 67 L 39.5 66 L 34 68.5 L 33.5 70 L 33 67.5 Q 36.9 63.9 45.5 65 L 51 66 L 50 61.5 L 52 55.5 L 57 48 L 66.5 41 L 83.5 34 L 96.5 33 L 97.5 32 L 116 32 L 116 34.5 L 110.5 40 L 108 41.5 L 107 48 L 115.5 48 L 119 44.5 L 119 41.5 L 124 32.5 L 120.5 28 L 117 27 L 118.5 24 Z " /><path fill="rgb(28,17,16)" stroke="rgb(28,17,16)" stroke-width="1" opacity="0.23921568627450981" d="M 32.5 71 L 33 89.5 L 7 112.5 Q 6.5 116.5 9.5 117 Q 19.5 124.2 34 126 L 32 136.5 L 37 146.5 L 33.5 148 L 30 145.5 L 31.5 146 L 34.5 147 Q 38.2 144.7 33 142.5 Q 30.3 139.2 31 132.5 L 33 127.5 Q 16.1 124.4 6 114.5 L 6 112.5 L 19.5 99 L 32 90 L 32.5 71 Z " /><path fill="rgb(28,17,16)" stroke="rgb(28,17,16)" stroke-width="1" opacity="0.23921568627450981" d="M 193.5 89 L 197 92.5 L 190.5 99 L 170 113.5 Q 173.1 117.9 172 126.5 L 165.5 136 L 163 137.5 L 169 142.5 L 171 146.5 L 172 153.5 L 169 161.5 L 166.5 164 L 168 161.5 Q 171.7 157.2 170 147.5 L 165.5 140 L 161 137.5 L 169 130.5 Q 172.2 127.2 171 119.5 L 168 113.5 L 195 93.5 L 193.5 89 Z " /><path fill="rgb(28,17,16)" stroke="rgb(28,17,16)" stroke-width="1" opacity="0.23921568627450981" d="M 18.5 128 L 10 137.5 L 5.5 145 L 5 143.5 L 18.5 128 Z " /><path fill="rgb(28,17,16)" stroke="rgb(28,17,16)" stroke-width="1" opacity="0.23921568627450981" d="M 20.5 128 L 21 135.5 L 20 135.5 L 20.5 128 Z " /><path fill="rgb(28,17,16)" stroke="rgb(28,17,16)" stroke-width="1" opacity="0.23921568627450981" d="M 21.5 137 L 26.5 143 L 29 144.5 L 27.5 144 L 21 138.5 L 21.5 137 Z " /><path fill="rgb(28,17,16)" stroke="rgb(28,17,16)" stroke-width="1" opacity="0.23921568627450981" d="M 4.5 146 L 5 156.5 L 9 164 L 16 167.5 L 14.5 168 L 8 163.5 Q 1.8 158.3 4.5 146 Z " /><path fill="rgb(28,17,16)" stroke="rgb(28,17,16)" stroke-width="1" opacity="0.23921568627450981" d="M 167.5 165 L 183 188.5 L 182 188.5 L 167.5 165 Z " /><path fill="rgb(28,17,16)" stroke="rgb(28,17,16)" stroke-width="1" opacity="0.23921568627450981" d="M 16.5 170 L 12 175.5 L 10 180 L 17 182.5 L 15.5 182 Q 10 182.5 8 179.5 L 16.5 170 Z " /><path fill="rgb(28,17,16)" stroke="rgb(28,17,16)" stroke-width="1" opacity="0.23921568627450981" d="M 37.5 174 Q 40.1 173.3 39 176 L 31.5 179 L 31.5 178 L 37.5 174 Z " /><path fill="rgb(28,17,16)" stroke="rgb(28,17,16)" stroke-width="1" opacity="0.23921568627450981" d="M 37.5 177 L 36 179.5 Q 30.5 188.3 29 200 L 27 199.5 L 31 187.5 L 37.5 177 Z " /><path fill="rgb(28,17,16)" stroke="rgb(28,17,16)" stroke-width="1" opacity="0.23921568627450981" d="M 28.5 179 L 30 179.5 Q 27.7 182.7 21.5 182 L 21.5 181 Q 26.8 181.8 28.5 179 Z " /><path fill="rgb(28,17,16)" stroke="rgb(28,17,16)" stroke-width="1" opacity="0.23921568627450981" d="M 183.5 190 L 187 196.5 L 186 196.5 L 183.5 190 Z " /><path fill="rgb(226,51,70)" stroke="rgb(226,51,70)" stroke-width="1" opacity="1" d="M 130.5 30 L 132.5 30 Q 142.6 30.4 147 36.5 L 148 41.5 L 147 45.5 L 150.5 51 Q 154.1 53.9 161.5 53 Q 168 51.5 171 46.5 L 173.5 40 L 175 43.5 L 173 50.5 L 168.5 56 L 159.5 60 L 156.5 56 L 151.5 56 L 136.5 60 Q 120.3 66.8 109 78.5 L 108.5 83 L 104 79.5 L 105 74 Q 109.7 73.6 112 69.5 L 114 63.5 L 110.5 58 Q 102.8 53.2 91.5 52 Q 88.5 53.5 91.5 55 L 96 58.5 L 97 62.5 L 90.5 71 Q 86.4 74.9 77.5 74 L 73 70.5 Q 71.5 62 77 60.5 L 73.5 60 L 66.5 63 L 60 68 L 57 61.5 L 59 57 Q 62 58.3 61 54.5 Q 68.7 46.2 80.5 42 L 87.5 40 L 101.5 39 L 101 40.5 L 100 48.5 L 104.5 54 L 115.5 56 L 125 48.5 L 126 42.5 L 131 34.5 L 131 31.5 L 130.5 30 Z " /><path fill="rgb(244,152,61)" stroke="rgb(244,152,61)" stroke-width="1" opacity="1" d="M 91.5 52 L 107.5 56 L 113 60.5 L 114 64.5 Q 112.8 70.3 108.5 73 L 105 74 L 104 79.5 L 108 82.5 L 104 93 L 94.5 98 L 89.5 99 L 73.5 99 Q 65 97.5 61 91.5 L 62 72.5 L 61 68.5 Q 65.5 61 76.5 60 L 73 64.5 Q 71.5 71.5 75.5 73 L 83.5 74 Q 91.1 72.1 95 66.5 L 97 60.5 L 92.5 55 L 90 53.5 L 91.5 52 Z " /><path fill="rgb(244,152,61)" stroke="rgb(244,152,61)" stroke-width="1" opacity="1" d="M 113.5 87 L 119.5 94 L 113.5 88 L 112 88.5 L 113.5 87 Z " /><path fill="rgb(244,152,61)" stroke="rgb(244,152,61)" stroke-width="1" opacity="1" d="M 119.5 95 L 120 97.5 L 114.5 104 L 105.5 109 L 105.5 108 Q 113.6 105.1 118 98.5 L 119.5 95 Z " /><path fill="rgb(244,152,61)" stroke="rgb(244,152,61)" stroke-width="1" opacity="1" d="M 108.5 96 L 107.5 98 L 108.5 96 Z " /><path fill="rgb(244,152,61)" stroke="rgb(244,152,61)" stroke-width="1" opacity="1" d="M 150.5 146 Q 155.3 145.3 156 148.5 Q 157.3 154.8 153.5 156 L 150 154.5 Q 147.4 153.1 148 148.5 L 150.5 146 Z " /><path fill="rgb(244,152,61)" stroke="rgb(244,152,61)" stroke-width="1" opacity="1" d="M 50.5 154 Q 54.3 153.3 55 155.5 Q 55.5 159.5 52.5 160 Q 47 161 46 157.5 L 47.5 155 L 50.5 154 Z " /><path fill="rgb(244,152,61)" stroke="rgb(244,152,61)" stroke-width="1" opacity="1" d="M 137.5 154 L 142 157.5 Q 143.5 165.5 138.5 167 L 132.5 168 L 128 164.5 Q 126.8 157.3 131.5 156 L 137.5 154 Z M 130 159 L 130 161 L 133 160 L 130 159 Z " /><path fill="rgb(244,152,61)" stroke="rgb(244,152,61)" stroke-width="1" opacity="1" d="M 60.5 162 Q 69.3 160.3 71 165.5 L 67.5 173 Q 61.4 173.8 59 172 L 57 166.5 L 60.5 162 Z " /><path fill="rgb(244,152,61)" stroke="rgb(244,152,61)" stroke-width="1" opacity="1" d="M 107.5 164 Q 116.5 162.5 119 167.5 Q 120.5 175.5 115.5 177 L 109.5 178 L 104 173.5 L 103 170.5 L 107.5 164 Z M 108 166 Q 105 166 105 171 Q 106 173 111 172 Q 113 171 112 168 Q 111 165 108 166 Z " /><path fill="rgb(244,152,61)" stroke="rgb(244,152,61)" stroke-width="1" opacity="1" d="M 83.5 167 L 81 170.5 L 83.5 174 Q 87.5 174.5 88 171.5 L 86 168.5 L 87.5 168 L 92 171.5 Q 93 178 88.5 179 L 80.5 180 Q 75.5 178.5 77 170.5 L 79.5 168 L 83.5 167 Z " /><path fill="rgb(239,200,136)" stroke="rgb(239,200,136)" stroke-width="1" opacity="0.996078431372549" d="M 148.5 63 Q 154.6 61.8 154 64.5 L 157 72 Q 153.4 69.3 145.5 70 L 132.5 75 L 121.5 85 L 119.5 85 L 117 80.5 Q 128.7 67.7 148.5 63 Z " /><path fill="rgb(239,200,136)" stroke="rgb(239,200,136)" stroke-width="1" opacity="0.996078431372549" d="M 40.5 72 L 54 73 Q 55.1 75.7 52.5 75 L 49.5 76 L 40.5 73 L 40.5 72 Z " /><path fill="rgb(239,200,136)" stroke="rgb(239,200,136)" stroke-width="1" opacity="0.996078431372549" d="M 55.5 81 L 56 84.5 L 55 85.5 L 55 93.5 L 60.5 100 L 72.5 105 L 90.5 105 L 98.5 103 L 109 96.5 L 113.5 88 L 120 94.5 L 119 95.5 Q 117.4 102.4 111.5 105 L 90.5 114 L 79.5 116 L 65.5 113 L 54 107 L 50.5 113 L 37.5 111 L 32 108.5 L 39 99.5 L 35.5 99 L 18.5 114 L 16 114 L 16 112.5 L 25.5 103 L 55.5 81 Z " /><path fill="rgb(239,200,136)" stroke="rgb(239,200,136)" stroke-width="1" opacity="0.996078431372549" d="M 117.5 119 L 125 125.5 L 123.5 128 Q 118.7 130.3 110.5 129 L 108 126.5 L 112.5 122 L 117.5 119 Z " /><path fill="rgb(239,200,136)" stroke="rgb(239,200,136)" stroke-width="1" opacity="0.996078431372549" d="M 162.5 123 Q 166.3 121.8 165 125.5 L 161.5 130 Q 153.6 137.1 142.5 141 L 137 133.5 L 153.5 128 L 162.5 123 Z " /><path fill="rgb(239,200,136)" stroke="rgb(239,200,136)" stroke-width="1" opacity="0.996078431372549" d="M 116.5 138 L 120 139.5 L 122 148 L 105.5 151 L 74.5 152 L 69 150.5 L 70.5 149 Q 77.8 149.8 81 146.5 Q 79.7 142.3 84.5 144 L 85.5 143 L 92.5 143 L 93.5 142 L 110.5 140 L 116.5 138 Z " /><path fill="rgb(239,200,136)" stroke="rgb(239,200,136)" stroke-width="1" opacity="0.996078431372549" d="M 46.5 144 Q 52.4 141.9 51 146.5 L 49.5 146 Q 45.8 145.7 46.5 144 Z " /><path fill="rgb(239,200,136)" stroke="rgb(239,200,136)" stroke-width="1" opacity="0.996078431372549" d="M 130 159 L 133 159.5 L 130 161 L 130 159 Z " /><path fill="rgb(239,200,136)" stroke="rgb(239,200,136)" stroke-width="1" opacity="0.996078431372549" d="M 107.5 166 Q 111.3 165.3 112 167.5 Q 112.8 171.3 110.5 172 Q 106 173 105 170.5 Q 104.5 166.5 107.5 166 Z " /><path fill="rgb(239,200,136)" stroke="rgb(239,200,136)" stroke-width="1" opacity="0.996078431372549" d="M 83.5 168 Q 87.5 167.5 88 170.5 L 85.5 174 Q 81.5 174.5 81 171.5 L 83.5 168 Z " /><path fill="rgb(239,200,136)" stroke="rgb(239,200,136)" stroke-width="1" opacity="0.996078431372549" d="M 44.5 181 L 45 182.5 L 41 189.5 L 40 198.5 L 38.5 200 Q 33.7 201.7 35 197.5 L 42.5 182 L 44.5 181 Z " /><path fill="rgb(239,200,136)" stroke="rgb(239,200,136)" stroke-width="1" opacity="0.996078431372549" d="M 151 189 L 172.5 189 L 177 191 L 180 200 L 154.5 200 L 150 198 L 151 189 Z " /><path fill="rgb(63,39,29)" stroke="rgb(63,39,29)" stroke-width="1" opacity="0.996078431372549" d="M 98.5 38 Q 102.3 37.3 103 39.5 L 101.5 39 Q 97.5 39.8 98.5 38 Z " /><path fill="rgb(63,39,29)" stroke="rgb(63,39,29)" stroke-width="1" opacity="0.996078431372549" d="M 175.5 38 L 176.5 40 L 175.5 38 Z " /><path fill="rgb(63,39,29)" stroke="rgb(63,39,29)" stroke-width="1" opacity="0.996078431372549" d="M 66.5 48 L 64.5 51 L 66.5 48 Z " /><path fill="rgb(63,39,29)" stroke="rgb(63,39,29)" stroke-width="1" opacity="0.996078431372549" d="M 180.5 51 L 181 56.5 L 180 56.5 L 180.5 51 Z " /><path fill="rgb(63,39,29)" stroke="rgb(63,39,29)" stroke-width="1" opacity="0.996078431372549" d="M 107.5 54 L 110 54.5 L 107.5 55 L 107.5 54 Z " /><path fill="rgb(63,39,29)" stroke="rgb(63,39,29)" stroke-width="1" opacity="0.996078431372549" d="M 177.5 64 L 173.5 69 L 177.5 64 Z " /><path fill="rgb(63,39,29)" stroke="rgb(63,39,29)" stroke-width="1" opacity="0.996078431372549" d="M 119.5 70 L 118.5 72 L 119.5 70 Z " /><path fill="rgb(63,39,29)" stroke="rgb(63,39,29)" stroke-width="1" opacity="0.996078431372549" d="M 39.5 71 L 45 71.5 L 39 72 L 38.5 74 L 38 72.5 L 39.5 71 Z " /><path fill="rgb(63,39,29)" stroke="rgb(63,39,29)" stroke-width="1" opacity="0.996078431372549" d="M 166.5 71 L 165.5 73 L 166.5 71 Z " /><path fill="rgb(63,39,29)" stroke="rgb(63,39,29)" stroke-width="1" opacity="0.996078431372549" d="M 55.5 74 L 56 78 L 58.5 77 L 57.5 79 L 37.5 93 L 38 91.5 Q 36.8 86.3 39.5 85 L 42.5 83 L 43.5 81 Q 40.9 81.7 42 79 L 48.5 79 L 55.5 74 Z " /><path fill="rgb(63,39,29)" stroke="rgb(63,39,29)" stroke-width="1" opacity="0.996078431372549" d="M 143.5 76 Q 147.3 75.3 148 77.5 Q 148.8 80.1 145.5 79 L 130 90.5 L 131.5 94 L 150.5 100 L 161.5 101 Q 164.8 99.3 163 92.5 L 160 78.5 L 161.5 79 L 167 80.5 L 165 81 L 167 87.5 L 168 105 L 154.5 106 L 128.5 98 Q 118 93 111 84.5 L 115.5 81 L 122.5 89 L 124.5 90 L 130.5 83 L 143.5 76 Z " /><path fill="rgb(63,39,29)" stroke="rgb(63,39,29)" stroke-width="1" opacity="0.996078431372549" d="M 117.5 78 L 116.5 80 L 117.5 78 Z " /><path fill="rgb(63,39,29)" stroke="rgb(63,39,29)" stroke-width="1" opacity="0.996078431372549" d="M 181.5 97 L 180.5 99 L 181.5 97 Z " /><path fill="rgb(63,39,29)" stroke="rgb(63,39,29)" stroke-width="1" opacity="0.996078431372549" d="M 28.5 99 L 26.5 102 L 28.5 99 Z " /><path fill="rgb(63,39,29)" stroke="rgb(63,39,29)" stroke-width="1" opacity="0.996078431372549" d="M 177.5 100 L 176.5 102 L 177.5 100 Z " /><path fill="rgb(63,39,29)" stroke="rgb(63,39,29)" stroke-width="1" opacity="0.996078431372549" d="M 22.5 104 L 18.5 109 L 22.5 104 Z " /><path fill="rgb(63,39,29)" stroke="rgb(63,39,29)" stroke-width="1" opacity="0.996078431372549" d="M 120.5 112 L 124.5 117 L 120.5 112 Z " /><path fill="rgb(63,39,29)" stroke="rgb(63,39,29)" stroke-width="1" opacity="0.996078431372549" d="M 107.5 115 L 106.5 117 L 107.5 115 Z " /><path fill="rgb(63,39,29)" stroke="rgb(63,39,29)" stroke-width="1" opacity="0.996078431372549" d="M 114 115 L 118 117.5 L 107.5 126 L 108 124.5 L 114 115 Z " /><path fill="rgb(63,39,29)" stroke="rgb(63,39,29)" stroke-width="1" opacity="0.996078431372549" d="M 119.5 118 L 122.5 122 L 119.5 118 Z " /><path fill="rgb(63,39,29)" stroke="rgb(63,39,29)" stroke-width="1" opacity="0.996078431372549" d="M 44.5 124 L 58.5 127 L 93 127.5 L 89.5 133 L 61.5 132 L 57.5 130 L 43 128 L 44.5 124 Z " /><path fill="rgb(63,39,29)" stroke="rgb(63,39,29)" stroke-width="1" opacity="0.996078431372549" d="M 106.5 127 Q 109.9 132.1 120.5 130 L 125.5 127 Q 126.8 129.8 131 129.5 L 120.5 134 L 110.5 134 L 105 131.5 L 106.5 127 Z " /><path fill="rgb(63,39,29)" stroke="rgb(63,39,29)" stroke-width="1" opacity="0.996078431372549" d="M 37.5 133 L 38 136.5 L 37 136.5 L 37.5 133 Z " /><path fill="rgb(63,39,29)" stroke="rgb(63,39,29)" stroke-width="1" opacity="0.996078431372549" d="M 95.5 135 L 93.5 138 L 95.5 135 Z " /><path fill="rgb(63,39,29)" stroke="rgb(63,39,29)" stroke-width="1" opacity="0.996078431372549" d="M 85.5 139 L 90 139.5 L 85.5 140 L 85.5 139 Z " /><path fill="rgb(63,39,29)" stroke="rgb(63,39,29)" stroke-width="1" opacity="0.996078431372549" d="M 15.5 140 L 17.5 143 L 15.5 141 L 12 143.5 L 15.5 140 Z " /><path fill="rgb(63,39,29)" stroke="rgb(63,39,29)" stroke-width="1" opacity="0.996078431372549" d="M 39.5 140 L 40.5 142 L 39.5 140 Z " /><path fill="rgb(63,39,29)" stroke="rgb(63,39,29)" stroke-width="1" opacity="0.996078431372549" d="M 154.5 142 L 159 142.5 L 154.5 143 L 154.5 142 Z " /><path fill="rgb(63,39,29)" stroke="rgb(63,39,29)" stroke-width="1" opacity="0.996078431372549" d="M 22.5 147 L 23.5 149 L 22.5 147 Z " /><path fill="rgb(63,39,29)" stroke="rgb(63,39,29)" stroke-width="1" opacity="0.996078431372549" d="M 50.5 147 L 53 147.5 L 50.5 148 L 50.5 147 Z " /><path fill="rgb(63,39,29)" stroke="rgb(63,39,29)" stroke-width="1" opacity="0.996078431372549" d="M 42.5 149 L 43.5 151 L 42.5 149 Z " /><path fill="rgb(63,39,29)" stroke="rgb(63,39,29)" stroke-width="1" opacity="0.996078431372549" d="M 27.5 150 L 28.5 152 L 27.5 150 Z " /><path fill="rgb(63,39,29)" stroke="rgb(63,39,29)" stroke-width="1" opacity="0.996078431372549" d="M 40.5 150 L 41 152 L 39 151.5 L 40.5 150 Z " /><path fill="rgb(63,39,29)" stroke="rgb(63,39,29)" stroke-width="1" opacity="0.996078431372549" d="M 63.5 150 L 67 151.5 L 64.5 152 L 63.5 150 Z " /><path fill="rgb(63,39,29)" stroke="rgb(63,39,29)" stroke-width="1" opacity="0.996078431372549" d="M 30.5 152 L 33.5 156 L 30.5 152 Z " /><path fill="rgb(63,39,29)" stroke="rgb(63,39,29)" stroke-width="1" opacity="0.996078431372549" d="M 73.5 152 L 77 152.5 L 73.5 153 L 73.5 152 Z " /><path fill="rgb(63,39,29)" stroke="rgb(63,39,29)" stroke-width="1" opacity="0.996078431372549" d="M 82.5 152 L 89 152.5 L 82.5 153 L 82.5 152 Z " /><path fill="rgb(63,39,29)" stroke="rgb(63,39,29)" stroke-width="1" opacity="0.996078431372549" d="M 146.5 152 L 152 160.5 L 148 163.5 L 144 154.5 L 146.5 152 Z " /><path fill="rgb(63,39,29)" stroke="rgb(63,39,29)" stroke-width="1" opacity="0.996078431372549" d="M 123.5 153 L 125 153.5 L 122.5 155 L 123.5 153 Z " /><path fill="rgb(63,39,29)" stroke="rgb(63,39,29)" stroke-width="1" opacity="0.996078431372549" d="M 137.5 153 L 140 153.5 L 137.5 154 L 137.5 153 Z " /><path fill="rgb(63,39,29)" stroke="rgb(63,39,29)" stroke-width="1" opacity="0.996078431372549" d="M 114.5 155 L 118 156.5 Q 118.8 159.1 115.5 158 L 115.5 157 L 117 156.5 Q 113.7 156.6 114.5 155 Z " /><path fill="rgb(63,39,29)" stroke="rgb(63,39,29)" stroke-width="1" opacity="0.996078431372549" d="M 32.5 157 L 36 159.5 Q 37.1 162.8 34.5 162 L 26.5 167 L 24.5 163 L 18 162.5 L 24.5 162 L 32.5 157 Z " /><path fill="rgb(63,39,29)" stroke="rgb(63,39,29)" stroke-width="1" opacity="0.996078431372549" d="M 73 157 L 75 157.5 L 73 158.5 L 73 157 Z " /><path fill="rgb(63,39,29)" stroke="rgb(63,39,29)" stroke-width="1" opacity="0.996078431372549" d="M 85.5 157 L 97 157.5 L 85.5 158 L 85.5 157 Z " /><path fill="rgb(63,39,29)" stroke="rgb(63,39,29)" stroke-width="1" opacity="0.996078431372549" d="M 101 157 L 103 157.5 L 94.5 165 L 94.5 164 L 101 158.5 L 101 157 Z " /><path fill="rgb(63,39,29)" stroke="rgb(63,39,29)" stroke-width="1" opacity="0.996078431372549" d="M 12.5 158 L 14.5 161 L 12.5 158 Z " /><path fill="rgb(63,39,29)" stroke="rgb(63,39,29)" stroke-width="1" opacity="0.996078431372549" d="M 55.5 158 L 58 162.5 Q 53.1 165.9 53 173 L 48 170.5 Q 49.7 162.2 55.5 158 Z " /><path fill="rgb(63,39,29)" stroke="rgb(63,39,29)" stroke-width="1" opacity="0.996078431372549" d="M 162.5 159 L 161.5 161 L 162.5 159 Z " /><path fill="rgb(63,39,29)" stroke="rgb(63,39,29)" stroke-width="1" opacity="0.996078431372549" d="M 75.5 161 L 76.5 163 L 75.5 161 Z " /><path fill="rgb(63,39,29)" stroke="rgb(63,39,29)" stroke-width="1" opacity="0.996078431372549" d="M 80.5 161 L 87 161.5 L 80.5 162 L 80.5 161 Z " /><path fill="rgb(63,39,29)" stroke="rgb(63,39,29)" stroke-width="1" opacity="0.996078431372549" d="M 154.5 161 L 159 161.5 L 154.5 162 L 154.5 161 Z " /><path fill="rgb(63,39,29)" stroke="rgb(63,39,29)" stroke-width="1" opacity="0.996078431372549" d="M 69.5 162 L 70.5 164 L 69.5 162 Z " /><path fill="rgb(63,39,29)" stroke="rgb(63,39,29)" stroke-width="1" opacity="0.996078431372549" d="M 111.5 162 L 114 162.5 L 111.5 163 L 111.5 162 Z " /><path fill="rgb(63,39,29)" stroke="rgb(63,39,29)" stroke-width="1" opacity="0.996078431372549" d="M 125.5 164 L 129 173 Q 124.8 172 123.5 175 Q 123.9 168.1 120 165.5 L 125.5 164 Z " /><path fill="rgb(63,39,29)" stroke="rgb(63,39,29)" stroke-width="1" opacity="0.996078431372549" d="M 147.5 165 L 148 167.5 L 147 167.5 L 147.5 165 Z " /><path fill="rgb(63,39,29)" stroke="rgb(63,39,29)" stroke-width="1" opacity="0.996078431372549" d="M 72.5 166 L 79 167.5 L 76 169.5 Q 72.9 173.4 73.5 181 L 69 180 L 69 173.5 L 72.5 166 Z " /><path fill="rgb(63,39,29)" stroke="rgb(63,39,29)" stroke-width="1" opacity="0.996078431372549" d="M 35.5 168 L 32.5 172 L 35.5 168 Z " /><path fill="rgb(63,39,29)" stroke="rgb(63,39,29)" stroke-width="1" opacity="0.996078431372549" d="M 24.5 169 L 23.5 171 L 24.5 169 Z " /><path fill="rgb(63,39,29)" stroke="rgb(63,39,29)" stroke-width="1" opacity="0.996078431372549" d="M 100.5 171 L 100 172.5 L 100 176.5 L 102 182 L 98.5 181 L 94.5 183 L 95 181.5 L 95 173.5 L 94 172.5 L 95.5 172 L 98.5 173 L 100.5 171 Z " /><path fill="rgb(63,39,29)" stroke="rgb(63,39,29)" stroke-width="1" opacity="0.996078431372549" d="M 21.5 173 L 21 174.5 L 20.5 176 L 20 174.5 L 21.5 173 Z " /><path fill="rgb(63,39,29)" stroke="rgb(63,39,29)" stroke-width="1" opacity="0.996078431372549" d="M 150.5 173 L 149.5 175 L 150.5 173 Z " /><path fill="rgb(63,39,29)" stroke="rgb(63,39,29)" stroke-width="1" opacity="0.996078431372549" d="M 167.5 175 L 168.5 177 L 167.5 175 Z " /><path fill="rgb(63,39,29)" stroke="rgb(63,39,29)" stroke-width="1" opacity="0.996078431372549" d="M 148.5 176 L 153.5 179 L 173 183 L 176 188.5 L 174.5 189 L 168.5 186 Q 154.4 184.6 144 179.5 L 148.5 176 Z " /><path fill="rgb(63,39,29)" stroke="rgb(63,39,29)" stroke-width="1" opacity="0.996078431372549" d="M 48.5 178 L 49.5 180 L 48.5 178 Z " /><path fill="rgb(63,39,29)" stroke="rgb(63,39,29)" stroke-width="1" opacity="0.996078431372549" d="M 129.5 178 L 131 178.5 L 128.5 180 L 129.5 178 Z " /><path fill="rgb(63,39,29)" stroke="rgb(63,39,29)" stroke-width="1" opacity="0.996078431372549" d="M 125.5 184 L 118 192.5 L 111.5 200 L 104 199.5 L 110.5 192 L 108 191.5 L 117.5 191 L 125.5 184 Z " /><path fill="rgb(63,39,29)" stroke="rgb(63,39,29)" stroke-width="1" opacity="0.996078431372549" d="M 69.5 185 L 74.5 191 L 80 193.5 L 78.5 194 L 75.5 192 L 67.5 200 L 65 200 Q 65.8 195.7 62 194.5 L 63.5 195 L 71 188.5 L 69.5 185 Z " /><path fill="rgb(63,39,29)" stroke="rgb(63,39,29)" stroke-width="1" opacity="0.996078431372549" d="M 58.5 186 L 62 192.5 L 60 191.5 L 58.5 186 Z " /><path fill="rgb(63,39,29)" stroke="rgb(63,39,29)" stroke-width="1" opacity="0.996078431372549" d="M 61.5 186 L 67 186.5 L 61.5 187 L 61.5 186 Z " /><path fill="rgb(63,39,29)" stroke="rgb(63,39,29)" stroke-width="1" opacity="0.996078431372549" d="M 98.5 186 L 100 186.5 L 97.5 188 L 98.5 186 Z " /><path fill="rgb(63,39,29)" stroke="rgb(63,39,29)" stroke-width="1" opacity="0.996078431372549" d="M 102.5 188 L 103.5 190 L 102.5 188 Z " /><path fill="rgb(63,39,29)" stroke="rgb(63,39,29)" stroke-width="1" opacity="0.996078431372549" d="M 96.5 189 L 95.5 191 L 96.5 189 Z " /><path fill="rgb(63,39,29)" stroke="rgb(63,39,29)" stroke-width="1" opacity="0.996078431372549" d="M 83.5 194 L 87 194.5 L 83.5 195 L 83.5 194 Z " /><path fill="rgb(63,39,29)" stroke="rgb(63,39,29)" stroke-width="1" opacity="0.996078431372549" d="M 58.5 197 L 60 199.5 L 59 199.5 L 58.5 197 Z " /><path fill="rgb(217,108,114)" stroke="rgb(217,108,114)" stroke-width="1" opacity="1" d="M 174.5 44 L 175 46.5 L 174 46.5 L 174.5 44 Z " /><path fill="rgb(217,108,114)" stroke="rgb(217,108,114)" stroke-width="1" opacity="1" d="M 172.5 51 L 171.5 53 L 172.5 51 Z " /><path fill="rgb(217,108,114)" stroke="rgb(217,108,114)" stroke-width="1" opacity="1" d="M 167.5 56 L 166.5 58 L 165 57.5 L 167.5 56 Z " /><path fill="rgb(217,108,114)" stroke="rgb(217,108,114)" stroke-width="1" opacity="1" d="M 145.5 70 Q 153.4 69.3 157 72 L 161 87.5 L 162 99 L 156 100 L 152 81.5 L 147.5 75 L 143.5 74 Q 130.9 78.5 123.5 88 L 121 85.5 L 129.5 77 L 145.5 70 Z " /><path fill="rgb(217,108,114)" stroke="rgb(217,108,114)" stroke-width="1" opacity="1" d="M 35.5 99 L 39 99.5 L 32 108.5 L 37.5 111 L 50.5 113 L 54 107 L 71 114.5 L 68.5 115 L 67.5 114 L 51.5 113 L 44.5 122 L 40.5 122 L 27 118 L 32 109.5 L 27 106.5 L 35.5 99 Z " /><path fill="rgb(217,108,114)" stroke="rgb(217,108,114)" stroke-width="1" opacity="1" d="M 102.5 109 Q 107.3 107.3 106 111.5 L 103.5 116 L 86.5 117 L 80 115.5 L 87.5 115 L 102.5 109 Z " /><path fill="rgb(217,108,114)" stroke="rgb(217,108,114)" stroke-width="1" opacity="1" d="M 73.5 115 L 79 115.5 L 73.5 116 L 73.5 115 Z " /><path fill="rgb(217,108,114)" stroke="rgb(217,108,114)" stroke-width="1" opacity="1" d="M 104.5 174 L 105.5 176 L 104.5 174 Z " /><path fill="rgb(167,117,84)" stroke="rgb(167,117,84)" stroke-width="1" opacity="0.996078431372549" d="M 39.5 72 L 40 74 Q 46.7 73.3 51 76.5 Q 48.6 79.1 42.5 78 L 41 79.5 Q 41.8 83.3 39.5 84 L 39.5 72 Z " /><path fill="rgb(167,117,84)" stroke="rgb(167,117,84)" stroke-width="1" opacity="0.996078431372549" d="M 148.5 76 L 149.5 78 L 148.5 76 Z " /><path fill="rgb(167,117,84)" stroke="rgb(167,117,84)" stroke-width="1" opacity="0.996078431372549" d="M 118.5 78 L 117 80.5 L 118 82.5 L 116 81.5 L 118.5 78 Z " /><path fill="rgb(167,117,84)" stroke="rgb(167,117,84)" stroke-width="1" opacity="0.996078431372549" d="M 166.5 81 L 176 86.5 L 176.5 88 L 178 87.5 Q 178.8 89.8 176.5 89 L 168 95 L 166.5 81 Z " /><path fill="rgb(167,117,84)" stroke="rgb(167,117,84)" stroke-width="1" opacity="0.996078431372549" d="M 52.5 82 L 51.5 84 L 52.5 82 Z " /><path fill="rgb(167,117,84)" stroke="rgb(167,117,84)" stroke-width="1" opacity="0.996078431372549" d="M 129.5 82 L 123.5 89 L 121.5 86 L 123.5 88 L 129.5 82 Z " /><path fill="rgb(167,117,84)" stroke="rgb(167,117,84)" stroke-width="1" opacity="0.996078431372549" d="M 42.5 89 L 41.5 91 L 42.5 89 Z " /><path fill="rgb(167,117,84)" stroke="rgb(167,117,84)" stroke-width="1" opacity="0.996078431372549" d="M 61.5 92 L 63.5 95 L 61.5 92 Z " /><path fill="rgb(167,117,84)" stroke="rgb(167,117,84)" stroke-width="1" opacity="0.996078431372549" d="M 120 94 L 133.5 101 L 146.5 104 L 148 105.5 Q 139.7 111.2 127.5 113 L 118.5 107 L 113.5 106 L 98.5 126 Q 93.8 124.7 92.5 127 L 74.5 127 L 73.5 126 L 59.5 126 L 41 122.5 L 46 120.5 L 51.5 113 L 70.5 115 L 71.5 116 L 80.5 116 L 81.5 117 L 98.5 117 Q 99.8 114.8 104.5 116 L 106 114.5 Q 104.8 109.3 107.5 108 Q 114.3 105.8 118 100.5 Q 120.8 98.5 120 94 Z " /><path fill="rgb(167,117,84)" stroke="rgb(167,117,84)" stroke-width="1" opacity="0.996078431372549" d="M 34.5 95 L 33.5 97 L 34.5 95 Z " /><path fill="rgb(167,117,84)" stroke="rgb(167,117,84)" stroke-width="1" opacity="0.996078431372549" d="M 57.5 96 L 60.5 100 L 57.5 96 Z " /><path fill="rgb(167,117,84)" stroke="rgb(167,117,84)" stroke-width="1" opacity="0.996078431372549" d="M 106.5 97 L 105.5 99 L 106.5 97 Z " /><path fill="rgb(167,117,84)" stroke="rgb(167,117,84)" stroke-width="1" opacity="0.996078431372549" d="M 162.5 97 L 163 99.5 L 162 99.5 L 162.5 97 Z " /><path fill="rgb(167,117,84)" stroke="rgb(167,117,84)" stroke-width="1" opacity="0.996078431372549" d="M 29.5 99 L 27.5 102 L 29.5 99 Z " /><path fill="rgb(167,117,84)" stroke="rgb(167,117,84)" stroke-width="1" opacity="0.996078431372549" d="M 23.5 104 L 20.5 108 L 23.5 104 Z " /><path fill="rgb(167,117,84)" stroke="rgb(167,117,84)" stroke-width="1" opacity="0.996078431372549" d="M 24.5 108 Q 30.3 107.2 32 110.5 L 27 118 L 29 118.5 L 27.5 119 L 18 114.5 L 24.5 108 Z " /><path fill="rgb(167,117,84)" stroke="rgb(167,117,84)" stroke-width="1" opacity="0.996078431372549" d="M 18.5 109 L 15.5 113 L 18.5 109 Z " /><path fill="rgb(167,117,84)" stroke="rgb(167,117,84)" stroke-width="1" opacity="0.996078431372549" d="M 118.5 118 L 123.5 124 L 118.5 118 Z " /><path fill="rgb(167,117,84)" stroke="rgb(167,117,84)" stroke-width="1" opacity="0.996078431372549" d="M 30.5 119 L 33 119.5 L 30.5 120 L 30.5 119 Z " /><path fill="rgb(167,117,84)" stroke="rgb(167,117,84)" stroke-width="1" opacity="0.996078431372549" d="M 34.5 120 L 40 121.5 L 37.5 122 L 34.5 121 L 34.5 120 Z " /><path fill="rgb(167,117,84)" stroke="rgb(167,117,84)" stroke-width="1" opacity="0.996078431372549" d="M 153.5 120 L 159 120.5 L 153.5 121 L 153.5 120 Z " /><path fill="rgb(167,117,84)" stroke="rgb(167,117,84)" stroke-width="1" opacity="0.996078431372549" d="M 110.5 123 L 108.5 126 L 110.5 123 Z " /><path fill="rgb(167,117,84)" stroke="rgb(167,117,84)" stroke-width="1" opacity="0.996078431372549" d="M 135.5 127 L 135 128.5 L 134.5 130 L 134 128.5 L 135.5 127 Z " /><path fill="rgb(167,117,84)" stroke="rgb(167,117,84)" stroke-width="1" opacity="0.996078431372549" d="M 56.5 131 L 59 132.5 L 57 133.5 L 57.5 132 L 56.5 131 Z " /><path fill="rgb(167,117,84)" stroke="rgb(167,117,84)" stroke-width="1" opacity="0.996078431372549" d="M 97 132 L 101 132.5 L 97.5 134 L 97 132 Z " /><path fill="rgb(167,117,84)" stroke="rgb(167,117,84)" stroke-width="1" opacity="0.996078431372549" d="M 74.5 133 L 72.5 136 L 74.5 133 Z " /><path fill="rgb(167,117,84)" stroke="rgb(167,117,84)" stroke-width="1" opacity="0.996078431372549" d="M 136.5 133 L 142 140.5 L 138.5 143 L 122.5 148 Q 122.8 141.8 120 138.5 L 121.5 137 L 132.5 135 L 136.5 133 Z " /><path fill="rgb(167,117,84)" stroke="rgb(167,117,84)" stroke-width="1" opacity="0.996078431372549" d="M 56.5 135 L 55.5 137 L 56.5 135 Z " /><path fill="rgb(167,117,84)" stroke="rgb(167,117,84)" stroke-width="1" opacity="0.996078431372549" d="M 116.5 135 L 118.5 138 L 116.5 135 Z " /><path fill="rgb(167,117,84)" stroke="rgb(167,117,84)" stroke-width="1" opacity="0.996078431372549" d="M 79.5 136 L 81.5 139 L 79.5 136 Z " /><path fill="rgb(167,117,84)" stroke="rgb(167,117,84)" stroke-width="1" opacity="0.996078431372549" d="M 71.5 137 L 70.5 139 L 71.5 137 Z " /><path fill="rgb(167,117,84)" stroke="rgb(167,117,84)" stroke-width="1" opacity="0.996078431372549" d="M 54.5 138 L 54 139.5 L 52.5 143 L 52 141.5 L 54.5 138 Z " /><path fill="rgb(167,117,84)" stroke="rgb(167,117,84)" stroke-width="1" opacity="0.996078431372549" d="M 93.5 138 L 92.5 140 L 93.5 138 Z " /><path fill="rgb(167,117,84)" stroke="rgb(167,117,84)" stroke-width="1" opacity="0.996078431372549" d="M 52.5 144 L 57 145.5 L 52 147 L 52.5 144 Z " /><path fill="rgb(167,117,84)" stroke="rgb(167,117,84)" stroke-width="1" opacity="0.996078431372549" d="M 154.5 146 Q 158 147 157 152.5 L 156 152.5 Q 156.6 147 154.5 146 Z " /><path fill="rgb(167,117,84)" stroke="rgb(167,117,84)" stroke-width="1" opacity="0.996078431372549" d="M 148.5 152 L 149.5 154 L 148.5 152 Z " /><path fill="rgb(167,117,84)" stroke="rgb(167,117,84)" stroke-width="1" opacity="0.996078431372549" d="M 155.5 154 L 153.5 157 L 150 155.5 L 151.5 156 L 155.5 154 Z " /><path fill="rgb(167,117,84)" stroke="rgb(167,117,84)" stroke-width="1" opacity="0.996078431372549" d="M 46.5 155 L 46 156.5 L 48.5 160 L 52 160.5 L 48.5 161 L 45 156.5 L 46.5 155 Z " /><path fill="rgb(167,117,84)" stroke="rgb(167,117,84)" stroke-width="1" opacity="0.996078431372549" d="M 130.5 156 L 128.5 159 L 130.5 156 Z " /><path fill="rgb(167,117,84)" stroke="rgb(167,117,84)" stroke-width="1" opacity="0.996078431372549" d="M 141.5 156 Q 144.3 157.3 143 162.5 L 142 162.5 L 141.5 156 Z " /><path fill="rgb(167,117,84)" stroke="rgb(167,117,84)" stroke-width="1" opacity="0.996078431372549" d="M 153.5 159 L 159 160.5 L 154.5 161 L 153.5 159 Z " /><path fill="rgb(167,117,84)" stroke="rgb(167,117,84)" stroke-width="1" opacity="0.996078431372549" d="M 62.5 161 L 65 161.5 L 62.5 162 L 62.5 161 Z " /><path fill="rgb(167,117,84)" stroke="rgb(167,117,84)" stroke-width="1" opacity="0.996078431372549" d="M 110.5 163 L 114 163.5 L 110.5 164 L 110.5 163 Z " /><path fill="rgb(167,117,84)" stroke="rgb(167,117,84)" stroke-width="1" opacity="0.996078431372549" d="M 115.5 164 L 119 166.5 L 116.5 165 L 115.5 164 Z " /><path fill="rgb(167,117,84)" stroke="rgb(167,117,84)" stroke-width="1" opacity="0.996078431372549" d="M 141.5 164 L 139.5 167 L 141.5 164 Z " /><path fill="rgb(167,117,84)" stroke="rgb(167,117,84)" stroke-width="1" opacity="0.996078431372549" d="M 105.5 165 L 104.5 167 L 105.5 165 Z " /><path fill="rgb(167,117,84)" stroke="rgb(167,117,84)" stroke-width="1" opacity="0.996078431372549" d="M 128.5 165 L 129.5 167 L 128.5 165 Z " /><path fill="rgb(167,117,84)" stroke="rgb(167,117,84)" stroke-width="1" opacity="0.996078431372549" d="M 57.5 167 L 59 170.5 L 57 169.5 L 57.5 167 Z " /><path fill="rgb(167,117,84)" stroke="rgb(167,117,84)" stroke-width="1" opacity="0.996078431372549" d="M 80.5 167 L 83 167.5 L 80.5 168 L 80.5 167 Z " /><path fill="rgb(167,117,84)" stroke="rgb(167,117,84)" stroke-width="1" opacity="0.996078431372549" d="M 119.5 168 L 120 172.5 L 119 172.5 L 119.5 168 Z " /><path fill="rgb(167,117,84)" stroke="rgb(167,117,84)" stroke-width="1" opacity="0.996078431372549" d="M 145.5 168 L 146 170.5 Q 143.9 174.9 137.5 175 L 133 174 L 133.5 172 L 140.5 172 L 145.5 168 Z " /><path fill="rgb(167,117,84)" stroke="rgb(167,117,84)" stroke-width="1" opacity="0.996078431372549" d="M 90.5 169 L 91.5 171 L 90.5 169 Z " /><path fill="rgb(167,117,84)" stroke="rgb(167,117,84)" stroke-width="1" opacity="0.996078431372549" d="M 76.5 171 Q 75.8 177.8 80 179.5 L 76 176.5 L 76.5 171 Z " /><path fill="rgb(167,117,84)" stroke="rgb(167,117,84)" stroke-width="1" opacity="0.996078431372549" d="M 60.5 172 Q 62 174.5 67.5 173 L 69 172.5 Q 67.5 175.5 61.5 174 L 60.5 172 Z " /><path fill="rgb(167,117,84)" stroke="rgb(167,117,84)" stroke-width="1" opacity="0.996078431372549" d="M 92.5 172 L 93 174.5 L 92 174.5 L 92.5 172 Z " /><path fill="rgb(167,117,84)" stroke="rgb(167,117,84)" stroke-width="1" opacity="0.996078431372549" d="M 118.5 174 L 116.5 177 L 118.5 174 Z " /><path fill="rgb(167,117,84)" stroke="rgb(167,117,84)" stroke-width="1" opacity="0.996078431372549" d="M 54.5 175 L 57.5 177 L 68 179.5 Q 66.3 181.8 61.5 181 L 55 177.5 L 54.5 175 Z " /><path fill="rgb(167,117,84)" stroke="rgb(167,117,84)" stroke-width="1" opacity="0.996078431372549" d="M 91.5 176 L 88.5 180 L 87 179.5 L 91.5 176 Z " /><path fill="rgb(167,117,84)" stroke="rgb(167,117,84)" stroke-width="1" opacity="0.996078431372549" d="M 106.5 176 L 109 177.5 L 107.5 178 L 106.5 176 Z " /><path fill="rgb(167,117,84)" stroke="rgb(167,117,84)" stroke-width="1" opacity="0.996078431372549" d="M 130.5 179 Q 135.6 182.4 145.5 181 L 152.5 184 L 169 187.5 Q 168.3 189.8 164.5 189 L 163.5 188 L 150 188 L 149 197.5 L 152 199.5 L 141 200 L 140 190.5 L 137.5 187 L 134 188.5 L 135 200 L 113 199.5 L 130.5 179 Z " /><path fill="rgb(167,117,84)" stroke="rgb(167,117,84)" stroke-width="1" opacity="0.996078431372549" d="M 47.5 180 L 50 181.5 L 58 200 L 49 200 L 49 195.5 Q 51.3 194.3 50 189.5 Q 49.3 187.3 45.5 188 L 44 189.5 L 43 200 Q 38.5 201.8 40 196.5 Q 41.6 186.1 47.5 180 Z " /><path fill="rgb(167,117,84)" stroke="rgb(167,117,84)" stroke-width="1" opacity="0.996078431372549" d="M 82.5 180 L 86 180.5 L 82.5 181 L 82.5 180 Z " /><path fill="rgb(167,117,84)" stroke="rgb(167,117,84)" stroke-width="1" opacity="0.996078431372549" d="M 119.5 181 L 117.5 184 L 111.5 186 L 105 183.5 L 115.5 183 L 119.5 181 Z " /><path fill="rgb(167,117,84)" stroke="rgb(167,117,84)" stroke-width="1" opacity="0.996078431372549" d="M 77.5 185 L 86.5 186 L 91.5 185 L 90.5 187 L 84.5 189 L 77.5 186 L 77.5 185 Z " /><path fill="rgb(167,137,123)" stroke="rgb(167,137,123)" stroke-width="1" opacity="0.996078431372549" d="M 143.5 74 L 146 74.5 L 143.5 75 L 143.5 74 Z " /><path fill="rgb(167,137,123)" stroke="rgb(167,137,123)" stroke-width="1" opacity="0.996078431372549" d="M 161.5 91 L 162 93.5 L 161 93.5 L 161.5 91 Z " /><path fill="rgb(167,137,123)" stroke="rgb(167,137,123)" stroke-width="1" opacity="0.996078431372549" d="M 159.5 99 L 162 99.5 L 159.5 100 L 159.5 99 Z " /><path fill="rgb(167,137,123)" stroke="rgb(167,137,123)" stroke-width="1" opacity="0.996078431372549" d="M 29.5 108 L 32 109.5 L 30.5 109 L 29.5 108 Z " /><path fill="rgb(167,137,123)" stroke="rgb(167,137,123)" stroke-width="1" opacity="0.996078431372549" d="M 105.5 112 L 106 114.5 L 104 115.5 L 105.5 112 Z " /><path fill="rgb(167,137,123)" stroke="rgb(167,137,123)" stroke-width="1" opacity="0.996078431372549" d="M 54.5 113 L 57 113.5 L 54.5 114 L 54.5 113 Z " /><path fill="rgb(167,137,123)" stroke="rgb(167,137,123)" stroke-width="1" opacity="0.996078431372549" d="M 64.5 114 L 68 114.5 L 64.5 115 L 64.5 114 Z " /><path fill="rgb(167,137,123)" stroke="rgb(167,137,123)" stroke-width="1" opacity="0.996078431372549" d="M 81.5 116 L 86 116.5 L 81.5 117 L 81.5 116 Z " /><path fill="rgb(167,137,123)" stroke="rgb(167,137,123)" stroke-width="1" opacity="0.996078431372549" d="M 96.5 116 L 99 116.5 L 96.5 117 L 96.5 116 Z " /><path fill="rgb(167,137,123)" stroke="rgb(167,137,123)" stroke-width="1" opacity="0.996078431372549" d="M 152.5 121 Q 159.5 119.9 163 122.5 L 153.5 128 L 136 133 L 135 128.5 L 152.5 121 Z " /><path fill="rgb(167,137,123)" stroke="rgb(167,137,123)" stroke-width="1" opacity="0.996078431372549" d="M 164.5 126 L 163.5 128 L 164.5 126 Z " /><path fill="rgb(167,137,123)" stroke="rgb(167,137,123)" stroke-width="1" opacity="0.996078431372549" d="M 40.5 129 Q 50.9 129.1 58 132.5 L 52 141.5 L 51.5 147 L 51 144 L 44.5 144 L 39 138.5 L 38 134.5 L 40.5 129 Z " /><path fill="rgb(167,137,123)" stroke="rgb(167,137,123)" stroke-width="1" opacity="0.996078431372549" d="M 112.5 129 L 117 129.5 L 112.5 130 L 112.5 129 Z " /><path fill="rgb(167,137,123)" stroke="rgb(167,137,123)" stroke-width="1" opacity="0.996078431372549" d="M 160.5 130 L 159.5 132 L 160.5 130 Z " /><path fill="rgb(167,137,123)" stroke="rgb(167,137,123)" stroke-width="1" opacity="0.996078431372549" d="M 101.5 132 L 115.5 135 L 118 137.5 L 115.5 139 L 92.5 143 L 85.5 143 L 80.5 145 L 79.5 144 L 69 144 Q 69.6 136.6 75.5 133 Q 78.8 131.9 78 134.5 L 81.5 139 L 87.5 142 L 98 136 Q 96.3 131.9 100.5 133 L 101.5 132 Z " /><path fill="rgb(167,137,123)" stroke="rgb(167,137,123)" stroke-width="1" opacity="0.996078431372549" d="M 156.5 133 L 155.5 135 L 156.5 133 Z " /><path fill="rgb(167,137,123)" stroke="rgb(167,137,123)" stroke-width="1" opacity="0.996078431372549" d="M 139.5 137 L 140.5 139 L 139.5 137 Z " /><path fill="rgb(167,137,123)" stroke="rgb(167,137,123)" stroke-width="1" opacity="0.996078431372549" d="M 117.5 148 L 120 148.5 L 117.5 149 L 117.5 148 Z " /><path fill="rgb(167,137,123)" stroke="rgb(167,137,123)" stroke-width="1" opacity="0.996078431372549" d="M 69.5 149 L 68.5 151 L 69.5 149 Z " /><path fill="rgb(167,137,123)" stroke="rgb(167,137,123)" stroke-width="1" opacity="0.996078431372549" d="M 106.5 150 L 110 150.5 L 106.5 151 L 106.5 150 Z " /><path fill="rgb(167,137,123)" stroke="rgb(167,137,123)" stroke-width="1" opacity="0.996078431372549" d="M 70.5 151 L 74 151.5 L 70.5 152 L 70.5 151 Z " /><path fill="rgb(167,137,123)" stroke="rgb(167,137,123)" stroke-width="1" opacity="0.996078431372549" d="M 86.5 151 L 100 151.5 L 86.5 152 L 86.5 151 Z " /><path fill="rgb(167,137,123)" stroke="rgb(167,137,123)" stroke-width="1" opacity="0.996078431372549" d="M 45 180 L 47 180.5 L 45 181.5 L 45 180 Z " /><path fill="rgb(167,137,123)" stroke="rgb(167,137,123)" stroke-width="1" opacity="0.996078431372549" d="M 42.5 187 L 43 188.5 L 41.5 192 L 41 189.5 L 42.5 187 Z " /><path fill="rgb(167,137,123)" stroke="rgb(167,137,123)" stroke-width="1" opacity="0.996078431372549" d="M 150 188 L 164 188.5 L 151 189 L 150 198 L 154 199.5 L 152.5 200 L 149 197.5 L 150 188 Z " /><path fill="rgb(167,137,123)" stroke="rgb(167,137,123)" stroke-width="1" opacity="0.996078431372549" d="M 168.5 188 L 172 188.5 L 168.5 189 L 168.5 188 Z " /><path fill="rgb(167,137,123)" stroke="rgb(167,137,123)" stroke-width="1" opacity="0.996078431372549" d="M 40.5 193 L 41 195.5 L 40 195.5 L 40.5 193 Z " /><path fill="rgb(138,83,59)" stroke="rgb(138,83,59)" stroke-width="1" opacity="0.996078431372549" d="M 130.5 32 L 131 34.5 L 130 34.5 L 130.5 32 Z " /><path fill="rgb(138,83,59)" stroke="rgb(138,83,59)" stroke-width="1" opacity="0.996078431372549" d="M 173.5 39 L 174.5 41 L 173.5 39 Z " /><path fill="rgb(138,83,59)" stroke="rgb(138,83,59)" stroke-width="1" opacity="0.996078431372549" d="M 175.5 43 L 176 45.5 L 175 45.5 L 175.5 43 Z " /><path fill="rgb(138,83,59)" stroke="rgb(138,83,59)" stroke-width="1" opacity="0.996078431372549" d="M 172.5 52 L 170.5 55 L 172.5 52 Z " /><path fill="rgb(138,83,59)" stroke="rgb(138,83,59)" stroke-width="1" opacity="0.996078431372549" d="M 168.5 56 L 167.5 58 L 168.5 56 Z " /><path fill="rgb(138,83,59)" stroke="rgb(138,83,59)" stroke-width="1" opacity="0.996078431372549" d="M 61.5 73 L 62 77.5 L 61 77.5 L 61.5 73 Z " /><path fill="rgb(138,83,59)" stroke="rgb(138,83,59)" stroke-width="1" opacity="0.996078431372549" d="M 143.5 75 L 146 75.5 L 143.5 76 L 143.5 75 Z " /><path fill="rgb(138,83,59)" stroke="rgb(138,83,59)" stroke-width="1" opacity="0.996078431372549" d="M 38.5 77 L 39.5 84 L 41 83.5 L 38 85 L 38.5 77 Z " /><path fill="rgb(138,83,59)" stroke="rgb(138,83,59)" stroke-width="1" opacity="0.996078431372549" d="M 55.5 88 L 56 92.5 L 55 92.5 L 55.5 88 Z " /><path fill="rgb(138,83,59)" stroke="rgb(138,83,59)" stroke-width="1" opacity="0.996078431372549" d="M 60.5 88 L 61 91.5 L 60 91.5 L 60.5 88 Z " /><path fill="rgb(138,83,59)" stroke="rgb(138,83,59)" stroke-width="1" opacity="0.996078431372549" d="M 178.5 88 L 186 92 Q 187.1 94.7 184.5 94 L 167.5 107 Q 150.9 116.4 130.5 122 L 116.5 107 L 115 106.5 L 116.5 106 L 125.5 112 L 130.5 113 L 148 105.5 L 147.5 104 L 151.5 106 L 164.5 106 L 169 105 L 168 95 L 178.5 88 Z " /><path fill="rgb(138,83,59)" stroke="rgb(138,83,59)" stroke-width="1" opacity="0.996078431372549" d="M 118.5 91 L 120.5 94 L 118.5 91 Z " /><path fill="rgb(138,83,59)" stroke="rgb(138,83,59)" stroke-width="1" opacity="0.996078431372549" d="M 101.5 94 L 100.5 96 L 101.5 94 Z " /><path fill="rgb(138,83,59)" stroke="rgb(138,83,59)" stroke-width="1" opacity="0.996078431372549" d="M 31.5 97 L 30.5 99 L 31.5 97 Z " /><path fill="rgb(138,83,59)" stroke="rgb(138,83,59)" stroke-width="1" opacity="0.996078431372549" d="M 76.5 99 L 80 99.5 L 76.5 100 L 76.5 99 Z " /><path fill="rgb(138,83,59)" stroke="rgb(138,83,59)" stroke-width="1" opacity="0.996078431372549" d="M 82.5 99 L 86 99.5 L 82.5 100 L 82.5 99 Z " /><path fill="rgb(138,83,59)" stroke="rgb(138,83,59)" stroke-width="1" opacity="0.996078431372549" d="M 75.5 104 L 78 104.5 L 75.5 105 L 75.5 104 Z " /><path fill="rgb(138,83,59)" stroke="rgb(138,83,59)" stroke-width="1" opacity="0.996078431372549" d="M 85.5 104 L 88 104.5 L 85.5 105 L 85.5 104 Z " /><path fill="rgb(138,83,59)" stroke="rgb(138,83,59)" stroke-width="1" opacity="0.996078431372549" d="M 161.5 117 Q 165.7 115.7 164 120.5 L 164.5 122 L 156 119.5 L 161.5 117 Z " /><path fill="rgb(138,83,59)" stroke="rgb(138,83,59)" stroke-width="1" opacity="0.996078431372549" d="M 104.5 118 L 103.5 120 L 104.5 118 Z " /><path fill="rgb(138,83,59)" stroke="rgb(138,83,59)" stroke-width="1" opacity="0.996078431372549" d="M 102.5 121 L 101.5 123 L 102.5 121 Z " /><path fill="rgb(138,83,59)" stroke="rgb(138,83,59)" stroke-width="1" opacity="0.996078431372549" d="M 56.5 125 L 59 125.5 L 56.5 126 L 56.5 125 Z " /><path fill="rgb(138,83,59)" stroke="rgb(138,83,59)" stroke-width="1" opacity="0.996078431372549" d="M 67.5 126 L 74 126.5 L 67.5 127 L 67.5 126 Z " /><path fill="rgb(138,83,59)" stroke="rgb(138,83,59)" stroke-width="1" opacity="0.996078431372549" d="M 93.5 126 L 97 126.5 L 93.5 127 L 93.5 126 Z " /><path fill="rgb(138,83,59)" stroke="rgb(138,83,59)" stroke-width="1" opacity="0.996078431372549" d="M 132.5 129 L 135 130.5 L 136 134 L 119.5 138 L 116.5 134 Q 128.3 135.2 132.5 129 Z " /><path fill="rgb(138,83,59)" stroke="rgb(138,83,59)" stroke-width="1" opacity="0.996078431372549" d="M 59.5 132 L 74 133.5 L 68 143.5 L 68.5 145 L 66.5 144 L 57.5 146 L 52 143.5 L 59.5 132 Z " /><path fill="rgb(138,83,59)" stroke="rgb(138,83,59)" stroke-width="1" opacity="0.996078431372549" d="M 154.5 143 Q 161.4 142.1 163 146.5 Q 165.3 149.7 164 156.5 L 159.5 161 L 158.5 160 L 153.5 159 L 153.5 161 L 151 157.5 L 156 154.5 L 157 148.5 Q 155.5 145 150 145.5 L 154.5 143 Z " /><path fill="rgb(138,83,59)" stroke="rgb(138,83,59)" stroke-width="1" opacity="0.996078431372549" d="M 19.5 147 L 25 150.5 L 22.5 154 L 18 151.5 Q 17.3 147.8 19.5 147 Z " /><path fill="rgb(138,83,59)" stroke="rgb(138,83,59)" stroke-width="1" opacity="0.996078431372549" d="M 53.5 153 L 54.5 155 L 53.5 153 Z " /><path fill="rgb(138,83,59)" stroke="rgb(138,83,59)" stroke-width="1" opacity="0.996078431372549" d="M 140.5 154 L 144 156.5 Q 148.3 159.7 147 168.5 Q 144.7 166.7 142.5 171 L 131.5 173 L 129 172 L 127 163.5 L 128 163.5 L 129.5 167 L 137.5 168 L 142 164.5 L 143 157.5 L 140.5 154 Z " /><path fill="rgb(138,83,59)" stroke="rgb(138,83,59)" stroke-width="1" opacity="0.996078431372549" d="M 44.5 156 L 48.5 161 Q 51.8 159.9 51 162.5 L 48 170 Q 43.4 171.3 42 168.5 L 43 159.5 L 42 157 L 44.5 156 Z " /><path fill="rgb(138,83,59)" stroke="rgb(138,83,59)" stroke-width="1" opacity="0.996078431372549" d="M 55.5 156 L 56 157.5 L 52 160.5 L 55.5 156 Z " /><path fill="rgb(138,83,59)" stroke="rgb(138,83,59)" stroke-width="1" opacity="0.996078431372549" d="M 70.5 164 L 71.5 166 L 70.5 164 Z " /><path fill="rgb(138,83,59)" stroke="rgb(138,83,59)" stroke-width="1" opacity="0.996078431372549" d="M 117.5 164 Q 123.8 167.7 122 179.5 Q 116.9 184.9 104.5 183 Q 99.8 180.2 101 171.5 L 103.5 167 L 103 168.5 L 103 173.5 L 107.5 178 Q 116.5 179.5 119 174.5 L 120 168.5 L 117.5 164 Z " /><path fill="rgb(138,83,59)" stroke="rgb(138,83,59)" stroke-width="1" opacity="0.996078431372549" d="M 56.5 165 Q 56.2 172.3 61.5 174 Q 67 175.5 68.5 173 L 69 174.5 L 68 179 Q 60.5 179.7 56 177 Q 56.8 173.9 54 174.5 L 54 169.5 L 56.5 165 Z " /><path fill="rgb(138,83,59)" stroke="rgb(138,83,59)" stroke-width="1" opacity="0.996078431372549" d="M 154.5 167 L 158.5 168 L 160.5 167 L 170 180.5 L 167.5 181 L 150 175.5 L 154.5 167 Z " /><path fill="rgb(138,83,59)" stroke="rgb(138,83,59)" stroke-width="1" opacity="0.996078431372549" d="M 78.5 168 L 76.5 171 L 78.5 168 Z " /><path fill="rgb(138,83,59)" stroke="rgb(138,83,59)" stroke-width="1" opacity="0.996078431372549" d="M 92.5 171 L 94 172.5 L 94 182.5 L 93 185 L 82.5 186 L 76 185 L 74 176.5 L 75.5 172 Q 75.1 178.4 79.5 180 L 85.5 181 L 92 176.5 L 93 172.5 L 92.5 171 Z " /><path fill="rgb(138,83,59)" stroke="rgb(138,83,59)" stroke-width="1" opacity="0.996078431372549" d="M 140.5 180 L 144 180.5 L 140.5 181 L 140.5 180 Z " /><path fill="rgb(138,83,59)" stroke="rgb(138,83,59)" stroke-width="1" opacity="0.996078431372549" d="M 135.5 187 L 134.5 189 L 135.5 187 Z " /><path fill="rgb(138,83,59)" stroke="rgb(138,83,59)" stroke-width="1" opacity="0.996078431372549" d="M 137.5 187 L 138.5 189 L 137.5 187 Z " /><path fill="rgb(138,83,59)" stroke="rgb(138,83,59)" stroke-width="1" opacity="0.996078431372549" d="M 120.5 191 L 119.5 193 L 120.5 191 Z " /><path fill="rgb(138,83,59)" stroke="rgb(138,83,59)" stroke-width="1" opacity="0.996078431372549" d="M 134.5 192 L 135 194.5 L 134 194.5 L 134.5 192 Z " /><path fill="rgb(18,13,11)" stroke="rgb(18,13,11)" stroke-width="1" opacity="0.9764705882352941" d="M 40.5 123 L 40 124.5 L 38.5 128 L 36 126.5 L 37 124 L 40.5 123 Z " /><path fill="rgb(18,13,11)" stroke="rgb(18,13,11)" stroke-width="1" opacity="0.9764705882352941" d="M 19.5 128 Q 18.7 140.3 26.5 144 L 36 148 L 38 153 Q 45.3 152.4 49.5 148 L 55.5 148 L 61.5 146 L 71.5 146 L 77.5 144 L 80 145 Q 81.3 148 77.5 147 L 61.5 150 L 58.5 152 L 52.5 152 L 40 157.5 L 42 162.5 L 40 168.5 L 40 174.5 L 44 176 L 39.5 183 L 36 181.5 L 39 174 L 25.5 181 L 16.5 182 L 10 180 L 18 168.5 L 9 164 L 5 156.5 L 5 145.5 Q 10.4 134.9 19.5 128 Z M 16 139 L 9 149 Q 8 155 11 159 Q 13 163 19 163 L 21 163 L 25 164 L 25 168 L 19 176 L 22 177 L 34 172 L 36 170 L 38 164 L 35 156 Q 31 150 23 147 L 16 139 Z " /><path fill="rgb(18,13,11)" stroke="rgb(18,13,11)" stroke-width="1" opacity="0.9764705882352941" d="M 146.5 146 L 145.5 148 L 143 147.5 L 146.5 146 Z " /><path fill="rgb(18,13,11)" stroke="rgb(18,13,11)" stroke-width="1" opacity="0.9764705882352941" d="M 164.5 164 Q 167.8 162.9 167 165.5 L 182 187.5 L 187 200 Q 182.4 201.3 181 198.5 L 178 190.5 L 162 166.5 L 164.5 164 Z " /><path fill="rgb(92,50,46)" stroke="rgb(92,50,46)" stroke-width="1" opacity="0.996078431372549" d="M 130.5 29 L 135 29.5 L 130.5 30 L 130.5 29 Z " /><path fill="rgb(92,50,46)" stroke="rgb(92,50,46)" stroke-width="1" opacity="0.996078431372549" d="M 145.5 34 L 147.5 37 L 145.5 34 Z " /><path fill="rgb(92,50,46)" stroke="rgb(92,50,46)" stroke-width="1" opacity="0.996078431372549" d="M 174.5 37 Q 182.1 43.4 180 59.5 L 179 59.5 Q 180.9 47.6 176.5 42 L 175 42.5 Q 176.5 38.1 173.5 39 L 174.5 37 Z " /><path fill="rgb(92,50,46)" stroke="rgb(92,50,46)" stroke-width="1" opacity="0.996078431372549" d="M 169.5 47 L 166.5 51 L 169.5 47 Z " /><path fill="rgb(92,50,46)" stroke="rgb(92,50,46)" stroke-width="1" opacity="0.996078431372549" d="M 101.5 50 L 103.5 53 L 101.5 50 Z " /><path fill="rgb(92,50,46)" stroke="rgb(92,50,46)" stroke-width="1" opacity="0.996078431372549" d="M 63.5 51 L 61.5 54 L 63.5 51 Z " /><path fill="rgb(92,50,46)" stroke="rgb(92,50,46)" stroke-width="1" opacity="0.996078431372549" d="M 121.5 51 L 120.5 53 L 121.5 51 Z " /><path fill="rgb(92,50,46)" stroke="rgb(92,50,46)" stroke-width="1" opacity="0.996078431372549" d="M 156.5 52 L 161 52.5 L 156.5 53 L 156.5 52 Z " /><path fill="rgb(92,50,46)" stroke="rgb(92,50,46)" stroke-width="1" opacity="0.996078431372549" d="M 156.5 56 L 157.5 58 L 156.5 56 Z " /><path fill="rgb(92,50,46)" stroke="rgb(92,50,46)" stroke-width="1" opacity="0.996078431372549" d="M 158.5 59 L 159.5 61 L 158.5 59 Z " /><path fill="rgb(92,50,46)" stroke="rgb(92,50,46)" stroke-width="1" opacity="0.996078431372549" d="M 178.5 61 L 178 62.5 L 172.5 69 L 169.5 70 L 169.5 69 L 177 63.5 L 178.5 61 Z " /><path fill="rgb(92,50,46)" stroke="rgb(92,50,46)" stroke-width="1" opacity="0.996078431372549" d="M 160.5 62 L 162 65.5 L 161 65.5 L 160.5 62 Z " /><path fill="rgb(92,50,46)" stroke="rgb(92,50,46)" stroke-width="1" opacity="0.996078431372549" d="M 163.5 70 L 164.5 72 L 167.5 70 L 167.5 71 L 163 73 L 163.5 70 Z " /><path fill="rgb(92,50,46)" stroke="rgb(92,50,46)" stroke-width="1" opacity="0.996078431372549" d="M 115.5 73 L 113.5 76 L 115.5 73 Z " /><path fill="rgb(92,50,46)" stroke="rgb(92,50,46)" stroke-width="1" opacity="0.996078431372549" d="M 60.5 76 Q 62.8 77.8 62 82.5 L 60 91.5 Q 67.2 101.3 85.5 100 L 98.5 97 L 106 90.5 L 109.5 82 L 112.5 86 L 116 88.5 L 113.5 87 Q 111.3 86.3 112 88.5 Q 109.8 95.3 104.5 99 L 96.5 103 L 78.5 105 L 63.5 101 L 57 95.5 L 56 93.5 L 56 82.5 L 57 80.5 L 56.5 79 L 60.5 76 Z " /><path fill="rgb(92,50,46)" stroke="rgb(92,50,46)" stroke-width="1" opacity="0.996078431372549" d="M 148.5 78 L 149 80 Q 138.9 81.9 133 89.5 L 134.5 90 L 136 89.5 Q 137.1 93.7 133 92 L 132.5 90 Q 129.5 91.5 132.5 93 L 151.5 99 L 153.5 99 L 156 100.5 L 154.5 100 Q 139.6 98.9 130 92.5 L 130 90.5 L 134.5 86 L 148.5 78 Z " /><path fill="rgb(92,50,46)" stroke="rgb(92,50,46)" stroke-width="1" opacity="0.996078431372549" d="M 41.5 79 L 42 81 L 44 81.5 L 41 83 L 41.5 79 Z " /><path fill="rgb(92,50,46)" stroke="rgb(92,50,46)" stroke-width="1" opacity="0.996078431372549" d="M 132.5 81 L 131.5 83 L 132.5 81 Z " /><path fill="rgb(92,50,46)" stroke="rgb(92,50,46)" stroke-width="1" opacity="0.996078431372549" d="M 129.5 83 L 126 87.5 L 124.5 90 L 125 88.5 L 129.5 83 Z " /><path fill="rgb(92,50,46)" stroke="rgb(92,50,46)" stroke-width="1" opacity="0.996078431372549" d="M 121.5 87 L 122.5 89 L 121.5 87 Z " /><path fill="rgb(92,50,46)" stroke="rgb(92,50,46)" stroke-width="1" opacity="0.996078431372549" d="M 183.5 95 L 182.5 97 L 183.5 95 Z " /><path fill="rgb(92,50,46)" stroke="rgb(92,50,46)" stroke-width="1" opacity="0.996078431372549" d="M 168.5 99 L 170 105.5 L 168 104.5 L 168.5 99 Z " /><path fill="rgb(92,50,46)" stroke="rgb(92,50,46)" stroke-width="1" opacity="0.996078431372549" d="M 175.5 101 L 174.5 103 L 175.5 101 Z " /><path fill="rgb(92,50,46)" stroke="rgb(92,50,46)" stroke-width="1" opacity="0.996078431372549" d="M 160.5 105 L 164 105.5 L 160.5 106 L 160.5 105 Z " /><path fill="rgb(92,50,46)" stroke="rgb(92,50,46)" stroke-width="1" opacity="0.996078431372549" d="M 116.5 107 L 120.5 112 L 116.5 107 Z " /><path fill="rgb(92,50,46)" stroke="rgb(92,50,46)" stroke-width="1" opacity="0.996078431372549" d="M 125.5 117 L 128.5 121 L 125.5 117 Z " /><path fill="rgb(92,50,46)" stroke="rgb(92,50,46)" stroke-width="1" opacity="0.996078431372549" d="M 41 124 L 44 124.5 L 43 128 L 47 128.5 L 43.5 129 L 40.5 128 L 39 128.5 Q 41.8 127.4 41 124 Z " /><path fill="rgb(92,50,46)" stroke="rgb(92,50,46)" stroke-width="1" opacity="0.996078431372549" d="M 47.5 124 L 50 124.5 L 47.5 125 L 47.5 124 Z " /><path fill="rgb(92,50,46)" stroke="rgb(92,50,46)" stroke-width="1" opacity="0.996078431372549" d="M 52.5 125 L 55 125.5 L 52.5 126 L 52.5 125 Z " /><path fill="rgb(92,50,46)" stroke="rgb(92,50,46)" stroke-width="1" opacity="0.996078431372549" d="M 58.5 126 L 65 126.5 L 58.5 127 L 58.5 126 Z " /><path fill="rgb(92,50,46)" stroke="rgb(92,50,46)" stroke-width="1" opacity="0.996078431372549" d="M 49.5 129 L 53 129.5 L 49.5 130 L 49.5 129 Z " /><path fill="rgb(92,50,46)" stroke="rgb(92,50,46)" stroke-width="1" opacity="0.996078431372549" d="M 131.5 129 L 130.5 131 L 127.5 132 L 127.5 131 L 131.5 129 Z " /><path fill="rgb(92,50,46)" stroke="rgb(92,50,46)" stroke-width="1" opacity="0.996078431372549" d="M 55.5 130 L 58 130.5 L 55.5 131 L 55.5 130 Z " /><path fill="rgb(92,50,46)" stroke="rgb(92,50,46)" stroke-width="1" opacity="0.996078431372549" d="M 70.5 132 L 76 132.5 L 70.5 133 L 70.5 132 Z " /><path fill="rgb(92,50,46)" stroke="rgb(92,50,46)" stroke-width="1" opacity="0.996078431372549" d="M 78.5 132 Q 81.1 131.2 80 134.5 L 79 134.5 L 78.5 132 Z " /><path fill="rgb(92,50,46)" stroke="rgb(92,50,46)" stroke-width="1" opacity="0.996078431372549" d="M 159.5 143 L 164 146.5 L 163.5 148 L 160.5 144 L 159.5 143 Z " /><path fill="rgb(92,50,46)" stroke="rgb(92,50,46)" stroke-width="1" opacity="0.996078431372549" d="M 150.5 144 L 149.5 146 L 150.5 144 Z " /><path fill="rgb(92,50,46)" stroke="rgb(92,50,46)" stroke-width="1" opacity="0.996078431372549" d="M 43.5 149 L 45 149.5 L 41.5 151 L 41.5 150 L 43.5 149 Z " /><path fill="rgb(92,50,46)" stroke="rgb(92,50,46)" stroke-width="1" opacity="0.996078431372549" d="M 164.5 149 L 165 155.5 L 164 155.5 L 164.5 149 Z " /><path fill="rgb(92,50,46)" stroke="rgb(92,50,46)" stroke-width="1" opacity="0.996078431372549" d="M 77.5 152 L 82 152.5 L 77.5 153 L 77.5 152 Z " /><path fill="rgb(92,50,46)" stroke="rgb(92,50,46)" stroke-width="1" opacity="0.996078431372549" d="M 147.5 152 L 148.5 154 L 147.5 152 Z " /><path fill="rgb(92,50,46)" stroke="rgb(92,50,46)" stroke-width="1" opacity="0.996078431372549" d="M 143.5 155 L 147 160.5 L 146 160.5 L 143.5 155 Z " /><path fill="rgb(92,50,46)" stroke="rgb(92,50,46)" stroke-width="1" opacity="0.996078431372549" d="M 149.5 155 L 150.5 157 L 149.5 155 Z " /><path fill="rgb(92,50,46)" stroke="rgb(92,50,46)" stroke-width="1" opacity="0.996078431372549" d="M 111.5 156 L 117 156.5 L 111.5 157 L 111.5 156 Z " /><path fill="rgb(92,50,46)" stroke="rgb(92,50,46)" stroke-width="1" opacity="0.996078431372549" d="M 129.5 156 L 128.5 158 L 129.5 156 Z " /><path fill="rgb(92,50,46)" stroke="rgb(92,50,46)" stroke-width="1" opacity="0.996078431372549" d="M 97.5 157 Q 101.9 155.5 101 158.5 L 95.5 164 L 93.5 164 Q 89.4 160.1 80.5 161 L 76.5 162 L 74 158 L 96.5 158 L 97.5 157 Z " /><path fill="rgb(92,50,46)" stroke="rgb(92,50,46)" stroke-width="1" opacity="0.996078431372549" d="M 163.5 157 L 161.5 160 L 163.5 157 Z " /><path fill="rgb(92,50,46)" stroke="rgb(92,50,46)" stroke-width="1" opacity="0.996078431372549" d="M 42.5 159 L 43 166.5 L 42 166.5 L 42.5 159 Z " /><path fill="rgb(92,50,46)" stroke="rgb(92,50,46)" stroke-width="1" opacity="0.996078431372549" d="M 51.5 161 L 52 162.5 L 50 163.5 L 51.5 161 Z " /><path fill="rgb(92,50,46)" stroke="rgb(92,50,46)" stroke-width="1" opacity="0.996078431372549" d="M 147.5 162 L 148 164.5 L 147 164.5 L 147.5 162 Z " /><path fill="rgb(92,50,46)" stroke="rgb(92,50,46)" stroke-width="1" opacity="0.996078431372549" d="M 126.5 163 L 128 168.5 L 127 168.5 L 126.5 163 Z " /><path fill="rgb(92,50,46)" stroke="rgb(92,50,46)" stroke-width="1" opacity="0.996078431372549" d="M 56.5 164 L 56 165.5 L 54.5 169 L 54 167.5 L 56.5 164 Z " /><path fill="rgb(92,50,46)" stroke="rgb(92,50,46)" stroke-width="1" opacity="0.996078431372549" d="M 118.5 164 Q 124.6 167.4 123 178.5 L 122 178.5 Q 123.3 167.4 118.5 164 Z " /><path fill="rgb(92,50,46)" stroke="rgb(92,50,46)" stroke-width="1" opacity="0.996078431372549" d="M 49.5 165 L 50 166.5 L 47.5 171 L 44 170.5 L 48 170 L 49.5 165 Z " /><path fill="rgb(92,50,46)" stroke="rgb(92,50,46)" stroke-width="1" opacity="0.996078431372549" d="M 104.5 165 L 102.5 168 L 104.5 165 Z " /><path fill="rgb(92,50,46)" stroke="rgb(92,50,46)" stroke-width="1" opacity="0.996078431372549" d="M 77.5 168 L 76.5 170 L 77.5 168 Z " /><path fill="rgb(92,50,46)" stroke="rgb(92,50,46)" stroke-width="1" opacity="0.996078431372549" d="M 91.5 169 L 93.5 172 L 91.5 169 Z " /><path fill="rgb(92,50,46)" stroke="rgb(92,50,46)" stroke-width="1" opacity="0.996078431372549" d="M 53.5 170 L 54 174.5 L 53 174.5 L 53.5 170 Z " /><path fill="rgb(92,50,46)" stroke="rgb(92,50,46)" stroke-width="1" opacity="0.996078431372549" d="M 100.5 172 L 101 176.5 L 100 176.5 L 100.5 172 Z " /><path fill="rgb(92,50,46)" stroke="rgb(92,50,46)" stroke-width="1" opacity="0.996078431372549" d="M 74.5 173 L 75 175.5 L 74 175.5 L 74.5 173 Z " /><path fill="rgb(92,50,46)" stroke="rgb(92,50,46)" stroke-width="1" opacity="0.996078431372549" d="M 94.5 173 L 95 181.5 L 94 181.5 L 94.5 173 Z " /><path fill="rgb(92,50,46)" stroke="rgb(92,50,46)" stroke-width="1" opacity="0.996078431372549" d="M 68.5 175 L 69 179.5 L 68 179.5 L 68.5 175 Z " /><path fill="rgb(92,50,46)" stroke="rgb(92,50,46)" stroke-width="1" opacity="0.996078431372549" d="M 151.5 177 L 156 178.5 L 153.5 179 L 151.5 177 Z " /><path fill="rgb(92,50,46)" stroke="rgb(92,50,46)" stroke-width="1" opacity="0.996078431372549" d="M 101.5 178 L 105 183.5 L 102 181.5 L 101.5 178 Z " /><path fill="rgb(92,50,46)" stroke="rgb(92,50,46)" stroke-width="1" opacity="0.996078431372549" d="M 157.5 179 L 160 179.5 L 157.5 180 L 157.5 179 Z " /><path fill="rgb(92,50,46)" stroke="rgb(92,50,46)" stroke-width="1" opacity="0.996078431372549" d="M 121.5 180 L 120.5 182 L 121.5 180 Z " /><path fill="rgb(92,50,46)" stroke="rgb(92,50,46)" stroke-width="1" opacity="0.996078431372549" d="M 166.5 181 L 169 181.5 L 166.5 182 L 166.5 181 Z " /><path fill="rgb(92,50,46)" stroke="rgb(92,50,46)" stroke-width="1" opacity="0.996078431372549" d="M 92.5 185 L 91.5 187 L 92.5 185 Z " /><path fill="rgb(92,50,46)" stroke="rgb(92,50,46)" stroke-width="1" opacity="0.996078431372549" d="M 162.5 185 L 165 185.5 L 162.5 186 L 162.5 185 Z " /><path fill="rgb(92,50,46)" stroke="rgb(92,50,46)" stroke-width="1" opacity="0.996078431372549" d="M 59 186 Q 61.1 187.6 66.5 187 L 69.5 186 L 71 188.5 L 63.5 195 L 59 186 Z " /><path fill="rgb(92,50,46)" stroke="rgb(92,50,46)" stroke-width="1" opacity="0.996078431372549" d="M 98.5 187 L 111 192.5 L 103.5 200 L 68.5 200 L 75.5 192 L 78.5 194 L 86.5 195 Q 93.3 193.8 97 189.5 L 98.5 187 Z " /><path fill="rgb(92,50,46)" stroke="rgb(92,50,46)" stroke-width="1" opacity="0.996078431372549" d="M 122.5 188 L 118.5 193 L 122.5 188 Z " /><path fill="rgb(92,50,46)" stroke="rgb(92,50,46)" stroke-width="1" opacity="0.996078431372549" d="M 46.5 189 L 49 189.5 L 49 200 L 44 200 L 44 192.5 L 46.5 189 Z " /><path fill="rgb(92,50,46)" stroke="rgb(92,50,46)" stroke-width="1" opacity="0.996078431372549" d="M 139.5 193 L 141 200 L 136 200 L 136 196.5 L 135 194 L 139.5 193 Z " /><path fill="rgb(26,18,14)" stroke="rgb(26,18,14)" stroke-width="1" opacity="0.9882352941176471" d="M 152.5 57 Q 157.9 55.1 157 58.5 L 160 63.5 L 165 79.5 L 162.5 78 L 159 76.5 L 159 72.5 L 155 62 L 147.5 62 L 139.5 64 L 121.5 74 L 111.5 83 L 110 78.5 L 128.5 65 L 139.5 60 L 152.5 57 Z " /><path fill="rgb(26,18,14)" stroke="rgb(26,18,14)" stroke-width="1" opacity="0.9882352941176471" d="M 39.5 66 L 51.5 67 L 55 69.5 L 55 72 L 48.5 72 L 47.5 71 L 39.5 71 L 38 72.5 L 38 91.5 L 36.5 93 L 31.5 96 L 14 112.5 L 16.5 116 L 39.5 123 L 41 124.5 L 39.5 124 Q 36.2 122.9 37 125.5 L 36.5 127 L 39 128.5 Q 36.2 131.2 37 137.5 L 42.5 144 L 50 147.5 L 45.5 151 L 45.5 149 Q 39.5 148 38.5 152 Q 35.5 151.5 36 147.5 L 37 145.5 Q 32.3 141.7 32 133.5 L 34 126 Q 18.1 124.1 8 115.5 L 7 112.5 L 33 89.5 L 33 72.5 L 35 67 L 39.5 66 Z " /><path fill="rgb(26,18,14)" stroke="rgb(26,18,14)" stroke-width="1" opacity="0.9882352941176471" d="M 168 76 L 175.5 79 L 195 91.5 Q 195.5 96.5 191.5 97 L 168 113.5 Q 172.2 117.3 171 126.5 L 163.5 136 L 161 137.5 L 168 142.5 Q 171.4 147.6 170 157.5 L 165.5 164 L 162.5 166 L 152 166 L 152 169.5 L 146.5 178 L 136.5 180 L 128 178 L 124 186 L 115.5 191 L 109.5 191 Q 102.3 189.7 98.5 185 L 92.5 192 Q 89.2 194.7 82.5 194 L 75.5 191 L 69.5 185 L 67.5 185 Q 65.8 187.8 59.5 186 L 53.5 184 L 51 181.5 L 48.5 176 L 46.5 176 L 44.5 177 L 40 174.5 L 40.5 168 L 41 170 L 47.5 172 Q 49 169.5 50.5 173 L 53 174.5 Q 52.5 179.5 56.5 180 Q 59.4 182.6 65.5 182 L 72.5 180 L 77.5 187 Q 80.5 190 86.5 190 L 93 187 L 95.5 183 L 102.5 182 Q 105.2 187.8 115.5 186 L 122 181.5 L 123 176.5 L 126.5 173 L 133.5 175 L 142.5 175 L 146 172.5 Q 148.7 170.2 148 164.5 L 151.5 161 L 159.5 162 L 164 158.5 L 166 151.5 L 164 145.5 L 161.5 143 L 152.5 142 L 148 144 L 147 151.5 L 145.5 153 L 142.5 154 Q 141 151.5 135.5 153 Q 129.8 154.3 127 158.5 L 126 164 L 120.5 165 Q 117.6 160.9 109.5 162 L 102 166.5 L 101 171 L 95.5 172 Q 91.2 165.8 80.5 166 Q 79.3 168.3 74.5 167 Q 71.1 160.9 62.5 160 L 58.5 161 L 55 153 L 52 152.5 Q 58.7 153.2 61.5 150 L 62 152 L 69.5 152 L 70.5 153 L 98.5 153 L 99.5 152 L 114.5 151 L 139.5 144 Q 155.9 138.4 166 126.5 Q 167.3 118.3 163.5 115 L 134.5 127 L 127 128 L 126 124.5 L 114.5 113 L 102.5 131 L 91.5 132 L 92 130.5 L 93.5 128 L 99.5 127 L 102 124.5 L 113.5 108 Q 117.9 106.5 117 109.5 L 129.5 123 L 136.5 122 L 166.5 109 L 187 93.5 L 185.5 91 L 166 79.5 L 168 76 Z M 144 147 L 144 148 L 146 148 L 144 147 Z M 123 153 L 120 155 Q 111 154 106 157 L 104 156 L 103 157 L 72 157 L 77 163 L 81 162 Q 91 162 97 166 L 98 164 L 107 158 L 118 158 L 119 159 Q 124 161 122 156 L 125 155 Q 126 152 123 153 Z " /><path fill="rgb(26,18,14)" stroke="rgb(26,18,14)" stroke-width="1" opacity="0.9882352941176471" d="M 15.5 139 L 13.5 142 L 15.5 139 Z " /><path fill="rgb(26,18,14)" stroke="rgb(26,18,14)" stroke-width="1" opacity="0.9882352941176471" d="M 11.5 144 L 10.5 146 L 11.5 144 Z " /><path fill="rgb(26,18,14)" stroke="rgb(26,18,14)" stroke-width="1" opacity="0.9882352941176471" d="M 19.5 144 L 20.5 146 L 19.5 144 Z " /><path fill="rgb(26,18,14)" stroke="rgb(26,18,14)" stroke-width="1" opacity="0.9882352941176471" d="M 65.5 145 L 72 145.5 L 65.5 146 L 65.5 145 Z " /><path fill="rgb(26,18,14)" stroke="rgb(26,18,14)" stroke-width="1" opacity="0.9882352941176471" d="M 9.5 148 L 10 153.5 L 9 153.5 L 9.5 148 Z " /><path fill="rgb(26,18,14)" stroke="rgb(26,18,14)" stroke-width="1" opacity="0.9882352941176471" d="M 30.5 151 L 35 156.5 L 34 156.5 L 30.5 151 Z " /><path fill="rgb(26,18,14)" stroke="rgb(26,18,14)" stroke-width="1" opacity="0.9882352941176471" d="M 41.5 156 L 40.5 158 L 41.5 156 Z " /><path fill="rgb(26,18,14)" stroke="rgb(26,18,14)" stroke-width="1" opacity="0.9882352941176471" d="M 11.5 158 L 14.5 162 L 11.5 158 Z " /><path fill="rgb(26,18,14)" stroke="rgb(26,18,14)" stroke-width="1" opacity="0.9882352941176471" d="M 35.5 158 L 37 160.5 L 36 160.5 L 35.5 158 Z " /><path fill="rgb(26,18,14)" stroke="rgb(26,18,14)" stroke-width="1" opacity="0.9882352941176471" d="M 22.5 163 L 25 163.5 L 22.5 164 L 22.5 163 Z " /><path fill="rgb(26,18,14)" stroke="rgb(26,18,14)" stroke-width="1" opacity="0.9882352941176471" d="M 41.5 163 L 42 166.5 L 41 166.5 L 41.5 163 Z " /><path fill="rgb(26,18,14)" stroke="rgb(26,18,14)" stroke-width="1" opacity="0.9882352941176471" d="M 25.5 165 L 26 167.5 L 22 170.5 L 25.5 165 Z " /><path fill="rgb(26,18,14)" stroke="rgb(26,18,14)" stroke-width="1" opacity="0.9882352941176471" d="M 35.5 169 L 33.5 172 L 35.5 169 Z " /><path fill="rgb(26,18,14)" stroke="rgb(26,18,14)" stroke-width="1" opacity="0.9882352941176471" d="M 21.5 172 L 20 174.5 L 19.5 176 L 19 174.5 L 21.5 172 Z " /><path fill="rgb(26,18,14)" stroke="rgb(26,18,14)" stroke-width="1" opacity="0.9882352941176471" d="M 31.5 172 L 30.5 174 L 31.5 172 Z " /><path fill="rgb(26,18,14)" stroke="rgb(26,18,14)" stroke-width="1" opacity="0.9882352941176471" d="M 43.5 178 L 42.5 180 L 43.5 178 Z " /><path fill="rgb(26,18,14)" stroke="rgb(26,18,14)" stroke-width="1" opacity="0.9882352941176471" d="M 35.5 181 L 39.5 183 L 41 182.5 L 36 190.5 L 33 200 Q 27.4 202.2 29 196.5 L 35.5 181 Z " /><path fill="rgb(102,80,60)" stroke="rgb(102,80,60)" stroke-width="1" opacity="0.996078431372549" d="M 176.5 42 Q 181 48 179 60.5 L 172.5 68 L 164.5 72 L 160 60 Q 169.1 59.4 173 52.5 L 176.5 42 Z " /><path fill="rgb(102,80,60)" stroke="rgb(102,80,60)" stroke-width="1" opacity="0.996078431372549" d="M 151.5 62 L 155 63.5 L 153.5 63 Q 150.5 63.5 151.5 62 Z " /><path fill="rgb(102,80,60)" stroke="rgb(102,80,60)" stroke-width="1" opacity="0.996078431372549" d="M 121.5 75 L 120.5 77 L 121.5 75 Z " /><path fill="rgb(102,80,60)" stroke="rgb(102,80,60)" stroke-width="1" opacity="0.996078431372549" d="M 147.5 76 L 148.5 78 L 147.5 76 Z " /><path fill="rgb(102,80,60)" stroke="rgb(102,80,60)" stroke-width="1" opacity="0.996078431372549" d="M 149.5 79 Q 154.2 87.5 155 99 L 152.5 98 L 150.5 98 Q 138.4 97.1 131 91.5 Q 137.9 82.9 149.5 79 Z M 136 89 L 133 90 Q 132 93 136 92 L 136 89 Z " /><path fill="rgb(102,80,60)" stroke="rgb(102,80,60)" stroke-width="1" opacity="0.996078431372549" d="M 117.5 83 L 120.5 87 L 117.5 83 Z " /><path fill="rgb(102,80,60)" stroke="rgb(102,80,60)" stroke-width="1" opacity="0.996078431372549" d="M 116.5 89 L 117.5 91 L 116.5 89 Z " /><path fill="rgb(102,80,60)" stroke="rgb(102,80,60)" stroke-width="1" opacity="0.996078431372549" d="M 156.5 100 L 160 100.5 L 156.5 101 L 156.5 100 Z " /><path fill="rgb(102,80,60)" stroke="rgb(102,80,60)" stroke-width="1" opacity="0.996078431372549" d="M 121.5 112 L 122.5 114 L 121.5 112 Z " /><path fill="rgb(102,80,60)" stroke="rgb(102,80,60)" stroke-width="1" opacity="0.996078431372549" d="M 42.5 123 L 45 123.5 L 42.5 124 L 42.5 123 Z " /><path fill="rgb(102,80,60)" stroke="rgb(102,80,60)" stroke-width="1" opacity="0.996078431372549" d="M 134.5 127 L 133.5 129 L 134.5 127 Z " /><path fill="rgb(102,80,60)" stroke="rgb(102,80,60)" stroke-width="1" opacity="0.996078431372549" d="M 163.5 128 L 161.5 131 L 163.5 128 Z " /><path fill="rgb(102,80,60)" stroke="rgb(102,80,60)" stroke-width="1" opacity="0.996078431372549" d="M 64.5 132 L 70 132.5 L 64.5 133 L 64.5 132 Z " /><path fill="rgb(102,80,60)" stroke="rgb(102,80,60)" stroke-width="1" opacity="0.996078431372549" d="M 96.5 132 L 98 134.5 L 94 137.5 L 97 134.5 L 96 133.5 L 96.5 132 Z " /><path fill="rgb(102,80,60)" stroke="rgb(102,80,60)" stroke-width="1" opacity="0.996078431372549" d="M 79.5 135 L 80.5 137 L 79.5 135 Z " /><path fill="rgb(102,80,60)" stroke="rgb(102,80,60)" stroke-width="1" opacity="0.996078431372549" d="M 39.5 139 L 43.5 144 L 39.5 139 Z " /><path fill="rgb(102,80,60)" stroke="rgb(102,80,60)" stroke-width="1" opacity="0.996078431372549" d="M 86.5 140 L 89 140.5 L 86.5 141 L 86.5 140 Z " /><path fill="rgb(102,80,60)" stroke="rgb(102,80,60)" stroke-width="1" opacity="0.996078431372549" d="M 15.5 141 L 19 146 L 22 147.5 L 20.5 147 L 18 148.5 Q 17.3 152.3 19.5 153 L 22.5 154 L 25 150.5 L 24.5 149 L 34 156.5 L 24.5 162 L 17.5 162 L 12 157.5 L 10 149.5 Q 11.3 143.8 15.5 141 Z " /><path fill="rgb(102,80,60)" stroke="rgb(102,80,60)" stroke-width="1" opacity="0.996078431372549" d="M 34.5 162 Q 38.3 160.8 37 164.5 L 31.5 172 L 21.5 176 L 21 174.5 L 28.5 165 L 34.5 162 Z " /><path fill="rgb(102,80,60)" stroke="rgb(102,80,60)" stroke-width="1" opacity="0.996078431372549" d="M 155.5 167 L 159 167.5 L 155.5 168 L 155.5 167 Z " /><path fill="rgb(102,80,60)" stroke="rgb(102,80,60)" stroke-width="1" opacity="0.996078431372549" d="M 162.5 169 L 163.5 171 L 162.5 169 Z " /><path fill="rgb(102,80,60)" stroke="rgb(102,80,60)" stroke-width="1" opacity="0.996078431372549" d="M 144.5 172 L 143.5 174 L 144.5 172 Z " /><path fill="rgb(102,80,60)" stroke="rgb(102,80,60)" stroke-width="1" opacity="0.996078431372549" d="M 167.5 176 L 168.5 178 L 167.5 176 Z " /><path fill="rgb(102,80,60)" stroke="rgb(102,80,60)" stroke-width="1" opacity="0.996078431372549" d="M 169.5 179 L 171 182 L 169 181.5 L 169.5 179 Z " /><path fill="rgb(102,80,60)" stroke="rgb(102,80,60)" stroke-width="1" opacity="0.996078431372549" d="M 136.5 180 L 140 180.5 L 136.5 181 L 136.5 180 Z " /><path fill="rgb(102,80,60)" stroke="rgb(102,80,60)" stroke-width="1" opacity="0.996078431372549" d="M 164.5 180 L 167 180.5 L 164.5 181 L 164.5 180 Z " /><path fill="rgb(102,80,60)" stroke="rgb(102,80,60)" stroke-width="1" opacity="0.996078431372549" d="M 124.5 186 L 123.5 188 L 124.5 186 Z " /><path fill="rgb(102,80,60)" stroke="rgb(102,80,60)" stroke-width="1" opacity="0.996078431372549" d="M 136.5 187 L 140 192.5 Q 138.8 195 135 194 L 134 189.5 L 136.5 187 Z " /><path fill="rgb(102,80,60)" stroke="rgb(102,80,60)" stroke-width="1" opacity="0.996078431372549" d="M 45 188 Q 48.8 187 50 189.5 L 49.5 195 L 49 189 L 45 190.5 L 44.5 192 L 44 190.5 L 45 188 Z " /><path fill="rgb(102,80,60)" stroke="rgb(102,80,60)" stroke-width="1" opacity="0.996078431372549" d="M 176.5 190 L 177.5 192 L 176.5 190 Z " /><path fill="rgb(102,80,60)" stroke="rgb(102,80,60)" stroke-width="1" opacity="0.996078431372549" d="M 118.5 193 L 112.5 200 L 118.5 193 Z " /><path fill="rgb(102,80,60)" stroke="rgb(102,80,60)" stroke-width="1" opacity="0.996078431372549" d="M 140.5 195 L 141 197.5 L 140 197.5 L 140.5 195 Z " /><path fill="rgb(102,80,60)" stroke="rgb(102,80,60)" stroke-width="1" opacity="0.996078431372549" d="M 135.5 196 L 136 199.5 L 135 199.5 L 135.5 196 Z " /><path fill="rgb(102,80,60)" stroke="rgb(102,80,60)" stroke-width="1" opacity="0.996078431372549" d="M 43.5 197 L 44 199.5 L 43 199.5 L 43.5 197 Z " /></svg>