<svg width="200" height="200" version="1.1" xmlns="http://www.w3.org/2000/svg" desc="Created with imagetracer.js version 1.2.6" ><path fill="rgb(0,0,0)" stroke="rgb(0,0,0)" stroke-width="1" opacity="0.21568627450980393" d="M 87.5 25 L 91 25.5 L 87.5 26 L 87.5 25 Z " /><path fill="rgb(0,0,0)" stroke="rgb(0,0,0)" stroke-width="1" opacity="0.21568627450980393" d="M 82.5 26 L 85 26.5 L 82.5 27 L 82.5 26 Z " /><path fill="rgb(0,0,0)" stroke="rgb(0,0,0)" stroke-width="1" opacity="0.21568627450980393" d="M 93.5 26 L 99 26.5 L 93.5 27 L 93.5 26 Z " /><path fill="rgb(0,0,0)" stroke="rgb(0,0,0)" stroke-width="1" opacity="0.21568627450980393" d="M 100.5 27 L 103 27.5 L 100.5 28 L 100.5 27 Z " /><path fill="rgb(0,0,0)" stroke="rgb(0,0,0)" stroke-width="1" opacity="0.21568627450980393" d="M 106.5 29 L 108 32 L 102.5 33 L 102.5 32 L 107 30.5 L 106.5 29 Z " /><path fill="rgb(0,0,0)" stroke="rgb(0,0,0)" stroke-width="1" opacity="0.21568627450980393" d="M 73.5 30 L 72.5 32 L 73.5 30 Z " /><path fill="rgb(0,0,0)" stroke="rgb(0,0,0)" stroke-width="1" opacity="0.21568627450980393" d="M 70.5 32 L 65 38.5 L 61.5 47 L 61 44.5 Q 63.9 36.4 70.5 32 Z " /><path fill="rgb(0,0,0)" stroke="rgb(0,0,0)" stroke-width="1" opacity="0.21568627450980393" d="M 99.5 33 L 101 33.5 L 97.5 35 L 97.5 34 L 99.5 33 Z " /><path fill="rgb(0,0,0)" stroke="rgb(0,0,0)" stroke-width="1" opacity="0.21568627450980393" d="M 95.5 35 L 92.5 39 L 91 38.5 L 95.5 35 Z " /><path fill="rgb(0,0,0)" stroke="rgb(0,0,0)" stroke-width="1" opacity="0.21568627450980393" d="M 90.5 40 L 89 42.5 L 85 54 L 87.5 53 L 85.5 56 Q 82.1 56.9 84 51.5 L 90.5 40 Z " /><path fill="rgb(0,0,0)" stroke="rgb(0,0,0)" stroke-width="1" opacity="0.21568627450980393" d="M 106.5 44 Q 118.7 42.8 124 48.5 L 122.5 48 L 114.5 45 L 106.5 45 L 106.5 44 Z " /><path fill="rgb(0,0,0)" stroke="rgb(0,0,0)" stroke-width="1" opacity="0.21568627450980393" d="M 97.5 47 L 99 47.5 L 94.5 50 L 95.5 48 L 97.5 47 Z " /><path fill="rgb(0,0,0)" stroke="rgb(0,0,0)" stroke-width="1" opacity="0.21568627450980393" d="M 60.5 48 L 61 56.5 L 60 56.5 L 60.5 48 Z " /><path fill="rgb(0,0,0)" stroke="rgb(0,0,0)" stroke-width="1" opacity="0.21568627450980393" d="M 125.5 49 L 135 56.5 L 133.5 56 Q 127.5 53.5 125.5 49 Z " /><path fill="rgb(0,0,0)" stroke="rgb(0,0,0)" stroke-width="1" opacity="0.21568627450980393" d="M 92.5 50 L 91.5 52 L 89.5 53 L 90.5 51 L 92.5 50 Z " /><path fill="rgb(0,0,0)" stroke="rgb(0,0,0)" stroke-width="1" opacity="0.21568627450980393" d="M 178.5 56 L 182 57.5 L 181.5 68 L 181 57 Q 177.7 57.8 178.5 56 Z " /><path fill="rgb(0,0,0)" stroke="rgb(0,0,0)" stroke-width="1" opacity="0.21568627450980393" d="M 136.5 57 L 137.5 59 L 136.5 57 Z " /><path fill="rgb(0,0,0)" stroke="rgb(0,0,0)" stroke-width="1" opacity="0.21568627450980393" d="M 61.5 58 L 62 60 L 55 59.5 L 61.5 58 Z " /><path fill="rgb(0,0,0)" stroke="rgb(0,0,0)" stroke-width="1" opacity="0.21568627450980393" d="M 171.5 58 L 174 58.5 L 171.5 59 L 171.5 58 Z " /><path fill="rgb(0,0,0)" stroke="rgb(0,0,0)" stroke-width="1" opacity="0.21568627450980393" d="M 139.5 59 L 145.5 61 L 160 61.5 L 145.5 62 L 139.5 60 L 139.5 59 Z " /><path fill="rgb(0,0,0)" stroke="rgb(0,0,0)" stroke-width="1" opacity="0.21568627450980393" d="M 166.5 59 L 170 59.5 L 166.5 60 L 166.5 59 Z " /><path fill="rgb(0,0,0)" stroke="rgb(0,0,0)" stroke-width="1" opacity="0.21568627450980393" d="M 51.5 60 L 54 60.5 L 51.5 61 L 51.5 60 Z " /><path fill="rgb(0,0,0)" stroke="rgb(0,0,0)" stroke-width="1" opacity="0.21568627450980393" d="M 161.5 60 L 165 60.5 L 161.5 61 L 161.5 60 Z " /><path fill="rgb(0,0,0)" stroke="rgb(0,0,0)" stroke-width="1" opacity="0.21568627450980393" d="M 48.5 61 L 50 61.5 L 42.5 66 L 44.5 63 L 48.5 61 Z " /><path fill="rgb(0,0,0)" stroke="rgb(0,0,0)" stroke-width="1" opacity="0.21568627450980393" d="M 40.5 66 L 38 69.5 L 37.5 71 L 37 69.5 L 40.5 66 Z " /><path fill="rgb(0,0,0)" stroke="rgb(0,0,0)" stroke-width="1" opacity="0.21568627450980393" d="M 180.5 70 L 181 72.5 L 180 72.5 L 180.5 70 Z " /><path fill="rgb(0,0,0)" stroke="rgb(0,0,0)" stroke-width="1" opacity="0.21568627450980393" d="M 36.5 72 L 37 74.5 L 29.5 84 L 34 78.5 L 36.5 72 Z " /><path fill="rgb(0,0,0)" stroke="rgb(0,0,0)" stroke-width="1" opacity="0.21568627450980393" d="M 179.5 74 L 180 75.5 L 176 82.5 L 179 86.5 L 175 83.5 L 179.5 74 Z " /><path fill="rgb(0,0,0)" stroke="rgb(0,0,0)" stroke-width="1" opacity="0.21568627450980393" d="M 27.5 84 L 26.5 86 L 25 85.5 L 27.5 84 Z " /><path fill="rgb(0,0,0)" stroke="rgb(0,0,0)" stroke-width="1" opacity="0.21568627450980393" d="M 19.5 88 L 18.5 90 L 13 94.5 L 11.5 97 L 12 95.5 L 17.5 89 L 19.5 88 Z " /><path fill="rgb(0,0,0)" stroke="rgb(0,0,0)" stroke-width="1" opacity="0.21568627450980393" d="M 179.5 88 L 184 93.5 L 181 91.5 L 179.5 88 Z " /><path fill="rgb(0,0,0)" stroke="rgb(0,0,0)" stroke-width="1" opacity="0.21568627450980393" d="M 186.5 101 L 187 108.5 L 186 108.5 L 186.5 101 Z " /><path fill="rgb(0,0,0)" stroke="rgb(0,0,0)" stroke-width="1" opacity="0.21568627450980393" d="M 8.5 103 L 9 105.5 L 8 105.5 L 8.5 103 Z " /><path fill="rgb(0,0,0)" stroke="rgb(0,0,0)" stroke-width="1" opacity="0.21568627450980393" d="M 7.5 107 L 8 121.5 L 7 121.5 L 7.5 107 Z " /><path fill="rgb(0,0,0)" stroke="rgb(0,0,0)" stroke-width="1" opacity="0.21568627450980393" d="M 185.5 110 L 186 112.5 L 185 112.5 L 185.5 110 Z " /><path fill="rgb(0,0,0)" stroke="rgb(0,0,0)" stroke-width="1" opacity="0.21568627450980393" d="M 27.5 116 L 22.5 122 Q 20.8 119.3 19 123.5 L 19.5 125 L 22 123.5 Q 17.7 126.7 19 135.5 Q 22.4 146.6 30.5 153 L 36 155.5 L 34.5 156 L 31.5 155 L 24 147.5 L 18 135.5 L 18 128.5 L 19 125.5 L 17 125.5 L 22.5 119 Q 23.7 121.3 25 118.5 Q 24.3 116.3 26.5 117 L 27.5 116 Z " /><path fill="rgb(0,0,0)" stroke="rgb(0,0,0)" stroke-width="1" opacity="0.21568627450980393" d="M 183.5 116 L 184 119.5 L 183 119.5 L 183.5 116 Z " /><path fill="rgb(0,0,0)" stroke="rgb(0,0,0)" stroke-width="1" opacity="0.21568627450980393" d="M 185.5 123 L 186.5 125 L 185.5 123 Z " /><path fill="rgb(0,0,0)" stroke="rgb(0,0,0)" stroke-width="1" opacity="0.21568627450980393" d="M 187.5 126 L 190.5 130 L 187.5 126 Z " /><path fill="rgb(0,0,0)" stroke="rgb(0,0,0)" stroke-width="1" opacity="0.21568627450980393" d="M 10.5 128 L 12 130.5 L 10 129.5 L 10.5 128 Z " /><path fill="rgb(0,0,0)" stroke="rgb(0,0,0)" stroke-width="1" opacity="0.21568627450980393" d="M 15.5 130 L 16 133.5 Q 14 137 12 132.5 L 15 133.5 L 15.5 130 Z " /><path fill="rgb(0,0,0)" stroke="rgb(0,0,0)" stroke-width="1" opacity="0.21568627450980393" d="M 192.5 130 L 193.5 132 L 192.5 130 Z " /><path fill="rgb(0,0,0)" stroke="rgb(0,0,0)" stroke-width="1" opacity="0.21568627450980393" d="M 195.5 133 L 200 136.5 L 198.5 136 L 195.5 133 Z " /><path fill="rgb(0,0,0)" stroke="rgb(0,0,0)" stroke-width="1" opacity="0.21568627450980393" d="M 42.5 147 L 47 149.5 L 45 150 L 47 155.5 L 44.5 157 L 44.5 156 Q 47.1 156.8 46 153.5 L 42.5 147 Z " /><path fill="rgb(0,0,0)" stroke="rgb(0,0,0)" stroke-width="1" opacity="0.21568627450980393" d="M 48.5 150 L 53.5 156 Q 56.1 155.2 55 158.5 L 47.5 167 L 43.5 169 L 44.5 167 Q 50.6 165.6 53 160.5 L 54 157.5 Q 48.6 154.6 48.5 150 Z " /><path fill="rgb(0,0,0)" stroke="rgb(0,0,0)" stroke-width="1" opacity="0.21568627450980393" d="M 37.5 156 L 40 156.5 L 37.5 157 L 37.5 156 Z " /><path fill="rgb(0,0,0)" stroke="rgb(0,0,0)" stroke-width="1" opacity="0.21568627450980393" d="M 37.5 170 L 39 170.5 L 35.5 172 L 35.5 171 L 37.5 170 Z " /><path fill="rgb(0,0,0)" stroke="rgb(0,0,0)" stroke-width="1" opacity="0.21568627450980393" d="M 31.5 172 L 34 172.5 L 8.5 180 L 8.5 179 L 31.5 172 Z " /><path fill="rgb(231,198,175)" stroke="rgb(231,198,175)" stroke-width="1" opacity="1" d="M 152.5 108 L 153.5 110 L 156.5 109 Q 160.8 111.2 160 118.5 L 157.5 123 L 150 125 L 150 126.5 L 140.5 136 Q 115.6 154.6 70.5 153 L 56 150 L 56 144 L 58.5 144 L 61.5 145 L 64.5 146 L 83.5 146 L 89.5 149 Q 95 147.5 96.5 150 L 97 148.5 L 97 146.5 L 97 144 L 103.5 144 L 124.5 138 L 144 126 L 149 119.5 L 152 110.5 Q 149.8 109.3 152.5 108 Z " /><path fill="rgb(231,198,175)" stroke="rgb(231,198,175)" stroke-width="1" opacity="1" d="M 119.5 154 L 122 154.5 L 115.5 161 L 113.5 161 L 99.5 164 L 88 164 Q 85.7 157.6 93.5 160 L 115.5 156 L 119.5 154 Z " /><path fill="rgb(231,198,175)" stroke="rgb(231,198,175)" stroke-width="1" opacity="1" d="M 77.5 161 L 79 161.5 L 79 170.5 L 81 177.5 L 79 176.5 L 77.5 173 L 72.5 177 L 71 174.5 L 74.5 166 L 76 165.5 L 75 163.5 L 77.5 161 Z " /><path fill="rgb(231,198,175)" stroke="rgb(231,198,175)" stroke-width="1" opacity="1" d="M 104.5 169 L 109 169.5 L 95.5 185 L 93 183.5 L 92 171 L 104.5 169 Z " /><path fill="rgb(0,0,0)" stroke="rgb(0,0,0)" stroke-width="1" opacity="0" d="M 0 0 L 200 0 L 200 135.5 L 198.5 135 L 187 125.5 Q 183.1 122.9 184 115.5 Q 188.1 111 187 101.5 L 183 91.5 L 176 82.5 Q 183.2 74.2 182 57.5 L 178.5 56 L 160.5 61 L 145.5 61 L 138.5 59 L 118.5 45 L 106.5 44 L 97.5 47 L 85 54 Q 85.9 44.8 91 39 L 96.5 35 L 108 32 L 106.5 29 L 98.5 26 L 87.5 25 Q 71.9 27.9 64 38.5 L 60 48.5 L 60 56.5 L 61 59 Q 44.5 59.1 37 69.5 Q 35.6 79.6 28.5 84 Q 17.7 86.7 12 94.5 L 7 107.5 L 7 121.5 Q 8.9 130.1 14.5 135 L 16 133.5 L 17 126.5 L 24.5 118 L 22 121.5 Q 16.7 125.2 18 135.5 Q 22 148 31.5 155 Q 36.5 158 45.5 157 L 47 153.5 L 44 149.5 L 45.5 150 L 49 151.5 L 54 158.5 L 47.5 166 L 34.5 172 Q 17.9 174.7 5 180 Q 6.1 182.7 3.5 182 L 0.5 184 L 0 0 Z " /><path fill="rgb(30,82,85)" stroke="rgb(30,82,85)" stroke-width="1" opacity="1" d="M 73.5 38 L 71.5 41 L 73.5 38 Z " /><path fill="rgb(30,82,85)" stroke="rgb(30,82,85)" stroke-width="1" opacity="1" d="M 90.5 59 L 85.5 65 L 90.5 59 Z " /><path fill="rgb(30,82,85)" stroke="rgb(30,82,85)" stroke-width="1" opacity="1" d="M 171.5 76 L 169.5 79 L 171.5 76 Z " /><path fill="rgb(30,82,85)" stroke="rgb(30,82,85)" stroke-width="1" opacity="1" d="M 39.5 82 L 38.5 84 L 39.5 82 Z " /><path fill="rgb(30,82,85)" stroke="rgb(30,82,85)" stroke-width="1" opacity="1" d="M 171.5 88 L 172.5 90 L 171.5 88 Z " /><path fill="rgb(30,82,85)" stroke="rgb(30,82,85)" stroke-width="1" opacity="1" d="M 82.5 92 L 84 94.5 L 83 94.5 L 82.5 92 Z " /><path fill="rgb(30,82,85)" stroke="rgb(30,82,85)" stroke-width="1" opacity="1" d="M 23.5 93 L 21.5 96 L 23.5 93 Z " /><path fill="rgb(30,82,85)" stroke="rgb(30,82,85)" stroke-width="1" opacity="1" d="M 76.5 93 L 77 94.5 L 74 96.5 L 76.5 93 Z " /><path fill="rgb(30,82,85)" stroke="rgb(30,82,85)" stroke-width="1" opacity="1" d="M 105.5 94 L 106 95.5 L 104 96.5 L 105.5 94 Z " /><path fill="rgb(30,82,85)" stroke="rgb(30,82,85)" stroke-width="1" opacity="1" d="M 83.5 96 L 84 99.5 L 83 99.5 L 83.5 96 Z " /><path fill="rgb(30,82,85)" stroke="rgb(30,82,85)" stroke-width="1" opacity="1" d="M 73.5 98 L 73 99.5 Q 73.9 102.9 68.5 101 L 68.5 100 Q 72.8 100.8 73.5 98 Z " /><path fill="rgb(30,82,85)" stroke="rgb(30,82,85)" stroke-width="1" opacity="1" d="M 103.5 98 L 104 99.5 L 102.5 102 L 102 100.5 L 103.5 98 Z " /><path fill="rgb(30,82,85)" stroke="rgb(30,82,85)" stroke-width="1" opacity="1" d="M 56 100 L 58 100.5 L 55.5 104 L 55 102.5 L 56 100 Z " /><path fill="rgb(30,82,85)" stroke="rgb(30,82,85)" stroke-width="1" opacity="1" d="M 150.5 100 L 152 100.5 L 144.5 106 L 148.5 101 L 150.5 100 Z " /><path fill="rgb(30,82,85)" stroke="rgb(30,82,85)" stroke-width="1" opacity="1" d="M 155.5 100 L 163 105.5 L 164 107.5 L 162 106.5 L 158.5 102 Q 154.7 101.7 155.5 100 Z " /><path fill="rgb(30,82,85)" stroke="rgb(30,82,85)" stroke-width="1" opacity="1" d="M 82.5 101 L 83 105.5 L 80.5 116 L 80 112.5 L 82.5 101 Z " /><path fill="rgb(30,82,85)" stroke="rgb(30,82,85)" stroke-width="1" opacity="1" d="M 101.5 103 L 101 104.5 L 98.5 110 L 98 108.5 L 101.5 103 Z " /><path fill="rgb(30,82,85)" stroke="rgb(30,82,85)" stroke-width="1" opacity="1" d="M 35.5 105 L 39 106.5 L 38.5 110 L 38 106 Q 34.7 106.8 35.5 105 Z " /><path fill="rgb(30,82,85)" stroke="rgb(30,82,85)" stroke-width="1" opacity="1" d="M 109.5 106 L 115 112.5 L 110 108.5 L 109.5 106 Z " /><path fill="rgb(30,82,85)" stroke="rgb(30,82,85)" stroke-width="1" opacity="1" d="M 14.5 107 L 15 110.5 L 14 110.5 L 14.5 107 Z " /><path fill="rgb(30,82,85)" stroke="rgb(30,82,85)" stroke-width="1" opacity="1" d="M 54.5 107 L 55 109.5 L 54 109.5 L 54.5 107 Z " /><path fill="rgb(30,82,85)" stroke="rgb(30,82,85)" stroke-width="1" opacity="1" d="M 143.5 107 L 143 108.5 L 142.5 110 L 142 108.5 L 143.5 107 Z " /><path fill="rgb(30,82,85)" stroke="rgb(30,82,85)" stroke-width="1" opacity="1" d="M 156.5 107 L 157.5 109 L 156.5 107 Z " /><path fill="rgb(30,82,85)" stroke="rgb(30,82,85)" stroke-width="1" opacity="1" d="M 97.5 111 L 97 112.5 L 93.5 119 L 94 117.5 L 97.5 111 Z " /><path fill="rgb(30,82,85)" stroke="rgb(30,82,85)" stroke-width="1" opacity="1" d="M 141.5 111 L 142 112.5 L 140 113.5 L 141.5 111 Z " /><path fill="rgb(30,82,85)" stroke="rgb(30,82,85)" stroke-width="1" opacity="1" d="M 165.5 111 L 166 113.5 L 165 113.5 L 165.5 111 Z " /><path fill="rgb(30,82,85)" stroke="rgb(30,82,85)" stroke-width="1" opacity="1" d="M 106.5 112 L 108.5 115 L 106.5 112 Z " /><path fill="rgb(30,82,85)" stroke="rgb(30,82,85)" stroke-width="1" opacity="1" d="M 116.5 113 L 121 115.5 L 119.5 116 L 116.5 113 Z " /><path fill="rgb(30,82,85)" stroke="rgb(30,82,85)" stroke-width="1" opacity="1" d="M 18.5 114 L 14.5 119 L 18.5 114 Z " /><path fill="rgb(30,82,85)" stroke="rgb(30,82,85)" stroke-width="1" opacity="1" d="M 138.5 114 L 137.5 116 L 136 115.5 L 138.5 114 Z " /><path fill="rgb(30,82,85)" stroke="rgb(30,82,85)" stroke-width="1" opacity="1" d="M 160.5 116 L 161 118.5 L 160 118.5 L 160.5 116 Z " /><path fill="rgb(30,82,85)" stroke="rgb(30,82,85)" stroke-width="1" opacity="1" d="M 81.5 118 L 82 120.5 L 81 120.5 L 81.5 118 Z " /><path fill="rgb(30,82,85)" stroke="rgb(30,82,85)" stroke-width="1" opacity="1" d="M 34.5 119 L 32.5 122 L 34.5 119 Z " /><path fill="rgb(30,82,85)" stroke="rgb(30,82,85)" stroke-width="1" opacity="1" d="M 165.5 119 L 166 121.5 L 165 121.5 L 165.5 119 Z " /><path fill="rgb(30,82,85)" stroke="rgb(30,82,85)" stroke-width="1" opacity="1" d="M 159.5 121 L 157.5 124 L 159.5 121 Z " /><path fill="rgb(30,82,85)" stroke="rgb(30,82,85)" stroke-width="1" opacity="1" d="M 30.5 123 L 27.5 127 L 30.5 123 Z " /><path fill="rgb(30,82,85)" stroke="rgb(30,82,85)" stroke-width="1" opacity="1" d="M 49.5 123 L 45.5 128 L 49.5 123 Z " /><path fill="rgb(30,82,85)" stroke="rgb(30,82,85)" stroke-width="1" opacity="1" d="M 163.5 125 L 161.5 128 L 163.5 125 Z " /><path fill="rgb(30,82,85)" stroke="rgb(30,82,85)" stroke-width="1" opacity="1" d="M 179.5 126 L 180.5 128 L 179.5 126 Z " /><path fill="rgb(30,82,85)" stroke="rgb(30,82,85)" stroke-width="1" opacity="1" d="M 89.5 127 L 90 129.5 L 89 129.5 L 89.5 127 Z " /><path fill="rgb(30,82,85)" stroke="rgb(30,82,85)" stroke-width="1" opacity="1" d="M 43.5 128 L 44 129.5 L 42 130.5 L 43.5 128 Z " /><path fill="rgb(30,82,85)" stroke="rgb(30,82,85)" stroke-width="1" opacity="1" d="M 84.5 128 L 87 132.5 L 85 131.5 L 84.5 128 Z " /><path fill="rgb(30,82,85)" stroke="rgb(30,82,85)" stroke-width="1" opacity="1" d="M 147.5 129 L 145.5 132 L 147.5 129 Z " /><path fill="rgb(30,82,85)" stroke="rgb(30,82,85)" stroke-width="1" opacity="1" d="M 25.5 130 L 26 134.5 L 25 134.5 L 25.5 130 Z " /><path fill="rgb(30,82,85)" stroke="rgb(30,82,85)" stroke-width="1" opacity="1" d="M 154.5 130 L 147 138.5 L 148 140.5 L 146 139.5 L 154.5 130 Z " /><path fill="rgb(30,82,85)" stroke="rgb(30,82,85)" stroke-width="1" opacity="1" d="M 40.5 131 L 41 133 L 39 132.5 L 40.5 131 Z " /><path fill="rgb(30,82,85)" stroke="rgb(30,82,85)" stroke-width="1" opacity="1" d="M 88.5 131 L 89 135 L 87 134.5 L 88.5 131 Z " /><path fill="rgb(30,82,85)" stroke="rgb(30,82,85)" stroke-width="1" opacity="1" d="M 80.5 134 L 81.5 136 L 80.5 134 Z " /><path fill="rgb(30,82,85)" stroke="rgb(30,82,85)" stroke-width="1" opacity="1" d="M 186.5 134 L 187.5 136 L 186.5 134 Z " /><path fill="rgb(30,82,85)" stroke="rgb(30,82,85)" stroke-width="1" opacity="1" d="M 35.5 141 L 36 144.5 L 35 144.5 L 35.5 141 Z " /><path fill="rgb(30,82,85)" stroke="rgb(30,82,85)" stroke-width="1" opacity="1" d="M 29.5 142 L 30.5 144 L 29.5 142 Z " /><path fill="rgb(30,82,85)" stroke="rgb(30,82,85)" stroke-width="1" opacity="1" d="M 155.5 146 L 156.5 148 L 155.5 146 Z " /><path fill="rgb(30,82,85)" stroke="rgb(30,82,85)" stroke-width="1" opacity="1" d="M 149 153 L 152.5 153 L 159.5 157 L 176 171.5 Q 187.2 182.6 191 200 L 179.5 200 L 178 198.5 L 169 186 L 167 186 Q 168.1 183.3 165.5 184 L 158.5 176 L 144 165 L 145 160 Q 147.7 161.1 147 158.5 L 149 154.5 L 149 153 Z " /><path fill="rgb(30,82,85)" stroke="rgb(30,82,85)" stroke-width="1" opacity="1" d="M 168.5 155 L 170.5 158 L 168.5 155 Z " /><path fill="rgb(30,82,85)" stroke="rgb(30,82,85)" stroke-width="1" opacity="1" d="M 62.5 158 L 65 158.5 L 62.5 159 L 62.5 158 Z " /><path fill="rgb(30,82,85)" stroke="rgb(30,82,85)" stroke-width="1" opacity="1" d="M 67.5 159 L 65.5 162 L 67.5 159 Z " /><path fill="rgb(30,82,85)" stroke="rgb(30,82,85)" stroke-width="1" opacity="1" d="M 174.5 160 L 175.5 162 L 174.5 160 Z " /><path fill="rgb(30,82,85)" stroke="rgb(30,82,85)" stroke-width="1" opacity="1" d="M 59.5 163 L 58.5 165 L 59.5 163 Z " /><path fill="rgb(30,82,85)" stroke="rgb(30,82,85)" stroke-width="1" opacity="1" d="M 59.5 166 L 55.5 171 L 56.5 167 Q 58 169.5 59.5 166 Z " /><path fill="rgb(30,82,85)" stroke="rgb(30,82,85)" stroke-width="1" opacity="1" d="M 70.5 166 L 71 170 L 69 170.5 L 69 179.5 L 63 183 L 61.5 186 L 48 197.5 Q 48.8 199.8 46.5 199 L 42.5 200 L 43 198.5 L 55 180 Q 57.7 181.1 57 178.5 L 65 172 L 68.5 167 L 70.5 166 Z " /><path fill="rgb(30,82,85)" stroke="rgb(30,82,85)" stroke-width="1" opacity="1" d="M 182.5 169 L 185.5 173 L 182.5 169 Z " /><path fill="rgb(30,82,85)" stroke="rgb(30,82,85)" stroke-width="1" opacity="1" d="M 52.5 170 L 51.5 172 L 52.5 170 Z " /><path fill="rgb(30,82,85)" stroke="rgb(30,82,85)" stroke-width="1" opacity="1" d="M 186.5 174 L 187.5 176 L 186.5 174 Z " /><path fill="rgb(30,82,85)" stroke="rgb(30,82,85)" stroke-width="1" opacity="1" d="M 49.5 177 L 47.5 180 L 49.5 177 Z " /><path fill="rgb(30,82,85)" stroke="rgb(30,82,85)" stroke-width="1" opacity="1" d="M 188.5 177 L 189.5 179 L 188.5 177 Z " /><path fill="rgb(30,82,85)" stroke="rgb(30,82,85)" stroke-width="1" opacity="1" d="M 25.5 181 L 28 181.5 L 25.5 182 L 25.5 181 Z " /><path fill="rgb(30,82,85)" stroke="rgb(30,82,85)" stroke-width="1" opacity="1" d="M 17.5 183 L 20 183.5 L 17.5 184 L 17.5 183 Z " /><path fill="rgb(30,82,85)" stroke="rgb(30,82,85)" stroke-width="1" opacity="1" d="M 44.5 183 L 43.5 185 L 44.5 183 Z " /><path fill="rgb(30,82,85)" stroke="rgb(30,82,85)" stroke-width="1" opacity="1" d="M 9.5 186 L 8.5 188 L 9.5 186 Z " /><path fill="rgb(30,82,85)" stroke="rgb(30,82,85)" stroke-width="1" opacity="1" d="M 41.5 187 L 40.5 189 L 41.5 187 Z " /><path fill="rgb(30,82,85)" stroke="rgb(30,82,85)" stroke-width="1" opacity="1" d="M 6.5 188 L 5.5 190 L 6.5 188 Z " /><path fill="rgb(30,82,85)" stroke="rgb(30,82,85)" stroke-width="1" opacity="1" d="M 3.5 190 L 1.5 193 L 3.5 190 Z " /><path fill="rgb(30,189,178)" stroke="rgb(30,189,178)" stroke-width="1" opacity="1" d="M 72.5 50 L 75 51.5 L 75 59.5 L 81.5 68 L 85 66.5 L 90.5 60 L 106.5 52 L 106.5 53 L 99 58.5 L 96 62.5 L 96 65 Q 92.7 63.9 94 68 Q 104.1 67.3 108 73.5 L 91.5 77 L 79.5 84 L 72.5 91 L 72 82.5 L 73 81.5 L 73 72.5 L 70 70.5 L 75 67.5 L 73 62 L 69 59.5 L 68 55.5 L 72.5 50 Z " /><path fill="rgb(30,189,178)" stroke="rgb(30,189,178)" stroke-width="1" opacity="1" d="M 77.5 52 L 78 54.5 L 77 54.5 L 77.5 52 Z " /><path fill="rgb(30,189,178)" stroke="rgb(30,189,178)" stroke-width="1" opacity="1" d="M 141.5 67 L 142 69 L 146.5 68 L 150 69 Q 148.3 77 153.5 79 Q 159.3 77.3 158 81 L 149.5 84 L 136.5 84 L 126 78.5 L 133.5 77 L 137 73.5 L 138 71.5 L 137 68 L 141.5 67 Z " /><path fill="rgb(30,189,178)" stroke="rgb(30,189,178)" stroke-width="1" opacity="1" d="M 170.5 73 L 164.5 80 L 170.5 73 Z " /><path fill="rgb(30,189,178)" stroke="rgb(30,189,178)" stroke-width="1" opacity="1" d="M 42.5 80 L 44 83.5 L 42 90.5 L 37.5 95 L 29.5 98 L 24.5 98 L 21 96.5 Q 24.4 91.9 31.5 91 L 38 85.5 L 42.5 80 Z " /><path fill="rgb(30,189,178)" stroke="rgb(30,189,178)" stroke-width="1" opacity="1" d="M 161.5 81 L 160.5 83 L 157.5 84 L 157.5 83 L 161.5 81 Z " /><path fill="rgb(30,189,178)" stroke="rgb(30,189,178)" stroke-width="1" opacity="1" d="M 54.5 85 L 58 85.5 L 54.5 86 L 54.5 85 Z " /><path fill="rgb(30,189,178)" stroke="rgb(30,189,178)" stroke-width="1" opacity="1" d="M 49.5 87 L 48.5 89 L 49.5 87 Z " /><path fill="rgb(30,189,178)" stroke="rgb(30,189,178)" stroke-width="1" opacity="1" d="M 106.5 87 L 107.5 89 L 106.5 87 Z " /><path fill="rgb(30,189,178)" stroke="rgb(30,189,178)" stroke-width="1" opacity="1" d="M 132.5 87 L 136 87.5 L 132.5 88 L 132.5 87 Z " /><path fill="rgb(30,189,178)" stroke="rgb(30,189,178)" stroke-width="1" opacity="1" d="M 144.5 87 L 147 87.5 L 144.5 88 L 144.5 87 Z " /><path fill="rgb(30,189,178)" stroke="rgb(30,189,178)" stroke-width="1" opacity="1" d="M 56.5 89 Q 64.9 89.1 68 94.5 L 70 98.5 L 56.5 99 L 55 100.5 L 53 113.5 L 50 122 Q 47.3 120.9 48 123.5 L 42 128 Q 43.1 130.7 40.5 130 L 38 131 L 35 138.5 L 34.5 147 Q 29.1 142.9 27 135.5 L 31.5 128 L 34.5 126 L 48 117.5 L 51 110.5 L 52 93.5 L 54.5 90 L 56.5 89 Z " /><path fill="rgb(30,189,178)" stroke="rgb(30,189,178)" stroke-width="1" opacity="1" d="M 102.5 89 L 92.5 100 L 102.5 89 Z " /><path fill="rgb(30,189,178)" stroke="rgb(30,189,178)" stroke-width="1" opacity="1" d="M 86.5 90 L 87 93.5 L 86 93.5 L 86.5 90 Z " /><path fill="rgb(30,189,178)" stroke="rgb(30,189,178)" stroke-width="1" opacity="1" d="M 68.5 91 L 69.5 93 L 68.5 91 Z " /><path fill="rgb(30,189,178)" stroke="rgb(30,189,178)" stroke-width="1" opacity="1" d="M 109.5 91 L 112.5 95 L 109.5 91 Z " /><path fill="rgb(30,189,178)" stroke="rgb(30,189,178)" stroke-width="1" opacity="1" d="M 44.5 92 L 40.5 97 L 38.5 98 L 39.5 96 L 44.5 92 Z " /><path fill="rgb(30,189,178)" stroke="rgb(30,189,178)" stroke-width="1" opacity="1" d="M 168.5 92 L 174 99.5 L 170 96.5 L 168.5 92 Z " /><path fill="rgb(30,189,178)" stroke="rgb(30,189,178)" stroke-width="1" opacity="1" d="M 19.5 97 L 18.5 99 L 19.5 97 Z " /><path fill="rgb(30,189,178)" stroke="rgb(30,189,178)" stroke-width="1" opacity="1" d="M 149 98 L 157.5 98 L 166 105.5 L 171 114.5 L 172 124.5 Q 169.4 131.9 163.5 136 L 161 137.5 Q 162.8 145.2 168.5 149 L 172 150 Q 170.8 153 174.5 152 L 176 152.5 Q 174.8 146.4 177.5 147 L 193 160.5 L 200 171.5 L 200 199.5 L 199 199.5 L 198 193.5 L 196 191.5 L 192 180.5 L 182 166 L 175 160.5 L 173.5 158 L 147 140 Q 145.9 137.3 148.5 138 L 154.5 131 Q 162 130.5 165 125.5 Q 168.7 121.2 167 111.5 Q 164.8 104.8 159.5 101 Q 156.8 98.2 150.5 99 L 148 100.5 L 149 98 Z " /><path fill="rgb(30,189,178)" stroke="rgb(30,189,178)" stroke-width="1" opacity="1" d="M 28.5 99 L 31 99.5 L 28.5 100 L 28.5 99 Z " /><path fill="rgb(30,189,178)" stroke="rgb(30,189,178)" stroke-width="1" opacity="1" d="M 19.5 101 L 17.5 104 L 16.5 102 Q 18 104.5 19.5 101 Z " /><path fill="rgb(30,189,178)" stroke="rgb(30,189,178)" stroke-width="1" opacity="1" d="M 91.5 101 L 90.5 103 L 91.5 101 Z " /><path fill="rgb(30,189,178)" stroke="rgb(30,189,178)" stroke-width="1" opacity="1" d="M 176.5 103 L 177.5 105 L 176.5 103 Z " /><path fill="rgb(30,189,178)" stroke="rgb(30,189,178)" stroke-width="1" opacity="1" d="M 28.5 104 L 31 105.5 L 19 112 Q 20.1 114.7 17.5 114 L 15 115.5 Q 13.8 108.3 18.5 107 L 21.5 105 Q 27 106.5 28.5 104 Z " /><path fill="rgb(30,189,178)" stroke="rgb(30,189,178)" stroke-width="1" opacity="1" d="M 110 104 L 120.5 110 L 131.5 110 L 140.5 107 Q 143.3 108.2 141 109.5 L 139.5 113 Q 134.7 117.2 124.5 116 Q 116 114.5 112 108.5 L 110 104 Z " /><path fill="rgb(30,189,178)" stroke="rgb(30,189,178)" stroke-width="1" opacity="1" d="M 98.5 106 L 97 108.5 L 89 124.5 L 87.5 132 L 83 122.5 L 98.5 106 Z " /><path fill="rgb(30,189,178)" stroke="rgb(30,189,178)" stroke-width="1" opacity="1" d="M 177.5 128 L 179 130.5 L 177 129.5 L 177.5 128 Z " /><path fill="rgb(30,189,178)" stroke="rgb(30,189,178)" stroke-width="1" opacity="1" d="M 179.5 132 L 181 134.5 L 179 133.5 L 179.5 132 Z " /><path fill="rgb(30,189,178)" stroke="rgb(30,189,178)" stroke-width="1" opacity="1" d="M 181.5 136 L 182.5 138 L 181.5 136 Z " /><path fill="rgb(30,189,178)" stroke="rgb(30,189,178)" stroke-width="1" opacity="1" d="M 183.5 139 L 189.5 146 L 183.5 139 Z " /><path fill="rgb(30,189,178)" stroke="rgb(30,189,178)" stroke-width="1" opacity="1" d="M 196.5 143 L 197.5 145 L 196.5 143 Z " /><path fill="rgb(30,189,178)" stroke="rgb(30,189,178)" stroke-width="1" opacity="1" d="M 191.5 146 L 192.5 148 L 191.5 146 Z " /><path fill="rgb(30,189,178)" stroke="rgb(30,189,178)" stroke-width="1" opacity="1" d="M 63.5 159 L 64.5 161 L 62 162.5 L 59.5 166 L 60 164.5 L 61 160 L 63.5 159 Z " /><path fill="rgb(30,189,178)" stroke="rgb(30,189,178)" stroke-width="1" opacity="1" d="M 51.5 172 L 51 173.5 L 49.5 176 Q 46.9 175.2 48 178.5 L 44 181 L 44 183.5 Q 36.6 189.6 32.5 199 L 14 198.5 L 16.5 196 L 28 191.5 Q 24.4 187.6 17 187.5 L 23.5 184 L 35.5 181 L 46.5 176 L 51.5 172 Z " /><path fill="rgb(89,230,205)" stroke="rgb(89,230,205)" stroke-width="1" opacity="1" d="M 82.5 35 L 84 35.5 L 77 48.5 L 77 59.5 L 78 62.5 L 76 61.5 Q 73.7 58.3 75 51.5 L 73.5 50 L 69 53.5 L 68.5 55 L 68 52.5 L 69 47.5 L 73.5 40 L 82.5 35 Z " /><path fill="rgb(89,230,205)" stroke="rgb(89,230,205)" stroke-width="1" opacity="1" d="M 107.5 52 L 115.5 53 L 135.5 67 L 140 67.5 L 137 68 L 138 71.5 L 133.5 77 L 126 78.5 L 136.5 84 L 149.5 84 L 158 81 Q 159.3 77.3 153.5 79 Q 148.5 77.5 150 69.5 L 151.5 70 L 167.5 69 L 173 67 L 172 71.5 L 162.5 81 L 148.5 87 L 136.5 88 Q 135.3 85.8 130.5 87 L 126.5 84 L 126 90.5 L 128 100 L 130 100.5 L 128.5 101 L 125.5 100 Q 113.9 97.6 108 89.5 L 106.5 87 Q 97 91 92 99.5 L 87.5 106 L 86 105.5 L 86 94.5 L 88 86.5 L 88 79 L 94.5 76 L 99.5 76 L 108 73.5 Q 104.1 67.3 94 68 L 94 65 Q 97 66.3 96 62.5 L 103.5 54 L 107.5 52 Z " /><path fill="rgb(89,230,205)" stroke="rgb(89,230,205)" stroke-width="1" opacity="1" d="M 58.5 67 L 64.5 69 L 66.5 69 L 73 72.5 L 72 91.5 L 70.5 93 Q 65.2 86.3 54.5 85 L 49.5 87 L 37.5 98 L 19 101 L 21.5 97 L 29.5 98 Q 38 96.5 42 90.5 L 44 82.5 L 42 79.5 L 45 73 Q 48 74 47 71 L 49.5 71 L 51.5 69 L 58.5 67 Z " /><path fill="rgb(89,230,205)" stroke="rgb(89,230,205)" stroke-width="1" opacity="1" d="M 168.5 88 L 177 97.5 L 179 105.5 L 178 105.5 L 168 90.5 L 168.5 88 Z " /><path fill="rgb(89,230,205)" stroke="rgb(89,230,205)" stroke-width="1" opacity="1" d="M 123.5 124 Q 126.1 123.2 125 126.5 L 117.5 132 L 113.5 132 Q 110 130 114.5 128 L 123.5 124 Z " /><path fill="rgb(89,230,205)" stroke="rgb(89,230,205)" stroke-width="1" opacity="1" d="M 177.5 126 L 181.5 132 L 200 148.5 L 199.5 153 L 183 138.5 L 177 127.5 L 177.5 126 Z " /><path fill="rgb(110,219,199)" stroke="rgb(110,219,199)" stroke-width="1" opacity="1" d="M 84.5 33 L 87 33.5 L 82.5 39 L 82 37.5 L 83.5 35 L 78.5 37 L 79.5 35 L 84.5 33 Z " /><path fill="rgb(110,219,199)" stroke="rgb(110,219,199)" stroke-width="1" opacity="1" d="M 76.5 37 L 74.5 40 L 72 41.5 Q 68.6 45.1 68.5 52 L 68 47.5 L 73.5 39 L 76.5 37 Z " /><path fill="rgb(110,219,199)" stroke="rgb(110,219,199)" stroke-width="1" opacity="1" d="M 81.5 40 L 81 41.5 L 79.5 45 L 79 43.5 L 81.5 40 Z " /><path fill="rgb(110,219,199)" stroke="rgb(110,219,199)" stroke-width="1" opacity="1" d="M 78.5 46 L 79 47.5 L 77.5 52 L 77 48.5 L 78.5 46 Z " /><path fill="rgb(110,219,199)" stroke="rgb(110,219,199)" stroke-width="1" opacity="1" d="M 111.5 51 L 115 52.5 L 109.5 53 L 109.5 52 L 111.5 51 Z " /><path fill="rgb(110,219,199)" stroke="rgb(110,219,199)" stroke-width="1" opacity="1" d="M 116.5 53 L 138 66.5 L 135.5 67 L 116.5 54 L 116.5 53 Z " /><path fill="rgb(110,219,199)" stroke="rgb(110,219,199)" stroke-width="1" opacity="1" d="M 172.5 66 Q 175.5 65.1 174 69.5 L 172 70.5 L 173 67.5 L 172.5 66 Z " /><path fill="rgb(110,219,199)" stroke="rgb(110,219,199)" stroke-width="1" opacity="1" d="M 53.5 67 L 58 67.5 L 47 71 L 47 73 Q 44.3 71.9 45 74.5 L 43.5 77 L 43 75.5 L 47.5 70 L 53.5 67 Z " /><path fill="rgb(110,219,199)" stroke="rgb(110,219,199)" stroke-width="1" opacity="1" d="M 168.5 67 L 171 67.5 Q 168.3 69.8 162.5 69 L 162.5 68 Q 167.3 69.2 168.5 67 Z " /><path fill="rgb(110,219,199)" stroke="rgb(110,219,199)" stroke-width="1" opacity="1" d="M 151.5 69 L 159 69.5 L 151.5 70 L 151.5 69 Z " /><path fill="rgb(110,219,199)" stroke="rgb(110,219,199)" stroke-width="1" opacity="1" d="M 168.5 86 L 178 97.5 L 179 103.5 L 178 103.5 L 177 97.5 L 168 87.5 L 168.5 86 Z " /><path fill="rgb(110,219,199)" stroke="rgb(110,219,199)" stroke-width="1" opacity="1" d="M 20.5 97 L 19 99.5 Q 20 103.3 17 102 L 20.5 97 Z " /><path fill="rgb(110,219,199)" stroke="rgb(110,219,199)" stroke-width="1" opacity="1" d="M 176.5 122 Q 180.8 132.2 189.5 138 L 196 142.5 L 200 147.5 L 190.5 139 L 180 130.5 L 176 123.5 L 176.5 122 Z " /><path fill="rgb(110,219,199)" stroke="rgb(110,219,199)" stroke-width="1" opacity="1" d="M 112.5 129 L 111.5 131 L 112.5 129 Z " /><path fill="rgb(31,145,150)" stroke="rgb(31,145,150)" stroke-width="1" opacity="1" d="M 86.5 32 Q 88.8 31.3 88 33.5 L 85 35.5 Q 88.1 33.8 86.5 32 Z " /><path fill="rgb(31,145,150)" stroke="rgb(31,145,150)" stroke-width="1" opacity="1" d="M 75.5 37 L 74.5 39 L 75.5 37 Z " /><path fill="rgb(31,145,150)" stroke="rgb(31,145,150)" stroke-width="1" opacity="1" d="M 83.5 38 L 82.5 40 L 83.5 38 Z " /><path fill="rgb(31,145,150)" stroke="rgb(31,145,150)" stroke-width="1" opacity="1" d="M 67.5 49 L 68 54.5 L 67 54.5 L 67.5 49 Z " /><path fill="rgb(31,145,150)" stroke="rgb(31,145,150)" stroke-width="1" opacity="1" d="M 120.5 54 L 121.5 56 L 120.5 54 Z " /><path fill="rgb(31,145,150)" stroke="rgb(31,145,150)" stroke-width="1" opacity="1" d="M 124.5 57 L 125.5 59 L 124.5 57 Z " /><path fill="rgb(31,145,150)" stroke="rgb(31,145,150)" stroke-width="1" opacity="1" d="M 92.5 58 L 91.5 60 L 92.5 58 Z " /><path fill="rgb(31,145,150)" stroke="rgb(31,145,150)" stroke-width="1" opacity="1" d="M 69.5 60 L 72.5 64 L 69.5 60 Z " /><path fill="rgb(31,145,150)" stroke="rgb(31,145,150)" stroke-width="1" opacity="1" d="M 131.5 62 L 132.5 64 L 131.5 62 Z " /><path fill="rgb(31,145,150)" stroke="rgb(31,145,150)" stroke-width="1" opacity="1" d="M 56.5 66 L 59 66.5 L 56.5 67 L 56.5 66 Z " /><path fill="rgb(31,145,150)" stroke="rgb(31,145,150)" stroke-width="1" opacity="1" d="M 84.5 66 L 83.5 68 L 84.5 66 Z " /><path fill="rgb(31,145,150)" stroke="rgb(31,145,150)" stroke-width="1" opacity="1" d="M 164.5 67 L 167 67.5 L 164.5 68 L 164.5 67 Z " /><path fill="rgb(31,145,150)" stroke="rgb(31,145,150)" stroke-width="1" opacity="1" d="M 67.5 68 L 73 69.5 L 69.5 70 L 67.5 68 Z " /><path fill="rgb(31,145,150)" stroke="rgb(31,145,150)" stroke-width="1" opacity="1" d="M 147.5 68 L 162 68.5 L 147.5 69 L 147.5 68 Z " /><path fill="rgb(31,145,150)" stroke="rgb(31,145,150)" stroke-width="1" opacity="1" d="M 46.5 70 L 44.5 73 L 46.5 70 Z " /><path fill="rgb(31,145,150)" stroke="rgb(31,145,150)" stroke-width="1" opacity="1" d="M 172.5 72 L 172 73.5 L 172 75.5 L 168 80.5 L 168 84.5 L 170.5 88 L 168 86.5 Q 167 93.5 170 96.5 L 178.5 106 L 179.5 101 L 180 107.5 L 176 116.5 L 176 126.5 Q 180.3 138.7 189.5 146 L 200 153.5 L 199.5 171 Q 194 159.5 184.5 152 L 176 147 L 175.5 153 L 172 152 Q 173.1 149.3 170.5 150 L 164 144.5 L 161 137.5 L 169 130.5 Q 172.7 127.7 172 120.5 Q 169.8 106.8 160.5 100 Q 157.2 96.2 149 98 L 149.5 100 Q 150.7 97.7 155.5 99 L 155.5 100 Q 150.7 98.8 149.5 101 L 148 100.5 L 142.5 108 L 140.5 107 L 131.5 110 L 120.5 110 L 110 104 L 116 112.5 L 111 108.5 L 105.5 94 L 100 106 L 98 106.5 L 98 108.5 L 96.5 112 L 97 110.5 L 96.5 108 L 83 122.5 L 85 127.5 L 84 127.5 Q 80.7 121.8 81 112.5 L 84 99.5 L 84 93.5 L 80.5 91 L 75 94.5 L 71.5 100 L 63 99.5 L 70 98.5 L 65.5 92 Q 62.5 89 56.5 89 L 53 91.5 L 51 100.5 L 51 110.5 L 45.5 120 Q 40.4 124.7 33 126 Q 34.1 128.7 31.5 128 L 26.5 136 L 26 129.5 L 31 122 L 35 119.5 Q 38.8 114.8 39 106.5 L 35.5 105 L 30.5 107 L 29.5 104 L 21.5 105 L 15.5 110 L 15 104 L 17.5 104 L 23.5 100 L 36.5 99 L 45 92.5 L 45 91 L 47 91 Q 45.9 88.3 48.5 89 Q 51.7 84.7 60.5 86 L 70.5 93 Q 76.9 83.5 88 80 Q 88.9 86.6 86 90.5 L 86 107 Q 88.7 108.1 88 105.5 L 103.5 89 L 106.5 88 L 112.5 95 L 124.5 101 L 130 101 Q 126.6 95.6 126 86.5 L 128 85.5 Q 127.1 88.5 131.5 87 L 132.5 88 L 146.5 88 L 160.5 83 L 172.5 72 Z " /><path fill="rgb(31,145,150)" stroke="rgb(31,145,150)" stroke-width="1" opacity="1" d="M 41.5 80 L 40.5 82 L 41.5 80 Z " /><path fill="rgb(31,145,150)" stroke="rgb(31,145,150)" stroke-width="1" opacity="1" d="M 37.5 85 L 34.5 89 L 37.5 85 Z " /><path fill="rgb(31,145,150)" stroke="rgb(31,145,150)" stroke-width="1" opacity="1" d="M 32.5 89 L 31.5 91 L 32.5 89 Z " /><path fill="rgb(31,145,150)" stroke="rgb(31,145,150)" stroke-width="1" opacity="1" d="M 172.5 90 L 174.5 93 L 172.5 90 Z " /><path fill="rgb(31,145,150)" stroke="rgb(31,145,150)" stroke-width="1" opacity="1" d="M 175.5 94 L 176.5 96 L 175.5 94 Z " /><path fill="rgb(31,145,150)" stroke="rgb(31,145,150)" stroke-width="1" opacity="1" d="M 56.5 99 L 62 99.5 L 56 100 L 54.5 107 L 54 102.5 L 56.5 99 Z " /><path fill="rgb(31,145,150)" stroke="rgb(31,145,150)" stroke-width="1" opacity="1" d="M 159.5 101 Q 166.2 105.3 167 115.5 L 166 115.5 L 166 111.5 L 159.5 101 Z " /><path fill="rgb(31,145,150)" stroke="rgb(31,145,150)" stroke-width="1" opacity="1" d="M 53.5 109 L 54 111.5 L 53 111.5 L 53.5 109 Z " /><path fill="rgb(31,145,150)" stroke="rgb(31,145,150)" stroke-width="1" opacity="1" d="M 22.5 110 L 24 110.5 L 19.5 114 L 19 112 L 22.5 110 Z " /><path fill="rgb(31,145,150)" stroke="rgb(31,145,150)" stroke-width="1" opacity="1" d="M 14.5 111 L 15.5 116 L 18 114.5 L 14 117.5 L 14.5 111 Z " /><path fill="rgb(31,145,150)" stroke="rgb(31,145,150)" stroke-width="1" opacity="1" d="M 140.5 112 L 139.5 114 Q 134.7 118.2 124.5 117 L 119 114.5 L 120.5 114 Q 124.2 117.3 132.5 116 L 140.5 112 Z " /><path fill="rgb(31,145,150)" stroke="rgb(31,145,150)" stroke-width="1" opacity="1" d="M 95.5 113 L 95 114.5 L 89.5 127 L 89 124.5 L 95.5 113 Z " /><path fill="rgb(31,145,150)" stroke="rgb(31,145,150)" stroke-width="1" opacity="1" d="M 166.5 117 L 167 121.5 L 161.5 129 L 158.5 130 L 158.5 129 L 164 125.5 L 166.5 117 Z " /><path fill="rgb(31,145,150)" stroke="rgb(31,145,150)" stroke-width="1" opacity="1" d="M 48 122 L 50 122.5 L 44 127.5 L 48 122 Z " /><path fill="rgb(31,145,150)" stroke="rgb(31,145,150)" stroke-width="1" opacity="1" d="M 42.5 128 L 43 129.5 L 39 132.5 L 36.5 137 L 36 135.5 Q 38.7 134.4 38 131 L 42 130 L 42.5 128 Z " /><path fill="rgb(31,145,150)" stroke="rgb(31,145,150)" stroke-width="1" opacity="1" d="M 88.5 128 L 89 130.5 L 88 130.5 L 88.5 128 Z " /><path fill="rgb(31,145,150)" stroke="rgb(31,145,150)" stroke-width="1" opacity="1" d="M 180.5 128 L 182.5 131 L 180.5 128 Z " /><path fill="rgb(31,145,150)" stroke="rgb(31,145,150)" stroke-width="1" opacity="1" d="M 122.5 129 L 121.5 131 L 122.5 129 Z " /><path fill="rgb(31,145,150)" stroke="rgb(31,145,150)" stroke-width="1" opacity="1" d="M 86.5 131 L 88 133.5 L 87 133.5 L 86.5 131 Z " /><path fill="rgb(31,145,150)" stroke="rgb(31,145,150)" stroke-width="1" opacity="1" d="M 184.5 132 L 185.5 134 L 184.5 132 Z " /><path fill="rgb(31,145,150)" stroke="rgb(31,145,150)" stroke-width="1" opacity="1" d="M 151.5 134 L 148.5 138 L 151.5 134 Z " /><path fill="rgb(31,145,150)" stroke="rgb(31,145,150)" stroke-width="1" opacity="1" d="M 188.5 136 L 189.5 138 L 188.5 136 Z " /><path fill="rgb(31,145,150)" stroke="rgb(31,145,150)" stroke-width="1" opacity="1" d="M 27.5 137 L 34.5 147 L 35.5 145 L 36 148 L 31 144.5 L 27 138.5 L 27.5 137 Z " /><path fill="rgb(31,145,150)" stroke="rgb(31,145,150)" stroke-width="1" opacity="1" d="M 35.5 138 L 36 140.5 L 35 140.5 L 35.5 138 Z " /><path fill="rgb(31,145,150)" stroke="rgb(31,145,150)" stroke-width="1" opacity="1" d="M 148.5 140 L 150.5 143 L 148.5 140 Z " /><path fill="rgb(31,145,150)" stroke="rgb(31,145,150)" stroke-width="1" opacity="1" d="M 153.5 144 L 158 147.5 L 155.5 146 L 153.5 144 Z " /><path fill="rgb(31,145,150)" stroke="rgb(31,145,150)" stroke-width="1" opacity="1" d="M 198.5 145 L 199.5 147 L 198.5 145 Z " /><path fill="rgb(31,145,150)" stroke="rgb(31,145,150)" stroke-width="1" opacity="1" d="M 159.5 148 L 175 159.5 L 173.5 160 L 160.5 150 L 159.5 148 Z " /><path fill="rgb(31,145,150)" stroke="rgb(31,145,150)" stroke-width="1" opacity="1" d="M 64.5 159 L 67 159.5 L 60.5 166 L 59 165.5 L 48.5 178 L 48 176 L 51 174.5 L 50.5 173 L 45.5 176 L 46.5 174 L 50.5 172 L 52 172.5 L 55.5 168 Q 57.8 168.8 57 166.5 L 62 163.5 L 63.5 161 L 65 160.5 L 64.5 159 Z " /><path fill="rgb(31,145,150)" stroke="rgb(31,145,150)" stroke-width="1" opacity="1" d="M 178.5 164 L 182 166 L 185 170.5 L 178.5 164 Z " /><path fill="rgb(31,145,150)" stroke="rgb(31,145,150)" stroke-width="1" opacity="1" d="M 186.5 173 L 187.5 175 L 186.5 173 Z " /><path fill="rgb(31,145,150)" stroke="rgb(31,145,150)" stroke-width="1" opacity="1" d="M 42.5 176 L 44 176.5 L 35.5 181 L 23.5 184 L 17 187.5 Q 24.4 187.6 28 191.5 Q 19.3 193.3 14 198.5 L 32.5 199 L 34 198.5 L 32.5 200 L 0 200 L 0 193.5 L 1.5 193 L 10.5 186 L 34.5 180 L 42.5 176 Z " /><path fill="rgb(31,145,150)" stroke="rgb(31,145,150)" stroke-width="1" opacity="1" d="M 188.5 176 L 189.5 178 L 188.5 176 Z " /><path fill="rgb(31,145,150)" stroke="rgb(31,145,150)" stroke-width="1" opacity="1" d="M 190.5 179 L 192 181.5 L 191 181.5 L 190.5 179 Z " /><path fill="rgb(31,145,150)" stroke="rgb(31,145,150)" stroke-width="1" opacity="1" d="M 46.5 180 L 44.5 183 L 44 181 L 46.5 180 Z " /><path fill="rgb(31,145,150)" stroke="rgb(31,145,150)" stroke-width="1" opacity="1" d="M 192.5 183 L 193.5 185 L 192.5 183 Z " /><path fill="rgb(31,145,150)" stroke="rgb(31,145,150)" stroke-width="1" opacity="1" d="M 42.5 185 L 40.5 188 L 42.5 185 Z " /><path fill="rgb(31,145,150)" stroke="rgb(31,145,150)" stroke-width="1" opacity="1" d="M 39.5 189 L 37 192.5 L 35.5 195 L 36 193.5 L 39.5 189 Z " /><path fill="rgb(31,145,150)" stroke="rgb(31,145,150)" stroke-width="1" opacity="1" d="M 196.5 192 L 198 195.5 L 197 195.5 L 196.5 192 Z " /><path fill="rgb(31,145,150)" stroke="rgb(31,145,150)" stroke-width="1" opacity="1" d="M 198.5 197 L 199 199.5 L 198 199.5 L 198.5 197 Z " /><path fill="rgb(23,52,62)" stroke="rgb(23,52,62)" stroke-width="1" opacity="1" d="M 170.5 78 L 169.5 80 L 170.5 78 Z " /><path fill="rgb(23,52,62)" stroke="rgb(23,52,62)" stroke-width="1" opacity="1" d="M 37.5 84 L 36.5 86 L 37.5 84 Z " /><path fill="rgb(23,52,62)" stroke="rgb(23,52,62)" stroke-width="1" opacity="1" d="M 79.5 92 L 83 93.5 L 84 95.5 L 80 115.5 L 85 133 L 89 135 L 91 123.5 L 100 106 L 102 105.5 L 102 103.5 L 105.5 96 L 110 108.5 L 114.5 113 Q 117.1 112.3 116 115 L 118.5 115 L 122.5 117 L 129.5 118 L 137.5 116 L 142 112.5 Q 143.1 105.1 148.5 102 L 154.5 100 L 162 105.5 Q 166.2 109.8 166 118.5 Q 165.1 125.1 160.5 128 Q 150.5 130 146.5 138 L 145 133 L 149 132 Q 147.9 129.3 150.5 130 L 155 128.5 Q 153.8 125.8 152.5 128 L 149 127.5 L 153 127 Q 151.8 124 155.5 125 L 157 124.5 L 156 127 L 159 126.5 L 158.5 123 L 161 121.5 L 160 119.5 L 161 116.5 L 160 114.5 L 161 112 Q 158.3 113.1 159 110.5 L 159 108.5 L 158.5 107 L 156.5 107 L 155 106.5 L 157 105.5 Q 155.6 102.8 151 104 L 150.5 102 L 149 104.5 L 149.5 106 L 147.5 105 L 148 106.5 Q 147.3 108.8 149.5 108 L 152 106.5 L 148 109.5 Q 148.8 107.3 146.5 108 L 147 109.5 L 144 115.5 L 144.5 117 L 141.5 116 L 139.5 116 L 136 117.5 L 137 119.5 L 136.5 122 L 132.5 120 L 126 122 Q 127.1 119.3 124.5 120 L 122 121.5 Q 122.8 118.9 119.5 120 L 119.5 122 L 117 120.5 L 119 119.5 L 116.5 119 L 115 119.5 Q 118.5 118 116 116.5 L 114.5 114 L 112.5 118 L 113 116.5 L 111.5 114 L 109.5 115 L 108.5 111 Q 111.1 111.7 110 109 L 107.5 110 L 106.5 106 L 105 109.5 L 106.5 112 L 103.5 110 L 103.5 112 L 100.5 111 L 97.5 117 Q 94.9 116.2 96 119.5 L 96.5 121 L 94 122.5 L 94.5 124 Q 95.8 121.8 97 124.5 L 95 124.5 L 96 128 L 93.5 127 L 91 128 L 90 136.5 L 91 136.5 Q 89.9 133.2 92.5 134 L 93 136.5 L 93.5 140 L 94.5 138 L 95 142.5 L 90.5 145 L 90.5 144 Q 92.8 144.8 92 142.5 L 90 142.5 L 90.5 139 L 86.5 141 L 82 136.5 L 83.5 135 Q 81.7 137.5 86.5 140 L 87 138.5 L 79.5 129 L 78 129.5 L 79 128.5 L 77.5 126 L 79 126.5 L 77 122.5 L 77 108 Q 80 109 79 106 L 74 105 L 73.5 103 L 68.5 106 L 69.5 103 L 59.5 103 L 59 101.5 L 57 102.5 L 58 105.5 L 57 108.5 L 60 109.5 L 59.5 112 L 58 111.5 L 57 114.5 L 59 114.5 Q 59.8 117.1 56.5 116 L 56.5 117 Q 59.1 116.2 58 119.5 L 56 125 Q 52.2 124.3 51 127.5 Q 51.8 133.3 47.5 134 Q 43.8 132.8 45 136.5 L 43.5 139 L 41 134.5 L 41 132.5 Q 40.3 130.3 42.5 131 L 44 128 L 50 123.5 Q 54.7 116.2 55 104.5 L 58.5 100 L 67.5 100 L 68 102 L 69.5 102 L 73 101 L 77 93 L 79.5 92 Z M 79 95 L 78 98 L 81 100 Q 81 95 79 95 Z M 105 102 L 103 104 L 106 104 Q 107 101 105 102 Z M 57 118 L 54 120 Q 56 123 57 120 L 57 118 Z M 55 121 Q 55 124 52 123 L 53 125 L 55 124 L 55 121 Z M 50 125 L 48 131 L 50 130 L 50 125 Z " /><path fill="rgb(23,52,62)" stroke="rgb(23,52,62)" stroke-width="1" opacity="1" d="M 20.5 95 L 18.5 98 L 20.5 95 Z " /><path fill="rgb(23,52,62)" stroke="rgb(23,52,62)" stroke-width="1" opacity="1" d="M 75.5 106 L 74.5 108 L 75.5 106 Z " /><path fill="rgb(23,52,62)" stroke="rgb(23,52,62)" stroke-width="1" opacity="1" d="M 102.5 113 L 102 114.5 L 101.5 116 L 101 114.5 L 102.5 113 Z " /><path fill="rgb(23,52,62)" stroke="rgb(23,52,62)" stroke-width="1" opacity="1" d="M 75.5 117 L 76 119.5 L 75 119.5 L 75.5 117 Z " /><path fill="rgb(23,52,62)" stroke="rgb(23,52,62)" stroke-width="1" opacity="1" d="M 142.5 118 L 141.5 120 L 142.5 118 Z " /><path fill="rgb(23,52,62)" stroke="rgb(23,52,62)" stroke-width="1" opacity="1" d="M 121.5 123 L 123 123.5 L 120.5 125 L 121.5 123 Z " /><path fill="rgb(23,52,62)" stroke="rgb(23,52,62)" stroke-width="1" opacity="1" d="M 126.5 123 L 127 125.5 L 124.5 129 L 125 127.5 L 126.5 123 Z " /><path fill="rgb(23,52,62)" stroke="rgb(23,52,62)" stroke-width="1" opacity="1" d="M 117.5 125 L 119 125.5 L 116.5 127 L 117.5 125 Z " /><path fill="rgb(23,52,62)" stroke="rgb(23,52,62)" stroke-width="1" opacity="1" d="M 53.5 127 L 52.5 129 L 53.5 127 Z " /><path fill="rgb(23,52,62)" stroke="rgb(23,52,62)" stroke-width="1" opacity="1" d="M 113.5 127 L 115 127.5 L 112.5 129 L 113.5 127 Z " /><path fill="rgb(23,52,62)" stroke="rgb(23,52,62)" stroke-width="1" opacity="1" d="M 92.5 130 L 93 132.5 L 92 132.5 L 92.5 130 Z " /><path fill="rgb(23,52,62)" stroke="rgb(23,52,62)" stroke-width="1" opacity="1" d="M 79.5 131 L 82 134.5 L 80 133.5 L 79.5 131 Z " /><path fill="rgb(23,52,62)" stroke="rgb(23,52,62)" stroke-width="1" opacity="1" d="M 113.5 132 L 119 132.5 L 113.5 133 L 113.5 132 Z " /><path fill="rgb(23,52,62)" stroke="rgb(23,52,62)" stroke-width="1" opacity="1" d="M 195.5 141 L 197.5 144 L 195.5 141 Z " /><path fill="rgb(23,52,62)" stroke="rgb(23,52,62)" stroke-width="1" opacity="1" d="M 32.5 146 L 33.5 148 L 32.5 146 Z " /><path fill="rgb(23,52,62)" stroke="rgb(23,52,62)" stroke-width="1" opacity="1" d="M 150.5 151 L 154 153.5 L 152.5 153 Q 148.5 154 150.5 151 Z " /><path fill="rgb(23,52,62)" stroke="rgb(23,52,62)" stroke-width="1" opacity="1" d="M 147.5 157 L 147 158.5 L 146.5 160 L 146 158.5 L 147.5 157 Z " /><path fill="rgb(23,52,62)" stroke="rgb(23,52,62)" stroke-width="1" opacity="1" d="M 161.5 158 L 162.5 160 L 161.5 158 Z " /><path fill="rgb(23,52,62)" stroke="rgb(23,52,62)" stroke-width="1" opacity="1" d="M 165.5 161 L 170.5 167 L 165.5 161 Z " /><path fill="rgb(23,52,62)" stroke="rgb(23,52,62)" stroke-width="1" opacity="1" d="M 64.5 162 L 62.5 165 L 64.5 162 Z " /><path fill="rgb(23,52,62)" stroke="rgb(23,52,62)" stroke-width="1" opacity="1" d="M 142.5 163 L 145.5 165 L 164 181.5 L 165.5 184 L 167 184 L 167 186 Q 169.7 184.9 169 187.5 L 179 199.5 L 115 200 L 116 195.5 L 121.5 188 Q 123.8 188.8 123 186.5 L 125 183 Q 127.7 184.1 127 181.5 L 129.5 178 L 133 175.5 L 137.5 169 Q 139.8 169.8 139 167.5 L 142.5 163 Z " /><path fill="rgb(23,52,62)" stroke="rgb(23,52,62)" stroke-width="1" opacity="1" d="M 70.5 165 L 72 165.5 L 69.5 167 L 70.5 165 Z " /><path fill="rgb(23,52,62)" stroke="rgb(23,52,62)" stroke-width="1" opacity="1" d="M 176.5 172 L 177.5 174 L 176.5 172 Z " /><path fill="rgb(23,52,62)" stroke="rgb(23,52,62)" stroke-width="1" opacity="1" d="M 68.5 180 L 69 190.5 L 69 192.5 L 68 195.5 L 69 200 L 46 199.5 L 48 199 L 48 197.5 L 56.5 189 L 63 184.5 Q 62.3 182.3 64.5 183 L 68.5 180 Z " /><path fill="rgb(23,52,62)" stroke="rgb(23,52,62)" stroke-width="1" opacity="1" d="M 50.5 186 L 49.5 188 L 50.5 186 Z " /><path fill="rgb(0,2,2)" stroke="rgb(0,2,2)" stroke-width="1" opacity="0.9764705882352941" d="M 85.5 26 L 99.5 27 L 107 30.5 Q 97.3 32.8 91 38.5 Q 84.2 44.6 84 56 L 99.5 47 Q 104.9 43.9 114.5 45 L 124.5 49 Q 131.4 56.6 141.5 61 Q 148.6 63.4 159.5 62 L 181 57 L 181 69.5 L 175 83.5 L 185 96.5 Q 187.3 101.2 186 109.5 L 183 119.5 L 190.5 130 L 195 132 L 197.5 136 L 200 137.5 L 199.5 145 L 188 136 L 188 134 Q 185.3 135.1 186 132.5 L 177 121.5 L 177 116.5 L 180 110.5 L 181 102.5 L 173 88 Q 170.3 89.1 171 86.5 Q 168 85.5 169 80.5 Q 175.2 74.9 176 65 L 160.5 68 L 149.5 68 L 134.5 64 L 118.5 52 L 110.5 50 L 97.5 54 L 83.5 66 L 81.5 66 L 79 62.5 L 79 49.5 L 86 35 L 90 32.5 Q 90.8 29.9 87.5 31 Q 75.2 33.7 69 42.5 Q 65.2 47.2 67 57.5 L 73 65.5 L 73 68 L 67.5 68 L 57.5 65 Q 46.6 66.6 42 74.5 L 42 77.5 L 32.5 89 L 22.5 93 L 16 99.5 L 13 111.5 L 13 119 Q 16.8 120.5 16 117.5 Q 24 108.3 38 106 L 36 116.5 L 26 126.5 L 24 132.5 Q 26.9 144.1 35.5 150 Q 38.5 150.9 37 146.5 L 36 141.5 L 39.5 134 L 41 137 Q 43.7 135.9 43 138.5 L 46.5 143 L 55 146 Q 54 149.8 56.5 151 L 70.5 154 L 87.5 154 L 88.5 153 L 97.5 153 L 108.5 151 L 125.5 146 L 142.5 135 L 147.5 142 Q 169 153.4 184 171.5 Q 193.7 182.8 198 199.5 L 192 200 L 187 185.5 L 178 172 Q 175.3 173.1 176 170.5 Q 160.3 154.2 139.5 143 L 132.5 148 L 117.5 154 L 97.5 158 L 77.5 159 L 56 178.5 L 40.5 200 Q 33.5 201.5 34 198.5 L 58.5 168 L 61.5 166 L 68 158 Q 61.9 156.3 60 159.5 Q 59 167.4 52.5 170 L 36.5 178 L 12.5 184 L 0 192 L 0 184.5 L 1.5 184 L 5 183 Q 3.9 180.3 6.5 181 L 41.5 170 Q 49.6 167.1 54 160.5 L 55 156 L 50 152.5 L 48.5 150 L 42.5 147 L 43 148.5 L 46 156 L 40.5 157 Q 30.1 154.9 25 147.5 L 19 135.5 L 19 128.5 Q 21.4 121.4 27 117.5 L 25.5 117 L 18 123.5 L 14.5 134 L 8 123.5 L 8 106.5 Q 10 95.5 17.5 90 L 26.5 86 L 35 78.5 L 38 69.5 L 41.5 66 Q 48.5 59.2 62 60 Q 59.7 56.4 61 47.5 Q 63.8 37.3 71.5 32 L 85.5 26 Z " /><path fill="rgb(9,41,42)" stroke="rgb(9,41,42)" stroke-width="1" opacity="1" d="M 89.5 31 L 90 32.5 L 87 34.5 L 89.5 31 Z " /><path fill="rgb(9,41,42)" stroke="rgb(9,41,42)" stroke-width="1" opacity="1" d="M 110.5 50 L 114 50.5 L 110.5 51 L 110.5 50 Z " /><path fill="rgb(9,41,42)" stroke="rgb(9,41,42)" stroke-width="1" opacity="1" d="M 78.5 52 L 79 59.5 L 78 59.5 L 78.5 52 Z " /><path fill="rgb(9,41,42)" stroke="rgb(9,41,42)" stroke-width="1" opacity="1" d="M 121.5 54 L 122.5 56 L 121.5 54 Z " /><path fill="rgb(9,41,42)" stroke="rgb(9,41,42)" stroke-width="1" opacity="1" d="M 128.5 59 L 129.5 61 L 128.5 59 Z " /><path fill="rgb(9,41,42)" stroke="rgb(9,41,42)" stroke-width="1" opacity="1" d="M 69.5 61 L 72.5 65 L 69.5 61 Z " /><path fill="rgb(9,41,42)" stroke="rgb(9,41,42)" stroke-width="1" opacity="1" d="M 57.5 65 L 61 65.5 L 57.5 66 L 57.5 65 Z " /><path fill="rgb(9,41,42)" stroke="rgb(9,41,42)" stroke-width="1" opacity="1" d="M 80.5 65 L 84 66.5 L 81.5 67 L 80.5 65 Z " /><path fill="rgb(9,41,42)" stroke="rgb(9,41,42)" stroke-width="1" opacity="1" d="M 175.5 65 L 176 67.5 L 175 67.5 L 175.5 65 Z " /><path fill="rgb(9,41,42)" stroke="rgb(9,41,42)" stroke-width="1" opacity="1" d="M 73.5 66 L 74 67.5 Q 73.3 69.8 69.5 69 L 69.5 68 Q 74 69.3 73.5 66 Z " /><path fill="rgb(9,41,42)" stroke="rgb(9,41,42)" stroke-width="1" opacity="1" d="M 146.5 67 L 149 67.5 L 146.5 68 L 146.5 67 Z " /><path fill="rgb(9,41,42)" stroke="rgb(9,41,42)" stroke-width="1" opacity="1" d="M 39.5 81 L 38.5 83 L 39.5 81 Z " /><path fill="rgb(9,41,42)" stroke="rgb(9,41,42)" stroke-width="1" opacity="1" d="M 169.5 85 L 170.5 87 L 169.5 85 Z " /><path fill="rgb(9,41,42)" stroke="rgb(9,41,42)" stroke-width="1" opacity="1" d="M 173.5 90 L 174.5 92 L 173.5 90 Z " /><path fill="rgb(9,41,42)" stroke="rgb(9,41,42)" stroke-width="1" opacity="1" d="M 22.5 93 L 21.5 95 L 22.5 93 Z " /><path fill="rgb(9,41,42)" stroke="rgb(9,41,42)" stroke-width="1" opacity="1" d="M 78.5 95 Q 81.5 95.5 81 99.5 L 78 97.5 L 78.5 95 Z " /><path fill="rgb(9,41,42)" stroke="rgb(9,41,42)" stroke-width="1" opacity="1" d="M 17.5 98 L 16.5 100 L 17.5 98 Z " /><path fill="rgb(9,41,42)" stroke="rgb(9,41,42)" stroke-width="1" opacity="1" d="M 58.5 101 L 59 103 L 70 103.5 L 68.5 105 Q 61.8 103.3 60 106.5 L 59.5 109 L 57 108.5 L 58 103.5 Q 55.8 102.3 58.5 101 Z " /><path fill="rgb(9,41,42)" stroke="rgb(9,41,42)" stroke-width="1" opacity="1" d="M 71.5 102 L 74 103.5 Q 73.2 106.1 76.5 105 L 79 106 Q 79.8 109.1 77 108.5 L 77 122.5 L 79 126.5 L 77 125.5 L 75 116.5 L 75 107 L 72.5 106 Q 71.3 108.3 70 105.5 L 73 103.5 L 71.5 102 Z " /><path fill="rgb(9,41,42)" stroke="rgb(9,41,42)" stroke-width="1" opacity="1" d="M 104.5 102 Q 107.1 101.3 106 104 L 103 103.5 L 104.5 102 Z " /><path fill="rgb(9,41,42)" stroke="rgb(9,41,42)" stroke-width="1" opacity="1" d="M 150.5 102 L 151 104 Q 157.4 102.8 159 107.5 L 161 110.5 L 158 108.5 L 156.5 106 L 151.5 106 L 148 108 L 146 116 L 144 116 Q 145.1 118.7 142.5 118 L 130.5 124 L 128.5 123 L 126.5 123 L 121.5 123 L 110 115.5 Q 110.8 113.3 108.5 114 L 105 107.5 L 107 106.5 L 107.5 110 L 110 109 Q 111.1 111.7 108.5 111 L 110.5 114 L 112.5 113 L 113 115.5 L 113.5 117 L 114.5 114 L 117 114.5 L 116 116.5 L 116.5 119 L 122 120 L 122.5 122 L 126 120 Q 124.9 122.7 127.5 122 L 133.5 120 L 135.5 121 L 137 118.5 L 136.5 117 L 139.5 116 L 141.5 116 L 145 114.5 L 147 109.5 L 145.5 107 L 148 108 L 147 105.5 L 149 105 L 150.5 102 Z " /><path fill="rgb(9,41,42)" stroke="rgb(9,41,42)" stroke-width="1" opacity="1" d="M 180.5 102 L 181 104.5 L 180 104.5 L 180.5 102 Z " /><path fill="rgb(9,41,42)" stroke="rgb(9,41,42)" stroke-width="1" opacity="1" d="M 103.5 105 L 104 106.5 L 102 107.5 L 103.5 105 Z " /><path fill="rgb(9,41,42)" stroke="rgb(9,41,42)" stroke-width="1" opacity="1" d="M 37.5 108 L 38 111.5 L 37 111.5 L 37.5 108 Z " /><path fill="rgb(9,41,42)" stroke="rgb(9,41,42)" stroke-width="1" opacity="1" d="M 103.5 110 L 103 111.5 L 95.5 126 L 94.5 124 L 92.5 125 L 92.5 124 Q 94.8 124.8 94 122.5 L 97 120.5 L 96 117 L 99 115.5 Q 98.3 111.8 100.5 111 L 103.5 110 Z " /><path fill="rgb(9,41,42)" stroke="rgb(9,41,42)" stroke-width="1" opacity="1" d="M 13.5 111 L 14 118.5 L 13 118.5 L 13.5 111 Z " /><path fill="rgb(9,41,42)" stroke="rgb(9,41,42)" stroke-width="1" opacity="1" d="M 58.5 111 L 59 113.5 L 57 114.5 L 58.5 111 Z " /><path fill="rgb(9,41,42)" stroke="rgb(9,41,42)" stroke-width="1" opacity="1" d="M 20.5 113 L 19.5 115 L 20.5 113 Z " /><path fill="rgb(9,41,42)" stroke="rgb(9,41,42)" stroke-width="1" opacity="1" d="M 54.5 115 L 58 116.5 L 56.5 117 L 54.5 115 Z " /><path fill="rgb(9,41,42)" stroke="rgb(9,41,42)" stroke-width="1" opacity="1" d="M 34.5 118 L 29.5 124 L 34.5 118 Z " /><path fill="rgb(9,41,42)" stroke="rgb(9,41,42)" stroke-width="1" opacity="1" d="M 56.5 118 L 57 119.5 Q 54.3 120.6 55 124 L 53 124.5 L 55 125.5 L 51.5 130 L 51 127.5 Q 54.5 126 52 124.5 L 54 121.5 L 54.5 119 L 56.5 118 Z " /><path fill="rgb(9,41,42)" stroke="rgb(9,41,42)" stroke-width="1" opacity="1" d="M 160.5 120 L 161 121.5 L 159 122.5 L 160.5 120 Z " /><path fill="rgb(9,41,42)" stroke="rgb(9,41,42)" stroke-width="1" opacity="1" d="M 177.5 122 L 178.5 124 L 177.5 122 Z " /><path fill="rgb(9,41,42)" stroke="rgb(9,41,42)" stroke-width="1" opacity="1" d="M 155.5 124 L 157.5 124 L 159 124.5 L 158.5 127 Q 155.2 128.1 156 125.5 L 155.5 124 Z " /><path fill="rgb(9,41,42)" stroke="rgb(9,41,42)" stroke-width="1" opacity="1" d="M 27.5 125 L 26.5 127 L 27.5 125 Z " /><path fill="rgb(9,41,42)" stroke="rgb(9,41,42)" stroke-width="1" opacity="1" d="M 49.5 125 L 50 129.5 L 48 130.5 L 49.5 125 Z " /><path fill="rgb(9,41,42)" stroke="rgb(9,41,42)" stroke-width="1" opacity="1" d="M 152.5 125 L 155 128.5 L 149 130 Q 150.1 132.7 147.5 132 L 145 133 L 146 138.5 L 143 136.5 L 143 134.5 L 148 129.5 Q 147.1 126.1 152.5 128 L 152.5 127 L 150 126.5 L 152.5 125 Z " /><path fill="rgb(9,41,42)" stroke="rgb(9,41,42)" stroke-width="1" opacity="1" d="M 93.5 127 L 95 129.5 L 94 130.5 L 93.5 140 L 92 135.5 L 92.5 134 Q 89.9 133.2 91 136.5 L 90 136.5 L 91 128 L 93.5 127 Z M 93 130 L 92 133 L 93 133 L 93 130 Z " /><path fill="rgb(9,41,42)" stroke="rgb(9,41,42)" stroke-width="1" opacity="1" d="M 78.5 128 Q 85.4 132 87 140 L 90.5 139 Q 88.9 140.8 92 142.5 Q 91.3 144.8 93.5 144 L 95 143.5 L 96 145.5 L 92 146 Q 93.3 143 89.5 144 Q 81.5 137.3 78.5 128 Z " /><path fill="rgb(9,41,42)" stroke="rgb(9,41,42)" stroke-width="1" opacity="1" d="M 181.5 128 L 185.5 133 L 181.5 128 Z " /><path fill="rgb(9,41,42)" stroke="rgb(9,41,42)" stroke-width="1" opacity="1" d="M 39.5 133 L 42 133.5 L 42 135.5 L 41.5 137 L 39.5 133 Z " /><path fill="rgb(9,41,42)" stroke="rgb(9,41,42)" stroke-width="1" opacity="1" d="M 148.5 134 L 147.5 136 L 148.5 134 Z " /><path fill="rgb(9,41,42)" stroke="rgb(9,41,42)" stroke-width="1" opacity="1" d="M 38.5 135 L 37.5 137 L 38.5 135 Z " /><path fill="rgb(9,41,42)" stroke="rgb(9,41,42)" stroke-width="1" opacity="1" d="M 189.5 136 L 190.5 138 L 189.5 136 Z " /><path fill="rgb(9,41,42)" stroke="rgb(9,41,42)" stroke-width="1" opacity="1" d="M 146.5 140 L 147.5 142 L 146.5 140 Z " /><path fill="rgb(9,41,42)" stroke="rgb(9,41,42)" stroke-width="1" opacity="1" d="M 149.5 142 L 150.5 144 L 149.5 142 Z " /><path fill="rgb(9,41,42)" stroke="rgb(9,41,42)" stroke-width="1" opacity="1" d="M 29.5 143 L 31.5 146 L 29.5 143 Z " /><path fill="rgb(9,41,42)" stroke="rgb(9,41,42)" stroke-width="1" opacity="1" d="M 152.5 144 L 153.5 146 L 152.5 144 Z " /><path fill="rgb(9,41,42)" stroke="rgb(9,41,42)" stroke-width="1" opacity="1" d="M 198.5 144 L 199.5 146 L 198.5 144 Z " /><path fill="rgb(9,41,42)" stroke="rgb(9,41,42)" stroke-width="1" opacity="1" d="M 34.5 148 L 37 149.5 L 35.5 150 L 34.5 148 Z " /><path fill="rgb(9,41,42)" stroke="rgb(9,41,42)" stroke-width="1" opacity="1" d="M 150.5 150 L 151.5 152 L 150.5 150 Z " /><path fill="rgb(9,41,42)" stroke="rgb(9,41,42)" stroke-width="1" opacity="1" d="M 153.5 152 L 158 155.5 L 155.5 154 L 153.5 152 Z " /><path fill="rgb(9,41,42)" stroke="rgb(9,41,42)" stroke-width="1" opacity="1" d="M 163.5 152 L 164.5 154 L 163.5 152 Z " /><path fill="rgb(9,41,42)" stroke="rgb(9,41,42)" stroke-width="1" opacity="1" d="M 166.5 154 L 167.5 156 L 166.5 154 Z " /><path fill="rgb(9,41,42)" stroke="rgb(9,41,42)" stroke-width="1" opacity="1" d="M 159.5 156 L 160.5 158 L 159.5 156 Z " /><path fill="rgb(9,41,42)" stroke="rgb(9,41,42)" stroke-width="1" opacity="1" d="M 163.5 159 L 164.5 161 L 163.5 159 Z " /><path fill="rgb(9,41,42)" stroke="rgb(9,41,42)" stroke-width="1" opacity="1" d="M 172.5 159 L 180.5 168 L 172.5 159 Z " /><path fill="rgb(9,41,42)" stroke="rgb(9,41,42)" stroke-width="1" opacity="1" d="M 168.5 163 L 175.5 171 L 168.5 163 Z " /><path fill="rgb(9,41,42)" stroke="rgb(9,41,42)" stroke-width="1" opacity="1" d="M 57.5 165 L 53.5 170 L 57.5 165 Z " /><path fill="rgb(9,41,42)" stroke="rgb(9,41,42)" stroke-width="1" opacity="1" d="M 69.5 165 L 67.5 168 L 69.5 165 Z " /><path fill="rgb(9,41,42)" stroke="rgb(9,41,42)" stroke-width="1" opacity="1" d="M 65.5 169 L 56.5 179 L 65.5 169 Z " /><path fill="rgb(9,41,42)" stroke="rgb(9,41,42)" stroke-width="1" opacity="1" d="M 51.5 170 L 50.5 172 L 51.5 170 Z " /><path fill="rgb(9,41,42)" stroke="rgb(9,41,42)" stroke-width="1" opacity="1" d="M 55.5 171 L 52.5 175 L 55.5 171 Z " /><path fill="rgb(9,41,42)" stroke="rgb(9,41,42)" stroke-width="1" opacity="1" d="M 178.5 174 L 180.5 177 L 178.5 174 Z " /><path fill="rgb(9,41,42)" stroke="rgb(9,41,42)" stroke-width="1" opacity="1" d="M 132.5 175 L 130.5 178 L 132.5 175 Z " /><path fill="rgb(9,41,42)" stroke="rgb(9,41,42)" stroke-width="1" opacity="1" d="M 188.5 178 L 189.5 180 L 188.5 178 Z " /><path fill="rgb(9,41,42)" stroke="rgb(9,41,42)" stroke-width="1" opacity="1" d="M 47.5 180 L 46.5 182 L 47.5 180 Z " /><path fill="rgb(9,41,42)" stroke="rgb(9,41,42)" stroke-width="1" opacity="1" d="M 53.5 182 L 51.5 185 L 53.5 182 Z " /><path fill="rgb(9,41,42)" stroke="rgb(9,41,42)" stroke-width="1" opacity="1" d="M 44.5 184 L 42.5 187 L 44.5 184 Z " /><path fill="rgb(9,41,42)" stroke="rgb(9,41,42)" stroke-width="1" opacity="1" d="M 185.5 184 L 186.5 186 L 185.5 184 Z " /><path fill="rgb(9,41,42)" stroke="rgb(9,41,42)" stroke-width="1" opacity="1" d="M 5.5 188 L 4.5 190 L 5.5 188 Z " /><path fill="rgb(9,41,42)" stroke="rgb(9,41,42)" stroke-width="1" opacity="1" d="M 40.5 189 L 39.5 191 L 40.5 189 Z " /><path fill="rgb(9,41,42)" stroke="rgb(9,41,42)" stroke-width="1" opacity="1" d="M 42.5 198 L 41.5 200 L 42.5 198 Z " /><path fill="rgb(95,71,55)" stroke="rgb(95,71,55)" stroke-width="1" opacity="1" d="M 61.5 106 L 61 107.5 L 60.5 109 L 60 107.5 L 61.5 106 Z " /><path fill="rgb(95,71,55)" stroke="rgb(95,71,55)" stroke-width="1" opacity="1" d="M 109.5 115 L 111.5 118 L 109.5 115 Z " /><path fill="rgb(95,71,55)" stroke="rgb(95,71,55)" stroke-width="1" opacity="1" d="M 146.5 115 L 142.5 120 L 146.5 115 Z " /><path fill="rgb(95,71,55)" stroke="rgb(95,71,55)" stroke-width="1" opacity="1" d="M 113.5 118 L 114.5 120 L 113.5 118 Z " /><path fill="rgb(95,71,55)" stroke="rgb(95,71,55)" stroke-width="1" opacity="1" d="M 116.5 120 L 117.5 122 L 116.5 120 Z " /><path fill="rgb(95,71,55)" stroke="rgb(95,71,55)" stroke-width="1" opacity="1" d="M 115.5 122 L 114.5 124 L 111.5 125 L 111.5 124 L 115.5 122 Z " /><path fill="rgb(95,71,55)" stroke="rgb(95,71,55)" stroke-width="1" opacity="1" d="M 133.5 122 L 136 122.5 L 133.5 123 L 133.5 122 Z " /><path fill="rgb(95,71,55)" stroke="rgb(95,71,55)" stroke-width="1" opacity="1" d="M 131.5 124 L 132 125.5 L 130.5 128 L 130 126.5 L 131.5 124 Z " /><path fill="rgb(95,71,55)" stroke="rgb(95,71,55)" stroke-width="1" opacity="1" d="M 53.5 128 Q 57.3 126.8 56 130.5 L 57 131.5 L 57 140.5 L 55.5 146 L 51.5 144 L 49.5 144 L 44 139.5 L 46 134 L 53.5 128 Z M 47 136 L 45 138 L 47 138 L 47 136 Z M 47 140 L 48 141 L 49 142 Q 50 139 47 140 Z " /><path fill="rgb(95,71,55)" stroke="rgb(95,71,55)" stroke-width="1" opacity="1" d="M 102.5 129 L 101.5 131 L 102.5 129 Z " /><path fill="rgb(95,71,55)" stroke="rgb(95,71,55)" stroke-width="1" opacity="1" d="M 129.5 129 L 125.5 134 L 124 133.5 L 129.5 129 Z " /><path fill="rgb(95,71,55)" stroke="rgb(95,71,55)" stroke-width="1" opacity="1" d="M 94.5 133 L 95 137.5 L 94 137.5 L 94.5 133 Z " /><path fill="rgb(95,71,55)" stroke="rgb(95,71,55)" stroke-width="1" opacity="1" d="M 60.5 136 L 62.5 139 L 60.5 136 Z " /><path fill="rgb(95,71,55)" stroke="rgb(95,71,55)" stroke-width="1" opacity="1" d="M 109.5 136 L 118 136.5 L 109.5 137 L 109.5 136 Z " /><path fill="rgb(95,71,55)" stroke="rgb(95,71,55)" stroke-width="1" opacity="1" d="M 79.5 137 L 78.5 139 L 79.5 137 Z " /><path fill="rgb(95,71,55)" stroke="rgb(95,71,55)" stroke-width="1" opacity="1" d="M 82.5 137 L 87.5 143 L 82.5 137 Z " /><path fill="rgb(95,71,55)" stroke="rgb(95,71,55)" stroke-width="1" opacity="1" d="M 140.5 143 L 141.5 145 L 140.5 143 Z " /><path fill="rgb(95,71,55)" stroke="rgb(95,71,55)" stroke-width="1" opacity="1" d="M 93.5 146 L 96 146.5 L 93.5 147 L 93.5 146 Z " /><path fill="rgb(95,71,55)" stroke="rgb(95,71,55)" stroke-width="1" opacity="1" d="M 133.5 148 L 133 149.5 L 131.5 152 L 132 150.5 L 133.5 148 Z " /><path fill="rgb(95,71,55)" stroke="rgb(95,71,55)" stroke-width="1" opacity="1" d="M 147.5 148 L 148.5 150 L 147.5 148 Z " /><path fill="rgb(95,71,55)" stroke="rgb(95,71,55)" stroke-width="1" opacity="1" d="M 149.5 151 L 150 152.5 L 143.5 163 L 138 167.5 L 133.5 174 Q 131.3 173.3 132 175.5 L 127 179.5 L 129 176 Q 131.7 177.1 131 174.5 Q 142.3 164.8 149.5 151 Z " /><path fill="rgb(95,71,55)" stroke="rgb(95,71,55)" stroke-width="1" opacity="1" d="M 93.5 152 L 96 152.5 L 93.5 153 L 93.5 152 Z " /><path fill="rgb(95,71,55)" stroke="rgb(95,71,55)" stroke-width="1" opacity="1" d="M 122.5 152 L 125 152.5 L 119.5 159 L 122 155.5 L 123 153.5 L 122.5 152 Z " /><path fill="rgb(95,71,55)" stroke="rgb(95,71,55)" stroke-width="1" opacity="1" d="M 74.5 153 L 82 153.5 L 74.5 154 L 74.5 153 Z " /><path fill="rgb(95,71,55)" stroke="rgb(95,71,55)" stroke-width="1" opacity="1" d="M 130.5 153 L 129.5 155 L 130.5 153 Z " /><path fill="rgb(95,71,55)" stroke="rgb(95,71,55)" stroke-width="1" opacity="1" d="M 128.5 156 L 127.5 158 L 128.5 156 Z " /><path fill="rgb(95,71,55)" stroke="rgb(95,71,55)" stroke-width="1" opacity="1" d="M 101.5 157 L 104 157.5 L 101.5 158 L 101.5 157 Z " /><path fill="rgb(95,71,55)" stroke="rgb(95,71,55)" stroke-width="1" opacity="1" d="M 93.5 158 L 96 158.5 L 93.5 159 L 93.5 158 Z " /><path fill="rgb(95,71,55)" stroke="rgb(95,71,55)" stroke-width="1" opacity="1" d="M 126.5 159 L 125.5 161 L 126.5 159 Z " /><path fill="rgb(95,71,55)" stroke="rgb(95,71,55)" stroke-width="1" opacity="1" d="M 118.5 160 L 112.5 167 L 118.5 160 Z " /><path fill="rgb(95,71,55)" stroke="rgb(95,71,55)" stroke-width="1" opacity="1" d="M 124.5 162 L 119.5 168 L 124.5 162 Z " /><path fill="rgb(95,71,55)" stroke="rgb(95,71,55)" stroke-width="1" opacity="1" d="M 73.5 163 L 73 164.5 Q 68.6 173.6 69.5 188 L 69 172.5 L 73.5 163 Z " /><path fill="rgb(95,71,55)" stroke="rgb(95,71,55)" stroke-width="1" opacity="1" d="M 80.5 168 L 81 171.5 L 80 171.5 L 80.5 168 Z " /><path fill="rgb(95,71,55)" stroke="rgb(95,71,55)" stroke-width="1" opacity="1" d="M 86.5 169 L 87 171.5 L 86 171.5 L 86.5 169 Z " /><path fill="rgb(95,71,55)" stroke="rgb(95,71,55)" stroke-width="1" opacity="1" d="M 117.5 169 L 119 169.5 L 109 178.5 L 117.5 169 Z " /><path fill="rgb(95,71,55)" stroke="rgb(95,71,55)" stroke-width="1" opacity="1" d="M 108.5 171 L 102.5 178 L 108.5 171 Z " /><path fill="rgb(95,71,55)" stroke="rgb(95,71,55)" stroke-width="1" opacity="1" d="M 81.5 174 L 82 176.5 L 81 176.5 L 81.5 174 Z " /><path fill="rgb(95,71,55)" stroke="rgb(95,71,55)" stroke-width="1" opacity="1" d="M 126.5 181 L 122.5 186 L 126.5 181 Z " /><path fill="rgb(95,71,55)" stroke="rgb(95,71,55)" stroke-width="1" opacity="1" d="M 90.5 182 L 93 187 L 95 187.5 L 93.5 188 L 90 183.5 L 90.5 182 Z " /><path fill="rgb(95,71,55)" stroke="rgb(95,71,55)" stroke-width="1" opacity="1" d="M 106.5 182 L 103.5 186 L 106.5 182 Z " /><path fill="rgb(95,71,55)" stroke="rgb(95,71,55)" stroke-width="1" opacity="1" d="M 84.5 183 L 90 192.5 L 87 190.5 L 84.5 183 Z " /><path fill="rgb(95,71,55)" stroke="rgb(95,71,55)" stroke-width="1" opacity="1" d="M 97.5 183 L 95.5 186 L 97.5 183 Z " /><path fill="rgb(95,71,55)" stroke="rgb(95,71,55)" stroke-width="1" opacity="1" d="M 121.5 187 L 119 190.5 L 114.5 197 L 116 194.5 L 121.5 187 Z " /><path fill="rgb(95,71,55)" stroke="rgb(95,71,55)" stroke-width="1" opacity="1" d="M 100.5 189 L 99.5 191 L 100.5 189 Z " /><path fill="rgb(95,71,55)" stroke="rgb(95,71,55)" stroke-width="1" opacity="1" d="M 69.5 192 L 70 197.5 L 69 197.5 L 69.5 192 Z " /><path fill="rgb(95,71,55)" stroke="rgb(95,71,55)" stroke-width="1" opacity="1" d="M 98.5 192 L 98 193.5 L 96.5 196 L 97 194.5 L 98.5 192 Z " /><path fill="rgb(95,71,55)" stroke="rgb(95,71,55)" stroke-width="1" opacity="1" d="M 89.5 194 L 90 195.5 L 87.5 199 L 87 197.5 L 89.5 194 Z " /><path fill="rgb(95,71,55)" stroke="rgb(95,71,55)" stroke-width="1" opacity="1" d="M 95.5 197 L 96 199 L 92.5 200 L 92.5 199 L 95.5 197 Z " /><path fill="rgb(95,71,55)" stroke="rgb(95,71,55)" stroke-width="1" opacity="1" d="M 113.5 198 L 112.5 200 L 113.5 198 Z " /><path fill="rgb(70,38,29)" stroke="rgb(70,38,29)" stroke-width="1" opacity="1" d="M 116.5 122 Q 121.9 120.1 121 123.5 L 113.5 127 L 110 130.5 Q 109.2 133.1 112.5 132 Q 113.8 134.2 118.5 133 L 126 127.5 L 127 124 L 131.5 123 L 131 124.5 Q 130.6 130.1 126.5 132 Q 121.2 137.7 108.5 136 L 102 131.5 L 103.5 129 L 116.5 122 Z " /><path fill="rgb(70,38,29)" stroke="rgb(70,38,29)" stroke-width="1" opacity="1" d="M 60 133 L 77.5 135 L 80 136.5 L 78 140 Q 75.4 142.7 68.5 142 L 63 140 L 60 135.5 L 60 133 Z " /><path fill="rgb(70,38,29)" stroke="rgb(70,38,29)" stroke-width="1" opacity="1" d="M 140.5 136 L 139.5 138 L 140.5 136 Z " /><path fill="rgb(70,38,29)" stroke="rgb(70,38,29)" stroke-width="1" opacity="1" d="M 44.5 140 L 45.5 142 L 44.5 140 Z " /><path fill="rgb(70,38,29)" stroke="rgb(70,38,29)" stroke-width="1" opacity="1" d="M 47.5 142 L 48.5 144 L 47.5 142 Z " /><path fill="rgb(70,38,29)" stroke="rgb(70,38,29)" stroke-width="1" opacity="1" d="M 53.5 144 L 56 146.5 L 57 150.5 L 55 149.5 L 55 146 Q 51.8 147 53.5 144 Z " /><path fill="rgb(70,38,29)" stroke="rgb(70,38,29)" stroke-width="1" opacity="1" d="M 142.5 144 L 143.5 146 L 142.5 144 Z " /><path fill="rgb(70,38,29)" stroke="rgb(70,38,29)" stroke-width="1" opacity="1" d="M 134.5 146 L 132 149.5 L 119 169 L 116 170.5 L 109 180 Q 106.3 178.9 107 181.5 L 93.5 199 L 87.5 200 L 88 198.5 Q 90.6 197.1 90 192.5 Q 79.4 180.8 80 159 L 86 159 L 86 171.5 L 90 183.5 L 93.5 188 Q 95.8 188.8 95 186.5 L 125 152.5 L 123 151.5 Q 130.3 150.3 134.5 146 Z " /><path fill="rgb(70,38,29)" stroke="rgb(70,38,29)" stroke-width="1" opacity="1" d="M 82.5 153 L 88 153.5 L 82.5 154 L 82.5 153 Z " /><path fill="rgb(70,38,29)" stroke="rgb(70,38,29)" stroke-width="1" opacity="1" d="M 98.5 157 L 101 157.5 L 98.5 158 L 98.5 157 Z " /><path fill="rgb(70,38,29)" stroke="rgb(70,38,29)" stroke-width="1" opacity="1" d="M 89.5 158 L 93 158.5 L 89.5 159 L 89.5 158 Z " /><path fill="rgb(70,38,29)" stroke="rgb(70,38,29)" stroke-width="1" opacity="1" d="M 73.5 162 L 75 162.5 L 72.5 164 L 73.5 162 Z " /><path fill="rgb(70,38,29)" stroke="rgb(70,38,29)" stroke-width="1" opacity="1" d="M 139.5 166 L 138.5 168 L 139.5 166 Z " /><path fill="rgb(70,38,29)" stroke="rgb(70,38,29)" stroke-width="1" opacity="1" d="M 123.5 185 L 122.5 187 L 123.5 185 Z " /><path fill="rgb(153,118,90)" stroke="rgb(153,118,90)" stroke-width="1" opacity="1" d="M 62 105 L 69.5 106 L 75 109.5 L 76 125.5 Q 79.7 137.3 88.5 144 L 96 147 L 95 140.5 L 95 130.5 L 104.5 111 L 117 121.5 L 101 130.5 Q 104.5 138.5 117.5 137 L 125.5 134 L 130 129.5 L 132 123 Q 142.4 122.5 147 115.5 Q 147.9 108.9 152.5 106 L 158 109.5 L 156.5 109 L 153.5 110 L 152.5 108 Q 149.8 109.3 152 110.5 L 149 119.5 L 144 126 L 124.5 138 L 103.5 144 L 97 144 L 96 147.5 L 97 149.5 L 95.5 149 Q 87 150 83.5 146 L 64.5 146 L 60.5 144 L 58.5 144 Q 54.8 145.3 56 141.5 L 57 140.5 L 57 131.5 L 55 125.5 L 58 120.5 L 60 109.5 L 62 105 Z M 60 133 L 60 137 L 65 141 L 72 143 L 77 141 Q 81 140 80 135 L 60 133 Z " /><path fill="rgb(153,118,90)" stroke="rgb(153,118,90)" stroke-width="1" opacity="1" d="M 49.5 134 L 48.5 136 L 49.5 134 Z " /><path fill="rgb(153,118,90)" stroke="rgb(153,118,90)" stroke-width="1" opacity="1" d="M 46.5 136 L 47 138 L 45 137.5 L 46.5 136 Z " /><path fill="rgb(153,118,90)" stroke="rgb(153,118,90)" stroke-width="1" opacity="1" d="M 139.5 136 L 138.5 138 L 139.5 136 Z " /><path fill="rgb(153,118,90)" stroke="rgb(153,118,90)" stroke-width="1" opacity="1" d="M 46.5 140 Q 49.8 138.9 49 141.5 L 47.5 141 L 46.5 140 Z " /><path fill="rgb(153,118,90)" stroke="rgb(153,118,90)" stroke-width="1" opacity="1" d="M 139.5 144 L 149 150.5 L 143 161.5 L 131 176 Q 128.3 174.9 129 177.5 L 111.5 200 L 94 199.5 L 96 199 L 96 196.5 L 101 188 Q 103.7 189.1 103 186.5 L 107 181 Q 109.7 182.1 109 179.5 Q 125.1 165.6 135.5 146 L 139.5 144 Z " /><path fill="rgb(153,118,90)" stroke="rgb(153,118,90)" stroke-width="1" opacity="1" d="M 98.5 151 L 101 151.5 L 98.5 152 L 98.5 151 Z " /><path fill="rgb(153,118,90)" stroke="rgb(153,118,90)" stroke-width="1" opacity="1" d="M 67.5 152 L 70 152.5 L 67.5 153 L 67.5 152 Z " /><path fill="rgb(153,118,90)" stroke="rgb(153,118,90)" stroke-width="1" opacity="1" d="M 89.5 152 L 93 152.5 L 89.5 153 L 89.5 152 Z " /><path fill="rgb(153,118,90)" stroke="rgb(153,118,90)" stroke-width="1" opacity="1" d="M 123.5 152 L 122.5 154 L 120 153.5 L 123.5 152 Z " /><path fill="rgb(153,118,90)" stroke="rgb(153,118,90)" stroke-width="1" opacity="1" d="M 113.5 155 L 116 155.5 L 113.5 156 L 113.5 155 Z " /><path fill="rgb(153,118,90)" stroke="rgb(153,118,90)" stroke-width="1" opacity="1" d="M 121.5 155 L 119 158.5 L 108.5 171 L 108.5 169 L 92 171 Q 90.8 181.6 95 187 Q 92.3 188.1 93 185.5 L 88 177.5 L 86 168.5 L 86 160.5 Q 87.5 157.5 93.5 159 L 93.5 160 Q 85.7 157.6 88 164 L 99.5 164 L 114.5 160 L 115.5 161 L 121.5 155 Z " /><path fill="rgb(153,118,90)" stroke="rgb(153,118,90)" stroke-width="1" opacity="1" d="M 104.5 157 L 107 157.5 L 104.5 158 L 104.5 157 Z " /><path fill="rgb(153,118,90)" stroke="rgb(153,118,90)" stroke-width="1" opacity="1" d="M 96.5 158 L 102 158.5 L 96.5 159 L 96.5 158 Z " /><path fill="rgb(153,118,90)" stroke="rgb(153,118,90)" stroke-width="1" opacity="1" d="M 77.5 160 L 80 160.5 L 80 170.5 L 79 170.5 L 79 161.5 L 77.5 161 L 75 164.5 L 75.5 166 L 73 167.5 L 71 175.5 Q 73.2 179.2 75.5 174 L 77.5 173 L 80.5 178 L 82 177.5 Q 83.9 187.6 90 193.5 L 87 197.5 L 87 200 L 70 200 L 70 192.5 L 69 188.5 L 70 187.5 L 70 174.5 L 75 161 L 77.5 160 Z " /><path fill="rgb(153,118,90)" stroke="rgb(153,118,90)" stroke-width="1" opacity="1" d="M 80.5 172 L 81 175.5 L 80 175.5 L 80.5 172 Z " /><path fill="rgb(153,118,90)" stroke="rgb(153,118,90)" stroke-width="1" opacity="1" d="M 101.5 178 L 97.5 183 L 101.5 178 Z " /></svg>