<svg width="200" height="200" version="1.1" xmlns="http://www.w3.org/2000/svg" desc="Created with imagetracer.js version 1.2.6" ><path fill="rgb(0,0,0)" stroke="rgb(0,0,0)" stroke-width="1" opacity="0.0784313725490196" d="M 165.5 15 Q 167.8 14.3 167 16.5 L 164 16.5 L 165.5 15 Z " /><path fill="rgb(0,0,0)" stroke="rgb(0,0,0)" stroke-width="1" opacity="0.0784313725490196" d="M 81.5 16 L 82 17.5 L 80.5 20 L 80 18.5 L 81.5 16 Z " /><path fill="rgb(0,0,0)" stroke="rgb(0,0,0)" stroke-width="1" opacity="0.0784313725490196" d="M 85.5 18 L 87 22.5 L 86 22.5 L 85.5 18 Z " /><path fill="rgb(0,0,0)" stroke="rgb(0,0,0)" stroke-width="1" opacity="0.0784313725490196" d="M 160.5 18 L 159.5 20 L 158 19.5 L 160.5 18 Z " /><path fill="rgb(0,0,0)" stroke="rgb(0,0,0)" stroke-width="1" opacity="0.0784313725490196" d="M 166.5 19 L 167 21.5 L 166 21.5 L 166.5 19 Z " /><path fill="rgb(0,0,0)" stroke="rgb(0,0,0)" stroke-width="1" opacity="0.0784313725490196" d="M 156.5 20 L 155.5 22 L 152.5 23 L 153.5 21 L 156.5 20 Z " /><path fill="rgb(0,0,0)" stroke="rgb(0,0,0)" stroke-width="1" opacity="0.0784313725490196" d="M 78.5 22 L 79 23.5 L 77 24.5 L 78.5 22 Z " /><path fill="rgb(0,0,0)" stroke="rgb(0,0,0)" stroke-width="1" opacity="0.0784313725490196" d="M 148.5 23 L 149 25 L 146.5 26 L 148.5 23 Z " /><path fill="rgb(0,0,0)" stroke="rgb(0,0,0)" stroke-width="1" opacity="0.0784313725490196" d="M 87.5 26 L 88 28.5 L 87 28.5 L 87.5 26 Z " /><path fill="rgb(0,0,0)" stroke="rgb(0,0,0)" stroke-width="1" opacity="0.0784313725490196" d="M 75.5 28 L 74 30.5 L 72.5 33 L 73 31.5 L 75.5 28 Z " /><path fill="rgb(0,0,0)" stroke="rgb(0,0,0)" stroke-width="1" opacity="0.0784313725490196" d="M 88.5 30 L 89 44 L 92.5 43 L 92.5 44 L 88.5 46 L 88.5 30 Z " /><path fill="rgb(0,0,0)" stroke="rgb(0,0,0)" stroke-width="1" opacity="0.0784313725490196" d="M 134.5 30 L 136 30.5 L 132.5 32 L 132.5 31 L 134.5 30 Z " /><path fill="rgb(0,0,0)" stroke="rgb(0,0,0)" stroke-width="1" opacity="0.0784313725490196" d="M 162 32 L 164 32.5 L 156.5 45 L 157 43.5 L 162 32 Z " /><path fill="rgb(0,0,0)" stroke="rgb(0,0,0)" stroke-width="1" opacity="0.0784313725490196" d="M 125.5 33 L 128 33.5 L 123.5 35 L 123.5 34 L 125.5 33 Z " /><path fill="rgb(0,0,0)" stroke="rgb(0,0,0)" stroke-width="1" opacity="0.0784313725490196" d="M 71.5 34 L 70.5 36 L 71.5 34 Z " /><path fill="rgb(0,0,0)" stroke="rgb(0,0,0)" stroke-width="1" opacity="0.0784313725490196" d="M 115.5 36 L 118 36.5 L 115.5 37 L 115.5 36 Z " /><path fill="rgb(0,0,0)" stroke="rgb(0,0,0)" stroke-width="1" opacity="0.0784313725490196" d="M 69.5 37 L 68.5 39 L 69.5 37 Z " /><path fill="rgb(0,0,0)" stroke="rgb(0,0,0)" stroke-width="1" opacity="0.0784313725490196" d="M 110.5 37 L 114 37.5 L 110.5 38 L 110.5 37 Z " /><path fill="rgb(0,0,0)" stroke="rgb(0,0,0)" stroke-width="1" opacity="0.0784313725490196" d="M 106.5 38 L 109 38.5 L 99.5 41 L 99.5 40 L 106.5 38 Z " /><path fill="rgb(0,0,0)" stroke="rgb(0,0,0)" stroke-width="1" opacity="0.0784313725490196" d="M 67.5 40 L 65.5 43 L 67.5 40 Z " /><path fill="rgb(0,0,0)" stroke="rgb(0,0,0)" stroke-width="1" opacity="0.0784313725490196" d="M 96.5 41 L 98 41.5 L 94.5 43 L 94.5 42 L 96.5 41 Z " /><path fill="rgb(0,0,0)" stroke="rgb(0,0,0)" stroke-width="1" opacity="0.0784313725490196" d="M 64.5 44 L 63.5 46 L 64.5 44 Z " /><path fill="rgb(0,0,0)" stroke="rgb(0,0,0)" stroke-width="1" opacity="0.0784313725490196" d="M 61.5 47 L 62 48.5 L 60 49.5 L 61.5 47 Z " /><path fill="rgb(0,0,0)" stroke="rgb(0,0,0)" stroke-width="1" opacity="0.0784313725490196" d="M 155.5 47 Q 162.8 52.8 167 61.5 L 164 59.5 L 155.5 47 Z " /><path fill="rgb(0,0,0)" stroke="rgb(0,0,0)" stroke-width="1" opacity="0.0784313725490196" d="M 59.5 51 L 59 52.5 L 49.5 67 L 50 65.5 L 59.5 51 Z " /><path fill="rgb(0,0,0)" stroke="rgb(0,0,0)" stroke-width="1" opacity="0.0784313725490196" d="M 167.5 63 L 170 66.5 L 168 65.5 L 167.5 63 Z " /><path fill="rgb(0,0,0)" stroke="rgb(0,0,0)" stroke-width="1" opacity="0.0784313725490196" d="M 48.5 68 L 48 69.5 L 46.5 73 L 46 71.5 L 48.5 68 Z " /><path fill="rgb(0,0,0)" stroke="rgb(0,0,0)" stroke-width="1" opacity="0.0784313725490196" d="M 170.5 68 L 174 73.5 L 172 72.5 L 170.5 68 Z " /><path fill="rgb(0,0,0)" stroke="rgb(0,0,0)" stroke-width="1" opacity="0.0784313725490196" d="M 174.5 75 L 179 81.5 L 177 80.5 L 174.5 75 Z " /><path fill="rgb(0,0,0)" stroke="rgb(0,0,0)" stroke-width="1" opacity="0.0784313725490196" d="M 41.5 76 L 44 76.5 L 41.5 77 L 34 84.5 L 26.5 93 L 32 86.5 L 34 82 L 37 80.5 L 39.5 77 L 41.5 76 Z " /><path fill="rgb(0,0,0)" stroke="rgb(0,0,0)" stroke-width="1" opacity="0.0784313725490196" d="M 179.5 83 L 189 96.5 L 186 94.5 L 179.5 83 Z " /><path fill="rgb(0,0,0)" stroke="rgb(0,0,0)" stroke-width="1" opacity="0.0784313725490196" d="M 24.5 95 L 20 100.5 L 16.5 105 L 18 102.5 L 24.5 95 Z " /><path fill="rgb(0,0,0)" stroke="rgb(0,0,0)" stroke-width="1" opacity="0.0784313725490196" d="M 189.5 98 L 200 109.5 L 200 112 L 192 109.5 L 193.5 109 L 199 111 L 189.5 98 Z " /><path fill="rgb(0,0,0)" stroke="rgb(0,0,0)" stroke-width="1" opacity="0.0784313725490196" d="M 15.5 106 L 14.5 108 L 15.5 106 Z " /><path fill="rgb(0,0,0)" stroke="rgb(0,0,0)" stroke-width="1" opacity="0.0784313725490196" d="M 185.5 110 L 186 114.5 L 181.5 120 L 182 118.5 Q 185.7 116.2 185.5 110 Z " /><path fill="rgb(0,0,0)" stroke="rgb(0,0,0)" stroke-width="1" opacity="0.0784313725490196" d="M 14.5 113 L 15 115.5 L 14 115.5 L 14.5 113 Z " /><path fill="rgb(0,0,0)" stroke="rgb(0,0,0)" stroke-width="1" opacity="0.0784313725490196" d="M 15.5 117 L 16 119.5 L 15 119.5 L 15.5 117 Z " /><path fill="rgb(0,0,0)" stroke="rgb(0,0,0)" stroke-width="1" opacity="0.0784313725490196" d="M 16.5 121 L 18 125.5 L 17 125.5 L 16.5 121 Z " /><path fill="rgb(0,0,0)" stroke="rgb(0,0,0)" stroke-width="1" opacity="0.0784313725490196" d="M 180.5 121 L 187 121.5 L 180.5 122 L 180.5 121 Z " /><path fill="rgb(0,0,0)" stroke="rgb(0,0,0)" stroke-width="1" opacity="0.0784313725490196" d="M 190.5 122 L 193 122.5 L 190.5 123 L 190.5 122 Z " /><path fill="rgb(0,0,0)" stroke="rgb(0,0,0)" stroke-width="1" opacity="0.0784313725490196" d="M 194.5 123 L 197 124.5 L 195.5 124 L 194.5 123 Z " /><path fill="rgb(0,0,0)" stroke="rgb(0,0,0)" stroke-width="1" opacity="0.0784313725490196" d="M 198.5 125 L 199.5 127 L 198.5 125 Z " /><path fill="rgb(0,0,0)" stroke="rgb(0,0,0)" stroke-width="1" opacity="0.0784313725490196" d="M 21.5 137 L 8 151.5 L 0.5 161 L 2 158.5 L 4 154 Q 6.7 155.1 6 152.5 L 21.5 137 Z " /><path fill="rgb(0,0,0)" stroke="rgb(0,0,0)" stroke-width="1" opacity="0.0784313725490196" d="M 199.5 194 L 199 195.5 L 195.5 200 L 197 197.5 L 199.5 194 Z " /><path fill="rgb(57,80,158)" stroke="rgb(57,80,158)" stroke-width="1" opacity="1" d="M 80.5 34 L 81 43.5 L 74.5 51 L 65.5 57 L 66 55.5 L 80.5 34 Z " /><path fill="rgb(57,80,158)" stroke="rgb(57,80,158)" stroke-width="1" opacity="1" d="M 137.5 38 L 139 38.5 L 121.5 47 L 110 49.5 L 121 53.5 L 93.5 58 L 73.5 67 L 73 65.5 L 76 64 Q 74.9 61.3 77.5 62 Q 84.1 54.1 94.5 50 L 103.5 47 L 128.5 42 L 137.5 38 Z " /><path fill="rgb(0,0,0)" stroke="rgb(0,0,0)" stroke-width="1" opacity="0.792156862745098" d="M 165.5 16 L 167 18.5 L 166 18.5 L 165.5 17 L 160.5 20 L 161.5 18 L 165.5 16 Z " /><path fill="rgb(0,0,0)" stroke="rgb(0,0,0)" stroke-width="1" opacity="0.792156862745098" d="M 80.5 20 L 80 21.5 L 79.5 23 L 79 21.5 L 80.5 20 Z " /><path fill="rgb(0,0,0)" stroke="rgb(0,0,0)" stroke-width="1" opacity="0.792156862745098" d="M 157.5 20 L 159 20.5 L 156.5 22 L 157.5 20 Z " /><path fill="rgb(0,0,0)" stroke="rgb(0,0,0)" stroke-width="1" opacity="0.792156862745098" d="M 165.5 20 L 166 22.5 L 161.5 34 L 161 32.5 L 165.5 20 Z " /><path fill="rgb(0,0,0)" stroke="rgb(0,0,0)" stroke-width="1" opacity="0.792156862745098" d="M 153.5 22 L 155 22.5 L 149.5 25 L 149.5 24 L 153.5 22 Z " /><path fill="rgb(0,0,0)" stroke="rgb(0,0,0)" stroke-width="1" opacity="0.792156862745098" d="M 86.5 23 L 87 26.5 L 86 26.5 L 86.5 23 Z " /><path fill="rgb(0,0,0)" stroke="rgb(0,0,0)" stroke-width="1" opacity="0.792156862745098" d="M 78.5 24 L 77.5 26 L 78.5 24 Z " /><path fill="rgb(0,0,0)" stroke="rgb(0,0,0)" stroke-width="1" opacity="0.792156862745098" d="M 75.5 29 L 74.5 31 L 75.5 29 Z " /><path fill="rgb(0,0,0)" stroke="rgb(0,0,0)" stroke-width="1" opacity="0.792156862745098" d="M 87.5 29 L 88 32.5 L 87 32.5 L 87.5 29 Z " /><path fill="rgb(0,0,0)" stroke="rgb(0,0,0)" stroke-width="1" opacity="0.792156862745098" d="M 138.5 29 L 140 29.5 L 134.5 32 L 134.5 31 L 138.5 29 Z " /><path fill="rgb(0,0,0)" stroke="rgb(0,0,0)" stroke-width="1" opacity="0.792156862745098" d="M 73.5 32 L 72.5 34 L 73.5 32 Z " /><path fill="rgb(0,0,0)" stroke="rgb(0,0,0)" stroke-width="1" opacity="0.792156862745098" d="M 131.5 32 L 133 32.5 L 128.5 34 L 128.5 33 L 131.5 32 Z " /><path fill="rgb(0,0,0)" stroke="rgb(0,0,0)" stroke-width="1" opacity="0.792156862745098" d="M 71.5 35 L 70.5 37 L 71.5 35 Z " /><path fill="rgb(0,0,0)" stroke="rgb(0,0,0)" stroke-width="1" opacity="0.792156862745098" d="M 69.5 38 L 68.5 40 L 69.5 38 Z " /><path fill="rgb(0,0,0)" stroke="rgb(0,0,0)" stroke-width="1" opacity="0.792156862745098" d="M 109.5 38 L 112 38.5 L 109.5 39 L 109.5 38 Z " /><path fill="rgb(0,0,0)" stroke="rgb(0,0,0)" stroke-width="1" opacity="0.792156862745098" d="M 158.5 39 L 159 40.5 L 157 41.5 L 158.5 39 Z " /><path fill="rgb(0,0,0)" stroke="rgb(0,0,0)" stroke-width="1" opacity="0.792156862745098" d="M 67.5 41 L 65.5 44 L 67.5 41 Z " /><path fill="rgb(0,0,0)" stroke="rgb(0,0,0)" stroke-width="1" opacity="0.792156862745098" d="M 98.5 41 L 101 41.5 L 98.5 42 L 98.5 41 Z " /><path fill="rgb(0,0,0)" stroke="rgb(0,0,0)" stroke-width="1" opacity="0.792156862745098" d="M 156.5 43 L 156 44.5 L 155 47.5 L 162 55.5 L 158 52.5 L 154 47.5 L 154 45.5 L 156.5 43 Z " /><path fill="rgb(0,0,0)" stroke="rgb(0,0,0)" stroke-width="1" opacity="0.792156862745098" d="M 87.5 44 L 88 46.5 L 87 46.5 L 87.5 44 Z " /><path fill="rgb(0,0,0)" stroke="rgb(0,0,0)" stroke-width="1" opacity="0.792156862745098" d="M 64.5 45 L 62.5 48 L 64.5 45 Z " /><path fill="rgb(0,0,0)" stroke="rgb(0,0,0)" stroke-width="1" opacity="0.792156862745098" d="M 61.5 49 L 61 50.5 L 57.5 56 L 59 53.5 L 61.5 49 Z " /><path fill="rgb(0,0,0)" stroke="rgb(0,0,0)" stroke-width="1" opacity="0.792156862745098" d="M 56.5 57 L 55 59.5 L 53.5 62 L 54 60.5 L 56.5 57 Z " /><path fill="rgb(0,0,0)" stroke="rgb(0,0,0)" stroke-width="1" opacity="0.792156862745098" d="M 162.5 57 L 163.5 59 L 162.5 57 Z " /><path fill="rgb(0,0,0)" stroke="rgb(0,0,0)" stroke-width="1" opacity="0.792156862745098" d="M 164.5 60 L 174 74.5 L 171 72.5 L 164.5 60 Z " /><path fill="rgb(0,0,0)" stroke="rgb(0,0,0)" stroke-width="1" opacity="0.792156862745098" d="M 52.5 63 L 51.5 65 L 52.5 63 Z " /><path fill="rgb(0,0,0)" stroke="rgb(0,0,0)" stroke-width="1" opacity="0.792156862745098" d="M 50.5 66 L 50 67.5 L 46.5 75 L 46 73.5 L 50.5 66 Z " /><path fill="rgb(0,0,0)" stroke="rgb(0,0,0)" stroke-width="1" opacity="0.792156862745098" d="M 45.5 76 L 46 78 L 43 77.5 L 45.5 76 Z " /><path fill="rgb(0,0,0)" stroke="rgb(0,0,0)" stroke-width="1" opacity="0.792156862745098" d="M 41.5 77 L 34.5 85 L 41.5 77 Z " /><path fill="rgb(0,0,0)" stroke="rgb(0,0,0)" stroke-width="1" opacity="0.792156862745098" d="M 175.5 78 L 176.5 80 L 175.5 78 Z " /><path fill="rgb(0,0,0)" stroke="rgb(0,0,0)" stroke-width="1" opacity="0.792156862745098" d="M 177.5 81 L 180 84.5 L 178 83.5 L 177.5 81 Z " /><path fill="rgb(0,0,0)" stroke="rgb(0,0,0)" stroke-width="1" opacity="0.792156862745098" d="M 33.5 86 L 28 92.5 L 22 101 L 20 100.5 L 33.5 86 Z " /><path fill="rgb(0,0,0)" stroke="rgb(0,0,0)" stroke-width="1" opacity="0.792156862745098" d="M 180.5 86 L 186 93.5 L 183 91.5 L 180.5 86 Z " /><path fill="rgb(0,0,0)" stroke="rgb(0,0,0)" stroke-width="1" opacity="0.792156862745098" d="M 186.5 95 L 192 101.5 L 187 97.5 L 186.5 95 Z " /><path fill="rgb(0,0,0)" stroke="rgb(0,0,0)" stroke-width="1" opacity="0.792156862745098" d="M 19.5 102 L 17 105.5 Q 14.3 107.8 14.5 113 L 14 108.5 L 19.5 102 Z " /><path fill="rgb(0,0,0)" stroke="rgb(0,0,0)" stroke-width="1" opacity="0.792156862745098" d="M 192.5 103 L 199 111 L 197 110.5 Q 199.2 109.3 196.5 108 Q 194.3 108.8 195 106.5 L 192.5 103 Z " /><path fill="rgb(0,0,0)" stroke="rgb(0,0,0)" stroke-width="1" opacity="0.792156862745098" d="M 185.5 106 L 189.5 106 L 196 109.5 L 194.5 110 L 189.5 107 L 185.5 107 L 185.5 106 Z " /><path fill="rgb(0,0,0)" stroke="rgb(0,0,0)" stroke-width="1" opacity="0.792156862745098" d="M 184.5 113 L 185 114.5 L 180 121.5 L 193.5 123 L 200 127.5 L 197.5 126 Q 191.7 121.8 180.5 123 L 179 121.5 L 184.5 113 Z " /><path fill="rgb(0,0,0)" stroke="rgb(0,0,0)" stroke-width="1" opacity="0.792156862745098" d="M 15.5 114 L 16 116.5 L 15 116.5 L 15.5 114 Z " /><path fill="rgb(0,0,0)" stroke="rgb(0,0,0)" stroke-width="1" opacity="0.792156862745098" d="M 16.5 118 L 17 120.5 L 16 120.5 L 16.5 118 Z " /><path fill="rgb(0,0,0)" stroke="rgb(0,0,0)" stroke-width="1" opacity="0.792156862745098" d="M 18.5 126 L 19 128.5 L 18 128.5 L 18.5 126 Z " /><path fill="rgb(0,0,0)" stroke="rgb(0,0,0)" stroke-width="1" opacity="0.792156862745098" d="M 21.5 138 L 8.5 152 L 21.5 138 Z " /><path fill="rgb(0,0,0)" stroke="rgb(0,0,0)" stroke-width="1" opacity="0.792156862745098" d="M 7.5 153 L 3.5 158 L 7.5 153 Z " /><path fill="rgb(0,0,0)" stroke="rgb(0,0,0)" stroke-width="1" opacity="0.792156862745098" d="M 2.5 159 L 0.5 162 L 2.5 159 Z " /><path fill="rgb(0,0,0)" stroke="rgb(0,0,0)" stroke-width="1" opacity="0.792156862745098" d="M 199.5 193 L 197.5 196 L 199.5 193 Z " /><path fill="rgb(0,0,0)" stroke="rgb(0,0,0)" stroke-width="1" opacity="0.792156862745098" d="M 196.5 197 L 194.5 200 L 196.5 197 Z " /><path fill="rgb(0,0,0)" stroke="rgb(0,0,0)" stroke-width="1" opacity="0" d="M 0 0 L 200 0 L 200 108.5 L 194 103.5 L 179 82.5 L 162 53.5 L 155 46.5 L 164 32.5 L 164 30.5 L 167 21.5 L 167 15 L 149.5 24 L 148.5 23 L 145.5 26 L 122.5 35 Q 103.1 37.4 89 44 L 89 30.5 Q 86.3 27.2 87 20.5 L 84 14 Q 81.3 12.9 82 15.5 L 76 27.5 L 63 47 Q 60.3 45.9 61 48.5 L 47 69.5 L 44.5 77 L 41.5 76 L 37 79.5 L 35.5 82 Q 33.3 81.3 34 83.5 L 18 101.5 L 13 111.5 L 21 137.5 L 6 152.5 L 6 154 Q 3.3 152.9 4 155.5 L 0.5 160 L 0 0 Z " /><path fill="rgb(0,0,0)" stroke="rgb(0,0,0)" stroke-width="1" opacity="0" d="M 184.5 107 L 189.5 107 L 190 109 L 191.5 109 L 200 112 L 199.5 126 L 192.5 122 L 181 120.5 L 186 114.5 L 186 110.5 L 184.5 107 Z " /><path fill="rgb(0,0,0)" stroke="rgb(0,0,0)" stroke-width="1" opacity="0" d="M 199.5 195 L 200 200 L 196 199.5 L 199.5 195 Z " /><path fill="rgb(0,1,1)" stroke="rgb(0,1,1)" stroke-width="1" opacity="0.996078431372549" d="M 148.5 26 L 150 26 L 150 30 L 152.5 30 L 156.5 28 L 157 30.5 L 155.5 30 L 148.5 33 L 144 32 L 144 27 L 147.5 27 L 148.5 26 Z " /><path fill="rgb(0,1,1)" stroke="rgb(0,1,1)" stroke-width="1" opacity="0.996078431372549" d="M 79.5 31 L 82 31.5 L 79.5 32 L 79.5 31 Z " /><path fill="rgb(0,1,1)" stroke="rgb(0,1,1)" stroke-width="1" opacity="0.996078431372549" d="M 155.5 32 L 156 33.5 L 153.5 37 L 154 35.5 L 155.5 32 Z " /><path fill="rgb(0,1,1)" stroke="rgb(0,1,1)" stroke-width="1" opacity="0.996078431372549" d="M 152.5 38 L 153 39.5 L 149.5 44 L 151 41.5 L 152.5 38 Z " /><path fill="rgb(0,1,1)" stroke="rgb(0,1,1)" stroke-width="1" opacity="0.996078431372549" d="M 123.5 41 L 126 41.5 L 123.5 42 L 123.5 41 Z " /><path fill="rgb(0,1,1)" stroke="rgb(0,1,1)" stroke-width="1" opacity="0.996078431372549" d="M 105.5 45 L 108 45.5 L 105.5 46 L 105.5 45 Z " /><path fill="rgb(0,1,1)" stroke="rgb(0,1,1)" stroke-width="1" opacity="0.996078431372549" d="M 148.5 45 Q 150.8 44.3 150 46.5 L 147 46.5 L 148.5 45 Z " /><path fill="rgb(0,1,1)" stroke="rgb(0,1,1)" stroke-width="1" opacity="0.996078431372549" d="M 66 50 Q 68.7 48.9 68 51.5 L 66 52.5 L 66 50 Z " /><path fill="rgb(0,1,1)" stroke="rgb(0,1,1)" stroke-width="1" opacity="0.996078431372549" d="M 81 50 Q 84 48.8 83 52.5 Q 84.3 55.3 85.5 53 L 87 53.5 Q 85.3 55.8 80.5 55 L 81 53.5 L 81 50 Z " /><path fill="rgb(0,1,1)" stroke="rgb(0,1,1)" stroke-width="1" opacity="0.996078431372549" d="M 149.5 50 L 153.5 55 L 149.5 50 Z " /><path fill="rgb(0,1,1)" stroke="rgb(0,1,1)" stroke-width="1" opacity="0.996078431372549" d="M 155.5 56 L 156 58 Q 158.7 56.9 158 59.5 L 159 62 L 165.5 62 L 166 63.5 L 168 68 Q 162.6 69.5 161 66.5 L 155 57.5 L 155.5 56 Z " /><path fill="rgb(0,1,1)" stroke="rgb(0,1,1)" stroke-width="1" opacity="0.996078431372549" d="M 163.5 69 L 164.5 71 L 163.5 69 Z " /><path fill="rgb(0,1,1)" stroke="rgb(0,1,1)" stroke-width="1" opacity="0.996078431372549" d="M 48 74 Q 53.2 71.9 52 76.5 L 51 80 L 48 80 L 48 74 Z " /><path fill="rgb(0,1,1)" stroke="rgb(0,1,1)" stroke-width="1" opacity="0.996078431372549" d="M 166.5 74 L 167.5 76 L 166.5 74 Z " /><path fill="rgb(0,1,1)" stroke="rgb(0,1,1)" stroke-width="1" opacity="0.996078431372549" d="M 168.5 77 Q 171.1 76.2 170 79.5 L 169 79.5 L 168.5 77 Z " /><path fill="rgb(0,1,1)" stroke="rgb(0,1,1)" stroke-width="1" opacity="0.996078431372549" d="M 139.5 87 L 140 89 L 138 88.5 L 139.5 87 Z " /><path fill="rgb(0,1,1)" stroke="rgb(0,1,1)" stroke-width="1" opacity="0.996078431372549" d="M 147.5 87 L 150 88.5 L 148.5 89 L 147.5 87 Z " /><path fill="rgb(0,1,1)" stroke="rgb(0,1,1)" stroke-width="1" opacity="0.996078431372549" d="M 174.5 87 L 175.5 89 L 174.5 87 Z " /><path fill="rgb(0,1,1)" stroke="rgb(0,1,1)" stroke-width="1" opacity="0.996078431372549" d="M 151.5 89 L 152.5 91 L 151.5 89 Z " /><path fill="rgb(0,1,1)" stroke="rgb(0,1,1)" stroke-width="1" opacity="0.996078431372549" d="M 146.5 92 L 149 93.5 L 147.5 93 L 146.5 92 Z " /><path fill="rgb(0,1,1)" stroke="rgb(0,1,1)" stroke-width="1" opacity="0.996078431372549" d="M 178 92 Q 181.3 90.7 180 95.5 L 179 95.5 L 178 92 Z " /><path fill="rgb(0,1,1)" stroke="rgb(0,1,1)" stroke-width="1" opacity="0.996078431372549" d="M 135.5 93 L 135 94.5 L 132.5 98 L 133 96.5 L 135.5 93 Z " /><path fill="rgb(0,1,1)" stroke="rgb(0,1,1)" stroke-width="1" opacity="0.996078431372549" d="M 170.5 100 L 174 100.5 L 170.5 101 L 170.5 100 Z " /><path fill="rgb(0,1,1)" stroke="rgb(0,1,1)" stroke-width="1" opacity="0.996078431372549" d="M 128 104 L 133 104 L 133 106.5 L 126.5 116 Q 120.4 117.3 121 114.5 L 128 104 Z " /><path fill="rgb(0,1,1)" stroke="rgb(0,1,1)" stroke-width="1" opacity="0.996078431372549" d="M 175.5 108 L 176.5 110 L 175.5 108 Z " /><path fill="rgb(0,1,1)" stroke="rgb(0,1,1)" stroke-width="1" opacity="0.996078431372549" d="M 74.5 124 L 77 124.5 L 74.5 125 L 74.5 124 Z " /><path fill="rgb(0,1,1)" stroke="rgb(0,1,1)" stroke-width="1" opacity="0.996078431372549" d="M 144.5 125 L 147 125.5 L 144.5 126 L 144.5 125 Z " /><path fill="rgb(0,1,1)" stroke="rgb(0,1,1)" stroke-width="1" opacity="0.996078431372549" d="M 66.5 126 L 69 126.5 L 66.5 127 L 66.5 126 Z " /><path fill="rgb(0,1,1)" stroke="rgb(0,1,1)" stroke-width="1" opacity="0.996078431372549" d="M 34.5 127 L 39 127.5 L 33.5 129 L 34.5 127 Z " /><path fill="rgb(0,1,1)" stroke="rgb(0,1,1)" stroke-width="1" opacity="0.996078431372549" d="M 45.5 128 L 50 128.5 L 45.5 129 L 45.5 128 Z " /><path fill="rgb(0,1,1)" stroke="rgb(0,1,1)" stroke-width="1" opacity="0.996078431372549" d="M 179.5 128 L 183 128.5 L 179.5 129 L 179.5 128 Z " /><path fill="rgb(0,1,1)" stroke="rgb(0,1,1)" stroke-width="1" opacity="0.996078431372549" d="M 186.5 128 Q 192.6 126.8 192 129.5 L 190.5 129 Q 185.5 130 186.5 128 Z " /><path fill="rgb(0,1,1)" stroke="rgb(0,1,1)" stroke-width="1" opacity="0.996078431372549" d="M 24.5 129 L 26 134 Q 21.9 135.2 24.5 129 Z " /><path fill="rgb(0,1,1)" stroke="rgb(0,1,1)" stroke-width="1" opacity="0.996078431372549" d="M 116 129 L 118 129.5 L 116 130.5 L 116 129 Z " /><path fill="rgb(0,1,1)" stroke="rgb(0,1,1)" stroke-width="1" opacity="0.996078431372549" d="M 173.5 129 L 172.5 131 L 173.5 129 Z " /><path fill="rgb(0,1,1)" stroke="rgb(0,1,1)" stroke-width="1" opacity="0.996078431372549" d="M 142.5 130 L 150 130.5 L 142.5 131 L 142.5 130 Z " /><path fill="rgb(0,1,1)" stroke="rgb(0,1,1)" stroke-width="1" opacity="0.996078431372549" d="M 193.5 130 L 200 134 L 199.5 136 L 193.5 130 Z " /><path fill="rgb(0,1,1)" stroke="rgb(0,1,1)" stroke-width="1" opacity="0.996078431372549" d="M 152.5 131 L 153 132.5 L 150.5 134 L 152.5 131 Z " /><path fill="rgb(0,1,1)" stroke="rgb(0,1,1)" stroke-width="1" opacity="0.996078431372549" d="M 29.5 132 L 30 134 L 28 133.5 L 29.5 132 Z " /><path fill="rgb(0,1,1)" stroke="rgb(0,1,1)" stroke-width="1" opacity="0.996078431372549" d="M 128.5 133 L 131 133.5 L 128.5 134 L 128.5 133 Z " /><path fill="rgb(0,1,1)" stroke="rgb(0,1,1)" stroke-width="1" opacity="0.996078431372549" d="M 156 134 L 159 134.5 L 151.5 140 L 153.5 137 L 156 135.5 L 156 134 Z " /><path fill="rgb(0,1,1)" stroke="rgb(0,1,1)" stroke-width="1" opacity="0.996078431372549" d="M 168 134 L 171 134.5 L 167.5 139 L 168 137.5 L 168 134 Z " /><path fill="rgb(0,1,1)" stroke="rgb(0,1,1)" stroke-width="1" opacity="0.996078431372549" d="M 34.5 135 L 37 135.5 L 33.5 137 L 34.5 135 Z " /><path fill="rgb(0,1,1)" stroke="rgb(0,1,1)" stroke-width="1" opacity="0.996078431372549" d="M 147.5 135 L 144.5 139 L 147.5 135 Z " /><path fill="rgb(0,1,1)" stroke="rgb(0,1,1)" stroke-width="1" opacity="0.996078431372549" d="M 116.5 136 L 119 136.5 L 115.5 138 L 116.5 136 Z " /><path fill="rgb(0,1,1)" stroke="rgb(0,1,1)" stroke-width="1" opacity="0.996078431372549" d="M 68.5 137 L 69.5 139 L 68.5 137 Z " /><path fill="rgb(0,1,1)" stroke="rgb(0,1,1)" stroke-width="1" opacity="0.996078431372549" d="M 40.5 138 Q 43.9 137.1 42 142.5 L 41 142.5 Q 42.1 139.2 39.5 140 L 40.5 138 Z " /><path fill="rgb(0,1,1)" stroke="rgb(0,1,1)" stroke-width="1" opacity="0.996078431372549" d="M 34.5 140 L 35 142.5 L 33.5 145 L 33 142.5 L 34.5 140 Z " /><path fill="rgb(0,1,1)" stroke="rgb(0,1,1)" stroke-width="1" opacity="0.996078431372549" d="M 150.5 141 L 147.5 145 L 148 143.5 Q 147.3 141.3 149.5 142 L 150.5 141 Z " /><path fill="rgb(0,1,1)" stroke="rgb(0,1,1)" stroke-width="1" opacity="0.996078431372549" d="M 165.5 141 L 164.5 143 L 165.5 141 Z " /><path fill="rgb(0,1,1)" stroke="rgb(0,1,1)" stroke-width="1" opacity="0.996078431372549" d="M 67.5 142 L 68 144 L 66 143.5 L 67.5 142 Z " /><path fill="rgb(0,1,1)" stroke="rgb(0,1,1)" stroke-width="1" opacity="0.996078431372549" d="M 26.5 143 L 26 144.5 L 25.5 146 L 24.5 144 L 26.5 143 Z " /><path fill="rgb(0,1,1)" stroke="rgb(0,1,1)" stroke-width="1" opacity="0.996078431372549" d="M 76.5 143 L 80.5 143 L 85 147.5 L 84.5 149 L 80.5 144 Q 75.5 145 76.5 143 Z " /><path fill="rgb(0,1,1)" stroke="rgb(0,1,1)" stroke-width="1" opacity="0.996078431372549" d="M 18 145 L 23 145.5 L 18 149.5 L 18 145 Z " /><path fill="rgb(0,1,1)" stroke="rgb(0,1,1)" stroke-width="1" opacity="0.996078431372549" d="M 32.5 146 L 33 148.5 L 32 148.5 L 32.5 146 Z " /><path fill="rgb(0,1,1)" stroke="rgb(0,1,1)" stroke-width="1" opacity="0.996078431372549" d="M 138.5 146 L 140 146.5 L 136.5 149 L 138.5 146 Z " /><path fill="rgb(0,1,1)" stroke="rgb(0,1,1)" stroke-width="1" opacity="0.996078431372549" d="M 146.5 146 L 144.5 149 L 146.5 146 Z " /><path fill="rgb(0,1,1)" stroke="rgb(0,1,1)" stroke-width="1" opacity="0.996078431372549" d="M 37.5 147 L 38 149.5 L 37 149.5 L 37.5 147 Z " /><path fill="rgb(0,1,1)" stroke="rgb(0,1,1)" stroke-width="1" opacity="0.996078431372549" d="M 48.5 147 L 50 151.5 L 48 152 L 48.5 147 Z " /><path fill="rgb(0,1,1)" stroke="rgb(0,1,1)" stroke-width="1" opacity="0.996078431372549" d="M 69.5 147 L 65.5 152 L 64 151.5 L 69.5 147 Z " /><path fill="rgb(0,1,1)" stroke="rgb(0,1,1)" stroke-width="1" opacity="0.996078431372549" d="M 160 147 L 162 147.5 L 157.5 154 L 158 152.5 L 160 147 Z " /><path fill="rgb(0,1,1)" stroke="rgb(0,1,1)" stroke-width="1" opacity="0.996078431372549" d="M 82.5 149 L 79.5 153 L 77.5 154 L 78.5 152 L 82.5 149 Z " /><path fill="rgb(0,1,1)" stroke="rgb(0,1,1)" stroke-width="1" opacity="0.996078431372549" d="M 154.5 149 L 153.5 151 L 154.5 149 Z " /><path fill="rgb(0,1,1)" stroke="rgb(0,1,1)" stroke-width="1" opacity="0.996078431372549" d="M 142.5 150 L 144 150.5 L 141.5 152 L 142.5 150 Z " /><path fill="rgb(0,1,1)" stroke="rgb(0,1,1)" stroke-width="1" opacity="0.996078431372549" d="M 12 151 L 17 151.5 L 10.5 159 L 11 157.5 L 12 151 Z " /><path fill="rgb(0,1,1)" stroke="rgb(0,1,1)" stroke-width="1" opacity="0.996078431372549" d="M 31.5 151 L 32 154.5 L 31 154.5 L 31.5 151 Z " /><path fill="rgb(0,1,1)" stroke="rgb(0,1,1)" stroke-width="1" opacity="0.996078431372549" d="M 36.5 152 L 37 155.5 L 36 155.5 L 36.5 152 Z " /><path fill="rgb(0,1,1)" stroke="rgb(0,1,1)" stroke-width="1" opacity="0.996078431372549" d="M 87.5 152 L 86.5 154 L 87.5 152 Z " /><path fill="rgb(0,1,1)" stroke="rgb(0,1,1)" stroke-width="1" opacity="0.996078431372549" d="M 132.5 152 L 134 152.5 L 127.5 158 L 132.5 152 Z " /><path fill="rgb(0,1,1)" stroke="rgb(0,1,1)" stroke-width="1" opacity="0.996078431372549" d="M 8.5 153 L 6.5 156 L 8.5 153 Z " /><path fill="rgb(0,1,1)" stroke="rgb(0,1,1)" stroke-width="1" opacity="0.996078431372549" d="M 63.5 153 L 63 154.5 L 62.5 157 L 62 154.5 L 63.5 153 Z " /><path fill="rgb(0,1,1)" stroke="rgb(0,1,1)" stroke-width="1" opacity="0.996078431372549" d="M 139 153 L 141 153.5 L 140.5 155 L 145 155.5 L 139 156 L 139 153 Z " /><path fill="rgb(0,1,1)" stroke="rgb(0,1,1)" stroke-width="1" opacity="0.996078431372549" d="M 83.5 154 L 84 155.5 L 81 157.5 L 83.5 154 Z " /><path fill="rgb(0,1,1)" stroke="rgb(0,1,1)" stroke-width="1" opacity="0.996078431372549" d="M 74.5 155 L 73.5 157 L 74.5 155 Z " /><path fill="rgb(0,1,1)" stroke="rgb(0,1,1)" stroke-width="1" opacity="0.996078431372549" d="M 31.5 158 L 32 170 L 30 169.5 L 30 159.5 L 31.5 158 Z " /><path fill="rgb(0,1,1)" stroke="rgb(0,1,1)" stroke-width="1" opacity="0.996078431372549" d="M 63.5 158 L 66.5 161 L 67.5 160 L 70.5 158 L 71 159.5 L 66.5 162 L 63 159.5 L 63.5 158 Z " /><path fill="rgb(0,1,1)" stroke="rgb(0,1,1)" stroke-width="1" opacity="0.996078431372549" d="M 78 158 L 80 158.5 L 74.5 163 L 76.5 160 Q 79.1 160.7 78 158 Z " /><path fill="rgb(0,1,1)" stroke="rgb(0,1,1)" stroke-width="1" opacity="0.996078431372549" d="M 159.5 158 L 162 158.5 L 159.5 159 L 159.5 158 Z " /><path fill="rgb(0,1,1)" stroke="rgb(0,1,1)" stroke-width="1" opacity="0.996078431372549" d="M 8.5 160 L 6.5 163 L 8.5 160 Z " /><path fill="rgb(0,1,1)" stroke="rgb(0,1,1)" stroke-width="1" opacity="0.996078431372549" d="M 129.5 160 L 138 160.5 L 129.5 161 L 129.5 160 Z " /><path fill="rgb(0,1,1)" stroke="rgb(0,1,1)" stroke-width="1" opacity="0.996078431372549" d="M 164.5 160 L 169 163.5 L 167.5 163 L 164 162 L 164.5 160 Z " /><path fill="rgb(0,1,1)" stroke="rgb(0,1,1)" stroke-width="1" opacity="0.996078431372549" d="M 145.5 161 L 149 161.5 L 145.5 162 L 145.5 161 Z " /><path fill="rgb(0,1,1)" stroke="rgb(0,1,1)" stroke-width="1" opacity="0.996078431372549" d="M 60.5 162 L 62 162 L 62 166 L 60 165.5 L 61 163.5 L 60.5 162 Z " /><path fill="rgb(0,1,1)" stroke="rgb(0,1,1)" stroke-width="1" opacity="0.996078431372549" d="M 72.5 164 L 71.5 166 L 66.5 170 L 70.5 165 L 72.5 164 Z " /><path fill="rgb(0,1,1)" stroke="rgb(0,1,1)" stroke-width="1" opacity="0.996078431372549" d="M 48.5 165 Q 51.1 164.2 50 167.5 L 51 169.5 L 49 168.5 L 48.5 165 Z " /><path fill="rgb(0,1,1)" stroke="rgb(0,1,1)" stroke-width="1" opacity="0.996078431372549" d="M 165.5 165 L 168 165.5 L 165.5 166 L 165.5 165 Z " /><path fill="rgb(0,1,1)" stroke="rgb(0,1,1)" stroke-width="1" opacity="0.996078431372549" d="M 3 166 L 5 166.5 L 2 168.5 L 3 166 Z " /><path fill="rgb(0,1,1)" stroke="rgb(0,1,1)" stroke-width="1" opacity="0.996078431372549" d="M 153.5 166 L 151.5 169 L 149.5 170 L 150.5 168 L 153.5 166 Z " /><path fill="rgb(0,1,1)" stroke="rgb(0,1,1)" stroke-width="1" opacity="0.996078431372549" d="M 160.5 167 L 162 167.5 L 156.5 171 L 156.5 170 L 160.5 167 Z " /><path fill="rgb(0,1,1)" stroke="rgb(0,1,1)" stroke-width="1" opacity="0.996078431372549" d="M 64.5 170 L 62.5 173 L 64.5 170 Z " /><path fill="rgb(0,1,1)" stroke="rgb(0,1,1)" stroke-width="1" opacity="0.996078431372549" d="M 147.5 170 L 146.5 172 L 145 171.5 L 147.5 170 Z " /><path fill="rgb(0,1,1)" stroke="rgb(0,1,1)" stroke-width="1" opacity="0.996078431372549" d="M 51.5 171 L 52 173.5 L 49 175.5 L 51.5 171 Z " /><path fill="rgb(0,1,1)" stroke="rgb(0,1,1)" stroke-width="1" opacity="0.996078431372549" d="M 143.5 172 L 142.5 174 L 141 173.5 L 143.5 172 Z " /><path fill="rgb(0,1,1)" stroke="rgb(0,1,1)" stroke-width="1" opacity="0.996078431372549" d="M 152.5 173 L 151.5 175 L 152.5 173 Z " /><path fill="rgb(0,1,1)" stroke="rgb(0,1,1)" stroke-width="1" opacity="0.996078431372549" d="M 31.5 174 L 33 181.5 L 32 181.5 L 31.5 174 Z " /><path fill="rgb(0,1,1)" stroke="rgb(0,1,1)" stroke-width="1" opacity="0.996078431372549" d="M 58.5 175 L 57.5 177 L 52.5 180 L 52.5 179 Q 55.5 179.7 54 176 L 57.5 176 L 58.5 175 Z " /><path fill="rgb(0,1,1)" stroke="rgb(0,1,1)" stroke-width="1" opacity="0.996078431372549" d="M 134.5 176 L 136 176.5 L 132.5 178 L 132.5 177 L 134.5 176 Z " /><path fill="rgb(0,1,1)" stroke="rgb(0,1,1)" stroke-width="1" opacity="0.996078431372549" d="M 147.5 176 L 149 176.5 L 146.5 178 L 147.5 176 Z " /><path fill="rgb(0,1,1)" stroke="rgb(0,1,1)" stroke-width="1" opacity="0.996078431372549" d="M 46.5 177 L 44.5 180 L 43 179.5 L 46.5 177 Z " /><path fill="rgb(0,1,1)" stroke="rgb(0,1,1)" stroke-width="1" opacity="0.996078431372549" d="M 123.5 179 L 126 179.5 L 123.5 180 L 123.5 179 Z " /><path fill="rgb(0,1,1)" stroke="rgb(0,1,1)" stroke-width="1" opacity="0.996078431372549" d="M 119.5 180 L 122 180.5 L 120 181 L 119.5 184 L 116 181.5 L 119.5 180 Z " /><path fill="rgb(0,1,1)" stroke="rgb(0,1,1)" stroke-width="1" opacity="0.996078431372549" d="M 139.5 180 L 141 180.5 L 134.5 183 L 134.5 182 L 139.5 180 Z " /><path fill="rgb(0,1,1)" stroke="rgb(0,1,1)" stroke-width="1" opacity="0.996078431372549" d="M 40.5 181 L 39.5 183 L 38 182.5 L 40.5 181 Z " /><path fill="rgb(0,1,1)" stroke="rgb(0,1,1)" stroke-width="1" opacity="0.996078431372549" d="M 50.5 181 L 49.5 183 L 50.5 181 Z " /><path fill="rgb(0,1,1)" stroke="rgb(0,1,1)" stroke-width="1" opacity="0.996078431372549" d="M 131.5 183 Q 133.8 182.3 133 184.5 L 134.5 187 L 131.5 183 Z " /><path fill="rgb(0,1,1)" stroke="rgb(0,1,1)" stroke-width="1" opacity="0.996078431372549" d="M 197.5 184 L 198 185.5 L 196 186.5 L 197.5 184 Z " /><path fill="rgb(0,1,1)" stroke="rgb(0,1,1)" stroke-width="1" opacity="0.996078431372549" d="M 33.5 186 L 35.5 189 Q 33.3 189.8 34 187.5 L 33.5 186 Z " /><path fill="rgb(0,1,1)" stroke="rgb(0,1,1)" stroke-width="1" opacity="0.996078431372549" d="M 126.5 187 L 131 190.5 L 127.5 188 L 126.5 187 Z " /><path fill="rgb(0,1,1)" stroke="rgb(0,1,1)" stroke-width="1" opacity="0.996078431372549" d="M 136.5 187 L 146 197.5 L 143 195.5 L 137.5 189 Q 134.7 189.7 136.5 187 Z " /><path fill="rgb(0,1,1)" stroke="rgb(0,1,1)" stroke-width="1" opacity="0.996078431372549" d="M 88.5 189 L 93 190.5 L 91.5 191 L 88.5 190 L 88.5 189 Z " /><path fill="rgb(0,1,1)" stroke="rgb(0,1,1)" stroke-width="1" opacity="0.996078431372549" d="M 96.5 192 L 101 194.5 L 99.5 195 L 96 194 L 96.5 192 Z " /><path fill="rgb(0,1,1)" stroke="rgb(0,1,1)" stroke-width="1" opacity="0.996078431372549" d="M 133.5 192 L 139.5 199 L 133.5 192 Z " /><path fill="rgb(0,1,1)" stroke="rgb(0,1,1)" stroke-width="1" opacity="0.996078431372549" d="M 190.5 195 L 186.5 200 L 190.5 195 Z " /><path fill="rgb(0,1,1)" stroke="rgb(0,1,1)" stroke-width="1" opacity="0.996078431372549" d="M 86.5 197 L 87.5 199 L 86.5 197 Z " /><path fill="rgb(0,1,1)" stroke="rgb(0,1,1)" stroke-width="1" opacity="0.996078431372549" d="M 108.5 197 L 115 199.5 L 112.5 200 Q 108.5 199.5 108.5 197 Z " /><path fill="rgb(248,239,232)" stroke="rgb(248,239,232)" stroke-width="1" opacity="1" d="M 59.5 65 Q 62.1 64.2 61 67.5 L 63 76 L 70.5 73 L 83.5 70 L 106.5 69 L 102.5 74 L 100 75.5 Q 99.3 77.8 101.5 77 L 114 81 L 114 83.5 L 125 96.5 Q 127.7 98.8 127 104.5 L 105.5 135 L 96.5 139 L 87.5 141 L 82 136.5 L 86 134 L 91 124.5 L 87.5 120 L 84 118.5 L 77 108.5 L 71 95.5 L 62.5 87 L 52 81.5 L 52 77.5 L 59.5 65 Z M 83 80 L 82 84 L 85 92 L 79 95 Q 81 98 89 97 L 92 103 L 101 111 L 95 97 L 95 94 L 98 88 L 91 89 L 83 80 Z " /><path fill="rgb(248,239,232)" stroke="rgb(248,239,232)" stroke-width="1" opacity="1" d="M 44.5 87 L 57 92.5 L 51.5 94 L 44.5 94 L 31.5 103 L 34 99.5 L 41.5 90 Q 43.8 90.8 43 88.5 L 44.5 87 Z " /><path fill="rgb(248,239,232)" stroke="rgb(248,239,232)" stroke-width="1" opacity="1" d="M 144.5 93 L 176 111.5 L 163.5 130 L 161 128.5 Q 167 122.5 170 113.5 L 146.5 99 L 144 99 L 132 119.5 L 126.5 126 Q 123.9 125.3 125 128 L 121.5 128 L 120 128.5 L 138 100.5 L 144.5 93 Z " /><path fill="rgb(248,239,232)" stroke="rgb(248,239,232)" stroke-width="1" opacity="1" d="M 148.5 119 L 150 119.5 L 149 122.5 Q 150.3 127.1 144.5 125 L 142.5 125 L 140 124.5 L 148.5 119 Z " /><path fill="rgb(18,26,39)" stroke="rgb(18,26,39)" stroke-width="1" opacity="1" d="M 153.5 30 Q 156.8 28.9 156 31.5 L 154.5 34 L 154 32.5 L 154.5 31 L 149.5 33 L 149.5 32 L 153.5 30 Z " /><path fill="rgb(18,26,39)" stroke="rgb(18,26,39)" stroke-width="1" opacity="1" d="M 80.5 32 L 79.5 34 L 80.5 32 Z " /><path fill="rgb(18,26,39)" stroke="rgb(18,26,39)" stroke-width="1" opacity="1" d="M 78.5 35 L 77.5 37 L 78.5 35 Z " /><path fill="rgb(18,26,39)" stroke="rgb(18,26,39)" stroke-width="1" opacity="1" d="M 150.5 41 L 149.5 43 L 150.5 41 Z " /><path fill="rgb(18,26,39)" stroke="rgb(18,26,39)" stroke-width="1" opacity="1" d="M 81.5 43 L 82 49.5 L 80 54.5 L 84 55.5 L 71 66.5 L 67.5 72 Q 64.5 71.5 65 67.5 Q 67.6 60.1 73.5 56 L 78 52.5 Q 81.5 49.5 81.5 43 Z " /><path fill="rgb(18,26,39)" stroke="rgb(18,26,39)" stroke-width="1" opacity="1" d="M 148.5 44 L 147 46.5 L 147 48.5 L 155 56.5 L 146 48.5 Q 145.5 44.5 148.5 44 Z " /><path fill="rgb(18,26,39)" stroke="rgb(18,26,39)" stroke-width="1" opacity="1" d="M 66.5 53 L 65.5 55 L 66.5 53 Z " /><path fill="rgb(18,26,39)" stroke="rgb(18,26,39)" stroke-width="1" opacity="1" d="M 156.5 59 L 157.5 61 L 156.5 59 Z " /><path fill="rgb(18,26,39)" stroke="rgb(18,26,39)" stroke-width="1" opacity="1" d="M 61.5 61 L 60.5 63 L 61.5 61 Z " /><path fill="rgb(18,26,39)" stroke="rgb(18,26,39)" stroke-width="1" opacity="1" d="M 158.5 62 L 161 65.5 L 159 64.5 L 158.5 62 Z " /><path fill="rgb(18,26,39)" stroke="rgb(18,26,39)" stroke-width="1" opacity="1" d="M 161.5 67 L 162.5 69 L 161.5 67 Z " /><path fill="rgb(18,26,39)" stroke="rgb(18,26,39)" stroke-width="1" opacity="1" d="M 163.5 70 L 166 73.5 L 164 72.5 L 163.5 70 Z " /><path fill="rgb(18,26,39)" stroke="rgb(18,26,39)" stroke-width="1" opacity="1" d="M 166.5 75 L 167.5 77 L 166.5 75 Z " /><path fill="rgb(18,26,39)" stroke="rgb(18,26,39)" stroke-width="1" opacity="1" d="M 116.5 79 Q 121.1 78.4 122.5 81 L 136 92.5 L 131.5 99 L 131 96.5 L 123.5 89 Q 120.9 89.7 122 87 L 119.5 87 L 114 80.5 L 116.5 79 Z " /><path fill="rgb(18,26,39)" stroke="rgb(18,26,39)" stroke-width="1" opacity="1" d="M 169.5 80 L 170.5 82 L 169.5 80 Z " /><path fill="rgb(18,26,39)" stroke="rgb(18,26,39)" stroke-width="1" opacity="1" d="M 157.5 84 L 161.5 84 L 170.5 91 L 174 92 Q 172.9 94.7 175.5 94 L 177.5 95 L 177 93.5 L 174 88.5 L 176 89.5 L 179 94.5 L 178.5 96 Q 181.5 95.2 180 99 L 169.5 100 L 163 95.5 L 164.5 96 L 166 95.5 L 156 86.5 L 157.5 84 Z " /><path fill="rgb(18,26,39)" stroke="rgb(18,26,39)" stroke-width="1" opacity="1" d="M 172.5 85 L 173.5 87 L 172.5 85 Z " /><path fill="rgb(18,26,39)" stroke="rgb(18,26,39)" stroke-width="1" opacity="1" d="M 138.5 87 L 138 88.5 L 136.5 91 L 137 89.5 L 138.5 87 Z " /><path fill="rgb(18,26,39)" stroke="rgb(18,26,39)" stroke-width="1" opacity="1" d="M 152.5 89 L 156 91.5 L 154.5 91 L 152.5 89 Z " /><path fill="rgb(18,26,39)" stroke="rgb(18,26,39)" stroke-width="1" opacity="1" d="M 37.5 90 L 32.5 96 L 37.5 90 Z " /><path fill="rgb(18,26,39)" stroke="rgb(18,26,39)" stroke-width="1" opacity="1" d="M 86.5 91 L 85.5 93 L 86.5 91 Z " /><path fill="rgb(18,26,39)" stroke="rgb(18,26,39)" stroke-width="1" opacity="1" d="M 93.5 93 L 91.5 96 L 93.5 93 Z " /><path fill="rgb(18,26,39)" stroke="rgb(18,26,39)" stroke-width="1" opacity="1" d="M 140.5 95 L 139.5 97 L 140.5 95 Z " /><path fill="rgb(18,26,39)" stroke="rgb(18,26,39)" stroke-width="1" opacity="1" d="M 137.5 99 L 136.5 101 L 137.5 99 Z " /><path fill="rgb(18,26,39)" stroke="rgb(18,26,39)" stroke-width="1" opacity="1" d="M 28.5 100 L 25.5 104 L 28.5 100 Z " /><path fill="rgb(18,26,39)" stroke="rgb(18,26,39)" stroke-width="1" opacity="1" d="M 160.5 100 L 161.5 102 L 160.5 100 Z " /><path fill="rgb(18,26,39)" stroke="rgb(18,26,39)" stroke-width="1" opacity="1" d="M 23.5 106 L 22.5 108 L 23.5 106 Z " /><path fill="rgb(18,26,39)" stroke="rgb(18,26,39)" stroke-width="1" opacity="1" d="M 154.5 106 L 160 109.5 L 156.5 110 L 154 109 L 154.5 106 Z " /><path fill="rgb(18,26,39)" stroke="rgb(18,26,39)" stroke-width="1" opacity="1" d="M 177.5 113 L 178 114.5 L 176 115.5 L 177.5 113 Z " /><path fill="rgb(18,26,39)" stroke="rgb(18,26,39)" stroke-width="1" opacity="1" d="M 135.5 117 L 134.5 119 L 135.5 117 Z " /><path fill="rgb(18,26,39)" stroke="rgb(18,26,39)" stroke-width="1" opacity="1" d="M 175.5 117 L 174.5 119 L 175.5 117 Z " /><path fill="rgb(18,26,39)" stroke="rgb(18,26,39)" stroke-width="1" opacity="1" d="M 87.5 121 L 89 124.5 L 85.5 127 L 85.5 126 L 88 124.5 L 87.5 121 Z " /><path fill="rgb(18,26,39)" stroke="rgb(18,26,39)" stroke-width="1" opacity="1" d="M 162.5 122 L 162 123.5 L 160 128.5 L 160.5 130 Q 157.1 124.4 147 125.5 L 159.5 123 Q 161 125.5 162.5 122 Z " /><path fill="rgb(18,26,39)" stroke="rgb(18,26,39)" stroke-width="1" opacity="1" d="M 130.5 125 L 138 125.5 L 128.5 128 L 130.5 125 Z " /><path fill="rgb(18,26,39)" stroke="rgb(18,26,39)" stroke-width="1" opacity="1" d="M 63.5 126 L 66 126.5 L 63.5 127 L 63.5 126 Z " /><path fill="rgb(18,26,39)" stroke="rgb(18,26,39)" stroke-width="1" opacity="1" d="M 169.5 126 L 167.5 129 L 169.5 126 Z " /><path fill="rgb(18,26,39)" stroke="rgb(18,26,39)" stroke-width="1" opacity="1" d="M 39.5 127 L 45 127.5 L 39.5 128 L 39.5 127 Z " /><path fill="rgb(18,26,39)" stroke="rgb(18,26,39)" stroke-width="1" opacity="1" d="M 54.5 127 L 58 127.5 L 54.5 128 L 54.5 127 Z " /><path fill="rgb(18,26,39)" stroke="rgb(18,26,39)" stroke-width="1" opacity="1" d="M 175.5 127 L 179 128.5 L 177.5 129 L 175 128 L 171.5 134 L 172 132.5 L 175.5 127 Z " /><path fill="rgb(18,26,39)" stroke="rgb(18,26,39)" stroke-width="1" opacity="1" d="M 183.5 128 L 186 128.5 L 183.5 129 L 183.5 128 Z " /><path fill="rgb(18,26,39)" stroke="rgb(18,26,39)" stroke-width="1" opacity="1" d="M 111.5 129 L 110.5 131 L 111.5 129 Z " /><path fill="rgb(18,26,39)" stroke="rgb(18,26,39)" stroke-width="1" opacity="1" d="M 30.5 130 L 29.5 132 L 30.5 130 Z " /><path fill="rgb(18,26,39)" stroke="rgb(18,26,39)" stroke-width="1" opacity="1" d="M 194.5 131 L 199.5 137 L 194.5 131 Z " /><path fill="rgb(18,26,39)" stroke="rgb(18,26,39)" stroke-width="1" opacity="1" d="M 46.5 133 L 47 138.5 L 46 138.5 L 46.5 133 Z " /><path fill="rgb(18,26,39)" stroke="rgb(18,26,39)" stroke-width="1" opacity="1" d="M 56.5 133 L 63.5 141 L 56.5 133 Z " /><path fill="rgb(18,26,39)" stroke="rgb(18,26,39)" stroke-width="1" opacity="1" d="M 108.5 133 L 107.5 135 L 108.5 133 Z " /><path fill="rgb(18,26,39)" stroke="rgb(18,26,39)" stroke-width="1" opacity="1" d="M 125.5 134 L 128 134.5 L 125.5 135 L 125.5 134 Z " /><path fill="rgb(18,26,39)" stroke="rgb(18,26,39)" stroke-width="1" opacity="1" d="M 66.5 135 L 67.5 137 L 66.5 135 Z " /><path fill="rgb(18,26,39)" stroke="rgb(18,26,39)" stroke-width="1" opacity="1" d="M 163.5 135 L 162.5 137 L 163.5 135 Z " /><path fill="rgb(18,26,39)" stroke="rgb(18,26,39)" stroke-width="1" opacity="1" d="M 170.5 135 L 169.5 137 L 170.5 135 Z " /><path fill="rgb(18,26,39)" stroke="rgb(18,26,39)" stroke-width="1" opacity="1" d="M 34.5 136 L 36 136.5 L 34 137.5 L 35 139.5 L 34 139.5 Q 34.8 137.3 32.5 138 L 26.5 145 L 27 143.5 L 32.5 137 L 34.5 136 Z " /><path fill="rgb(18,26,39)" stroke="rgb(18,26,39)" stroke-width="1" opacity="1" d="M 161.5 138 L 160.5 140 L 161.5 138 Z " /><path fill="rgb(18,26,39)" stroke="rgb(18,26,39)" stroke-width="1" opacity="1" d="M 168.5 138 L 167 140.5 L 157.5 155 L 159 152.5 L 168.5 138 Z " /><path fill="rgb(18,26,39)" stroke="rgb(18,26,39)" stroke-width="1" opacity="1" d="M 143.5 139 L 142.5 141 L 143.5 139 Z " /><path fill="rgb(18,26,39)" stroke="rgb(18,26,39)" stroke-width="1" opacity="1" d="M 159.5 141 L 158.5 143 L 159.5 141 Z " /><path fill="rgb(18,26,39)" stroke="rgb(18,26,39)" stroke-width="1" opacity="1" d="M 150.5 142 L 147.5 146 L 150.5 142 Z " /><path fill="rgb(18,26,39)" stroke="rgb(18,26,39)" stroke-width="1" opacity="1" d="M 80.5 144 L 81.5 146 L 80.5 144 Z " /><path fill="rgb(18,26,39)" stroke="rgb(18,26,39)" stroke-width="1" opacity="1" d="M 157.5 144 L 156.5 146 L 157.5 144 Z " /><path fill="rgb(18,26,39)" stroke="rgb(18,26,39)" stroke-width="1" opacity="1" d="M 146.5 147 L 144.5 150 L 146.5 147 Z " /><path fill="rgb(18,26,39)" stroke="rgb(18,26,39)" stroke-width="1" opacity="1" d="M 31.5 148 L 32 150.5 L 31 150.5 L 31.5 148 Z " /><path fill="rgb(18,26,39)" stroke="rgb(18,26,39)" stroke-width="1" opacity="1" d="M 154.5 148 L 153.5 150 L 154.5 148 Z " /><path fill="rgb(18,26,39)" stroke="rgb(18,26,39)" stroke-width="1" opacity="1" d="M 59.5 149 L 57.5 152 L 59.5 149 Z " /><path fill="rgb(18,26,39)" stroke="rgb(18,26,39)" stroke-width="1" opacity="1" d="M 81.5 149 L 79.5 152 L 81.5 149 Z " /><path fill="rgb(18,26,39)" stroke="rgb(18,26,39)" stroke-width="1" opacity="1" d="M 135.5 149 L 133.5 152 L 135.5 149 Z " /><path fill="rgb(18,26,39)" stroke="rgb(18,26,39)" stroke-width="1" opacity="1" d="M 143.5 151 L 142.5 155 L 140 154.5 L 141 152 L 143.5 151 Z " /><path fill="rgb(18,26,39)" stroke="rgb(18,26,39)" stroke-width="1" opacity="1" d="M 152.5 151 L 151.5 153 L 152.5 151 Z " /><path fill="rgb(18,26,39)" stroke="rgb(18,26,39)" stroke-width="1" opacity="1" d="M 77.5 152 L 75.5 155 L 77.5 152 Z " /><path fill="rgb(18,26,39)" stroke="rgb(18,26,39)" stroke-width="1" opacity="1" d="M 30.5 153 L 31 158.5 L 30 158.5 L 30.5 153 Z " /><path fill="rgb(18,26,39)" stroke="rgb(18,26,39)" stroke-width="1" opacity="1" d="M 85.5 154 L 84.5 156 L 85.5 154 Z " /><path fill="rgb(18,26,39)" stroke="rgb(18,26,39)" stroke-width="1" opacity="1" d="M 129.5 154 L 125.5 160 L 129 160.5 L 124 161 Q 122.5 157.2 125.5 158 L 129.5 154 Z " /><path fill="rgb(18,26,39)" stroke="rgb(18,26,39)" stroke-width="1" opacity="1" d="M 150.5 154 L 149.5 156 L 148 155.5 L 150.5 154 Z " /><path fill="rgb(18,26,39)" stroke="rgb(18,26,39)" stroke-width="1" opacity="1" d="M 73.5 155 L 71.5 158 L 66.5 161 L 63 156.5 L 64 156.5 L 65.5 159 L 73.5 155 Z " /><path fill="rgb(18,26,39)" stroke="rgb(18,26,39)" stroke-width="1" opacity="1" d="M 36.5 156 L 37 160.5 L 36 160.5 L 36.5 156 Z " /><path fill="rgb(18,26,39)" stroke="rgb(18,26,39)" stroke-width="1" opacity="1" d="M 112.5 158 L 114 161.5 L 113 161.5 L 112.5 158 Z " /><path fill="rgb(18,26,39)" stroke="rgb(18,26,39)" stroke-width="1" opacity="1" d="M 162.5 158 L 167 161.5 L 164.5 160 L 162.5 158 Z " /><path fill="rgb(18,26,39)" stroke="rgb(18,26,39)" stroke-width="1" opacity="1" d="M 58.5 160 L 59.5 162 L 58.5 160 Z " /><path fill="rgb(18,26,39)" stroke="rgb(18,26,39)" stroke-width="1" opacity="1" d="M 8.5 161 L 6.5 164 L 8.5 161 Z " /><path fill="rgb(18,26,39)" stroke="rgb(18,26,39)" stroke-width="1" opacity="1" d="M 138.5 161 L 145 161.5 L 138.5 162 L 138.5 161 Z " /><path fill="rgb(18,26,39)" stroke="rgb(18,26,39)" stroke-width="1" opacity="1" d="M 149.5 162 L 152 162.5 L 149.5 163 L 149.5 162 Z " /><path fill="rgb(18,26,39)" stroke="rgb(18,26,39)" stroke-width="1" opacity="1" d="M 154.5 163 Q 156.8 162.3 156 164.5 L 154 165.5 L 154.5 163 Z " /><path fill="rgb(18,26,39)" stroke="rgb(18,26,39)" stroke-width="1" opacity="1" d="M 47.5 164 L 49 167.5 L 48 167.5 L 47.5 164 Z " /><path fill="rgb(18,26,39)" stroke="rgb(18,26,39)" stroke-width="1" opacity="1" d="M 169.5 164 L 170 166 L 168 165.5 L 169.5 164 Z " /><path fill="rgb(18,26,39)" stroke="rgb(18,26,39)" stroke-width="1" opacity="1" d="M 70.5 166 L 68.5 169 L 70.5 166 Z " /><path fill="rgb(18,26,39)" stroke="rgb(18,26,39)" stroke-width="1" opacity="1" d="M 152.5 166 L 151.5 168 L 152.5 166 Z " /><path fill="rgb(18,26,39)" stroke="rgb(18,26,39)" stroke-width="1" opacity="1" d="M 162.5 167 L 161.5 169 L 162.5 167 Z " /><path fill="rgb(18,26,39)" stroke="rgb(18,26,39)" stroke-width="1" opacity="1" d="M 149.5 168 L 148.5 170 L 149.5 168 Z " /><path fill="rgb(18,26,39)" stroke="rgb(18,26,39)" stroke-width="1" opacity="1" d="M 36.5 169 L 37 173.5 L 36 173.5 L 36.5 169 Z " /><path fill="rgb(18,26,39)" stroke="rgb(18,26,39)" stroke-width="1" opacity="1" d="M 49.5 169 L 51 171.5 L 49 170.5 L 49.5 169 Z " /><path fill="rgb(18,26,39)" stroke="rgb(18,26,39)" stroke-width="1" opacity="1" d="M 159.5 169 L 158.5 171 L 159.5 169 Z " /><path fill="rgb(18,26,39)" stroke="rgb(18,26,39)" stroke-width="1" opacity="1" d="M 30.5 170 L 31 175.5 L 30 175.5 L 30.5 170 Z " /><path fill="rgb(18,26,39)" stroke="rgb(18,26,39)" stroke-width="1" opacity="1" d="M 65.5 170 L 64.5 172 L 65.5 170 Z " /><path fill="rgb(18,26,39)" stroke="rgb(18,26,39)" stroke-width="1" opacity="1" d="M 156.5 171 L 154.5 174 L 149.5 177 L 150.5 175 L 156.5 171 Z " /><path fill="rgb(18,26,39)" stroke="rgb(18,26,39)" stroke-width="1" opacity="1" d="M 50.5 173 L 47.5 177 L 38 182 L 37 177.5 L 38 177.5 Q 36.8 181.3 40.5 180 L 50.5 173 Z " /><path fill="rgb(18,26,39)" stroke="rgb(18,26,39)" stroke-width="1" opacity="1" d="M 61.5 173 L 60.5 175 L 61.5 173 Z " /><path fill="rgb(18,26,39)" stroke="rgb(18,26,39)" stroke-width="1" opacity="1" d="M 120.5 178 L 123 179.5 L 120 180 L 120.5 178 Z " /><path fill="rgb(18,26,39)" stroke="rgb(18,26,39)" stroke-width="1" opacity="1" d="M 31.5 179 L 32 181.5 L 31 181.5 L 31.5 179 Z " /><path fill="rgb(18,26,39)" stroke="rgb(18,26,39)" stroke-width="1" opacity="1" d="M 116.5 180 L 119 180.5 L 115.5 182 L 116.5 180 Z " /><path fill="rgb(18,26,39)" stroke="rgb(18,26,39)" stroke-width="1" opacity="1" d="M 20 182 Q 23 181 22 184 Q 19 185 20 182 Z " /><path fill="rgb(18,26,39)" stroke="rgb(18,26,39)" stroke-width="1" opacity="1" d="M 133 183 L 135 183.5 Q 132.8 184.8 135.5 186 L 137 186.5 L 135.5 187 L 133 183 Z " /><path fill="rgb(18,26,39)" stroke="rgb(18,26,39)" stroke-width="1" opacity="1" d="M 81 186 Q 84.8 185 86 187.5 L 82 188.5 L 83 190.5 L 82 190.5 Q 82.8 188.3 80.5 189 L 81 187.5 L 81 186 Z " /><path fill="rgb(18,26,39)" stroke="rgb(18,26,39)" stroke-width="1" opacity="1" d="M 124.5 186 L 125.5 188 L 124.5 186 Z " /><path fill="rgb(18,26,39)" stroke="rgb(18,26,39)" stroke-width="1" opacity="1" d="M 127.5 188 L 128.5 190 L 127.5 188 Z " /><path fill="rgb(18,26,39)" stroke="rgb(18,26,39)" stroke-width="1" opacity="1" d="M 139.5 189 L 142.5 193 L 139.5 189 Z " /><path fill="rgb(18,26,39)" stroke="rgb(18,26,39)" stroke-width="1" opacity="1" d="M 193.5 190 L 192 192.5 L 186.5 199 L 191 193.5 L 193.5 190 Z " /><path fill="rgb(18,26,39)" stroke="rgb(18,26,39)" stroke-width="1" opacity="1" d="M 131.5 191 L 134.5 195 L 131.5 191 Z " /><path fill="rgb(18,26,39)" stroke="rgb(18,26,39)" stroke-width="1" opacity="1" d="M 144.5 195 L 148 199.5 L 146 198.5 L 144.5 195 Z " /><path fill="rgb(18,26,39)" stroke="rgb(18,26,39)" stroke-width="1" opacity="1" d="M 137.5 197 L 139.5 200 L 137.5 197 Z " /><path fill="rgb(24,68,71)" stroke="rgb(24,68,71)" stroke-width="1" opacity="1" d="M 151 35 L 153 35.5 L 146 48.5 L 146.5 50 Q 143.2 51.1 144 48.5 L 140 45.5 L 144 44 L 147.5 39 L 151 36.5 L 151 35 Z " /><path fill="rgb(24,68,71)" stroke="rgb(24,68,71)" stroke-width="1" opacity="1" d="M 74.5 42 L 73.5 44 L 74.5 42 Z " /><path fill="rgb(24,68,71)" stroke="rgb(24,68,71)" stroke-width="1" opacity="1" d="M 79.5 59 L 78.5 61 L 79.5 59 Z " /><path fill="rgb(24,68,71)" stroke="rgb(24,68,71)" stroke-width="1" opacity="1" d="M 156.5 61 L 178 94.5 L 176.5 94 L 162.5 84 L 158 83 Q 157.7 76.5 154 72.5 L 155.5 73 L 160 74 L 156.5 61 Z " /><path fill="rgb(24,68,71)" stroke="rgb(24,68,71)" stroke-width="1" opacity="1" d="M 126 82 L 128.5 83 L 137.5 83 L 154.5 86 L 165 95.5 L 163.5 95 L 145.5 85 L 141.5 85 L 137 88.5 L 134.5 92 L 126 83.5 L 126 82 Z " /><path fill="rgb(24,68,71)" stroke="rgb(24,68,71)" stroke-width="1" opacity="1" d="M 88.5 89 L 87.5 91 L 86 90.5 L 88.5 89 Z " /><path fill="rgb(24,68,71)" stroke="rgb(24,68,71)" stroke-width="1" opacity="1" d="M 93.5 94 L 92.5 96 L 93.5 94 Z " /><path fill="rgb(24,68,71)" stroke="rgb(24,68,71)" stroke-width="1" opacity="1" d="M 176.5 128 L 179.5 130 L 190.5 130 L 196 133.5 L 198 139.5 L 198 145.5 L 192 158 L 184.5 162 L 177.5 162 L 174 159.5 L 173 152.5 L 176 148 L 163 147.5 L 176.5 128 Z " /><path fill="rgb(24,68,71)" stroke="rgb(24,68,71)" stroke-width="1" opacity="1" d="M 123.5 137 L 125 139.5 L 124 139.5 L 123.5 137 Z " /><path fill="rgb(24,68,71)" stroke="rgb(24,68,71)" stroke-width="1" opacity="1" d="M 32.5 138 Q 34.8 137.3 34 139.5 L 30 152.5 L 30 176.5 L 31 183 L 25 182 L 20.5 174 Q 16.8 173.3 16 175.5 L 15.5 178 L 13.5 174 Q 10.9 174.7 12 172 L 8.5 172 L 6 171.5 L 12 159.5 L 11.5 158 Q 12.8 160.3 14 157.5 L 24.5 145 L 25.5 146 L 29 142.5 L 32.5 138 Z " /><path fill="rgb(24,68,71)" stroke="rgb(24,68,71)" stroke-width="1" opacity="1" d="M 114.5 155 L 116 155.5 L 112.5 157 L 112.5 156 L 114.5 155 Z " /><path fill="rgb(24,68,71)" stroke="rgb(24,68,71)" stroke-width="1" opacity="1" d="M 103.5 161 L 105.5 165 L 109 165.5 L 105.5 166 Q 101.8 164.8 103.5 161 Z " /><path fill="rgb(24,68,71)" stroke="rgb(24,68,71)" stroke-width="1" opacity="1" d="M 126.5 161 Q 130.3 160.3 131 162.5 L 130.5 164 L 130 162 Q 125.6 163 126.5 161 Z " /><path fill="rgb(24,68,71)" stroke="rgb(24,68,71)" stroke-width="1" opacity="1" d="M 119.5 162 L 123 162.5 L 119.5 163 L 119.5 162 Z " /><path fill="rgb(24,68,71)" stroke="rgb(24,68,71)" stroke-width="1" opacity="1" d="M 114.5 163 L 117 163.5 L 114.5 164 L 114.5 163 Z " /><path fill="rgb(24,68,71)" stroke="rgb(24,68,71)" stroke-width="1" opacity="1" d="M 198 164 L 200 164.5 L 200 175 L 192 177.5 L 194 178 L 191 187.5 L 191.5 189 L 190 189.5 L 192.5 190 L 194 189.5 L 190.5 193 L 172.5 194 L 162.5 188 L 162 195 L 149.5 195 L 146.5 197 L 137 186.5 Q 146.9 176.4 160.5 170 Q 164.3 171.3 163 177.5 L 162 181 Q 165.6 183.2 174.5 182 L 187.5 179 Q 191.5 174.8 198 174 L 198 164 Z " /><path fill="rgb(24,68,71)" stroke="rgb(24,68,71)" stroke-width="1" opacity="1" d="M 73.5 165 L 73 166.5 L 72.5 172 L 70.5 172 L 66 171.5 L 73.5 165 Z " /><path fill="rgb(24,68,71)" stroke="rgb(24,68,71)" stroke-width="1" opacity="1" d="M 129.5 165 L 126.5 169 L 129.5 165 Z " /><path fill="rgb(24,68,71)" stroke="rgb(24,68,71)" stroke-width="1" opacity="1" d="M 90.5 166 L 94 166.5 L 90.5 167 L 90.5 166 Z " /><path fill="rgb(24,68,71)" stroke="rgb(24,68,71)" stroke-width="1" opacity="1" d="M 109.5 171 L 112 172.5 L 110.5 172 L 109.5 171 Z " /><path fill="rgb(24,68,71)" stroke="rgb(24,68,71)" stroke-width="1" opacity="1" d="M 117.5 172 L 120 172.5 L 113.5 174 L 113.5 173 L 117.5 172 Z " /><path fill="rgb(24,68,71)" stroke="rgb(24,68,71)" stroke-width="1" opacity="1" d="M 66 173 L 71.5 173 L 72 174.5 L 67.5 182 L 63.5 185 L 63 182 L 66 182 L 66 173 Z " /><path fill="rgb(24,68,71)" stroke="rgb(24,68,71)" stroke-width="1" opacity="1" d="M 88.5 173 L 93 173.5 L 88.5 174 L 88.5 173 Z " /><path fill="rgb(24,68,71)" stroke="rgb(24,68,71)" stroke-width="1" opacity="1" d="M 64.5 174 L 65 180.5 L 64 180.5 L 64.5 174 Z " /><path fill="rgb(24,68,71)" stroke="rgb(24,68,71)" stroke-width="1" opacity="1" d="M 198 176 Q 200.7 174.9 200 177.5 L 198.5 180 L 198 176 Z " /><path fill="rgb(24,68,71)" stroke="rgb(24,68,71)" stroke-width="1" opacity="1" d="M 109.5 179 L 114 181.5 L 112.5 181 Q 108.8 180.7 109.5 179 Z " /><path fill="rgb(24,68,71)" stroke="rgb(24,68,71)" stroke-width="1" opacity="1" d="M 77.5 180 L 76.5 182 L 77.5 180 Z " /><path fill="rgb(24,68,71)" stroke="rgb(24,68,71)" stroke-width="1" opacity="1" d="M 82.5 181 L 84.5 184 L 89 187.5 L 86.5 186 L 82 182.5 L 82.5 181 Z " /><path fill="rgb(24,68,71)" stroke="rgb(24,68,71)" stroke-width="1" opacity="1" d="M 197.5 181 L 198 182.5 L 194.5 188 L 194 186.5 L 197.5 181 Z " /><path fill="rgb(24,68,71)" stroke="rgb(24,68,71)" stroke-width="1" opacity="1" d="M 22.5 187 L 24 190 L 27.5 189 L 28 191.5 L 29 196.5 L 28 196.5 Q 29.4 191.9 23.5 194 Q 22.3 197 18 196 L 17.5 194 L 14.5 195 L 14.5 194 L 16.5 194 L 23 188.5 L 22.5 187 Z " /><path fill="rgb(24,68,71)" stroke="rgb(24,68,71)" stroke-width="1" opacity="1" d="M 79.5 189 L 80.5 191 L 79.5 189 Z " /><path fill="rgb(24,68,71)" stroke="rgb(24,68,71)" stroke-width="1" opacity="1" d="M 55.5 195 L 55 196.5 L 54.5 199 L 54 196.5 L 55.5 195 Z " /><path fill="rgb(24,68,71)" stroke="rgb(24,68,71)" stroke-width="1" opacity="1" d="M 60.5 195 L 64.5 200 L 60.5 195 Z " /><path fill="rgb(24,68,71)" stroke="rgb(24,68,71)" stroke-width="1" opacity="1" d="M 84.5 196 L 85.5 198 L 84.5 196 Z " /><path fill="rgb(24,68,71)" stroke="rgb(24,68,71)" stroke-width="1" opacity="1" d="M 185.5 196 L 186 199 L 182.5 200 L 185.5 196 Z " /><path fill="rgb(108,105,92)" stroke="rgb(108,105,92)" stroke-width="1" opacity="1" d="M 51.5 82 L 60 86 Q 61 89 58 88 Q 59.2 84.3 54 86 Q 52.5 89.8 55.5 89 L 58 90 L 58 92 L 67.5 92 L 68 93.5 Q 73.3 97.8 75 105 L 69 104 L 67.5 107 L 68 105.5 L 64 97 L 56.5 91 L 47 86.5 L 51.5 82 Z " /><path fill="rgb(108,105,92)" stroke="rgb(108,105,92)" stroke-width="1" opacity="1" d="M 115.5 84 L 116.5 86 L 115.5 84 Z " /><path fill="rgb(108,105,92)" stroke="rgb(108,105,92)" stroke-width="1" opacity="1" d="M 118.5 86 L 119.5 88 L 118.5 86 Z " /><path fill="rgb(108,105,92)" stroke="rgb(108,105,92)" stroke-width="1" opacity="1" d="M 62.5 88 L 64.5 91 L 62.5 88 Z " /><path fill="rgb(108,105,92)" stroke="rgb(108,105,92)" stroke-width="1" opacity="1" d="M 122.5 89 L 123.5 91 L 122.5 89 Z " /><path fill="rgb(108,105,92)" stroke="rgb(108,105,92)" stroke-width="1" opacity="1" d="M 36.5 92 L 34.5 95 L 36.5 92 Z " /><path fill="rgb(108,105,92)" stroke="rgb(108,105,92)" stroke-width="1" opacity="1" d="M 142.5 93 L 141.5 95 L 142.5 93 Z " /><path fill="rgb(108,105,92)" stroke="rgb(108,105,92)" stroke-width="1" opacity="1" d="M 148.5 94 L 149.5 96 L 148.5 94 Z " /><path fill="rgb(108,105,92)" stroke="rgb(108,105,92)" stroke-width="1" opacity="1" d="M 140.5 96 L 139.5 98 L 140.5 96 Z " /><path fill="rgb(108,105,92)" stroke="rgb(108,105,92)" stroke-width="1" opacity="1" d="M 155.5 98 L 156.5 100 L 155.5 98 Z " /><path fill="rgb(108,105,92)" stroke="rgb(108,105,92)" stroke-width="1" opacity="1" d="M 29.5 100 L 26.5 104 L 29.5 100 Z " /><path fill="rgb(108,105,92)" stroke="rgb(108,105,92)" stroke-width="1" opacity="1" d="M 56 100 Q 59.8 99 61 101.5 L 59.5 101 L 56 102.5 L 55.5 104 L 55 102.5 L 56 100 Z " /><path fill="rgb(108,105,92)" stroke="rgb(108,105,92)" stroke-width="1" opacity="1" d="M 143.5 102 L 143 103.5 L 141.5 106 L 142 104.5 L 143.5 102 Z " /><path fill="rgb(108,105,92)" stroke="rgb(108,105,92)" stroke-width="1" opacity="1" d="M 60.5 104 L 59.5 106 L 60.5 104 Z " /><path fill="rgb(108,105,92)" stroke="rgb(108,105,92)" stroke-width="1" opacity="1" d="M 134.5 105 L 133.5 107 L 134.5 105 Z " /><path fill="rgb(108,105,92)" stroke="rgb(108,105,92)" stroke-width="1" opacity="1" d="M 46.5 106 L 50 107.5 L 48.5 107 Q 45.5 107.5 46.5 106 Z " /><path fill="rgb(108,105,92)" stroke="rgb(108,105,92)" stroke-width="1" opacity="1" d="M 44.5 107 L 46 111.5 L 44 110.5 L 44.5 107 Z " /><path fill="rgb(108,105,92)" stroke="rgb(108,105,92)" stroke-width="1" opacity="1" d="M 97.5 107 L 99.5 110 L 97.5 107 Z " /><path fill="rgb(108,105,92)" stroke="rgb(108,105,92)" stroke-width="1" opacity="1" d="M 62.5 108 L 64 108.5 L 61.5 110 L 62.5 108 Z " /><path fill="rgb(108,105,92)" stroke="rgb(108,105,92)" stroke-width="1" opacity="1" d="M 76.5 108 L 77 109.5 L 74.5 111 L 74.5 110 Q 77 110.7 76.5 108 Z " /><path fill="rgb(108,105,92)" stroke="rgb(108,105,92)" stroke-width="1" opacity="1" d="M 49.5 110 L 48.5 112 L 49.5 110 Z " /><path fill="rgb(108,105,92)" stroke="rgb(108,105,92)" stroke-width="1" opacity="1" d="M 58.5 110 L 60 110.5 L 57.5 112 L 58.5 110 Z " /><path fill="rgb(108,105,92)" stroke="rgb(108,105,92)" stroke-width="1" opacity="1" d="M 176.5 112 L 177 113.5 L 165 132 L 160 128.5 L 163.5 131 L 165 129.5 L 176.5 112 Z " /><path fill="rgb(108,105,92)" stroke="rgb(108,105,92)" stroke-width="1" opacity="1" d="M 33.5 113 L 35 117.5 L 33 116.5 L 33.5 113 Z " /><path fill="rgb(108,105,92)" stroke="rgb(108,105,92)" stroke-width="1" opacity="1" d="M 68.5 113 L 67.5 115 L 64.5 116 L 64.5 115 L 68.5 113 Z " /><path fill="rgb(108,105,92)" stroke="rgb(108,105,92)" stroke-width="1" opacity="1" d="M 62.5 116 L 61.5 118 L 60 117.5 L 62.5 116 Z " /><path fill="rgb(108,105,92)" stroke="rgb(108,105,92)" stroke-width="1" opacity="1" d="M 134.5 116 L 133.5 118 L 134.5 116 Z " /><path fill="rgb(108,105,92)" stroke="rgb(108,105,92)" stroke-width="1" opacity="1" d="M 167.5 117 L 166.5 119 L 167.5 117 Z " /><path fill="rgb(108,105,92)" stroke="rgb(108,105,92)" stroke-width="1" opacity="1" d="M 43.5 118 L 42.5 120 L 43.5 118 Z " /><path fill="rgb(108,105,92)" stroke="rgb(108,105,92)" stroke-width="1" opacity="1" d="M 56.5 119 L 56 120.5 L 56.5 122 L 64.5 122 Q 66 124.5 71.5 123 L 74 122 Q 75.3 125 71.5 124 L 56.5 127 L 44.5 127 L 45.5 125 L 56.5 119 Z " /><path fill="rgb(108,105,92)" stroke="rgb(108,105,92)" stroke-width="1" opacity="1" d="M 83.5 120 L 87 120.5 L 83.5 121 L 83.5 120 Z " /><path fill="rgb(108,105,92)" stroke="rgb(108,105,92)" stroke-width="1" opacity="1" d="M 165.5 120 L 164.5 122 L 165.5 120 Z " /><path fill="rgb(108,105,92)" stroke="rgb(108,105,92)" stroke-width="1" opacity="1" d="M 88.5 121 L 90 124.5 L 89 124.5 L 88.5 121 Z " /><path fill="rgb(108,105,92)" stroke="rgb(108,105,92)" stroke-width="1" opacity="1" d="M 76.5 122 L 79 122.5 L 76.5 123 L 76.5 122 Z " /><path fill="rgb(108,105,92)" stroke="rgb(108,105,92)" stroke-width="1" opacity="1" d="M 130.5 122 L 129.5 124 L 130.5 122 Z " /><path fill="rgb(108,105,92)" stroke="rgb(108,105,92)" stroke-width="1" opacity="1" d="M 139.5 123 L 138.5 125 L 139.5 123 Z " /><path fill="rgb(108,105,92)" stroke="rgb(108,105,92)" stroke-width="1" opacity="1" d="M 127.5 126 L 126.5 128 L 127.5 126 Z " /><path fill="rgb(108,105,92)" stroke="rgb(108,105,92)" stroke-width="1" opacity="1" d="M 111.5 128 L 110.5 130 L 111.5 128 Z " /><path fill="rgb(108,105,92)" stroke="rgb(108,105,92)" stroke-width="1" opacity="1" d="M 118.5 129 L 121 129.5 L 118.5 130 L 118.5 129 Z " /><path fill="rgb(108,105,92)" stroke="rgb(108,105,92)" stroke-width="1" opacity="1" d="M 66.5 132 L 68 132.5 L 65.5 134 L 66.5 132 Z " /><path fill="rgb(108,105,92)" stroke="rgb(108,105,92)" stroke-width="1" opacity="1" d="M 161.5 134 L 163 134.5 L 156 143.5 L 156 146 Q 153.3 144.9 154 147.5 L 148.5 155 Q 144.8 155.8 144 153.5 Q 149.2 143.2 157.5 136 L 161.5 134 Z " /><path fill="rgb(108,105,92)" stroke="rgb(108,105,92)" stroke-width="1" opacity="1" d="M 67.5 135 L 68.5 137 L 67.5 135 Z " /><path fill="rgb(108,105,92)" stroke="rgb(108,105,92)" stroke-width="1" opacity="1" d="M 47.5 136 L 48 138.5 L 47 138.5 L 47.5 136 Z " /><path fill="rgb(108,105,92)" stroke="rgb(108,105,92)" stroke-width="1" opacity="1" d="M 62.5 140 L 64.5 143 L 62.5 140 Z " /><path fill="rgb(108,105,92)" stroke="rgb(108,105,92)" stroke-width="1" opacity="1" d="M 62.5 145 L 60.5 148 L 62.5 145 Z " /><path fill="rgb(108,105,92)" stroke="rgb(108,105,92)" stroke-width="1" opacity="1" d="M 58.5 149 L 57.5 151 L 58.5 149 Z " /><path fill="rgb(108,105,92)" stroke="rgb(108,105,92)" stroke-width="1" opacity="1" d="M 55.5 152 L 56 156.5 L 55 156.5 L 55.5 152 Z " /><path fill="rgb(161,161,154)" stroke="rgb(161,161,154)" stroke-width="1" opacity="1" d="M 97.5 68 L 109 68.5 Q 107.8 71.3 106.5 69 L 97.5 69 L 97.5 68 Z " /><path fill="rgb(161,161,154)" stroke="rgb(161,161,154)" stroke-width="1" opacity="1" d="M 56.5 69 L 55.5 71 L 56.5 69 Z " /><path fill="rgb(161,161,154)" stroke="rgb(161,161,154)" stroke-width="1" opacity="1" d="M 87.5 69 L 90 69.5 L 87.5 70 L 87.5 69 Z " /><path fill="rgb(161,161,154)" stroke="rgb(161,161,154)" stroke-width="1" opacity="1" d="M 101.5 74 L 101 75.5 L 100.5 77 L 100 75.5 L 101.5 74 Z " /><path fill="rgb(161,161,154)" stroke="rgb(161,161,154)" stroke-width="1" opacity="1" d="M 51.5 79 L 53.5 83 L 55 83.5 L 53.5 84 Q 49.8 82.8 51.5 79 Z " /><path fill="rgb(161,161,154)" stroke="rgb(161,161,154)" stroke-width="1" opacity="1" d="M 82.5 80 L 86.5 85 L 82.5 80 Z " /><path fill="rgb(161,161,154)" stroke="rgb(161,161,154)" stroke-width="1" opacity="1" d="M 114.5 81 L 115 83.5 L 114 83.5 L 114.5 81 Z " /><path fill="rgb(161,161,154)" stroke="rgb(161,161,154)" stroke-width="1" opacity="1" d="M 42.5 86 L 45 86.5 L 43 90 L 39 92.5 L 31 102.5 L 32.5 103 L 44.5 94 L 51.5 94 L 57 92.5 L 53 90.5 L 54.5 90 L 64 97 L 68 105.5 L 43.5 118 L 36.5 123 L 32.5 124 L 29 127.5 L 26.5 131 L 21 111.5 L 42.5 86 Z M 56 100 L 55 103 L 56 105 Q 55 108 60 106 Q 62 105 61 102 Q 60 99 56 100 Z M 47 106 L 46 107 Q 43 106 44 111 Q 45 113 49 112 Q 51 111 50 108 L 47 106 Z M 36 112 L 33 113 Q 32 117 35 118 L 39 118 L 39 113 L 36 112 Z " /><path fill="rgb(161,161,154)" stroke="rgb(161,161,154)" stroke-width="1" opacity="1" d="M 60.5 86 L 67 91.5 L 62.5 88 L 60.5 86 Z " /><path fill="rgb(161,161,154)" stroke="rgb(161,161,154)" stroke-width="1" opacity="1" d="M 117.5 86 L 125 91 Q 123.9 93.7 126.5 93 L 131 98.5 L 127.5 104 L 125 96.5 L 117.5 86 Z " /><path fill="rgb(161,161,154)" stroke="rgb(161,161,154)" stroke-width="1" opacity="1" d="M 97.5 89 L 96.5 91 L 97.5 89 Z " /><path fill="rgb(161,161,154)" stroke="rgb(161,161,154)" stroke-width="1" opacity="1" d="M 95.5 92 L 95 93.5 L 94.5 96 L 94 93.5 L 95.5 92 Z " /><path fill="rgb(161,161,154)" stroke="rgb(161,161,154)" stroke-width="1" opacity="1" d="M 68.5 93 L 70.5 96 L 68.5 93 Z " /><path fill="rgb(161,161,154)" stroke="rgb(161,161,154)" stroke-width="1" opacity="1" d="M 143.5 93 L 141.5 96 L 143.5 93 Z " /><path fill="rgb(161,161,154)" stroke="rgb(161,161,154)" stroke-width="1" opacity="1" d="M 147.5 94 L 148.5 96 L 147.5 94 Z " /><path fill="rgb(161,161,154)" stroke="rgb(161,161,154)" stroke-width="1" opacity="1" d="M 71.5 97 L 75 102.5 L 73 101.5 L 71.5 97 Z " /><path fill="rgb(161,161,154)" stroke="rgb(161,161,154)" stroke-width="1" opacity="1" d="M 140.5 97 L 138.5 100 L 140.5 97 Z " /><path fill="rgb(161,161,154)" stroke="rgb(161,161,154)" stroke-width="1" opacity="1" d="M 152.5 97 L 156 99.5 L 154.5 99 L 152.5 97 Z " /><path fill="rgb(161,161,154)" stroke="rgb(161,161,154)" stroke-width="1" opacity="1" d="M 144 99 L 148 100.5 L 146.5 100 L 143.5 102 L 144 100.5 L 144 99 Z " /><path fill="rgb(161,161,154)" stroke="rgb(161,161,154)" stroke-width="1" opacity="1" d="M 92.5 102 L 96.5 107 L 92.5 102 Z " /><path fill="rgb(161,161,154)" stroke="rgb(161,161,154)" stroke-width="1" opacity="1" d="M 151.5 102 L 152.5 104 L 151.5 102 Z " /><path fill="rgb(161,161,154)" stroke="rgb(161,161,154)" stroke-width="1" opacity="1" d="M 136.5 103 L 135.5 105 L 136.5 103 Z " /><path fill="rgb(161,161,154)" stroke="rgb(161,161,154)" stroke-width="1" opacity="1" d="M 163.5 103 L 167 105.5 L 165.5 105 L 163.5 103 Z " /><path fill="rgb(161,161,154)" stroke="rgb(161,161,154)" stroke-width="1" opacity="1" d="M 141.5 104 L 141 105.5 L 137.5 111 L 139 108.5 L 141.5 104 Z " /><path fill="rgb(161,161,154)" stroke="rgb(161,161,154)" stroke-width="1" opacity="1" d="M 126.5 105 L 125.5 107 L 126.5 105 Z " /><path fill="rgb(161,161,154)" stroke="rgb(161,161,154)" stroke-width="1" opacity="1" d="M 133.5 107 L 132.5 109 L 133.5 107 Z " /><path fill="rgb(161,161,154)" stroke="rgb(161,161,154)" stroke-width="1" opacity="1" d="M 124.5 108 L 123.5 110 L 124.5 108 Z " /><path fill="rgb(161,161,154)" stroke="rgb(161,161,154)" stroke-width="1" opacity="1" d="M 172.5 108 L 177 111.5 L 174.5 110 L 172.5 108 Z " /><path fill="rgb(161,161,154)" stroke="rgb(161,161,154)" stroke-width="1" opacity="1" d="M 77.5 109 L 85 119.5 L 80.5 122 L 74.5 123 L 72.5 122 Q 71 124.5 65.5 123 L 64.5 122 L 56 122 L 57.5 119 L 77.5 109 Z " /><path fill="rgb(161,161,154)" stroke="rgb(161,161,154)" stroke-width="1" opacity="1" d="M 163.5 109 L 164.5 111 L 163.5 109 Z " /><path fill="rgb(161,161,154)" stroke="rgb(161,161,154)" stroke-width="1" opacity="1" d="M 131.5 110 L 130.5 112 L 131.5 110 Z " /><path fill="rgb(161,161,154)" stroke="rgb(161,161,154)" stroke-width="1" opacity="1" d="M 122.5 111 L 121.5 113 L 122.5 111 Z " /><path fill="rgb(161,161,154)" stroke="rgb(161,161,154)" stroke-width="1" opacity="1" d="M 136.5 112 L 136 113.5 L 133.5 117 L 135 114.5 L 136.5 112 Z " /><path fill="rgb(161,161,154)" stroke="rgb(161,161,154)" stroke-width="1" opacity="1" d="M 168.5 112 L 170 115.5 L 168 116.5 L 169 113.5 L 168.5 112 Z " /><path fill="rgb(161,161,154)" stroke="rgb(161,161,154)" stroke-width="1" opacity="1" d="M 129.5 113 L 128.5 115 L 129.5 113 Z " /><path fill="rgb(161,161,154)" stroke="rgb(161,161,154)" stroke-width="1" opacity="1" d="M 175.5 113 L 174.5 115 L 175.5 113 Z " /><path fill="rgb(161,161,154)" stroke="rgb(161,161,154)" stroke-width="1" opacity="1" d="M 120.5 114 L 119.5 116 L 120.5 114 Z " /><path fill="rgb(161,161,154)" stroke="rgb(161,161,154)" stroke-width="1" opacity="1" d="M 127.5 116 L 126.5 118 L 127.5 116 Z " /><path fill="rgb(161,161,154)" stroke="rgb(161,161,154)" stroke-width="1" opacity="1" d="M 173.5 116 L 172 118.5 L 169.5 122 L 171 119.5 L 173.5 116 Z " /><path fill="rgb(161,161,154)" stroke="rgb(161,161,154)" stroke-width="1" opacity="1" d="M 118.5 117 L 117.5 119 L 118.5 117 Z " /><path fill="rgb(161,161,154)" stroke="rgb(161,161,154)" stroke-width="1" opacity="1" d="M 167.5 118 L 167 119.5 L 161.5 128 L 162 126.5 L 167.5 118 Z " /><path fill="rgb(161,161,154)" stroke="rgb(161,161,154)" stroke-width="1" opacity="1" d="M 125.5 119 L 124.5 121 L 125.5 119 Z " /><path fill="rgb(161,161,154)" stroke="rgb(161,161,154)" stroke-width="1" opacity="1" d="M 116.5 120 L 115.5 122 L 116.5 120 Z " /><path fill="rgb(161,161,154)" stroke="rgb(161,161,154)" stroke-width="1" opacity="1" d="M 130.5 121 L 129 123.5 L 125.5 128 L 125 126 L 128 124.5 L 130.5 121 Z " /><path fill="rgb(161,161,154)" stroke="rgb(161,161,154)" stroke-width="1" opacity="1" d="M 143.5 121 L 142.5 123 L 143.5 121 Z " /><path fill="rgb(161,161,154)" stroke="rgb(161,161,154)" stroke-width="1" opacity="1" d="M 123.5 122 L 123 123.5 L 121.5 126 L 122 124.5 L 123.5 122 Z " /><path fill="rgb(161,161,154)" stroke="rgb(161,161,154)" stroke-width="1" opacity="1" d="M 149.5 122 L 150 124.5 L 149 124.5 L 149.5 122 Z " /><path fill="rgb(161,161,154)" stroke="rgb(161,161,154)" stroke-width="1" opacity="1" d="M 114.5 123 L 113.5 125 L 114.5 123 Z " /><path fill="rgb(161,161,154)" stroke="rgb(161,161,154)" stroke-width="1" opacity="1" d="M 140.5 123 L 139.5 125 L 140.5 123 Z " /><path fill="rgb(161,161,154)" stroke="rgb(161,161,154)" stroke-width="1" opacity="1" d="M 168.5 123 L 167.5 125 L 168.5 123 Z " /><path fill="rgb(161,161,154)" stroke="rgb(161,161,154)" stroke-width="1" opacity="1" d="M 90.5 124 L 90 125.5 L 86 134 L 82 136.5 L 83.5 139 Q 81.5 136 75.5 137 L 71.5 139 L 66 135 Q 64.9 132.3 67.5 133 L 86.5 128 L 90.5 124 Z " /><path fill="rgb(161,161,154)" stroke="rgb(161,161,154)" stroke-width="1" opacity="1" d="M 112.5 126 L 111.5 128 L 112.5 126 Z " /><path fill="rgb(161,161,154)" stroke="rgb(161,161,154)" stroke-width="1" opacity="1" d="M 166.5 126 L 165 128.5 L 163.5 131 L 162.5 129 L 164 129.5 L 166.5 126 Z " /><path fill="rgb(161,161,154)" stroke="rgb(161,161,154)" stroke-width="1" opacity="1" d="M 108.5 132 L 106.5 135 L 108.5 132 Z " /><path fill="rgb(161,161,154)" stroke="rgb(161,161,154)" stroke-width="1" opacity="1" d="M 47 134 L 55.5 134 L 65 143.5 L 55 152.5 L 55 156.5 L 59 162.5 L 59 165.5 L 56 167 L 50 150.5 L 47 134 Z " /><path fill="rgb(161,161,154)" stroke="rgb(161,161,154)" stroke-width="1" opacity="1" d="M 85.5 139 L 86.5 141 L 85.5 139 Z " /><path fill="rgb(0,0,0)" stroke="rgb(0,0,0)" stroke-width="1" opacity="1" d="M 82 16 Q 85 14.8 84 18.5 L 86 21.5 L 86 26.5 L 88 33.5 L 88 43.5 L 87 46.5 L 88.5 46 L 97.5 42 L 130.5 34 L 144 28 Q 141.8 33.6 147.5 32 L 147.5 33 L 137.5 38 L 98.5 47 L 84.5 54 L 82 53.5 L 83 50.5 L 82 49.5 L 82 33.5 L 81 32.5 L 81.5 31 L 79 31.5 Q 81.5 33 78 34.5 Q 78.7 37.1 76 36 L 76 38.5 L 69 50 Q 64.5 48.3 66 53.5 L 53 74 L 48 74 L 48 80 Q 50.7 78.9 50 81.5 L 46.5 86 L 43.5 84 L 24 104.5 L 20 110.5 L 20 113.5 Q 24.2 122.1 24 134 L 30 134 L 30 131.5 Q 33.3 125.8 44.5 128 L 49.5 129 L 50.5 128 L 68.5 127 L 83.5 122 L 88 122 L 86.5 126 L 71.5 131 L 63 132 Q 61.9 134.7 64.5 134 L 70 141 L 76.5 138 L 79.5 138 L 86.5 142 L 91.5 142 L 106.5 136 L 109 133.5 L 112 128 Q 115 129.3 114 125.5 L 120.5 116 L 126 116.5 L 117.5 129 Q 114.9 128.3 116 131 L 143.5 125 L 144.5 126 L 152.5 126 L 162 130 Q 163.5 133.8 160.5 133 L 156 134 L 154.5 137 L 151 139.5 L 149.5 142 Q 147.3 141.3 148 143.5 L 144 150 L 141 151.5 Q 141.7 154.1 139 153 L 139 156 L 150.5 156 L 151 154.5 L 160 140 Q 162.7 141.1 162 138.5 L 178 114.5 L 178 110.5 L 150.5 95 L 147.5 92 L 143.5 92 L 141 93 L 137.5 99 Q 135.3 98.3 136 100.5 L 133.5 106 L 133 104 L 129 104 L 129 102.5 L 138.5 89 Q 141.1 89.7 140 87 L 142.5 87 L 144.5 87 L 150.5 89 L 170.5 101 L 173.5 101 L 182 98.5 L 180 98 L 180 92 Q 176.3 93.5 177 90.5 L 170 80.5 L 170 77 Q 167.3 78.1 168 75.5 L 163 68.5 L 168.5 67 L 181 88.5 L 195 108 L 198 109.5 L 196.5 110 L 189.5 106 L 183 106 L 185 112.5 L 179 121.5 L 180.5 123 L 193.5 124 L 199 127.5 L 200 134 L 194.5 130 L 192 130 L 191.5 128 L 178.5 128 L 175.5 127 Q 171.4 129.3 171 134 Q 166.5 132.3 168 137.5 L 161.5 147 Q 159.3 146.3 160 148.5 L 156 158 L 162.5 159 L 164 160.5 Q 163.3 162.8 165.5 162 L 169 164.5 Q 160.5 165.8 156 170 Q 157.1 172.7 154.5 172 Q 145 180 131 183.5 L 136 187 Q 134.9 189.7 137.5 189 L 147 199.5 L 140 200 L 133.5 192 L 127.5 187 L 120 184 Q 118.5 180.3 121.5 181 Q 143.9 176.4 158 163.5 L 148.5 161 L 126 160 Q 124.9 157.3 127.5 158 L 134 153 L 138.5 147 L 140 146.5 Q 137.5 145 141 143.5 L 149.5 134 L 153 132.5 Q 153.8 129.9 150.5 131 Q 148.8 128.3 142.5 130 L 135.5 133 L 128.5 133 L 120.5 136 L 116.5 136 L 96.5 147 L 94 147 Q 95.1 149.7 92.5 149 L 84.5 155 L 83 154.5 L 80.5 158 L 78 158 Q 79.1 160.7 76.5 160 L 74 164 L 70.5 165 L 59.5 175 L 54 176 L 54 179 L 52 179 Q 53.1 181.7 50.5 181 Q 45.5 187 36.5 189 L 32 182.5 L 33 179.5 L 31 170.5 L 32 169.5 L 32 158.5 L 31 155.5 L 33 145.5 L 35 142.5 L 35 138.5 L 37 135.5 L 34.5 135 L 25.5 144 L 18 145 L 18 151 L 12 151 L 12 155.5 L 4.5 166 Q 2.3 165.3 3 167.5 L 0.5 172 L 0 162.5 L 5.5 156 L 9 153.5 L 8 152.5 L 22 138.5 L 15 113.5 L 15 108.5 L 20 101 Q 22.7 102.1 22 99.5 L 42.5 77 L 46 78 L 51 65.5 L 76 29.5 L 82 18.5 L 82 16 Z M 46 133 L 48 145 L 48 152 L 50 152 L 52 162 L 57 170 L 62 166 L 62 162 L 61 162 Q 56 160 57 153 L 67 144 Q 69 145 68 142 L 66 142 L 57 133 L 46 133 Z M 41 138 Q 38 139 40 141 L 36 153 L 36 176 L 38 183 L 45 180 L 52 174 L 50 168 Q 51 164 48 165 L 42 146 L 42 139 L 41 138 Z M 77 143 L 64 151 L 62 155 L 63 160 L 67 162 L 70 161 L 71 159 L 84 149 Q 86 150 85 148 L 81 143 L 77 143 Z " /><path fill="rgb(0,0,0)" stroke="rgb(0,0,0)" stroke-width="1" opacity="1" d="M 165.5 17 L 166 19.5 L 161 34.5 L 154 47.5 L 165 61.5 L 159 62 L 158 58 L 156 58 L 156 56 Q 153.3 57.1 154 54.5 L 148 50 L 147 47.5 L 150 46.5 L 149 44.5 L 152 41.5 L 157 28.5 L 155.5 29 L 150 30 L 150 26 L 148.5 26 L 146.5 27 L 146.5 26 L 165.5 17 Z " /><path fill="rgb(0,0,0)" stroke="rgb(0,0,0)" stroke-width="1" opacity="1" d="M 95.5 89 L 96 91 Q 93.3 89.9 94 92.5 Q 91.8 97.3 83.5 96 L 80 94.5 L 95.5 89 Z " /><path fill="rgb(0,0,0)" stroke="rgb(0,0,0)" stroke-width="1" opacity="1" d="M 198 183 L 200 183.5 L 200 192.5 L 193.5 200 L 187 199.5 L 198 185.5 L 198 183 Z " /><path fill="rgb(0,0,0)" stroke="rgb(0,0,0)" stroke-width="1" opacity="1" d="M 83 188 L 96 192 Q 94.8 195 98.5 194 L 112 199.5 L 99.5 200 L 93 198 L 93 200 L 88 200 L 85 194.5 L 85.5 193 Q 82.9 193.8 84 190.5 L 83 188 Z " /><path fill="rgb(46,43,63)" stroke="rgb(46,43,63)" stroke-width="1" opacity="1" d="M 153.5 31 L 155 31.5 L 154 35 Q 150.2 33.5 151 36.5 L 144 42.5 Q 144.8 45.1 141.5 44 L 140.5 46 L 144 48.5 Q 143.1 51.5 147.5 50 L 157 60.5 L 157 62.5 L 161 74.5 L 159.5 74 L 155 73 L 158 83.5 Q 156.8 87.3 150.5 86 L 146.5 85 L 141.5 86 L 141.5 85 L 146 84.5 L 137.5 83 L 128.5 83 L 126 82 L 128 85.5 L 122.5 81 Q 121.1 78.4 116.5 79 L 111.5 80 L 101 75.5 L 104 74 L 105.5 71 L 110 68.5 L 93.5 68 L 63 74 L 61 62.5 L 64.5 56 L 66.5 57 L 80 45.5 L 80.5 44 L 81 47.5 L 74.5 56 Q 71.2 54.9 72 57.5 L 66 64.5 L 65 69.5 Q 67.5 74.5 70 69.5 L 71.5 67 Q 73 69.5 74.5 66 L 94.5 58 L 121 53.5 L 110 49.5 L 119.5 48 L 130.5 43 L 132 43.5 Q 131.2 40.9 134.5 42 L 140 38.5 L 139.5 37 L 141.5 38 L 141.5 36 L 143.5 37 L 144 35 L 153.5 31 Z " /><path fill="rgb(46,43,63)" stroke="rgb(46,43,63)" stroke-width="1" opacity="1" d="M 80.5 33 L 79.5 35 L 80.5 33 Z " /><path fill="rgb(46,43,63)" stroke="rgb(46,43,63)" stroke-width="1" opacity="1" d="M 81.5 38 L 82 42.5 L 81 42.5 L 81.5 38 Z " /><path fill="rgb(46,43,63)" stroke="rgb(46,43,63)" stroke-width="1" opacity="1" d="M 75.5 62 L 74.5 64 L 75.5 62 Z " /><path fill="rgb(46,43,63)" stroke="rgb(46,43,63)" stroke-width="1" opacity="1" d="M 49.5 83 L 47.5 86 L 49.5 83 Z " /><path fill="rgb(46,43,63)" stroke="rgb(46,43,63)" stroke-width="1" opacity="1" d="M 115.5 83 L 117.5 86 L 115.5 83 Z " /><path fill="rgb(46,43,63)" stroke="rgb(46,43,63)" stroke-width="1" opacity="1" d="M 41.5 86 L 38.5 90 L 41.5 86 Z " /><path fill="rgb(46,43,63)" stroke="rgb(46,43,63)" stroke-width="1" opacity="1" d="M 89.5 89 L 93 89.5 L 89.5 90 L 89.5 89 Z " /><path fill="rgb(46,43,63)" stroke="rgb(46,43,63)" stroke-width="1" opacity="1" d="M 123.5 89 L 130.5 97 L 123.5 89 Z " /><path fill="rgb(46,43,63)" stroke="rgb(46,43,63)" stroke-width="1" opacity="1" d="M 84.5 96 L 89 96.5 L 84.5 97 L 84.5 96 Z " /><path fill="rgb(46,43,63)" stroke="rgb(46,43,63)" stroke-width="1" opacity="1" d="M 31.5 97 L 29.5 100 L 31.5 97 Z " /><path fill="rgb(46,43,63)" stroke="rgb(46,43,63)" stroke-width="1" opacity="1" d="M 57 101 L 60 102.5 Q 61.3 106.3 57.5 105 Q 54.8 103.8 57 102.5 L 57 101 Z " /><path fill="rgb(46,43,63)" stroke="rgb(46,43,63)" stroke-width="1" opacity="1" d="M 145.5 101 L 156 106.5 L 154 106.5 Q 152.9 109.8 155.5 109 L 159.5 110 L 158.5 107 L 169 114.5 L 162.5 124 L 159.5 123 L 150 125 L 151 118 L 147.5 118 L 137.5 125 L 130.5 125 L 127.5 128 L 129 125.5 Q 128.3 123.3 130.5 124 L 145.5 101 Z " /><path fill="rgb(46,43,63)" stroke="rgb(46,43,63)" stroke-width="1" opacity="1" d="M 71.5 106 Q 75.3 105.3 76 107.5 Q 77.1 110.8 74.5 110 Q 57 117 42.5 127 L 34.5 127 L 29 131.5 L 27.5 134 L 26 132.5 L 30 128.5 L 32.5 125 L 36.5 124 L 54.5 113 L 71.5 106 Z " /><path fill="rgb(46,43,63)" stroke="rgb(46,43,63)" stroke-width="1" opacity="1" d="M 46.5 107 L 49 108.5 Q 50.3 112.3 46.5 111 L 45 108.5 L 46.5 107 Z " /><path fill="rgb(46,43,63)" stroke="rgb(46,43,63)" stroke-width="1" opacity="1" d="M 130.5 110 L 129.5 112 L 130.5 110 Z " /><path fill="rgb(46,43,63)" stroke="rgb(46,43,63)" stroke-width="1" opacity="1" d="M 36.5 113 L 38 117 L 34 115.5 L 36.5 113 Z " /><path fill="rgb(46,43,63)" stroke="rgb(46,43,63)" stroke-width="1" opacity="1" d="M 175.5 116 L 174.5 118 L 175.5 116 Z " /><path fill="rgb(46,43,63)" stroke="rgb(46,43,63)" stroke-width="1" opacity="1" d="M 88.5 125 L 87.5 127 L 88.5 125 Z " /><path fill="rgb(46,43,63)" stroke="rgb(46,43,63)" stroke-width="1" opacity="1" d="M 169.5 125 L 168.5 127 L 169.5 125 Z " /><path fill="rgb(46,43,63)" stroke="rgb(46,43,63)" stroke-width="1" opacity="1" d="M 60.5 126 L 63 126.5 L 60.5 127 L 60.5 126 Z " /><path fill="rgb(46,43,63)" stroke="rgb(46,43,63)" stroke-width="1" opacity="1" d="M 48.5 127 L 54 127.5 L 48.5 128 L 48.5 127 Z " /><path fill="rgb(46,43,63)" stroke="rgb(46,43,63)" stroke-width="1" opacity="1" d="M 165.5 131 L 164 133.5 L 162.5 136 L 162.5 134 L 161 133.5 L 165.5 131 Z " /><path fill="rgb(46,43,63)" stroke="rgb(46,43,63)" stroke-width="1" opacity="1" d="M 64.5 132 L 66 134.5 L 64 133.5 L 64.5 132 Z " /><path fill="rgb(46,43,63)" stroke="rgb(46,43,63)" stroke-width="1" opacity="1" d="M 53.5 133 L 56 133.5 L 53.5 134 L 53.5 133 Z " /><path fill="rgb(46,43,63)" stroke="rgb(46,43,63)" stroke-width="1" opacity="1" d="M 77.5 137 L 80 137.5 L 77.5 138 L 77.5 137 Z " /><path fill="rgb(46,43,63)" stroke="rgb(46,43,63)" stroke-width="1" opacity="1" d="M 161.5 137 L 160.5 139 L 161.5 137 Z " /><path fill="rgb(46,43,63)" stroke="rgb(46,43,63)" stroke-width="1" opacity="1" d="M 153.5 139 L 151.5 142 L 153.5 139 Z " /><path fill="rgb(46,43,63)" stroke="rgb(46,43,63)" stroke-width="1" opacity="1" d="M 159.5 140 L 158.5 142 L 159.5 140 Z " /><path fill="rgb(46,43,63)" stroke="rgb(46,43,63)" stroke-width="1" opacity="1" d="M 157.5 143 L 156.5 145 L 157.5 143 Z " /><path fill="rgb(46,43,63)" stroke="rgb(46,43,63)" stroke-width="1" opacity="1" d="M 76.5 144 L 79.5 144 L 83 146 Q 84.5 149.8 81.5 149 Q 76 156.5 65.5 159 L 63 154.5 Q 68.1 147.6 76.5 144 Z " /><path fill="rgb(46,43,63)" stroke="rgb(46,43,63)" stroke-width="1" opacity="1" d="M 149.5 144 L 148 146.5 L 143.5 155 Q 140.3 153.3 144 151.5 L 149.5 144 Z " /><path fill="rgb(46,43,63)" stroke="rgb(46,43,63)" stroke-width="1" opacity="1" d="M 63.5 145 L 62.5 147 L 63.5 145 Z " /><path fill="rgb(46,43,63)" stroke="rgb(46,43,63)" stroke-width="1" opacity="1" d="M 155.5 146 L 154.5 148 L 155.5 146 Z " /><path fill="rgb(46,43,63)" stroke="rgb(46,43,63)" stroke-width="1" opacity="1" d="M 37.5 152 L 38 154.5 L 37 154.5 L 37.5 152 Z " /><path fill="rgb(46,43,63)" stroke="rgb(46,43,63)" stroke-width="1" opacity="1" d="M 45.5 158 Q 46.3 167.2 51 172.5 Q 46.4 178.7 38 180 L 37 174.5 L 38 174.5 L 38.5 176 Q 39.6 167.1 45 162.5 L 45.5 158 Z " /><path fill="rgb(46,43,63)" stroke="rgb(46,43,63)" stroke-width="1" opacity="1" d="M 36.5 161 L 37 168.5 L 36 168.5 L 36.5 161 Z " /><path fill="rgb(46,43,63)" stroke="rgb(46,43,63)" stroke-width="1" opacity="1" d="M 58.5 167 L 57.5 169 L 56 168.5 L 58.5 167 Z " /><path fill="rgb(73,80,98)" stroke="rgb(73,80,98)" stroke-width="1" opacity="1" d="M 140.5 37 L 142 37.5 L 139.5 39 L 140.5 37 Z " /><path fill="rgb(73,80,98)" stroke="rgb(73,80,98)" stroke-width="1" opacity="1" d="M 73.5 51 L 72.5 53 L 73.5 51 Z " /><path fill="rgb(73,80,98)" stroke="rgb(73,80,98)" stroke-width="1" opacity="1" d="M 109.5 68 L 108.5 70 L 109.5 68 Z " /><path fill="rgb(73,80,98)" stroke="rgb(73,80,98)" stroke-width="1" opacity="1" d="M 83.5 82 L 87 87 Q 89.7 85.9 89 88.5 L 85 90 L 83.5 82 Z " /><path fill="rgb(73,80,98)" stroke="rgb(73,80,98)" stroke-width="1" opacity="1" d="M 54 86 L 58 86 Q 56.9 88.7 59.5 88 L 60.5 87 L 64.5 91 L 66 91.5 L 58 92 Q 59.1 89.3 56.5 90 L 54 89 L 54 86 Z " /><path fill="rgb(73,80,98)" stroke="rgb(73,80,98)" stroke-width="1" opacity="1" d="M 33.5 95 L 32.5 97 L 33.5 95 Z " /><path fill="rgb(73,80,98)" stroke="rgb(73,80,98)" stroke-width="1" opacity="1" d="M 93.5 95 L 97 100.5 L 96 104 L 99 105.5 L 100 108.5 L 91 100.5 L 89 97.5 L 93.5 95 Z " /><path fill="rgb(73,80,98)" stroke="rgb(73,80,98)" stroke-width="1" opacity="1" d="M 59.5 101 L 61 103.5 L 60 103.5 L 59.5 101 Z " /><path fill="rgb(73,80,98)" stroke="rgb(73,80,98)" stroke-width="1" opacity="1" d="M 135.5 103 L 134.5 105 L 135.5 103 Z " /><path fill="rgb(73,80,98)" stroke="rgb(73,80,98)" stroke-width="1" opacity="1" d="M 56.5 104 L 59 105.5 L 57.5 106 L 56.5 104 Z " /><path fill="rgb(73,80,98)" stroke="rgb(73,80,98)" stroke-width="1" opacity="1" d="M 69 104 L 76 106.5 L 74.5 106 L 68.5 107 L 69 105.5 L 69 104 Z " /><path fill="rgb(73,80,98)" stroke="rgb(73,80,98)" stroke-width="1" opacity="1" d="M 48.5 107 L 50 109.5 L 49 109.5 L 48.5 107 Z " /><path fill="rgb(73,80,98)" stroke="rgb(73,80,98)" stroke-width="1" opacity="1" d="M 140.5 108 L 138.5 111 L 140.5 108 Z " /><path fill="rgb(73,80,98)" stroke="rgb(73,80,98)" stroke-width="1" opacity="1" d="M 160.5 108 L 161.5 110 L 160.5 108 Z " /><path fill="rgb(73,80,98)" stroke="rgb(73,80,98)" stroke-width="1" opacity="1" d="M 45.5 110 L 48 111.5 L 46.5 112 L 45.5 110 Z " /><path fill="rgb(73,80,98)" stroke="rgb(73,80,98)" stroke-width="1" opacity="1" d="M 137.5 112 L 136.5 114 L 137.5 112 Z " /><path fill="rgb(73,80,98)" stroke="rgb(73,80,98)" stroke-width="1" opacity="1" d="M 167.5 112 L 168.5 114 L 167.5 112 Z " /><path fill="rgb(73,80,98)" stroke="rgb(73,80,98)" stroke-width="1" opacity="1" d="M 34 113 L 36 113.5 L 34 114.5 L 34 113 Z " /><path fill="rgb(73,80,98)" stroke="rgb(73,80,98)" stroke-width="1" opacity="1" d="M 34.5 116 L 38 117.5 L 35.5 118 L 34.5 116 Z " /><path fill="rgb(73,80,98)" stroke="rgb(73,80,98)" stroke-width="1" opacity="1" d="M 48.5 116 L 47.5 118 L 46 117.5 L 48.5 116 Z " /><path fill="rgb(73,80,98)" stroke="rgb(73,80,98)" stroke-width="1" opacity="1" d="M 44.5 118 L 43.5 120 L 44.5 118 Z " /><path fill="rgb(73,80,98)" stroke="rgb(73,80,98)" stroke-width="1" opacity="1" d="M 172.5 120 L 171.5 122 L 172.5 120 Z " /><path fill="rgb(73,80,98)" stroke="rgb(73,80,98)" stroke-width="1" opacity="1" d="M 37.5 122 L 36.5 124 L 37.5 122 Z " /><path fill="rgb(73,80,98)" stroke="rgb(73,80,98)" stroke-width="1" opacity="1" d="M 31.5 125 L 30.5 127 L 31.5 125 Z " /><path fill="rgb(73,80,98)" stroke="rgb(73,80,98)" stroke-width="1" opacity="1" d="M 57.5 126 L 60 126.5 L 57.5 127 L 57.5 126 Z " /><path fill="rgb(73,80,98)" stroke="rgb(73,80,98)" stroke-width="1" opacity="1" d="M 29.5 128 L 27.5 131 L 29.5 128 Z " /><path fill="rgb(73,80,98)" stroke="rgb(73,80,98)" stroke-width="1" opacity="1" d="M 166.5 129 L 165.5 131 L 166.5 129 Z " /><path fill="rgb(73,80,98)" stroke="rgb(73,80,98)" stroke-width="1" opacity="1" d="M 57.5 135 L 61.5 140 L 57.5 135 Z " /><path fill="rgb(73,80,98)" stroke="rgb(73,80,98)" stroke-width="1" opacity="1" d="M 69.5 137 L 71.5 140 L 69.5 137 Z " /><path fill="rgb(73,80,98)" stroke="rgb(73,80,98)" stroke-width="1" opacity="1" d="M 155.5 137 L 154.5 139 L 155.5 137 Z " /><path fill="rgb(73,80,98)" stroke="rgb(73,80,98)" stroke-width="1" opacity="1" d="M 65.5 142 L 66 143.5 L 64 144.5 L 65.5 142 Z " /><path fill="rgb(73,80,98)" stroke="rgb(73,80,98)" stroke-width="1" opacity="1" d="M 151.5 142 L 150.5 144 L 151.5 142 Z " /><path fill="rgb(73,80,98)" stroke="rgb(73,80,98)" stroke-width="1" opacity="1" d="M 157.5 142 L 156.5 144 L 157.5 142 Z " /><path fill="rgb(73,80,98)" stroke="rgb(73,80,98)" stroke-width="1" opacity="1" d="M 40.5 143 L 45 157.5 L 45 162.5 Q 39.6 167.1 38.5 176 L 37 173.5 L 37 155.5 L 40.5 143 Z " /><path fill="rgb(73,80,98)" stroke="rgb(73,80,98)" stroke-width="1" opacity="1" d="M 149.5 145 L 148.5 147 L 149.5 145 Z " /><path fill="rgb(73,80,98)" stroke="rgb(73,80,98)" stroke-width="1" opacity="1" d="M 151.5 151 L 150.5 153 L 151.5 151 Z " /><path fill="rgb(73,80,98)" stroke="rgb(73,80,98)" stroke-width="1" opacity="1" d="M 58.5 161 L 59.5 163 L 58.5 161 Z " /><path fill="rgb(10,100,89)" stroke="rgb(10,100,89)" stroke-width="1" opacity="1" d="M 96.5 101 L 98 103.5 L 96 104 L 96.5 101 Z " /><path fill="rgb(10,100,89)" stroke="rgb(10,100,89)" stroke-width="1" opacity="1" d="M 121.5 136 Q 123.8 135.3 123 137.5 L 125 140.5 L 124 144.5 L 117 155 L 104 159 L 103 163.5 Q 103.8 166.8 108.5 166 L 117.5 163 L 130 162 L 130 164.5 L 124.5 170 Q 120.2 173.2 112.5 173 L 110.5 171 L 99.5 167 L 90.5 166 L 85 169.5 L 86 173 Q 88.7 174.9 95.5 174 L 104.5 177 L 125 188.5 Q 125.8 192.3 123.5 193 L 104.5 193 L 95.5 191 L 83 182.5 Q 83.8 180.3 81.5 181 L 77.5 180 Q 75.3 180.8 76 184.5 L 80.5 191 Q 82.8 190.3 82 192.5 L 86 200 L 65.5 200 Q 63.3 195.3 57.5 194 L 54 196.5 L 55 199.5 L 28 200 L 29 194.5 L 27 190.5 L 40.5 189 Q 53.6 182.6 63.5 173 L 64 181.5 L 63 184.5 L 66.5 182 L 69 180.5 L 73 171.5 L 73 166.5 L 76.5 162 Q 95.4 145.4 121.5 136 Z " /><path fill="rgb(10,100,89)" stroke="rgb(10,100,89)" stroke-width="1" opacity="1" d="M 19.5 150 L 14 156.5 L 8 165.5 L 6 171.5 L 8.5 172 L 12 172 Q 10.9 174.7 13.5 174 L 16 180.5 L 23 188.5 Q 18.8 196.3 5.5 195 L 0 193 L 0 176.5 L 1 173.5 Q 8 159.5 19.5 150 Z " /><path fill="rgb(10,100,89)" stroke="rgb(10,100,89)" stroke-width="1" opacity="1" d="M 197.5 175 L 200 175.5 L 198 176 L 198 180.5 L 192.5 190 L 190 189.5 L 192 188.5 L 191 186.5 L 194 178 L 192 177.5 L 197.5 175 Z " /><path fill="rgb(6,47,62)" stroke="rgb(6,47,62)" stroke-width="1" opacity="1" d="M 162.5 84 L 163.5 86 L 162.5 84 Z " /><path fill="rgb(6,47,62)" stroke="rgb(6,47,62)" stroke-width="1" opacity="1" d="M 128.5 86 L 129.5 88 L 128.5 86 Z " /><path fill="rgb(6,47,62)" stroke="rgb(6,47,62)" stroke-width="1" opacity="1" d="M 155.5 86 L 159.5 91 L 155.5 86 Z " /><path fill="rgb(6,47,62)" stroke="rgb(6,47,62)" stroke-width="1" opacity="1" d="M 168.5 88 L 170.5 91 L 168.5 88 Z " /><path fill="rgb(6,47,62)" stroke="rgb(6,47,62)" stroke-width="1" opacity="1" d="M 162.5 92 L 167.5 98 L 162.5 92 Z " /><path fill="rgb(6,47,62)" stroke="rgb(6,47,62)" stroke-width="1" opacity="1" d="M 181.5 129 L 190 129.5 L 181.5 130 L 181.5 129 Z " /><path fill="rgb(6,47,62)" stroke="rgb(6,47,62)" stroke-width="1" opacity="1" d="M 143.5 131 L 150.5 131 L 151 132.5 L 142 140.5 L 130.5 154 L 124 158 Q 122.5 161.7 125.5 161 L 125.5 162 L 119.5 162 L 105.5 165 Q 103.3 164.3 104 160.5 Q 107 157 113.5 157 L 118 153.5 L 124 144.5 L 125 138.5 L 123 135 L 133.5 133 L 135.5 134 L 143.5 131 Z M 114 159 L 113 162 L 114 162 L 114 159 Z " /><path fill="rgb(6,47,62)" stroke="rgb(6,47,62)" stroke-width="1" opacity="1" d="M 196.5 134 L 200 137.5 L 200 164 L 198 164 L 198 173.5 L 196.5 174 L 184.5 180 L 174.5 182 L 164.5 182 L 162 181 L 163 172.5 L 160.5 169 Q 163.5 165.1 170 166 L 169 162 L 162.5 158 L 157 157 L 162 148 L 175.5 148 L 176 149.5 Q 171.8 150.8 173 157.5 L 175.5 161 L 184.5 162 L 192 158 L 196 151.5 Q 195.4 146.9 198 145.5 L 198 139.5 L 196.5 134 Z " /><path fill="rgb(6,47,62)" stroke="rgb(6,47,62)" stroke-width="1" opacity="1" d="M 23.5 145 L 15.5 154 L 23.5 145 Z " /><path fill="rgb(6,47,62)" stroke="rgb(6,47,62)" stroke-width="1" opacity="1" d="M 96.5 147 L 95.5 149 L 96.5 147 Z " /><path fill="rgb(6,47,62)" stroke="rgb(6,47,62)" stroke-width="1" opacity="1" d="M 93.5 149 L 92.5 151 L 93.5 149 Z " /><path fill="rgb(6,47,62)" stroke="rgb(6,47,62)" stroke-width="1" opacity="1" d="M 90.5 151 L 89.5 153 L 90.5 151 Z " /><path fill="rgb(6,47,62)" stroke="rgb(6,47,62)" stroke-width="1" opacity="1" d="M 87.5 153 L 86.5 155 L 87.5 153 Z " /><path fill="rgb(6,47,62)" stroke="rgb(6,47,62)" stroke-width="1" opacity="1" d="M 83.5 156 L 81.5 159 L 83.5 156 Z " /><path fill="rgb(6,47,62)" stroke="rgb(6,47,62)" stroke-width="1" opacity="1" d="M 10.5 159 L 9.5 161 L 10.5 159 Z " /><path fill="rgb(6,47,62)" stroke="rgb(6,47,62)" stroke-width="1" opacity="1" d="M 79.5 159 L 77.5 162 L 79.5 159 Z " /><path fill="rgb(6,47,62)" stroke="rgb(6,47,62)" stroke-width="1" opacity="1" d="M 130.5 161 L 148.5 162 L 155 164.5 Q 143 176.5 121.5 179 L 120 178.5 Q 120.9 181.5 116.5 180 Q 114.5 184 112.5 180 L 97.5 174 L 87.5 173 L 86 171.5 Q 85.3 167.8 87.5 167 L 97.5 167 L 113.5 174 L 116.5 174 Q 125 171.5 130 165.5 L 131 162.5 L 130.5 161 Z " /><path fill="rgb(6,47,62)" stroke="rgb(6,47,62)" stroke-width="1" opacity="1" d="M 75.5 162 L 68.5 170 L 66 171.5 L 70.5 172 L 72 171.5 L 71.5 173 L 66 173 L 66 181.5 L 64.5 182 L 65 180.5 Q 66.5 174 63 172.5 L 75.5 162 Z " /><path fill="rgb(6,47,62)" stroke="rgb(6,47,62)" stroke-width="1" opacity="1" d="M 6.5 164 L 5.5 166 L 6.5 164 Z " /><path fill="rgb(6,47,62)" stroke="rgb(6,47,62)" stroke-width="1" opacity="1" d="M 157.5 171 L 156.5 173 L 157.5 171 Z " /><path fill="rgb(6,47,62)" stroke="rgb(6,47,62)" stroke-width="1" opacity="1" d="M 17.5 174 Q 22.3 173.3 23 176.5 L 25 182 L 30.5 183 L 32 182.5 L 34 190 L 27.5 189 L 24 190 L 22.5 187 L 19 184.5 Q 15.3 182.3 16 175.5 L 17.5 174 Z M 20 182 Q 19 185 22 184 Q 23 181 20 182 Z " /><path fill="rgb(6,47,62)" stroke="rgb(6,47,62)" stroke-width="1" opacity="1" d="M 59.5 175 L 57.5 178 L 59.5 175 Z " /><path fill="rgb(6,47,62)" stroke="rgb(6,47,62)" stroke-width="1" opacity="1" d="M 55.5 178 L 53.5 181 L 55.5 178 Z " /><path fill="rgb(6,47,62)" stroke="rgb(6,47,62)" stroke-width="1" opacity="1" d="M 144.5 179 L 142.5 182 L 137.5 186 L 135.5 186 Q 132.5 184.5 135.5 183 L 144.5 179 Z " /><path fill="rgb(6,47,62)" stroke="rgb(6,47,62)" stroke-width="1" opacity="1" d="M 78.5 180 L 82 181.5 L 85.5 186 L 88 187.5 L 86.5 188 Q 85.3 185 81 186 L 80 188.5 L 82 189 L 83 191.5 L 77 186.5 L 76 182.5 L 78.5 180 Z " /><path fill="rgb(6,47,62)" stroke="rgb(6,47,62)" stroke-width="1" opacity="1" d="M 51.5 181 L 50.5 183 L 51.5 181 Z " /><path fill="rgb(6,47,62)" stroke="rgb(6,47,62)" stroke-width="1" opacity="1" d="M 137.5 187 L 138.5 189 L 137.5 187 Z " /><path fill="rgb(6,47,62)" stroke="rgb(6,47,62)" stroke-width="1" opacity="1" d="M 125 188 L 137 196.5 L 139 199.5 L 116.5 200 L 98 192.5 L 101.5 192 L 102.5 193 L 112.5 193 L 113.5 194 L 115.5 194 L 125 193 L 125 188 Z " /><path fill="rgb(6,47,62)" stroke="rgb(6,47,62)" stroke-width="1" opacity="1" d="M 162.5 188 L 172.5 194 L 183.5 194 Q 185 191.5 190.5 193 L 186.5 198 L 185.5 196 L 181.5 200 L 148.5 200 L 147 196 L 149.5 195 L 162 195 L 162.5 188 Z " /><path fill="rgb(6,47,62)" stroke="rgb(6,47,62)" stroke-width="1" opacity="1" d="M 0.5 193 L 9.5 196 L 17.5 194 L 18 196 Q 22.3 197 23.5 194 L 28 194 L 28 199.5 L 27.5 200 L 0 200 L 0.5 193 Z " /><path fill="rgb(6,47,62)" stroke="rgb(6,47,62)" stroke-width="1" opacity="1" d="M 143.5 193 L 144.5 195 L 143.5 193 Z " /><path fill="rgb(6,47,62)" stroke="rgb(6,47,62)" stroke-width="1" opacity="1" d="M 56.5 195 L 59.5 195 L 64 199.5 L 55 200 Q 54 196.2 56.5 195 Z " /></svg>