<svg xmlns="http://www.w3.org/2000/svg" width="200" height="200"><path stroke="#000" d="m101.5 41 6.5.5-6.5.5zm13 5 1 2zm2 4 1 1 34.5.5-34.5.5zm-37 2 5.5.5-5.5.5zm-10 1 3.5.5-3.5.5zm-5 1 2.5.5-2.5.5zm95 0 1 2zm-104 3-.5 1.5-.5 4.5-.5-4.5zm105 6 .5 4.5h-1zm-107 3 .5 4.5-1.5 1.5h-8v-1H53zm-53 5 3.5.5-3.5.5zm6 0 5.5.5-5.5.5zm178 0 15.5.5-15.5.5zm-19 14 7.5.5-7.5.5zm1 97 2.5.5-2.5.5zm-2 2 1.5.5q-.7 2.3-4.5 1.5v-1zm5 5 1.5 4.5-1.5 6.5zm-129 4 2.5.5-2.5.5zm-3 1 .5 5.5h-1zm12 0 .5 5.5h-1zm125 1q5.7-1.8 3.5 4.5h-1q1.7-4.8-2.5-3.5z" opacity=".149"/><path stroke="#000" d="M0 0h200v71h-15.5L174 73q-2.3 3.7-1 12h-10.5l-1.5-1.5v-26l-1-1q2.8-1.7-1.5-3.5l-7-2h-34l-1.5-1.5-2-5.5-6.5-3h-6Q95 42.5 92 47.5L91 52l-21.5 1-12 3-3.5 2.5L53 71H6.5l-2 1L0 71zm166 183q4.5-1.5 3 3l-4-.5zm-116 1h8.5l.5 1.5-.5 2.5q-7.2-1.2-9.5 2.5v9.5H38v-6h4.5l5.5-2 2-3.5zm120 10 7 2v4h-7zM.5 196l.5 3.5H0z" opacity="0"/><path fill="#f4c37a" stroke="#f4c37a" d="M83.5 58q9.9-1.9 13 3h14l5-3h34l2 1 1.5-.5 1 2-11.5 3.5h-33l-6 5h-35L66 70l-1 2.5V93l-5-.5V62zm-81 20h51l.5 5-16.5 3-4 2h-24l-1-1H0v-7.5l1.5-.5zM181 79h12.5l.5 1.5-1 3 1 1V96l-10.5-1h-2q-2.6.8-1.5-2.5l1-1zm-18.5 13h9l1.5 1.5q.8 2.3-1.5 1.5l-9 4-18 4-1-1H126l1.5-3h17zm-115 1H54v5h6.5l.5 2H31v29.5l-2 .5-1-28.5 1-5.5zm-39 5q4.8-1.7 3.5 2.5L9.5 103 0 104v-4h1.5zM67 99h50.5l1.5 1.5-4.5 1.5-1-1H67zm111.5 3q2.6-.7 1.5 2-2.7-1.1-2 1.5-5 3.5-6 9.5l-3 1.5-2 9v10l-2.5 9.5-.5-16.5q2.5-1.5 1-7l-1-4zm-170 7 12.5 3-.5 3q-5.7-5-17.5-3-1 7.5 2 11 9.7-2 12 4.5l1.5 2.5q5.7-1.6 3.5 4l-4.5-1-5 5-4 1-2-1-5.5 8.5q2.8 4.7 11.5 3.5l9-3q3.5 2-1 4l-19 1q-2.5-1-1.5-5.5 3-3 3-9l-3-7 3-8-3-7V111zM6 124l-4 4q-1 7 4 9l7-1 3-4-1-6-3-2zm23 13 11 1 2 12.5-1.5 1.5H31zm103.5 2H144v7.5l1 3-1.5 1.5H131v-10.5zM0 159l10 1v4H8.5L0 162zm60.5 1 3.5 1.5-3.5 4.5-2.5-5zm97.5 31 5 1q1.3 4.6-1.5 6H158zm-102 3h4v1.5l1 2.5q-7.1 2.4-5-4Z"/><path fill="#52bf9d" stroke="#52bf9d" d="M100.5 48q6.1-.7 8.5 1l1 6q-3 2-10.5 1-3-.5-2.5-4.5zM71 75h45.5l1 1H129v18H97.5l-1-1h-15l-4 1-6.5-1zm6 5-4 4 1 3q1 2 6 1l2-3-1-2q0-3-4-3Zm43 0-3 1-1 3 1 4 6 1q3-1 2-6zm-71 46h12v12H50.5l-1.5-1.5zm15 0h12v12H65.5l-1.5-1.5zm14 0h12v12H79.5l-1.5-1.5zm15 0h12v12H93zm-9 34h8.5l.5 2-3 1.5 4 .5-1.5 3q-6.1.8-8.5-1zm-18 29h10.5l.5 3q-7.6 1.1-11-1zm17 0 3.5 1h33q1.5-2.5 7-1l3.5 1-.5 3h-30l-1-1H83zm54.5 0 1 1h11q1.3-2.2 2.5.5l-1.5 2.5h-14l-.5-2.5zm-120 5h9l1.5 1.5-5.5 4.5h-14Q6 198.8 7 195h9.5zm166.5 1 11 .5-9.5 4.5q-2.5-1.2-1.5-5Zm15.5 1 .5 4-6-.5zm-170 2q2.6-.7 1.5 2l-3-.5z"/><path fill="#2b5c5c" stroke="#2b5c5c" d="m102.5 47 3.5.5-3.5.5zm-3 1-1 2zm-2 6 1 2zm-30 16 35.5.5-2 4.5H71v18h-6q2.4-7.9 1-21.5zm50 5h11l1.5 1.5-.5 7.5-.5-8h-11.5z"/><path fill="#2b5c5c" stroke="#2b5c5c" d="M76.5 80q4-.5 4.5 2.5l1 2-2.5 3.5Q75 89 74 86.5l-1-3zm43 0 2.5.5-2.5.5zm4 1 1 2zm-7 2 .5 2.5h-1zm8 3-2 3-3.5-.5q4.3.3 5.5-2.5Zm5 0 .5 3.5h-1zm-57 7 4.5.5-4.5.5zm9 0 15.5.5-15.5.5zm-32 44 1 1 8.5.5-8.5.5zm29 0 8.5 1.5-7.5.5zm-12 1 6.5.5-6.5.5zm30 0 5.5.5-5.5.5zm-13 21 .5 4.5h-1zm10 1 .5 4-4-.5 3-1.5zM66 184h8.5l1.5 1.5 1.5 2.5H82l.5-4h7l1 1h38l1.5 1.5v2.5h6l1.5-4h13l1.5 1.5-.5 3.5h-13l-1-1-1.5 4-7.5 1v-1q3 .7 1.5-3l-9.5-1-1 1h-33l-3.5-1 .5 3h15v1h-15l-6.5-1-.5-3H66q-1.1 2.7 1.5 2v1l-2.5-1.5zm-55.5 10 6.5.5-6.5.5zm17 0q5.3-1.7 3.5 3.5l1 2h-1q.8-2.2-1.5-1.5-1 3-6 2l2-3 2.5-1.5zm159 0h13l.5 1.5q-3.1 5.9-13.5 4.5v-1l8.5-3.5-8.5-.5z"/><path stroke="#000" d="m95.5 44-2 3zm17 0 1 2zm-21 6 .5 1.5q-1.2 2.8-6.5 1.5v-1q6.4 2 6-2Zm-18 3 3.5.5-3.5.5zm-6 1 2.5.5-2.5.5zm93 4 .5 4.5h-1zm-106 5 .5 2.5h-1zm106 5 .5 17 4 .5-3.5.5-1.5-1.5zm-148 3 31.5.5-31.5.5zm166 1 5.5.5-5.5.5zm-3 1-1 2zm-2 3 .5 9.5h-1zm-123 107 2.5.5-3 .5-.5 3-.5-2.5zm4 0q4.5-1 5.5 1.5l-.5 2.5-.5-3h-4.5zm115 0 .5 5.5-1.5 4.5-.5-4.5zm-10 1 4.5.5-3.5 1.5-2.5-.5zm-106 4 3.5.5-3.5.5zm-4 3 .5 2.5h-1zm121 1 1 2zm3 2 3.5.5-3.5.5zm-173 1 1.5 2.5H1z" opacity=".475"/><path fill="#cb5c3e" stroke="#cb5c3e" d="m141.5 57 2.5.5-2.5.5zm7 5q7.2-2.3 4.5 5.5l-3 9-1 12.5 2 .5-12.5 3.5v-1l2.5-.5v-25l-2-1-3.5 4.5h-25l-2-1-4 1v-1l3.5-.5-.5-1.5q1.5 2.5 3-1l1.5-.5-.5-1.5q1.8 2.8 8 1l1-1h23z"/><path fill="#cb5c3e" stroke="#cb5c3e" d="m154.5 62 .5 24.5-2 1 1-1zm40 16 5.5.5-5.5.5zm-143 5 2.5.5-1.5 2.5-19 3v-1zM0 88h29.5l2.5 1.5-7.5 1.5q-.5 3.5-5 3l-11-2-8 2zm181.5 8 12.5.5-12.5.5zM61 98h5v3q3.1-.7 2.5 2h9l6.5-1-.5 2H67q1.1-2.7-1.5-2l-4.5-1q-1.7 6.1 1.5 8l2 1h54l2.5-1 3-6.5-5-1 1-2.5 6 .5-4 1 3.5 2.5h18l1 1 2-1v1q-2.2-.7-1.5 1.5l-1 4v2q2 8.5-2.5 10.5l-2.5 1.5q.8 2.3-1.5 1.5l-5.5 4.5-.5 2.5-1.5-1.5v-11l-1.5-1.5-85-1-2.5 2.5v10l-1.5 1.5.5-1.5q2.3-7.3-3-5.5 1.1 2.7-1.5 2l-3.5 2-1-28 4.5 1 1-1h17l1 1H61zm-24 5-3 1v6h5l-1-2q2-6-1-5Zm97 4v7l2 1 3-1v-7zm58.5-9 .5 4h6.5l.5.5V177h-26.5l-2.5-1-1-5.5v-14l12-8-11-12v-16l16-17-.5-1.5 2-1 3.5 1zm-12 3 3.5.5-3.5.5z"/><path fill="#cb5c3e" stroke="#cb5c3e" d="M96 102h5.5l.5 2h6v-2h6l1 2.5-20.5.5v-1q2.6.7 1.5-2Zm20 0 2 .5-2 1zm-84.5 34 8.5.5-8.5.5zM48 148h57.5l1 1H125l-1.5 11-3-4-3-1-7.5 6.5-3 8 2.5 2.5h17l2.5-1v2q2.7-1.1 2 1.5l.5 1.5-2-2h-67l1 2 1.5.5-1.5.5-6.5-5.5 1.5-.5 7 2 4-1 3.5-3.5 1-5-5.5-8.5-11-1-3.5 2q1.2 3.7-4 2zm35 6-5 1v9l2 7 3 1h15l2-2q1-10-1-15H85zm70.5-6 1.5 10.5 3 4v5l-2-1-2-3-2-10zm-111 1 .5 8.5h-1zm122 0 .5 11.5h-1zm-152 3 2.5.5-2.5.5zm118 0 .5 4.5h-1zm15 0 1.5 8.5h-1zm-114 2 .5 2.5h-1zm-8 2 1 2zm-12 2 2.5.5-2.5.5zm120 0 2.5 5.5v2l-.5 1.5-2.5-6.5zm-88 1 4.5 10.5-3-2q-3-3.4-1.5-8.5Zm21 1 1 2z"/><path fill="#cb5c3e" stroke="#cb5c3e" d="m117.5 162 2.5 1.5 1 3.5h-6v-2.5zm-111 2 4.5.5-4.5.5zm21 2 3.5 8h-8.5l-1 1H0v-5.5l.5-.5h19zm107 2 .5 2 3 .5-2.5 1.5zm-86 3 6.5 5.5-1.5-.5zm117 0 .5 2.5h-1zm-29 2 6.5 4.5-1.5.5zm19 2 1.5 2.5h-1zm-89 2 13.5.5-13.5.5zm66 0 1.5.5-1.5 1.5h-14v-1h13zm-36 1 7.5.5-7.5.5zM56 198h40.5l1 1h58q1.2-2.3 6-1l1 2h-106z"/><path stroke="#000" d="m101.5 42 2.5.5-2.5.5zm-3 1 1.5.5-6.5 4.5 3-4zm13 1 4.5 5.5-2-1zm9 8 32.5.5-32.5.5zm-43 1 2.5.5-2.5.5zm-7 1 3.5.5-3.5.5zm88 0 1.5 2.5h-1zm-94 1 3.5.5-3.5.5zm-4 1 2.5.5-2.5.5zm-4 1-1 2zm-2 9 .5 7-46-.5 45-.5zm-54 6 7.5.5-7.5.5zm184 0 15.5.5-15.5.5zm-8 1 1.5.5-3.5 2.5zM165 181l3 .5-3.5 2.5.5-1.5zm-8 3 2 .5-2 1zm9.5 2 1 2q-2.8.7-1-2Zm-8 3 2.5 1.5-1.5-.5zm-112 1 1.5.5-3.5 1.5v-1zm124 0 .5 2q2.7-1.1 2 1.5l-3-2zm-133 3-.5 1.5-.5 5.5-.5-5.5zm131 0 .5 6.5h-1zm9 1q2.5 1 1.5 5.5h-1z" opacity=".945"/><path stroke="#000" d="M104.5 42q6.6.9 9.5 5.5l2 4.5 4.5 1H158l2 4.5V86h14v-9.5l4.5-3.5H200l-.5 5h-19l-1.5 2.5 1 1v13q-2.3 1.2-1 6l-1.5 1.5-13.5 12.5-1 2v40l1 3q-1.5 11.5 2.5 17.5l33.5 1-.5 4H176v8l24-1v5h-16.5l-.5.5v5.5h-4q1.3-4.6-1.5-6H173v-2q-2.7 1.1-2-1.5l-1-1V182l-5-1-1.5 3q-7.6-1.5-6.5 2h8.5q-.6 2.8 2.5 2v12h-4v-8.5l-6-2.5-1 2.5 1 4-2.5 2.5h-61l-4-1q-1.3 2.3-6 1l-2-1-2 1-1-1h-15l-3.5-3.5-.5-1.5-5.5 1v7h-4q-1.9-2.7-1-9.5l1.5-1.5H60v-6h-9.5l-2.5 7-12 4.5q2.4 7.8-4 5.5v-6h-8.5l-4-1-1 1H7v6H3l-1-5H0v-5l37.5-1 6.5-2.5q-.2-4.7-3.5-6.5l-10-1-1 1H0l.5-5h31q2.8-1.2.5-2.5l-8-19-1-39-1-1 1-3q-2.7-1.8-1-8 2.5-1.5 1-7l3.5-4.5 16-2L55 86v-8.5l-.5-.5H.5L0 73h7.5l1-1 1 1H55V59.5l2.5-2.5h5l18-4H92q.1-5.6 4.5-8zM99 47v2q-4 1-3 6-4-1-6 2l-15 1-14 3-2 2v30l7 1h36l1 1h22l8-2h12l6-3h3l2-6-1-25-1-2h-38l-1 1-1-1-3-2-1-5-2-3zm64 44-19 7h-8l-1 1h-8l-1-1h-25l-1 1-3-1H60l-1-1-2 1q-3-1-1-2l-1-2 1-2h-9l-6 2-11 1-3 4 1 46 3 16 5 10q4 5 13 7l50 1 1 1 3-1h54l3-1-1-2v-25l-1-1 1-4-1-2v-14l1-1v-11l-1-1q-1-5 2-6l14-14v-4l-1-2zm-98 92-1 8 2 1q5-1 7 1h35l1 1h43v-10H90l-1-1q-6-1-7 1z"/><path stroke="#000" d="m46.5 117 1 1 80 1 1.5 1.5v25l-1.5 1.5-2 1h-33l-1-1h-47l-2.5-2.5-1-15q2.5-1.5 1-7l-1-2zm1.5 5-2 2v18q1 2 3 0h33l1 1h41l1-1-1-19z"/><path fill="#cd824f" stroke="#cd824f" d="m116.5 57 24.5.5-24.5.5zm-36 1 2.5.5-2.5.5zm70 3 3.5.5v25l-1 2.5h-4v-6.5l4-15V62q-3.3.8-2.5-1Zm-41 3 2 1q1.8-2.7 8-1v1h-7q-2.8 4.2-9 5h-35v-1h35zm30 1 1.5 1.5V92l-3.5 1-2.5-1V70.5zm-80 2 .5 23.5h-1zm6 5 .5 16.5h-1zm119 6 15.5 1v17h-6l-1-14.5 1-2.5h-9.5zm-4 1 .5 12.5h-1zM.5 87l8.5.5-8.5.5zm30 1 2.5.5-2.5.5zm142 4q2.6-.8 1.5 2.5l-2.5 1.5v-1q2.3.8 1.5-1.5zm-144 5 .5 3.5h-1zm-25 1 4.5.5-4.5.5zm8.5 0 8.5 1 1.5 1.5q2.2 6.3-3.5 4.5l-8-2q-1.5 2.5-7 1v-1q7 1.5 8.5-2.5zm130.5 0 2.5.5-2.5.5zm-24 1q2.3-.7 1.5 1.5l-2.5 1.5v-1l1.5-.5zm8 0-.5 1.5.5 1.5h17l1 2-1-1h-18l-3.5-2.5zm-93 1 2.5.5-2.5.5zm21 0 6.5.5-6.5.5zm13.5 1h45.5l2.5 1q1 3-2 2v-2h-6v2h-6v-2h-6l-.5 2H84q1.4-4-5.5-2l-1 1H68zm111.5 0q1.3 2.3 6 1l1.5 1.5-16 17v16l11 12-12 8v14l1 5.5q-3.8 1-5-1.5l-2-29 3-10 1-16 2.5-4.5q2.3.8 1.5-1.5l6-9.5q2.7 1.1 2-1.5zm-2 1-12 13zm-172 7 2.5.5-2.5.5zm4 0 4.5.5-4.5.5zm7 1 3.5 1.5-1.5.5zm-13 2 2.5.5-2.5.5zm18 1 .5 3.5-3-2h2zm-18 3 .5 2.5H3zm25 0 .5 14 2-.5v-10h1v8l1.5.5 3.5-2q-1.1-3.3 3-2 1.5 5.4-1.5 7l-7-1-2 1-1.5-1.5zm115 4 .5 11q-3.7 2.3-12 1l1.5-4 5.5-3 1.5-3zm21 1 .5 6.5h-1zm-162 1 .5 2.5Q.3 125.8.5 130l-.5-3.5zm3 0 5.5.5-5.5.5zm0 2 2.5.5-5 3-.5 5.5-.5-5.5zm5 0 2.5 1.5-1.5-.5zm4 0 2 3-1.5-.5-.5 1.5-.5-1.5zm3 4 3.5 1.5-2.5.5zm-2 1 .5 2.5h-1zm7 1 .5 3.5h-1zm-8 3-2 3zm3 0-4 5zm-14 1q1.7 3.3 7.5 2.5l-5.5.5zm-2 1 1.5 4.5H2zm35 2q7.2-2.3 4.5 5.5h-1q2.2-6.3-3.5-4.5zm-27 1 2.5.5-2.5.5zm120.5 0h13.5l1.5 1.5-.5 7.5-.5-8h-11.5l-1.5 1.5V151h12.5l2.5-1.5-1 7 7 17.5 4 2.5-.5 1.5h-12l-7.5-5.5q-.7-2.2 1.5-1.5v-1q-3.3 1.1-2.5-1.5l-2-4 1-2-3-5zM4.5 140l.5 1.5-2 6.5 2 .5-1.5.5-3.5-4.5 1.5-3.5.5 2.5-1 2 2-1zm18 4 .5 3.5-1.5-.5-2 1zm19 0 .5 5.5h-1zm-35 5 2.5.5-2.5.5zm4 0 2.5.5-2.5.5zm12 0-1 2zm8 0 .5 3h9.5l1-1 2.5 14.5 8.5 10.5 1.5.5-6.5.5q-7.9-2.1-11.5-8.5l-4-9v-5q-3-1.8-1.5-5.5Zm-15 2 4.5.5-4.5.5zm-12 1 8.5.5-8.5.5zm17 5q3.8-.7 4.5 1.5 1.7 4.8-2.5 3.5-4.6 3.1-12.5 2 2.2-5.6-3.5-4v-1h7zm-20 1 2.5.5-2.5.5zm63 2q3.3.8 2.5 5.5-1.2 2.5-5 1.5l3-5.5zm-63 2 7.5 1.5-5.5.5zm58 1 1.5 2.5-2-1zm4 11h67l2.5 2.5-.5 1.5h-51l-1-1h-14zm-59 6 8.5 1.5-3.5 7.5H0v-8zm173.5 3 17 .5-2 4.5-2.5 1H177z"/><path fill="#3b3330" stroke="#3b3330" d="m108.5 48 1 2zm-8 8 4.5.5-4.5.5zm15 1-1 2zm31 0 3.5.5-3.5.5zm-86 4 1.5.5-2 .5-.5 2-.5-1.5zm43 9-1 2zm13 0 18.5.5-18.5.5zm-15 4 14.5.5-14.5.5zm-97 3 5.5.5-5.5.5zm114 4 1.5.5-2.5 1.5zm4 0q3 .5 2.5 4.5h-1zm12 7 .5 4.5h-1zm33 3 2.5.5-2.5.5zm-113 5 1 2zm-32 1 .5 3.5h-1zm149 0 .5 1.5-4 3zm8 0 .5 2.5h-1zm-111 1 3.5.5-3.5.5zm6 0 3.5.5-3.5.5zm34 0 8.5.5-8.5.5zm-81 1 .5 4.5h-1zm0 8 .5 5.5h-1zm-8 3 2.5.5-2.5.5zM4 113h11.5l6 4 1.5-.5-1 5 1 1v7.5l-5-1-2-5q-2.6-2.7-9.5-2L5 120.5zm56.5 4 11.5.5-11.5.5zm-60 1 1.5 5.5-2 1zm46.5 5h48.5l1 1h26l1.5 1.5v16l-.5.5H47zm2 3v12l2 1q7 1 10-1v-12zm15 0v12l3 1 9-1v-12zm14 0v12l2 1q7 1 10-1v-12zm15 0v12l4 1 8-1v-12zm36.5-3 .5 3.5h-1z"/><path fill="#3b3330" stroke="#3b3330" d="M6.5 125q6.3-1.2 7.5 2.5l1 4-2.5 3.5-6 1-2.5-1-1-6.5zm157 3 .5 8.5h-1zm-135 3H41v4.5l.5 1.5-1-1H29l-.5 3-.5-2.5 2-4zm118 0 3.5 1.5 1 21 4 14.5 4 2v7.5h-1l-2.5-3.5-3.5-2.5-5-13-2-21.5h-14.5l-.5-4 2.5-1h13zM17 134h6v9.5l-6.5 4.5-10 1-3.5-1 3.5-9q8.3 1.3 10.5-3.5zM.5 136l1.5 3.5L.5 143zm157 0 .5 7.5h-1zm-113 11 2.5.5-2.5.5zm4 0 28.5.5-28.5.5zm34 8 13 1q1.8-2.8 3.5 1.5v12l-1.5 1.5-12 1-4.5-1-2-6.5v-6l1-2.5zm1.5 4v8h10v-7h-9zm74.5-2 .5 4.5h-1zm-132 17 3.5.5-3.5.5zm52 4 8.5.5-8.5.5zm59 0 7.5.5-7.5.5zm-124 2 25.5.5-23.5.5-1 1zm163 2 15.5.5-15.5.5zm22 0 1.5.5-4.5 1.5v-1zm-133 2 .5 2.5h-1zm10 0q2.6-.8 1.5 2.5h-1zm15 0 10.5.5-10.5.5zm39 1 1.5 3.5h-1zm7 0-.5 1.5-.5 2.5-.5-2.5zm63 1 .5 1.5q-1.5 3-7.5 1.5v-1q7.3 1.5 7-2Zm-161 1 2.5.5-2.5.5zm-28 1 1.5.5q-1.7 2.3-6.5 1.5v-1zm4 0 17.5.5-17.5.5zm60 4 2.5.5-2.5.5zm-18 1 1.5.5-2 .5-.5 6-.5-5.5zm74 0 9.5.5-9.5.5zm54 1 1.5.5-2 .5-.5 2-.5-1.5zm-123 1 1 2zm47 3 16.5.5-16.5.5z"/><path fill="#823b28" stroke="#823b28" d="m59.5 64 .5 2.5h-1zm-49 13 37.5.5-37.5.5zm144 10-1 2zm-117 1 3.5.5-3.5.5zm-10 2 2.5.5-2.5.5zm-3 1L23 93.5l-1.5 6.5-4-2h-16l-1.5.5Q-1 94 1.5 93l9-1 11 2zm26 1 2.5.5-2.5.5zm123 3-1 2q-2.2-.7-1.5 1.5l-5 3.5-8 10.5v23q-2.8 1.8-1 8l1 1v17l1 1v7.5l-4-2v-2.5l-.5-1.5 3 4 .5-5.5-3-4-1.5-10.5q.6 4.6-2 6l-1.5-8.5v-13l-1.5-1.5-4.5 1v-20.5l1-1-1-4 1-2.5zm7 1 1 1h12l6.5-1v6h-7l-.5-4-.5 4-3.5-1-4 1-5-1-1.5.5q2.8-1.2 2.5-5.5ZM61 101l6 1 .5 2h25l2 1h20l4-3h5l-.5 1.5-2 5.5-2.5 1h-54l-3.5-2.5zm-24.5 2q3.4-.9 1.5 4.5l1 2.5h-5v-6zm-33 1h14l4.5 2.5q1.7 4.8-2.5 3.5h-2q-4.7-2.2-13-1L0 110v-5h2.5zm24 0 .5 2.5h-1zm106.5 3h5v6.5l-3.5 1.5-1.5-1.5z"/><path fill="#823b28" stroke="#823b28" d="M20.5 111q2.3-.7 1.5 1.5zm-14 1 6.5.5-6.5.5zm-3 1 .5 2.5H3zm69 4 21.5.5-21.5.5zm56 1 1.5 2.5h-1zm-123 7-2 3zm125 6 1 2q-2.8.7-1-2Zm-114 4-2 3zm24 1q3 1.5 1.5 7.5h-1q.5-6-.5-7.5Zm90 1 14.5.5-14.5.5zm33 0 .5 5.5h-1zm-18 5 .5 5.5h-1zm-126 4-1 2-1.5-.5zm23 0q1.3 3 5.5 2l2 10h4q-1.1-2.7 1.5-2 2-4 10-2l5.5 3.5 3 6-1 5-3.5 3.5-7 1-5-2 4 5 4.5 1.5-6.5.5q-8.3-1.2-11.5-7.5l-5-12v-9l-1-1zM61 159l-1 1q-4-1-2 5l4 2q4 1 5-2l-1-3zm68.5-13q-.2 20.7 10 31l1.5.5-7.5 1.5v-2q-2.2.8-1.5-1.5l-1-2.5h-2q1.1-2.7-1.5-2l-1 1h-17q-3-.5-2.5-4.5 2.6-7.4 8.5-11.5l3-1 3.5 2.5 1.5 2.5 1.5-11-19-.5 21.5-.5zM118 162l-3 3v2h6l-1-3zM12.5 148l2.5.5-2.5.5zm8 3 3.5 1.5 1 4-2.5.5-18 2-4.5-1v-6h2.5l1 1h11zm126 2 .5 3.5h-1zm-64 1 1.5.5-4 1.5-1.5 8-.5-9zm8 1 5.5.5-5.5.5zm7 0q2.3-.7 1.5 1.5zm55 1 1.5 6.5h-1zm-53 2 .5 11.5q-1 3.5-6.5 2.5v-1q4.5 1 5.5-1.5zm48 1 .5 2.5h-1zm17 2 .5 3.5h-1zm-140 1 2.5 1.5 1 2-8.5 3.5H0l.5-6 10 2zm124 1 1.5 3.5h-1zm-114 2 1.5 2.5-2-1zm45 0 1.5 5.5h-1zm71 3 4 6 3.5 2.5-.5 1.5-2-3-4.5-3.5zm-114 1 5 6zm-6 2 1.5 2.5h-1zm52 0 2.5.5-2.5.5zm-60 3 3.5.5-3.5.5zm146 2 4.5.5-4.5.5zm-81 2 8.5.5-8.5.5zm17 0 2.5.5-2.5.5zm4 0 9.5.5-9.5.5zm-108 2 2.5.5-2.5.5zm6 0q6.5-1.5 8 2l1-1h24l3.5 2.5q1.8 5.7-4.5 3.5l-1 1h-23l-2 1-2.5-1 2-6.5-5.5-.5zm170 3 .5 4.5h-1zm18 0 3 1 2.5-1-1 5-8.5 1v-1q2.3.8 1.5-1.5zm-31 14 .5 2.5h-1zm-66 1 10.5.5-10.5.5zm28 0 30.5.5-30.5.5z"/><path fill="#111418" stroke="#111418" d="m110.5 51 .5 4 3 1.5q1.1 3.3-1.5 2.5-3.2 3.8-12 2l-5-1-2-2-9.5-.5L96 55l.5-3 2 4 6 1 5.5-2.5zm40 6 3.5.5-3.5.5zm-76 1 2.5.5-2.5.5zm30 12 30.5 1-1 8.5q2.7 1.8 1 8l-1 5.5-4.5 1 .5-1.5V75h-13.5l-1-1-14.5-.5zm51 3 .5 10.5h-1zM.5 77l3.5.5-3.5.5z" opacity=".996"/><path fill="#111418" stroke="#111418" d="m120.5 81 3.5 2.5q.8 3.8-1.5 4.5-4.5 1-5.5-1.5-.7-3.7 1.5-4.5zm-66 1 .5 3.5h-1zm100 6-1 2-1.5-.5zm-129 3-1 2zm137 0 4.5.5-4.5.5zm8 0 2.5.5-2.5.5zM54 92l2 .5-1 2 .5 1.5H54zm88.5 0 2.5.5-2.5.5zm-77 1 5.5.5-5.5.5zm-31 1 2.5.5-2.5.5zm68 0 22.5.5-22.5.5zm-24 4 18.5.5-18.5.5zm22 0 7.5.5-7.5.5zm17 0 8.5.5-8.5.5zm18 0 5.5.5-5.5.5zm41 4-12 13zm-11 2-3 4zm-143 6 .5 2.5h-1zm5 3 .5 6.5h-1zm136 3 .5 11.5h-1zm-116 1 12.5.5-12.5.5zm111 0 .5 11.5h-1zm-136 1 .5 3.5h-1zm80 0h25l1.5 1.5-1.5-.5h-25zm-61 4 .5 6.5h-1zm6 0 18.5.5-19 .5v18.5l1 1-2-1v-18zm49 1h27l.5 1.5-1.5-.5h-26zm33 4 .5 18.5-2 1 1-1zM28 132l2 .5-1.5 3.5zm96.5 2 .5 7.5-1.5 1.5h-41v-1h41l.5-.5zm-96 5 .5 5.5h-1zm-5 3 .5 5.5h-1zm19 3 1 2zm121 0 .5 11.5h-1zm-86 2 14.5.5-14.5.5zm-48 1 .5 3.5h-1zm129 2 .5 6.5h-1zm6 16 .5 4.5h-1zm-134 4 1 2zm6 0 3 4zm117 1 1 2zm-121 2-1 2-1.5-.5zm133 2 1 2zm-117 2 8.5.5-8.5.5zm131 0 20.5.5-20.5.5zm-113 1 11.5.5-11.5.5zm79 0 11.5.5-11.5.5zm-115 1 2.5.5-2.5.5zm69 0 2.5.5-2.5.5zm-60 1 2.5 1.5-1.5-.5zm153 2 5.5.5-5.5.5zm-127 1 16 1q1.5-2.5 7-1v1H82q2.1 6.4-5 4v-4H65.5zm36 1 50.5.5-15.5.5-1.5 1.5q1.2 4.6-4 2.5l-1.5-4h-28zm-37 2 .5 4.5h-1zm-32 2 5.5.5-5.5.5zm-32 1 4.5.5-4.5.5zm10 0 5.5.5-5.5.5zm166 0 11.5.5-11.5.5zm-18 1 1.5.5-2.5 1.5zm3 0 2.5 1.5-.5 4.5-.5-5zm-101 2 4 5 15.5.5-15.5.5-4.5-4.5zm17 0 3.5.5-3.5.5zm-58 1 3.5.5-3.5.5zm89 0 17.5.5-17.5.5zm32 0 8.5.5-8.5.5zm-109 1 .5 2.5h-1zm59 3 3.5.5-3.5.5zm93 0 .5 2.5h-1z" opacity=".996"/></svg>