<svg width="200" height="200" version="1.1" xmlns="http://www.w3.org/2000/svg" desc="Created with imagetracer.js version 1.2.6" ><path fill="rgb(0,0,0)" stroke="rgb(0,0,0)" stroke-width="1" opacity="0.14901960784313725" d="M 101.5 41 L 108 41.5 L 101.5 42 L 101.5 41 Z " /><path fill="rgb(0,0,0)" stroke="rgb(0,0,0)" stroke-width="1" opacity="0.14901960784313725" d="M 114.5 46 L 115.5 48 L 114.5 46 Z " /><path fill="rgb(0,0,0)" stroke="rgb(0,0,0)" stroke-width="1" opacity="0.14901960784313725" d="M 116.5 50 L 117.5 51 L 152 51.5 L 117.5 52 L 116.5 50 Z " /><path fill="rgb(0,0,0)" stroke="rgb(0,0,0)" stroke-width="1" opacity="0.14901960784313725" d="M 79.5 52 L 85 52.5 L 79.5 53 L 79.5 52 Z " /><path fill="rgb(0,0,0)" stroke="rgb(0,0,0)" stroke-width="1" opacity="0.14901960784313725" d="M 69.5 53 L 73 53.5 L 69.5 54 L 69.5 53 Z " /><path fill="rgb(0,0,0)" stroke="rgb(0,0,0)" stroke-width="1" opacity="0.14901960784313725" d="M 64.5 54 L 67 54.5 L 64.5 55 L 64.5 54 Z " /><path fill="rgb(0,0,0)" stroke="rgb(0,0,0)" stroke-width="1" opacity="0.14901960784313725" d="M 159.5 54 L 160.5 56 L 159.5 54 Z " /><path fill="rgb(0,0,0)" stroke="rgb(0,0,0)" stroke-width="1" opacity="0.14901960784313725" d="M 55.5 57 L 55 58.5 L 54.5 63 L 54 58.5 L 55.5 57 Z " /><path fill="rgb(0,0,0)" stroke="rgb(0,0,0)" stroke-width="1" opacity="0.14901960784313725" d="M 160.5 63 L 161 67.5 L 160 67.5 L 160.5 63 Z " /><path fill="rgb(0,0,0)" stroke="rgb(0,0,0)" stroke-width="1" opacity="0.14901960784313725" d="M 53.5 66 L 54 70.5 L 52.5 72 L 44.5 72 L 44.5 71 L 53 71 L 53.5 66 Z " /><path fill="rgb(0,0,0)" stroke="rgb(0,0,0)" stroke-width="1" opacity="0.14901960784313725" d="M 0.5 71 L 4 71.5 L 0.5 72 L 0.5 71 Z " /><path fill="rgb(0,0,0)" stroke="rgb(0,0,0)" stroke-width="1" opacity="0.14901960784313725" d="M 6.5 71 L 12 71.5 L 6.5 72 L 6.5 71 Z " /><path fill="rgb(0,0,0)" stroke="rgb(0,0,0)" stroke-width="1" opacity="0.14901960784313725" d="M 184.5 71 L 200 71.5 L 184.5 72 L 184.5 71 Z " /><path fill="rgb(0,0,0)" stroke="rgb(0,0,0)" stroke-width="1" opacity="0.14901960784313725" d="M 165.5 85 L 173 85.5 L 165.5 86 L 165.5 85 Z " /><path fill="rgb(0,0,0)" stroke="rgb(0,0,0)" stroke-width="1" opacity="0.14901960784313725" d="M 166.5 182 L 169 182.5 L 166.5 183 L 166.5 182 Z " /><path fill="rgb(0,0,0)" stroke="rgb(0,0,0)" stroke-width="1" opacity="0.14901960784313725" d="M 164.5 184 L 166 184.5 Q 165.3 186.8 161.5 186 L 161.5 185 L 164.5 184 Z " /><path fill="rgb(0,0,0)" stroke="rgb(0,0,0)" stroke-width="1" opacity="0.14901960784313725" d="M 169.5 189 L 171 193.5 L 169.5 200 L 169.5 189 Z " /><path fill="rgb(0,0,0)" stroke="rgb(0,0,0)" stroke-width="1" opacity="0.14901960784313725" d="M 40.5 193 L 43 193.5 L 40.5 194 L 40.5 193 Z " /><path fill="rgb(0,0,0)" stroke="rgb(0,0,0)" stroke-width="1" opacity="0.14901960784313725" d="M 37.5 194 L 38 199.5 L 37 199.5 L 37.5 194 Z " /><path fill="rgb(0,0,0)" stroke="rgb(0,0,0)" stroke-width="1" opacity="0.14901960784313725" d="M 49.5 194 L 50 199.5 L 49 199.5 L 49.5 194 Z " /><path fill="rgb(0,0,0)" stroke="rgb(0,0,0)" stroke-width="1" opacity="0.14901960784313725" d="M 174.5 195 Q 180.2 193.2 178 199.5 L 177 199.5 Q 178.7 194.7 174.5 196 L 174.5 195 Z " /><path fill="rgb(0,0,0)" stroke="rgb(0,0,0)" stroke-width="1" opacity="0" d="M 0 0 L 200 0 L 200 71 L 184.5 71 L 174 73 Q 171.7 76.7 173 85 L 162.5 85 L 161 83.5 L 161 57.5 L 160 56.5 Q 162.8 54.8 158.5 53 L 151.5 51 L 117.5 51 L 116 49.5 L 114 44 L 107.5 41 L 101.5 41 Q 95 42.5 92 47.5 L 91 52 L 69.5 53 L 57.5 56 L 54 58.5 L 53 71 L 6.5 71 L 4.5 72 L 0 71 L 0 0 Z " /><path fill="rgb(0,0,0)" stroke="rgb(0,0,0)" stroke-width="1" opacity="0" d="M 166 183 Q 170.5 181.5 169 186 L 165 185.5 L 166 183 Z " /><path fill="rgb(0,0,0)" stroke="rgb(0,0,0)" stroke-width="1" opacity="0" d="M 50 184 L 58.5 184 L 59 185.5 L 58.5 188 Q 51.3 186.8 49 190.5 L 49 200 L 38 200 L 38 194 L 42.5 194 L 48 192 L 50 188.5 L 50 184 Z " /><path fill="rgb(0,0,0)" stroke="rgb(0,0,0)" stroke-width="1" opacity="0" d="M 170 194 L 177 196 L 177 200 L 170 200 L 170 194 Z " /><path fill="rgb(0,0,0)" stroke="rgb(0,0,0)" stroke-width="1" opacity="0" d="M 0.5 196 L 1 199.5 L 0 199.5 L 0.5 196 Z " /><path fill="rgb(244,195,122)" stroke="rgb(244,195,122)" stroke-width="1" opacity="1" d="M 83.5 58 Q 93.4 56.1 96.5 61 L 110.5 61 L 115.5 58 L 149.5 58 L 151.5 59 L 153 58.5 L 154 60.5 L 142.5 64 L 109.5 64 L 103.5 69 L 68.5 69 L 66 70 L 65 72.5 L 65 93 L 60 92.5 L 60 62 L 83.5 58 Z " /><path fill="rgb(244,195,122)" stroke="rgb(244,195,122)" stroke-width="1" opacity="1" d="M 2.5 78 L 53.5 78 L 54 83 L 37.5 86 L 33.5 88 L 9.5 88 L 8.5 87 L 0 87 L 0 79.5 L 1.5 79 L 2.5 78 Z " /><path fill="rgb(244,195,122)" stroke="rgb(244,195,122)" stroke-width="1" opacity="1" d="M 181 79 L 193.5 79 L 194 80.5 L 193 83.5 L 194 84.5 L 194 96 L 183.5 95 L 181.5 95 Q 178.9 95.8 180 92.5 L 181 91.5 L 181 79 Z " /><path fill="rgb(244,195,122)" stroke="rgb(244,195,122)" stroke-width="1" opacity="1" d="M 162.5 92 L 171.5 92 L 173 93.5 Q 173.8 95.8 171.5 95 L 162.5 99 L 144.5 103 L 143.5 102 L 126 102 L 127.5 99 L 144.5 99 L 162.5 92 Z " /><path fill="rgb(244,195,122)" stroke="rgb(244,195,122)" stroke-width="1" opacity="1" d="M 47.5 93 L 54 93 L 54 98 L 60.5 98 L 61 100 L 31 100 L 31 129.5 L 29 130 L 28 101.5 L 29 96 L 47.5 93 Z " /><path fill="rgb(244,195,122)" stroke="rgb(244,195,122)" stroke-width="1" opacity="1" d="M 8.5 98 Q 13.3 96.3 12 100.5 L 9.5 103 L 0 104 L 0 100 L 1.5 100 L 8.5 98 Z " /><path fill="rgb(244,195,122)" stroke="rgb(244,195,122)" stroke-width="1" opacity="1" d="M 67 99 L 117.5 99 L 119 100.5 L 114.5 102 L 113.5 101 L 67 101 L 67 99 Z " /><path fill="rgb(244,195,122)" stroke="rgb(244,195,122)" stroke-width="1" opacity="1" d="M 178.5 102 Q 181.1 101.3 180 104 Q 177.3 102.9 178 105.5 Q 173 109 172 115 L 169 116.5 L 167 125.5 L 167 135.5 L 164.5 145 L 164 128.5 Q 166.5 127 165 121.5 L 164 117.5 L 178.5 102 Z " /><path fill="rgb(244,195,122)" stroke="rgb(244,195,122)" stroke-width="1" opacity="1" d="M 8.5 109 L 21 112 L 20.5 115 Q 14.8 110 3 112 Q 2 119.5 5 123 Q 14.7 121 17 127.5 L 18.5 130 Q 24.2 128.4 22 134 L 17.5 133 L 12.5 138 L 8.5 139 L 6.5 138 L 1 146.5 Q 3.8 151.2 12.5 150 L 21.5 147 Q 25 149 20.5 151 L 1.5 152 Q -1 151 0 146.5 Q 3 143.5 3 137.5 L 0 130.5 L 3 122.5 L 0 115.5 L 0 111 L 8.5 109 Z M 6 124 L 2 128 Q 1 135 6 137 L 13 136 L 16 132 L 15 126 L 12 124 L 6 124 Z " /><path fill="rgb(244,195,122)" stroke="rgb(244,195,122)" stroke-width="1" opacity="1" d="M 29 137 L 40 138 L 42 150.5 L 40.5 152 L 31 152 L 29 137 Z " /><path fill="rgb(244,195,122)" stroke="rgb(244,195,122)" stroke-width="1" opacity="1" d="M 132.5 139 L 144 139 L 144 146.5 L 145 149.5 L 143.5 151 L 131 151 L 131 140.5 L 132.5 139 Z " /><path fill="rgb(244,195,122)" stroke="rgb(244,195,122)" stroke-width="1" opacity="1" d="M 0 159 L 10 160 L 10 164 L 8.5 164 L 0 162 L 0 159 Z " /><path fill="rgb(244,195,122)" stroke="rgb(244,195,122)" stroke-width="1" opacity="1" d="M 60.5 160 L 64 161.5 L 60.5 166 L 58 161 L 60.5 160 Z " /><path fill="rgb(244,195,122)" stroke="rgb(244,195,122)" stroke-width="1" opacity="1" d="M 158 191 L 163 192 Q 164.3 196.6 161.5 198 L 158 198 L 158 191 Z " /><path fill="rgb(244,195,122)" stroke="rgb(244,195,122)" stroke-width="1" opacity="1" d="M 56 194 L 60 194 L 60 195.5 L 61 198 Q 53.9 200.4 56 194 Z " /><path fill="rgb(82,191,157)" stroke="rgb(82,191,157)" stroke-width="1" opacity="1" d="M 100.5 48 Q 106.6 47.3 109 49 L 110 55 Q 107 57 99.5 56 Q 96.5 55.5 97 51.5 L 100.5 48 Z " /><path fill="rgb(82,191,157)" stroke="rgb(82,191,157)" stroke-width="1" opacity="1" d="M 71 75 L 116.5 75 L 117.5 76 L 129 76 L 129 94 L 97.5 94 L 96.5 93 L 81.5 93 L 77.5 94 L 71 93 L 71 75 Z M 77 80 L 73 84 L 74 87 Q 75 89 80 88 L 82 85 L 81 83 Q 81 80 77 80 Z M 120 80 L 117 81 L 116 84 L 117 88 L 123 89 Q 126 88 125 83 L 120 80 Z " /><path fill="rgb(82,191,157)" stroke="rgb(82,191,157)" stroke-width="1" opacity="1" d="M 49 126 L 61 126 L 61 138 L 50.5 138 L 49 136.5 L 49 126 Z " /><path fill="rgb(82,191,157)" stroke="rgb(82,191,157)" stroke-width="1" opacity="1" d="M 64 126 L 76 126 L 76 138 L 65.5 138 L 64 136.5 L 64 126 Z " /><path fill="rgb(82,191,157)" stroke="rgb(82,191,157)" stroke-width="1" opacity="1" d="M 78 126 L 90 126 L 90 138 L 79.5 138 L 78 136.5 L 78 126 Z " /><path fill="rgb(82,191,157)" stroke="rgb(82,191,157)" stroke-width="1" opacity="1" d="M 93 126 L 105 126 L 105 138 L 93 138 L 93 126 Z " /><path fill="rgb(82,191,157)" stroke="rgb(82,191,157)" stroke-width="1" opacity="1" d="M 84 160 L 92.5 160 L 93 162 L 90 163.5 L 94 164 L 92.5 167 Q 86.4 167.8 84 166 L 84 160 Z " /><path fill="rgb(82,191,157)" stroke="rgb(82,191,157)" stroke-width="1" opacity="1" d="M 66 189 L 76.5 189 L 77 192 Q 69.4 193.1 66 191 L 66 189 Z " /><path fill="rgb(82,191,157)" stroke="rgb(82,191,157)" stroke-width="1" opacity="1" d="M 83 189 L 86.5 190 L 119.5 190 Q 121 187.5 126.5 189 L 130 190 L 129.5 193 L 99.5 193 L 98.5 192 L 83 192 L 83 189 Z " /><path fill="rgb(82,191,157)" stroke="rgb(82,191,157)" stroke-width="1" opacity="1" d="M 137.5 189 L 138.5 190 L 149.5 190 Q 150.8 187.8 152 190.5 L 150.5 193 L 136.5 193 L 136 190.5 L 137.5 189 Z " /><path fill="rgb(82,191,157)" stroke="rgb(82,191,157)" stroke-width="1" opacity="1" d="M 17.5 194 L 26.5 194 L 28 195.5 L 22.5 200 L 8.5 200 Q 6 198.8 7 195 L 16.5 195 L 17.5 194 Z " /><path fill="rgb(82,191,157)" stroke="rgb(82,191,157)" stroke-width="1" opacity="1" d="M 184 195 L 195 195.5 L 185.5 200 Q 183 198.8 184 195 Z " /><path fill="rgb(82,191,157)" stroke="rgb(82,191,157)" stroke-width="1" opacity="1" d="M 199.5 196 L 200 200 L 194 199.5 L 199.5 196 Z " /><path fill="rgb(82,191,157)" stroke="rgb(82,191,157)" stroke-width="1" opacity="1" d="M 29.5 198 Q 32.1 197.3 31 200 L 28 199.5 L 29.5 198 Z " /><path fill="rgb(43,92,92)" stroke="rgb(43,92,92)" stroke-width="1" opacity="1" d="M 102.5 47 L 106 47.5 L 102.5 48 L 102.5 47 Z " /><path fill="rgb(43,92,92)" stroke="rgb(43,92,92)" stroke-width="1" opacity="1" d="M 99.5 48 L 98.5 50 L 99.5 48 Z " /><path fill="rgb(43,92,92)" stroke="rgb(43,92,92)" stroke-width="1" opacity="1" d="M 97.5 54 L 98.5 56 L 97.5 54 Z " /><path fill="rgb(43,92,92)" stroke="rgb(43,92,92)" stroke-width="1" opacity="1" d="M 67.5 70 L 103 70.5 L 101 75 L 71 75 L 71 93 L 65 93 Q 67.4 85.1 66 71.5 L 67.5 70 Z " /><path fill="rgb(43,92,92)" stroke="rgb(43,92,92)" stroke-width="1" opacity="1" d="M 117.5 75 L 128.5 75 L 130 76.5 L 129.5 84 L 129 76 L 117.5 76 L 117.5 75 Z " /><path fill="rgb(43,92,92)" stroke="rgb(43,92,92)" stroke-width="1" opacity="1" d="M 76.5 80 Q 80.5 79.5 81 82.5 L 82 84.5 L 79.5 88 Q 75 89 74 86.5 L 73 83.5 L 76.5 80 Z " /><path fill="rgb(43,92,92)" stroke="rgb(43,92,92)" stroke-width="1" opacity="1" d="M 119.5 80 L 122 80.5 L 119.5 81 L 119.5 80 Z " /><path fill="rgb(43,92,92)" stroke="rgb(43,92,92)" stroke-width="1" opacity="1" d="M 123.5 81 L 124.5 83 L 123.5 81 Z " /><path fill="rgb(43,92,92)" stroke="rgb(43,92,92)" stroke-width="1" opacity="1" d="M 116.5 83 L 117 85.5 L 116 85.5 L 116.5 83 Z " /><path fill="rgb(43,92,92)" stroke="rgb(43,92,92)" stroke-width="1" opacity="1" d="M 124.5 86 L 122.5 89 L 119 88.5 Q 123.3 88.8 124.5 86 Z " /><path fill="rgb(43,92,92)" stroke="rgb(43,92,92)" stroke-width="1" opacity="1" d="M 129.5 86 L 130 89.5 L 129 89.5 L 129.5 86 Z " /><path fill="rgb(43,92,92)" stroke="rgb(43,92,92)" stroke-width="1" opacity="1" d="M 72.5 93 L 77 93.5 L 72.5 94 L 72.5 93 Z " /><path fill="rgb(43,92,92)" stroke="rgb(43,92,92)" stroke-width="1" opacity="1" d="M 81.5 93 L 97 93.5 L 81.5 94 L 81.5 93 Z " /><path fill="rgb(43,92,92)" stroke="rgb(43,92,92)" stroke-width="1" opacity="1" d="M 49.5 137 L 50.5 138 L 59 138.5 L 50.5 139 L 49.5 137 Z " /><path fill="rgb(43,92,92)" stroke="rgb(43,92,92)" stroke-width="1" opacity="1" d="M 78.5 137 L 87 138.5 L 79.5 139 L 78.5 137 Z " /><path fill="rgb(43,92,92)" stroke="rgb(43,92,92)" stroke-width="1" opacity="1" d="M 66.5 138 L 73 138.5 L 66.5 139 L 66.5 138 Z " /><path fill="rgb(43,92,92)" stroke="rgb(43,92,92)" stroke-width="1" opacity="1" d="M 96.5 138 L 102 138.5 L 96.5 139 L 96.5 138 Z " /><path fill="rgb(43,92,92)" stroke="rgb(43,92,92)" stroke-width="1" opacity="1" d="M 83.5 159 L 84 163.5 L 83 163.5 L 83.5 159 Z " /><path fill="rgb(43,92,92)" stroke="rgb(43,92,92)" stroke-width="1" opacity="1" d="M 93.5 160 L 94 164 L 90 163.5 L 93 162 L 93.5 160 Z " /><path fill="rgb(43,92,92)" stroke="rgb(43,92,92)" stroke-width="1" opacity="1" d="M 66 184 L 74.5 184 L 76 185.5 L 77.5 188 L 82 188 L 82.5 184 L 89.5 184 L 90.5 185 L 128.5 185 L 130 186.5 L 130 189 L 136 189 L 137.5 185 L 150.5 185 L 152 186.5 L 151.5 190 L 149.5 190 L 138.5 190 L 137.5 189 L 136 193 L 128.5 194 L 128.5 193 Q 131.5 193.7 130 190 L 120.5 189 L 119.5 190 L 86.5 190 L 83 189 L 83.5 192 L 98.5 192 L 98.5 193 L 83.5 193 L 77 192 L 76.5 189 L 66 189 Q 64.9 191.7 67.5 191 L 67.5 192 L 65 190.5 L 66 184 Z " /><path fill="rgb(43,92,92)" stroke="rgb(43,92,92)" stroke-width="1" opacity="1" d="M 10.5 194 L 17 194.5 L 10.5 195 L 10.5 194 Z " /><path fill="rgb(43,92,92)" stroke="rgb(43,92,92)" stroke-width="1" opacity="1" d="M 27.5 194 Q 32.8 192.3 31 197.5 L 32 199.5 L 31 199.5 Q 31.8 197.3 29.5 198 Q 28.5 201 23.5 200 L 25.5 197 L 28 195.5 L 27.5 194 Z " /><path fill="rgb(43,92,92)" stroke="rgb(43,92,92)" stroke-width="1" opacity="1" d="M 186.5 194 L 199.5 194 L 200 195.5 Q 196.9 201.4 186.5 200 L 186.5 199 L 195 195.5 L 186.5 195 L 186.5 194 Z " /><path fill="rgb(0,0,0)" stroke="rgb(0,0,0)" stroke-width="1" opacity="0.4745098039215686" d="M 95.5 44 L 93.5 47 L 95.5 44 Z " /><path fill="rgb(0,0,0)" stroke="rgb(0,0,0)" stroke-width="1" opacity="0.4745098039215686" d="M 112.5 44 L 113.5 46 L 112.5 44 Z " /><path fill="rgb(0,0,0)" stroke="rgb(0,0,0)" stroke-width="1" opacity="0.4745098039215686" d="M 91.5 50 L 92 51.5 Q 90.8 54.3 85.5 53 L 85.5 52 Q 91.9 54 91.5 50 Z " /><path fill="rgb(0,0,0)" stroke="rgb(0,0,0)" stroke-width="1" opacity="0.4745098039215686" d="M 73.5 53 L 77 53.5 L 73.5 54 L 73.5 53 Z " /><path fill="rgb(0,0,0)" stroke="rgb(0,0,0)" stroke-width="1" opacity="0.4745098039215686" d="M 67.5 54 L 70 54.5 L 67.5 55 L 67.5 54 Z " /><path fill="rgb(0,0,0)" stroke="rgb(0,0,0)" stroke-width="1" opacity="0.4745098039215686" d="M 160.5 58 L 161 62.5 L 160 62.5 L 160.5 58 Z " /><path fill="rgb(0,0,0)" stroke="rgb(0,0,0)" stroke-width="1" opacity="0.4745098039215686" d="M 54.5 63 L 55 65.5 L 54 65.5 L 54.5 63 Z " /><path fill="rgb(0,0,0)" stroke="rgb(0,0,0)" stroke-width="1" opacity="0.4745098039215686" d="M 160.5 68 L 161 85 L 165 85.5 L 161.5 86 L 160 84.5 L 160.5 68 Z " /><path fill="rgb(0,0,0)" stroke="rgb(0,0,0)" stroke-width="1" opacity="0.4745098039215686" d="M 12.5 71 L 44 71.5 L 12.5 72 L 12.5 71 Z " /><path fill="rgb(0,0,0)" stroke="rgb(0,0,0)" stroke-width="1" opacity="0.4745098039215686" d="M 178.5 72 L 184 72.5 L 178.5 73 L 178.5 72 Z " /><path fill="rgb(0,0,0)" stroke="rgb(0,0,0)" stroke-width="1" opacity="0.4745098039215686" d="M 175.5 73 L 174.5 75 L 175.5 73 Z " /><path fill="rgb(0,0,0)" stroke="rgb(0,0,0)" stroke-width="1" opacity="0.4745098039215686" d="M 173.5 76 L 174 85.5 L 173 85.5 L 173.5 76 Z " /><path fill="rgb(0,0,0)" stroke="rgb(0,0,0)" stroke-width="1" opacity="0.4745098039215686" d="M 50.5 183 L 53 183.5 L 50 184 L 49.5 187 L 49 184.5 L 50.5 183 Z " /><path fill="rgb(0,0,0)" stroke="rgb(0,0,0)" stroke-width="1" opacity="0.4745098039215686" d="M 54.5 183 Q 59 182 60 184.5 L 59.5 187 L 59 184 L 54.5 184 L 54.5 183 Z " /><path fill="rgb(0,0,0)" stroke="rgb(0,0,0)" stroke-width="1" opacity="0.4745098039215686" d="M 169.5 183 L 170 188.5 L 168.5 193 L 168 188.5 L 169.5 183 Z " /><path fill="rgb(0,0,0)" stroke="rgb(0,0,0)" stroke-width="1" opacity="0.4745098039215686" d="M 159.5 184 L 164 184.5 L 160.5 186 L 158 185.5 L 159.5 184 Z " /><path fill="rgb(0,0,0)" stroke="rgb(0,0,0)" stroke-width="1" opacity="0.4745098039215686" d="M 53.5 188 L 57 188.5 L 53.5 189 L 53.5 188 Z " /><path fill="rgb(0,0,0)" stroke="rgb(0,0,0)" stroke-width="1" opacity="0.4745098039215686" d="M 49.5 191 L 50 193.5 L 49 193.5 L 49.5 191 Z " /><path fill="rgb(0,0,0)" stroke="rgb(0,0,0)" stroke-width="1" opacity="0.4745098039215686" d="M 170.5 192 L 171.5 194 L 170.5 192 Z " /><path fill="rgb(0,0,0)" stroke="rgb(0,0,0)" stroke-width="1" opacity="0.4745098039215686" d="M 173.5 194 L 177 194.5 L 173.5 195 L 173.5 194 Z " /><path fill="rgb(0,0,0)" stroke="rgb(0,0,0)" stroke-width="1" opacity="0.4745098039215686" d="M 0.5 195 L 2 197.5 L 1 197.5 L 0.5 195 Z " /><path fill="rgb(203,92,62)" stroke="rgb(203,92,62)" stroke-width="1" opacity="1" d="M 141.5 57 L 144 57.5 L 141.5 58 L 141.5 57 Z " /><path fill="rgb(203,92,62)" stroke="rgb(203,92,62)" stroke-width="1" opacity="1" d="M 148.5 62 Q 155.7 59.7 153 67.5 L 150 76.5 L 149 89 L 151 89.5 L 138.5 93 L 138.5 92 L 141 91.5 L 141 66.5 L 139 65.5 L 135.5 70 L 110.5 70 L 108.5 69 L 104.5 70 L 104.5 69 L 108 68.5 L 107.5 67 Q 109 69.5 110.5 66 L 112 65.5 L 111.5 64 Q 113.3 66.8 119.5 65 L 120.5 64 L 143.5 64 L 148.5 62 Z " /><path fill="rgb(203,92,62)" stroke="rgb(203,92,62)" stroke-width="1" opacity="1" d="M 154.5 62 L 155 86.5 L 153 87.5 L 154 86.5 L 154.5 62 Z " /><path fill="rgb(203,92,62)" stroke="rgb(203,92,62)" stroke-width="1" opacity="1" d="M 194.5 78 L 200 78.5 L 194.5 79 L 194.5 78 Z " /><path fill="rgb(203,92,62)" stroke="rgb(203,92,62)" stroke-width="1" opacity="1" d="M 51.5 83 L 54 83.5 L 52.5 86 L 33.5 89 L 33.5 88 L 51.5 83 Z " /><path fill="rgb(203,92,62)" stroke="rgb(203,92,62)" stroke-width="1" opacity="1" d="M 0 88 L 29.5 88 L 32 89.5 L 24.5 91 Q 24 94.5 19.5 94 L 8.5 92 L 0.5 94 L 0 88 Z " /><path fill="rgb(203,92,62)" stroke="rgb(203,92,62)" stroke-width="1" opacity="1" d="M 181.5 96 L 194 96.5 L 181.5 97 L 181.5 96 Z " /><path fill="rgb(203,92,62)" stroke="rgb(203,92,62)" stroke-width="1" opacity="1" d="M 61 98 L 66 98 L 66 101 Q 69.1 100.3 68.5 103 L 77.5 103 L 84 102 L 83.5 104 L 67 104 Q 68.1 101.3 65.5 102 L 61 101 Q 59.3 107.1 62.5 109 L 64.5 110 L 118.5 110 L 121 109 L 124 102.5 L 119 101.5 L 120 99 L 126 99.5 L 122 100.5 L 125.5 103 L 143.5 103 L 144.5 104 L 146.5 103 L 146.5 104 Q 144.3 103.3 145 105.5 L 144 109.5 L 144 111.5 Q 146 120 141.5 122 L 139 123.5 Q 139.8 125.8 137.5 125 L 132 129.5 L 131.5 132 L 130 130.5 L 130 119.5 L 128.5 118 L 43.5 117 L 41 119.5 L 41 129.5 L 39.5 131 L 40 129.5 Q 42.3 122.2 37 124 Q 38.1 126.7 35.5 126 L 32 128 L 31 100 L 35.5 101 L 36.5 100 L 53.5 100 L 54.5 101 L 61 101 L 61 98 Z M 37 103 L 34 104 L 34 110 L 39 110 L 38 108 Q 40 102 37 103 Z M 134 107 L 134 114 L 136 115 L 139 114 L 139 107 L 134 107 Z " /><path fill="rgb(203,92,62)" stroke="rgb(203,92,62)" stroke-width="1" opacity="1" d="M 192.5 98 L 193 102 L 199.5 102 L 200 102.5 L 200 177 L 173.5 177 L 171 176 L 170 170.5 L 170 156.5 L 182 148.5 L 171 136.5 L 171 120.5 L 187 103.5 L 186.5 102 L 188.5 101 L 192 102 L 192.5 98 Z " /><path fill="rgb(203,92,62)" stroke="rgb(203,92,62)" stroke-width="1" opacity="1" d="M 180.5 101 L 184 101.5 L 180.5 102 L 180.5 101 Z " /><path fill="rgb(203,92,62)" stroke="rgb(203,92,62)" stroke-width="1" opacity="1" d="M 96 102 L 101.5 102 L 102 104 L 108 104 L 108 102 L 114 102 L 115 104.5 L 94.5 105 L 94.5 104 Q 97.1 104.7 96 102 Z " /><path fill="rgb(203,92,62)" stroke="rgb(203,92,62)" stroke-width="1" opacity="1" d="M 116 102 L 118 102.5 L 116 103.5 L 116 102 Z " /><path fill="rgb(203,92,62)" stroke="rgb(203,92,62)" stroke-width="1" opacity="1" d="M 31.5 136 L 40 136.5 L 31.5 137 L 31.5 136 Z " /><path fill="rgb(203,92,62)" stroke="rgb(203,92,62)" stroke-width="1" opacity="1" d="M 48 148 L 105.5 148 L 106.5 149 L 125 149 L 123.5 160 L 120.5 156 L 117.5 155 L 110 161.5 L 107 169.5 L 109.5 172 L 126.5 172 L 129 171 L 129 173 Q 131.7 171.9 131 174.5 L 131.5 176 L 129.5 174 L 62.5 174 L 63.5 176 L 65 176.5 L 63.5 177 L 57 171.5 L 58.5 171 L 65.5 173 L 69.5 172 L 73 168.5 L 74 163.5 L 68.5 155 L 57.5 154 L 54 156 Q 55.2 159.7 50 158 L 48 148 Z M 83 154 L 78 155 L 78 164 L 80 171 L 83 172 L 98 172 L 100 170 Q 101 160 99 155 L 85 155 L 83 154 Z " /><path fill="rgb(203,92,62)" stroke="rgb(203,92,62)" stroke-width="1" opacity="1" d="M 153.5 148 L 155 158.5 L 158 162.5 L 158 167.5 L 156 166.5 L 154 163.5 L 152 153.5 L 153.5 148 Z " /><path fill="rgb(203,92,62)" stroke="rgb(203,92,62)" stroke-width="1" opacity="1" d="M 42.5 149 L 43 157.5 L 42 157.5 L 42.5 149 Z " /><path fill="rgb(203,92,62)" stroke="rgb(203,92,62)" stroke-width="1" opacity="1" d="M 164.5 149 L 165 160.5 L 164 160.5 L 164.5 149 Z " /><path fill="rgb(203,92,62)" stroke="rgb(203,92,62)" stroke-width="1" opacity="1" d="M 12.5 152 L 15 152.5 L 12.5 153 L 12.5 152 Z " /><path fill="rgb(203,92,62)" stroke="rgb(203,92,62)" stroke-width="1" opacity="1" d="M 130.5 152 L 131 156.5 L 130 156.5 L 130.5 152 Z " /><path fill="rgb(203,92,62)" stroke="rgb(203,92,62)" stroke-width="1" opacity="1" d="M 145.5 152 L 147 160.5 L 146 160.5 L 145.5 152 Z " /><path fill="rgb(203,92,62)" stroke="rgb(203,92,62)" stroke-width="1" opacity="1" d="M 31.5 154 L 32 156.5 L 31 156.5 L 31.5 154 Z " /><path fill="rgb(203,92,62)" stroke="rgb(203,92,62)" stroke-width="1" opacity="1" d="M 23.5 156 L 24.5 158 L 23.5 156 Z " /><path fill="rgb(203,92,62)" stroke="rgb(203,92,62)" stroke-width="1" opacity="1" d="M 11.5 158 L 14 158.5 L 11.5 159 L 11.5 158 Z " /><path fill="rgb(203,92,62)" stroke="rgb(203,92,62)" stroke-width="1" opacity="1" d="M 131.5 158 L 134 163.5 L 134 165.5 L 133.5 167 L 131 160.5 L 131.5 158 Z " /><path fill="rgb(203,92,62)" stroke="rgb(203,92,62)" stroke-width="1" opacity="1" d="M 43.5 159 L 48 169.5 L 45 167.5 Q 42 164.1 43.5 159 Z " /><path fill="rgb(203,92,62)" stroke="rgb(203,92,62)" stroke-width="1" opacity="1" d="M 64.5 160 L 65.5 162 L 64.5 160 Z " /><path fill="rgb(203,92,62)" stroke="rgb(203,92,62)" stroke-width="1" opacity="1" d="M 117.5 162 L 120 163.5 L 121 167 L 115 167 L 115 164.5 L 117.5 162 Z " /><path fill="rgb(203,92,62)" stroke="rgb(203,92,62)" stroke-width="1" opacity="1" d="M 6.5 164 L 11 164.5 L 6.5 165 L 6.5 164 Z " /><path fill="rgb(203,92,62)" stroke="rgb(203,92,62)" stroke-width="1" opacity="1" d="M 27.5 166 L 31 174 L 22.5 174 L 21.5 175 L 0 175 L 0 169.5 L 0.5 169 L 19.5 169 L 27.5 166 Z " /><path fill="rgb(203,92,62)" stroke="rgb(203,92,62)" stroke-width="1" opacity="1" d="M 134.5 168 L 135 170 L 138 170.5 L 135.5 172 L 134.5 168 Z " /><path fill="rgb(203,92,62)" stroke="rgb(203,92,62)" stroke-width="1" opacity="1" d="M 48.5 171 L 55 176.5 L 53.5 176 L 48.5 171 Z " /><path fill="rgb(203,92,62)" stroke="rgb(203,92,62)" stroke-width="1" opacity="1" d="M 165.5 171 L 166 173.5 L 165 173.5 L 165.5 171 Z " /><path fill="rgb(203,92,62)" stroke="rgb(203,92,62)" stroke-width="1" opacity="1" d="M 136.5 173 L 143 177.5 L 141.5 178 L 136.5 173 Z " /><path fill="rgb(203,92,62)" stroke="rgb(203,92,62)" stroke-width="1" opacity="1" d="M 155.5 175 L 157 177.5 L 156 177.5 L 155.5 175 Z " /><path fill="rgb(203,92,62)" stroke="rgb(203,92,62)" stroke-width="1" opacity="1" d="M 66.5 177 L 80 177.5 L 66.5 178 L 66.5 177 Z " /><path fill="rgb(203,92,62)" stroke="rgb(203,92,62)" stroke-width="1" opacity="1" d="M 132.5 177 L 134 177.5 L 132.5 179 L 118.5 179 L 118.5 178 L 131.5 178 L 132.5 177 Z " /><path fill="rgb(203,92,62)" stroke="rgb(203,92,62)" stroke-width="1" opacity="1" d="M 96.5 178 L 104 178.5 L 96.5 179 L 96.5 178 Z " /><path fill="rgb(203,92,62)" stroke="rgb(203,92,62)" stroke-width="1" opacity="1" d="M 56 198 L 96.5 198 L 97.5 199 L 155.5 199 Q 156.7 196.7 161.5 198 L 162.5 200 L 56.5 200 L 56 198 Z " /><path fill="rgb(0,0,0)" stroke="rgb(0,0,0)" stroke-width="1" opacity="0.9450980392156862" d="M 101.5 42 L 104 42.5 L 101.5 43 L 101.5 42 Z " /><path fill="rgb(0,0,0)" stroke="rgb(0,0,0)" stroke-width="1" opacity="0.9450980392156862" d="M 98.5 43 L 100 43.5 L 93.5 48 L 96.5 44 L 98.5 43 Z " /><path fill="rgb(0,0,0)" stroke="rgb(0,0,0)" stroke-width="1" opacity="0.9450980392156862" d="M 111.5 44 L 116 49.5 L 114 48.5 L 111.5 44 Z " /><path fill="rgb(0,0,0)" stroke="rgb(0,0,0)" stroke-width="1" opacity="0.9450980392156862" d="M 120.5 52 L 153 52.5 L 120.5 53 L 120.5 52 Z " /><path fill="rgb(0,0,0)" stroke="rgb(0,0,0)" stroke-width="1" opacity="0.9450980392156862" d="M 77.5 53 L 80 53.5 L 77.5 54 L 77.5 53 Z " /><path fill="rgb(0,0,0)" stroke="rgb(0,0,0)" stroke-width="1" opacity="0.9450980392156862" d="M 70.5 54 L 74 54.5 L 70.5 55 L 70.5 54 Z " /><path fill="rgb(0,0,0)" stroke="rgb(0,0,0)" stroke-width="1" opacity="0.9450980392156862" d="M 158.5 54 L 160 56.5 L 159 56.5 L 158.5 54 Z " /><path fill="rgb(0,0,0)" stroke="rgb(0,0,0)" stroke-width="1" opacity="0.9450980392156862" d="M 64.5 55 L 68 55.5 L 64.5 56 L 64.5 55 Z " /><path fill="rgb(0,0,0)" stroke="rgb(0,0,0)" stroke-width="1" opacity="0.9450980392156862" d="M 60.5 56 L 63 56.5 L 60.5 57 L 60.5 56 Z " /><path fill="rgb(0,0,0)" stroke="rgb(0,0,0)" stroke-width="1" opacity="0.9450980392156862" d="M 56.5 57 L 55.5 59 L 56.5 57 Z " /><path fill="rgb(0,0,0)" stroke="rgb(0,0,0)" stroke-width="1" opacity="0.9450980392156862" d="M 54.5 66 L 55 73 L 9 72.5 L 54 72 L 54.5 66 Z " /><path fill="rgb(0,0,0)" stroke="rgb(0,0,0)" stroke-width="1" opacity="0.9450980392156862" d="M 0.5 72 L 8 72.5 L 0.5 73 L 0.5 72 Z " /><path fill="rgb(0,0,0)" stroke="rgb(0,0,0)" stroke-width="1" opacity="0.9450980392156862" d="M 184.5 72 L 200 72.5 L 184.5 73 L 184.5 72 Z " /><path fill="rgb(0,0,0)" stroke="rgb(0,0,0)" stroke-width="1" opacity="0.9450980392156862" d="M 176.5 73 L 178 73.5 L 174.5 76 L 176.5 73 Z " /><path fill="rgb(0,0,0)" stroke="rgb(0,0,0)" stroke-width="1" opacity="0.9450980392156862" d="M 165 181 L 168 181.5 L 164.5 184 L 165 182.5 L 165 181 Z " /><path fill="rgb(0,0,0)" stroke="rgb(0,0,0)" stroke-width="1" opacity="0.9450980392156862" d="M 157 184 L 159 184.5 L 157 185.5 L 157 184 Z " /><path fill="rgb(0,0,0)" stroke="rgb(0,0,0)" stroke-width="1" opacity="0.9450980392156862" d="M 166.5 186 L 167.5 188 Q 164.7 188.7 166.5 186 Z " /><path fill="rgb(0,0,0)" stroke="rgb(0,0,0)" stroke-width="1" opacity="0.9450980392156862" d="M 158.5 189 L 161 190.5 L 159.5 190 L 158.5 189 Z " /><path fill="rgb(0,0,0)" stroke="rgb(0,0,0)" stroke-width="1" opacity="0.9450980392156862" d="M 46.5 190 L 48 190.5 L 44.5 192 L 44.5 191 L 46.5 190 Z " /><path fill="rgb(0,0,0)" stroke="rgb(0,0,0)" stroke-width="1" opacity="0.9450980392156862" d="M 170.5 190 L 171 192 Q 173.7 190.9 173 193.5 L 170 191.5 L 170.5 190 Z " /><path fill="rgb(0,0,0)" stroke="rgb(0,0,0)" stroke-width="1" opacity="0.9450980392156862" d="M 37.5 193 L 37 194.5 L 36.5 200 L 36 194.5 L 37.5 193 Z " /><path fill="rgb(0,0,0)" stroke="rgb(0,0,0)" stroke-width="1" opacity="0.9450980392156862" d="M 168.5 193 L 169 199.5 L 168 199.5 L 168.5 193 Z " /><path fill="rgb(0,0,0)" stroke="rgb(0,0,0)" stroke-width="1" opacity="0.9450980392156862" d="M 177.5 194 Q 180 195 179 199.5 L 178 199.5 L 177.5 194 Z " /><path fill="rgb(0,0,0)" stroke="rgb(0,0,0)" stroke-width="1" opacity="1" d="M 104.5 42 Q 111.1 42.9 114 47.5 L 116 52 L 120.5 53 L 158 53 L 160 57.5 L 160 86 L 174 86 L 174 76.5 L 178.5 73 L 200 73 L 199.5 78 L 180.5 78 L 179 80.5 L 180 81.5 L 180 94.5 Q 177.7 95.7 179 100.5 L 177.5 102 L 164 114.5 L 163 116.5 L 163 156.5 L 164 159.5 Q 162.5 171 166.5 177 L 200 178 L 199.5 182 L 176 182 L 176 190 L 200 189 L 200 194 L 183.5 194 L 183 194.5 L 183 200 L 179 200 Q 180.3 195.4 177.5 194 L 173 194 L 173 192 Q 170.3 193.1 171 190.5 L 170 189.5 L 170 182 L 165 181 L 163.5 184 Q 155.9 182.5 157 186 L 165.5 186 Q 164.9 188.8 168 188 L 168 200 L 164 200 L 164 191.5 L 158 189 L 157 191.5 L 158 195.5 L 155.5 198 L 94.5 198 L 90.5 197 Q 89.2 199.3 84.5 198 L 82.5 197 L 80.5 198 L 79.5 197 L 64.5 197 L 61 193.5 L 60.5 192 L 55 193 L 55 200 L 51 200 Q 49.1 197.3 50 190.5 L 51.5 189 L 60 189 L 60 183 L 50.5 183 L 48 190 L 36 194.5 Q 38.4 202.3 32 200 L 32 194 L 23.5 194 L 19.5 193 L 18.5 194 L 7 194 L 7 200 L 3 200 L 2 195 L 0 195 L 0 190 L 37.5 189 L 44 186.5 Q 43.8 181.8 40.5 180 L 30.5 179 L 29.5 180 L 0 180 L 0.5 175 L 31.5 175 Q 34.3 173.8 32 172.5 L 24 153.5 L 23 114.5 L 22 113.5 L 23 110.5 Q 20.3 108.7 22 102.5 Q 24.5 101 23 95.5 L 26.5 91 L 42.5 89 L 55 86 L 55 77.5 L 54.5 77 L 0.5 77 L 0 73 L 7.5 73 L 8.5 72 L 9.5 73 L 55 73 L 55 59.5 L 57.5 57 L 62.5 57 L 80.5 53 L 92 53 Q 92.1 47.4 96.5 45 L 104.5 42 Z M 99 47 L 99 49 Q 95 50 96 55 Q 92 54 90 57 L 75 58 L 61 61 L 59 63 L 59 93 L 66 94 L 102 94 L 103 95 L 125 95 L 133 93 L 145 93 L 151 90 L 154 90 L 156 84 L 155 59 L 154 57 L 116 57 L 115 58 L 114 57 L 111 55 L 110 50 L 108 47 L 99 47 Z M 163 91 L 144 98 L 136 98 L 135 99 L 127 99 L 126 98 L 101 98 L 100 99 L 97 98 L 60 98 L 59 97 L 57 98 Q 54 97 56 96 L 55 94 L 56 92 L 47 92 L 41 94 L 30 95 L 27 99 L 28 145 L 31 161 L 36 171 Q 40 176 49 178 L 99 179 L 100 180 L 103 179 L 157 179 L 160 178 L 159 176 L 159 151 L 158 150 L 159 146 L 158 144 L 158 130 L 159 129 L 159 118 L 158 117 Q 157 112 160 111 L 174 97 L 174 93 L 173 91 L 163 91 Z M 65 183 L 64 191 L 66 192 Q 71 191 73 193 L 108 193 L 109 194 L 152 194 L 152 194 L 152 184 L 90 184 L 89 183 Q 83 182 82 184 L 65 183 Z " /><path fill="rgb(0,0,0)" stroke="rgb(0,0,0)" stroke-width="1" opacity="1" d="M 46.5 117 L 47.5 118 L 127.5 119 L 129 120.5 L 129 145.5 L 127.5 147 L 125.5 148 L 92.5 148 L 91.5 147 L 44.5 147 L 42 144.5 L 41 129.5 Q 43.5 128 42 122.5 L 41 120.5 L 46.5 117 Z M 48 122 L 46 124 L 46 142 Q 47 144 49 142 L 82 142 L 83 143 L 124 143 L 125 142 L 124 123 L 48 122 Z " /><path fill="rgb(205,130,79)" stroke="rgb(205,130,79)" stroke-width="1" opacity="1" d="M 116.5 57 L 141 57.5 L 116.5 58 L 116.5 57 Z " /><path fill="rgb(205,130,79)" stroke="rgb(205,130,79)" stroke-width="1" opacity="1" d="M 80.5 58 L 83 58.5 L 80.5 59 L 80.5 58 Z " /><path fill="rgb(205,130,79)" stroke="rgb(205,130,79)" stroke-width="1" opacity="1" d="M 150.5 61 L 154 61.5 L 154 86.5 L 153 89 L 149 89 L 149 82.5 L 153 67.5 L 153 62 Q 149.7 62.8 150.5 61 Z " /><path fill="rgb(205,130,79)" stroke="rgb(205,130,79)" stroke-width="1" opacity="1" d="M 109.5 64 L 111.5 65 Q 113.3 62.3 119.5 64 L 119.5 65 L 112.5 65 Q 109.7 69.2 103.5 70 L 68.5 70 L 68.5 69 L 103.5 69 L 109.5 64 Z " /><path fill="rgb(205,130,79)" stroke="rgb(205,130,79)" stroke-width="1" opacity="1" d="M 139.5 65 L 141 66.5 L 141 92 L 137.5 93 L 135 92 L 135 70.5 L 139.5 65 Z " /><path fill="rgb(205,130,79)" stroke="rgb(205,130,79)" stroke-width="1" opacity="1" d="M 59.5 67 L 60 90.5 L 59 90.5 L 59.5 67 Z " /><path fill="rgb(205,130,79)" stroke="rgb(205,130,79)" stroke-width="1" opacity="1" d="M 65.5 72 L 66 88.5 L 65 88.5 L 65.5 72 Z " /><path fill="rgb(205,130,79)" stroke="rgb(205,130,79)" stroke-width="1" opacity="1" d="M 184.5 78 L 200 79 L 200 96 L 194 96 L 193 81.5 L 194 79 L 184.5 79 L 184.5 78 Z " /><path fill="rgb(205,130,79)" stroke="rgb(205,130,79)" stroke-width="1" opacity="1" d="M 180.5 79 L 181 91.5 L 180 91.5 L 180.5 79 Z " /><path fill="rgb(205,130,79)" stroke="rgb(205,130,79)" stroke-width="1" opacity="1" d="M 0.5 87 L 9 87.5 L 0.5 88 L 0.5 87 Z " /><path fill="rgb(205,130,79)" stroke="rgb(205,130,79)" stroke-width="1" opacity="1" d="M 30.5 88 L 33 88.5 L 30.5 89 L 30.5 88 Z " /><path fill="rgb(205,130,79)" stroke="rgb(205,130,79)" stroke-width="1" opacity="1" d="M 172.5 92 Q 175.1 91.2 174 94.5 L 171.5 96 L 171.5 95 Q 173.8 95.8 173 93.5 L 172.5 92 Z " /><path fill="rgb(205,130,79)" stroke="rgb(205,130,79)" stroke-width="1" opacity="1" d="M 28.5 97 L 29 100.5 L 28 100.5 L 28.5 97 Z " /><path fill="rgb(205,130,79)" stroke="rgb(205,130,79)" stroke-width="1" opacity="1" d="M 3.5 98 L 8 98.5 L 3.5 99 L 3.5 98 Z " /><path fill="rgb(205,130,79)" stroke="rgb(205,130,79)" stroke-width="1" opacity="1" d="M 12 98 L 20.5 99 L 22 100.5 Q 24.2 106.8 18.5 105 L 10.5 103 Q 9 105.5 3.5 104 L 3.5 103 Q 10.5 104.5 12 100.5 L 12 98 Z " /><path fill="rgb(205,130,79)" stroke="rgb(205,130,79)" stroke-width="1" opacity="1" d="M 142.5 98 L 145 98.5 L 142.5 99 L 142.5 98 Z " /><path fill="rgb(205,130,79)" stroke="rgb(205,130,79)" stroke-width="1" opacity="1" d="M 118.5 99 Q 120.8 98.3 120 100.5 L 117.5 102 L 117.5 101 L 119 100.5 L 118.5 99 Z " /><path fill="rgb(205,130,79)" stroke="rgb(205,130,79)" stroke-width="1" opacity="1" d="M 126.5 99 L 126 100.5 L 126.5 102 L 143.5 102 L 144.5 104 L 143.5 103 L 125.5 103 L 122 100.5 L 126.5 99 Z " /><path fill="rgb(205,130,79)" stroke="rgb(205,130,79)" stroke-width="1" opacity="1" d="M 33.5 100 L 36 100.5 L 33.5 101 L 33.5 100 Z " /><path fill="rgb(205,130,79)" stroke="rgb(205,130,79)" stroke-width="1" opacity="1" d="M 54.5 100 L 61 100.5 L 54.5 101 L 54.5 100 Z " /><path fill="rgb(205,130,79)" stroke="rgb(205,130,79)" stroke-width="1" opacity="1" d="M 68 101 L 113.5 101 L 116 102 Q 117 105 114 104 L 114 102 L 108 102 L 108 104 L 102 104 L 102 102 L 96 102 L 95.5 104 L 84 104 Q 85.4 100 78.5 102 L 77.5 103 L 68 103 L 68 101 Z " /><path fill="rgb(205,130,79)" stroke="rgb(205,130,79)" stroke-width="1" opacity="1" d="M 179.5 101 Q 180.8 103.3 185.5 102 L 187 103.5 L 171 120.5 L 171 136.5 L 182 148.5 L 170 156.5 L 170 170.5 L 171 176 Q 167.2 177 166 174.5 L 164 145.5 L 167 135.5 L 168 119.5 L 170.5 115 Q 172.8 115.8 172 113.5 L 178 104 Q 180.7 105.1 180 102.5 L 179.5 101 Z " /><path fill="rgb(205,130,79)" stroke="rgb(205,130,79)" stroke-width="1" opacity="1" d="M 177.5 102 L 165.5 115 L 177.5 102 Z " /><path fill="rgb(205,130,79)" stroke="rgb(205,130,79)" stroke-width="1" opacity="1" d="M 5.5 109 L 8 109.5 L 5.5 110 L 5.5 109 Z " /><path fill="rgb(205,130,79)" stroke="rgb(205,130,79)" stroke-width="1" opacity="1" d="M 9.5 109 L 14 109.5 L 9.5 110 L 9.5 109 Z " /><path fill="rgb(205,130,79)" stroke="rgb(205,130,79)" stroke-width="1" opacity="1" d="M 16.5 110 L 20 111.5 L 18.5 112 L 16.5 110 Z " /><path fill="rgb(205,130,79)" stroke="rgb(205,130,79)" stroke-width="1" opacity="1" d="M 3.5 112 L 6 112.5 L 3.5 113 L 3.5 112 Z " /><path fill="rgb(205,130,79)" stroke="rgb(205,130,79)" stroke-width="1" opacity="1" d="M 21.5 113 L 22 116.5 L 19 114.5 L 21 114.5 L 21.5 113 Z " /><path fill="rgb(205,130,79)" stroke="rgb(205,130,79)" stroke-width="1" opacity="1" d="M 3.5 116 L 4 118.5 L 3 118.5 L 3.5 116 Z " /><path fill="rgb(205,130,79)" stroke="rgb(205,130,79)" stroke-width="1" opacity="1" d="M 28.5 116 L 29 130 L 31 129.5 L 31 119.5 L 32 119.5 L 32 127.5 L 33.5 128 L 37 126 Q 35.9 122.7 40 124 Q 41.5 129.4 38.5 131 L 31.5 130 L 29.5 131 L 28 129.5 L 28.5 116 Z " /><path fill="rgb(205,130,79)" stroke="rgb(205,130,79)" stroke-width="1" opacity="1" d="M 143.5 120 L 144 131 Q 140.3 133.3 132 132 L 133.5 128 L 139 125 L 140.5 122 L 143.5 120 Z " /><path fill="rgb(205,130,79)" stroke="rgb(205,130,79)" stroke-width="1" opacity="1" d="M 164.5 121 L 165 127.5 L 164 127.5 L 164.5 121 Z " /><path fill="rgb(205,130,79)" stroke="rgb(205,130,79)" stroke-width="1" opacity="1" d="M 2.5 122 L 3 124.5 Q 0.3 125.8 0.5 130 L 0 126.5 L 2.5 122 Z " /><path fill="rgb(205,130,79)" stroke="rgb(205,130,79)" stroke-width="1" opacity="1" d="M 5.5 122 L 11 122.5 L 5.5 123 L 5.5 122 Z " /><path fill="rgb(205,130,79)" stroke="rgb(205,130,79)" stroke-width="1" opacity="1" d="M 5.5 124 L 8 124.5 L 3 127.5 L 2.5 133 L 2 127.5 L 5.5 124 Z " /><path fill="rgb(205,130,79)" stroke="rgb(205,130,79)" stroke-width="1" opacity="1" d="M 10.5 124 L 13 125.5 L 11.5 125 L 10.5 124 Z " /><path fill="rgb(205,130,79)" stroke="rgb(205,130,79)" stroke-width="1" opacity="1" d="M 14.5 124 L 16.5 127 L 15 126.5 L 14.5 128 L 14 126.5 L 14.5 124 Z " /><path fill="rgb(205,130,79)" stroke="rgb(205,130,79)" stroke-width="1" opacity="1" d="M 17.5 128 L 21 129.5 L 18.5 130 L 17.5 128 Z " /><path fill="rgb(205,130,79)" stroke="rgb(205,130,79)" stroke-width="1" opacity="1" d="M 15.5 129 L 16 131.5 L 15 131.5 L 15.5 129 Z " /><path fill="rgb(205,130,79)" stroke="rgb(205,130,79)" stroke-width="1" opacity="1" d="M 22.5 130 L 23 133.5 L 22 133.5 L 22.5 130 Z " /><path fill="rgb(205,130,79)" stroke="rgb(205,130,79)" stroke-width="1" opacity="1" d="M 14.5 133 L 12.5 136 L 14.5 133 Z " /><path fill="rgb(205,130,79)" stroke="rgb(205,130,79)" stroke-width="1" opacity="1" d="M 17.5 133 L 13.5 138 L 17.5 133 Z " /><path fill="rgb(205,130,79)" stroke="rgb(205,130,79)" stroke-width="1" opacity="1" d="M 3.5 134 Q 5.2 137.3 11 136.5 L 5.5 137 L 3.5 134 Z " /><path fill="rgb(205,130,79)" stroke="rgb(205,130,79)" stroke-width="1" opacity="1" d="M 1.5 135 L 3 139.5 L 2 139.5 L 1.5 135 Z " /><path fill="rgb(205,130,79)" stroke="rgb(205,130,79)" stroke-width="1" opacity="1" d="M 36.5 137 Q 43.7 134.7 41 142.5 L 40 142.5 Q 42.2 136.2 36.5 138 L 36.5 137 Z " /><path fill="rgb(205,130,79)" stroke="rgb(205,130,79)" stroke-width="1" opacity="1" d="M 9.5 138 L 12 138.5 L 9.5 139 L 9.5 138 Z " /><path fill="rgb(205,130,79)" stroke="rgb(205,130,79)" stroke-width="1" opacity="1" d="M 130 138 L 143.5 138 L 145 139.5 L 144.5 147 L 144 139 L 132.5 139 L 131 140.5 L 131 151 L 143.5 151 L 146 149.5 L 145 156.5 L 152 174 L 156 176.5 L 155.5 178 L 143.5 178 L 136 172.5 Q 135.3 170.3 137.5 171 L 137.5 170 Q 134.2 171.1 135 168.5 L 133 164.5 L 134 162.5 L 131 157.5 L 130 138 Z " /><path fill="rgb(205,130,79)" stroke="rgb(205,130,79)" stroke-width="1" opacity="1" d="M 4.5 140 L 5 141.5 L 3 148 L 5 148.5 L 3.5 149 L 0 144.5 L 1.5 141 L 2 143.5 L 1 145.5 L 3 144.5 L 4.5 140 Z " /><path fill="rgb(205,130,79)" stroke="rgb(205,130,79)" stroke-width="1" opacity="1" d="M 22.5 144 L 23 147.5 L 21.5 147 L 19.5 148 L 22.5 144 Z " /><path fill="rgb(205,130,79)" stroke="rgb(205,130,79)" stroke-width="1" opacity="1" d="M 41.5 144 L 42 149.5 L 41 149.5 L 41.5 144 Z " /><path fill="rgb(205,130,79)" stroke="rgb(205,130,79)" stroke-width="1" opacity="1" d="M 6.5 149 L 9 149.5 L 6.5 150 L 6.5 149 Z " /><path fill="rgb(205,130,79)" stroke="rgb(205,130,79)" stroke-width="1" opacity="1" d="M 10.5 149 L 13 149.5 L 10.5 150 L 10.5 149 Z " /><path fill="rgb(205,130,79)" stroke="rgb(205,130,79)" stroke-width="1" opacity="1" d="M 22.5 149 L 21.5 151 L 22.5 149 Z " /><path fill="rgb(205,130,79)" stroke="rgb(205,130,79)" stroke-width="1" opacity="1" d="M 30.5 149 L 31 152 L 40.5 152 L 41.5 151 L 44 165.5 L 52.5 176 L 54 176.5 L 47.5 177 Q 39.6 174.9 36 168.5 L 32 159.5 L 32 154.5 Q 29 152.7 30.5 149 Z " /><path fill="rgb(205,130,79)" stroke="rgb(205,130,79)" stroke-width="1" opacity="1" d="M 15.5 151 L 20 151.5 L 15.5 152 L 15.5 151 Z " /><path fill="rgb(205,130,79)" stroke="rgb(205,130,79)" stroke-width="1" opacity="1" d="M 3.5 152 L 12 152.5 L 3.5 153 L 3.5 152 Z " /><path fill="rgb(205,130,79)" stroke="rgb(205,130,79)" stroke-width="1" opacity="1" d="M 20.5 157 Q 24.3 156.3 25 158.5 Q 26.7 163.3 22.5 162 Q 17.9 165.1 10 164 Q 12.2 158.4 6.5 160 L 6.5 159 L 13.5 159 L 20.5 157 Z " /><path fill="rgb(205,130,79)" stroke="rgb(205,130,79)" stroke-width="1" opacity="1" d="M 0.5 158 L 3 158.5 L 0.5 159 L 0.5 158 Z " /><path fill="rgb(205,130,79)" stroke="rgb(205,130,79)" stroke-width="1" opacity="1" d="M 63.5 160 Q 66.8 160.8 66 165.5 Q 64.8 168 61 167 L 64 161.5 L 63.5 160 Z " /><path fill="rgb(205,130,79)" stroke="rgb(205,130,79)" stroke-width="1" opacity="1" d="M 0.5 162 L 8 163.5 L 2.5 164 L 0.5 162 Z " /><path fill="rgb(205,130,79)" stroke="rgb(205,130,79)" stroke-width="1" opacity="1" d="M 58.5 163 L 60 165.5 L 58 164.5 L 58.5 163 Z " /><path fill="rgb(205,130,79)" stroke="rgb(205,130,79)" stroke-width="1" opacity="1" d="M 62.5 174 L 129.5 174 L 132 176.5 L 131.5 178 L 80.5 178 L 79.5 177 L 65.5 177 L 62.5 174 Z " /><path fill="rgb(205,130,79)" stroke="rgb(205,130,79)" stroke-width="1" opacity="1" d="M 3.5 180 L 12 181.5 L 8.5 189 L 0 189 L 0 181 L 3.5 180 Z " /><path fill="rgb(205,130,79)" stroke="rgb(205,130,79)" stroke-width="1" opacity="1" d="M 177 183 L 194 183.5 L 192 188 L 189.5 189 L 177 189 L 177 183 Z " /><path fill="rgb(59,51,48)" stroke="rgb(59,51,48)" stroke-width="1" opacity="1" d="M 108.5 48 L 109.5 50 L 108.5 48 Z " /><path fill="rgb(59,51,48)" stroke="rgb(59,51,48)" stroke-width="1" opacity="1" d="M 100.5 56 L 105 56.5 L 100.5 57 L 100.5 56 Z " /><path fill="rgb(59,51,48)" stroke="rgb(59,51,48)" stroke-width="1" opacity="1" d="M 115.5 57 L 114.5 59 L 115.5 57 Z " /><path fill="rgb(59,51,48)" stroke="rgb(59,51,48)" stroke-width="1" opacity="1" d="M 146.5 57 L 150 57.5 L 146.5 58 L 146.5 57 Z " /><path fill="rgb(59,51,48)" stroke="rgb(59,51,48)" stroke-width="1" opacity="1" d="M 60.5 61 L 62 61.5 L 60 62 L 59.5 64 L 59 62.5 L 60.5 61 Z " /><path fill="rgb(59,51,48)" stroke="rgb(59,51,48)" stroke-width="1" opacity="1" d="M 103.5 70 L 102.5 72 L 103.5 70 Z " /><path fill="rgb(59,51,48)" stroke="rgb(59,51,48)" stroke-width="1" opacity="1" d="M 116.5 70 L 135 70.5 L 116.5 71 L 116.5 70 Z " /><path fill="rgb(59,51,48)" stroke="rgb(59,51,48)" stroke-width="1" opacity="1" d="M 101.5 74 L 116 74.5 L 101.5 75 L 101.5 74 Z " /><path fill="rgb(59,51,48)" stroke="rgb(59,51,48)" stroke-width="1" opacity="1" d="M 4.5 77 L 10 77.5 L 4.5 78 L 4.5 77 Z " /><path fill="rgb(59,51,48)" stroke="rgb(59,51,48)" stroke-width="1" opacity="1" d="M 118.5 81 L 120 81.5 L 117.5 83 L 118.5 81 Z " /><path fill="rgb(59,51,48)" stroke="rgb(59,51,48)" stroke-width="1" opacity="1" d="M 122.5 81 Q 125.5 81.5 125 85.5 L 124 85.5 L 122.5 81 Z " /><path fill="rgb(59,51,48)" stroke="rgb(59,51,48)" stroke-width="1" opacity="1" d="M 134.5 88 L 135 92.5 L 134 92.5 L 134.5 88 Z " /><path fill="rgb(59,51,48)" stroke="rgb(59,51,48)" stroke-width="1" opacity="1" d="M 167.5 91 L 170 91.5 L 167.5 92 L 167.5 91 Z " /><path fill="rgb(59,51,48)" stroke="rgb(59,51,48)" stroke-width="1" opacity="1" d="M 54.5 96 L 55.5 98 L 54.5 96 Z " /><path fill="rgb(59,51,48)" stroke="rgb(59,51,48)" stroke-width="1" opacity="1" d="M 22.5 97 L 23 100.5 L 22 100.5 L 22.5 97 Z " /><path fill="rgb(59,51,48)" stroke="rgb(59,51,48)" stroke-width="1" opacity="1" d="M 171.5 97 L 172 98.5 L 168 101.5 L 171.5 97 Z " /><path fill="rgb(59,51,48)" stroke="rgb(59,51,48)" stroke-width="1" opacity="1" d="M 179.5 97 L 180 99.5 L 179 99.5 L 179.5 97 Z " /><path fill="rgb(59,51,48)" stroke="rgb(59,51,48)" stroke-width="1" opacity="1" d="M 68.5 98 L 72 98.5 L 68.5 99 L 68.5 98 Z " /><path fill="rgb(59,51,48)" stroke="rgb(59,51,48)" stroke-width="1" opacity="1" d="M 74.5 98 L 78 98.5 L 74.5 99 L 74.5 98 Z " /><path fill="rgb(59,51,48)" stroke="rgb(59,51,48)" stroke-width="1" opacity="1" d="M 108.5 98 L 117 98.5 L 108.5 99 L 108.5 98 Z " /><path fill="rgb(59,51,48)" stroke="rgb(59,51,48)" stroke-width="1" opacity="1" d="M 27.5 99 L 28 103.5 L 27 103.5 L 27.5 99 Z " /><path fill="rgb(59,51,48)" stroke="rgb(59,51,48)" stroke-width="1" opacity="1" d="M 27.5 107 L 28 112.5 L 27 112.5 L 27.5 107 Z " /><path fill="rgb(59,51,48)" stroke="rgb(59,51,48)" stroke-width="1" opacity="1" d="M 19.5 110 L 22 110.5 L 19.5 111 L 19.5 110 Z " /><path fill="rgb(59,51,48)" stroke="rgb(59,51,48)" stroke-width="1" opacity="1" d="M 4 113 L 15.5 113 L 21.5 117 L 23 116.5 L 22 121.5 L 23 122.5 L 23 130 L 18 129 L 16 124 Q 13.4 121.3 6.5 122 L 5 120.5 L 4 113 Z " /><path fill="rgb(59,51,48)" stroke="rgb(59,51,48)" stroke-width="1" opacity="1" d="M 60.5 117 L 72 117.5 L 60.5 118 L 60.5 117 Z " /><path fill="rgb(59,51,48)" stroke="rgb(59,51,48)" stroke-width="1" opacity="1" d="M 0.5 118 L 2 123.5 L 0 124.5 L 0.5 118 Z " /><path fill="rgb(59,51,48)" stroke="rgb(59,51,48)" stroke-width="1" opacity="1" d="M 47 123 L 95.5 123 L 96.5 124 L 122.5 124 L 124 125.5 L 124 141.5 L 123.5 142 L 47 142 L 47 123 Z M 49 126 L 49 138 L 51 139 Q 58 140 61 138 L 61 126 L 49 126 Z M 64 126 L 64 138 L 67 139 L 76 138 L 76 126 L 64 126 Z M 78 126 L 78 138 L 80 139 Q 87 140 90 138 L 90 126 L 78 126 Z M 93 126 L 93 138 L 97 139 L 105 138 L 105 126 L 93 126 Z " /><path fill="rgb(59,51,48)" stroke="rgb(59,51,48)" stroke-width="1" opacity="1" d="M 129.5 123 L 130 126.5 L 129 126.5 L 129.5 123 Z " /><path fill="rgb(59,51,48)" stroke="rgb(59,51,48)" stroke-width="1" opacity="1" d="M 6.5 125 Q 12.8 123.8 14 127.5 L 15 131.5 L 12.5 135 L 6.5 136 L 4 135 L 3 128.5 L 6.5 125 Z " /><path fill="rgb(59,51,48)" stroke="rgb(59,51,48)" stroke-width="1" opacity="1" d="M 163.5 128 L 164 136.5 L 163 136.5 L 163.5 128 Z " /><path fill="rgb(59,51,48)" stroke="rgb(59,51,48)" stroke-width="1" opacity="1" d="M 28.5 131 L 41 131 L 41 135.5 L 41.5 137 L 40.5 136 L 29 136 L 28.5 139 L 28 136.5 L 30 132.5 L 28.5 131 Z " /><path fill="rgb(59,51,48)" stroke="rgb(59,51,48)" stroke-width="1" opacity="1" d="M 146.5 131 L 150 132.5 L 151 153.5 L 155 168 L 159 170 L 159 177.5 L 158 177.5 L 155.5 174 L 152 171.5 L 147 158.5 L 145 137 L 130.5 137 L 130 133 L 132.5 132 L 145.5 132 L 146.5 131 Z " /><path fill="rgb(59,51,48)" stroke="rgb(59,51,48)" stroke-width="1" opacity="1" d="M 17 134 L 23 134 L 23 143.5 L 16.5 148 L 6.5 149 L 3 148 L 6.5 139 Q 14.8 140.3 17 135.5 L 17 134 Z " /><path fill="rgb(59,51,48)" stroke="rgb(59,51,48)" stroke-width="1" opacity="1" d="M 0.5 136 L 2 139.5 L 0.5 143 L 0.5 136 Z " /><path fill="rgb(59,51,48)" stroke="rgb(59,51,48)" stroke-width="1" opacity="1" d="M 157.5 136 L 158 143.5 L 157 143.5 L 157.5 136 Z " /><path fill="rgb(59,51,48)" stroke="rgb(59,51,48)" stroke-width="1" opacity="1" d="M 44.5 147 L 47 147.5 L 44.5 148 L 44.5 147 Z " /><path fill="rgb(59,51,48)" stroke="rgb(59,51,48)" stroke-width="1" opacity="1" d="M 48.5 147 L 77 147.5 L 48.5 148 L 48.5 147 Z " /><path fill="rgb(59,51,48)" stroke="rgb(59,51,48)" stroke-width="1" opacity="1" d="M 82.5 155 L 95.5 156 Q 97.3 153.2 99 157.5 L 99 169.5 L 97.5 171 L 85.5 172 L 81 171 L 79 164.5 L 79 158.5 L 80 156 L 82.5 155 Z M 84 159 L 84 167 L 94 167 L 94 160 L 85 160 L 84 159 Z " /><path fill="rgb(59,51,48)" stroke="rgb(59,51,48)" stroke-width="1" opacity="1" d="M 158.5 157 L 159 161.5 L 158 161.5 L 158.5 157 Z " /><path fill="rgb(59,51,48)" stroke="rgb(59,51,48)" stroke-width="1" opacity="1" d="M 26.5 174 L 30 174.5 L 26.5 175 L 26.5 174 Z " /><path fill="rgb(59,51,48)" stroke="rgb(59,51,48)" stroke-width="1" opacity="1" d="M 78.5 178 L 87 178.5 L 78.5 179 L 78.5 178 Z " /><path fill="rgb(59,51,48)" stroke="rgb(59,51,48)" stroke-width="1" opacity="1" d="M 137.5 178 L 145 178.5 L 137.5 179 L 137.5 178 Z " /><path fill="rgb(59,51,48)" stroke="rgb(59,51,48)" stroke-width="1" opacity="1" d="M 13.5 180 L 39 180.5 L 15.5 181 L 14.5 182 L 13.5 180 Z " /><path fill="rgb(59,51,48)" stroke="rgb(59,51,48)" stroke-width="1" opacity="1" d="M 176.5 182 L 192 182.5 L 176.5 183 L 176.5 182 Z " /><path fill="rgb(59,51,48)" stroke="rgb(59,51,48)" stroke-width="1" opacity="1" d="M 198.5 182 L 200 182.5 L 195.5 184 L 195.5 183 L 198.5 182 Z " /><path fill="rgb(59,51,48)" stroke="rgb(59,51,48)" stroke-width="1" opacity="1" d="M 65.5 184 L 66 186.5 L 65 186.5 L 65.5 184 Z " /><path fill="rgb(59,51,48)" stroke="rgb(59,51,48)" stroke-width="1" opacity="1" d="M 75.5 184 Q 78.1 183.2 77 186.5 L 76 186.5 L 75.5 184 Z " /><path fill="rgb(59,51,48)" stroke="rgb(59,51,48)" stroke-width="1" opacity="1" d="M 90.5 184 L 101 184.5 L 90.5 185 L 90.5 184 Z " /><path fill="rgb(59,51,48)" stroke="rgb(59,51,48)" stroke-width="1" opacity="1" d="M 129.5 185 L 131 188.5 L 130 188.5 L 129.5 185 Z " /><path fill="rgb(59,51,48)" stroke="rgb(59,51,48)" stroke-width="1" opacity="1" d="M 136.5 185 L 136 186.5 L 135.5 189 L 135 186.5 L 136.5 185 Z " /><path fill="rgb(59,51,48)" stroke="rgb(59,51,48)" stroke-width="1" opacity="1" d="M 199.5 186 L 200 187.5 Q 198.5 190.5 192.5 189 L 192.5 188 Q 199.8 189.5 199.5 186 Z " /><path fill="rgb(59,51,48)" stroke="rgb(59,51,48)" stroke-width="1" opacity="1" d="M 38.5 187 L 41 187.5 L 38.5 188 L 38.5 187 Z " /><path fill="rgb(59,51,48)" stroke="rgb(59,51,48)" stroke-width="1" opacity="1" d="M 10.5 188 L 12 188.5 Q 10.3 190.8 5.5 190 L 5.5 189 L 10.5 188 Z " /><path fill="rgb(59,51,48)" stroke="rgb(59,51,48)" stroke-width="1" opacity="1" d="M 14.5 188 L 32 188.5 L 14.5 189 L 14.5 188 Z " /><path fill="rgb(59,51,48)" stroke="rgb(59,51,48)" stroke-width="1" opacity="1" d="M 74.5 192 L 77 192.5 L 74.5 193 L 74.5 192 Z " /><path fill="rgb(59,51,48)" stroke="rgb(59,51,48)" stroke-width="1" opacity="1" d="M 56.5 193 L 58 193.5 L 56 194 L 55.5 200 L 55 194.5 L 56.5 193 Z " /><path fill="rgb(59,51,48)" stroke="rgb(59,51,48)" stroke-width="1" opacity="1" d="M 130.5 193 L 140 193.5 L 130.5 194 L 130.5 193 Z " /><path fill="rgb(59,51,48)" stroke="rgb(59,51,48)" stroke-width="1" opacity="1" d="M 184.5 194 L 186 194.5 L 184 195 L 183.5 197 L 183 195.5 L 184.5 194 Z " /><path fill="rgb(59,51,48)" stroke="rgb(59,51,48)" stroke-width="1" opacity="1" d="M 61.5 195 L 62.5 197 L 61.5 195 Z " /><path fill="rgb(59,51,48)" stroke="rgb(59,51,48)" stroke-width="1" opacity="1" d="M 108.5 198 L 125 198.5 L 108.5 199 L 108.5 198 Z " /><path fill="rgb(130,59,40)" stroke="rgb(130,59,40)" stroke-width="1" opacity="1" d="M 59.5 64 L 60 66.5 L 59 66.5 L 59.5 64 Z " /><path fill="rgb(130,59,40)" stroke="rgb(130,59,40)" stroke-width="1" opacity="1" d="M 10.5 77 L 48 77.5 L 10.5 78 L 10.5 77 Z " /><path fill="rgb(130,59,40)" stroke="rgb(130,59,40)" stroke-width="1" opacity="1" d="M 154.5 87 L 153.5 89 L 154.5 87 Z " /><path fill="rgb(130,59,40)" stroke="rgb(130,59,40)" stroke-width="1" opacity="1" d="M 37.5 88 L 41 88.5 L 37.5 89 L 37.5 88 Z " /><path fill="rgb(130,59,40)" stroke="rgb(130,59,40)" stroke-width="1" opacity="1" d="M 27.5 90 L 30 90.5 L 27.5 91 L 27.5 90 Z " /><path fill="rgb(130,59,40)" stroke="rgb(130,59,40)" stroke-width="1" opacity="1" d="M 24.5 91 L 23 93.5 L 21.5 100 L 17.5 98 L 1.5 98 L 0 98.5 Q -1 94 1.5 93 L 10.5 92 L 21.5 94 L 24.5 91 Z " /><path fill="rgb(130,59,40)" stroke="rgb(130,59,40)" stroke-width="1" opacity="1" d="M 50.5 92 L 53 92.5 L 50.5 93 L 50.5 92 Z " /><path fill="rgb(130,59,40)" stroke="rgb(130,59,40)" stroke-width="1" opacity="1" d="M 173.5 95 L 172.5 97 Q 170.3 96.3 171 98.5 L 166 102 L 158 112.5 L 158 135.5 Q 155.2 137.3 157 143.5 L 158 144.5 L 158 161.5 L 159 162.5 L 159 170 L 155 168 L 155 165.5 L 154.5 164 L 157.5 168 L 158 162.5 L 155 158.5 L 153.5 148 Q 154.1 152.6 151.5 154 L 150 145.5 L 150 132.5 L 148.5 131 L 144 132 L 144 111.5 L 145 110.5 L 144 106.5 L 145 104 L 173.5 95 Z " /><path fill="rgb(130,59,40)" stroke="rgb(130,59,40)" stroke-width="1" opacity="1" d="M 180.5 96 L 181.5 97 L 193.5 97 L 200 96 L 200 102 L 193 102 L 192.5 98 L 192 102 L 188.5 101 L 184.5 102 L 179.5 101 L 178 101.5 Q 180.8 100.3 180.5 96 Z " /><path fill="rgb(130,59,40)" stroke="rgb(130,59,40)" stroke-width="1" opacity="1" d="M 61 101 L 67 102 L 67.5 104 L 90.5 104 L 92.5 104 L 94.5 105 L 114.5 105 L 118.5 102 L 123.5 102 L 123 103.5 L 121 109 L 118.5 110 L 64.5 110 L 61 107.5 L 61 101 Z " /><path fill="rgb(130,59,40)" stroke="rgb(130,59,40)" stroke-width="1" opacity="1" d="M 36.5 103 Q 39.9 102.1 38 107.5 L 39 110 L 34 110 L 34 104 L 36.5 103 Z " /><path fill="rgb(130,59,40)" stroke="rgb(130,59,40)" stroke-width="1" opacity="1" d="M 3.5 104 L 17.5 104 L 22 106.5 Q 23.7 111.3 19.5 110 L 17.5 110 Q 12.8 107.8 4.5 109 L 0 110 L 0 105 L 2.5 105 L 3.5 104 Z " /><path fill="rgb(130,59,40)" stroke="rgb(130,59,40)" stroke-width="1" opacity="1" d="M 27.5 104 L 28 106.5 L 27 106.5 L 27.5 104 Z " /><path fill="rgb(130,59,40)" stroke="rgb(130,59,40)" stroke-width="1" opacity="1" d="M 134 107 L 139 107 L 139 113.5 L 135.5 115 L 134 113.5 L 134 107 Z " /><path fill="rgb(130,59,40)" stroke="rgb(130,59,40)" stroke-width="1" opacity="1" d="M 20.5 111 Q 22.8 110.3 22 112.5 L 20.5 111 Z " /><path fill="rgb(130,59,40)" stroke="rgb(130,59,40)" stroke-width="1" opacity="1" d="M 6.5 112 L 13 112.5 L 6.5 113 L 6.5 112 Z " /><path fill="rgb(130,59,40)" stroke="rgb(130,59,40)" stroke-width="1" opacity="1" d="M 3.5 113 L 4 115.5 L 3 115.5 L 3.5 113 Z " /><path fill="rgb(130,59,40)" stroke="rgb(130,59,40)" stroke-width="1" opacity="1" d="M 72.5 117 L 94 117.5 L 72.5 118 L 72.5 117 Z " /><path fill="rgb(130,59,40)" stroke="rgb(130,59,40)" stroke-width="1" opacity="1" d="M 128.5 118 L 130 120.5 L 129 120.5 L 128.5 118 Z " /><path fill="rgb(130,59,40)" stroke="rgb(130,59,40)" stroke-width="1" opacity="1" d="M 5.5 125 L 3.5 128 L 5.5 125 Z " /><path fill="rgb(130,59,40)" stroke="rgb(130,59,40)" stroke-width="1" opacity="1" d="M 130.5 131 L 131.5 133 Q 128.7 133.7 130.5 131 Z " /><path fill="rgb(130,59,40)" stroke="rgb(130,59,40)" stroke-width="1" opacity="1" d="M 16.5 135 L 14.5 138 L 16.5 135 Z " /><path fill="rgb(130,59,40)" stroke="rgb(130,59,40)" stroke-width="1" opacity="1" d="M 40.5 136 Q 43.5 137.5 42 143.5 L 41 143.5 Q 41.5 137.5 40.5 136 Z " /><path fill="rgb(130,59,40)" stroke="rgb(130,59,40)" stroke-width="1" opacity="1" d="M 130.5 137 L 145 137.5 L 130.5 138 L 130.5 137 Z " /><path fill="rgb(130,59,40)" stroke="rgb(130,59,40)" stroke-width="1" opacity="1" d="M 163.5 137 L 164 142.5 L 163 142.5 L 163.5 137 Z " /><path fill="rgb(130,59,40)" stroke="rgb(130,59,40)" stroke-width="1" opacity="1" d="M 145.5 142 L 146 147.5 L 145 147.5 L 145.5 142 Z " /><path fill="rgb(130,59,40)" stroke="rgb(130,59,40)" stroke-width="1" opacity="1" d="M 19.5 146 L 18.5 148 L 17 147.5 L 19.5 146 Z " /><path fill="rgb(130,59,40)" stroke="rgb(130,59,40)" stroke-width="1" opacity="1" d="M 42.5 146 Q 43.8 149 48 148 L 50 158 L 54 158 Q 52.9 155.3 55.5 156 Q 57.5 152 65.5 154 L 71 157.5 L 74 163.5 L 73 168.5 L 69.5 172 L 62.5 173 L 57.5 171 L 61.5 176 L 66 177.5 L 59.5 178 Q 51.2 176.8 48 170.5 L 43 158.5 L 43 149.5 L 42 148.5 L 42.5 146 Z M 61 159 L 60 160 Q 56 159 58 165 L 62 167 Q 66 168 67 165 L 66 162 L 61 159 Z " /><path fill="rgb(130,59,40)" stroke="rgb(130,59,40)" stroke-width="1" opacity="1" d="M 129.5 146 Q 129.3 166.7 139.5 177 L 141 177.5 L 133.5 179 L 133.5 177 Q 131.3 177.8 132 175.5 L 131 173 L 129 173 Q 130.1 170.3 127.5 171 L 126.5 172 L 109.5 172 Q 106.5 171.5 107 167.5 Q 109.6 160.1 115.5 156 L 118.5 155 L 122 157.5 L 123.5 160 L 125 149 L 106 148.5 L 127.5 148 L 129.5 146 Z M 118 162 L 115 165 L 115 167 L 121 167 L 120 164 L 118 162 Z " /><path fill="rgb(130,59,40)" stroke="rgb(130,59,40)" stroke-width="1" opacity="1" d="M 12.5 148 L 15 148.5 L 12.5 149 L 12.5 148 Z " /><path fill="rgb(130,59,40)" stroke="rgb(130,59,40)" stroke-width="1" opacity="1" d="M 20.5 151 L 24 152.5 L 25 156.5 L 22.5 157 L 4.5 159 L 0 158 L 0 152 L 2.5 152 L 3.5 153 L 14.5 153 L 20.5 151 Z " /><path fill="rgb(130,59,40)" stroke="rgb(130,59,40)" stroke-width="1" opacity="1" d="M 146.5 153 L 147 156.5 L 146 156.5 L 146.5 153 Z " /><path fill="rgb(130,59,40)" stroke="rgb(130,59,40)" stroke-width="1" opacity="1" d="M 82.5 154 L 84 154.5 L 80 156 L 78.5 164 L 78 155 L 82.5 154 Z " /><path fill="rgb(130,59,40)" stroke="rgb(130,59,40)" stroke-width="1" opacity="1" d="M 90.5 155 L 96 155.5 L 90.5 156 L 90.5 155 Z " /><path fill="rgb(130,59,40)" stroke="rgb(130,59,40)" stroke-width="1" opacity="1" d="M 97.5 155 Q 99.8 154.3 99 156.5 L 97.5 155 Z " /><path fill="rgb(130,59,40)" stroke="rgb(130,59,40)" stroke-width="1" opacity="1" d="M 152.5 156 L 154 162.5 L 153 162.5 L 152.5 156 Z " /><path fill="rgb(130,59,40)" stroke="rgb(130,59,40)" stroke-width="1" opacity="1" d="M 99.5 158 L 100 169.5 Q 99 173 93.5 172 L 93.5 171 Q 98 172 99 169.5 L 99.5 158 Z " /><path fill="rgb(130,59,40)" stroke="rgb(130,59,40)" stroke-width="1" opacity="1" d="M 147.5 159 L 148 161.5 L 147 161.5 L 147.5 159 Z " /><path fill="rgb(130,59,40)" stroke="rgb(130,59,40)" stroke-width="1" opacity="1" d="M 164.5 161 L 165 164.5 L 164 164.5 L 164.5 161 Z " /><path fill="rgb(130,59,40)" stroke="rgb(130,59,40)" stroke-width="1" opacity="1" d="M 24.5 162 L 27 163.5 L 28 165.5 L 19.5 169 L 0 169 L 0.5 163 L 10.5 165 L 24.5 162 Z " /><path fill="rgb(130,59,40)" stroke="rgb(130,59,40)" stroke-width="1" opacity="1" d="M 148.5 163 L 150 166.5 L 149 166.5 L 148.5 163 Z " /><path fill="rgb(130,59,40)" stroke="rgb(130,59,40)" stroke-width="1" opacity="1" d="M 34.5 165 L 36 167.5 L 34 166.5 L 34.5 165 Z " /><path fill="rgb(130,59,40)" stroke="rgb(130,59,40)" stroke-width="1" opacity="1" d="M 79.5 165 L 81 170.5 L 80 170.5 L 79.5 165 Z " /><path fill="rgb(130,59,40)" stroke="rgb(130,59,40)" stroke-width="1" opacity="1" d="M 150.5 168 L 154.5 174 L 158 176.5 L 157.5 178 L 155.5 175 L 151 171.5 L 150.5 168 Z " /><path fill="rgb(130,59,40)" stroke="rgb(130,59,40)" stroke-width="1" opacity="1" d="M 36.5 169 L 41.5 175 L 36.5 169 Z " /><path fill="rgb(130,59,40)" stroke="rgb(130,59,40)" stroke-width="1" opacity="1" d="M 30.5 171 L 32 173.5 L 31 173.5 L 30.5 171 Z " /><path fill="rgb(130,59,40)" stroke="rgb(130,59,40)" stroke-width="1" opacity="1" d="M 82.5 171 L 85 171.5 L 82.5 172 L 82.5 171 Z " /><path fill="rgb(130,59,40)" stroke="rgb(130,59,40)" stroke-width="1" opacity="1" d="M 22.5 174 L 26 174.5 L 22.5 175 L 22.5 174 Z " /><path fill="rgb(130,59,40)" stroke="rgb(130,59,40)" stroke-width="1" opacity="1" d="M 168.5 176 L 173 176.5 L 168.5 177 L 168.5 176 Z " /><path fill="rgb(130,59,40)" stroke="rgb(130,59,40)" stroke-width="1" opacity="1" d="M 87.5 178 L 96 178.5 L 87.5 179 L 87.5 178 Z " /><path fill="rgb(130,59,40)" stroke="rgb(130,59,40)" stroke-width="1" opacity="1" d="M 104.5 178 L 107 178.5 L 104.5 179 L 104.5 178 Z " /><path fill="rgb(130,59,40)" stroke="rgb(130,59,40)" stroke-width="1" opacity="1" d="M 108.5 178 L 118 178.5 L 108.5 179 L 108.5 178 Z " /><path fill="rgb(130,59,40)" stroke="rgb(130,59,40)" stroke-width="1" opacity="1" d="M 0.5 180 L 3 180.5 L 0.5 181 L 0.5 180 Z " /><path fill="rgb(130,59,40)" stroke="rgb(130,59,40)" stroke-width="1" opacity="1" d="M 6.5 180 Q 13 178.5 14.5 182 L 15.5 181 L 39.5 181 L 43 183.5 Q 44.8 189.2 38.5 187 L 37.5 188 L 14.5 188 L 12.5 189 L 10 188 L 12 181.5 L 6.5 181 L 6.5 180 Z " /><path fill="rgb(130,59,40)" stroke="rgb(130,59,40)" stroke-width="1" opacity="1" d="M 176.5 183 L 177 187.5 L 176 187.5 L 176.5 183 Z " /><path fill="rgb(130,59,40)" stroke="rgb(130,59,40)" stroke-width="1" opacity="1" d="M 194.5 183 L 197.5 184 L 200 183 L 199 188 L 190.5 189 L 190.5 188 Q 192.8 188.8 192 186.5 L 194.5 183 Z " /><path fill="rgb(130,59,40)" stroke="rgb(130,59,40)" stroke-width="1" opacity="1" d="M 163.5 197 L 164 199.5 L 163 199.5 L 163.5 197 Z " /><path fill="rgb(130,59,40)" stroke="rgb(130,59,40)" stroke-width="1" opacity="1" d="M 97.5 198 L 108 198.5 L 97.5 199 L 97.5 198 Z " /><path fill="rgb(130,59,40)" stroke="rgb(130,59,40)" stroke-width="1" opacity="1" d="M 125.5 198 L 156 198.5 L 125.5 199 L 125.5 198 Z " /><path fill="rgb(17,20,24)" stroke="rgb(17,20,24)" stroke-width="1" opacity="0.996078431372549" d="M 110.5 51 L 111 55 L 114 56.5 Q 115.1 59.8 112.5 59 Q 109.3 62.8 100.5 61 L 95.5 60 L 93.5 58 L 84 57.5 L 96 55 L 96.5 52 L 98.5 56 L 104.5 57 L 110 54.5 L 110.5 51 Z " /><path fill="rgb(17,20,24)" stroke="rgb(17,20,24)" stroke-width="1" opacity="0.996078431372549" d="M 150.5 57 L 154 57.5 L 150.5 58 L 150.5 57 Z " /><path fill="rgb(17,20,24)" stroke="rgb(17,20,24)" stroke-width="1" opacity="0.996078431372549" d="M 74.5 58 L 77 58.5 L 74.5 59 L 74.5 58 Z " /><path fill="rgb(17,20,24)" stroke="rgb(17,20,24)" stroke-width="1" opacity="0.996078431372549" d="M 104.5 70 L 135 71 L 134 79.5 Q 136.7 81.3 135 87.5 L 134 93 L 129.5 94 L 130 92.5 L 130 75 L 116.5 75 L 115.5 74 L 101 73.5 L 104.5 70 Z " /><path fill="rgb(17,20,24)" stroke="rgb(17,20,24)" stroke-width="1" opacity="0.996078431372549" d="M 155.5 73 L 156 83.5 L 155 83.5 L 155.5 73 Z " /><path fill="rgb(17,20,24)" stroke="rgb(17,20,24)" stroke-width="1" opacity="0.996078431372549" d="M 0.5 77 L 4 77.5 L 0.5 78 L 0.5 77 Z " /><path fill="rgb(17,20,24)" stroke="rgb(17,20,24)" stroke-width="1" opacity="0.996078431372549" d="M 120.5 81 L 124 83.5 Q 124.8 87.3 122.5 88 Q 118 89 117 86.5 Q 116.3 82.8 118.5 82 L 120.5 81 Z " /><path fill="rgb(17,20,24)" stroke="rgb(17,20,24)" stroke-width="1" opacity="0.996078431372549" d="M 54.5 82 L 55 85.5 L 54 85.5 L 54.5 82 Z " /><path fill="rgb(17,20,24)" stroke="rgb(17,20,24)" stroke-width="1" opacity="0.996078431372549" d="M 154.5 88 L 153.5 90 L 152 89.5 L 154.5 88 Z " /><path fill="rgb(17,20,24)" stroke="rgb(17,20,24)" stroke-width="1" opacity="0.996078431372549" d="M 25.5 91 L 24.5 93 L 25.5 91 Z " /><path fill="rgb(17,20,24)" stroke="rgb(17,20,24)" stroke-width="1" opacity="0.996078431372549" d="M 162.5 91 L 167 91.5 L 162.5 92 L 162.5 91 Z " /><path fill="rgb(17,20,24)" stroke="rgb(17,20,24)" stroke-width="1" opacity="0.996078431372549" d="M 170.5 91 L 173 91.5 L 170.5 92 L 170.5 91 Z " /><path fill="rgb(17,20,24)" stroke="rgb(17,20,24)" stroke-width="1" opacity="0.996078431372549" d="M 54 92 L 56 92.5 L 55 94.5 L 55.5 96 L 54 96 L 54 92 Z " /><path fill="rgb(17,20,24)" stroke="rgb(17,20,24)" stroke-width="1" opacity="0.996078431372549" d="M 142.5 92 L 145 92.5 L 142.5 93 L 142.5 92 Z " /><path fill="rgb(17,20,24)" stroke="rgb(17,20,24)" stroke-width="1" opacity="0.996078431372549" d="M 65.5 93 L 71 93.5 L 65.5 94 L 65.5 93 Z " /><path fill="rgb(17,20,24)" stroke="rgb(17,20,24)" stroke-width="1" opacity="0.996078431372549" d="M 34.5 94 L 37 94.5 L 34.5 95 L 34.5 94 Z " /><path fill="rgb(17,20,24)" stroke="rgb(17,20,24)" stroke-width="1" opacity="0.996078431372549" d="M 102.5 94 L 125 94.5 L 102.5 95 L 102.5 94 Z " /><path fill="rgb(17,20,24)" stroke="rgb(17,20,24)" stroke-width="1" opacity="0.996078431372549" d="M 78.5 98 L 97 98.5 L 78.5 99 L 78.5 98 Z " /><path fill="rgb(17,20,24)" stroke="rgb(17,20,24)" stroke-width="1" opacity="0.996078431372549" d="M 100.5 98 L 108 98.5 L 100.5 99 L 100.5 98 Z " /><path fill="rgb(17,20,24)" stroke="rgb(17,20,24)" stroke-width="1" opacity="0.996078431372549" d="M 117.5 98 L 126 98.5 L 117.5 99 L 117.5 98 Z " /><path fill="rgb(17,20,24)" stroke="rgb(17,20,24)" stroke-width="1" opacity="0.996078431372549" d="M 135.5 98 L 141 98.5 L 135.5 99 L 135.5 98 Z " /><path fill="rgb(17,20,24)" stroke="rgb(17,20,24)" stroke-width="1" opacity="0.996078431372549" d="M 176.5 102 L 164.5 115 L 176.5 102 Z " /><path fill="rgb(17,20,24)" stroke="rgb(17,20,24)" stroke-width="1" opacity="0.996078431372549" d="M 165.5 104 L 162.5 108 L 165.5 104 Z " /><path fill="rgb(17,20,24)" stroke="rgb(17,20,24)" stroke-width="1" opacity="0.996078431372549" d="M 22.5 110 L 23 112.5 L 22 112.5 L 22.5 110 Z " /><path fill="rgb(17,20,24)" stroke="rgb(17,20,24)" stroke-width="1" opacity="0.996078431372549" d="M 27.5 113 L 28 119.5 L 27 119.5 L 27.5 113 Z " /><path fill="rgb(17,20,24)" stroke="rgb(17,20,24)" stroke-width="1" opacity="0.996078431372549" d="M 163.5 116 L 164 127.5 L 163 127.5 L 163.5 116 Z " /><path fill="rgb(17,20,24)" stroke="rgb(17,20,24)" stroke-width="1" opacity="0.996078431372549" d="M 47.5 117 L 60 117.5 L 47.5 118 L 47.5 117 Z " /><path fill="rgb(17,20,24)" stroke="rgb(17,20,24)" stroke-width="1" opacity="0.996078431372549" d="M 158.5 117 L 159 128.5 L 158 128.5 L 158.5 117 Z " /><path fill="rgb(17,20,24)" stroke="rgb(17,20,24)" stroke-width="1" opacity="0.996078431372549" d="M 22.5 118 L 23 121.5 L 22 121.5 L 22.5 118 Z " /><path fill="rgb(17,20,24)" stroke="rgb(17,20,24)" stroke-width="1" opacity="0.996078431372549" d="M 102.5 118 L 127.5 118 L 129 119.5 L 127.5 119 L 102.5 119 L 102.5 118 Z " /><path fill="rgb(17,20,24)" stroke="rgb(17,20,24)" stroke-width="1" opacity="0.996078431372549" d="M 41.5 122 L 42 128.5 L 41 128.5 L 41.5 122 Z " /><path fill="rgb(17,20,24)" stroke="rgb(17,20,24)" stroke-width="1" opacity="0.996078431372549" d="M 47.5 122 L 66 122.5 L 47 123 L 47 141.5 L 48 142.5 L 46 141.5 L 46 123.5 L 47.5 122 Z " /><path fill="rgb(17,20,24)" stroke="rgb(17,20,24)" stroke-width="1" opacity="0.996078431372549" d="M 96.5 123 L 123.5 123 L 124 124.5 L 122.5 124 L 96.5 124 L 96.5 123 Z " /><path fill="rgb(17,20,24)" stroke="rgb(17,20,24)" stroke-width="1" opacity="0.996078431372549" d="M 129.5 127 L 130 145.5 L 128 146.5 L 129 145.5 L 129.5 127 Z " /><path fill="rgb(17,20,24)" stroke="rgb(17,20,24)" stroke-width="1" opacity="0.996078431372549" d="M 28 132 L 30 132.5 L 28.5 136 L 28 132 Z " /><path fill="rgb(17,20,24)" stroke="rgb(17,20,24)" stroke-width="1" opacity="0.996078431372549" d="M 124.5 134 L 125 141.5 L 123.5 143 L 82.5 143 L 82.5 142 L 123.5 142 L 124 141.5 L 124.5 134 Z " /><path fill="rgb(17,20,24)" stroke="rgb(17,20,24)" stroke-width="1" opacity="0.996078431372549" d="M 28.5 139 L 29 144.5 L 28 144.5 L 28.5 139 Z " /><path fill="rgb(17,20,24)" stroke="rgb(17,20,24)" stroke-width="1" opacity="0.996078431372549" d="M 23.5 142 L 24 147.5 L 23 147.5 L 23.5 142 Z " /><path fill="rgb(17,20,24)" stroke="rgb(17,20,24)" stroke-width="1" opacity="0.996078431372549" d="M 42.5 145 L 43.5 147 L 42.5 145 Z " /><path fill="rgb(17,20,24)" stroke="rgb(17,20,24)" stroke-width="1" opacity="0.996078431372549" d="M 163.5 145 L 164 156.5 L 163 156.5 L 163.5 145 Z " /><path fill="rgb(17,20,24)" stroke="rgb(17,20,24)" stroke-width="1" opacity="0.996078431372549" d="M 77.5 147 L 92 147.5 L 77.5 148 L 77.5 147 Z " /><path fill="rgb(17,20,24)" stroke="rgb(17,20,24)" stroke-width="1" opacity="0.996078431372549" d="M 29.5 148 L 30 151.5 L 29 151.5 L 29.5 148 Z " /><path fill="rgb(17,20,24)" stroke="rgb(17,20,24)" stroke-width="1" opacity="0.996078431372549" d="M 158.5 150 L 159 156.5 L 158 156.5 L 158.5 150 Z " /><path fill="rgb(17,20,24)" stroke="rgb(17,20,24)" stroke-width="1" opacity="0.996078431372549" d="M 164.5 166 L 165 170.5 L 164 170.5 L 164.5 166 Z " /><path fill="rgb(17,20,24)" stroke="rgb(17,20,24)" stroke-width="1" opacity="0.996078431372549" d="M 30.5 170 L 31.5 172 L 30.5 170 Z " /><path fill="rgb(17,20,24)" stroke="rgb(17,20,24)" stroke-width="1" opacity="0.996078431372549" d="M 36.5 170 L 39.5 174 L 36.5 170 Z " /><path fill="rgb(17,20,24)" stroke="rgb(17,20,24)" stroke-width="1" opacity="0.996078431372549" d="M 153.5 171 L 154.5 173 L 153.5 171 Z " /><path fill="rgb(17,20,24)" stroke="rgb(17,20,24)" stroke-width="1" opacity="0.996078431372549" d="M 32.5 173 L 31.5 175 L 30 174.5 L 32.5 173 Z " /><path fill="rgb(17,20,24)" stroke="rgb(17,20,24)" stroke-width="1" opacity="0.996078431372549" d="M 165.5 175 L 166.5 177 L 165.5 175 Z " /><path fill="rgb(17,20,24)" stroke="rgb(17,20,24)" stroke-width="1" opacity="0.996078431372549" d="M 48.5 177 L 57 177.5 L 48.5 178 L 48.5 177 Z " /><path fill="rgb(17,20,24)" stroke="rgb(17,20,24)" stroke-width="1" opacity="0.996078431372549" d="M 179.5 177 L 200 177.5 L 179.5 178 L 179.5 177 Z " /><path fill="rgb(17,20,24)" stroke="rgb(17,20,24)" stroke-width="1" opacity="0.996078431372549" d="M 66.5 178 L 78 178.5 L 66.5 179 L 66.5 178 Z " /><path fill="rgb(17,20,24)" stroke="rgb(17,20,24)" stroke-width="1" opacity="0.996078431372549" d="M 145.5 178 L 157 178.5 L 145.5 179 L 145.5 178 Z " /><path fill="rgb(17,20,24)" stroke="rgb(17,20,24)" stroke-width="1" opacity="0.996078431372549" d="M 30.5 179 L 33 179.5 L 30.5 180 L 30.5 179 Z " /><path fill="rgb(17,20,24)" stroke="rgb(17,20,24)" stroke-width="1" opacity="0.996078431372549" d="M 99.5 179 L 102 179.5 L 99.5 180 L 99.5 179 Z " /><path fill="rgb(17,20,24)" stroke="rgb(17,20,24)" stroke-width="1" opacity="0.996078431372549" d="M 39.5 180 L 42 181.5 L 40.5 181 L 39.5 180 Z " /><path fill="rgb(17,20,24)" stroke="rgb(17,20,24)" stroke-width="1" opacity="0.996078431372549" d="M 192.5 182 L 198 182.5 L 192.5 183 L 192.5 182 Z " /><path fill="rgb(17,20,24)" stroke="rgb(17,20,24)" stroke-width="1" opacity="0.996078431372549" d="M 65.5 183 L 81.5 184 Q 83 181.5 88.5 183 L 88.5 184 L 82 184 Q 84.1 190.4 77 188 L 77 184 L 65.5 184 L 65.5 183 Z " /><path fill="rgb(17,20,24)" stroke="rgb(17,20,24)" stroke-width="1" opacity="0.996078431372549" d="M 101.5 184 L 152 184.5 L 136.5 185 L 135 186.5 Q 136.2 191.1 131 189 L 129.5 185 L 101.5 185 L 101.5 184 Z " /><path fill="rgb(17,20,24)" stroke="rgb(17,20,24)" stroke-width="1" opacity="0.996078431372549" d="M 64.5 186 L 65 190.5 L 64 190.5 L 64.5 186 Z " /><path fill="rgb(17,20,24)" stroke="rgb(17,20,24)" stroke-width="1" opacity="0.996078431372549" d="M 32.5 188 L 38 188.5 L 32.5 189 L 32.5 188 Z " /><path fill="rgb(17,20,24)" stroke="rgb(17,20,24)" stroke-width="1" opacity="0.996078431372549" d="M 0.5 189 L 5 189.5 L 0.5 190 L 0.5 189 Z " /><path fill="rgb(17,20,24)" stroke="rgb(17,20,24)" stroke-width="1" opacity="0.996078431372549" d="M 10.5 189 L 16 189.5 L 10.5 190 L 10.5 189 Z " /><path fill="rgb(17,20,24)" stroke="rgb(17,20,24)" stroke-width="1" opacity="0.996078431372549" d="M 176.5 189 L 188 189.5 L 176.5 190 L 176.5 189 Z " /><path fill="rgb(17,20,24)" stroke="rgb(17,20,24)" stroke-width="1" opacity="0.996078431372549" d="M 158.5 190 L 160 190.5 L 157.5 192 L 158.5 190 Z " /><path fill="rgb(17,20,24)" stroke="rgb(17,20,24)" stroke-width="1" opacity="0.996078431372549" d="M 161.5 190 L 164 191.5 L 163.5 196 L 163 191 L 161.5 190 Z " /><path fill="rgb(17,20,24)" stroke="rgb(17,20,24)" stroke-width="1" opacity="0.996078431372549" d="M 60.5 192 L 64.5 197 L 80 197.5 L 64.5 198 L 60 193.5 L 60.5 192 Z " /><path fill="rgb(17,20,24)" stroke="rgb(17,20,24)" stroke-width="1" opacity="0.996078431372549" d="M 77.5 192 L 81 192.5 L 77.5 193 L 77.5 192 Z " /><path fill="rgb(17,20,24)" stroke="rgb(17,20,24)" stroke-width="1" opacity="0.996078431372549" d="M 19.5 193 L 23 193.5 L 19.5 194 L 19.5 193 Z " /><path fill="rgb(17,20,24)" stroke="rgb(17,20,24)" stroke-width="1" opacity="0.996078431372549" d="M 108.5 193 L 126 193.5 L 108.5 194 L 108.5 193 Z " /><path fill="rgb(17,20,24)" stroke="rgb(17,20,24)" stroke-width="1" opacity="0.996078431372549" d="M 140.5 193 L 149 193.5 L 140.5 194 L 140.5 193 Z " /><path fill="rgb(17,20,24)" stroke="rgb(17,20,24)" stroke-width="1" opacity="0.996078431372549" d="M 31.5 194 L 32 196.5 L 31 196.5 L 31.5 194 Z " /><path fill="rgb(17,20,24)" stroke="rgb(17,20,24)" stroke-width="1" opacity="0.996078431372549" d="M 90.5 197 L 94 197.5 L 90.5 198 L 90.5 197 Z " /><path fill="rgb(17,20,24)" stroke="rgb(17,20,24)" stroke-width="1" opacity="0.996078431372549" d="M 183.5 197 L 184 199.5 L 183 199.5 L 183.5 197 Z " /></svg>