<svg xmlns="http://www.w3.org/2000/svg" width="200" height="200"><path stroke="#000" d="M36.5 8q4.4-1.5 3.5 1.5L38.5 9q-3 .5-2-1Zm-4 1 2.5.5-2.5.5zm-9 2 3.5.5-3.5.5zm17 0 .5 2.5h-1zm-20 1 1.5.5L5.5 24l1-2zm21 4 .5 3.5h-1zm1 5 .5 3.5h-1zm1 5 .5 3.5h-1zm-38 1 .5 2.5H5zm103 2 7.5.5-7.5.5zm-13 1 5.5.5-5.5.5zm23 0 4.5.5-4.5.5zm-74 1 .5 2.5h-1zm44 0 3.5.5-3.5.5zm-83 1-5 6zm78 0 2.5.5-2.5.5zm48 1 2.5 1.5-1.5-.5zm-54 2L76 37.5 74.5 40l.5-1.5zm-32 1 .5 2.5h-1zm96 2 3.5 2.5-1.5-.5zm-95 3 .5 2.5h-1zm101 3 1.5 2.5-2-1zm-100 1 .5 2.5h-1zm15 0 1.5.5-3.5 1.5v-1zm-4 2-1 2-3 1v-1zm94 1 5.5 3.5-1.5-.5q-4-.5-4-3Zm-104 1 .5 2.5h-1zm111 3 4.5 3.5-2.5-1.5zm6 4 1 2zm3 2 10.5 9.5-6.5-5.5zm12 10 2 3zm3 4 1 2zm3 3 4.5 5.5h-1zm3 7-1 2zm-2 3-2.5 3.5-2.5 3.5 1.5-2.5zm-6 8-2 3zm-3 4-2 3zm-3 7 3.5 7.5h-1zm-175 2 .5 2.5H0zm1 4 .5 2.5H1zm1 5 .5 2-2-.5zm176 5 .5 3.5h-1zm-1 5 .5 1.5-3.5 5.5-.5-1.5zm-162 13 1.5.5-3.5 5.5.5-1.5 1-2-3-1zm-5 1 .5 4.5h-1zm.5 6 2 .5-1.5 2.5zm163.5 0 .5 7.5h-1zm1 11 .5 3.5h-1zm1 6 .5 2.5h-1zM.5 180l11.5 9.5-2.5-1.5-8-6zm183 3 12.5 16.5-4-3zm-172 8-.5 1.5-1.5 2.5.5-1.5zm-3 5-.5 1.5-.5 1.5-.5-1.5z" opacity=".816"/><path stroke="#000" d="m36.5 9 3.5 1.5-1.5-.5q-3 .5-2-1ZM18 14h6v4.5q-1.4 2.8-6 1.5zM5.5 24l.5 2.5H5zm.5 6q3-1 2 2-3 1-2-2Zm95.5 0q7.6-1.5 6.5 2-6.6 1.5-6.5-2Zm12.5 0 11 1.5-11 .5zm-21.5 1 3.5.5-3.5.5zm-10 2-1 2-3 1v-1zm56 4 7.5 4 1 2.5-9 .5zm-69 6 2.5 1-.5 6-3-1-2.5 1v-6h2.5zm-23 1 .5 2.5h-1zm7 6 .5 2q-2.7-1.1-2 1.5h-1q-1.1-3.3 1.5-2.5z" opacity=".996"/><path stroke="#000" d="M48.5 52q2.3-.7 1.5 1.5zm132 17 3.5 4.5-4 .5zm3 20-1 2zm-3.5 3 2 .5-2 1zM1.5 107l.5 2.5H1zm177 5 .5 7.5h-1zm-178 5 2.5.5-2.5.5zm171 11 2.5.5v16h-1l-1-10.5q-5.2 2.1-4-2.5zm3 25 .5 4.5h-1zm6 25 1.5 4q-3.8 1.2-1.5-4Zm6 11 1 2zM12 190l2 .5-2 1zm-1.5 4 1.5.5v5.5l-5-.5zm175.5 0q4.6-1.2 6 1.5 2.2 6.3-3.5 4.5-3.5-1.3-2.5-6Z" opacity=".996"/><path fill="#5a5d67" stroke="#5a5d67" d="M118.5 37q7.8.3 12.5 3.5L117.5 42l-7.5 5.5-2 3-2 5.5h-2q1.5 3.8-1.5 3l-5 1 1.5-2.5q3.1-9.9 10.5-15.5zm-34 23 2.5.5-2.5.5zm-83 7 2.5.5-2.5.5zm125 0 3.5.5-3.5.5zm-58 1 2.5.5-2.5.5zm23 0-1 2zm52 0 1.5.5-2.5 1.5zm-87 1 2.5.5-2.5.5zm-14 23 .5 2.5h-1zm93 2 1.5 2.5-2-1zm7 2-1 2zm19 0 1 2zm-83 1 6 5 4.5-3.5-4.5 5.5-2.5-1zm60 0 1 2zm12 1-1 2zm11 1 1.5.5-2 .5 3 5.5q-5.3 3.7-6 12 2.8 1.7 1 8h-1q1.8-6.8-1.5-8.5H152v8.5h-1v-8l2-2 2-8 3.5-4.5q2.6.8 1.5-2.5zm-114 6q2.3-.7 1.5 1.5zm118 0 3.5 1.5-1.5-.5q-3 .5-2-1Zm-107 1-1 2zm114 8 .5 4.5h-1zM7 121q3.8-1 5 1.5l-1 2.5-4-1zm16.5 11 2.5.5-2.5.5zm131 0 2 3zm-154 5L7 169.5 6 172q-3.3 1.3-2-3.5l-3-10v-2l-1-2zm51 3 1.5 2.5-2-1zm74 4 2.5 1.5-1.5.5zm-10 7h5q.5 3.5 5 3l1.5-.5-1 1 5.5 5.5 3.5 1.5-3.5.5-5-4-2.5 3.5 2 3.5 6 2q-1.7-4.1 2.5-3l2-2 10-1 4.5-2-2-3.5 6 5 2 3-2.5-1.5-1 1-10 4-14 1-5.5-4.5-6-11.5q-3.3.8-2.5-1Zm-51 3 1 2zm33 0q2.3-.7 1.5 1.5zm-42 4q3.4-.9 1.5 4.5l3 13h-1zm65 8 2 3zm4 3 1 2zm-82 3 .5 3.5-2.5 4.5q-2.6.8-1.5-2.5zm87 0 2.5 1.5-1.5-.5zm-106 4 1 2zm143 2 1.5 2.5-2-1zm-154 2 5 6zm156 2 2.5 3.5-3-2zm-134 3 6 7zm137 2 1 2zm-50 2 4.5 1q1.1 2.7-1.5 2l-1.5.5zm-5 1 2 3zm57 0 8.5 9.5-6 .5zm-156 7-.5 1.5q.8 2.3-1.5 1.5z"/><path stroke="#000" d="M0 0h200v200q-4.7 1-6-2.5-10.8-10.7-16-27l-3-15-1-23q7.5-6.5 5-23l-4-7 16-23L180.5 68Q166.6 54.4 148 45.5l-4.5-6.5-17-8-18-2-1 1h-12l-1 1-11 1-8.5 5.5-2.5 4.5q-13.5 3-23 10L46 40.5 40 8l-19.5 4L5 23.5l-1 2 2 6-6 5zm.5 109 1.5 6.5-2 1zM11 140l4 .5-2 4.5h-2zM.5 181l11.5 9.5-5 7v2.5H0z" opacity=".004"/><path fill="#343235" stroke="#343235" d="m19.5 30 3.5.5-3.5.5zm-1 5L12 42.5q.8 2.3-1.5 1.5L6 50H0v-2.5q1.3-4.3 6-3.5l6.5-8q4.8 1.3 6-1Zm88 1 8.5.5-8.5.5zm26 4 2.5 1.5-1.5.5zm-112 2q2.6-.8 1.5 2.5L7.5 59 6 57.5q-.5-4 2.5-4.5zm99 0 2.5.5-2.5.5zm-5 2-5 6zm-87 2 .5 1.5-2 1zm98 1 7.5.5-7.5.5zm-8 2-3 4zm-96 4-3 4zm85 2 .5 2.5-2 1zM.5 56 2 60.5l-2 1 1-2zm16 2-3 4zm75 2 4.5.5-4.5.5zm40 0 6.5.5-6.5.5zm-73 1 1.5.5-2.5 1.5zm16 0 4.5.5-4.5.5zm76 3 1 2zm-144 2 1.5.5L4.5 68v-1zm82 1 3.5.5-3.5.5zm49 0 5.5 1.5-8 26.5-6-1q-1.1-3.3 3-2v-6.5q3.5-7 4-17zm-97 6 .5 16.5 2 7-.5 1.5 7.5 1-1 5.5q2.8 1.8 1 8h-1V105h-5.5l-4.5-3.5-1-3v-22zm-8 6 .5 3.5h-1zm146 4 .5 1.5-2 1zm-2 4-2.5 3.5-2.5 3.5-1.5-.5zm-11 3 2.5 1.5-1.5-.5zm-84 1-1 2zm7 1 1 2zm57 1-1 2zm18 4 3.5 8q-4.7.8-6-3.5l3-2zm-105 1 3.5.5-3.5.5zm60 0 3.5.5-3.5.5zm23 0-1 2zm-10 4-1 2-1.5-.5zm4 2 1 2zm-98 8 1 2zM9 116l6 1.5v2l1 6-1 2.5q-2.7 1.1-2-1.5v-2q.8-3.7-1.5-4.5L8 118.5zm53.5 0 3.5.5-3.5.5zm46 1-1 2zm27 1 .5 4.5h-1zm16.5 0 3.5 1q1.3-2.2 2.5.5-1 7.5 1 10.5l-5 1q-2.8-4.8-2-13Zm-133.5 1q2.3-.7 1.5 1.5zm56 1 2 3zm-54 2 .5 2.5h-1zm18.5 0q4.1-1.7 3 2.5l-2 1zm80.5 0-1 2zm-119 2 3.5.5-3.5.5zm106 0 10.5.5-10.5.5zm28 0-1 2zm8 1q-.5 9.5 5 13 2.6-.7 1.5 2l-5.5 2q-5-3-5.5-10.5l4-3zm-75 2 4.5.5-4.5.5zm-22 1-1 2-2 1 1-2zm-40 2 6 2 1.5-.5-3.5 1.5-4.5-1zm-2 2 .5 2.5H3zm54 1 .5 4.5h-1zm103 1 1.5.5-2.5 1.5zm-156 3 .5 3.5H4zm21 3 2.5 3.5-2.5.5q-3.3 1.1-2.5-1.5zm-20 2 1.5 5.5H6zm19 3 2.5 4.5-3 2q.8 2.3-1.5 1.5l-6 5 .5-1.5 1-4-.5-1.5 4.5-2zm125.5 1 5 .5-4.5 1.5zm-57.5 2 2.5.5-2.5.5zm60 0 1 2zm-145 3 .5 3.5H7zm40.5 1h7.5l.5 1.5 1 3.5q-3.3-1.3-2 3.5h-1l-.5-2.5-.5 2q-5.6 2.2-4-3.5zm45.5 2 3.5.5-3.5.5zm6 0 .5 1.5-2 1zm-91 2 .5 3.5H8zm98 0 1.5.5-4.5 3.5zm-25 5 .5 1.5-2.5 3.5.5-1.5zm13 0-2 3zm-39 1 1.5 6.5h-1zm-46 1 1.5 6q-2.7-1.1-2 1.5L8 173l-2-.5 4-6zm64 1 .5 1.5-2 1zm-31 4 1.5 4.5h-1l-.5-2.5-1.5.5zm29 0-.5 1.5-.5 1.5-.5-1.5zM12 170l2 .5-2 1zm45.5 0 .5 3.5h-1zm-13 5 1.5 5.5-3.5 4.5-3-4 3.5-2.5zm14 0 2.5 7.5-2-1-2-5zm15 2 .5 2.5h-1zm-36 1 .5 2.5h-1zm-10 1 1 2zm72 0 2.5 1.5-7 14.5-5-1 2.5-12 .5 2.5-2 8.5 2.5 1 7.5-14zm-44 6 .5 4.5h-1zm78 0-.5 1.5 5 10-4 2 .5 1.5q-2.2.8-1.5-1.5l-5-8V188q4.2.7 5.5-3Zm-49 1 .5 2.5h-1zm-47 1 4.5 1 1 3.5-1.5.5zm10 0-.5 1.5-.5 1.5-.5-1.5zm121 1 .5 6.5h-1zm-46 1 3.5.5-3.5.5zm-8.5 3q3.8-1 5 1.5l2.5 4.5 3.5 1-1-5.5 2.5-.5q3.3 2 2.5 7h-10.5l-.5-2h-1.5l-2.5 1.5-3-5 3-1zm-5.5 1 1 2zm51 1-1 2zm-142 1 1 2-1-1-2.5 1.5zm57 1 2.5 1.5-1.5-.5zm93 0-1 2zm19 2 1 2z"/><path fill="#ea3864" stroke="#ea3864" d="M24 68q3.3-1.3 2 3.5 4 10 4 24L27.5 99 21 74.5q3.6-1.9 3-6.5Zm94.5 3h16l.5 2.5-4 14-6.5 10.5-1.5-.5 2-.5v-3.5l6-14-7.5-.5-27 6-3 2-2-3Q80.6 82.7 75 85l-3.5 8-.5-1.5 1-5.5-18.5 5-5.5 3.5-1.5 3.5-1.5-.5V81l16 2q.8-5.5-2-8.5l1.5-1.5L74 72l3.5 6h14l3.5-2.5 2.5-3.5 4 1 1-1h15zm48 70 1.5 20.5q2.2 1.3 1 6l2 3h-2l-.5 11.5-4.5-7.5V172l3-1.5v-4q-3.4-8.6-10-14l-2-6.5h3.5zM96 169l11.5 2 1.5 1.5q1.3 4.6-4.5 2.5l-8.5-2z"/><path fill="#e88c91" stroke="#e88c91" d="M21.5 55q3-.9 1.5 3.5 2.6 2.9 2 9L21.5 74 18 58.5zm114 13 .5 1.5q-1.5 3-7.5 1.5v-1q7.3 1.5 7-2Zm-27 3 9.5.5-9.5.5zm-48 1 5.5.5-6.5 1.5zm38 0 3.5.5-3.5.5zm25 7 7.5.5-6 14V97l-2.5 1h-21L94 86zM44 80l4 .5-3 .5-.5 9zm25.5 6q4.6-1.3 2.5 4.5L69 98l-22-.5 2.5-4.5zm21 11q2.3-.7 1.5 1.5l3.5 5.5 5 2h19q1.8-2.7 8-1l7.5 6.5v11l-2.5 3.5-.5-4-6-.5 3-11.5h-7.5l-9 2-7.5 4-1.5 3q-3.5-2.5-11-1l-1-1h-9l-7 2q-3.9-5.3-11.5-6 1.8-4.5-3.5-3v1l1.5.5-5 .5q-1.1-3.3 3-2v-4h9.5l6.5-4.5 1.5-3.5 2.5 1 3.5 5 4.5-3.5zm-30 29 1 2q-2.8.7-1-2Zm6 3 2.5.5-2.5.5zm44 11q3.8-.7 4.5 1.5 1.1 3.3-1.5 2.5l-2 1-.5-2.5zm59 30 7.5 16.5 10 13-5 .5-13-17.5z"/><path fill="#705f4b" stroke="#705f4b" d="M123.5 48q3.8-1 2.5 2h3.5l4 1 4-2 13.5 6.5-1.5.5q-1.8-2.8-8-1v1l16.5 9.5 1.5 2.5 5 1 8.5 5.5V80h2.5l5.5 1.5-22 1.5v-3.5L154 66l-12.5-6-8.5-.5 4.5-3.5h2.5q1.1-2.7-1.5-2-2.3-2.7-8-2l-5.5 7q-2.4 1.8-8.5 1l-3.5-1 3-8z"/><path fill="#705f4b" stroke="#705f4b" d="m129.5 48 5.5.5-5.5.5zm-103 2q4.6-1.4 2.5 4.5l4 20-1 1v28l.5 1.5-2.5 1.5-1 3 5 18v4.5h-5v-1.5l-7-25q-3-22.5-9-42l5-4 5 25L27.5 99q4-2.5 2.5-10.5l-7-35zm42 0q2.3-.7 1.5 1.5zm-2 1L65 53.5q-.8 2.6 2.5 1.5l1.5-.5-2 7.5q-4.1 1.7-3-2.5l1-4.5-7 2.5-1 5.5-6-.5 6-2.5 1-5q5.4-.3 8.5-4Zm-47 5-1 2zm31 3-1 2zm110 2 1 2zm3 2 1 2zm3 2 2 3zm5 4 10 11zm-89 2 4.5.5-4.5.5zm-18 27 3.5.5-3.5.5zm38 0 10.5.5-10.5.5zm-38 7 2.5.5-2.5.5zm37 0 12.5.5-12.5.5zm22 5h4.5v6.5l-3.5 6.5-4 2h-2l-1.5-.5 3-2 2-7q-1-2.5-5.5-1.5l-7 2-4.5 3.5-2 3h-1l4.5-6.5 5-3zM57 112q13.2-.2 19 8.5l-2.5-1.5q-4.2-3.7-11.5-3v5.5l3 5.5 6 1.5-5.5.5-2.5-1q1.1-2.7-1.5-2l-2.5-1zm-16.5 5-1 2zm-23 1 2.5.5-2.5.5zm26.5 1 2 .5-2 1zm4.5 3 1.5 6-2.5 1-1.5-3.5zm60 3 5.5.5-5.5.5zm-36 2 2.5.5-2.5.5zm28 6 2.5 1.5q-4.9 7.5-18 5.5-1.4-4 5.5-2zm-73 6 3 5 2-1-1 2-4.5-3.5zm3 0 1 2zm7.5 8q3.8-1.5 3 1.5 1.3 4.3 6 3.5 1.5 3.8-1.5 3l-7-5-1.5.5zm60.5 0 2.5.5-2.5.5zm-11 1 2.5.5-2.5.5zm-61 3 3.5 1 1 3.5-4.5 2.5h-2l-7.5 2q-1.1-2.7 1.5-2zm47.5 4 3 .5-5.5 11.5-.5-3.5zm10.5 2-1 2zm22 0q3-.9 1.5 3.5l3 5-1.5-.5-7.5-1zm-62 4 1 2zm38 6 2.5.5-2.5.5zm-7 5 2.5 7 4.5-3 5-1-1.5 2.5-3.5 14.5-9.5-4 1-10.5 2-2zm-45 1 1 2zm86 0 .5 2 5 2.5q-1.7 4-8 2.5zm-20 6 3.5 1q1.3 3.3-3.5 2l-2.5-1.5zm14 9 3.5 2.5-2.5 3.5.5-1.5-1.5-3.5-1.5.5zm50 1 .5 2.5h-1zm-34 1 1 2q-2.8.7-1-2Zm-60 2 5.5 3-1 5h-5v-3.5l1-3zm42 0 1 2zm20 1 4.5 6.5-3 .5zm-67 3 .5 3.5h-1zm16 2h2q2.6-.7 1.5 2-5.6 1.7-3.5-2Z"/><path fill="#454145" stroke="#454145" d="m14.5 30 4.5.5-4.5.5zm9 0 1 2zm92 6 2.5.5-2.5.5zm16 4 1 2-10.5-.5 8.5-.5zm-18 4-3 4zm-86 4-3 4zm81 1 .5 1.5-2.5 4.5-.5-1.5zm10 0-1 2zm-3 3-1 2zm15 0h4l5.5 2q1.3 3-2.5 2l-5 4h-9v-1q2.3.8 1.5-1.5zm-68 3q4.2-1.3 2.5 3.5L64 62l-5.5-1-1.5.5 2.5-5.5zm51 0 .5 1.5-1 2.5 3 .5-4 .5zm-9.5 1 2 .5-1 3.5-3-.5 2-.5zm-86.5 2-4 5-4 3 3-4zm70 2 3.5.5-3.5.5zm51 0 3.5.5-3.5.5zm-90 2 1 2zm-16 13 .5 3.5h-1zm134 7 13.5.5-2 .5q-1 6.8-7.5 10-3.2-4-9.5-4 1-4.2-2-5.5zm-35 4 .5 6-3-.5zm-49 5q6.1-1.2 5.5 1.5l2.5 3.5q-2.2-.7-1.5 1.5l-5.5 4.5-5.5-5.5 2-2zm-38 7 5.5.5-5.5.5zm119 1-1 2-1.5-.5zm-124 3 1 2zm93 0 4.5 4.5-1 1q1.1 3.3-1.5 2.5l-5-6zm30 1 2 3zm-39 1 2.5.5-2.5.5zm-63 1 3.5.5-3.5.5zm75 9 .5 3.5h-1zm-94 2 3.5 2.5-2.5 5.5-.5-2q-4.1 1.7-3-2.5zm111 1q4.5-1 5.5 1.5l-3.5-.5q-3 .5-2-1ZM7 119l6 2.5-1 4 2 4q-1.7 4.3-3.5 1.5l-5-1-.5 2q-3-1.2-2 2.5l2 11 2 3v6l3 12-4 7.5q-3 1-2-2 2.7 1.1 2-1.5l1-5-4-12-1-11-2-6V125l6-1 .5-2 .5 2 4 1 1-2.5q-1.2-2.5-5-1.5zm145.5 6 .5 2.5h-1zm-107 1 1.5 2.5h-3zm108 3 .5 2 5.5-2 4.5 3q1.3 3.3-3.5 2l-2 3-5.5-6.5zm-127 3 2.5.5-2.5.5zm119 3 2 3zm-94 1 .5 3.5h-1zm89 3 2 3q-2.2.8-1.5-1.5zm-113 3 2 3zm18 0 1 2zm106 5q3.3-1.1 2.5 1.5l.5 1.5zm-110 1 3 4zm42 0 3.5.5-3.5.5zm-58 2 5.5 2.5 1 2-2-1q.8-2.2-1.5-1.5l-2-1q-3.1 6-9.5 7-1.2 3 2.5 2v1q-4.8 1.7-3.5-2.5l8-5.5zm41 1 1 2zm55 0 4.5 2.5-2.5.5zm-74 1 1.5 5.5h-1zm27 2 2.5.5-3 .5-.5 2-.5-1.5z"/><path fill="#454145" stroke="#454145" d="m.5 155 1.5 2.5-2 .5zm64 0 1 2zm-42 3 1.5.5-2.5 1.5zm104 0 5 4 4.5.5-4 1.5q1.5 3.8-1.5 3l-4.5-2-2-3.5zm-125 1 .5 2.5H1zm54 0 .5 2.5h-1zm48 1-1 2zM82 161q3 2 10.5 1l1.5-.5q-3.4 2.1-3.5 7.5L80 167zm28.5 3-1 2-1.5-.5zm-40 1 1.5 2.5-2 1zm-67 3 .5 2.5H3zm25 0-1 2zm31 1 .5 2.5-1.5 3.5-.5-2.5zm-45 1-2 3zm28 0 .5 1.5-2 1zm-22 3 1 2zm23 0 .5 3.5-3.5 4.5q-4.2 1.3-2.5-3.5l2-1-1 3.5 3-1.5zm17 1 .5 3.5-2 1zm13.5 1 2 .5-2 1zm13.5 1-.5 1.5-.5 1.5-.5-1.5zm34 2-2 3-2.5-.5zM93 179l3 .5-2 1 6 1.5.5-2 .5 1.5-7.5 12.5-2.5-1zm-33 1 2 .5-.5 2.5zm13.5 0 .5 2.5h-1zm93 0 7.5 11.5 2 8.5-11-.5q5.3-2.2 4-11zm-94 5 .5 2.5h-1zm-54 1 1 2zm95 1 2.5 1.5 1 3-3.5 1.5.5-1.5-2-3zm-30 1 .5 3.5h-1zm43 1q2.3-.7 1.5 1.5l4 6h-2l-.5 3.5-3-7-2.5-.5 4-1zm-80 1-1 2zm9 2-1 2zm12 0 1 2zm5 3 4 3 2-1v1H77l-.5 2H71zm-55 1 1.5 4q-2.7 1.1-2-1.5l-3 1zm103 0 1 2zm-4 2q2.3-.7 1.5 1.5h-3z"/><path fill="#e3dcd5" stroke="#e3dcd5" d="M30.5 18q5.3-1.7 3.5 3.5L33 24l-3 1.5q4.6-.6 6 2l2 10-1 3q3.8 8.7 4 21L38.5 65l-5 4-1.5-2.5-2-16-3-11v-2l-1-5 1-3-2.5-.5q-4.6.6-6-2l-.5 2-4-.5 2.5-3.5 5-4zm64 20 17.5.5-2 .5q1.1 2.7-1.5 2l-2.5 4-5.5 2-16 1-4.5-1 1-2.5-1-1 3.5-3.5zM0 68h4v1.5L14 115l-5-1-7-30.5zm11 0q3-1.2 2 2.5l2 3L17 86q-4.1 1.7-3-2.5zm89.5 0h34l.5 2h-6.5l-1 1-29 1 .5-1.5zm-35 1q7-1.5 6.5 1.5l.5 1.5h-12L59 73.5l2 9.5-17-3 1 17.5h-1l-2-9v-16l1.5-1.5 21-1zm77.5 1 5 1 2 8.5-2.5-1.5-2-1-9 19-.5-2.5 4-9zM16 92q4.9-1.8 3 4.5l5 19-4 .5-2-10.5v-7q-2.8-2-2-6.5Zm137.5 5 4.5.5-1 2 1.5 2.5q-2.2-.7-1.5 1.5l-6.5 12.5-3.5 2.5-1 5.5q-4.5 1.8-3-3.5l-1-2 3-12 5.5-7.5zm-113 8 1 2zm-9 2 1.5 5 7 3.5-1.5 3.5q-3.3-1.1-2.5 1.5h2v2l1 5.5 3-1.5 4.5-6.5q2.3-.7 1.5 1.5l-6.5 8.5-5.5 1-6-22.5zm133 0q4 .5 3.5 5.5l-1 3.5-4.5 1-3.5-1q.9-5.9 5.5-9Zm-80 10 18.5 2.5-2 3 4.5 3.5 11 1 7-3 1 3q5.3 1.8 3.5-3.5l1.5.5q3.3-1.1 2.5 1.5l-12.5 7.5-5 1-2.5 2.5 1 2-3 1.5 1 5-9.5 2-17 1-1-1-12-1-9-4-3.5-3.5v-9l1.5-1.5 5 2h6l7.5-5.5-2-5.5zm16.5 15-6 4-9 1-2 2 2 2q9 1 14-2l4-5zm-76.5-13 2.5 8.5-1 2.5q-2.7 1.1-2-1.5l-2-6.5q3.1 1.1 2.5-3Zm26 3 1.5 3.5-2-1zm85 11 1.5.5-10 7q2.8 1.1 2 4.5l-5-3.5-1-2zm-86 3 .5 3-5.5 1-.5-2zm-28 8 .5 2.5-3 2zm117 7 11.5 5q1.1 2.7-1.5 2-4 3-11 3l1.5-2.5-1.5-2.5-1.5-.5zm-42 4 1.5.5-3.5 4.5-10.5 1v-2q2.7 1.1 2-1.5l1.5-1.5h8zm55 10q4.4-1.5 3.5 1.5l1.5 2.5-11 4h-9l-1 1-3.5-1 1.5-4 12-1zM12 174l6 3.5 1.5 2.5 10.5 8.5 2 3 2 8.5q-5.4 1.5-7-1.5v-4l-4.5-5.5-2.5-1.5-1.5-2.5-8.5-7.5zm140.5 9 1.5 2.5v2q1.3 6.1-1.5 5.5l-3 2-9 2-6.5-11 3.5-1 4.5 2q-1.3-3.7 4.5-2zm-35 5 4.5 3.5 1 4-4-3z"/><path fill="#7f2536" stroke="#7f2536" d="M74.5 68q4.5-1 5.5 1.5-.7 2.3 1.5 1.5l5 1 6-4h6l-.5 1.5-4.5 7.5-2 1h-14L75 75.5l-2-6zm17 16 1 2zm-16 1 .5 1.5-2 1zm51 11-1 2zm-13 2 4.5.5-4.5.5zm8 17 .5 2.5h-1zm45 25-2 3-2 1 1-2zm1 7 .5 6.5h-1zm-12 2 1.5 2.5-2-1zm3 5 2 3zm4 5 1 2zm6 0 .5 2.5h-1zm-72 9 2.5.5-2.5.5zm-1 2 .5 2.5h-1zm9 0 2.5.5-2.5.5zm62 0-1 2zm-58 1q2.3-.7 1.5 1.5zm-2 4 2.5.5-2.5.5z"/><path fill="#838380" stroke="#838380" d="m19.5 22-1 2zm-5 4-1 2zm8 3 2.5 1.5-1.5-.5zm75 8 2.5.5-2.5.5zm15 2-2 3-4 3 4-5zm-34 8 10 2 2-2H104l-7.5 13L75 61zm47.5 1 10 1.5-5.5 1.5-4.5-1zm-58.5 3q2.6-.8 1.5 2.5L65 55zm74 4q9.5-1 14 3 15.3 9.2 26.5 22.5l-5.5.5-3.5-1q1.5-5.4-1.5-7L158 66.5l-2.5-3.5-14-7zm-85 1 1.5.5-1 3.5-8 3 3.5-5zm-15 6 .5 1.5-2 1zm-29 1 1.5 3.5h-1zm89 4 24.5.5-24.5.5zm29 0 5.5.5-5.5.5zm-110 1 .5 2.5h-1zM80 68l11 .5-1 2.5h-8.5L80 69.5zm-47.5 1 1 2zm27 0 2.5.5-2.5.5zm87 0 1 2zm-105 6 .5 4.5h-1zM145 78q4.7.5 7 4.5l1 6.5q-8 1.6-12 8.5l-.5 1.5-3.5-2.5zM17.5 82l.5 2.5h-1zm24 0 .5 3.5h-1zm49 14-1 2zm70 0 3.5 2.5-4 2-.5 2.5-1.5-4.5zm-80 4 1 2zm7 0-2 3zm-66 1 .5 2.5h-1zm73 1 1 2zm33 2 2 3zm-96 1 1.5.5-2.5 1.5zm11 0 6.5 2.5q1.9 5.4-1.5 4.5l-5.5-3zm25 0 2.5.5-2.5.5zm47 0 5.5.5-5.5.5zm42 0-1 2zm7 1-2 3zm2 0 5.5 2.5 1 2v12l-2.5 5.5-1.5-.5q.8 3.8-1.5 4.5-5.1.6-6.5-2.5l-2-14h1q-.5 3 6.5 1.5 3.5-1 2.5-6.5zm-34 1 2 3zm-108 2 .5 2.5h-1zm10 0 3 4zm95 1 .5 2.5h-1zm-104 3 .5 2.5h-1zm128 0 .5 2.5q-4 2-2 10 1.7 7.3 7 11l-3.5 2.5v-1q3 .7 1.5-3-2.7 1.1-2-1.5-.7-2.2-4.5-1.5l-2.5 1.5 3 .5v4h1.5v1l-5.5-3.5-3-10.5q3.8 1.5 3-1.5l2-6.5 4-1.5zm-44 1-1 2zm-77 2 .5 2.5h-1zm41 0 3 4zm32 2-2 3zm-72 2 .5 2.5h-1zm16 0q2.5 1 1.5 5.5h-1zm71 4-1 2-4.5-.5zM59 125l4 1-.5 2-2.5-1.5-.5 1.5zm-24.5 3 .5 3.5h-1zm37 0 2.5.5-2.5.5zm66 5 2.5 9q-6.1-.7-9.5 3l-2.5-4.5 9-5.5zm-35 2-1 2zm-59 2 1 3q4.6.6 6-2l2.5 7h-4.5l-6.5-6.5zm42 0 5.5.5-5.5.5zm14 0-1 2zM28 139l5 2-1.5 3-3.5-2.5zm58.5 1 5.5.5-5.5.5zm-64 6-1 2zm115 4-1.5 2.5-1 3 4 2-2.5 3.5 5.5.5-6.5.5-9.5-7.5zm-97 1 1 2zm77 1 2.5 4.5-2-1zm-74 1 3.5 2.5-1.5.5zm43 2-1 2zm34 3 7 9 5 1 1-1h8v1h-8l-1.5 1.5q1.3 4.2-3.5 2.5l-9.5-7.5 3-.5-.5-3-1.5.5v-2zm-78 1 1 2zm105 0 1.5.5-4.5 1.5v-1zm-62 2 5.5.5-5.5.5zm32 0 1 2zm37 1 4.5 5.5-1.5-.5q-2.2.8-1.5-1.5l-3.5-1.5-8 3v-1q6.5-.5 10-4ZM78 167l12 1-3.5 8h-4l-4.5 3-2-7.5zm-60.5 1 2.5.5-2.5.5zm-3 3-3 4zm14 0 1 2zm5 1-1 2zm-23 6 1 2zm21 5 1 2zm138 0 1 2zm2 3 1 2zm-38 1 1 2zm-23 2 1.5 3.5q-1.5 3-3 0zm6 0 1 2zm57 0 1 2zm-127 2-1 2zm17 0 3.5 2.5-1 6.5h-4v-7.5zm114 3 4 5zm-20 1-1 2zm-36 1 2 1 1.5-.5-2.5 1.5z"/><path stroke="#000" d="m35.5 9 4.5 2.5 6 30v5l3.5 7.5 1-2 1 2 .5-2h2q-1.1-2.7 1.5-2l10-5 .5 6q-10.6 2.8-18 9.5V64h8.5l1-1h9l1.5-1.5q0-8 4-12V44l-2-.5 4-1.5 3.5-6 10-4 14-1 6.5 1v-2h6l.5 2h13l10.5 5v7h8.5l.5 1.5L167.5 58 180 68v6h5.5l.5 1.5 4 4v2L182 92q-3-1.2-2 2.5l-5 7v4l3 4v14l-3.5 6.5-.5-2-3.5 1 .5-1.5q3.9-6.1 2-18l-2.5-3.5-3.5-2.5q-.4-5.5-4.5-7.5l-6-1-4 1-5.5 5.5-5 10-1 11 1 5-11.5 7.5-8.5 3q.1 5.6 4.5 8l14-4h5l3-2h6l13-8 .5 2h4v8.5l2 3v12l2 3v5l4 11v5.5q4.1-1.7 3 2.5l7 9-4 .5-.5 3-9.5-14.5-6-14-1-12-1-1V139l-7.5 5-11.5 2.5 12 11 5 9v3l-3 1.5 2 10.5 3 6v7l-1 2.5q-2.7-1.1-2 1.5l-1.5 1.5h-10v-1l7.5-5.5v-6l-4.5-12.5q-7.6 4.7-18.5 5l1 2.5-10.5 5.5-7 1q-2.6-3.4-10-2l-2.5 1-1 5.5 5 6-9 .5-3-9.5 3.5-6.5 8-3h6q1.7 2.8 3.5-1.5l1-2-8-7 2-1-5-2.5-5.5-13h-20q-1.5 2.5-7 1l-6.5-1q-4.2 7.6-4 20.5l1 1v13l-2.5 3.5-4-2-2.5 2.5v7.5h-6v-5.5l3-10.5 4-1.5-1-12-4-13v-5l-1.5-1.5-8 1-5.5-3-2.5-4-3.5 4.5q3.2 2.5 2 8.5l6 4.5-5 13-4.5 6.5h-4l-9-9H20l1-6-7.5 1-2.5-1-6-28.5V133l5.5 1 2.5-1 3-7.5 2.5-2.5q3.3 3.6 2.5 10h16.5l15.5-6.5q1-5.5-2.5-6.5l-8.5-3q1.1-2.7-1.5-2-8.1-3.9-8.5-15.5l1-4v-20l1-5.5q2.7 1.1 2-1.5l6-3.5V52.5l-5-21v-7L33.5 16 24 19v-5h-3.5v-1l11-2zM103 36l-1 1H91l-8 2q-8 9-9 23h8l1-1h17l1-1 41 1 8 3 4 5 6 20 12 6 11-15q-15-18-38-28-7-4-9-11l-15-5zM80 67l-1 1H64l-1 1-19 1-3 2-3 3-1 4 1 26 1 3 10 6h1V99h19l6-11 3-3h14l10 14h22l2-1 2-4q8 0 13 6l2-3q4-6 11-7l-5-19-5-4zm4 23-4 1-6 12-5 2H56q-1 11 2 18l-1 16q4 5 11 7l13 3h16l20-4-3-8 19-10 3-4v-12l1-1v-4l-4-5-5 3h-11l-1 1q-11 1-18-1l-9-12q-1-3-5-2Zm-34 45-9 3 4 5q-1 2 2 1v2h7l1-1-3-5q2-6-2-5Zm-34 3-7 2 3 8 5-9zm10 1-5 3-4 9-1 11 9-3h4l3-3-1-3v-6l3-5q-1-4-8-3Zm92 11-5 3 4 11 3 3q-1 2 2 1v2l12 5 13-1 13-5v-2l-4-5-8-9-7-3q-10-1-14 3-5 1-5-3zm-55 1 3 7 2-5v-2zm-29 11q-5 3-7 10l6 3q4-4 4-11z"/><path stroke="#000" d="m17.5 15 .5 5 3 .5-9 8 1 4-1 3L.5 47 0 38.5 8 32q.8-3.1-2-2.5V23h2.5zM.5 79 8 111.5v6q-3 1.3-2 5.5l-6 1v-6q4.5 1.8 3-3.5-2.5-1.5-1-7l-2-3zm0 81L4 175l5 2.5 1.5 2.5L25 193.5l1 6.5h-5.5l-.5-1.5-2.5-3.5q-2.2-.7-1.5 1.5l-2 3.5q-4 1.4-2-5.5l-1-2.5 3-1.5L0 180zm192 37 2 3q-4.4 1.1-2-3Z"/><path fill="#241e1f" stroke="#241e1f" d="M13 31h10.5l.5 2.5q3.1 5.4 3 14L26 50q-2.7-1.1-2 1.5l-6 5q.8 2.3-1.5 1.5l-8 8L0 67v-4.5l2-4Q-1.2 56 0 50h5.5l.5-1.5 6-4.5 6-7.5-5.5-.5L4 43.5l8-8zm8 11L9 53q-4 1-3 5l2 1 14-14q1-4-1-3Zm81.5-6 3.5.5-3.5.5zm33 5 7.5 9.5-2.5-1.5-8-2h-7q-1.3 2.2-6 1l-5.5 4.5-2 7.5-7-.5 2-2 2-7 6.5-6.5 7-2h12zm-66 8q2.3-.7 1.5 1.5zm-28 3 .5 2.5h-1zm8 7-1 2zm47 1 3.5.5-3.5.5zm31 0 3.5.5-3.5.5zm-60 1-1 2-7.5-.5zm12 0 2.5.5-2.5.5zm-28 2 5.5.5-5.5.5zm116 2 2 3zm-130 1-1 2zm115 0 1 2zm-73 1 8.5.5-8.5.5zm13 0 6.5.5-6.5.5zm49 0 2.5.5-2.5.5zm-78 1 2.5.5-2.5.5zm83 0 2 3zm27 2 9 10zm-133 2L39 74.5l-.5 1.5-.5-1.5zm-3 6 .5 13.5h-1zm144 3-2 3zm-149 2 .5 10.5h-1zm48 1 10.5.5-10.5.5zm98 1-1 2zm-86 1 1 2zm68 1 1.5 2.5-2-1zm15 2-1 2zm-92 1q4.5-1 5.5 1.5l-1.5-.5q-5 1-4-1Zm85 2 3 2 1.5-.5-2.5 1.5zm-97 2-1 2zm19 0 1 2zm-58 1 .5 3.5h-1zm46 0-1 2zm78 0 3.5.5-3.5.5zm-87 2-1 2zm-19 1 7.5.5-7.5.5zm88 0 1 2zm-100 1 .5 5.5h-1zm127 0 1.5 3.5h-1zm-34 2 3.5 2.5-2.5-1.5-2 1zm-15 3 4.5.5-4.5.5zM56 105l2 .5-1.5 3.5zm114.5 1 1 2zm-136 3 2 3zm8 0 1 2zm14 4 .5 2.5h-1zm-48 1 .5 3.5-2.5 3.5-.5-1.5q2.8-1.2 2.5-5.5Zm110 0h2.5v5.5l-3.5 4.5h-13l-.5-2.5q5.1-5.9 14.5-7.5ZM62 117h5.5l9.5 6.5q1.3 3.8-2.5 2.5-1.7 2.7-8 1l-3.5-4.5zm79.5 0 .5 5.5h-1zm-127 1 5.5 3.5 1 6h-1l-1.5-4.5-2.5 1.5zm43 0 .5 3.5h-1zm1 6 .5 4.5h-1zm-44 4 .5 1.5-2 1zm127 0-1 2zm-120 1 1.5 3.5-2 .5zm148 0-2 3zM4 132l5 .5-4 .5-.5 4zm110.5 3-.5 1.5-.5 1.5-.5-1.5zm46 0-2 3zm-155 4 .5 2.5H5zm20 0-3 4-1.5-.5zm17 0 1 2zm107 0 5.5.5-5.5.5zm17 0 1.5.5v7h-1l-.5-6.5-2.5 1.5zm-106 2 1 2zm-34 2 5 2 1.5-.5q-3.3 1.7-2.5 7.5l-.5-2-4-1.5-1.5-3.5-1.5-.5zm13 2 2 3zm12 0 2.5.5-2.5.5zm-44 3 .5 2.5H7zm36 1 1 2zm74 1 2.5.5-2.5.5zm4 0 2 3zm33 0 3 4zm-103 1q4.5-1 5.5 1.5l-.5 1.5-.5-2h-4.5zm-43 2 .5 2.5H8zm30 0 .5 2.5h-1zm-22 1 .5 2.5h-1zm62 0 6.5 1.5-11 18-2 14 11.5 5.5q1.6-13.9 7.5-23.5v-4l9-11.5q6.1-1.7 8 1.5l-5 4-2 4.5 10.5 2 5.5 3.5-2 1 1 2-3 7.5 3 .5-7.5 1.5-5.5 3.5-2 6 3 8.5H86.5l-13-4-5.5-3.5 2-4v-13q-2.7-1.7-1-8h1l.5 3.5zM96 168l-1 5 14 3 1-5zm-1 10q-5 6-5 16l5 1 7-14-1-2q-5 1-6-1Z"/><path fill="#241e1f" stroke="#241e1f" d="m86.5 154 6.5.5-6.5.5zm-22 2 1 2zm104 0 .5 2.5h-1zm-115 2 4.5 17.5v2l3 6-3 .5-1.5 5-7.5-28.5 4-.5zm-44 2 .5 2.5H9zm153 0 1 2zm-146 1 2.5.5-2.5.5zm27 0 1 3q2.6-.8 1.5 2.5l3 10v9l-4.5 6.5-2.5-1.5q1.3-4.2-3.5-2.5l-7.5-5.5 5-2 .5-1.5.5 2 5.5 4 3.5-5.5-3.5-11.5-1 2-.5-1.5 3-6zm67 2 1 2zm-79 1-2 3zm127 1 1.5 2.5h-1zM11 167l4 1q1.1 3.3-3 2v3.5L8.5 177l-1-1-3.5-1.5 4-1.5 1-4q3 1 2-2Zm7.5 0q3.3-1.1 2.5 1.5l-1.5-.5zm148 1 .5 1.5-3.5 2.5v-1l2.5-1.5zm-139 3 1 2z"/><path fill="#241e1f" stroke="#241e1f" d="m40.5 171 .5 1.5-1.5 2.5-.5-1.5zm-19 2 5 6zm123 0 2.5.5-2.5.5zm-25 1 1 2zm14 0 5.5.5-5.5.5zm-95 2-1 2zm-29 2 1 2zm112 1-2 3zm44 0 1.5 4.5h-1zm-34 7-1 2-1.5-.5zm48 2 1 2zm-158 1 2 3zm34 4-.5 1.5v5.5H42.5v-1h3zm55 2 3.5 4.5-3-2zm47 1-1 2zm-20 1 2.5 1.5q.8 2.6-2.5 1.5l-3.5-1.5z"/><path fill="#b5b0a0" stroke="#b5b0a0" d="m34.5 20 1.5 6.5-1.5-.5-4.5-.5 3-1.5zm-20 7v2q4.4 1.5 3.5-1.5l1.5.5 2.5 1.5-7.5.5q-3-1.5 0-3Zm13 1-.5 1.5-1.5 3.5-1.5-3.5q1.8 1.6 3.5-1.5Zm-1 7 1.5 3.5-2-1zm74 2 15.5.5-5.5 2.5v-1l1.5-.5-11.5-.5zm-63 1 .5 2.5h-1zm54 0 2.5.5-2.5.5zm-9 2-2 3zm26 1-2 3zm-70 1 .5 3.5h-1zm42 2-.5 1.5q-.9 3 3.5 1.5v1q-5.8 2.1-4.5-2.5zm24 1 1.5.5q-.7 2.3-4.5 1.5v-1zm-15 2-1 2-3.5-.5zm-60 3 .5 3.5h-1zm11 3 .5 2.5-1.5 2.5-.5-1.5zm0 9 .5 1.5-2 1zm-29 2q2.6-.8 1.5 2.5l2 6h-1L13 68q-3.7-1.3-2 4.5L14 86l3.5-1 1.5 7q-4.5-1.7-3 3.5l2 3v7l2 10.5h5v2.5l1 3h-1l-.5-2.5-.5 3q-4.9 1.6-3-4h-3.5l-4.5-2.5 1-2-2-5L4 68q6 1 7.5-4Zm21 3 1 2 2.5-1.5q-2 4.5-4 1zm30 2 2.5.5-2.5.5zm81 0 3.5 1.5-1.5-.5q-3 .5-2-1Zm-93 1 2.5.5-2.5.5z"/><path fill="#b5b0a0" stroke="#b5b0a0" d="m15.5 75 .5 2.5h-1zm1 5 .5 2.5h-1zm123 11-.5 1.5-.5 1.5-.5-1.5zm-120 3 .5 2.5h-1zm136 2 4.5.5-2 3 .5 1.5-1.5-2.5.5-1.5q-3 .5-2-1Zm-3 1-1 2zm-132 2 .5 2.5h-1zm1 5 .5 2.5h-1zm17.5 0 3 1.5-.5 2.5zm117.5 0-1 2zm-125 2q2.6-.8 1.5 2.5h-1l-.5-1.5-1.5.5zm28 0 .5 4q5.2-1.7 4 2l-7-2v-2q2.8 1 2.5-2Zm105 0 1 2-1-1-3.5 2.5zm-131 4 2 3-2.5-1zm-10 2 .5 2.5h-1zm119 3 .5 2.5h-1zm9 0-1 2-1.5-.5zm8 1 2.5.5-2.5.5zm-127 1 2.5 10.5h-1zm57 0 2.5.5-2.5.5zm9 1 3.5.5-3.5.5zM36 119l3 1.5-.5 3.5zm106.5 1 .5 2.5h-1zm-92 1 1.5 2.5h-1zm-3 1-1 2zm78 0q7.6-1.5 6.5 2l-3.5-1-5 1v-1zm18 2 2.5.5-2.5.5zm-98 1-1 2zm5 0 1 2q-2.8.7-1-2Zm59 1 7.5.5-7.5.5zm-82 1 1.5 4.5-6 .5.5-4 .5 2q2.7 1.1 2-1.5zm48 0-1 2zm52 1-1 2zm-92 1 .5 2 2 .5-3 .5zm3 0 3 1 1.5-.5-2.5 1.5zm31 0 2.5.5-2.5.5zm-11 3 .5 5.5h-1zm42 0 3.5 1.5-.5 1.5-.5-2-3.5 1zm35 0 1.5.5-2.5 1.5zm14 0q3.8-.7 4.5 1.5-.7 2.6 2 1.5v3l-3.5 1-2.5-1q2.1-5.2-2.5-4v-1zm-17 2-1 2zm2 1-1 2zm-43 1 2.5.5-2.5.5zm-47 1 1.5.5-2.5 1.5zm56 0-1 2zm31 0-1 2zm-86 2 2.5.5-2.5.5zm14 0 1 2zm69 0q-1.6 1.8 1.5 3.5l-.5 2.5-2.5-4.5zm-36 1 2.5.5-2.5.5zm32 2 2 3zm-44 5 3.5.5-3.5.5zm11 0 4.5.5-4.5.5zm-71 1-1 2zm118 2-1.5 2.5-1.5 3.5.5-1.5q-.5-4 2.5-4.5Zm-99 1 6 5H48l7 37-15.5 7H34l-2-10q-2.7 1.1-2-1.5l-12-10-1.5-2.5-3.5-2.5 3.5-4.5q4.2-1.3 2.5 3.5L43.5 194l3.5-2.5 3-6v-7l-2-7v-2l-1-6-4.5-4.5-3.5-2.5 1-2zm27 1 .5 1.5-2 1zm48.5 0q2.7-1.1 2 1.5l5 8v2.5q-3.7 1.5-3-1.5-4.3-3.4-4-10.5Zm32.5 2 1 2zm-60 1 8.5.5-8.5.5-1.5 1.5-2 3h-1zm63 2-1 2-1.5-.5zm-12 1-2 3zm3 2 2.5.5-2.5.5z"/><path fill="#b5b0a0" stroke="#b5b0a0" d="m34.5 163 1.5 3.5-4.5 7.5-3.5-3.5 1-1 3.5-5.5zm118 1 3.5 1.5 2 3-3-2q.8-2.6-2.5-1.5zm-10 3 3.5.5-3.5.5zm-9 1 5.5.5-6.5 1.5zm3 5 3.5.5-3.5.5zm-125 2-1 2zm142 2q4.4-1.5 3.5 1.5l3 8v6l-1 2.5-8.5 5H141l-2-3.5 1.5.5h3l10.5-4-1-6.5 1-2q-1.2-2.7-2.5-.5l-9.5 1q-1.1 2.7 1.5 2v1l-5.5-2v-2q2.7 1.1 2-1.5l-.5-1.5q8.6-.4 14-4Zm-135 8 1 2zm4 4 2 3zm98 0 2.5 3.5h-1zm0 5 2.5 1.5.5-1.5.5 3z"/></svg>