<svg xmlns="http://www.w3.org/2000/svg" width="200" height="200"><path stroke="#000" d="M165.5 15q2.3-.7 1.5 1.5h-3zm-84 1 .5 1.5-1.5 2.5-.5-1.5zm4 2 1.5 4.5h-1zm75 0-1 2-1.5-.5zm6 1 .5 2.5h-1zm-10 1-1 2-3 1 1-2zm-78 2 .5 1.5-2 1zm70 1 .5 2-2.5 1zm-61 3 .5 2.5h-1zm-12 2L74 30.5 72.5 33l.5-1.5zm13 2 .5 14 3.5-1v1l-4 2zm46 0 1.5.5-3.5 1.5v-1zm27.5 2 2 .5-7.5 12.5.5-1.5zm-36.5 1 2.5.5-4.5 1.5v-1zm-54 1-1 2zm44 2 2.5.5-2.5.5zm-46 1-1 2zm41 0 3.5.5-3.5.5zm-4 1 2.5.5-9.5 2.5v-1zm-39 2-2 3zm29 1 1.5.5-3.5 1.5v-1zm-32 3-1 2zm-3 3 .5 1.5-2 1zm94 0q7.3 5.8 11.5 14.5l-3-2zm-96 4-.5 1.5L49.5 67l.5-1.5zm108 12 2.5 3.5-2-1zm-119 5-.5 1.5-1.5 3.5-.5-1.5zm122 0 3.5 5.5-2-1zm4 7 4.5 6.5-2-1zm-133 1 2.5.5-2.5.5-7.5 7.5-7.5 8.5 5.5-6.5 2-4.5 3-1.5 2.5-3.5zm138 7 9.5 13.5-3-2zm-155 12-4.5 5.5-3.5 4.5 1.5-2.5zm165 3 10.5 11.5v2.5l-8-2.5 1.5-.5 5.5 2zm-174 8-1 2zm170 4 .5 4.5-4.5 5.5.5-1.5q3.7-2.3 3.5-8.5Zm-171 3 .5 2.5h-1zm1 4 .5 2.5h-1zm1 4 1.5 4.5h-1zm164 0 6.5.5-6.5.5zm10 1 2.5.5-2.5.5zm4 1 2.5 1.5-1.5-.5zm4 2 1 2zm-177 12L8 151.5.5 161l1.5-2.5 2-4.5q2.7 1.1 2-1.5zm178 57-.5 1.5-3.5 4.5 1.5-2.5z" opacity=".078"/><path fill="#39509e" stroke="#39509e" d="m80.5 34 .5 9.5-6.5 7.5-9 6 .5-1.5zm57 4 1.5.5-17.5 8.5-11.5 2.5 11 4L93.5 58l-20 9-.5-1.5 3-1.5q-1.1-2.7 1.5-2 6.6-7.9 17-12l9-3 25-5z"/><path stroke="#000" d="m165.5 16 1.5 2.5h-1l-.5-1.5-5 3 1-2zm-85 4-.5 1.5-.5 1.5-.5-1.5zm77 0 1.5.5-2.5 1.5zm8 0 .5 2.5-4.5 11.5-.5-1.5zm-12 2 1.5.5-5.5 2.5v-1zm-67 1 .5 3.5h-1zm-8 1-1 2zm-3 5-1 2zm12 0 .5 3.5h-1zm51 0 1.5.5-5.5 2.5v-1zm-65 3-1 2zm58 0 1.5.5-4.5 1.5v-1zm-60 3-1 2zm-2 3-1 2zm40 0 2.5.5-2.5.5zm49 1 .5 1.5-2 1zm-91 2-2 3zm31 0 2.5.5-2.5.5zm58 2-.5 1.5-1 3 7 8-4-3-4-5v-2zm-69 1 .5 2.5h-1zm-23 1-2 3zm-3 4-.5 1.5-3.5 5.5 1.5-2.5zm-5 8L55 59.5 53.5 62l.5-1.5zm106 0 1 2zm2 3 9.5 14.5-3-2zm-112 3-1 2zm-2 3-.5 1.5-3.5 7.5-.5-1.5zm-5 10 .5 2-3-.5zm-4 1-7 8zm134 1 1 2zm2 3 2.5 3.5-2-1zm-144 5L28 92.5l-6 8.5-2-.5zm147 0 5.5 7.5-3-2zm6 9 5.5 6.5-5-4zm-167 7-2.5 3.5q-2.7 2.3-2.5 7.5l-.5-4.5zm173 1 6.5 8-2-.5q2.2-1.2-.5-2.5-2.2.8-1.5-1.5z" opacity=".792"/><path stroke="#000" d="M185.5 106h4l6.5 3.5-1.5.5-5-3h-4zm-1 7 .5 1.5-5 7 13.5 1.5 6.5 4.5-2.5-1.5q-5.8-4.2-17-3l-1.5-1.5zm-169 1 .5 2.5h-1zm1 4 .5 2.5h-1zm2 8 .5 2.5h-1zm3 12-13 14zm-14 15-4 5zm-5 6-2 3zm197 34-2 3zm-3 4-2 3z" opacity=".792"/><path stroke="#000" d="M0 0h200v108.5l-6-5-15-21-17-29-7-7 9-14v-2l3-9V15l-17.5 9-1-1-3 3-23 9q-19.4 2.4-33.5 9V30.5q-2.7-3.3-2-10L84 14q-2.7-1.1-2 1.5l-6 12L63 47q-2.7-1.1-2 1.5l-14 21-2.5 7.5-3-1-4.5 3.5-1.5 2.5q-2.2-.7-1.5 1.5l-16 18-5 10 8 26-15 15v1.5q-2.7-1.1-2 1.5L.5 160z" opacity="0"/><path stroke="#000" d="M184.5 107h5l.5 2h1.5l8.5 3-.5 14-7-4-11.5-1.5 5-6v-4zm15 88 .5 5-4-.5z" opacity="0"/><path fill="#000101" stroke="#000101" d="M148.5 26h1.5v4h2.5l4-2 .5 2.5-1.5-.5-7 3-4.5-1v-5h3.5zm-69 5 2.5.5-2.5.5zm76 1 .5 1.5-2.5 3.5.5-1.5zm-3 6 .5 1.5-3.5 4.5 1.5-2.5zm-29 3 2.5.5-2.5.5zm-18 4 2.5.5-2.5.5zm43 0q2.3-.7 1.5 1.5h-3zM66 50q2.7-1.1 2 1.5l-2 1zm15 0q3-1.2 2 2.5 1.3 2.8 2.5.5l1.5.5q-1.7 2.3-6.5 1.5l.5-1.5zm68.5 0 4 5zm6 6 .5 2q2.7-1.1 2 1.5l1 2.5h6.5l.5 1.5 2 4.5q-5.4 1.5-7-1.5l-6-9zm8 13 1 2zM48 74q5.2-2.1 4 2.5L51 80h-3zm118.5 0 1 2zm2 3q2.6-.8 1.5 2.5h-1zm-29 10 .5 2-2-.5zm8 0 2.5 1.5-1.5.5zm27 0 1 2zm-23 2 1 2zm-5 3 2.5 1.5-1.5-.5zm31.5 0q3.3-1.3 2 3.5h-1zm-42.5 1-.5 1.5-2.5 3.5.5-1.5zm35 7 3.5.5-3.5.5zm-42.5 4h5v2.5l-6.5 9.5q-6.1 1.3-5.5-1.5zm47.5 4 1 2zm-101 16 2.5.5-2.5.5zm70 1 2.5.5-2.5.5zm-78 1 2.5.5-2.5.5zm-32 1 4.5.5-5.5 1.5zm11 1 4.5.5-4.5.5zm134 0 3.5.5-3.5.5zm7 0q6.1-1.2 5.5 1.5l-1.5-.5q-5 1-4-1Zm-162 1 1.5 5q-4.1 1.2-1.5-5Zm91.5 0 2 .5-2 1zm57.5 0-1 2zm-31 1 7.5.5-7.5.5zm51 0 6.5 4-.5 2zm-41 1 .5 1.5-2.5 1.5zm-123 1 .5 2-2-.5zm99 1 2.5.5-2.5.5zm27.5 1 3 .5-7.5 5.5 2-3 2.5-1.5zm12 0 3 .5-3.5 4.5.5-1.5zm-133.5 1 2.5.5-3.5 1.5zm113 0-3 4zm-31 1 2.5.5-3.5 1.5zm-48 1 1 2zm-28 1q3.4-.9 1.5 4.5h-1q1.1-3.3-1.5-2.5zm-6 2 .5 2.5-1.5 2.5-.5-2.5zm116 1-3 4 .5-1.5q-.7-2.2 1.5-1.5zm15 0-1 2zm-98 1 .5 2-2-.5zm-41 1-.5 1.5-.5 1.5-1-2zm50 0h4l4.5 4.5-.5 1.5-4-5q-5 1-4-1ZM18 145l5 .5-5 4zm14.5 1 .5 2.5h-1zm106 0 1.5.5-3.5 2.5zm8 0-2 3zm-109 1 .5 2.5h-1zm11 0 1.5 4.5-2 .5zm21 0-4 5-1.5-.5zm90.5 0 2 .5-4.5 6.5.5-1.5zm-77.5 2-3 4-2 1 1-2zm72 0-1 2zm-12 1 1.5.5-2.5 1.5zM12 151l5 .5-6.5 7.5.5-1.5zm19.5 0 .5 3.5h-1zm5 1 .5 3.5h-1zm51 0-1 2zm45 0 1.5.5-6.5 5.5zm-124 1-2 3zm55 0-.5 1.5-.5 2.5-.5-2.5zm75.5 0 2 .5-.5 1.5 4.5.5-6 .5zm-55.5 1 .5 1.5-3 2zm-9 1-1 2zm-43 3 .5 12-2-.5v-10zm32 0 3 3 1-1 3-2 .5 1.5-4.5 2.5-3.5-2.5zm14.5 0 2 .5-5.5 4.5 2-3q2.6.7 1.5-2Zm81.5 0 2.5.5-2.5.5zm-151 2-2 3zm121 0 8.5.5-8.5.5zm35 0 4.5 3.5-1.5-.5-3.5-1zm-19 1 3.5.5-3.5.5zm-85 1H62v4l-2-.5 1-2zm12 2-1 2-5 4 4-5zm-24 1q2.6-.8 1.5 2.5l1 2-2-1zm117 0 2.5.5-2.5.5zM3 166l2 .5-3 2zm150.5 0-2 3-2 1 1-2zm7 1 1.5.5-5.5 3.5v-1zm-96 3-2 3zm83 0-1 2-1.5-.5zm-96 1 .5 2.5-3 2zm92 1-1 2-1.5-.5zm9 1-1 2zm-121 1 1.5 7.5h-1zm27 1-1 2-5 3v-1q3 .7 1.5-3h3.5zm76 1 1.5.5-3.5 1.5v-1zm13 0 1.5.5-2.5 1.5zm-101 1-2 3-1.5-.5zm77 2 2.5.5-2.5.5zm-4 1 2.5.5-2 .5-.5 3-3.5-2.5zm20 0 1.5.5-6.5 2.5v-1zm-99 1-1 2-1.5-.5zm10 0-1 2zm81 2q2.3-.7 1.5 1.5l1.5 2.5zm66 1 .5 1.5-2 1zm-164 2 2 3q-2.2.8-1.5-1.5zm93 1 4.5 3.5-3.5-2.5zm10 0 9.5 10.5-3-2-5.5-6.5q-2.8.7-1-2Zm-48 2 4.5 1.5-1.5.5-3-1zm8 3 4.5 2.5-1.5.5-3.5-1zm37 0 6 7zm57 3-4 5zm-104 2 1 2zm22 0 6.5 2.5-2.5.5q-4-.5-4-3Z" opacity=".996"/><path fill="#f8efe8" stroke="#f8efe8" d="M59.5 65q2.6-.8 1.5 2.5l2 8.5 7.5-3 13-3 23-1-4 5-2.5 1.5q-.7 2.3 1.5 1.5l12.5 4v2.5l11 13q2.7 2.3 2 8L105.5 135l-9 4-9 2-5.5-4.5 4-2.5 5-9.5-3.5-4.5-3.5-1.5-7-10-6-13-8.5-8.5L52 81.5v-4zM83 80l-1 4 3 8-6 3q2 3 10 2l3 6 9 8-6-14v-3l3-6-7 1zm-38.5 7L57 92.5 51.5 94h-7l-13 9 2.5-3.5 7.5-9.5q2.3.8 1.5-1.5zm100 6 31.5 18.5-12.5 18.5-2.5-1.5q6-6 9-15L146.5 99H144l-12 20.5-5.5 6.5q-2.6-.7-1.5 2h-3.5l-1.5.5 18-28z"/><path fill="#f8efe8" stroke="#f8efe8" d="m148.5 119 1.5.5-1 3q1.3 4.6-4.5 2.5h-2l-2.5-.5z"/><path fill="#121a27" stroke="#121a27" d="M153.5 30q3.3-1.1 2.5 1.5l-1.5 2.5-.5-1.5.5-1.5-5 2v-1zm-73 2-1 2zm-2 3-1 2zm72 6-1 2zm-69 2 .5 6.5-2 5 4 1-13 11-3.5 5.5q-3-.5-2.5-4.5 2.6-7.4 8.5-11.5l4.5-3.5q3.5-3 3.5-9.5Zm67 1-1.5 2.5v2l8 8-9-8q-.5-4 2.5-4.5Zm-82 9-1 2zm90 6 1 2zm-95 2-1 2zm97 1 2.5 3.5-2-1zm3 5 1 2zm2 3 2.5 3.5-2-1zm3 5 1 2zm-50 4q4.6-.6 6 2L136 92.5l-4.5 6.5-.5-2.5-7.5-7.5q-2.6.7-1.5-2h-2.5l-5.5-6.5zm53 1 1 2zm-12 4h4l9 7 3.5 1q-1.1 2.7 1.5 2l2 1-.5-1.5-3-5 2 1 3 5-.5 1.5q3-.8 1.5 3l-10.5 1-6.5-4.5 1.5.5 1.5-.5-10-9zm15 1 1 2zm-34 2-.5 1.5-1.5 2.5.5-1.5zm14 2 3.5 2.5-1.5-.5zm-115 1-5 6zm49 1-1 2zm7 2-2 3zm47 2-1 2zm-3 4-1 2zm-109 1-3 4zm132 0 1 2zm-137 6-1 2zm131 0 5.5 3.5-3.5.5-2.5-1zm23 7 .5 1.5-2 1zm-42 4-1 2zm40 0-1 2zm-88 4 1.5 3.5-3.5 2.5v-1l2.5-1.5zm75 1-.5 1.5-2 5 .5 1.5q-3.4-5.6-13.5-4.5l12.5-2.5q1.5 2.5 3-1Zm-32 3 7.5.5-9.5 2.5zm-67 1 2.5.5-2.5.5zm106 0-2 3zm-130 1 5.5.5-5.5.5zm15 0 3.5.5-3.5.5zm121 0 3.5 1.5-1.5.5-2.5-1-3.5 6 .5-1.5zm8 1 2.5.5-2.5.5zm-72 1-1 2zm-81 1-1 2zm164 1 5 6zm-148 2 .5 5.5h-1zm10 0 7 8zm52 0-1 2zm17 1 2.5.5-2.5.5zm-59 1 1 2zm97 0-1 2zm7 0-1 2zm-136 1 1.5.5-2 1 1 2h-1q.8-2.2-1.5-1.5l-6 7 .5-1.5 5.5-6.5zm127 2-1 2zm7 0-1.5 2.5-9.5 14.5 1.5-2.5zm-25 1-1 2zm16 2-1 2zm-9 1-3 4zm-70 2 1 2zm77 0-1 2zm-11 3-2 3zm-115 1 .5 2.5h-1zm123 0-1 2zm-95 1-2 3zm22 0-2 3zm54 0-2 3zm8 2-1 4-2.5-.5 1-2.5zm9 0-1 2zm-75 1-2 3zm-47 1 .5 5.5h-1zm55 1-1 2zm44 0-4 6 3.5.5-5 .5q-1.5-3.8 1.5-3zm21 0-1 2-1.5-.5zm-77 1-2 3-5 3-3.5-4.5h1l1.5 2.5zm-37 1 .5 4.5h-1zm76 2 1.5 3.5h-1zm50 0 4.5 3.5-2.5-1.5zm-104 2 1 2zm-50 1-2 3zm130 0 6.5.5-6.5.5zm11 1 2.5.5-2.5.5zm5 1q2.3-.7 1.5 1.5l-2 1zm-107 1 1.5 3.5h-1zm122 0 .5 2-2-.5zm-99 2-2 3zm82 0-1 2zm10 1-1 2zm-13 1-1 2zm-113 1 .5 4.5h-1zm13 0 1.5 2.5-2-1zm110 0-1 2zm-129 1 .5 5.5h-1zm35 0-1 2zm91 1-2 3-5 3 1-2zm-106 2-3 4-9.5 5-1-4.5h1q-1.2 3.8 2.5 2.5zm11 0-1 2zm59 5 2.5 1.5-3 .5zm-89 1 .5 2.5h-1zm85 1 2.5.5-3.5 1.5zM20 182q3-1 2 2-3 1-2-2Zm113 1 2 .5q-2.2 1.3.5 2.5l1.5.5-1.5.5zm-52 3q3.8-1 5 1.5l-4 1 1 2h-1q.8-2.2-1.5-1.5l.5-1.5zm43.5 0 1 2zm3 2 1 2zm12 1 3 4zm54 1-1.5 2.5-5.5 6.5 4.5-5.5zm-62 1 3 4zm13 4 3.5 4.5-2-1zm-7 2 2 3z"/><path fill="#184447" stroke="#184447" d="m151 35 2 .5-7 13 .5 1.5q-3.3 1.1-2.5-1.5l-4-3 4-1.5 3.5-5 3.5-2.5zm-76.5 7-1 2zm5 17-1 2zm77 2L178 94.5l-1.5-.5-14-10-4.5-1q-.3-6.5-4-10.5l1.5.5 4.5 1zM126 82l2.5 1h9l17 3 10.5 9.5-1.5-.5-18-10h-4l-4.5 3.5-2.5 3.5-8.5-8.5zm-37.5 7-1 2-1.5-.5zm5 5-1 2zm83 34 3 2h11l5.5 3.5 2 6v6l-6 12.5-7.5 4h-7l-3.5-2.5-1-7 3-4.5-13-.5zm-53 9 1.5 2.5h-1zm-91 1q2.3-.7 1.5 1.5l-4 13v24l1 6.5-6-1-4.5-8q-3.7-.7-4.5 1.5l-.5 2.5-2-4q-2.6.7-1.5-2H8.5l-2.5-.5 6-12-.5-1.5q1.3 2.3 2.5-.5L24.5 145l1 1 3.5-3.5zm82 17 1.5.5-3.5 1.5v-1zm-11 6 2 4 3.5.5-3.5.5q-3.7-1.2-2-5Zm23 0q3.8-.7 4.5 1.5l-.5 1.5-.5-2q-4.4 1-3.5-1Zm-7 1 3.5.5-3.5.5zm-5 1 2.5.5-2.5.5zm83.5 1 2 .5V175l-8 2.5 2 .5-3 9.5.5 1.5-1.5.5 2.5.5 1.5-.5-3.5 3.5-18 1-10-6-.5 7h-12.5l-3 2-9.5-10.5q9.9-10.1 23.5-16.5 3.8 1.3 2.5 7.5l-1 3.5q3.6 2.2 12.5 1l13-3q4-4.2 10.5-5zm-124.5 1-.5 1.5-.5 5.5h-2l-4.5-.5zm56 0-3 4zm-39 1 3.5.5-3.5.5zm19 5 2.5 1.5-1.5-.5zm8 1 2.5.5-6.5 1.5v-1zM66 173h5.5l.5 1.5-4.5 7.5-4 3-.5-3h3zm22.5 0 4.5.5-4.5.5z"/><path fill="#184447" stroke="#184447" d="m64.5 174 .5 6.5h-1zm133.5 2q2.7-1.1 2 1.5l-1.5 2.5zm-88.5 3 4.5 2.5-1.5-.5q-3.7-.3-3-2Zm-32 1-1 2zm5 1 2 3 4.5 3.5-2.5-1.5-4.5-3.5zm115 0 .5 1.5-3.5 5.5-.5-1.5zm-175 6 1.5 3 3.5-1 .5 2.5 1 5h-1q1.4-4.6-4.5-2.5-1.2 3-5.5 2l-.5-2-3 1v-1h2l6.5-5.5zm57 2 1 2zm-24 6-.5 1.5-.5 2.5-.5-2.5zm5 0 4 5zm24 1 1 2zm101 0 .5 3-3.5 1z"/><path fill="#6c695c" stroke="#6c695c" d="m51.5 82 8.5 4q1 3-2 2 1.2-3.7-4-2-1.5 3.8 1.5 3l2.5 1v2h9.5l.5 1.5q5.3 4.3 7 11.5l-6-1-1.5 3 .5-1.5-4-8.5-7.5-6-9.5-4.5zm64 2 1 2zm3 2 1 2zm-56 2 2 3zm60 1 1 2zm-86 3-2 3zm106 1-1 2zm6 1 1 2zm-8 2-1 2zm15 2 1 2zm-126 2-3 4z"/><path fill="#6c695c" stroke="#6c695c" d="M56 100q3.8-1 5 1.5l-1.5-.5-3.5 1.5-.5 1.5-.5-1.5zm87.5 2-.5 1.5-1.5 2.5.5-1.5zm-83 2-1 2zm74 1-1 2zm-88 1 3.5 1.5-1.5-.5q-3 .5-2-1Zm-2 1 1.5 4.5-2-1zm53 0 2 3zm-35 1 1.5.5-2.5 1.5zm14 0 .5 1.5-2.5 1.5v-1q2.5.7 2-2Zm-27 2-1 2zm9 0 1.5.5-2.5 1.5zm118 2 .5 1.5-12 18.5-5-3.5 3.5 2.5 1.5-1.5zm-143 1 1.5 4.5-2-1zm35 0-1 2-3 1v-1zm-6 3-1 2-1.5-.5zm72 0-1 2zm33 1-1 2zm-124 1-1 2zm13 1-.5 1.5.5 1.5h8q1.5 2.5 7 1l2.5-1q1.3 3-2.5 2l-15 3h-12l1-2zm27 1 3.5.5-3.5.5zm82 0-1 2zm-77 1 1.5 3.5h-1zm-12 1 2.5.5-2.5.5zm54 0-1 2zm9 1-1 2zm-12 3-1 2zm-16 2-1 2zm7 1 2.5.5-2.5.5zm-52 3 1.5.5-2.5 1.5zm95 2 1.5.5-7 9v2.5q-2.7-1.1-2 1.5l-5.5 7.5q-3.7.8-4.5-1.5 5.2-10.3 13.5-17.5zm-94 1 1 2zm-20 1 .5 2.5h-1zm15 4 2 3zm0 5-2 3zm-4 4-1 2zm-3 3 .5 4.5h-1z"/><path fill="#a1a19a" stroke="#a1a19a" d="m97.5 68 11.5.5q-1.2 2.8-2.5.5h-9zm-41 1-1 2zm31 0 2.5.5-2.5.5zm14 5-.5 1.5-.5 1.5-.5-1.5zm-50 5 2 4 1.5.5-1.5.5q-3.7-1.2-2-5Zm31 1 4 5zm32 1 .5 2.5h-1zm-72 5 2.5.5-2 3.5-4 2.5-8 10 1.5.5 12-9h7l5.5-1.5-4-2 1.5-.5 9.5 7 4 8.5L43.5 118l-7 5-4 1-3.5 3.5-2.5 3.5-5.5-19.5zM56 100l-1 3 1 2q-1 3 4 1 2-1 1-4t-5-2Zm-9 6-1 1q-3-1-2 4 1 2 5 1 2-1 1-4zm-11 6-3 1q-1 4 2 5h4v-5zm24.5-26 6.5 5.5-4.5-3.5zm57 0 7.5 5q-1.1 2.7 1.5 2l4.5 5.5-3.5 5.5-2.5-7.5zm-20 3-1 2zm-2 3-.5 1.5-.5 2.5-.5-2.5zm-27 1 2 3zm75 0-2 3zm4 1 1 2zm-76 3 3.5 5.5-2-1zm69 0-2 3zm12 0 3.5 2.5-1.5-.5zm-8.5 2 4 1.5-1.5-.5-3 2 .5-1.5zm-51.5 3 4 5zm59 0 1 2zm-15 1-1 2zm27 0 3.5 2.5-1.5-.5zm-22 1-.5 1.5-3.5 5.5 1.5-2.5zm-15 1-1 2zm7 2-1 2zm-9 1-1 2zm48 0 4.5 3.5-2.5-1.5zm-95 1 7.5 10.5-4.5 2.5-6 1-2-1q-1.5 2.5-7 1l-1-1H56l1.5-3zm86 0 1 2zm-32 1-1 2zm-9 1-1 2zm14 1-.5 1.5-2.5 3.5 1.5-2.5zm32 0 1.5 3.5-2 1 1-3zm-39 1-1 2zm46 0-1 2zm-55 1-1 2zm7 2-1 2zm46 0-1.5 2.5-2.5 3.5 1.5-2.5zm-55 1-1 2zm49 1-.5 1.5-5.5 8.5.5-1.5zm-42 1-1 2zm-9 1-1 2zm14 1-1.5 2.5-3.5 4.5-.5-2 3-1.5zm13 0-1 2zm-20 1-.5 1.5-1.5 2.5.5-1.5zm26 0 .5 2.5h-1zm-35 1-1 2zm26 0-1 2zm28 0-1 2zm-78 1-.5 1.5-4 8.5-4 2.5 1.5 2.5q-2-3-8-2l-4 2-5.5-4q-1.1-2.7 1.5-2l19-5zm22 2-1 2zm54 0-1.5 2.5-1.5 2.5-1-2 1.5.5zm-58 6-2 3zM47 134h8.5l9.5 9.5-10 9v4l4 6v3l-3 1.5-6-16.5zm38.5 5 1 2z"/><path stroke="#000" d="M82 16q3-1.2 2 2.5l2 3v5l2 7v10l-1 3 1.5-.5 9-4 33-8 13.5-6q-2.2 5.6 3.5 4v1l-10 5-39 9-14 7-2.5-.5 1-3-1-1v-16l-1-1 .5-1.5-2.5.5q2.5 1.5-1 3 .7 2.6-2 1.5v2.5L69 50q-4.5-1.7-3 3.5L53 74h-5v6q2.7-1.1 2 1.5L46.5 86l-3-2L24 104.5l-4 6v3q4.2 8.6 4 20.5h6v-2.5q3.3-5.7 14.5-3.5l5 1 1-1 18-1 15-5H88l-1.5 4-15 5-8.5 1q-1.1 2.7 1.5 2l5.5 7 6.5-3h3l7 4h5l15-6 2.5-2.5 3-5.5q3 1.3 2-2.5l6.5-9.5 5.5.5-8.5 12.5q-2.6-.7-1.5 2l27.5-6 1 1h8l9.5 4q1.5 3.8-1.5 3l-4.5 1-1.5 3-3.5 2.5-1.5 2.5q-2.2-.7-1.5 1.5l-4 6.5-3 1.5q.7 2.6-2 1.5v3h11.5l.5-1.5 9-14.5q2.7 1.1 2-1.5l16-24v-4L150.5 95l-3-3h-4l-2.5 1-3.5 6q-2.2-.7-1.5 1.5l-2.5 5.5-.5-2h-4v-1.5l9.5-13.5q2.6.7 1.5-2h4.5l6 2 20 12h3l8.5-2.5-2-.5v-6q-3.7 1.5-3-1.5l-7-10V77q-2.7 1.1-2-1.5l-5-7 5.5-1.5L181 88.5l14 19.5 3 1.5-1.5.5-7-4H183l2 6.5-6 9 1.5 1.5 13 1 5.5 3.5 1 6.5-5.5-4H192l-.5-2h-13l-3-1q-4.1 2.3-4.5 7-4.5-1.7-3 3.5l-6.5 9.5q-2.2-.7-1.5 1.5l-4 9.5 6.5 1 1.5 1.5q-.7 2.3 1.5 1.5l3.5 2.5q-8.5 1.3-13 5.5 1.1 2.7-1.5 2-9.5 8-23.5 11.5l5 3.5q-1.1 2.7 1.5 2l9.5 10.5-7 .5-6.5-8-6-5-7.5-3q-1.5-3.7 1.5-3 22.4-4.6 36.5-17.5l-9.5-2.5-22.5-1q-1.1-2.7 1.5-2l6.5-5 4.5-6 1.5-.5q-2.5-1.5 1-3l8.5-9.5 3.5-1.5q.8-2.6-2.5-1.5-1.7-2.7-8-1l-7 3h-7l-8 3h-4l-20 11H94q1.1 2.7-1.5 2l-8 6-1.5-.5-2.5 3.5H78q1.1 2.7-1.5 2l-2.5 4-3.5 1-11 10-5.5 1v3h-2q1.1 2.7-1.5 2-5 6-14 8l-4.5-6.5 1-3-2-9 1-1v-11l-1-3 2-10 2-3v-4l2-3-2.5-.5-9 9-7.5 1v6h-6v4.5L4.5 166q-2.2-.7-1.5 1.5L.5 172l-.5-9.5 5.5-6.5 3.5-2.5-1-1 14-14-7-25v-5l5-7.5q2.7 1.1 2-1.5L42.5 77l3.5 1 5-12.5 25-36 6-11zM46 133l2 12v7h2l2 10 5 8 5-4v-4h-1q-5-2-4-9l10-9q2 1 1-2h-2l-9-9zm-5 5q-3 1-1 3l-4 12v23l2 7 7-3 7-6-2-6q1-4-2-3l-6-19v-7zm36 5-13 8-2 4 1 5 4 2 3-1 1-2 13-10q2 1 1-1l-4-5z"/><path stroke="#000" d="m165.5 17 .5 2.5-5 15-7 13 11 14-6 .5-1-4h-2v-2q-2.7 1.1-2-1.5l-6-4.5-1-2.5 3-1-1-2 3-3 5-13-1.5.5-5.5 1v-4h-1.5l-2 1v-1zm-70 72 .5 2q-2.7-1.1-2 1.5-2.2 4.8-10.5 3.5L80 94.5zM198 183l2 .5v9l-6.5 7.5-6.5-.5 11-14zm-115 5 13 4q-1.2 3 2.5 2l13.5 5.5-12.5.5-6.5-2v2h-5l-3-5.5.5-1.5q-2.6.8-1.5-2.5z"/><path fill="#2e2b3f" stroke="#2e2b3f" d="m153.5 31 1.5.5-1 3.5q-3.8-1.5-3 1.5l-7 6q.8 2.6-2.5 1.5l-1 2 3.5 2.5q-.9 3 3.5 1.5l9.5 10.5v2l4 12-1.5-.5-4.5-1 3 10.5q-1.2 3.8-7.5 2.5l-4-1-5 1v-1l4.5-.5-8.5-1.5h-9l-2.5-1 2 3.5-5.5-4.5q-1.4-2.6-6-2l-5 1-10.5-4.5 3-1.5 1.5-3 4.5-2.5-16.5-.5L63 74l-2-11.5 3.5-6.5 2 1L80 45.5l.5-1.5.5 3.5-6.5 8.5q-3.3-1.1-2.5 1.5l-6 7-1 5q2.5 5 5 0l1.5-2.5q1.5 2.5 3-1l20-8 26.5-4.5-11-4 9.5-1.5 11-5 1.5.5q-.8-2.6 2.5-1.5l5.5-3.5-.5-1.5 2 1v-2l2 1 .5-2zm-73 2-1 2zm1 5 .5 4.5h-1zm-6 24-1 2zm-26 21-2 3zm66 0 2 3zm-74 3-3 4zm48 3 3.5.5-3.5.5zm34 0 7 8zm-39 7 4.5.5-4.5.5zm-53 1-2 3zm25.5 4 3 1.5q1.3 3.8-2.5 2.5-2.7-1.2-.5-2.5zm88.5 0 10.5 5.5h-2q-1.1 3.3 1.5 2.5l4 1-1-3 10.5 7.5-6.5 9.5-3-1-9.5 2 1-7h-3.5l-10 7h-7l-3 3 1.5-2.5q-.7-2.2 1.5-1.5zm-74 5q3.8-.7 4.5 1.5 1.1 3.3-1.5 2.5-17.5 7-32 17h-8l-5.5 4.5-1.5 2.5-1.5-1.5 4-4 2.5-3.5 4-1 18-11zm-25 1 2.5 1.5q1.3 3.8-2.5 2.5l-1.5-2.5zm84 3-1 2zm-94 3 1.5 4-4-1.5zm139 3-1 2zm-87 9-1 2zm81 0-1 2zm-109 1 2.5.5-2.5.5zm-12 1 5.5.5-5.5.5zm117 4-1.5 2.5-1.5 2.5v-2l-1.5-.5zm-101 1 1.5 2.5-2-1zm-11 1 2.5.5-2.5.5zm24 4 2.5.5-2.5.5zm84 0-1 2zm-8 2-2 3zm6 1-1 2zm-2 3-1 2zm-81 1h3l3.5 2q1.5 3.8-1.5 3-5.5 7.5-16 10l-2.5-4.5q5.1-6.9 13.5-10.5Zm73 0-1.5 2.5-4.5 8.5q-3.2-1.7.5-3.5zm-86 1-1 2zm92 1-1 2zm-118 6 .5 2.5h-1zm8 6q.8 9.2 5.5 14.5-4.6 6.2-13 7.5l-1-5.5h1l.5 1.5q1.1-8.9 6.5-13.5zm-9 3 .5 7.5h-1zm22 6-1 2-1.5-.5z"/><path fill="#495062" stroke="#495062" d="m140.5 37 1.5.5-2.5 1.5zm-67 14-1 2zm36 17-1 2zm-26 14 3.5 5q2.7-1.1 2 1.5L85 90zM54 86h4q-1.1 2.7 1.5 2l1-1 4 4 1.5.5-8 .5q1.1-2.7-1.5-2L54 89zm-20.5 9-1 2zm60 0 3.5 5.5-1 3.5 3 1.5 1 3-9-8-2-3zm-34 6 1.5 2.5h-1zm76 2-1 2zm-79 1 2.5 1.5-1.5.5zm12.5 0 7 2.5-1.5-.5-6 1 .5-1.5zm-20.5 3 1.5 2.5h-1zm92 1-2 3zm20 0 1 2zm-115 2 2.5 1.5-1.5.5zm92 2-1 2zm30 0 1 2zM34 113l2 .5-2 1zm.5 3 3.5 1.5-2.5.5zm14 0-1 2-1.5-.5zm-4 2-1 2zm128 2-1 2zm-135 2-1 2zm-6 3-1 2zm26 1 2.5.5-2.5.5zm-28 2-2 3zm137 1-1 2zm-109 6 4 5zm12 2 2 3zm86 0-1 2zm-90 5 .5 1.5-2 1zm86 0-1 2zm6 0-1 2zm-117 1 4.5 14.5v5q-5.4 4.6-6.5 13.5l-1.5-2.5v-18zm109 2-1 2zm2 6-1 2zm-93 10 1 2z"/><path fill="#0a6459" stroke="#0a6459" d="m96.5 101 1.5 2.5-2 .5zm25 35q2.3-.7 1.5 1.5l2 3-1 4-7 10.5-13 4-1 4.5q.8 3.3 5.5 2.5l9-3 12.5-1v2.5l-5.5 5.5q-4.3 3.2-12 3l-2-2-11-4-9-1-5.5 3.5 1 3.5q2.7 1.9 9.5 1l9 3 20.5 11.5q.8 3.8-1.5 4.5h-19l-9-2-12.5-8.5q.8-2.2-1.5-1.5l-4-1q-2.2.8-1.5 4.5l4.5 6.5q2.3-.7 1.5 1.5l4 7.5H65.5q-2.2-4.7-8-6l-3.5 2.5 1 3-27 .5 1-5.5-2-4 13.5-1.5q13.1-6.4 23-16l.5 8.5-1 3 3.5-2.5 2.5-1.5 4-9v-5l3.5-4.5q18.9-16.6 45-26Zm-102 14-5.5 6.5-6 9-2 6 2.5.5H12q-1.1 2.7 1.5 2l2.5 6.5 7 8q-4.2 7.8-17.5 6.5L0 193v-16.5l1-3q7-14 18.5-23.5Zm178 25 2.5.5-2 .5v4.5l-5.5 9.5-2.5-.5 2-1-1-2 3-8.5-2-.5z"/><path fill="#062f3e" stroke="#062f3e" d="m162.5 84 1 2zm-34 2 1 2zm27 0 4 5zm13 2 2 3zm-6 4 5 6zm19 37 8.5.5-8.5.5zm-38 2h7l.5 1.5-9 8-11.5 13.5-6.5 4q-1.5 3.7 1.5 3v1h-6l-14 3q-2.2-.7-1.5-4.5 3-3.5 9.5-3.5l4.5-3.5 6-9 1-6-2-3.5 10.5-2 2 1zM114 159l-1 3h1zm82.5-25 3.5 3.5V164h-2v9.5l-1.5.5-12 6-10 2h-10l-2.5-1 1-8.5-2.5-3.5q3-3.9 9.5-3l-1-4-6.5-4-5.5-1 5-9h13.5l.5 1.5q-4.2 1.3-3 8l2.5 3.5 9 1 7.5-4 4-6.5q-.6-4.6 2-6v-6zm-173 11-8 9zm73 2-1 2zm-3 2-1 2zm-3 2-1 2zm-3 2-1 2zm-4 3-2 3zm-73 3-1 2zm69 0-2 3z"/><path fill="#062f3e" stroke="#062f3e" d="m130.5 161 18 1 6.5 2.5q-12 12-33.5 14.5l-1.5-.5q.9 3-3.5 1.5-2 4-4 0l-15-6-10-1-1.5-1.5q-.7-3.7 1.5-4.5h10l16 7h3q8.5-2.5 13.5-8.5l1-3zm-55 1-7 8-2.5 1.5 4.5.5 1.5-.5-.5 1.5H66v8.5l-1.5.5.5-1.5q1.5-6.5-2-8zm-69 2-1 2zm151 7-1 2zm-140 3q4.8-.7 5.5 2.5l2 5.5 5.5 1 1.5-.5 2 7.5-6.5-1-3.5 1-1.5-3-3.5-2.5q-3.7-2.2-3-9zm2.5 8q-1 3 2 2 1-3-2-2Zm39.5-7-2 3zm-4 3-2 3zm89 1-2 3-5 4h-2q-3-1.5 0-3zm-66 1 3.5 1.5 3.5 4.5 2.5 1.5-1.5.5q-1.2-3-5.5-2l-1 2.5 2 .5 1 2.5-6-5-1-4zm-27 1-1 2zm86 6 1 2zm-12.5 1 12 8.5 2 3-22.5.5-18.5-7.5 3.5-.5 1 1h10l1 1h2l9.5-1zm37.5 0 10 6h11q1.5-2.5 7-1l-4 5-1-2-4 4h-33l-1.5-4 2.5-1H162zm-162 5 9 3 8-2 .5 2q4.3 1 5.5-2H28v5.5l-.5.5H0zm143 0 1 2zm-87 2h3l4.5 4.5-9 .5q-1-3.8 1.5-5Z"/></svg>