<svg xmlns="http://www.w3.org/2000/svg" width="200" height="200"><path stroke="#000" d="M43.5 25h3l8 7h2l3-2 13-3h8l1-1h25l1 1 11 1 17 5 15 7 6.5 5.5.5 3.5q10.4-9.1 28-11l2.5 1q2.1 4.9 1 14.5l-3 13-6 13q-7.5 12.5-19 21l2.5.5 1-1h15l9 2 3.5 2.5q-3.9 13.1-12.5 21.5h-17l-.5 1.5q3.7 4.3 4 12l-1 4-5.5 5.5-13.5 7-1 9.5 15 14q6.5 5.5 7 17l-1 3.5-7-.5q3.2-1.2 2-7-3.2-8.3-9.5-13.5l-10.5-8.5-2-7 2-7-3.5-4.5h-5l-11 4-7.5 5.5-3 6-1 16 1 1q-.9 9.9 1 15.5h-5v-2.5l-1-1-1-21 3-12.5q-3-1-2 2h-3.5l-1 1H82l-1 5.5-12 25v3.5l-6-.5 2-3 2-9 8-14 2-7-5.5-2.5-13.5-1-1 2.5 3 2v3.5q-2.7-1.1-2 1.5l-13 13-2 4v4l5 6-7.5.5q-4.3-2.2-3.5-9.5Q41 178 50.5 171q2.3.8 1.5-1.5-2.2-1.3-1-6l1.5-2.5-15-6-6.5-6.5-1-9 7-9 1-4-25-14q2.5-12 10.5-18.5L45 104l-6-9.5-6-18-1-5v-21l5-17zM80 32l-19 4-12 7q-1 4 2 3l1 4q-1 4 2 3l3 12v3l-4 8v12l5 11 17 11h5l6 2 16-2 8-4 10-8 1-5 8-14q-1-4 2-3l4-7 11-10 4-7v-4l-10-7-21-7-11-2zm-34 1-4 4-4 13v23l2 10 9 17 2 1v-5l-3-8V77l4-11-1-7-2-2 1-2-7-10v-4l4-3 2-4zm135 11-13 6q-8-2-6 3l-3 1-8 7q-4-1-3 2l-5 3-15 23-2 10-2 2q-1 5 2 6l17-3q4 1 3-2h3l5-4q3 1 2-2h2l14-14q-1-3 2-2v-3l7-12 2-10q2-7-1-8 1-4-1-3ZM26 101l-6 9 9 6 14 6 13 4 17 3h26l1-1 19-1 26-5 17-1 1-1h15q1-6 5-8l1-5-4-1-25 1-5 2-13 1-25 5-23 1-1 1h-9q-2-4-9-3-6-6-14-9l-2 8-11-3zm93 4-3 3 1 1 3-1q1-4-1-3Zm-75 22v2q-2 7-8 12v5l9 6 18 6 17 3h28l6-6 1 1 1-2h2v-2l11-4 10-2 5 1 1 3 12-6q4-2 3-8v-2l-1-1v-1l-2-1-2-4h-13l-7 2q-2 8-8 12-4-1-3 2l-6 2q-11 2-14-3-3 1-2-2h-2l-2-7-2 1H83l-3 5 1 2-3 5-2 2-9 3-13-3-2-2-4-3-2-6 1-9zm11 3-1 1-2 1v8l9 6 10-1 3-2q4-3 3-9l-17-2zm62 2-8 6 2 2 9-1 3-6z" opacity=".98"/><path stroke="#000" d="M130.5 179q4-.5 4.5 2.5l1 3-4 7 5.5 6.5q2.6-.7 1.5 2h-6.5l-.5-1.5-6-5q.8-2.2-1.5-1.5l-2.5-4q5.3.7 8-2.5l-1-5z" opacity=".98"/><path fill="#494950" stroke="#494950" d="m48.5 35-1 2zm-6 5-1 2zm71 8-1 2zm-1 4 1 2zm11 2 1 2zm4 4 1 2zm-66 4-1 2zm58 2-1 2zm-81 2 .5 2.5h-1zm102 5-1 2zm-93 4 .5 2.5h-1zm0 10 .5 2.5h-1zm38 1 3.5.5-3.5.5zm72 8-1 2zm-107 2 .5 2.5h-1zm85 8 2.5.5-2.5.5zm-53 6 2.5.5-2.5.5zm7 0 2.5.5-2.5.5zm59 17 5.5.5-5.5.5zm-103 7 .5 2.5h-1zm26 0q3.8-.7 4.5 1.5l-.5 2.5-.5-3q-4.4 1-3.5-1Zm19 0 7.5.5-7.5.5zm10 6 1 2zm-21 4-2 3zm30 14-1 2zm-26 2 3.5.5-3.5.5zm16 0 3.5.5-3.5.5zm6 8 .5 2.5h-1zm-26 10 10 11 5.5-1 .5 2 .5-4.5 6-7.5 2 .5v8q2.3 1.3 1 6h-1l-.5-4.5-2.5 1q1.3 3-2.5 2l-5.5 4.5q.9 3.4-4.5 1.5l-7.5-6.5-3-6.5-2-.5 2-1v-2zm55 12-1 2zm5 4 5 6z" opacity=".996"/><path fill="#304e7a" stroke="#304e7a" d="m80.5 33 3.5.5-3.5.5zm25 0 2.5.5-2.5.5zm-24 2h28q1.5 2.5 7 1l2-1v2l3-1 2.5 1-2.5 6q-2-4-8-4l-7.5 9q-7.9-4.3-21.5-4l-13 3-4 3 .5-1.5L65 38zm-31 7 1.5 3.5-2-1zm15 8-1 2zm83 0-.5 1.5-1 4.5-8.5 7 1.5-2.5zm-86 2-1 2zm-37 50 2.5 1.5-1.5-.5-2 1zm-3 5 3 3 10 5 21 6q4.8-1.2 6 1h24l1-1h9l26-5 27-3 1-1 29-2v1h-5l-25 7h-4l-23 7-15 1-1 1h-13l-1 1h-16l-30-6-20-9-4.5-3.5zm141 0 4.5.5-4.5.5z"/><path fill="#304e7a" stroke="#304e7a" d="m142.5 110 2.5.5-2.5.5zm-80 6 2.5.5-2.5.5zm43 0 2.5.5-2.5.5zm-37 1 9.5.5-9.5.5zm23 0 3.5.5-3.5.5zm42 36 2.5.5-13.5 14.5-3.5-2.5q-1.1-3.3 1.5-2.5l10.5-7.5-2-1 1.5-.5q1.5 2.5 3-1Zm-17 7 1.5 3.5-2-1zm-50 10h7l.5 2.5-1 2.5-6.5-4zm-7 4 9.5 7.5q-5.5 7.9-7 18.5-4.1 1.7-3-2.5l3-11v-2l2-4-1-2.5-5.5 1 .5-1.5zm53 0 11.5 23.5v2.5h-11v-5.5l-1-1zm-56 1-1 2zm79 4q5-.5 5.5 3.5l1 4.5-5-2.5zm-79 1-1 2zm-7 2-2 3zm4 3-.5 1.5-1.5 2.5.5-1.5zm104 5 2.5 5.5-2 4.5q-2.7 1.1-2-1.5zm-20 2 1 2zm-92 3q1.8 3.1 3.5 1.5l-1.5 1.5z"/><path stroke="#000" d="M43.5 24h3l8 7h2l2-1v1l-4 1-8-7h-3l-5 6 .5-1.5zm43 1 17.5.5-17.5.5zm-13 1 7.5.5-7.5.5zm34 0 5.5.5-5.5.5zm-40 1 4.5.5L60.5 30v-1zm47 0h4l7.5 2.5-2.5.5q-2.9-2.6-9-2zm16 4 21 8 6.5 5q-1.1 2.7 1.5 2 6.9-5.1 17-7v1l-5 1-14 8q.1-5.6-4-7-9.5-7-23-10zm-94 3 .5 1.5-1.5 2.5-.5-1.5zm142 4 2.5.5-2.5.5zm-144 1 .5 2.5-1.5 3.5-.5-2.5zm155 5 .5 4.5h-1zm-157 2 .5 3.5h-1zm-1 7 .5 17.5h-1zm157 1 .5 4.5h-1zm-1 6 .5 3.5-7.5 15.5.5-1.5zm-155 12q1.3 12.7 6.5 21.5h-1l-5-12zm147 8 .5 1.5-4 3zm-4 6-4.5 5.5-3 4V98h-4q1.7 4.1-2.5 3zm-152 7L20 97.5l-3.5 5.5-.5-1.5zm2 1 3.5 1.5-1.5.5zm14 1 2.5 3.5-2 .5zm-9 1 5.5 3.5-1.5-.5q-4-.5-4-3Zm142 3 3.5.5-3.5.5zm-135 1 2.5 1.5-1.5-.5zm5 0 2.5 4-4-1.5 2-1zm138 0q8.2.1 12.5 3l-1 7q-2.7-1.1-2 1.5l-4.5 7.5.5-1.5 6-13q-3.5-4-11.5-3.5zm-165 4-.5 1.5-1.5 3.5-.5-1.5zm-2 9L38 126.5l-1 4-7 9v7l7.5 8.5 3.5 1.5-1.5.5-6.5-4.5q-5.4-3.1-4-13l8-13.5-9.5-4H24q1.1-2.7-1.5-2l-8-5zm171 7-.5 1.5-2 4.5-2.5 1H164l2 5.5v4h-1l-3-10.5h17.5l3.5-3.5zm-19 20 .5 3.5-3.5 4.5-12 7 1-2q8.7-2.8 13.5-9.5zm-17 15-1.5 2.5-.5 2.5-.5-4zm-106 2 5.5 2.5-1.5.5-4-2zm7 3 3.5 1.5q-3.2 1.3-2 7l1 2.5-9 7.5q-4.3 4.2-5.5 11.5l-.5-3.5q4.9-10.6 14-17-2.2-1.3-1-6l1-2.5zm96 2 4 7 8.5 6 8 11.5 2 10-1.5 3.5-.5-2.5 1-5q-4.6-13.9-15.5-21.5l-6.5-5.5zm-108 33 2.5 4.5-3-2z" opacity=".063"/><path fill="#2c2523" stroke="#2c2523" d="m86.5 32 3.5.5-3.5.5zm27 7h3l3.5 2 1.5 3L134 55.5l3 4v3l-9 10 .5 2.5 1.5.5q-5 3.5-6.5 10.5l-.5-8.5-5-11 5-4 1.5 2.5 4.5-3.5-1.5-3.5-2.5-1.5-1.5-2.5q-2.2.8-1.5-1.5l-5.5-5.5h-2q-3.2.8-2.5 5.5l1 2-4.5 3.5q-8.2-8.3-26-7l-7 2q-8.3 2.7-13 9H60l-1.5 4-2.5-5.5v-2l2.5-2.5 10-7 3 1v-1l-1.5-.5L80.5 45h14l11 3zm-72 1 1 2z" opacity=".996"/><path fill="#2c2523" stroke="#2c2523" d="M95.5 62q6.3-1.2 7.5 2.5l1 4-2 8-6.5 7.5q-4.2 3-11.5 2-2.7-2.6-2-9.5 2.1-7.4 7.5-11.5zm-.5 6-7 8v4l5-1 5-7q2-6-3-4Zm51.5-4-4 5zm-13 5-1 2zm5 4-1 2zm-91 5 .5 6.5h-1zm6 0 .5 6.5h-1zm113 8-6 7zm-48 11-4 5zm-69 1 1 2zm10 0 4 5zm67 8 2.5.5-2.5.5zm45 0 4.5.5-4.5.5zm-79 4 3.5.5-3.5.5zm5 6 2.5.5-2.5.5zm63 3 2.5.5-2.5.5zm-24 3 2.5.5-2.5.5zm9 5 2.5.5-2.5.5zm-62 7 6.5.5-6.5.5zm49 1-1 2zm23 8-1 2zm-118 3 2 3zm99 8 2.5.5q1.8 5.7-4.5 3.5l-1.5.5q-.8-2.6 2.5-1.5zm-24 1-2 3zm1.5 7q3-1 2 2-3 1-2-2Zm22.5 0-.5 1.5-2 3-8 7 6-6V164q3.4.8 4.5-2Zm-9 2-1.5 2.5v3.5h-6l.5-2 2 1zm-44 2 1.5.5-2.5 1.5zm18 0 4.5.5-4.5.5zm14 4 2 3zm-56 2 .5 2-2-.5zm8 1 1 2zm76 0 1 2zm-65 4 .5 1.5-1.5 2.5-.5-1.5zm26 0 .5 6.5h-1zm-34 1 .5 1.5-1.5 2.5-.5-1.5zm59 0-1 2zm-70 1 .5 3q-2.7 1.1-2-1.5zm17 3 1.5.5-2 .5-.5 2-.5-1.5zm19 4 .5 3.5h-1l-1-2zm-22 2 .5 1.5-2.5 4.5-.5-1.5zm61 0 .5 1.5q-3.1 1.7-1.5 3.5-3.2-1.7.5-3.5zm-29 5 .5 4.5h-1z" opacity=".996"/><path fill="#9a6b4a" stroke="#9a6b4a" d="m45.5 33 2.5 1.5-1.5-.5-2 1zm136 12 .5 2.5h-1zm-65 2 4 5zm-32 4 7.5.5-7.5.5zm37 2 7.5 8.5-3 2 2-3zm60 0 .5 2.5h-1zm-68 1 9.5 7.5-2 .5q1.1 2.7-1.5 2l-1.5 3.5.5 1.5-8.5-11.5zm-75 2 .5 9.5h-1zm28 2-1 2zm17 1q12.8-1.7 18.5 3.5l-1.5-.5-8 1-7 6 2-4q-12.4.1-16.5 8.5l-2 11 5.5 9.5q5 5.5 17 4 8.4-2.1 12.5-8.5l3-9-2-6.5q-2.7-1.1-2 1.5h-1l2-10-.5-1.5h1.5v2q2.7-1.1 2 1.5 7 5 6 18-1.8 8.2-7.5 12.5l-8 5-13 1-11-3-7.5-6.5-4-9v-5Q64.3 67.8 73.5 62zm67 2-2 3zm-27 2 1 2zm-73 2 .5 1.5-1.5 2.5-.5-1.5z" opacity=".996"/><path fill="#9a6b4a" stroke="#9a6b4a" d="m97.5 68 .5 2.5h-1zm-4 1-3 4zm49 0-1 2zm-58 1-1 2zm35 0 1.5 2.5h-1zm-23 2 .5 1.5-2 1zm-14 1-.5 1.5q-1.7 9.8 3.5 12.5 8.5-.2 12.5-4l2.5-4-1.5 2.5q-.2 7.2-5.5 9.5l-8 1-5.5-4.5V86l-2-.5v-7l2-4.5zm39 1 .5 2.5h-1zm-67 1 .5 2.5h-1zm40 1-1 2zm-3 2-1 2zm31 0 .5 8.5h-1zm13 0-1 2zm36 1-1 2zm-3 4-10 11zm-13 12-1 2zm-107 1 1 2zm10 0 1 2zm60 0-6 7zm31 3-1 2zm-87 1 3 4zm76 3 3.5.5-3.5.5zm-53 7 3.5.5-3.5.5zm69 18 1 2zm-72 8 .5 2.5h-1zm50 0-4 5zm26 0 .5 3.5h-1zm-1 5-1 2zm-55 1 1 2zm-54 2 1 2zm33.5 1h8.5l.5 2.5-4.5 2.5-4.5-3.5zm56.5 0 3.5.5-3.5.5zm5 1 2 3zm-67 1-1 2zm-14 4 4.5.5-4.5.5zm25 9 11.5.5-11.5.5zm-4 7 22.5.5-1 2.5-8-1 5 8 2 .5-2 .5v1.5l-8.5 8.5 4.5-5.5-6.5-8.5-7.5 6.5 1 2-6-5 2.5-6.5q1.7 2.8 3.5-1.5.8-2.2-1.5-1.5l-1.5.5z" opacity=".996"/><path fill="#9a6b4a" stroke="#9a6b4a" d="m104.5 173 .5 2.5h-1zm-28 11q2.3-.7 1.5 1.5l4.5 6.5 6 5H93l1.5-3 4-3h2.5q-1.1-2.7 1.5-2l1.5-.5 1 11.5-35-.5zm9 0 4 5z" opacity=".996"/><path fill="#d9984f" stroke="#d9984f" d="M115.5 47 128 61.5l-3.5 2.5-6-7-6.5-5.5zm66 3 .5 2.5h-1zm-101 2q25.7-1.7 35.5 12.5l5 9 1 15q-3 10.4-11.5 15.5l-13 6h-16Q67.6 107.4 60 98.5q-6.6-6.4-6-20l3-10 7.5-8.5-1.5 2.5 2 5.5 6.5-5-5.5 6.5q-4 6-4 16 1.9 9.1 8.5 13.5l8 4 13 1 8-2 9.5-7.5 4-9v-7L107 66h-2q1.1-2.7-1.5-2-5.5-7-20-5L79 60l-2-7zm-33 4 3.5 8.5-4 9-.5 13.5-1.5-3.5-1-17q2.3-1.2 1-6z" opacity=".996"/><path fill="#d9984f" stroke="#d9984f" d="m82.5 65 3.5.5-3.5.5zm80 0 4.5.5-4 13L148.5 98l-2.5 1.5 1.5.5 1.5-.5-3.5 2.5v-2q-3-.8-1.5 3h-5.5l-3.5 1v-3.5l9-17L157.5 68zm-85 2-1 2zm19 1 .5 3.5-4.5 6.5-4.5 2q.8-7.5 6.5-11zm-24 4-1 2zm10 0-1 2zm90 5-1 2zm-95 2 .5 4.5h-1zm-8 1 .5 4.5h-1zm100 1-1 2zm-3 3-1 2zm-88 2q2.3-.7 1.5 1.5l5 4-1.5.5-4.5-3.5zm19 1-3 4zm6 2-1 2zm-31 2 2 3zm14 1 3.5.5-3.5.5zm-10 2 1 2zm-28 1q2.3-.7 1.5 1.5zm34 2 2.5.5-2.5.5zm7 0 2.5.5-2.5.5zm-44 32 .5 2.5-2-1zm109 0 1 2zm-37 4q3.8-.7 4.5 1.5l-3.5 4.5-6 1-2.5-1 1.5-4zm-34 2 6.5.5-6.5.5zm16 5 2 3zm28 1-1 2zm28 1-1 2zm-3 2-1 2zm-73 1-2 3zm12 0 .5 2.5-3.5 2.5v-1l2.5-1.5zm-10 1 4.5 3.5-2.5.5zm33 0 2.5.5-2.5.5zm-23 28 4 5z" opacity=".996"/><path fill="#e9cdbc" stroke="#e9cdbc" d="m45.5 34 2.5 1.5-4.5 3.5-.5-1.5zm-4 9Q46 47.3 46 55l2 .5-3 5-1 14 1 1v8l4 11-2-1q-5.7-9.8-8-23v-19zm139 2 1.5 4.5-4 17L168 84l-3 1.5-8.5 9.5-12 7-.5-2q5.6-1.5 9-6.5l10-15 4-13-4.5-.5L149 76.5q-9.7 12.3-15.5 28.5l-6 1q-2.2-.7-1.5-4.5l3-12 3-6L147.5 64q13.7-12.3 33-19Zm-105 9q2.3-.7 1.5 1.5l2 4.5-4.5 1-9.5 7-2-5.5q4.5-6 12.5-8.5Zm11 11 .5 1.5-8 9q-2.7 2.3-2 8l3.5 6.5q3 3 9 3 5.8-1.2 8.5-5.5l1-5 4.5-8.5q3.8 2.3 2.5 9.5L99.5 94q-5.4 3.6-14 4-10-1.5-14.5-8.5l-1-11q.9-6.6 5.5-9.5l5-3q4.8 1.3 6-1Zm59 63h8l.5 1.5q4.9 2.6 4 11l-8.5 6.5-4 1q-1.6-3.9-8-3l-15 4-13.5 8.5q.8 2.6-2.5 1.5l-1 1h-24l-26-5-16-7-2.5-2.5v-5l4.5-5.5q2.3.8 1.5-1.5l1.5-2.5.5 3.5v2q1.2 7.8 6.5 11.5 5.6 4.4 16 4l7-2 5.5-4.5q3.7-3.4 3-9.5l14-1 4.5 8 5 3 10 1q11.9-2.6 17.5-11.5l2.5-5.5zM82 144l-1 3 1 2q2 2 8 1 3-1 2-5-7 1-10-1Z"/><path fill="#e9cdbc" stroke="#e9cdbc" d="m53.5 134 14.5 8q1.1 2.7-1.5 2l-2 1-5-1-5.5-3.5zm30 35 .5 2-2-.5zm14.5 1h6.5l.5 1.5-1 4.5-3-1.5q.8-2.2-1.5-1.5zm-8.5 5h2l6.5 6.5-5.5 6.5-2 1q-4.8-2.2-5.5-8.5z"/><path fill="#05080c" stroke="#05080c" d="m80.5 32 2.5.5-2.5.5zm67 13 1 2zm-8 26-1 2zm-8 2-1 2zm-82 26 1 2zm16 12 1 2zm6 3 2.5.5-2.5.5zm86 6 2.5.5-2.5.5zm-8 1 2.5.5-2.5.5zm-56 7 2.5.5-2.5.5zm-17 6 .5 2.5h-1zm6 0-.5 1.5-.5 2.5-.5-2.5zm-8 7-1 2zm-14 4 5.5.5-5.5.5zm78 8 1.5 3.5h-1zm-79 10-1 2zm48 0-.5 1.5q.8 2.6-2.5 1.5v-1zm4 5 .5 2.5h-1zm33 5 1 2zm8 7 1 2zm-23 3 .5 2.5-2 1zm-7 7 3 4z"/><path fill="#67ca93" stroke="#67ca93" d="m53 131 6.5 2 15.5 2q1.3 6.4-3.5 8l-3.5 1q1.1-2.7-1.5-2l-13-8-1 3-.5-2.5zm58.5 24-2 3zm-28 13 1 2-2.5-.5zm13.5 1 5 .5-4.5 1.5zm-9.5 8-2.5 3.5-.5 1.5-.5-1.5z"/><path fill="#21324d" stroke="#21324d" d="m90.5 32 11.5.5-11.5.5zm-14 1 3.5.5-3.5.5zm32 0 2.5.5-2.5.5zm14 3 21 8 6.5 4.5q.8 2.3-1.5 1.5v2l-1-1-5.5 5.5-2 4 6-4-14 14-2.5 4.5-1.5-.5v-2l9-10v-3L122.5 44l-2.5-1.5 3-1 1-4.5zm-38 8 7.5.5-7.5.5zm24 0-2 3zm-13 1 2.5.5-2.5.5zm-38 61 3.5 2 1.5 3 12.5 5.5-9.5.5-11.5-3.5 2-.5 1-4.5q-2.2-1.2.5-2.5Zm103 1 2.5.5-2.5.5zm-139 1 1.5 2.5-2-1zm132 0 2.5.5-2.5.5zm-7 1 2.5.5-2.5.5zm36 0-1.5 2.5-4.5 7.5h-16l-1 1-27 3v-1l42-11h5zm-158 2 1 2zm5 3 2.5 1.5-1.5.5zm81 1 2.5.5-2.5.5zm-10 1 4.5.5-4.5.5zm-22 1 12.5.5-12.5.5zm45 7 2.5.5-2.5.5zm-7 1 2.5.5-2.5.5zm-52 1 3.5.5-3.5.5zm43 0 4.5.5-4.5.5zm-36 1 4.5.5-4.5.5zm22 0 7.5.5-7.5.5zm43 26-1.5 2.5q.8 2.3-1.5 1.5zm-4 5-10 11-6.5-5.5 1.5.5q2.3-.7 1.5 1.5l3.5 2.5z" opacity=".996"/><path fill="#21324d" stroke="#21324d" d="m138.5 161 .5 8.5 5.5 5.5 11.5 10.5 3 5h-2q.9 6.8-1 9.5h-10.5l-9-9H135l1-6 6 2q-.1-5.6-4.5-8l-2.5.5.5 1.5q-.8-3.7-6-3-2.2.8-1.5 4.5l1 2q-1 2.5-5.5 1.5l-2.5 2.5 3.5 5.5 6.5 5.5-7 .5q-4.1-14.5-12-26.5V169l10.5 7q7.5-3 11.5-9.5l2-3zM59 164l16 2-.5 5q-1.7-2.7-8-1v1l6.5 4.5-1 2.5q-2.7-1.1-2 1.5l-2.5 1.5-7.5-6.5q-.8-5.3 3-6l-4-2.5zm52.5 11 .5 12.5h-1zm-58 2-4 5z" opacity=".996"/><path fill="#21324d" stroke="#21324d" d="M58.5 178q5.4-1.9 4.5 1.5l1 2-8 13-1 5.5q-5.4 1.5-7-1.5Q51 186 58.5 178Zm1.5 1-2 2q-1 2 2 1zm74.5 14 5 6zm-22 1 .5 2.5h-1z" opacity=".996"/><path fill="#030304" stroke="#030304" d="m52.5 50 .5 2.5h-1zM162 50l4 .5-3.5 2.5zM48.5 53l1 2zm125 25 .5 2-2-.5zm-48 21-.5 1.5q-1.3 4.7 1 6l-2-1q-1.2-5.2 1.5-6.5Zm-63 9 2 3zm23 3 4.5.5-4.5.5zm18 4 2.5.5-2.5.5zm-15 1 2.5.5-2.5.5zm-16 12 2.5.5-2.5.5zm24 0 2.5.5-2.5.5zm-47 15 2 3zm57 20 1 2zm-46 4q3 1.5 0 3zm50 9 .5 7.5h-1zm25 9-1 2zm-30 1 .5 2.5h-1zm18 1 2.5.5-2.5.5zm7 10 1 2z" opacity=".996"/><path stroke="#000" d="M0 0h200v200h-32.5l-.5-2.5 1-5-3-8-7-9.5-11-8.5-1-6 3.5-5.5q9.4-2.1 14.5-8.5l2-3v-11l-2-5.5h15.5l2.5-1 8-16q3 1.3 2-2.5l1-4.5-8.5-3-12-1-1 1H164q-1.2-3.7 4-2v-2.5l12-14 6-12 3-11 1-14-2-6.5-13.5 1-16.5 7q1.1-2.7-1.5-2l-5-5-29-11-10-2h-8l-1-1h-17l-1 1-18 1-13 4-8-7h-3L39 28.5l-6 14-2 11v17l2 11L40 99q2.7-1.1 2 1.5l.5 1.5-19-9-7.5 8.5-4 10 2.5 3.5 9.5 5q-1.3 3.3 3.5 2l9.5 4-8 13.5v7l5.5 7.5 16.5 7q-1.6 2.1-1 7.5l1 1-10 10-4 7v11l1.5 2.5H.5l-.5-.5z" opacity="0"/><path fill="#0e0f11" stroke="#0e0f11" d="m83.5 32 2.5.5-2.5.5zm-33 9-1 2zm19 8 2.5.5-2.5.5zm77 7-4 5zm-10 10-2 3zm5 3-1 2zm-9 2-1 2zm-5 8 .5 1.5-4.5 6.5.5-1.5q.3-4.7 3.5-6.5Zm42 4-2 3zm-20 17-1 2zm-36 2-1 2zm-84 1 1 2zm27 2 2.5 1.5-1.5-.5zm62 0 1.5.5-3 2-.5 1.5-.5-1.5zm48 1 4.5.5-4.5.5zm-105 2 3 4-3.5-2zm-41 1 1 2zm35 0 .5 1.5-2.5 3.5.5-1.5zm19 6 3.5 1.5-1.5.5zm33 0 2.5.5-2.5.5zm-14 1 3.5.5-3.5.5zm70 3 11.5.5-11.5.5zm-10 1 3.5.5-3.5.5zm-9 1 4.5.5-4.5.5zm-12 2 2.5.5-2.5.5zm-5 1 2.5.5-2.5.5zm-14 2 2.5.5-2.5.5zm-10 1 3.5.5-3.5.5zm51 0 1 2zm-78 1 16.5.5-16.5.5zm41 4 3.5.5-3.5.5zm42 4 .5 3.5h-1zm-29 1-2 3zm-82 6 1 2zm64 2 2.5.5-2.5.5zm-61 1 1 2zm83 6q4.8-1.7 3.5 2.5l-3 2 2-3.5q-3.3.8-2.5-1Zm5 5 .5 3.5h-2q.8 2.3-1.5 1.5-1.1 2.8-4.5 2v3.5l-6.5 6.5-5 1-2.5-1-2.5-4q-2.6.7-1.5-2h-2v-2.5l1.5-2.5 6.5 4.5v2.5h6v-3.5l4.5-5.5 3-2zm-24 3-1 2zm-48 4 2.5.5-2.5.5zm6 1 2.5.5-2.5.5zm12 1 10.5.5-10.5.5zm12 0 3.5.5-3.5.5zm-36 1q3 1.5 0 3zm79 3 2 3zm-83 3-2 3zm89 2 9 10zm-16 3 1.5.5-2.5 1.5zm3 1 2 3zm-10 7-1 2zm33 0 1 2zm-51 4 .5 2.5h-1zm6 0 .5 3.5h-1zm11 1 1 2zm38 2 .5 2.5h-1zm-34 1 5 6zm-81 2 1 2z"/><path fill="#3b6e96" stroke="#3b6e96" d="M84.5 33h20l12.5 2.5-6.5.5-1-1h-28L65 38l3 10.5L56 57l-5-15 13.5-6 10-2h9zm34 3 2.5.5-2.5.5zm-93 67 16 8 21 6q4.8-1.2 6 1h26l1-1 19-1 44-8 21-1 3.5 1.5-1.5 1.5-31 2-1 1-27 3-26 5-34 1-27-7-12.5-7.5q-.5-4 2.5-4.5Zm106 51-1 2-12 8-1.5-3.5zm-73 20 .5 1.5q-7.2 9.3-11.5 21.5l-3.5-5.5 2-5 8.5-9.5zm3 12 .5 2.5-3 11.5h-4v-1.5zm73 5 9.5 8.5-2.5.5-7.5-7.5z"/></svg>