<svg xmlns="http://www.w3.org/2000/svg" width="200" height="200"><path stroke="#000" d="M114.5 57h21q7.8 1.7 12.5 6.5 1 6.5-3.5 7.5l-5.5 3.5-2 12-1.5 1.5-.5-1.5 3-8v-4l3.5-3.5 5.5-3.5q1.9-5.4-1.5-4.5l-10-5h-21l-4 1-3 3 3-4zm-8 6-.5 1.5-1.5 2.5-.5-1.5zm-3 5 .5 1.5q-4.6 6.9-4.5 18.5l-.5-7.5zm-21 13 2.5.5-3 .5-3.5 8-13.5-.5 14-.5q-.6-5.3 3.5-8Zm4 0q8.6-1.1 10.5 4.5l1 7.5 4 1.5-1.5.5-3.5-1q1.5-8.2-3.5-11l-7-1zm52 4 12 1 6.5 4.5q1.1 6.1-1.5 8.5l-.5-1.5q2.5-1.5 1-7l-5.5-3.5-12-1zm-38 4 5.5 3.5-2.5 3.5.5-1.5q1.1-3.3-1.5-2.5zm34 0 .5 1.5-2 1zm-78 1 7.5.5-7.5.5zm-5 1 3.5.5-3.5.5zm-4 1 2.5.5-2.5.5zm-8 3 2.5.5q-18.2 5.8-28 20l-2.5 4.5.5-1.5 1-3L26.5 102zm115 5 .5 3.5h-1zm2 4q8.4.6 11.5 6.5l4 7-2-1-5.5-8.5-8-3zm16 15 2 3 12 5 2.5 2.5 4 7h-1l-5.5-8.5-12-5-2.5-2.5zm-163 4 .5 1.5-2.5 9.5-.5-4.5zm-3 12 .5 8.5H6zm187 3 .5 2.5h-1zm-1 4 .5 2.5h-1zm-186 3 .5 13.5H6zm188 3 2.5 7.5h-1zm-187 12 4.5 8.5-2-1zm187 0-.5 1.5-1 2-.5 12.5-.5-12.5zm-182 10 7.5 9.5-4-3zm179 7 .5 1.5-3.5 4.5 1.5-2.5zm-170 4 1.5 2.5-1.5 2.5-.5-1.5 1-2zm165 2 .5 16.5h-1zm-166 4 .5 3.5-1.5 4.5-.5-3.5zm-2 9 .5 3.5h-1z" opacity=".094"/><path stroke="#000" d="M0 0h200v200h-13v-17l4-2.5q3.7-5.8 2-17 3.5-3.5 4-10l-4-8v-4l1-3q-2.1-7.4-7.5-11.5l-13.5-6.5q-2.4-8.6-8.5-13.5-3-3.9-9.5-3-1-5.2 2-7.5v-6l-6.5-4.5-12-1-1.5.5 2-11 2.5-2.5 6.5-4.5q1-4.5-1.5-5.5l-11-5h-21l-4 1-3.5 3.5-3 4-4 11-1 11 3.5 4.5q3-.8 1.5 3l-6-2q1.3-8.4-4.5-11-3.5-2.5-11-1-4.1 2.7-3.5 8l-22.5 1-17 5q-16.8 6.7-26.5 20.5l-5 10-2 10v23q5.6 14.9 16 25l-2 4-2 12.5H.5l-.5-.5z" opacity="0"/><path fill="#6ebc57" stroke="#6ebc57" d="M109.5 75h15l5.5 2.5q1.3 9.3-4.5 11.5l-16-1-4.5-3.5 2-8.5z"/><path fill="#aebbbe" stroke="#aebbbe" d="M62.5 96h17l21.5 5 7 8.5 1 3.5-15.5 9-14-9q-6.7-2.3-17-1l-10 2-13 7-12.5-9.5 2.5-3.5 13-7zm-41 20h2L37 126.5q-7 6-6 20 2.6 11.4 9.5 18.5l7 5 7 2h5l1.5 1.5-1 1-1 14.5h-7.5l-10-4h-4q-9.4-4.1-15.5-11.5l-9-15q-2.5-7.5-1-19l3-14zm90 2 3.5 1.5 5 17v11l-3 12-6.5 12.5h-3q-7.1 8.9-19 13L65 190l1-5.5v-9l1-2.5h6.5l11-3L99 157.5q3-4 3-11l-1-1v-9l-4-9zm20 2h8l26 6q11.6 2.9 19.5 9.5l1 4-3.5 1.5-2.5-1-2.5-6-17-6h-5l-3 1q-.5-3.5-5-3l-4 3h-3l-5-6q-4.4 1.5-3.5-1.5zm19 22q4.5-1 5.5 1.5l-6.5 7.5q-2.5-1-1.5-5.5zm33.5 6 4 1.5q.5 5-3.5 5.5-3.4.9-1.5-4.5z"/><path fill="#222323" stroke="#222323" d="m116.5 63 3.5.5-3.5.5zm15 0 2.5.5-2.5.5zm-21 5 4.5 1.5-5 .5zm10 1 3.5.5-3.5.5zm-8 5 10.5.5-10.5.5zm-23 13 1 2zm2 3 .5 1.5-2 1zm55 2 2.5.5-2.5.5zm-35 2-1 2zm10 0 4.5.5-4.5.5zm-56 1 6.5.5-6.5.5zm12 0 2.5.5-2.5.5zm32 2 1 2q-2.8.7-1-2Zm13 1 2.5.5-2.5.5zm20 3 2.5.5-2.5.5zm-24.5 2 4 .5-3 1 .5 1.5zm-12.5 2 2 3zm8 2 3.5 5 5 3.5-4-1 .5-1.5q-2-2.8-6.5-2l-1.5 3-1.5-.5 2-.5 1.5-3 2.5-.5-2-.5zm9 1 2 3zm-14 1 1 2zm51 2 3 4zm-92 1 3.5.5-3.5.5zm-39 1 2 3zm84 3-1 2zm38 0 2.5.5-2.5.5zm-28 1 1 2zm-59 1 15 1q7.8 3.3 12.5 9.5l-2.5.5q-6.6-5-20-3-12 3-18.5 11.5-4.7 7.3-4 20l1 3.5-4-2.5q-6.1-5.9-6-18 2.6-11.9 11.5-17.5l6-3zm101 0 1 2-2.5-.5zm-135 2 1 2zm61 0 1 2zm34 8 .5 2.5h-1z" opacity=".996"/><path fill="#222323" stroke="#222323" d="m70.5 131 7.5.5-7.5.5zm55 2 .5 2.5h-1zm4 0 .5 3.5h-1zm-69 2-5.5 6.5-.5 1.5-.5-1.5zm29 0 1 2zm97 1 .5 2.5h-1zm-66 1 .5 9.5h-1zm-28 1 1 2zm43 0 .5 11.5h-1zm51 2 .5 1.5-2.5 1.5v-1q2.5.7 2-2Zm-91 3 .5 6.5h-1zm85 1-1 2zm-55 4 .5 2.5h-1zm10 3 .5 3.5h-1zm9 3 2 3zm-15 1 .5 3.5h-1zm-37 1-1 2zm97 1-1 2zm-101 2-2 3zm8 0-3 4zm-12 3-1 2zm-28 1 3.5 2.5-1.5.5zm7 3 4.5.5-4.5.5zm10 0 2.5.5-2.5.5zm46 2-2 3zm18 0 3.5.5-3.5.5zm-119 1 1 2zm126 0 3.5.5-3.5.5zm-31 1 2.5 1.5-3 .5zm11 0-8 9zm26 0 2.5.5-2.5.5zm36 0 .5 3.5h-1zm-126 1 1 2zm95 0 2.5.5-2.5.5zm5 1 2.5.5-2.5.5zm-31 1-1 2zm2 0 2.5.5-2.5.5zm34 0 2.5.5-2.5.5zm-53 1 .5 1.5-3.5 4.5 1.5-2.5zm26 0 3.5.5-3.5.5zm-33 1-1 2zm40 0 2.5.5-2.5.5zm40 0 .5 1.5-2 1zm-35 1 2.5.5-2.5.5zm-24 1-5 6zm29 0 2.5.5-2.5.5zm5 1 2.5.5-2.5.5zm-46 1-1 2zm52 0 2.5.5-2.5.5zm-106 1 .5 2.5h-1zm47 0-2 3zm71 2 1 2zm-75 1v3q-2.2.8-1.5-1.5zm14 1-1 2zm-17 1 .5 2-3.5 1 1-2zm-46 11 2.5.5-2.5.5zm31 0 2.5.5-2.5.5zm-24 1 4.5.5-4.5.5zm15 0 4.5.5-4.5.5z" opacity=".996"/><path fill="#080808" stroke="#080808" d="m113.5 63 2.5.5-2.5.5zm27 2-1 2zm-4 3-2 3zm-21 1 4.5.5-4.5.5zm-6 5 2.5.5-2.5.5zm14 0 2.5.5-2.5.5zm8 3 .5 4.5h-1zm-27 7 2.5 3.5-3-2zm-18 2 1.5.5-2.5 1.5zm4 1 1.5 2.5h-1zm39 0-1 2zm-45 2 1.5 2.5-2-1zm33 0 8.5.5-8.5.5zm25 2 2.5.5-2.5.5zm-31 2 3.5.5-4.5 1.5zm-50 2 3.5.5-3.5.5zm32 3 2.5.5-2.5.5zm18 0 10.5.5-10.5.5zm-10 2 1 2zm38 1 2.5.5-2.5.5zm9 0 .5 2-4-.5zm-45 2 1 2zm19 0 2.5.5-2.5.5zm6 1 2.5.5-2.5.5zm7 1 2.5.5-2.5.5zm-15 1 1 2zm-6 1 7 8zm-88 2-.5 1.5-.5 1.5-.5-1.5zm86 0v3l-2.5-1.5zm3 2 2 3zm9 0 1 2zm37 1 1 2zm-50 1 3.5 4.5-4-3zm-90 1 1.5.5-2.5 1.5zm35 0 2.5.5-2.5.5zm78 0 3.5.5-3.5.5zm9 1 2.5.5-2.5.5zm-118 1 3 4zm6 0 1 2zm91 0 1 2zm-56 1 6.5.5-6.5.5zm98 0 1 2zm-104 1 2.5.5-2.5.5zm70 0 2.5.5-3.5 1.5zm9 1 2.5.5-2.5.5zm-58 1 1 2zm-39 1-1 2zm54 0-1 2zm-49 2-6 7zm40 1 3 4zm-9 2 3.5.5-3.5.5zm11 3 3.5 1.5-1.5.5zm-31 1-1 2zm-18 1-.5 1.5-1.5 3.5-.5-1.5zm38 0 2.5.5-2.5.5zm-23 1-4.5 5.5-1.5 2.5.5-1.5zm79 0 .5 2.5h-1zm-44 3 3 4zm-32 1-4 5zm67 0 .5 11.5h-1zm5 1 .5 17.5h-1zm-119 2 .5 8.5h-1zm149 0 2 3zm-60 1 .5 5.5h-1zm50 0 1.5.5-2.5 1.5zm32 3-1 2zm-145 3 .5 2.5h-1zm105 0 .5 2.5h-1zm-22 1 .5 2.5h-1zm-74 2 .5 8.5h-1zm5 0 .5 7.5h-1zm73 2 .5 2.5h-1zm53 0 .5 5.5h-1zm-166 1 .5 2.5h-1zm150 0-3 4zm-122 1 1 2zm55 0 .5 1.5-2 1zm96 0 .5 2.5h-1zm-149 3 1 2zm57 0-1 2zm36 1 .5 2.5h-1zm15 0 4.5.5-4.5.5zm-59 1-2 3zm-52 2 1 2zm9 0 1.5 2.5-1.5.5q-3-1.5 0-3Zm6 1 3 4zm32 1-1 2zm6 1-1 2zm-49 1 1 2zm85 1 .5 1.5-2 1zm-68 1 3.5.5-3.5.5zm28 0-1 2zm27 0-1 2zm-47 1 6.5.5-6.5.5zm52 0-3 4-3.5-1.5 1.5.5q4.5.5 5-3Zm13 0 4.5 1.5-3.5.5zm9 2 2.5.5-2.5.5zm-121 3 1 2zm109 0 1.5.5-2.5 1.5zm28 0 2.5.5-2.5.5zm-96 1 .5 2.5h-1zm50 0 .5 2.5h-1zm23 0 3.5.5-3.5.5zm8 1 2.5.5-2.5.5zm26 0 2.5.5-2.5.5zm-103 1 .5 2.5h-1zm62 0-3 4zm21 0 2.5.5-2.5.5zm-124 2 2 3zm79 0-1 2zm7 0-2 3zm53 1 2.5.5-2.5.5zm-48 1-1 2zm-10 2-1 2zm16 0-1 2zm-61 2 .5 3.5h-1zm42 0-1 2zm-75 2-.5 1.5-.5 1.5-.5-1.5zm37 0 .5 5 3 .5-2.5.5q-2.9-1.4-1-6Zm116 0 .5 14.5h-1zm-83 1 2.5 1.5-1.5.5-1.5-.5q.8 2.6-2.5 1.5l-3 1v-1zm-41 4 3.5.5-3.5.5zm1 6 3.5.5-3.5.5zm24 0 3.5.5-3.5.5zm-15 1 9.5.5-9.5.5z" opacity=".996"/><path stroke="#000" d="m114.5 58 5.5.5-5.5.5zm18 0 3.5.5-3.5.5zm-22 1 1.5.5-4 3-1.5 2.5.5-1.5zm33 2 1 2zm-38 5-.5 1.5-.5 1.5-.5-1.5zm41 0 .5 1.5-4.5 3.5 1-2 2.5-1.5zm-6 5-2 3zm-47 12 2 3zm44 3 7.5.5-7.5.5-1.5 1.5-.5 1.5-1.5-.5 1 3-2 1-1-2 2.5-4.5q1.5 2.5 3-1Zm-41 1 .5 6.5h-1zm4 0 2.5 3.5-3-2zm48 0 2.5.5-2.5.5zm4 1 3.5 2.5-.5 1.5-2-3zm-73 1 .5 2-16-.5 14.5-.5zm-24 2 5.5.5-5.5.5zm-5 1 2.5.5-2.5.5zm56 0-.5 1.5-1.5 2.5.5-1.5zm-60 1 2.5.5-6.5 2.5v-1zm109 1 .5 2.5h-1zm-116 2 1.5.5-3.5 1.5v-1zm-10 5-1 2zm124 0 .5 3 2 .5-1.5.5q-2.5-1-1-4Zm-127 2-12 13zm134 3 2.5 1.5-1.5-.5zm4 2 3.5 4.5-2-1zm4 6 1 2zm2 3 1.5 2.5h-1zm-158 2-.5 1.5-1.5 3.5-.5-1.5zm160 2 3.5 2.5-1.5.5-2.5-1zm7 4 8.5 4.5 3 4-4-3q.8-2.2-1.5-1.5l-6-3zm-171 4 .5 2.5H8zm-1 5 .5 4.5H7zm185 3 .5 4.5h-1zm0 8 1.5 3.5h-1zm3 8 .5 3.5h-1zm-188 3 .5 3.5H7zm187 2 .5 1.5-2 1zm-183 9 9.5 13.5h-1zm180 3 .5 6.5h-1zm-2 10-2 3-1.5-.5zm-166 3-1 2zm162 1 .5 15.5h-1zm-164 2 .5 3.5h-1zm-1 5 .5 2.5h-1zm-1 4 .5 3.5h-1z" opacity=".839"/><path stroke="#000" d="M120 58h11.5l.5 2-7.5-1-4.5 1zm-7.5 1 3.5.5-3.5.5zm-5 5-1 2zm38 3-1 2zm-9.5 5 3 .5-1.5 4.5q-2.5-1.2-1.5-5Zm-.5 9 .5 2.5h-1zM88 82q5.6.1 8 4.5l-.5 1.5-3-4q-5.8 1.7-4.5-2Zm12.5 0 .5 4.5h-1zm37 5-.5 1.5-1.5 3.5-.5-1.5zm7 0 3.5.5-3.5.5zm-43 1q3.8-1.2 2.5 2.5zm30.5 0 2 .5-1.5 2.5zm17.5 0 2.5.5-2.5.5zm4 1 1 2zm-92 2 2.5.5-2.5.5zm-8 1 4.5.5-4.5.5zm81 1 .5 2-2-.5zm-88 1q2.6-.7 1.5 2l-7.5 2 1-2zm56 2 2.5.5-2.5.5zm-66 2-1 2-1.5-.5zm115.5 2 2 .5-1.5 3.5zm-121.5 1-1 2zm-3 2 .5 5h-4v-1.5zm128 2 6.5 2.5-6 .5zm8 3 2 3zm3 4 1 2zm-150 2-2 3zm-5 8 .5 1.5-1.5 2.5-.5-1.5zm-2 5 .5 2.5H9zm178 4 1 2zm-180 8 .5 8.5H7zm184 2 .5 3.5h-1zm-184 11 .5 3.5H7zm184 11 .5 6.5h-1zm-176 9 1 2zm6 8q5.3-1.2 6.5 1.5 1.3 4.2-3.5 2.5l-1.5-3zm-1 14 .5 2.5h-1z" opacity=".996"/><path fill="#3f3e3a" stroke="#3f3e3a" d="m120.5 63 10.5.5-10.5.5zm-7 1 2.5.5-3.5 1.5zm19 0 6.5 1q1.1 2.7-1.5 2l-4 4h-3l-6.5-1.5 3.5-1.5 5 2 4.5-3q1.3-3.7-4.5-2zm-3 12q2.8 1.3 1.5 6.5h-1zm0 8 .5 1.5-1 2.5-2.5 1 2.5-3.5zm-24 1 1 2zm-19 2q4-.5 4.5 2.5 1.3 3.8-2.5 2.5-2.7-1.2-.5-2.5.8-2.2-1.5-1.5zm26 1 2.5.5-2.5.5zm30 4 7.5 1-2 9-10-1 .5-2 4.5 1 2-7q-3.3.8-2.5-1Zm-30 2 13 1 2-1 2.5 5-17-1 .5-2 1 1q9-1 13.5 1 1.5-3.8-1.5-3l-5 1-3-1h-6z"/><path fill="#3f3e3a" stroke="#3f3e3a" d="m139.5 94 .5 2.5h-1zm-67 1 4.5.5-4.5.5zm38 1 1 2zm9 8 4 5zm5 0 2.5.5-2.5.5zm6 1 2.5.5-2.5.5zm7 1 2.5.5-2.5.5zm-109 2-1.5 2.5 1 2-2-1zm97 3 2 2 7.5.5-7.5.5zm32 0 5.5 4.5 1 3.5-16.5-4-7.5-.5zm-86 1 2.5.5-2.5.5zm47 1q6.3 5.8 9.5 14.5l2 10v17q-2.2 1.3-1 6l-4 9-9.5 9.5-12 6 1-2 7.5-5.5 1-3-3-2 2.5-1.5 3 1 4.5-3.5 4-9 2-9v-17q-2.5-12.5-7.5-20.5Zm-98 3-1 2zm4 0 1 2zm8 0 1 2zm36 16h12l11.5 5 3 5.5v8q-1.2 5.8-5.5 8.5l-9 6-12 2q-1.7-2.7-8-1l-6.5-4.5q-3-4-2-12 2-10 9.5-14.5zm116 1 1 2zm-49 2 .5 2.5h-1zm17 0 2.5.5-2.5.5zm-7 3-1 2zm15 0 3 4zm-10 3-1 2zm32 1 1.5.5-2.5 1.5zm-25 1q2.3.8 1.5 4.5h-1zm7 0 .5 5.5h-1zm-7 6-1 2zm5 3-3 4zm-27 3 .5 2.5h-1zm9 0 1 2zm13 1-1 2-1.5-.5zm26 1 1 2zm-5 3 3 4zm-140 1 1 2zm96 0 .5 2h10.5l1 1 18 2 21.5 7-2.5 5-11-4-25-5-14.5-1.5zm-93 3 1 2zm73 1-1 2zm72 0 .5 4.5h-1zm-129 6 2.5.5-2.5.5z"/><path fill="#3f3e3a" stroke="#3f3e3a" d="m130.5 173 40 7 7 2 2.5 2.5v15l-.5.5h-144L29 187.5l3.5 2.5 22 7 26 1 24-6 17-9 5.5-5.5zm-107 2 4 5zm79 2-1 2z"/><path fill="#3f3e3a" stroke="#3f3e3a" d="m65.5 180 .5 2.5h-1z"/><path stroke="#000" d="m116.5 59 7 1 4-1 4 1 4-1 8 3 2.5 2.5q.5 5-3.5 5.5-2 2.8-6.5 2l1 6.5-2 3-1 6.5q-3.7-1.3-2 4.5l1 2.5q3 1.3 2-2.5l3.5-5.5 14 2 2.5 2.5-1 4v2q1 3.8-2 2.5v3.5l4 3q-.5 3 6.5 1.5l6.5 7.5 2 6 2.5 2.5q8.6 1.4 13.5 6.5l1.5 2.5q2.3-.7 1.5 1.5l2 6-1 4 4 8v3l-4 8v10l-1 1v2l-1 4.5-4 2.5v16l-4 .5v-14.5l-1-3.5-9.5-3-41-7-7 9q-13 9.5-31 14l-11 2h-19l-15-3-4-2h-4l-11-7-1.5 1.5-2 13.5q-5.2 2.1-4-2.5l3-13.5h5v-2.5l-.5-1.5 9 6h4q8.1 4.6 19.5 5l2-20q-14.7 0-22-8.5-8-7-8-22l6-15.5-3.5-1-13-10q-5.9 5.6-8.5 14.5 1.2 7.7-2 11v8l1 4-1 3q4.5 15.5 15 25l-4.5.5L9 161.5l-2-13 1-1v-11l1-1v-2l3-13 6.5-8.5q2.3.8 1.5-1.5l3.5-3.5 1 1H28v-5h1.5l10-6h2l6.5-1q-1.1-2.7 1.5-2l15-3h15l1.5-1.5q-.7-6.2 3.5-7.5 5-1 4 2h4l3.5 4.5q-1.2 5.3 1.5 6.5l7.5 2 2-4.5-3-1.5v-3l-3-.5v-7q2.8-11.5 8-19.5zm6.5 3-1 1h-8q-4 2-4 7h17l4 2h3l7-6-5-3h-8l-1-1-2 1zm-13 12-2 1-2 2-2 9 6 3q6-2 8 1l11-1q4-3 3-11l-2-3-4-1zM87 86l-3 5 5 2q5 2 3-4zm54 5-4 10 12 2 2-9-1-2zm-29 2-3 6h18l4 1-2-7-2 1zm-50 2-24 7-11 7-2 3 16 11 11-7 13-3q10-1 16 2l12 8h3l13-9 3 1v-2l3-2q8 8 10 23 2 24-8 36l-4-1 6-10 2-9q2-24-8-35l-1 2-16 9 3 8 1 12 1 1q0 8-4 12-8 10-23 13-5 1-6-1l-3 5v9l-1 1q-1 4 2 5 28-2 44-18 2-1 1 4-8 8-19 12v1q13-3 23-9l9-8 4-6 3-12v-17l-2-10q-5-13-14-21-3-1-2 2l-3 1-7-8-7-4-14-3zm56 8 6 9 3 2 16 1 23 6h1l-4-7-4-4-10-3-17-2-7-2zm-51 14-10 2-9 4q-8 5-11 16-1 8 1 13l10 11h1l-2-3q-2-15 4-22 7-9 20-12l13 1 8 4h1l-2-3-11-9-7-2zm64 1-2 2 4 7 2 9v21l-3 11 2 1 14 1 10 3 15 2 10 4 3-1q2-4 1-12l-7-4-2-3q-1-10 2-14l4-2h3q1-7-1-10l-18-8-26-6zm-62 13-10 5-5 5-3 9q-1 8 2 12l7 5q6-2 8 1 14 0 21-7 6-4 8-12l-3-10q-7-10-25-8Zm116 16-3 3q-1 6 1 9l5 1 3-4-1-5q0-4-5-4Z"/><path stroke="#000" d="M153.5 136q6.5 1.5 9.5 6.5l1 5q-1.4 6.1-6.5 8.5l-9 1-4.5-3.5q-2.3-3.2-1-10l3.5-4.5zm-2.5 4-4 5q-1 7 3 8h5l3-2 2-4-1-4z"/><path fill="#6c6c6c" stroke="#6c6c6c" d="M116.5 64h15l5.5 1q1.1 2.7-1.5 2-.5 3.5-5 3l-5-2-1 1h-13l.5-1.5 1.5-2.5zM86 88q2.7-1.1 2 1.5l-2 1zm55.5 4 3.5 1-2 7q-5.2 2.1-4-2.5zM111 95h7.5l1 1h2l6.5-1q1.7 4.1-2.5 3l-1-1h-10l-1-1-1 2-2.5-.5zm-30.5 1 2.5.5-2.5.5zm14 3 2.5.5-2.5.5zm7 2 6.5 7.5-7-6zm19 3 27 4 9.5 3.5q-7.2-.2-11.5 2.5h-10q-1.7-2.8-8-1l-3.5-3.5zm-89 2-1 2zm77 4 1.5 2.5h-1zm-46 2 2.5.5-2.5.5zm-5 1 2.5.5-2.5.5zm50 0-1 2zm-77 1 1 2zm74 1-1 2zm-56 1-1 2zm37 0 1 2zm-51 1 1 2zm-8 1 2 3zm73 0-1 2zm-62 1 1 2zm6 0-2 3-1.5-.5zm47 0 2 3zm40 0 4.5.5-4.5.5zm10 1 2.5.5-2.5.5zm5 1 2.5.5-2.5.5zm5 1 2.5.5-2.5.5zm-17.5 1q3.8-.7 5 2.5l2.5 3.5h3l6-3q.5 3.5 5 3 1.3-2.2 6-1l13 4 5.5 3.5 1 4.5 4.5 1 1.5-.5q.9 3-3.5 1.5-7.8 3.2-5.5 16.5l4.5 5.5 4.5 1v8h-2.5l-19-7-18-2-1-1H135l1-5.5v-22zm20 12-7 3-4 6q-1 8 2 12l4 2q8 2 12-2l5-7-1-7q-4-6-11-7Zm-117.5-6-1 2zm84 4 .5 2.5h-1zm64 0 2.5 3.5h-1zm-152 5 .5 8.5h-1z"/><path fill="#6c6c6c" stroke="#6c6c6c" d="m151.5 141 2.5.5-2.5.5zm4 1q3.5 1 2.5 6.5-1.6 4.4-8.5 3.5l-1-2 1 1 6.5-6.5zm-54 4 .5 3.5h-1zm18 2 .5 2.5h-1zm69 2 1.5 5.5-2.5 3.5q-4 .5-4.5-2.5l-1-4h1q-1.1 3.3 1.5 2.5zm-70 3 .5 2.5h-1zm-3 9 .5 1.5-3 2zm-76 1 1 2zm52 1-1 2zm-48 2 1 2zm3 2 2.5 1.5-1.5.5zm66 2-1 2zm-58 1 2.5.5-2.5.5zm13 1 6.5.5-6.5.5zm40 0-4 5zm-47 2 .5 3.5h-1zm-32 5 1 2zm70 0-1 2zm-39 4 .5 5.5q-1 2.5-5.5 1.5v-1H59zm-21 2 3.5.5-3.5.5zM27 187l4 2.5 4 10-10 .5zm47.5 1 2.5.5-2.5.5z"/></svg>