<svg width="200" height="200" version="1.1" xmlns="http://www.w3.org/2000/svg" desc="Created with imagetracer.js version 1.2.6" ><path fill="rgb(0,0,0)" stroke="rgb(0,0,0)" stroke-width="1" opacity="0.09411764705882353" d="M 114.5 57 L 135.5 57 Q 143.3 58.7 148 63.5 Q 149 70 144.5 71 L 139 74.5 L 137 86.5 L 135.5 88 L 135 86.5 L 138 78.5 L 138 74.5 L 141.5 71 L 147 67.5 Q 148.9 62.1 145.5 63 L 135.5 58 L 114.5 58 L 110.5 59 L 107.5 62 L 110.5 58 L 114.5 57 Z " /><path fill="rgb(0,0,0)" stroke="rgb(0,0,0)" stroke-width="1" opacity="0.09411764705882353" d="M 106.5 63 L 106 64.5 L 104.5 67 L 104 65.5 L 106.5 63 Z " /><path fill="rgb(0,0,0)" stroke="rgb(0,0,0)" stroke-width="1" opacity="0.09411764705882353" d="M 103.5 68 L 104 69.5 Q 99.4 76.4 99.5 88 L 99 80.5 L 103.5 68 Z " /><path fill="rgb(0,0,0)" stroke="rgb(0,0,0)" stroke-width="1" opacity="0.09411764705882353" d="M 82.5 81 L 85 81.5 L 82 82 L 78.5 90 L 65 89.5 L 79 89 Q 78.4 83.7 82.5 81 Z " /><path fill="rgb(0,0,0)" stroke="rgb(0,0,0)" stroke-width="1" opacity="0.09411764705882353" d="M 86.5 81 Q 95.1 79.9 97 85.5 L 98 93 L 102 94.5 L 100.5 95 L 97 94 Q 98.5 85.8 93.5 83 L 86.5 82 L 86.5 81 Z " /><path fill="rgb(0,0,0)" stroke="rgb(0,0,0)" stroke-width="1" opacity="0.09411764705882353" d="M 138.5 85 L 150.5 86 L 157 90.5 Q 158.1 96.6 155.5 99 L 155 97.5 Q 157.5 96 156 90.5 L 150.5 87 L 138.5 86 L 138.5 85 Z " /><path fill="rgb(0,0,0)" stroke="rgb(0,0,0)" stroke-width="1" opacity="0.09411764705882353" d="M 100.5 89 L 106 92.5 L 103.5 96 L 104 94.5 Q 105.1 91.2 102.5 92 L 100.5 89 Z " /><path fill="rgb(0,0,0)" stroke="rgb(0,0,0)" stroke-width="1" opacity="0.09411764705882353" d="M 134.5 89 L 135 90.5 L 133 91.5 L 134.5 89 Z " /><path fill="rgb(0,0,0)" stroke="rgb(0,0,0)" stroke-width="1" opacity="0.09411764705882353" d="M 56.5 90 L 64 90.5 L 56.5 91 L 56.5 90 Z " /><path fill="rgb(0,0,0)" stroke="rgb(0,0,0)" stroke-width="1" opacity="0.09411764705882353" d="M 51.5 91 L 55 91.5 L 51.5 92 L 51.5 91 Z " /><path fill="rgb(0,0,0)" stroke="rgb(0,0,0)" stroke-width="1" opacity="0.09411764705882353" d="M 47.5 92 L 50 92.5 L 47.5 93 L 47.5 92 Z " /><path fill="rgb(0,0,0)" stroke="rgb(0,0,0)" stroke-width="1" opacity="0.09411764705882353" d="M 39.5 95 L 42 95.5 Q 23.8 101.3 14 115.5 L 11.5 120 L 12 118.5 L 13 115.5 L 26.5 102 L 39.5 95 Z " /><path fill="rgb(0,0,0)" stroke="rgb(0,0,0)" stroke-width="1" opacity="0.09411764705882353" d="M 154.5 100 L 155 103.5 L 154 103.5 L 154.5 100 Z " /><path fill="rgb(0,0,0)" stroke="rgb(0,0,0)" stroke-width="1" opacity="0.09411764705882353" d="M 156.5 104 Q 164.9 104.6 168 110.5 L 172 117.5 L 170 116.5 L 164.5 108 L 156.5 105 L 156.5 104 Z " /><path fill="rgb(0,0,0)" stroke="rgb(0,0,0)" stroke-width="1" opacity="0.09411764705882353" d="M 172.5 119 L 174.5 122 L 186.5 127 L 189 129.5 L 193 136.5 L 192 136.5 L 186.5 128 L 174.5 123 L 172 120.5 L 172.5 119 Z " /><path fill="rgb(0,0,0)" stroke="rgb(0,0,0)" stroke-width="1" opacity="0.09411764705882353" d="M 9.5 123 L 10 124.5 L 7.5 134 L 7 129.5 L 9.5 123 Z " /><path fill="rgb(0,0,0)" stroke="rgb(0,0,0)" stroke-width="1" opacity="0.09411764705882353" d="M 6.5 135 L 7 143.5 L 6 143.5 L 6.5 135 Z " /><path fill="rgb(0,0,0)" stroke="rgb(0,0,0)" stroke-width="1" opacity="0.09411764705882353" d="M 193.5 138 L 194 140.5 L 193 140.5 L 193.5 138 Z " /><path fill="rgb(0,0,0)" stroke="rgb(0,0,0)" stroke-width="1" opacity="0.09411764705882353" d="M 192.5 142 L 193 144.5 L 192 144.5 L 192.5 142 Z " /><path fill="rgb(0,0,0)" stroke="rgb(0,0,0)" stroke-width="1" opacity="0.09411764705882353" d="M 6.5 145 L 7 158.5 L 6 158.5 L 6.5 145 Z " /><path fill="rgb(0,0,0)" stroke="rgb(0,0,0)" stroke-width="1" opacity="0.09411764705882353" d="M 194.5 148 L 197 155.5 L 196 155.5 L 194.5 148 Z " /><path fill="rgb(0,0,0)" stroke="rgb(0,0,0)" stroke-width="1" opacity="0.09411764705882353" d="M 7.5 160 L 12 168.5 L 10 167.5 L 7.5 160 Z " /><path fill="rgb(0,0,0)" stroke="rgb(0,0,0)" stroke-width="1" opacity="0.09411764705882353" d="M 194.5 160 L 194 161.5 L 193 163.5 L 192.5 176 L 192 163.5 L 194.5 160 Z " /><path fill="rgb(0,0,0)" stroke="rgb(0,0,0)" stroke-width="1" opacity="0.09411764705882353" d="M 12.5 170 L 20 179.5 L 16 176.5 L 12.5 170 Z " /><path fill="rgb(0,0,0)" stroke="rgb(0,0,0)" stroke-width="1" opacity="0.09411764705882353" d="M 191.5 177 L 192 178.5 L 188.5 183 L 190 180.5 L 191.5 177 Z " /><path fill="rgb(0,0,0)" stroke="rgb(0,0,0)" stroke-width="1" opacity="0.09411764705882353" d="M 21.5 181 L 23 183.5 L 21.5 186 L 21 184.5 L 22 182.5 L 21.5 181 Z " /><path fill="rgb(0,0,0)" stroke="rgb(0,0,0)" stroke-width="1" opacity="0.09411764705882353" d="M 186.5 183 L 187 199.5 L 186 199.5 L 186.5 183 Z " /><path fill="rgb(0,0,0)" stroke="rgb(0,0,0)" stroke-width="1" opacity="0.09411764705882353" d="M 20.5 187 L 21 190.5 L 19.5 195 L 19 191.5 L 20.5 187 Z " /><path fill="rgb(0,0,0)" stroke="rgb(0,0,0)" stroke-width="1" opacity="0.09411764705882353" d="M 18.5 196 L 19 199.5 L 18 199.5 L 18.5 196 Z " /><path fill="rgb(0,0,0)" stroke="rgb(0,0,0)" stroke-width="1" opacity="0" d="M 0 0 L 200 0 L 200 200 L 187 200 L 187 183 L 191 180.5 Q 194.7 174.7 193 163.5 Q 196.5 160 197 153.5 L 193 145.5 L 193 141.5 L 194 138.5 Q 191.9 131.1 186.5 127 L 173 120.5 Q 170.6 111.9 164.5 107 Q 161.5 103.1 155 104 Q 154 98.8 157 96.5 L 157 90.5 L 150.5 86 L 138.5 85 L 137 85.5 L 139 74.5 L 141.5 72 L 148 67.5 Q 149 63 146.5 62 L 135.5 57 L 114.5 57 L 110.5 58 L 107 61.5 L 104 65.5 L 100 76.5 L 99 87.5 L 102.5 92 Q 105.5 91.2 104 95 L 98 93 Q 99.3 84.6 93.5 82 Q 90 79.5 82.5 81 Q 78.4 83.7 79 89 L 56.5 90 L 39.5 95 Q 22.7 101.7 13 115.5 L 8 125.5 L 6 135.5 L 6 158.5 Q 11.6 173.4 22 183.5 L 20 187.5 L 18 200 L 0.5 200 L 0 199.5 L 0 0 Z " /><path fill="rgb(110,188,87)" stroke="rgb(110,188,87)" stroke-width="1" opacity="1" d="M 109.5 75 L 124.5 75 L 130 77.5 Q 131.3 86.8 125.5 89 L 109.5 88 L 105 84.5 L 107 76 L 109.5 75 Z " /><path fill="rgb(174,187,190)" stroke="rgb(174,187,190)" stroke-width="1" opacity="1" d="M 62.5 96 L 79.5 96 L 101 101 L 108 109.5 L 109 113 L 93.5 122 L 79.5 113 Q 72.8 110.7 62.5 112 L 52.5 114 L 39.5 121 L 27 111.5 L 29.5 108 L 42.5 101 L 62.5 96 Z " /><path fill="rgb(174,187,190)" stroke="rgb(174,187,190)" stroke-width="1" opacity="1" d="M 21.5 116 L 23.5 116 L 37 126.5 Q 30 132.5 31 146.5 Q 33.6 157.9 40.5 165 L 47.5 170 L 54.5 172 L 59.5 172 L 61 173.5 L 60 174.5 L 59 189 L 51.5 189 L 41.5 185 L 37.5 185 Q 28.1 180.9 22 173.5 L 13 158.5 Q 10.5 151 12 139.5 L 15 125.5 L 21.5 116 Z " /><path fill="rgb(174,187,190)" stroke="rgb(174,187,190)" stroke-width="1" opacity="1" d="M 111.5 118 L 115 119.5 L 120 136.5 L 120 147.5 L 117 159.5 L 110.5 172 L 107.5 172 Q 100.4 180.9 88.5 185 L 65 190 L 66 184.5 L 66 175.5 L 67 173 L 73.5 173 L 84.5 170 L 99 157.5 Q 102 153.5 102 146.5 L 101 145.5 L 101 136.5 L 97 127.5 L 111.5 118 Z " /><path fill="rgb(174,187,190)" stroke="rgb(174,187,190)" stroke-width="1" opacity="1" d="M 131.5 120 L 139.5 120 L 165.5 126 Q 177.1 128.9 185 135.5 L 186 139.5 L 182.5 141 L 180 140 L 177.5 134 L 160.5 128 L 155.5 128 L 152.5 129 Q 152 125.5 147.5 126 L 143.5 129 L 140.5 129 L 135.5 123 Q 131.1 124.5 132 121.5 L 131.5 120 Z " /><path fill="rgb(174,187,190)" stroke="rgb(174,187,190)" stroke-width="1" opacity="1" d="M 150.5 142 Q 155 141 156 143.5 L 149.5 151 Q 147 150 148 145.5 L 150.5 142 Z " /><path fill="rgb(174,187,190)" stroke="rgb(174,187,190)" stroke-width="1" opacity="1" d="M 184 148 L 188 149.5 Q 188.5 154.5 184.5 155 Q 181.1 155.9 183 150.5 L 184 148 Z " /><path fill="rgb(34,35,35)" stroke="rgb(34,35,35)" stroke-width="1" opacity="0.996078431372549" d="M 116.5 63 L 120 63.5 L 116.5 64 L 116.5 63 Z " /><path fill="rgb(34,35,35)" stroke="rgb(34,35,35)" stroke-width="1" opacity="0.996078431372549" d="M 131.5 63 L 134 63.5 L 131.5 64 L 131.5 63 Z " /><path fill="rgb(34,35,35)" stroke="rgb(34,35,35)" stroke-width="1" opacity="0.996078431372549" d="M 110.5 68 L 115 69.5 L 110 70 L 110.5 68 Z " /><path fill="rgb(34,35,35)" stroke="rgb(34,35,35)" stroke-width="1" opacity="0.996078431372549" d="M 120.5 69 L 124 69.5 L 120.5 70 L 120.5 69 Z " /><path fill="rgb(34,35,35)" stroke="rgb(34,35,35)" stroke-width="1" opacity="0.996078431372549" d="M 112.5 74 L 123 74.5 L 112.5 75 L 112.5 74 Z " /><path fill="rgb(34,35,35)" stroke="rgb(34,35,35)" stroke-width="1" opacity="0.996078431372549" d="M 89.5 87 L 90.5 89 L 89.5 87 Z " /><path fill="rgb(34,35,35)" stroke="rgb(34,35,35)" stroke-width="1" opacity="0.996078431372549" d="M 91.5 90 L 92 91.5 L 90 92.5 L 91.5 90 Z " /><path fill="rgb(34,35,35)" stroke="rgb(34,35,35)" stroke-width="1" opacity="0.996078431372549" d="M 146.5 92 L 149 92.5 L 146.5 93 L 146.5 92 Z " /><path fill="rgb(34,35,35)" stroke="rgb(34,35,35)" stroke-width="1" opacity="0.996078431372549" d="M 111.5 94 L 110.5 96 L 111.5 94 Z " /><path fill="rgb(34,35,35)" stroke="rgb(34,35,35)" stroke-width="1" opacity="0.996078431372549" d="M 121.5 94 L 126 94.5 L 121.5 95 L 121.5 94 Z " /><path fill="rgb(34,35,35)" stroke="rgb(34,35,35)" stroke-width="1" opacity="0.996078431372549" d="M 65.5 95 L 72 95.5 L 65.5 96 L 65.5 95 Z " /><path fill="rgb(34,35,35)" stroke="rgb(34,35,35)" stroke-width="1" opacity="0.996078431372549" d="M 77.5 95 L 80 95.5 L 77.5 96 L 77.5 95 Z " /><path fill="rgb(34,35,35)" stroke="rgb(34,35,35)" stroke-width="1" opacity="0.996078431372549" d="M 109.5 97 L 110.5 99 Q 107.7 99.7 109.5 97 Z " /><path fill="rgb(34,35,35)" stroke="rgb(34,35,35)" stroke-width="1" opacity="0.996078431372549" d="M 122.5 98 L 125 98.5 L 122.5 99 L 122.5 98 Z " /><path fill="rgb(34,35,35)" stroke="rgb(34,35,35)" stroke-width="1" opacity="0.996078431372549" d="M 142.5 101 L 145 101.5 L 142.5 102 L 142.5 101 Z " /><path fill="rgb(34,35,35)" stroke="rgb(34,35,35)" stroke-width="1" opacity="0.996078431372549" d="M 118 103 L 122 103.5 L 119 104.5 L 119.5 106 L 118 103 Z " /><path fill="rgb(34,35,35)" stroke="rgb(34,35,35)" stroke-width="1" opacity="0.996078431372549" d="M 105.5 105 L 107.5 108 L 105.5 105 Z " /><path fill="rgb(34,35,35)" stroke="rgb(34,35,35)" stroke-width="1" opacity="0.996078431372549" d="M 113.5 107 L 117 112 L 122 115.5 L 118 114.5 L 118.5 113 Q 116.5 110.2 112 111 L 110.5 114 L 109 113.5 L 111 113 L 112.5 110 L 115 109.5 L 113 109 L 113.5 107 Z " /><path fill="rgb(34,35,35)" stroke="rgb(34,35,35)" stroke-width="1" opacity="0.996078431372549" d="M 122.5 108 L 124.5 111 L 122.5 108 Z " /><path fill="rgb(34,35,35)" stroke="rgb(34,35,35)" stroke-width="1" opacity="0.996078431372549" d="M 108.5 109 L 109.5 111 L 108.5 109 Z " /><path fill="rgb(34,35,35)" stroke="rgb(34,35,35)" stroke-width="1" opacity="0.996078431372549" d="M 159.5 111 L 162.5 115 L 159.5 111 Z " /><path fill="rgb(34,35,35)" stroke="rgb(34,35,35)" stroke-width="1" opacity="0.996078431372549" d="M 67.5 112 L 71 112.5 L 67.5 113 L 67.5 112 Z " /><path fill="rgb(34,35,35)" stroke="rgb(34,35,35)" stroke-width="1" opacity="0.996078431372549" d="M 28.5 113 L 30.5 116 L 28.5 113 Z " /><path fill="rgb(34,35,35)" stroke="rgb(34,35,35)" stroke-width="1" opacity="0.996078431372549" d="M 112.5 116 L 111.5 118 L 112.5 116 Z " /><path fill="rgb(34,35,35)" stroke="rgb(34,35,35)" stroke-width="1" opacity="0.996078431372549" d="M 150.5 116 L 153 116.5 L 150.5 117 L 150.5 116 Z " /><path fill="rgb(34,35,35)" stroke="rgb(34,35,35)" stroke-width="1" opacity="0.996078431372549" d="M 122.5 117 L 123.5 119 L 122.5 117 Z " /><path fill="rgb(34,35,35)" stroke="rgb(34,35,35)" stroke-width="1" opacity="0.996078431372549" d="M 63.5 118 L 78.5 119 Q 86.3 122.3 91 128.5 L 88.5 129 Q 81.9 124 68.5 126 Q 56.5 129 50 137.5 Q 45.3 144.8 46 157.5 L 47 161 L 43 158.5 Q 36.9 152.6 37 140.5 Q 39.6 128.6 48.5 123 L 54.5 120 L 63.5 118 Z " /><path fill="rgb(34,35,35)" stroke="rgb(34,35,35)" stroke-width="1" opacity="0.996078431372549" d="M 164.5 118 L 165.5 120 L 163 119.5 L 164.5 118 Z " /><path fill="rgb(34,35,35)" stroke="rgb(34,35,35)" stroke-width="1" opacity="0.996078431372549" d="M 29.5 120 L 30.5 122 L 29.5 120 Z " /><path fill="rgb(34,35,35)" stroke="rgb(34,35,35)" stroke-width="1" opacity="0.996078431372549" d="M 90.5 120 L 91.5 122 L 90.5 120 Z " /><path fill="rgb(34,35,35)" stroke="rgb(34,35,35)" stroke-width="1" opacity="0.996078431372549" d="M 124.5 128 L 125 130.5 L 124 130.5 L 124.5 128 Z " /><path fill="rgb(34,35,35)" stroke="rgb(34,35,35)" stroke-width="1" opacity="0.996078431372549" d="M 70.5 131 L 78 131.5 L 70.5 132 L 70.5 131 Z " /><path fill="rgb(34,35,35)" stroke="rgb(34,35,35)" stroke-width="1" opacity="0.996078431372549" d="M 125.5 133 L 126 135.5 L 125 135.5 L 125.5 133 Z " /><path fill="rgb(34,35,35)" stroke="rgb(34,35,35)" stroke-width="1" opacity="0.996078431372549" d="M 129.5 133 L 130 136.5 L 129 136.5 L 129.5 133 Z " /><path fill="rgb(34,35,35)" stroke="rgb(34,35,35)" stroke-width="1" opacity="0.996078431372549" d="M 60.5 135 L 55 141.5 L 54.5 143 L 54 141.5 L 60.5 135 Z " /><path fill="rgb(34,35,35)" stroke="rgb(34,35,35)" stroke-width="1" opacity="0.996078431372549" d="M 89.5 135 L 90.5 137 L 89.5 135 Z " /><path fill="rgb(34,35,35)" stroke="rgb(34,35,35)" stroke-width="1" opacity="0.996078431372549" d="M 186.5 136 L 187 138.5 L 186 138.5 L 186.5 136 Z " /><path fill="rgb(34,35,35)" stroke="rgb(34,35,35)" stroke-width="1" opacity="0.996078431372549" d="M 120.5 137 L 121 146.5 L 120 146.5 L 120.5 137 Z " /><path fill="rgb(34,35,35)" stroke="rgb(34,35,35)" stroke-width="1" opacity="0.996078431372549" d="M 92.5 138 L 93.5 140 L 92.5 138 Z " /><path fill="rgb(34,35,35)" stroke="rgb(34,35,35)" stroke-width="1" opacity="0.996078431372549" d="M 135.5 138 L 136 149.5 L 135 149.5 L 135.5 138 Z " /><path fill="rgb(34,35,35)" stroke="rgb(34,35,35)" stroke-width="1" opacity="0.996078431372549" d="M 186.5 140 L 187 141.5 L 184.5 143 L 184.5 142 Q 187 142.7 186.5 140 Z " /><path fill="rgb(34,35,35)" stroke="rgb(34,35,35)" stroke-width="1" opacity="0.996078431372549" d="M 95.5 143 L 96 149.5 L 95 149.5 L 95.5 143 Z " /><path fill="rgb(34,35,35)" stroke="rgb(34,35,35)" stroke-width="1" opacity="0.996078431372549" d="M 180.5 144 L 179.5 146 L 180.5 144 Z " /><path fill="rgb(34,35,35)" stroke="rgb(34,35,35)" stroke-width="1" opacity="0.996078431372549" d="M 125.5 148 L 126 150.5 L 125 150.5 L 125.5 148 Z " /><path fill="rgb(34,35,35)" stroke="rgb(34,35,35)" stroke-width="1" opacity="0.996078431372549" d="M 135.5 151 L 136 154.5 L 135 154.5 L 135.5 151 Z " /><path fill="rgb(34,35,35)" stroke="rgb(34,35,35)" stroke-width="1" opacity="0.996078431372549" d="M 144.5 154 L 146.5 157 L 144.5 154 Z " /><path fill="rgb(34,35,35)" stroke="rgb(34,35,35)" stroke-width="1" opacity="0.996078431372549" d="M 129.5 155 L 130 158.5 L 129 158.5 L 129.5 155 Z " /><path fill="rgb(34,35,35)" stroke="rgb(34,35,35)" stroke-width="1" opacity="0.996078431372549" d="M 92.5 156 L 91.5 158 L 92.5 156 Z " /><path fill="rgb(34,35,35)" stroke="rgb(34,35,35)" stroke-width="1" opacity="0.996078431372549" d="M 189.5 157 L 188.5 159 L 189.5 157 Z " /><path fill="rgb(34,35,35)" stroke="rgb(34,35,35)" stroke-width="1" opacity="0.996078431372549" d="M 88.5 159 L 86.5 162 L 88.5 159 Z " /><path fill="rgb(34,35,35)" stroke="rgb(34,35,35)" stroke-width="1" opacity="0.996078431372549" d="M 96.5 159 L 93.5 163 L 96.5 159 Z " /><path fill="rgb(34,35,35)" stroke="rgb(34,35,35)" stroke-width="1" opacity="0.996078431372549" d="M 84.5 162 L 83.5 164 L 84.5 162 Z " /><path fill="rgb(34,35,35)" stroke="rgb(34,35,35)" stroke-width="1" opacity="0.996078431372549" d="M 56.5 163 L 60 165.5 L 58.5 166 L 56.5 163 Z " /><path fill="rgb(34,35,35)" stroke="rgb(34,35,35)" stroke-width="1" opacity="0.996078431372549" d="M 63.5 166 L 68 166.5 L 63.5 167 L 63.5 166 Z " /><path fill="rgb(34,35,35)" stroke="rgb(34,35,35)" stroke-width="1" opacity="0.996078431372549" d="M 73.5 166 L 76 166.5 L 73.5 167 L 73.5 166 Z " /><path fill="rgb(34,35,35)" stroke="rgb(34,35,35)" stroke-width="1" opacity="0.996078431372549" d="M 119.5 168 L 117.5 171 L 119.5 168 Z " /><path fill="rgb(34,35,35)" stroke="rgb(34,35,35)" stroke-width="1" opacity="0.996078431372549" d="M 137.5 168 L 141 168.5 L 137.5 169 L 137.5 168 Z " /><path fill="rgb(34,35,35)" stroke="rgb(34,35,35)" stroke-width="1" opacity="0.996078431372549" d="M 18.5 169 L 19.5 171 L 18.5 169 Z " /><path fill="rgb(34,35,35)" stroke="rgb(34,35,35)" stroke-width="1" opacity="0.996078431372549" d="M 144.5 169 L 148 169.5 L 144.5 170 L 144.5 169 Z " /><path fill="rgb(34,35,35)" stroke="rgb(34,35,35)" stroke-width="1" opacity="0.996078431372549" d="M 113.5 170 L 116 171.5 L 113 172 L 113.5 170 Z " /><path fill="rgb(34,35,35)" stroke="rgb(34,35,35)" stroke-width="1" opacity="0.996078431372549" d="M 124.5 170 L 116.5 179 L 124.5 170 Z " /><path fill="rgb(34,35,35)" stroke="rgb(34,35,35)" stroke-width="1" opacity="0.996078431372549" d="M 150.5 170 L 153 170.5 L 150.5 171 L 150.5 170 Z " /><path fill="rgb(34,35,35)" stroke="rgb(34,35,35)" stroke-width="1" opacity="0.996078431372549" d="M 186.5 170 L 187 173.5 L 186 173.5 L 186.5 170 Z " /><path fill="rgb(34,35,35)" stroke="rgb(34,35,35)" stroke-width="1" opacity="0.996078431372549" d="M 60.5 171 L 61.5 173 L 60.5 171 Z " /><path fill="rgb(34,35,35)" stroke="rgb(34,35,35)" stroke-width="1" opacity="0.996078431372549" d="M 155.5 171 L 158 171.5 L 155.5 172 L 155.5 171 Z " /><path fill="rgb(34,35,35)" stroke="rgb(34,35,35)" stroke-width="1" opacity="0.996078431372549" d="M 160.5 172 L 163 172.5 L 160.5 173 L 160.5 172 Z " /><path fill="rgb(34,35,35)" stroke="rgb(34,35,35)" stroke-width="1" opacity="0.996078431372549" d="M 129.5 173 L 128.5 175 L 129.5 173 Z " /><path fill="rgb(34,35,35)" stroke="rgb(34,35,35)" stroke-width="1" opacity="0.996078431372549" d="M 131.5 173 L 134 173.5 L 131.5 174 L 131.5 173 Z " /><path fill="rgb(34,35,35)" stroke="rgb(34,35,35)" stroke-width="1" opacity="0.996078431372549" d="M 165.5 173 L 168 173.5 L 165.5 174 L 165.5 173 Z " /><path fill="rgb(34,35,35)" stroke="rgb(34,35,35)" stroke-width="1" opacity="0.996078431372549" d="M 112.5 174 L 113 175.5 L 109.5 180 L 111 177.5 L 112.5 174 Z " /><path fill="rgb(34,35,35)" stroke="rgb(34,35,35)" stroke-width="1" opacity="0.996078431372549" d="M 138.5 174 L 142 174.5 L 138.5 175 L 138.5 174 Z " /><path fill="rgb(34,35,35)" stroke="rgb(34,35,35)" stroke-width="1" opacity="0.996078431372549" d="M 105.5 175 L 104.5 177 L 105.5 175 Z " /><path fill="rgb(34,35,35)" stroke="rgb(34,35,35)" stroke-width="1" opacity="0.996078431372549" d="M 145.5 175 L 148 175.5 L 145.5 176 L 145.5 175 Z " /><path fill="rgb(34,35,35)" stroke="rgb(34,35,35)" stroke-width="1" opacity="0.996078431372549" d="M 185.5 175 L 186 176.5 L 184 177.5 L 185.5 175 Z " /><path fill="rgb(34,35,35)" stroke="rgb(34,35,35)" stroke-width="1" opacity="0.996078431372549" d="M 150.5 176 L 153 176.5 L 150.5 177 L 150.5 176 Z " /><path fill="rgb(34,35,35)" stroke="rgb(34,35,35)" stroke-width="1" opacity="0.996078431372549" d="M 126.5 177 L 121.5 183 L 126.5 177 Z " /><path fill="rgb(34,35,35)" stroke="rgb(34,35,35)" stroke-width="1" opacity="0.996078431372549" d="M 155.5 177 L 158 177.5 L 155.5 178 L 155.5 177 Z " /><path fill="rgb(34,35,35)" stroke="rgb(34,35,35)" stroke-width="1" opacity="0.996078431372549" d="M 160.5 178 L 163 178.5 L 160.5 179 L 160.5 178 Z " /><path fill="rgb(34,35,35)" stroke="rgb(34,35,35)" stroke-width="1" opacity="0.996078431372549" d="M 114.5 179 L 113.5 181 L 114.5 179 Z " /><path fill="rgb(34,35,35)" stroke="rgb(34,35,35)" stroke-width="1" opacity="0.996078431372549" d="M 166.5 179 L 169 179.5 L 166.5 180 L 166.5 179 Z " /><path fill="rgb(34,35,35)" stroke="rgb(34,35,35)" stroke-width="1" opacity="0.996078431372549" d="M 60.5 180 L 61 182.5 L 60 182.5 L 60.5 180 Z " /><path fill="rgb(34,35,35)" stroke="rgb(34,35,35)" stroke-width="1" opacity="0.996078431372549" d="M 107.5 180 L 105.5 183 L 107.5 180 Z " /><path fill="rgb(34,35,35)" stroke="rgb(34,35,35)" stroke-width="1" opacity="0.996078431372549" d="M 178.5 182 L 179.5 184 L 178.5 182 Z " /><path fill="rgb(34,35,35)" stroke="rgb(34,35,35)" stroke-width="1" opacity="0.996078431372549" d="M 103.5 183 L 103.5 186 Q 101.3 186.8 102 184.5 L 103.5 183 Z " /><path fill="rgb(34,35,35)" stroke="rgb(34,35,35)" stroke-width="1" opacity="0.996078431372549" d="M 117.5 184 L 116.5 186 L 117.5 184 Z " /><path fill="rgb(34,35,35)" stroke="rgb(34,35,35)" stroke-width="1" opacity="0.996078431372549" d="M 100.5 185 L 101 187 L 97.5 188 L 98.5 186 L 100.5 185 Z " /><path fill="rgb(34,35,35)" stroke="rgb(34,35,35)" stroke-width="1" opacity="0.996078431372549" d="M 54.5 196 L 57 196.5 L 54.5 197 L 54.5 196 Z " /><path fill="rgb(34,35,35)" stroke="rgb(34,35,35)" stroke-width="1" opacity="0.996078431372549" d="M 85.5 196 L 88 196.5 L 85.5 197 L 85.5 196 Z " /><path fill="rgb(34,35,35)" stroke="rgb(34,35,35)" stroke-width="1" opacity="0.996078431372549" d="M 61.5 197 L 66 197.5 L 61.5 198 L 61.5 197 Z " /><path fill="rgb(34,35,35)" stroke="rgb(34,35,35)" stroke-width="1" opacity="0.996078431372549" d="M 76.5 197 L 81 197.5 L 76.5 198 L 76.5 197 Z " /><path fill="rgb(8,8,8)" stroke="rgb(8,8,8)" stroke-width="1" opacity="0.996078431372549" d="M 113.5 63 L 116 63.5 L 113.5 64 L 113.5 63 Z " /><path fill="rgb(8,8,8)" stroke="rgb(8,8,8)" stroke-width="1" opacity="0.996078431372549" d="M 140.5 65 L 139.5 67 L 140.5 65 Z " /><path fill="rgb(8,8,8)" stroke="rgb(8,8,8)" stroke-width="1" opacity="0.996078431372549" d="M 136.5 68 L 134.5 71 L 136.5 68 Z " /><path fill="rgb(8,8,8)" stroke="rgb(8,8,8)" stroke-width="1" opacity="0.996078431372549" d="M 115.5 69 L 120 69.5 L 115.5 70 L 115.5 69 Z " /><path fill="rgb(8,8,8)" stroke="rgb(8,8,8)" stroke-width="1" opacity="0.996078431372549" d="M 109.5 74 L 112 74.5 L 109.5 75 L 109.5 74 Z " /><path fill="rgb(8,8,8)" stroke="rgb(8,8,8)" stroke-width="1" opacity="0.996078431372549" d="M 123.5 74 L 126 74.5 L 123.5 75 L 123.5 74 Z " /><path fill="rgb(8,8,8)" stroke="rgb(8,8,8)" stroke-width="1" opacity="0.996078431372549" d="M 131.5 77 L 132 81.5 L 131 81.5 L 131.5 77 Z " /><path fill="rgb(8,8,8)" stroke="rgb(8,8,8)" stroke-width="1" opacity="0.996078431372549" d="M 104.5 84 L 107 87.5 L 104 85.5 L 104.5 84 Z " /><path fill="rgb(8,8,8)" stroke="rgb(8,8,8)" stroke-width="1" opacity="0.996078431372549" d="M 86.5 86 L 88 86.5 L 85.5 88 L 86.5 86 Z " /><path fill="rgb(8,8,8)" stroke="rgb(8,8,8)" stroke-width="1" opacity="0.996078431372549" d="M 90.5 87 L 92 89.5 L 91 89.5 L 90.5 87 Z " /><path fill="rgb(8,8,8)" stroke="rgb(8,8,8)" stroke-width="1" opacity="0.996078431372549" d="M 129.5 87 L 128.5 89 L 129.5 87 Z " /><path fill="rgb(8,8,8)" stroke="rgb(8,8,8)" stroke-width="1" opacity="0.996078431372549" d="M 84.5 89 L 86 91.5 L 84 90.5 L 84.5 89 Z " /><path fill="rgb(8,8,8)" stroke="rgb(8,8,8)" stroke-width="1" opacity="0.996078431372549" d="M 117.5 89 L 126 89.5 L 117.5 90 L 117.5 89 Z " /><path fill="rgb(8,8,8)" stroke="rgb(8,8,8)" stroke-width="1" opacity="0.996078431372549" d="M 142.5 91 L 145 91.5 L 142.5 92 L 142.5 91 Z " /><path fill="rgb(8,8,8)" stroke="rgb(8,8,8)" stroke-width="1" opacity="0.996078431372549" d="M 111.5 93 L 115 93.5 L 110.5 95 L 111.5 93 Z " /><path fill="rgb(8,8,8)" stroke="rgb(8,8,8)" stroke-width="1" opacity="0.996078431372549" d="M 61.5 95 L 65 95.5 L 61.5 96 L 61.5 95 Z " /><path fill="rgb(8,8,8)" stroke="rgb(8,8,8)" stroke-width="1" opacity="0.996078431372549" d="M 93.5 98 L 96 98.5 L 93.5 99 L 93.5 98 Z " /><path fill="rgb(8,8,8)" stroke="rgb(8,8,8)" stroke-width="1" opacity="0.996078431372549" d="M 111.5 98 L 122 98.5 L 111.5 99 L 111.5 98 Z " /><path fill="rgb(8,8,8)" stroke="rgb(8,8,8)" stroke-width="1" opacity="0.996078431372549" d="M 101.5 100 L 102.5 102 L 101.5 100 Z " /><path fill="rgb(8,8,8)" stroke="rgb(8,8,8)" stroke-width="1" opacity="0.996078431372549" d="M 139.5 101 L 142 101.5 L 139.5 102 L 139.5 101 Z " /><path fill="rgb(8,8,8)" stroke="rgb(8,8,8)" stroke-width="1" opacity="0.996078431372549" d="M 148.5 101 L 149 103 L 145 102.5 L 148.5 101 Z " /><path fill="rgb(8,8,8)" stroke="rgb(8,8,8)" stroke-width="1" opacity="0.996078431372549" d="M 103.5 103 L 104.5 105 L 103.5 103 Z " /><path fill="rgb(8,8,8)" stroke="rgb(8,8,8)" stroke-width="1" opacity="0.996078431372549" d="M 122.5 103 L 125 103.5 L 122.5 104 L 122.5 103 Z " /><path fill="rgb(8,8,8)" stroke="rgb(8,8,8)" stroke-width="1" opacity="0.996078431372549" d="M 128.5 104 L 131 104.5 L 128.5 105 L 128.5 104 Z " /><path fill="rgb(8,8,8)" stroke="rgb(8,8,8)" stroke-width="1" opacity="0.996078431372549" d="M 135.5 105 L 138 105.5 L 135.5 106 L 135.5 105 Z " /><path fill="rgb(8,8,8)" stroke="rgb(8,8,8)" stroke-width="1" opacity="0.996078431372549" d="M 120.5 106 L 121.5 108 L 120.5 106 Z " /><path fill="rgb(8,8,8)" stroke="rgb(8,8,8)" stroke-width="1" opacity="0.996078431372549" d="M 114.5 107 L 121.5 115 L 114.5 107 Z " /><path fill="rgb(8,8,8)" stroke="rgb(8,8,8)" stroke-width="1" opacity="0.996078431372549" d="M 26.5 109 L 26 110.5 L 25.5 112 L 25 110.5 L 26.5 109 Z " /><path fill="rgb(8,8,8)" stroke="rgb(8,8,8)" stroke-width="1" opacity="0.996078431372549" d="M 112.5 109 L 112.5 112 L 110 110.5 L 112.5 109 Z " /><path fill="rgb(8,8,8)" stroke="rgb(8,8,8)" stroke-width="1" opacity="0.996078431372549" d="M 115.5 111 L 117.5 114 L 115.5 111 Z " /><path fill="rgb(8,8,8)" stroke="rgb(8,8,8)" stroke-width="1" opacity="0.996078431372549" d="M 124.5 111 L 125.5 113 L 124.5 111 Z " /><path fill="rgb(8,8,8)" stroke="rgb(8,8,8)" stroke-width="1" opacity="0.996078431372549" d="M 161.5 112 L 162.5 114 L 161.5 112 Z " /><path fill="rgb(8,8,8)" stroke="rgb(8,8,8)" stroke-width="1" opacity="0.996078431372549" d="M 111.5 113 L 115 117.5 L 111 114.5 L 111.5 113 Z " /><path fill="rgb(8,8,8)" stroke="rgb(8,8,8)" stroke-width="1" opacity="0.996078431372549" d="M 21.5 114 L 23 114.5 L 20.5 116 L 21.5 114 Z " /><path fill="rgb(8,8,8)" stroke="rgb(8,8,8)" stroke-width="1" opacity="0.996078431372549" d="M 56.5 114 L 59 114.5 L 56.5 115 L 56.5 114 Z " /><path fill="rgb(8,8,8)" stroke="rgb(8,8,8)" stroke-width="1" opacity="0.996078431372549" d="M 134.5 114 L 138 114.5 L 134.5 115 L 134.5 114 Z " /><path fill="rgb(8,8,8)" stroke="rgb(8,8,8)" stroke-width="1" opacity="0.996078431372549" d="M 143.5 115 L 146 115.5 L 143.5 116 L 143.5 115 Z " /><path fill="rgb(8,8,8)" stroke="rgb(8,8,8)" stroke-width="1" opacity="0.996078431372549" d="M 25.5 116 L 28.5 120 L 25.5 116 Z " /><path fill="rgb(8,8,8)" stroke="rgb(8,8,8)" stroke-width="1" opacity="0.996078431372549" d="M 31.5 116 L 32.5 118 L 31.5 116 Z " /><path fill="rgb(8,8,8)" stroke="rgb(8,8,8)" stroke-width="1" opacity="0.996078431372549" d="M 122.5 116 L 123.5 118 L 122.5 116 Z " /><path fill="rgb(8,8,8)" stroke="rgb(8,8,8)" stroke-width="1" opacity="0.996078431372549" d="M 66.5 117 L 73 117.5 L 66.5 118 L 66.5 117 Z " /><path fill="rgb(8,8,8)" stroke="rgb(8,8,8)" stroke-width="1" opacity="0.996078431372549" d="M 164.5 117 L 165.5 119 L 164.5 117 Z " /><path fill="rgb(8,8,8)" stroke="rgb(8,8,8)" stroke-width="1" opacity="0.996078431372549" d="M 60.5 118 L 63 118.5 L 60.5 119 L 60.5 118 Z " /><path fill="rgb(8,8,8)" stroke="rgb(8,8,8)" stroke-width="1" opacity="0.996078431372549" d="M 130.5 118 L 133 118.5 L 129.5 120 L 130.5 118 Z " /><path fill="rgb(8,8,8)" stroke="rgb(8,8,8)" stroke-width="1" opacity="0.996078431372549" d="M 139.5 119 L 142 119.5 L 139.5 120 L 139.5 119 Z " /><path fill="rgb(8,8,8)" stroke="rgb(8,8,8)" stroke-width="1" opacity="0.996078431372549" d="M 81.5 120 L 82.5 122 L 81.5 120 Z " /><path fill="rgb(8,8,8)" stroke="rgb(8,8,8)" stroke-width="1" opacity="0.996078431372549" d="M 42.5 121 L 41.5 123 L 42.5 121 Z " /><path fill="rgb(8,8,8)" stroke="rgb(8,8,8)" stroke-width="1" opacity="0.996078431372549" d="M 96.5 121 L 95.5 123 L 96.5 121 Z " /><path fill="rgb(8,8,8)" stroke="rgb(8,8,8)" stroke-width="1" opacity="0.996078431372549" d="M 47.5 123 L 41.5 130 L 47.5 123 Z " /><path fill="rgb(8,8,8)" stroke="rgb(8,8,8)" stroke-width="1" opacity="0.996078431372549" d="M 87.5 124 L 90.5 128 L 87.5 124 Z " /><path fill="rgb(8,8,8)" stroke="rgb(8,8,8)" stroke-width="1" opacity="0.996078431372549" d="M 78.5 126 L 82 126.5 L 78.5 127 L 78.5 126 Z " /><path fill="rgb(8,8,8)" stroke="rgb(8,8,8)" stroke-width="1" opacity="0.996078431372549" d="M 89.5 129 L 93 130.5 L 91.5 131 L 89.5 129 Z " /><path fill="rgb(8,8,8)" stroke="rgb(8,8,8)" stroke-width="1" opacity="0.996078431372549" d="M 58.5 130 L 57.5 132 L 58.5 130 Z " /><path fill="rgb(8,8,8)" stroke="rgb(8,8,8)" stroke-width="1" opacity="0.996078431372549" d="M 40.5 131 L 40 132.5 L 38.5 136 L 38 134.5 L 40.5 131 Z " /><path fill="rgb(8,8,8)" stroke="rgb(8,8,8)" stroke-width="1" opacity="0.996078431372549" d="M 78.5 131 L 81 131.5 L 78.5 132 L 78.5 131 Z " /><path fill="rgb(8,8,8)" stroke="rgb(8,8,8)" stroke-width="1" opacity="0.996078431372549" d="M 55.5 132 L 51 137.5 L 49.5 140 L 50 138.5 L 55.5 132 Z " /><path fill="rgb(8,8,8)" stroke="rgb(8,8,8)" stroke-width="1" opacity="0.996078431372549" d="M 134.5 132 L 135 134.5 L 134 134.5 L 134.5 132 Z " /><path fill="rgb(8,8,8)" stroke="rgb(8,8,8)" stroke-width="1" opacity="0.996078431372549" d="M 90.5 135 L 93.5 139 L 90.5 135 Z " /><path fill="rgb(8,8,8)" stroke="rgb(8,8,8)" stroke-width="1" opacity="0.996078431372549" d="M 58.5 136 L 54.5 141 L 58.5 136 Z " /><path fill="rgb(8,8,8)" stroke="rgb(8,8,8)" stroke-width="1" opacity="0.996078431372549" d="M 125.5 136 L 126 147.5 L 125 147.5 L 125.5 136 Z " /><path fill="rgb(8,8,8)" stroke="rgb(8,8,8)" stroke-width="1" opacity="0.996078431372549" d="M 130.5 137 L 131 154.5 L 130 154.5 L 130.5 137 Z " /><path fill="rgb(8,8,8)" stroke="rgb(8,8,8)" stroke-width="1" opacity="0.996078431372549" d="M 11.5 139 L 12 147.5 L 11 147.5 L 11.5 139 Z " /><path fill="rgb(8,8,8)" stroke="rgb(8,8,8)" stroke-width="1" opacity="0.996078431372549" d="M 160.5 139 L 162.5 142 L 160.5 139 Z " /><path fill="rgb(8,8,8)" stroke="rgb(8,8,8)" stroke-width="1" opacity="0.996078431372549" d="M 100.5 140 L 101 145.5 L 100 145.5 L 100.5 140 Z " /><path fill="rgb(8,8,8)" stroke="rgb(8,8,8)" stroke-width="1" opacity="0.996078431372549" d="M 150.5 140 L 152 140.5 L 149.5 142 L 150.5 140 Z " /><path fill="rgb(8,8,8)" stroke="rgb(8,8,8)" stroke-width="1" opacity="0.996078431372549" d="M 182.5 143 L 181.5 145 L 182.5 143 Z " /><path fill="rgb(8,8,8)" stroke="rgb(8,8,8)" stroke-width="1" opacity="0.996078431372549" d="M 37.5 146 L 38 148.5 L 37 148.5 L 37.5 146 Z " /><path fill="rgb(8,8,8)" stroke="rgb(8,8,8)" stroke-width="1" opacity="0.996078431372549" d="M 142.5 146 L 143 148.5 L 142 148.5 L 142.5 146 Z " /><path fill="rgb(8,8,8)" stroke="rgb(8,8,8)" stroke-width="1" opacity="0.996078431372549" d="M 120.5 147 L 121 149.5 L 120 149.5 L 120.5 147 Z " /><path fill="rgb(8,8,8)" stroke="rgb(8,8,8)" stroke-width="1" opacity="0.996078431372549" d="M 46.5 149 L 47 157.5 L 46 157.5 L 46.5 149 Z " /><path fill="rgb(8,8,8)" stroke="rgb(8,8,8)" stroke-width="1" opacity="0.996078431372549" d="M 51.5 149 L 52 156.5 L 51 156.5 L 51.5 149 Z " /><path fill="rgb(8,8,8)" stroke="rgb(8,8,8)" stroke-width="1" opacity="0.996078431372549" d="M 124.5 151 L 125 153.5 L 124 153.5 L 124.5 151 Z " /><path fill="rgb(8,8,8)" stroke="rgb(8,8,8)" stroke-width="1" opacity="0.996078431372549" d="M 177.5 151 L 178 156.5 L 177 156.5 L 177.5 151 Z " /><path fill="rgb(8,8,8)" stroke="rgb(8,8,8)" stroke-width="1" opacity="0.996078431372549" d="M 11.5 152 L 12 154.5 L 11 154.5 L 11.5 152 Z " /><path fill="rgb(8,8,8)" stroke="rgb(8,8,8)" stroke-width="1" opacity="0.996078431372549" d="M 161.5 152 L 158.5 156 L 161.5 152 Z " /><path fill="rgb(8,8,8)" stroke="rgb(8,8,8)" stroke-width="1" opacity="0.996078431372549" d="M 39.5 153 L 40.5 155 L 39.5 153 Z " /><path fill="rgb(8,8,8)" stroke="rgb(8,8,8)" stroke-width="1" opacity="0.996078431372549" d="M 94.5 153 L 95 154.5 L 93 155.5 L 94.5 153 Z " /><path fill="rgb(8,8,8)" stroke="rgb(8,8,8)" stroke-width="1" opacity="0.996078431372549" d="M 190.5 153 L 191 155.5 L 190 155.5 L 190.5 153 Z " /><path fill="rgb(8,8,8)" stroke="rgb(8,8,8)" stroke-width="1" opacity="0.996078431372549" d="M 41.5 156 L 42.5 158 L 41.5 156 Z " /><path fill="rgb(8,8,8)" stroke="rgb(8,8,8)" stroke-width="1" opacity="0.996078431372549" d="M 98.5 156 L 97.5 158 L 98.5 156 Z " /><path fill="rgb(8,8,8)" stroke="rgb(8,8,8)" stroke-width="1" opacity="0.996078431372549" d="M 134.5 157 L 135 159.5 L 134 159.5 L 134.5 157 Z " /><path fill="rgb(8,8,8)" stroke="rgb(8,8,8)" stroke-width="1" opacity="0.996078431372549" d="M 149.5 157 L 154 157.5 L 149.5 158 L 149.5 157 Z " /><path fill="rgb(8,8,8)" stroke="rgb(8,8,8)" stroke-width="1" opacity="0.996078431372549" d="M 90.5 158 L 88.5 161 L 90.5 158 Z " /><path fill="rgb(8,8,8)" stroke="rgb(8,8,8)" stroke-width="1" opacity="0.996078431372549" d="M 38.5 160 L 39.5 162 L 38.5 160 Z " /><path fill="rgb(8,8,8)" stroke="rgb(8,8,8)" stroke-width="1" opacity="0.996078431372549" d="M 47.5 160 L 49 162.5 L 47.5 163 Q 44.5 161.5 47.5 160 Z " /><path fill="rgb(8,8,8)" stroke="rgb(8,8,8)" stroke-width="1" opacity="0.996078431372549" d="M 53.5 161 L 56.5 165 L 53.5 161 Z " /><path fill="rgb(8,8,8)" stroke="rgb(8,8,8)" stroke-width="1" opacity="0.996078431372549" d="M 85.5 162 L 84.5 164 L 85.5 162 Z " /><path fill="rgb(8,8,8)" stroke="rgb(8,8,8)" stroke-width="1" opacity="0.996078431372549" d="M 91.5 163 L 90.5 165 L 91.5 163 Z " /><path fill="rgb(8,8,8)" stroke="rgb(8,8,8)" stroke-width="1" opacity="0.996078431372549" d="M 42.5 164 L 43.5 166 L 42.5 164 Z " /><path fill="rgb(8,8,8)" stroke="rgb(8,8,8)" stroke-width="1" opacity="0.996078431372549" d="M 127.5 165 L 128 166.5 L 126 167.5 L 127.5 165 Z " /><path fill="rgb(8,8,8)" stroke="rgb(8,8,8)" stroke-width="1" opacity="0.996078431372549" d="M 59.5 166 L 63 166.5 L 59.5 167 L 59.5 166 Z " /><path fill="rgb(8,8,8)" stroke="rgb(8,8,8)" stroke-width="1" opacity="0.996078431372549" d="M 87.5 166 L 86.5 168 L 87.5 166 Z " /><path fill="rgb(8,8,8)" stroke="rgb(8,8,8)" stroke-width="1" opacity="0.996078431372549" d="M 114.5 166 L 113.5 168 L 114.5 166 Z " /><path fill="rgb(8,8,8)" stroke="rgb(8,8,8)" stroke-width="1" opacity="0.996078431372549" d="M 67.5 167 L 74 167.5 L 67.5 168 L 67.5 167 Z " /><path fill="rgb(8,8,8)" stroke="rgb(8,8,8)" stroke-width="1" opacity="0.996078431372549" d="M 119.5 167 L 116.5 171 L 113 169.5 L 114.5 170 Q 119 170.5 119.5 167 Z " /><path fill="rgb(8,8,8)" stroke="rgb(8,8,8)" stroke-width="1" opacity="0.996078431372549" d="M 132.5 167 L 137 168.5 L 133.5 169 L 132.5 167 Z " /><path fill="rgb(8,8,8)" stroke="rgb(8,8,8)" stroke-width="1" opacity="0.996078431372549" d="M 141.5 169 L 144 169.5 L 141.5 170 L 141.5 169 Z " /><path fill="rgb(8,8,8)" stroke="rgb(8,8,8)" stroke-width="1" opacity="0.996078431372549" d="M 20.5 172 L 21.5 174 L 20.5 172 Z " /><path fill="rgb(8,8,8)" stroke="rgb(8,8,8)" stroke-width="1" opacity="0.996078431372549" d="M 129.5 172 L 131 172.5 L 128.5 174 L 129.5 172 Z " /><path fill="rgb(8,8,8)" stroke="rgb(8,8,8)" stroke-width="1" opacity="0.996078431372549" d="M 157.5 172 L 160 172.5 L 157.5 173 L 157.5 172 Z " /><path fill="rgb(8,8,8)" stroke="rgb(8,8,8)" stroke-width="1" opacity="0.996078431372549" d="M 61.5 173 L 62 175.5 L 61 175.5 L 61.5 173 Z " /><path fill="rgb(8,8,8)" stroke="rgb(8,8,8)" stroke-width="1" opacity="0.996078431372549" d="M 111.5 173 L 112 175.5 L 111 175.5 L 111.5 173 Z " /><path fill="rgb(8,8,8)" stroke="rgb(8,8,8)" stroke-width="1" opacity="0.996078431372549" d="M 134.5 173 L 138 173.5 L 134.5 174 L 134.5 173 Z " /><path fill="rgb(8,8,8)" stroke="rgb(8,8,8)" stroke-width="1" opacity="0.996078431372549" d="M 142.5 174 L 145 174.5 L 142.5 175 L 142.5 174 Z " /><path fill="rgb(8,8,8)" stroke="rgb(8,8,8)" stroke-width="1" opacity="0.996078431372549" d="M 168.5 174 L 171 174.5 L 168.5 175 L 168.5 174 Z " /><path fill="rgb(8,8,8)" stroke="rgb(8,8,8)" stroke-width="1" opacity="0.996078431372549" d="M 65.5 175 L 66 177.5 L 65 177.5 L 65.5 175 Z " /><path fill="rgb(8,8,8)" stroke="rgb(8,8,8)" stroke-width="1" opacity="0.996078431372549" d="M 127.5 175 L 124.5 179 L 127.5 175 Z " /><path fill="rgb(8,8,8)" stroke="rgb(8,8,8)" stroke-width="1" opacity="0.996078431372549" d="M 148.5 175 L 151 175.5 L 148.5 176 L 148.5 175 Z " /><path fill="rgb(8,8,8)" stroke="rgb(8,8,8)" stroke-width="1" opacity="0.996078431372549" d="M 24.5 177 L 26.5 180 L 24.5 177 Z " /><path fill="rgb(8,8,8)" stroke="rgb(8,8,8)" stroke-width="1" opacity="0.996078431372549" d="M 103.5 177 L 102.5 179 L 103.5 177 Z " /><path fill="rgb(8,8,8)" stroke="rgb(8,8,8)" stroke-width="1" opacity="0.996078431372549" d="M 110.5 177 L 108.5 180 L 110.5 177 Z " /><path fill="rgb(8,8,8)" stroke="rgb(8,8,8)" stroke-width="1" opacity="0.996078431372549" d="M 163.5 178 L 166 178.5 L 163.5 179 L 163.5 178 Z " /><path fill="rgb(8,8,8)" stroke="rgb(8,8,8)" stroke-width="1" opacity="0.996078431372549" d="M 115.5 179 L 114.5 181 L 115.5 179 Z " /><path fill="rgb(8,8,8)" stroke="rgb(8,8,8)" stroke-width="1" opacity="0.996078431372549" d="M 105.5 181 L 104.5 183 L 105.5 181 Z " /><path fill="rgb(8,8,8)" stroke="rgb(8,8,8)" stroke-width="1" opacity="0.996078431372549" d="M 121.5 181 L 120.5 183 L 121.5 181 Z " /><path fill="rgb(8,8,8)" stroke="rgb(8,8,8)" stroke-width="1" opacity="0.996078431372549" d="M 60.5 183 L 61 186.5 L 60 186.5 L 60.5 183 Z " /><path fill="rgb(8,8,8)" stroke="rgb(8,8,8)" stroke-width="1" opacity="0.996078431372549" d="M 102.5 183 L 101.5 185 L 102.5 183 Z " /><path fill="rgb(8,8,8)" stroke="rgb(8,8,8)" stroke-width="1" opacity="0.996078431372549" d="M 27.5 185 L 27 186.5 L 26.5 188 L 26 186.5 L 27.5 185 Z " /><path fill="rgb(8,8,8)" stroke="rgb(8,8,8)" stroke-width="1" opacity="0.996078431372549" d="M 64.5 185 L 65 190 L 68 190.5 L 65.5 191 Q 62.6 189.6 64.5 185 Z " /><path fill="rgb(8,8,8)" stroke="rgb(8,8,8)" stroke-width="1" opacity="0.996078431372549" d="M 180.5 185 L 181 199.5 L 180 199.5 L 180.5 185 Z " /><path fill="rgb(8,8,8)" stroke="rgb(8,8,8)" stroke-width="1" opacity="0.996078431372549" d="M 97.5 186 L 100 187.5 L 98.5 188 L 97 187.5 Q 97.8 190.1 94.5 189 L 91.5 190 L 91.5 189 L 97.5 186 Z " /><path fill="rgb(8,8,8)" stroke="rgb(8,8,8)" stroke-width="1" opacity="0.996078431372549" d="M 56.5 190 L 60 190.5 L 56.5 191 L 56.5 190 Z " /><path fill="rgb(8,8,8)" stroke="rgb(8,8,8)" stroke-width="1" opacity="0.996078431372549" d="M 57.5 196 L 61 196.5 L 57.5 197 L 57.5 196 Z " /><path fill="rgb(8,8,8)" stroke="rgb(8,8,8)" stroke-width="1" opacity="0.996078431372549" d="M 81.5 196 L 85 196.5 L 81.5 197 L 81.5 196 Z " /><path fill="rgb(8,8,8)" stroke="rgb(8,8,8)" stroke-width="1" opacity="0.996078431372549" d="M 66.5 197 L 76 197.5 L 66.5 198 L 66.5 197 Z " /><path fill="rgb(0,0,0)" stroke="rgb(0,0,0)" stroke-width="1" opacity="0.8392156862745098" d="M 114.5 58 L 120 58.5 L 114.5 59 L 114.5 58 Z " /><path fill="rgb(0,0,0)" stroke="rgb(0,0,0)" stroke-width="1" opacity="0.8392156862745098" d="M 132.5 58 L 136 58.5 L 132.5 59 L 132.5 58 Z " /><path fill="rgb(0,0,0)" stroke="rgb(0,0,0)" stroke-width="1" opacity="0.8392156862745098" d="M 110.5 59 L 112 59.5 L 108 62.5 L 106.5 65 L 107 63.5 L 110.5 59 Z " /><path fill="rgb(0,0,0)" stroke="rgb(0,0,0)" stroke-width="1" opacity="0.8392156862745098" d="M 143.5 61 L 144.5 63 L 143.5 61 Z " /><path fill="rgb(0,0,0)" stroke="rgb(0,0,0)" stroke-width="1" opacity="0.8392156862745098" d="M 105.5 66 L 105 67.5 L 104.5 69 L 104 67.5 L 105.5 66 Z " /><path fill="rgb(0,0,0)" stroke="rgb(0,0,0)" stroke-width="1" opacity="0.8392156862745098" d="M 146.5 66 L 147 67.5 L 142.5 71 L 143.5 69 L 146 67.5 L 146.5 66 Z " /><path fill="rgb(0,0,0)" stroke="rgb(0,0,0)" stroke-width="1" opacity="0.8392156862745098" d="M 140.5 71 L 138.5 74 L 140.5 71 Z " /><path fill="rgb(0,0,0)" stroke="rgb(0,0,0)" stroke-width="1" opacity="0.8392156862745098" d="M 93.5 83 L 95.5 86 L 93.5 83 Z " /><path fill="rgb(0,0,0)" stroke="rgb(0,0,0)" stroke-width="1" opacity="0.8392156862745098" d="M 137.5 86 L 145 86.5 L 137.5 87 L 136 88.5 L 135.5 90 L 134 89.5 L 135 92.5 L 133 93.5 L 132 91.5 L 134.5 87 Q 136 89.5 137.5 86 Z " /><path fill="rgb(0,0,0)" stroke="rgb(0,0,0)" stroke-width="1" opacity="0.8392156862745098" d="M 96.5 87 L 97 93.5 L 96 93.5 L 96.5 87 Z " /><path fill="rgb(0,0,0)" stroke="rgb(0,0,0)" stroke-width="1" opacity="0.8392156862745098" d="M 100.5 87 L 103 90.5 L 100 88.5 L 100.5 87 Z " /><path fill="rgb(0,0,0)" stroke="rgb(0,0,0)" stroke-width="1" opacity="0.8392156862745098" d="M 148.5 87 L 151 87.5 L 148.5 88 L 148.5 87 Z " /><path fill="rgb(0,0,0)" stroke="rgb(0,0,0)" stroke-width="1" opacity="0.8392156862745098" d="M 152.5 88 L 156 90.5 L 155.5 92 L 153.5 89 L 152.5 88 Z " /><path fill="rgb(0,0,0)" stroke="rgb(0,0,0)" stroke-width="1" opacity="0.8392156862745098" d="M 79.5 89 L 80 91 L 64 90.5 L 78.5 90 L 79.5 89 Z " /><path fill="rgb(0,0,0)" stroke="rgb(0,0,0)" stroke-width="1" opacity="0.8392156862745098" d="M 55.5 91 L 61 91.5 L 55.5 92 L 55.5 91 Z " /><path fill="rgb(0,0,0)" stroke="rgb(0,0,0)" stroke-width="1" opacity="0.8392156862745098" d="M 50.5 92 L 53 92.5 L 50.5 93 L 50.5 92 Z " /><path fill="rgb(0,0,0)" stroke="rgb(0,0,0)" stroke-width="1" opacity="0.8392156862745098" d="M 106.5 92 L 106 93.5 L 104.5 96 L 105 94.5 L 106.5 92 Z " /><path fill="rgb(0,0,0)" stroke="rgb(0,0,0)" stroke-width="1" opacity="0.8392156862745098" d="M 46.5 93 L 49 93.5 L 42.5 96 L 42.5 95 L 46.5 93 Z " /><path fill="rgb(0,0,0)" stroke="rgb(0,0,0)" stroke-width="1" opacity="0.8392156862745098" d="M 155.5 94 L 156 96.5 L 155 96.5 L 155.5 94 Z " /><path fill="rgb(0,0,0)" stroke="rgb(0,0,0)" stroke-width="1" opacity="0.8392156862745098" d="M 39.5 96 L 41 96.5 L 37.5 98 L 37.5 97 L 39.5 96 Z " /><path fill="rgb(0,0,0)" stroke="rgb(0,0,0)" stroke-width="1" opacity="0.8392156862745098" d="M 29.5 101 L 28.5 103 L 29.5 101 Z " /><path fill="rgb(0,0,0)" stroke="rgb(0,0,0)" stroke-width="1" opacity="0.8392156862745098" d="M 153.5 101 L 154 104 L 156 104.5 L 154.5 105 Q 152 104 153.5 101 Z " /><path fill="rgb(0,0,0)" stroke="rgb(0,0,0)" stroke-width="1" opacity="0.8392156862745098" d="M 26.5 103 L 14.5 116 L 26.5 103 Z " /><path fill="rgb(0,0,0)" stroke="rgb(0,0,0)" stroke-width="1" opacity="0.8392156862745098" d="M 160.5 106 L 163 107.5 L 161.5 107 L 160.5 106 Z " /><path fill="rgb(0,0,0)" stroke="rgb(0,0,0)" stroke-width="1" opacity="0.8392156862745098" d="M 164.5 108 L 168 112.5 L 166 111.5 L 164.5 108 Z " /><path fill="rgb(0,0,0)" stroke="rgb(0,0,0)" stroke-width="1" opacity="0.8392156862745098" d="M 168.5 114 L 169.5 116 L 168.5 114 Z " /><path fill="rgb(0,0,0)" stroke="rgb(0,0,0)" stroke-width="1" opacity="0.8392156862745098" d="M 170.5 117 L 172 119.5 L 171 119.5 L 170.5 117 Z " /><path fill="rgb(0,0,0)" stroke="rgb(0,0,0)" stroke-width="1" opacity="0.8392156862745098" d="M 12.5 119 L 12 120.5 L 10.5 124 L 10 122.5 L 12.5 119 Z " /><path fill="rgb(0,0,0)" stroke="rgb(0,0,0)" stroke-width="1" opacity="0.8392156862745098" d="M 172.5 121 L 176 123.5 L 174.5 124 L 172 123 L 172.5 121 Z " /><path fill="rgb(0,0,0)" stroke="rgb(0,0,0)" stroke-width="1" opacity="0.8392156862745098" d="M 179.5 125 L 188 129.5 L 191 133.5 L 187 130.5 Q 187.8 128.3 185.5 129 L 179.5 126 L 179.5 125 Z " /><path fill="rgb(0,0,0)" stroke="rgb(0,0,0)" stroke-width="1" opacity="0.8392156862745098" d="M 8.5 129 L 9 131.5 L 8 131.5 L 8.5 129 Z " /><path fill="rgb(0,0,0)" stroke="rgb(0,0,0)" stroke-width="1" opacity="0.8392156862745098" d="M 7.5 134 L 8 138.5 L 7 138.5 L 7.5 134 Z " /><path fill="rgb(0,0,0)" stroke="rgb(0,0,0)" stroke-width="1" opacity="0.8392156862745098" d="M 192.5 137 L 193 141.5 L 192 141.5 L 192.5 137 Z " /><path fill="rgb(0,0,0)" stroke="rgb(0,0,0)" stroke-width="1" opacity="0.8392156862745098" d="M 192.5 145 L 194 148.5 L 193 148.5 L 192.5 145 Z " /><path fill="rgb(0,0,0)" stroke="rgb(0,0,0)" stroke-width="1" opacity="0.8392156862745098" d="M 195.5 153 L 196 156.5 L 195 156.5 L 195.5 153 Z " /><path fill="rgb(0,0,0)" stroke="rgb(0,0,0)" stroke-width="1" opacity="0.8392156862745098" d="M 7.5 156 L 8 159.5 L 7 159.5 L 7.5 156 Z " /><path fill="rgb(0,0,0)" stroke="rgb(0,0,0)" stroke-width="1" opacity="0.8392156862745098" d="M 194.5 158 L 195 159.5 L 193 160.5 L 194.5 158 Z " /><path fill="rgb(0,0,0)" stroke="rgb(0,0,0)" stroke-width="1" opacity="0.8392156862745098" d="M 11.5 167 L 21 180.5 L 20 180.5 L 11.5 167 Z " /><path fill="rgb(0,0,0)" stroke="rgb(0,0,0)" stroke-width="1" opacity="0.8392156862745098" d="M 191.5 170 L 192 176.5 L 191 176.5 L 191.5 170 Z " /><path fill="rgb(0,0,0)" stroke="rgb(0,0,0)" stroke-width="1" opacity="0.8392156862745098" d="M 189.5 180 L 187.5 183 L 186 182.5 L 189.5 180 Z " /><path fill="rgb(0,0,0)" stroke="rgb(0,0,0)" stroke-width="1" opacity="0.8392156862745098" d="M 23.5 183 L 22.5 185 L 23.5 183 Z " /><path fill="rgb(0,0,0)" stroke="rgb(0,0,0)" stroke-width="1" opacity="0.8392156862745098" d="M 185.5 184 L 186 199.5 L 185 199.5 L 185.5 184 Z " /><path fill="rgb(0,0,0)" stroke="rgb(0,0,0)" stroke-width="1" opacity="0.8392156862745098" d="M 21.5 186 L 22 189.5 L 21 189.5 L 21.5 186 Z " /><path fill="rgb(0,0,0)" stroke="rgb(0,0,0)" stroke-width="1" opacity="0.8392156862745098" d="M 20.5 191 L 21 193.5 L 20 193.5 L 20.5 191 Z " /><path fill="rgb(0,0,0)" stroke="rgb(0,0,0)" stroke-width="1" opacity="0.8392156862745098" d="M 19.5 195 L 20 198.5 L 19 198.5 L 19.5 195 Z " /><path fill="rgb(0,0,0)" stroke="rgb(0,0,0)" stroke-width="1" opacity="0.996078431372549" d="M 120 58 L 131.5 58 L 132 60 L 124.5 59 L 120 60 L 120 58 Z " /><path fill="rgb(0,0,0)" stroke="rgb(0,0,0)" stroke-width="1" opacity="0.996078431372549" d="M 112.5 59 L 116 59.5 L 112.5 60 L 112.5 59 Z " /><path fill="rgb(0,0,0)" stroke="rgb(0,0,0)" stroke-width="1" opacity="0.996078431372549" d="M 107.5 64 L 106.5 66 L 107.5 64 Z " /><path fill="rgb(0,0,0)" stroke="rgb(0,0,0)" stroke-width="1" opacity="0.996078431372549" d="M 145.5 67 L 144.5 69 L 145.5 67 Z " /><path fill="rgb(0,0,0)" stroke="rgb(0,0,0)" stroke-width="1" opacity="0.996078431372549" d="M 136 72 L 139 72.5 L 137.5 77 Q 135 75.8 136 72 Z " /><path fill="rgb(0,0,0)" stroke="rgb(0,0,0)" stroke-width="1" opacity="0.996078431372549" d="M 135.5 81 L 136 83.5 L 135 83.5 L 135.5 81 Z " /><path fill="rgb(0,0,0)" stroke="rgb(0,0,0)" stroke-width="1" opacity="0.996078431372549" d="M 88 82 Q 93.6 82.1 96 86.5 L 95.5 88 L 92.5 84 Q 86.7 85.7 88 82 Z " /><path fill="rgb(0,0,0)" stroke="rgb(0,0,0)" stroke-width="1" opacity="0.996078431372549" d="M 100.5 82 L 101 86.5 L 100 86.5 L 100.5 82 Z " /><path fill="rgb(0,0,0)" stroke="rgb(0,0,0)" stroke-width="1" opacity="0.996078431372549" d="M 137.5 87 L 137 88.5 L 135.5 92 L 135 90.5 L 137.5 87 Z " /><path fill="rgb(0,0,0)" stroke="rgb(0,0,0)" stroke-width="1" opacity="0.996078431372549" d="M 144.5 87 L 148 87.5 L 144.5 88 L 144.5 87 Z " /><path fill="rgb(0,0,0)" stroke="rgb(0,0,0)" stroke-width="1" opacity="0.996078431372549" d="M 101.5 88 Q 105.3 86.8 104 90.5 L 101.5 88 Z " /><path fill="rgb(0,0,0)" stroke="rgb(0,0,0)" stroke-width="1" opacity="0.996078431372549" d="M 132 88 L 134 88.5 L 132.5 91 L 132 88 Z " /><path fill="rgb(0,0,0)" stroke="rgb(0,0,0)" stroke-width="1" opacity="0.996078431372549" d="M 149.5 88 L 152 88.5 L 149.5 89 L 149.5 88 Z " /><path fill="rgb(0,0,0)" stroke="rgb(0,0,0)" stroke-width="1" opacity="0.996078431372549" d="M 153.5 89 L 154.5 91 L 153.5 89 Z " /><path fill="rgb(0,0,0)" stroke="rgb(0,0,0)" stroke-width="1" opacity="0.996078431372549" d="M 61.5 91 L 64 91.5 L 61.5 92 L 61.5 91 Z " /><path fill="rgb(0,0,0)" stroke="rgb(0,0,0)" stroke-width="1" opacity="0.996078431372549" d="M 53.5 92 L 58 92.5 L 53.5 93 L 53.5 92 Z " /><path fill="rgb(0,0,0)" stroke="rgb(0,0,0)" stroke-width="1" opacity="0.996078431372549" d="M 134.5 93 L 135 95 L 133 94.5 L 134.5 93 Z " /><path fill="rgb(0,0,0)" stroke="rgb(0,0,0)" stroke-width="1" opacity="0.996078431372549" d="M 46.5 94 Q 49.1 93.3 48 96 L 40.5 98 L 41.5 96 L 46.5 94 Z " /><path fill="rgb(0,0,0)" stroke="rgb(0,0,0)" stroke-width="1" opacity="0.996078431372549" d="M 102.5 96 L 105 96.5 L 102.5 97 L 102.5 96 Z " /><path fill="rgb(0,0,0)" stroke="rgb(0,0,0)" stroke-width="1" opacity="0.996078431372549" d="M 36.5 98 L 35.5 100 L 34 99.5 L 36.5 98 Z " /><path fill="rgb(0,0,0)" stroke="rgb(0,0,0)" stroke-width="1" opacity="0.996078431372549" d="M 152 100 L 154 100.5 L 152.5 104 L 152 100 Z " /><path fill="rgb(0,0,0)" stroke="rgb(0,0,0)" stroke-width="1" opacity="0.996078431372549" d="M 30.5 101 L 29.5 103 L 30.5 101 Z " /><path fill="rgb(0,0,0)" stroke="rgb(0,0,0)" stroke-width="1" opacity="0.996078431372549" d="M 27.5 103 L 28 108 L 24 108 L 24 106.5 L 27.5 103 Z " /><path fill="rgb(0,0,0)" stroke="rgb(0,0,0)" stroke-width="1" opacity="0.996078431372549" d="M 155.5 105 L 162 107.5 L 156 108 L 155.5 105 Z " /><path fill="rgb(0,0,0)" stroke="rgb(0,0,0)" stroke-width="1" opacity="0.996078431372549" d="M 163.5 108 L 165.5 111 L 163.5 108 Z " /><path fill="rgb(0,0,0)" stroke="rgb(0,0,0)" stroke-width="1" opacity="0.996078431372549" d="M 166.5 112 L 167.5 114 L 166.5 112 Z " /><path fill="rgb(0,0,0)" stroke="rgb(0,0,0)" stroke-width="1" opacity="0.996078431372549" d="M 16.5 114 L 14.5 117 L 16.5 114 Z " /><path fill="rgb(0,0,0)" stroke="rgb(0,0,0)" stroke-width="1" opacity="0.996078431372549" d="M 11.5 122 L 12 123.5 L 10.5 126 L 10 124.5 L 11.5 122 Z " /><path fill="rgb(0,0,0)" stroke="rgb(0,0,0)" stroke-width="1" opacity="0.996078431372549" d="M 9.5 127 L 10 129.5 L 9 129.5 L 9.5 127 Z " /><path fill="rgb(0,0,0)" stroke="rgb(0,0,0)" stroke-width="1" opacity="0.996078431372549" d="M 187.5 131 L 188.5 133 L 187.5 131 Z " /><path fill="rgb(0,0,0)" stroke="rgb(0,0,0)" stroke-width="1" opacity="0.996078431372549" d="M 7.5 139 L 8 147.5 L 7 147.5 L 7.5 139 Z " /><path fill="rgb(0,0,0)" stroke="rgb(0,0,0)" stroke-width="1" opacity="0.996078431372549" d="M 191.5 141 L 192 144.5 L 191 144.5 L 191.5 141 Z " /><path fill="rgb(0,0,0)" stroke="rgb(0,0,0)" stroke-width="1" opacity="0.996078431372549" d="M 7.5 152 L 8 155.5 L 7 155.5 L 7.5 152 Z " /><path fill="rgb(0,0,0)" stroke="rgb(0,0,0)" stroke-width="1" opacity="0.996078431372549" d="M 191.5 163 L 192 169.5 L 191 169.5 L 191.5 163 Z " /><path fill="rgb(0,0,0)" stroke="rgb(0,0,0)" stroke-width="1" opacity="0.996078431372549" d="M 15.5 172 L 16.5 174 L 15.5 172 Z " /><path fill="rgb(0,0,0)" stroke="rgb(0,0,0)" stroke-width="1" opacity="0.996078431372549" d="M 21.5 180 Q 26.8 178.8 28 181.5 Q 29.3 185.7 24.5 184 L 23 181 L 21.5 180 Z " /><path fill="rgb(0,0,0)" stroke="rgb(0,0,0)" stroke-width="1" opacity="0.996078431372549" d="M 20.5 194 L 21 196.5 L 20 196.5 L 20.5 194 Z " /><path fill="rgb(63,62,58)" stroke="rgb(63,62,58)" stroke-width="1" opacity="1" d="M 120.5 63 L 131 63.5 L 120.5 64 L 120.5 63 Z " /><path fill="rgb(63,62,58)" stroke="rgb(63,62,58)" stroke-width="1" opacity="1" d="M 113.5 64 L 116 64.5 L 112.5 66 L 113.5 64 Z " /><path fill="rgb(63,62,58)" stroke="rgb(63,62,58)" stroke-width="1" opacity="1" d="M 132.5 64 L 139 65 Q 140.1 67.7 137.5 67 L 133.5 71 L 130.5 71 L 124 69.5 L 127.5 68 L 132.5 70 L 137 67 Q 138.3 63.3 132.5 65 L 132.5 64 Z " /><path fill="rgb(63,62,58)" stroke="rgb(63,62,58)" stroke-width="1" opacity="1" d="M 129.5 76 Q 132.3 77.3 131 82.5 L 130 82.5 L 129.5 76 Z " /><path fill="rgb(63,62,58)" stroke="rgb(63,62,58)" stroke-width="1" opacity="1" d="M 129.5 84 L 130 85.5 L 129 88 L 126.5 89 L 129 85.5 L 129.5 84 Z " /><path fill="rgb(63,62,58)" stroke="rgb(63,62,58)" stroke-width="1" opacity="1" d="M 105.5 85 L 106.5 87 L 105.5 85 Z " /><path fill="rgb(63,62,58)" stroke="rgb(63,62,58)" stroke-width="1" opacity="1" d="M 86.5 87 Q 90.5 86.5 91 89.5 Q 92.3 93.3 88.5 92 Q 85.8 90.8 88 89.5 Q 88.8 87.3 86.5 88 L 86.5 87 Z " /><path fill="rgb(63,62,58)" stroke="rgb(63,62,58)" stroke-width="1" opacity="1" d="M 112.5 88 L 115 88.5 L 112.5 89 L 112.5 88 Z " /><path fill="rgb(63,62,58)" stroke="rgb(63,62,58)" stroke-width="1" opacity="1" d="M 142.5 92 L 150 93 L 148 102 L 138 101 L 138.5 99 L 143 100 L 145 93 Q 141.7 93.8 142.5 92 Z " /><path fill="rgb(63,62,58)" stroke="rgb(63,62,58)" stroke-width="1" opacity="1" d="M 112.5 94 L 125.5 95 L 127.5 94 L 130 99 L 113 98 L 113.5 96 L 114.5 97 Q 123.5 96 128 98 Q 129.5 94.2 126.5 95 L 121.5 96 L 118.5 95 L 112.5 95 L 112.5 94 Z " /><path fill="rgb(63,62,58)" stroke="rgb(63,62,58)" stroke-width="1" opacity="1" d="M 139.5 94 L 140 96.5 L 139 96.5 L 139.5 94 Z " /><path fill="rgb(63,62,58)" stroke="rgb(63,62,58)" stroke-width="1" opacity="1" d="M 72.5 95 L 77 95.5 L 72.5 96 L 72.5 95 Z " /><path fill="rgb(63,62,58)" stroke="rgb(63,62,58)" stroke-width="1" opacity="1" d="M 110.5 96 L 111.5 98 L 110.5 96 Z " /><path fill="rgb(63,62,58)" stroke="rgb(63,62,58)" stroke-width="1" opacity="1" d="M 119.5 104 L 123.5 109 L 119.5 104 Z " /><path fill="rgb(63,62,58)" stroke="rgb(63,62,58)" stroke-width="1" opacity="1" d="M 124.5 104 L 127 104.5 L 124.5 105 L 124.5 104 Z " /><path fill="rgb(63,62,58)" stroke="rgb(63,62,58)" stroke-width="1" opacity="1" d="M 130.5 105 L 133 105.5 L 130.5 106 L 130.5 105 Z " /><path fill="rgb(63,62,58)" stroke="rgb(63,62,58)" stroke-width="1" opacity="1" d="M 137.5 106 L 140 106.5 L 137.5 107 L 137.5 106 Z " /><path fill="rgb(63,62,58)" stroke="rgb(63,62,58)" stroke-width="1" opacity="1" d="M 28.5 108 L 27 110.5 L 28 112.5 L 26 111.5 L 28.5 108 Z " /><path fill="rgb(63,62,58)" stroke="rgb(63,62,58)" stroke-width="1" opacity="1" d="M 125.5 111 L 127.5 113 L 135 113.5 L 127.5 114 L 125.5 111 Z " /><path fill="rgb(63,62,58)" stroke="rgb(63,62,58)" stroke-width="1" opacity="1" d="M 157.5 111 L 163 115.5 L 164 119 L 147.5 115 L 140 114.5 L 157.5 111 Z " /><path fill="rgb(63,62,58)" stroke="rgb(63,62,58)" stroke-width="1" opacity="1" d="M 71.5 112 L 74 112.5 L 71.5 113 L 71.5 112 Z " /><path fill="rgb(63,62,58)" stroke="rgb(63,62,58)" stroke-width="1" opacity="1" d="M 118.5 113 Q 124.8 118.8 128 127.5 L 130 137.5 L 130 154.5 Q 127.8 155.8 129 160.5 L 125 169.5 L 115.5 179 L 103.5 185 L 104.5 183 L 112 177.5 L 113 174.5 L 110 172.5 L 112.5 171 L 115.5 172 L 120 168.5 L 124 159.5 L 126 150.5 L 126 133.5 Q 123.5 121 118.5 113 Z " /><path fill="rgb(63,62,58)" stroke="rgb(63,62,58)" stroke-width="1" opacity="1" d="M 20.5 116 L 19.5 118 L 20.5 116 Z " /><path fill="rgb(63,62,58)" stroke="rgb(63,62,58)" stroke-width="1" opacity="1" d="M 24.5 116 L 25.5 118 L 24.5 116 Z " /><path fill="rgb(63,62,58)" stroke="rgb(63,62,58)" stroke-width="1" opacity="1" d="M 32.5 116 L 33.5 118 L 32.5 116 Z " /><path fill="rgb(63,62,58)" stroke="rgb(63,62,58)" stroke-width="1" opacity="1" d="M 68.5 132 L 80.5 132 L 92 137 L 95 142.5 L 95 150.5 Q 93.8 156.3 89.5 159 L 80.5 165 L 68.5 167 Q 66.8 164.3 60.5 166 L 54 161.5 Q 51 157.5 52 149.5 Q 54 139.5 61.5 135 L 68.5 132 Z " /><path fill="rgb(63,62,58)" stroke="rgb(63,62,58)" stroke-width="1" opacity="1" d="M 184.5 133 L 185.5 135 L 184.5 133 Z " /><path fill="rgb(63,62,58)" stroke="rgb(63,62,58)" stroke-width="1" opacity="1" d="M 135.5 135 L 136 137.5 L 135 137.5 L 135.5 135 Z " /><path fill="rgb(63,62,58)" stroke="rgb(63,62,58)" stroke-width="1" opacity="1" d="M 152.5 135 L 155 135.5 L 152.5 136 L 152.5 135 Z " /><path fill="rgb(63,62,58)" stroke="rgb(63,62,58)" stroke-width="1" opacity="1" d="M 145.5 138 L 144.5 140 L 145.5 138 Z " /><path fill="rgb(63,62,58)" stroke="rgb(63,62,58)" stroke-width="1" opacity="1" d="M 160.5 138 L 163.5 142 L 160.5 138 Z " /><path fill="rgb(63,62,58)" stroke="rgb(63,62,58)" stroke-width="1" opacity="1" d="M 150.5 141 L 149.5 143 L 150.5 141 Z " /><path fill="rgb(63,62,58)" stroke="rgb(63,62,58)" stroke-width="1" opacity="1" d="M 182.5 142 L 184 142.5 L 181.5 144 L 182.5 142 Z " /><path fill="rgb(63,62,58)" stroke="rgb(63,62,58)" stroke-width="1" opacity="1" d="M 157.5 143 Q 159.8 143.8 159 147.5 L 158 147.5 L 157.5 143 Z " /><path fill="rgb(63,62,58)" stroke="rgb(63,62,58)" stroke-width="1" opacity="1" d="M 164.5 143 L 165 148.5 L 164 148.5 L 164.5 143 Z " /><path fill="rgb(63,62,58)" stroke="rgb(63,62,58)" stroke-width="1" opacity="1" d="M 157.5 149 L 156.5 151 L 157.5 149 Z " /><path fill="rgb(63,62,58)" stroke="rgb(63,62,58)" stroke-width="1" opacity="1" d="M 162.5 152 L 159.5 156 L 162.5 152 Z " /><path fill="rgb(63,62,58)" stroke="rgb(63,62,58)" stroke-width="1" opacity="1" d="M 135.5 155 L 136 157.5 L 135 157.5 L 135.5 155 Z " /><path fill="rgb(63,62,58)" stroke="rgb(63,62,58)" stroke-width="1" opacity="1" d="M 144.5 155 L 145.5 157 L 144.5 155 Z " /><path fill="rgb(63,62,58)" stroke="rgb(63,62,58)" stroke-width="1" opacity="1" d="M 157.5 156 L 156.5 158 L 155 157.5 L 157.5 156 Z " /><path fill="rgb(63,62,58)" stroke="rgb(63,62,58)" stroke-width="1" opacity="1" d="M 183.5 157 L 184.5 159 L 183.5 157 Z " /><path fill="rgb(63,62,58)" stroke="rgb(63,62,58)" stroke-width="1" opacity="1" d="M 178.5 160 L 181.5 164 L 178.5 160 Z " /><path fill="rgb(63,62,58)" stroke="rgb(63,62,58)" stroke-width="1" opacity="1" d="M 38.5 161 L 39.5 163 L 38.5 161 Z " /><path fill="rgb(63,62,58)" stroke="rgb(63,62,58)" stroke-width="1" opacity="1" d="M 134.5 161 L 135 163 L 145.5 163 L 146.5 164 L 164.5 166 L 186 173 L 183.5 178 L 172.5 174 L 147.5 169 L 133 167.5 L 134.5 161 Z " /><path fill="rgb(63,62,58)" stroke="rgb(63,62,58)" stroke-width="1" opacity="1" d="M 41.5 164 L 42.5 166 L 41.5 164 Z " /><path fill="rgb(63,62,58)" stroke="rgb(63,62,58)" stroke-width="1" opacity="1" d="M 114.5 165 L 113.5 167 L 114.5 165 Z " /><path fill="rgb(63,62,58)" stroke="rgb(63,62,58)" stroke-width="1" opacity="1" d="M 186.5 165 L 187 169.5 L 186 169.5 L 186.5 165 Z " /><path fill="rgb(63,62,58)" stroke="rgb(63,62,58)" stroke-width="1" opacity="1" d="M 57.5 171 L 60 171.5 L 57.5 172 L 57.5 171 Z " /><path fill="rgb(63,62,58)" stroke="rgb(63,62,58)" stroke-width="1" opacity="1" d="M 130.5 173 L 170.5 180 L 177.5 182 L 180 184.5 L 180 199.5 L 179.5 200 L 35.5 200 L 29 187.5 L 32.5 190 L 54.5 197 L 80.5 198 L 104.5 192 L 121.5 183 L 127 177.5 L 130.5 173 Z " /><path fill="rgb(63,62,58)" stroke="rgb(63,62,58)" stroke-width="1" opacity="1" d="M 23.5 175 L 27.5 180 L 23.5 175 Z " /><path fill="rgb(63,62,58)" stroke="rgb(63,62,58)" stroke-width="1" opacity="1" d="M 102.5 177 L 101.5 179 L 102.5 177 Z " /><path fill="rgb(63,62,58)" stroke="rgb(63,62,58)" stroke-width="1" opacity="1" d="M 65.5 180 L 66 182.5 L 65 182.5 L 65.5 180 Z " /><path fill="rgb(0,0,0)" stroke="rgb(0,0,0)" stroke-width="1" opacity="1" d="M 116.5 59 L 123.5 60 L 127.5 59 L 131.5 60 L 135.5 59 L 143.5 62 L 146 64.5 Q 146.5 69.5 142.5 70 Q 140.5 72.8 136 72 L 137 78.5 L 135 81.5 L 134 88 Q 130.3 86.7 132 92.5 L 133 95 Q 136 96.3 135 92.5 L 138.5 87 L 152.5 89 L 155 91.5 L 154 95.5 L 154 97.5 Q 155 101.3 152 100 L 152 103.5 L 156 106.5 Q 155.5 109.5 162.5 108 L 169 115.5 L 171 121.5 L 173.5 124 Q 182.1 125.4 187 130.5 L 188.5 133 Q 190.8 132.3 190 134.5 L 192 140.5 L 191 144.5 L 195 152.5 L 195 155.5 L 191 163.5 L 191 173.5 L 190 174.5 L 190 176.5 L 189 181 L 185 183.5 L 185 199.5 L 181 200 L 181 185.5 L 180 182 L 170.5 179 L 129.5 172 L 122.5 181 Q 109.5 190.5 91.5 195 L 80.5 197 L 61.5 197 L 46.5 194 L 42.5 192 L 38.5 192 L 27.5 185 L 26 186.5 L 24 200 Q 18.8 202.1 20 197.5 L 23 184 L 28 184 L 28 181.5 L 27.5 180 L 36.5 186 L 40.5 186 Q 48.6 190.6 60 191 L 62 171 Q 47.3 171 40 162.5 Q 32 155.5 32 140.5 L 38 125 L 34.5 124 L 21.5 114 Q 15.6 119.6 13 128.5 Q 14.2 136.2 11 139.5 L 11 147.5 L 12 151.5 L 11 154.5 Q 15.5 170 26 179.5 L 21.5 180 L 9 161.5 L 7 148.5 L 8 147.5 L 8 136.5 L 9 135.5 L 9 133.5 L 12 120.5 L 18.5 112 Q 20.8 112.8 20 110.5 L 23.5 107 L 24.5 108 L 28 108 L 28 103 L 29.5 103 L 39.5 97 L 41.5 97 L 48 96 Q 46.9 93.3 49.5 94 L 64.5 91 L 79.5 91 L 81 89.5 Q 80.3 83.3 84.5 82 Q 89.5 81 88.5 84 L 92.5 84 L 96 88.5 Q 94.8 93.8 97.5 95 L 105 97 L 107 92.5 L 104 91 L 104 88 L 101 87.5 L 101 80.5 Q 103.8 69 109 61 L 116.5 59 Z M 123 62 L 122 63 L 114 63 Q 110 65 110 70 L 127 70 L 131 72 L 134 72 L 141 66 L 136 63 L 128 63 L 127 62 L 125 63 L 123 62 Z M 110 74 L 108 75 L 106 77 L 104 86 L 110 89 Q 116 87 118 90 L 129 89 Q 133 86 132 78 L 130 75 L 126 74 L 110 74 Z M 87 86 L 84 91 L 89 93 Q 94 95 92 89 L 87 86 Z M 141 91 L 137 101 L 149 103 L 151 94 L 150 92 L 141 91 Z M 112 93 L 109 99 L 127 99 L 131 100 L 129 93 L 127 94 L 112 93 Z M 62 95 L 38 102 L 27 109 L 25 112 L 41 123 L 52 116 L 65 113 Q 75 112 81 115 L 93 123 L 96 123 L 109 114 L 112 115 L 112 113 L 115 111 Q 123 119 125 134 Q 127 158 117 170 L 113 169 L 119 159 L 121 150 Q 123 126 113 115 L 112 117 L 96 126 L 99 134 L 100 146 L 101 147 Q 101 155 97 159 Q 89 169 74 172 Q 69 173 68 171 L 65 176 L 65 185 L 64 186 Q 63 190 66 191 Q 94 189 110 173 Q 112 172 111 177 Q 103 185 92 189 L 92 190 Q 105 187 115 181 L 124 173 L 128 167 L 131 155 L 131 138 L 129 128 Q 124 115 115 107 Q 112 106 113 109 L 110 110 L 103 102 L 96 98 L 82 95 L 62 95 Z M 118 103 L 124 112 L 127 114 L 143 115 L 166 121 L 167 121 L 163 114 L 159 110 L 149 107 L 132 105 L 125 103 L 118 103 Z M 67 117 L 57 119 L 48 123 Q 40 128 37 139 Q 36 147 38 152 L 48 163 L 49 163 L 47 160 Q 45 145 51 138 Q 58 129 71 126 L 84 127 L 92 131 L 93 131 L 91 128 L 80 119 L 73 117 L 67 117 Z M 131 118 L 129 120 L 133 127 L 135 136 L 135 157 L 132 168 L 134 169 L 148 170 L 158 173 L 173 175 L 183 179 L 186 178 Q 188 174 187 166 L 180 162 L 178 159 Q 177 149 180 145 L 184 143 L 187 143 Q 188 136 186 133 L 168 125 L 142 119 L 131 118 Z M 69 131 L 59 136 L 54 141 L 51 150 Q 50 158 53 162 L 60 167 Q 66 165 68 168 Q 82 168 89 161 Q 95 157 97 149 L 94 139 Q 87 129 69 131 Z M 185 147 L 182 150 Q 181 156 183 159 L 188 160 L 191 156 L 190 151 Q 190 147 185 147 Z " /><path fill="rgb(0,0,0)" stroke="rgb(0,0,0)" stroke-width="1" opacity="1" d="M 153.5 136 Q 160 137.5 163 142.5 L 164 147.5 Q 162.6 153.6 157.5 156 L 148.5 157 L 144 153.5 Q 141.7 150.3 143 143.5 L 146.5 139 L 153.5 136 Z M 151 140 L 147 145 Q 146 152 150 153 L 155 153 L 158 151 L 160 147 L 159 143 L 151 140 Z " /><path fill="rgb(108,108,108)" stroke="rgb(108,108,108)" stroke-width="1" opacity="1" d="M 116.5 64 L 131.5 64 L 137 65 Q 138.1 67.7 135.5 67 Q 135 70.5 130.5 70 L 125.5 68 L 124.5 69 L 111.5 69 L 112 67.5 L 113.5 65 L 116.5 64 Z " /><path fill="rgb(108,108,108)" stroke="rgb(108,108,108)" stroke-width="1" opacity="1" d="M 86 88 Q 88.7 86.9 88 89.5 L 86 90.5 L 86 88 Z " /><path fill="rgb(108,108,108)" stroke="rgb(108,108,108)" stroke-width="1" opacity="1" d="M 141.5 92 L 145 93 L 143 100 Q 137.8 102.1 139 97.5 L 141.5 92 Z " /><path fill="rgb(108,108,108)" stroke="rgb(108,108,108)" stroke-width="1" opacity="1" d="M 111 95 L 118.5 95 L 119.5 96 L 121.5 96 L 128 95 Q 129.7 99.1 125.5 98 L 124.5 97 L 114.5 97 L 113.5 96 L 112.5 98 L 110 97.5 L 111 95 Z " /><path fill="rgb(108,108,108)" stroke="rgb(108,108,108)" stroke-width="1" opacity="1" d="M 80.5 96 L 83 96.5 L 80.5 97 L 80.5 96 Z " /><path fill="rgb(108,108,108)" stroke="rgb(108,108,108)" stroke-width="1" opacity="1" d="M 94.5 99 L 97 99.5 L 94.5 100 L 94.5 99 Z " /><path fill="rgb(108,108,108)" stroke="rgb(108,108,108)" stroke-width="1" opacity="1" d="M 101.5 101 L 108 108.5 L 101 102.5 L 101.5 101 Z " /><path fill="rgb(108,108,108)" stroke="rgb(108,108,108)" stroke-width="1" opacity="1" d="M 120.5 104 L 147.5 108 L 157 111.5 Q 149.8 111.3 145.5 114 L 135.5 114 Q 133.8 111.2 127.5 113 L 124 109.5 L 120.5 104 Z " /><path fill="rgb(108,108,108)" stroke="rgb(108,108,108)" stroke-width="1" opacity="1" d="M 31.5 106 L 30.5 108 L 31.5 106 Z " /><path fill="rgb(108,108,108)" stroke="rgb(108,108,108)" stroke-width="1" opacity="1" d="M 108.5 110 L 110 112.5 L 109 112.5 L 108.5 110 Z " /><path fill="rgb(108,108,108)" stroke="rgb(108,108,108)" stroke-width="1" opacity="1" d="M 62.5 112 L 65 112.5 L 62.5 113 L 62.5 112 Z " /><path fill="rgb(108,108,108)" stroke="rgb(108,108,108)" stroke-width="1" opacity="1" d="M 57.5 113 L 60 113.5 L 57.5 114 L 57.5 113 Z " /><path fill="rgb(108,108,108)" stroke="rgb(108,108,108)" stroke-width="1" opacity="1" d="M 107.5 113 L 106.5 115 L 107.5 113 Z " /><path fill="rgb(108,108,108)" stroke="rgb(108,108,108)" stroke-width="1" opacity="1" d="M 30.5 114 L 31.5 116 L 30.5 114 Z " /><path fill="rgb(108,108,108)" stroke="rgb(108,108,108)" stroke-width="1" opacity="1" d="M 104.5 115 L 103.5 117 L 104.5 115 Z " /><path fill="rgb(108,108,108)" stroke="rgb(108,108,108)" stroke-width="1" opacity="1" d="M 48.5 116 L 47.5 118 L 48.5 116 Z " /><path fill="rgb(108,108,108)" stroke="rgb(108,108,108)" stroke-width="1" opacity="1" d="M 85.5 116 L 86.5 118 L 85.5 116 Z " /><path fill="rgb(108,108,108)" stroke="rgb(108,108,108)" stroke-width="1" opacity="1" d="M 34.5 117 L 35.5 119 L 34.5 117 Z " /><path fill="rgb(108,108,108)" stroke="rgb(108,108,108)" stroke-width="1" opacity="1" d="M 26.5 118 L 28.5 121 L 26.5 118 Z " /><path fill="rgb(108,108,108)" stroke="rgb(108,108,108)" stroke-width="1" opacity="1" d="M 99.5 118 L 98.5 120 L 99.5 118 Z " /><path fill="rgb(108,108,108)" stroke="rgb(108,108,108)" stroke-width="1" opacity="1" d="M 37.5 119 L 38.5 121 L 37.5 119 Z " /><path fill="rgb(108,108,108)" stroke="rgb(108,108,108)" stroke-width="1" opacity="1" d="M 43.5 119 L 41.5 122 L 40 121.5 L 43.5 119 Z " /><path fill="rgb(108,108,108)" stroke="rgb(108,108,108)" stroke-width="1" opacity="1" d="M 90.5 119 L 92.5 122 L 90.5 119 Z " /><path fill="rgb(108,108,108)" stroke="rgb(108,108,108)" stroke-width="1" opacity="1" d="M 130.5 119 L 135 119.5 L 130.5 120 L 130.5 119 Z " /><path fill="rgb(108,108,108)" stroke="rgb(108,108,108)" stroke-width="1" opacity="1" d="M 140.5 120 L 143 120.5 L 140.5 121 L 140.5 120 Z " /><path fill="rgb(108,108,108)" stroke="rgb(108,108,108)" stroke-width="1" opacity="1" d="M 145.5 121 L 148 121.5 L 145.5 122 L 145.5 121 Z " /><path fill="rgb(108,108,108)" stroke="rgb(108,108,108)" stroke-width="1" opacity="1" d="M 150.5 122 L 153 122.5 L 150.5 123 L 150.5 122 Z " /><path fill="rgb(108,108,108)" stroke="rgb(108,108,108)" stroke-width="1" opacity="1" d="M 133 123 Q 136.8 122.3 138 125.5 L 140.5 129 L 143.5 129 L 149.5 126 Q 150 129.5 154.5 129 Q 155.8 126.8 160.5 128 L 173.5 132 L 179 135.5 L 180 140 L 184.5 141 L 186 140.5 Q 186.9 143.5 182.5 142 Q 174.7 145.2 177 158.5 L 181.5 164 L 186 165 L 186 173 L 183.5 173 L 164.5 166 L 146.5 164 L 145.5 163 L 135 163 L 136 157.5 L 136 135.5 L 133 123 Z M 153 135 L 146 138 L 142 144 Q 141 152 144 156 L 148 158 Q 156 160 160 156 L 165 149 L 164 142 Q 160 136 153 135 Z " /><path fill="rgb(108,108,108)" stroke="rgb(108,108,108)" stroke-width="1" opacity="1" d="M 35.5 129 L 34.5 131 L 35.5 129 Z " /><path fill="rgb(108,108,108)" stroke="rgb(108,108,108)" stroke-width="1" opacity="1" d="M 119.5 133 L 120 135.5 L 119 135.5 L 119.5 133 Z " /><path fill="rgb(108,108,108)" stroke="rgb(108,108,108)" stroke-width="1" opacity="1" d="M 183.5 133 L 186 136.5 L 185 136.5 L 183.5 133 Z " /><path fill="rgb(108,108,108)" stroke="rgb(108,108,108)" stroke-width="1" opacity="1" d="M 31.5 138 L 32 146.5 L 31 146.5 L 31.5 138 Z " /><path fill="rgb(108,108,108)" stroke="rgb(108,108,108)" stroke-width="1" opacity="1" d="M 151.5 141 L 154 141.5 L 151.5 142 L 151.5 141 Z " /><path fill="rgb(108,108,108)" stroke="rgb(108,108,108)" stroke-width="1" opacity="1" d="M 155.5 142 Q 159 143 158 148.5 Q 156.4 152.9 149.5 152 L 148.5 150 L 149.5 151 L 156 144.5 L 155.5 142 Z " /><path fill="rgb(108,108,108)" stroke="rgb(108,108,108)" stroke-width="1" opacity="1" d="M 101.5 146 L 102 149.5 L 101 149.5 L 101.5 146 Z " /><path fill="rgb(108,108,108)" stroke="rgb(108,108,108)" stroke-width="1" opacity="1" d="M 119.5 148 L 120 150.5 L 119 150.5 L 119.5 148 Z " /><path fill="rgb(108,108,108)" stroke="rgb(108,108,108)" stroke-width="1" opacity="1" d="M 188.5 150 L 190 155.5 L 187.5 159 Q 183.5 159.5 183 156.5 L 182 152.5 L 183 152.5 Q 181.9 155.8 184.5 155 L 188.5 150 Z " /><path fill="rgb(108,108,108)" stroke="rgb(108,108,108)" stroke-width="1" opacity="1" d="M 118.5 153 L 119 155.5 L 118 155.5 L 118.5 153 Z " /><path fill="rgb(108,108,108)" stroke="rgb(108,108,108)" stroke-width="1" opacity="1" d="M 115.5 162 L 116 163.5 L 113 165.5 L 115.5 162 Z " /><path fill="rgb(108,108,108)" stroke="rgb(108,108,108)" stroke-width="1" opacity="1" d="M 39.5 163 L 40.5 165 L 39.5 163 Z " /><path fill="rgb(108,108,108)" stroke="rgb(108,108,108)" stroke-width="1" opacity="1" d="M 91.5 164 L 90.5 166 L 91.5 164 Z " /><path fill="rgb(108,108,108)" stroke="rgb(108,108,108)" stroke-width="1" opacity="1" d="M 43.5 166 L 44.5 168 L 43.5 166 Z " /><path fill="rgb(108,108,108)" stroke="rgb(108,108,108)" stroke-width="1" opacity="1" d="M 46.5 168 L 49 169.5 L 47.5 170 L 46.5 168 Z " /><path fill="rgb(108,108,108)" stroke="rgb(108,108,108)" stroke-width="1" opacity="1" d="M 112.5 170 L 111.5 172 L 112.5 170 Z " /><path fill="rgb(108,108,108)" stroke="rgb(108,108,108)" stroke-width="1" opacity="1" d="M 54.5 171 L 57 171.5 L 54.5 172 L 54.5 171 Z " /><path fill="rgb(108,108,108)" stroke="rgb(108,108,108)" stroke-width="1" opacity="1" d="M 67.5 172 L 74 172.5 L 67.5 173 L 67.5 172 Z " /><path fill="rgb(108,108,108)" stroke="rgb(108,108,108)" stroke-width="1" opacity="1" d="M 107.5 172 L 103.5 177 L 107.5 172 Z " /><path fill="rgb(108,108,108)" stroke="rgb(108,108,108)" stroke-width="1" opacity="1" d="M 60.5 174 L 61 177.5 L 60 177.5 L 60.5 174 Z " /><path fill="rgb(108,108,108)" stroke="rgb(108,108,108)" stroke-width="1" opacity="1" d="M 28.5 179 L 29.5 181 L 28.5 179 Z " /><path fill="rgb(108,108,108)" stroke="rgb(108,108,108)" stroke-width="1" opacity="1" d="M 98.5 179 L 97.5 181 L 98.5 179 Z " /><path fill="rgb(108,108,108)" stroke="rgb(108,108,108)" stroke-width="1" opacity="1" d="M 59.5 183 L 60 188.5 Q 59 191 54.5 190 L 54.5 189 L 59 189 L 59.5 183 Z " /><path fill="rgb(108,108,108)" stroke="rgb(108,108,108)" stroke-width="1" opacity="1" d="M 38.5 185 L 42 185.5 L 38.5 186 L 38.5 185 Z " /><path fill="rgb(108,108,108)" stroke="rgb(108,108,108)" stroke-width="1" opacity="1" d="M 27 187 L 31 189.5 L 35 199.5 L 25 200 L 27 187 Z " /><path fill="rgb(108,108,108)" stroke="rgb(108,108,108)" stroke-width="1" opacity="1" d="M 74.5 188 L 77 188.5 L 74.5 189 L 74.5 188 Z " /></svg>