<svg width="200" height="200" version="1.1" xmlns="http://www.w3.org/2000/svg" desc="Created with imagetracer.js version 1.2.6" ><path fill="rgb(0,0,0)" stroke="rgb(0,0,0)" stroke-width="1" opacity="0" d="M 0 0 L 200 0 L 200 200 L 168.5 200 L 168 196.5 L 165 182.5 L 159 167.5 L 159 162.5 L 165 153.5 L 170 137.5 L 174 114.5 L 174 101.5 L 176 93.5 L 176 77.5 Q 172.1 67.4 163.5 62 L 150.5 54 L 129.5 48 L 117.5 47 L 116.5 46 L 93.5 46 L 92.5 47 L 78.5 48 L 70.5 51 L 65.5 51 L 59.5 53 Q 45.6 58.6 37 69.5 L 30 84.5 L 29 107.5 L 31 116.5 L 32 133.5 L 33 134.5 L 33 145.5 Q 30.7 146.7 32 151.5 Q 34.4 161.6 41.5 167 L 45 168 L 30 187.5 L 25 200 L 0.5 200 L 0 199.5 L 0 0 Z " /><path fill="rgb(98,110,137)" stroke="rgb(98,110,137)" stroke-width="1" opacity="1" d="M 99.5 52 L 120.5 53 L 130.5 55 L 135 57.5 L 133.5 60 L 97.5 63 L 86.5 66 L 81.5 66 L 77 68.5 L 79.5 70 L 93.5 72 L 98 75.5 L 97.5 77 L 87.5 77 L 61.5 82 L 49.5 87 L 46 90.5 L 41 101.5 L 37.5 120 L 35 99.5 L 36 98.5 L 37 83.5 Q 40.7 73.2 48.5 67 L 65.5 58 L 69.5 58 L 82.5 54 L 98.5 53 L 99.5 52 Z " /><path fill="rgb(98,110,137)" stroke="rgb(98,110,137)" stroke-width="1" opacity="1" d="M 110.5 112 L 113 112.5 L 107.5 115 L 108.5 113 L 110.5 112 Z " /><path fill="rgb(98,110,137)" stroke="rgb(98,110,137)" stroke-width="1" opacity="1" d="M 121.5 114 L 123 116.5 L 122 116.5 L 121.5 114 Z " /><path fill="rgb(98,110,137)" stroke="rgb(98,110,137)" stroke-width="1" opacity="1" d="M 62.5 115 L 60.5 118 L 62.5 115 Z " /><path fill="rgb(98,110,137)" stroke="rgb(98,110,137)" stroke-width="1" opacity="1" d="M 105.5 115 L 102.5 119 L 105.5 115 Z " /><path fill="rgb(98,110,137)" stroke="rgb(98,110,137)" stroke-width="1" opacity="1" d="M 73.5 117 L 76.5 121 L 73.5 117 Z " /><path fill="rgb(98,110,137)" stroke="rgb(98,110,137)" stroke-width="1" opacity="1" d="M 59.5 119 L 60 121.5 L 59 121.5 L 59.5 119 Z " /><path fill="rgb(98,110,137)" stroke="rgb(98,110,137)" stroke-width="1" opacity="1" d="M 122.5 119 L 123 120.5 L 119 123.5 L 122.5 119 Z " /><path fill="rgb(98,110,137)" stroke="rgb(98,110,137)" stroke-width="1" opacity="1" d="M 102.5 123 L 103.5 125 L 102.5 123 Z " /><path fill="rgb(98,110,137)" stroke="rgb(98,110,137)" stroke-width="1" opacity="1" d="M 61.5 125 L 62.5 127 L 61.5 125 Z " /><path fill="rgb(98,110,137)" stroke="rgb(98,110,137)" stroke-width="1" opacity="1" d="M 139.5 137 L 141 139.5 L 141 151.5 L 136.5 161 L 135 160.5 L 138 151.5 L 139.5 137 Z " /><path fill="rgb(98,110,137)" stroke="rgb(98,110,137)" stroke-width="1" opacity="1" d="M 45.5 179 L 46 181.5 L 44 187.5 L 43 200 L 32.5 200 L 32 198.5 Q 36.5 186.5 45.5 179 Z " /><path fill="rgb(71,80,101)" stroke="rgb(71,80,101)" stroke-width="1" opacity="1" d="M 94.5 52 L 99 52.5 L 94.5 53 L 94.5 52 Z " /><path fill="rgb(71,80,101)" stroke="rgb(71,80,101)" stroke-width="1" opacity="1" d="M 111.5 52 L 116 52.5 L 111.5 53 L 111.5 52 Z " /><path fill="rgb(71,80,101)" stroke="rgb(71,80,101)" stroke-width="1" opacity="1" d="M 135 57 L 149.5 61 L 166 74.5 L 164.5 77 L 153.5 84 L 148.5 81 L 133.5 79 L 134 80.5 L 139 90.5 L 139 96 L 133.5 96 Q 128.5 90 119.5 88 L 85.5 88 L 84.5 89 L 75.5 89 L 64.5 92 L 50.5 99 L 45 104.5 L 41 114.5 L 39.5 131 L 37 120.5 L 43 95.5 L 49.5 87 L 61.5 82 L 74.5 79 L 86.5 78 L 87.5 77 L 98 77 L 95.5 73 L 84.5 70 L 79.5 70 L 77 68.5 L 81.5 66 L 86.5 66 L 97.5 63 L 133.5 60 L 135 58.5 L 135 57 Z " /><path fill="rgb(71,80,101)" stroke="rgb(71,80,101)" stroke-width="1" opacity="1" d="M 35.5 92 L 36 98.5 L 35 98.5 L 35.5 92 Z " /><path fill="rgb(71,80,101)" stroke="rgb(71,80,101)" stroke-width="1" opacity="1" d="M 36.5 111 L 37 114.5 L 36 114.5 L 36.5 111 Z " /><path fill="rgb(71,80,101)" stroke="rgb(71,80,101)" stroke-width="1" opacity="1" d="M 141.5 142 L 142 147.5 L 141 147.5 L 141.5 142 Z " /><path fill="rgb(71,80,101)" stroke="rgb(71,80,101)" stroke-width="1" opacity="1" d="M 48.5 176 L 56 179 Q 54.8 187.3 57 191 Q 49.7 192.4 46 198.5 Q 46.7 201.5 43 200 L 43 193.5 L 46 179.5 L 42 181.5 L 48.5 176 Z " /><path fill="rgb(71,80,101)" stroke="rgb(71,80,101)" stroke-width="1" opacity="1" d="M 126.5 179 L 127 190.5 L 124.5 192 L 121 190 L 126.5 179 Z " /><path fill="rgb(71,80,101)" stroke="rgb(71,80,101)" stroke-width="1" opacity="1" d="M 64.5 182 L 79.5 188 L 100 192.5 L 90.5 200 L 76.5 194 L 71.5 194 L 65 192 Q 62.9 188.9 64.5 182 Z " /><path fill="rgb(61,67,79)" stroke="rgb(61,67,79)" stroke-width="1" opacity="1" d="M 159.5 67 L 160.5 69 L 159.5 67 Z " /><path fill="rgb(61,67,79)" stroke="rgb(61,67,79)" stroke-width="1" opacity="1" d="M 163.5 71 L 165.5 74 L 163.5 71 Z " /><path fill="rgb(61,67,79)" stroke="rgb(61,67,79)" stroke-width="1" opacity="1" d="M 166.5 75 L 164.5 78 L 166.5 75 Z " /><path fill="rgb(61,67,79)" stroke="rgb(61,67,79)" stroke-width="1" opacity="1" d="M 133.5 79 L 134.5 81 L 133.5 79 Z " /><path fill="rgb(61,67,79)" stroke="rgb(61,67,79)" stroke-width="1" opacity="1" d="M 161.5 79 L 160.5 81 L 161.5 79 Z " /><path fill="rgb(61,67,79)" stroke="rgb(61,67,79)" stroke-width="1" opacity="1" d="M 88.5 88 L 96 88.5 L 88.5 89 L 88.5 88 Z " /><path fill="rgb(61,67,79)" stroke="rgb(61,67,79)" stroke-width="1" opacity="1" d="M 113.5 88 L 118 88.5 L 113.5 89 L 113.5 88 Z " /><path fill="rgb(61,67,79)" stroke="rgb(61,67,79)" stroke-width="1" opacity="1" d="M 78.5 89 L 83 89.5 L 78.5 90 L 78.5 89 Z " /><path fill="rgb(61,67,79)" stroke="rgb(61,67,79)" stroke-width="1" opacity="1" d="M 72.5 90 L 75 90.5 L 72.5 91 L 72.5 90 Z " /><path fill="rgb(61,67,79)" stroke="rgb(61,67,79)" stroke-width="1" opacity="1" d="M 126.5 91 L 127.5 93 L 126.5 91 Z " /><path fill="rgb(61,67,79)" stroke="rgb(61,67,79)" stroke-width="1" opacity="1" d="M 49.5 100 L 46.5 104 L 49.5 100 Z " /><path fill="rgb(61,67,79)" stroke="rgb(61,67,79)" stroke-width="1" opacity="1" d="M 83.5 101 L 101 101.5 L 83.5 102 L 83.5 101 Z " /><path fill="rgb(61,67,79)" stroke="rgb(61,67,79)" stroke-width="1" opacity="1" d="M 74.5 102 L 77 102.5 L 74.5 103 L 74.5 102 Z " /><path fill="rgb(61,67,79)" stroke="rgb(61,67,79)" stroke-width="1" opacity="1" d="M 108.5 102 L 111 102.5 L 108.5 103 L 108.5 102 Z " /><path fill="rgb(61,67,79)" stroke="rgb(61,67,79)" stroke-width="1" opacity="1" d="M 127.5 108 L 128.5 110 L 127.5 108 Z " /><path fill="rgb(61,67,79)" stroke="rgb(61,67,79)" stroke-width="1" opacity="1" d="M 41.5 116 L 42 120.5 L 41 120.5 L 41.5 116 Z " /><path fill="rgb(61,67,79)" stroke="rgb(61,67,79)" stroke-width="1" opacity="1" d="M 53.5 117 L 54 119.5 L 53 119.5 L 53.5 117 Z " /><path fill="rgb(61,67,79)" stroke="rgb(61,67,79)" stroke-width="1" opacity="1" d="M 133.5 121 L 134 127.5 L 133 127.5 L 133.5 121 Z " /><path fill="rgb(61,67,79)" stroke="rgb(61,67,79)" stroke-width="1" opacity="1" d="M 86.5 124 L 102 124.5 L 86.5 125 L 86.5 124 Z " /><path fill="rgb(61,67,79)" stroke="rgb(61,67,79)" stroke-width="1" opacity="1" d="M 116.5 125 L 120 125.5 L 116.5 126 L 116.5 125 Z " /><path fill="rgb(61,67,79)" stroke="rgb(61,67,79)" stroke-width="1" opacity="1" d="M 123.5 126 L 126 126.5 L 123.5 127 L 123.5 126 Z " /><path fill="rgb(61,67,79)" stroke="rgb(61,67,79)" stroke-width="1" opacity="1" d="M 38.5 127 L 39 131.5 L 38 131.5 L 38.5 127 Z " /><path fill="rgb(61,67,79)" stroke="rgb(61,67,79)" stroke-width="1" opacity="1" d="M 40.5 127 L 41 131.5 L 40 131.5 L 40.5 127 Z " /><path fill="rgb(61,67,79)" stroke="rgb(61,67,79)" stroke-width="1" opacity="1" d="M 62.5 127 L 66 127.5 L 62.5 128 L 62.5 127 Z " /><path fill="rgb(61,67,79)" stroke="rgb(61,67,79)" stroke-width="1" opacity="1" d="M 86.5 131 L 106.5 131 L 107.5 132 L 119.5 132 L 121 133.5 L 74.5 138 Q 73.3 140.3 68.5 139 L 63 142.5 L 72 146.5 L 70.5 148 Q 64.4 147.4 61.5 150 L 54 150 L 53 136 L 67.5 133 L 85.5 132 L 86.5 131 Z " /><path fill="rgb(61,67,79)" stroke="rgb(61,67,79)" stroke-width="1" opacity="1" d="M 48.5 175 L 50 175.5 L 46.5 178 L 48.5 175 Z " /><path fill="rgb(61,67,79)" stroke="rgb(61,67,79)" stroke-width="1" opacity="1" d="M 55.5 178 Q 58.8 179.8 57 186.5 L 56 186.5 Q 56.6 179.8 55.5 178 Z " /><path fill="rgb(61,67,79)" stroke="rgb(61,67,79)" stroke-width="1" opacity="1" d="M 98.5 191 L 101 191.5 L 98.5 192 L 98.5 191 Z " /><path fill="rgb(61,67,79)" stroke="rgb(61,67,79)" stroke-width="1" opacity="1" d="M 123.5 191 L 124.5 193 L 123.5 191 Z " /><path fill="rgb(61,67,79)" stroke="rgb(61,67,79)" stroke-width="1" opacity="1" d="M 50.5 194 L 47.5 198 L 50.5 194 Z " /><path fill="rgb(61,67,79)" stroke="rgb(61,67,79)" stroke-width="1" opacity="1" d="M 96.5 195 L 93.5 199 L 96.5 195 Z " /><path fill="rgb(65,74,94)" stroke="rgb(65,74,94)" stroke-width="1" opacity="1" d="M 157.5 66 L 158.5 68 L 157.5 66 Z " /><path fill="rgb(65,74,94)" stroke="rgb(65,74,94)" stroke-width="1" opacity="1" d="M 163.5 77 L 162.5 79 L 163.5 77 Z " /><path fill="rgb(65,74,94)" stroke="rgb(65,74,94)" stroke-width="1" opacity="1" d="M 159.5 80 L 158.5 82 L 159.5 80 Z " /><path fill="rgb(65,74,94)" stroke="rgb(65,74,94)" stroke-width="1" opacity="1" d="M 85.5 88 L 88 88.5 L 85.5 89 L 85.5 88 Z " /><path fill="rgb(65,74,94)" stroke="rgb(65,74,94)" stroke-width="1" opacity="1" d="M 75.5 89 L 78 89.5 L 75.5 90 L 75.5 89 Z " /><path fill="rgb(65,74,94)" stroke="rgb(65,74,94)" stroke-width="1" opacity="1" d="M 128.5 92 L 129.5 94 L 128.5 92 Z " /><path fill="rgb(65,74,94)" stroke="rgb(65,74,94)" stroke-width="1" opacity="1" d="M 139.5 93 L 140 95.5 L 139 95.5 L 139.5 93 Z " /><path fill="rgb(65,74,94)" stroke="rgb(65,74,94)" stroke-width="1" opacity="1" d="M 40.5 123 L 41 126.5 L 40 126.5 L 40.5 123 Z " /><path fill="rgb(65,74,94)" stroke="rgb(65,74,94)" stroke-width="1" opacity="1" d="M 127.5 181 L 128 186.5 L 127 186.5 L 127.5 181 Z " /><path fill="rgb(65,74,94)" stroke="rgb(65,74,94)" stroke-width="1" opacity="1" d="M 63.5 182 L 64 187.5 L 63 187.5 L 63.5 182 Z " /><path fill="rgb(65,74,94)" stroke="rgb(65,74,94)" stroke-width="1" opacity="1" d="M 87.5 189 L 90 189.5 L 87.5 190 L 87.5 189 Z " /><path fill="rgb(65,74,94)" stroke="rgb(65,74,94)" stroke-width="1" opacity="1" d="M 126.5 191 L 125.5 193 L 126.5 191 Z " /><path fill="rgb(65,74,94)" stroke="rgb(65,74,94)" stroke-width="1" opacity="1" d="M 100.5 192 L 102 192.5 L 99.5 194 L 100.5 192 Z " /><path fill="rgb(65,74,94)" stroke="rgb(65,74,94)" stroke-width="1" opacity="1" d="M 74.5 194 L 77 194.5 L 74.5 195 L 74.5 194 Z " /><path fill="rgb(94,84,80)" stroke="rgb(94,84,80)" stroke-width="1" opacity="1" d="M 77.5 102 L 107.5 102 L 108.5 103 L 119.5 104 L 131 111.5 Q 134.6 116.9 133 127.5 L 131.5 127 L 120.5 126 L 118 124.5 L 123 120.5 Q 124.3 115.3 121.5 114 Q 118.2 110.8 110.5 112 L 102 118.5 Q 100.8 123.3 103 124.5 L 101.5 124 L 77.5 125 L 78 123.5 L 73.5 117 L 65.5 114 L 60 117.5 L 59 121.5 L 62 128 L 52.5 129 L 53 127.5 L 54 114.5 L 59.5 107 L 66.5 104 L 77.5 102 Z " /><path fill="rgb(142,197,187)" stroke="rgb(142,197,187)" stroke-width="1" opacity="1" d="M 113.5 112 Q 119.3 112.3 122 115.5 L 123 118.5 L 118.5 124 L 116.5 125 L 104.5 125 Q 101.3 124.3 102 119.5 Q 105.8 113.8 113.5 112 Z " /><path fill="rgb(142,197,187)" stroke="rgb(142,197,187)" stroke-width="1" opacity="1" d="M 63.5 115 L 68.5 115 L 77 121.5 Q 77.8 125.3 75.5 126 L 63.5 127 Q 59.1 125.4 60 118.5 L 63.5 115 Z " /><path fill="rgb(47,54,72)" stroke="rgb(47,54,72)" stroke-width="1" opacity="1" d="M 161.5 69 L 162.5 71 L 161.5 69 Z " /><path fill="rgb(47,54,72)" stroke="rgb(47,54,72)" stroke-width="1" opacity="1" d="M 166.5 76 Q 168.8 75.3 168 77.5 L 169 78.5 L 170 89.5 L 168 93.5 L 167 116.5 L 161 145.5 Q 157.7 155.7 150.5 162 L 135 164 Q 133.9 161.3 136.5 162 Q 143 155 142 140.5 L 140 135.5 Q 141.8 122.2 139 113.5 Q 136.9 105.6 130.5 102 L 125.5 99 L 112.5 96 Q 106.3 97.8 104.5 95 L 80.5 95 L 60.5 99 L 50 106.5 L 47 115.5 L 47 123.5 L 46 124.5 L 46 143.5 L 49 158.5 L 51 163 Q 45.7 163.6 43 159.5 Q 36.5 152.5 39 136.5 L 41 131.5 L 41 121.5 L 43 110.5 Q 45.3 103.8 50.5 100 L 64.5 93 L 75.5 90 L 95.5 89 L 96.5 88 L 112.5 88 L 113.5 89 L 124.5 90 Q 128.8 96.2 138.5 97 Q 140.8 96.3 140 92.5 L 134 79.5 L 137.5 79 L 155.5 84 L 166.5 76 Z " /><path fill="rgb(47,54,72)" stroke="rgb(47,54,72)" stroke-width="1" opacity="1" d="M 78.5 131 L 86 131.5 L 78.5 132 L 78.5 131 Z " /><path fill="rgb(47,54,72)" stroke="rgb(47,54,72)" stroke-width="1" opacity="1" d="M 107.5 131 L 116 131.5 L 107.5 132 L 107.5 131 Z " /><path fill="rgb(47,54,72)" stroke="rgb(47,54,72)" stroke-width="1" opacity="1" d="M 38.5 132 L 39 134.5 L 38 134.5 L 38.5 132 Z " /><path fill="rgb(47,54,72)" stroke="rgb(47,54,72)" stroke-width="1" opacity="1" d="M 70.5 132 L 74 132.5 L 70.5 133 L 70.5 132 Z " /><path fill="rgb(47,54,72)" stroke="rgb(47,54,72)" stroke-width="1" opacity="1" d="M 120.5 132 L 126 133.5 L 121.5 134 L 120.5 132 Z " /><path fill="rgb(47,54,72)" stroke="rgb(47,54,72)" stroke-width="1" opacity="1" d="M 64.5 133 L 67 133.5 L 64.5 134 L 64.5 133 Z " /><path fill="rgb(47,54,72)" stroke="rgb(47,54,72)" stroke-width="1" opacity="1" d="M 112.5 134 L 115 134.5 L 112.5 135 L 112.5 134 Z " /><path fill="rgb(47,54,72)" stroke="rgb(47,54,72)" stroke-width="1" opacity="1" d="M 103.5 135 L 107 135.5 L 103.5 136 L 103.5 135 Z " /><path fill="rgb(47,54,72)" stroke="rgb(47,54,72)" stroke-width="1" opacity="1" d="M 52.5 136 L 53 139.5 L 52 139.5 L 52.5 136 Z " /><path fill="rgb(47,54,72)" stroke="rgb(47,54,72)" stroke-width="1" opacity="1" d="M 91.5 136 L 95 136.5 L 91.5 137 L 91.5 136 Z " /><path fill="rgb(47,54,72)" stroke="rgb(47,54,72)" stroke-width="1" opacity="1" d="M 82.5 137 L 86 137.5 L 82.5 138 L 82.5 137 Z " /><path fill="rgb(47,54,72)" stroke="rgb(47,54,72)" stroke-width="1" opacity="1" d="M 74.5 138 L 77 138.5 L 74.5 139 L 74.5 138 Z " /><path fill="rgb(47,54,72)" stroke="rgb(47,54,72)" stroke-width="1" opacity="1" d="M 64.5 141 L 64.5 144 Q 61.5 142.5 64.5 141 Z " /><path fill="rgb(47,54,72)" stroke="rgb(47,54,72)" stroke-width="1" opacity="1" d="M 53.5 145 L 54 147.5 L 53 147.5 L 53.5 145 Z " /><path fill="rgb(47,54,72)" stroke="rgb(47,54,72)" stroke-width="1" opacity="1" d="M 72.5 146 L 73 148 L 71 147.5 L 72.5 146 Z " /><path fill="rgb(47,54,72)" stroke="rgb(47,54,72)" stroke-width="1" opacity="1" d="M 54.5 150 L 59 150.5 L 54.5 151 L 54.5 150 Z " /><path fill="rgb(47,54,72)" stroke="rgb(47,54,72)" stroke-width="1" opacity="1" d="M 150.5 168 Q 154.3 166.8 153 170.5 L 160 188.5 L 161 200 L 130.5 200 L 130 198.5 L 126.5 194 L 125 193.5 L 127 193 Q 128.8 188.1 128 179.5 L 124.5 173 Q 120.1 171.5 121 174.5 L 113.5 187 L 104.5 192 L 101.5 192 L 63 182 L 64 177.5 L 63 175 L 58 175 L 58 176.5 L 56.5 179 L 50 176 Q 49.3 172.2 52.5 171 L 72.5 172 L 73.5 173 L 106.5 173 L 107.5 172 L 121.5 172 L 123.5 171 L 125.5 172 L 135.5 170 L 143.5 170 L 150.5 168 Z " /><path fill="rgb(47,54,72)" stroke="rgb(47,54,72)" stroke-width="1" opacity="1" d="M 52.5 193 L 51.5 195 L 52.5 193 Z " /><path fill="rgb(1,1,1)" stroke="rgb(1,1,1)" stroke-width="1" opacity="0.9882352941176471" d="M 100.5 46 L 120.5 47 L 146.5 53 Q 162.1 59.4 172 71.5 L 175 77.5 L 176 90.5 L 174 94.5 L 173 115.5 L 169 138.5 L 166 149.5 L 158 162.5 L 158 166.5 L 165 184.5 L 167 192.5 L 167 200 Q 159.5 202.8 162 194.5 Q 159 179 152.5 167 L 137.5 170 L 128.5 170 L 127.5 171 L 70.5 172 L 69.5 171 Q 60.6 172.4 55.5 170 L 51.5 171 L 41 181.5 L 33 193.5 L 31 200 L 25 199.5 Q 32.4 180.4 47 168.5 L 38 162.5 L 33 152.5 L 33 128.5 L 31 120.5 L 31 111.5 L 30 110.5 L 30 87.5 Q 34.1 70.1 46.5 61 L 64.5 52 L 68.5 52 L 82.5 48 L 99.5 47 L 100.5 46 Z M 100 51 L 99 52 L 83 53 L 70 57 L 66 57 L 50 65 Q 39 73 35 88 L 35 111 L 38 128 L 38 152 L 42 160 L 50 164 L 53 164 L 49 156 L 47 145 L 47 121 L 50 108 L 63 99 L 78 96 L 107 96 Q 108 99 115 97 L 126 100 L 132 104 Q 138 108 139 117 L 139 137 L 134 164 L 134 165 L 152 162 Q 159 156 162 146 L 168 116 L 169 94 L 171 89 L 170 79 L 166 73 L 164 71 L 162 69 Q 154 61 143 57 L 121 52 L 100 51 Z M 78 101 L 67 103 L 60 106 L 54 112 L 52 122 L 52 130 L 76 126 L 85 126 L 86 125 L 120 126 L 121 127 L 133 128 L 134 129 Q 135 118 132 112 L 128 107 L 114 102 Q 108 104 107 101 L 78 101 Z M 86 130 L 85 131 L 75 131 L 52 135 L 54 155 L 57 161 L 64 166 L 73 166 L 74 167 L 126 166 L 128 164 L 131 156 L 133 145 L 133 137 L 134 136 L 132 133 L 121 132 L 120 131 L 86 130 Z " /><path fill="rgb(1,1,1)" stroke="rgb(1,1,1)" stroke-width="1" opacity="0.9882352941176471" d="M 122.5 174 L 126 175.5 Q 123.3 186.8 115.5 193 L 100.5 200 L 94.5 200 L 98.5 195 Q 110.1 192.1 117 184.5 L 122.5 174 Z " /><path fill="rgb(1,1,1)" stroke="rgb(1,1,1)" stroke-width="1" opacity="0.9882352941176471" d="M 59.5 176 L 63 177.5 L 62 186.5 L 64.5 193 L 78.5 196 L 87 199.5 L 69.5 200 L 62.5 198 L 59 194.5 L 57 186.5 L 57 179.5 L 59.5 176 Z " /><path fill="rgb(27,30,37)" stroke="rgb(27,30,37)" stroke-width="1" opacity="1" d="M 99.5 51 L 111 51.5 L 99.5 52 L 99.5 51 Z " /><path fill="rgb(27,30,37)" stroke="rgb(27,30,37)" stroke-width="1" opacity="1" d="M 65.5 57 L 68 57.5 L 65.5 58 L 65.5 57 Z " /><path fill="rgb(27,30,37)" stroke="rgb(27,30,37)" stroke-width="1" opacity="1" d="M 156.5 64 L 157.5 66 L 156.5 64 Z " /><path fill="rgb(27,30,37)" stroke="rgb(27,30,37)" stroke-width="1" opacity="1" d="M 160.5 67 L 161.5 69 L 160.5 67 Z " /><path fill="rgb(27,30,37)" stroke="rgb(27,30,37)" stroke-width="1" opacity="1" d="M 164.5 71 L 165.5 73 L 164.5 71 Z " /><path fill="rgb(27,30,37)" stroke="rgb(27,30,37)" stroke-width="1" opacity="1" d="M 167.5 75 L 168.5 77 L 167.5 75 Z " /><path fill="rgb(27,30,37)" stroke="rgb(27,30,37)" stroke-width="1" opacity="1" d="M 170.5 83 L 171 88.5 L 170 88.5 L 170.5 83 Z " /><path fill="rgb(27,30,37)" stroke="rgb(27,30,37)" stroke-width="1" opacity="1" d="M 86.5 95 L 99 95.5 L 86.5 96 L 86.5 95 Z " /><path fill="rgb(27,30,37)" stroke="rgb(27,30,37)" stroke-width="1" opacity="1" d="M 168.5 95 L 169 103.5 L 168 103.5 L 168.5 95 Z " /><path fill="rgb(27,30,37)" stroke="rgb(27,30,37)" stroke-width="1" opacity="1" d="M 74.5 96 L 77 96.5 L 74.5 97 L 74.5 96 Z " /><path fill="rgb(27,30,37)" stroke="rgb(27,30,37)" stroke-width="1" opacity="1" d="M 107.5 96 L 110 96.5 L 107.5 97 L 107.5 96 Z " /><path fill="rgb(27,30,37)" stroke="rgb(27,30,37)" stroke-width="1" opacity="1" d="M 77.5 101 L 81 101.5 L 77.5 102 L 77.5 101 Z " /><path fill="rgb(27,30,37)" stroke="rgb(27,30,37)" stroke-width="1" opacity="1" d="M 104.5 101 L 107 101.5 L 104.5 102 L 104.5 101 Z " /><path fill="rgb(27,30,37)" stroke="rgb(27,30,37)" stroke-width="1" opacity="1" d="M 128.5 101 L 130.5 104 L 128.5 101 Z " /><path fill="rgb(27,30,37)" stroke="rgb(27,30,37)" stroke-width="1" opacity="1" d="M 55.5 102 L 54.5 104 L 50.5 107 L 53.5 103 L 55.5 102 Z " /><path fill="rgb(27,30,37)" stroke="rgb(27,30,37)" stroke-width="1" opacity="1" d="M 133.5 105 L 134.5 107 L 133.5 105 Z " /><path fill="rgb(27,30,37)" stroke="rgb(27,30,37)" stroke-width="1" opacity="1" d="M 127.5 107 L 131.5 112 L 127.5 107 Z " /><path fill="rgb(27,30,37)" stroke="rgb(27,30,37)" stroke-width="1" opacity="1" d="M 56.5 109 L 54.5 112 L 56.5 109 Z " /><path fill="rgb(27,30,37)" stroke="rgb(27,30,37)" stroke-width="1" opacity="1" d="M 167.5 112 L 168 115.5 L 167 115.5 L 167.5 112 Z " /><path fill="rgb(27,30,37)" stroke="rgb(27,30,37)" stroke-width="1" opacity="1" d="M 47.5 117 L 48 119.5 L 47 119.5 L 47.5 117 Z " /><path fill="rgb(27,30,37)" stroke="rgb(27,30,37)" stroke-width="1" opacity="1" d="M 166.5 119 L 167 121.5 L 166 121.5 L 166.5 119 Z " /><path fill="rgb(27,30,37)" stroke="rgb(27,30,37)" stroke-width="1" opacity="1" d="M 52.5 121 L 53 123.5 L 52 123.5 L 52.5 121 Z " /><path fill="rgb(27,30,37)" stroke="rgb(27,30,37)" stroke-width="1" opacity="1" d="M 139.5 124 L 140 133.5 L 139 133.5 L 139.5 124 Z " /><path fill="rgb(27,30,37)" stroke="rgb(27,30,37)" stroke-width="1" opacity="1" d="M 81.5 125 L 85 125.5 L 81.5 126 L 81.5 125 Z " /><path fill="rgb(27,30,37)" stroke="rgb(27,30,37)" stroke-width="1" opacity="1" d="M 104.5 125 L 109 125.5 L 104.5 126 L 104.5 125 Z " /><path fill="rgb(27,30,37)" stroke="rgb(27,30,37)" stroke-width="1" opacity="1" d="M 165.5 125 L 166 127.5 L 165 127.5 L 165.5 125 Z " /><path fill="rgb(27,30,37)" stroke="rgb(27,30,37)" stroke-width="1" opacity="1" d="M 46.5 128 L 47 138.5 L 46 138.5 L 46.5 128 Z " /><path fill="rgb(27,30,37)" stroke="rgb(27,30,37)" stroke-width="1" opacity="1" d="M 85.5 130 L 93 130.5 L 85.5 131 L 85.5 130 Z " /><path fill="rgb(27,30,37)" stroke="rgb(27,30,37)" stroke-width="1" opacity="1" d="M 100.5 130 L 108 130.5 L 100.5 131 L 100.5 130 Z " /><path fill="rgb(27,30,37)" stroke="rgb(27,30,37)" stroke-width="1" opacity="1" d="M 74.5 131 L 77 131.5 L 74.5 132 L 74.5 131 Z " /><path fill="rgb(27,30,37)" stroke="rgb(27,30,37)" stroke-width="1" opacity="1" d="M 138.5 137 L 139 139.5 L 138 139.5 L 138.5 137 Z " /><path fill="rgb(27,30,37)" stroke="rgb(27,30,37)" stroke-width="1" opacity="1" d="M 38.5 138 L 39 146.5 L 38 146.5 L 38.5 138 Z " /><path fill="rgb(27,30,37)" stroke="rgb(27,30,37)" stroke-width="1" opacity="1" d="M 132.5 139 L 133 144.5 L 132 144.5 L 132.5 139 Z " /><path fill="rgb(27,30,37)" stroke="rgb(27,30,37)" stroke-width="1" opacity="1" d="M 162.5 139 L 163 141.5 L 162 141.5 L 162.5 139 Z " /><path fill="rgb(27,30,37)" stroke="rgb(27,30,37)" stroke-width="1" opacity="1" d="M 52.5 141 L 53 143.5 L 52 143.5 L 52.5 141 Z " /><path fill="rgb(27,30,37)" stroke="rgb(27,30,37)" stroke-width="1" opacity="1" d="M 47.5 145 L 48 147.5 L 47 147.5 L 47.5 145 Z " /><path fill="rgb(27,30,37)" stroke="rgb(27,30,37)" stroke-width="1" opacity="1" d="M 137.5 145 L 138 147.5 L 137 147.5 L 137.5 145 Z " /><path fill="rgb(27,30,37)" stroke="rgb(27,30,37)" stroke-width="1" opacity="1" d="M 131.5 147 L 132 151.5 L 131 151.5 L 131.5 147 Z " /><path fill="rgb(27,30,37)" stroke="rgb(27,30,37)" stroke-width="1" opacity="1" d="M 48.5 151 L 49 153.5 L 48 153.5 L 48.5 151 Z " /><path fill="rgb(27,30,37)" stroke="rgb(27,30,37)" stroke-width="1" opacity="1" d="M 54.5 152 L 55 154.5 L 54 154.5 L 54.5 152 Z " /><path fill="rgb(27,30,37)" stroke="rgb(27,30,37)" stroke-width="1" opacity="1" d="M 158.5 152 L 157.5 154 L 158.5 152 Z " /><path fill="rgb(27,30,37)" stroke="rgb(27,30,37)" stroke-width="1" opacity="1" d="M 130.5 153 L 131 155.5 L 130 155.5 L 130.5 153 Z " /><path fill="rgb(27,30,37)" stroke="rgb(27,30,37)" stroke-width="1" opacity="1" d="M 40.5 156 L 41.5 158 L 40.5 156 Z " /><path fill="rgb(27,30,37)" stroke="rgb(27,30,37)" stroke-width="1" opacity="1" d="M 55.5 156 L 57 158.5 L 55 157.5 L 55.5 156 Z " /><path fill="rgb(27,30,37)" stroke="rgb(27,30,37)" stroke-width="1" opacity="1" d="M 154.5 158 L 153.5 160 L 154.5 158 Z " /><path fill="rgb(27,30,37)" stroke="rgb(27,30,37)" stroke-width="1" opacity="1" d="M 42.5 159 L 44.5 162 L 42.5 159 Z " /><path fill="rgb(27,30,37)" stroke="rgb(27,30,37)" stroke-width="1" opacity="1" d="M 57.5 160 L 63.5 165 L 70 165.5 L 63.5 166 L 57.5 160 Z " /><path fill="rgb(27,30,37)" stroke="rgb(27,30,37)" stroke-width="1" opacity="1" d="M 127.5 163 L 125.5 166 L 110 165.5 L 125.5 165 L 127.5 163 Z " /><path fill="rgb(27,30,37)" stroke="rgb(27,30,37)" stroke-width="1" opacity="1" d="M 133.5 164 L 137 164.5 L 133.5 165 L 133.5 164 Z " /><path fill="rgb(27,30,37)" stroke="rgb(27,30,37)" stroke-width="1" opacity="1" d="M 73.5 166 L 103 166.5 L 73.5 167 L 73.5 166 Z " /><path fill="rgb(27,30,37)" stroke="rgb(27,30,37)" stroke-width="1" opacity="1" d="M 151.5 167 L 154 168.5 L 153.5 170 L 153 168 L 151.5 167 Z " /><path fill="rgb(27,30,37)" stroke="rgb(27,30,37)" stroke-width="1" opacity="1" d="M 145.5 168 L 148 168.5 L 145.5 169 L 145.5 168 Z " /><path fill="rgb(27,30,37)" stroke="rgb(27,30,37)" stroke-width="1" opacity="1" d="M 138.5 169 L 141 169.5 L 138.5 170 L 138.5 169 Z " /><path fill="rgb(27,30,37)" stroke="rgb(27,30,37)" stroke-width="1" opacity="1" d="M 55.5 170 L 58 170.5 L 55.5 171 L 55.5 170 Z " /><path fill="rgb(27,30,37)" stroke="rgb(27,30,37)" stroke-width="1" opacity="1" d="M 128.5 170 L 131 170.5 L 128.5 171 L 128.5 170 Z " /><path fill="rgb(27,30,37)" stroke="rgb(27,30,37)" stroke-width="1" opacity="1" d="M 51.5 171 L 41.5 182 L 51.5 171 Z " /><path fill="rgb(27,30,37)" stroke="rgb(27,30,37)" stroke-width="1" opacity="1" d="M 62.5 171 L 65 171.5 L 62.5 172 L 62.5 171 Z " /><path fill="rgb(27,30,37)" stroke="rgb(27,30,37)" stroke-width="1" opacity="1" d="M 67.5 171 L 70 171.5 L 67.5 172 L 67.5 171 Z " /><path fill="rgb(27,30,37)" stroke="rgb(27,30,37)" stroke-width="1" opacity="1" d="M 111.5 171 L 119 171.5 L 111.5 172 L 111.5 171 Z " /><path fill="rgb(27,30,37)" stroke="rgb(27,30,37)" stroke-width="1" opacity="1" d="M 122.5 173 L 124 173.5 L 121 175.5 L 120.5 177 L 120 175.5 L 122.5 173 Z " /><path fill="rgb(27,30,37)" stroke="rgb(27,30,37)" stroke-width="1" opacity="1" d="M 59.5 175 L 63 176.5 L 61.5 176 L 58.5 177 L 59.5 175 Z " /><path fill="rgb(27,30,37)" stroke="rgb(27,30,37)" stroke-width="1" opacity="1" d="M 62.5 180 L 63 186.5 L 62 186.5 L 62.5 180 Z " /><path fill="rgb(27,30,37)" stroke="rgb(27,30,37)" stroke-width="1" opacity="1" d="M 116.5 184 L 113.5 188 L 116.5 184 Z " /><path fill="rgb(27,30,37)" stroke="rgb(27,30,37)" stroke-width="1" opacity="1" d="M 121.5 186 L 120.5 188 L 121.5 186 Z " /><path fill="rgb(27,30,37)" stroke="rgb(27,30,37)" stroke-width="1" opacity="1" d="M 118.5 190 L 115.5 194 L 113.5 195 L 114.5 193 L 118.5 190 Z " /><path fill="rgb(27,30,37)" stroke="rgb(27,30,37)" stroke-width="1" opacity="1" d="M 63.5 191 L 64.5 193 L 63.5 191 Z " /><path fill="rgb(27,30,37)" stroke="rgb(27,30,37)" stroke-width="1" opacity="1" d="M 58.5 193 L 62 197.5 L 58 194.5 L 58.5 193 Z " /><path fill="rgb(27,30,37)" stroke="rgb(27,30,37)" stroke-width="1" opacity="1" d="M 96.5 196 L 94.5 199 L 96.5 196 Z " /><path fill="rgb(27,30,37)" stroke="rgb(27,30,37)" stroke-width="1" opacity="1" d="M 108.5 196 L 110 196.5 L 106.5 198 L 106.5 197 L 108.5 196 Z " /><path fill="rgb(27,30,37)" stroke="rgb(27,30,37)" stroke-width="1" opacity="1" d="M 103.5 198 L 105 198.5 L 101.5 200 L 101.5 199 L 103.5 198 Z " /><path fill="rgb(27,30,37)" stroke="rgb(27,30,37)" stroke-width="1" opacity="1" d="M 66.5 199 L 69 199.5 L 66.5 200 L 66.5 199 Z " /><path fill="rgb(37,42,49)" stroke="rgb(37,42,49)" stroke-width="1" opacity="1" d="M 169.5 80 L 170 83.5 L 169 83.5 L 169.5 80 Z " /><path fill="rgb(37,42,49)" stroke="rgb(37,42,49)" stroke-width="1" opacity="1" d="M 80.5 95 L 86 95.5 L 80.5 96 L 80.5 95 Z " /><path fill="rgb(37,42,49)" stroke="rgb(37,42,49)" stroke-width="1" opacity="1" d="M 99.5 95 L 105 95.5 L 99.5 96 L 99.5 95 Z " /><path fill="rgb(37,42,49)" stroke="rgb(37,42,49)" stroke-width="1" opacity="1" d="M 110.5 96 L 113 96.5 L 110.5 97 L 110.5 96 Z " /><path fill="rgb(37,42,49)" stroke="rgb(37,42,49)" stroke-width="1" opacity="1" d="M 130.5 102 L 132.5 105 L 130.5 102 Z " /><path fill="rgb(37,42,49)" stroke="rgb(37,42,49)" stroke-width="1" opacity="1" d="M 167.5 103 L 168 111.5 L 167 111.5 L 167.5 103 Z " /><path fill="rgb(37,42,49)" stroke="rgb(37,42,49)" stroke-width="1" opacity="1" d="M 135.5 107 L 136.5 109 L 135.5 107 Z " /><path fill="rgb(37,42,49)" stroke="rgb(37,42,49)" stroke-width="1" opacity="1" d="M 139.5 117 L 140 123.5 L 139 123.5 L 139.5 117 Z " /><path fill="rgb(37,42,49)" stroke="rgb(37,42,49)" stroke-width="1" opacity="1" d="M 165.5 122 L 166 124.5 L 165 124.5 L 165.5 122 Z " /><path fill="rgb(37,42,49)" stroke="rgb(37,42,49)" stroke-width="1" opacity="1" d="M 46.5 124 L 47 127.5 L 46 127.5 L 46.5 124 Z " /><path fill="rgb(37,42,49)" stroke="rgb(37,42,49)" stroke-width="1" opacity="1" d="M 164.5 128 L 165 130.5 L 164 130.5 L 164.5 128 Z " /><path fill="rgb(37,42,49)" stroke="rgb(37,42,49)" stroke-width="1" opacity="1" d="M 93.5 130 L 100 130.5 L 93.5 131 L 93.5 130 Z " /><path fill="rgb(37,42,49)" stroke="rgb(37,42,49)" stroke-width="1" opacity="1" d="M 126.5 133 L 133 134 L 131 152.5 L 128 162.5 L 125.5 165 L 70.5 166 Q 69 163.5 63.5 165 L 57 159.5 L 54 151.5 L 73 148 Q 74.1 145.3 71.5 146 L 64 142.5 L 66.5 140 L 70.5 139 L 94.5 137 L 95.5 136 L 106.5 136 L 115.5 134 L 125.5 134 L 126.5 133 Z " /><path fill="rgb(37,42,49)" stroke="rgb(37,42,49)" stroke-width="1" opacity="1" d="M 38.5 135 L 39 137.5 L 38 137.5 L 38.5 135 Z " /><path fill="rgb(37,42,49)" stroke="rgb(37,42,49)" stroke-width="1" opacity="1" d="M 46.5 139 L 47 143.5 L 46 143.5 L 46.5 139 Z " /><path fill="rgb(37,42,49)" stroke="rgb(37,42,49)" stroke-width="1" opacity="1" d="M 38.5 147 L 39 150.5 L 38 150.5 L 38.5 147 Z " /><path fill="rgb(37,42,49)" stroke="rgb(37,42,49)" stroke-width="1" opacity="1" d="M 155.5 156 L 154.5 158 L 155.5 156 Z " /><path fill="rgb(37,42,49)" stroke="rgb(37,42,49)" stroke-width="1" opacity="1" d="M 152.5 160 L 151.5 162 L 152.5 160 Z " /><path fill="rgb(37,42,49)" stroke="rgb(37,42,49)" stroke-width="1" opacity="1" d="M 138.5 163 L 142 163.5 L 138.5 164 L 138.5 163 Z " /><path fill="rgb(37,42,49)" stroke="rgb(37,42,49)" stroke-width="1" opacity="1" d="M 141.5 169 L 144 169.5 L 141.5 170 L 141.5 169 Z " /><path fill="rgb(37,42,49)" stroke="rgb(37,42,49)" stroke-width="1" opacity="1" d="M 131.5 170 L 135 170.5 L 131.5 171 L 131.5 170 Z " /><path fill="rgb(37,42,49)" stroke="rgb(37,42,49)" stroke-width="1" opacity="1" d="M 119.5 171 L 122 171.5 L 119.5 172 L 119.5 171 Z " /><path fill="rgb(37,42,49)" stroke="rgb(37,42,49)" stroke-width="1" opacity="1" d="M 73.5 172 L 107 172.5 L 73.5 173 L 73.5 172 Z " /><path fill="rgb(37,42,49)" stroke="rgb(37,42,49)" stroke-width="1" opacity="1" d="M 63.5 177 L 64 179.5 L 63 179.5 L 63.5 177 Z " /><path fill="rgb(37,42,49)" stroke="rgb(37,42,49)" stroke-width="1" opacity="1" d="M 112.5 187 L 111.5 189 L 112.5 187 Z " /><path fill="rgb(37,42,49)" stroke="rgb(37,42,49)" stroke-width="1" opacity="1" d="M 119.5 189 L 120 191 L 129 196.5 L 130 200 L 103 199.5 L 115.5 194 L 119 190.5 L 119.5 189 Z " /><path fill="rgb(37,42,49)" stroke="rgb(37,42,49)" stroke-width="1" opacity="1" d="M 56.5 192 Q 59.1 191.2 58 194.5 Q 60.4 198.6 66 199.5 L 47.5 200 L 48 198.5 L 50.5 195 L 56.5 192 Z " /><path fill="rgb(37,42,49)" stroke="rgb(37,42,49)" stroke-width="1" opacity="1" d="M 161.5 196 L 162 199.5 L 161 199.5 L 161.5 196 Z " /><path fill="rgb(0,0,0)" stroke="rgb(0,0,0)" stroke-width="1" opacity="0.3843137254901961" d="M 93.5 46 L 100 46.5 L 93.5 47 L 93.5 46 Z " /><path fill="rgb(0,0,0)" stroke="rgb(0,0,0)" stroke-width="1" opacity="0.3843137254901961" d="M 110.5 46 L 117 46.5 L 110.5 47 L 110.5 46 Z " /><path fill="rgb(0,0,0)" stroke="rgb(0,0,0)" stroke-width="1" opacity="0.3843137254901961" d="M 85.5 47 L 89 47.5 L 85.5 48 L 85.5 47 Z " /><path fill="rgb(0,0,0)" stroke="rgb(0,0,0)" stroke-width="1" opacity="0.3843137254901961" d="M 121.5 47 L 125 47.5 L 121.5 48 L 121.5 47 Z " /><path fill="rgb(0,0,0)" stroke="rgb(0,0,0)" stroke-width="1" opacity="0.3843137254901961" d="M 78.5 48 L 82 48.5 L 78.5 49 L 78.5 48 Z " /><path fill="rgb(0,0,0)" stroke="rgb(0,0,0)" stroke-width="1" opacity="0.3843137254901961" d="M 127.5 48 L 130 48.5 L 127.5 49 L 127.5 48 Z " /><path fill="rgb(0,0,0)" stroke="rgb(0,0,0)" stroke-width="1" opacity="0.3843137254901961" d="M 74.5 49 L 77 49.5 L 74.5 50 L 74.5 49 Z " /><path fill="rgb(0,0,0)" stroke="rgb(0,0,0)" stroke-width="1" opacity="0.3843137254901961" d="M 65.5 51 L 69 51.5 L 65.5 52 L 65.5 51 Z " /><path fill="rgb(0,0,0)" stroke="rgb(0,0,0)" stroke-width="1" opacity="0.3843137254901961" d="M 59.5 53 L 61 53.5 L 57.5 55 L 57.5 54 L 59.5 53 Z " /><path fill="rgb(0,0,0)" stroke="rgb(0,0,0)" stroke-width="1" opacity="0.3843137254901961" d="M 55.5 55 L 54.5 57 L 50.5 59 L 51.5 57 L 55.5 55 Z " /><path fill="rgb(0,0,0)" stroke="rgb(0,0,0)" stroke-width="1" opacity="0.3843137254901961" d="M 154.5 56 L 155.5 58 L 154.5 56 Z " /><path fill="rgb(0,0,0)" stroke="rgb(0,0,0)" stroke-width="1" opacity="0.3843137254901961" d="M 157.5 58 L 158.5 60 L 157.5 58 Z " /><path fill="rgb(0,0,0)" stroke="rgb(0,0,0)" stroke-width="1" opacity="0.3843137254901961" d="M 48.5 59 L 47.5 61 L 48.5 59 Z " /><path fill="rgb(0,0,0)" stroke="rgb(0,0,0)" stroke-width="1" opacity="0.3843137254901961" d="M 160.5 60 L 173 71.5 L 176 77.5 L 176 84.5 L 175 84.5 L 175 77.5 L 172 71.5 L 163.5 63 L 160.5 60 Z " /><path fill="rgb(0,0,0)" stroke="rgb(0,0,0)" stroke-width="1" opacity="0.3843137254901961" d="M 45.5 61 L 38 69.5 L 36.5 72 L 37 70.5 L 45.5 61 Z " /><path fill="rgb(0,0,0)" stroke="rgb(0,0,0)" stroke-width="1" opacity="0.3843137254901961" d="M 35.5 73 L 35 74.5 L 33.5 77 L 34 75.5 L 35.5 73 Z " /><path fill="rgb(0,0,0)" stroke="rgb(0,0,0)" stroke-width="1" opacity="0.3843137254901961" d="M 32.5 78 L 33 79.5 L 31.5 82 L 31 80.5 L 32.5 78 Z " /><path fill="rgb(0,0,0)" stroke="rgb(0,0,0)" stroke-width="1" opacity="0.3843137254901961" d="M 30.5 84 L 31 86.5 L 30 86.5 L 30.5 84 Z " /><path fill="rgb(0,0,0)" stroke="rgb(0,0,0)" stroke-width="1" opacity="0.3843137254901961" d="M 29.5 91 L 30 107.5 L 29 107.5 L 29.5 91 Z " /><path fill="rgb(0,0,0)" stroke="rgb(0,0,0)" stroke-width="1" opacity="0.3843137254901961" d="M 175.5 91 L 176 93.5 L 174.5 101 L 174 94.5 L 175.5 91 Z " /><path fill="rgb(0,0,0)" stroke="rgb(0,0,0)" stroke-width="1" opacity="0.3843137254901961" d="M 173.5 102 L 174 114.5 L 173 114.5 L 173.5 102 Z " /><path fill="rgb(0,0,0)" stroke="rgb(0,0,0)" stroke-width="1" opacity="0.3843137254901961" d="M 30.5 111 L 31 115.5 L 30 115.5 L 30.5 111 Z " /><path fill="rgb(0,0,0)" stroke="rgb(0,0,0)" stroke-width="1" opacity="0.3843137254901961" d="M 172.5 116 L 173 121.5 L 171.5 127 L 171 122.5 L 172.5 116 Z " /><path fill="rgb(0,0,0)" stroke="rgb(0,0,0)" stroke-width="1" opacity="0.3843137254901961" d="M 31.5 121 L 32 124.5 L 31 124.5 L 31.5 121 Z " /><path fill="rgb(0,0,0)" stroke="rgb(0,0,0)" stroke-width="1" opacity="0.3843137254901961" d="M 32.5 128 L 33 133.5 L 32 133.5 L 32.5 128 Z " /><path fill="rgb(0,0,0)" stroke="rgb(0,0,0)" stroke-width="1" opacity="0.3843137254901961" d="M 170.5 129 L 171 132.5 L 170 132.5 L 170.5 129 Z " /><path fill="rgb(0,0,0)" stroke="rgb(0,0,0)" stroke-width="1" opacity="0.3843137254901961" d="M 169.5 134 L 170 137.5 L 169 137.5 L 169.5 134 Z " /><path fill="rgb(0,0,0)" stroke="rgb(0,0,0)" stroke-width="1" opacity="0.3843137254901961" d="M 168.5 139 L 169 141.5 L 168 141.5 L 168.5 139 Z " /><path fill="rgb(0,0,0)" stroke="rgb(0,0,0)" stroke-width="1" opacity="0.3843137254901961" d="M 167.5 143 L 168 145.5 L 167 145.5 L 167.5 143 Z " /><path fill="rgb(0,0,0)" stroke="rgb(0,0,0)" stroke-width="1" opacity="0.3843137254901961" d="M 32.5 146 L 33 151.5 L 32 151.5 L 32.5 146 Z " /><path fill="rgb(0,0,0)" stroke="rgb(0,0,0)" stroke-width="1" opacity="0.3843137254901961" d="M 164.5 152 L 165 153.5 L 159 162.5 L 158.5 167 L 158 162.5 L 164.5 152 Z " /><path fill="rgb(0,0,0)" stroke="rgb(0,0,0)" stroke-width="1" opacity="0.3843137254901961" d="M 36.5 160 L 41.5 166 L 47 168.5 L 39 175.5 L 45 168 Q 39.6 167.4 37 162.5 L 36.5 160 Z " /><path fill="rgb(0,0,0)" stroke="rgb(0,0,0)" stroke-width="1" opacity="0.3843137254901961" d="M 37.5 178 L 34.5 182 L 37.5 178 Z " /><path fill="rgb(0,0,0)" stroke="rgb(0,0,0)" stroke-width="1" opacity="0.3843137254901961" d="M 33.5 183 L 32.5 185 L 33.5 183 Z " /><path fill="rgb(0,0,0)" stroke="rgb(0,0,0)" stroke-width="1" opacity="0.3843137254901961" d="M 31.5 186 L 31 187.5 L 28.5 192 L 29 190.5 L 31.5 186 Z " /><path fill="rgb(0,0,0)" stroke="rgb(0,0,0)" stroke-width="1" opacity="0.3843137254901961" d="M 26.5 195 L 27 196.5 L 25.5 199 L 25 197.5 L 26.5 195 Z " /><path fill="rgb(0,0,0)" stroke="rgb(0,0,0)" stroke-width="1" opacity="0.3843137254901961" d="M 167.5 196 L 168 199.5 L 167 199.5 L 167.5 196 Z " /></svg>