<svg xmlns="http://www.w3.org/2000/svg" width="200" height="200"><path stroke="#000" d="M0 0h200v200h-31.5l-.5-3.5-3-14-6-15v-5l6-9 5-16 4-23v-13l2-8v-16q-3.9-10.1-12.5-15.5l-13-8-21-6-12-1-1-1h-23l-1 1-14 1-8 3h-5l-6 2Q45.6 58.6 37 69.5l-7 15-1 23 2 9 1 17 1 1v11q-2.3 1.2-1 6 2.4 10.1 9.5 15.5l3.5 1-15 19.5-5 12.5H.5l-.5-.5z" opacity="0"/><path fill="#626e89" stroke="#626e89" d="m99.5 52 21 1 10 2 4.5 2.5-1.5 2.5-36 3-11 3h-5L77 68.5l2.5 1.5 14 2 4.5 3.5-.5 1.5h-10l-26 5-12 5-3.5 3.5-5 11-3.5 18.5L35 99.5l1-1 1-15Q40.7 73.2 48.5 67l17-9h4l13-4 16-1zm11 60 2.5.5-5.5 2.5 1-2zm11 2 1.5 2.5h-1zm-59 1-2 3zm43 0-3 4zm-32 2 3 4zm-14 2 .5 2.5h-1zm63 0 .5 1.5-4 3zm-20 4 1 2zm-41 2 1 2zm78 12 1.5 2.5v12l-4.5 9.5-1.5-.5 3-9zm-94 42 .5 2.5-2 6-1 12.5H32.5l-.5-1.5q4.5-12 13.5-19.5Z"/><path fill="#475065" stroke="#475065" d="m94.5 52 4.5.5-4.5.5zm17 0 4.5.5-4.5.5zm23.5 5 14.5 4L166 74.5l-1.5 2.5-11 7-5-3-15-2 .5 1.5 5 10V96h-5.5q-5-6-14-8h-34l-1 1h-9l-11 3-14 7-5.5 5.5-4 10-1.5 16.5-2.5-10.5 6-25 6.5-8.5 12-5 13-3 12-1 1-1H98l-2.5-4-11-3h-5L77 68.5l4.5-2.5h5l11-3 36-3 1.5-1.5zM35.5 92l.5 6.5h-1zm1 19 .5 3.5h-1zm105 31 .5 5.5h-1zm-93 34 7.5 3q-1.2 8.3 1 12-7.3 1.4-11 7.5.7 3-3 1.5v-6.5l3-14-4 2zm78 3 .5 11.5-2.5 1.5-3.5-2zm-62 3 15 6 20.5 4.5-9.5 7.5-14-6h-5l-6.5-2q-2.1-3.1-.5-10Z"/><path fill="#3d434f" stroke="#3d434f" d="m159.5 67 1 2zm4 4 2 3zm3 4-2 3zm-33 4 1 2zm28 0-1 2zm-73 9 7.5.5-7.5.5zm25 0 4.5.5-4.5.5zm-35 1 4.5.5-4.5.5zm-6 1 2.5.5-2.5.5zm54 1 1 2zm-77 9-3 4zm34 1 17.5.5-17.5.5zm-9 1 2.5.5-2.5.5zm34 0 2.5.5-2.5.5zm19 6 1 2zm-86 8 .5 4.5h-1zm12 1 .5 2.5h-1zm80 4 .5 6.5h-1zm-47 3 15.5.5-15.5.5zm30 1 3.5.5-3.5.5zm7 1 2.5.5-2.5.5zm-85 1 .5 4.5h-1zm2 0 .5 4.5h-1zm22 0 3.5.5-3.5.5zm24 4h20l1 1h12l1.5 1.5-46.5 4.5q-1.2 2.3-6 1l-5.5 3.5 9 4-1.5 1.5q-6.1-.6-9 2H54l-1-14 14.5-3 18-1zm-38 44 1.5.5-3.5 2.5zm7 3q3.3 1.8 1.5 8.5h-1q.6-6.7-.5-8.5Zm43 13 2.5.5-2.5.5zm25 0 1 2zm-73 3-3 4zm46 1-3 4z"/><path fill="#414a5e" stroke="#414a5e" d="m157.5 66 1 2zm6 11-1 2zm-4 3-1 2zm-74 8 2.5.5-2.5.5zm-10 1 2.5.5-2.5.5zm53 3 1 2zm11 1 .5 2.5h-1zm-99 30 .5 3.5h-1zm87 58 .5 5.5h-1zm-64 1 .5 5.5h-1zm24 7 2.5.5-2.5.5zm39 2-1 2zm-26 1 1.5.5-2.5 1.5zm-26 2 2.5.5-2.5.5z"/><path fill="#5e5450" stroke="#5e5450" d="M77.5 102h30l1 1 11 1 11.5 7.5q3.6 5.4 2 16l-1.5-.5-11-1-2.5-1.5 5-4q1.3-5.2-1.5-6.5-3.3-3.2-11-2l-8.5 6.5q-1.2 4.8 1 6l-1.5-.5-24 1 .5-1.5-4.5-6.5-8-3-5.5 3.5-1 4 3 6.5-9.5 1 .5-1.5 1-13 5.5-7.5 7-3z"/><path fill="#8ec5bb" stroke="#8ec5bb" d="M113.5 112q5.8.3 8.5 3.5l1 3-4.5 5.5-2 1h-12q-3.2-.7-2.5-5.5 3.8-5.7 11.5-7.5Zm-50 3h5l8.5 6.5q.8 3.8-1.5 4.5l-12 1q-4.4-1.6-3.5-8.5z"/><path fill="#2f3648" stroke="#2f3648" d="m161.5 69 1 2zm5 7q2.3-.7 1.5 1.5l1 1 1 11-2 4-1 23-6 29q-3.3 10.2-10.5 16.5l-15.5 2q-1.1-2.7 1.5-2 6.5-7 5.5-21.5l-2-5q1.8-13.3-1-22-2.1-7.9-8.5-11.5l-5-3-13-3q-6.2 1.8-8-1h-24l-20 4-10.5 7.5-3 9v8l-1 1v19l3 15 2 4.5q-5.3.6-8-3.5-6.5-7-4-23l2-5v-10l2-11q2.3-6.7 7.5-10.5l14-7 11-3 20-1 1-1h16l1 1 11 1q4.3 6.2 14 7 2.3-.7 1.5-4.5l-6-13 3.5-.5 18 5z"/><path fill="#2f3648" stroke="#2f3648" d="m78.5 131 7.5.5-7.5.5zm29 0 8.5.5-8.5.5zm-69 1 .5 2.5h-1zm32 0 3.5.5-3.5.5zm50 0 5.5 1.5-4.5.5zm-56 1 2.5.5-2.5.5zm48 1 2.5.5-2.5.5zm-9 1 3.5.5-3.5.5zm-51 1 .5 3.5h-1zm39 0 3.5.5-3.5.5zm-9 1 3.5.5-3.5.5zm-8 1 2.5.5-2.5.5zm-10 3v3q-3-1.5 0-3Zm-11 4 .5 2.5h-1zm19 1 .5 2-2-.5zm-18 4 4.5.5-4.5.5zm96 18q3.8-1.2 2.5 2.5l7 18 1 11.5h-30.5l-.5-1.5-3.5-4.5-1.5-.5 2-.5q1.8-4.9 1-13.5l-3.5-6.5q-4.4-1.5-3.5 1.5l-7.5 12.5-9 5h-3L63 182l1-4.5-1-2.5h-5v1.5l-1.5 2.5-6.5-3q-.7-3.8 2.5-5l20 1 1 1h33l1-1h14l2-1 2 1 10-2h8zm-98 25-1 2z"/><path fill="#010101" stroke="#010101" d="m100.5 46 20 1 26 6q15.6 6.4 25.5 18.5l3 6 1 13-2 4-1 21-4 23-3 11-8 13v4l7 18 2 8v7.5q-7.5 2.8-5-5.5-3-15.5-9.5-27.5l-15 3h-9l-1 1-57 1-1-1q-8.9 1.4-14-1l-4 1L41 181.5l-8 12-2 6.5-6-.5q7.4-19.1 22-31l-9-6-5-10v-24l-2-8v-9l-1-1v-23Q34.1 70.1 46.5 61l18-9h4l14-4 17-1zm-.5 5-1 1-16 1-13 4h-4l-16 8q-11 8-15 23v23l3 17v24l4 8 8 4h3l-4-8-2-11v-24l3-13 13-9 15-3h29q1 3 8 1l11 3 6 4q6 4 7 13v20l-5 27v1l18-3q7-6 10-16l6-30 1-22 2-5-1-10-4-6-2-2-2-2q-8-8-19-12l-22-5zm-22 50-11 2-7 3-6 6-2 10v8l24-4h9l1-1 34 1 1 1 12 1 1 1q1-11-2-17l-4-5-14-5q-6 2-7-1zm8 29-1 1H75l-23 4 2 20 3 6 7 5h9l1 1 52-1 2-2 3-8 2-11v-8l1-1-2-3-11-1-1-1z" opacity=".988"/><path fill="#010101" stroke="#010101" d="m122.5 174 3.5 1.5q-2.7 11.3-10.5 17.5l-15 7h-6l4-5q11.6-2.9 18.5-10.5zm-63 2 3.5 1.5-1 9 2.5 6.5 14 3 8.5 3.5-17.5.5-7-2-3.5-3.5-2-8v-7z" opacity=".988"/><path fill="#1b1e25" stroke="#1b1e25" d="m99.5 51 11.5.5-11.5.5zm-34 6 2.5.5-2.5.5zm91 7 1 2zm4 3 1 2zm4 4 1 2zm3 4 1 2zm3 8 .5 5.5h-1zm-84 12 12.5.5-12.5.5zm82 0 .5 8.5h-1zm-94 1 2.5.5-2.5.5zm33 0 2.5.5-2.5.5zm-30 5 3.5.5-3.5.5zm27 0 2.5.5-2.5.5zm24 0 2 3zm-73 1-1 2-4 3 3-4zm78 3 1 2zm-6 2 4 5zm-71 2-2 3zm111 3 .5 3.5h-1zm-120 5 .5 2.5h-1zm119 2 .5 2.5h-1zm-114 2 .5 2.5h-1zm87 3 .5 9.5h-1zm-58 1 3.5.5-3.5.5zm23 0 4.5.5-4.5.5zm61 0 .5 2.5h-1zm-119 3 .5 10.5h-1zm39 2 7.5.5-7.5.5zm15 0 7.5.5-7.5.5zm-26 1 2.5.5-2.5.5zm64 6 .5 2.5h-1zm-100 1 .5 8.5h-1zm94 1 .5 5.5h-1zm30 0 .5 2.5h-1zm-110 2 .5 2.5h-1zm-5 4 .5 2.5h-1zm90 0 .5 2.5h-1zm-6 2 .5 4.5h-1zm-83 4 .5 2.5h-1zm6 1 .5 2.5h-1zm104 0-1 2zm-28 1 .5 2.5h-1zm-90 3 1 2zm15 0 1.5 2.5-2-1zm99 2-1 2zm-112 1 2 3zm15 1 6 5 6.5.5-6.5.5zm70 3-2 3-15.5-.5 15.5-.5zm6 1 3.5.5-3.5.5zm-60 2 29.5.5-29.5.5zm78 1 2.5 1.5-.5 1.5-.5-2zm-6 1 2.5.5-2.5.5zm-7 1 2.5.5-2.5.5zm-83 1 2.5.5-2.5.5zm73 0 2.5.5-2.5.5zm-77 1-10 11zm11 0 2.5.5-2.5.5zm5 0 2.5.5-2.5.5zm44 0 7.5.5-7.5.5zm11 2 1.5.5-3 2-.5 1.5-.5-1.5zm-63 2 3.5 1.5-1.5-.5-3 1zm3 5 .5 6.5h-1zm54 4-3 4zm5 2-1 2zm-3 4-3 4-2 1 1-2zm-55 1 1 2zm-5 2 3.5 4.5-4-3zm38 3-2 3zm12 0 1.5.5-3.5 1.5v-1zm-5 2 1.5.5-3.5 1.5v-1zm-37 1 2.5.5-2.5.5z"/><path fill="#252a31" stroke="#252a31" d="m169.5 80 .5 3.5h-1zm-89 15 5.5.5-5.5.5zm19 0 5.5.5-5.5.5zm11 1 2.5.5-2.5.5zm20 6 2 3zm37 1 .5 8.5h-1zm-32 4 1 2zm4 10 .5 6.5h-1zm26 5 .5 2.5h-1zm-119 2 .5 3.5h-1zm118 4 .5 2.5h-1zm-71 2 6.5.5-6.5.5zm33 3 6.5 1-2 18.5-3 10-2.5 2.5-55 1q-1.5-2.5-7-1l-6.5-5.5-3-8 19-3.5q1.1-2.7-1.5-2l-7.5-3.5 2.5-2.5 4-1 24-2 1-1h11l9-2h10zm-88 2 .5 2.5h-1zm8 4 .5 4.5h-1zm-8 8 .5 3.5h-1zm117 9-1 2zm-3 4-1 2zm-14 3 3.5.5-3.5.5zm3 6 2.5.5-2.5.5zm-10 1 3.5.5-3.5.5zm-12 1 2.5.5-2.5.5zm-46 1 33.5.5-33.5.5zm-10 5 .5 2.5h-1zm49 10-1 2zm7 2 .5 2 9 5.5 1 3.5-27-.5 12.5-5.5 3.5-3.5zm-63 3q2.6-.8 1.5 2.5 2.4 4.1 8 5l-18.5.5.5-1.5 2.5-3.5zm105 4 .5 3.5h-1z"/><path stroke="#000" d="m93.5 46 6.5.5-6.5.5zm17 0 6.5.5-6.5.5zm-25 1 3.5.5-3.5.5zm36 0 3.5.5-3.5.5zm-43 1 3.5.5-3.5.5zm49 0 2.5.5-2.5.5zm-53 1 2.5.5-2.5.5zm-9 2 3.5.5-3.5.5zm-6 2 1.5.5-3.5 1.5v-1zm-4 2-1 2-4 2 1-2zm99 1 1 2zm3 2 1 2zm-109 1-1 2zm112 1L173 71.5l3 6v7h-1v-7l-3-6-8.5-8.5zm-115 1L38 69.5 36.5 72l.5-1.5zm-10 12-.5 1.5-1.5 2.5.5-1.5zm-3 5 .5 1.5-1.5 2.5-.5-1.5zm-2 6 .5 2.5h-1zm-1 7 .5 16.5h-1zm146 0 .5 2.5-1.5 7.5-.5-6.5zm-2 11 .5 12.5h-1zm-143 9 .5 4.5h-1zm142 5 .5 5.5-1.5 5.5-.5-4.5zm-141 5 .5 3.5h-1zm1 7 .5 5.5h-1zm138 1 .5 3.5h-1zm-1 5 .5 3.5h-1zm-1 5 .5 2.5h-1zm-1 4 .5 2.5h-1zm-135 3 .5 5.5h-1zm132 6 .5 1.5-6 9-.5 4.5-.5-4.5zm-128 8 5 6 5.5 2.5-8 7 6-7.5q-5.4-.6-8-5.5zm1 18-3 4zm-4 5-1 2zm-2 3-.5 1.5-2.5 4.5.5-1.5zm-5 9 .5 1.5-1.5 2.5-.5-1.5zm141 1 .5 3.5h-1z" opacity=".384"/></svg>