<svg width="200" height="200" version="1.1" xmlns="http://www.w3.org/2000/svg" desc="Created with imagetracer.js version 1.2.6" ><path fill="rgb(0,0,0)" stroke="rgb(0,0,0)" stroke-width="1" opacity="0.07450980392156863" d="M 110.5 48 L 126.5 48 L 131 49.5 L 127.5 50 L 126.5 49 L 110.5 49 L 110.5 48 Z " /><path fill="rgb(0,0,0)" stroke="rgb(0,0,0)" stroke-width="1" opacity="0.07450980392156863" d="M 101.5 49 L 109 49.5 L 79.5 54 L 79.5 53 L 101.5 49 Z " /><path fill="rgb(0,0,0)" stroke="rgb(0,0,0)" stroke-width="1" opacity="0.07450980392156863" d="M 132.5 50 L 141 52.5 L 139.5 53 L 132.5 51 L 132.5 50 Z " /><path fill="rgb(0,0,0)" stroke="rgb(0,0,0)" stroke-width="1" opacity="0.07450980392156863" d="M 142.5 53 L 156.5 58 L 169 69.5 L 170 72.5 L 169 72.5 L 168 69.5 L 160.5 62 L 152.5 57 L 142.5 54 L 142.5 53 Z " /><path fill="rgb(0,0,0)" stroke="rgb(0,0,0)" stroke-width="1" opacity="0.07450980392156863" d="M 75.5 54 L 78 54.5 L 75.5 55 L 75.5 54 Z " /><path fill="rgb(0,0,0)" stroke="rgb(0,0,0)" stroke-width="1" opacity="0.07450980392156863" d="M 71.5 55 L 74 55.5 Q 61.3 58.3 51.5 64 L 52.5 62 L 71.5 55 Z " /><path fill="rgb(0,0,0)" stroke="rgb(0,0,0)" stroke-width="1" opacity="0.07450980392156863" d="M 47.5 65 L 46.5 67 L 45 66.5 L 47.5 65 Z " /><path fill="rgb(0,0,0)" stroke="rgb(0,0,0)" stroke-width="1" opacity="0.07450980392156863" d="M 43.5 67 L 40.5 71 L 34 76.5 Q 27.1 84.6 24.5 97 L 24 94.5 Q 28.3 78.8 39.5 70 L 43.5 67 Z " /><path fill="rgb(0,0,0)" stroke="rgb(0,0,0)" stroke-width="1" opacity="0.07450980392156863" d="M 171.5 76 L 177 94.5 L 177 108.5 L 173.5 120 L 173 117.5 Q 177.8 109.3 176 94.5 L 171.5 76 Z " /><path fill="rgb(0,0,0)" stroke="rgb(0,0,0)" stroke-width="1" opacity="0.07450980392156863" d="M 23.5 98 L 24 101.5 L 23 101.5 L 23.5 98 Z " /><path fill="rgb(0,0,0)" stroke="rgb(0,0,0)" stroke-width="1" opacity="0.07450980392156863" d="M 22.5 103 L 23 108.5 L 22 109.5 L 21.5 127 L 21 109.5 L 22.5 103 Z " /><path fill="rgb(0,0,0)" stroke="rgb(0,0,0)" stroke-width="1" opacity="0.07450980392156863" d="M 172.5 121 L 173 126.5 L 172 126.5 L 172.5 121 Z " /><path fill="rgb(0,0,0)" stroke="rgb(0,0,0)" stroke-width="1" opacity="0.07450980392156863" d="M 22.5 128 L 23 135.5 L 22 135.5 L 22.5 128 Z " /><path fill="rgb(0,0,0)" stroke="rgb(0,0,0)" stroke-width="1" opacity="0.07450980392156863" d="M 173.5 128 L 174 130.5 L 173 130.5 L 173.5 128 Z " /><path fill="rgb(0,0,0)" stroke="rgb(0,0,0)" stroke-width="1" opacity="0.07450980392156863" d="M 172.5 132 L 173 136.5 L 170.5 147 L 170 144.5 L 172.5 132 Z " /><path fill="rgb(0,0,0)" stroke="rgb(0,0,0)" stroke-width="1" opacity="0.07450980392156863" d="M 23.5 137 L 24 141.5 L 23 141.5 L 23.5 137 Z " /><path fill="rgb(0,0,0)" stroke="rgb(0,0,0)" stroke-width="1" opacity="0.07450980392156863" d="M 24.5 143 L 25 150.5 L 24 150.5 L 24.5 143 Z " /><path fill="rgb(0,0,0)" stroke="rgb(0,0,0)" stroke-width="1" opacity="0.07450980392156863" d="M 169.5 148 L 170 150.5 L 163 162.5 Q 165.8 164.3 164 170.5 L 174 185.5 L 172 184.5 Q 169.2 175.8 163 170.5 L 162 161.5 Q 167.9 156.9 169.5 148 Z " /><path fill="rgb(0,0,0)" stroke="rgb(0,0,0)" stroke-width="1" opacity="0.07450980392156863" d="M 25.5 152 Q 26.7 159.3 31.5 163 L 34 164.5 L 32.5 164 L 28 160.5 L 25 154.5 L 25.5 152 Z " /><path fill="rgb(0,0,0)" stroke="rgb(0,0,0)" stroke-width="1" opacity="0.07450980392156863" d="M 35.5 165 L 35 166.5 Q 30.1 170.6 30.5 180 L 30 173.5 L 35.5 165 Z " /><path fill="rgb(0,0,0)" stroke="rgb(0,0,0)" stroke-width="1" opacity="0.07450980392156863" d="M 31.5 181 L 33 187.5 L 27.5 197 L 27 195.5 L 32 187.5 L 32 184.5 L 31.5 181 Z " /><path fill="rgb(0,0,0)" stroke="rgb(0,0,0)" stroke-width="1" opacity="0.07450980392156863" d="M 175.5 189 L 180 199.5 L 179 199.5 L 175.5 189 Z " /><path fill="rgb(0,0,0)" stroke="rgb(0,0,0)" stroke-width="1" opacity="0" d="M 0 0 L 200 0 L 200 200 L 180.5 200 L 180 198.5 Q 174.6 181.9 164 170.5 L 163 161.5 L 169 153.5 L 172 143.5 L 174 128.5 Q 171.2 126.7 173 120.5 L 177 108.5 L 177 94.5 L 174 81.5 L 169 69.5 L 159.5 60 L 152.5 56 L 146.5 55 L 135.5 50 Q 129.4 50.6 126.5 48 L 110.5 48 L 109.5 49 L 101.5 49 L 100.5 50 L 83.5 52 L 59.5 59 L 43.5 67 L 33 76.5 Q 19.4 93.9 21 126.5 L 22 127.5 L 22 135.5 L 24 142.5 L 25 154.5 L 31.5 164 L 35 165.5 L 30 173.5 L 30 179.5 L 32 187.5 Q 26.9 192.5 26 200 L 0.5 200 L 0 199.5 L 0 0 Z " /><path fill="rgb(245,232,193)" stroke="rgb(245,232,193)" stroke-width="1" opacity="1" d="M 108.5 55 L 126.5 55 L 154 64.5 L 152.5 65 Q 148.9 62.1 141.5 63 L 138.5 64 L 133.5 61 L 125.5 59 L 104.5 58 L 74.5 64 L 57.5 70 L 46 76.5 L 48 81.5 L 45.5 84 L 34.5 89 L 34 87.5 L 44.5 75 Q 55.7 66.2 71.5 62 L 108.5 55 Z " /><path fill="rgb(245,232,193)" stroke="rgb(245,232,193)" stroke-width="1" opacity="1" d="M 111.5 96 Q 117.3 96.3 120 99.5 L 121 105.5 L 118.5 109 L 109.5 113 L 103.5 114 L 99 110.5 Q 98.6 101.6 104.5 99 L 111.5 96 Z " /><path fill="rgb(245,232,193)" stroke="rgb(245,232,193)" stroke-width="1" opacity="1" d="M 55.5 107 Q 67.5 106.5 72 113.5 Q 73.9 118.9 70.5 118 L 66.5 121 L 55.5 121 L 50 116.5 L 49 114.5 L 53.5 108 L 55.5 107 Z " /><path fill="rgb(245,232,193)" stroke="rgb(245,232,193)" stroke-width="1" opacity="1" d="M 117.5 127 L 119 130 L 114 129.5 L 117.5 127 Z " /><path fill="rgb(245,232,193)" stroke="rgb(245,232,193)" stroke-width="1" opacity="1" d="M 143.5 151 Q 150.8 151.3 153 156.5 L 157 163.5 L 157 172.5 L 152.5 179 Q 147 178.6 145 174.5 Q 144.5 164.5 138 160.5 L 138 156.5 L 140.5 153 L 143.5 151 Z " /><path fill="rgb(245,232,193)" stroke="rgb(245,232,193)" stroke-width="1" opacity="1" d="M 125.5 160 L 128.5 160 L 135 165.5 L 139 173.5 L 136 180 L 129.5 184 L 126.5 184 L 124 180.5 L 122 167.5 L 125.5 160 Z " /><path fill="rgb(245,232,193)" stroke="rgb(245,232,193)" stroke-width="1" opacity="1" d="M 95.5 163 Q 109.6 162.4 116 169.5 L 117 177.5 L 116 182 L 110 185.5 L 109 190 L 97.5 193 L 87.5 193 L 81 182.5 L 80 176.5 Q 81.1 169.1 86.5 166 L 95.5 163 Z " /><path fill="rgb(245,232,193)" stroke="rgb(245,232,193)" stroke-width="1" opacity="1" d="M 46.5 164 L 52 167.5 L 52 180.5 L 50.5 181 L 46 187 L 43.5 187 L 37 180.5 L 37 174.5 L 43.5 166 L 46.5 164 Z " /><path fill="rgb(245,232,193)" stroke="rgb(245,232,193)" stroke-width="1" opacity="1" d="M 67.5 164 Q 73.3 163.3 74 167.5 L 75 174.5 L 74 179.5 L 65.5 191 L 61 187.5 Q 56.5 182 58 170.5 L 67.5 164 Z " /><path fill="rgb(27,21,15)" stroke="rgb(27,21,15)" stroke-width="1" opacity="1" d="M 109.5 54 L 113 54.5 L 109.5 55 L 109.5 54 Z " /><path fill="rgb(27,21,15)" stroke="rgb(27,21,15)" stroke-width="1" opacity="1" d="M 100.5 55 L 103 55.5 L 100.5 56 L 100.5 55 Z " /><path fill="rgb(27,21,15)" stroke="rgb(27,21,15)" stroke-width="1" opacity="1" d="M 130.5 55 L 131.5 57 L 130.5 55 Z " /><path fill="rgb(27,21,15)" stroke="rgb(27,21,15)" stroke-width="1" opacity="1" d="M 156.5 65 L 163.5 73 L 156.5 65 Z " /><path fill="rgb(27,21,15)" stroke="rgb(27,21,15)" stroke-width="1" opacity="1" d="M 42.5 75 L 41.5 77 L 42.5 75 Z " /><path fill="rgb(27,21,15)" stroke="rgb(27,21,15)" stroke-width="1" opacity="1" d="M 94.5 77 L 98 77.5 L 94.5 78 L 94.5 77 Z " /><path fill="rgb(27,21,15)" stroke="rgb(27,21,15)" stroke-width="1" opacity="1" d="M 114.5 77 L 120 77.5 L 114.5 78 L 114.5 77 Z " /><path fill="rgb(27,21,15)" stroke="rgb(27,21,15)" stroke-width="1" opacity="1" d="M 39.5 78 L 37.5 81 L 39.5 78 Z " /><path fill="rgb(27,21,15)" stroke="rgb(27,21,15)" stroke-width="1" opacity="1" d="M 87.5 78 L 90 78.5 L 87.5 79 L 87.5 78 Z " /><path fill="rgb(27,21,15)" stroke="rgb(27,21,15)" stroke-width="1" opacity="1" d="M 95.5 82 L 100 82.5 L 95.5 83 L 95.5 82 Z " /><path fill="rgb(27,21,15)" stroke="rgb(27,21,15)" stroke-width="1" opacity="1" d="M 112.5 82 L 118 82.5 L 112.5 83 L 112.5 82 Z " /><path fill="rgb(27,21,15)" stroke="rgb(27,21,15)" stroke-width="1" opacity="1" d="M 88.5 83 L 92 83.5 L 88.5 84 L 88.5 83 Z " /><path fill="rgb(27,21,15)" stroke="rgb(27,21,15)" stroke-width="1" opacity="1" d="M 134.5 83 L 137.5 87 L 134.5 83 Z " /><path fill="rgb(27,21,15)" stroke="rgb(27,21,15)" stroke-width="1" opacity="1" d="M 83.5 84 L 86 84.5 L 83.5 85 L 83.5 84 Z " /><path fill="rgb(27,21,15)" stroke="rgb(27,21,15)" stroke-width="1" opacity="1" d="M 75.5 86 L 78 86.5 L 75.5 87 L 75.5 86 Z " /><path fill="rgb(27,21,15)" stroke="rgb(27,21,15)" stroke-width="1" opacity="1" d="M 129.5 86 L 134 89.5 L 135 91.5 L 133 90.5 L 131.5 88 L 129.5 86 Z " /><path fill="rgb(27,21,15)" stroke="rgb(27,21,15)" stroke-width="1" opacity="1" d="M 69.5 88 L 71 88.5 L 67.5 90 L 67.5 89 L 69.5 88 Z " /><path fill="rgb(27,21,15)" stroke="rgb(27,21,15)" stroke-width="1" opacity="1" d="M 138.5 88 L 139.5 90 L 138.5 88 Z " /><path fill="rgb(27,21,15)" stroke="rgb(27,21,15)" stroke-width="1" opacity="1" d="M 52.5 90 L 51.5 92 L 52.5 90 Z " /><path fill="rgb(27,21,15)" stroke="rgb(27,21,15)" stroke-width="1" opacity="1" d="M 169.5 90 L 170 92.5 L 169 92.5 L 169.5 90 Z " /><path fill="rgb(27,21,15)" stroke="rgb(27,21,15)" stroke-width="1" opacity="1" d="M 49.5 92 L 48.5 94 L 49.5 92 Z " /><path fill="rgb(27,21,15)" stroke="rgb(27,21,15)" stroke-width="1" opacity="1" d="M 135.5 93 L 136.5 95 L 135.5 93 Z " /><path fill="rgb(27,21,15)" stroke="rgb(27,21,15)" stroke-width="1" opacity="1" d="M 56.5 94 L 55.5 96 L 56.5 94 Z " /><path fill="rgb(27,21,15)" stroke="rgb(27,21,15)" stroke-width="1" opacity="1" d="M 52.5 96 L 54 96.5 L 48 101.5 L 47.5 103 L 47 101.5 L 52.5 96 Z " /><path fill="rgb(27,21,15)" stroke="rgb(27,21,15)" stroke-width="1" opacity="1" d="M 170.5 96 L 171 107.5 L 170 107.5 L 170.5 96 Z " /><path fill="rgb(27,21,15)" stroke="rgb(27,21,15)" stroke-width="1" opacity="1" d="M 44.5 97 L 43.5 99 L 44.5 97 Z " /><path fill="rgb(27,21,15)" stroke="rgb(27,21,15)" stroke-width="1" opacity="1" d="M 29.5 98 L 30 100.5 L 29 100.5 L 29.5 98 Z " /><path fill="rgb(27,21,15)" stroke="rgb(27,21,15)" stroke-width="1" opacity="1" d="M 28.5 103 L 29 105.5 L 28 105.5 L 28.5 103 Z " /><path fill="rgb(27,21,15)" stroke="rgb(27,21,15)" stroke-width="1" opacity="1" d="M 27.5 110 L 28 125.5 L 27 125.5 L 27.5 110 Z " /><path fill="rgb(27,21,15)" stroke="rgb(27,21,15)" stroke-width="1" opacity="1" d="M 39.5 110 L 40 112.5 L 39 112.5 L 39.5 110 Z " /><path fill="rgb(27,21,15)" stroke="rgb(27,21,15)" stroke-width="1" opacity="1" d="M 44.5 111 L 45 114.5 L 44 114.5 L 44.5 111 Z " /><path fill="rgb(27,21,15)" stroke="rgb(27,21,15)" stroke-width="1" opacity="1" d="M 150.5 118 L 151 129.5 L 150 129.5 L 150.5 118 Z " /><path fill="rgb(27,21,15)" stroke="rgb(27,21,15)" stroke-width="1" opacity="1" d="M 145.5 119 L 146 130.5 L 145 130.5 L 145.5 119 Z " /><path fill="rgb(27,21,15)" stroke="rgb(27,21,15)" stroke-width="1" opacity="1" d="M 116.5 121 L 119 121.5 L 116.5 122 L 116.5 121 Z " /><path fill="rgb(27,21,15)" stroke="rgb(27,21,15)" stroke-width="1" opacity="1" d="M 166.5 121 L 167 124.5 L 166 124.5 L 166.5 121 Z " /><path fill="rgb(27,21,15)" stroke="rgb(27,21,15)" stroke-width="1" opacity="1" d="M 121.5 122 L 124.5 126 L 121.5 122 Z " /><path fill="rgb(27,21,15)" stroke="rgb(27,21,15)" stroke-width="1" opacity="1" d="M 111.5 123 L 108.5 127 L 111.5 123 Z " /><path fill="rgb(27,21,15)" stroke="rgb(27,21,15)" stroke-width="1" opacity="1" d="M 44.5 127 L 45 131.5 L 44 131.5 L 44.5 127 Z " /><path fill="rgb(27,21,15)" stroke="rgb(27,21,15)" stroke-width="1" opacity="1" d="M 39.5 128 L 40 132.5 L 39 132.5 L 39.5 128 Z " /><path fill="rgb(27,21,15)" stroke="rgb(27,21,15)" stroke-width="1" opacity="1" d="M 98.5 130 L 106 130.5 L 98.5 131 L 98.5 130 Z " /><path fill="rgb(27,21,15)" stroke="rgb(27,21,15)" stroke-width="1" opacity="1" d="M 112.5 130 L 121 130.5 L 112.5 131 L 112.5 130 Z " /><path fill="rgb(27,21,15)" stroke="rgb(27,21,15)" stroke-width="1" opacity="1" d="M 166.5 132 L 167 135.5 L 166 135.5 L 166.5 132 Z " /><path fill="rgb(27,21,15)" stroke="rgb(27,21,15)" stroke-width="1" opacity="1" d="M 28.5 133 L 29 135.5 L 28 135.5 L 28.5 133 Z " /><path fill="rgb(27,21,15)" stroke="rgb(27,21,15)" stroke-width="1" opacity="1" d="M 114.5 134 L 117 134.5 L 114.5 135 L 114.5 134 Z " /><path fill="rgb(27,21,15)" stroke="rgb(27,21,15)" stroke-width="1" opacity="1" d="M 144.5 134 L 145 136.5 L 144 136.5 L 144.5 134 Z " /><path fill="rgb(27,21,15)" stroke="rgb(27,21,15)" stroke-width="1" opacity="1" d="M 149.5 135 L 150 137.5 L 149 137.5 L 149.5 135 Z " /><path fill="rgb(27,21,15)" stroke="rgb(27,21,15)" stroke-width="1" opacity="1" d="M 63.5 136 L 62.5 138 L 63.5 136 Z " /><path fill="rgb(27,21,15)" stroke="rgb(27,21,15)" stroke-width="1" opacity="1" d="M 45.5 138 L 46 140.5 L 45 140.5 L 45.5 138 Z " /><path fill="rgb(27,21,15)" stroke="rgb(27,21,15)" stroke-width="1" opacity="1" d="M 29.5 139 L 30 141.5 L 29 141.5 L 29.5 139 Z " /><path fill="rgb(27,21,15)" stroke="rgb(27,21,15)" stroke-width="1" opacity="1" d="M 165.5 139 L 166 141.5 L 165 141.5 L 165.5 139 Z " /><path fill="rgb(27,21,15)" stroke="rgb(27,21,15)" stroke-width="1" opacity="1" d="M 142.5 145 L 141.5 147 L 140 146.5 L 142.5 145 Z " /><path fill="rgb(27,21,15)" stroke="rgb(27,21,15)" stroke-width="1" opacity="1" d="M 30.5 147 L 31 150.5 L 30 150.5 L 30.5 147 Z " /><path fill="rgb(27,21,15)" stroke="rgb(27,21,15)" stroke-width="1" opacity="1" d="M 138.5 147 L 134.5 152 L 138.5 147 Z " /><path fill="rgb(27,21,15)" stroke="rgb(27,21,15)" stroke-width="1" opacity="1" d="M 163.5 147 L 164 149.5 L 163 149.5 L 163.5 147 Z " /><path fill="rgb(27,21,15)" stroke="rgb(27,21,15)" stroke-width="1" opacity="1" d="M 151.5 148 L 156 151.5 L 152.5 149 L 151.5 148 Z " /><path fill="rgb(27,21,15)" stroke="rgb(27,21,15)" stroke-width="1" opacity="1" d="M 156.5 153 L 158.5 156 L 156.5 153 Z " /><path fill="rgb(27,21,15)" stroke="rgb(27,21,15)" stroke-width="1" opacity="1" d="M 161.5 153 L 161 154.5 L 160.5 156 L 160 154.5 L 161.5 153 Z " /><path fill="rgb(27,21,15)" stroke="rgb(27,21,15)" stroke-width="1" opacity="1" d="M 50.5 154 L 56 158.5 L 54.5 159 L 50.5 154 Z " /><path fill="rgb(27,21,15)" stroke="rgb(27,21,15)" stroke-width="1" opacity="1" d="M 122.5 155 L 119.5 159 L 122.5 155 Z " /><path fill="rgb(27,21,15)" stroke="rgb(27,21,15)" stroke-width="1" opacity="1" d="M 46.5 157 L 47.5 159 L 46.5 157 Z " /><path fill="rgb(27,21,15)" stroke="rgb(27,21,15)" stroke-width="1" opacity="1" d="M 68.5 158 L 71 158.5 L 68.5 159 L 68.5 158 Z " /><path fill="rgb(27,21,15)" stroke="rgb(27,21,15)" stroke-width="1" opacity="1" d="M 38.5 160 L 41 161.5 L 39.5 162 L 38.5 160 Z " /><path fill="rgb(27,21,15)" stroke="rgb(27,21,15)" stroke-width="1" opacity="1" d="M 75.5 160 L 77.5 163 L 75.5 160 Z " /><path fill="rgb(27,21,15)" stroke="rgb(27,21,15)" stroke-width="1" opacity="1" d="M 84.5 160 L 86 160.5 L 83.5 162 L 84.5 160 Z " /><path fill="rgb(27,21,15)" stroke="rgb(27,21,15)" stroke-width="1" opacity="1" d="M 118.5 160 L 118 161.5 Q 118.8 163.8 116.5 163 L 118.5 160 Z " /><path fill="rgb(27,21,15)" stroke="rgb(27,21,15)" stroke-width="1" opacity="1" d="M 81.5 162 L 79.5 165 L 78 164.5 L 81.5 162 Z " /><path fill="rgb(27,21,15)" stroke="rgb(27,21,15)" stroke-width="1" opacity="1" d="M 96.5 162 L 101 162.5 L 96.5 163 L 96.5 162 Z " /><path fill="rgb(27,21,15)" stroke="rgb(27,21,15)" stroke-width="1" opacity="1" d="M 72.5 164 L 73.5 166 L 72.5 164 Z " /><path fill="rgb(27,21,15)" stroke="rgb(27,21,15)" stroke-width="1" opacity="1" d="M 84.5 166 L 83.5 168 L 84.5 166 Z " /><path fill="rgb(27,21,15)" stroke="rgb(27,21,15)" stroke-width="1" opacity="1" d="M 136.5 166 L 137.5 168 L 136.5 166 Z " /><path fill="rgb(27,21,15)" stroke="rgb(27,21,15)" stroke-width="1" opacity="1" d="M 59.5 167 L 58.5 169 L 59.5 167 Z " /><path fill="rgb(27,21,15)" stroke="rgb(27,21,15)" stroke-width="1" opacity="1" d="M 52.5 175 L 53 178.5 L 52 178.5 L 52.5 175 Z " /><path fill="rgb(27,21,15)" stroke="rgb(27,21,15)" stroke-width="1" opacity="1" d="M 160.5 177 L 163 178.5 L 161.5 178 L 160.5 177 Z " /><path fill="rgb(27,21,15)" stroke="rgb(27,21,15)" stroke-width="1" opacity="1" d="M 159.5 179 L 158.5 181 L 159.5 179 Z " /><path fill="rgb(27,21,15)" stroke="rgb(27,21,15)" stroke-width="1" opacity="1" d="M 142.5 180 L 135.5 188 L 132.5 189 L 132.5 188 Q 139.7 186.3 142.5 180 Z " /><path fill="rgb(27,21,15)" stroke="rgb(27,21,15)" stroke-width="1" opacity="1" d="M 163.5 180 L 164.5 182 L 163.5 180 Z " /><path fill="rgb(27,21,15)" stroke="rgb(27,21,15)" stroke-width="1" opacity="1" d="M 144.5 181 L 150 184.5 L 148.5 185 L 144.5 181 Z " /><path fill="rgb(27,21,15)" stroke="rgb(27,21,15)" stroke-width="1" opacity="1" d="M 37.5 182 L 42.5 188 L 37.5 182 Z " /><path fill="rgb(27,21,15)" stroke="rgb(27,21,15)" stroke-width="1" opacity="1" d="M 157.5 182 L 154.5 186 L 151 185.5 Q 156.1 185.6 157.5 182 Z " /><path fill="rgb(27,21,15)" stroke="rgb(27,21,15)" stroke-width="1" opacity="1" d="M 165.5 183 L 169 188.5 L 167 187.5 L 165.5 183 Z " /><path fill="rgb(27,21,15)" stroke="rgb(27,21,15)" stroke-width="1" opacity="1" d="M 53.5 185 L 56 188.5 L 53.5 187 L 49 190.5 L 53.5 185 Z " /><path fill="rgb(27,21,15)" stroke="rgb(27,21,15)" stroke-width="1" opacity="1" d="M 70.5 185 L 69.5 187 L 70.5 185 Z " /><path fill="rgb(27,21,15)" stroke="rgb(27,21,15)" stroke-width="1" opacity="1" d="M 119.5 186 L 122 187.5 L 120.5 187 L 119.5 186 Z " /><path fill="rgb(27,21,15)" stroke="rgb(27,21,15)" stroke-width="1" opacity="1" d="M 116.5 187 L 118 187.5 L 115.5 189 L 116.5 187 Z " /><path fill="rgb(27,21,15)" stroke="rgb(27,21,15)" stroke-width="1" opacity="1" d="M 74.5 188 L 72.5 191 L 74.5 188 Z " /><path fill="rgb(27,21,15)" stroke="rgb(27,21,15)" stroke-width="1" opacity="1" d="M 56.5 190 L 60.5 195 L 56.5 190 Z " /><path fill="rgb(27,21,15)" stroke="rgb(27,21,15)" stroke-width="1" opacity="1" d="M 79.5 190 L 81 192.5 L 80 192.5 L 79.5 190 Z " /><path fill="rgb(27,21,15)" stroke="rgb(27,21,15)" stroke-width="1" opacity="1" d="M 40.5 191 L 41.5 193 L 40.5 191 Z " /><path fill="rgb(27,21,15)" stroke="rgb(27,21,15)" stroke-width="1" opacity="1" d="M 47.5 192 L 46.5 194 L 45 193.5 L 47.5 192 Z " /><path fill="rgb(27,21,15)" stroke="rgb(27,21,15)" stroke-width="1" opacity="1" d="M 170.5 192 L 172 195.5 L 171 195.5 L 170.5 192 Z " /><path fill="rgb(27,21,15)" stroke="rgb(27,21,15)" stroke-width="1" opacity="1" d="M 70.5 194 L 68.5 197 L 64 196.5 Q 69 197 70.5 194 Z " /><path fill="rgb(27,21,15)" stroke="rgb(27,21,15)" stroke-width="1" opacity="1" d="M 81.5 194 L 84.5 198 L 87 198.5 L 84.5 199 L 81 195.5 L 81.5 194 Z " /><path fill="rgb(27,21,15)" stroke="rgb(27,21,15)" stroke-width="1" opacity="1" d="M 101.5 197 L 104 197.5 L 101.5 198 L 101.5 197 Z " /><path fill="rgb(27,21,15)" stroke="rgb(27,21,15)" stroke-width="1" opacity="1" d="M 93.5 198 L 98 198.5 L 93.5 199 L 93.5 198 Z " /><path fill="rgb(0,0,0)" stroke="rgb(0,0,0)" stroke-width="1" opacity="0.8313725490196079" d="M 109.5 49 L 127 49.5 L 109.5 50 L 109.5 49 Z " /><path fill="rgb(0,0,0)" stroke="rgb(0,0,0)" stroke-width="1" opacity="0.8313725490196079" d="M 101.5 50 L 106 50.5 L 101.5 51 L 101.5 50 Z " /><path fill="rgb(0,0,0)" stroke="rgb(0,0,0)" stroke-width="1" opacity="0.8313725490196079" d="M 129.5 50 L 132 50.5 L 129.5 51 L 129.5 50 Z " /><path fill="rgb(0,0,0)" stroke="rgb(0,0,0)" stroke-width="1" opacity="0.8313725490196079" d="M 94.5 51 L 98 51.5 L 94.5 52 L 94.5 51 Z " /><path fill="rgb(0,0,0)" stroke="rgb(0,0,0)" stroke-width="1" opacity="0.8313725490196079" d="M 133.5 51 L 136 51.5 L 133.5 52 L 133.5 51 Z " /><path fill="rgb(0,0,0)" stroke="rgb(0,0,0)" stroke-width="1" opacity="0.8313725490196079" d="M 88.5 52 L 92 52.5 L 88.5 53 L 88.5 52 Z " /><path fill="rgb(0,0,0)" stroke="rgb(0,0,0)" stroke-width="1" opacity="0.8313725490196079" d="M 83.5 53 L 86 53.5 L 83.5 54 L 83.5 53 Z " /><path fill="rgb(0,0,0)" stroke="rgb(0,0,0)" stroke-width="1" opacity="0.8313725490196079" d="M 78.5 54 L 81 54.5 L 78.5 55 L 78.5 54 Z " /><path fill="rgb(0,0,0)" stroke="rgb(0,0,0)" stroke-width="1" opacity="0.8313725490196079" d="M 74.5 55 L 77 55.5 L 74.5 56 L 74.5 55 Z " /><path fill="rgb(0,0,0)" stroke="rgb(0,0,0)" stroke-width="1" opacity="0.8313725490196079" d="M 154.5 58 L 168 69.5 L 160.5 63 Q 155.3 61.2 154.5 58 Z " /><path fill="rgb(0,0,0)" stroke="rgb(0,0,0)" stroke-width="1" opacity="0.8313725490196079" d="M 54.5 62 L 56 62.5 L 47.5 67 L 48.5 65 L 54.5 62 Z " /><path fill="rgb(0,0,0)" stroke="rgb(0,0,0)" stroke-width="1" opacity="0.8313725490196079" d="M 44.5 67 L 46 67.5 L 42.5 70 L 44.5 67 Z " /><path fill="rgb(0,0,0)" stroke="rgb(0,0,0)" stroke-width="1" opacity="0.8313725490196079" d="M 39.5 71 L 34.5 77 L 39.5 71 Z " /><path fill="rgb(0,0,0)" stroke="rgb(0,0,0)" stroke-width="1" opacity="0.8313725490196079" d="M 168.5 71 L 171 76.5 L 170 76.5 L 168.5 71 Z " /><path fill="rgb(0,0,0)" stroke="rgb(0,0,0)" stroke-width="1" opacity="0.8313725490196079" d="M 33.5 78 L 32 80.5 L 30.5 83 L 31 81.5 L 33.5 78 Z " /><path fill="rgb(0,0,0)" stroke="rgb(0,0,0)" stroke-width="1" opacity="0.8313725490196079" d="M 174.5 89 L 175 91.5 L 174 91.5 L 174.5 89 Z " /><path fill="rgb(0,0,0)" stroke="rgb(0,0,0)" stroke-width="1" opacity="0.8313725490196079" d="M 175.5 94 L 176 108.5 L 175 108.5 L 175.5 94 Z " /><path fill="rgb(0,0,0)" stroke="rgb(0,0,0)" stroke-width="1" opacity="0.8313725490196079" d="M 24.5 97 L 25 99.5 L 24 99.5 L 24.5 97 Z " /><path fill="rgb(0,0,0)" stroke="rgb(0,0,0)" stroke-width="1" opacity="0.8313725490196079" d="M 23.5 102 L 24 105.5 L 23 105.5 L 23.5 102 Z " /><path fill="rgb(0,0,0)" stroke="rgb(0,0,0)" stroke-width="1" opacity="0.8313725490196079" d="M 22.5 109 L 23 127.5 L 22 127.5 L 22.5 109 Z " /><path fill="rgb(0,0,0)" stroke="rgb(0,0,0)" stroke-width="1" opacity="0.8313725490196079" d="M 173.5 114 L 174 116.5 L 173 116.5 L 173.5 114 Z " /><path fill="rgb(0,0,0)" stroke="rgb(0,0,0)" stroke-width="1" opacity="0.8313725490196079" d="M 172.5 118 L 173 120.5 L 172 120.5 L 172.5 118 Z " /><path fill="rgb(0,0,0)" stroke="rgb(0,0,0)" stroke-width="1" opacity="0.8313725490196079" d="M 172.5 127 L 173 131.5 L 172 131.5 L 172.5 127 Z " /><path fill="rgb(0,0,0)" stroke="rgb(0,0,0)" stroke-width="1" opacity="0.8313725490196079" d="M 23.5 133 L 24 136.5 L 23 136.5 L 23.5 133 Z " /><path fill="rgb(0,0,0)" stroke="rgb(0,0,0)" stroke-width="1" opacity="0.8313725490196079" d="M 171.5 134 L 172 136.5 L 171 136.5 L 171.5 134 Z " /><path fill="rgb(0,0,0)" stroke="rgb(0,0,0)" stroke-width="1" opacity="0.8313725490196079" d="M 24.5 139 L 25 142.5 L 24 142.5 L 24.5 139 Z " /><path fill="rgb(0,0,0)" stroke="rgb(0,0,0)" stroke-width="1" opacity="0.8313725490196079" d="M 170.5 140 L 171 143.5 L 170 143.5 L 170.5 140 Z " /><path fill="rgb(0,0,0)" stroke="rgb(0,0,0)" stroke-width="1" opacity="0.8313725490196079" d="M 169.5 145 L 170 147.5 L 169 147.5 L 169.5 145 Z " /><path fill="rgb(0,0,0)" stroke="rgb(0,0,0)" stroke-width="1" opacity="0.8313725490196079" d="M 25.5 147 L 26 151.5 L 25 151.5 L 25.5 147 Z " /><path fill="rgb(0,0,0)" stroke="rgb(0,0,0)" stroke-width="1" opacity="0.8313725490196079" d="M 167.5 152 L 168 153.5 L 165.5 157 L 166 155.5 L 167.5 152 Z " /><path fill="rgb(0,0,0)" stroke="rgb(0,0,0)" stroke-width="1" opacity="0.8313725490196079" d="M 164.5 158 L 162.5 161 L 164.5 158 Z " /><path fill="rgb(0,0,0)" stroke="rgb(0,0,0)" stroke-width="1" opacity="0.8313725490196079" d="M 29.5 160 L 31.5 163 L 29.5 160 Z " /><path fill="rgb(0,0,0)" stroke="rgb(0,0,0)" stroke-width="1" opacity="0.8313725490196079" d="M 33.5 163 L 37 165.5 L 35 166.5 L 35.5 165 L 33.5 163 Z " /><path fill="rgb(0,0,0)" stroke="rgb(0,0,0)" stroke-width="1" opacity="0.8313725490196079" d="M 162.5 163 L 163 165.5 L 162 165.5 L 162.5 163 Z " /><path fill="rgb(0,0,0)" stroke="rgb(0,0,0)" stroke-width="1" opacity="0.8313725490196079" d="M 34.5 168 L 33.5 170 L 34.5 168 Z " /><path fill="rgb(0,0,0)" stroke="rgb(0,0,0)" stroke-width="1" opacity="0.8313725490196079" d="M 163.5 171 L 168 176.5 L 163 172.5 L 163.5 171 Z " /><path fill="rgb(0,0,0)" stroke="rgb(0,0,0)" stroke-width="1" opacity="0.8313725490196079" d="M 31.5 173 L 32 180.5 L 31 180.5 L 31.5 173 Z " /><path fill="rgb(0,0,0)" stroke="rgb(0,0,0)" stroke-width="1" opacity="0.8313725490196079" d="M 168.5 178 L 171 181.5 L 169 180.5 L 168.5 178 Z " /><path fill="rgb(0,0,0)" stroke="rgb(0,0,0)" stroke-width="1" opacity="0.8313725490196079" d="M 32.5 182 L 34 186.5 L 33 186.5 L 32.5 182 Z " /><path fill="rgb(0,0,0)" stroke="rgb(0,0,0)" stroke-width="1" opacity="0.8313725490196079" d="M 172.5 185 L 175 189.5 L 174 189.5 L 172.5 185 Z " /><path fill="rgb(0,0,0)" stroke="rgb(0,0,0)" stroke-width="1" opacity="0.8313725490196079" d="M 31.5 190 L 31 191.5 L 26.5 200 L 27 198.5 L 31.5 190 Z " /><path fill="rgb(199,85,68)" stroke="rgb(199,85,68)" stroke-width="1" opacity="1" d="M 105.5 58 L 124.5 59 L 135.5 62 L 137.5 64 L 140.5 64 Q 141.8 61.7 146.5 63 L 156 66.5 Q 155.3 68.8 157.5 68 L 163 73.5 L 167 86 L 151.5 86 L 147 87 L 154 108.5 L 155 119.5 L 156 120.5 L 156 128.5 L 155 129.5 L 154 141.5 L 151.5 148 L 148 145.5 L 151 132.5 L 151 117.5 L 145 98.5 L 137 84 L 128.5 79 L 121.5 77 L 101.5 76 L 100.5 77 L 92.5 77 L 81.5 79 L 67.5 83 L 51.5 90 L 44 96.5 L 39 109.5 L 38 121.5 L 39 122.5 L 40 141.5 Q 43 145.5 43 152.5 L 46 157.5 Q 44.6 160.6 39.5 160 L 34 156.5 L 32 152.5 L 31 140.5 L 29 133.5 L 29 105.5 L 33 89 L 45.5 84 L 48 81.5 L 47 76.5 L 53.5 72 L 75.5 64 L 105.5 58 Z " /><path fill="rgb(199,85,68)" stroke="rgb(199,85,68)" stroke-width="1" opacity="1" d="M 37 191 L 48 195.5 Q 48.5 200 47.5 200 L 33 200 L 37 191 Z " /><path fill="rgb(0,0,0)" stroke="rgb(0,0,0)" stroke-width="1" opacity="0.996078431372549" d="M 106.5 50 L 110 50.5 L 106.5 51 L 106.5 50 Z " /><path fill="rgb(0,0,0)" stroke="rgb(0,0,0)" stroke-width="1" opacity="0.996078431372549" d="M 126.5 50 L 129 50.5 L 126.5 51 L 126.5 50 Z " /><path fill="rgb(0,0,0)" stroke="rgb(0,0,0)" stroke-width="1" opacity="0.996078431372549" d="M 98.5 51 L 104 51.5 L 98.5 52 L 98.5 51 Z " /><path fill="rgb(0,0,0)" stroke="rgb(0,0,0)" stroke-width="1" opacity="0.996078431372549" d="M 92.5 52 L 96 52.5 L 92.5 53 L 92.5 52 Z " /><path fill="rgb(0,0,0)" stroke="rgb(0,0,0)" stroke-width="1" opacity="0.996078431372549" d="M 86.5 53 L 89 53.5 L 86.5 54 L 86.5 53 Z " /><path fill="rgb(0,0,0)" stroke="rgb(0,0,0)" stroke-width="1" opacity="0.996078431372549" d="M 81.5 54 L 84 54.5 L 81.5 55 L 81.5 54 Z " /><path fill="rgb(0,0,0)" stroke="rgb(0,0,0)" stroke-width="1" opacity="0.996078431372549" d="M 144.5 55 L 148 56.5 L 145.5 57 L 144.5 55 Z " /><path fill="rgb(0,0,0)" stroke="rgb(0,0,0)" stroke-width="1" opacity="0.996078431372549" d="M 152 58 L 155 59.5 L 152 60 L 152 58 Z " /><path fill="rgb(0,0,0)" stroke="rgb(0,0,0)" stroke-width="1" opacity="0.996078431372549" d="M 58.5 61 Q 61.5 60.2 60 64 Q 54.8 65.7 56 62 L 58.5 61 Z " /><path fill="rgb(0,0,0)" stroke="rgb(0,0,0)" stroke-width="1" opacity="0.996078431372549" d="M 160.5 63 L 162.5 66 L 160.5 63 Z " /><path fill="rgb(0,0,0)" stroke="rgb(0,0,0)" stroke-width="1" opacity="0.996078431372549" d="M 166.5 69 L 167.5 71 L 166.5 69 Z " /><path fill="rgb(0,0,0)" stroke="rgb(0,0,0)" stroke-width="1" opacity="0.996078431372549" d="M 41.5 70 L 36 76.5 Q 37.7 81.3 33.5 80 L 32 80.5 L 41.5 70 Z " /><path fill="rgb(0,0,0)" stroke="rgb(0,0,0)" stroke-width="1" opacity="0.996078431372549" d="M 31.5 82 L 32 84 L 30 83.5 L 31.5 82 Z " /><path fill="rgb(0,0,0)" stroke="rgb(0,0,0)" stroke-width="1" opacity="0.996078431372549" d="M 173.5 87 L 174 89.5 L 173 89.5 L 173.5 87 Z " /><path fill="rgb(0,0,0)" stroke="rgb(0,0,0)" stroke-width="1" opacity="0.996078431372549" d="M 172 92 Q 176.9 90.4 175 96 Q 170.1 97.6 172 92 Z " /><path fill="rgb(0,0,0)" stroke="rgb(0,0,0)" stroke-width="1" opacity="0.996078431372549" d="M 24.5 100 L 25 103.5 L 24 103.5 L 24.5 100 Z " /><path fill="rgb(0,0,0)" stroke="rgb(0,0,0)" stroke-width="1" opacity="0.996078431372549" d="M 171.5 120 L 172 133.5 L 171 133.5 L 171.5 120 Z " /><path fill="rgb(0,0,0)" stroke="rgb(0,0,0)" stroke-width="1" opacity="0.996078431372549" d="M 23.5 124 L 24 132.5 L 23 132.5 L 23.5 124 Z " /><path fill="rgb(0,0,0)" stroke="rgb(0,0,0)" stroke-width="1" opacity="0.996078431372549" d="M 24.5 136 L 25 138.5 L 24 138.5 L 24.5 136 Z " /><path fill="rgb(0,0,0)" stroke="rgb(0,0,0)" stroke-width="1" opacity="0.996078431372549" d="M 170.5 137 L 171 139.5 L 169.5 145 Q 167 143.8 168 140 Q 171.1 141.1 170.5 137 Z " /><path fill="rgb(0,0,0)" stroke="rgb(0,0,0)" stroke-width="1" opacity="0.996078431372549" d="M 25.5 142 L 26 146.5 L 25 146.5 L 25.5 142 Z " /><path fill="rgb(0,0,0)" stroke="rgb(0,0,0)" stroke-width="1" opacity="0.996078431372549" d="M 168.5 146 L 169 148.5 L 167.5 152 L 167 149.5 L 168.5 146 Z " /><path fill="rgb(0,0,0)" stroke="rgb(0,0,0)" stroke-width="1" opacity="0.996078431372549" d="M 164.5 157 L 162.5 160 L 164.5 157 Z " /><path fill="rgb(0,0,0)" stroke="rgb(0,0,0)" stroke-width="1" opacity="0.996078431372549" d="M 29.5 159 L 32.5 163 L 29.5 159 Z " /><path fill="rgb(0,0,0)" stroke="rgb(0,0,0)" stroke-width="1" opacity="0.996078431372549" d="M 36.5 164 Q 39.3 165.3 37 166.5 Q 37.8 168.8 35.5 168 L 36.5 164 Z " /><path fill="rgb(0,0,0)" stroke="rgb(0,0,0)" stroke-width="1" opacity="0.996078431372549" d="M 162.5 166 L 163 170.5 L 162 170.5 L 162.5 166 Z " /><path fill="rgb(0,0,0)" stroke="rgb(0,0,0)" stroke-width="1" opacity="0.996078431372549" d="M 166.5 176 L 167.5 178 L 166.5 176 Z " /><path fill="rgb(0,0,0)" stroke="rgb(0,0,0)" stroke-width="1" opacity="0.996078431372549" d="M 32.5 178 L 33 181.5 L 32 181.5 L 32.5 178 Z " /><path fill="rgb(0,0,0)" stroke="rgb(0,0,0)" stroke-width="1" opacity="0.996078431372549" d="M 172.5 186 L 174 188.5 L 172 187.5 L 172.5 186 Z " /><path fill="rgb(43,69,46)" stroke="rgb(43,69,46)" stroke-width="1" opacity="1" d="M 113.5 54 L 117 54.5 L 113.5 55 L 113.5 54 Z " /><path fill="rgb(43,69,46)" stroke="rgb(43,69,46)" stroke-width="1" opacity="1" d="M 154.5 64 L 155.5 66 L 154.5 64 Z " /><path fill="rgb(43,69,46)" stroke="rgb(43,69,46)" stroke-width="1" opacity="1" d="M 100.5 82 L 121.5 83 L 133 89.5 L 142 107.5 L 140.5 107 Q 133.8 103.2 123.5 103 L 122 101.5 L 118.5 97 L 113.5 95 L 109.5 95 L 100.5 101 L 84.5 102 L 67.5 107 L 53.5 107 L 50 110.5 L 49 115.5 L 45 119.5 L 44.5 127 L 44 115.5 L 47 103.5 L 52.5 97 L 74.5 87 L 100.5 82 Z " /><path fill="rgb(43,69,46)" stroke="rgb(43,69,46)" stroke-width="1" opacity="1" d="M 114.5 127 L 112.5 130 L 114.5 127 Z " /><path fill="rgb(43,69,46)" stroke="rgb(43,69,46)" stroke-width="1" opacity="1" d="M 119.5 127 L 120.5 129 L 119.5 127 Z " /><path fill="rgb(43,69,46)" stroke="rgb(43,69,46)" stroke-width="1" opacity="1" d="M 144.5 129 L 145 133.5 L 144 133.5 L 144.5 129 Z " /><path fill="rgb(43,69,46)" stroke="rgb(43,69,46)" stroke-width="1" opacity="1" d="M 95.5 130 L 98 130.5 L 95.5 131 L 95.5 130 Z " /><path fill="rgb(43,69,46)" stroke="rgb(43,69,46)" stroke-width="1" opacity="1" d="M 60.5 132 L 58.5 135 L 60.5 132 Z " /><path fill="rgb(43,69,46)" stroke="rgb(43,69,46)" stroke-width="1" opacity="1" d="M 45.5 134 L 46 137.5 L 45 137.5 L 45.5 134 Z " /><path fill="rgb(43,69,46)" stroke="rgb(43,69,46)" stroke-width="1" opacity="1" d="M 96.5 135 L 99 135.5 L 96.5 136 L 96.5 135 Z " /><path fill="rgb(43,69,46)" stroke="rgb(43,69,46)" stroke-width="1" opacity="1" d="M 143.5 137 L 144 139.5 L 143 139.5 L 143.5 137 Z " /><path fill="rgb(43,69,46)" stroke="rgb(43,69,46)" stroke-width="1" opacity="1" d="M 142.5 142 L 143 144.5 L 141 145.5 L 142.5 142 Z " /><path fill="rgb(43,69,46)" stroke="rgb(43,69,46)" stroke-width="1" opacity="1" d="M 62.5 144 L 61.5 146 L 62.5 144 Z " /><path fill="rgb(43,69,46)" stroke="rgb(43,69,46)" stroke-width="1" opacity="1" d="M 137.5 147 L 134.5 151 L 137.5 147 Z " /><path fill="rgb(43,69,46)" stroke="rgb(43,69,46)" stroke-width="1" opacity="1" d="M 140.5 152 L 139.5 154 L 140.5 152 Z " /><path fill="rgb(43,69,46)" stroke="rgb(43,69,46)" stroke-width="1" opacity="1" d="M 149.5 152 L 152.5 156 L 149.5 152 Z " /><path fill="rgb(43,69,46)" stroke="rgb(43,69,46)" stroke-width="1" opacity="1" d="M 50.5 153 L 51.5 155 L 50.5 153 Z " /><path fill="rgb(43,69,46)" stroke="rgb(43,69,46)" stroke-width="1" opacity="1" d="M 130.5 154 L 133 154.5 L 130.5 155 L 130.5 154 Z " /><path fill="rgb(43,69,46)" stroke="rgb(43,69,46)" stroke-width="1" opacity="1" d="M 121.5 155 L 120.5 157 L 121.5 155 Z " /><path fill="rgb(43,69,46)" stroke="rgb(43,69,46)" stroke-width="1" opacity="1" d="M 92.5 157 L 105 157.5 L 92.5 158 L 92.5 157 Z " /><path fill="rgb(43,69,46)" stroke="rgb(43,69,46)" stroke-width="1" opacity="1" d="M 107.5 158 L 110 158.5 L 107.5 159 L 107.5 158 Z " /><path fill="rgb(43,69,46)" stroke="rgb(43,69,46)" stroke-width="1" opacity="1" d="M 118.5 159 L 116.5 162 L 115 161.5 L 118.5 159 Z " /><path fill="rgb(43,69,46)" stroke="rgb(43,69,46)" stroke-width="1" opacity="1" d="M 83.5 160 L 82.5 162 L 83.5 160 Z " /><path fill="rgb(43,69,46)" stroke="rgb(43,69,46)" stroke-width="1" opacity="1" d="M 137.5 160 L 139.5 163 L 137.5 160 Z " /><path fill="rgb(43,69,46)" stroke="rgb(43,69,46)" stroke-width="1" opacity="1" d="M 131.5 161 L 135.5 166 L 131.5 161 Z " /><path fill="rgb(43,69,46)" stroke="rgb(43,69,46)" stroke-width="1" opacity="1" d="M 49.5 164 L 50.5 166 L 49.5 164 Z " /><path fill="rgb(43,69,46)" stroke="rgb(43,69,46)" stroke-width="1" opacity="1" d="M 43.5 165 L 40.5 169 L 43.5 165 Z " /><path fill="rgb(43,69,46)" stroke="rgb(43,69,46)" stroke-width="1" opacity="1" d="M 36.5 175 L 37 178.5 L 36 178.5 L 36.5 175 Z " /><path fill="rgb(43,69,46)" stroke="rgb(43,69,46)" stroke-width="1" opacity="1" d="M 137.5 178 L 134.5 182 L 137.5 178 Z " /><path fill="rgb(43,69,46)" stroke="rgb(43,69,46)" stroke-width="1" opacity="1" d="M 52.5 179 L 53 182 L 51 181.5 L 52.5 179 Z " /><path fill="rgb(43,69,46)" stroke="rgb(43,69,46)" stroke-width="1" opacity="1" d="M 116.5 181 L 115.5 183 L 116.5 181 Z " /><path fill="rgb(43,69,46)" stroke="rgb(43,69,46)" stroke-width="1" opacity="1" d="M 72.5 182 L 71.5 184 L 72.5 182 Z " /><path fill="rgb(43,69,46)" stroke="rgb(43,69,46)" stroke-width="1" opacity="1" d="M 47.5 185 L 45.5 188 L 47.5 185 Z " /><path fill="rgb(43,69,46)" stroke="rgb(43,69,46)" stroke-width="1" opacity="1" d="M 82.5 186 L 84.5 189 L 82.5 186 Z " /><path fill="rgb(43,69,46)" stroke="rgb(43,69,46)" stroke-width="1" opacity="1" d="M 68.5 187 L 67.5 189 L 68.5 187 Z " /><path fill="rgb(43,69,46)" stroke="rgb(43,69,46)" stroke-width="1" opacity="1" d="M 61.5 188 L 62.5 190 L 61.5 188 Z " /><path fill="rgb(43,69,46)" stroke="rgb(43,69,46)" stroke-width="1" opacity="1" d="M 92.5 193 L 95 193.5 L 92.5 194 L 92.5 193 Z " /><path fill="rgb(90,179,74)" stroke="rgb(90,179,74)" stroke-width="1" opacity="1" d="M 102.5 100 L 101.5 102 L 102.5 100 Z " /><path fill="rgb(90,179,74)" stroke="rgb(90,179,74)" stroke-width="1" opacity="1" d="M 121.5 102 L 122 104.5 L 121 104.5 L 121.5 102 Z " /><path fill="rgb(90,179,74)" stroke="rgb(90,179,74)" stroke-width="1" opacity="1" d="M 98.5 107 L 100 113 L 102 113.5 L 100.5 114 Q 96.8 112 98.5 107 Z " /><path fill="rgb(90,179,74)" stroke="rgb(90,179,74)" stroke-width="1" opacity="1" d="M 68.5 109 L 70.5 112 L 68.5 109 Z " /><path fill="rgb(90,179,74)" stroke="rgb(90,179,74)" stroke-width="1" opacity="1" d="M 110.5 112 L 112 112.5 L 106.5 114 L 106.5 113 L 110.5 112 Z " /><path fill="rgb(90,179,74)" stroke="rgb(90,179,74)" stroke-width="1" opacity="1" d="M 49.5 115 L 51 117.5 L 49 116.5 L 49.5 115 Z " /><path fill="rgb(90,179,74)" stroke="rgb(90,179,74)" stroke-width="1" opacity="1" d="M 52.5 119 L 55 120.5 L 53.5 121 L 52.5 119 Z " /><path fill="rgb(90,179,74)" stroke="rgb(90,179,74)" stroke-width="1" opacity="1" d="M 56.5 121 L 65 121.5 L 56.5 122 L 56.5 121 Z " /><path fill="rgb(90,179,74)" stroke="rgb(90,179,74)" stroke-width="1" opacity="1" d="M 92.5 121 L 114 121.5 L 108 125.5 L 106 130 L 91.5 130 L 73.5 134 Q 70.7 130.3 64.5 130 L 57 135.5 L 56 144.5 Q 56.5 147.5 60.5 147 L 66.5 143 L 75.5 140 L 103.5 135 L 105.5 135 L 120.5 136 L 124.5 135 L 127 132.5 Q 127 125 122.5 122 L 121 121.5 L 126.5 121 L 139 125 L 139 138.5 L 135.5 146 L 122.5 151 L 92.5 155 L 91.5 156 L 85.5 156 L 73.5 159 Q 72 156.5 66.5 158 L 61.5 160 L 57 156.5 Q 51.9 149.1 52 136.5 L 53 133 L 65.5 128 L 92.5 121 Z " /><path fill="rgb(134,45,37)" stroke="rgb(134,45,37)" stroke-width="1" opacity="1" d="M 156.5 66 L 164 74.5 L 163 74.5 L 157.5 68 Q 154.7 68.7 156.5 66 Z " /><path fill="rgb(134,45,37)" stroke="rgb(134,45,37)" stroke-width="1" opacity="1" d="M 101.5 76 L 111 76.5 L 101.5 77 L 101.5 76 Z " /><path fill="rgb(134,45,37)" stroke="rgb(134,45,37)" stroke-width="1" opacity="1" d="M 164.5 76 L 167 82.5 L 166 82.5 L 164.5 76 Z " /><path fill="rgb(134,45,37)" stroke="rgb(134,45,37)" stroke-width="1" opacity="1" d="M 167.5 84 L 170 93.5 L 170 109.5 L 168 113.5 L 166 124.5 Q 168.5 126 167 131.5 L 163 150.5 L 159.5 156 L 152 146.5 Q 156.3 135.8 156 120.5 L 153 104.5 L 147 87 L 151.5 86 L 167 86 L 167.5 84 Z " /><path fill="rgb(134,45,37)" stroke="rgb(134,45,37)" stroke-width="1" opacity="1" d="M 51.5 90 L 50.5 92 L 51.5 90 Z " /><path fill="rgb(134,45,37)" stroke="rgb(134,45,37)" stroke-width="1" opacity="1" d="M 47.5 93 L 44.5 97 L 47.5 93 Z " /><path fill="rgb(134,45,37)" stroke="rgb(134,45,37)" stroke-width="1" opacity="1" d="M 30.5 97 L 31 99.5 L 30 99.5 L 30.5 97 Z " /><path fill="rgb(134,45,37)" stroke="rgb(134,45,37)" stroke-width="1" opacity="1" d="M 29.5 101 L 30 104.5 L 29 104.5 L 29.5 101 Z " /><path fill="rgb(134,45,37)" stroke="rgb(134,45,37)" stroke-width="1" opacity="1" d="M 28.5 106 L 29 132.5 L 28 132.5 L 28.5 106 Z " /><path fill="rgb(134,45,37)" stroke="rgb(134,45,37)" stroke-width="1" opacity="1" d="M 38.5 117 L 39 121.5 L 38 121.5 L 38.5 117 Z " /><path fill="rgb(134,45,37)" stroke="rgb(134,45,37)" stroke-width="1" opacity="1" d="M 150.5 130 L 151 132.5 L 150 132.5 L 150.5 130 Z " /><path fill="rgb(134,45,37)" stroke="rgb(134,45,37)" stroke-width="1" opacity="1" d="M 39.5 133 L 40 135.5 L 39 135.5 L 39.5 133 Z " /><path fill="rgb(134,45,37)" stroke="rgb(134,45,37)" stroke-width="1" opacity="1" d="M 29.5 134 L 30 138.5 L 29 138.5 L 29.5 134 Z " /><path fill="rgb(134,45,37)" stroke="rgb(134,45,37)" stroke-width="1" opacity="1" d="M 30.5 140 L 31 146.5 L 30 146.5 L 30.5 140 Z " /><path fill="rgb(134,45,37)" stroke="rgb(134,45,37)" stroke-width="1" opacity="1" d="M 31.5 148 L 32 151.5 L 31 151.5 L 31.5 148 Z " /><path fill="rgb(134,45,37)" stroke="rgb(134,45,37)" stroke-width="1" opacity="1" d="M 32.5 153 L 35.5 158 L 42 160.5 L 39.5 161 L 33 156.5 L 32.5 153 Z " /><path fill="rgb(134,45,37)" stroke="rgb(134,45,37)" stroke-width="1" opacity="1" d="M 160 178 L 163 179.5 Q 169.8 188.6 173 200 L 48.5 200 Q 47.5 200 48 195.5 L 47 193.5 L 53.5 187 L 56 189.5 L 60.5 195 Q 62.8 197.7 68.5 197 L 75 187 Q 77.7 185.9 77 188.5 L 84.5 199 L 103.5 198 L 110.5 196 L 115 192.5 Q 114.3 188.8 116.5 188 L 120.5 187 Q 124 191 133.5 189 L 143.5 181 Q 146.6 185.9 154.5 186 L 160 178 Z " /><path fill="rgb(134,45,37)" stroke="rgb(134,45,37)" stroke-width="1" opacity="1" d="M 37.5 190 L 41 192.5 L 38.5 191 L 37.5 190 Z " /><path fill="rgb(140,121,103)" stroke="rgb(140,121,103)" stroke-width="1" opacity="1" d="M 118.5 54 L 123 54.5 L 118.5 55 L 118.5 54 Z " /><path fill="rgb(140,121,103)" stroke="rgb(140,121,103)" stroke-width="1" opacity="1" d="M 105.5 55 L 108 55.5 L 105.5 56 L 105.5 55 Z " /><path fill="rgb(140,121,103)" stroke="rgb(140,121,103)" stroke-width="1" opacity="1" d="M 97.5 56 L 100 56.5 L 97.5 57 L 97.5 56 Z " /><path fill="rgb(140,121,103)" stroke="rgb(140,121,103)" stroke-width="1" opacity="1" d="M 152.5 63 L 151.5 65 L 152.5 63 Z " /><path fill="rgb(140,121,103)" stroke="rgb(140,121,103)" stroke-width="1" opacity="1" d="M 46.5 73 L 45.5 75 L 46.5 73 Z " /><path fill="rgb(140,121,103)" stroke="rgb(140,121,103)" stroke-width="1" opacity="1" d="M 43.5 75 L 37.5 82 L 43.5 75 Z " /><path fill="rgb(140,121,103)" stroke="rgb(140,121,103)" stroke-width="1" opacity="1" d="M 47.5 75 L 46.5 77 L 47.5 75 Z " /><path fill="rgb(140,121,103)" stroke="rgb(140,121,103)" stroke-width="1" opacity="1" d="M 36.5 83 L 35.5 85 L 36.5 83 Z " /><path fill="rgb(140,121,103)" stroke="rgb(140,121,103)" stroke-width="1" opacity="1" d="M 104.5 98 L 103.5 100 L 104.5 98 Z " /><path fill="rgb(140,121,103)" stroke="rgb(140,121,103)" stroke-width="1" opacity="1" d="M 119.5 98 L 120.5 100 L 119.5 98 Z " /><path fill="rgb(140,121,103)" stroke="rgb(140,121,103)" stroke-width="1" opacity="1" d="M 120.5 107 L 119.5 109 L 120.5 107 Z " /><path fill="rgb(140,121,103)" stroke="rgb(140,121,103)" stroke-width="1" opacity="1" d="M 52.5 108 L 50.5 111 L 52.5 108 Z " /><path fill="rgb(140,121,103)" stroke="rgb(140,121,103)" stroke-width="1" opacity="1" d="M 115.5 127 L 117 127.5 L 113.5 130 L 115.5 127 Z " /><path fill="rgb(140,121,103)" stroke="rgb(140,121,103)" stroke-width="1" opacity="1" d="M 118.5 127 L 120.5 130 Q 118.3 130.8 119 128.5 L 118.5 127 Z " /><path fill="rgb(140,121,103)" stroke="rgb(140,121,103)" stroke-width="1" opacity="1" d="M 65 136 L 67 136.5 L 65 137.5 L 65 136 Z " /><path fill="rgb(140,121,103)" stroke="rgb(140,121,103)" stroke-width="1" opacity="1" d="M 129.5 160 L 131.5 163 L 129.5 160 Z " /><path fill="rgb(140,121,103)" stroke="rgb(140,121,103)" stroke-width="1" opacity="1" d="M 140.5 163 L 141.5 165 L 140.5 163 Z " /><path fill="rgb(140,121,103)" stroke="rgb(140,121,103)" stroke-width="1" opacity="1" d="M 45.5 164 L 44.5 166 L 45.5 164 Z " /><path fill="rgb(140,121,103)" stroke="rgb(140,121,103)" stroke-width="1" opacity="1" d="M 71.5 164 L 73.5 167 L 71.5 164 Z " /><path fill="rgb(140,121,103)" stroke="rgb(140,121,103)" stroke-width="1" opacity="1" d="M 122.5 164 L 123 166.5 L 122 166.5 L 122.5 164 Z " /><path fill="rgb(140,121,103)" stroke="rgb(140,121,103)" stroke-width="1" opacity="1" d="M 85.5 166 L 82.5 170 L 85.5 166 Z " /><path fill="rgb(140,121,103)" stroke="rgb(140,121,103)" stroke-width="1" opacity="1" d="M 135.5 166 L 136.5 168 L 135.5 166 Z " /><path fill="rgb(140,121,103)" stroke="rgb(140,121,103)" stroke-width="1" opacity="1" d="M 60.5 167 L 58.5 170 L 60.5 167 Z " /><path fill="rgb(140,121,103)" stroke="rgb(140,121,103)" stroke-width="1" opacity="1" d="M 114.5 167 L 115.5 169 L 114.5 167 Z " /><path fill="rgb(140,121,103)" stroke="rgb(140,121,103)" stroke-width="1" opacity="1" d="M 157.5 167 L 158 170.5 L 157 170.5 L 157.5 167 Z " /><path fill="rgb(140,121,103)" stroke="rgb(140,121,103)" stroke-width="1" opacity="1" d="M 40.5 169 L 38.5 172 L 40.5 169 Z " /><path fill="rgb(140,121,103)" stroke="rgb(140,121,103)" stroke-width="1" opacity="1" d="M 57.5 171 L 58 177.5 L 57 177.5 L 57.5 171 Z " /><path fill="rgb(140,121,103)" stroke="rgb(140,121,103)" stroke-width="1" opacity="1" d="M 144.5 172 L 147 176.5 L 144 174.5 L 144.5 172 Z " /><path fill="rgb(140,121,103)" stroke="rgb(140,121,103)" stroke-width="1" opacity="1" d="M 74.5 175 L 75 178.5 L 74 178.5 L 74.5 175 Z " /><path fill="rgb(140,121,103)" stroke="rgb(140,121,103)" stroke-width="1" opacity="1" d="M 155.5 175 L 154.5 177 L 155.5 175 Z " /><path fill="rgb(140,121,103)" stroke="rgb(140,121,103)" stroke-width="1" opacity="1" d="M 137.5 177 L 136.5 179 L 137.5 177 Z " /><path fill="rgb(140,121,103)" stroke="rgb(140,121,103)" stroke-width="1" opacity="1" d="M 116.5 178 L 117 180.5 L 116 180.5 L 116.5 178 Z " /><path fill="rgb(140,121,103)" stroke="rgb(140,121,103)" stroke-width="1" opacity="1" d="M 153.5 178 L 152.5 180 L 151 179.5 L 153.5 178 Z " /><path fill="rgb(140,121,103)" stroke="rgb(140,121,103)" stroke-width="1" opacity="1" d="M 134.5 180 L 132.5 183 L 134.5 180 Z " /><path fill="rgb(140,121,103)" stroke="rgb(140,121,103)" stroke-width="1" opacity="1" d="M 37.5 181 L 45 187.5 L 43.5 188 L 37.5 181 Z " /><path fill="rgb(140,121,103)" stroke="rgb(140,121,103)" stroke-width="1" opacity="1" d="M 124.5 181 L 126 183.5 L 124 182.5 L 124.5 181 Z " /><path fill="rgb(140,121,103)" stroke="rgb(140,121,103)" stroke-width="1" opacity="1" d="M 48.5 183 L 46.5 186 L 48.5 183 Z " /><path fill="rgb(140,121,103)" stroke="rgb(140,121,103)" stroke-width="1" opacity="1" d="M 70.5 184 L 68.5 187 L 70.5 184 Z " /><path fill="rgb(140,121,103)" stroke="rgb(140,121,103)" stroke-width="1" opacity="1" d="M 109.5 187 L 110 189.5 L 109 189.5 L 109.5 187 Z " /><path fill="rgb(140,121,103)" stroke="rgb(140,121,103)" stroke-width="1" opacity="1" d="M 88.5 193 L 92 193.5 L 88.5 194 L 88.5 193 Z " /><path fill="rgb(54,106,47)" stroke="rgb(54,106,47)" stroke-width="1" opacity="1" d="M 109.5 95 L 114 95.5 L 109.5 96 L 109.5 95 Z " /><path fill="rgb(54,106,47)" stroke="rgb(54,106,47)" stroke-width="1" opacity="1" d="M 102.5 99 L 100 102.5 L 98 110.5 L 100.5 114 L 109.5 114 L 121 107.5 L 122.5 102 L 127.5 104 L 136.5 105 L 142 108.5 L 145 119.5 L 145 128.5 L 144 129.5 L 143 141.5 L 140.5 146 L 134 150.5 L 133 154 L 123.5 154 L 120 156.5 L 116.5 161 L 104.5 157 L 92.5 157 L 83.5 160 L 79.5 164 L 75 159.5 L 76.5 158 L 122.5 151 Q 125.5 148 131.5 148 L 137 144.5 Q 140.8 137.1 139 125 L 126.5 121 L 121.5 121 L 119.5 121 L 114.5 122 L 113.5 121 L 92.5 121 L 65.5 128 L 53 133 L 52 141.5 L 54 150.5 L 59 158.5 L 57.5 158 L 52 155.5 L 46 140.5 L 45 119.5 L 48.5 116 L 53.5 121 L 64.5 122 Q 70.3 120.8 73 116.5 Q 72.6 111 68.5 109 L 64 107.5 L 84.5 102 L 100.5 101 L 102.5 99 Z " /><path fill="rgb(54,106,47)" stroke="rgb(54,106,47)" stroke-width="1" opacity="1" d="M 122.5 122 L 124.5 125 L 122.5 122 Z " /><path fill="rgb(54,106,47)" stroke="rgb(54,106,47)" stroke-width="1" opacity="1" d="M 110.5 123 L 108.5 126 L 110.5 123 Z " /><path fill="rgb(54,106,47)" stroke="rgb(54,106,47)" stroke-width="1" opacity="1" d="M 126.5 129 L 127 132.5 L 126 132.5 L 126.5 129 Z " /><path fill="rgb(54,106,47)" stroke="rgb(54,106,47)" stroke-width="1" opacity="1" d="M 64.5 130 L 67 130.5 L 64.5 131 L 64.5 130 Z " /><path fill="rgb(54,106,47)" stroke="rgb(54,106,47)" stroke-width="1" opacity="1" d="M 91.5 130 L 95 130.5 L 91.5 131 L 91.5 130 Z " /><path fill="rgb(54,106,47)" stroke="rgb(54,106,47)" stroke-width="1" opacity="1" d="M 71.5 132 L 72.5 134 L 71.5 132 Z " /><path fill="rgb(54,106,47)" stroke="rgb(54,106,47)" stroke-width="1" opacity="1" d="M 99.5 135 L 103 135.5 L 99.5 136 L 99.5 135 Z " /><path fill="rgb(54,106,47)" stroke="rgb(54,106,47)" stroke-width="1" opacity="1" d="M 58.5 146 L 61 146.5 L 58.5 147 L 58.5 146 Z " /><path fill="rgb(0,0,0)" stroke="rgb(0,0,0)" stroke-width="1" opacity="1" d="M 110.5 50 L 131.5 51 L 141.5 54 L 145.5 57 L 152 58 Q 150.7 61.3 155.5 60 L 166 68.5 L 171 78.5 L 174 92 Q 170.3 90.8 172 96 L 175 96 L 175 104.5 L 175 106.5 L 171 120.5 L 171 136.5 L 170 140 Q 166.7 138.7 168 143.5 L 169 145.5 Q 166.3 147.8 167 153.5 L 161 162.5 Q 163.8 164.3 162 170.5 L 170 181.5 L 178 200 Q 174.2 201 173 198.5 Q 169.3 185.7 161.5 177 Q 159.3 176.3 160 178.5 L 154.5 185 L 150.5 185 L 142.5 180 Q 138.2 189.2 124.5 189 L 119.5 186 L 115 188.5 L 114 194 L 100.5 198 L 87.5 199 L 82 195.5 L 79.5 190 Q 77.3 190.8 78 188.5 L 77 186 Q 74.3 184.9 75 187.5 L 68.5 196 Q 58.7 196.3 56 189.5 L 53.5 185 L 49 192 L 44.5 194 L 37.5 189 L 32 200 L 28 200 L 28 198.5 L 34 187.5 L 34 183.5 L 32 177.5 L 32 175.5 L 35.5 168 Q 37.8 168.8 37 166.5 Q 39.3 165.3 36.5 164 L 29 158.5 L 26 151.5 L 26 142.5 L 24 135.5 L 23 108.5 L 25 103.5 L 26 94.5 L 30 84 Q 33 85.3 32 81.5 L 36 80 L 36 76.5 L 44.5 68 L 55.5 63 L 60 64 Q 58.3 59.9 62.5 61 L 79.5 55 L 96.5 52 L 103.5 52 L 110.5 50 Z M 110 54 L 109 55 L 101 55 L 100 56 L 89 57 L 72 61 L 58 66 L 43 75 Q 35 80 32 90 L 27 111 L 27 126 L 30 143 L 30 151 L 34 159 L 40 162 L 48 159 L 43 150 L 39 128 L 39 114 L 42 102 L 45 97 L 54 90 L 65 85 L 85 79 L 98 78 L 99 77 L 123 78 L 134 83 L 143 96 L 150 117 L 150 135 L 147 147 L 153 149 L 156 154 Q 157 157 161 156 L 166 142 L 167 120 L 171 108 L 170 91 L 164 73 Q 159 65 150 61 L 133 57 L 127 54 L 110 54 Z M 96 82 L 76 86 L 53 96 L 47 102 L 44 112 L 45 141 L 50 155 L 55 159 L 62 161 L 67 159 L 75 160 L 78 165 L 93 158 L 110 159 L 118 163 L 119 160 L 127 154 L 133 156 L 134 153 L 140 147 L 142 147 L 143 146 L 146 131 L 146 120 L 143 109 L 134 90 L 124 83 Q 119 84 118 82 L 96 82 Z M 145 150 L 141 152 L 136 160 L 143 169 L 144 176 L 151 180 L 154 180 L 158 173 Q 159 161 154 157 Q 151 152 145 150 Z M 126 159 L 123 162 L 121 168 L 124 184 L 128 185 L 134 183 Q 139 181 140 175 L 138 168 L 131 160 L 126 159 Z M 97 162 Q 95 164 91 163 L 85 166 L 80 173 L 80 183 L 85 190 L 86 194 L 104 193 L 110 191 L 111 185 L 116 183 L 118 178 L 116 167 L 107 163 L 97 162 Z M 48 163 L 45 164 L 36 175 L 37 183 L 45 189 L 49 183 L 53 182 L 53 176 L 52 175 L 54 168 L 48 163 Z M 68 163 L 60 167 L 57 171 Q 56 182 60 188 Q 61 192 67 191 L 74 182 L 76 175 Q 77 168 74 166 Q 73 162 68 163 Z " /><path fill="rgb(0,0,0)" stroke="rgb(0,0,0)" stroke-width="1" opacity="1" d="M 114.5 122 Q 123.5 120.5 125 126.5 L 126 131.5 L 125 134 L 117.5 135 L 114.5 134 L 113.5 135 L 94.5 135 Q 93.3 137.2 88.5 136 L 68.5 141 L 59.5 146 L 57 145 Q 55.6 135.5 61.5 132 L 67.5 131 L 73.5 135 L 76.5 135 L 90.5 131 L 105.5 131 L 107 129.5 L 112.5 123 L 114.5 122 Z M 116 126 L 112 131 L 121 131 L 121 129 Q 120 125 116 126 Z M 64 136 L 62 139 L 68 137 L 64 136 Z " /></svg>