<svg xmlns="http://www.w3.org/2000/svg" width="200" height="200"><path stroke="#000" d="M110.5 48h16l4.5 1.5-3.5.5-1-1h-16zm-9 1 7.5.5L79.5 54v-1zm31 1 8.5 2.5-1.5.5-7-2zm10 3 14 5L169 69.5l1 3h-1l-1-3-7.5-7.5-8-5-10-3zm-67 1 2.5.5-2.5.5zm-4 1 2.5.5Q61.3 58.3 51.5 64l1-2zm-24 10-1 2-1.5-.5zm-4 2-3 4-6.5 5.5q-6.9 8.1-9.5 20.5l-.5-2.5Q28.3 78.8 39.5 70zm128 9 5.5 18.5v14l-3.5 11.5-.5-2.5q4.8-8.2 3-23zm-148 22 .5 3.5h-1zm-1 5 .5 5.5-1 1-.5 17.5-.5-17.5zm150 18 .5 5.5h-1zm-150 7 .5 7.5h-1zm151 0 .5 2.5h-1zm-1 4 .5 4.5-2.5 10.5-.5-2.5zm-149 5 .5 4.5h-1zm1 6 .5 7.5h-1zm145 5 .5 2.5-7 12q2.8 1.8 1 8l10 15-2-1q-2.8-8.7-9-14l-1-9q5.9-4.6 7.5-13.5Zm-144 4q1.2 7.3 6 11l2.5 1.5-1.5-.5-4.5-3.5-3-6zm10 13-.5 1.5q-4.9 4.1-4.5 13.5l-.5-6.5zm-4 16 1.5 6.5-5.5 9.5-.5-1.5 5-8v-3zm144 8 4.5 10.5h-1z" opacity=".075"/><path stroke="#000" d="M0 0h200v200h-19.5l-.5-1.5q-5.4-16.6-16-28l-1-9 6-8 3-10 2-15q-2.8-1.8-1-8l4-12v-14l-3-13-5-12-9.5-9.5-7-4-6-1-11-5q-6.1.6-9-2h-16l-1 1h-8l-1 1-17 2-24 7-16 8L33 76.5q-13.6 17.4-12 50l1 1v8l2 7 1 12 6.5 9.5 3.5 1.5-5 8v6l2 8q-5.1 5-6 12.5H.5l-.5-.5z" opacity="0"/><path fill="#f5e8c1" stroke="#f5e8c1" d="M108.5 55h18l27.5 9.5-1.5.5q-3.6-2.9-11-2l-3 1-5-3-8-2-21-1-30 6-17 6L46 76.5l2 5-2.5 2.5-11 5-.5-1.5L44.5 75q11.2-8.8 27-13zm3 41q5.8.3 8.5 3.5l1 6-2.5 3.5-9 4-6 1-4.5-3.5q-.4-8.9 5.5-11.5zm-56 11q12-.5 16.5 6.5 1.9 5.4-1.5 4.5l-4 3h-11l-5.5-4.5-1-2 4.5-6.5zm62 20 1.5 3-5-.5zm26 24q7.3.3 9.5 5.5l4 7v9l-4.5 6.5q-5.5-.4-7.5-4.5-.5-10-7-14v-4l2.5-3.5zm-18 9h3l6.5 5.5 4 8-3 6.5-6.5 4h-3l-2.5-3.5-2-13zm-30 3q14.1-.6 20.5 6.5l1 8-1 4.5-6 3.5-1 4.5-11.5 3h-10L81 182.5l-1-6q1.1-7.4 6.5-10.5zm-49 1 5.5 3.5v13l-1.5.5-4.5 6h-2.5l-6.5-6.5v-6l6.5-8.5zm21 0q5.8-.7 6.5 3.5l1 7-1 5-8.5 11.5-4.5-3.5q-4.5-5.5-3-17z"/><path fill="#1b150f" stroke="#1b150f" d="m109.5 54 3.5.5-3.5.5zm-9 1 2.5.5-2.5.5zm30 0 1 2zm26 10 7 8zm-114 10-1 2zm52 2 3.5.5-3.5.5zm20 0 5.5.5-5.5.5zm-75 1-2 3zm48 0 2.5.5-2.5.5zm8 4 4.5.5-4.5.5zm17 0 5.5.5-5.5.5zm-24 1 3.5.5-3.5.5zm46 0 3 4zm-51 1 2.5.5-2.5.5zm-8 2 2.5.5-2.5.5zm54 0 4.5 3.5 1 2-2-1-1.5-2.5zm-60 2 1.5.5-3.5 1.5v-1zm69 0 1 2zm-86 2-1 2zm117 0 .5 2.5h-1zm-120 2-1 2zm86 1 1 2zm-79 1-1 2zm-4 2 1.5.5-6 5-.5 1.5-.5-1.5zm118 0 .5 11.5h-1zm-126 1-1 2zm-15 1 .5 2.5h-1zm-1 5 .5 2.5h-1zm-1 7 .5 15.5h-1zm12 0 .5 2.5h-1zm5 1 .5 3.5h-1zm106 7 .5 11.5h-1zm-5 1 .5 11.5h-1zm-29 2 2.5.5-2.5.5zm50 0 .5 3.5h-1zm-45 1 3 4zm-10 1-3 4zm-67 4 .5 4.5h-1zm-5 1 .5 4.5h-1zm59 2 7.5.5-7.5.5zm14 0 8.5.5-8.5.5zm54 2 .5 3.5h-1zm-138 1 .5 2.5h-1zm86 1 2.5.5-2.5.5zm30 0 .5 2.5h-1zm5 1 .5 2.5h-1zm-86 1-1 2zm-18 2 .5 2.5h-1zm-16 1 .5 2.5h-1zm136 0 .5 2.5h-1zm-23 6-1 2-1.5-.5zm-112 2 .5 3.5h-1zm108 0-4 5zm25 0 .5 2.5h-1zm-12 1 4.5 3.5-3.5-2.5zm5 5 2 3zm5 0-.5 1.5-.5 1.5-.5-1.5zm-111 1 5.5 4.5-1.5.5zm72 1-3 4zm-76 2 1 2zm22 1 2.5.5-2.5.5zm-30 2 2.5 1.5-1.5.5zm37 0 2 3zm9 0 1.5.5-2.5 1.5zm34 0-.5 1.5q.8 2.3-1.5 1.5zm-37 2-2 3-1.5-.5zm15 0 4.5.5-4.5.5zm-24 2 1 2zm12 2-1 2zm52 0 1 2zm-77 1-1 2zm-7 8 .5 3.5h-1zm108 2 2.5 1.5-1.5-.5zm-1 2-1 2zm-17 1-7 8-3 1v-1q7.2-1.7 10-8Zm21 0 1 2zm-19 1 5.5 3.5-1.5.5zm-107 1 5 6zm120 0-3 4-3.5-.5q5.1.1 6.5-3.5Zm8 1 3.5 5.5-2-1zm-112 2 2.5 3.5-2.5-1.5-4.5 3.5zm17 0-1 2zm49 1 2.5 1.5-1.5-.5zm-3 1 1.5.5-2.5 1.5zm-42 1-2 3zm-18 2 4 5zm23 0 1.5 2.5h-1zm-39 1 1 2zm7 1-1 2-1.5-.5zm123 0 1.5 3.5h-1zm-100 2-2 3-4.5-.5q5 .5 6.5-2.5Zm11 0 3 4 2.5.5-2.5.5-3.5-3.5zm20 3 2.5.5-2.5.5zm-8 1 4.5.5-4.5.5z"/><path stroke="#000" d="m109.5 49 17.5.5-17.5.5zm-8 1 4.5.5-4.5.5zm28 0 2.5.5-2.5.5zm-35 1 3.5.5-3.5.5zm39 0 2.5.5-2.5.5zm-45 1 3.5.5-3.5.5zm-5 1 2.5.5-2.5.5zm-5 1 2.5.5-2.5.5zm-4 1 2.5.5-2.5.5zm80 3L168 69.5l-7.5-6.5q-5.2-1.8-6-5Zm-100 4 1.5.5-8.5 4.5 1-2zm-10 5 1.5.5-3.5 2.5zm-5 4-5 6zm129 0 2.5 5.5h-1zm-135 7L32 80.5 30.5 83l.5-1.5zm141 11 .5 2.5h-1zm1 5 .5 14.5h-1zm-151 3 .5 2.5h-1zm-1 5 .5 3.5h-1zm-1 7 .5 18.5h-1zm151 5 .5 2.5h-1zm-1 4 .5 2.5h-1zm0 9 .5 4.5h-1zm-149 6 .5 3.5h-1zm148 1 .5 2.5h-1zm-147 5 .5 3.5h-1zm146 1 .5 3.5h-1zm-1 5 .5 2.5h-1zm-144 2 .5 4.5h-1zm142 5 .5 1.5-2.5 3.5.5-1.5zm-3 6-2 3zm-135 2 2 3zm4 3 3.5 2.5-2 1 .5-1.5zm129 0 .5 2.5h-1zm-128 5-1 2zm129 3 4.5 5.5-5-4zm-132 2 .5 7.5h-1zm137 5 2.5 3.5-2-1zm-136 4 1.5 4.5h-1zm140 3 2.5 4.5h-1zm-141 5-.5 1.5-4.5 8.5.5-1.5z" opacity=".831"/><path fill="#c75544" stroke="#c75544" d="m105.5 58 19 1 11 3 2 2h3q1.3-2.3 6-1l9.5 3.5q-.7 2.3 1.5 1.5l5.5 5.5 4 12.5h-15.5l-4.5 1 7 21.5 1 11 1 1v8l-1 1-1 12-2.5 6.5-3.5-2.5 3-13v-15l-6-19-8-14.5-8.5-5-7-2-20-1-1 1h-8l-11 2-14 4-16 7-7.5 6.5-5 13-1 12 1 1 1 19q3 4 3 11l3 5q-1.4 3.1-6.5 2.5l-5.5-3.5-2-4-1-12-2-7v-28L33 89l12.5-5 2.5-2.5-1-5 6.5-4.5 22-8zM37 191l11 4.5q.5 4.5-.5 4.5H33z"/><path stroke="#000" d="m106.5 50 3.5.5-3.5.5zm20 0 2.5.5-2.5.5zm-28 1 5.5.5-5.5.5zm-6 1 3.5.5-3.5.5zm-6 1 2.5.5-2.5.5zm-5 1 2.5.5-2.5.5zm63 1 3.5 1.5-2.5.5zm7.5 3 3 1.5-3 .5zm-93.5 3q3-.8 1.5 3-5.2 1.7-4-2zm102 2 2 3zm6 6 1 2zm-125 1L36 76.5q1.7 4.8-2.5 3.5l-1.5.5zm-10 12 .5 2-2-.5zm142 5 .5 2.5h-1zm-1.5 5q4.9-1.6 3 4-4.9 1.6-3-4Zm-147.5 8 .5 3.5h-1zm147 20 .5 13.5h-1zm-148 4 .5 8.5h-1zm1 12 .5 2.5h-1zm146 1 .5 2.5-1.5 5.5q-2.5-1.2-1.5-5 3.1 1.1 2.5-3Zm-145 5 .5 4.5h-1zm143 4 .5 2.5-1.5 3.5-.5-2.5zm-4 11-2 3zm-135 2 3 4zm7 5q2.8 1.3.5 2.5.8 2.3-1.5 1.5zm126 2 .5 4.5h-1zm4 10 1 2zm-134 2 .5 3.5h-1zm140 8 1.5 2.5-2-1z" opacity=".996"/><path fill="#2b452e" stroke="#2b452e" d="m113.5 54 3.5.5-3.5.5zm41 10 1 2zm-54 18 21 1 11.5 6.5 9 18-1.5-.5q-6.7-3.8-17-4l-1.5-1.5-3.5-4.5-5-2h-4l-9 6-16 1-17 5h-14l-3.5 3.5-1 5-4 4-.5 7.5-.5-11.5 3-12 5.5-6.5 22-10zm14 45-2 3zm5 0 1 2zm25 2 .5 4.5h-1zm-49 1 2.5.5-2.5.5zm-35 2-2 3zm-15 2 .5 3.5h-1zm51 1 2.5.5-2.5.5zm47 2 .5 2.5h-1zm-1 5 .5 2.5-2 1zm-80 2-1 2zm75 3-3 4zm3 5-1 2zm9 0 3 4zm-99 1 1 2zm80 1 2.5.5-2.5.5zm-9 1-1 2zm-29 2 12.5.5-12.5.5zm15 1 2.5.5-2.5.5zm11 1-2 3-1.5-.5zm-35 1-1 2zm54 0 2 3zm-6 1 4 5zm-82 3 1 2zm-6 1-3 4zm-7 10 .5 3.5h-1zm101 3-3 4zm-85 1 .5 3-2-.5zm64 2-1 2zm-44 1-1 2zm-25 3-2 3zm35 1 2 3zm-14 1-1 2zm-7 1 1 2zm31 5 2.5.5-2.5.5z"/><path fill="#5ab34a" stroke="#5ab34a" d="m102.5 100-1 2zm19 2 .5 2.5h-1zm-23 5 1.5 6 2 .5-1.5.5q-3.7-2-2-7Zm-30 2 2 3zm42 3 1.5.5-5.5 1.5v-1zm-61 3 1.5 2.5-2-1zm3 4 2.5 1.5-1.5.5zm4 2 8.5.5-8.5.5zm36 0 21.5.5-6 4-2 4.5H91.5l-18 4q-2.8-3.7-9-4l-7.5 5.5-1 9q.5 3 4.5 2.5l6-4 9-3 28-5h2l15 1 4-1 2.5-2.5q0-7.5-4.5-10.5l-1.5-.5 5.5-.5 12.5 4v13.5l-3.5 7.5-13 5-30 4-1 1h-6l-12 3q-1.5-2.5-7-1l-5 2-4.5-3.5q-5.1-7.4-5-20l1-3.5 12.5-5z"/><path fill="#862d25" stroke="#862d25" d="m156.5 66 7.5 8.5h-1l-5.5-6.5q-2.8.7-1-2Zm-55 10 9.5.5-9.5.5zm63 0 2.5 6.5h-1zm3 8 2.5 9.5v16l-2 4-2 11q2.5 1.5 1 7l-4 19-3.5 5.5-7.5-9.5q4.3-10.7 4-26l-3-16-6-17.5 4.5-1H167zm-116 6-1 2zm-4 3-3 4zm-17 4 .5 2.5h-1zm-1 4 .5 3.5h-1zm-1 5 .5 26.5h-1zm10 11 .5 4.5h-1z"/><path fill="#862d25" stroke="#862d25" d="m150.5 130 .5 2.5h-1zm-111 3 .5 2.5h-1zm-10 1 .5 4.5h-1zm1 6 .5 6.5h-1zm1 8 .5 3.5h-1zm1 5 3 5 6.5 2.5-2.5.5-6.5-4.5zM160 178l3 1.5q6.8 9.1 10 20.5H48.5q-1 0-.5-4.5l-1-2 6.5-6.5 2.5 2.5 4.5 5.5q2.3 2.7 8 2l6.5-10q2.7-1.1 2 1.5l7.5 10.5 19-1 7-2 4.5-3.5q-.7-3.7 1.5-4.5l4-1q3.5 4 13 2l10-8q3.1 4.9 11 5zM37.5 190l3.5 2.5-2.5-1.5z"/><path fill="#8c7967" stroke="#8c7967" d="m118.5 54 4.5.5-4.5.5zm-13 1 2.5.5-2.5.5zm-8 1 2.5.5-2.5.5zm55 7-1 2zm-106 10-1 2zm-3 2-6 7zm4 0-1 2zm-11 8-1 2zm68 15-1 2zm15 0 1 2zm1 9-1 2zm-68 1-2 3zm63 19 1.5.5-3.5 2.5zm3 0 2 3q-2.2.8-1.5-1.5zM65 136l2 .5-2 1zm64.5 24 2 3zm11 3 1 2zm-95 1-1 2zm26 0 2 3zm51 0 .5 2.5h-1zm-37 2-3 4zm50 0 1 2zm-75 1-2 3zm54 0 1 2zm43 0 .5 3.5h-1zm-117 2-2 3zm17 2 .5 6.5h-1zm87 1 2.5 4.5-3-2zm-70 3 .5 3.5h-1zm81 0-1 2zm-18 2-1 2zm-21 1 .5 2.5h-1zm37 0-1 2-1.5-.5zm-19 2-2 3zm-97 1 7.5 6.5-1.5.5zm87 0 1.5 2.5-2-1zm-76 2-2 3zm22 1-2 3zm39 3 .5 2.5h-1zm-21 6 3.5.5-3.5.5z"/><path fill="#366a2f" stroke="#366a2f" d="m109.5 95 4.5.5-4.5.5zm-7 4-2.5 3.5-2 8 2.5 3.5h9l11.5-6.5 1.5-5.5 5 2 9 1 5.5 3.5 3 11v9l-1 1-1 12-2.5 4.5-6.5 4.5-1 3.5h-9.5l-3.5 2.5-3.5 4.5-12-4h-12l-9 3-4 4-4.5-4.5 1.5-1.5 46-7q3-3 9-3l5.5-3.5q3.8-7.4 2-19.5l-12.5-4h-7l-5 1-1-1h-21l-27 7-12.5 5-1 8.5 2 9 5 8-1.5-.5-5.5-2.5-6-15-1-21 3.5-3.5 5 5 11 1q5.8-1.2 8.5-5.5-.4-5.5-4.5-7.5l-4.5-1.5 20.5-5.5 16-1zm20 23 2 3zm-12 1-2 3z"/><path fill="#366a2f" stroke="#366a2f" d="m126.5 129 .5 3.5h-1zm-62 1 2.5.5-2.5.5zm27 0 3.5.5-3.5.5zm-20 2 1 2zm28 3 3.5.5-3.5.5zm-41 11 2.5.5-2.5.5z"/><path stroke="#000" d="m110.5 50 21 1 10 3 4 3 6.5 1q-1.3 3.3 3.5 2l10.5 8.5 5 10 3 13.5q-3.7-1.2-2 4h3v10.5l-4 14v16l-1 3.5q-3.3-1.3-2 3.5l1 2q-2.7 2.3-2 8l-6 9q2.8 1.8 1 8l8 11 8 18.5q-3.8 1-5-1.5-3.7-12.8-11.5-21.5-2.2-.7-1.5 1.5l-5.5 6.5h-4l-8-5q-4.3 9.2-18 9l-5-3-4.5 2.5-1 5.5-13.5 4-13 1-5.5-3.5-2.5-5.5q-2.2.8-1.5-1.5l-1-2.5q-2.7-1.1-2 1.5l-6.5 8.5q-9.8.3-12.5-6.5l-2.5-4.5-4.5 7-4.5 2-7-5-5.5 11h-4v-1.5l6-11v-4l-2-6v-2l3.5-7.5q2.3.8 1.5-1.5 2.3-1.2-.5-2.5l-7.5-5.5-3-7v-9l-2-7-1-27 2-5 1-9L30 84q3 1.3 2-2.5l4-1.5v-3.5l8.5-8.5 11-5 4.5 1q-1.7-4.1 2.5-3l17-6 17-3h7zm-.5 4-1 1h-8l-1 1-11 1-17 4-14 5-15 9q-8 5-11 15l-5 21v15l3 17v8l4 8 6 3 8-3-5-9-4-22v-14l3-12 3-5 9-7 11-5 20-6 13-1 1-1 24 1 11 5 9 13 7 21v18l-3 12 6 2 3 5q1 3 5 2l5-14 1-22 4-12-1-17-6-18q-5-8-14-12l-17-4-6-3zM96 82l-20 4-23 10-6 6-3 10 1 29 5 14 5 4 7 2 5-2 8 1 3 5 15-7 17 1 8 4 1-3 8-6 6 2 1-3 6-6h2l1-1 3-15v-11l-3-11-9-19-10-7q-5 1-6-1zm49 68-4 2-5 8 7 9 1 7 7 4h3l4-7q1-12-4-16-3-5-9-7Zm-19 9-3 3-2 6 3 16 4 1 6-2q5-2 6-8l-2-7-7-8zm-29 3q-2 2-6 1l-6 3-5 7v10l5 7 1 4 18-1 6-2 1-6 5-2 2-5-2-11-9-4zm-49 1-3 1-9 11 1 8 8 6 4-6 4-1v-6l-1-1 2-7zm20 0-8 4-3 4q-1 11 3 17 1 4 7 3l7-9 2-7q1-7-2-9-1-4-6-3Z"/><path stroke="#000" d="M114.5 122q9-1.5 10.5 4.5l1 5-1 2.5-7.5 1-3-1-1 1h-19q-1.2 2.2-6 1l-20 5-9 5-2.5-1q-1.4-9.5 4.5-13l6-1 6 4h3l14-4h15l1.5-1.5 5.5-6.5zm1.5 4-4 5h9v-2q-1-4-5-3Zm-52 10-2 3 6-2z"/></svg>