<svg xmlns="http://www.w3.org/2000/svg" width="200" height="200"><path stroke="#000" d="M104.5 30q5.8-.7 6.5 3.5l1 2-2-1-2.5-3.5q-4 .8-3-1Zm-2 1-1.5 2.5L91.5 49l-.5-1.5q4.3-9.7 11.5-16.5Zm10 6 7 15 8-5h3q4.3 1.8 2.5 9.5h-1q1.8-6.7-1.5-8.5h-3l-9.5 5zm-34 7 2.5.5-5 3-1.5 6.5-.5-4.5zm4 1 6 5H91l-.5 2q-6.1-2.7-8-7Zm-8 13 .5 3-12-.5 11-.5zm-23 2 3.5.5-5 2-.5 4.5-.5-4.5zm81 0h12l1 1 13 1 4.5 3.5v4l-4.5 4.5L144 85.5l1 3h-1l-1-3 19-16q1-4.5-1.5-5.5l-16-3h-12zm-82 8 8 10 2.5 1.5q.5 5-3.5 5.5l-6 1v-1l6-1 1.5-1.5 1-3.5-8-6.5zm-3 18 2.5.5-7.5 2.5v-1zm-8 3 1.5.5-9.5 4.5-10.5 8q-3.7 7.5-4.5 19l-.5-5.5 2-9 5.5-7.5zm118 4 3.5 1.5-1.5.5zm5 2 7.5 4.5-1.5-.5q-5.6-.8-6-4Zm9 5q14 6.5 23.5 17.5l1 8-7.5 21.5-.5-1.5 6-16 1-10-7.5-8.5-15-9zm-156 22 1.5 13.5 2.5 3.5 3.5 1-.5 2-5.5-4.5-2-7zm6 21 .5 7-10 7.5q-2.7 2.3-2 8 2.9 9.6 10.5 14.5l6.5 2.5-2.5.5-10.5-8.5q-5-4-5-13l7.5-9.5 4.5-3.5zm166 5 .5 1.5-2.5 3.5-6.5 1-1.5 7-.5-2.5 2.5-5.5 6.5-1zm-9 24 .5 4.5-10.5 9.5 3-4 6.5-5.5zm-138 5 12.5 1.5-7.5.5-5-1q-3.2 5.8-12 6v-1l6-1zm14 2 9.5.5-16.5 2.5-6.5 5.5-1 8 3 4-3-2-1-8 6.5-7.5zm69 4 8.5 1.5-5.5.5-3-1zm-1 2 2.5 1.5-3 .5zm11 0h12l2.5 2.5q-.7 2.3 1.5 1.5l8.5 1.5-7.5.5-3.5-2.5-1.5-2.5h-12zm33 1-1 2-6 2v-1zm-40 1 7.5 1.5-2.5.5-5-1zm9 2q6.4.7 8.5 5.5l-.5 1.5-3-4-5-2z" opacity=".09"/><path stroke="#000" d="M0 0h200v200h-55.5l-.5-1.5v-4l-4.5-4.5-16.5-4q-1.2-3 2.5-2l8 2h12l1.5 1.5 1.5 2.5 9 1q13.8-4.2 21.5-14.5v-4l-3-8 3-10.5q5.7 1 8-2.5l8-22 1-10-8.5-9.5-29-17-13.5-4-1-3.5 19-16q1-5.5-2.5-6.5l-16-3H133V49.5l-2.5-2.5h-3l-8 5-8.5-18.5-3.5-3.5q-6.4.1-8.5 4.5-6 6.3-8 15.5h-2.5q-3-5-10-6L74 49.5V60H51.5L49 62.5l1 7 8.5 9.5q2.3-.7 1.5 1.5L57.5 84Q33.4 87.9 20 102.5q-5.4 11.1-5 28l1 5 3.5 4.5 2.5 1.5-1 7-3.5 3.5-6.5 5.5q-2.7 2.3-2 8l2 5 9.5 10.5q4.3 3.2 12 3l8-6h4l1 1 8.5.5q-10 1-14 8l-1 8 3 4-42 .5z" opacity="0"/><path fill="#cbe3d5" stroke="#cbe3d5" d="m105.5 38 11 24 9.5-5 1 8.5 1.5 1.5h16l8.5 1.5-16 14-1 2 1 2.5q-3.3-2.1-11.5-1-1.2 2.3-2.5-.5l-1-5.5-6.5-1-6 2-4-6h-4l-7 6h-2q-1.4-3.6-7-3-5 3.2-5.5 10-4.1 1.3-3-2h-3.5L68 83.5l1-4-12-12V66l20.5 2 4.5-3.5-2-10q1.3-2.7 2.5-.5L95 61q1-15.1 10.5-23Zm-43 52q3.8-1.2 2.5 2.5l1 2-2.5 5.5q-3.7-.7-4.5 1.5 1.3 5.3-1.5 6.5l-8-10H47v5h-5.5l-3.5-1q1.3 4.6-1.5 6-4-.5-4.5 2.5v9q-5.7 3.8-7 12 2.2 1.3-.5 2.5l-1.5-1.5v-14l3-11 5.5-5.5 15-8zm62 3 15.5 2q1.3 3.3-3.5 2l-3.5 1q1.3 3.3-3.5 2l-5-3-2.5 7-4.5-2-3 5-.5-1.5 6-11.5zm6 24 5.5 4.5-7 5q-1.2 6.7 2 9l-6.5 4.5-2.5-3.5-1-7q2.9-8.1 9.5-12.5Zm-86 6 2.5 3.5q-3.6 2.9-2 11l-3 4.5-4-2.5v-8z"/><path fill="#7c8291" stroke="#7c8291" d="m94.5 59-1 2zm-37 9 1 2zm4 4 1 2zm88 0-1 2zm-54 8-1 2zm25 0 1 2zm-48 15 .5 8 9 .5-8.5.5-1.5-1.5zm28 2 9.5 1-2 5H89.5l-.5-2.5-.5-1.5 11-1zm-19 1 .5 3.5h-1zm81 5 1 2zm-95 5 1 2zm66 0 3.5.5-3.5.5zm11 0 2.5.5-2.5.5zm27 0q3.5 2-1 4zm-19 3 4 5zm-103 2 3.5.5-3.5.5zm8 0 3.5.5-3.5.5zm66 0-1 2zm46 0-.5 1.5-4.5 8.5.5-1.5zm-104 2 1 2zm-24 1-1 2zm28 3 1 2zm-32 1-2 3zm35 4 1 2zm88 0 1.5 4.5-1.5 2.5zm-78 1 21.5.5-21.5.5zm-5 1 3.5.5-3.5.5zm28 0 5.5.5-5.5.5zm7 1 2.5.5-2.5.5zm-82 5-1 2-2.5-.5zm54 31 5.5 7-4 2.5 2 4.5q3.8-1.5 3 1.5l-4 4 2 2 1 3-2.5 2.5h-16l-1-1h-9l-3.5 2.5q-2.1 5.8 2.5 4.5l7.5 3.5-8.5.5q-2.3-2.7-8-2l-5.5-4.5q-.5-5 3.5-5.5l3-1h20l11 2 2.5-1v-5h-1.5l-12-3-2.5-2.5-1-3 12-8q-.7-2.2 1.5-1.5z"/><path stroke="#000" d="m103.5 31 1.5.5-3.5 2.5zm-3 4-3 4zm10 0 1.5 2.5h-1zm-14 5-1 2zm-18 5q4.8-.7 5.5 2.5L81.5 46q-4.2-.7-5 2zm7 3 5.5 4.5-1.5-.5zm42 0q3.8-.7 4.5 1.5l-1.5-.5q-4.6-.6-6 2l1-2zm-5 3-1 2-3 1v-1zm-48 3 .5 3.5h-1zm58 3 .5 2.5h-1zm-77 3 7.5.5-7.5.5zm-4 1-1 2zm19 0 5.5.5-5.5.5zm62 0 12.5.5-12.5.5zm16 1 4.5.5-4.5.5zm8 1 2.5.5-2.5.5zm4 1 1 2zm-110 2q2.8 7.3 8.5 11.5l-6-5-3-5zm111 2 .5 1.5-4 3zm-5 5-4 5zm-96 5 1.5 3.5-4 3q3.5-.5 3-5zm90 0-3 4zm-5 4-2 3zm-2 4 .5 3 2 .5-1.5.5q-2.5-1-1-4Zm-102 3 1.5.5-3.5 1.5v-1zm-8 4-1 2-9 7 5-6zm127 2 2.5 1.5-1.5-.5zm8 4 8.5 5.5-1.5-.5q-6.2-1.4-7-5Zm12 7 2 3zm4 3 9.5 8.5 1 2-2-1-5.5-6.5zm-166 1 .5 2.5h-1zm-1 5 .5 2.5h-1zm-1 6 .5 9.5h-1zm2 16 1 2zm4 5 .5 7.5-5.5 4.5 3-4 1.5-.5zm165 4 .5 1.5-2 4.5-7.5 2-.5-2q6.3 1.5 8-2.5zm-172 8-3 4zm-5 7 .5 4.5h-1zm1 6 3.5 5.5-3-2zm4 7 7.5 6.5-1.5-.5zm162 1 .5 1.5-6 5zm-137 1 2.5.5-4.5 2.5zm5 1 3.5.5-3.5.5zm8 1h10l1.5 1.5-.5 1.5h-7v-1l6.5-.5-10.5-.5zm-17 1-2 3-1.5-.5zm14 2 2.5.5-2.5.5zm-23 1 4.5.5-4.5.5zm143 0-3 4-2 1 1-2zm-125 1-3.5 4.5-1.5 3.5-.5-1.5zm81 0 2.5.5-2.5.5zm-4 1-.5 1.5-.5 1.5-.5-1.5zm10 0 12.5.5-12.5.5zm14 1 1 2zm-23 2 2.5.5-2.5.5zm5 1 2.5.5-2.5.5zm4 1 4.5 1.5-1.5.5-3-1zm23 0 3.5.5-3.5.5zm-15 3 2 3zm3 4 .5 2.5h-1zm-102 1 2 3z" opacity=".816"/><path fill="#adbee5" stroke="#adbee5" d="m126.5 58 .5 2.5h-1zm-62 8 2.5.5-2.5.5zm88 3-1 2zm-47 6 1 2zm40 0-1 2zm-46 1-1 2zm-9 3 1 2zm-7 1-1 2zm25 0 2.5 1.5-1.5.5zm-49 10 2.5.5-2.5.5zm6 0 .5 2.5h-1zm56 3 2.5.5-2.5.5zm7 0 3.5.5-3.5.5zm6 1 3.5.5-3.5.5z"/><path fill="#adbee5" stroke="#adbee5" d="m65.5 95 .5 3.5-1 2q2.3 1.3 1 6l2.5 3.5 3 1 1-1 27-1 1 1h11l2-4 1.5.5-1-2h2l-1-2 2.5-.5 4.5 2 2.5-7q2.8 3.8 8.5 3-1.2-3 2.5-2l4.5-1q-1.2-3 2.5-2l11.5 4.5-4 8.5-7.5-3-4 2q-.7-3.8-6-3-9.4 3.1-15.5 9.5l-3 10.5-12.5-2h-11l-1 1-15.5 1-1-5-4-2.5q.8-2.2-1.5-1.5-3.7-4.8-13-4l-13 3-9.5 5v-8.5l2.5-2.5 3.5-1.5q-2.1-5.8 2.5-4.5l6.5 1v-5h2.5l8 10 3-8q3.8.8 4.5-1.5zm53 2-1 2zm-82 1-1 2zm-3 2-1 2zm-3 2-4 5zm-6 8 .5 2.5h-1zm-1 5 .5 2.5h-1zm-1 5 .5 11.5h-1zm8 1-2 3z"/><path fill="#010100" stroke="#010100" d="m105.5 31 3.5 1 9 22 9.5-5h3l1.5 1.5V62l23.5 1 4 1 2.5 2.5-4.5 6.5L143 84.5q-1 4.5 1.5 5.5l8 2 15 7 12 7 13.5 11.5q2.6 1.4 2 6l-7 22-4.5 6.5q-7.3-2.6-5.5 3.5l-3 8v4l3 7-6.5 7.5q-6.6 7.4-20 8l-3.5-2.5-1.5-2.5-2-1-21-1-2.5 4 16.5 4 5.5 4.5v4.5h-5q.8-3.8-2.5-5l-17-4h-5l-2.5-2.5 1-2.5q4.7.8 6-3.5.8-5.3-2-7L104.5 164l-12-6h-7q-11.1 3.4-17.5 11.5l-1 4 5.5 7.5 11 2 1.5 1.5-1.5 3.5-21-3-1 1h-10l-5.5 3.5-1 5q2.7 4.8 10 5l-10.5.5q-4.4-2.1-4.5-8.5l6.5-8.5q7.4-3.3 18.5-2l-1.5-3h-14l-9-2-8 6h-6q-7.4-2.6-11.5-8.5l-4-7v-6l5.5-6.5 6.5-4.5v-10l-2.5-.5-3.5-5.5v-15l2-10 3.5-6.5 12-9q10.4-5.6 24-8l3.5-3.5-1.5-3.5-6.5-5.5-4-9 2.5-2.5h17q1.3 2.3 6 1l-.5-1.5Q73.3 49.8 78.5 46h3l9 7q4-13 13-21zm.5 6q-10 8-12 23l-3-1-10-8-2 4 2 8-3 4q-7-2-17-1l-5-1 2 6 4 2 6 8-2 4q9 1 15 5v-2l5-8q6-1 7 3h2l9-7q4 2 4 7l11-3q3 2 3 7h14l1 1q2 1 1-5l17-14-2-2q-7 2-8-1h-15q-4-4-3-11l-10 6-6-14zm-4 45-6 6q-7 1-8-3l-3 5 3 12 1 2h20q2-8 8-14v-5l-6 3h-4l-3-4zm-42 7q-17 3-28 11l-8 8-3 15 1 11 2 1h7l5-11q5-8 16-10 8-1 13 2 7 5 9 14h9l1-1h15l1 1h9l6 2 3-9 5-7q5-5 13-7 10-1 16 3 5 4 7 11v14l17 7 5 4 2-2 7-21v-3l-3-5-11-8-20-11-24-6q-9-1-13 1l-6 14-3 2H99l-1-1-28 1-3-2q2-6-1-7l1-4q-1-3 3-2l1 2v8l2 1 3-1q5-1 7 1l-1-8-11-7zm76 25-6 2q-7 5-10 13l1 9q4 6 13 7h6l6-2 8-8 1-4-2-10q-4-9-17-7Zm-85 5-7 3-7 10 1 10 10 6q10 1 16-4l4-4 2-7-5-10q-4-6-14-4Zm32 15q-2 3-7 1l-5 9-7 6-10 3q-11 0-16-5l-5-6v-2h-5v16l2 8 14 8 17 1 3-6q8-10 22-14h7l7 2 9 6 11 12 2 4 7 2q8-1 13 1v-2l-4-6 1-5q6-10 19-13 6-1 9 2l4 5q3-4 2-12l-16-8h-2l-6 6-9 3-11-1-6-3-6-7-7-4zm-60 21-6 4-2 5 2 5 8 7 8 1 2-3-6-5-5-7q1-8-1-7Zm136 4q-10 2-15 10 2 10 9 16 14-2 20-11l-3-6-8-9z" opacity=".996"/><path fill="#7e8ba8" stroke="#7e8ba8" d="m115.5 60 1 2zm-56 10 1 2zm38 8-1 2zm19 1 2.5.5-2.5.5zM66 90q9.6 1.2 15 7.5l1 5-9 .5v-7.5L70.5 93q-6.3 1.9-4.5-3Zm87.5 8 18.5 11.5q-7 7.5-10.5 18.5-1.4-11.6-9-17-5.8-5.2-19-3l-11.5 6.5-7 12.5-11.5-2h-21l-8.5 2q-2.1-7.6-8.5-12-5.4-3.6-16-2-10 2-14.5 9.5L29.5 133l-3 1-.5-4.5 6.5-10.5 15-7 12-1 9.5 4 2.5 4q2.3-.7 1.5 1.5l1 3.5 15.5-1 1-1h11l12.5 2 3-10.5 2.5-2.5 10-6 6-1 4 3 5-2 5.5 3 4-8.5z"/><path fill="#7e8ba8" stroke="#7e8ba8" d="m100.5 109 11.5.5-11.5.5z"/><path fill="#9d7650" stroke="#9d7650" d="m102.5 83 4 6 10.5-2-6.5 12-10-2L88 99l-2-5.5v-4l1-2.5 8.5 2zm-11 20 16.5.5-16.5.5zm39 13 5.5 4.5-4.5-3.5-7 6zm-86 6 3.5 4.5-2 3-.5 8.5-.5-8.5 2-4-2.5-2.5-3.5 2.5zm88 1-3 4zm-92 4-1 2zm-3 5 .5 4.5h-1zm84 0 .5 3.5h-1zm9 4-1 2zm-87 3-1 2zm40 0 21 1 1.5 1.5-1 11.5-5.5-1h-15l-15 3-11 4-16 2-10 3-2.5-2.5-1-20.5q3.8-1.5 3 1.5l7.5 8.5 8 3h7l13-5h3l6.5-4.5 2-4.5zm43 0-1 2z"/><path fill="#9d7650" stroke="#9d7650" d="m38.5 140 3.5 2.5-1.5.5zm-16 16 2.5 10.5 4.5 4.5 3.5 2.5-1.5 2.5-7-1-7.5-7.5-1-5 2.5-3.5z"/><path fill="#252422" stroke="#252422" d="m102.5 40-1 2zm-20 12 1 2zm-3 2 .5 2.5h-1zm7 1 2 3zm-30 10 3.5.5-3.5.5zm15 1 2.5.5-2.5.5zm59 0 5.5.5-5.5.5zm10 0 4.5.5-4.5.5zm10 1 2.5.5-2.5.5zm-92 3 2 3zm94 0-2 3zm-51 6-1 2zm3 0 2 3zm41 0-1 2zm-59 3 2.5.5-2.5.5zm11 0-3 4zm22 1 1 2zm-52 2v3q-2.2.8-1.5-1.5zm34 0 2.5 1.5-1.5-.5-6 5zm36 1 .5 2.5h-1zm-78 6 2.5.5-2.5.5zm56 2-1 2zm14 1 2.5.5-2.5.5zm-16 2-1 2zm-33 1 1 2zm-9 1 .5 8 3 .5-2.5.5-1.5-1.5zm-37 2-1 2zm53 0 .5 2.5h-1zm-5 1 .5 2.5h-1zm-51 1-1 2zm35 0 .5 3.5h-1zm95 1 2 3zm-136 5-1 2zm42 1q1.7 3.3 7.5 2.5l-5.5.5zm45 0-1 2-1.5-.5zm-25 1 10.5.5-10.5.5zm88 1 1 2zm3 2 1 2zm-52 1-1 2zm27 1 1 2zm29 1 1 2zm-117 2 3 4zm57 0-2 3zm-81 1-4 5zm110 2 1 2zm-32 1-1 2zm6 0-1 2zm63 0q2.3.8 1.5 4.5h-1zm-125 1 1 2zm-42 1 .5 8.5h-1zm22 0-2 3zm-8 2-1 2zm36 0 1 2zm88 0 .5 9.5h-1zm-5 2 .5 4.5h-1zm-39 2 .5 2.5-2 1zm-37 1 4.5.5-4.5.5zm21 0 7.5.5-7.5.5zm10 1 2.5.5-2.5.5zm11 1 .5 3.5h-1zm-93 3 3.5.5-3.5.5zm55 0 19.5.5-19.5.5zm71 0-8 9zm-78 1 2.5.5-3.5 1.5zm32 0 2.5.5-2.5.5zm52 1 2.5 1.5-1.5.5zm-44 1 2.5 3.5-2-1zm-48 2-4 5zm101 1 4.5 2.5-1.5-.5q-3.7-.2-3-2Zm-96 1-.5 1.5-4.5 5.5 3.5-4.5zm82 0 10.5 3-.5 2-9-4-11 8-10 1v-1q14.7.2 20-9Zm-36 1 3 4zm-78 1 1 2zm21 1-1 2zm72 0 6.5.5-6.5.5zm43 0 4.5 3.5-1.5.5zm-133 1 2.5 1.5-1.5.5zm80 1 2.5 1.5-1.5.5zm45 0 4.5 2.5-1.5-.5q-3.7-.2-3-2Zm-121 1 7.5.5-7.5.5zm-9 1 1 2zm27 0-1 2zm65 1 2.5.5-2.5.5zm-85 3 2.5.5-2.5.5zm9 0 2.5.5-2.5.5zm-26 1 .5 2.5h-1zm65 0h4l6 3 15.5 13.5 4.5 6.5q6.6 3.1 16.5 2l-3-6.5v-4l8.5-9.5 11-5h6l3.5 2.5-1.5-.5-7-1q-12.6 2.9-18.5 12.5l-1 5 4 6v2.5q-4.9-1.7-13.5-1l-6.5-2-2-4.5-11.5-11.5-9-6-6-1zm-14 1 2.5.5q-11.7 3.3-18 12l-3.5 6.5-17-1-10.5-6.5 1.5.5 10 5 15 1q3.3-8.2 10-13zm93 0 .5 2.5h-1zm-150 1q2.6-.8 1.5 2.5h-1l-.5-1.5-2.5 1.5zm63 3 2.5.5-2.5.5zm4 0 3.5.5-3.5.5zm79 0 2.5 1.5.5-1.5.5 1.5-1.5 1.5z" opacity=".996"/><path fill="#252422" stroke="#252422" d="M158.5 159h3l8.5 8.5 1 2-2-1-7.5-8.5q-4 .8-3-1Zm-78 1 1.5.5-6.5 3.5 1-2zm72 1 1.5.5-2.5 1.5zm-51 1 1 2zm-71 1 1 2zm119 0-5 6zm-76 1-1 2zm31 0 11 12zm-79 1 2.5 3.5-3-2zm150 1 1.5 3.5h-1zm-158 2 7 8zm52 0-1 2zm-40 1 2 3zm38 2 .5 2.5h-1zm-34 1 1.5 2.5-3.5 2.5v-1l2.5-1.5zm139 1-6 7zm-56 4 1.5 2.5h-1zm32 2 1 2zm16 1-1 2zm-47 1 .5 1.5-2 1zm33 1q1.5 3 6.5 2.5l-4.5.5zm-66 1 1.5 3.5-2 1 1-3zm-22 2 4.5.5-4.5.5zm-11 1 2.5.5-2.5.5zm-3 1-2 3zm30 0 2.5.5-2.5.5zm33 2 1 2zm4 2 3.5.5-3.5.5zm6 1 2.5.5-2.5.5zm-76 1 3.5 4.5-4-3zm81 0 2.5.5-2.5.5zm8 2 2.5 1.5-1.5-.5zm-79 4 2.5.5-2.5.5z" opacity=".996"/><path fill="#60693d" stroke="#60693d" d="m136.5 66 3.5.5-3.5.5zm-52 14-1 2zm20 6 2 3zm10 0 2.5.5-2.5.5zm-22 2 3.5.5-3.5.5zm-4 14 2.5 1.5-1.5.5zm49 12q10.1-1.1 13.5 4.5 4.5 4.5 3 15l-9.5 9.5q-5.1 2.4-14 1l-4.5-2 2.5-4 2.5-1.5-2-9 7-6-4-5zm-9 3-2 3zm-76 2q9-.5 12.5 4.5l4 7v5q-1.4 6.1-6.5 8.5-4.8 4.7-16 3l-5.5-3.5 3-5.5 2-.5v-8l2-4q-5.2-2.2-1.5-4.5z"/><path fill="#60693d" stroke="#60693d" d="M78.5 135h28l9.5 3.5 5.5 7.5q7.2 5.3 20 5 9-3 15-9l8 4h2l6.5 3.5v4l-2.5 6.5-2.5-4-5.5-3h-6q-10.8 2.7-16.5 10.5l-3 4v4l3 6.5-14.5-1-3.5-2.5-10.5-12.5-14-9-13.5-.5 15.5-.5 5.5 1 1-11.5-1.5-1.5-21-1-4.5 1-4.5 7-9 3 1-2 5.5-4.5 3.5-7.5zm-49 5 3.5 1.5q1.4 6.1 6.5 8.5l5.5 2.5-1.5.5-10.5-8.5-1-3.5-3 .5v11h-1v-11zm18 13 7.5.5-7.5.5z"/><path fill="#60693d" stroke="#60693d" d="m78.5 153 4.5.5q-13.4 2.6-20 12l-3.5 6.5-15-1-14.5-8.5 2.5 1.5 1-1 25-4zm-49 2 .5 5.5h-1zm-1 14 1 2zm4 3 1.5 2.5-2 1 1-2zm-4 4 2.5.5-2.5.5z"/><path fill="#515d74" stroke="#515d74" d="m154.5 68-1 2zm-91 6 4 5zm84 0-1 2zm-57 6 1 2zm38 6 4.5.5-4.5.5zm-5 6 5.5.5-5.5.5zm-56 1-1 2zm93 8 1 2zm-131 1-3 4zm108 6 6.5.5-6.5.5zm35 0 15.5 11.5 1 6-7 21.5h-2.5l-8-6-12.5-5.5q5.1-14.9 14-26zm-97 1 9.5.5-9.5.5zm76 2 1 2zm-26 1-5 6zm-72 1 3.5.5-3.5.5zm102 2 1 2zm-88 2 1 2zm-28 1-1 2zm80 1-1 2zm-50 1 1 2zm-33 2-2 3zm45 4h23l10.5 2 .5-2 .5 1.5-1 3.5-8.5-2h-28l-3 1-1-2zm-57 8 2.5.5-2.5.5zm64 24 8 2 7 4 12.5 12.5 2 4-2 4.5-5 1q-1 3.8 1.5 5l18 3 7.5 3-.5 3h-69l-4-3-6.5-1q-1.2-4.6 1.5-6 3.5-2.5 11-1l1 1h16l2.5-3.5-3-4 4-5.5q-3.7 1.5-3-1.5l-2-3 4-2.5-5.5-7-3.5 2-1.5 3-10.5 6.5 3 5-3-2-1-7 3.5-4.5zm69 2h4l7.5 7.5 3 6q-5.2 9.8-19.5 10.5-5.9-5.6-8.5-14.5 4.5-7.1 13.5-9.5Z"/><path fill="#515d74" stroke="#515d74" d="m77.5 181 2.5.5-2.5.5zm-23 5 16.5.5-16.5.5zm-5 1 2.5.5-5.5 3.5zm24 0 4.5.5-4.5.5zm7 1 3.5.5-3.5.5zm-34 6 4.5 3.5-1.5.5zm6 4 3.5.5-3.5.5z"/></svg>