<svg xmlns="http://www.w3.org/2000/svg" width="200" height="200"><path stroke="#000" d="M0 0h200v200h-25.5l-.5-1.5-4-13-5-9 3-3 1-6-3-11-4-8q8.1-5.4 6-21l-1-1v-8l-1-1-1-11-3-10v-12l-1-1-1-12-7-18-7.5-11.5-7-1Q123.4 51.4 112 65.5l-6.5 8.5h-20l-.5-1.5Q81.7 52.3 69.5 41l-7-2-9.5 8.5q-7.6 7.9-12 19l-3 11q1.5 7.5-1 11l1 2-5 17-1 12-6 10-1 8 4.5 6.5 10.5 5.5q-8.4 8.6-10 24l4 5v2q-6 8.3-8 19.5H.5l-.5-.5z" opacity="0"/><path stroke="#000" d="m61.5 40 1.5.5-9.5 8.5zm3 0 2.5.5-2.5.5zm4 1 4 5zm72 0q5.6.5 7.5 4.5l-3.5-2.5-4-1zm-4 2-3 4zm-63 4 1 2zm58 0-4 5zm-56 3 3.5 5.5-2-1zm-24 1-2 3zm74 1-7 8zm-77 3-1 2zm-2 3-1 2zm70 4-4.5 5.5-2.5 3.5 1.5-2.5zm-73 1 .5 1.5-1.5 2.5-.5-1.5zm40 6 .5 2.5h-1zm25 3-2 3-22.5-.5 22.5-.5zm51 2 .5 2.5h-1zm-121 6 .5 10.5h-1zm122 0 .5 3.5h-1zm1 9 .5 6.5h-1zm-124 4 .5 2.5h-1zm126 11 .5 2.5h-1zm-129 1 .5 2.5h-1zm130 4 .5 2.5h-1zm-131 1 .5 2.5h-1zm132 5 .5 3.5h-1zm-133 3 .5 2.5h-1zm-1 4-1 2zm135 0 .5 4.5h-1zm-137 3-.5 1.5-.5 1.5-.5-1.5zm138 5 .5 4.5h-1zm-141 2 .5 2.5h-1zm0 5 1.5 2.5-2-1zm140 1 .5 2.5h-1zm-138 3 4.5 3.5-1.5-.5zm136 3-3 4zm-125 7-.5 1.5-1.5 2.5.5-1.5zm124 3 1 2zm-130 8 .5 1.5-1.5 2.5-.5-1.5zm134 3 .5 6.5h-1zm-136 7q.4 5.1 4.5 6.5l-5-4zm134 7 2.5 4.5h-1z" opacity=".953"/><path fill="#f6dee5" stroke="#f6dee5" d="m63.5 46-3 4zm-8 9-1 2zm83 8 2 3zm-18 3-2 3zm9 1-4 5zm23 4 .5 17.5h-1zm-37 1-1 2zm-62 1 .5 2.5h-1zm0 5 5.5.5-5.5.5zm10 0 3.5.5-3.5.5zm61 0 2.5.5-2.5.5zm27 13 .5 3.5h-1zm-93 8 3.5.5-3.5.5zm91 0 .5 3.5h-1zm-86 1 3 4zm-10 3-.5 1.5-.5 1.5-.5-1.5zm70 1 1 2zm-56 1 3.5 6.5h-1zm42 1-6 7zm43 4 .5 2.5h-1zm-50 4-.5 1.5-.5 1.5-.5-1.5zm-51 2 1.5 2.5-2-1zm-13 2 .5 2.5h-1zm32 2-1 2zm31 0 3.5 5.5-4-3zm24 0-3 4zm-70 1 2.5 1.5-1.5.5zm100 0 .5 3.5h-1zm-91 1 2.5.5-2.5.5zm27 3 1.5 2.5-2 1 1-2zm23 1 2.5.5-2.5.5zm42 1 .5 5.5h-1zm-67 7 4 5zm65 2-1 2zm-77 1-.5 1.5-.5 1.5-.5-1.5zm0 4 2.5.5-2.5.5zm73 0-4 5zm-60 10 3.5.5-3.5.5zm21 0 2.5.5-2.5.5z"/><path fill="#fdeaf0" stroke="#fdeaf0" d="m137.5 50-1 2zm-72 1 1 2zm-8 2-1 2zm75 1-5 6zm-7 7-1 2zm-3 3-1 2zm9 1-1 2zm-14 5-1 2zm27 5 .5 2.5h-1zm-67 5 4.5.5-4.5.5zm24 0 2.5.5-2.5.5zm50 7 .5 3.5h-1zm-95 12 1.5.5-2.5 1.5zm8 1 4.5 5.5-2-1zm-11 2-1 2zm61 1 8.5.5-8.5.5zm-3 1 1.5.5q-6.8 2.2-10 8l-1.5 2.5.5-1.5 7.5-8.5zm14 2 1.5 2.5h-1zm-75 3 .5 6.5h-1zm77 1 .5 7.5h-1zm-55 5 .5 2.5h-1zm28 1 .5 5.5h-1zm-49 2 4 5zm6 5 7.5.5-7.5.5zm44 0 2 3zm-64 1-1 2zm42 0-1 2zm76 1 .5 3.5h-1zm-48 2 6.5.5-6.5.5zm-23 2 3.5.5-3.5.5zm71 2 .5 2.5h-1zm-73 1 4.5.5-4.5.5zm-2 1-1 2zm8 0 6.5 5.5-.5 1.5-5-6zm-11 3-1 2zm75 2-4 5zm-100 7 2.5.5-2.5.5zm26 5 3.5.5-3.5.5z"/><path stroke="#000" d="m62.5 39 3.5.5-3.5.5zm-2 1-7 8zm9 1 3 4zm69 0 1.5.5-2.5 1.5zm7 1 2 3zm-10 1-3 4zm-62 3 1 2zm75 0 1 2zm-18 1-4 5zm-78 2-3 4zm23 0 1 2zm-27 5L47 56.5 45.5 59l.5-1.5zm106 4 1.5 3.5h-1zm-37 2-5 6zm-7 8-1 2zm-2 3-2 3zm51 0 .5 2.5h-1zm1 5 .5 3.5h-1zm-122 1 .5 2.5h-1zm123 7 .5 4.5h-1zm1 13 .5 2.5h-1zm2 9 .5 2.5h-1zm-131 1 .5 2.5h-1zm132 5 .5 2.5h-1zm-133 1 .5 4.5h-1zm134 5 .5 3.5h-1zm-135 2 .5 1.5-2 1zm-2 4-1 2zm-2 3 .5 1.5-1.5 3.5-.5-2.5zm140 0 .5 2.5h-1zm-142 7 .5 3.5h-1zm142 1 .5 3.5h-1zm-141 4 3.5 4.5-3-2zm138 6-2.5 3.5-.5 1.5-.5-1.5zm-125 5-1 2zm123 1 2.5 3.5-2-1zm-126 4-1 2zm132 12 .5 2.5h-1zm-138 2 .5 4.5h-1zm137 3 .5 1.5-3 2zm-136 3 3.5 4.5h-1zm134 2 1.5 2.5-2-1zm3 6 1.5 3.5h-1z" opacity=".604"/><path fill="#ffeef2" stroke="#ffeef2" d="m139.5 49 .5 3-3-.5zm5 3 1.5 4q-3.8 1.2-1.5-4Zm-25 16 .5 4-3-.5zm-4 5 .5 3-3-.5zm-4 5 .5 2-2-.5zm-53 1 2.5.5-2.5.5zm-15 17 .5 4-2-.5zm15 2 3.5.5-3.5.5zm-19 18 .5 3.5h-1zm86 5-2 3zm-43 2 2.5.5-2.5.5zm-50 13q4.8-1.7 3.5 2.5l.5 1.5zm119.5 0 2 .5-2 1zm-110.5 3 2.5 1-.5 3-3.5-1zm106 4-2 3q-2.6.7-1.5-2zm-23.5 5 4 .5-4 1.5z"/><path fill="#ffeef3" stroke="#ffeef3" d="M62.5 48H64v4h1.5L73 67.5 76 81l24.5-1q1.8 2.8 8 1l3.5-1 1.5-4q4.6 1.2 2.5-4h4v-4.5L135.5 52h4.5v-4h1.5q4 1.7 2.5 8l3 1.5 1 6.5q3-1.2 2 2.5l2 3v16q-2.7 1.8-1 8l-2 4v6l5 15 1 15-1 2.5q-3-1.2-2 2.5l-5.5 5.5H144q1.1 2.7-1.5 2l-5 2-9 1-4.5-1q1.4 4-5.5 2l-10 2h-11l-1-1h-14l-1-1-20-2-7-3-10.5-2q1.5-3.8-1.5-3h-2q-3.7.8-4.5-1.5V136h-4v-1.5l6-10 2-8-1-2 3-14.5q3.5 1.1 2-6.5l1-2q-2.5-1.5-1-7l5-19L58 52q2.7 1.1 2-1.5zM60 61q-8 5-7 18l6 1 9-1-2-9-4-7q1-3-2-2Zm78 1-6 3q-9 4-10 14l21 5 2-6q0-10-6-14 1-3-1-2ZM59 98l-2 1q-9 4-7 19l8 6h7l6-2 2-4q-1-9-5-14-2-6-9-6Zm56 5-5 2q-10 4-10 18l8 5h8l8-4 4-5v-8l-3-7q-3-2-10-1Zm-32 20-5 3 1 2 6 2q6 1 8-2l-1-4zm0 9-8 7 3 3q4 1 6-2h4l6 3q2-1 1-4-3-7-12-7Z"/><path fill="#ecc8d2" stroke="#ecc8d2" d="m64 46 4 2.5 7 12 3 9v5l2.5 4.5 1.5.5-4.5.5-1.5-1.5-3-14zm76.5 1 1.5.5-2.5 1.5zm-81 3-2 3zm76 1-1 2zm-6 5-7 8zm-69 5q5.2 7.1 6.5 17l-7.5 1-6.5-1 2-9.5zm76 2 4.5 3.5 3 7v5l-1 4.5-20-5q1.6-8 8.5-12zm-19 6-1 2zm36 5q2.5 5.5 1.5 14.5l1 1v10l3 10 3 26-1 4-3.5 4.5-12 3v-1l5.5-4.5 6-9v-5l-4-13v-4l-3-7v-5q4.5-9.5 3.5-24.5Zm-61 5 3.5.5-3.5.5zm-9 1 2.5.5-2.5.5zm-40 6 .5 3.5h-1zm14 14h5l4.5 4.5 5 12-3.5 5.5-10 1-5.5-3.5q-3-3-2-10l4.5-8.5zm58 4q7.8-1.8 9.5 2.5 2.7 3.3 2 10l-5.5 7.5-8 3h-5l-6.5-4.5-1-5q3-7.5 9.5-11.5zm-77 10 .5 3.5h-1zm42 10 7.5.5-8 .5-.5 2-.5-1.5zm11 3-1 2-7.5-.5zm-10 6q9.8-.3 12.5 6.5 1.1 3.3-1.5 2.5l-8-3-7.5 2q.1-5.6 4.5-8Zm-49 4 1 2zm102 11 2.5.5-2.5.5zm-67 1 2.5.5-2.5.5zm61 0 2.5.5-2.5.5zm-6 1 2.5.5-2.5.5zm-39 1 6.5.5-6.5.5zm31 0 3.5.5-3.5.5zm-16 1 9.5.5-9.5.5zm-12 6 3.5.5-3.5.5z"/><path fill="#bea09e" stroke="#bea09e" d="m62.5 46-1 2zm6 3 1 2zm69 0-1 2zm-81 4-2 3zm76 0-2 3zm-11 11-3 4zm-6 7-1 2zm-37 1 .5 2.5h-1zm76 4 .5 2.5h-1zm-75 1 1 2zm31 1-1 2zm-22 1 3.5.5-3.5.5zm10 0 3.5.5-3.5.5zm-55 4 .5 2.5h-1zm112 0 .5 5.5h-1zm1 13 .5 3.5h-1zm3 16 .5 2.5h-1zm1 6 .5 3.5h-1zM80 125h9.5l2.5 1.5-1.5 1.5h-8l-2.5-1zm81.5 2 .5 3.5h-1zm-130 7 .5 2.5h-1zm129 6-1 2zm-108 6 2.5.5-2.5.5zm20 4 3.5.5-3.5.5zm8 1 2.5.5-2.5.5zm15 1 2.5.5-2.5.5zm13 0 2.5.5-2.5.5zM43 156q3.8-1.5 3 1.5l3 9.5-10.5 6-1.5-2.5zm47.5 2 5.5.5q-2.7 2.3-8.5 1.5v-1zM39 184h3v6.5l-2 9.5h-6.5l-.5-1.5zm16.5 0 4.5 3.5 3 5.5 4.5 1 12-3 2.5 1-2 8-38-.5 8-5q.9-7.1 5.5-10.5Zm65 2 1.5.5-1 2 2 11.5h-12.5l-.5-1.5 1-3z"/><path fill="#483d5a" stroke="#483d5a" d="m135.5 50-1 2zm-78 1-1 2zm72 4-9 10zm-76 1-1 2zm63 13-1 2zm40 20 .5 3.5h-1zm-119 29 .5 2.5h-1zm125 13 .5 3.5h-1zm-131 6 2 3zm121 14q3.8-.7 4.5 1.5l2 4h-1l-2-4.5q-4.4 1-3.5-1Zm-62 1 2.5.5-2.5.5zm22 0 2.5.5-2.5.5zm-58 1 2.5.5-2.5.5zm90 0 3.5.5-3.5.5zm-101 1-1 2zm15 0 3.5.5-3.5.5zm79 0 4.5.5-4.5.5zm-74 1 3.5.5-3.5.5zm68 0 3.5.5-3.5.5zm-62 1h2l4.5 4.5-4.5-3.5q-3 .5-2-1Zm55 0 4.5.5-4.5.5zm-37 1 2.5.5-2.5.5zm30 0 5.5.5-5.5.5zm-9 1 7.5.5-8.5 1.5zm-3 2-1 2-5 2v-1zm-26 2 1 2zm17 2 1.5.5-5.5 1.5v-1zm66 5 .5 1.5-2 1zm-30 6 14.5.5-14.5.5zm-79 1 3.5.5-3.5.5zm58 0 17.5.5-17.5.5zm-5 2 2 4 28.5.5-28.5.5q-3.7-1.2-2-5Zm-26 1 .5 1.5q-1.7 4.3-9.5 2.5v-1q6.8 1.7 8.5-1.5zm77 0 2.5.5-2.5.5zm-5 1 3.5.5-3.5.5zm-108 1 2.5.5-2.5.5zm97 0 9.5.5-9.5.5zm19 0 3.5 6.5h-1zm-103 1 4.5.5-4.5.5z"/><path fill="#000001" stroke="#000001" d="m63.5 40 4 1 5.5 5.5 7 12L84 75h22.5l2.5-2.5q7.3-11.7 17.5-20.5l11-9 5-1 6.5 5.5 10 25 1 11 1 1v11l6 32v10q-1 7-6 10v3q7 7 6 22l-3 5q6.7 9.5 9 22.5h-5v-2.5q-2.1-11.4-8.5-18.5l-11 2-39 1-2.5-3.5 1.5-1.5 42-1 8-2 4.5-3.5v-5q-3-3-3-9l-4.5-5.5h-5l-4 2-12 1-7 2-20 2-13 7h-9q-8.3-2.7-13-9-14.6-1.4-26-6l-3.5 3.5-8 18 6.5 4.5 28 2q1.8-2.7 8-1 4.3 1.7 1.5 3.5l-.5 1.5h-26l-1-1-11-1-4.5 6.5-5.5 13.5q-4.4 1.5-3.5-1.5l9-20q-4.8-2.2-5-9l4-11 6-10.5q-7.9-1.9-13-7.5l-2-5 1-5 6-10v-7l6-23v-13l3-10Q48.7 51.2 61.5 41zm-.5 5q-10 9-16 21l-4 13v15q-6 11-6 28l-6 10v6l4 3 9 4 19 5 22 2 1 1h14l1 1 16-1 21-4h6l16-5 3-7-1-16-5-22V86l-1-1-1-11-8-21-5-7-9 6q-14 12-24 27H84l-4-2q-2-19-12-31zm19 112 1 2 6 2 9-2q-6-3-16-2Z"/><path fill="#6b5a96" stroke="#6b5a96" d="m66.5 46 1 2zm73 1-1 2zm3 0 1 2zm-82 1-2 3zm96 45 .5 2.5h-1zm3 49-1 2zm-113 9 12 4 13 2q5.2 6.7 15 9h9l13-7 14-1 33.5-6 7 16.5-2.5 3.5-10 3h-2l-40 1-2.5 2.5q-.5 4 2.5 4.5h28l1-1h13l9.5-2q5 8.4 7 20h-43.5l-.5-2.5-2-10 .5-1.5-10.5 9.5-1 4.5H80.5l-.5-2.5 2-5.5-2.5-1-14 3-2.5-1-6.5-9-3.5 2.5-4.5 9.5-8.5 4 2-16q-3.7-1.5-3 1.5L32.5 200l-.5-1.5 8.5-17.5 16 1 1 1h21l2.5-3.5-1-2.5-34.5-1-7-2-2.5-2.5q.6-6.9 4.5-10.5l.5 1.5-4 9 2.5 1.5 9.5-6-3-11q-4.1-1.7-3 2.5l-2 1z"/><path fill="#6b5a96" stroke="#6b5a96" d="m82.5 157 4.5.5-4.5.5z"/><path fill="#1c1821" stroke="#1c1821" d="m62.5 45-3 4zm75 3-1 2zm-68 1 1 2zm63 3-2 3zm-77 1-1 2zm64 12-2 3zm-5 6-1 2zm-33 6 1 2zm29 0-1 2zm-5 2 2.5.5-2.5.5zm51 6 .5 3.5h-1zm-119 29 .5 3.5h-1zm124 6 .5 2.5h-1zm-20 28 2.5.5-2.5.5zm-19 3 2.5.5-2.5.5zm-78 1-1 2zm41 0 4.5.5-4.5.5zm15 1 5.5.5-5.5.5zm41 0 2.5.5-2.5.5zm16 0 1 2zm-23 1 2.5.5-2.5.5zm-67 1 2.5.5-2.5.5zm61 0 2.5.5-2.5.5zm-56 1 4 5zm49 0 2.5.5-2.5.5zm-31 1 3.5.5-3.5.5zm23 0 3.5.5-3.5.5zm-6 1-1 2zm-19 2 3.5.5-3.5.5zm0 5 3.5.5-3.5.5zm59 10 3.5.5-3.5.5zm-100 1 5.5.5-5.5.5zm82 0 7.5.5-7.5.5zm-66 1 6.5.5-6.5.5zm15 0 1 2zm-38 3 2.5.5-3.5 1.5zm67 0 1 2zm42 0 2.5.5-2.5.5zm11 0 1 2zm-113 1 4.5.5-4.5.5zm85 0 8.5.5-8.5.5zm-70 1 8.5.5-8.5.5z"/></svg>