<svg xmlns="http://www.w3.org/2000/svg" width="200" height="200"><path stroke="#000" d="M0 0h200v200l-16-.5 5-4 1-2v-77l-4-1.5q1.1-2.7-1.5-2-10.7-2.8-18.5-8.5 2.5-22-8.5-30.5-6.7-1.2-9 2-.3-18.2-9-28l-7-4-11-3-20-1-29 7Q58 52.5 49 63.5l-3 5-1 19 1 1 1 15L23.5 121 10 124v69.5q2.8 2 2 6.5H.5l-.5-.5z" opacity="0"/><path stroke="#000" d="m101.5 40 10.5.5-10.5.5zm-6 1 4.5.5-4.5.5zm19 0 7.5.5-7.5.5zm-24 1 3.5.5-3.5.5zm33 0 2.5.5-2.5.5zm-38 1 3.5.5L78.5 46v-1zm42 0q9 1 13.5 6.5 4.2 4.3 5 12h-1q-1.4-10.1-8.5-14.5l-9-3zm-55 4 1.5.5q-14.7 5.3-24 16L46.5 70l-.5-1.5L56.5 56zm74 16q2.6 4.9 1.5 13.5h-1zm5 11q9-1.5 10.5 4.5l2 5h-1q-1.2-5.7-5.5-8.5l-8 1v-1zm-106 1 .5 12.5h-1zm119 10 .5 2.5h-1zm1 4 .5 5.5h-1zm-119 1 .5 7.5h-1zm1 10 .5 3.5Q36.9 114.4 22.5 122v-1L47 103.5zm118 0q-.6 4.6 2 6l10.5 4.5-1.5.5-11.5-5zm14 11 6.5 2.5-1.5.5-5-2zm-163 11 4.5.5-4.5.5z" opacity=".224"/><path fill="#544036" stroke="#544036" d="m103.5 46 7.5.5-7.5.5zm-7 1 3.5.5-3.5.5zm21 0 3.5.5-3.5.5zm-26 1 3.5.5-3.5.5zm41 3 4.5 3.5-2.5-1.5zm6 7 1.5 4.5h-1zm-76 1-1 2zm78 5 .5 3.5h-1zm-85 1-1 2zm86 4 .5 6.5h-1zm0 9 .5 2.5-1 3 .5 1.5-1.5-3.5zm-90 6 .5 2.5h-1zm106 0 1.5 4.5h-1zm-42 5q7-1.5 8.5 2.5 1.2 7.7-2 11l-8.5 8.5-12 6h-12q-4-5-14-4-2.9 3.6-11 2-6.9-1.6-9.5-7.5l-2-3-1-9h1l.5 1.5 2-5h5l13 6q1.5-2.5 3 1h6q3.8-3.7 11-4v1l-6 1q-2.8 3.7-9 4l-4-1 .5 1.5-1 4 1 6.5h7.5l8 4h9l5-1 7.5-4q-1.7-4.1 2.5-3l8.5-9.5v-6q-1.5-3.7-7-2.5 1.3 3.3-3.5 2h-2l-15 3v-1zM60 98l1 10 6 3 4-1-1-5q-3-7-10-7Zm99.5-8 .5 12.5h-1z"/><path fill="#544036" stroke="#544036" d="M108 96q5.2-1.7 4 2-5.2 1.7-4-2Zm1.5 9-1 2zm48 1-1 2zm5 4-1 2zm-16 1-.5 1.5q-1.8 6.1 5.5 3.5v1q-5.2 1.3-6.5-1.5-.7-3.7 1.5-4.5Zm13 1-1 2-2 1 1-2zm-115 1-1 2zm10 1 .5 8.5h-1zm-19 5-1 2zm105 4 3.5 1.5-1.5-.5q-3 .5-2-1Zm-2 1 .5 1.5-5.5 6.5-2 1 1-2 3.5-2.5zm-91 4 .5 11.5h-1zm-37 1 2.5.5-2.5.5zm132 1-1.5 2.5-1.5 2.5.5-1.5zm-13 3-2 3zm8 2-2 3-2 1 1-2zm-14 2-1 2zm-4 2 1.5.5-3.5 1.5v-1zm12 0-2 3-9 4v-1zm-82 6 2.5 1.5-1.5-.5zm18 0 3.5.5-3.5.5zm6 1 6.5.5-6.5.5zm26 0 2.5.5-2.5.5zm-46 1 3.5 1.5-1.5.5zm62 0 1.5.5-3.5 1.5v-1zm-54 3 2.5.5-2.5.5zm4 1 4.5.5-4.5.5zm6 1 3.5.5-3.5.5zm28 0 3.5.5-3.5.5zm-21 1 18.5.5-18.5.5z"/><path fill="#754b3b" stroke="#754b3b" d="m100.5 47 2.5.5-6 5-8 16-1 5v22L86.5 97q-3 3-10 2L73 95.5l-2-16v-2q-1.2-3.7 2.5-2.5L85 68.5l-5-13 8-4.5q-1.1-3.5 6.5-2zm32 5 4.5 3.5 4 13v12l-1 3 4 1.5q-1.2 4.6 1.5 6l8-7h2.5l-1.5-3-1.5-.5 1.5-.5q6.8 7.3 4.5 23.5l-3.5 4.5-10.5 4.5q-.7 3.8 1.5 4.5l8-1 9-5q-1.8 2.5 3 5l6.5 5.5-2.5 3.5-10 8-3-1-3.5 6.5v3L141.5 154l-2 1-4.5-16.5 6-5 4-7-2.5-3.5-4.5 1-4.5 7-12 7-4.5-6.5-2-10v-12q9.2-4.3 9-18-1.5-4-8.5-2.5l-1.5.5 1-13 2-6 9.5-13.5zm-75 11-1 2zm-6 16 .5 4.5h-1zm1 11 .5 4.5h-1zm4 1 2.5.5-2.5.5zm-2 17 .5 5.5h-1zm2 1 3 4zm-9 2-2 3zm28 2h6l8.5 4.5v23l3 6-12.5.5-1-1-15.5-1.5q6.6-1.4 10-6l-1-1v-15q2.5-1.5 1-7l-.5-1.5zm-9 2 5.5.5-5.5.5zm-18 2 .5 6.5h-1zm6 6 .5 3.5h-1z"/><path fill="#754b3b" stroke="#754b3b" d="m47.5 127-.5 1.5Q45.8 140 49 146l16.5 6 12 1 1 1h18l8.5-2-1 12.5 1 1V176q-3.4 1.7-10.5 1l-1-1h-11l-8.5-6.5-4.5-7.5L38 145.5l1-9zm-34 2 6.5.5-6.5.5zm41 11 1 2z"/><path fill="#0e0a09" stroke="#0e0a09" d="M100.5 41h13l1 1 12 1q10.4 2.1 15.5 9.5 5.6 9.4 5.5 24.5 3-3 10-2l6.5 9.5 2 15-1 6.5 25 10v5.5l-1.5.5-26-12-7 5-9.5 1q-1-3.8 1.5-5 6.9-.6 10.5-4.5 4-5 2-16L156 80h-3.5l-10 5-1.5-3.5 1-3-1-2q2.5-1.5 1-7l-2-9-5.5-8.5-14-5-17-1-17 3-13 4Q61.8 57.8 54 66.5q-5 6.5-3 20l1 1v9l2 9V142l8.5 3 11 2h21l1 1q25.9-4.6 41.5-19.5l2-4.5q3.8-1 5 1.5-.9 6.6-5.5 9.5-14.6 10.9-34 17-4.7-1.3-6 1h-23l-15-3-11.5-5-1-2.5v-16l1-1V111l-23.5 16-5 2H10v-5h3.5l10-2L48 103.5l-1-13-1-1v-19q3.6-8.4 10.5-13.5l18-10z" opacity=".984"/><path fill="#0e0a09" stroke="#0e0a09" d="M116 90q5.5-1.2 7 2.5v6l-8.5 9.5H112q1.5 3.8-1.5 3l-6 4-14 1-8-4H75l-1-7.5 1-3-.5-1.5 6 1 7-4 24-6 4.5 1zm-8 6v2l-6 1-11 5q0 6 5 8 8 1 11-3 4-3 5-8 2-7-4-5Z" opacity=".984"/><path fill="#c7967a" stroke="#c7967a" d="m58.5 63 2.5 1.5L66 79q-8.2-1.9-13-8.5zm3 35 8.5 6.5 1 4q-1.2 2.8-6.5 1.5-5.6-1.9-4.5-10.5zm45 0q6.8-2.2 4.5 4.5l-5.5 6.5-8 3-5.5-4.5q-1.5-4.4 1.5-3.5zm-71 22q2.3-.7 1.5 1.5L27.5 134l-4.5-5.5 2.5-.5zm134 24q3.1 1.4 2.5 6.5l-15.5 9.5-7 1v-1q3.3 1.1 2.5-1.5l1-2q-2.7-1.8 1.5-3.5zm-113 24 .5 1.5-10 16-3 6v3l4 5-23.5.5.5-1.5 2-5q-6.4-7.6-8-20l7.5 6.5 2.5 1.5 1.5 2.5 6 1z" opacity=".992"/><path fill="#946a57" stroke="#946a57" d="m85.5 50 2.5.5-4.5 2.5-1-2zm13 1-1 2zm-23 2 1.5.5-1 2.5q-5.5-.8-8.5 2v-1zm6 0L80 55.5l3 8h-1l-3-8zm-16 5-1 2zm-3 2-1 2zm22 7 .5 1.5L73.5 75H71l1 3.5-1.5 5.5-.5-4.5v-2l-1-2L84 69zm-31 4-1 2zm-2 4 .5 3.5h-1zm63 7 .5 2.5h-1zm41 0 .5 2h-2.5l-8 7-1.5-2.5 2.5-.5zm-103 1 .5 6.5h-1zm19 2 .5 4.5h-1zm-16 6L54 93.5l-.5 2.5-.5-4zm17 0 .5 2.5h-1zm-18 16 5 6 2.5 1.5-1.5-.5-5.5-4.5zm109 5 8.5 3.5-1.5.5-2-1 5.5 6.5-4.5 5.5-8 6 1-2 10.5-8.5-5.5-6.5zm-119 2-1 2zm11 0 .5 9.5h-1zm8 1 2.5.5-2.5.5zm9 0q2.3-.7 1.5 1.5zm-31 1-1 2zm27 0 2.5.5-2.5.5zm26 1 2.5.5-2.5.5zm-56 1-1 2zm35 0 .5 3.5h-1zm108 1 5.5 2.5-1.5-.5q-4.6.8-4-2Zm-109 6 .5 10.5h-1zm-18 2 .5 12.5 2 2-3-2zM44 128q2.7-1.1 2 1.5l-7.5 8.5-.5-1.5 6-6zm113.5 4-.5 1.5-.5 1.5-.5-1.5zm-39 3 1 2zm-45 3-1 2zm-3 2-2 3zm-33 2 .5 2.5h-1zm116 0-11 12zm-92 1 2.5.5-2.5.5zm-23 3 25 12 7.5 5.5 1 2-5.5-4.5q-8.5-6-20-9l-7-4zm68 5-1 2zm34 3-.5 1.5q1.7 5.8-2 4.5zm-36 5 .5 5.5h-1zm-32 8 5 6 5 3 11.5.5-9.5 1.5q-7.4-2.6-11.5-8.5zm-52 14 .5 2.5h-1zm-9 14 6.5 4.5-6 .5zm177 0-3 4-3 1v-1q3 .7 1.5-3h3.5z" opacity=".996"/><path fill="#51a3a3" stroke="#51a3a3" d="m103.5 47 19 1 9.5 3-2.5 4-8.5 7.5-6 13-1 14.5-26 6V77.5l2-11q2.7-10.8 10.5-16.5 2.3.8 1.5-1.5zm11 63 1.5 18.5 2 7 3 3-17.5 7.5-9 1q-6.9-6.6-4.5-22.5 2.2-1.2 1-6l1.5-1.5 5 1 8-2zm20 28 4.5 15.5v4l-2 3-1 13 4 16 1 10.5h-33.5q-1.1-.1-.5-5.5l-3-15 1-1v-23l2.5-4.5q16-4 27-13Z"/><path fill="#956b58" stroke="#956b58" d="m80.5 52 2.5.5-4 3L84 69l-15 6.5 2 3-1 5L73 97l-9.5-5-8-1-2.5 1-1-18.5 2.5-1.5q4.4 5.4 11.5 7l-1-5.5-6-11L71.5 56H76l1.5-3zm73 29q2.6-.7 1.5 2-6 1-9.5 6l-1.5-2.5zm-60 28 1 2zm-38 1 8 6 7 1 2-1q2.8 1.3.5 2.5l-1 17 1 3-8.5 5.5-7-2-2.5-2.5 1-25z"/><path fill="#956b58" stroke="#956b58" d="m46.5 113 1.5.5v11l-1 3.5q-4.1-1.7-3 2.5l-6 6-1 8 2.5 3.5 24 11 8.5 7.5q1.4 6.1 6.5 8.5l7 3 1-1h8l2 1 2-1 2 1 4-2 .5 1.5-1 3 1 1v7l2 11.5H48.5l-3.5-3.5-1-5 13-23-2.5 1.5-18 15h-4l-3.5-2.5-1.5-2.5-8-7-.5 3.5 2 4-1 3h2l5 11-3.5 5.5h-5l-7.5-5.5-1-3V130h11.5l2.5-1 3.5 5q6.3-5.2 9.5-13.5l-.5-1.5q1.5 2.5 3-1zm122 2 21.5 8.5v68l-2.5 4.5H184q1.5 3.7-1.5 3l-1 1H141l-1-11.5-4-15v-7l2.5-6.5q3.4.9 1.5-4.5l14-13q.6-6.9 4.5-10.5l4 1 11.5-10.5zm1.5 29-15 9q-5 2-2 4l-1 3h5l15-9q1-6-2-7Zm-20 16v1h2zm-58.5-43-.5 1.5-.5 5.5-.5-5.5zm1 28 1 2z"/></svg>