<svg xmlns="http://www.w3.org/2000/svg" width="200" height="200"><path stroke="#000" d="M107.5 26q6.5-1 7.5 3.5l3 4-5-4-1.5-2.5-5 1zm-2 3 .5 3.5h-1zm13 6 14 17 12-8v1l-12 8L120 38.5zm-14 4 .5 15.5h-1zm44 5L164 56.5l-4.5-3.5-11-8zm-52 9 6.5.5-6.5.5zm-16 1 13.5.5-13.5.5zm-3 1 1.5.5-2.5 1.5zm87 3 2 3zm-91 2-.5 1.5-.5 8.5-.5-8.5zm103 1q4.8-.7 5.5 2.5v7l-1.5 5.5-.5-4.5 1-1V63l-4.5-1-3 2 1-2zm-9 1 2.5 3.5-2-1zm-97 11 1.5.5-4.5 2.5 1-2zm-16 2L65 77.5l-2.5.5-8-2Q51 77 52 82.5l11 12-3.5 4.5-5.5-.5 6-.5 2-4.5-11-11v-4l1-2.5zm125 2 .5 3.5-1.5 3.5-.5-2.5zm-4 14 .5 2.5h-1zm-1 4 .5 3 5 1q1.8 2.4 1 8.5l-3.5 7.5-.5-1.5q4-3.5 3-12-1.3-3.5-6-2.5zm-133 2 11.5.5-11.5.5-2.5 2.5-1.5 4.5-.5-2.5zm-5 9 .5 12.5h-1zm140 10 .5 1.5-5 8 2 6-6 9.5-4.5 3 7.5-8.5 2-6-2-6zm-139 4 .5 4.5h-1zm1 6 .5 4.5h-1zm1 6 .5 4.5-2.5 1.5v-1H39zm-6 6 2.5.5-4.5 1.5v-1zm-4 2-1 2q-2.2-.7-1.5 1.5l-1 4 1 2h-1l-1-5 2.5-3.5zm133 5 .5 14.5h-1zm-135 6 2.5 5.5h-1zm3 7 .5 2-2-.5zm-20 1 1.5.5-3 2-1.5 2.5.5-1.5zm5 0 5.5.5-5.5.5zm7 1 5.5.5-5.5.5zm139 2 .5 7.5-1.5 7.5-.5-6.5zm-90 12-4 5zm3 0-1.5 2.5-1.5 2.5.5-1.5zm-72 1 .5 2.5H2zm157 3 .5 4.5h-1zm-158 1 .5 6.5 1.5 1.5 5-2-1 2-4 1q-4.4-1.9-2-9Zm18 1 1.5.5-8.5 3.5v-1zm47 0-.5 1.5-2.5 3.5.5-1.5zm4 0-1.5 2.5-1.5 2.5.5-1.5zm88 4 .5 4.5h-1zm-124 1 2.5.5-2.5.5zm4 1 2.5.5-2.5.5zm24 0-1 2zm4 0-.5 1.5-3.5 5.5.5-1.5zm-24 1 5.5.5-5.5.5zm115 3 .5 3.5h-1zm-96 4-.5 1.5-2.5 4.5.5-1.5zm95 1 .5 3.5-2 1z" opacity=".071"/><path stroke="#000" d="M0 0h200v200l-44-.5 6-30 1-25 3.5-3.5q2.3.8 1.5-1.5 5-3 6-10l-2-5 8-14 1-9-1-2.5-5-1q.5-10.1 5-17.5l2-10v-7q-.7-3.2-5.5-2.5l-7.5 4q-2.6-7.8-9.5-13l-10-8h-6l-11 8-21-26q-4.5-1-5.5 1.5-2.5 3.5-1 11l-1 1-.5 14.5q-1.5-2.5-7-1l-1 1h-15L74 58.5q-3.6 2.9-2 11l1 3.5-6 2.5-1.5 2.5q-4-3-11-3L52 76l-1 6.5 11 12-2 3.5-18.5-1-4.5 5.5-1 16 3 18.5q-8 .5-13 5.5l-1 5 5 11q-1.7 3.3-8.5 1.5l-1-1h-10q-8.8 9.2-9.5 26.5.5 3 4.5 2.5 6.1-5.4 16-7l21 7h19l11-14 1.5.5L57.5 200H.5l-.5-.5z" opacity="0"/><path fill="#10161c" stroke="#10161c" d="m111.5 35 1 2-1.5-.5-.5 18.5-.5-18.5zm3 4 1 2zm2 3 3 4zm4 5 4 5zm24 3-1 2zm-3 2-1 2zm9 0 3 4zm-25 1 3 4zm13 1-2.5 3.5 2 2 4 5-5-4-2-3zm18 3 2 3zm-81 1-.5 1.5-.5 1.5-.5-1.5zm54 0 3 4zm-34 1 7.5.5-7.5.5zm10 1q2.3.8 1.5 4.5h-1zm6 1 .5 9.5h-1zm-33 1 .5 9.5h-1zm82 0 1 2zm-25 3 3 4zm7 1 3 4zm32 3q2.3-.7 1.5 1.5zm-27 1 1 2zm15 0 1.5.5-5.5 3.5 1-2zm-12 2 4.5 2.5-1.5.5zm18 0-1 2zm-23 2 1 2zm20 0-1 2zm-87 1 .5 1.5-2 1zm27 1 1.5.5-3.5 2.5zm43 0 1 2zm14 0-1 2-2 1 1-2zm-51 2-1 2zm40 0 1 2zm-50 1-3 4zm7 1-1 2zm-34 1 3.5.5-3.5.5zm-15 1q2.3-.7 1.5 1.5l6.5 7.5zm22 0 4.5.5-4.5.5zm24 0-2 3zm-17 1 2.5.5-2.5.5zm8 0-1 2zm-21 3 3.5.5-3.5.5zm25 0-3 4zm-17 1 2.5.5-2.5.5zm46 1 2.5.5-2.5.5zm-37 1 3.5 1.5-2.5.5zm45 0 2.5.5-2.5.5zm-7 4 2.5.5-2.5.5zm-58 1 1 2zm66 0 2.5.5-2.5.5zm19 2 1 2zm-90 1 5.5 4.5-.5 1.5-4-5-2.5 1.5-4.5 5.5-5.5-.5q7.2.7 9-4zm81 0 4.5 2.5-1.5-.5q-3.8-.2-3-2Zm-29 1 1.5.5-12.5 6.5 1-2zm-43 1 3 4zm86 0 2.5.5-2.5.5zm-59 2-1 2-2 1 1-2zm53 0 6.5 3.5-.5 8.5-.5-9q-5.2.2-5.5-3Zm-107 2 3.5.5-3.5.5zm124 2q2.3-.7 1.5 1.5zm-131 1 .5 12.5h-1zm52 0-1 2zm-23 1 .5 1.5q-2 4.5-10.5 2.5v-1h8l1.5-1.5zm98 0-2 3zm-78 1-2 3zm9 0-1 2-2 1 1-2zm-44 3 2.5.5-2.5.5zm31 0-1 2zm8 0-2 3-3.5 2.5-1.5 3.5.5-1.5q-.5-5 3.5-5.5zm72 0 .5 3.5h-1zm-114 1 1.5.5-4 3-.5 3.5-.5-3.5zm118 1 .5 1.5-2 1zm-110 2 3.5.5-3.5.5zm10 0 4.5.5-4.5.5zm-15 1 1.5.5-2.5 1.5zm25 1 2.5 1.5-1.5-.5zm-25 2 7 8zm-13 3 .5 3.5h-1zm9 0 7 8zm13 5 1 2zm-21 1 .5 2.5h-1zm17 2 1 2zm3 2 6.5 3.5-1.5.5q-4.6-1.2-5-4Zm102 0-2 3zm-121 2 .5 2.5h-1zm37 0 4.5.5-4.5.5zm8 0 3.5.5-3.5.5zm-18 2 3.5 1.5-1.5.5zm23 0 2 3zm66 1-3 4zm-84 1 2.5.5-2.5.5zm-32 1 .5 1.5-2 1zm37 0 7.5.5-7.5.5zm74 2-1 2zm-124 4-1 2zm112 1 2.5.5-2.5.5zm-23 1 3.5.5-3.5.5zm35 0 .5 3.5h-1zm-124 1 1.5 3.5h-1zm95 0 2.5 1 2 3.5-1.5-.5-7 1v-1q5.8 2.1 4.5-2.5zm6 0 2.5.5-2.5.5zm-17 3 2.5.5-2.5.5zm22 1 5.5.5-5.5.5zm-53 4 .5 1.5-2.5 3.5.5-1.5zm71 0 .5 5.5h-1zm-120 7-1 2zm-18 2 2.5.5-2.5.5zm11 0 3.5.5-3.5.5zm51 1-.5 1.5-.5 1.5-.5-1.5zm75 0 .5 3.5h-1zm-86 2 1.5.5-8.5 7.5zm5 0 3.5.5-3.5.5zm10 1-1 2zm-2 3-.5 1.5-1.5 2.5.5-1.5zm-64 2 1.5.5-3.5 1.5v-1zm136 0 .5 2.5h-1zm-141 2 1.5.5-3.5 1.5v-1zm48 1-1.5 2.5-2.5 3.5 1.5-2.5zm18 0-1 2zm-45 2 2.5.5-2.5.5zm4 1 2.5.5-2.5.5zm39 0-1 2zm-34 1 2.5.5-2.5.5zm110 0 .5 2.5h-1zm-103 1 4.5.5-4.5.5zm25 1-2 3zm77 4 .5 2.5h-1zm-81 2-1 2zm-2 3-1 2zm-3 5-.5 1.5-.5 1.5-.5-1.5z" opacity=".996"/><path fill="#5f87af" stroke="#5f87af" d="m111.5 36 1 2zm11 14 2 3zm4 5 2 3zm-15 1 .5 2.5h-1zm45 2 2 3zm-59 2 4.5.5-4.5.5zm33 0 4 5zm-24 7 .5 4.5h-1zm31 1 1 2zm36 2q2.3-.7 1.5 1.5zm-34 1 1 2zm-27 3 .5 3.5h-1zm-38 5 1 2zm35 1-1 2zm-3 2-1 2zm-42 4 3 4zm37 0-2 3zm32 2 2.5.5-2.5.5zm-56 11 2 3zm95 7 1 2zm-129 1 .5 2.5h-1zm43 4-1 2zm-43 4 .5 2.5h-1zm46 4-1 2-2.5-.5zm-26 6 1 2zm103 6-1 2zm-72 3 1 2zm-48 3 .5 2.5h-1zm112 2-1 2zm-40 13 2.5.5-2.5.5zm18 1 2.5.5-2.5.5zm19 10 .5 2.5h-1zm-1 8 .5 2.5h-1zm-71 1-1 2zm-6 9-1 2zm-2 3-1 2z"/><path fill="#9ccfec" stroke="#9ccfec" d="m113.5 40 1 2zm3 4 1 2zm4 4 1 2zm-8 10 .5 3.5h-1zm-33 11 .5 2.5h-1zm94 2 .5 5.5h-1zm-19 10 2.5.5-1 2.5q-3.5 1.1-1.5-3Zm6 24 1 2zm-64 7-1 2zm-39 7 4 5zm33 0-1 2zm-46 4 .5 2.5h-1zm2 17-1 2zm87 7 2.5.5-2.5.5zm20 6-4 5zm-14 13-4 5zm-10 9-2 3zm-8 7-2 3zm-5 4-2 3zm-4 3-1 2z"/><path fill="#9bd6fa" stroke="#9bd6fa" d="m112.5 39 9.5 12.5 7 23 3.5 5.5 17 8 4-5 2.5 1 1.5-3 15-9 .5 3.5-8 10q-2.8 2.7-2 9l2.5 3.5h-3q-8.8-6.7-21-10l-12-1-27 13-18 12-6.5-2 1.5-3q3.4.9 1.5-4.5l-.5-2.5q-3.3 1.1-2.5-1.5L68.5 88h3l4 3 20 6L115 79.5l-2-2z"/><path fill="#9bd6fa" stroke="#9bd6fa" d="M129.5 95h7l8 2 16.5 9.5-2 .5 1 8.5-3 9-4.5 4.5-9 4-27 2-10-3-6.5-5.5-2-6.5-9.5 2v-1l2.5-1.5q-1.5-4.4 1.5-3.5l8-6zm2.5 6-17 9 7 1h17l12-6-9-4zm17 9-2 1-5 5-2 8q1 3 8 2 6-3 6-13-1-4-5-3Zm-37 3-7 4v4l3 5q4 3 14 2 1-7-3-10-2-5-7-5Z"/><path stroke="#000" d="m109.5 27 3.5 2.5L131.5 53l13-8h4L164 58.5l4 6V67l7.5-4h4.5l1 5.5-8 31q5.5-.5 7 3-1.6 13.4-9 21v4l1 5-10 11v13l-1 1-1 16-5 26.5-5-.5 3-10 2-19 1-1 1-22-1.5.5-10 4-13 1-2.5-4 2.5-1 3 1q3.6-2.9 11-2l9-4 11.5-10.5v-5l-4-12v-11l-1.5-1.5-21-9-10-1-32 16-9.5 7.5-1.5 3.5q-8.4-7.1-26-5l-6.5 2.5 8.5 9.5 15 7 16.5 1 2.5 4 12 6 12 3h5l1.5 1.5-.5 2.5h-8l-9-2-14.5-6-11 24.5Q73.3 183.1 65 200h-5v-1.5l15-23V173q-6.4-1-8 4.5l-6.5 9.5-7 1-1-1h-7l-10-2-13-5h-5l-11 6h-3L2 182.5l1-3q1.4-12.6 8.5-19.5l19 1q2.8-1.2.5-2.5l-4-10v-5q5.4-4.8 14-5.5l-3-15.5v-19l4.5-5.5h7l10 2 4.5-6.5-11-11-1-3 1-2.5h6.5l7 2 3-4 4.5-1V61.5l2-4.5 6.5-2H106V30.5l1-2.5zm2.5 8-2 2v18l1 1 1 22-15 12-11-3-12-1-13-4-2 1 10 8 11 14-3 1-1 5 9 3 11-8 33-17h8l12 3 14 8h4l7-19 2-12-7 3-12 8h-3q-6-6-14-8l-1-3zm33 15-10 8 7 9 12 8h3l7-4v-3l-5-8-11-10zm-49 9-1 1H81l-3 3v9l1 1-1 4-4 2q-3-1-2 2l3 1 13 1 5 2h3l10-8h1V62q-3-4-11-3ZM68 97l-6 7-19-1-1 4v12l4 19-1 3-14 6 5 10 1 6-2 2q-5-1-6 1-7 2-8-1-7-1-9 1l-4 10v3l13-5 18 7 19 2 4-6 10-9 8 1 12-24v-5l-2-1-13-1-16-8-9-8-1-6q5-7 19-5 4-2 3-9zm106 8-7 5q-1 4 1 6-1 3 2 2l5-11q1-3-1-2Z" opacity=".996"/><path fill="#d3fdfe" stroke="#d3fdfe" d="M146 51h1.5L159 62.5q-.5 4-5.5 3.5l-7.5-3zM80 62q4.7-1 6 2.5l1 2-1 2.5-5.5 3zm24.5 3 1.5 1.5v8l-2-1q1.5-5.5-1-7zm37 9 12.5 7.5-4.5 5.5-12.5-5.5 2-.5zm-28 5-9 10 5.5-6.5-.5-1.5zm54 4-1 2zm-103 2 6.5 2.5-3.5.5zm34 8-2 3zm34 8h6l11.5 3.5-13.5 6.5h-8l-1-1H117q-1.1-2.7 1.5-2zm39 7 .5 2.5-2.5 4.5-.5-6zm-18 4 .5 3.5h-1zm-47 3-1 2zm-11 5q2.3-.7 1.5 1.5l8.5 10.5q8.3 5.2 24 3l9-2 3 1q11.1-2.4 16.5-10.5l.5-2.5 2.5 9.5-5.5 10.5-8 4-10 2h-10l-16-3-14.5-7-2.5-4h-14q-12.8-3.2-20.5-11.5l3.5-.5 1 1q12.1-1.6 20 1zm12 3 3 4zm42 0-2 3zm-103 6 5.5 13.5-17.5 6.5-1.5-3 9.5-2 4.5-3.5zm95 36-2 3zm-10 9-1 2zm21 2 .5 2.5-4 21.5-22-.5 25-22zm-29 5-1 2zm-6 5-1 2z"/><path fill="#c2e7f0" stroke="#c2e7f0" d="m121.5 50 3 4-1.5-.5-.5 1.5-.5-1.5 1-1zm30 4 7 8zm-24 3 1 2zm-46 4 2.5.5-2.5.5zm50 1 4 5zm-52 1 .5 5.5h-1zm58 6 1 2zm-24 9 1.5 1.5-4.5 4.5zm55 3-1 2zm-61 1-1 2zm46 0-1 2zm-50 3-1 2zm-33 1 2.5.5-2.5.5zm80 0-1 2-1.5-.5zm-75 1 3.5.5-3.5.5zm7 1 3.5.5-3.5.5zm21 1-3 4zm-10 2 2.5.5-2.5.5zm70 3 1 2zm-24 7 2.5.5-2.5.5zm9 2 2.5 1.5-1.5-.5zm11 4 .5 2.5h-1zm2 0 .5 6.5h-1zm-45 1 .5 2-2-.5zm5 2 6.5.5-6.5.5zm47 0 .5 2.5h-1zm-22 1-1 2zm-31 3 3 4zm28 0-1 2zm-82 2 5.5.5-5.5.5zm7 0 7.5.5-7.5.5zm83 5-1 2zm-88 3 1 2zm-18 1 1.5 3.5-2 1zm59 5 1 2zm-20 3 7.5.5-7.5.5zm9 0 3.5 2.5-2.5-1.5zm46 0 2.5.5-2.5.5zm25 0-4 5zm-51 1 2.5.5-2.5.5zm12 0 4.5.5-4.5.5zm-73 8-1 2zm65 3 2.5.5-2.5.5zm6 1 3.5.5-3.5.5zm32 9 .5 6.5h-1zm-8 4-5 6zm7 7 .5 3.5h-1zm-21 6-1 2zm20 2 .5 2.5h-1zm-28 5-1 2zm27 0 .5 2.5h-1z"/><path fill="#fefefe" stroke="#fefefe" d="M123.5 53 137 68.5l2 4.5q2.7-1.1 2 1.5l-2 6.5q-5.3.6-8-3.5zm49 23 .5 1.5-5 17-1.5 1.5-3.5-2.5 1-5zm-64 6 1.5.5q-5.7 9.3-16.5 13.5l-3-2-13-3-6.5-3.5 3.5-.5 1 1 12 1 8 3zm52 25q.8 13.7 6.5 22.5l-9.5 10.5-.5-1.5q3.7-3.8 4-11l-2-7 1-1zm-12 4q7.2-2.3 4.5 5.5-1.5 6.5-6.5 9.5l-5.5-1 1-7.5 4.5-5.5zm-38 3q6.4.1 8.5 4.5l3 8.5-7.5 1q-6.1-1.4-8.5-6.5l-1-4zm-43 2 1 1h9l8.5 4.5q-.7 2.3-4.5 1.5l-1-1h-16l-5-1-2.5-2.5 1.5-1.5h8zm87 37q2.3-.7 1.5 1.5l-1 1-1 18-4.5 6.5-23 20h-28v-1l18-11z"/><path fill="#5b9be4" stroke="#5b9be4" d="M144.5 51q2.6-.8 1.5 2.5l-1 3 1 4q-.5 3-4.5 2.5l-4.5-5.5zm-60 10h20l.5 1.5.5 1.5q-3.7-1.2-2.5 2.5l-1.5-.5-7.5 1q1.9 8.7-2.5 12l-15 2-1-2 3.5-1.5 1-5.5 7-3v-4.5zm75 1q4.1 2.7 3.5 8l-5 2-2-5.5zm-56 9 .5 2.5h-1zM44 104l16.5 2 3-2q2.3.8 1.5 4.5l-1.5 1.5-9 1-4.5 3.5v6l8.5 9.5 3.5 2.5 5 13-14.5 7.5-3.5 3.5 4 10v4l-3.5 2.5q-4.8-1.3-6 1-1.3-2.3-6-1l-10 3-5-3h-3l-10 4 .5-1.5 4.5-9.5 16 1 5-1 2.5-2.5v-5l-4-8 2.5-.5 17.5-6.5-10-22q1.5-5.5-1-7l1-2-1-2zm79.5 49 4.5.5-4.5.5zm16 0 3.5.5-3.5.5z"/><path fill="#446eba" stroke="#446eba" d="m118.5 45 1 2zm24 7-2 3-4 3 3-4zm12 4 1 2zm-71 4 13.5.5-13.5.5zm19 0 3.5 1.5-1.5-.5q-3 .5-2-1Zm36 0q.5 3.5 5 3l2.5-1.5q-1.1 3.3 1.5 2.5l9.5 4.5 2 4-3.5 2.5q-8.4-3.1-13.5-9.5zm22 3 1 2zm-62 3q3.8-.7 4.5 1.5-1.2 6.7 2 9L94.5 85l-4-2L78 81.5l7.5-2.5h6l1.5-1.5L94 67zm63 4-1 2zm-88 9 1 2q-2.8.7-1-2Zm-5 11 3 4zm6 6 2 3zm-7 2 4.5 3.5 1 2-3.5 6.5-5.5-.5 1-4-3-1zm-23 5 4.5.5-4.5.5zm8 1 3.5.5-3.5.5zm6 6 2.5.5-2.5.5zm-6 2-2 3zm13 3 5.5.5-5.5.5zm-22 3 .5 3.5h-1zm9 5 5 6zm8 7 5 4 9 4 8 2h8l1.5 1.5L78.5 169l-1-1h-8l-13 15-15-2-14.5-4.5 10.5-3.5h7q6.5 1 8.5-2.5v-4l-4-10 3.5-3.5 14.5-7.5zm27 4 2.5.5-2.5.5zm76 1-1 2zm-66 9-1 2zm-63 7 1.5 3.5h-1zm122 0 .5 4.5h-1zm-23 2 2.5.5-2.5.5z" opacity=".996"/><path fill="#446eba" stroke="#446eba" d="m37.5 159 .5 4.5-2 1zm-22 6 2.5.5-2.5.5zm-2 1-1 2zm8 0 8.5.5-8.5.5z" opacity=".996"/><path fill="#7fb1e4" stroke="#7fb1e4" d="m111.5 37 2 3-1.5-.5-.5 16.5zm4 5 1 2zm3 4 1 2zm27 8 .5 2.5h-1zm-33 8 .5 11.5h-1zm-27 1 1 2zm73 0-3 4zm12 9-1 2zm-108 12 1 2zm74 4 3.5.5-3.5.5zm-68 1 8 9zm62 5 4.5.5-4.5.5zm-50 11-1 2zm11 2-1 2zm-3 2-1 2zm6 4-1 2zm-3 2-.5 1.5-.5 2.5-.5-2.5zm6 30 15 7 15 2 3-1 1 1h11l13.5-4-1.5 3-32 29-24 17-2 1h-30l.5-1.5 20-31z"/><path stroke="#000" d="m107.5 27 1.5.5-2 .5-.5 2-.5-1.5zm3 0 2.5 1.5-1.5-.5zm3 3 4 5zm-8 3 .5 21.5h-1zm13 3 1 2zm2 3 3 4zm4 5 3 4zm21 0 2.5.5-2.5.5zm-4 2-1 2zm11 1 5 6zm-14 1-1 2zm-9 2 2 3zm6 0-1 2zm24 3 4 5zm-65 1 9.5.5-9.5.5zm-15 1 2.5.5-2.5.5zm85 4 2 3zm-91 2 .5 10.5h-1zm103 1 2.5.5-2.5.5zm-4 2-1 2-3.5 1 .5-2h2zm7 10 .5 2.5h-1zm-111 1-.5 1.5-.5 1.5-.5-1.5zm-14 1 3.5.5-3.5.5zm-2 5L64 93.5l-12-11zm10 14-1 2zm-21 3-2 3zm9 0 3.5.5-3.5.5zm10 0-1 2-1.5-.5zm113 1q5.5-1 6.5 2.5l-2.5-1.5q-5 1-4-1Zm-136 6 .5 14.5h-1zm138 12-1 2zm-2 3-1 2zm-135 3 .5 2.5h-1zm1 6 .5 2.5h-1zm133 0 .5 2.5h-1zm-132 6 .5 3-2-.5zm130 0-7.5 8.5-.5 1.5-.5-1.5zm-140 5 1.5.5-2.5 1.5zm-4 4 .5 3.5h-1zm135 13 .5 4.5h-1zm-149 2 2.5.5-2.5.5zm19 0-1 2-2.5-.5zm-21 1-1 2zm9 0 2.5.5-2.5.5zm-11 3-.5 1.5-2.5 5.5-.5-1.5zm152 3 .5 3.5h-1zm-90 8-3 4zm89 0 .5 3.5h-1zm-85 1-1 2zm-2 3-1 2zm-6 1-2 3zm4 2-1 2zm88 0 .5 2.5h-1zm-146 1 1.5.5-6.5 3.5 1-2zm56 2-1 2zm-66 1 3.5 1.5-2.5.5zm60 0-2 3-5.5-.5q5.8.8 7.5-2.5Zm-21 1 3.5.5-3.5.5zm7 1 4.5.5-4.5.5zm109 0 .5 2.5h-1zm-92 2-1 2zm-2 3-.5 1.5-1.5 2.5.5-1.5zm93 0 .5 2.5h-1z" opacity=".678"/></svg>