<svg xmlns="http://www.w3.org/2000/svg" width="200" height="200"><path stroke="#000" d="M0 0h200v200h-14.5l-.5-3.5q-3.6-1.9-3-8 5.3-2.2 4-11l-4-17q-3.8-10.7-12.5-16.5l-12.5-4.5-4-6 8-12 7-19 3-17v-7l1-1v-17l-3-17-4.5-4.5-9-2h-16l-1 1h-9L118 40q.8-4.7-3.5-6l-7-1-19 4-21 9Q51.4 55.4 40 69.5l-16 26-5 14-2 15 3 16L30.5 153l3 2q7.2 7.8 18.5 11.5-10.2 14.6-15 33.5H.5l-.5-.5z" opacity="0"/><path stroke="#000" d="m103.5 34 2.5.5-2.5.5zm12 1 1 2zm17 3 4.5.5-4.5.5zm24 0 2.5.5-2.5.5zm-100 16-1 2zm114 1 .5 2.5h-1zm-120 4-4 5zm121 7 .5 5.5h-1zm-130 3-2 3zm-4 5-1 2zm133 5 .5 2.5h-1zm-1 8 .5 2.5h-1zm-151 29 .5 2.5h-1zm0 11 .5 3.5h-1zm137 2-1 2zm-2 6 1 2zm-130 9 3 4zm148 2 3 4zm-139 7 2 3zm5 4 1 2zm146 29-1 2z" opacity=".153"/><path stroke="#000" d="m53.5 56-2 3zm118 6 .5 3.5h-1zm-126 2-3 4zm126 8 .5 3.5h-1zm4 78 1 2z" opacity=".078"/><path stroke="#000" d="M102.5 35h11l2.5 2.5 1 4.5 14.5-3h28q5.8 1.3 8.5 5.5l2 10v8l1 1v11l-1 1-1 15-3 14-5 14-9 14v2l5.5 7.5q11.1.9 16.5 7.5l7 12 3 12v11l-4 4v2q4 3.3 4 9.5h-5v-2.5l-4.5-6.5-18 1q-11 2.5-19 8H132l1.5-3 11-6 13-4 16-1 6.5-4.5-4-20-8.5-11.5-7-3-16-1-24 7q-10.6 3.4-16.5 11.5l-3 6v16l5 13.5q-4.7 1-6-2.5l-3-7v-5l-1.5-1.5-21 16h-7v-1L96 177.5q1.1-16.9 12.5-23.5l21-9 12-3h9.5l-4.5-6-20 5q-11 6-25 9l-37 14-7.5 5.5q-8.9 14-14 30.5h-5v-1.5q6.3-18.2 16-33-18.3-6.2-29-20l-5-10-1-5v-15q10-39 37.5-60.5 17.9-15.1 46-20Zm5.5 4-27 7q-14 6-24 15-14 12-23 28l-6 13-5 19 2 17 2 3q11 15 32 21l57-21 12-18 5-14q1-6-1-8l-16-5-3-2-1-53q-1-3-4-2Zm24 5-10 2-5 3v30l1 1v12q13 1 20 9v6l-3 12-10 17 1 1 22-7 5-6 7-16 3-11 2-21 1-1-1-20-2-8-3-3z" opacity=".988"/><path stroke="#000" d="m64.5 97 3.5 2.5 2 4 1 11q-2.1 9.9-9.5 14.5l-11 5h-13l-6.5-4.5v-3l3-6L46.5 108q7.2-7.3 18-11Zm-.5 5-17 12q-8 4-11 14l4 2h9l11-5 6-9q2-10-2-14Z" opacity=".988"/><path fill="#826f4d" stroke="#826f4d" d="m110.5 40 1 2zm-63 31-1 2zm65 23 1 2zm-45 3 1 2zm-15 5-1 2zm-4 3-1 2zm23 4 .5 4.5h-1zm-29 1-2 3zm-12 17 .5 2.5h-1zm130 58 4.5.5-4.5.5zm-66 1 2.5 4.5-4 3-5.5 6.5-10.5-.5zm61 0 2.5.5-2.5.5zm-20 8-1 2z"/><path fill="#b2a26a" stroke="#b2a26a" d="m106.5 40 2.5.5-2.5.5zm0 2q2.6-.7 1.5 2l-4-.5zm5 47 .5 4.5h-1zm1 6 1 2zm-42 5q2.3-.7 1.5 1.5zm-19 2-1 2zm-9 7-6 7zm16 2 1 2h-2l-2 1 1-2zm-6 4-5 6zm-28 4 .5 2.5h-1zm33 1-1 2zm-12 3v2l3.5.5-3.5.5q-3-1.5 0-3Zm22 1-1 2zm-4 4-1 2zm-32 3 1 2zm13 4 2.5.5-2.5.5zm-15 6 2 3zm7 7 2 3zm131 3 2 3zm-121 1q2.3-.7 1.5 1.5zm63 8-2 3zm-8 14 .5 3.5h-1zm-8 20-1 2z"/><path fill="#3c362c" stroke="#3c362c" d="m134.5 44 2.5.5-2.5.5zm-7 1 2.5.5-2.5.5zm33 0 2.5 1.5-1.5-.5zm-38 1 1.5.5-1 2 3.5 6.5 12-3 24-3 1.5 1.5 1 16-3 6-5 25-4.5 4.5q-2.2-.7-1.5 1.5l-13 28 .5 1.5-12.5 3 10-18.5 3-16-2.5-3.5-18.5-7.5v-31q-2.5-1.5-1-7l2.5-5.5zm42 29 .5 4.5h-1zm-52 5 .5 5.5h-1zm51 4 .5 3.5h-1zm-109 17-1 2zm9 2q3.3 3.2 2.5 10.5-1.8 7.6-7.5 11.5-6.3 5.7-20 4l-2.5-1.5L48.5 113zm-5.5 8-5 3-9 10v2q7 1 11-2l5-5 1-4-1-2q1-3-2-2Zm-12.5-3-2 3zm-10 10-1 2zm117 4-1 2zm-8 14 3.5 1.5-1.5-.5q-3 .5-2-1Zm-115 6 1 2zm7 7 1 2zm75 2-1 2zm-6 4-3 4zm-24 3 1.5.5-3.5 1.5v-1zm27 2-1 2zm-8 1-1 2zm-41 6-1 2zm36 5 .5 4.5h-1zm-2 6-1 2zm-3 2-1 2zm-4 3-1 2zm-3 2-2 3zm84 0 5.5.5-5.5.5zm-88 3-3 4zm6 3-1 2zm80 0 6.5.5-3 2-2.5 6.5-26.5-.5 8.5-4.5zm9 0 1 2zm-100 1-3 4zm2 6-1 2z"/><path fill="#554e3d" stroke="#554e3d" d="M137.5 44h18l7.5 3.5q.8 2.3-1.5 1.5l-1 1-22 2-12 3-3.5-7.5 1.5-1.5 12-1zm27 23 .5 7.5-1 1-1 16-4 16-6 14-5.5 7.5-9.5 3 13-30 6-4.5 5-25zm-52 23 .5 3.5h-1zm-73 23-2 3zm13 1-5 6zm-21 30 4 5zm70 37 .5 3.5h-1zm-10 6-1 2zm-4 3-1 2zm85 1 3.5 2.5 2 6.5-11-.5 3.5-7.5zm-89 2-1 2zm-4 3-2 3zm54 0-2 3z"/><path fill="#1b1611" stroke="#1b1611" d="m107.5 39 3.5.5-3.5.5zm24 5 2.5.5-2.5.5zm-13 3-.5 1.5-.5 3.5-.5-3.5zm46 7 .5 3.5h-1zm-103 3-1 2zm56 2 .5 19.5h-1zm-61 2-9 10zm109 4 .5 9.5h-1zm-53 7 .5 7.5h-1zm-69 3-1 2zm121 5 .5 2.5h-1zm-52 6 .5 2.5h-1zm-77 1-1 2zm128 1 .5 2.5h-1zm-50 6 1 2zm49 0 .5 2.5h-1zm-26 4 1 2zm-80 2-1 2zm82 1 .5 3.5h-1zm-75 1 1.5 2.5h-1l-.5-1.5-2 1v-1zm-4 2-1 2zm-11 2-1 2zm8 0-3 4-4 3 3-4zm81 1 .5 3.5h-1zm-95 4-6 7zm94 1 .5 2.5h-1zm-90 2-7.5 8.5-2.5 4.5-.5-1.5zm18 3 .5 1.5-2 1zm-41 3 .5 4.5h-1zm39 1-3 4zm90 2-1 2zm-95 2-1 2-1.5-.5zm8 0-2 3zm66 0-.5 1.5-1.5 2.5.5-1.5zm19 1-1 2zm-26 1-1 2zm-85 2 9.5.5-9.5.5zm89 1-.5 1.5-1.5 2.5.5-1.5zm-89 4 8.5.5-8.5.5zm92 0 2.5.5-2.5.5zm-12 1-1 2zm-2 3-2 3zm31 0 2.5 4-6-.5 5-1zm-121 2 1 2zm117 6 5.5.5-5.5.5zm7 0 3.5.5-3.5.5zm-39 5 1.5.5-2.5 1.5zm57 1 2 3zm-62 2-6 7zm3 4-1 2zm-10 4-1 2zm6 0-2 3zm-52 13-1 2zm41 2-1 2zm84 1 .5 3.5h-1zm-88 2-1 2zm-3 2-2 3zm6 2-1 2zm-10 1-1 2zm12 0 .5 2.5h-1zm-6 2-1 2zm-10 1-2 3zm7 1-1 2zm74 2 3.5.5-3.5.5zm-86 1-2 3zm8 0-2 3zm73 0 2.5.5-2.5.5zm-86 4-2 3zm8 0-1 2zm66 0 1.5.5-7.5 3.5v-1z"/><path fill="#b3a071" stroke="#b3a071" d="m107.5 41 3.5.5v52l3 6-1 4.5h18.5l.5 1.5-1 5-3.5 4.5q-12 7-21 17-4-3.7-10.5-4 .9 7.1-2.5 11l-7.5.5 2 4-2.5 2.5-16 7-5 5-7 2-6.5-2.5.5-1.5q-7.1-.8-9.5-6.5l-3-10 1.5-1.5 13-1 14.5-8.5 6-13v-5l-2-7.5q-2.7 1.1-2-1.5h2q.8-2.2-1.5-1.5L69 97q-2.1-1.6-7.5-1-14.8 7.7-25.5 19.5l-2.5 3.5-.5-2.5q2.7-2.3 2-8l6-10L60.5 76l5.5.5q-2.7 2.3-2 8l2.5 1.5 6-2 2.5-2.5-2-9 5-6q-2.6-1.4-2-6l5.5-6.5 4 3h3q5-5.1 12.5-6l-2-4.5 4.5-3.5 4.5 1zM96 61l-3 5 4 1 2-4zm-8 13-6 7q-2 6 6 3l4-7q0-3-4-3Zm-41 78 1 2q1-3-1-2Zm14.5-94-1 2zm-6 5-5 6z"/><path fill="#b3a071" stroke="#b3a071" d="m39.5 135 4.5.5-4.5.5zm-7 9 3 4zm113 3 4.5.5-4.5.5zm6 0 2.5.5-2.5.5zm-4 3h4l10.5 4.5q-1.1 3.3 1.5 2.5 1.3 2.3 6 1l2.5-1.5 3 7 3 15.5h-21.5l-4 1q-18.2 5.3-30 17l5-7-4.5-1q.4-6.2 5-9.5-4.2-4-11-4.5l2-9q4.5 1.7 12.5 1l2.5-1q1-6.2-2-9.5zm-1.5 6-5 2q-3 1-2 6l3 1h4l5-5-1-2q1-4-4-2Zm-8 12-3 1 2 3q4 2 3-2zm-42.5 24 4.5 7.5-10 .5z"/><path fill="#958869" stroke="#958869" d="m111.5 42 .5 8.5h-1zm0 16 .5 25.5h-1zm-54 3-1 2zm-8 8-1 2zm62 16 .5 3.5h-1zm-66 22-2 3zm85 4 .5 1.5q-6.1 15.9-16.5 27.5l-48 17-2 2 5-6 16-7 2.5-2.5-2-4 7.5-.5 1.5-1.5 1-9.5q6.5.3 10.5 4l23.5-19.5zm-95 6-2 3zm30 9-1 2zm111 42 .5 2.5h-1zm2 9 .5 2.5-1 3.5-5.5 2-17 1q-14.5 3.7-24.5 11l-1.5 3h-7l-.5-2.5q11.9-12.1 30.5-17.5l4-1H178zm-83 14 1.5.5-3.5 2.5zm-4 5-3 4z"/><path stroke="#000" d="m106.5 34 6.5.5-6.5.5zm8 1 2.5 3.5h-1zm23 3 18.5.5-18.5.5zm-9 1 2.5.5-2.5.5zm35 1 4.5 3.5-3.5-2.5zm-46 1 2.5.5-2.5.5zm-52 7-1 2zm-3 2-1 2zm107 0 .5 3.5h-1zm-110 2-2 3zm-5 4-12 13zm116 2 .5 4.5h-1zm-130 13-2 3zm130 4 .5 3.5h-1zm-134 1-1 2zm-2 3-1 2zm135 4 .5 3.5h-1zm-138 1-1 2zm137 7 .5 2.5h-1zm-150 28 .5 7.5h-1zm138 8-1 2zm-137 4 .5 2.5h-1zm134 0-1 2zm-133 5 .5 2.5h-1zm134 1 1 2zm2 3 1 2zm-134 2 2 3zm147 3 2 3zm-142 3 4 5zm147 2 2 3zm-140 4 2 3zm143 0 2.5 4.5h-1zm-138 4 1 2zm3 2 3.5 2.5-1.5-.5zm9 9-.5 1.5-1.5 2.5.5-1.5zm133 7 .5 7.5h-1zm-1 9-2.5 3.5 1 3-2-1q-.5-5 3.5-5.5Z" opacity=".431"/><path stroke="#000" d="m139.5 37 16.5.5-16.5.5zm-80 14-1 2zm111 0 .5 2.5h-1zm-129 17-1 2zm-24 52 .5 4.5h-1zm138 10-1 2zm-130 17 5 6zm14 12 1 2zm146 18 .5 2.5h-1zm0 4 .5 2.5h-1z" opacity=".031"/><path fill="#79373b" stroke="#79373b" d="M143.5 137q4.8-.7 5.5 2.5.6 2.8-5.5 1.5l-11 2-19 7-11.5 8.5q-7.3 6.5-7 19.5-16.3 8.8-29.5 22H44l8-20.5 8.5-12.5 63-24 10-2z"/><path fill="#efdf89" stroke="#efdf89" d="m103.5 41 3.5.5-8 5 2 4.5q-7.5.9-12.5 6h-3l-4-3q-5.3 2.3-5.5 9.5l2 4-5 5v3l2 6-2.5 2.5-7 2Q63 85 64 80.5l2-4-5.5-.5L37 104.5l-2 4-2 12-3 5v5q4.9 7.2 18.5 5.5 12.9-2.6 19.5-11.5l4-9v-9l-1-3h1l2 7v5l-6 13-2.5 2.5-12 6-13 1-1.5 1.5 3 10 5.5 5.5 3.5 2.5-1.5-.5Q36 151 28 139.5l-3-6-1-9 3-17 9-20Q45.4 71.4 59.5 60q17-14.5 44-19Z"/><path fill="#efdf89" stroke="#efdf89" d="m95.5 61 3.5 1.5-2.5 4.5-3.5-1.5zm-8 13q4-.5 4.5 2.5L87.5 84q-7.3 2.6-5.5-3.5zM114 97l17 5-.5 2H113zm-55.5 15 1.5 3.5-5.5 7.5q-2.7 2.8-9 2l.5-1.5 8.5-9.5zm92 35 1 1 11 1 8.5 6.5-1.5 2.5q-5.4.6-7.5-1l-1.5-4h-3l-6-3h-4l-15.5 6.5q3 3.3 2 9.5-3 2-10.5 1l-4.5-1-2 9q6.8.5 11 4.5-4.6 3.3-5 9.5l5 1.5q-6.1 3-7 9.5h-12.5l-2.5-2.5-4-11v-15q2.9-8.1 9.5-12.5l21-9 8-2h9z"/><path fill="#efdf89" stroke="#efdf89" d="M145.5 156q5.4-1.9 4.5 1.5l1 2-5.5 5.5h-4l-2.5-1q-1.2-4.6 1.5-6zm-8 12 2.5 1.5q1.3 4.2-3.5 2.5l-1.5-3z"/></svg>