<svg xmlns="http://www.w3.org/2000/svg" width="200" height="200"><path stroke="#000" d="M0 0h200v200h-28.5l-.5-2.5-8-21-13-22.5q20-2.2 30-15.5l7-15q-1.2-4.8 1-6v-18Q184.5 87 176.5 79l-9.5-7.5v-9l-3-14q-1.2-6.7-5.5-10.5-22.9 3.1-35 17h-34l-1 1h-8l-4-5-15-10-6-3h-5L42 47.5q-6.3 8.2-7 22L30.5 74 24 79.5l-10 18-1 11-1 1v17q2.6 13.9 11.5 21.5l15 9 6.5 1v2.5l-8 14-5 17-1 8.5H.5l-.5-.5z" opacity="0"/><path stroke="#000" d="M50.5 38q6.9-.9 9.5 2.5l-1.5.5q-2-3-8-2L44 44.5zm108 0 1 2zm-8 1 2.5.5-4.5 1.5v-1zm10 2 1.5 2.5h-1zm-18 1 1.5.5-10.5 5.5 1-2zm-77 1 1 2zm3 2 3 4zm-25 1-1 2zm88 2-2 3zm32 0 .5 2.5h-1zm-90 1 1 2zm3 2 2 3zm51 0-4 5-6.5-.5q8.5 1 10.5-4.5Zm37 1 .5 2.5h-1zm-126 3 .5 1.5-1.5 2.5-.5-1.5zm41 0 4.5 1.5-3.5.5zm10 0 4.5.5-4.5.5zm76 2 .5 2.5h-1zm-129 4 .5 3.5h-1zm130 1 .5 5.5h-1zm-131 5 .5 2.5-5 4q4.1-1.4 4.5-6.5Zm132 5 7.5 6.5-3.5-2.5-4.5-2zm-138 2-5 6zm147 5 2 3zm-153 2L22 83.5 20.5 86l.5-1.5zm156 2 1 2zm2 3 4.5 8.5h-1zm-162 1-.5 1.5-3.5 7.5-.5-1.5zm-5 10 .5 2.5h-1zm173 2 .5 2.5h-1zm-174 3 .5 2.5h-1zm-1 7 .5 2.5h-1zm174 11 .5 3.5h-1zm-174 4 .5 2.5h-1zm173 1 .5 2.5-1.5 2.5-.5-1.5zm-2 6-.5 1.5-1.5 2.5.5-1.5zm-168 4 6.5 9.5-4-3-3-5zm165 1-.5 1.5-6.5 7.5 5.5-6.5zm-9 9-1 2zm-149 1 1 2zm146 1-1 2-4 2 1-2zm-143 1 2 3zm4 3 10.5 5.5-1.5.5-8-4zm123 2 2.5.5-2.5.5zm-4 1q2.3-.7 1.5 1.5l.5 1.5zM45 158l2 .5-2.5 3.5.5-1.5zm106.5 0 3.5 4.5-2-1zm-108 5-.5 1.5-1.5 2.5.5-1.5zm112 1 1 2zm3 5 4.5 8.5h-1zm-120 3 .5 1.5-1.5 2.5-.5-1.5zm126 9 1.5 3.5h-1zm-130 2 .5 2.5h-1zm-1 4 .5 2.5h-1zm-1 4 .5 2.5h-1zm-1 5 .5 2.5h-1z" opacity=".439"/><path fill="#79554d" stroke="#79554d" d="m52.5 44 2.5.5q-5.1.4-6.5 4.5zm102 0 2.5 1.5-1.5-.5zm-90 5 3 4zm71 3-1 2zm-66 1 1 2zm62 2-5 6zm-56 4 2 3zm29 1 9.5.5-9.5.5zm-17 1 2.5.5-2.5.5zm34 0 3.5.5-3.5.5zm40 9q-.8 6.3 3 8 7.5 3 11.5 9.5l-7.5-6.5-7.5-5.5zm-121 1 .5 1.5-2 1zm-3 4-2 3zm-5 4-1 2zm23 0 4.5.5-4.5.5zm12 0 2.5.5-2.5.5zm61 0 6.5.5-6.5.5zm-5 1 2.5.5-2.5.5zm-74 1-1 2zm67 1 2.5.5-2.5.5zm26 0 6.5 5.5-4.5-3.5zm-96 1-1 2zm-19 2-1 2zm100 0 2.5.5-2.5.5zm5 0 2.5.5-2.5.5zm-43 1 4.5.5-4.5.5zm8 0 6.5.5-6.5.5zm-54 1-1 2zm-18 1-1 2zm124 1 2 3zm-108 1-.5 1.5-1.5 2.5.5-1.5zm136 1 2.5 4.5h-1zm-86 1 10.5.5-10.5.5zm-53 3 .5 1.5-1.5 2.5-.5-1.5zm108 0 1 2zm-72 3 2.5.5-2.5.5zm9 1 2.5.5-2.5.5zm20 0 2.5.5-2.5.5zm78 0 .5 2.5h-1zm-63 3 2.5.5-2.5.5zm-40 2 2.5.5-2.5.5zm29 0 2.5.5-2.5.5zm-18 1 12.5.5-12.5.5zm93 0 .5 7.5h-1zm-164 1 .5 3.5h-1zm22 0 .5 2.5h-1zm-6 1 .5 3.5h-1zm21 5-1 2zm69 0 1 2zm-85 1 .5 6.5h-1zm-6 1 .5 10.5h-1zm-16 1 .5 6.5h-1zm164 1 .5 2.5h-1zm-55 1-1 2zm21 1-1 2zm6 1-1 2zm-93 1 2.5.5-2.5.5zm120 1 .5 2.5h-1zm-95 2-1 2zm8 0 1 2zm55 1-1 2zm-66 1-1 2zm-48 1 2.5 3.5-3-2zm97 0-1 2zm-31 1 2 3zm-13 1-1 2zm-3 2-1 2zm51 0-3 4zm42 0-1 2zm-99 1 3.5 1.5-2.5.5zm-35 1 4.5 1.5-2.5.5zm15 1 3 4zm117 0-1 2zm-49 1 .5 3.5h-1zm-105 1 1 2zm30 0 1 2zm122 1-3 4zm-119 1 2 3zm-31 1 2 3zm145 2-1 2zm-53 1 3.5.5-3.5.5zm-37 1 9.5.5-9.5.5zm26 0 4.5.5-4.5.5zm61 0-1 2-2 1 1-2zm-136 2 2 3zm92 2 4.5.5-4.5.5zm6 0 1.5 2.5h-1zm-63 1 10.5.5-10.5.5zm47 0 4.5.5-4.5.5zm42 0 2.5.5-2.5.5zm-118 1 7.5 3.5-1.5.5-6-3zm47 0 23.5.5-23.5.5zm39 4 4.5.5-4.5.5zm-70 1 3.5.5-3.5.5zm59 0 5.5.5-5.5.5zm-48 1 4.5.5-4.5.5zm36 0 8.5.5-8.5.5zm43 2 1 2zm-12 1 2.5.5-2.5.5zm-9 1 2.5.5-2.5.5zm-67 1 3.5.5q-5.1-.1-6.5 3.5zm57 0 2.5.5-2.5.5zm-47 1 5.5.5-5.5.5zm33 0 4.5.5-4.5.5zm49 0 4.5 5.5-2-1zm-42 5 2.5.5-2.5.5zm-55 1-1 2zm102 1 1 2zm-74 3-1 2zm13 1q22.1-2.6 31.5 7.5l6 10 2 11.5h-6v-4.5q-3.1-10.9-11.5-16.5l-8-3h-12q-10.9 1.6-15.5 9.5-4 5.4-3 14.5h-4v-9.5q2.9-9.1 9.5-14.5zm32 0 5 6zm33 3 2.5 4.5h-1zm-84 2-1 2zm89 8 1.5 3.5h-1z"/><path fill="#b95d4c" stroke="#b95d4c" d="m71.5 55 3 4zm-13 2 3.5.5-8.5 2.5v-1zm5 0 2.5.5-2.5.5zm83 0 3 4q-2.2-4.3-4.5-2.5zm-77 1 2.5.5-2.5.5zm60 0-3 4-1.5-.5zm15 2-2 3zm-54 1 16.5.5-16.5.5zm20 0 10.5.5-10.5.5zM76 62h11.5l8.5 1.5-7.5 1.5h-10L76 64zm4 1v1h7zm19.5 0h27l1 1 8.5.5-13.5.5-1-1h-22zm61 0 .5 3.5h-1zm-19 1-1 2-1.5-.5zm15 3 4 5zm-107 1 .5 4.5-2 1zm50 2 2.5 1.5-1.5-.5zm-59 3-4 5zm49 0 .5 2.5h-1zm-43 1-1 2-3 2 2-3zm57 1 .5 5-2-.5zm-69 3-6 7zm6 0-7 8zm36 2q4.8-1.3 3.5 2-4.2 0-3.5-2Zm-19 5 2.5.5-2.5.5zm-30 1-1 2zm5 1L29 91.5 27.5 94l.5-1.5zm18 1-1 2zm90 0 2 3zm-115 1-.5 1.5-1.5 2.5.5-1.5zm63 3 2.5.5-2.5.5zm14 0 2.5.5-2.5.5zm51.5 4q3-1.2 2 2.5v2l-.5 1.5zm-76.5 2 2.5.5-2.5.5zm-53 1 .5 2.5-2.5 5.5-.5-1.5zm62 0 6.5.5-6.5.5zm13 0 3.5.5-3.5.5zm58 2q3.1 1.4 2.5 6.5h-1zm-138 2 .5 3.5h-1zm137 0 .5 10.5h-1zm-135 5 .5 5.5-1 1v12l3 1.5v4.5l3 6.5q2.7-1.1 2 1.5 1.4 4.5 7 3.5 1.8 4.5-3.5 3l-3-4q-1.7 2.8-3.5-1.5l3 1-3.5-4.5q-1.2 2.3-2.5-.5h2l-3.5-7.5-1 2-.5-1.5 1-3h-1l-.5 1.5-.5-1.5 1-1v-14zm139 1 .5 7.5-7 12.5-2-.5q8.6-5.4 8.5-19.5Zm-142 1 .5 5.5h-1zm135 10-6 7-3 1v-1q6.5-1.5 9-7Zm-135 1 .5 3.5h-1zm133 9 .5 2-2-.5zm-3 2-1 2-4.5 2.5 2 4 1 8h-1l-3-13.5z"/><path fill="#b95d4c" stroke="#b95d4c" d="m21.5 133 1.5 2.5-2-1zm25 1 .5 1.5-2 5-.5 11.5-.5-11.5zm89 15 2.5 1.5-1.5.5zm-31.5 3 4 .5-3.5 1.5zm34.5 4 2.5.5-2.5.5zm-15 2 2.5.5-2.5.5zm20 0 3.5 5.5-7.5.5 1-2 3.5-1zm-30 1 3.5.5-3.5.5zm-54 1 3.5.5-3.5.5zm42 0 6.5.5-6.5.5zm-50 3 7.5 6.5-2.5 3.5 1.5-2.5-1.5-2.5zm42 1 7.5.5-7.5.5zm44 0-1.5 2.5 5 7-3-2-3-5zM47 168q3-1.2 2 2.5l-2 3q.6 6.1-2 9L42.5 200l-.5-7.5 4-19-.5-1.5 1.5.5-1-2zm27.5 3-4 5zm49 1 1 2zm-69 3-.5 1.5-1.5 3.5-.5-4zm87 0 4.5 7.5 3 16-2 1q-.1-15.8-5.5-24.5Zm-73 3-1 2zm-30 15 .5 2.5h-1zm10 0 .5 6.5h-1zm14 0 .5 6.5h-1zm-25 4 .5 2.5h-1z"/><path fill="#b95c4c" stroke="#b95c4c" d="m62.5 57 1 1 11 1 2.5 2.5-1 2.5q3.6 2.3 12.5 1l10-2 1 1h22l1 1h16l2 1 6-8 5.5 4.5q-.7 2.3 1.5 1.5l7.5 8.5q-.7 5.8 3.5 6.5 7.5 3 11.5 9.5l6 14v13l-4 14-8.5 10.5-10 6-13.5 3-1-8.5-2-4 6.5-4.5h2.5v-3q2.7 1.1 2-1.5 7.7-4.8 7-18L156 96l-3-1.5-8.5-11.5q-5.6-4.4-16-4l-23 7-11 1q-1.5-2.5-7-1L79 82.5l1-2.5-4 .5 2 1-1.5.5q-6.9-5.1-21-3-6.7 1.3-10.5 5.5-12.7 13.3-12 40l3.5 5.5 9.5 4.5q-3.3 6.7-2.5 17.5l-9.5-4.5 2-.5q1.8-4.5-3.5-3l-3.5-5q-2.7 1.1-2-1.5-3.9-3-3-9.5l-3-1.5v-12l4-16Q31.4 86.4 41.5 78l8.5-5.5 1-8v-2l1.5-2.5zM93 70l-3 1-1 3q-1 5 1 7l3 1h8l3-2q1-6-2-8l-1-2z"/><path fill="#b95c4c" stroke="#b95c4c" d="m126.5 146 2.5 6-23.5 2v-1l2.5-.5-4-.5q1.4 4-5.5 2l-1 1h-28l-3-1q-4.4 1.5-3.5-1.5l1-4.5h15.5l1 1h25l1-1h9zm20 16q11.9 16.1 18.5 37.5l-16.5.5.5-1.5-3-16-10-16 2.5-2.5 8.5-.5zm-96 1 7.5 6.5-4.5 6.5q-3.4-.9-1.5 4.5l-3 7-1 12.5h-5v-6.5l6-25v-2z"/><path fill="#ebc5c8" stroke="#ebc5c8" d="m146.5 96 2.5 4.5-1.5-.5-3-1-32 9q-5.5-1.5-7 1h-23l-15-3h-7l-6-3h-4q-6.6 6.9-4.5 22.5l.5 1.5-6.5-3.5v-13l2-8 3.5-5.5 7 3 23 5 29 1 22-4z"/><path fill="#ebc5c8" stroke="#ebc5c8" d="m90.5 115 5.5 2.5-2 5 .5 1.5-6-3-4.5 1-1-5zm-36 2 1 2zm15 0-1 2zm58 0-2 3-1.5-.5zm20 0-2 3zm-31 3 6.5.5-6.5.5zm-20 4 1 2zm-15 1-1 2zm20 2q3.3.8 2.5 5.5l-2.5 1.5v-1q3 .9 1.5-3.5zm-13 1 3.5 1.5-1.5-.5-3 1zm-11 1 1.5 3.5-2-1zm8 1-1 2zm-29 1 1 2zm41 1 2.5 1.5-1.5.5zm-38 1 9.5 7.5-4.5.5zm59 7 4.5.5-4.5.5zm-48 1 8.5.5-8.5.5zm37 0 5.5.5-5.5.5zm-17 1 5.5.5-5.5.5z"/><path fill="#fbf3f3" stroke="#fbf3f3" d="m144.5 99 4.5 2.5 1 10q-1.2 5.8-5.5 8.5l-14.5 6-5 10.5 1 3.5-18.5 1-1 1h-27l-1-1h-9l-6-6-17.5-9.5q-2.1-15.6 4.5-22.5h4l6 3h7l15 3h23l31-7zM59 110l-2 1q-4 1-3 7l6 3q6 1 9-2l2-5q-3-6-12-4Zm58 0-6 4 1 4 5 3 9-1q3-1 2-4-3-6-11-6Zm-26 5-8 2 1 5 2 1-8 4-1 5 4 2 8-5 10 5h4q2-1 1-4l-10-7 2-5zm-2.5 68 4.5 1q1.5 6.3-2.5 8l-4 1-3.5-2.5-1-2 2.5-3.5z"/><path fill="#5f87af" stroke="#5f87af" d="m150.5 107 .5 2.5h-1zm-90 3 4.5.5-4.5.5zm-21 10 .5 2.5h-1zm90 8-1 2zm-62 13 2.5.5-2.5.5zm30 1 6.5.5-6.5.5zm-6 34q20.8-1.8 27.5 10.5l4 9v4.5H73.5q-1.2-.2-.5-6.5 2-10 9.5-14.5zm-3.5 7-6 5 1 4 7 1 4-5-1-3q-1-3-5-2Z"/><path fill="#070504" stroke="#070504" d="M155.5 38q4-.5 4.5 2.5l5 15 2 18.5 12 8.5 8 16q2.3 6.7 1 17l-4 15q-4.2 8.8-11.5 14.5l-10 6-14.5 3.5 9 12q8.7 14.8 14 33l-6 .5q-6.2-27-23.5-44l-21 2-1 1h-9l-1 1h-13l-1 1h-26l-1-1-15-1Q39.3 174.1 37 200l-6-.5 6-23 10-18q-15.7-3.3-25-13-6.2-6.8-9-17l-1-16 3-16Q20.1 82.6 30.5 74l5.5-4.5Q37.4 48.4 50.5 39h5l9 4L79 54.5l1.5 2.5 13-1 1-1h22q1.5 2.5 7 1l9-8zM53 44l-9 12-2 5-1 10-2 4-6 4q-8 7-12 17l-4 20 1 12 5 11q7 9 19 13l15 2 1-2q2-9-1-12-7-8-19-10l-4-4 1-20q3-12 9-19l7-6 10-2 10 1 19 7h14l23-7q12-2 18 4 9 7 11 21 1 11-4 17-6 6-16 8l-4 4 1 12 4 5 19-3 15-8 9-13 3-14-1-13-6-12q-4-7-11-10l-3-2-2-19-4-13q-20 4-30 17h-11l-1-1-26 1-1 1h-8L65 49zm3 41-4 2-4 5 9 3 27 5h22l36-8 1-3-8-4h-7l-22 7H88l-19-7zm91 10-16 5-24 5H82q-2-3-8-1l-14-4h-4l-12-4-4 11-1 18q10 2 19 8l4 5v2l4 2h12l1 1h30l1-1 16-1 1-1 1-9 5-5 14-6 3-4 1-4q0-11-4-17Zm-25 51-11 2H76l-1-1H64l-1 7v1h44l1-1 18-1 4-1-1-4q-1-4-7-2Z" opacity=".992"/><path fill="#070504" stroke="#070504" d="M58.5 111q8.3-1.2 11.5 2.5.8 3.8-1.5 4.5-2.6 3.4-10 2l-3.5-2.5-1-3zm56 0q10.1-1.6 12.5 4.5l-2.5 3.5-8 1-4.5-3.5q-.7-4.7 2.5-5.5Zm-26 11q9.4 2.1 14.5 8.5l-1.5 2.5-10-5h-4l-5 4h-3q-2.7-1.2-.5-2.5l1.5-2.5zm3 43h11l13 3q8.2 3.3 12.5 10.5 6.2 8.1 6 21.5h-5v-1.5l-2-10-7.5-11.5q-9.6-8.4-30-6-9.4 2.1-14.5 8.5l-6 11v9.5h-6v-7.5q2.8-13.2 11.5-20.5 6.6-5.4 17-7Z" opacity=".992"/><path fill="#d7ac5e" stroke="#d7ac5e" d="m52.5 45 9 3L74 58.5l-1.5.5-7-2h-7q-5.7 1.3-8.5 5.5l-1 10-1.5 1.5q-9 4-14.5 11.5l-5 6-7 17q-2.4 7.1-1 18 3.1 10.4 10 17l-5-4q-6.9-8.1-7-23l1-1 1-14 2-6Q26.8 84.8 35.5 78l5.5-4.5 1-3-1-2 2-9 5-10zm100 0q4.4-1.5 3.5 1.5l4 13 1 11L146.5 57l-1.5 1.5-4.5 6.5-13-1-1-1-38.5-.5 18.5-.5 3-1 1 1h16l6-7zm-73 18 7.5.5-7.5.5zm14 7q6.5-1 8.5 2.5l1 6-1 2.5-8.5 1-3.5-2.5-1-3 2.5-5.5z"/><path fill="#d7ac5e" stroke="#d7ac5e" d="m60.5 85 9 1 19 7h16l22-7h9l6.5 4.5-23.5 6.5-25 3-1-1-20-1L49 92l3.5-5zm96 15 3.5 8.5v8q-3.1 9.9-10.5 15.5l-7.5 3 3 14-8.5 1q-4.7-5.2-4.5-15.5l7.5-5.5h2q8.9-1.6 12.5-8.5 4.5-5.5 3-17zm-72 5 3.5.5-3.5.5zm-37 29 9.5 6.5 1 8-1 4.5-12-1q-1.7-11.5 2.5-18Zm87 23q7.8-1.7 9.5 2.5.8 2.3-1.5 1.5l-7.5 5.5 9 14 3 12v7.5h-11.5l-1.5-1.5v-7l-2-7-8.5-12.5-12-6-18-2-10 2q-8.4 3.1-13.5 9.5-8.1 8.8-8 24.5H49v-11.5q2.9-11.6 10-19l-8-7q1.3-3.7 7.5-2.5l1 1h23l1 1 1-1h23l1-1 25-2zm-88 14 .5 1.5-4 13-1 14.5q-5.6 2.2-4-3.5 2.5-14.5 8.5-25.5Z"/></svg>