<svg xmlns="http://www.w3.org/2000/svg" width="200" height="200"><path stroke="#000" d="M0 0h200v200h-18v-21.5l-1-1v-8l-2-11q7.5-5.5 10-16v-17l-5-16-14-16-1-5q3.3-4.7 2-14Q167.5 62 159.5 54l-7-5-6-2h-6q-6.9-5.1-17-7h-23l-1 1h-7l-17 3-9 3Q49.9 52.9 39 64.5L36.5 68 27 74.5q-8.5 8.5-7 27 1.6 9.9 7 16v3l-5 12-2 14q2.5 1.5 1 7l9.5 15.5 11 5 2.5 2.5v19l1 4.5H.5l-.5-.5z" opacity="0"/><path stroke="#000" d="m100.5 40 4.5.5-4.5.5zm20 0 3.5.5-3.5.5zm-28 1 3.5.5-3.5.5zm-7 1 2.5.5-2.5.5zm47 1 3.5 1.5-1.5.5zm-71 6 1.5.5L52.5 55l1-2zm90 0 5.5 3.5-2.5-1.5q-3.7-.2-3-2Zm8 5 1 2zm-109 1-2 3zm-4 3-2 3zm116 0 1 2zm-120 3L40 64.5 37.5 68l1.5-2.5zm122 0 3.5 6.5h-1zm-131 8-2 3zm-4 3-2 3zm141 2 .5 9.5h-1zm-144 2L25 78.5 22.5 84l-.5-1.5zm-6 13 .5 2.5h-1zm148 0 1.5 3.5-2-1zm2 5 2 3zm3 4 6 7zm7 8 4.5 5.5-2-1zm-157 4 1.5 2.5-2-1zm2 4 2.5 4.5h-1zm162 5 .5 2.5h-1zm1 6 .5 5.5h-1zm-167 11 .5 2.5h-1zm167 4 .5 2.5h-1zm-168 3 .5 3.5h-1zm166 4 .5 1.5-2 1zm-2 4-1 2zm-2 3-3.5 4.5-.5 2.5-.5-2.5zm-156 9 1 2zm153 0 .5 2.5h-1zm-151 3 2 3zm4 3 1 2zm148 0 .5 3.5h-1zm-138 5q2.3-.7 1.5 1.5zm139 4 .5 8.5h-1zm-137 3 .5 14.5h-1z" opacity=".612"/><path fill="#e9edc8" stroke="#e9edc8" d="m80.5 49 2.5.5-2.5.5zm5 0 1 2zm2 3-.5 1.5-5.5 6.5q-3 3-10 2L69 60.5l1.5-.5q1.3 2.3 6 1 6.5-1.5 9.5-6.5zm46 1 6.5.5-6.5.5zm-67 1 1.5 5.5h-1zm84 1 1 2zm-24 1-3 4zm27 1 4 5zm-32 6 .5 4.5h-1zm27 0 5.5 4.5-4.5-3.5zm10 0 2.5 3.5-2-1zm-4 6 .5 2.5h-1zm-108 1 9.5.5-9.5.5zm11 1 4.5 3.5-3.5-2.5zm64 0 .5 2.5h-1zm22 2 1 2zm10 0-1 2zm-7 2 4.5.5-4.5.5zm-112 1-4 5zm130 0 .5 6.5h-1zm-41 1 1 2zm-59 4 .5 10.5h-1zm62 0 9 10zm-81 5 .5 5.5-3.5 4.5-4 1v-1l5.5-2.5zm-11 1 .5 5.5h-1zm-8 3 .5 4.5h-1zm134 2-1 2zm-125 2 1 2zm122 0-1 2-5 1v-1q4.6.6 6-2Zm-12 1 2.5.5-2.5.5zm-119 1 .5 4.5h-1zm33 9-1 2zm-31 1 2.5 4.5-2-1zm29 2-4 5zm-26 4 3 4zm20 1-3 4zm-8 4 3.5.5-3.5.5z"/><path fill="#2ebd3a" stroke="#2ebd3a" d="m106.5 46 14.5.5-14.5.5zm18 3-1 2zm-3 2-3 4zm-4 5-1 2zm-60 2q2.6-.7 1.5 2l-3-.5zm6 8 4 5zm55 16 1 2zm4 5 4 5 3 2q3 1.5 0 3l-7-9-2 1v-1zm-51 3 .5 2.5h-1zm38 2-4 5zm-39 3 .5 2.5h-1zm96 4 1 2zm-22 3 2.5.5-2.5.5zm24 0 4 5zm-82 1 2.5.5-2.5.5zm65 0 4.5.5-4.5.5zm-79 1-2 3zm103 6 2 3zm-112 2-5 6zm72 1 .5 3.5h-1zm44 2 .5 3.5h-1zm-124 4-2 3zm15 0 1 2zm-19 3-1 2-1.5-.5zm24 0 3.5 1.5-2.5.5zM38 124q3-1 2 2-3 1-2-2Zm43.5 0 .5 4.5h-1zm54 1 .5 4.5h-1zm47 7 .5 2.5h-1zm-35 5 .5 7.5h-1zm10 0 .5 2.5h-1zm24 0-1 2zm-47 1 .5 8.5h-1zm-83 1 1.5.5-3 2q-.7 3.8 1.5 4.5l2.5.5-2.5.5q-3.2-.7-2.5-5.5zm7 1 1 2zm28 0 1 2zm92 0-3 4zm-19 3 1 2zm-133 1 1.5 4.5h-1zm63 0 3 4zm76 2 3.5.5-3.5.5zm-110 1 4 5zm-27 3 1 2zm104 1-4 5-4 1v-1q5.9-.6 8-5Zm-25 1q1.4 3.6 6.5 3.5l-3.5.5-3.5-2.5zm-47 1 .5 2.5h-1zm-28 1 2 3zm83 2 2.5.5-2.5.5zm5 1 2.5.5-2.5.5zm-65 1-1 2zm-13 1 2.5.5-2.5.5zm5 1 5.5.5-5.5.5zm19 8-3 4zm101 2 .5 2.5h-1zm1 6 .5 2.5h-1zm-109 16 .5 3.5h-1zm109 2 .5 3.5h-1z"/><path fill="#0d1309" stroke="#0d1309" d="m102.5 45 5.5.5-5.5.5zm16 0 4.5.5-4.5.5zm-25 1 3.5.5-3.5.5zm35 1 2.5 1.5-1.5.5zm-5 4-5 6zm9 1 2.5.5-2.5.5zm19 2 1 2zm-96 4-1 2zm-3 2-1 2zm-3 2v2l7.5.5-9.5.5zm66 1 .5 10.5h-1zm-70 6 2.5.5-2.5.5zm14 1 2 3zm6 0 1 2zm78 1 2 3zm9 1-1 2zm-116 1-1 2zm111 1 2.5.5-2.5.5zm18 1 .5 2.5h-1zm-133 1-1 2zm91 3 1 2zm-94 1-1 2zm89 0 2 3zm-48 2 .5 9.5h-1zm56 1 7 8zm-89 1-1 2zm5 0 1 2zm80 1 1 2zm-8 3 3.5.5-3.5.5zm-89 1 .5 2.5h-1zm97 1 1 2zm-79 2-2 3zm-7 1 1 2zm74 0-4 5zm6 0 1.5.5-3 2-5.5 6.5-2 1 1-2 5.5-4.5zm14 0 2 3zm-4 1 1 2zm-5 1 4.5 7.5h-1zm43 1 3.5 2.5-2.5-1.5-5 4zm-14 1 4.5.5-4.5.5zm-48 2-1 2-1.5-.5zm43 2 2.5.5-2.5.5zm24 0 2 3zm-64 2-1 2-3 1v-1zm-30 1 2.5.5-2.5.5zm-2 1-2 3zm7 0 4.5.5-4.5.5zm34 0 3.5 1 5 8.5h-1q-1.4-6.1-6.5-8.5l-6 5 2.5-3.5q-.7-2.2 1.5-1.5zm-16 1 1.5.5-4.5 1.5v-1zm-34 2-1 2zm111 0 3 4zm-99 1 1.5.5-3 2q-.7 3.8 1.5 4.5l1.5.5-1.5.5q-3.2-.7-2.5-5.5zm11 0 3.5.5-3.5.5zm-30 1-2 3zm22 0 5.5.5-5.5.5zm-17 1-1 2zm7 0 .5 4.5h-1zm36 1-1 2-1.5-.5z" opacity=".996"/><path fill="#0d1309" stroke="#0d1309" d="m114.5 112 2.5 1.5q3.1 4.4 2 13l-3.5 5.5q-3.6 2.9-11 2l-4.5-3.5-4-9.5q11.8-1.3 18.5-9Zm.5 2-3 3-10 5h-4l3 8 6 3 9-3 2-5q1-7-2-9 1-3-1-2Zm-84.5-1 2 3zm22 1-2 3zm6 1-2 3zm71 0 .5 14.5h-1zm5 0 .5 11.5h-1zm-64 2 4.5 3.5-1.5.5zm9 0 2.5.5-2.5.5zm10 0 3.5.5-3.5.5zm34 0 .5 2.5h-1zm-70 2-2 3zm26 3 2.5.5-2.5.5zm10 0 2.5 1.5-.5 1.5-.5-2zm-50 1 6.5.5-6.5.5zm48 1 .5 4.5h-1zm5 2 2.5 4.5-2-1zm31 0 .5 2.5-1.5 2.5-.5-1.5zm60 1 .5 13.5h-1zm-31 3 2.5 1.5-1.5-.5zm-57 2 8.5 6.5-1.5.5zm26 0-3 4zm33 2 .5 2.5h-1zm-64 1 6.5 7.5-6-5zm37 0 .5 1.5-2 1zm5 1 .5 1.5-7.5 9.5 4.5-5.5zm-46 2 1 2zm39 1-4 5-3 1v-1zm23 0 .5 2.5h-1zm-96 1 2.5.5-3.5 1.5zm36 1 5 6zm-63 2 .5 2.5h-1zm35 0 3 4zm44 2 2.5.5-2.5.5zm77 0 .5 1.5-2 1zm-125 1 4 5zm53 0 3.5.5-3.5.5zm12 2-1 2-1.5-.5zm34 1 4 5zm24 0-2 3zm-28 3 5 6zm-124 1q2.3 8.2 8.5 12.5l-6-5zm148 0-1 2zm-108 1 .5 3.5h-1zm-5 1 .5 7.5h-1zm105 1 2.5.5-2.5.5zm-100 4 .5 3.5h-1zm99 1 5.5.5-5.5.5zm-105 3-2 3zm113 1 .5 2.5h-1zm-137 1 4.5 2.5-1.5.5zm28 1-3 4zm-22 2 8.5.5-8.5.5zm132 2 .5 4.5h-1zm-117 1-1 2-1.5-.5zm-9 2 4.5.5-4.5.5zm0 3 .5 11.5h-1zm127 5 .5 17.5h-1z" opacity=".996"/><path fill="#fcfedb" stroke="#fcfedb" d="m83.5 49 3.5 2.5-5.5 7.5q-3.3 2.7-10 2L68 60l-1-6zm57 4q12.6.9 17.5 9.5l6 13v9l-5.5 9.5q-3 3-10 2-15.9-4.1-23.5-16.5-3.7-3.8-4-11l2-8 4.5-4.5zm4.5 10-4 6 2 5 4 2 6-1 2-3-1-4-4-5zM44.5 71h12l5.5 4.5q3.9 6.1 2 18l-4 11-7.5 8.5-5 4-6 1q-7.4-1.1-10.5-6.5l-4-9q1.5-5.5-1-7 2.5-1.5 1-7l3-7 6.5-6.5zM40 82l-2 1-4 5 1 7 4 2 4-1 3-4q1-6-1-8z"/><path stroke="#000" d="m105.5 40 14.5.5-13.5.5-2 1zm-9 1 5.5.5-5.5.5zm27 0 5.5 1.5q-1.2 2.5-5 1.5zm-35 1 5.5.5L82.5 44v-1q4.8 1.2 6-1Zm42 1 3.5 1.5-1.5.5zm-53 1 3.5.5-3.5.5zm63 3 4.5.5-4.5.5zm-75 1 1.5.5-3.5 1.5v-1zm87 2 9.5 7.5-2.5-1.5q-4.8 1.7-3.5-2.5l-4-1.5zm-101 5-3 4-3 2 2-3zm111 4 1 2zm-119 2L41 64.5 40 68l-2-.5zm-7 7-1 2-3 2 2-3zm131 0q3.6 4.2 2.5 12l-2-.5v-9zm-137 4-3 4zm-4 5-1 2zm143 5 .5 3.5-2 6 1.5 2.5q-3-.5-2.5-4.5zm-148 5 .5 2.5h-1zm-1 5 .5 6.5 1.5 1.5H24v4q-4.5 1.8-3-3.5l-1-1zm144 3 3.5 1-.5 2zm7 1 8.5 9.5-2.5-1.5q-2.2.8-1.5-1.5l-4-2.5zm9 11 2 3zm-157 1 1.5 3.5h-1zm160 3 1 2zm-158 2 1 2zm2 3 1.5 2.5-2.5 6.5-.5-1.5 2-6zm159 2 .5 2.5h-1zm1 4 1.5 17.5h-1zm-165 12 .5 3.5h-1zm-1 5 .5 12.5h-1zm166 2 .5 2.5h-1zm-3 9-1.5 2.5-4.5 5.5 1.5-2.5q-1.7-4.8 2.5-3.5zm-160 8 1.5 2.5h-1zm154 3 .5 3.5h-1zm-152 1 1 2zm2 3 3 4zm151 1 .5 5.5h-1zm-146 3 1 2zm3 2 3.5 1.5-1.5.5zm144 2 .5 6.5h-1zm-136 2 .5 5.5h-1zm1 12 .5 12.5h-1zm136 0 .5 13-2-.5v-7z" opacity=".992"/><path stroke="#000" d="m102.5 41 3 1 1-1h16l1.5 3 5.5-1 11 5h5l6.5 2q-1.2 3 2.5 2l1.5 4q4.7-1 6 2.5l6 12V80q2.7-1.1 2 1.5l-2 3-1 7q4.8 2.5 5 8.5l4 2.5q-.7 2.3 1.5 1.5l7.5 9.5 2 8 1 19-2 7-3.5 4.5q-4.2-1.3-2.5 3.5-3.7 1.8-2 9l3 16v11l-1 1v7.5l-3-.5v-17l-1-1v-10l-2-10.5q-17.1 1.5-23-9.5-3.4-5.1-2-15l2-5.5 4 1.5-1 2v13l5.5 6.5 10 3q7.2-1.8 10.5-7.5 6-7 4-22l-2-10-3-6-11-12V96l-4-1-4.5 6-11 1q-15.9-3.6-24.5-14.5l-8-12v-13q2.1-7.9 8.5-11.5l6.5-2.5-8.5-3.5h-20l-1 1-21 2-10 3-15 7-8.5 6.5 11.5.5 6.5 4.5q7.3 7.2 5 24-2.7 13.3-10.5 21.5l-9 7q-4.7 2.2-13 1l-5-2-5.5 12.5-2 12q2.3 1.2 1 6l4 9 5.5 5.5q4.7 5.3 16 4l8-3 2.5-2.5 1-9q-1.5-6.5-6.5-9.5l-5.5-2.5 1.5-2.5q9 0 11.5 6.5l3 6 1 6-2 7-4.5 4.5q-4.2 4.2-12.5 3l1 26-4-.5v-16l-1-8-2.5-2.5q-10-1.5-14.5-8.5l-6-12v-14l2-8 4-7 1-6-4-5-3-8.5q3.7 1.2 2-4l-3-1.5Q20.6 79.6 31.5 72l6-4H40q.5-4.7 4.5-7l8-6 15-7 9-3 11-1 7-2h7zM133 52l-5 2q-6 3-8 10v11l6 9q8 11 25 14 5 1 8-2l4-4 3-9-1-10-9-16-10-5zM46 69l-13 7q-6 5-8 14l1 16 4 8q3 4 10 5h7l9-6q7-8 10-20 2-14-4-20-5-6-16-4Z"/><path stroke="#000" d="M145.5 64q4.8.3 6.5 3.5l1 4q-1 3.5-6.5 2.5-4.5-1-3.5-7.5zm-107 20q4.8-.7 5.5 2.5l1 2-4.5 6.5q-4 .5-4.5-2.5l-1-3zm75 5q9-.5 12.5 4.5l4 7 4 12v19q-2.1 10.4-9.5 15.5l-9 4h-8l-13-4-6.5-6.5-4-7-1-10-1.5-1.5h-4l-7.5-5.5q-1.3-9.3 4.5-11.5l10 1 17-5 9.5-7.5zm3.5 4-3 4q-10 10-27 13-7 1-10-1-4 1-3 6l6 3q12 1 20-2 9-3 16-10l5 6 3 9v5l-2 6q-4 6-12 7-7 1-9-2l-6-5-4-10-4 3v4l4 9 6 5 13 4 12-3q7-4 8-14v-14l-4-14-3-5zm-2 19q-7 8-19 9l4 10 5 3q7 1 11-2l3-5q1-9-2-13z"/><path fill="#d4a15a" stroke="#d4a15a" d="m91.5 47 2.5 1.5 1 6-7.5 8.5-11 5h-9L61 63.5l-1-6 5.5-3.5 1.5 6q2.9 2.9 10.5 2l9.5-7.5 1-2-2.5-3.5-1.5-.5zm48 5 4.5.5-4.5.5zm12 3 1 2zm-6 8 2.5.5-2.5.5zm-25 5 .5 2.5h-1zm-61 3 2 3zm94 0 .5 1.5-3 2zm-10 1 2 3zm-107 2-1 2zm88 5 1 2zm3 4 6 7zm-84 1 1 2zm-8 9 2 3zm8 0-1 2zm72.5 1q4.7.5 7 4.5l6 15v16q-1.2 8.3-6.5 12.5l-9 4h-4l-10-2-6.5-5.5q-4.8-4.7-5-14l3-1.5 1 5.5 9.5 10.5 8 1q7.8-1.7 12.5-6.5l2-4 1-9-4-11-4.5-4.5h-3q-5 7-14 10l-15 3-9.5-3.5q-.5-4 2.5-4.5l1 1h8l12-3 10-5 7.5-7.5zm32.5 2 2.5.5-2.5.5zm-89 10-1 2zm-2 3-2 3zm-26 4 1 2zm21 0-2 3zm107 4q7.3-.2 9.5 4.5v5l-5.5 5.5-7.5 1-1.5-3q-2.7.6-1.5-5.5zM32 122l5 3.5q1.1 7.6-3.5 9.5-2.2-.7-1.5 1.5l-5.5 7.5-.5-2.5zm37.5 51q6.5-1 8.5 2.5l1 7-4.5 6.5-5 1-3.5-2.5-1-8z"/><path fill="#2f5f28" stroke="#2f5f28" d="m108.5 45 9.5.5-9.5.5zm-11 1 2.5.5-2.5.5zm30 1 1 2zm8 5 3.5.5-3.5.5zm-9 3-4 5zm27 1 5 6zm-103 6-1 2zm109 1 1 2zm-39 1 .5 3.5h-1zm24 0-1 2zm5 0 3 4zm-87 2 4 5zm80 1 .5 2.5h-1zm-94 2 6.5.5-6.5.5zm-14 6-1 2zm88 2 1 2zm-91 1-1 2zm134 0 .5 2.5h-1zm-40 3 1 2zm-6 1 2 3zm-54 1 .5 7.5h-1zm58 4 7 8zm11 3 1 2zm-10 1 2 3zm-99 1 .5 7.5h-1zm136 0-2 3zm-41 3 1 2zm47 4 1 2zm-16 3 4.5.5-4.5.5zm19 1 4 5zm-59 4-3 4zm7 0 2 3zm-42 3-1 2zm-22 2-1 2zm7 1-3 4zm53 1q2.3-.7 1.5 1.5 2.6 2.9 2 9l-2 5.5-9.5 3-5.5-3.5-3-7.5h3.5l10-5zm-81 1 1 2zm16 1-1 2zm-6 2 2.5.5-2.5.5zm12 0-2 3zm69 2 .5 4.5h-1zm-42 7 .5 2.5h-1zm52 0 .5 2.5h-1zm17 3-1 2zm4 2q-1.1 10.6 5 14 2.3 2.7 8 2l12.5-6 1.5-4 .5 3.5-6 11.5-5.5 3h-6q-7.2-1.8-10.5-7.5-2.5-3.5-1-11zm-34 1-1 2zm-95 5 .5 2.5h-1zm106 0 .5 9.5-4.5 6.5-5 2h-5l-10.5-4.5 12.5-1.5 10.5-8.5zm-25 1 2.5.5-2.5.5zm-56 1-.5 1.5-.5 2.5-.5-2.5zm7 1 1 2zm90 1 .5 3.5h-1zm-58 2 1 2zm-64 3 .5 2.5h-1zm1 4 3 5 8 4 14 2q2.3-3 7.5-2-1.3-4.1 2-3 1.8 8-3.5 10-5 4-16 2-7.4-2.6-11.5-8.5l-4-8zm145 10 1.5 2.5 1 12 1 1V200l-7-.5 1-1v-22l-3-14.5zm-118 13 3.5.5v21l1 4.5h-9v-22.5l-1-2.5z" opacity=".996"/><path fill="#2fc33c" stroke="#2fc33c" d="M99.5 47h24l2.5 1.5-8 6q-6 6-4 20 2.8 8.7 9 14l-1.5-.5-8-1-9 10-14 6-11 1-5-1-4.5 3.5q-3 3-2 10l3.5 4.5 5 3H81l1 9.5L92.5 148l14.5 4 1.5 3 14 3q7.4-1.1 10.5-6.5 3.1-4.4 2-13l-1-3q4-8 2-22L130 96l14.5 7 11 1 6.5-2v-2l4-2 2 4.5 11 12v4l3 6v12l-2 3.5-9.5 6h-7l-4.5-3.5-3-9.5q9.8.6 13-6.5 1.3-7.2-3.5-8.5l-6-1q-6.8 3-6.5 12l-4 2.5q-2.9 4.6-2 13l1 5 4 6.5h2q-1.1 2.7 1.5 2l10.5 5.5 3 16v14l-1 6.5H60.5l-.5-.5v-7l-1-1v-17l8-6q3.8-4.7 2-15-3.2-8.7-10.5-13.5l-7-1q-3.2.8-2.5 5.5.8 3.3 5.5 2.5l5.5 5.5q1.5 4.4-1.5 3.5l-5 4h-8l-10-3-5.5-4.5q-3-3-3-9l5-8.5 4-2.5 1-7-1.5-2.5 2.5 1q-1.1 2.7 1.5 2l11-2L64 112.5l7-15 1-17-4-10-4-4 1.5.5q3.5 2.5 11 1Q88.1 65.1 94 56.5l1-6-1-2.5zM70 173l-5 7 1 8 4 2 5-1 4-6-1-7q-2-4-8-3ZM59.5 57q-.2 6.2 3.5 8.5L60.5 64 52 62.5q2-3.3 7-2.5z"/><path fill="#289e31" stroke="#289e31" d="m100.5 46 5.5.5-5.5.5zm-6 1 2.5.5-2.5.5zm31 0 2.5 1.5-1.5-.5zm-3 4-4 5zm-67 8-1 2zm-3 2v2l3.5.5-5.5.5zm62 3 .5 8.5h-1zm3 16 1 2zm-46 2 .5 7.5h-1zm49 2 2 3zm-8 4-1 2zm10 1h2l2.5 2.5-2.5-1.5-1 1zm-13 4-3 4zm19 0v3q-3-1.5 0-3Zm3 2 1 2zm33 2 2.5 1.5-1.5-.5-5 4zm-62 1-1 2zm66 3 1 2zm-21 1 3.5.5-3.5.5zm-72 1 2.5.5-2.5.5zm-2 1-3 4zm6 0 6.5.5-6.5.5zm94 3 4 5zm-108 1-1 2zm-2 3-1 2zm5 1 .5 2.5h-1zm-11 5-1 2zm12 0 3 4zm66 0 .5 7.5h-1zm45 0 .5 2.5h-1zm-101 6 2.5.5-2.5.5zm-39 1 5.5.5-5.5.5zm142 1 .5 6.5h-1zm-48 5 .5 3.5h-1zm-1 5 .5 12.5-5.5 7.5q-3.3 2.7-10 2l-8-2-5.5-3.5 2.5-.5 4 3 7 2h5l7.5-4.5 2-4zm49 0 .5 2.5-2 4.5-8.5 5-8 1-7.5-5.5-1-6h1q-.6 6.6 3.5 8.5l8 2q9-2.5 13.5-9.5zm-122 7 4 5zm28 0 1 2zm-38 2 1 2zm42 2 1 2zm-36 1 3 4zm-29 2 7 8q7 4 18 4l8.5-5 .5-2 .5 3q-3.3-1.1-2 3h-4.5q-2 3-8 2l-9-2-9.5-5.5zm123 3 6 7zm-82 3 .5 7.5h-1zm98 7 1.5 2.5v5l2 7v22l-2 1 1-2v-21zm-100 5-1 2zm-3 3-1 2zm-5 3 .5 22.5 1 4h-1l-1-4z" opacity=".996"/></svg>