<svg xmlns="http://www.w3.org/2000/svg" width="200" height="200"><path stroke="#000" d="m81.5 10-1 2zm61 0-1.5 2.5-1.5 2.5.5-1.5zm-90 4 3.5 2.5q.8 5.8-3.5 6.5l2.5-3.5q.8-3.7-1.5-4.5zm86 2-.5 1.5-1.5 2.5.5-1.5zm-63 1-5 6zm-31 1-1 2zm-3 2-1 2-4 3 3-4zm107 1 .5 2.5h-1zm-61 2 .5 4.5h-1zm-36 1-2 3zm18 0-3 4zm-35 1-3 4zm115 1 .5 3.5h-1zm-101 2-2 3zm-19 1-3 4zm36 0-2 3zm65 2-.5 1.5-1.5 3.5-.5-1.5zm-85 1-1 2zm41 0 .5 4.5h-1zm-62 1-2 3zm38 0-1 2zm88 0 .5 4.5h-1zm-107 2-1 2zm145 0-5 6zm-168 1-1 2zm40 0L59 38.5 56.5 43l-.5-1.5zm-43 2-2 3zm24 0-1 2zm110 2 .5 3.5h-1zm-65 3 1 2zm38 1-4.5 5.5-6.5 13.5-.5-1.5 6-12zm-87 1-.5 1.5-1.5 2.5.5-1.5zm142 0-3 4zm-91 1 1 2zm-31 3 1.5 4.5-2 1 1-3zm95 5 .5 4.5h-1zm17 0-5 6zm-113 2-.5 1.5-1.5 2.5.5-1.5zm37 0 1.5.5-5.5 3.5-.5-2.5 2.5-.5zm4 0 1 2zm2 3 .5 2.5h-1zm-67 2 4.5.5-4.5.5zm21 0-.5 1.5-1.5 2.5.5-1.5zm99 0v2l1.5.5-3 .5zm-124 1 .5 1.5-1.5 2.5-.5-1.5zm10 0 9.5 5.5-1.5.5-7-4zm-7 1 .5 4.5h-1zm81 1 .5 1.5-2.5 3.5.5-1.5zm-80 5 1.5 4.5h-1zm71 0q1.8 3.1 3.5 1.5l-3 1.5zm-78 9 2.5 3.5-3-2zm3 5 2 3zm3 4 2 3zm8 0-2 3zm-4 3-1 2z" opacity=".365"/><path fill="#5e5549" stroke="#5e5549" d="m81.5 19-4 5zm-6 7-4 5zm6 0 .5 3.5h-1zm63 4 .5 5.5h-1zm-64 6 .5 2.5h-1zm-14 1-1 2zm14 3 .5 3.5h-1zm65 0 .5 2.5h-1zm-64 6 1 2zm47 2-2 3zm18 0 .5 2.5h-1zm-63 1 1 2zm63 4 .5 2.5h-1zm-67 13-1 2zm-3 2-3 4zm66 0 .5 3.5h-1zm-26 4 1 2zm17 4 5.5.5-5.5.5zm-66 36 1 2zm1 3-2 3-1-2q1.5 2.5 3-1Z"/><path stroke="#000" d="M0 0h200v200l-16-.5 5-4 1-2v-159l-7 6L170.5 54l-7 6-11 3 .5-1.5-1-21-1-1-2-18q-1.2-7.8-6.5-11.5L129 32.5l-4 11-6 6-9.5 19.5-4 2-2.5-2.5L97.5 56q-5.3-.8-7 2l-.5-1.5 2-5-6-9v-5l1-1 1-13-1-1V9q-5-.8-7 2.5l-22 27q-3 2-2 8l2 7L50 68l-13.5-7H32l-1 6.5 8 20-4.5 3.5L26 79.5l-1-6 10-24q8.6-16.9 21-30v-3L52.5 14l-13 7L10 45.5v148l4.5 5.5 1.5.5-16 .5z" opacity="0"/><path stroke="#000" d="m82.5 10-6 7zm60 1 2.5 1.5-1.5-.5-2 1zm-2 3-1 2zm-95 4-1 2zm92 1-.5 1.5-5.5 10.5.5-1.5zm10 0 .5 2.5h-1zm-74 1-3 4zm-34 2-1 2zm12 1-2 3zm-16 2-2 3zm33 1-2 3zm-20 1-2 3zm38 0 .5 4.5h-1zm-56 2-3 4zm35 1-2 3zm84 0 .5 3.5h-1zm-104 1-1 2zm-20 2-1 2zm18 1-1 2zm19 0-1 2zm23 1 .5 7.5h-1zm-64 1-1 2zm20 1-1 2zm19 0-1 2zm-42 1-1 2zm132 0 .5 3.5h-1zm-92 2-1 2zm124 2-2 3zm-170 1-1 2zm25 1-1 2zm49 0 1 2zm65 0 .5 6.5h-1zm-27 1-4 5zm-36 2q3.1 1.4 2.5 6.5h-1zm87 2-10 11zm-117 5-1 2zm37 2 3.5 2.5-.5 1.5-2-3zm-7 2 .5 2.5h-1zm3 0-1 2zm-36 1-1 2zm-19 3 2.5 1.5-1.5-.5zm114 1 1 2-2.5-.5zm-110 1 1 2zm12 0-1 2zm48 0 2.5 4.5-2-1zm-50 3-1 2-1.5-.5zm59 2-1 2-2 1 1-2zm-85 4 .5 2.5h-1zm12 7 1.5 2.5h-1zm-10 1 1 2zm2 3 2 3zm4 5 1 2zm4 1-1 2z" opacity=".863"/><path fill="#e88e76" stroke="#e88e76" d="m81.5 20 .5 5.5-1 1-1 17 5 10q-3.7 2.8-3 10L77.5 68l-4 3h-3l-5-2-9 5-1.5-3.5 9-15v-6l-2-5Q69.7 30.2 81.5 20Zm59.5 3q3.3-1.3 2 3.5l3 17 1 16-3 1.5-2 3.5v10l-1.5 1.5-10 1-1-1h-10l-1.5-1.5-2-3 9-20.5 4-2.5zM35.5 33l1.5.5-6 10L10.5 65 10 52l4.5-2zm154 11 .5 13-20.5 8 14-15 2.5-1.5zm-100 23-.5 1.5L83 86h-3.5L69 79.5l8.5-2.5zm-49 4 6.5 4.5 1 9.5 6 3.5 2 6-2 5 1 3-1 1v8l2 10 4 5v2l-1 2 2.5 3.5 4.5-1q3-11.2 11.5-18l-.5 1.5-6 17 5 12-4.5 2.5-5-5h-4q-1.2 2.3-2.5-.5l-3.5-6.5q-2.2.8-1.5-1.5l-11-15q.8-2.2 4.5-1.5l3.5-3.5v-2l-6-8.5q3.8.8 5-2.5l-1-8-8-15z"/><path fill="#e88e76" stroke="#e88e76" d="m41.5 94 1.5 4-5-.5zm26 1 1.5 1.5-4.5 4.5-1.5-3zm-32 5 3.5 9h-1.5L25 121.5v5.5h-6.5l-1.5 1.5-1 9.5 4 1-1 7q-2.8 1.9-9 1v-22.5l2.5-2.5 10.5-7.5zm54.5 1 4 1.5 2 3-4.5 7.5-.5-7.5-2-2zm22.5 9q2.6-.8 1.5 2.5l-1 2.5-7 1 1.5-3zm-47 2 2.5 1.5-1.5 3.5zm114 17q3 1.5 0 3-2.2.8-1.5-1.5z"/><path fill="#e88e76" stroke="#e88e76" d="M21 132q4.7-.7 6 3.5l-6 2.5zm7.5 6 2.5 4.5-3.5.5-2.5-1 1.5-3zm-5 8 5.5 9.5-3 1.5-4.5 6q-2.8 3.7-10 3l-1.5-1.5V151l10 1zm81 3q3.3 1.8-.5 3.5l-3.5 4.5-3.5-1.5zm63 1 5.5 3.5q1.1 3.3-1.5 2.5-3 2.8-8.5 2zm-103 1 5 5h4l4-3 1.5 2.5-6 6 1 1 6 16-4.5-3.5-12.5-8.5 1-10-1-4zm26 2 1.5.5-4.5 5.5-3.5-1.5zm92 3q2.3-.7 1.5 1.5 1.3 5.8 6 8v5l-3.5 2.5H173l-2-10.5zm-19 13q3.3-1.1 2.5 1.5l1 5.5-7-1q-.7-4.7 3.5-6Zm5.5 11q5.5-1.2 7 2.5-2.3 3.5-8 2.5z"/><path fill="#b24d47" stroke="#b24d47" d="m39.5 29-.5 1.5-1.5 2.5-1.5-.5zm-5 4-3 4zm1 3-1 2zm-6 1-2 3zm-4 3-2 3zm-4 3-2 3zm8 2-4 5zm-12 1-3 4zm168 2-1 2zm-173 2-1 2zm11 2-13 14zm156 1-9 11 15-6-1 2-17 6zm-90 13 1.5.5-2 1 .5 1.5-2.5-.5zm-24 3 2.5.5-2.5.5zm20 0-3 4zm-41 4 2.5 1.5-1.5-.5zm36 0-3 4zm-33 3 .5 4.5h-1zm75 0 3.5.5-3.5.5zm-54 3L79 85.5l-1.5.5-7-4zm-16 7q3.3 1.8 3.5 6.5h-1zm28 0 2.5.5-2.5.5zm-32 5 1.5 3.5h-1zm-8 3L38 97.5l-1.5 2.5-6 5zm16 0-1 2zm12 1 1.5 1.5-4.5 4.5 3.5-4.5zm-18 1 .5 5.5-3.5 2.5v-1l2.5-1.5zm15 0-1 2zm-11 1 .5 2.5h-1zm8 1 1.5 2.5-2-1zm28 2q4.4-1.5 3.5 1.5l2 3-2-1-1.5-2.5q-3.3-1.1-2.5 1.5-2.5 1.5 1 3l-.5 1.5-2.5-3.5zm-54 3 2 3zm18 0 .5 8.5h-1zm-8 3 1 2zm49 0 .5 1.5-2.5 3.5.5-1.5zm-56 1 .5 1.5-14 13q1.3 5.3-1.5 6.5l-5.5-.5 6-.5v-5.5L37.5 109q2.5.7 2-2Zm-12 1-3 4zm22 2q3 .5 2.5 4.5h-1zm43 2-1 2zm-27 1 .5 2.5h-1zm-43 1-3 4zm55 0 1.5.5-2 1 .5 1.5-1-1-3.5 2.5zm-28 2-1 2-1.5-.5zm-32 2-1 2zm-3 2-1 2zm31 1 1 2zm26 0-1 2zm-24 3 1 2zm13 2 .5 2.5-1.5 2.5-.5-1.5zm-43 2 .5 2.5h-1zm50 0 .5 1.5-2 1zm112 0q4.5 2 1 4l-1-3-2 3-.5-1.5zm-157 3 4.5 3.5-3.5-2.5zm30 0 1 2zm19 0 .5 2.5h-1zm-51 1 1.5 6.5-1.5 2.5-.5-1.5v-2zm40 0 3.5 1.5-2.5.5zm-44 1 .5 4.5h-1zm40 3 1 2zm-30 2 1.5.5-3.5 2.5zm32 1 1 2zm-30 4 2.5.5-2.5.5zm34 0h4l5.5 5.5-5.5-4.5q-5 1-4-1Zm14 1 .5 1.5-2 1zm-53 1 1 2-1-1-2.5 1.5zm-12 2 3.5.5-3.5.5zm92 2-2 3zm-77 1 1 2zm38 0 6.5 5.5-1.5.5-5-5-1.5.5zm102 0-1.5 2.5-1.5 3.5-.5-1.5zm-153 1 6.5.5-6.5.5zm92 0-1 2zm66 0q3 .5 2.5 4.5l-2.5 1.5v-1q2.6.8 1.5-2.5zm-94 1 2.5 3.5-6 6 1 1-.5 1.5-1.5-2.5 6-6-1-1-.5-1.5-1.5.5zm-49 1 1.5 2.5-8 7 4-5.5 3-1.5zm70 0-1 3 1.5.5-1.5.5q-3.5-2 1-4Zm-24 1-1 2-1.5-.5zm14 0-1 2zm3 0 .5 1.5-4.5 4.5h-2l-2-3 4 2zm12 0-2 3zm-40 2 .5 2.5h-1zm99 1 4.5 1.5-5 .5zm16 0 1.5.5-4.5 2.5 1-2zm7 2 4.5 5.5-5-4zm-165 4-1 2zm-4 2 1.5.5-4.5 1.5v-1zm155 1 .5 2.5h-1zm-95 1 4.5 11.5h-1zm-11 1 1 2zm97 1-2 3zm-94 1 1 2zm104 1 .5 2 12 .5-13 .5zm-5 1 .5 2.5h-1zm-95 1 1 2zm3 2 3 4zm86 0 4.5 1.5-3.5.5zm9 4q4.8-.7 5.5 2.5l-2.5-1.5q-4 .8-3-1Zm-3 4 .5 2 4 .5-3.5.5z"/><path stroke="#000" d="m80.5 13-.5 1.5q.8 2.3-1.5 1.5L76 17.5zm-27 7-3 4zM84 20q4.9-1.8 3 4.5l-1.5-.5H84zm-42.5 1-1 2zm-4 3L36 26.5q.8 2.3-1.5 1.5zm11 2L46 29.5 44.5 32l-.5-4q3.4.8 4.5-2Zm-16 2-2 3zm35 0-1 2zm65 2-1 2zm16 2 1.5 5.5h-1zm-85 1 .5 3-2.5 1 1.5-2.5zm-40 2-1 2zM40 36l2 .5-2 1zm147.5 1 .5 3-4 1.5q1.1 3.3-1.5 2.5l.5-1.5zM36 40q3.8-1.5 3 1.5L38 44q-3.7 1.2-2-4Zm114.5 2 .5 3.5h-1zm30 3-4.5 5.5q.8 2.3-1.5 1.5l-2.5 4-4 2.5q.8 2.3-1.5 1.5zm-29 6 .5 4.5h-1zM28 56l3 .5-2.5 4.5zm89 0q4.9-1.6 3 4h-4v-1.5zm-20.5 1 2.5 4.5h-1q.7-2.6-2-1.5zm-9 3 2.5.5-3 1.5zm61.5 0 3 1.5q-1.5 3-3 0zm3.5 4 2.5.5-2.5.5zm-101 2 .5 1.5-2 1zM24 68l2 .5-1.5 4.5zm76 0 3 1.5q1.1 4.2-3 2.5zm10.5 1-1 2zm-86 10 1 2zm12 0 3.5 1q1.7 5.2-2 4zm4 7 .5 2.5h-1zm-10 1 1 2zm8 2-3 4-3.5-1 .5-2 3 2z" opacity=".996"/><path stroke="#000" d="m84.5 10 2.5 1v8.5l-3 .5v4l3 1.5-2 9v9l5 7v3L87 62l8.5-5 .5 3q2.7-1.1 2 1.5l3 6-1 4.5 4.5 1 7.5-4.5 3-8.5 5 .5-5 11 3 5-4 1.5-2.5-4-7 4-4.5-3.5L94.5 63q-11.2 4.3-18 13L73 73.5l9-8 4-14-5-7v-9l2-9v-9l-8 7-10 13-4 8 3 8-10 16v2l1 2-3.5 1.5-14-7-.5 1.5 3 6v3l9 17v6q-1.2 2.5-5 1.5v2.5l6 7v2l-8 4L55.5 138q2.3-.7 1.5 1.5l4.5 6.5 3-2 7 6 8-4 4 5 7-5h2l2.5 1q-1.1 2.7 1.5 2l8-7 4 2 7-7h3.5v2.5l-4 5.5-5.5 4h-3q-2.5-4.5-5 1l-5 4h-2l-4-3-6 5h-3l-2.5-5-7.5 4-7-6-2.5 1v14.5l-1 2L78.5 180h2l27-12h3l5.5-3.5q2.3-20.2 12.5-32.5l13.5-7.5-5-4 9.5-10.5q2.6.7 1.5-2l-6-1-1-2.5 16-25-6.5-.5-15 3-4.5-3.5 10.5-1.5 1.5-1.5v-11l5-6-1-1-1-24-3.5-13.5q-9.1 13-14.5 29l-4 2.5-3.5 7.5-.5-3q-2.7 1.1-2-1.5l4.5-6.5q2.3.8 1.5-1.5l15-30 3.5-4.5 2.5 1.5 4 14v4l-1 4 2 3 1 20 1 2-1.5-.5q-2.2-.7-1.5 1.5l1 2-.5 1.5h5l13.5-5 2.5-4q2.3.8 1.5-1.5l4-2.5 5-8q4.1 1.7 3-2.5l4-1.5q-1-3.8 1.5-5l.5 7.5L165.5 65 147 70q-1.2 4.6 1.5 6l11-2 2.5 1q.8 6.1-3 8.5l5 .5 3.5-5q12.6-5.4 20.5-15.5l1.5-2.5.5 6.5-3.5 4.5q-6.6 6.8-15.5 10-1.2 3 2.5 2 1.3-2.3 6-1l3.5 2.5 7 14v10h-1l-8-18-3.5-3.5h-12L155 90l-8 14 7 1 1 2.5-6.5 7.5-4.5 3.5q-1.1 3.3 1.5 2.5l2.5 4.5-7.5 5.5-9.5 4-6 11.5-4 13-1 8-2.5 2.5-16 5-22 10L57 169.5l1-5-1-2 1-1v-10l-3-7-17-24V115l6-2-7-12.5q1.9-3.2 8-1.5l-2.5-7L26 107.5l-7.5 9.5-8 6-.5-5.5 8-6 13-16-11-15v-9q8.5-25.5 23-45l-1.5.5L10 51v-4.5l5.5-5.5 18-13H36l3.5-5 11-7h3q2.8 1.3.5 2.5L46.5 28q-4.6-1.4-2.5 4.5L41.5 36H40v4h-4v3.5q2.5 1.5-1 3L31 56q-5.2-1.8-3 5.5L26 68l-2 .5v7l-1 2 9 12V92l3.5 1 5.5-4v-3q-2.7 1.1-2-1.5l1-4.5-4-1.5-4-14 1-2.5q7.3 1 11.5 6l6 1L60 53.5l-3-11 5.5-6.5q3 .9 1.5-3.5L75 18l5-2 2.5-5z"/><path stroke="#000" d="m114.5 89 2.5 1q-1.1 2.7 1.5 2 3.9 2.6 4.5 8.5l-4 5q2.5 1.5 1 7-1.4 6.1-6.5 8.5l-6 1-10-5-3.5 2 6 8.5-3.5 1.5-4.5-3.5-2.5-3.5-10-9h-2l-6.5 6.5-7.5 12.5-2.5-1.5 3-6V121l-3-1.5-1-2v-12l-4-5v-3q2.7-5.6 10-5.5l-1.5 4-3.5 2.5L71.5 110l2 1q1-4 7-3l4.5 3q-1-4.7 2.5-6 3.1 1.4 2.5 6.5l-1 2 1 2.5q16.4-5.4 28-16.5l-5-7v-2zm-.5 19-8 5-2 3q1 3 8 1l3-3 1-4zm-50 2q-2 7 3 9l3-5z"/><path fill="#5e2830" stroke="#5e2830" d="m82.5 19 .5 2.5h-1zm-6 5-1 2zm111 21-1 2zm-173 3-1 2zm175 12-1 2zm-21 3-1 2zm-81 4-1 2zm8 0 1.5 2.5-2-1zm86 1-2 3zm8 2 .5 26.5h-1L183 83l-8-1.5zm-38 3 6.5.5-6.5.5zm-51 3q1.3 2.8 5.5 2.5l-3.5.5zm8 0-1 2zm4 1 4.5 2.5-2.5.5zm17 0 2 3zm39 0-1 2zm-3 2-2 3zm-155 1L24 102.5 13.5 114l-3 2zm10 2 1 2zm115 0 3.5.5-3.5.5zm18 1-1 2zm-131 2 1 2zm129 1-1 2zm-38 2 2.5.5-3.5 1.5zm-88 1 2 3zm124 0-1 2zm25 0q5-.5 5.5 3.5l10 20v5.5l-3.5 1-12.5 9.5-1 6-3.5 3.5q-9 1.5-13.5 7.5L138.5 179l-51 17q-13.6-4.4-23.5-12.5-1.2-5.2 1.5-6.5l12 9h3l32-14h4l4.5-3.5 1-5.5 14-5 1-2.5 1-11 9.5-9.5 14.5-13.5-1-5 9-9V106h-5.5l-.5-1.5zm-113 2-1 2zm6 0 .5 2.5h-1zm44 0 2.5 3.5-3-2zm36 1-1 2zm-89 1-2 3zm63 1 1 2zm-92 2-1 2zm115 1-2 3zm-83 2 1 2zm-12 2-1 2zm92 0 .5 1.5-2 1zm-29 1-1 2zm-31 2 3.5.5-3.5.5zm28 0-1 2zm-41 1 2 3zm72 1 1 2zm-94 1 1 2zm29 0-2 3zm-49 1-1 2zm117 0 2.5 1.5-8 7 6.5-7.5zm-19 1 .5 5.5h-1zm-83 1 1.5 2.5h-1zm55 1 1.5.5-2.5 1.5zm-17 3 9.5 9.5-1.5 1.5q-6.5 1.5-9.5 6.5l-2.5 9.5-3.5-8.5zm-43 2 .5 3.5h-1zm1 5 1 2z"/><path fill="#5e2830" stroke="#5e2830" d="m136.5 121 3.5 2-1.5 3 .5-1.5zm-77 3 1 2zm61 0-2 3zm-80 1 1 2zm76 2-1 2zm-74 1 1 2zm60 1 3.5.5-3.5.5zm27 1-1 2zm-79 10 1 2zm53 1 2.5.5-2.5.5zm-2 1-4 5zm16 0-1 2zm-39 3q4-.5 4.5 2.5l-2.5-1.5q-3 .5-2-1Zm34 2-1 2zm-10 2-2 3zm-39 1-.5 1.5-.5 2.5-.5-2.5zm-7 10 .5 4.5h-1zm19 16 1 2z"/><path fill="#321617" stroke="#321617" d="m39.5 28-1 2zm42 2 .5 3.5h-1zm44 20-1 2zm-40 1 .5 2.5h-1zm93 2-7 8zm-32 7-3 4zm-65 5-1 2zm101 3-1 2zm-106 1-2 3zm4 3-1 2zm97 0-1 2zm-61 1 1 2zm45 1 1 2zm-61 1 2 3zm42 0-1 2-1.5-.5zm40 0-1 2zm-69 2 1 2zm60 4-1 2zm8 2 1 2zm-7 5 2.5.5-2.5.5zm-14 1 5.5.5-5.5.5zm-43 1 2 3zm39 0-1 2zm-97 3-1 2zm95 0-1 2zm-115 1-9 10zm27 0-1 2zm86 2-.5 1.5-1.5 2.5.5-1.5zm-123 1-4 5zm33 0-1 2zm-6 5 2 3zm8 0 5 6zm58 0-2 3zm-37 3-.5 1.5q1.5 4.4-1.5 3.5l-1-2 1.5.5zm35 1 .5 7.5h-1zm35 0 .5 2.5-2 1zm-135 1-3 4zm55 1-1 2zm-27 2 1 2zm96 1-4 5zm-80 1 .5 2.5h-1zm15 1 10 11zm-20 1 .5 3.5h-1zm33 0-1 2-1.5-.5zm21 0-1 2zm36 0-4 5zm-76 3-1 2zm45 0-2 3zm-19 1 1 2zm-39 1 3 4zm-23 1 1 2zm108 0 2 3zm-50 1 2 3zm42 0 1 2zm-31 1 4.5.5-4.5.5zm-6 4 .5 2.5h-1zm-58 1 1 2zm103 1-1 2-2 1 1-2zm-13 7-2 3zm-30 7-1 2zm-35 3 3 4zm23 0 2.5.5-2.5.5zm1 6 1 2zm-34 1 .5 7.5h-1zm10 0 1 2zm-5 3 .5 2.5h-1zm53 9-1 2zm-53 3 1 2zm-6 1 1.5 2.5-2-1zm14 11 1 2z"/><path fill="#4c1b22" stroke="#4c1b22" d="m170.5 61-1 2zm-77 2 1 2zm92 2-2 3zm4 4-6 7zm-111 5-1 2zm102 3-1 2zm-27 2q3.3-1.1 2.5 1.5l-1.5-.5zm24 0-1 2zm-3 2 6.5 1.5-7.5.5zm-8 8 7.5.5-10 16.5h5.5l.5 1.5-9 9v2l1 3-24 23-1 11-1 2.5-14 5-.5 4-.5-3.5 7-22 5.5-6.5 14.5-7 1-3.5-4-5 11-11v-2l-1-2.5-6-1 8.5-13h8zm11 0 2 3zm-63 6 2 3zm-59 5 3.5 5.5v12l4 6-1.5 4.5-2-4q-2.2.8-1.5-1.5-5-8.5-2.5-22.5Zm59 1-1 2zm8 2 1.5 2.5v12l-6.5 9.5q-3.5 3.5-11 3l-5.5-1-1-5-5-3.5 3.5-2.5 8 5h4l8.5-5.5q3.2-3.3 2-11-2.8-1.7 1.5-3.5Zm-100 1-3 4zm55.5 0 7 1.5-1.5 3.5q-1.4-2.6-6-2l-1.5.5z"/><path fill="#4c1b22" stroke="#4c1b22" d="M145.5 108q3 1.5 0 3zm-129 3-1 2zm-4 3-1 2zm26 0-1 2zm38 0-2 3zm-56 1-1 2zm70 9 1 2zm3 3 1 2zm38 2-1 2zm-4 3-3 4zm-9 4 1 2zm-4 1-5 6zm1 7-2 3zm-27 2-3 4zm6 0 2.5 1.5-1.5.5zm-29 4 1 2zm-9 15 .5 2.5h-1zm64 3-2 3zm-52 10 2 3zm4 3 2 3zm4 3 2.5 1.5-1.5.5z"/><path fill="#993846" stroke="#993846" d="m189.5 43-1 2zm-160 3-.5 1.5-.5 1.5-.5-1.5zm156 1-4 5zm-159 5-.5 1.5-3.5 7.5-.5-1.5zm-5 10 .5 1.5-1.5 3.5-.5-2.5zm166 0-5 6zm-94 2 1.5 4.5 7.5 10.5h3l4-3h2.5l2.5 4 4-2-3 4-9-1-5 2-4-2-9 8-5.5-2.5L91 65zm73 1-1 2-4 1v-1zm-147 3 .5 1.5-1.5 6.5-.5-5.5zm161 0-4 5zm-26 1 2.5.5-6.5 1.5v-1zM65 70l7 2q-1.5 3.8 1.5 3l2.5 1.5-9 2.5zm83.5 1 .5 2 2 .5-3 .5zm8 1 2.5.5-2.5.5zm18 1-1 2-4 2 1-2zm-11 2 .5 3.5h-1zm-145 2 1.5 4.5-2-1zm107 0h3l7 6h3l3-1v1l-2.5 1.5q.8 2.3-1.5 1.5l-2 2-11 1q-4.2-.8-3.5-6.5zm42 0-1 2zm-157 2 1 2z" opacity=".996"/><path fill="#993846" stroke="#993846" d="m150.5 80 4.5.5-13 19-2 7 5 3-9 9v3q5.2 2.2 1.5 4.5-9.3 3.2-14.5 10.5l-1.5 4.5q-2.5-1.2-1.5-5l4-1.5v-2l5.5-5.5 2.5-1.5 1-3q-2.2-1.2-1-6l5-5-1-1-6-12 18-16-4-1zm11.5 0 2 .5-1 2.5-2-.5zM12.5 82l1 2zm8 1 1 2zm-6 2L21 96h3v4h1.5l2.5-1.5-3.5 3.5-1.5-1.5zm8 1 2 3zm90 2-.5 1.5-1 3 5 5v2l-11.5 8.5-12 6 .5-1.5 4.5-6.5 4-1 6.5-4.5-2-6 5-4zm4 0 6 7zm-55 2 1.5.5-3.5 2.5zm5 0 2.5 1.5-.5 2.5-.5-3zm-40 1 3.5 4.5-2 1q2.5-1.5-1-3zm98 7 .5 3.5-2 1zM88 100l2 .5-2 1zm6.5 0q2.6-.8 1.5 2.5h-1zm-29 2 2 3zm12 0 .5 2.5-1 2.5-5 2 3.5-6zm3 1 2.5.5-2.5.5zm6 0 2.5 1.5-1.5-.5-2 1zm38 2 .5 3.5h-1zm-96 1-1 2zm62 1 .5 6.5h-1zm-52 6-2 3z" opacity=".996"/><path fill="#993846" stroke="#993846" d="m124.5 115 .5 2.5h-1zm-89 2 1.5 3.5-2-1zm153 1q2.6-.7 1.5 2l-4.5 1 1-2zm-6 4-1 2zm-144 1 1 2zm50 1 8.5 6.5-1.5.5zm91 0 .5 4h-5v2.5l-1 4-4.5 4.5q-7.8 1.7-12.5 6.5l-2.5 4.5.5-1.5 4.5-6.5 10-4 3.5-3.5q-.4-6.4 3.5-8.5zm-60 2 .5 2-3-.5zm-37 1-1 2zm-40 2 2 3zm58 0 1.5.5-2.5 1.5zm-21 1-1 2zm27 0 3.5.5-3.5.5zm-46 1 1 2zm5 0-1 2zm50 4 1.5.5-9.5 7.5-1-2 2 1zm-68 1 1 2zm29 1 .5 6.5h-1l-1-2zm27 3 1.5.5-2.5 1.5zm-53 1 1 2zm69 0 1.5 2.5-1.5 2.5-.5-1.5 1-2h-2zm-20 2-3 4-2.5-1.5 1.5.5zm-9 1 2.5.5-2.5.5zm26 0-3 4zm-28 1-4 5-1-2 1 1zm22 4-1 2-3.5 1q-1.3-3.3 3.5-2zm-54 2 .5 8.5h-1zm97 0-.5 1.5-1 7.5q-3.8-1.5-3 1.5l-2.5 3.5.5-1.5zm-63 1-1 2zm6 2-1 2-1.5-.5zm19 2 .5 3.5h-1zm-40 4 .5 2.5h-1zm39 2 .5 2.5h-1zm-59 4 .5 3.5h-1zm50 1 1.5.5-3.5 1.5v-1zm39 1 .5 1.5-2 1zm-87 3 3.5 2.5-1.5.5zm84.5 1q3.7-1.2 2 4-3.8-1.5-3 1.5l-1 2.5h-3.5l-38 13v-1l40-13 1.5-1.5zm-79.5 2 2.5 3.5h-1zm24 1 1.5.5-2.5 1.5zm-23 6 1.5 3.5-2-1zm3 4 14.5 8.5-1.5.5q-2.2-3-7.5-2 1.5-3.8-1.5-3zm29 8 1.5.5-3.5 1.5v-1zm-84 2 3 4zm177 0-3 4z" opacity=".996"/><path fill="#9b3947" stroke="#9b3947" d="m27.5 48 .5 1.5-6 10-4 11v10l11 15-3.5 4.5H24v-4q-3.7 1.5-3-1.5l-11-16v-12zm162 9 .5 3q-2.7-1.1-2 1.5L175.5 73l-12 7 .5-1.5q.8-4.7-2.5-5.5l-5-1-1 1H149q-1.3-3.7 4.5-2l13-5h3zm-125 13 2.5 8.5 3.5 3.5 7 4 11 3 10-8 4 2q2.7-2.8 9-2l4 1q4.2-1.3 3.5-6l6 1.5q-4 2-4 8 1.5 5 9.5 3.5l8.5-3 1.5-3 7-1-2 3-4 2L130 98.5l7 13-5 5v5l1 2-2.5 3.5-6.5 5.5-1.5 3.5-7-1-8 7-4-2-8 6-5-2-6 5q-1.5-5-7.5-4v-10.5l3-5.5 9.5-4 6 6h5l5-1 4 1 10.5-3v-2.5l5-8v-12l-1-3 1-4-8.5-10.5q-4.5-1-5.5 1.5l-1.5 2.5-3.5 2.5 2 6-11.5 6.5-1.5-3.5 1-3.5h-7.5l-.5 1.5.5 1.5-5 1-6-2-4.5 3.5-1.5 2.5-7.5-6.5 6-5-2.5-1.5-1.5.5 3-1.5-1.5-4h-6L56 94q.9-5.9-3.5-8L48 83.5q1.7-6.2-1-8l1.5-.5 4 2 3-3z"/><path fill="#9b3947" stroke="#9b3947" d="m67.5 70 5.5 1.5-2.5.5-3-1zm59 6 2.5.5-2.5.5zm-87 33 1.5 4q-3.8-.7-5 2.5l-1 4 20 28 1 3v15l-1 4 9 7-1 7 9 5.5q-1.8 4.9 4.5 3l9 4h6l45-16h3.5l1-4q4.5 1.8 3-3.5-2.5-1.5 1-3l4-9.5q5.3 1.8 3-5.5l6.5-10.5 11-5 4.5-4.5 1-6.5 4 .5-2 3.5q3.8 1 5-1.5-3.2-1.4-2-6.5l6.5-4h3.5l-.5 44-6-9-12.5 6-1 3.5 2 9.5q11.9 1.6 18-2v19.5l-5.5 7.5-3 1h-163l-7.5-5.5-1-3V166l5.5 1q9-4 14.5-11.5L23.5 145l-3.5 6h-8.5l-1.5-1.5.5-2.5 4 1 4.5-1 2-8-4-1 1.5-11q1.3 2.3 6 1 2.8-1.2 1.5-6.5L37.5 110zM23 131l-3 1q-2 5 2 7l4-2q2 1 1-2zm4 7-3 3q2 3 7 3l-1-4q1-4-3-2Zm140 12q-5 3-5 9l11-2 1-3q-1-5-7-4Zm-2 18-2 1-3 4-1 1 4 3q4 1 5-2l-2-5q1-3-1-2Zm6 11-3 1-1 4 2 2q4 1 6-2 2 1 1-2-1-4-5-3Z"/><path fill="#9b3947" stroke="#9b3947" d="m120.5 140 .5 1.5-6 15-1 8.5-13.5 4-19 9-6.5-14.5 1-4 3.5-3.5 8 4 5-6q2.2 3.7 9 3l4-5 4-1 7.5-6.5q-.7-2.2 1.5-1.5z"/><path fill="#120708" stroke="#120708" d="m80.5 19-5 6zm2 4 .5 3.5h-1zm-9 4-2 3zm-38 4-1 2zm110 2 .5 4.5h-1zm-115 2-1 2zm36 1-1 2zm-40 2-1 2zm120 3 .5 3.5h-1zm-128 3-1 2zm167 2-6 7zm2 17-1 2zm-101 4-1 2zm61 3 .5 2.5h-1zm33 0-1 2zm5 2-2 3zm-166 2 .5 4.5h-1zm91 0 3.5 2.5-2.5-1.5zm37 0 1 2zm4 0 3.5.5-3.5.5zm29 2-1 2zm-63 1-1 2-1.5-.5zm14 0 2.5.5-2.5.5zm34 3-1 2zm6 2 2.5 1.5-3 .5zm-148 3 1 2zm142 3 8.5.5-8.5.5zm12 0 3 4zm-151 1 1 2zm131 0 2.5.5-2.5.5zm-94 2 3.5 1.5-.5 1.5-.5-2q-3.3.8-2.5-1Zm91 1-1 2zm-41 1 3 4zm34 1-1 2zm-90 1-1 2zm95 0-1 2zm-7 2-1 2zm-28 1 .5 1.5-3 2zm32 2-1 3 1.5.5-3 .5zm-93 1 1 2zm66 0-2.5 3.5-.5 1.5-.5-1.5zm-99 3-2 3zm6 0-3 4zm57 1-1 2zm-9 2 2.5.5-2.5.5zm29 0-1 2zm-60 1 1 2zm13 0 .5 5.5h-1zm11 0 1 2zm11 0 3.5 2.5-1.5.5zm-39 2 1 2zm111 0-3 4zm-136 1-1 2zm5 1-1 2zm46 0 1 2zm25 2-1 2zm-29 1 2 3 2.5-1.5q-2.5 5-5 0zm83 0-2.5 3.5-.5 2.5-.5-2.5zm-110 1 .5 3.5h-1zm81 0-4 5zm21 0-2 3zm-96 1-1 2zm54 0q4-.5 4.5 2.5l-2.5-1.5-3 1zm-83 2-1 2zm75 3 2 3zm-44 1 1 2zm18 0 .5 1.5-1.5 2.5-.5-1.5zm77 0q3 1.5 0 3zm-42 1 1 2zm-57 1 1 2zm106 1-1 2zm-48 2-1 2-1.5-.5zm-50 1 1 2zm93 0-1 2zm-77 1-1 2zm73 1 1.5.5-4.5 2.5 1-2zm-85 4 2 3zm72 0-1 2zm-76 2 1 2zm80 1-1 2zm-78 2 1 2zm67 0-3 4zm-18 4-4 5-1.5-.5zm13 1-2 3zm-24 1-2 3zm11 4-2 3zm-10 1-1 2zm-4 3-1 2zm34 10 .5 2.5h-1zm-1 4-1 2zm-60 3 2.5 1.5-1.5.5zm11 2 1 2zm-5 2 1 2zm8 0 1 2zm-5 2 1 2zm26 1 1.5.5-2.5 1.5zm-21 3 1 2zm9 2 1.5.5-2.5 1.5z" opacity=".996"/></svg>