<svg xmlns="http://www.w3.org/2000/svg" width="200" height="200"><path stroke="#000" d="m92.5 19 13.5.5-13.5.5zm-14 1 11.5.5L71.5 22v-1q5.5 1.5 7-1Zm30 0q10.2-1.2 16.5 1.5l-4.5.5-1-1h-11zm-44 2 5.5.5L58.5 25v-1zm62 0 2.5.5-2.5.5zm4 1 2.5.5-2.5.5zm4 1 9.5 2.5-2.5.5-7-2zm-79 1 1.5.5-6 4-1.5 7.5-.5-3.5 2-6.5zm90 2 10 4L175 44.5l-.5 3.5q.2-4.7-3-6l-16-10-10-4zm-97 11 .5 4.5h-1zm-1 6 .5 8.5-1.5 8.5-.5-7.5 1-1zm126 5 .5 12.5h-1zm-128 13 .5 6.5h-1zm127 1 .5 8.5h-1zm-128 7 .5 4.5h-1zm127 3 .5 6.5h-1zm-128 3 .5 4.5-1 1v8L40.5 95q-7.6-3.4-20-2L14 98.5l6.5-6.5h13l7.5 2zm127 5 .5 5.5h-1zm-1 7 .5 6.5h-1zm-1 8 .5 6q12.3 1 18 9.5l1 5h-1q-.2-7.2-5.5-9.5l-13.5-5.5zm-155 4 .5 1.5-2 3-.5 9.5-.5-9.5zm0 18 8 10 2.5 1.5-1.5-.5-5.5-4.5zm174 2 .5 4.5q-3.1 10.4-10.5 16.5l-2 1 1-2 3.5-2.5q6.4-6.1 7.5-17.5Zm-162 10 2.5 1.5-1.5.5zm4 2 6.5 2.5-.5 1.5-.5-2q-4.9.8-5.5-2Zm5 5 .5 11.5h-1zm136 6 1.5.5-10 4-.5 5.5-.5-5.5 2.5-2.5zm-135 7 1.5 9.5 4 7v3h-1v-3l-5-11zm125 4 .5 2.5h-1zm-1 4 .5 1.5-5.5 10.5.5-1.5zm-118 13 3.5 7 6 3.5-1.5-.5-6.5-4.5zm112 0-5 6-3.5 1.5q5.5 5.5 8 14h-1l-8-14zm-101 11 2.5 1.5-7.5 13.5-.5-1.5 7-12.5zm101 12 2.5 5.5h-1z" opacity=".082"/><path fill="#8f6e70" stroke="#8f6e70" d="m85.5 27 28.5.5L81.5 32l-7 2-2.5 2.5-2 20-4 15V82l3.5 1 2-1 8.5 2v9.5l-2 6.5-13.5-1-3 1-1-1h-8L47 97l1-2.5L49 81l3-.5q-2.5-1.5-1-7l2-7 1-16 3-15 3.5-4.5 8-2 16-1zm-62 72 4 1 2-1 23 7h9l10 2h24l1-1h53l1 1h6.5l-1.5 4-2-1-28-1-1-1h-35l-1 1h-21l-9-2-16-1-8-3h-7l-6.5 4.5-1.5 2.5-1.5-2.5zm42 30h24l1 1 22 2 22 5 18 6 3.5 2.5-1 6.5-32 9-.5 2q-2.9-7.6-9-12-5.8-4.7-18-3l-9 5-14-7h-8l-8.5 7.5q.9 3-3.5 1.5L41 149v-13.5l1.5-1.5 3-2 19-2zm-24 21 .5 2.5h-1z"/><path fill="#8f6e70" stroke="#8f6e70" d="m98.5 153 5.5.5-5.5.5zm-6 2-1 2zm16 0 1 2zm-47 1-1 2zm20 0 1 2zm8 1-1 2zm22 0 3 4zm-68 1 1.5 2.5-2-1zm2 4 1 2zm11 4-2 3zm93 0-5 6-2 1 1-2zm-31 1 1 2zm-34 2 2.5.5-2.5.5zm44 0 3.5.5-3.5.5zm7 0 1 2zm-53 1-2 3zm6 0 2 3zm32 0 3 4zm-72 2 1 2zm30 1-1 2zm14 0 1 2zm-41 1 1 2zm24 1-1 2zm51.5 0 2 .5-2 1zm-41.5 1 3.5 2.5-1 4.5q-2.8-1.9-9-1l2.5-4zm12 0 1 2zm3 2 1 2zm-8 2 2 3zm14 1 6.5.5-6.5.5zM73 187q4.1-1.7 3 2.5l-2 2-.5 8.5-3.5-6.5zm-13.5 2 .5 4.5-1 6.5h-5v-1.5z"/><path fill="#2f2d38" stroke="#2f2d38" d="M84.5 26h29l6.5 1.5-11.5 1.5v-1l5.5-.5-28.5-.5-1 1-21 2-5.5 3.5-4 17v8L51.5 73l-.5-5.5 2-9 1-17 2-8 2.5-2.5 10-3h7z"/><path fill="#2f2d38" stroke="#2f2d38" d="m100.5 29 6.5.5-6.5.5zm-8 1 6.5.5-6.5.5zm-6 1 4.5.5-2 .5-4 24.5-1 15L80.5 84l-1-1L66 82V71.5l4-15 2-20 2.5-2.5zm-36 43 1.5 6.5-3 .5zm-27 24 11 1 18 6h9l10 2h19l1-1h60l1 1h10l10 2 8.5 5.5 1 6-1 4.5-14.5-10-10.5-2 1-5h-6.5l-1-1h-53l-1 1h-24l-10-2h-9l-24-7-4 1q-1.7-2.7-3.5 1.5l-3 8q1.5 3 3 0l1.5-2.5q3.2-4.3 12-3 5.8 3.7 15.5 3.5l-7.5.5-9-3h-4l-7.5 4.5-2 5.5q-3.7 1.3-2-4.5l-1-3q1.5-6.5 6.5-9.5Z"/><path fill="#2f2d38" stroke="#2f2d38" d="m51.5 108 7.5.5-7.5.5zm9 1 6.5.5-6.5.5zm29 0 35.5.5-35.5.5zm-20 1 18.5.5-18.5.5zm58 0 8.5.5-8.5.5zm11 1 15.5.5-15.5.5zm-98 31 .5 2.5h-1zm22 5-2 3zm5 4 3.5.5-3.5.5zm47 1 4 5zm-51 1-1 2zm-16 11 3.5.5-3.5.5zm85 5 2.5.5-2.5.5zm-40 14 3.5.5-3.5.5zm-33 5q3-.5 1.5 6.5l-1.5 5.5-.5-5.5 1-5h-1L53.5 200l-.5-1.5z"/><path stroke="#000" d="m90.5 20 17.5.5-17.5.5zm-12 1 5.5.5-5.5.5zm37 0 4.5.5-4.5.5zm-45 1 4.5.5-4.5.5zm52 0 3.5.5-3.5.5zm-58 1 3.5.5-3.5.5zm63 0 2.5.5-2.5.5zm4 1 2.5.5-2.5.5zm-74 1 1.5.5-3.5 1.5v-1zm85 2 2.5.5-2.5.5zm6 2 8.5 4.5-1.5-.5-7-3zm-98 4 .5 2.5h-1zm108 1 3.5 2.5-1.5-.5zm-109 3 .5 2.5h-1zm114 0 3.5 2.5-1.5-.5zm5 3 1 2zm3 2q3.5 1 2.5 6.5h-1q.6-5.5-1.5-6.5Zm-123 1 .5 5.5h-1zm-1 10 .5 4.5h-1zm125 1 .5 8.5h-1zm-126 7 .5 5.5h-1zm125 6 .5 5.5h-1zm-126 2 .5 4.5h-1zm-1 6 .5 2.5h-1zm126 1 .5 4.5h-1zm-127 5 .5 4.5h-1zm126 3 .5 3.5h-1zm-127 6 .5 2.5h-1zm126 1 .5 4.5h-1zm-148 2 1.5.5-7 6-.5 1.5-.5-1.5zm11 0 2.5.5-2.5.5zm5 1 2.5.5-2.5.5zm5 0 .5 2-2-.5zm126 4 1.5 4.5-2 .5zm-155 6 .5 2.5h-1zm169 3 5.5 7.5h-1zm-169 4 .5 3.5h-1zm1 5 1.5 2.5-2-1zm174 1 .5 2.5h-1zm-172 3 2 3zm171 2 .5 2.5h-1zm-168 2 3 4zm5 4 6.5 3.5-1.5.5q-4.6-1.2-5-4Zm160 3-.5 1.5-2.5 3.5 1.5-2.5zm-148 5 .5 13.5h-1zm144 1-2 3-6 3v-1zm-18.5 8 2 .5-2 1zm-.5 6 .5 2.5h-1zm-124 2 .5 2.5h-1zm3 10q3.3 1.7 2.5 7.5h-1q.5-5.8-1.5-7.5Zm115 5-.5 1.5-5.5 6.5-2 1 1-2 5.5-4.5zm-111 6 1 2zm101 3v3q-3-1.5 0-3Zm-97 1 1 2zm3 2 2.5 1.5-1.5.5zm95 1 1 2zm-91 1 1.5 2.5-2 1 1-2zm93 2 5.5 10.5h-1zm-94 3-.5 1.5-1.5 2.5.5-1.5zm-3 5-.5 1.5-2.5 5.5-.5-1.5z" opacity=".831"/><path stroke="#000" d="M0 0h200v200h-43.5l-.5-1.5-7-15-4-5 9-7 5-9 3-10v-5l1.5-1.5q12.6-1.4 18.5-9.5l6-12v-11l-6.5-7.5-9-4H169l3-29.5 1-1 2-27Q161.1 31.4 140.5 25l-21-5-27-1-1 1h-13l-1 1-13 1L51 27l-4 17.5-2 25-3 12q.7 8-1 12.5l-7.5-2h-13q-6.6 4.4-9.5 12.5v9q3.1 9.9 10.5 15.5l10 5H35q-2.1 4.8-1 14.5l2 11q4.5 4.5 5 13l5.5 7.5 7.5 3-7 12.5-1 4.5H.5l-.5-.5z" opacity="0"/><path fill="#9b3b33" stroke="#9b3b33" d="M76.5 83q4.6-.6 6 2l32 3 23 5 24.5 3v5h-14.5l-1-1h-41l-1 1h-37L64 99.5l2.5-.5 1 1H78l2-6.5V84q-4.4 1-3.5-1Zm-18 16 2.5.5-2.5.5zm15 87 13 3h16l1-1h8q3.2 2.3 2.5 8.5l-1 3.5H99.5l-7-4h-4l-10 4H74v-8.5q2.8-1.1 2-4.5-3.3.8-2.5-1Z"/><path fill="#2a2831" stroke="#2a2831" d="M115.5 28h5l26 7L167 47.5l-2 26-3 18.5q-2.7-1.1-2 1.5l1 2.5-2.5-1-13-1-24-5-17.5-2q1.6-4.9-4-3l-.5 2h-8L81 84l3-12.5 1-15L89 32l2.5-1h7zm-92 80-1 2zm43 2 2.5.5-2.5.5zm92 3 2.5.5-2.5.5zm20 11 1 2z"/><path fill="#2b2327" stroke="#2b2327" d="m162.5 43 1 2zm5 4 .5 4.5h-1zm-1 11 .5 6.5h-1zm-1 11 .5 4.5h-1zm-1 9 .5 3.5h-1zm-1 7 .5 4.5h-1zm-1 8 .5 5.5h-1zm-141 6-1 2zm84 1 4.5.5-4.5.5zm33 0 8.5.5-8.5.5zm16 6 3.5.5-3.5.5zm-134 11 1 2zm3 4 1 2zm47 1 11.5.5-11.5.5zm-44 1 1 2zm35 0 4.5.5-4.5.5zm27 0 6.5.5-6.5.5zm-35 1 4.5.5-4.5.5zm45 0 3.5.5-3.5.5zm-51 1 2.5.5-2.5.5zm58 0 3.5.5-3.5.5zm-60 1-1 2-2.5-.5zm67 0 3.5.5-3.5.5zm6 1 2.5.5-2.5.5zm-47 1 9.5.5-9.5.5zm52 0 2.5.5-2.5.5zm54 2-1 2zm-132 1-1 2zm127 4-1 2zm-132 4 .5 2.5h-1zm120 0 2.5.5-2.5.5zm-101 11-1 2zm23 6 1 2zm66 12-2 3zm-7 18 1 2h-2l-1.5-.5zm-31 1 2.5 1.5-1.5-.5zm-24 1 2.5.5-2.5.5zm57 1 1 2zm-82 1 3.5 2.5-1.5-.5zm71 0 1.5.5-5.5 2.5v-1zm-12 4 3.5.5-3.5.5zm-32 2 4.5.5-4.5.5zm31 1 .5 2.5h-1z"/><path fill="#29272f" stroke="#29272f" d="m120.5 27 3.5 1.5-2.5.5zm9 3 2.5.5-2.5.5zm24 8 1 2zm5 3 1 2zm3 2 1 2zm5 9 .5 5.5h-1zm-1 13 .5 3.5h-1zm-1 9 .5 3.5h-1zm-1 8 .5 2.5h-1zm-1 8 .5 2.5-1.5 3.5-1.5-4q2.8 1 2.5-2Zm-143 25 2 3zm3 4 3 4zm44 3 3.5.5-3.5.5zm16 0 5.5.5-5.5.5zm-24 1 2.5.5-2.5.5zm37 0 2.5.5-2.5.5zm7 1 3.5.5-3.5.5zm73.5 0 3 1.5q1.1 4.2-3 2.5zm-66.5 1 2.5.5-2.5.5zm66 7-2 3zm-13 6 2.5.5-2.5.5zm-21 49q5.1 5 6.5 13h-27.5l-.5-5 7.5-1zm-80 4 2.5 1 1 8h-5v-2.5z"/><path fill="#2a2830" stroke="#2a2830" d="M100 84q5.6-1.9 4 3l-4-1zm-70.5 21 8 1 4 2h8l17 3h21l1-1h37l1 1h10l1 1h18l16 6 6.5 5.5-2 .5v4h1.5l-.5 1.5-5.5 6.5-12 3-12-5-30-8-19-2-1-1h-9l-1-1h-21l-1 1-19 2-7 3-12-4-5.5-5.5-2-5 5.5-6.5z"/><path stroke="#000" d="M84.5 21h30l24 5q20.1 6.4 34.5 18.5l-1 22-1 1v8l-1 1v7l-1 1-2 18.5q12 .7 18 8.5 3 3 2 10-2.3 11.2-9.5 17.5-6.5 5.3-16.5 6-.9 19.9-12.5 30l-5.5 3.5 4 5 8 16-6 .5q-2.5-11.8-10.5-19l-6 2h-6l-8.5 3 1 2.5V200h-5v-10.5l-1-2.5h-6.5l-1 1h-21l-11-2q-4.8 2.2-3.5 10.5l2 3-4.5.5q-3.7-2.2-2.5-9.5l2-5.5-3.5-1-5.5 4.5-6.5 11.5-4.5-.5 9-16-11-7q-3.9-2.6-3-10l-5-9-1-5V133q-11.9-1.4-18-9.5-6-5-6-16 1.8-9.2 8.5-13.5 3.2-2.3 10-1L42 96l2-10.5v-7l3-12 2-26L52 28l10.5-4 21-2zM80 26l-8 2h-6l-8 3-3 4-2 10v10l-1 1-1 15-3 11v8l-2 8 8 2h9l11 2h12l1-1h70l5 1 1-1 1-15 2-8 2-31-22-14-18-5q-7 1-9-2zM23 98l-6 8q-1 10 4 14 5 7 17 9h7l4-3 12-1 1-1h9l1-1 22 1 1 1 21 2q23 5 43 13h6l8-3q6-5 9-13 1-7-1-10-5-6-13-7-5 1-6-1h-23l-1-1h-26l-1 1H67l-1-1-14-1-19-6zm46 30-1 1-22 2-3 2-3 5v12l4 13q1 3 8 2l5-11 8-7h8l13 6 9-4q5 2 7-1l8 2 5 3q6 7 10 16 3 2 10 1l2 3-2 3 1 1 10-5q6-5 8-12l3-16-23-8-17-4-20-2-1-1h-9l-1-1zm-2 23-2 1-5 5-4 10-3 2h-6v3q5 6 15 8l10-1 14-9 19 12q17 1 25-6l-4-2q-8-5-11-14l-9-7H96l-8 5h-3q-5-5-13-7zm19 24-7 5q-3-1-2 2l11 2h9z" opacity=".996"/><path stroke="#000" d="M87.5 197q6.9-.9 9.5 2.5l-15.5.5v-1z" opacity=".996"/><path fill="#d4c9ca" stroke="#d4c9ca" d="m41.5 149 13.5 6.5-4.5 8.5q-4.7.8-5.5-2.5l-3-6zm25 3h5q8.2 1.8 13 7h4q4.3-6.7 17-5l9.5 7.5 8.5 12.5 3.5 1q1.1 2.7-1.5 2l-11 4h-10l-16-11-4-1-11 8-6 2h-6q-8.6-1.9-13.5-7.5-.9-3.4 4.5-1.5l4.5-3.5q1.9-8.6 7.5-13.5zm87 0 1.5.5-5 13-5.5 5.5-7 3-.5-2.5-1.5-2.5q-8.5 2-10.5-2.5l-2-5.5 20.5-5z"/><path fill="#d4c9ca" stroke="#d4c9ca" d="m89.5 179 4.5 3.5-6 .5z"/><path fill="#161214" stroke="#161214" d="m79.5 26 2.5.5-2.5.5zm37 0 2.5.5-2.5.5zm9 2 2.5.5-2.5.5zm4 1 2.5.5-2.5.5zm24 8 1 2zm5 3 1 2zm5 3 1 2zm-110 1 .5 3.5h-1zm113 1 1 2zm1 7 .5 4.5h-1zm-116 11 .5 2.5h-1zm115 2 .5 3.5h-1zm-1 9 .5 3.5h-1zm-1 8 .5 2.5h-1zm-1 8 .5 2.5h-1zm-1 9 .5 1.5q-1 2.5-5.5 1.5v-1q5.4 1.7 5-2Zm-52 1 27.5.5-27.5.5zm-37 1 12.5.5-12.5.5zm-19 3 2.5.5-2.5.5zm57 1 26.5.5-26.5.5zm-37 1 11.5.5-11.5.5zm84 0 3.5.5-3.5.5zm7 1 2.5.5-2.5.5zm14 5 1 2zm-161 3 1 2zm3 4 1 2zm4 4 1 2zm41 0 4.5.5-4.5.5zm15 0 6.5.5-6.5.5zm-23 1 2.5.5-2.5.5zm36 0 3.5.5-3.5.5zm-44 1 3.5.5-3.5.5zm52 0 2.5.5-2.5.5zm-56 1 1.5.5q-1.7 3.3-7.5 2.5v-1q5 1 6-2Zm63 0 2.5.5-2.5.5zm-41 2 2.5.5-2.5.5zm13 0 4.5.5-4.5.5zm-22 1 2.5.5-2.5.5zm118 2-5 6zm-110 15 2.5.5-2.5.5zm-27 1 .5 2.5h-1zm57 1 3.5.5-3.5.5zm5 0 2.5.5-2.5.5zm10 9 2 3zm6 0 1 2zm-74 5 2 3zm8 1-1 2zm65 1 1 2zm-70 5 2.5.5-2.5.5zm74 1 2 3zm8 5-1 2zm7 6q4-.5 4.5 2.5l4 6-2-1-1.5-2.5-14 7-7.5 1-.5 3q.5-7.6-1.5-11zm-49 2 2.5.5-2.5.5zm-24 1 3.5 1-2.5 7-3.5-2.5-.5-2.5-2.5 1.5zm18 3 2.5.5-2.5.5zm25 0 3.5.5-3.5.5zm-17 1 11.5.5-11.5.5zm-32 2-1 2zm89 3 2.5 5.5h-1zm-81 4 1.5 2.5-2-1z" opacity=".996"/></svg>