<svg xmlns="http://www.w3.org/2000/svg" width="200" height="200"><path stroke="#000" d="M0 0h200v200h-8.5l-.5-1.5 1-3-3.5-6.5-2.5-1.5q.9-6.9-3.5-8.5l-8.5-2.5 1-1 1-21 2-8v-11l4-23q-1.5-6.9-6.5-10.5L155 93.5l5-7 1-9 2.5-2.5 2.5-1.5q4.5-4.5 4-14l-3-7q3-2 2-8l-5-9.5-12-5-3.5-6-2.5-1.5v-5l-5.5-6.5-8-2-7 3-1-1h-8l-5.5 3.5q-3.8 3.2-2 12l4 5-1 3 4.5 7.5 9 1h2l4.5 2-1 6.5.5 1.5q-5.7 1.3-8.5 5.5l-3.5 6.5q-1.8-2.7-8-1-9.5 1.5-14.5 7.5L92.5 81h-9l-1-1h-31L49 81l-9 24.5v4l-3 9-4 21-2.5 23.5q-2-3-8-2l-7.5 6.5-1 6 1 2.5-5 3.5-2 8 2 3q-3.6 1.9-3 8l.5 1.5h-7l-.5-.5z" opacity="0"/><path stroke="#000" d="m132.5 10 3.5.5-3.5.5zm9 3 2 3zm4 10 1 2zm-35 3 3 4zm41 5 2.5.5-2.5.5zm-38 1 .5 2.5h-1zm47 2 4 5zm-46 3 1 2zm51 3 1 2zm-37 1 2 3zm39 6 .5 2.5h-1zm-37 7 2.5.5-2.5.5zm-4 2-1 2zm42 4 .5 4.5h-1zm-57 5 7.5.5-7.5.5zm55 5-1 2zm-4 4-1 2zm-68 6 .5 1.5-3.5 1.5v-1q3.5 1 3-2Zm-40 1 27.5.5-27.5.5zm99 12 1 2zm16 7 2.5 1.5-1.5.5zm10 18 .5 2.5h-1zm-1 7 .5 2.5h-1zm-1 7 .5 2.5h-1zm-143 7 .5 2.5h-1zm142 1 .5 6.5h-1zm-143 6 .5 2.5h-1zm142 5 .5 2.5h-1zm-143 3 .5 3.5h-1zm142 5 .5 3.5h-1zm-154 4-3 4zm9 0 2.5 1.5-1.5.5zm144 6 .5 6.5h-1zm2 9 2.5.5-2.5.5zm-164 2-.5 1.5-.5 1.5-.5-1.5zm-2 4 .5 3.5H9zm-1 11 .5 2.5H8zm182 0 .5 2.5h-1z" opacity=".843"/><path stroke="#000" d="M130.5 11q11.1-1.6 13.5 5.5l1 3-1 4.5 6 3.5 1.5 5.5 3-1q7.2 1.8 10.5 7.5l3 7-3 8q4.7 2.8 3 12l-4.5 7.5-4.5 3.5 1 4-3 8-4 4 21.5 9.5 3.5 3.5q2.9 3.6 2 11l-2 6v2l-5 53.5q8.2-1.5 11 3.5l1 4-1.5 2.5 5.5 2.5 1 8.5q-6.4 2.3-4-5.5l-8-4 2-6q-.7-2.2-4.5-1.5l-3.5 2.5-1 2V200l-3-.5v-18l1-1 1-21 2-8v-12l1-1 3-27-2.5-3.5q-6.2-5.4-15.5-7l-3 17.5v10l-2 5v14l-1.5 1.5-2.5-1.5q-1.7-6.2 1-8l-1-2 1-1v-11l2-6 2-20.5-11.5-4-21-5h-7l-23-4h-19l-4-1q-1.7 2.8-8 1h-4q-6.3-2.2-4.5 3.5l-6 15-3 16-3 8v6l-3 15v8l-1 1v10l-1 1 1 2-1 3v25l-3 .5v-29.5l-1.5-.5-6-4-3.5 2.5-1 6q3 1.3 2 5.5h-5.5l-.5 1.5q-2.7.8-2 5l4 2.5q1.5 3.8-1.5 3-4 .5-3.5 5.5l3 2-5.5.5Q8 199 9 194.5l3-6h-2v-5l4.5-6.5 2.5-1.5q-2.2-1.2-1-6l5.5-6.5 5-1 5.5 3 1-15.5 5-29q3.5-7 4-17L50 82l3.5-1 1 1h36l3 1 1.5-1.5 1-6 4.5-5.5 8-4h12l1.5-1.5q1.3-5.7 5.5-8.5l5.5-1-1-5.5 1-5.5-4.5-3h-4l-4 1-4.5-2.5q-3.4-2.6-2-10l-4-4v-6l3.5-5.5q2.9-2.6 9-2l5 1zm1.5 4-3 2h-8l-1-1-3 1-3 4 1 5 5 1 1 4-3 1q-1 5 3 6l5-1 3-5 4 2-2 4 4 2h2l3 2v3l-4 4v3l7 8 1 1h-3l-6-3-4 1-5 5-1 7-1 1-5-2q-11-1-15 3l-5 7v3l2 1q4-1 6 1l20 2 12 3 2 2q7 1 10-2l4-6-1-10 7-3 3-5q1-5-1-6 1-3-2-2-5-2-2-3-1-3 2-2l2-4v-4l-3-6-5-3h-6q-2 3-4-1l1-5-6-3 1-7-4-5z" opacity=".996"/><path stroke="#000" d="m63.5 113 5 1 4.5 3.5 4 8v22l-3.5 4.5h-15l-3.5-2.5-2-8v-15l5-11.5zm-.5 4-5 6-2 8 1 2-1 4 2 10 2 1q6-2 8 1l5-1 1-2v-14l-2-9q-2-6-9-6Zm44.5 0q11.1-1.6 13.5 5.5l3 9v11l-2 10-1.5 1.5q-17.8 2.3-25.5-5.5l1-15q2.7-2.3 2-8l4.5-5.5zm5.5 3-8 3q-7 8-6 24l7 3h11l1 1 2-6q2-13-2-20zm35 38q5.3-1.8 3 5.5l-2 10v18l-1 1v7.5l-3-.5v-22l1-1v-9zm-90.5 2h9l1 1 2-1 3 1 37 1 1 1h10l2.5 2.5q-.2 11.3-7.5 15.5-6.9 5.1-17 7h-12l-14-3-12.5-8.5-4-7v-8zm4.5 3-3 1v4l4 7 12 7 8 2h17l13-5q6-4 6-12l-2-1h-12l-1-2-4 1-37-1z" opacity=".996"/><path stroke="#000" d="m132.5 9 3.5.5-3.5.5zm-16 2 8.5.5-8.5.5zm24 0 4 5zm-28 2-1 2zm36 11 2 3zm3 4 .5 2 2 .5-1.5.5zm-39 4 .5 2.5h-1zm53 6 1 2zm-50 2 1 2zm3 2 2.5.5-2.5.5zm5 0 2.5.5-2.5.5zm45 2 .5 5.5h-1zm-37 3 .5 4.5h-1zm35 6 1.5 2.5-2-1zm-40 2-3 4zm43 4 .5 5.5h-1zm-47 1-.5 1.5-.5 1.5-.5-1.5zm-11 4 7.5.5-7.5.5zm-9 3-1 2zm-3 2-2 3zm68 1-1 2zm-71 3-1 2zm69 0-1 2zm-4 3-.5 1.5-.5 1.5-.5-1.5zm-107 4 28.5.5-28.5.5zm39 0 .5 2-6-.5zm67 1 .5 2.5h-1zm-3 9-3 4zm18 12 3 4zm-135 3 .5 2.5h-1zm141 7 .5 2.5h-1zm-1 5 .5 3.5h-1zm-143 1 .5 2.5h-1zm-1 5 .5 2.5h-1zm143 0 .5 4.5h-1zm-144 4 .5 3.5h-1zm143 3 .5 4.5h-1zm-144 3 .5 2.5h-1zm143 5 .5 8.5h-1zm-144 1 .5 3.5h-1zm-1 7 .5 4.5h-1zm144 4 .5 3.5h-1zm-145 4 .5 6.5h-1zm144 3 .5 5.5h-1zm-155 5-1 2zm-4 4-.5 1.5-.5 1.5-.5-1.5zm158 0 .5 9.5h-1zm-160 5 .5 2.5h-1zm-1 5-3 4zm161 1 3.5.5-3.5.5zm8 2 2 3zm3 4 1.5 5.5-2-1zm-177 1 .5 3.5H8zm180 5 1 2zm-181 6 1.5 4.5-2-1zm184 0 .5 2.5h-1z" opacity=".129"/><path fill="#6b3629" stroke="#6b3629" d="M117.5 18q3.8-1.2 2.5 2.5 2.5 1.5-1 3 .7 3-3 1.5-1.5-5.4 1.5-7Zm22 2 .5 2.5h-1zm-1 5 .5 2-9.5 5-4 4 4-5h2zm-4 6q3.8-.7 4.5 1.5 1.3 5.3-1.5 6.5-4.5 1-5.5-1.5zm5 14-1 2zm17.5 2 5 1-3.5 5zm-19.5 1 .5 2.5h-1zm17 6 3.5.5-3.5.5zm-3 1-.5 1.5q.4 6.4-3.5 8.5l-3.5-2.5 1-4.5zm-25 14 8 9-4-4-3 3-2 1-6-4q-1.5 2.5-7 1l-1.5 1.5-2 7.5q-2.1-1.6-7.5-1l-1.5-1.5q.5-5.5 4.5-7.5 4.5-4 14-3 1 3 6 2 3.7-2 2-4Zm24 9 3 4 1.5-.5-4.5 7.5-8 2-5.5-9.5 1.5.5q9.2 1.2 12-4Zm-128 90-.5 1.5-.5 1.5-.5-1.5zm5 0 3.5 3.5V200H18.5l-4.5-3.5 1.5-2.5 3.5-1q1-4.7-2.5-6l-1.5-.5v-2l2.5-3.5q4.5 1 5.5-1.5-.7-2.6 2-1.5v-4.5l5-2z"/><path fill="#6b3629" stroke="#6b3629" d="m21.5 174 1.5 2.5h-1zm43 0 1 2zm111 10-1 2-1.5-.5zm3 0q3 1.5 0 3zm-6 3 4 2 1.5-.5-1 2 2.5 2.5 5.5 1v6h-13z"/><path stroke="#000" d="m139.5 11 1 2zm-26 2-3 4zm32 5 .5 4.5h-1zm-36 1 .5 6.5h-1zm38 5 3 4zm-37 3 3.5 4.5h-1zm51 7 3 4zm-47 4 3 4zm51 1 1 2zm-39 2 3.5 2.5-2.5-1.5zm5 3q2.6-.8 1.5 2.5h-1zm35 11 1 2zm-42 3-1 2zm-21 9-1 2zm-3 2-3 4zm65 3-3 4zm-69 2-.5 1.5-.5 1.5-.5-1.5zm-46 7-1 2zm32 0 5.5.5-5.5.5zm75 8-1 2zm17 13 4 5zm6 12 .5 2.5h-1zm-3 21 .5 2.5h-1zm-143 1 .5 2.5h-1zm-1 7 .5 2.5h-1zm143 4 .5 2.5h-1zm-144 4 .5 2.5h-1zm143 3 .5 2.5h-1zm-152 7 2.5.5-2.5.5zm8 0 .5 3-2-.5zm143 2 .5 2.5h-1zm-156 1-1 2zm-3 9 .5 2.5-6 5q4.9-1.6 5.5-7.5Zm158 3 1.5 2.5-2 .5zm8 3 1 2zm6 10 2 3zm-177 1 .5 1.5-2 1z" opacity=".471"/><path fill="#020201" stroke="#020201" d="m116.5 17-1 2zm8 0 3.5.5-3.5.5zm20 3 .5 3.5h-1zm0 8 1 2zm1 7 1 2zm3 1 2.5.5-2.5.5zm4 0 2.5.5-2.5.5zm-32 1 3.5.5-3.5.5zm20 4 .5 2.5h-1zm-4 7 1.5 4.5-2-1zm5 8 2.5 3.5h-1zm-9 2 2.5.5-2.5.5zm31 2 .5 5.5h-1zm-38 6 .5 3.5h-1zm36 3-1 2zm-6 2-1 2zm-52 2-2 3zm-35 12 3.5.5-3.5.5zm46 0 3.5.5-3.5.5zm-28 1 5.5.5-5.5.5zm11 1 4.5.5-4.5.5zm8 1 2.5.5-2.5.5zm26 0 2.5.5-2.5.5zm8 2 4.5 1.5-3.5.5zm18 13 .5 2.5h-1zm-5 7 .5 2.5h-1zm4 0 .5 2.5h-1zm-92 3 2.5.5-2.5.5zm111 2 .5 2.5h-1zm-118 1-1 2zm5 1 3.5.5q-5.1-.1-6.5 3.5zm42 1-1 2zm13 0 3 4zm38 0 .5 2.5h-1zm-85 3 1.5 2.5h-1zm37 0 1.5.5-2.5 1.5zm7 0 3 4zm60 0 .5 2.5h-1zm-70 2-1 2zm-7 4 .5 2.5h-1zm-57 1 .5 3.5h-1zm133 0 .5 3.5h-1zm-96 1 .5 16.5h-1zm-25 1 .5 7.5h-1zm21 1 .5 14.5h-1zm27 1 .5 2.5h-1zm53 1 .5 4.5h-1zm-4 1 .5 2.5h-1zm23 1 .5 3.5h-1zm-77 2 .5 6.5h-1zm4 0 .5 6.5h-1zm-61 3 .5 3.5h-1zm19 1 .5 3.5h-1zm-4 1 .5 3.5h-1zm66 0 .5 2.5h-1zm4 1 .5 2.5h-1zm48 4 .5 4.5h-1zm-104 1 2.5.5-2.5.5zm51 0 .5 1.5-2 1zm-81 1 .5 2.5h-1zm58 0 1 2zm10 0 3.5.5-3.5.5zm-42 3 8.5.5-8.5.5zm52 2 4.5.5-4.5.5zm55 1 .5 3.5h-1zm-134 3 .5 3.5h-1zm20 2-.5 1.5-.5 6.5-.5-6.5zm16 0 14.5.5-14.5.5zm24 1 7.5.5-7.5.5zm14 1 4.5.5-4.5.5zm11 1 1 2zm-40 1 4.5.5-4.5.5zm18.5 0q5.2-1.7 4 2-5.2 1.7-4-2Zm50.5 0 .5 3.5h-1zm19 0 .5 7.5h-1zm-56 2 3.5.5-3.5.5zm-91 1-1 2zm123 5 .5 4.5h-1zm4 1 .5 3.5h-1zm-114 1 .5 25.5h-1zm23 0 1 2zm5 0 1 2zm53 0-4 5zm52 4 .5 2.5h-1zm5 6-1 2zm-91 3 3.5.5-3.5.5zm89 0 .5 12.5h-1zm-4 2 .5 10.5h-1zm-149 1 .5 1.5-3.5 2.5 1-2q2.5.7 2-2Zm130 2 .5 7.5h-1zm-117 1 .5 6.5h-1zm153 0 1 2zm-171 4 1 2z" opacity=".996"/><path fill="#6a9e4b" stroke="#6a9e4b" d="m152.5 101 .5 2.5h-1zm-91 2 8.5.5-8.5.5zm-3 1 1.5.5-7.5 5.5 4-5zm13 0 7.5 6.5-5.5-4.5zm39 0q14.8-1.7 18.5 7.5 4.3 5.2 5 14h-1q-1.4-12.6-9.5-18.5-4-3.5-13-2zm-5 2 1.5.5-2.5 1.5zm46 0 .5 3.5h-1zm-39 1 5.5 6.5-2.5 1.5-4.5-1q-1.5-5.4 1.5-7Zm-10 1-1 2zm-51 3-.5 1.5-1.5 3.5-.5-1.5zm47 0-2.5 3.5-5.5 11.5-.5-1.5q2.4-8.6 8.5-13.5Zm52 1 .5 4.5h-1zm-102 5 .5 1.5-1.5 3.5-.5-2.5zm101 3 .5 3.5h-1zm-103 3 .5 3.5q-2.8 1.8-1 8l2 10 3 7-5 12v12l5 12 3 3-1.5.5q-6.2-4.7-9.5-12.5l-2-9v-12l1-5.5q6.4 2.3 4-5.5l-1-1v-18zm37 0 .5 2.5h-1zm6 4 .5 2.5h-1zm45 0 1.5 6.5v10h-1zm14 2 .5 4.5h-1zm-64 1 .5 7.5h-1zm3 4 .5 3.5h-1zm60 4 .5 17.5-1.5 2.5-.5-1.5 1-1zm-61 1 .5 3-2-.5zm47 12 .5 2.5h-1zm12 8 .5 5.5h-1zm-9 1 .5 4.5-2.5 12.5-.5-3.5 1-1v-9zm-59 5 4.5.5-4.5.5zm23 2 .5 2.5h-1zm5 0 .5 3.5h-1zm39 1 .5 4.5h-1zm-74 1 .5 3q5.2 2.1 4-2.5h1l-1 3 1 1v6.5l-5-1zm15.5 4 5 1v8.5l-1.5.5h-2l-1.5-.5zm19.5 1 .5 2.5 1 4-5.5 1.5-.5-7zm38 3 .5 22.5h-1zm-13 8-8 9zm-73 8 2.5 1.5-1.5.5zm62 1 1.5.5q-5.2 4.8-14.5 5.5v-1q8.5-.5 13-5Zm-47 5 3.5.5-3.5.5z"/><path fill="#283424" stroke="#283424" d="M118.5 17q3.8-.7 4.5 1.5l-2 .5-1.5 3 .5-1.5q1.1-3.3-1.5-2.5zm20 0 1 2zm-22 1-.5 1.5-.5 4.5-.5-4.5zm21 9 7.5 3.5-1 4 1 2.5q2.8 1.9 9 1 1.3 3.3-3.5 2l-7 2-3 3 .5-1.5-1.5-3.5-4.5-.5 4-2q1.3-5.2-1.5-6.5l-5 1 3-4zm22 13 1 2zm-7 15h5.5v2.5l3 1.5-1 5q2.7-1.1 2 1.5l-3.5 4.5-3-1-3 1-4.5-5.5 2-2 1-6zm7.5 10-2 3h2zm-17.5-9 2 3zm-16 14-2 3-1.5-.5zm-20 2-1 2zm47 0 .5 2.5h-1zm-50 2-1 2zm16 0 6 4 5-4q6.9 5.6 10.5 14.5l-1.5.5-3.5-1-.5-5-1.5 4-11.5-2-3-2q-1.4 2.6-6 2l-4.5-1q0-5.8 3.5-9 5.5 1.5 7-1Zm-15 9 2.5.5-2.5.5zm-51 3 8.5.5-8.5.5zm22 0 4.5.5-4.5.5zm77 13 1.5 2.5h-1zm17 7 1 2zm3 2 2 3zm-111 4 4.5.5-4.5.5zm-2 1-4 5zm9 0 2.5 1.5-1.5-.5zm106 3 .5 2.5h-1zm-70 1-1 2zm13 0 4 5zm-54 1q4.8.3 6.5 3.5 4.9 8.6 3 24-.7 3.3-5.5 2.5l-1-1H59l-1-2.5v-19l3-6.5zm45 4q7.3-1.2 8.5 3.5l2 5v15l-1 4.5-11.5-1-6.5-2 2-18.5 4.5-5.5zm-12 5 .5 2.5h-1zm53 1 .5 2.5h-1zm-25 1 .5 2.5h-1zm48 1 .5 2.5h-1zm-94 1 .5 6.5h-1zm70 7 .5 4.5h-1zm23 0 .5 3.5h-1zm-77 2 .5 3.5h-1zm-42 2 .5 2.5h-1zm72 0 .5 2.5h-1zm29 5 .5 1.5-2 1zm-59 1 2.5 3.5-3-2zm29 0 .5 2.5h-1zm25 0 1 2zm-94 2 1 2zm22 0-2 3-1.5-.5zm-19 2 2.5.5-2.5.5zm65 1-2 3-3.5-.5q4.3.3 5.5-2.5Zm-17 1 3.5.5-3.5.5zm64 3 .5 2.5h-1zm-103 2 13.5.5-13.5.5zm29 1 4.5.5-4.5.5zm-41 1 .5 5.5h-1zm54 0 4.5.5-4.5.5zm43 2 .5 2.5h-1zm-91 1 5.5.5-5.5.5zm-24 1 .5 6.5h-1zm50 0 9.5.5-9.5.5zm15 1 8.5.5-8.5.5zm44 1 .5 2.5h-1zm23 0 .5 3.5h-1zm-45 1 .5 2.5h-1zm-61 4 1 2zm-5 2 1 2zm64 1-1 2zm-62 2 2 3zm85 0 .5 5.5h-1zm-25 1-2 3zm-97 1-1 2zm41 1 1 2zm104 0 .5 2.5h-1zm-52 1-1 2zm-27 2 8.5.5-8.5.5zm24 0-1 2zm-11 4 2.5.5-2.5.5zm-18 1 3.5.5-3.5.5zm14 0 2.5.5-2.5.5zm52 0 .5 11.5h-1zm17 5 .5 4.5h-1z"/><path fill="#727831" stroke="#727831" d="m129.5 17-1 2-4.5-.5zm-7 2-1 2zm0 9 .5 2.5-2 1zm-3 7 1 2zm32 5q7.7-1.7 9.5 2.5l1 5.5-5-2.5q.5-4-2.5-4.5-4 .8-3-1Zm-12 13 1 2zm-7 6 2.5.5-2.5.5zm14 5 5 6zm6 8 2.5 8.5q-1.5 3-3 0l-1-3zm-82 93 4.5 1v6h-4zm12 0 8.5 2v7h-2.5l-2.5-1v-7h-3.5zm18 1 4.5 1 1 6.5q-1.2 2.5-5 1.5.7-6.9-.5-9Zm-64 27 .5 6.5h-1z"/><path fill="#b9bf5a" stroke="#b9bf5a" d="M132.5 16q5.1-.6 6.5 2.5 1.5 7-2.5 8.5l-15 10-2.5-3.5 4-3q.5-4-2.5-4.5-2.2.8-1.5-1.5l4.5-5.5h5zm16 25q6-1.5 7.5 1.5l2 11.5h-3.5l-10 4-6.5-6.5v-4l4.5-4.5q4.6.6 6-2Zm-17 19q15.1.4 20.5 10.5 1.5 8-3.5 9.5-3 3-10 2l-2.5-1-1-3.5-9-10 3-6.5zM53 87h34.5l1 1 25 2 17 3 4 2 11 2 7.5 3.5-3 12-2 25-1 1v17l-2 4v8l-2 10V200l-33-.5q14.1-3.4 21-14l5-13 1-12.5-5-2.5 4-14v-10l-4-17-9.5-11.5-12-1q-9.5 3.5-15.5 10.5l-4 7-5.5 19.5-2.5-21.5q-2.4-9.6-9.5-14.5-3.7-3.3-12-2-6.5 1.5-9.5 6.5l-5 10-2 8v18l1 6.5q-6-2.2-4 4.5l-1 1v12l4 13 7.5 8.5q7.7 6.4 19.5 8.5l-35 .5v-39.5l1-1 1-16 8-38 5-12z"/><path fill="#b9bf5a" stroke="#b9bf5a" d="M61 165h9v6.5l1 6.5q-5.4-.6-8-5.5zm15.5 0 1 1H86v16.5l-2.5.5-7.5-2v-7.5l-1-1 1-3-1-3zm14.5 1h9v3.5l1 1V182q-3.1 2-10 1v-9.5l1-1zm15 1 12 1.5-6.5 9.5-5.5 2-1-4.5 1-1zm-82.5 1q5.8-.7 6.5 3.5l-5 2q1.7 5.8-2 4.5l-2-6.5zm-6 14-.5 1.5-1.5 2.5.5-1.5zm159 2 2.5 1.5-2.5 3.5-3.5-1q-1.1-2.7 1.5-2z"/><path fill="#0f1108" stroke="#0f1108" d="m115.5 24 1 2zm24 0 .5 2.5h-1zm4 4q3 .5 2.5 4.5h-1zm-22 2-1 2zm6 4-1 2zm24 2 7.5 3.5-5 .5q1.1-3.5-6.5-2v-1zm-19 2 2.5 1.5-1.5.5zm29 12-2 3zm-23 3 2 3zm20 3 .5 2 4 1.5q1.5 9-3.5 11.5l-3 1h-2q-2.6.7-1.5-2l2.5-1 3 1 1-2-1.5-.5 1.5-2.5 1 3 1.5-4q-2.7 1.1-2-1.5l1-3.5-3-1.5zm-28 3-3 4zm-19 11 2.5.5-2.5.5zm5 0 3.5 1.5-1.5-.5q-3 .5-2-1Zm9 0-1 2zm-20 2-1 2zm-4 4-1 2zm-2 4 .5 2.5h-1zm2 3 2.5.5-2.5.5zm18 0 3 2 11.5 2 1.5-4 .5 5 6 2.5-1.5-.5-17-4h-5l-1.5-1.5zm-11 1 4.5.5-4.5.5zm-28 2 5.5.5-5.5.5zm14 1 2.5.5-2.5.5zm58 0-1 2zm-6 3 1.5.5-3.5 1.5v-1zm11.5 11 2 .5-2 1zm-.5 5 .5 2.5h-1zm18 6 .5 2.5h-1zm-19 1 .5 2.5h-1zm-85 2 2 3zm80 0 .5 2.5h-1zm-43 1 2.5.5-2.5.5zm-40 3 1 2zm34 0-3 4zm-42 1-.5 1.5-.5 1.5-.5-1.5zm49 1h4l4.5 4.5-.5 1.5-4-5q-5 1-4-1Zm-4 2-2 3zm68 2 .5 2.5h-1zm-121 1 .5 3.5h-1zm25 0 .5 2.5h-1zm-20 1 .5 13.5h-1zm15 0 .5 2.5h-1zm29 3 .5 2.5h-1zm48 1 .5 2.5h-1zm-30 1 .5 9.5h-1zm5 0 .5 9.5h-1zm-29 2 .5 2.5h-1zm5 1 .5 3.5h-1zm-48 3 .5 3.5h-1zm101 0 .5 8.5h-1zm18 4 .5 4.5h-1zm-23 1 .5 4.5h-1zm-54 1 .5 3.5h-1zm-22 2-1 2zm-12 1 6.5.5-6.5.5zm49 2 4.5.5-4.5.5zm-72 3 .5 2.5h-1zm23 0 2.5.5-2.5.5zm110 0 .5 2.5h-1zm-61 2 5.5.5-5.5.5zm39 3-1 2zm2 0q2.5 1 1.5 5.5h-1zm-93 2 8.5.5-8.5.5zm30 1 7.5.5-7.5.5zm82 0 .5 3.5h-1zm-65 1 3.5.5-3.5.5zm-68 1 .5 2.5h-1zm79 0 4.5.5-4.5.5zm31 0 .5 2.5h-1zm-80 2 14.5.5-14.5.5zm30 1 3.5.5-3.5.5zm27 0 .5 2.5h-1zm-13 1 2.5.5-2.5.5zm-82 2 1 2zm122 0 .5 2.5h-1zm-130 3 .5 2.5h-1zm11 0 .5 21.5h-1zm137 0 .5 6.5h-1zm-109 5 3 4zm60 1-3 4zm30 0 .5 10.5h-1zm-131 3 2.5.5-2.5.5zm-2 1-1 2zm49 0 1 2zm18 2 4.5.5-4.5.5zm61 0 .5 15.5h-1zm23 0 .5 5.5h-1zm8 0 2.5.5-2.5.5zm-161 1 1.5 3.5-2-1zm165 2-1 2zm-92 2 5.5.5-5.5.5zm90 1 2 3 1.5.5-1.5.5q-3.6-1.1-2-4Zm8 6 .5 2.5h-1zm-170 3 1 2z"/><path fill="#44933f" stroke="#44933f" d="M60.5 104h10l8.5 7.5 4 10 2 20.5q3.3 1.3 2-3.5l5-17 8.5-11.5 9-5h10l8.5 6.5 6 15 1 20-3 12.5 4 1-3 20.5q-3.7 8.8-11.5 13.5l-16 6h-29q-13.2-2.7-22.5-8l-8-16.5v-12l5-13q-5.5-8.5-5-23l3-11 3-6 4.5-4.5zm52.5 3q-4 2-2 7l5 1 2-1zm-51 5-2 1q-6 4-8 12v20l2 6 4 2h17l3-4v-10l1-1-1-12-3-7q-3-8-13-7Zm46 4-3 1-9 11-1 12-1 1v9l5 3 7 2 15 1 2-2 2-9q2-16-3-23-3-8-14-6Zm-53 43-1 3q0 10 5 16l13 8 12 3h16q11-2 18-8 6-5 6-16l-2-3h-8l-1-1z"/><path fill="#44933f" stroke="#44933f" d="m72.5 165 2.5.5-2.5.5zm16 1 2.5.5-2.5.5z"/><path fill="#58821e" stroke="#58821e" d="m62.5 86 6.5.5-6.5.5zm9 0 3.5.5-3.5.5zm87.5 16q9.8 2.5 16 9.5l-2 18-1 1v7l-1 1v11l-2 8-3 40 1 2.5h-17v-26.5l2-8V157l-5-.5 1.5-7.5 4 1 1.5-1.5v-14l2-7v-9zM36.5 172l.5 20.5h-1zm108 2 .5 2.5h-1z"/></svg>