<svg xmlns="http://www.w3.org/2000/svg" width="200" height="200"><path stroke="#000" d="M0 0h200v200h-18.5l-.5-1.5-11-30-7-14.5q6.6-1.1 10-6.5 7-7.5 5-24l-2-7-5-6v-2q3.7-5.8 2-17-2.9-14.1-13.5-20.5l-9.5-4.5v-8L148 48l-3.5-1-20 10-18-19-2-1-3 1L87 51.5 85.5 54l-15-13h-4L64 45.5l-3 19-1.5 1.5-12 1L36 75.5l-5 8-2 7v15l1 4-6 8-4 9-1 11q2.9 11.6 11.5 17.5l11.5 5.5-9 18-4 21.5H.5l-.5-.5z" opacity="0"/><path fill="#63b44e" stroke="#63b44e" d="m101.5 46-1 2zm-30 4 4 5zm21 5-2 3zm49 0q2.8-.6 1.5 5.5h-1l-.5-4.5-2 1v-1zm-26 1 1 2zm20 2 .5 2-2-.5zm-34 3 9.5 7.5q.5 4-2.5 4.5l-6 4-8.5-6.5v-2zm42 1 .5 6-8.5 2-1-2h7l.5-1.5zm-90 10 3.5.5-3.5.5zm73 2-1 2zm-81 1-1 2zm22 0 3 4zm88 1 1 2zm4 4q7.8 6.2 7.5 20.5-3.1 4.4-2 13l5 6 2 8v6l-3.5 8.5.5-1.5-6-6 1-13-5-11 4-10v-9zm-32 1-3 4zm-78 9-1 2zm92 0 3.5.5-3.5.5zm-24 1 2.5.5-2.5.5zm20 1-2 3zm-73 7 .5 2.5h-1zm-29 2 .5 2.5h-1zm114 0-1 2zm-99 1 1 2zm13 1-1 2zm-6 2 3.5.5-3.5.5zm31 7 9.5.5-9.5.5zm-10 1 2.5.5-2.5.5zm27 0 2.5.5-2.5.5zm-80 18 .5 4.5h-1zm30 0 2 3zm69 2 2.5.5-2.5.5zm-51 2 3.5.5-3.5.5zm18 0 2.5.5-2.5.5zm-63 8 1 2zm139 0-3 4zm-16 7 2.5.5-2.5.5zm-72 7 2.5 3.5h-1zm-7 6 6.5.5-3.5 1.5-3-1zm9 3 2.5.5-2.5.5zm4 1 2.5.5-2.5.5zm5 1 3.5.5-3.5.5zm10 0 2.5.5-2.5.5zm-4 10 3.5 1.5-1.5.5zm-11 3 2.5.5-2.5.5zm-5 1 2.5.5-2.5.5zm28 0 2.5.5-2.5.5zm4 1 3.5.5-3.5.5zm-41 1 2.5.5-2.5.5zm47 0 2.5.5-2.5.5zm-52 1 3.5.5-3.5.5zm57 0 3.5.5-3.5.5zm-65 1 5.5.5-5.5.5zm71 0 2.5.5-2.5.5zM38 187l19 .5-2 7.5-17.5-3-1.5.5zm96.5 0 3.5.5-3.5.5zm6 1 4 1h22l3-1 1.5 1.5q-10.8 4.9-26 4.5 1-3.8-1.5-5-4 .8-3-1Z"/><path fill="#fbe44b" stroke="#fbe44b" d="m104.5 45 16 18 4 1 9.5-4v10.5l-2.5.5L118 82.5l-1.5 2.5-12-3h-16l-1 1H80l-4-7.5 2-4v-5l2.5-7.5.5 2 4 1 4.5 6 3 1 1.5-.5v2l2.5 3.5 7 3 7.5-6.5q.8-5.7-3.5-6.5l-5.5-3 2-7.5-1-3z"/><path fill="#6c4c40" stroke="#6c4c40" d="m103.5 44 10.5 9.5-9.5-8.5-2 1zm-7 6-3 4zm-19 5 3 4zm12 3-1 2zm30 3 1 2zm3 2 2.5.5-2.5.5zm-56 4 1 2zm4 3 5 6zm18 48 10.5.5-10.5.5zm17 1 2.5.5-2.5.5zm-52 5 .5 3.5h-1zm7 0-1 2zm70 2 1 2-5.5-.5zm-17 2 4.5.5-4.5.5zm-16 1 3.5.5-3.5.5zm41 2-1 2zm-17 2 2.5.5-2.5.5zm-60 1 3.5.5-3.5.5zm45 0 2.5.5-2.5.5zm-29 1 13.5.5-13.5.5zm-47 11 3 4zm117 6-2 3zm-99 3 4.5.5-4.5.5zm21 2 9.5.5-9.5.5zm-21 4 1.5.5-2.5 1.5zm32 0-1 2zm16 8 3.5.5-3.5.5zm-37 11 2.5.5-2.5.5zm83 2 2.5.5-2.5.5zm22 0 2.5.5-2.5.5z"/><path fill="#335616" stroke="#335616" d="m98.5 48-1 2zm16 6 1 2zm29 3 .5 2.5h-1zm1 10-1 2zm-79 6 1 2zm-22 3-1 2zm80 1-3 4zm35 1 4 5zm-87 1 1 2zm58 0-1 2zm-89 1-1 2zm51 2 2.5.5-2.5.5zm-13 7 3.5.5-3.5.5zm43 0-1 2zm18 2-1 2zm27 0 .5 2.5h-1zm-107 1 3 4zm89 0 1 2zm18 9 .5 2.5h-1zm-19 1-1 2zm-13 1 1 2zm31 2 .5 2.5h-1zm-131 8-2 3zm131 0 2 3zm3 4 1 2zm-112 3-1 2zm80 3 1 2zm35 0 .5 3.5h-1zm0 11 .5 2.5h-1zm-133 52 6.5.5-7 .5-.5 2-.5-1.5zm106 2 2.5.5-2.5.5zm18 0 4.5.5-4.5.5z"/><path fill="#7ede40" stroke="#7ede40" d="m141.5 56 1.5 9.5-1 2.5h-8v-7.5l-.5-1.5 2.5 1q-1.1-2.7 1.5-2zm-84 16 3.5.5-3.5.5zm8 2 1 2zm79 0 5.5.5-5.5.5zm-101 3-1 2zm114 1 1 2zm-27 1-2 3zm-89 1-1 2zm83 5-1 2zm37 1 .5 2.5h-1zm-86 2 1 2zm15 0 11.5.5-11.5.5zm-39 1 4.5.5-4.5.5zm33 0 2.5.5-2.5.5zm-6 1 2.5.5-2.5.5zm43 0-1 2zm-62 1 3 4zm55 0 2.5.5-2.5.5zm34 0 2 3zm14 0 .5 9.5h-1zm-127 3 .5 6.5h-1zm116 1 .5 3.5h-1zm-103 6 1 2zm85 2 2 3zm-97 2 .5 3.5h-1zm101 1 3.5.5-3.5.5zm21 5 1.5 2.5-2-1zm-76 1 5.5.5-5.5.5zm16 0 6.5.5-6.5.5zm-63 1-2 3zm40 0 2.5.5-2.5.5zm33 0 3.5.5-3.5.5zm-38 1 2.5.5-2.5.5zm44 0 2.5.5-2.5.5zm4 1 2.5.5-2.5.5zm-86 2-1 2zm23 3-1.5 2.5-.5 1.5-.5-1.5zm81 2 2 3zm27 5 .5 2.5h-1zm-1 7 1 2zm-125 58-.5 1.5-.5 1.5-.5-1.5zm18 0 .5 2.5h-1zm105 0 2.5.5-2.5.5zm-119 1 2.5.5-2.5.5zm113 0 2.5.5-2.5.5zm-107 1 4.5.5-4.5.5z"/><path fill="#d54d53" stroke="#d54d53" d="M81.5 119h23q1.5 2.5 7 1l18.5 6.5-4.5 1.5-28 1-1 1h-25l-1-1h-8l-3.5-2.5 2.5-2.5zm74 37 5.5 8.5 7 17-4.5 1.5h-18l-34-6-7.5-2.5 42.5-13.5zm-107 6h3q16.2 8.3 36.5 12.5L58.5 181H40l1-5.5z"/><path stroke="#000" d="m101.5 39-2 3zm7 2 12 13zm-38 1 5 6zm26 1-9 10zm47 5q3.8-.7 4.5 1.5l-.5 1.5-.5-2q-4.4 1-3.5-1Zm-65 1 5 6zm-15 2 .5 2.5h-1zm70 1 1.5.5-6.5 3.5 1-2zm15 2 .5 4.5h-1zm-27 1 3.5 2.5-1.5.5zm-59 2 .5 2.5h-1zm-1 5 .5 2.5h-1zm88 1 1.5 5.5-2-1zm-100 4 2.5.5-2.5.5zm-3 1 1.5.5-4.5 2.5 1-2zm106 1 5.5 2.5-1.5-.5-4-1zm-111 2-4 5zm118 1 8 9zm-124 6-1 2zm-5 10 .5 2.5h-1zm142 6 .5 5.5h-1zm-143 1 .5 5.5h-1zm142 8 .5 2.5h-1zm-141 2 .5 4.5h-1zm140 2q-.4 6 3.5 7.5l-4-3zm-141 4-1.5 2.5-1.5 2.5.5-1.5zm147 10 .5 2.5h-1zm-156 7 .5 2.5h-1zm157 0 .5 4.5h-1zm-1 8 .5 2.5h-1zm-3 8-1 2zm-150 1 1 2zm148 2-3 4zm-146 1 6 7zm141 3-1 2zm-4 2 1.5.5-2.5 1.5zm1 5 4.5 8.5h-1zm-132 30 .5 2.5h-1zm-1 5 .5 2.5h-1z" opacity=".855"/><path fill="#86f23e" stroke="#86f23e" d="M52.5 73h10l8.5 6.5L76.5 90l4 1q9.1-3.9 24-2l10 3h6l7-10q7.2-8.3 24-7l7.5 5.5q4.6 7.9 3 22l-4 10q5.4 4.6 6 14l-1 1v6.5l-15.5-7-8-2-3-3-16-7-16-3h-22l-22 5-7.5 5.5-1.5 2.5q-15.1 3.9-25 13l-.5-6.5q3.4-12.1 11-20v-6l-1-1v-13q2.4-10.1 9.5-15.5zM52 89l-2 1-4 6 2 6 8 4q6 1 8-1l1-2q1-6-2-8l-7-6zm89 1-2 1q-7 3-6 13l5 3 10-3 4-5-1-5q-2-5-10-4Zm28.5 100 4.5 9.5-29 .5v-6h11.5l10-2zM37 193l18 2-1 5H36.5q-1 0-.5-4.5z"/><path stroke="#000" d="m101.5 38 1.5.5-5.5 4.5zm5 0 14 15zm-40 3 1.5.5-2 .5-.5 2-.5-1.5zm3 0 8.5 7.5-7.5-6.5zm26 2-8 9zm-15 7 5 4 1.5-.5-2.5 1.5zm56 0 1.5.5-3.5 1.5v-1zm12 0 .5 3.5h-1zm-86 4 .5 2.5h-1zm59 0 2 3zm7 0-1 2-2 1 1-2zm21 4 .5 4.5h-1zm-88 1 .5 2.5h-1zm-1 6-1 2-8.5-.5 8.5-.5zm90 2 2.5 1.5-1.5.5zm-107 2-1 2zm114 1 10.5 9.5-8.5-7.5zm-117 1L37 75.5 34.5 79l1.5-2.5zm128 10 1.5 2.5h-1zm-136 1-.5 1.5-.5 1.5-.5-1.5zm-3 8 .5 4.5h-1zm143 1 .5 2.5h-1zm0 9 .5 3.5h-1zm-143 1 .5 4.5h-1zm0 9-2 3zm142 1 4.5 6.5h-1zm-146 5-.5 1.5-1.5 3.5-.5-1.5zm152 7 .5 4.5h-1zm-156 1 .5 1.5-1.5 2.5-.5-1.5zm-2 6 .5 7.5h-1zm158 3 .5 3.5h-1zm-1 6 .5 1.5-8.5 11.5-2 1 1-2 4.5-3.5zm-155 3q3.1 7.9 9.5 12.5l-7-6-3-5zm141 12 2.5 4.5-2-1zm-130 1 2.5 1.5-1.5.5zm6 3 3.5 1.5-1.5.5zm2 5-.5 1.5-1.5 3.5-.5-1.5zm128 3 1.5 3.5h-1zm-133 7 .5 1.5-1.5 2.5-.5-1.5zm-2 5 .5 2.5h-1zm-3 12 .5 2.5h-1zm-1 5 .5 2.5h-1z" opacity=".286"/><path fill="#261f13" stroke="#261f13" d="m101.5 45-2 3zm-29 5 4 5zm20 4-2 3zm24 2 1 2zm-29 4-1 2zm57 4 .5 2.5h-1zm2 9 3.5.5-3.5.5zm-79 1 3 4zm8 2 1 2zm81 0 1 2zm-115 2-1 2zm85 3-2 3zm-32 1 4.5.5-4.5.5zm-3 5 10.5.5-10.5.5zm-42 4-1 2zm88 2-1 2zm-103 2 .5 4.5h-1zm49 18 3.5.5-3.5.5zm16 0 3.5.5-3.5.5zm69 3 1 2zm-85 2 4.5.5-4.5.5zm16 0 3.5.5-3.5.5zm-23 1 2.5.5-2.5.5zm32 0 2.5.5-2.5.5zm23 7 1 2zm-72 1 1 2zm59 1 4.5.5-4.5.5zm-55 1 5.5.5-5.5.5zm38 0 7.5.5-7.5.5zm-46 1 3 4zm22 0 12.5.5-12.5.5zm57 2 2.5.5-2.5.5zm-20 1 5.5.5-5.5.5zm-48 1 3.5.5-3.5.5zm32 0 5.5.5-5.5.5zm70 9-4 5zm-20 9-2 3zm8 4 1 2zm-92 1 3.5.5-3.5.5zm95 4 1 2zm-90 1 5.5.5-4.5 1.5zm7 0 2.5.5-2.5.5zm11 11 2.5 1.5-1.5-.5zm30 5 2.5.5-2.5.5zm-55 2 2.5.5-2.5.5zm-18 1 11.5.5-11.5.5zm89 0 2.5.5-2.5.5zm35 0 .5 2-2-.5zm-29 1 2.5.5-2.5.5zm8 1 14.5.5-14.5.5zm-102 3 10.5.5-10.5.5zm102 2 4.5.5-4.5.5zm9 0 5.5.5-5.5.5z"/><path fill="#e1f0cf" stroke="#e1f0cf" d="m103.5 45 .5 4.5-1 3 1 4Q101 64 94.5 68l-1.5.5.5 1.5-8.5-6.5L99.5 48zm-33 5 9.5 8.5L77 75l-10-7.5 1-11zm33 11 1 2zm4 3 3 4zm-13 7 2 3zm13 2-1 2zm-55 51 .5 4.5 4.5 5.5 2 1h13l1 1h20l1-1h16l1-1 26-1 2.5-2.5-1-5 2.5-.5q16.8 4.7 27.5 15.5l-5.5 6.5-17.5 5q1.1 2.7-1.5 2l-37 13-13 2-18.5-4.5 5-1.5 1-3.5-2.5-2.5h-17l-8-2h-8l-12-5-4.5-4.5q-3.6-1.9-3-8 10.5-9 25.5-13.5Zm43 55 17 5h5l26.5 5 1 11H54.5l-.5-2.5 2-3q-1.5-6 1.5-7.5l12-1z"/><path fill="#010100" stroke="#010100" d="m104.5 38 3.5 2.5L123.5 58l16-8 7.5-1 2 10.5v8l1.5 1.5q12.2 2.8 17.5 12.5l4 10v11q-2.6 2.9-2 9 8.7 6.8 7 24-2.4 10.1-9.5 15.5l-6.5 3.5 9 17 10 28-5 .5-4-13-2.5 1-16 1-1-1h-9l-18-4h-5l-14-3-7-3h-4l-4 2-29 6H37l-2 7.5v5l-1.5 1.5q-5.2 1.8-3.5-3.5l5-20 8-17.5q-12-2.2-18-11.5-5.3-5.2-5-16 3.3-13.2 11-22v-4l-1-1v-13Q32.9 77.9 42.5 71q6.6-5.3 18.5-4 2.6-7.1 3-17.5l3.5-7.5h2l14 13h2q7.7-10.3 19-17Zm-.5 6-2 1-16 17-2-1q-3 1-2-1L70 48l-4 15v5l4 2 11 14q5 2 7-1h17l12 3 3-4q8-11 25-13l-1-13-1-2-18 9-5-1-2-4zM51 72l-6 3-7 8-4 13 1 12 1 1-1 4-4 4-6 13q-1 10 3 15 5 7 16 10l20 2 1 1h14l1 2q1 4-3 2h-2l-6 1 7 3 18 4h8l7-2 36-12 5-4 15-4q5-4 7-10v-15l-7-12 2-6V91l-3-7q-5-8-14-11l-10 1-6 2-7 5-7 10-18-4H92l-8 2h-6l-7-11-6-6zm103 84-7 4-46 15 12 3 10 1 17 4h7l1 1h14l1-1h6q-4-14-11-25-1-3-4-2Zm-105 5-9 15-1 5 6 1 20-1 25-6-1-2-12-2-22-9z" opacity=".996"/><path fill="#010100" stroke="#010100" d="M52.5 90q7.4 1.1 10.5 6.5l1 5-1 2.5-6.5 1-7.5-4.5-1-7zm89 1q6.4-.4 8.5 3.5v5l-4.5 4.5-9 1q-3.1-1.4-2.5-6.5l5.5-6.5zm-54 22h11l1 1h9l10 2 15 6 5.5 4.5q1 4.5-1.5 5.5l-4 1-35 1-1 1h-27l-1-1h-10l-5.5-5.5q-.8-5.8 2.5-7.5l12-5 10-2h8zm-3.5 5-22 5q-3 0-3 5l5 2h13l1 1 31-1 1-1h13l1-1h9l-7-5-15-4z" opacity=".996"/></svg>