<svg xmlns="http://www.w3.org/2000/svg" width="200" height="200"><path stroke="#000" d="M93.5 47h29l5.5 1.5-4.5.5-1-1h-29l-1 1-11 1-13 4Q58.2 58.2 52 66.5l-3 6L47 83l-18.5 2v-1l17-2 1.5-1.5 1-8L55.5 61q7.5-6.5 18-10zm36 2 9.5 2.5-1.5.5-8-2zm11 3 17 8 8.5 7.5q8.4 9.1 13 22l1 13 1 1v11l-3 12.5-6 1q-.7 11.6-5 20.5l-9.5 11.5-8 4-5.5.5 2 4h-1l-2-5.5q13.2.2 19-8.5 8.4-10.5 9-27.5 5.5 1.3 7-2.5l2-10v-11l-1-1-1-13-5-11L159.5 63l-13-8-6-2zm-117 33 3.5.5-7.5 1.5-5.5 4.5-1 4 3.5 5.5 10 5 18.5 3v7.5l-2 9-8 8-2 7q1.3 5.8 5.5 8.5l21 8H63l-5.5 14-.5-1.5 5-11-17.5-5.5q-6.7-2.2-10.5-7.5l-2-7q2.5-9 10-13l2-15.5-20.5-4-9.5-6.5-2-6 3.5-5.5zm123 85 2.5 5.5h-1zm-90 2 .5 1.5-3.5 9.5-.5-2.5zm93 5 9.5 22.5-2-1-1-5-7-15zm-97 7 .5 2.5-3.5 11.5-.5-3.5z" opacity=".071"/><path stroke="#000" d="M0 0h200v200h-40.5l-1.5-1.5-5-15-9-19q13.9-1.6 20-11 7.1-10.2 8-25.5l6-1 3-12.5v-11l-3-17q-5.8-13.2-15.5-22.5-12.3-10.2-30-15l-10-2h-29l-20 4Q61.9 54.9 54 62.5l-6 10-1 8-1.5 1.5-22 3-9.5 4.5-2 6 5.5 7.5 9 4 17.5 3-2 15.5-8 8-2 7q1.5 6.5 6.5 9.5l23.5 8.5-7 16-5 16-1 8-1.5 1.5H.5l-.5-.5z" opacity="0"/><path fill="#dd6534" stroke="#dd6534" d="M96.5 54h25l10 2 11.5 4.5-1.5.5-8-3-11-2h-16l-13 3q-8 2.5-12.5 8.5l-5 12v10l6.5 7.5 14.5 7-.5 3h-17l-7-2h-7l-23-4-14-4-6.5-3.5L34.5 90l16-1 1.5-1.5 3-13 5.5-8.5 12-7 10-3 13-1zM65 168l11 2 5 13.5 2.5 2.5q6.7 2.3 17 1l11-9 35.5 9 2 5.5-8.5 7.5H61l-4-7.5z"/><path fill="#af4521" stroke="#af4521" d="m103.5 53 7.5.5-7.5.5zm29 6 3.5.5-3.5.5zm13 2Q156 66 163 74.5q6.8 7.7 10 19l1 23-1 4.5-30-2.5 10.5-.5 1 1h11l6.5 1 1-3.5v-16l-3-13-4.5-7.5q-2.6.8-1.5-2.5l-7.5-8.5-11.5-6zm-62 5 .5 2-2-.5zm-47 23 2.5.5-2.5.5zm-14 3-.5 1.5q-.7 2.3 1.5 1.5v1l-1.5.5 4.5 2.5 12.5 2.5-3.5.5-9-2-7.5-5.5zm17.5 9 5 1.5-5 .5zm6.5 2 13 3 4.5-1 .5 2h7l28 5h6l1.5 1.5-2.5.5-19-4-27-3-12-3zm65.5 9h4q-1.2 3 2.5 2l1 1h8l14.5 2.5-7.5.5-1-1-22.5-2.5zm-42.5 47 2.5.5-3 .5-2.5 7-.5-2.5zm57 5 3.5.5-3.5.5zm10 0 6.5 14.5h-1l-6-13zm7 16 3.5 6.5-2-1z"/><path fill="#b14622" stroke="#b14622" d="m92.5 54 3.5.5-3.5.5zm14 2h16l11.5 2.5-2 1 3.5.5h2l7.5 1q-1.1 2.7 1.5 2 9.6 3.9 15.5 11.5l2 5.5 3 1.5 5 12 1 23-1 3.5-6.5-1h-11l-1-1h-11l-1-1-22-2-3.5-1q1.2-3.7-4-2 1.3 3.7-4.5 2l-2-2-41.5-5q1.3-3.3-3.5-2l-2 1-18-5h-2l-12-2-4.5-2.5 2-1-2-1 1.5-.5 11 5 18 4 20 2 7 2H97q1.5-3.8-1.5-3l-13-7-5.5-5.5q-2.7-3.8-1-12 2.1-10.9 9.5-16.5l8-4zM84 66l-2 2h2zM51.5 87l-1 2z"/><path fill="#b14622" stroke="#b14622" d="m39.5 89 2.5.5-2.5.5zM69 160q3.7-1.5 3 1.5l3 8.5-10-2.5 2-.5zm61.5 4q6.1-1.2 5.5 1.5l10 21-1.5.5-32.5-8 5.5-7 8-7z"/><path fill="#c89b7c" stroke="#c89b7c" d="m52.5 112 16.5 3.5-6 4-1 6q4.1 6.4 14.5 6.5l4.5-2q1.6-10.2-5.5-13l-1.5-.5 5.5-.5 1 1h6l13 3 28 3 1 1 36.5 3-4 16.5-8.5 11.5-10 3h-33l-1-1h-11l-1-1-14-1-23-4-14-5-5.5-3.5-1-4 4.5-5.5 3.5-2.5q-.7-2.6 2-1.5v-2.5l1-1 1-11zm65.5 12-3 2q-5 1-4 8 3 4 9 5h5l6-2 1-2-1-6q-3-7-13-5Zm-46 35 10 2q1.4 10.4 8.5 16l3 1q8.8-4.2 14.5-11.5l1.5-2.5h15l.5 1.5-24.5 21.5h-13l-4-1-2.5-2.5zm-16 34q2.7-1.1 2 1.5l3 5.5h-6v-2.5zm91.5 0q3.8-1.2 2.5 2.5l2 4-10.5.5z"/><path fill="#0d0704" stroke="#0d0704" d="m91.5 53 5.5.5-5.5.5zm30 0 3.5.5-3.5.5zm-37 1 3.5.5-3.5.5zm43 0 3.5.5-3.5.5zm-64 8-1 2zm86 0 3.5 2.5-1.5-.5zm-90 3-2 3zm95 0 2 3zm4 3 4 5zm-103 3-.5 1.5-.5 1.5-.5-1.5zm108 3 2 3zm3 4 1 2zm3 5 2.5 4.5h-1zm-118 1 .5 1.5-3 2zm-15 4 6.5.5-6.5.5zm-5 1 2.5.5-2.5.5zm-5 1 2.5.5-2.5.5zm147 3 .5 2.5h-1zm-154 3 5.5 3.5-1.5.5zm11 5 2.5.5-2.5.5zm144 0 .5 16.5h-1zm-140 1 3.5.5-3.5.5zm5 1 3.5.5-3.5.5zm6 1 2.5.5-2.5.5zm7 2 3.5.5-3.5.5zm5 1 3.5.5-3.5.5zm7 1 3.5.5-3.5.5zm8 1 3.5.5-3.5.5zM50 110l3 .5-2.5 1.5zm28.5 0 4.5.5-4.5.5zm-23 1 2.5.5-2.5.5zm31 0 2.5.5-2.5.5zm-25 1 3.5.5-3.5.5zm31 0 2.5.5-2.5.5zm-24 1 4.5.5-4.5.5zm30 0 3.5.5-3.5.5zm-22 1 3.5.5-3.5.5zm29 0 3.5.5-3.5.5zm-56 1 .5 2.5h-1zm34 0 3.5.5-3.5.5zm29 0 3.5.5-3.5.5zm-22 1 2.5.5-2.5.5zm29 0 3.5.5-3.5.5zm8 1 3.5.5-3.5.5zm-25 1 3.5.5-3.5.5zm32 0 4.5.5-4.5.5zm-25 1 3.5.5-3.5.5zm33 0 5.5.5-5.5.5zm-26 1 4.5.5-4.5.5zm36 0 7.5.5-7.5.5zm-104 1 .5 2.5h-1zm76 0 4.5.5-4.5.5zm42 0 4.5.5-4.5.5zm-35 1 4.5.5-4.5.5zm8 1 3.5.5-3.5.5zm9 1 4.5.5-4.5.5zm12 1q5.3-1.2 6.5 1.5l-.5 3.5-.5-4h-5.5zm-115 5-1 2zm-6 6-.5 1.5-.5 4.5-.5-4.5zm2 8 1 2zm118 5-2 3zm-96 3 2.5.5-2.5.5zm5 1 2.5.5-2.5.5zm6 1 2.5.5-2.5.5zm15 2 2.5.5-2.5.5zm7 1 5.5.5-5.5.5zm-28 1-.5 1.5-1.5 3.5-.5-1.5zm3 0 4.5.5-4.5.5zm36 0 8.5.5-8.5.5zm26 0 9.5.5-9.5.5zM87 160l2 .5-1.5 2.5zm6.5 1 4.5.5-4.5.5zm15 2-1 2zm-6 1-3 4zm36 1 1.5 3.5h-1zm-74 1 .5 1.5-1.5 2.5-.5-1.5zm42 0-4 5zm-10 3-1 2zm-10 1 1 2zm5 0 2.5 1.5-1.5.5zm8 2-2 3zm42 0 1.5 3.5h-1zm-53 1q.7 3.8 6 3l1.5-.5q-.7 2.3-4.5 1.5zm57 8 1.5 3.5h-1zm3 7 1.5 3.5h-1z"/><path fill="#402316" stroke="#402316" d="m97.5 53 5.5.5-5.5.5zm14 0 9.5.5-9.5.5zm35 8 3.5 2.5-1.5-.5zm-82 1-1 2zm-3 2-4 5zm92 1 2 3zm4 3 5 6zm6 7 2 3zm-110 2 .5 2.5h-1zm113 2 1 2zm-115 7-1 2zm-8 2 5.5.5-5.5.5zm-24 7 2 3zm154 1 .5 3.5h-1zm-130 7 2.5.5-2.5.5zm18 4 2.5.5-2.5.5zm7 1 3.5.5-3.5.5zm8 1 2.5.5-2.5.5zm7 1 2.5.5-2.5.5zm6 1 2.5.5-2.5.5zm-39 1 .5 2.5h-1zm45 0 2.5.5-2.5.5zm-30 1 2.5.5-2.5.5zm8 1 2.5.5-2.5.5zm7 1 2.5.5-2.5.5zm36 0 2.5.5-2.5.5zm-29 1 2.5.5-2.5.5zm36 0 3.5.5-3.5.5zm-30 1 2.5.5-2.5.5zm38 0 2.5.5-2.5.5zm-32 1 2.5.5-2.5.5zm40 0 3.5.5-3.5.5zm-33 1 2.5.5-2.5.5zm42 0 4.5.5-4.5.5zm12 1 4.5.5-4.5.5zm-39 1 2.5.5-2.5.5zm7 1 2.5.5-2.5.5zm8 1 2.5.5-2.5.5zm8 1 3.5.5-3.5.5zm11 1 4.5.5-4.5.5zm-108 3-1 2zm-4 4-3 4zm-4 10 1 2zm120 6-1 2zm-3 4-1 2zm-79 2 2.5.5-2.5.5zm15 2 2.5.5-2.5.5zm10 1 3.5.5-3.5.5zm-33 1 1.5.5-2.5 1.5zm47 0 16.5.5-16.5.5zm-35 2 1.5 2.5h-1zm6.5 1 5 .5-4 .5-.5 2zm8.5 1q5.3-1.2 6.5 1.5l-8.5 7.5 2-3 5.5-4.5-5.5-.5zm13 1-2 3zm9 0h18l1.5 1.5-.5 1.5-.5-2h-18.5zm-29 2 3.5 5.5-2-1zm12 6-2 3zm42 7 1.5 3.5h-1z"/><path fill="#8e5f4b" stroke="#8e5f4b" d="m51 111 14.5 3h7l1 1 13 1 13 3 28 3 1 1 37.5 3-.5 4-.5-3-20.5-1-1-1-15-1-1-1-53-7v1l5.5 4.5 1 8.5q-2.3 2.6-8.5 2-7-1.6-10.5-6.5-.9-7.9 4.5-9.5l2.5-.5-16.5-3.5-1 2zm-.5 4 .5 4.5-2.5 9.5-.5-2.5z"/><path fill="#8e5f4b" stroke="#8e5f4b" d="M117.5 124q10.8-1.8 13.5 4.5l1 6-1 2.5-6.5 2h-5q-5.7-1.2-8.5-5.5-.7-6.2 3.5-7.5zm-71 6-2 3zm118 1 .5 2.5-1.5 3.5-.5-2.5zm-2 7 .5 2.5q-2.8 9.2-9.5 14.5l3.5-4.5zm-75 17 2.5.5-2.5.5zm19 2 2.5.5-2.5.5zm-28 3 2.5.5-2.5.5zm10.5 2 13 1.5-8.5 7.5-4.5-6.5zm21.5 1 7.5.5-7.5.5zm-3 3-6 7zm-22 4 1 2zm34 0-1 2zm-32 3 3 4zm11 1-1 2z"/><path stroke="#000" d="M93.5 48h29l14 3 19 9L168 71.5q6.5 7.5 10 18l1 13 1 1v11l-2 10-2.5 2.5q-7.2-2.3-4.5 5.5l-5 16-8.5 10.5-9 4H143l15 36.5-4.5.5-15.5-37h-21.5l-2-1q-1.3 2.2-6 1l-1.5 1.5-6.5 7.5-6 4h-3q-7.1-5.6-8.5-16l-7.5-2h-7L63 168.5 54 200h-5v-1.5l8-27 6-14.5h-3.5l-17-6-7.5-5.5-2-7q2.5-9 10-13l2-9V109l-18.5-3L15 99.5l-2-6 4.5-5.5 15-4L47 83l2-10.5 3-6 7.5-7.5 14-7zM92 53l-18 4-14 8-6 8-3 13-2 2H37l-10 2-6 2-3 3 1 2 8 4 23 4 8 3 14 1 7 2h7l13 3 28 3 8 2h7l1 1 30 2 2-4v-18l-3-13-9-14q-12-14-32-19-5 1-6-1zm-42 57-2 17-10 11v4l5 4 16 6 16 3 21 2 1 1h10l1 1h35q1-2 6-1l6-3q5-4 8-11l4-17-1-2-22-1-15-3-30-3-6-2-34-4zm37 50v3l6 9 7-4 4-5-6-2h-8z" opacity=".969"/></svg>