<svg width="200" height="200" version="1.1" xmlns="http://www.w3.org/2000/svg" desc="Created with imagetracer.js version 1.2.6" ><path fill="rgb(0,0,0)" stroke="rgb(0,0,0)" stroke-width="1" opacity="0.19607843137254902" d="M 169.5 15 Q 174.3 15.3 176 18.5 L 177 23 Q 183.7 21.9 186 26.5 L 185 33.5 L 187 36.5 L 186 36.5 L 184 32.5 Q 186.2 31.3 185 26.5 Q 182.5 22.8 176 24 Q 176.8 19 173.5 17 L 169.5 16 L 164 20.5 L 162.5 23 L 163 21.5 L 167.5 16 L 169.5 15 Z " /><path fill="rgb(0,0,0)" stroke="rgb(0,0,0)" stroke-width="1" opacity="0.19607843137254902" d="M 148.5 21 L 153.5 21 L 162 24 L 161.5 26 L 153.5 22 L 148.5 22 L 148.5 21 Z " /><path fill="rgb(0,0,0)" stroke="rgb(0,0,0)" stroke-width="1" opacity="0.19607843137254902" d="M 145.5 22 L 147 22.5 L 139 28.5 L 137.5 32 L 137 30.5 L 143.5 23 L 145.5 22 Z " /><path fill="rgb(0,0,0)" stroke="rgb(0,0,0)" stroke-width="1" opacity="0.19607843137254902" d="M 136.5 33 L 137 35.5 L 136 38 Q 127.2 36 125 41.5 L 123.5 44 L 121 43.5 L 124 43 L 128.5 37 Q 134.5 38.5 136 35.5 L 136.5 33 Z " /><path fill="rgb(0,0,0)" stroke="rgb(0,0,0)" stroke-width="1" opacity="0.19607843137254902" d="M 110.5 41 L 116 41.5 L 110.5 42 L 110.5 41 Z " /><path fill="rgb(0,0,0)" stroke="rgb(0,0,0)" stroke-width="1" opacity="0.19607843137254902" d="M 186.5 41 L 187 43.5 L 183.5 48 L 185 45.5 L 186.5 41 Z " /><path fill="rgb(0,0,0)" stroke="rgb(0,0,0)" stroke-width="1" opacity="0.19607843137254902" d="M 105.5 42 L 108 42.5 L 105.5 43 L 105.5 42 Z " /><path fill="rgb(0,0,0)" stroke="rgb(0,0,0)" stroke-width="1" opacity="0.19607843137254902" d="M 117.5 42 L 120 42.5 L 117.5 43 L 117.5 42 Z " /><path fill="rgb(0,0,0)" stroke="rgb(0,0,0)" stroke-width="1" opacity="0.19607843137254902" d="M 98.5 45 L 97.5 47 L 92.5 51 L 96.5 46 L 98.5 45 Z " /><path fill="rgb(0,0,0)" stroke="rgb(0,0,0)" stroke-width="1" opacity="0.19607843137254902" d="M 177 48 L 182 48.5 L 177.5 50 L 177 48 Z " /><path fill="rgb(0,0,0)" stroke="rgb(0,0,0)" stroke-width="1" opacity="0.19607843137254902" d="M 176.5 51 L 177 52.5 L 172.5 60 L 172 58.5 L 176.5 51 Z " /><path fill="rgb(0,0,0)" stroke="rgb(0,0,0)" stroke-width="1" opacity="0.19607843137254902" d="M 91.5 52 L 91 53.5 L 89.5 65 L 89 56.5 L 91.5 52 Z " /><path fill="rgb(0,0,0)" stroke="rgb(0,0,0)" stroke-width="1" opacity="0.19607843137254902" d="M 170.5 60 L 169.5 62 L 165 63.5 L 169 68.5 L 167 67.5 L 164 63.5 L 170.5 60 Z " /><path fill="rgb(0,0,0)" stroke="rgb(0,0,0)" stroke-width="1" opacity="0.19607843137254902" d="M 81.5 67 L 89 67.5 L 81.5 68 L 81.5 67 Z " /><path fill="rgb(0,0,0)" stroke="rgb(0,0,0)" stroke-width="1" opacity="0.19607843137254902" d="M 77.5 68 L 80 68.5 L 77.5 69 L 77.5 68 Z " /><path fill="rgb(0,0,0)" stroke="rgb(0,0,0)" stroke-width="1" opacity="0.19607843137254902" d="M 73.5 69 L 76 69.5 L 68.5 72 L 68.5 71 L 73.5 69 Z " /><path fill="rgb(0,0,0)" stroke="rgb(0,0,0)" stroke-width="1" opacity="0.19607843137254902" d="M 169.5 70 Q 172.2 73.8 171 81.5 L 170 81.5 L 169.5 70 Z " /><path fill="rgb(0,0,0)" stroke="rgb(0,0,0)" stroke-width="1" opacity="0.19607843137254902" d="M 65.5 72 L 67 72.5 Q 55.1 77.1 47 85.5 Q 40.1 92.1 36.5 102 L 36 100.5 Q 40.9 89.4 49.5 82 L 65.5 72 Z " /><path fill="rgb(0,0,0)" stroke="rgb(0,0,0)" stroke-width="1" opacity="0.19607843137254902" d="M 169.5 83 L 170 86.5 L 167 94.5 L 171 101.5 L 170 101.5 L 166 92.5 L 169.5 83 Z " /><path fill="rgb(0,0,0)" stroke="rgb(0,0,0)" stroke-width="1" opacity="0.19607843137254902" d="M 171.5 103 L 173 107.5 L 172 107.5 L 171.5 103 Z " /><path fill="rgb(0,0,0)" stroke="rgb(0,0,0)" stroke-width="1" opacity="0.19607843137254902" d="M 34.5 106 L 35 108.5 L 34 111 L 32 110.5 L 34.5 106 Z " /><path fill="rgb(0,0,0)" stroke="rgb(0,0,0)" stroke-width="1" opacity="0.19607843137254902" d="M 18 108 L 25 108.5 L 19 109 L 18.5 121 L 18 108 Z " /><path fill="rgb(0,0,0)" stroke="rgb(0,0,0)" stroke-width="1" opacity="0.19607843137254902" d="M 173.5 109 L 174 111.5 L 173 111.5 L 173.5 109 Z " /><path fill="rgb(0,0,0)" stroke="rgb(0,0,0)" stroke-width="1" opacity="0.19607843137254902" d="M 174.5 113 L 176 118.5 L 175 118.5 L 174.5 113 Z " /><path fill="rgb(0,0,0)" stroke="rgb(0,0,0)" stroke-width="1" opacity="0.19607843137254902" d="M 176.5 120 L 177 125.5 L 176 125.5 L 176.5 120 Z " /><path fill="rgb(0,0,0)" stroke="rgb(0,0,0)" stroke-width="1" opacity="0.19607843137254902" d="M 19.5 122 L 20 125.5 L 19 125.5 L 19.5 122 Z " /><path fill="rgb(0,0,0)" stroke="rgb(0,0,0)" stroke-width="1" opacity="0.19607843137254902" d="M 20.5 127 L 23 134.5 L 22 134.5 L 20.5 127 Z " /><path fill="rgb(0,0,0)" stroke="rgb(0,0,0)" stroke-width="1" opacity="0.19607843137254902" d="M 177.5 128 L 178 136.5 L 177 136.5 L 177.5 128 Z " /><path fill="rgb(0,0,0)" stroke="rgb(0,0,0)" stroke-width="1" opacity="0.19607843137254902" d="M 176.5 138 L 177 143.5 L 176 143.5 L 176.5 138 Z " /><path fill="rgb(0,0,0)" stroke="rgb(0,0,0)" stroke-width="1" opacity="0.19607843137254902" d="M 25.5 141 L 29 146.5 L 26 144.5 L 25.5 141 Z " /><path fill="rgb(0,0,0)" stroke="rgb(0,0,0)" stroke-width="1" opacity="0.19607843137254902" d="M 175.5 145 L 176 160.5 L 179 167.5 L 178 167.5 L 175 160.5 L 175.5 145 Z " /><path fill="rgb(0,0,0)" stroke="rgb(0,0,0)" stroke-width="1" opacity="0.19607843137254902" d="M 29.5 148 L 30 157.5 L 29 157.5 L 29.5 148 Z " /><path fill="rgb(0,0,0)" stroke="rgb(0,0,0)" stroke-width="1" opacity="0.19607843137254902" d="M 28.5 162 L 29 172.5 L 28 172.5 L 28.5 162 Z " /><path fill="rgb(0,0,0)" stroke="rgb(0,0,0)" stroke-width="1" opacity="0.19607843137254902" d="M 27.5 174 L 28 181.5 L 27 181.5 L 27.5 174 Z " /><path fill="rgb(0,0,0)" stroke="rgb(0,0,0)" stroke-width="1" opacity="0.19607843137254902" d="M 181.5 175 L 182 178.5 L 181 178.5 L 181.5 175 Z " /><path fill="rgb(0,0,0)" stroke="rgb(0,0,0)" stroke-width="1" opacity="0.19607843137254902" d="M 182.5 180 L 183 193.5 L 182 193.5 L 182.5 180 Z " /><path fill="rgb(0,0,0)" stroke="rgb(0,0,0)" stroke-width="1" opacity="0.19607843137254902" d="M 26.5 183 L 27 190.5 L 26 190.5 L 26.5 183 Z " /><path fill="rgb(0,0,0)" stroke="rgb(0,0,0)" stroke-width="1" opacity="0.19607843137254902" d="M 181.5 195 L 182 198.5 L 181 198.5 L 181.5 195 Z " /><path fill="rgb(0,0,0)" stroke="rgb(0,0,0)" stroke-width="1" opacity="0.19607843137254902" d="M 26.5 197 L 27 199.5 L 26 199.5 L 26.5 197 Z " /><path fill="rgb(0,0,0)" stroke="rgb(0,0,0)" stroke-width="1" opacity="0" d="M 0 0 L 200 0 L 200 200 L 181 199.5 Q 184.6 192.6 183 180.5 L 176 160.5 L 176 144.5 L 178 136.5 L 178 128.5 L 173 105.5 L 167 92.5 L 170 86.5 L 171 73.5 Q 169.6 66.9 165 63.5 L 173 60 L 178.5 49 Q 184.7 49.7 186 45.5 L 188 38.5 L 185 32.5 Q 187.3 31.3 186 26.5 Q 183.7 21.9 177 23 Q 177.1 18.1 173.5 16 L 169.5 15 L 163 20.5 L 162 24 L 153.5 21 L 148.5 21 Q 141.3 22.8 138 28.5 L 134.5 37 Q 125.5 35.5 124 41.5 Q 124.9 44.5 120.5 43 Q 117.2 40.3 110.5 41 L 96.5 46 L 92 50.5 Q 87.7 54.7 89 64.5 L 90 67 Q 60 68.7 45 86.5 L 39 94.5 L 34 108.5 L 31.5 111 Q 26.7 107 18 108 L 18 120.5 L 20 129.5 L 25 142.5 L 29 147.5 L 29 161.5 L 28 162.5 L 28 173.5 L 26 183.5 L 26 200 L 0.5 200 L 0 199.5 L 0 0 Z " /><path fill="rgb(4,5,3)" stroke="rgb(4,5,3)" stroke-width="1" opacity="0.9882352941176471" d="M 169.5 16 L 175 18.5 L 176 24 Q 182.5 22.8 185 26.5 L 184 33.5 Q 187.6 34.9 187 40.5 L 182.5 48 L 177 48 L 177 50.5 L 172 60 L 164 63.5 L 169 69.5 L 170 82.5 L 166 94.5 L 171 102.5 L 176 119.5 L 177 137.5 L 175 145.5 L 175 160.5 L 181 174.5 L 182 179.5 L 182 194.5 L 181 200 L 174 199.5 Q 178.4 193.4 177 181.5 Q 175 170.5 170 162.5 L 170 151.5 L 169 149.5 L 171 142.5 L 171 121.5 L 166 104.5 L 156.5 91 Q 147.5 83 135.5 78 L 122.5 74 L 105.5 73 L 104.5 72 L 103.5 73 L 81.5 73 L 71.5 76 Q 56.1 81.6 47 93.5 Q 41 100.5 39 111.5 L 40 114 L 49.5 117 L 75.5 131 Q 89.6 121.1 108.5 116 L 127.5 112 L 144.5 112 Q 147.3 113.3 146 118.5 L 133 145.5 L 139 150.5 L 145.5 162 L 153 165.5 Q 154.1 168.8 151.5 168 L 148.5 169 Q 142 167.5 139 162.5 Q 136.6 153.9 129.5 150 Q 126.3 147.7 119.5 149 L 113 154.5 Q 109 161 111 173.5 L 116 185.5 L 121.5 192 L 134 196.5 L 131.5 200 Q 119 199.5 114 191.5 Q 108.3 184.7 106 174.5 L 106 163.5 L 104.5 162 L 88.5 162 Q 79.6 159.4 74.5 153 L 72.5 153 L 59.5 161 L 47.5 162 Q 39 160.5 35.5 154 L 34 162.5 L 33 183.5 L 32 184.5 L 32 200 L 27 200 L 27 197.5 Q 24.8 196.3 26 191.5 L 27 190.5 L 27 182.5 L 29 172.5 L 30 148.5 L 24 138.5 L 20 126.5 L 19 109 L 25.5 109 Q 28.5 111.8 34 111 Q 37.5 93.3 49.5 83 L 67.5 72 L 80.5 68 Q 88 69.5 91 66.5 L 90 65.5 L 90 56.5 Q 91.5 50 96.5 47 Q 103.3 41.3 116.5 42 L 123.5 44 L 128.5 38 L 135.5 38 L 136 36.5 Q 137.5 28 143.5 24 Q 146.5 21 153.5 22 L 161.5 26 L 167.5 17 L 169.5 16 Z M 171 22 L 167 26 Q 166 31 168 33 Q 167 37 173 35 L 177 42 Q 183 44 181 39 L 178 37 Q 175 36 176 33 L 178 30 L 174 31 L 171 29 L 171 22 Z M 150 27 L 145 29 L 142 35 L 143 46 L 140 46 L 135 43 L 130 43 L 129 46 Q 133 48 132 54 L 129 54 L 119 48 Q 107 46 102 50 Q 96 52 95 59 L 96 67 L 107 67 L 108 68 L 110 67 L 117 67 L 133 71 L 147 77 L 163 88 L 165 79 L 163 71 Q 159 63 149 62 L 147 59 Q 148 56 154 57 L 152 55 L 154 51 L 157 51 L 163 57 L 166 57 L 171 51 Q 172 43 169 39 Q 168 36 165 37 L 162 34 Q 158 28 150 27 Z M 24 114 Q 25 137 38 151 L 49 157 L 55 157 L 61 155 Q 68 152 73 146 L 76 146 L 77 149 Q 82 155 90 157 L 105 157 L 107 153 Q 112 143 128 143 L 139 124 L 140 117 L 129 117 L 110 121 L 91 128 L 76 137 L 72 136 L 66 131 L 49 122 L 24 114 Z " /><path fill="rgb(120,158,66)" stroke="rgb(120,158,66)" stroke-width="1" opacity="1" d="M 168.5 33 L 169.5 35 L 168.5 33 Z " /><path fill="rgb(120,158,66)" stroke="rgb(120,158,66)" stroke-width="1" opacity="1" d="M 173.5 33 L 177 39 Q 174.3 40.1 175 37.5 Q 169.8 35.2 173.5 33 Z " /><path fill="rgb(120,158,66)" stroke="rgb(120,158,66)" stroke-width="1" opacity="1" d="M 155.5 44 Q 160.1 46.9 161 53.5 L 157.5 51 Q 152 50.6 150 46.5 L 155.5 44 Z M 156 45 Q 153 49 157 48 L 156 45 Z " /><path fill="rgb(120,158,66)" stroke="rgb(120,158,66)" stroke-width="1" opacity="1" d="M 138.5 50 L 149 56.5 L 145.5 59 L 137.5 56 L 133 52.5 L 138.5 50 Z " /><path fill="rgb(120,158,66)" stroke="rgb(120,158,66)" stroke-width="1" opacity="1" d="M 100.5 73 L 103 73.5 L 100.5 74 L 100.5 73 Z " /><path fill="rgb(120,158,66)" stroke="rgb(120,158,66)" stroke-width="1" opacity="1" d="M 105.5 73 L 111 73.5 L 105.5 74 L 105.5 73 Z " /><path fill="rgb(120,158,66)" stroke="rgb(120,158,66)" stroke-width="1" opacity="1" d="M 54.5 86 L 49.5 92 L 54.5 86 Z " /><path fill="rgb(120,158,66)" stroke="rgb(120,158,66)" stroke-width="1" opacity="1" d="M 127.5 111 L 131 111.5 L 127.5 112 L 127.5 111 Z " /><path fill="rgb(120,158,66)" stroke="rgb(120,158,66)" stroke-width="1" opacity="1" d="M 40.5 112 L 41.5 114 L 40.5 112 Z " /><path fill="rgb(120,158,66)" stroke="rgb(120,158,66)" stroke-width="1" opacity="1" d="M 170.5 124 L 171 134.5 L 170 134.5 L 167 130.5 L 167 126.5 L 170.5 124 Z " /><path fill="rgb(120,158,66)" stroke="rgb(120,158,66)" stroke-width="1" opacity="1" d="M 121.5 149 L 124 149.5 L 121.5 150 L 121.5 149 Z " /><path fill="rgb(120,158,66)" stroke="rgb(120,158,66)" stroke-width="1" opacity="1" d="M 77.5 156 L 78.5 158 L 77.5 156 Z " /><path fill="rgb(120,158,66)" stroke="rgb(120,158,66)" stroke-width="1" opacity="1" d="M 144.5 159 L 145.5 161 L 144.5 159 Z " /><path fill="rgb(120,158,66)" stroke="rgb(120,158,66)" stroke-width="1" opacity="1" d="M 151.5 161 L 150.5 163 L 149 162.5 L 151.5 161 Z " /><path fill="rgb(120,158,66)" stroke="rgb(120,158,66)" stroke-width="1" opacity="1" d="M 49.5 162 L 55 162.5 L 49.5 163 L 49.5 162 Z " /><path fill="rgb(120,158,66)" stroke="rgb(120,158,66)" stroke-width="1" opacity="1" d="M 96.5 162 L 105 162.5 L 96.5 163 L 96.5 162 Z " /><path fill="rgb(120,158,66)" stroke="rgb(120,158,66)" stroke-width="1" opacity="1" d="M 111.5 162 L 112 170.5 L 111 170.5 L 111.5 162 Z " /><path fill="rgb(120,158,66)" stroke="rgb(120,158,66)" stroke-width="1" opacity="1" d="M 172.5 172 Q 175.1 171.2 174 174.5 L 176 183 Q 173.9 181.4 168.5 182 L 167 180.5 Q 168.3 174.8 172.5 172 Z " /><path fill="rgb(120,158,66)" stroke="rgb(120,158,66)" stroke-width="1" opacity="1" d="M 116.5 184 L 117.5 186 L 116.5 184 Z " /><path fill="rgb(120,158,66)" stroke="rgb(120,158,66)" stroke-width="1" opacity="1" d="M 118.5 187 L 122.5 192 L 118.5 187 Z " /><path fill="rgb(120,158,66)" stroke="rgb(120,158,66)" stroke-width="1" opacity="1" d="M 114.5 192 L 116.5 195 L 114.5 192 Z " /><path fill="rgb(120,158,66)" stroke="rgb(120,158,66)" stroke-width="1" opacity="1" d="M 127.5 193 L 131 193.5 L 127.5 194 L 127.5 193 Z " /><path fill="rgb(120,158,66)" stroke="rgb(120,158,66)" stroke-width="1" opacity="1" d="M 134.5 196 L 135 198.5 L 133 199.5 L 134.5 196 Z " /><path fill="rgb(122,198,71)" stroke="rgb(122,198,71)" stroke-width="1" opacity="1" d="M 96.5 73 Q 101.8 71.5 100 76 L 89 75.5 L 96.5 73 Z " /><path fill="rgb(122,198,71)" stroke="rgb(122,198,71)" stroke-width="1" opacity="1" d="M 120.5 75 L 123 75.5 L 120.5 76 L 120.5 75 Z " /><path fill="rgb(122,198,71)" stroke="rgb(122,198,71)" stroke-width="1" opacity="1" d="M 124.5 76 L 127 76.5 L 124.5 77 L 124.5 76 Z " /><path fill="rgb(122,198,71)" stroke="rgb(122,198,71)" stroke-width="1" opacity="1" d="M 145.5 84 L 146.5 86 L 145.5 84 Z " /><path fill="rgb(122,198,71)" stroke="rgb(122,198,71)" stroke-width="1" opacity="1" d="M 148 88 L 152 90.5 L 152 92 L 148 92 L 148 88 Z " /><path fill="rgb(122,198,71)" stroke="rgb(122,198,71)" stroke-width="1" opacity="1" d="M 55.5 90 L 56 92 L 54 91.5 L 55.5 90 Z " /><path fill="rgb(122,198,71)" stroke="rgb(122,198,71)" stroke-width="1" opacity="1" d="M 47.5 97 L 48 100 L 44 101.5 L 42.5 105 L 43 103.5 L 43 101.5 L 47.5 97 Z " /><path fill="rgb(122,198,71)" stroke="rgb(122,198,71)" stroke-width="1" opacity="1" d="M 41.5 106 L 42 108 Q 45 106.8 44 110.5 Q 42 115 40 111.5 L 41.5 106 Z " /><path fill="rgb(122,198,71)" stroke="rgb(122,198,71)" stroke-width="1" opacity="1" d="M 132.5 110 L 143 110.5 L 132.5 111 L 132.5 110 Z " /><path fill="rgb(122,198,71)" stroke="rgb(122,198,71)" stroke-width="1" opacity="1" d="M 145.5 111 L 146.5 113 L 145.5 111 Z " /><path fill="rgb(122,198,71)" stroke="rgb(122,198,71)" stroke-width="1" opacity="1" d="M 147.5 116 L 149 119.5 L 147 118.5 L 147.5 116 Z " /><path fill="rgb(122,198,71)" stroke="rgb(122,198,71)" stroke-width="1" opacity="1" d="M 162.5 124 L 163 126.5 L 162 126.5 L 162.5 124 Z " /><path fill="rgb(122,198,71)" stroke="rgb(122,198,71)" stroke-width="1" opacity="1" d="M 144.5 136 L 145 137.5 L 143 138.5 L 144.5 136 Z " /><path fill="rgb(122,198,71)" stroke="rgb(122,198,71)" stroke-width="1" opacity="1" d="M 141.5 143 L 140.5 145 L 141.5 143 Z " /><path fill="rgb(122,198,71)" stroke="rgb(122,198,71)" stroke-width="1" opacity="1" d="M 157.5 145 L 158 147.5 L 157 147.5 L 157.5 145 Z " /><path fill="rgb(122,198,71)" stroke="rgb(122,198,71)" stroke-width="1" opacity="1" d="M 124 149 L 126 149.5 L 124 150.5 L 124 149 Z " /><path fill="rgb(122,198,71)" stroke="rgb(122,198,71)" stroke-width="1" opacity="1" d="M 153.5 149 L 151 152.5 L 150.5 156 L 150 152.5 L 153.5 149 Z " /><path fill="rgb(122,198,71)" stroke="rgb(122,198,71)" stroke-width="1" opacity="1" d="M 139.5 150 L 140.5 152 L 139.5 150 Z " /><path fill="rgb(122,198,71)" stroke="rgb(122,198,71)" stroke-width="1" opacity="1" d="M 121.5 152 L 118.5 156 L 121.5 152 Z " /><path fill="rgb(122,198,71)" stroke="rgb(122,198,71)" stroke-width="1" opacity="1" d="M 114.5 154 L 114 155.5 L 113.5 157 L 113 155.5 L 114.5 154 Z " /><path fill="rgb(122,198,71)" stroke="rgb(122,198,71)" stroke-width="1" opacity="1" d="M 151.5 157 L 152.5 159 L 151.5 157 Z " /><path fill="rgb(122,198,71)" stroke="rgb(122,198,71)" stroke-width="1" opacity="1" d="M 112.5 159 L 113 161.5 L 112 161.5 L 112.5 159 Z " /><path fill="rgb(122,198,71)" stroke="rgb(122,198,71)" stroke-width="1" opacity="1" d="M 117.5 169 L 118.5 171 L 117.5 169 Z " /><path fill="rgb(122,198,71)" stroke="rgb(122,198,71)" stroke-width="1" opacity="1" d="M 119.5 180 L 121.5 183 L 119.5 180 Z " /><path fill="rgb(122,198,71)" stroke="rgb(122,198,71)" stroke-width="1" opacity="1" d="M 123.5 183 L 125.5 186 L 123.5 183 Z " /><path fill="rgb(122,198,71)" stroke="rgb(122,198,71)" stroke-width="1" opacity="1" d="M 128.5 188 L 130.5 191 L 128.5 188 Z " /><path fill="rgb(122,198,71)" stroke="rgb(122,198,71)" stroke-width="1" opacity="1" d="M 132.5 191 L 138 195.5 L 136 195.5 Q 137.9 200.9 134.5 200 L 135 198.5 Q 135.5 194.5 132.5 194 L 131 193.5 L 132.5 191 Z " /><path fill="rgb(122,198,71)" stroke="rgb(122,198,71)" stroke-width="1" opacity="1" d="M 125.5 192 L 128 192.5 L 125.5 193 L 125.5 192 Z " /><path fill="rgb(122,198,71)" stroke="rgb(122,198,71)" stroke-width="1" opacity="1" d="M 139.5 196 L 140 199.5 L 139 199.5 L 139.5 196 Z " /><path fill="rgb(69,60,95)" stroke="rgb(69,60,95)" stroke-width="1" opacity="1" d="M 170.5 22 L 171 28.5 L 173.5 31 L 177.5 30 L 176 32.5 L 175.5 35 Q 173 30.2 167 30 Q 165.8 23.6 170.5 22 Z " /><path fill="rgb(69,60,95)" stroke="rgb(69,60,95)" stroke-width="1" opacity="1" d="M 149.5 27 Q 157.9 28.1 162 33.5 L 164.5 37 Q 168.3 36.3 169 38.5 Q 172 42.5 171 50.5 L 165.5 57 L 162.5 57 L 157 51.5 L 161 53.5 Q 160.1 46.9 155.5 44 L 146.5 38 L 142 38 L 142 34.5 L 145 29 L 149.5 27 Z " /><path fill="rgb(69,60,95)" stroke="rgb(69,60,95)" stroke-width="1" opacity="1" d="M 176.5 36 L 181 38.5 Q 182.8 44.2 176.5 42 L 175 39 Q 177.7 40.1 177 37.5 L 176.5 36 Z " /><path fill="rgb(69,60,95)" stroke="rgb(69,60,95)" stroke-width="1" opacity="1" d="M 130 43 L 134.5 43 L 139.5 46 L 143 46 L 143.5 43 L 144 45 L 149.5 46 Q 150.9 50.1 156 50.5 L 152 52.5 Q 151.5 57 155 57.5 L 153.5 57 L 149.5 57 L 146.5 54 Q 141.1 49.4 131.5 49 L 129 46.5 L 130 43 Z " /><path fill="rgb(69,60,95)" stroke="rgb(69,60,95)" stroke-width="1" opacity="1" d="M 106.5 48 L 118.5 48 L 128.5 54 L 132 54 L 132.5 50 L 134.5 54 L 145.5 59 L 148 57.5 L 147 60.5 L 157.5 65 L 163 70.5 L 165 78.5 L 163 88 L 146.5 77 L 132.5 71 L 116.5 67 L 109.5 67 L 107.5 68 L 106.5 67 L 96 67 L 95 58.5 Q 96.4 52.4 101.5 50 L 106.5 48 Z " /><path fill="rgb(69,60,95)" stroke="rgb(69,60,95)" stroke-width="1" opacity="1" d="M 68.5 133 L 69.5 135 L 68.5 133 Z " /><path fill="rgb(69,60,95)" stroke="rgb(69,60,95)" stroke-width="1" opacity="1" d="M 129.5 140 L 128.5 142 L 129.5 140 Z " /><path fill="rgb(69,60,95)" stroke="rgb(69,60,95)" stroke-width="1" opacity="1" d="M 111.5 147 L 108.5 151 L 111.5 147 Z " /><path fill="rgb(69,60,95)" stroke="rgb(69,60,95)" stroke-width="1" opacity="1" d="M 77.5 148 L 81.5 153 L 77.5 148 Z " /><path fill="rgb(69,60,95)" stroke="rgb(69,60,95)" stroke-width="1" opacity="1" d="M 68.5 149 L 67.5 151 L 68.5 149 Z " /><path fill="rgb(69,60,95)" stroke="rgb(69,60,95)" stroke-width="1" opacity="1" d="M 38.5 150 L 39.5 152 L 38.5 150 Z " /><path fill="rgb(69,60,95)" stroke="rgb(69,60,95)" stroke-width="1" opacity="1" d="M 65.5 151 L 64.5 153 L 65.5 151 Z " /><path fill="rgb(69,60,95)" stroke="rgb(69,60,95)" stroke-width="1" opacity="1" d="M 169.5 155 L 170 157.5 L 169 157.5 L 169.5 155 Z " /><path fill="rgb(69,60,95)" stroke="rgb(69,60,95)" stroke-width="1" opacity="1" d="M 144.5 160 L 145.5 162 L 144.5 160 Z " /><path fill="rgb(69,60,95)" stroke="rgb(69,60,95)" stroke-width="1" opacity="1" d="M 34.5 162 L 35 164.5 L 34 164.5 L 34.5 162 Z " /><path fill="rgb(69,60,95)" stroke="rgb(69,60,95)" stroke-width="1" opacity="1" d="M 105.5 164 L 106 168.5 L 105 168.5 L 105.5 164 Z " /><path fill="rgb(212,73,80)" stroke="rgb(212,73,80)" stroke-width="1" opacity="1" d="M 24.5 115 L 25 117 L 45 124.5 L 32 137.5 L 32 140.5 L 32.5 142 L 26 127.5 L 24.5 115 Z " /><path fill="rgb(212,73,80)" stroke="rgb(212,73,80)" stroke-width="1" opacity="1" d="M 130.5 117 L 139.5 117 L 140 119.5 L 128 143 L 118.5 144 L 118.5 143 Q 122.5 143.5 123 140.5 L 136 124.5 L 139 118 L 130.5 118 L 130.5 117 Z " /><path fill="rgb(212,73,80)" stroke="rgb(212,73,80)" stroke-width="1" opacity="1" d="M 124.5 118 L 127 118.5 L 124.5 119 L 124.5 118 Z " /><path fill="rgb(212,73,80)" stroke="rgb(212,73,80)" stroke-width="1" opacity="1" d="M 119.5 119 L 122 119.5 L 119.5 120 L 119.5 119 Z " /><path fill="rgb(212,73,80)" stroke="rgb(212,73,80)" stroke-width="1" opacity="1" d="M 115.5 120 L 117 120.5 L 113.5 122 L 91 144.5 L 85 154 L 89 155.5 L 87.5 156 L 77 147.5 Q 77.8 145.3 75.5 146 L 73.5 146 L 59.5 155 L 50.5 157 Q 40.5 155 36 147.5 L 42.5 153 L 59.5 136 L 64 132.5 L 64.5 131 L 72.5 137 L 76.5 137 L 91.5 128 L 115.5 120 Z " /><path fill="rgb(212,73,80)" stroke="rgb(212,73,80)" stroke-width="1" opacity="1" d="M 44.5 121 L 48 122.5 L 46.5 123 L 44.5 121 Z " /><path fill="rgb(212,73,80)" stroke="rgb(212,73,80)" stroke-width="1" opacity="1" d="M 57.5 127 L 61 129.5 L 59.5 129 L 57.5 127 Z " /><path fill="rgb(212,73,80)" stroke="rgb(212,73,80)" stroke-width="1" opacity="1" d="M 33.5 143 L 35.5 146 L 33.5 143 Z " /><path fill="rgb(212,73,80)" stroke="rgb(212,73,80)" stroke-width="1" opacity="1" d="M 113.5 145 L 112.5 147 L 113.5 145 Z " /><path fill="rgb(212,73,80)" stroke="rgb(212,73,80)" stroke-width="1" opacity="1" d="M 106.5 153 L 106 154.5 L 105.5 156 L 105 154.5 L 106.5 153 Z " /><path fill="rgb(212,73,80)" stroke="rgb(212,73,80)" stroke-width="1" opacity="1" d="M 90.5 156 L 93 156.5 L 90.5 157 L 90.5 156 Z " /><path fill="rgb(215,237,74)" stroke="rgb(215,237,74)" stroke-width="1" opacity="1" d="M 82.5 74 L 90 74.5 L 71.5 80 L 50 93 Q 51.1 95.7 48.5 95 L 47 95.5 L 55.5 86 L 66.5 79 L 82.5 74 Z " /><path fill="rgb(215,237,74)" stroke="rgb(215,237,74)" stroke-width="1" opacity="1" d="M 102.5 101 L 112.5 103 L 125 110.5 Q 125.9 113.5 121.5 112 Q 94 117 74.5 130 Q 60.9 119.2 43 114 L 46.5 108 L 56.5 102 L 59.5 102 Q 63.9 110.6 79.5 108 L 102.5 101 Z " /><path fill="rgb(215,237,74)" stroke="rgb(215,237,74)" stroke-width="1" opacity="1" d="M 36.5 156 L 39.5 161 L 44.5 165 L 55.5 167 L 60.5 166 L 74.5 158 Q 82.1 167.9 99.5 168 L 105 167 Q 105.4 187.8 118.5 197 L 124 199.5 L 33 200 L 33 183.5 L 34 182.5 L 35 163.5 L 36.5 156 Z " /><path fill="rgb(237,129,91)" stroke="rgb(237,129,91)" stroke-width="1" opacity="1" d="M 25.5 115 L 48.5 123 L 64 131 L 60.5 136 L 42.5 153 L 33 142.5 L 32 137.5 L 44.5 124 L 25 117 L 25.5 115 Z " /><path fill="rgb(237,129,91)" stroke="rgb(237,129,91)" stroke-width="1" opacity="1" d="M 127.5 118 L 138.5 118 L 139 119.5 L 120.5 143 Q 110.7 144.2 107 151.5 L 105 156 L 93.5 157 L 85 154 L 91 144.5 L 113.5 122 L 127.5 118 Z " /><path fill="rgb(122,198,72)" stroke="rgb(122,198,72)" stroke-width="1" opacity="1" d="M 100 74 L 115.5 74 L 124.5 77 L 128.5 77 L 141.5 82 L 149 87.5 L 148 92 L 152.5 91 L 157 95.5 L 164 110.5 L 164 119.5 Q 161.1 123.1 162 130.5 L 158 137.5 Q 158.7 144.6 157 148 Q 152.3 148.5 150 152.5 Q 149.4 158.1 153 159.5 Q 152.5 162.5 148.5 162 L 145 159.5 L 139 147.5 L 148 130.5 L 149 119.5 L 145.5 111 Q 140.8 108.7 132.5 110 Q 131.3 112.3 126.5 111 L 123.5 108 L 104.5 100 L 77.5 108 L 68.5 108 L 58.5 101 L 56.5 101 L 44.5 109 L 42 108 L 42 105.5 L 45.5 100 Q 49.7 101.3 48 96.5 Q 49.6 91 56 92 Q 54.5 88.3 57.5 89 L 66.5 83 L 68 83.5 Q 67.2 80.9 70.5 82 L 84.5 76 L 100 76 L 100 74 Z " /><path fill="rgb(122,198,72)" stroke="rgb(122,198,72)" stroke-width="1" opacity="1" d="M 119.5 150 L 124 150.5 L 118 155.5 L 117 157.5 L 117 169.5 Q 120.5 171 118 172.5 Q 116.7 180.8 121.5 183 L 132 191 Q 133.3 194.3 128.5 193 Q 121.1 191.9 118 186.5 L 113 176.5 L 112 162.5 L 113 157.5 L 117.5 151 L 119.5 150 Z " /><path fill="rgb(122,198,72)" stroke="rgb(122,198,72)" stroke-width="1" opacity="1" d="M 38.5 158 L 39.5 160 L 38.5 158 Z " /><path fill="rgb(122,198,72)" stroke="rgb(122,198,72)" stroke-width="1" opacity="1" d="M 136.5 195 L 139 196 Q 140.9 201.6 136 200 L 136.5 195 Z " /><path fill="rgb(172,166,60)" stroke="rgb(172,166,60)" stroke-width="1" opacity="1" d="M 167.5 30 L 173 32 Q 174.3 35.3 169.5 34 L 167.5 30 Z " /><path fill="rgb(172,166,60)" stroke="rgb(172,166,60)" stroke-width="1" opacity="1" d="M 142.5 38 L 148.5 39 L 157 46.5 Q 157.7 49.1 155 48 Q 156.7 43.9 152.5 45 L 148.5 46 L 144 43.5 L 142.5 38 Z " /><path fill="rgb(172,166,60)" stroke="rgb(172,166,60)" stroke-width="1" opacity="1" d="M 133 49 L 138 50.5 L 133 52 L 133 49 Z " /><path fill="rgb(172,166,60)" stroke="rgb(172,166,60)" stroke-width="1" opacity="1" d="M 47.5 94 L 46.5 96 L 47.5 94 Z " /><path fill="rgb(172,166,60)" stroke="rgb(172,166,60)" stroke-width="1" opacity="1" d="M 35.5 154 Q 38.5 155.5 35.5 157 L 35.5 154 Z " /><path fill="rgb(172,166,60)" stroke="rgb(172,166,60)" stroke-width="1" opacity="1" d="M 34.5 169 L 35 171.5 L 34 171.5 L 34.5 169 Z " /><path fill="rgb(172,166,60)" stroke="rgb(172,166,60)" stroke-width="1" opacity="1" d="M 33.5 178 L 34 180.5 L 33 180.5 L 33.5 178 Z " /><path fill="rgb(172,166,60)" stroke="rgb(172,166,60)" stroke-width="1" opacity="1" d="M 117.5 195 L 118.5 197 L 117.5 195 Z " /><path fill="rgb(169,212,80)" stroke="rgb(169,212,80)" stroke-width="1" opacity="1" d="M 87.5 73 L 96 73.5 L 90.5 75 L 87.5 74 L 87.5 73 Z " /><path fill="rgb(169,212,80)" stroke="rgb(169,212,80)" stroke-width="1" opacity="1" d="M 86.5 75 L 89 75.5 L 86.5 76 L 86.5 75 Z " /><path fill="rgb(169,212,80)" stroke="rgb(169,212,80)" stroke-width="1" opacity="1" d="M 71.5 80 L 73 80.5 L 69.5 82 L 69.5 81 L 71.5 80 Z " /><path fill="rgb(169,212,80)" stroke="rgb(169,212,80)" stroke-width="1" opacity="1" d="M 65.5 83 L 64.5 85 L 65.5 83 Z " /><path fill="rgb(169,212,80)" stroke="rgb(169,212,80)" stroke-width="1" opacity="1" d="M 60.5 86 L 59.5 88 L 60.5 86 Z " /><path fill="rgb(169,212,80)" stroke="rgb(169,212,80)" stroke-width="1" opacity="1" d="M 54.5 90 L 53.5 92 L 54.5 90 Z " /><path fill="rgb(169,212,80)" stroke="rgb(169,212,80)" stroke-width="1" opacity="1" d="M 48.5 95 L 44.5 100 L 45 98.5 L 46.5 96 L 48.5 95 Z " /><path fill="rgb(169,212,80)" stroke="rgb(169,212,80)" stroke-width="1" opacity="1" d="M 56.5 101 L 59 101.5 L 52.5 105 L 54.5 102 L 56.5 101 Z " /><path fill="rgb(169,212,80)" stroke="rgb(169,212,80)" stroke-width="1" opacity="1" d="M 48.5 106 L 47.5 108 L 48.5 106 Z " /><path fill="rgb(169,212,80)" stroke="rgb(169,212,80)" stroke-width="1" opacity="1" d="M 119.5 106 L 126 110.5 L 125.5 112 L 123.5 109 Q 119.5 108.5 119.5 106 Z " /><path fill="rgb(169,212,80)" stroke="rgb(169,212,80)" stroke-width="1" opacity="1" d="M 43.5 111 L 43 112.5 L 42.5 114 L 42 112.5 L 43.5 111 Z " /><path fill="rgb(169,212,80)" stroke="rgb(169,212,80)" stroke-width="1" opacity="1" d="M 73.5 154 L 85.5 162 L 88.5 163 L 103.5 163 L 105 164.5 Q 106.3 169.1 100.5 167 Q 98.7 169.8 92.5 168 L 79.5 163 L 74.5 158 L 60.5 166 L 53.5 167 L 44.5 165 L 38 159.5 L 39.5 160 L 47.5 163 L 55.5 163 Q 66.5 160.5 73.5 154 Z " /><path fill="rgb(169,212,80)" stroke="rgb(169,212,80)" stroke-width="1" opacity="1" d="M 35.5 157 L 36 162.5 L 35 162.5 L 35.5 157 Z " /><path fill="rgb(169,212,80)" stroke="rgb(169,212,80)" stroke-width="1" opacity="1" d="M 34.5 172 L 35 174.5 L 34 174.5 L 34.5 172 Z " /><path fill="rgb(169,212,80)" stroke="rgb(169,212,80)" stroke-width="1" opacity="1" d="M 32.5 190 L 33 197.5 L 32 197.5 L 32.5 190 Z " /><path fill="rgb(72,137,55)" stroke="rgb(72,137,55)" stroke-width="1" opacity="1" d="M 111.5 73 L 116 73.5 L 111.5 74 L 111.5 73 Z " /><path fill="rgb(72,137,55)" stroke="rgb(72,137,55)" stroke-width="1" opacity="1" d="M 119.5 74 L 122 74.5 L 119.5 75 L 119.5 74 Z " /><path fill="rgb(72,137,55)" stroke="rgb(72,137,55)" stroke-width="1" opacity="1" d="M 149.5 86 L 151.5 89 L 149.5 86 Z " /><path fill="rgb(72,137,55)" stroke="rgb(72,137,55)" stroke-width="1" opacity="1" d="M 153.5 89 L 158 92.5 L 156.5 92 L 153.5 89 Z " /><path fill="rgb(72,137,55)" stroke="rgb(72,137,55)" stroke-width="1" opacity="1" d="M 158.5 94 L 160.5 97 L 158.5 94 Z " /><path fill="rgb(72,137,55)" stroke="rgb(72,137,55)" stroke-width="1" opacity="1" d="M 161.5 98 L 166 105.5 L 165 105.5 L 161.5 98 Z " /><path fill="rgb(72,137,55)" stroke="rgb(72,137,55)" stroke-width="1" opacity="1" d="M 131.5 111 L 144 111.5 L 131.5 112 L 131.5 111 Z " /><path fill="rgb(72,137,55)" stroke="rgb(72,137,55)" stroke-width="1" opacity="1" d="M 169.5 118 L 170 120.5 L 169 120.5 L 169.5 118 Z " /><path fill="rgb(72,137,55)" stroke="rgb(72,137,55)" stroke-width="1" opacity="1" d="M 144.5 123 L 145 124.5 L 143.5 127 L 143 125.5 L 144.5 123 Z " /><path fill="rgb(72,137,55)" stroke="rgb(72,137,55)" stroke-width="1" opacity="1" d="M 140.5 132 L 140 133.5 L 139.5 135 L 139 133.5 L 140.5 132 Z " /><path fill="rgb(72,137,55)" stroke="rgb(72,137,55)" stroke-width="1" opacity="1" d="M 168.5 132 L 169.5 134 L 168.5 132 Z " /><path fill="rgb(72,137,55)" stroke="rgb(72,137,55)" stroke-width="1" opacity="1" d="M 170.5 136 L 171 141.5 L 170 141.5 L 170.5 136 Z " /><path fill="rgb(72,137,55)" stroke="rgb(72,137,55)" stroke-width="1" opacity="1" d="M 136.5 140 L 136 141.5 L 135.5 143 L 135 141.5 L 136.5 140 Z " /><path fill="rgb(72,137,55)" stroke="rgb(72,137,55)" stroke-width="1" opacity="1" d="M 134.5 144 L 135.5 148 Q 131 146 134.5 144 Z " /><path fill="rgb(72,137,55)" stroke="rgb(72,137,55)" stroke-width="1" opacity="1" d="M 169.5 144 L 170 147.5 L 169 147.5 L 169.5 144 Z " /><path fill="rgb(72,137,55)" stroke="rgb(72,137,55)" stroke-width="1" opacity="1" d="M 129.5 150 L 135.5 157 L 129.5 150 Z " /><path fill="rgb(72,137,55)" stroke="rgb(72,137,55)" stroke-width="1" opacity="1" d="M 116.5 151 L 113.5 155 L 116.5 151 Z " /><path fill="rgb(72,137,55)" stroke="rgb(72,137,55)" stroke-width="1" opacity="1" d="M 169.5 151 L 170 154.5 L 169 154.5 L 169.5 151 Z " /><path fill="rgb(72,137,55)" stroke="rgb(72,137,55)" stroke-width="1" opacity="1" d="M 74.5 153 L 76.5 156 L 74.5 153 Z " /><path fill="rgb(72,137,55)" stroke="rgb(72,137,55)" stroke-width="1" opacity="1" d="M 140.5 153 L 141.5 155 L 140.5 153 Z " /><path fill="rgb(72,137,55)" stroke="rgb(72,137,55)" stroke-width="1" opacity="1" d="M 39.5 158 L 40.5 160 L 39.5 158 Z " /><path fill="rgb(72,137,55)" stroke="rgb(72,137,55)" stroke-width="1" opacity="1" d="M 136.5 158 L 143 166.5 L 138 162.5 L 136.5 158 Z " /><path fill="rgb(72,137,55)" stroke="rgb(72,137,55)" stroke-width="1" opacity="1" d="M 169.5 158 L 170 161.5 L 169 161.5 L 169.5 158 Z " /><path fill="rgb(72,137,55)" stroke="rgb(72,137,55)" stroke-width="1" opacity="1" d="M 146.5 161 L 149 162.5 L 147.5 163 L 146.5 161 Z " /><path fill="rgb(72,137,55)" stroke="rgb(72,137,55)" stroke-width="1" opacity="1" d="M 91.5 162 L 96 162.5 L 91.5 163 L 91.5 162 Z " /><path fill="rgb(72,137,55)" stroke="rgb(72,137,55)" stroke-width="1" opacity="1" d="M 151.5 163 Q 153.8 162.3 153 164.5 L 154 167.5 L 152 168.5 L 153 165.5 L 151.5 163 Z " /><path fill="rgb(72,137,55)" stroke="rgb(72,137,55)" stroke-width="1" opacity="1" d="M 171.5 166 L 173 169.5 L 172 169.5 L 171.5 166 Z " /><path fill="rgb(72,137,55)" stroke="rgb(72,137,55)" stroke-width="1" opacity="1" d="M 111.5 171 L 112 173.5 L 111 173.5 L 111.5 171 Z " /><path fill="rgb(72,137,55)" stroke="rgb(72,137,55)" stroke-width="1" opacity="1" d="M 113.5 179 L 114.5 181 L 113.5 179 Z " /><path fill="rgb(72,137,55)" stroke="rgb(72,137,55)" stroke-width="1" opacity="1" d="M 176.5 183 L 177 191.5 L 175.5 195 L 175 192.5 L 176 191.5 L 176.5 183 Z " /><path fill="rgb(72,137,55)" stroke="rgb(72,137,55)" stroke-width="1" opacity="1" d="M 118.5 188 L 120.5 191 L 118.5 188 Z " /><path fill="rgb(72,137,55)" stroke="rgb(72,137,55)" stroke-width="1" opacity="1" d="M 131.5 194 L 134 195.5 L 132.5 195 L 131.5 194 Z " /><path fill="rgb(72,137,55)" stroke="rgb(72,137,55)" stroke-width="1" opacity="1" d="M 133.5 198 L 132.5 200 L 133.5 198 Z " /><path fill="rgb(68,164,70)" stroke="rgb(68,164,70)" stroke-width="1" opacity="1" d="M 149.5 87 L 158 93.5 L 166 106.5 L 170 125 L 167 126.5 L 166 128.5 L 171 135.5 L 169 144.5 L 169 161.5 L 173 170.5 L 167 178.5 L 167 180.5 L 168.5 182 L 176 183 L 176 191.5 L 174 200 L 140.5 200 L 140 196 L 138.5 196 L 126 186.5 L 123.5 183 L 119 179.5 L 118 174.5 L 119 170.5 L 117 168.5 L 117 159.5 Q 118.4 153.4 123.5 151 L 126.5 149 L 136 157.5 Q 137.5 164 142.5 167 L 150.5 170 L 154 167.5 L 153 163 L 151 162.5 L 153 158.5 Q 150 157.5 151 152.5 Q 153.3 148.4 158 148 L 159 141.5 L 158 139.5 L 163 128.5 L 163 126.5 L 164 109.5 L 157 95.5 L 149.5 87 Z " /><path fill="rgb(68,164,70)" stroke="rgb(68,164,70)" stroke-width="1" opacity="1" d="M 146.5 118 Q 150 119 149 124.5 L 147 131.5 L 139 148 Q 135.2 148.8 134 145.5 L 145 124.5 L 146.5 118 Z " /></svg>