<svg xmlns="http://www.w3.org/2000/svg" width="200" height="200"><path stroke="#000" d="M169.5 15q4.8.3 6.5 3.5l1 4.5q6.7-1.1 9 3.5l-1 7 2 3h-1l-2-4q2.2-1.2 1-6-2.5-3.7-9-2.5.8-5-2.5-7l-4-1-5.5 4.5-1.5 2.5.5-1.5 4.5-5.5zm-21 6h5l8.5 3-.5 2-8-4h-5zm-3 1 1.5.5-8 6-1.5 3.5-.5-1.5 6.5-7.5zm-9 11 .5 2.5-1 2.5q-8.8-2-11 3.5l-1.5 2.5-2.5-.5 3-.5 4.5-6q6 1.5 7.5-1.5zm-26 8 5.5.5-5.5.5zm76 0 .5 2.5-3.5 4.5 1.5-2.5zm-81 1 2.5.5-2.5.5zm12 0 2.5.5-2.5.5zm-19 3-1 2-5 4 4-5zm78.5 3 5 .5-4.5 1.5zm-.5 3 .5 1.5-4.5 7.5-.5-1.5zm-85 1-.5 1.5L89.5 65l-.5-8.5zm79 8-1 2-4.5 1.5 4 5-2-1-3-4zm-89 7 7.5.5-7.5.5zm-4 1 2.5.5-2.5.5zm-4 1 2.5.5-7.5 2.5v-1zm96 1q2.7 3.8 1.5 11.5h-1zm-104 2 1.5.5q-11.9 4.6-20 13-6.9 6.6-10.5 16.5l-.5-1.5Q40.9 89.4 49.5 82zm104 11 .5 3.5-3 8 4 7h-1l-4-9zm2 20 1.5 4.5h-1zm-137 3 .5 2.5-1 2.5-2-.5zM18 108l7 .5-6 .5-.5 12zm155.5 1 .5 2.5h-1zm1 4 1.5 5.5h-1zm2 7 .5 5.5h-1zm-157 2 .5 3.5h-1zm1 5 2.5 7.5h-1zm157 1 .5 8.5h-1zm-1 10 .5 5.5h-1zm-151 3 3.5 5.5-3-2zm150 4 .5 15.5 3 7h-1l-3-7zm-146 3 .5 9.5h-1zm-1 14 .5 10.5h-1zm-1 12 .5 7.5h-1zm154 1 .5 3.5h-1zm1 5 .5 13.5h-1zm-156 3 .5 7.5h-1zm155 12 .5 3.5h-1zm-155 2 .5 2.5h-1z" opacity=".196"/><path stroke="#000" d="M0 0h200v200l-19-.5q3.6-6.9 2-19l-7-20v-16l2-8v-8l-5-23-6-13 3-6 1-13q-1.4-6.6-6-10l8-3.5 5.5-11q6.2.7 7.5-3.5l2-7-3-6q2.3-1.2 1-6-2.3-4.6-9-3.5.1-4.9-3.5-7l-4-1-6.5 5.5-1 3.5-8.5-3h-5q-7.2 1.8-10.5 7.5l-3.5 8.5q-9-1.5-10.5 4.5.9 3-3.5 1.5-3.3-2.7-10-2l-14 5-4.5 4.5q-4.3 4.2-3 14l1 2.5q-30 1.7-45 19.5l-6 8-5 14-2.5 2.5q-4.8-4-13.5-3v12.5l2 9 5 13 4 5v14l-1 1v11l-2 10V200H.5l-.5-.5z" opacity="0"/><path fill="#040503" stroke="#040503" d="m169.5 16 5.5 2.5 1 5.5q6.5-1.2 9 2.5l-1 7q3.6 1.4 3 7l-4.5 7.5H177v2.5l-5 9.5-8 3.5 5 6 1 13-4 12 5 8 5 17 1 18-2 8v15l6 14 1 5v15l-1 5.5-7-.5q4.4-6.1 3-18-2-11-7-19v-11l-1-2 2-7v-21l-5-17-9.5-13.5q-9-8-21-13l-13-4-17-1-1-1-1 1h-22l-10 3Q56.1 81.6 47 93.5q-6 7-8 18l1 2.5 9.5 3 26 14q14.1-9.9 33-15l19-4h17q2.8 1.3 1.5 6.5l-13 27 6 5 6.5 11.5 7.5 3.5q1.1 3.3-1.5 2.5l-3 1q-6.5-1.5-9.5-6.5-2.4-8.6-9.5-12.5-3.2-2.3-10-1l-6.5 5.5q-4 6.5-2 19l5 12 5.5 6.5 12.5 4.5-2.5 3.5q-12.5-.5-17.5-8.5-5.7-6.8-8-17v-11l-1.5-1.5h-16q-8.9-2.6-14-9h-2l-13 8-12 1q-8.5-1.5-12-8l-1.5 8.5-1 21-1 1V200h-5v-2.5q-2.2-1.2-1-6l1-1v-8l2-10 1-24-6-10-4-12-1-17.5h6.5q3 2.8 8.5 2 3.5-17.7 15.5-28l18-11 13-4Q88 69.5 91 66.5l-1-1v-9q1.5-6.5 6.5-9.5 6.8-5.7 20-5l7 2 5-6h7l.5-1.5q1.5-8.5 7.5-12.5 3-3 10-2l8 4 6-9zm1.5 6-4 4q-1 5 1 7-1 4 5 2l4 7q6 2 4-3l-3-2q-3-1-2-4l2-3-4 1-3-2zm-21 5-5 2-3 6 1 11h-3l-5-3h-5l-1 3q4 2 3 8h-3l-10-6q-12-2-17 2-6 2-7 9l1 8h11l1 1 2-1h7l16 4 14 6 16 11 2-9-2-8q-4-8-14-9l-2-3q1-3 7-2l-2-2 2-4h3l6 6h3l5-6q1-8-2-12-1-3-4-2l-3-3q-4-6-12-7ZM24 114q1 23 14 37l11 6h6l6-2q7-3 12-9h3l1 3q5 6 13 8h15l2-4q5-10 21-10l11-19 1-7h-11l-19 4-19 7-15 9-4-1-6-5-17-9z" opacity=".988"/><path fill="#789e42" stroke="#789e42" d="m168.5 33 1 2zm5 0 3.5 6q-2.7 1.1-2-1.5-5.2-2.3-1.5-4.5Zm-18 11q4.6 2.9 5.5 9.5l-3.5-2.5q-5.5-.4-7.5-4.5zm.5 1q-3 4 1 3zm-17.5 5 10.5 6.5-3.5 2.5-8-3-4.5-3.5zm-38 23 2.5.5-2.5.5zm5 0 5.5.5-5.5.5zm-51 13-5 6zm73 25 3.5.5-3.5.5zm-87 1 1 2zm130 12 .5 10.5h-1l-3-4v-4zm-49 25 2.5.5-2.5.5zm-44 7 1 2zm67 3 1 2zm7 2-1 2-1.5-.5zm-102 1 5.5.5-5.5.5zm47 0 8.5.5-8.5.5zm15 0 .5 8.5h-1zm61 10q2.6-.8 1.5 2.5l2 8.5q-2.1-1.6-7.5-1l-1.5-1.5q1.3-5.7 5.5-8.5Zm-56 12 1 2zm2 3 4 5zm-4 5 2 3zm13 1 3.5.5-3.5.5zm7 3 .5 2.5-2 1z"/><path fill="#7ac647" stroke="#7ac647" d="M96.5 73q5.3-1.5 3.5 3l-11-.5zm24 2 2.5.5-2.5.5zm4 1 2.5.5-2.5.5zm21 8 1 2zm2.5 4 4 2.5V92h-4zm-92.5 2 .5 2-2-.5zm-8 7 .5 3-4 1.5-1.5 3.5.5-1.5v-2zm-6 9 .5 2q3-1.2 2 2.5-2 4.5-4 1zm91 4 10.5.5-10.5.5zm13 1 1 2zm2 5 1.5 3.5-2-1zm15 8 .5 2.5h-1zm-18 12 .5 1.5-2 1zm-3 7-1 2zm16 2 .5 2.5h-1zm-33.5 4 2 .5-2 1zm29.5 0-2.5 3.5-.5 3.5-.5-3.5zm-14 1 1 2zm-18 2-3 4zm-7 2-.5 1.5-.5 1.5-.5-1.5zm37 3 1 2zm-39 2 .5 2.5h-1zm5 10 1 2zm2 11 2 3zm4 3 2 3zm5 5 2 3zm4 3 5.5 4.5h-2q1.9 5.4-1.5 4.5l.5-1.5q.5-4-2.5-4.5l-1.5-.5zm-7 1 2.5.5-2.5.5zm14 4 .5 3.5h-1z"/><path fill="#453c5f" stroke="#453c5f" d="m170.5 22 .5 6.5 2.5 2.5 4-1-1.5 2.5-.5 2.5q-2.5-4.8-8.5-5-1.2-6.4 3.5-8Zm-21 5q8.4 1.1 12.5 6.5l2.5 3.5q3.8-.7 4.5 1.5 3 4 2 12l-5.5 6.5h-3l-5.5-5.5 4 2q-.9-6.6-5.5-9.5l-9-6H142v-3.5l3-5.5zm27 9 4.5 2.5q1.8 5.7-4.5 3.5l-1.5-3q2.7 1.1 2-1.5z"/><path fill="#453c5f" stroke="#453c5f" d="M130 43h4.5l5 3h3.5l.5-3 .5 2 5.5 1q1.4 4.1 6.5 4.5l-4 2q-.5 4.5 3 5l-1.5-.5h-4l-3-3q-5.4-4.6-15-5l-2.5-2.5zm-23.5 5h12l10 6h3.5l.5-4 2 4 11 5 2.5-1.5-1 3 10.5 4.5 5.5 5.5 2 8-2 9.5-16.5-11-14-6-16-4h-7l-2 1-1-1H96l-1-8.5q1.4-6.1 6.5-8.5zm-38 85 1 2zm61 7-1 2zm-18 7-3 4zm-34 1 4 5zm-9 1-1 2zm-30 1 1 2zm27 1-1 2zm104 4 .5 2.5h-1zm-25 5 1 2zm-110 2 .5 2.5h-1zm71 2 .5 4.5h-1z"/><path fill="#d44950" stroke="#d44950" d="m24.5 115 .5 2 20 7.5-13 13v3l.5 1.5-6.5-14.5zm106 2h9l.5 2.5-12 23.5-9.5 1v-1q4 .5 4.5-2.5l13-16 3-6.5h-8.5zm-6 1 2.5.5-2.5.5zm-5 1 2.5.5-2.5.5zm-4 1 1.5.5-3.5 1.5L91 144.5l-6 9.5 4 1.5-1.5.5-10.5-8.5q.8-2.2-1.5-1.5h-2l-14 9-9 2q-10-2-14.5-9.5l6.5 5.5 17-17 4.5-3.5.5-1.5 8 6h4l15-9zm-71 1 3.5 1.5-1.5.5zm13 6 3.5 2.5-1.5-.5zm-24 16 2 3zm80 2-1 2zm-7 8-.5 1.5-.5 1.5-.5-1.5zm-16 3 2.5.5-2.5.5z"/><path fill="#d7ed4a" stroke="#d7ed4a" d="m82.5 74 7.5.5L71.5 80 50 93q1.1 2.7-1.5 2l-1.5.5 8.5-9.5 11-7zm20 27 10 2 12.5 7.5q.9 3-3.5 1.5-27.5 5-47 18-13.6-10.8-31.5-16l3.5-6 10-6h3q4.4 8.6 20 6zm-66 55 3 5 5 4 11 2 5-1 14-8q7.6 9.9 25 10l5.5-1q.4 20.8 13.5 30l5.5 2.5-91 .5v-16.5l1-1 1-19z"/><path fill="#ed815b" stroke="#ed815b" d="m25.5 115 23 8 15.5 8-3.5 5-18 17-9.5-10.5-1-5L44.5 124 25 117zm102 3h11l.5 1.5-18.5 23.5q-9.8 1.2-13.5 8.5l-2 4.5-11.5 1-8.5-3 6-9.5 22.5-22.5z"/><path fill="#7ac648" stroke="#7ac648" d="M100 74h15.5l9 3h4l13 5 7.5 5.5-1 4.5 4.5-1 4.5 4.5 7 15v9q-2.9 3.6-2 11l-4 7q.7 7.1-1 10.5-4.7.5-7 4.5-.6 5.6 3 7-.5 3-4.5 2.5l-3.5-2.5-6-12 9-17 1-11-3.5-8.5q-4.7-2.3-13-1-1.2 2.3-6 1l-3-3-19-8-27 8h-9l-10-7h-2l-12 8-2.5-1v-2.5l3.5-5.5q4.2 1.3 2.5-3.5 1.6-5.5 8-4.5-1.5-3.7 1.5-3l9-6 1.5.5q-.8-2.6 2.5-1.5l14-6H100zm19.5 76 4.5.5-6 5-1 2v12q3.5 1.5 1 3-1.3 8.3 3.5 10.5l10.5 8q1.3 3.3-3.5 2-7.4-1.1-10.5-6.5l-5-10-1-14 1-5 4.5-6.5zm-81 8 1 2zm98 37 2.5 1q1.9 5.6-3 4z"/><path fill="#aca63c" stroke="#aca63c" d="m167.5 30 5.5 2q1.3 3.3-3.5 2zm-25 8 6 1 8.5 7.5q.7 2.6-2 1.5 1.7-4.1-2.5-3l-4 1-4.5-2.5zM133 49l5 1.5-5 1.5zM47.5 94l-1 2zm-12 60q3 1.5 0 3zm-1 15 .5 2.5h-1zm-1 9 .5 2.5h-1zm84 17 1 2z"/><path fill="#a9d450" stroke="#a9d450" d="m87.5 73 8.5.5-5.5 1.5-3-1zm-1 2 2.5.5-2.5.5zm-15 5 1.5.5-3.5 1.5v-1zm-6 3-1 2zm-5 3-1 2zm-6 4-1 2zm-6 5-4 5 .5-1.5 1.5-2.5zm8 6 2.5.5-6.5 3.5 2-3zm-8 5-1 2zm71 0 6.5 4.5-.5 1.5-2-3q-4-.5-4-3Zm-76 5-.5 1.5-.5 1.5-.5-1.5zm30 43 12 8 3 1h15l1.5 1.5q1.3 4.6-4.5 2.5-1.8 2.8-8 1l-13-5-5-5-14 8-7 1-9-2-6.5-5.5 1.5.5 8 3h8q11-2.5 18-9Zm-38 3 .5 5.5h-1zm-1 15 .5 2.5h-1zm-2 18 .5 7.5h-1z"/><path fill="#488937" stroke="#488937" d="m111.5 73 4.5.5-4.5.5zm8 1 2.5.5-2.5.5zm30 12 2 3zm4 3 4.5 3.5-1.5-.5zm5 5 2 3zm3 4 4.5 7.5h-1zm-30 13 12.5.5-12.5.5zm38 7 .5 2.5h-1zm-25 5 .5 1.5-1.5 2.5-.5-1.5zm-4 9-.5 1.5-.5 1.5-.5-1.5zm28 0 1 2zm2 4 .5 5.5h-1zm-34 4-.5 1.5-.5 1.5-.5-1.5zm-2 4 1 4q-4.5-2-1-4Zm35 0 .5 3.5h-1zm-40 6 6 7zm-13 1-3 4zm53 0 .5 3.5h-1zm-95 2 2 3zm66 0 1 2zm-101 5 1 2zm97 0 6.5 8.5-5-4zm33 0 .5 3.5h-1zm-23 3 2.5 1.5-1.5.5zm-55 1 4.5.5-4.5.5zm60 1q2.3-.7 1.5 1.5l1 3-2 1 1-3zm20 3 1.5 3.5h-1zm-60 5 .5 2.5h-1zm2 8 1 2zm63 4 .5 8.5-1.5 3.5-.5-2.5 1-1zm-58 5 2 3zm13 6 2.5 1.5-1.5-.5zm2 4-1 2z"/><path fill="#44a446" stroke="#44a446" d="m149.5 87 8.5 6.5 8 13 4 18.5-3 1.5-1 2 5 7-2 9v17l4 9-6 8v2l1.5 1.5 7.5 1v8.5l-2 8.5h-33.5l-.5-4h-1.5l-12.5-9.5-2.5-3.5-4.5-3.5-1-5 1-4-2-2v-9q1.4-6.1 6.5-8.5l3-2 9.5 8.5q1.5 6.5 6.5 9.5l8 3 3.5-2.5-1-4.5-2-.5 2-4q-3-1-2-6 2.3-4.1 7-4.5l1-6.5-1-2 5-11v-2l1-17-7-14z"/><path fill="#44a446" stroke="#44a446" d="M146.5 118q3.5 1 2.5 6.5l-2 7-8 16.5q-3.8.8-5-2.5l11-21z"/></svg>