<svg xmlns="http://www.w3.org/2000/svg" width="200" height="200"><path stroke="#000" d="M105.5 30q7.3.3 9.5 5.5l6 9-2-1-8.5-11.5-5-1zm-3 1 1.5.5q-17.3 7.7-29 21L71.5 57 62 54.5l3.5-.5 6 2 10-11zm28 11q10.1-1.6 12.5 4.5l3 8h-1q-1.2-6.7-5.5-10.5l-9-1zm-4 1 2.5.5-2.5.5zm-4 1 2.5.5-2.5.5zm-82 3L58 52.5l-2.5.5-15-5zm-3 1 1.5.5q-8.9 3.6-14 11L21.5 67l-.5-1.5q3.6-9.4 11.5-14.5zm109 8 .5 4 3 .5-2.5.5q-2.7-1.2-1-5Zm17 1h5l11.5 9.5 4 6-2-1-5.5-7.5-8-6h-5l-5 1v-1zm-12 2 5.5.5-5.5.5zm-131 9 .5 2.5q-4 6.5-2 19l1 4h-1q-2.4-7.1-1-18zm168 15 .5 2.5h-1zm1 4q2.8 6.7 1.5 17.5h-1zm-169 8q3.4 9.6 11 15l9.5 5.5-1.5.5q-9.4-4.6-15.5-12.5l-4-7zm169 11 .5 2.5-2.5 3.5.5-1.5zm-4 8-6 7-16 8v-1q14.2-3.8 22-14Zm-140 3q2.3-.7 1.5 1.5l5 6q-12.8 6.7-21.5 17.5l-5-8-8-1-5.5 4.5 5.5-5.5h6l4.5 3.5 2.5 5.5q7.8-10.7 20.5-16.5zm113 12 3.5.5-7.5 1.5v-1zm-9.5 1 3 .5-2.5 1.5zm-96.5 1 .5 9.5h-1zm-2 1-1 2L37 144.5l-.5 1.5-.5-1.5zm98 1 .5 2.5-2.5 4.5.5-1.5zm-137 6 .5 1.5q-3.3 4.2-2.5 12.5l-.5-8.5zm42 3 6.5 9.5v8h-1v-8q-5.6-3.5-5.5-9.5Zm91 1 .5 1.5-2 1zm-106 3q6.4.1 8.5 4.5l1 5h-1q.7-6.2-3.5-7.5l-5-1zm-28 8 3 4 5 1 2-1v1l-5 1-5.5-4.5zm14 2 1.5 1.5 1 6 3.5 3.5 2.5.5-2.5.5q-5.7-2.8-6-11l-2 1v-1zm22 2-.5 1.5-5.5 6.5-5 2v-1q6.5-1.5 9.5-6.5zm90 2 .5 1.5-1.5 2.5-.5-1.5zm-78 1 .5 2.5h-1zm-1 4 .5 5.5h-1zm77 0 .5 1.5-2.5 6.5-.5-2.5zm-78 7 .5 20.5 2 7h-1l-2-7zm75 2 .5 2.5h-1zm-1 4 .5 3.5-1 3.5 2 .5-3 .5zm3 8h5l8.5 2.5-2.5.5-6-2h-5zm15 3q11.6 2.9 18.5 10.5l-1.5.5-5-5-12-5z" opacity=".082"/><path stroke="#000" d="M0 0h200v200h-32.5q-5.9-6.6-15-10l-9-3-11-1-2.5-1 5-20.5 15.5-33.5 3-1 4 1q18.6-3.9 28.5-16.5 7-6.5 5-22l-3-12-5-10-7.5-8.5-7-5h-5L147 60q-.1-11.5-7.5-17l-9-1-9 3-11-14-5-1-12 6L73 53.5 71.5 56l-31-9Q29.8 50.8 24 59.5l-6 16v14q3.1 14.4 13.5 21.5 4.4 5.1 13 6l2.5 2.5 4 5q-12.7 5.8-20.5 16.5l-5-8-8-1q-9.4 5.1-8.5 20.5l4.5 6.5 5 1 6-3q.3 8.2 6 11h7l8.5-7.5 2-8-4.5-5.5-6.5-1 6.5-8 8-6q-.5 14 7.5 19.5v9l-3 12v20l2 7.5H.5l-.5-.5z" opacity="0"/><path fill="#836742" stroke="#836742" d="M104.5 38q3.8-.7 4.5 1.5l9.5 12.5 17-3q4.5 4.3 4.5 12h-12.5l-7-3-11-2-21-1-8 2 4-5zm-65 17 10 2 5 3 25 5 24 2 1 1 20 1 1-1 27-1 13-3 8.5 6.5-1.5.5-8-2-5 4q-2.6-3.9-10-3l-17 3h-17l-3-1-2 1-1-1-23-2-1-1h-6l-18-4-11-1-6 4H42l-3-7-9.5 5 .5-1.5 6.5-7.5zm95 40 1 2zm-61 7 1 2zm46 7-1 2zm-59 19-1 2zm2 51 .5 8.5h-1z"/><path stroke="#000" d="m104.5 31 4.5.5-6.5 1.5v-1zm6 1 3 4zm-12 2-1 2zm-5 3-2 3zm21 0 2 3zm-25 3-2 3zm28 1 3 4 3.5.5-3.5.5zm-32 2-4 5zm44 0 3.5.5-3.5.5zm-4 1 2.5.5-2.5.5zm14 0 1 2zm2 3 1 2zm-102 1 3.5.5Q31 51 25.5 60l7-8zm40 0-4 5zm-5 6-2 3zm71 1 .5 2.5h-1zm-77 1 2.5.5-2.5.5zm89 3 3.5.5-3.5.5zm-7 1 4.5.5-4.5.5zm21 0 3 4zm5 4 2 3zm3 4 2 3zm3 4 4.5 8.5h-1zm-163 3 .5 3.5h-1zm168 7 .5 2.5h-1zm-168 3 .5 4.5h-1zm169 1 .5 2.5h-1zm-168 6 .5 2.5h-1zm169 0 .5 13.5h-1zm-166 8 2 3zm3 4 5 6zm7 6 2 3zm153 2-7 8-8 5 1-2q8.7-3.8 14-11Zm-147 2 3.5 1.5-1.5.5zm5 2 2.5.5-2.5.5zm4 4 4.5 4.5-1.5 1.5.5-1.5zm-1 7-1 2zm116 0 2.5.5-5.5 1.5v-1zm-119 2-2 3zm105 0 8.5.5-9 .5-.5 3-.5-2.5zm-97 1q2.6-.8 1.5 2.5h-1l-.5-1.5-3 2 1-2zm-12 2-10 11-1-2 1 1zm-23 1 1.5.5-6 5-.5 1.5-.5-1.5zm30 0-2 3zm-22 1 2.5 3.5-2-1zm18 2-7 8zm10 3 1.5 4.5h-1zm-43 5 .5 2.5h-1zm25 1 2.5 1.5-3 .5zm20 0 4.5 5.5-3-2zm-12 3q4.2 1.3 3.5 7.5h-1v-3zm98 0 .5 1.5-5.5 10.5-.5-1.5zm-131 3 .5 2.5h-1zm50 1 .5 6.5h-1zm-49 3 2 3zm13 0q2.3-.7 1.5 1.5l-2.5.5-3 1v-1zm-9 3 3.5.5-3.5.5zm29 2-4 5zm15 0 .5 2.5h-1zm-32 3 4.5 3.5-1.5.5zm31 1 .5 3.5h-1zm-20 1-1 2-1.5-.5zm19 6 .5 8.5h-1zm73 4 .5 2.5h-1zm-1 4 .5 2.5h-1zm-1 5 .5 2 4 .5-3.5.5zm8 3 2.5.5-2.5.5zm-79 1 .5 4.5h-1zm84 0 2.5.5-2.5.5zm4 1 2.5.5-2.5.5zm13 5 6.5 5.5-4.5-3.5z" opacity=".808"/><path fill="#15150c" stroke="#15150c" d="m101.5 38-1 2zm9 2 2 3zm-14 1-2 3zm-4 3-2 3zm21 0 1 2zm2 3 3 4zm-28 1-2 3zm43 0 2.5.5-2.5.5zm-48 4-3 4zm-47 4-6 7zm18 1 2.5 1.5-1.5-.5zm25 0 3.5 1.5-2.5.5zm7 2 4.5.5-4.5.5zm9 1 4.5.5-4.5.5zm-27 1 2.5.5-2.5.5zm36 0 4.5.5-4.5.5zm11 1 11.5.5-11.5.5zm-36 1 2.5.5-2.5.5zm86 0 2.5.5-2.5.5zm-80 1 3.5.5-3.5.5zm74 0 2.5.5-2.5.5zm-65 1 3.5.5-3.5.5zm58 0 3.5.5-3.5.5zm18 0 1 2zm-67 1 4.5.5-4.5.5zm36 0 7.5.5-7.5.5zm-25 1 15.5.5-15.5.5zm62 4 1 2zm-151 5 .5 3.5h-1zm61 0 3.5.5-3.5.5zm19 0 4.5.5-4.5.5zm-24 1 2.5.5-2.5.5zm6 4 2.5.5-2.5.5zm19 0 3.5.5-3.5.5zm25 2 1 2zm-106 2 .5 3.5h-1zm36 0-7 8zm73 0 3 4zm-6 2 1 2zm56 0 .5 2.5h-1zm-120 2-2 3zm67 0 1 2zm8 2 4 5zm46 2 .5 11.5h-1zm-132 1-1 2zm6 0-1 2zm77 1 3 4zm-85 2-.5 1.5-.5 1.5-.5-1.5zm-22 1 1 2zm82 3-3 4zm-79 1 3 4zm41 0 2.5 3.5h-1zm-11 2 .5 2.5h-1zm-25 2 1 2zm3 2 2.5 1.5-1.5.5zm80 0-2 3zm28 0 .5 2.5h-1zm35 0-1 2zm-136 1 .5 1.5-2 1zm61 1 1 2zm73 1-3 4zm-113 1 2.5.5-2.5.5zm43 0 2.5.5-2.5.5zm38 1 .5 4.5h-1zm-5 1 .5 3.5h-1zm32 1-2 3zm-4 3-1 2zm-117 1 1 2zm66 2 .5 2.5h-1zm28 1 .5 2 9 .5-8.5.5zm-49 1 2.5.5-2.5.5zm60 0 2.5.5-2.5.5zm-87 1 3.5.5-3.5.5zm18 0 4.5.5-4.5.5zm-23 4 2.5.5-2.5.5zm9 1 13.5.5-13.5.5zm-57 9-2 3zm6 6 1 2zm0 4-1 2zm-10 3 .5 2 2 .5-1.5.5zm17 0 4.5.5-4.5.5zm33 1 .5 4.5h-1zm-35 1 .5 3.5h-1zm16 3-.5 1.5-1.5 2.5.5-1.5zm-7 2-2 3zm-8 1 1.5 2.5-2-1zm31 12 .5 3.5h-1zm66 20 2.5.5-2.5.5zm5 1 4.5.5-4.5.5zm10 2 2.5.5-2.5.5zm7 2 6.5 3.5-1.5-.5-5-2zm-22 1 .5 2.5h-1z" opacity=".996"/><path fill="#6c523a" stroke="#6c523a" d="m109.5 40 1 2zm-17 5-2 3zm-6 5-1 2zm2 5 12.5.5-12.5.5zm-7 1 2.5.5-2.5.5zm25 0 3.5.5-3.5.5zm-72 2-3 4zm19 0 2.5 1.5-1.5.5zm-16 3q2.3-.7 1.5 1.5l3 5.5h2.5l6-4h5l24 5 32 4 3-1 1 1h17l1-1 21-2 6 3 4-4h3l7.5 2 7 13.5 2 17-2 7-6.5 6.5-12 7-11 1-2.5 1v-3.5l7-7v-9q-1.6-8.9-8.5-12.5l-23-12-13-4q-4.8 1.2-6-1h-34Q56.7 77.7 48 87.5q-4.8 5.2-3 17l1 5.5q-10.6-1.9-16-10.5l-4-7-1-15L28 66h2.5zm93 0 4.5.5-4.5.5z"/><path fill="#6c523a" stroke="#6c523a" d="m79.5 64 2.5.5-2.5.5zm7 1 3.5.5-3.5.5zm71 0 2.5.5-2.5.5zm-63 1 4.5.5-4.5.5zm55 0 3.5.5-3.5.5zm20 0 1 2zm-65 1 4.5.5-4.5.5zm30 0 9.5.5-9.5.5zm-17 1 7.5.5-7.5.5z"/><path fill="#92c44d" stroke="#92c44d" d="M86.5 82h22l4 1 16 6 5.5 5.5 7 11 2 10v12l-2 9-8.5 17.5-.5-2.5 6-17 1-14-4-16-2-5-3.5-3.5q-12.8-9.7-34-11l-1 1h-14l-16 5v-1q9.3-5.7 22-8Zm-25 10-3 4zm-4 5-1 2zm8 2 3.5.5-3.5.5zm54 2 1 2zm-59 3 .5 2.5h-1zm-8 4 .5 2.5h-1zm23 0 .5 1.5-3 2zm-13 2 1 2zm44 0 2 3z"/><path fill="#92c44d" stroke="#92c44d" d="M118.5 116q5.8-.8 7.5 2.5 1.3 6.3-2.5 7.5l-3.5-.5 2-3-3.5-4.5-1.5-.5zm-65 1 1 2zm62 1-1 2zm-51 4 2.5.5-2.5.5zm35 0 2.5.5-2.5.5zm-28 1 3.5.5-3.5.5zm20 0 4.5.5-4.5.5zm-30 5 2.5.5-2.5.5zm-3 5 .5 4.5h-1zm64 52 .5 3.5h-1zm-4 7h3.5v6.5l.5 1.5h-12l-.5-1.5-1-4.5z"/><path fill="#3b572b" stroke="#3b572b" d="m108.5 61 3.5.5-3.5.5zm-84 19 .5 4.5h-1zm65 1 2.5.5-2.5.5zm11 0 4.5.5-4.5.5zm-42 5-3 4zm71 3 5 6zm8 0 3 4zm-77 3-1 2zm53 8 2.5.5-2.5.5zm5 1 1 2zm-12 5 .5 2.5h-1zm-55 5 .5 2.5h-1zm65 7-1 2zm2 0 2 3zm25 0 .5 7.5h-1zm-67 6 13.5.5-13.5.5zm-56 14 2.5 1.5 4 8.5-8.5 5H16l-1-5.5q.9-6.6 5.5-9.5ZM31 152q6.9-1 10 1 1 6.4-4.5 8l-3 1q-4-2.8-2.5-10Zm91.5 40 .5 3.5h-1zm5.5 0 11.5 1 16.5 6.5-27 .5z" opacity=".996"/><path fill="#524335" stroke="#524335" d="m107.5 37 2 3zm4 5 1 2zm-22 5-2 3zm26 1 2 3zm4 3 2.5.5-2.5.5zm-36 1-3 5 4-1h21l1 1 12 1 11.5 3.5-17.5.5-1-1h-10l-1-1h-8l-1-1q-8 .7-12.5-1zm52 9 2.5.5-2.5.5zm-26 6 2.5.5-2.5.5zm21 0 3.5.5-3.5.5zm42 1 2 3zm3 4 1 2zm-150 2 .5 2.5h-1zm47 1 34.5.5-23.5.5-8 2-14 6-6.5 5.5-8 13-.5 5.5q-3.1-4.8-1.5-14.5l6.5-9.5q8.1-6.9 21-9Zm105 0 2.5 3.5-2-1zm-67 1 2.5.5-2.5.5z"/><path fill="#524335" stroke="#524335" d="m92.5 81 4.5.5-4.5.5zm41 3 15 8 6.5 6.5q3.1 5.4 2 15l-7 7-.5 3.5-.5-11.5-3-12zm-108 4 .5 2.5h-1zm158 3 .5 5.5h-1zm-155 6 1 2zm3 4 3 4zm152 1 .5 3.5h-1zm-146 4 1 2zm142 5-3 4zm-5 4-1 2zm-22 8 5.5.5-5.5.5z"/><path stroke="#000" d="M104.5 32h5l4.5 4.5 6.5 9.5 16-3 4.5 3.5q4.6 5.6 5 14.5h8.5l13-3 11.5 9.5 8 14 2 8v18q-3 7.5-9.5 11.5l-13 8-7 2h-10l-1.5 1.5-1 7-15 31-4 17 1.5 1.5h6l13 3q9.6 2.9 15.5 9.5l-6.5.5-12-6-17.5-3v9h-4q-2.2-3.6-1-12.5l7-26 12-25 2-9v-13l-5-16-8.5-9.5-5-3-17-5h-22l-17 5q-8.1 2.9-12.5 9.5-6.6 6.4-6 20l4.5 5.5 17 4h22l1-1 11-1 12-4q2.8 1.4 1.5 6h-6.5l-17 4h-26l-1-1H59q-2.3 3.6-1 12.5l7 10v10l-2 4q1.5 5.5-1 7v21l2 7.5h-5v-3.5l-1-1-1-15 1-1v-11l3-10v-6l-6-8-2-6v-5l1-3.5q-10.9 4.4-18 13.5l-1 3.5q7.3-1 10 3.5l1 6-6.5 8.5-7 2-5.5-4.5-1-7.5-6.5 3h-5l-3.5-3.5-1-7 3-9 4.5-4.5 4-1 4.5 2.5 4.5 7.5q9.1-11.4 22.5-18.5-5.3-2.7-6-8.5l-10.5-3-10.5-9.5-5-8-2-16 2-10 4-9 7.5-7.5 7-4h4l17 6 12 2 8-9q9.9-10.1 24-16Zm2.5 4-10 5-14 11-5 6 2 1q4-1 6 1l28 2 1 1 26-1q1-10-5-14h-5l-11 3-11-14zM40 54l-4 2-7 7-5 14 1 17 6 9q5 6 15 9l1-1 1-8 5-9q5-8 15-12l11-4 11-2 22 1 21 8 12 16 4 18-1 4 2 2h8l7-2 13-8 7-10V94l-2-10-6-11-10-10-16 3h-12l-1 1h-30l-1-1-18-1-19-4h-6l-7-2-2-2zm-20 84-5 8q-2 6 2 8l10-6-3-7q-1-3-4-3Zm13 13-3 3 1 7 2 1 5-1 4-5-1-4z" opacity=".996"/><path stroke="#000" d="m65.5 100 5 1 3.5 3.5 1 4q-1.5 5-9.5 3.5-4.7-1.2-3.5-8.5l1-2.5zm46 1q6.5-1 8.5 2.5 1 6.5-3.5 7.5l-7 1q-3.5-1-2.5-6.5z" opacity=".996"/><path fill="#fbfca5" stroke="#fbfca5" d="M114.5 126q5.8-2.1 4.5 2.5l1 1v8l-2 11-7 20-1 11-1 1v13l-1 1 1 5.5H65.5q-1 0-.5-4.5l-2-5v-18q2.5-1.5 1-7l2-4v-12l-7-10v-8l1-2.5h8.5l1 1h28z"/><path fill="#c2e444" stroke="#c2e444" d="M95.5 85q24.4 1.6 37.5 14.5l5 16 1 12-7 27-7 18-3 13v6.5l-9.5 1-4 2 .5-1.5 1-20 3-13 5-12 2-11v-8l-1-3.5q5.5 1.3 7-2.5 1.3-5.2-1.5-6.5l-6-1-5 4-9 2-13 1-1 1h-15l-1-1-13-1q-5.7-1.2-8.5-5.5l-1-5Q54.3 97.8 63.5 91l17-5h14zM66 99l-2 1-4 5 2 6 4 2 8-1q3-1 2-7-3-5-10-6Zm45 1q-6 2-5 11l6 3 6-2q5-1 3-9-3-4-10-3Z"/></svg>