<svg xmlns="http://www.w3.org/2000/svg" width="200" height="200"><path stroke="#000" d="M75.5 17q4.8-.7 5.5 2.5l1 8h-1l-1-8-1.5-1.5q-4.7-.7-5.5 2.5L64.5 34l.5-1.5zm7 12 .5 3.5h-1zm1 5L87 49.5h-1l-3-12zm96 0q4.8-.7 5.5 2.5l-.5 3.5-2-5q-4 .7-3-1Zm-116 1-.5 1.5-3.5 6.5.5-1.5zm114 0-1 2zm-3 2-2 3-3 2 2-3zm-68 4 3.5 1.5-1.5.5-2-1-18 13 2-3zm61 1-3 4-20 16-4.5 2-1-5.5h1l1.5 4.5zm-109 2-.5 1.5-1.5 3.5-.5-1.5zm52 0 .5 2.5h-1zm72 0 .5 1.5-4.5 14.5-.5-2.5zm-50 3q3.8-.7 4.5 1.5l-1.5-.5q-4.6-.6-6 2l1-2zm-5 3-1 2-11 9-3.5-9.5h1l2 7.5zm10 0 .5 2.5h-1zm-83 2 .5 1.5-3.5 6.5-.5-1.5zm84 2 .5 2.5h-1zm-88 7 .5 1.5-2.5 4.5-.5-1.5zm127 0 .5 2.5-1.5 3.5-.5-2.5zm-130 7 .5 1.5-2.5 4.5-.5-1.5zm128 0 .5 2.5h-1zm-1 4 .5 2.5h-1zm-130 3 .5 1.5-1.5 2.5-.5-1.5zm129 1 .5 3.5-2.5 8.5-.5-3.5zm-131 4 .5 1.5-1.5 2.5-.5-1.5zm-2 5 .5 1.5-5 13v3l-3.5 4.5-8.5 5-6.5 13-.5-1.5q2.5-8.5 8.5-13.5l8.5-5.5zm130 4 .5 2.5h-1zm-1 4 .5 2.5h-1zm-1 4 .5 3.5-3.5 12.5-.5-3.5zm-4 17 .5 3.5-1.5 4.5-.5-3.5zm-2 9 .5 2.5h-1zm-147 6 .5 10.5h-1zm149 2 5.5 3.5 1 9-2.5 7.5-.5-2.5q3-4 2-12l-1-2.5q-5.1-.5-4.5-3Zm-148 10q2.7 10.7 11.5 15.5l-2.5 6.5-.5-3.5 2-3-9-9q-3-2.5-1.5-6.5Zm151 11 .5 4.5-3.5 6.5q-2.6-.8-1.5 2.5l-1 4.5 8 1.5-2.5.5-7.5-1.5 2-7 4-4zm-142 18q.9 5.6 5 8 8.8 5.4 21.5 6l-9.5 16 .5-1.5 8-13-17.5-4.5-7.5-6.5zm146 2q8.3.8 11.5 6.5l-.5 1.5-4-5-7-2zm12 9 1.5 4.5h-1zm2 6 .5 5.5h-1zm0 8 .5 4.5h-1z" opacity=".09"/><path stroke="#000" d="m75.5 18-2 3zm3 0q2.3.8 1.5 4.5h-1zm-6 4-.5 1.5-3.5 5.5.5-1.5zm9 6 .5 2.5h-1zm-14 2-1 2zm-2 3-.5 1.5-1.5 2.5.5-1.5zm17 0 .5 2.5h-1zm96 2 1.5.5-6.5 4.5 2-3zm4 0q2.5 1 1.5 5.5h-1zm-99 3 .5 2.5h-1zm88 2-2 3-4 3 3-4zm-111 2-.5 1.5-4.5 9.5-.5-1.5zm122 0 .5 1.5-1.5 2.5-.5-1.5zm-78 1-1 2-15 11-1.5-2.5h1l.5 1.5zm59 3-3 4zm-28 2 1 2zm-5 1-1 2-8 6 4-5zm28 1-3 4-5 4 4-5zm-21 3 .5 2.5h-1zm-18 4-4 5-1.5-2.5h1l.5 1.5zm19 0 .5 2.5h-1zm-86 1 .5 1.5-1.5 2.5-.5-1.5zm96 0-3 4zm29 0 .5 2.5h-1zm-34 4-2 3-1.5-.5zm-94 3 .5 1.5-1.5 2.5-.5-1.5zm125 4 .5 2.5h-1zm-128 3 .5 1.5-1.5 2.5-.5-1.5zm127 1 .5 2.5h-1zm-1 4 .5 2.5h-1zm-2 9 .5 2.5h-1zm-1 4 .5 2.5h-1zm-1 4 .5 2.5h-1zm-1 4 .5 2.5h-1zm-132 5 .5 1.5-3 2zm-4 4-1 2-3 2 2-3zm133 4 .5 2.5h-1zm-141 3-2 3zm140 1 .5 2.5h-1zm-1 5 .5 2.5h-1zm-1 4 .5 2.5h-1zm-145 4 .5 2.5h-1zm144 0 .5 2.5h-1zm5 4 1 2zm-149 6 .5 2.5h-1zm153 2 .5 3.5h-1zm-150 7 8 9zm148 2 .5 2.5h-1zm-1 5 .5 2.5h-1zm-1 4 .5 1.5q-4.1 1.4-4.5 6.5l-.5-4 4-2.5zm-140 5 .5 6.5h-1zm135 5 .5 1.5-2 1zm-134 3 4.5 6.5-4-3zm138 0 2.5.5-2.5.5zm4 1 2.5.5-2.5.5zm7 2 6.5 4.5 1 3h-1l-3.5-5.5q-3.8-.2-3-2Zm-143 4 2.5 1.5-1.5.5zm7 3 2.5.5-2.5.5zm8 2 2.5.5-2.5.5zm5 1 .5 1.5-2 1zm132 2 .5 2.5h-1zm-134 2-1 2zm-2 3-1 2zm-3 5-.5 1.5-1.5 2.5.5-1.5z" opacity=".827"/><path stroke="#000" d="M0 0h200v200h-14v-12.5l-3-9-4.5-4.5-12-4H162l1-7 3-1.5 5-18v-7l-2.5-3.5-7.5-3.5 4-12v-4l4-13 7-33 9-31q-.7-3.2-5.5-2.5l-15 10-23 19q-3.2-4.7-3.5-12.5l-2.5-3.5-5 1L115 59l-5-17-3.5-1-18 13L81 24.5v-5L78.5 17q-5.7-.7-6.5 3.5l-16 27-17 40-4 15-2.5 3.5-9.5 6.5q-5.7 6.8-8 17v10q2.7 11.8 12 17l-2 3-1 9q1.1 7.4 6.5 10.5 8.5 5 20.5 6.5L41.5 200H.5l-.5-.5z" opacity="0"/><path fill="#f05b5e" stroke="#f05b5e" d="m161.5 69 .5 1.5q-7.6 21.9-11 48l-1.5 1.5-10-6-3 2q-8.6-7.4-21.5-10.5L126.5 90l12 8zm-82 96 10 1 1.5 1.5-3.5 4.5-5 1-5.5-3.5-2-3zm15 8-1 2zm-21 1 1 2zm4.5 14h13v11.5h-1V193h-3.5q-1.5-2.5-7-1l-1.5-1.5zm-.5 4 .5 2.5h-1z"/><path fill="#fdd52e" stroke="#fdd52e" d="m174.5 45 1.5.5-10 35-9 42-3.5 6.5q-5.2 1.3-6.5-1.5l-5.5-8.5-3.5-2.5 1.5-2.5 10 6 2.5-5.5 3-19 7-26-5 4L138.5 98l-12-8-12 16-25-7-23-2-1 1h-10l-6 2-.5-2.5Q57.2 68.7 73.5 48q4.7 14.8 13 26l14-15 2-1 1.5 4.5L114.5 77l19-16 4.5 13q3.8.8 5-2.5l2.5-3.5zm-96 146 11.5 2v7H77z"/><path fill="#f2e2c7" stroke="#f2e2c7" d="M75.5 29 80 50.5l4 11 2.5 2.5 3-1 15-13 7.5 20h2.5l5.5-4.5 1.5-2.5 10-7q2.8 1.4 1.5 6l-4.5 2-14 13L104 62.5l-1.5-4.5L89 70.5 86.5 74q-8.3-11.2-13-26Q56.1 69.5 49 100l-6.5 2-.5-2.5 19-47Q66.6 39.1 75.5 29Zm-24 97h2L67 137.5l-2.5 3.5-13 1q-5.5-2-3.5-11.5zm62 7 2.5 1.5v7l-2 3.5q-3.4 3.7-13.5 2l-6.5-4.5q-1.9-5.4 1.5-4.5zm35 23 6.5 1q1.6 2.1 1 7.5l-2 5.5q-2.7 1.9-9.5 1l-7 4-23 6-25 1-1-1h-17l-1-1h-10l-1-1-12-1-10-3-5.5-4.5-1-7 2.5-3.5 9 2h18l5.5-1q1.8 9.5 8.5 15 3.5 4 12 3 5.8-1.2 8.5-5.5l4.5-8.5q8.9 4.6 22 5l13-3 9.5-6 2.5-4z"/><path fill="#252b34" stroke="#252b34" d="m75.5 27-1 2zm45 36-1 2zm-38 41 2.5.5-2.5.5zm0 6 2.5.5-2.5.5zm48 8 1 2zm-11 2 1 2zm15 1 1 2zm-10 2 3 4zm15 3 1 2zm-19 1 4 5zm-93 1 .5 2.5h-1zm-6 4 .5 4.5h-1zm6 1 .5 2.5h-1zm116 3 .5 2.5h-1zm-9 4 .5 2.5h-1zm-70 1 5.5.5-5.5.5zm-40 3 3 4zm9 0 1 2zm42 3 2.5.5-2.5.5zm74 1 3.5 1.5-4 .5zm-120 1 2 3zm101 2-2 3zm27 0 3.5 2.5.5-2.5.5 2.5-1.5 1.5zm-123 1 1 2zm92 2-1 2-1.5-.5zm-85 1 4.5.5-4.5.5zm16 0 3.5.5-3.5.5zm25 0 2.5.5-2.5.5zm29 0 2.5.5-2.5.5zm8 1 2.5.5-2.5.5zm19 0-1 2zm16 0 1 2zm-11 3-1 2zm-80 1 2.5.5-2.5.5zm17 1 3.5.5-3.5.5zm76 0 .5 3.5h-1zm-69 1 2.5.5-2.5.5zm29 1 6.5.5-6.5.5zm-43 1 1 2zm22 7-4 5zm-22 2 2 3zm-10 7 3.5.5-3.5.5zm70 2-1 2zm-13 3 1.5.5-4.5 3.5zm13 0 1 2zm-64 1 2.5.5-2.5.5zm34 1 3.5.5-3.5.5zm25 1 1 2zm51 1 .5 2.5h-1z" opacity=".996"/><path fill="#5cd0d4" stroke="#5cd0d4" d="m39.5 110 2.5 4q-7 .6-10.5 6l-2.5-1 1-4zm25 5 18 1 16 3 17 6 8.5 6.5q4.2 4.3 4 13l-3.5 4.5q-3.5 2.5-11 1l-10.5-2.5q8 .6 11-2.5l2-3.5v-7l-2.5-1.5-19.5 5q-1.2 6 3 7.5l-1.5-.5-19-4-11.5-.5 2-3L53.5 126h-2q-5.2 2.8-3.5 12.5l2.5 3.5h-9l-6.5-3-2-5.5v-4l5.5-7.5 9-4zm91 21 8.5 2q1.5 3.8-1.5 3l-8.5-2z"/><path fill="#354157" stroke="#354157" d="m63.5 103 4.5.5-4.5.5zm9 0 2.5.5-2.5.5zm-17 1 2.5.5-2.5.5zm20.5 0 17.5 2 27 8 9 4 9.5 7.5q5.7 7.8 5 22l-3.5 6.5q-2.2-.7-1.5 1.5-6.7 9.3-24.5 7.5l-19-6-11-2h-27l-1 1h-10l-10-2-8.5-5-6-9.5v-11h1q-1.2 4.6 4 2.5v4.5q1.8 7.2 7.5 10.5l6 2h18l1-1h15l16 3 16 5 15 2q6.6-.9 9.5-5.5 3.7-3.8 4-11-2.7-11.2-10.5-17.5l-7-4-17-6-16-3-16.5-.5 8-.5z"/><path fill="#354157" stroke="#354157" d="m61.5 109 5.5.5-5.5.5zm-31 5-1 2zm-3 4-1 2zm8 7-1 2zm114 10 .5 2.5h-1zm14 2 1 2zm-13.5 2 8.5 1 5.5 2.5-3.5 11.5q-3.4-4.9-10.5-5zm-79.5 2 4.5.5-4.5.5zm58 0 .5 2.5h-1zm-83 1 8.5.5-8.5.5zm3 19 4.5.5-4.5.5zm24.5 0 19 2q1.8 4.9-4.5 3l-1-1h-10q-1.8 2.8-3.5-1.5zm87.5 15 3.5.5-3.5.5zm-17 2 1 1 20 2 12.5 5q2.7 3 3 9.5l-1 4.5h-10.5q-2.6-6.4-12-6-5.8 1.3-8 6h-7l-8.5-16.5 10-3.5zm32 2 1 2zm-53 5q4.8-.7 5.5 2.5 2.8 1.7 2 7l-3.5 5.5-.5-2-10.5-3-1.5.5q1.5-6.5 6.5-9.5zM61 186l17 1.5-1 2.5-16-2zm46.5 1q4.4-1.5 3.5 1.5l-2 4.5q-6.5-2.1-17-1l.5-4h14zm-54 6 1 2zm-1 2-1 2z"/><path stroke="#000" d="m67.5 31-1 2zm113 4 2.5 1.5-1.5-.5zM80 36q4.9-1.6 3 4-4.9 1.6-3-4Zm-16.5 1 .5 3-2-.5zm112 1-1 2zm-3 2-1 2zm-89 1 .5 2.5h-1zm22 2 3.5.5-4.5 1.5zm63 0-.5 1.5q1.8 5.7-4.5 3.5l-1.5.5zm-109 2 .5 3-2-.5zm25 0 .5 2.5h-1zm15 2-1 2zm80 1 .5 2.5-2 1zm-48 1 .5 3q-6-2-4 4h-4.5l2-3zm-36 1-1 2zm64 0-3 4zM84 52q4.1-1.7 3 2.5l.5 1.5q-5.7 1.6-3.5-4Zm-28.5 1 .5 3-2-.5zm35 1-1 2zm64 0-1 2zm-42 1 1.5 5q-4.1 1.2-1.5-5Zm8 2-.5 1.5q.8 2.3-1.5 1.5l-1.5.5zm29 1-1 2zm-97 2 .5 1.5-2.5 3.5.5-1.5zm92 2-3 4-1.5-.5zm-101 19 .5 7q-3.7 1.5-3-1.5zm-5 14q2.5 1.2 1.5 5-3.7 1.5-3-1.5z" opacity=".996"/><path stroke="#000" d="m36.5 101 .5 3.5-3 2q2.8-1.2 2.5-5.5Zm127.5 3q3-1.2 2 2.5l-2 1zm-137.5 7-2 3zm-4 5-1 2zm137 13 .5 2 2 .5-1.5.5zm-143 2 .5 6.5h-1zm148 1 1 2zm3 2 1 2zm-149 10q2.6-.8 1.5 2.5l.5 1.5zm148 7 .5 2.5h-1zm-138 4 .5 2.5-1.5 2.5-.5-1.5zm135.5 1q2.7-1.1 2 1.5l-1.5 2.5zm-138 8q3.7-1.2 2 4-3.7 1.2-2-4Zm134.5 2 .5 1.5-1.5 2.5-.5-1.5zm-1 5q4.5-1 5.5 1.5l-1.5-.5q-5 1-4-1Zm-131 3 3.5 2-.5 2zm150 2 1 2zm-128 7q4.4-1.5 3.5 1.5l-1.5-.5q-3 .5-2-1Zm2 3-1 2zm132 3 .5 9.5h-1zm-138 6q2.5 1.2 1.5 5l-4-.5z" opacity=".996"/><path fill="#1e1c17" stroke="#1e1c17" d="m174.5 44-1 2zm-4 3-1 2zm-4 3-2 3zm-5 4-2 3zm-69 4-3 4zm64 0-2 3zm-34 3-1 2zm29 1-2 3zm-6 5-2 3zm-88 31 4.5.5-4.5.5zm20 0 3.5.5-3.5.5zm14 2 2.5.5-2.5.5zm43 14 2 3zm5 4 1 2zm-106 1-1 2zm99 0 1 2zm11 3 1 2zm-6 1 2 3zm-9 5 1 2zm21 1 2.5.5-2.5.5zm-115 9 1 2zm-4 3 2 3zm114 1 .5 2.5h-1zm-3 11-2 3zm20 1-1 2zm-89 6 6.5.5-6.5.5zm12 1 2.5.5-2.5.5zm-54 3 .5 3.5h-1zm46 5 2 3zm14 0-2 3zm6 13 3.5.5-3.5.5zm28 2 3.5 2.5-2.5-1.5zm-30 3 8.5.5-8.5.5z" opacity=".996"/><path fill="#0a0b0c" stroke="#0a0b0c" d="m94.5 56-1 2zm31 2-2 3zm8.5 2q3.7-1.4 2 4.5h-1zm13.5 5-1 2zm-82 37 7.5.5-7.5.5zm-9 1 2.5.5-2.5.5zm21 0 3.5.5-3.5.5zm-18 7 3.5.5-3.5.5zm16 0 5.5.5-5.5.5zm-10 4 7.5.5-7.5.5zm-38 3-2 3zm114 3 1 2zm-6 1 1 2zm-12 2 4 5zm6 7 1 2zm22 4 2.5.5-2.5.5zm-7 5 .5 2.5h-1zm5 2 .5 5.5h-1zm-126 3 7 8zm121 1 .5 2.5h-1zm-83 1 12.5.5-12.5.5zm-18 1 12.5.5-12.5.5zm87 3-2 3zm27 2 2 3zm-123 1 1 2zm29 2 4.5.5-4.5.5zm8 0 8.5.5-8.5.5zm44 0 2.5.5-2.5.5zm46 0-1 2zm-114 1 9.5.5-9.5.5zm38 0 2.5.5-2.5.5zm53 1-1 2zm-97 3 2.5.5-2.5.5zm18 0 2.5.5-2.5.5zm20 0 2.5.5-2.5.5zm13 2 1 2zm-21 8 1 2zm11 3 2.5.5-2.5.5zm64 3 4.5.5-4.5.5zm-58 6 7.5.5-7.5.5zm12 0 5.5.5-5.5.5zm-37 3 5.5.5-5.5.5zm56 0-1 2zm-45 1 12.5.5-12.5.5zm34 0 3.5.5-3.5.5zm-49 2 .5 3.5h-1zm-5 3-1 2zm79 7 1 2-2.5-.5z" opacity=".996"/><path fill="#656468" stroke="#656468" d="m75.5 28-2 3zm-3 4-1 2zm100 14-1 2zm-4 3-1 2zm-65 1-1 2zm-4 3-1 2zm64 0-1 2zm-32 2 1 2zm-36 1-6 7zm34 0-1 2zm29 1-1 2zm-33 2-3 4zm28 2-1 2zm-34 4-1 2zm29 0-2 3zm-6 6-2 3zm-76 26 7.5.5-7.5.5zm2 6 7.5 1v5H61.5l-16 3-3 2-2.5-3.5 8.5-4.5 10-2h9zm-31 7 1.5.5-4.5 2.5 1-2zm-5 3-1 2zm7 1 1.5.5-4.5 2.5 1-2zm34 1 3.5.5-3.5.5zm-44 1-.5 1.5q-.7 2.3 1.5 1.5l1 1 3.5-2.5-5 3.5-3 6.5v3.5q-5.6 2.2-4-3.5zm108 0 1 2zm4 3 1 2zm13 9-1 2-1.5-.5zm-30 4 1 2zm25.5 3 3.5 1 2-1-1.5 2.5q-.7 2.3 1.5 1.5v1l-5.5-1zm8.5 1 2.5.5-2.5.5zm-31 1 .5 2.5h-1zm32 3 4.5 1.5-1.5.5-3-1zm-100 1 2.5.5-2.5.5zm90 14 3.5.5-3.5.5zm-3 1-2 3zm-103 5 4.5.5-4.5.5zm10 0 6.5.5-6.5.5zm87 1-1 2zm-64 3 2.5.5-2.5.5zm-8 2 1 2zm-37 2 3.5 4.5-4-3zm86 0 3.5.5-3.5.5zm-47 1 1 2zm70 3-1 2-1.5-.5zm-64 3 1 2zm14 0-1 2-1.5-.5zm65 0 14 2 7.5 4.5 2 6-2-1q.8-2.2-1.5-1.5l-11-5-20.5-2.5 2.5-1.5h8zm-75 2 5.5.5-5.5.5zm-12 2 2.5.5-2.5.5zm9 1 10.5.5-10.5.5zm29 0 4.5.5-4.5.5zm-28 6h13l.5 5h12.5l3.5 1-2.5 7H91v-12H78l-1 12H62.5l-1.5-1.5-1-10.5 17 2zm-25 7q2.8 1.4 1.5 6l-5-.5zm103 0q8.9-.4 11.5 5.5l-18.5.5 4-5zm-41 1 10.5 3-.5 2H113z"/><path stroke="#000" d="M75.5 19q6.1-1.8 3.5 5.5L82 36q-3.7-1.2-2 4 4.5-1.7 3 3.5l3 8.5q-3.7-1.2-2 4h5.5l12-10 7.5-2 3 10.5V60h2q-1.1 2.7 1.5 2l4.5-2 2.5-4h5.5v-4h4q-1.6-4.9 4-3l4 17 21.5-17 6.5-1q-1-4.7 2.5-6l7-5 4-1q2.3.8 1.5 4.5l-5 11v2L166 104q-3.3-1.3-2 3.5v2l-2 13-3 8q.8 2.3 4.5 1.5l5.5 4.5v7l-3 8v4.5h-2v5h-1.5l-3.5 7.5v3.5l5.5 1h2l10 2 4.5 3q4.5 8 3 22l-4-.5v-12l-2-6-2.5-2.5-9-3h-20q-5.9 5.6-15.5 6l9 17.5-4.5.5q-2-4-4 0-4.4 1.5-3.5-1.5l3-7-5.5-7.5q-5.5-.5-7.5 2.5l-6 13.5-5-.5 5-13.5-4.5 1h-20l-1-1h-17l-1-1H60l-1 6.5 2 8-5 .5q.9-5.7-1.5-9l-6 9-1.5-5.5 7-11.5-5.5-1h-2L32 178q1.1-2.7-1.5-2l-4.5-7.5 2-.5v-4h-1.5l.5-1.5 2-7.5-8-6.5-1-4.5q-3 1.3-2-2.5l-1-1v-12q3-12 11.5-18.5l8.5-5.5V100q4.5 1.8 3-3.5l-1-3 2-5.5h3v-7.5l5-13 4-6 1-5.5q3.3 1.3 2-3.5l2-4.5q3.3 1.3 2-3.5l2-4.5q3.3 1.3 2-3.5zm.5 8Q65 40 58 57l-17 43 1 4 9-4 13-1 1-1 19 1 20 4 19 6 16 9q6 4 7 11 3 2 9 1l3-7 5-26 2-4v-4l12-46-29 22-6 7-4 1-2-5v-7l-2-1-1-6-7 4-7 8-5 4-8-21q-11 4-17 13h-4l-6-19-2-14zm-10 75-1 1h-8l-9 2-15 7q-9 6-12 18-1 9 2 15l13 10 11 1 1 1 20-1 1-1 27 3 18 6h12l12-5q5-4 7-11v-8l-4-13-9-9-22-9-21-5zm82 32 1 3v13l7 1 5 6 1-1 3-19-5-2zm0 21-2 1-2 3-10 7-13 3-23-5-3 8q-3 4-9 6-7 1-9-2-8-6-10-16h-7l-1 1H45q-2-2-7-1l-4-2-4 5 1 9 6 4 10 3 12 1 1 1h11l1 1h16l1 1h17l1-1h9l10-2 13-4 8-5q1 2 6 1 6-3 4-13-1-5-9-4Zm-77 5 4 9 8 5 5-1q4-3 6-9l-5-3z"/><path stroke="#000" d="m63.5 110 21 1 16 3 22 9 6.5 6.5q4.5 4.5 5 13-1.4 8.1-7.5 11.5-2.3 2.7-8 2l-38-9-19-1-1 1h-20q-6.9-1.6-10.5-6.5-3.1-4.4-2-13l7.5-9.5 11-5zm2.5 4-1 1h-8l-9 2-9 4-7 9 1 8q3 4 10 5h15l1-1h18l11 3h5l7 3 14 3q7 2 11-1l4-5-1-9-2-3-8-8-19-7-16-3z"/></svg>