<svg width="200" height="200" version="1.1" xmlns="http://www.w3.org/2000/svg" desc="Created with imagetracer.js version 1.2.6" ><path fill="rgb(0,0,0)" stroke="rgb(0,0,0)" stroke-width="1" opacity="0.08627450980392157" d="M 96.5 64 L 119.5 65 L 125.5 67 L 131.5 67 L 134 68.5 L 132.5 69 L 119.5 66 L 96.5 65 L 95.5 66 L 80.5 67 L 70.5 70 L 51.5 81 L 52.5 79 L 70.5 69 L 80.5 66 L 95.5 65 L 96.5 64 Z " /><path fill="rgb(0,0,0)" stroke="rgb(0,0,0)" stroke-width="1" opacity="0.08627450980392157" d="M 135.5 69 Q 154.8 75.2 166 89.5 L 177 107.5 L 180 120.5 L 178.5 123 L 178 121.5 L 179 118.5 Q 174 96.5 159.5 84 L 147.5 75 L 140.5 71 L 135.5 70 L 135.5 69 Z " /><path fill="rgb(0,0,0)" stroke="rgb(0,0,0)" stroke-width="1" opacity="0.08627450980392157" d="M 49.5 81 L 47.5 84 L 33 97.5 L 25 112.5 L 23 120.5 Q 24.3 125.3 22 126.5 L 22 143.5 L 23 148.5 L 19 163.5 L 11 183.5 L 8.5 200 L 8 192.5 Q 12.2 173.2 20 157.5 L 22 144.5 L 21 143.5 L 21 126.5 Q 25.4 100.9 41.5 87 L 49.5 81 Z " /><path fill="rgb(0,0,0)" stroke="rgb(0,0,0)" stroke-width="1" opacity="0.08627450980392157" d="M 179.5 124 L 180 133.5 L 179 134.5 L 179 146.5 Q 187.6 160.9 193 178.5 L 194 192.5 Q 191.8 193.7 193 198.5 L 191.5 200 L 191 198.5 Q 194 193.5 193 184.5 L 189 169.5 L 177 144.5 L 178 143.5 L 179.5 124 Z " /><path fill="rgb(0,0,0)" stroke="rgb(0,0,0)" stroke-width="1" opacity="0" d="M 0 0 L 200 0 L 200 200 L 192 199.5 L 194 192.5 L 194 184.5 L 190 169.5 L 179 146.5 L 179 134.5 L 180 133.5 L 180 124.5 L 179 121.5 L 180 118.5 Q 174.6 94.9 158.5 82 L 142.5 71 L 131.5 67 L 125.5 67 L 119.5 65 L 109.5 65 L 108.5 64 L 96.5 64 L 95.5 65 L 80.5 66 L 65.5 71 L 47.5 82 L 35 93.5 L 24 112.5 L 21 126.5 L 21 143.5 L 22 148.5 L 18 163.5 L 10 183.5 L 8 192.5 L 8 200 L 0.5 200 L 0 199.5 L 0 0 Z " /><path fill="rgb(63,55,110)" stroke="rgb(63,55,110)" stroke-width="1" opacity="1" d="M 101.5 74 L 106 74.5 L 101.5 75 L 101.5 74 Z " /><path fill="rgb(63,55,110)" stroke="rgb(63,55,110)" stroke-width="1" opacity="1" d="M 76.5 78 L 79.5 82 L 81 82.5 L 77.5 83 L 63.5 91 L 60.5 91 L 57 88.5 L 76.5 78 Z " /><path fill="rgb(63,55,110)" stroke="rgb(63,55,110)" stroke-width="1" opacity="1" d="M 97.5 79 L 105 79.5 L 97.5 80 L 97.5 79 Z " /><path fill="rgb(63,55,110)" stroke="rgb(63,55,110)" stroke-width="1" opacity="1" d="M 88.5 80 L 94 80.5 L 88.5 81 L 88.5 80 Z " /><path fill="rgb(63,55,110)" stroke="rgb(63,55,110)" stroke-width="1" opacity="1" d="M 109.5 80 L 114 80.5 L 109.5 81 L 109.5 80 Z " /><path fill="rgb(63,55,110)" stroke="rgb(63,55,110)" stroke-width="1" opacity="1" d="M 154.5 87 L 155.5 89 L 154.5 87 Z " /><path fill="rgb(63,55,110)" stroke="rgb(63,55,110)" stroke-width="1" opacity="1" d="M 137.5 88 L 138.5 90 L 137.5 88 Z " /><path fill="rgb(63,55,110)" stroke="rgb(63,55,110)" stroke-width="1" opacity="1" d="M 143.5 92 L 144.5 94 L 143.5 92 Z " /><path fill="rgb(63,55,110)" stroke="rgb(63,55,110)" stroke-width="1" opacity="1" d="M 154.5 92 L 158.5 97 L 154.5 92 Z " /><path fill="rgb(63,55,110)" stroke="rgb(63,55,110)" stroke-width="1" opacity="1" d="M 41.5 96 L 40.5 98 L 41.5 96 Z " /><path fill="rgb(63,55,110)" stroke="rgb(63,55,110)" stroke-width="1" opacity="1" d="M 47.5 96 Q 50.3 97.2 48 98.5 L 46 104.5 L 46 106.5 L 45 111 Q 41.2 110.3 40 113.5 L 39 116.5 Q 41.2 117.8 40 122.5 L 39 123.5 L 39 133 L 31 131 L 32 120.5 L 35 112.5 Q 39.7 102.7 47.5 96 Z " /><path fill="rgb(63,55,110)" stroke="rgb(63,55,110)" stroke-width="1" opacity="1" d="M 153.5 103 L 154.5 105 L 153.5 103 Z " /><path fill="rgb(63,55,110)" stroke="rgb(63,55,110)" stroke-width="1" opacity="1" d="M 114.5 114 L 117.5 118 L 114.5 114 Z " /><path fill="rgb(63,55,110)" stroke="rgb(63,55,110)" stroke-width="1" opacity="1" d="M 80.5 118 L 79.5 120 L 80.5 118 Z " /><path fill="rgb(63,55,110)" stroke="rgb(63,55,110)" stroke-width="1" opacity="1" d="M 160.5 118 L 165 121.5 L 162.5 120 L 160.5 118 Z " /><path fill="rgb(63,55,110)" stroke="rgb(63,55,110)" stroke-width="1" opacity="1" d="M 164.5 128 L 163.5 130 L 164.5 128 Z " /><path fill="rgb(63,55,110)" stroke="rgb(63,55,110)" stroke-width="1" opacity="1" d="M 161.5 137 L 162 139.5 L 161 139.5 L 161.5 137 Z " /><path fill="rgb(63,55,110)" stroke="rgb(63,55,110)" stroke-width="1" opacity="1" d="M 39.5 139 L 40 141.5 L 39 141.5 L 39.5 139 Z " /><path fill="rgb(63,55,110)" stroke="rgb(63,55,110)" stroke-width="1" opacity="1" d="M 114.5 144 L 113.5 146 L 114.5 144 Z " /><path fill="rgb(63,55,110)" stroke="rgb(63,55,110)" stroke-width="1" opacity="1" d="M 83.5 145 L 84.5 147 L 83.5 145 Z " /><path fill="rgb(63,55,110)" stroke="rgb(63,55,110)" stroke-width="1" opacity="1" d="M 154.5 157 L 153.5 159 L 154.5 157 Z " /><path fill="rgb(63,55,110)" stroke="rgb(63,55,110)" stroke-width="1" opacity="1" d="M 164.5 162 L 168 162.5 L 164.5 163 L 164.5 162 Z " /><path fill="rgb(63,55,110)" stroke="rgb(63,55,110)" stroke-width="1" opacity="1" d="M 153.5 165 L 154 174.5 L 153 174.5 L 153.5 165 Z " /><path fill="rgb(63,55,110)" stroke="rgb(63,55,110)" stroke-width="1" opacity="1" d="M 160.5 166 L 161 168.5 L 160 168.5 L 160.5 166 Z " /><path fill="rgb(63,55,110)" stroke="rgb(63,55,110)" stroke-width="1" opacity="1" d="M 35.5 173 L 36 179.5 L 35 179.5 L 35.5 173 Z " /><path fill="rgb(63,55,110)" stroke="rgb(63,55,110)" stroke-width="1" opacity="1" d="M 161.5 173 L 162 175.5 L 161 175.5 L 161.5 173 Z " /><path fill="rgb(63,55,110)" stroke="rgb(63,55,110)" stroke-width="1" opacity="1" d="M 174.5 179 L 173.5 181 L 174.5 179 Z " /><path fill="rgb(63,55,110)" stroke="rgb(63,55,110)" stroke-width="1" opacity="1" d="M 39.5 185 L 40 199.5 L 39 199.5 L 39.5 185 Z " /><path fill="rgb(63,55,110)" stroke="rgb(63,55,110)" stroke-width="1" opacity="1" d="M 34.5 186 L 35 188.5 L 34 188.5 L 34.5 186 Z " /><path fill="rgb(63,55,110)" stroke="rgb(63,55,110)" stroke-width="1" opacity="1" d="M 149.5 193 L 150 196.5 L 149 196.5 L 149.5 193 Z " /><path fill="rgb(54,48,88)" stroke="rgb(54,48,88)" stroke-width="1" opacity="0.996078431372549" d="M 117.5 66 L 120 66.5 L 117.5 67 L 117.5 66 Z " /><path fill="rgb(54,48,88)" stroke="rgb(54,48,88)" stroke-width="1" opacity="0.996078431372549" d="M 100.5 70 L 104 70.5 L 100.5 71 L 100.5 70 Z " /><path fill="rgb(54,48,88)" stroke="rgb(54,48,88)" stroke-width="1" opacity="0.996078431372549" d="M 88.5 71 L 91 71.5 L 88.5 72 L 88.5 71 Z " /><path fill="rgb(54,48,88)" stroke="rgb(54,48,88)" stroke-width="1" opacity="0.996078431372549" d="M 113.5 71 L 116 71.5 L 113.5 72 L 113.5 71 Z " /><path fill="rgb(54,48,88)" stroke="rgb(54,48,88)" stroke-width="1" opacity="0.996078431372549" d="M 55.5 84 L 54.5 86 L 55.5 84 Z " /><path fill="rgb(54,48,88)" stroke="rgb(54,48,88)" stroke-width="1" opacity="0.996078431372549" d="M 151.5 84 L 153.5 87 L 151.5 84 Z " /><path fill="rgb(54,48,88)" stroke="rgb(54,48,88)" stroke-width="1" opacity="0.996078431372549" d="M 161.5 94 L 162.5 96 L 161.5 94 Z " /><path fill="rgb(54,48,88)" stroke="rgb(54,48,88)" stroke-width="1" opacity="0.996078431372549" d="M 39.5 98 L 38.5 100 L 39.5 98 Z " /><path fill="rgb(54,48,88)" stroke="rgb(54,48,88)" stroke-width="1" opacity="0.996078431372549" d="M 164.5 98 L 165.5 100 L 164.5 98 Z " /><path fill="rgb(54,48,88)" stroke="rgb(54,48,88)" stroke-width="1" opacity="0.996078431372549" d="M 94.5 111 L 109.5 112 L 118 118.5 Q 122.2 123.8 122 133.5 L 116.5 143 Q 108.8 151.3 90.5 149 L 80 142.5 Q 74.8 138.2 76 127.5 Q 78.4 118.4 85.5 114 L 94.5 111 Z M 95 116 L 89 118 L 81 128 L 81 135 L 84 140 L 92 144 Q 106 146 113 140 L 117 134 L 117 129 L 114 122 L 109 117 L 95 116 Z " /><path fill="rgb(54,48,88)" stroke="rgb(54,48,88)" stroke-width="1" opacity="0.996078431372549" d="M 27.5 128 L 28 134.5 L 27 134.5 L 27.5 128 Z " /><path fill="rgb(54,48,88)" stroke="rgb(54,48,88)" stroke-width="1" opacity="0.996078431372549" d="M 27.5 138 L 28 141.5 L 27 141.5 L 27.5 138 Z " /><path fill="rgb(54,48,88)" stroke="rgb(54,48,88)" stroke-width="1" opacity="0.996078431372549" d="M 29.5 171 Q 34 170 35 172.5 L 33.5 173 L 30.5 172 L 27 178.5 L 25 188.5 L 24.5 200 L 24 188.5 L 26 178.5 L 29.5 171 Z " /><path fill="rgb(54,48,88)" stroke="rgb(54,48,88)" stroke-width="1" opacity="0.996078431372549" d="M 154.5 181 L 158 183.5 L 157 195.5 L 155.5 200 L 155 196.5 L 156 195.5 L 157 183.5 L 154.5 181 Z " /><path fill="rgb(54,48,88)" stroke="rgb(54,48,88)" stroke-width="1" opacity="0.996078431372549" d="M 150.5 189 L 151 191.5 L 150 191.5 L 150.5 189 Z " /><path fill="rgb(54,48,88)" stroke="rgb(54,48,88)" stroke-width="1" opacity="0.996078431372549" d="M 14.5 194 L 15 196.5 L 14 196.5 L 14.5 194 Z " /><path fill="rgb(54,48,88)" stroke="rgb(54,48,88)" stroke-width="1" opacity="0.996078431372549" d="M 149.5 197 L 150 199.5 L 149 199.5 L 149.5 197 Z " /><path fill="rgb(90,83,178)" stroke="rgb(90,83,178)" stroke-width="1" opacity="1" d="M 94.5 71 L 118.5 72 L 136.5 76 Q 152.7 83.3 163 96.5 Q 169.5 104 172 115.5 L 170 114.5 Q 171.1 111.2 168.5 112 L 167 112.5 Q 163.6 97.4 152.5 90 L 144.5 84 L 124.5 76 L 112.5 75 L 111.5 74 L 95.5 74 L 78.5 77 Q 65.8 81.3 56 88.5 L 58 89.5 L 56.5 90 L 54 86.5 L 71.5 76 L 80.5 73 L 93.5 72 L 94.5 71 Z " /><path fill="rgb(90,83,178)" stroke="rgb(90,83,178)" stroke-width="1" opacity="1" d="M 77.5 84 Q 80.8 82.9 80 85.5 L 81 86.5 L 81 94.5 Q 75.3 110.3 63.5 120 L 51.5 129 L 40 132 L 41 118.5 L 40 114.5 L 46 110.5 L 48 99 Q 50.7 97.9 50 100.5 Q 51.5 103.5 53 100.5 L 54 95 L 61.5 91 L 63.5 92 L 77.5 84 Z " /><path fill="rgb(90,83,178)" stroke="rgb(90,83,178)" stroke-width="1" opacity="1" d="M 44.5 93 L 49 96.5 L 47.5 96 L 40 103.5 L 32 119.5 L 31 124.5 L 31 144.5 Q 33.7 146.3 32 152.5 L 20 181.5 L 18 191.5 L 18 200 L 15 200 L 15 192.5 L 19 177.5 L 27 157.5 L 27 154.5 L 29 152.5 L 29 145.5 L 28 144.5 L 28 125.5 Q 32 105 44.5 93 Z " /><path fill="rgb(90,83,178)" stroke="rgb(90,83,178)" stroke-width="1" opacity="1" d="M 173.5 117 L 174.5 119 L 173.5 117 Z " /><path fill="rgb(90,83,178)" stroke="rgb(90,83,178)" stroke-width="1" opacity="1" d="M 159.5 119 L 164 122.5 L 165 125.5 L 162.5 130 L 160.5 131 L 157 128.5 L 156 122.5 L 157 120 L 159.5 119 Z " /><path fill="rgb(90,83,178)" stroke="rgb(90,83,178)" stroke-width="1" opacity="1" d="M 86.5 120 L 84.5 123 L 86.5 120 Z " /><path fill="rgb(90,83,178)" stroke="rgb(90,83,178)" stroke-width="1" opacity="1" d="M 171.5 120 L 173 120.5 L 173 136.5 L 172 137.5 L 172 149.5 L 180 164.5 L 185 177.5 L 186 195.5 L 184.5 200 L 184 184.5 Q 181.4 181.6 182 175.5 Q 177.7 159.8 168 149.5 L 168 146.5 Q 171.9 138.9 170 125.5 L 170 123.5 L 171.5 120 Z " /><path fill="rgb(90,83,178)" stroke="rgb(90,83,178)" stroke-width="1" opacity="1" d="M 81.5 130 L 82 132.5 L 81 132.5 L 81.5 130 Z " /><path fill="rgb(90,83,178)" stroke="rgb(90,83,178)" stroke-width="1" opacity="1" d="M 83.5 137 L 86.5 141 L 83.5 137 Z " /><path fill="rgb(90,83,178)" stroke="rgb(90,83,178)" stroke-width="1" opacity="1" d="M 98.5 143 L 101 143.5 L 98.5 144 L 98.5 143 Z " /><path fill="rgb(90,83,178)" stroke="rgb(90,83,178)" stroke-width="1" opacity="1" d="M 129.5 144 Q 140.5 142.4 145 146 Q 146.6 148.1 146 153.5 L 141.5 157 L 129.5 159 L 122 154.5 Q 120.8 147.3 125.5 146 L 129.5 144 Z " /><path fill="rgb(90,83,178)" stroke="rgb(90,83,178)" stroke-width="1" opacity="1" d="M 57.5 146 Q 70.8 143.8 75 150.5 Q 76.3 156.8 72.5 158 Q 68.7 162.2 59.5 161 L 53 156.5 L 52 152.5 L 55.5 147 L 57.5 146 Z " /><path fill="rgb(90,83,178)" stroke="rgb(90,83,178)" stroke-width="1" opacity="1" d="M 34.5 177 L 35 180.5 L 34 181.5 L 34 200 L 31 199.5 L 31 190.5 L 34.5 177 Z " /><path fill="rgb(1,1,3)" stroke="rgb(1,1,3)" stroke-width="1" opacity="0.9725490196078431" d="M 96.5 65 L 107.5 65 L 108.5 66 L 124.5 67 L 140.5 71 Q 154.2 77.8 164 88.5 L 176 107.5 L 179 120.5 L 178 122.5 L 179 123.5 L 179 133.5 L 178 134.5 Q 179.5 142 177 145.5 L 189 169.5 L 192 178.5 L 193 192.5 L 191 200 L 186 200 L 186 197.5 L 187 196.5 L 187 180.5 Q 181.2 161.8 172 146.5 L 172 142.5 L 173 141.5 L 173 119 Q 176 120 175 117 Q 172.3 118.1 173 115.5 Q 167 95 151.5 84 Q 142.5 76.5 129.5 73 L 100.5 70 L 99.5 71 L 88.5 71 L 78.5 73 L 69.5 76 L 53 85 L 52 80 L 70.5 70 L 80.5 67 L 95.5 66 L 96.5 65 Z " /><path fill="rgb(1,1,3)" stroke="rgb(1,1,3)" stroke-width="1" opacity="0.9725490196078431" d="M 49.5 82 L 50 83.5 L 46.5 89 L 41 91.5 L 43 94.5 L 38 99.5 L 31 111.5 L 27 128.5 L 27 141.5 L 29 150.5 L 17 181.5 L 14 200 L 9 200 L 9 192.5 Q 13.2 173.2 21 157.5 L 23 144.5 L 22 143.5 L 22 126.5 Q 26.8 97.8 46.5 84 L 49.5 82 Z " /><path fill="rgb(1,1,3)" stroke="rgb(1,1,3)" stroke-width="1" opacity="0.9725490196078431" d="M 30.5 172 L 34 173.5 L 30 191.5 L 30 200 L 25 200 L 25 188.5 L 27 178.5 L 30.5 172 Z " /><path fill="rgb(1,1,3)" stroke="rgb(1,1,3)" stroke-width="1" opacity="0.9725490196078431" d="M 153.5 182 L 157 183.5 L 155 200 L 150 200 L 150 192.5 Q 152.5 191 151 185.5 L 153.5 182 Z " /><path fill="rgb(73,66,132)" stroke="rgb(73,66,132)" stroke-width="1" opacity="1" d="M 97.5 74 L 101 74.5 L 97.5 75 L 97.5 74 Z " /><path fill="rgb(73,66,132)" stroke="rgb(73,66,132)" stroke-width="1" opacity="1" d="M 106.5 74 L 110 74.5 L 106.5 75 L 106.5 74 Z " /><path fill="rgb(73,66,132)" stroke="rgb(73,66,132)" stroke-width="1" opacity="1" d="M 105.5 80 L 109 80.5 L 105.5 81 L 105.5 80 Z " /><path fill="rgb(73,66,132)" stroke="rgb(73,66,132)" stroke-width="1" opacity="1" d="M 156.5 89 L 159.5 93 L 156.5 89 Z " /><path fill="rgb(73,66,132)" stroke="rgb(73,66,132)" stroke-width="1" opacity="1" d="M 152.5 90 L 153.5 92 L 152.5 90 Z " /><path fill="rgb(73,66,132)" stroke="rgb(73,66,132)" stroke-width="1" opacity="1" d="M 141.5 91 L 142.5 93 L 141.5 91 Z " /><path fill="rgb(73,66,132)" stroke="rgb(73,66,132)" stroke-width="1" opacity="1" d="M 145.5 94 L 151.5 101 L 145.5 94 Z " /><path fill="rgb(73,66,132)" stroke="rgb(73,66,132)" stroke-width="1" opacity="1" d="M 42.5 101 L 41.5 103 L 42.5 101 Z " /><path fill="rgb(73,66,132)" stroke="rgb(73,66,132)" stroke-width="1" opacity="1" d="M 94.5 110 L 105 110.5 L 94.5 111 L 94.5 110 Z " /><path fill="rgb(73,66,132)" stroke="rgb(73,66,132)" stroke-width="1" opacity="1" d="M 107.5 111 L 110 111.5 L 107.5 112 L 107.5 111 Z " /><path fill="rgb(73,66,132)" stroke="rgb(73,66,132)" stroke-width="1" opacity="1" d="M 85.5 113 L 84.5 115 L 85.5 113 Z " /><path fill="rgb(73,66,132)" stroke="rgb(73,66,132)" stroke-width="1" opacity="1" d="M 82.5 115 L 80.5 118 L 82.5 115 Z " /><path fill="rgb(73,66,132)" stroke="rgb(73,66,132)" stroke-width="1" opacity="1" d="M 111.5 119 L 112.5 121 L 111.5 119 Z " /><path fill="rgb(73,66,132)" stroke="rgb(73,66,132)" stroke-width="1" opacity="1" d="M 75.5 127 L 76 134.5 L 75 134.5 L 75.5 127 Z " /><path fill="rgb(73,66,132)" stroke="rgb(73,66,132)" stroke-width="1" opacity="1" d="M 122.5 128 L 123 133.5 L 122 133.5 L 122.5 128 Z " /><path fill="rgb(73,66,132)" stroke="rgb(73,66,132)" stroke-width="1" opacity="1" d="M 160.5 131 Q 163.3 130.4 162 136.5 L 161 136.5 L 160.5 131 Z " /><path fill="rgb(73,66,132)" stroke="rgb(73,66,132)" stroke-width="1" opacity="1" d="M 39.5 133 L 40 138.5 L 39 138.5 L 39.5 133 Z " /><path fill="rgb(73,66,132)" stroke="rgb(73,66,132)" stroke-width="1" opacity="1" d="M 160.5 139 L 161 141.5 L 160 141.5 L 160.5 139 Z " /><path fill="rgb(73,66,132)" stroke="rgb(73,66,132)" stroke-width="1" opacity="1" d="M 119.5 140 L 114.5 146 L 119.5 140 Z " /><path fill="rgb(73,66,132)" stroke="rgb(73,66,132)" stroke-width="1" opacity="1" d="M 79.5 142 L 82.5 146 L 79.5 142 Z " /><path fill="rgb(73,66,132)" stroke="rgb(73,66,132)" stroke-width="1" opacity="1" d="M 32.5 148 L 33 150.5 L 32 150.5 L 32.5 148 Z " /><path fill="rgb(73,66,132)" stroke="rgb(73,66,132)" stroke-width="1" opacity="1" d="M 90.5 149 L 105 149.5 L 90.5 150 L 90.5 149 Z " /><path fill="rgb(73,66,132)" stroke="rgb(73,66,132)" stroke-width="1" opacity="1" d="M 157.5 149 L 158 150.5 L 156.5 153 L 156 151.5 L 157.5 149 Z " /><path fill="rgb(73,66,132)" stroke="rgb(73,66,132)" stroke-width="1" opacity="1" d="M 169.5 151 L 170.5 153 L 169.5 151 Z " /><path fill="rgb(73,66,132)" stroke="rgb(73,66,132)" stroke-width="1" opacity="1" d="M 152.5 159 L 153 165.5 L 152 165.5 L 152.5 159 Z " /><path fill="rgb(73,66,132)" stroke="rgb(73,66,132)" stroke-width="1" opacity="1" d="M 34.5 173 L 35 175.5 L 34 175.5 L 34.5 173 Z " /><path fill="rgb(73,66,132)" stroke="rgb(73,66,132)" stroke-width="1" opacity="1" d="M 153.5 175 L 154 180.5 L 151 182.5 Q 154.3 180.8 153.5 175 Z " /><path fill="rgb(73,66,132)" stroke="rgb(73,66,132)" stroke-width="1" opacity="1" d="M 162.5 179 L 163 182.5 L 162 182.5 L 162.5 179 Z " /><path fill="rgb(73,66,132)" stroke="rgb(73,66,132)" stroke-width="1" opacity="1" d="M 165.5 183 L 168 183.5 L 165.5 184 L 165.5 183 Z " /><path fill="rgb(73,66,132)" stroke="rgb(73,66,132)" stroke-width="1" opacity="1" d="M 34.5 193 L 35 198.5 L 34 198.5 L 34.5 193 Z " /><path fill="rgb(232,230,242)" stroke="rgb(232,230,242)" stroke-width="1" opacity="1" d="M 51.5 82 L 56.5 90 L 61 91.5 L 54 95 L 51.5 102 L 46.5 94 L 41 91.5 Q 46.7 91.2 49 87.5 L 51.5 82 Z " /><path fill="rgb(232,230,242)" stroke="rgb(232,230,242)" stroke-width="1" opacity="1" d="M 168 112 Q 171 110.8 170 114.5 L 174 118.5 L 172.5 120 L 170 121.5 Q 171 125.3 168 124 Q 168.8 120.2 165.5 119 L 163 118.5 L 167 117 L 168 112 Z " /><path fill="rgb(232,230,242)" stroke="rgb(232,230,242)" stroke-width="1" opacity="1" d="M 98.5 116 L 109.5 118 L 114 122.5 Q 116.9 126.1 116 133.5 L 112.5 139 L 105.5 143 L 94.5 144 Q 86.4 142.6 83 136.5 Q 80.7 133.3 82 126.5 L 88.5 119 L 98.5 116 Z " /><path fill="rgb(59,52,94)" stroke="rgb(59,52,94)" stroke-width="1" opacity="1" d="M 90.5 75 L 116.5 75 L 129.5 78 Q 149.5 84.5 161 99.5 Q 166.8 105.6 167 116 L 162 117 L 161.5 119 L 155 104.5 L 143.5 92 L 123.5 82 L 113.5 80 L 97.5 79 L 96.5 80 L 88.5 80 L 79.5 82 L 77 78.5 L 90.5 75 Z " /><path fill="rgb(59,52,94)" stroke="rgb(59,52,94)" stroke-width="1" opacity="1" d="M 51.5 81 L 50.5 83 L 51.5 81 Z " /><path fill="rgb(59,52,94)" stroke="rgb(59,52,94)" stroke-width="1" opacity="1" d="M 43.5 94 L 42.5 96 L 43.5 94 Z " /><path fill="rgb(59,52,94)" stroke="rgb(59,52,94)" stroke-width="1" opacity="1" d="M 82.5 116 L 81.5 118 L 82.5 116 Z " /><path fill="rgb(59,52,94)" stroke="rgb(59,52,94)" stroke-width="1" opacity="1" d="M 163.5 119 L 167 121.5 L 170 129.5 L 169 131.5 L 170 135.5 L 167 148.5 Q 182.8 165.2 184 196.5 L 183 200 L 156.5 200 L 156 196.5 L 157 195.5 L 158 183.5 L 154.5 181 L 152 182.5 L 154 180.5 L 154 165.5 Q 151.8 164.3 153 159.5 L 161 143.5 L 162 130 L 165 128.5 Q 166.1 120.7 163.5 119 Z M 165 162 L 161 164 L 160 167 L 162 183 L 164 184 Q 171 185 174 181 L 176 178 L 176 174 L 173 167 Q 171 162 165 162 Z " /><path fill="rgb(59,52,94)" stroke="rgb(59,52,94)" stroke-width="1" opacity="1" d="M 31 131 L 39 133 L 39 141.5 L 45 156.5 L 45 160.5 L 39 185.5 L 39 200 L 35 200 L 35 192.5 L 34 189.5 L 35 188.5 L 36 173.5 Q 35 170 29.5 171 L 26 178.5 L 24 188.5 L 24 200 L 18 200 L 18 195.5 L 19 194.5 L 20 183.5 L 32 154.5 L 33 148.5 L 31 140.5 L 31 131 Z " /><path fill="rgb(59,52,94)" stroke="rgb(59,52,94)" stroke-width="1" opacity="1" d="M 27.5 135 L 28 137.5 L 27 137.5 L 27.5 135 Z " /><path fill="rgb(59,52,94)" stroke="rgb(59,52,94)" stroke-width="1" opacity="1" d="M 114.5 137 L 112.5 140 L 114.5 137 Z " /><path fill="rgb(76,66,143)" stroke="rgb(76,66,143)" stroke-width="1" opacity="1" d="M 96.5 80 L 115.5 81 L 127.5 84 Q 142.7 89.8 152 101.5 L 160 118.5 L 157 120 L 156 126.5 L 158.5 130 Q 160.8 129.3 160 131.5 Q 162.5 133 161 138.5 L 156 153.5 L 152 159.5 L 152 165.5 L 153 166.5 L 153 180.5 L 150 185.5 L 149 198.5 L 147.5 200 L 40.5 200 L 40 199.5 L 40 183.5 L 46 158.5 L 40 142.5 L 39 124.5 L 40 124.5 L 40 132 L 43.5 132 Q 59.3 126.3 69 114.5 L 80 98.5 L 81 86.5 L 80 84 L 78 83.5 L 96.5 80 Z M 95 110 L 83 115 Q 77 120 75 128 Q 74 138 79 143 Q 83 148 91 150 Q 107 152 115 146 Q 121 142 123 134 Q 123 124 119 119 L 110 111 L 95 110 Z M 130 144 L 126 146 Q 121 147 122 155 L 130 159 L 142 157 L 146 154 Q 147 148 145 146 Q 140 142 130 144 Z M 58 146 L 56 147 L 52 153 L 53 157 L 60 161 Q 69 162 73 158 Q 76 157 75 151 Q 71 144 58 146 Z " /><path fill="rgb(76,66,143)" stroke="rgb(76,66,143)" stroke-width="1" opacity="1" d="M 71.5 86 L 73 86.5 L 70.5 88 L 71.5 86 Z " /><path fill="rgb(76,66,143)" stroke="rgb(76,66,143)" stroke-width="1" opacity="1" d="M 66.5 89 L 65.5 91 L 66.5 89 Z " /><path fill="rgb(76,66,143)" stroke="rgb(76,66,143)" stroke-width="1" opacity="1" d="M 46.5 107 L 47 108.5 L 44.5 112 L 45 110.5 L 46.5 107 Z " /><path fill="rgb(76,66,143)" stroke="rgb(76,66,143)" stroke-width="1" opacity="1" d="M 164.5 163 L 171 164 L 175 172.5 L 175 178.5 L 169.5 183 L 163 183 L 161 166.5 L 162 164 L 164.5 163 Z " /><path fill="rgb(76,66,143)" stroke="rgb(76,66,143)" stroke-width="1" opacity="1" d="M 185.5 179 L 186 181.5 L 185 181.5 L 185.5 179 Z " /><path fill="rgb(76,66,143)" stroke="rgb(76,66,143)" stroke-width="1" opacity="1" d="M 34.5 181 L 35 183.5 L 34 183.5 L 34.5 181 Z " /><path fill="rgb(76,66,143)" stroke="rgb(76,66,143)" stroke-width="1" opacity="1" d="M 186.5 183 L 187 192.5 L 186 192.5 L 186.5 183 Z " /><path fill="rgb(76,66,143)" stroke="rgb(76,66,143)" stroke-width="1" opacity="1" d="M 30.5 196 L 31 199.5 L 30 199.5 L 30.5 196 Z " /></svg>