<svg xmlns="http://www.w3.org/2000/svg" width="200" height="200"><path stroke="#000" d="m96.5 64 23 1 6 2h6l2.5 1.5-1.5.5-13-3-23-1-1 1-15 1-10 3-19 11 1-2 18-10 10-3 15-1zm39 5q19.3 6.2 30.5 20.5l11 18 3 13-1.5 2.5-.5-1.5 1-3q-5-22-19.5-34.5l-12-9-7-4-5-1zm-86 12-2 3L33 97.5l-8 15-2 8q1.3 4.8-1 6v17l1 5-4 15-8 20L8.5 200l-.5-7.5q4.2-19.3 12-35l2-13-1-1v-17q4.4-25.6 20.5-39.5zm130 43 .5 9.5-1 1v12q8.6 14.4 14 32l1 14q-2.2 1.2-1 6l-1.5 1.5-.5-1.5q3-5 2-14l-4-15-12-25 1-1z" opacity=".086"/><path stroke="#000" d="M0 0h200v200l-8-.5 2-7v-8l-4-15-11-23v-12l1-1v-9l-1-3 1-3q-5.4-23.6-21.5-36.5l-16-11-11-4h-6l-6-2h-10l-1-1h-12l-1 1-15 1-15 5-18 11L35 93.5l-11 19-3 14v17l1 5-4 15-8 20-2 9v7.5H.5l-.5-.5z" opacity="0"/><path fill="#3f376e" stroke="#3f376e" d="m101.5 74 4.5.5-4.5.5zm-25 4 3 4 1.5.5-3.5.5-14 8h-3L57 88.5zm21 1 7.5.5-7.5.5zm-9 1 5.5.5-5.5.5zm21 0 4.5.5-4.5.5zm45 7 1 2zm-17 1 1 2zm6 4 1 2zm11 0 4 5zm-113 4-1 2zm6 0q2.8 1.2.5 2.5l-2 6v2l-1 4.5q-3.8-.7-5 2.5l-1 3q2.2 1.3 1 6l-1 1v9.5l-8-2 1-10.5 3-8q4.7-9.8 12.5-16.5Zm106 7 1 2zm-39 11 3 4zm-34 4-1 2zm80 0 4.5 3.5-2.5-1.5zm4 10-1 2zm-3 9 .5 2.5h-1zm-122 2 .5 2.5h-1zm75 5-1 2zm-31 1 1 2zm71 12-1 2zm10 5 3.5.5-3.5.5zm-11 3 .5 9.5h-1zm7 1 .5 2.5h-1zm-125 7 .5 6.5h-1zm126 0 .5 2.5h-1zm13 6-1 2zm-135 6 .5 14.5h-1zm-5 1 .5 2.5h-1zm115 7 .5 3.5h-1z"/><path fill="#363058" stroke="#363058" d="m117.5 66 2.5.5-2.5.5zm-17 4 3.5.5-3.5.5zm-12 1 2.5.5-2.5.5zm25 0 2.5.5-2.5.5zm-58 13-1 2zm96 0 2 3zm10 10 1 2zm-122 4-1 2zm125 0 1 2zm-70 13 15 1 8.5 6.5q4.2 5.3 4 15l-5.5 9.5q-7.7 8.3-26 6L80 142.5q-5.2-4.3-4-15 2.4-9.1 9.5-13.5zm.5 5-6 2-8 10v7l3 5 8 4q14 2 21-4l4-6v-5l-3-7-5-5zm-67.5 12 .5 6.5h-1zm0 10 .5 3.5h-1zm2 33q4.5-1 5.5 1.5l-1.5.5-3-1-3.5 6.5-2 10-.5 11.5-.5-11.5 2-10zm125 10 3.5 2.5-1 12-1.5 4.5-.5-3.5 1-1 1-12zm-4 8 .5 2.5h-1zm-136 5 .5 2.5h-1zm135 3 .5 2.5h-1z" opacity=".996"/><path fill="#5a53b2" stroke="#5a53b2" d="m94.5 71 24 1 18 4q16.2 7.3 26.5 20.5 6.5 7.5 9 19l-2-1q1.1-3.3-1.5-2.5l-1.5.5q-3.4-15.1-14.5-22.5l-8-6-20-8-12-1-1-1h-16l-17 3Q65.8 81.3 56 88.5l2 1-1.5.5-2.5-3.5L71.5 76l9-3 13-1z"/><path fill="#5a53b2" stroke="#5a53b2" d="M77.5 84q3.3-1.1 2.5 1.5l1 1v8q-5.7 15.8-17.5 25.5l-12 9-11.5 3 1-13.5-1-4 6-4L48 99q2.7-1.1 2 1.5 1.5 3 3 0l1-5.5 7.5-4 2 1z"/><path fill="#5a53b2" stroke="#5a53b2" d="m44.5 93 4.5 3.5-1.5-.5-7.5 7.5-8 16-1 5v20q2.7 1.8 1 8l-12 29-2 10v8.5h-3v-7.5l4-15 8-20v-3l2-2v-7l-1-1v-19Q32 105 44.5 93Zm129 24 1 2zm-14 2 4.5 3.5 1 3-2.5 4.5-2 1-3.5-2.5-1-6 1-2.5zm-73 1-2 3zm85 0 1.5.5v16l-1 1v12l8 15 5 13 1 18-1.5 4.5-.5-15.5q-2.6-2.9-2-9-4.3-15.7-14-26v-3q3.9-7.6 2-21v-2zm-90 10 .5 2.5h-1zm2 7 3 4zm15 6 2.5.5-2.5.5zm31 1q11-1.6 15.5 2 1.6 2.1 1 7.5l-4.5 3.5-12 2-7.5-4.5q-1.2-7.2 3.5-8.5zm-72 2q13.3-2.2 17.5 4.5 1.3 6.3-2.5 7.5-3.8 4.2-13 3l-6.5-4.5-1-4 3.5-5.5zm-23 31 .5 3.5-1 1V200l-3-.5v-9z"/><path fill="#010103" stroke="#010103" d="M96.5 65h11l1 1 16 1 16 4q13.7 6.8 23.5 17.5l12 19 3 13-1 2 1 1v10l-1 1q1.5 7.5-1 11l12 24 3 9 1 14-2 7.5h-5v-2.5l1-1v-16q-5.8-18.7-15-34v-4l1-1V119q3 1 2-2-2.7 1.1-2-1.5Q167 95 151.5 84q-9-7.5-22-11l-29-3-1 1h-11l-10 2-9 3L53 85l-1-5 18.5-10 10-3 15-1zm-47 17 .5 1.5-3.5 5.5-5.5 2.5 2 3-5 5-7 12-4 17v13l2 9-12 31-3 18.5H9v-7.5q4.2-19.3 12-35l2-13-1-1v-17Q26.8 97.8 46.5 84zm-19 90 3.5 1.5-4 18v8.5h-5v-11.5l2-10zm123 10 3.5 1.5-2 16.5h-5v-7.5q2.5-1.5 1-7z" opacity=".973"/><path fill="#494284" stroke="#494284" d="m97.5 74 3.5.5-3.5.5zm9 0 3.5.5-3.5.5zm-1 6 3.5.5-3.5.5zm51 9 3 4zm-4 1 1 2zm-11 1 1 2zm4 3 6 7zm-103 7-1 2zm52 9 10.5.5-10.5.5zm13 1 2.5.5-2.5.5zm-22 2-1 2zm-3 2-2 3zm29 4 1 2zm-36 8 .5 7.5h-1zm47 1 .5 5.5h-1zm38 3q2.8-.6 1.5 5.5h-1zm-121 2 .5 5.5h-1zm121 6 .5 2.5h-1zm-41 1-5 6zm-40 2 3 4zm-47 6 .5 2.5h-1zm58 1 14.5.5-14.5.5zm67 0 .5 1.5-1.5 2.5-.5-1.5zm12 2 1 2zm-17 8 .5 6.5h-1zm-118 14 .5 2.5h-1zm119 2 .5 5.5-3 2q3.3-1.7 2.5-7.5Zm9 4 .5 3.5h-1zm3 4 2.5.5-2.5.5zm-131 10 .5 5.5h-1z"/><path fill="#e8e6f2" stroke="#e8e6f2" d="m51.5 82 5 8 4.5 1.5-7 3.5-2.5 7-5-8-5.5-2.5q5.7-.3 8-4zM168 112q3-1.2 2 2.5l4 4-1.5 1.5-2.5 1.5q1 3.8-2 2.5.8-3.8-2.5-5l-2.5-.5 4-1.5zm-69.5 4 11 2 4.5 4.5q2.9 3.6 2 11l-3.5 5.5-7 4-11 1q-8.1-1.4-11.5-7.5-2.3-3.2-1-10l6.5-7.5z"/><path fill="#3b345e" stroke="#3b345e" d="M90.5 75h26l13 3q20 6.5 31.5 21.5 5.8 6.1 6 16.5l-5 1-.5 2-6.5-14.5L143.5 92l-20-10-10-2-16-1-1 1h-8l-9 2-2.5-3.5zm-39 6-1 2zm-8 13-1 2zm39 22-1 2zm81 3 3.5 2.5 3 8-1 2 1 4-3 13q15.8 16.7 17 48l-1 3.5h-26.5l-.5-3.5 1-1 1-12-3.5-2.5-2.5 1.5 2-2v-15q-2.2-1.2-1-6l8-16 1-13.5 3-1.5q1.1-7.8-1.5-9.5Zm1.5 43-4 2-1 3 2 16 2 1q7 1 10-3l2-3v-4l-3-7q-2-5-8-5ZM31 131l8 2v8.5l6 15v4l-6 25V200h-4v-7.5l-1-3 1-1 1-15q-1-3.5-6.5-2.5l-3.5 7.5-2 10V200h-6v-4.5l1-1 1-11 12-29 1-6-2-8zm-3.5 4 .5 2.5h-1zm87 2-2 3z"/><path fill="#4c428f" stroke="#4c428f" d="m96.5 80 19 1 12 3q15.2 5.8 24.5 17.5l8 17-3 1.5-1 6.5 2.5 3.5q2.3-.7 1.5 1.5 2.5 1.5 1 7l-5 15-4 6v6l1 1v14l-3 5-1 13-1.5 1.5h-107l-.5-.5v-16l6-25-6-16-1-18h1v7.5h3.5q15.8-5.7 25.5-17.5l11-16 1-12-1-2.5-2-.5zM95 110l-12 5q-6 5-8 13-1 10 4 15 4 5 12 7 16 2 24-4 6-4 8-12 0-10-4-15l-9-8zm35 34-4 2q-5 1-4 9l8 4 12-2 4-3q1-6-1-8-5-4-15-2Zm-72 2-2 1-4 6 1 4 7 4q9 1 13-3 3-1 2-7-4-7-17-5Zm13.5-60 1.5.5-2.5 1.5zm-5 3-1 2zm-20 18 .5 1.5-2.5 3.5.5-1.5zm118 56 6.5 1 4 8.5v6l-5.5 4.5H163l-2-16.5 1-2.5zm21 16 .5 2.5h-1zm-151 2 .5 2.5h-1zm152 2 .5 9.5h-1zm-156 13 .5 3.5h-1z"/></svg>