<svg xmlns="http://www.w3.org/2000/svg" width="200" height="200"><path stroke="#000" d="M0 0h200v200q-2.7 1.1-2-1.5L187.5 187l-6.5-3-1-3.5-1-16-4-11.5-15.5-11-19.5-6v-5.5l-3-6-10-13 6-7V102l6.5-1h12l4.5 3.5 3.5 4.5q6.5 0 9.5-3.5-.9-12.6-9.5-17.5L148 84.5l5-7 1-6-3-11-5.5-5.5q-5.5-5-18-3l-8.5 5.5-3 10.5-5.5-1h-11l-6 2h-5L81 72q-.7-7.5-6.5-11-3.3-3.2-11-2-7.4 2.6-11.5 8.5l-3 5-1 8q1.8 9.7 8.5 14.5l6.5 1-1.5 3-8 1-2-1q-6.5 1.5-9.5 6.5l-2 7 3.5 5.5 4 1 11-6 12.5-2q-1 6.4 4.5 8l4.5 1-1 4.5-5.5 8.5-21 3-9.5 5.5L27.5 172q-8.1.4-10.5 6.5-8 9-12.5 21.5-4.5.5-4.5-.5z" opacity="0"/><path fill="#fcede4" stroke="#fcede4" d="M129.5 58q12.2-1.7 15.5 5.5l-2 12-5 7.5q-10.2-3.1-16-11.5-1.2-8.7 3.5-11.5zm2.5 7-5 6 1 4 4 2 4-1q3-1 2-7-1-5-6-4Zm-68.5 1q5.8-.7 6.5 3.5l3 8-3 3-4.5 9.5q-6.9.9-8.5-3.5-3.3-3.7-2-12l6.5-7.5zm-.5 7-3 1-1 3 1 6 6 1q4-1 3-8-1-4-6-3Zm30.5 1 4.5.5L85 79q-1.1-2.7 1.5-2zm4 24 8.5 1.5-2 4q1.5 3 7.5 1.5l3-4 7.5 4.5-2.5 3.5-10 5-7 1v-1q4 .5 4.5-2.5l-1.5-3.5-5 2-3-1-5 1-2-1-1.5 2.5 1 2.5 6.5 1 2-1 2.5 1.5-14.5.5-7-2-2.5-2.5q-.5-5 3.5-5.5l7 1 3.5-2.5V102q-3 1-2-2zm-1.5 7q-3 2 0 3 4 1 5-1 1-3-5-2Zm25.5 10 2.5 3.5-3-2zm-34 8q2.3.8 1.5 4.5l-2 4.5h-5v-1.5zm25 2 4.5 2.5v5.5h-2.5l-2.5-1.5 1-5z"/><path fill="#7e8767" stroke="#7e8767" d="m125.5 59-2 3zm-55 6 1 2zm51 2 .5 3.5h-1zm26 1 .5 2.5h-1zm0 4 .5 2.5h-1zM104 73h7.5l.5 1.5q-4.4 4.2-5 11.5l-13-.5L99.5 75q5.8 1.7 4.5-2Zm12.5 1 7.5 9.5 2 9.5-16-8.5 3-8.5 4-.5zm-33 4q2.8 1.3.5 2.5-1.5 5.5 1 7L82.5 89q-2.7-2.8-2-9l-1.5.5zm54 5 2.5.5-2.5.5zm-63 3 1.5 4 3 .5-5 3-1.5 3.5-.5-6.5zm21 5 6.5.5-6.5.5zm21 3 2 3zm4 3 1 2zm6 3q2.3-.7 1.5 1.5zm0 3-4 5zm-75 2q4-.5 4.5 2.5l-3.5 2.5 1-2 1.5-.5-3.5-1.5zm-2 1-2 3zm26 0 .5 4.5h-1zm-29 4 1.5 2.5-2 .5zm4 0-1 2zm71 4 2 3zm-33 2 4.5.5-4.5.5zm9 0 2.5.5-2.5.5zm21 0-1 2-1.5-.5zm9 6 3 4zm-42 2-1 2zm23 1 2.5.5-3.5 1.5zm-16 1 3.5 2.5-.5 2.5-2-4zm-3 3-1 2zm-8 3 2.5.5-2.5.5zm34 1 2.5.5-2.5.5zm11 1 2.5.5-2.5.5z"/><path fill="#0a0909" stroke="#0a0909" d="M127.5 52h12q7.4 2.6 11.5 8.5l3 12-1 5-5 7q12.7 1.3 18 10l3 7v4q-3 3.5-9.5 3.5l-6-7-2-1h-12l-6.5 1v2.5l-6 7 10 13 3 6v5.5l19.5 6 15.5 11 4 11.5 1 16 1 3.5q10.2 3.4 16 12.5l1 3.5h-7.5l-.5-1.5q-5.2-9.7-19.5-10.5l-9.5 6.5-3 5.5h-5.5l-.5-1.5 9.5-11.5 4.5-2.5-1.5-1.5h-6l-21-4-34-2-1-1-34-1-1 1h-31q-1.5 2.5-7 1-8 1-10.5 7.5L10.5 200q-5.4 1.9-4.5-1.5 4.8-16.2 16.5-25.5 5.1.6 6.5-2.5l11-25 5.5-6.5 7-3 16-2 6.5-2.5 5-11.5q-6.4-.2-9-5.5 1.8-5.2-3.5-3.5l-9 2q-4.4 5.1-13 6l-4.5-3.5-1-4q1.1-7.4 6.5-10.5l6-2q1.3 2.3 6 1l4.5-2.5q.9-3.4-4.5-1.5L52 90.5q-3.8-4.7-4-13 1.7-10.8 9.5-15.5l6-3h7l8.5 6.5 2 6.5 7.5-3h5l6-2h11l5.5 1q.1-8.6 5.5-13zm1.5 5-2 1-6 8 1 8q6 8 19 10l7-8q2-9-2-13-4-8-17-6Zm-63 7-6 3-6 8q-2 10 3 14 3 3 10 2 2-9 9-14 1-7-2-9-2-5-8-4Zm37 8-1 1h-8l-9 3-6 4-7 10-3 10-7 5H51l-2 1q-4 2-3 7h3l10-6q7 1 10-2 4-3 5-10l6-5 14-4q12-2 21 1l15 9h11l1-1 12 1 6 5q-1 2 3 1l-1-3-8-8-17-2-12-6q-5-3-7-9zM92 91l-11 4-6 11v6l3 2 8 3q12 2 21-1l18-9 3-4v-3l-6-2q-4-5-11-7zm30 23q-12 9-34 8-6 4-8 11h7l1-1q2 1 1-1 1-4 6-3l-1 4q3 2 11 1l5-7 2 2-1 5q1 2 7 1 2-1 1-5l4-2 1 3-1 4 2 1 10 1-2-7-10-13q1-3-1-2Zm-33 23-1 1H78l-1 1H66l-16 4-7 8-8 19 1 1h9l2-12q4-8 14-10 9-1 14 3l5 9v9h8l1 1h16l3 1-1-3v-8l4-7 6-5 7-2 9 1 4 2q5 4 6 13l-3 12 14 1-1-12 4-2 2 5q-1 7 1 10l10 3h4l1 1-1-12-4-11-12-10-3-1 2 7v5l-4 1-4-16-17-4-17-1-1-1h-13l-1-1-5 1zm32 16-4 2-5 7 1 8 7 3q6-2 8 1l7-1 3-8-3-9-3-3zm-60 1-8 4q-3 3-3 11l5 2 19-1 1-1q1-8-2-11-3-6-12-4Z" opacity=".98"/><path fill="#0a0909" stroke="#0a0909" d="m110.5 97 3.5 1.5q.8 4.8-2.5 5.5l-4 1-2.5-1-1-2.5zM82 99l8 3-1.5 4q-6.2 1.3-7.5-2.5zm22.5 10q2.8 1.2.5 2.5.8 2.3-1.5 1.5l-4 1-3-1-4 1q-4.5-2-1-4l4 1zm-69 82h49l1 1h16l1 1h17l1 1 14 1 3.5 2.5 1 2-11.5.5-1-1-29-1-1-1-59-1-2.5 1-1.5 3-5.5-.5 5.5-7.5z" opacity=".98"/><path fill="#e5c3ab" stroke="#e5c3ab" d="m131.5 57 4.5.5-4.5.5zm11 3 2 3zm3 4q3.2 3.3 1.5 11.5l-4.5 6.5-4.5 1 5-7.5zm-81 1h5l3.5 2 3 7.5-5.5 6.5 2.5-3.5q-1.2-7.8-6.5-11.5-3 .5-2-1Zm67 0q5.8-.7 6.5 3.5 1.3 6.3-2.5 7.5l-4 1-3.5-2.5-1-4zm-71 2-3 4zm62 5 6 7z"/><path fill="#e5c3ab" stroke="#e5c3ab" d="M62.5 73q5.1-.6 6.5 2.5 1.3 7.3-3.5 8.5L60 83l-1-6.5 1-2.5zm34 0h7l.5 2q-4.6-1.2-6 1.5L94.5 85q-4.6-.6-6 2l-1-1-2.5 1.5v-8l1.5-.5 3-2q1.5 2.5 3-1l5.5-1.5zm19 1 1 2-2.5-.5zm-61 2 .5 4.5h-1zm76 3 1 2zm-50 1 .5 8.5-4 1.5q1-3-2-2v-2.5l3.5-4.5zm-23 7 1 2zm9 2-1 2-3.5-.5zm24 3h20l16.5 9.5-6.5 7.5 1.5-2.5-1.5-2.5-6.5-3.5q.8-3.7-1.5-4.5l-6 3h-6l-3-1-10 3-5-2q-2.5 1-1.5 5.5l.5 1.5-4.5 3.5 1 3-2-1v-6l4.5-9.5zm14 11 1 2zm-14 1-1 2z"/><path fill="#e5c3ab" stroke="#e5c3ab" d="M95.5 105v3q-3-1.5 0-3Zm-45 1q3.8-.7 4.5 1.5l-8 4.5q-.7-4.7 3.5-6Zm40 3-.5 1.5-.5 1.5-.5-1.5zm7 0 2.5.5-2.5.5zm9 0 .5 2.5h-1zm-7 5 5.5 1.5-3.5.5zm21 1 2 3q1.2-2.2 2.5.5l8 11 1 5.5-10-1v-6.5l-1.5-1.5q-4-.5-4.5 2.5l-.5 4.5q.9-5.4-2-7l-3-1v2l-4-2-4 7-9.5-.5 1-3-3.5-2.5-2.5 1-2.5 5-.5-1.5q2.6-1.4 2-6l-1-2.5h17.5l12-4zm-27 1 3.5.5-3.5.5z"/><path fill="#cf495c" stroke="#cf495c" d="M96.5 105q3.8-.7 4.5 1.5l-4.5 1.5q-3-1.5 0-3Zm-12 33h19l1 1 21 1 17 3 5.5 2.5-1.5.5-1-1-15-1-8-2h-11l-9 6-4 1-4.5-7-15.5 1-4.5 3 1 4.5-1.5-.5q-4-3-12-2-8.6 1.9-13.5 7.5-4.5 4.8-3 14.5h-8.5l-.5-1.5 8-18 5.5-6.5 14-4 20-1zm39 15 6.5.5-6.5.5zm-66 3-1 2zm13 0 1 2zm42 7 .5 2.5h-1z"/><path fill="#cf495c" stroke="#cf495c" d="m51.5 164 1.5 5.5-2 .5zm-8 12h43l1 1 15.5.5-6.5 1.5h-14l-1 1-35 1-1 1q-9-1-13.5 1l3 8-6 4.5-2.5 4.5-14.5-.5q4.3-12.7 13.5-20.5l9-2h8z"/><path fill="#cf495c" stroke="#cf495c" d="M36 197h37.5l1 1h25l1 1 17.5.5-82.5.5.5-1.5z"/><path fill="#9a3d4b" stroke="#9a3d4b" d="m104.5 138 5.5.5-5.5.5zm11 1 5.5.5-5.5.5zm11 1 2.5.5-2.5.5zm7 1 2.5.5-2.5.5zm-49 1h9l.5 1.5 4.5 5.5 4-1 9-6h11l1 1 15 1 9 2v-2l1.5 1.5v4l4 11v13l1 1-3.5 1.5-9.5-2q2.9-4.9 2-14.5l-5.5-9.5q-5.5-5-18-3l-9.5 6.5q-5 4-4 14l1 3.5-27-1.5q2.5-1.5 1-7-1.2-6.7-5.5-10.5l-2.5-1.5 1-4.5 4.5-3q4.7 1.3 6-1Zm-38 5-1 2zm15 1 7.5.5-7.5.5zm-19 5 .5 1.5-2 1zm8 0-2 3zm12 1 5.5.5-5.5.5zm56 0-2 3zm-71 3-.5 1.5-.5 1.5-.5-1.5zm8 0-3 4zm-19 13 4.5.5-4.5.5zm3 6 3.5.5-3.5.5zm48 0 11.5.5-11.5.5zm-56 1 2.5.5-2.5.5zm72 0h7l9 2h11l1 1h10l7 2 14 1 2.5 1.5-9 7-5.5 8.5h-11l-.5-1.5-2.5-3.5-12-1-1-1-30-1-1-1h-27l-1-1-2 1-1-1h-17l-1 1H35l-3-8q4.5-2 13.5-1l1-1h13l1-1 36-1zm-79 2-2 3zm-4 5-2 3zm-3 4-1 2zm13 6-1 2zm10 2 24.5.5-24.5.5zm34 1 18.5.5-18.5.5zm-39 1-1 2zm65 0 8.5.5-8.5.5zm18 1 6.5.5-6.5.5z"/><path fill="#f5d758" stroke="#f5d758" d="m84.5 80 .5 6.5h-1zm7 5 2.5.5-2.5.5zm29 69h11l4.5 4.5 1 8-2 5.5q-3.6 2.3-12.5 1-6.6-.9-9.5-5.5-1.4-10.4 5.5-12.5zm-59 1q10.4-1.4 12.5 5.5l1 6-2.5 3.5h-19l-1.5-1.5q-1.3-8.3 3.5-10.5z"/><path fill="#4b383b" stroke="#4b383b" d="m143.5 60 2 3zm-72 5 2 3zm-12 2-3 4zm43 5 5.5.5-5.5.5zm10 1 1.5 2.5-4 9 3 2-1.5.5-4.5-1q1-7.8 5.5-13Zm10 0 6 7zm-47 3-4 5zm9 0-2 3-1.5-.5zm34 0 1 2zm2 3q4.9 6.1 13 9l14 3h6l8.5 7.5 1 3.5q-3.8 1.5-3-1.5l-6.5-4.5-12-1-1 1h-11l-6.5-3.5 1.5.5q3 .9 1.5-3.5-1.6-7.4-5.5-10.5Zm-42 1-3 4zm12 6 2.5.5-2.5.5zm-33 2 1 2zm63 2 1 2zm-44 1-2 3zm15 0 3.5.5-3.5.5zm13 0 6.5.5-6.5.5zm-33 1 1 5 1-2 .5 1.5q-1.2 5.8-5.5 8.5-3 3-10 2l-3 2-1-4h7l7.5-5.5zm47 3 1 2zm-6 1 1 2zm-6 3-1 2zm-25 5 1 2zm44 1-1 2zm-77 1-1 2zm36 0 2.5.5-2.5.5zm-33 4-1 2zm24 1 2 3zm15 1 1 2zm-5 4 2.5.5-2.5.5zm15 0 2.5.5-2.5.5zm24 1 1 2zm2 3 2 3zm-18 6-1 2zm12 0 1.5.5-2.5 1.5zm-29 1 2.5.5-3.5 1.5zm27 3 .5 2.5h-1zm5 1 .5 3 2 .5-1.5.5q-2.5-1-1-4Zm-39 1 2.5.5-2.5.5zm12 0 8.5.5-8.5.5zm38 0 .5 4-4-.5 3-.5zm-22 1 2.5.5-2.5.5zm-17 4 4.5.5-4.5.5zm-18 1 4.5.5-4.5.5zm33 0 3.5.5-3.5.5zm-45 1 3.5.5-3.5.5zm56 0 2.5.5-2.5.5zm8 1 2.5.5-2.5.5zm-80 3-4 5zm106 3 14.5 11.5 4 11 1 12-1.5-.5h-4l-9.5-3q-2-3-1-10.5l-2.5-4.5-3 1-1.5-4.5h1q-.8 2.6 2.5 1.5 2.8-1.2 1.5-6.5zm-36 1 3.5.5-3.5.5zm9 0 3.5.5-3.5.5zm5 1 2.5 1.5-1.5-.5zm-89 1-1 2zm71 0-1 2zm-43 1 1 2zm65 0 1 2zm-85 2-4 5zm23 0 1 2zm36 0-.5 1.5-3.5 6.5-.5-1.5zm28 1 2.5 4.5h-1zm-6 1 1 2zm-63 1 2 3zm7 0 2.5 4.5h-1zm39 0-2 3zm26 4 .5 2.5h-1zm-36 2 .5 6.5h-1zm-26 1 .5 6.5h-1zm57 0 .5 2.5h-1zm-92 1 .5 2.5h-1zm5 2 .5 3.5h-1zm57 4 .5 3-3-.5 2-.5zm6 0 1 2zm40 0 .5 4.5h-1zm-112 1 3.5.5-3.5.5zm13 0 6.5.5-6.5.5zm34 0 9.5.5-9.5.5zm39 3 4.5.5-4.5.5zm13 0 2.5 1.5-3 .5zm-72 2 14.5.5-14.5.5zm79 0 2.5.5-2.5.5zm-111 1 2.5.5-2.5.5zm63 0 3.5.5-3.5.5zm12 1 3.5.5-3.5.5zm8 1 7.5.5-7.5.5zm12 1 6.5.5-6.5.5zm11 1 2.5.5-2.5.5zm6 1 3.5.5-3.5.5zm-127 1-2 3zm134 0 2.5.5-2.5.5zm8 1 2.5 1.5-1.5-.5zm0 2-1 2zm-146 2-1 2zm142 1-3 4zm11 0q14.3.8 19.5 10.5l-.5 1.5H158l4.5-7zm-126 2 17.5.5-17.5.5zm41 1 7.5.5-7.5.5zm-53 1-1 2zm70 0 6.5.5-6.5.5zm18 1 3.5.5-3.5.5zm35 0-2 3zm-25 1 2.5.5-2.5.5zm5 1 2.5 1.5-1.5-.5zm-98 1 2.5.5-2.5.5zm28 0 5.5.5-5.5.5zm28 1 3.5.5-3.5.5zm16 1 4.5.5-4.5.5z" opacity=".996"/></svg>