<svg width="200" height="200" version="1.1" xmlns="http://www.w3.org/2000/svg" desc="Created with imagetracer.js version 1.2.6" ><path fill="rgb(0,0,0)" stroke="rgb(0,0,0)" stroke-width="1" opacity="0.058823529411764705" d="M 95.5 39 L 99 40.5 L 97.5 41 L 95.5 40 L 93 41.5 L 95.5 39 Z " /><path fill="rgb(0,0,0)" stroke="rgb(0,0,0)" stroke-width="1" opacity="0.058823529411764705" d="M 137.5 39 L 144 39.5 L 137.5 40 L 137.5 39 Z " /><path fill="rgb(0,0,0)" stroke="rgb(0,0,0)" stroke-width="1" opacity="0.058823529411764705" d="M 131.5 40 L 136 40.5 L 129.5 42 L 129.5 41 L 131.5 40 Z " /><path fill="rgb(0,0,0)" stroke="rgb(0,0,0)" stroke-width="1" opacity="0.058823529411764705" d="M 145.5 40 L 152 41.5 L 149.5 42 L 145.5 41 L 145.5 40 Z " /><path fill="rgb(0,0,0)" stroke="rgb(0,0,0)" stroke-width="1" opacity="0.058823529411764705" d="M 153.5 42 L 160 45.5 L 158.5 45 L 153.5 43 L 153.5 42 Z " /><path fill="rgb(0,0,0)" stroke="rgb(0,0,0)" stroke-width="1" opacity="0.058823529411764705" d="M 109.5 44 L 118 47.5 L 116.5 48 L 109.5 45 L 109.5 44 Z " /><path fill="rgb(0,0,0)" stroke="rgb(0,0,0)" stroke-width="1" opacity="0.058823529411764705" d="M 122.5 45 L 121.5 47 L 122.5 45 Z " /><path fill="rgb(0,0,0)" stroke="rgb(0,0,0)" stroke-width="1" opacity="0.058823529411764705" d="M 95.5 46 L 96.5 48 L 95.5 46 Z " /><path fill="rgb(0,0,0)" stroke="rgb(0,0,0)" stroke-width="1" opacity="0.058823529411764705" d="M 161.5 46 L 167.5 53 L 161.5 46 Z " /><path fill="rgb(0,0,0)" stroke="rgb(0,0,0)" stroke-width="1" opacity="0.058823529411764705" d="M 98.5 48 L 99.5 50 L 98.5 48 Z " /><path fill="rgb(0,0,0)" stroke="rgb(0,0,0)" stroke-width="1" opacity="0.058823529411764705" d="M 101.5 50 L 102.5 52 L 101.5 50 Z " /><path fill="rgb(0,0,0)" stroke="rgb(0,0,0)" stroke-width="1" opacity="0.058823529411764705" d="M 107.5 54 L 108.5 56 L 107.5 54 Z " /><path fill="rgb(0,0,0)" stroke="rgb(0,0,0)" stroke-width="1" opacity="0.058823529411764705" d="M 110.5 63 L 111 68 L 101.5 70 L 101.5 69 L 110 67 L 110.5 63 Z " /><path fill="rgb(0,0,0)" stroke="rgb(0,0,0)" stroke-width="1" opacity="0.058823529411764705" d="M 173.5 64 L 174 73.5 L 173 73.5 L 173.5 64 Z " /><path fill="rgb(0,0,0)" stroke="rgb(0,0,0)" stroke-width="1" opacity="0.058823529411764705" d="M 62.5 66 Q 72.8 64.2 78 67.5 L 75.5 68 L 74.5 67 L 62.5 67 L 62.5 66 Z " /><path fill="rgb(0,0,0)" stroke="rgb(0,0,0)" stroke-width="1" opacity="0.058823529411764705" d="M 58.5 67 L 61 67.5 Q 46.9 70.9 39 80.5 L 34.5 87 L 35 85.5 L 42.5 76 Q 48.9 69.9 58.5 67 Z " /><path fill="rgb(0,0,0)" stroke="rgb(0,0,0)" stroke-width="1" opacity="0.058823529411764705" d="M 79.5 68 L 91.5 74 L 93 73.5 L 90.5 75 Q 86.7 70.3 79.5 69 L 79.5 68 Z " /><path fill="rgb(0,0,0)" stroke="rgb(0,0,0)" stroke-width="1" opacity="0.058823529411764705" d="M 98.5 70 L 100 70.5 L 96.5 72 L 96.5 71 L 98.5 70 Z " /><path fill="rgb(0,0,0)" stroke="rgb(0,0,0)" stroke-width="1" opacity="0.058823529411764705" d="M 175.5 74 L 181 75.5 L 177.5 76 L 175.5 74 Z " /><path fill="rgb(0,0,0)" stroke="rgb(0,0,0)" stroke-width="1" opacity="0.058823529411764705" d="M 184.5 75 Q 189.3 74.3 190 77.5 L 187.5 76 Q 183.5 76.8 184.5 75 Z " /><path fill="rgb(0,0,0)" stroke="rgb(0,0,0)" stroke-width="1" opacity="0.058823529411764705" d="M 191.5 81 L 192 86.5 L 191 86.5 L 191.5 81 Z " /><path fill="rgb(0,0,0)" stroke="rgb(0,0,0)" stroke-width="1" opacity="0.058823529411764705" d="M 33.5 88 L 34 89.5 L 33 90.5 L 33 99.5 L 37 107.5 L 34.5 111 L 31 113.5 L 34 119 L 30 121.5 L 29 126.5 L 30 129 L 35 131.5 L 33.5 132 L 28 127.5 L 28 123.5 L 32 117.5 L 30 113.5 L 32.5 110 L 36 107.5 L 32 99.5 L 32 90.5 L 33.5 88 Z " /><path fill="rgb(0,0,0)" stroke="rgb(0,0,0)" stroke-width="1" opacity="0.058823529411764705" d="M 165.5 89 Q 169.3 88.3 170 90.5 L 168.5 90 L 162.5 93 L 165.5 89 Z " /><path fill="rgb(0,0,0)" stroke="rgb(0,0,0)" stroke-width="1" opacity="0.058823529411764705" d="M 171.5 91 L 180 95.5 L 178.5 96 L 172.5 93 L 171.5 91 Z " /><path fill="rgb(0,0,0)" stroke="rgb(0,0,0)" stroke-width="1" opacity="0.058823529411764705" d="M 188.5 92 L 185.5 96 L 181.5 97 L 181.5 96 Q 186.7 95.7 188.5 92 Z " /><path fill="rgb(0,0,0)" stroke="rgb(0,0,0)" stroke-width="1" opacity="0.058823529411764705" d="M 160.5 93 L 159 95.5 L 164 100.5 L 166 103.5 L 163 101.5 L 158 94 L 160.5 93 Z " /><path fill="rgb(0,0,0)" stroke="rgb(0,0,0)" stroke-width="1" opacity="0.058823529411764705" d="M 166.5 105 L 167.5 107 L 166.5 105 Z " /><path fill="rgb(0,0,0)" stroke="rgb(0,0,0)" stroke-width="1" opacity="0.058823529411764705" d="M 170.5 112 L 173 117.5 L 172 117.5 L 170.5 112 Z " /><path fill="rgb(0,0,0)" stroke="rgb(0,0,0)" stroke-width="1" opacity="0.058823529411764705" d="M 173.5 119 L 174 122.5 L 173 122.5 L 173.5 119 Z " /><path fill="rgb(0,0,0)" stroke="rgb(0,0,0)" stroke-width="1" opacity="0.058823529411764705" d="M 173.5 129 L 174 131.5 L 173 131.5 L 173.5 129 Z " /><path fill="rgb(0,0,0)" stroke="rgb(0,0,0)" stroke-width="1" opacity="0.058823529411764705" d="M 43.5 134 L 42.5 136 L 43.5 134 Z " /><path fill="rgb(0,0,0)" stroke="rgb(0,0,0)" stroke-width="1" opacity="0.058823529411764705" d="M 169.5 140 L 167.5 143 L 169.5 140 Z " /><path fill="rgb(0,0,0)" stroke="rgb(0,0,0)" stroke-width="1" opacity="0.058823529411764705" d="M 39.5 142 Q 39.9 152.1 46.5 156 L 54 159.5 L 52.5 160 Q 45.1 157.4 41 151.5 Q 37.9 147.9 39.5 142 Z " /><path fill="rgb(0,0,0)" stroke="rgb(0,0,0)" stroke-width="1" opacity="0.058823529411764705" d="M 163.5 150 L 161.5 153 L 163.5 150 Z " /><path fill="rgb(0,0,0)" stroke="rgb(0,0,0)" stroke-width="1" opacity="0.058823529411764705" d="M 148.5 155 L 153 155.5 L 148.5 156 L 148.5 155 Z " /><path fill="rgb(0,0,0)" stroke="rgb(0,0,0)" stroke-width="1" opacity="0.058823529411764705" d="M 144.5 157 L 143.5 159 L 139.5 160 L 139.5 159 L 144.5 157 Z " /><path fill="rgb(0,0,0)" stroke="rgb(0,0,0)" stroke-width="1" opacity="0.058823529411764705" d="M 135.5 160 L 138 160.5 L 135 161.5 L 144 178.5 L 143 178.5 L 134 161.5 L 135.5 160 Z " /><path fill="rgb(0,0,0)" stroke="rgb(0,0,0)" stroke-width="1" opacity="0.058823529411764705" d="M 58.5 161 L 69 163.5 L 66.5 164 L 58.5 162 L 58.5 161 Z " /><path fill="rgb(0,0,0)" stroke="rgb(0,0,0)" stroke-width="1" opacity="0.058823529411764705" d="M 55.5 165 L 60 165.5 L 55.5 166 L 55.5 165 Z " /><path fill="rgb(0,0,0)" stroke="rgb(0,0,0)" stroke-width="1" opacity="0.058823529411764705" d="M 67.5 165 L 65.5 168 L 61 166.5 L 67.5 165 Z " /><path fill="rgb(0,0,0)" stroke="rgb(0,0,0)" stroke-width="1" opacity="0.058823529411764705" d="M 44.5 166 L 48 166.5 L 41.5 168 L 41.5 167 L 44.5 166 Z " /><path fill="rgb(0,0,0)" stroke="rgb(0,0,0)" stroke-width="1" opacity="0.058823529411764705" d="M 37.5 168 L 40 168.5 L 32.5 171 L 32.5 170 L 37.5 168 Z " /><path fill="rgb(0,0,0)" stroke="rgb(0,0,0)" stroke-width="1" opacity="0.058823529411764705" d="M 29.5 171 L 31 171.5 L 23 175.5 L 16.5 187 L 16 185.5 L 24.5 173 L 29.5 171 Z " /><path fill="rgb(0,0,0)" stroke="rgb(0,0,0)" stroke-width="1" opacity="0.058823529411764705" d="M 144.5 180 L 150 195.5 L 149 195.5 L 144.5 180 Z " /><path fill="rgb(0,0,0)" stroke="rgb(0,0,0)" stroke-width="1" opacity="0.058823529411764705" d="M 15.5 188 L 16 190.5 L 15 190.5 L 15.5 188 Z " /><path fill="rgb(0,0,0)" stroke="rgb(0,0,0)" stroke-width="1" opacity="0.058823529411764705" d="M 15.5 193 L 19.5 198 L 22 199.5 L 20.5 199 L 15 194.5 L 15.5 193 Z " /><path fill="rgb(0,0,0)" stroke="rgb(0,0,0)" stroke-width="1" opacity="0" d="M 0 0 L 200 0 L 200 200 L 151.5 200 L 151 197.5 Q 145.6 176.9 135 161.5 Q 143.1 160.6 147.5 156 L 157.5 155 L 164 150.5 L 174 131.5 L 174 119.5 Q 169.1 104.9 159 95.5 Q 161.9 90.9 168.5 90 Q 173.7 95.8 183.5 97 L 189 92.5 L 192 86.5 L 192 81.5 L 187.5 75 Q 178.5 76 174 74 L 173 61.5 Q 169.2 51.8 161.5 46 Q 153.1 38.9 137.5 39 Q 136.2 41.2 131.5 40 L 121 46.5 Q 121.8 49.1 118.5 48 L 113.5 45 L 107.5 44 L 95.5 39 Q 91.8 40.5 93 46 L 112 57 L 110 67 Q 98.9 68.7 90.5 74 L 81.5 68 L 74.5 66 L 62.5 66 Q 46.6 69.6 38 80.5 L 32 90.5 L 32 99.5 L 36 107.5 L 31 111.5 L 30 114.5 L 32 118.5 Q 27.1 120.1 28 127.5 Q 32.1 132.9 40.5 134 L 43.5 133 L 42 135.5 L 39 142.5 L 39 146.5 Q 40.8 153.7 46.5 157 L 68 164.5 Q 66.5 167.5 60.5 166 L 59.5 165 L 51.5 165 Q 50 167.5 44.5 166 L 26.5 172 L 21 176.5 Q 14.9 182.4 15 194.5 L 21 199.5 L 0 200 L 0 0 Z " /><path fill="rgb(0,0,0)" stroke="rgb(0,0,0)" stroke-width="1" opacity="0.6313725490196078" d="M 95.5 40 L 97 40.5 L 94 42.5 L 95 45.5 L 93 44.5 Q 92.5 40.5 95.5 40 Z " /><path fill="rgb(0,0,0)" stroke="rgb(0,0,0)" stroke-width="1" opacity="0.6313725490196078" d="M 136.5 40 L 145 40.5 L 136.5 41 L 136.5 40 Z " /><path fill="rgb(0,0,0)" stroke="rgb(0,0,0)" stroke-width="1" opacity="0.6313725490196078" d="M 99.5 41 L 106 43.5 L 104.5 44 L 99.5 42 L 99.5 41 Z " /><path fill="rgb(0,0,0)" stroke="rgb(0,0,0)" stroke-width="1" opacity="0.6313725490196078" d="M 107.5 44 L 111 45.5 L 109.5 46 L 107.5 44 Z " /><path fill="rgb(0,0,0)" stroke="rgb(0,0,0)" stroke-width="1" opacity="0.6313725490196078" d="M 124.5 44 L 120.5 49 L 124.5 44 Z " /><path fill="rgb(0,0,0)" stroke="rgb(0,0,0)" stroke-width="1" opacity="0.6313725490196078" d="M 160.5 46 L 168.5 55 L 160.5 46 Z " /><path fill="rgb(0,0,0)" stroke="rgb(0,0,0)" stroke-width="1" opacity="0.6313725490196078" d="M 102.5 50 L 103.5 52 L 102.5 50 Z " /><path fill="rgb(0,0,0)" stroke="rgb(0,0,0)" stroke-width="1" opacity="0.6313725490196078" d="M 111.5 56 L 112.5 58 L 111.5 56 Z " /><path fill="rgb(0,0,0)" stroke="rgb(0,0,0)" stroke-width="1" opacity="0.6313725490196078" d="M 111.5 62 L 112 67.5 L 108.5 69 L 108.5 68 L 111 68 L 111.5 62 Z " /><path fill="rgb(0,0,0)" stroke="rgb(0,0,0)" stroke-width="1" opacity="0.6313725490196078" d="M 61.5 67 L 64 67.5 L 61.5 68 L 61.5 67 Z " /><path fill="rgb(0,0,0)" stroke="rgb(0,0,0)" stroke-width="1" opacity="0.6313725490196078" d="M 72.5 67 L 75 67.5 L 72.5 68 L 72.5 67 Z " /><path fill="rgb(0,0,0)" stroke="rgb(0,0,0)" stroke-width="1" opacity="0.6313725490196078" d="M 85.5 71 L 86.5 73 L 85.5 71 Z " /><path fill="rgb(0,0,0)" stroke="rgb(0,0,0)" stroke-width="1" opacity="0.6313725490196078" d="M 47.5 73 L 45.5 76 L 47.5 73 Z " /><path fill="rgb(0,0,0)" stroke="rgb(0,0,0)" stroke-width="1" opacity="0.6313725490196078" d="M 88.5 73 L 90.5 76 L 88.5 73 Z " /><path fill="rgb(0,0,0)" stroke="rgb(0,0,0)" stroke-width="1" opacity="0.6313725490196078" d="M 93.5 73 L 92.5 75 L 93.5 73 Z " /><path fill="rgb(0,0,0)" stroke="rgb(0,0,0)" stroke-width="1" opacity="0.6313725490196078" d="M 181.5 75 L 184 75.5 L 181.5 76 L 181.5 75 Z " /><path fill="rgb(0,0,0)" stroke="rgb(0,0,0)" stroke-width="1" opacity="0.6313725490196078" d="M 187.5 76 L 189.5 79 L 187.5 76 Z " /><path fill="rgb(0,0,0)" stroke="rgb(0,0,0)" stroke-width="1" opacity="0.6313725490196078" d="M 42.5 77 L 39.5 81 L 42.5 77 Z " /><path fill="rgb(0,0,0)" stroke="rgb(0,0,0)" stroke-width="1" opacity="0.6313725490196078" d="M 38.5 82 L 36.5 85 L 38.5 82 Z " /><path fill="rgb(0,0,0)" stroke="rgb(0,0,0)" stroke-width="1" opacity="0.6313725490196078" d="M 190.5 85 L 191 87.5 L 190 87.5 L 190.5 85 Z " /><path fill="rgb(0,0,0)" stroke="rgb(0,0,0)" stroke-width="1" opacity="0.6313725490196078" d="M 35.5 86 L 35 87.5 L 34.5 89 L 34 87.5 L 35.5 86 Z " /><path fill="rgb(0,0,0)" stroke="rgb(0,0,0)" stroke-width="1" opacity="0.6313725490196078" d="M 169.5 89 L 173 91.5 L 171.5 91 L 169.5 89 Z " /><path fill="rgb(0,0,0)" stroke="rgb(0,0,0)" stroke-width="1" opacity="0.6313725490196078" d="M 188.5 91 L 185.5 95 L 188.5 91 Z " /><path fill="rgb(0,0,0)" stroke="rgb(0,0,0)" stroke-width="1" opacity="0.6313725490196078" d="M 160.5 92 L 162 92.5 L 159.5 94 L 160.5 92 Z " /><path fill="rgb(0,0,0)" stroke="rgb(0,0,0)" stroke-width="1" opacity="0.6313725490196078" d="M 157.5 94 L 163 100.5 L 157 95.5 L 157.5 94 Z " /><path fill="rgb(0,0,0)" stroke="rgb(0,0,0)" stroke-width="1" opacity="0.6313725490196078" d="M 180.5 95 L 184 95.5 L 180.5 96 L 180.5 95 Z " /><path fill="rgb(0,0,0)" stroke="rgb(0,0,0)" stroke-width="1" opacity="0.6313725490196078" d="M 163.5 102 L 165.5 105 L 163.5 102 Z " /><path fill="rgb(0,0,0)" stroke="rgb(0,0,0)" stroke-width="1" opacity="0.6313725490196078" d="M 35.5 103 L 36.5 105 L 35.5 103 Z " /><path fill="rgb(0,0,0)" stroke="rgb(0,0,0)" stroke-width="1" opacity="0.6313725490196078" d="M 166.5 106 L 169 109.5 L 167 108.5 L 166.5 106 Z " /><path fill="rgb(0,0,0)" stroke="rgb(0,0,0)" stroke-width="1" opacity="0.6313725490196078" d="M 33.5 111 L 32 113.5 L 34 116.5 L 31 114.5 L 33.5 111 Z " /><path fill="rgb(0,0,0)" stroke="rgb(0,0,0)" stroke-width="1" opacity="0.6313725490196078" d="M 32.5 119 L 30.5 122 L 32.5 119 Z " /><path fill="rgb(0,0,0)" stroke="rgb(0,0,0)" stroke-width="1" opacity="0.6313725490196078" d="M 173.5 123 L 174 128.5 L 173 128.5 L 173.5 123 Z " /><path fill="rgb(0,0,0)" stroke="rgb(0,0,0)" stroke-width="1" opacity="0.6313725490196078" d="M 32.5 129 L 33.5 131 L 32.5 129 Z " /><path fill="rgb(0,0,0)" stroke="rgb(0,0,0)" stroke-width="1" opacity="0.6313725490196078" d="M 38.5 132 Q 43.8 130.8 45 133.5 L 43.5 133 Q 37.5 134.2 38.5 132 Z " /><path fill="rgb(0,0,0)" stroke="rgb(0,0,0)" stroke-width="1" opacity="0.6313725490196078" d="M 43.5 135 L 43 136.5 L 41.5 140 L 41 138.5 L 43.5 135 Z " /><path fill="rgb(0,0,0)" stroke="rgb(0,0,0)" stroke-width="1" opacity="0.6313725490196078" d="M 169.5 139 L 168.5 141 L 169.5 139 Z " /><path fill="rgb(0,0,0)" stroke="rgb(0,0,0)" stroke-width="1" opacity="0.6313725490196078" d="M 40.5 141 L 41 146.5 L 40 146.5 L 40.5 141 Z " /><path fill="rgb(0,0,0)" stroke="rgb(0,0,0)" stroke-width="1" opacity="0.6313725490196078" d="M 166.5 143 L 166 144.5 L 165.5 146 L 165 144.5 L 166.5 143 Z " /><path fill="rgb(0,0,0)" stroke="rgb(0,0,0)" stroke-width="1" opacity="0.6313725490196078" d="M 164.5 147 L 165 148.5 L 163 149.5 L 164.5 147 Z " /><path fill="rgb(0,0,0)" stroke="rgb(0,0,0)" stroke-width="1" opacity="0.6313725490196078" d="M 42.5 151 L 46.5 156 L 42.5 151 Z " /><path fill="rgb(0,0,0)" stroke="rgb(0,0,0)" stroke-width="1" opacity="0.6313725490196078" d="M 160.5 152 L 159.5 154 L 160.5 152 Z " /><path fill="rgb(0,0,0)" stroke="rgb(0,0,0)" stroke-width="1" opacity="0.6313725490196078" d="M 66.5 162 L 70 163.5 L 68 164.5 L 68.5 163 Q 65.5 163.5 66.5 162 Z " /><path fill="rgb(0,0,0)" stroke="rgb(0,0,0)" stroke-width="1" opacity="0.6313725490196078" d="M 135.5 164 L 138 167.5 L 136 166.5 L 135.5 164 Z " /><path fill="rgb(0,0,0)" stroke="rgb(0,0,0)" stroke-width="1" opacity="0.6313725490196078" d="M 58.5 166 L 61 166.5 L 58.5 167 L 58.5 166 Z " /><path fill="rgb(0,0,0)" stroke="rgb(0,0,0)" stroke-width="1" opacity="0.6313725490196078" d="M 67.5 166 L 66.5 168 L 67.5 166 Z " /><path fill="rgb(0,0,0)" stroke="rgb(0,0,0)" stroke-width="1" opacity="0.6313725490196078" d="M 26.5 173 L 28 173.5 L 23.5 176 L 24.5 174 L 26.5 173 Z " /><path fill="rgb(0,0,0)" stroke="rgb(0,0,0)" stroke-width="1" opacity="0.6313725490196078" d="M 21.5 178 L 20.5 180 L 21.5 178 Z " /><path fill="rgb(0,0,0)" stroke="rgb(0,0,0)" stroke-width="1" opacity="0.6313725490196078" d="M 16.5 194 L 19.5 198 L 16.5 194 Z " /><path fill="rgb(247,213,181)" stroke="rgb(247,213,181)" stroke-width="1" opacity="1" d="M 162.5 75 L 172 79 L 170.5 84 L 161 77.5 L 162.5 75 Z " /><path fill="rgb(247,213,181)" stroke="rgb(247,213,181)" stroke-width="1" opacity="1" d="M 178 82 L 183 82.5 L 178.5 88 L 176 86.5 L 178 82 Z " /><path fill="rgb(247,213,181)" stroke="rgb(247,213,181)" stroke-width="1" opacity="1" d="M 80 116 L 99 118 L 98 122.5 Q 99.3 125.3 104.5 124 L 108.5 123 L 108 124.5 L 111 130.5 Q 109.8 133.3 108.5 131 Q 103.8 130.3 103 133.5 L 105.5 139 Q 108.2 141.8 114.5 141 Q 116.8 138.3 122.5 139 L 122.5 140 L 121 140.5 L 128.5 144 L 146 145 L 147 148.5 Q 140.3 153.8 130.5 156 L 119.5 158 L 91.5 160 L 90.5 159 L 78.5 159 L 55.5 154 L 47 147.5 L 46 143.5 L 51.5 132 L 55.5 133 L 57.5 132 L 62.5 139 L 70.5 140 L 78 135.5 Q 78.8 131.8 76.5 131 L 71.5 130 L 66 131 L 68 127.5 L 68 124.5 L 67.5 123 L 71.5 124 L 76.5 123 L 78.5 124 L 81 123 L 80 116 Z M 76 144 L 73 147 L 74 149 L 82 152 L 101 152 L 109 150 L 112 148 L 111 144 Q 104 143 101 146 L 94 146 L 93 147 L 81 146 L 76 144 Z " /><path fill="rgb(247,213,181)" stroke="rgb(247,213,181)" stroke-width="1" opacity="1" d="M 78.5 167 L 85.5 168 L 87 169.5 L 88 173 L 79 171 L 78.5 167 Z " /><path fill="rgb(247,213,181)" stroke="rgb(247,213,181)" stroke-width="1" opacity="1" d="M 57 172 L 60 172.5 L 58 173 L 59 179.5 L 58 179.5 L 57 172 Z " /><path fill="rgb(247,213,181)" stroke="rgb(247,213,181)" stroke-width="1" opacity="1" d="M 52.5 173 L 53 176.5 L 52 176.5 L 52.5 173 Z " /><path fill="rgb(247,213,181)" stroke="rgb(247,213,181)" stroke-width="1" opacity="1" d="M 102.5 175 L 113 179.5 L 109.5 184 L 101 178 L 102.5 175 Z " /><path fill="rgb(247,213,181)" stroke="rgb(247,213,181)" stroke-width="1" opacity="1" d="M 30.5 178 L 37 185.5 L 32 188.5 L 38 196.5 L 33.5 200 L 22 191.5 L 23 186.5 L 27 180 Q 30.8 181.3 30.5 178 Z " /><path fill="rgb(247,213,181)" stroke="rgb(247,213,181)" stroke-width="1" opacity="1" d="M 53.5 178 L 54 184.5 L 53 184.5 L 53.5 178 Z " /><path fill="rgb(247,213,181)" stroke="rgb(247,213,181)" stroke-width="1" opacity="1" d="M 93.5 181 L 95 182.5 L 90.5 187 L 87.5 189 L 91.5 184 L 94 182.5 L 93.5 181 Z " /><path fill="rgb(247,213,181)" stroke="rgb(247,213,181)" stroke-width="1" opacity="1" d="M 60.5 184 L 61 186.5 L 60 186.5 L 60.5 184 Z " /><path fill="rgb(247,213,181)" stroke="rgb(247,213,181)" stroke-width="1" opacity="1" d="M 98.5 185 L 94.5 190 L 92 191.5 L 87 198.5 L 87.5 200 L 86 197.5 L 95.5 187 L 98.5 185 Z " /><path fill="rgb(247,213,181)" stroke="rgb(247,213,181)" stroke-width="1" opacity="1" d="M 38.5 186 L 44.5 192 L 47 192.5 L 44.5 193 L 39 189 L 38.5 186 Z " /><path fill="rgb(247,213,181)" stroke="rgb(247,213,181)" stroke-width="1" opacity="1" d="M 54.5 186 L 55 188.5 L 54 188.5 L 54.5 186 Z " /><path fill="rgb(247,213,181)" stroke="rgb(247,213,181)" stroke-width="1" opacity="1" d="M 61.5 188 L 65 189.5 L 62.5 190 L 61.5 188 Z " /><path fill="rgb(247,213,181)" stroke="rgb(247,213,181)" stroke-width="1" opacity="1" d="M 85.5 189 L 83 192.5 L 81.5 195 L 79 194.5 L 85.5 189 Z " /><path fill="rgb(247,213,181)" stroke="rgb(247,213,181)" stroke-width="1" opacity="1" d="M 52.5 190 L 55 190.5 L 52.5 191 L 52.5 190 Z " /><path fill="rgb(247,213,181)" stroke="rgb(247,213,181)" stroke-width="1" opacity="1" d="M 66.5 190 L 69 190.5 L 66.5 191 L 66.5 190 Z " /><path fill="rgb(247,213,181)" stroke="rgb(247,213,181)" stroke-width="1" opacity="1" d="M 48.5 191 L 51 191.5 L 48.5 192 L 48.5 191 Z " /><path fill="rgb(247,213,181)" stroke="rgb(247,213,181)" stroke-width="1" opacity="1" d="M 70.5 191 L 75 192.5 L 73.5 193 L 70.5 192 L 70.5 191 Z " /><path fill="rgb(97,251,219)" stroke="rgb(97,251,219)" stroke-width="1" opacity="0.996078431372549" d="M 139.5 46 L 150.5 48 L 156 51.5 Q 148.4 52.4 145 57.5 Q 146.5 61.9 143.5 61 L 141 60 L 136.5 54 Q 125.5 57 118.5 64 L 118 61.5 Q 120.6 54.1 126.5 50 L 129.5 48 L 139.5 46 Z " /><path fill="rgb(97,251,219)" stroke="rgb(97,251,219)" stroke-width="1" opacity="0.996078431372549" d="M 63.5 73 Q 82.5 72 89.5 83 L 105.5 75 L 120.5 74 L 136 79 L 128.5 88 L 125.5 88 L 113.5 81 L 101.5 81 Q 92.2 83.7 86.5 90 L 82 90 L 78.5 85 Q 74.4 80.1 63.5 82 L 53 89.5 L 49 96.5 L 49 100.5 Q 52.1 104.9 51 113.5 L 46.5 121 Q 43.1 124.7 37 124 L 38 120.5 L 34 117.5 L 36.5 117 L 42 111.5 L 43 104.5 L 39 97.5 L 39 91.5 L 48.5 80 L 63.5 73 Z " /><path fill="rgb(10,15,13)" stroke="rgb(10,15,13)" stroke-width="1" opacity="0.996078431372549" d="M 136.5 45 L 144 45.5 L 136.5 46 L 136.5 45 Z " /><path fill="rgb(10,15,13)" stroke="rgb(10,15,13)" stroke-width="1" opacity="0.996078431372549" d="M 127.5 48 L 126.5 50 L 127.5 48 Z " /><path fill="rgb(10,15,13)" stroke="rgb(10,15,13)" stroke-width="1" opacity="0.996078431372549" d="M 157.5 50 L 163 56.5 L 158 52.5 L 157.5 50 Z " /><path fill="rgb(10,15,13)" stroke="rgb(10,15,13)" stroke-width="1" opacity="0.996078431372549" d="M 113.5 52 L 116 52.5 Q 113.9 55.8 113.5 52 Z " /><path fill="rgb(10,15,13)" stroke="rgb(10,15,13)" stroke-width="1" opacity="0.996078431372549" d="M 164.5 58 L 166.5 61 L 164.5 58 Z " /><path fill="rgb(10,15,13)" stroke="rgb(10,15,13)" stroke-width="1" opacity="0.996078431372549" d="M 116.5 64 L 117 68 L 121 68.5 L 117.5 69 Q 114.8 67.8 116.5 64 Z " /><path fill="rgb(10,15,13)" stroke="rgb(10,15,13)" stroke-width="1" opacity="0.996078431372549" d="M 123.5 69 L 132 71.5 L 128.5 72 L 123.5 70 L 123.5 69 Z " /><path fill="rgb(10,15,13)" stroke="rgb(10,15,13)" stroke-width="1" opacity="0.996078431372549" d="M 160.5 69 L 165 69.5 L 160.5 70 L 160.5 69 Z " /><path fill="rgb(10,15,13)" stroke="rgb(10,15,13)" stroke-width="1" opacity="0.996078431372549" d="M 158.5 70 L 156.5 73 L 158.5 70 Z " /><path fill="rgb(10,15,13)" stroke="rgb(10,15,13)" stroke-width="1" opacity="0.996078431372549" d="M 134.5 72 Q 140.3 73.3 143 77.5 L 139.5 75 L 134.5 73 L 134.5 72 Z " /><path fill="rgb(10,15,13)" stroke="rgb(10,15,13)" stroke-width="1" opacity="0.996078431372549" d="M 108.5 73 L 111 73.5 L 108.5 74 L 108.5 73 Z " /><path fill="rgb(10,15,13)" stroke="rgb(10,15,13)" stroke-width="1" opacity="0.996078431372549" d="M 119.5 73 L 122 73.5 L 119.5 74 L 119.5 73 Z " /><path fill="rgb(10,15,13)" stroke="rgb(10,15,13)" stroke-width="1" opacity="0.996078431372549" d="M 155.5 74 L 156 78.5 L 155 78.5 L 155.5 74 Z " /><path fill="rgb(10,15,13)" stroke="rgb(10,15,13)" stroke-width="1" opacity="0.996078431372549" d="M 161.5 74 L 160.5 76 L 161.5 74 Z " /><path fill="rgb(10,15,13)" stroke="rgb(10,15,13)" stroke-width="1" opacity="0.996078431372549" d="M 82.5 75 L 83.5 77 L 82.5 75 Z " /><path fill="rgb(10,15,13)" stroke="rgb(10,15,13)" stroke-width="1" opacity="0.996078431372549" d="M 85.5 77 L 91 81.5 L 89.5 82 L 85.5 77 Z " /><path fill="rgb(10,15,13)" stroke="rgb(10,15,13)" stroke-width="1" opacity="0.996078431372549" d="M 49.5 78 L 47.5 81 L 49.5 78 Z " /><path fill="rgb(10,15,13)" stroke="rgb(10,15,13)" stroke-width="1" opacity="0.996078431372549" d="M 143.5 79 L 145 81.5 L 144 81.5 L 143.5 79 Z " /><path fill="rgb(10,15,13)" stroke="rgb(10,15,13)" stroke-width="1" opacity="0.996078431372549" d="M 161.5 79 L 162.5 81 L 161.5 79 Z " /><path fill="rgb(10,15,13)" stroke="rgb(10,15,13)" stroke-width="1" opacity="0.996078431372549" d="M 185.5 82 L 186 85.5 L 185 85.5 L 185.5 82 Z " /><path fill="rgb(10,15,13)" stroke="rgb(10,15,13)" stroke-width="1" opacity="0.996078431372549" d="M 41.5 86 L 40.5 88 L 41.5 86 Z " /><path fill="rgb(10,15,13)" stroke="rgb(10,15,13)" stroke-width="1" opacity="0.996078431372549" d="M 142.5 88 L 147.5 94 L 142.5 88 Z " /><path fill="rgb(10,15,13)" stroke="rgb(10,15,13)" stroke-width="1" opacity="0.996078431372549" d="M 149.5 88 L 151.5 91 L 149.5 88 Z " /><path fill="rgb(10,15,13)" stroke="rgb(10,15,13)" stroke-width="1" opacity="0.996078431372549" d="M 157.5 88 L 156.5 90 L 155 89.5 L 157.5 88 Z " /><path fill="rgb(10,15,13)" stroke="rgb(10,15,13)" stroke-width="1" opacity="0.996078431372549" d="M 179.5 89 L 184 89.5 L 179.5 90 L 179.5 89 Z " /><path fill="rgb(10,15,13)" stroke="rgb(10,15,13)" stroke-width="1" opacity="0.996078431372549" d="M 149.5 94 L 157.5 103 L 149.5 94 Z " /><path fill="rgb(10,15,13)" stroke="rgb(10,15,13)" stroke-width="1" opacity="0.996078431372549" d="M 71.5 98 L 69.5 101 L 71.5 98 Z " /><path fill="rgb(10,15,13)" stroke="rgb(10,15,13)" stroke-width="1" opacity="0.996078431372549" d="M 93.5 98 L 88.5 104 L 93.5 98 Z " /><path fill="rgb(10,15,13)" stroke="rgb(10,15,13)" stroke-width="1" opacity="0.996078431372549" d="M 39.5 100 L 40.5 102 L 39.5 100 Z " /><path fill="rgb(10,15,13)" stroke="rgb(10,15,13)" stroke-width="1" opacity="0.996078431372549" d="M 83.5 100 L 84.5 102 L 83.5 100 Z " /><path fill="rgb(10,15,13)" stroke="rgb(10,15,13)" stroke-width="1" opacity="0.996078431372549" d="M 107.5 100 L 109.5 103 L 107.5 100 Z " /><path fill="rgb(10,15,13)" stroke="rgb(10,15,13)" stroke-width="1" opacity="0.996078431372549" d="M 74.5 102 L 73.5 104 L 74.5 102 Z " /><path fill="rgb(10,15,13)" stroke="rgb(10,15,13)" stroke-width="1" opacity="0.996078431372549" d="M 77.5 102 L 80 103.5 L 78.5 103 L 77.5 102 Z " /><path fill="rgb(10,15,13)" stroke="rgb(10,15,13)" stroke-width="1" opacity="0.996078431372549" d="M 96.5 102 L 100 102.5 L 96.5 103 L 96.5 102 Z " /><path fill="rgb(10,15,13)" stroke="rgb(10,15,13)" stroke-width="1" opacity="0.996078431372549" d="M 94.5 103 L 92.5 106 L 94.5 103 Z " /><path fill="rgb(10,15,13)" stroke="rgb(10,15,13)" stroke-width="1" opacity="0.996078431372549" d="M 158.5 104 L 160.5 107 L 158.5 104 Z " /><path fill="rgb(10,15,13)" stroke="rgb(10,15,13)" stroke-width="1" opacity="0.996078431372549" d="M 87.5 105 L 89.5 108 L 91.5 107 L 90.5 109 L 87 106.5 L 87.5 105 Z " /><path fill="rgb(10,15,13)" stroke="rgb(10,15,13)" stroke-width="1" opacity="0.996078431372549" d="M 105.5 106 L 108 110.5 L 106 109.5 L 105.5 106 Z " /><path fill="rgb(10,15,13)" stroke="rgb(10,15,13)" stroke-width="1" opacity="0.996078431372549" d="M 82.5 107 L 84.5 108 L 86 107.5 L 83.5 109 L 82.5 107 Z " /><path fill="rgb(10,15,13)" stroke="rgb(10,15,13)" stroke-width="1" opacity="0.996078431372549" d="M 66.5 109 L 67 111.5 L 66 111.5 L 66.5 109 Z " /><path fill="rgb(10,15,13)" stroke="rgb(10,15,13)" stroke-width="1" opacity="0.996078431372549" d="M 112.5 109 L 113 116.5 L 112 116.5 L 112.5 109 Z " /><path fill="rgb(10,15,13)" stroke="rgb(10,15,13)" stroke-width="1" opacity="0.996078431372549" d="M 40.5 111 L 39.5 113 L 40.5 111 Z " /><path fill="rgb(10,15,13)" stroke="rgb(10,15,13)" stroke-width="1" opacity="0.996078431372549" d="M 163.5 111 L 166 115.5 L 165 115.5 L 163.5 111 Z " /><path fill="rgb(10,15,13)" stroke="rgb(10,15,13)" stroke-width="1" opacity="0.996078431372549" d="M 37.5 114 L 36.5 116 L 37.5 114 Z " /><path fill="rgb(10,15,13)" stroke="rgb(10,15,13)" stroke-width="1" opacity="0.996078431372549" d="M 69.5 116 L 70 118 Q 73 117 72 120 L 67 120 L 67 121.5 L 61 126.5 L 69.5 116 Z " /><path fill="rgb(10,15,13)" stroke="rgb(10,15,13)" stroke-width="1" opacity="0.996078431372549" d="M 62.5 118 L 60.5 121 L 62.5 118 Z " /><path fill="rgb(10,15,13)" stroke="rgb(10,15,13)" stroke-width="1" opacity="0.996078431372549" d="M 35.5 119 L 37 121.5 L 36 121.5 L 35.5 119 Z " /><path fill="rgb(10,15,13)" stroke="rgb(10,15,13)" stroke-width="1" opacity="0.996078431372549" d="M 109.5 119 L 110 121.5 L 109 121.5 L 109.5 119 Z " /><path fill="rgb(10,15,13)" stroke="rgb(10,15,13)" stroke-width="1" opacity="0.996078431372549" d="M 168.5 124 L 169 128.5 L 168 128.5 L 168.5 124 Z " /><path fill="rgb(10,15,13)" stroke="rgb(10,15,13)" stroke-width="1" opacity="0.996078431372549" d="M 39.5 127 L 46 127.5 L 39.5 128 L 39.5 127 Z " /><path fill="rgb(10,15,13)" stroke="rgb(10,15,13)" stroke-width="1" opacity="0.996078431372549" d="M 59.5 127 L 58.5 129 L 59.5 127 Z " /><path fill="rgb(10,15,13)" stroke="rgb(10,15,13)" stroke-width="1" opacity="0.996078431372549" d="M 117.5 128 L 119.5 131 L 117.5 128 Z " /><path fill="rgb(10,15,13)" stroke="rgb(10,15,13)" stroke-width="1" opacity="0.996078431372549" d="M 153.5 129 L 157 129.5 L 153.5 130 L 153.5 129 Z " /><path fill="rgb(10,15,13)" stroke="rgb(10,15,13)" stroke-width="1" opacity="0.996078431372549" d="M 158.5 130 L 164 134.5 L 159.5 131 L 158.5 130 Z " /><path fill="rgb(10,15,13)" stroke="rgb(10,15,13)" stroke-width="1" opacity="0.996078431372549" d="M 114.5 131 L 117.5 135 L 122 137.5 L 120.5 137 L 114 132.5 L 114.5 131 Z " /><path fill="rgb(10,15,13)" stroke="rgb(10,15,13)" stroke-width="1" opacity="0.996078431372549" d="M 148.5 131 L 146.5 134 L 148.5 131 Z " /><path fill="rgb(10,15,13)" stroke="rgb(10,15,13)" stroke-width="1" opacity="0.996078431372549" d="M 166.5 133 L 166 134.5 L 165.5 136 L 165 134.5 L 166.5 133 Z " /><path fill="rgb(10,15,13)" stroke="rgb(10,15,13)" stroke-width="1" opacity="0.996078431372549" d="M 152.5 134 L 149.5 138 L 152.5 134 Z " /><path fill="rgb(10,15,13)" stroke="rgb(10,15,13)" stroke-width="1" opacity="0.996078431372549" d="M 143.5 135 L 146 135.5 L 143.5 136 L 143.5 135 Z " /><path fill="rgb(10,15,13)" stroke="rgb(10,15,13)" stroke-width="1" opacity="0.996078431372549" d="M 72 136 L 75 136.5 L 72.5 138 L 72 136 Z " /><path fill="rgb(10,15,13)" stroke="rgb(10,15,13)" stroke-width="1" opacity="0.996078431372549" d="M 47.5 138 L 46.5 140 L 47.5 138 Z " /><path fill="rgb(10,15,13)" stroke="rgb(10,15,13)" stroke-width="1" opacity="0.996078431372549" d="M 141.5 140 L 144 140.5 L 141.5 141 L 141.5 140 Z " /><path fill="rgb(10,15,13)" stroke="rgb(10,15,13)" stroke-width="1" opacity="0.996078431372549" d="M 45.5 142 L 46 146.5 L 45 146.5 L 45.5 142 Z " /><path fill="rgb(10,15,13)" stroke="rgb(10,15,13)" stroke-width="1" opacity="0.996078431372549" d="M 159.5 146 L 158.5 148 L 159.5 146 Z " /><path fill="rgb(10,15,13)" stroke="rgb(10,15,13)" stroke-width="1" opacity="0.996078431372549" d="M 66.5 157 L 69 157.5 L 66.5 158 L 66.5 157 Z " /><path fill="rgb(10,15,13)" stroke="rgb(10,15,13)" stroke-width="1" opacity="0.996078431372549" d="M 124.5 157 L 127 157.5 L 124.5 158 L 124.5 157 Z " /><path fill="rgb(10,15,13)" stroke="rgb(10,15,13)" stroke-width="1" opacity="0.996078431372549" d="M 71.5 158 L 74 158.5 L 71.5 159 L 71.5 158 Z " /><path fill="rgb(10,15,13)" stroke="rgb(10,15,13)" stroke-width="1" opacity="0.996078431372549" d="M 117.5 158 L 120 158.5 L 117.5 159 L 117.5 158 Z " /><path fill="rgb(10,15,13)" stroke="rgb(10,15,13)" stroke-width="1" opacity="0.996078431372549" d="M 77.5 159 L 81 159.5 L 77.5 160 L 77.5 159 Z " /><path fill="rgb(10,15,13)" stroke="rgb(10,15,13)" stroke-width="1" opacity="0.996078431372549" d="M 105.5 159 L 109 159.5 L 105.5 160 L 105.5 159 Z " /><path fill="rgb(10,15,13)" stroke="rgb(10,15,13)" stroke-width="1" opacity="0.996078431372549" d="M 90.5 160 L 99 160.5 L 90.5 161 L 90.5 160 Z " /><path fill="rgb(10,15,13)" stroke="rgb(10,15,13)" stroke-width="1" opacity="0.996078431372549" d="M 128.5 162 L 129.5 164 L 128.5 162 Z " /><path fill="rgb(10,15,13)" stroke="rgb(10,15,13)" stroke-width="1" opacity="0.996078431372549" d="M 115.5 163 L 119 163.5 L 115.5 164 L 115.5 163 Z " /><path fill="rgb(10,15,13)" stroke="rgb(10,15,13)" stroke-width="1" opacity="0.996078431372549" d="M 80.5 164 L 84 164.5 L 80.5 165 L 80.5 164 Z " /><path fill="rgb(10,15,13)" stroke="rgb(10,15,13)" stroke-width="1" opacity="0.996078431372549" d="M 102.5 164 L 105 164.5 L 100 168.5 Q 104.3 166.2 102.5 164 Z " /><path fill="rgb(10,15,13)" stroke="rgb(10,15,13)" stroke-width="1" opacity="0.996078431372549" d="M 109.5 166 L 100 176.5 L 99.5 178 L 99 176.5 L 109.5 166 Z " /><path fill="rgb(10,15,13)" stroke="rgb(10,15,13)" stroke-width="1" opacity="0.996078431372549" d="M 132.5 169 L 133.5 171 L 132.5 169 Z " /><path fill="rgb(10,15,13)" stroke="rgb(10,15,13)" stroke-width="1" opacity="0.996078431372549" d="M 56.5 171 L 60 171.5 L 56.5 172 L 56.5 171 Z " /><path fill="rgb(10,15,13)" stroke="rgb(10,15,13)" stroke-width="1" opacity="0.996078431372549" d="M 89.5 172 L 90 175 L 88 174.5 L 89.5 172 Z " /><path fill="rgb(10,15,13)" stroke="rgb(10,15,13)" stroke-width="1" opacity="0.996078431372549" d="M 94.5 172 L 96.5 173 L 98 172.5 L 94 174 L 94.5 172 Z " /><path fill="rgb(10,15,13)" stroke="rgb(10,15,13)" stroke-width="1" opacity="0.996078431372549" d="M 25.5 181 L 24.5 183 L 25.5 181 Z " /><path fill="rgb(10,15,13)" stroke="rgb(10,15,13)" stroke-width="1" opacity="0.996078431372549" d="M 102.5 185 L 111.5 195 L 102.5 185 Z " /><path fill="rgb(10,15,13)" stroke="rgb(10,15,13)" stroke-width="1" opacity="0.996078431372549" d="M 110.5 185 L 111.5 187 L 110.5 185 Z " /><path fill="rgb(10,15,13)" stroke="rgb(10,15,13)" stroke-width="1" opacity="0.996078431372549" d="M 21.5 192 L 22.5 194 L 21.5 192 Z " /><path fill="rgb(10,15,13)" stroke="rgb(10,15,13)" stroke-width="1" opacity="0.996078431372549" d="M 118.5 194 L 121.5 198 L 118.5 194 Z " /><path fill="rgb(10,15,13)" stroke="rgb(10,15,13)" stroke-width="1" opacity="0.996078431372549" d="M 25.5 195 L 26.5 197 L 25.5 195 Z " /><path fill="rgb(249,239,218)" stroke="rgb(249,239,218)" stroke-width="1" opacity="1" d="M 172.5 80 L 178 82 L 177 86 L 171 84 L 172.5 80 Z " /><path fill="rgb(249,239,218)" stroke="rgb(249,239,218)" stroke-width="1" opacity="1" d="M 49.5 172 Q 54.1 170.7 52 176.5 L 55 189.5 L 44.5 192 L 31 179.5 Q 30.3 177.3 32.5 178 L 49.5 172 Z " /><path fill="rgb(249,239,218)" stroke="rgb(249,239,218)" stroke-width="1" opacity="1" d="M 58 173 Q 78.1 175.1 94 182.5 L 80.5 194 L 78.5 194 L 61 187.5 L 58 173 Z " /><path fill="rgb(249,239,218)" stroke="rgb(249,239,218)" stroke-width="1" opacity="1" d="M 99.5 185 L 113 197.5 L 114 199.5 L 88.5 200 L 87 197.5 L 93.5 190 L 99.5 185 Z " /><path fill="rgb(97,79,66)" stroke="rgb(97,79,66)" stroke-width="1" opacity="0.996078431372549" d="M 125.5 50 L 123.5 53 L 125.5 50 Z " /><path fill="rgb(97,79,66)" stroke="rgb(97,79,66)" stroke-width="1" opacity="0.996078431372549" d="M 114.5 52 L 115.5 54 L 114.5 52 Z " /><path fill="rgb(97,79,66)" stroke="rgb(97,79,66)" stroke-width="1" opacity="0.996078431372549" d="M 128.5 70 L 131 70.5 L 128.5 71 L 128.5 70 Z " /><path fill="rgb(97,79,66)" stroke="rgb(97,79,66)" stroke-width="1" opacity="0.996078431372549" d="M 161.5 78 L 163.5 81 L 161.5 78 Z " /><path fill="rgb(97,79,66)" stroke="rgb(97,79,66)" stroke-width="1" opacity="0.996078431372549" d="M 179.5 81 Q 187.8 78.3 185 86.5 L 184 89 Q 178.5 90.1 176 87.5 L 177.5 87 L 182.5 88 L 184 84.5 L 183.5 82 Q 178.5 83 179.5 81 Z " /><path fill="rgb(97,79,66)" stroke="rgb(97,79,66)" stroke-width="1" opacity="0.996078431372549" d="M 140.5 86 L 141.5 88 L 140.5 86 Z " /><path fill="rgb(97,79,66)" stroke="rgb(97,79,66)" stroke-width="1" opacity="0.996078431372549" d="M 95.5 97 L 100 97.5 L 95.5 98 L 95.5 97 Z " /><path fill="rgb(97,79,66)" stroke="rgb(97,79,66)" stroke-width="1" opacity="0.996078431372549" d="M 91.5 99 L 89.5 102 L 91.5 99 Z " /><path fill="rgb(97,79,66)" stroke="rgb(97,79,66)" stroke-width="1" opacity="0.996078431372549" d="M 156.5 102 L 157.5 104 L 156.5 102 Z " /><path fill="rgb(97,79,66)" stroke="rgb(97,79,66)" stroke-width="1" opacity="0.996078431372549" d="M 74.5 103 L 73.5 105 L 74.5 103 Z " /><path fill="rgb(97,79,66)" stroke="rgb(97,79,66)" stroke-width="1" opacity="0.996078431372549" d="M 86.5 105 L 89 108.5 L 86 106.5 L 86.5 105 Z " /><path fill="rgb(97,79,66)" stroke="rgb(97,79,66)" stroke-width="1" opacity="0.996078431372549" d="M 160.5 107 L 161.5 109 L 160.5 107 Z " /><path fill="rgb(97,79,66)" stroke="rgb(97,79,66)" stroke-width="1" opacity="0.996078431372549" d="M 107.5 111 L 108 115.5 L 107 115.5 L 107.5 111 Z " /><path fill="rgb(97,79,66)" stroke="rgb(97,79,66)" stroke-width="1" opacity="0.996078431372549" d="M 39.5 113 L 38.5 115 L 39.5 113 Z " /><path fill="rgb(97,79,66)" stroke="rgb(97,79,66)" stroke-width="1" opacity="0.996078431372549" d="M 70.5 115 L 71 117 L 80 118 L 81 121.5 Q 79.3 124.8 72.5 123 L 67.5 122 L 63 125.5 L 67 120 L 72 120 L 72 118 Q 68.5 119.1 70.5 115 Z " /><path fill="rgb(97,79,66)" stroke="rgb(97,79,66)" stroke-width="1" opacity="0.996078431372549" d="M 105.5 117 L 109 118.5 L 110 122.5 L 107.5 123 L 100.5 124 Q 98.3 123.3 99 119.5 L 105.5 117 Z " /><path fill="rgb(97,79,66)" stroke="rgb(97,79,66)" stroke-width="1" opacity="0.996078431372549" d="M 59.5 121 L 58.5 123 L 59.5 121 Z " /><path fill="rgb(97,79,66)" stroke="rgb(97,79,66)" stroke-width="1" opacity="0.996078431372549" d="M 60.5 127 L 59.5 129 L 60.5 127 Z " /><path fill="rgb(97,79,66)" stroke="rgb(97,79,66)" stroke-width="1" opacity="0.996078431372549" d="M 112.5 129 L 113.5 131 L 112.5 129 Z " /><path fill="rgb(97,79,66)" stroke="rgb(97,79,66)" stroke-width="1" opacity="0.996078431372549" d="M 61.5 130 Q 66.6 132.4 75.5 131 L 78 133.5 L 74.5 138 Q 71 140.5 63.5 139 Q 59 138 60 131.5 L 61.5 130 Z M 72 136 L 73 138 L 75 137 L 72 136 Z " /><path fill="rgb(97,79,66)" stroke="rgb(97,79,66)" stroke-width="1" opacity="0.996078431372549" d="M 106.5 131 Q 108 133.5 113.5 132 L 121 137.5 Q 117.1 141.6 107.5 140 Q 102.8 138.4 104 132 L 106.5 131 Z " /><path fill="rgb(97,79,66)" stroke="rgb(97,79,66)" stroke-width="1" opacity="0.996078431372549" d="M 153.5 134 Q 158.3 133.3 159 136.5 L 156.5 135 L 152.5 136 L 153.5 134 Z " /><path fill="rgb(97,79,66)" stroke="rgb(97,79,66)" stroke-width="1" opacity="0.996078431372549" d="M 150.5 137 L 147.5 141 L 144 140.5 Q 149.1 140.6 150.5 137 Z " /><path fill="rgb(97,79,66)" stroke="rgb(97,79,66)" stroke-width="1" opacity="0.996078431372549" d="M 129.5 140 L 132 140.5 L 129.5 141 L 129.5 140 Z " /><path fill="rgb(97,79,66)" stroke="rgb(97,79,66)" stroke-width="1" opacity="0.996078431372549" d="M 160.5 140 L 161 142.5 L 160 142.5 L 160.5 140 Z " /><path fill="rgb(97,79,66)" stroke="rgb(97,79,66)" stroke-width="1" opacity="0.996078431372549" d="M 107.5 144 L 111 145.5 L 109.5 149 L 97.5 152 L 85.5 152 L 76.5 150 L 74 147.5 L 75.5 145 L 84.5 147 L 98.5 147 L 107.5 144 Z " /><path fill="rgb(97,79,66)" stroke="rgb(97,79,66)" stroke-width="1" opacity="0.996078431372549" d="M 47.5 149 L 48.5 151 L 47.5 149 Z " /><path fill="rgb(97,79,66)" stroke="rgb(97,79,66)" stroke-width="1" opacity="0.996078431372549" d="M 147.5 149 L 154 149.5 L 147.5 150 L 147.5 149 Z " /><path fill="rgb(97,79,66)" stroke="rgb(97,79,66)" stroke-width="1" opacity="0.996078431372549" d="M 111.5 158 L 117 158.5 L 111.5 159 L 111.5 158 Z " /><path fill="rgb(97,79,66)" stroke="rgb(97,79,66)" stroke-width="1" opacity="0.996078431372549" d="M 81.5 159 L 86 159.5 L 81.5 160 L 81.5 159 Z " /><path fill="rgb(97,79,66)" stroke="rgb(97,79,66)" stroke-width="1" opacity="0.996078431372549" d="M 102.5 159 L 105 159.5 L 102.5 160 L 102.5 159 Z " /><path fill="rgb(97,79,66)" stroke="rgb(97,79,66)" stroke-width="1" opacity="0.996078431372549" d="M 124.5 162 L 127 162.5 L 124.5 163 L 124.5 162 Z " /><path fill="rgb(97,79,66)" stroke="rgb(97,79,66)" stroke-width="1" opacity="0.996078431372549" d="M 119.5 163 L 123 163.5 L 119.5 164 L 119.5 163 Z " /><path fill="rgb(97,79,66)" stroke="rgb(97,79,66)" stroke-width="1" opacity="0.996078431372549" d="M 77.5 164 L 80 164.5 L 77.5 165 L 77.5 164 Z " /><path fill="rgb(97,79,66)" stroke="rgb(97,79,66)" stroke-width="1" opacity="0.996078431372549" d="M 111.5 164 L 115 164.5 L 111 165 L 103.5 175 L 101 176.5 L 100.5 178 L 100 176.5 L 111.5 164 Z " /><path fill="rgb(97,79,66)" stroke="rgb(97,79,66)" stroke-width="1" opacity="0.996078431372549" d="M 85.5 165 L 89 174 L 87 173.5 L 88 171.5 L 85 166.5 L 85.5 165 Z " /><path fill="rgb(97,79,66)" stroke="rgb(97,79,66)" stroke-width="1" opacity="0.996078431372549" d="M 92 165 L 103 165.5 L 96.5 173 L 94 171.5 L 92 165 Z " /><path fill="rgb(97,79,66)" stroke="rgb(97,79,66)" stroke-width="1" opacity="0.996078431372549" d="M 28.5 178 L 26.5 181 L 28.5 178 Z " /><path fill="rgb(97,79,66)" stroke="rgb(97,79,66)" stroke-width="1" opacity="0.996078431372549" d="M 105.5 180 L 109.5 185 L 105.5 180 Z " /><path fill="rgb(97,79,66)" stroke="rgb(97,79,66)" stroke-width="1" opacity="0.996078431372549" d="M 25.5 182 L 24.5 184 L 25.5 182 Z " /><path fill="rgb(97,79,66)" stroke="rgb(97,79,66)" stroke-width="1" opacity="0.996078431372549" d="M 100.5 184 L 102.5 187 L 100.5 184 Z " /><path fill="rgb(97,79,66)" stroke="rgb(97,79,66)" stroke-width="1" opacity="0.996078431372549" d="M 112.5 187 L 114.5 190 L 112.5 187 Z " /><path fill="rgb(97,79,66)" stroke="rgb(97,79,66)" stroke-width="1" opacity="0.996078431372549" d="M 60.5 189 L 77.5 194 L 85 199.5 L 36.5 200 L 39 196.5 L 37 192.5 L 39.5 192 L 41.5 193 L 43.5 193 L 45.5 194 L 60.5 189 Z " /><path fill="rgb(97,79,66)" stroke="rgb(97,79,66)" stroke-width="1" opacity="0.996078431372549" d="M 21.5 190 L 25 194.5 L 21 191.5 L 21.5 190 Z " /><path fill="rgb(97,79,66)" stroke="rgb(97,79,66)" stroke-width="1" opacity="0.996078431372549" d="M 108.5 192 L 114.5 199 L 108.5 192 Z " /><path fill="rgb(97,79,66)" stroke="rgb(97,79,66)" stroke-width="1" opacity="0.996078431372549" d="M 27.5 196 L 28.5 198 L 27.5 196 Z " /><path fill="rgb(97,79,66)" stroke="rgb(97,79,66)" stroke-width="1" opacity="0.996078431372549" d="M 30.5 198 L 31.5 200 L 30.5 198 Z " /><path fill="rgb(90,172,156)" stroke="rgb(90,172,156)" stroke-width="1" opacity="1" d="M 135.5 46 L 139 46.5 L 135.5 47 L 135.5 46 Z " /><path fill="rgb(90,172,156)" stroke="rgb(90,172,156)" stroke-width="1" opacity="1" d="M 155.5 50 L 156.5 52 L 155.5 50 Z " /><path fill="rgb(90,172,156)" stroke="rgb(90,172,156)" stroke-width="1" opacity="1" d="M 134.5 54 L 136.5 54 L 141 58.5 Q 140.3 60.8 142.5 60 L 144.5 61 L 146 60.5 Q 145.1 63.5 149.5 62 L 154.5 58 L 163 57 L 167 63.5 L 167 69.5 L 165.5 69 L 160.5 68 L 155 72.5 L 154 78.5 L 159 84.5 L 159 87 L 151.5 90 L 146 84.5 Q 145.3 76.3 139.5 73 L 131 69.5 Q 131.9 62.9 136.5 60 Q 138.8 60.8 138 58.5 Q 140.8 56.7 136.5 55 Q 133.5 55.5 134.5 54 Z " /><path fill="rgb(90,172,156)" stroke="rgb(90,172,156)" stroke-width="1" opacity="1" d="M 148.5 54 L 146 57.5 L 145.5 59 L 145 57.5 L 148.5 54 Z " /><path fill="rgb(90,172,156)" stroke="rgb(90,172,156)" stroke-width="1" opacity="1" d="M 130.5 56 L 127 60.5 L 125 68 L 118 67 L 119.5 63 L 130.5 56 Z " /><path fill="rgb(90,172,156)" stroke="rgb(90,172,156)" stroke-width="1" opacity="1" d="M 82.5 76 L 83.5 78 L 82.5 76 Z " /><path fill="rgb(90,172,156)" stroke="rgb(90,172,156)" stroke-width="1" opacity="1" d="M 136.5 79 L 140 86.5 L 142 105.5 L 148.5 115 L 153.5 116 L 156 112.5 L 155 110 L 150 107.5 L 147 99.5 L 147 95 L 156 102.5 L 166 117.5 L 168 127.5 L 164.5 135 Q 162 129.5 155.5 128 L 150.5 129 L 144.5 135 L 136.5 136 L 123.5 133 L 119 130 L 116 121 Q 123.1 121.9 127 118.5 Q 127.8 114.8 125.5 114 L 114 115 Q 114.5 103.9 107.5 99 L 103.5 97 L 96.5 96 L 89 100.5 L 86.5 104 L 84.5 100 L 75.5 96 L 69 99.5 L 65 114.5 L 63.5 116 L 56.5 115 L 55 118.5 L 59 121.5 L 53.5 125 L 36 126 L 36.5 123 L 40.5 124 L 49 118.5 Q 52.1 114.1 51 105.5 Q 48.4 102.6 49 96.5 L 56.5 86 L 56 87.5 L 57.5 91 L 60.5 91 L 64.5 88 L 75.5 88 L 77 86.5 L 75 83.5 L 77.5 85 L 82 88.5 Q 81.1 91.9 86.5 90 L 90 87.5 Q 85 89 86 95 L 89.5 96 L 97.5 89 Q 101.1 86.1 108.5 87 L 110 85.5 L 108 81.5 L 113.5 81 L 125.5 88 L 128.5 88 L 136.5 79 Z M 120 90 Q 117 91 118 95 L 122 97 L 126 104 L 130 118 Q 134 126 147 126 L 148 123 Q 145 119 140 119 L 134 112 Q 133 102 129 97 Q 127 91 120 90 Z M 156 119 Q 153 120 154 124 L 160 125 L 162 122 Q 161 118 156 119 Z " /><path fill="rgb(90,172,156)" stroke="rgb(90,172,156)" stroke-width="1" opacity="1" d="M 101.5 81 L 104 81.5 L 101.5 82 L 101.5 81 Z " /><path fill="rgb(90,172,156)" stroke="rgb(90,172,156)" stroke-width="1" opacity="1" d="M 63.5 82 L 66 82.5 L 63.5 83 L 63.5 82 Z " /><path fill="rgb(90,172,156)" stroke="rgb(90,172,156)" stroke-width="1" opacity="1" d="M 59.5 84 L 58.5 86 L 59.5 84 Z " /><path fill="rgb(90,172,156)" stroke="rgb(90,172,156)" stroke-width="1" opacity="1" d="M 92.5 85 L 91.5 87 L 92.5 85 Z " /><path fill="rgb(90,172,156)" stroke="rgb(90,172,156)" stroke-width="1" opacity="1" d="M 40.5 100 L 41.5 102 L 40.5 100 Z " /><path fill="rgb(90,172,156)" stroke="rgb(90,172,156)" stroke-width="1" opacity="1" d="M 76 103 L 81 106.5 L 80 108.5 L 84.5 110 Q 86.5 106 88.5 110 L 92 109 L 94 104 L 96.5 103 L 96 104.5 L 95 107.5 L 96 110 Q 102 111 103.5 106 L 107 111.5 L 107 117 L 96.5 118 L 95.5 117 Q 85.6 117.9 80 116 L 81 118.5 L 78.5 117 L 71 116 L 72 110 L 75.5 111 L 78 110 L 78 106.5 L 76 103 Z " /><path fill="rgb(90,172,156)" stroke="rgb(90,172,156)" stroke-width="1" opacity="1" d="M 67.5 122 L 72 123.5 L 68 124 Q 68.8 129 65.5 131 L 61.5 129 L 58.5 133 L 56.5 132 L 54 133 Q 52.9 130.3 55.5 131 Q 63.3 128.3 67.5 122 Z " /><path fill="rgb(90,172,156)" stroke="rgb(90,172,156)" stroke-width="1" opacity="1" d="M 98.5 122 L 99.5 124 L 98.5 122 Z " /><path fill="rgb(90,172,156)" stroke="rgb(90,172,156)" stroke-width="1" opacity="1" d="M 109.5 123 Q 109.6 128.4 113 130.5 L 110.5 132 Q 112.1 130.3 109 128.5 L 108 124.5 L 109.5 123 Z " /><path fill="rgb(90,172,156)" stroke="rgb(90,172,156)" stroke-width="1" opacity="1" d="M 153.5 135 Q 158.3 134.3 159 137.5 L 160 144.5 Q 156.8 150.4 147 149 L 146 145 L 128.5 144 L 121 140.5 L 123.5 139 L 128.5 141 L 142.5 141 L 143.5 142 L 150 139.5 L 153.5 135 Z M 155 139 L 152 142 L 154 145 L 156 144 Q 158 145 157 141 L 155 139 Z " /><path fill="rgb(90,172,156)" stroke="rgb(90,172,156)" stroke-width="1" opacity="1" d="M 104.5 137 L 105.5 139 L 104.5 137 Z " /><path fill="rgb(90,172,156)" stroke="rgb(90,172,156)" stroke-width="1" opacity="1" d="M 68.5 139 L 71 139.5 L 68.5 140 L 68.5 139 Z " /><path fill="rgb(90,172,156)" stroke="rgb(90,172,156)" stroke-width="1" opacity="1" d="M 112.5 140 L 115 140.5 L 112.5 141 L 112.5 140 Z " /><path fill="rgb(90,172,156)" stroke="rgb(90,172,156)" stroke-width="1" opacity="1" d="M 110.5 144 L 111.5 146 L 110.5 144 Z " /><path fill="rgb(90,172,156)" stroke="rgb(90,172,156)" stroke-width="1" opacity="1" d="M 93.5 146 L 96 146.5 L 93.5 147 L 93.5 146 Z " /><path fill="rgb(90,172,156)" stroke="rgb(90,172,156)" stroke-width="1" opacity="1" d="M 47.5 148 L 49.5 151 L 47.5 148 Z " /><path fill="rgb(90,172,156)" stroke="rgb(90,172,156)" stroke-width="1" opacity="1" d="M 126.5 163 Q 128.8 162.3 128 164.5 L 135 176.5 L 133.5 177 L 120 172 L 120 169.5 L 126.5 163 Z " /><path fill="rgb(90,172,156)" stroke="rgb(90,172,156)" stroke-width="1" opacity="1" d="M 74.5 167 Q 78.3 166.3 79 168.5 L 78.5 171 L 73 168.5 L 74.5 167 Z " /><path fill="rgb(90,172,156)" stroke="rgb(90,172,156)" stroke-width="1" opacity="1" d="M 52.5 172 Q 59.7 169.7 57 177.5 L 59 181.5 L 57.5 181 L 54 182 L 52.5 172 Z " /><path fill="rgb(90,172,156)" stroke="rgb(90,172,156)" stroke-width="1" opacity="1" d="M 113.5 179 L 122.5 182 L 134.5 183 L 140 186.5 L 144 200 L 123.5 200 L 123 198.5 L 110 184.5 L 110 182.5 L 113.5 179 Z " /><path fill="rgb(90,172,156)" stroke="rgb(90,172,156)" stroke-width="1" opacity="1" d="M 95.5 182 L 99 184.5 L 91 191.5 L 86.5 197 L 90 192.5 L 87.5 190 L 83.5 193 L 86.5 189 L 95.5 182 Z " /><path fill="rgb(90,172,156)" stroke="rgb(90,172,156)" stroke-width="1" opacity="1" d="M 54.5 183 L 55 185.5 L 54 185.5 L 54.5 183 Z " /><path fill="rgb(90,172,156)" stroke="rgb(90,172,156)" stroke-width="1" opacity="1" d="M 59.5 183 L 60 185.5 L 59 185.5 L 59.5 183 Z " /><path fill="rgb(90,172,156)" stroke="rgb(90,172,156)" stroke-width="1" opacity="1" d="M 37.5 186 L 38.5 188 L 37.5 186 Z " /><path fill="rgb(90,172,156)" stroke="rgb(90,172,156)" stroke-width="1" opacity="1" d="M 55.5 187 L 56 189.5 L 55 189.5 L 55.5 187 Z " /><path fill="rgb(90,172,156)" stroke="rgb(90,172,156)" stroke-width="1" opacity="1" d="M 60.5 187 L 62 189.5 L 60 188.5 L 60.5 187 Z " /><path fill="rgb(90,172,156)" stroke="rgb(90,172,156)" stroke-width="1" opacity="1" d="M 40.5 189 L 42.5 192 L 40.5 189 Z " /><path fill="rgb(90,172,156)" stroke="rgb(90,172,156)" stroke-width="1" opacity="1" d="M 82.5 194 L 81.5 196 L 82.5 194 Z " /><path fill="rgb(90,172,156)" stroke="rgb(90,172,156)" stroke-width="1" opacity="1" d="M 85.5 198 L 86.5 200 L 85.5 198 Z " /><path fill="rgb(72,128,121)" stroke="rgb(72,128,121)" stroke-width="1" opacity="0.996078431372549" d="M 157.5 51 L 157.5 53 L 161 55.5 Q 161.8 57.8 159.5 57 L 154.5 58 L 149.5 62 L 146 62 L 145 59.5 L 149.5 54 L 157.5 51 Z " /><path fill="rgb(72,128,121)" stroke="rgb(72,128,121)" stroke-width="1" opacity="0.996078431372549" d="M 133.5 55 Q 138.3 54.3 139 57.5 L 138 60 L 133 63.5 L 131 69.5 L 131.5 71 L 122 68.5 L 125 68 L 127 60.5 L 131.5 56 L 133.5 55 Z " /><path fill="rgb(72,128,121)" stroke="rgb(72,128,121)" stroke-width="1" opacity="0.996078431372549" d="M 163.5 58 L 165.5 61 L 163.5 58 Z " /><path fill="rgb(72,128,121)" stroke="rgb(72,128,121)" stroke-width="1" opacity="0.996078431372549" d="M 117.5 63 L 118 67 L 121 67.5 L 117 68 L 117.5 63 Z " /><path fill="rgb(72,128,121)" stroke="rgb(72,128,121)" stroke-width="1" opacity="0.996078431372549" d="M 167.5 65 L 168 69.5 L 167 69.5 L 167.5 65 Z " /><path fill="rgb(72,128,121)" stroke="rgb(72,128,121)" stroke-width="1" opacity="0.996078431372549" d="M 160.5 68 L 163 68.5 L 160.5 69 L 160.5 68 Z " /><path fill="rgb(72,128,121)" stroke="rgb(72,128,121)" stroke-width="1" opacity="0.996078431372549" d="M 158.5 69 L 155.5 73 L 158.5 69 Z " /><path fill="rgb(72,128,121)" stroke="rgb(72,128,121)" stroke-width="1" opacity="0.996078431372549" d="M 134.5 71 Q 141 72.5 144 77.5 L 139.5 74 L 134.5 72 L 134.5 71 Z " /><path fill="rgb(72,128,121)" stroke="rgb(72,128,121)" stroke-width="1" opacity="0.996078431372549" d="M 66.5 72 L 70 72.5 L 66.5 73 L 66.5 72 Z " /><path fill="rgb(72,128,121)" stroke="rgb(72,128,121)" stroke-width="1" opacity="0.996078431372549" d="M 113.5 73 L 117 73.5 L 113.5 74 L 113.5 73 Z " /><path fill="rgb(72,128,121)" stroke="rgb(72,128,121)" stroke-width="1" opacity="0.996078431372549" d="M 154.5 74 L 155 78.5 L 154 78.5 L 154.5 74 Z " /><path fill="rgb(72,128,121)" stroke="rgb(72,128,121)" stroke-width="1" opacity="0.996078431372549" d="M 85.5 78 L 88.5 82 L 85.5 78 Z " /><path fill="rgb(72,128,121)" stroke="rgb(72,128,121)" stroke-width="1" opacity="0.996078431372549" d="M 137.5 80 L 139 82.5 L 138 82.5 L 137.5 80 Z " /><path fill="rgb(72,128,121)" stroke="rgb(72,128,121)" stroke-width="1" opacity="0.996078431372549" d="M 104.5 81 Q 109.3 80.3 110 83.5 L 108.5 87 L 99.5 88 L 88.5 96 L 86 95 Q 85 88.6 90.5 87 L 104.5 81 Z " /><path fill="rgb(72,128,121)" stroke="rgb(72,128,121)" stroke-width="1" opacity="0.996078431372549" d="M 45.5 82 L 43.5 85 L 45.5 82 Z " /><path fill="rgb(72,128,121)" stroke="rgb(72,128,121)" stroke-width="1" opacity="0.996078431372549" d="M 66.5 82 Q 74.5 81 77 85.5 L 75.5 88 L 64.5 88 L 60.5 91 L 57.5 91 L 56 87.5 Q 59.8 83.3 66.5 82 Z " /><path fill="rgb(72,128,121)" stroke="rgb(72,128,121)" stroke-width="1" opacity="0.996078431372549" d="M 183.5 82 L 184 84.5 L 182.5 88 L 179 87.5 L 183.5 82 Z " /><path fill="rgb(72,128,121)" stroke="rgb(72,128,121)" stroke-width="1" opacity="0.996078431372549" d="M 146.5 85 L 147.5 87 L 146.5 85 Z " /><path fill="rgb(72,128,121)" stroke="rgb(72,128,121)" stroke-width="1" opacity="0.996078431372549" d="M 41.5 87 L 40.5 89 L 41.5 87 Z " /><path fill="rgb(72,128,121)" stroke="rgb(72,128,121)" stroke-width="1" opacity="0.996078431372549" d="M 140.5 87 L 148 94.5 L 147 95.5 L 147 99.5 L 151.5 109 L 155 110 L 156 113.5 Q 155.3 116.8 150.5 116 L 145 111.5 L 141 101.5 L 140.5 87 Z " /><path fill="rgb(72,128,121)" stroke="rgb(72,128,121)" stroke-width="1" opacity="0.996078431372549" d="M 157.5 87 L 156.5 89 L 157.5 87 Z " /><path fill="rgb(72,128,121)" stroke="rgb(72,128,121)" stroke-width="1" opacity="0.996078431372549" d="M 119.5 90 Q 126.7 90.8 129 96.5 Q 133 102.5 134 111.5 L 139.5 119 Q 145.3 119.3 148 122.5 L 146.5 126 Q 134.1 125.9 130 117.5 L 126 103.5 L 121.5 97 L 118 94.5 Q 117.3 90.8 119.5 90 Z " /><path fill="rgb(72,128,121)" stroke="rgb(72,128,121)" stroke-width="1" opacity="0.996078431372549" d="M 149.5 95 L 155.5 102 L 149.5 95 Z " /><path fill="rgb(72,128,121)" stroke="rgb(72,128,121)" stroke-width="1" opacity="0.996078431372549" d="M 93.5 97 L 95 97.5 L 92.5 99 L 93.5 97 Z " /><path fill="rgb(72,128,121)" stroke="rgb(72,128,121)" stroke-width="1" opacity="0.996078431372549" d="M 100.5 97 L 104 97.5 L 100.5 98 L 100.5 97 Z " /><path fill="rgb(72,128,121)" stroke="rgb(72,128,121)" stroke-width="1" opacity="0.996078431372549" d="M 70.5 98 L 69.5 100 L 70.5 98 Z " /><path fill="rgb(72,128,121)" stroke="rgb(72,128,121)" stroke-width="1" opacity="0.996078431372549" d="M 90.5 99 L 89.5 101 L 90.5 99 Z " /><path fill="rgb(72,128,121)" stroke="rgb(72,128,121)" stroke-width="1" opacity="0.996078431372549" d="M 107.5 99 L 110.5 103 L 107.5 99 Z " /><path fill="rgb(72,128,121)" stroke="rgb(72,128,121)" stroke-width="1" opacity="0.996078431372549" d="M 84.5 100 L 85.5 102 L 84.5 100 Z " /><path fill="rgb(72,128,121)" stroke="rgb(72,128,121)" stroke-width="1" opacity="0.996078431372549" d="M 75.5 102 L 78 106.5 L 78 110 L 75.5 111 L 72 110 L 75.5 102 Z " /><path fill="rgb(72,128,121)" stroke="rgb(72,128,121)" stroke-width="1" opacity="0.996078431372549" d="M 88.5 102 L 88 103.5 Q 88.8 105.8 86.5 105 L 88.5 102 Z " /><path fill="rgb(72,128,121)" stroke="rgb(72,128,121)" stroke-width="1" opacity="0.996078431372549" d="M 78.5 103 L 80.5 106 L 78.5 103 Z " /><path fill="rgb(72,128,121)" stroke="rgb(72,128,121)" stroke-width="1" opacity="0.996078431372549" d="M 95.5 103 L 97.5 103 L 105 106.5 L 107 110.5 L 104 108.5 L 103.5 106 Q 102 111 96 110 L 95 107.5 L 96 104.5 L 95.5 103 Z " /><path fill="rgb(72,128,121)" stroke="rgb(72,128,121)" stroke-width="1" opacity="0.996078431372549" d="M 156.5 103 L 159.5 107 L 156.5 103 Z " /><path fill="rgb(72,128,121)" stroke="rgb(72,128,121)" stroke-width="1" opacity="0.996078431372549" d="M 42.5 105 L 43 107.5 L 42 107.5 L 42.5 105 Z " /><path fill="rgb(72,128,121)" stroke="rgb(72,128,121)" stroke-width="1" opacity="0.996078431372549" d="M 93.5 105 L 92.5 107 L 93.5 105 Z " /><path fill="rgb(72,128,121)" stroke="rgb(72,128,121)" stroke-width="1" opacity="0.996078431372549" d="M 81.5 107 L 82 109 L 80 108.5 L 81.5 107 Z " /><path fill="rgb(72,128,121)" stroke="rgb(72,128,121)" stroke-width="1" opacity="0.996078431372549" d="M 86.5 107 L 90 109.5 L 88.5 110 L 86.5 107 Z " /><path fill="rgb(72,128,121)" stroke="rgb(72,128,121)" stroke-width="1" opacity="0.996078431372549" d="M 160.5 108 L 165 114.5 L 163 113.5 L 160.5 108 Z " /><path fill="rgb(72,128,121)" stroke="rgb(72,128,121)" stroke-width="1" opacity="0.996078431372549" d="M 113.5 109 L 114 115 L 125.5 114 Q 127.8 114.8 127 118.5 L 125.5 120 L 115.5 122 Q 111.7 117.2 113.5 109 Z " /><path fill="rgb(72,128,121)" stroke="rgb(72,128,121)" stroke-width="1" opacity="0.996078431372549" d="M 56.5 115 L 63 116.5 L 59.5 121 Q 55.5 121.5 55 118.5 L 56.5 115 Z " /><path fill="rgb(72,128,121)" stroke="rgb(72,128,121)" stroke-width="1" opacity="0.996078431372549" d="M 71.5 116 L 74 116.5 L 71.5 117 L 71.5 116 Z " /><path fill="rgb(72,128,121)" stroke="rgb(72,128,121)" stroke-width="1" opacity="0.996078431372549" d="M 102.5 117 L 105 117.5 L 102.5 118 L 102.5 117 Z " /><path fill="rgb(72,128,121)" stroke="rgb(72,128,121)" stroke-width="1" opacity="0.996078431372549" d="M 155.5 119 Q 160.6 118.4 162 121.5 L 159.5 125 L 154 124 Q 153 120.2 155.5 119 Z " /><path fill="rgb(72,128,121)" stroke="rgb(72,128,121)" stroke-width="1" opacity="0.996078431372549" d="M 57.5 122 L 56.5 124 L 57.5 122 Z " /><path fill="rgb(72,128,121)" stroke="rgb(72,128,121)" stroke-width="1" opacity="0.996078431372549" d="M 68.5 122 L 72 122.5 L 68.5 123 L 68.5 122 Z " /><path fill="rgb(72,128,121)" stroke="rgb(72,128,121)" stroke-width="1" opacity="0.996078431372549" d="M 49.5 125 L 52 125.5 L 49.5 126 L 49.5 125 Z " /><path fill="rgb(72,128,121)" stroke="rgb(72,128,121)" stroke-width="1" opacity="0.996078431372549" d="M 38.5 126 L 48 126.5 L 38.5 127 L 38.5 126 Z " /><path fill="rgb(72,128,121)" stroke="rgb(72,128,121)" stroke-width="1" opacity="0.996078431372549" d="M 62.5 126 L 61.5 128 L 62.5 126 Z " /><path fill="rgb(72,128,121)" stroke="rgb(72,128,121)" stroke-width="1" opacity="0.996078431372549" d="M 61.5 129 L 60 131.5 L 59.5 134 L 59 131.5 L 61.5 129 Z " /><path fill="rgb(72,128,121)" stroke="rgb(72,128,121)" stroke-width="1" opacity="0.996078431372549" d="M 120.5 130 L 121.5 132 L 120.5 130 Z " /><path fill="rgb(72,128,121)" stroke="rgb(72,128,121)" stroke-width="1" opacity="0.996078431372549" d="M 76.5 131 L 77.5 133 L 76.5 131 Z " /><path fill="rgb(72,128,121)" stroke="rgb(72,128,121)" stroke-width="1" opacity="0.996078431372549" d="M 166.5 132 L 165.5 134 L 166.5 132 Z " /><path fill="rgb(72,128,121)" stroke="rgb(72,128,121)" stroke-width="1" opacity="0.996078431372549" d="M 77.5 135 L 75.5 138 L 77.5 135 Z " /><path fill="rgb(72,128,121)" stroke="rgb(72,128,121)" stroke-width="1" opacity="0.996078431372549" d="M 133.5 135 L 136 135.5 L 133.5 136 L 133.5 135 Z " /><path fill="rgb(72,128,121)" stroke="rgb(72,128,121)" stroke-width="1" opacity="0.996078431372549" d="M 139.5 135 L 142 135.5 L 139.5 136 L 139.5 135 Z " /><path fill="rgb(72,128,121)" stroke="rgb(72,128,121)" stroke-width="1" opacity="0.996078431372549" d="M 149.5 139 L 148.5 141 L 149.5 139 Z " /><path fill="rgb(72,128,121)" stroke="rgb(72,128,121)" stroke-width="1" opacity="0.996078431372549" d="M 154.5 139 L 157 140.5 Q 158.5 144.9 155.5 144 L 153.5 145 L 152 141.5 L 154.5 139 Z " /><path fill="rgb(72,128,121)" stroke="rgb(72,128,121)" stroke-width="1" opacity="0.996078431372549" d="M 75.5 144 L 77 144.5 L 74.5 146 L 75.5 144 Z " /><path fill="rgb(72,128,121)" stroke="rgb(72,128,121)" stroke-width="1" opacity="0.996078431372549" d="M 159.5 145 L 158.5 147 L 159.5 145 Z " /><path fill="rgb(72,128,121)" stroke="rgb(72,128,121)" stroke-width="1" opacity="0.996078431372549" d="M 84.5 146 L 88 146.5 L 84.5 147 L 84.5 146 Z " /><path fill="rgb(72,128,121)" stroke="rgb(72,128,121)" stroke-width="1" opacity="0.996078431372549" d="M 96.5 146 L 99 146.5 L 96.5 147 L 96.5 146 Z " /><path fill="rgb(72,128,121)" stroke="rgb(72,128,121)" stroke-width="1" opacity="0.996078431372549" d="M 74.5 148 L 75.5 150 L 74.5 148 Z " /><path fill="rgb(72,128,121)" stroke="rgb(72,128,121)" stroke-width="1" opacity="0.996078431372549" d="M 82.5 151 L 85 151.5 L 82.5 152 L 82.5 151 Z " /><path fill="rgb(72,128,121)" stroke="rgb(72,128,121)" stroke-width="1" opacity="0.996078431372549" d="M 86.5 159 L 89 159.5 L 86.5 160 L 86.5 159 Z " /><path fill="rgb(72,128,121)" stroke="rgb(72,128,121)" stroke-width="1" opacity="0.996078431372549" d="M 127.5 162 L 131 167.5 L 129 166.5 L 127.5 162 Z " /><path fill="rgb(72,128,121)" stroke="rgb(72,128,121)" stroke-width="1" opacity="0.996078431372549" d="M 123.5 163 L 126 163.5 L 120 169.5 L 120 172 L 134.5 177 L 134 175.5 L 131 169.5 L 133 170.5 L 140 185.5 L 137.5 184 L 122.5 182 L 103 175.5 L 111 165 L 123.5 163 Z " /><path fill="rgb(72,128,121)" stroke="rgb(72,128,121)" stroke-width="1" opacity="0.996078431372549" d="M 76.5 165 L 84.5 165 L 85 166.5 L 85.5 168 L 75 166.5 L 76.5 165 Z " /><path fill="rgb(72,128,121)" stroke="rgb(72,128,121)" stroke-width="1" opacity="0.996078431372549" d="M 51.5 171 L 55 171.5 L 51.5 172 L 51.5 171 Z " /><path fill="rgb(72,128,121)" stroke="rgb(72,128,121)" stroke-width="1" opacity="0.996078431372549" d="M 56.5 181 L 59 182.5 L 60 190 L 55.5 191 L 56 189.5 L 54 182.5 L 56.5 181 Z " /><path fill="rgb(72,128,121)" stroke="rgb(72,128,121)" stroke-width="1" opacity="0.996078431372549" d="M 35.5 186 L 42 191.5 Q 42.8 193.8 40.5 193 L 37.5 192 L 39 194.5 Q 39.5 199.5 35.5 200 L 38 196.5 L 33 190.5 L 33 188.5 L 35.5 186 Z " /><path fill="rgb(72,128,121)" stroke="rgb(72,128,121)" stroke-width="1" opacity="0.996078431372549" d="M 103.5 187 L 107.5 192 L 103.5 187 Z " /><path fill="rgb(72,128,121)" stroke="rgb(72,128,121)" stroke-width="1" opacity="0.996078431372549" d="M 86.5 190 L 90 192.5 L 85 198.5 L 85.5 200 L 80 195.5 L 83 194.5 L 86.5 190 Z " /><path fill="rgb(72,128,121)" stroke="rgb(72,128,121)" stroke-width="1" opacity="0.996078431372549" d="M 115.5 190 L 118.5 194 L 115.5 190 Z " /><path fill="rgb(72,128,121)" stroke="rgb(72,128,121)" stroke-width="1" opacity="0.996078431372549" d="M 31.5 198 L 32.5 200 L 31.5 198 Z " /><path fill="rgb(0,0,0)" stroke="rgb(0,0,0)" stroke-width="1" opacity="0.996078431372549" d="M 95.5 41 L 96 44 Q 93.3 45.1 94 42.5 L 95.5 41 Z " /><path fill="rgb(0,0,0)" stroke="rgb(0,0,0)" stroke-width="1" opacity="0.996078431372549" d="M 98.5 41 L 101 42.5 L 99.5 43 L 98.5 41 Z " /><path fill="rgb(0,0,0)" stroke="rgb(0,0,0)" stroke-width="1" opacity="0.996078431372549" d="M 133.5 41 L 139 41.5 L 133.5 42 L 133.5 41 Z " /><path fill="rgb(0,0,0)" stroke="rgb(0,0,0)" stroke-width="1" opacity="0.996078431372549" d="M 141.5 41 L 147 41.5 L 141.5 42 L 141.5 41 Z " /><path fill="rgb(0,0,0)" stroke="rgb(0,0,0)" stroke-width="1" opacity="0.996078431372549" d="M 129.5 42 Q 133.3 41 132 44 L 127 43.5 L 129.5 42 Z " /><path fill="rgb(0,0,0)" stroke="rgb(0,0,0)" stroke-width="1" opacity="0.996078431372549" d="M 148.5 42 L 151 42.5 L 148.5 43 L 148.5 42 Z " /><path fill="rgb(0,0,0)" stroke="rgb(0,0,0)" stroke-width="1" opacity="0.996078431372549" d="M 106.5 44 L 109 45.5 L 107.5 46 L 106.5 44 Z " /><path fill="rgb(0,0,0)" stroke="rgb(0,0,0)" stroke-width="1" opacity="0.996078431372549" d="M 155.5 44 Q 164.3 47.7 169 55.5 L 164.5 52 L 160 52 L 160 47 L 158.5 47 L 155.5 44 Z " /><path fill="rgb(0,0,0)" stroke="rgb(0,0,0)" stroke-width="1" opacity="0.996078431372549" d="M 114.5 47 L 117 48.5 L 114 49 L 114.5 47 Z " /><path fill="rgb(0,0,0)" stroke="rgb(0,0,0)" stroke-width="1" opacity="0.996078431372549" d="M 104.5 51 L 105.5 53 L 104.5 51 Z " /><path fill="rgb(0,0,0)" stroke="rgb(0,0,0)" stroke-width="1" opacity="0.996078431372549" d="M 112.5 56 Q 114.8 56.8 114 60.5 L 112.5 63 L 112 61.5 L 113 57.5 L 112.5 56 Z " /><path fill="rgb(0,0,0)" stroke="rgb(0,0,0)" stroke-width="1" opacity="0.996078431372549" d="M 172.5 64 L 173 71.5 L 172 71.5 L 172.5 64 Z " /><path fill="rgb(0,0,0)" stroke="rgb(0,0,0)" stroke-width="1" opacity="0.996078431372549" d="M 112.5 65 L 113 67.5 L 111 68.5 L 112.5 65 Z " /><path fill="rgb(0,0,0)" stroke="rgb(0,0,0)" stroke-width="1" opacity="0.996078431372549" d="M 64.5 67 L 71.5 67 L 77 68.5 L 72.5 69 Q 70.8 66.3 64.5 68 L 60 69 Q 61.6 73.9 56 72 Q 54.3 67.5 59.5 69 L 64.5 67 Z " /><path fill="rgb(0,0,0)" stroke="rgb(0,0,0)" stroke-width="1" opacity="0.996078431372549" d="M 106.5 69 L 109 69.5 L 106.5 70 L 106.5 69 Z " /><path fill="rgb(0,0,0)" stroke="rgb(0,0,0)" stroke-width="1" opacity="0.996078431372549" d="M 84.5 71 L 85.5 73 L 84.5 71 Z " /><path fill="rgb(0,0,0)" stroke="rgb(0,0,0)" stroke-width="1" opacity="0.996078431372549" d="M 99.5 71 L 101 71.5 L 96 73 Q 97.8 77.9 91.5 76 L 91.5 75 L 99.5 71 Z " /><path fill="rgb(0,0,0)" stroke="rgb(0,0,0)" stroke-width="1" opacity="0.996078431372549" d="M 50.5 72 L 49.5 74 L 46.5 76 L 48.5 73 L 50.5 72 Z " /><path fill="rgb(0,0,0)" stroke="rgb(0,0,0)" stroke-width="1" opacity="0.996078431372549" d="M 87.5 73 L 89.5 76 L 87.5 73 Z " /><path fill="rgb(0,0,0)" stroke="rgb(0,0,0)" stroke-width="1" opacity="0.996078431372549" d="M 172.5 73 L 173.5 75 L 172.5 73 Z " /><path fill="rgb(0,0,0)" stroke="rgb(0,0,0)" stroke-width="1" opacity="0.996078431372549" d="M 44.5 76 L 44 77.5 Q 45.3 81.3 41.5 80 L 40 84 L 36.5 86 L 39 82.5 L 44.5 76 Z " /><path fill="rgb(0,0,0)" stroke="rgb(0,0,0)" stroke-width="1" opacity="0.996078431372549" d="M 179.5 76 Q 188.3 74.3 190 79.5 L 189.5 81 L 186.5 77 L 179.5 77 L 179.5 76 Z " /><path fill="rgb(0,0,0)" stroke="rgb(0,0,0)" stroke-width="1" opacity="0.996078431372549" d="M 190.5 82 L 191 84.5 L 190 84.5 L 190.5 82 Z " /><path fill="rgb(0,0,0)" stroke="rgb(0,0,0)" stroke-width="1" opacity="0.996078431372549" d="M 35.5 87 L 36 92 Q 32.5 90.9 34 98.5 L 33 98.5 Q 32.1 90.6 35.5 87 Z " /><path fill="rgb(0,0,0)" stroke="rgb(0,0,0)" stroke-width="1" opacity="0.996078431372549" d="M 166.5 87 L 172 88 L 173.5 91 L 176 92.5 L 174.5 92 L 166.5 88 L 162 91.5 L 166.5 87 Z " /><path fill="rgb(0,0,0)" stroke="rgb(0,0,0)" stroke-width="1" opacity="0.996078431372549" d="M 189.5 87 L 190 88.5 L 184.5 95 Q 179.1 95.9 177 93.5 L 178.5 93 L 180 93.5 Q 179.5 90.5 186.5 92 L 189.5 87 Z " /><path fill="rgb(0,0,0)" stroke="rgb(0,0,0)" stroke-width="1" opacity="0.996078431372549" d="M 156 92 L 160 92.5 L 157 94 L 163 101.5 L 156 95.5 L 156 92 Z " /><path fill="rgb(0,0,0)" stroke="rgb(0,0,0)" stroke-width="1" opacity="0.996078431372549" d="M 35.5 102 L 36.5 104 L 35.5 102 Z " /><path fill="rgb(0,0,0)" stroke="rgb(0,0,0)" stroke-width="1" opacity="0.996078431372549" d="M 163.5 103 L 165.5 106 L 163.5 103 Z " /><path fill="rgb(0,0,0)" stroke="rgb(0,0,0)" stroke-width="1" opacity="0.996078431372549" d="M 37.5 105 L 38 107.5 L 37 107.5 L 37.5 105 Z " /><path fill="rgb(0,0,0)" stroke="rgb(0,0,0)" stroke-width="1" opacity="0.996078431372549" d="M 36.5 109 L 35 111.5 L 36 112.5 Q 37.1 115.8 34.5 115 Q 33.3 117.3 32 114.5 L 36.5 109 Z " /><path fill="rgb(0,0,0)" stroke="rgb(0,0,0)" stroke-width="1" opacity="0.996078431372549" d="M 167.5 109 L 170 113.5 L 169 113.5 L 167.5 109 Z " /><path fill="rgb(0,0,0)" stroke="rgb(0,0,0)" stroke-width="1" opacity="0.996078431372549" d="M 170.5 115 L 173 121.5 L 172 121.5 L 170.5 115 Z " /><path fill="rgb(0,0,0)" stroke="rgb(0,0,0)" stroke-width="1" opacity="0.996078431372549" d="M 33.5 119 L 31 122.5 L 29.5 126 L 29 124.5 L 33.5 119 Z " /><path fill="rgb(0,0,0)" stroke="rgb(0,0,0)" stroke-width="1" opacity="0.996078431372549" d="M 30.5 127 L 36 128 Q 37.5 131.8 34.5 131 L 30.5 127 Z " /><path fill="rgb(0,0,0)" stroke="rgb(0,0,0)" stroke-width="1" opacity="0.996078431372549" d="M 172.5 128 L 173 130.5 L 172 130.5 L 172.5 128 Z " /><path fill="rgb(0,0,0)" stroke="rgb(0,0,0)" stroke-width="1" opacity="0.996078431372549" d="M 37.5 131 L 40 131.5 L 37.5 132 L 37.5 131 Z " /><path fill="rgb(0,0,0)" stroke="rgb(0,0,0)" stroke-width="1" opacity="0.996078431372549" d="M 171.5 132 L 172 134.5 L 171 134.5 L 171.5 132 Z " /><path fill="rgb(0,0,0)" stroke="rgb(0,0,0)" stroke-width="1" opacity="0.996078431372549" d="M 43.5 136 L 44 148 L 42 148.5 L 44 151.5 L 42 150.5 Q 39.7 147.3 41 140.5 L 43.5 136 Z " /><path fill="rgb(0,0,0)" stroke="rgb(0,0,0)" stroke-width="1" opacity="0.996078431372549" d="M 167.5 141 L 165.5 144 L 167.5 141 Z " /><path fill="rgb(0,0,0)" stroke="rgb(0,0,0)" stroke-width="1" opacity="0.996078431372549" d="M 162.5 150 L 161.5 152 L 162.5 150 Z " /><path fill="rgb(0,0,0)" stroke="rgb(0,0,0)" stroke-width="1" opacity="0.996078431372549" d="M 46.5 154 L 47.5 156 L 46.5 154 Z " /><path fill="rgb(0,0,0)" stroke="rgb(0,0,0)" stroke-width="1" opacity="0.996078431372549" d="M 145.5 155 L 147 155.5 L 141.5 158 L 142.5 156 L 145.5 155 Z " /><path fill="rgb(0,0,0)" stroke="rgb(0,0,0)" stroke-width="1" opacity="0.996078431372549" d="M 134.5 159 L 137 159.5 L 134 160 L 133.5 162 L 133 160.5 L 134.5 159 Z " /><path fill="rgb(0,0,0)" stroke="rgb(0,0,0)" stroke-width="1" opacity="0.996078431372549" d="M 59.5 160 L 63 160.5 L 59.5 161 L 59.5 160 Z " /><path fill="rgb(0,0,0)" stroke="rgb(0,0,0)" stroke-width="1" opacity="0.996078431372549" d="M 68 160 Q 74 158 72 164 L 69 165.5 L 68 169 L 64 168.5 L 68 166.5 L 70 163.5 L 68 160 Z " /><path fill="rgb(0,0,0)" stroke="rgb(0,0,0)" stroke-width="1" opacity="0.996078431372549" d="M 64.5 161 L 67 161.5 L 64.5 162 L 64.5 161 Z " /><path fill="rgb(0,0,0)" stroke="rgb(0,0,0)" stroke-width="1" opacity="0.996078431372549" d="M 56 166 L 63 167.5 L 56 168 L 56 166 Z " /><path fill="rgb(0,0,0)" stroke="rgb(0,0,0)" stroke-width="1" opacity="0.996078431372549" d="M 46.5 167 L 48 167 L 48 171 L 44 172 Q 45.5 168.3 42.5 169 L 42.5 168 L 46.5 167 Z " /><path fill="rgb(0,0,0)" stroke="rgb(0,0,0)" stroke-width="1" opacity="0.996078431372549" d="M 136.5 167 L 137.5 169 L 136.5 167 Z " /><path fill="rgb(0,0,0)" stroke="rgb(0,0,0)" stroke-width="1" opacity="0.996078431372549" d="M 39.5 169 L 41 169.5 L 40 172 Q 34.8 173.7 36 170 L 39.5 169 Z " /><path fill="rgb(0,0,0)" stroke="rgb(0,0,0)" stroke-width="1" opacity="0.996078431372549" d="M 139.5 172 L 142 176.5 L 140 175.5 L 139.5 172 Z " /><path fill="rgb(0,0,0)" stroke="rgb(0,0,0)" stroke-width="1" opacity="0.996078431372549" d="M 24.5 175 L 22.5 178 L 24.5 175 Z " /><path fill="rgb(0,0,0)" stroke="rgb(0,0,0)" stroke-width="1" opacity="0.996078431372549" d="M 21.5 179 L 20.5 181 L 21.5 179 Z " /><path fill="rgb(0,0,0)" stroke="rgb(0,0,0)" stroke-width="1" opacity="0.996078431372549" d="M 144.5 183 L 146 188 Q 141.9 189.2 144.5 183 Z " /><path fill="rgb(0,0,0)" stroke="rgb(0,0,0)" stroke-width="1" opacity="0.996078431372549" d="M 18 184 Q 21.7 182.8 20 188 L 17 189.5 L 16.5 192 L 16 189.5 L 18 184 Z " /><path fill="rgb(0,0,0)" stroke="rgb(0,0,0)" stroke-width="1" opacity="0.996078431372549" d="M 147.5 192 L 150 200 Q 146.3 201.3 148 195.5 L 147.5 192 Z " /><path fill="rgb(0,0,0)" stroke="rgb(0,0,0)" stroke-width="1" opacity="0.996078431372549" d="M 16.5 193 L 21.5 199 L 16.5 193 Z " /><path fill="rgb(0,0,0)" stroke="rgb(0,0,0)" stroke-width="1" opacity="1" d="M 96 41 L 99.5 43 L 103.5 43 L 107.5 46 L 114 47 Q 112.7 50.3 117.5 49 L 119.5 50 Q 122.2 42.6 132 44 Q 130.9 40.5 138.5 42 L 140.5 41 L 151.5 43 L 160 47 L 160 52 L 164.5 52 L 171 60.5 Q 173.2 65.3 172 73.5 L 173.5 75 Q 177.5 78.5 186.5 77 L 188 78.5 Q 191 80.5 190 86.5 L 186.5 92 Q 179.5 90.5 180 93.5 L 178.5 93 L 172 89.5 Q 172.9 86.5 168.5 88 L 166.5 87 L 161.5 92 L 156 92 L 156 95.5 Q 165.4 102.6 170 114.5 L 173 122.5 L 173 127.5 L 169 139.5 L 159.5 153 Q 154.5 156 145.5 155 L 133 160.5 L 142 177.5 L 144 182.5 L 144 188 Q 146.7 186.9 146 189.5 L 148 200 Q 143.9 201.7 145 197.5 Q 139.3 177.3 128.5 162 L 110 164 L 99 178 L 104.5 180 L 118 193.5 L 122 200 L 115.5 200 L 115 198.5 L 102.5 185 L 84.5 177 L 59.5 171 L 48.5 171 L 46.5 172 L 46.5 171 L 48 171 L 48 167 L 50.5 167 L 56 166 L 56.5 168 L 63.5 168 L 68 169 L 70.5 164 L 72 164 L 72 160 L 68 160 L 68 161.5 L 66.5 161 Q 51.5 160.5 44 152.5 L 42 148.5 L 44 148 Q 42.7 137.6 45 132 L 36 131 Q 37.8 126.1 31.5 128 L 30 124.5 L 34.5 119 L 36 122.5 L 35 125.5 Q 37.9 129.1 45.5 128 L 57.5 124 L 63 118.5 L 66 114.5 L 69 101.5 L 72.5 98 L 75.5 97 Q 82.1 97.9 85 102.5 L 86 106.5 L 83.5 108 L 78.5 102 Q 74 101 73 103.5 L 70 115.5 L 60.5 127 L 50 131 Q 49.7 136.4 46 139.5 L 45 146.5 L 49.5 152 L 58.5 156 L 71.5 159 L 98.5 161 L 99.5 160 L 126.5 158 L 140.5 154 L 147.5 150 L 154.5 150 L 160 146.5 L 161 139.5 L 158 134 Q 150.8 132.5 149 137.5 Q 149.8 140.1 146.5 139 L 140.5 141 L 134.5 141 L 123.5 139 L 115 132.5 L 110 122.5 L 107 107.5 L 103.5 104 L 96.5 102 L 92 105.5 L 90.5 108 L 88 106.5 L 88 104.5 L 94.5 98 Q 106 97 110 103.5 L 112 107.5 L 113 119.5 L 119.5 131 L 123.5 134 L 136.5 137 L 137.5 136 L 146 136 L 149.5 131 L 157.5 130 L 166 136 L 169 128.5 L 169 124.5 L 168 121.5 Q 162.5 104 149.5 94 L 141 86.5 Q 140.4 80.6 136.5 78 L 121.5 73 L 108.5 73 L 89.5 81 Q 82.1 70.4 62.5 72 L 52.5 76 L 43 83 L 38 91.5 L 38 98.5 Q 41.7 101.3 42 107.5 L 39 114 L 34.5 116 L 34.5 115 Q 37.1 115.8 36 112.5 Q 33.5 111 37 109.5 L 38 105.5 Q 32.4 101.8 34 92 Q 38 93.4 36 86.5 L 40 84 L 41.5 80 Q 45.3 81.3 44 77.5 L 55.5 70 L 56 72 L 60 72 Q 58.3 67.5 63.5 69 Q 65.3 66.3 71.5 68 L 83.5 71 L 89.5 76 L 96 76 Q 94.3 71.9 98.5 73 L 113 67.5 L 112 63.5 Q 114.6 62.1 114 57.5 L 94 44.5 L 96 44 L 96 41 Z M 137 45 L 128 48 L 121 53 L 117 62 L 116 68 L 129 72 L 134 72 L 140 75 Q 144 78 145 85 L 152 91 L 157 90 L 158 87 L 161 86 Q 162 83 160 84 L 156 80 Q 155 72 160 70 Q 166 69 168 71 L 168 63 L 159 52 L 152 47 L 144 45 L 137 45 Z M 114 52 L 116 54 Q 117 51 114 52 Z M 162 74 L 160 76 L 161 80 L 180 90 L 184 90 L 186 83 L 185 81 L 177 81 L 162 74 Z M 77 164 L 72 170 L 90 175 L 87 165 Q 84 163 77 164 Z M 103 164 L 102 165 L 91 165 L 94 172 Q 93 175 97 174 L 105 165 L 103 164 Z " /><path fill="rgb(0,0,0)" stroke="rgb(0,0,0)" stroke-width="1" opacity="1" d="M 41.5 169 Q 46.1 167.8 44 173 Q 33.3 174.2 26 179 L 21 188.5 L 21 192.5 L 31 199.5 L 24.5 200 L 16 192.5 L 18.5 188 Q 21.5 188.9 20 184.5 L 20 182.5 L 25.5 175 L 35.5 171 L 40 172 L 41.5 169 Z " /></svg>