<svg xmlns="http://www.w3.org/2000/svg" width="200" height="200"><path stroke="#000" d="m95.5 39 3.5 1.5-1.5.5-2-1-2.5 1.5zm42 0 6.5.5-6.5.5zm-6 1 4.5.5-6.5 1.5v-1zm14 0 6.5 1.5-2.5.5-4-1zm8 2 6.5 3.5-1.5-.5-5-2zm-44 2 8.5 3.5-1.5.5-7-3zm13 1-1 2zm-27 1 1 2zm66 0 6 7zm-63 2 1 2zm3 2 1 2zm6 4 1 2zm3 9 .5 5-9.5 2v-1l8.5-2zm63 1 .5 9.5h-1zm-111 2q10.3-1.8 15.5 1.5l-2.5.5-1-1h-12zm-4 1 2.5.5q-14.1 3.4-22 13L34.5 87l.5-1.5 7.5-9.5q6.4-6.1 16-9Zm21 1 12 6 1.5-.5-2.5 1.5q-3.8-4.7-11-6zm19 2 1.5.5-3.5 1.5v-1zm77 4 5.5 1.5-3.5.5zm9 1q4.8-.7 5.5 2.5l-2.5-1.5q-4 .8-3-1Zm7 6 .5 5.5h-1zm-158 7 .5 1.5-1 1v9l4 8-2.5 3.5-3.5 2.5 3 5.5-4 2.5-1 5 1 2.5 5 2.5-1.5.5-5.5-4.5v-4l4-6-2-4 2.5-3.5 3.5-2.5-4-8v-9zm132 1q3.8-.7 4.5 1.5l-1.5-.5-6 3zm6 2 8.5 4.5-1.5.5-6-3zm17 1-3 4-4 1v-1q5.2-.3 7-4Zm-28 1-1.5 2.5 5 5 2 3-3-2-5-7.5zm6 12 1 2zm4 7 2.5 5.5h-1zm3 7 .5 3.5h-1zm0 10 .5 2.5h-1zm-130 5-1 2zm126 6-2 3zm-130 2q.4 10.1 7 14l7.5 3.5-1.5.5q-7.4-2.6-11.5-8.5-3.1-3.6-1.5-9.5Zm124 8-2 3zm-15 5 4.5.5-4.5.5zm-4 2-1 2-4 1v-1zm-9 3 2.5.5-3 1 9 17h-1l-9-17zm-77 1 10.5 2.5-2.5.5-8-2zm-3 4 4.5.5-4.5.5zm12 0-2 3-4.5-1.5zm-23 1 3.5.5-6.5 1.5v-1zm-7 2 2.5.5-7.5 2.5v-1zm-8 3 1.5.5-8 4-6.5 11.5-.5-1.5 8.5-12.5zm115 9 5.5 15.5h-1zm-129 8 .5 2.5h-1zm0 5 4 5 2.5 1.5-1.5-.5-5.5-4.5z" opacity=".059"/><path stroke="#000" d="M0 0h200v200h-48.5l-.5-2.5q-5.4-20.6-16-36 8.1-.9 12.5-5.5l10-1 6.5-4.5 10-19v-12q-4.9-14.6-15-24 2.9-4.6 9.5-5.5 5.2 5.8 15 7l5.5-4.5 3-6v-5l-4.5-6.5q-9 1-13.5-1l-1-12.5q-3.8-9.7-11.5-15.5-8.4-7.1-24-7-1.3 2.2-6 1L121 46.5q.8 2.6-2.5 1.5l-5-3-6-1-12-5q-3.7 1.5-2.5 7l19 11-2 10q-11.1 1.7-19.5 7l-9-6-7-2h-12Q46.6 69.6 38 80.5l-6 10v9l4 8-5 4-1 3 2 4q-4.9 1.6-4 9 4.1 5.4 12.5 6.5l3-1-1.5 2.5-3 7v4q1.8 7.2 7.5 10.5l21.5 7.5q-1.5 3-7.5 1.5l-1-1h-8q-1.5 2.5-7 1l-18 6-5.5 4.5q-6.1 5.9-6 18l6 5-21 .5z" opacity="0"/><path stroke="#000" d="m95.5 40 1.5.5-3 2 1 3-2-1q-.5-4 2.5-4.5Zm41 0 8.5.5-8.5.5zm-37 1 6.5 2.5-1.5.5-5-2zm8 3 3.5 1.5-1.5.5zm17 0-4 5zm36 2 8 9zm-58 4 1 2zm9 6 1 2zm0 6 .5 5.5-3.5 1.5v-1h2.5zm-50 5 2.5.5-2.5.5zm11 0 2.5.5-2.5.5zm13 4 1 2zm-38 2-2 3zm41 0 2 3zm5 0-1 2zm88 2 2.5.5-2.5.5zm6 1 2 3zm-145 1-3 4zm-4 5-2 3zm152 3 .5 2.5h-1zm-155 1-.5 1.5-.5 1.5-.5-1.5zm134 3 3.5 2.5-1.5-.5zm19 2-3 4zm-28 1 1.5.5-2.5 1.5zm-3 2 5.5 6.5-6-5zm23 1 3.5.5-3.5.5zm-17 7 2 3zm-128 1 1 2zm131 3 2.5 3.5-2-1zm-133 5-1.5 2.5 2 3-3-2zm-1 8-2 3zm141 4 .5 5.5h-1zm-141 6 1 2zm6 3q5.3-1.2 6.5 1.5l-1.5-.5q-6 1.2-5-1Zm5 3-.5 1.5-1.5 3.5-.5-1.5zm126 4-1 2zm-129 2 .5 5.5h-1zm126 2-.5 1.5-.5 1.5-.5-1.5zm-2 4 .5 1.5-2 1zm-122 4 4 5zm118 1-1 2zm-94 10 3.5 1.5-2 1 .5-1.5q-3 .5-2-1Zm69 2 2.5 3.5-2-1zm-77 2 2.5.5-2.5.5zm9 0-1 2zm-41 7 1.5.5-4.5 2.5 1-2zm-5 5-1 2zm-5 16 3 4z" opacity=".631"/><path fill="#f7d5b5" stroke="#f7d5b5" d="m162.5 75 9.5 4-1.5 5-9.5-6.5zm15.5 7 5 .5-4.5 5.5-2.5-1.5zm-98 34 19 2-1 4.5q1.3 2.8 6.5 1.5l4-1-.5 1.5 3 6q-1.2 2.8-2.5.5-4.7-.7-5.5 2.5l2.5 5.5q2.7 2.8 9 2 2.3-2.7 8-2v1l-1.5.5 7.5 3.5 17.5 1 1 3.5q-6.7 5.3-16.5 7.5l-11 2-28 2-1-1h-12l-23-5-8.5-6.5-1-4 5.5-11.5 4 1 2-1 5 7 8 1 7.5-4.5q.8-3.7-1.5-4.5l-5-1-5.5 1 2-3.5v-3l-.5-1.5 4 1 5-1 2 1 2.5-1zm-4 28-3 3 1 2 8 3h19l8-2 3-2-1-4q-7-1-10 2h-7l-1 1-12-1zm2.5 23 7 1 1.5 1.5 1 3.5-9-2zM57 172l3 .5-2 .5 1 6.5h-1zm-4.5 1 .5 3.5h-1zm50 2 10.5 4.5-3.5 4.5-8.5-6zm-72 3 6.5 7.5-5 3 6 8-4.5 3.5-11.5-8.5 1-5 4-6.5q3.8 1.3 3.5-2Zm23 0 .5 6.5h-1zm40 3 1.5 1.5-4.5 4.5-3 2 4-5 2.5-1.5zm-33 3 .5 2.5h-1zm38 1-4 5-2.5 1.5-5 7 .5 1.5-1.5-2.5 9.5-10.5zm-60 1 6 6 2.5.5-2.5.5-5.5-4zm16 0 .5 2.5h-1zm7 2 3.5 1.5-2.5.5zm24 1-2.5 3.5-1.5 2.5-2.5-.5zm-33 1 2.5.5-2.5.5zm14 0 2.5.5-2.5.5zm-18 1 2.5.5-2.5.5zm22 0 4.5 1.5-1.5.5-3-1z"/><path fill="#61fbdb" stroke="#61fbdb" d="m139.5 46 11 2 5.5 3.5q-7.6.9-11 6 1.5 4.4-1.5 3.5l-2.5-1-4.5-6q-11 3-18 10l-.5-2.5q2.6-7.4 8.5-11.5l3-2zm-76 27q19-1 26 10l16-8 15-1 15.5 5-7.5 9h-3l-12-7h-12q-9.3 2.7-15 9H82l-3.5-5q-4.1-4.9-15-3L53 89.5l-4 7v4q3.1 4.4 2 13l-4.5 7.5q-3.4 3.7-9.5 3l1-3.5-4-3 2.5-.5 5.5-5.5 1-7-4-7v-6L48.5 80z" opacity=".996"/><path fill="#0a0f0d" stroke="#0a0f0d" d="m136.5 45 7.5.5-7.5.5zm-9 3-1 2zm30 2 5.5 6.5-5-4zm-44 2 2.5.5q-2.1 3.3-2.5-.5Zm51 6 2 3zm-48 6 .5 4 4 .5-3.5.5q-2.7-1.2-1-5Zm7 5 8.5 2.5-3.5.5-5-2zm37 0 4.5.5-4.5.5zm-2 1-2 3zm-24 2q5.8 1.3 8.5 5.5l-3.5-2.5-5-2zm-26 1 2.5.5-2.5.5zm11 0 2.5.5-2.5.5zm36 1 .5 4.5h-1zm6 0-1 2zm-79 1 1 2zm3 2 5.5 4.5-1.5.5zm-36 1-2 3zm94 1 1.5 2.5h-1zm18 0 1 2zm24 3 .5 3.5h-1zm-144 4-1 2zm101 2 5 6zm7 0 2 3zm8 0-1 2-1.5-.5zm22 1 4.5.5-4.5.5zm-30 5 8 9zm-78 4-2 3zm22 0-5 6zm-54 2 1 2zm44 0 1 2zm24 0 2 3zm-33 2-1 2zm3 0 2.5 1.5-1.5-.5zm19 0 3.5.5-3.5.5zm-2 1-2 3zm64 1 2 3zm-71 1 2 3 2-1-1 2-3.5-2.5zm18 1 2.5 4.5-2-1zm-23 1 2 1 1.5-.5-2.5 1.5zm-16 2 .5 2.5h-1zm46 0 .5 7.5h-1zm-72 2-1 2zm123 0 2.5 4.5h-1zm-126 3-1 2zm32 2 .5 2q3-1 2 2h-5v1.5l-6 5zm-7 2-2 3zm-27 1 1.5 2.5h-1zm74 0 .5 2.5h-1zm59 5 .5 4.5h-1zm-129 3 6.5.5-6.5.5zm20 0-1 2zm58 1 2 3zm36 1 3.5.5-3.5.5zm5 1 5.5 4.5-4.5-3.5zm-44 1 3 4 4.5 2.5-1.5-.5-6.5-4.5zm34 0-2 3zm18 2-.5 1.5-.5 1.5-.5-1.5zm-14 1-3 4zm-9 1 2.5.5-2.5.5zM72 136l3 .5-2.5 1.5zm-24.5 2-1 2zm94 2 2.5.5-2.5.5zm-96 2 .5 4.5h-1zm114 4-1 2zm-93 11 2.5.5-2.5.5zm58 0 2.5.5-2.5.5zm-53 1 2.5.5-2.5.5zm46 0 2.5.5-2.5.5zm-40 1 3.5.5-3.5.5zm28 0 3.5.5-3.5.5zm-15 1 8.5.5-8.5.5zm38 2 1 2zm-13 1 3.5.5-3.5.5zm-35 1 3.5.5-3.5.5zm22 0 2.5.5-5 4q4.3-2.3 2.5-4.5Zm7 2-9.5 10.5-.5 1.5-.5-1.5zm23 3 1 2zm-76 2 3.5.5-3.5.5zm33 1 .5 3-2-.5zm5 0 2 1 1.5-.5-4 1.5zm-69 9-1 2zm77 4 9 10zm8 0 1 2zm-89 7 1 2zm97 2 3 4zm-93 1 1 2z" opacity=".996"/><path fill="#f9efda" stroke="#f9efda" d="m172.5 80 5.5 2-1 4-6-2zm-123 92q4.6-1.3 2.5 4.5l3 13-10.5 2.5L31 179.5q-.7-2.2 1.5-1.5zm8.5 1q20.1 2.1 36 9.5L80.5 194h-2L61 187.5zm41.5 12 13.5 12.5 1 2-25.5.5-1.5-2.5 6.5-7.5z"/><path fill="#614f42" stroke="#614f42" d="m125.5 50-2 3zm-11 2 1 2zm14 18 2.5.5-2.5.5zm33 8 2 3zm18 3q8.3-2.7 5.5 5.5l-1 2.5q-5.5 1.1-8-1.5l1.5-.5 5 1 1.5-3.5-.5-2.5q-5 1-4-1Zm-39 5 1 2zm-45 11 4.5.5-4.5.5zm-4 2-2 3zm65 3 1 2zm-82 1-1 2zm12 2 2.5 3.5-3-2zm74 2 1 2zm-53 4 .5 4.5h-1zm-68 2-1 2zm31 2 .5 2 9 1 1 3.5q-1.7 3.3-8.5 1.5l-5-1-4.5 3.5 4-5.5h5v-2q-3.5 1.1-1.5-3Zm35 2 3.5 1.5 1 4-2.5.5-7 1q-2.2-.7-1.5-4.5zm-46 4-1 2zm1 6-1 2zm52 2 1 2zm-51 1q5.1 2.4 14 1l2.5 2.5-3.5 4.5q-3.5 2.5-11 1-4.5-1-3.5-7.5zm10.5 6 1 2 2-1zm34.5-5q1.5 2.5 7 1l7.5 5.5q-3.9 4.1-13.5 2.5-4.7-1.6-3.5-8zm47 3q4.8-.7 5.5 2.5l-2.5-1.5-4 1zm-3 3-3 4-3.5-.5q5.1.1 6.5-3.5Zm-21 3 2.5.5-2.5.5zm31 0 .5 2.5h-1zm-53 4 3.5 1.5-1.5 3.5-12 3h-12l-9-2-2.5-2.5 1.5-2.5 9 2h14zm-60 5 1 2zm100 0 6.5.5-6.5.5zm-36 9 5.5.5-5.5.5zm-30 1 4.5.5-4.5.5zm21 0 2.5.5-2.5.5zm22 3 2.5.5-2.5.5zm-5 1 3.5.5-3.5.5zm-42 1 2.5.5-2.5.5zm34 0 3.5.5-4 .5-7.5 10-2.5 1.5-.5 1.5-.5-1.5zm-26 1 3.5 9-2-.5 1-2-3-5zm6.5 0 11 .5-6.5 7.5-2.5-1.5zm-63.5 13-2 3zm77 2 4 5zm-80 2-1 2zm75 2 2 3zm12 3 2 3zm-52 2 17 5 7.5 5.5-48.5.5 2.5-3.5-2-4 2.5-.5 2 1h2l2 1zm-39 1 3.5 4.5-4-3zm87 2 6 7zm-81 4 1 2zm3 2 1 2z" opacity=".996"/><path fill="#5aac9c" stroke="#5aac9c" d="m135.5 46 3.5.5-3.5.5zm20 4 1 2zm-21 4h2l4.5 4.5q-.7 2.3 1.5 1.5l2 1 1.5-.5q-.9 3 3.5 1.5l5-4 8.5-1 4 6.5v6l-1.5-.5-5-1-5.5 4.5-1 6 5 6V87l-7.5 3-5.5-5.5q-.7-8.2-6.5-11.5l-8.5-3.5q.9-6.6 5.5-9.5 2.3.8 1.5-1.5 2.8-1.8-1.5-3.5-3 .5-2-1Z"/><path fill="#5aac9c" stroke="#5aac9c" d="m148.5 54-2.5 3.5-.5 1.5-.5-1.5zm-18 2-3.5 4.5-2 7.5-7-1 1.5-4zm-48 20 1 2zm54 3 3.5 7.5 2 19 6.5 9.5 5 1 2.5-3.5-1-2.5-5-2.5-3-8V95l9 7.5 10 15 2 10-3.5 7.5q-2.5-5.5-9-7l-5 1-6 6-8 1-13-3-4.5-3-3-9q7.1.9 11-2.5.8-3.7-1.5-4.5l-11.5 1q.5-11.1-6.5-16l-4-2-7-1-7.5 4.5-2.5 3.5-2-4-9-4-6.5 3.5-4 15-1.5 1.5-7-1-1.5 3.5 4 3-5.5 3.5-17.5 1 .5-3 4 1 8.5-5.5q3.1-4.4 2-13-2.6-2.9-2-9L56.5 86l-.5 1.5 1.5 3.5h3l4-3h11l1.5-1.5-2-3 2.5 1.5 4.5 3.5q-.9 3.4 4.5 1.5l3.5-2.5Q85 89 86 95l3.5 1 8-7q3.6-2.9 11-2l1.5-1.5-2-4 5.5-.5 12 7h3zM120 90q-3 1-2 5l4 2 4 7 4 14q4 8 17 8l1-3q-3-4-8-4l-6-7q-1-10-5-15-2-6-9-7Zm36 29q-3 1-2 5l6 1 2-3q-1-4-6-3Z"/><path fill="#5aac9c" stroke="#5aac9c" d="m101.5 81 2.5.5-2.5.5zm-38 1 2.5.5-2.5.5zm-4 2-1 2zm33 1-1 2zm-52 15 1 2zm35.5 3 5 3.5-1 2 4.5 1.5q2-4 4 0l3.5-1 2-5 2.5-1-.5 1.5-1 3 1 2.5q6 1 7.5-4l3.5 5.5v5.5l-10.5 1-1-1q-9.9.9-15.5-1l1 2.5-2.5-1.5-7.5-1 1-6 3.5 1 2.5-1v-3.5zm-8.5 19 4.5 1.5-4 .5q.8 5-2.5 7l-4-2-3 4-2-1-2.5 1q-1.1-2.7 1.5-2 7.8-2.7 12-9Zm31 0 1 2zm11 1q.1 5.4 3.5 7.5l-2.5 1.5q1.6-1.7-1.5-3.5l-1-4zm44 12q4.8-.7 5.5 2.5l1 7q-3.2 5.9-13 4.5l-1-4-17.5-1-7.5-3.5 2.5-1.5 5 2h14l1 1 6.5-2.5zm1.5 4-3 3 2 3 2-1q2 1 1-3zm-50.5-2 1 2zm-36 2 2.5.5-2.5.5zm44 1 2.5.5-2.5.5zm-2 4 1 2zm-17 2 2.5.5-2.5.5zm-46 2 2 3zm79 15q2.3-.7 1.5 1.5l7 12-1.5.5-13.5-5v-2.5zm-52 4q3.8-.7 4.5 1.5l-.5 2.5-5.5-2.5zm-22 5q7.2-2.3 4.5 5.5l2 4-1.5-.5-3.5 1zm61 7 9 3 12 1 5.5 3.5 4 13.5h-20.5l-.5-1.5-13-14v-2zm-18 3 3.5 2.5-8 7-4.5 5.5 3.5-4.5-2.5-2.5-4 3 3-4zm-41 1 .5 2.5h-1zm5 0 .5 2.5h-1zm-22 3 1 2zm18 1 .5 2.5h-1zm5 0 1.5 2.5-2-1zm-20 2 2 3zm42 5-1 2zm3 4 1 2z"/><path fill="#488079" stroke="#488079" d="M157.5 51v2l3.5 2.5q.8 2.3-1.5 1.5l-5 1-5 4H146l-1-2.5 4.5-5.5zm-24 4q4.8-.7 5.5 2.5l-1 2.5-5 3.5-2 6 .5 1.5-9.5-2.5 3-.5 2-7.5 4.5-4.5zm30 3 2 3zm-46 5 .5 4 3 .5-4 .5zm50 2 .5 4.5h-1zm-7 3 2.5.5-2.5.5zm-2 1-3 4zm-24 2q6.5 1.5 9.5 6.5l-4.5-3.5-5-2zm-68 1 3.5.5-3.5.5zm47 1 3.5.5-3.5.5zm41 1 .5 4.5h-1zm-69 4 3 4zm52 2 1.5 2.5h-1zm-33 1q4.8-.7 5.5 2.5l-1.5 3.5-9 1-11 8-2.5-1q-1-6.4 4.5-8zm-59 1-2 3zm21 0q8-1 10.5 3.5L75.5 88h-11l-4 3h-3L56 87.5q3.8-4.2 10.5-5.5Zm117 0 .5 2.5-1.5 3.5-3.5-.5zm-37 3 1 2zm-105 2-1 2zm99 0 7.5 7.5-1 1v4l4.5 9.5 3.5 1 1 3.5q-.7 3.3-5.5 2.5l-5.5-4.5-4-10zm17 0-1 2zm-38 3q7.2.8 9.5 6.5 4 6 5 15l5.5 7.5q5.8.3 8.5 3.5l-1.5 3.5q-12.4-.1-16.5-8.5l-4-14-4.5-6.5-3.5-2.5q-.7-3.7 1.5-4.5Zm30 5 6 7zm-56 2 1.5.5-2.5 1.5zm7 0 3.5.5-3.5.5zm-30 1-1 2zm20 1-1 2zm17 0 3 4zm-23 1 1 2zm-9 2 2.5 4.5v3.5l-2.5 1-3.5-1zm13 0-.5 1.5q.8 2.3-1.5 1.5zm-10 1 2 3zm17 0h2l7.5 3.5 2 4-3-2-.5-2.5q-1.5 5-7.5 4l-1-2.5 1-3zm61 0 3 4zm-114 2 .5 2.5h-1zm51 0-1 2zm-12 2 .5 2-2-.5zm5 0 3.5 2.5-1.5.5zm74 1 4.5 6.5-2-1zm-47 1 .5 6 11.5-1q2.3.8 1.5 4.5l-1.5 1.5-10 2q-3.8-4.8-2-13Zm-57 6 6.5 1.5-3.5 4.5q-4 .5-4.5-2.5zm15 1 2.5.5-2.5.5zm31 1 2.5.5-2.5.5zm53 2q5.1-.6 6.5 2.5l-2.5 3.5-5.5-1q-1-3.8 1.5-5Zm-98 3-1 2zm11 0 3.5.5-3.5.5zm-19 3 2.5.5-2.5.5zm-11 1 9.5.5-9.5.5zm24 0-1 2zm-1 3-1.5 2.5-.5 2.5-.5-2.5zm59 1 1 2zm-44 1 1 2zm90 1-1 2zm-89 3-2 3zm56 0 2.5.5-2.5.5zm6 0 2.5.5-2.5.5zm10 4-1 2zm5 0 2.5 1.5q1.5 4.4-1.5 3.5l-2 1-1.5-3.5zm-79 5 1.5.5-2.5 1.5zm84 1-1 2zm-75 1 3.5.5-3.5.5zm12 0 2.5.5-2.5.5zm-22 2 1 2zm8 3 2.5.5-2.5.5zm4 8 2.5.5-2.5.5zm41 3 3.5 5.5-2-1z" opacity=".996"/><path fill="#488079" stroke="#488079" d="m123.5 163 2.5.5-6 6v2.5l14.5 5-.5-1.5-3-6 2 1 7 15-2.5-1.5-15-2-19.5-6.5 8-10.5zm-47 2h8l.5 1.5.5 1.5-10.5-1.5zm-25 6 3.5.5-3.5.5zm5 10 2.5 1.5 1 7.5-4.5 1 .5-1.5-2-7zm-21 5 6.5 5.5q.8 2.3-1.5 1.5l-3-1 1.5 2.5q.5 5-3.5 5.5l2.5-3.5-5-6v-2zm68 1 4 5zm-17 3 3.5 2.5-5 6 .5 1.5-5.5-4.5 3-1zm29 0 3 4zm-84 8 1 2z" opacity=".996"/><path stroke="#000" d="m95.5 41 .5 3q-2.7 1.1-2-1.5zm3 0 2.5 1.5-1.5.5zm35 0 5.5.5-5.5.5zm8 0 5.5.5-5.5.5zm-12 1q3.8-1 2.5 2l-5-.5zm19 0 2.5.5-2.5.5zm-42 2 2.5 1.5-1.5.5zm49 0q8.8 3.7 13.5 11.5l-4.5-3.5H160v-5h-1.5zm-41 3 2.5 1.5-3 .5zm-10 4 1 2zm8 5q2.3.8 1.5 4.5l-1.5 2.5-.5-1.5 1-4zm60 8 .5 7.5h-1zm-60 1 .5 2.5-2 1zm-48 2h7l5.5 1.5-4.5.5q-1.7-2.7-8-1L60 69q1.6 4.9-4 3-1.7-4.5 3.5-3zm42 2 2.5.5-2.5.5zm-22 2 1 2zm15 0 1.5.5-5 1.5q1.8 4.9-4.5 3v-1zm-49 1-1 2-3 2 2-3zm37 1 2 3zm85 0 1 2zm-128 3-.5 1.5q1.3 3.8-2.5 2.5L40 84l-3.5 2 2.5-3.5zm135 0q8.8-1.7 10.5 3.5l-.5 1.5-3-4h-7zm11 6 .5 2.5h-1zm-155 5 .5 5q-3.5-1.1-2 6.5h-1q-.9-7.9 2.5-11.5Zm131 0 5.5 1 1.5 3 2.5 1.5-1.5-.5-8-4-4.5 3.5zm23 0 .5 1.5-5.5 6.5q-5.4.9-7.5-1.5l1.5-.5 1.5.5q-.5-3 6.5-1.5zM156 92l4 .5-3 1.5 6 7.5-7-6zM35.5 102l1 2zm128 1 2 3zm-126 2 .5 2.5h-1zm-1 4-1.5 2.5 1 1q1.1 3.3-1.5 2.5-1.2 2.3-2.5-.5zm131 0 2.5 4.5h-1zm3 6 2.5 6.5h-1zm-137 4-2.5 3.5-1.5 3.5-.5-1.5zm-3 8 5.5 1q1.5 3.8-1.5 3zm142 1 .5 2.5h-1zm-135 3 2.5.5-2.5.5zm134 1 .5 2.5h-1zm-128 4 .5 12-2 .5 2 3-2-1q-2.3-3.2-1-10zm124 5-2 3zm-5 9-1 2zm-116 4 1 2zm99 1 1.5.5-5.5 2.5 1-2zm-11 4 2.5.5-3 .5-.5 2-.5-1.5zm-75 1 3.5.5-3.5.5zm8.5 0q6-2 4 4l-3 1.5-1 3.5-4-.5 4-2 2-3zm-3.5 1 2.5.5-2.5.5zm-8.5 5 7 1.5-7 .5zm-9.5 1H48v4l-4 1q1.5-3.7-1.5-3v-1zm90 0 1 2zm-97 2 1.5.5-1 2.5q-5.2 1.7-4-2zm100 3 2.5 4.5-2-1zm-115 3-2 3zm-3 4-1 2zm123 4 1.5 5q-4.1 1.2-1.5-5ZM18 184q3.7-1.2 2 4l-3 1.5-.5 2.5-.5-2.5zm129.5 8 2.5 8q-3.7 1.3-2-4.5zm-131 1 5 6z" opacity=".996"/><path stroke="#000" d="m96 41 3.5 2h4l4 3 6.5 1q-1.3 3.3 3.5 2l2 1q2.7-7.4 12.5-6-1.1-3.5 6.5-2l2-1 11 2 8.5 4v5h4.5l6.5 8.5q2.2 4.8 1 13l1.5 1.5q4 3.5 13 2l1.5 1.5q3 2 2 8l-3.5 5.5q-7-1.5-6.5 1.5l-1.5-.5-6.5-3.5q.9-3-3.5-1.5l-2-1-5 5H156v3.5q9.4 7.1 14 19l3 8v5l-4 12-9.5 13.5q-5 3-14 2l-12.5 5.5 9 17 2 5v5.5q2.7-1.1 2 1.5l2 10.5q-4.1 1.7-3-2.5-5.7-20.2-16.5-35.5l-18.5 2-11 14 5.5 2 13.5 13.5 4 6.5h-6.5l-.5-1.5-12.5-13.5-18-8-25-6h-11l-2 1v-1H48v-4h2.5l5.5-1 .5 2h7l4.5 1 2.5-5H72v-4h-4v1.5l-1.5-.5q-15-.5-22.5-8.5l-2-4 2-.5q-1.3-10.4 1-16l-9-1q1.8-4.9-4.5-3l-1.5-3.5 4.5-5.5 1.5 3.5-1 3q2.9 3.6 10.5 2.5l12-4 5.5-5.5 3-4 3-13 3.5-3.5 3-1q6.6.9 9.5 5.5l1 4-2.5 1.5-5-6q-4.5-1-5.5 1.5l-3 12-9.5 11.5-10.5 4q-.3 5.4-4 8.5l-1 7 4.5 5.5 9 4 13 3 27 2 1-1 27-2 14-4 7-4h7l5.5-3.5 1-7-3-5.5q-7.2-1.5-9 3.5.8 2.6-2.5 1.5l-6 2h-6l-11-2-8.5-6.5-5-10-3-15-3.5-3.5-7-2-4.5 3.5-1.5 2.5-2.5-1.5v-2l6.5-6.5q11.5-1 15.5 5.5l2 4 1 12 6.5 11.5 4 3 13 3 1-1h8.5l3.5-5 8-1 8.5 6 3-7.5v-4l-1-3Q162.5 104 149.5 94l-8.5-7.5q-.6-5.9-4.5-8.5l-15-5h-13l-19 8q-7.4-10.6-27-9l-10 4-9.5 7-5 8.5v7q3.7 2.8 4 9l-3 6.5-4.5 2v-1q2.6.8 1.5-2.5-2.5-1.5 1-3l1-4q-5.6-3.7-4-13.5 4 1.4 2-5.5l4-2.5 1.5-4q3.8 1.3 2.5-2.5L55.5 70l.5 2h4q-1.7-4.5 3.5-3 1.8-2.7 8-1l12 3 6 5H96q-1.7-4.1 2.5-3l14.5-5.5-1-4q2.6-1.4 2-6l-20-13 2-.5zm41 4-9 3-7 5-4 9-1 6 13 4h5l6 3q4 3 5 10l7 6 5-1 1-3 3-1q1-3-1-2l-4-4q-1-8 4-10 6-1 8 1v-8l-9-11-7-5-8-2zm-23 7 2 2q1-3-2-2Zm48 22-2 2 1 4 19 10h4l2-7-1-2h-8zm-85 90-5 6 18 5-3-10q-3-2-10-1Zm26 0-1 1H91l3 7q-1 3 3 2l8-9z"/><path stroke="#000" d="M41.5 169q4.6-1.2 2.5 4-10.7 1.2-18 6l-5 9.5v4l10 7-6.5.5-8.5-7.5 2.5-4.5q3 .9 1.5-3.5v-2l5.5-7.5 10-4 4.5 1z"/></svg>