<svg xmlns="http://www.w3.org/2000/svg" width="200" height="200"><path stroke="#000" d="m9.5 32-1 2zm2 2 1 2zm3 5 2.5 6.5h-1zm-11 3 .5 1.5L.5 50 0 48.5zm14 5 1.5 4.5h-1zm2 6 .5 2.5h-1zm1 4 .5 2.5h-1zm1 4 1.5 5.5h-1zm6 3 8.5 2 5 9.5-2 .5q-.5-6.8-5.5-10l-6-1zm172 0-1.5 2.5-4.5 5.5-11.5-1.5 7.5-.5 4 1zm-20 7 1.5.5-8 6-.5 1.5-.5-1.5 3.5-4.5zm-135 2q10-.5 13.5 5.5l2 4.5 16.5-6h9L98 82.5l-2.5.5-10-5h-9q-9.6 1.9-16 7L56 77l-6.5-3h-5l-2 1v-1zm69 4 9.5.5-13.5 1.5v-1zm11 1h3l16 8 11-8h8l8.5 4 .5-2 .5 3-9.5-4h-8l-9.5 6.5q.8 2.3-1.5 1.5l-16-8h-3zm-20 1 3.5.5-8.5 2.5v-1zm-98 13L9 93.5q.5 5.6 4.5 7.5l7 1 4.5-1q-.2 6.9 5 9.5-4.2 5.8-3 17l2 5-2-1-1-13 3-8q-4.8-2.5-5-8.5l-9.5 1-4.5-3-2-7-7.5 3v-1zm192 10-.5 1.5q.8 2.3-1.5 1.5l-3.5 2.5zm-18.5 5 8.5 2 3-1v1l-6 1-4-2-7 8-4.5 2.5-.5 7.5-.5-9q6.6-1.1 10-6.5zm-11.5 20 .5 9.5-1.5 2.5-.5-1.5 1-1zm-138 9 8.5 7-.5 9-.5-7.5-2.5-2.5-3.5-2.5zm135 6-.5 1.5-2.5 3.5-19 7v-1l9-4h4l7.5-4.5zm-126 11 6 7 9.5 2.5-3.5.5q-8.1-1.4-11.5-7.5zm101 1 1.5.5-10.5 3.5v-1zm-11 4 9.5 13.5-2-1-8-11zm-73 5 8.5 1-9.5 20-.5-1.5 9-17q-2.1-2.4-7.5-1.5zm83 10q6.7 9.8 10.5 22.5h-1zm-88 21 .5 1.5-2.5 4.5.5-1.5z" opacity=".071"/><path stroke="#000" d="M0 0h199.5l.5.5v63l-6.5 7.5-11-1-8.5 4.5-3 7.5-8.5-4h-8l-11 8-16-8-14-1-18 5-10-5h-9L60 83l-4.5-7q-3.2-3.8-11-3l-4 2-4.5-9-8.5-2-4 2L16 41.5 9.5 32l-9 16zm6.5 93q2.6-.8 1.5 2.5l2 4.5 4.5 3h6l3.5-1q.2 6 5 8.5-4.2 5.8-3 17l1 4 7.5 10.5 3.5 2.5v7l7.5 9.5 11 3h5l2.5 1.5-8 14q-2 12-7.5 20.5H0V96zm193 9 .5 98h-48.5l-.5-1.5q-7.4-23.9-21-40.5l9.5-2 13-6h4l8.5-5.5 4-8 1-18 1.5-1.5q6.1-1.4 8.5-6.5l1.5-2.5 7 2 9.5-5z" opacity="0"/><path stroke="#000" d="m5.5 39 .5 1.5L4.5 43 4 41.5zm10 5 1.5 3.5h-1zm3 8 .5 2.5h-1zm1 4 .5 2.5h-1zm7 9 4.5.5-4.5.5zm173 0-1 2zm-167 1 4.5 3.5-3.5-2.5zm165 2-4 5-2.5-.5q5.1-.4 6.5-4.5Zm-16 3 8.5.5-8.5.5zm-4 2-3.5 4.5-1.5 3.5-.5-1.5zm-139 1 .5 2 3.5-1v1l-3 1zm6 0 5.5.5-5.5.5zm7 1 2.5 1.5-1.5-.5zm25 3 9.5.5-9.5.5zm37 0 10.5.5-10.5.5zm-57 1 3.5 4.5-2-1zm52 0 2.5.5-2.5.5zm18 0 3.5 1.5-1.5.5zm28 0 8.5.5-8.5.5zm-50 1 2.5.5-2.5.5zm60 0 4.5 2.5-1.5-.5q-3.7-.3-3-2Zm-71 1 1 2zm57 0-1 2zm-52 1 1.5.5-3.5 1.5v-1zm-35 1-1 2-2 1 1-2zm84 0-2 3zm-140 8q2.3-.7 1.5 1.5zm3 6 3 4zm12 3 2.5.5-2.5.5zm-7 1 5.5.5-5.5.5zm183 0 1.5.5-4.5 3.5zm-172 5 3 4zm154 0-.5 1.5-.5 1.5-.5-1.5zm13 0-1 2-1.5-.5zm-8 2 3.5.5-3.5.5zm-7 2-4 5zm-150 4 .5 2.5h-1zm-1 4 .5 9.5h-1zm141 3 .5 5.5h-1zm-139 12 8.5 9.5-8-7zm137 5 .5 1.5-2.5 3.5.5-1.5zm-3 6-1 2-2 1 1-2zm-9 4 2.5.5-2.5.5zm-115 3 1.5 2.5-2-1zm2 4 7.5 5.5-1.5.5zm88 2 1.5.5-2 .5 6 8.5-3-2-5-6zm-78 4 2.5.5-2.5.5zm4 1 3.5.5-3.5.5zm7 1q4.8-1.7 3.5 2.5l-2 1 1-2.5q-3.3.8-2.5-1Zm1 5-.5 1.5-1.5 2.5.5-1.5zm72 0 1 2zm2 3 6.5 12.5h-1zm-81 11 .5 1.5-1.5 2.5-.5-1.5z" opacity=".804"/><path stroke="#000" d="m3.5 45 .5 3-2-.5zm13 3 1.5 4.5-2-1zm4 14 2 5 1.5.5-4 .5zm7.5 4q5-.8 7 2.5l-1.5-.5q-6.9 2-5.5-2Zm171.5 0-1 2zm-163 4q.2 5.3 3.5 7.5L37.5 76l-1.5-.5zm159 1-1 2zm-15 1 3.5.5-3.5.5zm8 0 2.5.5-2.5.5zm-140 3 2.5.5-2.5.5zm6 2 1 2zm30 2 2.5.5-2.5.5zm27 0 2.5.5-2.5.5zm12 0 9.5 3.5q-1.2 2.5-5 1.5 1.5-3.8-1.5-3l-3-1zm-16 1 2.5.5-2 .5q1.6 4.9-4 3l-1-2.5zm-39 1 1.5.5-2 .5q1.3 3.3-3.5 2l-1.5.5zm23 0 4.5 2.5-4 .5zm60 0 .5 3-4-.5zm21 0 .5 2.5-2.5 1.5-1-2 2.5 1zm-72 1-1 2-1.5-.5zm-42 1 1 2zm-50 7 1 2zm5 9 2.5 1.5-1.5.5zm11 0q3-.9 1.5 3.5h-1zm159 8 4.5.5-4.5.5zm-154 1 1.5 2.5h-1zm146.5 0q3.7-1.5 3 1.5l-3 2zm-1.5 5-1 2zm-3 1 .5 2-3 1.5q.8 3.8-1.5 4.5l.5-1.5q-1.9-5.4 1.5-4.5zm-143 3 .5 4.5h-1zm139 7 .5 10.5h-1zm-139 1 .5 4.5h-1zm1 6 2.5 1v4q5.6-2.2 4 3.5l-5-4zm9 11q3.3 1.8 1.5 8.5h-1q.6-6.7-.5-8.5Zm125 1-1 2zm-15.5 5 6 .5-6.5 2.5.5-1.5zm-12 4 8 .5-8 2.5zm-94.5 2 2 3zm86 3 1.5.5-2 1 4.5 5.5q-5.2 1.8-3.5-3.5-3.7-1.7-.5-3.5Zm-78 3 2.5.5-2.5.5zm10 2 3.5.5-3.5.5zm74 4 1 2zm2 3 1 2z" opacity=".996"/><path stroke="#000" d="m9.5 33 3.5 4.5 3 14 2 2 2 7V68l7.5-2 .5 2 8 1v6.5l1.5.5q1.5 3.5 3 1l7-2 5 1 4.5 4.5 3.5 5.5 7.5-2q-1.1-2.7 1.5-2 4.5-4 14-3l5 1 3.5 2.5.5 1.5h7q1.1-2.7 4.5-2-1.2 3.7 4 2-1.5-3.8 1.5-3 4.4-3.1 13-2l5.5 2q-1.7 4.5 3.5 3l2-1 11 5 2.5-4h5q-1.7-4.1 2.5-3 1.5-2.5 7-1l10 5 3.5-8.5 2.5-2.5 10-2q1.5 2.5 7 1l5-6 .5 5.5-5 6.5-5.5-3h-8l-4.5 4.5q0 6.5-3.5 9.5l-11-6h-7l-6.5 4.5-2 4.5-23.5-10h-10l-15 5h-4q-4.9-6.6-18-5L58 91l-5-10-3.5-2h-4l-10 5-1.5-3.5 1-2-2-6-2.5-2.5-11 3-1.5-1.5-4-18L9.5 43 5 52.5 1.5 56q-3.4.9-1.5-4.5L2 48q3.3 1.3 2-3.5z"/><path stroke="#000" d="m10.5 83 3.5 1.5-1 8 3.5 4.5h4l8.5-3 1 9.5 6 6-4 10v8q2.6 7.4 8.5 11.5l2.5 1.5q-2.1 12.6 5.5 15.5l20 4h31l25-5 20-7 6-4 3 1 7.5-4.5 3-9-2-4q3-3 2-10l3.5-5.5q5.6-.4 7.5-4.5.3-4.7 3.5-6.5l10 3 9-8h2.5v3.5l-6.5 6.5-5 2-9.5-2q1.1 3.3-3 2v5h-1.5l-5 3q-3.4-.9-1.5 4.5v2l-1 2v12l-6.5 9.5q-4.2 3.5-12.5 2l-1.5 3-10.5 1q1.7 4.1-2.5 3l-7.5 3.5q3 1.3 2 5.5 3.8-1 5 1.5l7 11v3.5q2.7-1.1 2 1.5l8 18-5 .5-1-5.5-10-21-10.5-12.5-3-1-1 1h-10l-11 3H71l-6 10.5v4.5q-2.7-1.1-2 1.5L54.5 200l-3.5-.5 7-20 9-16.5-2.5-1h-9L44 158l-4-6.5v-8l-1.5-1.5-2.5-1.5V136h-4v-4h-1.5l-1.5-1.5-1-8 3-13-4-3-1-7.5-9.5 2-5.5-3.5-2-5q2.3-1.2-.5-2.5L0 94q-1-3.8 1.5-5 6.1-1.4 9-6Z"/><path fill="#b9ec71" stroke="#b9ec71" d="M51.5 104q14.7-2.2 19.5 5.5 4.8 5.2 3 17l-7.5 9.5-7 2h-9q-6.7-1.2-10.5-5.5-4.3-4.2-3-14 2.1-7.4 7.5-11.5zm61 0q14.7-2.2 19.5 5.5 4.8 5.2 3 17l-7.5 9.5-7 2h-6l-8-2-4.5-3.5q-4.7-4.8-3-16l6.5-9.5zm-27 30 5.5.5-5.5.5zm8 4 3.5 4.5h-1l-.5-1.5-1.5.5 1-1zm48 0-1 2zm-61 1-2 3zm5 1 2.5.5-2.5.5zm-5 2-3 4zm18 1q2.3-.7 1.5 1.5zm50 0 2.5.5-2.5.5zm-2 1-1 2zm-71 5 .5 3.5h-1zm-29 3 2 3zm30 2 1 2zm6 3 2.5.5-2.5.5zm5 0 7.5.5-7.5.5zm25 6-.5 1.5-5.5 11.5-.5-3-3-1.5zm-19 2 6.5.5-4.5 3.5h-3l-2-3zM79 166l9 7.5-3.5 4.5 1.5-2.5q.5-4-2.5-4.5l-3 2zm54.5 10 10.5 24h-5v-1.5l-6.5-7.5-1.5.5zm-2 20 .5 2.5h-1zm-74 1q2.6-.8 1.5 2.5h-1z"/><path fill="#392730" stroke="#392730" d="m4.5 54-1 2zm11 8 .5 2.5h-1zm2 9 .5 2 2 .5-1.5.5zm180 5-2 3zm-18 2-1 2zm13 0 1 2zm-142 2 3 4zm29 3 3.5.5-3.5.5zm38 0 2.5.5-2.5.5zm40 1 2.5.5-2.5.5zm-151 1-1 2zm146 1-1 2zm-19 2 3.5 1.5-1.5.5zm16 1-1 2zm26 0-1 2-1.5-.5zm-118 1 1 2zm-43 2 2.5 3.5-3-2zm133 0-1 2zm-121 1 3.5 1.5-1.5-.5q-3 .5-2-1Zm23 1 13.5.5-3 .5q-1 3.8 1.5 5 9.4.1 13.5 5.5 5.3 6.2 6 17-2.5 1.5-1 7l-5.5 8.5-9 4-10 1-11-2-9.5-8.5q-3.8-4.7-2-15l3-9 5.5-5.5q2.6.8 1.5-2.5L39.5 99l-2.5 1.5q4.2-5.3 12.5-6.5Zm3.5 9-8 3-6 6-3 7q-2 10 3 14l4 3 11 3 9-1 5-2q5-4 7-11v-7l-3-8-9-7zm57.5-9 6.5.5-1 4.5 10.5 1 9.5 5.5q5.5 6.5 6 18l-2 8-3.5 4.5-11 6h-17q-1.2-2.2-2.5.5l-.5 3.5q-8-2.5-12.5-8.5l-3-4h2l-1-5.5-6 1 1-10.5-2-5q.8-2.2 4.5-1.5l4 2 3.5-1.5v-2l5-6-4-3q4.9-5.6 13.5-7.5Zm2.5 9-7 3q-6 3-8 11-1 9 2 15l5 4 8 2q10 2 16-2 5-4 7-11v-7l-4-9q-5-8-19-6Zm8.5-9 3.5.5-3.5.5zm5 1 2.5.5-2.5.5zm70 0-2 3zm-122 3 6 7zm61 0 6 7zm43 2 2.5.5-2.5.5zm-143 1-1.5 2.5q.8 2.3-1.5 1.5zm155 0-1 2-1.5-.5z" opacity=".996"/><path fill="#392730" stroke="#392730" d="m95.5 102-.5 1.5-2 4.5-4-.5 5-3zm81 0-1 2zm-32 3 2.5.5-2.5.5zm-63 1 1 2zm80 4 4.5 2.5-1.5-.5q-3.8-.2-3-2Zm-16.5 1q12.1.8 19 7.5l-2.5 9.5-5-1-1.5.5 2-5.5-11 6 1-9.5zm7.5 19-2 3zm-8 3-1 2zm-3 4-2 3zm-61 1-3 4zm56 3-1 2zm11 3-1 2zm-94 3 8.5.5-8.5.5zm61 0 2.5.5-2.5.5zm5 0 2.5.5-2.5.5zm-73 6 1 2zm47 6 2.5.5-2.5.5zm27 2q6.1 1.4 8.5 6.5l-3 21 3.5 1.5 1.5-.5V200h-5v-9.5l-1.5-1.5-17-4-9 10-7 4-8.5-7.5-5.5-9.5-12.5-3 6-14 3 1.5 3 13 3.5 4.5H87q-1.5-3.7 1.5-3l5-4 6.5 3-1 2.5 7.5 2.5 7.5-10.5zM93 179l-3 2-1 2h9l1-1q-1-4-6-3Zm-3 10 3 3 3-2zm13.5-26-4 5z" opacity=".996"/><path fill="#392730" stroke="#392730" d="m92.5 164 4.5.5-4.5.5zm-14 1 .5 2.5h-1zm3 0 1 2zm26 1-3 4zm-18 1 1 2zm-6 1 3 4zm14 0-1 2-1.5-.5zm-18 2 .5 2.5h-1zm23 0-1 2zm-14 2 1.5 2.5h-1zm11 0-1 2zm10 0-.5 1.5-1.5 2.5.5-1.5zm22.5 2 2 .5-1.5 2.5zm-44.5 1-2 3zm-23 5 .5 3.5-1 1V200h-5v-6.5q-2.5-1.5 1-3l2-8zm67 0 .5 3.5h-1z" opacity=".996"/><path fill="#f3ddcc" stroke="#f3ddcc" d="M157.5 127q4-.5 4.5 2.5 1.2 9.7-4.5 12.5l-6 2-3-1-10 6-28 8-11 1-1 1h-29l-20-4-4.5-4.5-1-3.5 5.5 1h16q9.7-2.3 15.5-8.5l2-4.5h7.5l2.5 2.5 3 4-1.5-.5-9-1q-5.7 1.3-8.5 5.5l-2 7 2.5 3.5q5.8 3.7 17 2 1.2-2.2 6-1l3.5-3.5q1.2-7.8-4-9l1.5.5q8.3 4.8 23 3 10.9-2.6 17.5-9.5l2-4.5q7.1 1.8 9-2.5l2.5-3.5zm-74 44q3 .5 2.5 4.5l-4 2.5-1-6zm19 1 3.5 1v4h-1.5l-4.5-2q-1.1-2.7 1.5-2zm30 19q5.7 2.9 6.5 9h-7v-3.5l-1-4z"/><path fill="#954945" stroke="#954945" d="m9.5 45 3.5 8.5 4 19 1.5 1.5 8-3h4q4.8 4.7 4 15l8-5 7-1q6.1 4.4 9 12l14-7 13-1 9 5h4l14-5h10l24 10 3.5-6 5.5-3h7l12 6 1.5-1.5 2-9 2.5-2.5 9-1 5 3 5-6 .5 21q-4.7-1-6 2.5l-2.5 3.5-5 2-8-3-7 10-6 2-15-6-8-1q-4.6-7.4-14-10-7.1-2.4-18-1-10.3 2.7-16.5 9.5l-2.5 3.5h-9l-1.5-1.5-6.5-7.5-12-4h-13l-10 4-8.5 6-1-9.5-1.5-1.5-11 3q-4.8-2.2-3.5-10.5v-2q.8-2.6-2.5-1.5l-11 7L0 56q3.8 1 5-1.5z" opacity=".996"/><path fill="#954945" stroke="#954945" d="M52.5 103h10l9.5 6.5-.5 1.5-3-4q-4.8-4.7-16-3zm60 0q14.7-2.2 19.5 5.5l-2.5-1.5q-5.2-4.8-17-3-6.9 1.5-10.5 6.5-4.7 4.8-3 16l4.5 7.5 2.5 1.5-1.5.5q-8.3-4.7-6.5-19.5 1.8-7.2 7.5-10.5zm-64 1 2.5.5q-6.8 1.2-10 6l-4 8v8l4.5 7.5 2.5 1.5-1.5.5-6.5-8.5v-9l3-7 5.5-5.5zm84 6 1.5 2.5h-1zm-58 7 .5 7.5h-1zm61 0 .5 7.5h-1zm25 10 1 2zm-6 1-1 2zm-83 3-4 5zm61 0-4 5zm13 2 4.5.5-4.5.5zm-62 1 1.5.5-2.5 1.5zm8 1 1 2zm52 0-1 2zm-36 1 2.5.5-2.5.5zm-47 1 2.5.5-2.5.5zm61 0 2.5.5-2.5.5zm-68 1 3.5.5-3.5.5zm35 2 9 3 1.5-.5q-2.2 1.3.5 2.5l3.5 2.5 1 6-4.5 3.5h-12l-2 1-5-1-4.5-3.5v-6l5.5-5.5zm50 0-1 2zm21 0-1 2zm-83 2-1 2zm-26 5 2.5.5-2.5.5zm12 0 2.5.5-2.5.5zm49 0 2.5.5-2.5.5zm-46 11 2.5.5-2.5.5zm9 1 18.5.5-18.5.5zm38 3q2.3-.7 1.5 1.5l-1.5 2.5-1.5-2.5zm-15 2 4.5.5-5.5 4.5 1-2 2.5-1.5q-3.3.1-2.5-1.5Zm-18 1 3.5 2.5-2.5-1.5zm8.5 0 5 .5-3 1 1.5 2.5-3.5-2zm21.5 0-4 5zm2 2-.5 1.5-2.5 4.5.5-1.5zm-8 3-1 2zm-16 2 1.5 2.5h-1zm13 0-2 3zm6 4-1 2-1.5-.5zm26 1 .5 2.5h-1zM65 179q8.7 0 14 4.5 2.5 8 8.5 12.5l5 3 11.5-9.5 3.5-4.5 14 3 4.5 2.5v9l-.5.5H64v-15.5z" opacity=".996"/><path fill="#954945" stroke="#954945" d="M92.5 179q5.1-.6 6.5 2.5l-1.5 1.5h-9l1-2zm39 5 .5 3.5h-1zm-42 5 6.5.5-3.5 2.5zm-31 4 .5 4q-2.7 1.1-2-1.5z" opacity=".996"/><path fill="#070303" stroke="#070303" d="m4.5 53-2 3zm193 22-2 3zm-185 7 1 2zm22 1 1 2zm117 3-2 3zm45 10-1 2zm-11 7 3.5.5-3.5.5zm-22 28 .5 2.5h-1zm-12 13 2.5.5-2.5.5zm-42 17 2.5.5-2.5.5zm-38 3 3.5.5-3.5.5zm10 0 2.5.5-2.5.5zm46 1 1 2zm5 7 1 2z" opacity=".973"/><path fill="#151021" stroke="#151021" d="m46.5 79 2.5.5-2.5.5zm-7 3-1 2zm75 1 2.5.5-2.5.5zm-106 1-1 2zm5 3 .5 3.5h-1zm104 7 15 3 9 8 7 1 17 7 1.5-.5-3.5 5.5q-6.9-6.3-18.5-7l2 7.5v6l-1 3.5 11-6q-.6 7.9-7.5 11-5.2-1.2-6.5 1.5l-5.5 6.5-9 5-11 2-11.5-2q-1-3.8 1.5-5l1 1h17q7.8-2.2 12.5-7.5 4.2-5.3 4-15-1.8-9.7-7.5-15.5l-8-4-10.5-1q-1-3.8 1.5-5ZM60 95q15.2.1 21 10.5l1.5 2.5q1.3-2.2 6-1l4.5 1 3.5-6 4.5 2.5-6.5 9.5-4-2h-2q-3.7-.7-4.5 1.5 2.9 3.6 2 11l-1 4.5 6-1 1 5.5-2.5.5q-7-1.5-8.5 2.5l-5.5 6.5-10 4h-17l-4.5-1-.5 3-.5-8 16.5 2 12-3 5.5-4.5 3-6 1-10q-1.8-9.7-7.5-15.5L60 98.5zm134.5 3-2 3zm-155 1 3.5 1.5q1.1 3.3-1.5 2.5l-6 6-2.5-2.5 3.5-5.5zm-9 4 1 2zm143 5-2 3zm-141 12 .5 5.5h-1zm3 13 4 5zm34 26 2.5.5-2.5.5zm43 2 7.5.5q-4.9 13.6-13.5 23.5l-7.5-2.5 1-2.5-6.5-3-6.5 4v3h-6.5l-3.5-4.5-4-14 5.5-1.5-.5 1.5q.2 8.8 4.5 13.5l7.5-4-1.5-3-5.5-4.5-1-2q2.7-2.8 9.5-1.5v1l-4.5.5q1.6 5.4 9.5 4.5l6.5-5.5-2-1 1.5-.5h2l6.5-1-2.5 4-10.5 7.5 1.5 2.5 7.5 2 8-15.5q-3.3.1-2.5-1.5Zm12 1 2 3zm5 6 3.5 5.5-3 14q2.3 1.3-.5 2.5l-3.5-1.5q.3-11.7 3.5-20.5Zm-65 11-1 2zm-5 11-1 2z" opacity=".996"/></svg>