<svg xmlns="http://www.w3.org/2000/svg" width="200" height="200"><path stroke="#000" d="M0 0h200v200h-9v-3.5q-9.8-24.7-27.5-41.5l-7.5-5.5q11.5-4.5 18-14l2-8-2-11q-5-4-5-13 2.2-1.3 1-6l-3-17-4-9-4.5-4.5h-7l-10 4-14 12-9.5-3.5q5.9-8.1 5-23l-6-19q-3.9-11.1-11.5-18.5L96 26.5 92.5 31q-2.2-.7-1.5 1.5l-13 15-4 9-1 10 3 11 2 2-4.5 1.5q-10-11.5-28-15L39 71.5l-8 18-3 23-8 14v11l7.5 10.5 11.5 6.5-10 9-14 21-4 15.5H.5l-.5-.5z" opacity="0"/><path stroke="#000" d="m43.5 68-2 3zm24 9 1 2zm66 1-5 6zm34 11 .5 2.5h-1zm5 29 1.5 2.5-2-1zm-149 4 .5 1.5-2 1zm148 14-1 2zm-4 4-2 3zm-13 8 .5 2.5h-1zm-114 5 .5 1.5-2 1zm119 0 2 3q-2.2.8-1.5-1.5zm11 11 1 2zm-142 2-1 2zm145 2 1 2zm-149 3-1 2zm-5 8-1 2z" opacity=".98"/><path fill="#c31601" stroke="#c31601" d="m104.5 19 4.5 3.5 8 15 5 15 1 13-2 8-7 12.5-8.5 1 2.5-3.5 7-14 1-13Q111.8 41 105 29h-1.5L94 38.5l-11 14-3 12 2 9L92 89l-11-3q-.7-5.6-5-8.5l-3-13q2.8-1.8 1-8l4-9L91 31l5-3.5 1.5-2.5 3.5-1.5z" opacity=".918"/><path fill="#080101" stroke="#080101" d="m45.5 66 3.5.5-3.5.5zm-2 1-4 5zm114 0 2.5 1.5-1.5-.5zm-99 3 1 2zm103 0 1 2zm-20 1-1 2zm-103 2-1 2zm25 0 1 2zm75 0-1 2zm-72 2 1 2zm69 0-7 8zm-65 3 3 4zm47 1 1 2q-2.8.7-1-2Zm4 2 2.5.5-2.5.5zm46 2 .5 2.5h-1zm1 5 .5 3.5h-1zm-137 1 .5 2.5h-1zm-1 5 .5 2.5h-1zm139 3 .5 5.5h-1zm-140 2 .5 4.5h-1zm-1 9 .5 4.5-2 1zm-8 18 .5 2.5h-1zm155 1 .5 2.5h-1zm-2 8-1 2zm-7 7-2 3zm-142 2 3 4zm136 2-1 2-1.5-.5zm-4 2v3q-3-1.5 0-3Zm-126 1 6.5 3.5-1.5.5q-4.6-1.2-5-4Zm128 2 2 3zm-121 4-8 9zm126 0 5 6zm8 9 2 3zm-144 2-3 4zm147 2 2 3zm3 4 1 2zm-156 2-1 2zm158 1 1 2zm3 5 1 2zm-171 17 .5 2.5h-1z" opacity=".329"/><path fill="#1b130d" stroke="#1b130d" d="m45.5 73-1 2zm111 0 1 2zm-113 3-1 2zm21 5 1 2zm73 0-4 5zm25 7 .5 2.5h-1zm-127 19 .5 4.5h-1zm127 1 .5 3.5h-1zm6 2 2 3zm-5 3 2 3zm-129 1-1 2zm25 3-1 2zm3 1 1 2zm-5 3 .5 3.5h-1zm10 1 1 2zm48 4 4.5 3.5-1.5.5zm11 1-1 2zm40 7-3 4zm-139 4 1 2zm134 0-2 3zm-129 5 1 2zm20 8 3.5.5-3.5.5zm74 0 2.5.5-2.5.5zm-67 1 3.5.5-3.5.5zm60 0 3.5.5-3.5.5zm-53 1 2.5.5-2.5.5zm47 0 2.5.5-2.5.5zm37 0 1 2zm-75 1 4.5.5-4.5.5zm28 0 4.5.5-4.5.5zm50 1 3 4zm-107 1-1 2zm4 0 2.5.5-2.5.5zm79 0 2.5.5-2.5.5zm-73 1 3.5.5-3.5.5zm67 0 2.5.5-2.5.5zm-80 1-2 3zm21 0 2.5.5-2.5.5zm51 0 3.5.5-3.5.5zm-43 1 5.5.5-5.5.5zm33 0 4.5.5-4.5.5zm53 0 7 8zm-124 8-3 4zm132 1 3 4zm-119 3 .5 2.5-2 1zm-19 3-1 2zm143 0 1 2zm-126 2-1.5 2.5-.5 1.5-.5-1.5zm-19 1-1 2zm147 0 1 2zm3 5 1 2zm-141 3 .5 1.5-2 1zm-3 6 .5 1.5-1.5 2.5-.5-1.5zm107 1 1.5 3.5-1 4.5-3-1.5-2-5 2 1q-.8 3 3 1.5zm-104 1 .5 1.5-2.5 5.5-.5-1.5z" opacity=".992"/><path fill="#fae1c7" stroke="#fae1c7" d="M46.5 74q5.7-.7 8 2L68 85.5l2 3-7.5 4.5q-3.7-7.2-13-9L46 89.5l-2 16-6.5 6.5q-3.4.9-1.5-4.5l1-1 1-15q2.4-10.6 8.5-17.5Zm106 0q3.8-.7 4.5 1.5l5 16v16q-1.2 2.8-2.5.5l-5.5-4.5 1-6-3-12.5q-10.7.6-15.5 8l-4.5-2 1-3.5 7.5-7.5zm-71 13 5 1 6 5h2l4-4 14-2 5.5 2q1.1 2.7-1.5 2L100 98.5l8 9 1 3.5-16.5-9-14 10q-2.7-1.2-.5-2.5l7.5-9.5q2.3.8 1.5-1.5L79.5 93 75 92q-1.5-3.7 1.5-3zm42 15q9 1.5 13.5 7.5l-1.5 2.5q-15.2 5.3-27 14h-3l-5.5-6.5zm-64 1h5l5.5 4.5 9 11v2l-6.5 5.5L51 109.5zm25 24 17 1 7 3 5.5 5.5q4.4 5.4 3 15.5l-12.5 2h-26l-1-1q-8 .7-12.5-1l-1-6.5q1.9-9.1 8.5-13.5zm-1.5 3-1 1q-4-1-2 4l7 5 5-1 5-6-3-3zm56.5-1q11 .5 16.5 6.5l2 4-5.5 3.5-18.5 6q-3.7-3.4-2-13.5l4.5-5.5zm-100 3q9.8-1.7 12.5 3.5 2.5 3.5 1 11l-2.5 3.5-11-3-9.5-6.5q-.7-3.7 1.5-4.5zm46 38q7.2-.7 10 3 1.3-2.2 6-1l3.5 2q-1.2 3 2.5 2l4-1 3 1 10.5 7.5q-.8 2.6 2.5 1.5l4.5 3.5 4 11.5-93-.5q3.6-12.9 12.5-20.5 7.9-1.6 12-7l5-1q1.4 2.6 6 2z" opacity=".996"/><path fill="#e64d2c" stroke="#e64d2c" d="m100.5 22 .5 1.5-2.5 1.5zm3 7q2.3-.7 1.5 1.5l9 19 2 7v9q-3.1 12.9-11 21l.5 1.5q-2.6.8-1.5-2.5 7.1-8.4 5-26l-2-8-5.5-8.5q-2.2-.7-1.5 1.5-8 6.5-11 18v17l4 9-2.5 1.5v-1q2.3.8 1.5-1.5l-8-10-4-13 3-12zm5 57 3.5.5-3.5.5z" opacity=".996"/><path fill="#400b04" stroke="#400b04" d="m115.5 83-1 2z" opacity=".906"/><path fill="#dc8d4e" stroke="#dc8d4e" d="m100 43 4 2.5 5 14v14L104 88l-5.5 1-4 4h-2l-3-4 2 1 1.5-2.5-4-8v-17l3-8zM49.5 84l2.5.5-4.5 2.5z"/><path fill="#dc8d4e" stroke="#dc8d4e" d="m55.5 86 8 7 6.5-4.5-1.5-2.5q.5 3.5 5 3l3-1v1q-3-.8-1.5 3l4.5 1 7.5 5.5q.8 2.3-1.5 1.5L77 110.5q1.8 3.3 3.5-.5l13-8 15.5 9-1-3.5-8-9 3.5-2.5 14.5-5q1.1-2.7-1.5-2l-3.5-1.5 3.5-.5 14 4h2l4 2 1.5-.5q-2.2 1.3.5 2.5h2l12 9 1-1 5 5 2 1 1.5-.5q.8 2.3-1.5 1.5l-1.5-.5 3 9v9l-5 7v2l2 3-2 1 1-2-3.5-4.5q-5.4-4.6-15-5l-6.5 4.5q-2.7 3.8-1 12l2 3-1.5-.5-11 2-4 2q.4-15.4-9-21l-12-4h-12l-12 5-4.5 4.5q-4 4-4 12l1 3.5-14-2.5q3.8-3.2 2-12l-3.5-4.5q-3.2-2.3-10-1l-9.5 5.5-.5 2.5q-3.9-3.8-2.5-12l2-.5-1-2 8-13.5 8-6.5.5-2.5h2L62 93.5zm68.5 16-24 18 1 2 5 4h2l1 4 8 5q12 2 17-4l4-6q1-8-2-11l1-4q-5-7-13-8Zm-64 1-9 7 5 2 1 2-4-2-3 4q-2 10 2 15l6 4q8 1 11-2l3-4-1-3h2l6-5v-2l-9-11-5-5z"/><path fill="#dc8d4e" stroke="#dc8d4e" d="m78.5 87 2.5.5-2.5.5zm75 3 .5 3.5h-1zm-108 4 .5 2.5h-1zm109 3 .5 4.5h-1zm-118 7 .5 2.5h-1zm8 55h2q7.4 7.6 18 12l6.5.5-3.5.5q-4.1 5.4-12 7l-4.5 4.5-8.5 16.5h-7l-.5-1.5q5.9-15.1 15-27l-2-5.5-3-1.5 1-2zm-6 6-2.5 3.5-4 7.5q3-1 2 2h3v1.5q-7.3 8.1-9 20.5l-10-.5 4-13 7-12.5 3-1.5zm47 4q7.2-.7 10 3 1.3-2.2 6-1l6 4 4-1h2l11 8H136q1.5 3.8-1.5 3l-2.5 1-.5 2q-1.9-3.6-6.5-3l-3.5-5-8-5h-2l-6.5 1q1.1-2.7-1.5-2-1.2-3.2-7-2l-2 1q-2.3-3.8-9-3-3.2 3.3-10 3l-3.5-2.5 1.5.5 5 1zm65 16q15.1 1.9 23.5 10.5l2 4.5h-32.5l-.5-3.5-1-3.5 3-1.5 2.5-4.5z"/><path stroke="#000" d="m153.5 67 3.5.5-3.5.5zm-99 2 4.5 2.5-1.5-.5q-3.7-.3-3-2Zm92 0 1.5.5-3.5 1.5v-1zm-106 2-1 2zm102 0-1 2zm-80 2 1 2zm77 0-1 2zm-101 1-.5 1.5-1.5 3.5-.5-1.5zm27 1 1 2zm71 0-2 3zm-68 2 2 3zm6 4 2.5.5-2.5.5zm93 5 .5 2.5h-1zm-136 6 .5 2.5h-1zm137 0 .5 14.5h-1zm-138 5 .5 3.5h-1zm-1 7 .5 6.5h-1zm141 9 1 2zm-143 1-1 2zm147 8 .5 9.5h-1zm-154 7 .5 6.5h-1zm153 4 .5 1.5-2 1zm-2 4-4 5zm-148 5 6 7zm141 1-1 2zm-7 8 1 2zm-118 2 .5 1.5-12 11zm122 1 9 10zm11 12 1 2zm-146 2-3 4zm149 2 1 2zm2 3 1 2zm-156 2-1 2zm158 1 1 2zm-160 2-1 2zm163 3 2.5 3.5-2-1zm-170 14 .5 2.5h-1z" opacity=".804"/><path fill="#63392b" stroke="#63392b" d="m153.5 73 2.5.5-2.5.5zm-14 7-1 2zm-71 5 2 3zm94 6 .5 2.5h-1zm2 24 1 2zm-105 1-1 2zm65 1q3.3-1.1 2.5 1.5l1 2h-1l-1.5-2.5zm-67 2 .5 1.5-1.5 3.5-.5-2.5zm8 1 1 2zm50 2-1 2zm13 0 .5 3.5-3.5 4.5-1.5-.5 3-2zm40 1 .5 3.5h-1zm-111 2 4 5 4.5.5-4.5.5-4.5-4.5zm13 0 .5 1.5-2.5 3.5-1.5-.5 2-.5zm44 0 2.5 3.5-3-2zm-30 5 7.5.5-7.5.5zm35 0 3.5.5-3.5.5zm-38 1-1 2zm86 1-5 6zm-87 2 2 3zm15 0-1 2zm64 5-1 2zm-130 1 2 3zm104 9 2.5.5-2.5.5zm-5 1 2.5.5-2.5.5zm-72 1 2.5.5-2.5.5zm66 0 3.5.5-3.5.5zm24 1 4.5 2.5-1.5-.5q-3.8-.3-3-2Zm-77 1 2.5.5-2.5.5zm11 1 3.5.5-3.5.5zm16 0 6.5.5-6.5.5zm56 1 13.5 12.5 5 6-2.5.5q-6.5-1-8.5 2.5l-2.5 4.5-5.5 1q1.1 2.7-1.5 2l-6.5 5.5-4 6h2l-1 3h2q.7 3-3 1.5 1.9-5.6-3-4l-.5 2-.5-1.5 1-2h-2l.5-1.5q-2.2.8-1.5-1.5l-1-5.5q5.6 2.2 4-3.5l3-3q-1.5-7 2.5-8.5 3.8.8 4.5-1.5l2.5-4.5 2.5-1.5-1-5zm-105 1 2.5.5-2.5.5zm6 1 2.5.5-2.5.5zm73 0 2.5.5-2.5.5zm-82 1-1 2zm15 0 4.5.5-4.5.5zm60 0 3.5.5-3.5.5zm-52 1 4.5.5-4.5.5zm43 0 5.5.5-5.5.5zm-34 1 30.5.5-30.5.5zm-36 1-5 6zm3 1 2 5 2.5 1.5 1 5L36.5 194l-1.5-.5 1 3h-1l-.5-1.5-.5 2.5 1 2h-1l-.5-1.5-.5 2-3.5-1-1.5.5q2.9-12.1 10-20V177l-4-1 1-4.5zm4.5 9-1 3h1zm-15.5-1-3 4zm139 5 1 2zm2 3 1 2zm3 5 1 2zm7 13 1.5 3.5h-1z" opacity=".996"/><path fill="#a86742" stroke="#a86742" d="m46.5 73-1 2zm17 8 1 2zm74 1-4 5zm-88 3 5 1 7.5 7.5L45.5 104l-.5-6.5 2-10zm100 0 2.5 1.5 2 8v8q-2.3 3.7-4.5-1.5L137 93.5l1-2.5h2q-1.1-2.7 1.5-2zm-37 1 2.5.5-2.5.5zm19 3-1 2-2.5-.5zm31 5 .5 11.5h-1zm-126 6 .5 3.5h-1zm123 9 2.5 1v2.5l6 9 1 7-1 3-7.5 7.5-3.5-2.5v-2l5-7v-9zm10 1 1 2zm-117 2 6.5 3.5-3 8 5.5 7.5q6.2.7 8.5-2.5l1.5-2.5.5 2.5-3 4.5q-3.2 3-11.5 2l-5.5-4.5q-3.8-4.7-2-15zm82 0q2.3-.7 1.5 1.5 3.2 3.3 2 11l-4.5 6.5q-5 5.5-17 4l-7.5-5.5-1-3.5 5.5-3q-.2 4.7 3 6 1.4 2.6 6 2l5.5-3.5 1-5-3-6zm-71 6 1 2zm5 4 2 3zm-42 8 .5 3.5h-1zm69 1 1.5 2.5h-1zm-2 5-2 3zm-7 3 2.5.5-2.5.5zm-53 4 1 2zm96 5q4.8-1.3 3.5 2l-14.5 2v-1zm-77 2 2.5.5-2.5.5zm7 1 2.5.5-2.5.5zm6 1 2.5.5-2.5.5zm7 1 4.5.5-4.5.5zm34 0 4.5.5-4.5.5z" opacity=".996"/><path fill="#a86742" stroke="#a86742" d="m145.5 153 6.5 2-1 6.5 1 2-4 3-2.5 4.5q-4.7-.7-5.5 2.5v6q-4 1.4-3 6.5l-3-.5 2-.5-.5-3h-11l-11-8h-2l-5 1q-1.9-5.1-10-4l-2 1q-2.3-3.8-9-3-3 3-9 3l-4-2q-1.7 2.8-8 1L45 158.5q1.5-3 7.5-1.5l7 2 16 1 1 1h30l1-1h8l1-1 17-2z" opacity=".996"/><path fill="#a86742" stroke="#a86742" d="m84.5 154 11.5.5-11.5.5zm-42 6q3.3-1.1 2.5 1.5v2l1.5 2.5q2.3-.7 1.5 1.5l1 2h-1l-1.5-2.5-2.5-1.5-.5-3.5-8.5 9.5-1 4.5 4 1-1.5 4 .5-1.5q.7-3-3-1.5v-2q-2.7 1.1-2-1.5l4-6-3 1zm-11 12-1 2zm138 1q9.8 11.5 14.5 27h-7.5l-.5-1.5-5.5-6.5-13-6-7-1-4.5 3.5-2.5 4.5q-2.2-.7-1.5 1.5h-1l7.5-9.5 3.5-1q-1.1-2.7 1.5-2l5.5-2.5 2.5-4.5zm-121 1-1 2zm-14 10-1 2zm98 2 .5 3.5h-1zm-100 1 .5 1.5-2.5 4.5-.5-1.5z" opacity=".996"/><path stroke="#000" d="m44.5 68 9 1q11 5 19 13h4q1.3-2.2 2.5.5l2 3-9.5 2.5q-8.9-11.1-24-16L44 74.5l-7 16-2 23q-7.3 7.2-10 19 1.6 8.9 8.5 12.5l19 7h6l8 2h8l1 1h32l1-1 20-2 18-5 13-6 7.5-6.5 3-7q-2.3-1.3-1-6l-6-9v-24l-4-12-2.5-3.5q-15.6 2.4-23.5 12.5l-2.5 3.5-15.5-3 2.5-5 11 3q8.9-13.6 29-16l3.5 2 6 16.5q-1.3 4.8 1 6v18l4 5q-1 5 2 6v11l-5.5 7.5-12 8H154q-1.5 3.8 1.5 3l4.5 3.5q-.8 2.6 2.5 1.5 18.4 17.6 28.5 43.5l-6 .5q-8.3-24.9-26.5-41l-8-6-5-1-12 4-18 2-1 1-36 1-1-1h-10l-1-1-20-2L31 170.5l-7 10-7.5 19.5q-5.4 1.9-4.5-1.5 7.4-27.1 26.5-42.5l2.5-1.5q.8-2.2-1.5-1.5-9.9-3.1-15.5-10.5l-3-8v-5l4-11 5-7q-.2-17.2 5-29l4-9z" opacity=".996"/><path stroke="#000" d="m60.5 117 9.5 7-2.5 5-4 1-4.5-2.5-1-8zm64 1q2.3-.7 1.5 1.5l2 4-3.5 5.5-4 1-5.5-4.5q-1.1-3.3 1.5-2.5zm-40 13q8.2-1.1 11.5 1l-3.5 5q-1.4 2.6-6 2l-5.5-4.5q-1.2-3.7 2.5-2.5z" opacity=".996"/></svg>