<svg xmlns="http://www.w3.org/2000/svg" width="200" height="200"><path stroke="#000" d="m155.5 37 6.5 1 2 8.5h-1q-.2-5.7-3.5-8.5-6.5-1-7.5 3.5-3.7 5.3-4.5 13.5l-.5-4.5q2.1-8.9 8.5-13.5Zm-84 3q5.5-1 6.5 2.5 3.5 4 2 13l-3 10 3.5 5.5 6.5-4.5L98.5 54l10-3 4.5 2.5q4.7 6.1 6 14.5l10 2 2.5-5 6-1 8.5 4 .5-12 .5 14.5-3.5-2.5-6-3h-4l-5 6-7-1-3.5-2.5q-1.5-9.5-7.5-14.5l-5-1Q94.8 55.8 89 64.5L86 70l-5.5 2-4.5-8.5q4.2-5.8 3-17L75.5 41h-3q-14.1 15.4-34 25L30 74.5 26.5 81l-.5-1.5L35.5 67Q55.2 57.2 70 42.5zm93 8q4.9 12.1 15 19l9.5 8.5 6 11 1 12-3 7 3 7v4q-1.5 6.5-6.5 9.5l-5.5 3.5v2l-5.5 5.5-2.5-.5q5.5-.5 7-5l1-4.5q5.9-.9 9-5.5 2.6-2.9 2-9l-3-7q4.2-4.8 3-15-3.1-14.4-13.5-21.5L171 60.5q-5.5-5.2-6.5-12.5Zm-139 34 .5 2.5-1 1v9l3 6v3q-2.8 1.7-2 7l3 5-1.5 2.5-.5-1.5v-2q-2.7-2.3-2-8 2.6-1.4 2-6-4.5-4.5-3-15zm1 37 2.5 10.5h-1q-3.1-3.9-1.5-10.5Zm3 12 1.5 3.5-3 5-5 16-1 20 3 13 5 11h-1l-7-18-1-20 2-10 7-19zm143 6 18.5 18.5 2 4-2-1-1-3zm21 24 3.5 8.5v8h-1v-8zm-8 17 5 5h2l3-4 .5 1.5q-.5 4-5.5 3.5l-4-3q.8 11.8-3 19l-.5-2.5 2-5z" opacity=".086"/><path stroke="#000" d="M0 0h200v200h-15.5l-.5-2.5 2-5 .5-11.5 6 3q6.1-3.4 4.5-14.5l-6-14-18-18 5.5-.5 5.5-5.5q-.5-4 2.5-4.5l7.5-5.5q2.6-2.9 2-9l-3-7q4.2-4.8 3-15l-3-9L180.5 67 169 56.5q-6-7.3-7-18.5l-6.5-1q-6.4 4.6-8.5 13.5L146 68l-8.5-4h-4l-3.5 2.5-1 3.5-10-2q-1.4-9.7-7.5-16l-6-1-7 3L87 65.5 83.5 70l-3 1-3.5-7.5q4.2-5.8 3-17L75.5 40Q71 39 70 41.5L64.5 48q-13.1 10.9-29 19L31 71.5l-7 14v9l3 6v3q-2.8 1.7-2 7l3 5q-2.8 2.7-2 9l4 10-3 5-5 16-1 20 4 16 4 8.5H.5l-.5-.5z" opacity="0"/><path stroke="#000" d="M155.5 38q4.5-1 5.5 1.5Q164.5 56 175.5 65L188 75.5l6 11 1 12-3 7 3 7v4q-1.2 5.8-5.5 8.5l-5.5 2q-.2 6.4-5.5 9l-6.5 1.5 18 18 3 5 3 9v9l-3.5 4.5h-2l-5-5-.5 14.5-2 7.5h-5v-2.5l3-13-1-1v-8l1-2.5 4.5-1 5 4 .5-6.5-5-11-18-18-2-4 2.5-4.5q8.8 1.8 10.5-3.5-1-5.5 2.5-6.5 6.2.7 7.5-3.5l1-6-3-7q4.2-4.8 3-15-3.3-12.2-12.5-18.5L166 62.5 156.5 45l-2.5 3.5-2 8v13l1 3-5 4q.8 2.3-1.5 1.5-3.5-6-11-8-3.5 3.2-3.5 9-5.1.8-6.5-4l-5-1-5.5 1-4-13.5-3.5-4.5Q97 60.1 92 68.5L89 75l-5.5 2-2-1-6.5 1-1-6-4 1-2-4.5 6-12V48L58.5 60 37 73l-6 9.5-1 12 3 6.5-4 2.5q0 9 5 13-3.9 4.1-3 13l5 5-1 1-8 24v17l4 15 5 8-6 .5-7-18.5-1-20 2-10 7-19q-5-4-4-14l2-3q-3.8-2.2-3-9 2.6-1.4 2-6-4.5-4.5-3-15Q28.7 72.7 38.5 66q19.9-9.6 34-25h3q5.3 3.8 3.5 14.5l-3 10 4.5 6.5 5.5-2q3.6-8.4 11.5-14 3.8-3.7 11-4l4.5 3.5 6.5 13.5 9 2 5-6h4l9 6 1.5-20.5q1.8-8.2 7.5-12.5Z" opacity=".961"/><path fill="#48a066" stroke="#48a066" d="M156.5 47q5.6 15.9 18 25l7.5 5.5q7.6 6.4 7 21l-1 2.5q-4.5 1.8-3-3.5-2.2-1.2-1-6l-2.5-3.5-2.5-1.5-1-6-2.5-2.5-6-1q-1.2 2.3-2.5-.5l-1-6q-5.7-4.3-8-12l-2-6zm-85 3q2.6-.8 1.5 2.5L66.5 61 56 69.5 52.5 75l-2-1-3.5 1-3.5 8q-6-1.5-7.5 1.5-1.3 11.8 2 19l-3-2q-5.2-4.3-4-15 2.8-9.2 9.5-14.5 18.2-8.3 31-22Zm31 10 1.5.5Q96 74.8 93 93l-5-3.5-2-5Q89.2 70.7 98.5 63zm-30 12 .5 1.5-12 15-4 11-.5 6.5q-3.9-4.6-2.5-14.5Q57.9 81.4 66.5 76zm67 1 6.5 5.5 6 9v4l-1 3.5-3-1.5-9-19zm-52 41 2 3zm12 2-1 2zm-3 2-1 2zm10 0 1 2zm4 3 1 2zm16 18 .5 2.5h-1zm-66 8 4 5zm29 29L78 188.5l-2 5 1 2.5q7.3 1.3 9-4.5-.7-2.2 1.5-1.5l1.5 1.5-8.5 8.5H73v-15.5l2.5-6.5 6 3h3zm16 1 2 1 1.5-.5v9l3 13-11.5.5v-1l2.5-1.5v-3l-10-10 2.5-2.5 6-1zm50 18 1 2zm-62 2q4-.5 4.5 2.5l-6.5.5z" opacity=".996"/><path fill="#1c3b24" stroke="#1c3b24" d="m72.5 48 1.5.5-5.5 4.5zm36 11 1 2zm44 1 .5 5.5h-1zm-54 2-3 4zm68 1 4 5zm-101 6-2 3zm-25 2-1 2zm113 0 .5 2.5h-1zm-92 1-9 10zm80 1 7 8zm-74 1-1 2zm112 0 2 3zm-143 1-1 2zm26 3-3 4zM80 78q2.7-1.1 2 1.5L80.5 84zm-4.5 2 .5 3.5h-1zm56 0 .5 2.5h-1zm-81 5-.5 1.5-.5 1.5-.5-1.5zm35 0 .5 3.5h-1zm29 0 .5 2.5h-1zm-66 4 .5 2.5h-1zm83 2 .5 2.5h-1zm23 0 .5 2.5h-1zm-82 1-.5 1.5-.5 1.5-.5-1.5zm40 0 .5 1.5-2 1zm49 0-1 2zm28 0 .5 3.5h-1zm-104 3 .5 2.5h-1zm-15 1-3 4zm-38 2 1 2zm21 0 .5 2.5h-1zm56 0-1 2zm-61 1 .5 1.5-2 1zm86 1 8 9zm-69 1-3 4zm42 0-9 10zm-20 2 1.5 2.5-2-1zm43 0 2 3zm-19 1-1 2zm-66 1-1 2zm15 0-1 2zm-10 2 1 2-2.5-.5zm15 1-1 2zm79 1 2.5.5q-2.1 3.3-2.5-.5Zm-53 1 1 2zm15 0 2.5 3.5-3-2zm32 1 1 2zm-83 1 3.5.5-3.5.5zm24 0-1 2zm16 0-1 2-1.5-.5zm-9 1-1 2zm58 2 2.5 1.5-1.5-.5zm-37 3 1 2zm12 8 1 2zm7 8 .5 2.5h-1zm5 2 .5 4.5h-1zm-79 4 .5 10.5h-1zm75 2 .5 2.5h-1zm-66 7 2 3zm116 1 1 2zm-49 2-1 2zm-70 1 2 3zm123 1 2 3zm-123 2 .5 2.5h-1zm60 5 1 2zm-32 1q2.3-.7 1.5 1.5zm-15 1-2 3zm29 1-1 2zm20 0 1 2zm-29 1-1 2-1.5-.5zm-8 1 1 2zm27 2 .5 1.5-1 6.5q-5.4-1.5-7 1.5l-1.5 2.5-4 1-2-1-4.5 4.5 7.5 7.5 2.5 1.5 1 3q-.7 2.3-4.5 1.5l-3-3-5 5-6.5-.5 4.5-5.5 2.5-1.5-1.5-3.5h-2l-7 6q-2.2-.7-1.5-4.5l6.5-7.5 6.5-5.5q1.3-3.7-2.5-2.5l-1.5 3-5.5 2q-1-4-7-3l-1.5.5 1-6.5 3.5 1 2-1 4 3 3-4 1.5 3q3.4.8 4.5-2l6 5 2.5-5h6.5l.5-2h1.5zm13 1 1 2zm-59 4-1 2-1.5-.5zm4 3 .5 1.5-2 1zm4 4 .5 3.5h-1zm38 2 .5 4.5h-1zm33 5 1 2zm7 2 1 2zm-85 1 1 2zm-11 1 1.5.5-2 .5-.5 2-.5-1.5zm95 5 1 2zm6 0 1 2zm-101 1 1 2zm7 1 1 2z"/><path fill="#6b383b" stroke="#6b383b" d="m170.5 87 4.5.5-4.5.5zm1 5 2.5.5-2.5.5zm-4 1 1.5.5-4.5 3.5zm8 0 3.5 4.5h-1zm-23 7-2 3zm27 0 .5 5 6 1.5-2 1q2.8 1.8 1 8l-4.5 6.5q-3-.9-1.5 3.5h-1q1-3.7-2-2.5l-1.5 4-3.5-1.5q-.2-4.7-3.5-6.5l-3.5-1q-1.1-5.5 1.5-8-.2 6.7 4 9 3.3 1.1 2.5-1.5v-2l-1-5 3-5-3.5-1.5-4 5-.5-1.5q1.8-6.2 11.5-4.5l1.5.5zm-21 3 2.5.5-2.5.5zm-126 4 2 3zm0 3 2 3zm119 1 .5 4.5h-1zm-48 4 2 3zm-64 1-2.5 3.5-2 5.5h-2v-5zm-5 1-1 2zm56 0 2 3zm62 0 4.5 3.5-1.5.5zm35 1-2 3zm-39 2 3 4zm10 1q4-.5 4.5 2.5l-.5 1.5-2-3q-3 .5-2-1Zm-1 5 1 2zm6 0 3.5 4.5-4-3zm-99 4q10.2-.2 14.5 5.5l1 5.5q-2.3 2.6-8.5 2l.5-1.5q.9-3-3.5-1.5l-1.5.5-4-9zm12.5 4q-2 3 1 2zm82.5-4 1 2zm-44 1q5.4-.6 7.5 1l-4.5 9-2.5-1q1.8 4.5-3.5 3l-4 1-5.5-3.5q-.6-5.1 2.5-6.5zm12 14 .5 1.5-4 3zM93 162l2 .5-3 2zm-65.5 2 .5 8.5h-1zm90 5-1 2zm-2 13 .5 3.5h-1z" opacity=".996"/><path fill="#2b7a4f" stroke="#2b7a4f" d="m155.5 48 2.5 10.5q2.3 7.7 8 12-.5 5.5 2.5 7.5l5-1 4.5 3.5q-.5 5.5 2.5 7.5l2.5 1.5 1 4h-1l-3.5-4.5q-3-3-10-2l-9.5 5-1-6.5-5-11-1-18zm-83 5 .5 1.5q-2.3 9.7-8.5 15.5L52 81.5q-6.2 5.3-4 19l-4.5 6.5-5.5-2-2-8.5v-12l1.5-1.5q6 1.5 7.5-1.5l2-6.5 3.5-1 2 1 7-9L70 57.5zm-6 1-1 2zm-5 4-1 2zm45 0q8.4 8.6 8.5 25.5-3.7 17.8-16.5 26.5l-5.5 3-5-8.5-3-13 1.5-6.5q.9 5.6 5 8 3 .9 1.5-3.5l8-24 3-5-.5-1.5zm-6 3-1 2zm-5 5-2 3zm78 4 1 2zm-37 1 4.5 2.5h-2L149.5 95q2.6.8 1.5-2.5l1.5-4.5 2.5 8.5q-6.5 5-9.5 13.5l-10.5-9.5q-4.4-5.6-4-16l2-8zm-63 1Q76 77.5 75 86.5 71.3 97.8 62.5 104l-6 3 .5-1.5v-6l3-9zm104 1 1 2zm-109 1-1 2zm-33 3-1 2zm29 0-6 7zm118 1 1 2zm-36 1 2 3zm-57 96 1.5 1.5-12 12-2 5q.8 2.3 4.5 1.5l5-6 3.5 1v1.5l-8.5 8.5 7.5-8.5-1.5-1.5q-2.2-.7-1.5 1.5-1.7 5.7-9 4.5l-1-3.5 9-11-4-1q6.9-.1 8.5-5.5Zm16 1 2.5 1.5-1.5.5-1-1-4.5 3.5zm4 0 .5 10.5h-1zM74 177q4.7-1 6 2.5l-2.5-1.5-3.5 1.5-.5 4.5-.5-4.5zm21.5 4 4.5.5q-5.5-.5-7 3l10 10v3l-2 1 1-4-10-10V183zm-23 4 .5 14.5h-1zm38 4 .5 4.5h-1zm1 6 .5 3.5h-1zm-18 1 6.5 3.5-1.5.5q-.5-3.5-5-3l-3.5 2.5z"/><path fill="#101811" stroke="#101811" d="m66.5 53-2 3zm7 0 .5 2.5h-1zm79 3 .5 3.5h-1zm-91 1-1 2zm45 0 2.5 1.5-1.5-.5zm-6 3-1 2zm64 0 1 2zm-70 6-2 3zm58 0 .5 3.5h-1zm-86 3 3.5 1.5 1 2-12 9-5 7-1 12 4.5 7.5L71 96.5q4.8-5.7 5-16L75 77l7.5-1h2l3-1 .5 1.5-3 9v12l2 7 6 9.5q9.1-3.9 15-12.5l7-14V75l5.5-1-.5 1.5v11l-2 7-12 18q11.2 10.7 26 16.5l-1 12.5q6.7 36.3 27 59l-5.5.5q-16.2-19.8-24-48l-11.5 7.5q13 16 18 40l-5 .5q-3.2-18.1-12.5-31-2.2-.7-1.5 1.5l-1 1v16l3 12-5 .5-3-18.5v-11l4-7q-1.5-4-8.5-2.5l-15 12H88l-6-8.5V162h-2.5l-4.5 4.5-3 14V200h-5v-1.5q-1.4-2.7-6-1.5l1 2.5-6 .5-3-5.5 1-2.5 4.5-1q1.7 2.8 8 1l-2.5-3.5q-6.4-8.1-9-20l-2-11v-17l-1-2 3-12 2.5-3.5q16.2-4 26.5-13l-3-8.5L79.5 89q-3.7 12.3-13 19l-6 4h-6l-4-5-15 27q-6-1.5-4.5-10.5l2 1q-.7 2.6 2 1.5l7-14q-6.2-.4-9.5-5-2.7 1.2-.5 2.5l3 6.5-3-1.5-3-7v-4l4.5-3.5 5 6 6 1 4.5-7.5q-2.5-1.5-1-7 3.5-14 14.5-20.5zM82 77l-2 2 1 5 1-4zm5 36q-11 10-27 14l-2 6q2 6-1 8l3 8 9 6 14 3h19l14-3q8-2 12-8l-2-15-23-18-8 5h-2zm-28 40q-1 12 3 21-1 2 2 1l9-13q-10-2-14-9Zm28 9 2 4q-1 2 2 1l4-5-3 1zm-19 16-2 6 2 1zM173.5 69l1 2zm-38 1 1.5.5-2.5 1.5zm42 2 1 2zm-25 1 5.5 12.5 2 9-2.5 3.5-2 1-1.5-10.5-7-10 3.5-4.5z"/><path fill="#101811" stroke="#101811" d="m127.5 77 4.5 2.5-1 1v13q3.1 10.5 11.5 15.5l3 2 1.5-.5-.5 5.5q-8.9-2.6-13.5-9.5-8.5-7.5-7-25zm55 0 2 3zm7 19 .5 2.5h-1zm0 16 .5 3.5h-1zm-1 6-2 3zm-8 4-1 2zm-12 9-1 2zm1 11 7 8zm15 15 1 2zm-157 2 .5 2.5h-1z"/><path fill="#f9e8e3" stroke="#f9e8e3" d="M168.5 94q3.8-1.2 2.5 2.5l-5.5 8.5-2.5-1.5q.3-7.2 5.5-9.5Zm-83 21h2l6 6 9-6q6 7.8 15.5 11 1.4 4-5.5 2l-4.5 2-1.5 3-3.5 2.5-1 5q2.8 5.3 12.5 3.5l9.5-7.5-1-2 1.5-2.5 1.5 3.5 1 11.5-14.5 8-11 2h-19l-14-3-8.5-7.5-2-9 2.5-6.5 3-2-2.5 3.5v3.5q4.1-1.7 3 2.5 2.9 4.6 9.5 5.5l4-1 3.5-3.5q-.4-5.5-4.5-7.5l-4.5-2.5-1.5-2.5q-3.7 1-2.5-2 10.3-3 17.5-10Zm-47 16 .5 2.5-6 18q1.5 5.5-1 7v22l1 1 1 11h-1l-5-16v-17q3.5-16 10.5-28.5Zm93.5 8 3 1.5 1 8 3 9 9 20 10 14 8 8-6.5.5q-21.4-23.4-27.5-61Zm-15.5 37 10.5 23.5-7.5.5-1.5-1.5-2-10z" opacity=".996"/><path fill="#57b72c" stroke="#57b72c" d="m120 75 2 .5-1.5 2.5zm5.5 1 1 2zm0 5 .5 2.5h-1zm-6 9q1.3 3 5.5 2l.5-2q-.2 7.3 2.5 11.5l10.5 11.5 7.5 4.5 7.5 8.5 4.5 1 4.5 8 3.5 2.5q2.2 8.2 9 12l-10.5.5-21-6-11.5-7.5q-1.1-3.3 1.5-2.5l5 1 2.5-3.5q-20.1-7.4-34-21 9.4-7.1 12.5-20.5Zm-41 4 4.5 14.5-11.5 8.5-14 5-2.5 2.5-3 10v22l4 19 9 16.5-4-.5 2-1-6-5q-6.5-8-9-20 1.2-4.7-1-6v-18l2-11 7-17.5 6.5-1L75 100.5zm-28 14 1 2-2.5-.5zm126 42 1 2zm-12 4 4 5zm16 0 4 5zm-142 2 1.5.5-2 .5-.5 2-.5-1.5zm3 0 1.5 2.5h-1zm129 3 2 3zm-128 1 .5 7.5h-1zm120 0 2 3zm-58 2-1 2zm62 1 1 2zm6 1-1 2-2.5-.5zm-61 2-1 2zm67 1 3.5 1.5-1.5-.5-3.5 1.5-.5 1.5-.5-1.5zm-70 1-1 2zm-71 1q-.5 7.5 4 10l2.5-1.5.5-3.5q1.6 7.9 7.5 11.5l-5.5-4.5-2.5 2.5 2 5 9 11-9.5.5q-9.4-11-8-31Zm146 0 2.5 1.5-1.5.5zm-5 5 .5 2.5h-1zm1 7 .5 7.5h-1zm-125 7 1 2zm-18 10 1 2z"/><path fill="#d36263" stroke="#d36263" d="M169.5 93q7.3-1.2 8.5 3.5l1 7-1.5-.5q-9.7-1.7-11.5 4.5l-2 5v5.5l6 3.5 2.5 5.5 3.5-1.5q-1-3.7 2-2.5 1 5.7-2.5 8l-4 1-4-1-3.5-3.5q-.2-4.7-3.5-6.5-6.4-.1-8.5-4.5-1.2-8.7 3.5-11.5l5-1 2-2 2 3 3.5-2.5 3-8.5zm-2 1-3 4zm17 13 2.5 1.5 2 7-4.5 5.5-2.5-.5q4.3-3.2 3-12zm-152 1q2.7 4.6 8.5 4-.4 4.7-4.5 7l-3 1 1.5-2.5 1-3-4-5zm35 17 .5 2 4 1.5 1.5 2.5 6.5 4.5-.5 1.5-3-4-7-3h-5l-1.5 2.5 4 8.5 4 1.5-1.5.5-5.5-4.5q1.1-4.2-3-2.5v-3.5l.5-1.5-2 1-.5-1.5 1-2.5zm-5.5 4v2l2-1zm56.5-2 7.5 5.5-.5 2.5-1-3-1.5 3.5 1 1-4.5 4.5.5-1.5 3-7.5q-2.1-1.6-7.5-1l-8 2-3.5 2.5-1 5 1.5 2.5q-3.2-.7-2.5-5.5l3.5-4.5 2.5-1.5q-.7-2.2 1.5-1.5l3-2q4.8 1.3 6-1Zm-40 14-1 2-1.5-.5zm39 0-1 2zm-5 2 2.5.5-2.5.5zm13 4-3 4zm-47 9 3.5.5-3.5.5zm24 0 2.5.5-2.5.5zm-14 7 4.5.5-4 2.5zm29 7q9.2 12.2 11.5 30l-3-1.5-9.5-22.5-1 6-.5-7.5zm-50 10 .5 3.5-2-1zM62 197q5.6-1.9 4 3l-4-1.5z" opacity=".996"/><path fill="#30692a" stroke="#30692a" d="m73.5 49 .5 2.5h-1zm98 19 1 2zm-108 2-1 2zm-25 3-1 2zm82 6 .5 2.5h-1zm5 6 .5 3.5h-1zm-95 3 .5 3.5h-1zm134 1-1 2zm15 0 3 4zm-126 5 .5 3.5h-1zm20 7-5 6zm76 2-1 2zm-59 5 1 2zm18 0-1 2zm-56 2 1 2zm45 0-1 2zm34.5 19 8 2.5q-1.7 4-8 2.5zm29.5 4 1 2zm9 11 2 3zm9 8 1 2zm-53 2-1 2zm35.5 1q3.8-.7 5 2.5-.7 2.3 1.5 1.5l3.5 4.5q-1.2 2.8-2.5.5l-7.5-5.5zm-100.5 1 1 2zM39 157l3 1.5q-1.7 11.2 2 17l-4 1.5q1-5.2-2-7.5v-10zm25.5 1 5.5 2.5-2.5.5zm-5 2 .5 2.5h-1zm52 1 1 2zm-33 2-2 3zm42 0 1 2zm-7 1-1 2zm-53 1 .5 2.5h-1zm8 1-1 2zm27 2-1.5 2.5 3 4-4-3zm82.5 0h2v4h1.5l2-1v1l-4 3q-2.4-2.3-1.5-7Zm-111.5 1-1 2zm14 2 3 2 2.5-1.5-3.5 2.5zm-16 1-1 2-1.5-.5zm123 0 2.5 1.5.5-1.5.5 3zm-88 2-1 2zm-11 1-1 2zm16 1-1 2zm2 0 2.5.5-2.5.5zm31 0 1.5 2.5-2-1zm-59 1 2 3zm12 0-5 6zm-5 1-1 2zm10 2 1.5.5-3.5 2.5zm-47 3 6 7 2.5.5-6.5 1.5-5.5-8zm43 1 7 8zm-9 1-3 4zm2 6-3 4zm61 0 1 2zm-68 1 1.5 2.5-2-1zm12 0-1 2zm58 2 1 2zm-62 2-3 4zm16 1-1 2-2.5-.5zm48 0 1 2z"/><path fill="#561d27" stroke="#561d27" d="M168.5 88q10.8-1.8 13.5 4.5l2 7 2.5 2.5q2.3-.7 1.5 1.5l-1 2.5-7-1-1-8.5-3.5-3.5-4-1-4 1-3.5 3.5-2 6.5-8 2-3 6.5v4l4.5 5.5 6.5 2.5q.5 5.6 4.5 7.5l1.5.5-2.5 4.5-4.5-3.5-3.5-6.5q-7.9-1-10.5-7.5v-10l7.5-9.5 4.5-2.5 5.5-6.5z"/><path fill="#561d27" stroke="#561d27" d="m170.5 104 3.5 1.5q-3.6 1.9-3 8l2 3-1 2.5q-3.8.8-5-2.5l-1-7zm16 3 1 2zm-148 11-1 2zm-6 2 .5 3.5h-1zm149 1 2.5.5-2.5.5zm-4 8-1 2zm-101 5 1 2q-2.8.7-1-2Zm-8 6q4.8-1.3 3.5 2-4.2.1-3.5-2Zm47.5 0 2 .5-2 1zm-33.5 17 5.5.5-5.5.5zm8 0 11.5.5-11.5.5z"/><path fill="#348425" stroke="#348425" d="m79.5 92 .5 4.5h-1l-1-3zm35 9-1 2zm16 3 8 9zm-19 1-2 3zm-44 2-2 3zm16 1-2 3zm24 3 3 4zm-29 1-1 2zm43 9 1 2zm11 7 4.5 1.5-2.5.5zm6 2 2.5 1.5-2.5 3.5-4.5-.5q4.7.2 6-3zm30 12 1 2zm5 5 2 3zm-121 6 .5 3.5h-1zm75 1q2.6-.8 1.5 2.5 7.3 25.2 22 43l-14.5.5-1.5-1.5-1-7-5-14-11-18.5zm-68 1q3.6 5.8 11.5 6v2.5l-7.5 9.5q-2.6.8-1.5-2.5l-3-11zm102 0 .5 2.5h-1zm-121 1 1 2zm-2 1 .5 1.5-1 1-.5 9.5-.5-9.5zm124 2 3 4zm7 0 3.5 4.5-2 1 1-2zm-116 2 .5 2.5h-1zm114 2 2.5 1.5-1.5.5zm-125 5 .5 2.5h-1zm138 0 3.5 2.5-4 1.5zm-3 1 .5 2.5h-1zm-139 1q2.4 2.3 1.5 7l3.5-1 .5 1.5-2.5 1.5q-5-2.3-3-9Zm8 11 1.5 3q-3.8-1.5-3 1.5l5.5 6.5q3.8-1.2 2.5 2.5l-7-6-2-5zm3 3 5 6zm12 1 1 2zm-7 13 1 2z"/><path fill="#93ec4d" stroke="#93ec4d" d="M121 76q3.8-1 5 1.5L125 92q-3.8 1-5-1.5zm-70.5 33 1.5 3 4 1-5 11.5-3 11q1.2 4.8-1 6v18l2 10 4 10 7.5 9.5 2.5 1.5-3.5.5-7.5-4.5-7-10q-3.6-6.9-2-19l-1.5-1.5q-3.7-.7-4.5 1.5v21l3 12 5 9-6.5.5-4.5-5.5q1.2-4.7-1-6 1.8-6.3-1-8v-22l3-15 4-10v-4zm82 28 5 4 11 5 16 4h11l4.5 3.5q8.4 6.6 10 20l-4.5-3.5-7-3-2.5 3.5q5.3 7.3 3 22l-3.5 7.5h-9l-8.5-8.5-14-22-8-21-1-8-1.5-1.5q-2.8.7-1-2Zm28.5 17-1 3 2 4q3 4 10 5 2-1 1-4l-8-8zm-51.5 7 2.5 1.5q.8 4.8-2.5 5.5l-2.5 1.5-.5 1.5-5-1-3 5-4.5-3.5 2.5-3.5 9-6zm-29 2q3.8 2.7 4.5 8.5l-3 1.5-.5-2H75v-2.5l3.5-4.5z"/></svg>