<svg xmlns="http://www.w3.org/2000/svg" width="200" height="200"><path stroke="#000" d="m109.5 8 3.5.5q-20.2 4.8-30 20L72.5 44l.5-1.5 3-6L89.5 20q8-8 20-12Zm7 0h4l7.5 5.5 3 6h-1l-5.5-8.5q-2.3-2.7-8-2zm15 13q2.4 3.1 1.5 9.5h-1zm1 17 .5 6.5h-1zm-1 8 .5 3.5h-1zm-61 1-.5 1.5-.5 1.5-.5-1.5zm-2 4 .5 1.5-2.5 6.5-.5-2.5zm62 0 .5 2.5h-1zm2 1 8.5.5-8.5.5zm10 1 6.5 4.5q2.3 3.2 1 10l-3 5q3.5.5 3 5h-1q.5-4.5-3-5 4.5-3.5 3-13l-3.5-4.5q-3.7-.2-3-2Zm52 6 1.5.5q-19.4 7.6-31 23l-2.5 3.5 1.5-2.5 5.5-7.5q10.3-10.7 25-17Zm-129 1 .5 3.5h-1zm-1 5 .5 3.5h-1zm-1 5L62 72.5 60.5 77l-.5-2.5zm-4 8 .5 3.5h-1zm90 3 .5 2.5h-1zm-91 2 .5 4.5h-1zm90 2-3.5 4.5q-2.2 6.3 3.5 4.5l8-5-2 3-6 3h-3q-2.5-1-1.5-5.5zm12 1-2 3zm-103 3 .5 7.5h-1zm-1 9 .5 21.5 2 2-2 .5-1-2.5zm113 14 3.5.5-3.5.5zm10 0 5.5 1.5-1.5.5-4-1zm-14 1 2.5.5-11.5 3.5v-1zm23 2 11.5 8.5-.5 1.5-4-5-6-3zm-47.5 2 14 .5-13 .5q1 3.8-1.5 5l.5-1.5zm-82.5 10 .5 26-5-1.5 1.5-.5 2.5 1zm81 1 .5 17.5h-1zm-105 18 1.5.5-2 .5-1 5.5 1 3h-1l-1-6zm5 0 13.5 4.5-1.5.5-12-4zm101 3 .5 7 2 .5-3 .5zm15 3h9l2.5 2.5v4l-14 16 9 12-2-1-8-11 14-16v-4l-1.5-1.5h-9zm-5 1 3.5.5-3.5.5zm-4 1 2.5.5-4.5 1.5v-1zm-112 3 2.5 5.5h-1zm4 9 1.5 4h-7.5l-2.5 2.5-.5 5.5-.5-5.5q2-5 10-4zm-8 13 .5 2.5L17.5 197l.5-1.5zm133 11 1.5 3.5h-1zm2 5 1.5 4.5h-1z" opacity=".102"/><path fill="#231d2b" stroke="#231d2b" d="m120.5 15 3 4zm-15 1 1.5.5-4.5 2.5 1-2zm-5 3-1 2zm-3 2-8 9zm29 4 .5 3.5h-1zm-39 7-2 3zm-3 4-2 3zm-3 4-1 2zm45 0 .5 2.5h-1zm-47 3-1 2zm46 3 .5 2.5h-1zm-2 9 2 5 2.5.5-2.5.5q-3.8-1.3-2-6Zm10 3 6.5.5-6.5.5zm8 1 1 2zm2 5 .5 2.5-2 1zm-73 2 .5 3.5h-1zm119 2-1 2zm-48 1-1.5 2.5q-.7 4.3 2 5l-3-2q-.7-4.7 2.5-5.5Zm-61 1 4.5.5-4.5.5zm106 0-2 3-5.5 3q1.7 4.1-2.5 3l3-4zm-97 1 2.5.5-2.5.5zm7 1 3.5.5-3.5.5zm-29 2 1.5.5-2 .5-.5 2-.5-1.5zm39 0 3.5.5-3.5.5zm-30 1 5.5.5-5.5.5zm11 1 2.5.5-2.5.5zm28 0 2.5.5-2.5.5zm69 0 4.5.5-4.5.5zm-90 1 3.5.5-3.5.5z" opacity=".996"/><path fill="#231d2b" stroke="#231d2b" d="m180.5 77 2.5.5-2.5.5zm-37 1 .5 3.5h-1zm43 3 2.5.5-2.5.5zm-51 1 3.5 1.5-1.5.5zm7 1-1 2-1.5-.5zm-14 2 5.5 2.5-1.5.5q-4-.5-4-3Zm41 2-1 2zm-34 1 2.5 1.5-1.5-.5zm-72 2 .5 2.5h-1zm99 2-2 3-2 1 1-2zm-6 4-1 2zm-94 3 .5 7.5h-1zm75 5 .5 2.5h-1zm5 0 .5 4.5h-1zm28 2 2.5.5-2.5.5zm9 0 2.5.5-2.5.5zm8 2 2.5 1.5-1.5-.5zm-44 3 2.5.5-2.5.5zm7 0 3.5.5-3.5.5zm43 0 1 2zm-131 1 .5 2.5h-1zm74 1 .5 3.5h-1zm60 0 1 2zm-126 4 20.5.5-20.5.5zm22 0 16.5.5-16.5.5zm35 1 5.5.5-5.5.5zm-61 4 2.5.5-3.5 1.5zm7 0 29.5.5-29.5.5zm51 1 5.5.5-5.5.5zm13.5 0 2 .5-2 1zm-4.5 10 .5 8.5h-1zm-69 6 .5 10.5h-1zm11 1-3 4zm4 3-3.5 4.5-.5 1.5-.5-1.5zm22 0 1 2zm3 2 1 2zM39 152l2 .5-1.5 2.5zm36.5 0 2.5 1.5-1.5.5zm26 1 2.5.5-2.5.5zm-20 1 8.5.5-8.5.5zm30 0-2 3zm-63 1 3.5 1.5-1.5.5zm-8 1 4.5 9.5h-1l-4-8zm94 0 .5 5.5-12.5 17.5-.5-1.5 11-15zm-79 2 1 2zm100 0 3.5.5q-1.2 2.8-2.5.5zm-92 1 .5 26.5-1 1v11h1l2-8 4.5-8.5-.5 1.5-5 17.5-3-.5v-16l1-1zm19 0 6.5.5-6.5.5zm8 0 2.5.5-2.5.5zm9 0 .5 3.5h-1zm57 2-11 12-11 9-6 1-1.5-2.5 4.5-6.5-.5 1.5-3 6.5q6.1.7 9.5-3zm-14 1 1.5.5-8.5 6.5 5-6zm-97 5q2.6 2.4 1.5 8.5-1.2 2.8-6.5 1.5v-1q4.5 1 5.5-1.5zm53 0 .5 2.5h-1zm5 0 .5 2.5h-1zm31 3-2 3zm-77 2 .5 10.5h-1zm29 2-1 2zM35 175l3 .5-2 .5 2 3.5-3-2zm56.5 2-2.5 3.5-.5 1.5-.5-1.5zm54 2h3l4.5 4.5 8 16-2-1q-2.7-12.3-11.5-18.5l-11 8h-2v-1h2zm-106 3 12 14 5.5 3.5-1.5.5L43 188.5zm43 2 .5 8.5h-1zm5 0 .5 6.5h-1zm33 0 4.5 2.5-1.5.5zm-86 2 2.5 1.5-1.5-.5-2 1zm-4 3-2 3zm7 0 2 3zm-11 5-2 3zm15 0 5 6z" opacity=".996"/><path fill="#bf4242" stroke="#bf4242" d="M112.5 14q8.9-.4 11.5 5.5l3 10v10l-4 19q.5 3 4.5 2.5 4-3.5 13-2l3.5 4.5-5 8v3l4 2.5q1.5 5.4-1.5 7l-32-10-24-3-1-1H71l1-10.5 6-14Q86.4 31.4 98.5 21zm-25 127q13.2-.7 18.5 6.5l1 4-6.5 2.5h-22l-3.5-2.5q.7-6.3 5.5-8.5zm1.5 3-4 1q-2 4 3 3l1-3h2zm4.5 15H99v7.5l-1 4.5-5-.5 4-.5 1-10-2.5 1h-12l-1 1 1-2h9zm-9 11q3.8-.7 4.5 1.5l-1.5 2.5-2.5 1.5-1.5 3.5q-2.7-1.2-1.5-6.5zm61 18q4.8.3 6.5 3.5l1 8.5-21-.5q4.7-7.8 13.5-11.5Zm-65 3q2.3-.7 1.5 1.5l2 5q-1 3.5-6.5 2.5l-1.5-3.5 2.5-4.5z" opacity=".996"/><path stroke="#000" d="M0 0h199.5l.5.5V58l-5.5 1-10 5L168 77.5l-6.5 8.5-13 8H145v-4.5q5-3 6-10l-1-4-3-3q4.5-3.5 3-13l-4.5-5.5q-4.4-3.1-13-2l-1.5.5q4-11 2-28-2.1-9.4-8.5-14.5-4.7-3.8-15-2Q96.4 12.4 88 21.5q-11.2 11.8-19 27-4.5 8.6-5 21l-4 5-3 15v8l-1 1v21l1 2.5q3.7-1.3 2 4.5l-1 1V152l-20.5-7-4.5 2.5-1 5 7 16q-8-1-10 4l1 8-12 14-2 5.5H.5l-.5-.5zm173.5 112h5l7 2 13.5 9.5 1 2V200h-32.5l-.5-2.5-7-15-7-8 14-16v-4l-2.5-2.5h-9l-14.5 4v-6.5l-1-1v-20l-1-3q3.9-2.1 3-7.5h12.5z" opacity="0"/><path fill="#5761a9" stroke="#5761a9" d="m199.5 64 .5 12h-15.5l-5 2-.5-2 11.5-8zM67 75l19.5 1 13.5 2.5-25 22L63.5 116l-1.5-8.5 1-1 1-20zm122.5 6q7.5-1 10.5 1v32.5l-1.5.5-10-7-6.5-1.5 3-.5 3-8.5 2-15zm-64 4 12.5 5.5q1.7 8.2-1 12l.5 1.5h-2L121 115l.5 2h8v1h-20l-1-1-13.5-.5 32-30zm40 5-1.5 2.5 1 1 1 13-6.5 3.5-13 2v-1h3.5v-8.5q-1.4-2.7-6-1.5l-.5 5-.5-6h8.5q8.7-3.3 14-10Zm-29 16 .5 6.5h-1zm6 3 1 2q-2.8.7-1-2Zm-7 6 .5 2.5-2.5 1.5v-1q2.9.7 2-3Zm-66 7 3.5.5-4 .5.5 24 2-3-.5 1.5-1 8 .5 1.5-1.5-.5v24l2 .5v1.5l-3 4-4.5 13.5-.5-11.5 1-1v-35l1-1v-14l1-1-1-1v-9zm9 1 2.5.5-2.5.5zm9 0 27.5.5-27.5.5zm32.5 0 11.5 1 1.5 1.5 1 35-11.5 16.5-1.5-3.5v-35l-1-1zm-34.5 12 10.5.5-10.5.5zm12 1 4.5 1.5-1.5.5-3-1zm-20 2-1 2zm26 0 4.5 3.5-2.5-1.5zm-30 3-1 2zm36 2 1 2zm3 6 .5 3.5h-1zM40 153l18 7v11.5l-1 1V199q-7.8-3.2-13-10.5L36 176l9.5 1q3-1.5 1.5-7.5zm71.5 2-1 2zm-40 1 2 3zm82 3q4.4-1.5 3.5 1.5L137.5 179q-3.4 3.7-9.5 3 3.7-11 12.5-18zm-50 11 2.5 1.5-1.5.5zm11 5 7.5 3.5-1.5.5-6-3z" opacity=".996"/><path fill="#5761a9" stroke="#5761a9" d="m95.5 176 9 1 22 11h10l11-8q9.2 6.8 12.5 19.5l-7 .5q1.5-8.2-3.5-11l-4-1q-9.2 3.8-14 12h-40q-5.1-5.4-3.5-17.5l4.5-5.5zm-13 5 .5 2.5h-1zm-48 6 2.5 1.5 9 11-23 .5 9.5-12z" opacity=".996"/><path stroke="#000" d="m113.5 8 2.5.5-2.5.5zm5 1 2.5.5-2.5.5zm4 1 4.5 3.5-2.5-1.5zm-22 3-1 2-2 1 1-2zm27 2 1 2zm-32 1L84 28.5 80.5 33l2.5-3.5zm36 8 .5 2.5h-1zm1 7 .5 6.5h-1zm-53 3L78 36.5 74.5 42l.5-1.5zm52 8 .5 3.5h-1zm-58 1-.5 1.5-3.5 7.5-.5-1.5zm57 5 .5 2.5h-1zm1 5 3.5.5-3.5.5zm7 0 3.5.5-3.5.5zm7 2 2 3zm-79 4 .5 2.5h-1zm-1 5 .5 2.5h-1zm121 0-1 2-2 1 1-2zm-5 3-2 3zm-117 2 .5 1.5-3 2zm113 1-12 13zm-31 3 2.5 3.5h-1zm-86 4 .5 2.5h-1zm89 1 .5 2.5h-1zm-90 4 .5 2.5h-1zm89 1 .5 1.5-4 3zm12 4-2 3-3 2 2-3zm-102 1 .5 4.5h-1zm85 1 1.5 5.5-2 .5zm10 3-1 2-1.5-.5zm-96 5 .5 7.5h-1zm113 14 10.5.5-10.5.5zm-4 1 2.5.5-2.5.5zm19 1 2.5 1.5-1.5-.5zm-128 1 1.5 6.5-2-1zm84 2 4.5.5-4.5.5zm11 0 3.5.5-3.5.5zm41 1 1 2zm3 2 3 4zm-137 6 .5 19.5h-1zm79 0 .5 13.5h-1zm-102 21 2.5.5-4.5 1.5v-1zm103 0 .5 11 2 .5-3 .5zm-106 3 .5 3.5h-1zm19 2 3.5 1.5-1.5.5zm102 2 2.5.5-2.5.5zm10 0 1 2zm-15 1 2.5.5-2.5.5zm16 3 .5 1.5-3 2zm-128 5 1.5 3.5h-1zm125 0-5 6zm-122 7 .5 2h-8.5l-2 2 2-3q6.3 1.8 8-1Zm115 1-3.5 4.5 8 10-2-1-7-9zm-125 12-8 9zm130 4 2.5 4.5h-1zm-140 7-1 2z" opacity=".831"/><path stroke="#000" d="m111.5 9 6.5.5-6.5.5zm-3 1-1 2-2.5-.5zm11.5 0 3 1.5-3 .5zm4.5 2 2 3zm-28 4-2 3zm-9 9 .5 3-3.5 1zm44 2 .5 14.5h-1zm-50 5-.5 1.5-.5 1.5-.5-1.5zm46 6 .5 10-2-.5 1-1zm3 7 .5 2.5h-1zm-1 6 .5 1.5-.5 1.5q3.8-1 2.5 2-5.6 2.2-4-3.5zm6 2 2.5.5-2.5.5zm13 8 .5 4.5h-1zm34 6-1 2zm-4 3-1 2zm-30 7 .5 2.5h-1zm-88 3 .5 2.5h-1zm108 0-.5 1.5q1.3 3.8-2.5 2.5zm-109 5 .5 2.5h-1zm83 6 .5 2.5h-1zm-83 1 .5 8q-3.5 1.1-2-6.5zm95 0-1 2zm-11 3 4.5.5-4.5.5zm-85 9H60v4q-3.7-1.2-2 4 3.7-1.2 2 4-2.7 1.1-2-1.5l-1-1v-8zm83 11 2.5.5-3 .5-.5 4-.5-3.5zm13 0 2.5.5-2.5.5zm-8 1 5.5.5-5.5.5zm-87 5q3 1.5 1.5 7.5h-1q.5-6-.5-7.5Zm79 18 .5 9.5h-1zm-79 6 .5 7.5h-1zm-23 2 3.5.5-3.5.5zm12 3 3.5 1.5-4 .5zm109 3 6.5.5-6.5.5zm-5.5 1q5.2-1.7 4 2-5.2 1.7-4-2Zm12.5 4-1 2zm-2 3-3 4zm-6 7-6 7zm-115 2-1 2zm-11 3 .5 3.5h-1zm0 10-2.5 3.5q.8 2.3-1.5 1.5l-2.5 4-2-.5zm134 13 .5 3.5h-1z" opacity=".996"/><path stroke="#000" d="M109.5 10h10q-1 3 4 2 6 4 7.5 12.5v20L128 56q5.3 1.3 4.5-2h9l5.5 3.5q2.3 3.2 1 10l-3 5q3.7 2.8 4 9l-6 8-1 4 1 2.5 10.5-2 8-7 3.5-1q-1.1-3.3 3-2v-2.5l8.5-9.5q9.8-8.2 23-13l.5 5-9.5 3L175 79.5l1.5.5 4-2 16-2 3.5 1q2.1 5.2-2.5 4l-3-1q-3.2 2.3-10 1l-12 4-17 12-9 3-3-1-1.5 1.5v9l-1 1 6.5 2.5q1.8-2.7 8-1l14-5h14l16.5 9-.5 6q-6.7-7.3-17-11h-14q-8.8 5.7-24 5l-3-1-3 8-2.5 1.5 2 .5v23.5l1 2-1 3 1 5.5 12.5-4 4.5 1 .5-2h8.5q.8 4.5-2 6.5l-13 14q11.7 8.5 14 25.5-3.8 1.5-3-1.5-3.6-13.4-13.5-20.5l-3 1-9 8h-9l-19-10-9-2q-1.2 2.2-6 1l-3.5 2.5q-3.7 4.3-2 14l3 7-5 .5-2-6.5v-11q1.3-5.7 5.5-8.5 2.7-2.8 9-2l1.5-1.5 1-11.5H81.5q-1 0-.5 4.5L69 200h-4v-1.5l9-25 3-14-6-5q-1.8-11.8 5.5-14.5 6.9-5.1 21-3 9 2.4 13.5 9.5l1 4-1 4-2.5 2.5-4.5 1-1 14 20 8 1-3.5 11-15v-16l-1-1v-19l-1-2.5h-11.5l-1-1H65q-2.2 3.6-1 12.5l1 2-1 1v13l-1 1-1 48.5-4-.5v-30l1-1v-8q-7.5-7-20.5-8.5l.5 1.5 7 17v3l-1 2.5-10-1q4.8 12.5 14.5 21l5.5 3.5-6.5.5-13-14h-2l-7.5 7.5-4 6.5-5-.5 5.5-7.5q2.3.8 1.5-1.5l4-2.5 4-8.5q-2.5-1.5-1-7 1.8-3.2 8.5-1.5 1.3 2.3 2.5-.5l-8-17v-4q1.5-3 7.5-1.5l6.5 2q-1.4 3.7 4.5 2l6 3 1.5-2.5v-8l1-1-1-1v-9l1-5v-6q-4-1.4-3-6.5 3.7 1.2 2-4-3.7 1.2-2-4 3.7 1.2 2-4-3.7 1.2-2-4l2-.5v-7l-1-4 3-14 4-6v-4l4-14L79 35q2.7 1.1 2-1.5l4.5-5.5q4.2 1.3 2.5-3.5L98.5 15l6-3h3zm4.5 3-15 7Q86 31 77 46l-6 14-1 10 6 1h11l1 1 12 1 5 2h5l24 7 6 3q4 1 4-2 1-8-4-9l4-7q1-8-3-9-9-1-12 2-4 0-5-2l2-8q-1-3 2-2V32q-2-2-1-7l-3-7q-3-5-10-5ZM66 74l-4 22v19l1 2 2 1h55l1 1h15l1-1q-1-5 1-6l1-22-11-6h-4l-7-3-17-4zm23 66-11 4-4 6 1 3 6 2 24-1 3-2-1-4q-6-8-18-8Zm65 18-15 6-12 17q-2 1 1 2l8-1 14-12 10-11z"/><path fill="#050507" stroke="#050507" d="m113.5 13 2.5.5-2.5.5zm8 2 2 3zm-33 15-1 2zm39 1 .5 6.5h-1zm-43 4-1 2zm40 23 1 2zm-49 12 4.5.5-4.5.5zm106 3-1 2zm-112 1 2.5.5-2.5.5zm71 0 3 4zm-58 1 2.5.5-2.5.5zm8 1 2.5.5-2.5.5zm99 0 3.5.5-3.5.5zm8 0 2.5.5-2.5.5zm-134 11 .5 2.5h-1zm74 1 1.5 1.5v11h-1v-11zm27 2-1 2zm-102 5 .5 3.5h-1zm81 4 2.5.5-3 .5-.5 4-.5-3.5zm30 7 5.5.5-5.5.5zm-36 1 .5 4.5h-1zm4 3 1 2zm-77 7 5.5.5-5.5.5zm56 1 6.5.5-6.5.5zm-17 4 17.5.5-17.5.5zm27 1 2.5.5-2.5.5zm7 0 .5 2-2-.5zm-73 1 .5 10.5h-1zm69 1 .5 7.5h-1zm-47 11 8.5.5-8.5.5zm2 4 3.5.5-3.5.5zm18 1 3 4zm-29 3-1 2zm57 1 .5 10.5h-1zm-64 3 .5 4.5h-1zm-7 3 .5 7.5h-1zm48 0 .5 2.5h-1zm-21 3 5.5.5-5.5.5zm-18 2 1 2zm-16 2 2 3zm48 0 .5 2.5h-1zm55 0-2 3zm-101 4 .5 6.5h-1zm41 1 .5 2.5h-1zm34 0-1 2zm5 1-2 3zm15 1-4 5zm-23 2-1 2zm4 2-1 2zm-36 1-1 2-3.5-.5zm-36 1 .5 11.5h-1zm65 0-1 2zm17 2-5 6zm-57 1-2 3zm3 3-1 2zm54 2-4 5zm-8 1-1 2zm-21 1 4.5 2.5-1.5-.5q-3.8-.2-3-2Zm11 0 1 2zm-69 2 .5 16.5h-1zm96 1 1 2zm-16 1-1 2zm-104 1-2 3zm8 0 1 2zm87 1 5.5.5-5.5.5zm-91 1 1 2zm-10 4-1 2zm13 0 7 8zm7 1 2 3zm-24 4-1 2z" opacity=".976"/><path fill="#d6dde7" stroke="#d6dde7" d="m99.5 79 16 3 11.5 4.5L94.5 117H64q3.7-11 12.5-18zm86 3q6.3-2.2 4.5 3.5l-1 1-1 11-3 8.5h-16.5l-2.5 1q1.4-9.3-2-14.5 8.1-7.9 21.5-10.5ZM144 101q4.6-1.2 6 1.5v8.5h-5.5q-2.2-.7-1.5-4.5zm-8.5 3q2.3-.7 1.5 1.5l-2 12.5-14-1q-1.1-2.7 1.5-2zM69 123l11.5 1q1.3-2.2 6-1l1 1h27l5.5-1v14.5l1 1v35l1 4.5-18-7 1-11.5 1.5-1.5 5.5-2.5 1-6q-1.8-7.2-7.5-10.5l-10-4h-10q-8.6 1.9-13.5 7.5l-2.5 4.5z" opacity=".996"/><path fill="#d6dde7" stroke="#d6dde7" d="m88.5 144 2.5.5-2 .5-1.5 3q-4.2 1.1-2.5-3zm-19 10 4 5q4.2-1.3 2.5 3.5L71 179l-2-.5zm27 6q2.8-.6 1.5 5.5l-1 4.5-7.5 2q-.7-2.7-5-2-3.7 1.3-2.5 7.5l1 3-1 1v9.5l-5 2.5-1 5 .5 1.5-6.5-.5q7.3-15.7 11-35l2.5-3.5h12zm-13 38 .5 2-2-.5z" opacity=".996"/></svg>