<svg width="200" height="200" version="1.1" xmlns="http://www.w3.org/2000/svg" desc="Created with imagetracer.js version 1.2.6" ><path fill="rgb(0,0,0)" stroke="rgb(0,0,0)" stroke-width="1" opacity="0.10196078431372549" d="M 109.5 8 L 113 8.5 Q 92.8 13.3 83 28.5 L 72.5 44 L 73 42.5 L 76 36.5 L 89.5 20 Q 97.5 12 109.5 8 Z " /><path fill="rgb(0,0,0)" stroke="rgb(0,0,0)" stroke-width="1" opacity="0.10196078431372549" d="M 116.5 8 L 120.5 8 L 128 13.5 L 131 19.5 L 130 19.5 L 124.5 11 Q 122.2 8.3 116.5 9 L 116.5 8 Z " /><path fill="rgb(0,0,0)" stroke="rgb(0,0,0)" stroke-width="1" opacity="0.10196078431372549" d="M 131.5 21 Q 133.9 24.1 133 30.5 L 132 30.5 L 131.5 21 Z " /><path fill="rgb(0,0,0)" stroke="rgb(0,0,0)" stroke-width="1" opacity="0.10196078431372549" d="M 132.5 38 L 133 44.5 L 132 44.5 L 132.5 38 Z " /><path fill="rgb(0,0,0)" stroke="rgb(0,0,0)" stroke-width="1" opacity="0.10196078431372549" d="M 131.5 46 L 132 49.5 L 131 49.5 L 131.5 46 Z " /><path fill="rgb(0,0,0)" stroke="rgb(0,0,0)" stroke-width="1" opacity="0.10196078431372549" d="M 70.5 47 L 70 48.5 L 69.5 50 L 69 48.5 L 70.5 47 Z " /><path fill="rgb(0,0,0)" stroke="rgb(0,0,0)" stroke-width="1" opacity="0.10196078431372549" d="M 68.5 51 L 69 52.5 L 66.5 59 L 66 56.5 L 68.5 51 Z " /><path fill="rgb(0,0,0)" stroke="rgb(0,0,0)" stroke-width="1" opacity="0.10196078431372549" d="M 130.5 51 L 131 53.5 L 130 53.5 L 130.5 51 Z " /><path fill="rgb(0,0,0)" stroke="rgb(0,0,0)" stroke-width="1" opacity="0.10196078431372549" d="M 132.5 52 L 141 52.5 L 132.5 53 L 132.5 52 Z " /><path fill="rgb(0,0,0)" stroke="rgb(0,0,0)" stroke-width="1" opacity="0.10196078431372549" d="M 142.5 53 L 149 57.5 Q 151.3 60.7 150 67.5 L 147 72.5 Q 150.5 73 150 77.5 L 149 77.5 Q 149.5 73 146 72.5 Q 150.5 69 149 59.5 L 145.5 55 Q 141.8 54.8 142.5 53 Z " /><path fill="rgb(0,0,0)" stroke="rgb(0,0,0)" stroke-width="1" opacity="0.10196078431372549" d="M 194.5 59 L 196 59.5 Q 176.6 67.1 165 82.5 L 162.5 86 L 164 83.5 L 169.5 76 Q 179.8 65.3 194.5 59 Z " /><path fill="rgb(0,0,0)" stroke="rgb(0,0,0)" stroke-width="1" opacity="0.10196078431372549" d="M 65.5 60 L 66 63.5 L 65 63.5 L 65.5 60 Z " /><path fill="rgb(0,0,0)" stroke="rgb(0,0,0)" stroke-width="1" opacity="0.10196078431372549" d="M 64.5 65 L 65 68.5 L 64 68.5 L 64.5 65 Z " /><path fill="rgb(0,0,0)" stroke="rgb(0,0,0)" stroke-width="1" opacity="0.10196078431372549" d="M 63.5 70 L 62 72.5 L 60.5 77 L 60 74.5 L 63.5 70 Z " /><path fill="rgb(0,0,0)" stroke="rgb(0,0,0)" stroke-width="1" opacity="0.10196078431372549" d="M 59.5 78 L 60 81.5 L 59 81.5 L 59.5 78 Z " /><path fill="rgb(0,0,0)" stroke="rgb(0,0,0)" stroke-width="1" opacity="0.10196078431372549" d="M 149.5 81 L 150 83.5 L 149 83.5 L 149.5 81 Z " /><path fill="rgb(0,0,0)" stroke="rgb(0,0,0)" stroke-width="1" opacity="0.10196078431372549" d="M 58.5 83 L 59 87.5 L 58 87.5 L 58.5 83 Z " /><path fill="rgb(0,0,0)" stroke="rgb(0,0,0)" stroke-width="1" opacity="0.10196078431372549" d="M 148.5 85 L 145 89.5 Q 142.8 95.8 148.5 94 L 156.5 89 L 154.5 92 L 148.5 95 L 145.5 95 Q 143 94 144 89.5 L 148.5 85 Z " /><path fill="rgb(0,0,0)" stroke="rgb(0,0,0)" stroke-width="1" opacity="0.10196078431372549" d="M 160.5 86 L 158.5 89 L 160.5 86 Z " /><path fill="rgb(0,0,0)" stroke="rgb(0,0,0)" stroke-width="1" opacity="0.10196078431372549" d="M 57.5 89 L 58 96.5 L 57 96.5 L 57.5 89 Z " /><path fill="rgb(0,0,0)" stroke="rgb(0,0,0)" stroke-width="1" opacity="0.10196078431372549" d="M 56.5 98 L 57 119.5 L 59 121.5 L 57 122 L 56 119.5 L 56.5 98 Z " /><path fill="rgb(0,0,0)" stroke="rgb(0,0,0)" stroke-width="1" opacity="0.10196078431372549" d="M 169.5 112 L 173 112.5 L 169.5 113 L 169.5 112 Z " /><path fill="rgb(0,0,0)" stroke="rgb(0,0,0)" stroke-width="1" opacity="0.10196078431372549" d="M 179.5 112 L 185 113.5 L 183.5 114 L 179.5 113 L 179.5 112 Z " /><path fill="rgb(0,0,0)" stroke="rgb(0,0,0)" stroke-width="1" opacity="0.10196078431372549" d="M 165.5 113 L 168 113.5 L 156.5 117 L 156.5 116 L 165.5 113 Z " /><path fill="rgb(0,0,0)" stroke="rgb(0,0,0)" stroke-width="1" opacity="0.10196078431372549" d="M 188.5 115 L 200 123.5 L 199.5 125 L 195.5 120 L 189.5 117 L 188.5 115 Z " /><path fill="rgb(0,0,0)" stroke="rgb(0,0,0)" stroke-width="1" opacity="0.10196078431372549" d="M 141 117 L 155 117.5 L 142 118 Q 143 121.8 140.5 123 L 141 121.5 L 141 117 Z " /><path fill="rgb(0,0,0)" stroke="rgb(0,0,0)" stroke-width="1" opacity="0.10196078431372549" d="M 58.5 127 L 59 153 L 54 151.5 L 55.5 151 L 58 152 L 58.5 127 Z " /><path fill="rgb(0,0,0)" stroke="rgb(0,0,0)" stroke-width="1" opacity="0.10196078431372549" d="M 139.5 128 L 140 145.5 L 139 145.5 L 139.5 128 Z " /><path fill="rgb(0,0,0)" stroke="rgb(0,0,0)" stroke-width="1" opacity="0.10196078431372549" d="M 34.5 146 L 36 146.5 L 34 147 L 33 152.5 L 34 155.5 L 33 155.5 L 32 149.5 L 34.5 146 Z " /><path fill="rgb(0,0,0)" stroke="rgb(0,0,0)" stroke-width="1" opacity="0.10196078431372549" d="M 39.5 146 L 53 150.5 L 51.5 151 L 39.5 147 L 39.5 146 Z " /><path fill="rgb(0,0,0)" stroke="rgb(0,0,0)" stroke-width="1" opacity="0.10196078431372549" d="M 140.5 149 L 141 156 L 143 156.5 L 140 157 L 140.5 149 Z " /><path fill="rgb(0,0,0)" stroke="rgb(0,0,0)" stroke-width="1" opacity="0.10196078431372549" d="M 155.5 152 L 164.5 152 L 167 154.5 L 167 158.5 L 153 174.5 L 162 186.5 L 160 185.5 L 152 174.5 L 166 158.5 L 166 154.5 L 164.5 153 L 155.5 153 L 155.5 152 Z " /><path fill="rgb(0,0,0)" stroke="rgb(0,0,0)" stroke-width="1" opacity="0.10196078431372549" d="M 150.5 153 L 154 153.5 L 150.5 154 L 150.5 153 Z " /><path fill="rgb(0,0,0)" stroke="rgb(0,0,0)" stroke-width="1" opacity="0.10196078431372549" d="M 146.5 154 L 149 154.5 L 144.5 156 L 144.5 155 L 146.5 154 Z " /><path fill="rgb(0,0,0)" stroke="rgb(0,0,0)" stroke-width="1" opacity="0.10196078431372549" d="M 34.5 157 L 37 162.5 L 36 162.5 L 34.5 157 Z " /><path fill="rgb(0,0,0)" stroke="rgb(0,0,0)" stroke-width="1" opacity="0.10196078431372549" d="M 38.5 166 L 40 170 L 32.5 170 L 30 172.5 L 29.5 178 L 29 172.5 Q 31 167.5 39 168.5 L 38.5 166 Z " /><path fill="rgb(0,0,0)" stroke="rgb(0,0,0)" stroke-width="1" opacity="0.10196078431372549" d="M 30.5 179 L 31 181.5 L 17.5 197 L 18 195.5 L 30.5 179 Z " /><path fill="rgb(0,0,0)" stroke="rgb(0,0,0)" stroke-width="1" opacity="0.10196078431372549" d="M 163.5 190 L 165 193.5 L 164 193.5 L 163.5 190 Z " /><path fill="rgb(0,0,0)" stroke="rgb(0,0,0)" stroke-width="1" opacity="0.10196078431372549" d="M 165.5 195 L 167 199.5 L 166 199.5 L 165.5 195 Z " /><path fill="rgb(35,29,43)" stroke="rgb(35,29,43)" stroke-width="1" opacity="0.996078431372549" d="M 120.5 15 L 123.5 19 L 120.5 15 Z " /><path fill="rgb(35,29,43)" stroke="rgb(35,29,43)" stroke-width="1" opacity="0.996078431372549" d="M 105.5 16 L 107 16.5 L 102.5 19 L 103.5 17 L 105.5 16 Z " /><path fill="rgb(35,29,43)" stroke="rgb(35,29,43)" stroke-width="1" opacity="0.996078431372549" d="M 100.5 19 L 99.5 21 L 100.5 19 Z " /><path fill="rgb(35,29,43)" stroke="rgb(35,29,43)" stroke-width="1" opacity="0.996078431372549" d="M 97.5 21 L 89.5 30 L 97.5 21 Z " /><path fill="rgb(35,29,43)" stroke="rgb(35,29,43)" stroke-width="1" opacity="0.996078431372549" d="M 126.5 25 L 127 28.5 L 126 28.5 L 126.5 25 Z " /><path fill="rgb(35,29,43)" stroke="rgb(35,29,43)" stroke-width="1" opacity="0.996078431372549" d="M 87.5 32 L 85.5 35 L 87.5 32 Z " /><path fill="rgb(35,29,43)" stroke="rgb(35,29,43)" stroke-width="1" opacity="0.996078431372549" d="M 84.5 36 L 82.5 39 L 84.5 36 Z " /><path fill="rgb(35,29,43)" stroke="rgb(35,29,43)" stroke-width="1" opacity="0.996078431372549" d="M 81.5 40 L 80.5 42 L 81.5 40 Z " /><path fill="rgb(35,29,43)" stroke="rgb(35,29,43)" stroke-width="1" opacity="0.996078431372549" d="M 126.5 40 L 127 42.5 L 126 42.5 L 126.5 40 Z " /><path fill="rgb(35,29,43)" stroke="rgb(35,29,43)" stroke-width="1" opacity="0.996078431372549" d="M 79.5 43 L 78.5 45 L 79.5 43 Z " /><path fill="rgb(35,29,43)" stroke="rgb(35,29,43)" stroke-width="1" opacity="0.996078431372549" d="M 125.5 46 L 126 48.5 L 125 48.5 L 125.5 46 Z " /><path fill="rgb(35,29,43)" stroke="rgb(35,29,43)" stroke-width="1" opacity="0.996078431372549" d="M 123.5 55 L 125.5 60 L 128 60.5 L 125.5 61 Q 121.7 59.7 123.5 55 Z " /><path fill="rgb(35,29,43)" stroke="rgb(35,29,43)" stroke-width="1" opacity="0.996078431372549" d="M 133.5 58 L 140 58.5 L 133.5 59 L 133.5 58 Z " /><path fill="rgb(35,29,43)" stroke="rgb(35,29,43)" stroke-width="1" opacity="0.996078431372549" d="M 141.5 59 L 142.5 61 L 141.5 59 Z " /><path fill="rgb(35,29,43)" stroke="rgb(35,29,43)" stroke-width="1" opacity="0.996078431372549" d="M 143.5 64 L 144 66.5 L 142 67.5 L 143.5 64 Z " /><path fill="rgb(35,29,43)" stroke="rgb(35,29,43)" stroke-width="1" opacity="0.996078431372549" d="M 70.5 66 L 71 69.5 L 70 69.5 L 70.5 66 Z " /><path fill="rgb(35,29,43)" stroke="rgb(35,29,43)" stroke-width="1" opacity="0.996078431372549" d="M 189.5 68 L 188.5 70 L 189.5 68 Z " /><path fill="rgb(35,29,43)" stroke="rgb(35,29,43)" stroke-width="1" opacity="0.996078431372549" d="M 141.5 69 L 140 71.5 Q 139.3 75.8 142 76.5 L 139 74.5 Q 138.3 69.8 141.5 69 Z " /><path fill="rgb(35,29,43)" stroke="rgb(35,29,43)" stroke-width="1" opacity="0.996078431372549" d="M 80.5 70 L 85 70.5 L 80.5 71 L 80.5 70 Z " /><path fill="rgb(35,29,43)" stroke="rgb(35,29,43)" stroke-width="1" opacity="0.996078431372549" d="M 186.5 70 L 184.5 73 L 179 76 Q 180.7 80.1 176.5 79 L 179.5 75 L 186.5 70 Z " /><path fill="rgb(35,29,43)" stroke="rgb(35,29,43)" stroke-width="1" opacity="0.996078431372549" d="M 89.5 71 L 92 71.5 L 89.5 72 L 89.5 71 Z " /><path fill="rgb(35,29,43)" stroke="rgb(35,29,43)" stroke-width="1" opacity="0.996078431372549" d="M 96.5 72 L 100 72.5 L 96.5 73 L 96.5 72 Z " /><path fill="rgb(35,29,43)" stroke="rgb(35,29,43)" stroke-width="1" opacity="0.996078431372549" d="M 67.5 74 L 69 74.5 L 67 75 L 66.5 77 L 66 75.5 L 67.5 74 Z " /><path fill="rgb(35,29,43)" stroke="rgb(35,29,43)" stroke-width="1" opacity="0.996078431372549" d="M 106.5 74 L 110 74.5 L 106.5 75 L 106.5 74 Z " /><path fill="rgb(35,29,43)" stroke="rgb(35,29,43)" stroke-width="1" opacity="0.996078431372549" d="M 76.5 75 L 82 75.5 L 76.5 76 L 76.5 75 Z " /><path fill="rgb(35,29,43)" stroke="rgb(35,29,43)" stroke-width="1" opacity="0.996078431372549" d="M 87.5 76 L 90 76.5 L 87.5 77 L 87.5 76 Z " /><path fill="rgb(35,29,43)" stroke="rgb(35,29,43)" stroke-width="1" opacity="0.996078431372549" d="M 115.5 76 L 118 76.5 L 115.5 77 L 115.5 76 Z " /><path fill="rgb(35,29,43)" stroke="rgb(35,29,43)" stroke-width="1" opacity="0.996078431372549" d="M 184.5 76 L 189 76.5 L 184.5 77 L 184.5 76 Z " /><path fill="rgb(35,29,43)" stroke="rgb(35,29,43)" stroke-width="1" opacity="0.996078431372549" d="M 94.5 77 L 98 77.5 L 94.5 78 L 94.5 77 Z " /><path fill="rgb(35,29,43)" stroke="rgb(35,29,43)" stroke-width="1" opacity="0.996078431372549" d="M 180.5 77 L 183 77.5 L 180.5 78 L 180.5 77 Z " /><path fill="rgb(35,29,43)" stroke="rgb(35,29,43)" stroke-width="1" opacity="0.996078431372549" d="M 143.5 78 L 144 81.5 L 143 81.5 L 143.5 78 Z " /><path fill="rgb(35,29,43)" stroke="rgb(35,29,43)" stroke-width="1" opacity="0.996078431372549" d="M 186.5 81 L 189 81.5 L 186.5 82 L 186.5 81 Z " /><path fill="rgb(35,29,43)" stroke="rgb(35,29,43)" stroke-width="1" opacity="0.996078431372549" d="M 135.5 82 L 139 83.5 L 137.5 84 L 135.5 82 Z " /><path fill="rgb(35,29,43)" stroke="rgb(35,29,43)" stroke-width="1" opacity="0.996078431372549" d="M 142.5 83 L 141.5 85 L 140 84.5 L 142.5 83 Z " /><path fill="rgb(35,29,43)" stroke="rgb(35,29,43)" stroke-width="1" opacity="0.996078431372549" d="M 128.5 85 L 134 87.5 L 132.5 88 Q 128.5 87.5 128.5 85 Z " /><path fill="rgb(35,29,43)" stroke="rgb(35,29,43)" stroke-width="1" opacity="0.996078431372549" d="M 169.5 87 L 168.5 89 L 169.5 87 Z " /><path fill="rgb(35,29,43)" stroke="rgb(35,29,43)" stroke-width="1" opacity="0.996078431372549" d="M 135.5 88 L 138 89.5 L 136.5 89 L 135.5 88 Z " /><path fill="rgb(35,29,43)" stroke="rgb(35,29,43)" stroke-width="1" opacity="0.996078431372549" d="M 63.5 90 L 64 92.5 L 63 92.5 L 63.5 90 Z " /><path fill="rgb(35,29,43)" stroke="rgb(35,29,43)" stroke-width="1" opacity="0.996078431372549" d="M 162.5 92 L 160.5 95 L 158.5 96 L 159.5 94 L 162.5 92 Z " /><path fill="rgb(35,29,43)" stroke="rgb(35,29,43)" stroke-width="1" opacity="0.996078431372549" d="M 156.5 96 L 155.5 98 L 156.5 96 Z " /><path fill="rgb(35,29,43)" stroke="rgb(35,29,43)" stroke-width="1" opacity="0.996078431372549" d="M 62.5 99 L 63 106.5 L 62 106.5 L 62.5 99 Z " /><path fill="rgb(35,29,43)" stroke="rgb(35,29,43)" stroke-width="1" opacity="0.996078431372549" d="M 137.5 104 L 138 106.5 L 137 106.5 L 137.5 104 Z " /><path fill="rgb(35,29,43)" stroke="rgb(35,29,43)" stroke-width="1" opacity="0.996078431372549" d="M 142.5 104 L 143 108.5 L 142 108.5 L 142.5 104 Z " /><path fill="rgb(35,29,43)" stroke="rgb(35,29,43)" stroke-width="1" opacity="0.996078431372549" d="M 170.5 106 L 173 106.5 L 170.5 107 L 170.5 106 Z " /><path fill="rgb(35,29,43)" stroke="rgb(35,29,43)" stroke-width="1" opacity="0.996078431372549" d="M 179.5 106 L 182 106.5 L 179.5 107 L 179.5 106 Z " /><path fill="rgb(35,29,43)" stroke="rgb(35,29,43)" stroke-width="1" opacity="0.996078431372549" d="M 187.5 108 L 190 109.5 L 188.5 109 L 187.5 108 Z " /><path fill="rgb(35,29,43)" stroke="rgb(35,29,43)" stroke-width="1" opacity="0.996078431372549" d="M 143.5 111 L 146 111.5 L 143.5 112 L 143.5 111 Z " /><path fill="rgb(35,29,43)" stroke="rgb(35,29,43)" stroke-width="1" opacity="0.996078431372549" d="M 150.5 111 L 154 111.5 L 150.5 112 L 150.5 111 Z " /><path fill="rgb(35,29,43)" stroke="rgb(35,29,43)" stroke-width="1" opacity="0.996078431372549" d="M 193.5 111 L 194.5 113 L 193.5 111 Z " /><path fill="rgb(35,29,43)" stroke="rgb(35,29,43)" stroke-width="1" opacity="0.996078431372549" d="M 62.5 112 L 63 114.5 L 62 114.5 L 62.5 112 Z " /><path fill="rgb(35,29,43)" stroke="rgb(35,29,43)" stroke-width="1" opacity="0.996078431372549" d="M 136.5 113 L 137 116.5 L 136 116.5 L 136.5 113 Z " /><path fill="rgb(35,29,43)" stroke="rgb(35,29,43)" stroke-width="1" opacity="0.996078431372549" d="M 196.5 113 L 197.5 115 L 196.5 113 Z " /><path fill="rgb(35,29,43)" stroke="rgb(35,29,43)" stroke-width="1" opacity="0.996078431372549" d="M 70.5 117 L 91 117.5 L 70.5 118 L 70.5 117 Z " /><path fill="rgb(35,29,43)" stroke="rgb(35,29,43)" stroke-width="1" opacity="0.996078431372549" d="M 92.5 117 L 109 117.5 L 92.5 118 L 92.5 117 Z " /><path fill="rgb(35,29,43)" stroke="rgb(35,29,43)" stroke-width="1" opacity="0.996078431372549" d="M 127.5 118 L 133 118.5 L 127.5 119 L 127.5 118 Z " /><path fill="rgb(35,29,43)" stroke="rgb(35,29,43)" stroke-width="1" opacity="0.996078431372549" d="M 66.5 122 L 69 122.5 L 65.5 124 L 66.5 122 Z " /><path fill="rgb(35,29,43)" stroke="rgb(35,29,43)" stroke-width="1" opacity="0.996078431372549" d="M 73.5 122 L 103 122.5 L 73.5 123 L 73.5 122 Z " /><path fill="rgb(35,29,43)" stroke="rgb(35,29,43)" stroke-width="1" opacity="0.996078431372549" d="M 124.5 123 L 130 123.5 L 124.5 124 L 124.5 123 Z " /><path fill="rgb(35,29,43)" stroke="rgb(35,29,43)" stroke-width="1" opacity="0.996078431372549" d="M 138 123 L 140 123.5 L 138 124.5 L 138 123 Z " /><path fill="rgb(35,29,43)" stroke="rgb(35,29,43)" stroke-width="1" opacity="0.996078431372549" d="M 133.5 133 L 134 141.5 L 133 141.5 L 133.5 133 Z " /><path fill="rgb(35,29,43)" stroke="rgb(35,29,43)" stroke-width="1" opacity="0.996078431372549" d="M 64.5 139 L 65 149.5 L 64 149.5 L 64.5 139 Z " /><path fill="rgb(35,29,43)" stroke="rgb(35,29,43)" stroke-width="1" opacity="0.996078431372549" d="M 75.5 140 L 72.5 144 L 75.5 140 Z " /><path fill="rgb(35,29,43)" stroke="rgb(35,29,43)" stroke-width="1" opacity="0.996078431372549" d="M 79.5 143 L 76 147.5 L 75.5 149 L 75 147.5 L 79.5 143 Z " /><path fill="rgb(35,29,43)" stroke="rgb(35,29,43)" stroke-width="1" opacity="0.996078431372549" d="M 101.5 143 L 102.5 145 L 101.5 143 Z " /><path fill="rgb(35,29,43)" stroke="rgb(35,29,43)" stroke-width="1" opacity="0.996078431372549" d="M 104.5 145 L 105.5 147 L 104.5 145 Z " /><path fill="rgb(35,29,43)" stroke="rgb(35,29,43)" stroke-width="1" opacity="0.996078431372549" d="M 39 152 L 41 152.5 L 39.5 155 L 39 152 Z " /><path fill="rgb(35,29,43)" stroke="rgb(35,29,43)" stroke-width="1" opacity="0.996078431372549" d="M 75.5 152 L 78 153.5 L 76.5 154 L 75.5 152 Z " /><path fill="rgb(35,29,43)" stroke="rgb(35,29,43)" stroke-width="1" opacity="0.996078431372549" d="M 101.5 153 L 104 153.5 L 101.5 154 L 101.5 153 Z " /><path fill="rgb(35,29,43)" stroke="rgb(35,29,43)" stroke-width="1" opacity="0.996078431372549" d="M 81.5 154 L 90 154.5 L 81.5 155 L 81.5 154 Z " /><path fill="rgb(35,29,43)" stroke="rgb(35,29,43)" stroke-width="1" opacity="0.996078431372549" d="M 111.5 154 L 109.5 157 L 111.5 154 Z " /><path fill="rgb(35,29,43)" stroke="rgb(35,29,43)" stroke-width="1" opacity="0.996078431372549" d="M 48.5 155 L 52 156.5 L 50.5 157 L 48.5 155 Z " /><path fill="rgb(35,29,43)" stroke="rgb(35,29,43)" stroke-width="1" opacity="0.996078431372549" d="M 40.5 156 L 45 165.5 L 44 165.5 L 40 157.5 L 40.5 156 Z " /><path fill="rgb(35,29,43)" stroke="rgb(35,29,43)" stroke-width="1" opacity="0.996078431372549" d="M 134.5 156 L 135 161.5 L 122.5 179 L 122 177.5 L 133 162.5 L 134.5 156 Z " /><path fill="rgb(35,29,43)" stroke="rgb(35,29,43)" stroke-width="1" opacity="0.996078431372549" d="M 55.5 158 L 56.5 160 L 55.5 158 Z " /><path fill="rgb(35,29,43)" stroke="rgb(35,29,43)" stroke-width="1" opacity="0.996078431372549" d="M 155.5 158 L 159 158.5 Q 157.8 161.3 156.5 159 L 155.5 158 Z " /><path fill="rgb(35,29,43)" stroke="rgb(35,29,43)" stroke-width="1" opacity="0.996078431372549" d="M 63.5 159 L 64 185.5 L 63 186.5 L 63 197.5 L 64 197.5 L 66 189.5 L 70.5 181 L 70 182.5 L 65 200 L 62 199.5 L 62 183.5 L 63 182.5 L 63.5 159 Z " /><path fill="rgb(35,29,43)" stroke="rgb(35,29,43)" stroke-width="1" opacity="0.996078431372549" d="M 82.5 159 L 89 159.5 L 82.5 160 L 82.5 159 Z " /><path fill="rgb(35,29,43)" stroke="rgb(35,29,43)" stroke-width="1" opacity="0.996078431372549" d="M 90.5 159 L 93 159.5 L 90.5 160 L 90.5 159 Z " /><path fill="rgb(35,29,43)" stroke="rgb(35,29,43)" stroke-width="1" opacity="0.996078431372549" d="M 99.5 159 L 100 162.5 L 99 162.5 L 99.5 159 Z " /><path fill="rgb(35,29,43)" stroke="rgb(35,29,43)" stroke-width="1" opacity="0.996078431372549" d="M 156.5 161 L 145.5 173 L 134.5 182 L 128.5 183 L 127 180.5 L 131.5 174 L 131 175.5 L 128 182 Q 134.1 182.7 137.5 179 L 156.5 161 Z " /><path fill="rgb(35,29,43)" stroke="rgb(35,29,43)" stroke-width="1" opacity="0.996078431372549" d="M 142.5 162 L 144 162.5 L 135.5 169 L 140.5 163 L 142.5 162 Z " /><path fill="rgb(35,29,43)" stroke="rgb(35,29,43)" stroke-width="1" opacity="0.996078431372549" d="M 45.5 167 Q 48.1 169.4 47 175.5 Q 45.8 178.3 40.5 177 L 40.5 176 Q 45 177 46 174.5 L 45.5 167 Z " /><path fill="rgb(35,29,43)" stroke="rgb(35,29,43)" stroke-width="1" opacity="0.996078431372549" d="M 98.5 167 L 99 169.5 L 98 169.5 L 98.5 167 Z " /><path fill="rgb(35,29,43)" stroke="rgb(35,29,43)" stroke-width="1" opacity="0.996078431372549" d="M 103.5 167 L 104 169.5 L 103 169.5 L 103.5 167 Z " /><path fill="rgb(35,29,43)" stroke="rgb(35,29,43)" stroke-width="1" opacity="0.996078431372549" d="M 134.5 170 L 132.5 173 L 134.5 170 Z " /><path fill="rgb(35,29,43)" stroke="rgb(35,29,43)" stroke-width="1" opacity="0.996078431372549" d="M 57.5 172 L 58 182.5 L 57 182.5 L 57.5 172 Z " /><path fill="rgb(35,29,43)" stroke="rgb(35,29,43)" stroke-width="1" opacity="0.996078431372549" d="M 86.5 174 L 85.5 176 L 86.5 174 Z " /><path fill="rgb(35,29,43)" stroke="rgb(35,29,43)" stroke-width="1" opacity="0.996078431372549" d="M 35 175 L 38 175.5 L 36 176 L 38 179.5 L 35 177.5 L 35 175 Z " /><path fill="rgb(35,29,43)" stroke="rgb(35,29,43)" stroke-width="1" opacity="0.996078431372549" d="M 91.5 177 L 89 180.5 L 88.5 182 L 88 180.5 L 91.5 177 Z " /><path fill="rgb(35,29,43)" stroke="rgb(35,29,43)" stroke-width="1" opacity="0.996078431372549" d="M 145.5 179 L 148.5 179 L 153 183.5 L 161 199.5 L 159 198.5 Q 156.3 186.2 147.5 180 L 136.5 188 L 134.5 188 L 134.5 187 L 136.5 187 L 145.5 179 Z " /><path fill="rgb(35,29,43)" stroke="rgb(35,29,43)" stroke-width="1" opacity="0.996078431372549" d="M 39.5 182 L 51.5 196 L 57 199.5 L 55.5 200 L 43 188.5 L 39.5 182 Z " /><path fill="rgb(35,29,43)" stroke="rgb(35,29,43)" stroke-width="1" opacity="0.996078431372549" d="M 82.5 184 L 83 192.5 L 82 192.5 L 82.5 184 Z " /><path fill="rgb(35,29,43)" stroke="rgb(35,29,43)" stroke-width="1" opacity="0.996078431372549" d="M 87.5 184 L 88 190.5 L 87 190.5 L 87.5 184 Z " /><path fill="rgb(35,29,43)" stroke="rgb(35,29,43)" stroke-width="1" opacity="0.996078431372549" d="M 120.5 184 L 125 186.5 L 123.5 187 L 120.5 184 Z " /><path fill="rgb(35,29,43)" stroke="rgb(35,29,43)" stroke-width="1" opacity="0.996078431372549" d="M 34.5 186 L 37 187.5 L 35.5 187 L 33.5 188 L 34.5 186 Z " /><path fill="rgb(35,29,43)" stroke="rgb(35,29,43)" stroke-width="1" opacity="0.996078431372549" d="M 30.5 189 L 28.5 192 L 30.5 189 Z " /><path fill="rgb(35,29,43)" stroke="rgb(35,29,43)" stroke-width="1" opacity="0.996078431372549" d="M 37.5 189 L 39.5 192 L 37.5 189 Z " /><path fill="rgb(35,29,43)" stroke="rgb(35,29,43)" stroke-width="1" opacity="0.996078431372549" d="M 26.5 194 L 24.5 197 L 26.5 194 Z " /><path fill="rgb(35,29,43)" stroke="rgb(35,29,43)" stroke-width="1" opacity="0.996078431372549" d="M 41.5 194 L 46.5 200 L 41.5 194 Z " /><path fill="rgb(191,66,66)" stroke="rgb(191,66,66)" stroke-width="1" opacity="0.996078431372549" d="M 112.5 14 Q 121.4 13.6 124 19.5 L 127 29.5 L 127 39.5 L 123 58.5 Q 123.5 61.5 127.5 61 Q 131.5 57.5 140.5 59 L 144 63.5 L 139 71.5 L 139 74.5 L 143 77 Q 144.5 82.4 141.5 84 L 109.5 74 L 85.5 71 L 84.5 70 L 71 70 L 72 59.5 L 78 45.5 Q 86.4 31.4 98.5 21 L 112.5 14 Z " /><path fill="rgb(191,66,66)" stroke="rgb(191,66,66)" stroke-width="1" opacity="0.996078431372549" d="M 87.5 141 Q 100.7 140.3 106 147.5 L 107 151.5 L 100.5 154 L 78.5 154 L 75 151.5 Q 75.7 145.2 80.5 143 L 87.5 141 Z M 89 144 L 85 145 Q 83 149 88 148 L 89 145 L 91 145 L 89 144 Z " /><path fill="rgb(191,66,66)" stroke="rgb(191,66,66)" stroke-width="1" opacity="0.996078431372549" d="M 93.5 159 L 99 159 L 99 166.5 L 98 171 L 93 170.5 L 97 170 L 98 160 L 95.5 161 L 83.5 161 L 82.5 162 L 83.5 160 L 92.5 160 L 93.5 159 Z " /><path fill="rgb(191,66,66)" stroke="rgb(191,66,66)" stroke-width="1" opacity="0.996078431372549" d="M 84.5 170 Q 88.3 169.3 89 171.5 L 87.5 174 L 85 175.5 L 83.5 179 Q 80.8 177.8 82 172.5 L 84.5 170 Z " /><path fill="rgb(191,66,66)" stroke="rgb(191,66,66)" stroke-width="1" opacity="0.996078431372549" d="M 145.5 188 Q 150.3 188.3 152 191.5 L 153 200 L 132 199.5 Q 136.7 191.7 145.5 188 Z " /><path fill="rgb(191,66,66)" stroke="rgb(191,66,66)" stroke-width="1" opacity="0.996078431372549" d="M 80.5 191 Q 82.8 190.3 82 192.5 L 84 197.5 Q 83 201 77.5 200 L 76 196.5 L 78.5 192 L 80.5 191 Z " /><path fill="rgb(0,0,0)" stroke="rgb(0,0,0)" stroke-width="1" opacity="0" d="M 0 0 L 199.5 0 L 200 0.5 L 200 58 L 194.5 59 L 184.5 64 L 168 77.5 L 161.5 86 L 148.5 94 L 145 94 L 145 89.5 Q 150 86.5 151 79.5 L 150 75.5 L 147 72.5 Q 151.5 69 150 59.5 L 145.5 54 Q 141.1 50.9 132.5 52 L 131 52.5 Q 135 41.5 133 24.5 Q 130.9 15.1 124.5 10 Q 119.8 6.2 109.5 8 Q 96.4 12.4 88 21.5 Q 76.8 33.3 69 48.5 Q 64.5 57.1 64 69.5 L 60 74.5 L 57 89.5 L 57 97.5 L 56 98.5 L 56 119.5 L 57 122 Q 60.7 120.7 59 126.5 L 58 127.5 L 58 152 L 37.5 145 L 33 147.5 L 32 152.5 L 39 168.5 Q 31 167.5 29 172.5 L 30 180.5 L 18 194.5 L 16 200 L 0.5 200 L 0 199.5 L 0 0 Z " /><path fill="rgb(0,0,0)" stroke="rgb(0,0,0)" stroke-width="1" opacity="0" d="M 173.5 112 L 178.5 112 L 185.5 114 L 199 123.5 L 200 125.5 L 200 200 L 167.5 200 L 167 197.5 L 160 182.5 L 153 174.5 L 167 158.5 L 167 154.5 L 164.5 152 L 155.5 152 L 141 156 L 141 149.5 L 140 148.5 L 140 128.5 L 139 125.5 Q 142.9 123.4 142 118 L 154.5 118 L 173.5 112 Z " /><path fill="rgb(87,97,169)" stroke="rgb(87,97,169)" stroke-width="1" opacity="0.996078431372549" d="M 199.5 64 L 200 76 L 184.5 76 L 179.5 78 L 179 76 L 190.5 68 L 199.5 64 Z " /><path fill="rgb(87,97,169)" stroke="rgb(87,97,169)" stroke-width="1" opacity="0.996078431372549" d="M 67 75 L 86.5 76 L 100 78.5 L 75 100.5 L 63.5 116 L 62 107.5 L 63 106.5 L 64 86.5 L 67 75 Z " /><path fill="rgb(87,97,169)" stroke="rgb(87,97,169)" stroke-width="1" opacity="0.996078431372549" d="M 189.5 81 Q 197 80 200 82 L 200 114.5 L 198.5 115 L 188.5 108 L 182 106.5 L 185 106 L 188 97.5 L 190 82.5 L 189.5 81 Z " /><path fill="rgb(87,97,169)" stroke="rgb(87,97,169)" stroke-width="1" opacity="0.996078431372549" d="M 125.5 85 L 138 90.5 Q 139.7 98.7 137 102.5 L 137.5 104 L 135.5 104 L 121 115 L 121.5 117 L 129.5 117 L 129.5 118 L 109.5 118 L 108.5 117 L 95 116.5 L 127 86.5 L 125.5 85 Z " /><path fill="rgb(87,97,169)" stroke="rgb(87,97,169)" stroke-width="1" opacity="0.996078431372549" d="M 165.5 90 L 164 92.5 L 165 93.5 L 166 106.5 L 159.5 110 L 146.5 112 L 146.5 111 L 150 111 L 150 102.5 Q 148.6 99.8 144 101 L 143.5 106 L 143 100 L 151.5 100 Q 160.2 96.7 165.5 90 Z " /><path fill="rgb(87,97,169)" stroke="rgb(87,97,169)" stroke-width="1" opacity="0.996078431372549" d="M 136.5 106 L 137 112.5 L 136 112.5 L 136.5 106 Z " /><path fill="rgb(87,97,169)" stroke="rgb(87,97,169)" stroke-width="1" opacity="0.996078431372549" d="M 142.5 109 L 143.5 111 Q 140.7 111.7 142.5 109 Z " /><path fill="rgb(87,97,169)" stroke="rgb(87,97,169)" stroke-width="1" opacity="0.996078431372549" d="M 135.5 115 L 136 117.5 L 133.5 119 L 133.5 118 Q 136.4 118.7 135.5 115 Z " /><path fill="rgb(87,97,169)" stroke="rgb(87,97,169)" stroke-width="1" opacity="0.996078431372549" d="M 69.5 122 L 73 122.5 L 69 123 L 69.5 147 L 71.5 144 L 71 145.5 L 70 153.5 L 70.5 155 L 69 154.5 L 69 178.5 L 71 179 L 71 180.5 L 68 184.5 L 63.5 198 L 63 186.5 L 64 185.5 L 64 150.5 L 65 149.5 L 65 135.5 L 66 134.5 L 65 133.5 L 65 124.5 L 69.5 122 Z " /><path fill="rgb(87,97,169)" stroke="rgb(87,97,169)" stroke-width="1" opacity="0.996078431372549" d="M 78.5 123 L 81 123.5 L 78.5 124 L 78.5 123 Z " /><path fill="rgb(87,97,169)" stroke="rgb(87,97,169)" stroke-width="1" opacity="0.996078431372549" d="M 87.5 123 L 115 123.5 L 87.5 124 L 87.5 123 Z " /><path fill="rgb(87,97,169)" stroke="rgb(87,97,169)" stroke-width="1" opacity="0.996078431372549" d="M 120 123 L 131.5 124 L 133 125.5 L 134 160.5 L 122.5 177 L 121 173.5 L 121 138.5 L 120 137.5 L 120 123 Z " /><path fill="rgb(87,97,169)" stroke="rgb(87,97,169)" stroke-width="1" opacity="0.996078431372549" d="M 85.5 135 L 96 135.5 L 85.5 136 L 85.5 135 Z " /><path fill="rgb(87,97,169)" stroke="rgb(87,97,169)" stroke-width="1" opacity="0.996078431372549" d="M 97.5 136 L 102 137.5 L 100.5 138 L 97.5 137 L 97.5 136 Z " /><path fill="rgb(87,97,169)" stroke="rgb(87,97,169)" stroke-width="1" opacity="0.996078431372549" d="M 77.5 138 L 76.5 140 L 77.5 138 Z " /><path fill="rgb(87,97,169)" stroke="rgb(87,97,169)" stroke-width="1" opacity="0.996078431372549" d="M 103.5 138 L 108 141.5 L 105.5 140 L 103.5 138 Z " /><path fill="rgb(87,97,169)" stroke="rgb(87,97,169)" stroke-width="1" opacity="0.996078431372549" d="M 73.5 141 L 72.5 143 L 73.5 141 Z " /><path fill="rgb(87,97,169)" stroke="rgb(87,97,169)" stroke-width="1" opacity="0.996078431372549" d="M 109.5 143 L 110.5 145 L 109.5 143 Z " /><path fill="rgb(87,97,169)" stroke="rgb(87,97,169)" stroke-width="1" opacity="0.996078431372549" d="M 112.5 149 L 113 152.5 L 112 152.5 L 112.5 149 Z " /><path fill="rgb(87,97,169)" stroke="rgb(87,97,169)" stroke-width="1" opacity="0.996078431372549" d="M 40 153 L 58 160 L 58 171.5 L 57 172.5 L 57 199 Q 49.2 195.8 44 188.5 L 36 176 L 45.5 177 Q 48.5 175.5 47 169.5 L 40 153 Z " /><path fill="rgb(87,97,169)" stroke="rgb(87,97,169)" stroke-width="1" opacity="0.996078431372549" d="M 111.5 155 L 110.5 157 L 111.5 155 Z " /><path fill="rgb(87,97,169)" stroke="rgb(87,97,169)" stroke-width="1" opacity="0.996078431372549" d="M 71.5 156 L 73.5 159 L 71.5 156 Z " /><path fill="rgb(87,97,169)" stroke="rgb(87,97,169)" stroke-width="1" opacity="0.996078431372549" d="M 153.5 159 Q 157.9 157.5 157 160.5 L 137.5 179 Q 134.1 182.7 128 182 Q 131.7 171 140.5 164 L 153.5 159 Z " /><path fill="rgb(87,97,169)" stroke="rgb(87,97,169)" stroke-width="1" opacity="0.996078431372549" d="M 103.5 170 L 106 171.5 L 104.5 172 L 103.5 170 Z " /><path fill="rgb(87,97,169)" stroke="rgb(87,97,169)" stroke-width="1" opacity="0.996078431372549" d="M 114.5 175 L 122 178.5 L 120.5 179 L 114.5 176 L 114.5 175 Z " /><path fill="rgb(87,97,169)" stroke="rgb(87,97,169)" stroke-width="1" opacity="0.996078431372549" d="M 95.5 176 L 104.5 177 L 126.5 188 L 136.5 188 L 147.5 180 Q 156.7 186.8 160 199.5 L 153 200 Q 154.5 191.8 149.5 189 L 145.5 188 Q 136.3 191.8 131.5 200 L 91.5 200 Q 86.4 194.6 88 182.5 L 92.5 177 L 95.5 176 Z " /><path fill="rgb(87,97,169)" stroke="rgb(87,97,169)" stroke-width="1" opacity="0.996078431372549" d="M 82.5 181 L 83 183.5 L 82 183.5 L 82.5 181 Z " /><path fill="rgb(87,97,169)" stroke="rgb(87,97,169)" stroke-width="1" opacity="0.996078431372549" d="M 34.5 187 L 37 188.5 L 46 199.5 L 23 200 L 32.5 188 L 34.5 187 Z " /><path fill="rgb(0,0,0)" stroke="rgb(0,0,0)" stroke-width="1" opacity="0.8313725490196079" d="M 113.5 8 L 116 8.5 L 113.5 9 L 113.5 8 Z " /><path fill="rgb(0,0,0)" stroke="rgb(0,0,0)" stroke-width="1" opacity="0.8313725490196079" d="M 118.5 9 L 121 9.5 L 118.5 10 L 118.5 9 Z " /><path fill="rgb(0,0,0)" stroke="rgb(0,0,0)" stroke-width="1" opacity="0.8313725490196079" d="M 122.5 10 L 127 13.5 L 124.5 12 L 122.5 10 Z " /><path fill="rgb(0,0,0)" stroke="rgb(0,0,0)" stroke-width="1" opacity="0.8313725490196079" d="M 100.5 13 L 99.5 15 L 97.5 16 L 98.5 14 L 100.5 13 Z " /><path fill="rgb(0,0,0)" stroke="rgb(0,0,0)" stroke-width="1" opacity="0.8313725490196079" d="M 127.5 15 L 128.5 17 L 127.5 15 Z " /><path fill="rgb(0,0,0)" stroke="rgb(0,0,0)" stroke-width="1" opacity="0.8313725490196079" d="M 95.5 16 L 84 28.5 L 80.5 33 L 83 29.5 L 95.5 16 Z " /><path fill="rgb(0,0,0)" stroke="rgb(0,0,0)" stroke-width="1" opacity="0.8313725490196079" d="M 131.5 24 L 132 26.5 L 131 26.5 L 131.5 24 Z " /><path fill="rgb(0,0,0)" stroke="rgb(0,0,0)" stroke-width="1" opacity="0.8313725490196079" d="M 132.5 31 L 133 37.5 L 132 37.5 L 132.5 31 Z " /><path fill="rgb(0,0,0)" stroke="rgb(0,0,0)" stroke-width="1" opacity="0.8313725490196079" d="M 79.5 34 L 78 36.5 L 74.5 42 L 75 40.5 L 79.5 34 Z " /><path fill="rgb(0,0,0)" stroke="rgb(0,0,0)" stroke-width="1" opacity="0.8313725490196079" d="M 131.5 42 L 132 45.5 L 131 45.5 L 131.5 42 Z " /><path fill="rgb(0,0,0)" stroke="rgb(0,0,0)" stroke-width="1" opacity="0.8313725490196079" d="M 73.5 43 L 73 44.5 L 69.5 52 L 69 50.5 L 73.5 43 Z " /><path fill="rgb(0,0,0)" stroke="rgb(0,0,0)" stroke-width="1" opacity="0.8313725490196079" d="M 130.5 48 L 131 50.5 L 130 50.5 L 130.5 48 Z " /><path fill="rgb(0,0,0)" stroke="rgb(0,0,0)" stroke-width="1" opacity="0.8313725490196079" d="M 131.5 53 L 135 53.5 L 131.5 54 L 131.5 53 Z " /><path fill="rgb(0,0,0)" stroke="rgb(0,0,0)" stroke-width="1" opacity="0.8313725490196079" d="M 138.5 53 L 142 53.5 L 138.5 54 L 138.5 53 Z " /><path fill="rgb(0,0,0)" stroke="rgb(0,0,0)" stroke-width="1" opacity="0.8313725490196079" d="M 145.5 55 L 147.5 58 L 145.5 55 Z " /><path fill="rgb(0,0,0)" stroke="rgb(0,0,0)" stroke-width="1" opacity="0.8313725490196079" d="M 66.5 59 L 67 61.5 L 66 61.5 L 66.5 59 Z " /><path fill="rgb(0,0,0)" stroke="rgb(0,0,0)" stroke-width="1" opacity="0.8313725490196079" d="M 65.5 64 L 66 66.5 L 65 66.5 L 65.5 64 Z " /><path fill="rgb(0,0,0)" stroke="rgb(0,0,0)" stroke-width="1" opacity="0.8313725490196079" d="M 186.5 64 L 185.5 66 L 183.5 67 L 184.5 65 L 186.5 64 Z " /><path fill="rgb(0,0,0)" stroke="rgb(0,0,0)" stroke-width="1" opacity="0.8313725490196079" d="M 181.5 67 L 179.5 70 L 181.5 67 Z " /><path fill="rgb(0,0,0)" stroke="rgb(0,0,0)" stroke-width="1" opacity="0.8313725490196079" d="M 64.5 69 L 65 70.5 L 62 72.5 L 64.5 69 Z " /><path fill="rgb(0,0,0)" stroke="rgb(0,0,0)" stroke-width="1" opacity="0.8313725490196079" d="M 177.5 70 L 165.5 83 L 177.5 70 Z " /><path fill="rgb(0,0,0)" stroke="rgb(0,0,0)" stroke-width="1" opacity="0.8313725490196079" d="M 146.5 73 L 149 76.5 L 148 76.5 L 146.5 73 Z " /><path fill="rgb(0,0,0)" stroke="rgb(0,0,0)" stroke-width="1" opacity="0.8313725490196079" d="M 60.5 77 L 61 79.5 L 60 79.5 L 60.5 77 Z " /><path fill="rgb(0,0,0)" stroke="rgb(0,0,0)" stroke-width="1" opacity="0.8313725490196079" d="M 149.5 78 L 150 80.5 L 149 80.5 L 149.5 78 Z " /><path fill="rgb(0,0,0)" stroke="rgb(0,0,0)" stroke-width="1" opacity="0.8313725490196079" d="M 59.5 82 L 60 84.5 L 59 84.5 L 59.5 82 Z " /><path fill="rgb(0,0,0)" stroke="rgb(0,0,0)" stroke-width="1" opacity="0.8313725490196079" d="M 148.5 83 L 149 84.5 L 145 87.5 L 148.5 83 Z " /><path fill="rgb(0,0,0)" stroke="rgb(0,0,0)" stroke-width="1" opacity="0.8313725490196079" d="M 160.5 87 L 158.5 90 L 155.5 92 L 157.5 89 L 160.5 87 Z " /><path fill="rgb(0,0,0)" stroke="rgb(0,0,0)" stroke-width="1" opacity="0.8313725490196079" d="M 58.5 88 L 59 92.5 L 58 92.5 L 58.5 88 Z " /><path fill="rgb(0,0,0)" stroke="rgb(0,0,0)" stroke-width="1" opacity="0.8313725490196079" d="M 143.5 89 L 145 94.5 L 143 95 L 143.5 89 Z " /><path fill="rgb(0,0,0)" stroke="rgb(0,0,0)" stroke-width="1" opacity="0.8313725490196079" d="M 153.5 92 L 152.5 94 L 151 93.5 L 153.5 92 Z " /><path fill="rgb(0,0,0)" stroke="rgb(0,0,0)" stroke-width="1" opacity="0.8313725490196079" d="M 57.5 97 L 58 104.5 L 57 104.5 L 57.5 97 Z " /><path fill="rgb(0,0,0)" stroke="rgb(0,0,0)" stroke-width="1" opacity="0.8313725490196079" d="M 170.5 111 L 181 111.5 L 170.5 112 L 170.5 111 Z " /><path fill="rgb(0,0,0)" stroke="rgb(0,0,0)" stroke-width="1" opacity="0.8313725490196079" d="M 166.5 112 L 169 112.5 L 166.5 113 L 166.5 112 Z " /><path fill="rgb(0,0,0)" stroke="rgb(0,0,0)" stroke-width="1" opacity="0.8313725490196079" d="M 185.5 113 L 188 114.5 L 186.5 114 L 185.5 113 Z " /><path fill="rgb(0,0,0)" stroke="rgb(0,0,0)" stroke-width="1" opacity="0.8313725490196079" d="M 57.5 114 L 59 120.5 L 57 119.5 L 57.5 114 Z " /><path fill="rgb(0,0,0)" stroke="rgb(0,0,0)" stroke-width="1" opacity="0.8313725490196079" d="M 141.5 116 L 146 116.5 L 141.5 117 L 141.5 116 Z " /><path fill="rgb(0,0,0)" stroke="rgb(0,0,0)" stroke-width="1" opacity="0.8313725490196079" d="M 152.5 116 L 156 116.5 L 152.5 117 L 152.5 116 Z " /><path fill="rgb(0,0,0)" stroke="rgb(0,0,0)" stroke-width="1" opacity="0.8313725490196079" d="M 193.5 117 L 194.5 119 L 193.5 117 Z " /><path fill="rgb(0,0,0)" stroke="rgb(0,0,0)" stroke-width="1" opacity="0.8313725490196079" d="M 196.5 119 L 199.5 123 L 196.5 119 Z " /><path fill="rgb(0,0,0)" stroke="rgb(0,0,0)" stroke-width="1" opacity="0.8313725490196079" d="M 59.5 125 L 60 144.5 L 59 144.5 L 59.5 125 Z " /><path fill="rgb(0,0,0)" stroke="rgb(0,0,0)" stroke-width="1" opacity="0.8313725490196079" d="M 138.5 125 L 139 138.5 L 138 138.5 L 138.5 125 Z " /><path fill="rgb(0,0,0)" stroke="rgb(0,0,0)" stroke-width="1" opacity="0.8313725490196079" d="M 36.5 146 L 39 146.5 L 34.5 148 L 34.5 147 L 36.5 146 Z " /><path fill="rgb(0,0,0)" stroke="rgb(0,0,0)" stroke-width="1" opacity="0.8313725490196079" d="M 139.5 146 L 140 157 L 142 157.5 L 139 158 L 139.5 146 Z " /><path fill="rgb(0,0,0)" stroke="rgb(0,0,0)" stroke-width="1" opacity="0.8313725490196079" d="M 33.5 149 L 34 152.5 L 33 152.5 L 33.5 149 Z " /><path fill="rgb(0,0,0)" stroke="rgb(0,0,0)" stroke-width="1" opacity="0.8313725490196079" d="M 52.5 151 L 56 152.5 L 54.5 153 L 52.5 151 Z " /><path fill="rgb(0,0,0)" stroke="rgb(0,0,0)" stroke-width="1" opacity="0.8313725490196079" d="M 154.5 153 L 157 153.5 L 154.5 154 L 154.5 153 Z " /><path fill="rgb(0,0,0)" stroke="rgb(0,0,0)" stroke-width="1" opacity="0.8313725490196079" d="M 164.5 153 L 165.5 155 L 164.5 153 Z " /><path fill="rgb(0,0,0)" stroke="rgb(0,0,0)" stroke-width="1" opacity="0.8313725490196079" d="M 149.5 154 L 152 154.5 L 149.5 155 L 149.5 154 Z " /><path fill="rgb(0,0,0)" stroke="rgb(0,0,0)" stroke-width="1" opacity="0.8313725490196079" d="M 165.5 157 L 166 158.5 L 163 160.5 L 165.5 157 Z " /><path fill="rgb(0,0,0)" stroke="rgb(0,0,0)" stroke-width="1" opacity="0.8313725490196079" d="M 37.5 162 L 39 165.5 L 38 165.5 L 37.5 162 Z " /><path fill="rgb(0,0,0)" stroke="rgb(0,0,0)" stroke-width="1" opacity="0.8313725490196079" d="M 162.5 162 L 157.5 168 L 162.5 162 Z " /><path fill="rgb(0,0,0)" stroke="rgb(0,0,0)" stroke-width="1" opacity="0.8313725490196079" d="M 40.5 169 L 41 171 L 32.5 171 L 30.5 173 L 32.5 170 Q 38.8 171.8 40.5 169 Z " /><path fill="rgb(0,0,0)" stroke="rgb(0,0,0)" stroke-width="1" opacity="0.8313725490196079" d="M 155.5 170 L 152 174.5 L 160 184.5 L 158 183.5 L 151 174.5 L 155.5 170 Z " /><path fill="rgb(0,0,0)" stroke="rgb(0,0,0)" stroke-width="1" opacity="0.8313725490196079" d="M 30.5 182 L 22.5 191 L 30.5 182 Z " /><path fill="rgb(0,0,0)" stroke="rgb(0,0,0)" stroke-width="1" opacity="0.8313725490196079" d="M 160.5 186 L 163 190.5 L 162 190.5 L 160.5 186 Z " /><path fill="rgb(0,0,0)" stroke="rgb(0,0,0)" stroke-width="1" opacity="0.8313725490196079" d="M 20.5 193 L 19.5 195 L 20.5 193 Z " /><path fill="rgb(0,0,0)" stroke="rgb(0,0,0)" stroke-width="1" opacity="0.996078431372549" d="M 111.5 9 L 118 9.5 L 111.5 10 L 111.5 9 Z " /><path fill="rgb(0,0,0)" stroke="rgb(0,0,0)" stroke-width="1" opacity="0.996078431372549" d="M 108.5 10 L 107.5 12 L 105 11.5 L 108.5 10 Z " /><path fill="rgb(0,0,0)" stroke="rgb(0,0,0)" stroke-width="1" opacity="0.996078431372549" d="M 120 10 L 123 11.5 L 120 12 L 120 10 Z " /><path fill="rgb(0,0,0)" stroke="rgb(0,0,0)" stroke-width="1" opacity="0.996078431372549" d="M 124.5 12 L 126.5 15 L 124.5 12 Z " /><path fill="rgb(0,0,0)" stroke="rgb(0,0,0)" stroke-width="1" opacity="0.996078431372549" d="M 96.5 16 L 94.5 19 L 96.5 16 Z " /><path fill="rgb(0,0,0)" stroke="rgb(0,0,0)" stroke-width="1" opacity="0.996078431372549" d="M 87.5 25 L 88 28 L 84.5 29 L 87.5 25 Z " /><path fill="rgb(0,0,0)" stroke="rgb(0,0,0)" stroke-width="1" opacity="0.996078431372549" d="M 131.5 27 L 132 41.5 L 131 41.5 L 131.5 27 Z " /><path fill="rgb(0,0,0)" stroke="rgb(0,0,0)" stroke-width="1" opacity="0.996078431372549" d="M 81.5 32 L 81 33.5 L 80.5 35 L 80 33.5 L 81.5 32 Z " /><path fill="rgb(0,0,0)" stroke="rgb(0,0,0)" stroke-width="1" opacity="0.996078431372549" d="M 127.5 38 L 128 48 L 126 47.5 L 127 46.5 L 127.5 38 Z " /><path fill="rgb(0,0,0)" stroke="rgb(0,0,0)" stroke-width="1" opacity="0.996078431372549" d="M 130.5 45 L 131 47.5 L 130 47.5 L 130.5 45 Z " /><path fill="rgb(0,0,0)" stroke="rgb(0,0,0)" stroke-width="1" opacity="0.996078431372549" d="M 129.5 51 L 130 52.5 L 129.5 54 Q 133.3 53 132 56 Q 126.4 58.2 128 52.5 L 129.5 51 Z " /><path fill="rgb(0,0,0)" stroke="rgb(0,0,0)" stroke-width="1" opacity="0.996078431372549" d="M 135.5 53 L 138 53.5 L 135.5 54 L 135.5 53 Z " /><path fill="rgb(0,0,0)" stroke="rgb(0,0,0)" stroke-width="1" opacity="0.996078431372549" d="M 148.5 61 L 149 65.5 L 148 65.5 L 148.5 61 Z " /><path fill="rgb(0,0,0)" stroke="rgb(0,0,0)" stroke-width="1" opacity="0.996078431372549" d="M 182.5 67 L 181.5 69 L 182.5 67 Z " /><path fill="rgb(0,0,0)" stroke="rgb(0,0,0)" stroke-width="1" opacity="0.996078431372549" d="M 178.5 70 L 177.5 72 L 178.5 70 Z " /><path fill="rgb(0,0,0)" stroke="rgb(0,0,0)" stroke-width="1" opacity="0.996078431372549" d="M 148.5 77 L 149 79.5 L 148 79.5 L 148.5 77 Z " /><path fill="rgb(0,0,0)" stroke="rgb(0,0,0)" stroke-width="1" opacity="0.996078431372549" d="M 60.5 80 L 61 82.5 L 60 82.5 L 60.5 80 Z " /><path fill="rgb(0,0,0)" stroke="rgb(0,0,0)" stroke-width="1" opacity="0.996078431372549" d="M 168.5 80 L 168 81.5 Q 169.3 85.3 165.5 84 L 168.5 80 Z " /><path fill="rgb(0,0,0)" stroke="rgb(0,0,0)" stroke-width="1" opacity="0.996078431372549" d="M 59.5 85 L 60 87.5 L 59 87.5 L 59.5 85 Z " /><path fill="rgb(0,0,0)" stroke="rgb(0,0,0)" stroke-width="1" opacity="0.996078431372549" d="M 142.5 91 L 143 93.5 L 142 93.5 L 142.5 91 Z " /><path fill="rgb(0,0,0)" stroke="rgb(0,0,0)" stroke-width="1" opacity="0.996078431372549" d="M 59.5 92 L 60 100 Q 56.5 101.1 58 93.5 L 59.5 92 Z " /><path fill="rgb(0,0,0)" stroke="rgb(0,0,0)" stroke-width="1" opacity="0.996078431372549" d="M 154.5 92 L 153.5 94 L 154.5 92 Z " /><path fill="rgb(0,0,0)" stroke="rgb(0,0,0)" stroke-width="1" opacity="0.996078431372549" d="M 143.5 95 L 148 95.5 L 143.5 96 L 143.5 95 Z " /><path fill="rgb(0,0,0)" stroke="rgb(0,0,0)" stroke-width="1" opacity="0.996078431372549" d="M 58.5 104 L 60 104 L 60 108 Q 56.3 106.8 58 112 Q 61.7 110.8 60 116 Q 57.3 117.1 58 114.5 L 57 113.5 L 57 105.5 L 58.5 104 Z " /><path fill="rgb(0,0,0)" stroke="rgb(0,0,0)" stroke-width="1" opacity="0.996078431372549" d="M 141.5 115 L 144 115.5 L 141 116 L 140.5 120 L 140 116.5 L 141.5 115 Z " /><path fill="rgb(0,0,0)" stroke="rgb(0,0,0)" stroke-width="1" opacity="0.996078431372549" d="M 154.5 115 L 157 115.5 L 154.5 116 L 154.5 115 Z " /><path fill="rgb(0,0,0)" stroke="rgb(0,0,0)" stroke-width="1" opacity="0.996078431372549" d="M 146.5 116 L 152 116.5 L 146.5 117 L 146.5 116 Z " /><path fill="rgb(0,0,0)" stroke="rgb(0,0,0)" stroke-width="1" opacity="0.996078431372549" d="M 59.5 121 Q 62.5 122.5 61 128.5 L 60 128.5 Q 60.5 122.5 59.5 121 Z " /><path fill="rgb(0,0,0)" stroke="rgb(0,0,0)" stroke-width="1" opacity="0.996078431372549" d="M 138.5 139 L 139 148.5 L 138 148.5 L 138.5 139 Z " /><path fill="rgb(0,0,0)" stroke="rgb(0,0,0)" stroke-width="1" opacity="0.996078431372549" d="M 59.5 145 L 60 152.5 L 59 152.5 L 59.5 145 Z " /><path fill="rgb(0,0,0)" stroke="rgb(0,0,0)" stroke-width="1" opacity="0.996078431372549" d="M 36.5 147 L 40 147.5 L 36.5 148 L 36.5 147 Z " /><path fill="rgb(0,0,0)" stroke="rgb(0,0,0)" stroke-width="1" opacity="0.996078431372549" d="M 48.5 150 L 52 151.5 L 48 152 L 48.5 150 Z " /><path fill="rgb(0,0,0)" stroke="rgb(0,0,0)" stroke-width="1" opacity="0.996078431372549" d="M 157.5 153 L 164 153.5 L 157.5 154 L 157.5 153 Z " /><path fill="rgb(0,0,0)" stroke="rgb(0,0,0)" stroke-width="1" opacity="0.996078431372549" d="M 152 154 Q 157.2 152.3 156 156 Q 150.8 157.7 152 154 Z " /><path fill="rgb(0,0,0)" stroke="rgb(0,0,0)" stroke-width="1" opacity="0.996078431372549" d="M 164.5 158 L 163.5 160 L 164.5 158 Z " /><path fill="rgb(0,0,0)" stroke="rgb(0,0,0)" stroke-width="1" opacity="0.996078431372549" d="M 162.5 161 L 159.5 165 L 162.5 161 Z " /><path fill="rgb(0,0,0)" stroke="rgb(0,0,0)" stroke-width="1" opacity="0.996078431372549" d="M 156.5 168 L 150.5 175 L 156.5 168 Z " /><path fill="rgb(0,0,0)" stroke="rgb(0,0,0)" stroke-width="1" opacity="0.996078431372549" d="M 41.5 170 L 40.5 172 L 41.5 170 Z " /><path fill="rgb(0,0,0)" stroke="rgb(0,0,0)" stroke-width="1" opacity="0.996078431372549" d="M 30.5 173 L 31 176.5 L 30 176.5 L 30.5 173 Z " /><path fill="rgb(0,0,0)" stroke="rgb(0,0,0)" stroke-width="1" opacity="0.996078431372549" d="M 30.5 183 L 28 186.5 Q 28.8 188.8 26.5 188 L 24 192 L 22 191.5 L 30.5 183 Z " /><path fill="rgb(0,0,0)" stroke="rgb(0,0,0)" stroke-width="1" opacity="0.996078431372549" d="M 164.5 196 L 165 199.5 L 164 199.5 L 164.5 196 Z " /><path fill="rgb(0,0,0)" stroke="rgb(0,0,0)" stroke-width="1" opacity="1" d="M 109.5 10 L 119.5 10 Q 118.5 13 123.5 12 Q 129.5 16 131 24.5 L 131 44.5 L 128 56 Q 133.3 57.3 132.5 54 L 141.5 54 L 147 57.5 Q 149.3 60.7 148 67.5 L 145 72.5 Q 148.7 75.3 149 81.5 L 143 89.5 L 142 93.5 L 143 96 L 153.5 94 L 161.5 87 L 165 86 Q 163.9 82.7 168 84 L 168 81.5 L 176.5 72 Q 186.3 63.8 199.5 59 L 200 64 L 190.5 67 L 175 79.5 L 176.5 80 L 180.5 78 L 196.5 76 L 200 77 Q 202.1 82.2 197.5 81 L 194.5 80 Q 191.3 82.3 184.5 81 L 172.5 85 L 155.5 97 L 146.5 100 L 143.5 99 L 142 100.5 L 142 109.5 L 141 110.5 L 147.5 113 Q 149.3 110.3 155.5 112 L 169.5 107 L 183.5 107 L 200 116 L 199.5 122 Q 192.8 114.7 182.5 111 L 168.5 111 Q 159.7 116.7 144.5 116 L 141.5 115 L 138.5 123 L 136 124.5 L 138 125 L 138 148.5 L 139 150.5 L 138 153.5 L 139 159 L 151.5 155 L 156 156 L 156.5 154 L 165 154 Q 165.8 158.5 163 160.5 L 150 174.5 Q 161.7 183 164 200 Q 160.2 201.5 161 198.5 Q 157.4 185.1 147.5 178 L 144.5 179 L 135.5 187 L 126.5 187 L 107.5 177 L 98.5 175 Q 97.3 177.2 92.5 176 L 89 178.5 Q 85.3 182.8 87 192.5 L 90 199.5 L 85 200 L 83 193.5 L 83 182.5 Q 84.3 176.8 88.5 174 Q 91.2 171.2 97.5 172 L 99 170.5 L 100 159 L 81.5 159 Q 80.5 159 81 163.5 L 69 200 L 65 200 L 65 198.5 L 74 173.5 L 77 159.5 L 71 154.5 Q 69.2 142.7 76.5 140 Q 83.4 134.9 97.5 137 Q 106.5 139.4 111 146.5 L 112 150.5 L 111 154.5 L 108.5 157 L 104 158 L 103 172 L 123 180 L 124 176.5 L 135 161.5 L 135 145.5 L 134 144.5 L 134 125.5 L 133 123 L 121.5 123 L 120.5 122 L 65 122 Q 62.8 125.6 64 134.5 L 65 136.5 L 64 137.5 L 64 150.5 L 63 151.5 L 62 200 L 58 199.5 L 58 169.5 L 59 168.5 L 59 160.5 Q 51.5 153.5 38.5 152 L 39 153.5 L 46 170.5 L 46 173.5 L 45 176 L 35 175 Q 39.8 187.5 49.5 196 L 55 199.5 L 48.5 200 L 35.5 186 L 33.5 186 L 26 193.5 L 22 200 L 17 199.5 L 22.5 192 Q 24.8 192.8 24 190.5 L 28 188 L 32 179.5 Q 29.5 178 31 172.5 Q 32.8 169.3 39.5 171 Q 40.8 173.3 42 170.5 L 34 153.5 L 34 149.5 Q 35.5 146.5 41.5 148 L 48 150 Q 46.6 153.7 52.5 152 L 58.5 155 L 60 152.5 L 60 144.5 L 61 143.5 L 60 142.5 L 60 133.5 L 61 128.5 L 61 122.5 Q 57 121.1 58 116 Q 61.7 117.2 60 112 Q 56.3 113.2 58 108 Q 61.7 109.2 60 104 Q 56.3 105.2 58 100 L 60 99.5 L 60 92.5 L 59 88.5 L 62 74.5 L 66 68.5 L 66 64.5 L 70 50.5 L 79 35 Q 81.7 36.1 81 33.5 L 85.5 28 Q 89.7 29.3 88 24.5 L 98.5 15 L 104.5 12 L 107.5 12 L 109.5 10 Z M 114 13 L 99 20 Q 86 31 77 46 L 71 60 L 70 70 L 76 71 L 87 71 L 88 72 L 100 73 L 105 75 L 110 75 L 134 82 L 140 85 Q 144 86 144 83 Q 145 75 140 74 L 144 67 Q 145 59 141 58 Q 132 57 129 60 Q 125 60 124 58 L 126 50 Q 125 47 128 48 L 128 32 Q 126 30 127 25 L 124 18 Q 121 13 114 13 Z M 66 74 L 62 96 L 62 115 L 63 117 L 65 118 L 120 118 L 121 119 L 136 119 L 137 118 Q 136 113 138 112 L 139 90 L 128 84 L 124 84 L 117 81 L 100 77 L 66 74 Z M 89 140 L 78 144 L 74 150 L 75 153 L 81 155 L 105 154 L 108 152 L 107 148 Q 101 140 89 140 Z M 154 158 L 139 164 L 127 181 Q 125 182 128 183 L 136 182 L 150 170 L 160 159 L 154 158 Z " /><path fill="rgb(5,5,7)" stroke="rgb(5,5,7)" stroke-width="1" opacity="0.9764705882352941" d="M 113.5 13 L 116 13.5 L 113.5 14 L 113.5 13 Z " /><path fill="rgb(5,5,7)" stroke="rgb(5,5,7)" stroke-width="1" opacity="0.9764705882352941" d="M 121.5 15 L 123.5 18 L 121.5 15 Z " /><path fill="rgb(5,5,7)" stroke="rgb(5,5,7)" stroke-width="1" opacity="0.9764705882352941" d="M 88.5 30 L 87.5 32 L 88.5 30 Z " /><path fill="rgb(5,5,7)" stroke="rgb(5,5,7)" stroke-width="1" opacity="0.9764705882352941" d="M 127.5 31 L 128 37.5 L 127 37.5 L 127.5 31 Z " /><path fill="rgb(5,5,7)" stroke="rgb(5,5,7)" stroke-width="1" opacity="0.9764705882352941" d="M 84.5 35 L 83.5 37 L 84.5 35 Z " /><path fill="rgb(5,5,7)" stroke="rgb(5,5,7)" stroke-width="1" opacity="0.9764705882352941" d="M 124.5 58 L 125.5 60 L 124.5 58 Z " /><path fill="rgb(5,5,7)" stroke="rgb(5,5,7)" stroke-width="1" opacity="0.9764705882352941" d="M 75.5 70 L 80 70.5 L 75.5 71 L 75.5 70 Z " /><path fill="rgb(5,5,7)" stroke="rgb(5,5,7)" stroke-width="1" opacity="0.9764705882352941" d="M 181.5 73 L 180.5 75 L 181.5 73 Z " /><path fill="rgb(5,5,7)" stroke="rgb(5,5,7)" stroke-width="1" opacity="0.9764705882352941" d="M 69.5 74 L 72 74.5 L 69.5 75 L 69.5 74 Z " /><path fill="rgb(5,5,7)" stroke="rgb(5,5,7)" stroke-width="1" opacity="0.9764705882352941" d="M 140.5 74 L 143.5 78 L 140.5 74 Z " /><path fill="rgb(5,5,7)" stroke="rgb(5,5,7)" stroke-width="1" opacity="0.9764705882352941" d="M 82.5 75 L 85 75.5 L 82.5 76 L 82.5 75 Z " /><path fill="rgb(5,5,7)" stroke="rgb(5,5,7)" stroke-width="1" opacity="0.9764705882352941" d="M 90.5 76 L 93 76.5 L 90.5 77 L 90.5 76 Z " /><path fill="rgb(5,5,7)" stroke="rgb(5,5,7)" stroke-width="1" opacity="0.9764705882352941" d="M 189.5 76 L 193 76.5 L 189.5 77 L 189.5 76 Z " /><path fill="rgb(5,5,7)" stroke="rgb(5,5,7)" stroke-width="1" opacity="0.9764705882352941" d="M 197.5 76 L 200 76.5 L 197.5 77 L 197.5 76 Z " /><path fill="rgb(5,5,7)" stroke="rgb(5,5,7)" stroke-width="1" opacity="0.9764705882352941" d="M 63.5 87 L 64 89.5 L 63 89.5 L 63.5 87 Z " /><path fill="rgb(5,5,7)" stroke="rgb(5,5,7)" stroke-width="1" opacity="0.9764705882352941" d="M 137.5 88 L 139 89.5 L 139 100.5 L 138 100.5 L 138 89.5 L 137.5 88 Z " /><path fill="rgb(5,5,7)" stroke="rgb(5,5,7)" stroke-width="1" opacity="0.9764705882352941" d="M 164.5 90 L 163.5 92 L 164.5 90 Z " /><path fill="rgb(5,5,7)" stroke="rgb(5,5,7)" stroke-width="1" opacity="0.9764705882352941" d="M 62.5 95 L 63 98.5 L 62 98.5 L 62.5 95 Z " /><path fill="rgb(5,5,7)" stroke="rgb(5,5,7)" stroke-width="1" opacity="0.9764705882352941" d="M 143.5 99 L 146 99.5 L 143 100 L 142.5 104 L 142 100.5 L 143.5 99 Z " /><path fill="rgb(5,5,7)" stroke="rgb(5,5,7)" stroke-width="1" opacity="0.9764705882352941" d="M 173.5 106 L 179 106.5 L 173.5 107 L 173.5 106 Z " /><path fill="rgb(5,5,7)" stroke="rgb(5,5,7)" stroke-width="1" opacity="0.9764705882352941" d="M 137.5 107 L 138 111.5 L 137 111.5 L 137.5 107 Z " /><path fill="rgb(5,5,7)" stroke="rgb(5,5,7)" stroke-width="1" opacity="0.9764705882352941" d="M 141.5 110 L 142.5 112 L 141.5 110 Z " /><path fill="rgb(5,5,7)" stroke="rgb(5,5,7)" stroke-width="1" opacity="0.9764705882352941" d="M 64.5 117 L 70 117.5 L 64.5 118 L 64.5 117 Z " /><path fill="rgb(5,5,7)" stroke="rgb(5,5,7)" stroke-width="1" opacity="0.9764705882352941" d="M 120.5 118 L 127 118.5 L 120.5 119 L 120.5 118 Z " /><path fill="rgb(5,5,7)" stroke="rgb(5,5,7)" stroke-width="1" opacity="0.9764705882352941" d="M 103.5 122 L 121 122.5 L 103.5 123 L 103.5 122 Z " /><path fill="rgb(5,5,7)" stroke="rgb(5,5,7)" stroke-width="1" opacity="0.9764705882352941" d="M 130.5 123 L 133 123.5 L 130.5 124 L 130.5 123 Z " /><path fill="rgb(5,5,7)" stroke="rgb(5,5,7)" stroke-width="1" opacity="0.9764705882352941" d="M 137.5 123 L 138 125 L 136 124.5 L 137.5 123 Z " /><path fill="rgb(5,5,7)" stroke="rgb(5,5,7)" stroke-width="1" opacity="0.9764705882352941" d="M 64.5 124 L 65 134.5 L 64 134.5 L 64.5 124 Z " /><path fill="rgb(5,5,7)" stroke="rgb(5,5,7)" stroke-width="1" opacity="0.9764705882352941" d="M 133.5 125 L 134 132.5 L 133 132.5 L 133.5 125 Z " /><path fill="rgb(5,5,7)" stroke="rgb(5,5,7)" stroke-width="1" opacity="0.9764705882352941" d="M 86.5 136 L 95 136.5 L 86.5 137 L 86.5 136 Z " /><path fill="rgb(5,5,7)" stroke="rgb(5,5,7)" stroke-width="1" opacity="0.9764705882352941" d="M 88.5 140 L 92 140.5 L 88.5 141 L 88.5 140 Z " /><path fill="rgb(5,5,7)" stroke="rgb(5,5,7)" stroke-width="1" opacity="0.9764705882352941" d="M 106.5 141 L 109.5 145 L 106.5 141 Z " /><path fill="rgb(5,5,7)" stroke="rgb(5,5,7)" stroke-width="1" opacity="0.9764705882352941" d="M 77.5 144 L 76.5 146 L 77.5 144 Z " /><path fill="rgb(5,5,7)" stroke="rgb(5,5,7)" stroke-width="1" opacity="0.9764705882352941" d="M 134.5 145 L 135 155.5 L 134 155.5 L 134.5 145 Z " /><path fill="rgb(5,5,7)" stroke="rgb(5,5,7)" stroke-width="1" opacity="0.9764705882352941" d="M 70.5 148 L 71 152.5 L 70 152.5 L 70.5 148 Z " /><path fill="rgb(5,5,7)" stroke="rgb(5,5,7)" stroke-width="1" opacity="0.9764705882352941" d="M 63.5 151 L 64 158.5 L 63 158.5 L 63.5 151 Z " /><path fill="rgb(5,5,7)" stroke="rgb(5,5,7)" stroke-width="1" opacity="0.9764705882352941" d="M 111.5 151 L 112 153.5 L 111 153.5 L 111.5 151 Z " /><path fill="rgb(5,5,7)" stroke="rgb(5,5,7)" stroke-width="1" opacity="0.9764705882352941" d="M 90.5 154 L 96 154.5 L 90.5 155 L 90.5 154 Z " /><path fill="rgb(5,5,7)" stroke="rgb(5,5,7)" stroke-width="1" opacity="0.9764705882352941" d="M 72.5 156 L 73.5 158 L 72.5 156 Z " /><path fill="rgb(5,5,7)" stroke="rgb(5,5,7)" stroke-width="1" opacity="0.9764705882352941" d="M 56.5 158 L 58.5 161 L 56.5 158 Z " /><path fill="rgb(5,5,7)" stroke="rgb(5,5,7)" stroke-width="1" opacity="0.9764705882352941" d="M 104.5 158 L 105 160.5 L 104 160.5 L 104.5 158 Z " /><path fill="rgb(5,5,7)" stroke="rgb(5,5,7)" stroke-width="1" opacity="0.9764705882352941" d="M 159.5 158 L 157.5 161 L 159.5 158 Z " /><path fill="rgb(5,5,7)" stroke="rgb(5,5,7)" stroke-width="1" opacity="0.9764705882352941" d="M 58.5 162 L 59 168.5 L 58 168.5 L 58.5 162 Z " /><path fill="rgb(5,5,7)" stroke="rgb(5,5,7)" stroke-width="1" opacity="0.9764705882352941" d="M 99.5 163 L 100 165.5 L 99 165.5 L 99.5 163 Z " /><path fill="rgb(5,5,7)" stroke="rgb(5,5,7)" stroke-width="1" opacity="0.9764705882352941" d="M 133.5 163 L 132.5 165 L 133.5 163 Z " /><path fill="rgb(5,5,7)" stroke="rgb(5,5,7)" stroke-width="1" opacity="0.9764705882352941" d="M 138.5 164 L 136.5 167 L 138.5 164 Z " /><path fill="rgb(5,5,7)" stroke="rgb(5,5,7)" stroke-width="1" opacity="0.9764705882352941" d="M 153.5 165 L 149.5 170 L 153.5 165 Z " /><path fill="rgb(5,5,7)" stroke="rgb(5,5,7)" stroke-width="1" opacity="0.9764705882352941" d="M 130.5 167 L 129.5 169 L 130.5 167 Z " /><path fill="rgb(5,5,7)" stroke="rgb(5,5,7)" stroke-width="1" opacity="0.9764705882352941" d="M 134.5 169 L 133.5 171 L 134.5 169 Z " /><path fill="rgb(5,5,7)" stroke="rgb(5,5,7)" stroke-width="1" opacity="0.9764705882352941" d="M 98.5 170 L 97.5 172 L 94 171.5 L 98.5 170 Z " /><path fill="rgb(5,5,7)" stroke="rgb(5,5,7)" stroke-width="1" opacity="0.9764705882352941" d="M 62.5 171 L 63 182.5 L 62 182.5 L 62.5 171 Z " /><path fill="rgb(5,5,7)" stroke="rgb(5,5,7)" stroke-width="1" opacity="0.9764705882352941" d="M 127.5 171 L 126.5 173 L 127.5 171 Z " /><path fill="rgb(5,5,7)" stroke="rgb(5,5,7)" stroke-width="1" opacity="0.9764705882352941" d="M 144.5 173 L 139.5 179 L 144.5 173 Z " /><path fill="rgb(5,5,7)" stroke="rgb(5,5,7)" stroke-width="1" opacity="0.9764705882352941" d="M 87.5 174 L 85.5 177 L 87.5 174 Z " /><path fill="rgb(5,5,7)" stroke="rgb(5,5,7)" stroke-width="1" opacity="0.9764705882352941" d="M 90.5 177 L 89.5 179 L 90.5 177 Z " /><path fill="rgb(5,5,7)" stroke="rgb(5,5,7)" stroke-width="1" opacity="0.9764705882352941" d="M 144.5 179 L 140.5 184 L 144.5 179 Z " /><path fill="rgb(5,5,7)" stroke="rgb(5,5,7)" stroke-width="1" opacity="0.9764705882352941" d="M 136.5 180 L 135.5 182 L 136.5 180 Z " /><path fill="rgb(5,5,7)" stroke="rgb(5,5,7)" stroke-width="1" opacity="0.9764705882352941" d="M 115.5 181 L 120 183.5 L 118.5 183 Q 114.7 182.8 115.5 181 Z " /><path fill="rgb(5,5,7)" stroke="rgb(5,5,7)" stroke-width="1" opacity="0.9764705882352941" d="M 126.5 181 L 127.5 183 L 126.5 181 Z " /><path fill="rgb(5,5,7)" stroke="rgb(5,5,7)" stroke-width="1" opacity="0.9764705882352941" d="M 57.5 183 L 58 199.5 L 57 199.5 L 57.5 183 Z " /><path fill="rgb(5,5,7)" stroke="rgb(5,5,7)" stroke-width="1" opacity="0.9764705882352941" d="M 153.5 184 L 154.5 186 L 153.5 184 Z " /><path fill="rgb(5,5,7)" stroke="rgb(5,5,7)" stroke-width="1" opacity="0.9764705882352941" d="M 137.5 185 L 136.5 187 L 137.5 185 Z " /><path fill="rgb(5,5,7)" stroke="rgb(5,5,7)" stroke-width="1" opacity="0.9764705882352941" d="M 33.5 186 L 31.5 189 L 33.5 186 Z " /><path fill="rgb(5,5,7)" stroke="rgb(5,5,7)" stroke-width="1" opacity="0.9764705882352941" d="M 41.5 186 L 42.5 188 L 41.5 186 Z " /><path fill="rgb(5,5,7)" stroke="rgb(5,5,7)" stroke-width="1" opacity="0.9764705882352941" d="M 128.5 187 L 134 187.5 L 128.5 188 L 128.5 187 Z " /><path fill="rgb(5,5,7)" stroke="rgb(5,5,7)" stroke-width="1" opacity="0.9764705882352941" d="M 37.5 188 L 38.5 190 L 37.5 188 Z " /><path fill="rgb(5,5,7)" stroke="rgb(5,5,7)" stroke-width="1" opacity="0.9764705882352941" d="M 27.5 192 L 26.5 194 L 27.5 192 Z " /><path fill="rgb(5,5,7)" stroke="rgb(5,5,7)" stroke-width="1" opacity="0.9764705882352941" d="M 40.5 192 L 47.5 200 L 40.5 192 Z " /><path fill="rgb(5,5,7)" stroke="rgb(5,5,7)" stroke-width="1" opacity="0.9764705882352941" d="M 47.5 193 L 49.5 196 L 47.5 193 Z " /><path fill="rgb(5,5,7)" stroke="rgb(5,5,7)" stroke-width="1" opacity="0.9764705882352941" d="M 23.5 197 L 22.5 199 L 23.5 197 Z " /><path fill="rgb(214,221,231)" stroke="rgb(214,221,231)" stroke-width="1" opacity="0.996078431372549" d="M 99.5 79 L 115.5 82 L 127 86.5 L 94.5 117 L 64 117 Q 67.7 106 76.5 99 L 99.5 79 Z " /><path fill="rgb(214,221,231)" stroke="rgb(214,221,231)" stroke-width="1" opacity="0.996078431372549" d="M 185.5 82 Q 191.8 79.8 190 85.5 L 189 86.5 L 188 97.5 L 185 106 L 168.5 106 L 166 107 Q 167.4 97.7 164 92.5 Q 172.1 84.6 185.5 82 Z " /><path fill="rgb(214,221,231)" stroke="rgb(214,221,231)" stroke-width="1" opacity="0.996078431372549" d="M 144 101 Q 148.6 99.8 150 102.5 L 150 111 L 144.5 111 Q 142.3 110.3 143 106.5 L 144 101 Z " /><path fill="rgb(214,221,231)" stroke="rgb(214,221,231)" stroke-width="1" opacity="0.996078431372549" d="M 135.5 104 Q 137.8 103.3 137 105.5 L 135 118 L 121 117 Q 119.9 114.3 122.5 115 L 135.5 104 Z " /><path fill="rgb(214,221,231)" stroke="rgb(214,221,231)" stroke-width="1" opacity="0.996078431372549" d="M 69 123 L 80.5 124 Q 81.8 121.8 86.5 123 L 87.5 124 L 114.5 124 L 120 123 L 120 137.5 L 121 138.5 L 121 173.5 L 122 178 L 104 171 L 105 159.5 L 106.5 158 L 112 155.5 L 113 149.5 Q 111.2 142.3 105.5 139 L 95.5 135 L 85.5 135 Q 76.9 136.9 72 142.5 L 69.5 147 L 69 123 Z " /><path fill="rgb(214,221,231)" stroke="rgb(214,221,231)" stroke-width="1" opacity="0.996078431372549" d="M 88.5 144 L 91 144.5 L 89 145 L 87.5 148 Q 83.3 149.1 85 145 L 88.5 144 Z " /><path fill="rgb(214,221,231)" stroke="rgb(214,221,231)" stroke-width="1" opacity="0.996078431372549" d="M 69.5 154 L 73.5 159 Q 77.7 157.7 76 162.5 L 71 179 L 69 178.5 L 69.5 154 Z " /><path fill="rgb(214,221,231)" stroke="rgb(214,221,231)" stroke-width="1" opacity="0.996078431372549" d="M 96.5 160 Q 99.3 159.4 98 165.5 L 97 170 L 89.5 172 Q 88.8 169.3 84.5 170 Q 80.8 171.3 82 177.5 L 83 180.5 L 82 181.5 L 82 191 L 77 193.5 L 76 198.5 L 76.5 200 L 70 199.5 Q 77.3 183.8 81 164.5 L 83.5 161 L 95.5 161 L 96.5 160 Z " /><path fill="rgb(214,221,231)" stroke="rgb(214,221,231)" stroke-width="1" opacity="0.996078431372549" d="M 83.5 198 L 84 200 L 82 199.5 L 83.5 198 Z " /></svg>