<svg xmlns="http://www.w3.org/2000/svg" width="200" height="200"><path stroke="#000" d="m90.5 45 6.5.5-6.5.5-12 4v-1zm22 0 4.5.5-4.5.5zm6 1 9 2 12 9h3l12 6L169 75.5q7.8 8.2 12 20h-1Q174 80 162.5 70l-8-6-12-6h-3l-7-6q-5.2-4.3-14-5zm-50 8-2 3-9.5 8.5-8 16-6.5 7.5-6 4 2-3 5.5-3 4-5.5 7-15L66.5 55zm-34 39-3 4-8.5 7.5-4.5 9.5-.5-2.5q4.7-10.3 13.5-16.5zm148 7 .5 2.5h-1zm1 4 .5 15.5h-1zm-166 12 .5 4.5h-1zm165 5 .5 2.5h-1zm-164 1 .5 4.5h-1zm163 3 .5 1.5-5.5 11.5-.5-1.5zm-162 3 3.5 9.5 8 13h-1l-10-17zm156 11 .5 2.5-1.5 3.5-.5-3.5zm-1 9 1.5 6.5 8 13 2 9h-1l-1-6-9-16zm-143 4 .5 2.5h-1zm-1 4 .5 1.5q-7.6 5.9-9.5 17.5l-.5-4.5zm-9 21q0 8 3.5 12.5h-1q-4.3-4.5-2.5-12.5Zm165 1 .5 7.5h-1zm-1 9 .5 2.5-1.5 2.5-.5-1.5zm-159 3 .5 3 8 6.5-1.5.5-5-6-2.5-1.5zm157 3-.5 1.5-3.5 5.5.5-1.5z" opacity=".059"/><path stroke="#000" d="M0 0h200v200l-20-.5q7.6-6.4 7-21l-3-11-8-13-2-9 10-26v-15q-6.3-24.2-23.5-37.5l-18-10h-3q-6.5-8-18-11l-5-1h-26l-14 5-1.5-.5q.8 2.3-1.5 1.5Q61.9 56.4 55 66.5l-7 15-4 5.5q-12.9 6.4-22 17.5-5.3 5.2-5 16l3 13 9 14q2.7 2.3 2 8l-10 15v12l3 7.5q3-1.2 2 2.5l6 5 1 2-33 .5z" opacity="0"/><path fill="#fefcf5" stroke="#fefcf5" d="M92.5 53h22l12.5 4.5q-.5 3-4.5 2.5l-1-1h-10l-1 1h-8l-9 3Q84.8 67.3 79 74.5q.7 2.6-2 1.5-1-7.5 2-11-10.5 2.6-16 11.5Q59.4 90.4 49.5 98l-14 8-5.5 5.5-1.5 2.5q-2.2.8-1.5-1.5L38.5 100Q49.3 95.8 55 86.5 59.8 69.8 72.5 61l12-6zm56 18h3l7.5 6.5-1.5-.5-8-4zM67 123q9.2-1.6 12 4.5l1 4-1.5 1.5h-8l-3.5-3.5-1-4zm82.5 0q3.3-1.1 2.5 1.5-1.4 3.1-6.5 2.5l2-3zm-29 1q5.4-.6 7.5 1 .4 5.7-3.5 8-3.5 2.5-11 1l-1.5-3.5 3.5-4.5zm-63 4 .5 1.5q-2.3 1.3-1 6l3.5 5.5 2.5 1.5-1.5.5-6.5-4.5-1-5z"/><path fill="#fbf2d6" stroke="#fbf2d6" d="m126.5 58-1 2zm-15 1h10l1.5 1.5-12 15 3.5 1.5H127v2.5l-6 10-1 7.5 15.5-11q4-3 11-3l3.5-2.5-2.5-3.5-4.5-2.5 4.5-3.5 12 7 4.5 4.5 9 14 1 8-2.5 6.5q-2.9-8.6-9-14l-4-1q-2.5 1-1.5 5.5 8.3 5.7 9 19l-1.5 2.5-5-6q-4-3.5-13-2h-2l-6-1-12.5-7.5-5.5-7.5q-4-.5-4.5 2.5v3.5h-6q1.6-2.1 1-7.5-1.5-6.5-6.5-9.5l-4-1-2.5 1v5.5l1.5.5q4.4 1.6 3.5 8.5-1.2 2.5-5 1.5-.1-5.6-4.5-8l-7-3h-5l-11 5-17 15-14 5h-4l.5-1.5 4.5-5.5 5.5-3.5q.8-3.7-1.5-4.5l-3.5-.5q9.5-3.5 15-11l7-15 8.5-8.5 9-4v1q-2.2-.7-1.5 1.5-3.4 2.8-2 9.5 2.7 1.1 2-1.5 5.8-7.2 14.5-11.5l9-3h8zm-76 47-5 6zm-6 7-.5 1.5-.5 1.5-1-2zm123 10 .5 1.5-3.5 2.5v-1l2.5-1.5zm-8 4 3.5.5-3.5.5zm-86 1 .5 1.5-1.5 6.5-.5-5.5zm15 5 2.5.5-2.5.5zm-14 6 1 2zm3 2 1 2z"/><path fill="#ece8df" stroke="#ece8df" d="m102.5 52 7.5.5-7.5.5zm-33 11-6 7zm89 13 1 2zm-104 10-1 2zm-9 9-1 2zm-3 2-1 2zm-8 6-5 6zm-8 10 1.5 2.5-2-1zm30 16-1 2z"/><path fill="#c2a666" stroke="#c2a666" d="m94.5 52 2.5.5-2.5.5zm35 6 1 2zm-61 5-4 5zm86 9 1 2zm9 9 2 3zm-63 7q5.6.5 7.5 4.5 2.7 3.3 2 10l-2.5 3.5H104v-7.5l-5-6v-3zm-56 7-1 2zm30 1-1 2zm85 1 7.5 6.5 5 12v9l-1 2.5-2.5 1q-3.2-.7-2.5-5.5l1-5-2-7-6-8-1-4zm-41 3q4-.5 4.5 2.5l5.5 7.5q6.6 4.9 16.5 6.5l-5.5 5.5-1-1q-12.4-3.1-19.5-11.5-3-2-2-8zm-50 2-3 4zm10 0-6 7zm10 0 3 4zm8 1 .5 1.5-2 1zm-64 1-3 4zm8 0q3.8-.7 4.5 1.5l-2.5 3.5-7.5 6.5-1 8-1.5 1.5-3.5-2.5q.1-12.4 8.5-16.5zm23 4-4 5zm8 2-3 4zm-14 3-1 2zm91 2 5.5.5-5.5.5zm-106 4 1.5.5-2.5 1.5zm-17 2 .5 2.5h-1zm34 0-1 2zm-19 1 2 4q7-1.5 6.5 1.5-3.9 2.6-3 10l6.5 9.5 15 6 10.5 1v2.5l-10 19-6 24.5H47.5L36 190.5l2-9 10-15 1-8-10-16-1-11zm109 0 3.5.5-3.5.5zm15 5 .5 3.5h-1zm-135 7 1 2zm133 2-1 2zm-20 1 7.5.5-7.5.5zm-110 2 1 2zm126 1-2.5 3.5-2 8q1.8 9.3 8.5 13.5l7.5 5.5q4.5 4.5 4 14l-3 10 1.5.5 2.5-1.5-7.5 6.5H143v-8.5l-5-17-13-22 8.5-2.5 9-5 11-1zm-124 2 1 2zm132 2 .5 3.5h-1zm-46 1 2.5.5-2.5.5zm-9 1 3.5.5-3.5.5zm-29 1 5.5.5-5.5.5zm7 0 12.5.5-12.5.5zm24 7q4.5-1 5.5 1.5l2 3-8.5 2.5H107l1 2.5-2-1zm-26 1h2l4.5 4.5-4.5 1.5-5-1-1.5.5zm-51 6-1 2zm46 1 3.5 4.5-2 1 1-2-3-1.5-5 14.5v4l1 3h-1l-1.5-3.5q-2.2.8-1.5-1.5zm12 0-3 4zm25 1-1 2zm-85 1-2 3zm66 0-1 2zm-11 3-1 2zm9 0-2 3zm3 0 3.5 2.5-1.5.5zm11 2-1 2zm-2 3-1 2zm-26 1 1 2zm-56 1 .5 4.5h-1zm80 1v3q-3-1.5 0-3Zm-9.5 1 2 .5-2 1zm-13.5 3 .5 18.5 1 2.5-4-.5v-12zm44 4q4.4-1.5 3.5 1.5l3 9v6.5h-5.5l-.5-1.5 1-1V184zm-54 10 .5 3.5h-1zm48 4 .5 2.5h-1z" opacity=".996"/><path fill="#f9e2c4" stroke="#f9e2c4" d="m123.5 60-3 4zm-5 6-1 2zm25 7-1 2zm-29 3 3.5.5-3.5.5zm33 1 2 3zm17 6 1 2zm-64 4 2.5.5-2.5.5zm22 8-1 2-1.5-.5zm36 1 2.5.5-3.5 1.5zm4 1 3 4zm-92 1-4 5-9 8 8-9zm87 3 2 3zm-113 2 1 2zm80 1 1 2zm-15 1 2.5.5-2.5.5zm52 1 1 2zm-116 1-1 2zm83 1 1 2zm-86 1-1 2zm57 1h17l13.5 8.5-11.5.5-8.5 5.5q-3.7 2.3-3 9l4.5 4.5 5 1 9-2 5.5-4.5 2-7.5 5-1-1-2.5 2 1q-.5 4 2.5 4.5l6 1 5.5-3.5.5-1.5q4.5 1 3.5 7.5l-3.5 4.5q-3.7 3.3-12 2l-11 6-12 3h-10l-1 1h-31l-9-2-8.5-6.5-1-8 1-5-.5-1.5 2 2 2.5-1.5-1 5 4.5 5.5 10 3 7.5-4.5 1-4q-2.2-6.7-7.5-10.5-2.2.8-1.5-1.5l-.5-1.5 11-4 12-1zm49.5 18-3 4 2 3 4-1 1-2v-2q1-4-4-2Zm-93.5-17-1 2zm-4 2 1.5.5-3.5 1.5v-1zm-16 5 2.5.5-2.5.5z"/><path fill="#f9e2c4" stroke="#f9e2c4" d="m115.5 134 5.5.5-5.5.5z"/><path fill="#e99b0f" stroke="#e99b0f" d="M68.5 117q8.6.9 12.5 6.5 3.6 1.9 3 8l-2.5 3.5q-2.9 2.6-9 2-5.7-1.2-8.5-5.5l-1-6 1-2.5-4-1.5q-.7-2.2 1.5-1.5l2-2zm-.5 5-2 2q-1 8 5 10 8 2 10-2l-2-5q-3-6-11-5Zm53.5-3h6l9.5 3.5-5 2.5q1.1 6.7-3.5 9-4.7 3.8-13 4l-4-1-3.5-3.5v-4l3-5.5zm1.5 4-8 3-4 5q0 4 3 4 7 2 11-1 5-2 3-10z"/><path fill="#3c4549" stroke="#3c4549" d="m76.5 50 1.5.5-8.5 4.5 1-2zm25 1 9.5.5-9.5.5zm-10 1 2.5.5-2.5.5zm23 0 2.5.5-2.5.5zm13 4 1 2zm4 3 3 4zm-61 2-1 2zm-7 7-2 3zm89 2 1 2zm4 3 8 9zm10 11 1 2zm-114 3-7 8zm116 0 1 2zm-88 7 6.5.5-6.5.5zm-38 2-1 2zm51 1 1 2zm-54 1-1 2zm33 0-3 4zm-36 2-3 4zm46 0 3.5.5-3.5.5zm-5 2-4 5zm12 0q.5 3.5 5 3l1.5-.5-3.5 1.5zm-23 3-2 3zm110 0 .5 13.5h-1zm-148 3-1 2zm35 1-2 3zm8 0-2 3zm-13 4-1 2zm9 1-2 3zm-43 2 .5 4.5h-1zm121 0 1.5.5-6 5q-1.7 5.3 3.5 3.5l2.5-1.5q-.7 3.3-5.5 2.5-2.2-.7-1.5-4.5zm-82 1-2 3zm96 1 2 3zm-115 1 2.5.5-2.5.5zm-2 1-1 2zm17 0-1 2zm96 3 1 2zm-114 1 2.5 1.5-1.5.5zm6 1q3.3-1.1 2.5 1.5l-1.5-.5zm110 1 .5 5.5h-1zm-109 2-.5 1.5-.5 1.5-.5-1.5zm-2 4 .5 5.5h-1zm110 1-2 3zm4 5-1 2zm-113 1 1.5 2.5-2-1zm7 0 1 2zm3 2 1 2zm99 0-1 2-3 1v-1zm11 0 .5 3.5h-1zm-133 2 1 2zm15 0 3 4zm93 1 8.5.5-8.5.5-1 1zm-27 2 4.5.5-4.5.5zm-40 1 6.5.5-6.5.5zm27 0 7.5.5-7.5.5zm-46 1 3.5 1.5-1.5.5zm111 0 .5 3.5h-1zm-129 4 .5 4.5h-1zm29 0 2.5.5-2.5.5zm5 1 4.5.5-4.5.5zm40 0 2.5.5-9 8 1.5 2.5 5.5 4.5-6 9.5 9.5-5-1.5 2.5 2 8V200H87.5l-.5-1.5-1-1-.5-18.5-1 3-.5-3.5 1-3.5 7.5 4-.5-1.5-3-9 1-2.5 5-3.5-5.5-7.5-4 2 2-3 11 1 1-1h12zM101 164l-7 8 4 1 2 5 1-3 5-4-2-2zm16.5-11 1 2zm8 0 1 2zm-6 3 1 2zm8 0 2.5 3.5-2-1zm-50 1-1 2zm7 1-1 2zm38 2 7.5 13.5 4 11h-1q.9-3-3.5-1.5-2 2.8-6.5 2l-.5 3q.1-8.8-2.5-14l-2-.5 2-1-3-6zm49 1 1 2zm-137 2-1 2z" opacity=".996"/><path fill="#3c4549" stroke="#3c4549" d="m81.5 163 3.5 2.5-7.5 17.5-.5-4.5 4-12-.5-1.5 1.5.5zm50 0 2.5 3.5-2-1zm-100 4-1 2zm46 4 .5 1.5-3.5 7.5-.5-1.5zm59 1 1.5 3.5h-1zm43 6 .5 6.5h-1zm-113 3 .5 2.5h-1zm17 2 .5 3.5h-1zm57 0 .5 2.5h-1zm-110 2 1 2zm3 3 2 3zm5 4 3 4zm25 0 .5 2.5h-1zm19 3 .5 4.5h-1zm-20 1 .5 3.5h-1zm-18 1 2 3zm92 0 .5 2.5h-1zm34 0-2 3z" opacity=".996"/><path fill="#efc89d" stroke="#efc89d" d="m120.5 64-1 2zm-2 12 5.5.5-5.5.5zm-19 12-.5 1.5q-.7 4.3 2 5l-3-2q-.7-3.7 1.5-4.5Zm21 5 .5 2.5h-1zm38 4-.5 1.5 1 3-2-1zm3 0 4 5zm-90 1-3 4zm32 0 .5 8 4.5-1 3 1 4.5-1 .5-3q-.2 6.2 3.5 8.5l-1.5-.5-28 1-13 4-4 3-7.5-1.5L79.5 102l6-1 6 5h4q1.7-3.5 7.5-2zm18 2 1 2zm-80 3 3.5 1.5-1.5-.5q-3 .5-2-1Zm-2 1-1 2zm85 1 4 5zm37 0 1 2zm-97 1-1 2zm-29 1-3 4zm9 0-1 2zm-3 2-1 2zm-5 5-1 2zm88 0 1 2zm-96 3 .5 4.5h-1zm6 0 .5 2.5h-1zm132 0 .5 4.5h-1zm-35 1-1 2zm-54 1 1 2zm56 0 4 3q1.3-2.3 2.5.5l-.5 1.5-1-2-1 2-2-3q-4 1-2-2Zm-99 2 .5 2.5-2 1zm25 1 2.5 1q1.3 3-2.5 2-3-1.5 0-3Zm-30 1 1 2zm82 0-1 2zm-49 3 .5 3.5h-1zm70 0 .5 2.5h-1zm34 0 1 2zm-128 2 .5 2.5h-1zm110 0q3.8-.7 4.5 1.5l-1 4.5-5 1-1-3.5zm-85 3 3 4zm63 0-1 2zm4 1-2 3zm-47 1-2 3zm72 0-1 2zm-82 4 2.5.5-2.5.5zm-35 1 .5 2.5h-1zm123 0-2 3zm-115 17 1 2zm2 3 .5 5.5h-1zm109 1 1 2zm-125 8-1 2zm14 1-1 2zm-2 3-2 3zm126 0 1 2zm-96 12q2.3-.7 1.5 1.5l-1 5-3 5v5.5q-3 1.3-2-2.5 2.3-1.2 1-6l2-3v-4zm99 2 .5 3.5h-1zm-137 1 1.5 4.5-1.5-.5-2.5-1.5h2z"/><path stroke="#000" d="M97.5 45h14l13 3q9.1 3.4 15 10h3l12 6L167 74.5q8.7 9.3 14 22 3.9 9.1 2 24l-9 21v10l10 19 2 7v9q-1.9 8.6-7.5 13.5l-9.5-.5q10.6-5.4 11-21l-11-22-2-11q2.6-13.4 9-23 2.3-6.7 1-17-5.6-20.9-20.5-32.5l-16-9-5-1-12-9-13-3h-9l-1 1h-9l-12 4Q67.9 60.9 61 70.5l-7 15L43.5 96q-10.3 4.7-16.5 13.5l-3 7v4l3 11 10 16 1 10-10 15v8q1.8 7.2 7.5 10.5l10.5 8.5-10.5.5-8.5-7v-3q-2.7 1.1-2-1.5l-3-6-1-7 1-5 9-13 1-5-11-19-3-12v-7q3.8-11.2 12.5-17.5L47 84.5l10-19 8.5-8.5 15-8z" opacity=".984"/><path stroke="#000" d="M78.5 95q13.6-2.1 17.5 5.5.8 3.8-1.5 4.5h-2l-7-5h-3q-6.5 1.5-9.5 6.5L64.5 117l-6.5 4.5q-.8 7.2-5 11v5l2.5 3.5 11 5 9 2h34l1-1 14-1 18-8h8l6.5-4.5 1-7-2.5-3.5-7-1q-2.1 3.9-7.5 3-1-6.4 4.5-8l9-1 7.5 5.5q2.6 2.9 2 9-1.1 7.4-6.5 10.5-4.5 4.5-15 3-6.5 6.2-17.5 7v2.5l11 18 7 22v6.5h-6l-3-16.5-4-10-12.5-20.5-27 2-3-1-4.5 5.5-8 16-3 9-2 15.5h-7v-4.5l6-21L79 154l-18.5-4-7-3-4.5-4.5q-3.2-3.3-2-11l3-6.5-5.5 1-3.5-2.5 2.5-3.5q13.3-2.2 20.5-10.5L74.5 97z" opacity=".984"/><path stroke="#000" d="m82.5 173 2.5 1-2 9.5v11l-1 5.5h-6v-7.5l2-5 1-10zm35 0 2.5 1 2 6.5 1 9V200h-6v-16.5l-2-8z" opacity=".984"/><path fill="#f5da4a" stroke="#f5da4a" d="m127.5 58 8 6q8.5 1 13.5 5.5l-7 5 8 6-13.5 4.5-15 11-.5-5.5 7-13.5-16-1.5L124.5 60zm-62 59 2.5.5-2.5.5zm5 0 2.5.5-2.5.5zm9 4 1 2zm34 1-1 2zm-51 1q2.3-.7 1.5 1.5zm19 1 1 2zm29 1-1 2zm-3 5 .5 2.5h-1zm1 4 2 3zm19 0-1 2zm-9 3 2.5.5-2.5.5zm-1 22q3.8-.7 4.5 1.5l-1.5 2.5-2.5 1.5-2 3 3 4-11.5 6.5 1.5-2.5 4-7-6-7.5q6.6.9 10.5-2Zm-33 1 7 1 2-1 1.5 1.5-7 7 1 1 3 8.5-10-6.5 4-6-3-4zm16 5 3 5 2.5.5-5 4q.7 2.6-2 1.5l-2.5-4q-2.6.7-1.5-2l4-2.5zm-24 18 .5 5.5q-3 4.3-2 11.5-5.2 1.8-3-5.5l3-5q-.7-4.7 1.5-6.5Zm52 1 2.5.5v13l-1 2.5h-6v-6.5l-1-7.5z"/><path fill="#e0d2a8" stroke="#e0d2a8" d="m97.5 52 4.5.5-4.5.5zm-26 9-1 2zm85 13 1 2zm4 4 2 3zm-108 10-6 7zm30 5 3.5.5-3.5.5zm12 4 1 2zm-58 4-1 2zm138 0q2.7 6.3 1.5 16.5l-9 22-1 10 2 8 9 15 2 11-6.5 11.5-.5-2.5q3.8-4.7 2-15-2.1-7.9-8.5-11.5l-6.5-4.5-4-7v-8l3.5-5.5 3.5-2.5 2-3 1-9-2-4h3q-1 4.5 1.5 5.5 4 .5 4.5-2.5v-12l-1-1q3.6-3.9 3.5-11.5Zm-107 1-4.5 5.5-3.5 4.5-11 6-6 1-2.5 2.5q.8 5.3-2 7v12q3.4 10.1 10 17v8l-8 11-4.5 12.5-3.5-2.5-3-6v-7l9-13 1-11-12-21-2-11 1.5-2.5 2.5 1.5-1 5 2.5 3.5q3.8.8 4.5-1.5l-1-3 20.5-7.5zm-28 9-2 3zm81 0 3 4zm39 6 2 3zm-5 6 1 2zm-8 1-1 2zm-92 14 2 3zm20 44 1.5.5-2.5 1.5z"/></svg>