<svg xmlns="http://www.w3.org/2000/svg" width="200" height="200"><path stroke="#000" d="M0 0h200v200l-63-.5 4-3q3.2-4.3 3-12-2.4-13.1-10.5-20.5l-1.5-.5 2.5-2.5 6-1 14-6 9.5-7.5q4.7-4.8 3-16l-1-3.5q11.9-.9 17-9.5l1-7q-.9-6.6-5.5-9.5l-9.5-5.5q15.5-16.5 16-48l-1-1-1-12-2-4.5-5.5 1-9 5-18 15-4 1-10-5-11-3-13-1-1-1h-9L94 39.5Q91.6 26.9 82.5 21l-5 1-7.5 7.5L62.5 46q-13 3-20.5 11.5v3l8 16L52 88l-12.5-1-1-1h-14L15 91.5q-3.2 3.3-2 11 2.5 8 8.5 12.5l12 7 7.5 2.5-9 14v7q1.6 6.9 7.5 9.5 12.5 8 31.5 9.5l-11 10-4 7v8l5.5 7.5 4.5 2.5-66 .5z" opacity="0"/><path fill="#e2aea7" stroke="#e2aea7" d="M80.5 30q2.3-.7 1.5 1.5l5 9-2.5 1.5-10 1 .5-1.5 1-5-1-1zm-6 7-.5 1.5-.5 1.5-.5-1.5zm101 2-1 2-2 1 1-2zm-103 2 .5 2.5h-1zm98 1-1 2zm6 0 .5 17.5h-1zm-9 2-1 2zm-4 3-1 2zm-6 5-2 3zm5 10h2.5v5.5q-6.4 26.1-25.5 39.5l-1.5-.5v-9Q142.5 78 155.5 67zm-17 2-2 3zm-6 8-1 2zm32 4 .5 1.5-1.5 2.5-.5-1.5zm-4 8-1 2zm-94 1 2.5.5-2.5.5zm92 2-2 3zm-3 4-2 3zm-5 6-6 7zm-90 1 3.5.5-3.5.5zm16 0 3.5.5-3.5.5zm47 1 .5 7.5h-1zm18 8-4 5zm-18 1 .5 2.5h-1zm-1 5-7 8-20 11-13 4-12 1-7-4h-4l-7.5 3.5-.5 1.5-9-2-4.5-2.5 3-6.5 23.5 2 1-1h13l16-3 22-8 1.5.5 1.5-2.5zm15 2 2 3zm4 3 5 6zm8 10q3.4 2.6 2.5 9.5l-5.5 7.5q-12 9-31 11v-1l8-3 20.5-15.5zm-23 6 2.5 3.5h-1zm-92 3-1 2zm73 1 1 2zm-55 1 2.5 1.5-1.5.5zm5 2 7.5 1.5-5.5.5zm27 0h7l.5 1.5q2.8 1.8-1.5 3.5l-5 1-3.5-5zm1.5 1-2 1v1q2-1 1 2 5 1 6-2t-5-2Zm27.5-1 8.5.5-8.5.5zm-81 2 4.5 5.5-5-4zm24 12 3.5.5-3.5.5zm5 1 3.5.5-3.5.5zm7 1 2.5.5-2.5.5zm38 0 2.5.5-2.5.5zm-23 1 5.5.5-5.5.5zm3 36 2.5.5q-2 4.5-4 1z"/><path stroke="#000" d="m82.5 21 6 7zm-5 1L71 29.5 69.5 32l.5-1.5zm12 7 2.5 3.5-2-1zm86 2 2.5.5-2.5.5zm-107 2-.5 1.5-2.5 5.5-.5-1.5zm103 0-1 2zm-79 1 1.5 3.5h-1zm90 0 .5 3.5h-1zm-16 2-2 3-3 2 2-3zm17 3 .5 4.5h-1zm-89 1 5.5 1.5-4.5.5zm-30 1 .5 3.5-2 1zm95 0-2 3zm-53 1 3.5.5-3.5.5zm8 1 3.5.5-3.5.5zm6 1 3.5.5-3.5.5zm5 1 2.5.5-2.5.5zm29 0-5 6zm30 2 .5 8.5h-1zm-133 3 1.5.5-2.5 1.5zm92 1 3 1 1.5-.5-3.5 1.5zm-97 2L43 57.5l1 4-2-1v-3zm137 6 .5 3.5h-1zm-1 6 .5 2.5h-1zm-4 13 .5 1.5-2.5 4.5-.5-1.5zm-127 4 .5 3.5h-1zm124 3-.5 1.5-4.5 6.5 1.5-2.5zm-151 1 3.5.5-3.5.5zm10 0 4.5.5-4.5.5zm-13 1 1.5.5-4.5 2.5 1-2zm21 0 3.5.5-3.5.5zm7 1 2.5.5-2.5.5zm-33 2-.5 1.5-1.5 2.5.5-1.5zm153 4v2l4.5 2.5-1.5-.5-4.5-1zm-156 1 .5 7.5h-1zm162 4 1 2zm3 2 3 4zm-164 3 2.5 4.5-2-1zm3 6 4 5zm166 0 .5 4.5h-1zm-160 5 1 2zm159 1 .5 1.5-7 6zm-156 1 2.5 1.5-1.5.5zm4 2 4.5 2.5-1.5.5zm10 6 .5 1.5-3.5 4.5 1.5-2.5zm125 1 .5 2.5h-1zm-129 6-2 3zm127 14-3 4zm-130 2 1 2zm125 2-1 2zm-3 2-1 2-3 1v-1zm-117 1 1 2zm3 2 3.5 2.5-1.5-.5zm105 1 1.5.5-3.5 1.5v-1zm-90 5 2.5.5-2.5.5zm77 0-1 2zm-73 1 3.5.5-3.5.5zm5 1 4.5.5-4.5.5zm6 1-3 4zm62 0 2 3zm-68 5-5 6zm-6 7-1 2zm-3 5 .5 2.5h-1zm87 3 .5 4.5h-1zm-87 3 .5 2.5h-1zm2 6 3 4zm82 3-2 3zm-75 2q2.3-.7 1.5 1.5z" opacity=".345"/><path fill="#2e6db0" stroke="#2e6db0" d="M81.5 49h23l1 1 15 1 14 4 6.5 3.5q-6.7 5.3-10.5 13.5h-22L87 76l1 7-8.5 2H59l-1-4.5 1-2-8-19 9.5-5.5zm71 7-6 7zm-126 37h9l12 3h13l6 3H87l-1 5.5 6.5.5 30.5-7v10.5l-1.5.5-17 7-14 3q-4.7-1.2-6 1h-29l-16-4L23 105.5q-2.8-2.7-2-9zm136 10q9.2-.2 12.5 5.5l1 4-4.5 5.5-8 2q-6.9-1.6-9.5-7.5zm-11 1-1 2zm-51 54 3.5.5-3.5.5zm-32 18 4 4h2l10-2q3.3 1.2 2.5 5l-11.5 8-7 1-4.5-3.5v-7zm56 2q8-1.5 10.5 2.5l1 9q-4 7.5-16.5 6.5l-12.5-5 1-7.5 2.5-2.5zm-31 15-1 2-1.5-.5zm3 1-3 4-1-2 1 1zm-13 1 3.5 4.5-10.5.5v-1zm21 3 1 2-3.5-.5z"/><path fill="#cf8e3d" stroke="#cf8e3d" d="m79.5 30-2 3zm4 3 1 2zm76 17-1 2zm-48 29h16l.5 1.5-4.5 10.5-36 8 .5-1.5q-1.4-9.6 1-13.5l-3-.5zM59 85l14 .5-10 .5v10.5l1 1-1.5-.5-2.5-1.5zm100.5 10-1 2zm-111 31 2.5.5-2.5.5zm34 1 3.5.5-3.5.5zm-18 1 7.5.5-7.5.5zm-20 5-1 2zm24 0 2.5.5-2.5.5zm8 3 1 2zm81 4-1 2zm-65 2q6.1-1.2 5.5 1.5-1.3 3.5-6 2.5 1.1-2.7-1.5-2v-1zm60 3-1 2zm-31 11 2.5.5-2.5.5zm-38 2 6.5.5-6.5.5zm13 0 3.5.5-3.5.5zm21 6 5 1 6.5 4q1.3 3.3-3.5 2-1.8-2.7-8-1l-1 2 2.5.5-4 .5q-.9-6 2.5-9Zm-12 1q6.8-2.2 4.5 4.5l-2.5 6.5-11-4H87q-1.2-4.6 1.5-6 7.8-1.3 10 3zm-25 2 .5 5q-3.7 1.5-3-1.5l-2 1 .5 1.5-2.5-1.5zm5 11h2q4.5-1 5.5 1.5l-1.5-.5-5 1zm11 7 3.5 2.5-1.5.5-3.5-1.5zm11 0 .5 2.5-1 3.5-6-2.5q1.4-2.7 6-1.5z"/><path fill="#fde7df" stroke="#fde7df" d="m76.5 35-.5 1.5q.6 5.1-2.5 6.5l-.5-2.5zm99 5 .5 22.5-6 18L160 95q-2.7-1.1-2 1.5l-15 17 3.5 4.5 9.5 8.5q-1.9 9.1-8.5 13.5l-17 12-12 5q-4.7-1.2-6 1h-34l-22-4-9-3-7.5-6.5-1-3 5.5-7.5 9 3h4l1.5 1.5 1.5 2.5q4.6-.6 6 2h5l6.5-2q-2.2-6 4.5-4l20-5 16-8 6.5-5.5-.5-1.5 1 1 4.5-4.5 1-3v-18l4-12q6.8-15.7 19.5-25.5zM163 62l-7 5q-13 11-18 31v9h2q19-13 25-39v-6zm-41 70-5 2q-4 0-3 5l7 3h8l5-2 2-3-4-4zm-30 9-3 1 4 5 5-1q4-2 1-3v-2z"/><path stroke="#000" d="m80.5 21 2.5 1.5-1.5-.5zm-6 5-3 4zm13 1 1 2zm91 4 2.5.5-2.5.5zm-4 1 2.5.5-5.5 2.5 1-2zm-7 4-1 2zm-74 2 1.5 3.5-2 .5zm67 3-2 3zm-59 1 4.5.5-4.5.5zm9 1 3.5.5-3.5.5zm7 1 2.5.5-2.5.5zm39 0-4 5zm27 0 .5 14.5h-1zm-119 1-1 2-1.5-.5zm70 3 3.5 1.5-1.5.5zm14 3-.5 1.5q.8 2.6-2.5 1.5v-1zm-101 2-2 3zm135 9 .5 2.5h-1zm-131 17 .5 2.5h-1zm124 4 .5 1.5-2 1zm-123 2 .5 3.5h-1zm-24 1 5.5.5-5.5.5zm-5 1 2.5.5-2.5.5zm15 0 3.5.5-3.5.5zm135 0-1 2zm-130 1 5.5.5-5.5.5zm-26 2-1 2zm-2 3-.5 1.5-.5 1.5-.5-1.5zm162 8 4 5zm-160 8 5 6zm165 4 .5 2.5h-1zm-158 2 1 2zm157 2-1 2zm-5 5-1 2-3 1v-1zm-136 1q2.3-.7 1.5 1.5zm-2 7-1 2zm-2 3-1.5 2.5-1.5 3.5-.5-1.5zm-4 7 .5 4.5h-1zm131 5-4 5zm-130 1 2.5 4.5h-1zm124 4-1 2zm-120 2 3.5 2.5-2.5-1.5zm7 4 2.5 1.5-1.5.5zm98 1 1.5.5-3.5 1.5v-1zm-10 4-.5 1.5 5 6-7-6zm-68 1 2.5.5-2.5.5zm6 1 3.5 1.5-4.5 3.5 2-4zm-3 5-7 8zm70 2 1 2zm2 3 1.5 2.5-2-1zm3 8 .5 3.5h-1zm-86 3 .5 2.5h-1zm86 4 .5 2.5h-1zm-84 4 4 5zm82 3-3 4z" opacity=".839"/><path fill="#2c3957" stroke="#2c3957" d="m79.5 29 2.5.5-2.5.5zm-3 4-1 2zm96 7-1 2zm-101 1 .5 2.5h-1zm9 1 3.5.5-3.5.5zm89 0-1 2zm-95 1 2.5.5-2.5.5zm103 2 .5 12.5h-1zm-86 3 8.5.5-8.5.5zm-13 1 2.5.5-2.5.5zm27 0 4.5.5-4.5.5zm-33 1 2.5.5-2.5.5zm42 0 3.5.5-3.5.5zm43 1-4 5zm-106 7-.5 1.5-.5 1.5-.5-1.5zm90 0-5.5 6.5-3.5 5.5.5-1.5zm35 3 .5 2.5h-1zm-31 2-1 2zm-4 5-1 2zm-10 3-.5 1.5-3.5 6.5h-16L88 83l-1-7 21.5-4h22zm8 0-1 2zm-82 5 1.5 3.5h-1zm1 5 .5 5.5h-1zm111 1-.5 1.5-2.5 3.5 1.5-2.5zm-4 6-1 2zm-45 3q5.3-1.7 3.5 3.5l-1 3 1 1v10h-1v-10l-3.5-.5-21 6-12 1 .5-1.5Q86 99 88.5 98l11-1zm10 1 .5 3.5h-1zm31 1-1 2zm-119 1 2.5.5-2.5.5zm16 0q2.6-.7 1.5 2l-6-.5zm-11 1 5.5.5-5.5.5zm-27 2q0 7 4 10l14.5 8.5-1.5.5L22 105.5q-3.1-3-1.5-8.5Zm136 2-4 5zm10 4 2.5.5-2.5.5zm-6 2-6.5 7.5 5.5 6.5-6.5-6.5zm12 0 2 3zm-51 4-1 2-3 1v-1zm-7 3 1.5.5-7.5 2.5v-1zm61 1 .5 1.5-4 3zm-49 1-1 2zm18 0 2 3zm-43 2 2.5.5-2.5.5zm-58 1 11.5 2.5-4.5.5-7-2zm53 0 3.5.5-8.5 1.5v-1zm73 1 1.5.5-4.5 1.5v-1zm-84 1 4.5.5-4.5.5zm-29 1 26.5.5-26.5.5zm30 6 3.5.5-3.5.5zm-30 1 6.5.5-6.5.5zm18 0 7.5.5-7.5.5zm-29 4-1 2zm114 2 .5 2.5h-1zm-118 3-1 2zm18 1 1.5 2.5-2-1zm18 1 .5 1.5-2 1zm-10 3 6.5.5-6.5.5zm89 1-1 2zm-117 3 3 4zm25 11 2.5.5-2.5.5zm60 0 2.5.5-2.5.5zm-53 1 2.5.5-2.5.5zm7 1 4.5.5-4.5.5zm26 0 8.5.5-8.5.5zm-21 8 .5 4q-4.5 1.5-3-3zm46 4 5.5 9.5-1.5-.5-9-1-4 1q-1.4-4-6.5-3-1.8-4.9 4.5-3zm-56 2 3 1 4-1-.5 1.5q-2.2 6.3 3.5 4.5v1l-11 1-3.5-4.5zm-7 6-2 3zm69 3 .5 2.5h-1zm-72 1 .5 5.5h-1zm24 0 1.5.5-12.5 8.5 2-3zm-23 7 1 2zm71 1-.5 1.5q.8 2.3-1.5 1.5l-6 3v-1q5.9-.6 8-5Zm-28 1 11.5 4.5-2.5.5-9-4zm-20 1 4.5.5-1 2 2.5 3.5q.5-3.5 5-3l5.5 2q1.1 2.7-1.5 2l-1 1h-14l-4-5-8 5 1-2zm18 6 3.5 1.5-2.5.5z"/><path fill="#fae962" stroke="#fae962" d="M83.5 84q6.1-1.2 5.5 1.5l-1 1V98l-5.5 1h-11q-1.5-2.5-7-1L63 96.5V86h12.5zm-6 86 .5 2-2-.5zm40 0 7.5.5-8.5 1.5zm-31 8 5.5 1.5-3.5 2.5zm22 3 1.5.5-2 .5-1 5-6.5 1-3.5-2.5z"/><path fill="#16151c" stroke="#16151c" d="m78.5 30-1 2zm4 0 1 2zm2 3 1 2zm-14 10 2.5 1.5-1.5.5zm97 0-1 2zm-4 3-1 2zm-81 2 8.5.5-8.5.5zm18 0 4.5.5-4.5.5zm-25 1 2.5.5-2.5.5zm35 0 2.5.5-2.5.5zm67 9 .5 3.5h-1zm-36 1-1 2zm-4 4-1 2zm6 2-1 2zm-8 1-1 2zm-2 3-1 2zm-76 9 .5 3.5h-1zm70 3 .5 1.5-3.5 9.5-.5-1.5zm-69 6 .5 3.5h-1zm106 3-2 3zm-137 2 6.5.5-6.5.5zm11 1 2.5.5-2.5.5zm20 0-1 2-2.5-.5zm65 2 .5 2.5h-1zm6 2 .5 9.5h-1zm29 0-1 2zm2.5 5 6 .5-4.5.5-9 9 7.5-8.5zm-8.5 2-6.5 7.5-.5 2.5-.5-2.5zm-28 2 .5 2.5-3.5 2.5 1-2q2.9.7 2-3Zm-98 3 1 2zm103 0 .5 2.5-3 2zm-100 2 1 2zm147 0 .5 3.5-7.5 5.5v-1l6.5-4.5zm-23 2 5 6zm-5 4 5 6zm-58 2 3.5.5-3.5.5zm-37 1 2.5.5-2.5.5zm30 0 4.5.5-4.5.5zm79 0 3.5.5-3.5.5zm-102 1 18.5.5-18.5.5zm-12 4 2.5.5-3.5 1.5zm41 0 3.5.5-3.5.5zm-36 1 2.5.5-2.5.5zm10 1 10.5.5-10.5.5zm-18 3-1 2zm-2 3-1 2zm20 1 7.5.5-7.5.5zm54 0-1.5 2.5-.5 2.5-.5-2.5zm-42 2 1 2zm59 1-1 2-2 1 1-2zm-74 1 1 2zm94 6-1 2zm-41 14 3.5.5-3.5.5zm-30 1 12.5.5-12.5.5zm31 4 3.5.5-2 .5-2 12-7.5 1-5.5-2.5 2.5-.5 4 2 1.5-1.5 1-9.5-3-.5zm6 1 3.5 1.5-1.5-.5q-3 .5-2-1Zm-37 1 21.5.5-7.5 3.5q-2.2-5-10.5-3v6h8.5v1h-14q-1 0-.5 4.5h-1l1-7.5q4.5 1.8 3-3.5l-1.5.5-2.5-.5zm42 1 2 3zm-48 2-1 2zm-3 2-1 2zm56 1 3.5 4.5h-1zm-33 2 2.5.5-2.5.5zm-28 1-4 5zm48 2 2 3zM93 178l2 .5-3 2zm22.5 1 2.5.5-2.5.5zm21 3 .5 7.5h-1zm-51 2 1.5.5-3.5 2.5zm11 0-1 3 1.5.5-1.5.5-2.5-1.5zm3 4 7.5 3.5-1.5.5-6-3zm-21 1-1 2zm9 2q4.5-1 5.5 1.5l-1.5-.5q-5-1-6 2zm-19 1 5.5.5-5.5.5zm28 1 1 2zm37 0-1 2zm-15 3 9.5.5-9.5.5zm-43 2-1 2z"/><path stroke="#000" d="m77.5 23 .5 3-3-.5zm7 1 6.5 9.5h-1l-.5-1.5H84zm-13 6 .5 2-2-.5zm111 10 .5 2.5h-1zM96 42q4.6-1.2 6 1.5l-6 .5zm86.5 17 .5 2.5h-1zm-137 4 1.5 2.5h-1zm135 5 .5 2.5h-1zM36 87l7 1.5-1 3.5h-6zm134.5 3 .5 1.5-2.5 3.5-.5-3q2.8 1 2.5-2Zm-156 6 .5 2h3v6q-3.7 1.5-3-1.5-2.6-1.6-.5-6.5Zm163 6 1 2zm3 3 1.5 2.5h-1zm2 4 .5 3.5h-1zm-156 2 3.5 1.5-1.5.5zm0 5 2.5 1.5-1.5-.5zm4 2 4.5 2.5-1.5-.5q-3.8-.2-3-2Zm136 16 .5 2.5h-1zM36 146q4.7-1 6 2.5 1.8 5.7-4.5 3.5-2.7-1.4-1.5-6Zm117.5 0h2.5v6l-4.5 2v-2q-3 .9-1.5-3.5zM72 158l6 1v5h-6zm66.5 0 1.5.5-3.5 1.5v-1zm-71 4 2.5.5-2.5.5zm62 0 1 2zm-61 6-1 2zm65 4 1.5 3.5h-1zm9 13 .5 2.5h-1zm-84 6 1 2z" opacity=".996"/><path stroke="#000" d="m80.5 22 3.5 1-.5 8q-3.3-6.3-6.5.5l-6 8-1 4 2.5 1.5L88 42l-2-7.5-2-2 6-.5 3 5.5V42q4.3-1 3.5 2h5q1.3-2.3 6-1l1 1 18 2 21.5 8 2.5-4 12-10 5.5-2q-1.2-3 2.5-2l4-3 6.5-1 2 11.5v15l-3 10v5L172 90l-4 2v3q-3-1-2 2 6.9.3 11 4.5l1.5 2.5q2.3-.7 1.5 1.5 3.6 2.9 2 11l-4.5 5.5-9 4H164q2.9 4.9 2 14.5l-4.5 6.5q-2.2-.7-1.5 1.5l-3.5 2.5-.5-5-2-.5 6-8v-5q-3.9-9.6-11.5-15.5l-4.5-3.5h2v-2L159 96q2.7 1.1 2-1.5 8.4-7.6 13-19l4-14v-18l-1-5.5q-20.6 10.6-35 28.5-7.4 8.6-11 21l-2 10v9l1 2-4.5 6.5-6 3-24 7h-6l-6 2h-27l-8-2-9.5 13.5-1 5 1 2.5q-4.1-1.7-3 2.5l-2-1-1-8 7-10 2-6.5-5.5-1-3-3-8.5-3-.5-2-1 1-3.5-3.5-2-3-3-4 3-.5v-6q-4.5 1.8-3-3.5l3.5-4.5 9-3H36v5h6l.5-3H53v-5.5l-3-11-3-5v-3l-3-3V56l21-10.5Q66.2 37 70 32q3 1.3 2-2.5 1.3-4.2 6-3.5-1.5-3.7 1.5-3zM83 48l-1 1-11 1-12 4-9 6 7 17 2 16-4 2h-7l-14-3q-10-1-14 5-1 5 1 7v2h2q-1 3 2 2 3 2 2 4l2-1-1 2 17 6 16 3h18l1-1 14-1 19-5 12-6-1-3V93l2-3 3-12 9-15 3-2 1-4-22-7-14-1-1-1zm78 54-8 10v2l10 7 8-1 6-5-1-6q-4-8-15-7Z"/><path stroke="#000" d="M120.5 133q7.7-.8 11.5 1l2 4q-3.5 3.2-11.5 3l-6.5-2q-.7-3.8 2.5-5zm-59 2h12l3.5 3.5q.8 2.3-1.5 1.5l-1 1h-9l-5.5-3.5zm-19 14 12 6 17.5 3v5h-1.5l-17-3-12-5-2.5-2.5 3-.5zm106 0h1.5q-1.5 3.7 1.5 3l-1 2-21.5 8.5 8 7-.5 1.5q2.6-.8 1.5 2.5 5.7 5.3 4 18l-4.5 6.5-3 2h-24l-14-7h-3l-2-2h-4l-14 9H68q1.3-3-2.5-2l-3.5-2.5-2-3q-4.7-1.7-3-10 2.9-8.1 9.5-12.5l5-4H74q-1.2-3.7 4-2v-5h4.5l1 1h12l1-1h20l6-2h6zM115 163l-8 2H84l-9 5-2 3-3 1q-6 4-8 11l2 6 5 2h5l12-8q2 1 1-2l6-2 2-3H81v-5h16l10 4 5-1q6-1 7 3l-20 4-6 4 26 10q9 1 14-2l4-5q1-8-2-12v-2l-1-3h-1l-3-4-7-5z"/></svg>