<svg xmlns="http://www.w3.org/2000/svg" width="200" height="200"><path fill="#2d2023" stroke="#2d2023" d="m108.5 44 3.5.5-3.5.5zm-50 66-1 2zm53 7q5.3-1.2 6.5 1.5-.1 6.4-4.5 8.5l-7 2-6.5-2-1-2.5 1-2.5zM56 121h6.5l9.5 4.5-2.5 5.5Q59 133 57 126.5zm-20.5 3-1 2zm114 0 1 2zm-27 2 .5 2-2-.5zM30 145l7 2.5-2.5 4.5-5.5-2.5zm88.5 7-1 2zm-101 3 3.5 1.5-1.5.5zm5 2 3.5.5-3.5.5zm108 1-2 3zm-4 4-1 2zm-84 1 .5 2.5h-1zm25 0-.5 1.5-.5 1.5-.5-1.5zm66 0-3 4zm-10 3-1 2zm-12 5 .5 5.5h-1zm.5 7h6.5l.5 1.5-1 3.5h-6zm13.5 8q8.4.1 11.5 5.5v2.5q3-1.2 2 2.5l-4 3 1-1-4.5-4.5-6-4H123zm-49 6 3.5.5-3.5.5zm15 2 .5 2.5h-1zm5 1 3.5.5-3.5.5z"/><path stroke="#000" d="m0 0 24 .5-6 3-1 5 1 1 1 16 2.5 4.5q2.6-.8 1.5 2.5l4 8L28 56q-7.6-1.1-10 4.5v6l3 12L23 97l-23 3zm47.5 0h152l.5.5v47h-1q-6.6-22.4-23.5-34.5-14.3-9.2-37-10l-18 4L105 19.5q-8.4 9.1-11 24L89.5 48l-10 1L52 57l-3-4.5-2-16q2.8-.8 2-5L48 27l2-.5v-10zm94 58q9.8-1.7 11.5 4.5 2.7 2.3 2 8L144.5 61zm58 26 .5 116h-52.5l-.5-1.5 4.5-4.5 1 1 7 2h8l11-3 10.5-9.5q6.1-9.4 4-27l-1-4.5-3 1.5q-2.1 7.4-7.5 11.5-3 3-10 2-6.2-4.3-7.5-13.5l23-37q8.7-14.3 12.5-33.5Zm-186 48q5.7-1.8 3.5 4.5l1 5-6 7-2 7-2.5 2.5-2.5 1.5v5q5.7 7.8 8 19l9.5 13.5 9.5 2.5-32 .5v-65.5l1.5-.5 3 1zm117 11q2.8-.6 1.5 5.5l-1.5-.5-5.5-2.5z" opacity=".012"/><path fill="#452e38" stroke="#452e38" d="m153.5 35 2.5.5-2.5.5zm-10 4-1 2zm-3 2-6 7zm-16 2 2 3zm-8 3 4.5 3.5q.8 2.6-2.5 1.5l-2.5-1.5 1-2zm-15 1 3.5 1.5-4 .5zm26 0 1 2zm-18 2 3.5.5-3.5.5zm23 1-2 3zm62 9 .5 10.5h-1zm-91 9 6.5.5-6.5.5zm-49 1 3.5.5-3.5.5zm44 2-2 3zm-51 1-4 5zm72 2 .5 4.5-3.5 4.5-.5-1.5q4-1.5 3.5-7.5Zm74 1 .5 2.5h-1zm-7 26 .5 1.5-1.5 2.5-.5-1.5zm-96 6 .5 4.5h-1zM30 109l13 6.5-3.5 3.5-1-1-6.5-2v-4h-1.5l-2.5 1.5zm26.5 3-1 2zm92 0 .5 2.5h-1zm33 0-1 2zm-24 1 .5 4.5h-1zm-44 3q3.8-.7 4.5 1.5l-1.5-.5q-4 .8-3-1Zm-4 1 1.5.5-3.5 1.5v-1zm-5 2 1.5.5-2.5 1.5zm-66 1-2 3zm19 0 4.5.5-4.5.5zm92 0 .5 3.5h-1zm-86 1 4.5 1.5-1.5.5-3-1zm100 0 .5 1.5-6.5 7.5 4.5-5.5zm-89 1 2 3zm-18 1 .5 2.5h-1zm15 1 1.5 2.5h-1zm45 0-2 3zm-59 3 3 4zm23 0 1 2zm43 0-1 2-1.5-.5zm-20 1 2.5.5-2.5.5zm-40 3 4.5.5-4.5.5zm84 9 .5 1.5-1.5 2.5-.5-1.5zm-94 1 1 2zm92 4 .5 1.5-2 1zm-73 2 2.5.5-2.5.5zm-50 1 1 2zm-2 1-1 2zm10 1 4.5 2.5-1 2.5-7.5 2h-5l-4.5-2 1.5-3q3 3 10 2l2.5-1zm-6 1 1 2zm63 3 4.5 1.5v2q1.5 4.4-1.5 3.5l-2.5 1zm30 0-1 2zm24 3 1 2zm-72 2-1.5 2.5-4.5 10.5-.5-4.5 1-6.5q4.3 1 5.5-2Zm44 3 2 3 7 1 2.5-1.5q-4.1 2.4-4.5 8.5l-2-3-5-1-1.5.5zm-75 1-.5 1.5-.5 1.5-.5-1.5zm37 0 1 2zm-34 2 .5 1.5q-1.2 3.3-5 2.5l.5-2 1 1zm71 12 3.5.5-3.5.5zm23 0-1 2zm-32 2q2.8-.6 1.5 5.5l1 4.5H94.5l-8.5-1.5 5.5-4.5q8.9.9 12-4Zm-71 2-1 2zm79.5 2 6 .5-6 1.5zm66.5 1-1 2zm-57 6 6 1 8.5 7.5-1.5 1.5H122q-1.5-5.4 1.5-7l2.5-1.5-4.5-.5zm19 4-1 2zm-71 2 .5 3.5h-1zm27 0 .5 3.5h-1zm9.5 0 5 3.5-5.5.5.5-1.5zm-41.5 1q4.2-1.1 2.5 3h-4v-1.5z"/><path fill="#3b3253" stroke="#3b3253" d="m34.5 5 2.5.5-2.5.5zm6 0 .5 2.5h-1zm-11 1 3.5.5-3.5.5zm-3 1 1.5.5L25.5 9zm6 2 6.5.5-8.5 1.5v-1zM141 14l16.5 1q11.2 3.3 19 10l-1-3L187 36.5l-4.5-3.5q-7.3-5.7-18-8h-17q-16.1 3.9-24.5 15.5l-.5 1.5q-3.8-4.7-12-5l-1.5.5 7-12.5 9.5-6 14-1 1.5-1.5zm-20.5 1-1 2zm-90 1L32 27.5 28.5 29Q25 27.7 26 23h4zm87 1-1 2zm-92 1 .5 3.5h-1zm84 7-1 2zm-2 3-1 2zm-75 4 2.5.5 1 5.5 3 .5-2.5.5-2.5-1z"/><path fill="#3b3253" stroke="#3b3253" d="M170.5 37 186 48.5l3 10 1 33-5 14-8 15-14 22-12 14-3.5 6.5-3.5-3.5 1-1q4.6-12.9 14-21l-1.5-.5q-3 6-9.5 7l-3.5 5 1.5-2.5 4-13.5q8.5-1.7 13-8.5 3-4 2-12l-2-7 1-4-1-5-3-4v-8l2-5 1-12q-1.6-10.9-9.5-15.5-4.2-3.3-12.5-2.5 6-9.5 22.5-8.5l4 2 2.5-1 1-3.5zm-129 18 .5 5.5Q41 64 35.5 63l.5-1.5q-2.1-5.9 2.5-4.5zm44 0 4.5.5-4.5.5zm16 0 2.5.5-2.5.5zm-24 2 2.5.5-5 3 .5 1.5-3.5-2.5zm11 2 1.5.5q-2.6 3.4-9.5 2.5v-1zm38 1 2.5.5q-2.1 3.3-2.5-.5Zm-15 2-1 2zm4 1-1 2zm-79 2-1 2zm-3 2-.5 1.5-3.5 5.5.5-1.5zM71 67l7 3v9.5L76.5 81l-4-1-3 4 .5-1.5q4.3-2.2 3-10zm17.5 0 1.5.5q-4.2 4.3-4 13l.5 1.5-4.5-1-.5 2-.5-1.5q2.5-1.5 1-7l3.5-6.5zm32 0 3 4z"/><path fill="#3b3253" stroke="#3b3253" d="m137.5 68 12 11 1.5-.5-1 2.5 2 .5-1 2.5 2 .5-1.5.5q-2.4-4.5-7.5-5l-2-6.5zm-10 2 5.5 4.5q-.7 2.3 1.5 1.5l-.5 1.5q1 7-1.5 10.5l-.5-2-3.5-1-1.5.5q3.3-3.7 2-12zm-100 2 1.5 4.5-2 1zm98 4 .5 2.5-6.5 8.5 3.5-4.5zm-59 1 .5 1.5-4.5 6.5-3 2 5.5-6.5zm25 5q3.1 6.9 12.5 7.5l-3.5.5q-7.4-1.7-9-8Zm-23 3-5 6-2 1 1-2zm7 0-3 4zm14 2q3.4 5.1 10.5 6.5l-1.5.5q-7.2-1.7-9-7Zm37 0-4 5zm11 0 .5 2.5h-1zm-91 3 3.5.5-3.5.5zm-9 1 1 2zm93 0-5 6zm6 1 .5 1.5q-3.2 7.8-9.5 12.5l4.5-5.5zm7 0 1.5 6.5h-1zm-75 1-2 3-2 1 1-2zm19 0 8.5 5.5-1.5.5-7.5-4zm21 2 3.5.5-3.5.5zm-36 1 5.5.5-5.5.5zm11 2 2.5.5-2.5.5zm14 1 2.5.5-2.5.5zm4 1 3.5.5-3.5.5zm44 0 1 2zm4 0 4.5.5-4.5.5zm-114 1 4 5 7.5 1.5-5.5.5-6.5-5.5zm10 0 5.5.5-5.5.5zm14 0-1 2zm11.5 3h12v5.5l.5 1.5q-6.2-1.7-8 1zm-60.5 1 2.5.5-2.5.5zm128 1 2.5 7-10.5 5-1.5-6q6.3-1 9.5-6Zm-138 1 .5 2.5H0zm112 0 7.5.5-7.5.5zm-111 4 .5 2.5H1zm31 0-.5 1.5-.5 2.5-2.5-1.5zm-21 1 1.5 4.5h-1zm64 1 1 2zm9 0 .5 3.5h-1zm57 1 .5 4.5h-1zm-139 2 1.5 8.5 1.5 1.5 2.5.5-4 .5zm77 2 6 6 1.5-.5-.5 2.5zm6 0 .5 2.5h-1zm-72 1 1.5 6-4.5 1v-1l2.5-1.5zm129 3 .5 4.5h-1zm-101 5-1 2zm3 0 .5 4.5h-1zm-5 3q3.4-.9 1.5 4.5l1 3-3.5-2.5q-2.6.8-1.5-2.5zm102 0 .5 2.5h-1zm-95 13 5 6zm7 6 1 2zm3 2 2.5 1.5-1.5.5zm53 0-1 2zm-66 2 1 2zm50 0 2.5.5-4.5 1.5v-1zm13 0-1 2zm-15 3q2.3.8 1.5 4.5h-1zm10 0-1 2zm-53 3 4 5zm39 0 .5 3.5h-1zm-5 1 1 2zm-69 1-.5 1.5-.5 1.5-.5-1.5zm43 1-1 2-1.5-.5zm-28 1 2.5.5-3 1 2.5 4.5 1-2 .5 3.5-4.5 4.5-1.5-1.5-4-9 1.5.5q4.3.8 5-2Zm45.5 1 11 6.5-7.5 1.5-4.5 2.5 1 6.5-5 3.5-1.5 3.5-.5-2.5 4-15zm79.5 1 .5 3.5h-1zm-22 1-2 3zm-82 2 1.5 1.5 1 16 1.5 1.5 1.5.5-5 4-2 6-2.5 2.5-5.5-.5 5-10 1-8q-2.7-1.7-1-8zm114 1 3 4zm-63 1q4.5-1 5.5 1.5l-.5 2.5-.5-3h-4.5zm85 1 .5 1.5-5.5 10.5-3-1-1 1h-10l-7-3-1 2q.3-5.2-2.5-7.5l2.5 1.5 8 3h5l9.5-4.5q-.7-2.2 1.5-1.5zm-54 1-1 2-3 2 2-3z"/><path fill="#3b3253" stroke="#3b3253" d="m173.5 175 2.5.5-2.5.5zm-155 1 1 2zm139 10 6.5 2.5-5.5.5zm-68 7 1 2zm1 3 .5 3.5h-1z"/><path fill="#1a182d" stroke="#1a182d" d="m24.5 11 .5 2.5h-1zm17 2 .5 2.5h-1zm-9 8-1 2zm5 7 3.5.5-3.5.5zm120 7 9 1 3.5 2.5q1.3 4.6-4.5 2.5l-1-1h-9q-11.9 2.1-17.5 10.5.8 2.6-2.5 1.5l-3 2-.5-2.5 9.5-10.5q6.5-4.5 16-6Zm-59 14 21 2 4.5 2.5 3 6-2 1q2.3-1.2-.5-2.5L95 53.5z"/><path fill="#1a182d" stroke="#1a182d" d="m143.5 50 3.5.5-3.5.5zm-108 8 .5 3.5h-1zm67 3 3.5.5-3.5.5zm27 2 1 2zm-29 1q17.9-2.4 23.5 7.5v8l-3 5.5-8.5 4h-11Q95 87.5 92 82.5l-1-9 5.5-7.5zm2.5 4-4 2-4 5 1 7 6 3 5 1 7-1 3-2 3-4-1-6-4-4zm-47.5-3 7 1 3.5 3.5 1 6-6.5 9.5-9 5h-8L39 86.5l-1-8 5.5-8.5zM54 69l-5 2-7 7v5l6 3 6-2h2q-1-3 2-2 5-2 4-10-2-4-8-3Z"/><path fill="#1a182d" stroke="#1a182d" d="m72.5 81 3.5 1-1 3.5L64.5 96l-14 5h-8L34 96q-1.2-4.6 1.5-6 4 6 13 7l8-2L68 88zm9.5 1q3.8-1 5 1.5.5 5.6 4.5 7.5l13 5h10q8.9-2.1 13.5-8.5-.8-2.6 2.5-1.5l1.5 2.5-7.5 8.5q-7.6 4.9-22 3-9.7-1.8-15.5-7.5l-5-8z"/><path fill="#1a182d" stroke="#1a182d" d="m138 84 5 3.5q.8 15.8-8.5 21.5l-6.5 3.5.5 1.5-5-1-5 1-1-1-12-1-11-5-14-4h-10l-16 9-14 3-9.5-6.5 3.5-6.5 4 5 6 2 12-4 11-7 10-1 32 11h12l5-1 6.5-5.5 5-10zm3 24h6v2.5l2 9-1 4-2.5 2.5-3 2 .5-1.5v-11zm-123.5 2 1 3 1.5-.5-1.5 3.5z"/><path fill="#1a182d" stroke="#1a182d" d="m74.5 112 .5 2.5L86.5 127q3 .9 1.5-3.5l-3-9 1.5.5 3.5 1.5 1 9 4 9.5q-9.4-1.7-15-8.5 1.3-3.7-2.5-2.5l-3.5-2.5-4-5 2-1-2-1 4-.5zm54 6v2q3.3-1.1 2.5 1.5l5 12-6 .5-2-5.5V124q-3 1.3-2-2.5l-.5-1.5zm32 28-.5 1.5q.8 6.1-1 8.5-2.7-1.1-2 1.5-4.8 3.2-4.5 11.5l-3.5-4.5v-3zm-118 7 1.5 2.5-2-1zm7 10 .5 3.5h-1zm7 1 .5 2.5h-1zm1 10 .5 2.5h-1zm20 13 5.5.5-5.5.5zm-18 1 .5 3.5h-1z"/><path fill="#dcc3c8" stroke="#dcc3c8" d="M34 39q3.3-1.3 2 3.5 3 5.3 2 13.5-2.7 1.1-2-1.5l-1-1q.8-9.2-1-14.5Zm23.5 24q9.4.1 13.5 5.5l1 2-1.5-.5-8-5-5-1zm40 0 2.5.5-7 4-3 7v5L87.5 82l-.5-7.5q1.5-6.5 6.5-9.5zM78 70l5 .5-1 2.5-4-1.5zm-39.5 4-.5 1.5-1 9 1 3-2 1-1-9zM96 75q10.8 2 19 7.5-3.6 3.4-12.5 1.5L97 82zm-53 3 12 3q1.1 2.7-1.5 2l-7 2-3.5-2.5-1-2zm106.5 30 6.5 1v4h-1.5l-5.5-1-1-2.5zm-120 7 .5 5.5-1 1v11l-2.5 3.5-.5-11.5zm64 4 6.5.5q-2.5 1.5-1 7 2.8 3.3 8.5 3.5l7-2 6-5h3q3.9 3.6 2.5 12.5l-4.5 3.5-19 6-11 1-1 1h-22l-11-3-4.5-3.5-1-2V129h3.5l5 3h8l3.5-2.5 1.5-2.5 9 8 8 3-1-3 6.5 1-4-15.5zm28.5 6-2 4q5 2 4-2zm15.5 53q6-1.5 7.5 1.5-1.6 6.9-7.5 9.5l-8.5-3 5.5-7zm-111 10 6.5 3.5-3.5.5-2.5-1z"/><path fill="#19161b" stroke="#19161b" d="m36.5 31 1.5.5-2.5 1.5zm4 39-1 2zm101 15 2 3zm9 8 2 3zm-8 3 1 2zm-127 14q2.6-.8 1.5 2.5l2 4-3.5 8.5-2.5-14zm38 4-2 3zm37 0-1 2zm-52 16-1 2zm-3 21 5.5 10.5-4 3-1 3 1 2.5q-7.5 2.8-5-5.5-1-2.5-5.5-1.5l-4 1-7.5-3 2.5-5 8 2q1.7-2.8 7-2l2.5-2.5zm77 0 5.5 1.5-5 9-2 14.5h-5v-12.5l-.5-1.5q2.6.8 1.5-2.5zm-38 4q4.4-1.5 3.5 1.5l-3 5 5.5 6.5-6.5-5q1.1 2.7-1.5 2l-.5 2.5q-4.8 8.2-5.5 20.5L65 176.5l-2-3 8-15V156zm55 1 3.5 5 4 1.5-2.5.5-4.5 3.5-2.5 3.5-4.5-1 4-8 4-2.5zm-26 7-1 2zm-61 3-2 3zm46 3 2.5.5-2.5.5zm56 2 1 2zm-17 5 .5 2.5h-1zm-9 4 .5 3.5h-1zm10 0 1 2zm-1 4-1 2zm-38 4 2.5.5-2.5.5zm56 2-1 2zm-72 4 1.5 6h-5v-3.5zm18.5 1q6.4-2.1 4 5h-5v-2.5zm8.5 0 2.5.5-2.5.5zm8 1 1 2z" opacity=".996"/><path stroke="#000" d="m47.5 1 .5 2.5h-1zm-28 1-1 2zm119 1 6.5.5-6.5.5zm-7 1 4.5.5-4.5.5zm17 0 3.5.5-3.5.5zm-131 1 .5 3.5h-1zm109 0 2.5.5-2.5.5zm-78 2 .5 4.5h-1zm72 0 1.5.5-2.5 1.5zm-3 2-1 2zm-3 2-2 3zm-96 1 .5 6.5h-1zm155 0 6.5 5.5-4.5-3.5zm-63 2-5 6zm-61 2 .5 3.5h-1zm-30 5 .5 4.5h-1zm85 0-2 3zm79 0 4 5zm-82 4-.5 1.5-3.5 7.5-.5-1.5zm-81 2 1.5 2.5-2-1zm168 0 6.5 9.5-2-1zm-140 4 .5 3.5-2 1zm-24 3 2.5 5.5h-1zm71 3 .5 2.5h-1zm100 1 2.5 5.5h-1zm-148 2 .5 3.5h-1zm47 1 .5 2.5-5.5 5.5h-4v-1h4l4.5-4.5zm-67 1 .5 6.5h-1zm21 4 .5 3.5h-1zm31 3 3.5.5-3.5.5zm-51 4 .5 2.5Q28 58 23.5 57v-1q6 1.9 5-3Zm21 0 3.5 4.5-2-1zm6 3 2.5.5-2.5.5zm-34 1L19 60.5l-.5 6.5-.5-6.5zm120 0 6.5.5-7 1 1.5 2.5q-4.5-2-1-4Zm8 1 3 4zm-5 3 3 4zm9 2 1.5 2.5h-1zm2 4 .5 5.5-4-3 3 1zm-136 1 .5 4.5h-1zm1 7 .5 2.5h-1zm1 4 .5 4.5h-1zm1 6 .5 5.5h-1zm1 7 .5 4.5Q23 99 18.5 98v-1H23zm173 0 .5 2.5h-1zm-184 6 3.5.5-3.5.5zm-6 1 4.5.5L.5 101v-1q4.8 1.3 6-1Zm188 0 .5 1.5-1.5 2.5-.5-1.5zm-2 5 .5 1.5-1.5 2.5-.5-1.5zm-5 11-.5 1.5-1.5 2.5.5-1.5zm-3 5-.5 1.5-1.5 2.5.5-1.5zm-3 5-.5 1.5-7.5 11.5.5-1.5zm-168 6 3.5.5-6.5 1.5v-1zm-8 2 3.5.5-6.5 1.5v-1zm12 0 .5 3.5h-1zm1 6 .5 2.5-4 3zm154 0-1 2zm-41 3q3-.5 1.5 6.5-1.5 3-3 0h2zm39 0-.5 1.5-1.5 2.5.5-1.5zm-46 3 1 2zm-111 2-1 2zm154 0-.5 1.5-2.5 5.5-.5-1.5zm23 6q2.3-.7 1.5 1.5h-3zm-181 3-2 3q-2.7-.6-1.5 5.5l3 6H8l-3-6v-5zm155 0 .5 2.5h-1zm2 6 4.5 5.5-4-3zm18 1-3 4-3 1v-1zm-12 5 4.5.5-4.5.5zm20 0 .5 5.5h-1zm-1 8 .5 2.5h-1zm-178 6 2.5 4.5-2-1zm176 0-.5 1.5-7.5 8.5 6.5-7.5zm-172 8 5 6 3.5 1.5-1.5.5-5.5-4.5zm162 2-1 2-3 1v-1zm-29 2-3 4zm19 1 4.5.5-4.5.5zm-10 1 8.5.5-8.5.5z" opacity=".812"/><path fill="#242234" stroke="#242234" d="M25.5 7 25 8.5l-.5 2.5-.5-2.5zm7 3H41v5.5l1 4.5-10.5 2L30 11zm104 0 9.5.5-9.5.5zm-23 10-2 3zm66 6 1 2zM35 29l6 .5-5.5 2.5zm-1.5 7 .5 2.5h-1zm77 1 3.5.5-3.5.5zm59 0 1.5 2.5h-1zm-14 3q9-1 14.5 1.5l-2.5 1.5q-3.7-3.3-12-2-9.7 1.8-14.5 8.5l2 1-4.5.5 5-6zm-49 9 2.5.5-2.5.5zm8 1 3.5.5-3.5.5zm33 0 4.5 1.5-1.5.5-3-1zm6 2 6 7zm-59 2 8.5.5-8.5.5zm10 1 3.5.5-3.5.5zm-62 1 .5 4.5-4 3q3.9-1.6 3.5-7.5Zm80 2 3.5 1.5-1.5.5zm-43 4 2.5.5-2.5.5zm24 1 6.5.5-6.5.5zm28 2 1 2zm-67 2 1 2zm30 0-1 2zm68 0 .5 6.5h-1zm-78 1-1 2zm-24 2 1 2zm38 0-2 3zm26 3 .5 4.5h-1zm-96 4-1 2zm44 3-1 2zm46 0-1 2zm-44 1q3.3-1.1 2.5 1.5l-1.5-.5zm8 0q3.8-.7 4.5 1.5l-1.5-.5q-4 .8-3-1Zm65 0 1 2zm-25 1-1 2zm-52 1-1 2zm17 1 4.5 6.5-4-3zm-40 1 2.5.5-2.5.5zm12 0-1 2zm47 0 2.5.5-2.5.5zm13 0-1 2zm9 0 1.5.5-2 .5-4.5 6 3.5-4.5zm-89 2 1 2zm-4 2 1 2zm36 0-5 6zm33 0 6.5.5-6.5.5zm-19 1 1 2zm75 3 1 2zm-56 2 3.5.5-3.5.5zm8 0 2.5.5-2.5.5zm-77 1 2 3zm10 0 3.5.5-3.5.5zm24 1 3.5.5-3.5.5zm65 1-1 2zm20 0 .5 2.5h-1zm-48 2 6.5.5-6.5.5zm-46 1-1 2zm72 0-3 4zm31 0 .5 3.5h-1zm-128 2 3 4zm22 0-1 2-1.5-.5zm12.5 0 11 .5-9.5.5-1 1zm13.5 1 .5 5.5h-1zm55 1-4 5-2 1 1-2zm-29 2 2.5.5-2.5.5zm30 0 2.5 6.5h-1zm24 0 .5 2.5h-1zm-143 2-.5 1.5-1.5 2.5-.5-3zm144 3 .5 6.5h-1zm-50 1 3.5.5-3.5.5zm-39 1 3 4zm-6 1 2.5.5-2.5.5zm16 0 .5 2.5h-1zm57 0 .5 6.5h-1zm6 0 .5 2.5h-1zm-78 2 3 4zm59 1q2.6-.7 1.5 2l-3-.5zm-43 1 1.5 8-8-6.5 7 5zm62 1 .5 2.5h-1zm-57 2 .5 3.5h-1zm-15 1 3.5 1-.5 3zm-33 1-1 2zm83 0q3-.9 1.5 3.5h-1zm-82 8 .5 3.5h-1zm106 0 1.5.5-2 .5-.5 2-.5-1.5zm-112 3 3 4zm123 9-1 2zm-4 5-2 3zm-114 5 4 5zm45 0 2.5.5-2.5.5zm64 1-1 2zm-103 6q1.4 4 6.5 3 1.9 4.2 1 12.5l2 6V193q-2.7-1.1-2 1.5l-1 5.5h-8.5l-.5-1.5 5.5-9.5 2.5-1.5-3-1.5-1-18-2-.5 1-4zm41 0 3.5.5-6.5 2.5 1-2zm15 2 .5 3.5-1 2 .5 1.5-11.5 1-1 6 10.5 1 2-3 .5 9.5h-1q1.3-6.1-1.5-5.5-3.5 4.5-12 4l-6 5-1-1h-8l-8.5 2 4.5-8q3 .9 1.5-3.5l-1-3.5 14.5-4h2q10.7-.8 16-7Zm-82 1 2.5.5-2.5.5zm163 5 .5 2.5h-3zm-139 1-1 2zm91 0q6.4.1 8.5 4.5l-2.5.5q-10.5 0-14 7-3.7-1.5-2.5-7zm-107 1-2 3zm13 3 .5 2.5h-1zm1 8 .5 3.5h-1zm61 5 .5 3-11-.5 10-.5zm50 0 1 2q-2.8.7-1-2Zm4 2 7.5.5-7.5.5z"/><path fill="#e35970" stroke="#e35970" d="M149.5 25h12l9 2q10.3 4.2 17.5 11.5l4 8 2 9v18L190.5 89 189 69.5q2.5-1.5 1-7l-2-11-5.5-7.5-16-9h-13q-13.7 3.3-20.5 13.5l-2.5 3.5-6-9q-2.2.8-1.5-1.5 8.7-12.8 26.5-16.5Zm-47 44q12.2-1.7 16.5 4.5 1.3 7.3-3.5 8.5L96 74.5zm-49 1q5.4-.6 7.5 1l1 3.5-3.5 5.5-3 2L44 78l4.5-6zm38 37 11 5 8 2h6l5.5 2.5 6 13 1 6.5-4.5 2 1.5-2.5q1.4-8.9-2.5-12.5h-3l-6 5 3.5-4.5V116h-5.5l-13 6-.5-1.5.5-1.5q-5.5-1.5-7 1l-1.5-5.5zm-29 1 2.5 1.5q5.3 12.3 15.5 19.5l9.5 5.5-1 1 1.5 2.5-8-3-9.5-8-2.5-4-8-3H56q-1.4 8.4 4.5 11l1.5.5-1.5.5-7.5-3-2-12 9-6.5q-.7-2.2 1.5-1.5zm94 3 .5 7.5-4.5 5.5-2.5-.5v-8l-1-3.5 7 1zM28 114l11 4-9.5 14-.5-10.5q2.2-1.3 1-6h-2zm-2.5 13 .5 6.5h-1zm2 8-.5 1.5-.5 1.5-.5-1.5zm129 3-1.5 2.5-11.5 18.5-3.5-3.5 1-1q3-7.5 9.5-11.5zM119 153l10 4.5-1.5 2.5-8.5-5zm26.5 22 3.5 2.5 1 6-5 7.5-5.5 3-3.5-4.5 8-7 1-3q-1.5-3-7.5-1.5l-2 1v-1zm-109 2 1.5 1.5v8l-3.5 5.5-10.5-5.5q-.8-2.6 2.5-1.5l4-1 4.5-4.5zm123 4 9 3h6l5-2 .5 2-7.5 4-7 1-8.5-3.5zM75 193h11.5l.5 2-12 4z"/><path stroke="#000" d="M26.5 0h20q1 0 .5 4.5l1 1 2 19-1 2.5-2 .5q2.5 1.5 1 7l-1 1v9l2 9 3.5 4.5 25-8 12-1 5.5-5.5 2-9 5-10 9.5-10.5 14-8 11-1 1-1h9l20 5q9.8 4.3 16.5 11.5 9.2 10.3 15 24l2 6V67l-3 1.5-1 15.5q-3.8 1.5-3-1.5l2-7v-20l-2-9-4-9-6-9-7.5-7.5-8-5-14-5q-8.3-2.7-21-1-12.3 2.5-19.5 9v2q-2.7-1.1-2 1.5-7.7 6.3-10 18l1.5-.5 12-1q8.4 2.2 12.5 8.5l3.5 6.5 16-3q8.3 2.2 12.5 8.5l2 4v15q-3.1 5.4-2 15l3 5 1 22-5.5 7.5-9.5 5.5-2 9-7 14 9 8 8 11 1 9-2 4q3.2 3.3 10.5 2.5l10-3 6.5-5.5q5.2-5.3 6-15l-5.5 4.5q-3.7 3.3-12 2l-7.5-6.5-3-9v-4l2-10 16.5-24.5q3 .9 1.5-3.5l8-14 3.5-13.5.5 7 3-1.5.5-1.5.5 2.5-8 19-15 24.5q-3-1.2-2 2.5l-7 11v6q2.3 6.8 7.5 10.5 11.8.3 15.5-7.5l3.5-7.5q2.8 1.3.5 2.5l1 2v16q-2.1 12.4-11.5 17.5l-6 3-17 1-7-2-5 6-8.5-.5 2-.5 12-14.5v-6L135.5 160l-3-2-10-6-14-3-8 3-15 1-1 1h-10l-1 1q-1-3-6-2l-3.5 1-2 20.5 2 2 1 11 1 2.5 5.5-1h20q5.9 3.7 16.5 2l-2-14h5v8.5q1.3 2.8 2.5.5l5.5-1 2-12.5 1.5-1.5q4.4-1.5 3.5 1.5l-1 2 4 8-7.5 6.5-8.5 2-1 3.5 1 2.5 6 1q1.4 4-5.5 2l-6-5q-11.5 1.5-17-3h-15l-5 3q-6.2-.6-8.5 2v3h-5q-1.2-4.6 1.5-6 2.3.8 1.5-1.5l1-5-3-16v-13l2-6.5q-7.3-2.5-12-8.5l-3-7v-4l1-1V123l-4 1.5-7 10 7 6 1 7-2 5v2l1.5 2.5 3.5 1q2.9 2.9 2 10.5l-5 6v3l1 1v10L39 200h-6l-.5-2h-5l-7.5-4.5-7-12-7-17V159l4-2.5q.9-7.6 5.5-11.5 2.3.8 1.5-1.5l2-4-2-8.5-15.5 3-1.5-1.5v-16h1v6l2 5.5q7.6.9 12.5-2l3.5-3.5v-4l6-15.5-25 3q-2.8-7.5 5.5-5l11-3h6l2.5-1.5-5-22-1-14q2-5.2 10-3.5l-1-4.5v-2l-1-13-7-11-2-22L20.5 2zM39 3 27 6l-4 3 2 11v8l3 1 5 9 2 23-11 4 2 5q-1 8 2 13l4-11 13-12-3-8-1-13-1-2h-3v-5l5-1-1-4-8 1-1-4 2-2 9-1-1-15zm68 41q-10 4-16 11h-8l-9 3q-5-1-4 2l6 3h10l9-5 13-1 1-1 13 3 7 4 2 4 5 1q6 3 7 12l11 7q-1-9-6-15l-8-8-13-5-4-8-8-7zm35 13-3 2 10 6 2 4 5 4q1-8-3-11-2-6-11-5Zm-42 4-17 8h-6l-14-7q-14 0-20 6-6 4-9 12-1 5 1 7l-2 5 1 5v5l-7 13-3 12q-1 9 3 14 4-12 12-20l6-6 9-2-5 6 3 8-1 2q-2 8 1 12l5 4 11 3h24l1-1 11-1q15-4 28-11h3l2 4v7h2l4-12v-5l5-4 2 1 4-1 4-5q1-7-1-10l-5-4-1 1h-11q-1-4 2-5-1-4 2-3l2 4 3-1h6v-4l-8-8-3-3-3-3q-4-2-4-6l-7-8-9-6-10-3zM29 86l-1 3h1zm4 53-6 13-4-5-3 2q-5 3-5 10l-4 4q2 10 9 16l8-1 4-5 1 2v-4q8 2 10-4v-4l-7-11 3-5-1-4q0-4-5-4Zm99 3-9 4 7 2q1 4 3 1 1-8-1-7Zm-97 34v2l-5 5q-7-1-10 2h2l1 3q2 5 9 6l4-1 4-9-1-6z" opacity=".996"/><path fill="#070609" stroke="#070609" d="m39.5 27 2.5 1.5-1.5-.5zm-10 4 2 3zm7 3 .5 2.5h-1zm73 4 3.5.5-3.5.5zm15 6 1 2zm-5 3 2 3zm-89 15 2.5.5-2.5.5zm27 0 4.5.5-4.5.5zm35 2-1 2zm-55 1-1 2zm100 4 2 3zm-4 5 1 2zm-105 6-1 2zm123 5 2.5 1.5-1.5.5zm-9 12 1 2q-2.8.7-1-2Zm-108 4-1 2zm117 0 2.5.5-2.5.5zm-82 3 4.5 8.5-6 1.5-3-6.5zm15.5 2q3.8-.7 5 2.5 1.5 7-1.5 6.5l-3.5-2.5zm-28.5 5-1 2zm71 2 1.5 3.5q-1.2 3.3-5 2.5l-1-3.5zm-84 2-2 3zm-6 7-1 2zm122 4-1 2zm-114 1 .5 3.5h-1zm-5 11 1 2zm97 5 1.5 2.5-2-1zm-88 2 1 2zm92 6-1 2zm-125 2 .5 2.5h-1zm52 0 3.5.5-3.5.5zm71 3 2 3zm53 3 .5 7.5h-1zm-57 1 1 2zm-87 4 .5 2.5h-1zm9 2 .5 4.5h-1zm93 1 1 2zm37 0-3 4zm-155 3 .5 1.5-2 1zm11 4 .5 2.5h-1zm130 0 2.5.5-2.5.5zm-109 3 .5 2.5h-1zm-5 3 .5 5.5h-1zm-15 1 .5 3.5h-1zm81 4-4 5-2.5-.5q5.1-.4 6.5-4.5Zm-42 3 4.5.5-4.5.5zm13 2 5.5.5-5.5.5zm64 0 5.5.5-5.5.5zm-19 4-1 2z" opacity=".996"/><path fill="#100d12" stroke="#100d12" d="m42.5 19-1 2-2.5-.5zm134 3 3 4zm-151 1 .5 2.5h-1zm97 19 1 2zm-22 5-1 2zm-3 2-1 2zm-3 4-1 2zm50 15 2 3zm-13 4 1 2zm28 17 .5 2.5h-1zm-11 2 1 2zm-115 1 .5 2.5h-1zM84 105l3 .5-2 .5-.5 3zm4.5 1 1 2zm-58 2-1 2zm23 4 1 2zm68.5 2 2 .5-2 1zm7.5 2-2 3zm-112 4 .5 3.5-2 1zm21 25-1 2zm-16 2 1 2zm138 0 .5 5.5h-1zm-50 4 1.5.5-5 8v2.5l-14.5 7-7 1-3-1-7.5-7.5 2-4.5 3 1.5q-.7 2.3 1.5 1.5l4 4h3q13.5-4 22-13Zm-38 3 1 2zm3 0 3.5.5-3.5.5zm-31 2 3 4zm88 2 2 3q-2.2.8-1.5-1.5zm-91 3 1 2zm104 0 1 2zm3 3 2 3zm-26 4 2.5 1.5-1.5.5zm-60 1 .5 3.5h-1zm-29 1 2.5.5-2.5.5zm-16 6 1 2zm94 2 .5 2.5h-1zm-46 4 .5 2.5h-1zm-41 6 1 2zm78 2 3.5.5-3.5.5zm-22 2 2.5.5-2.5.5zm63 0-1 2zm-40 3 2.5.5-2.5.5zm36 1-2 3z" opacity=".996"/><path fill="#665373" stroke="#665373" d="M37.5 5q3.8-1.2 2.5 2.5l.5 1.5Q33 8 30 10v12.5l-4 .5-1-13.5L28.5 7q6.1.6 9-2Zm96 6q12.1-1.6 20 1l17 7 7.5 6.5-1.5-.5q-7.8-6.7-19-10L141 14l-1.5 4-14 1-9.5 6-7.5 13-5.5 1q2.9-12.7 12.5-20l10-6z"/><path fill="#665373" stroke="#665373" d="m162.5 25 2.5.5-2.5.5zm-131 3 3.5 1-1.5 4-3.5-2.5zm105 1-1 2zm-3 2-1 2zm46 0 1 2zm-49 2-7 8zm52 0 1 2zm-148 5 4 1 1.5-.5 2 16-5.5 2.5-1.5-2.5h1q-.7 2.6 2 1.5v-7.5L36 39zm138 0 4.5 2.5-1.5-.5q-3.7-.3-3-2Zm6 3 2 3z"/><path fill="#665373" stroke="#665373" d="m34.5 43 .5 4.5h-1zm148 1 2 3zm-75 1q7.3-1.2 9.5 2.5l-1.5 2.5-10-1-3.5-1.5zm81 9 .5 3.5h-1zm-98 1 10.5.5L87.5 60l-11 2-1-2 7-4q6.2 1.8 8-1Zm38 6q12 2.5 18.5 10.5l4 9h-1l-7.5-8.5q-2.8-4.2-9-5zm-29 1 2 1 1-1h8l10 3 7.5 6.5q2.3 3.2 1 10-1.8 7.2-7.5 10.5-5.5 4.5-17 3l-11-4-4.5-4.5-2-4q4.3-1.7 3.5-8.5l.5 8.5 6.5 6.5q5.5 2.5 15 1 7.7-1.9 11.5-7.5l2-6q-.9-6.6-5.5-9.5l-10-4h-8l-2 1zm90 0 .5 6.5h-1zm-161 1 10.5.5-7 5-3.5 6.5L26 64zm27 0 3.5 1.5-6.5.5-7 3-5.5 5.5-1.5 3.5-.5-1.5v-2l4.5-4.5z"/><path fill="#665373" stroke="#665373" d="M96.5 63q3 1.5 0 3zm-32 3 6 4 1.5-.5q-2.5 1.5 1 3v6L63.5 90q-6.5 5.5-18 6-6.5-1.5-9.5-6.5l3.5-1.5 2 2 8 1q8.9-2.1 14.5-7.5 4.7-3.8 3-14zm27 0-2 3zm3 0-1 2z"/><path fill="#665373" stroke="#665373" d="m83.5 70-.5 1.5-2 11q1.4 6.6 6 10V95l14.5 6h13q11.3-1.7 16.5-9.5 4.2-5.1 3-14.5 2.7-1.1 2 1.5l2 8q-2.6 12.9-11.5 19.5l-3 1h-15l-23-9-13-2-5 1-16 9-10 1-5.5-4.5-1-5 2.5 1.5 8 3h5l8-2L69 93.5l8-10L78.5 72l3.5 1z"/><path fill="#665373" stroke="#665373" d="m95.5 75 .5 2.5h-1zm-9 1 .5 4.5h-1zm-43 1-.5 1.5-.5 1.5-.5-1.5zm-6 1 .5 2.5h-1zm5 3 1.5 2.5-2-1zm62 3 6.5.5-6.5.5zm40 5 9.5 8.5q1.3 4.6-4.5 2.5l-3 1-3.5-9.5zm-125 15q4.4-1.5 3.5 1.5l-2.5 3.5q-6.1-.8-8.5 1l-1 4.5q3.2 2.3 2 9-1.7 3.3-7.5 2.5L4 124.5 1 107zm44 3 1 2zm-4 3-2 3zm17 1H84v5.5l2 7-9-8-2-3zm63 2q2.8-.6 1.5 5.5l1 1v10q-2.7 1.8-1 8l-2.5 5.5-2.5-12.5-5-13.5q5.4-.3 8.5-4Zm-85 1-2 3zm63 0 3.5.5-3.5.5zm-26 1 .5 4.5h-1zm58 0 .5 4.5h-1zm-79 3 2 3zm30 3-1 2zm55 0-1 2zm-130 3 .5 2.5h-1zm18 1q2.3-.7 1.5 1.5l-1 1v10q1.4 8.1 7.5 11.5l7.5 4.5-3.5 9.5-2 1L42 150.5l3-6-3-6-2-9zm34 0 3 4zm44 0 2.5 1.5-1.5-.5q-2.2-.7-1.5 1.5h-1zm-22 1 1 2zm-28 3-1 2zm11 0 1 2zm13 4 .5 2.5h-1zm34 0 .5 2.5h-1zm32 0-1.5 2.5-4.5 5.5 1.5-2.5 2-3zM32 140l5 2.5q1.7 4.8-2.5 3.5l-3.5-2.5zm23.5 2 1 2zm98 1-1 2zm-88 3 2.5.5-2.5.5zm10 1 10.5.5-10.5.5zm-54 2 2.5 1.5 1.5 2.5 3.5-1.5.5-1.5 1.5 3q-2.4 1.8-8.5 1l-3.5-1zm128 0-1 2zm-41 1 2.5.5L93.5 161l-1.5-5.5 1.5-1.5 8-1zm10 3 .5 2 8.5 5 1.5-2.5-.5-1.5 1.5 2.5-4 2.5-3.5 5-7-1-1.5-1.5v-3zm-52 1q5.8-2.1 4.5 2.5l-3.5 4.5-3.5-.5zm14 0q6.1-1.2 5.5 1.5l1 1v6.5l-7-4.5-1-3zm66 0-1 2zm10.5 3q3.3-1.3 2 3.5 1.7 8.3 7.5 12.5 3 3 9 3l5-2-1 2-8 3h-5l-8-3-3.5-3.5-1-9zm-142.5 4 8.5 4.5 5 11.5q-2.1 1.6-7.5 1-5.3-4.2-7.5-11.5v-4zm25 2q3.3-1.1 2.5 1.5l-3.5 3.5-1.5-1.5zm95 0h2l4.5 4.5q.8 2.3-1.5 1.5l-12 6-.5-2.5zm-106 1q4.6-1.3 2.5 4.5h-1zm85 5 6.5 2.5-1 6.5-7-1q-1.7-6.1 1.5-8Zm-18 2h9.5v4.5l-1.5 1.5H93zm47 4 2.5.5-2.5.5zm-108 4-1 2zm99 0-2 3zm-95 2 .5 3.5h-1zm91 2-2 3zm39 0 6.5.5-6.5.5zM23 184l4 .5-3.5 1.5zm124.5 3-2 3zm-122 1 1 2zm109 0 1 2zm-16 2 7.5 1.5-4 3q2.3 7.3-3 5.5 1.7-4.1-2.5-3l-2.5-1q-1-3.8 1.5-5zm25 1-2 3zm-113 1 3.5.5-3.5.5zm56.5 1 4 2.5-1 4.5-14-.5 11-4.5zm51.5 0 1 2zM67 196q3.7-1.2 2 4-3.7 1.2-2-4Zm30 0h8.5l.5 2.5-1.5 1.5H97z"/><path fill="#040304" stroke="#040304" d="m42.5 15 .5 2.5h-1zm-17 12 1 2zm156 0 1 2zm-87 25-2 3-1.5-.5zm9 4 4.5.5-4.5.5zm58 10 .5 8.5h-1zm-126 1-1 2zm163 0 1.5.5v12l-3 11-3.5 5.5-1.5-.5v-10l4-1.5q-1.5-10.8 2.5-17Zm-170 14-1 2zm113 3 1 2zm-113 2 .5 2.5h-1zm6 12 .5 2.5h-1zm110 3 1 2zm19 13 .5 3.5h-1zm16 3 .5 3-2-.5zm-90 30 2.5.5-2.5.5zm-48 3 .5 2.5h-1zm44 3 3.5.5-3.5.5zm-44 1 1.5 2.5-2-1zm107 11 1 2zm16 4 1 2zm-42 1 3.5.5-3.5.5zm-64 2 .5 3.5h-1zm4 2 1 2zm44 5 .5 2.5h-1zm-67 1 .5 3.5h-1zm80 0 .5 2.5h-1zm-88 1-1 2zm97 0 1 2zm-17 4 1 2zm-51 2 .5 4.5h-1zm15 1 7.5.5-7.5.5zm19 6 2.5.5-2.5.5zm15 2 3 4z"/></svg>