<svg xmlns="http://www.w3.org/2000/svg" width="200" height="200"><path stroke="#000" d="m114 29 5 3.5-3.5-2.5-1.5 1.5-1.5 5.5-.5-1.5zm5.5 5 2.5 2.5 2 6h-1zm-8 4-1 2zm-3.5 3 2 .5-3 4.5-13.5 8-20 7-6 4 2-3 28-11 10.5-8.5zm16.5 3 .5 2.5h-1zm1 4 .5 18q8.2-1.4 12 2.5l-1.5.5q-3.9-3.3-11.5-2zm-60 17-2 3L53 77.5 49.5 85l-.5-2.5L59.5 69zm74 4 8.5 6.5q-.7 2.3 1.5 1.5l6 6h2.5q-1.1 2.7 1.5 2l7.5 3.5-1.5.5-10-5-15-13zm-91 17 .5 2.5h-1zm120 3 2.5.5-2.5.5zm9 0 3.5.5-3.5.5zm5 0 .5 4.5-13.5 16.5h-2l-4 4-12 4v-1q14.9-3.6 23.5-13.5 5.6-5.4 7.5-14.5Zm-135 1 .5 5.5-5.5 10.5-.5-3.5 5-7zm-6 17 .5 6.5h-1zm107 11 1.5.5q-1 2.5-5.5 1.5v-1zm-10.5 2 5 .5-4 2 3 9.5 6 1.5-7 .5zm-96.5 3-.5 1.5-1.5 5.5-.5-3.5zm-7 11 4.5.5-8.5 2.5 1-2zm117 0h6l11.5 5 6 10.5-2-1q-1.1-7.9-7.5-10.5l-9-3h-5zm-124 3 1.5.5q-10 6-8 24 4.4 20.2 18.5 30.5l8.5 7.5-5.5-4.5-8.5-6-12-18.5v-2q-3.6-6.9-2-19 1.7-8.3 7.5-12.5Zm147 14 .5 5.5h-1zm-1 8 .5 4.5q-1.8 9.2-7 15l10 16-3-2-8-14q6-7.5 7.5-19.5Zm4 37 2.5 1 1 2.5z" opacity=".063"/><path stroke="#000" d="M0 0h200v200h-18.5l-1.5-1.5q.8-2.2-1.5-1.5L167 178.5l6-11 2-16-1-3-1-4-4-5.5-11.5-5q-10.2 1-15.5-2l-3-9.5 1.5-1.5 8-1 2-2 13-4 12.5-10.5 7-10V89l-11.5 1-13.5-5q1.3-3-2.5-2l-7.5-6-3.5-5-11-6H126q2.8-26.1-10.5-37-2.2-.7-1.5 1.5L110 41q-2.7-1.1-2 1.5L97.5 51l-28 11L54 74.5l-5 8-2 13-5 7-1 11 2 7q-5.6 3.7-4 13.5l-7.5 1-7.5 5.5q-6 7-4 22l3 7q-2.5 1.5 1 3l3 7 7 9.5 13 10.5-47 .5z" opacity="0"/><path fill="#020102" stroke="#020102" d="m115.5 30 3.5 3.5 5 10 1 4V67q8.3-1 13.5 2l17 15 7 4q6.5 3.5 18 2l1.5-.5q-1.9 11.1-9.5 16.5-12.6 12.2-34.5 14l3 14h9.5l13 3 8.5 7.5q3.3 4.7 2 14-2 12-8 20 5.2 12.3 14 21l-7.5.5-9.5-13.5-3-6v-4l7-14v-13l-3.5-5.5-7-3-12-1-14 3-10.5 7.5q-7.4 8.6-11 21-2.3 6.7-1 17l3 11.5h-5.5l-.5-1.5-3-11.5H84.5l-2.5-1-1-5h18.5l2.5-1 4-17.5 11-17.5-19.5 4-2 2H90l-1-5-2.5-1q-10.2 2.8-17 9h-3q-6.5-1.5-9-7l-6-2-3.5 2.5-2.5 3.5-2.5 1.5q.8 2.3-1.5 1.5-4.6 4.9-2.5 16.5 4.9 18.1 17.5 28.5l1.5.5-9.5.5L30 182.5l-8-17-1-16q2.1-8.4 8.5-12.5l9.5-2q-.1-10.3 5-16.5-3.8-3.2-2-12l6-11q-.3-11.8 5-18l9.5-9.5 11-7 20-7 13.5-8 5-7.5zm-.5 13-2 5-12 9-21 8-15 9-9 11q-3 4-2 13l-6 10q0 9 4 14l-2 1-3 3-2 6 2 8 5-2 6 1 2 4 7 5 17-8q8-1 11 4l20-6 20-3-1-7-6-15 7 1 12-1 19-9 6-7-1-2-9-1-8-4-19-16-19-2 3-7q2-13-1-20zm-79 98-4 2-5 7v12l6 14 2 1-2-7 1-14 3-7 6-3-1-3q1-3-6-2Z" opacity=".98"/><path fill="#020102" stroke="#020102" d="m73 137 2 .5-2 1zm-9 44 5 .5-3.5 2.5z" opacity=".98"/><path fill="#f8ebea" stroke="#f8ebea" d="m67.5 73-1 2zm27 0-1 2zm13.5 3 2 .5-2 1zm-19.5 1-1 2zm11 2 2.5.5-5.5 2.5v-1zm-39 1-1 2zm6 2q4-.5 4.5 2.5L68.5 83q-3 .5-2-1Zm18 0-2 3zm-20 1-.5 1.5-.5 1.5-.5-1.5zm26 4-.5 1.5-1.5 2.5.5-1.5zm-20 1 .5 4.5h-1zm8 4 .5 2.5h-1zm9 0 .5 1.5-2 1zm21 0-1.5 2.5q-.5 5 3.5 5.5l3.5 2.5-2 .5q1.1-2.7-1.5-2l-4.5-3.5q-1.9-5.4 1.5-4.5zm-44 5 2 3zm21 0 .5 1.5-3.5 2.5-3.5-1.5 2.5-.5h2q2.5.7 2-2Zm31 11 1.5 3.5h-1zm-61 6 3.5.5-3.5.5zm9 0 3.5.5-3.5.5zm13.5 2q3.3-1.3 2 3.5l-2-1zm24.5 0 5.5.5-5.5.5zm17 2 .5 4.5h-1zm-38 4 1 2zm-29 1 1.5.5-4 3-1.5 2.5-.5-1.5zm66 2 .5 3.5-2.5 4.5.5-1.5zm-35 3 .5 6q-2.7 1.1-2-1.5zm30.5 6 2 .5-6.5 4.5 1-2 3.5-1z"/><path fill="#f8ebea" stroke="#f8ebea" d="m81.5 135 .5 1.5-1 2 1.5-.5 2.5.5-3.5 1.5-2.5-.5zm10 4 3 4zm-50 5-1 2zm119 1 .5 2.5h-1zm-122 1-2 3zm122 5 .5 3.5h-1zm-40 1-1 2zm-92 6 4.5.5-1.5 2.5zm38 2 1 2-1.5-.5q1.3 3.8-2.5 2.5zm91 1 .5 1.5-2 1zm-87 3 1.5 2.5-7 6 3-4.5q2.7 1.1 2-1.5zm85 1-.5 1.5-5 7v6.5l-11-.5 10-.5-1-2.5q2.1-7.4 7.5-11.5ZM90 172h2q-1.1 2.7 1.5 2l4.5 5.5-13.5.5-1.5-1.5 3.5-3.5 3.5 1zm38 6 9 .5-8 1 8 7-1.5.5zm10.5 9 8 4 9.5 2.5-5.5.5-2-2-9-3zm19 10 1.5 2.5-2-1z"/><path fill="#fde699" stroke="#fde699" d="M115 45q3.7-1.4 2 4.5l1 1v14l-3 8.5h10.5l9 2 20 17 9 4h5l1.5 1.5q-11.1 13.9-34.5 15.5l-12-15-4.5-2.5 1.5-.5 3 2q3.3-1.7-.5-3.5-2-7.5-8-11l11-6-11.5-1.5-4 1 1.5-2.5q.5-4-2.5-4.5l-13 4 4-5 3.5-2.5-18-1q14.6-4.7 25-12.5-1.1-2.7 1.5-2zm-65.5 79 2 1 2-1-2.5 3.5-3.5 9.5-.5-4.5 1-2-1-2 3-1-.5-1.5-1.5.5z"/><path fill="#fdefee" stroke="#fdefee" d="m85.5 64 1 1 17.5.5-17 13-9 14v5l1 2.5 3.5 1 3.5-2.5v-3l5-9.5q2.7 1.1 2-1.5l2.5-2.5 6.5-2q-1.3-3.3 3.5-2l2-1q1.5 2.5 3-1l9-1 6.5 1.5-11 6 6 6 4 7q-1.3 2.8-2.5.5l-9-4h-5l-2.5 1q-1.2 4.6 1.5 6l4.5 2v2q2.7-1.1 2 1.5l5 11v9l-3 9.5h-2q1.1 2.7-1.5 2l-4 3-14 3q-2.8-5.2-12-4l-2.5 1.5 2-5.5q4 1.4 2-5.5l-1-5-3-3V116q-2.7-1.1-2 1.5l-2.5-1.5-8-2h-12l-3.5.5q-1-3.7 2-2.5v-3.5l7.5-6.5q3.3-3 9.5-2l1-5.5-1-3q1.7-7.7-2.5-9.5l-3 1 .5-1.5q-.7-2.2 1.5-1.5l11-10 5.5-2zm6.5 44 4 12-5 2v2q3-1 2 2l2-1 7 2 7 6h2l-3-7q-1-7 3-8l-3-2q-8 1-7-1-3-6-9-7Zm64 35 4 1 1 6.5-2 8-11 18 1 2.5-21-1 7.5 9 13 5 2 2h5.5l2 5.5-45 .5-4-14.5v-7l3-5.5q3.3 1.3 2-3.5l4.5-5.5q2.3.8 1.5-1.5l11.5-8.5-.5 1.5 1.5 4.5 17-14q5.3 1.3 6.5-1.5zm-126.5 5 .5 2 4 1-1 7q-7.5 2.8-5-5.5zm95 0-3 4zm-58 13 3.5 2 1 2.5-1 2.5h-2v2l-4 2-2-8q5.3 1.9 4.5-3Zm23 12 .5 3-3-.5z"/><path fill="#dabdab" stroke="#dabdab" d="m113.5 48-1 2zm-6 21 2.5.5-2.5.5zm4 2 .5 2.5h-1zm-16 2-1 2zm-31 2-4 5zm28 0-1 2-6 5 5-6zm3 6-6 7zm-30 2q4.8-.7 5.5 2.5l-.5 2.5-2-4-4 1zm19 0L83 85.5 81.5 88l.5-1.5zm66 5 1 2zm-70 1 .5 1.5-1.5 2.5-.5-1.5zm7 2-.5 1.5-.5 1.5-.5-1.5zm-24 1 .5 2.5h-1zm46 0 3.5.5-5 2-.5 2.5-.5-2.5zm9 3 1 2zm-9 3 1 2zm14 0 5 6zm46 0-2 3zm-116 1-2 3zm59 1 11.5 9.5 8 15 2 9.5-21.5 4v-1l3.5-2.5 3-6 1-10q-2.1-11.7-7.5-18.5Zm52 2-1 2zM92 108l2 .5-2 1zm3.5 1 4 5zm-45 5 2.5 1.5-1.5.5zm9 0 4.5.5-4.5.5zm42 2 3.5 1.5-2.5.5zm7 5-1 2zM54 122h13.5l4.5 2.5-1.5 2.5-7 1-11.5 4q1.1 2.7-1.5 2l-2.5 1.5q1.1-7.4 6-11zm50.5 7 1 2zm-58 2 .5 2.5h-1zm61 0 1 2zm-26 3-.5 1.5-2 4 .5 1.5-12 6-4-5q12.3 1.3 16.5-5.5zm4 4 2.5.5-2.5.5zm57 3 9.5.5-9.5.5zm17 2 5.5 4.5 2 6-1 1-1 11-7.5 13.5H151v3.5l4 10.5-17.5-6-8.5-7.5 9.5-.5 1 1H150v-6.5q7.7-7.3 11-19v-9zm-131 16 3 2 1-2 .5 1.5-1 1-.5 8.5zm43 5 1 2zm-9 5 1 2zm26 4-1 2zm6 1 4.5 5.5-2-1zm69 18q3.3-1.1 2.5 1.5l5 6-11.5.5-3.5-7 3.5 1z"/><path fill="#866585" stroke="#866585" d="m112.5 48-3 4zm6 2 .5 2.5h-1zm-59 30-1 2zm-5 12 .5 2.5h-1zm61 6q2.8 1.3.5 2.5l1 2-2-1 1-2zm4 6 5 6zm6 7 1 2zm-72 4 2.5.5-2.5.5zm13 0 3.5.5-3.5.5zm40 2 3.5.5-3.5.5zm-28 2 1 2zm-22 2 8.5.5-8.5.5zm17 3 2 3zm9 3 .5 2.5h-1zm-2 7-1 2zm11 6 2 3zm-54 1 3.5.5-3.5.5zm29 0 3.5.5-3.5.5zm86 0 2.5.5-2.5.5zm-91 1 1 2zm-19 2-1 2zm120 0 1 2zm-48 1 2.5.5q-13.1 11.3-15 32.5-2.7-1.1-2 1.5h-1l-6.5-7.5-4 1-9 8H71l1-3.5 8.5-9.5h5l6.5-3 3-4.5 2-10.5zm11 1-6 7zm-87 1-2 3zm-11 5 .5 2.5h-1zm0 4 .5 2.5h-1zm14 0q.4 6.6 4 10l7 3q1.8-2.8 3.5 1.5v2l5 7-4.5.5-14-4-1.5-1.5q-2.7-6.2-1-17zm125 2 .5 2.5h-1zm-100 1 3 4zm-2 2-2 3zm-32 1 .5 6.5h-1zm39 5-4 5zm-39 5 1.5 2.5h-1zm76 6 .5 7.5h-1zm46 1q5.4-1.9 4.5 1.5l8 12-2.5-1.5-1 1-7.5 1-5-13z"/><path fill="#866585" stroke="#866585" d="m82.5 180 14.5.5-14.5.5zm87 17 1 2z"/><path fill="#512939" stroke="#512939" d="m115.5 43 2.5 1.5-.5 1.5-.5-2zm-1 2-1 2zm-7 7-1 2zm-3 2-1 2-2 1 1-2zm14 8 .5 2.5h-1zm-47 7-1 2zm-3 2-1 2zm48 1 3.5.5-3.5.5zm5 0 2.5.5-2.5.5zm-57 2-5 6zm75 3 4 5zm6 6 1 2zm5 4 1 2zm17 8 3.5.5-3.5.5zm4 2-6 7zm-118 1-1 2zm66 0h2l8.5 8.5 4.5 6.5 8.5.5-8.5.5q-1.2-2.2-6-1l-1.5.5-7.5-9.5-3.5-2.5 1.5-2.5zm44 6-1 2zm-115 3 .5 4.5h-1zm1 7 .5 2 15.5-1q1.5 2.5 7 1l8.5 6.5 1 9-4.5 6.5-6 3h-5l-6 2-3-4-5.5-1.5 7.5-2.5h9l7.5-5.5q.8-5.7-3.5-6.5l-8-2h-8l-5 2 .5-1.5zM73 137v2l2-1zm27.5-19 9.5.5-4.5 5.5-6 2-7.5-3.5zm-51 5-2 3zm-4 8 .5 2.5h-1zm84 4 2.5.5-2.5.5zm-7 1 2.5.5-2.5.5zm-37 3 2.5.5-2.5.5zm59 1 4.5.5-4.5.5zm-113 3-2 3zm43 0-1 2-2 1 1-2zm-11 1 3 4zm100 0 2 3z"/><path fill="#512939" stroke="#512939" d="M51.5 145q8.5 1.5 12 8l6 1q6.8-6.2 17-9l2.5 1 1 5q6 1.2 8.5-2v1q-3-.9-1.5 3.5l-2 7-3 4.5-6.5 3h-5l-5.5 5.5-4 7.5 10.5-1-.5 1.5 1 4.5 2.5 1H102l3 13H58.5l-7.5-6.5q-7.8-8.2-11-21h1l1.5 3.5 9 3 9 1-.5-1.5-6.5-10.5-3 1-6.5-4.5-2.5-8.5-1.5.5 1.5-2.5q2.3.8 1.5-1.5l5-4 1.5-2.5zM67 159l-7 7 4 7q-1 2 2 1 6-3 7-10zm-3 22 2 3 3-2zm-23.5-35-2 3zm29 0-1 2zm47 0-4 5zm7 1-3 4zm-96 2 .5 2.5h-1zm9 1-1 2zm75 2-1 2zm7 1-1 2zm-79 5 .5 12.5h-1zm-12 1 .5 2.5h-1zm76 10 .5 2.5h-1zm-70 1 .5 2.5-2 1zm129 2-.5 1.5-1.5 2.5.5-1.5z"/><path fill="#512939" stroke="#512939" d="m102.5 173 .5 3.5h-1zm-69 2q2.3-.7 1.5 1.5zm75 0 .5 2.5h-1zm-8.5 3q3-1 2 2l-4.5 1v-1q3.8 1 2.5-2Zm59.5 0q2.1 8.4 7.5 13.5l-3-2-5-9zm-51 8 .5 2.5h-1zm61 10 1 2z"/><path fill="#fbfbfb" stroke="#fbfbfb" d="m83.5 65 .5 3-5.5 2L66 80l-3 4.5-1 7 4 8-12 9v3.5q-3-1.2-2 2.5l-2-1-1-6 2-5.5 3-1.5 2-4-1-5Q57.6 80.6 65.5 75l7-5 1.5.5q-.7-2.2 1.5-1.5zm-45 77q3.8-1.2 2.5 2.5l-5 4-1.5 2.5-4.5-1v-4h2q-1.1-2.7 1.5-2zm100 0h15l2.5 1-1.5 3h-5l-17 14-1.5-4.5.5-1.5-11.5 8.5q.8 2.3-1.5 1.5l-4.5 5.5v3.5q-2.7-1.1-2 1.5l-2 1q3.1-19.4 16.5-28.5z"/><path fill="#bb9670" stroke="#bb9670" d="m114.5 46-1 2zm-6 6-1 2zm10 1 .5 8.5h-1zm-14 17h6.5v5q-14.5 2.1-22 12.5L83.5 99q-3.7.8-4.5-1.5v-4l2-5L90.5 77zm34 7 5 6zm-73 7q3.8-.7 4.5 1.5l1 12q-.7 2.3-4.5 1.5-3.8-3.2-3.5-10.5zm82 1 2 3zm-38 8h4l7.5 4.5-6 3-.5 1.5-6.5-4q-1-3.8 1.5-5Zm57 8-1 2zm-40 1 4 5zm5 6 1 2zM93 109l8 6.5 1 2q-4.2-.2-5.5 2.5zm40.5 2 1 2zm-62 12q2.3-.7 1.5 1.5l3 3-1 1q.5 4-2.5 4.5-5.4 3.1-15 2l-10 4 .5-1.5 2.5-3.5q2.6.7 1.5-2h2.5l17.5-6.5zm35 0 3.5 9.5-2.5-1.5-6.5-4.5zm-44 19 4 5zm98 1 1 2zm6 11 .5 3.5h-1zm-134 15 .5 2.5-2-1zm34 3-1 2zm26 0 1 2zm-9 5-2 3zm68 2 2.5.5-2.5.5zm15 14 1 2z"/></svg>