<svg width="200" height="200" version="1.1" xmlns="http://www.w3.org/2000/svg" desc="Created with imagetracer.js version 1.2.6" ><path fill="rgb(0,0,0)" stroke="rgb(0,0,0)" stroke-width="1" opacity="0.06274509803921569" d="M 114 29 L 119 32.5 L 115.5 30 L 114 31.5 L 112.5 37 L 112 35.5 L 114 29 Z " /><path fill="rgb(0,0,0)" stroke="rgb(0,0,0)" stroke-width="1" opacity="0.06274509803921569" d="M 119.5 34 L 122 36.5 L 124 42.5 L 123 42.5 L 119.5 34 Z " /><path fill="rgb(0,0,0)" stroke="rgb(0,0,0)" stroke-width="1" opacity="0.06274509803921569" d="M 111.5 38 L 110.5 40 L 111.5 38 Z " /><path fill="rgb(0,0,0)" stroke="rgb(0,0,0)" stroke-width="1" opacity="0.06274509803921569" d="M 108 41 L 110 41.5 L 107 46 L 93.5 54 L 73.5 61 L 67.5 65 L 69.5 62 L 97.5 51 L 108 42.5 L 108 41 Z " /><path fill="rgb(0,0,0)" stroke="rgb(0,0,0)" stroke-width="1" opacity="0.06274509803921569" d="M 124.5 44 L 125 46.5 L 124 46.5 L 124.5 44 Z " /><path fill="rgb(0,0,0)" stroke="rgb(0,0,0)" stroke-width="1" opacity="0.06274509803921569" d="M 125.5 48 L 126 66 Q 134.2 64.6 138 68.5 L 136.5 69 Q 132.6 65.7 125 67 L 125.5 48 Z " /><path fill="rgb(0,0,0)" stroke="rgb(0,0,0)" stroke-width="1" opacity="0.06274509803921569" d="M 65.5 65 L 63.5 68 L 53 77.5 L 49.5 85 L 49 82.5 L 59.5 69 L 65.5 65 Z " /><path fill="rgb(0,0,0)" stroke="rgb(0,0,0)" stroke-width="1" opacity="0.06274509803921569" d="M 139.5 69 L 148 75.5 Q 147.3 77.8 149.5 77 L 155.5 83 L 158 83 Q 156.9 85.7 159.5 85 L 167 88.5 L 165.5 89 L 155.5 84 L 140.5 71 L 139.5 69 Z " /><path fill="rgb(0,0,0)" stroke="rgb(0,0,0)" stroke-width="1" opacity="0.06274509803921569" d="M 48.5 86 L 49 88.5 L 48 88.5 L 48.5 86 Z " /><path fill="rgb(0,0,0)" stroke="rgb(0,0,0)" stroke-width="1" opacity="0.06274509803921569" d="M 168.5 89 L 171 89.5 L 168.5 90 L 168.5 89 Z " /><path fill="rgb(0,0,0)" stroke="rgb(0,0,0)" stroke-width="1" opacity="0.06274509803921569" d="M 177.5 89 L 181 89.5 L 177.5 90 L 177.5 89 Z " /><path fill="rgb(0,0,0)" stroke="rgb(0,0,0)" stroke-width="1" opacity="0.06274509803921569" d="M 182.5 89 L 183 93.5 L 169.5 110 L 167.5 110 L 163.5 114 L 151.5 118 L 151.5 117 Q 166.4 113.4 175 103.5 Q 180.6 98.1 182.5 89 Z " /><path fill="rgb(0,0,0)" stroke="rgb(0,0,0)" stroke-width="1" opacity="0.06274509803921569" d="M 47.5 90 L 48 95.5 L 42.5 106 L 42 102.5 L 47 95.5 L 47.5 90 Z " /><path fill="rgb(0,0,0)" stroke="rgb(0,0,0)" stroke-width="1" opacity="0.06274509803921569" d="M 41.5 107 L 42 113.5 L 41 113.5 L 41.5 107 Z " /><path fill="rgb(0,0,0)" stroke="rgb(0,0,0)" stroke-width="1" opacity="0.06274509803921569" d="M 148.5 118 L 150 118.5 Q 149 121 144.5 120 L 144.5 119 L 148.5 118 Z " /><path fill="rgb(0,0,0)" stroke="rgb(0,0,0)" stroke-width="1" opacity="0.06274509803921569" d="M 138 120 L 143 120.5 L 139 122.5 L 142 132 L 148 133.5 L 141 134 L 138 120 Z " /><path fill="rgb(0,0,0)" stroke="rgb(0,0,0)" stroke-width="1" opacity="0.06274509803921569" d="M 41.5 123 L 41 124.5 L 39.5 130 L 39 126.5 L 41.5 123 Z " /><path fill="rgb(0,0,0)" stroke="rgb(0,0,0)" stroke-width="1" opacity="0.06274509803921569" d="M 34.5 134 L 39 134.5 L 30.5 137 L 31.5 135 L 34.5 134 Z " /><path fill="rgb(0,0,0)" stroke="rgb(0,0,0)" stroke-width="1" opacity="0.06274509803921569" d="M 151.5 134 L 157.5 134 L 169 139 L 175 149.5 L 173 148.5 Q 171.9 140.6 165.5 138 L 156.5 135 L 151.5 135 L 151.5 134 Z " /><path fill="rgb(0,0,0)" stroke="rgb(0,0,0)" stroke-width="1" opacity="0.06274509803921569" d="M 27.5 137 L 29 137.5 Q 19 143.5 21 161.5 Q 25.4 181.7 39.5 192 L 48 199.5 L 42.5 195 L 34 189 L 22 170.5 L 22 168.5 Q 18.4 161.6 20 149.5 Q 21.7 141.2 27.5 137 Z " /><path fill="rgb(0,0,0)" stroke="rgb(0,0,0)" stroke-width="1" opacity="0.06274509803921569" d="M 174.5 151 L 175 156.5 L 174 156.5 L 174.5 151 Z " /><path fill="rgb(0,0,0)" stroke="rgb(0,0,0)" stroke-width="1" opacity="0.06274509803921569" d="M 173.5 159 L 174 163.5 Q 172.2 172.7 167 178.5 L 177 194.5 L 174 192.5 L 166 178.5 Q 172 171 173.5 159 Z " /><path fill="rgb(0,0,0)" stroke="rgb(0,0,0)" stroke-width="1" opacity="0.06274509803921569" d="M 177.5 196 L 180 197 L 181 199.5 L 177.5 196 Z " /><path fill="rgb(0,0,0)" stroke="rgb(0,0,0)" stroke-width="1" opacity="0" d="M 0 0 L 200 0 L 200 200 L 181.5 200 L 180 198.5 Q 180.8 196.3 178.5 197 L 167 178.5 L 173 167.5 L 175 151.5 L 174 148.5 L 173 144.5 L 169 139 L 157.5 134 Q 147.3 135 142 132 L 139 122.5 L 140.5 121 L 148.5 120 L 150.5 118 L 163.5 114 L 176 103.5 L 183 93.5 L 183 89 L 171.5 90 L 158 85 Q 159.3 82 155.5 83 L 148 77 L 144.5 72 L 133.5 66 L 126 66 Q 128.8 39.9 115.5 29 Q 113.3 28.3 114 30.5 L 110 41 Q 107.3 39.9 108 42.5 L 97.5 51 L 69.5 62 L 54 74.5 L 49 82.5 L 47 95.5 L 42 102.5 L 41 113.5 L 43 120.5 Q 37.4 124.2 39 134 L 31.5 135 L 24 140.5 Q 18 147.5 20 162.5 L 23 169.5 Q 20.5 171 24 172.5 L 27 179.5 L 34 189 L 47 199.5 L 0 200 L 0 0 Z " /><path fill="rgb(2,1,2)" stroke="rgb(2,1,2)" stroke-width="1" opacity="0.9803921568627451" d="M 115.5 30 L 119 33.5 L 124 43.5 L 125 47.5 L 125 67 Q 133.3 66 138.5 69 L 155.5 84 L 162.5 88 Q 169 91.5 180.5 90 L 182 89.5 Q 180.1 100.6 172.5 106 Q 159.9 118.2 138 120 L 141 134 L 150.5 134 L 163.5 137 L 172 144.5 Q 175.3 149.2 174 158.5 Q 172 170.5 166 178.5 Q 171.2 190.8 180 199.5 L 172.5 200 L 163 186.5 L 160 180.5 L 160 176.5 L 167 162.5 L 167 149.5 L 163.5 144 L 156.5 141 L 144.5 140 L 130.5 143 L 120 150.5 Q 112.6 159.1 109 171.5 Q 106.7 178.2 108 188.5 L 111 200 L 105.5 200 L 105 198.5 L 102 187 L 84.5 187 L 82 186 L 81 181 L 99.5 181 L 102 180 L 106 162.5 L 117 145 L 97.5 149 L 95.5 151 L 90 151 L 89 146 L 86.5 145 Q 76.3 147.8 69.5 154 L 66.5 154 Q 60 152.5 57.5 147 L 51.5 145 L 48 147.5 L 45.5 151 L 43 152.5 Q 43.8 154.8 41.5 154 Q 36.9 158.9 39 170.5 Q 43.9 188.6 56.5 199 L 58 199.5 L 48.5 200 L 30 182.5 L 22 165.5 L 21 149.5 Q 23.1 141.1 29.5 137 L 39 135 Q 38.9 124.7 44 118.5 Q 40.2 115.3 42 106.5 L 48 95.5 Q 47.7 83.7 53 77.5 L 62.5 68 L 73.5 61 L 93.5 54 L 107 46 L 112 38.5 L 115.5 30 Z M 115 43 L 113 48 L 101 57 L 80 65 L 65 74 L 56 85 Q 53 89 54 98 L 48 108 Q 48 117 52 122 L 50 123 L 47 126 L 45 132 L 47 140 L 52 138 L 58 139 L 60 143 L 67 148 L 84 140 Q 92 139 95 144 L 115 138 L 135 135 L 134 128 L 128 113 L 135 114 L 147 113 L 166 104 L 172 97 L 171 95 L 162 94 L 154 90 L 135 74 L 116 72 L 119 65 Q 121 52 118 45 L 115 43 Z M 36 141 L 32 143 L 27 150 L 27 162 L 33 176 L 35 177 L 33 170 L 34 156 L 37 149 L 43 146 L 42 143 Q 43 140 36 141 Z " /><path fill="rgb(2,1,2)" stroke="rgb(2,1,2)" stroke-width="1" opacity="0.9803921568627451" d="M 73 137 L 75 137.5 L 73 138.5 L 73 137 Z " /><path fill="rgb(2,1,2)" stroke="rgb(2,1,2)" stroke-width="1" opacity="0.9803921568627451" d="M 64 181 L 69 181.5 L 65.5 184 L 64 181 Z " /><path fill="rgb(248,235,234)" stroke="rgb(248,235,234)" stroke-width="1" opacity="1" d="M 67.5 73 L 66.5 75 L 67.5 73 Z " /><path fill="rgb(248,235,234)" stroke="rgb(248,235,234)" stroke-width="1" opacity="1" d="M 94.5 73 L 93.5 75 L 94.5 73 Z " /><path fill="rgb(248,235,234)" stroke="rgb(248,235,234)" stroke-width="1" opacity="1" d="M 108 76 L 110 76.5 L 108 77.5 L 108 76 Z " /><path fill="rgb(248,235,234)" stroke="rgb(248,235,234)" stroke-width="1" opacity="1" d="M 88.5 77 L 87.5 79 L 88.5 77 Z " /><path fill="rgb(248,235,234)" stroke="rgb(248,235,234)" stroke-width="1" opacity="1" d="M 99.5 79 L 102 79.5 L 96.5 82 L 96.5 81 L 99.5 79 Z " /><path fill="rgb(248,235,234)" stroke="rgb(248,235,234)" stroke-width="1" opacity="1" d="M 60.5 80 L 59.5 82 L 60.5 80 Z " /><path fill="rgb(248,235,234)" stroke="rgb(248,235,234)" stroke-width="1" opacity="1" d="M 66.5 82 Q 70.5 81.5 71 84.5 L 68.5 83 Q 65.5 83.5 66.5 82 Z " /><path fill="rgb(248,235,234)" stroke="rgb(248,235,234)" stroke-width="1" opacity="1" d="M 84.5 82 L 82.5 85 L 84.5 82 Z " /><path fill="rgb(248,235,234)" stroke="rgb(248,235,234)" stroke-width="1" opacity="1" d="M 64.5 83 L 64 84.5 L 63.5 86 L 63 84.5 L 64.5 83 Z " /><path fill="rgb(248,235,234)" stroke="rgb(248,235,234)" stroke-width="1" opacity="1" d="M 90.5 87 L 90 88.5 L 88.5 91 L 89 89.5 L 90.5 87 Z " /><path fill="rgb(248,235,234)" stroke="rgb(248,235,234)" stroke-width="1" opacity="1" d="M 70.5 88 L 71 92.5 L 70 92.5 L 70.5 88 Z " /><path fill="rgb(248,235,234)" stroke="rgb(248,235,234)" stroke-width="1" opacity="1" d="M 78.5 92 L 79 94.5 L 78 94.5 L 78.5 92 Z " /><path fill="rgb(248,235,234)" stroke="rgb(248,235,234)" stroke-width="1" opacity="1" d="M 87.5 92 L 88 93.5 L 86 94.5 L 87.5 92 Z " /><path fill="rgb(248,235,234)" stroke="rgb(248,235,234)" stroke-width="1" opacity="1" d="M 108.5 92 L 107 94.5 Q 106.5 99.5 110.5 100 L 114 102.5 L 112 103 Q 113.1 100.3 110.5 101 L 106 97.5 Q 104.1 92.1 107.5 93 L 108.5 92 Z " /><path fill="rgb(248,235,234)" stroke="rgb(248,235,234)" stroke-width="1" opacity="1" d="M 64.5 97 L 66.5 100 L 64.5 97 Z " /><path fill="rgb(248,235,234)" stroke="rgb(248,235,234)" stroke-width="1" opacity="1" d="M 85.5 97 L 86 98.5 L 82.5 101 L 79 99.5 L 81.5 99 L 83.5 99 Q 86 99.7 85.5 97 Z " /><path fill="rgb(248,235,234)" stroke="rgb(248,235,234)" stroke-width="1" opacity="1" d="M 116.5 108 L 118 111.5 L 117 111.5 L 116.5 108 Z " /><path fill="rgb(248,235,234)" stroke="rgb(248,235,234)" stroke-width="1" opacity="1" d="M 55.5 114 L 59 114.5 L 55.5 115 L 55.5 114 Z " /><path fill="rgb(248,235,234)" stroke="rgb(248,235,234)" stroke-width="1" opacity="1" d="M 64.5 114 L 68 114.5 L 64.5 115 L 64.5 114 Z " /><path fill="rgb(248,235,234)" stroke="rgb(248,235,234)" stroke-width="1" opacity="1" d="M 78 116 Q 81.3 114.7 80 119.5 L 78 118.5 L 78 116 Z " /><path fill="rgb(248,235,234)" stroke="rgb(248,235,234)" stroke-width="1" opacity="1" d="M 102.5 116 L 108 116.5 L 102.5 117 L 102.5 116 Z " /><path fill="rgb(248,235,234)" stroke="rgb(248,235,234)" stroke-width="1" opacity="1" d="M 119.5 118 L 120 122.5 L 119 122.5 L 119.5 118 Z " /><path fill="rgb(248,235,234)" stroke="rgb(248,235,234)" stroke-width="1" opacity="1" d="M 81.5 122 L 82.5 124 L 81.5 122 Z " /><path fill="rgb(248,235,234)" stroke="rgb(248,235,234)" stroke-width="1" opacity="1" d="M 52.5 123 L 54 123.5 L 50 126.5 L 48.5 129 L 48 127.5 L 52.5 123 Z " /><path fill="rgb(248,235,234)" stroke="rgb(248,235,234)" stroke-width="1" opacity="1" d="M 118.5 125 L 119 128.5 L 116.5 133 L 117 131.5 L 118.5 125 Z " /><path fill="rgb(248,235,234)" stroke="rgb(248,235,234)" stroke-width="1" opacity="1" d="M 83.5 128 L 84 134 Q 81.3 135.1 82 132.5 L 83.5 128 Z " /><path fill="rgb(248,235,234)" stroke="rgb(248,235,234)" stroke-width="1" opacity="1" d="M 114 134 L 116 134.5 L 109.5 139 L 110.5 137 L 114 136 L 114 134 Z " /><path fill="rgb(248,235,234)" stroke="rgb(248,235,234)" stroke-width="1" opacity="1" d="M 81.5 135 L 82 136.5 L 81 138.5 L 82.5 138 L 85 138.5 L 81.5 140 L 79 139.5 L 81.5 135 Z " /><path fill="rgb(248,235,234)" stroke="rgb(248,235,234)" stroke-width="1" opacity="1" d="M 91.5 139 L 94.5 143 L 91.5 139 Z " /><path fill="rgb(248,235,234)" stroke="rgb(248,235,234)" stroke-width="1" opacity="1" d="M 41.5 144 L 40.5 146 L 41.5 144 Z " /><path fill="rgb(248,235,234)" stroke="rgb(248,235,234)" stroke-width="1" opacity="1" d="M 160.5 145 L 161 147.5 L 160 147.5 L 160.5 145 Z " /><path fill="rgb(248,235,234)" stroke="rgb(248,235,234)" stroke-width="1" opacity="1" d="M 38.5 146 L 36.5 149 L 38.5 146 Z " /><path fill="rgb(248,235,234)" stroke="rgb(248,235,234)" stroke-width="1" opacity="1" d="M 160.5 151 L 161 154.5 L 160 154.5 L 160.5 151 Z " /><path fill="rgb(248,235,234)" stroke="rgb(248,235,234)" stroke-width="1" opacity="1" d="M 120.5 152 L 119.5 154 L 120.5 152 Z " /><path fill="rgb(248,235,234)" stroke="rgb(248,235,234)" stroke-width="1" opacity="1" d="M 28.5 158 L 33 158.5 L 31.5 161 L 28.5 158 Z " /><path fill="rgb(248,235,234)" stroke="rgb(248,235,234)" stroke-width="1" opacity="1" d="M 66.5 160 L 67.5 162 L 66 161.5 Q 67.3 165.3 63.5 164 L 66.5 160 Z " /><path fill="rgb(248,235,234)" stroke="rgb(248,235,234)" stroke-width="1" opacity="1" d="M 157.5 161 L 158 162.5 L 156 163.5 L 157.5 161 Z " /><path fill="rgb(248,235,234)" stroke="rgb(248,235,234)" stroke-width="1" opacity="1" d="M 70.5 164 L 72 166.5 L 65 172.5 L 68 168 Q 70.7 169.1 70 166.5 L 70.5 164 Z " /><path fill="rgb(248,235,234)" stroke="rgb(248,235,234)" stroke-width="1" opacity="1" d="M 155.5 165 L 155 166.5 L 150 173.5 L 150 180 L 139 179.5 L 149 179 L 148 176.5 Q 150.1 169.1 155.5 165 Z " /><path fill="rgb(248,235,234)" stroke="rgb(248,235,234)" stroke-width="1" opacity="1" d="M 90 172 L 92 172 Q 90.9 174.7 93.5 174 L 98 179.5 L 84.5 180 L 83 178.5 L 86.5 175 L 90 176 L 90 172 Z " /><path fill="rgb(248,235,234)" stroke="rgb(248,235,234)" stroke-width="1" opacity="1" d="M 128 178 L 137 178.5 L 129 179.5 L 137 186.5 L 135.5 187 L 128 178 Z " /><path fill="rgb(248,235,234)" stroke="rgb(248,235,234)" stroke-width="1" opacity="1" d="M 138.5 187 L 146.5 191 L 156 193.5 L 150.5 194 L 148.5 192 L 139.5 189 L 138.5 187 Z " /><path fill="rgb(248,235,234)" stroke="rgb(248,235,234)" stroke-width="1" opacity="1" d="M 157.5 197 L 159 199.5 L 157 198.5 L 157.5 197 Z " /><path fill="rgb(253,230,153)" stroke="rgb(253,230,153)" stroke-width="1" opacity="1" d="M 115 45 Q 118.7 43.6 117 49.5 L 118 50.5 L 118 64.5 L 115 73 L 125.5 73 L 134.5 75 L 154.5 92 L 163.5 96 L 168.5 96 L 170 97.5 Q 158.9 111.4 135.5 113 L 123.5 98 L 119 95.5 L 120.5 95 L 123.5 97 Q 126.8 95.3 123 93.5 Q 121 86 115 82.5 L 126 76.5 L 114.5 75 L 110.5 76 L 112 73.5 Q 112.5 69.5 109.5 69 L 96.5 73 L 100.5 68 L 104 65.5 L 86 64.5 Q 100.6 59.8 111 52 Q 109.9 49.3 112.5 50 L 115 45 Z " /><path fill="rgb(253,230,153)" stroke="rgb(253,230,153)" stroke-width="1" opacity="1" d="M 49.5 124 L 51.5 125 L 53.5 124 L 51 127.5 L 47.5 137 L 47 132.5 L 48 130.5 L 47 128.5 L 50 127.5 L 49.5 126 L 48 126.5 L 49.5 124 Z " /><path fill="rgb(253,239,238)" stroke="rgb(253,239,238)" stroke-width="1" opacity="1" d="M 85.5 64 L 86.5 65 L 104 65.5 L 87 78.5 L 78 92.5 L 78 97.5 L 79 100 L 82.5 101 L 86 98.5 L 86 95.5 L 91 86 Q 93.7 87.1 93 84.5 L 95.5 82 L 102 80 Q 100.7 76.7 105.5 78 L 107.5 77 Q 109 79.5 110.5 76 L 119.5 75 L 126 76.5 L 115 82.5 L 121 88.5 L 125 95.5 Q 123.7 98.3 122.5 96 L 113.5 92 L 108.5 92 L 106 93 Q 104.8 97.6 107.5 99 L 112 101 L 112 103 Q 114.7 101.9 114 104.5 L 119 115.5 L 119 124.5 L 116 134 L 114 134 Q 115.1 136.7 112.5 136 L 108.5 139 L 94.5 142 Q 91.7 136.8 82.5 138 L 80 139.5 L 82 134 Q 86 135.4 84 128.5 L 83 123.5 L 80 120.5 L 80 116 Q 77.3 114.9 78 117.5 L 75.5 116 L 67.5 114 L 55.5 114 L 52 114.5 Q 51 110.8 54 112 L 54 108.5 L 61.5 102 Q 64.8 99 71 100 L 72 94.5 L 71 91.5 Q 72.7 83.8 68.5 82 L 65.5 83 L 66 81.5 Q 65.3 79.3 67.5 80 L 78.5 70 L 84 68 L 85.5 64 Z M 92 108 L 96 120 L 91 122 L 91 124 Q 94 123 93 126 L 95 125 L 102 127 L 109 133 L 111 133 L 108 126 Q 107 119 111 118 L 108 116 Q 100 117 101 115 Q 98 109 92 108 Z " /><path fill="rgb(253,239,238)" stroke="rgb(253,239,238)" stroke-width="1" opacity="1" d="M 156 143 L 160 144 L 161 150.5 L 159 158.5 L 148 176.5 L 149 179 L 128 178 L 135.5 187 L 148.5 192 L 150.5 194 L 156 194 L 158 199.5 L 113 200 L 109 185.5 L 109 178.5 L 112 173 Q 115.3 174.3 114 169.5 L 118.5 164 Q 120.8 164.8 120 162.5 L 131.5 154 L 131 155.5 L 132.5 160 L 149.5 146 Q 154.8 147.3 156 144.5 L 156 143 Z " /><path fill="rgb(253,239,238)" stroke="rgb(253,239,238)" stroke-width="1" opacity="1" d="M 29.5 148 L 30 150 L 34 151 L 33 158 Q 25.5 160.8 28 152.5 L 29.5 148 Z " /><path fill="rgb(253,239,238)" stroke="rgb(253,239,238)" stroke-width="1" opacity="1" d="M 124.5 148 L 121.5 152 L 124.5 148 Z " /><path fill="rgb(253,239,238)" stroke="rgb(253,239,238)" stroke-width="1" opacity="1" d="M 66.5 161 L 70 163 L 71 165.5 L 70 168 L 68 168 L 68 170 L 64 172 L 62 164 Q 67.3 165.9 66.5 161 Z " /><path fill="rgb(253,239,238)" stroke="rgb(253,239,238)" stroke-width="1" opacity="1" d="M 89.5 173 L 90 176 L 87 175.5 L 89.5 173 Z " /><path fill="rgb(218,189,171)" stroke="rgb(218,189,171)" stroke-width="1" opacity="1" d="M 113.5 48 L 112.5 50 L 113.5 48 Z " /><path fill="rgb(218,189,171)" stroke="rgb(218,189,171)" stroke-width="1" opacity="1" d="M 107.5 69 L 110 69.5 L 107.5 70 L 107.5 69 Z " /><path fill="rgb(218,189,171)" stroke="rgb(218,189,171)" stroke-width="1" opacity="1" d="M 111.5 71 L 112 73.5 L 111 73.5 L 111.5 71 Z " /><path fill="rgb(218,189,171)" stroke="rgb(218,189,171)" stroke-width="1" opacity="1" d="M 95.5 73 L 94.5 75 L 95.5 73 Z " /><path fill="rgb(218,189,171)" stroke="rgb(218,189,171)" stroke-width="1" opacity="1" d="M 64.5 75 L 60.5 80 L 64.5 75 Z " /><path fill="rgb(218,189,171)" stroke="rgb(218,189,171)" stroke-width="1" opacity="1" d="M 92.5 75 L 91.5 77 L 85.5 82 L 90.5 76 L 92.5 75 Z " /><path fill="rgb(218,189,171)" stroke="rgb(218,189,171)" stroke-width="1" opacity="1" d="M 95.5 81 L 89.5 88 L 95.5 81 Z " /><path fill="rgb(218,189,171)" stroke="rgb(218,189,171)" stroke-width="1" opacity="1" d="M 65.5 83 Q 70.3 82.3 71 85.5 L 70.5 88 L 68.5 84 L 64.5 85 L 65.5 83 Z " /><path fill="rgb(218,189,171)" stroke="rgb(218,189,171)" stroke-width="1" opacity="1" d="M 84.5 83 L 83 85.5 L 81.5 88 L 82 86.5 L 84.5 83 Z " /><path fill="rgb(218,189,171)" stroke="rgb(218,189,171)" stroke-width="1" opacity="1" d="M 150.5 88 L 151.5 90 L 150.5 88 Z " /><path fill="rgb(218,189,171)" stroke="rgb(218,189,171)" stroke-width="1" opacity="1" d="M 80.5 89 L 81 90.5 L 79.5 93 L 79 91.5 L 80.5 89 Z " /><path fill="rgb(218,189,171)" stroke="rgb(218,189,171)" stroke-width="1" opacity="1" d="M 87.5 91 L 87 92.5 L 86.5 94 L 86 92.5 L 87.5 91 Z " /><path fill="rgb(218,189,171)" stroke="rgb(218,189,171)" stroke-width="1" opacity="1" d="M 63.5 92 L 64 94.5 L 63 94.5 L 63.5 92 Z " /><path fill="rgb(218,189,171)" stroke="rgb(218,189,171)" stroke-width="1" opacity="1" d="M 109.5 92 L 113 92.5 L 108 94.5 L 107.5 97 L 107 94.5 L 109.5 92 Z " /><path fill="rgb(218,189,171)" stroke="rgb(218,189,171)" stroke-width="1" opacity="1" d="M 118.5 95 L 119.5 97 L 118.5 95 Z " /><path fill="rgb(218,189,171)" stroke="rgb(218,189,171)" stroke-width="1" opacity="1" d="M 109.5 98 L 110.5 100 L 109.5 98 Z " /><path fill="rgb(218,189,171)" stroke="rgb(218,189,171)" stroke-width="1" opacity="1" d="M 123.5 98 L 128.5 104 L 123.5 98 Z " /><path fill="rgb(218,189,171)" stroke="rgb(218,189,171)" stroke-width="1" opacity="1" d="M 169.5 98 L 167.5 101 L 169.5 98 Z " /><path fill="rgb(218,189,171)" stroke="rgb(218,189,171)" stroke-width="1" opacity="1" d="M 53.5 99 L 51.5 102 L 53.5 99 Z " /><path fill="rgb(218,189,171)" stroke="rgb(218,189,171)" stroke-width="1" opacity="1" d="M 112.5 100 L 124 109.5 L 132 124.5 L 134 134 L 112.5 138 L 112.5 137 L 116 134.5 L 119 128.5 L 120 118.5 Q 117.9 106.8 112.5 100 Z " /><path fill="rgb(218,189,171)" stroke="rgb(218,189,171)" stroke-width="1" opacity="1" d="M 164.5 102 L 163.5 104 L 164.5 102 Z " /><path fill="rgb(218,189,171)" stroke="rgb(218,189,171)" stroke-width="1" opacity="1" d="M 92 108 L 94 108.5 L 92 109.5 L 92 108 Z " /><path fill="rgb(218,189,171)" stroke="rgb(218,189,171)" stroke-width="1" opacity="1" d="M 95.5 109 L 99.5 114 L 95.5 109 Z " /><path fill="rgb(218,189,171)" stroke="rgb(218,189,171)" stroke-width="1" opacity="1" d="M 50.5 114 L 53 115.5 L 51.5 116 L 50.5 114 Z " /><path fill="rgb(218,189,171)" stroke="rgb(218,189,171)" stroke-width="1" opacity="1" d="M 59.5 114 L 64 114.5 L 59.5 115 L 59.5 114 Z " /><path fill="rgb(218,189,171)" stroke="rgb(218,189,171)" stroke-width="1" opacity="1" d="M 101.5 116 L 105 117.5 L 102.5 118 L 101.5 116 Z " /><path fill="rgb(218,189,171)" stroke="rgb(218,189,171)" stroke-width="1" opacity="1" d="M 108.5 121 L 107.5 123 L 108.5 121 Z " /><path fill="rgb(218,189,171)" stroke="rgb(218,189,171)" stroke-width="1" opacity="1" d="M 54 122 L 67.5 122 L 72 124.5 L 70.5 127 L 63.5 128 L 52 132 Q 53.1 134.7 50.5 134 L 48 135.5 Q 49.1 128.1 54 124.5 L 54 122 Z " /><path fill="rgb(218,189,171)" stroke="rgb(218,189,171)" stroke-width="1" opacity="1" d="M 104.5 129 L 105.5 131 L 104.5 129 Z " /><path fill="rgb(218,189,171)" stroke="rgb(218,189,171)" stroke-width="1" opacity="1" d="M 46.5 131 L 47 133.5 L 46 133.5 L 46.5 131 Z " /><path fill="rgb(218,189,171)" stroke="rgb(218,189,171)" stroke-width="1" opacity="1" d="M 107.5 131 L 108.5 133 L 107.5 131 Z " /><path fill="rgb(218,189,171)" stroke="rgb(218,189,171)" stroke-width="1" opacity="1" d="M 81.5 134 L 81 135.5 L 79 139.5 L 79.5 141 L 67.5 147 L 63.5 142 Q 75.8 143.3 80 136.5 L 81.5 134 Z " /><path fill="rgb(218,189,171)" stroke="rgb(218,189,171)" stroke-width="1" opacity="1" d="M 85.5 138 L 88 138.5 L 85.5 139 L 85.5 138 Z " /><path fill="rgb(218,189,171)" stroke="rgb(218,189,171)" stroke-width="1" opacity="1" d="M 142.5 141 L 152 141.5 L 142.5 142 L 142.5 141 Z " /><path fill="rgb(218,189,171)" stroke="rgb(218,189,171)" stroke-width="1" opacity="1" d="M 159.5 143 L 165 147.5 L 167 153.5 L 166 154.5 L 165 165.5 L 157.5 179 L 151 179 L 151 182.5 L 155 193 L 137.5 187 L 129 179.5 L 138.5 179 L 139.5 180 L 150 180 L 150 173.5 Q 157.7 166.2 161 154.5 L 161 145.5 L 159.5 143 Z " /><path fill="rgb(218,189,171)" stroke="rgb(218,189,171)" stroke-width="1" opacity="1" d="M 28.5 159 L 31.5 161 L 32.5 159 L 33 160.5 L 32 161.5 L 31.5 170 L 28.5 159 Z " /><path fill="rgb(218,189,171)" stroke="rgb(218,189,171)" stroke-width="1" opacity="1" d="M 71.5 164 L 72.5 166 L 71.5 164 Z " /><path fill="rgb(218,189,171)" stroke="rgb(218,189,171)" stroke-width="1" opacity="1" d="M 62.5 169 L 63.5 171 L 62.5 169 Z " /><path fill="rgb(218,189,171)" stroke="rgb(218,189,171)" stroke-width="1" opacity="1" d="M 88.5 173 L 87.5 175 L 88.5 173 Z " /><path fill="rgb(218,189,171)" stroke="rgb(218,189,171)" stroke-width="1" opacity="1" d="M 94.5 174 L 99 179.5 L 97 178.5 L 94.5 174 Z " /><path fill="rgb(218,189,171)" stroke="rgb(218,189,171)" stroke-width="1" opacity="1" d="M 163.5 192 Q 166.8 190.9 166 193.5 L 171 199.5 L 159.5 200 L 156 193 L 159.5 194 L 163.5 192 Z " /><path fill="rgb(134,101,133)" stroke="rgb(134,101,133)" stroke-width="1" opacity="1" d="M 112.5 48 L 109.5 52 L 112.5 48 Z " /><path fill="rgb(134,101,133)" stroke="rgb(134,101,133)" stroke-width="1" opacity="1" d="M 118.5 50 L 119 52.5 L 118 52.5 L 118.5 50 Z " /><path fill="rgb(134,101,133)" stroke="rgb(134,101,133)" stroke-width="1" opacity="1" d="M 59.5 80 L 58.5 82 L 59.5 80 Z " /><path fill="rgb(134,101,133)" stroke="rgb(134,101,133)" stroke-width="1" opacity="1" d="M 54.5 92 L 55 94.5 L 54 94.5 L 54.5 92 Z " /><path fill="rgb(134,101,133)" stroke="rgb(134,101,133)" stroke-width="1" opacity="1" d="M 115.5 98 Q 118.3 99.3 116 100.5 L 117 102.5 L 115 101.5 L 116 99.5 L 115.5 98 Z " /><path fill="rgb(134,101,133)" stroke="rgb(134,101,133)" stroke-width="1" opacity="1" d="M 119.5 104 L 124.5 110 L 119.5 104 Z " /><path fill="rgb(134,101,133)" stroke="rgb(134,101,133)" stroke-width="1" opacity="1" d="M 125.5 111 L 126.5 113 L 125.5 111 Z " /><path fill="rgb(134,101,133)" stroke="rgb(134,101,133)" stroke-width="1" opacity="1" d="M 53.5 115 L 56 115.5 L 53.5 116 L 53.5 115 Z " /><path fill="rgb(134,101,133)" stroke="rgb(134,101,133)" stroke-width="1" opacity="1" d="M 66.5 115 L 70 115.5 L 66.5 116 L 66.5 115 Z " /><path fill="rgb(134,101,133)" stroke="rgb(134,101,133)" stroke-width="1" opacity="1" d="M 106.5 117 L 110 117.5 L 106.5 118 L 106.5 117 Z " /><path fill="rgb(134,101,133)" stroke="rgb(134,101,133)" stroke-width="1" opacity="1" d="M 78.5 119 L 79.5 121 L 78.5 119 Z " /><path fill="rgb(134,101,133)" stroke="rgb(134,101,133)" stroke-width="1" opacity="1" d="M 56.5 121 L 65 121.5 L 56.5 122 L 56.5 121 Z " /><path fill="rgb(134,101,133)" stroke="rgb(134,101,133)" stroke-width="1" opacity="1" d="M 73.5 124 L 75.5 127 L 73.5 124 Z " /><path fill="rgb(134,101,133)" stroke="rgb(134,101,133)" stroke-width="1" opacity="1" d="M 82.5 127 L 83 129.5 L 82 129.5 L 82.5 127 Z " /><path fill="rgb(134,101,133)" stroke="rgb(134,101,133)" stroke-width="1" opacity="1" d="M 80.5 134 L 79.5 136 L 80.5 134 Z " /><path fill="rgb(134,101,133)" stroke="rgb(134,101,133)" stroke-width="1" opacity="1" d="M 91.5 140 L 93.5 143 L 91.5 140 Z " /><path fill="rgb(134,101,133)" stroke="rgb(134,101,133)" stroke-width="1" opacity="1" d="M 37.5 141 L 41 141.5 L 37.5 142 L 37.5 141 Z " /><path fill="rgb(134,101,133)" stroke="rgb(134,101,133)" stroke-width="1" opacity="1" d="M 66.5 141 L 70 141.5 L 66.5 142 L 66.5 141 Z " /><path fill="rgb(134,101,133)" stroke="rgb(134,101,133)" stroke-width="1" opacity="1" d="M 152.5 141 L 155 141.5 L 152.5 142 L 152.5 141 Z " /><path fill="rgb(134,101,133)" stroke="rgb(134,101,133)" stroke-width="1" opacity="1" d="M 61.5 142 L 62.5 144 L 61.5 142 Z " /><path fill="rgb(134,101,133)" stroke="rgb(134,101,133)" stroke-width="1" opacity="1" d="M 42.5 144 L 41.5 146 L 42.5 144 Z " /><path fill="rgb(134,101,133)" stroke="rgb(134,101,133)" stroke-width="1" opacity="1" d="M 162.5 144 L 163.5 146 L 162.5 144 Z " /><path fill="rgb(134,101,133)" stroke="rgb(134,101,133)" stroke-width="1" opacity="1" d="M 114.5 145 L 117 145.5 Q 103.9 156.8 102 178 Q 99.3 176.9 100 179.5 L 99 179.5 L 92.5 172 L 88.5 173 L 79.5 181 L 71 181 L 72 177.5 L 80.5 168 L 85.5 168 L 92 165 L 95 160.5 L 97 150 L 114.5 145 Z " /><path fill="rgb(134,101,133)" stroke="rgb(134,101,133)" stroke-width="1" opacity="1" d="M 125.5 146 L 119.5 153 L 125.5 146 Z " /><path fill="rgb(134,101,133)" stroke="rgb(134,101,133)" stroke-width="1" opacity="1" d="M 38.5 147 L 36.5 150 L 38.5 147 Z " /><path fill="rgb(134,101,133)" stroke="rgb(134,101,133)" stroke-width="1" opacity="1" d="M 27.5 152 L 28 154.5 L 27 154.5 L 27.5 152 Z " /><path fill="rgb(134,101,133)" stroke="rgb(134,101,133)" stroke-width="1" opacity="1" d="M 27.5 156 L 28 158.5 L 27 158.5 L 27.5 156 Z " /><path fill="rgb(134,101,133)" stroke="rgb(134,101,133)" stroke-width="1" opacity="1" d="M 41.5 156 Q 41.9 162.6 45.5 166 L 52.5 169 Q 54.3 166.2 56 170.5 L 56 172.5 L 61 179.5 L 56.5 180 L 42.5 176 L 41 174.5 Q 38.3 168.3 40 157.5 L 41.5 156 Z " /><path fill="rgb(134,101,133)" stroke="rgb(134,101,133)" stroke-width="1" opacity="1" d="M 166.5 158 L 167 160.5 L 166 160.5 L 166.5 158 Z " /><path fill="rgb(134,101,133)" stroke="rgb(134,101,133)" stroke-width="1" opacity="1" d="M 66.5 159 L 69.5 163 L 66.5 159 Z " /><path fill="rgb(134,101,133)" stroke="rgb(134,101,133)" stroke-width="1" opacity="1" d="M 64.5 161 L 62.5 164 L 64.5 161 Z " /><path fill="rgb(134,101,133)" stroke="rgb(134,101,133)" stroke-width="1" opacity="1" d="M 32.5 162 L 33 168.5 L 32 168.5 L 32.5 162 Z " /><path fill="rgb(134,101,133)" stroke="rgb(134,101,133)" stroke-width="1" opacity="1" d="M 71.5 167 L 67.5 172 L 71.5 167 Z " /><path fill="rgb(134,101,133)" stroke="rgb(134,101,133)" stroke-width="1" opacity="1" d="M 32.5 172 L 34 174.5 L 33 174.5 L 32.5 172 Z " /><path fill="rgb(134,101,133)" stroke="rgb(134,101,133)" stroke-width="1" opacity="1" d="M 108.5 178 L 109 185.5 L 108 185.5 L 108.5 178 Z " /><path fill="rgb(134,101,133)" stroke="rgb(134,101,133)" stroke-width="1" opacity="1" d="M 154.5 179 Q 159.9 177.1 159 180.5 L 167 192.5 L 164.5 191 L 163.5 192 L 156 193 L 151 180 L 154.5 179 Z " /><path fill="rgb(134,101,133)" stroke="rgb(134,101,133)" stroke-width="1" opacity="1" d="M 82.5 180 L 97 180.5 L 82.5 181 L 82.5 180 Z " /><path fill="rgb(134,101,133)" stroke="rgb(134,101,133)" stroke-width="1" opacity="1" d="M 169.5 197 L 170.5 199 L 169.5 197 Z " /><path fill="rgb(81,41,57)" stroke="rgb(81,41,57)" stroke-width="1" opacity="1" d="M 115.5 43 L 118 44.5 L 117.5 46 L 117 44 L 115.5 43 Z " /><path fill="rgb(81,41,57)" stroke="rgb(81,41,57)" stroke-width="1" opacity="1" d="M 114.5 45 L 113.5 47 L 114.5 45 Z " /><path fill="rgb(81,41,57)" stroke="rgb(81,41,57)" stroke-width="1" opacity="1" d="M 107.5 52 L 106.5 54 L 107.5 52 Z " /><path fill="rgb(81,41,57)" stroke="rgb(81,41,57)" stroke-width="1" opacity="1" d="M 104.5 54 L 103.5 56 L 101.5 57 L 102.5 55 L 104.5 54 Z " /><path fill="rgb(81,41,57)" stroke="rgb(81,41,57)" stroke-width="1" opacity="1" d="M 118.5 62 L 119 64.5 L 118 64.5 L 118.5 62 Z " /><path fill="rgb(81,41,57)" stroke="rgb(81,41,57)" stroke-width="1" opacity="1" d="M 71.5 69 L 70.5 71 L 71.5 69 Z " /><path fill="rgb(81,41,57)" stroke="rgb(81,41,57)" stroke-width="1" opacity="1" d="M 68.5 71 L 67.5 73 L 68.5 71 Z " /><path fill="rgb(81,41,57)" stroke="rgb(81,41,57)" stroke-width="1" opacity="1" d="M 116.5 72 L 120 72.5 L 116.5 73 L 116.5 72 Z " /><path fill="rgb(81,41,57)" stroke="rgb(81,41,57)" stroke-width="1" opacity="1" d="M 121.5 72 L 124 72.5 L 121.5 73 L 121.5 72 Z " /><path fill="rgb(81,41,57)" stroke="rgb(81,41,57)" stroke-width="1" opacity="1" d="M 64.5 74 L 59.5 80 L 64.5 74 Z " /><path fill="rgb(81,41,57)" stroke="rgb(81,41,57)" stroke-width="1" opacity="1" d="M 139.5 77 L 143.5 82 L 139.5 77 Z " /><path fill="rgb(81,41,57)" stroke="rgb(81,41,57)" stroke-width="1" opacity="1" d="M 145.5 83 L 146.5 85 L 145.5 83 Z " /><path fill="rgb(81,41,57)" stroke="rgb(81,41,57)" stroke-width="1" opacity="1" d="M 150.5 87 L 151.5 89 L 150.5 87 Z " /><path fill="rgb(81,41,57)" stroke="rgb(81,41,57)" stroke-width="1" opacity="1" d="M 167.5 95 L 171 95.5 L 167.5 96 L 167.5 95 Z " /><path fill="rgb(81,41,57)" stroke="rgb(81,41,57)" stroke-width="1" opacity="1" d="M 171.5 97 L 165.5 104 L 171.5 97 Z " /><path fill="rgb(81,41,57)" stroke="rgb(81,41,57)" stroke-width="1" opacity="1" d="M 53.5 98 L 52.5 100 L 53.5 98 Z " /><path fill="rgb(81,41,57)" stroke="rgb(81,41,57)" stroke-width="1" opacity="1" d="M 119.5 98 L 121.5 98 L 130 106.5 L 134.5 113 L 143 113.5 L 134.5 114 Q 133.3 111.8 128.5 113 L 127 113.5 L 119.5 104 L 116 101.5 L 117.5 99 L 119.5 98 Z " /><path fill="rgb(81,41,57)" stroke="rgb(81,41,57)" stroke-width="1" opacity="1" d="M 163.5 104 L 162.5 106 L 163.5 104 Z " /><path fill="rgb(81,41,57)" stroke="rgb(81,41,57)" stroke-width="1" opacity="1" d="M 48.5 107 L 49 111.5 L 48 111.5 L 48.5 107 Z " /><path fill="rgb(81,41,57)" stroke="rgb(81,41,57)" stroke-width="1" opacity="1" d="M 49.5 114 L 50 116 L 65.5 115 Q 67 117.5 72.5 116 L 81 122.5 L 82 131.5 L 77.5 138 L 71.5 141 L 66.5 141 L 60.5 143 L 57.5 139 L 52 137.5 L 59.5 135 L 68.5 135 L 76 129.5 Q 76.8 123.8 72.5 123 L 64.5 121 L 56.5 121 L 51.5 123 L 52 121.5 L 49.5 114 Z M 73 137 L 73 139 L 75 138 L 73 137 Z " /><path fill="rgb(81,41,57)" stroke="rgb(81,41,57)" stroke-width="1" opacity="1" d="M 100.5 118 L 110 118.5 L 105.5 124 L 99.5 126 L 92 122.5 L 100.5 118 Z " /><path fill="rgb(81,41,57)" stroke="rgb(81,41,57)" stroke-width="1" opacity="1" d="M 49.5 123 L 47.5 126 L 49.5 123 Z " /><path fill="rgb(81,41,57)" stroke="rgb(81,41,57)" stroke-width="1" opacity="1" d="M 45.5 131 L 46 133.5 L 45 133.5 L 45.5 131 Z " /><path fill="rgb(81,41,57)" stroke="rgb(81,41,57)" stroke-width="1" opacity="1" d="M 129.5 135 L 132 135.5 L 129.5 136 L 129.5 135 Z " /><path fill="rgb(81,41,57)" stroke="rgb(81,41,57)" stroke-width="1" opacity="1" d="M 122.5 136 L 125 136.5 L 122.5 137 L 122.5 136 Z " /><path fill="rgb(81,41,57)" stroke="rgb(81,41,57)" stroke-width="1" opacity="1" d="M 85.5 139 L 88 139.5 L 85.5 140 L 85.5 139 Z " /><path fill="rgb(81,41,57)" stroke="rgb(81,41,57)" stroke-width="1" opacity="1" d="M 144.5 140 L 149 140.5 L 144.5 141 L 144.5 140 Z " /><path fill="rgb(81,41,57)" stroke="rgb(81,41,57)" stroke-width="1" opacity="1" d="M 31.5 143 L 29.5 146 L 31.5 143 Z " /><path fill="rgb(81,41,57)" stroke="rgb(81,41,57)" stroke-width="1" opacity="1" d="M 74.5 143 L 73.5 145 L 71.5 146 L 72.5 144 L 74.5 143 Z " /><path fill="rgb(81,41,57)" stroke="rgb(81,41,57)" stroke-width="1" opacity="1" d="M 63.5 144 L 66.5 148 L 63.5 144 Z " /><path fill="rgb(81,41,57)" stroke="rgb(81,41,57)" stroke-width="1" opacity="1" d="M 163.5 144 L 165.5 147 L 163.5 144 Z " /><path fill="rgb(81,41,57)" stroke="rgb(81,41,57)" stroke-width="1" opacity="1" d="M 51.5 145 Q 60 146.5 63.5 153 L 69.5 154 Q 76.3 147.8 86.5 145 L 89 146 L 90 151 Q 96 152.2 98.5 149 L 98.5 150 Q 95.5 149.1 97 153.5 L 95 160.5 L 92 165 L 85.5 168 L 80.5 168 L 75 173.5 L 71 181 L 81.5 180 L 81 181.5 L 82 186 L 84.5 187 L 102 187 L 105 200 L 58.5 200 L 51 193.5 Q 43.2 185.3 40 172.5 L 41 172.5 L 42.5 176 L 51.5 179 L 60.5 180 L 60 178.5 L 53.5 168 L 50.5 169 L 44 164.5 L 41.5 156 L 40 156.5 L 41.5 154 Q 43.8 154.8 43 152.5 L 48 148.5 L 49.5 146 L 51.5 145 Z M 67 159 L 60 166 L 64 173 Q 63 175 66 174 Q 72 171 73 164 L 67 159 Z M 64 181 L 66 184 L 69 182 L 64 181 Z " /><path fill="rgb(81,41,57)" stroke="rgb(81,41,57)" stroke-width="1" opacity="1" d="M 40.5 146 L 38.5 149 L 40.5 146 Z " /><path fill="rgb(81,41,57)" stroke="rgb(81,41,57)" stroke-width="1" opacity="1" d="M 69.5 146 L 68.5 148 L 69.5 146 Z " /><path fill="rgb(81,41,57)" stroke="rgb(81,41,57)" stroke-width="1" opacity="1" d="M 116.5 146 L 112.5 151 L 116.5 146 Z " /><path fill="rgb(81,41,57)" stroke="rgb(81,41,57)" stroke-width="1" opacity="1" d="M 123.5 147 L 120.5 151 L 123.5 147 Z " /><path fill="rgb(81,41,57)" stroke="rgb(81,41,57)" stroke-width="1" opacity="1" d="M 27.5 149 L 28 151.5 L 27 151.5 L 27.5 149 Z " /><path fill="rgb(81,41,57)" stroke="rgb(81,41,57)" stroke-width="1" opacity="1" d="M 36.5 150 L 35.5 152 L 36.5 150 Z " /><path fill="rgb(81,41,57)" stroke="rgb(81,41,57)" stroke-width="1" opacity="1" d="M 111.5 152 L 110.5 154 L 111.5 152 Z " /><path fill="rgb(81,41,57)" stroke="rgb(81,41,57)" stroke-width="1" opacity="1" d="M 118.5 153 L 117.5 155 L 118.5 153 Z " /><path fill="rgb(81,41,57)" stroke="rgb(81,41,57)" stroke-width="1" opacity="1" d="M 39.5 158 L 40 170.5 L 39 170.5 L 39.5 158 Z " /><path fill="rgb(81,41,57)" stroke="rgb(81,41,57)" stroke-width="1" opacity="1" d="M 27.5 159 L 28 161.5 L 27 161.5 L 27.5 159 Z " /><path fill="rgb(81,41,57)" stroke="rgb(81,41,57)" stroke-width="1" opacity="1" d="M 103.5 169 L 104 171.5 L 103 171.5 L 103.5 169 Z " /><path fill="rgb(81,41,57)" stroke="rgb(81,41,57)" stroke-width="1" opacity="1" d="M 33.5 170 L 34 172.5 L 32 173.5 L 33.5 170 Z " /><path fill="rgb(81,41,57)" stroke="rgb(81,41,57)" stroke-width="1" opacity="1" d="M 162.5 172 L 162 173.5 L 160.5 176 L 161 174.5 L 162.5 172 Z " /><path fill="rgb(81,41,57)" stroke="rgb(81,41,57)" stroke-width="1" opacity="1" d="M 102.5 173 L 103 176.5 L 102 176.5 L 102.5 173 Z " /><path fill="rgb(81,41,57)" stroke="rgb(81,41,57)" stroke-width="1" opacity="1" d="M 33.5 175 Q 35.8 174.3 35 176.5 L 33.5 175 Z " /><path fill="rgb(81,41,57)" stroke="rgb(81,41,57)" stroke-width="1" opacity="1" d="M 108.5 175 L 109 177.5 L 108 177.5 L 108.5 175 Z " /><path fill="rgb(81,41,57)" stroke="rgb(81,41,57)" stroke-width="1" opacity="1" d="M 100 178 Q 103 177 102 180 L 97.5 181 L 97.5 180 Q 101.3 181 100 178 Z " /><path fill="rgb(81,41,57)" stroke="rgb(81,41,57)" stroke-width="1" opacity="1" d="M 159.5 178 Q 161.6 186.4 167 191.5 L 164 189.5 L 159 180.5 L 159.5 178 Z " /><path fill="rgb(81,41,57)" stroke="rgb(81,41,57)" stroke-width="1" opacity="1" d="M 108.5 186 L 109 188.5 L 108 188.5 L 108.5 186 Z " /><path fill="rgb(81,41,57)" stroke="rgb(81,41,57)" stroke-width="1" opacity="1" d="M 169.5 196 L 170.5 198 L 169.5 196 Z " /><path fill="rgb(251,251,251)" stroke="rgb(251,251,251)" stroke-width="1" opacity="1" d="M 83.5 65 L 84 68 L 78.5 70 L 66 80 L 63 84.5 L 62 91.5 L 66 99.5 L 54 108.5 L 54 112 Q 51 110.8 52 114.5 L 50 113.5 L 49 107.5 L 51 102 L 54 100.5 L 56 96.5 L 55 91.5 Q 57.6 80.6 65.5 75 L 72.5 70 L 74 70.5 Q 73.3 68.3 75.5 69 L 83.5 65 Z " /><path fill="rgb(251,251,251)" stroke="rgb(251,251,251)" stroke-width="1" opacity="1" d="M 38.5 142 Q 42.3 140.8 41 144.5 L 36 148.5 L 34.5 151 L 30 150 L 30 146 L 32 146 Q 30.9 143.3 33.5 144 L 38.5 142 Z " /><path fill="rgb(251,251,251)" stroke="rgb(251,251,251)" stroke-width="1" opacity="1" d="M 138.5 142 L 153.5 142 L 156 143 L 154.5 146 L 149.5 146 L 132.5 160 L 131 155.5 L 131.5 154 L 120 162.5 Q 120.8 164.8 118.5 164 L 114 169.5 L 114 173 Q 111.3 171.9 112 174.5 L 110 175.5 Q 113.1 156.1 126.5 147 L 138.5 142 Z " /><path fill="rgb(187,150,112)" stroke="rgb(187,150,112)" stroke-width="1" opacity="1" d="M 114.5 46 L 113.5 48 L 114.5 46 Z " /><path fill="rgb(187,150,112)" stroke="rgb(187,150,112)" stroke-width="1" opacity="1" d="M 108.5 52 L 107.5 54 L 108.5 52 Z " /><path fill="rgb(187,150,112)" stroke="rgb(187,150,112)" stroke-width="1" opacity="1" d="M 118.5 53 L 119 61.5 L 118 61.5 L 118.5 53 Z " /><path fill="rgb(187,150,112)" stroke="rgb(187,150,112)" stroke-width="1" opacity="1" d="M 104.5 70 L 111 70 L 111 75 Q 96.5 77.1 89 87.5 L 83.5 99 Q 79.8 99.8 79 97.5 L 79 93.5 L 81 88.5 L 90.5 77 L 104.5 70 Z " /><path fill="rgb(187,150,112)" stroke="rgb(187,150,112)" stroke-width="1" opacity="1" d="M 138.5 77 L 143.5 83 L 138.5 77 Z " /><path fill="rgb(187,150,112)" stroke="rgb(187,150,112)" stroke-width="1" opacity="1" d="M 65.5 84 Q 69.3 83.3 70 85.5 L 71 97.5 Q 70.3 99.8 66.5 99 Q 62.7 95.8 63 88.5 L 65.5 84 Z " /><path fill="rgb(187,150,112)" stroke="rgb(187,150,112)" stroke-width="1" opacity="1" d="M 147.5 85 L 149.5 88 L 147.5 85 Z " /><path fill="rgb(187,150,112)" stroke="rgb(187,150,112)" stroke-width="1" opacity="1" d="M 109.5 93 L 113.5 93 L 121 97.5 L 115 100.5 L 114.5 102 L 108 98 Q 107 94.2 109.5 93 Z " /><path fill="rgb(187,150,112)" stroke="rgb(187,150,112)" stroke-width="1" opacity="1" d="M 166.5 101 L 165.5 103 L 166.5 101 Z " /><path fill="rgb(187,150,112)" stroke="rgb(187,150,112)" stroke-width="1" opacity="1" d="M 126.5 102 L 130.5 107 L 126.5 102 Z " /><path fill="rgb(187,150,112)" stroke="rgb(187,150,112)" stroke-width="1" opacity="1" d="M 131.5 108 L 132.5 110 L 131.5 108 Z " /><path fill="rgb(187,150,112)" stroke="rgb(187,150,112)" stroke-width="1" opacity="1" d="M 93 109 L 101 115.5 L 102 117.5 Q 97.8 117.3 96.5 120 L 93 109 Z " /><path fill="rgb(187,150,112)" stroke="rgb(187,150,112)" stroke-width="1" opacity="1" d="M 133.5 111 L 134.5 113 L 133.5 111 Z " /><path fill="rgb(187,150,112)" stroke="rgb(187,150,112)" stroke-width="1" opacity="1" d="M 71.5 123 Q 73.8 122.3 73 124.5 L 76 127.5 L 75 128.5 Q 75.5 132.5 72.5 133 Q 67.1 136.1 57.5 135 L 47.5 139 L 48 137.5 L 50.5 134 Q 53.1 134.7 52 132 L 54.5 132 L 72 125.5 L 71.5 123 Z " /><path fill="rgb(187,150,112)" stroke="rgb(187,150,112)" stroke-width="1" opacity="1" d="M 106.5 123 L 110 132.5 L 107.5 131 L 101 126.5 L 106.5 123 Z " /><path fill="rgb(187,150,112)" stroke="rgb(187,150,112)" stroke-width="1" opacity="1" d="M 62.5 142 L 66.5 147 L 62.5 142 Z " /><path fill="rgb(187,150,112)" stroke="rgb(187,150,112)" stroke-width="1" opacity="1" d="M 160.5 143 L 161.5 145 L 160.5 143 Z " /><path fill="rgb(187,150,112)" stroke="rgb(187,150,112)" stroke-width="1" opacity="1" d="M 166.5 154 L 167 157.5 L 166 157.5 L 166.5 154 Z " /><path fill="rgb(187,150,112)" stroke="rgb(187,150,112)" stroke-width="1" opacity="1" d="M 32.5 169 L 33 171.5 L 31 170.5 L 32.5 169 Z " /><path fill="rgb(187,150,112)" stroke="rgb(187,150,112)" stroke-width="1" opacity="1" d="M 66.5 172 L 65.5 174 L 66.5 172 Z " /><path fill="rgb(187,150,112)" stroke="rgb(187,150,112)" stroke-width="1" opacity="1" d="M 92.5 172 L 93.5 174 L 92.5 172 Z " /><path fill="rgb(187,150,112)" stroke="rgb(187,150,112)" stroke-width="1" opacity="1" d="M 83.5 177 L 81.5 180 L 83.5 177 Z " /><path fill="rgb(187,150,112)" stroke="rgb(187,150,112)" stroke-width="1" opacity="1" d="M 151.5 179 L 154 179.5 L 151.5 180 L 151.5 179 Z " /><path fill="rgb(187,150,112)" stroke="rgb(187,150,112)" stroke-width="1" opacity="1" d="M 166.5 193 L 167.5 195 L 166.5 193 Z " /></svg>