<svg xmlns="http://www.w3.org/2000/svg" width="200" height="200"><path stroke="#000" d="M0 0h200v195.5h-1q-6.9-21.1-19-37l-1-36-1-1v-11l-1-1-1-17-1-1-1-11-3.5-6.5-13-1-1-1h-14l-1-1H109q-.9-8-6.5-12-4.3-3.7-14-2L83 60q-3.5 4.1-4 11l-37.5 2-1 1h-8L26 76l-1 2.5v15l-1 1v27l-1 1v9l1 1v27Q11.1 177.7 4 200l-4-.5z" opacity="0"/><path stroke="#000" d="m88.5 57 2.5.5-2.5.5zm9 0q5.8 1.3 8.5 5.5l3 8.5 33 .5-32.5.5-3.5-7.5-5.5-5.5q-3.7-.3-3-2Zm-11 1-1 2zm-4 4-1 2zm-3 6 .5 4-12-.5 11-.5zm-28 4 12.5.5-12.5.5zm95 0 10.5.5-10.5.5zm-105 1 8.5.5-8.5.5zm117 0 6.5.5-6.5.5zm-126 1 6.5.5-6.5.5zm134 0q4.5-1 5.5 1.5l-1.5-.5q-5 1-4-1Zm-138 1 2.5.5-4.5 1.5v-1zm144 2 1.5 6.5h-1zm-147 1 .5 9.5h-1zm149 8 .5 4.5h-1zm1 6 .5 6.5h-1zm-151 2 .5 11.5h-1zm152 7 .5 7.5h-1zm1 9 .5 10.5h-1zm-154 12 .5 9.5h-1zm155 0 .5 16.5h-1zm1 24 .5 12.5q9.8 12.7 16 29h-1q-6.2-16.3-16-29zm-156 14 .5 1.5L9.5 188l-.5-1.5zm-15 29 .5 1.5-4.5 9.5-.5-1.5zm188 0 1.5 3.5h-1zm2 5 1.5 4.5h-1z" opacity=".239"/><path fill="#f9e2a9" stroke="#f9e2a9" d="m90.5 77 9.5 1.5-4 1.5q1.3-3.3-3.5-2L90 79l-1.5 3q-5.3.7-6-3h-4l-1 1h-9l-7 2-21 2-4.5 2.5q.6 4.6-2 6l-1 14-1 1V128q-3.5 1.1-2-6.5l1-1v-28l1-1v-9l1.5-1.5 15-1 1-1h12l1-1h27zm19 0 3.5.5-3.5.5zm-78 65 3 1 55.5.5-29.5.5-1 1h-17l-1 1H34l-1 2.5-1.5 33.5-.5-34.5-1-4z"/><path fill="#f7b478" stroke="#f7b478" d="m78.5 77 11.5.5-11.5.5zm18 0h12l1.5 1.5L95.5 84l-46 2-1 1h-8L39 88.5l-1 5v31l2.5 3.5H48v5.5l-1 2.5H32.5l-2.5-1v-6.5l2-1v-20l1-1 1-14 3.5-7.5 9-2 15-1 7-2 14-1q.8 3.8 6 3l1.5-3zm-.5 1v2l4-1zm17.5-1h15l7.5 1.5-16.5.5q-1.3-2.3-6-1zm-55 1 3.5.5-3.5.5zm-13 1 3.5.5-3.5.5zm-10 1 2.5.5-2.5.5z"/><path fill="#f7b478" stroke="#f7b478" d="m30.5 116 .5 4.5h-1zm4 26 19.5.5-19.5.5zm50 0 29.5 1.5-18.5 4.5h-53l-4.5 2.5v22l1.5.5 7.5 3-1.5 3-9.5 7.5-1 13.5q-3.7 1.3-2-4.5l-1-1v-11l-1-1 1-1 1-33 1-2.5h7.5l1-1h17l1-1 29.5-.5-5.5-.5zm-54 5 .5 14.5h-1zm20 43q7.3-1.2 8.5 3.5l-4.5 6.5h-8l-1.5-1.5 3.5-7.5zm34 1 3.5 2.5q.8 3.8-1.5 4.5H84l-.5 2h-5l3.5-4.5q-.5-4 2.5-4.5Z"/><path fill="#c0533b" stroke="#c0533b" d="m142.5 78 .5 2 5.5 1h9l3 2 1-1h6.5l1 9.5-4 17q3.5 1.7 2 7.5l-3-.5 2-.5-.5-5H150v6h11.5l-.5 1.5-1 3.5 7 .5-15.5.5-1.5 1.5q-.7 3.8 1.5 4.5h14l1-1-1 2h-14l-2.5-1v2q-2.7-1.1-2 1.5h-1l-1-4-2-45zm7.5 20v6h16q1 0 0-4l-1-2zm.5-20 2.5.5-2.5.5zm10 1 2.5.5-2.5.5zm-52 1q10.3-1.2 15.5 1l-2 3.5.5 1.5-3-1-25.5-.5 11.5-1.5 2.5 1q1.1-2.7-1.5-2v-1zm29 2 .5 8.5h-1zm32 13 .5 2.5h-1zm-31 1 .5 10.5h-1zm32 8 .5 3.5h-1zm-42 6 .5 2.5h-1zm11 2 .5 11.5h-1zm32 2 .5 4.5h-1zm-43 11-1 2zm-32 2 17.5.5q-2.9 4.6-9.5 5.5-2-3-8-2l-12 3h-6l-3 2H48l1-8h46.5zM55 134v1h5zm117.5-6 .5 5.5h-1zm-32 2 .5 6-3-.5 2-.5zm8 5 6.5.5-6.5.5zm9 6H173v8l-7.5-4h-8l-6.5 4.5-3 8v6l5 11 13 20-10 3.5-.5 2H146v-57.5l.5-.5h10zm-17 5 .5 7.5h-1zm-98 27 55 1 1-1h27v1h-11l-.5 2q3.8-1 5 1.5l2 4.5 2 .5-15 2.5q-1.6 2.1-1 7.5l1 1v6.5h-8.5l-1.5-1.5-4-7.5-3 1.5-1 3 3 4-7.5.5v-1l3.5-1.5v-3l-3-4.5-3 1.5-5.5 8.5H65v-5.5l-3.5-6.5-1.5.5v7l1 2-1 2.5-5-.5 4-3q1-5.5-2.5-6.5l-5-1-6.5 3.5 1 2-1 5.5q-3.4.8-4.5-2l-.5 2h-4v-9.5l2-5 3.5-3.5H48v-3.5l1-2.5-6.5-2zm98 13 .5 13.5h-1zm-6 7 .5 3.5h-1z"/><path fill="#dd7a53" stroke="#dd7a53" d="m110.5 78 25 1 1.5 1.5 3 54.5h-17.5l-1 1h-45v-1l25-4 5 2 6-5h9q1.3-2.3 6-1l1.5-1.5 1-6-1-1v-15l-1-1q1-10.5-1-16.5l-5-1.5 2-3.5q-5.2-2.2-15.5-1l-2.5 1.5 2 .5q1.1 2.7-1.5 2l-4-1q-1.3 2.3-6 1v-1h3zm33 0 1 1 20 1 2.5 1.5-7.5 1.5-2-2h-9l-5.5-1zm-95 51 .5 3.5h-1zm6 5 5.5.5-5.5.5zm48 8 34 1 3.5-1v11.5l1 1v31l-1 1V200h-5v-11.5l-3.5-5.5q-7.5 1-10.5-1l-3.5-6q-4.8 1.3-3.5-2h15.5l2.5-1v-23.5l-1.5-1.5-4-1h-24q-1.3 2.3-6 1v-1l17.5-3.5-11.5-.5zm-57 33 3.5 1-1 6q-8-1.7-10 3.5l-1.5 4.5-.5-3.5 11-9q.8-2.2-1.5-1.5zm6 14 2.5.5-2.5.5zm5 1 2 3zm28 0 1.5.5-2.5 1.5zm-49 4 .5 5.5h-1zm46 0 .5 1.5-3 2zm7 0 .5 3.5-4.5 2.5-.5-2 4-1.5zm-56 1 .5 2.5h-1zm26 0 .5 1.5-3 2z"/><path fill="#2b5a5e" stroke="#2b5a5e" d="m102.5 68 .5 2.5h-1zm-14 3 4.5.5-4.5.5zm-18 6 2.5.5-2.5.5zm0 8 21.5.5-3 1.5q1.1 2.7-1.5 2v1l18.5.5-20.5.5h-2q-4.7 1.2-6-1l-1 1-31 1-1.5 1.5q1.3 4.8-1 6V123l9 .5-3 4.5h-8.5l-.5-1.5-2-4v-26q2.5-1.5 1-7l1.5-1.5 2-1h11l1-1h15zm48 6 3.5 1.5-.5 1.5-.5-2q-3.3.8-2.5-1Z"/><path fill="#2b5a5e" stroke="#2b5a5e" d="M53.5 102q4-.5 4.5 2.5.8 4.8-2.5 5.5-4.7.8-5.5-2.5-.7-3.7 1.5-4.5zm54 0-1 2zm15 0 .5 4.5h-1zm-16 5 1 2zm7 0-1 2zm10 12 .5 1.5q-1.5 3-7.5 1.5v-1q7.2 1.5 7-2Zm-70 3 25.5.5-25.5.5zm1 26 25.5.5-25.5.5zm103 3-2 3zm9 1 3 4zm3 7 3.5 8-7 2-3-5.5zm3 0 1 2z"/><path fill="#2b5a5e" stroke="#2b5a5e" d="m174.5 162 2 3q-4.4 1.1-2-3Zm-18 6 1 2zm-132 3-1 2zm107 0-1 2zm27 0 1 2zm26 7 3.5 6.5-2 .5z"/><path fill="#2b5a5e" stroke="#2b5a5e" d="m181.5 179 1.5.5-.5 1.5q3-.9 1.5 3.5l.5 1.5-6.5 3-3-6.5zm-69 5h13l.5 1.5 1 3.5h-12.5l-1.5 1.5v9.5h-5v-13.5l1.5-1.5zm55 2 1 2zm-143 2 1.5 3.5-2-1zm146 3 1 2z"/><path fill="#63a6a6" stroke="#63a6a6" d="m94.5 63 7.5 5.5-.5 2.5h-7l.5-1.5 1-4zm-32 28 5.5.5-5.5.5zm46 0 6.5.5-6.5.5zm-62 1 5.5.5-5.5.5zm74 0 .5 8.5 1 1v16l1 2-1.5 1.5-68 1 10-11 3-2 12-12 3-1 18-1 1-1h12zm-11.5 9-4 5 1 3 6 1q3-1 2-6-1-4-5-3Zm-52.5 1 1 2zm-13 2 .5 15.5h-1zm14 4-1 2zm-13 14 6.5.5-6.5.5zM159 151q9-.3 12 6.5l-8.5 5.5q-4.9-3.5-3.5-12Zm.5 15-1 2zm15 0q4-.5 4.5 2.5l4 9.5q-5.8-.6-8.5 4l-6.5-11-4 2.5-1.5 3.5-.5-1.5 4.5-5.5zm-150 9 .5 5.5h-1zm-4 4 2.5 1.5-1.5.5zm144 1 1 2zm3 5 1 2zm18 1 3.5 1.5 4 12.5-3.5-1-6.5 1-3-9q-4.7-.7-6 3.5l-.5 1.5-.5-1.5 3-4.5h3.5zm-165 2 2.5 1.5-1.5-.5zm94 1 11.5.5-11.5.5zm-91 2 1.5 1.5q-.6 5.4 1 7.5l-7-.5zm102 4-1.5 2.5q.8 2.3-1.5 1.5l-1.5.5z"/><path fill="#448e8d" stroke="#448e8d" d="m88.5 64-2 3zm10 0 3 4zm-13 4 .5 3 2 .5-1.5.5q-2.5-1-1-4Zm-27 23 3.5.5-3.5.5zm57 0 2.5.5-2.5.5zm-70 1-1 2zm76 2 .5 6.5h-1zm-78 5 .5 4.5h-1zm65 2q4.8-.7 5.5 2.5l-2.5-1.5q-4 .7-3-1Zm14 6 .5 10.5h-1zm-79 13 .5 2.5h-1zm38 1 34.5.5-34.5.5zm88.5 37q2.7-1.1 2 1.5 3 1.3 2 5.5l4 1.5-1.5-.5-3 1q-4.3-2.8-3.5-9Zm-2.5 1 1.5.5-2.5 1.5zm-3 2-1.5 2.5 1 1 2 4.5 3.5-1-1 2q-5-.5-5.5 3.5l-1.5 2.5-4.5-7.5 3-2zm-140 11 .5 2.5h-1zm157 1 1 2zm2 3 2.5 9 3 1.5-1.5-.5-8 4H176l-3.5 5-3.5-7.5q4.3-8.1 14-9.5zm-1.5 3-7 4 3 6 7-3-1-1q1-5-1-4v-1zm-163 1 6 1-1 9.5q3.3 1.3 2 7h-1v-5l-3.5-4.5q-3.7.8-4.5-1.5zm107 9 3 1.5v9.5h-6.5v-1q2.3.8 1.5-1.5 3.8-1.9 2-8.5Zm-12.5 1 .5 9.5h-1z"/><path fill="#b16f58" stroke="#b16f58" d="m73.5 77 4.5.5-4.5.5zm56 0q6-1.5 7.5 1.5l-1.5-.5h-6zm-74 1 2.5.5-2.5.5zm89 0 5.5.5-5.5.5zm-63 6 12.5.5-12.5.5zm-16 1 4.5.5-4.5.5zm-34 1 .5 3.5h-1zm18 0 3.5.5-3.5.5zm-9 1-1 2zm87 3 .5 6.5h-1zm41 2 1.5 6.5v9l1 1v10l1 1V135h-23.5l-1 1-1.5-3.5 1-2.5h2q-1.1-2.7 1.5-2l1 1h14l1.5-1.5V121h-6.5l-.5-1.5 2.5-3.5q7.2 2.3 4.5-5.5l-2-3 2-4zm-138 11 .5 12.5h-1zm98 0 .5 6.5h-1zm1 16 .5 4.5h-1zm-15 8 7.5.5-7.5.5zm8 8 15.5.5-15.5.5zm-68 7 29.5.5-29.5.5zm41 0 6.5.5-6.5.5zm22 0 2.5.5-2.5.5zm5 0 14.5.5-14.5.5zm18 1 .5 2.5h-1zm-38 4 24.5.5-24.5.5zm-60 1 11.5.5-11.5.5zm-3 1-1 2zm-9 13 .5 8.5h-1zm8 9 1 2zm88 2 3.5.5-3.5.5zm-9 10 8.5.5-8.5.5zm10 0q5.5-1 6.5 2.5l-2.5-1.5q-5 1-4-1Zm-96 1 .5 3.5h-1zm76 3 .5 5.5h-1zm27 1 .5 4.5h-1zm30 7q2.3-.7 1.5 1.5l2 3-12 .5q-1.2-3 2.5-2z"/><path fill="#170804" stroke="#170804" d="M91.5 57q10.8.3 14.5 7.5l3.5 7.5h36l1 1 19 1 6.5 2.5 3 15 1 17 1 1 1 29 1 1v19q13.3 17.7 21 41l-6 .5-3-10.5-12-23-13.5-15.5-6-1-4.5 3.5-2 7 1 5 16 25 4 9.5q-4.6 1.3-6-1.5l-19-32v-11q1.3-5.7 5.5-8.5 2.9-2.6 9-2l9 5 .5-9h-27v58.5l-5 .5v-9.5l1-1v-39l-1-1V142H30.5l-.5.5v36l1 1v13l1 1v6.5h-5v-2.5l-1-1-1-25.5q-2.7-1.1-2 1.5L9.5 200q-5.4 1.9-4.5-1.5 7.5-20.5 19-37v-55l1-1v-17l1-1V77l5.5-2q6.2 1.8 8-1L80 72q-.5-8.3 4.5-12zm.5 5-4 2q-4 2-3 8h17l1-1-1-4-6-5zM65 77l-1 1H50l-1 1-17 1-1 3v13l-1 1v40h92l1-1h18l-2-44-1-1V77zm76 1 2 10 2 47 2 1h17l1-1h8l-1-24-1-1v-9l-1-1-2-18-3-3z" opacity=".988"/><path fill="#170804" stroke="#170804" d="M151.5 98H165v5q-4.5 2-13.5 1-2.2-.7-1.5-4.5zm-.5 12h13.5l.5 1.5 1 3.5-15 1zm2.5 12H166v5q-5.3 2.2-15 1v-5h1.5zm-92 67q4.4 3.6 3.5 11l-5-.5 1-4-1-2zm31 2 5.5 9q-4.6 1.3-6-1.5l-2-4z" opacity=".988"/><path fill="#23e67e" stroke="#23e67e" d="M44 153h16v16H44zm22 0h16v16H66zm22 0h16v16H88z"/><path fill="#292b36" stroke="#292b36" d="m87.5 64-1 2zm6 7 8.5.5-8.5.5zm-29 6 5.5.5-5.5.5zm73 0 .5 4.5h-1zm-88 1 4.5.5-4.5.5zm104 0 3.5.5-3.5.5zm-114 1 2.5.5-2.5.5zm-8 3 .5 3.5h-1zm111 0 .5 4.5h-1zm-50 3h27q1.3 2.2 6 1l1.5 1.5 2 37-2.5 2.5-77.5 1 3.5-5 70-1 1.5-1.5-1-2-1-26-1.5-1.5L87 89.5l2-.5q-1.1-2.7 1.5-2zm76 1 .5 2.5h-1zm-30 5 .5 4.5h-1zm31 1 .5 2.5h-1zm-26 3 .5 6.5h-1zm-113 1 .5 4.5h-1zm135 3 .5 5-4-.5 3-.5zm5 1 .5 3.5h-1z" opacity=".996"/><path fill="#292b36" stroke="#292b36" d="M108.5 102q3.8-.7 4.5 1.5l1 3q-.7 3.3-5.5 2.5-3-.5-2.5-4.5zm31 4 .5 5.5h-1zm11 4 .5 5.5h-1zm21 0 .5 3.5h-1zm-27 1 .5 5.5h-1zm13 4 6.5.5-6.5.5zm-6 7 1.5.5-2 .5-.5 4-.5-3.5zm15 0 .5 4.5-3.5 1.5v-1h2.5zm6 1 .5 4.5h-1zm-32 1 .5 5.5h-1zm5 4 .5 6.5h-1zm10 7 8.5.5-8.5.5zm-125 1 91.5.5-91.5.5zm116 5 10.5.5-10.5.5zm7 6-2 3zm16 0 1 2zm-89 1h49l1.5 1.5 1 2v19l-2.5 2.5-63 1-1-1h-25l-2.5-2.5v-19l2.5-2.5h39zM44 153v16h16v-16zm22 0v16h16v-16zm22 0v16h16v-16zm53.5-3 .5 39.5h-1zm7 7 .5 6.5h-1zm24 1 1 2zm2 3 1 2zm3 4 1 2zm-147 8 .5 5.5h-1zm123 1 1 2zm2 3 1 2zm-130 7 .5 6.5h-1zm100.5 0 7 1 1 2.5q-.9 8.4 1 12.5-4.6 1.3-6-1.5v-9l-2-.5v-2.5zm34.5 1 1 2zm-129 3 .5 4.5h-1zm28.5 0 3 1.5h-2l-.5 3.5zm104.5 4 1 2zm-138 5 .5 2.5h-1zm14 1 1 2z" opacity=".996"/><path fill="#6ad3c5" stroke="#6ad3c5" d="M91.5 63q4-.5 4.5 2.5L93.5 71H86v-3.5zm-23 28h39l1 1 11.5.5-7.5 1.5h-12l-1 1-18 1-3 1-12 12H65q1.1 2.7-1.5 2l-11 11H44V96.5l1-3.5h6.5l1-1h15zM53 102l-3 1-1 3 1 3 4 2 3-1q2-1 1-6-1-3-5-2Zm104.5 50q2.8-.6 1.5 5.5l3 6-4.5 4.5-1.5-1.5-2-6zm9 19q2.3-.7 1.5 1.5l6 10-4.5 4.5-2.5-2.5-4-9zm-143 2 .5 7.5-1.5-.5q-2.6.8-1.5-2.5zM16 188q5-.8 7 2.5l-4.5 9.5H12v-3.5zm98 2h12v4.5l-5.5 5.5H114zm63.5 1q3.8-1.2 2.5 2.5l3 6.5h-7.5l-.5-1.5-1-4z"/></svg>