<svg width="200" height="200" version="1.1" xmlns="http://www.w3.org/2000/svg" desc="Created with imagetracer.js version 1.2.6" ><path fill="rgb(0,0,0)" stroke="rgb(0,0,0)" stroke-width="1" opacity="0" d="M 0 0 L 200 0 L 200 200 Q 193.9 201.8 192 198.5 L 192 194 L 188 194 Q 189.1 191.3 186.5 192 L 174 178.5 L 174 176 L 168.5 174 L 159 164.5 Q 164.6 163.6 167 159.5 L 168 152 Q 164.3 153.5 165 150.5 L 158 142.5 L 162 135.5 L 162 131.5 L 159 127.5 L 165.5 122 L 168 122 L 169.5 118 L 172.5 116 L 186 105.5 L 186 102.5 L 180.5 96 L 177 93.5 L 176 91.5 L 181 82.5 L 184 69.5 L 184 63.5 L 183 60 Q 176.5 59.1 173.5 63 L 156 65 Q 157.8 60.5 152.5 62 L 144 58 Q 145.3 55 141.5 56 L 133.5 52 L 121.5 49 L 101.5 48 L 100.5 49 L 88.5 49 L 78 51 L 79 44.5 L 79 42.5 L 80 36.5 L 88 25.5 L 80.5 25 L 64.5 32 L 60.5 36 L 58 36 L 54.5 41 Q 53.2 38.8 52 41.5 L 45 51.5 L 42 65 L 20 78 L 20 80 Q 17.3 78.9 18 81.5 L 14 90.5 L 14 100.5 L 18 111.5 L 25.5 119 L 28 120.5 L 29 128.5 L 35.5 135 L 43 139.5 L 44 143 L 36 146 L 36 151.5 L 38 152 L 38 154.5 L 42 160 L 36.5 161 Q 33.5 158.2 28 159 L 28 157 L 26 157 Q 27.1 154.3 24.5 155 L 15.5 145 L 12.5 145 L 7 150.5 L 1 160.5 L 1 164.5 L 7 170.5 L 6 171.5 L 7 177.5 L 16 189 L 24 193 L 22 200 L 0.5 200 L 0 199.5 L 0 0 Z " /><path fill="rgb(3,0,0)" stroke="rgb(3,0,0)" stroke-width="1" opacity="0.0196078431372549" d="M 64.5 32 L 63.5 34 L 64.5 32 Z " /><path fill="rgb(3,0,0)" stroke="rgb(3,0,0)" stroke-width="1" opacity="0.0196078431372549" d="M 53.5 40 L 54 41.5 L 51 43.5 L 53.5 40 Z " /><path fill="rgb(3,0,0)" stroke="rgb(3,0,0)" stroke-width="1" opacity="0.0196078431372549" d="M 101.5 48 L 113 48.5 L 101.5 49 L 101.5 48 Z " /><path fill="rgb(3,0,0)" stroke="rgb(3,0,0)" stroke-width="1" opacity="0.0196078431372549" d="M 88.5 49 L 91 49.5 L 88.5 50 L 88.5 49 Z " /><path fill="rgb(3,0,0)" stroke="rgb(3,0,0)" stroke-width="1" opacity="0.0196078431372549" d="M 46.5 50 L 45.5 52 L 46.5 50 Z " /><path fill="rgb(3,0,0)" stroke="rgb(3,0,0)" stroke-width="1" opacity="0.0196078431372549" d="M 151.5 61 L 156 62 Q 157.5 65.8 154.5 65 L 151.5 61 Z " /><path fill="rgb(3,0,0)" stroke="rgb(3,0,0)" stroke-width="1" opacity="0.0196078431372549" d="M 183.5 63 L 184 69.5 L 183 69.5 L 183.5 63 Z " /><path fill="rgb(3,0,0)" stroke="rgb(3,0,0)" stroke-width="1" opacity="0.0196078431372549" d="M 18 80 L 20 80.5 L 17 82.5 L 18 80 Z " /><path fill="rgb(3,0,0)" stroke="rgb(3,0,0)" stroke-width="1" opacity="0.0196078431372549" d="M 18.5 111 L 19.5 113 L 18.5 111 Z " /><path fill="rgb(3,0,0)" stroke="rgb(3,0,0)" stroke-width="1" opacity="0.0196078431372549" d="M 167.5 120 L 168 122 L 166 121.5 L 167.5 120 Z " /><path fill="rgb(3,0,0)" stroke="rgb(3,0,0)" stroke-width="1" opacity="0.0196078431372549" d="M 29.5 128 L 30.5 130 L 29.5 128 Z " /><path fill="rgb(3,0,0)" stroke="rgb(3,0,0)" stroke-width="1" opacity="0.0196078431372549" d="M 158.5 143 L 159.5 145 L 158.5 143 Z " /><path fill="rgb(3,0,0)" stroke="rgb(3,0,0)" stroke-width="1" opacity="0.0196078431372549" d="M 36 146 L 38 146.5 L 36.5 152 L 36 146 Z " /><path fill="rgb(3,0,0)" stroke="rgb(3,0,0)" stroke-width="1" opacity="0.0196078431372549" d="M 166.5 152 Q 169.3 151.4 168 157.5 L 167 157.5 L 166.5 152 Z " /><path fill="rgb(3,0,0)" stroke="rgb(3,0,0)" stroke-width="1" opacity="0.0196078431372549" d="M 159.5 163 L 162 163.5 L 159.5 164 L 159.5 163 Z " /><path fill="rgb(3,0,0)" stroke="rgb(3,0,0)" stroke-width="1" opacity="0.0196078431372549" d="M 169.5 174 Q 170.6 176.8 174 176 L 173.5 179 L 169.5 174 Z " /><path fill="rgb(3,0,0)" stroke="rgb(3,0,0)" stroke-width="1" opacity="0.0196078431372549" d="M 175.5 180 L 176.5 182 L 175.5 180 Z " /><path fill="rgb(3,0,0)" stroke="rgb(3,0,0)" stroke-width="1" opacity="0.0196078431372549" d="M 11.5 182 L 12.5 184 L 11.5 182 Z " /><path fill="rgb(3,0,0)" stroke="rgb(3,0,0)" stroke-width="1" opacity="0.0196078431372549" d="M 188.5 194 Q 193.8 192.3 192 197.5 L 188.5 194 Z " /><path fill="rgb(165,41,39)" stroke="rgb(165,41,39)" stroke-width="1" opacity="1" d="M 67.5 46 Q 70.1 45.3 69 48 Q 64.3 47 63 50.5 L 63.5 52 L 62.5 51 L 60 52.5 L 67.5 46 Z " /><path fill="rgb(165,41,39)" stroke="rgb(165,41,39)" stroke-width="1" opacity="1" d="M 68.5 52 L 69 54 L 65 56.5 L 65.5 58 Q 63.3 58.8 64 56.5 L 68.5 52 Z " /><path fill="rgb(165,41,39)" stroke="rgb(165,41,39)" stroke-width="1" opacity="1" d="M 59.5 54 L 58.5 56 L 59.5 54 Z " /><path fill="rgb(165,41,39)" stroke="rgb(165,41,39)" stroke-width="1" opacity="1" d="M 57.5 58 L 57 59.5 L 55.5 64 L 55 61.5 L 57.5 58 Z " /><path fill="rgb(165,41,39)" stroke="rgb(165,41,39)" stroke-width="1" opacity="1" d="M 62.5 60 L 63 61.5 L 56.5 70 L 59 66.5 L 62.5 60 Z " /><path fill="rgb(165,41,39)" stroke="rgb(165,41,39)" stroke-width="1" opacity="1" d="M 113.5 63 L 116 63.5 L 113.5 64 L 113.5 63 Z " /><path fill="rgb(165,41,39)" stroke="rgb(165,41,39)" stroke-width="1" opacity="1" d="M 55.5 65 Q 59.2 67.2 54 69.5 L 52 74 L 55 72.5 L 55.5 71 L 56 72.5 L 54 76 L 52 76 L 52 78 Q 49.3 76.9 50 79.5 L 49 79.5 L 50 76 Q 52.7 77.1 52 74.5 L 50.5 75 L 46 76 L 46 80 Q 48.7 78.9 48 81.5 L 44 84 L 42 87.5 L 44 88.5 L 42.5 89 L 40 88 Q 41.1 90.7 38.5 90 L 36 89.5 Q 38.3 88.3 35.5 87 L 32.5 89 L 33.5 87 L 38.5 85 L 40 85.5 L 41 83.5 L 39 80 L 41.5 79 L 43.5 82 L 45 79.5 L 44 76 Q 50.9 73.9 55 67.5 L 55.5 65 Z M 39 86 Q 36 88 39 89 Q 42 88 39 86 Z " /><path fill="rgb(165,41,39)" stroke="rgb(165,41,39)" stroke-width="1" opacity="1" d="M 169.5 75 L 172 76.5 L 171.5 79 L 171 77 Q 166.5 76.2 164.5 79 L 153.5 79 L 152.5 80 L 152.5 77 L 153.5 78 L 162.5 78 L 169.5 75 Z " /><path fill="rgb(165,41,39)" stroke="rgb(165,41,39)" stroke-width="1" opacity="1" d="M 64.5 80 L 63.5 82 L 64.5 80 Z " /><path fill="rgb(165,41,39)" stroke="rgb(165,41,39)" stroke-width="1" opacity="1" d="M 156.5 80 L 161 86.5 L 157 83.5 L 156.5 80 Z " /><path fill="rgb(165,41,39)" stroke="rgb(165,41,39)" stroke-width="1" opacity="1" d="M 171.5 80 L 172 83.5 L 170.5 86 L 170 84.5 L 171.5 80 Z " /><path fill="rgb(165,41,39)" stroke="rgb(165,41,39)" stroke-width="1" opacity="1" d="M 52 86 L 55 86.5 L 52 88 L 52 86 Z " /><path fill="rgb(165,41,39)" stroke="rgb(165,41,39)" stroke-width="1" opacity="1" d="M 71.5 86 L 72 87.5 L 69.5 91 L 69 88.5 L 71.5 86 Z " /><path fill="rgb(165,41,39)" stroke="rgb(165,41,39)" stroke-width="1" opacity="1" d="M 160.5 88 L 160 89.5 L 151.5 99 L 148.5 100 L 133.5 100 L 133.5 99 L 137.5 98 L 138.5 99 L 147.5 99 Q 154.7 97.2 158 91.5 Q 156.9 88.2 159.5 89 L 160.5 88 Z " /><path fill="rgb(165,41,39)" stroke="rgb(165,41,39)" stroke-width="1" opacity="1" d="M 30.5 89 Q 33.5 90.5 30.5 92 Q 27.9 91.2 29 94.5 L 28 95.5 L 27.5 105 L 26 100.5 L 28 91.5 L 30.5 89 Z " /><path fill="rgb(165,41,39)" stroke="rgb(165,41,39)" stroke-width="1" opacity="1" d="M 32 92 L 36 92.5 L 33.5 96 L 32 92 Z " /><path fill="rgb(165,41,39)" stroke="rgb(165,41,39)" stroke-width="1" opacity="1" d="M 94 92 L 96 92.5 L 94 93.5 L 94 92 Z " /><path fill="rgb(165,41,39)" stroke="rgb(165,41,39)" stroke-width="1" opacity="1" d="M 167.5 95 L 167 96.5 Q 165.5 100.9 168.5 100 L 173 102.5 L 171.5 103 L 166 99.5 Q 165.3 95.8 167.5 95 Z " /><path fill="rgb(165,41,39)" stroke="rgb(165,41,39)" stroke-width="1" opacity="1" d="M 65.5 96 L 66 100.5 L 65 100.5 L 65.5 96 Z " /><path fill="rgb(165,41,39)" stroke="rgb(165,41,39)" stroke-width="1" opacity="1" d="M 32.5 97 Q 35.5 98.5 32.5 100 L 32.5 97 Z " /><path fill="rgb(165,41,39)" stroke="rgb(165,41,39)" stroke-width="1" opacity="1" d="M 29.5 105 L 30 107.5 L 28 106.5 L 29.5 105 Z " /><path fill="rgb(165,41,39)" stroke="rgb(165,41,39)" stroke-width="1" opacity="1" d="M 70.5 108 L 70.5 111 Q 68.3 111.8 69 109.5 L 70.5 108 Z " /><path fill="rgb(165,41,39)" stroke="rgb(165,41,39)" stroke-width="1" opacity="1" d="M 80.5 110 L 81 114.5 L 80 114.5 L 80.5 110 Z " /><path fill="rgb(215,73,69)" stroke="rgb(215,73,69)" stroke-width="1" opacity="1" d="M 72.5 36 L 74 36.5 L 72 39.5 L 70.5 48 L 68.5 45 L 59 52.5 Q 54.4 57.9 54 67.5 L 49.5 73 L 38 80 L 40 83.5 L 28 90.5 L 26 97.5 L 26 103.5 L 30 109.5 L 28.5 112 L 26 108 Q 23.3 109.1 24 106.5 Q 19.3 101.7 21 90.5 L 29.5 80 L 49 70 L 49 61.5 L 55 49 Q 57.7 50.1 57 47.5 L 72.5 36 Z " /><path fill="rgb(215,73,69)" stroke="rgb(215,73,69)" stroke-width="1" opacity="1" d="M 92.5 56 L 120.5 56 L 125.5 57 L 136.5 61 L 152.5 72 L 155.5 72 L 156.5 71 L 167.5 71 Q 170.4 68.4 176.5 69 L 176 70.5 L 176 74.5 L 173.5 82 L 172 75 L 160.5 78 L 155.5 78 L 131.5 66 L 126.5 66 L 116.5 63 L 108.5 63 L 107.5 62 L 86.5 62 L 75.5 65 L 73 61.5 L 83.5 57 L 91.5 57 L 92.5 56 Z " /><path fill="rgb(215,73,69)" stroke="rgb(215,73,69)" stroke-width="1" opacity="1" d="M 66.5 80 L 68 80.5 L 68 87.5 L 68 89.5 L 64 99.5 L 67 108.5 L 76 119.5 L 74.5 120 L 64 109.5 L 60 96.5 Q 62.5 95 61 89.5 L 61 87.5 L 66.5 80 Z " /><path fill="rgb(215,73,69)" stroke="rgb(215,73,69)" stroke-width="1" opacity="1" d="M 81.5 83 L 83.5 83 L 92 91.5 L 104.5 105 L 106 105.5 L 104.5 106 Q 93.3 101.2 86 92.5 Q 84.6 85.9 81.5 83 Z " /><path fill="rgb(215,73,69)" stroke="rgb(215,73,69)" stroke-width="1" opacity="1" d="M 168.5 96 L 177 102.5 L 175.5 103 L 167 98.5 L 168.5 96 Z " /><path fill="rgb(215,73,69)" stroke="rgb(215,73,69)" stroke-width="1" opacity="1" d="M 65.5 120 L 66.5 122 L 65.5 120 Z " /><path fill="rgb(215,73,69)" stroke="rgb(215,73,69)" stroke-width="1" opacity="1" d="M 115.5 146 L 113.5 149 L 98 157.5 Q 99.5 161.9 96.5 161 L 89.5 159 L 81.5 163 L 84.5 159 L 101.5 150 L 115.5 146 Z " /><path fill="rgb(215,73,69)" stroke="rgb(215,73,69)" stroke-width="1" opacity="1" d="M 50.5 147 L 57 149 L 58 151.5 L 54 152 L 54 155.5 L 57 160.5 L 55.5 160 L 46 154 L 45 150.5 L 50.5 147 Z " /><path fill="rgb(215,73,69)" stroke="rgb(215,73,69)" stroke-width="1" opacity="1" d="M 12.5 158 L 14 158.5 L 9.5 161 L 10.5 159 L 12.5 158 Z " /><path fill="rgb(215,73,69)" stroke="rgb(215,73,69)" stroke-width="1" opacity="1" d="M 16.5 160 L 18.5 163 L 16.5 160 Z " /><path fill="rgb(215,73,69)" stroke="rgb(215,73,69)" stroke-width="1" opacity="1" d="M 11.5 162 L 15 163.5 L 13.5 163 Q 10.5 163.5 11.5 162 Z " /><path fill="rgb(215,73,69)" stroke="rgb(215,73,69)" stroke-width="1" opacity="1" d="M 105 174 Q 108.8 173.3 110 176.5 L 112.5 180 L 119 184.5 L 118 189.5 L 124.5 197 L 129 193.5 L 131 190.5 Q 131.8 186.3 137.5 187 L 153.5 193 L 155.5 191 L 159 194.5 L 161 200 L 143.5 200 L 137 198 L 136.5 200 L 128.5 200 L 125.5 198 L 121.5 200 L 120 197 Q 117.3 198.1 118 195.5 Q 109.4 186.4 105 174 Z " /><path fill="rgb(215,73,69)" stroke="rgb(215,73,69)" stroke-width="1" opacity="1" d="M 47.5 184 Q 50.5 185.5 47.5 187 L 46 186.5 L 48 185.5 L 47.5 184 Z " /><path fill="rgb(215,73,69)" stroke="rgb(215,73,69)" stroke-width="1" opacity="1" d="M 37.5 188 L 38 189.5 L 33.5 195 L 35 192.5 L 37.5 188 Z " /><path fill="rgb(215,73,69)" stroke="rgb(215,73,69)" stroke-width="1" opacity="1" d="M 36.5 197 L 38 199.5 L 36 198.5 L 36.5 197 Z " /><path fill="rgb(215,73,69)" stroke="rgb(215,73,69)" stroke-width="1" opacity="1" d="M 31.5 198 L 30.5 200 L 31.5 198 Z " /><path fill="rgb(170,49,49)" stroke="rgb(170,49,49)" stroke-width="1" opacity="1" d="M 67.5 45 L 70 46.5 L 69.5 50 L 69 46 L 66.5 47 L 67.5 45 Z " /><path fill="rgb(170,49,49)" stroke="rgb(170,49,49)" stroke-width="1" opacity="1" d="M 64.5 47 L 60 52.5 L 58.5 55 L 59 53.5 L 64.5 47 Z " /><path fill="rgb(170,49,49)" stroke="rgb(170,49,49)" stroke-width="1" opacity="1" d="M 67.5 54 Q 70.3 53.4 69 59.5 L 73 61 L 75.5 65 L 79.5 64 Q 81 66.5 82.5 63 L 84.5 64 L 86.5 62 L 107.5 62 L 115.5 64 L 117.5 64 L 131.5 66 L 155 77.5 L 153 78.5 L 156 79 Q 156.2 85 161 87.5 L 158 89 L 158 91.5 L 152.5 97 Q 147.8 100.3 138.5 99 L 136.5 98 L 132 99 L 130.5 96 L 126 96 L 126 102.5 L 129 109.5 L 128 112.5 L 129 115 L 115 111 L 114.5 109 L 112.5 109 Q 99.2 103.8 92 92.5 L 83.5 82 L 81 83.5 L 85 88.5 L 83.5 88 Q 80.2 86.9 81 89.5 L 79 92.5 L 79 105.5 L 82 110.5 L 80 110.5 L 80.5 115 L 81.5 113 L 83 121.5 L 85 124.5 L 83.5 124 L 74 117.5 L 70 111.5 Q 72.3 110.2 69.5 109 Q 68.3 111.2 67 108.5 L 65 101.5 L 66 96.5 Q 63.5 95 67 93.5 L 68.5 89 L 69.5 91 L 72 86.5 L 69.5 88 L 68 88 L 68 80.5 L 66.5 80 L 61.5 86 L 60 85.5 L 59.5 87 L 56.5 86 L 52 90.5 L 53 91.5 L 53 95.5 L 44 110.5 L 43 116 L 38 112.5 L 37 107.5 L 44 95.5 L 44 91 L 40 90 Q 38.9 87.3 41.5 88 L 44 84 L 48 81.5 L 52 76.5 L 51.5 75 L 54 76 L 64 58 L 66 57.5 Q 63.3 55.7 67.5 54 Z M 52 86 L 52 88 L 55 87 L 52 86 Z M 94 92 L 94 94 L 96 93 L 94 92 Z " /><path fill="rgb(170,49,49)" stroke="rgb(170,49,49)" stroke-width="1" opacity="1" d="M 57.5 56 L 58 57.5 L 56 58.5 L 57.5 56 Z " /><path fill="rgb(170,49,49)" stroke="rgb(170,49,49)" stroke-width="1" opacity="1" d="M 54.5 63 L 55 67.5 L 51 70.5 Q 55 69 54.5 63 Z " /><path fill="rgb(170,49,49)" stroke="rgb(170,49,49)" stroke-width="1" opacity="1" d="M 43.5 77 L 42.5 79 L 40.5 80 L 41.5 78 L 43.5 77 Z " /><path fill="rgb(170,49,49)" stroke="rgb(170,49,49)" stroke-width="1" opacity="1" d="M 172.5 78 L 173 82.5 L 172 82.5 L 172.5 78 Z " /><path fill="rgb(170,49,49)" stroke="rgb(170,49,49)" stroke-width="1" opacity="1" d="M 38.5 80 L 41 83.5 L 38.5 85 L 38.5 84 L 40 83.5 Q 37 82.5 38.5 80 Z " /><path fill="rgb(170,49,49)" stroke="rgb(170,49,49)" stroke-width="1" opacity="1" d="M 171.5 84 L 172 85.5 L 168.5 92 L 168 90.5 L 171.5 84 Z " /><path fill="rgb(170,49,49)" stroke="rgb(170,49,49)" stroke-width="1" opacity="1" d="M 32.5 87 L 31.5 89 L 28.5 91 L 30.5 88 L 32.5 87 Z " /><path fill="rgb(170,49,49)" stroke="rgb(170,49,49)" stroke-width="1" opacity="1" d="M 38.5 90 L 37 92.5 L 37 94.5 L 32.5 99 L 33 97.5 L 38.5 90 Z " /><path fill="rgb(170,49,49)" stroke="rgb(170,49,49)" stroke-width="1" opacity="1" d="M 20.5 93 L 21 96.5 L 20 96.5 L 20.5 93 Z " /><path fill="rgb(170,49,49)" stroke="rgb(170,49,49)" stroke-width="1" opacity="1" d="M 26.5 97 L 27 99.5 L 26 99.5 L 26.5 97 Z " /><path fill="rgb(170,49,49)" stroke="rgb(170,49,49)" stroke-width="1" opacity="1" d="M 171.5 101 L 175 102.5 L 173.5 103 L 171.5 101 Z " /><path fill="rgb(170,49,49)" stroke="rgb(170,49,49)" stroke-width="1" opacity="1" d="M 100.5 156 L 100 157.5 L 99.5 159 L 99 157.5 L 100.5 156 Z " /><path fill="rgb(170,49,49)" stroke="rgb(170,49,49)" stroke-width="1" opacity="1" d="M 111.5 178 L 119 182.5 L 117.5 183 Q 112.3 181.3 111.5 178 Z " /><path fill="rgb(170,49,49)" stroke="rgb(170,49,49)" stroke-width="1" opacity="1" d="M 122.5 194 L 123.5 196 L 122.5 194 Z " /><path fill="rgb(151,39,38)" stroke="rgb(151,39,38)" stroke-width="1" opacity="1" d="M 64.5 40 L 63.5 42 L 64.5 40 Z " /><path fill="rgb(151,39,38)" stroke="rgb(151,39,38)" stroke-width="1" opacity="1" d="M 65.5 48 Q 69.9 46.5 69 49.5 L 70 53.5 L 69 53.5 L 68.5 52 Q 63 53.6 64 60 Q 61.3 58.9 62 61.5 L 53.5 74 L 50 76.5 L 49 80 Q 44.1 81.6 46 76 L 52 73.5 L 57 66.5 Q 53.5 65 56 63.5 Q 57.7 52.7 65.5 48 Z " /><path fill="rgb(151,39,38)" stroke="rgb(151,39,38)" stroke-width="1" opacity="1" d="M 167.5 77 Q 171.9 75.5 171 78.5 L 171 80.5 L 170 88 Q 166.5 86.9 168 94.5 Q 165.3 95.3 166 99.5 L 174.5 104 L 176 103.5 L 173 105 L 171.5 108 L 164 112.5 L 161.5 116 L 152 109 L 151.5 107 Q 150 109.5 148.5 106 L 141.5 106 L 136.5 110 L 132 99.5 L 133.5 100 L 148.5 100 L 151.5 99 L 160 90.5 L 161 86.5 L 156 79.5 L 164.5 79 L 167.5 77 Z " /><path fill="rgb(151,39,38)" stroke="rgb(151,39,38)" stroke-width="1" opacity="1" d="M 43.5 78 L 45 80.5 L 42.5 84 L 41 81.5 L 43.5 78 Z " /><path fill="rgb(151,39,38)" stroke="rgb(151,39,38)" stroke-width="1" opacity="1" d="M 39.5 85 L 40 87.5 L 38 89.5 L 38.5 91 L 41.5 90 L 44 91 L 44 95.5 L 38 104.5 L 37 111.5 L 43 116 L 42 121 L 35 118.5 L 36 106.5 Q 38.6 105.1 38 100.5 L 42 95.5 L 42 93 Q 36.8 90.9 38 95.5 L 36.5 100 Q 35.3 97.8 34 100.5 Q 35.5 104.9 32.5 104 L 30.5 108 L 29.5 105 L 28 105.5 Q 27 96.5 29 92 L 32 90.5 L 31.5 89 L 35.5 87 L 36.5 90 L 39.5 85 Z M 38 91 L 32 92 L 33 95 L 32 98 L 33 101 L 38 93 L 38 91 Z " /><path fill="rgb(151,39,38)" stroke="rgb(151,39,38)" stroke-width="1" opacity="1" d="M 56.5 86 L 60 87.5 L 58.5 87 Q 55.5 87.5 56.5 86 Z " /><path fill="rgb(151,39,38)" stroke="rgb(151,39,38)" stroke-width="1" opacity="1" d="M 81 88 L 85 89.5 L 83.5 89 L 81.5 90 L 81 88 Z " /><path fill="rgb(151,39,38)" stroke="rgb(151,39,38)" stroke-width="1" opacity="1" d="M 86.5 93 L 87.5 95 L 86.5 93 Z " /><path fill="rgb(151,39,38)" stroke="rgb(151,39,38)" stroke-width="1" opacity="1" d="M 126 96 Q 130.6 94.8 132 97.5 L 130.5 97 L 126.5 98 L 126 96 Z " /><path fill="rgb(151,39,38)" stroke="rgb(151,39,38)" stroke-width="1" opacity="1" d="M 126.5 100 L 128 103.5 L 126 102.5 L 126.5 100 Z " /><path fill="rgb(151,39,38)" stroke="rgb(151,39,38)" stroke-width="1" opacity="1" d="M 128.5 110 Q 131.1 109.2 130 112.5 L 131 114.5 L 130 114.5 Q 130.8 112.3 128.5 113 L 128.5 110 Z " /><path fill="rgb(151,39,38)" stroke="rgb(151,39,38)" stroke-width="1" opacity="1" d="M 123.5 194 L 126 195.5 L 124.5 196 L 123.5 194 Z " /><path fill="rgb(106,45,38)" stroke="rgb(106,45,38)" stroke-width="1" opacity="1" d="M 61.5 42 L 54.5 50 L 61.5 42 Z " /><path fill="rgb(106,45,38)" stroke="rgb(106,45,38)" stroke-width="1" opacity="1" d="M 70.5 50 L 71 58.5 L 72 59.5 L 70 58.5 L 70.5 50 Z " /><path fill="rgb(106,45,38)" stroke="rgb(106,45,38)" stroke-width="1" opacity="1" d="M 116.5 55 L 119 55.5 L 116.5 56 L 116.5 55 Z " /><path fill="rgb(106,45,38)" stroke="rgb(106,45,38)" stroke-width="1" opacity="1" d="M 56.5 87 L 59 87.5 L 55 89.5 L 54.5 91 L 54 89.5 L 56.5 87 Z " /><path fill="rgb(106,45,38)" stroke="rgb(106,45,38)" stroke-width="1" opacity="1" d="M 82.5 89 L 86 91.5 L 83 91.5 L 82.5 90 Q 79.9 91.4 80.5 96 L 80 91.5 L 82.5 89 Z " /><path fill="rgb(106,45,38)" stroke="rgb(106,45,38)" stroke-width="1" opacity="1" d="M 38 93 Q 43.2 90.9 42 95.5 L 38 100.5 Q 38.6 105.1 36 106.5 L 34.5 119 L 33 115.5 L 35 110.5 L 32.5 105 L 31.5 107 L 31 105.5 L 34 104 Q 33 100.2 35.5 99 L 37 99.5 L 38 93 Z " /><path fill="rgb(106,45,38)" stroke="rgb(106,45,38)" stroke-width="1" opacity="1" d="M 53.5 96 L 53 97.5 L 50.5 101 L 52 98.5 L 53.5 96 Z " /><path fill="rgb(106,45,38)" stroke="rgb(106,45,38)" stroke-width="1" opacity="1" d="M 127.5 97 Q 131.3 96.3 132 98.5 L 136 110.5 L 134 109.5 L 133 103.5 L 129.5 98 L 126.5 100 L 126 98.5 L 127.5 97 Z " /><path fill="rgb(106,45,38)" stroke="rgb(106,45,38)" stroke-width="1" opacity="1" d="M 173.5 98 L 174.5 100 L 173.5 98 Z " /><path fill="rgb(106,45,38)" stroke="rgb(106,45,38)" stroke-width="1" opacity="1" d="M 127.5 101 L 132 113.5 L 130 112.5 L 127.5 101 Z " /><path fill="rgb(106,45,38)" stroke="rgb(106,45,38)" stroke-width="1" opacity="1" d="M 98.5 102 L 99.5 104 L 98.5 102 Z " /><path fill="rgb(106,45,38)" stroke="rgb(106,45,38)" stroke-width="1" opacity="1" d="M 55.5 104 L 54.5 106 L 55.5 104 Z " /><path fill="rgb(106,45,38)" stroke="rgb(106,45,38)" stroke-width="1" opacity="1" d="M 174.5 105 L 172.5 108 L 174.5 105 Z " /><path fill="rgb(106,45,38)" stroke="rgb(106,45,38)" stroke-width="1" opacity="1" d="M 141.5 106 L 143 106.5 L 140.5 108 L 141.5 106 Z " /><path fill="rgb(106,45,38)" stroke="rgb(106,45,38)" stroke-width="1" opacity="1" d="M 146.5 106 L 150 107.5 L 148.5 107 Q 145.5 107.5 146.5 106 Z " /><path fill="rgb(106,45,38)" stroke="rgb(106,45,38)" stroke-width="1" opacity="1" d="M 30.5 108 L 31 110.5 L 30 110.5 L 30.5 108 Z " /><path fill="rgb(106,45,38)" stroke="rgb(106,45,38)" stroke-width="1" opacity="1" d="M 138.5 108 L 137.5 110 L 138.5 108 Z " /><path fill="rgb(106,45,38)" stroke="rgb(106,45,38)" stroke-width="1" opacity="1" d="M 170.5 108 L 169.5 110 L 170.5 108 Z " /><path fill="rgb(106,45,38)" stroke="rgb(106,45,38)" stroke-width="1" opacity="1" d="M 151.5 109 L 152.5 111 L 151.5 109 Z " /><path fill="rgb(106,45,38)" stroke="rgb(106,45,38)" stroke-width="1" opacity="1" d="M 64.5 110 L 65.5 112 L 64.5 110 Z " /><path fill="rgb(106,45,38)" stroke="rgb(106,45,38)" stroke-width="1" opacity="1" d="M 166.5 110 L 168 110.5 L 166 111 L 161.5 117 L 164 113.5 L 166.5 110 Z " /><path fill="rgb(106,45,38)" stroke="rgb(106,45,38)" stroke-width="1" opacity="1" d="M 82.5 112 L 83 114.5 L 82 114.5 L 82.5 112 Z " /><path fill="rgb(106,45,38)" stroke="rgb(106,45,38)" stroke-width="1" opacity="1" d="M 62.5 116 L 67.5 122 L 62.5 116 Z " /><path fill="rgb(106,45,38)" stroke="rgb(106,45,38)" stroke-width="1" opacity="1" d="M 108.5 119 L 113.5 120 Q 114.8 117.8 116 120.5 L 117 122.5 L 114 128 L 106.5 131 L 99 127.5 L 100.5 125 Q 102.8 125.8 102 123.5 L 108.5 119 Z " /><path fill="rgb(106,45,38)" stroke="rgb(106,45,38)" stroke-width="1" opacity="1" d="M 55.5 122 L 60.5 122 Q 61.3 124.8 65.5 124 L 70 128.5 L 67.5 132 L 60.5 133 L 55 125.5 L 56 123.5 L 55.5 122 Z " /><path fill="rgb(106,45,38)" stroke="rgb(106,45,38)" stroke-width="1" opacity="1" d="M 80.5 123 L 84 125.5 L 82.5 125 L 80.5 123 Z " /><path fill="rgb(106,45,38)" stroke="rgb(106,45,38)" stroke-width="1" opacity="1" d="M 38.5 128 L 39.5 130 L 38.5 128 Z " /><path fill="rgb(106,45,38)" stroke="rgb(106,45,38)" stroke-width="1" opacity="1" d="M 153.5 133 L 154.5 135 L 153.5 133 Z " /><path fill="rgb(106,45,38)" stroke="rgb(106,45,38)" stroke-width="1" opacity="1" d="M 153.5 136 L 154 137.5 L 150.5 142 L 151 140.5 L 153.5 136 Z " /><path fill="rgb(106,45,38)" stroke="rgb(106,45,38)" stroke-width="1" opacity="1" d="M 148.5 143 L 149 144.5 Q 146.3 145.6 147 149 L 153.5 148 L 154.5 150 L 152.5 149 L 147.5 152 L 146 146.5 L 148.5 143 Z " /><path fill="rgb(106,45,38)" stroke="rgb(106,45,38)" stroke-width="1" opacity="1" d="M 59 150 L 62 150.5 L 59.5 152 L 59 150 Z " /><path fill="rgb(106,45,38)" stroke="rgb(106,45,38)" stroke-width="1" opacity="1" d="M 63.5 151 L 66 151.5 L 63.5 152 L 63.5 151 Z " /><path fill="rgb(106,45,38)" stroke="rgb(106,45,38)" stroke-width="1" opacity="1" d="M 68.5 152 Q 72.3 151.3 73 153.5 L 75 157.5 L 73 156.5 L 72 153 Q 67.6 154 68.5 152 Z " /><path fill="rgb(106,45,38)" stroke="rgb(106,45,38)" stroke-width="1" opacity="1" d="M 79 152 L 84 152.5 L 79 154 L 79 152 Z " /><path fill="rgb(106,45,38)" stroke="rgb(106,45,38)" stroke-width="1" opacity="1" d="M 157.5 152 Q 160.8 153.2 160 157 L 153.5 158 L 153.5 157 L 159 156 L 157.5 152 Z " /><path fill="rgb(106,45,38)" stroke="rgb(106,45,38)" stroke-width="1" opacity="1" d="M 85.5 157 L 87 157.5 L 84.5 159 L 85.5 157 Z " /><path fill="rgb(106,45,38)" stroke="rgb(106,45,38)" stroke-width="1" opacity="1" d="M 19.5 158 L 21.5 161 L 19.5 158 Z " /><path fill="rgb(106,45,38)" stroke="rgb(106,45,38)" stroke-width="1" opacity="1" d="M 146.5 158 L 152 158.5 L 146.5 159 L 146.5 158 Z " /><path fill="rgb(106,45,38)" stroke="rgb(106,45,38)" stroke-width="1" opacity="1" d="M 75.5 159 L 77 162.5 L 75 161.5 L 75.5 159 Z " /><path fill="rgb(106,45,38)" stroke="rgb(106,45,38)" stroke-width="1" opacity="1" d="M 81.5 160 L 80.5 162 L 81.5 160 Z " /><path fill="rgb(106,45,38)" stroke="rgb(106,45,38)" stroke-width="1" opacity="1" d="M 132.5 160 L 136 160.5 L 132.5 161 L 132.5 160 Z " /><path fill="rgb(106,45,38)" stroke="rgb(106,45,38)" stroke-width="1" opacity="1" d="M 124.5 161 L 128 161.5 L 124.5 162 L 124.5 161 Z " /><path fill="rgb(106,45,38)" stroke="rgb(106,45,38)" stroke-width="1" opacity="1" d="M 109.5 163 L 112 163.5 L 109.5 164 L 109.5 163 Z " /><path fill="rgb(106,45,38)" stroke="rgb(106,45,38)" stroke-width="1" opacity="1" d="M 10.5 165 L 11.5 167 L 10.5 165 Z " /><path fill="rgb(106,45,38)" stroke="rgb(106,45,38)" stroke-width="1" opacity="1" d="M 98.5 165 L 101 165.5 L 98.5 166 L 98.5 165 Z " /><path fill="rgb(106,45,38)" stroke="rgb(106,45,38)" stroke-width="1" opacity="1" d="M 142.5 165 L 148 165.5 L 141.5 167 L 133.5 167 L 133.5 166 L 141.5 166 L 142.5 165 Z " /><path fill="rgb(106,45,38)" stroke="rgb(106,45,38)" stroke-width="1" opacity="1" d="M 150.5 165 L 151.5 167 L 150.5 165 Z " /><path fill="rgb(106,45,38)" stroke="rgb(106,45,38)" stroke-width="1" opacity="1" d="M 66.5 166 L 69 167.5 L 67.5 168 L 66.5 166 Z " /><path fill="rgb(106,45,38)" stroke="rgb(106,45,38)" stroke-width="1" opacity="1" d="M 93.5 166 L 96 166.5 L 93.5 167 L 93.5 166 Z " /><path fill="rgb(106,45,38)" stroke="rgb(106,45,38)" stroke-width="1" opacity="1" d="M 89.5 167 L 92 167.5 L 89.5 168 L 89.5 167 Z " /><path fill="rgb(106,45,38)" stroke="rgb(106,45,38)" stroke-width="1" opacity="1" d="M 124.5 167 L 131 167.5 L 124.5 168 L 124.5 167 Z " /><path fill="rgb(106,45,38)" stroke="rgb(106,45,38)" stroke-width="1" opacity="1" d="M 117.5 168 L 122 168.5 L 117.5 169 L 117.5 168 Z " /><path fill="rgb(106,45,38)" stroke="rgb(106,45,38)" stroke-width="1" opacity="1" d="M 110.5 169 L 115 169.5 L 110.5 170 L 110.5 169 Z " /><path fill="rgb(106,45,38)" stroke="rgb(106,45,38)" stroke-width="1" opacity="1" d="M 77.5 170 L 79 170.5 L 75.5 172 L 75.5 171 L 77.5 170 Z " /><path fill="rgb(106,45,38)" stroke="rgb(106,45,38)" stroke-width="1" opacity="1" d="M 104.5 170 L 109 170.5 L 103.5 172 L 104.5 170 Z " /><path fill="rgb(106,45,38)" stroke="rgb(106,45,38)" stroke-width="1" opacity="1" d="M 69.5 175 L 71 177.5 L 70 177.5 L 69.5 175 Z " /><path fill="rgb(106,45,38)" stroke="rgb(106,45,38)" stroke-width="1" opacity="1" d="M 96.5 177 L 97 179.5 L 96 179.5 L 96.5 177 Z " /><path fill="rgb(106,45,38)" stroke="rgb(106,45,38)" stroke-width="1" opacity="1" d="M 33.5 179 L 34 182.5 L 33 182.5 L 33.5 179 Z " /><path fill="rgb(106,45,38)" stroke="rgb(106,45,38)" stroke-width="1" opacity="1" d="M 39.5 179 L 47.5 181 L 51 180 L 51 184 L 43 184 L 43 188.5 L 44 191 L 46.5 190 L 50 191.5 L 44.5 192 L 42 189.5 Q 43.3 184.8 41 183.5 L 41.5 182 L 39.5 183 L 38 180.5 L 39.5 179 Z " /><path fill="rgb(106,45,38)" stroke="rgb(106,45,38)" stroke-width="1" opacity="1" d="M 72.5 180 L 73.5 182 L 72.5 180 Z " /><path fill="rgb(106,45,38)" stroke="rgb(106,45,38)" stroke-width="1" opacity="1" d="M 101.5 184 L 102.5 186 Q 99.7 186.7 101.5 184 Z " /><path fill="rgb(106,45,38)" stroke="rgb(106,45,38)" stroke-width="1" opacity="1" d="M 98 185 L 102 187 L 102 190.5 L 101 190.5 L 98 185 Z " /><path fill="rgb(106,45,38)" stroke="rgb(106,45,38)" stroke-width="1" opacity="1" d="M 49.5 187 Q 52.1 186.2 51 189.5 L 50 189.5 L 49.5 188 L 48 188.5 L 49.5 187 Z " /><path fill="rgb(106,45,38)" stroke="rgb(106,45,38)" stroke-width="1" opacity="1" d="M 104.5 189 L 105.5 191 L 104.5 189 Z " /><path fill="rgb(106,45,38)" stroke="rgb(106,45,38)" stroke-width="1" opacity="1" d="M 76.5 192 L 79 192.5 L 76.5 193 L 76.5 192 Z " /><path fill="rgb(106,45,38)" stroke="rgb(106,45,38)" stroke-width="1" opacity="1" d="M 102.5 192 L 106 192.5 L 102.5 193 L 102.5 192 Z " /><path fill="rgb(106,45,38)" stroke="rgb(106,45,38)" stroke-width="1" opacity="1" d="M 178.5 192 L 180.5 195 L 178.5 192 Z " /><path fill="rgb(106,45,38)" stroke="rgb(106,45,38)" stroke-width="1" opacity="1" d="M 40 194 Q 43.1 193.3 42.5 196 L 49.5 196 L 49.5 197 L 41.5 197 L 40 195.5 L 40 194 Z " /><path fill="rgb(106,45,38)" stroke="rgb(106,45,38)" stroke-width="1" opacity="1" d="M 116.5 195 L 119.5 199 L 116.5 195 Z " /><path fill="rgb(153,60,56)" stroke="rgb(153,60,56)" stroke-width="1" opacity="1" d="M 69.5 37 L 68.5 39 L 69.5 37 Z " /><path fill="rgb(153,60,56)" stroke="rgb(153,60,56)" stroke-width="1" opacity="1" d="M 66.5 39 L 65.5 41 L 66.5 39 Z " /><path fill="rgb(153,60,56)" stroke="rgb(153,60,56)" stroke-width="1" opacity="1" d="M 54.5 50 L 53.5 52 L 54.5 50 Z " /><path fill="rgb(153,60,56)" stroke="rgb(153,60,56)" stroke-width="1" opacity="1" d="M 69.5 54 L 71 60.5 L 69 59.5 L 69.5 54 Z " /><path fill="rgb(153,60,56)" stroke="rgb(153,60,56)" stroke-width="1" opacity="1" d="M 96.5 55 L 116 55.5 L 96.5 56 L 96.5 55 Z " /><path fill="rgb(153,60,56)" stroke="rgb(153,60,56)" stroke-width="1" opacity="1" d="M 88.5 56 L 92 56.5 L 88.5 57 L 88.5 56 Z " /><path fill="rgb(153,60,56)" stroke="rgb(153,60,56)" stroke-width="1" opacity="1" d="M 143.5 64 L 144.5 66 L 143.5 64 Z " /><path fill="rgb(153,60,56)" stroke="rgb(153,60,56)" stroke-width="1" opacity="1" d="M 147.5 67 L 148.5 69 L 147.5 67 Z " /><path fill="rgb(153,60,56)" stroke="rgb(153,60,56)" stroke-width="1" opacity="1" d="M 176.5 70 L 177 72.5 L 176 72.5 L 176.5 70 Z " /><path fill="rgb(153,60,56)" stroke="rgb(153,60,56)" stroke-width="1" opacity="1" d="M 152.5 71 L 156 71.5 L 152.5 72 L 152.5 71 Z " /><path fill="rgb(153,60,56)" stroke="rgb(153,60,56)" stroke-width="1" opacity="1" d="M 31.5 78 L 30.5 80 L 31.5 78 Z " /><path fill="rgb(153,60,56)" stroke="rgb(153,60,56)" stroke-width="1" opacity="1" d="M 55.5 87 L 54 89.5 L 54 95.5 L 47.5 105 L 48 103.5 L 53 95.5 Q 51.5 88.5 55.5 87 Z " /><path fill="rgb(153,60,56)" stroke="rgb(153,60,56)" stroke-width="1" opacity="1" d="M 171.5 87 L 171 88.5 L 168.5 96 L 168 92.5 L 171.5 87 Z " /><path fill="rgb(153,60,56)" stroke="rgb(153,60,56)" stroke-width="1" opacity="1" d="M 60.5 92 L 61 95.5 L 60 95.5 L 60.5 92 Z " /><path fill="rgb(153,60,56)" stroke="rgb(153,60,56)" stroke-width="1" opacity="1" d="M 79.5 92 L 81 108.5 L 80 108.5 Q 77.2 102.2 79.5 92 Z " /><path fill="rgb(153,60,56)" stroke="rgb(153,60,56)" stroke-width="1" opacity="1" d="M 88.5 95 L 89.5 97 L 88.5 95 Z " /><path fill="rgb(153,60,56)" stroke="rgb(153,60,56)" stroke-width="1" opacity="1" d="M 92.5 98 L 93.5 100 L 92.5 98 Z " /><path fill="rgb(153,60,56)" stroke="rgb(153,60,56)" stroke-width="1" opacity="1" d="M 176.5 101 Q 179.5 102.5 176.5 104 L 176.5 101 Z " /><path fill="rgb(153,60,56)" stroke="rgb(153,60,56)" stroke-width="1" opacity="1" d="M 46.5 106 L 47 107.5 L 43.5 117 L 43 113.5 L 46.5 106 Z " /><path fill="rgb(153,60,56)" stroke="rgb(153,60,56)" stroke-width="1" opacity="1" d="M 105.5 106 L 115 110.5 L 113.5 111 L 105.5 107 L 105.5 106 Z " /><path fill="rgb(153,60,56)" stroke="rgb(153,60,56)" stroke-width="1" opacity="1" d="M 151.5 107 L 152 109 L 158 113.5 Q 157.3 115.8 159.5 115 Q 162.3 116.3 160 117.5 Q 160.8 119.8 158.5 119 L 156 120.5 L 155 112.5 L 151 108.5 L 151.5 107 Z " /><path fill="rgb(153,60,56)" stroke="rgb(153,60,56)" stroke-width="1" opacity="1" d="M 25.5 108 L 27 110.5 L 25 109.5 L 25.5 108 Z " /><path fill="rgb(153,60,56)" stroke="rgb(153,60,56)" stroke-width="1" opacity="1" d="M 116.5 111 L 120 112.5 L 118.5 113 L 116.5 111 Z " /><path fill="rgb(153,60,56)" stroke="rgb(153,60,56)" stroke-width="1" opacity="1" d="M 121.5 113 L 126 114.5 L 123.5 115 L 121.5 113 Z " /><path fill="rgb(153,60,56)" stroke="rgb(153,60,56)" stroke-width="1" opacity="1" d="M 129.5 113 L 131 115.5 L 128.5 116 L 129 114.5 L 129.5 113 Z " /><path fill="rgb(153,60,56)" stroke="rgb(153,60,56)" stroke-width="1" opacity="1" d="M 68.5 114 L 71.5 118 L 68.5 114 Z " /><path fill="rgb(153,60,56)" stroke="rgb(153,60,56)" stroke-width="1" opacity="1" d="M 83.5 118 L 85 122.5 L 83 121.5 L 83.5 118 Z " /><path fill="rgb(153,60,56)" stroke="rgb(153,60,56)" stroke-width="1" opacity="1" d="M 35.5 119 L 43 122.5 L 44 131 L 36 125.5 L 35.5 119 Z " /><path fill="rgb(153,60,56)" stroke="rgb(153,60,56)" stroke-width="1" opacity="1" d="M 76.5 120 L 80 122.5 L 78.5 122 L 76.5 120 Z " /><path fill="rgb(153,60,56)" stroke="rgb(153,60,56)" stroke-width="1" opacity="1" d="M 102.5 122 L 99.5 126 L 102.5 122 Z " /><path fill="rgb(153,60,56)" stroke="rgb(153,60,56)" stroke-width="1" opacity="1" d="M 115.5 126 L 114.5 128 L 115.5 126 Z " /><path fill="rgb(153,60,56)" stroke="rgb(153,60,56)" stroke-width="1" opacity="1" d="M 99.5 128 L 100.5 130 L 99.5 128 Z " /><path fill="rgb(153,60,56)" stroke="rgb(153,60,56)" stroke-width="1" opacity="1" d="M 58.5 131 L 59.5 133 L 58.5 131 Z " /><path fill="rgb(153,60,56)" stroke="rgb(153,60,56)" stroke-width="1" opacity="1" d="M 96.5 131 L 97.5 133 L 96.5 131 Z " /><path fill="rgb(153,60,56)" stroke="rgb(153,60,56)" stroke-width="1" opacity="1" d="M 62.5 133 L 66 133.5 L 62.5 134 L 62.5 133 Z " /><path fill="rgb(153,60,56)" stroke="rgb(153,60,56)" stroke-width="1" opacity="1" d="M 150.5 133 L 153 135.5 L 147.5 141 L 145.5 141 L 137 148.5 L 143 159 L 107.5 163 L 83.5 168 L 80.5 170 L 78.5 170 L 72.5 170 L 67.5 166 L 57 162 L 54 155.5 L 54 152 L 58 151.5 L 57.5 150 Q 60.5 151.5 57.5 153 L 55 153.5 L 57.5 158 Q 60.5 158.7 59 155 L 63.5 155 L 65.5 157 L 72 158 Q 70.9 160.7 73.5 160 Q 74.3 163.7 79.5 163 L 84 159.5 L 82.5 162 L 84.5 161 Q 86 163.5 87.5 160 L 91.5 159 L 97.5 162 Q 96.9 157.4 99.5 156 L 101 156.5 Q 100.3 154.3 102.5 155 L 110.5 150 L 114 150 L 115 147.5 L 114.5 146 L 116.5 146 L 124.5 144 L 150.5 133 Z " /><path fill="rgb(153,60,56)" stroke="rgb(153,60,56)" stroke-width="1" opacity="1" d="M 46.5 148 L 45 150.5 L 46 152.5 L 44 151.5 L 46.5 148 Z " /><path fill="rgb(153,60,56)" stroke="rgb(153,60,56)" stroke-width="1" opacity="1" d="M 47.5 154 L 48.5 156 L 47.5 154 Z " /><path fill="rgb(153,60,56)" stroke="rgb(153,60,56)" stroke-width="1" opacity="1" d="M 50.5 156 L 52.5 159 L 50.5 156 Z " /><path fill="rgb(153,60,56)" stroke="rgb(153,60,56)" stroke-width="1" opacity="1" d="M 14.5 158 L 18.5 163 L 20 163.5 Q 15.8 163.3 14.5 166 L 15 164.5 L 13.5 162 L 11 162 Q 12.1 164.7 9.5 164 L 8 161 Q 12.5 161.2 14.5 158 Z " /><path fill="rgb(153,60,56)" stroke="rgb(153,60,56)" stroke-width="1" opacity="1" d="M 17.5 171 Q 23.4 169.3 22 173 L 15 175 L 17.5 171 Z " /><path fill="rgb(153,60,56)" stroke="rgb(153,60,56)" stroke-width="1" opacity="1" d="M 61.5 172 L 68 175.5 L 64 181.5 L 64 187 Q 67 186 66 189 L 62.5 190 L 58 186.5 L 59 176.5 L 61.5 172 Z " /><path fill="rgb(153,60,56)" stroke="rgb(153,60,56)" stroke-width="1" opacity="1" d="M 105.5 173 L 109.5 174 L 134.5 174 L 143.5 176 L 150 181.5 Q 149.3 183.8 151.5 183 L 155.5 189 L 159 188 L 162.5 183 L 168.5 184 L 175 189.5 L 183 200 L 170.5 194 L 165.5 193 L 161.5 200 L 155.5 191 L 151.5 193 L 140.5 188 L 134.5 187 L 131 192 Q 128.3 190.9 129 193.5 L 124.5 197 L 124.5 196 L 126 195.5 L 121 193.5 L 121.5 192 Q 118.2 193.1 119 190.5 L 118 185.5 L 118.5 182 L 115 181 Q 116.1 178.3 113.5 179 L 110 178 Q 111.5 174.2 108.5 175 L 105.5 174 L 104 174.5 L 105.5 173 Z " /><path fill="rgb(153,60,56)" stroke="rgb(153,60,56)" stroke-width="1" opacity="1" d="M 42.5 178 L 48 178.5 L 42.5 179 L 42.5 178 Z " /><path fill="rgb(153,60,56)" stroke="rgb(153,60,56)" stroke-width="1" opacity="1" d="M 44.5 184 L 47.5 185 L 50 184 L 50 187 L 48 187 Q 49.5 190.7 46.5 190 L 44 191 L 43 185.5 L 44.5 184 Z " /><path fill="rgb(153,60,56)" stroke="rgb(153,60,56)" stroke-width="1" opacity="1" d="M 37.5 190 Q 40.1 189.2 39 192.5 L 41 196.5 L 38.5 199 L 36 197.5 L 37 199.5 L 31.5 200 L 32 198.5 L 37.5 190 Z " /><path fill="rgb(153,60,56)" stroke="rgb(153,60,56)" stroke-width="1" opacity="1" d="M 113.5 190 L 114.5 192 L 113.5 190 Z " /><path fill="rgb(153,60,56)" stroke="rgb(153,60,56)" stroke-width="1" opacity="1" d="M 115.5 193 L 117.5 196 L 115.5 193 Z " /><path fill="rgb(153,60,56)" stroke="rgb(153,60,56)" stroke-width="1" opacity="1" d="M 42.5 197 L 46 197.5 L 42.5 198 L 42.5 197 Z " /><path fill="rgb(153,60,56)" stroke="rgb(153,60,56)" stroke-width="1" opacity="1" d="M 64 197 L 67 197.5 L 65 198.5 L 67 199.5 L 63.5 200 L 64 198.5 L 64 197 Z " /><path fill="rgb(153,60,56)" stroke="rgb(153,60,56)" stroke-width="1" opacity="1" d="M 108.5 198 L 112 199.5 L 106.5 200 L 106.5 199 L 108.5 198 Z " /><path fill="rgb(153,60,56)" stroke="rgb(153,60,56)" stroke-width="1" opacity="1" d="M 137 198 L 143 199.5 L 137 200 L 137 198 Z " /><path fill="rgb(153,60,56)" stroke="rgb(153,60,56)" stroke-width="1" opacity="1" d="M 92.5 199 L 96 199.5 L 92.5 200 L 92.5 199 Z " /><path fill="rgb(221,167,143)" stroke="rgb(221,167,143)" stroke-width="1" opacity="1" d="M 87.5 102 L 96.5 109 L 112 117.5 L 106.5 119 L 99 124 L 98 127.5 Q 100.8 132.8 110.5 131 L 116 126.5 L 117 120 L 128.5 123 L 138 123 Q 136.5 114.9 142.5 113 Q 148 112 149 115.5 L 150 119.5 L 144.5 128 L 122.5 138 L 105.5 143 L 86.5 145 L 85.5 146 L 68.5 146 L 56.5 143 L 51 139.5 L 50 133.5 Q 52.5 132 51 126.5 L 49 118.5 L 53 108.5 L 55.5 106 Q 59 116 66.5 122 L 82.5 132 L 87.5 134 L 99 135 L 95 129.5 L 90 118.5 L 87 107.5 L 87.5 102 Z M 55 121 L 56 130 L 62 134 L 68 133 Q 71 132 70 126 L 61 121 L 55 121 Z " /><path fill="rgb(221,167,143)" stroke="rgb(221,167,143)" stroke-width="1" opacity="1" d="M 13.5 153 L 17 155.5 L 23 162.5 L 20.5 164 L 14.5 158 L 12.5 158 L 8.5 161 L 8 159.5 L 13.5 153 Z " /><path fill="rgb(221,167,143)" stroke="rgb(221,167,143)" stroke-width="1" opacity="1" d="M 11.5 163 L 15 164.5 L 11.5 166 Q 8.5 164.5 11.5 163 Z " /><path fill="rgb(221,167,143)" stroke="rgb(221,167,143)" stroke-width="1" opacity="1" d="M 47.5 164 Q 51.3 163.3 52 165.5 Q 48.3 170.4 41 171 L 40 167 L 47.5 164 Z " /><path fill="rgb(221,167,143)" stroke="rgb(221,167,143)" stroke-width="1" opacity="1" d="M 49.5 174 L 53 174.5 L 52 179 L 42.5 178 L 37 179 L 38 187.5 L 30.5 199 L 31 197.5 L 34 184.5 L 34 178 Q 36.4 176.3 42.5 177 L 49.5 174 Z " /><path fill="rgb(221,167,143)" stroke="rgb(221,167,143)" stroke-width="1" opacity="1" d="M 56.5 194 L 64 197.5 L 62.5 200 L 55 200 L 55 195.5 L 56.5 194 Z " /><path fill="rgb(221,167,143)" stroke="rgb(221,167,143)" stroke-width="1" opacity="1" d="M 40 197 L 45.5 198 L 49 197 Q 50.8 201.9 44.5 200 L 42.5 200 L 38 199.5 L 40 199 L 40 197 Z " /><path fill="rgb(221,167,143)" stroke="rgb(221,167,143)" stroke-width="1" opacity="1" d="M 125.5 198 L 128 199.5 L 124.5 200 L 125.5 198 Z " /><path fill="rgb(221,167,143)" stroke="rgb(221,167,143)" stroke-width="1" opacity="1" d="M 88.5 199 L 92 199.5 L 88.5 200 L 88.5 199 Z " /><path fill="rgb(30,16,12)" stroke="rgb(30,16,12)" stroke-width="1" opacity="0.996078431372549" d="M 82.5 26 L 84.5 26 L 86 26.5 L 79 35.5 Q 79.6 41.6 76 43.5 L 77 48.5 L 76 51.5 L 79.5 53 L 96.5 50 L 115.5 50 L 138.5 56 L 155.5 66 L 163.5 66 Q 165.3 63.3 171.5 65 L 180.5 61 L 182 62.5 L 182 72.5 L 175 93.5 L 181 98.5 L 185 103.5 Q 176.2 113 165 119 L 162.5 124 L 157 127.5 Q 155.9 130.8 158.5 130 Q 161 131 160 135.5 L 156 143.5 L 165 152.5 L 166 157.5 L 163.5 161 L 157.5 162 L 156 163.5 L 182 188.5 L 191 199.5 L 185.5 200 L 176 188 L 173 186.5 Q 173.8 184.3 171.5 185 L 150.5 164 L 148.5 164 L 147.5 165 L 130.5 166 L 129.5 167 L 122.5 167 L 121.5 168 L 114.5 168 L 103 170 L 103 173.5 L 116 197 L 120 199.5 L 113.5 200 L 107 193.5 L 107 191.5 L 96.5 172 Q 85.6 173.1 77.5 177 L 72.5 177 L 69.5 174 L 59.5 169 L 57 177.5 L 55 200 L 50 200 L 50 192.5 L 54 173.5 L 50.5 173 L 46.5 175 L 35.5 176 L 33 177 L 32 190.5 L 29 200 L 24 200 L 24 198.5 L 26 193.5 L 12 181.5 Q 7.8 178.7 7 172.5 L 8 169.5 L 2 163.5 L 2 161.5 L 10.5 149 L 14.5 146 L 25 156.5 L 25 158 Q 28 157 27 160 L 29.5 160 L 38.5 163 L 45 159.5 Q 38.5 157 38 148.5 L 46 142.5 L 44 138 L 36 134 L 34.5 131 L 31 128.5 L 29 118 Q 22.9 117.2 20 111.5 Q 15.1 103.9 15 91.5 Q 18.1 81.6 25.5 76 L 27.5 76 L 43 66 L 45 55.5 L 52 44 L 54 44 Q 52.9 41.3 55.5 42 Q 65.5 30.5 82.5 26 Z M 74 34 L 64 40 L 50 55 Q 47 60 48 69 L 31 78 L 21 88 L 20 91 L 20 101 L 24 110 L 34 117 Q 33 125 36 128 L 44 133 L 46 133 Q 47 126 44 123 L 44 117 Q 47 115 46 111 L 54 98 L 56 88 L 60 90 Q 62 95 59 97 Q 60 108 66 114 Q 74 123 87 128 L 89 128 Q 80 114 81 92 Q 85 91 87 95 Q 89 94 88 97 L 104 107 Q 114 114 128 117 Q 133 119 132 115 L 135 114 Q 137 115 136 112 L 143 107 L 148 107 L 152 110 L 155 117 L 154 123 L 162 118 L 164 115 L 179 103 L 170 96 L 177 76 L 178 67 L 170 69 L 168 69 L 167 70 L 157 70 L 156 71 L 152 70 Q 145 62 135 59 L 114 54 L 103 54 L 102 55 L 100 54 L 91 56 L 83 56 L 76 59 Q 72 60 71 58 L 71 49 L 72 48 Q 70 43 74 44 L 73 43 L 75 37 Q 76 33 74 34 Z M 87 100 L 86 107 L 88 116 L 97 134 L 95 134 Q 77 131 68 121 Q 59 115 56 104 L 50 114 L 49 117 L 50 139 L 58 144 L 70 147 L 83 147 L 84 146 L 92 146 L 109 143 L 125 138 L 138 131 L 145 129 L 150 123 Q 151 114 147 112 L 142 113 L 137 118 Q 138 122 136 123 L 129 122 L 114 117 L 99 109 L 87 100 Z M 149 132 L 119 145 L 100 149 L 96 151 L 80 151 L 75 154 L 74 152 L 60 150 L 52 146 L 45 148 L 43 152 L 54 161 L 75 172 L 110 164 L 131 162 L 139 160 L 148 160 L 160 157 L 160 154 L 151 144 L 151 142 L 155 137 L 155 133 L 149 132 Z M 12 152 L 6 163 L 12 167 L 17 165 L 23 165 L 23 162 L 18 156 Q 17 151 12 152 Z M 49 163 L 40 168 Q 39 171 42 172 L 54 167 Q 54 163 49 163 Z M 30 164 L 26 168 L 19 169 L 13 173 L 13 175 L 20 184 L 27 187 L 29 183 L 27 175 L 29 173 L 35 172 L 34 167 L 30 164 Z " /><path fill="rgb(23,15,11)" stroke="rgb(23,15,11)" stroke-width="1" opacity="0.2784313725490196" d="M 81.5 25 L 88 25.5 Q 86.8 28.3 85.5 26 Q 80.5 27 81.5 25 Z " /><path fill="rgb(23,15,11)" stroke="rgb(23,15,11)" stroke-width="1" opacity="0.2784313725490196" d="M 76.5 26 L 79 26.5 L 75.5 28 L 76.5 26 Z " /><path fill="rgb(23,15,11)" stroke="rgb(23,15,11)" stroke-width="1" opacity="0.2784313725490196" d="M 72.5 28 L 74 28.5 L 71.5 30 L 72.5 28 Z " /><path fill="rgb(23,15,11)" stroke="rgb(23,15,11)" stroke-width="1" opacity="0.2784313725490196" d="M 85.5 28 L 84 30.5 L 80.5 36 L 81 34.5 L 85.5 28 Z " /><path fill="rgb(23,15,11)" stroke="rgb(23,15,11)" stroke-width="1" opacity="0.2784313725490196" d="M 69.5 30 L 68.5 32 L 60.5 37 L 62.5 34 L 69.5 30 Z " /><path fill="rgb(23,15,11)" stroke="rgb(23,15,11)" stroke-width="1" opacity="0.2784313725490196" d="M 58.5 37 L 49 47.5 L 47.5 50 L 48 48.5 L 58.5 37 Z " /><path fill="rgb(23,15,11)" stroke="rgb(23,15,11)" stroke-width="1" opacity="0.2784313725490196" d="M 78.5 40 L 79 42.5 L 78 42.5 L 78.5 40 Z " /><path fill="rgb(23,15,11)" stroke="rgb(23,15,11)" stroke-width="1" opacity="0.2784313725490196" d="M 77.5 44 L 78 51.5 L 77 51.5 L 77.5 44 Z " /><path fill="rgb(23,15,11)" stroke="rgb(23,15,11)" stroke-width="1" opacity="0.2784313725490196" d="M 91.5 49 L 105 49.5 L 91.5 50 L 91.5 49 Z " /><path fill="rgb(23,15,11)" stroke="rgb(23,15,11)" stroke-width="1" opacity="0.2784313725490196" d="M 111.5 49 L 120.5 49 L 132 52.5 L 130.5 53 L 120.5 50 L 111.5 50 L 111.5 49 Z " /><path fill="rgb(23,15,11)" stroke="rgb(23,15,11)" stroke-width="1" opacity="0.2784313725490196" d="M 83.5 50 L 90 50.5 L 79.5 52 L 79.5 51 L 83.5 50 Z " /><path fill="rgb(23,15,11)" stroke="rgb(23,15,11)" stroke-width="1" opacity="0.2784313725490196" d="M 46.5 51 L 46 52.5 L 43 64.5 L 40.5 67 L 31.5 72 L 32.5 70 L 42 64.5 Q 42.2 55.7 46.5 51 Z " /><path fill="rgb(23,15,11)" stroke="rgb(23,15,11)" stroke-width="1" opacity="0.2784313725490196" d="M 138.5 55 L 144 56 Q 142.9 58.7 145.5 58 L 149 60.5 L 147.5 60 L 138.5 56 L 138.5 55 Z " /><path fill="rgb(23,15,11)" stroke="rgb(23,15,11)" stroke-width="1" opacity="0.2784313725490196" d="M 179.5 60 L 183 61.5 L 182.5 64 L 182 61 Q 178.7 61.8 179.5 60 Z " /><path fill="rgb(23,15,11)" stroke="rgb(23,15,11)" stroke-width="1" opacity="0.2784313725490196" d="M 150.5 61 L 152.5 64 L 150.5 61 Z " /><path fill="rgb(23,15,11)" stroke="rgb(23,15,11)" stroke-width="1" opacity="0.2784313725490196" d="M 170.5 63 L 173 63.5 L 170.5 64 L 170.5 63 Z " /><path fill="rgb(23,15,11)" stroke="rgb(23,15,11)" stroke-width="1" opacity="0.2784313725490196" d="M 165.5 64 L 168 64.5 L 165.5 65 L 165.5 64 Z " /><path fill="rgb(23,15,11)" stroke="rgb(23,15,11)" stroke-width="1" opacity="0.2784313725490196" d="M 182.5 71 L 183 73.5 L 182 73.5 L 182.5 71 Z " /><path fill="rgb(23,15,11)" stroke="rgb(23,15,11)" stroke-width="1" opacity="0.2784313725490196" d="M 29.5 72 L 28.5 74 L 22.5 79 L 22 77.5 L 29.5 72 Z " /><path fill="rgb(23,15,11)" stroke="rgb(23,15,11)" stroke-width="1" opacity="0.2784313725490196" d="M 181.5 76 L 182 78.5 L 180.5 82 L 180 79.5 L 181.5 76 Z " /><path fill="rgb(23,15,11)" stroke="rgb(23,15,11)" stroke-width="1" opacity="0.2784313725490196" d="M 20.5 79 L 21 80.5 L 15.5 89 L 15 87.5 L 20.5 79 Z " /><path fill="rgb(23,15,11)" stroke="rgb(23,15,11)" stroke-width="1" opacity="0.2784313725490196" d="M 179.5 83 L 180 85.5 L 178 86.5 L 179.5 83 Z " /><path fill="rgb(23,15,11)" stroke="rgb(23,15,11)" stroke-width="1" opacity="0.2784313725490196" d="M 177.5 88 L 178 89.5 L 176 90.5 L 177.5 88 Z " /><path fill="rgb(23,15,11)" stroke="rgb(23,15,11)" stroke-width="1" opacity="0.2784313725490196" d="M 14.5 90 L 15 99.5 L 14 99.5 L 14.5 90 Z " /><path fill="rgb(23,15,11)" stroke="rgb(23,15,11)" stroke-width="1" opacity="0.2784313725490196" d="M 175.5 92 Q 177.8 91.3 177 93.5 L 182 97.5 L 186 103.5 L 185 103.5 L 175.5 92 Z " /><path fill="rgb(23,15,11)" stroke="rgb(23,15,11)" stroke-width="1" opacity="0.2784313725490196" d="M 15.5 101 L 17 105.5 L 16 105.5 L 15.5 101 Z " /><path fill="rgb(23,15,11)" stroke="rgb(23,15,11)" stroke-width="1" opacity="0.2784313725490196" d="M 185.5 105 L 183.5 108 L 182 107.5 L 185.5 105 Z " /><path fill="rgb(23,15,11)" stroke="rgb(23,15,11)" stroke-width="1" opacity="0.2784313725490196" d="M 17.5 107 L 23.5 116 L 28 118 L 27.5 120 L 20 113.5 L 17 108.5 L 17.5 107 Z " /><path fill="rgb(23,15,11)" stroke="rgb(23,15,11)" stroke-width="1" opacity="0.2784313725490196" d="M 179.5 109 L 176.5 113 L 162.5 125 L 171.5 115 L 179.5 109 Z " /><path fill="rgb(23,15,11)" stroke="rgb(23,15,11)" stroke-width="1" opacity="0.2784313725490196" d="M 28.5 122 Q 29.5 129.5 34.5 133 L 44 139.5 L 43.5 141 L 41.5 138 L 31 130.5 Q 26.8 127.7 28.5 122 Z " /><path fill="rgb(23,15,11)" stroke="rgb(23,15,11)" stroke-width="1" opacity="0.2784313725490196" d="M 159.5 126 L 159 127.5 L 162 134.5 L 160.5 137 L 160 135.5 L 161 132.5 L 158 127.5 L 159.5 126 Z " /><path fill="rgb(23,15,11)" stroke="rgb(23,15,11)" stroke-width="1" opacity="0.2784313725490196" d="M 44.5 142 L 43.5 144 L 41.5 145 L 42.5 143 L 44.5 142 Z " /><path fill="rgb(23,15,11)" stroke="rgb(23,15,11)" stroke-width="1" opacity="0.2784313725490196" d="M 157.5 142 L 165 150.5 L 157 143.5 L 157.5 142 Z " /><path fill="rgb(23,15,11)" stroke="rgb(23,15,11)" stroke-width="1" opacity="0.2784313725490196" d="M 39.5 145 L 38 147.5 L 37.5 149 L 37 147.5 L 39.5 145 Z " /><path fill="rgb(23,15,11)" stroke="rgb(23,15,11)" stroke-width="1" opacity="0.2784313725490196" d="M 11.5 146 L 10 148.5 L 6.5 153 L 8 150.5 L 11.5 146 Z " /><path fill="rgb(23,15,11)" stroke="rgb(23,15,11)" stroke-width="1" opacity="0.2784313725490196" d="M 16.5 146 L 20.5 151 L 16.5 146 Z " /><path fill="rgb(23,15,11)" stroke="rgb(23,15,11)" stroke-width="1" opacity="0.2784313725490196" d="M 165.5 152 L 167 154.5 L 166 154.5 L 165.5 152 Z " /><path fill="rgb(23,15,11)" stroke="rgb(23,15,11)" stroke-width="1" opacity="0.2784313725490196" d="M 38.5 153 L 44 159.5 L 41.5 161 L 41.5 160 L 43 159.5 L 38 154.5 L 38.5 153 Z " /><path fill="rgb(23,15,11)" stroke="rgb(23,15,11)" stroke-width="1" opacity="0.2784313725490196" d="M 5.5 154 L 4.5 156 L 5.5 154 Z " /><path fill="rgb(23,15,11)" stroke="rgb(23,15,11)" stroke-width="1" opacity="0.2784313725490196" d="M 24.5 155 L 28 157.5 L 26.5 158 L 24.5 155 Z " /><path fill="rgb(23,15,11)" stroke="rgb(23,15,11)" stroke-width="1" opacity="0.2784313725490196" d="M 166.5 156 L 167 159.5 Q 165.3 162.8 160.5 163 L 160.5 162 L 166 159.5 L 166.5 156 Z " /><path fill="rgb(23,15,11)" stroke="rgb(23,15,11)" stroke-width="1" opacity="0.2784313725490196" d="M 29.5 159 L 32 159.5 L 29.5 160 L 29.5 159 Z " /><path fill="rgb(23,15,11)" stroke="rgb(23,15,11)" stroke-width="1" opacity="0.2784313725490196" d="M 34.5 160 L 40 161.5 L 36.5 162 L 34.5 160 Z " /><path fill="rgb(23,15,11)" stroke="rgb(23,15,11)" stroke-width="1" opacity="0.2784313725490196" d="M 157.5 163 Q 159.8 162.3 159 164.5 L 173.5 179 L 175 179 L 176.5 182 L 182 186.5 L 188 193.5 L 179 185.5 Q 179.8 183.3 177.5 184 L 157.5 163 Z " /><path fill="rgb(23,15,11)" stroke="rgb(23,15,11)" stroke-width="1" opacity="0.2784313725490196" d="M 1.5 164 L 6.5 170 L 1.5 164 Z " /><path fill="rgb(23,15,11)" stroke="rgb(23,15,11)" stroke-width="1" opacity="0.2784313725490196" d="M 6.5 171 L 7 174.5 L 6 174.5 L 6.5 171 Z " /><path fill="rgb(23,15,11)" stroke="rgb(23,15,11)" stroke-width="1" opacity="0.2784313725490196" d="M 7.5 176 L 19.5 190 L 25 193.5 L 23.5 199 L 23 196.5 L 24 193 Q 17.1 190.9 13 184.5 L 7.5 176 Z " /><path fill="rgb(23,15,11)" stroke="rgb(23,15,11)" stroke-width="1" opacity="0.2784313725490196" d="M 188.5 195 L 191.5 199 L 188.5 195 Z " /><path fill="rgb(67,29,26)" stroke="rgb(67,29,26)" stroke-width="1" opacity="0.996078431372549" d="M 66.5 38 L 65.5 40 L 66.5 38 Z " /><path fill="rgb(67,29,26)" stroke="rgb(67,29,26)" stroke-width="1" opacity="0.996078431372549" d="M 73.5 38 L 74 40.5 L 73 40.5 L 73.5 38 Z " /><path fill="rgb(67,29,26)" stroke="rgb(67,29,26)" stroke-width="1" opacity="0.996078431372549" d="M 63.5 40 L 62.5 42 L 63.5 40 Z " /><path fill="rgb(67,29,26)" stroke="rgb(67,29,26)" stroke-width="1" opacity="0.996078431372549" d="M 72.5 42 L 73.5 44 Q 70.7 44.7 72.5 42 Z " /><path fill="rgb(67,29,26)" stroke="rgb(67,29,26)" stroke-width="1" opacity="0.996078431372549" d="M 51.5 53 L 51 54.5 L 50.5 56 L 50 54.5 L 51.5 53 Z " /><path fill="rgb(67,29,26)" stroke="rgb(67,29,26)" stroke-width="1" opacity="0.996078431372549" d="M 102.5 54 L 114 54.5 L 102.5 55 L 102.5 54 Z " /><path fill="rgb(67,29,26)" stroke="rgb(67,29,26)" stroke-width="1" opacity="0.996078431372549" d="M 91.5 55 L 94 55.5 L 91.5 56 L 91.5 55 Z " /><path fill="rgb(67,29,26)" stroke="rgb(67,29,26)" stroke-width="1" opacity="0.996078431372549" d="M 71.5 58 L 75 59.5 L 72.5 60 L 71.5 58 Z " /><path fill="rgb(67,29,26)" stroke="rgb(67,29,26)" stroke-width="1" opacity="0.996078431372549" d="M 48.5 60 L 49 62.5 L 48 62.5 L 48.5 60 Z " /><path fill="rgb(67,29,26)" stroke="rgb(67,29,26)" stroke-width="1" opacity="0.996078431372549" d="M 48.5 64 L 49 67.5 L 48 67.5 L 48.5 64 Z " /><path fill="rgb(67,29,26)" stroke="rgb(67,29,26)" stroke-width="1" opacity="0.996078431372549" d="M 147.5 66 L 150.5 70 L 147.5 66 Z " /><path fill="rgb(67,29,26)" stroke="rgb(67,29,26)" stroke-width="1" opacity="0.996078431372549" d="M 175.5 67 L 178 67.5 L 175.5 68 L 175.5 67 Z " /><path fill="rgb(67,29,26)" stroke="rgb(67,29,26)" stroke-width="1" opacity="0.996078431372549" d="M 177.5 69 L 178 71.5 L 177 71.5 L 177.5 69 Z " /><path fill="rgb(67,29,26)" stroke="rgb(67,29,26)" stroke-width="1" opacity="0.996078431372549" d="M 156.5 70 L 162 70.5 L 156.5 71 L 156.5 70 Z " /><path fill="rgb(67,29,26)" stroke="rgb(67,29,26)" stroke-width="1" opacity="0.996078431372549" d="M 30.5 78 L 29.5 80 L 30.5 78 Z " /><path fill="rgb(67,29,26)" stroke="rgb(67,29,26)" stroke-width="1" opacity="0.996078431372549" d="M 22.5 86 L 21.5 88 L 22.5 86 Z " /><path fill="rgb(67,29,26)" stroke="rgb(67,29,26)" stroke-width="1" opacity="0.996078431372549" d="M 55.5 89 L 56 90.5 L 54.5 94 L 54 91.5 L 55.5 89 Z " /><path fill="rgb(67,29,26)" stroke="rgb(67,29,26)" stroke-width="1" opacity="0.996078431372549" d="M 82.5 90 L 83 92 L 81 91.5 L 82.5 90 Z " /><path fill="rgb(67,29,26)" stroke="rgb(67,29,26)" stroke-width="1" opacity="0.996078431372549" d="M 84.5 91 L 87 94.5 L 84 92.5 L 84.5 91 Z " /><path fill="rgb(67,29,26)" stroke="rgb(67,29,26)" stroke-width="1" opacity="0.996078431372549" d="M 59.5 96 L 60 99.5 L 59 99.5 L 59.5 96 Z " /><path fill="rgb(67,29,26)" stroke="rgb(67,29,26)" stroke-width="1" opacity="0.996078431372549" d="M 80.5 96 L 81 101.5 L 80 101.5 L 80.5 96 Z " /><path fill="rgb(67,29,26)" stroke="rgb(67,29,26)" stroke-width="1" opacity="0.996078431372549" d="M 88.5 96 L 89.5 98 L 88.5 96 Z " /><path fill="rgb(67,29,26)" stroke="rgb(67,29,26)" stroke-width="1" opacity="0.996078431372549" d="M 171.5 96 L 172.5 98 L 171.5 96 Z " /><path fill="rgb(67,29,26)" stroke="rgb(67,29,26)" stroke-width="1" opacity="0.996078431372549" d="M 128.5 98 L 131 99.5 Q 133.7 101.8 133 107.5 L 135.5 111 L 137 110.5 L 136 114 L 132 115 L 131.5 117 L 131 114.5 L 131 112.5 L 127 99.5 L 128.5 98 Z " /><path fill="rgb(67,29,26)" stroke="rgb(67,29,26)" stroke-width="1" opacity="0.996078431372549" d="M 51.5 100 L 50.5 102 L 51.5 100 Z " /><path fill="rgb(67,29,26)" stroke="rgb(67,29,26)" stroke-width="1" opacity="0.996078431372549" d="M 94.5 100 L 95.5 102 L 94.5 100 Z " /><path fill="rgb(67,29,26)" stroke="rgb(67,29,26)" stroke-width="1" opacity="0.996078431372549" d="M 176.5 100 L 178.5 103 L 176.5 100 Z " /><path fill="rgb(67,29,26)" stroke="rgb(67,29,26)" stroke-width="1" opacity="0.996078431372549" d="M 89.5 102 L 90.5 104 L 89.5 102 Z " /><path fill="rgb(67,29,26)" stroke="rgb(67,29,26)" stroke-width="1" opacity="0.996078431372549" d="M 32.5 105 L 35 110.5 L 33 115.5 L 33.5 117 L 29 113.5 L 32.5 105 Z " /><path fill="rgb(67,29,26)" stroke="rgb(67,29,26)" stroke-width="1" opacity="0.996078431372549" d="M 81.5 105 L 82 107.5 L 81 107.5 L 81.5 105 Z " /><path fill="rgb(67,29,26)" stroke="rgb(67,29,26)" stroke-width="1" opacity="0.996078431372549" d="M 93.5 105 L 94.5 107 L 93.5 105 Z " /><path fill="rgb(67,29,26)" stroke="rgb(67,29,26)" stroke-width="1" opacity="0.996078431372549" d="M 143.5 106 L 146 106.5 L 143.5 107 L 143.5 106 Z " /><path fill="rgb(67,29,26)" stroke="rgb(67,29,26)" stroke-width="1" opacity="0.996078431372549" d="M 62.5 107 L 64 109.5 L 62 108.5 L 62.5 107 Z " /><path fill="rgb(67,29,26)" stroke="rgb(67,29,26)" stroke-width="1" opacity="0.996078431372549" d="M 148.5 107 L 150.5 110 L 148.5 107 Z " /><path fill="rgb(67,29,26)" stroke="rgb(67,29,26)" stroke-width="1" opacity="0.996078431372549" d="M 139.5 108 L 138.5 110 L 139.5 108 Z " /><path fill="rgb(67,29,26)" stroke="rgb(67,29,26)" stroke-width="1" opacity="0.996078431372549" d="M 24.5 109 L 26.5 112 L 24.5 109 Z " /><path fill="rgb(67,29,26)" stroke="rgb(67,29,26)" stroke-width="1" opacity="0.996078431372549" d="M 60.5 113 L 61.5 115 L 60.5 113 Z " /><path fill="rgb(67,29,26)" stroke="rgb(67,29,26)" stroke-width="1" opacity="0.996078431372549" d="M 66.5 113 L 70.5 118 L 66.5 113 Z " /><path fill="rgb(67,29,26)" stroke="rgb(67,29,26)" stroke-width="1" opacity="0.996078431372549" d="M 108.5 114 L 111 115.5 L 109.5 115 L 108.5 114 Z " /><path fill="rgb(67,29,26)" stroke="rgb(67,29,26)" stroke-width="1" opacity="0.996078431372549" d="M 161.5 117 L 158.5 121 L 161.5 117 Z " /><path fill="rgb(67,29,26)" stroke="rgb(67,29,26)" stroke-width="1" opacity="0.996078431372549" d="M 43.5 119 L 44 121.5 L 43 121.5 L 43.5 119 Z " /><path fill="rgb(67,29,26)" stroke="rgb(67,29,26)" stroke-width="1" opacity="0.996078431372549" d="M 68.5 121 L 70.5 124 L 68.5 121 Z " /><path fill="rgb(67,29,26)" stroke="rgb(67,29,26)" stroke-width="1" opacity="0.996078431372549" d="M 76.5 121 L 77.5 123 L 76.5 121 Z " /><path fill="rgb(67,29,26)" stroke="rgb(67,29,26)" stroke-width="1" opacity="0.996078431372549" d="M 79.5 123 L 80.5 125 L 79.5 123 Z " /><path fill="rgb(67,29,26)" stroke="rgb(67,29,26)" stroke-width="1" opacity="0.996078431372549" d="M 45.5 126 L 46 132.5 L 45 132.5 L 45.5 126 Z " /><path fill="rgb(67,29,26)" stroke="rgb(67,29,26)" stroke-width="1" opacity="0.996078431372549" d="M 86.5 127 L 89 127.5 L 86.5 128 L 86.5 127 Z " /><path fill="rgb(67,29,26)" stroke="rgb(67,29,26)" stroke-width="1" opacity="0.996078431372549" d="M 96.5 132 L 97.5 134 L 95 133.5 L 96.5 132 Z " /><path fill="rgb(67,29,26)" stroke="rgb(67,29,26)" stroke-width="1" opacity="0.996078431372549" d="M 90.5 133 L 93 133.5 L 90.5 134 L 90.5 133 Z " /><path fill="rgb(67,29,26)" stroke="rgb(67,29,26)" stroke-width="1" opacity="0.996078431372549" d="M 153.5 138 L 152.5 140 L 153.5 138 Z " /><path fill="rgb(67,29,26)" stroke="rgb(67,29,26)" stroke-width="1" opacity="0.996078431372549" d="M 150.5 142 Q 153.2 149.9 160 153.5 L 153.5 148 L 147 149 L 147 146.5 L 150.5 142 Z " /><path fill="rgb(67,29,26)" stroke="rgb(67,29,26)" stroke-width="1" opacity="0.996078431372549" d="M 49.5 146 L 52 146.5 L 49.5 147 L 49.5 146 Z " /><path fill="rgb(67,29,26)" stroke="rgb(67,29,26)" stroke-width="1" opacity="0.996078431372549" d="M 69.5 146 L 83 146.5 L 69.5 147 L 69.5 146 Z " /><path fill="rgb(67,29,26)" stroke="rgb(67,29,26)" stroke-width="1" opacity="0.996078431372549" d="M 44.5 148 L 44 149.5 L 44 151.5 L 49 156.5 L 43 151.5 L 44.5 148 Z " /><path fill="rgb(67,29,26)" stroke="rgb(67,29,26)" stroke-width="1" opacity="0.996078431372549" d="M 99.5 149 L 102 149.5 L 85.5 157 L 77.5 163 L 72 152.5 L 74 152 L 74.5 154 L 79.5 151 L 95.5 151 L 99.5 149 Z M 79 152 L 79 154 L 84 153 L 79 152 Z " /><path fill="rgb(67,29,26)" stroke="rgb(67,29,26)" stroke-width="1" opacity="0.996078431372549" d="M 66.5 151 L 70 151.5 L 66.5 152 L 66.5 151 Z " /><path fill="rgb(67,29,26)" stroke="rgb(67,29,26)" stroke-width="1" opacity="0.996078431372549" d="M 16.5 154 L 17.5 156 L 16.5 154 Z " /><path fill="rgb(67,29,26)" stroke="rgb(67,29,26)" stroke-width="1" opacity="0.996078431372549" d="M 155.5 157 L 158 157.5 L 155.5 158 L 155.5 157 Z " /><path fill="rgb(67,29,26)" stroke="rgb(67,29,26)" stroke-width="1" opacity="0.996078431372549" d="M 51.5 158 L 55 160.5 L 53.5 161 L 51.5 158 Z " /><path fill="rgb(67,29,26)" stroke="rgb(67,29,26)" stroke-width="1" opacity="0.996078431372549" d="M 144.5 159 L 148 159.5 L 144.5 160 L 144.5 159 Z " /><path fill="rgb(67,29,26)" stroke="rgb(67,29,26)" stroke-width="1" opacity="0.996078431372549" d="M 128.5 161 L 131 161.5 L 128.5 162 L 128.5 161 Z " /><path fill="rgb(67,29,26)" stroke="rgb(67,29,26)" stroke-width="1" opacity="0.996078431372549" d="M 6.5 162 L 9.5 166 L 6.5 162 Z " /><path fill="rgb(67,29,26)" stroke="rgb(67,29,26)" stroke-width="1" opacity="0.996078431372549" d="M 119.5 162 L 123 162.5 L 119.5 163 L 119.5 162 Z " /><path fill="rgb(67,29,26)" stroke="rgb(67,29,26)" stroke-width="1" opacity="0.996078431372549" d="M 112.5 163 L 116 163.5 L 112.5 164 L 112.5 163 Z " /><path fill="rgb(67,29,26)" stroke="rgb(67,29,26)" stroke-width="1" opacity="0.996078431372549" d="M 18.5 164 L 23 164.5 L 18.5 165 L 18.5 164 Z " /><path fill="rgb(67,29,26)" stroke="rgb(67,29,26)" stroke-width="1" opacity="0.996078431372549" d="M 106.5 164 L 109 164.5 L 106.5 165 L 106.5 164 Z " /><path fill="rgb(67,29,26)" stroke="rgb(67,29,26)" stroke-width="1" opacity="0.996078431372549" d="M 148.5 164 L 150.5 164 L 170 183.5 L 150.5 165 Q 147.5 165.5 148.5 164 Z " /><path fill="rgb(67,29,26)" stroke="rgb(67,29,26)" stroke-width="1" opacity="0.996078431372549" d="M 32.5 165 L 35 168.5 L 33 167.5 L 32.5 165 Z " /><path fill="rgb(67,29,26)" stroke="rgb(67,29,26)" stroke-width="1" opacity="0.996078431372549" d="M 63.5 165 L 66 166.5 L 64.5 167 L 63.5 165 Z " /><path fill="rgb(67,29,26)" stroke="rgb(67,29,26)" stroke-width="1" opacity="0.996078431372549" d="M 101.5 165 L 104 165.5 L 101.5 166 L 101.5 165 Z " /><path fill="rgb(67,29,26)" stroke="rgb(67,29,26)" stroke-width="1" opacity="0.996078431372549" d="M 27.5 166 L 31 172.5 L 27 174.5 L 28 177.5 L 27 177.5 L 26 172.5 L 23.5 170 L 18 169.5 Q 25 170 27.5 166 Z " /><path fill="rgb(67,29,26)" stroke="rgb(67,29,26)" stroke-width="1" opacity="0.996078431372549" d="M 130.5 166 L 133 166.5 L 130.5 167 L 130.5 166 Z " /><path fill="rgb(67,29,26)" stroke="rgb(67,29,26)" stroke-width="1" opacity="0.996078431372549" d="M 69.5 168 L 70.5 170 L 69.5 168 Z " /><path fill="rgb(67,29,26)" stroke="rgb(67,29,26)" stroke-width="1" opacity="0.996078431372549" d="M 86.5 168 L 89 168.5 L 86.5 169 L 86.5 168 Z " /><path fill="rgb(67,29,26)" stroke="rgb(67,29,26)" stroke-width="1" opacity="0.996078431372549" d="M 114.5 168 L 117 168.5 L 114.5 169 L 114.5 168 Z " /><path fill="rgb(67,29,26)" stroke="rgb(67,29,26)" stroke-width="1" opacity="0.996078431372549" d="M 93.5 172 Q 97.3 171.3 98 173.5 Q 101.3 184.7 108 192.5 L 107 193.5 L 110.5 198 L 108.5 198 L 89.5 198 L 86.5 200 L 69.5 200 L 70 198.5 Q 70.8 195.9 67.5 197 L 63 196 L 65 191 L 76.5 193 L 106 193 L 106 190.5 Q 99.5 183.3 97 173 Q 92.6 174 93.5 172 Z " /><path fill="rgb(67,29,26)" stroke="rgb(67,29,26)" stroke-width="1" opacity="0.996078431372549" d="M 89.5 173 L 92 173.5 L 89.5 174 L 89.5 173 Z " /><path fill="rgb(67,29,26)" stroke="rgb(67,29,26)" stroke-width="1" opacity="0.996078431372549" d="M 69.5 174 Q 70.8 178.3 77.5 177 L 87.5 174 L 87.5 175 L 74.5 182 L 69.5 174 Z " /><path fill="rgb(67,29,26)" stroke="rgb(67,29,26)" stroke-width="1" opacity="0.996078431372549" d="M 42.5 175 L 45 175.5 L 42.5 176 L 42.5 175 Z " /><path fill="rgb(67,29,26)" stroke="rgb(67,29,26)" stroke-width="1" opacity="0.996078431372549" d="M 15.5 177 L 17.5 180 L 15.5 177 Z " /><path fill="rgb(67,29,26)" stroke="rgb(67,29,26)" stroke-width="1" opacity="0.996078431372549" d="M 57.5 177 L 58 179.5 L 57 179.5 L 57.5 177 Z " /><path fill="rgb(67,29,26)" stroke="rgb(67,29,26)" stroke-width="1" opacity="0.996078431372549" d="M 52.5 178 L 52 179.5 L 51.5 186 L 51 180 L 47.5 181 L 42 179.5 L 51.5 179 L 52.5 178 Z " /><path fill="rgb(67,29,26)" stroke="rgb(67,29,26)" stroke-width="1" opacity="0.996078431372549" d="M 28.5 179 L 29 182.5 L 28 182.5 L 28.5 179 Z " /><path fill="rgb(67,29,26)" stroke="rgb(67,29,26)" stroke-width="1" opacity="0.996078431372549" d="M 38.5 182 L 40.5 182 L 42 182.5 L 42 184.5 Q 40.8 190.8 44.5 192 Q 50.6 193.3 50 190.5 L 51 190.5 L 50 196 L 42 196 Q 43 193 40 194 L 40 190.5 Q 37 187.1 38.5 182 Z " /><path fill="rgb(67,29,26)" stroke="rgb(67,29,26)" stroke-width="1" opacity="0.996078431372549" d="M 20.5 183 L 21.5 185 L 20.5 183 Z " /><path fill="rgb(67,29,26)" stroke="rgb(67,29,26)" stroke-width="1" opacity="0.996078431372549" d="M 27.5 184 L 28 185.5 L 26 186.5 L 27.5 184 Z " /><path fill="rgb(67,29,26)" stroke="rgb(67,29,26)" stroke-width="1" opacity="0.996078431372549" d="M 56.5 185 L 57 187.5 L 56 187.5 L 56.5 185 Z " /><path fill="rgb(67,29,26)" stroke="rgb(67,29,26)" stroke-width="1" opacity="0.996078431372549" d="M 181.5 195 L 183.5 198 L 181.5 195 Z " /><path fill="rgb(118,66,65)" stroke="rgb(118,66,65)" stroke-width="1" opacity="1" d="M 86.5 100 Q 89.3 101.2 87 102.5 L 86.5 104 L 86.5 100 Z " /><path fill="rgb(118,66,65)" stroke="rgb(118,66,65)" stroke-width="1" opacity="1" d="M 97.5 108 L 98.5 110 L 97.5 108 Z " /><path fill="rgb(118,66,65)" stroke="rgb(118,66,65)" stroke-width="1" opacity="1" d="M 58.5 111 L 59.5 113 L 58.5 111 Z " /><path fill="rgb(118,66,65)" stroke="rgb(118,66,65)" stroke-width="1" opacity="1" d="M 153.5 111 L 155 113.5 L 154 113.5 L 153.5 111 Z " /><path fill="rgb(118,66,65)" stroke="rgb(118,66,65)" stroke-width="1" opacity="1" d="M 143.5 112 L 146 112.5 L 143.5 113 L 143.5 112 Z " /><path fill="rgb(118,66,65)" stroke="rgb(118,66,65)" stroke-width="1" opacity="1" d="M 141.5 113 L 138.5 117 L 141.5 113 Z " /><path fill="rgb(118,66,65)" stroke="rgb(118,66,65)" stroke-width="1" opacity="1" d="M 147.5 113 L 148.5 115 L 147.5 113 Z " /><path fill="rgb(118,66,65)" stroke="rgb(118,66,65)" stroke-width="1" opacity="1" d="M 60.5 114 L 61.5 116 L 60.5 114 Z " /><path fill="rgb(118,66,65)" stroke="rgb(118,66,65)" stroke-width="1" opacity="1" d="M 155.5 115 L 156.5 121 L 159 119.5 L 155 122 L 155.5 115 Z " /><path fill="rgb(118,66,65)" stroke="rgb(118,66,65)" stroke-width="1" opacity="1" d="M 113.5 117 L 117 118 L 116.5 122 L 114.5 119 L 112.5 119 L 110 118.5 L 113.5 117 Z " /><path fill="rgb(118,66,65)" stroke="rgb(118,66,65)" stroke-width="1" opacity="1" d="M 137.5 118 L 138 122.5 L 137 122.5 L 137.5 118 Z " /><path fill="rgb(118,66,65)" stroke="rgb(118,66,65)" stroke-width="1" opacity="1" d="M 34.5 119 L 35 121.5 L 34 121.5 L 34.5 119 Z " /><path fill="rgb(118,66,65)" stroke="rgb(118,66,65)" stroke-width="1" opacity="1" d="M 55.5 121 L 58 121.5 L 55.5 122 L 55.5 121 Z " /><path fill="rgb(118,66,65)" stroke="rgb(118,66,65)" stroke-width="1" opacity="1" d="M 61.5 122 L 64 123.5 L 62.5 124 L 61.5 122 Z " /><path fill="rgb(118,66,65)" stroke="rgb(118,66,65)" stroke-width="1" opacity="1" d="M 68.5 122 L 69.5 124 L 68.5 122 Z " /><path fill="rgb(118,66,65)" stroke="rgb(118,66,65)" stroke-width="1" opacity="1" d="M 44.5 125 L 45 132.5 L 43.5 132 L 39 128.5 L 42.5 131 L 44 130.5 L 44.5 125 Z " /><path fill="rgb(118,66,65)" stroke="rgb(118,66,65)" stroke-width="1" opacity="1" d="M 67.5 125 L 69.5 128 L 67.5 125 Z " /><path fill="rgb(118,66,65)" stroke="rgb(118,66,65)" stroke-width="1" opacity="1" d="M 115.5 125 L 114.5 127 L 115.5 125 Z " /><path fill="rgb(118,66,65)" stroke="rgb(118,66,65)" stroke-width="1" opacity="1" d="M 147.5 125 L 145.5 128 L 147.5 125 Z " /><path fill="rgb(118,66,65)" stroke="rgb(118,66,65)" stroke-width="1" opacity="1" d="M 36.5 126 L 37.5 128 L 36.5 126 Z " /><path fill="rgb(118,66,65)" stroke="rgb(118,66,65)" stroke-width="1" opacity="1" d="M 50.5 126 L 51 132.5 L 50 132.5 L 50.5 126 Z " /><path fill="rgb(118,66,65)" stroke="rgb(118,66,65)" stroke-width="1" opacity="1" d="M 112.5 128 L 114 128.5 L 111.5 130 L 112.5 128 Z " /><path fill="rgb(118,66,65)" stroke="rgb(118,66,65)" stroke-width="1" opacity="1" d="M 56.5 129 L 57.5 131 L 56.5 129 Z " /><path fill="rgb(118,66,65)" stroke="rgb(118,66,65)" stroke-width="1" opacity="1" d="M 103.5 130 L 106 130.5 L 103.5 131 L 103.5 130 Z " /><path fill="rgb(118,66,65)" stroke="rgb(118,66,65)" stroke-width="1" opacity="1" d="M 68.5 131 L 67.5 133 L 66 132.5 L 68.5 131 Z " /><path fill="rgb(118,66,65)" stroke="rgb(118,66,65)" stroke-width="1" opacity="1" d="M 147.5 133 L 150 133.5 L 146.5 135 L 147.5 133 Z " /><path fill="rgb(118,66,65)" stroke="rgb(118,66,65)" stroke-width="1" opacity="1" d="M 151.5 133 L 154 134.5 L 150 143 L 147 144.5 L 146 149.5 L 147.5 152 L 153.5 149 L 157 151.5 L 159 156 L 143 159 L 137 148.5 L 153 135.5 L 151.5 133 Z " /><path fill="rgb(118,66,65)" stroke="rgb(118,66,65)" stroke-width="1" opacity="1" d="M 95.5 134 L 98 134.5 L 95.5 135 L 95.5 134 Z " /><path fill="rgb(118,66,65)" stroke="rgb(118,66,65)" stroke-width="1" opacity="1" d="M 57.5 149 L 58.5 151 L 57.5 149 Z " /><path fill="rgb(118,66,65)" stroke="rgb(118,66,65)" stroke-width="1" opacity="1" d="M 60.5 151 L 72 153 L 75 160.5 L 73.5 160 Q 70.9 160.7 72 158 L 69.5 158 L 63.5 155 L 59 155 Q 60.5 158.8 57.5 158 L 55 153.5 L 60.5 151 Z " /><path fill="rgb(118,66,65)" stroke="rgb(118,66,65)" stroke-width="1" opacity="1" d="M 13.5 152 L 11.5 155 L 13.5 152 Z " /><path fill="rgb(118,66,65)" stroke="rgb(118,66,65)" stroke-width="1" opacity="1" d="M 139.5 159 L 142 159.5 L 139.5 160 L 139.5 159 Z " /><path fill="rgb(118,66,65)" stroke="rgb(118,66,65)" stroke-width="1" opacity="1" d="M 7.5 160 L 10 164.5 L 7 162.5 L 7.5 160 Z " /><path fill="rgb(118,66,65)" stroke="rgb(118,66,65)" stroke-width="1" opacity="1" d="M 128.5 160 L 132 160.5 L 128.5 161 L 128.5 160 Z " /><path fill="rgb(118,66,65)" stroke="rgb(118,66,65)" stroke-width="1" opacity="1" d="M 121.5 161 L 124 161.5 L 121.5 162 L 121.5 161 Z " /><path fill="rgb(118,66,65)" stroke="rgb(118,66,65)" stroke-width="1" opacity="1" d="M 114.5 162 L 117 162.5 L 114.5 163 L 114.5 162 Z " /><path fill="rgb(118,66,65)" stroke="rgb(118,66,65)" stroke-width="1" opacity="1" d="M 51.5 164 L 53.5 167 L 50.5 168 L 50.5 167 Q 52.8 167.8 52 165.5 L 51.5 164 Z " /><path fill="rgb(118,66,65)" stroke="rgb(118,66,65)" stroke-width="1" opacity="1" d="M 102.5 164 L 105 164.5 L 102.5 165 L 102.5 164 Z " /><path fill="rgb(118,66,65)" stroke="rgb(118,66,65)" stroke-width="1" opacity="1" d="M 29.5 165 L 33 166.5 L 35 169.5 L 34 172 L 31.5 173 L 28 166.5 L 29.5 165 Z " /><path fill="rgb(118,66,65)" stroke="rgb(118,66,65)" stroke-width="1" opacity="1" d="M 148.5 165 L 157 171.5 L 157 173 L 159 173 Q 157.9 175.7 160.5 175 L 178 191.5 L 185 199.5 L 183 200 L 173.5 188 L 166.5 183 L 162.5 183 L 159 188 L 155.5 189 L 151.5 183 Q 149.3 183.8 150 181.5 L 143.5 176 L 134.5 174 L 109.5 174 L 105.5 173 L 104 173.5 Q 102.7 168.9 108.5 171 L 122.5 168 L 141.5 167 L 148.5 165 Z " /><path fill="rgb(118,66,65)" stroke="rgb(118,66,65)" stroke-width="1" opacity="1" d="M 17.5 170 Q 24.5 168.5 26 172.5 Q 25.4 177.1 28 178.5 L 28 183.5 L 27 186 L 23.5 186 L 18 180.5 L 13 172 L 17.5 170 Z M 18 171 L 15 175 L 22 173 Q 23 169 18 171 Z " /><path fill="rgb(118,66,65)" stroke="rgb(118,66,65)" stroke-width="1" opacity="1" d="M 59 170 L 69 174 L 70 178 Q 73 176.8 72 180.5 Q 72.8 182.8 76.5 182 Q 83.6 173.9 97 173 L 101 182.5 L 101 186 L 104 187.5 L 106 191.5 L 101.5 193 L 79.5 193 L 78.5 192 L 65.5 191 L 63 196 L 66 196.5 L 63.5 197 L 56.5 194 L 55 194.5 L 57 189.5 L 57 180.5 L 59 170 Z M 62 172 L 59 177 L 58 187 L 63 190 L 66 189 Q 67 186 64 187 L 64 182 L 68 176 L 62 172 Z M 97 177 L 96 180 L 97 180 L 97 177 Z M 98 185 L 101 191 L 102 191 L 102 187 L 98 185 Z " /><path fill="rgb(118,66,65)" stroke="rgb(118,66,65)" stroke-width="1" opacity="1" d="M 74.5 170 L 77 170.5 L 74.5 171 L 74.5 170 Z " /><path fill="rgb(118,66,65)" stroke="rgb(118,66,65)" stroke-width="1" opacity="1" d="M 38.5 179 L 38 180.5 L 37.5 183 L 37 180.5 L 38.5 179 Z " /><path fill="rgb(118,66,65)" stroke="rgb(118,66,65)" stroke-width="1" opacity="1" d="M 50.5 184 L 51 186.5 L 50 186.5 L 50.5 184 Z " /><path fill="rgb(118,66,65)" stroke="rgb(118,66,65)" stroke-width="1" opacity="1" d="M 32.5 187 L 33 189.5 L 32 189.5 L 32.5 187 Z " /><path fill="rgb(118,66,65)" stroke="rgb(118,66,65)" stroke-width="1" opacity="1" d="M 49.5 188 L 50 191 L 47 190.5 L 49.5 188 Z " /><path fill="rgb(118,66,65)" stroke="rgb(118,66,65)" stroke-width="1" opacity="1" d="M 165.5 193 L 170.5 194 L 181 199.5 L 162.5 200 L 163 198.5 L 165.5 193 Z " /><path fill="rgb(118,66,65)" stroke="rgb(118,66,65)" stroke-width="1" opacity="1" d="M 49.5 197 L 50 199.5 L 49 199.5 L 49.5 197 Z " /><path fill="rgb(118,66,65)" stroke="rgb(118,66,65)" stroke-width="1" opacity="1" d="M 67.5 197 Q 70.8 195.9 70 198.5 L 67.5 200 L 67.5 197 Z " /><path fill="rgb(118,66,65)" stroke="rgb(118,66,65)" stroke-width="1" opacity="1" d="M 89.5 198 L 108 198.5 L 96.5 200 Q 95 197.5 89.5 199 L 89.5 198 Z " /><path fill="rgb(24,17,11)" stroke="rgb(24,17,11)" stroke-width="1" opacity="0.8862745098039215" d="M 79.5 26 L 82 26.5 L 79.5 27 L 79.5 26 Z " /><path fill="rgb(24,17,11)" stroke="rgb(24,17,11)" stroke-width="1" opacity="0.8862745098039215" d="M 76.5 27 L 75.5 29 L 72.5 30 L 72.5 29 L 76.5 27 Z " /><path fill="rgb(24,17,11)" stroke="rgb(24,17,11)" stroke-width="1" opacity="0.8862745098039215" d="M 85.5 27 L 83 30.5 L 81.5 33 L 82 31.5 L 85.5 27 Z " /><path fill="rgb(24,17,11)" stroke="rgb(24,17,11)" stroke-width="1" opacity="0.8862745098039215" d="M 70.5 30 L 69.5 32 L 70.5 30 Z " /><path fill="rgb(24,17,11)" stroke="rgb(24,17,11)" stroke-width="1" opacity="0.8862745098039215" d="M 65.5 33 L 64.5 35 L 65.5 33 Z " /><path fill="rgb(24,17,11)" stroke="rgb(24,17,11)" stroke-width="1" opacity="0.8862745098039215" d="M 80.5 34 L 80 35.5 L 79.5 38 L 79 35.5 L 80.5 34 Z " /><path fill="rgb(24,17,11)" stroke="rgb(24,17,11)" stroke-width="1" opacity="0.8862745098039215" d="M 62.5 35 L 61.5 37 L 62.5 35 Z " /><path fill="rgb(24,17,11)" stroke="rgb(24,17,11)" stroke-width="1" opacity="0.8862745098039215" d="M 59.5 37 L 55.5 42 L 59.5 37 Z " /><path fill="rgb(24,17,11)" stroke="rgb(24,17,11)" stroke-width="1" opacity="0.8862745098039215" d="M 77.5 41 L 78 44 L 76 43.5 L 77.5 41 Z " /><path fill="rgb(24,17,11)" stroke="rgb(24,17,11)" stroke-width="1" opacity="0.8862745098039215" d="M 51.5 45 L 49.5 48 L 51.5 45 Z " /><path fill="rgb(24,17,11)" stroke="rgb(24,17,11)" stroke-width="1" opacity="0.8862745098039215" d="M 76.5 49 L 77 52 L 80 52.5 L 77.5 53 Q 75 52 76.5 49 Z " /><path fill="rgb(24,17,11)" stroke="rgb(24,17,11)" stroke-width="1" opacity="0.8862745098039215" d="M 105.5 49 L 111 49.5 L 105.5 50 L 105.5 49 Z " /><path fill="rgb(24,17,11)" stroke="rgb(24,17,11)" stroke-width="1" opacity="0.8862745098039215" d="M 47.5 50 L 48 51.5 L 46 52.5 L 47.5 50 Z " /><path fill="rgb(24,17,11)" stroke="rgb(24,17,11)" stroke-width="1" opacity="0.8862745098039215" d="M 90.5 50 L 96 50.5 L 90.5 51 L 90.5 50 Z " /><path fill="rgb(24,17,11)" stroke="rgb(24,17,11)" stroke-width="1" opacity="0.8862745098039215" d="M 116.5 50 L 121 50.5 L 116.5 51 L 116.5 50 Z " /><path fill="rgb(24,17,11)" stroke="rgb(24,17,11)" stroke-width="1" opacity="0.8862745098039215" d="M 83.5 51 L 87 51.5 L 83.5 52 L 83.5 51 Z " /><path fill="rgb(24,17,11)" stroke="rgb(24,17,11)" stroke-width="1" opacity="0.8862745098039215" d="M 123.5 51 L 126 51.5 L 123.5 52 L 123.5 51 Z " /><path fill="rgb(24,17,11)" stroke="rgb(24,17,11)" stroke-width="1" opacity="0.8862745098039215" d="M 127.5 52 L 138 55.5 L 136.5 56 L 127.5 53 L 127.5 52 Z " /><path fill="rgb(24,17,11)" stroke="rgb(24,17,11)" stroke-width="1" opacity="0.8862745098039215" d="M 168.5 64 L 172 64.5 L 168.5 65 L 168.5 64 Z " /><path fill="rgb(24,17,11)" stroke="rgb(24,17,11)" stroke-width="1" opacity="0.8862745098039215" d="M 182.5 64 L 183 70.5 L 182 70.5 L 182.5 64 Z " /><path fill="rgb(24,17,11)" stroke="rgb(24,17,11)" stroke-width="1" opacity="0.8862745098039215" d="M 155.5 65 L 164 65.5 L 155.5 66 L 155.5 65 Z " /><path fill="rgb(24,17,11)" stroke="rgb(24,17,11)" stroke-width="1" opacity="0.8862745098039215" d="M 39.5 67 L 38.5 69 L 39.5 67 Z " /><path fill="rgb(24,17,11)" stroke="rgb(24,17,11)" stroke-width="1" opacity="0.8862745098039215" d="M 32.5 71 L 31.5 73 L 26.5 76 L 27.5 74 L 32.5 71 Z " /><path fill="rgb(24,17,11)" stroke="rgb(24,17,11)" stroke-width="1" opacity="0.8862745098039215" d="M 181.5 73 L 182 75.5 L 181 75.5 L 181.5 73 Z " /><path fill="rgb(24,17,11)" stroke="rgb(24,17,11)" stroke-width="1" opacity="0.8862745098039215" d="M 20.5 81 L 18.5 84 L 20.5 81 Z " /><path fill="rgb(24,17,11)" stroke="rgb(24,17,11)" stroke-width="1" opacity="0.8862745098039215" d="M 175.5 93 L 178.5 97 L 175.5 93 Z " /><path fill="rgb(24,17,11)" stroke="rgb(24,17,11)" stroke-width="1" opacity="0.8862745098039215" d="M 15.5 98 L 16 100.5 L 15 100.5 L 15.5 98 Z " /><path fill="rgb(24,17,11)" stroke="rgb(24,17,11)" stroke-width="1" opacity="0.8862745098039215" d="M 181.5 99 L 184.5 103 L 181.5 99 Z " /><path fill="rgb(24,17,11)" stroke="rgb(24,17,11)" stroke-width="1" opacity="0.8862745098039215" d="M 184.5 104 L 186 104.5 L 180.5 109 L 184.5 104 Z " /><path fill="rgb(24,17,11)" stroke="rgb(24,17,11)" stroke-width="1" opacity="0.8862745098039215" d="M 178.5 109 L 177.5 111 L 178.5 109 Z " /><path fill="rgb(24,17,11)" stroke="rgb(24,17,11)" stroke-width="1" opacity="0.8862745098039215" d="M 21.5 113 L 23.5 116 L 21.5 113 Z " /><path fill="rgb(24,17,11)" stroke="rgb(24,17,11)" stroke-width="1" opacity="0.8862745098039215" d="M 173.5 113 L 172.5 115 L 173.5 113 Z " /><path fill="rgb(24,17,11)" stroke="rgb(24,17,11)" stroke-width="1" opacity="0.8862745098039215" d="M 170.5 115 L 164.5 122 L 165 120.5 Q 164.3 118.3 166.5 119 L 170.5 115 Z " /><path fill="rgb(24,17,11)" stroke="rgb(24,17,11)" stroke-width="1" opacity="0.8862745098039215" d="M 28.5 118 L 29 121.5 L 28 121.5 L 28.5 118 Z " /><path fill="rgb(24,17,11)" stroke="rgb(24,17,11)" stroke-width="1" opacity="0.8862745098039215" d="M 29.5 123 L 30 125.5 L 29 125.5 L 29.5 123 Z " /><path fill="rgb(24,17,11)" stroke="rgb(24,17,11)" stroke-width="1" opacity="0.8862745098039215" d="M 161.5 124 L 160.5 126 L 158 127.5 L 160 130.5 L 158.5 130 Q 155.9 130.8 157 127.5 L 161.5 124 Z " /><path fill="rgb(24,17,11)" stroke="rgb(24,17,11)" stroke-width="1" opacity="0.8862745098039215" d="M 32.5 130 L 36 132.5 L 34.5 133 L 32.5 130 Z " /><path fill="rgb(24,17,11)" stroke="rgb(24,17,11)" stroke-width="1" opacity="0.8862745098039215" d="M 160.5 132 L 161 134.5 L 160 134.5 L 160.5 132 Z " /><path fill="rgb(24,17,11)" stroke="rgb(24,17,11)" stroke-width="1" opacity="0.8862745098039215" d="M 37.5 134 L 38.5 136 L 37.5 134 Z " /><path fill="rgb(24,17,11)" stroke="rgb(24,17,11)" stroke-width="1" opacity="0.8862745098039215" d="M 159.5 136 L 160 137.5 L 158.5 140 L 158 138.5 L 159.5 136 Z " /><path fill="rgb(24,17,11)" stroke="rgb(24,17,11)" stroke-width="1" opacity="0.8862745098039215" d="M 44.5 140 L 46 142.5 L 44 143.5 L 44 141.5 L 44.5 140 Z " /><path fill="rgb(24,17,11)" stroke="rgb(24,17,11)" stroke-width="1" opacity="0.8862745098039215" d="M 157.5 141 L 157 142.5 L 165 151.5 L 156 143.5 L 157.5 141 Z " /><path fill="rgb(24,17,11)" stroke="rgb(24,17,11)" stroke-width="1" opacity="0.8862745098039215" d="M 42.5 144 L 41.5 146 L 38.5 148 L 40.5 145 L 42.5 144 Z " /><path fill="rgb(24,17,11)" stroke="rgb(24,17,11)" stroke-width="1" opacity="0.8862745098039215" d="M 12.5 146 L 14 146.5 L 10.5 149 L 12.5 146 Z " /><path fill="rgb(24,17,11)" stroke="rgb(24,17,11)" stroke-width="1" opacity="0.8862745098039215" d="M 15.5 146 L 23.5 155 L 15.5 146 Z " /><path fill="rgb(24,17,11)" stroke="rgb(24,17,11)" stroke-width="1" opacity="0.8862745098039215" d="M 5.5 155 L 3.5 158 L 5.5 155 Z " /><path fill="rgb(24,17,11)" stroke="rgb(24,17,11)" stroke-width="1" opacity="0.8862745098039215" d="M 40.5 155 L 45 159.5 L 43.5 161 L 44 159.5 L 40.5 155 Z " /><path fill="rgb(24,17,11)" stroke="rgb(24,17,11)" stroke-width="1" opacity="0.8862745098039215" d="M 27.5 158 L 28.5 160 Q 25.7 160.7 27.5 158 Z " /><path fill="rgb(24,17,11)" stroke="rgb(24,17,11)" stroke-width="1" opacity="0.8862745098039215" d="M 165.5 158 L 166 159.5 L 164 160.5 L 165.5 158 Z " /><path fill="rgb(24,17,11)" stroke="rgb(24,17,11)" stroke-width="1" opacity="0.8862745098039215" d="M 30.5 160 L 36 161.5 L 34.5 162 L 30.5 161 L 30.5 160 Z " /><path fill="rgb(24,17,11)" stroke="rgb(24,17,11)" stroke-width="1" opacity="0.8862745098039215" d="M 1.5 162 L 8 169.5 L 8 171.5 L 7 171.5 L 7 169.5 L 1 163.5 L 1.5 162 Z " /><path fill="rgb(24,17,11)" stroke="rgb(24,17,11)" stroke-width="1" opacity="0.8862745098039215" d="M 157.5 162 L 160 162.5 L 157 163.5 L 173.5 181 L 156 163.5 L 157.5 162 Z " /><path fill="rgb(24,17,11)" stroke="rgb(24,17,11)" stroke-width="1" opacity="0.8862745098039215" d="M 10.5 179 L 11.5 181 L 10.5 179 Z " /><path fill="rgb(24,17,11)" stroke="rgb(24,17,11)" stroke-width="1" opacity="0.8862745098039215" d="M 14.5 184 L 19.5 190 L 14.5 184 Z " /><path fill="rgb(24,17,11)" stroke="rgb(24,17,11)" stroke-width="1" opacity="0.8862745098039215" d="M 182.5 189 L 192 199.5 L 187 195.5 L 182.5 189 Z " /><path fill="rgb(24,17,11)" stroke="rgb(24,17,11)" stroke-width="1" opacity="0.8862745098039215" d="M 21.5 190 L 22.5 192 L 21.5 190 Z " /><path fill="rgb(24,17,11)" stroke="rgb(24,17,11)" stroke-width="1" opacity="0.8862745098039215" d="M 24.5 192 L 25.5 194 L 24.5 192 Z " /></svg>