<svg width="200" height="200" version="1.1" xmlns="http://www.w3.org/2000/svg" desc="Created with imagetracer.js version 1.2.6" ><path fill="rgb(0,0,0)" stroke="rgb(0,0,0)" stroke-width="1" opacity="0" d="M 0 0 L 200 0 L 200 200 L 163.5 200 L 163 198.5 Q 166.9 190.9 165 177.5 L 160 161.5 L 165.5 155 L 173.5 162 L 177.5 162 L 182 158.5 L 188 151.5 L 189 145.5 L 180 131.5 L 196 113.5 L 199 106.5 Q 194.3 96.2 185.5 90 L 181.5 89 L 160.5 114 L 157 111.5 Q 161 105 159 92.5 L 158 91.5 L 158 79.5 L 156 74.5 Q 165.2 70.7 171 63.5 L 173 59.5 L 173 45.5 Q 168.1 29.9 156.5 21 L 130.5 1 L 126.5 1 L 125 2.5 L 125 14.5 L 127 21.5 L 125.5 21 L 106.5 15 L 100 9.5 L 96.5 5 L 82.5 5 L 73.5 3 L 70.5 1 L 66.5 1 Q 63 2 64 7.5 Q 71.8 22.3 84.5 32 Q 91.5 36.7 101 38 L 99 44 L 85.5 46 L 67.5 54 L 67 44.5 L 68 43.5 L 69 30.5 L 63.5 28 Q 51.5 38.5 44 53.5 Q 36.5 67.5 36 88.5 Q 37.5 97.5 43 102.5 Q 41.7 109.3 44 112.5 L 40 109.5 L 24.5 92 Q 17.3 92.3 15 97.5 L 6 111.5 Q 16.2 126.3 30 137.5 Q 22.9 142.9 20 152.5 Q 21.4 158.6 26.5 161 Q 29.4 165.1 37.5 164 L 44.5 157 L 47 159.5 Q 37.3 167.8 32 180.5 L 30 188.5 L 30 196.5 L 31 200 L 0.5 200 L 0 199.5 L 0 0 Z " /><path fill="rgb(0,0,0)" stroke="rgb(0,0,0)" stroke-width="1" opacity="0" d="M 119 43 L 125 47.5 L 123.5 48 L 120 47 L 119 43 Z " /><path fill="rgb(0,0,0)" stroke="rgb(0,0,0)" stroke-width="1" opacity="0" d="M 147 45 L 152 48.5 L 153 50.5 L 149.5 56 L 147 45 Z " /><path fill="rgb(0,0,0)" stroke="rgb(0,0,0)" stroke-width="1" opacity="0.9215686274509803" d="M 80.5 5 L 83 5.5 L 80.5 6 L 80.5 5 Z " /><path fill="rgb(0,0,0)" stroke="rgb(0,0,0)" stroke-width="1" opacity="0.9215686274509803" d="M 134.5 5 L 135.5 7 L 134.5 5 Z " /><path fill="rgb(0,0,0)" stroke="rgb(0,0,0)" stroke-width="1" opacity="0.9215686274509803" d="M 138.5 8 L 139.5 10 L 138.5 8 Z " /><path fill="rgb(0,0,0)" stroke="rgb(0,0,0)" stroke-width="1" opacity="0.9215686274509803" d="M 99.5 10 L 100.5 12 L 99.5 10 Z " /><path fill="rgb(0,0,0)" stroke="rgb(0,0,0)" stroke-width="1" opacity="0.9215686274509803" d="M 67.5 11 L 68.5 13 L 67.5 11 Z " /><path fill="rgb(0,0,0)" stroke="rgb(0,0,0)" stroke-width="1" opacity="0.9215686274509803" d="M 142.5 11 L 143.5 13 L 142.5 11 Z " /><path fill="rgb(0,0,0)" stroke="rgb(0,0,0)" stroke-width="1" opacity="0.9215686274509803" d="M 69.5 14 L 70.5 16 L 69.5 14 Z " /><path fill="rgb(0,0,0)" stroke="rgb(0,0,0)" stroke-width="1" opacity="0.9215686274509803" d="M 146.5 14 L 147.5 16 L 146.5 14 Z " /><path fill="rgb(0,0,0)" stroke="rgb(0,0,0)" stroke-width="1" opacity="0.9215686274509803" d="M 72.5 18 L 73.5 20 L 72.5 18 Z " /><path fill="rgb(0,0,0)" stroke="rgb(0,0,0)" stroke-width="1" opacity="0.9215686274509803" d="M 151.5 18 L 153.5 21 L 151.5 18 Z " /><path fill="rgb(0,0,0)" stroke="rgb(0,0,0)" stroke-width="1" opacity="0.9215686274509803" d="M 128.5 22 L 129 24 L 127 23.5 L 128.5 22 Z " /><path fill="rgb(0,0,0)" stroke="rgb(0,0,0)" stroke-width="1" opacity="0.9215686274509803" d="M 157.5 23 L 161.5 28 L 157.5 23 Z " /><path fill="rgb(0,0,0)" stroke="rgb(0,0,0)" stroke-width="1" opacity="0.9215686274509803" d="M 82.5 28 L 84.5 31 L 82.5 28 Z " /><path fill="rgb(0,0,0)" stroke="rgb(0,0,0)" stroke-width="1" opacity="0.9215686274509803" d="M 63.5 29 L 59.5 34 L 63.5 29 Z " /><path fill="rgb(0,0,0)" stroke="rgb(0,0,0)" stroke-width="1" opacity="0.9215686274509803" d="M 66.5 29 L 67.5 31 L 66.5 29 Z " /><path fill="rgb(0,0,0)" stroke="rgb(0,0,0)" stroke-width="1" opacity="0.9215686274509803" d="M 164.5 31 L 165.5 33 L 164.5 31 Z " /><path fill="rgb(0,0,0)" stroke="rgb(0,0,0)" stroke-width="1" opacity="0.9215686274509803" d="M 67.5 35 L 68 37.5 L 67 37.5 L 67.5 35 Z " /><path fill="rgb(0,0,0)" stroke="rgb(0,0,0)" stroke-width="1" opacity="0.9215686274509803" d="M 98.5 36 L 101 36.5 L 98.5 37 L 98.5 36 Z " /><path fill="rgb(0,0,0)" stroke="rgb(0,0,0)" stroke-width="1" opacity="0.9215686274509803" d="M 55.5 38 L 53.5 41 L 55.5 38 Z " /><path fill="rgb(0,0,0)" stroke="rgb(0,0,0)" stroke-width="1" opacity="0.9215686274509803" d="M 66.5 42 L 67 47.5 L 66 47.5 L 66.5 42 Z " /><path fill="rgb(0,0,0)" stroke="rgb(0,0,0)" stroke-width="1" opacity="0.9215686274509803" d="M 145.5 42 L 146 44.5 L 145 44.5 L 145.5 42 Z " /><path fill="rgb(0,0,0)" stroke="rgb(0,0,0)" stroke-width="1" opacity="0.9215686274509803" d="M 122.5 43 L 123.5 45 L 122.5 43 Z " /><path fill="rgb(0,0,0)" stroke="rgb(0,0,0)" stroke-width="1" opacity="0.9215686274509803" d="M 99.5 44 L 98.5 46 L 96 45.5 L 99.5 44 Z " /><path fill="rgb(0,0,0)" stroke="rgb(0,0,0)" stroke-width="1" opacity="0.9215686274509803" d="M 149.5 44 L 152.5 48 L 149.5 44 Z " /><path fill="rgb(0,0,0)" stroke="rgb(0,0,0)" stroke-width="1" opacity="0.9215686274509803" d="M 171.5 44 L 172 47.5 L 171 47.5 L 171.5 44 Z " /><path fill="rgb(0,0,0)" stroke="rgb(0,0,0)" stroke-width="1" opacity="0.9215686274509803" d="M 49.5 46 L 48.5 48 L 49.5 46 Z " /><path fill="rgb(0,0,0)" stroke="rgb(0,0,0)" stroke-width="1" opacity="0.9215686274509803" d="M 126.5 47 L 127.5 49 L 126.5 47 Z " /><path fill="rgb(0,0,0)" stroke="rgb(0,0,0)" stroke-width="1" opacity="0.9215686274509803" d="M 153.5 49 L 154 51.5 L 153 51.5 L 153.5 49 Z " /><path fill="rgb(0,0,0)" stroke="rgb(0,0,0)" stroke-width="1" opacity="0.9215686274509803" d="M 147.5 52 L 148 57.5 L 147 57.5 L 147.5 52 Z " /><path fill="rgb(0,0,0)" stroke="rgb(0,0,0)" stroke-width="1" opacity="0.9215686274509803" d="M 169.5 63 L 165.5 68 L 169.5 63 Z " /><path fill="rgb(0,0,0)" stroke="rgb(0,0,0)" stroke-width="1" opacity="0.9215686274509803" d="M 160.5 70 L 159.5 72 L 160.5 70 Z " /><path fill="rgb(0,0,0)" stroke="rgb(0,0,0)" stroke-width="1" opacity="0.9215686274509803" d="M 37.5 78 L 38 80.5 L 37 80.5 L 37.5 78 Z " /><path fill="rgb(0,0,0)" stroke="rgb(0,0,0)" stroke-width="1" opacity="0.9215686274509803" d="M 37.5 87 L 38 90.5 L 37 90.5 L 37.5 87 Z " /><path fill="rgb(0,0,0)" stroke="rgb(0,0,0)" stroke-width="1" opacity="0.9215686274509803" d="M 180.5 91 L 179.5 93 L 180.5 91 Z " /><path fill="rgb(0,0,0)" stroke="rgb(0,0,0)" stroke-width="1" opacity="0.9215686274509803" d="M 185.5 91 L 192.5 99 L 185.5 91 Z " /><path fill="rgb(0,0,0)" stroke="rgb(0,0,0)" stroke-width="1" opacity="0.9215686274509803" d="M 21.5 93 L 24 93.5 L 21.5 94 L 21.5 93 Z " /><path fill="rgb(0,0,0)" stroke="rgb(0,0,0)" stroke-width="1" opacity="0.9215686274509803" d="M 19.5 94 L 16.5 98 L 19.5 94 Z " /><path fill="rgb(0,0,0)" stroke="rgb(0,0,0)" stroke-width="1" opacity="0.9215686274509803" d="M 25.5 94 L 26.5 96 L 25.5 94 Z " /><path fill="rgb(0,0,0)" stroke="rgb(0,0,0)" stroke-width="1" opacity="0.9215686274509803" d="M 27.5 97 L 35.5 106 L 27.5 97 Z " /><path fill="rgb(0,0,0)" stroke="rgb(0,0,0)" stroke-width="1" opacity="0.9215686274509803" d="M 175.5 97 L 174.5 99 L 175.5 97 Z " /><path fill="rgb(0,0,0)" stroke="rgb(0,0,0)" stroke-width="1" opacity="0.9215686274509803" d="M 14.5 100 L 12.5 103 L 14.5 100 Z " /><path fill="rgb(0,0,0)" stroke="rgb(0,0,0)" stroke-width="1" opacity="0.9215686274509803" d="M 171.5 102 L 169.5 105 L 171.5 102 Z " /><path fill="rgb(0,0,0)" stroke="rgb(0,0,0)" stroke-width="1" opacity="0.9215686274509803" d="M 195.5 102 L 196.5 104 L 195.5 102 Z " /><path fill="rgb(0,0,0)" stroke="rgb(0,0,0)" stroke-width="1" opacity="0.9215686274509803" d="M 44.5 108 L 45 110.5 L 44 110.5 L 44.5 108 Z " /><path fill="rgb(0,0,0)" stroke="rgb(0,0,0)" stroke-width="1" opacity="0.9215686274509803" d="M 165.5 110 L 162.5 114 L 165.5 110 Z " /><path fill="rgb(0,0,0)" stroke="rgb(0,0,0)" stroke-width="1" opacity="0.9215686274509803" d="M 42.5 113 L 46 115.5 L 44.5 116 L 42.5 113 Z " /><path fill="rgb(0,0,0)" stroke="rgb(0,0,0)" stroke-width="1" opacity="0.9215686274509803" d="M 157.5 113 L 158.5 115 L 157.5 113 Z " /><path fill="rgb(0,0,0)" stroke="rgb(0,0,0)" stroke-width="1" opacity="0.9215686274509803" d="M 194.5 113 L 193.5 115 L 194.5 113 Z " /><path fill="rgb(0,0,0)" stroke="rgb(0,0,0)" stroke-width="1" opacity="0.9215686274509803" d="M 191.5 117 L 186.5 123 L 191.5 117 Z " /><path fill="rgb(0,0,0)" stroke="rgb(0,0,0)" stroke-width="1" opacity="0.9215686274509803" d="M 18.5 124 L 30.5 137 L 18.5 124 Z " /><path fill="rgb(0,0,0)" stroke="rgb(0,0,0)" stroke-width="1" opacity="0.9215686274509803" d="M 182.5 127 L 179.5 131 L 182.5 127 Z " /><path fill="rgb(0,0,0)" stroke="rgb(0,0,0)" stroke-width="1" opacity="0.9215686274509803" d="M 182.5 137 L 184.5 140 L 182.5 137 Z " /><path fill="rgb(0,0,0)" stroke="rgb(0,0,0)" stroke-width="1" opacity="0.9215686274509803" d="M 30.5 138 L 27.5 142 L 30.5 138 Z " /><path fill="rgb(0,0,0)" stroke="rgb(0,0,0)" stroke-width="1" opacity="0.9215686274509803" d="M 185.5 141 L 186.5 143 L 185.5 141 Z " /><path fill="rgb(0,0,0)" stroke="rgb(0,0,0)" stroke-width="1" opacity="0.9215686274509803" d="M 186.5 151 L 184.5 154 L 186.5 151 Z " /><path fill="rgb(0,0,0)" stroke="rgb(0,0,0)" stroke-width="1" opacity="0.9215686274509803" d="M 165.5 153 L 174 160.5 L 166.5 154 L 164.5 155 L 165.5 153 Z " /><path fill="rgb(0,0,0)" stroke="rgb(0,0,0)" stroke-width="1" opacity="0.9215686274509803" d="M 22.5 155 L 25.5 159 L 22.5 155 Z " /><path fill="rgb(0,0,0)" stroke="rgb(0,0,0)" stroke-width="1" opacity="0.9215686274509803" d="M 43.5 156 L 37.5 163 L 43.5 156 Z " /><path fill="rgb(0,0,0)" stroke="rgb(0,0,0)" stroke-width="1" opacity="0.9215686274509803" d="M 162.5 157 L 159.5 161 L 162.5 157 Z " /><path fill="rgb(0,0,0)" stroke="rgb(0,0,0)" stroke-width="1" opacity="0.9215686274509803" d="M 28.5 160 L 29.5 162 L 28.5 160 Z " /><path fill="rgb(0,0,0)" stroke="rgb(0,0,0)" stroke-width="1" opacity="0.9215686274509803" d="M 44.5 164 L 40.5 169 L 44.5 164 Z " /><path fill="rgb(0,0,0)" stroke="rgb(0,0,0)" stroke-width="1" opacity="0.9215686274509803" d="M 38.5 171 L 37.5 173 L 38.5 171 Z " /><path fill="rgb(0,0,0)" stroke="rgb(0,0,0)" stroke-width="1" opacity="0.9215686274509803" d="M 163.5 175 L 164 177.5 L 163 177.5 L 163.5 175 Z " /><path fill="rgb(0,0,0)" stroke="rgb(0,0,0)" stroke-width="1" opacity="0.9215686274509803" d="M 164.5 182 L 165 187.5 L 164 187.5 L 164.5 182 Z " /><path fill="rgb(0,0,0)" stroke="rgb(0,0,0)" stroke-width="1" opacity="0.9215686274509803" d="M 31.5 186 L 32 188.5 L 31 188.5 L 31.5 186 Z " /><path fill="rgb(0,0,0)" stroke="rgb(0,0,0)" stroke-width="1" opacity="0.9215686274509803" d="M 31.5 195 L 32 197.5 L 31 197.5 L 31.5 195 Z " /><path fill="rgb(192,100,75)" stroke="rgb(192,100,75)" stroke-width="1" opacity="1" d="M 75.5 11 Q 82.2 13.3 92.5 12 L 95 14.5 L 98.5 19 L 104.5 22 L 117.5 25 L 130 31.5 L 124.5 32 L 115 30 L 113.5 27 L 110.5 25 L 107 27.5 Q 107.9 30.9 102.5 29 L 100.5 30 L 87.5 25 L 77 14.5 L 75.5 11 Z " /><path fill="rgb(192,100,75)" stroke="rgb(192,100,75)" stroke-width="1" opacity="1" d="M 132.5 12 L 149.5 24 L 162 36.5 L 165 42.5 L 166 56.5 L 165 56.5 Q 163.1 44.9 154.5 40 L 145.5 35 Q 138.8 36.7 137 33.5 L 132.5 12 Z " /><path fill="rgb(192,100,75)" stroke="rgb(192,100,75)" stroke-width="1" opacity="1" d="M 95.5 66 L 96 72.5 L 95 72.5 L 95.5 66 Z " /><path fill="rgb(192,100,75)" stroke="rgb(192,100,75)" stroke-width="1" opacity="1" d="M 100.5 67 L 102 67.5 L 102 74.5 L 103 78.5 L 102 78.5 L 100.5 67 Z " /><path fill="rgb(192,100,75)" stroke="rgb(192,100,75)" stroke-width="1" opacity="1" d="M 96.5 75 L 97 79.5 L 96 79.5 L 96.5 75 Z " /><path fill="rgb(192,100,75)" stroke="rgb(192,100,75)" stroke-width="1" opacity="1" d="M 63.5 77 L 66 78.5 L 64.5 79 L 63.5 77 Z " /><path fill="rgb(192,100,75)" stroke="rgb(192,100,75)" stroke-width="1" opacity="1" d="M 68.5 77 L 67.5 79 L 68.5 77 Z " /><path fill="rgb(192,100,75)" stroke="rgb(192,100,75)" stroke-width="1" opacity="1" d="M 148 77 Q 150.7 75.9 150 78.5 L 151 84 Q 145.8 86.1 147 81.5 Q 144.5 80 148 78.5 L 148 77 Z " /><path fill="rgb(192,100,75)" stroke="rgb(192,100,75)" stroke-width="1" opacity="1" d="M 103.5 80 L 106 85.5 L 102.5 88 L 102.5 87 L 105 85.5 L 103.5 80 Z " /><path fill="rgb(192,100,75)" stroke="rgb(192,100,75)" stroke-width="1" opacity="1" d="M 97.5 81 L 101 86.5 L 98 84.5 L 97.5 81 Z " /><path fill="rgb(192,100,75)" stroke="rgb(192,100,75)" stroke-width="1" opacity="1" d="M 107.5 92 L 107 93.5 Q 101.2 104.7 91.5 112 Q 89.3 112.8 90 110.5 Q 87.6 105.4 81.5 104 L 77 107.5 L 76.5 113 L 60 97.5 L 62.5 97 L 71.5 102 L 77.5 95 L 82.5 94 Q 89.7 95.3 93.5 100 L 107.5 92 Z " /><path fill="rgb(192,100,75)" stroke="rgb(192,100,75)" stroke-width="1" opacity="1" d="M 146.5 97 L 150.5 100 L 151.5 97 L 152 100.5 L 149 110.5 L 141.5 119 Q 138.9 119.8 140 116.5 Q 142.7 113.2 142 106.5 L 141 100 L 146.5 97 Z " /><path fill="rgb(192,100,75)" stroke="rgb(192,100,75)" stroke-width="1" opacity="1" d="M 118.5 98 L 127.5 98 L 129 99.5 L 130 106.5 L 127 116.5 L 121.5 122 L 121 120.5 Q 126.8 114.6 125 102 Q 107.5 106.8 96.5 119 L 97 117.5 L 105.5 106 L 118.5 98 Z " /><path fill="rgb(192,100,75)" stroke="rgb(192,100,75)" stroke-width="1" opacity="1" d="M 50.5 99 L 53 100.5 L 51.5 104 L 50 103.5 L 52 103 Q 53.5 99.3 50.5 100 L 50.5 99 Z " /><path fill="rgb(192,100,75)" stroke="rgb(192,100,75)" stroke-width="1" opacity="1" d="M 182.5 99 L 181.5 101 L 182.5 99 Z " /><path fill="rgb(192,100,75)" stroke="rgb(192,100,75)" stroke-width="1" opacity="1" d="M 184.5 99 L 187.5 103 L 184.5 99 Z " /><path fill="rgb(192,100,75)" stroke="rgb(192,100,75)" stroke-width="1" opacity="1" d="M 21.5 101 L 27 105.5 L 32 111.5 L 32 113.5 L 24.5 121 L 19 115.5 Q 19.8 113.3 17.5 114 L 21 109.5 L 24 103.5 L 21.5 101 Z " /><path fill="rgb(192,100,75)" stroke="rgb(192,100,75)" stroke-width="1" opacity="1" d="M 180.5 102 L 177.5 106 L 180.5 102 Z " /><path fill="rgb(192,100,75)" stroke="rgb(192,100,75)" stroke-width="1" opacity="1" d="M 20.5 103 L 19.5 105 L 20.5 103 Z " /><path fill="rgb(192,100,75)" stroke="rgb(192,100,75)" stroke-width="1" opacity="1" d="M 183.5 104 L 185.5 104 L 190 108.5 L 184.5 115 L 176 107.5 L 178.5 109 L 182 106.5 L 183.5 104 Z " /><path fill="rgb(192,100,75)" stroke="rgb(192,100,75)" stroke-width="1" opacity="1" d="M 51.5 106 L 56.5 106 L 64.5 109 L 79 121.5 L 77.5 121 L 57 110.5 Q 58.8 104.4 51.5 107 L 51.5 106 Z " /><path fill="rgb(192,100,75)" stroke="rgb(192,100,75)" stroke-width="1" opacity="1" d="M 16.5 109 L 17 111.5 L 16 111.5 L 16.5 109 Z " /><path fill="rgb(192,100,75)" stroke="rgb(192,100,75)" stroke-width="1" opacity="1" d="M 52.5 121 L 53.5 123 L 52.5 121 Z " /><path fill="rgb(192,100,75)" stroke="rgb(192,100,75)" stroke-width="1" opacity="1" d="M 152.5 121 L 153 123.5 L 166 136.5 L 168 144 L 174 145 L 175 150.5 L 174 152.5 L 174.5 154 L 148 128.5 L 152.5 121 Z " /><path fill="rgb(192,100,75)" stroke="rgb(192,100,75)" stroke-width="1" opacity="1" d="M 155.5 121 Q 156.1 126.9 161 128.5 L 155 123.5 L 155.5 121 Z " /><path fill="rgb(192,100,75)" stroke="rgb(192,100,75)" stroke-width="1" opacity="1" d="M 55.5 123 L 58.5 127 L 55.5 123 Z " /><path fill="rgb(192,100,75)" stroke="rgb(192,100,75)" stroke-width="1" opacity="1" d="M 60.5 127 L 61.5 129 L 60.5 127 Z " /><path fill="rgb(192,100,75)" stroke="rgb(192,100,75)" stroke-width="1" opacity="1" d="M 48.5 129 L 49.5 131 L 48.5 130 L 36 141.5 L 48.5 129 Z " /><path fill="rgb(192,100,75)" stroke="rgb(192,100,75)" stroke-width="1" opacity="1" d="M 70.5 131 L 73 131.5 L 70.5 132 L 70.5 131 Z " /><path fill="rgb(192,100,75)" stroke="rgb(192,100,75)" stroke-width="1" opacity="1" d="M 128.5 131 Q 130.8 130.3 130 132.5 L 125.5 138 L 125 136.5 L 128.5 131 Z " /><path fill="rgb(192,100,75)" stroke="rgb(192,100,75)" stroke-width="1" opacity="1" d="M 164.5 131 L 170.5 138 L 164.5 131 Z " /><path fill="rgb(192,100,75)" stroke="rgb(192,100,75)" stroke-width="1" opacity="1" d="M 50.5 132 L 53 137.5 L 34.5 157 L 28 152.5 L 28.5 151 L 29 153 L 31.5 153 L 34.5 150 Q 38.3 150.8 39 148.5 Q 37.5 142.5 40.5 141 L 50.5 132 Z " /><path fill="rgb(192,100,75)" stroke="rgb(192,100,75)" stroke-width="1" opacity="1" d="M 69.5 135 L 71.5 138 L 69.5 135 Z " /><path fill="rgb(192,100,75)" stroke="rgb(192,100,75)" stroke-width="1" opacity="1" d="M 174.5 138 L 178.5 143 L 174.5 138 Z " /><path fill="rgb(192,100,75)" stroke="rgb(192,100,75)" stroke-width="1" opacity="1" d="M 34.5 144 L 29.5 150 L 34.5 144 Z " /><path fill="rgb(192,100,75)" stroke="rgb(192,100,75)" stroke-width="1" opacity="1" d="M 179.5 144 L 180.5 146 L 179.5 144 Z " /><path fill="rgb(192,100,75)" stroke="rgb(192,100,75)" stroke-width="1" opacity="1" d="M 180.5 148 L 176.5 153 L 180.5 148 Z " /><path fill="rgb(192,100,75)" stroke="rgb(192,100,75)" stroke-width="1" opacity="1" d="M 121.5 175 L 129.5 175 L 131 176.5 Q 127.9 181.9 119.5 182 L 112 179.5 L 121.5 175 Z " /><path fill="rgb(192,100,75)" stroke="rgb(192,100,75)" stroke-width="1" opacity="1" d="M 70.5 182 L 83 182.5 L 77.5 191 L 67 184.5 L 70.5 182 Z " /><path fill="rgb(192,100,75)" stroke="rgb(192,100,75)" stroke-width="1" opacity="1" d="M 92.5 184 L 106 186 L 99 197.5 L 99 200 L 93.5 200 L 85 196 L 87 188.5 L 90.5 185 L 92.5 184 Z " /><path fill="rgb(0,0,0)" stroke="rgb(0,0,0)" stroke-width="1" opacity="1" d="M 66.5 2 L 80.5 6 L 96.5 6 L 98 7.5 L 103.5 15 L 120.5 20 L 129 24 L 126 12.5 L 126 3.5 L 129.5 2 Q 148.6 14.4 164 30.5 L 171 41.5 L 172 57.5 Q 169.9 65.4 163.5 69 L 155 73 L 157 80.5 L 157 88.5 L 157 90.5 L 158 104.5 L 156 112.5 L 160.5 116 L 181.5 91 L 184.5 91 L 195 101.5 Q 197.8 103.2 197 108.5 L 193 115.5 L 179 130.5 L 179 133.5 L 187 143.5 L 188 147.5 Q 184.8 155.3 178.5 160 L 174.5 161 L 165.5 153 L 159 160.5 L 159 162.5 L 164 178.5 L 164 192.5 L 162 200 L 154.5 200 L 154 198.5 L 157 194.5 L 158 184.5 L 154 165.5 Q 149.5 154 140.5 147 L 131.5 141 Q 123.3 152 109 156 L 106 164.5 L 95 176.5 Q 97.4 179.1 103.5 178 L 117.5 169 L 127.5 167 L 135.5 170 L 139 173.5 Q 139 182.5 132.5 185 L 127.5 188 L 118.5 189 L 115.5 188 L 105.5 200 Q 99.4 201.3 100 198.5 L 108 186.5 L 106.5 185 L 91.5 182 L 71.5 181 L 65 183 Q 63.9 185.7 66.5 185 L 90 199.5 L 77.5 200 L 57 185.5 L 56 180.5 L 68 159 Q 75.5 156.3 73 164.5 Q 67.2 169 66 177 L 68.5 176 L 85 176 Q 82.7 170.4 84 159.5 Q 86.3 158.3 83.5 157 L 68.5 152 Q 56.2 159.2 47 169.5 L 39 181.5 L 37 194.5 L 39 199.5 L 33.5 200 Q 30.2 196.8 31 189.5 Q 32.5 180 37 173.5 L 48 159.5 L 43.5 156 L 36.5 163 L 32.5 163 L 22 154.5 L 22 150.5 Q 25.1 143.1 31 138.5 L 31 136.5 L 8 113.5 L 8 110.5 Q 12.6 100.6 20.5 94 Q 26 93 27 96.5 L 40 112 Q 42.7 110.9 42 113.5 L 45.5 116 L 45 114.5 L 44 102.5 L 38 92.5 L 37 81.5 L 39 70.5 L 48 48.5 Q 54.8 37.3 64.5 29 L 68 31.5 L 66 42.5 L 66 55 L 83.5 48 L 91.5 46 L 98.5 46 L 100 44.5 L 102 37.5 L 100.5 36 L 96.5 36 L 88.5 33 L 74 20.5 L 67 10.5 L 65 3.5 L 66.5 2 Z M 73 9 L 79 19 L 91 28 L 104 32 L 106 31 L 110 26 L 114 28 L 115 33 L 129 41 L 134 49 L 136 56 L 141 60 L 142 59 L 142 52 L 139 43 Q 137 39 133 39 Q 128 37 130 30 L 120 25 L 101 19 L 95 13 L 94 11 L 81 11 L 73 9 Z M 131 11 L 136 29 L 136 34 L 138 35 L 146 36 L 157 43 L 159 47 L 158 56 L 146 67 L 152 70 L 164 62 L 167 58 L 166 44 L 161 35 Q 148 20 131 11 Z M 110 37 L 102 56 L 102 65 Q 76 63 63 75 L 60 69 L 60 46 L 61 45 L 61 42 Q 48 55 44 76 L 44 91 L 49 99 L 49 103 L 49 105 L 48 107 L 52 125 L 61 139 L 68 145 L 86 153 Q 109 155 121 145 L 130 135 L 136 118 L 136 106 L 134 95 L 119 67 L 110 37 Z M 118 40 L 118 46 L 126 50 Q 129 51 128 49 L 118 40 Z M 146 42 Q 144 46 147 49 L 147 58 L 149 58 L 154 52 L 153 48 L 146 42 Z M 96 51 L 83 54 L 69 61 Q 66 62 67 66 L 85 61 L 95 61 L 97 55 Q 98 50 96 51 Z M 122 55 L 125 67 L 134 82 L 137 82 L 143 76 L 143 73 L 138 66 Q 132 57 122 55 Z M 148 75 L 144 83 L 137 87 L 139 90 Q 143 84 153 85 L 152 79 L 150 77 Q 151 74 148 75 Z M 148 91 L 140 98 L 140 107 L 141 108 L 139 120 L 143 119 Q 149 114 152 106 L 152 95 L 151 93 L 148 91 Z M 183 98 L 168 117 L 163 122 L 171 129 L 176 127 L 191 108 L 186 100 L 183 98 Z M 21 100 L 15 111 L 19 117 L 36 133 L 44 125 L 28 106 L 21 100 Z M 154 118 L 147 129 L 174 154 L 177 154 L 182 148 L 177 140 Q 176 136 171 137 L 169 135 L 166 132 L 157 124 L 157 119 L 154 118 Z M 141 127 L 138 128 L 137 132 L 142 128 L 141 127 Z M 48 129 L 27 152 L 28 154 L 33 157 L 36 157 L 54 138 L 51 131 L 48 129 Z M 145 135 L 141 140 Q 140 142 143 141 L 153 153 L 157 155 L 161 149 L 147 135 L 145 135 Z M 58 143 L 49 151 Q 49 155 53 156 L 62 150 L 63 148 L 58 143 Z M 92 159 L 91 163 L 92 170 L 100 160 L 92 159 Z M 122 174 L 113 178 L 111 181 L 120 183 L 128 181 L 132 176 L 131 174 L 122 174 Z " /><path fill="rgb(0,0,0)" stroke="rgb(0,0,0)" stroke-width="1" opacity="1" d="M 123.5 103 L 124 112.5 Q 122.6 120.6 116.5 124 L 109.5 126 L 103.5 126 L 96 121.5 L 101.5 115 L 123.5 103 Z M 117 110 L 102 119 L 103 122 L 113 122 L 118 116 L 119 111 L 117 110 Z " /><path fill="rgb(0,0,0)" stroke="rgb(0,0,0)" stroke-width="1" opacity="1" d="M 54 111 L 80 123 L 77.5 129 Q 74.3 131.3 67.5 130 L 58 123.5 L 54 114.5 L 54 111 Z M 60 117 L 62 122 L 69 126 Q 76 127 75 124 L 60 117 Z " /><path fill="rgb(217,190,179)" stroke="rgb(217,190,179)" stroke-width="1" opacity="1" d="M 108 40 Q 110.7 38.9 110 41.5 L 109 42.5 L 108 62.5 L 111 76.5 L 114.5 81 L 120.5 83 L 125 82 L 125.5 80 L 130 87.5 Q 125.9 93.9 115.5 94 L 109.5 92 L 106.5 96 L 107 94.5 L 106 92.5 L 109 91.5 L 104 87.5 L 106 84.5 Q 100.3 77.2 102 62.5 L 104 51.5 L 108 40 Z " /><path fill="rgb(217,190,179)" stroke="rgb(217,190,179)" stroke-width="1" opacity="1" d="M 59.5 44 L 60 47.5 L 59 47.5 L 58.5 46 L 57 46.5 L 59.5 44 Z " /><path fill="rgb(217,190,179)" stroke="rgb(217,190,179)" stroke-width="1" opacity="1" d="M 55.5 50 L 56 53.5 L 52 63.5 L 52 78.5 L 53 83.5 L 56.5 89 L 57.5 88 L 64 88 L 64 90.5 L 60 95.5 L 62 96.5 L 60 97.5 L 65.5 104 L 59 98.5 L 57 105.5 L 59 106.5 L 57.5 107 Q 56.2 104.8 51.5 106 L 50 106.5 Q 48.9 103.2 51.5 104 L 53 100.5 L 50 99 L 45 90.5 L 45 74.5 Q 48.2 60.2 55.5 50 Z " /><path fill="rgb(217,190,179)" stroke="rgb(217,190,179)" stroke-width="1" opacity="1" d="M 86.5 66 L 92 66.5 L 86.5 67 L 86.5 66 Z " /><path fill="rgb(217,190,179)" stroke="rgb(217,190,179)" stroke-width="1" opacity="1" d="M 81.5 67 L 84 67.5 L 81.5 68 L 81.5 67 Z " /><path fill="rgb(217,190,179)" stroke="rgb(217,190,179)" stroke-width="1" opacity="1" d="M 95.5 73 L 96 77.5 L 95 77.5 L 95.5 73 Z " /><path fill="rgb(217,190,179)" stroke="rgb(217,190,179)" stroke-width="1" opacity="1" d="M 69.5 74 L 70 77.5 L 69 80 Q 63.5 81.3 62 77.5 L 61 75.5 L 63 76.5 L 64.5 79 Q 68.3 79.8 69 77.5 L 69.5 74 Z " /><path fill="rgb(217,190,179)" stroke="rgb(217,190,179)" stroke-width="1" opacity="1" d="M 98.5 85 L 102 87.5 L 100.5 88 L 98.5 85 Z " /><path fill="rgb(217,190,179)" stroke="rgb(217,190,179)" stroke-width="1" opacity="1" d="M 146.5 92 Q 150.3 91.3 151 93.5 L 150.5 100 L 146.5 97 L 141 100 L 141 97.5 L 146.5 92 Z " /><path fill="rgb(217,190,179)" stroke="rgb(217,190,179)" stroke-width="1" opacity="1" d="M 104.5 93 L 103.5 95 L 101.5 96 L 102.5 94 L 104.5 93 Z " /><path fill="rgb(217,190,179)" stroke="rgb(217,190,179)" stroke-width="1" opacity="1" d="M 78.5 94 L 81 94.5 L 78.5 95 L 78.5 94 Z " /><path fill="rgb(217,190,179)" stroke="rgb(217,190,179)" stroke-width="1" opacity="1" d="M 83.5 94 L 88 95.5 L 86.5 96 L 83.5 95 L 83.5 94 Z " /><path fill="rgb(217,190,179)" stroke="rgb(217,190,179)" stroke-width="1" opacity="1" d="M 76.5 95 L 74 98.5 L 71.5 102 L 68 99.5 L 69.5 100 L 71.5 101 L 76.5 95 Z " /><path fill="rgb(217,190,179)" stroke="rgb(217,190,179)" stroke-width="1" opacity="1" d="M 89.5 96 L 94 99.5 L 92.5 100 L 89.5 96 Z " /><path fill="rgb(217,190,179)" stroke="rgb(217,190,179)" stroke-width="1" opacity="1" d="M 105.5 97 L 102.5 101 L 105.5 97 Z " /><path fill="rgb(217,190,179)" stroke="rgb(217,190,179)" stroke-width="1" opacity="1" d="M 119.5 97 L 127 97.5 L 119.5 98 L 119.5 97 Z " /><path fill="rgb(217,190,179)" stroke="rgb(217,190,179)" stroke-width="1" opacity="1" d="M 116.5 98 L 118 98.5 L 113.5 101 L 114.5 99 L 116.5 98 Z " /><path fill="rgb(217,190,179)" stroke="rgb(217,190,179)" stroke-width="1" opacity="1" d="M 133.5 98 L 134 101.5 L 133 101.5 L 133.5 98 Z " /><path fill="rgb(217,190,179)" stroke="rgb(217,190,179)" stroke-width="1" opacity="1" d="M 183.5 99 Q 188.6 101.4 190 107.5 L 185.5 104 L 182 105.5 L 179.5 109 L 177 107.5 L 183.5 99 Z " /><path fill="rgb(217,190,179)" stroke="rgb(217,190,179)" stroke-width="1" opacity="1" d="M 129.5 100 L 130 104.5 L 129 104.5 L 129.5 100 Z " /><path fill="rgb(217,190,179)" stroke="rgb(217,190,179)" stroke-width="1" opacity="1" d="M 21 102 L 24 103.5 L 24 105.5 L 17.5 113 L 17 108.5 L 21 102 Z " /><path fill="rgb(217,190,179)" stroke="rgb(217,190,179)" stroke-width="1" opacity="1" d="M 109.5 102 L 106.5 106 L 109.5 102 Z " /><path fill="rgb(217,190,179)" stroke="rgb(217,190,179)" stroke-width="1" opacity="1" d="M 100.5 103 L 93.5 111 L 100.5 103 Z " /><path fill="rgb(217,190,179)" stroke="rgb(217,190,179)" stroke-width="1" opacity="1" d="M 79.5 105 L 78 107.5 L 77.5 109 L 77 107.5 L 79.5 105 Z " /><path fill="rgb(217,190,179)" stroke="rgb(217,190,179)" stroke-width="1" opacity="1" d="M 84.5 105 L 85.5 107 L 84.5 105 Z " /><path fill="rgb(217,190,179)" stroke="rgb(217,190,179)" stroke-width="1" opacity="1" d="M 134.5 106 L 135 110.5 L 134 110.5 L 134.5 106 Z " /><path fill="rgb(217,190,179)" stroke="rgb(217,190,179)" stroke-width="1" opacity="1" d="M 129.5 107 L 130 110.5 L 129 110.5 L 129.5 107 Z " /><path fill="rgb(217,190,179)" stroke="rgb(217,190,179)" stroke-width="1" opacity="1" d="M 65.5 109 L 66.5 111 L 65.5 109 Z " /><path fill="rgb(217,190,179)" stroke="rgb(217,190,179)" stroke-width="1" opacity="1" d="M 72.5 109 L 77 112.5 L 77.5 111 L 78 114 L 76.5 114 L 72.5 109 Z " /><path fill="rgb(217,190,179)" stroke="rgb(217,190,179)" stroke-width="1" opacity="1" d="M 102.5 109 L 98.5 114 L 102.5 109 Z " /><path fill="rgb(217,190,179)" stroke="rgb(217,190,179)" stroke-width="1" opacity="1" d="M 68.5 111 L 70.5 114 L 68.5 111 Z " /><path fill="rgb(217,190,179)" stroke="rgb(217,190,179)" stroke-width="1" opacity="1" d="M 72.5 114 L 78.5 121 L 72.5 114 Z " /><path fill="rgb(217,190,179)" stroke="rgb(217,190,179)" stroke-width="1" opacity="1" d="M 97.5 115 L 97 116.5 L 96.5 118 L 96 116.5 L 97.5 115 Z " /><path fill="rgb(217,190,179)" stroke="rgb(217,190,179)" stroke-width="1" opacity="1" d="M 106.5 117 L 105.5 119 L 106.5 117 Z " /><path fill="rgb(217,190,179)" stroke="rgb(217,190,179)" stroke-width="1" opacity="1" d="M 114.5 118 L 113.5 120 L 114.5 118 Z " /><path fill="rgb(217,190,179)" stroke="rgb(217,190,179)" stroke-width="1" opacity="1" d="M 125.5 118 L 122.5 122 L 125.5 118 Z " /><path fill="rgb(217,190,179)" stroke="rgb(217,190,179)" stroke-width="1" opacity="1" d="M 134.5 118 L 133.5 120 L 132 119.5 L 134.5 118 Z " /><path fill="rgb(217,190,179)" stroke="rgb(217,190,179)" stroke-width="1" opacity="1" d="M 154.5 119 Q 157.2 120.3 155 121.5 L 155 123.5 L 160.5 129 L 172.5 139 L 173.5 138 L 179 143.5 L 181 147.5 L 174 153 L 175 147.5 L 174 145 L 168 144 L 166 136.5 L 153 123.5 L 153 120.5 L 154.5 119 Z " /><path fill="rgb(217,190,179)" stroke="rgb(217,190,179)" stroke-width="1" opacity="1" d="M 63.5 121 L 65.5 124 L 63.5 121 Z " /><path fill="rgb(217,190,179)" stroke="rgb(217,190,179)" stroke-width="1" opacity="1" d="M 95.5 122 L 96.5 124 L 95.5 122 Z " /><path fill="rgb(217,190,179)" stroke="rgb(217,190,179)" stroke-width="1" opacity="1" d="M 53.5 123 Q 59.2 129.8 70 131.5 L 69.5 133 L 81.5 138 L 93.5 140 L 94.5 139 L 104.5 139 L 110.5 136 L 109 138.5 L 106 151 Q 98.5 153.3 85.5 152 L 81.5 151 L 77 146.5 L 69.5 135 L 55 127.5 L 53.5 123 Z " /><path fill="rgb(217,190,179)" stroke="rgb(217,190,179)" stroke-width="1" opacity="1" d="M 118.5 123 L 117.5 125 L 118.5 123 Z " /><path fill="rgb(217,190,179)" stroke="rgb(217,190,179)" stroke-width="1" opacity="1" d="M 120.5 125 L 119.5 127 L 120.5 125 Z " /><path fill="rgb(217,190,179)" stroke="rgb(217,190,179)" stroke-width="1" opacity="1" d="M 110.5 126 L 113 126.5 L 110.5 127 L 110.5 126 Z " /><path fill="rgb(217,190,179)" stroke="rgb(217,190,179)" stroke-width="1" opacity="1" d="M 117.5 127 L 112.5 133 L 117.5 127 Z " /><path fill="rgb(217,190,179)" stroke="rgb(217,190,179)" stroke-width="1" opacity="1" d="M 79.5 128 L 78.5 130 L 79.5 128 Z " /><path fill="rgb(217,190,179)" stroke="rgb(217,190,179)" stroke-width="1" opacity="1" d="M 48.5 130 L 50 132.5 L 39 142.5 Q 40.5 148.5 37.5 150 L 34.5 150 Q 33.3 153.7 29 153 L 29 150.5 L 48.5 130 Z " /><path fill="rgb(234,230,237)" stroke="rgb(234,230,237)" stroke-width="1" opacity="1" d="M 109 44 L 111 44.5 L 109.5 50 L 109 44 Z " /><path fill="rgb(234,230,237)" stroke="rgb(234,230,237)" stroke-width="1" opacity="1" d="M 56.5 50 L 57 52.5 L 56 52.5 L 56.5 50 Z " /><path fill="rgb(234,230,237)" stroke="rgb(234,230,237)" stroke-width="1" opacity="1" d="M 58.5 50 L 59 65.5 L 58 65.5 L 58.5 50 Z " /><path fill="rgb(234,230,237)" stroke="rgb(234,230,237)" stroke-width="1" opacity="1" d="M 108.5 55 L 109 62.5 L 108 62.5 L 108.5 55 Z " /><path fill="rgb(234,230,237)" stroke="rgb(234,230,237)" stroke-width="1" opacity="1" d="M 52.5 63 L 53 65.5 L 52 65.5 L 52.5 63 Z " /><path fill="rgb(234,230,237)" stroke="rgb(234,230,237)" stroke-width="1" opacity="1" d="M 92 66 L 95 67.5 L 94.5 72 L 94 68 Q 91 69 92 66 Z " /><path fill="rgb(234,230,237)" stroke="rgb(234,230,237)" stroke-width="1" opacity="1" d="M 109.5 66 L 110 68.5 L 109 68.5 L 109.5 66 Z " /><path fill="rgb(234,230,237)" stroke="rgb(234,230,237)" stroke-width="1" opacity="1" d="M 52.5 76 L 53 78.5 L 52 78.5 L 52.5 76 Z " /><path fill="rgb(234,230,237)" stroke="rgb(234,230,237)" stroke-width="1" opacity="1" d="M 62.5 78 Q 63.8 80.8 68 80.5 L 64.5 81 L 62.5 78 Z " /><path fill="rgb(234,230,237)" stroke="rgb(234,230,237)" stroke-width="1" opacity="1" d="M 124.5 79 L 125 82 L 123 81.5 L 124.5 79 Z " /><path fill="rgb(234,230,237)" stroke="rgb(234,230,237)" stroke-width="1" opacity="1" d="M 53.5 81 L 54 83.5 L 53 83.5 L 53.5 81 Z " /><path fill="rgb(234,230,237)" stroke="rgb(234,230,237)" stroke-width="1" opacity="1" d="M 55.5 87 L 56.5 89 L 55.5 87 Z " /><path fill="rgb(234,230,237)" stroke="rgb(234,230,237)" stroke-width="1" opacity="1" d="M 61.5 87 Q 66.3 85.3 65 89.5 L 64 89.5 Q 64.8 86.9 61.5 88 L 61.5 87 Z " /><path fill="rgb(234,230,237)" stroke="rgb(234,230,237)" stroke-width="1" opacity="1" d="M 101.5 88 L 105 88.5 L 101.5 89 L 101.5 88 Z " /><path fill="rgb(234,230,237)" stroke="rgb(234,230,237)" stroke-width="1" opacity="1" d="M 128.5 88 L 130 88.5 L 125.5 92 L 128.5 88 Z " /><path fill="rgb(234,230,237)" stroke="rgb(234,230,237)" stroke-width="1" opacity="1" d="M 106.5 89 L 108.5 92 Q 106.3 92.8 107 90.5 L 106.5 89 Z " /><path fill="rgb(234,230,237)" stroke="rgb(234,230,237)" stroke-width="1" opacity="1" d="M 63.5 91 L 62.5 93 L 63.5 91 Z " /><path fill="rgb(234,230,237)" stroke="rgb(234,230,237)" stroke-width="1" opacity="1" d="M 102.5 101 L 101.5 103 L 102.5 101 Z " /><path fill="rgb(234,230,237)" stroke="rgb(234,230,237)" stroke-width="1" opacity="1" d="M 58.5 102 L 59 104.5 L 57 105.5 L 58.5 102 Z " /><path fill="rgb(234,230,237)" stroke="rgb(234,230,237)" stroke-width="1" opacity="1" d="M 66.5 104 L 71.5 110 L 66.5 104 Z " /><path fill="rgb(234,230,237)" stroke="rgb(234,230,237)" stroke-width="1" opacity="1" d="M 105.5 105 L 103.5 108 L 105.5 105 Z " /><path fill="rgb(234,230,237)" stroke="rgb(234,230,237)" stroke-width="1" opacity="1" d="M 86.5 107 L 88.5 110 L 86.5 107 Z " /><path fill="rgb(234,230,237)" stroke="rgb(234,230,237)" stroke-width="1" opacity="1" d="M 92.5 111 L 91.5 113 L 92.5 111 Z " /><path fill="rgb(234,230,237)" stroke="rgb(234,230,237)" stroke-width="1" opacity="1" d="M 115.5 112 Q 118.1 111.2 117 114.5 L 111.5 121 L 104.5 121 L 104 119 L 115.5 112 Z " /><path fill="rgb(234,230,237)" stroke="rgb(234,230,237)" stroke-width="1" opacity="1" d="M 134.5 115 L 135 117.5 L 134 117.5 L 134.5 115 Z " /><path fill="rgb(234,230,237)" stroke="rgb(234,230,237)" stroke-width="1" opacity="1" d="M 62.5 119 L 73 124.5 L 68.5 125 L 62.5 119 Z " /><path fill="rgb(234,230,237)" stroke="rgb(234,230,237)" stroke-width="1" opacity="1" d="M 95.5 123 L 98 124.5 L 96.5 125 L 95.5 123 Z " /><path fill="rgb(234,230,237)" stroke="rgb(234,230,237)" stroke-width="1" opacity="1" d="M 103.5 127 L 111 127.5 L 103.5 128 L 103.5 127 Z " /><path fill="rgb(234,230,237)" stroke="rgb(234,230,237)" stroke-width="1" opacity="1" d="M 85.5 138 L 89 138.5 L 85.5 139 L 85.5 138 Z " /><path fill="rgb(234,230,237)" stroke="rgb(234,230,237)" stroke-width="1" opacity="1" d="M 101.5 138 L 105 138.5 L 101.5 139 L 101.5 138 Z " /><path fill="rgb(99,40,42)" stroke="rgb(99,40,42)" stroke-width="1" opacity="1" d="M 74 10 L 77 10.5 L 75 11.5 L 76.5 14 L 74 10 Z " /><path fill="rgb(99,40,42)" stroke="rgb(99,40,42)" stroke-width="1" opacity="1" d="M 79.5 11 L 84 11.5 L 79.5 12 L 79.5 11 Z " /><path fill="rgb(99,40,42)" stroke="rgb(99,40,42)" stroke-width="1" opacity="1" d="M 93.5 12 L 99 18.5 L 95 15.5 L 93.5 12 Z " /><path fill="rgb(99,40,42)" stroke="rgb(99,40,42)" stroke-width="1" opacity="1" d="M 133.5 12 L 134.5 14 L 133.5 12 Z " /><path fill="rgb(99,40,42)" stroke="rgb(99,40,42)" stroke-width="1" opacity="1" d="M 77.5 15 L 86.5 25 L 77.5 15 Z " /><path fill="rgb(99,40,42)" stroke="rgb(99,40,42)" stroke-width="1" opacity="1" d="M 140.5 17 L 141.5 19 L 140.5 17 Z " /><path fill="rgb(99,40,42)" stroke="rgb(99,40,42)" stroke-width="1" opacity="1" d="M 100.5 19 L 103 20.5 L 101.5 21 L 100.5 19 Z " /><path fill="rgb(99,40,42)" stroke="rgb(99,40,42)" stroke-width="1" opacity="1" d="M 143.5 19 L 144.5 21 L 143.5 19 Z " /><path fill="rgb(99,40,42)" stroke="rgb(99,40,42)" stroke-width="1" opacity="1" d="M 147.5 22 L 148.5 24 L 147.5 22 Z " /><path fill="rgb(99,40,42)" stroke="rgb(99,40,42)" stroke-width="1" opacity="1" d="M 88.5 25 L 91 26.5 L 89.5 27 L 88.5 25 Z " /><path fill="rgb(99,40,42)" stroke="rgb(99,40,42)" stroke-width="1" opacity="1" d="M 108.5 26 L 107.5 28 L 108.5 26 Z " /><path fill="rgb(99,40,42)" stroke="rgb(99,40,42)" stroke-width="1" opacity="1" d="M 113.5 27 L 114.5 29 L 113.5 27 Z " /><path fill="rgb(99,40,42)" stroke="rgb(99,40,42)" stroke-width="1" opacity="1" d="M 153.5 27 L 156.5 31 L 153.5 27 Z " /><path fill="rgb(99,40,42)" stroke="rgb(99,40,42)" stroke-width="1" opacity="1" d="M 94.5 28 L 100 29.5 L 96.5 30 L 94.5 28 Z " /><path fill="rgb(99,40,42)" stroke="rgb(99,40,42)" stroke-width="1" opacity="1" d="M 102.5 29 L 106 29.5 Q 105.3 31.8 101.5 31 L 102.5 29 Z " /><path fill="rgb(99,40,42)" stroke="rgb(99,40,42)" stroke-width="1" opacity="1" d="M 115.5 30 L 119 30.5 L 115.5 31 L 115.5 30 Z " /><path fill="rgb(99,40,42)" stroke="rgb(99,40,42)" stroke-width="1" opacity="1" d="M 121.5 31 L 124 31.5 L 121.5 32 L 121.5 31 Z " /><path fill="rgb(99,40,42)" stroke="rgb(99,40,42)" stroke-width="1" opacity="1" d="M 125.5 32 L 130 32.5 L 125.5 33 L 125.5 32 Z " /><path fill="rgb(99,40,42)" stroke="rgb(99,40,42)" stroke-width="1" opacity="1" d="M 125.5 37 L 138 41 Q 142.4 46.4 141 58.5 L 136 54.5 L 133 45.5 L 125.5 37 Z " /><path fill="rgb(99,40,42)" stroke="rgb(99,40,42)" stroke-width="1" opacity="1" d="M 151.5 38 L 152.5 40 L 151.5 38 Z " /><path fill="rgb(99,40,42)" stroke="rgb(99,40,42)" stroke-width="1" opacity="1" d="M 154.5 40 Q 163.6 45.9 166 58.5 L 165 58.5 L 162 49.5 L 154.5 40 Z " /><path fill="rgb(99,40,42)" stroke="rgb(99,40,42)" stroke-width="1" opacity="1" d="M 165.5 44 L 166 46.5 L 165 46.5 L 165.5 44 Z " /><path fill="rgb(99,40,42)" stroke="rgb(99,40,42)" stroke-width="1" opacity="1" d="M 158.5 56 L 160 65 L 151.5 69 L 147 66.5 L 158.5 56 Z " /><path fill="rgb(99,40,42)" stroke="rgb(99,40,42)" stroke-width="1" opacity="1" d="M 64.5 74 L 63.5 76 L 62 75.5 L 64.5 74 Z " /><path fill="rgb(99,40,42)" stroke="rgb(99,40,42)" stroke-width="1" opacity="1" d="M 148.5 76 L 151 77.5 L 150.5 79 L 150 77 L 148.5 76 Z " /><path fill="rgb(99,40,42)" stroke="rgb(99,40,42)" stroke-width="1" opacity="1" d="M 147.5 78 L 146.5 80 L 147.5 78 Z " /><path fill="rgb(99,40,42)" stroke="rgb(99,40,42)" stroke-width="1" opacity="1" d="M 151.5 80 L 152 85 L 144.5 85 L 138 89 Q 136.9 86.3 139.5 87 L 147 81 Q 145.4 85.9 151 84 L 151.5 80 Z " /><path fill="rgb(99,40,42)" stroke="rgb(99,40,42)" stroke-width="1" opacity="1" d="M 188.5 103 L 189.5 105 L 188.5 103 Z " /><path fill="rgb(99,40,42)" stroke="rgb(99,40,42)" stroke-width="1" opacity="1" d="M 27.5 106 L 33 111.5 L 33 113.5 L 25 120.5 L 32 113.5 L 32 111.5 L 27.5 106 Z " /><path fill="rgb(99,40,42)" stroke="rgb(99,40,42)" stroke-width="1" opacity="1" d="M 50.5 107 L 57 107 L 57 110.5 L 57.5 112 Q 55.8 108.3 54 111.5 Q 53.7 123.8 62 127.5 L 60.5 127 L 52 120.5 L 49 108.5 L 50.5 107 Z " /><path fill="rgb(99,40,42)" stroke="rgb(99,40,42)" stroke-width="1" opacity="1" d="M 124.5 108 L 125 112.5 L 124 112.5 L 124.5 108 Z " /><path fill="rgb(99,40,42)" stroke="rgb(99,40,42)" stroke-width="1" opacity="1" d="M 176.5 108 L 184 114.5 L 183.5 116 L 176.5 108 Z " /><path fill="rgb(99,40,42)" stroke="rgb(99,40,42)" stroke-width="1" opacity="1" d="M 108.5 109 L 107.5 111 L 108.5 109 Z " /><path fill="rgb(99,40,42)" stroke="rgb(99,40,42)" stroke-width="1" opacity="1" d="M 188.5 110 L 186.5 113 L 188.5 110 Z " /><path fill="rgb(99,40,42)" stroke="rgb(99,40,42)" stroke-width="1" opacity="1" d="M 105.5 111 L 104.5 113 L 105.5 111 Z " /><path fill="rgb(99,40,42)" stroke="rgb(99,40,42)" stroke-width="1" opacity="1" d="M 59.5 112 L 68 116.5 L 66.5 117 L 60.5 114 L 59.5 112 Z " /><path fill="rgb(99,40,42)" stroke="rgb(99,40,42)" stroke-width="1" opacity="1" d="M 102.5 113 L 96.5 120 L 102.5 113 Z " /><path fill="rgb(99,40,42)" stroke="rgb(99,40,42)" stroke-width="1" opacity="1" d="M 171.5 113 L 174 114.5 L 176.5 118 L 179 119.5 L 179 121.5 L 172.5 128 L 170.5 128 L 164 121.5 L 165.5 122 Q 170.5 122.5 171 118.5 L 173 115.5 Q 171 112 169 116.5 L 167.5 119 L 166 118.5 L 171.5 113 Z " /><path fill="rgb(99,40,42)" stroke="rgb(99,40,42)" stroke-width="1" opacity="1" d="M 123.5 114 L 124 116.5 L 121.5 120 L 122 118.5 L 123.5 114 Z " /><path fill="rgb(99,40,42)" stroke="rgb(99,40,42)" stroke-width="1" opacity="1" d="M 20.5 117 L 23.5 121 L 20.5 117 Z " /><path fill="rgb(99,40,42)" stroke="rgb(99,40,42)" stroke-width="1" opacity="1" d="M 37.5 119 L 43 123.5 L 35.5 132 L 30 126.5 L 37.5 119 Z " /><path fill="rgb(99,40,42)" stroke="rgb(99,40,42)" stroke-width="1" opacity="1" d="M 73.5 119 L 76 120.5 L 74.5 120 L 73.5 119 Z " /><path fill="rgb(99,40,42)" stroke="rgb(99,40,42)" stroke-width="1" opacity="1" d="M 156.5 122 L 158 124.5 L 156 123.5 L 156.5 122 Z " /><path fill="rgb(99,40,42)" stroke="rgb(99,40,42)" stroke-width="1" opacity="1" d="M 131.5 126 L 132 129.5 L 130.5 132 L 128.5 131 L 125 137.5 L 128 135.5 L 129.5 133 L 129 134.5 L 119.5 145 L 112 149 Q 113.7 138.3 120.5 132 L 131.5 126 Z " /><path fill="rgb(99,40,42)" stroke="rgb(99,40,42)" stroke-width="1" opacity="1" d="M 149.5 126 L 148.5 128 L 149.5 126 Z " /><path fill="rgb(99,40,42)" stroke="rgb(99,40,42)" stroke-width="1" opacity="1" d="M 116.5 129 L 114.5 132 L 116.5 129 Z " /><path fill="rgb(99,40,42)" stroke="rgb(99,40,42)" stroke-width="1" opacity="1" d="M 148.5 129 L 150.5 132 L 148.5 129 Z " /><path fill="rgb(99,40,42)" stroke="rgb(99,40,42)" stroke-width="1" opacity="1" d="M 162.5 129 L 163.5 131 L 162.5 129 Z " /><path fill="rgb(99,40,42)" stroke="rgb(99,40,42)" stroke-width="1" opacity="1" d="M 52.5 135 L 54 137.5 L 38 152.5 L 53 136.5 L 52.5 135 Z " /><path fill="rgb(99,40,42)" stroke="rgb(99,40,42)" stroke-width="1" opacity="1" d="M 145.5 135 L 160 148.5 L 157 155 Q 154.3 156.1 155 153.5 L 145.5 142 L 142 140.5 Q 141.5 135.5 145.5 135 Z " /><path fill="rgb(99,40,42)" stroke="rgb(99,40,42)" stroke-width="1" opacity="1" d="M 69.5 136 L 70.5 138 L 69.5 136 Z " /><path fill="rgb(99,40,42)" stroke="rgb(99,40,42)" stroke-width="1" opacity="1" d="M 63.5 139 L 68 142.5 L 67.5 144 L 63.5 139 Z " /><path fill="rgb(99,40,42)" stroke="rgb(99,40,42)" stroke-width="1" opacity="1" d="M 35.5 142 L 32.5 146 L 35.5 142 Z " /><path fill="rgb(99,40,42)" stroke="rgb(99,40,42)" stroke-width="1" opacity="1" d="M 57.5 144 L 62 147.5 L 52.5 155 Q 46 152 51.5 149 L 57.5 144 Z " /><path fill="rgb(99,40,42)" stroke="rgb(99,40,42)" stroke-width="1" opacity="1" d="M 164.5 144 L 173.5 154 L 164.5 144 Z " /><path fill="rgb(99,40,42)" stroke="rgb(99,40,42)" stroke-width="1" opacity="1" d="M 107.5 146 L 108 148.5 L 107 148.5 L 107.5 146 Z " /><path fill="rgb(99,40,42)" stroke="rgb(99,40,42)" stroke-width="1" opacity="1" d="M 30.5 154 L 31.5 156 L 30.5 154 Z " /><path fill="rgb(99,40,42)" stroke="rgb(99,40,42)" stroke-width="1" opacity="1" d="M 123.5 174 L 129 174.5 L 123.5 175 L 123.5 174 Z " /><path fill="rgb(99,40,42)" stroke="rgb(99,40,42)" stroke-width="1" opacity="1" d="M 130.5 175 Q 132.8 174.3 132 176.5 L 126.5 181 L 127.5 179 L 131 176.5 L 130.5 175 Z " /><path fill="rgb(99,40,42)" stroke="rgb(99,40,42)" stroke-width="1" opacity="1" d="M 83.5 182 L 94 183.5 L 88 186 L 85 196 L 93 199.5 L 91.5 200 L 84 195.5 L 85 189 L 80.5 188 L 79 192 L 66 184.5 Q 65.3 182.3 67.5 183 L 67.5 185 L 77.5 191 L 83.5 182 Z " /><path fill="rgb(99,40,42)" stroke="rgb(99,40,42)" stroke-width="1" opacity="1" d="M 97.5 184 L 100 184.5 L 97.5 185 L 97.5 184 Z " /><path fill="rgb(99,40,42)" stroke="rgb(99,40,42)" stroke-width="1" opacity="1" d="M 102.5 185 L 105 185.5 L 102.5 186 L 102.5 185 Z " /><path fill="rgb(99,40,42)" stroke="rgb(99,40,42)" stroke-width="1" opacity="1" d="M 106 186 L 108 186.5 L 105 188.5 L 106 186 Z " /><path fill="rgb(99,40,42)" stroke="rgb(99,40,42)" stroke-width="1" opacity="1" d="M 103.5 191 L 102.5 193 L 103.5 191 Z " /><path fill="rgb(99,40,42)" stroke="rgb(99,40,42)" stroke-width="1" opacity="1" d="M 100.5 196 L 100 197.5 L 99.5 200 L 99 197.5 L 100.5 196 Z " /><path fill="rgb(239,230,237)" stroke="rgb(239,230,237)" stroke-width="1" opacity="1" d="M 110.5 45 L 116 63.5 L 124 77.5 L 124 80.5 Q 123 83 118.5 82 L 113 80 L 109 65.5 L 109 50.5 L 110.5 45 Z " /><path fill="rgb(239,230,237)" stroke="rgb(239,230,237)" stroke-width="1" opacity="1" d="M 58.5 46 L 59 49.5 L 58 50.5 L 58 65.5 L 61 76.5 L 64.5 81 Q 69.3 81.8 70 78.5 Q 68.5 72.5 71.5 71 Q 79.8 67.3 91.5 67 L 94 68 L 96 82.5 L 101.5 89 Q 106 88 107 90.5 L 105.5 93 L 92.5 99 Q 89.5 92.5 78.5 94 L 73 98.5 L 71.5 101 L 61 96 L 65 89.5 L 65 87 L 56.5 88 Q 51 80.5 52 66.5 L 57 50.5 Q 54.5 49 58 47.5 L 58.5 46 Z " /><path fill="rgb(239,230,237)" stroke="rgb(239,230,237)" stroke-width="1" opacity="1" d="M 128.5 89 Q 130.8 88.3 130 90.5 L 133 97.5 L 135 114.5 L 134 119 Q 122.2 122.3 114 129 L 110 137 L 100.5 139 L 89.5 139 L 79.5 137 L 70 132.5 Q 77.5 133 80 128.5 L 81 122 Q 78.3 123.1 79 120.5 Q 70.9 110.6 58 105.5 L 60.5 99 Q 67.3 108.8 78.5 114 L 78 112.5 Q 76.8 106.3 80.5 105 L 83.5 105 L 90 111.5 Q 89.3 113.8 91.5 113 Q 102.3 104.3 109.5 92 Q 112.8 95.2 120.5 94 L 128.5 89 Z M 120 97 L 106 105 L 96 117 L 95 124 L 104 128 L 111 128 L 125 121 L 130 111 L 130 100 Q 128 95 120 97 Z " /><path fill="rgb(40,21,22)" stroke="rgb(40,21,22)" stroke-width="1" opacity="1" d="M 73 9 L 75 9.5 L 73 10.5 L 73 9 Z " /><path fill="rgb(40,21,22)" stroke="rgb(40,21,22)" stroke-width="1" opacity="1" d="M 77.5 10 L 80 10.5 L 77.5 11 L 77.5 10 Z " /><path fill="rgb(40,21,22)" stroke="rgb(40,21,22)" stroke-width="1" opacity="1" d="M 84.5 11 L 93.5 11 L 95 12.5 L 93.5 12 L 84.5 12 L 84.5 11 Z " /><path fill="rgb(40,21,22)" stroke="rgb(40,21,22)" stroke-width="1" opacity="1" d="M 131 11 L 133 11.5 L 131 12.5 L 131 11 Z " /><path fill="rgb(40,21,22)" stroke="rgb(40,21,22)" stroke-width="1" opacity="1" d="M 75.5 13 L 76.5 15 L 75.5 13 Z " /><path fill="rgb(40,21,22)" stroke="rgb(40,21,22)" stroke-width="1" opacity="1" d="M 96.5 15 L 99.5 19 L 96.5 15 Z " /><path fill="rgb(40,21,22)" stroke="rgb(40,21,22)" stroke-width="1" opacity="1" d="M 79.5 18 L 82.5 22 L 79.5 18 Z " /><path fill="rgb(40,21,22)" stroke="rgb(40,21,22)" stroke-width="1" opacity="1" d="M 151.5 25 L 152.5 27 L 151.5 25 Z " /><path fill="rgb(40,21,22)" stroke="rgb(40,21,22)" stroke-width="1" opacity="1" d="M 111.5 26 L 112.5 28 L 111.5 26 Z " /><path fill="rgb(40,21,22)" stroke="rgb(40,21,22)" stroke-width="1" opacity="1" d="M 90.5 27 L 94 28.5 L 92.5 29 L 90.5 27 Z " /><path fill="rgb(40,21,22)" stroke="rgb(40,21,22)" stroke-width="1" opacity="1" d="M 107.5 28 L 105.5 31 L 107.5 28 Z " /><path fill="rgb(40,21,22)" stroke="rgb(40,21,22)" stroke-width="1" opacity="1" d="M 98.5 30 L 101 30.5 L 98.5 31 L 98.5 30 Z " /><path fill="rgb(40,21,22)" stroke="rgb(40,21,22)" stroke-width="1" opacity="1" d="M 115 31 L 130 33 Q 129 37.3 132 38.5 L 130.5 38 L 125.5 37 L 127.5 41 L 122.5 36 L 115 32.5 L 115 31 Z " /><path fill="rgb(40,21,22)" stroke="rgb(40,21,22)" stroke-width="1" opacity="1" d="M 157.5 31 L 160.5 35 L 157.5 31 Z " /><path fill="rgb(40,21,22)" stroke="rgb(40,21,22)" stroke-width="1" opacity="1" d="M 141.5 35 L 144 35.5 L 141.5 36 L 141.5 35 Z " /><path fill="rgb(40,21,22)" stroke="rgb(40,21,22)" stroke-width="1" opacity="1" d="M 153.5 40 L 155.5 43 L 153.5 40 Z " /><path fill="rgb(40,21,22)" stroke="rgb(40,21,22)" stroke-width="1" opacity="1" d="M 60.5 42 L 61 44.5 L 60 44.5 L 60.5 42 Z " /><path fill="rgb(40,21,22)" stroke="rgb(40,21,22)" stroke-width="1" opacity="1" d="M 129.5 42 L 134 47.5 L 132 46.5 L 129.5 42 Z " /><path fill="rgb(40,21,22)" stroke="rgb(40,21,22)" stroke-width="1" opacity="1" d="M 158.5 45 L 162 49.5 L 166 59.5 L 160.5 64 L 158.5 56 L 150 63.5 L 158 55.5 L 159 46.5 L 158.5 45 Z " /><path fill="rgb(40,21,22)" stroke="rgb(40,21,22)" stroke-width="1" opacity="1" d="M 141.5 51 L 142 58.5 L 140.5 60 L 136 55.5 L 141 58.5 L 141.5 51 Z " /><path fill="rgb(40,21,22)" stroke="rgb(40,21,22)" stroke-width="1" opacity="1" d="M 95.5 59 L 94.5 61 L 91 60.5 L 95.5 59 Z " /><path fill="rgb(40,21,22)" stroke="rgb(40,21,22)" stroke-width="1" opacity="1" d="M 131.5 59 L 132.5 61 L 131.5 59 Z " /><path fill="rgb(40,21,22)" stroke="rgb(40,21,22)" stroke-width="1" opacity="1" d="M 73.5 63 L 76 63.5 L 69.5 66 L 69.5 65 L 73.5 63 Z " /><path fill="rgb(40,21,22)" stroke="rgb(40,21,22)" stroke-width="1" opacity="1" d="M 148.5 64 L 147.5 67 L 149 67.5 L 147.5 68 Q 144 66 148.5 64 Z " /><path fill="rgb(40,21,22)" stroke="rgb(40,21,22)" stroke-width="1" opacity="1" d="M 86.5 65 L 89 65.5 L 86.5 66 L 86.5 65 Z " /><path fill="rgb(40,21,22)" stroke="rgb(40,21,22)" stroke-width="1" opacity="1" d="M 96.5 65 L 102 65.5 L 96.5 66 L 96.5 65 Z " /><path fill="rgb(40,21,22)" stroke="rgb(40,21,22)" stroke-width="1" opacity="1" d="M 158.5 65 L 157.5 67 L 158.5 65 Z " /><path fill="rgb(40,21,22)" stroke="rgb(40,21,22)" stroke-width="1" opacity="1" d="M 150.5 68 L 152.5 69 L 154 68.5 L 151.5 70 L 150.5 68 Z " /><path fill="rgb(40,21,22)" stroke="rgb(40,21,22)" stroke-width="1" opacity="1" d="M 66.5 71 L 68 71.5 L 63.5 75 L 66.5 71 Z " /><path fill="rgb(40,21,22)" stroke="rgb(40,21,22)" stroke-width="1" opacity="1" d="M 142.5 75 L 141.5 77 L 142.5 75 Z " /><path fill="rgb(40,21,22)" stroke="rgb(40,21,22)" stroke-width="1" opacity="1" d="M 131.5 77 L 136.5 81 L 138 80.5 L 134 82 L 131.5 77 Z " /><path fill="rgb(40,21,22)" stroke="rgb(40,21,22)" stroke-width="1" opacity="1" d="M 145.5 80 L 144.5 82 L 145.5 80 Z " /><path fill="rgb(40,21,22)" stroke="rgb(40,21,22)" stroke-width="1" opacity="1" d="M 141.5 84 L 139.5 87 L 141.5 84 Z " /><path fill="rgb(40,21,22)" stroke="rgb(40,21,22)" stroke-width="1" opacity="1" d="M 142.5 86 L 141.5 88 L 142.5 86 Z " /><path fill="rgb(40,21,22)" stroke="rgb(40,21,22)" stroke-width="1" opacity="1" d="M 137.5 87 L 139 89.5 L 137 88.5 L 137.5 87 Z " /><path fill="rgb(40,21,22)" stroke="rgb(40,21,22)" stroke-width="1" opacity="1" d="M 182.5 98 L 181.5 100 L 182.5 98 Z " /><path fill="rgb(40,21,22)" stroke="rgb(40,21,22)" stroke-width="1" opacity="1" d="M 184.5 98 L 185.5 100 L 184.5 98 Z " /><path fill="rgb(40,21,22)" stroke="rgb(40,21,22)" stroke-width="1" opacity="1" d="M 21.5 100 L 28 105.5 L 22.5 101 L 21.5 100 Z " /><path fill="rgb(40,21,22)" stroke="rgb(40,21,22)" stroke-width="1" opacity="1" d="M 140.5 102 L 141 106.5 L 140 106.5 L 140.5 102 Z " /><path fill="rgb(40,21,22)" stroke="rgb(40,21,22)" stroke-width="1" opacity="1" d="M 179.5 102 L 177.5 105 L 179.5 102 Z " /><path fill="rgb(40,21,22)" stroke="rgb(40,21,22)" stroke-width="1" opacity="1" d="M 124.5 103 L 125 107.5 L 124 107.5 L 124.5 103 Z " /><path fill="rgb(40,21,22)" stroke="rgb(40,21,22)" stroke-width="1" opacity="1" d="M 135.5 105 L 136 108.5 L 135 108.5 L 135.5 105 Z " /><path fill="rgb(40,21,22)" stroke="rgb(40,21,22)" stroke-width="1" opacity="1" d="M 48.5 106 L 49 108.5 L 48 108.5 L 48.5 106 Z " /><path fill="rgb(40,21,22)" stroke="rgb(40,21,22)" stroke-width="1" opacity="1" d="M 175.5 108 L 183.5 116 L 186 114.5 L 177.5 124 L 180 120.5 Q 180.8 118.3 178.5 119 L 174 116 L 172.5 113 L 168.5 116 L 175.5 108 Z " /><path fill="rgb(40,21,22)" stroke="rgb(40,21,22)" stroke-width="1" opacity="1" d="M 109.5 109 L 108.5 111 L 109.5 109 Z " /><path fill="rgb(40,21,22)" stroke="rgb(40,21,22)" stroke-width="1" opacity="1" d="M 140.5 109 L 141 112.5 L 140 112.5 L 140.5 109 Z " /><path fill="rgb(40,21,22)" stroke="rgb(40,21,22)" stroke-width="1" opacity="1" d="M 49.5 110 L 50 113.5 L 49 113.5 L 49.5 110 Z " /><path fill="rgb(40,21,22)" stroke="rgb(40,21,22)" stroke-width="1" opacity="1" d="M 55.5 110 L 56.5 112 L 55.5 110 Z " /><path fill="rgb(40,21,22)" stroke="rgb(40,21,22)" stroke-width="1" opacity="1" d="M 33.5 112 L 44 124.5 L 35.5 133 L 24 121.5 L 33 113.5 L 33.5 112 Z M 38 119 L 30 127 L 36 132 L 43 124 L 38 119 Z " /><path fill="rgb(40,21,22)" stroke="rgb(40,21,22)" stroke-width="1" opacity="1" d="M 103.5 113 L 102.5 115 L 103.5 113 Z " /><path fill="rgb(40,21,22)" stroke="rgb(40,21,22)" stroke-width="1" opacity="1" d="M 147.5 113 L 146.5 115 L 147.5 113 Z " /><path fill="rgb(40,21,22)" stroke="rgb(40,21,22)" stroke-width="1" opacity="1" d="M 139.5 116 L 140 119.5 L 139 119.5 L 139.5 116 Z " /><path fill="rgb(40,21,22)" stroke="rgb(40,21,22)" stroke-width="1" opacity="1" d="M 143.5 117 L 142.5 119 L 143.5 117 Z " /><path fill="rgb(40,21,22)" stroke="rgb(40,21,22)" stroke-width="1" opacity="1" d="M 51.5 119 L 52 121.5 L 51 121.5 L 51.5 119 Z " /><path fill="rgb(40,21,22)" stroke="rgb(40,21,22)" stroke-width="1" opacity="1" d="M 113.5 120 L 112.5 122 L 113.5 120 Z " /><path fill="rgb(40,21,22)" stroke="rgb(40,21,22)" stroke-width="1" opacity="1" d="M 120.5 120 L 118.5 123 L 120.5 120 Z " /><path fill="rgb(40,21,22)" stroke="rgb(40,21,22)" stroke-width="1" opacity="1" d="M 134.5 120 L 135 121.5 L 132.5 129 L 131.5 126 L 118 134.5 Q 113.1 139.6 112 148.5 L 112.5 150 L 106.5 152 L 107 150.5 Q 108.9 134.4 119.5 127 L 134.5 120 Z " /><path fill="rgb(40,21,22)" stroke="rgb(40,21,22)" stroke-width="1" opacity="1" d="M 164.5 120 L 164 121.5 L 170.5 128 L 172 128.5 L 170.5 129 L 163 121.5 L 164.5 120 Z " /><path fill="rgb(40,21,22)" stroke="rgb(40,21,22)" stroke-width="1" opacity="1" d="M 56.5 121 L 57.5 123 L 56.5 121 Z " /><path fill="rgb(40,21,22)" stroke="rgb(40,21,22)" stroke-width="1" opacity="1" d="M 158.5 125 L 161.5 129 L 158.5 125 Z " /><path fill="rgb(40,21,22)" stroke="rgb(40,21,22)" stroke-width="1" opacity="1" d="M 176.5 125 L 175.5 127 L 176.5 125 Z " /><path fill="rgb(40,21,22)" stroke="rgb(40,21,22)" stroke-width="1" opacity="1" d="M 140 127 L 142 127.5 L 137 131.5 L 138.5 128 L 140 128.5 L 140 127 Z " /><path fill="rgb(40,21,22)" stroke="rgb(40,21,22)" stroke-width="1" opacity="1" d="M 47.5 129 L 37.5 140 L 47.5 129 Z " /><path fill="rgb(40,21,22)" stroke="rgb(40,21,22)" stroke-width="1" opacity="1" d="M 56.5 130 L 67.5 135 L 72 139.5 L 80 150.5 L 78.5 150 Q 67 147 61 138.5 L 56.5 130 Z M 64 139 L 68 144 L 68 143 L 64 139 Z " /><path fill="rgb(40,21,22)" stroke="rgb(40,21,22)" stroke-width="1" opacity="1" d="M 69.5 130 L 73 130.5 L 69.5 131 L 69.5 130 Z " /><path fill="rgb(40,21,22)" stroke="rgb(40,21,22)" stroke-width="1" opacity="1" d="M 151.5 132 L 163.5 145 L 151.5 132 Z " /><path fill="rgb(40,21,22)" stroke="rgb(40,21,22)" stroke-width="1" opacity="1" d="M 166.5 132 L 168.5 135 L 166.5 132 Z " /><path fill="rgb(40,21,22)" stroke="rgb(40,21,22)" stroke-width="1" opacity="1" d="M 144.5 135 L 142.5 138 L 144.5 135 Z " /><path fill="rgb(40,21,22)" stroke="rgb(40,21,22)" stroke-width="1" opacity="1" d="M 146.5 135 L 161 148.5 L 160.5 150 L 157.5 146 L 146.5 135 Z " /><path fill="rgb(40,21,22)" stroke="rgb(40,21,22)" stroke-width="1" opacity="1" d="M 127.5 137 L 120.5 145 L 127.5 137 Z " /><path fill="rgb(40,21,22)" stroke="rgb(40,21,22)" stroke-width="1" opacity="1" d="M 174.5 137 L 176.5 140 L 174.5 137 Z " /><path fill="rgb(40,21,22)" stroke="rgb(40,21,22)" stroke-width="1" opacity="1" d="M 144.5 142 L 152 148.5 L 151.5 150 L 144.5 142 Z " /><path fill="rgb(40,21,22)" stroke="rgb(40,21,22)" stroke-width="1" opacity="1" d="M 57.5 143 L 63 147.5 L 61.5 150 L 52.5 156 L 49.5 152 L 53.5 155 L 62 147.5 L 57.5 144 L 52 148.5 L 57.5 143 Z " /><path fill="rgb(40,21,22)" stroke="rgb(40,21,22)" stroke-width="1" opacity="1" d="M 129.5 143 L 123.5 150 L 121.5 151 L 122.5 149 L 129.5 143 Z " /><path fill="rgb(40,21,22)" stroke="rgb(40,21,22)" stroke-width="1" opacity="1" d="M 135.5 143 L 136.5 145 L 135.5 143 Z " /><path fill="rgb(40,21,22)" stroke="rgb(40,21,22)" stroke-width="1" opacity="1" d="M 118.5 145 L 116.5 148 L 118.5 145 Z " /><path fill="rgb(40,21,22)" stroke="rgb(40,21,22)" stroke-width="1" opacity="1" d="M 31.5 146 L 29.5 149 L 31.5 146 Z " /><path fill="rgb(40,21,22)" stroke="rgb(40,21,22)" stroke-width="1" opacity="1" d="M 140.5 147 L 146.5 154 L 140.5 147 Z " /><path fill="rgb(40,21,22)" stroke="rgb(40,21,22)" stroke-width="1" opacity="1" d="M 50.5 149 L 49.5 151 L 50.5 149 Z " /><path fill="rgb(40,21,22)" stroke="rgb(40,21,22)" stroke-width="1" opacity="1" d="M 180.5 149 L 176.5 154 L 180.5 149 Z " /><path fill="rgb(40,21,22)" stroke="rgb(40,21,22)" stroke-width="1" opacity="1" d="M 159.5 151 L 157.5 154 L 159.5 151 Z " /><path fill="rgb(40,21,22)" stroke="rgb(40,21,22)" stroke-width="1" opacity="1" d="M 39.5 152 L 35.5 157 L 39.5 152 Z " /><path fill="rgb(40,21,22)" stroke="rgb(40,21,22)" stroke-width="1" opacity="1" d="M 70.5 152 L 71.5 154 L 70.5 152 Z " /><path fill="rgb(40,21,22)" stroke="rgb(40,21,22)" stroke-width="1" opacity="1" d="M 153.5 152 L 154.5 154 L 153.5 152 Z " /><path fill="rgb(40,21,22)" stroke="rgb(40,21,22)" stroke-width="1" opacity="1" d="M 73.5 154 L 79 155.5 L 75.5 156 L 73.5 154 Z " /><path fill="rgb(40,21,22)" stroke="rgb(40,21,22)" stroke-width="1" opacity="1" d="M 68.5 158 Q 73 157 74 159.5 Q 75.3 166.8 70.5 168 L 73 164.5 Q 75.5 156.3 68 159 L 66.5 162 L 67 160.5 L 68.5 158 Z " /><path fill="rgb(40,21,22)" stroke="rgb(40,21,22)" stroke-width="1" opacity="1" d="M 92 159 L 100 159.5 L 91.5 170 L 91 162.5 L 92 159 Z " /><path fill="rgb(40,21,22)" stroke="rgb(40,21,22)" stroke-width="1" opacity="1" d="M 83.5 162 L 84 167.5 L 83 167.5 L 83.5 162 Z " /><path fill="rgb(40,21,22)" stroke="rgb(40,21,22)" stroke-width="1" opacity="1" d="M 52.5 164 L 47.5 170 L 52.5 164 Z " /><path fill="rgb(40,21,22)" stroke="rgb(40,21,22)" stroke-width="1" opacity="1" d="M 63.5 166 L 62.5 168 L 63.5 166 Z " /><path fill="rgb(40,21,22)" stroke="rgb(40,21,22)" stroke-width="1" opacity="1" d="M 103.5 167 L 102.5 169 L 103.5 167 Z " /><path fill="rgb(40,21,22)" stroke="rgb(40,21,22)" stroke-width="1" opacity="1" d="M 124.5 167 L 127 167.5 L 124.5 168 L 124.5 167 Z " /><path fill="rgb(40,21,22)" stroke="rgb(40,21,22)" stroke-width="1" opacity="1" d="M 69.5 169 L 68.5 171 L 69.5 169 Z " /><path fill="rgb(40,21,22)" stroke="rgb(40,21,22)" stroke-width="1" opacity="1" d="M 136.5 170 L 138.5 173 L 136.5 170 Z " /><path fill="rgb(40,21,22)" stroke="rgb(40,21,22)" stroke-width="1" opacity="1" d="M 70.5 175 L 80 175.5 L 70.5 176 L 70.5 175 Z " /><path fill="rgb(40,21,22)" stroke="rgb(40,21,22)" stroke-width="1" opacity="1" d="M 112.5 178 L 112 179.5 L 111.5 181 L 111 179.5 L 112.5 178 Z " /><path fill="rgb(40,21,22)" stroke="rgb(40,21,22)" stroke-width="1" opacity="1" d="M 138.5 178 L 139 179.5 L 130.5 187 L 131.5 185 L 138 179.5 L 138.5 178 Z " /><path fill="rgb(40,21,22)" stroke="rgb(40,21,22)" stroke-width="1" opacity="1" d="M 71.5 181 L 83 181.5 L 71.5 182 L 71.5 181 Z " /><path fill="rgb(40,21,22)" stroke="rgb(40,21,22)" stroke-width="1" opacity="1" d="M 85.5 182 L 92 182.5 L 85.5 183 L 85.5 182 Z " /><path fill="rgb(40,21,22)" stroke="rgb(40,21,22)" stroke-width="1" opacity="1" d="M 119.5 182 L 123 182.5 L 119.5 183 L 119.5 182 Z " /><path fill="rgb(40,21,22)" stroke="rgb(40,21,22)" stroke-width="1" opacity="1" d="M 94.5 183 L 98 183.5 L 94.5 184 L 94.5 183 Z " /><path fill="rgb(40,21,22)" stroke="rgb(40,21,22)" stroke-width="1" opacity="1" d="M 60.5 188 L 61.5 190 L 60.5 188 Z " /><path fill="rgb(40,21,22)" stroke="rgb(40,21,22)" stroke-width="1" opacity="1" d="M 80.5 188 L 84 189.5 L 83 194.5 L 84.5 197 L 78 192.5 L 80.5 188 Z " /><path fill="rgb(40,21,22)" stroke="rgb(40,21,22)" stroke-width="1" opacity="1" d="M 106.5 188 L 104.5 191 L 106.5 188 Z " /><path fill="rgb(40,21,22)" stroke="rgb(40,21,22)" stroke-width="1" opacity="1" d="M 115.5 188 L 118 188.5 L 115.5 189 L 115.5 188 Z " /><path fill="rgb(40,21,22)" stroke="rgb(40,21,22)" stroke-width="1" opacity="1" d="M 157.5 188 L 158 190.5 L 157 190.5 L 157.5 188 Z " /><path fill="rgb(40,21,22)" stroke="rgb(40,21,22)" stroke-width="1" opacity="1" d="M 73.5 189 L 74.5 191 L 73.5 189 Z " /><path fill="rgb(40,21,22)" stroke="rgb(40,21,22)" stroke-width="1" opacity="1" d="M 37.5 192 L 38 194.5 L 37 194.5 L 37.5 192 Z " /><path fill="rgb(40,21,22)" stroke="rgb(40,21,22)" stroke-width="1" opacity="1" d="M 67.5 193 L 68.5 195 L 67.5 193 Z " /><path fill="rgb(40,21,22)" stroke="rgb(40,21,22)" stroke-width="1" opacity="1" d="M 110.5 193 L 108.5 196 L 110.5 193 Z " /><path fill="rgb(40,21,22)" stroke="rgb(40,21,22)" stroke-width="1" opacity="1" d="M 155.5 196 L 154.5 198 L 155.5 196 Z " /><path fill="rgb(0,0,0)" stroke="rgb(0,0,0)" stroke-width="1" opacity="0.6078431372549019" d="M 127.5 1 L 130 1.5 L 126.5 3 L 127.5 1 Z " /><path fill="rgb(0,0,0)" stroke="rgb(0,0,0)" stroke-width="1" opacity="0.6078431372549019" d="M 131.5 2 L 133.5 5 L 131.5 2 Z " /><path fill="rgb(0,0,0)" stroke="rgb(0,0,0)" stroke-width="1" opacity="0.6078431372549019" d="M 125.5 4 L 126 11.5 L 125 11.5 L 125.5 4 Z " /><path fill="rgb(0,0,0)" stroke="rgb(0,0,0)" stroke-width="1" opacity="0.6078431372549019" d="M 83.5 5 L 96 5.5 L 83.5 6 L 83.5 5 Z " /><path fill="rgb(0,0,0)" stroke="rgb(0,0,0)" stroke-width="1" opacity="0.6078431372549019" d="M 97.5 6 L 98.5 8 L 97.5 6 Z " /><path fill="rgb(0,0,0)" stroke="rgb(0,0,0)" stroke-width="1" opacity="0.6078431372549019" d="M 136.5 6 L 137.5 8 L 136.5 6 Z " /><path fill="rgb(0,0,0)" stroke="rgb(0,0,0)" stroke-width="1" opacity="0.6078431372549019" d="M 140.5 9 L 141.5 11 L 140.5 9 Z " /><path fill="rgb(0,0,0)" stroke="rgb(0,0,0)" stroke-width="1" opacity="0.6078431372549019" d="M 101.5 12 L 102.5 14 L 101.5 12 Z " /><path fill="rgb(0,0,0)" stroke="rgb(0,0,0)" stroke-width="1" opacity="0.6078431372549019" d="M 144.5 12 L 145.5 14 L 144.5 12 Z " /><path fill="rgb(0,0,0)" stroke="rgb(0,0,0)" stroke-width="1" opacity="0.6078431372549019" d="M 148.5 15 L 150.5 18 L 148.5 15 Z " /><path fill="rgb(0,0,0)" stroke="rgb(0,0,0)" stroke-width="1" opacity="0.6078431372549019" d="M 70.5 16 L 71.5 18 L 70.5 16 Z " /><path fill="rgb(0,0,0)" stroke="rgb(0,0,0)" stroke-width="1" opacity="0.6078431372549019" d="M 153.5 19 L 156.5 23 L 153.5 19 Z " /><path fill="rgb(0,0,0)" stroke="rgb(0,0,0)" stroke-width="1" opacity="0.6078431372549019" d="M 73.5 20 L 82.5 30 L 73.5 20 Z " /><path fill="rgb(0,0,0)" stroke="rgb(0,0,0)" stroke-width="1" opacity="0.6078431372549019" d="M 162.5 28 L 164.5 31 L 162.5 28 Z " /><path fill="rgb(0,0,0)" stroke="rgb(0,0,0)" stroke-width="1" opacity="0.6078431372549019" d="M 166.5 33 L 167.5 35 L 166.5 33 Z " /><path fill="rgb(0,0,0)" stroke="rgb(0,0,0)" stroke-width="1" opacity="0.6078431372549019" d="M 58.5 34 L 55.5 38 L 58.5 34 Z " /><path fill="rgb(0,0,0)" stroke="rgb(0,0,0)" stroke-width="1" opacity="0.6078431372549019" d="M 67.5 38 L 68 40.5 L 67 40.5 L 67.5 38 Z " /><path fill="rgb(0,0,0)" stroke="rgb(0,0,0)" stroke-width="1" opacity="0.6078431372549019" d="M 52.5 41 L 51.5 43 L 52.5 41 Z " /><path fill="rgb(0,0,0)" stroke="rgb(0,0,0)" stroke-width="1" opacity="0.6078431372549019" d="M 50.5 44 L 49.5 46 L 50.5 44 Z " /><path fill="rgb(0,0,0)" stroke="rgb(0,0,0)" stroke-width="1" opacity="0.6078431372549019" d="M 92.5 45 L 96 45.5 L 92.5 46 L 92.5 45 Z " /><path fill="rgb(0,0,0)" stroke="rgb(0,0,0)" stroke-width="1" opacity="0.6078431372549019" d="M 124.5 45 L 125.5 47 L 124.5 45 Z " /><path fill="rgb(0,0,0)" stroke="rgb(0,0,0)" stroke-width="1" opacity="0.6078431372549019" d="M 66.5 48 L 68 54.5 L 66 55 L 66.5 48 Z " /><path fill="rgb(0,0,0)" stroke="rgb(0,0,0)" stroke-width="1" opacity="0.6078431372549019" d="M 172.5 48 L 173 57.5 L 172 57.5 L 172.5 48 Z " /><path fill="rgb(0,0,0)" stroke="rgb(0,0,0)" stroke-width="1" opacity="0.6078431372549019" d="M 147.5 49 L 148 51.5 L 147 51.5 L 147.5 49 Z " /><path fill="rgb(0,0,0)" stroke="rgb(0,0,0)" stroke-width="1" opacity="0.6078431372549019" d="M 151.5 54 L 148.5 58 L 151.5 54 Z " /><path fill="rgb(0,0,0)" stroke="rgb(0,0,0)" stroke-width="1" opacity="0.6078431372549019" d="M 164.5 68 L 163.5 70 L 164.5 68 Z " /><path fill="rgb(0,0,0)" stroke="rgb(0,0,0)" stroke-width="1" opacity="0.6078431372549019" d="M 156.5 73 L 156 74.5 L 155.5 76 L 155 74.5 L 156.5 73 Z " /><path fill="rgb(0,0,0)" stroke="rgb(0,0,0)" stroke-width="1" opacity="0.6078431372549019" d="M 157.5 81 L 158 87.5 L 157 87.5 L 157.5 81 Z " /><path fill="rgb(0,0,0)" stroke="rgb(0,0,0)" stroke-width="1" opacity="0.6078431372549019" d="M 178.5 93 L 176.5 96 L 178.5 93 Z " /><path fill="rgb(0,0,0)" stroke="rgb(0,0,0)" stroke-width="1" opacity="0.6078431372549019" d="M 158.5 95 L 159 104.5 L 158 104.5 L 158.5 95 Z " /><path fill="rgb(0,0,0)" stroke="rgb(0,0,0)" stroke-width="1" opacity="0.6078431372549019" d="M 27.5 96 L 28.5 98 L 27.5 96 Z " /><path fill="rgb(0,0,0)" stroke="rgb(0,0,0)" stroke-width="1" opacity="0.6078431372549019" d="M 15.5 98 L 14.5 100 L 15.5 98 Z " /><path fill="rgb(0,0,0)" stroke="rgb(0,0,0)" stroke-width="1" opacity="0.6078431372549019" d="M 40.5 98 L 41.5 100 L 40.5 98 Z " /><path fill="rgb(0,0,0)" stroke="rgb(0,0,0)" stroke-width="1" opacity="0.6078431372549019" d="M 173.5 99 L 171.5 102 L 173.5 99 Z " /><path fill="rgb(0,0,0)" stroke="rgb(0,0,0)" stroke-width="1" opacity="0.6078431372549019" d="M 193.5 99 L 195.5 102 L 193.5 99 Z " /><path fill="rgb(0,0,0)" stroke="rgb(0,0,0)" stroke-width="1" opacity="0.6078431372549019" d="M 43.5 102 L 44 105.5 L 43 105.5 L 43.5 102 Z " /><path fill="rgb(0,0,0)" stroke="rgb(0,0,0)" stroke-width="1" opacity="0.6078431372549019" d="M 168.5 105 L 167.5 107 L 168.5 105 Z " /><path fill="rgb(0,0,0)" stroke="rgb(0,0,0)" stroke-width="1" opacity="0.6078431372549019" d="M 36.5 106 L 44 112.5 L 44.5 111 L 45 114.5 L 36.5 106 Z " /><path fill="rgb(0,0,0)" stroke="rgb(0,0,0)" stroke-width="1" opacity="0.6078431372549019" d="M 165.5 109 L 164.5 111 L 165.5 109 Z " /><path fill="rgb(0,0,0)" stroke="rgb(0,0,0)" stroke-width="1" opacity="0.6078431372549019" d="M 7.5 110 L 8 112.5 L 7 112.5 L 7.5 110 Z " /><path fill="rgb(0,0,0)" stroke="rgb(0,0,0)" stroke-width="1" opacity="0.6078431372549019" d="M 8.5 114 L 17.5 124 L 8.5 114 Z " /><path fill="rgb(0,0,0)" stroke="rgb(0,0,0)" stroke-width="1" opacity="0.6078431372549019" d="M 193.5 115 L 192.5 117 L 193.5 115 Z " /><path fill="rgb(0,0,0)" stroke="rgb(0,0,0)" stroke-width="1" opacity="0.6078431372549019" d="M 187.5 122 L 183.5 127 L 187.5 122 Z " /><path fill="rgb(0,0,0)" stroke="rgb(0,0,0)" stroke-width="1" opacity="0.6078431372549019" d="M 180.5 134 L 181.5 136 L 180.5 134 Z " /><path fill="rgb(0,0,0)" stroke="rgb(0,0,0)" stroke-width="1" opacity="0.6078431372549019" d="M 24.5 145 L 23.5 147 L 24.5 145 Z " /><path fill="rgb(0,0,0)" stroke="rgb(0,0,0)" stroke-width="1" opacity="0.6078431372549019" d="M 166.5 154 L 172.5 161 L 166.5 154 Z " /><path fill="rgb(0,0,0)" stroke="rgb(0,0,0)" stroke-width="1" opacity="0.6078431372549019" d="M 184.5 154 L 178.5 161 L 184.5 154 Z " /><path fill="rgb(0,0,0)" stroke="rgb(0,0,0)" stroke-width="1" opacity="0.6078431372549019" d="M 164.5 155 L 163.5 157 L 164.5 155 Z " /><path fill="rgb(0,0,0)" stroke="rgb(0,0,0)" stroke-width="1" opacity="0.6078431372549019" d="M 44.5 156 L 48 160.5 L 42 165.5 L 47 159.5 L 44.5 156 Z " /><path fill="rgb(0,0,0)" stroke="rgb(0,0,0)" stroke-width="1" opacity="0.6078431372549019" d="M 26.5 159 L 27.5 161 L 26.5 159 Z " /><path fill="rgb(0,0,0)" stroke="rgb(0,0,0)" stroke-width="1" opacity="0.6078431372549019" d="M 41.5 159 L 39.5 162 L 41.5 159 Z " /><path fill="rgb(0,0,0)" stroke="rgb(0,0,0)" stroke-width="1" opacity="0.6078431372549019" d="M 174.5 161 L 177 161.5 L 174.5 162 L 174.5 161 Z " /><path fill="rgb(0,0,0)" stroke="rgb(0,0,0)" stroke-width="1" opacity="0.6078431372549019" d="M 32.5 163 L 36 163.5 L 32.5 164 L 32.5 163 Z " /><path fill="rgb(0,0,0)" stroke="rgb(0,0,0)" stroke-width="1" opacity="0.6078431372549019" d="M 39.5 169 L 38.5 171 L 39.5 169 Z " /><path fill="rgb(0,0,0)" stroke="rgb(0,0,0)" stroke-width="1" opacity="0.6078431372549019" d="M 164.5 179 L 165 181.5 L 164 181.5 L 164.5 179 Z " /><path fill="rgb(0,0,0)" stroke="rgb(0,0,0)" stroke-width="1" opacity="0.6078431372549019" d="M 164.5 188 L 165 190.5 L 164 190.5 L 164.5 188 Z " /><path fill="rgb(0,0,0)" stroke="rgb(0,0,0)" stroke-width="1" opacity="0.6078431372549019" d="M 30.5 191 L 31 194.5 L 30 194.5 L 30.5 191 Z " /><path fill="rgb(84,81,96)" stroke="rgb(84,81,96)" stroke-width="1" opacity="1" d="M 109.5 38 L 108.5 40 L 109.5 38 Z " /><path fill="rgb(84,81,96)" stroke="rgb(84,81,96)" stroke-width="1" opacity="1" d="M 59.5 43 L 58.5 45 L 59.5 43 Z " /><path fill="rgb(84,81,96)" stroke="rgb(84,81,96)" stroke-width="1" opacity="1" d="M 59.5 48 L 60 56.5 L 59 56.5 L 59.5 48 Z " /><path fill="rgb(84,81,96)" stroke="rgb(84,81,96)" stroke-width="1" opacity="1" d="M 94.5 52 Q 97.5 51.1 96 55.5 L 95 60 L 85.5 60 L 76.5 62 L 78.5 59 L 82 56.5 Q 81.2 53.9 84.5 55 L 94.5 52 Z " /><path fill="rgb(84,81,96)" stroke="rgb(84,81,96)" stroke-width="1" opacity="1" d="M 123.5 56 Q 132.8 59.2 138 66.5 L 140 71 L 137.5 72 L 133 71 L 128.5 64 Q 124.5 64.5 124 61.5 L 123.5 56 Z " /><path fill="rgb(84,81,96)" stroke="rgb(84,81,96)" stroke-width="1" opacity="1" d="M 102.5 57 L 103 60.5 L 102 60.5 L 102.5 57 Z " /><path fill="rgb(84,81,96)" stroke="rgb(84,81,96)" stroke-width="1" opacity="1" d="M 59.5 64 L 60 67.5 L 59 67.5 L 59.5 64 Z " /><path fill="rgb(84,81,96)" stroke="rgb(84,81,96)" stroke-width="1" opacity="1" d="M 83.5 66 L 86 66.5 L 83.5 67 L 83.5 66 Z " /><path fill="rgb(84,81,96)" stroke="rgb(84,81,96)" stroke-width="1" opacity="1" d="M 96 66 L 102 66.5 L 100 67.5 L 102 78.5 L 105 85.5 L 101.5 87 L 97 80.5 L 96 66 Z " /><path fill="rgb(84,81,96)" stroke="rgb(84,81,96)" stroke-width="1" opacity="1" d="M 66.5 72 Q 68.8 71.3 68 73.5 L 69 76.5 Q 67.3 80.7 65.5 78 L 63 76.5 L 66.5 72 Z " /><path fill="rgb(84,81,96)" stroke="rgb(84,81,96)" stroke-width="1" opacity="1" d="M 44.5 77 L 45 88.5 L 44 88.5 L 44.5 77 Z " /><path fill="rgb(84,81,96)" stroke="rgb(84,81,96)" stroke-width="1" opacity="1" d="M 144.5 93 L 142.5 96 L 144.5 93 Z " /><path fill="rgb(84,81,96)" stroke="rgb(84,81,96)" stroke-width="1" opacity="1" d="M 50.5 100 Q 53.5 99.2 52 103 Q 49 101.8 50 105.5 L 49 105.5 Q 48 101 50.5 100 Z " /><path fill="rgb(84,81,96)" stroke="rgb(84,81,96)" stroke-width="1" opacity="1" d="M 151.5 101 L 152 103.5 L 151 103.5 L 151.5 101 Z " /><path fill="rgb(84,81,96)" stroke="rgb(84,81,96)" stroke-width="1" opacity="1" d="M 134.5 102 L 135 105.5 L 134 105.5 L 134.5 102 Z " /><path fill="rgb(84,81,96)" stroke="rgb(84,81,96)" stroke-width="1" opacity="1" d="M 141.5 108 L 142 111.5 L 141 111.5 L 141.5 108 Z " /><path fill="rgb(84,81,96)" stroke="rgb(84,81,96)" stroke-width="1" opacity="1" d="M 135.5 112 L 136 114.5 L 135 114.5 L 135.5 112 Z " /><path fill="rgb(84,81,96)" stroke="rgb(84,81,96)" stroke-width="1" opacity="1" d="M 111.5 113 L 110.5 115 L 111.5 113 Z " /><path fill="rgb(84,81,96)" stroke="rgb(84,81,96)" stroke-width="1" opacity="1" d="M 171.5 114 Q 174.8 115.8 171 117.5 L 167.5 122 Q 164.2 123.1 165 120.5 L 169 117.5 L 171.5 114 Z " /><path fill="rgb(84,81,96)" stroke="rgb(84,81,96)" stroke-width="1" opacity="1" d="M 108.5 115 L 107.5 117 L 108.5 115 Z " /><path fill="rgb(84,81,96)" stroke="rgb(84,81,96)" stroke-width="1" opacity="1" d="M 61 118 L 63 118.5 L 62.5 121 L 61 118 Z " /><path fill="rgb(84,81,96)" stroke="rgb(84,81,96)" stroke-width="1" opacity="1" d="M 104.5 118 L 102.5 121 L 104.5 118 Z " /><path fill="rgb(84,81,96)" stroke="rgb(84,81,96)" stroke-width="1" opacity="1" d="M 104.5 121 L 111 121.5 L 104.5 122 L 104.5 121 Z " /><path fill="rgb(84,81,96)" stroke="rgb(84,81,96)" stroke-width="1" opacity="1" d="M 73.5 124 L 74 126 L 72 125.5 L 73.5 124 Z " /><path fill="rgb(84,81,96)" stroke="rgb(84,81,96)" stroke-width="1" opacity="1" d="M 103.5 126 L 109 126.5 L 103.5 127 L 103.5 126 Z " /><path fill="rgb(84,81,96)" stroke="rgb(84,81,96)" stroke-width="1" opacity="1" d="M 79.5 127 L 77.5 130 L 79.5 127 Z " /><path fill="rgb(84,81,96)" stroke="rgb(84,81,96)" stroke-width="1" opacity="1" d="M 118.5 127 L 117.5 129 L 118.5 127 Z " /><path fill="rgb(84,81,96)" stroke="rgb(84,81,96)" stroke-width="1" opacity="1" d="M 113.5 132 L 112.5 134 L 113.5 132 Z " /><path fill="rgb(84,81,96)" stroke="rgb(84,81,96)" stroke-width="1" opacity="1" d="M 71.5 138 L 72.5 140 L 71.5 138 Z " /><path fill="rgb(84,81,96)" stroke="rgb(84,81,96)" stroke-width="1" opacity="1" d="M 131.5 142 L 146 153.5 Q 158.1 166.4 157 192.5 L 156 192.5 L 154 185.5 L 154 179.5 L 151 172.5 L 147.5 169 Q 144.8 169.6 146 163.5 L 147 160.5 L 131.5 142 Z " /><path fill="rgb(84,81,96)" stroke="rgb(84,81,96)" stroke-width="1" opacity="1" d="M 77.5 147 L 78.5 149 L 77.5 147 Z " /><path fill="rgb(84,81,96)" stroke="rgb(84,81,96)" stroke-width="1" opacity="1" d="M 82.5 151 L 85 151.5 L 82.5 152 L 82.5 151 Z " /><path fill="rgb(84,81,96)" stroke="rgb(84,81,96)" stroke-width="1" opacity="1" d="M 121.5 151 L 122 153.5 L 115 166.5 L 108.5 174 L 100.5 178 L 96 176.5 L 102 169 Q 104.7 170.1 104 167.5 L 111.5 156 L 121.5 151 Z " /><path fill="rgb(84,81,96)" stroke="rgb(84,81,96)" stroke-width="1" opacity="1" d="M 87.5 152 L 101 152.5 L 87.5 153 L 87.5 152 Z " /><path fill="rgb(84,81,96)" stroke="rgb(84,81,96)" stroke-width="1" opacity="1" d="M 67.5 153 L 69 153.5 L 56 165.5 L 55 171.5 L 49 177.5 L 54 180 L 56 186 L 48.5 187 L 44.5 189 L 39 183.5 L 40 182.5 Q 42.9 173.4 49.5 168 L 67.5 153 Z " /><path fill="rgb(84,81,96)" stroke="rgb(84,81,96)" stroke-width="1" opacity="1" d="M 77.5 156 L 84 158.5 L 83 159.5 L 83 170.5 L 84 175 L 74.5 175 L 74 172.5 Q 77 167.5 76 158.5 L 77.5 156 Z " /><path fill="rgb(84,81,96)" stroke="rgb(84,81,96)" stroke-width="1" opacity="1" d="M 115.5 189 L 121.5 190 Q 123.3 187.3 129.5 189 L 129.5 190 Q 124.5 194 113.5 192 L 115.5 189 Z " /><path fill="rgb(33,39,53)" stroke="rgb(33,39,53)" stroke-width="1" opacity="1" d="M 91.5 52 L 94 52.5 L 91.5 53 L 91.5 52 Z " /><path fill="rgb(33,39,53)" stroke="rgb(33,39,53)" stroke-width="1" opacity="1" d="M 86.5 53 L 89 53.5 L 86.5 54 L 86.5 53 Z " /><path fill="rgb(33,39,53)" stroke="rgb(33,39,53)" stroke-width="1" opacity="1" d="M 81.5 55 L 82 56.5 L 76 61.5 L 78 62.5 Q 71.5 62.5 68.5 66 L 67 62 L 81.5 55 Z " /><path fill="rgb(33,39,53)" stroke="rgb(33,39,53)" stroke-width="1" opacity="1" d="M 122.5 55 L 123 57.5 L 122 57.5 L 122.5 55 Z " /><path fill="rgb(33,39,53)" stroke="rgb(33,39,53)" stroke-width="1" opacity="1" d="M 95.5 56 L 96 58.5 L 95 58.5 L 95.5 56 Z " /><path fill="rgb(33,39,53)" stroke="rgb(33,39,53)" stroke-width="1" opacity="1" d="M 59.5 57 L 60 63.5 L 59 63.5 L 59.5 57 Z " /><path fill="rgb(33,39,53)" stroke="rgb(33,39,53)" stroke-width="1" opacity="1" d="M 85.5 60 L 91 60.5 L 85.5 61 L 85.5 60 Z " /><path fill="rgb(33,39,53)" stroke="rgb(33,39,53)" stroke-width="1" opacity="1" d="M 133.5 61 L 136.5 65 L 133.5 61 Z " /><path fill="rgb(33,39,53)" stroke="rgb(33,39,53)" stroke-width="1" opacity="1" d="M 124.5 62 L 131 66.5 L 133 71 L 137.5 72 L 140.5 70 L 143 74.5 L 138.5 80 L 135.5 81 Q 126.5 74.2 124.5 62 Z " /><path fill="rgb(33,39,53)" stroke="rgb(33,39,53)" stroke-width="1" opacity="1" d="M 89.5 65 L 93 65.5 L 89.5 66 L 89.5 65 Z " /><path fill="rgb(33,39,53)" stroke="rgb(33,39,53)" stroke-width="1" opacity="1" d="M 138.5 67 L 139.5 69 L 138.5 67 Z " /><path fill="rgb(33,39,53)" stroke="rgb(33,39,53)" stroke-width="1" opacity="1" d="M 134.5 99 L 135 101.5 L 134 101.5 L 134.5 99 Z " /><path fill="rgb(33,39,53)" stroke="rgb(33,39,53)" stroke-width="1" opacity="1" d="M 135.5 109 L 136 111.5 L 135 111.5 L 135.5 109 Z " /><path fill="rgb(33,39,53)" stroke="rgb(33,39,53)" stroke-width="1" opacity="1" d="M 175.5 116 L 176.5 118 L 175.5 116 Z " /><path fill="rgb(33,39,53)" stroke="rgb(33,39,53)" stroke-width="1" opacity="1" d="M 63.5 122 L 64.5 124 L 63.5 122 Z " /><path fill="rgb(33,39,53)" stroke="rgb(33,39,53)" stroke-width="1" opacity="1" d="M 176.5 124 L 174.5 127 L 176.5 124 Z " /><path fill="rgb(33,39,53)" stroke="rgb(33,39,53)" stroke-width="1" opacity="1" d="M 130.5 142 Q 141.4 149.6 147 162.5 L 146 169 L 151 172.5 L 154 179.5 L 155 190.5 L 157 193.5 L 152.5 200 L 107.5 200 L 107 198.5 L 114.5 189 L 113.5 192 Q 125.1 194.1 130 189.5 L 125 188.5 Q 134.9 186.9 139 179.5 Q 140.8 171.8 136.5 170 L 129.5 167 L 124.5 167 L 116.5 169 L 111.5 172 L 113 169.5 L 122 153.5 L 122 150 L 130 143.5 L 130.5 142 Z " /><path fill="rgb(33,39,53)" stroke="rgb(33,39,53)" stroke-width="1" opacity="1" d="M 133.5 142 L 134.5 144 L 133.5 142 Z " /><path fill="rgb(33,39,53)" stroke="rgb(33,39,53)" stroke-width="1" opacity="1" d="M 137.5 145 L 139.5 148 L 137.5 145 Z " /><path fill="rgb(33,39,53)" stroke="rgb(33,39,53)" stroke-width="1" opacity="1" d="M 68.5 152 L 77 156 L 74 175 L 66.5 176 L 67 174.5 L 74 164.5 L 74 159.5 Q 73 157 68.5 158 L 62 167.5 L 56 179.5 L 56 182.5 L 61.5 190 L 76 199.5 L 39 200 Q 36.6 196.1 38 186.5 L 39.5 184 L 44.5 189 L 45.5 188 L 56 186 L 54 180 L 49 177.5 L 55 171.5 L 56 165.5 L 62.5 159 L 69 153.5 L 68.5 152 Z " /><path fill="rgb(33,39,53)" stroke="rgb(33,39,53)" stroke-width="1" opacity="1" d="M 118.5 152 L 117.5 154 L 118.5 152 Z " /><path fill="rgb(33,39,53)" stroke="rgb(33,39,53)" stroke-width="1" opacity="1" d="M 146.5 154 L 148.5 157 L 146.5 154 Z " /><path fill="rgb(33,39,53)" stroke="rgb(33,39,53)" stroke-width="1" opacity="1" d="M 62.5 156 L 61.5 158 L 62.5 156 Z " /><path fill="rgb(33,39,53)" stroke="rgb(33,39,53)" stroke-width="1" opacity="1" d="M 78.5 156 L 81 156.5 L 78.5 157 L 78.5 156 Z " /><path fill="rgb(33,39,53)" stroke="rgb(33,39,53)" stroke-width="1" opacity="1" d="M 110.5 156 L 109.5 158 L 110.5 156 Z " /><path fill="rgb(33,39,53)" stroke="rgb(33,39,53)" stroke-width="1" opacity="1" d="M 149.5 158 L 150.5 160 L 149.5 158 Z " /><path fill="rgb(33,39,53)" stroke="rgb(33,39,53)" stroke-width="1" opacity="1" d="M 58.5 159 L 50.5 168 L 58.5 159 Z " /><path fill="rgb(33,39,53)" stroke="rgb(33,39,53)" stroke-width="1" opacity="1" d="M 83.5 159 L 84 161.5 L 83 161.5 L 83.5 159 Z " /><path fill="rgb(33,39,53)" stroke="rgb(33,39,53)" stroke-width="1" opacity="1" d="M 106.5 164 L 104.5 167 L 106.5 164 Z " /><path fill="rgb(33,39,53)" stroke="rgb(33,39,53)" stroke-width="1" opacity="1" d="M 83.5 168 L 84 170.5 L 83 170.5 L 83.5 168 Z " /><path fill="rgb(33,39,53)" stroke="rgb(33,39,53)" stroke-width="1" opacity="1" d="M 47.5 170 L 44.5 174 L 47.5 170 Z " /><path fill="rgb(33,39,53)" stroke="rgb(33,39,53)" stroke-width="1" opacity="1" d="M 101.5 170 L 95.5 177 L 101.5 170 Z " /><path fill="rgb(33,39,53)" stroke="rgb(33,39,53)" stroke-width="1" opacity="1" d="M 84.5 174 L 83.5 176 L 80 175.5 L 84.5 174 Z " /><path fill="rgb(33,39,53)" stroke="rgb(33,39,53)" stroke-width="1" opacity="1" d="M 43.5 175 L 42.5 177 L 43.5 175 Z " /><path fill="rgb(33,39,53)" stroke="rgb(33,39,53)" stroke-width="1" opacity="1" d="M 104.5 176 L 103.5 178 L 104.5 176 Z " /><path fill="rgb(33,39,53)" stroke="rgb(33,39,53)" stroke-width="1" opacity="1" d="M 84.5 189 L 85 191.5 L 84 191.5 L 84.5 189 Z " /><path fill="rgb(0,0,0)" stroke="rgb(0,0,0)" stroke-width="1" opacity="0.27058823529411763" d="M 126.5 1 L 126 2.5 L 125.5 4 L 125 2.5 L 126.5 1 Z " /><path fill="rgb(0,0,0)" stroke="rgb(0,0,0)" stroke-width="1" opacity="0.27058823529411763" d="M 64.5 3 L 65 7.5 L 64 7.5 L 64.5 3 Z " /><path fill="rgb(0,0,0)" stroke="rgb(0,0,0)" stroke-width="1" opacity="0.27058823529411763" d="M 79.5 4 L 82 4.5 L 79.5 5 L 79.5 4 Z " /><path fill="rgb(0,0,0)" stroke="rgb(0,0,0)" stroke-width="1" opacity="0.27058823529411763" d="M 134.5 4 L 135.5 6 L 134.5 4 Z " /><path fill="rgb(0,0,0)" stroke="rgb(0,0,0)" stroke-width="1" opacity="0.27058823529411763" d="M 138.5 7 L 139.5 9 L 138.5 7 Z " /><path fill="rgb(0,0,0)" stroke="rgb(0,0,0)" stroke-width="1" opacity="0.27058823529411763" d="M 100.5 10 L 103.5 14 L 100.5 10 Z " /><path fill="rgb(0,0,0)" stroke="rgb(0,0,0)" stroke-width="1" opacity="0.27058823529411763" d="M 142.5 10 L 143.5 12 L 142.5 10 Z " /><path fill="rgb(0,0,0)" stroke="rgb(0,0,0)" stroke-width="1" opacity="0.27058823529411763" d="M 125.5 12 L 126 14.5 L 125 14.5 L 125.5 12 Z " /><path fill="rgb(0,0,0)" stroke="rgb(0,0,0)" stroke-width="1" opacity="0.27058823529411763" d="M 146.5 13 L 147.5 15 L 146.5 13 Z " /><path fill="rgb(0,0,0)" stroke="rgb(0,0,0)" stroke-width="1" opacity="0.27058823529411763" d="M 68.5 14 L 69.5 16 L 68.5 14 Z " /><path fill="rgb(0,0,0)" stroke="rgb(0,0,0)" stroke-width="1" opacity="0.27058823529411763" d="M 150.5 16 L 152.5 19 L 150.5 16 Z " /><path fill="rgb(0,0,0)" stroke="rgb(0,0,0)" stroke-width="1" opacity="0.27058823529411763" d="M 71.5 18 L 72.5 20 L 71.5 18 Z " /><path fill="rgb(0,0,0)" stroke="rgb(0,0,0)" stroke-width="1" opacity="0.27058823529411763" d="M 156.5 21 L 162.5 28 L 156.5 21 Z " /><path fill="rgb(0,0,0)" stroke="rgb(0,0,0)" stroke-width="1" opacity="0.27058823529411763" d="M 63.5 28 L 59.5 33 L 63.5 28 Z " /><path fill="rgb(0,0,0)" stroke="rgb(0,0,0)" stroke-width="1" opacity="0.27058823529411763" d="M 67.5 29 L 69 31.5 L 68 31.5 L 67.5 29 Z " /><path fill="rgb(0,0,0)" stroke="rgb(0,0,0)" stroke-width="1" opacity="0.27058823529411763" d="M 83.5 30 L 84.5 32 L 83.5 30 Z " /><path fill="rgb(0,0,0)" stroke="rgb(0,0,0)" stroke-width="1" opacity="0.27058823529411763" d="M 165.5 31 L 166.5 33 L 165.5 31 Z " /><path fill="rgb(0,0,0)" stroke="rgb(0,0,0)" stroke-width="1" opacity="0.27058823529411763" d="M 54.5 38 L 52.5 41 L 54.5 38 Z " /><path fill="rgb(0,0,0)" stroke="rgb(0,0,0)" stroke-width="1" opacity="0.27058823529411763" d="M 67.5 41 L 68 43.5 L 67 43.5 L 67.5 41 Z " /><path fill="rgb(0,0,0)" stroke="rgb(0,0,0)" stroke-width="1" opacity="0.27058823529411763" d="M 121.5 43 L 126.5 49 Q 124.3 49.8 125 47.5 L 121.5 43 Z " /><path fill="rgb(0,0,0)" stroke="rgb(0,0,0)" stroke-width="1" opacity="0.27058823529411763" d="M 96.5 44 L 99 44.5 L 96.5 45 L 96.5 44 Z " /><path fill="rgb(0,0,0)" stroke="rgb(0,0,0)" stroke-width="1" opacity="0.27058823529411763" d="M 149.5 45 L 153 49.5 L 152 49.5 L 149.5 45 Z " /><path fill="rgb(0,0,0)" stroke="rgb(0,0,0)" stroke-width="1" opacity="0.27058823529411763" d="M 172.5 45 L 173 47.5 L 172 47.5 L 172.5 45 Z " /><path fill="rgb(0,0,0)" stroke="rgb(0,0,0)" stroke-width="1" opacity="0.27058823529411763" d="M 48.5 46 L 47.5 48 L 48.5 46 Z " /><path fill="rgb(0,0,0)" stroke="rgb(0,0,0)" stroke-width="1" opacity="0.27058823529411763" d="M 152.5 51 L 153 52.5 L 151 53.5 L 152.5 51 Z " /><path fill="rgb(0,0,0)" stroke="rgb(0,0,0)" stroke-width="1" opacity="0.27058823529411763" d="M 148.5 53 L 149 56.5 L 148 56.5 L 148.5 53 Z " /><path fill="rgb(0,0,0)" stroke="rgb(0,0,0)" stroke-width="1" opacity="0.27058823529411763" d="M 170.5 63 L 169.5 65 L 170.5 63 Z " /><path fill="rgb(0,0,0)" stroke="rgb(0,0,0)" stroke-width="1" opacity="0.27058823529411763" d="M 167.5 66 L 165.5 69 L 167.5 66 Z " /><path fill="rgb(0,0,0)" stroke="rgb(0,0,0)" stroke-width="1" opacity="0.27058823529411763" d="M 160.5 71 L 159.5 73 L 160.5 71 Z " /><path fill="rgb(0,0,0)" stroke="rgb(0,0,0)" stroke-width="1" opacity="0.27058823529411763" d="M 36.5 80 L 37 88.5 L 36 88.5 L 36.5 80 Z " /><path fill="rgb(0,0,0)" stroke="rgb(0,0,0)" stroke-width="1" opacity="0.27058823529411763" d="M 157.5 88 L 158 90.5 L 157 90.5 L 157.5 88 Z " /><path fill="rgb(0,0,0)" stroke="rgb(0,0,0)" stroke-width="1" opacity="0.27058823529411763" d="M 181.5 89 L 184 89.5 L 178.5 93 L 181.5 89 Z " /><path fill="rgb(0,0,0)" stroke="rgb(0,0,0)" stroke-width="1" opacity="0.27058823529411763" d="M 185.5 90 L 194.5 100 L 185.5 90 Z " /><path fill="rgb(0,0,0)" stroke="rgb(0,0,0)" stroke-width="1" opacity="0.27058823529411763" d="M 21.5 92 Q 27.3 91.3 28 95.5 L 24.5 93 Q 20.5 93.8 21.5 92 Z " /><path fill="rgb(0,0,0)" stroke="rgb(0,0,0)" stroke-width="1" opacity="0.27058823529411763" d="M 158.5 92 L 159 94.5 L 158 94.5 L 158.5 92 Z " /><path fill="rgb(0,0,0)" stroke="rgb(0,0,0)" stroke-width="1" opacity="0.27058823529411763" d="M 19.5 93 L 15.5 98 L 19.5 93 Z " /><path fill="rgb(0,0,0)" stroke="rgb(0,0,0)" stroke-width="1" opacity="0.27058823529411763" d="M 175.5 96 L 173.5 99 L 175.5 96 Z " /><path fill="rgb(0,0,0)" stroke="rgb(0,0,0)" stroke-width="1" opacity="0.27058823529411763" d="M 29.5 98 L 39.5 109 L 29.5 98 Z " /><path fill="rgb(0,0,0)" stroke="rgb(0,0,0)" stroke-width="1" opacity="0.27058823529411763" d="M 13.5 100 L 12.5 102 L 13.5 100 Z " /><path fill="rgb(0,0,0)" stroke="rgb(0,0,0)" stroke-width="1" opacity="0.27058823529411763" d="M 41.5 100 L 42.5 102 L 41.5 100 Z " /><path fill="rgb(0,0,0)" stroke="rgb(0,0,0)" stroke-width="1" opacity="0.27058823529411763" d="M 170.5 102 L 168.5 105 L 170.5 102 Z " /><path fill="rgb(0,0,0)" stroke="rgb(0,0,0)" stroke-width="1" opacity="0.27058823529411763" d="M 9.5 106 L 8.5 108 L 9.5 106 Z " /><path fill="rgb(0,0,0)" stroke="rgb(0,0,0)" stroke-width="1" opacity="0.27058823529411763" d="M 43.5 106 L 44 110.5 L 43 110.5 L 43.5 106 Z " /><path fill="rgb(0,0,0)" stroke="rgb(0,0,0)" stroke-width="1" opacity="0.27058823529411763" d="M 198.5 106 L 199 108.5 L 197 109.5 L 198.5 106 Z " /><path fill="rgb(0,0,0)" stroke="rgb(0,0,0)" stroke-width="1" opacity="0.27058823529411763" d="M 166.5 107 L 165.5 109 L 166.5 107 Z " /><path fill="rgb(0,0,0)" stroke="rgb(0,0,0)" stroke-width="1" opacity="0.27058823529411763" d="M 163.5 111 L 160.5 115 L 163.5 111 Z " /><path fill="rgb(0,0,0)" stroke="rgb(0,0,0)" stroke-width="1" opacity="0.27058823529411763" d="M 157.5 112 L 158.5 114 L 157.5 112 Z " /><path fill="rgb(0,0,0)" stroke="rgb(0,0,0)" stroke-width="1" opacity="0.27058823529411763" d="M 195.5 113 L 194.5 115 L 195.5 113 Z " /><path fill="rgb(0,0,0)" stroke="rgb(0,0,0)" stroke-width="1" opacity="0.27058823529411763" d="M 191.5 118 L 188.5 122 L 191.5 118 Z " /><path fill="rgb(0,0,0)" stroke="rgb(0,0,0)" stroke-width="1" opacity="0.27058823529411763" d="M 12.5 119 L 29.5 137 L 12.5 119 Z " /><path fill="rgb(0,0,0)" stroke="rgb(0,0,0)" stroke-width="1" opacity="0.27058823529411763" d="M 185.5 125 L 180.5 131 L 185.5 125 Z " /><path fill="rgb(0,0,0)" stroke="rgb(0,0,0)" stroke-width="1" opacity="0.27058823529411763" d="M 182.5 136 L 184.5 139 L 182.5 136 Z " /><path fill="rgb(0,0,0)" stroke="rgb(0,0,0)" stroke-width="1" opacity="0.27058823529411763" d="M 29.5 138 L 27.5 141 L 29.5 138 Z " /><path fill="rgb(0,0,0)" stroke="rgb(0,0,0)" stroke-width="1" opacity="0.27058823529411763" d="M 25.5 143 L 23.5 146 L 25.5 143 Z " /><path fill="rgb(0,0,0)" stroke="rgb(0,0,0)" stroke-width="1" opacity="0.27058823529411763" d="M 188.5 145 L 189 149.5 L 188 149.5 L 188.5 145 Z " /><path fill="rgb(0,0,0)" stroke="rgb(0,0,0)" stroke-width="1" opacity="0.27058823529411763" d="M 187.5 151 L 185.5 154 L 187.5 151 Z " /><path fill="rgb(0,0,0)" stroke="rgb(0,0,0)" stroke-width="1" opacity="0.27058823529411763" d="M 21.5 155 L 26.5 161 L 21.5 155 Z " /><path fill="rgb(0,0,0)" stroke="rgb(0,0,0)" stroke-width="1" opacity="0.27058823529411763" d="M 43.5 157 L 42.5 159 L 43.5 157 Z " /><path fill="rgb(0,0,0)" stroke="rgb(0,0,0)" stroke-width="1" opacity="0.27058823529411763" d="M 163.5 157 L 160.5 161 L 163.5 157 Z " /><path fill="rgb(0,0,0)" stroke="rgb(0,0,0)" stroke-width="1" opacity="0.27058823529411763" d="M 181.5 158 L 179.5 161 L 181.5 158 Z " /><path fill="rgb(0,0,0)" stroke="rgb(0,0,0)" stroke-width="1" opacity="0.27058823529411763" d="M 28.5 161 L 29.5 163 L 28.5 161 Z " /><path fill="rgb(0,0,0)" stroke="rgb(0,0,0)" stroke-width="1" opacity="0.27058823529411763" d="M 38.5 162 L 37.5 164 L 36 163.5 L 38.5 162 Z " /><path fill="rgb(0,0,0)" stroke="rgb(0,0,0)" stroke-width="1" opacity="0.27058823529411763" d="M 41.5 166 L 39.5 169 L 41.5 166 Z " /><path fill="rgb(0,0,0)" stroke="rgb(0,0,0)" stroke-width="1" opacity="0.27058823529411763" d="M 37.5 171 L 36.5 173 L 37.5 171 Z " /><path fill="rgb(0,0,0)" stroke="rgb(0,0,0)" stroke-width="1" opacity="0.27058823529411763" d="M 30.5 188 L 31 190.5 L 30 190.5 L 30.5 188 Z " /></svg>