<svg width="200" height="200" version="1.1" xmlns="http://www.w3.org/2000/svg" desc="Created with imagetracer.js version 1.2.6" ><path fill="rgb(0,0,0)" stroke="rgb(0,0,0)" stroke-width="1" opacity="0.06666666666666667" d="M 75.5 29 L 76 31 L 72.5 33 L 75.5 29 Z " /><path fill="rgb(0,0,0)" stroke="rgb(0,0,0)" stroke-width="1" opacity="0.06666666666666667" d="M 118.5 30 Q 123.3 28.3 122 32.5 L 119.5 38 L 119 36.5 L 121 31 Q 117.7 31.8 118.5 30 Z " /><path fill="rgb(0,0,0)" stroke="rgb(0,0,0)" stroke-width="1" opacity="0.06666666666666667" d="M 113.5 31 L 116 31.5 L 113.5 32 L 113.5 31 Z " /><path fill="rgb(0,0,0)" stroke="rgb(0,0,0)" stroke-width="1" opacity="0.06666666666666667" d="M 107.5 32 L 110 32.5 L 98.5 37 L 99.5 35 L 107.5 32 Z " /><path fill="rgb(0,0,0)" stroke="rgb(0,0,0)" stroke-width="1" opacity="0.06666666666666667" d="M 78.5 33 L 84.5 40 L 78.5 33 Z " /><path fill="rgb(0,0,0)" stroke="rgb(0,0,0)" stroke-width="1" opacity="0.06666666666666667" d="M 96.5 37 L 95.5 39 L 93.5 40 L 94.5 38 L 96.5 37 Z " /><path fill="rgb(0,0,0)" stroke="rgb(0,0,0)" stroke-width="1" opacity="0.06666666666666667" d="M 45.5 41 L 53 41.5 L 45.5 42 L 45.5 41 Z " /><path fill="rgb(0,0,0)" stroke="rgb(0,0,0)" stroke-width="1" opacity="0.06666666666666667" d="M 42.5 42 L 44 42.5 L 39.5 45 L 40.5 43 L 42.5 42 Z " /><path fill="rgb(0,0,0)" stroke="rgb(0,0,0)" stroke-width="1" opacity="0.06666666666666667" d="M 54.5 42 Q 56.8 41.3 56 43.5 L 58 46.5 L 57 46.5 L 54.5 42 Z " /><path fill="rgb(0,0,0)" stroke="rgb(0,0,0)" stroke-width="1" opacity="0.06666666666666667" d="M 147.5 43 L 149 43.5 L 147 44 L 144.5 50 L 144 48.5 L 147.5 43 Z " /><path fill="rgb(0,0,0)" stroke="rgb(0,0,0)" stroke-width="1" opacity="0.06666666666666667" d="M 151.5 43 L 155 44.5 L 153.5 44 Q 150.5 44.5 151.5 43 Z " /><path fill="rgb(0,0,0)" stroke="rgb(0,0,0)" stroke-width="1" opacity="0.06666666666666667" d="M 66.5 44 L 67 45.5 Q 64 49.8 65 57 L 63 56.5 L 66.5 44 Z " /><path fill="rgb(0,0,0)" stroke="rgb(0,0,0)" stroke-width="1" opacity="0.06666666666666667" d="M 37.5 45 L 36.5 47 L 32.5 50 L 35.5 46 L 37.5 45 Z " /><path fill="rgb(0,0,0)" stroke="rgb(0,0,0)" stroke-width="1" opacity="0.06666666666666667" d="M 156.5 45 L 159 46.5 L 157.5 46 L 156.5 45 Z " /><path fill="rgb(0,0,0)" stroke="rgb(0,0,0)" stroke-width="1" opacity="0.06666666666666667" d="M 160.5 47 L 165 50.5 L 162.5 49 L 160.5 47 Z " /><path fill="rgb(0,0,0)" stroke="rgb(0,0,0)" stroke-width="1" opacity="0.06666666666666667" d="M 58.5 48 Q 58.7 53.3 62 55.5 L 60.5 56 L 59 54.5 L 58.5 48 Z " /><path fill="rgb(0,0,0)" stroke="rgb(0,0,0)" stroke-width="1" opacity="0.06666666666666667" d="M 126.5 48 L 129 48.5 L 123.5 50 L 123.5 49 L 126.5 48 Z " /><path fill="rgb(0,0,0)" stroke="rgb(0,0,0)" stroke-width="1" opacity="0.06666666666666667" d="M 115.5 49 L 116.5 52 L 121.5 50 L 121.5 51 L 114.5 54 L 114 52.5 L 115.5 49 Z " /><path fill="rgb(0,0,0)" stroke="rgb(0,0,0)" stroke-width="1" opacity="0.06666666666666667" d="M 130.5 49 L 133 51.5 L 134 56.5 L 133 59 L 135 59.5 L 131.5 60 L 132 58.5 Q 133 50.7 130.5 49 Z " /><path fill="rgb(0,0,0)" stroke="rgb(0,0,0)" stroke-width="1" opacity="0.06666666666666667" d="M 30.5 50 L 23 58.5 L 21.5 61 L 21 59.5 L 30.5 50 Z " /><path fill="rgb(0,0,0)" stroke="rgb(0,0,0)" stroke-width="1" opacity="0.06666666666666667" d="M 143.5 51 L 144 52.5 L 141.5 58 L 141 56.5 L 143.5 51 Z " /><path fill="rgb(0,0,0)" stroke="rgb(0,0,0)" stroke-width="1" opacity="0.06666666666666667" d="M 168.5 53 L 172.5 58 L 168.5 53 Z " /><path fill="rgb(0,0,0)" stroke="rgb(0,0,0)" stroke-width="1" opacity="0.06666666666666667" d="M 140.5 59 L 141 60.5 L 138.5 62 L 136 60.5 L 140.5 59 Z " /><path fill="rgb(0,0,0)" stroke="rgb(0,0,0)" stroke-width="1" opacity="0.06666666666666667" d="M 173.5 59 L 175.5 62 L 173.5 59 Z " /><path fill="rgb(0,0,0)" stroke="rgb(0,0,0)" stroke-width="1" opacity="0.06666666666666667" d="M 9.5 61 L 19.5 63 L 21 62.5 L 20 65 L 13.5 62 L 9.5 62 L 8 62.5 L 9.5 61 Z " /><path fill="rgb(0,0,0)" stroke="rgb(0,0,0)" stroke-width="1" opacity="0.06666666666666667" d="M 176.5 63 L 179 66.5 L 177 65.5 L 176.5 63 Z " /><path fill="rgb(0,0,0)" stroke="rgb(0,0,0)" stroke-width="1" opacity="0.06666666666666667" d="M 7.5 64 L 8 69.5 L 7 69.5 L 7.5 64 Z " /><path fill="rgb(0,0,0)" stroke="rgb(0,0,0)" stroke-width="1" opacity="0.06666666666666667" d="M 179.5 68 L 181 71.5 L 180 71.5 L 179.5 68 Z " /><path fill="rgb(0,0,0)" stroke="rgb(0,0,0)" stroke-width="1" opacity="0.06666666666666667" d="M 181.5 73 L 182 84 L 190 85.5 L 187.5 86 L 181 85 L 181.5 73 Z " /><path fill="rgb(0,0,0)" stroke="rgb(0,0,0)" stroke-width="1" opacity="0.06666666666666667" d="M 9.5 76 L 11 79.5 L 8.5 83 L 8 81.5 L 10 78.5 L 9.5 76 Z " /><path fill="rgb(0,0,0)" stroke="rgb(0,0,0)" stroke-width="1" opacity="0.06666666666666667" d="M 9.5 88 L 11 90.5 L 9 89.5 L 9.5 88 Z " /><path fill="rgb(0,0,0)" stroke="rgb(0,0,0)" stroke-width="1" opacity="0.06666666666666667" d="M 191.5 88 Q 194.5 89.5 193 95.5 L 192 95.5 Q 192.5 89.5 191.5 88 Z " /><path fill="rgb(0,0,0)" stroke="rgb(0,0,0)" stroke-width="1" opacity="0.06666666666666667" d="M 11.5 92 L 18 99.5 L 14.5 107 L 14 104.5 Q 16.6 103.1 16 98.5 Q 11.5 96 11.5 92 Z " /><path fill="rgb(0,0,0)" stroke="rgb(0,0,0)" stroke-width="1" opacity="0.06666666666666667" d="M 190.5 97 L 187.5 101 L 190.5 97 Z " /><path fill="rgb(0,0,0)" stroke="rgb(0,0,0)" stroke-width="1" opacity="0.06666666666666667" d="M 185.5 101 L 187 105.5 L 186 105.5 L 185.5 101 Z " /><path fill="rgb(0,0,0)" stroke="rgb(0,0,0)" stroke-width="1" opacity="0.06666666666666667" d="M 187.5 107 L 189 112.5 L 188 112.5 L 187.5 107 Z " /><path fill="rgb(0,0,0)" stroke="rgb(0,0,0)" stroke-width="1" opacity="0.06666666666666667" d="M 13.5 108 L 15 115.5 L 14 115.5 L 13.5 108 Z " /><path fill="rgb(0,0,0)" stroke="rgb(0,0,0)" stroke-width="1" opacity="0.06666666666666667" d="M 189.5 114 L 190 116.5 L 189 116.5 L 189.5 114 Z " /><path fill="rgb(0,0,0)" stroke="rgb(0,0,0)" stroke-width="1" opacity="0.06666666666666667" d="M 91 115 Q 94.8 114 96 116.5 L 91 117 L 91 115 Z " /><path fill="rgb(0,0,0)" stroke="rgb(0,0,0)" stroke-width="1" opacity="0.06666666666666667" d="M 190.5 118 L 192.5 121 L 194 121.5 L 192.5 122 L 190 121 L 190.5 118 Z " /><path fill="rgb(0,0,0)" stroke="rgb(0,0,0)" stroke-width="1" opacity="0.06666666666666667" d="M 12.5 122 L 14 122.5 L 10.5 124 L 10.5 123 L 12.5 122 Z " /><path fill="rgb(0,0,0)" stroke="rgb(0,0,0)" stroke-width="1" opacity="0.06666666666666667" d="M 194.5 123 L 198 130.5 L 197 130.5 L 194.5 123 Z " /><path fill="rgb(0,0,0)" stroke="rgb(0,0,0)" stroke-width="1" opacity="0.06666666666666667" d="M 9.5 125 L 9 126.5 L 0.5 146 L 0 143.5 L 9.5 125 Z " /><path fill="rgb(0,0,0)" stroke="rgb(0,0,0)" stroke-width="1" opacity="0.807843137254902" d="M 74.5 31 L 78 32.5 L 76.5 32 Q 72 31.5 71.5 35 L 74.5 31 Z " /><path fill="rgb(0,0,0)" stroke="rgb(0,0,0)" stroke-width="1" opacity="0.807843137254902" d="M 116.5 31 Q 121.9 29.1 121 32.5 L 119.5 32 Q 115.5 32.8 116.5 31 Z " /><path fill="rgb(0,0,0)" stroke="rgb(0,0,0)" stroke-width="1" opacity="0.807843137254902" d="M 78.5 34 L 83.5 40 L 78.5 34 Z " /><path fill="rgb(0,0,0)" stroke="rgb(0,0,0)" stroke-width="1" opacity="0.807843137254902" d="M 99.5 36 L 101 36.5 L 96.5 39 L 97.5 37 L 99.5 36 Z " /><path fill="rgb(0,0,0)" stroke="rgb(0,0,0)" stroke-width="1" opacity="0.807843137254902" d="M 94.5 39 L 93.5 41 L 91.5 42 L 92.5 40 L 94.5 39 Z " /><path fill="rgb(0,0,0)" stroke="rgb(0,0,0)" stroke-width="1" opacity="0.807843137254902" d="M 87.5 41 L 90 42.5 L 88.5 43 L 87.5 41 Z " /><path fill="rgb(0,0,0)" stroke="rgb(0,0,0)" stroke-width="1" opacity="0.807843137254902" d="M 44.5 42 L 47 42.5 L 42.5 44 L 42.5 43 L 44.5 42 Z " /><path fill="rgb(0,0,0)" stroke="rgb(0,0,0)" stroke-width="1" opacity="0.807843137254902" d="M 51.5 42 Q 56.5 41.5 57 45.5 L 58 49.5 L 57 49.5 Q 56.8 44.8 53.5 43 Q 50.5 43.5 51.5 42 Z " /><path fill="rgb(0,0,0)" stroke="rgb(0,0,0)" stroke-width="1" opacity="0.807843137254902" d="M 40.5 44 L 39.5 46 L 33.5 50 L 35.5 47 L 40.5 44 Z " /><path fill="rgb(0,0,0)" stroke="rgb(0,0,0)" stroke-width="1" opacity="0.807843137254902" d="M 147.5 44 L 148 45.5 L 144.5 52 L 144 50.5 L 147.5 44 Z " /><path fill="rgb(0,0,0)" stroke="rgb(0,0,0)" stroke-width="1" opacity="0.807843137254902" d="M 155.5 45 Q 166.2 49.8 173 58.5 L 176 62.5 L 171 58.5 L 166.5 53 L 156.5 47 L 155.5 45 Z " /><path fill="rgb(0,0,0)" stroke="rgb(0,0,0)" stroke-width="1" opacity="0.807843137254902" d="M 66.5 46 L 67 48.5 L 66 48.5 L 66.5 46 Z " /><path fill="rgb(0,0,0)" stroke="rgb(0,0,0)" stroke-width="1" opacity="0.807843137254902" d="M 115.5 46 L 116 48.5 L 114.5 52 L 114 49.5 L 115.5 46 Z " /><path fill="rgb(0,0,0)" stroke="rgb(0,0,0)" stroke-width="1" opacity="0.807843137254902" d="M 126.5 49 Q 131.3 48.3 132 51.5 L 129.5 50 Q 125.5 50.8 126.5 49 Z " /><path fill="rgb(0,0,0)" stroke="rgb(0,0,0)" stroke-width="1" opacity="0.807843137254902" d="M 31.5 50 L 24 58.5 L 21.5 62 L 23 59.5 L 31.5 50 Z " /><path fill="rgb(0,0,0)" stroke="rgb(0,0,0)" stroke-width="1" opacity="0.807843137254902" d="M 65.5 50 L 66 53.5 L 65 53.5 L 65.5 50 Z " /><path fill="rgb(0,0,0)" stroke="rgb(0,0,0)" stroke-width="1" opacity="0.807843137254902" d="M 122.5 50 L 125 50.5 L 120.5 52 L 120.5 51 L 122.5 50 Z " /><path fill="rgb(0,0,0)" stroke="rgb(0,0,0)" stroke-width="1" opacity="0.807843137254902" d="M 58.5 51 L 60 55.5 L 58 54.5 L 58.5 51 Z " /><path fill="rgb(0,0,0)" stroke="rgb(0,0,0)" stroke-width="1" opacity="0.807843137254902" d="M 117.5 52 L 119 52.5 L 114.5 55 L 113.5 53 L 115.5 53 L 117.5 52 Z " /><path fill="rgb(0,0,0)" stroke="rgb(0,0,0)" stroke-width="1" opacity="0.807843137254902" d="M 62.5 56 L 65 57.5 L 63.5 58 L 62.5 56 Z " /><path fill="rgb(0,0,0)" stroke="rgb(0,0,0)" stroke-width="1" opacity="0.807843137254902" d="M 131.5 56 L 132 58.5 L 131 58.5 L 131.5 56 Z " /><path fill="rgb(0,0,0)" stroke="rgb(0,0,0)" stroke-width="1" opacity="0.807843137254902" d="M 142.5 56 L 143 57.5 L 140.5 62 L 141 60.5 L 142.5 56 Z " /><path fill="rgb(0,0,0)" stroke="rgb(0,0,0)" stroke-width="1" opacity="0.807843137254902" d="M 130.5 60 L 136 60.5 L 130.5 61 L 130.5 60 Z " /><path fill="rgb(0,0,0)" stroke="rgb(0,0,0)" stroke-width="1" opacity="0.807843137254902" d="M 9.5 62 L 13.5 62 L 20 65.5 L 18.5 66 Q 15.5 62.1 9 63 Q 7.9 71.9 11 77.5 L 10 77.5 Q 7 72.5 8 63.5 L 9.5 62 Z " /><path fill="rgb(0,0,0)" stroke="rgb(0,0,0)" stroke-width="1" opacity="0.807843137254902" d="M 177.5 66 L 179 68.5 L 178 68.5 L 177.5 66 Z " /><path fill="rgb(0,0,0)" stroke="rgb(0,0,0)" stroke-width="1" opacity="0.807843137254902" d="M 179.5 70 Q 182.1 72.4 181 78.5 L 180 78.5 L 179.5 70 Z " /><path fill="rgb(0,0,0)" stroke="rgb(0,0,0)" stroke-width="1" opacity="0.807843137254902" d="M 180.5 83 L 181 85 L 187 85.5 L 181.5 86 L 180.5 83 Z " /><path fill="rgb(0,0,0)" stroke="rgb(0,0,0)" stroke-width="1" opacity="0.807843137254902" d="M 188.5 86 L 191 87.5 L 192 89.5 L 188.5 86 Z " /><path fill="rgb(0,0,0)" stroke="rgb(0,0,0)" stroke-width="1" opacity="0.807843137254902" d="M 11.5 91 L 12.5 93 L 11.5 91 Z " /><path fill="rgb(0,0,0)" stroke="rgb(0,0,0)" stroke-width="1" opacity="0.807843137254902" d="M 191.5 93 L 192 95.5 L 185 101 L 184.5 103 L 184 101.5 L 190 96.5 L 191.5 93 Z " /><path fill="rgb(0,0,0)" stroke="rgb(0,0,0)" stroke-width="1" opacity="0.807843137254902" d="M 13.5 94 L 19 99.5 L 18 100.5 L 16.5 103 L 17 101.5 L 18 99.5 L 13.5 94 Z " /><path fill="rgb(0,0,0)" stroke="rgb(0,0,0)" stroke-width="1" opacity="0.807843137254902" d="M 15.5 104 L 16 106.5 L 14.5 112 L 14 107.5 L 15.5 104 Z " /><path fill="rgb(0,0,0)" stroke="rgb(0,0,0)" stroke-width="1" opacity="0.807843137254902" d="M 185.5 104 L 187 108.5 L 186 108.5 L 185.5 104 Z " /><path fill="rgb(0,0,0)" stroke="rgb(0,0,0)" stroke-width="1" opacity="0.807843137254902" d="M 188.5 113 L 189 115.5 L 188 115.5 L 188.5 113 Z " /><path fill="rgb(0,0,0)" stroke="rgb(0,0,0)" stroke-width="1" opacity="0.807843137254902" d="M 15.5 114 L 16 116.5 L 15 116.5 L 15.5 114 Z " /><path fill="rgb(0,0,0)" stroke="rgb(0,0,0)" stroke-width="1" opacity="0.807843137254902" d="M 90 114 L 94 114.5 L 91 115 Q 89.7 118.7 95.5 117 L 95.5 118 Q 91 119 90 116.5 L 90 114 Z " /><path fill="rgb(0,0,0)" stroke="rgb(0,0,0)" stroke-width="1" opacity="0.807843137254902" d="M 16.5 118 L 17 121.5 Q 16.5 124.5 12.5 124 L 12.5 123 L 16 122 L 16.5 118 Z " /><path fill="rgb(0,0,0)" stroke="rgb(0,0,0)" stroke-width="1" opacity="0.807843137254902" d="M 193.5 122 L 196 126.5 L 194 125.5 L 193.5 122 Z " /><path fill="rgb(0,0,0)" stroke="rgb(0,0,0)" stroke-width="1" opacity="0.807843137254902" d="M 10.5 124 L 11 125.5 L 9 126.5 L 10.5 124 Z " /><path fill="rgb(0,0,0)" stroke="rgb(0,0,0)" stroke-width="1" opacity="0" d="M 0 0 L 200 0 L 200 133.5 L 199 133.5 L 194 121 L 191 119.5 L 186 101 L 191 97.5 L 191 96 L 193 95.5 L 193 89.5 L 190 85 L 182 84 L 181 70.5 Q 176.4 60.1 168.5 53 L 153.5 43 L 147.5 43 L 139.5 60 L 133 59 L 134 56.5 L 133 51.5 L 130.5 49 L 126.5 48 L 116.5 52 L 116 47.5 L 122 30 L 104.5 33 L 89.5 42 Q 82 39 78 32.5 L 76 29.5 L 72 32.5 L 65 46.5 L 64 56 L 60 53.5 L 56 42 Q 52.6 40.3 45.5 41 Q 30.1 47.1 21 59.5 L 19.5 63 L 9.5 61 Q 6 63 7 69.5 L 10 79.5 Q 6.8 80.8 8 86.5 Q 10.3 94.2 16 98.5 L 16 101.5 Q 12.5 105 13 112.5 L 16 119.5 L 15 122 L 10 123 L 0.5 143 L 0 0 Z " /><path fill="rgb(128,233,94)" stroke="rgb(128,233,94)" stroke-width="1" opacity="1" d="M 123.5 58 L 123 59.5 L 117.5 69 L 115 62 L 123.5 58 Z " /><path fill="rgb(128,233,94)" stroke="rgb(128,233,94)" stroke-width="1" opacity="1" d="M 60 63 Q 62.7 61.9 62 64.5 L 63 69.5 L 62 69.5 L 60 63 Z " /><path fill="rgb(128,233,94)" stroke="rgb(128,233,94)" stroke-width="1" opacity="1" d="M 105.5 67 Q 108.8 65.9 108 68.5 L 111 74.5 L 101.5 81 L 101 79.5 Q 106.1 77.6 105 69.5 Q 102.8 68.3 105.5 67 Z " /><path fill="rgb(128,233,94)" stroke="rgb(128,233,94)" stroke-width="1" opacity="1" d="M 128.5 71 L 129 77 L 126.5 77 L 112 85 L 113.5 82 L 128.5 71 Z " /><path fill="rgb(128,233,94)" stroke="rgb(128,233,94)" stroke-width="1" opacity="1" d="M 149.5 72 L 152 72.5 L 151 77.5 L 148.5 80 Q 146.3 79.3 147 81.5 L 140 93.5 L 138 100.5 L 138 105.5 L 135.5 109 Q 129.7 110.7 131 107 L 135 104.5 L 138 98.5 L 143 80.5 L 149.5 72 Z " /><path fill="rgb(128,233,94)" stroke="rgb(128,233,94)" stroke-width="1" opacity="1" d="M 137.5 73 L 138 75.5 L 137 75.5 L 137.5 73 Z " /><path fill="rgb(128,233,94)" stroke="rgb(128,233,94)" stroke-width="1" opacity="1" d="M 22.5 78 Q 25.3 79.3 23 80.5 L 22 85 L 15 86 L 20.5 79 L 22.5 78 Z " /><path fill="rgb(128,233,94)" stroke="rgb(128,233,94)" stroke-width="1" opacity="1" d="M 34.5 80 L 42 80 L 42 86.5 L 40.5 88 L 32.5 88 L 29 85.5 L 31.5 81 L 34.5 80 Z " /><path fill="rgb(128,233,94)" stroke="rgb(128,233,94)" stroke-width="1" opacity="1" d="M 163.5 84 Q 165.5 87 171.5 86 L 174 84.5 L 173 91 L 164.5 91 L 163 89.5 L 163.5 84 Z " /><path fill="rgb(128,233,94)" stroke="rgb(128,233,94)" stroke-width="1" opacity="1" d="M 73.5 86 L 75 91.5 L 72 93.5 L 71 87 L 73.5 86 Z " /><path fill="rgb(128,233,94)" stroke="rgb(128,233,94)" stroke-width="1" opacity="1" d="M 182.5 91 L 187 92 Q 188.3 95 184.5 94 L 179 96 L 180.5 92 L 182.5 91 Z " /><path fill="rgb(128,233,94)" stroke="rgb(128,233,94)" stroke-width="1" opacity="1" d="M 111.5 101 L 115 103.5 Q 116.7 108.3 112.5 107 Q 111.2 104.8 106.5 106 L 105 104.5 L 111.5 101 Z " /><path fill="rgb(128,233,94)" stroke="rgb(128,233,94)" stroke-width="1" opacity="1" d="M 25.5 105 L 29 106.5 L 22 109 L 23.5 106 L 25.5 105 Z " /><path fill="rgb(128,233,94)" stroke="rgb(128,233,94)" stroke-width="1" opacity="1" d="M 163.5 108 Q 169.7 107.4 172 110 L 172 113 L 165.5 113 L 163 112 L 162 109.5 L 163.5 108 Z " /><path fill="rgb(128,233,94)" stroke="rgb(128,233,94)" stroke-width="1" opacity="1" d="M 188.5 152 Q 192.5 151.5 193 154.5 Q 193.5 158.5 190.5 159 Q 186.5 159.5 186 156.5 Q 185.5 152.5 188.5 152 Z " /><path fill="rgb(85,165,56)" stroke="rgb(85,165,56)" stroke-width="1" opacity="1" d="M 50.5 48 L 51.5 50 L 50.5 48 Z " /><path fill="rgb(85,165,56)" stroke="rgb(85,165,56)" stroke-width="1" opacity="1" d="M 123.5 57 L 123.5 60 L 121 58.5 L 123.5 57 Z " /><path fill="rgb(85,165,56)" stroke="rgb(85,165,56)" stroke-width="1" opacity="1" d="M 33.5 58 L 31.5 61 L 33.5 58 Z " /><path fill="rgb(85,165,56)" stroke="rgb(85,165,56)" stroke-width="1" opacity="1" d="M 117.5 60 L 116.5 62 L 117.5 60 Z " /><path fill="rgb(85,165,56)" stroke="rgb(85,165,56)" stroke-width="1" opacity="1" d="M 120.5 65 L 119.5 67 L 120.5 65 Z " /><path fill="rgb(85,165,56)" stroke="rgb(85,165,56)" stroke-width="1" opacity="1" d="M 63.5 67 L 64 70.5 L 63 70.5 L 63.5 67 Z " /><path fill="rgb(85,165,56)" stroke="rgb(85,165,56)" stroke-width="1" opacity="1" d="M 102.5 68 L 105 69.5 L 105 74.5 L 99.5 82 L 89.5 84 L 81 84 L 78 78.5 L 80.5 78 Q 82.3 80.7 88.5 79 L 98 76 L 99 70 L 102.5 68 Z " /><path fill="rgb(85,165,56)" stroke="rgb(85,165,56)" stroke-width="1" opacity="1" d="M 118.5 68 L 117.5 70 L 118.5 68 Z " /><path fill="rgb(85,165,56)" stroke="rgb(85,165,56)" stroke-width="1" opacity="1" d="M 128.5 70 L 130 70.5 L 130 79.5 L 114.5 94 Q 107.3 92.8 105 96.5 L 106 102 L 108 102.5 L 105 104.5 L 106.5 106 L 115 107 Q 116 102.8 113 101.5 L 116 103.5 Q 116 111 112.5 115 L 103.5 115 L 103 113.5 Q 99.6 106.9 89.5 107 Q 80.2 109.7 74.5 116 L 64.5 116 L 63.5 117 L 62 114.5 L 69 105.5 L 69 101.5 L 66 94.5 L 66 90.5 L 70.5 87 L 72.5 94 L 74 93.5 L 70 97.5 L 70 100.5 Q 70.8 102.8 74.5 102 L 81 95.5 Q 80.3 91.8 82.5 91 L 92.5 91 L 103.5 88 L 111.5 84 L 113.5 85 Q 119.8 79 129 77 L 128.5 71 L 126 72.5 L 128.5 70 Z " /><path fill="rgb(85,165,56)" stroke="rgb(85,165,56)" stroke-width="1" opacity="1" d="M 34.5 73 Q 40.5 71.5 42 74.5 L 43 81 L 50 81 L 50 78.5 L 51 77.5 L 49.5 75 Q 56.8 74.4 60 77 L 61 80.5 L 54.5 86 L 47.5 88 L 41.5 88 L 42 86.5 L 42 80 L 34.5 80 L 30.5 82 L 31 80.5 L 29 75.5 L 34.5 73 Z " /><path fill="rgb(85,165,56)" stroke="rgb(85,165,56)" stroke-width="1" opacity="1" d="M 71 73 L 74 74.5 L 75 78 Q 71.2 79.5 72 76.5 L 71 73 Z " /><path fill="rgb(85,165,56)" stroke="rgb(85,165,56)" stroke-width="1" opacity="1" d="M 151.5 73 L 152 75.5 L 151 75.5 L 151.5 73 Z " /><path fill="rgb(85,165,56)" stroke="rgb(85,165,56)" stroke-width="1" opacity="1" d="M 146.5 75 L 145.5 77 L 146.5 75 Z " /><path fill="rgb(85,165,56)" stroke="rgb(85,165,56)" stroke-width="1" opacity="1" d="M 108.5 76 L 107.5 78 L 108.5 76 Z " /><path fill="rgb(85,165,56)" stroke="rgb(85,165,56)" stroke-width="1" opacity="1" d="M 119.5 77 L 117.5 80 L 119.5 77 Z " /><path fill="rgb(85,165,56)" stroke="rgb(85,165,56)" stroke-width="1" opacity="1" d="M 150.5 78 L 151 79.5 Q 148.1 84.1 149 92.5 L 150.5 94 L 164 97 L 164 104.5 L 166.5 107 L 171 109.5 L 169.5 109 L 163.5 108 Q 160.8 109.3 163 110.5 Q 162.3 112.8 164.5 112 Q 166 114.5 171.5 113 L 173 112.5 L 172.5 121 L 167 120 L 163.5 114 Q 159.1 110.9 150.5 112 L 129.5 117 L 126 115.5 L 130.5 107 L 131 109 Q 135.6 110.3 137 107.5 L 139 96.5 L 138 94.5 L 139 94.5 L 139.5 96 L 147 80 L 150.5 78 Z " /><path fill="rgb(85,165,56)" stroke="rgb(85,165,56)" stroke-width="1" opacity="1" d="M 162.5 79 Q 170 79 173 83.5 L 171.5 86 Q 165.5 87 163.5 84 L 163 89.5 L 163.5 91 L 156 88 Q 154.8 83.4 157.5 82 L 163 84 L 162.5 79 Z " /><path fill="rgb(85,165,56)" stroke="rgb(85,165,56)" stroke-width="1" opacity="1" d="M 18.5 80 L 16.5 83 L 18.5 80 Z " /><path fill="rgb(85,165,56)" stroke="rgb(85,165,56)" stroke-width="1" opacity="1" d="M 115.5 80 L 114.5 82 L 115.5 80 Z " /><path fill="rgb(85,165,56)" stroke="rgb(85,165,56)" stroke-width="1" opacity="1" d="M 17.5 85 Q 22.9 83.1 22 86.5 L 33.5 95 L 43.5 96 L 57.5 92 L 57.5 93 L 55 94.5 L 54 97.5 L 57 109.5 L 53.5 116 L 42.5 111 L 33.5 111 L 30 113.5 L 29 119 Q 24.4 120.3 23 117.5 L 21 107.5 L 24.5 105 L 24.5 106 L 22 107.5 Q 21.3 109.8 23.5 109 L 29 106.5 L 28.5 105 L 33.5 106 L 36 102.5 L 32.5 99 L 24 98 L 16 86.5 L 17.5 85 Z " /><path fill="rgb(85,165,56)" stroke="rgb(85,165,56)" stroke-width="1" opacity="1" d="M 173.5 86 L 174 88.5 L 173 88.5 L 173.5 86 Z " /><path fill="rgb(85,165,56)" stroke="rgb(85,165,56)" stroke-width="1" opacity="1" d="M 74.5 87 L 75 90.5 L 74 90.5 L 74.5 87 Z " /><path fill="rgb(85,165,56)" stroke="rgb(85,165,56)" stroke-width="1" opacity="1" d="M 34.5 88 L 40 88.5 L 34.5 89 L 34.5 88 Z " /><path fill="rgb(85,165,56)" stroke="rgb(85,165,56)" stroke-width="1" opacity="1" d="M 167.5 91 L 173 91.5 L 167.5 92 L 167.5 91 Z " /><path fill="rgb(85,165,56)" stroke="rgb(85,165,56)" stroke-width="1" opacity="1" d="M 183.5 91 L 186 91.5 L 183.5 92 L 183.5 91 Z " /><path fill="rgb(85,165,56)" stroke="rgb(85,165,56)" stroke-width="1" opacity="1" d="M 178.5 95 L 179.5 97 Q 176.7 97.7 178.5 95 Z " /><path fill="rgb(85,165,56)" stroke="rgb(85,165,56)" stroke-width="1" opacity="1" d="M 134.5 104 L 132.5 107 L 134.5 104 Z " /><path fill="rgb(85,165,56)" stroke="rgb(85,165,56)" stroke-width="1" opacity="1" d="M 187.5 152 L 186.5 154 L 187.5 152 Z " /><path fill="rgb(85,165,56)" stroke="rgb(85,165,56)" stroke-width="1" opacity="1" d="M 191.5 152 L 192.5 154 L 191.5 152 Z " /><path fill="rgb(85,165,56)" stroke="rgb(85,165,56)" stroke-width="1" opacity="1" d="M 186.5 157 L 187.5 159 L 186.5 157 Z " /><path fill="rgb(85,165,56)" stroke="rgb(85,165,56)" stroke-width="1" opacity="1" d="M 192.5 157 L 191.5 159 L 192.5 157 Z " /><path fill="rgb(85,165,56)" stroke="rgb(85,165,56)" stroke-width="1" opacity="1" d="M 75.5 174 L 81 174.5 L 75.5 175 L 75.5 174 Z " /><path fill="rgb(85,165,56)" stroke="rgb(85,165,56)" stroke-width="1" opacity="1" d="M 95.5 189 L 96 191.5 L 95 191.5 L 95.5 189 Z " /><path fill="rgb(238,194,59)" stroke="rgb(238,194,59)" stroke-width="1" opacity="1" d="M 107.5 41 L 109 44.5 Q 106.1 48.1 107 55.5 L 103.5 60 L 103 58 Q 99.3 59.5 100 56.5 L 102 45.5 L 104.5 42 L 107.5 41 Z " /><path fill="rgb(238,194,59)" stroke="rgb(238,194,59)" stroke-width="1" opacity="1" d="M 76.5 42 L 81.5 47 Q 86.3 47.3 88 50.5 L 82.5 52 L 79 51 L 75 43.5 L 76.5 42 Z " /><path fill="rgb(238,194,59)" stroke="rgb(238,194,59)" stroke-width="1" opacity="1" d="M 49.5 48 L 52 50.5 L 55 68 L 41 67 L 41 73 L 34.5 73 Q 33.2 75.3 28.5 74 L 24 71.5 L 30 61 L 41.5 52 L 49.5 48 Z " /><path fill="rgb(238,194,59)" stroke="rgb(238,194,59)" stroke-width="1" opacity="1" d="M 165.5 134 L 182 135 Q 184.6 138.6 184 145 L 178.5 144 L 161 144 L 160 135 L 165.5 134 Z " /><path fill="rgb(238,194,59)" stroke="rgb(238,194,59)" stroke-width="1" opacity="1" d="M 71.5 175 Q 87.3 172.3 92 180.5 Q 96.3 184.7 95 194.5 L 92 200 L 62.5 200 L 59 197.5 L 58 188.5 Q 60.3 181.8 65.5 178 L 71.5 175 Z M 70 179 L 68 180 L 65 184 L 68 187 L 72 186 Q 75 185 74 180 L 70 179 Z " /><path fill="rgb(78,71,46)" stroke="rgb(78,71,46)" stroke-width="1" opacity="0.996078431372549" d="M 110.5 39 L 111 41.5 L 110 41.5 L 110.5 39 Z " /><path fill="rgb(78,71,46)" stroke="rgb(78,71,46)" stroke-width="1" opacity="0.996078431372549" d="M 101.5 43 L 99.5 46 L 96 47 L 96 50 L 101 50 L 101 56 L 96 56 L 96 50 L 93.5 50 L 88.5 51 L 86.5 48 Q 87.3 50.7 91.5 50 L 101.5 43 Z " /><path fill="rgb(78,71,46)" stroke="rgb(78,71,46)" stroke-width="1" opacity="0.996078431372549" d="M 73.5 47 L 74 50 L 78 50 L 78 56 L 73 56 L 73 57.5 L 72 59.5 L 73 63 L 76.5 65 L 90 66 Q 87.7 59.6 95.5 62 L 97.5 63 L 101.5 60 L 103.5 60 L 106.5 58 L 108 66 L 104 66 Q 105.1 68.7 102.5 68 L 99 70 L 98 76 L 88.5 79 L 81.5 79 L 78.5 78 L 78.5 80 L 75 78 L 72.5 73 L 71 72.5 L 71 56.5 L 73.5 47 Z " /><path fill="rgb(78,71,46)" stroke="rgb(78,71,46)" stroke-width="1" opacity="0.996078431372549" d="M 107.5 50 L 108 56.5 L 107 56.5 L 107.5 50 Z " /><path fill="rgb(78,71,46)" stroke="rgb(78,71,46)" stroke-width="1" opacity="0.996078431372549" d="M 158.5 70 L 165 72.5 L 164 74.5 L 165 77.5 L 162 79.5 L 163 84 L 157.5 82 L 156 82.5 L 157 80.5 L 157 78.5 L 159 71.5 L 158.5 70 Z " /><path fill="rgb(78,71,46)" stroke="rgb(78,71,46)" stroke-width="1" opacity="0.996078431372549" d="M 149.5 71 L 147.5 74 L 149.5 71 Z " /><path fill="rgb(78,71,46)" stroke="rgb(78,71,46)" stroke-width="1" opacity="0.996078431372549" d="M 137.5 72 L 136.5 74 L 137.5 72 Z " /><path fill="rgb(78,71,46)" stroke="rgb(78,71,46)" stroke-width="1" opacity="0.996078431372549" d="M 57.5 73 L 59 76.5 L 58 76.5 L 57.5 73 Z " /><path fill="rgb(78,71,46)" stroke="rgb(78,71,46)" stroke-width="1" opacity="0.996078431372549" d="M 42 74 Q 49.2 72.5 51 77.5 L 50 81 L 43 81 L 43 78.5 L 42 74 Z " /><path fill="rgb(78,71,46)" stroke="rgb(78,71,46)" stroke-width="1" opacity="0.996078431372549" d="M 121.5 75 L 120.5 77 L 121.5 75 Z " /><path fill="rgb(78,71,46)" stroke="rgb(78,71,46)" stroke-width="1" opacity="0.996078431372549" d="M 138.5 75 L 137.5 77 L 138.5 75 Z " /><path fill="rgb(78,71,46)" stroke="rgb(78,71,46)" stroke-width="1" opacity="0.996078431372549" d="M 30.5 78 L 31 80.5 L 30 80.5 L 30.5 78 Z " /><path fill="rgb(78,71,46)" stroke="rgb(78,71,46)" stroke-width="1" opacity="0.996078431372549" d="M 60.5 78 L 61.5 80 L 60.5 78 Z " /><path fill="rgb(78,71,46)" stroke="rgb(78,71,46)" stroke-width="1" opacity="0.996078431372549" d="M 79.5 81 L 80.5 83 L 79.5 81 Z " /><path fill="rgb(78,71,46)" stroke="rgb(78,71,46)" stroke-width="1" opacity="0.996078431372549" d="M 127.5 81 L 123.5 86 L 127.5 81 Z " /><path fill="rgb(78,71,46)" stroke="rgb(78,71,46)" stroke-width="1" opacity="0.996078431372549" d="M 57.5 83 L 56.5 85 L 57.5 83 Z " /><path fill="rgb(78,71,46)" stroke="rgb(78,71,46)" stroke-width="1" opacity="0.996078431372549" d="M 22.5 86 L 25.5 90 L 22.5 86 Z " /><path fill="rgb(78,71,46)" stroke="rgb(78,71,46)" stroke-width="1" opacity="0.996078431372549" d="M 40.5 88 L 43 88.5 L 40.5 89 L 40.5 88 Z " /><path fill="rgb(78,71,46)" stroke="rgb(78,71,46)" stroke-width="1" opacity="0.996078431372549" d="M 18.5 91 L 23.5 97 L 18.5 91 Z " /><path fill="rgb(78,71,46)" stroke="rgb(78,71,46)" stroke-width="1" opacity="0.996078431372549" d="M 149.5 92 L 150.5 94 L 149.5 92 Z " /><path fill="rgb(78,71,46)" stroke="rgb(78,71,46)" stroke-width="1" opacity="0.996078431372549" d="M 38.5 95 L 44 95.5 L 38.5 96 L 38.5 95 Z " /><path fill="rgb(78,71,46)" stroke="rgb(78,71,46)" stroke-width="1" opacity="0.996078431372549" d="M 106.5 95 L 105.5 97 L 106.5 95 Z " /><path fill="rgb(78,71,46)" stroke="rgb(78,71,46)" stroke-width="1" opacity="0.996078431372549" d="M 126.5 95 L 125.5 97 L 126.5 95 Z " /><path fill="rgb(78,71,46)" stroke="rgb(78,71,46)" stroke-width="1" opacity="0.996078431372549" d="M 171.5 98 L 175 98.5 Q 173.8 101.2 172.5 99 L 171.5 98 Z " /><path fill="rgb(78,71,46)" stroke="rgb(78,71,46)" stroke-width="1" opacity="0.996078431372549" d="M 68.5 101 L 69 105.5 L 66 107.5 Q 69 106 68.5 101 Z " /><path fill="rgb(78,71,46)" stroke="rgb(78,71,46)" stroke-width="1" opacity="0.996078431372549" d="M 126.5 102 L 125.5 104 L 126.5 102 Z " /><path fill="rgb(78,71,46)" stroke="rgb(78,71,46)" stroke-width="1" opacity="0.996078431372549" d="M 164.5 103 L 166 105.5 L 164 104.5 L 164.5 103 Z " /><path fill="rgb(78,71,46)" stroke="rgb(78,71,46)" stroke-width="1" opacity="0.996078431372549" d="M 30.5 105 L 34 105.5 L 30.5 106 L 30.5 105 Z " /><path fill="rgb(78,71,46)" stroke="rgb(78,71,46)" stroke-width="1" opacity="0.996078431372549" d="M 177 105 L 179 105.5 L 177 106.5 L 177 105 Z " /><path fill="rgb(78,71,46)" stroke="rgb(78,71,46)" stroke-width="1" opacity="0.996078431372549" d="M 89.5 107 L 94 107.5 L 89.5 108 L 89.5 107 Z " /><path fill="rgb(78,71,46)" stroke="rgb(78,71,46)" stroke-width="1" opacity="0.996078431372549" d="M 179.5 107 L 178.5 109 L 179.5 107 Z " /><path fill="rgb(78,71,46)" stroke="rgb(78,71,46)" stroke-width="1" opacity="0.996078431372549" d="M 21.5 109 L 22 112.5 L 21 112.5 L 21.5 109 Z " /><path fill="rgb(78,71,46)" stroke="rgb(78,71,46)" stroke-width="1" opacity="0.996078431372549" d="M 180.5 110 L 180 111.5 L 179.5 113 L 179 111.5 L 180.5 110 Z " /><path fill="rgb(78,71,46)" stroke="rgb(78,71,46)" stroke-width="1" opacity="0.996078431372549" d="M 150.5 112 L 159 112.5 L 150.5 113 L 150.5 112 Z " /><path fill="rgb(78,71,46)" stroke="rgb(78,71,46)" stroke-width="1" opacity="0.996078431372549" d="M 163.5 114 L 165.5 117 L 163.5 114 Z " /><path fill="rgb(78,71,46)" stroke="rgb(78,71,46)" stroke-width="1" opacity="0.996078431372549" d="M 29.5 115 L 30 118.5 L 29 118.5 L 29.5 115 Z " /><path fill="rgb(78,71,46)" stroke="rgb(78,71,46)" stroke-width="1" opacity="0.996078431372549" d="M 103.5 115 L 109 115.5 L 103.5 116 L 103.5 115 Z " /><path fill="rgb(78,71,46)" stroke="rgb(78,71,46)" stroke-width="1" opacity="0.996078431372549" d="M 64.5 116 L 69 116.5 L 64.5 117 L 64.5 116 Z " /><path fill="rgb(78,71,46)" stroke="rgb(78,71,46)" stroke-width="1" opacity="0.996078431372549" d="M 126.5 116 L 129 116.5 L 126.5 117 L 126.5 116 Z " /><path fill="rgb(78,71,46)" stroke="rgb(78,71,46)" stroke-width="1" opacity="0.996078431372549" d="M 39.5 118 L 40.5 120 L 39.5 118 Z " /><path fill="rgb(78,71,46)" stroke="rgb(78,71,46)" stroke-width="1" opacity="0.996078431372549" d="M 168.5 120 L 172 120.5 L 168.5 121 L 168.5 120 Z " /><path fill="rgb(78,71,46)" stroke="rgb(78,71,46)" stroke-width="1" opacity="0.996078431372549" d="M 78.5 123 L 86 123.5 L 78.5 124 L 78.5 123 Z " /><path fill="rgb(78,71,46)" stroke="rgb(78,71,46)" stroke-width="1" opacity="0.996078431372549" d="M 114.5 123 L 125 123.5 L 114.5 124 L 114.5 123 Z " /><path fill="rgb(78,71,46)" stroke="rgb(78,71,46)" stroke-width="1" opacity="0.996078431372549" d="M 142.5 124 L 147 124.5 L 142.5 125 L 142.5 124 Z " /><path fill="rgb(78,71,46)" stroke="rgb(78,71,46)" stroke-width="1" opacity="0.996078431372549" d="M 48.5 125 L 52 125.5 L 48.5 126 L 48.5 125 Z " /><path fill="rgb(78,71,46)" stroke="rgb(78,71,46)" stroke-width="1" opacity="0.996078431372549" d="M 154.5 125 L 170.5 126 L 171.5 127 L 182.5 127 L 189 129.5 Q 197.1 146.7 200 168 Q 195.4 169.3 194 166.5 L 192 158.5 L 193 153.5 L 189 152 L 187.5 149 Q 181.3 150.8 179.5 148 L 157.5 148 L 156 146.5 Q 156.9 138.6 153.5 135 L 148.5 135 L 143.5 132 L 123.5 131 L 121.5 131 L 111.5 128 L 104 127.5 L 153.5 126 L 154.5 125 Z M 161 134 L 159 136 Q 162 137 160 143 Q 170 147 185 145 L 183 137 L 181 134 L 161 134 Z " /><path fill="rgb(78,71,46)" stroke="rgb(78,71,46)" stroke-width="1" opacity="0.996078431372549" d="M 30.5 127 L 33 127.5 L 30.5 128 L 30.5 127 Z " /><path fill="rgb(78,71,46)" stroke="rgb(78,71,46)" stroke-width="1" opacity="0.996078431372549" d="M 16.5 129 L 19 129.5 L 16.5 130 L 16.5 129 Z " /><path fill="rgb(78,71,46)" stroke="rgb(78,71,46)" stroke-width="1" opacity="0.996078431372549" d="M 48.5 129 L 51 129.5 L 42.5 133 L 37.5 137 L 34.5 136 L 32 137 L 33 139.5 L 30 141.5 L 30.5 140 L 16.5 143 L 14 145.5 L 13 158.5 L 8 166.5 L 8.5 168 L 6.5 167 L 2.5 168 L 1 165.5 L 3 165.5 Q 8.2 145.7 21.5 134 L 48.5 129 Z " /><path fill="rgb(78,71,46)" stroke="rgb(78,71,46)" stroke-width="1" opacity="0.996078431372549" d="M 72.5 131 L 76 131.5 L 72.5 132 L 72.5 131 Z " /><path fill="rgb(78,71,46)" stroke="rgb(78,71,46)" stroke-width="1" opacity="0.996078431372549" d="M 86.5 132 L 103 132.5 L 102.5 134 L 107.5 133 L 112 134 Q 110.9 136.7 113.5 136 L 116 137 Q 114.9 139.7 117.5 139 L 117.5 140 L 110.5 140 L 99.5 135 L 92.5 133 L 86.5 133 L 86.5 132 Z " /><path fill="rgb(78,71,46)" stroke="rgb(78,71,46)" stroke-width="1" opacity="0.996078431372549" d="M 132.5 135 L 136 137.5 L 134.5 137 L 132.5 135 Z " /><path fill="rgb(78,71,46)" stroke="rgb(78,71,46)" stroke-width="1" opacity="0.996078431372549" d="M 35.5 137 L 34.5 139 L 35.5 137 Z " /><path fill="rgb(78,71,46)" stroke="rgb(78,71,46)" stroke-width="1" opacity="0.996078431372549" d="M 140.5 140 L 141.5 142 L 140.5 140 Z " /><path fill="rgb(78,71,46)" stroke="rgb(78,71,46)" stroke-width="1" opacity="0.996078431372549" d="M 143.5 142 L 151.5 151 L 143.5 142 Z " /><path fill="rgb(78,71,46)" stroke="rgb(78,71,46)" stroke-width="1" opacity="0.996078431372549" d="M 26.5 144 L 21.5 150 L 26.5 144 Z " /><path fill="rgb(78,71,46)" stroke="rgb(78,71,46)" stroke-width="1" opacity="0.996078431372549" d="M 120.5 146 Q 132.9 146.1 137 154.5 Q 151.1 170.3 150 200 L 143 200 L 143 182.5 Q 141.1 172.4 136 165.5 L 138 165.5 Q 138.8 162.9 135.5 164 L 120.5 146 Z M 148 188 L 147 194 L 148 194 L 148 188 Z " /><path fill="rgb(78,71,46)" stroke="rgb(78,71,46)" stroke-width="1" opacity="0.996078431372549" d="M 33.5 147 L 32.5 149 L 33.5 147 Z " /><path fill="rgb(78,71,46)" stroke="rgb(78,71,46)" stroke-width="1" opacity="0.996078431372549" d="M 65.5 148 L 69 148.5 L 65 149 L 64.5 153 L 64 149.5 L 65.5 148 Z " /><path fill="rgb(78,71,46)" stroke="rgb(78,71,46)" stroke-width="1" opacity="0.996078431372549" d="M 140.5 148 L 141.5 150 L 140.5 148 Z " /><path fill="rgb(78,71,46)" stroke="rgb(78,71,46)" stroke-width="1" opacity="0.996078431372549" d="M 71.5 152 L 72.5 154 L 71.5 152 Z " /><path fill="rgb(78,71,46)" stroke="rgb(78,71,46)" stroke-width="1" opacity="0.996078431372549" d="M 85.5 152 L 86 153.5 L 84 154.5 L 85.5 152 Z " /><path fill="rgb(78,71,46)" stroke="rgb(78,71,46)" stroke-width="1" opacity="0.996078431372549" d="M 153.5 152 L 154.5 154 L 153.5 152 Z " /><path fill="rgb(78,71,46)" stroke="rgb(78,71,46)" stroke-width="1" opacity="0.996078431372549" d="M 18.5 153 L 17.5 155 L 18.5 153 Z " /><path fill="rgb(78,71,46)" stroke="rgb(78,71,46)" stroke-width="1" opacity="0.996078431372549" d="M 155.5 155 L 156.5 157 L 155.5 155 Z " /><path fill="rgb(78,71,46)" stroke="rgb(78,71,46)" stroke-width="1" opacity="0.996078431372549" d="M 16.5 156 L 15.5 158 L 16.5 156 Z " /><path fill="rgb(78,71,46)" stroke="rgb(78,71,46)" stroke-width="1" opacity="0.996078431372549" d="M 83.5 156 L 82.5 158 L 83.5 156 Z " /><path fill="rgb(78,71,46)" stroke="rgb(78,71,46)" stroke-width="1" opacity="0.996078431372549" d="M 158.5 159 L 159.5 161 L 158.5 159 Z " /><path fill="rgb(78,71,46)" stroke="rgb(78,71,46)" stroke-width="1" opacity="0.996078431372549" d="M 39.5 161 L 44 164.5 L 40.5 162 Q 38.3 161.3 39 163.5 L 37 164.5 L 39.5 161 Z " /><path fill="rgb(78,71,46)" stroke="rgb(78,71,46)" stroke-width="1" opacity="0.996078431372549" d="M 160.5 162 L 162 164.5 L 161 164.5 L 160.5 162 Z " /><path fill="rgb(78,71,46)" stroke="rgb(78,71,46)" stroke-width="1" opacity="0.996078431372549" d="M 115.5 163 L 119 164 L 119 166 Q 121.7 164.9 121 167.5 L 118.5 169 L 118.5 168 L 120 167.5 L 115.5 164 L 112 166.5 L 115.5 163 Z " /><path fill="rgb(78,71,46)" stroke="rgb(78,71,46)" stroke-width="1" opacity="0.996078431372549" d="M 170.5 165 L 173 165.5 L 170.5 166 L 170.5 165 Z " /><path fill="rgb(78,71,46)" stroke="rgb(78,71,46)" stroke-width="1" opacity="0.996078431372549" d="M 37.5 166 L 38.5 168 L 37.5 166 Z " /><path fill="rgb(78,71,46)" stroke="rgb(78,71,46)" stroke-width="1" opacity="0.996078431372549" d="M 184.5 166 L 187 166.5 L 184.5 167 L 184.5 166 Z " /><path fill="rgb(78,71,46)" stroke="rgb(78,71,46)" stroke-width="1" opacity="0.996078431372549" d="M 76.5 167 L 80 167.5 L 76.5 168 L 76.5 167 Z " /><path fill="rgb(78,71,46)" stroke="rgb(78,71,46)" stroke-width="1" opacity="0.996078431372549" d="M 39.5 169 L 40 171.5 L 39 171.5 L 39.5 169 Z " /><path fill="rgb(78,71,46)" stroke="rgb(78,71,46)" stroke-width="1" opacity="0.996078431372549" d="M 45.5 169 L 46 171.5 L 45 171.5 L 45.5 169 Z " /><path fill="rgb(78,71,46)" stroke="rgb(78,71,46)" stroke-width="1" opacity="0.996078431372549" d="M 61.5 172 L 60.5 174 L 61.5 172 Z " /><path fill="rgb(78,71,46)" stroke="rgb(78,71,46)" stroke-width="1" opacity="0.996078431372549" d="M 38.5 173 L 37.5 175 L 38.5 173 Z " /><path fill="rgb(78,71,46)" stroke="rgb(78,71,46)" stroke-width="1" opacity="0.996078431372549" d="M 95.5 173 L 96.5 175 L 95.5 173 Z " /><path fill="rgb(78,71,46)" stroke="rgb(78,71,46)" stroke-width="1" opacity="0.996078431372549" d="M 180.5 173 L 186 173.5 L 180.5 174 L 180.5 173 Z " /><path fill="rgb(78,71,46)" stroke="rgb(78,71,46)" stroke-width="1" opacity="0.996078431372549" d="M 1 175 Q 5.6 173.8 7 176.5 L 5.5 184 L 4.5 182 Q 0.9 185.4 0.5 192 L 0 179.5 L 1 175 Z " /><path fill="rgb(78,71,46)" stroke="rgb(78,71,46)" stroke-width="1" opacity="0.996078431372549" d="M 123.5 175 Q 125.8 174.3 125 176.5 L 123.5 175 Z " /><path fill="rgb(78,71,46)" stroke="rgb(78,71,46)" stroke-width="1" opacity="0.996078431372549" d="M 197 175 Q 202.2 173.2 200 180.5 L 199 180.5 L 197 175 Z " /><path fill="rgb(78,71,46)" stroke="rgb(78,71,46)" stroke-width="1" opacity="0.996078431372549" d="M 89.5 177 L 91.5 180 L 89.5 177 Z " /><path fill="rgb(78,71,46)" stroke="rgb(78,71,46)" stroke-width="1" opacity="0.996078431372549" d="M 112.5 177 L 115.5 181 L 112.5 177 Z " /><path fill="rgb(78,71,46)" stroke="rgb(78,71,46)" stroke-width="1" opacity="0.996078431372549" d="M 125.5 179 L 126 180.5 L 124 181.5 L 125.5 179 Z " /><path fill="rgb(78,71,46)" stroke="rgb(78,71,46)" stroke-width="1" opacity="0.996078431372549" d="M 32.5 180 L 35 180.5 L 32.5 181 L 32.5 180 Z " /><path fill="rgb(78,71,46)" stroke="rgb(78,71,46)" stroke-width="1" opacity="0.996078431372549" d="M 4.5 187 L 5 189.5 L 4 189.5 L 4.5 187 Z " /><path fill="rgb(78,71,46)" stroke="rgb(78,71,46)" stroke-width="1" opacity="0.996078431372549" d="M 57.5 190 L 58 194.5 L 57 194.5 L 57.5 190 Z " /><path fill="rgb(78,71,46)" stroke="rgb(78,71,46)" stroke-width="1" opacity="0.996078431372549" d="M 163.5 190 L 164 192.5 L 163 192.5 L 163.5 190 Z " /><path fill="rgb(78,71,46)" stroke="rgb(78,71,46)" stroke-width="1" opacity="0.996078431372549" d="M 171.5 192 L 172 195.5 L 171 195.5 L 171.5 192 Z " /><path fill="rgb(78,71,46)" stroke="rgb(78,71,46)" stroke-width="1" opacity="0.996078431372549" d="M 10.5 197 L 11 199.5 L 10 199.5 L 10.5 197 Z " /><path fill="rgb(28,37,25)" stroke="rgb(28,37,25)" stroke-width="1" opacity="0.996078431372549" d="M 75.5 41 L 80 44.5 L 76.5 42 L 75.5 41 Z " /><path fill="rgb(28,37,25)" stroke="rgb(28,37,25)" stroke-width="1" opacity="0.996078431372549" d="M 48.5 47 L 52 47.5 L 48.5 48 L 48.5 47 Z " /><path fill="rgb(28,37,25)" stroke="rgb(28,37,25)" stroke-width="1" opacity="0.996078431372549" d="M 39.5 52 L 37.5 55 L 39.5 52 Z " /><path fill="rgb(28,37,25)" stroke="rgb(28,37,25)" stroke-width="1" opacity="0.996078431372549" d="M 71.5 53 L 72 55.5 L 71 55.5 L 71.5 53 Z " /><path fill="rgb(28,37,25)" stroke="rgb(28,37,25)" stroke-width="1" opacity="0.996078431372549" d="M 159.5 53 L 160.5 55 L 159.5 53 Z " /><path fill="rgb(28,37,25)" stroke="rgb(28,37,25)" stroke-width="1" opacity="0.996078431372549" d="M 34.5 56 L 33.5 58 L 34.5 56 Z " /><path fill="rgb(28,37,25)" stroke="rgb(28,37,25)" stroke-width="1" opacity="0.996078431372549" d="M 124.5 56 L 125.5 58 L 124.5 56 Z " /><path fill="rgb(28,37,25)" stroke="rgb(28,37,25)" stroke-width="1" opacity="0.996078431372549" d="M 164.5 57 L 166.5 60 L 164.5 57 Z " /><path fill="rgb(28,37,25)" stroke="rgb(28,37,25)" stroke-width="1" opacity="0.996078431372549" d="M 31.5 59 L 26.5 65 L 31.5 59 Z " /><path fill="rgb(28,37,25)" stroke="rgb(28,37,25)" stroke-width="1" opacity="0.996078431372549" d="M 147.5 60 L 147.5 63 Q 145.3 63.8 146 61.5 L 147.5 60 Z " /><path fill="rgb(28,37,25)" stroke="rgb(28,37,25)" stroke-width="1" opacity="0.996078431372549" d="M 155.5 60 L 158 61.5 L 156.5 61 L 155.5 60 Z " /><path fill="rgb(28,37,25)" stroke="rgb(28,37,25)" stroke-width="1" opacity="0.996078431372549" d="M 113.5 62 Q 116.5 61.1 115 65.5 L 117 70.5 L 109.5 77 L 111 74.5 L 108 65 L 113.5 62 Z " /><path fill="rgb(28,37,25)" stroke="rgb(28,37,25)" stroke-width="1" opacity="0.996078431372549" d="M 158.5 63 L 159 66.5 L 158 66.5 L 158.5 63 Z " /><path fill="rgb(28,37,25)" stroke="rgb(28,37,25)" stroke-width="1" opacity="0.996078431372549" d="M 70.5 64 L 71 75.5 L 70 75.5 L 70.5 64 Z " /><path fill="rgb(28,37,25)" stroke="rgb(28,37,25)" stroke-width="1" opacity="0.996078431372549" d="M 120.5 66 L 119.5 68 L 120.5 66 Z " /><path fill="rgb(28,37,25)" stroke="rgb(28,37,25)" stroke-width="1" opacity="0.996078431372549" d="M 129.5 69 Q 131.8 68.3 131 70.5 L 129.5 69 Z " /><path fill="rgb(28,37,25)" stroke="rgb(28,37,25)" stroke-width="1" opacity="0.996078431372549" d="M 157.5 69 L 159 73.5 L 156.5 79 L 156 76.5 L 157.5 69 Z " /><path fill="rgb(28,37,25)" stroke="rgb(28,37,25)" stroke-width="1" opacity="0.996078431372549" d="M 15.5 70 L 15 71.5 L 14.5 73 L 14 71.5 L 15.5 70 Z " /><path fill="rgb(28,37,25)" stroke="rgb(28,37,25)" stroke-width="1" opacity="0.996078431372549" d="M 152.5 71 L 153 73.5 L 152 73.5 L 152.5 71 Z " /><path fill="rgb(28,37,25)" stroke="rgb(28,37,25)" stroke-width="1" opacity="0.996078431372549" d="M 138.5 72 L 140 75.5 L 139 75.5 L 138.5 72 Z " /><path fill="rgb(28,37,25)" stroke="rgb(28,37,25)" stroke-width="1" opacity="0.996078431372549" d="M 26.5 73 L 29.5 77 L 26.5 73 Z " /><path fill="rgb(28,37,25)" stroke="rgb(28,37,25)" stroke-width="1" opacity="0.996078431372549" d="M 123.5 73 L 122.5 75 L 123.5 73 Z " /><path fill="rgb(28,37,25)" stroke="rgb(28,37,25)" stroke-width="1" opacity="0.996078431372549" d="M 146.5 74 L 145.5 76 L 146.5 74 Z " /><path fill="rgb(28,37,25)" stroke="rgb(28,37,25)" stroke-width="1" opacity="0.996078431372549" d="M 174.5 74 L 175 77.5 L 174 77.5 L 174.5 74 Z " /><path fill="rgb(28,37,25)" stroke="rgb(28,37,25)" stroke-width="1" opacity="0.996078431372549" d="M 59.5 76 L 61.5 79 L 59.5 76 Z " /><path fill="rgb(28,37,25)" stroke="rgb(28,37,25)" stroke-width="1" opacity="0.996078431372549" d="M 118.5 77 L 117.5 79 L 118.5 77 Z " /><path fill="rgb(28,37,25)" stroke="rgb(28,37,25)" stroke-width="1" opacity="0.996078431372549" d="M 130.5 77 L 131 79.5 L 128 81.5 L 130.5 77 Z " /><path fill="rgb(28,37,25)" stroke="rgb(28,37,25)" stroke-width="1" opacity="0.996078431372549" d="M 71.5 78 Q 77.8 76.8 79 80.5 L 76.5 79 Q 70.5 80.3 71.5 78 Z " /><path fill="rgb(28,37,25)" stroke="rgb(28,37,25)" stroke-width="1" opacity="0.996078431372549" d="M 61.5 80 L 57.5 85 L 61.5 80 Z " /><path fill="rgb(28,37,25)" stroke="rgb(28,37,25)" stroke-width="1" opacity="0.996078431372549" d="M 113.5 81 L 112.5 83 L 113.5 81 Z " /><path fill="rgb(28,37,25)" stroke="rgb(28,37,25)" stroke-width="1" opacity="0.996078431372549" d="M 150.5 81 L 151 84.5 L 150 84.5 L 150.5 81 Z " /><path fill="rgb(28,37,25)" stroke="rgb(28,37,25)" stroke-width="1" opacity="0.996078431372549" d="M 79.5 82 L 80.5 84 L 79.5 82 Z " /><path fill="rgb(28,37,25)" stroke="rgb(28,37,25)" stroke-width="1" opacity="0.996078431372549" d="M 82.5 84 L 87 84.5 L 82.5 85 L 82.5 84 Z " /><path fill="rgb(28,37,25)" stroke="rgb(28,37,25)" stroke-width="1" opacity="0.996078431372549" d="M 108.5 84 L 110 84.5 L 104.5 87 L 104.5 86 L 108.5 84 Z " /><path fill="rgb(28,37,25)" stroke="rgb(28,37,25)" stroke-width="1" opacity="0.996078431372549" d="M 155.5 84 L 156 86.5 L 155 86.5 L 155.5 84 Z " /><path fill="rgb(28,37,25)" stroke="rgb(28,37,25)" stroke-width="1" opacity="0.996078431372549" d="M 174.5 84 L 175 87.5 L 174 87.5 L 174.5 84 Z " /><path fill="rgb(28,37,25)" stroke="rgb(28,37,25)" stroke-width="1" opacity="0.996078431372549" d="M 72.5 85 L 75 85.5 L 72.5 86 L 72.5 85 Z " /><path fill="rgb(28,37,25)" stroke="rgb(28,37,25)" stroke-width="1" opacity="0.996078431372549" d="M 122.5 86 L 114.5 95 L 109 94.5 L 114.5 94 L 122.5 86 Z " /><path fill="rgb(28,37,25)" stroke="rgb(28,37,25)" stroke-width="1" opacity="0.996078431372549" d="M 132.5 86 L 134 86.5 L 131.5 90 L 129 89.5 L 132.5 86 Z " /><path fill="rgb(28,37,25)" stroke="rgb(28,37,25)" stroke-width="1" opacity="0.996078431372549" d="M 68.5 87 L 70 87.5 L 66.5 90 L 68.5 87 Z " /><path fill="rgb(28,37,25)" stroke="rgb(28,37,25)" stroke-width="1" opacity="0.996078431372549" d="M 149.5 87 L 150 91.5 L 149 91.5 L 149.5 87 Z " /><path fill="rgb(28,37,25)" stroke="rgb(28,37,25)" stroke-width="1" opacity="0.996078431372549" d="M 43.5 88 L 48 88.5 L 43.5 89 L 43.5 88 Z " /><path fill="rgb(28,37,25)" stroke="rgb(28,37,25)" stroke-width="1" opacity="0.996078431372549" d="M 34.5 89 L 38 89.5 L 34.5 90 L 34.5 89 Z " /><path fill="rgb(28,37,25)" stroke="rgb(28,37,25)" stroke-width="1" opacity="0.996078431372549" d="M 85.5 90 L 91 90.5 L 85.5 91 L 85.5 90 Z " /><path fill="rgb(28,37,25)" stroke="rgb(28,37,25)" stroke-width="1" opacity="0.996078431372549" d="M 58.5 91 L 59 98.5 L 56 100 L 55.5 102 L 54 96.5 L 56.5 93 Q 59 93.7 58.5 91 Z " /><path fill="rgb(28,37,25)" stroke="rgb(28,37,25)" stroke-width="1" opacity="0.996078431372549" d="M 65.5 91 L 66 93.5 L 65 93.5 L 65.5 91 Z " /><path fill="rgb(28,37,25)" stroke="rgb(28,37,25)" stroke-width="1" opacity="0.996078431372549" d="M 186.5 91 L 188 93.5 L 186 94.5 L 187 92.5 L 186.5 91 Z " /><path fill="rgb(28,37,25)" stroke="rgb(28,37,25)" stroke-width="1" opacity="0.996078431372549" d="M 169.5 92 L 172 92.5 L 169.5 93 L 169.5 92 Z " /><path fill="rgb(28,37,25)" stroke="rgb(28,37,25)" stroke-width="1" opacity="0.996078431372549" d="M 19.5 93 L 23.5 98 L 19.5 93 Z " /><path fill="rgb(28,37,25)" stroke="rgb(28,37,25)" stroke-width="1" opacity="0.996078431372549" d="M 151.5 93 L 154 93.5 L 151.5 94 L 151.5 93 Z " /><path fill="rgb(28,37,25)" stroke="rgb(28,37,25)" stroke-width="1" opacity="0.996078431372549" d="M 178.5 93 L 179 94.5 L 178 96.5 L 178.5 98 L 174.5 100 L 177 96.5 L 178.5 93 Z " /><path fill="rgb(28,37,25)" stroke="rgb(28,37,25)" stroke-width="1" opacity="0.996078431372549" d="M 45.5 94 L 49 94.5 L 45.5 95 L 45.5 94 Z " /><path fill="rgb(28,37,25)" stroke="rgb(28,37,25)" stroke-width="1" opacity="0.996078431372549" d="M 73.5 94 L 70.5 98 L 73.5 94 Z " /><path fill="rgb(28,37,25)" stroke="rgb(28,37,25)" stroke-width="1" opacity="0.996078431372549" d="M 155.5 94 L 158 94.5 L 155.5 95 L 155.5 94 Z " /><path fill="rgb(28,37,25)" stroke="rgb(28,37,25)" stroke-width="1" opacity="0.996078431372549" d="M 127.5 95 L 130 95.5 L 127.5 96 L 127.5 95 Z " /><path fill="rgb(28,37,25)" stroke="rgb(28,37,25)" stroke-width="1" opacity="0.996078431372549" d="M 79.5 96 L 78.5 98 L 79.5 96 Z " /><path fill="rgb(28,37,25)" stroke="rgb(28,37,25)" stroke-width="1" opacity="0.996078431372549" d="M 163.5 96 L 170.5 98 L 172.5 97 L 172.5 98 Q 169.5 97.2 171 101 L 169 101 L 169 104.5 L 171 108.5 L 169.5 108 L 166 107 L 164 102.5 L 163.5 96 Z " /><path fill="rgb(28,37,25)" stroke="rgb(28,37,25)" stroke-width="1" opacity="0.996078431372549" d="M 25.5 98 L 28 98.5 L 25.5 99 L 25.5 98 Z " /><path fill="rgb(28,37,25)" stroke="rgb(28,37,25)" stroke-width="1" opacity="0.996078431372549" d="M 76.5 99 L 75.5 101 L 76.5 99 Z " /><path fill="rgb(28,37,25)" stroke="rgb(28,37,25)" stroke-width="1" opacity="0.996078431372549" d="M 33.5 100 L 34.5 102 L 33.5 100 Z " /><path fill="rgb(28,37,25)" stroke="rgb(28,37,25)" stroke-width="1" opacity="0.996078431372549" d="M 70.5 100 L 74 101.5 L 71.5 102 L 70.5 100 Z " /><path fill="rgb(28,37,25)" stroke="rgb(28,37,25)" stroke-width="1" opacity="0.996078431372549" d="M 114.5 101 L 115.5 103 L 114.5 101 Z " /><path fill="rgb(28,37,25)" stroke="rgb(28,37,25)" stroke-width="1" opacity="0.996078431372549" d="M 122.5 102 L 124 107.5 L 122 108.5 L 122.5 102 Z " /><path fill="rgb(28,37,25)" stroke="rgb(28,37,25)" stroke-width="1" opacity="0.996078431372549" d="M 126.5 103 L 124.5 106 L 126.5 103 Z " /><path fill="rgb(28,37,25)" stroke="rgb(28,37,25)" stroke-width="1" opacity="0.996078431372549" d="M 24.5 104 L 28 104.5 L 24.5 105 L 24.5 104 Z " /><path fill="rgb(28,37,25)" stroke="rgb(28,37,25)" stroke-width="1" opacity="0.996078431372549" d="M 133.5 104 L 131.5 107 L 133.5 104 Z " /><path fill="rgb(28,37,25)" stroke="rgb(28,37,25)" stroke-width="1" opacity="0.996078431372549" d="M 22.5 105 L 21.5 107 L 22.5 105 Z " /><path fill="rgb(28,37,25)" stroke="rgb(28,37,25)" stroke-width="1" opacity="0.996078431372549" d="M 67.5 105 L 66.5 107 L 67.5 105 Z " /><path fill="rgb(28,37,25)" stroke="rgb(28,37,25)" stroke-width="1" opacity="0.996078431372549" d="M 65.5 108 L 64.5 110 L 65.5 108 Z " /><path fill="rgb(28,37,25)" stroke="rgb(28,37,25)" stroke-width="1" opacity="0.996078431372549" d="M 57.5 109 L 57 110.5 L 54.5 115 L 55 113.5 L 57.5 109 Z " /><path fill="rgb(28,37,25)" stroke="rgb(28,37,25)" stroke-width="1" opacity="0.996078431372549" d="M 97.5 109 L 100 110.5 L 98.5 110 L 97.5 109 Z " /><path fill="rgb(28,37,25)" stroke="rgb(28,37,25)" stroke-width="1" opacity="0.996078431372549" d="M 115.5 109 L 116 110.5 L 114.5 113 L 114 111.5 L 115.5 109 Z " /><path fill="rgb(28,37,25)" stroke="rgb(28,37,25)" stroke-width="1" opacity="0.996078431372549" d="M 82.5 110 L 81.5 112 L 82.5 110 Z " /><path fill="rgb(28,37,25)" stroke="rgb(28,37,25)" stroke-width="1" opacity="0.996078431372549" d="M 128.5 110 L 128 111.5 L 126.5 114 L 127 112.5 L 128.5 110 Z " /><path fill="rgb(28,37,25)" stroke="rgb(28,37,25)" stroke-width="1" opacity="0.996078431372549" d="M 39.5 111 L 42 111.5 L 39.5 112 L 39.5 111 Z " /><path fill="rgb(28,37,25)" stroke="rgb(28,37,25)" stroke-width="1" opacity="0.996078431372549" d="M 31.5 112 L 31 113.5 L 30.5 115 L 30 113.5 L 31.5 112 Z " /><path fill="rgb(28,37,25)" stroke="rgb(28,37,25)" stroke-width="1" opacity="0.996078431372549" d="M 79.5 112 L 76.5 116 L 79.5 112 Z " /><path fill="rgb(28,37,25)" stroke="rgb(28,37,25)" stroke-width="1" opacity="0.996078431372549" d="M 145.5 113 L 149 113.5 L 145.5 114 L 145.5 113 Z " /><path fill="rgb(28,37,25)" stroke="rgb(28,37,25)" stroke-width="1" opacity="0.996078431372549" d="M 179.5 113 L 180 120 L 182 120.5 L 180.5 121 Q 177.1 119.1 179.5 113 Z " /><path fill="rgb(28,37,25)" stroke="rgb(28,37,25)" stroke-width="1" opacity="0.996078431372549" d="M 113.5 114 L 112.5 116 L 109 115.5 L 113.5 114 Z " /><path fill="rgb(28,37,25)" stroke="rgb(28,37,25)" stroke-width="1" opacity="0.996078431372549" d="M 140.5 114 L 143 114.5 L 140.5 115 L 140.5 114 Z " /><path fill="rgb(28,37,25)" stroke="rgb(28,37,25)" stroke-width="1" opacity="0.996078431372549" d="M 173.5 114 L 174 120.5 L 170.5 122 L 170.5 121 L 173 121 L 173.5 114 Z " /><path fill="rgb(28,37,25)" stroke="rgb(28,37,25)" stroke-width="1" opacity="0.996078431372549" d="M 69.5 116 L 75 116.5 L 69.5 117 L 69.5 116 Z " /><path fill="rgb(28,37,25)" stroke="rgb(28,37,25)" stroke-width="1" opacity="0.996078431372549" d="M 133.5 116 L 136 116.5 L 133.5 117 L 133.5 116 Z " /><path fill="rgb(28,37,25)" stroke="rgb(28,37,25)" stroke-width="1" opacity="0.996078431372549" d="M 164.5 116 L 165.5 118 L 164.5 116 Z " /><path fill="rgb(28,37,25)" stroke="rgb(28,37,25)" stroke-width="1" opacity="0.996078431372549" d="M 36 117 Q 39.8 116 41 118.5 L 39.5 118 Q 36.2 116.9 37 119.5 L 36 119.5 L 36 117 Z " /><path fill="rgb(28,37,25)" stroke="rgb(28,37,25)" stroke-width="1" opacity="0.996078431372549" d="M 183.5 118 L 184 120.5 L 183 120.5 L 183.5 118 Z " /><path fill="rgb(28,37,25)" stroke="rgb(28,37,25)" stroke-width="1" opacity="0.996078431372549" d="M 24.5 119 L 30 119.5 L 24.5 120 L 24.5 119 Z " /><path fill="rgb(28,37,25)" stroke="rgb(28,37,25)" stroke-width="1" opacity="0.996078431372549" d="M 166.5 119 L 167.5 121 L 166.5 119 Z " /><path fill="rgb(28,37,25)" stroke="rgb(28,37,25)" stroke-width="1" opacity="0.996078431372549" d="M 73.5 123 L 78 123.5 L 73.5 124 L 73.5 123 Z " /><path fill="rgb(28,37,25)" stroke="rgb(28,37,25)" stroke-width="1" opacity="0.996078431372549" d="M 125.5 123 L 131 123.5 L 125.5 124 L 125.5 123 Z " /><path fill="rgb(28,37,25)" stroke="rgb(28,37,25)" stroke-width="1" opacity="0.996078431372549" d="M 147.5 124 L 154 124.5 L 147.5 125 L 147.5 124 Z " /><path fill="rgb(28,37,25)" stroke="rgb(28,37,25)" stroke-width="1" opacity="0.996078431372549" d="M 45.5 125 L 48 125.5 L 45.5 126 L 45.5 125 Z " /><path fill="rgb(28,37,25)" stroke="rgb(28,37,25)" stroke-width="1" opacity="0.996078431372549" d="M 161.5 125 L 167 125.5 L 161.5 126 L 161.5 125 Z " /><path fill="rgb(28,37,25)" stroke="rgb(28,37,25)" stroke-width="1" opacity="0.996078431372549" d="M 171.5 126 L 176 126.5 L 171.5 127 L 171.5 126 Z " /><path fill="rgb(28,37,25)" stroke="rgb(28,37,25)" stroke-width="1" opacity="0.996078431372549" d="M 27.5 127 L 30 127.5 L 27.5 128 L 27.5 127 Z " /><path fill="rgb(28,37,25)" stroke="rgb(28,37,25)" stroke-width="1" opacity="0.996078431372549" d="M 183.5 127 L 187 127.5 L 183.5 128 L 183.5 127 Z " /><path fill="rgb(28,37,25)" stroke="rgb(28,37,25)" stroke-width="1" opacity="0.996078431372549" d="M 109.5 128 L 112 128.5 L 109.5 129 L 109.5 128 Z " /><path fill="rgb(28,37,25)" stroke="rgb(28,37,25)" stroke-width="1" opacity="0.996078431372549" d="M 15.5 129 L 14.5 131 L 15.5 129 Z " /><path fill="rgb(28,37,25)" stroke="rgb(28,37,25)" stroke-width="1" opacity="0.996078431372549" d="M 69.5 131 L 72 131.5 L 69.5 132 L 69.5 131 Z " /><path fill="rgb(28,37,25)" stroke="rgb(28,37,25)" stroke-width="1" opacity="0.996078431372549" d="M 76.5 131 L 79 131.5 L 76.5 132 L 76.5 131 Z " /><path fill="rgb(28,37,25)" stroke="rgb(28,37,25)" stroke-width="1" opacity="0.996078431372549" d="M 42.5 133 L 44 133.5 L 41.5 135 L 42.5 133 Z " /><path fill="rgb(28,37,25)" stroke="rgb(28,37,25)" stroke-width="1" opacity="0.996078431372549" d="M 39.5 135 L 38.5 137 L 39.5 135 Z " /><path fill="rgb(28,37,25)" stroke="rgb(28,37,25)" stroke-width="1" opacity="0.996078431372549" d="M 36.5 137 L 35.5 139 L 36.5 137 Z " /><path fill="rgb(28,37,25)" stroke="rgb(28,37,25)" stroke-width="1" opacity="0.996078431372549" d="M 33.5 139 L 32.5 141 L 33.5 139 Z " /><path fill="rgb(28,37,25)" stroke="rgb(28,37,25)" stroke-width="1" opacity="0.996078431372549" d="M 139.5 140 L 140.5 142 L 139.5 140 Z " /><path fill="rgb(28,37,25)" stroke="rgb(28,37,25)" stroke-width="1" opacity="0.996078431372549" d="M 29.5 142 L 26.5 146 L 29.5 142 Z " /><path fill="rgb(28,37,25)" stroke="rgb(28,37,25)" stroke-width="1" opacity="0.996078431372549" d="M 142.5 142 L 144.5 145 L 142.5 142 Z " /><path fill="rgb(28,37,25)" stroke="rgb(28,37,25)" stroke-width="1" opacity="0.996078431372549" d="M 35.5 145 L 34.5 147 L 35.5 145 Z " /><path fill="rgb(28,37,25)" stroke="rgb(28,37,25)" stroke-width="1" opacity="0.996078431372549" d="M 138.5 146 L 139.5 148 L 138.5 146 Z " /><path fill="rgb(28,37,25)" stroke="rgb(28,37,25)" stroke-width="1" opacity="0.996078431372549" d="M 24.5 147 L 19.5 153 L 24.5 147 Z " /><path fill="rgb(28,37,25)" stroke="rgb(28,37,25)" stroke-width="1" opacity="0.996078431372549" d="M 65 149 L 70 149 L 70 150.5 L 72.5 154 Q 78.8 155.3 80 151.5 L 80.5 150 L 86 150 L 81.5 158 L 73.5 160 L 66 155.5 L 65 149 Z " /><path fill="rgb(28,37,25)" stroke="rgb(28,37,25)" stroke-width="1" opacity="0.996078431372549" d="M 29.5 150 L 28.5 152 L 29.5 150 Z " /><path fill="rgb(28,37,25)" stroke="rgb(28,37,25)" stroke-width="1" opacity="0.996078431372549" d="M 143.5 150 L 149.5 157 L 143.5 150 Z " /><path fill="rgb(28,37,25)" stroke="rgb(28,37,25)" stroke-width="1" opacity="0.996078431372549" d="M 151.5 151 L 154.5 155 L 151.5 151 Z " /><path fill="rgb(28,37,25)" stroke="rgb(28,37,25)" stroke-width="1" opacity="0.996078431372549" d="M 18.5 154 L 17.5 156 L 18.5 154 Z " /><path fill="rgb(28,37,25)" stroke="rgb(28,37,25)" stroke-width="1" opacity="0.996078431372549" d="M 23.5 157 L 22.5 159 L 23.5 157 Z " /><path fill="rgb(28,37,25)" stroke="rgb(28,37,25)" stroke-width="1" opacity="0.996078431372549" d="M 156.5 157 L 157.5 159 L 156.5 157 Z " /><path fill="rgb(28,37,25)" stroke="rgb(28,37,25)" stroke-width="1" opacity="0.996078431372549" d="M 198.5 157 L 199 159.5 L 198 159.5 L 198.5 157 Z " /><path fill="rgb(28,37,25)" stroke="rgb(28,37,25)" stroke-width="1" opacity="0.996078431372549" d="M 15.5 158 L 14.5 160 L 15.5 158 Z " /><path fill="rgb(28,37,25)" stroke="rgb(28,37,25)" stroke-width="1" opacity="0.996078431372549" d="M 39 162 L 44 165.5 L 45 173.5 L 41.5 179 L 35.5 181 L 32 179.5 L 34 175 Q 37.8 176 39 173.5 L 40 169.5 L 37 165.5 L 39 162 Z " /><path fill="rgb(28,37,25)" stroke="rgb(28,37,25)" stroke-width="1" opacity="0.996078431372549" d="M 115.5 164 L 120 167.5 L 118 168 L 117 173.5 L 118 176 Q 123.4 174.5 125 177.5 Q 125.8 181.3 123.5 182 L 118.5 182 L 112 176.5 L 111 170.5 L 115.5 164 Z " /><path fill="rgb(28,37,25)" stroke="rgb(28,37,25)" stroke-width="1" opacity="0.996078431372549" d="M 136.5 164 Q 138.8 163.3 138 165.5 L 136.5 164 Z " /><path fill="rgb(28,37,25)" stroke="rgb(28,37,25)" stroke-width="1" opacity="0.996078431372549" d="M 154.5 164 L 156 166.5 L 155 166.5 L 154.5 164 Z " /><path fill="rgb(28,37,25)" stroke="rgb(28,37,25)" stroke-width="1" opacity="0.996078431372549" d="M 162.5 165 L 170 165.5 L 162.5 166 L 162.5 165 Z " /><path fill="rgb(28,37,25)" stroke="rgb(28,37,25)" stroke-width="1" opacity="0.996078431372549" d="M 176.5 166 L 184 166.5 L 176.5 167 L 176.5 166 Z " /><path fill="rgb(28,37,25)" stroke="rgb(28,37,25)" stroke-width="1" opacity="0.996078431372549" d="M 191.5 167 L 195 167.5 L 191.5 168 L 191.5 167 Z " /><path fill="rgb(28,37,25)" stroke="rgb(28,37,25)" stroke-width="1" opacity="0.996078431372549" d="M 82.5 168 L 85 168.5 L 82.5 169 L 82.5 168 Z " /><path fill="rgb(28,37,25)" stroke="rgb(28,37,25)" stroke-width="1" opacity="0.996078431372549" d="M 165 172 L 175 172.5 L 166.5 173 L 165.5 174 L 165 172 Z " /><path fill="rgb(28,37,25)" stroke="rgb(28,37,25)" stroke-width="1" opacity="0.996078431372549" d="M 186.5 173 L 189 173.5 L 186.5 174 L 186.5 173 Z " /><path fill="rgb(28,37,25)" stroke="rgb(28,37,25)" stroke-width="1" opacity="0.996078431372549" d="M 4.5 174 Q 9.8 172.3 8 177.5 L 7 177.5 Q 8.3 173.8 4.5 175 L 4.5 174 Z " /><path fill="rgb(28,37,25)" stroke="rgb(28,37,25)" stroke-width="1" opacity="0.996078431372549" d="M 59.5 174 L 56.5 178 L 59.5 174 Z " /><path fill="rgb(28,37,25)" stroke="rgb(28,37,25)" stroke-width="1" opacity="0.996078431372549" d="M 194.5 174 L 197 174.5 L 194.5 175 L 194.5 174 Z " /><path fill="rgb(28,37,25)" stroke="rgb(28,37,25)" stroke-width="1" opacity="0.996078431372549" d="M 5.5 184 L 6 186.5 L 5 186.5 L 5.5 184 Z " /><path fill="rgb(28,37,25)" stroke="rgb(28,37,25)" stroke-width="1" opacity="0.996078431372549" d="M 51.5 188 L 52 190.5 L 51 190.5 L 51.5 188 Z " /><path fill="rgb(28,37,25)" stroke="rgb(28,37,25)" stroke-width="1" opacity="0.996078431372549" d="M 147.5 188 L 148 193.5 L 147 193.5 L 147.5 188 Z " /><path fill="rgb(28,37,25)" stroke="rgb(28,37,25)" stroke-width="1" opacity="0.996078431372549" d="M 4.5 190 L 5 199.5 L 4 199.5 L 4.5 190 Z " /><path fill="rgb(28,37,25)" stroke="rgb(28,37,25)" stroke-width="1" opacity="0.996078431372549" d="M 10.5 190 L 11 192.5 L 10 192.5 L 10.5 190 Z " /><path fill="rgb(28,37,25)" stroke="rgb(28,37,25)" stroke-width="1" opacity="0.996078431372549" d="M 51.5 193 L 52 196.5 L 51 196.5 L 51.5 193 Z " /><path fill="rgb(28,37,25)" stroke="rgb(28,37,25)" stroke-width="1" opacity="0.996078431372549" d="M 164.5 193 L 165 198.5 L 164 198.5 L 164.5 193 Z " /><path fill="rgb(28,37,25)" stroke="rgb(28,37,25)" stroke-width="1" opacity="0.996078431372549" d="M 171.5 196 L 172 199.5 L 171 199.5 L 171.5 196 Z " /><path fill="rgb(0,0,0)" stroke="rgb(0,0,0)" stroke-width="1" opacity="0.996078431372549" d="M 74.5 32 L 77 32 L 77 38 L 70 37.5 L 74.5 32 Z " /><path fill="rgb(0,0,0)" stroke="rgb(0,0,0)" stroke-width="1" opacity="0.996078431372549" d="M 112.5 32 L 119.5 32 L 120 34.5 L 119 38 L 114 38 L 114 33 L 112.5 33 L 112.5 32 Z " /><path fill="rgb(0,0,0)" stroke="rgb(0,0,0)" stroke-width="1" opacity="0.996078431372549" d="M 95.5 39 L 96 44 L 90 44 L 90 42 L 95.5 39 Z " /><path fill="rgb(0,0,0)" stroke="rgb(0,0,0)" stroke-width="1" opacity="0.996078431372549" d="M 47.5 42 L 51 42.5 L 47.5 43 L 47.5 42 Z " /><path fill="rgb(0,0,0)" stroke="rgb(0,0,0)" stroke-width="1" opacity="0.996078431372549" d="M 41.5 44 L 42 50 L 36.5 50 L 36 48.5 L 41.5 44 Z " /><path fill="rgb(0,0,0)" stroke="rgb(0,0,0)" stroke-width="1" opacity="0.996078431372549" d="M 54.5 44 L 58 51.5 L 57 51.5 Q 57.7 48.5 54 50 L 54.5 44 Z " /><path fill="rgb(0,0,0)" stroke="rgb(0,0,0)" stroke-width="1" opacity="0.996078431372549" d="M 159.5 48 L 160.5 50 L 159.5 48 Z " /><path fill="rgb(0,0,0)" stroke="rgb(0,0,0)" stroke-width="1" opacity="0.996078431372549" d="M 32.5 50 L 30 53.5 Q 31.3 57.3 27.5 56 L 32.5 50 Z " /><path fill="rgb(0,0,0)" stroke="rgb(0,0,0)" stroke-width="1" opacity="0.996078431372549" d="M 130.5 51 Q 133 52.2 132 56 L 130 55.5 L 130 53.5 L 130.5 51 Z " /><path fill="rgb(0,0,0)" stroke="rgb(0,0,0)" stroke-width="1" opacity="0.996078431372549" d="M 112 52 L 114 52.5 L 113.5 55 Q 110.5 55.7 112 52 Z " /><path fill="rgb(0,0,0)" stroke="rgb(0,0,0)" stroke-width="1" opacity="0.996078431372549" d="M 65.5 54 L 66 62 L 60 62 L 60 56 L 65 58 L 65.5 54 Z " /><path fill="rgb(0,0,0)" stroke="rgb(0,0,0)" stroke-width="1" opacity="0.996078431372549" d="M 139.5 62 L 142 62.5 L 139.5 63 L 139.5 62 Z " /><path fill="rgb(0,0,0)" stroke="rgb(0,0,0)" stroke-width="1" opacity="0.996078431372549" d="M 9.5 63 L 12 63.5 L 9.5 64 L 9.5 63 Z " /><path fill="rgb(0,0,0)" stroke="rgb(0,0,0)" stroke-width="1" opacity="0.996078431372549" d="M 9 68 L 12 68 L 12 74 Q 9.3 75.1 10 72.5 L 9 68 Z " /><path fill="rgb(0,0,0)" stroke="rgb(0,0,0)" stroke-width="1" opacity="0.996078431372549" d="M 180.5 79 L 181 82.5 L 180 82.5 L 180.5 79 Z " /><path fill="rgb(0,0,0)" stroke="rgb(0,0,0)" stroke-width="1" opacity="0.996078431372549" d="M 9.5 86 Q 14.1 84.7 12 90.5 L 11 90.5 L 9.5 86 Z " /><path fill="rgb(0,0,0)" stroke="rgb(0,0,0)" stroke-width="1" opacity="0.996078431372549" d="M 13 92 Q 20.5 89.3 18 97.5 L 13 93.5 L 13 92 Z " /><path fill="rgb(0,0,0)" stroke="rgb(0,0,0)" stroke-width="1" opacity="0.996078431372549" d="M 19.5 99 L 20 101 L 18 100.5 L 19.5 99 Z " /><path fill="rgb(0,0,0)" stroke="rgb(0,0,0)" stroke-width="1" opacity="0.996078431372549" d="M 17.5 102 L 18 104 L 16 103.5 L 17.5 102 Z " /><path fill="rgb(0,0,0)" stroke="rgb(0,0,0)" stroke-width="1" opacity="0.996078431372549" d="M 88 114 Q 91 113 90 116 Q 87 117 88 114 Z " /><path fill="rgb(0,0,0)" stroke="rgb(0,0,0)" stroke-width="1" opacity="0.996078431372549" d="M 16 116 Q 20 114.6 18 121.5 L 15 123.5 Q 17.7 122.8 17 118.5 L 16 116 Z " /><path fill="rgb(0,0,0)" stroke="rgb(0,0,0)" stroke-width="1" opacity="0.996078431372549" d="M 96 116 Q 99 115 98 118 Q 95 119 96 116 Z " /><path fill="rgb(0,0,0)" stroke="rgb(0,0,0)" stroke-width="1" opacity="0.996078431372549" d="M 148.5 118 L 151 118.5 L 148.5 119 L 148.5 118 Z " /><path fill="rgb(0,0,0)" stroke="rgb(0,0,0)" stroke-width="1" opacity="0.996078431372549" d="M 153.5 118 Q 158.8 116.8 160 119.5 L 155.5 120 L 153.5 118 Z " /><path fill="rgb(0,0,0)" stroke="rgb(0,0,0)" stroke-width="1" opacity="0.996078431372549" d="M 186 122 L 192.5 122 L 193 123.5 L 192 128 L 186 127 L 186 122 Z " /><path fill="rgb(0,0,0)" stroke="rgb(0,0,0)" stroke-width="1" opacity="1" d="M 77.5 33 L 82 40 L 84.5 40 L 90.5 44 L 96 44 Q 94.8 39.4 97.5 38 L 109.5 33 L 114 33 L 114 38 Q 119.2 35.9 118 40.5 L 116 42.5 L 114 52 Q 110.7 50.9 112 55 L 115.5 55 L 125.5 50 L 130 50 L 131 54.5 L 131 56.5 L 130 61 Q 136.9 60.3 141.5 63 L 142 60.5 L 144 52.5 Q 147.7 49.4 148 44 L 154.5 45 L 168 54 L 168 56 Q 170.7 54.9 170 57.5 Q 181.8 65.4 180 86 L 187.5 86 L 190 88.5 Q 189.3 91.1 192 90 L 192 92.5 L 186.5 100 L 184 101.5 L 190 122 Q 183.6 119.9 186 127 L 176.5 127 L 166.5 125 L 131.5 124 L 130.5 123 L 73.5 123 L 72.5 124 L 61.5 124 L 60.5 125 L 45.5 125 L 36.5 127 L 34.5 127 L 15.5 129 L 14 130.5 Q 4.3 146.3 0.5 168 L 0 147.5 L 11 124 Q 16.5 125.3 18 121.5 L 18 116.5 Q 15 117.5 16 112.5 L 15 109.5 L 16 104 L 18 104 L 18 101 Q 21 102 20 99 L 18 98.5 L 18 92 L 12 92 L 12 86 Q 7.1 87.6 9 82 Q 13 83.4 11 76.5 L 10 74 L 12 74 L 12 68 Q 7.1 69.6 9 64 L 12.5 63 L 20 66 Q 19 63 22 64 L 22 61.5 L 26.5 56 Q 31.3 57.7 30 53.5 L 36 48.5 L 36.5 50 L 42 50 L 42 44.5 L 43.5 44 L 44.5 43 L 54 43 L 54 50 Q 57.8 48.5 57 51.5 L 58 56 L 60 56.5 L 60 65.5 L 63.5 72 L 64 66.5 L 62 62 L 66 61.5 L 66 49.5 L 70 38 L 77 38 L 77.5 33 Z M 110 39 Q 98 43 91 50 Q 87 51 88 48 L 82 46 L 75 41 L 71 54 L 71 64 L 70 65 L 70 76 L 71 77 L 71 79 L 77 79 L 79 83 L 83 85 L 102 82 L 114 74 Q 121 69 125 59 Q 127 57 125 56 L 108 65 L 107 62 L 109 46 L 112 40 L 110 39 Z M 49 47 L 35 56 Q 25 61 23 73 L 26 73 L 30 78 L 28 86 L 35 90 L 48 89 L 54 87 L 62 81 L 55 66 L 55 60 L 52 50 Q 53 45 49 47 Z M 151 50 L 146 63 L 154 60 L 158 63 L 156 84 L 155 85 L 156 89 L 170 93 L 174 92 L 175 88 L 175 75 L 167 60 Q 161 52 151 50 Z M 130 69 L 111 84 L 94 90 Q 86 89 81 91 Q 81 98 75 101 Q 71 102 70 100 L 75 93 L 75 85 L 69 87 L 65 92 L 68 101 L 68 105 Q 63 108 62 116 L 62 117 L 75 117 Q 80 110 90 108 L 94 108 L 101 111 L 102 115 L 104 116 L 113 116 Q 118 113 116 103 Q 114 99 108 101 Q 105 100 106 96 Q 108 94 115 95 L 131 80 L 130 77 Q 129 72 131 71 Q 132 68 130 69 Z M 16 70 L 14 72 L 16 75 L 18 71 L 16 70 Z M 150 71 L 145 76 L 137 95 L 137 98 Q 134 106 127 112 L 125 117 L 136 117 L 150 113 Q 159 112 164 115 L 166 120 L 171 122 L 174 121 L 173 111 Q 168 108 169 101 L 173 101 Q 178 96 187 95 L 188 93 Q 186 90 181 91 L 176 98 L 173 97 L 171 98 L 150 93 L 150 86 L 153 74 Q 154 69 150 71 Z M 136 72 L 135 75 L 136 77 L 139 76 Q 141 77 140 74 L 136 72 Z M 24 77 Q 17 78 15 84 L 15 88 L 19 94 L 24 98 L 33 100 L 35 103 L 34 105 Q 29 106 28 104 L 23 105 L 20 110 L 22 118 Q 24 122 30 120 L 31 114 L 37 111 L 44 112 L 54 117 L 58 110 Q 59 105 56 104 Q 54 99 58 100 L 59 99 L 59 91 L 45 95 Q 29 96 23 87 L 24 83 L 24 77 Z M 133 86 L 129 90 L 132 90 L 134 87 L 133 86 Z M 127 95 L 122 103 L 123 109 L 130 98 Q 131 93 127 95 Z M 177 105 L 179 111 L 179 120 Q 180 122 184 121 L 180 107 L 177 105 Z M 88 114 L 90 118 L 98 118 L 98 116 Q 95 113 88 114 Z M 36 117 Q 34 121 38 120 L 40 120 Q 42 121 41 119 Q 40 116 36 117 Z M 149 118 L 149 119 L 151 119 L 149 118 Z M 154 118 L 156 120 L 160 120 Q 159 117 154 118 Z " /><path fill="rgb(0,0,0)" stroke="rgb(0,0,0)" stroke-width="1" opacity="1" d="M 192 124 Q 194.7 122.9 194 125.5 L 200 138.5 L 200 161.5 L 199 161.5 L 197 150.5 L 189 128 L 187 127.5 L 188.5 127 L 192 128 L 192 124 Z " /><path fill="rgb(0,0,0)" stroke="rgb(0,0,0)" stroke-width="1" opacity="1" d="M 80.5 125 L 108.5 128 L 126.5 133 Q 141 139.5 151 150.5 L 162.5 166 L 190.5 167 L 200 169 L 200 175 L 197.5 175 L 188.5 173 L 165 172 L 170 187.5 L 171 200 L 165 200 L 165 193.5 Q 162.3 177.7 156 165.5 L 143.5 150 L 123.5 137 L 109.5 133 L 96.5 132 L 95.5 131 L 94.5 132 L 79.5 132 L 78.5 131 L 69.5 131 L 58.5 133 L 50.5 136 Q 37.6 142.1 28 151.5 L 18 164.5 L 13 176.5 L 10 190.5 L 10 200 L 5 200 L 5 187.5 L 8 174 L 0 175 L 0 169.5 L 1.5 169 Q 3.3 166.3 9.5 168 L 12 165.5 L 16 157.5 L 25 146 L 40.5 135 L 55.5 128 L 65.5 126 L 79.5 126 L 80.5 125 Z " /><path fill="rgb(0,0,0)" stroke="rgb(0,0,0)" stroke-width="1" opacity="1" d="M 73.5 168 Q 89 167 96 174.5 L 101 184.5 L 102 193.5 L 98.5 200 Q 92.4 201.3 93 198.5 Q 97.5 196 96 187.5 Q 94.2 179.8 88.5 176 Q 83.1 172.4 72.5 174 Q 63.4 176.4 59 183.5 Q 56 187.5 57 195.5 L 60 199.5 L 53.5 200 L 52 198.5 L 51 191.5 L 55 179.5 L 61.5 173 L 73.5 168 Z " /><path fill="rgb(136,140,146)" stroke="rgb(136,140,146)" stroke-width="1" opacity="1" d="M 152.5 55 L 162 63.5 L 167.5 73 L 172.5 74 L 174 73.5 L 173 75.5 Q 175.7 77.3 174 83.5 L 173 83.5 Q 174.1 80.2 171.5 81 L 167 78.5 Q 168.3 72.3 164.5 71 L 159 70 L 160 64.5 L 155.5 59 L 148 61 L 149.5 56 Q 151 58.5 152.5 55 Z " /><path fill="rgb(136,140,146)" stroke="rgb(136,140,146)" stroke-width="1" opacity="1" d="M 163.5 57 L 164.5 59 L 163.5 57 Z " /><path fill="rgb(136,140,146)" stroke="rgb(136,140,146)" stroke-width="1" opacity="1" d="M 93.5 123 L 96 123.5 L 93.5 124 L 93.5 123 Z " /><path fill="rgb(136,140,146)" stroke="rgb(136,140,146)" stroke-width="1" opacity="1" d="M 67.5 124 L 72 124.5 L 68.5 126 L 67.5 124 Z " /><path fill="rgb(136,140,146)" stroke="rgb(136,140,146)" stroke-width="1" opacity="1" d="M 130.5 124 Q 138.5 123 143 125.5 L 135.5 126 L 130.5 125 L 130.5 124 Z " /><path fill="rgb(136,140,146)" stroke="rgb(136,140,146)" stroke-width="1" opacity="1" d="M 54.5 125 L 59 125.5 L 54.5 126 L 54.5 125 Z " /><path fill="rgb(136,140,146)" stroke="rgb(136,140,146)" stroke-width="1" opacity="1" d="M 44.5 126 L 47 126.5 L 44.5 127 L 44.5 126 Z " /><path fill="rgb(136,140,146)" stroke="rgb(136,140,146)" stroke-width="1" opacity="1" d="M 37.5 127 L 39 127.5 L 37 128.5 L 40 129.5 L 21.5 133 L 15 139.5 Q 7.4 148.9 3.5 162 L 3 159.5 L 9 142.5 L 16.5 130 L 27.5 129 L 28.5 128 L 36.5 128 L 37.5 127 Z " /><path fill="rgb(136,140,146)" stroke="rgb(136,140,146)" stroke-width="1" opacity="1" d="M 80.5 132 L 83 132.5 L 80.5 133 L 80.5 132 Z " /><path fill="rgb(136,140,146)" stroke="rgb(136,140,146)" stroke-width="1" opacity="1" d="M 114.5 135 Q 116.8 134.3 116 136.5 L 114.5 135 Z " /><path fill="rgb(136,140,146)" stroke="rgb(136,140,146)" stroke-width="1" opacity="1" d="M 118.5 136 L 118.5 139 Q 115.5 137.5 118.5 136 Z " /><path fill="rgb(136,140,146)" stroke="rgb(136,140,146)" stroke-width="1" opacity="1" d="M 74.5 138 Q 80.3 138.3 83 141.5 L 82 144 L 72.5 146 L 71 143 L 67.5 142 L 66 142.5 L 70.5 139 L 74.5 138 Z " /><path fill="rgb(136,140,146)" stroke="rgb(136,140,146)" stroke-width="1" opacity="1" d="M 123.5 141 L 125.5 144 L 123.5 141 Z " /><path fill="rgb(136,140,146)" stroke="rgb(136,140,146)" stroke-width="1" opacity="1" d="M 36.5 145 L 35.5 147 L 36.5 145 Z " /><path fill="rgb(136,140,146)" stroke="rgb(136,140,146)" stroke-width="1" opacity="1" d="M 77.5 146 Q 80.3 145.4 79 151.5 Q 77.8 154.3 72.5 153 Q 69.8 151.6 71 147 L 77.5 146 Z " /><path fill="rgb(136,140,146)" stroke="rgb(136,140,146)" stroke-width="1" opacity="1" d="M 137.5 146 L 138.5 148 L 131 147.5 L 137.5 146 Z " /><path fill="rgb(136,140,146)" stroke="rgb(136,140,146)" stroke-width="1" opacity="1" d="M 106.5 147 L 105 149.5 L 103.5 152 L 104 150.5 L 106.5 147 Z " /><path fill="rgb(136,140,146)" stroke="rgb(136,140,146)" stroke-width="1" opacity="1" d="M 113.5 147 L 113 148.5 L 111.5 151 L 112 149.5 L 113.5 147 Z " /><path fill="rgb(136,140,146)" stroke="rgb(136,140,146)" stroke-width="1" opacity="1" d="M 61.5 149 Q 66.1 147.7 64 153.5 L 68.5 159 L 76.5 161 L 83 159 L 87.5 151 L 97.5 152 L 100 154.5 L 99 156.5 L 101 155.5 L 102.5 153 L 102 154.5 L 91.5 170 L 82.5 167 L 73.5 167 Q 63 169 57 175.5 Q 51 180.9 51 191 L 28 190.5 L 30 190 L 31.5 180 Q 32.3 182.8 36.5 182 Q 42.3 180.8 45 176.5 L 46 167.5 L 42.5 162 L 33 160.5 L 40.5 160 L 58 154 Q 55.9 148.8 60.5 150 L 61.5 149 Z " /><path fill="rgb(136,140,146)" stroke="rgb(136,140,146)" stroke-width="1" opacity="1" d="M 122.5 149 L 128.5 156 L 122.5 149 Z " /><path fill="rgb(136,140,146)" stroke="rgb(136,140,146)" stroke-width="1" opacity="1" d="M 29.5 151 L 26.5 155 L 29.5 151 Z " /><path fill="rgb(136,140,146)" stroke="rgb(136,140,146)" stroke-width="1" opacity="1" d="M 109.5 154 L 109 155.5 L 108 157.5 L 113.5 162 L 117 162.5 L 112 165.5 Q 109.3 167.8 110 173.5 L 114.5 181 Q 117.2 183.8 123.5 183 L 129.5 178 L 127 181.5 L 127 190.5 L 131 200 L 100 199.5 Q 103.8 196.3 103 188.5 L 97 174.5 L 109.5 154 Z " /><path fill="rgb(136,140,146)" stroke="rgb(136,140,146)" stroke-width="1" opacity="1" d="M 31.5 161 L 31 162.5 Q 32 168 28.5 169 Q 26.3 168.3 27 170.5 L 25.5 173 L 25 167.5 L 29.5 162 L 31.5 161 Z " /><path fill="rgb(136,140,146)" stroke="rgb(136,140,146)" stroke-width="1" opacity="1" d="M 121.5 162 Q 127.9 162.7 130 167.5 L 131 170.5 L 129.5 170 L 123 167.5 L 121.5 162 Z " /><path fill="rgb(136,140,146)" stroke="rgb(136,140,146)" stroke-width="1" opacity="1" d="M 119.5 169 L 122 170.5 L 123.5 173 L 125 172.5 Q 124.3 175.8 119.5 175 Q 117.3 174.3 118 170.5 L 119.5 169 Z " /><path fill="rgb(136,140,146)" stroke="rgb(136,140,146)" stroke-width="1" opacity="1" d="M 31.5 172 L 32.5 174 L 31.5 172 Z " /><path fill="rgb(136,140,146)" stroke="rgb(136,140,146)" stroke-width="1" opacity="1" d="M 38.5 172 L 37.5 174 L 38.5 172 Z " /><path fill="rgb(136,140,146)" stroke="rgb(136,140,146)" stroke-width="1" opacity="1" d="M 25.5 174 L 27 176.5 L 25 175.5 L 25.5 174 Z " /><path fill="rgb(136,140,146)" stroke="rgb(136,140,146)" stroke-width="1" opacity="1" d="M 130.5 174 L 131 176.5 L 130 176.5 L 130.5 174 Z " /><path fill="rgb(136,140,146)" stroke="rgb(136,140,146)" stroke-width="1" opacity="1" d="M 142.5 184 L 143 186.5 L 142 186.5 L 142.5 184 Z " /><path fill="rgb(136,140,146)" stroke="rgb(136,140,146)" stroke-width="1" opacity="1" d="M 11.5 190 L 24 190.5 L 11.5 191 L 11.5 190 Z " /><path fill="rgb(136,140,146)" stroke="rgb(136,140,146)" stroke-width="1" opacity="1" d="M 11.5 196 L 18 196.5 L 11.5 197 L 11.5 196 Z " /><path fill="rgb(136,140,146)" stroke="rgb(136,140,146)" stroke-width="1" opacity="1" d="M 142.5 196 L 143 199.5 L 142 199.5 L 142.5 196 Z " /><path fill="rgb(136,140,146)" stroke="rgb(136,140,146)" stroke-width="1" opacity="1" d="M 24 197 L 52 198 L 51.5 200 L 24 200 L 24 197 Z " /><path fill="rgb(176,178,182)" stroke="rgb(176,178,182)" stroke-width="1" opacity="1" d="M 157.5 53 L 158.5 55 L 157.5 53 Z " /><path fill="rgb(176,178,182)" stroke="rgb(176,178,182)" stroke-width="1" opacity="1" d="M 150.5 54 Q 153.5 55.5 150.5 57 L 150.5 54 Z " /><path fill="rgb(176,178,182)" stroke="rgb(176,178,182)" stroke-width="1" opacity="1" d="M 154.5 55 L 161.5 63 L 154.5 55 Z " /><path fill="rgb(176,178,182)" stroke="rgb(176,178,182)" stroke-width="1" opacity="1" d="M 160.5 55 L 167.5 63 L 160.5 55 Z " /><path fill="rgb(176,178,182)" stroke="rgb(176,178,182)" stroke-width="1" opacity="1" d="M 162.5 64 L 163.5 66 L 162.5 64 Z " /><path fill="rgb(176,178,182)" stroke="rgb(176,178,182)" stroke-width="1" opacity="1" d="M 165.5 69 L 167.5 72 L 171 73.5 L 169.5 74 L 165 70.5 L 165.5 69 Z " /><path fill="rgb(176,178,182)" stroke="rgb(176,178,182)" stroke-width="1" opacity="1" d="M 72.5 124 L 76 124.5 L 72.5 125 L 72.5 124 Z " /><path fill="rgb(176,178,182)" stroke="rgb(176,178,182)" stroke-width="1" opacity="1" d="M 109.5 124 L 129.5 124 L 135 125.5 L 96.5 126 L 96.5 125 L 108.5 125 L 109.5 124 Z " /><path fill="rgb(176,178,182)" stroke="rgb(176,178,182)" stroke-width="1" opacity="1" d="M 59.5 125 L 61 125.5 L 59.5 127 L 49.5 128 Q 48 125.5 46.5 129 L 37 128.5 L 39.5 127 L 58.5 126 L 59.5 125 Z " /><path fill="rgb(176,178,182)" stroke="rgb(176,178,182)" stroke-width="1" opacity="1" d="M 92.5 125 L 95 125.5 L 92.5 126 L 92.5 125 Z " /><path fill="rgb(176,178,182)" stroke="rgb(176,178,182)" stroke-width="1" opacity="1" d="M 69.5 132 L 72 132.5 L 69.5 133 L 69.5 132 Z " /><path fill="rgb(176,178,182)" stroke="rgb(176,178,182)" stroke-width="1" opacity="1" d="M 77.5 132 L 80 132.5 L 77.5 133 L 77.5 132 Z " /><path fill="rgb(176,178,182)" stroke="rgb(176,178,182)" stroke-width="1" opacity="1" d="M 116.5 136 Q 129.3 138.7 137 146.5 L 129.5 147 Q 124.6 140.4 116.5 137 L 116.5 136 Z " /><path fill="rgb(176,178,182)" stroke="rgb(176,178,182)" stroke-width="1" opacity="1" d="M 71.5 138 L 74 138.5 L 71.5 139 L 71.5 138 Z " /><path fill="rgb(176,178,182)" stroke="rgb(176,178,182)" stroke-width="1" opacity="1" d="M 76.5 138 L 79 138.5 L 76.5 139 L 76.5 138 Z " /><path fill="rgb(176,178,182)" stroke="rgb(176,178,182)" stroke-width="1" opacity="1" d="M 61.5 139 L 67 141.5 L 64 149 L 58 150 L 58 154 L 56.5 154 L 51.5 157 Q 44 156.5 40.5 160 L 33.5 160 L 30.5 162 L 39.5 152 L 52.5 145 L 57.5 144 L 60 141.5 L 61.5 139 Z " /><path fill="rgb(176,178,182)" stroke="rgb(176,178,182)" stroke-width="1" opacity="1" d="M 69.5 139 L 68.5 141 L 69.5 139 Z " /><path fill="rgb(176,178,182)" stroke="rgb(176,178,182)" stroke-width="1" opacity="1" d="M 82.5 140 L 85.5 142 L 95 143 L 96.5 147 L 104 149 L 99.5 157 L 99 155.5 Q 101.8 153.8 97.5 152 L 87 151 L 85 142 L 82.5 140 Z " /><path fill="rgb(176,178,182)" stroke="rgb(176,178,182)" stroke-width="1" opacity="1" d="M 108.5 140 L 109.5 142 L 108.5 140 Z " /><path fill="rgb(176,178,182)" stroke="rgb(176,178,182)" stroke-width="1" opacity="1" d="M 108.5 143 L 107.5 145 L 108.5 143 Z " /><path fill="rgb(176,178,182)" stroke="rgb(176,178,182)" stroke-width="1" opacity="1" d="M 77.5 145 L 76.5 147 L 72 146.5 L 77.5 145 Z " /><path fill="rgb(176,178,182)" stroke="rgb(176,178,182)" stroke-width="1" opacity="1" d="M 115.5 145 L 117 145.5 L 114.5 147 L 115.5 145 Z " /><path fill="rgb(176,178,182)" stroke="rgb(176,178,182)" stroke-width="1" opacity="1" d="M 106.5 146 L 105.5 148 L 106.5 146 Z " /><path fill="rgb(176,178,182)" stroke="rgb(176,178,182)" stroke-width="1" opacity="1" d="M 119.5 147 L 120.5 149 L 119.5 147 Z " /><path fill="rgb(176,178,182)" stroke="rgb(176,178,182)" stroke-width="1" opacity="1" d="M 110.5 153 Q 116.3 154.3 119 158.5 Q 120.8 164.6 113.5 162 L 108 157.5 L 110.5 153 Z " /><path fill="rgb(176,178,182)" stroke="rgb(176,178,182)" stroke-width="1" opacity="1" d="M 24.5 157 L 23.5 159 L 24.5 157 Z " /><path fill="rgb(176,178,182)" stroke="rgb(176,178,182)" stroke-width="1" opacity="1" d="M 129.5 157 L 131.5 160 L 129.5 157 Z " /><path fill="rgb(176,178,182)" stroke="rgb(176,178,182)" stroke-width="1" opacity="1" d="M 28.5 162 L 26.5 165 L 28.5 162 Z " /><path fill="rgb(176,178,182)" stroke="rgb(176,178,182)" stroke-width="1" opacity="1" d="M 126.5 163 L 129.5 167 L 126.5 163 Z " /><path fill="rgb(176,178,182)" stroke="rgb(176,178,182)" stroke-width="1" opacity="1" d="M 24.5 169 Q 23.6 177.9 29.5 180 Q 32.3 179.4 31 185.5 L 29.5 190 L 20 184.5 L 24 175.5 L 24.5 169 Z " /><path fill="rgb(176,178,182)" stroke="rgb(176,178,182)" stroke-width="1" opacity="1" d="M 38.5 169 L 39 171.5 L 38 171.5 L 38.5 169 Z " /><path fill="rgb(176,178,182)" stroke="rgb(176,178,182)" stroke-width="1" opacity="1" d="M 121.5 169 L 124 170.5 L 123.5 173 L 121.5 169 Z " /><path fill="rgb(176,178,182)" stroke="rgb(176,178,182)" stroke-width="1" opacity="1" d="M 31.5 170 L 34 173.5 L 31 171.5 L 31.5 170 Z " /><path fill="rgb(176,178,182)" stroke="rgb(176,178,182)" stroke-width="1" opacity="1" d="M 130 177 L 135 178 Q 136.5 185.2 131.5 187 L 129 188.5 L 136 192.5 L 137 200 L 131 200 L 131 197.5 Q 125.4 193.1 127 181.5 L 130 177 Z " /><path fill="rgb(176,178,182)" stroke="rgb(176,178,182)" stroke-width="1" opacity="1" d="M 142.5 187 L 143 195.5 L 142 195.5 L 142.5 187 Z " /><path fill="rgb(176,178,182)" stroke="rgb(176,178,182)" stroke-width="1" opacity="1" d="M 24.5 190 L 28 190.5 L 24.5 191 L 24.5 190 Z " /><path fill="rgb(176,178,182)" stroke="rgb(176,178,182)" stroke-width="1" opacity="1" d="M 17 197 L 24 197 L 24 200 L 17 200 L 17 197 Z " /><path fill="rgb(220,219,227)" stroke="rgb(220,219,227)" stroke-width="1" opacity="1" d="M 152.5 51 Q 162.2 55.3 168 63.5 L 173 74 L 166 70.5 Q 162.5 60.5 154.5 55 Q 150.1 56.5 151 53.5 L 152.5 51 Z " /><path fill="rgb(220,219,227)" stroke="rgb(220,219,227)" stroke-width="1" opacity="1" d="M 76.5 124 L 109 124.5 L 96.5 125 L 95.5 126 L 94.5 125 L 76.5 125 L 76.5 124 Z " /><path fill="rgb(220,219,227)" stroke="rgb(220,219,227)" stroke-width="1" opacity="1" d="M 61.5 125 L 66 125.5 L 61.5 126 L 61.5 125 Z " /><path fill="rgb(220,219,227)" stroke="rgb(220,219,227)" stroke-width="1" opacity="1" d="M 72.5 132 L 90.5 134 L 103.5 138 L 109 141.5 L 105 149 L 98.5 148 L 95 145.5 Q 96.3 141.3 91.5 143 Q 90.3 140.8 85.5 142 L 78.5 138 L 71.5 138 L 65.5 141 L 61.5 139 L 57.5 144 L 52.5 145 L 42.5 150 L 26 164.5 Q 23.1 168.1 24 175.5 L 20 184.5 L 29 189.5 L 12 190 Q 15.3 162 33.5 148 L 53.5 136 L 72.5 132 Z " /><path fill="rgb(220,219,227)" stroke="rgb(220,219,227)" stroke-width="1" opacity="1" d="M 73.5 145 L 77 145.5 L 73.5 146 L 73.5 145 Z " /><path fill="rgb(220,219,227)" stroke="rgb(220,219,227)" stroke-width="1" opacity="1" d="M 115.5 146 Q 124.3 149.3 129 156.5 Q 143.8 170.4 142 200 Q 134.5 202.8 137 194.5 L 134.5 191 L 129 188.5 L 135 183.5 Q 136.3 177.4 133.5 178 L 131 177 Q 133 166.3 126.5 163 L 119 161 Q 119.8 156.3 115.5 155 L 111 154 L 115.5 146 Z " /><path fill="rgb(220,219,227)" stroke="rgb(220,219,227)" stroke-width="1" opacity="1" d="M 34.5 167 L 38 168 L 38 173 L 36.5 173 L 34.5 174 Q 31.5 173.5 32 169.5 L 34.5 167 Z " /><path fill="rgb(220,219,227)" stroke="rgb(220,219,227)" stroke-width="1" opacity="1" d="M 69.5 179 L 74 180 Q 75 184.7 71.5 186 L 67.5 187 L 65 183.5 L 67.5 180 L 69.5 179 Z " /><path fill="rgb(220,219,227)" stroke="rgb(220,219,227)" stroke-width="1" opacity="1" d="M 11 197 L 17 197 L 17 200 L 11 200 L 11 197 Z " /><path fill="rgb(111,87,89)" stroke="rgb(111,87,89)" stroke-width="1" opacity="1" d="M 109.5 40 L 110 42.5 L 108 43.5 L 109.5 40 Z " /><path fill="rgb(111,87,89)" stroke="rgb(111,87,89)" stroke-width="1" opacity="1" d="M 102.5 43 L 103 44.5 L 102 50 L 96 50 L 96 56 L 100 56 Q 98.9 59.3 103 58 L 103 60.5 L 101.5 60 L 96.5 63 L 90 62 L 90 66 L 81.5 66 L 73 63 L 72 58.5 L 73 56 L 78 56 L 78 50 Q 72.4 52.2 74 46.5 L 75.5 44 L 79 51 L 83.5 52 L 96 50 Q 94.5 46.2 97.5 47 L 102.5 43 Z " /><path fill="rgb(111,87,89)" stroke="rgb(111,87,89)" stroke-width="1" opacity="1" d="M 35.5 56 L 34.5 58 L 35.5 56 Z " /><path fill="rgb(111,87,89)" stroke="rgb(111,87,89)" stroke-width="1" opacity="1" d="M 106.5 56 L 107 57.5 L 104 59.5 L 106.5 56 Z " /><path fill="rgb(111,87,89)" stroke="rgb(111,87,89)" stroke-width="1" opacity="1" d="M 152.5 59 L 156 59.5 L 152.5 60 L 152.5 59 Z " /><path fill="rgb(111,87,89)" stroke="rgb(111,87,89)" stroke-width="1" opacity="1" d="M 165.5 59 L 166.5 61 L 165.5 59 Z " /><path fill="rgb(111,87,89)" stroke="rgb(111,87,89)" stroke-width="1" opacity="1" d="M 28.5 63 L 27.5 65 L 28.5 63 Z " /><path fill="rgb(111,87,89)" stroke="rgb(111,87,89)" stroke-width="1" opacity="1" d="M 41 67 L 54.5 68 L 56 67.5 Q 55.4 73.7 58 76 Q 54.6 76.8 53.5 74 L 48.5 75 L 47.5 74 L 41 74 L 41 67 Z " /><path fill="rgb(111,87,89)" stroke="rgb(111,87,89)" stroke-width="1" opacity="1" d="M 158.5 68 L 159 70 L 162 70.5 L 159.5 71 L 158.5 68 Z " /><path fill="rgb(111,87,89)" stroke="rgb(111,87,89)" stroke-width="1" opacity="1" d="M 164.5 71 L 167 73.5 Q 165.7 78.3 168 79.5 L 166.5 80 L 164 78.5 L 165 75.5 L 165 73.5 L 164.5 71 Z " /><path fill="rgb(111,87,89)" stroke="rgb(111,87,89)" stroke-width="1" opacity="1" d="M 27.5 73 L 30 74.5 L 28.5 75 L 27.5 73 Z " /><path fill="rgb(111,87,89)" stroke="rgb(111,87,89)" stroke-width="1" opacity="1" d="M 169.5 80 L 173 81 L 172.5 83 L 169.5 80 Z " /><path fill="rgb(111,87,89)" stroke="rgb(111,87,89)" stroke-width="1" opacity="1" d="M 174.5 80 L 175 82.5 L 174 82.5 L 174.5 80 Z " /><path fill="rgb(111,87,89)" stroke="rgb(111,87,89)" stroke-width="1" opacity="1" d="M 126.5 96 Q 129.8 94.9 129 97.5 L 123.5 106 L 123 101.5 L 126.5 96 Z " /><path fill="rgb(111,87,89)" stroke="rgb(111,87,89)" stroke-width="1" opacity="1" d="M 178.5 106 L 183 120 L 180 120 L 180 111.5 L 178.5 106 Z " /><path fill="rgb(111,87,89)" stroke="rgb(111,87,89)" stroke-width="1" opacity="1" d="M 37.5 118 L 40 119.5 L 38.5 120 L 37.5 118 Z " /><path fill="rgb(111,87,89)" stroke="rgb(111,87,89)" stroke-width="1" opacity="1" d="M 86.5 123 L 93 123.5 L 86.5 124 L 86.5 123 Z " /><path fill="rgb(111,87,89)" stroke="rgb(111,87,89)" stroke-width="1" opacity="1" d="M 96.5 123 L 114 123.5 L 96.5 124 L 96.5 123 Z " /><path fill="rgb(111,87,89)" stroke="rgb(111,87,89)" stroke-width="1" opacity="1" d="M 64.5 124 L 67 124.5 L 64.5 125 L 64.5 124 Z " /><path fill="rgb(111,87,89)" stroke="rgb(111,87,89)" stroke-width="1" opacity="1" d="M 139.5 124 L 142 124.5 L 139.5 125 L 139.5 124 Z " /><path fill="rgb(111,87,89)" stroke="rgb(111,87,89)" stroke-width="1" opacity="1" d="M 71.5 125 L 78 125.5 L 71.5 126 L 71.5 125 Z " /><path fill="rgb(111,87,89)" stroke="rgb(111,87,89)" stroke-width="1" opacity="1" d="M 143.5 125 L 154 125.5 L 143.5 126 L 143.5 125 Z " /><path fill="rgb(111,87,89)" stroke="rgb(111,87,89)" stroke-width="1" opacity="1" d="M 41.5 126 L 44 126.5 L 41.5 127 L 41.5 126 Z " /><path fill="rgb(111,87,89)" stroke="rgb(111,87,89)" stroke-width="1" opacity="1" d="M 98.5 126 L 132 126.5 L 98.5 127 L 98.5 126 Z " /><path fill="rgb(111,87,89)" stroke="rgb(111,87,89)" stroke-width="1" opacity="1" d="M 33.5 127 L 37 127.5 L 33.5 128 L 33.5 127 Z " /><path fill="rgb(111,87,89)" stroke="rgb(111,87,89)" stroke-width="1" opacity="1" d="M 25.5 128 L 28 128.5 L 25.5 129 L 25.5 128 Z " /><path fill="rgb(111,87,89)" stroke="rgb(111,87,89)" stroke-width="1" opacity="1" d="M 49.5 128 L 53 128.5 L 49.5 129 L 49.5 128 Z " /><path fill="rgb(111,87,89)" stroke="rgb(111,87,89)" stroke-width="1" opacity="1" d="M 40.5 129 L 48 129.5 L 34.5 131 L 34.5 130 Q 39.3 131.3 40.5 129 Z " /><path fill="rgb(111,87,89)" stroke="rgb(111,87,89)" stroke-width="1" opacity="1" d="M 15.5 130 L 14.5 132 L 15.5 130 Z " /><path fill="rgb(111,87,89)" stroke="rgb(111,87,89)" stroke-width="1" opacity="1" d="M 28.5 131 L 33 131.5 L 24.5 133 L 24.5 132 L 28.5 131 Z " /><path fill="rgb(111,87,89)" stroke="rgb(111,87,89)" stroke-width="1" opacity="1" d="M 123.5 131 L 143.5 132 L 148.5 135 Q 153.8 133.8 155 136.5 L 156 146.5 L 157.5 148 L 179.5 148 Q 181.3 150.8 187.5 149 L 189 150.5 Q 189.8 152.8 187.5 152 Q 185 153 186 157.5 Q 187.4 160.3 192 159 L 194 167 L 162 165 L 153.5 152 Q 151.3 152.8 152 150.5 L 143.5 142 L 134.5 136 L 123.5 132 L 123.5 131 Z " /><path fill="rgb(111,87,89)" stroke="rgb(111,87,89)" stroke-width="1" opacity="1" d="M 83.5 132 L 86 132.5 L 83.5 133 L 83.5 132 Z " /><path fill="rgb(111,87,89)" stroke="rgb(111,87,89)" stroke-width="1" opacity="1" d="M 21.5 133 L 23 133.5 L 16 139.5 L 13.5 143 L 15 140.5 L 21.5 133 Z " /><path fill="rgb(111,87,89)" stroke="rgb(111,87,89)" stroke-width="1" opacity="1" d="M 90.5 133 L 93 133.5 L 90.5 134 L 90.5 133 Z " /><path fill="rgb(111,87,89)" stroke="rgb(111,87,89)" stroke-width="1" opacity="1" d="M 102.5 133 L 106 133.5 L 102.5 134 L 102.5 133 Z " /><path fill="rgb(111,87,89)" stroke="rgb(111,87,89)" stroke-width="1" opacity="1" d="M 160.5 134 L 165 134.5 L 159.5 136 L 160.5 134 Z " /><path fill="rgb(111,87,89)" stroke="rgb(111,87,89)" stroke-width="1" opacity="1" d="M 171.5 134 L 181 134.5 L 171.5 135 L 171.5 134 Z " /><path fill="rgb(111,87,89)" stroke="rgb(111,87,89)" stroke-width="1" opacity="1" d="M 97.5 135 L 102 136.5 L 100.5 137 L 97.5 136 L 97.5 135 Z " /><path fill="rgb(111,87,89)" stroke="rgb(111,87,89)" stroke-width="1" opacity="1" d="M 112.5 135 L 115 136.5 L 113.5 136 L 112.5 135 Z " /><path fill="rgb(111,87,89)" stroke="rgb(111,87,89)" stroke-width="1" opacity="1" d="M 34.5 136 L 37 136.5 L 21 149.5 L 9.5 167 Q 7.3 167.8 8 165.5 L 13 158.5 Q 11.4 147.4 16.5 143 L 30.5 140 L 32 138.5 Q 31.3 136.3 33.5 137 L 34.5 136 Z " /><path fill="rgb(111,87,89)" stroke="rgb(111,87,89)" stroke-width="1" opacity="1" d="M 116.5 137 L 131.5 148 L 139.5 148 L 150 157.5 L 158 171.5 L 162 182.5 L 164 200 L 150 200 L 150 185.5 Q 147.7 171.8 142 161.5 L 130.5 148 Q 127.5 145 120.5 146 L 121.5 149 L 115.5 145 L 112 148.5 L 98 174 L 91 170.5 L 107 147.5 L 110 140 L 108 139.5 L 109.5 139 Q 111.2 141.8 117.5 140 L 117.5 139 Q 114.7 139.7 116.5 137 Z " /><path fill="rgb(111,87,89)" stroke="rgb(111,87,89)" stroke-width="1" opacity="1" d="M 160.5 140 L 161 142.5 L 160 142.5 L 160.5 140 Z " /><path fill="rgb(111,87,89)" stroke="rgb(111,87,89)" stroke-width="1" opacity="1" d="M 67.5 142 L 71 143 L 72 146.5 L 71 149 L 65.5 148 L 64 148.5 L 67.5 142 Z " /><path fill="rgb(111,87,89)" stroke="rgb(111,87,89)" stroke-width="1" opacity="1" d="M 82 142 L 85 143.5 L 87 151.5 L 86 151.5 Q 87.1 148.2 84.5 149 L 79.5 151 L 78 145.5 L 82 144 L 82 142 Z " /><path fill="rgb(111,87,89)" stroke="rgb(111,87,89)" stroke-width="1" opacity="1" d="M 184.5 142 L 185 144.5 L 184 144.5 L 184.5 142 Z " /><path fill="rgb(111,87,89)" stroke="rgb(111,87,89)" stroke-width="1" opacity="1" d="M 12.5 144 L 11.5 146 L 12.5 144 Z " /><path fill="rgb(111,87,89)" stroke="rgb(111,87,89)" stroke-width="1" opacity="1" d="M 168.5 144 L 179 144.5 L 168.5 145 L 168.5 144 Z " /><path fill="rgb(111,87,89)" stroke="rgb(111,87,89)" stroke-width="1" opacity="1" d="M 31.5 149 L 30.5 151 L 31.5 149 Z " /><path fill="rgb(111,87,89)" stroke="rgb(111,87,89)" stroke-width="1" opacity="1" d="M 8.5 151 L 8 152.5 L 6.5 156 L 6 154.5 L 8.5 151 Z " /><path fill="rgb(111,87,89)" stroke="rgb(111,87,89)" stroke-width="1" opacity="1" d="M 73.5 153 L 77 153.5 L 73.5 154 L 73.5 153 Z " /><path fill="rgb(111,87,89)" stroke="rgb(111,87,89)" stroke-width="1" opacity="1" d="M 85.5 154 L 84.5 156 L 85.5 154 Z " /><path fill="rgb(111,87,89)" stroke="rgb(111,87,89)" stroke-width="1" opacity="1" d="M 25.5 155 L 24.5 157 L 25.5 155 Z " /><path fill="rgb(111,87,89)" stroke="rgb(111,87,89)" stroke-width="1" opacity="1" d="M 65.5 155 L 68.5 159 L 65.5 155 Z " /><path fill="rgb(111,87,89)" stroke="rgb(111,87,89)" stroke-width="1" opacity="1" d="M 129.5 156 L 131.5 159 L 129.5 156 Z " /><path fill="rgb(111,87,89)" stroke="rgb(111,87,89)" stroke-width="1" opacity="1" d="M 3.5 158 L 5 160.5 L 4 160.5 L 3.5 158 Z " /><path fill="rgb(111,87,89)" stroke="rgb(111,87,89)" stroke-width="1" opacity="1" d="M 81.5 158 L 83 158.5 L 79.5 160 L 79.5 159 L 81.5 158 Z " /><path fill="rgb(111,87,89)" stroke="rgb(111,87,89)" stroke-width="1" opacity="1" d="M 73.5 160 L 77 160.5 L 73.5 161 L 73.5 160 Z " /><path fill="rgb(111,87,89)" stroke="rgb(111,87,89)" stroke-width="1" opacity="1" d="M 32.5 161 L 39 161.5 Q 36 162.8 37 167 L 32 167 L 32 168.5 L 31 172.5 L 34 174.5 L 32 180 L 27 177.5 L 25 173.5 L 27 169 L 31 166.5 Q 30 162 32.5 161 Z " /><path fill="rgb(111,87,89)" stroke="rgb(111,87,89)" stroke-width="1" opacity="1" d="M 2 162 L 4 162.5 L 2.5 166 L 2 162 Z " /><path fill="rgb(111,87,89)" stroke="rgb(111,87,89)" stroke-width="1" opacity="1" d="M 42.5 162 L 43.5 164 L 42.5 162 Z " /><path fill="rgb(111,87,89)" stroke="rgb(111,87,89)" stroke-width="1" opacity="1" d="M 117 162 Q 120.8 161 122 163.5 L 124.5 169 Q 129.6 168.4 131 171.5 Q 131.1 179.6 125.5 182 L 126 180.5 L 125 175 L 119.5 176 L 118.5 174 L 122.5 175 Q 126.8 173.3 124 171.5 L 122.5 169 L 120 168.5 L 121 166 L 119 166 L 117 162 Z " /><path fill="rgb(111,87,89)" stroke="rgb(111,87,89)" stroke-width="1" opacity="1" d="M 114.5 163 L 112.5 166 L 114.5 163 Z " /><path fill="rgb(111,87,89)" stroke="rgb(111,87,89)" stroke-width="1" opacity="1" d="M 73.5 167 L 76 167.5 L 73.5 168 L 73.5 167 Z " /><path fill="rgb(111,87,89)" stroke="rgb(111,87,89)" stroke-width="1" opacity="1" d="M 80.5 167 L 83 167.5 L 80.5 168 L 80.5 167 Z " /><path fill="rgb(111,87,89)" stroke="rgb(111,87,89)" stroke-width="1" opacity="1" d="M 110.5 169 L 111 173.5 L 110 173.5 L 110.5 169 Z " /><path fill="rgb(111,87,89)" stroke="rgb(111,87,89)" stroke-width="1" opacity="1" d="M 118.5 169 L 118 170.5 L 117.5 173 L 117 170.5 L 118.5 169 Z " /><path fill="rgb(111,87,89)" stroke="rgb(111,87,89)" stroke-width="1" opacity="1" d="M 166.5 173 L 179.5 173 L 180.5 174 L 191.5 174 L 197 175 L 200 181.5 L 200 200 L 172.5 200 L 172 199.5 L 172 192.5 L 166.5 173 Z " /><path fill="rgb(111,87,89)" stroke="rgb(111,87,89)" stroke-width="1" opacity="1" d="M 58.5 174 L 57.5 176 L 58.5 174 Z " /><path fill="rgb(111,87,89)" stroke="rgb(111,87,89)" stroke-width="1" opacity="1" d="M 0.5 175 L 1 178.5 L 0 178.5 L 0.5 175 Z " /><path fill="rgb(111,87,89)" stroke="rgb(111,87,89)" stroke-width="1" opacity="1" d="M 44.5 176 L 41.5 180 L 44.5 176 Z " /><path fill="rgb(111,87,89)" stroke="rgb(111,87,89)" stroke-width="1" opacity="1" d="M 97.5 176 L 98.5 178 L 97.5 176 Z " /><path fill="rgb(111,87,89)" stroke="rgb(111,87,89)" stroke-width="1" opacity="1" d="M 64.5 178 L 61.5 182 L 64.5 178 Z " /><path fill="rgb(111,87,89)" stroke="rgb(111,87,89)" stroke-width="1" opacity="1" d="M 113.5 179 L 114.5 181 L 113.5 179 Z " /><path fill="rgb(111,87,89)" stroke="rgb(111,87,89)" stroke-width="1" opacity="1" d="M 33.5 181 L 37 181.5 L 33.5 182 L 33.5 181 Z " /><path fill="rgb(111,87,89)" stroke="rgb(111,87,89)" stroke-width="1" opacity="1" d="M 4.5 182 L 5 186.5 L 4 187.5 L 4 200 L 0 200 L 0 192.5 L 4.5 182 Z " /><path fill="rgb(111,87,89)" stroke="rgb(111,87,89)" stroke-width="1" opacity="1" d="M 118.5 182 L 124 182.5 L 118.5 183 L 118.5 182 Z " /><path fill="rgb(111,87,89)" stroke="rgb(111,87,89)" stroke-width="1" opacity="1" d="M 102.5 188 L 103 193.5 L 102 193.5 L 102.5 188 Z " /><path fill="rgb(111,87,89)" stroke="rgb(111,87,89)" stroke-width="1" opacity="1" d="M 11 191 L 50.5 191 L 51 191.5 L 51 198 L 18.5 197 L 17.5 196 L 11 196 L 11 191 Z " /></svg>