<svg width="200" height="200" version="1.1" xmlns="http://www.w3.org/2000/svg" desc="Created with imagetracer.js version 1.2.6" ><path fill="rgb(0,0,0)" stroke="rgb(0,0,0)" stroke-width="1" opacity="0" d="M 0 0 L 200 0 L 200 200 L 152.5 200 L 152 197.5 L 156 188.5 L 156 182.5 Q 151.3 172.2 142.5 166 L 136 160.5 L 150.5 158 L 160.5 158 L 161.5 159 L 175.5 160 Q 178.8 158.3 178 152.5 Q 175.5 138 167 129.5 Q 169.8 127.8 168 121.5 L 167 118.5 L 185 104.5 L 185 100.5 L 181 94.5 L 166 76.5 L 180 64.5 L 181 61.5 L 177.5 58 L 166.5 52 L 149.5 47 L 141.5 46 L 140 44.5 L 139 30.5 L 140 27.5 L 139 25 Q 136.7 22.4 130.5 23 L 121.5 26 L 103.5 29 Q 92.3 31.8 84.5 38 L 80.5 38 L 63.5 32 L 53.5 26 L 50.5 27 L 48 28.5 L 44 43.5 L 43 54.5 L 41.5 56 L 27.5 61 L 16.5 63 L 12 65.5 L 13 72.5 L 23 87.5 L 29 93.5 L 29 96.5 L 26 107.5 L 26 121.5 Q 27.3 124.3 32.5 123 L 39.5 120 L 40 123 Q 22.7 127.5 11 138.5 L 10 143.5 L 13.5 147 Q 27.5 150.5 38.5 157 Q 49.4 162.6 57 171.5 L 59 176.5 L 54 193.5 L 50.5 200 L 0.5 200 L 0 199.5 L 0 0 Z " /><path fill="rgb(0,0,0)" stroke="rgb(0,0,0)" stroke-width="1" opacity="0.7803921568627451" d="M 126.5 24 L 129 24.5 L 126.5 25 L 126.5 24 Z " /><path fill="rgb(0,0,0)" stroke="rgb(0,0,0)" stroke-width="1" opacity="0.7803921568627451" d="M 119.5 26 L 122 26.5 L 119.5 27 L 119.5 26 Z " /><path fill="rgb(0,0,0)" stroke="rgb(0,0,0)" stroke-width="1" opacity="0.7803921568627451" d="M 138.5 26 L 139 40.5 L 138 40.5 L 138.5 26 Z " /><path fill="rgb(0,0,0)" stroke="rgb(0,0,0)" stroke-width="1" opacity="0.7803921568627451" d="M 50.5 27 L 49.5 29 L 50.5 27 Z " /><path fill="rgb(0,0,0)" stroke="rgb(0,0,0)" stroke-width="1" opacity="0.7803921568627451" d="M 91.5 34 L 90.5 36 L 91.5 34 Z " /><path fill="rgb(0,0,0)" stroke="rgb(0,0,0)" stroke-width="1" opacity="0.7803921568627451" d="M 86.5 37 L 85.5 39 L 84 38.5 L 86.5 37 Z " /><path fill="rgb(0,0,0)" stroke="rgb(0,0,0)" stroke-width="1" opacity="0.7803921568627451" d="M 45.5 40 L 46 42.5 L 45 42.5 L 45.5 40 Z " /><path fill="rgb(0,0,0)" stroke="rgb(0,0,0)" stroke-width="1" opacity="0.7803921568627451" d="M 44.5 46 L 45 50.5 L 44 50.5 L 44.5 46 Z " /><path fill="rgb(0,0,0)" stroke="rgb(0,0,0)" stroke-width="1" opacity="0.7803921568627451" d="M 168.5 54 L 171 55.5 L 169.5 55 L 168.5 54 Z " /><path fill="rgb(0,0,0)" stroke="rgb(0,0,0)" stroke-width="1" opacity="0.7803921568627451" d="M 178.5 59 L 180 61.5 L 179 61.5 L 178.5 59 Z " /><path fill="rgb(0,0,0)" stroke="rgb(0,0,0)" stroke-width="1" opacity="0.7803921568627451" d="M 176.5 66 L 175.5 68 L 176.5 66 Z " /><path fill="rgb(0,0,0)" stroke="rgb(0,0,0)" stroke-width="1" opacity="0.7803921568627451" d="M 171.5 70 L 170.5 72 L 171.5 70 Z " /><path fill="rgb(0,0,0)" stroke="rgb(0,0,0)" stroke-width="1" opacity="0.7803921568627451" d="M 166.5 74 L 165 76.5 L 172 84.5 L 164 77.5 L 166.5 74 Z " /><path fill="rgb(0,0,0)" stroke="rgb(0,0,0)" stroke-width="1" opacity="0.7803921568627451" d="M 18.5 79 L 19.5 81 L 18.5 79 Z " /><path fill="rgb(0,0,0)" stroke="rgb(0,0,0)" stroke-width="1" opacity="0.7803921568627451" d="M 172.5 86 L 173.5 88 L 172.5 86 Z " /><path fill="rgb(0,0,0)" stroke="rgb(0,0,0)" stroke-width="1" opacity="0.7803921568627451" d="M 175.5 89 L 179.5 94 L 175.5 89 Z " /><path fill="rgb(0,0,0)" stroke="rgb(0,0,0)" stroke-width="1" opacity="0.7803921568627451" d="M 181.5 97 L 182.5 99 L 181.5 97 Z " /><path fill="rgb(0,0,0)" stroke="rgb(0,0,0)" stroke-width="1" opacity="0.7803921568627451" d="M 27.5 103 L 28 107.5 L 27 107.5 L 27.5 103 Z " /><path fill="rgb(0,0,0)" stroke="rgb(0,0,0)" stroke-width="1" opacity="0.7803921568627451" d="M 26.5 109 L 27 119.5 L 26 119.5 L 26.5 109 Z " /><path fill="rgb(0,0,0)" stroke="rgb(0,0,0)" stroke-width="1" opacity="0.7803921568627451" d="M 173.5 111 L 171.5 114 L 173.5 111 Z " /><path fill="rgb(0,0,0)" stroke="rgb(0,0,0)" stroke-width="1" opacity="0.7803921568627451" d="M 168.5 115 L 167.5 117 L 168.5 115 Z " /><path fill="rgb(0,0,0)" stroke="rgb(0,0,0)" stroke-width="1" opacity="0.7803921568627451" d="M 36.5 119 Q 41 118 42 120.5 L 40.5 120 L 35.5 121 L 36.5 119 Z " /><path fill="rgb(0,0,0)" stroke="rgb(0,0,0)" stroke-width="1" opacity="0.7803921568627451" d="M 40.5 122 L 39.5 124 L 35.5 125 L 35.5 124 L 40.5 122 Z " /><path fill="rgb(0,0,0)" stroke="rgb(0,0,0)" stroke-width="1" opacity="0.7803921568627451" d="M 166.5 129 L 169 132.5 L 166 130.5 L 166.5 129 Z " /><path fill="rgb(0,0,0)" stroke="rgb(0,0,0)" stroke-width="1" opacity="0.7803921568627451" d="M 169.5 134 L 170.5 136 L 169.5 134 Z " /><path fill="rgb(0,0,0)" stroke="rgb(0,0,0)" stroke-width="1" opacity="0.7803921568627451" d="M 14.5 136 L 11.5 140 L 14.5 136 Z " /><path fill="rgb(0,0,0)" stroke="rgb(0,0,0)" stroke-width="1" opacity="0.7803921568627451" d="M 15.5 146 L 21 148.5 L 19.5 149 L 15.5 147 L 15.5 146 Z " /><path fill="rgb(0,0,0)" stroke="rgb(0,0,0)" stroke-width="1" opacity="0.7803921568627451" d="M 40.5 157 L 41.5 159 L 40.5 157 Z " /><path fill="rgb(0,0,0)" stroke="rgb(0,0,0)" stroke-width="1" opacity="0.7803921568627451" d="M 149.5 157 L 162 157.5 L 149.5 158 L 149.5 157 Z " /><path fill="rgb(0,0,0)" stroke="rgb(0,0,0)" stroke-width="1" opacity="0.7803921568627451" d="M 143.5 158 L 146 158.5 L 143.5 159 L 143.5 158 Z " /><path fill="rgb(0,0,0)" stroke="rgb(0,0,0)" stroke-width="1" opacity="0.7803921568627451" d="M 167.5 158 L 170 158.5 L 167.5 159 L 167.5 158 Z " /><path fill="rgb(0,0,0)" stroke="rgb(0,0,0)" stroke-width="1" opacity="0.7803921568627451" d="M 46.5 161 L 51 164.5 L 48.5 163 L 46.5 161 Z " /><path fill="rgb(0,0,0)" stroke="rgb(0,0,0)" stroke-width="1" opacity="0.7803921568627451" d="M 139.5 164 L 143.5 169 L 139.5 164 Z " /><path fill="rgb(0,0,0)" stroke="rgb(0,0,0)" stroke-width="1" opacity="0.7803921568627451" d="M 57.5 171 L 58.5 173 L 57.5 171 Z " /><path fill="rgb(0,0,0)" stroke="rgb(0,0,0)" stroke-width="1" opacity="0.7803921568627451" d="M 150.5 175 L 151.5 177 L 150.5 175 Z " /><path fill="rgb(0,0,0)" stroke="rgb(0,0,0)" stroke-width="1" opacity="0.7803921568627451" d="M 152.5 178 L 153.5 180 L 152.5 178 Z " /><path fill="rgb(0,0,0)" stroke="rgb(0,0,0)" stroke-width="1" opacity="0.7803921568627451" d="M 155.5 184 L 156 187.5 L 155 187.5 L 155.5 184 Z " /><path fill="rgb(253,254,254)" stroke="rgb(253,254,254)" stroke-width="1" opacity="1" d="M 110.5 36 L 114 36.5 Q 100 41.5 89.5 50 L 81.5 52 Q 73.3 50.2 68.5 45 L 57 41 L 52.5 56 L 52 46.5 L 54 38 L 79.5 47 L 85.5 47 L 96.5 41 L 102.5 40 L 110.5 36 Z " /><path fill="rgb(253,254,254)" stroke="rgb(253,254,254)" stroke-width="1" opacity="1" d="M 128 51 L 131.5 51 L 139.5 55 L 145.5 55 L 160.5 59 L 165 61.5 L 157.5 62 L 150.5 59 L 130.5 58 L 128 55.5 L 128 51 Z " /><path fill="rgb(253,254,254)" stroke="rgb(253,254,254)" stroke-width="1" opacity="1" d="M 156.5 68 L 159 68.5 L 155.5 70 L 156.5 68 Z " /><path fill="rgb(253,254,254)" stroke="rgb(253,254,254)" stroke-width="1" opacity="1" d="M 37.5 98 L 38 99.5 L 37 102.5 L 37.5 104 L 35.5 105 L 36 103.5 L 37.5 98 Z " /><path fill="rgb(253,254,254)" stroke="rgb(253,254,254)" stroke-width="1" opacity="1" d="M 107.5 109 Q 114.5 108 118 110.5 L 114.5 111 Q 113 108.5 107.5 110 L 107.5 109 Z " /><path fill="rgb(253,254,254)" stroke="rgb(253,254,254)" stroke-width="1" opacity="1" d="M 56.5 112 Q 61.9 111.1 64 113.5 L 54.5 114 L 54.5 113 L 56.5 112 Z " /><path fill="rgb(253,254,254)" stroke="rgb(253,254,254)" stroke-width="1" opacity="1" d="M 114.5 120 Q 119.1 118.7 117 124.5 Q 113.8 129.3 105.5 129 L 102 128 Q 100.9 125.3 103.5 126 L 114.5 120 Z " /><path fill="rgb(253,254,254)" stroke="rgb(253,254,254)" stroke-width="1" opacity="1" d="M 68.5 123 L 70 129.5 L 68 134 L 59.5 137 L 53 134.5 L 54.5 132 L 68.5 123 Z " /><path fill="rgb(253,254,254)" stroke="rgb(253,254,254)" stroke-width="1" opacity="1" d="M 39.5 131 L 44 141.5 L 38.5 147 L 36.5 147 Q 31.3 142.3 23 140.5 L 39.5 131 Z " /><path fill="rgb(253,254,254)" stroke="rgb(253,254,254)" stroke-width="1" opacity="1" d="M 161.5 144 L 166 144 L 166 147 Q 168.7 145.9 168 148.5 L 168.5 150 L 151.5 150 L 150 148.5 Q 149.2 145.9 152.5 147 L 161.5 144 Z " /><path fill="rgb(253,254,254)" stroke="rgb(253,254,254)" stroke-width="1" opacity="1" d="M 128.5 167 L 130.5 167 L 135 171.5 L 134.5 173 L 136 173.5 Q 133.5 175 137 176.5 L 138 182.5 L 135 185.5 Q 136.3 191.8 132.5 193 L 124 190 Q 123 187 126 188 L 126 185.5 L 130 179.5 L 130 174 L 126.5 173 L 121.5 176 L 119 172 L 117 171.5 L 128.5 167 Z " /><path fill="rgb(253,254,254)" stroke="rgb(253,254,254)" stroke-width="1" opacity="1" d="M 108 173 Q 113.2 170.9 112 175.5 L 110 181.5 L 111 185.5 Q 108.7 186.8 110 191.5 L 120 197.5 L 118.5 200 Q 110.7 201.7 109 197.5 Q 109.2 192.3 106 190.5 L 106 179.5 L 108 173 Z " /><path fill="rgb(178,186,167)" stroke="rgb(178,186,167)" stroke-width="1" opacity="1" d="M 54.5 37 L 56 37.5 L 54 38 L 53.5 40 L 53 38.5 L 54.5 37 Z " /><path fill="rgb(178,186,167)" stroke="rgb(178,186,167)" stroke-width="1" opacity="1" d="M 130.5 38 L 132 40.5 L 132 49.5 L 133 50.5 L 131.5 50 L 129 48.5 L 130 44.5 L 129 41.5 L 130.5 38 Z " /><path fill="rgb(178,186,167)" stroke="rgb(178,186,167)" stroke-width="1" opacity="1" d="M 90.5 43 L 89.5 45 L 90.5 43 Z " /><path fill="rgb(178,186,167)" stroke="rgb(178,186,167)" stroke-width="1" opacity="1" d="M 51.5 48 L 52 50.5 L 51 50.5 L 51.5 48 Z " /><path fill="rgb(178,186,167)" stroke="rgb(178,186,167)" stroke-width="1" opacity="1" d="M 91 51 L 96.5 51 L 106.5 59 Q 110.1 56.1 117.5 57 L 120 58 L 121 61.5 Q 119.3 64.8 114.5 65 L 112.5 64 L 102.5 66 L 100 62 L 91 57 L 90 53.5 L 91 51 Z " /><path fill="rgb(178,186,167)" stroke="rgb(178,186,167)" stroke-width="1" opacity="1" d="M 51.5 53 L 52 58.5 L 51 58.5 L 51.5 53 Z " /><path fill="rgb(178,186,167)" stroke="rgb(178,186,167)" stroke-width="1" opacity="1" d="M 142.5 54 L 145 54.5 L 142.5 55 L 142.5 54 Z " /><path fill="rgb(178,186,167)" stroke="rgb(178,186,167)" stroke-width="1" opacity="1" d="M 168.5 62 L 169 63.5 L 167 64.5 L 168.5 62 Z " /><path fill="rgb(178,186,167)" stroke="rgb(178,186,167)" stroke-width="1" opacity="1" d="M 43.5 63 L 46 63.5 L 43.5 64 L 43.5 63 Z " /><path fill="rgb(178,186,167)" stroke="rgb(178,186,167)" stroke-width="1" opacity="1" d="M 164.5 66 L 163.5 68 L 155 75.5 L 155 78.5 L 160.5 84 L 166 88.5 L 175 101.5 L 164 109 L 162.5 112 Q 157.9 112.6 156.5 110 L 151.5 110 L 150 108.5 L 139.5 93 L 136.5 92 Q 133.3 92.8 134 97.5 L 144 111.5 L 141.5 112 L 129.5 109 L 120.5 102 L 113.5 100 L 107.5 100 L 98.5 95 L 95 95 L 92 109.5 L 87.5 117 L 71 106.5 Q 71.8 104.3 69.5 105 L 64 98 L 59 94.5 L 60.5 95 L 69.5 102 L 89 110 Q 87.1 96.9 93.5 91 L 99.5 92 L 125.5 103 L 129.5 103 L 129 101.5 L 130 93.5 L 129 88 L 160.5 90 L 160 88.5 L 158 85.5 L 149 74.5 L 164.5 66 Z " /><path fill="rgb(178,186,167)" stroke="rgb(178,186,167)" stroke-width="1" opacity="1" d="M 24.5 74 L 35.5 80 Q 41.5 78.5 43 81.5 L 42.5 83 L 42 81 L 38.5 81 L 33.5 86 Q 26.6 81.2 24.5 74 Z " /><path fill="rgb(178,186,167)" stroke="rgb(178,186,167)" stroke-width="1" opacity="1" d="M 42.5 86 L 42 87.5 L 39.5 92 L 39 90.5 L 42.5 86 Z " /><path fill="rgb(178,186,167)" stroke="rgb(178,186,167)" stroke-width="1" opacity="1" d="M 55.5 94 L 57 94.5 L 54 96.5 L 56 103 L 43.5 111 L 34 113 L 34 106.5 L 35.5 106 Q 47.5 102 55.5 94 Z " /><path fill="rgb(178,186,167)" stroke="rgb(178,186,167)" stroke-width="1" opacity="1" d="M 108.5 108 L 114 108.5 L 108.5 109 L 108.5 108 Z " /><path fill="rgb(178,186,167)" stroke="rgb(178,186,167)" stroke-width="1" opacity="1" d="M 102.5 110 L 103.5 112 L 102 111.5 Q 102.8 113.8 100.5 113 L 102.5 110 Z " /><path fill="rgb(178,186,167)" stroke="rgb(178,186,167)" stroke-width="1" opacity="1" d="M 107.5 110 L 113 110.5 L 107.5 111 L 107.5 110 Z " /><path fill="rgb(178,186,167)" stroke="rgb(178,186,167)" stroke-width="1" opacity="1" d="M 52.5 114 L 57 114.5 L 52.5 115 L 52.5 114 Z " /><path fill="rgb(178,186,167)" stroke="rgb(178,186,167)" stroke-width="1" opacity="1" d="M 152.5 118 Q 158.3 117.3 159 121.5 Q 160.8 132.3 154.5 135 L 151.5 137 L 138.5 137 L 126.5 144 L 104.5 151 L 82.5 153 L 82.5 152 L 84 151.5 L 78.5 151 Q 77.3 153.2 72.5 152 L 63.5 150 L 56 146.5 L 59.5 146 L 61.5 146 Q 73.3 145.3 78 137.5 Q 77.3 134.9 80 136 L 80 133.5 Q 82.7 130.3 88 131 L 91 139 L 78.5 141 L 77 142.5 L 78.5 146 L 89.5 146 L 96.5 142 L 99.5 142 Q 104.9 145.1 114.5 144 Q 124.6 141.6 130 134.5 L 135.5 126 L 138.5 126 L 140.5 124 Q 145 125 146 122.5 L 147.5 120 L 152.5 118 Z M 153 119 L 152 120 Q 149 119 150 122 L 156 121 Q 157 118 153 119 Z M 149 123 L 143 129 L 143 133 L 146 134 L 149 133 L 155 127 L 155 125 Q 154 122 149 123 Z " /><path fill="rgb(178,186,167)" stroke="rgb(178,186,167)" stroke-width="1" opacity="1" d="M 114.5 119 Q 118.9 117.5 118 120.5 L 116.5 120 Q 113.5 120.5 114.5 119 Z " /><path fill="rgb(178,186,167)" stroke="rgb(178,186,167)" stroke-width="1" opacity="1" d="M 108.5 121 L 110 121.5 L 107.5 123 L 108.5 121 Z " /><path fill="rgb(178,186,167)" stroke="rgb(178,186,167)" stroke-width="1" opacity="1" d="M 65.5 123 L 64.5 125 L 65.5 123 Z " /><path fill="rgb(178,186,167)" stroke="rgb(178,186,167)" stroke-width="1" opacity="1" d="M 103.5 124 L 102.5 126 L 103.5 124 Z " /><path fill="rgb(178,186,167)" stroke="rgb(178,186,167)" stroke-width="1" opacity="1" d="M 56.5 129 L 54.5 132 L 56.5 129 Z " /><path fill="rgb(178,186,167)" stroke="rgb(178,186,167)" stroke-width="1" opacity="1" d="M 105.5 129 L 111 129.5 L 105.5 130 L 105.5 129 Z " /><path fill="rgb(178,186,167)" stroke="rgb(178,186,167)" stroke-width="1" opacity="1" d="M 69.5 132 L 68.5 134 L 69.5 132 Z " /><path fill="rgb(178,186,167)" stroke="rgb(178,186,167)" stroke-width="1" opacity="1" d="M 52.5 134 L 58 137.5 L 56.5 138 L 52.5 134 Z " /><path fill="rgb(178,186,167)" stroke="rgb(178,186,167)" stroke-width="1" opacity="1" d="M 162.5 139 Q 164.8 138.3 164 140.5 L 166.5 144 L 161.5 143 L 154.5 146 L 150.5 146 L 148 148.5 Q 148.9 151.9 143.5 150 L 113.5 158 L 113.5 157 L 125.5 153 L 127 153.5 Q 126.3 151.3 128.5 152 L 141.5 146 L 156.5 144 L 162.5 139 Z " /><path fill="rgb(178,186,167)" stroke="rgb(178,186,167)" stroke-width="1" opacity="1" d="M 44.5 142 L 45 146.5 L 51.5 153 L 65.5 159 L 70 159 L 67 167.5 L 66.5 173 L 64 167.5 L 52.5 156 L 37 147.5 Q 42.9 146.9 44.5 142 Z " /><path fill="rgb(178,186,167)" stroke="rgb(178,186,167)" stroke-width="1" opacity="1" d="M 169.5 149 L 170 150.5 L 168 151.5 L 169.5 149 Z " /><path fill="rgb(178,186,167)" stroke="rgb(178,186,167)" stroke-width="1" opacity="1" d="M 152.5 150 L 165 150.5 L 152.5 151 L 152.5 150 Z " /><path fill="rgb(178,186,167)" stroke="rgb(178,186,167)" stroke-width="1" opacity="1" d="M 118.5 163 Q 126.5 161.5 129 165.5 Q 124.5 170 116 170.5 L 116.5 172 L 112.5 174 L 113 172.5 Q 113.8 170.3 111.5 171 L 108.5 172 L 109 170.5 L 113.5 165 L 118.5 163 Z " /><path fill="rgb(178,186,167)" stroke="rgb(178,186,167)" stroke-width="1" opacity="1" d="M 135.5 171 L 145 179.5 L 148 185.5 L 142.5 200 L 134.5 194 L 131 193.5 L 136 190.5 L 136 185.5 Q 139.8 184.8 139 179.5 L 135.5 171 Z " /><path fill="rgb(178,186,167)" stroke="rgb(178,186,167)" stroke-width="1" opacity="1" d="M 119.5 174 L 121.5 177 L 119.5 174 Z " /><path fill="rgb(178,186,167)" stroke="rgb(178,186,167)" stroke-width="1" opacity="1" d="M 125.5 174 L 129 175.5 Q 129.8 182.8 125.5 185 L 123 176.5 L 125.5 174 Z " /><path fill="rgb(178,186,167)" stroke="rgb(178,186,167)" stroke-width="1" opacity="1" d="M 112.5 178 L 117 184.5 L 111 187.5 L 110.5 189 L 110 187.5 Q 112.7 185.8 111 179.5 L 112.5 178 Z " /><path fill="rgb(178,186,167)" stroke="rgb(178,186,167)" stroke-width="1" opacity="1" d="M 105.5 179 L 106 187.5 L 105 187.5 L 105.5 179 Z " /><path fill="rgb(178,186,167)" stroke="rgb(178,186,167)" stroke-width="1" opacity="1" d="M 90.5 187 Q 92.8 186.3 92 188.5 L 98 199.5 L 88.5 200 Q 85.3 198.3 87 191.5 L 90.5 187 Z " /><path fill="rgb(178,186,167)" stroke="rgb(178,186,167)" stroke-width="1" opacity="1" d="M 64.5 188 L 66 190.5 L 66 200 L 60.5 200 L 60 198.5 L 64.5 188 Z " /><path fill="rgb(178,186,167)" stroke="rgb(178,186,167)" stroke-width="1" opacity="1" d="M 110.5 190 L 111.5 192 L 110.5 190 Z " /><path fill="rgb(178,186,167)" stroke="rgb(178,186,167)" stroke-width="1" opacity="1" d="M 77.5 193 L 80 194.5 Q 82.5 202.8 75 200 Q 73.8 194.5 77.5 193 Z " /><path fill="rgb(178,186,167)" stroke="rgb(178,186,167)" stroke-width="1" opacity="1" d="M 122.5 197 L 126 199.5 L 120.5 200 L 120.5 199 Q 123 199.7 122.5 197 Z " /><path fill="rgb(221,235,227)" stroke="rgb(221,235,227)" stroke-width="1" opacity="1" d="M 125.5 33 L 128 33.5 L 125.5 34 L 125.5 33 Z " /><path fill="rgb(221,235,227)" stroke="rgb(221,235,227)" stroke-width="1" opacity="1" d="M 130.5 33 L 131 37.5 L 129.5 41 L 129 38.5 L 130.5 33 Z " /><path fill="rgb(221,235,227)" stroke="rgb(221,235,227)" stroke-width="1" opacity="1" d="M 119.5 34 Q 125.3 32.3 124 36 L 104 46.5 L 107 57 L 111 57.5 L 106.5 59 L 96.5 51 L 91 51 L 90 54.5 L 91 57 L 100 62.5 L 98.5 63 L 90 56.5 L 88.5 54 L 84.5 55 L 72.5 51 L 59 42.5 L 60.5 42 L 83.5 53 L 119.5 34 Z " /><path fill="rgb(221,235,227)" stroke="rgb(221,235,227)" stroke-width="1" opacity="1" d="M 131.5 50 L 133.5 53 L 131.5 50 Z " /><path fill="rgb(221,235,227)" stroke="rgb(221,235,227)" stroke-width="1" opacity="1" d="M 118.5 57 L 121 58.5 L 122 61.5 L 121 64 L 117.5 65 L 117.5 64 L 121 61.5 L 120 58 L 118.5 57 Z " /><path fill="rgb(221,235,227)" stroke="rgb(221,235,227)" stroke-width="1" opacity="1" d="M 51.5 59 L 52 64.5 L 43.5 68 L 30.5 70 L 31.5 68 L 51 62 L 51.5 59 Z " /><path fill="rgb(221,235,227)" stroke="rgb(221,235,227)" stroke-width="1" opacity="1" d="M 100.5 64 L 104.5 66 L 109.5 65 L 109.5 66 L 102.5 67 L 100.5 64 Z " /><path fill="rgb(221,235,227)" stroke="rgb(221,235,227)" stroke-width="1" opacity="1" d="M 166.5 64 L 165.5 66 L 166.5 64 Z " /><path fill="rgb(221,235,227)" stroke="rgb(221,235,227)" stroke-width="1" opacity="1" d="M 161.5 67 L 160.5 69 L 153.5 72 L 153.5 71 L 161.5 67 Z " /><path fill="rgb(221,235,227)" stroke="rgb(221,235,227)" stroke-width="1" opacity="1" d="M 24.5 73 L 38 79.5 L 35.5 80 L 25.5 75 L 24.5 73 Z " /><path fill="rgb(221,235,227)" stroke="rgb(221,235,227)" stroke-width="1" opacity="1" d="M 149.5 73 L 149 74.5 L 158 85.5 L 151 79.5 L 148 74.5 L 149.5 73 Z " /><path fill="rgb(221,235,227)" stroke="rgb(221,235,227)" stroke-width="1" opacity="1" d="M 42.5 80 Q 45 81 44 85.5 L 43 85.5 L 42.5 80 Z " /><path fill="rgb(221,235,227)" stroke="rgb(221,235,227)" stroke-width="1" opacity="1" d="M 129.5 87 L 136 87.5 L 129 88 L 128.5 92 L 128 88.5 L 129.5 87 Z " /><path fill="rgb(221,235,227)" stroke="rgb(221,235,227)" stroke-width="1" opacity="1" d="M 158.5 87 Q 160.8 86.3 160 88.5 L 160.5 90 L 158.5 87 Z " /><path fill="rgb(221,235,227)" stroke="rgb(221,235,227)" stroke-width="1" opacity="1" d="M 138.5 88 L 147 88.5 L 138.5 89 L 138.5 88 Z " /><path fill="rgb(221,235,227)" stroke="rgb(221,235,227)" stroke-width="1" opacity="1" d="M 41.5 89 L 40.5 91 L 41.5 89 Z " /><path fill="rgb(221,235,227)" stroke="rgb(221,235,227)" stroke-width="1" opacity="1" d="M 150.5 89 L 158 89.5 L 150.5 90 L 150.5 89 Z " /><path fill="rgb(221,235,227)" stroke="rgb(221,235,227)" stroke-width="1" opacity="1" d="M 92.5 90 L 95 90.5 L 91 93.5 Q 87.6 99.8 89 110 L 84 108.5 L 85.5 108 Q 86.8 110.3 88 107.5 Q 86.8 95.3 92.5 90 Z " /><path fill="rgb(221,235,227)" stroke="rgb(221,235,227)" stroke-width="1" opacity="1" d="M 56.5 93 L 59 93.5 L 56.5 94 L 56.5 93 Z " /><path fill="rgb(221,235,227)" stroke="rgb(221,235,227)" stroke-width="1" opacity="1" d="M 129.5 93 L 130 97.5 L 128.5 101 L 128 98.5 L 129.5 93 Z " /><path fill="rgb(221,235,227)" stroke="rgb(221,235,227)" stroke-width="1" opacity="1" d="M 53.5 95 L 51.5 98 L 53.5 95 Z " /><path fill="rgb(221,235,227)" stroke="rgb(221,235,227)" stroke-width="1" opacity="1" d="M 113.5 97 L 117 98.5 L 115.5 99 L 113.5 97 Z " /><path fill="rgb(221,235,227)" stroke="rgb(221,235,227)" stroke-width="1" opacity="1" d="M 65.5 98 L 66.5 100 L 65.5 98 Z " /><path fill="rgb(221,235,227)" stroke="rgb(221,235,227)" stroke-width="1" opacity="1" d="M 47.5 99 L 46.5 101 L 39.5 104 L 39.5 103 L 47.5 99 Z " /><path fill="rgb(221,235,227)" stroke="rgb(221,235,227)" stroke-width="1" opacity="1" d="M 118.5 99 L 130 102.5 L 125.5 103 L 118.5 100 L 118.5 99 Z " /><path fill="rgb(221,235,227)" stroke="rgb(221,235,227)" stroke-width="1" opacity="1" d="M 68.5 100 L 75 103.5 L 73.5 104 Q 68.9 102.8 68.5 100 Z " /><path fill="rgb(221,235,227)" stroke="rgb(221,235,227)" stroke-width="1" opacity="1" d="M 76.5 104 L 81 106.5 L 79.5 107 L 76.5 104 Z " /><path fill="rgb(221,235,227)" stroke="rgb(221,235,227)" stroke-width="1" opacity="1" d="M 105.5 109 L 106.5 111 Q 103.7 111.7 105.5 109 Z " /><path fill="rgb(221,235,227)" stroke="rgb(221,235,227)" stroke-width="1" opacity="1" d="M 152.5 119 Q 157.3 117.7 156 121 L 150 122 Q 148.9 119.3 151.5 120 L 152.5 119 Z " /><path fill="rgb(221,235,227)" stroke="rgb(221,235,227)" stroke-width="1" opacity="1" d="M 68.5 122 Q 71.1 121.2 70 124.5 L 71 129.5 L 70 129.5 Q 70.5 123.7 68.5 122 Z " /><path fill="rgb(221,235,227)" stroke="rgb(221,235,227)" stroke-width="1" opacity="1" d="M 66.5 123 L 65.5 125 L 66.5 123 Z " /><path fill="rgb(221,235,227)" stroke="rgb(221,235,227)" stroke-width="1" opacity="1" d="M 104.5 124 L 103.5 126 L 104.5 124 Z " /><path fill="rgb(221,235,227)" stroke="rgb(221,235,227)" stroke-width="1" opacity="1" d="M 116.5 125 L 115.5 127 L 116.5 125 Z " /><path fill="rgb(221,235,227)" stroke="rgb(221,235,227)" stroke-width="1" opacity="1" d="M 61.5 126 L 60.5 128 L 61.5 126 Z " /><path fill="rgb(221,235,227)" stroke="rgb(221,235,227)" stroke-width="1" opacity="1" d="M 57.5 129 L 56.5 131 L 57.5 129 Z " /><path fill="rgb(221,235,227)" stroke="rgb(221,235,227)" stroke-width="1" opacity="1" d="M 40.5 131 L 41 133.5 L 40 133.5 L 40.5 131 Z " /><path fill="rgb(221,235,227)" stroke="rgb(221,235,227)" stroke-width="1" opacity="1" d="M 69.5 131 L 68.5 133 L 69.5 131 Z " /><path fill="rgb(221,235,227)" stroke="rgb(221,235,227)" stroke-width="1" opacity="1" d="M 53.5 132 L 52.5 134 L 53.5 132 Z " /><path fill="rgb(221,235,227)" stroke="rgb(221,235,227)" stroke-width="1" opacity="1" d="M 65.5 135 L 64.5 137 L 63 136.5 L 65.5 135 Z " /><path fill="rgb(221,235,227)" stroke="rgb(221,235,227)" stroke-width="1" opacity="1" d="M 58.5 137 L 62 137.5 L 58.5 138 L 58.5 137 Z " /><path fill="rgb(221,235,227)" stroke="rgb(221,235,227)" stroke-width="1" opacity="1" d="M 43.5 142 L 39.5 147 L 43.5 142 Z " /><path fill="rgb(221,235,227)" stroke="rgb(221,235,227)" stroke-width="1" opacity="1" d="M 161.5 143 L 164 143.5 L 161.5 144 L 161.5 143 Z " /><path fill="rgb(221,235,227)" stroke="rgb(221,235,227)" stroke-width="1" opacity="1" d="M 78.5 151 L 84 151.5 L 78.5 152 L 78.5 151 Z " /><path fill="rgb(221,235,227)" stroke="rgb(221,235,227)" stroke-width="1" opacity="1" d="M 128.5 166 L 130 166.5 L 126.5 168 L 126.5 167 L 128.5 166 Z " /><path fill="rgb(221,235,227)" stroke="rgb(221,235,227)" stroke-width="1" opacity="1" d="M 131.5 167 L 132.5 169 L 131.5 167 Z " /><path fill="rgb(221,235,227)" stroke="rgb(221,235,227)" stroke-width="1" opacity="1" d="M 116.5 170 L 120 170.5 L 116.5 171 L 116.5 170 Z " /><path fill="rgb(221,235,227)" stroke="rgb(221,235,227)" stroke-width="1" opacity="1" d="M 111.5 171 Q 113.8 170.3 113 172.5 L 110.5 173 L 108 172.5 L 111.5 171 Z " /><path fill="rgb(221,235,227)" stroke="rgb(221,235,227)" stroke-width="1" opacity="1" d="M 124.5 174 L 123.5 176 L 124.5 174 Z " /><path fill="rgb(221,235,227)" stroke="rgb(221,235,227)" stroke-width="1" opacity="1" d="M 129.5 176 L 130 178.5 L 129 178.5 L 129.5 176 Z " /><path fill="rgb(221,235,227)" stroke="rgb(221,235,227)" stroke-width="1" opacity="1" d="M 135.5 186 L 136 190.5 L 133 192.5 Q 136.1 191 135.5 186 Z " /><path fill="rgb(221,235,227)" stroke="rgb(221,235,227)" stroke-width="1" opacity="1" d="M 110.5 191 L 111.5 193 L 110.5 191 Z " /><path fill="rgb(238,250,246)" stroke="rgb(238,250,246)" stroke-width="1" opacity="1" d="M 128.5 33 Q 131.9 32.1 130 37.5 L 129 38.5 L 129 50 L 131 50.5 L 128 51 Q 126.8 56.5 130.5 58 L 143.5 58 L 154.5 60 L 157.5 62 L 164.5 62 L 166.5 62 Q 169.1 61.3 168 64 L 155 69.5 Q 155.8 71.8 153.5 71 L 148 74.5 L 160 89.5 L 158.5 90 L 157.5 89 L 129.5 87 Q 127.3 87.8 128 91.5 Q 130.3 92.7 129 97.5 L 128 100.5 L 128.5 102 L 120 100 L 119.5 98 L 117.5 99 L 92.5 90 Q 86.6 95.8 88 108 Q 82 108.7 79 106 L 78.5 104 L 76.5 104 L 73 103 L 72.5 101 L 70.5 101 L 60.5 94 L 56.5 93 L 48.5 99 L 47 98.5 Q 47.8 100.8 45.5 100 L 38.5 104 L 36 99.5 L 38 99.5 L 37 96.5 L 44 85.5 L 44 81.5 L 39.5 79 L 37.5 79 L 27.5 75 L 23 71.5 L 29.5 69 L 34.5 70 L 50.5 66 L 52 64.5 L 53 51.5 L 58.5 41 L 60 41.5 Q 57.3 43.3 61.5 45 L 72.5 51 L 84.5 55 L 88.5 54 L 91.5 58 L 100 63 L 102.5 67 L 121 64 L 122 60.5 L 119.5 57 L 107.5 57 L 107 54.5 Q 103.5 52.5 104 46.5 L 124 36 Q 122.7 32.7 127.5 34 L 128.5 33 Z " /><path fill="rgb(238,250,246)" stroke="rgb(238,250,246)" stroke-width="1" opacity="1" d="M 114 35 L 117 35.5 L 114.5 37 L 114 35 Z " /><path fill="rgb(238,250,246)" stroke="rgb(238,250,246)" stroke-width="1" opacity="1" d="M 109.5 38 L 108.5 40 L 107 39.5 L 109.5 38 Z " /><path fill="rgb(238,250,246)" stroke="rgb(238,250,246)" stroke-width="1" opacity="1" d="M 105.5 40 L 104.5 42 L 102.5 43 L 103.5 41 L 105.5 40 Z " /><path fill="rgb(238,250,246)" stroke="rgb(238,250,246)" stroke-width="1" opacity="1" d="M 61.5 42 L 62.5 44 L 61.5 42 Z " /><path fill="rgb(238,250,246)" stroke="rgb(238,250,246)" stroke-width="1" opacity="1" d="M 98.5 44 L 97.5 46 L 98.5 44 Z " /><path fill="rgb(238,250,246)" stroke="rgb(238,250,246)" stroke-width="1" opacity="1" d="M 67.5 45 L 70 46.5 L 68.5 46 L 67.5 45 Z " /><path fill="rgb(238,250,246)" stroke="rgb(238,250,246)" stroke-width="1" opacity="1" d="M 91.5 48 L 90.5 50 L 91.5 48 Z " /><path fill="rgb(238,250,246)" stroke="rgb(238,250,246)" stroke-width="1" opacity="1" d="M 87.5 50 L 89 50.5 L 85.5 52 L 85.5 51 L 87.5 50 Z " /><path fill="rgb(238,250,246)" stroke="rgb(238,250,246)" stroke-width="1" opacity="1" d="M 64.5 113 L 65 115 L 63 114.5 L 64.5 113 Z " /><path fill="rgb(238,250,246)" stroke="rgb(238,250,246)" stroke-width="1" opacity="1" d="M 114.5 126 L 113.5 128 L 114.5 126 Z " /><path fill="rgb(238,250,246)" stroke="rgb(238,250,246)" stroke-width="1" opacity="1" d="M 32.5 134 L 31.5 136 L 30 135.5 L 32.5 134 Z " /><path fill="rgb(238,250,246)" stroke="rgb(238,250,246)" stroke-width="1" opacity="1" d="M 149.5 147 L 151 149.5 L 148 150 L 149.5 147 Z " /><path fill="rgb(238,250,246)" stroke="rgb(238,250,246)" stroke-width="1" opacity="1" d="M 133.5 169 L 134.5 171 L 133.5 169 Z " /><path fill="rgb(238,250,246)" stroke="rgb(238,250,246)" stroke-width="1" opacity="1" d="M 135.5 174 L 136.5 176 L 135.5 174 Z " /><path fill="rgb(238,250,246)" stroke="rgb(238,250,246)" stroke-width="1" opacity="1" d="M 138.5 180 L 139 182.5 L 137 183.5 L 138.5 180 Z " /><path fill="rgb(238,250,246)" stroke="rgb(238,250,246)" stroke-width="1" opacity="1" d="M 119.5 196 L 121 198.5 L 119 199.5 L 120 197.5 L 119.5 196 Z " /><path fill="rgb(8,13,7)" stroke="rgb(8,13,7)" stroke-width="1" opacity="0.996078431372549" d="M 132.5 40 L 134 43.5 L 132 42.5 L 132.5 40 Z " /><path fill="rgb(8,13,7)" stroke="rgb(8,13,7)" stroke-width="1" opacity="0.996078431372549" d="M 84.5 44 L 87 44.5 L 84.5 45 L 84.5 44 Z " /><path fill="rgb(8,13,7)" stroke="rgb(8,13,7)" stroke-width="1" opacity="0.996078431372549" d="M 168.5 90 L 169.5 92 L 168.5 90 Z " /><path fill="rgb(8,13,7)" stroke="rgb(8,13,7)" stroke-width="1" opacity="0.996078431372549" d="M 62.5 99 L 61.5 101 L 62.5 99 Z " /><path fill="rgb(8,13,7)" stroke="rgb(8,13,7)" stroke-width="1" opacity="0.996078431372549" d="M 104.5 101 L 107 101.5 L 96 106 L 94.5 109 Q 91.9 109.8 93 106.5 L 95 106.5 Q 94.2 103.9 97.5 105 L 104.5 101 Z " /><path fill="rgb(8,13,7)" stroke="rgb(8,13,7)" stroke-width="1" opacity="0.996078431372549" d="M 112.5 102 L 120 103.5 L 116.5 104 L 112.5 103 L 112.5 102 Z " /><path fill="rgb(8,13,7)" stroke="rgb(8,13,7)" stroke-width="1" opacity="0.996078431372549" d="M 54.5 104 L 55.5 105 L 63.5 105 L 72 108 L 72.5 110 L 74 109.5 L 73 110.5 L 77 114.5 L 80 120.5 L 78 119.5 L 71.5 110 L 69 110 Q 70.1 107.3 67.5 108 Q 63 104.3 54 106 L 54 110 L 65.5 110 L 66 112.5 L 64.5 112 L 55.5 111 L 54 111.5 L 53.5 110 L 48 110 L 48 108 L 54.5 104 Z " /><path fill="rgb(8,13,7)" stroke="rgb(8,13,7)" stroke-width="1" opacity="0.996078431372549" d="M 108.5 107 L 114 107.5 L 108.5 108 L 108.5 107 Z " /><path fill="rgb(8,13,7)" stroke="rgb(8,13,7)" stroke-width="1" opacity="0.996078431372549" d="M 126.5 107 L 127 109 Q 130.8 107.5 130 110.5 L 132 114.5 L 130 113.5 L 129 110 Q 123.8 108.2 126 115.5 L 125 115.5 L 121 110.5 L 126 110 L 126.5 107 Z " /><path fill="rgb(8,13,7)" stroke="rgb(8,13,7)" stroke-width="1" opacity="0.996078431372549" d="M 32.5 110 L 34 114.5 L 32 115 L 32.5 110 Z " /><path fill="rgb(8,13,7)" stroke="rgb(8,13,7)" stroke-width="1" opacity="0.996078431372549" d="M 45.5 110 L 46 111.5 L 42.5 116 L 43 114.5 L 44 112.5 L 43.5 111 L 45.5 110 Z " /><path fill="rgb(8,13,7)" stroke="rgb(8,13,7)" stroke-width="1" opacity="0.996078431372549" d="M 140.5 112 L 146 115.5 L 140.5 117 L 140.5 116 L 144 114.5 Q 140.2 114.4 140.5 112 Z " /><path fill="rgb(8,13,7)" stroke="rgb(8,13,7)" stroke-width="1" opacity="0.996078431372549" d="M 70.5 116 Q 73.1 115.2 72 118.5 L 73 120.5 L 72 120.5 L 70.5 116 Z " /><path fill="rgb(8,13,7)" stroke="rgb(8,13,7)" stroke-width="1" opacity="0.996078431372549" d="M 126.5 117 L 127 119.5 L 126 119.5 L 126.5 117 Z " /><path fill="rgb(8,13,7)" stroke="rgb(8,13,7)" stroke-width="1" opacity="0.996078431372549" d="M 143.5 117 L 143 118.5 L 142 122 L 144 122.5 L 142.5 123 L 140 121.5 L 143.5 117 Z " /><path fill="rgb(8,13,7)" stroke="rgb(8,13,7)" stroke-width="1" opacity="0.996078431372549" d="M 88.5 119 L 88 120.5 L 86.5 124 L 82 122.5 L 83.5 122 L 85.5 123 L 88.5 119 Z " /><path fill="rgb(8,13,7)" stroke="rgb(8,13,7)" stroke-width="1" opacity="0.996078431372549" d="M 41.5 121 L 42 128 Q 38.3 129.3 40 123.5 L 41.5 121 Z " /><path fill="rgb(8,13,7)" stroke="rgb(8,13,7)" stroke-width="1" opacity="0.996078431372549" d="M 74.5 126 L 75 130.5 L 74 130.5 L 74.5 126 Z " /><path fill="rgb(8,13,7)" stroke="rgb(8,13,7)" stroke-width="1" opacity="0.996078431372549" d="M 126 128 L 131 128 L 131 129.5 L 126.5 136 L 126 128 Z " /><path fill="rgb(8,13,7)" stroke="rgb(8,13,7)" stroke-width="1" opacity="0.996078431372549" d="M 34.5 131 L 33.5 133 L 34.5 131 Z " /><path fill="rgb(8,13,7)" stroke="rgb(8,13,7)" stroke-width="1" opacity="0.996078431372549" d="M 43 134 L 48.5 134 L 54 138.5 L 53.5 140 L 45 140 L 43 134 Z " /><path fill="rgb(8,13,7)" stroke="rgb(8,13,7)" stroke-width="1" opacity="0.996078431372549" d="M 119.5 135 L 121 140.5 L 116.5 142 L 116.5 141 L 118 140.5 L 114 140 Q 112.3 135.5 117.5 137 L 119.5 135 Z " /><path fill="rgb(8,13,7)" stroke="rgb(8,13,7)" stroke-width="1" opacity="0.996078431372549" d="M 77.5 136 L 71.5 143 L 66.5 145 L 66 140 L 73.5 140 L 74 138.5 L 77.5 136 Z " /><path fill="rgb(8,13,7)" stroke="rgb(8,13,7)" stroke-width="1" opacity="0.996078431372549" d="M 61.5 140 L 65 140.5 L 61.5 141 L 61.5 140 Z " /><path fill="rgb(8,13,7)" stroke="rgb(8,13,7)" stroke-width="1" opacity="0.996078431372549" d="M 46.5 142 L 54 145.5 L 52.5 145 L 46.5 143 L 46.5 142 Z " /><path fill="rgb(8,13,7)" stroke="rgb(8,13,7)" stroke-width="1" opacity="0.996078431372549" d="M 30.5 145 L 33 146.5 L 31.5 146 L 30.5 145 Z " /><path fill="rgb(8,13,7)" stroke="rgb(8,13,7)" stroke-width="1" opacity="0.996078431372549" d="M 105.5 151 L 108 151.5 L 105.5 152 L 105.5 151 Z " /><path fill="rgb(8,13,7)" stroke="rgb(8,13,7)" stroke-width="1" opacity="0.996078431372549" d="M 82.5 153 L 85 153.5 L 82.5 154 L 82.5 153 Z " /><path fill="rgb(8,13,7)" stroke="rgb(8,13,7)" stroke-width="1" opacity="0.996078431372549" d="M 92.5 153 L 95 153.5 L 92.5 154 L 92.5 153 Z " /><path fill="rgb(8,13,7)" stroke="rgb(8,13,7)" stroke-width="1" opacity="0.996078431372549" d="M 103.5 158 Q 105.8 157.3 105 159.5 L 103.5 158 Z " /><path fill="rgb(8,13,7)" stroke="rgb(8,13,7)" stroke-width="1" opacity="0.996078431372549" d="M 123.5 159 L 124.5 161 Q 121.7 161.7 123.5 159 Z " /><path fill="rgb(8,13,7)" stroke="rgb(8,13,7)" stroke-width="1" opacity="0.996078431372549" d="M 93.5 160 Q 97.7 158.7 96 163.5 L 97 170 Q 100 168.8 99 172.5 L 96.5 176 L 92 175.5 L 93 171.5 L 91 161 L 93.5 160 Z " /><path fill="rgb(8,13,7)" stroke="rgb(8,13,7)" stroke-width="1" opacity="0.996078431372549" d="M 136.5 170 Q 138.8 169.3 138 171.5 L 136.5 170 Z " /><path fill="rgb(8,13,7)" stroke="rgb(8,13,7)" stroke-width="1" opacity="0.996078431372549" d="M 104.5 174 L 105 177.5 L 104 177.5 L 104.5 174 Z " /><path fill="rgb(8,13,7)" stroke="rgb(8,13,7)" stroke-width="1" opacity="0.996078431372549" d="M 113.5 175 L 114 177.5 L 113 177.5 L 113.5 175 Z " /><path fill="rgb(8,13,7)" stroke="rgb(8,13,7)" stroke-width="1" opacity="0.996078431372549" d="M 65.5 176 L 66 178.5 L 65 178.5 L 65.5 176 Z " /><path fill="rgb(8,13,7)" stroke="rgb(8,13,7)" stroke-width="1" opacity="0.996078431372549" d="M 70.5 176 L 71 180.5 L 70 180.5 L 70.5 176 Z " /><path fill="rgb(8,13,7)" stroke="rgb(8,13,7)" stroke-width="1" opacity="0.996078431372549" d="M 98.5 178 L 99 180.5 L 98 180.5 L 98.5 178 Z " /><path fill="rgb(8,13,7)" stroke="rgb(8,13,7)" stroke-width="1" opacity="0.996078431372549" d="M 95.5 179 L 90.5 185 L 95.5 179 Z " /><path fill="rgb(8,13,7)" stroke="rgb(8,13,7)" stroke-width="1" opacity="0.996078431372549" d="M 87.5 180 L 85.5 183 L 87.5 180 Z " /><path fill="rgb(8,13,7)" stroke="rgb(8,13,7)" stroke-width="1" opacity="0.996078431372549" d="M 84.5 184 L 82.5 187 L 80 186.5 L 84.5 184 Z " /><path fill="rgb(8,13,7)" stroke="rgb(8,13,7)" stroke-width="1" opacity="0.996078431372549" d="M 74.5 185 L 75.5 187 L 74.5 185 Z " /><path fill="rgb(8,13,7)" stroke="rgb(8,13,7)" stroke-width="1" opacity="0.996078431372549" d="M 69.5 187 L 70 191.5 L 69 191.5 L 69.5 187 Z " /><path fill="rgb(8,13,7)" stroke="rgb(8,13,7)" stroke-width="1" opacity="0.996078431372549" d="M 88.5 187 L 88 188.5 L 87.5 190 L 87 188.5 L 88.5 187 Z " /><path fill="rgb(8,13,7)" stroke="rgb(8,13,7)" stroke-width="1" opacity="0.996078431372549" d="M 118.5 194 L 123 196.5 L 121.5 196 Q 117.7 195.8 118.5 194 Z " /><path fill="rgb(0,0,0)" stroke="rgb(0,0,0)" stroke-width="1" opacity="0.38823529411764707" d="M 130.5 23 L 135 23.5 L 130.5 24 L 130.5 23 Z " /><path fill="rgb(0,0,0)" stroke="rgb(0,0,0)" stroke-width="1" opacity="0.38823529411764707" d="M 136.5 24 L 139 25.5 L 137.5 26 L 136.5 24 Z " /><path fill="rgb(0,0,0)" stroke="rgb(0,0,0)" stroke-width="1" opacity="0.38823529411764707" d="M 49.5 27 L 49 28.5 L 48.5 30 L 48 28.5 L 49.5 27 Z " /><path fill="rgb(0,0,0)" stroke="rgb(0,0,0)" stroke-width="1" opacity="0.38823529411764707" d="M 139.5 27 L 140 29.5 L 139 29.5 L 139.5 27 Z " /><path fill="rgb(0,0,0)" stroke="rgb(0,0,0)" stroke-width="1" opacity="0.38823529411764707" d="M 57.5 28 L 58.5 30 L 57.5 28 Z " /><path fill="rgb(0,0,0)" stroke="rgb(0,0,0)" stroke-width="1" opacity="0.38823529411764707" d="M 67.5 33 L 71 34.5 L 69.5 35 L 67.5 33 Z " /><path fill="rgb(0,0,0)" stroke="rgb(0,0,0)" stroke-width="1" opacity="0.38823529411764707" d="M 90.5 34 L 89.5 36 L 87.5 37 L 88.5 35 L 90.5 34 Z " /><path fill="rgb(0,0,0)" stroke="rgb(0,0,0)" stroke-width="1" opacity="0.38823529411764707" d="M 139.5 40 L 140 43.5 L 139 43.5 L 139.5 40 Z " /><path fill="rgb(0,0,0)" stroke="rgb(0,0,0)" stroke-width="1" opacity="0.38823529411764707" d="M 44.5 43 L 45 45.5 L 44 45.5 L 44.5 43 Z " /><path fill="rgb(0,0,0)" stroke="rgb(0,0,0)" stroke-width="1" opacity="0.38823529411764707" d="M 142.5 46 L 145 46.5 L 142.5 47 L 142.5 46 Z " /><path fill="rgb(0,0,0)" stroke="rgb(0,0,0)" stroke-width="1" opacity="0.38823529411764707" d="M 147.5 47 L 150 47.5 L 147.5 48 L 147.5 47 Z " /><path fill="rgb(0,0,0)" stroke="rgb(0,0,0)" stroke-width="1" opacity="0.38823529411764707" d="M 43.5 50 L 44 54.5 L 42 55.5 L 43.5 50 Z " /><path fill="rgb(0,0,0)" stroke="rgb(0,0,0)" stroke-width="1" opacity="0.38823529411764707" d="M 165.5 52 L 168 53.5 L 166.5 53 L 165.5 52 Z " /><path fill="rgb(0,0,0)" stroke="rgb(0,0,0)" stroke-width="1" opacity="0.38823529411764707" d="M 170.5 54 L 171.5 56 L 170.5 54 Z " /><path fill="rgb(0,0,0)" stroke="rgb(0,0,0)" stroke-width="1" opacity="0.38823529411764707" d="M 179.5 64 L 176.5 68 L 179.5 64 Z " /><path fill="rgb(0,0,0)" stroke="rgb(0,0,0)" stroke-width="1" opacity="0.38823529411764707" d="M 12.5 67 L 15 73.5 L 13 72.5 L 12.5 67 Z " /><path fill="rgb(0,0,0)" stroke="rgb(0,0,0)" stroke-width="1" opacity="0.38823529411764707" d="M 174.5 68 L 171.5 72 L 174.5 68 Z " /><path fill="rgb(0,0,0)" stroke="rgb(0,0,0)" stroke-width="1" opacity="0.38823529411764707" d="M 169.5 72 L 166 76.5 L 172 83.5 L 165 77.5 L 169.5 72 Z " /><path fill="rgb(0,0,0)" stroke="rgb(0,0,0)" stroke-width="1" opacity="0.38823529411764707" d="M 15.5 75 L 16.5 77 L 15.5 75 Z " /><path fill="rgb(0,0,0)" stroke="rgb(0,0,0)" stroke-width="1" opacity="0.38823529411764707" d="M 19.5 81 L 20.5 83 L 19.5 81 Z " /><path fill="rgb(0,0,0)" stroke="rgb(0,0,0)" stroke-width="1" opacity="0.38823529411764707" d="M 21.5 84 L 22.5 86 L 21.5 84 Z " /><path fill="rgb(0,0,0)" stroke="rgb(0,0,0)" stroke-width="1" opacity="0.38823529411764707" d="M 172.5 85 L 175.5 89 L 172.5 85 Z " /><path fill="rgb(0,0,0)" stroke="rgb(0,0,0)" stroke-width="1" opacity="0.38823529411764707" d="M 23.5 87 L 30 94.5 L 29 94.5 L 23.5 87 Z " /><path fill="rgb(0,0,0)" stroke="rgb(0,0,0)" stroke-width="1" opacity="0.38823529411764707" d="M 183.5 99 Q 186 100 185 104.5 L 184 104.5 L 183.5 99 Z " /><path fill="rgb(0,0,0)" stroke="rgb(0,0,0)" stroke-width="1" opacity="0.38823529411764707" d="M 182.5 106 L 181.5 108 L 182.5 106 Z " /><path fill="rgb(0,0,0)" stroke="rgb(0,0,0)" stroke-width="1" opacity="0.38823529411764707" d="M 175.5 110 L 173.5 113 L 175.5 110 Z " /><path fill="rgb(0,0,0)" stroke="rgb(0,0,0)" stroke-width="1" opacity="0.38823529411764707" d="M 170.5 114 L 167 118.5 L 166.5 120 L 166 118.5 L 170.5 114 Z " /><path fill="rgb(0,0,0)" stroke="rgb(0,0,0)" stroke-width="1" opacity="0.38823529411764707" d="M 26.5 120 L 28 122.5 L 26 121.5 L 26.5 120 Z " /><path fill="rgb(0,0,0)" stroke="rgb(0,0,0)" stroke-width="1" opacity="0.38823529411764707" d="M 36.5 120 L 39 120.5 L 36.5 121 L 36.5 120 Z " /><path fill="rgb(0,0,0)" stroke="rgb(0,0,0)" stroke-width="1" opacity="0.38823529411764707" d="M 167.5 121 L 168 128.5 L 167 128.5 L 167.5 121 Z " /><path fill="rgb(0,0,0)" stroke="rgb(0,0,0)" stroke-width="1" opacity="0.38823529411764707" d="M 30.5 122 L 33 122.5 L 30.5 123 L 30.5 122 Z " /><path fill="rgb(0,0,0)" stroke="rgb(0,0,0)" stroke-width="1" opacity="0.38823529411764707" d="M 24.5 129 L 23.5 131 L 21.5 132 L 22.5 130 L 24.5 129 Z " /><path fill="rgb(0,0,0)" stroke="rgb(0,0,0)" stroke-width="1" opacity="0.38823529411764707" d="M 167.5 130 L 168.5 132 L 167.5 130 Z " /><path fill="rgb(0,0,0)" stroke="rgb(0,0,0)" stroke-width="1" opacity="0.38823529411764707" d="M 19.5 132 L 18.5 134 L 19.5 132 Z " /><path fill="rgb(0,0,0)" stroke="rgb(0,0,0)" stroke-width="1" opacity="0.38823529411764707" d="M 16.5 134 L 15.5 136 L 16.5 134 Z " /><path fill="rgb(0,0,0)" stroke="rgb(0,0,0)" stroke-width="1" opacity="0.38823529411764707" d="M 12.5 137 L 11.5 139 L 12.5 137 Z " /><path fill="rgb(0,0,0)" stroke="rgb(0,0,0)" stroke-width="1" opacity="0.38823529411764707" d="M 12.5 145 L 15 146.5 L 13.5 147 L 12.5 145 Z " /><path fill="rgb(0,0,0)" stroke="rgb(0,0,0)" stroke-width="1" opacity="0.38823529411764707" d="M 176.5 147 L 177 149.5 L 176 149.5 L 176.5 147 Z " /><path fill="rgb(0,0,0)" stroke="rgb(0,0,0)" stroke-width="1" opacity="0.38823529411764707" d="M 177.5 152 L 178 156.5 L 177 156.5 L 177.5 152 Z " /><path fill="rgb(0,0,0)" stroke="rgb(0,0,0)" stroke-width="1" opacity="0.38823529411764707" d="M 39.5 157 L 40.5 159 L 39.5 157 Z " /><path fill="rgb(0,0,0)" stroke="rgb(0,0,0)" stroke-width="1" opacity="0.38823529411764707" d="M 146.5 158 L 150 158.5 L 146.5 159 L 146.5 158 Z " /><path fill="rgb(0,0,0)" stroke="rgb(0,0,0)" stroke-width="1" opacity="0.38823529411764707" d="M 161.5 158 L 167 158.5 L 161.5 159 L 161.5 158 Z " /><path fill="rgb(0,0,0)" stroke="rgb(0,0,0)" stroke-width="1" opacity="0.38823529411764707" d="M 176.5 158 L 175.5 160 L 176.5 158 Z " /><path fill="rgb(0,0,0)" stroke="rgb(0,0,0)" stroke-width="1" opacity="0.38823529411764707" d="M 138.5 159 L 143 159.5 L 138.5 160 L 138.5 159 Z " /><path fill="rgb(0,0,0)" stroke="rgb(0,0,0)" stroke-width="1" opacity="0.38823529411764707" d="M 170.5 159 L 173 159.5 L 170.5 160 L 170.5 159 Z " /><path fill="rgb(0,0,0)" stroke="rgb(0,0,0)" stroke-width="1" opacity="0.38823529411764707" d="M 44.5 160 L 45.5 162 L 44.5 160 Z " /><path fill="rgb(0,0,0)" stroke="rgb(0,0,0)" stroke-width="1" opacity="0.38823529411764707" d="M 135.5 160 L 136.5 162 L 135.5 160 Z " /><path fill="rgb(0,0,0)" stroke="rgb(0,0,0)" stroke-width="1" opacity="0.38823529411764707" d="M 48.5 163 L 49.5 165 L 48.5 163 Z " /><path fill="rgb(0,0,0)" stroke="rgb(0,0,0)" stroke-width="1" opacity="0.38823529411764707" d="M 51.5 165 L 56.5 171 L 51.5 165 Z " /><path fill="rgb(0,0,0)" stroke="rgb(0,0,0)" stroke-width="1" opacity="0.38823529411764707" d="M 142.5 166 L 151.5 176 L 142.5 166 Z " /><path fill="rgb(0,0,0)" stroke="rgb(0,0,0)" stroke-width="1" opacity="0.38823529411764707" d="M 57.5 172 L 59 174.5 L 58 174.5 L 57.5 172 Z " /><path fill="rgb(0,0,0)" stroke="rgb(0,0,0)" stroke-width="1" opacity="0.38823529411764707" d="M 152.5 177 L 153.5 179 L 152.5 177 Z " /><path fill="rgb(0,0,0)" stroke="rgb(0,0,0)" stroke-width="1" opacity="0.996078431372549" d="M 129.5 24 L 132 24.5 L 129.5 25 L 129.5 24 Z " /><path fill="rgb(0,0,0)" stroke="rgb(0,0,0)" stroke-width="1" opacity="0.996078431372549" d="M 136.5 25 L 137.5 27 Q 134.7 27.7 136.5 25 Z " /><path fill="rgb(0,0,0)" stroke="rgb(0,0,0)" stroke-width="1" opacity="0.996078431372549" d="M 92.5 34 L 91.5 36 L 92.5 34 Z " /><path fill="rgb(0,0,0)" stroke="rgb(0,0,0)" stroke-width="1" opacity="0.996078431372549" d="M 72 36 L 77 37.5 L 72 38 L 72 36 Z " /><path fill="rgb(0,0,0)" stroke="rgb(0,0,0)" stroke-width="1" opacity="0.996078431372549" d="M 78 38 L 84 39 L 84 44 L 78 44 L 78 38 Z " /><path fill="rgb(0,0,0)" stroke="rgb(0,0,0)" stroke-width="1" opacity="0.996078431372549" d="M 138.5 41 L 139 46 L 141 46.5 L 138 47 L 138.5 41 Z " /><path fill="rgb(0,0,0)" stroke="rgb(0,0,0)" stroke-width="1" opacity="0.996078431372549" d="M 45.5 43 L 46 46.5 L 45 46.5 L 45.5 43 Z " /><path fill="rgb(0,0,0)" stroke="rgb(0,0,0)" stroke-width="1" opacity="0.996078431372549" d="M 44.5 51 L 45 54.5 L 44 54.5 L 44.5 51 Z " /><path fill="rgb(0,0,0)" stroke="rgb(0,0,0)" stroke-width="1" opacity="0.996078431372549" d="M 162.5 52 L 170 55.5 L 162 56 L 162.5 52 Z " /><path fill="rgb(0,0,0)" stroke="rgb(0,0,0)" stroke-width="1" opacity="0.996078431372549" d="M 39.5 57 L 41 57.5 L 36.5 59 L 36.5 58 L 39.5 57 Z " /><path fill="rgb(0,0,0)" stroke="rgb(0,0,0)" stroke-width="1" opacity="0.996078431372549" d="M 177.5 59 L 180 62.5 L 177.5 66 L 178 64.5 L 177.5 59 Z " /><path fill="rgb(0,0,0)" stroke="rgb(0,0,0)" stroke-width="1" opacity="0.996078431372549" d="M 27.5 61 L 30 61.5 L 27.5 62 L 27.5 61 Z " /><path fill="rgb(0,0,0)" stroke="rgb(0,0,0)" stroke-width="1" opacity="0.996078431372549" d="M 13.5 65 L 14 67.5 L 13 67.5 L 13.5 65 Z " /><path fill="rgb(0,0,0)" stroke="rgb(0,0,0)" stroke-width="1" opacity="0.996078431372549" d="M 166 72 Q 169 71 168 74 Q 165 75 166 72 Z " /><path fill="rgb(0,0,0)" stroke="rgb(0,0,0)" stroke-width="1" opacity="0.996078431372549" d="M 166.5 80 L 167.5 82 Q 164.7 82.7 166.5 80 Z " /><path fill="rgb(0,0,0)" stroke="rgb(0,0,0)" stroke-width="1" opacity="0.996078431372549" d="M 30 92 L 36 92 L 36 97 L 30 98 L 30 104 L 28 104 L 30 92 Z " /><path fill="rgb(0,0,0)" stroke="rgb(0,0,0)" stroke-width="1" opacity="0.996078431372549" d="M 178.5 93 L 179.5 95 L 178.5 93 Z " /><path fill="rgb(0,0,0)" stroke="rgb(0,0,0)" stroke-width="1" opacity="0.996078431372549" d="M 176.5 108 L 178 108.5 L 174.5 111 L 176.5 108 Z " /><path fill="rgb(0,0,0)" stroke="rgb(0,0,0)" stroke-width="1" opacity="0.996078431372549" d="M 172.5 111 L 170.5 114 L 172.5 111 Z " /><path fill="rgb(0,0,0)" stroke="rgb(0,0,0)" stroke-width="1" opacity="0.996078431372549" d="M 30 116 L 36 116 L 36 119.5 L 30 122 L 30 116 Z " /><path fill="rgb(0,0,0)" stroke="rgb(0,0,0)" stroke-width="1" opacity="0.996078431372549" d="M 166.5 122 L 167 128.5 L 166 128.5 L 166.5 122 Z " /><path fill="rgb(0,0,0)" stroke="rgb(0,0,0)" stroke-width="1" opacity="0.996078431372549" d="M 166.5 131 L 168.5 134 L 166.5 131 Z " /><path fill="rgb(0,0,0)" stroke="rgb(0,0,0)" stroke-width="1" opacity="0.996078431372549" d="M 16.5 135 L 13.5 139 L 16.5 135 Z " /><path fill="rgb(0,0,0)" stroke="rgb(0,0,0)" stroke-width="1" opacity="0.996078431372549" d="M 169.5 135 L 170.5 137 L 169.5 135 Z " /><path fill="rgb(0,0,0)" stroke="rgb(0,0,0)" stroke-width="1" opacity="0.996078431372549" d="M 11.5 140 L 12 143.5 L 11 143.5 L 11.5 140 Z " /><path fill="rgb(0,0,0)" stroke="rgb(0,0,0)" stroke-width="1" opacity="0.996078431372549" d="M 24 146 L 30 146 L 30 151.5 L 28.5 151 L 24 150 L 24 146 Z " /><path fill="rgb(0,0,0)" stroke="rgb(0,0,0)" stroke-width="1" opacity="0.996078431372549" d="M 42.5 158 Q 49.8 155.4 48 161.5 L 46.5 161 Q 41.8 160.2 42.5 158 Z " /><path fill="rgb(0,0,0)" stroke="rgb(0,0,0)" stroke-width="1" opacity="0.996078431372549" d="M 170.5 158 L 174 158.5 L 170.5 159 L 170.5 158 Z " /><path fill="rgb(0,0,0)" stroke="rgb(0,0,0)" stroke-width="1" opacity="0.996078431372549" d="M 54.5 167 L 56.5 170 L 54.5 167 Z " /><path fill="rgb(0,0,0)" stroke="rgb(0,0,0)" stroke-width="1" opacity="0.996078431372549" d="M 144.5 169 L 145.5 171 L 144.5 169 Z " /><path fill="rgb(0,0,0)" stroke="rgb(0,0,0)" stroke-width="1" opacity="0.996078431372549" d="M 148.5 173 L 149.5 175 L 148.5 173 Z " /><path fill="rgb(0,0,0)" stroke="rgb(0,0,0)" stroke-width="1" opacity="0.996078431372549" d="M 152.5 179 L 153.5 181 L 152.5 179 Z " /><path fill="rgb(0,0,0)" stroke="rgb(0,0,0)" stroke-width="1" opacity="0.996078431372549" d="M 56 188 L 60 188 L 60 194 L 54 193.5 L 56 188 Z " /><path fill="rgb(84,190,46)" stroke="rgb(84,190,46)" stroke-width="1" opacity="1" d="M 119.5 110 Q 126.7 113.8 126 125.5 L 119.5 135 L 107.5 138 Q 99.2 135.8 95 129.5 L 94 121.5 L 96 115.5 L 98.5 113 Q 103.1 113.6 104.5 111 L 114.5 111 L 117.5 112 L 119.5 110 Z M 115 119 L 104 124 Q 101 125 102 129 L 106 130 L 111 130 L 118 125 Q 121 117 115 119 Z " /><path fill="rgb(84,190,46)" stroke="rgb(84,190,46)" stroke-width="1" opacity="1" d="M 52.5 113 L 52.5 115 L 58.5 114 L 64.5 116 L 66.5 114 L 70 117.5 Q 73.9 121.6 73 130.5 L 67.5 138 Q 63.7 140.7 55.5 139 L 48 132.5 Q 45.7 127.7 47 119.5 L 52.5 113 Z M 68 122 L 57 129 L 52 135 L 57 138 L 63 138 L 69 134 Q 72 131 71 124 L 68 122 Z " /><path fill="rgb(84,190,46)" stroke="rgb(84,190,46)" stroke-width="1" opacity="1" d="M 78.5 161 L 80 161.5 L 78 165.5 L 80.5 169 L 84 167.5 L 86.5 161 Q 90.9 159.5 90 162.5 L 91 163.5 L 92 174.5 L 88 176 L 84.5 182 L 84 178 Q 77.9 179.8 76 176.5 L 74 171.5 L 78.5 161 Z " /><path fill="rgb(0,0,0)" stroke="rgb(0,0,0)" stroke-width="1" opacity="1" d="M 132.5 24 L 136 25 Q 135.3 28.1 138 27.5 L 138 47 L 144.5 47 L 162 52 L 162 56 L 171.5 56 L 178 60.5 L 178 64.5 L 173.5 69 L 168.5 73 L 166 72 L 164 77.5 Q 166.7 78.6 166 82 Q 170.7 81.3 172 85.5 Q 170.9 88.8 173.5 88 L 180 95.5 L 180 98 Q 182.7 96.9 182 99.5 L 184 103.5 L 181.5 107 L 176.5 108 L 170 113.5 Q 170.8 115.8 168.5 115 Q 165.3 115.8 166 120.5 L 166 122.5 L 166 131.5 Q 175.6 139.4 177 155.5 L 174.5 159 L 163.5 157 L 147.5 157 L 134 160.5 L 148 172.5 L 154 181.5 L 155 187.5 L 150 200 L 144 199.5 L 146 196.5 L 149 183.5 L 138 170 L 135.5 170 L 129 164.5 Q 129.8 162.3 127.5 163 L 125 162 L 124 158.5 L 128.5 155 L 139.5 152 L 162.5 151 L 163.5 152 L 171 152 Q 169.1 143.1 163.5 137 L 155.5 143 L 140.5 145 L 133.5 149 L 130.5 149 Q 124.7 153.7 115.5 155 L 109 160.5 L 106 165.5 L 104 174.5 L 104 190.5 L 109 199.5 L 102 200 L 98 189.5 L 98 181.5 L 99 178 L 96.5 178 L 90 184.5 L 84.5 193 L 81.5 194 L 74.5 185 L 74 200 L 68 200 L 68 196.5 L 70 191.5 L 71 176.5 Q 67.1 174.9 68 168.5 L 72 159 L 54.5 154 L 48 148.5 L 46 143 L 67.5 152 L 81.5 153 L 82.5 154 L 94.5 154 L 101.5 152 L 107.5 152 L 125.5 145 L 128.5 145 L 140.5 138 L 152.5 138 L 160 130.5 L 161 123.5 L 157.5 118 L 152.5 117 L 144.5 122 L 142 122 L 144 116 L 146 115.5 L 145.5 114 L 148.5 114 L 154.5 111 Q 156.8 113.7 162.5 113 Q 167.8 106.3 176 102.5 L 168.5 90 L 166 88.5 L 164 84 L 156 78.5 Q 156.5 73 160.5 71 L 164 70 L 167.5 65 L 170 63.5 Q 171.3 59.8 167.5 61 Q 154.3 53.7 135.5 52 L 133 49.5 Q 131.7 44.7 134 43.5 Q 130.5 39.3 132 31 L 108.5 35 L 90.5 43 L 84.5 44 L 82.5 46 L 53 36 L 50 48.5 L 50 59.5 L 47.5 62 L 43.5 62 L 29.5 68 L 22 69 L 22 72.5 L 25 79 Q 27.7 77.9 27 80.5 L 31.5 86 L 34 87.5 L 36.5 91 Q 38.8 90.3 38 92.5 L 36.5 95 L 36 92 Q 26.3 94 24 87.5 L 13 68.5 L 14 65 L 24.5 62 L 29.5 62 L 34.5 59 L 38.5 59 L 44 57 L 48 31 Q 51.3 32.1 50 28 L 55.5 28 L 64.5 34 L 72 36 L 72 38 L 78 38 L 78 44 L 84 44 L 84 39 L 85.5 39 L 95.5 33 L 107.5 29 L 123.5 27 L 126.5 25 Q 131.3 26.2 132.5 24 Z M 104 158 L 93 161 L 90 160 L 77 160 L 74 169 Q 73 181 80 186 Q 79 188 83 187 L 88 180 Q 89 175 97 176 L 105 160 Q 106 157 104 158 Z " /><path fill="rgb(0,0,0)" stroke="rgb(0,0,0)" stroke-width="1" opacity="1" d="M 96 96 L 107 100.5 L 95 105 L 94.5 107 L 94 101.5 L 96 96 Z " /><path fill="rgb(0,0,0)" stroke="rgb(0,0,0)" stroke-width="1" opacity="1" d="M 34.5 97 L 35 100.5 L 33 105.5 L 32 115 L 36.5 113 L 43.5 112 L 43 113.5 L 41 119 L 36 119 L 35.5 116 L 30 116 L 30 122 L 28 122 Q 25.7 118.4 27 109.5 L 28 104 L 30 104 L 30 98 L 33.5 98 L 34.5 97 Z " /><path fill="rgb(0,0,0)" stroke="rgb(0,0,0)" stroke-width="1" opacity="1" d="M 62.5 100 L 71 107.5 L 69.5 108 Q 64.8 103.8 55 104.5 L 62.5 100 Z " /><path fill="rgb(0,0,0)" stroke="rgb(0,0,0)" stroke-width="1" opacity="1" d="M 72.5 109 L 88 118.5 L 85.5 123 Q 80.8 122.8 79 119.5 Q 76.9 112.3 72.5 109 Z " /><path fill="rgb(0,0,0)" stroke="rgb(0,0,0)" stroke-width="1" opacity="1" d="M 130.5 110 Q 138.8 110.7 144 114.5 Q 141.1 118.1 133.5 117 L 130.5 110 Z " /><path fill="rgb(0,0,0)" stroke="rgb(0,0,0)" stroke-width="1" opacity="1" d="M 39.5 124 L 41 128.5 L 21 139 Q 19.3 143.1 23.5 142 L 49.5 155 L 63 167.5 L 66 175.5 L 59 200 L 52 199.5 L 54 194 L 60 194 L 60 188 Q 56.2 189.5 57 186.5 L 60 174.5 L 54.5 167 L 50 163.5 Q 50.7 160.9 48 162 L 48 158 L 41.5 158 L 30 152 L 30 146 L 24 146 Q 25.5 149.8 22.5 149 Q 18.5 145.3 12 145 L 12 139.5 L 13.5 139 Q 17.5 131.9 26 131 Q 24.8 128 28.5 129 L 32.5 126 L 39.5 124 Z " /><path fill="rgb(0,0,0)" stroke="rgb(0,0,0)" stroke-width="1" opacity="1" d="M 114 173 Q 117.8 172 119 174.5 L 120 178 L 122 178 Q 120.7 182.1 124 181 L 124 185.5 L 123 191 L 141 199.5 L 129.5 200 L 119.5 194 L 117 194 L 116.5 192 L 115 192.5 L 117 182.5 Q 112.3 180.5 114 173 Z " /><path fill="rgb(26,42,19)" stroke="rgb(26,42,19)" stroke-width="1" opacity="0.996078431372549" d="M 129.5 31 L 132 31.5 L 129.5 32 L 129.5 31 Z " /><path fill="rgb(26,42,19)" stroke="rgb(26,42,19)" stroke-width="1" opacity="0.996078431372549" d="M 123.5 32 L 126 32.5 L 123.5 33 L 123.5 32 Z " /><path fill="rgb(26,42,19)" stroke="rgb(26,42,19)" stroke-width="1" opacity="0.996078431372549" d="M 50.5 50 L 51 59.5 L 48 61.5 L 50 59.5 L 50.5 50 Z " /><path fill="rgb(26,42,19)" stroke="rgb(26,42,19)" stroke-width="1" opacity="0.996078431372549" d="M 133.5 50 L 134.5 52 L 133.5 50 Z " /><path fill="rgb(26,42,19)" stroke="rgb(26,42,19)" stroke-width="1" opacity="0.996078431372549" d="M 164.5 67 L 161.5 71 L 164.5 67 Z " /><path fill="rgb(26,42,19)" stroke="rgb(26,42,19)" stroke-width="1" opacity="0.996078431372549" d="M 156.5 79 L 157.5 81 L 156.5 79 Z " /><path fill="rgb(26,42,19)" stroke="rgb(26,42,19)" stroke-width="1" opacity="0.996078431372549" d="M 159.5 81 L 165.5 88 L 159.5 81 Z " /><path fill="rgb(26,42,19)" stroke="rgb(26,42,19)" stroke-width="1" opacity="0.996078431372549" d="M 29.5 83 L 31.5 86 L 29.5 83 Z " /><path fill="rgb(26,42,19)" stroke="rgb(26,42,19)" stroke-width="1" opacity="0.996078431372549" d="M 34.5 88 L 39 91.5 L 37.5 91 L 34.5 88 Z " /><path fill="rgb(26,42,19)" stroke="rgb(26,42,19)" stroke-width="1" opacity="0.996078431372549" d="M 168.5 91 L 169.5 93 L 168.5 91 Z " /><path fill="rgb(26,42,19)" stroke="rgb(26,42,19)" stroke-width="1" opacity="0.996078431372549" d="M 61.5 99 L 59.5 102 L 57.5 103 L 59.5 100 L 61.5 99 Z " /><path fill="rgb(26,42,19)" stroke="rgb(26,42,19)" stroke-width="1" opacity="0.996078431372549" d="M 63.5 99 L 64.5 101 L 63.5 99 Z " /><path fill="rgb(26,42,19)" stroke="rgb(26,42,19)" stroke-width="1" opacity="0.996078431372549" d="M 107.5 100 L 108 102 L 114.5 101 L 114.5 102 L 112 102.5 L 119.5 104 L 121.5 104 L 126 106.5 L 126 110 Q 129.8 108.5 129 111.5 L 133 116.5 L 133.5 120 L 136 118.5 L 135.5 117 L 138.5 118 L 143.5 116 L 141 119.5 L 140 121.5 L 142 122.5 L 139.5 124 L 138 123.5 Q 138.8 126.1 135.5 125 L 132 127.5 Q 130.6 135.6 124.5 139 L 120 140 L 120 134.5 L 126 126.5 L 127 117.5 L 126 117.5 L 125.5 119 L 123 113.5 L 125 114.5 L 125.5 116 L 126 110 L 121 110.5 L 121.5 112 L 113.5 107 L 108.5 107 Q 100.5 109.5 96 115.5 L 94 120.5 L 94 126.5 Q 95.4 132.6 100.5 135 L 107.5 138 L 111.5 138 L 114 137 Q 112.3 141.5 117.5 140 L 120 141.5 L 118.5 142 L 116.5 141 L 116.5 143 L 114.5 142 Q 113.1 144.6 108.5 144 L 98.5 142 L 92.5 139 L 91 139.5 L 92 136.5 L 87.5 130 Q 82.1 129.4 80 131 L 76.5 137 L 74 138.5 L 74.5 140 L 76 139.5 Q 74.8 142.3 73.5 140 L 66 140 L 66 145 L 64.5 145 L 55.5 147 L 52.5 144 L 46 142 L 47 146.5 L 46 146.5 L 45 140 L 53.5 140 L 54 138.5 L 53.5 137 L 55.5 139 L 59.5 139 Q 60.3 141.8 64.5 141 L 64.5 140 L 63 139.5 Q 69.6 138.1 73 133.5 L 73 131.5 Q 74.3 124.7 72 121.5 L 73 119.5 L 70 118.5 L 66 113.5 L 66 110 L 54.5 110 L 54 113 L 52.5 113 L 49 115 Q 45.6 119.2 47 129.5 L 52 136.5 L 48.5 134 Q 43.8 132.8 42.5 135 L 40 129.5 Q 43.8 127.8 42 120.5 L 42 118.5 L 47.5 108 L 48 110 L 54 110 L 54.5 106 L 63.5 106 L 69 108 Q 67.8 111 71.5 110 L 79.5 121 L 81 121.5 L 80 124 L 83.5 123 L 86.5 124 L 89 119.5 L 88 117.5 L 92 109 L 96 107.5 Q 95.3 105.3 97.5 106 L 107 102 L 107.5 100 Z M 71 116 L 71 119 L 72 119 Q 73 115 71 116 Z M 75 126 L 74 131 L 75 131 L 75 126 Z M 126 128 L 127 136 L 131 130 L 131 128 L 126 128 Z " /><path fill="rgb(26,42,19)" stroke="rgb(26,42,19)" stroke-width="1" opacity="0.996078431372549" d="M 174.5 100 L 176 102.5 L 175 102.5 L 174.5 100 Z " /><path fill="rgb(26,42,19)" stroke="rgb(26,42,19)" stroke-width="1" opacity="0.996078431372549" d="M 93.5 103 L 94 105.5 L 93 105.5 L 93.5 103 Z " /><path fill="rgb(26,42,19)" stroke="rgb(26,42,19)" stroke-width="1" opacity="0.996078431372549" d="M 170.5 105 L 169.5 107 L 170.5 105 Z " /><path fill="rgb(26,42,19)" stroke="rgb(26,42,19)" stroke-width="1" opacity="0.996078431372549" d="M 33.5 106 L 34 109.5 L 33 109.5 L 33.5 106 Z " /><path fill="rgb(26,42,19)" stroke="rgb(26,42,19)" stroke-width="1" opacity="0.996078431372549" d="M 50.5 106 L 49.5 108 L 50.5 106 Z " /><path fill="rgb(26,42,19)" stroke="rgb(26,42,19)" stroke-width="1" opacity="0.996078431372549" d="M 70.5 106 L 72.5 109 L 70.5 106 Z " /><path fill="rgb(26,42,19)" stroke="rgb(26,42,19)" stroke-width="1" opacity="0.996078431372549" d="M 74.5 109 L 75.5 111 L 74.5 109 Z " /><path fill="rgb(26,42,19)" stroke="rgb(26,42,19)" stroke-width="1" opacity="0.996078431372549" d="M 165.5 109 L 162.5 113 L 165.5 109 Z " /><path fill="rgb(26,42,19)" stroke="rgb(26,42,19)" stroke-width="1" opacity="0.996078431372549" d="M 150.5 111 L 152 111.5 L 149.5 113 L 150.5 111 Z " /><path fill="rgb(26,42,19)" stroke="rgb(26,42,19)" stroke-width="1" opacity="0.996078431372549" d="M 144.5 113 L 148 113.5 L 144.5 114 L 144.5 113 Z " /><path fill="rgb(26,42,19)" stroke="rgb(26,42,19)" stroke-width="1" opacity="0.996078431372549" d="M 157.5 118 L 158.5 120 L 157.5 118 Z " /><path fill="rgb(26,42,19)" stroke="rgb(26,42,19)" stroke-width="1" opacity="0.996078431372549" d="M 145.5 121 L 144.5 123 L 145.5 121 Z " /><path fill="rgb(26,42,19)" stroke="rgb(26,42,19)" stroke-width="1" opacity="0.996078431372549" d="M 160.5 124 L 161 126.5 L 160 126.5 L 160.5 124 Z " /><path fill="rgb(26,42,19)" stroke="rgb(26,42,19)" stroke-width="1" opacity="0.996078431372549" d="M 158.5 131 L 157.5 133 L 158.5 131 Z " /><path fill="rgb(26,42,19)" stroke="rgb(26,42,19)" stroke-width="1" opacity="0.996078431372549" d="M 154.5 135 L 153.5 137 L 154.5 135 Z " /><path fill="rgb(26,42,19)" stroke="rgb(26,42,19)" stroke-width="1" opacity="0.996078431372549" d="M 144.5 137 L 147 137.5 L 144.5 138 L 144.5 137 Z " /><path fill="rgb(26,42,19)" stroke="rgb(26,42,19)" stroke-width="1" opacity="0.996078431372549" d="M 163.5 137 L 164.5 139 L 163.5 137 Z " /><path fill="rgb(26,42,19)" stroke="rgb(26,42,19)" stroke-width="1" opacity="0.996078431372549" d="M 136.5 139 L 135.5 141 L 136.5 139 Z " /><path fill="rgb(26,42,19)" stroke="rgb(26,42,19)" stroke-width="1" opacity="0.996078431372549" d="M 159.5 140 L 158.5 142 L 159.5 140 Z " /><path fill="rgb(26,42,19)" stroke="rgb(26,42,19)" stroke-width="1" opacity="0.996078431372549" d="M 48.5 149 L 49.5 151 L 48.5 149 Z " /><path fill="rgb(26,42,19)" stroke="rgb(26,42,19)" stroke-width="1" opacity="0.996078431372549" d="M 142.5 151 L 145 151.5 L 142.5 152 L 142.5 151 Z " /><path fill="rgb(26,42,19)" stroke="rgb(26,42,19)" stroke-width="1" opacity="0.996078431372549" d="M 52.5 152 L 53.5 154 L 52.5 152 Z " /><path fill="rgb(26,42,19)" stroke="rgb(26,42,19)" stroke-width="1" opacity="0.996078431372549" d="M 85.5 153 L 92 153.5 L 85.5 154 L 85.5 153 Z " /><path fill="rgb(26,42,19)" stroke="rgb(26,42,19)" stroke-width="1" opacity="0.996078431372549" d="M 126.5 155 L 123 159.5 L 122.5 161 L 122 159.5 L 126.5 155 Z " /><path fill="rgb(26,42,19)" stroke="rgb(26,42,19)" stroke-width="1" opacity="0.996078431372549" d="M 53.5 157 L 61.5 166 L 53.5 157 Z " /><path fill="rgb(26,42,19)" stroke="rgb(26,42,19)" stroke-width="1" opacity="0.996078431372549" d="M 111.5 158 L 111 159.5 L 106.5 170 L 106 167.5 L 111.5 158 Z " /><path fill="rgb(26,42,19)" stroke="rgb(26,42,19)" stroke-width="1" opacity="0.996078431372549" d="M 99.5 159 Q 104.9 157.1 104 160.5 L 100 170 Q 94.8 171.8 97 164.5 L 96 160 L 99.5 159 Z " /><path fill="rgb(26,42,19)" stroke="rgb(26,42,19)" stroke-width="1" opacity="0.996078431372549" d="M 78.5 160 L 89 160.5 L 78.5 161 L 77.5 162 L 78.5 160 Z " /><path fill="rgb(26,42,19)" stroke="rgb(26,42,19)" stroke-width="1" opacity="0.996078431372549" d="M 124.5 161 L 125.5 163 L 124.5 161 Z " /><path fill="rgb(26,42,19)" stroke="rgb(26,42,19)" stroke-width="1" opacity="0.996078431372549" d="M 70.5 162 L 70 163.5 L 69.5 165 L 69 163.5 L 70.5 162 Z " /><path fill="rgb(26,42,19)" stroke="rgb(26,42,19)" stroke-width="1" opacity="0.996078431372549" d="M 91.5 163 L 92 167.5 L 91 167.5 L 91.5 163 Z " /><path fill="rgb(26,42,19)" stroke="rgb(26,42,19)" stroke-width="1" opacity="0.996078431372549" d="M 79 164 L 84 164 L 84 166.5 L 80.5 168 L 79 164 Z " /><path fill="rgb(26,42,19)" stroke="rgb(26,42,19)" stroke-width="1" opacity="0.996078431372549" d="M 93.5 170 L 93 171.5 Q 93.8 176.3 90.5 177 Q 88.3 176.3 89 178.5 L 82.5 186 L 79 184.5 L 74 173.5 L 75 173.5 L 77.5 178 L 84 178 L 84 181.5 L 86 180.5 L 88 176 L 92 174.5 Q 91.3 170.8 93.5 170 Z " /><path fill="rgb(26,42,19)" stroke="rgb(26,42,19)" stroke-width="1" opacity="0.996078431372549" d="M 105.5 171 L 106 175.5 L 105 175.5 L 105.5 171 Z " /><path fill="rgb(26,42,19)" stroke="rgb(26,42,19)" stroke-width="1" opacity="0.996078431372549" d="M 114.5 172 L 117 172.5 L 114 173 L 113.5 175 L 113 173.5 L 114.5 172 Z " /><path fill="rgb(26,42,19)" stroke="rgb(26,42,19)" stroke-width="1" opacity="0.996078431372549" d="M 138.5 172 L 141.5 176 L 138.5 172 Z " /><path fill="rgb(26,42,19)" stroke="rgb(26,42,19)" stroke-width="1" opacity="0.996078431372549" d="M 68.5 174 Q 70.8 174.8 70 178.5 L 69 178.5 L 68.5 174 Z " /><path fill="rgb(26,42,19)" stroke="rgb(26,42,19)" stroke-width="1" opacity="0.996078431372549" d="M 104.5 178 L 105 187.5 L 104 187.5 L 104.5 178 Z " /><path fill="rgb(26,42,19)" stroke="rgb(26,42,19)" stroke-width="1" opacity="0.996078431372549" d="M 65.5 179 L 66 182.5 L 65 182.5 L 65.5 179 Z " /><path fill="rgb(26,42,19)" stroke="rgb(26,42,19)" stroke-width="1" opacity="0.996078431372549" d="M 145.5 179 L 146.5 181 L 145.5 179 Z " /><path fill="rgb(26,42,19)" stroke="rgb(26,42,19)" stroke-width="1" opacity="0.996078431372549" d="M 69.5 181 L 70 186.5 L 69 186.5 L 69.5 181 Z " /><path fill="rgb(26,42,19)" stroke="rgb(26,42,19)" stroke-width="1" opacity="0.996078431372549" d="M 97.5 181 L 98 188.5 L 97 188.5 L 97.5 181 Z " /><path fill="rgb(26,42,19)" stroke="rgb(26,42,19)" stroke-width="1" opacity="0.996078431372549" d="M 91.5 184 L 89.5 187 L 91.5 184 Z " /><path fill="rgb(26,42,19)" stroke="rgb(26,42,19)" stroke-width="1" opacity="0.996078431372549" d="M 74.5 186 L 76.5 189 L 75 188.5 L 74.5 196 L 74.5 186 Z " /><path fill="rgb(26,42,19)" stroke="rgb(26,42,19)" stroke-width="1" opacity="0.996078431372549" d="M 116.5 186 L 115.5 188 L 114 187.5 L 116.5 186 Z " /><path fill="rgb(26,42,19)" stroke="rgb(26,42,19)" stroke-width="1" opacity="0.996078431372549" d="M 68.5 188 L 69 194.5 L 67.5 197 L 67 195.5 L 68.5 188 Z " /><path fill="rgb(26,42,19)" stroke="rgb(26,42,19)" stroke-width="1" opacity="0.996078431372549" d="M 77.5 190 L 80.5 194 L 77.5 190 Z " /><path fill="rgb(26,42,19)" stroke="rgb(26,42,19)" stroke-width="1" opacity="0.996078431372549" d="M 114.5 190 L 115 192.5 L 114 192.5 L 114.5 190 Z " /><path fill="rgb(26,42,19)" stroke="rgb(26,42,19)" stroke-width="1" opacity="0.996078431372549" d="M 86.5 191 L 84.5 194 L 86.5 191 Z " /><path fill="rgb(91,96,84)" stroke="rgb(91,96,84)" stroke-width="1" opacity="1" d="M 126.5 32 L 129 32.5 L 126.5 33 L 126.5 32 Z " /><path fill="rgb(91,96,84)" stroke="rgb(91,96,84)" stroke-width="1" opacity="1" d="M 131.5 32 L 132 39.5 L 131 39.5 L 131.5 32 Z " /><path fill="rgb(91,96,84)" stroke="rgb(91,96,84)" stroke-width="1" opacity="1" d="M 119.5 33 L 123 33.5 L 119.5 34 L 119.5 33 Z " /><path fill="rgb(91,96,84)" stroke="rgb(91,96,84)" stroke-width="1" opacity="1" d="M 114.5 34 L 117 34.5 L 114.5 35 L 114.5 34 Z " /><path fill="rgb(91,96,84)" stroke="rgb(91,96,84)" stroke-width="1" opacity="1" d="M 132.5 44 L 133 49.5 L 132 49.5 L 132.5 44 Z " /><path fill="rgb(91,96,84)" stroke="rgb(91,96,84)" stroke-width="1" opacity="1" d="M 51.5 45 L 52 47.5 L 51 47.5 L 51.5 45 Z " /><path fill="rgb(91,96,84)" stroke="rgb(91,96,84)" stroke-width="1" opacity="1" d="M 135.5 52 L 138 52.5 L 135.5 53 L 135.5 52 Z " /><path fill="rgb(91,96,84)" stroke="rgb(91,96,84)" stroke-width="1" opacity="1" d="M 139.5 53 L 142 53.5 L 139.5 54 L 139.5 53 Z " /><path fill="rgb(91,96,84)" stroke="rgb(91,96,84)" stroke-width="1" opacity="1" d="M 50.5 60 L 49.5 62 L 50.5 60 Z " /><path fill="rgb(91,96,84)" stroke="rgb(91,96,84)" stroke-width="1" opacity="1" d="M 166.5 65 L 165.5 67 L 166.5 65 Z " /><path fill="rgb(91,96,84)" stroke="rgb(91,96,84)" stroke-width="1" opacity="1" d="M 162.5 68 L 158.5 73 L 162.5 68 Z " /><path fill="rgb(91,96,84)" stroke="rgb(91,96,84)" stroke-width="1" opacity="1" d="M 156.5 74 L 156 75.5 L 155.5 79 L 155 75.5 L 156.5 74 Z " /><path fill="rgb(91,96,84)" stroke="rgb(91,96,84)" stroke-width="1" opacity="1" d="M 24.5 75 L 25.5 77 L 24.5 75 Z " /><path fill="rgb(91,96,84)" stroke="rgb(91,96,84)" stroke-width="1" opacity="1" d="M 28.5 81 L 33.5 86 L 38.5 81 Q 42.9 79.5 42 82.5 L 43 85.5 L 38.5 91 L 28.5 81 Z " /><path fill="rgb(91,96,84)" stroke="rgb(91,96,84)" stroke-width="1" opacity="1" d="M 158.5 81 L 160.5 84 L 158.5 81 Z " /><path fill="rgb(91,96,84)" stroke="rgb(91,96,84)" stroke-width="1" opacity="1" d="M 166.5 89 L 167.5 91 L 166.5 89 Z " /><path fill="rgb(91,96,84)" stroke="rgb(91,96,84)" stroke-width="1" opacity="1" d="M 136.5 92 L 141 94.5 L 151.5 110 L 157 110.5 L 150.5 111 L 148.5 113 L 142.5 113 L 142.5 112 L 144 111.5 L 136 101.5 L 134 94.5 L 136.5 92 Z " /><path fill="rgb(91,96,84)" stroke="rgb(91,96,84)" stroke-width="1" opacity="1" d="M 169.5 93 L 170.5 95 L 169.5 93 Z " /><path fill="rgb(91,96,84)" stroke="rgb(91,96,84)" stroke-width="1" opacity="1" d="M 57.5 94 L 64 98.5 Q 58.8 99.3 56.5 103 L 54 96.5 L 57.5 94 Z " /><path fill="rgb(91,96,84)" stroke="rgb(91,96,84)" stroke-width="1" opacity="1" d="M 95.5 95 L 99 95.5 L 95.5 96 L 95.5 95 Z " /><path fill="rgb(91,96,84)" stroke="rgb(91,96,84)" stroke-width="1" opacity="1" d="M 172.5 98 L 173.5 100 L 172.5 98 Z " /><path fill="rgb(91,96,84)" stroke="rgb(91,96,84)" stroke-width="1" opacity="1" d="M 108.5 100 L 114 100.5 L 108.5 101 L 108.5 100 Z " /><path fill="rgb(91,96,84)" stroke="rgb(91,96,84)" stroke-width="1" opacity="1" d="M 65.5 101 L 71 105.5 L 69.5 106 L 65.5 101 Z " /><path fill="rgb(91,96,84)" stroke="rgb(91,96,84)" stroke-width="1" opacity="1" d="M 115.5 101 L 118 101.5 L 115.5 102 L 115.5 101 Z " /><path fill="rgb(91,96,84)" stroke="rgb(91,96,84)" stroke-width="1" opacity="1" d="M 119.5 102 L 124 104.5 L 122.5 104 Q 118.7 103.8 119.5 102 Z " /><path fill="rgb(91,96,84)" stroke="rgb(91,96,84)" stroke-width="1" opacity="1" d="M 174.5 102 L 173.5 104 L 171.5 105 L 172.5 103 L 174.5 102 Z " /><path fill="rgb(91,96,84)" stroke="rgb(91,96,84)" stroke-width="1" opacity="1" d="M 34.5 103 L 35 105.5 L 34 105.5 L 34.5 103 Z " /><path fill="rgb(91,96,84)" stroke="rgb(91,96,84)" stroke-width="1" opacity="1" d="M 54.5 103 L 53.5 105 L 54.5 103 Z " /><path fill="rgb(91,96,84)" stroke="rgb(91,96,84)" stroke-width="1" opacity="1" d="M 125.5 105 L 128.5 109 L 125.5 105 Z " /><path fill="rgb(91,96,84)" stroke="rgb(91,96,84)" stroke-width="1" opacity="1" d="M 49.5 106 L 48.5 108 L 49.5 106 Z " /><path fill="rgb(91,96,84)" stroke="rgb(91,96,84)" stroke-width="1" opacity="1" d="M 92.5 106 L 93 108.5 L 92 108.5 L 92.5 106 Z " /><path fill="rgb(91,96,84)" stroke="rgb(91,96,84)" stroke-width="1" opacity="1" d="M 168.5 106 L 166.5 109 L 168.5 106 Z " /><path fill="rgb(91,96,84)" stroke="rgb(91,96,84)" stroke-width="1" opacity="1" d="M 105.5 108 L 108 108.5 L 105.5 109 L 105.5 108 Z " /><path fill="rgb(91,96,84)" stroke="rgb(91,96,84)" stroke-width="1" opacity="1" d="M 45.5 109 L 44.5 111 L 45.5 109 Z " /><path fill="rgb(91,96,84)" stroke="rgb(91,96,84)" stroke-width="1" opacity="1" d="M 33.5 110 L 35 113.5 L 33 114 L 33.5 110 Z " /><path fill="rgb(91,96,84)" stroke="rgb(91,96,84)" stroke-width="1" opacity="1" d="M 76.5 110 L 77.5 112 L 76.5 110 Z " /><path fill="rgb(91,96,84)" stroke="rgb(91,96,84)" stroke-width="1" opacity="1" d="M 91.5 110 L 91 111.5 L 88.5 117 L 88 115.5 L 91.5 110 Z " /><path fill="rgb(91,96,84)" stroke="rgb(91,96,84)" stroke-width="1" opacity="1" d="M 56.5 111 L 61 111.5 L 56.5 112 L 56.5 111 Z " /><path fill="rgb(91,96,84)" stroke="rgb(91,96,84)" stroke-width="1" opacity="1" d="M 100.5 111 L 99.5 113 L 100.5 111 Z " /><path fill="rgb(91,96,84)" stroke="rgb(91,96,84)" stroke-width="1" opacity="1" d="M 79.5 112 L 80.5 114 L 79.5 112 Z " /><path fill="rgb(91,96,84)" stroke="rgb(91,96,84)" stroke-width="1" opacity="1" d="M 133.5 117 L 136 118.5 L 133.5 120 L 133.5 117 Z " /><path fill="rgb(91,96,84)" stroke="rgb(91,96,84)" stroke-width="1" opacity="1" d="M 156.5 118 Q 161.8 119.8 160 128.5 L 159 128.5 L 159 121.5 L 156.5 118 Z " /><path fill="rgb(91,96,84)" stroke="rgb(91,96,84)" stroke-width="1" opacity="1" d="M 81.5 122 L 82 124 L 80 123.5 L 81.5 122 Z " /><path fill="rgb(91,96,84)" stroke="rgb(91,96,84)" stroke-width="1" opacity="1" d="M 145.5 122 L 144.5 124 L 140.5 124 L 133 128.5 L 130.5 133 L 131 131.5 L 133.5 126 L 145.5 122 Z " /><path fill="rgb(91,96,84)" stroke="rgb(91,96,84)" stroke-width="1" opacity="1" d="M 148.5 123 Q 153.8 121.8 155 124.5 L 155 126.5 L 148.5 133 L 145.5 134 L 143 133 L 143 128.5 L 148.5 123 Z " /><path fill="rgb(91,96,84)" stroke="rgb(91,96,84)" stroke-width="1" opacity="1" d="M 82.5 130 Q 87.8 128.8 89 131.5 L 92 139 L 98 141.5 Q 92.4 147.9 78.5 146 L 77 142.5 L 78.5 141 L 91 139 L 88 131 Q 82.7 130.3 80 133.5 Q 81.1 136.8 78.5 136 L 79 134.5 L 80 131 L 82.5 130 Z " /><path fill="rgb(91,96,84)" stroke="rgb(91,96,84)" stroke-width="1" opacity="1" d="M 156.5 133 L 155.5 135 L 156.5 133 Z " /><path fill="rgb(91,96,84)" stroke="rgb(91,96,84)" stroke-width="1" opacity="1" d="M 129.5 134 L 126.5 138 L 129.5 134 Z " /><path fill="rgb(91,96,84)" stroke="rgb(91,96,84)" stroke-width="1" opacity="1" d="M 153.5 135 L 152.5 137 L 153.5 135 Z " /><path fill="rgb(91,96,84)" stroke="rgb(91,96,84)" stroke-width="1" opacity="1" d="M 77.5 137 L 76.5 139 L 77.5 137 Z " /><path fill="rgb(91,96,84)" stroke="rgb(91,96,84)" stroke-width="1" opacity="1" d="M 108.5 137 L 112 137.5 L 108.5 138 L 108.5 137 Z " /><path fill="rgb(91,96,84)" stroke="rgb(91,96,84)" stroke-width="1" opacity="1" d="M 138.5 137 L 144 137.5 L 137.5 139 L 138.5 137 Z " /><path fill="rgb(91,96,84)" stroke="rgb(91,96,84)" stroke-width="1" opacity="1" d="M 147.5 137 L 150 137.5 L 147.5 138 L 147.5 137 Z " /><path fill="rgb(91,96,84)" stroke="rgb(91,96,84)" stroke-width="1" opacity="1" d="M 162.5 138 L 166 140.5 L 167 142.5 L 164 140.5 Q 164.8 138.3 162.5 139 L 157.5 143 L 157.5 142 L 162.5 138 Z " /><path fill="rgb(91,96,84)" stroke="rgb(91,96,84)" stroke-width="1" opacity="1" d="M 22.5 139 L 21.5 141 L 22.5 139 Z " /><path fill="rgb(91,96,84)" stroke="rgb(91,96,84)" stroke-width="1" opacity="1" d="M 60.5 139 L 63 139.5 L 60.5 140 L 60.5 139 Z " /><path fill="rgb(91,96,84)" stroke="rgb(91,96,84)" stroke-width="1" opacity="1" d="M 123.5 139 L 122.5 141 L 120.5 142 L 121.5 140 L 123.5 139 Z " /><path fill="rgb(91,96,84)" stroke="rgb(91,96,84)" stroke-width="1" opacity="1" d="M 135.5 139 L 134.5 141 L 129.5 143 L 129.5 142 L 135.5 139 Z " /><path fill="rgb(91,96,84)" stroke="rgb(91,96,84)" stroke-width="1" opacity="1" d="M 73.5 141 L 72.5 143 L 73.5 141 Z " /><path fill="rgb(91,96,84)" stroke="rgb(91,96,84)" stroke-width="1" opacity="1" d="M 105.5 143 L 108 143.5 L 105.5 144 L 105.5 143 Z " /><path fill="rgb(91,96,84)" stroke="rgb(91,96,84)" stroke-width="1" opacity="1" d="M 112.5 143 L 115 143.5 L 112.5 144 L 112.5 143 Z " /><path fill="rgb(91,96,84)" stroke="rgb(91,96,84)" stroke-width="1" opacity="1" d="M 150.5 144 L 153 144.5 L 150.5 145 L 150.5 144 Z " /><path fill="rgb(91,96,84)" stroke="rgb(91,96,84)" stroke-width="1" opacity="1" d="M 45.5 145 L 48 148.5 L 45 146.5 L 45.5 145 Z " /><path fill="rgb(91,96,84)" stroke="rgb(91,96,84)" stroke-width="1" opacity="1" d="M 64.5 145 L 67 145.5 L 64.5 146 L 64.5 145 Z " /><path fill="rgb(91,96,84)" stroke="rgb(91,96,84)" stroke-width="1" opacity="1" d="M 121.5 145 L 123 145.5 L 105.5 151 L 105.5 150 L 121.5 145 Z " /><path fill="rgb(91,96,84)" stroke="rgb(91,96,84)" stroke-width="1" opacity="1" d="M 144.5 145 L 148 145.5 L 144.5 146 L 144.5 145 Z " /><path fill="rgb(91,96,84)" stroke="rgb(91,96,84)" stroke-width="1" opacity="1" d="M 41.5 149 L 45 151.5 L 43.5 151 L 41.5 149 Z " /><path fill="rgb(91,96,84)" stroke="rgb(91,96,84)" stroke-width="1" opacity="1" d="M 143.5 150 L 152 150.5 L 143.5 151 L 143.5 150 Z " /><path fill="rgb(91,96,84)" stroke="rgb(91,96,84)" stroke-width="1" opacity="1" d="M 50.5 151 L 51.5 153 L 50.5 151 Z " /><path fill="rgb(91,96,84)" stroke="rgb(91,96,84)" stroke-width="1" opacity="1" d="M 69.5 151 L 72 151.5 L 69.5 152 L 69.5 151 Z " /><path fill="rgb(91,96,84)" stroke="rgb(91,96,84)" stroke-width="1" opacity="1" d="M 98.5 151 L 103 151.5 Q 97.1 154.1 87.5 153 L 87.5 152 L 97.5 152 L 98.5 151 Z " /><path fill="rgb(91,96,84)" stroke="rgb(91,96,84)" stroke-width="1" opacity="1" d="M 138.5 151 L 142 151.5 L 138.5 152 L 138.5 151 Z " /><path fill="rgb(91,96,84)" stroke="rgb(91,96,84)" stroke-width="1" opacity="1" d="M 46.5 152 L 47.5 154 L 46.5 152 Z " /><path fill="rgb(91,96,84)" stroke="rgb(91,96,84)" stroke-width="1" opacity="1" d="M 74.5 152 L 82 152.5 L 74.5 153 L 74.5 152 Z " /><path fill="rgb(91,96,84)" stroke="rgb(91,96,84)" stroke-width="1" opacity="1" d="M 134.5 152 L 137 152.5 L 134.5 153 L 134.5 152 Z " /><path fill="rgb(91,96,84)" stroke="rgb(91,96,84)" stroke-width="1" opacity="1" d="M 49.5 154 L 50.5 156 L 49.5 154 Z " /><path fill="rgb(91,96,84)" stroke="rgb(91,96,84)" stroke-width="1" opacity="1" d="M 124.5 155 L 126 155.5 L 122 161 L 125 162.5 Q 113.3 162.3 109 169.5 L 106.5 175 L 106 170.5 Q 108.2 161.7 113.5 156 L 118.5 157 L 124.5 155 Z " /><path fill="rgb(91,96,84)" stroke="rgb(91,96,84)" stroke-width="1" opacity="1" d="M 70.5 159 L 71 161.5 L 69 162.5 L 70.5 159 Z " /><path fill="rgb(91,96,84)" stroke="rgb(91,96,84)" stroke-width="1" opacity="1" d="M 80.5 161 L 86 161.5 L 84.5 165 L 79 164 L 78.5 166 L 78 164.5 L 80.5 161 Z " /><path fill="rgb(91,96,84)" stroke="rgb(91,96,84)" stroke-width="1" opacity="1" d="M 128.5 164 L 129.5 166 L 128.5 164 Z " /><path fill="rgb(91,96,84)" stroke="rgb(91,96,84)" stroke-width="1" opacity="1" d="M 62.5 166 L 63.5 168 L 62.5 166 Z " /><path fill="rgb(91,96,84)" stroke="rgb(91,96,84)" stroke-width="1" opacity="1" d="M 131.5 166 L 138.5 174 L 131.5 166 Z " /><path fill="rgb(91,96,84)" stroke="rgb(91,96,84)" stroke-width="1" opacity="1" d="M 67.5 167 L 68 169.5 L 67 169.5 L 67.5 167 Z " /><path fill="rgb(91,96,84)" stroke="rgb(91,96,84)" stroke-width="1" opacity="1" d="M 79.5 167 L 82.5 168 L 84 167.5 L 80.5 169 L 79.5 167 Z " /><path fill="rgb(91,96,84)" stroke="rgb(91,96,84)" stroke-width="1" opacity="1" d="M 67.5 172 L 68 173.5 L 67.5 175 Q 70.5 174.1 69 178.5 L 70 180.5 L 66.5 200 L 66 190.5 L 64.5 188 L 63.5 190 L 63 188.5 L 66 182.5 L 66 173.5 L 67.5 172 Z " /><path fill="rgb(91,96,84)" stroke="rgb(91,96,84)" stroke-width="1" opacity="1" d="M 117.5 172 L 118.5 174 L 117.5 172 Z " /><path fill="rgb(91,96,84)" stroke="rgb(91,96,84)" stroke-width="1" opacity="1" d="M 112.5 174 L 113 177.5 L 112 177.5 L 112.5 174 Z " /><path fill="rgb(91,96,84)" stroke="rgb(91,96,84)" stroke-width="1" opacity="1" d="M 105.5 176 L 106 178.5 L 105 178.5 L 105.5 176 Z " /><path fill="rgb(91,96,84)" stroke="rgb(91,96,84)" stroke-width="1" opacity="1" d="M 142.5 176 L 144.5 179 L 142.5 176 Z " /><path fill="rgb(91,96,84)" stroke="rgb(91,96,84)" stroke-width="1" opacity="1" d="M 122.5 177 L 125 181.5 L 124 181.5 L 122.5 177 Z " /><path fill="rgb(91,96,84)" stroke="rgb(91,96,84)" stroke-width="1" opacity="1" d="M 96.5 179 Q 98.8 178.3 98 180.5 Q 95.3 182.2 97 188.5 L 101 200 L 97 198.5 L 92 187 L 89.5 188 L 92 184.5 L 96.5 179 Z " /><path fill="rgb(91,96,84)" stroke="rgb(91,96,84)" stroke-width="1" opacity="1" d="M 114.5 180 L 115.5 182 L 114.5 180 Z " /><path fill="rgb(91,96,84)" stroke="rgb(91,96,84)" stroke-width="1" opacity="1" d="M 145.5 180 L 147.5 183 L 145.5 180 Z " /><path fill="rgb(91,96,84)" stroke="rgb(91,96,84)" stroke-width="1" opacity="1" d="M 116.5 185 L 115.5 187 L 114 187.5 L 115 189.5 L 114 193 Q 111.3 194.1 112 191.5 Q 108.5 190 111 188.5 L 112.5 186 L 116.5 185 Z " /><path fill="rgb(91,96,84)" stroke="rgb(91,96,84)" stroke-width="1" opacity="1" d="M 75.5 188 L 80.5 194 Q 85.5 195 86.5 192 L 88 199.5 L 80 200 Q 81.5 194.6 78.5 193 L 75.5 195 L 75.5 188 Z " /><path fill="rgb(91,96,84)" stroke="rgb(91,96,84)" stroke-width="1" opacity="1" d="M 123.5 188 L 125 190.5 L 123 189.5 L 123.5 188 Z " /><path fill="rgb(91,96,84)" stroke="rgb(91,96,84)" stroke-width="1" opacity="1" d="M 88.5 189 L 87.5 191 L 88.5 189 Z " /><path fill="rgb(91,96,84)" stroke="rgb(91,96,84)" stroke-width="1" opacity="1" d="M 62.5 191 L 63 192.5 L 61.5 195 L 61 193.5 L 62.5 191 Z " /><path fill="rgb(91,96,84)" stroke="rgb(91,96,84)" stroke-width="1" opacity="1" d="M 133.5 194 L 137 196.5 L 134.5 195 L 133.5 194 Z " /><path fill="rgb(91,96,84)" stroke="rgb(91,96,84)" stroke-width="1" opacity="1" d="M 74.5 196 L 75 199.5 L 74 199.5 L 74.5 196 Z " /></svg>