<svg width="200" height="200" version="1.1" xmlns="http://www.w3.org/2000/svg" desc="Created with imagetracer.js version 1.2.6" ><path fill="rgb(0,0,0)" stroke="rgb(0,0,0)" stroke-width="1" opacity="0.01568627450980392" d="M 109.5 19 L 112 19.5 L 106.5 23 L 109.5 19 Z " /><path fill="rgb(0,0,0)" stroke="rgb(0,0,0)" stroke-width="1" opacity="0.01568627450980392" d="M 122.5 19 L 128 23.5 L 123.5 20 L 122.5 19 Z " /><path fill="rgb(0,0,0)" stroke="rgb(0,0,0)" stroke-width="1" opacity="0.01568627450980392" d="M 135.5 31 L 138.5 35 L 135.5 31 Z " /><path fill="rgb(0,0,0)" stroke="rgb(0,0,0)" stroke-width="1" opacity="0.01568627450980392" d="M 104.5 33 L 106 35.5 L 104 36 L 104.5 33 Z " /><path fill="rgb(0,0,0)" stroke="rgb(0,0,0)" stroke-width="1" opacity="0.01568627450980392" d="M 106.5 37 L 112 40.5 L 110.5 41 L 106.5 37 Z " /><path fill="rgb(0,0,0)" stroke="rgb(0,0,0)" stroke-width="1" opacity="0.01568627450980392" d="M 115.5 44 L 117 46.5 L 115 45.5 L 115.5 44 Z " /><path fill="rgb(0,0,0)" stroke="rgb(0,0,0)" stroke-width="1" opacity="0.01568627450980392" d="M 138.5 45 L 138 46.5 L 137.5 48 L 137 46.5 L 138.5 45 Z " /><path fill="rgb(0,0,0)" stroke="rgb(0,0,0)" stroke-width="1" opacity="0.01568627450980392" d="M 119.5 49 L 120.5 51 L 119.5 49 Z " /><path fill="rgb(0,0,0)" stroke="rgb(0,0,0)" stroke-width="1" opacity="0.01568627450980392" d="M 138.5 50 L 139 52.5 L 138 52.5 L 138.5 50 Z " /><path fill="rgb(0,0,0)" stroke="rgb(0,0,0)" stroke-width="1" opacity="0.01568627450980392" d="M 125.5 52 L 129 52.5 L 125.5 53 L 125.5 52 Z " /><path fill="rgb(0,0,0)" stroke="rgb(0,0,0)" stroke-width="1" opacity="0.01568627450980392" d="M 130.5 52 L 131 58.5 L 130 58.5 L 130.5 52 Z " /><path fill="rgb(0,0,0)" stroke="rgb(0,0,0)" stroke-width="1" opacity="0.01568627450980392" d="M 96.5 61 L 94.5 64 L 96.5 61 Z " /><path fill="rgb(0,0,0)" stroke="rgb(0,0,0)" stroke-width="1" opacity="0.01568627450980392" d="M 99.5 61 L 101.5 64 L 99.5 61 Z " /><path fill="rgb(0,0,0)" stroke="rgb(0,0,0)" stroke-width="1" opacity="0.01568627450980392" d="M 29.5 63 L 28.5 65 L 29.5 63 Z " /><path fill="rgb(0,0,0)" stroke="rgb(0,0,0)" stroke-width="1" opacity="0.01568627450980392" d="M 164.5 64 L 171 69.5 L 165.5 65 L 164.5 64 Z " /><path fill="rgb(0,0,0)" stroke="rgb(0,0,0)" stroke-width="1" opacity="0.01568627450980392" d="M 82.5 65 L 86 65.5 L 82.5 66 L 82.5 65 Z " /><path fill="rgb(0,0,0)" stroke="rgb(0,0,0)" stroke-width="1" opacity="0.01568627450980392" d="M 104.5 65 L 112 65.5 L 104.5 66 L 104.5 65 Z " /><path fill="rgb(0,0,0)" stroke="rgb(0,0,0)" stroke-width="1" opacity="0.01568627450980392" d="M 76.5 66 L 79 66.5 L 76.5 67 L 76.5 66 Z " /><path fill="rgb(0,0,0)" stroke="rgb(0,0,0)" stroke-width="1" opacity="0.01568627450980392" d="M 115.5 66 L 118 66.5 L 115.5 67 L 115.5 66 Z " /><path fill="rgb(0,0,0)" stroke="rgb(0,0,0)" stroke-width="1" opacity="0.01568627450980392" d="M 127.5 66 L 127 67.5 L 126.5 69 L 126 67.5 L 127.5 66 Z " /><path fill="rgb(0,0,0)" stroke="rgb(0,0,0)" stroke-width="1" opacity="0.01568627450980392" d="M 136.5 66 L 137 67.5 L 136 72 Q 133.3 70.9 134 73.5 L 133 73.5 L 136.5 66 Z " /><path fill="rgb(0,0,0)" stroke="rgb(0,0,0)" stroke-width="1" opacity="0.01568627450980392" d="M 71.5 67 L 74 67.5 L 69.5 69 L 69.5 68 L 71.5 67 Z " /><path fill="rgb(0,0,0)" stroke="rgb(0,0,0)" stroke-width="1" opacity="0.01568627450980392" d="M 146.5 67 L 150 67.5 L 144.5 69 L 144.5 68 L 146.5 67 Z " /><path fill="rgb(0,0,0)" stroke="rgb(0,0,0)" stroke-width="1" opacity="0.01568627450980392" d="M 161.5 67 L 162 69.5 L 161 69.5 L 161.5 67 Z " /><path fill="rgb(0,0,0)" stroke="rgb(0,0,0)" stroke-width="1" opacity="0.01568627450980392" d="M 23.5 69 L 22.5 71 L 23.5 69 Z " /><path fill="rgb(0,0,0)" stroke="rgb(0,0,0)" stroke-width="1" opacity="0.01568627450980392" d="M 34.5 69 L 35 74.5 L 34 74.5 L 34.5 69 Z " /><path fill="rgb(0,0,0)" stroke="rgb(0,0,0)" stroke-width="1" opacity="0.01568627450980392" d="M 65.5 70 L 64.5 72 L 60 74 Q 58.8 71 62.5 72 L 65.5 70 Z " /><path fill="rgb(0,0,0)" stroke="rgb(0,0,0)" stroke-width="1" opacity="0.01568627450980392" d="M 138.5 71 L 137.5 73 L 138.5 71 Z " /><path fill="rgb(0,0,0)" stroke="rgb(0,0,0)" stroke-width="1" opacity="0.01568627450980392" d="M 151.5 71 L 152 73.5 L 151 73.5 L 151.5 71 Z " /><path fill="rgb(0,0,0)" stroke="rgb(0,0,0)" stroke-width="1" opacity="0.01568627450980392" d="M 171.5 71 L 173.5 74 L 171.5 71 Z " /><path fill="rgb(0,0,0)" stroke="rgb(0,0,0)" stroke-width="1" opacity="0.01568627450980392" d="M 21.5 72 L 20.5 74 L 21.5 72 Z " /><path fill="rgb(0,0,0)" stroke="rgb(0,0,0)" stroke-width="1" opacity="0.01568627450980392" d="M 54.5 72 L 55.5 74 L 54.5 72 Z " /><path fill="rgb(0,0,0)" stroke="rgb(0,0,0)" stroke-width="1" opacity="0.01568627450980392" d="M 19.5 75 L 18.5 77 L 19.5 75 Z " /><path fill="rgb(0,0,0)" stroke="rgb(0,0,0)" stroke-width="1" opacity="0.01568627450980392" d="M 174.5 75 L 175.5 77 L 174.5 75 Z " /><path fill="rgb(0,0,0)" stroke="rgb(0,0,0)" stroke-width="1" opacity="0.01568627450980392" d="M 152.5 77 L 153 81.5 L 152 81.5 L 152.5 77 Z " /><path fill="rgb(0,0,0)" stroke="rgb(0,0,0)" stroke-width="1" opacity="0.01568627450980392" d="M 160.5 78 L 161 82.5 L 160 82.5 L 160.5 78 Z " /><path fill="rgb(0,0,0)" stroke="rgb(0,0,0)" stroke-width="1" opacity="0.01568627450980392" d="M 176.5 78 L 179 81.5 L 177 80.5 L 176.5 78 Z " /><path fill="rgb(0,0,0)" stroke="rgb(0,0,0)" stroke-width="1" opacity="0.01568627450980392" d="M 35.5 80 L 36 84.5 L 35 84.5 L 35.5 80 Z " /><path fill="rgb(0,0,0)" stroke="rgb(0,0,0)" stroke-width="1" opacity="0.01568627450980392" d="M 43.5 80 L 44 82.5 L 43 82.5 L 43.5 80 Z " /><path fill="rgb(0,0,0)" stroke="rgb(0,0,0)" stroke-width="1" opacity="0.01568627450980392" d="M 36.5 86 L 37 92 L 40 92.5 L 37.5 93 Q 34.4 91.4 36.5 86 Z " /><path fill="rgb(0,0,0)" stroke="rgb(0,0,0)" stroke-width="1" opacity="0.01568627450980392" d="M 42.5 87 L 43 91.5 L 42 91.5 L 42.5 87 Z " /><path fill="rgb(0,0,0)" stroke="rgb(0,0,0)" stroke-width="1" opacity="0.01568627450980392" d="M 159.5 87 L 160 91 L 158 90.5 L 159.5 87 Z " /><path fill="rgb(0,0,0)" stroke="rgb(0,0,0)" stroke-width="1" opacity="0.01568627450980392" d="M 153.5 90 L 156 91.5 L 153 92 L 153.5 90 Z " /><path fill="rgb(0,0,0)" stroke="rgb(0,0,0)" stroke-width="1" opacity="0.01568627450980392" d="M 8.5 104 L 9 111.5 L 8 111.5 L 8.5 104 Z " /><path fill="rgb(0,0,0)" stroke="rgb(0,0,0)" stroke-width="1" opacity="0.01568627450980392" d="M 189.5 107 L 190 109.5 L 189 109.5 L 189.5 107 Z " /><path fill="rgb(0,0,0)" stroke="rgb(0,0,0)" stroke-width="1" opacity="0.01568627450980392" d="M 8.5 113 L 9 116 L 11 116.5 L 9.5 117 Q 7 116 8.5 113 Z " /><path fill="rgb(0,0,0)" stroke="rgb(0,0,0)" stroke-width="1" opacity="0.01568627450980392" d="M 21.5 118 L 24 118.5 L 21.5 119 L 21.5 118 Z " /><path fill="rgb(0,0,0)" stroke="rgb(0,0,0)" stroke-width="1" opacity="0.01568627450980392" d="M 26.5 119 L 25.5 121 L 26.5 119 Z " /><path fill="rgb(0,0,0)" stroke="rgb(0,0,0)" stroke-width="1" opacity="0.01568627450980392" d="M 178.5 122 L 180 126.5 L 179 126.5 L 178.5 122 Z " /><path fill="rgb(0,0,0)" stroke="rgb(0,0,0)" stroke-width="1" opacity="0.01568627450980392" d="M 178.5 134 L 171.5 142 L 178.5 134 Z " /><path fill="rgb(0,0,0)" stroke="rgb(0,0,0)" stroke-width="1" opacity="0.01568627450980392" d="M 23.5 142 L 25.5 145 L 23.5 142 Z " /><path fill="rgb(0,0,0)" stroke="rgb(0,0,0)" stroke-width="1" opacity="0.01568627450980392" d="M 173.5 150 L 174 154.5 L 173 154.5 L 173.5 150 Z " /><path fill="rgb(0,0,0)" stroke="rgb(0,0,0)" stroke-width="1" opacity="0.01568627450980392" d="M 172.5 156 L 172 157.5 Q 173.3 161.3 169.5 160 L 172.5 156 Z " /><path fill="rgb(0,0,0)" stroke="rgb(0,0,0)" stroke-width="1" opacity="0.01568627450980392" d="M 29.5 157 L 33.5 162 L 36 163.5 L 34.5 163 L 29 158.5 L 29.5 157 Z " /><path fill="rgb(0,0,0)" stroke="rgb(0,0,0)" stroke-width="1" opacity="0.01568627450980392" d="M 162.5 162 L 164 162.5 L 160.5 164 L 160.5 163 L 162.5 162 Z " /><path fill="rgb(0,0,0)" stroke="rgb(0,0,0)" stroke-width="1" opacity="0.01568627450980392" d="M 157.5 176 L 162 183.5 L 160 182.5 L 157 177.5 L 157.5 176 Z " /><path fill="rgb(0,0,0)" stroke="rgb(0,0,0)" stroke-width="1" opacity="0.01568627450980392" d="M 35.5 177 L 36 178.5 L 34 179.5 L 35.5 177 Z " /><path fill="rgb(0,0,0)" stroke="rgb(0,0,0)" stroke-width="1" opacity="0.01568627450980392" d="M 31.5 184 L 31 185.5 L 30.5 187 L 30 185.5 L 31.5 184 Z " /><path fill="rgb(0,0,0)" stroke="rgb(0,0,0)" stroke-width="1" opacity="0.01568627450980392" d="M 165.5 191 L 169 198.5 L 168 198.5 L 165.5 191 Z " /><path fill="rgb(0,0,0)" stroke="rgb(0,0,0)" stroke-width="1" opacity="0" d="M 0 0 L 200 0 L 200 200 L 169.5 200 L 169 197.5 L 156 173.5 L 156 170.5 L 159.5 164 L 168.5 160 L 172 160 L 174 154.5 L 174 150.5 L 171 142.5 Q 179 138.5 181 128.5 L 177 119.5 L 191 117 Q 186.1 83.3 165.5 64 Q 160.7 62.3 162 66.5 L 161 67.5 L 160 86.5 L 157.5 91 Q 153.8 91.8 153 89.5 L 154 86.5 L 153 85.5 L 152 71.5 L 150 67 L 146.5 67 L 134.5 74 L 134 72 Q 137.3 73.3 136 68.5 L 139 59.5 L 139 50.5 L 138 46.5 L 141 39.5 Q 139.8 33.8 135.5 31 L 129 29 Q 129.1 21.7 123.5 19 L 113.5 18 L 109.5 19 L 106 22.5 L 103 30.5 L 104 36 Q 106.7 34.9 106 37.5 L 115 42.5 L 115 45.5 L 120.5 51 L 128.5 53 L 130 52.5 Q 131.4 64.4 125.5 69 L 117.5 66 L 104.5 65 Q 103.3 67.3 102 64.5 L 99.5 61 Q 94.8 60.3 94 63.5 L 93.5 65 L 82.5 65 L 71.5 67 L 60 72 Q 61.5 75.8 58.5 75 Q 53.5 69.9 46 69 L 44 73.5 L 42 92 Q 34.5 94.8 37 86.5 L 35 79.5 L 34 62 L 29.5 63 L 22 70.5 Q 14.8 80.3 11 93.5 L 8 104.5 L 8 115.5 L 9.5 117 L 26 119.5 Q 19.7 125.7 20 138.5 L 25.5 145 L 31 147.5 Q 27.8 150.8 29 158.5 L 38 165.5 L 39 169.5 L 23.5 200 L 0.5 200 L 0 199.5 L 0 0 Z " /><path fill="rgb(6,5,4)" stroke="rgb(6,5,4)" stroke-width="1" opacity="0.996078431372549" d="M 111.5 32 L 112.5 34 L 111.5 32 Z " /><path fill="rgb(6,5,4)" stroke="rgb(6,5,4)" stroke-width="1" opacity="0.996078431372549" d="M 123.5 37 L 122.5 39 L 123.5 37 Z " /><path fill="rgb(6,5,4)" stroke="rgb(6,5,4)" stroke-width="1" opacity="0.996078431372549" d="M 125.5 45 L 128 45.5 L 125.5 46 L 125.5 45 Z " /><path fill="rgb(6,5,4)" stroke="rgb(6,5,4)" stroke-width="1" opacity="0.996078431372549" d="M 108.5 74 L 110.5 77 L 108.5 74 Z " /><path fill="rgb(6,5,4)" stroke="rgb(6,5,4)" stroke-width="1" opacity="0.996078431372549" d="M 102.5 75 L 105.5 79 L 102.5 75 Z " /><path fill="rgb(6,5,4)" stroke="rgb(6,5,4)" stroke-width="1" opacity="0.996078431372549" d="M 84.5 76 L 82.5 79 L 84.5 76 Z " /><path fill="rgb(6,5,4)" stroke="rgb(6,5,4)" stroke-width="1" opacity="0.996078431372549" d="M 91.5 76 L 88.5 80 L 91.5 76 Z " /><path fill="rgb(6,5,4)" stroke="rgb(6,5,4)" stroke-width="1" opacity="0.996078431372549" d="M 167.5 77 L 168.5 79 L 167.5 77 Z " /><path fill="rgb(6,5,4)" stroke="rgb(6,5,4)" stroke-width="1" opacity="0.996078431372549" d="M 136.5 80 L 135.5 82 L 136.5 80 Z " /><path fill="rgb(6,5,4)" stroke="rgb(6,5,4)" stroke-width="1" opacity="0.996078431372549" d="M 166.5 83 L 167 88.5 L 166 88.5 L 166.5 83 Z " /><path fill="rgb(6,5,4)" stroke="rgb(6,5,4)" stroke-width="1" opacity="0.996078431372549" d="M 77.5 84 L 76.5 86 L 77.5 84 Z " /><path fill="rgb(6,5,4)" stroke="rgb(6,5,4)" stroke-width="1" opacity="0.996078431372549" d="M 83.5 85 L 81.5 88 L 83.5 85 Z " /><path fill="rgb(6,5,4)" stroke="rgb(6,5,4)" stroke-width="1" opacity="0.996078431372549" d="M 146.5 87 L 147 90.5 L 146 90.5 L 146.5 87 Z " /><path fill="rgb(6,5,4)" stroke="rgb(6,5,4)" stroke-width="1" opacity="0.996078431372549" d="M 158.5 97 L 163 97.5 L 158.5 98 L 158.5 97 Z " /><path fill="rgb(6,5,4)" stroke="rgb(6,5,4)" stroke-width="1" opacity="0.996078431372549" d="M 146.5 108 L 147 111.5 L 146 111.5 L 146.5 108 Z " /><path fill="rgb(6,5,4)" stroke="rgb(6,5,4)" stroke-width="1" opacity="0.996078431372549" d="M 151.5 111 L 152 113.5 L 151 113.5 L 151.5 111 Z " /><path fill="rgb(6,5,4)" stroke="rgb(6,5,4)" stroke-width="1" opacity="0.996078431372549" d="M 165.5 118 L 169 118.5 L 165.5 119 L 165.5 118 Z " /><path fill="rgb(6,5,4)" stroke="rgb(6,5,4)" stroke-width="1" opacity="0.996078431372549" d="M 40.5 119 L 43 119.5 L 40.5 120 L 40.5 119 Z " /><path fill="rgb(6,5,4)" stroke="rgb(6,5,4)" stroke-width="1" opacity="0.996078431372549" d="M 169.5 134 L 168.5 136 L 169.5 134 Z " /><path fill="rgb(6,5,4)" stroke="rgb(6,5,4)" stroke-width="1" opacity="0.996078431372549" d="M 140.5 138 L 139.5 140 L 140.5 138 Z " /><path fill="rgb(6,5,4)" stroke="rgb(6,5,4)" stroke-width="1" opacity="0.996078431372549" d="M 141.5 145 L 137.5 150 L 141.5 145 Z " /><path fill="rgb(6,5,4)" stroke="rgb(6,5,4)" stroke-width="1" opacity="0.996078431372549" d="M 67.5 150 L 70 151.5 L 68.5 152 L 67.5 150 Z " /><path fill="rgb(6,5,4)" stroke="rgb(6,5,4)" stroke-width="1" opacity="0.996078431372549" d="M 62.5 154 L 61.5 156 L 62.5 154 Z " /><path fill="rgb(6,5,4)" stroke="rgb(6,5,4)" stroke-width="1" opacity="0.996078431372549" d="M 89.5 156 L 92 156.5 L 89.5 157 L 89.5 156 Z " /><path fill="rgb(6,5,4)" stroke="rgb(6,5,4)" stroke-width="1" opacity="0.996078431372549" d="M 158.5 157 Q 161.5 156.2 160 160 L 156 159.5 L 158.5 157 Z " /><path fill="rgb(6,5,4)" stroke="rgb(6,5,4)" stroke-width="1" opacity="0.996078431372549" d="M 115.5 160 L 118 160.5 L 115.5 161 L 115.5 160 Z " /><path fill="rgb(6,5,4)" stroke="rgb(6,5,4)" stroke-width="1" opacity="0.996078431372549" d="M 62.5 162 L 63.5 164 L 62.5 162 Z " /><path fill="rgb(6,5,4)" stroke="rgb(6,5,4)" stroke-width="1" opacity="0.996078431372549" d="M 133.5 167 L 133 168.5 L 132.5 170 L 132 168.5 L 133.5 167 Z " /><path fill="rgb(6,5,4)" stroke="rgb(6,5,4)" stroke-width="1" opacity="0.996078431372549" d="M 62.5 170 L 64.5 173 L 62.5 170 Z " /><path fill="rgb(6,5,4)" stroke="rgb(6,5,4)" stroke-width="1" opacity="0.996078431372549" d="M 96.5 175 L 100 175.5 L 96.5 176 L 96.5 175 Z " /><path fill="rgb(6,5,4)" stroke="rgb(6,5,4)" stroke-width="1" opacity="0.996078431372549" d="M 56.5 182 L 57.5 184 Q 54.7 184.7 56.5 182 Z " /><path fill="rgb(6,5,4)" stroke="rgb(6,5,4)" stroke-width="1" opacity="0.996078431372549" d="M 134.5 184 L 135.5 186 L 134.5 184 Z " /><path fill="rgb(6,5,4)" stroke="rgb(6,5,4)" stroke-width="1" opacity="0.996078431372549" d="M 136.5 187 L 137.5 189 L 136.5 187 Z " /><path fill="rgb(6,5,4)" stroke="rgb(6,5,4)" stroke-width="1" opacity="0.996078431372549" d="M 36.5 189 L 37.5 191 L 36.5 189 Z " /><path fill="rgb(6,5,4)" stroke="rgb(6,5,4)" stroke-width="1" opacity="0.996078431372549" d="M 129.5 189 L 133 190.5 L 131.5 190 Q 128.5 190.5 129.5 189 Z " /><path fill="rgb(22,16,12)" stroke="rgb(22,16,12)" stroke-width="1" opacity="0.996078431372549" d="M 95.5 72 L 92.5 76 L 95.5 72 Z " /><path fill="rgb(22,16,12)" stroke="rgb(22,16,12)" stroke-width="1" opacity="0.996078431372549" d="M 100.5 73 L 101.5 75 L 100.5 73 Z " /><path fill="rgb(22,16,12)" stroke="rgb(22,16,12)" stroke-width="1" opacity="0.996078431372549" d="M 28.5 78 L 29 80.5 L 28 80.5 L 28.5 78 Z " /><path fill="rgb(22,16,12)" stroke="rgb(22,16,12)" stroke-width="1" opacity="0.996078431372549" d="M 81.5 79 L 79.5 82 L 81.5 79 Z " /><path fill="rgb(22,16,12)" stroke="rgb(22,16,12)" stroke-width="1" opacity="0.996078431372549" d="M 85.5 83 L 84.5 85 L 85.5 83 Z " /><path fill="rgb(22,16,12)" stroke="rgb(22,16,12)" stroke-width="1" opacity="0.996078431372549" d="M 49.5 86 L 50 88.5 L 49 88.5 L 49.5 86 Z " /><path fill="rgb(22,16,12)" stroke="rgb(22,16,12)" stroke-width="1" opacity="0.996078431372549" d="M 166.5 89 L 167 91.5 L 166 91.5 L 166.5 89 Z " /><path fill="rgb(22,16,12)" stroke="rgb(22,16,12)" stroke-width="1" opacity="0.996078431372549" d="M 146.5 91 L 147 96.5 L 146 96.5 L 146.5 91 Z " /><path fill="rgb(22,16,12)" stroke="rgb(22,16,12)" stroke-width="1" opacity="0.996078431372549" d="M 43.5 101 L 44 113.5 L 43 113.5 L 43.5 101 Z " /><path fill="rgb(22,16,12)" stroke="rgb(22,16,12)" stroke-width="1" opacity="0.996078431372549" d="M 146.5 104 L 147 107.5 L 146 107.5 L 146.5 104 Z " /><path fill="rgb(22,16,12)" stroke="rgb(22,16,12)" stroke-width="1" opacity="0.996078431372549" d="M 163.5 138 L 163 139.5 L 162.5 141 L 162 139.5 L 163.5 138 Z " /><path fill="rgb(22,16,12)" stroke="rgb(22,16,12)" stroke-width="1" opacity="0.996078431372549" d="M 138.5 140 L 137.5 142 L 138.5 140 Z " /><path fill="rgb(22,16,12)" stroke="rgb(22,16,12)" stroke-width="1" opacity="0.996078431372549" d="M 57.5 142 L 61.5 147 L 57.5 142 Z " /><path fill="rgb(22,16,12)" stroke="rgb(22,16,12)" stroke-width="1" opacity="0.996078431372549" d="M 143.5 143 L 142.5 145 L 143.5 143 Z " /><path fill="rgb(22,16,12)" stroke="rgb(22,16,12)" stroke-width="1" opacity="0.996078431372549" d="M 52.5 145 L 58 151.5 L 57 151.5 L 52.5 145 Z " /><path fill="rgb(22,16,12)" stroke="rgb(22,16,12)" stroke-width="1" opacity="0.996078431372549" d="M 133.5 145 L 132.5 147 L 133.5 145 Z " /><path fill="rgb(22,16,12)" stroke="rgb(22,16,12)" stroke-width="1" opacity="0.996078431372549" d="M 136.5 150 L 135.5 152 L 136.5 150 Z " /><path fill="rgb(22,16,12)" stroke="rgb(22,16,12)" stroke-width="1" opacity="0.996078431372549" d="M 130.5 155 L 131.5 157 L 130.5 155 Z " /><path fill="rgb(22,16,12)" stroke="rgb(22,16,12)" stroke-width="1" opacity="0.996078431372549" d="M 92.5 156 L 102 156.5 L 92.5 157 L 92.5 156 Z " /><path fill="rgb(22,16,12)" stroke="rgb(22,16,12)" stroke-width="1" opacity="0.996078431372549" d="M 154.5 160 L 153.5 162 L 154.5 160 Z " /><path fill="rgb(22,16,12)" stroke="rgb(22,16,12)" stroke-width="1" opacity="0.996078431372549" d="M 130.5 163 L 129.5 165 L 130.5 163 Z " /><path fill="rgb(22,16,12)" stroke="rgb(22,16,12)" stroke-width="1" opacity="0.996078431372549" d="M 81.5 172 L 84 172.5 L 81.5 173 L 81.5 172 Z " /><path fill="rgb(22,16,12)" stroke="rgb(22,16,12)" stroke-width="1" opacity="0.996078431372549" d="M 117.5 177 Q 119.8 176.3 119 178.5 L 117.5 177 Z " /><path fill="rgb(22,16,12)" stroke="rgb(22,16,12)" stroke-width="1" opacity="0.996078431372549" d="M 116.5 185 L 117 189.5 L 116 189.5 L 116.5 185 Z " /><path fill="rgb(22,16,12)" stroke="rgb(22,16,12)" stroke-width="1" opacity="0.996078431372549" d="M 144.5 187 L 143.5 189 L 144.5 187 Z " /><path fill="rgb(22,16,12)" stroke="rgb(22,16,12)" stroke-width="1" opacity="0.996078431372549" d="M 45.5 192 Q 47.8 191.3 47 193.5 L 45.5 192 Z " /><path fill="rgb(22,16,12)" stroke="rgb(22,16,12)" stroke-width="1" opacity="0.996078431372549" d="M 119.5 192 L 122 192.5 L 119.5 193 L 119.5 192 Z " /><path fill="rgb(22,16,12)" stroke="rgb(22,16,12)" stroke-width="1" opacity="0.996078431372549" d="M 133.5 192 L 136.5 196 L 133.5 192 Z " /><path fill="rgb(22,16,12)" stroke="rgb(22,16,12)" stroke-width="1" opacity="0.996078431372549" d="M 151.5 194 L 155 194.5 L 151.5 195 L 151.5 194 Z " /><path fill="rgb(22,16,12)" stroke="rgb(22,16,12)" stroke-width="1" opacity="0.996078431372549" d="M 138.5 196 L 141 196.5 L 138.5 197 L 138.5 196 Z " /><path fill="rgb(97,103,105)" stroke="rgb(97,103,105)" stroke-width="1" opacity="0.996078431372549" d="M 113.5 26 L 112.5 28 L 113.5 26 Z " /><path fill="rgb(97,103,105)" stroke="rgb(97,103,105)" stroke-width="1" opacity="0.996078431372549" d="M 119.5 26 L 120.5 28 L 119.5 26 Z " /><path fill="rgb(97,103,105)" stroke="rgb(97,103,105)" stroke-width="1" opacity="0.996078431372549" d="M 121.5 29 L 117.5 34 L 114 33.5 Q 120 33.5 121.5 29 Z " /><path fill="rgb(97,103,105)" stroke="rgb(97,103,105)" stroke-width="1" opacity="0.996078431372549" d="M 99.5 73 L 101.5 76 L 99.5 73 Z " /><path fill="rgb(97,103,105)" stroke="rgb(97,103,105)" stroke-width="1" opacity="0.996078431372549" d="M 167.5 80 L 168 86.5 L 167 86.5 L 167.5 80 Z " /><path fill="rgb(97,103,105)" stroke="rgb(97,103,105)" stroke-width="1" opacity="0.996078431372549" d="M 50.5 82 L 51 84.5 L 50 84.5 L 50.5 82 Z " /><path fill="rgb(97,103,105)" stroke="rgb(97,103,105)" stroke-width="1" opacity="0.996078431372549" d="M 28.5 84 L 29 87.5 L 28 87.5 L 28.5 84 Z " /><path fill="rgb(97,103,105)" stroke="rgb(97,103,105)" stroke-width="1" opacity="0.996078431372549" d="M 123.5 89 L 122.5 91 L 123.5 89 Z " /><path fill="rgb(97,103,105)" stroke="rgb(97,103,105)" stroke-width="1" opacity="0.996078431372549" d="M 49.5 92 L 50 114.5 L 49 114.5 L 49.5 92 Z " /><path fill="rgb(97,103,105)" stroke="rgb(97,103,105)" stroke-width="1" opacity="0.996078431372549" d="M 166.5 96 L 165.5 98 L 166.5 96 Z " /><path fill="rgb(97,103,105)" stroke="rgb(97,103,105)" stroke-width="1" opacity="0.996078431372549" d="M 156.5 98 L 159 98.5 L 156.5 99 L 156.5 98 Z " /><path fill="rgb(97,103,105)" stroke="rgb(97,103,105)" stroke-width="1" opacity="0.996078431372549" d="M 152.5 100 L 153 113 L 156 113.5 L 152 114 L 152.5 100 Z " /><path fill="rgb(97,103,105)" stroke="rgb(97,103,105)" stroke-width="1" opacity="0.996078431372549" d="M 71.5 107 L 74 107.5 L 71.5 108 L 71.5 107 Z " /><path fill="rgb(97,103,105)" stroke="rgb(97,103,105)" stroke-width="1" opacity="0.996078431372549" d="M 116.5 108 L 119 108.5 L 116.5 109 L 116.5 108 Z " /><path fill="rgb(97,103,105)" stroke="rgb(97,103,105)" stroke-width="1" opacity="0.996078431372549" d="M 42.5 109 L 43 112.5 L 42 112.5 L 42.5 109 Z " /><path fill="rgb(97,103,105)" stroke="rgb(97,103,105)" stroke-width="1" opacity="0.996078431372549" d="M 67.5 109 L 66.5 111 L 67.5 109 Z " /><path fill="rgb(97,103,105)" stroke="rgb(97,103,105)" stroke-width="1" opacity="0.996078431372549" d="M 18.5 110 L 22 110.5 L 18.5 111 L 18.5 110 Z " /><path fill="rgb(97,103,105)" stroke="rgb(97,103,105)" stroke-width="1" opacity="0.996078431372549" d="M 78.5 110 L 79.5 112 L 78.5 110 Z " /><path fill="rgb(97,103,105)" stroke="rgb(97,103,105)" stroke-width="1" opacity="0.996078431372549" d="M 122.5 110 L 123.5 112 L 122.5 110 Z " /><path fill="rgb(97,103,105)" stroke="rgb(97,103,105)" stroke-width="1" opacity="0.996078431372549" d="M 26.5 111 L 30 111.5 L 26.5 112 L 26.5 111 Z " /><path fill="rgb(97,103,105)" stroke="rgb(97,103,105)" stroke-width="1" opacity="0.996078431372549" d="M 111.5 111 L 110.5 113 L 111.5 111 Z " /><path fill="rgb(97,103,105)" stroke="rgb(97,103,105)" stroke-width="1" opacity="0.996078431372549" d="M 171.5 111 L 175 111.5 L 171.5 112 L 171.5 111 Z " /><path fill="rgb(97,103,105)" stroke="rgb(97,103,105)" stroke-width="1" opacity="0.996078431372549" d="M 35.5 112 L 38 112.5 L 35.5 113 L 35.5 112 Z " /><path fill="rgb(97,103,105)" stroke="rgb(97,103,105)" stroke-width="1" opacity="0.996078431372549" d="M 65.5 112 L 66 115.5 L 65 115.5 L 65.5 112 Z " /><path fill="rgb(97,103,105)" stroke="rgb(97,103,105)" stroke-width="1" opacity="0.996078431372549" d="M 161.5 112 L 165 112.5 L 161.5 113 L 161.5 112 Z " /><path fill="rgb(97,103,105)" stroke="rgb(97,103,105)" stroke-width="1" opacity="0.996078431372549" d="M 80.5 113 L 81 116.5 L 80 116.5 L 80.5 113 Z " /><path fill="rgb(97,103,105)" stroke="rgb(97,103,105)" stroke-width="1" opacity="0.996078431372549" d="M 124.5 113 L 125 116.5 L 124 116.5 L 124.5 113 Z " /><path fill="rgb(97,103,105)" stroke="rgb(97,103,105)" stroke-width="1" opacity="0.996078431372549" d="M 109.5 114 L 110 117.5 L 109 117.5 L 109.5 114 Z " /><path fill="rgb(97,103,105)" stroke="rgb(97,103,105)" stroke-width="1" opacity="0.996078431372549" d="M 66.5 117 L 68.5 120 L 66.5 117 Z " /><path fill="rgb(97,103,105)" stroke="rgb(97,103,105)" stroke-width="1" opacity="0.996078431372549" d="M 79.5 118 L 77.5 121 L 76 120.5 L 79.5 118 Z " /><path fill="rgb(97,103,105)" stroke="rgb(97,103,105)" stroke-width="1" opacity="0.996078431372549" d="M 110.5 119 L 114 121.5 L 112.5 122 L 110.5 119 Z " /><path fill="rgb(97,103,105)" stroke="rgb(97,103,105)" stroke-width="1" opacity="0.996078431372549" d="M 121.5 120 L 120.5 122 L 121.5 120 Z " /><path fill="rgb(97,103,105)" stroke="rgb(97,103,105)" stroke-width="1" opacity="0.996078431372549" d="M 115.5 122 L 118 122.5 L 115.5 123 L 115.5 122 Z " /><path fill="rgb(97,103,105)" stroke="rgb(97,103,105)" stroke-width="1" opacity="0.996078431372549" d="M 57.5 141 L 58.5 143 L 57.5 141 Z " /><path fill="rgb(97,103,105)" stroke="rgb(97,103,105)" stroke-width="1" opacity="0.996078431372549" d="M 61.5 145 L 62.5 147 L 61.5 145 Z " /><path fill="rgb(97,103,105)" stroke="rgb(97,103,105)" stroke-width="1" opacity="0.996078431372549" d="M 138.5 151 Q 152.8 149.2 158 156.5 L 151 162.5 Q 153.8 160.7 149.5 159 L 146 157.5 L 149 153.5 L 141.5 152 L 138 153.5 L 137.5 157 L 137 152.5 L 138.5 151 Z " /><path fill="rgb(97,103,105)" stroke="rgb(97,103,105)" stroke-width="1" opacity="0.996078431372549" d="M 49.5 153 Q 54.8 151.8 56 154.5 L 55 159.5 L 55.5 161 L 49 160 Q 50 156.2 47.5 155 L 43 156 L 46 160.5 L 44 161.5 L 41 156.5 L 49.5 153 Z " /><path fill="rgb(97,103,105)" stroke="rgb(97,103,105)" stroke-width="1" opacity="0.996078431372549" d="M 56.5 162 L 61 169.5 Q 51.4 169.6 46 173 L 46 166.5 L 45 165.5 L 47 166.5 Q 45.1 171.9 48.5 171 L 52 169.5 L 50 164 L 56 164 L 56.5 162 Z " /><path fill="rgb(97,103,105)" stroke="rgb(97,103,105)" stroke-width="1" opacity="0.996078431372549" d="M 137.5 162 L 138 164.5 L 135 168.5 L 141 169 L 142 164 L 149 165 L 148 172 Q 142.9 169 133 169.5 L 137.5 162 Z " /><path fill="rgb(97,103,105)" stroke="rgb(97,103,105)" stroke-width="1" opacity="0.996078431372549" d="M 75.5 178 L 86.5 179 L 88.5 179 Q 92.3 183.2 101.5 182 L 109.5 178 L 110.5 179 L 117 179 Q 115.1 183.3 116 191 L 99.5 185 L 94.5 185 L 76.5 192 L 76 190.5 Q 78.3 189.3 77 184.5 L 76 181.5 L 75.5 178 Z " /><path fill="rgb(97,103,105)" stroke="rgb(97,103,105)" stroke-width="1" opacity="0.996078431372549" d="M 55 190 L 66.5 193 L 68 194.5 L 57.5 200 L 51 200 L 55 190 Z " /><path fill="rgb(97,103,105)" stroke="rgb(97,103,105)" stroke-width="1" opacity="0.996078431372549" d="M 36.5 191 Q 38 194.9 44 194.5 L 35.5 200 L 33 200 L 36.5 191 Z " /><path fill="rgb(97,103,105)" stroke="rgb(97,103,105)" stroke-width="1" opacity="0.996078431372549" d="M 127.5 191 Q 132.9 189.1 132 192.5 Q 133.7 198.3 141 197 L 142 199.5 L 137.5 200 L 123 193.5 L 127.5 191 Z " /><path fill="rgb(97,103,105)" stroke="rgb(97,103,105)" stroke-width="1" opacity="0.996078431372549" d="M 148.5 195 L 157.5 195 L 159 196.5 L 160 200 L 150.5 198 L 148.5 195 Z " /><path fill="rgb(0,0,0)" stroke="rgb(0,0,0)" stroke-width="1" opacity="0.2980392156862745" d="M 115.5 18 L 119 18.5 L 115.5 19 L 115.5 18 Z " /><path fill="rgb(0,0,0)" stroke="rgb(0,0,0)" stroke-width="1" opacity="0.2980392156862745" d="M 109.5 20 L 106.5 24 L 109.5 20 Z " /><path fill="rgb(0,0,0)" stroke="rgb(0,0,0)" stroke-width="1" opacity="0.2980392156862745" d="M 123.5 20 L 124.5 22 L 123.5 20 Z " /><path fill="rgb(0,0,0)" stroke="rgb(0,0,0)" stroke-width="1" opacity="0.2980392156862745" d="M 126.5 23 L 128 25.5 L 127 25.5 L 126.5 23 Z " /><path fill="rgb(0,0,0)" stroke="rgb(0,0,0)" stroke-width="1" opacity="0.2980392156862745" d="M 128.5 27 L 130 29.5 L 128 28.5 L 128.5 27 Z " /><path fill="rgb(0,0,0)" stroke="rgb(0,0,0)" stroke-width="1" opacity="0.2980392156862745" d="M 104.5 28 L 105 32.5 L 104 32.5 L 104.5 28 Z " /><path fill="rgb(0,0,0)" stroke="rgb(0,0,0)" stroke-width="1" opacity="0.2980392156862745" d="M 134.5 31 L 135.5 33 L 134.5 31 Z " /><path fill="rgb(0,0,0)" stroke="rgb(0,0,0)" stroke-width="1" opacity="0.2980392156862745" d="M 137.5 34 L 139 36.5 L 138 36.5 L 137.5 34 Z " /><path fill="rgb(0,0,0)" stroke="rgb(0,0,0)" stroke-width="1" opacity="0.2980392156862745" d="M 106.5 36 L 107.5 38 L 106.5 36 Z " /><path fill="rgb(0,0,0)" stroke="rgb(0,0,0)" stroke-width="1" opacity="0.2980392156862745" d="M 139.5 38 L 140 41.5 L 139 41.5 L 139.5 38 Z " /><path fill="rgb(0,0,0)" stroke="rgb(0,0,0)" stroke-width="1" opacity="0.2980392156862745" d="M 112.5 40 L 116 41.5 L 115.5 44 L 115 41 Q 111.7 41.8 112.5 40 Z " /><path fill="rgb(0,0,0)" stroke="rgb(0,0,0)" stroke-width="1" opacity="0.2980392156862745" d="M 117.5 47 L 118.5 49 L 117.5 47 Z " /><path fill="rgb(0,0,0)" stroke="rgb(0,0,0)" stroke-width="1" opacity="0.2980392156862745" d="M 123.5 51 L 131 51.5 L 123.5 52 L 123.5 51 Z " /><path fill="rgb(0,0,0)" stroke="rgb(0,0,0)" stroke-width="1" opacity="0.2980392156862745" d="M 138.5 53 L 139 57.5 L 138 57.5 L 138.5 53 Z " /><path fill="rgb(0,0,0)" stroke="rgb(0,0,0)" stroke-width="1" opacity="0.2980392156862745" d="M 97.5 61 L 103 65.5 L 98.5 62 L 96.5 63 L 97.5 61 Z " /><path fill="rgb(0,0,0)" stroke="rgb(0,0,0)" stroke-width="1" opacity="0.2980392156862745" d="M 33.5 64 L 34 66.5 L 33 66.5 L 33.5 64 Z " /><path fill="rgb(0,0,0)" stroke="rgb(0,0,0)" stroke-width="1" opacity="0.2980392156862745" d="M 94.5 64 L 93.5 66 L 86 65.5 L 94.5 64 Z " /><path fill="rgb(0,0,0)" stroke="rgb(0,0,0)" stroke-width="1" opacity="0.2980392156862745" d="M 163.5 64 L 162.5 66 L 163.5 64 Z " /><path fill="rgb(0,0,0)" stroke="rgb(0,0,0)" stroke-width="1" opacity="0.2980392156862745" d="M 27.5 65 L 24.5 69 L 27.5 65 Z " /><path fill="rgb(0,0,0)" stroke="rgb(0,0,0)" stroke-width="1" opacity="0.2980392156862745" d="M 79.5 66 L 82 66.5 L 79.5 67 L 79.5 66 Z " /><path fill="rgb(0,0,0)" stroke="rgb(0,0,0)" stroke-width="1" opacity="0.2980392156862745" d="M 112.5 66 L 115 66.5 L 112.5 67 L 112.5 66 Z " /><path fill="rgb(0,0,0)" stroke="rgb(0,0,0)" stroke-width="1" opacity="0.2980392156862745" d="M 74.5 67 L 77 67.5 L 74.5 68 L 74.5 67 Z " /><path fill="rgb(0,0,0)" stroke="rgb(0,0,0)" stroke-width="1" opacity="0.2980392156862745" d="M 117.5 67 L 120 67.5 L 117.5 68 L 117.5 67 Z " /><path fill="rgb(0,0,0)" stroke="rgb(0,0,0)" stroke-width="1" opacity="0.2980392156862745" d="M 146.5 68 L 150 68.5 L 146.5 69 L 146.5 68 Z " /><path fill="rgb(0,0,0)" stroke="rgb(0,0,0)" stroke-width="1" opacity="0.2980392156862745" d="M 169.5 69 L 170.5 71 L 169.5 69 Z " /><path fill="rgb(0,0,0)" stroke="rgb(0,0,0)" stroke-width="1" opacity="0.2980392156862745" d="M 23.5 70 L 22.5 72 L 23.5 70 Z " /><path fill="rgb(0,0,0)" stroke="rgb(0,0,0)" stroke-width="1" opacity="0.2980392156862745" d="M 66.5 70 L 65.5 72 L 66.5 70 Z " /><path fill="rgb(0,0,0)" stroke="rgb(0,0,0)" stroke-width="1" opacity="0.2980392156862745" d="M 161.5 70 L 162 75.5 L 161 75.5 L 161.5 70 Z " /><path fill="rgb(0,0,0)" stroke="rgb(0,0,0)" stroke-width="1" opacity="0.2980392156862745" d="M 133.5 71 L 133 72.5 L 132.5 74 L 132 72.5 L 133.5 71 Z " /><path fill="rgb(0,0,0)" stroke="rgb(0,0,0)" stroke-width="1" opacity="0.2980392156862745" d="M 139.5 71 L 138.5 73 L 139.5 71 Z " /><path fill="rgb(0,0,0)" stroke="rgb(0,0,0)" stroke-width="1" opacity="0.2980392156862745" d="M 63.5 72 L 62.5 74 L 63.5 72 Z " /><path fill="rgb(0,0,0)" stroke="rgb(0,0,0)" stroke-width="1" opacity="0.2980392156862745" d="M 21.5 73 L 20.5 75 L 21.5 73 Z " /><path fill="rgb(0,0,0)" stroke="rgb(0,0,0)" stroke-width="1" opacity="0.2980392156862745" d="M 136.5 73 L 135.5 75 L 134 74.5 L 136.5 73 Z " /><path fill="rgb(0,0,0)" stroke="rgb(0,0,0)" stroke-width="1" opacity="0.2980392156862745" d="M 172.5 73 L 173.5 75 L 172.5 73 Z " /><path fill="rgb(0,0,0)" stroke="rgb(0,0,0)" stroke-width="1" opacity="0.2980392156862745" d="M 60.5 74 L 59.5 76 L 58 75.5 L 60.5 74 Z " /><path fill="rgb(0,0,0)" stroke="rgb(0,0,0)" stroke-width="1" opacity="0.2980392156862745" d="M 34.5 75 L 35 78.5 L 34 78.5 L 34.5 75 Z " /><path fill="rgb(0,0,0)" stroke="rgb(0,0,0)" stroke-width="1" opacity="0.2980392156862745" d="M 44.5 75 L 45 78.5 L 44 78.5 L 44.5 75 Z " /><path fill="rgb(0,0,0)" stroke="rgb(0,0,0)" stroke-width="1" opacity="0.2980392156862745" d="M 19.5 76 L 18.5 78 L 19.5 76 Z " /><path fill="rgb(0,0,0)" stroke="rgb(0,0,0)" stroke-width="1" opacity="0.2980392156862745" d="M 174.5 76 L 175.5 78 L 174.5 76 Z " /><path fill="rgb(0,0,0)" stroke="rgb(0,0,0)" stroke-width="1" opacity="0.2980392156862745" d="M 177.5 81 L 178.5 83 L 177.5 81 Z " /><path fill="rgb(0,0,0)" stroke="rgb(0,0,0)" stroke-width="1" opacity="0.2980392156862745" d="M 152.5 82 L 153 90.5 L 152 90.5 L 152.5 82 Z " /><path fill="rgb(0,0,0)" stroke="rgb(0,0,0)" stroke-width="1" opacity="0.2980392156862745" d="M 43.5 83 L 44 86.5 L 43 86.5 L 43.5 83 Z " /><path fill="rgb(0,0,0)" stroke="rgb(0,0,0)" stroke-width="1" opacity="0.2980392156862745" d="M 160.5 83 L 161 89.5 L 160 89.5 L 160.5 83 Z " /><path fill="rgb(0,0,0)" stroke="rgb(0,0,0)" stroke-width="1" opacity="0.2980392156862745" d="M 35.5 85 L 36 88.5 L 35 88.5 L 35.5 85 Z " /><path fill="rgb(0,0,0)" stroke="rgb(0,0,0)" stroke-width="1" opacity="0.2980392156862745" d="M 156.5 91 L 160 91.5 L 156.5 92 L 156.5 91 Z " /><path fill="rgb(0,0,0)" stroke="rgb(0,0,0)" stroke-width="1" opacity="0.2980392156862745" d="M 40.5 92 L 43 92.5 L 40.5 93 L 40.5 92 Z " /><path fill="rgb(0,0,0)" stroke="rgb(0,0,0)" stroke-width="1" opacity="0.2980392156862745" d="M 9.5 102 L 10 104.5 L 9 104.5 L 9.5 102 Z " /><path fill="rgb(0,0,0)" stroke="rgb(0,0,0)" stroke-width="1" opacity="0.2980392156862745" d="M 190.5 113 L 191 115.5 L 189 116.5 L 190.5 113 Z " /><path fill="rgb(0,0,0)" stroke="rgb(0,0,0)" stroke-width="1" opacity="0.2980392156862745" d="M 11.5 116 L 14 116.5 L 11.5 117 L 11.5 116 Z " /><path fill="rgb(0,0,0)" stroke="rgb(0,0,0)" stroke-width="1" opacity="0.2980392156862745" d="M 17.5 117 L 20 117.5 L 17.5 118 L 17.5 117 Z " /><path fill="rgb(0,0,0)" stroke="rgb(0,0,0)" stroke-width="1" opacity="0.2980392156862745" d="M 182.5 117 L 187 117.5 L 182.5 118 L 182.5 117 Z " /><path fill="rgb(0,0,0)" stroke="rgb(0,0,0)" stroke-width="1" opacity="0.2980392156862745" d="M 24.5 118 L 27 118.5 L 24.5 119 L 24.5 118 Z " /><path fill="rgb(0,0,0)" stroke="rgb(0,0,0)" stroke-width="1" opacity="0.2980392156862745" d="M 176 118 L 178 118.5 L 176 119.5 L 176 118 Z " /><path fill="rgb(0,0,0)" stroke="rgb(0,0,0)" stroke-width="1" opacity="0.2980392156862745" d="M 26.5 120 L 25.5 122 L 26.5 120 Z " /><path fill="rgb(0,0,0)" stroke="rgb(0,0,0)" stroke-width="1" opacity="0.2980392156862745" d="M 179.5 127 L 180 131.5 L 179 131.5 L 179.5 127 Z " /><path fill="rgb(0,0,0)" stroke="rgb(0,0,0)" stroke-width="1" opacity="0.2980392156862745" d="M 20.5 134 L 21 136.5 L 20 136.5 L 20.5 134 Z " /><path fill="rgb(0,0,0)" stroke="rgb(0,0,0)" stroke-width="1" opacity="0.2980392156862745" d="M 172.5 139 L 171 141.5 L 170.5 143 L 170 141.5 L 172.5 139 Z " /><path fill="rgb(0,0,0)" stroke="rgb(0,0,0)" stroke-width="1" opacity="0.2980392156862745" d="M 25.5 143 L 30 145.5 L 28.5 146 L 25.5 143 Z " /><path fill="rgb(0,0,0)" stroke="rgb(0,0,0)" stroke-width="1" opacity="0.2980392156862745" d="M 29.5 153 L 30 156.5 L 29 156.5 L 29.5 153 Z " /><path fill="rgb(0,0,0)" stroke="rgb(0,0,0)" stroke-width="1" opacity="0.2980392156862745" d="M 169.5 158 L 168.5 160 L 169.5 158 Z " /><path fill="rgb(0,0,0)" stroke="rgb(0,0,0)" stroke-width="1" opacity="0.2980392156862745" d="M 35.5 162 L 36.5 164 L 35.5 162 Z " /><path fill="rgb(0,0,0)" stroke="rgb(0,0,0)" stroke-width="1" opacity="0.2980392156862745" d="M 39.5 167 L 40 169.5 L 39 169.5 L 39.5 167 Z " /><path fill="rgb(0,0,0)" stroke="rgb(0,0,0)" stroke-width="1" opacity="0.2980392156862745" d="M 155.5 170 L 156 173.5 L 155 173.5 L 155.5 170 Z " /><path fill="rgb(0,0,0)" stroke="rgb(0,0,0)" stroke-width="1" opacity="0.2980392156862745" d="M 157.5 178 L 158.5 180 L 157.5 178 Z " /><path fill="rgb(0,0,0)" stroke="rgb(0,0,0)" stroke-width="1" opacity="0.2980392156862745" d="M 35.5 179 L 34 181.5 L 32.5 184 L 33 182.5 L 35.5 179 Z " /><path fill="rgb(0,0,0)" stroke="rgb(0,0,0)" stroke-width="1" opacity="0.2980392156862745" d="M 160.5 183 L 165 191.5 L 164 191.5 L 160.5 183 Z " /><path fill="rgb(71,52,43)" stroke="rgb(71,52,43)" stroke-width="1" opacity="1" d="M 120.5 31 L 119.5 33 L 120.5 31 Z " /><path fill="rgb(71,52,43)" stroke="rgb(71,52,43)" stroke-width="1" opacity="1" d="M 131.5 42 L 130.5 44 L 131.5 42 Z " /><path fill="rgb(71,52,43)" stroke="rgb(71,52,43)" stroke-width="1" opacity="1" d="M 85.5 72 Q 87.8 71.3 87 73.5 L 85 74.5 L 85.5 72 Z " /><path fill="rgb(71,52,43)" stroke="rgb(71,52,43)" stroke-width="1" opacity="1" d="M 108.5 73 L 112.5 78 L 108.5 73 Z " /><path fill="rgb(71,52,43)" stroke="rgb(71,52,43)" stroke-width="1" opacity="1" d="M 27.5 76 L 26.5 78 L 27.5 76 Z " /><path fill="rgb(71,52,43)" stroke="rgb(71,52,43)" stroke-width="1" opacity="1" d="M 102.5 76 L 104.5 79 L 102.5 76 Z " /><path fill="rgb(71,52,43)" stroke="rgb(71,52,43)" stroke-width="1" opacity="1" d="M 82.5 77 L 77.5 83 L 82.5 77 Z " /><path fill="rgb(71,52,43)" stroke="rgb(71,52,43)" stroke-width="1" opacity="1" d="M 125.5 77 L 127 79.5 L 126 79.5 L 125.5 77 Z " /><path fill="rgb(71,52,43)" stroke="rgb(71,52,43)" stroke-width="1" opacity="1" d="M 89.5 79 L 87.5 82 L 89.5 79 Z " /><path fill="rgb(71,52,43)" stroke="rgb(71,52,43)" stroke-width="1" opacity="1" d="M 113.5 79 L 114.5 81 L 113.5 79 Z " /><path fill="rgb(71,52,43)" stroke="rgb(71,52,43)" stroke-width="1" opacity="1" d="M 124.5 80 L 123.5 82 L 124.5 80 Z " /><path fill="rgb(71,52,43)" stroke="rgb(71,52,43)" stroke-width="1" opacity="1" d="M 145.5 80 L 146 85.5 L 145 85.5 L 145.5 80 Z " /><path fill="rgb(71,52,43)" stroke="rgb(71,52,43)" stroke-width="1" opacity="1" d="M 115.5 82 L 116.5 84 L 115.5 82 Z " /><path fill="rgb(71,52,43)" stroke="rgb(71,52,43)" stroke-width="1" opacity="1" d="M 121.5 82 L 120.5 84 L 121.5 82 Z " /><path fill="rgb(71,52,43)" stroke="rgb(71,52,43)" stroke-width="1" opacity="1" d="M 82.5 87 L 80.5 90 L 82.5 87 Z " /><path fill="rgb(71,52,43)" stroke="rgb(71,52,43)" stroke-width="1" opacity="1" d="M 120.5 91 L 119.5 93 L 120.5 91 Z " /><path fill="rgb(71,52,43)" stroke="rgb(71,52,43)" stroke-width="1" opacity="1" d="M 37.5 99 L 40 99.5 L 37.5 100 L 37.5 99 Z " /><path fill="rgb(71,52,43)" stroke="rgb(71,52,43)" stroke-width="1" opacity="1" d="M 15.5 108 L 16 110 L 18 110.5 L 16.5 111 L 15.5 108 Z " /><path fill="rgb(71,52,43)" stroke="rgb(71,52,43)" stroke-width="1" opacity="1" d="M 23.5 111 L 26 111.5 L 23.5 112 L 23.5 111 Z " /><path fill="rgb(71,52,43)" stroke="rgb(71,52,43)" stroke-width="1" opacity="1" d="M 31.5 112 L 34 112.5 L 31.5 113 L 31.5 112 Z " /><path fill="rgb(71,52,43)" stroke="rgb(71,52,43)" stroke-width="1" opacity="1" d="M 166.5 112 L 169 112.5 L 166.5 113 L 166.5 112 Z " /><path fill="rgb(71,52,43)" stroke="rgb(71,52,43)" stroke-width="1" opacity="1" d="M 39.5 113 L 43 113.5 L 39.5 114 L 39.5 113 Z " /><path fill="rgb(71,52,43)" stroke="rgb(71,52,43)" stroke-width="1" opacity="1" d="M 145.5 113 L 146 116.5 L 145 116.5 L 145.5 113 Z " /><path fill="rgb(71,52,43)" stroke="rgb(71,52,43)" stroke-width="1" opacity="1" d="M 156.5 113 L 159 113.5 L 156.5 114 L 156.5 113 Z " /><path fill="rgb(71,52,43)" stroke="rgb(71,52,43)" stroke-width="1" opacity="1" d="M 49.5 115 L 50 117.5 L 49 117.5 L 49.5 115 Z " /><path fill="rgb(71,52,43)" stroke="rgb(71,52,43)" stroke-width="1" opacity="1" d="M 164.5 119 L 169 119.5 L 164.5 120 L 164.5 119 Z " /><path fill="rgb(71,52,43)" stroke="rgb(71,52,43)" stroke-width="1" opacity="1" d="M 34.5 120 L 33.5 122 L 34.5 120 Z " /><path fill="rgb(71,52,43)" stroke="rgb(71,52,43)" stroke-width="1" opacity="1" d="M 40.5 120 L 43 120.5 L 40.5 121 L 40.5 120 Z " /><path fill="rgb(71,52,43)" stroke="rgb(71,52,43)" stroke-width="1" opacity="1" d="M 156.5 120 L 159 120.5 L 156.5 121 L 156.5 120 Z " /><path fill="rgb(71,52,43)" stroke="rgb(71,52,43)" stroke-width="1" opacity="1" d="M 144.5 122 L 145 124.5 L 144 124.5 L 144.5 122 Z " /><path fill="rgb(71,52,43)" stroke="rgb(71,52,43)" stroke-width="1" opacity="1" d="M 149.5 133 L 150 135.5 L 149 135.5 L 149.5 133 Z " /><path fill="rgb(71,52,43)" stroke="rgb(71,52,43)" stroke-width="1" opacity="1" d="M 166.5 135 L 165.5 137 L 166.5 135 Z " /><path fill="rgb(71,52,43)" stroke="rgb(71,52,43)" stroke-width="1" opacity="1" d="M 28.5 136 L 29.5 138 L 28.5 136 Z " /><path fill="rgb(71,52,43)" stroke="rgb(71,52,43)" stroke-width="1" opacity="1" d="M 148.5 137 L 148 138.5 L 146.5 141 L 147 139.5 L 148.5 137 Z " /><path fill="rgb(71,52,43)" stroke="rgb(71,52,43)" stroke-width="1" opacity="1" d="M 163.5 137 L 161.5 140 L 163.5 137 Z " /><path fill="rgb(71,52,43)" stroke="rgb(71,52,43)" stroke-width="1" opacity="1" d="M 39.5 142 L 40.5 144 L 39.5 142 Z " /><path fill="rgb(71,52,43)" stroke="rgb(71,52,43)" stroke-width="1" opacity="1" d="M 49.5 142 L 50.5 144 L 49.5 142 Z " /><path fill="rgb(71,52,43)" stroke="rgb(71,52,43)" stroke-width="1" opacity="1" d="M 144.5 143 L 140.5 148 L 144.5 143 Z " /><path fill="rgb(71,52,43)" stroke="rgb(71,52,43)" stroke-width="1" opacity="1" d="M 51.5 145 L 57 150.5 L 57 152.5 L 56 152.5 L 56 150.5 L 51.5 145 Z " /><path fill="rgb(71,52,43)" stroke="rgb(71,52,43)" stroke-width="1" opacity="1" d="M 138.5 149 L 137 151.5 L 136.5 153 L 136 151.5 L 138.5 149 Z " /><path fill="rgb(71,52,43)" stroke="rgb(71,52,43)" stroke-width="1" opacity="1" d="M 165.5 150 L 166 152.5 L 161.5 155 L 161.5 154 L 165 153 L 165.5 150 Z " /><path fill="rgb(71,52,43)" stroke="rgb(71,52,43)" stroke-width="1" opacity="1" d="M 86.5 155 L 89 155.5 L 86.5 156 L 86.5 155 Z " /><path fill="rgb(71,52,43)" stroke="rgb(71,52,43)" stroke-width="1" opacity="1" d="M 105.5 155 L 112 155.5 L 105.5 156 L 105.5 155 Z " /><path fill="rgb(71,52,43)" stroke="rgb(71,52,43)" stroke-width="1" opacity="1" d="M 158.5 156 L 156.5 159 L 158.5 156 Z " /><path fill="rgb(71,52,43)" stroke="rgb(71,52,43)" stroke-width="1" opacity="1" d="M 83.5 161 L 87 161.5 L 83.5 162 L 83.5 161 Z " /><path fill="rgb(71,52,43)" stroke="rgb(71,52,43)" stroke-width="1" opacity="1" d="M 111.5 161 L 114 161.5 L 111.5 162 L 111.5 161 Z " /><path fill="rgb(71,52,43)" stroke="rgb(71,52,43)" stroke-width="1" opacity="1" d="M 63.5 162 L 64.5 164 L 63.5 162 Z " /><path fill="rgb(71,52,43)" stroke="rgb(71,52,43)" stroke-width="1" opacity="1" d="M 91.5 162 L 99 162.5 L 91.5 163 L 91.5 162 Z " /><path fill="rgb(71,52,43)" stroke="rgb(71,52,43)" stroke-width="1" opacity="1" d="M 105.5 162 L 108 162.5 L 105.5 163 L 105.5 162 Z " /><path fill="rgb(71,52,43)" stroke="rgb(71,52,43)" stroke-width="1" opacity="1" d="M 74.5 168 L 75.5 170 L 74.5 168 Z " /><path fill="rgb(71,52,43)" stroke="rgb(71,52,43)" stroke-width="1" opacity="1" d="M 61.5 170 L 63.5 173 L 61.5 170 Z " /><path fill="rgb(71,52,43)" stroke="rgb(71,52,43)" stroke-width="1" opacity="1" d="M 110.5 172 L 114 172.5 L 110.5 173 L 110.5 172 Z " /><path fill="rgb(71,52,43)" stroke="rgb(71,52,43)" stroke-width="1" opacity="1" d="M 64.5 174 L 65.5 176 L 64.5 174 Z " /><path fill="rgb(71,52,43)" stroke="rgb(71,52,43)" stroke-width="1" opacity="1" d="M 127.5 175 L 127 176.5 L 126.5 178 L 126 176.5 L 127.5 175 Z " /><path fill="rgb(71,52,43)" stroke="rgb(71,52,43)" stroke-width="1" opacity="1" d="M 87.5 177 L 88.5 179 L 86.5 179 L 85 178.5 L 87.5 177 Z " /><path fill="rgb(71,52,43)" stroke="rgb(71,52,43)" stroke-width="1" opacity="1" d="M 116.5 178 Q 118.8 177.3 118 179.5 L 116.5 178 Z " /><path fill="rgb(71,52,43)" stroke="rgb(71,52,43)" stroke-width="1" opacity="1" d="M 51.5 181 L 50.5 183 L 51.5 181 Z " /><path fill="rgb(71,52,43)" stroke="rgb(71,52,43)" stroke-width="1" opacity="1" d="M 48.5 183 L 47.5 185 L 48.5 183 Z " /><path fill="rgb(71,52,43)" stroke="rgb(71,52,43)" stroke-width="1" opacity="1" d="M 134.5 183 L 136.5 186 L 134.5 183 Z " /><path fill="rgb(71,52,43)" stroke="rgb(71,52,43)" stroke-width="1" opacity="1" d="M 69.5 184 L 70 186.5 L 69 186.5 L 69.5 184 Z " /><path fill="rgb(71,52,43)" stroke="rgb(71,52,43)" stroke-width="1" opacity="1" d="M 42.5 185 L 43.5 187 L 42.5 185 Z " /><path fill="rgb(71,52,43)" stroke="rgb(71,52,43)" stroke-width="1" opacity="1" d="M 144.5 186 L 142.5 189 L 144.5 186 Z " /><path fill="rgb(71,52,43)" stroke="rgb(71,52,43)" stroke-width="1" opacity="1" d="M 150.5 187 L 153 187.5 L 150.5 188 L 150.5 187 Z " /><path fill="rgb(71,52,43)" stroke="rgb(71,52,43)" stroke-width="1" opacity="1" d="M 132.5 192 L 136.5 197 L 132.5 192 Z " /><path fill="rgb(71,52,43)" stroke="rgb(71,52,43)" stroke-width="1" opacity="1" d="M 44.5 193 Q 47.1 192.2 46 195.5 L 45 195.5 L 44.5 193 Z " /><path fill="rgb(71,52,43)" stroke="rgb(71,52,43)" stroke-width="1" opacity="1" d="M 67.5 193 L 70 193.5 L 67.5 194 L 67.5 193 Z " /><path fill="rgb(71,52,43)" stroke="rgb(71,52,43)" stroke-width="1" opacity="1" d="M 156.5 194 L 159 195.5 L 157.5 195 L 156.5 194 Z " /><path fill="rgb(226,172,96)" stroke="rgb(226,172,96)" stroke-width="1" opacity="1" d="M 125.5 37 Q 130.8 35.8 132 38.5 Q 132.8 43.3 129.5 44 Q 124.3 45.3 123 42.5 Q 122.3 37.8 125.5 37 Z " /><path fill="rgb(226,172,96)" stroke="rgb(226,172,96)" stroke-width="1" opacity="1" d="M 82.5 73 L 86 73.5 L 69.5 82 L 66 79.5 L 73.5 75 L 82.5 73 Z " /><path fill="rgb(226,172,96)" stroke="rgb(226,172,96)" stroke-width="1" opacity="1" d="M 109.5 73 L 120 75.5 L 117.5 76 Q 116 73.5 110.5 75 L 109.5 73 Z " /><path fill="rgb(226,172,96)" stroke="rgb(226,172,96)" stroke-width="1" opacity="1" d="M 95.5 74 L 95 75.5 L 79.5 99 L 78 99.5 L 86 106.5 L 87 111.5 L 86 111.5 Q 85.4 105.2 80.5 103 L 70.5 101 L 62 105 L 59 111.5 L 59 117.5 L 64.5 125 Q 67.8 128 74 127 L 74 144.5 L 75 145.5 L 75 152 Q 71.2 153.5 72 150.5 Q 62.9 144.1 58 133.5 L 55 120.5 L 55 100.5 L 56 99.5 L 56 87 Q 67 90.2 74.5 98 L 79.5 98 L 88 85.5 L 88 83.5 L 87 82.5 L 95.5 74 Z " /><path fill="rgb(226,172,96)" stroke="rgb(226,172,96)" stroke-width="1" opacity="1" d="M 140.5 79 Q 145 78.5 145 79.5 L 145 117.5 L 142 133.5 L 130.5 147 L 117.5 153 L 117.5 152 L 119 151.5 L 117 150.5 L 119 145.5 L 120 129.5 L 119.5 128 L 122.5 128 L 129 122.5 Q 132.2 119.2 131 111.5 L 128 106 Q 124 102.2 115.5 102 Q 108.1 103.1 105 108.5 Q 102.3 111.8 103 118.5 L 108 126.5 L 106.5 126 L 104 124.5 Q 101 120.5 102 112.5 L 108.5 103 L 117 100 Q 114.8 94.4 120.5 96 L 138 82.5 L 137.5 81 L 139 81.5 L 140.5 79 Z M 144 80 L 143 84 L 144 84 L 144 80 Z M 143 110 L 142 117 L 143 117 L 143 110 Z M 142 120 L 141 123 L 142 123 L 142 120 Z " /><path fill="rgb(226,172,96)" stroke="rgb(226,172,96)" stroke-width="1" opacity="1" d="M 86.5 84 L 80.5 91 L 86.5 84 Z " /><path fill="rgb(226,172,96)" stroke="rgb(226,172,96)" stroke-width="1" opacity="1" d="M 50.5 85 L 51 88.5 L 50 88.5 L 50.5 85 Z " /><path fill="rgb(226,172,96)" stroke="rgb(226,172,96)" stroke-width="1" opacity="1" d="M 128.5 86 L 127.5 88 L 128.5 86 Z " /><path fill="rgb(226,172,96)" stroke="rgb(226,172,96)" stroke-width="1" opacity="1" d="M 167.5 87 L 168 89.5 L 167 89.5 L 167.5 87 Z " /><path fill="rgb(226,172,96)" stroke="rgb(226,172,96)" stroke-width="1" opacity="1" d="M 66.5 88 L 67.5 90 L 66.5 88 Z " /><path fill="rgb(226,172,96)" stroke="rgb(226,172,96)" stroke-width="1" opacity="1" d="M 72.5 92 L 73.5 94 L 72.5 92 Z " /><path fill="rgb(226,172,96)" stroke="rgb(226,172,96)" stroke-width="1" opacity="1" d="M 159.5 98 L 162 98.5 L 159.5 99 L 159.5 98 Z " /><path fill="rgb(226,172,96)" stroke="rgb(226,172,96)" stroke-width="1" opacity="1" d="M 31.5 100 L 35 100.5 L 31.5 101 L 31.5 100 Z " /><path fill="rgb(226,172,96)" stroke="rgb(226,172,96)" stroke-width="1" opacity="1" d="M 42.5 100 L 43 108.5 L 42 113 L 16 110 L 16.5 106 L 17.5 107 L 26.5 107 L 27.5 108 L 36.5 108 L 42 109 L 42.5 100 Z " /><path fill="rgb(226,172,96)" stroke="rgb(226,172,96)" stroke-width="1" opacity="1" d="M 180.5 106 L 182 109.5 L 179.5 111 L 153 113 Q 151.2 107.8 158.5 110 L 180.5 106 Z " /><path fill="rgb(226,172,96)" stroke="rgb(226,172,96)" stroke-width="1" opacity="1" d="M 87.5 113 L 88 116.5 L 87 116.5 L 87.5 113 Z " /><path fill="rgb(226,172,96)" stroke="rgb(226,172,96)" stroke-width="1" opacity="1" d="M 50.5 119 L 51 122.5 L 50 122.5 L 50.5 119 Z " /><path fill="rgb(226,172,96)" stroke="rgb(226,172,96)" stroke-width="1" opacity="1" d="M 33 122 Q 40.8 120.8 44 125.5 L 36.5 136 L 28 133.5 L 33 122 Z " /><path fill="rgb(226,172,96)" stroke="rgb(226,172,96)" stroke-width="1" opacity="1" d="M 151.5 142 L 158 145 Q 159.8 149.5 154.5 148 Q 152.8 150.8 146.5 149 L 148 146.5 L 151.5 142 Z " /><path fill="rgb(226,172,96)" stroke="rgb(226,172,96)" stroke-width="1" opacity="1" d="M 59.5 143 L 60.5 145 L 59.5 143 Z " /><path fill="rgb(226,172,96)" stroke="rgb(226,172,96)" stroke-width="1" opacity="1" d="M 43.5 145 Q 46.8 143.9 46 146.5 L 41.5 153 L 38 152 L 40.5 146 L 43.5 145 Z " /><path fill="rgb(226,172,96)" stroke="rgb(226,172,96)" stroke-width="1" opacity="1" d="M 63.5 155 L 69 158.5 L 66.5 164 L 63 161.5 L 62 156.5 L 63.5 155 Z " /><path fill="rgb(226,172,96)" stroke="rgb(226,172,96)" stroke-width="1" opacity="1" d="M 129.5 156 Q 132 157 131 161.5 L 127 164.5 L 125 158 L 129.5 156 Z " /><path fill="rgb(226,172,96)" stroke="rgb(226,172,96)" stroke-width="1" opacity="1" d="M 145 159 L 151 160 Q 152 163.8 149.5 165 L 144 162.5 L 145 159 Z " /><path fill="rgb(226,172,96)" stroke="rgb(226,172,96)" stroke-width="1" opacity="1" d="M 77.5 160 Q 80.5 162.8 86 162 L 85 171 L 81.5 172 L 75 168.5 L 74 163.5 L 77.5 160 Z " /><path fill="rgb(226,172,96)" stroke="rgb(226,172,96)" stroke-width="1" opacity="1" d="M 49 161 Q 54.4 159.5 56 162.5 L 55.5 164 L 52.5 163 L 50.5 164 L 49 161 Z " /><path fill="rgb(226,172,96)" stroke="rgb(226,172,96)" stroke-width="1" opacity="1" d="M 115.5 161 Q 119.5 160.5 120 163.5 L 121 166.5 L 117.5 171 L 113.5 172 L 110 162.5 L 115.5 161 Z " /><path fill="rgb(226,172,96)" stroke="rgb(226,172,96)" stroke-width="1" opacity="1" d="M 95.5 163 L 104 164 L 105 170.5 Q 102.8 175.3 94.5 174 L 91 168.5 L 93 164 L 95.5 163 Z " /><path fill="rgb(226,172,96)" stroke="rgb(226,172,96)" stroke-width="1" opacity="1" d="M 46.5 173 Q 51.3 171.3 50 175.5 L 43.5 184 L 43 179.5 L 46.5 173 Z " /><path fill="rgb(226,172,96)" stroke="rgb(226,172,96)" stroke-width="1" opacity="1" d="M 132.5 175 Q 134.8 174.3 134 176.5 L 129.5 183 L 124.5 185 L 124 182.5 L 125 180 L 132.5 175 Z " /><path fill="rgb(226,172,96)" stroke="rgb(226,172,96)" stroke-width="1" opacity="1" d="M 60.5 176 L 65 184.5 L 63.5 184 L 58 183 L 60.5 176 Z " /><path fill="rgb(226,172,96)" stroke="rgb(226,172,96)" stroke-width="1" opacity="1" d="M 141.5 181 L 142 189 L 138 187.5 Q 137.3 181.8 141.5 181 Z " /><path fill="rgb(226,172,96)" stroke="rgb(226,172,96)" stroke-width="1" opacity="1" d="M 90.5 186 L 101.5 186 L 121.5 194 L 123.5 194 L 135 199.5 L 58.5 200 L 58.5 199 L 68.5 194 L 74.5 194 L 77.5 191 L 90.5 186 Z " /><path fill="rgb(226,172,96)" stroke="rgb(226,172,96)" stroke-width="1" opacity="1" d="M 39.5 197 L 40 200 L 36 199.5 L 39.5 197 Z " /><path fill="rgb(207,244,191)" stroke="rgb(207,244,191)" stroke-width="1" opacity="1" d="M 114.5 26 Q 120 25 121 28.5 L 117.5 33 Q 113 34 112 31.5 Q 111.3 26.8 114.5 26 Z " /><path fill="rgb(207,244,191)" stroke="rgb(207,244,191)" stroke-width="1" opacity="1" d="M 26.5 78 L 28 79.5 L 29 96.5 L 31.5 101 L 42 100 L 42 109 L 37.5 109 L 36.5 108 L 17.5 107 L 16 105.5 L 21 88.5 L 26.5 78 Z " /><path fill="rgb(207,244,191)" stroke="rgb(207,244,191)" stroke-width="1" opacity="1" d="M 168.5 80 L 181 105.5 L 179.5 107 L 153 110 L 153 99 L 161.5 99 L 167 96.5 L 168.5 80 Z " /><path fill="rgb(207,244,191)" stroke="rgb(207,244,191)" stroke-width="1" opacity="1" d="M 51 81 L 55.5 82 L 76.5 95 L 87.5 83 L 88 85.5 L 79.5 98 L 74.5 98 Q 67 90.2 56 87 L 56 99.5 L 55 100.5 L 55 120.5 Q 57.5 122 56 127.5 L 60 137.5 L 72 150.5 L 70.5 151 Q 62.1 147.4 57 140.5 L 51 126.5 Q 52.8 120.3 50 118.5 L 50 89.5 L 51 88.5 L 51 81 Z " /><path fill="rgb(207,244,191)" stroke="rgb(207,244,191)" stroke-width="1" opacity="1" d="M 138.5 81 L 136.5 84 L 122.5 95 L 117.5 96 L 120.5 92 L 138.5 81 Z " /><path fill="rgb(207,244,191)" stroke="rgb(207,244,191)" stroke-width="1" opacity="1" d="M 70.5 108 Q 75.9 107.4 78 109 L 80 112.5 L 80 117.5 Q 78.4 121.9 71.5 121 L 66 116.5 Q 64.8 110.3 68.5 109 L 70.5 108 Z " /><path fill="rgb(207,244,191)" stroke="rgb(207,244,191)" stroke-width="1" opacity="1" d="M 114.5 109 Q 122.1 107.9 124 112.5 Q 124.6 117.9 123 120 L 119.5 122 L 114.5 122 L 110 118.5 L 110 113.5 L 112 110 L 114.5 109 Z " /><path fill="rgb(207,244,191)" stroke="rgb(207,244,191)" stroke-width="1" opacity="1" d="M 139.5 152 L 141.5 152 L 149 153.5 L 142 164.5 L 141 169 L 135 168.5 Q 139.3 166 138 159 L 140 158.5 L 138 158 Q 136.8 153.4 139.5 152 Z " /><path fill="rgb(207,244,191)" stroke="rgb(207,244,191)" stroke-width="1" opacity="1" d="M 46.5 155 L 49 156.5 L 48 160.5 L 52 169.5 L 47 171 L 48 166 Q 45.3 167.1 46 164.5 L 45 161.5 L 46 160.5 L 43 157.5 Q 42.2 154.9 45.5 156 L 46.5 155 Z " /><path fill="rgb(140,61,63)" stroke="rgb(140,61,63)" stroke-width="1" opacity="1" d="M 124.5 37 L 123.5 39 L 124.5 37 Z " /><path fill="rgb(140,61,63)" stroke="rgb(140,61,63)" stroke-width="1" opacity="1" d="M 125.5 44 L 129 44.5 L 125.5 45 L 125.5 44 Z " /><path fill="rgb(140,61,63)" stroke="rgb(140,61,63)" stroke-width="1" opacity="1" d="M 96.5 72 L 91.5 78 L 96.5 72 Z " /><path fill="rgb(140,61,63)" stroke="rgb(140,61,63)" stroke-width="1" opacity="1" d="M 111.5 73 L 114 73.5 L 111.5 74 L 111.5 73 Z " /><path fill="rgb(140,61,63)" stroke="rgb(140,61,63)" stroke-width="1" opacity="1" d="M 117.5 74 L 117.5 76 L 121.5 75 L 126 78.5 Q 126.8 80.8 124.5 80 L 117.5 85 L 111 75.5 L 117.5 74 Z " /><path fill="rgb(140,61,63)" stroke="rgb(140,61,63)" stroke-width="1" opacity="1" d="M 83.5 75 L 77 82.5 L 75.5 85 L 70 82.5 L 72.5 80 L 83.5 75 Z " /><path fill="rgb(140,61,63)" stroke="rgb(140,61,63)" stroke-width="1" opacity="1" d="M 145.5 87 L 146 91.5 L 145 91.5 L 145.5 87 Z " /><path fill="rgb(140,61,63)" stroke="rgb(140,61,63)" stroke-width="1" opacity="1" d="M 78.5 92 L 77.5 94 L 78.5 92 Z " /><path fill="rgb(140,61,63)" stroke="rgb(140,61,63)" stroke-width="1" opacity="1" d="M 70.5 101 Q 81.4 100.6 85 107.5 Q 87.9 111.1 87 118.5 L 81.5 126 L 74.5 128 Q 73.3 125.7 68.5 127 L 61 121.5 Q 58 118.5 59 111.5 L 62 105 L 70.5 101 Z M 72 107 L 68 109 L 65 113 L 66 118 Q 68 123 78 121 L 81 117 L 80 112 Q 78 107 72 107 Z " /><path fill="rgb(140,61,63)" stroke="rgb(140,61,63)" stroke-width="1" opacity="1" d="M 115.5 102 Q 124 102.2 128 106 L 131 111.5 L 131 118.5 L 125.5 126 Q 122 129.5 114.5 129 Q 107.9 128.1 105 123.5 Q 102.3 120.2 103 113.5 Q 104.5 107 109.5 104 L 115.5 102 Z M 117 108 L 114 109 L 109 115 L 110 120 L 116 123 L 121 122 L 125 117 L 124 112 L 117 108 Z " /><path fill="rgb(140,61,63)" stroke="rgb(140,61,63)" stroke-width="1" opacity="1" d="M 145.5 108 L 146 110.5 L 145 110.5 L 145.5 108 Z " /><path fill="rgb(140,61,63)" stroke="rgb(140,61,63)" stroke-width="1" opacity="1" d="M 35.5 120 L 43 121 L 44 124.5 L 41.5 123 L 34 121.5 L 35.5 120 Z " /><path fill="rgb(140,61,63)" stroke="rgb(140,61,63)" stroke-width="1" opacity="1" d="M 159.5 120 L 168.5 120 L 169 121.5 L 172 129.5 L 167.5 135 L 161 139.5 L 165 148.5 L 165 153 L 159.5 156 L 156.5 156 Q 151.9 149.1 138.5 151 L 137 151.5 Q 145.2 145.2 150 135.5 L 152 121 L 158.5 121 L 159.5 120 Z M 152 142 L 148 147 L 147 149 Q 153 151 155 148 Q 160 150 158 145 L 152 142 Z " /><path fill="rgb(140,61,63)" stroke="rgb(140,61,63)" stroke-width="1" opacity="1" d="M 43.5 127 L 47 138.5 Q 50.1 145.9 56 150.5 L 56 153.5 L 54.5 153 L 49.5 153 L 38.5 156 Q 36.3 155.3 37 151.5 L 38.5 152 L 41.5 153 L 46 145 L 39.5 147 L 40 145.5 L 41 143.5 L 28 135.5 Q 27.2 132.9 30.5 134 L 36.5 136 L 43.5 127 Z " /><path fill="rgb(140,61,63)" stroke="rgb(140,61,63)" stroke-width="1" opacity="1" d="M 84.5 135 L 95.5 138 L 105.5 135 L 107 138.5 L 101.5 142 L 94.5 143 L 84 140 L 83 136.5 L 84.5 135 Z " /><path fill="rgb(140,61,63)" stroke="rgb(140,61,63)" stroke-width="1" opacity="1" d="M 138.5 139 L 132.5 146 L 138.5 139 Z " /><path fill="rgb(140,61,63)" stroke="rgb(140,61,63)" stroke-width="1" opacity="1" d="M 68.5 157 Q 70.9 160.6 77 160.5 L 75 161 L 74 166.5 L 74.5 168 L 66 164.5 L 69 158.5 L 68.5 157 Z " /><path fill="rgb(140,61,63)" stroke="rgb(140,61,63)" stroke-width="1" opacity="1" d="M 124.5 158 Q 127.7 160.7 127 166 Q 121 166.2 118.5 171 L 120 168.5 L 121 165.5 L 118 161.5 L 124.5 158 Z " /><path fill="rgb(140,61,63)" stroke="rgb(140,61,63)" stroke-width="1" opacity="1" d="M 86 162 L 94 163.5 Q 90.4 164.9 91 170.5 L 93.5 174 L 83 171.5 L 85 171 L 86 162 Z " /><path fill="rgb(140,61,63)" stroke="rgb(140,61,63)" stroke-width="1" opacity="1" d="M 108.5 162 Q 110.8 161.3 110 163.5 L 113 171.5 L 103.5 173 L 105 170.5 L 104 164 L 101 163.5 L 108.5 162 Z " /><path fill="rgb(140,61,63)" stroke="rgb(140,61,63)" stroke-width="1" opacity="1" d="M 130.5 162 L 128.5 165 L 130.5 162 Z " /><path fill="rgb(140,61,63)" stroke="rgb(140,61,63)" stroke-width="1" opacity="1" d="M 54.5 170 Q 62.5 168.5 64 173.5 Q 68.5 178.4 69 186 L 65 185 L 60.5 176 L 57.5 182 Q 56.2 179.8 51.5 181 L 43.5 186 L 42 182.5 L 43 182.5 L 43.5 184 L 50 175.5 L 50 173 L 48 172.5 L 54.5 170 Z " /><path fill="rgb(140,61,63)" stroke="rgb(140,61,63)" stroke-width="1" opacity="1" d="M 133.5 170 Q 144.3 168.3 148 173.5 L 152 187 L 144.5 186 L 142 187.5 L 141.5 181 L 137.5 187 L 134.5 183 L 131.5 182 L 130 182.5 L 134 175 L 126.5 180 L 126 178.5 L 129 172 L 133.5 170 Z " /><path fill="rgb(140,61,63)" stroke="rgb(140,61,63)" stroke-width="1" opacity="1" d="M 95.5 174 L 100 174.5 L 95.5 175 L 95.5 174 Z " /><path fill="rgb(140,61,63)" stroke="rgb(140,61,63)" stroke-width="1" opacity="1" d="M 94.5 185 L 100 185.5 L 94.5 186 L 94.5 185 Z " /><path fill="rgb(140,61,63)" stroke="rgb(140,61,63)" stroke-width="1" opacity="1" d="M 138.5 188 L 141 189.5 L 139.5 190 L 138.5 188 Z " /><path fill="rgb(140,61,63)" stroke="rgb(140,61,63)" stroke-width="1" opacity="1" d="M 116.5 191 L 117.5 193 L 116.5 191 Z " /><path fill="rgb(140,61,63)" stroke="rgb(140,61,63)" stroke-width="1" opacity="1" d="M 75.5 192 L 74.5 194 L 75.5 192 Z " /><path fill="rgb(140,61,63)" stroke="rgb(140,61,63)" stroke-width="1" opacity="1" d="M 119.5 193 L 122 193.5 L 119.5 194 L 119.5 193 Z " /><path fill="rgb(140,61,63)" stroke="rgb(140,61,63)" stroke-width="1" opacity="1" d="M 44.5 194 L 45 197.5 L 44 200 Q 38.4 202.2 40 196.5 L 44.5 194 Z " /><path fill="rgb(140,61,63)" stroke="rgb(140,61,63)" stroke-width="1" opacity="1" d="M 130.5 196 L 137 199.5 L 135.5 200 Q 130.9 198.8 130.5 196 Z " /><path fill="rgb(140,61,63)" stroke="rgb(140,61,63)" stroke-width="1" opacity="1" d="M 149.5 197 L 157 199.5 L 149 200 L 149.5 197 Z " /><path fill="rgb(0,0,0)" stroke="rgb(0,0,0)" stroke-width="1" opacity="0.996078431372549" d="M 116.5 19 Q 123.1 19.4 126 23.5 L 128 30 Q 134.1 30.3 137 34.5 L 139 41.5 L 136 47.5 L 138 56.5 L 136 65.5 L 131 74 L 136.5 75 Q 141.1 69.4 150 69 L 151 72.5 L 152 93 L 161 92 L 162 67.5 L 163.5 66 L 165.5 66 L 170 70.5 Q 184.6 89.1 190 116 Q 186.4 118.2 177.5 117 L 175 118.5 L 179 127.5 L 179 131.5 L 171.5 140 Q 168.1 139.1 170 144.5 Q 173.2 147.8 172 155.5 L 166.5 160 L 157 164.5 Q 154 167.5 155 174.5 L 168 199.5 L 162.5 200 L 159 193 Q 156.3 194.9 149.5 194 L 146.5 193 L 147 194.5 L 148 200 L 143 200 L 143 198.5 L 142 196 Q 134.7 197.3 133 191.5 L 131.5 189 L 123.5 192 L 118.5 192 Q 115.3 190.3 117 183.5 L 119 177 L 111.5 178 L 108.5 176 Q 104.7 180.7 96.5 181 L 88.5 177 L 85.5 177 Q 84.2 179.3 79.5 178 L 72.5 175 L 73 176.5 L 76 184.5 L 76 189.5 L 73.5 193 L 68.5 193 L 55.5 188 Q 50.6 192.3 50 200 L 45 200 L 45 198.5 L 47 192 Q 44.9 193.6 39.5 193 L 36.5 189 L 32 200 L 26 199.5 Q 30.3 186.3 38 176.5 L 40 166.5 L 37.5 163 L 31 158.5 L 30 154.5 L 32 146.5 L 22 139.5 L 21 135.5 L 23 127.5 L 28 118 L 10.5 116 L 9 114.5 Q 11.4 80.9 30.5 64 L 32.5 63 L 34 71.5 L 34 84.5 L 36 94 Q 41.7 95 44 91.5 L 45 75.5 L 47.5 71 L 59.5 77 L 71.5 69 L 90.5 66 L 92.5 67 L 98.5 62 L 102.5 67 L 114.5 67 L 126.5 71 Q 132.5 64.5 132 51.5 Q 130.8 48.8 129.5 51 Q 119.8 51.8 117 45.5 L 116 40 Q 108.7 40.1 106 34.5 L 105 28.5 L 108 22 L 116.5 19 Z M 114 25 Q 110 26 111 33 L 116 35 L 119 34 Q 123 33 122 28 Q 121 24 114 25 Z M 126 36 L 122 39 L 123 45 L 126 46 L 133 43 L 132 38 Q 132 35 126 36 Z M 97 71 L 81 88 L 78 93 L 75 93 L 59 82 L 50 79 L 49 85 L 49 124 Q 51 134 56 142 L 69 152 L 90 157 L 114 156 Q 125 154 133 147 Q 140 142 144 133 L 145 122 L 146 121 L 146 113 L 147 112 L 147 88 L 146 87 L 146 76 Q 129 82 117 94 L 106 79 Q 103 73 97 71 Z M 82 72 L 71 75 L 64 80 L 72 85 L 77 86 L 88 73 L 82 72 Z M 108 72 L 108 75 L 118 86 L 129 79 L 122 74 L 108 72 Z M 28 75 Q 16 89 15 111 L 27 113 L 34 113 L 35 114 L 44 114 L 44 99 L 31 99 L 29 87 L 29 77 L 28 75 Z M 168 77 L 166 84 L 166 96 L 152 98 L 152 111 L 151 112 L 153 115 L 182 112 L 183 111 Q 179 90 168 77 Z M 166 118 L 165 119 L 151 120 L 150 123 L 149 134 L 147 139 L 135 152 L 137 157 L 137 163 L 132 170 L 128 171 L 122 186 L 134 184 L 140 191 L 146 187 L 154 189 L 149 174 Q 149 163 156 160 Q 162 162 160 156 L 167 153 L 163 140 L 169 136 L 173 131 L 173 127 L 170 120 Q 169 117 166 118 Z M 34 119 L 28 130 L 27 137 Q 31 142 39 143 L 36 152 L 36 156 L 40 158 L 42 157 L 46 168 L 46 172 L 43 176 L 41 183 L 42 187 L 46 187 L 53 182 Q 57 181 56 184 L 71 188 L 71 185 L 67 176 L 56 161 Q 55 154 58 152 Q 46 141 44 121 L 43 119 L 34 119 Z M 63 154 L 61 156 L 62 163 L 81 173 L 89 173 L 97 176 L 107 173 L 119 172 L 132 163 Q 133 156 131 155 L 120 160 L 109 162 L 83 161 Q 80 158 74 159 L 63 154 Z " /><path fill="rgb(39,33,30)" stroke="rgb(39,33,30)" stroke-width="1" opacity="1" d="M 84.5 75 L 83.5 77 L 84.5 75 Z " /><path fill="rgb(39,33,30)" stroke="rgb(39,33,30)" stroke-width="1" opacity="1" d="M 78.5 82 L 75.5 86 L 74 85.5 L 78.5 82 Z " /><path fill="rgb(39,33,30)" stroke="rgb(39,33,30)" stroke-width="1" opacity="1" d="M 146.5 97 L 147 103.5 L 146 103.5 L 146.5 97 Z " /><path fill="rgb(39,33,30)" stroke="rgb(39,33,30)" stroke-width="1" opacity="1" d="M 35.5 119 L 38 119.5 L 35.5 120 L 35.5 119 Z " /><path fill="rgb(39,33,30)" stroke="rgb(39,33,30)" stroke-width="1" opacity="1" d="M 160.5 119 L 164 119.5 L 160.5 120 L 160.5 119 Z " /><path fill="rgb(39,33,30)" stroke="rgb(39,33,30)" stroke-width="1" opacity="1" d="M 152.5 120 L 156 120.5 L 151.5 122 L 152.5 120 Z " /><path fill="rgb(39,33,30)" stroke="rgb(39,33,30)" stroke-width="1" opacity="1" d="M 171.5 131 L 169.5 134 L 171.5 131 Z " /><path fill="rgb(39,33,30)" stroke="rgb(39,33,30)" stroke-width="1" opacity="1" d="M 27.5 133 L 28 135.5 L 27 135.5 L 27.5 133 Z " /><path fill="rgb(39,33,30)" stroke="rgb(39,33,30)" stroke-width="1" opacity="1" d="M 145.5 141 L 144.5 143 L 145.5 141 Z " /><path fill="rgb(39,33,30)" stroke="rgb(39,33,30)" stroke-width="1" opacity="1" d="M 136.5 142 L 134.5 145 L 136.5 142 Z " /><path fill="rgb(39,33,30)" stroke="rgb(39,33,30)" stroke-width="1" opacity="1" d="M 99.5 162 L 105 162.5 L 99.5 163 L 99.5 162 Z " /><path fill="rgb(39,33,30)" stroke="rgb(39,33,30)" stroke-width="1" opacity="1" d="M 107.5 172 L 110 172.5 L 107.5 173 L 107.5 172 Z " /><path fill="rgb(39,33,30)" stroke="rgb(39,33,30)" stroke-width="1" opacity="1" d="M 107.5 177 L 106.5 179 L 107.5 177 Z " /><path fill="rgb(39,33,30)" stroke="rgb(39,33,30)" stroke-width="1" opacity="1" d="M 80.5 178 L 85 178.5 L 80.5 179 L 80.5 178 Z " /><path fill="rgb(39,33,30)" stroke="rgb(39,33,30)" stroke-width="1" opacity="1" d="M 89.5 178 L 90.5 180 L 89.5 178 Z " /><path fill="rgb(39,33,30)" stroke="rgb(39,33,30)" stroke-width="1" opacity="1" d="M 112.5 178 L 116 178.5 L 112.5 179 L 112.5 178 Z " /><path fill="rgb(39,33,30)" stroke="rgb(39,33,30)" stroke-width="1" opacity="1" d="M 96.5 181 L 100 181.5 L 96.5 182 L 96.5 181 Z " /><path fill="rgb(39,33,30)" stroke="rgb(39,33,30)" stroke-width="1" opacity="1" d="M 57.5 182 L 58.5 184 L 57.5 182 Z " /><path fill="rgb(39,33,30)" stroke="rgb(39,33,30)" stroke-width="1" opacity="1" d="M 76.5 184 L 77 189.5 L 76 189.5 L 76.5 184 Z " /><path fill="rgb(39,33,30)" stroke="rgb(39,33,30)" stroke-width="1" opacity="1" d="M 145.5 186 L 148 186.5 L 145.5 187 L 145.5 186 Z " /><path fill="rgb(39,33,30)" stroke="rgb(39,33,30)" stroke-width="1" opacity="1" d="M 36.5 190 L 37.5 192 L 36.5 190 Z " /><path fill="rgb(39,33,30)" stroke="rgb(39,33,30)" stroke-width="1" opacity="1" d="M 131.5 190 L 132.5 192 L 131.5 190 Z " /><path fill="rgb(39,33,30)" stroke="rgb(39,33,30)" stroke-width="1" opacity="1" d="M 70.5 193 L 73 193.5 L 70.5 194 L 70.5 193 Z " /><path fill="rgb(39,33,30)" stroke="rgb(39,33,30)" stroke-width="1" opacity="1" d="M 157.5 193 L 158.5 195 L 157.5 193 Z " /><path fill="rgb(160,214,62)" stroke="rgb(160,214,62)" stroke-width="1" opacity="1" d="M 97.5 72 L 106 80.5 Q 109.9 89.6 117 95.5 L 117 100 Q 109 100.9 105 106.5 L 102 112.5 L 102 119.5 L 105.5 126 L 109.5 128 L 120 129 L 119 145.5 L 117 150.5 L 118.5 151 L 123.5 148 L 122.5 150 L 119 151.5 L 121 152.5 L 119.5 153 L 117 152 Q 118.3 155.7 112.5 154 L 103.5 156 L 91.5 156 L 75 153 L 74 128 L 81.5 126 L 85 122.5 Q 88 119.5 88 113.5 L 86 106.5 L 79.5 100 L 78 99.5 L 82 96.5 L 97.5 72 Z M 85 135 L 83 139 L 89 142 L 94 143 L 105 141 L 107 139 L 106 135 L 101 137 Q 90 138 85 135 Z " /><path fill="rgb(160,214,62)" stroke="rgb(160,214,62)" stroke-width="1" opacity="1" d="M 143.5 80 L 144 83.5 L 143 83.5 L 143.5 80 Z " /><path fill="rgb(160,214,62)" stroke="rgb(160,214,62)" stroke-width="1" opacity="1" d="M 86.5 83 L 85.5 85 L 86.5 83 Z " /><path fill="rgb(160,214,62)" stroke="rgb(160,214,62)" stroke-width="1" opacity="1" d="M 145.5 92 L 146 107.5 L 145 107.5 L 145.5 92 Z " /><path fill="rgb(160,214,62)" stroke="rgb(160,214,62)" stroke-width="1" opacity="1" d="M 142.5 110 L 143 116.5 L 142 116.5 L 142.5 110 Z " /><path fill="rgb(160,214,62)" stroke="rgb(160,214,62)" stroke-width="1" opacity="1" d="M 141.5 120 L 142 122.5 L 141 122.5 L 141.5 120 Z " /><path fill="rgb(160,214,62)" stroke="rgb(160,214,62)" stroke-width="1" opacity="1" d="M 138.5 132 L 139 133.5 L 137 134.5 L 138.5 132 Z " /><path fill="rgb(160,214,62)" stroke="rgb(160,214,62)" stroke-width="1" opacity="1" d="M 135.5 138 L 134.5 140 L 135.5 138 Z " /><path fill="rgb(160,214,62)" stroke="rgb(160,214,62)" stroke-width="1" opacity="1" d="M 130.5 143 L 128.5 146 L 125.5 148 L 127.5 145 L 130.5 143 Z " /><path fill="rgb(160,214,62)" stroke="rgb(160,214,62)" stroke-width="1" opacity="1" d="M 48.5 160 Q 54.5 158.5 56 161.5 L 54.5 161 L 48.5 161 L 48.5 160 Z " /><path fill="rgb(160,214,62)" stroke="rgb(160,214,62)" stroke-width="1" opacity="1" d="M 52.5 163 L 55 163.5 L 52.5 164 L 52.5 163 Z " /><path fill="rgb(0,0,0)" stroke="rgb(0,0,0)" stroke-width="1" opacity="0.7568627450980392" d="M 113.5 19 L 116 19.5 L 113.5 20 L 113.5 19 Z " /><path fill="rgb(0,0,0)" stroke="rgb(0,0,0)" stroke-width="1" opacity="0.7568627450980392" d="M 110.5 20 L 112 20.5 L 109.5 22 L 110.5 20 Z " /><path fill="rgb(0,0,0)" stroke="rgb(0,0,0)" stroke-width="1" opacity="0.7568627450980392" d="M 107.5 23 L 106.5 25 L 107.5 23 Z " /><path fill="rgb(0,0,0)" stroke="rgb(0,0,0)" stroke-width="1" opacity="0.7568627450980392" d="M 106.5 35 L 109.5 39 L 106.5 35 Z " /><path fill="rgb(0,0,0)" stroke="rgb(0,0,0)" stroke-width="1" opacity="0.7568627450980392" d="M 137.5 45 L 137 46.5 L 136.5 48 L 136 46.5 L 137.5 45 Z " /><path fill="rgb(0,0,0)" stroke="rgb(0,0,0)" stroke-width="1" opacity="0.7568627450980392" d="M 117.5 46 L 120.5 50 L 117.5 46 Z " /><path fill="rgb(0,0,0)" stroke="rgb(0,0,0)" stroke-width="1" opacity="0.7568627450980392" d="M 130.5 50 Q 133.8 51.8 132 58.5 L 131 58.5 Q 131.6 51.8 130.5 50 Z " /><path fill="rgb(0,0,0)" stroke="rgb(0,0,0)" stroke-width="1" opacity="0.7568627450980392" d="M 137.5 50 L 138 53.5 L 137 53.5 L 137.5 50 Z " /><path fill="rgb(0,0,0)" stroke="rgb(0,0,0)" stroke-width="1" opacity="0.7568627450980392" d="M 137.5 57 L 138 60.5 L 137 60.5 L 137.5 57 Z " /><path fill="rgb(0,0,0)" stroke="rgb(0,0,0)" stroke-width="1" opacity="0.7568627450980392" d="M 29.5 64 L 24.5 70 L 29.5 64 Z " /><path fill="rgb(0,0,0)" stroke="rgb(0,0,0)" stroke-width="1" opacity="0.7568627450980392" d="M 101.5 65 L 102.5 66 L 112 66.5 L 102.5 67 L 101.5 65 Z " /><path fill="rgb(0,0,0)" stroke="rgb(0,0,0)" stroke-width="1" opacity="0.7568627450980392" d="M 163.5 65 L 165 65.5 L 162.5 67 L 163.5 65 Z " /><path fill="rgb(0,0,0)" stroke="rgb(0,0,0)" stroke-width="1" opacity="0.7568627450980392" d="M 82.5 66 L 88 66.5 L 82.5 67 L 82.5 66 Z " /><path fill="rgb(0,0,0)" stroke="rgb(0,0,0)" stroke-width="1" opacity="0.7568627450980392" d="M 166.5 66 L 168.5 69 L 166.5 66 Z " /><path fill="rgb(0,0,0)" stroke="rgb(0,0,0)" stroke-width="1" opacity="0.7568627450980392" d="M 33.5 67 L 34 70.5 L 33 70.5 L 33.5 67 Z " /><path fill="rgb(0,0,0)" stroke="rgb(0,0,0)" stroke-width="1" opacity="0.7568627450980392" d="M 144.5 69 L 146 69.5 L 142.5 71 L 142.5 70 L 144.5 69 Z " /><path fill="rgb(0,0,0)" stroke="rgb(0,0,0)" stroke-width="1" opacity="0.7568627450980392" d="M 47.5 70 L 46.5 72 L 47.5 70 Z " /><path fill="rgb(0,0,0)" stroke="rgb(0,0,0)" stroke-width="1" opacity="0.7568627450980392" d="M 67.5 70 L 69 70.5 L 66.5 72 L 67.5 70 Z " /><path fill="rgb(0,0,0)" stroke="rgb(0,0,0)" stroke-width="1" opacity="0.7568627450980392" d="M 133.5 70 L 132 72.5 L 131.5 74 L 131 72.5 L 133.5 70 Z " /><path fill="rgb(0,0,0)" stroke="rgb(0,0,0)" stroke-width="1" opacity="0.7568627450980392" d="M 23.5 71 L 22.5 73 L 23.5 71 Z " /><path fill="rgb(0,0,0)" stroke="rgb(0,0,0)" stroke-width="1" opacity="0.7568627450980392" d="M 170.5 71 L 171.5 73 L 170.5 71 Z " /><path fill="rgb(0,0,0)" stroke="rgb(0,0,0)" stroke-width="1" opacity="0.7568627450980392" d="M 52.5 72 L 56 74.5 L 54.5 74 L 52.5 72 Z " /><path fill="rgb(0,0,0)" stroke="rgb(0,0,0)" stroke-width="1" opacity="0.7568627450980392" d="M 64.5 72 L 63.5 74 L 64.5 72 Z " /><path fill="rgb(0,0,0)" stroke="rgb(0,0,0)" stroke-width="1" opacity="0.7568627450980392" d="M 137.5 73 L 136.5 75 L 137.5 73 Z " /><path fill="rgb(0,0,0)" stroke="rgb(0,0,0)" stroke-width="1" opacity="0.7568627450980392" d="M 21.5 74 L 20.5 76 L 21.5 74 Z " /><path fill="rgb(0,0,0)" stroke="rgb(0,0,0)" stroke-width="1" opacity="0.7568627450980392" d="M 61.5 74 L 59.5 77 L 61.5 74 Z " /><path fill="rgb(0,0,0)" stroke="rgb(0,0,0)" stroke-width="1" opacity="0.7568627450980392" d="M 172.5 74 L 173.5 76 L 172.5 74 Z " /><path fill="rgb(0,0,0)" stroke="rgb(0,0,0)" stroke-width="1" opacity="0.7568627450980392" d="M 151.5 76 L 152 82.5 L 151 82.5 L 151.5 76 Z " /><path fill="rgb(0,0,0)" stroke="rgb(0,0,0)" stroke-width="1" opacity="0.7568627450980392" d="M 161.5 76 L 162 81.5 L 161 81.5 L 161.5 76 Z " /><path fill="rgb(0,0,0)" stroke="rgb(0,0,0)" stroke-width="1" opacity="0.7568627450980392" d="M 19.5 77 L 19 78.5 L 17.5 82 L 17 80.5 L 19.5 77 Z " /><path fill="rgb(0,0,0)" stroke="rgb(0,0,0)" stroke-width="1" opacity="0.7568627450980392" d="M 174.5 77 L 175.5 79 L 174.5 77 Z " /><path fill="rgb(0,0,0)" stroke="rgb(0,0,0)" stroke-width="1" opacity="0.7568627450980392" d="M 34.5 79 L 35 84.5 L 34 84.5 L 34.5 79 Z " /><path fill="rgb(0,0,0)" stroke="rgb(0,0,0)" stroke-width="1" opacity="0.7568627450980392" d="M 44.5 79 L 45 81.5 L 44 81.5 L 44.5 79 Z " /><path fill="rgb(0,0,0)" stroke="rgb(0,0,0)" stroke-width="1" opacity="0.7568627450980392" d="M 177.5 82 L 178.5 84 L 177.5 82 Z " /><path fill="rgb(0,0,0)" stroke="rgb(0,0,0)" stroke-width="1" opacity="0.7568627450980392" d="M 43.5 87 L 44 91.5 L 43 91.5 L 43.5 87 Z " /><path fill="rgb(0,0,0)" stroke="rgb(0,0,0)" stroke-width="1" opacity="0.7568627450980392" d="M 35.5 89 L 36 91.5 L 35 91.5 L 35.5 89 Z " /><path fill="rgb(0,0,0)" stroke="rgb(0,0,0)" stroke-width="1" opacity="0.7568627450980392" d="M 152.5 91 L 157 92.5 L 152 93 L 152.5 91 Z " /><path fill="rgb(0,0,0)" stroke="rgb(0,0,0)" stroke-width="1" opacity="0.7568627450980392" d="M 36.5 93 L 41 93.5 L 36.5 94 L 36.5 93 Z " /><path fill="rgb(0,0,0)" stroke="rgb(0,0,0)" stroke-width="1" opacity="0.7568627450980392" d="M 9.5 105 L 10 109.5 L 9 109.5 L 9.5 105 Z " /><path fill="rgb(0,0,0)" stroke="rgb(0,0,0)" stroke-width="1" opacity="0.7568627450980392" d="M 14.5 116 L 17 116.5 L 14.5 117 L 14.5 116 Z " /><path fill="rgb(0,0,0)" stroke="rgb(0,0,0)" stroke-width="1" opacity="0.7568627450980392" d="M 20.5 117 L 24 117.5 L 20.5 118 L 20.5 117 Z " /><path fill="rgb(0,0,0)" stroke="rgb(0,0,0)" stroke-width="1" opacity="0.7568627450980392" d="M 177.5 117 L 182 117.5 L 177.5 118 L 177.5 117 Z " /><path fill="rgb(0,0,0)" stroke="rgb(0,0,0)" stroke-width="1" opacity="0.7568627450980392" d="M 26.5 121 L 26 122.5 L 24.5 125 L 25 123.5 L 26.5 121 Z " /><path fill="rgb(0,0,0)" stroke="rgb(0,0,0)" stroke-width="1" opacity="0.7568627450980392" d="M 21.5 132 L 22 134.5 L 21 134.5 L 21.5 132 Z " /><path fill="rgb(0,0,0)" stroke="rgb(0,0,0)" stroke-width="1" opacity="0.7568627450980392" d="M 177.5 134 L 173.5 139 L 177.5 134 Z " /><path fill="rgb(0,0,0)" stroke="rgb(0,0,0)" stroke-width="1" opacity="0.7568627450980392" d="M 21.5 136 L 22 138.5 L 21 138.5 L 21.5 136 Z " /><path fill="rgb(0,0,0)" stroke="rgb(0,0,0)" stroke-width="1" opacity="0.7568627450980392" d="M 22.5 140 L 24.5 143 L 22.5 140 Z " /><path fill="rgb(0,0,0)" stroke="rgb(0,0,0)" stroke-width="1" opacity="0.7568627450980392" d="M 172.5 150 L 173 154.5 L 172 154.5 L 172.5 150 Z " /><path fill="rgb(0,0,0)" stroke="rgb(0,0,0)" stroke-width="1" opacity="0.7568627450980392" d="M 30.5 151 L 31 153.5 L 30 153.5 L 30.5 151 Z " /><path fill="rgb(0,0,0)" stroke="rgb(0,0,0)" stroke-width="1" opacity="0.7568627450980392" d="M 171.5 156 L 170.5 158 L 171.5 156 Z " /><path fill="rgb(0,0,0)" stroke="rgb(0,0,0)" stroke-width="1" opacity="0.7568627450980392" d="M 168.5 158 L 167.5 160 L 168.5 158 Z " /><path fill="rgb(0,0,0)" stroke="rgb(0,0,0)" stroke-width="1" opacity="0.7568627450980392" d="M 31.5 159 L 32.5 161 L 31.5 159 Z " /><path fill="rgb(0,0,0)" stroke="rgb(0,0,0)" stroke-width="1" opacity="0.7568627450980392" d="M 164.5 160 L 166 160.5 L 162.5 162 L 162.5 161 L 164.5 160 Z " /><path fill="rgb(0,0,0)" stroke="rgb(0,0,0)" stroke-width="1" opacity="0.7568627450980392" d="M 37.5 163 L 38.5 165 L 37.5 163 Z " /><path fill="rgb(0,0,0)" stroke="rgb(0,0,0)" stroke-width="1" opacity="0.7568627450980392" d="M 158.5 163 L 157.5 165 L 158.5 163 Z " /><path fill="rgb(0,0,0)" stroke="rgb(0,0,0)" stroke-width="1" opacity="0.7568627450980392" d="M 157.5 179 L 158.5 181 L 157.5 179 Z " /><path fill="rgb(0,0,0)" stroke="rgb(0,0,0)" stroke-width="1" opacity="0.7568627450980392" d="M 33.5 183 L 32.5 185 L 33.5 183 Z " /></svg>