<svg width="200" height="200" version="1.1" xmlns="http://www.w3.org/2000/svg" desc="Created with imagetracer.js version 1.2.6" ><path fill="rgb(0,0,0)" stroke="rgb(0,0,0)" stroke-width="1" opacity="0" d="M 0 0 L 126.5 0 Q 127.5 0 127 4.5 L 117.5 15 L 109.5 18 L 104 14.5 L 103 9.5 L 104 7.5 L 102.5 6 L 94.5 6 Q 85.8 8.8 81 15.5 Q 80.1 22.1 75.5 25 L 70.5 27 L 64 23.5 L 62.5 20 L 50 30.5 L 41 45.5 L 40 56.5 L 43 65.5 L 43 71.5 L 39.5 76 L 35.5 77 L 25.5 73 L 23 77.5 L 23 79.5 L 23 88.5 L 27 95.5 L 27 101.5 Q 25.5 107.5 16.5 106 L 10 101.5 Q 11.5 97.1 8.5 98 L 1 106.5 L 0.5 109 L 0 0 Z " /><path fill="rgb(0,0,0)" stroke="rgb(0,0,0)" stroke-width="1" opacity="0" d="M 134.5 0 L 200 0 L 200 112.5 L 196 109.5 Q 192.7 105.8 194 97.5 Q 196.5 96 195 90.5 L 190.5 81 L 186.5 83 L 177.5 84 L 169 78.5 L 167 68.5 L 169 61.5 L 168 58.5 L 168 54.5 L 168 46.5 L 164 36 L 153.5 37 L 152 35.5 L 152 29.5 L 149 17.5 L 141 4 L 134.5 1 L 134.5 0 Z " /><path fill="rgb(0,0,0)" stroke="rgb(0,0,0)" stroke-width="1" opacity="1" d="M 99.5 34 L 115.5 34 L 126.5 36 Q 138.5 39 145 47.5 L 149 57.5 L 149 74 Q 156.3 73.9 159 79.5 Q 162.8 84.2 161 94.5 L 159 100.5 L 187.5 121 L 191.5 122 L 192.5 121 L 200 121 Q 202.8 128.5 194.5 126 Q 192.8 128.7 186.5 127 L 157.5 106 L 154.5 106 Q 152.3 110 147 110 L 145 123.5 L 141.5 129 L 123.5 139 L 108.5 143 L 98.5 145 L 76.5 145 L 59.5 141 L 51 133.5 L 50 128.5 L 51 127.5 L 51 105.5 L 48.5 107 L 25.5 125 L 19.5 128 L 18.5 127 L 5.5 127 L 0 128 L 0 122 L 8.5 122 Q 9.8 119.8 14.5 121 Q 15.8 123.3 20.5 122 L 51 97.5 L 50 60.5 L 51 55.5 L 55.5 49 L 73.5 40 L 86.5 36 L 98.5 35 L 99.5 34 Z M 103 39 L 102 40 L 85 42 Q 70 46 60 53 L 56 59 L 56 131 L 63 136 L 82 140 Q 113 140 133 128 L 139 121 L 142 107 L 151 103 L 154 99 L 156 92 L 155 84 L 150 79 L 146 79 L 141 81 L 139 78 L 144 74 Q 146 59 141 52 Q 136 43 125 41 L 114 40 L 113 39 L 103 39 Z " /><path fill="rgb(36,26,17)" stroke="rgb(36,26,17)" stroke-width="1" opacity="1" d="M 96.5 34 L 99 34.5 L 96.5 35 L 96.5 34 Z " /><path fill="rgb(36,26,17)" stroke="rgb(36,26,17)" stroke-width="1" opacity="1" d="M 116.5 34 L 119 34.5 L 116.5 35 L 116.5 34 Z " /><path fill="rgb(36,26,17)" stroke="rgb(36,26,17)" stroke-width="1" opacity="1" d="M 102.5 39 L 113 39.5 L 102.5 40 L 102.5 39 Z " /><path fill="rgb(36,26,17)" stroke="rgb(36,26,17)" stroke-width="1" opacity="1" d="M 141.5 43 L 143.5 46 L 141.5 43 Z " /><path fill="rgb(36,26,17)" stroke="rgb(36,26,17)" stroke-width="1" opacity="1" d="M 62.5 51 L 61.5 53 L 62.5 51 Z " /><path fill="rgb(36,26,17)" stroke="rgb(36,26,17)" stroke-width="1" opacity="1" d="M 59.5 53 L 58.5 55 L 59.5 53 Z " /><path fill="rgb(36,26,17)" stroke="rgb(36,26,17)" stroke-width="1" opacity="1" d="M 143.5 60 L 144 73.5 L 142 74.5 L 143 73.5 L 143.5 60 Z " /><path fill="rgb(36,26,17)" stroke="rgb(36,26,17)" stroke-width="1" opacity="1" d="M 149.5 61 L 150 70.5 L 149 70.5 L 149.5 61 Z " /><path fill="rgb(36,26,17)" stroke="rgb(36,26,17)" stroke-width="1" opacity="1" d="M 140.5 75 L 139.5 77 L 140.5 75 Z " /><path fill="rgb(36,26,17)" stroke="rgb(36,26,17)" stroke-width="1" opacity="1" d="M 156.5 76 L 157.5 78 L 156.5 76 Z " /><path fill="rgb(36,26,17)" stroke="rgb(36,26,17)" stroke-width="1" opacity="1" d="M 138.5 78 L 140 80.5 L 138 79.5 L 138.5 78 Z " /><path fill="rgb(36,26,17)" stroke="rgb(36,26,17)" stroke-width="1" opacity="1" d="M 145.5 79 L 150 79.5 L 145.5 80 L 145.5 79 Z " /><path fill="rgb(36,26,17)" stroke="rgb(36,26,17)" stroke-width="1" opacity="1" d="M 50.5 82 L 51 95.5 L 50 95.5 L 50.5 82 Z " /><path fill="rgb(36,26,17)" stroke="rgb(36,26,17)" stroke-width="1" opacity="1" d="M 153.5 82 L 155 84.5 L 154 84.5 L 153.5 82 Z " /><path fill="rgb(36,26,17)" stroke="rgb(36,26,17)" stroke-width="1" opacity="1" d="M 155.5 86 L 156 91.5 L 155 91.5 L 155.5 86 Z " /><path fill="rgb(36,26,17)" stroke="rgb(36,26,17)" stroke-width="1" opacity="1" d="M 161.5 87 L 162 91.5 L 161 91.5 L 161.5 87 Z " /><path fill="rgb(36,26,17)" stroke="rgb(36,26,17)" stroke-width="1" opacity="1" d="M 56.5 97 L 57 118.5 L 56 118.5 L 56.5 97 Z " /><path fill="rgb(36,26,17)" stroke="rgb(36,26,17)" stroke-width="1" opacity="1" d="M 153.5 97 L 154 98.5 L 152 99.5 L 153.5 97 Z " /><path fill="rgb(36,26,17)" stroke="rgb(36,26,17)" stroke-width="1" opacity="1" d="M 48.5 99 L 47.5 101 L 48.5 99 Z " /><path fill="rgb(36,26,17)" stroke="rgb(36,26,17)" stroke-width="1" opacity="1" d="M 159.5 99 L 162 102.5 L 159 100.5 L 159.5 99 Z " /><path fill="rgb(36,26,17)" stroke="rgb(36,26,17)" stroke-width="1" opacity="1" d="M 151.5 101 L 150.5 103 L 151.5 101 Z " /><path fill="rgb(36,26,17)" stroke="rgb(36,26,17)" stroke-width="1" opacity="1" d="M 44.5 102 L 43.5 104 L 44.5 102 Z " /><path fill="rgb(36,26,17)" stroke="rgb(36,26,17)" stroke-width="1" opacity="1" d="M 163.5 103 L 164.5 105 L 163.5 103 Z " /><path fill="rgb(36,26,17)" stroke="rgb(36,26,17)" stroke-width="1" opacity="1" d="M 144.5 104 L 147 104.5 L 144.5 105 L 144.5 104 Z " /><path fill="rgb(36,26,17)" stroke="rgb(36,26,17)" stroke-width="1" opacity="1" d="M 142.5 105 L 142 106.5 L 141.5 108 L 141 106.5 L 142.5 105 Z " /><path fill="rgb(36,26,17)" stroke="rgb(36,26,17)" stroke-width="1" opacity="1" d="M 39.5 106 L 38.5 108 L 39.5 106 Z " /><path fill="rgb(36,26,17)" stroke="rgb(36,26,17)" stroke-width="1" opacity="1" d="M 154.5 106 L 153.5 108 L 154.5 106 Z " /><path fill="rgb(36,26,17)" stroke="rgb(36,26,17)" stroke-width="1" opacity="1" d="M 47.5 107 L 46.5 109 L 47.5 107 Z " /><path fill="rgb(36,26,17)" stroke="rgb(36,26,17)" stroke-width="1" opacity="1" d="M 160.5 108 L 161.5 110 L 160.5 108 Z " /><path fill="rgb(36,26,17)" stroke="rgb(36,26,17)" stroke-width="1" opacity="1" d="M 170.5 108 L 171.5 110 L 170.5 108 Z " /><path fill="rgb(36,26,17)" stroke="rgb(36,26,17)" stroke-width="1" opacity="1" d="M 35.5 109 L 34.5 111 L 35.5 109 Z " /><path fill="rgb(36,26,17)" stroke="rgb(36,26,17)" stroke-width="1" opacity="1" d="M 43.5 110 L 41.5 113 L 43.5 110 Z " /><path fill="rgb(36,26,17)" stroke="rgb(36,26,17)" stroke-width="1" opacity="1" d="M 140.5 110 L 141 112.5 L 140 112.5 L 140.5 110 Z " /><path fill="rgb(36,26,17)" stroke="rgb(36,26,17)" stroke-width="1" opacity="1" d="M 163.5 110 L 164.5 112 L 163.5 110 Z " /><path fill="rgb(36,26,17)" stroke="rgb(36,26,17)" stroke-width="1" opacity="1" d="M 50.5 112 L 51 127.5 L 50 127.5 L 50.5 112 Z " /><path fill="rgb(36,26,17)" stroke="rgb(36,26,17)" stroke-width="1" opacity="1" d="M 30.5 113 L 29.5 115 L 30.5 113 Z " /><path fill="rgb(36,26,17)" stroke="rgb(36,26,17)" stroke-width="1" opacity="1" d="M 38.5 114 L 37.5 116 L 38.5 114 Z " /><path fill="rgb(36,26,17)" stroke="rgb(36,26,17)" stroke-width="1" opacity="1" d="M 170.5 115 L 171.5 117 L 170.5 115 Z " /><path fill="rgb(36,26,17)" stroke="rgb(36,26,17)" stroke-width="1" opacity="1" d="M 180.5 115 L 181.5 117 L 180.5 115 Z " /><path fill="rgb(36,26,17)" stroke="rgb(36,26,17)" stroke-width="1" opacity="1" d="M 26.5 116 L 25.5 118 L 26.5 116 Z " /><path fill="rgb(36,26,17)" stroke="rgb(36,26,17)" stroke-width="1" opacity="1" d="M 33.5 118 L 32.5 120 L 33.5 118 Z " /><path fill="rgb(36,26,17)" stroke="rgb(36,26,17)" stroke-width="1" opacity="1" d="M 21.5 120 L 20.5 122 L 21.5 120 Z " /><path fill="rgb(36,26,17)" stroke="rgb(36,26,17)" stroke-width="1" opacity="1" d="M 177.5 120 L 178.5 122 L 177.5 120 Z " /><path fill="rgb(36,26,17)" stroke="rgb(36,26,17)" stroke-width="1" opacity="1" d="M 196.5 120 L 200 120.5 L 196.5 121 L 196.5 120 Z " /><path fill="rgb(36,26,17)" stroke="rgb(36,26,17)" stroke-width="1" opacity="1" d="M 6.5 121 L 9 121.5 L 6.5 122 L 6.5 121 Z " /><path fill="rgb(36,26,17)" stroke="rgb(36,26,17)" stroke-width="1" opacity="1" d="M 15.5 121 L 18 121.5 L 15.5 122 L 15.5 121 Z " /><path fill="rgb(36,26,17)" stroke="rgb(36,26,17)" stroke-width="1" opacity="1" d="M 29.5 121 L 28.5 123 L 29.5 121 Z " /><path fill="rgb(36,26,17)" stroke="rgb(36,26,17)" stroke-width="1" opacity="1" d="M 189.5 121 L 192 121.5 L 189.5 122 L 189.5 121 Z " /><path fill="rgb(36,26,17)" stroke="rgb(36,26,17)" stroke-width="1" opacity="1" d="M 137.5 122 L 136.5 124 L 137.5 122 Z " /><path fill="rgb(36,26,17)" stroke="rgb(36,26,17)" stroke-width="1" opacity="1" d="M 184.5 125 L 185.5 127 L 184.5 125 Z " /><path fill="rgb(36,26,17)" stroke="rgb(36,26,17)" stroke-width="1" opacity="1" d="M 22.5 126 L 21.5 128 L 22.5 126 Z " /><path fill="rgb(36,26,17)" stroke="rgb(36,26,17)" stroke-width="1" opacity="1" d="M 133.5 126 L 132.5 128 L 133.5 126 Z " /><path fill="rgb(36,26,17)" stroke="rgb(36,26,17)" stroke-width="1" opacity="1" d="M 16.5 127 L 19 127.5 L 16.5 128 L 16.5 127 Z " /><path fill="rgb(36,26,17)" stroke="rgb(36,26,17)" stroke-width="1" opacity="1" d="M 50.5 129 L 51 131.5 L 50 131.5 L 50.5 129 Z " /><path fill="rgb(36,26,17)" stroke="rgb(36,26,17)" stroke-width="1" opacity="1" d="M 140.5 129 L 139.5 131 L 140.5 129 Z " /><path fill="rgb(36,26,17)" stroke="rgb(36,26,17)" stroke-width="1" opacity="1" d="M 56.5 130 L 57.5 132 L 56.5 130 Z " /><path fill="rgb(36,26,17)" stroke="rgb(36,26,17)" stroke-width="1" opacity="1" d="M 59.5 133 L 60.5 135 L 59.5 133 Z " /><path fill="rgb(36,26,17)" stroke="rgb(36,26,17)" stroke-width="1" opacity="1" d="M 115.5 134 L 118 134.5 L 115.5 135 L 115.5 134 Z " /><path fill="rgb(36,26,17)" stroke="rgb(36,26,17)" stroke-width="1" opacity="1" d="M 52.5 135 L 55.5 139 L 52.5 135 Z " /><path fill="rgb(36,26,17)" stroke="rgb(36,26,17)" stroke-width="1" opacity="1" d="M 107.5 136 L 110 136.5 L 107.5 137 L 107.5 136 Z " /><path fill="rgb(36,26,17)" stroke="rgb(36,26,17)" stroke-width="1" opacity="1" d="M 70.5 137 L 73 137.5 L 70.5 138 L 70.5 137 Z " /><path fill="rgb(36,26,17)" stroke="rgb(36,26,17)" stroke-width="1" opacity="1" d="M 102.5 137 L 105 137.5 L 102.5 138 L 102.5 137 Z " /><path fill="rgb(36,26,17)" stroke="rgb(36,26,17)" stroke-width="1" opacity="1" d="M 75.5 138 L 78 138.5 L 75.5 139 L 75.5 138 Z " /><path fill="rgb(36,26,17)" stroke="rgb(36,26,17)" stroke-width="1" opacity="1" d="M 96.5 138 L 100 138.5 L 96.5 139 L 96.5 138 Z " /><path fill="rgb(36,26,17)" stroke="rgb(36,26,17)" stroke-width="1" opacity="1" d="M 81.5 139 L 93 139.5 L 81.5 140 L 81.5 139 Z " /><path fill="rgb(36,26,17)" stroke="rgb(36,26,17)" stroke-width="1" opacity="1" d="M 113.5 141 L 116 141.5 L 113.5 142 L 113.5 141 Z " /><path fill="rgb(36,26,17)" stroke="rgb(36,26,17)" stroke-width="1" opacity="1" d="M 64.5 142 L 67 142.5 L 64.5 143 L 64.5 142 Z " /><path fill="rgb(36,26,17)" stroke="rgb(36,26,17)" stroke-width="1" opacity="1" d="M 109.5 142 L 112 142.5 L 109.5 143 L 109.5 142 Z " /><path fill="rgb(36,26,17)" stroke="rgb(36,26,17)" stroke-width="1" opacity="1" d="M 68.5 143 L 71 143.5 L 68.5 144 L 68.5 143 Z " /><path fill="rgb(36,26,17)" stroke="rgb(36,26,17)" stroke-width="1" opacity="1" d="M 104.5 143 L 108 143.5 L 104.5 144 L 104.5 143 Z " /><path fill="rgb(36,26,17)" stroke="rgb(36,26,17)" stroke-width="1" opacity="1" d="M 73.5 144 L 76 144.5 L 73.5 145 L 73.5 144 Z " /><path fill="rgb(36,26,17)" stroke="rgb(36,26,17)" stroke-width="1" opacity="1" d="M 99.5 144 L 103 144.5 L 99.5 145 L 99.5 144 Z " /><path fill="rgb(36,26,17)" stroke="rgb(36,26,17)" stroke-width="1" opacity="1" d="M 78.5 145 L 97 145.5 L 78.5 146 L 78.5 145 Z " /><path fill="rgb(250,173,14)" stroke="rgb(250,173,14)" stroke-width="1" opacity="0.38823529411764707" d="M 127 0 Q 129.7 -1.1 129 1.5 Q 126.5 10.6 119.5 15 L 111.5 19 L 107.5 19 L 103 15.5 L 102 7 Q 87.6 6.9 82 16.5 Q 81.1 23.1 76.5 26 Q 74.2 28.7 68.5 28 L 64 26 L 63 22 Q 55.4 24.4 51 31.5 L 43 44.5 L 41 55.5 L 45 69.5 L 42 76 Q 39.7 78.6 33.5 78 L 26.5 74 Q 23.2 77.2 24 84.5 L 26 92.5 L 28 94.5 L 28 101.5 L 24.5 106 Q 21.3 108.3 14.5 107 L 10 103.5 L 8.5 99 L 1.5 108 L 1 106.5 L 8.5 98 Q 11.5 97.1 10 101.5 Q 12.9 107.1 22.5 106 Q 28.5 104.5 27 95.5 L 23 88.5 L 23 79.5 L 24 76.5 L 25.5 73 L 36.5 77 L 42 73.5 L 43 65.5 L 41 61.5 L 40 51.5 Q 42.3 50.2 41 45.5 L 46 35.5 L 57.5 23 L 62.5 20 L 65.5 25 L 70.5 27 L 77 23.5 L 81 15.5 L 86.5 10 Q 91.2 4.7 102.5 6 L 104 8.5 L 103 12.5 L 106.5 17 L 110.5 18 Q 120.9 14.9 126 6.5 L 127 0 Z " /><path fill="rgb(250,173,14)" stroke="rgb(250,173,14)" stroke-width="1" opacity="0.38823529411764707" d="M 131.5 0 L 141 4 L 149 17.5 L 152 29.5 L 152 35.5 L 153.5 37 L 164 36 L 165 38.5 L 162.5 37 L 153.5 38 L 151 37 Q 148.7 33.4 150 24.5 L 148 17.5 Q 144 8.5 136.5 3 L 131.5 1 L 131.5 0 Z " /><path fill="rgb(250,173,14)" stroke="rgb(250,173,14)" stroke-width="1" opacity="0.38823529411764707" d="M 165.5 40 L 168 46.5 L 168 54.5 L 169 55.5 L 168 58.5 L 169 62.5 L 167 70.5 Q 169.3 71.8 168 76.5 L 170.5 80 Q 173.5 84 180.5 84 L 190.5 81 Q 195.7 85.8 195 96.5 L 194 97.5 L 194 105.5 L 200 114.5 L 195 110.5 L 192 102.5 L 193 101.5 L 193 86.5 L 190.5 83 L 182.5 85 L 175.5 85 L 169 80.5 Q 164.5 76 166 65.5 L 167 64.5 L 167 49.5 L 165.5 40 Z " /><path fill="rgb(248,170,17)" stroke="rgb(248,170,17)" stroke-width="1" opacity="0.996078431372549" d="M 129 0 Q 138.9 2.3 144 10.5 L 149 20.5 L 150 34.5 L 151 37 Q 153.4 38.8 159.5 38 L 162.5 37 L 166 42.5 L 167 64.5 L 166 65.5 L 166 74.5 L 170.5 82 Q 173.7 86.3 182.5 85 L 190.5 83 L 193 86.5 L 193 101.5 L 192 103.5 L 193 107.5 L 200 115.5 L 200 119 L 194.5 120 Q 187.1 117.4 183 111.5 L 182 104.5 L 179.5 101 L 175.5 104 L 172.5 104 L 168 102 L 167 95.5 L 165.5 94 Q 160.7 95.7 162 91.5 L 163 87.5 L 161 80.5 L 155 73.5 L 155 66.5 L 158 56.5 L 158 50.5 L 157 48 L 151.5 49 Q 144.1 46.4 140 40.5 L 139 38.5 L 139 26.5 L 134.5 19 Q 130.8 17.8 132 21.5 L 125.5 29 Q 121.2 32.2 113.5 32 L 93.5 26 Q 83.5 30 77.5 38 L 72.5 40 L 64.5 40 L 60 38 Q 61.1 35.3 58.5 36 Q 54.3 38.8 56 47.5 Q 50.7 51.2 49 58.5 L 49 87.5 L 45.5 91 L 42.5 92 L 40.5 91 L 39 92.5 L 38 101.5 L 30.5 111 Q 25.1 115.6 15.5 116 L 12 115 L 11 120 L 0 121 L 1 108.5 L 8.5 99 L 12.5 106 Q 15.7 108.3 22.5 107 L 27 103.5 L 28 94.5 L 25 89.5 L 24 79.5 L 26.5 74 Q 29.7 78.3 37.5 78 L 42 76 L 45 67.5 Q 41.4 62.1 41 53.5 Q 44.7 33.7 58.5 24 L 63 22 L 64 26 Q 66.3 28.6 72.5 28 L 79 23.5 L 82 16.5 L 88.5 10 L 97.5 7 L 102 7 Q 100.5 15.2 105.5 18 L 111.5 19 Q 120.8 15.8 126 8.5 L 129 0 Z " /><path fill="rgb(173,133,80)" stroke="rgb(173,133,80)" stroke-width="1" opacity="1" d="M 115.5 33 L 118 33.5 L 115.5 34 L 115.5 33 Z " /><path fill="rgb(173,133,80)" stroke="rgb(173,133,80)" stroke-width="1" opacity="1" d="M 122 52 L 128.5 52 L 137 54.5 L 130 62.5 L 137 69.5 L 132.5 74 L 130 75.5 L 135 79.5 L 127 92.5 L 129 97.5 L 125 102.5 L 125 109.5 L 127 120.5 L 125 119.5 L 118 103.5 L 126 94.5 L 127 82.5 L 124.5 78 L 121 77.5 L 126 71.5 L 119 68.5 L 122 52 Z " /><path fill="rgb(173,133,80)" stroke="rgb(173,133,80)" stroke-width="1" opacity="1" d="M 71.5 61 L 70.5 63 L 69 62.5 L 71.5 61 Z " /><path fill="rgb(173,133,80)" stroke="rgb(173,133,80)" stroke-width="1" opacity="1" d="M 150.5 64 L 151 68.5 L 150 68.5 L 150.5 64 Z " /><path fill="rgb(173,133,80)" stroke="rgb(173,133,80)" stroke-width="1" opacity="1" d="M 63.5 71 L 64 73.5 L 63 73.5 L 63.5 71 Z " /><path fill="rgb(173,133,80)" stroke="rgb(173,133,80)" stroke-width="1" opacity="1" d="M 59.5 80 L 62 80.5 L 59.5 81 L 59.5 80 Z " /><path fill="rgb(173,133,80)" stroke="rgb(173,133,80)" stroke-width="1" opacity="1" d="M 57.5 82 L 58 86.5 L 57 86.5 L 57.5 82 Z " /><path fill="rgb(173,133,80)" stroke="rgb(173,133,80)" stroke-width="1" opacity="1" d="M 49.5 83 L 50 90.5 L 49 90.5 L 49.5 83 Z " /><path fill="rgb(173,133,80)" stroke="rgb(173,133,80)" stroke-width="1" opacity="1" d="M 76.5 92 L 77.5 94 L 76.5 92 Z " /><path fill="rgb(173,133,80)" stroke="rgb(173,133,80)" stroke-width="1" opacity="1" d="M 48.5 98 L 47.5 100 L 48.5 98 Z " /><path fill="rgb(173,133,80)" stroke="rgb(173,133,80)" stroke-width="1" opacity="1" d="M 76.5 98 L 75.5 100 L 76.5 98 Z " /><path fill="rgb(173,133,80)" stroke="rgb(173,133,80)" stroke-width="1" opacity="1" d="M 160.5 100 L 161.5 102 L 160.5 100 Z " /><path fill="rgb(173,133,80)" stroke="rgb(173,133,80)" stroke-width="1" opacity="1" d="M 44.5 101 L 43.5 103 L 44.5 101 Z " /><path fill="rgb(173,133,80)" stroke="rgb(173,133,80)" stroke-width="1" opacity="1" d="M 39.5 105 L 38.5 107 L 39.5 105 Z " /><path fill="rgb(173,133,80)" stroke="rgb(173,133,80)" stroke-width="1" opacity="1" d="M 167.5 105 L 168.5 107 L 167.5 105 Z " /><path fill="rgb(173,133,80)" stroke="rgb(173,133,80)" stroke-width="1" opacity="1" d="M 57.5 107 L 58 116.5 L 57 116.5 L 57.5 107 Z " /><path fill="rgb(173,133,80)" stroke="rgb(173,133,80)" stroke-width="1" opacity="1" d="M 35.5 108 L 34.5 110 L 35.5 108 Z " /><path fill="rgb(173,133,80)" stroke="rgb(173,133,80)" stroke-width="1" opacity="1" d="M 30.5 112 L 29.5 114 L 30.5 112 Z " /><path fill="rgb(173,133,80)" stroke="rgb(173,133,80)" stroke-width="1" opacity="1" d="M 42.5 112 L 41.5 114 L 42.5 112 Z " /><path fill="rgb(173,133,80)" stroke="rgb(173,133,80)" stroke-width="1" opacity="1" d="M 177.5 112 L 178.5 114 L 177.5 112 Z " /><path fill="rgb(173,133,80)" stroke="rgb(173,133,80)" stroke-width="1" opacity="1" d="M 147.5 114 L 149 115.5 L 152 127.5 L 155.5 132 L 157 132.5 L 150 139.5 L 150 141.5 L 153 149 L 136.5 154 L 135 152.5 Q 135 143 132 136.5 L 145 126.5 L 147.5 114 Z " /><path fill="rgb(173,133,80)" stroke="rgb(173,133,80)" stroke-width="1" opacity="1" d="M 26.5 115 L 24.5 118 L 26.5 115 Z " /><path fill="rgb(173,133,80)" stroke="rgb(173,133,80)" stroke-width="1" opacity="1" d="M 21.5 119 L 20.5 121 L 21.5 119 Z " /><path fill="rgb(173,133,80)" stroke="rgb(173,133,80)" stroke-width="1" opacity="1" d="M 11.5 120 L 17 120.5 L 11.5 121 L 11.5 120 Z " /><path fill="rgb(173,133,80)" stroke="rgb(173,133,80)" stroke-width="1" opacity="1" d="M 189.5 120 L 192 120.5 L 189.5 121 L 189.5 120 Z " /><path fill="rgb(173,133,80)" stroke="rgb(173,133,80)" stroke-width="1" opacity="1" d="M 28.5 123 L 27.5 125 L 28.5 123 Z " /><path fill="rgb(173,133,80)" stroke="rgb(173,133,80)" stroke-width="1" opacity="1" d="M 26.5 142 L 27.5 144 L 26.5 142 Z " /><path fill="rgb(173,133,80)" stroke="rgb(173,133,80)" stroke-width="1" opacity="1" d="M 39.5 151 L 40.5 153 L 39.5 151 Z " /><path fill="rgb(173,133,80)" stroke="rgb(173,133,80)" stroke-width="1" opacity="1" d="M 42.5 153 L 43.5 155 L 42.5 153 Z " /><path fill="rgb(173,133,80)" stroke="rgb(173,133,80)" stroke-width="1" opacity="1" d="M 45.5 153 L 47 156.5 L 45 155.5 L 45.5 153 Z " /><path fill="rgb(173,133,80)" stroke="rgb(173,133,80)" stroke-width="1" opacity="1" d="M 199.5 158 L 198.5 160 L 199.5 158 Z " /><path fill="rgb(173,133,80)" stroke="rgb(173,133,80)" stroke-width="1" opacity="1" d="M 19.5 160 L 20 162 L 18 161.5 L 19.5 160 Z " /><path fill="rgb(173,133,80)" stroke="rgb(173,133,80)" stroke-width="1" opacity="1" d="M 52.5 160 L 53.5 162 L 52.5 160 Z " /><path fill="rgb(173,133,80)" stroke="rgb(173,133,80)" stroke-width="1" opacity="1" d="M 55.5 162 L 56.5 164 L 55.5 162 Z " /><path fill="rgb(173,133,80)" stroke="rgb(173,133,80)" stroke-width="1" opacity="1" d="M 58.5 164 L 59.5 166 L 58.5 164 Z " /><path fill="rgb(173,133,80)" stroke="rgb(173,133,80)" stroke-width="1" opacity="1" d="M 18.5 165 L 19 168.5 L 18 168.5 L 18.5 165 Z " /><path fill="rgb(173,133,80)" stroke="rgb(173,133,80)" stroke-width="1" opacity="1" d="M 61.5 166 L 62.5 168 L 61.5 166 Z " /><path fill="rgb(173,133,80)" stroke="rgb(173,133,80)" stroke-width="1" opacity="1" d="M 77.5 171 L 80 171.5 L 77.5 172 L 77.5 171 Z " /><path fill="rgb(173,133,80)" stroke="rgb(173,133,80)" stroke-width="1" opacity="1" d="M 17.5 172 L 18 175.5 L 17 175.5 L 17.5 172 Z " /><path fill="rgb(173,133,80)" stroke="rgb(173,133,80)" stroke-width="1" opacity="1" d="M 4.5 178 L 5 180.5 L 4 181.5 L 4 200 L 0 199.5 L 0 183.5 L 4.5 178 Z " /><path fill="rgb(173,133,80)" stroke="rgb(173,133,80)" stroke-width="1" opacity="1" d="M 16.5 180 L 17 186.5 L 16 186.5 L 16.5 180 Z " /><path fill="rgb(173,133,80)" stroke="rgb(173,133,80)" stroke-width="1" opacity="1" d="M 11.5 185 L 12 187.5 L 11 187.5 L 11.5 185 Z " /><path fill="rgb(103,68,53)" stroke="rgb(103,68,53)" stroke-width="1" opacity="1" d="M 101.5 33 L 114 33.5 L 101.5 34 L 101.5 33 Z " /><path fill="rgb(103,68,53)" stroke="rgb(103,68,53)" stroke-width="1" opacity="1" d="M 97.5 40 L 101 40.5 L 97.5 41 L 97.5 40 Z " /><path fill="rgb(103,68,53)" stroke="rgb(103,68,53)" stroke-width="1" opacity="1" d="M 115.5 40 L 118 40.5 L 115.5 41 L 115.5 40 Z " /><path fill="rgb(103,68,53)" stroke="rgb(103,68,53)" stroke-width="1" opacity="1" d="M 139.5 41 L 140.5 43 L 139.5 41 Z " /><path fill="rgb(103,68,53)" stroke="rgb(103,68,53)" stroke-width="1" opacity="1" d="M 135.5 46 L 136.5 48 L 135.5 46 Z " /><path fill="rgb(103,68,53)" stroke="rgb(103,68,53)" stroke-width="1" opacity="1" d="M 144.5 46 L 145.5 48 L 144.5 46 Z " /><path fill="rgb(103,68,53)" stroke="rgb(103,68,53)" stroke-width="1" opacity="1" d="M 105.5 55 Q 108.5 54.1 107 58.5 L 106 59.5 L 106 74 Q 101.1 72.3 92.5 73 L 93 74.5 L 102.5 87 L 113.5 81 L 123.5 78 L 126 81.5 L 127 87.5 L 125 95.5 L 118.5 103 L 109 107 L 101 126 L 112 123 L 110 134.5 L 108.5 136 L 95.5 139 L 88.5 139 L 89 137.5 L 90 133.5 L 90 112.5 Q 87.5 111 89 105.5 L 87.5 104 L 83.5 104 L 76.5 107 L 69.5 107 L 63 102.5 Q 57.3 95.7 58 82.5 Q 58.8 80.3 62.5 81 L 84.5 90 L 85 88.5 L 83 84.5 Q 84.2 82 88 83 Q 87 67.3 96.5 61 L 105.5 55 Z M 116 85 Q 104 88 97 95 L 97 98 L 102 102 L 109 102 L 114 100 Q 120 97 118 87 L 116 85 Z M 63 87 Q 62 94 65 98 Q 67 102 75 101 L 79 95 L 69 87 L 63 87 Z " /><path fill="rgb(103,68,53)" stroke="rgb(103,68,53)" stroke-width="1" opacity="1" d="M 149.5 58 L 150 60.5 L 149 60.5 L 149.5 58 Z " /><path fill="rgb(103,68,53)" stroke="rgb(103,68,53)" stroke-width="1" opacity="1" d="M 56.5 59 L 57 61.5 L 56 61.5 L 56.5 59 Z " /><path fill="rgb(103,68,53)" stroke="rgb(103,68,53)" stroke-width="1" opacity="1" d="M 56.5 75 L 57 96.5 L 56 96.5 L 56.5 75 Z " /><path fill="rgb(103,68,53)" stroke="rgb(103,68,53)" stroke-width="1" opacity="1" d="M 140.5 81 L 143 81.5 L 140.5 82 L 140.5 81 Z " /><path fill="rgb(103,68,53)" stroke="rgb(103,68,53)" stroke-width="1" opacity="1" d="M 153.5 83 Q 156.5 86 155 93.5 L 149.5 103 Q 143.8 103.3 141 106.5 L 140 115 Q 137.3 116.1 138 113.5 Q 134.7 108.8 136 99.5 L 138 90 L 141 90 Q 139.9 87.3 142.5 88 L 146.5 84 Q 152 85.5 153.5 83 Z " /><path fill="rgb(103,68,53)" stroke="rgb(103,68,53)" stroke-width="1" opacity="1" d="M 46.5 100 L 45.5 102 L 46.5 100 Z " /><path fill="rgb(103,68,53)" stroke="rgb(103,68,53)" stroke-width="1" opacity="1" d="M 41.5 104 L 40.5 106 L 41.5 104 Z " /><path fill="rgb(103,68,53)" stroke="rgb(103,68,53)" stroke-width="1" opacity="1" d="M 49.5 106 Q 52.3 105.4 51 111.5 L 50 111.5 L 49.5 106 Z " /><path fill="rgb(103,68,53)" stroke="rgb(103,68,53)" stroke-width="1" opacity="1" d="M 37.5 107 L 36.5 109 L 37.5 107 Z " /><path fill="rgb(103,68,53)" stroke="rgb(103,68,53)" stroke-width="1" opacity="1" d="M 45.5 109 L 44.5 111 L 45.5 109 Z " /><path fill="rgb(103,68,53)" stroke="rgb(103,68,53)" stroke-width="1" opacity="1" d="M 172.5 109 L 173.5 111 L 172.5 109 Z " /><path fill="rgb(103,68,53)" stroke="rgb(103,68,53)" stroke-width="1" opacity="1" d="M 32.5 111 L 31.5 113 L 32.5 111 Z " /><path fill="rgb(103,68,53)" stroke="rgb(103,68,53)" stroke-width="1" opacity="1" d="M 168.5 114 L 169.5 116 L 168.5 114 Z " /><path fill="rgb(103,68,53)" stroke="rgb(103,68,53)" stroke-width="1" opacity="1" d="M 36.5 116 L 35.5 118 L 36.5 116 Z " /><path fill="rgb(103,68,53)" stroke="rgb(103,68,53)" stroke-width="1" opacity="1" d="M 182.5 116 L 183.5 118 L 182.5 116 Z " /><path fill="rgb(103,68,53)" stroke="rgb(103,68,53)" stroke-width="1" opacity="1" d="M 23.5 118 L 22.5 120 L 23.5 118 Z " /><path fill="rgb(103,68,53)" stroke="rgb(103,68,53)" stroke-width="1" opacity="1" d="M 56.5 119 L 57 129.5 L 56 129.5 L 56.5 119 Z " /><path fill="rgb(103,68,53)" stroke="rgb(103,68,53)" stroke-width="1" opacity="1" d="M 175.5 119 L 176.5 121 L 175.5 119 Z " /><path fill="rgb(103,68,53)" stroke="rgb(103,68,53)" stroke-width="1" opacity="1" d="M 31.5 120 L 30.5 122 L 31.5 120 Z " /><path fill="rgb(103,68,53)" stroke="rgb(103,68,53)" stroke-width="1" opacity="1" d="M 193.5 120 L 196 120.5 L 193.5 121 L 193.5 120 Z " /><path fill="rgb(103,68,53)" stroke="rgb(103,68,53)" stroke-width="1" opacity="1" d="M 27.5 123 L 26.5 125 L 27.5 123 Z " /><path fill="rgb(103,68,53)" stroke="rgb(103,68,53)" stroke-width="1" opacity="1" d="M 49.5 124 L 50 129.5 L 49 129.5 L 49.5 124 Z " /><path fill="rgb(103,68,53)" stroke="rgb(103,68,53)" stroke-width="1" opacity="1" d="M 196.5 126 L 200 126.5 L 196.5 127 L 196.5 126 Z " /><path fill="rgb(103,68,53)" stroke="rgb(103,68,53)" stroke-width="1" opacity="1" d="M 7.5 127 L 16 127.5 L 7.5 128 L 7.5 127 Z " /><path fill="rgb(103,68,53)" stroke="rgb(103,68,53)" stroke-width="1" opacity="1" d="M 143.5 127 L 141.5 130 L 143.5 127 Z " /><path fill="rgb(103,68,53)" stroke="rgb(103,68,53)" stroke-width="1" opacity="1" d="M 50.5 132 L 52 134.5 L 50 133.5 L 50.5 132 Z " /><path fill="rgb(103,68,53)" stroke="rgb(103,68,53)" stroke-width="1" opacity="1" d="M 60.5 133 L 63 134.5 L 61.5 135 L 60.5 133 Z " /><path fill="rgb(103,68,53)" stroke="rgb(103,68,53)" stroke-width="1" opacity="1" d="M 52.5 136 L 53.5 138 L 52.5 136 Z " /><path fill="rgb(103,68,53)" stroke="rgb(103,68,53)" stroke-width="1" opacity="1" d="M 78.5 138 L 82 138.5 L 78.5 139 L 78.5 138 Z " /><path fill="rgb(103,68,53)" stroke="rgb(103,68,53)" stroke-width="1" opacity="1" d="M 56.5 139 L 60.5 142 L 78.5 146 L 96.5 146 L 115 142 L 117 157 L 84.5 160 L 73.5 146 L 59 145 L 56.5 139 Z " /><path fill="rgb(103,68,53)" stroke="rgb(103,68,53)" stroke-width="1" opacity="1" d="M 47.5 151 L 53.5 151 L 63.5 154 L 63.5 152 Q 68 151 69 153.5 L 72.5 159 Q 84.2 161.3 91 168.5 L 88 169 Q 89.3 172.3 84.5 171 L 77.5 167 L 46 155 L 47.5 151 Z " /><path fill="rgb(103,68,53)" stroke="rgb(103,68,53)" stroke-width="1" opacity="1" d="M 16.5 152 Q 20.3 151.3 21 153.5 L 21 157.5 L 17 162.5 L 12 176.5 L 11 200 L 4 200 L 4 185.5 L 7 170.5 L 11 162.5 L 11 159.5 L 16.5 152 Z " /><path fill="rgb(103,68,53)" stroke="rgb(103,68,53)" stroke-width="1" opacity="1" d="M 199.5 174 L 200 200 L 186 199.5 L 191 190.5 L 189 183.5 L 199.5 174 Z " /><path fill="rgb(199,142,31)" stroke="rgb(199,142,31)" stroke-width="1" opacity="1" d="M 140.5 41 L 144.5 46 L 140.5 41 Z " /><path fill="rgb(199,142,31)" stroke="rgb(199,142,31)" stroke-width="1" opacity="1" d="M 155.5 74 L 156.5 76 L 155.5 74 Z " /><path fill="rgb(199,142,31)" stroke="rgb(199,142,31)" stroke-width="1" opacity="1" d="M 162.5 87 L 163 90.5 L 162 90.5 L 162.5 87 Z " /><path fill="rgb(210,168,133)" stroke="rgb(210,168,133)" stroke-width="1" opacity="1" d="M 105.5 40 Q 110.8 38.8 112 41.5 L 107.5 46 L 102.5 46 L 97.5 48 L 92.5 48 L 83.5 51 L 79.5 51 L 73 54.5 L 72 60.5 L 70.5 62 L 62 61 L 64 81 L 59.5 80 L 57 81.5 L 57 58.5 L 60.5 54 L 66.5 50 L 81.5 44 L 96.5 41 L 104.5 41 L 105.5 40 Z " /><path fill="rgb(210,168,133)" stroke="rgb(210,168,133)" stroke-width="1" opacity="1" d="M 134.5 46 L 136.5 49 L 134.5 46 Z " /><path fill="rgb(210,168,133)" stroke="rgb(210,168,133)" stroke-width="1" opacity="1" d="M 129.5 52 L 132 52.5 L 129.5 53 L 129.5 52 Z " /><path fill="rgb(210,168,133)" stroke="rgb(210,168,133)" stroke-width="1" opacity="1" d="M 57.5 87 L 59 97.5 Q 63.2 100.3 64 106.5 L 57.5 128 L 57 117.5 L 58 116.5 L 58 107.5 L 57 106.5 L 57.5 87 Z " /><path fill="rgb(210,168,133)" stroke="rgb(210,168,133)" stroke-width="1" opacity="1" d="M 63.5 88 L 64 90.5 L 63 90.5 L 63.5 88 Z " /><path fill="rgb(210,168,133)" stroke="rgb(210,168,133)" stroke-width="1" opacity="1" d="M 49.5 91 L 50 93.5 L 49 93.5 L 49.5 91 Z " /><path fill="rgb(210,168,133)" stroke="rgb(210,168,133)" stroke-width="1" opacity="1" d="M 49.5 107 L 50 111.5 L 43.5 126 L 38.5 118 L 38 120.5 L 40 128.5 L 38.5 128 L 28 124.5 L 49.5 107 Z " /><path fill="rgb(210,168,133)" stroke="rgb(210,168,133)" stroke-width="1" opacity="1" d="M 157.5 107 L 158.5 109 L 157.5 107 Z " /><path fill="rgb(210,168,133)" stroke="rgb(210,168,133)" stroke-width="1" opacity="1" d="M 153.5 108 L 152.5 110 L 153.5 108 Z " /><path fill="rgb(210,168,133)" stroke="rgb(210,168,133)" stroke-width="1" opacity="1" d="M 160.5 109 L 161.5 111 L 160.5 109 Z " /><path fill="rgb(210,168,133)" stroke="rgb(210,168,133)" stroke-width="1" opacity="1" d="M 23.5 127 L 44 138 L 51 149.5 L 46 151.5 L 44.5 155 L 23.5 141 L 15.5 144 L 10 139.5 Q 10.9 136.1 5.5 138 L 0 140 L 0 129 L 4.5 129 L 5.5 128 L 22.5 128 L 23.5 127 Z " /><path fill="rgb(210,168,133)" stroke="rgb(210,168,133)" stroke-width="1" opacity="1" d="M 154.5 130 L 155.5 132 L 154.5 130 Z " /><path fill="rgb(210,168,133)" stroke="rgb(210,168,133)" stroke-width="1" opacity="1" d="M 167.5 143 L 172 148.5 L 163.5 151 L 158.5 155 L 161 151.5 L 161 149.5 L 167.5 143 Z " /><path fill="rgb(210,168,133)" stroke="rgb(210,168,133)" stroke-width="1" opacity="1" d="M 47.5 156 L 82 170.5 L 70.5 172 L 48.5 158 L 47.5 156 Z " /><path fill="rgb(210,168,133)" stroke="rgb(210,168,133)" stroke-width="1" opacity="1" d="M 18.5 162 L 19 164.5 L 17 172.5 L 16 186.5 L 19 200 L 11 200 L 11 188.5 L 12 187.5 L 13 174.5 L 18.5 162 Z " /><path fill="rgb(210,168,133)" stroke="rgb(210,168,133)" stroke-width="1" opacity="1" d="M 4.5 177 L 3.5 179 L 4.5 177 Z " /><path fill="rgb(210,168,133)" stroke="rgb(210,168,133)" stroke-width="1" opacity="1" d="M 2.5 180 L 1.5 182 L 2.5 180 Z " /><path fill="rgb(148,106,87)" stroke="rgb(148,106,87)" stroke-width="1" opacity="1" d="M 137.5 48 L 138.5 50 L 137.5 48 Z " /><path fill="rgb(148,106,87)" stroke="rgb(148,106,87)" stroke-width="1" opacity="1" d="M 106.5 52 L 107 55 Q 98.6 57.8 93 64.5 L 88.5 75 L 88 71.5 Q 90.7 62.2 98.5 58 L 106 53.5 L 106.5 52 Z " /><path fill="rgb(148,106,87)" stroke="rgb(148,106,87)" stroke-width="1" opacity="1" d="M 56.5 70 L 57 74.5 L 56 74.5 L 56.5 70 Z " /><path fill="rgb(148,106,87)" stroke="rgb(148,106,87)" stroke-width="1" opacity="1" d="M 145.5 80 L 150 80.5 L 145.5 81 L 145.5 80 Z " /><path fill="rgb(148,106,87)" stroke="rgb(148,106,87)" stroke-width="1" opacity="1" d="M 65.5 81 L 68 82.5 L 66.5 83 L 65.5 81 Z " /><path fill="rgb(148,106,87)" stroke="rgb(148,106,87)" stroke-width="1" opacity="1" d="M 151.5 81 L 153 84 L 146.5 84 L 141 88 L 140.5 90 L 140 88.5 L 146.5 83 L 152 82.5 L 151.5 81 Z " /><path fill="rgb(148,106,87)" stroke="rgb(148,106,87)" stroke-width="1" opacity="1" d="M 140.5 82 L 140 83.5 L 139.5 85 L 139 83.5 L 140.5 82 Z " /><path fill="rgb(148,106,87)" stroke="rgb(148,106,87)" stroke-width="1" opacity="1" d="M 82 83 L 84 83.5 L 84 85.5 L 85 89.5 L 84 89.5 L 83.5 88 L 80.5 89 L 80.5 88 Q 84.3 89.3 83 85.5 L 82 83 Z " /><path fill="rgb(148,106,87)" stroke="rgb(148,106,87)" stroke-width="1" opacity="1" d="M 71.5 84 L 77 86.5 L 75.5 87 L 71.5 85 L 71.5 84 Z " /><path fill="rgb(148,106,87)" stroke="rgb(148,106,87)" stroke-width="1" opacity="1" d="M 123.5 97 L 122.5 99 L 123.5 97 Z " /><path fill="rgb(148,106,87)" stroke="rgb(148,106,87)" stroke-width="1" opacity="1" d="M 64.5 104 L 65.5 106 L 64.5 104 Z " /><path fill="rgb(148,106,87)" stroke="rgb(148,106,87)" stroke-width="1" opacity="1" d="M 83.5 104 Q 88 103 89 105.5 L 88.5 109 L 88 105 L 77.5 107 L 77.5 106 L 83.5 104 Z " /><path fill="rgb(148,106,87)" stroke="rgb(148,106,87)" stroke-width="1" opacity="1" d="M 71.5 107 L 76 107.5 L 71.5 108 L 71.5 107 Z " /><path fill="rgb(148,106,87)" stroke="rgb(148,106,87)" stroke-width="1" opacity="1" d="M 148.5 110 L 148 111.5 L 147.5 114 L 147 111.5 L 148.5 110 Z " /><path fill="rgb(148,106,87)" stroke="rgb(148,106,87)" stroke-width="1" opacity="1" d="M 89.5 112 L 90 128.5 L 89 128.5 L 89.5 112 Z " /><path fill="rgb(148,106,87)" stroke="rgb(148,106,87)" stroke-width="1" opacity="1" d="M 49.5 115 L 50 123.5 L 49 123.5 L 49.5 115 Z " /><path fill="rgb(148,106,87)" stroke="rgb(148,106,87)" stroke-width="1" opacity="1" d="M 49.5 130 Q 49.6 135.9 53.5 138 L 58 141.5 L 59 143.5 L 57 142.5 L 54.5 139 L 51.5 137 L 50 137.5 L 51 135.5 L 49 135.5 L 49 133.5 L 49.5 130 Z " /><path fill="rgb(148,106,87)" stroke="rgb(148,106,87)" stroke-width="1" opacity="1" d="M 57.5 130 L 59.5 133 L 57.5 130 Z " /><path fill="rgb(148,106,87)" stroke="rgb(148,106,87)" stroke-width="1" opacity="1" d="M 89.5 131 L 90 133.5 L 87.5 139 L 82 138.5 Q 86.6 139.1 88 136.5 L 89.5 131 Z " /><path fill="rgb(148,106,87)" stroke="rgb(148,106,87)" stroke-width="1" opacity="1" d="M 61.5 133 L 65 134.5 L 63.5 135 L 61.5 133 Z " /><path fill="rgb(148,106,87)" stroke="rgb(148,106,87)" stroke-width="1" opacity="1" d="M 66.5 135 L 80 137.5 L 75.5 138 L 66.5 136 L 66.5 135 Z " /><path fill="rgb(148,106,87)" stroke="rgb(148,106,87)" stroke-width="1" opacity="1" d="M 51.5 139 L 52.5 141 L 51.5 139 Z " /><path fill="rgb(148,106,87)" stroke="rgb(148,106,87)" stroke-width="1" opacity="1" d="M 16.5 151 Q 21 150 22 152.5 Q 22.6 157.9 21 160 L 18.5 161 L 21 157.5 Q 22 153 19.5 152 Q 14.8 151.3 14 154.5 L 11.5 159 L 11 157.5 L 16.5 151 Z " /><path fill="rgb(148,106,87)" stroke="rgb(148,106,87)" stroke-width="1" opacity="1" d="M 56.5 151 Q 60.8 150.3 61.5 153 Q 62.8 150.8 64 153.5 L 61.5 154 L 56.5 152 L 56.5 151 Z " /><path fill="rgb(148,106,87)" stroke="rgb(148,106,87)" stroke-width="1" opacity="1" d="M 191.5 160 L 193 160.5 L 189.5 163 L 191.5 160 Z " /><path fill="rgb(148,106,87)" stroke="rgb(148,106,87)" stroke-width="1" opacity="1" d="M 185.5 165 L 184.5 167 L 185.5 165 Z " /><path fill="rgb(148,106,87)" stroke="rgb(148,106,87)" stroke-width="1" opacity="1" d="M 88 169 L 92 169 L 92 170.5 Q 90.3 168.9 88.5 172 Q 82.4 173.3 83 170.5 L 84.5 171 Q 89.3 172.3 88 169 Z " /><path fill="rgb(148,106,87)" stroke="rgb(148,106,87)" stroke-width="1" opacity="1" d="M 179.5 170 L 178.5 172 L 179.5 170 Z " /><path fill="rgb(148,106,87)" stroke="rgb(148,106,87)" stroke-width="1" opacity="1" d="M 199.5 172 L 200 173.5 L 189 183.5 L 191 191.5 L 185.5 200 L 186 198.5 L 189 192.5 L 189 187.5 L 188 182.5 L 199.5 172 Z " /><path fill="rgb(148,106,87)" stroke="rgb(148,106,87)" stroke-width="1" opacity="1" d="M 174.5 174 L 172.5 177 L 174.5 174 Z " /><path fill="rgb(148,106,87)" stroke="rgb(148,106,87)" stroke-width="1" opacity="1" d="M 168.5 179 L 166.5 182 L 168.5 179 Z " /><path fill="rgb(148,106,87)" stroke="rgb(148,106,87)" stroke-width="1" opacity="1" d="M 53.5 187 L 52.5 189 L 53.5 187 Z " /><path fill="rgb(148,106,87)" stroke="rgb(148,106,87)" stroke-width="1" opacity="1" d="M 44.5 188 L 46.5 191 L 44.5 188 Z " /><path fill="rgb(148,106,87)" stroke="rgb(148,106,87)" stroke-width="1" opacity="1" d="M 49.5 188 L 50.5 190 L 49.5 188 Z " /><path fill="rgb(148,106,87)" stroke="rgb(148,106,87)" stroke-width="1" opacity="1" d="M 67.5 193 L 68.5 195 L 67.5 193 Z " /><path fill="rgb(148,106,87)" stroke="rgb(148,106,87)" stroke-width="1" opacity="1" d="M 71.5 196 L 72.5 198 L 71.5 196 Z " /><path fill="rgb(173,95,49)" stroke="rgb(173,95,49)" stroke-width="1" opacity="1" d="M 114.5 52 L 121.5 52 L 122 54.5 L 119 68.5 L 126 71.5 L 119.5 79 L 110 82 L 108 77.5 L 114 77 L 119 53.5 L 114.5 53 L 114.5 52 Z " /><path fill="rgb(173,95,49)" stroke="rgb(173,95,49)" stroke-width="1" opacity="1" d="M 136.5 55 L 142 58.5 L 131 100.5 L 138 119.5 L 133.5 126 Q 127.1 131.9 117 133 L 119 114 L 112 116 L 114 106.5 L 115.5 105 L 119 104 L 125.5 120 L 126 110.5 Q 123.3 108.7 125 102.5 L 129 97.5 L 129 95.5 L 127 92.5 L 135 79.5 L 130 75.5 L 137 69.5 L 130 62.5 L 134 58.5 L 136.5 55 Z " /><path fill="rgb(173,95,49)" stroke="rgb(173,95,49)" stroke-width="1" opacity="1" d="M 49.5 73 L 50 80.5 L 49 80.5 L 49.5 73 Z " /><path fill="rgb(173,95,49)" stroke="rgb(173,95,49)" stroke-width="1" opacity="1" d="M 138.5 85 L 139 88.5 L 138 88.5 L 138.5 85 Z " /><path fill="rgb(173,95,49)" stroke="rgb(173,95,49)" stroke-width="1" opacity="1" d="M 25.5 125 L 24.5 127 L 25.5 125 Z " /><path fill="rgb(173,95,49)" stroke="rgb(173,95,49)" stroke-width="1" opacity="1" d="M 156.5 133 L 164 139.5 L 162 148 Q 159.3 146.9 160 149.5 L 157.5 148 L 153.5 149 L 150 139.5 L 156.5 133 Z " /><path fill="rgb(173,95,49)" stroke="rgb(173,95,49)" stroke-width="1" opacity="1" d="M 132.5 135 L 133 137.5 L 135 152.5 L 137 154.5 L 123.5 159 L 123 140.5 L 132.5 135 Z " /><path fill="rgb(173,95,49)" stroke="rgb(173,95,49)" stroke-width="1" opacity="1" d="M 57.5 144 L 60 145.5 L 58.5 145 L 57.5 144 Z " /><path fill="rgb(173,95,49)" stroke="rgb(173,95,49)" stroke-width="1" opacity="1" d="M 197.5 160 L 194.5 164 L 193 163.5 L 197.5 160 Z " /><path fill="rgb(173,95,49)" stroke="rgb(173,95,49)" stroke-width="1" opacity="1" d="M 188.5 162 L 187.5 164 L 188.5 162 Z " /><path fill="rgb(173,95,49)" stroke="rgb(173,95,49)" stroke-width="1" opacity="1" d="M 182.5 167 L 181.5 169 L 182.5 167 Z " /><path fill="rgb(173,95,49)" stroke="rgb(173,95,49)" stroke-width="1" opacity="1" d="M 109.5 171 L 112 171.5 L 109.5 172 L 109.5 171 Z " /><path fill="rgb(173,95,49)" stroke="rgb(173,95,49)" stroke-width="1" opacity="1" d="M 176.5 172 L 175.5 174 L 176.5 172 Z " /><path fill="rgb(173,95,49)" stroke="rgb(173,95,49)" stroke-width="1" opacity="1" d="M 42.5 185 Q 44.8 184.3 44 186.5 L 42.5 185 Z " /><path fill="rgb(173,95,49)" stroke="rgb(173,95,49)" stroke-width="1" opacity="1" d="M 47.5 191 L 48.5 193 L 47.5 191 Z " /><path fill="rgb(237,110,68)" stroke="rgb(237,110,68)" stroke-width="1" opacity="1" d="M 112.5 41 Q 119.3 39.3 121 42.5 L 121 45 Q 124.7 43.5 124 46.5 L 121.5 52 L 114.5 52 L 107 54 L 107 46.5 L 112.5 41 Z " /><path fill="rgb(237,110,68)" stroke="rgb(237,110,68)" stroke-width="1" opacity="1" d="M 139.5 53 Q 142.1 52.2 141 55.5 L 142 57.5 L 139.5 56 L 137 54.5 L 139.5 53 Z " /><path fill="rgb(237,110,68)" stroke="rgb(237,110,68)" stroke-width="1" opacity="1" d="M 38.5 118 L 54.5 144 L 60 146.5 L 62 150.5 L 52.5 151 L 44 138 L 25 128 L 26.5 125 L 29.5 125 L 40 129 L 38.5 118 Z " /><path fill="rgb(237,110,68)" stroke="rgb(237,110,68)" stroke-width="1" opacity="1" d="M 159.5 118 L 161.5 118 L 168 124.5 Q 167.3 127.1 170 126 Q 169.3 120.7 172.5 118 L 187 128.5 L 162.5 147 L 163 145.5 L 164 139.5 L 157 132.5 L 164 125.5 L 162.5 123 L 157 120.5 L 159.5 118 Z " /><path fill="rgb(237,110,68)" stroke="rgb(237,110,68)" stroke-width="1" opacity="1" d="M 199.5 140 L 200 157.5 L 193 163 L 192.5 159 L 163 183.5 L 172 200 L 145.5 200 L 145 198.5 L 149 189 Q 142.6 189.8 139 186.5 L 173.5 153 L 189.5 149 L 199.5 140 Z " /><path fill="rgb(237,110,68)" stroke="rgb(237,110,68)" stroke-width="1" opacity="1" d="M 3.5 149 L 6 149.5 L 2 159 L 10 161 L 7 168.5 L 6 175.5 L 4.5 177 L 0 178 L 0 151.5 L 1.5 150 L 3.5 149 Z " /><path fill="rgb(237,110,68)" stroke="rgb(237,110,68)" stroke-width="1" opacity="1" d="M 103.5 170 L 107.5 170 L 109.5 172 L 114.5 172 L 123 174 L 121.5 177 L 116 180 Q 118.9 191.2 126 199.5 L 76.5 200 L 63.5 190 L 60.5 190 L 51.5 195 L 49 194 L 44 186.5 L 45.5 187 L 51.5 190 Q 55.3 185.3 62.5 184 L 83.5 197 L 90.5 197 L 99 195 L 93 171 L 99.5 172 L 103.5 170 Z " /><path fill="rgb(149,107,88)" stroke="rgb(149,107,88)" stroke-width="1" opacity="1" d="M 104.5 46 L 107 46 L 107 51.5 L 104.5 55 Q 95.1 58.6 90 66.5 L 88 71.5 L 88 83 L 82.5 83 L 82 84.5 L 84 88.5 L 82.5 88 L 79.5 88 L 65.5 81 L 64 81.5 L 65 79.5 L 62 61 L 70.5 63 L 74 53 L 104.5 46 Z " /><path fill="rgb(149,107,88)" stroke="rgb(149,107,88)" stroke-width="1" opacity="1" d="M 59.5 54 L 58.5 56 L 59.5 54 Z " /><path fill="rgb(149,107,88)" stroke="rgb(149,107,88)" stroke-width="1" opacity="1" d="M 144.5 81 Q 150.5 79.5 152 82.5 L 146.5 83 L 140 88.5 L 139.5 90 L 139 85.5 L 141.5 82 L 144.5 81 Z " /><path fill="rgb(149,107,88)" stroke="rgb(149,107,88)" stroke-width="1" opacity="1" d="M 66.5 98 L 67.5 100 L 66.5 98 Z " /><path fill="rgb(149,107,88)" stroke="rgb(149,107,88)" stroke-width="1" opacity="1" d="M 64.5 105 Q 68 108.5 75.5 108 L 83.5 105 L 88 105 L 89 109.5 L 89 128.5 L 90 130.5 L 86.5 138 L 80.5 138 L 65.5 135 L 60.5 133 L 57 129.5 L 64.5 105 Z " /><path fill="rgb(149,107,88)" stroke="rgb(149,107,88)" stroke-width="1" opacity="1" d="M 155.5 106 L 157 106.5 L 154.5 108 L 155.5 106 Z " /><path fill="rgb(149,107,88)" stroke="rgb(149,107,88)" stroke-width="1" opacity="1" d="M 48.5 116 L 49 133.5 L 53.5 139 L 57 141.5 L 58 143.5 L 55.5 144 L 44 125.5 L 48.5 116 Z " /><path fill="rgb(149,107,88)" stroke="rgb(149,107,88)" stroke-width="1" opacity="1" d="M 7.5 138 L 16.5 145 Q 19.5 142 25.5 142 L 68.5 172 L 79.5 172 L 82.5 171 Q 83.8 173.2 88.5 172 Q 90.3 168.3 92 171.5 L 98 195 L 84.5 197 L 60.5 183 L 50.5 189 L 41.5 184 L 44 187.5 L 51.5 196 L 62.5 190 L 75 199.5 L 19 200 L 17 190.5 L 17 176.5 L 18 175.5 L 19 162.5 L 22 157.5 L 22 152.5 Q 21 150 16.5 151 L 11 157.5 L 11 160 L 3 159 L 6 148 L 0.5 150 L 0 141.5 L 7.5 138 Z " /><path fill="rgb(149,107,88)" stroke="rgb(149,107,88)" stroke-width="1" opacity="1" d="M 199.5 159 L 200 171.5 L 188 182.5 L 189 192.5 L 184.5 200 L 173.5 200 L 172 198.5 L 164 183.5 L 188.5 163 L 193 161 L 193.5 165 L 199.5 159 Z " /><path fill="rgb(164,63,43)" stroke="rgb(164,63,43)" stroke-width="1" opacity="1" d="M 111.5 53 L 119 53.5 L 114 77 L 108 77.5 L 111 82.5 L 101.5 86 L 92 73.5 L 101.5 73 L 106 74 L 106 59.5 L 108.5 54 L 111.5 53 Z " /><path fill="rgb(164,63,43)" stroke="rgb(164,63,43)" stroke-width="1" opacity="1" d="M 142.5 58 L 143 72.5 L 138 77.5 L 138 79.5 L 140 82.5 Q 137.4 83.9 138 88.5 L 138 90.5 L 136 99.5 L 136 108.5 L 139 117.5 L 137 116.5 L 131 99.5 L 142.5 58 Z " /><path fill="rgb(164,63,43)" stroke="rgb(164,63,43)" stroke-width="1" opacity="1" d="M 117.5 103 L 116.5 105 L 117.5 103 Z " /><path fill="rgb(164,63,43)" stroke="rgb(164,63,43)" stroke-width="1" opacity="1" d="M 114.5 105 L 114 106.5 L 112 116 L 119 114 L 118 117.5 L 117 132.5 L 117.5 134 L 109.5 136 L 110 134.5 L 112 123 L 101 126 L 108 109.5 L 110.5 107 L 114.5 105 Z " /><path fill="rgb(164,63,43)" stroke="rgb(164,63,43)" stroke-width="1" opacity="1" d="M 136.5 122 L 135.5 124 L 136.5 122 Z " /><path fill="rgb(164,63,43)" stroke="rgb(164,63,43)" stroke-width="1" opacity="1" d="M 123.5 139 L 123 140.5 L 123 158.5 L 121.5 160 L 109.5 165 L 107 167.5 L 109 170.5 L 106.5 169 L 97.5 172 Q 90 170 86.5 164 L 71 158 L 67.5 152 Q 63 153 62 150.5 L 60 145 Q 69.9 143.4 75 147.5 L 76 150.5 L 84.5 160 L 117 157 L 115 142 L 123.5 139 Z " /><path fill="rgb(164,63,43)" stroke="rgb(164,63,43)" stroke-width="1" opacity="1" d="M 154.5 148 L 158 148.5 L 154.5 149 L 154.5 148 Z " /><path fill="rgb(164,63,43)" stroke="rgb(164,63,43)" stroke-width="1" opacity="1" d="M 159.5 152 L 158.5 154 L 159.5 152 Z " /><path fill="rgb(118,52,10)" stroke="rgb(118,52,10)" stroke-width="1" opacity="1" d="M 49.5 62 L 50 72.5 L 49 72.5 L 49.5 62 Z " /><path fill="rgb(118,52,10)" stroke="rgb(118,52,10)" stroke-width="1" opacity="1" d="M 142.5 73 L 141.5 75 L 142.5 73 Z " /><path fill="rgb(118,52,10)" stroke="rgb(118,52,10)" stroke-width="1" opacity="1" d="M 158.5 78 L 159.5 80 L 158.5 78 Z " /><path fill="rgb(118,52,10)" stroke="rgb(118,52,10)" stroke-width="1" opacity="1" d="M 108.5 83 L 110 83.5 L 102.5 87 L 102.5 86 L 108.5 83 Z " /><path fill="rgb(118,52,10)" stroke="rgb(118,52,10)" stroke-width="1" opacity="1" d="M 161.5 84 L 162 86.5 L 161 86.5 L 161.5 84 Z " /><path fill="rgb(118,52,10)" stroke="rgb(118,52,10)" stroke-width="1" opacity="1" d="M 2.5 121 L 6 121.5 L 2.5 122 L 2.5 121 Z " /><path fill="rgb(118,52,10)" stroke="rgb(118,52,10)" stroke-width="1" opacity="1" d="M 135.5 124 L 134.5 126 L 135.5 124 Z " /><path fill="rgb(118,52,10)" stroke="rgb(118,52,10)" stroke-width="1" opacity="1" d="M 153.5 149 Q 159.6 147.8 159 150.5 Q 161.7 152.3 157.5 154 L 129.5 163 L 115.5 170 L 109.5 171 L 107 167.5 L 109.5 165 L 122.5 159 L 125.5 159 L 153.5 149 Z " /><path fill="rgb(118,52,10)" stroke="rgb(118,52,10)" stroke-width="1" opacity="1" d="M 86.5 164 L 87.5 166 L 86.5 164 Z " /><path fill="rgb(245,211,109)" stroke="rgb(245,211,109)" stroke-width="1" opacity="1" d="M 132 19 Q 135.8 18.3 137 21.5 L 139 26.5 L 139 38.5 L 140 40.5 L 137.5 39 L 127.5 35 L 117.5 33 L 97.5 33 L 79.5 37 L 83.5 32 L 93.5 26 L 96.5 26 L 100.5 29 L 117.5 32 Q 126 30.5 130 24.5 L 132 19 Z " /><path fill="rgb(245,211,109)" stroke="rgb(245,211,109)" stroke-width="1" opacity="1" d="M 58.5 36 L 61.5 38 Q 64 41 70 40.5 L 56 47 Q 54.3 39 58.5 36 Z " /><path fill="rgb(245,211,109)" stroke="rgb(245,211,109)" stroke-width="1" opacity="1" d="M 121 42 Q 132.4 43.2 139 50.5 L 140 52.5 Q 139.3 54.8 135.5 54 L 131.5 52 L 122 51.5 L 124 45 Q 119.5 46.5 121 42 Z " /><path fill="rgb(245,211,109)" stroke="rgb(245,211,109)" stroke-width="1" opacity="1" d="M 146.5 46 Q 148.3 49.2 153.5 49 L 157 48 Q 158.8 50.4 158 56.5 L 155 66.5 L 154.5 74 L 150 73 L 151 63.5 L 149 52.5 L 146 47.5 L 146.5 46 Z " /><path fill="rgb(245,211,109)" stroke="rgb(245,211,109)" stroke-width="1" opacity="1" d="M 114.5 86 L 117 86.5 L 117 95.5 Q 112.9 101.9 102.5 102 L 99 99.5 L 97 94 Q 103.9 88.6 114.5 86 Z " /><path fill="rgb(245,211,109)" stroke="rgb(245,211,109)" stroke-width="1" opacity="1" d="M 64 87 Q 73.5 87.8 78 94.5 Q 78.5 99.5 74.5 100 L 70.5 101 L 65 96.5 L 64 87 Z " /><path fill="rgb(245,211,109)" stroke="rgb(245,211,109)" stroke-width="1" opacity="1" d="M 48.5 88 L 50 96.5 L 27.5 115 L 19.5 121 L 17.5 121 L 11 120 L 12 115 L 18.5 116 Q 30.3 113.8 36 105.5 Q 39.9 101.4 39 92.5 L 40.5 91 L 43.5 92 L 48.5 88 Z " /><path fill="rgb(245,211,109)" stroke="rgb(245,211,109)" stroke-width="1" opacity="1" d="M 162 94 Q 165.8 93 167 95.5 L 168 102 L 175.5 104 L 179.5 101 L 182 104.5 L 183 111.5 L 188.5 117 L 194 119.5 L 188.5 120 L 161 100.5 L 162 94 Z " /><path fill="rgb(245,211,109)" stroke="rgb(245,211,109)" stroke-width="1" opacity="1" d="M 155.5 107 L 172 118.5 L 170 126 Q 167.3 127.1 168 124.5 L 161.5 118 L 159.5 118 L 157.5 121 L 164 124.5 L 157.5 132 L 153 128.5 L 148 111 Q 153.3 111 155.5 107 Z " /><path fill="rgb(245,211,109)" stroke="rgb(245,211,109)" stroke-width="1" opacity="1" d="M 196.5 127 L 200 127.5 L 200 139.5 L 189.5 149 L 173.5 153 L 139 186.5 Q 142.6 189.8 149 189 L 145 200 L 126.5 200 L 125 198.5 L 116 182.5 L 116 180 L 123 175.5 Q 123.9 172.5 119.5 174 L 113 171.5 L 143.5 159 L 158.5 155 L 163.5 151 L 172 148.5 L 168 144.5 L 168 142.5 L 184.5 130 L 196.5 127 Z " /><path fill="rgb(245,211,109)" stroke="rgb(245,211,109)" stroke-width="1" opacity="1" d="M 3.5 177 L 3 178.5 L 0.5 183 L 0 178 L 3.5 177 Z " /></svg>