<svg width="200" height="200" version="1.1" xmlns="http://www.w3.org/2000/svg" desc="Created with imagetracer.js version 1.2.6" ><path fill="rgb(0,1,3)" stroke="rgb(0,1,3)" stroke-width="1" opacity="0.050980392156862744" d="M 97.5 36 L 107 36.5 L 97.5 37 L 97.5 36 Z " /><path fill="rgb(0,1,3)" stroke="rgb(0,1,3)" stroke-width="1" opacity="0.050980392156862744" d="M 108.5 36 L 114 36.5 L 108.5 37 L 108.5 36 Z " /><path fill="rgb(0,1,3)" stroke="rgb(0,1,3)" stroke-width="1" opacity="0.050980392156862744" d="M 92.5 37 L 96 37.5 Q 77 40.5 68 53.5 L 63.5 64 L 63 60.5 L 71.5 48 Q 79.3 39.8 92.5 37 Z " /><path fill="rgb(0,1,3)" stroke="rgb(0,1,3)" stroke-width="1" opacity="0.050980392156862744" d="M 115.5 37 L 123 39.5 L 121.5 40 L 115.5 38 L 115.5 37 Z " /><path fill="rgb(0,1,3)" stroke="rgb(0,1,3)" stroke-width="1" opacity="0.050980392156862744" d="M 124.5 40 L 128 41.5 L 126.5 42 L 124.5 40 Z " /><path fill="rgb(0,1,3)" stroke="rgb(0,1,3)" stroke-width="1" opacity="0.050980392156862744" d="M 145.5 40 L 156 40.5 L 145.5 41 L 145.5 40 Z " /><path fill="rgb(0,1,3)" stroke="rgb(0,1,3)" stroke-width="1" opacity="0.050980392156862744" d="M 138.5 41 L 143 41.5 L 138.5 42 L 138.5 41 Z " /><path fill="rgb(0,1,3)" stroke="rgb(0,1,3)" stroke-width="1" opacity="0.050980392156862744" d="M 131.5 42 L 134 42.5 L 131.5 43 L 131.5 42 Z " /><path fill="rgb(0,1,3)" stroke="rgb(0,1,3)" stroke-width="1" opacity="0.050980392156862744" d="M 160.5 42 L 166 45.5 L 163.5 44 Q 159.8 43.8 160.5 42 Z " /><path fill="rgb(0,1,3)" stroke="rgb(0,1,3)" stroke-width="1" opacity="0.050980392156862744" d="M 167.5 46 Q 173.9 49.6 176 57.5 L 175 57.5 L 173 52.5 L 167.5 46 Z " /><path fill="rgb(0,1,3)" stroke="rgb(0,1,3)" stroke-width="1" opacity="0.050980392156862744" d="M 176.5 59 L 177 61.5 L 176 61.5 L 176.5 59 Z " /><path fill="rgb(0,1,3)" stroke="rgb(0,1,3)" stroke-width="1" opacity="0.050980392156862744" d="M 40.5 64 L 43 64.5 Q 36.2 65.7 33 70.5 L 30.5 76 L 30 74.5 L 34 67 L 40.5 64 Z " /><path fill="rgb(0,1,3)" stroke="rgb(0,1,3)" stroke-width="1" opacity="0.050980392156862744" d="M 50.5 64 Q 57.7 64.3 61.5 68 L 62.5 65 L 63 69 L 60.5 69 L 56.5 66 L 50.5 65 L 50.5 64 Z " /><path fill="rgb(0,1,3)" stroke="rgb(0,1,3)" stroke-width="1" opacity="0.050980392156862744" d="M 177.5 64 L 178 70.5 L 177 70.5 L 177.5 64 Z " /><path fill="rgb(0,1,3)" stroke="rgb(0,1,3)" stroke-width="1" opacity="0.050980392156862744" d="M 174.5 74 L 173.5 76 L 174.5 74 Z " /><path fill="rgb(0,1,3)" stroke="rgb(0,1,3)" stroke-width="1" opacity="0.050980392156862744" d="M 29.5 77 L 30 81.5 L 29 81.5 L 29.5 77 Z " /><path fill="rgb(0,1,3)" stroke="rgb(0,1,3)" stroke-width="1" opacity="0.050980392156862744" d="M 172.5 80 Q 174.8 79.3 174 81.5 L 176 86.5 L 175 86.5 L 172.5 80 Z " /><path fill="rgb(0,1,3)" stroke="rgb(0,1,3)" stroke-width="1" opacity="0.050980392156862744" d="M 28.5 84 L 29 86.5 L 16.5 104 L 16 102.5 Q 24.6 95.6 28.5 84 Z " /><path fill="rgb(0,1,3)" stroke="rgb(0,1,3)" stroke-width="1" opacity="0.050980392156862744" d="M 176.5 89 L 177 91.5 L 176 93.5 L 178.5 92 L 182 92.5 L 174.5 97 L 168 96 L 168.5 92 L 174.5 96 Q 177.3 94.8 175 93.5 L 176.5 89 Z " /><path fill="rgb(0,1,3)" stroke="rgb(0,1,3)" stroke-width="1" opacity="0.050980392156862744" d="M 166.5 92 L 167 100.5 L 166 100.5 L 166.5 92 Z " /><path fill="rgb(0,1,3)" stroke="rgb(0,1,3)" stroke-width="1" opacity="0.050980392156862744" d="M 15.5 105 L 16 108.5 L 15 108.5 L 15.5 105 Z " /><path fill="rgb(0,1,3)" stroke="rgb(0,1,3)" stroke-width="1" opacity="0.050980392156862744" d="M 15.5 110 L 17 117.5 L 22 127.5 L 20.5 132 L 20 128.5 L 21 125.5 Q 14.6 120.1 15.5 110 Z " /><path fill="rgb(0,1,3)" stroke="rgb(0,1,3)" stroke-width="1" opacity="0.050980392156862744" d="M 19.5 133 L 20 137.5 L 18.5 146 L 18 138.5 L 19.5 133 Z " /><path fill="rgb(0,1,3)" stroke="rgb(0,1,3)" stroke-width="1" opacity="0.050980392156862744" d="M 50.5 136 Q 52.8 138.8 52 144.5 L 51 144.5 L 50.5 136 Z " /><path fill="rgb(0,1,3)" stroke="rgb(0,1,3)" stroke-width="1" opacity="0.050980392156862744" d="M 17.5 150 L 18 152.5 L 17 152.5 L 17.5 150 Z " /><path fill="rgb(0,1,3)" stroke="rgb(0,1,3)" stroke-width="1" opacity="0.050980392156862744" d="M 186 150 Q 189.7 148.5 189 151.5 L 189 153.5 L 190 158.5 L 188 164 L 186 163.5 Q 189.6 161.6 189 155.5 L 186 150 Z " /><path fill="rgb(0,1,3)" stroke="rgb(0,1,3)" stroke-width="1" opacity="0.050980392156862744" d="M 18.5 157 Q 18 164 22 166.5 L 20 165.5 Q 16.6 163 18.5 157 Z " /><path fill="rgb(0,1,3)" stroke="rgb(0,1,3)" stroke-width="1" opacity="0.050980392156862744" d="M 187.5 165 L 190 171.5 L 189 171.5 L 187.5 165 Z " /><path fill="rgb(0,1,3)" stroke="rgb(0,1,3)" stroke-width="1" opacity="0.050980392156862744" d="M 22.5 168 L 29 175.5 L 24 171.5 L 22.5 168 Z " /><path fill="rgb(0,1,3)" stroke="rgb(0,1,3)" stroke-width="1" opacity="0.050980392156862744" d="M 190.5 173 L 191 178.5 L 190 178.5 L 190.5 173 Z " /><path fill="rgb(0,1,3)" stroke="rgb(0,1,3)" stroke-width="1" opacity="0.050980392156862744" d="M 24 176 L 26 176.5 L 24 177.5 L 24 176 Z " /><path fill="rgb(0,1,3)" stroke="rgb(0,1,3)" stroke-width="1" opacity="0.050980392156862744" d="M 189.5 180 L 190 182.5 L 189 185.5 Q 192.2 187.8 191 194.5 L 190 194.5 L 190 188.5 L 188 183.5 L 189.5 180 Z " /><path fill="rgb(0,1,3)" stroke="rgb(0,1,3)" stroke-width="1" opacity="0.050980392156862744" d="M 189.5 196 L 190 198.5 L 188 199.5 L 189.5 196 Z " /><path fill="rgb(0,0,0)" stroke="rgb(0,0,0)" stroke-width="1" opacity="0" d="M 0 0 L 200 0 L 200 105.5 L 198 104.5 L 192 90 Q 186.2 88.5 184.5 92 L 178.5 92 L 174.5 96 L 174 94 Q 176.7 95.1 176 92.5 L 177 89.5 L 174 80 Q 171.3 81.1 172 78.5 L 175.5 74 Q 178.1 74.8 177 71.5 Q 179.5 70 178 64.5 L 174 52.5 L 167.5 46 L 155.5 40 L 145.5 40 L 137.5 42 L 128.5 42 L 113.5 36 L 97.5 36 L 85.5 39 Q 76 42.5 70 49.5 L 63 60.5 L 61.5 68 Q 55.2 61.8 40.5 64 L 34 67 L 31 71.5 L 27 88.5 L 16 102.5 L 15 114.5 L 21 127.5 L 18 138.5 Q 19.4 147.4 17 152.5 L 18 153.5 L 18 162.5 L 28 175.5 L 24 176 Q 25.1 178.7 22.5 178 L 8 186 L 8 192.5 L 10 200 L 0.5 200 L 0 199.5 L 0 0 Z " /><path fill="rgb(0,0,0)" stroke="rgb(0,0,0)" stroke-width="1" opacity="0" d="M 167.5 91 L 168 96 L 172 96.5 L 170 97.5 L 170.5 99 L 167 100 L 167.5 91 Z " /><path fill="rgb(0,0,0)" stroke="rgb(0,0,0)" stroke-width="1" opacity="0" d="M 198.5 143 L 200 143.5 L 200 200 L 189 199.5 Q 191.9 195.9 191 188.5 L 189 183.5 Q 191.7 180.2 191 173.5 L 189 166.5 L 187 164.5 L 190 158.5 L 190 155.5 L 188 152.5 L 189 150 L 186 149.5 L 198.5 143 Z " /><path fill="rgb(7,5,6)" stroke="rgb(7,5,6)" stroke-width="1" opacity="0.9176470588235294" d="M 96.5 37 L 101 37.5 L 96.5 38 L 96.5 37 Z " /><path fill="rgb(7,5,6)" stroke="rgb(7,5,6)" stroke-width="1" opacity="0.9176470588235294" d="M 111.5 37 L 115 37.5 L 111.5 38 L 111.5 37 Z " /><path fill="rgb(7,5,6)" stroke="rgb(7,5,6)" stroke-width="1" opacity="0.9176470588235294" d="M 119.5 39 L 131 42.5 L 126.5 43 L 119.5 40 L 119.5 39 Z " /><path fill="rgb(7,5,6)" stroke="rgb(7,5,6)" stroke-width="1" opacity="0.9176470588235294" d="M 85.5 40 L 87 40.5 L 81.5 43 L 81.5 42 L 85.5 40 Z " /><path fill="rgb(7,5,6)" stroke="rgb(7,5,6)" stroke-width="1" opacity="0.9176470588235294" d="M 143.5 41 L 149 41.5 L 143.5 42 L 143.5 41 Z " /><path fill="rgb(7,5,6)" stroke="rgb(7,5,6)" stroke-width="1" opacity="0.9176470588235294" d="M 150.5 41 L 157 41.5 L 150.5 42 L 150.5 41 Z " /><path fill="rgb(7,5,6)" stroke="rgb(7,5,6)" stroke-width="1" opacity="0.9176470588235294" d="M 134.5 42 L 141 42.5 L 134.5 43 L 134.5 42 Z " /><path fill="rgb(7,5,6)" stroke="rgb(7,5,6)" stroke-width="1" opacity="0.9176470588235294" d="M 158.5 42 L 162 43.5 L 160.5 44 L 158.5 42 Z " /><path fill="rgb(7,5,6)" stroke="rgb(7,5,6)" stroke-width="1" opacity="0.9176470588235294" d="M 79.5 43 L 78.5 45 L 79.5 43 Z " /><path fill="rgb(7,5,6)" stroke="rgb(7,5,6)" stroke-width="1" opacity="0.9176470588235294" d="M 163.5 44 L 164.5 46 L 163.5 44 Z " /><path fill="rgb(7,5,6)" stroke="rgb(7,5,6)" stroke-width="1" opacity="0.9176470588235294" d="M 76.5 45 L 73.5 49 L 76.5 45 Z " /><path fill="rgb(7,5,6)" stroke="rgb(7,5,6)" stroke-width="1" opacity="0.9176470588235294" d="M 166.5 46 L 174 54.5 L 172 53.5 L 166.5 46 Z " /><path fill="rgb(7,5,6)" stroke="rgb(7,5,6)" stroke-width="1" opacity="0.9176470588235294" d="M 71.5 50 L 68.5 54 L 71.5 50 Z " /><path fill="rgb(7,5,6)" stroke="rgb(7,5,6)" stroke-width="1" opacity="0.9176470588235294" d="M 67.5 55 L 66.5 57 L 67.5 55 Z " /><path fill="rgb(7,5,6)" stroke="rgb(7,5,6)" stroke-width="1" opacity="0.9176470588235294" d="M 174.5 56 L 176 60.5 L 175 60.5 L 174.5 56 Z " /><path fill="rgb(7,5,6)" stroke="rgb(7,5,6)" stroke-width="1" opacity="0.9176470588235294" d="M 176.5 62 L 177 71.5 L 175.5 74 L 175 72.5 L 176 71.5 L 176.5 62 Z " /><path fill="rgb(7,5,6)" stroke="rgb(7,5,6)" stroke-width="1" opacity="0.9176470588235294" d="M 43.5 64 L 50 64.5 L 43.5 65 L 43.5 64 Z " /><path fill="rgb(7,5,6)" stroke="rgb(7,5,6)" stroke-width="1" opacity="0.9176470588235294" d="M 63.5 64 L 64 67.5 L 63 67.5 L 63.5 64 Z " /><path fill="rgb(7,5,6)" stroke="rgb(7,5,6)" stroke-width="1" opacity="0.9176470588235294" d="M 36.5 67 L 33.5 71 L 36.5 67 Z " /><path fill="rgb(7,5,6)" stroke="rgb(7,5,6)" stroke-width="1" opacity="0.9176470588235294" d="M 58.5 67 L 62 69.5 L 60.5 70 L 58.5 67 Z " /><path fill="rgb(7,5,6)" stroke="rgb(7,5,6)" stroke-width="1" opacity="0.9176470588235294" d="M 30.5 76 L 31 79.5 L 30 79.5 L 30.5 76 Z " /><path fill="rgb(7,5,6)" stroke="rgb(7,5,6)" stroke-width="1" opacity="0.9176470588235294" d="M 172.5 81 L 175 85.5 L 174 85.5 L 172.5 81 Z " /><path fill="rgb(7,5,6)" stroke="rgb(7,5,6)" stroke-width="1" opacity="0.9176470588235294" d="M 29.5 82 L 30 85.5 L 29 85.5 L 29.5 82 Z " /><path fill="rgb(7,5,6)" stroke="rgb(7,5,6)" stroke-width="1" opacity="0.9176470588235294" d="M 175.5 87 L 176 91.5 L 175 91.5 L 175.5 87 Z " /><path fill="rgb(7,5,6)" stroke="rgb(7,5,6)" stroke-width="1" opacity="0.9176470588235294" d="M 26.5 91 L 25.5 93 L 26.5 91 Z " /><path fill="rgb(7,5,6)" stroke="rgb(7,5,6)" stroke-width="1" opacity="0.9176470588235294" d="M 169.5 92 L 174 94.5 L 171.5 95 L 169.5 92 Z " /><path fill="rgb(7,5,6)" stroke="rgb(7,5,6)" stroke-width="1" opacity="0.9176470588235294" d="M 24.5 94 L 22.5 97 L 24.5 94 Z " /><path fill="rgb(7,5,6)" stroke="rgb(7,5,6)" stroke-width="1" opacity="0.9176470588235294" d="M 21.5 98 L 18 102.5 L 16.5 106 L 16 104.5 L 21.5 98 Z " /><path fill="rgb(7,5,6)" stroke="rgb(7,5,6)" stroke-width="1" opacity="0.9176470588235294" d="M 165.5 98 L 166 101.5 L 165 101.5 L 165.5 98 Z " /><path fill="rgb(7,5,6)" stroke="rgb(7,5,6)" stroke-width="1" opacity="0.9176470588235294" d="M 16.5 112 L 17 114.5 L 16 114.5 L 16.5 112 Z " /><path fill="rgb(7,5,6)" stroke="rgb(7,5,6)" stroke-width="1" opacity="0.9176470588235294" d="M 20.5 123 L 21.5 125 L 20.5 123 Z " /><path fill="rgb(7,5,6)" stroke="rgb(7,5,6)" stroke-width="1" opacity="0.9176470588235294" d="M 49.5 134 Q 52.3 135.2 50 136.5 L 49.5 141 L 49.5 134 Z " /><path fill="rgb(7,5,6)" stroke="rgb(7,5,6)" stroke-width="1" opacity="0.9176470588235294" d="M 19.5 138 L 20 140.5 L 19 140.5 L 19.5 138 Z " /><path fill="rgb(7,5,6)" stroke="rgb(7,5,6)" stroke-width="1" opacity="0.9176470588235294" d="M 178.5 139 L 184 146.5 L 182 147 L 178.5 139 Z " /><path fill="rgb(7,5,6)" stroke="rgb(7,5,6)" stroke-width="1" opacity="0.9176470588235294" d="M 52.5 141 L 53 147.5 L 52 147.5 L 50 142.5 L 51 142.5 L 51.5 145 L 52.5 141 Z " /><path fill="rgb(7,5,6)" stroke="rgb(7,5,6)" stroke-width="1" opacity="0.9176470588235294" d="M 18.5 146 L 19 156.5 L 18 156.5 L 18.5 146 Z " /><path fill="rgb(7,5,6)" stroke="rgb(7,5,6)" stroke-width="1" opacity="0.9176470588235294" d="M 183.5 148 L 186 149.5 L 185.5 151 L 183.5 148 Z " /><path fill="rgb(7,5,6)" stroke="rgb(7,5,6)" stroke-width="1" opacity="0.9176470588235294" d="M 186.5 152 Q 189.6 153.4 189 158.5 L 187.5 161 L 187 159.5 L 188 155.5 L 186.5 152 Z " /><path fill="rgb(7,5,6)" stroke="rgb(7,5,6)" stroke-width="1" opacity="0.9176470588235294" d="M 19.5 161 L 21 163.5 L 19 162.5 L 19.5 161 Z " /><path fill="rgb(7,5,6)" stroke="rgb(7,5,6)" stroke-width="1" opacity="0.9176470588235294" d="M 186.5 164 L 188 167.5 L 187 167.5 L 186.5 164 Z " /><path fill="rgb(7,5,6)" stroke="rgb(7,5,6)" stroke-width="1" opacity="0.9176470588235294" d="M 21.5 165 L 25 169.5 L 22 167.5 L 21.5 165 Z " /><path fill="rgb(7,5,6)" stroke="rgb(7,5,6)" stroke-width="1" opacity="0.9176470588235294" d="M 25.5 171 L 28.5 175 L 25.5 171 Z " /><path fill="rgb(7,5,6)" stroke="rgb(7,5,6)" stroke-width="1" opacity="0.9176470588235294" d="M 189.5 172 L 190 179.5 L 189 179.5 L 189.5 172 Z " /><path fill="rgb(7,5,6)" stroke="rgb(7,5,6)" stroke-width="1" opacity="0.9176470588235294" d="M 188.5 181 L 189 182.5 L 187.5 185 L 187 183.5 L 188.5 181 Z " /><path fill="rgb(7,5,6)" stroke="rgb(7,5,6)" stroke-width="1" opacity="0.9176470588235294" d="M 189.5 188 L 190 195.5 L 187.5 200 L 187 198.5 Q 190.4 195.4 189.5 188 Z " /><path fill="rgb(93,70,64)" stroke="rgb(93,70,64)" stroke-width="1" opacity="0.996078431372549" d="M 101.5 43 L 110 43.5 L 101.5 44 L 101.5 43 Z " /><path fill="rgb(93,70,64)" stroke="rgb(93,70,64)" stroke-width="1" opacity="0.996078431372549" d="M 106.5 48 Q 113.7 48.9 116 54.5 L 118 59 L 114 59 L 114 60.5 Q 117.3 65.3 125.5 65 L 126.5 64 L 137.5 63 L 141 59.5 L 142 54 Q 148 52.8 150.5 56 Q 153.1 52.6 160.5 54 L 166.5 58 L 168 57.5 L 170 65.5 L 170 73.5 L 173 77.5 L 171.5 77 L 165.5 73 L 159.5 73 Q 156.5 73.5 157 77.5 L 158 80 Q 153.3 80.5 151 84.5 Q 151.8 87.1 148.5 86 L 144 84 Q 145.3 80.7 140.5 82 L 137.5 84 L 130 82.5 L 132 82 L 125.5 69 Q 124.6 74.6 120.5 77 Q 117.5 80 110.5 79 L 100.5 67 L 94.5 65 L 86.5 69 L 82 73.5 Q 84.3 74.8 81.5 76 L 77.5 79 L 79 76.5 L 86.5 68 L 90 66.5 L 83.5 65 L 80.5 66 L 81 64.5 L 87 55 L 96.5 50 L 106.5 48 Z " /><path fill="rgb(93,70,64)" stroke="rgb(93,70,64)" stroke-width="1" opacity="0.996078431372549" d="M 161.5 51 L 162.5 53 L 161.5 51 Z " /><path fill="rgb(93,70,64)" stroke="rgb(93,70,64)" stroke-width="1" opacity="0.996078431372549" d="M 74.5 56 L 73.5 58 L 74.5 56 Z " /><path fill="rgb(93,70,64)" stroke="rgb(93,70,64)" stroke-width="1" opacity="0.996078431372549" d="M 69.5 69 L 70 70.5 L 66.5 73 L 66.5 72 L 69 70.5 L 69.5 69 Z " /><path fill="rgb(93,70,64)" stroke="rgb(93,70,64)" stroke-width="1" opacity="0.996078431372549" d="M 87.5 72 Q 94.4 71.1 96 75.5 L 95.5 78 L 94 74 L 87.5 73 L 85.5 74 L 85.5 73 L 87.5 72 Z " /><path fill="rgb(93,70,64)" stroke="rgb(93,70,64)" stroke-width="1" opacity="0.996078431372549" d="M 38.5 75 Q 39.8 77.2 44.5 76 L 49.5 80 L 55.5 80 L 55.5 79 L 53 77.5 L 58.5 77 Q 68.6 79.4 74 86.5 L 73 88.5 L 73.5 90 Q 69.4 86.1 60.5 87 L 50.5 90 L 36.5 99 L 38 96.5 L 37 95.5 L 35.5 90 L 34 90.5 L 36 88.5 L 38 80.5 L 38 78.5 L 38.5 75 Z " /><path fill="rgb(93,70,64)" stroke="rgb(93,70,64)" stroke-width="1" opacity="0.996078431372549" d="M 96.5 80 L 97 83.5 L 96 83.5 L 96.5 80 Z " /><path fill="rgb(93,70,64)" stroke="rgb(93,70,64)" stroke-width="1" opacity="0.996078431372549" d="M 97.5 85 L 98 88.5 L 97 88.5 L 97.5 85 Z " /><path fill="rgb(93,70,64)" stroke="rgb(93,70,64)" stroke-width="1" opacity="0.996078431372549" d="M 135.5 87 L 135 88.5 L 134.5 90 L 134 88.5 L 135.5 87 Z " /><path fill="rgb(93,70,64)" stroke="rgb(93,70,64)" stroke-width="1" opacity="0.996078431372549" d="M 98.5 90 L 102 96.5 L 99 94.5 L 98.5 90 Z " /><path fill="rgb(93,70,64)" stroke="rgb(93,70,64)" stroke-width="1" opacity="0.996078431372549" d="M 30.5 97 L 29.5 99 L 30.5 97 Z " /><path fill="rgb(93,70,64)" stroke="rgb(93,70,64)" stroke-width="1" opacity="0.996078431372549" d="M 28.5 100 L 24.5 105 L 28.5 100 Z " /><path fill="rgb(93,70,64)" stroke="rgb(93,70,64)" stroke-width="1" opacity="0.996078431372549" d="M 35.5 100 L 26.5 110 L 23 108.5 L 27.5 108 L 35.5 100 Z " /><path fill="rgb(93,70,64)" stroke="rgb(93,70,64)" stroke-width="1" opacity="0.996078431372549" d="M 41.5 104 L 42 105.5 L 36.5 110 L 41.5 104 Z " /><path fill="rgb(93,70,64)" stroke="rgb(93,70,64)" stroke-width="1" opacity="0.996078431372549" d="M 96.5 106 L 97.5 108 L 96.5 106 Z " /><path fill="rgb(93,70,64)" stroke="rgb(93,70,64)" stroke-width="1" opacity="0.996078431372549" d="M 169.5 139 L 172.5 143 L 169.5 139 Z " /><path fill="rgb(93,70,64)" stroke="rgb(93,70,64)" stroke-width="1" opacity="0.996078431372549" d="M 149.5 147 L 145.5 152 L 149.5 147 Z " /><path fill="rgb(93,70,64)" stroke="rgb(93,70,64)" stroke-width="1" opacity="0.996078431372549" d="M 117.5 150 Q 119.8 149.3 119 151.5 L 117.5 150 Z " /><path fill="rgb(93,70,64)" stroke="rgb(93,70,64)" stroke-width="1" opacity="0.996078431372549" d="M 141.5 155 L 140.5 157 L 141.5 155 Z " /><path fill="rgb(93,70,64)" stroke="rgb(93,70,64)" stroke-width="1" opacity="0.996078431372549" d="M 168.5 156 L 176 158 L 177 164.5 L 174.5 168 L 158 181 L 150 193.5 L 149 200 L 126 199.5 Q 128.8 198.8 128 194.5 L 127.5 193 L 130 194 L 130.5 197 L 131 195 Q 136.4 196.5 138 193.5 L 143 179.5 L 142 177 L 144 176.5 L 144 170 L 136 169.5 L 143.5 164 L 145.5 164 L 149.5 164 L 156 161 L 156 164 L 162 164 L 162 158.5 L 163.5 158 L 168.5 156 Z M 163 164 L 163 173 L 166 171 L 163 170 L 163 164 Z M 167 164 L 167 168 Q 170 169 169 166 L 172 165 L 167 164 Z M 148 176 L 149 179 L 148 181 L 151 182 L 151 176 L 148 176 Z M 156 176 L 155 179 L 156 179 L 156 176 Z " /><path fill="rgb(93,70,64)" stroke="rgb(93,70,64)" stroke-width="1" opacity="0.996078431372549" d="M 181.5 170 Q 183.8 172.8 183 178.5 L 181 177.5 L 179 172.5 L 181.5 170 Z " /><path fill="rgb(93,70,64)" stroke="rgb(93,70,64)" stroke-width="1" opacity="0.996078431372549" d="M 134.5 172 L 137.5 174 L 137.5 175 L 133 173.5 L 134.5 172 Z " /><path fill="rgb(93,70,64)" stroke="rgb(93,70,64)" stroke-width="1" opacity="0.996078431372549" d="M 36.5 182 L 37.5 184 L 36.5 182 Z " /><path fill="rgb(93,70,64)" stroke="rgb(93,70,64)" stroke-width="1" opacity="0.996078431372549" d="M 128.5 182 L 130 182.5 L 129 185 L 126 184.5 L 128.5 182 Z " /><path fill="rgb(0,0,0)" stroke="rgb(0,0,0)" stroke-width="1" opacity="0.996078431372549" d="M 101.5 37 Q 117.8 36.2 126.5 43 L 140.5 43 L 149.5 41 L 162.5 44 L 172 52.5 L 176 61.5 L 176 71.5 L 175 74 L 171 72.5 Q 171.7 59 166 53 L 154.5 47 L 145.5 47 L 136.5 49 L 128.5 49 L 112.5 43 L 97.5 43 Q 82.3 45.8 74 55.5 Q 69.2 60.2 69 69.5 L 66.5 72 L 63 69.5 L 66 57.5 L 72 49 L 87.5 40 L 101.5 37 Z " /><path fill="rgb(0,0,0)" stroke="rgb(0,0,0)" stroke-width="1" opacity="0.996078431372549" d="M 42.5 65 Q 57.2 63.3 62 71.5 Q 63.8 76.8 58.5 75 L 52.5 71 L 44.5 70 L 38 73.5 L 34 90.5 Q 29.5 100 22 106.5 L 22 112.5 L 24.5 117 Q 29.7 104.2 40.5 97 Q 50 89.5 65.5 88 L 73 91 L 74 93.5 Q 73.3 95.8 69.5 95 Q 67 91.8 61 93 L 62 99.5 L 60 103.5 L 65 109.5 L 60.5 113 L 60 111 L 57.5 110 L 55 116.5 L 55 118.5 Q 50.2 123.7 52 135.5 L 53 138 L 58 141.5 Q 56.6 151.9 62.5 155 L 71.5 155 L 94.5 151 L 124.5 142 L 156.5 127 L 162 121.5 L 163 112.5 L 159 105 Q 156.4 102.3 149.5 103 L 144 106.5 L 142 112 L 139.5 113 Q 136.3 111.3 138 104.5 Q 134.8 102.5 135 98 L 145.5 99 Q 148.2 96.2 154.5 97 L 160 99 L 160 91.5 L 161.5 91 L 163.5 90 Q 166.8 91.7 166 97.5 Q 163.8 98.8 165 103.5 L 168 109.5 L 168 123.5 L 165 128 L 159.5 132 L 139 141 Q 137.9 143.7 140.5 143 L 144.5 144 Q 153.2 134.7 166.5 130 L 179 140.5 L 182 147 L 184 147.5 L 183 148.5 L 186 151.5 L 188 158.5 L 186 165.5 Q 190.5 170 189 180.5 L 187 184.5 Q 190.6 187.4 189 195.5 L 187 200 L 179 199.5 Q 183.4 197.4 184 191.5 L 181 183.5 Q 184.8 181.2 184 174.5 L 179 163.5 L 182 159.5 L 182 155.5 L 172 140 L 165.5 136 Q 150.9 142.9 141 154.5 L 129 171.5 L 125 183.5 L 125 189.5 L 123 197.5 L 124 200 L 118 200 L 118 186.5 L 121 175.5 L 126 165.5 L 139 148 L 132.5 146 L 127.5 146 L 99.5 156 L 89.5 157 L 72.5 161 L 64.5 161 L 63.5 162 L 52 155.5 Q 52.8 153.3 50.5 154 L 44 143.5 L 43 129.5 L 47 125.5 L 52 107 Q 46.4 107.7 43.5 112 L 40 112 L 39 109.5 L 42.5 105 Q 47.8 101 56 101 L 56 96 L 54.5 96 Q 40.6 101.1 33 112.5 L 31 119.5 L 39 126.5 L 37.5 132 L 34 129.5 Q 34.8 127.3 32.5 128 L 31 125 L 28 126.5 L 25 138.5 L 25 151.5 L 24 152.5 L 26 162.5 L 41.5 179 L 70 195.5 L 67.5 200 L 62 200 Q 63.5 196.2 60.5 197 Q 42 189 29 175.5 L 19 160.5 L 19 141.5 L 22 129.5 L 22 124.5 Q 15.9 118.6 16 106.5 L 27 91.5 L 30 85.5 L 31 75.5 L 37.5 67 L 42.5 65 Z M 50 134 Q 48 143 52 148 L 53 148 L 52 138 L 50 134 Z " /><path fill="rgb(0,0,0)" stroke="rgb(0,0,0)" stroke-width="1" opacity="0.996078431372549" d="M 160.5 74 Q 169.5 74 172 80.5 Q 176.3 84.9 175 94 Q 171.2 95 170 92.5 Q 169.9 84.1 164.5 81 L 159 77.5 L 160.5 74 Z " /><path fill="rgb(0,0,0)" stroke="rgb(0,0,0)" stroke-width="1" opacity="0.996078431372549" d="M 82.5 77 Q 88.8 75.8 90 79.5 L 92 90.5 L 100.5 102 L 103 103.5 L 100.5 109 L 92 101.5 L 86 90.5 L 85 83 L 79 87.5 Q 79.8 92.3 76.5 93 Q 74.3 93.8 75 91.5 Q 72.8 90.3 74 85.5 L 77 80 L 82.5 77 Z " /><path fill="rgb(80,62,56)" stroke="rgb(80,62,56)" stroke-width="1" opacity="0.996078431372549" d="M 164.5 53 L 166.5 56 L 164.5 53 Z " /><path fill="rgb(80,62,56)" stroke="rgb(80,62,56)" stroke-width="1" opacity="0.996078431372549" d="M 91.5 65 L 93.5 66 L 95.5 66 L 100.5 67 L 107 73.5 L 110.5 79 L 116.5 79 L 124 73.5 L 125.5 69 L 132 82 Q 122.5 82.8 117 88.5 L 116 90.5 L 116 102 L 112.5 103 L 110 97 L 102 98 L 98 89.5 L 96 75.5 L 93.5 73 L 87.5 72 L 84 74.5 Q 84.8 76.8 82.5 76 L 77.5 80 L 80.5 76 L 83 74.5 L 82 73.5 L 86.5 69 L 92 66.5 L 91.5 65 Z " /><path fill="rgb(80,62,56)" stroke="rgb(80,62,56)" stroke-width="1" opacity="0.996078431372549" d="M 62.5 70 L 63.5 72 L 62.5 70 Z " /><path fill="rgb(80,62,56)" stroke="rgb(80,62,56)" stroke-width="1" opacity="0.996078431372549" d="M 159.5 73 L 158 75.5 Q 157.5 79.5 160.5 80 L 167 84.5 Q 167.8 87.1 164.5 86 L 162.5 85 L 158 86 Q 160.1 89.3 159 97.5 L 157.5 97 L 151.5 96 Q 145.8 99.3 135.5 98 Q 132 97 133 91.5 L 136 86 L 140 84.5 Q 137.8 83.3 140.5 82 L 144 82 Q 142.9 84.7 145.5 84 L 151 86 L 154.5 81 L 158 80 L 157 75.5 L 159.5 73 Z " /><path fill="rgb(80,62,56)" stroke="rgb(80,62,56)" stroke-width="1" opacity="0.996078431372549" d="M 170.5 73 L 172.5 76 L 170.5 73 Z " /><path fill="rgb(80,62,56)" stroke="rgb(80,62,56)" stroke-width="1" opacity="0.996078431372549" d="M 37.5 80 L 38 82.5 L 36.5 85 L 36 83.5 L 37.5 80 Z " /><path fill="rgb(80,62,56)" stroke="rgb(80,62,56)" stroke-width="1" opacity="0.996078431372549" d="M 60.5 87 L 67 87.5 L 60.5 88 L 60.5 87 Z " /><path fill="rgb(80,62,56)" stroke="rgb(80,62,56)" stroke-width="1" opacity="0.996078431372549" d="M 57.5 88 L 59 88.5 L 53.5 90 L 53.5 89 L 57.5 88 Z " /><path fill="rgb(80,62,56)" stroke="rgb(80,62,56)" stroke-width="1" opacity="0.996078431372549" d="M 41.5 95 L 40.5 97 L 41.5 95 Z " /><path fill="rgb(80,62,56)" stroke="rgb(80,62,56)" stroke-width="1" opacity="0.996078431372549" d="M 37.5 96 Q 41 98 36.5 100 L 37.5 96 Z " /><path fill="rgb(80,62,56)" stroke="rgb(80,62,56)" stroke-width="1" opacity="0.996078431372549" d="M 93.5 103 L 95.5 106 L 93.5 103 Z " /><path fill="rgb(80,62,56)" stroke="rgb(80,62,56)" stroke-width="1" opacity="0.996078431372549" d="M 50.5 107 Q 52.8 106.3 52 108.5 L 50.5 107 Z " /><path fill="rgb(80,62,56)" stroke="rgb(80,62,56)" stroke-width="1" opacity="0.996078431372549" d="M 23 109 L 26.5 110 L 28 109.5 L 24.5 115 Q 21.8 113.6 23 109 Z " /><path fill="rgb(80,62,56)" stroke="rgb(80,62,56)" stroke-width="1" opacity="0.996078431372549" d="M 32.5 120 L 33.5 122 L 32.5 120 Z " /><path fill="rgb(80,62,56)" stroke="rgb(80,62,56)" stroke-width="1" opacity="0.996078431372549" d="M 108.5 153 L 112.5 158 L 108.5 153 Z " /><path fill="rgb(80,62,56)" stroke="rgb(80,62,56)" stroke-width="1" opacity="0.996078431372549" d="M 168.5 172 L 166.5 175 L 168.5 172 Z " /><path fill="rgb(80,62,56)" stroke="rgb(80,62,56)" stroke-width="1" opacity="0.996078431372549" d="M 178.5 173 L 181 176.5 L 176 179.5 Q 176.8 182.1 173.5 181 L 172 179.5 L 178.5 173 Z " /><path fill="rgb(80,62,56)" stroke="rgb(80,62,56)" stroke-width="1" opacity="0.996078431372549" d="M 140.5 176 L 141.5 178 L 140.5 176 Z " /><path fill="rgb(80,62,56)" stroke="rgb(80,62,56)" stroke-width="1" opacity="0.996078431372549" d="M 142.5 179 L 143 181.5 L 142 181.5 L 142.5 179 Z " /><path fill="rgb(80,62,56)" stroke="rgb(80,62,56)" stroke-width="1" opacity="0.996078431372549" d="M 127 180 L 131 182.5 L 130 186 L 128 185.5 L 130 182.5 L 128.5 182 L 126 183.5 L 127 180 Z " /><path fill="rgb(80,62,56)" stroke="rgb(80,62,56)" stroke-width="1" opacity="0.996078431372549" d="M 168.5 182 L 171 186.5 L 158 195 L 159 191.5 L 168.5 182 Z " /><path fill="rgb(80,62,56)" stroke="rgb(80,62,56)" stroke-width="1" opacity="0.996078431372549" d="M 179 191 L 183 191 L 183 192.5 L 183 194.5 L 179.5 198 L 176.5 200 L 163.5 200 L 165.5 197 L 172.5 194 L 176.5 196 L 179 191 Z " /><path fill="rgb(80,62,56)" stroke="rgb(80,62,56)" stroke-width="1" opacity="0.996078431372549" d="M 137.5 193 L 136.5 195 L 137.5 193 Z " /><path fill="rgb(65,26,38)" stroke="rgb(65,26,38)" stroke-width="1" opacity="0.996078431372549" d="M 146.5 47 L 154 47.5 L 146.5 48 L 146.5 47 Z " /><path fill="rgb(65,26,38)" stroke="rgb(65,26,38)" stroke-width="1" opacity="0.996078431372549" d="M 162.5 51 L 163.5 53 L 162.5 51 Z " /><path fill="rgb(65,26,38)" stroke="rgb(65,26,38)" stroke-width="1" opacity="0.996078431372549" d="M 61.5 70 L 65 71.5 L 63 71.5 L 62.5 74 L 61.5 70 Z " /><path fill="rgb(65,26,38)" stroke="rgb(65,26,38)" stroke-width="1" opacity="0.996078431372549" d="M 166.5 74 L 167.5 76 L 166.5 74 Z " /><path fill="rgb(65,26,38)" stroke="rgb(65,26,38)" stroke-width="1" opacity="0.996078431372549" d="M 169.5 76 L 171.5 79 L 169.5 76 Z " /><path fill="rgb(65,26,38)" stroke="rgb(65,26,38)" stroke-width="1" opacity="0.996078431372549" d="M 36.5 80 L 37 82.5 L 36 82.5 L 36.5 80 Z " /><path fill="rgb(65,26,38)" stroke="rgb(65,26,38)" stroke-width="1" opacity="0.996078431372549" d="M 43.5 94 L 42.5 96 L 43.5 94 Z " /><path fill="rgb(65,26,38)" stroke="rgb(65,26,38)" stroke-width="1" opacity="0.996078431372549" d="M 28.5 99 L 27.5 101 L 28.5 99 Z " /><path fill="rgb(65,26,38)" stroke="rgb(65,26,38)" stroke-width="1" opacity="0.996078431372549" d="M 90.5 99 L 91.5 101 L 90.5 99 Z " /><path fill="rgb(65,26,38)" stroke="rgb(65,26,38)" stroke-width="1" opacity="0.996078431372549" d="M 22.5 107 L 23 110.5 L 22 110.5 L 22.5 107 Z " /><path fill="rgb(65,26,38)" stroke="rgb(65,26,38)" stroke-width="1" opacity="0.996078431372549" d="M 27.5 110 L 26.5 112 L 27.5 110 Z " /><path fill="rgb(65,26,38)" stroke="rgb(65,26,38)" stroke-width="1" opacity="0.996078431372549" d="M 23.5 114 L 24.5 116 L 23.5 114 Z " /><path fill="rgb(65,26,38)" stroke="rgb(65,26,38)" stroke-width="1" opacity="0.996078431372549" d="M 180.5 160 L 180 161.5 L 179 164.5 L 182 169.5 L 180 170 L 172 179.5 L 176 181 L 178.5 177 L 181 177 L 181 179 Q 183.7 177.9 183 180.5 Q 180 181.5 181 186.5 L 183 191 L 179 191 L 179 192.5 L 176.5 196 L 170.5 194 L 162.5 200 L 149 200 L 149 196.5 L 153 187.5 L 165.5 175 L 176 166.5 L 180.5 160 Z M 169 182 L 159 192 L 158 195 L 171 187 L 169 182 Z " /><path fill="rgb(65,26,38)" stroke="rgb(65,26,38)" stroke-width="1" opacity="0.996078431372549" d="M 129.5 171 L 130 173 L 135 174.5 L 134.5 176 L 137.5 175 L 142 178.5 L 142 183.5 L 135.5 195 L 124 193 L 125 183.5 L 129.5 171 Z M 127 180 L 126 185 L 130 186 L 131 183 L 127 180 Z " /><path fill="rgb(65,26,38)" stroke="rgb(65,26,38)" stroke-width="1" opacity="0.996078431372549" d="M 182.5 195 L 180.5 198 L 182.5 195 Z " /><path fill="rgb(65,26,38)" stroke="rgb(65,26,38)" stroke-width="1" opacity="0.996078431372549" d="M 178.5 198 L 177.5 200 L 178.5 198 Z " /><path fill="rgb(240,214,184)" stroke="rgb(240,214,184)" stroke-width="1" opacity="1" d="M 52.5 98 L 54 98.5 L 49.5 101 L 50.5 99 L 52.5 98 Z " /><path fill="rgb(240,214,184)" stroke="rgb(240,214,184)" stroke-width="1" opacity="1" d="M 185.5 100 Q 189.6 102.7 189 108 L 180 113.5 Q 180.5 118.5 176.5 119 L 172 107 L 185.5 100 Z " /><path fill="rgb(240,214,184)" stroke="rgb(240,214,184)" stroke-width="1" opacity="1" d="M 153.5 105 L 155.5 105 L 161 110.5 L 162 117.5 L 157.5 125 L 139.5 134 L 134.5 135 L 130.5 138 L 105.5 147 L 93.5 150 L 78.5 151 L 69 144.5 L 70.5 141 Q 80.4 140.4 84 133.5 Q 88.5 127.8 87 117 L 96.5 122 L 101 122 Q 100 126.7 103.5 128 Q 116.3 129.8 123.5 126 L 136 115.5 L 137.5 113 Q 139.8 116.2 146.5 115 L 148 114.5 Q 145 115.5 146 120.5 Q 146.5 123.5 150.5 123 L 155 119.5 L 157 112.5 Q 156 109 150.5 110 L 149 110.5 L 153.5 105 Z " /><path fill="rgb(240,214,184)" stroke="rgb(240,214,184)" stroke-width="1" opacity="1" d="M 123.5 109 Q 126.2 110.2 124 111.5 Q 123.6 117.1 119.5 119 L 114.5 121 L 109 118.5 L 110 115 L 123.5 109 Z " /><path fill="rgb(240,214,184)" stroke="rgb(240,214,184)" stroke-width="1" opacity="1" d="M 37.5 110 L 40.5 114 L 45.5 112 L 46 116 Q 43.3 114.9 44 117.5 Q 40.1 119.6 41 125 L 38 125 Q 39.1 122.3 36.5 123 L 32 117.5 L 37.5 110 Z " /><path fill="rgb(240,214,184)" stroke="rgb(240,214,184)" stroke-width="1" opacity="1" d="M 173.5 120 L 175 120.5 L 167.5 125 L 168 123.5 Q 167.2 120.9 170.5 122 L 173.5 120 Z " /><path fill="rgb(240,214,184)" stroke="rgb(240,214,184)" stroke-width="1" opacity="1" d="M 64.5 127 Q 71.5 126.3 75 128 L 73 134 Q 64.2 136 62 130.5 L 61 128.5 L 64.5 127 Z " /><path fill="rgb(240,214,184)" stroke="rgb(240,214,184)" stroke-width="1" opacity="1" d="M 63.5 141 L 66 141.5 L 63.5 142 L 63.5 141 Z " /><path fill="rgb(240,214,184)" stroke="rgb(240,214,184)" stroke-width="1" opacity="1" d="M 33.5 182 L 37 183.5 L 37.5 186 L 39.5 186 L 42 187.5 L 38.5 188 L 28.5 195 L 23 197 Q 24.5 201.5 20 200 L 17 191.5 L 33.5 182 Z " /><path fill="rgb(135,243,244)" stroke="rgb(135,243,244)" stroke-width="1" opacity="1" d="M 130.5 83 L 138 84.5 L 134 87.5 L 132 93.5 L 137 105.5 L 137 113.5 L 128.5 123 L 117.5 128 L 103.5 128 L 101 125.5 L 101 110.5 Q 102.5 101.5 108.5 97 Q 111.5 96.1 110 100.5 L 112.5 104 L 117 100.5 Q 114.5 88.5 121.5 86 L 130.5 83 Z M 123 104 L 109 110 Q 103 112 104 121 L 112 126 Q 119 127 123 123 L 127 119 L 130 110 L 129 106 Q 130 103 123 104 Z " /><path fill="rgb(135,243,244)" stroke="rgb(135,243,244)" stroke-width="1" opacity="1" d="M 54.5 98 L 55 100 L 53 99.5 L 54.5 98 Z " /><path fill="rgb(135,243,244)" stroke="rgb(135,243,244)" stroke-width="1" opacity="1" d="M 185.5 99 L 186.5 101 L 184.5 101 L 172 107 L 176.5 119 L 181.5 112 L 189 108 L 189.5 106 L 200 125.5 L 200 134 L 190.5 139 L 187 139 L 182.5 130 L 174.5 134 L 167.5 129 L 165 129 L 167.5 125 L 171 122.5 L 169 121.5 L 175 119 L 175 115.5 L 171 107.5 L 185.5 99 Z " /><path fill="rgb(135,243,244)" stroke="rgb(135,243,244)" stroke-width="1" opacity="1" d="M 81.5 101 Q 88.3 109.7 87 126.5 Q 84.8 134.8 78.5 139 L 66.5 142 Q 65 139.5 59.5 141 L 54 136.5 L 53 126.5 L 58 116.5 L 57 112 L 59 112 Q 57.9 114.7 60.5 114 L 69.5 108 L 70 110.5 L 70 112.5 L 71.5 115 L 74.5 115 L 78 113 L 81.5 101 Z M 66 122 Q 59 123 56 128 L 59 136 L 66 139 Q 73 140 76 137 L 80 132 L 79 127 L 75 123 L 68 122 L 66 122 Z " /><path fill="rgb(135,243,244)" stroke="rgb(135,243,244)" stroke-width="1" opacity="1" d="M 187.5 102 L 189 104.5 L 188 104.5 L 187.5 102 Z " /><path fill="rgb(135,243,244)" stroke="rgb(135,243,244)" stroke-width="1" opacity="1" d="M 49.5 108 L 51 108.5 L 46 125.5 L 44.5 127 L 40 125.5 L 44 116 L 46 116 L 46 110.5 L 47.5 110 L 49.5 108 Z " /><path fill="rgb(135,243,244)" stroke="rgb(135,243,244)" stroke-width="1" opacity="1" d="M 123.5 108 Q 127.3 106.8 126 110.5 L 121 120 Q 118.4 122.7 111.5 122 L 108 119.5 L 108 116.5 L 112.5 112 L 123.5 108 Z M 124 109 L 110 115 L 109 119 L 115 121 L 120 119 Q 124 117 124 112 Q 126 110 124 109 Z " /><path fill="rgb(135,243,244)" stroke="rgb(135,243,244)" stroke-width="1" opacity="1" d="M 65.5 126 Q 73.1 124.9 76 128.5 Q 76.8 133.3 73.5 134 L 73 132.5 Q 75.8 131.4 75 128 L 65.5 127 L 65.5 126 Z " /><path fill="rgb(135,243,244)" stroke="rgb(135,243,244)" stroke-width="1" opacity="1" d="M 61.5 127 L 64 127.5 L 61 128.5 L 65.5 134 L 72 134.5 L 65.5 135 L 61 131.5 L 60 128.5 L 61.5 127 Z " /><path fill="rgb(135,243,244)" stroke="rgb(135,243,244)" stroke-width="1" opacity="1" d="M 150.5 136 L 152 136.5 L 142.5 143 L 141.5 141 L 150.5 136 Z " /><path fill="rgb(135,243,244)" stroke="rgb(135,243,244)" stroke-width="1" opacity="1" d="M 65 166 L 70.5 167 L 71.5 166 L 79.5 166 L 88 173.5 L 87 175.5 L 88 177.5 L 84 191.5 L 84 195.5 L 81.5 200 L 69 199.5 Q 72.7 195.2 72 188 L 58.5 188 L 54 186 L 60 176 L 70.5 180 L 75 180 L 76 174 L 65 168.5 L 65 166 Z " /><path fill="rgb(135,243,244)" stroke="rgb(135,243,244)" stroke-width="1" opacity="1" d="M 31.5 182 L 33 182.5 L 25.5 187 L 26.5 185 L 31.5 182 Z " /><path fill="rgb(135,243,244)" stroke="rgb(135,243,244)" stroke-width="1" opacity="1" d="M 98 184 Q 100.7 182.9 100 185.5 L 103.5 189 L 115 189 L 115 200 L 95.5 200 L 96 198.5 L 96 192.5 L 98 184 Z " /><path fill="rgb(135,243,244)" stroke="rgb(135,243,244)" stroke-width="1" opacity="1" d="M 38.5 188 L 42.5 188 L 55.5 196 L 61 197 L 60.5 200 L 23 200 Q 21.5 196.2 24.5 197 L 38.5 188 Z " /><path fill="rgb(36,207,213)" stroke="rgb(36,207,213)" stroke-width="1" opacity="1" d="M 132.5 83 L 136 83.5 L 132.5 84 L 132.5 83 Z " /><path fill="rgb(36,207,213)" stroke="rgb(36,207,213)" stroke-width="1" opacity="1" d="M 120.5 86 L 118.5 89 L 120.5 86 Z " /><path fill="rgb(36,207,213)" stroke="rgb(36,207,213)" stroke-width="1" opacity="1" d="M 116.5 92 L 117 97.5 L 116 97.5 L 116.5 92 Z " /><path fill="rgb(36,207,213)" stroke="rgb(36,207,213)" stroke-width="1" opacity="1" d="M 176.5 103 L 175.5 105 L 176.5 103 Z " /><path fill="rgb(36,207,213)" stroke="rgb(36,207,213)" stroke-width="1" opacity="1" d="M 122.5 104 Q 129.5 102.5 129 105.5 L 130 109.5 L 127 118.5 L 122.5 123 Q 119.3 126.8 111.5 126 L 104 120.5 Q 102.5 111.5 108.5 110 L 122.5 104 Z M 124 108 L 113 112 L 108 117 L 108 120 L 112 122 Q 118 123 121 120 L 126 111 Q 127 107 124 108 Z " /><path fill="rgb(36,207,213)" stroke="rgb(36,207,213)" stroke-width="1" opacity="1" d="M 149.5 104 L 154 104.5 L 150 107.5 L 147 115 L 142 115 L 142 113.5 L 144 108.5 L 147.5 105 L 149.5 104 Z " /><path fill="rgb(36,207,213)" stroke="rgb(36,207,213)" stroke-width="1" opacity="1" d="M 189.5 104 L 192 108.5 L 190 107.5 L 189.5 104 Z " /><path fill="rgb(36,207,213)" stroke="rgb(36,207,213)" stroke-width="1" opacity="1" d="M 65.5 122 L 67.5 122 L 74.5 123 L 79 126.5 L 80 131.5 L 75.5 137 Q 72.5 140 65.5 139 L 59 136 L 56 127.5 Q 58.9 122.9 65.5 122 Z M 66 126 L 60 129 L 61 132 L 66 135 L 74 134 Q 77 133 76 129 Q 73 125 66 126 Z " /><path fill="rgb(36,207,213)" stroke="rgb(36,207,213)" stroke-width="1" opacity="1" d="M 164.5 128 L 165 130 L 163 129.5 L 164.5 128 Z " /><path fill="rgb(36,207,213)" stroke="rgb(36,207,213)" stroke-width="1" opacity="1" d="M 180.5 130 L 184 131.5 L 185 133.5 L 181.5 131 L 180.5 130 Z " /><path fill="rgb(36,207,213)" stroke="rgb(36,207,213)" stroke-width="1" opacity="1" d="M 178.5 131 L 177.5 133 L 178.5 131 Z " /><path fill="rgb(36,207,213)" stroke="rgb(36,207,213)" stroke-width="1" opacity="1" d="M 39.5 134 Q 43.3 132.8 42 136.5 Q 44.5 138 43 143.5 L 46 149.5 L 44 148.5 L 40 139.5 L 39.5 134 Z " /><path fill="rgb(36,207,213)" stroke="rgb(36,207,213)" stroke-width="1" opacity="1" d="M 198.5 134 L 200 134.5 L 193.5 138 L 194.5 136 L 198.5 134 Z " /><path fill="rgb(36,207,213)" stroke="rgb(36,207,213)" stroke-width="1" opacity="1" d="M 152 135 L 154 135.5 L 152 136.5 L 152 135 Z " /><path fill="rgb(36,207,213)" stroke="rgb(36,207,213)" stroke-width="1" opacity="1" d="M 146.5 138 L 148.5 139 L 150 138.5 L 144.5 143 L 147 139.5 L 146.5 138 Z " /><path fill="rgb(36,207,213)" stroke="rgb(36,207,213)" stroke-width="1" opacity="1" d="M 191.5 138 L 190.5 140 L 187 139.5 L 191.5 138 Z " /><path fill="rgb(36,207,213)" stroke="rgb(36,207,213)" stroke-width="1" opacity="1" d="M 140.5 141 L 141.5 143 L 140.5 141 Z " /><path fill="rgb(36,207,213)" stroke="rgb(36,207,213)" stroke-width="1" opacity="1" d="M 127.5 147 Q 134.8 146.2 138 149.5 L 135.5 151 L 128.5 149 L 127.5 147 Z " /><path fill="rgb(36,207,213)" stroke="rgb(36,207,213)" stroke-width="1" opacity="1" d="M 46.5 151 L 59 161.5 Q 59.8 163.8 57.5 163 L 49 155.5 L 46.5 151 Z " /><path fill="rgb(36,207,213)" stroke="rgb(36,207,213)" stroke-width="1" opacity="1" d="M 67 161 L 71.5 161 L 78 165.5 L 67.5 167 L 65 165.5 L 67 161 Z " /><path fill="rgb(36,207,213)" stroke="rgb(36,207,213)" stroke-width="1" opacity="1" d="M 64.5 167 L 66 169.5 L 64 170 L 64.5 167 Z " /><path fill="rgb(36,207,213)" stroke="rgb(36,207,213)" stroke-width="1" opacity="1" d="M 28.5 183 L 27.5 185 L 28.5 183 Z " /><path fill="rgb(36,207,213)" stroke="rgb(36,207,213)" stroke-width="1" opacity="1" d="M 25.5 185 L 24.5 187 L 25.5 185 Z " /><path fill="rgb(36,207,213)" stroke="rgb(36,207,213)" stroke-width="1" opacity="1" d="M 43.5 188 L 44.5 190 L 43.5 188 Z " /><path fill="rgb(36,207,213)" stroke="rgb(36,207,213)" stroke-width="1" opacity="1" d="M 48.5 191 L 49.5 193 L 48.5 191 Z " /><path fill="rgb(179,162,146)" stroke="rgb(179,162,146)" stroke-width="1" opacity="1" d="M 99.5 44 Q 109.8 42.2 115 45.5 L 96.5 49 L 91.5 52 L 80.5 55 L 73.5 60 L 74 58.5 L 79.5 52 L 90.5 46 L 99.5 44 Z " /><path fill="rgb(179,162,146)" stroke="rgb(179,162,146)" stroke-width="1" opacity="1" d="M 125.5 49 L 127.5 50 L 138.5 50 L 141.5 49 L 141.5 50 L 130.5 52 L 125.5 50 L 125.5 49 Z " /><path fill="rgb(179,162,146)" stroke="rgb(179,162,146)" stroke-width="1" opacity="1" d="M 42.5 72 L 51.5 72 L 66 78.5 L 64.5 79 Q 61.3 75.2 52.5 77 L 52.5 79 L 49.5 79 L 46.5 76 L 40 73.5 L 42.5 72 Z " /><path fill="rgb(179,162,146)" stroke="rgb(179,162,146)" stroke-width="1" opacity="1" d="M 83.5 84 Q 86.7 101.8 99.5 110 L 101.5 109 L 101 110.5 L 100 119.5 L 101 122 L 96.5 122 L 87 117 L 85 106.5 L 81.5 101 L 80 108.5 L 75.5 114 L 71.5 115 Q 68.6 113.4 69.5 108 L 66.5 110 L 61 103.5 Q 63.7 101.2 63 95.5 L 62.5 94 L 72.5 97 L 79 92.5 Q 79.6 86.6 83.5 84 Z " /><path fill="rgb(179,162,146)" stroke="rgb(179,162,146)" stroke-width="1" opacity="1" d="M 135.5 86 L 134.5 88 L 135.5 86 Z " /><path fill="rgb(179,162,146)" stroke="rgb(179,162,146)" stroke-width="1" opacity="1" d="M 49.5 99 L 50.5 101 Q 49 98.5 47.5 102 L 46 101.5 L 49.5 99 Z " /><path fill="rgb(179,162,146)" stroke="rgb(179,162,146)" stroke-width="1" opacity="1" d="M 156.5 105 L 160.5 110 L 156.5 105 Z " /><path fill="rgb(179,162,146)" stroke="rgb(179,162,146)" stroke-width="1" opacity="1" d="M 151.5 106 L 150.5 108 L 151.5 106 Z " /><path fill="rgb(179,162,146)" stroke="rgb(179,162,146)" stroke-width="1" opacity="1" d="M 37.5 109 L 38.5 111 L 37.5 110 L 35 111.5 L 37.5 109 Z " /><path fill="rgb(179,162,146)" stroke="rgb(179,162,146)" stroke-width="1" opacity="1" d="M 150.5 110 Q 156 109 157 112.5 L 157 115.5 L 152.5 122 L 148.5 123 Q 145 122 146 116.5 L 150.5 110 Z " /><path fill="rgb(179,162,146)" stroke="rgb(179,162,146)" stroke-width="1" opacity="1" d="M 45.5 111 L 44.5 113 L 45.5 111 Z " /><path fill="rgb(179,162,146)" stroke="rgb(179,162,146)" stroke-width="1" opacity="1" d="M 39.5 112 L 43 113.5 L 40.5 114 L 39.5 112 Z " /><path fill="rgb(179,162,146)" stroke="rgb(179,162,146)" stroke-width="1" opacity="1" d="M 34.5 113 L 33.5 115 L 34.5 113 Z " /><path fill="rgb(179,162,146)" stroke="rgb(179,162,146)" stroke-width="1" opacity="1" d="M 32.5 119 L 38 123.5 L 36.5 124 L 32.5 119 Z " /><path fill="rgb(179,162,146)" stroke="rgb(179,162,146)" stroke-width="1" opacity="1" d="M 170.5 131 L 171.5 133 L 170.5 131 Z " /><path fill="rgb(179,162,146)" stroke="rgb(179,162,146)" stroke-width="1" opacity="1" d="M 165.5 137 L 174 144.5 L 178 151.5 L 169.5 144 L 162.5 146 L 144 158 Q 145.1 160.7 142.5 160 L 136 165.5 L 133.5 169 L 134 167.5 L 138 159.5 L 152.5 145 L 165.5 137 Z " /><path fill="rgb(179,162,146)" stroke="rgb(179,162,146)" stroke-width="1" opacity="1" d="M 59 141 L 69 142 Q 68.3 146.7 72.5 148 Q 76.3 152.2 85.5 151 L 90.5 150 L 90.5 151 L 72.5 153 L 71.5 154 L 63.5 154 Q 57.2 151 59 141 Z " /><path fill="rgb(179,162,146)" stroke="rgb(179,162,146)" stroke-width="1" opacity="1" d="M 113 152 L 117 152 L 117 159 L 113 158 L 112 154.5 L 113 152 Z " /><path fill="rgb(179,162,146)" stroke="rgb(179,162,146)" stroke-width="1" opacity="1" d="M 81.5 167 L 82.5 169 L 81.5 167 Z " /><path fill="rgb(179,162,146)" stroke="rgb(179,162,146)" stroke-width="1" opacity="1" d="M 64.5 170 L 67.5 170 L 76 174 L 75 180 L 70.5 180 L 61 176 L 64.5 170 Z " /><path fill="rgb(179,162,146)" stroke="rgb(179,162,146)" stroke-width="1" opacity="1" d="M 85.5 170 L 87.5 173 L 85.5 170 Z " /><path fill="rgb(179,162,146)" stroke="rgb(179,162,146)" stroke-width="1" opacity="1" d="M 88.5 174 L 99 183.5 L 96 192.5 L 96 198.5 L 94.5 200 L 82 199.5 L 84 195.5 L 88 176.5 Q 85.8 175.3 88.5 174 Z " /><path fill="rgb(179,162,146)" stroke="rgb(179,162,146)" stroke-width="1" opacity="1" d="M 59.5 177 L 58.5 179 L 59.5 177 Z " /><path fill="rgb(179,162,146)" stroke="rgb(179,162,146)" stroke-width="1" opacity="1" d="M 57.5 180 L 54 184.5 L 53.5 186 L 53 184.5 L 57.5 180 Z " /><path fill="rgb(179,162,146)" stroke="rgb(179,162,146)" stroke-width="1" opacity="1" d="M 38.5 184 L 39.5 186 L 38.5 184 Z " /><path fill="rgb(179,162,146)" stroke="rgb(179,162,146)" stroke-width="1" opacity="1" d="M 100.5 185 L 101.5 187 L 100.5 185 Z " /><path fill="rgb(179,162,146)" stroke="rgb(179,162,146)" stroke-width="1" opacity="1" d="M 59.5 188 L 72 188 L 72 192.5 L 70.5 196 L 68.5 193 L 59.5 189 L 59.5 188 Z " /><path fill="rgb(179,162,146)" stroke="rgb(179,162,146)" stroke-width="1" opacity="1" d="M 111.5 188 Q 116.8 186.8 118 189.5 L 117 190.5 L 117 200 L 115 199.5 L 115 189 L 111.5 189 L 111.5 188 Z " /><path fill="rgb(27,98,161)" stroke="rgb(27,98,161)" stroke-width="1" opacity="0.9607843137254902" d="M 186.5 90 L 192 90 L 192 92.5 L 200 107.5 L 200 123.5 L 199 123.5 L 187 99 L 184.5 99 L 171 106 L 171 109.5 L 175 117.5 L 168.5 122 L 169 120.5 L 169 110.5 Q 166.2 107.8 167 101.5 L 171 98.5 L 170.5 97 L 173.5 96 Q 175 98.5 176.5 95 L 186.5 90 Z " /><path fill="rgb(27,98,161)" stroke="rgb(27,98,161)" stroke-width="1" opacity="0.9607843137254902" d="M 29.5 126 L 38 133.5 L 35 134 L 31 145.5 L 31 147.5 L 30 162.5 L 31 165.5 L 28 163.5 Q 23.5 158 25 146.5 L 26 145.5 L 27 132.5 L 29.5 126 Z " /><path fill="rgb(27,98,161)" stroke="rgb(27,98,161)" stroke-width="1" opacity="0.9607843137254902" d="M 41.5 128 L 43 128.5 L 42 134 L 39 133.5 L 41.5 128 Z " /><path fill="rgb(27,98,161)" stroke="rgb(27,98,161)" stroke-width="1" opacity="0.9607843137254902" d="M 52.5 129 L 53 131.5 L 52 131.5 L 52.5 129 Z " /><path fill="rgb(27,98,161)" stroke="rgb(27,98,161)" stroke-width="1" opacity="0.9607843137254902" d="M 179.5 131 Q 184.5 130.5 185 134.5 L 187 140 L 190.5 140 L 200 135 L 200 142.5 L 198.5 143 L 186.5 149 L 176.5 136 L 174 134.5 L 179.5 131 Z " /><path fill="rgb(27,98,161)" stroke="rgb(27,98,161)" stroke-width="1" opacity="0.9607843137254902" d="M 156.5 133 L 158 133.5 L 155.5 135 L 156.5 133 Z " /><path fill="rgb(27,98,161)" stroke="rgb(27,98,161)" stroke-width="1" opacity="0.9607843137254902" d="M 39.5 135 L 42 144.5 L 40 143.5 L 39.5 135 Z " /><path fill="rgb(27,98,161)" stroke="rgb(27,98,161)" stroke-width="1" opacity="0.9607843137254902" d="M 42.5 146 L 44.5 149 L 46 148.5 L 45.5 150 L 47 150.5 L 46 151.5 L 49 154.5 L 54.5 161 L 59 163 L 59.5 161 Q 60.5 164 65.5 163 L 67 162.5 L 64.5 167 Q 61.3 162.9 54 164 Q 55.5 160.2 52.5 161 L 51 158 Q 46.9 159.7 48 155.5 L 42 147.5 L 42.5 146 Z " /><path fill="rgb(27,98,161)" stroke="rgb(27,98,161)" stroke-width="1" opacity="0.9607843137254902" d="M 126.5 147 L 128.5 149 L 135 150 L 135 152.5 L 129.5 159 Q 127.3 158.3 128 160.5 L 126 161.5 Q 126.6 156.9 124 155.5 L 126.5 147 Z " /><path fill="rgb(27,98,161)" stroke="rgb(27,98,161)" stroke-width="1" opacity="0.9607843137254902" d="M 72.5 161 L 73.5 163 L 72.5 161 Z " /><path fill="rgb(27,98,161)" stroke="rgb(27,98,161)" stroke-width="1" opacity="0.9607843137254902" d="M 79.5 165 L 80.5 167 L 79.5 165 Z " /><path fill="rgb(27,98,161)" stroke="rgb(27,98,161)" stroke-width="1" opacity="0.9607843137254902" d="M 83.5 168 L 84.5 170 L 83.5 168 Z " /><path fill="rgb(27,98,161)" stroke="rgb(27,98,161)" stroke-width="1" opacity="0.9607843137254902" d="M 26.5 176 L 28.5 176 L 33 180.5 L 17 190 Q 16.4 196.4 19 200 L 10.5 200 L 10 197.5 Q 7 193.3 8 186 L 26.5 176 Z " /><path fill="rgb(27,98,161)" stroke="rgb(27,98,161)" stroke-width="1" opacity="0.9607843137254902" d="M 48 176 L 51 176.5 L 48 178.5 L 48 176 Z " /><path fill="rgb(27,98,161)" stroke="rgb(27,98,161)" stroke-width="1" opacity="0.9607843137254902" d="M 92.5 176 L 95.5 180 L 92.5 176 Z " /><path fill="rgb(27,98,161)" stroke="rgb(27,98,161)" stroke-width="1" opacity="0.9607843137254902" d="M 108.5 188 L 111 188.5 L 108.5 189 L 108.5 188 Z " /><path fill="rgb(26,31,44)" stroke="rgb(26,31,44)" stroke-width="1" opacity="0.996078431372549" d="M 78.5 51 L 74.5 56 L 78.5 51 Z " /><path fill="rgb(26,31,44)" stroke="rgb(26,31,44)" stroke-width="1" opacity="0.996078431372549" d="M 170.5 64 L 171 71.5 L 170 71.5 L 170.5 64 Z " /><path fill="rgb(26,31,44)" stroke="rgb(26,31,44)" stroke-width="1" opacity="0.996078431372549" d="M 44.5 70 L 48 70.5 L 44.5 71 L 44.5 70 Z " /><path fill="rgb(26,31,44)" stroke="rgb(26,31,44)" stroke-width="1" opacity="0.996078431372549" d="M 68.5 70 L 67.5 72 L 68.5 70 Z " /><path fill="rgb(26,31,44)" stroke="rgb(26,31,44)" stroke-width="1" opacity="0.996078431372549" d="M 39.5 72 L 38.5 74 L 39.5 72 Z " /><path fill="rgb(26,31,44)" stroke="rgb(26,31,44)" stroke-width="1" opacity="0.996078431372549" d="M 159.5 74 L 159 75.5 L 161 79.5 L 158 77.5 L 159.5 74 Z " /><path fill="rgb(26,31,44)" stroke="rgb(26,31,44)" stroke-width="1" opacity="0.996078431372549" d="M 82.5 76 L 87 76.5 Q 80.8 76.3 78.5 80 L 80.5 77 L 82.5 76 Z " /><path fill="rgb(26,31,44)" stroke="rgb(26,31,44)" stroke-width="1" opacity="0.996078431372549" d="M 168.5 76 L 170.5 79 L 168.5 76 Z " /><path fill="rgb(26,31,44)" stroke="rgb(26,31,44)" stroke-width="1" opacity="0.996078431372549" d="M 88.5 77 L 89.5 79 L 88.5 77 Z " /><path fill="rgb(26,31,44)" stroke="rgb(26,31,44)" stroke-width="1" opacity="0.996078431372549" d="M 164.5 81 L 166.5 84 L 164.5 81 Z " /><path fill="rgb(26,31,44)" stroke="rgb(26,31,44)" stroke-width="1" opacity="0.996078431372549" d="M 169.5 89 L 170 91.5 L 169 91.5 L 169.5 89 Z " /><path fill="rgb(26,31,44)" stroke="rgb(26,31,44)" stroke-width="1" opacity="0.996078431372549" d="M 164.5 90 L 165.5 92 L 164.5 90 Z " /><path fill="rgb(26,31,44)" stroke="rgb(26,31,44)" stroke-width="1" opacity="0.996078431372549" d="M 73 91 L 75 91.5 L 73 92.5 L 73 91 Z " /><path fill="rgb(26,31,44)" stroke="rgb(26,31,44)" stroke-width="1" opacity="0.996078431372549" d="M 159.5 92 L 160 99 L 158 98.5 L 159.5 92 Z " /><path fill="rgb(26,31,44)" stroke="rgb(26,31,44)" stroke-width="1" opacity="0.996078431372549" d="M 94.5 94 L 95.5 96 L 94.5 94 Z " /><path fill="rgb(26,31,44)" stroke="rgb(26,31,44)" stroke-width="1" opacity="0.996078431372549" d="M 38.5 98 L 31.5 106 L 38.5 98 Z " /><path fill="rgb(26,31,44)" stroke="rgb(26,31,44)" stroke-width="1" opacity="0.996078431372549" d="M 97.5 98 L 100.5 102 L 97.5 98 Z " /><path fill="rgb(26,31,44)" stroke="rgb(26,31,44)" stroke-width="1" opacity="0.996078431372549" d="M 26.5 101 L 25.5 103 L 26.5 101 Z " /><path fill="rgb(26,31,44)" stroke="rgb(26,31,44)" stroke-width="1" opacity="0.996078431372549" d="M 44.5 101 L 43.5 103 L 44.5 101 Z " /><path fill="rgb(26,31,44)" stroke="rgb(26,31,44)" stroke-width="1" opacity="0.996078431372549" d="M 166.5 101 L 166 102.5 L 165.5 104 L 165 102.5 L 166.5 101 Z " /><path fill="rgb(26,31,44)" stroke="rgb(26,31,44)" stroke-width="1" opacity="0.996078431372549" d="M 61.5 105 L 62.5 107 L 61.5 105 Z " /><path fill="rgb(26,31,44)" stroke="rgb(26,31,44)" stroke-width="1" opacity="0.996078431372549" d="M 145.5 105 L 144.5 107 L 145.5 105 Z " /><path fill="rgb(26,31,44)" stroke="rgb(26,31,44)" stroke-width="1" opacity="0.996078431372549" d="M 160.5 108 L 161.5 110 L 160.5 108 Z " /><path fill="rgb(26,31,44)" stroke="rgb(26,31,44)" stroke-width="1" opacity="0.996078431372549" d="M 142.5 110 L 143 111.5 L 140.5 113 L 140.5 112 Q 143 112.7 142.5 110 Z " /><path fill="rgb(26,31,44)" stroke="rgb(26,31,44)" stroke-width="1" opacity="0.996078431372549" d="M 34.5 111 L 33.5 113 L 34.5 111 Z " /><path fill="rgb(26,31,44)" stroke="rgb(26,31,44)" stroke-width="1" opacity="0.996078431372549" d="M 162.5 112 L 163 114.5 L 162 114.5 L 162.5 112 Z " /><path fill="rgb(26,31,44)" stroke="rgb(26,31,44)" stroke-width="1" opacity="0.996078431372549" d="M 23.5 115 L 24.5 117 L 23.5 115 Z " /><path fill="rgb(26,31,44)" stroke="rgb(26,31,44)" stroke-width="1" opacity="0.996078431372549" d="M 34.5 122 L 35.5 124 L 34.5 122 Z " /><path fill="rgb(26,31,44)" stroke="rgb(26,31,44)" stroke-width="1" opacity="0.996078431372549" d="M 43 127 L 45 127.5 L 43 128.5 L 43 127 Z " /><path fill="rgb(26,31,44)" stroke="rgb(26,31,44)" stroke-width="1" opacity="0.996078431372549" d="M 163.5 128 L 162.5 132 Q 159 130 163.5 128 Z " /><path fill="rgb(26,31,44)" stroke="rgb(26,31,44)" stroke-width="1" opacity="0.996078431372549" d="M 38.5 130 L 39 133 L 36 131.5 L 38 131.5 L 38.5 130 Z " /><path fill="rgb(26,31,44)" stroke="rgb(26,31,44)" stroke-width="1" opacity="0.996078431372549" d="M 26.5 132 L 27 134.5 L 26 134.5 L 26.5 132 Z " /><path fill="rgb(26,31,44)" stroke="rgb(26,31,44)" stroke-width="1" opacity="0.996078431372549" d="M 170.5 132 L 171.5 134 L 170.5 132 Z " /><path fill="rgb(26,31,44)" stroke="rgb(26,31,44)" stroke-width="1" opacity="0.996078431372549" d="M 173.5 134 L 177.5 139 L 173.5 134 Z " /><path fill="rgb(26,31,44)" stroke="rgb(26,31,44)" stroke-width="1" opacity="0.996078431372549" d="M 165.5 136 L 168 137.5 L 166.5 137 L 165.5 136 Z " /><path fill="rgb(26,31,44)" stroke="rgb(26,31,44)" stroke-width="1" opacity="0.996078431372549" d="M 43.5 137 L 44 139.5 L 43 139.5 L 43.5 137 Z " /><path fill="rgb(26,31,44)" stroke="rgb(26,31,44)" stroke-width="1" opacity="0.996078431372549" d="M 25.5 138 L 26 141.5 L 25 141.5 L 25.5 138 Z " /><path fill="rgb(26,31,44)" stroke="rgb(26,31,44)" stroke-width="1" opacity="0.996078431372549" d="M 149.5 139 L 147.5 142 L 149.5 139 Z " /><path fill="rgb(26,31,44)" stroke="rgb(26,31,44)" stroke-width="1" opacity="0.996078431372549" d="M 156.5 141 L 155.5 143 L 156.5 141 Z " /><path fill="rgb(26,31,44)" stroke="rgb(26,31,44)" stroke-width="1" opacity="0.996078431372549" d="M 58.5 142 L 59 148.5 L 58 148.5 L 58.5 142 Z " /><path fill="rgb(26,31,44)" stroke="rgb(26,31,44)" stroke-width="1" opacity="0.996078431372549" d="M 153.5 143 L 151.5 146 L 153.5 143 Z " /><path fill="rgb(26,31,44)" stroke="rgb(26,31,44)" stroke-width="1" opacity="0.996078431372549" d="M 122.5 148 Q 125.8 146.9 125 149.5 L 124 152 L 118 154 L 119 149 L 122.5 148 Z " /><path fill="rgb(26,31,44)" stroke="rgb(26,31,44)" stroke-width="1" opacity="0.996078431372549" d="M 46.5 149 L 47.5 151 L 46.5 149 Z " /><path fill="rgb(26,31,44)" stroke="rgb(26,31,44)" stroke-width="1" opacity="0.996078431372549" d="M 138.5 149 L 134.5 154 L 138.5 149 Z " /><path fill="rgb(26,31,44)" stroke="rgb(26,31,44)" stroke-width="1" opacity="0.996078431372549" d="M 178.5 150 L 179.5 152 L 178.5 150 Z " /><path fill="rgb(26,31,44)" stroke="rgb(26,31,44)" stroke-width="1" opacity="0.996078431372549" d="M 60.5 152 L 64 154.5 L 62.5 155 L 60.5 152 Z " /><path fill="rgb(26,31,44)" stroke="rgb(26,31,44)" stroke-width="1" opacity="0.996078431372549" d="M 143.5 152 L 141.5 155 L 143.5 152 Z " /><path fill="rgb(26,31,44)" stroke="rgb(26,31,44)" stroke-width="1" opacity="0.996078431372549" d="M 106.5 153 L 111 156.5 Q 111.8 158.8 109.5 158 L 104.5 159 L 100 155.5 L 106.5 153 Z " /><path fill="rgb(26,31,44)" stroke="rgb(26,31,44)" stroke-width="1" opacity="0.996078431372549" d="M 68.5 154 L 72 154.5 L 68.5 155 L 68.5 154 Z " /><path fill="rgb(26,31,44)" stroke="rgb(26,31,44)" stroke-width="1" opacity="0.996078431372549" d="M 133.5 155 L 131.5 158 L 133.5 155 Z " /><path fill="rgb(26,31,44)" stroke="rgb(26,31,44)" stroke-width="1" opacity="0.996078431372549" d="M 95.5 156 L 98 156.5 L 95.5 157 L 95.5 156 Z " /><path fill="rgb(26,31,44)" stroke="rgb(26,31,44)" stroke-width="1" opacity="0.996078431372549" d="M 89.5 157 L 94 157.5 L 84.5 159 L 84.5 158 L 89.5 157 Z " /><path fill="rgb(26,31,44)" stroke="rgb(26,31,44)" stroke-width="1" opacity="0.996078431372549" d="M 138.5 158 L 137.5 160 L 138.5 158 Z " /><path fill="rgb(26,31,44)" stroke="rgb(26,31,44)" stroke-width="1" opacity="0.996078431372549" d="M 79.5 159 L 83 159 Q 81.9 161.7 84.5 161 L 86.5 164 L 79.5 165 L 77 164 L 77 162 Q 71.8 163.7 73 160 L 79.5 159 Z " /><path fill="rgb(26,31,44)" stroke="rgb(26,31,44)" stroke-width="1" opacity="0.996078431372549" d="M 130.5 159 L 128.5 162 L 130.5 159 Z " /><path fill="rgb(26,31,44)" stroke="rgb(26,31,44)" stroke-width="1" opacity="0.996078431372549" d="M 26.5 161 L 29 164.5 L 26 162.5 L 26.5 161 Z " /><path fill="rgb(26,31,44)" stroke="rgb(26,31,44)" stroke-width="1" opacity="0.996078431372549" d="M 135.5 162 L 134.5 164 L 135.5 162 Z " /><path fill="rgb(26,31,44)" stroke="rgb(26,31,44)" stroke-width="1" opacity="0.996078431372549" d="M 127.5 163 L 126.5 165 L 127.5 163 Z " /><path fill="rgb(26,31,44)" stroke="rgb(26,31,44)" stroke-width="1" opacity="0.996078431372549" d="M 59.5 165 Q 60.6 167.8 64 167 Q 60.8 178.1 52 184.5 L 52.5 186 L 48 182.5 L 49.5 179 L 52 177.5 L 59.5 165 Z " /><path fill="rgb(26,31,44)" stroke="rgb(26,31,44)" stroke-width="1" opacity="0.996078431372549" d="M 29.5 166 L 31.5 169 L 29.5 166 Z " /><path fill="rgb(26,31,44)" stroke="rgb(26,31,44)" stroke-width="1" opacity="0.996078431372549" d="M 123.5 170 L 123 171.5 L 122.5 173 L 122 171.5 L 123.5 170 Z " /><path fill="rgb(26,31,44)" stroke="rgb(26,31,44)" stroke-width="1" opacity="0.996078431372549" d="M 39.5 176 L 41.5 179 L 39.5 176 Z " /><path fill="rgb(26,31,44)" stroke="rgb(26,31,44)" stroke-width="1" opacity="0.996078431372549" d="M 32.5 178 L 35.5 182 L 32.5 178 Z " /><path fill="rgb(26,31,44)" stroke="rgb(26,31,44)" stroke-width="1" opacity="0.996078431372549" d="M 44.5 180 L 47 181.5 L 45.5 182 L 44.5 180 Z " /><path fill="rgb(26,31,44)" stroke="rgb(26,31,44)" stroke-width="1" opacity="0.996078431372549" d="M 118.5 183 L 119 185.5 L 118 185.5 L 118.5 183 Z " /><path fill="rgb(26,31,44)" stroke="rgb(26,31,44)" stroke-width="1" opacity="0.996078431372549" d="M 183.5 191 L 184 193.5 L 183 193.5 L 183.5 191 Z " /><path fill="rgb(26,31,44)" stroke="rgb(26,31,44)" stroke-width="1" opacity="0.996078431372549" d="M 123.5 194 L 124 197.5 L 123 197.5 L 123.5 194 Z " /><path fill="rgb(26,31,44)" stroke="rgb(26,31,44)" stroke-width="1" opacity="0.996078431372549" d="M 179.5 198 L 178.5 200 L 179.5 198 Z " /><path fill="rgb(38,72,110)" stroke="rgb(38,72,110)" stroke-width="1" opacity="0.996078431372549" d="M 87.5 73 L 94 74 L 96 78.5 L 98 92.5 L 102.5 98 Q 106.9 96.5 106 99.5 L 102.5 103 L 96 96.5 Q 91.2 90.8 91 80.5 L 88.5 77 L 84 76 Q 82.8 73 86.5 74 L 87.5 73 Z " /><path fill="rgb(38,72,110)" stroke="rgb(38,72,110)" stroke-width="1" opacity="0.996078431372549" d="M 159 86 L 167.5 86 L 168 87.5 L 169 91 L 166.5 92 Q 165.1 88.8 160 90 L 159.5 92 L 159 86 Z " /><path fill="rgb(38,72,110)" stroke="rgb(38,72,110)" stroke-width="1" opacity="0.996078431372549" d="M 55.5 98 L 56 99.5 L 53.5 101 L 53.5 100 Q 56 100.7 55.5 98 Z " /><path fill="rgb(38,72,110)" stroke="rgb(38,72,110)" stroke-width="1" opacity="0.996078431372549" d="M 166.5 102 L 167 104.5 L 166 104.5 L 166.5 102 Z " /><path fill="rgb(38,72,110)" stroke="rgb(38,72,110)" stroke-width="1" opacity="0.996078431372549" d="M 151.5 103 L 154 103.5 L 151.5 104 L 151.5 103 Z " /><path fill="rgb(38,72,110)" stroke="rgb(38,72,110)" stroke-width="1" opacity="0.996078431372549" d="M 137.5 105 L 138 111.5 L 137 111.5 L 137.5 105 Z " /><path fill="rgb(38,72,110)" stroke="rgb(38,72,110)" stroke-width="1" opacity="0.996078431372549" d="M 168.5 110 L 169 120.5 L 168 120.5 L 168.5 110 Z " /><path fill="rgb(38,72,110)" stroke="rgb(38,72,110)" stroke-width="1" opacity="0.996078431372549" d="M 59.5 112 L 60.5 114 L 59.5 112 Z " /><path fill="rgb(38,72,110)" stroke="rgb(38,72,110)" stroke-width="1" opacity="0.996078431372549" d="M 29.5 125 L 32.5 129 L 29.5 125 Z " /><path fill="rgb(38,72,110)" stroke="rgb(38,72,110)" stroke-width="1" opacity="0.996078431372549" d="M 52.5 126 L 53 128.5 L 52 128.5 L 52.5 126 Z " /><path fill="rgb(38,72,110)" stroke="rgb(38,72,110)" stroke-width="1" opacity="0.996078431372549" d="M 39 128 L 41 128.5 Q 38.1 132.1 39 139.5 Q 41.6 149.4 48 155.5 L 48 158 Q 51.7 156.5 51 159.5 L 54 161 Q 52.2 166.3 59.5 164 L 64 166.5 L 61.5 167 Q 59.7 163.3 58 166.5 L 50.5 179 L 48 180.5 L 47.5 182 L 32 169.5 L 29 165.5 L 31 165.5 Q 28.6 160.4 30 151.5 L 32 146.5 L 32 144.5 L 35 134 L 39 132.5 L 39 128 Z M 48 176 L 48 179 L 51 177 L 48 176 Z " /><path fill="rgb(38,72,110)" stroke="rgb(38,72,110)" stroke-width="1" opacity="0.996078431372549" d="M 42.5 129 L 43 134.5 L 42 134.5 L 42.5 129 Z " /><path fill="rgb(38,72,110)" stroke="rgb(38,72,110)" stroke-width="1" opacity="0.996078431372549" d="M 34.5 130 L 36.5 133 L 34.5 130 Z " /><path fill="rgb(38,72,110)" stroke="rgb(38,72,110)" stroke-width="1" opacity="0.996078431372549" d="M 167.5 130 L 170 131.5 L 168.5 131 L 167.5 130 Z " /><path fill="rgb(38,72,110)" stroke="rgb(38,72,110)" stroke-width="1" opacity="0.996078431372549" d="M 160.5 131 L 162 131.5 L 158.5 133 L 158.5 132 L 160.5 131 Z " /><path fill="rgb(38,72,110)" stroke="rgb(38,72,110)" stroke-width="1" opacity="0.996078431372549" d="M 52.5 132 L 53 134.5 L 52 134.5 L 52.5 132 Z " /><path fill="rgb(38,72,110)" stroke="rgb(38,72,110)" stroke-width="1" opacity="0.996078431372549" d="M 154.5 134 L 155 135.5 L 153 136.5 L 154.5 134 Z " /><path fill="rgb(38,72,110)" stroke="rgb(38,72,110)" stroke-width="1" opacity="0.996078431372549" d="M 176.5 136 L 177.5 138 L 176.5 136 Z " /><path fill="rgb(38,72,110)" stroke="rgb(38,72,110)" stroke-width="1" opacity="0.996078431372549" d="M 151.5 137 L 150.5 139 L 151.5 137 Z " /><path fill="rgb(38,72,110)" stroke="rgb(38,72,110)" stroke-width="1" opacity="0.996078431372549" d="M 43.5 140 L 44 142.5 L 43 142.5 L 43.5 140 Z " /><path fill="rgb(38,72,110)" stroke="rgb(38,72,110)" stroke-width="1" opacity="0.996078431372549" d="M 139.5 141 L 140.5 143 L 139.5 141 Z " /><path fill="rgb(38,72,110)" stroke="rgb(38,72,110)" stroke-width="1" opacity="0.996078431372549" d="M 146.5 141 L 145.5 143 L 146.5 141 Z " /><path fill="rgb(38,72,110)" stroke="rgb(38,72,110)" stroke-width="1" opacity="0.996078431372549" d="M 25.5 142 L 26 145.5 L 25 145.5 L 25.5 142 Z " /><path fill="rgb(38,72,110)" stroke="rgb(38,72,110)" stroke-width="1" opacity="0.996078431372549" d="M 44.5 145 L 46 147.5 L 44 146.5 L 44.5 145 Z " /><path fill="rgb(38,72,110)" stroke="rgb(38,72,110)" stroke-width="1" opacity="0.996078431372549" d="M 125.5 147 L 126 149.5 L 124 156.5 Q 126.8 157.8 126.5 162 L 128 159 L 130.5 158 L 128 161.5 L 122 171.5 L 118 183.5 L 117.5 189 L 116.5 188 L 108.5 188 L 105.5 189 L 101 185.5 Q 101.8 183.3 99.5 184 L 92.5 176 L 80 165.5 L 87 163.5 L 83 161 Q 81.6 157 88.5 159 L 100.5 156 L 104.5 159 L 108.5 159 L 111.5 157 L 117 160 L 118 154 L 124 152 L 125.5 147 Z " /><path fill="rgb(38,72,110)" stroke="rgb(38,72,110)" stroke-width="1" opacity="0.996078431372549" d="M 184.5 147 L 185.5 149 L 184.5 147 Z " /><path fill="rgb(38,72,110)" stroke="rgb(38,72,110)" stroke-width="1" opacity="0.996078431372549" d="M 47.5 151 L 49.5 154 L 47.5 151 Z " /><path fill="rgb(38,72,110)" stroke="rgb(38,72,110)" stroke-width="1" opacity="0.996078431372549" d="M 133.5 154 L 132.5 156 L 133.5 154 Z " /><path fill="rgb(38,72,110)" stroke="rgb(38,72,110)" stroke-width="1" opacity="0.996078431372549" d="M 60.5 161 L 65.5 162 L 67 161.5 Q 66 164 61.5 163 L 60.5 161 Z " /><path fill="rgb(38,72,110)" stroke="rgb(38,72,110)" stroke-width="1" opacity="0.996078431372549" d="M 74.5 162 Q 77.8 160.9 77 163.5 L 75.5 163 L 74.5 162 Z " /><path fill="rgb(38,72,110)" stroke="rgb(38,72,110)" stroke-width="1" opacity="0.996078431372549" d="M 61.5 173 L 61 174.5 L 59.5 177 L 60 175.5 L 61.5 173 Z " /><path fill="rgb(38,72,110)" stroke="rgb(38,72,110)" stroke-width="1" opacity="0.996078431372549" d="M 29.5 176 L 33.5 181 L 29.5 176 Z " /><path fill="rgb(38,72,110)" stroke="rgb(38,72,110)" stroke-width="1" opacity="0.996078431372549" d="M 57.5 179 L 55.5 182 L 57.5 179 Z " /><path fill="rgb(38,72,110)" stroke="rgb(38,72,110)" stroke-width="1" opacity="0.996078431372549" d="M 53.5 183 L 52.5 185 L 53.5 183 Z " /><path fill="rgb(38,72,110)" stroke="rgb(38,72,110)" stroke-width="1" opacity="0.996078431372549" d="M 117.5 191 L 118 199.5 L 117 199.5 L 117.5 191 Z " /><path fill="rgb(138,93,88)" stroke="rgb(138,93,88)" stroke-width="1" opacity="1" d="M 96.5 44 L 99 44.5 L 96.5 45 L 96.5 44 Z " /><path fill="rgb(138,93,88)" stroke="rgb(138,93,88)" stroke-width="1" opacity="1" d="M 115.5 45 L 126.5 50 L 131.5 49 L 131.5 50 L 127 50.5 L 134.5 52 L 139.5 51 L 143.5 48 L 154.5 48 Q 162.6 50.4 167 56.5 L 166.5 58 Q 163.4 52.6 153.5 54 L 149.5 56 Q 147.8 52.5 142 54 Q 142.3 60.5 137.5 63 L 122.5 65 L 116.5 63 L 114 60.5 L 114 59 L 118 59 L 118 57.5 L 110.5 49 L 106.5 48 Q 105.2 50.2 100.5 49 L 100.5 48 L 105.5 48 L 115.5 45 Z " /><path fill="rgb(138,93,88)" stroke="rgb(138,93,88)" stroke-width="1" opacity="1" d="M 86.5 47 L 88 47.5 L 84.5 49 L 84.5 48 L 86.5 47 Z " /><path fill="rgb(138,93,88)" stroke="rgb(138,93,88)" stroke-width="1" opacity="1" d="M 96.5 49 L 99 49.5 L 87 55 L 80 65.5 L 82.5 66 L 86.5 65 L 90 66.5 Q 82.5 69 79 75.5 L 73.5 86 L 65 79.5 L 65.5 78 L 63.5 79 L 62.5 76 L 61 75.5 L 63 75 Q 61.5 71.2 64.5 72 L 67.5 73 L 70 70.5 Q 69 61.5 73.5 58 L 75.5 58 L 96.5 49 Z " /><path fill="rgb(138,93,88)" stroke="rgb(138,93,88)" stroke-width="1" opacity="1" d="M 133.5 49 L 139 49.5 L 133.5 50 L 133.5 49 Z " /><path fill="rgb(138,93,88)" stroke="rgb(138,93,88)" stroke-width="1" opacity="1" d="M 81.5 50 L 80.5 52 L 81.5 50 Z " /><path fill="rgb(138,93,88)" stroke="rgb(138,93,88)" stroke-width="1" opacity="1" d="M 78.5 52 L 75.5 56 L 78.5 52 Z " /><path fill="rgb(138,93,88)" stroke="rgb(138,93,88)" stroke-width="1" opacity="1" d="M 43.5 71 L 50 71.5 L 43.5 72 L 43.5 71 Z " /><path fill="rgb(138,93,88)" stroke="rgb(138,93,88)" stroke-width="1" opacity="1" d="M 39 74 L 44 75.5 L 39 76 L 39 74 Z " /><path fill="rgb(138,93,88)" stroke="rgb(138,93,88)" stroke-width="1" opacity="1" d="M 45.5 76 L 49.5 79 L 52.5 79 L 52.5 77 L 56 79.5 L 49.5 80 L 45.5 76 Z " /><path fill="rgb(138,93,88)" stroke="rgb(138,93,88)" stroke-width="1" opacity="1" d="M 59.5 77 L 62 77.5 L 59.5 78 L 59.5 77 Z " /><path fill="rgb(138,93,88)" stroke="rgb(138,93,88)" stroke-width="1" opacity="1" d="M 35.5 90 L 37 97.5 L 27.5 108 Q 22.1 109.9 23 106.5 Q 31 100 35.5 90 Z " /><path fill="rgb(138,93,88)" stroke="rgb(138,93,88)" stroke-width="1" opacity="1" d="M 78.5 92 L 77.5 94 L 78.5 92 Z " /><path fill="rgb(138,93,88)" stroke="rgb(138,93,88)" stroke-width="1" opacity="1" d="M 62.5 95 L 63 99.5 L 62 99.5 L 62.5 95 Z " /><path fill="rgb(138,93,88)" stroke="rgb(138,93,88)" stroke-width="1" opacity="1" d="M 88.5 97 L 89.5 99 L 88.5 97 Z " /><path fill="rgb(138,93,88)" stroke="rgb(138,93,88)" stroke-width="1" opacity="1" d="M 90.5 100 L 91.5 102 L 90.5 100 Z " /><path fill="rgb(138,93,88)" stroke="rgb(138,93,88)" stroke-width="1" opacity="1" d="M 44.5 102 L 46 102.5 L 42.5 105 L 44.5 102 Z " /><path fill="rgb(138,93,88)" stroke="rgb(138,93,88)" stroke-width="1" opacity="1" d="M 157.5 105 L 158.5 107 L 157.5 105 Z " /><path fill="rgb(138,93,88)" stroke="rgb(138,93,88)" stroke-width="1" opacity="1" d="M 63.5 106 L 64.5 108 L 63.5 106 Z " /><path fill="rgb(138,93,88)" stroke="rgb(138,93,88)" stroke-width="1" opacity="1" d="M 98.5 108 L 99.5 110 L 98.5 108 Z " /><path fill="rgb(138,93,88)" stroke="rgb(138,93,88)" stroke-width="1" opacity="1" d="M 44.5 111 L 43.5 113 L 44.5 111 Z " /><path fill="rgb(138,93,88)" stroke="rgb(138,93,88)" stroke-width="1" opacity="1" d="M 159.5 123 L 158.5 125 L 159.5 123 Z " /><path fill="rgb(138,93,88)" stroke="rgb(138,93,88)" stroke-width="1" opacity="1" d="M 40 126 Q 43 125 42 128 Q 39 129 40 126 Z " /><path fill="rgb(138,93,88)" stroke="rgb(138,93,88)" stroke-width="1" opacity="1" d="M 157.5 141 L 156.5 143 L 157.5 141 Z " /><path fill="rgb(138,93,88)" stroke="rgb(138,93,88)" stroke-width="1" opacity="1" d="M 166.5 144 L 169.5 144 L 177.5 152 L 179 151.5 L 182 157.5 L 177.5 164 L 176 158 L 168.5 156 L 162 158 L 163 170 L 166 170.5 L 162.5 173 L 162 164 L 156 164 Q 157.5 160.2 154.5 161 L 149.5 164 L 144.5 165 L 142.5 165 L 136 169.5 L 144 170 L 144 177 L 141 177 Q 142.3 174 138.5 175 L 136 174 Q 137.1 171.3 134.5 172 L 130.5 173 L 131 171.5 L 133.5 166 L 134.5 168 L 138.5 163 L 144 160 Q 142.9 157.3 145.5 158 L 155.5 150 L 166.5 144 Z " /><path fill="rgb(138,93,88)" stroke="rgb(138,93,88)" stroke-width="1" opacity="1" d="M 174.5 145 L 175.5 147 L 174.5 145 Z " /><path fill="rgb(138,93,88)" stroke="rgb(138,93,88)" stroke-width="1" opacity="1" d="M 176.5 148 L 177.5 150 L 176.5 148 Z " /><path fill="rgb(138,93,88)" stroke="rgb(138,93,88)" stroke-width="1" opacity="1" d="M 60.5 151 L 62.5 154 L 60.5 151 Z " /><path fill="rgb(138,93,88)" stroke="rgb(138,93,88)" stroke-width="1" opacity="1" d="M 115.5 151 L 118 151 L 118 157.5 L 117 157.5 Q 118.3 151.4 115.5 152 L 115.5 151 Z " /><path fill="rgb(138,93,88)" stroke="rgb(138,93,88)" stroke-width="1" opacity="1" d="M 79.5 152 L 82 152.5 L 79.5 153 L 79.5 152 Z " /><path fill="rgb(138,93,88)" stroke="rgb(138,93,88)" stroke-width="1" opacity="1" d="M 112.5 152 L 113 153.5 L 113 155.5 L 112.5 157 L 109.5 153 L 112.5 152 Z " /><path fill="rgb(138,93,88)" stroke="rgb(138,93,88)" stroke-width="1" opacity="1" d="M 144.5 152 L 142.5 155 L 144.5 152 Z " /><path fill="rgb(138,93,88)" stroke="rgb(138,93,88)" stroke-width="1" opacity="1" d="M 72.5 153 L 75 153.5 L 72.5 154 L 72.5 153 Z " /><path fill="rgb(138,93,88)" stroke="rgb(138,93,88)" stroke-width="1" opacity="1" d="M 114.5 158 L 117 159.5 L 115.5 160 L 114.5 158 Z " /><path fill="rgb(138,93,88)" stroke="rgb(138,93,88)" stroke-width="1" opacity="1" d="M 135.5 163 L 134.5 165 L 135.5 163 Z " /><path fill="rgb(138,93,88)" stroke="rgb(138,93,88)" stroke-width="1" opacity="1" d="M 167 164 L 172 164.5 L 169 166 Q 170 169 167 168 L 167 164 Z " /><path fill="rgb(138,93,88)" stroke="rgb(138,93,88)" stroke-width="1" opacity="1" d="M 148 176 L 151 176 L 151 182 L 148 180.5 L 149 178.5 L 148 176 Z " /><path fill="rgb(138,93,88)" stroke="rgb(138,93,88)" stroke-width="1" opacity="1" d="M 155.5 176 L 156 178.5 L 155 178.5 L 155.5 176 Z " /><path fill="rgb(138,93,88)" stroke="rgb(138,93,88)" stroke-width="1" opacity="1" d="M 124 193 L 128 194.5 Q 128.8 199.3 125.5 200 L 124 199.5 L 124 193 Z " /></svg>