<svg width="200" height="200" version="1.1" xmlns="http://www.w3.org/2000/svg" desc="Created with imagetracer.js version 1.2.6" ><path fill="rgb(0,0,0)" stroke="rgb(0,0,0)" stroke-width="1" opacity="0.06274509803921569" d="M 164.5 26 L 168 26.5 L 164.5 27 L 164.5 26 Z " /><path fill="rgb(0,0,0)" stroke="rgb(0,0,0)" stroke-width="1" opacity="0.06274509803921569" d="M 170.5 26 Q 175.3 26.3 177 29.5 L 178 34.5 L 177 34.5 Q 177.6 29.4 174.5 28 L 170.5 27 L 170.5 26 Z " /><path fill="rgb(0,0,0)" stroke="rgb(0,0,0)" stroke-width="1" opacity="0.06274509803921569" d="M 158.5 28 L 160 28.5 L 148 36.5 L 137.5 55 L 135.5 56 L 140 50.5 Q 143.5 39 151.5 32 L 158.5 28 Z " /><path fill="rgb(0,0,0)" stroke="rgb(0,0,0)" stroke-width="1" opacity="0.06274509803921569" d="M 177.5 37 L 178 39.5 L 177 44.5 L 188 54.5 L 189 57.5 L 188 57.5 Q 186.4 50.6 180.5 48 L 176 44.5 L 177.5 37 Z " /><path fill="rgb(0,0,0)" stroke="rgb(0,0,0)" stroke-width="1" opacity="0.06274509803921569" d="M 82.5 46 Q 91.8 44.6 94 50.5 L 90.5 48 L 82.5 47 Q 76.5 53.5 65.5 55 L 65.5 54 Q 76.5 52.5 82.5 46 Z " /><path fill="rgb(0,0,0)" stroke="rgb(0,0,0)" stroke-width="1" opacity="0.06274509803921569" d="M 94.5 52 L 95 54 L 97 54.5 L 95.5 55 L 94.5 52 Z " /><path fill="rgb(0,0,0)" stroke="rgb(0,0,0)" stroke-width="1" opacity="0.06274509803921569" d="M 98.5 53 L 101 53.5 L 98.5 54 L 98.5 53 Z " /><path fill="rgb(0,0,0)" stroke="rgb(0,0,0)" stroke-width="1" opacity="0.06274509803921569" d="M 108.5 53 L 112 53.5 L 108.5 54 L 108.5 53 Z " /><path fill="rgb(0,0,0)" stroke="rgb(0,0,0)" stroke-width="1" opacity="0.06274509803921569" d="M 113.5 54 L 116 54.5 L 113.5 55 L 113.5 54 Z " /><path fill="rgb(0,0,0)" stroke="rgb(0,0,0)" stroke-width="1" opacity="0.06274509803921569" d="M 57.5 56 L 60 56.5 Q 47.7 60.2 41 69.5 L 37.5 77 L 37 75.5 Q 40.6 66.1 48.5 61 L 57.5 56 Z " /><path fill="rgb(0,0,0)" stroke="rgb(0,0,0)" stroke-width="1" opacity="0.06274509803921569" d="M 123.5 57 L 128 57.5 L 123.5 58 L 123.5 57 Z " /><path fill="rgb(0,0,0)" stroke="rgb(0,0,0)" stroke-width="1" opacity="0.06274509803921569" d="M 189.5 59 L 191 63.5 L 190 63.5 L 189.5 59 Z " /><path fill="rgb(0,0,0)" stroke="rgb(0,0,0)" stroke-width="1" opacity="0.06274509803921569" d="M 191.5 65 L 192 67.5 L 191 67.5 L 191.5 65 Z " /><path fill="rgb(0,0,0)" stroke="rgb(0,0,0)" stroke-width="1" opacity="0.06274509803921569" d="M 192.5 70 L 193 74.5 L 192 74.5 L 192.5 70 Z " /><path fill="rgb(0,0,0)" stroke="rgb(0,0,0)" stroke-width="1" opacity="0.06274509803921569" d="M 36.5 78 L 37 80.5 L 36 80.5 L 36.5 78 Z " /><path fill="rgb(0,0,0)" stroke="rgb(0,0,0)" stroke-width="1" opacity="0.06274509803921569" d="M 192.5 84 L 193 87.5 L 192 87.5 L 192.5 84 Z " /><path fill="rgb(0,0,0)" stroke="rgb(0,0,0)" stroke-width="1" opacity="0.06274509803921569" d="M 36.5 88 L 37 90.5 L 29.5 103 L 29 101.5 L 36.5 88 Z " /><path fill="rgb(0,0,0)" stroke="rgb(0,0,0)" stroke-width="1" opacity="0.06274509803921569" d="M 191.5 90 L 192 92.5 L 191 92.5 L 191.5 90 Z " /><path fill="rgb(0,0,0)" stroke="rgb(0,0,0)" stroke-width="1" opacity="0.06274509803921569" d="M 189.5 97 L 190 98.5 L 187 103.5 L 192 107.5 L 193 109.5 L 191 108.5 L 188.5 105 L 186 103.5 L 189.5 97 Z " /><path fill="rgb(0,0,0)" stroke="rgb(0,0,0)" stroke-width="1" opacity="0.06274509803921569" d="M 28.5 104 L 29 108.5 L 28 108.5 L 28.5 104 Z " /><path fill="rgb(0,0,0)" stroke="rgb(0,0,0)" stroke-width="1" opacity="0.06274509803921569" d="M 28.5 113 L 29 116.5 L 28 116.5 L 28.5 113 Z " /><path fill="rgb(0,0,0)" stroke="rgb(0,0,0)" stroke-width="1" opacity="0.06274509803921569" d="M 29.5 118 Q 32.1 127.9 39.5 133 Q 42.1 132.2 41 135.5 L 39.5 138 L 39 136.5 L 40 134.5 Q 30.5 129 29.5 118 Z " /><path fill="rgb(0,0,0)" stroke="rgb(0,0,0)" stroke-width="1" opacity="0.06274509803921569" d="M 193.5 119 L 194 121.5 L 191.5 125 L 189 124.5 L 193 121.5 L 193.5 119 Z " /><path fill="rgb(0,0,0)" stroke="rgb(0,0,0)" stroke-width="1" opacity="0.06274509803921569" d="M 179.5 125 L 181 125.5 L 172.5 133 L 179.5 125 Z " /><path fill="rgb(0,0,0)" stroke="rgb(0,0,0)" stroke-width="1" opacity="0.06274509803921569" d="M 171.5 134 L 171 135.5 L 169.5 138 L 170 136.5 L 171.5 134 Z " /><path fill="rgb(0,0,0)" stroke="rgb(0,0,0)" stroke-width="1" opacity="0.06274509803921569" d="M 38.5 139 L 39 144.5 L 38 144.5 L 38.5 139 Z " /><path fill="rgb(0,0,0)" stroke="rgb(0,0,0)" stroke-width="1" opacity="0.06274509803921569" d="M 166.5 143 L 166 144.5 L 157.5 156 L 153.5 159 L 163 148.5 L 166.5 143 Z " /><path fill="rgb(0,0,0)" stroke="rgb(0,0,0)" stroke-width="1" opacity="0.06274509803921569" d="M 39.5 146 L 43.5 152 L 49 155.5 L 47.5 155 L 40 149.5 L 39.5 146 Z " /><path fill="rgb(0,0,0)" stroke="rgb(0,0,0)" stroke-width="1" opacity="0.06274509803921569" d="M 52.5 157 L 59 159.5 L 56.5 160 L 52.5 158 L 52.5 157 Z " /><path fill="rgb(0,0,0)" stroke="rgb(0,0,0)" stroke-width="1" opacity="0.06274509803921569" d="M 151.5 159 L 150.5 161 L 144.5 163 L 144.5 162 L 151.5 159 Z " /><path fill="rgb(0,0,0)" stroke="rgb(0,0,0)" stroke-width="1" opacity="0.06274509803921569" d="M 60.5 160 L 63 160.5 L 60.5 161 L 60.5 160 Z " /><path fill="rgb(0,0,0)" stroke="rgb(0,0,0)" stroke-width="1" opacity="0.06274509803921569" d="M 65.5 161 Q 69.3 160.3 70 162.5 L 68 163.5 L 68.5 162 Q 64.5 162.8 65.5 161 Z " /><path fill="rgb(0,0,0)" stroke="rgb(0,0,0)" stroke-width="1" opacity="0.06274509803921569" d="M 140.5 163 L 143 163.5 L 140.5 164 L 140.5 163 Z " /><path fill="rgb(0,0,0)" stroke="rgb(0,0,0)" stroke-width="1" opacity="0.06274509803921569" d="M 128.5 164 L 137 164.5 L 131 165.5 L 141 171.5 L 138.5 170 Q 131.2 168.1 128.5 164 Z " /><path fill="rgb(0,0,0)" stroke="rgb(0,0,0)" stroke-width="1" opacity="0.06274509803921569" d="M 56.5 169 L 55.5 171 L 51.5 173 L 52.5 171 L 56.5 169 Z " /><path fill="rgb(0,0,0)" stroke="rgb(0,0,0)" stroke-width="1" opacity="0.06274509803921569" d="M 49.5 173 L 47.5 176 L 49.5 173 Z " /><path fill="rgb(0,0,0)" stroke="rgb(0,0,0)" stroke-width="1" opacity="0.06274509803921569" d="M 144.5 173 L 148 175.5 L 146.5 175 L 144.5 173 Z " /><path fill="rgb(0,0,0)" stroke="rgb(0,0,0)" stroke-width="1" opacity="0.06274509803921569" d="M 45.5 176 L 43.5 179 L 45.5 176 Z " /><path fill="rgb(0,0,0)" stroke="rgb(0,0,0)" stroke-width="1" opacity="0.06274509803921569" d="M 149.5 176 L 150.5 178 L 149.5 176 Z " /><path fill="rgb(0,0,0)" stroke="rgb(0,0,0)" stroke-width="1" opacity="0.06274509803921569" d="M 152.5 178 L 154.5 181 L 152.5 178 Z " /><path fill="rgb(0,0,0)" stroke="rgb(0,0,0)" stroke-width="1" opacity="0.06274509803921569" d="M 40.5 180 L 30.5 191 L 40.5 180 Z " /><path fill="rgb(0,0,0)" stroke="rgb(0,0,0)" stroke-width="1" opacity="0.06274509803921569" d="M 156.5 181 L 157.5 183 L 156.5 181 Z " /><path fill="rgb(0,0,0)" stroke="rgb(0,0,0)" stroke-width="1" opacity="0.06274509803921569" d="M 159.5 183 L 162.5 187 L 159.5 183 Z " /><path fill="rgb(0,0,0)" stroke="rgb(0,0,0)" stroke-width="1" opacity="0.06274509803921569" d="M 166.5 189 L 168.5 192 L 166.5 189 Z " /><path fill="rgb(0,0,0)" stroke="rgb(0,0,0)" stroke-width="1" opacity="0.06274509803921569" d="M 170.5 192 L 173.5 196 L 170.5 192 Z " /><path fill="rgb(0,0,0)" stroke="rgb(0,0,0)" stroke-width="1" opacity="0.06274509803921569" d="M 28.5 193 L 26 196.5 L 24.5 199 L 25 197.5 L 28.5 193 Z " /><path fill="rgb(0,0,0)" stroke="rgb(0,0,0)" stroke-width="1" opacity="0.06274509803921569" d="M 175.5 196 L 177 199.5 L 175 198.5 L 175.5 196 Z " /><path fill="rgb(0,0,0)" stroke="rgb(0,0,0)" stroke-width="1" opacity="0" d="M 0 0 L 200 0 L 200 200 L 177.5 200 L 176 198.5 Q 177.1 195.2 174.5 196 Q 155.8 177.7 131 165.5 L 148.5 162 L 160 153.5 Q 167.5 145 172 133.5 L 179.5 126 Q 183.3 123.3 191.5 125 L 193 123.5 Q 195.7 119.7 194 111.5 L 188.5 104 L 187 103.5 L 190 98.5 L 193 87.5 L 193 70.5 L 188 54.5 L 180.5 47 L 177 44.5 L 178 31.5 L 174.5 27 Q 171.3 24.7 164.5 26 Q 153.3 28.8 147 36.5 L 140 50.5 L 134.5 56 L 122.5 57 L 111.5 53 L 98.5 53 L 95 54 Q 94.6 49.3 90.5 47 L 82.5 46 L 73.5 52 L 57.5 56 L 51.5 59 L 40 69.5 Q 34.2 76.2 36 90.5 Q 30.5 96 28 104.5 L 28 116.5 Q 31.3 128.7 40 135.5 Q 37.2 138.2 38 144.5 Q 39.5 151 44.5 154 L 56.5 160 L 69 162.5 Q 45.4 172.4 30 190.5 Q 25 194 24 200 L 0.5 200 L 0 199.5 L 0 0 Z " /><path fill="rgb(196,73,54)" stroke="rgb(196,73,54)" stroke-width="1" opacity="1" d="M 157.5 37 L 156.5 39 L 157.5 37 Z " /><path fill="rgb(196,73,54)" stroke="rgb(196,73,54)" stroke-width="1" opacity="1" d="M 168.5 41 L 169 44.5 L 168 44.5 L 168.5 41 Z " /><path fill="rgb(196,73,54)" stroke="rgb(196,73,54)" stroke-width="1" opacity="1" d="M 170.5 49 L 173.5 53 L 170.5 49 Z " /><path fill="rgb(196,73,54)" stroke="rgb(196,73,54)" stroke-width="1" opacity="1" d="M 176.5 54 L 177.5 56 L 176.5 54 Z " /><path fill="rgb(196,73,54)" stroke="rgb(196,73,54)" stroke-width="1" opacity="1" d="M 88.5 58 L 89 60.5 L 88 60.5 L 88.5 58 Z " /><path fill="rgb(196,73,54)" stroke="rgb(196,73,54)" stroke-width="1" opacity="1" d="M 102.5 60 L 107 60.5 L 102.5 61 L 102.5 60 Z " /><path fill="rgb(196,73,54)" stroke="rgb(196,73,54)" stroke-width="1" opacity="1" d="M 43.5 81 L 44 86.5 L 43 86.5 L 43.5 81 Z " /><path fill="rgb(196,73,54)" stroke="rgb(196,73,54)" stroke-width="1" opacity="1" d="M 44.5 89 L 45 92.5 L 44 92.5 L 44.5 89 Z " /><path fill="rgb(196,73,54)" stroke="rgb(196,73,54)" stroke-width="1" opacity="1" d="M 65.5 93 L 64.5 95 L 65.5 93 Z " /><path fill="rgb(196,73,54)" stroke="rgb(196,73,54)" stroke-width="1" opacity="1" d="M 42.5 94 L 41.5 96 L 42.5 94 Z " /><path fill="rgb(196,73,54)" stroke="rgb(196,73,54)" stroke-width="1" opacity="1" d="M 87.5 97 L 91 97.5 L 87.5 98 L 87.5 97 Z " /><path fill="rgb(196,73,54)" stroke="rgb(196,73,54)" stroke-width="1" opacity="1" d="M 54.5 100 L 55 102.5 L 54 102.5 L 54.5 100 Z " /><path fill="rgb(196,73,54)" stroke="rgb(196,73,54)" stroke-width="1" opacity="1" d="M 62.5 100 L 63 102.5 L 62 102.5 L 62.5 100 Z " /><path fill="rgb(196,73,54)" stroke="rgb(196,73,54)" stroke-width="1" opacity="1" d="M 106.5 105 L 109.5 109 L 106.5 105 Z " /><path fill="rgb(196,73,54)" stroke="rgb(196,73,54)" stroke-width="1" opacity="1" d="M 88.5 107 L 92 107.5 L 88.5 108 L 88.5 107 Z " /><path fill="rgb(196,73,54)" stroke="rgb(196,73,54)" stroke-width="1" opacity="1" d="M 80.5 109 L 84 109.5 L 80.5 110 L 80.5 109 Z " /><path fill="rgb(196,73,54)" stroke="rgb(196,73,54)" stroke-width="1" opacity="1" d="M 101.5 110 L 106.5 116 L 101.5 110 Z " /><path fill="rgb(196,73,54)" stroke="rgb(196,73,54)" stroke-width="1" opacity="1" d="M 153.5 110 L 154.5 112 L 153.5 110 Z " /><path fill="rgb(196,73,54)" stroke="rgb(196,73,54)" stroke-width="1" opacity="1" d="M 156.5 112 L 157.5 114 L 156.5 112 Z " /><path fill="rgb(196,73,54)" stroke="rgb(196,73,54)" stroke-width="1" opacity="1" d="M 114.5 114 L 118.5 119 L 114.5 114 Z " /><path fill="rgb(196,73,54)" stroke="rgb(196,73,54)" stroke-width="1" opacity="1" d="M 159.5 114 L 161.5 117 L 159.5 114 Z " /><path fill="rgb(196,73,54)" stroke="rgb(196,73,54)" stroke-width="1" opacity="1" d="M 46.5 120 L 45.5 122 L 46.5 120 Z " /><path fill="rgb(196,73,54)" stroke="rgb(196,73,54)" stroke-width="1" opacity="1" d="M 173.5 120 L 172.5 122 L 173.5 120 Z " /><path fill="rgb(196,73,54)" stroke="rgb(196,73,54)" stroke-width="1" opacity="1" d="M 38.5 121 L 39.5 123 L 38.5 121 Z " /><path fill="rgb(196,73,54)" stroke="rgb(196,73,54)" stroke-width="1" opacity="1" d="M 114.5 124 L 116.5 127 L 114.5 124 Z " /><path fill="rgb(196,73,54)" stroke="rgb(196,73,54)" stroke-width="1" opacity="1" d="M 138.5 125 L 141 125.5 L 138.5 126 L 138.5 125 Z " /><path fill="rgb(196,73,54)" stroke="rgb(196,73,54)" stroke-width="1" opacity="1" d="M 168.5 125 L 166.5 128 L 168.5 125 Z " /><path fill="rgb(196,73,54)" stroke="rgb(196,73,54)" stroke-width="1" opacity="1" d="M 165.5 129 L 164.5 131 L 165.5 129 Z " /><path fill="rgb(196,73,54)" stroke="rgb(196,73,54)" stroke-width="1" opacity="1" d="M 77.5 155 L 82 155.5 L 77.5 156 L 77.5 155 Z " /><path fill="rgb(196,73,54)" stroke="rgb(196,73,54)" stroke-width="1" opacity="1" d="M 90.5 155 L 93 155.5 L 90.5 156 L 90.5 155 Z " /><path fill="rgb(196,73,54)" stroke="rgb(196,73,54)" stroke-width="1" opacity="1" d="M 96.5 161 L 100 161.5 L 96.5 162 L 96.5 161 Z " /><path fill="rgb(196,73,54)" stroke="rgb(196,73,54)" stroke-width="1" opacity="1" d="M 85.5 162 L 86.5 164 L 85.5 162 Z " /><path fill="rgb(196,73,54)" stroke="rgb(196,73,54)" stroke-width="1" opacity="1" d="M 90.5 164 L 91 166.5 L 90.5 168 Q 92.8 167.3 92 169.5 L 89 167.5 L 90.5 164 Z " /><path fill="rgb(196,73,54)" stroke="rgb(196,73,54)" stroke-width="1" opacity="1" d="M 95.5 167 L 98 167.5 Q 95.9 170.8 95.5 167 Z " /><path fill="rgb(196,73,54)" stroke="rgb(196,73,54)" stroke-width="1" opacity="1" d="M 127.5 173 L 132 175.5 L 130 176.5 L 131.5 179 Q 127.4 176.7 127.5 173 Z " /><path fill="rgb(196,73,54)" stroke="rgb(196,73,54)" stroke-width="1" opacity="1" d="M 55.5 177 L 54.5 179 L 55.5 177 Z " /><path fill="rgb(196,73,54)" stroke="rgb(196,73,54)" stroke-width="1" opacity="1" d="M 134.5 180 L 135.5 182 L 134.5 180 Z " /><path fill="rgb(196,73,54)" stroke="rgb(196,73,54)" stroke-width="1" opacity="1" d="M 144.5 181 L 145.5 183 L 144.5 181 Z " /><path fill="rgb(196,73,54)" stroke="rgb(196,73,54)" stroke-width="1" opacity="1" d="M 147.5 183 L 148.5 185 L 147.5 183 Z " /><path fill="rgb(196,73,54)" stroke="rgb(196,73,54)" stroke-width="1" opacity="1" d="M 139.5 184 L 140.5 186 L 139.5 184 Z " /><path fill="rgb(196,73,54)" stroke="rgb(196,73,54)" stroke-width="1" opacity="1" d="M 49.5 185 L 47.5 188 L 49.5 185 Z " /><path fill="rgb(196,73,54)" stroke="rgb(196,73,54)" stroke-width="1" opacity="1" d="M 60.5 185 L 61.5 187 L 60.5 185 Z " /><path fill="rgb(196,73,54)" stroke="rgb(196,73,54)" stroke-width="1" opacity="1" d="M 150.5 185 L 151.5 187 L 150.5 185 Z " /><path fill="rgb(196,73,54)" stroke="rgb(196,73,54)" stroke-width="1" opacity="1" d="M 43.5 186 L 42.5 188 L 43.5 186 Z " /><path fill="rgb(196,73,54)" stroke="rgb(196,73,54)" stroke-width="1" opacity="1" d="M 154.5 188 L 155.5 190 L 154.5 188 Z " /><path fill="rgb(196,73,54)" stroke="rgb(196,73,54)" stroke-width="1" opacity="1" d="M 39.5 191 L 38.5 193 L 39.5 191 Z " /><path fill="rgb(196,73,54)" stroke="rgb(196,73,54)" stroke-width="1" opacity="1" d="M 160.5 193 L 163.5 197 L 160.5 193 Z " /><path fill="rgb(196,73,54)" stroke="rgb(196,73,54)" stroke-width="1" opacity="1" d="M 37.5 194 L 36.5 196 L 37.5 194 Z " /><path fill="rgb(196,73,54)" stroke="rgb(196,73,54)" stroke-width="1" opacity="1" d="M 164.5 198 L 165.5 200 L 164.5 198 Z " /><path fill="rgb(18,93,141)" stroke="rgb(18,93,141)" stroke-width="1" opacity="1" d="M 107.5 160 L 111 161.5 Q 120.5 173.5 126 189.5 L 118.5 194 L 116 194 L 113 182 L 110.5 181 L 108 182 L 107 185.5 L 111 199.5 L 80.5 200 L 81 198.5 L 81 190.5 Q 78.2 188.8 79 183.5 Q 82 180.5 82 174.5 Q 81.3 172.3 77.5 173 L 73 183 L 62 181 L 62 179.5 L 70.5 171 L 79.5 164 L 90.5 171 L 93.5 171 L 101 169 Q 102.1 166.3 99.5 167 L 98 167.5 L 107.5 160 Z M 91 175 L 91 178 L 87 182 Q 82 181 83 184 L 87 185 L 90 190 Q 88 195 92 194 L 93 189 Q 95 184 101 184 Q 95 183 93 179 Q 94 174 91 175 Z " /><path fill="rgb(18,93,141)" stroke="rgb(18,93,141)" stroke-width="1" opacity="1" d="M 82.5 162 L 85 162.5 L 81.5 164 L 82.5 162 Z " /><path fill="rgb(247,144,70)" stroke="rgb(247,144,70)" stroke-width="1" opacity="1" d="M 165.5 34 Q 168.8 32.9 168 35.5 Q 165.8 40.3 157.5 39 L 158.5 37 L 165.5 34 Z " /><path fill="rgb(247,144,70)" stroke="rgb(247,144,70)" stroke-width="1" opacity="1" d="M 153.5 52 Q 157.3 55.3 156 63.5 L 152.5 68 Q 146.7 72.2 135.5 71 Q 134.3 68.8 129.5 70 L 125 67.5 L 128.5 67 L 132.5 68 L 143.5 66 L 150 59.5 L 153.5 52 Z " /><path fill="rgb(247,144,70)" stroke="rgb(247,144,70)" stroke-width="1" opacity="1" d="M 85.5 54 L 88 56.5 Q 86.5 62.5 89.5 64 L 100.5 61 L 110.5 61 L 115 62.5 Q 97.8 61.8 89 69.5 L 104.5 71 L 106 72.5 L 96 75 Q 94.9 77.7 97.5 77 Q 106.5 78.5 111 84.5 L 110.5 86 L 103.5 83 L 87.5 82 Q 74.7 84.7 67.5 93 L 66 90.5 L 70 83 Q 63.7 84.8 60 90.5 L 55.5 100 L 55 95.5 L 59 86.5 Q 58.3 83.3 53.5 84 L 41 105.5 L 40 115.5 L 44 125.5 L 38 120.5 L 36 114 L 39 113.5 L 39 104 L 37 103.5 L 42.5 95 Q 44.8 95.8 44 93.5 L 45 89.5 L 44 88.5 L 44 79.5 L 45.5 80 Q 49.3 80.8 50 78.5 L 53 72 L 60.5 68 L 64.5 71 L 84 57.5 L 83 55.5 L 85.5 54 Z " /><path fill="rgb(247,144,70)" stroke="rgb(247,144,70)" stroke-width="1" opacity="1" d="M 81.5 56 L 80.5 58 L 81.5 56 Z " /><path fill="rgb(247,144,70)" stroke="rgb(247,144,70)" stroke-width="1" opacity="1" d="M 168.5 63 Q 174.1 62.9 176 66.5 L 177 73.5 L 175 79 L 170 80 L 170 73 L 164.5 73 L 158.5 76 L 157 73.5 L 164 67.5 L 166.5 64 L 168.5 63 Z " /><path fill="rgb(247,144,70)" stroke="rgb(247,144,70)" stroke-width="1" opacity="1" d="M 59.5 64 L 61 64.5 L 56.5 67 L 57.5 65 L 59.5 64 Z " /><path fill="rgb(247,144,70)" stroke="rgb(247,144,70)" stroke-width="1" opacity="1" d="M 54.5 67 L 53.5 69 L 54.5 67 Z " /><path fill="rgb(247,144,70)" stroke="rgb(247,144,70)" stroke-width="1" opacity="1" d="M 51.5 69 L 48.5 73 L 51.5 69 Z " /><path fill="rgb(247,144,70)" stroke="rgb(247,144,70)" stroke-width="1" opacity="1" d="M 121.5 97 Q 128.3 106.2 142.5 108 L 145 107 L 146 104.5 L 145 101.5 L 147 102.5 L 150.5 109 L 161 116.5 L 159.5 118 L 146.5 118 Q 130.8 112.8 122 100.5 L 121.5 97 Z M 133 107 L 134 109 L 143 113 L 155 114 L 156 115 L 157 115 L 149 108 L 144 109 L 133 107 Z " /><path fill="rgb(247,144,70)" stroke="rgb(247,144,70)" stroke-width="1" opacity="1" d="M 176 109 Q 183.6 107.9 186 113.5 L 184.5 114 L 176 112 L 176 109 Z " /><path fill="rgb(247,144,70)" stroke="rgb(247,144,70)" stroke-width="1" opacity="1" d="M 94.5 110 L 98 110.5 L 94.5 111 L 94.5 110 Z " /><path fill="rgb(247,144,70)" stroke="rgb(247,144,70)" stroke-width="1" opacity="1" d="M 60.5 112 L 59.5 114 L 60.5 112 Z " /><path fill="rgb(247,144,70)" stroke="rgb(247,144,70)" stroke-width="1" opacity="1" d="M 104.5 114 L 105.5 116 L 104.5 114 Z " /><path fill="rgb(247,144,70)" stroke="rgb(247,144,70)" stroke-width="1" opacity="1" d="M 60.5 121 L 63 121.5 L 60.5 122 L 60.5 121 Z " /><path fill="rgb(247,144,70)" stroke="rgb(247,144,70)" stroke-width="1" opacity="1" d="M 108.5 125 L 107.5 127 L 108.5 125 Z " /><path fill="rgb(247,144,70)" stroke="rgb(247,144,70)" stroke-width="1" opacity="1" d="M 54.5 131 L 56 133.5 L 55 133.5 L 54.5 131 Z " /><path fill="rgb(247,144,70)" stroke="rgb(247,144,70)" stroke-width="1" opacity="1" d="M 130.5 132 L 127.5 136 L 130.5 132 Z " /><path fill="rgb(247,144,70)" stroke="rgb(247,144,70)" stroke-width="1" opacity="1" d="M 104.5 137 L 105 139.5 L 104 139.5 L 104.5 137 Z " /><path fill="rgb(247,144,70)" stroke="rgb(247,144,70)" stroke-width="1" opacity="1" d="M 53.5 179 L 55 179.5 Q 49.9 188 41 191 L 45.5 185 L 53.5 179 Z " /><path fill="rgb(247,144,70)" stroke="rgb(247,144,70)" stroke-width="1" opacity="1" d="M 137.5 179 Q 152.3 184.7 162 195.5 L 159.5 196 Q 155.4 191.6 147.5 191 L 139 183.5 L 137.5 179 Z " /><path fill="rgb(247,144,70)" stroke="rgb(247,144,70)" stroke-width="1" opacity="1" d="M 65.5 192 L 70.5 193 L 74 192 Q 74.8 197 71.5 199 L 69.5 200 L 60 200 L 59 197.5 L 66 193.5 L 65.5 192 Z " /><path fill="rgb(247,144,70)" stroke="rgb(247,144,70)" stroke-width="1" opacity="1" d="M 120.5 193 Q 122.9 195.3 122 200 L 118 200 L 118 198.5 L 117 195.5 L 120.5 193 Z " /><path fill="rgb(220,75,56)" stroke="rgb(220,75,56)" stroke-width="1" opacity="1" d="M 168 34 Q 171 33 170 36 L 168 36 L 167.5 40 L 156.5 40 L 156.5 39 Q 165.5 40.5 168 35.5 L 168 34 Z " /><path fill="rgb(220,75,56)" stroke="rgb(220,75,56)" stroke-width="1" opacity="1" d="M 153.5 50 L 157 56.5 L 157 62.5 L 156 62.5 Q 157.1 54.9 153.5 52 L 152 52.5 L 153.5 50 Z " /><path fill="rgb(220,75,56)" stroke="rgb(220,75,56)" stroke-width="1" opacity="1" d="M 149.5 59 L 148.5 61 L 149.5 59 Z " /><path fill="rgb(220,75,56)" stroke="rgb(220,75,56)" stroke-width="1" opacity="1" d="M 167.5 62 Q 175.4 61.1 177 66.5 L 176.5 70 Q 176.7 65.3 173.5 64 L 168.5 63 L 164 66.5 L 159.5 72 L 157 73.5 L 158 75.5 L 156 76 L 155 73.5 L 160 69.5 Q 159.3 67.3 161.5 68 L 164 64 L 167.5 62 Z " /><path fill="rgb(220,75,56)" stroke="rgb(220,75,56)" stroke-width="1" opacity="1" d="M 103.5 63 L 115.5 63 L 116.5 64 L 118.5 64 L 127 66.5 L 125 67.5 Q 128.2 70.8 135 70.5 L 129.5 71 Q 126.5 67.1 120 68 Q 121.8 62.8 114.5 65 L 113.5 64 L 103.5 64 L 96 66 L 95.5 68 L 93.5 68 L 92 68.5 L 105.5 70 L 108 72.5 Q 108.9 75.5 104.5 74 L 104.5 73 L 106 72.5 L 104.5 71 L 89 69.5 L 93.5 66 L 103.5 63 Z " /><path fill="rgb(220,75,56)" stroke="rgb(220,75,56)" stroke-width="1" opacity="1" d="M 155.5 64 L 156 68 L 149.5 70 L 149.5 69 L 155 65.5 L 155.5 64 Z " /><path fill="rgb(220,75,56)" stroke="rgb(220,75,56)" stroke-width="1" opacity="1" d="M 129.5 67 L 133 67.5 L 129.5 68 L 129.5 67 Z " /><path fill="rgb(220,75,56)" stroke="rgb(220,75,56)" stroke-width="1" opacity="1" d="M 145.5 70 L 148 70.5 L 145.5 71 L 145.5 70 Z " /><path fill="rgb(220,75,56)" stroke="rgb(220,75,56)" stroke-width="1" opacity="1" d="M 136.5 71 L 143 71.5 L 136.5 72 L 136.5 71 Z " /><path fill="rgb(220,75,56)" stroke="rgb(220,75,56)" stroke-width="1" opacity="1" d="M 164.5 73 L 170 73 L 170 80 L 172.5 80 L 174 79.5 L 172.5 82 L 169 81 L 169 74 L 164 74 Q 165.3 77.7 159.5 76 L 159.5 75 L 164.5 73 Z " /><path fill="rgb(220,75,56)" stroke="rgb(220,75,56)" stroke-width="1" opacity="1" d="M 98.5 74 L 103 74.5 L 98 75.5 Q 99.3 78.3 100.5 76 L 104 76 Q 102.5 79.7 105.5 79 L 112 84.5 Q 113.1 87.8 110.5 87 L 108 85.5 L 109.5 85 L 111 85.5 L 107.5 81 L 96 77 Q 94.9 74.3 97.5 75 L 98.5 74 Z " /><path fill="rgb(220,75,56)" stroke="rgb(220,75,56)" stroke-width="1" opacity="1" d="M 87.5 82 L 95 82.5 L 87.5 83 L 87.5 82 Z " /><path fill="rgb(220,75,56)" stroke="rgb(220,75,56)" stroke-width="1" opacity="1" d="M 68.5 83 Q 70.8 82.3 70 84.5 L 66 91.5 L 66.5 93 Q 63.9 93.8 65 90.5 L 66 88 Q 62.3 86.8 64 92 L 60 92 L 60 93.5 L 58 95.5 L 55.5 104 L 54 99.5 L 56 99.5 Q 58.1 89.6 65.5 85 L 68.5 83 Z " /><path fill="rgb(220,75,56)" stroke="rgb(220,75,56)" stroke-width="1" opacity="1" d="M 83.5 83 L 86 83.5 L 83.5 84 L 83.5 83 Z " /><path fill="rgb(220,75,56)" stroke="rgb(220,75,56)" stroke-width="1" opacity="1" d="M 98.5 83 L 104 83.5 L 98.5 84 L 98.5 83 Z " /><path fill="rgb(220,75,56)" stroke="rgb(220,75,56)" stroke-width="1" opacity="1" d="M 53.5 84 L 51.5 87 L 53.5 84 Z " /><path fill="rgb(220,75,56)" stroke="rgb(220,75,56)" stroke-width="1" opacity="1" d="M 80.5 84 L 82 84.5 L 80 85 Q 81.8 90.3 74.5 88 L 72 92 L 69.5 93 L 74.5 87 L 80.5 84 Z " /><path fill="rgb(220,75,56)" stroke="rgb(220,75,56)" stroke-width="1" opacity="1" d="M 129.5 91 L 132.5 95 L 130 94 L 129.5 91 Z " /><path fill="rgb(220,75,56)" stroke="rgb(220,75,56)" stroke-width="1" opacity="1" d="M 47.5 95 L 46.5 97 L 47.5 95 Z " /><path fill="rgb(220,75,56)" stroke="rgb(220,75,56)" stroke-width="1" opacity="1" d="M 120.5 95 L 124 96 L 123.5 99 L 121 97.5 L 122 100.5 L 132.5 111 L 146.5 118 L 159 118.5 L 156.5 120 L 155 119.5 L 153.5 122 L 150.5 120 L 145.5 119 L 140.5 116 L 136 116 L 133.5 112 Q 125.7 114.7 128 107.5 Q 126.4 102.8 120 104 L 120.5 95 Z " /><path fill="rgb(220,75,56)" stroke="rgb(220,75,56)" stroke-width="1" opacity="1" d="M 141.5 95 L 148 103.5 L 147 103.5 L 145.5 101 L 144.5 103 L 141 96.5 L 141.5 95 Z " /><path fill="rgb(220,75,56)" stroke="rgb(220,75,56)" stroke-width="1" opacity="1" d="M 45.5 98 L 45 99.5 L 45 104 Q 42.3 102.9 43 105.5 L 41 106.5 L 45.5 98 Z " /><path fill="rgb(220,75,56)" stroke="rgb(220,75,56)" stroke-width="1" opacity="1" d="M 125.5 99 L 132 100 L 131.5 105 L 125.5 99 Z " /><path fill="rgb(220,75,56)" stroke="rgb(220,75,56)" stroke-width="1" opacity="1" d="M 144 104 L 146 104.5 L 144.5 107 L 144 104 Z " /><path fill="rgb(220,75,56)" stroke="rgb(220,75,56)" stroke-width="1" opacity="1" d="M 40.5 108 L 41 115.5 L 40 115.5 L 40.5 108 Z " /><path fill="rgb(220,75,56)" stroke="rgb(220,75,56)" stroke-width="1" opacity="1" d="M 110.5 108 Q 112.8 107.3 112 109.5 L 110.5 108 Z " /><path fill="rgb(220,75,56)" stroke="rgb(220,75,56)" stroke-width="1" opacity="1" d="M 176.5 108 L 178 108.5 L 176 109 L 175.5 111 L 175 109.5 L 176.5 108 Z " /><path fill="rgb(220,75,56)" stroke="rgb(220,75,56)" stroke-width="1" opacity="1" d="M 117.5 116 Q 121.3 114.8 120 118.5 L 117.5 116 Z " /><path fill="rgb(220,75,56)" stroke="rgb(220,75,56)" stroke-width="1" opacity="1" d="M 41.5 117 L 42 119.5 L 41 119.5 L 41.5 117 Z " /><path fill="rgb(220,75,56)" stroke="rgb(220,75,56)" stroke-width="1" opacity="1" d="M 55.5 122 L 56 124 L 54 123.5 L 55.5 122 Z " /><path fill="rgb(220,75,56)" stroke="rgb(220,75,56)" stroke-width="1" opacity="1" d="M 60 122 L 65 122.5 Q 63.8 125 60 124 L 60 122 Z " /><path fill="rgb(220,75,56)" stroke="rgb(220,75,56)" stroke-width="1" opacity="1" d="M 43.5 124 Q 46.5 123.2 45 127 L 43 126.5 L 43.5 124 Z " /><path fill="rgb(220,75,56)" stroke="rgb(220,75,56)" stroke-width="1" opacity="1" d="M 68.5 124 L 72 126.5 Q 72.9 129.5 68.5 128 L 66.5 129 L 66.5 128 L 68 128 L 68.5 124 Z " /><path fill="rgb(220,75,56)" stroke="rgb(220,75,56)" stroke-width="1" opacity="1" d="M 110.5 125 Q 113.5 124.2 112 128 Q 106.8 125.9 108 130.5 L 110 130.5 L 105.5 134 L 105.5 132 Q 102.9 131.2 104 134.5 L 104.5 136 Q 99.7 137.7 101 133.5 L 104 132 L 108.5 126 L 110.5 125 Z " /><path fill="rgb(220,75,56)" stroke="rgb(220,75,56)" stroke-width="1" opacity="1" d="M 61.5 127 L 65 127.5 L 59 129 L 58.5 134 L 58 132 L 54 130.5 L 56 130.5 Q 54.6 125.9 60.5 128 L 61.5 127 Z " /><path fill="rgb(220,75,56)" stroke="rgb(220,75,56)" stroke-width="1" opacity="1" d="M 69.5 129 L 70.5 131 L 69.5 129 Z " /><path fill="rgb(220,75,56)" stroke="rgb(220,75,56)" stroke-width="1" opacity="1" d="M 112.5 129 L 116 129.5 L 112.5 130 L 112.5 129 Z " /><path fill="rgb(220,75,56)" stroke="rgb(220,75,56)" stroke-width="1" opacity="1" d="M 74.5 131 L 76 136.5 L 74.5 136 L 72 134.5 L 71 132.5 L 74.5 131 Z " /><path fill="rgb(220,75,56)" stroke="rgb(220,75,56)" stroke-width="1" opacity="1" d="M 124.5 131 Q 128.3 130.3 129 132.5 L 128.5 134 L 128 132 L 124 132 Q 125.9 137.6 121 136 Q 118.9 130.8 123.5 132 L 124.5 131 Z " /><path fill="rgb(220,75,56)" stroke="rgb(220,75,56)" stroke-width="1" opacity="1" d="M 55.5 136 L 56 138.5 L 55 138.5 L 55.5 136 Z " /><path fill="rgb(220,75,56)" stroke="rgb(220,75,56)" stroke-width="1" opacity="1" d="M 126.5 137 L 127 139.5 L 124.5 143 L 124 140 Q 127.1 141.1 126.5 137 Z " /><path fill="rgb(220,75,56)" stroke="rgb(220,75,56)" stroke-width="1" opacity="1" d="M 119.5 140 L 120 145 L 116 144 Q 114.9 141.3 117.5 142 L 119.5 140 Z " /><path fill="rgb(220,75,56)" stroke="rgb(220,75,56)" stroke-width="1" opacity="1" d="M 71.5 141 L 72 142.5 L 68.5 144 L 66 142.5 L 71.5 141 Z " /><path fill="rgb(220,75,56)" stroke="rgb(220,75,56)" stroke-width="1" opacity="1" d="M 102.5 141 L 103.5 143 L 102.5 141 Z " /><path fill="rgb(220,75,56)" stroke="rgb(220,75,56)" stroke-width="1" opacity="1" d="M 107 143 L 112 143.5 L 107 145 L 107 143 Z " /><path fill="rgb(220,75,56)" stroke="rgb(220,75,56)" stroke-width="1" opacity="1" d="M 93.5 145 L 95 147.5 L 92 149.5 L 94 146.5 L 93.5 145 Z " /><path fill="rgb(220,75,56)" stroke="rgb(220,75,56)" stroke-width="1" opacity="1" d="M 82 146 L 90 146.5 L 83 148.5 L 83.5 150 L 82 146 Z " /><path fill="rgb(220,75,56)" stroke="rgb(220,75,56)" stroke-width="1" opacity="1" d="M 85.5 150 L 90 150.5 L 85.5 151 L 85.5 150 Z " /><path fill="rgb(220,75,56)" stroke="rgb(220,75,56)" stroke-width="1" opacity="1" d="M 130.5 176 Q 132.8 175.3 132 177.5 L 130.5 176 Z " /><path fill="rgb(220,75,56)" stroke="rgb(220,75,56)" stroke-width="1" opacity="1" d="M 136 178 L 138 178.5 L 138 180.5 L 139 182.5 L 137.5 182 L 135 180.5 L 136 178 Z " /><path fill="rgb(220,75,56)" stroke="rgb(220,75,56)" stroke-width="1" opacity="1" d="M 143.5 187 L 146.5 191 L 143.5 187 Z " /><path fill="rgb(220,75,56)" stroke="rgb(220,75,56)" stroke-width="1" opacity="1" d="M 44.5 189 L 44 190.5 L 40.5 196 L 37 195.5 L 40.5 191 L 44.5 189 Z " /><path fill="rgb(220,75,56)" stroke="rgb(220,75,56)" stroke-width="1" opacity="1" d="M 151.5 192 L 159.5 196 L 163 196 L 164 200 Q 158.8 202.1 160 197.5 L 157.5 195 Q 152.9 195.6 151.5 193 L 151.5 192 Z " /><path fill="rgb(220,74,56)" stroke="rgb(220,74,56)" stroke-width="1" opacity="1" d="M 168 36 L 170 36.5 L 168 44.5 Q 169.3 50.3 173.5 53 L 178 56.5 L 179 63.5 L 177.5 70 Q 177.6 64.4 173.5 63 L 167.5 62 L 164 64 L 161.5 68 Q 159.3 67.3 160 69.5 L 155 73.5 L 156 76 L 163.5 76 Q 162.7 72.5 169 74 L 169 81 L 171.5 81 L 173 81.5 L 175.5 78 L 174 80.5 Q 172.4 89.4 165.5 93 L 154.5 99 L 148 100 L 147.5 102 L 141.5 95 L 141 96.5 L 145 103.5 L 144 107 Q 136.2 107.9 132 105 Q 134.8 97.5 126.5 100 L 124 99 Q 125.7 94.9 121.5 96 L 120 95.5 L 120 104 L 124.5 104 Q 129.3 105.6 128 112 Q 134.3 110.5 136 114.5 Q 135.1 117.9 140.5 116 L 145.5 119 L 152 120 Q 153.7 124.1 149.5 123 L 136.5 126 Q 126.6 124.2 120 120 Q 122.2 114.4 116.5 116 L 110.5 109 L 112 109.5 Q 112.8 106.9 109.5 108 Q 102.5 98.5 87.5 97 L 82.5 98 L 75.5 102 L 70 102 Q 71.6 99.9 71 94.5 L 70 92 Q 72.7 93.1 72 90.5 Q 73.7 86.5 80 88 Q 78.5 84.2 81.5 85 Q 86.9 81.4 97.5 83 Q 99 85.5 104.5 84 L 112 87 L 112 84.5 L 107.5 80 L 104 79 Q 105.8 74.5 100.5 76 Q 99.3 78.3 98 75.5 L 108 74 L 105.5 70 L 92 68.5 L 94.5 67 L 96 67.5 Q 95.2 64.9 98.5 66 Q 103.6 62.6 113.5 64 L 120 65 Q 118.2 69.9 124.5 68 L 129.5 71 L 142.5 72 L 156 68 L 157 56.5 L 153.5 50 L 152 50.5 L 155 40 L 167.5 40 L 168 36 Z M 131 92 Q 129 95 132 94 L 131 92 Z " /><path fill="rgb(220,74,56)" stroke="rgb(220,74,56)" stroke-width="1" opacity="1" d="M 147.5 61 L 144.5 65 L 147.5 61 Z " /><path fill="rgb(220,74,56)" stroke="rgb(220,74,56)" stroke-width="1" opacity="1" d="M 64 88 Q 66.7 86.9 66 89.5 L 63 96.5 L 62 103.5 L 60.5 105 L 56.5 106 Q 53.7 104.8 56 103.5 L 56 100.5 L 60 92 Q 66 94 64 88 Z " /><path fill="rgb(220,74,56)" stroke="rgb(220,74,56)" stroke-width="1" opacity="1" d="M 45.5 99 L 46 107.5 L 49 120 L 45 121.5 Q 46 125.3 43 124 L 41 116.5 L 41 107.5 L 43 104 L 45 104 L 45.5 99 Z " /><path fill="rgb(220,74,56)" stroke="rgb(220,74,56)" stroke-width="1" opacity="1" d="M 175.5 111 L 176.5 113 L 175.5 111 Z " /><path fill="rgb(220,74,56)" stroke="rgb(220,74,56)" stroke-width="1" opacity="1" d="M 175.5 118 L 174.5 120 L 166 127.5 L 160.5 138 L 159 137.5 L 160 139.5 L 158 140.5 Q 158.5 128 166.5 123 L 175.5 118 Z " /><path fill="rgb(220,74,56)" stroke="rgb(220,74,56)" stroke-width="1" opacity="1" d="M 56 122 Q 61.3 120.8 60.5 124 L 63.5 124 L 65.5 123 L 68 124 L 68 128 L 73 128 L 73 129.5 L 74 132 Q 70.3 133.5 71 130.5 Q 68 127 61.5 127 L 56 128 L 55.5 131 Q 52.2 129 53 124 Q 57.1 125.3 56 122 Z " /><path fill="rgb(220,74,56)" stroke="rgb(220,74,56)" stroke-width="1" opacity="1" d="M 112 125 L 116 126.5 L 116.5 128 L 118.5 128 L 124 130 L 124 132 L 128 132 L 128 133.5 Q 124.8 135 126 140 L 124 140 Q 125.5 143.7 122.5 143 L 120 144 L 121 136 Q 125.9 137.6 124 132 Q 119.8 133 120.5 130 L 116.5 130 L 112.5 129 L 108.5 131 L 108 128 Q 113.6 129.9 112 125 Z " /><path fill="rgb(220,74,56)" stroke="rgb(220,74,56)" stroke-width="1" opacity="1" d="M 103.5 131 L 106 132.5 L 104.5 135 L 103.5 131 Z " /><path fill="rgb(220,74,56)" stroke="rgb(220,74,56)" stroke-width="1" opacity="1" d="M 56 132 Q 58.7 130.9 58 133.5 Q 59.3 139.3 63.5 142 L 68 143.5 L 63.5 144 L 56 139.5 L 55 135.5 L 56 132 Z " /><path fill="rgb(220,74,56)" stroke="rgb(220,74,56)" stroke-width="1" opacity="1" d="M 73 136 Q 76 134.8 75 138.5 L 73 137.5 L 73 136 Z " /><path fill="rgb(220,74,56)" stroke="rgb(220,74,56)" stroke-width="1" opacity="1" d="M 101 136 L 104 136.5 L 103 138.5 L 107 143.5 L 105.5 143 L 102 140.5 L 101 136 Z " /><path fill="rgb(220,74,56)" stroke="rgb(220,74,56)" stroke-width="1" opacity="1" d="M 73.5 140 L 72.5 142 L 73.5 140 Z " /><path fill="rgb(220,74,56)" stroke="rgb(220,74,56)" stroke-width="1" opacity="1" d="M 112.5 143 L 118 144.5 L 110.5 145 L 110.5 144 L 112.5 143 Z " /><path fill="rgb(220,74,56)" stroke="rgb(220,74,56)" stroke-width="1" opacity="1" d="M 90.5 146 Q 95.3 144.7 94 148 Q 90.9 147.3 91.5 150 L 84.5 150 L 83.5 148 Q 88.8 148.8 90.5 146 Z " /><path fill="rgb(220,74,56)" stroke="rgb(220,74,56)" stroke-width="1" opacity="1" d="M 132 176 L 136 177 Q 137.7 181.1 133.5 180 L 132 176 Z " /><path fill="rgb(220,74,56)" stroke="rgb(220,74,56)" stroke-width="1" opacity="1" d="M 137.5 182 L 138.5 184 L 137.5 182 Z " /><path fill="rgb(220,74,56)" stroke="rgb(220,74,56)" stroke-width="1" opacity="1" d="M 46.5 188 L 44.5 191 L 46.5 188 Z " /><path fill="rgb(220,74,56)" stroke="rgb(220,74,56)" stroke-width="1" opacity="1" d="M 148.5 192 L 154.5 195 L 157.5 195 L 160 197.5 L 160 200 L 152 200 L 152 197.5 L 148.5 192 Z " /><path fill="rgb(220,74,56)" stroke="rgb(220,74,56)" stroke-width="1" opacity="1" d="M 36 196 L 41 196 L 41 197.5 L 40 200 L 35 200 L 35 198.5 L 36 196 Z " /><path fill="rgb(203,119,81)" stroke="rgb(203,119,81)" stroke-width="1" opacity="1" d="M 86.5 54 L 87.5 56 L 86.5 54 Z " /><path fill="rgb(203,119,81)" stroke="rgb(203,119,81)" stroke-width="1" opacity="1" d="M 79.5 57 L 78.5 59 L 77 58.5 L 79.5 57 Z " /><path fill="rgb(203,119,81)" stroke="rgb(203,119,81)" stroke-width="1" opacity="1" d="M 88.5 61 L 89 63 L 91 63.5 L 89.5 64 L 88.5 61 Z " /><path fill="rgb(203,119,81)" stroke="rgb(203,119,81)" stroke-width="1" opacity="1" d="M 56.5 65 L 55.5 67 L 56.5 65 Z " /><path fill="rgb(203,119,81)" stroke="rgb(203,119,81)" stroke-width="1" opacity="1" d="M 53.5 67 L 52.5 69 L 53.5 67 Z " /><path fill="rgb(203,119,81)" stroke="rgb(203,119,81)" stroke-width="1" opacity="1" d="M 47.5 73 L 46.5 75 L 47.5 73 Z " /><path fill="rgb(203,119,81)" stroke="rgb(203,119,81)" stroke-width="1" opacity="1" d="M 40.5 97 L 39.5 99 L 40.5 97 Z " /><path fill="rgb(203,119,81)" stroke="rgb(203,119,81)" stroke-width="1" opacity="1" d="M 139.5 107 L 142 107.5 L 139.5 108 L 139.5 107 Z " /><path fill="rgb(203,119,81)" stroke="rgb(203,119,81)" stroke-width="1" opacity="1" d="M 149.5 107 L 150.5 109 L 149.5 107 Z " /><path fill="rgb(203,119,81)" stroke="rgb(203,119,81)" stroke-width="1" opacity="1" d="M 92.5 108 L 93.5 110 L 92.5 108 Z " /><path fill="rgb(203,119,81)" stroke="rgb(203,119,81)" stroke-width="1" opacity="1" d="M 35.5 109 L 36 112.5 L 35 112.5 L 35.5 109 Z " /><path fill="rgb(203,119,81)" stroke="rgb(203,119,81)" stroke-width="1" opacity="1" d="M 71.5 109 L 70.5 111 L 71.5 109 Z " /><path fill="rgb(203,119,81)" stroke="rgb(203,119,81)" stroke-width="1" opacity="1" d="M 58.5 114 L 57.5 116 L 58.5 114 Z " /><path fill="rgb(203,119,81)" stroke="rgb(203,119,81)" stroke-width="1" opacity="1" d="M 106.5 116 L 114 123.5 L 112.5 125 L 113 123.5 L 106.5 116 Z " /><path fill="rgb(203,119,81)" stroke="rgb(203,119,81)" stroke-width="1" opacity="1" d="M 54.5 122 L 53 124.5 L 52.5 128 L 52 124.5 L 54.5 122 Z " /><path fill="rgb(203,119,81)" stroke="rgb(203,119,81)" stroke-width="1" opacity="1" d="M 41.5 124 L 42.5 126 L 41.5 124 Z " /><path fill="rgb(203,119,81)" stroke="rgb(203,119,81)" stroke-width="1" opacity="1" d="M 72.5 127 L 73.5 129 L 72.5 127 Z " /><path fill="rgb(203,119,81)" stroke="rgb(203,119,81)" stroke-width="1" opacity="1" d="M 106.5 127 L 102.5 132 L 106.5 127 Z " /><path fill="rgb(203,119,81)" stroke="rgb(203,119,81)" stroke-width="1" opacity="1" d="M 68.5 129 L 70.5 132 L 68.5 129 Z " /><path fill="rgb(203,119,81)" stroke="rgb(203,119,81)" stroke-width="1" opacity="1" d="M 133.5 132 L 143 132.5 L 133.5 133 L 133.5 132 Z " /><path fill="rgb(203,119,81)" stroke="rgb(203,119,81)" stroke-width="1" opacity="1" d="M 127.5 134 L 127 135.5 L 126.5 137 L 126 135.5 L 127.5 134 Z " /><path fill="rgb(203,119,81)" stroke="rgb(203,119,81)" stroke-width="1" opacity="1" d="M 60.5 138 L 62.5 141 L 60.5 138 Z " /><path fill="rgb(203,119,81)" stroke="rgb(203,119,81)" stroke-width="1" opacity="1" d="M 55.5 139 L 57.5 142 L 55.5 139 Z " /><path fill="rgb(203,119,81)" stroke="rgb(203,119,81)" stroke-width="1" opacity="1" d="M 119.5 139 L 117.5 142 L 119.5 139 Z " /><path fill="rgb(203,119,81)" stroke="rgb(203,119,81)" stroke-width="1" opacity="1" d="M 148.5 140 L 147.5 142 L 148.5 140 Z " /><path fill="rgb(203,119,81)" stroke="rgb(203,119,81)" stroke-width="1" opacity="1" d="M 65.5 144 L 68 144.5 L 65.5 145 L 65.5 144 Z " /><path fill="rgb(203,119,81)" stroke="rgb(203,119,81)" stroke-width="1" opacity="1" d="M 134.5 144 L 138 144.5 L 134.5 145 L 134.5 144 Z " /><path fill="rgb(203,119,81)" stroke="rgb(203,119,81)" stroke-width="1" opacity="1" d="M 110.5 145 L 117 145.5 L 110.5 146 L 110.5 145 Z " /><path fill="rgb(203,119,81)" stroke="rgb(203,119,81)" stroke-width="1" opacity="1" d="M 94.5 148 L 93.5 150 L 94.5 148 Z " /><path fill="rgb(203,119,81)" stroke="rgb(203,119,81)" stroke-width="1" opacity="1" d="M 62.5 153 L 65 153.5 L 62.5 154 L 62.5 153 Z " /><path fill="rgb(203,119,81)" stroke="rgb(203,119,81)" stroke-width="1" opacity="1" d="M 105.5 153 L 109 153.5 L 105.5 154 L 105.5 153 Z " /><path fill="rgb(203,119,81)" stroke="rgb(203,119,81)" stroke-width="1" opacity="1" d="M 68.5 154 L 73 154.5 L 68.5 155 L 68.5 154 Z " /><path fill="rgb(203,119,81)" stroke="rgb(203,119,81)" stroke-width="1" opacity="1" d="M 96.5 154 L 101 154.5 L 96.5 155 L 96.5 154 Z " /><path fill="rgb(203,119,81)" stroke="rgb(203,119,81)" stroke-width="1" opacity="1" d="M 82.5 155 L 90 155.5 L 82.5 156 L 82.5 155 Z " /><path fill="rgb(203,119,81)" stroke="rgb(203,119,81)" stroke-width="1" opacity="1" d="M 90 162 L 99 162.5 L 95.5 167 L 90 163.5 L 90 162 Z " /><path fill="rgb(203,119,81)" stroke="rgb(203,119,81)" stroke-width="1" opacity="1" d="M 87.5 165 L 88.5 167 L 87.5 165 Z " /><path fill="rgb(203,119,81)" stroke="rgb(203,119,81)" stroke-width="1" opacity="1" d="M 94.5 168 L 95.5 170 Q 94 167.5 92.5 171 L 90 169.5 L 91.5 170 L 94.5 168 Z " /><path fill="rgb(203,119,81)" stroke="rgb(203,119,81)" stroke-width="1" opacity="1" d="M 56.5 177 L 55.5 179 L 56.5 177 Z " /><path fill="rgb(203,119,81)" stroke="rgb(203,119,81)" stroke-width="1" opacity="1" d="M 51.5 180 L 50.5 182 L 51.5 180 Z " /><path fill="rgb(203,119,81)" stroke="rgb(203,119,81)" stroke-width="1" opacity="1" d="M 65.5 182 L 68 182.5 L 65.5 183 L 65.5 182 Z " /><path fill="rgb(203,119,81)" stroke="rgb(203,119,81)" stroke-width="1" opacity="1" d="M 63.5 183 L 61.5 186 L 63.5 183 Z " /><path fill="rgb(203,119,81)" stroke="rgb(203,119,81)" stroke-width="1" opacity="1" d="M 67.5 189 Q 73 188 74 191.5 L 71.5 190 L 67.5 190 Q 65 194.5 60 195 L 59.5 197 L 59 195.5 L 67.5 189 Z " /><path fill="rgb(203,119,81)" stroke="rgb(203,119,81)" stroke-width="1" opacity="1" d="M 125.5 190 L 129 200 L 122 200 L 122 195.5 L 121 192 L 125.5 190 Z " /><path fill="rgb(241,217,189)" stroke="rgb(241,217,189)" stroke-width="1" opacity="1" d="M 82.5 56 Q 84.8 55.3 84 57.5 L 63.5 71 L 59.5 68 L 53 72 L 48.5 80 Q 44.1 81.5 45 78.5 L 52.5 69 Q 61 62.5 74.5 61 L 82.5 56 Z " /><path fill="rgb(241,217,189)" stroke="rgb(241,217,189)" stroke-width="1" opacity="1" d="M 37 104 L 39 104.5 L 39 114 L 36 114 L 36 107.5 L 37 104 Z " /><path fill="rgb(241,217,189)" stroke="rgb(241,217,189)" stroke-width="1" opacity="1" d="M 127.5 104 L 132.5 107 L 143.5 109 L 148.5 108 L 157 114.5 L 155.5 115 L 154.5 114 L 146.5 114 L 137.5 111 L 127.5 105 L 127.5 104 Z " /><path fill="rgb(241,217,189)" stroke="rgb(241,217,189)" stroke-width="1" opacity="1" d="M 89.5 108 L 94.5 111 L 97.5 111 L 99.5 110 L 104 113.5 L 113 123.5 Q 104.4 125.4 101 132.5 L 100 138.5 L 102 143 Q 107.1 147.2 118.5 146 Q 124.3 144.8 127 140.5 L 127 136.5 L 131.5 132 L 132.5 133 L 144.5 133 L 149 132 L 150 138.5 Q 146.8 144.3 138.5 145 L 134.5 144 Q 124.6 150.1 111.5 153 L 96.5 154 L 95.5 155 L 73.5 155 L 54.5 151 L 46 144.5 L 46 139.5 Q 50.8 135.3 52.5 128 L 55 134.5 L 54 137.5 L 57.5 142 L 64.5 145 L 68.5 145 L 75 140.5 L 76 132.5 L 68.5 123 L 62.5 121 L 57.5 121 L 52.5 124 L 51 120.5 L 54.5 116 L 57.5 116 L 62.5 111 L 65.5 111 L 69.5 112 L 73.5 109 Q 74.5 112 79.5 111 L 89.5 108 Z M 91 145 L 90 146 L 81 146 Q 80 150 84 151 Q 90 152 94 150 L 96 147 Q 95 144 91 145 Z " /><path fill="rgb(241,217,189)" stroke="rgb(241,217,189)" stroke-width="1" opacity="1" d="M 62.5 128 Q 68.4 128.6 71 132.5 L 73 139.5 Q 71 143 64.5 142 Q 58.6 139.4 59 130.5 L 62.5 128 Z " /><path fill="rgb(241,217,189)" stroke="rgb(241,217,189)" stroke-width="1" opacity="1" d="M 112.5 130 Q 119.3 128.3 121 131.5 L 120 138.5 L 116.5 142 L 107.5 143 L 105 142 Q 103.3 134 108.5 132 L 112.5 130 Z " /><path fill="rgb(241,217,189)" stroke="rgb(241,217,189)" stroke-width="1" opacity="1" d="M 82.5 163 Q 86.3 162.3 87 164.5 L 91 170.5 L 88.5 169 L 80 164.5 L 82.5 163 Z " /><path fill="rgb(241,217,189)" stroke="rgb(241,217,189)" stroke-width="1" opacity="1" d="M 91.5 165 L 95 166 L 92.5 170 L 91.5 165 Z " /><path fill="rgb(241,217,189)" stroke="rgb(241,217,189)" stroke-width="1" opacity="1" d="M 99.5 167 Q 102.1 166.3 101 169 L 96.5 170 L 97.5 168 L 99.5 167 Z " /><path fill="rgb(241,217,189)" stroke="rgb(241,217,189)" stroke-width="1" opacity="1" d="M 91 175 Q 94.3 173.7 93 178.5 Q 95.4 182.6 101 183.5 Q 95.4 184.4 93 188.5 L 92 194 Q 88.3 195.3 90 189.5 L 86.5 185 L 83 184 Q 81.7 180.7 86.5 182 L 91 177.5 L 91 175 Z " /><path fill="rgb(241,217,189)" stroke="rgb(241,217,189)" stroke-width="1" opacity="1" d="M 62 181 L 66 181.5 L 61.5 184 L 62 182.5 L 62 181 Z " /><path fill="rgb(241,217,189)" stroke="rgb(241,217,189)" stroke-width="1" opacity="1" d="M 67.5 190 Q 72 189 73 191.5 L 62.5 195 L 62.5 194 L 66 193 L 67.5 190 Z " /><path fill="rgb(191,37,37)" stroke="rgb(191,37,37)" stroke-width="1" opacity="1" d="M 155.5 39 L 155 40.5 L 151 56.5 L 143.5 65 L 136.5 67 L 128.5 67 L 123 65.5 L 135.5 64 L 145 57.5 L 155.5 39 Z " /><path fill="rgb(191,37,37)" stroke="rgb(191,37,37)" stroke-width="1" opacity="1" d="M 178.5 56 Q 187.6 65.9 185 87.5 Q 182.5 99 176 106.5 L 176.5 108 Q 173.5 107.1 175 111.5 L 186 115.5 Q 186.9 118.9 181.5 117 L 177.5 119 L 175.5 118 L 175.5 120 L 173.5 119 L 162 127.5 Q 157.6 133.1 158 143.5 L 148.5 153 L 137.5 157 L 130.5 157 L 127 155.5 L 134.5 152 L 143.5 152 Q 151.6 149.1 156 142.5 Q 158.5 139 157 131.5 L 156 129.5 L 169 118.5 L 170 113.5 L 150.5 101 L 148 102.5 Q 146.7 98.3 151.5 100 Q 164.5 96 172 86.5 L 177 76.5 L 179 59.5 L 178.5 56 Z " /><path fill="rgb(191,37,37)" stroke="rgb(191,37,37)" stroke-width="1" opacity="1" d="M 53.5 85 L 52.5 87 L 53.5 85 Z " /><path fill="rgb(191,37,37)" stroke="rgb(191,37,37)" stroke-width="1" opacity="1" d="M 66.5 93 Q 70.9 91.5 70 94.5 L 71 98.5 L 70 98.5 Q 70.8 94.8 68.5 94 Q 65.5 94.5 66.5 93 Z " /><path fill="rgb(191,37,37)" stroke="rgb(191,37,37)" stroke-width="1" opacity="1" d="M 47.5 96 L 48 106.5 L 53 116.5 L 50.5 121 L 49 119.5 L 46 107.5 L 46 98.5 L 47.5 96 Z " /><path fill="rgb(191,37,37)" stroke="rgb(191,37,37)" stroke-width="1" opacity="1" d="M 63.5 97 L 64 99.5 L 63 99.5 L 63.5 97 Z " /><path fill="rgb(191,37,37)" stroke="rgb(191,37,37)" stroke-width="1" opacity="1" d="M 83.5 98 L 87 98.5 L 83.5 99 L 83.5 98 Z " /><path fill="rgb(191,37,37)" stroke="rgb(191,37,37)" stroke-width="1" opacity="1" d="M 90.5 98 L 94 98.5 L 90.5 99 L 90.5 98 Z " /><path fill="rgb(191,37,37)" stroke="rgb(191,37,37)" stroke-width="1" opacity="1" d="M 95.5 99 L 102 102.5 L 100.5 102 L 95.5 100 L 95.5 99 Z " /><path fill="rgb(191,37,37)" stroke="rgb(191,37,37)" stroke-width="1" opacity="1" d="M 69.5 101 Q 71 103.5 76.5 102 L 78 101.5 L 74 107.5 L 74.5 109 L 72.5 108 L 69 110.5 L 71 107.5 L 69.5 101 Z " /><path fill="rgb(191,37,37)" stroke="rgb(191,37,37)" stroke-width="1" opacity="1" d="M 62.5 103 L 65 109.5 L 59.5 112 L 55 106.5 Q 60.4 106.4 62.5 103 Z " /><path fill="rgb(191,37,37)" stroke="rgb(191,37,37)" stroke-width="1" opacity="1" d="M 103.5 103 L 105.5 106 L 103.5 103 Z " /><path fill="rgb(191,37,37)" stroke="rgb(191,37,37)" stroke-width="1" opacity="1" d="M 84.5 105 L 92.5 105 L 100 109.5 L 98.5 109 L 94 110 Q 95.1 107.3 92.5 108 L 88.5 107 Q 86.3 110 81 109 L 82.5 106 L 84.5 105 Z " /><path fill="rgb(191,37,37)" stroke="rgb(191,37,37)" stroke-width="1" opacity="1" d="M 108.5 108 L 113.5 114 L 108.5 108 Z " /><path fill="rgb(191,37,37)" stroke="rgb(191,37,37)" stroke-width="1" opacity="1" d="M 151.5 108 L 152.5 110 L 151.5 108 Z " /><path fill="rgb(191,37,37)" stroke="rgb(191,37,37)" stroke-width="1" opacity="1" d="M 58.5 113 L 57.5 115 L 58.5 113 Z " /><path fill="rgb(191,37,37)" stroke="rgb(191,37,37)" stroke-width="1" opacity="1" d="M 114.5 115 L 116.5 118 L 114.5 115 Z " /><path fill="rgb(191,37,37)" stroke="rgb(191,37,37)" stroke-width="1" opacity="1" d="M 107.5 116 L 108.5 118 L 107.5 116 Z " /><path fill="rgb(191,37,37)" stroke="rgb(191,37,37)" stroke-width="1" opacity="1" d="M 119.5 119 L 120.5 121 L 119.5 119 Z " /><path fill="rgb(191,37,37)" stroke="rgb(191,37,37)" stroke-width="1" opacity="1" d="M 158.5 119 L 157.5 121 L 158.5 119 Z " /><path fill="rgb(191,37,37)" stroke="rgb(191,37,37)" stroke-width="1" opacity="1" d="M 155.5 121 L 154.5 123 L 153 122.5 L 155.5 121 Z " /><path fill="rgb(191,37,37)" stroke="rgb(191,37,37)" stroke-width="1" opacity="1" d="M 171.5 122 L 169.5 125 L 171.5 122 Z " /><path fill="rgb(191,37,37)" stroke="rgb(191,37,37)" stroke-width="1" opacity="1" d="M 146.5 124 L 149 124.5 L 146.5 125 L 146.5 124 Z " /><path fill="rgb(191,37,37)" stroke="rgb(191,37,37)" stroke-width="1" opacity="1" d="M 116.5 125 L 117.5 127 L 116.5 125 Z " /><path fill="rgb(191,37,37)" stroke="rgb(191,37,37)" stroke-width="1" opacity="1" d="M 131.5 125 L 134 125.5 L 131.5 126 L 131.5 125 Z " /><path fill="rgb(191,37,37)" stroke="rgb(191,37,37)" stroke-width="1" opacity="1" d="M 141.5 125 L 144 125.5 L 141.5 126 L 141.5 125 Z " /><path fill="rgb(191,37,37)" stroke="rgb(191,37,37)" stroke-width="1" opacity="1" d="M 125.5 130 L 132 131.5 L 128.5 132 L 125.5 131 L 125.5 130 Z " /><path fill="rgb(191,37,37)" stroke="rgb(191,37,37)" stroke-width="1" opacity="1" d="M 126.5 172 L 127.5 174 Q 128.8 171.8 130 174.5 L 127.5 175 L 126 173.5 L 126.5 172 Z " /><path fill="rgb(191,37,37)" stroke="rgb(191,37,37)" stroke-width="1" opacity="1" d="M 132.5 179 L 133.5 181 L 132.5 179 Z " /><path fill="rgb(191,37,37)" stroke="rgb(191,37,37)" stroke-width="1" opacity="1" d="M 45.5 190 L 44.5 192 L 45.5 190 Z " /><path fill="rgb(191,37,37)" stroke="rgb(191,37,37)" stroke-width="1" opacity="1" d="M 135.5 192 L 142 197.5 Q 143.3 201.7 138.5 200 L 135.5 192 Z " /><path fill="rgb(191,37,37)" stroke="rgb(191,37,37)" stroke-width="1" opacity="1" d="M 147.5 192 L 148.5 194 L 147.5 192 Z " /><path fill="rgb(191,37,37)" stroke="rgb(191,37,37)" stroke-width="1" opacity="1" d="M 149.5 195 L 150.5 197 L 149.5 195 Z " /><path fill="rgb(191,37,37)" stroke="rgb(191,37,37)" stroke-width="1" opacity="1" d="M 50.5 197 L 51 200 L 49 199.5 L 50.5 197 Z " /><path fill="rgb(121,19,16)" stroke="rgb(121,19,16)" stroke-width="1" opacity="1" d="M 165.5 33 L 168 33.5 L 165.5 34 L 165.5 33 Z " /><path fill="rgb(121,19,16)" stroke="rgb(121,19,16)" stroke-width="1" opacity="1" d="M 169.5 33 Q 171.8 33.8 171 37.5 L 170 37.5 L 169.5 33 Z " /><path fill="rgb(121,19,16)" stroke="rgb(121,19,16)" stroke-width="1" opacity="1" d="M 153.5 41 L 152 43.5 L 145.5 56 L 146 54.5 L 151 43.5 L 153.5 41 Z " /><path fill="rgb(121,19,16)" stroke="rgb(121,19,16)" stroke-width="1" opacity="1" d="M 170.5 48 L 174.5 53 L 170.5 48 Z " /><path fill="rgb(121,19,16)" stroke="rgb(121,19,16)" stroke-width="1" opacity="1" d="M 85.5 53 L 88 54.5 L 86.5 54 L 85.5 53 Z " /><path fill="rgb(121,19,16)" stroke="rgb(121,19,16)" stroke-width="1" opacity="1" d="M 176.5 53 L 180.5 58 L 176.5 53 Z " /><path fill="rgb(121,19,16)" stroke="rgb(121,19,16)" stroke-width="1" opacity="1" d="M 81.5 55 L 80.5 57 L 81.5 55 Z " /><path fill="rgb(121,19,16)" stroke="rgb(121,19,16)" stroke-width="1" opacity="1" d="M 144.5 57 L 141.5 61 L 144.5 57 Z " /><path fill="rgb(121,19,16)" stroke="rgb(121,19,16)" stroke-width="1" opacity="1" d="M 107.5 60 L 111 60.5 L 107.5 61 L 107.5 60 Z " /><path fill="rgb(121,19,16)" stroke="rgb(121,19,16)" stroke-width="1" opacity="1" d="M 133.5 63 L 136 63.5 L 133.5 64 L 133.5 63 Z " /><path fill="rgb(121,19,16)" stroke="rgb(121,19,16)" stroke-width="1" opacity="1" d="M 183.5 63 L 184 65.5 L 183 65.5 L 183.5 63 Z " /><path fill="rgb(121,19,16)" stroke="rgb(121,19,16)" stroke-width="1" opacity="1" d="M 122.5 64 L 130 64.5 L 122.5 65 L 122.5 64 Z " /><path fill="rgb(121,19,16)" stroke="rgb(121,19,16)" stroke-width="1" opacity="1" d="M 55.5 65 L 54.5 67 L 55.5 65 Z " /><path fill="rgb(121,19,16)" stroke="rgb(121,19,16)" stroke-width="1" opacity="1" d="M 52.5 67 L 51.5 69 L 52.5 67 Z " /><path fill="rgb(121,19,16)" stroke="rgb(121,19,16)" stroke-width="1" opacity="1" d="M 184.5 67 L 185 69.5 L 184 69.5 L 184.5 67 Z " /><path fill="rgb(121,19,16)" stroke="rgb(121,19,16)" stroke-width="1" opacity="1" d="M 47.5 72 L 46.5 74 L 47.5 72 Z " /><path fill="rgb(121,19,16)" stroke="rgb(121,19,16)" stroke-width="1" opacity="1" d="M 185.5 72 L 186 85.5 L 185 85.5 L 185.5 72 Z " /><path fill="rgb(121,19,16)" stroke="rgb(121,19,16)" stroke-width="1" opacity="1" d="M 54.5 85 L 58 86.5 L 58 89.5 L 54 96.5 L 54 104.5 L 59 112.5 Q 58.3 115.8 53.5 115 Q 45.8 110.2 48 95.5 Q 49.5 88.6 54.5 85 Z " /><path fill="rgb(121,19,16)" stroke="rgb(121,19,16)" stroke-width="1" opacity="1" d="M 184.5 88 L 185 90.5 L 184 90.5 L 184.5 88 Z " /><path fill="rgb(121,19,16)" stroke="rgb(121,19,16)" stroke-width="1" opacity="1" d="M 65 94 Q 68.8 93 70 95.5 L 69 102.5 L 71 108.5 L 67.5 111 L 64 108.5 L 63 100.5 L 65 94 Z " /><path fill="rgb(121,19,16)" stroke="rgb(121,19,16)" stroke-width="1" opacity="1" d="M 87.5 98 L 94.5 99 L 108 107.5 L 116.5 118 L 131.5 126 L 143.5 126 L 154.5 123 L 162 118 L 158.5 113 L 149 106.5 L 148 103.5 L 151.5 101 Q 159.2 108.8 170 113.5 L 169 118.5 L 161.5 126 L 149.5 132 L 145.5 131 L 144.5 132 L 132.5 132 Q 116.9 129.1 109 118.5 L 101.5 110 L 92.5 105 L 84.5 105 L 81 107.5 Q 81.8 109.8 79.5 109 L 76.5 110 Q 72.2 108.3 75 106.5 Q 74.5 101.5 78.5 101 L 87.5 98 Z " /><path fill="rgb(121,19,16)" stroke="rgb(121,19,16)" stroke-width="1" opacity="1" d="M 184.5 110 L 185.5 112 L 184.5 110 Z " /><path fill="rgb(121,19,16)" stroke="rgb(121,19,16)" stroke-width="1" opacity="1" d="M 186.5 113 L 187 118 L 181 117.5 L 186 117 L 186.5 113 Z " /><path fill="rgb(121,19,16)" stroke="rgb(121,19,16)" stroke-width="1" opacity="1" d="M 48.5 120 L 51 121.5 L 49.5 121 L 48.5 120 Z " /><path fill="rgb(121,19,16)" stroke="rgb(121,19,16)" stroke-width="1" opacity="1" d="M 174.5 120 L 166.5 129 L 174.5 120 Z " /><path fill="rgb(121,19,16)" stroke="rgb(121,19,16)" stroke-width="1" opacity="1" d="M 39.5 123 L 43.5 128 L 39.5 123 Z " /><path fill="rgb(121,19,16)" stroke="rgb(121,19,16)" stroke-width="1" opacity="1" d="M 45.5 123 L 46 127.5 L 45 127.5 L 45.5 123 Z " /><path fill="rgb(121,19,16)" stroke="rgb(121,19,16)" stroke-width="1" opacity="1" d="M 156.5 131 L 157 135.5 L 156 135.5 L 156.5 131 Z " /><path fill="rgb(121,19,16)" stroke="rgb(121,19,16)" stroke-width="1" opacity="1" d="M 164.5 132 L 163.5 134 L 164.5 132 Z " /><path fill="rgb(121,19,16)" stroke="rgb(121,19,16)" stroke-width="1" opacity="1" d="M 150.5 134 L 151 137.5 L 150 137.5 L 150.5 134 Z " /><path fill="rgb(121,19,16)" stroke="rgb(121,19,16)" stroke-width="1" opacity="1" d="M 156.5 138 L 157 140.5 L 156 140.5 L 156.5 138 Z " /><path fill="rgb(121,19,16)" stroke="rgb(121,19,16)" stroke-width="1" opacity="1" d="M 159.5 141 L 158.5 143 L 159.5 141 Z " /><path fill="rgb(121,19,16)" stroke="rgb(121,19,16)" stroke-width="1" opacity="1" d="M 155.5 142 L 154.5 144 L 155.5 142 Z " /><path fill="rgb(121,19,16)" stroke="rgb(121,19,16)" stroke-width="1" opacity="1" d="M 157.5 144 L 149.5 153 L 157.5 144 Z " /><path fill="rgb(121,19,16)" stroke="rgb(121,19,16)" stroke-width="1" opacity="1" d="M 150.5 147 L 149.5 149 L 150.5 147 Z " /><path fill="rgb(121,19,16)" stroke="rgb(121,19,16)" stroke-width="1" opacity="1" d="M 134.5 151 L 144 151.5 L 134.5 152 L 130.5 154 L 130.5 153 L 134.5 151 Z " /><path fill="rgb(121,19,16)" stroke="rgb(121,19,16)" stroke-width="1" opacity="1" d="M 74.5 155 L 77 155.5 L 74.5 156 L 74.5 155 Z " /><path fill="rgb(121,19,16)" stroke="rgb(121,19,16)" stroke-width="1" opacity="1" d="M 126.5 155 L 130 156.5 L 126 157 L 126.5 155 Z " /><path fill="rgb(121,19,16)" stroke="rgb(121,19,16)" stroke-width="1" opacity="1" d="M 138.5 156 L 141 156.5 L 138.5 157 L 138.5 156 Z " /><path fill="rgb(121,19,16)" stroke="rgb(121,19,16)" stroke-width="1" opacity="1" d="M 132.5 157 L 136 157.5 L 132.5 158 L 132.5 157 Z " /><path fill="rgb(121,19,16)" stroke="rgb(121,19,16)" stroke-width="1" opacity="1" d="M 92.5 161 L 96 161.5 L 92.5 162 L 92.5 161 Z " /><path fill="rgb(121,19,16)" stroke="rgb(121,19,16)" stroke-width="1" opacity="1" d="M 100.5 161 L 105 161.5 L 94.5 170 L 96 167.5 L 100.5 161 Z " /><path fill="rgb(121,19,16)" stroke="rgb(121,19,16)" stroke-width="1" opacity="1" d="M 86.5 162 Q 92.2 160.2 90 166.5 L 90.5 168 Q 86.4 165.7 86.5 162 Z " /><path fill="rgb(121,19,16)" stroke="rgb(121,19,16)" stroke-width="1" opacity="1" d="M 124 170 L 128 172.5 L 126 172.5 L 133.5 181 L 147 191.5 L 151 197.5 L 151 200 L 142.5 200 L 142 197.5 L 135.5 192 L 136 193.5 L 138 199.5 L 136 198.5 L 131 183.5 L 124 170 Z " /><path fill="rgb(121,19,16)" stroke="rgb(121,19,16)" stroke-width="1" opacity="1" d="M 129.5 173 L 132 174.5 L 130.5 175 L 129.5 173 Z " /><path fill="rgb(121,19,16)" stroke="rgb(121,19,16)" stroke-width="1" opacity="1" d="M 56.5 176 L 58 177.5 L 54 181.5 L 55 190.5 Q 51.5 193.5 51.5 200 L 50.5 197 L 48.5 200 L 41.5 200 L 41 197.5 Q 47.3 185.8 57 177.5 L 56.5 176 Z " /><path fill="rgb(121,19,16)" stroke="rgb(121,19,16)" stroke-width="1" opacity="1" d="M 49.5 181 L 48.5 183 L 49.5 181 Z " /><path fill="rgb(121,19,16)" stroke="rgb(121,19,16)" stroke-width="1" opacity="1" d="M 65.5 183 L 72.5 183 L 73 185.5 L 72 189 L 67.5 189 Q 65 193.4 60 194 L 60.5 186 L 62 186.5 L 63.5 184 L 65.5 183 Z " /><path fill="rgb(121,19,16)" stroke="rgb(121,19,16)" stroke-width="1" opacity="1" d="M 45.5 184 L 44.5 186 L 45.5 184 Z " /><path fill="rgb(121,19,16)" stroke="rgb(121,19,16)" stroke-width="1" opacity="1" d="M 152.5 186 L 153.5 188 L 152.5 186 Z " /><path fill="rgb(121,19,16)" stroke="rgb(121,19,16)" stroke-width="1" opacity="1" d="M 41.5 188 L 39.5 191 L 41.5 188 Z " /><path fill="rgb(121,19,16)" stroke="rgb(121,19,16)" stroke-width="1" opacity="1" d="M 156.5 189 L 159.5 193 L 156.5 189 Z " /><path fill="rgb(121,19,16)" stroke="rgb(121,19,16)" stroke-width="1" opacity="1" d="M 74.5 192 L 75 195.5 L 74 195.5 L 74.5 192 Z " /><path fill="rgb(121,19,16)" stroke="rgb(121,19,16)" stroke-width="1" opacity="1" d="M 37.5 193 L 36.5 195 L 37.5 193 Z " /><path fill="rgb(121,19,16)" stroke="rgb(121,19,16)" stroke-width="1" opacity="1" d="M 128.5 195 L 130 198.5 L 129 198.5 L 128.5 195 Z " /><path fill="rgb(121,19,16)" stroke="rgb(121,19,16)" stroke-width="1" opacity="1" d="M 164.5 197 L 166.5 200 L 164.5 197 Z " /><path fill="rgb(121,19,16)" stroke="rgb(121,19,16)" stroke-width="1" opacity="1" d="M 34.5 198 L 33.5 200 L 34.5 198 Z " /><path fill="rgb(121,19,16)" stroke="rgb(121,19,16)" stroke-width="1" opacity="1" d="M 72.5 198 L 71.5 200 L 72.5 198 Z " /><path fill="rgb(1,0,0)" stroke="rgb(1,0,0)" stroke-width="1" opacity="0.996078431372549" d="M 166.5 27 Q 174.1 25.9 176 30.5 L 177 37.5 L 175 43.5 L 178.5 48 L 186 54.5 L 188 57.5 L 192 72.5 L 192 85.5 L 189 97.5 L 185 103.5 L 191 108.5 Q 194.2 111.8 193 119.5 L 189.5 124 L 180.5 124 L 172 131.5 L 163 147.5 L 155.5 156 Q 149.7 161.2 140.5 163 L 126.5 163 L 124.5 162 L 125.5 164 Q 153.1 176.9 174 196.5 L 176 199.5 L 167.5 200 L 152.5 186 L 124 170 Q 131.8 182.9 137 199.5 L 130 200 Q 123.4 176.8 109.5 160 L 82.5 162 L 62 179.5 L 60 183.5 L 60 194.5 L 59 200 L 52 200 L 52 195.5 Q 55.8 193.2 55 186.5 L 54 181.5 L 58 176 Q 46.9 181.2 39 190.5 L 32.5 200 L 25 199.5 L 27 195.5 L 39.5 182 L 48.5 175 L 73 161.5 L 61.5 160 L 50.5 156 L 41 148.5 L 39 141.5 L 42 133 L 34 126.5 Q 28.3 119.7 29 106.5 Q 31.2 97.2 37 91.5 Q 35.5 82 38 76.5 Q 41.6 67.1 49.5 62 L 56.5 58 L 72.5 54 L 84.5 47 L 87.5 47 L 93 51.5 L 94 56 Q 99.3 53 109.5 54 L 121.5 58 L 132.5 58 Q 138.6 56.6 141 51.5 Q 144.5 40 152.5 33 L 166.5 27 Z M 166 33 L 159 36 Q 149 43 145 57 Q 141 63 133 64 L 122 64 L 111 60 L 101 60 L 91 63 Q 88 62 89 57 L 87 53 L 76 59 L 60 63 L 53 67 Q 46 71 43 80 L 43 89 L 44 90 L 44 93 Q 38 98 35 107 L 36 119 L 44 128 L 46 128 L 46 123 L 50 121 L 52 125 Q 51 135 45 141 L 46 146 L 56 152 L 75 156 L 95 156 L 96 155 L 111 154 Q 124 151 134 145 Q 138 144 140 146 L 147 143 L 151 138 L 150 131 L 156 130 L 157 137 L 154 145 L 145 151 Q 132 149 128 155 Q 125 154 126 157 L 133 158 Q 143 158 150 153 Q 161 144 166 130 L 176 120 Q 180 117 187 118 L 186 112 Q 183 107 177 108 L 177 106 L 184 94 L 186 86 L 186 73 L 184 64 L 181 58 L 176 53 L 169 46 L 171 35 Q 170 32 166 33 Z " /><path fill="rgb(1,0,0)" stroke="rgb(1,0,0)" stroke-width="1" opacity="0.996078431372549" d="M 77.5 173 Q 81.3 172.3 82 174.5 L 82 177.5 L 79 183.5 L 79 187.5 Q 82.6 190.4 81 198.5 Q 79.3 201.8 72.5 200 L 74 197.5 L 75 192.5 L 74 190 Q 70.7 191.3 72 186.5 L 74 178.5 L 77.5 173 Z " /><path fill="rgb(1,0,0)" stroke="rgb(1,0,0)" stroke-width="1" opacity="0.996078431372549" d="M 110.5 181 L 113 182 L 117 196.5 L 117 198.5 Q 117.6 201.3 111.5 200 L 110 198.5 L 110 194.5 L 107 185.5 L 108 182 L 110.5 181 Z " /><path fill="rgb(0,0,0)" stroke="rgb(0,0,0)" stroke-width="1" opacity="0.6862745098039216" d="M 163.5 27 L 166 27.5 L 163.5 28 L 163.5 27 Z " /><path fill="rgb(0,0,0)" stroke="rgb(0,0,0)" stroke-width="1" opacity="0.6862745098039216" d="M 174.5 28 L 175.5 30 L 174.5 28 Z " /><path fill="rgb(0,0,0)" stroke="rgb(0,0,0)" stroke-width="1" opacity="0.6862745098039216" d="M 154.5 31 L 153.5 33 L 154.5 31 Z " /><path fill="rgb(0,0,0)" stroke="rgb(0,0,0)" stroke-width="1" opacity="0.6862745098039216" d="M 151.5 33 L 148.5 37 L 151.5 33 Z " /><path fill="rgb(0,0,0)" stroke="rgb(0,0,0)" stroke-width="1" opacity="0.6862745098039216" d="M 147.5 38 L 146.5 40 L 147.5 38 Z " /><path fill="rgb(0,0,0)" stroke="rgb(0,0,0)" stroke-width="1" opacity="0.6862745098039216" d="M 176.5 45 L 178.5 48 L 176.5 45 Z " /><path fill="rgb(0,0,0)" stroke="rgb(0,0,0)" stroke-width="1" opacity="0.6862745098039216" d="M 82.5 47 L 84 47.5 L 78.5 51 L 80.5 48 L 82.5 47 Z " /><path fill="rgb(0,0,0)" stroke="rgb(0,0,0)" stroke-width="1" opacity="0.6862745098039216" d="M 90.5 48 L 94 52.5 L 93 52.5 L 90.5 48 Z " /><path fill="rgb(0,0,0)" stroke="rgb(0,0,0)" stroke-width="1" opacity="0.6862745098039216" d="M 180.5 48 L 188 56.5 L 186 55.5 L 180.5 48 Z " /><path fill="rgb(0,0,0)" stroke="rgb(0,0,0)" stroke-width="1" opacity="0.6862745098039216" d="M 140.5 51 L 139.5 53 L 140.5 51 Z " /><path fill="rgb(0,0,0)" stroke="rgb(0,0,0)" stroke-width="1" opacity="0.6862745098039216" d="M 101.5 53 L 108 53.5 L 101.5 54 L 101.5 53 Z " /><path fill="rgb(0,0,0)" stroke="rgb(0,0,0)" stroke-width="1" opacity="0.6862745098039216" d="M 94.5 54 L 95.5 56 Q 92.7 56.7 94.5 54 Z " /><path fill="rgb(0,0,0)" stroke="rgb(0,0,0)" stroke-width="1" opacity="0.6862745098039216" d="M 97.5 54 L 100 54.5 L 97.5 55 L 97.5 54 Z " /><path fill="rgb(0,0,0)" stroke="rgb(0,0,0)" stroke-width="1" opacity="0.6862745098039216" d="M 110.5 54 L 113 54.5 L 110.5 55 L 110.5 54 Z " /><path fill="rgb(0,0,0)" stroke="rgb(0,0,0)" stroke-width="1" opacity="0.6862745098039216" d="M 63.5 55 L 67 55.5 L 63.5 56 L 63.5 55 Z " /><path fill="rgb(0,0,0)" stroke="rgb(0,0,0)" stroke-width="1" opacity="0.6862745098039216" d="M 136.5 55 L 135.5 57 L 134 56.5 L 136.5 55 Z " /><path fill="rgb(0,0,0)" stroke="rgb(0,0,0)" stroke-width="1" opacity="0.6862745098039216" d="M 128.5 57 L 133 57.5 L 128.5 58 L 128.5 57 Z " /><path fill="rgb(0,0,0)" stroke="rgb(0,0,0)" stroke-width="1" opacity="0.6862745098039216" d="M 51.5 60 L 50.5 62 L 51.5 60 Z " /><path fill="rgb(0,0,0)" stroke="rgb(0,0,0)" stroke-width="1" opacity="0.6862745098039216" d="M 48.5 62 L 41.5 70 L 48.5 62 Z " /><path fill="rgb(0,0,0)" stroke="rgb(0,0,0)" stroke-width="1" opacity="0.6862745098039216" d="M 190.5 64 L 191 66.5 L 190 66.5 L 190.5 64 Z " /><path fill="rgb(0,0,0)" stroke="rgb(0,0,0)" stroke-width="1" opacity="0.6862745098039216" d="M 191.5 68 L 192 71.5 L 191 71.5 L 191.5 68 Z " /><path fill="rgb(0,0,0)" stroke="rgb(0,0,0)" stroke-width="1" opacity="0.6862745098039216" d="M 192.5 75 L 193 83.5 L 192 83.5 L 192.5 75 Z " /><path fill="rgb(0,0,0)" stroke="rgb(0,0,0)" stroke-width="1" opacity="0.6862745098039216" d="M 36.5 81 L 37 87.5 L 36 87.5 L 36.5 81 Z " /><path fill="rgb(0,0,0)" stroke="rgb(0,0,0)" stroke-width="1" opacity="0.6862745098039216" d="M 191.5 86 L 192 89.5 L 191 89.5 L 191.5 86 Z " /><path fill="rgb(0,0,0)" stroke="rgb(0,0,0)" stroke-width="1" opacity="0.6862745098039216" d="M 36.5 91 L 35.5 93 L 36.5 91 Z " /><path fill="rgb(0,0,0)" stroke="rgb(0,0,0)" stroke-width="1" opacity="0.6862745098039216" d="M 190.5 91 L 191 93.5 L 190 93.5 L 190.5 91 Z " /><path fill="rgb(0,0,0)" stroke="rgb(0,0,0)" stroke-width="1" opacity="0.6862745098039216" d="M 34.5 94 L 33.5 96 L 34.5 94 Z " /><path fill="rgb(0,0,0)" stroke="rgb(0,0,0)" stroke-width="1" opacity="0.6862745098039216" d="M 186.5 102 L 186.5 105 Q 183.5 103.5 186.5 102 Z " /><path fill="rgb(0,0,0)" stroke="rgb(0,0,0)" stroke-width="1" opacity="0.6862745098039216" d="M 29.5 103 L 30 105.5 L 29 105.5 L 29.5 103 Z " /><path fill="rgb(0,0,0)" stroke="rgb(0,0,0)" stroke-width="1" opacity="0.6862745098039216" d="M 188.5 105 L 190.5 108 L 188.5 105 Z " /><path fill="rgb(0,0,0)" stroke="rgb(0,0,0)" stroke-width="1" opacity="0.6862745098039216" d="M 28.5 109 L 29 112.5 L 28 112.5 L 28.5 109 Z " /><path fill="rgb(0,0,0)" stroke="rgb(0,0,0)" stroke-width="1" opacity="0.6862745098039216" d="M 191.5 109 L 193 111.5 L 192 111.5 L 191.5 109 Z " /><path fill="rgb(0,0,0)" stroke="rgb(0,0,0)" stroke-width="1" opacity="0.6862745098039216" d="M 193.5 113 L 194 118.5 L 193 118.5 L 193.5 113 Z " /><path fill="rgb(0,0,0)" stroke="rgb(0,0,0)" stroke-width="1" opacity="0.6862745098039216" d="M 29.5 115 L 30 117.5 L 29 117.5 L 29.5 115 Z " /><path fill="rgb(0,0,0)" stroke="rgb(0,0,0)" stroke-width="1" opacity="0.6862745098039216" d="M 192.5 120 L 193 121.5 L 190 123.5 L 192.5 120 Z " /><path fill="rgb(0,0,0)" stroke="rgb(0,0,0)" stroke-width="1" opacity="0.6862745098039216" d="M 32.5 124 L 33.5 126 L 32.5 124 Z " /><path fill="rgb(0,0,0)" stroke="rgb(0,0,0)" stroke-width="1" opacity="0.6862745098039216" d="M 180.5 124 L 189 124.5 L 180.5 125 L 180.5 124 Z " /><path fill="rgb(0,0,0)" stroke="rgb(0,0,0)" stroke-width="1" opacity="0.6862745098039216" d="M 178.5 125 L 172.5 132 L 178.5 125 Z " /><path fill="rgb(0,0,0)" stroke="rgb(0,0,0)" stroke-width="1" opacity="0.6862745098039216" d="M 34.5 127 L 39.5 133 L 34.5 127 Z " /><path fill="rgb(0,0,0)" stroke="rgb(0,0,0)" stroke-width="1" opacity="0.6862745098039216" d="M 171.5 133 L 170.5 135 L 171.5 133 Z " /><path fill="rgb(0,0,0)" stroke="rgb(0,0,0)" stroke-width="1" opacity="0.6862745098039216" d="M 169.5 136 L 169 137.5 L 165.5 144 L 166 142.5 L 169.5 136 Z " /><path fill="rgb(0,0,0)" stroke="rgb(0,0,0)" stroke-width="1" opacity="0.6862745098039216" d="M 39.5 138 L 40 140.5 L 39 140.5 L 39.5 138 Z " /><path fill="rgb(0,0,0)" stroke="rgb(0,0,0)" stroke-width="1" opacity="0.6862745098039216" d="M 39.5 143 L 40 145.5 L 39 145.5 L 39.5 143 Z " /><path fill="rgb(0,0,0)" stroke="rgb(0,0,0)" stroke-width="1" opacity="0.6862745098039216" d="M 164.5 145 L 163.5 147 L 164.5 145 Z " /><path fill="rgb(0,0,0)" stroke="rgb(0,0,0)" stroke-width="1" opacity="0.6862745098039216" d="M 162.5 148 L 159.5 152 L 162.5 148 Z " /><path fill="rgb(0,0,0)" stroke="rgb(0,0,0)" stroke-width="1" opacity="0.6862745098039216" d="M 41.5 149 L 43.5 152 L 41.5 149 Z " /><path fill="rgb(0,0,0)" stroke="rgb(0,0,0)" stroke-width="1" opacity="0.6862745098039216" d="M 48.5 154 L 49.5 156 L 48.5 154 Z " /><path fill="rgb(0,0,0)" stroke="rgb(0,0,0)" stroke-width="1" opacity="0.6862745098039216" d="M 154.5 156 L 152.5 159 L 150.5 160 L 151.5 158 L 154.5 156 Z " /><path fill="rgb(0,0,0)" stroke="rgb(0,0,0)" stroke-width="1" opacity="0.6862745098039216" d="M 63.5 160 L 67 160.5 L 63.5 161 L 63.5 160 Z " /><path fill="rgb(0,0,0)" stroke="rgb(0,0,0)" stroke-width="1" opacity="0.6862745098039216" d="M 69.5 161 L 73 161.5 L 69.5 164 L 69.5 161 Z " /><path fill="rgb(0,0,0)" stroke="rgb(0,0,0)" stroke-width="1" opacity="0.6862745098039216" d="M 124.5 162 L 126.5 163 L 140 163.5 L 128.5 164 L 127.5 165 L 124.5 162 Z " /><path fill="rgb(0,0,0)" stroke="rgb(0,0,0)" stroke-width="1" opacity="0.6862745098039216" d="M 141.5 162 L 144 162.5 L 141.5 163 L 141.5 162 Z " /><path fill="rgb(0,0,0)" stroke="rgb(0,0,0)" stroke-width="1" opacity="0.6862745098039216" d="M 67.5 164 L 66.5 166 L 56.5 171 L 57.5 169 L 67.5 164 Z " /><path fill="rgb(0,0,0)" stroke="rgb(0,0,0)" stroke-width="1" opacity="0.6862745098039216" d="M 129.5 165 L 130.5 167 L 129.5 165 Z " /><path fill="rgb(0,0,0)" stroke="rgb(0,0,0)" stroke-width="1" opacity="0.6862745098039216" d="M 134.5 168 L 140 171.5 L 138.5 171 Q 134.5 170.5 134.5 168 Z " /><path fill="rgb(0,0,0)" stroke="rgb(0,0,0)" stroke-width="1" opacity="0.6862745098039216" d="M 52.5 172 L 51.5 174 L 49.5 175 L 50.5 173 L 52.5 172 Z " /><path fill="rgb(0,0,0)" stroke="rgb(0,0,0)" stroke-width="1" opacity="0.6862745098039216" d="M 143.5 173 L 144.5 175 L 143.5 173 Z " /><path fill="rgb(0,0,0)" stroke="rgb(0,0,0)" stroke-width="1" opacity="0.6862745098039216" d="M 46.5 176 L 45.5 178 L 46.5 176 Z " /><path fill="rgb(0,0,0)" stroke="rgb(0,0,0)" stroke-width="1" opacity="0.6862745098039216" d="M 148.5 176 L 149.5 178 L 148.5 176 Z " /><path fill="rgb(0,0,0)" stroke="rgb(0,0,0)" stroke-width="1" opacity="0.6862745098039216" d="M 151.5 178 L 153.5 181 L 151.5 178 Z " /><path fill="rgb(0,0,0)" stroke="rgb(0,0,0)" stroke-width="1" opacity="0.6862745098039216" d="M 42.5 179 L 40.5 182 L 42.5 179 Z " /><path fill="rgb(0,0,0)" stroke="rgb(0,0,0)" stroke-width="1" opacity="0.6862745098039216" d="M 155.5 181 L 156.5 183 L 155.5 181 Z " /><path fill="rgb(0,0,0)" stroke="rgb(0,0,0)" stroke-width="1" opacity="0.6862745098039216" d="M 158.5 183 L 160.5 186 L 158.5 183 Z " /><path fill="rgb(0,0,0)" stroke="rgb(0,0,0)" stroke-width="1" opacity="0.6862745098039216" d="M 163.5 187 L 166.5 191 L 163.5 187 Z " /><path fill="rgb(0,0,0)" stroke="rgb(0,0,0)" stroke-width="1" opacity="0.6862745098039216" d="M 33.5 188 L 29.5 193 L 33.5 188 Z " /><path fill="rgb(0,0,0)" stroke="rgb(0,0,0)" stroke-width="1" opacity="0.6862745098039216" d="M 169.5 192 L 171.5 195 L 169.5 192 Z " /><path fill="rgb(0,0,0)" stroke="rgb(0,0,0)" stroke-width="1" opacity="0.6862745098039216" d="M 25.5 198 L 24.5 200 L 25.5 198 Z " /></svg>