<svg width="200" height="200" version="1.1" xmlns="http://www.w3.org/2000/svg" desc="Created with imagetracer.js version 1.2.6" ><path fill="rgb(0,0,0)" stroke="rgb(0,0,0)" stroke-width="1" opacity="0.9803921568627451" d="M 43.5 25 L 46.5 25 L 54.5 32 L 56.5 32 L 59.5 30 L 72.5 27 L 80.5 27 L 81.5 26 L 106.5 26 L 107.5 27 L 118.5 28 L 135.5 33 L 150.5 40 L 157 45.5 L 157.5 49 Q 167.9 39.9 185.5 38 L 188 39 Q 190.1 43.9 189 53.5 L 186 66.5 L 180 79.5 Q 172.5 92 161 100.5 L 163.5 101 L 164.5 100 L 179.5 100 L 188.5 102 L 192 104.5 Q 188.1 117.6 179.5 126 L 162.5 126 L 162 127.5 Q 165.7 131.8 166 139.5 L 165 143.5 L 159.5 149 L 146 156 L 145 165.5 L 160 179.5 Q 166.5 185 167 196.5 L 166 200 L 159 199.5 Q 162.2 198.3 161 192.5 Q 157.8 184.2 151.5 179 L 141 170.5 L 139 163.5 L 141 156.5 L 137.5 152 L 132.5 152 L 121.5 156 L 114 161.5 L 111 167.5 L 110 183.5 L 111 184.5 Q 110.1 194.4 112 200 L 107 200 L 107 197.5 L 106 196.5 L 105 175.5 L 108 163 Q 105 162 106 165 L 102.5 165 L 101.5 166 L 82 166 L 81 171.5 L 69 196.5 L 69 200 L 63 199.5 L 65 196.5 L 67 187.5 L 75 173.5 L 77 166.5 L 71.5 164 L 58 163 L 57 165.5 L 60 167.5 L 60 171 Q 57.3 169.9 58 172.5 L 45 185.5 L 43 189.5 L 43 193.5 L 48 199.5 L 40.5 200 Q 36.2 197.8 37 190.5 Q 41 178 50.5 171 Q 52.8 171.8 52 169.5 Q 49.8 168.2 51 163.5 L 52.5 161 L 37.5 155 L 31 148.5 L 30 139.5 L 37 130.5 L 38 126.5 L 13 112.5 Q 15.5 100.5 23.5 94 L 45 104 L 39 94.5 L 33 76.5 L 32 71.5 L 32 50.5 L 37 33.5 L 43.5 25 Z M 80 32 L 61 36 L 49 43 Q 48 47 51 46 L 52 50 Q 51 54 54 53 L 57 65 L 57 68 L 53 76 L 53 88 L 58 99 L 75 110 L 80 110 L 86 112 L 102 110 L 110 106 L 120 98 L 121 93 L 129 79 Q 128 75 131 76 L 135 69 L 146 59 L 150 52 L 150 48 L 140 41 L 119 34 L 108 32 L 80 32 Z M 46 33 L 42 37 L 38 50 L 38 73 L 40 83 L 49 100 L 51 101 L 51 96 L 48 88 L 48 77 L 52 66 L 51 59 L 49 57 L 50 55 L 43 45 L 43 41 L 47 38 L 49 34 L 46 33 Z M 181 44 L 168 50 Q 160 48 162 53 L 159 54 L 151 61 Q 147 60 148 63 L 143 66 L 128 89 L 126 99 L 124 101 Q 123 106 126 107 L 143 104 Q 147 105 146 102 L 149 102 L 154 98 Q 157 99 156 96 L 158 96 L 172 82 Q 171 79 174 80 L 174 77 L 181 65 L 183 55 Q 185 48 182 47 Q 183 43 181 44 Z M 26 101 L 20 110 L 29 116 L 43 122 L 56 126 L 73 129 L 99 129 L 100 128 L 119 127 L 145 122 L 162 121 L 163 120 L 178 120 Q 179 114 183 112 L 184 107 L 180 106 L 155 107 L 150 109 L 137 110 L 112 115 L 89 116 L 88 117 L 79 117 Q 77 113 70 114 Q 64 108 56 105 L 54 113 L 43 110 L 26 101 Z M 119 105 L 116 108 L 117 109 L 120 108 Q 121 104 119 105 Z M 44 127 L 44 129 Q 42 136 36 141 L 36 146 L 45 152 L 63 158 L 80 161 L 108 161 L 114 155 L 115 156 L 116 154 L 118 154 L 118 152 L 129 148 L 139 146 L 144 147 L 145 150 L 157 144 Q 161 142 160 136 L 160 134 L 159 133 L 159 132 L 157 131 L 155 127 L 142 127 L 135 129 Q 133 137 127 141 Q 123 140 124 143 L 118 145 Q 107 147 104 142 Q 101 143 102 140 L 100 140 L 98 133 L 96 134 L 83 134 L 80 139 L 81 141 L 78 146 L 76 148 L 67 151 L 54 148 L 52 146 L 48 143 L 46 137 L 47 128 L 44 127 Z M 55 130 L 54 131 L 52 132 L 52 140 L 61 146 L 71 145 L 74 143 Q 78 140 77 134 L 60 132 L 55 130 Z M 117 132 L 109 138 L 111 140 L 120 139 L 123 133 L 117 132 Z " /><path fill="rgb(0,0,0)" stroke="rgb(0,0,0)" stroke-width="1" opacity="0.9803921568627451" d="M 130.5 179 Q 134.5 178.5 135 181.5 L 136 184.5 L 132 191.5 L 137.5 198 Q 140.1 197.3 139 200 L 132.5 200 L 132 198.5 L 126 193.5 Q 126.8 191.3 124.5 192 L 122 188 Q 127.3 188.7 130 185.5 L 129 180.5 L 130.5 179 Z " /><path fill="rgb(73,73,80)" stroke="rgb(73,73,80)" stroke-width="1" opacity="0.996078431372549" d="M 48.5 35 L 47.5 37 L 48.5 35 Z " /><path fill="rgb(73,73,80)" stroke="rgb(73,73,80)" stroke-width="1" opacity="0.996078431372549" d="M 42.5 40 L 41.5 42 L 42.5 40 Z " /><path fill="rgb(73,73,80)" stroke="rgb(73,73,80)" stroke-width="1" opacity="0.996078431372549" d="M 113.5 48 L 112.5 50 L 113.5 48 Z " /><path fill="rgb(73,73,80)" stroke="rgb(73,73,80)" stroke-width="1" opacity="0.996078431372549" d="M 112.5 52 L 113.5 54 L 112.5 52 Z " /><path fill="rgb(73,73,80)" stroke="rgb(73,73,80)" stroke-width="1" opacity="0.996078431372549" d="M 123.5 54 L 124.5 56 L 123.5 54 Z " /><path fill="rgb(73,73,80)" stroke="rgb(73,73,80)" stroke-width="1" opacity="0.996078431372549" d="M 127.5 58 L 128.5 60 L 127.5 58 Z " /><path fill="rgb(73,73,80)" stroke="rgb(73,73,80)" stroke-width="1" opacity="0.996078431372549" d="M 61.5 62 L 60.5 64 L 61.5 62 Z " /><path fill="rgb(73,73,80)" stroke="rgb(73,73,80)" stroke-width="1" opacity="0.996078431372549" d="M 119.5 64 L 118.5 66 L 119.5 64 Z " /><path fill="rgb(73,73,80)" stroke="rgb(73,73,80)" stroke-width="1" opacity="0.996078431372549" d="M 38.5 66 L 39 68.5 L 38 68.5 L 38.5 66 Z " /><path fill="rgb(73,73,80)" stroke="rgb(73,73,80)" stroke-width="1" opacity="0.996078431372549" d="M 140.5 71 L 139.5 73 L 140.5 71 Z " /><path fill="rgb(73,73,80)" stroke="rgb(73,73,80)" stroke-width="1" opacity="0.996078431372549" d="M 47.5 75 L 48 77.5 L 47 77.5 L 47.5 75 Z " /><path fill="rgb(73,73,80)" stroke="rgb(73,73,80)" stroke-width="1" opacity="0.996078431372549" d="M 47.5 85 L 48 87.5 L 47 87.5 L 47.5 85 Z " /><path fill="rgb(73,73,80)" stroke="rgb(73,73,80)" stroke-width="1" opacity="0.996078431372549" d="M 85.5 86 L 89 86.5 L 85.5 87 L 85.5 86 Z " /><path fill="rgb(73,73,80)" stroke="rgb(73,73,80)" stroke-width="1" opacity="0.996078431372549" d="M 157.5 94 L 156.5 96 L 157.5 94 Z " /><path fill="rgb(73,73,80)" stroke="rgb(73,73,80)" stroke-width="1" opacity="0.996078431372549" d="M 50.5 96 L 51 98.5 L 50 98.5 L 50.5 96 Z " /><path fill="rgb(73,73,80)" stroke="rgb(73,73,80)" stroke-width="1" opacity="0.996078431372549" d="M 135.5 104 L 138 104.5 L 135.5 105 L 135.5 104 Z " /><path fill="rgb(73,73,80)" stroke="rgb(73,73,80)" stroke-width="1" opacity="0.996078431372549" d="M 82.5 110 L 85 110.5 L 82.5 111 L 82.5 110 Z " /><path fill="rgb(73,73,80)" stroke="rgb(73,73,80)" stroke-width="1" opacity="0.996078431372549" d="M 89.5 110 L 92 110.5 L 89.5 111 L 89.5 110 Z " /><path fill="rgb(73,73,80)" stroke="rgb(73,73,80)" stroke-width="1" opacity="0.996078431372549" d="M 148.5 127 L 154 127.5 L 148.5 128 L 148.5 127 Z " /><path fill="rgb(73,73,80)" stroke="rgb(73,73,80)" stroke-width="1" opacity="0.996078431372549" d="M 45.5 134 L 46 136.5 L 45 136.5 L 45.5 134 Z " /><path fill="rgb(73,73,80)" stroke="rgb(73,73,80)" stroke-width="1" opacity="0.996078431372549" d="M 71.5 134 Q 75.3 133.3 76 135.5 L 75.5 138 L 75 135 Q 70.6 136 71.5 134 Z " /><path fill="rgb(73,73,80)" stroke="rgb(73,73,80)" stroke-width="1" opacity="0.996078431372549" d="M 90.5 134 L 98 134.5 L 90.5 135 L 90.5 134 Z " /><path fill="rgb(73,73,80)" stroke="rgb(73,73,80)" stroke-width="1" opacity="0.996078431372549" d="M 100.5 140 L 101.5 142 L 100.5 140 Z " /><path fill="rgb(73,73,80)" stroke="rgb(73,73,80)" stroke-width="1" opacity="0.996078431372549" d="M 79.5 144 L 77.5 147 L 79.5 144 Z " /><path fill="rgb(73,73,80)" stroke="rgb(73,73,80)" stroke-width="1" opacity="0.996078431372549" d="M 109.5 158 L 108.5 160 L 109.5 158 Z " /><path fill="rgb(73,73,80)" stroke="rgb(73,73,80)" stroke-width="1" opacity="0.996078431372549" d="M 83.5 160 L 87 160.5 L 83.5 161 L 83.5 160 Z " /><path fill="rgb(73,73,80)" stroke="rgb(73,73,80)" stroke-width="1" opacity="0.996078431372549" d="M 99.5 160 L 103 160.5 L 99.5 161 L 99.5 160 Z " /><path fill="rgb(73,73,80)" stroke="rgb(73,73,80)" stroke-width="1" opacity="0.996078431372549" d="M 105.5 168 L 106 170.5 L 105 170.5 L 105.5 168 Z " /><path fill="rgb(73,73,80)" stroke="rgb(73,73,80)" stroke-width="1" opacity="0.996078431372549" d="M 79.5 178 L 89.5 189 L 95 188 L 95.5 190 L 96 185.5 L 102 178 L 104 178.5 L 104 186.5 Q 106.3 187.8 105 192.5 L 104 192.5 L 103.5 188 L 101 189 Q 102.3 192 98.5 191 L 93 195.5 Q 93.9 198.9 88.5 197 L 81 190.5 L 78 184 L 76 183.5 L 78 182.5 L 78 180.5 L 79.5 178 Z " /><path fill="rgb(73,73,80)" stroke="rgb(73,73,80)" stroke-width="1" opacity="0.996078431372549" d="M 134.5 190 L 133.5 192 L 134.5 190 Z " /><path fill="rgb(73,73,80)" stroke="rgb(73,73,80)" stroke-width="1" opacity="0.996078431372549" d="M 139.5 194 L 144.5 200 L 139.5 194 Z " /><path fill="rgb(48,78,122)" stroke="rgb(48,78,122)" stroke-width="1" opacity="1" d="M 80.5 33 L 84 33.5 L 80.5 34 L 80.5 33 Z " /><path fill="rgb(48,78,122)" stroke="rgb(48,78,122)" stroke-width="1" opacity="1" d="M 105.5 33 L 108 33.5 L 105.5 34 L 105.5 33 Z " /><path fill="rgb(48,78,122)" stroke="rgb(48,78,122)" stroke-width="1" opacity="1" d="M 81.5 35 L 109.5 35 Q 111 37.5 116.5 36 L 118.5 35 L 118.5 37 L 121.5 36 L 124 37 L 121.5 43 Q 119.5 39 113.5 39 L 106 48 Q 98.1 43.7 84.5 44 L 71.5 47 L 67.5 50 L 68 48.5 L 65 38 L 81.5 35 Z " /><path fill="rgb(48,78,122)" stroke="rgb(48,78,122)" stroke-width="1" opacity="1" d="M 50.5 42 L 52 45.5 L 50 44.5 L 50.5 42 Z " /><path fill="rgb(48,78,122)" stroke="rgb(48,78,122)" stroke-width="1" opacity="1" d="M 65.5 50 L 64.5 52 L 65.5 50 Z " /><path fill="rgb(48,78,122)" stroke="rgb(48,78,122)" stroke-width="1" opacity="1" d="M 148.5 50 L 148 51.5 L 147 56 L 138.5 63 L 140 60.5 L 148.5 50 Z " /><path fill="rgb(48,78,122)" stroke="rgb(48,78,122)" stroke-width="1" opacity="1" d="M 62.5 52 L 61.5 54 L 62.5 52 Z " /><path fill="rgb(48,78,122)" stroke="rgb(48,78,122)" stroke-width="1" opacity="1" d="M 25.5 102 L 28 103.5 L 26.5 103 L 24.5 104 L 25.5 102 Z " /><path fill="rgb(48,78,122)" stroke="rgb(48,78,122)" stroke-width="1" opacity="1" d="M 22.5 107 L 25.5 110 L 35.5 115 L 56.5 121 Q 61.3 119.8 62.5 122 L 86.5 122 L 87.5 121 L 96.5 121 L 122.5 116 L 149.5 113 L 150.5 112 L 179.5 110 L 179.5 111 L 174.5 111 L 149.5 118 L 145.5 118 L 122.5 125 L 107.5 126 L 106.5 127 L 93.5 127 L 92.5 128 L 76.5 128 L 46.5 122 L 26.5 113 L 22 109.5 L 22.5 107 Z " /><path fill="rgb(48,78,122)" stroke="rgb(48,78,122)" stroke-width="1" opacity="1" d="M 163.5 107 L 168 107.5 L 163.5 108 L 163.5 107 Z " /><path fill="rgb(48,78,122)" stroke="rgb(48,78,122)" stroke-width="1" opacity="1" d="M 142.5 110 L 145 110.5 L 142.5 111 L 142.5 110 Z " /><path fill="rgb(48,78,122)" stroke="rgb(48,78,122)" stroke-width="1" opacity="1" d="M 62.5 116 L 65 116.5 L 62.5 117 L 62.5 116 Z " /><path fill="rgb(48,78,122)" stroke="rgb(48,78,122)" stroke-width="1" opacity="1" d="M 105.5 116 L 108 116.5 L 105.5 117 L 105.5 116 Z " /><path fill="rgb(48,78,122)" stroke="rgb(48,78,122)" stroke-width="1" opacity="1" d="M 68.5 117 L 78 117.5 L 68.5 118 L 68.5 117 Z " /><path fill="rgb(48,78,122)" stroke="rgb(48,78,122)" stroke-width="1" opacity="1" d="M 91.5 117 L 95 117.5 L 91.5 118 L 91.5 117 Z " /><path fill="rgb(48,78,122)" stroke="rgb(48,78,122)" stroke-width="1" opacity="1" d="M 133.5 153 L 136 153.5 L 122.5 168 L 119 165.5 Q 117.9 162.2 120.5 163 L 131 155.5 L 129 154.5 L 130.5 154 Q 132 156.5 133.5 153 Z " /><path fill="rgb(48,78,122)" stroke="rgb(48,78,122)" stroke-width="1" opacity="1" d="M 116.5 160 L 118 163.5 L 116 162.5 L 116.5 160 Z " /><path fill="rgb(48,78,122)" stroke="rgb(48,78,122)" stroke-width="1" opacity="1" d="M 66.5 170 L 73.5 170 L 74 172.5 L 73 175 L 66.5 171 L 66.5 170 Z " /><path fill="rgb(48,78,122)" stroke="rgb(48,78,122)" stroke-width="1" opacity="1" d="M 59.5 174 L 69 181.5 Q 63.5 189.4 62 200 Q 57.9 201.7 59 197.5 L 62 186.5 L 62 184.5 L 64 180.5 L 63 178 L 57.5 179 L 58 177.5 L 59.5 174 Z " /><path fill="rgb(48,78,122)" stroke="rgb(48,78,122)" stroke-width="1" opacity="1" d="M 112.5 174 L 124 197.5 L 124 200 L 113 200 L 113 194.5 L 112 193.5 L 112.5 174 Z " /><path fill="rgb(48,78,122)" stroke="rgb(48,78,122)" stroke-width="1" opacity="1" d="M 56.5 175 L 55.5 177 L 56.5 175 Z " /><path fill="rgb(48,78,122)" stroke="rgb(48,78,122)" stroke-width="1" opacity="1" d="M 135.5 179 Q 140.5 178.5 141 182.5 L 142 187 L 137 184.5 L 135.5 179 Z " /><path fill="rgb(48,78,122)" stroke="rgb(48,78,122)" stroke-width="1" opacity="1" d="M 56.5 180 L 55.5 182 L 56.5 180 Z " /><path fill="rgb(48,78,122)" stroke="rgb(48,78,122)" stroke-width="1" opacity="1" d="M 49.5 182 L 47.5 185 L 49.5 182 Z " /><path fill="rgb(48,78,122)" stroke="rgb(48,78,122)" stroke-width="1" opacity="1" d="M 53.5 185 L 53 186.5 L 51.5 189 L 52 187.5 L 53.5 185 Z " /><path fill="rgb(48,78,122)" stroke="rgb(48,78,122)" stroke-width="1" opacity="1" d="M 157.5 190 L 160 195.5 L 158 200 Q 155.3 201.1 156 198.5 L 157.5 190 Z " /><path fill="rgb(48,78,122)" stroke="rgb(48,78,122)" stroke-width="1" opacity="1" d="M 137.5 192 L 138.5 194 L 137.5 192 Z " /><path fill="rgb(48,78,122)" stroke="rgb(48,78,122)" stroke-width="1" opacity="1" d="M 45.5 195 Q 47.3 198.1 49 196.5 L 47.5 198 L 45.5 195 Z " /><path fill="rgb(0,0,0)" stroke="rgb(0,0,0)" stroke-width="1" opacity="0.06274509803921569" d="M 43.5 24 L 46.5 24 L 54.5 31 L 56.5 31 L 58.5 30 L 58.5 31 L 54.5 32 L 46.5 25 L 43.5 25 L 38.5 31 L 39 29.5 L 43.5 24 Z " /><path fill="rgb(0,0,0)" stroke="rgb(0,0,0)" stroke-width="1" opacity="0.06274509803921569" d="M 86.5 25 L 104 25.5 L 86.5 26 L 86.5 25 Z " /><path fill="rgb(0,0,0)" stroke="rgb(0,0,0)" stroke-width="1" opacity="0.06274509803921569" d="M 73.5 26 L 81 26.5 L 73.5 27 L 73.5 26 Z " /><path fill="rgb(0,0,0)" stroke="rgb(0,0,0)" stroke-width="1" opacity="0.06274509803921569" d="M 107.5 26 L 113 26.5 L 107.5 27 L 107.5 26 Z " /><path fill="rgb(0,0,0)" stroke="rgb(0,0,0)" stroke-width="1" opacity="0.06274509803921569" d="M 67.5 27 L 72 27.5 L 60.5 30 L 60.5 29 L 67.5 27 Z " /><path fill="rgb(0,0,0)" stroke="rgb(0,0,0)" stroke-width="1" opacity="0.06274509803921569" d="M 114.5 27 L 118.5 27 L 126 29.5 L 123.5 30 Q 120.6 27.4 114.5 28 L 114.5 27 Z " /><path fill="rgb(0,0,0)" stroke="rgb(0,0,0)" stroke-width="1" opacity="0.06274509803921569" d="M 130.5 31 L 151.5 39 L 158 44 Q 156.9 46.7 159.5 46 Q 166.4 40.9 176.5 39 L 176.5 40 L 171.5 41 L 157.5 49 Q 157.6 43.4 153.5 42 Q 144 35 130.5 32 L 130.5 31 Z " /><path fill="rgb(0,0,0)" stroke="rgb(0,0,0)" stroke-width="1" opacity="0.06274509803921569" d="M 36.5 34 L 37 35.5 L 35.5 38 L 35 36.5 L 36.5 34 Z " /><path fill="rgb(0,0,0)" stroke="rgb(0,0,0)" stroke-width="1" opacity="0.06274509803921569" d="M 178.5 38 L 181 38.5 L 178.5 39 L 178.5 38 Z " /><path fill="rgb(0,0,0)" stroke="rgb(0,0,0)" stroke-width="1" opacity="0.06274509803921569" d="M 34.5 39 L 35 41.5 L 33.5 45 L 33 42.5 L 34.5 39 Z " /><path fill="rgb(0,0,0)" stroke="rgb(0,0,0)" stroke-width="1" opacity="0.06274509803921569" d="M 189.5 44 L 190 48.5 L 189 48.5 L 189.5 44 Z " /><path fill="rgb(0,0,0)" stroke="rgb(0,0,0)" stroke-width="1" opacity="0.06274509803921569" d="M 32.5 46 L 33 49.5 L 32 49.5 L 32.5 46 Z " /><path fill="rgb(0,0,0)" stroke="rgb(0,0,0)" stroke-width="1" opacity="0.06274509803921569" d="M 31.5 53 L 32 70.5 L 31 70.5 L 31.5 53 Z " /><path fill="rgb(0,0,0)" stroke="rgb(0,0,0)" stroke-width="1" opacity="0.06274509803921569" d="M 188.5 54 L 189 58.5 L 188 58.5 L 188.5 54 Z " /><path fill="rgb(0,0,0)" stroke="rgb(0,0,0)" stroke-width="1" opacity="0.06274509803921569" d="M 187.5 60 L 188 63.5 L 180.5 79 L 181 77.5 L 187.5 60 Z " /><path fill="rgb(0,0,0)" stroke="rgb(0,0,0)" stroke-width="1" opacity="0.06274509803921569" d="M 32.5 72 Q 33.8 84.7 39 93.5 L 38 93.5 L 33 81.5 L 32.5 72 Z " /><path fill="rgb(0,0,0)" stroke="rgb(0,0,0)" stroke-width="1" opacity="0.06274509803921569" d="M 179.5 80 L 180 81.5 L 176 84.5 L 179.5 80 Z " /><path fill="rgb(0,0,0)" stroke="rgb(0,0,0)" stroke-width="1" opacity="0.06274509803921569" d="M 175.5 86 L 171 91.5 L 168 95.5 L 168 98 L 164 98 Q 165.7 102.1 161.5 101 L 175.5 86 Z " /><path fill="rgb(0,0,0)" stroke="rgb(0,0,0)" stroke-width="1" opacity="0.06274509803921569" d="M 23.5 93 L 20 97.5 L 16.5 103 L 16 101.5 L 23.5 93 Z " /><path fill="rgb(0,0,0)" stroke="rgb(0,0,0)" stroke-width="1" opacity="0.06274509803921569" d="M 25.5 94 L 29 95.5 L 27.5 96 L 25.5 94 Z " /><path fill="rgb(0,0,0)" stroke="rgb(0,0,0)" stroke-width="1" opacity="0.06274509803921569" d="M 39.5 95 L 42 98.5 L 40 99 L 39.5 95 Z " /><path fill="rgb(0,0,0)" stroke="rgb(0,0,0)" stroke-width="1" opacity="0.06274509803921569" d="M 30.5 96 L 36 99.5 L 34.5 99 Q 30.5 98.5 30.5 96 Z " /><path fill="rgb(0,0,0)" stroke="rgb(0,0,0)" stroke-width="1" opacity="0.06274509803921569" d="M 172.5 99 L 176 99.5 L 172.5 100 L 172.5 99 Z " /><path fill="rgb(0,0,0)" stroke="rgb(0,0,0)" stroke-width="1" opacity="0.06274509803921569" d="M 37.5 100 L 40 101.5 L 38.5 101 L 37.5 100 Z " /><path fill="rgb(0,0,0)" stroke="rgb(0,0,0)" stroke-width="1" opacity="0.06274509803921569" d="M 42.5 100 L 45 104 L 41 102.5 L 43 101.5 L 42.5 100 Z " /><path fill="rgb(0,0,0)" stroke="rgb(0,0,0)" stroke-width="1" opacity="0.06274509803921569" d="M 180.5 100 Q 188.7 100.1 193 103 L 192 110 Q 189.3 108.9 190 111.5 L 185.5 119 L 186 117.5 L 192 104.5 Q 188.5 100.5 180.5 101 L 180.5 100 Z " /><path fill="rgb(0,0,0)" stroke="rgb(0,0,0)" stroke-width="1" opacity="0.06274509803921569" d="M 15.5 104 L 15 105.5 L 13.5 109 L 13 107.5 L 15.5 104 Z " /><path fill="rgb(0,0,0)" stroke="rgb(0,0,0)" stroke-width="1" opacity="0.06274509803921569" d="M 13.5 113 L 38 126.5 L 37 130.5 L 30 139.5 L 30 146.5 L 37.5 155 L 41 156.5 L 39.5 157 L 33 152.5 Q 27.6 149.4 29 139.5 L 37 126 L 27.5 122 L 24 122 Q 25.1 119.3 22.5 120 L 14.5 115 L 13.5 113 Z " /><path fill="rgb(0,0,0)" stroke="rgb(0,0,0)" stroke-width="1" opacity="0.06274509803921569" d="M 184.5 120 L 184 121.5 L 182 126 L 179.5 127 L 164 127 L 166 132.5 L 166 136.5 L 165 136.5 L 162 126 L 179.5 126 L 183 122.5 L 184.5 120 Z " /><path fill="rgb(0,0,0)" stroke="rgb(0,0,0)" stroke-width="1" opacity="0.06274509803921569" d="M 165.5 140 L 166 143.5 L 162.5 148 L 150.5 155 L 151.5 153 Q 160.2 150.2 165 143.5 L 165.5 140 Z " /><path fill="rgb(0,0,0)" stroke="rgb(0,0,0)" stroke-width="1" opacity="0.06274509803921569" d="M 148.5 155 L 147 157.5 L 146.5 160 L 146 156 L 148.5 155 Z " /><path fill="rgb(0,0,0)" stroke="rgb(0,0,0)" stroke-width="1" opacity="0.06274509803921569" d="M 42.5 157 L 48 159.5 L 46.5 160 L 42.5 158 L 42.5 157 Z " /><path fill="rgb(0,0,0)" stroke="rgb(0,0,0)" stroke-width="1" opacity="0.06274509803921569" d="M 49.5 160 L 53 161.5 Q 49.8 162.8 51 168.5 L 52 171 L 43 178.5 Q 38.7 182.7 37.5 190 L 37 186.5 Q 41.9 175.9 51 169.5 Q 48.8 168.2 50 163.5 L 51 161 L 49.5 160 Z " /><path fill="rgb(0,0,0)" stroke="rgb(0,0,0)" stroke-width="1" opacity="0.06274509803921569" d="M 145.5 162 L 149.5 169 L 158 175 L 166 186.5 L 168 196.5 L 166.5 200 L 166 197.5 L 167 192.5 Q 162.4 178.6 151.5 171 L 145 165.5 L 145.5 162 Z " /><path fill="rgb(0,0,0)" stroke="rgb(0,0,0)" stroke-width="1" opacity="0.06274509803921569" d="M 37.5 195 L 40 199.5 L 37 197.5 L 37.5 195 Z " /><path fill="rgb(44,37,35)" stroke="rgb(44,37,35)" stroke-width="1" opacity="0.996078431372549" d="M 86.5 32 L 90 32.5 L 86.5 33 L 86.5 32 Z " /><path fill="rgb(44,37,35)" stroke="rgb(44,37,35)" stroke-width="1" opacity="0.996078431372549" d="M 113.5 39 L 116.5 39 L 120 41 L 121.5 44 L 134 55.5 L 137 59.5 L 137 62.5 L 128 72.5 L 128.5 75 L 130 75.5 Q 125 79 123.5 86 L 123 77.5 L 118 66.5 L 123 62.5 L 124.5 65 L 129 61.5 L 127.5 58 L 125 56.5 L 123.5 54 Q 121.3 54.8 122 52.5 L 116.5 47 L 114.5 47 Q 111.3 47.8 112 52.5 L 113 54.5 L 108.5 58 Q 100.3 49.7 82.5 51 L 75.5 53 Q 67.2 55.7 62.5 62 L 60 62 L 58.5 66 L 56 60.5 L 56 58.5 L 58.5 56 L 68.5 49 L 71.5 50 L 71.5 49 L 70 48.5 L 80.5 45 L 94.5 45 L 105.5 48 L 113.5 39 Z " /><path fill="rgb(44,37,35)" stroke="rgb(44,37,35)" stroke-width="1" opacity="0.996078431372549" d="M 41.5 40 L 42.5 42 L 41.5 40 Z " /><path fill="rgb(44,37,35)" stroke="rgb(44,37,35)" stroke-width="1" opacity="0.996078431372549" d="M 95.5 62 Q 101.8 60.8 103 64.5 L 104 68.5 L 102 76.5 L 95.5 84 Q 91.3 87 84 86 Q 81.3 83.4 82 76.5 Q 84.1 69.1 89.5 65 L 95.5 62 Z M 95 68 L 88 76 L 88 80 L 93 79 L 98 72 Q 100 66 95 68 Z " /><path fill="rgb(44,37,35)" stroke="rgb(44,37,35)" stroke-width="1" opacity="0.996078431372549" d="M 146.5 64 L 142.5 69 L 146.5 64 Z " /><path fill="rgb(44,37,35)" stroke="rgb(44,37,35)" stroke-width="1" opacity="0.996078431372549" d="M 133.5 69 L 132.5 71 L 133.5 69 Z " /><path fill="rgb(44,37,35)" stroke="rgb(44,37,35)" stroke-width="1" opacity="0.996078431372549" d="M 138.5 73 L 137.5 75 L 138.5 73 Z " /><path fill="rgb(44,37,35)" stroke="rgb(44,37,35)" stroke-width="1" opacity="0.996078431372549" d="M 47.5 78 L 48 84.5 L 47 84.5 L 47.5 78 Z " /><path fill="rgb(44,37,35)" stroke="rgb(44,37,35)" stroke-width="1" opacity="0.996078431372549" d="M 53.5 78 L 54 84.5 L 53 84.5 L 53.5 78 Z " /><path fill="rgb(44,37,35)" stroke="rgb(44,37,35)" stroke-width="1" opacity="0.996078431372549" d="M 166.5 86 L 160.5 93 L 166.5 86 Z " /><path fill="rgb(44,37,35)" stroke="rgb(44,37,35)" stroke-width="1" opacity="0.996078431372549" d="M 118.5 97 L 114.5 102 L 118.5 97 Z " /><path fill="rgb(44,37,35)" stroke="rgb(44,37,35)" stroke-width="1" opacity="0.996078431372549" d="M 49.5 98 L 50.5 100 L 49.5 98 Z " /><path fill="rgb(44,37,35)" stroke="rgb(44,37,35)" stroke-width="1" opacity="0.996078431372549" d="M 59.5 98 L 63.5 103 L 59.5 98 Z " /><path fill="rgb(44,37,35)" stroke="rgb(44,37,35)" stroke-width="1" opacity="0.996078431372549" d="M 126.5 106 L 129 106.5 L 126.5 107 L 126.5 106 Z " /><path fill="rgb(44,37,35)" stroke="rgb(44,37,35)" stroke-width="1" opacity="0.996078431372549" d="M 171.5 106 L 176 106.5 L 171.5 107 L 171.5 106 Z " /><path fill="rgb(44,37,35)" stroke="rgb(44,37,35)" stroke-width="1" opacity="0.996078431372549" d="M 92.5 110 L 96 110.5 L 92.5 111 L 92.5 110 Z " /><path fill="rgb(44,37,35)" stroke="rgb(44,37,35)" stroke-width="1" opacity="0.996078431372549" d="M 97.5 116 L 100 116.5 L 97.5 117 L 97.5 116 Z " /><path fill="rgb(44,37,35)" stroke="rgb(44,37,35)" stroke-width="1" opacity="0.996078431372549" d="M 160.5 119 L 163 119.5 L 160.5 120 L 160.5 119 Z " /><path fill="rgb(44,37,35)" stroke="rgb(44,37,35)" stroke-width="1" opacity="0.996078431372549" d="M 136.5 122 L 139 122.5 L 136.5 123 L 136.5 122 Z " /><path fill="rgb(44,37,35)" stroke="rgb(44,37,35)" stroke-width="1" opacity="0.996078431372549" d="M 145.5 127 L 148 127.5 L 145.5 128 L 145.5 127 Z " /><path fill="rgb(44,37,35)" stroke="rgb(44,37,35)" stroke-width="1" opacity="0.996078431372549" d="M 83.5 134 L 90 134.5 L 83.5 135 L 83.5 134 Z " /><path fill="rgb(44,37,35)" stroke="rgb(44,37,35)" stroke-width="1" opacity="0.996078431372549" d="M 132.5 135 L 131.5 137 L 132.5 135 Z " /><path fill="rgb(44,37,35)" stroke="rgb(44,37,35)" stroke-width="1" opacity="0.996078431372549" d="M 155.5 143 L 154.5 145 L 155.5 143 Z " /><path fill="rgb(44,37,35)" stroke="rgb(44,37,35)" stroke-width="1" opacity="0.996078431372549" d="M 37.5 146 L 39.5 149 L 37.5 146 Z " /><path fill="rgb(44,37,35)" stroke="rgb(44,37,35)" stroke-width="1" opacity="0.996078431372549" d="M 136.5 154 L 139 154.5 Q 140.8 160.2 134.5 158 L 133 158.5 Q 132.2 155.9 135.5 157 L 136.5 154 Z " /><path fill="rgb(44,37,35)" stroke="rgb(44,37,35)" stroke-width="1" opacity="0.996078431372549" d="M 112.5 155 L 110.5 158 L 112.5 155 Z " /><path fill="rgb(44,37,35)" stroke="rgb(44,37,35)" stroke-width="1" opacity="0.996078431372549" d="M 114 162 Q 117 161 116 164 Q 113 165 114 162 Z " /><path fill="rgb(44,37,35)" stroke="rgb(44,37,35)" stroke-width="1" opacity="0.996078431372549" d="M 136.5 162 L 136 163.5 L 134 166.5 L 126 173.5 L 132 167.5 L 132 164 Q 135.4 164.8 136.5 162 Z " /><path fill="rgb(44,37,35)" stroke="rgb(44,37,35)" stroke-width="1" opacity="0.996078431372549" d="M 127.5 164 L 126 166.5 L 126 170 L 120 170 L 120.5 168 L 122.5 169 L 127.5 164 Z " /><path fill="rgb(44,37,35)" stroke="rgb(44,37,35)" stroke-width="1" opacity="0.996078431372549" d="M 83.5 166 L 85 166.5 L 82.5 168 L 83.5 166 Z " /><path fill="rgb(44,37,35)" stroke="rgb(44,37,35)" stroke-width="1" opacity="0.996078431372549" d="M 101.5 166 L 106 166.5 L 101.5 167 L 101.5 166 Z " /><path fill="rgb(44,37,35)" stroke="rgb(44,37,35)" stroke-width="1" opacity="0.996078431372549" d="M 115.5 170 L 117.5 173 L 115.5 170 Z " /><path fill="rgb(44,37,35)" stroke="rgb(44,37,35)" stroke-width="1" opacity="0.996078431372549" d="M 59.5 172 L 60 174 L 58 173.5 L 59.5 172 Z " /><path fill="rgb(44,37,35)" stroke="rgb(44,37,35)" stroke-width="1" opacity="0.996078431372549" d="M 67.5 173 L 68.5 175 L 67.5 173 Z " /><path fill="rgb(44,37,35)" stroke="rgb(44,37,35)" stroke-width="1" opacity="0.996078431372549" d="M 143.5 173 L 144.5 175 L 143.5 173 Z " /><path fill="rgb(44,37,35)" stroke="rgb(44,37,35)" stroke-width="1" opacity="0.996078431372549" d="M 78.5 177 L 79 178.5 L 77.5 181 L 77 179.5 L 78.5 177 Z " /><path fill="rgb(44,37,35)" stroke="rgb(44,37,35)" stroke-width="1" opacity="0.996078431372549" d="M 104.5 177 L 105 183.5 L 104 183.5 L 104.5 177 Z " /><path fill="rgb(44,37,35)" stroke="rgb(44,37,35)" stroke-width="1" opacity="0.996078431372549" d="M 70.5 178 L 71 179.5 L 69.5 182 L 69 180.5 L 70.5 178 Z " /><path fill="rgb(44,37,35)" stroke="rgb(44,37,35)" stroke-width="1" opacity="0.996078431372549" d="M 129.5 178 L 128.5 180 L 129.5 178 Z " /><path fill="rgb(44,37,35)" stroke="rgb(44,37,35)" stroke-width="1" opacity="0.996078431372549" d="M 59.5 179 L 60 182 Q 57.3 183.1 58 180.5 L 59.5 179 Z " /><path fill="rgb(44,37,35)" stroke="rgb(44,37,35)" stroke-width="1" opacity="0.996078431372549" d="M 76.5 182 L 78 182.5 L 76 183 L 75.5 185 L 75 183.5 L 76.5 182 Z " /><path fill="rgb(44,37,35)" stroke="rgb(44,37,35)" stroke-width="1" opacity="0.996078431372549" d="M 95.5 186 L 96 189.5 L 95 189.5 L 94 187.5 L 95.5 186 Z " /><path fill="rgb(44,37,35)" stroke="rgb(44,37,35)" stroke-width="1" opacity="0.996078431372549" d="M 73.5 188 L 74 189.5 L 71.5 194 L 71 192.5 L 73.5 188 Z " /><path fill="rgb(44,37,35)" stroke="rgb(44,37,35)" stroke-width="1" opacity="0.996078431372549" d="M 134.5 188 L 135 189.5 Q 131.9 191.2 133.5 193 Q 130.3 191.3 134 189.5 L 134.5 188 Z " /><path fill="rgb(44,37,35)" stroke="rgb(44,37,35)" stroke-width="1" opacity="0.996078431372549" d="M 105.5 193 L 106 197.5 L 105 197.5 L 105.5 193 Z " /><path fill="rgb(154,107,74)" stroke="rgb(154,107,74)" stroke-width="1" opacity="0.996078431372549" d="M 45.5 33 L 48 34.5 L 46.5 34 L 44.5 35 L 45.5 33 Z " /><path fill="rgb(154,107,74)" stroke="rgb(154,107,74)" stroke-width="1" opacity="0.996078431372549" d="M 181.5 45 L 182 47.5 L 181 47.5 L 181.5 45 Z " /><path fill="rgb(154,107,74)" stroke="rgb(154,107,74)" stroke-width="1" opacity="0.996078431372549" d="M 116.5 47 L 120.5 52 L 116.5 47 Z " /><path fill="rgb(154,107,74)" stroke="rgb(154,107,74)" stroke-width="1" opacity="0.996078431372549" d="M 84.5 51 L 92 51.5 L 84.5 52 L 84.5 51 Z " /><path fill="rgb(154,107,74)" stroke="rgb(154,107,74)" stroke-width="1" opacity="0.996078431372549" d="M 121.5 53 L 129 61.5 L 126 63.5 L 128 60.5 L 121.5 53 Z " /><path fill="rgb(154,107,74)" stroke="rgb(154,107,74)" stroke-width="1" opacity="0.996078431372549" d="M 181.5 53 L 182 55.5 L 181 55.5 L 181.5 53 Z " /><path fill="rgb(154,107,74)" stroke="rgb(154,107,74)" stroke-width="1" opacity="0.996078431372549" d="M 113.5 54 L 123 61.5 L 121 62 Q 122.1 64.7 119.5 64 L 118 67.5 L 118.5 69 L 110 57.5 L 113.5 54 Z " /><path fill="rgb(154,107,74)" stroke="rgb(154,107,74)" stroke-width="1" opacity="0.996078431372549" d="M 38.5 56 L 39 65.5 L 38 65.5 L 38.5 56 Z " /><path fill="rgb(154,107,74)" stroke="rgb(154,107,74)" stroke-width="1" opacity="0.996078431372549" d="M 66.5 58 L 65.5 60 L 66.5 58 Z " /><path fill="rgb(154,107,74)" stroke="rgb(154,107,74)" stroke-width="1" opacity="0.996078431372549" d="M 83.5 59 Q 96.3 57.3 102 62.5 L 100.5 62 L 92.5 63 L 85.5 69 L 87.5 65 Q 75.1 65.1 71 73.5 L 69 84.5 L 74.5 94 Q 79.5 99.5 91.5 98 Q 99.9 95.9 104 89.5 L 107 80.5 L 105 74 Q 102.3 72.9 103 75.5 L 102 75.5 L 104 65.5 L 103.5 64 L 105 64 L 105 66 Q 107.7 64.9 107 67.5 Q 114 72.5 113 85.5 Q 111.2 93.7 105.5 98 L 97.5 103 L 84.5 104 L 73.5 101 L 66 94.5 L 62 85.5 L 62 80.5 Q 64.3 67.8 73.5 62 L 83.5 59 Z " /><path fill="rgb(154,107,74)" stroke="rgb(154,107,74)" stroke-width="1" opacity="0.996078431372549" d="M 150.5 61 L 148.5 64 L 150.5 61 Z " /><path fill="rgb(154,107,74)" stroke="rgb(154,107,74)" stroke-width="1" opacity="0.996078431372549" d="M 123.5 63 L 124.5 65 L 123.5 63 Z " /><path fill="rgb(154,107,74)" stroke="rgb(154,107,74)" stroke-width="1" opacity="0.996078431372549" d="M 50.5 65 L 51 66.5 L 49.5 69 L 49 67.5 L 50.5 65 Z " /><path fill="rgb(154,107,74)" stroke="rgb(154,107,74)" stroke-width="1" opacity="0.996078431372549" d="M 97.5 68 L 98 70.5 L 97 70.5 L 97.5 68 Z " /><path fill="rgb(154,107,74)" stroke="rgb(154,107,74)" stroke-width="1" opacity="0.996078431372549" d="M 93.5 69 L 90.5 73 L 93.5 69 Z " /><path fill="rgb(154,107,74)" stroke="rgb(154,107,74)" stroke-width="1" opacity="0.996078431372549" d="M 142.5 69 L 141.5 71 L 142.5 69 Z " /><path fill="rgb(154,107,74)" stroke="rgb(154,107,74)" stroke-width="1" opacity="0.996078431372549" d="M 84.5 70 L 83.5 72 L 84.5 70 Z " /><path fill="rgb(154,107,74)" stroke="rgb(154,107,74)" stroke-width="1" opacity="0.996078431372549" d="M 119.5 70 L 121 72.5 L 120 72.5 L 119.5 70 Z " /><path fill="rgb(154,107,74)" stroke="rgb(154,107,74)" stroke-width="1" opacity="0.996078431372549" d="M 96.5 72 L 97 73.5 L 95 74.5 L 96.5 72 Z " /><path fill="rgb(154,107,74)" stroke="rgb(154,107,74)" stroke-width="1" opacity="0.996078431372549" d="M 82.5 73 L 82 74.5 Q 80.3 84.3 85.5 87 Q 94 86.8 98 83 L 100.5 79 L 99 81.5 Q 98.8 88.7 93.5 91 L 85.5 92 L 80 87.5 L 80 86 L 78 85.5 L 78 78.5 L 80 74 L 82.5 73 Z " /><path fill="rgb(154,107,74)" stroke="rgb(154,107,74)" stroke-width="1" opacity="0.996078431372549" d="M 121.5 74 L 122 76.5 L 121 76.5 L 121.5 74 Z " /><path fill="rgb(154,107,74)" stroke="rgb(154,107,74)" stroke-width="1" opacity="0.996078431372549" d="M 54.5 75 L 55 77.5 L 54 77.5 L 54.5 75 Z " /><path fill="rgb(154,107,74)" stroke="rgb(154,107,74)" stroke-width="1" opacity="0.996078431372549" d="M 94.5 76 L 93.5 78 L 94.5 76 Z " /><path fill="rgb(154,107,74)" stroke="rgb(154,107,74)" stroke-width="1" opacity="0.996078431372549" d="M 91.5 78 L 90.5 80 L 91.5 78 Z " /><path fill="rgb(154,107,74)" stroke="rgb(154,107,74)" stroke-width="1" opacity="0.996078431372549" d="M 122.5 78 L 123 86.5 L 122 86.5 L 122.5 78 Z " /><path fill="rgb(154,107,74)" stroke="rgb(154,107,74)" stroke-width="1" opacity="0.996078431372549" d="M 135.5 78 L 134.5 80 L 135.5 78 Z " /><path fill="rgb(154,107,74)" stroke="rgb(154,107,74)" stroke-width="1" opacity="0.996078431372549" d="M 171.5 79 L 170.5 81 L 171.5 79 Z " /><path fill="rgb(154,107,74)" stroke="rgb(154,107,74)" stroke-width="1" opacity="0.996078431372549" d="M 168.5 83 L 158.5 94 L 168.5 83 Z " /><path fill="rgb(154,107,74)" stroke="rgb(154,107,74)" stroke-width="1" opacity="0.996078431372549" d="M 155.5 95 L 154.5 97 L 155.5 95 Z " /><path fill="rgb(154,107,74)" stroke="rgb(154,107,74)" stroke-width="1" opacity="0.996078431372549" d="M 48.5 96 L 49.5 98 L 48.5 96 Z " /><path fill="rgb(154,107,74)" stroke="rgb(154,107,74)" stroke-width="1" opacity="0.996078431372549" d="M 58.5 96 L 59.5 98 L 58.5 96 Z " /><path fill="rgb(154,107,74)" stroke="rgb(154,107,74)" stroke-width="1" opacity="0.996078431372549" d="M 118.5 96 L 112.5 103 L 118.5 96 Z " /><path fill="rgb(154,107,74)" stroke="rgb(154,107,74)" stroke-width="1" opacity="0.996078431372549" d="M 149.5 99 L 148.5 101 L 149.5 99 Z " /><path fill="rgb(154,107,74)" stroke="rgb(154,107,74)" stroke-width="1" opacity="0.996078431372549" d="M 62.5 100 L 65.5 104 L 62.5 100 Z " /><path fill="rgb(154,107,74)" stroke="rgb(154,107,74)" stroke-width="1" opacity="0.996078431372549" d="M 138.5 103 L 142 103.5 L 138.5 104 L 138.5 103 Z " /><path fill="rgb(154,107,74)" stroke="rgb(154,107,74)" stroke-width="1" opacity="0.996078431372549" d="M 85.5 110 L 89 110.5 L 85.5 111 L 85.5 110 Z " /><path fill="rgb(154,107,74)" stroke="rgb(154,107,74)" stroke-width="1" opacity="0.996078431372549" d="M 154.5 128 L 155.5 130 L 154.5 128 Z " /><path fill="rgb(154,107,74)" stroke="rgb(154,107,74)" stroke-width="1" opacity="0.996078431372549" d="M 82.5 136 L 83 138.5 L 82 138.5 L 82.5 136 Z " /><path fill="rgb(154,107,74)" stroke="rgb(154,107,74)" stroke-width="1" opacity="0.996078431372549" d="M 132.5 136 L 128.5 141 L 132.5 136 Z " /><path fill="rgb(154,107,74)" stroke="rgb(154,107,74)" stroke-width="1" opacity="0.996078431372549" d="M 158.5 136 L 159 139.5 L 158 139.5 L 158.5 136 Z " /><path fill="rgb(154,107,74)" stroke="rgb(154,107,74)" stroke-width="1" opacity="0.996078431372549" d="M 157.5 141 L 156.5 143 L 157.5 141 Z " /><path fill="rgb(154,107,74)" stroke="rgb(154,107,74)" stroke-width="1" opacity="0.996078431372549" d="M 102.5 142 L 103.5 144 L 102.5 142 Z " /><path fill="rgb(154,107,74)" stroke="rgb(154,107,74)" stroke-width="1" opacity="0.996078431372549" d="M 48.5 144 L 49.5 146 L 48.5 144 Z " /><path fill="rgb(154,107,74)" stroke="rgb(154,107,74)" stroke-width="1" opacity="0.996078431372549" d="M 82 145 L 90.5 145 L 91 147.5 L 86.5 150 L 82 146.5 L 82 145 Z " /><path fill="rgb(154,107,74)" stroke="rgb(154,107,74)" stroke-width="1" opacity="0.996078431372549" d="M 138.5 145 L 142 145.5 L 138.5 146 L 138.5 145 Z " /><path fill="rgb(154,107,74)" stroke="rgb(154,107,74)" stroke-width="1" opacity="0.996078431372549" d="M 143.5 146 L 145.5 149 L 143.5 146 Z " /><path fill="rgb(154,107,74)" stroke="rgb(154,107,74)" stroke-width="1" opacity="0.996078431372549" d="M 76.5 147 L 75.5 149 L 76.5 147 Z " /><path fill="rgb(154,107,74)" stroke="rgb(154,107,74)" stroke-width="1" opacity="0.996078431372549" d="M 62.5 151 L 67 151.5 L 62.5 152 L 62.5 151 Z " /><path fill="rgb(154,107,74)" stroke="rgb(154,107,74)" stroke-width="1" opacity="0.996078431372549" d="M 87.5 160 L 99 160.5 L 87.5 161 L 87.5 160 Z " /><path fill="rgb(154,107,74)" stroke="rgb(154,107,74)" stroke-width="1" opacity="0.996078431372549" d="M 83.5 167 L 106 167.5 L 105 170 L 97 169 L 102 177 L 104 177.5 L 102 178 L 102 179.5 L 93.5 188 L 98 182.5 L 91.5 174 L 84 180.5 L 85 182.5 L 79 177.5 L 81.5 171 Q 83.2 173.8 85 169.5 Q 85.8 167.3 83.5 168 L 82 168.5 L 83.5 167 Z " /><path fill="rgb(154,107,74)" stroke="rgb(154,107,74)" stroke-width="1" opacity="0.996078431372549" d="M 104.5 173 L 105 175.5 L 104 175.5 L 104.5 173 Z " /><path fill="rgb(154,107,74)" stroke="rgb(154,107,74)" stroke-width="1" opacity="0.996078431372549" d="M 76.5 184 Q 78.8 183.3 78 185.5 L 82.5 192 L 88.5 197 L 93 197 L 94.5 194 L 98.5 191 L 101 191 Q 99.9 188.3 102.5 189 L 104 188.5 L 105 200 L 70 199.5 L 76.5 184 Z " /><path fill="rgb(154,107,74)" stroke="rgb(154,107,74)" stroke-width="1" opacity="0.996078431372549" d="M 85.5 184 L 89.5 189 L 85.5 184 Z " /><path fill="rgb(217,152,79)" stroke="rgb(217,152,79)" stroke-width="1" opacity="0.996078431372549" d="M 115.5 47 L 128 61.5 L 124.5 64 L 118.5 57 L 112 51.5 L 115.5 47 Z " /><path fill="rgb(217,152,79)" stroke="rgb(217,152,79)" stroke-width="1" opacity="0.996078431372549" d="M 181.5 50 L 182 52.5 L 181 52.5 L 181.5 50 Z " /><path fill="rgb(217,152,79)" stroke="rgb(217,152,79)" stroke-width="1" opacity="0.996078431372549" d="M 80.5 52 Q 106.2 50.3 116 64.5 L 121 73.5 L 122 88.5 Q 119 98.9 110.5 104 L 97.5 110 L 81.5 110 Q 67.6 107.4 60 98.5 Q 53.4 92.1 54 78.5 L 57 68.5 L 64.5 60 L 63 62.5 L 65 68 L 71.5 63 L 66 69.5 Q 62 75.5 62 85.5 Q 63.9 94.6 70.5 99 L 78.5 103 L 91.5 104 L 99.5 102 L 109 94.5 L 113 85.5 L 113 78.5 L 107 66 L 105 66 Q 106.1 63.3 103.5 64 Q 98 57 83.5 59 L 79 60 L 77 53 L 80.5 52 Z " /><path fill="rgb(217,152,79)" stroke="rgb(217,152,79)" stroke-width="1" opacity="0.996078431372549" d="M 47.5 56 L 51 64.5 L 47 73.5 L 46.5 87 L 45 83.5 L 44 66.5 Q 46.3 65.3 45 60.5 L 47.5 56 Z " /><path fill="rgb(217,152,79)" stroke="rgb(217,152,79)" stroke-width="1" opacity="0.996078431372549" d="M 82.5 65 L 86 65.5 L 82.5 66 L 82.5 65 Z " /><path fill="rgb(217,152,79)" stroke="rgb(217,152,79)" stroke-width="1" opacity="0.996078431372549" d="M 162.5 65 L 167 65.5 L 163 78.5 L 148.5 98 L 146 99.5 L 147.5 100 L 149 99.5 L 145.5 102 L 145.5 100 Q 142.5 99.2 144 103 L 138.5 103 L 135 104 L 135 100.5 L 144 83.5 L 157.5 68 L 162.5 65 Z " /><path fill="rgb(217,152,79)" stroke="rgb(217,152,79)" stroke-width="1" opacity="0.996078431372549" d="M 77.5 67 L 76.5 69 L 77.5 67 Z " /><path fill="rgb(217,152,79)" stroke="rgb(217,152,79)" stroke-width="1" opacity="0.996078431372549" d="M 96.5 68 L 97 71.5 L 92.5 78 L 88 80 Q 88.8 72.5 94.5 69 L 96.5 68 Z " /><path fill="rgb(217,152,79)" stroke="rgb(217,152,79)" stroke-width="1" opacity="0.996078431372549" d="M 72.5 72 L 71.5 74 L 72.5 72 Z " /><path fill="rgb(217,152,79)" stroke="rgb(217,152,79)" stroke-width="1" opacity="0.996078431372549" d="M 82.5 72 L 81.5 74 L 82.5 72 Z " /><path fill="rgb(217,152,79)" stroke="rgb(217,152,79)" stroke-width="1" opacity="0.996078431372549" d="M 172.5 77 L 171.5 79 L 172.5 77 Z " /><path fill="rgb(217,152,79)" stroke="rgb(217,152,79)" stroke-width="1" opacity="0.996078431372549" d="M 77.5 79 L 78 83.5 L 77 83.5 L 77.5 79 Z " /><path fill="rgb(217,152,79)" stroke="rgb(217,152,79)" stroke-width="1" opacity="0.996078431372549" d="M 69.5 80 L 70 84.5 L 69 84.5 L 69.5 80 Z " /><path fill="rgb(217,152,79)" stroke="rgb(217,152,79)" stroke-width="1" opacity="0.996078431372549" d="M 169.5 81 L 168.5 83 L 169.5 81 Z " /><path fill="rgb(217,152,79)" stroke="rgb(217,152,79)" stroke-width="1" opacity="0.996078431372549" d="M 166.5 84 L 165.5 86 L 166.5 84 Z " /><path fill="rgb(217,152,79)" stroke="rgb(217,152,79)" stroke-width="1" opacity="0.996078431372549" d="M 78.5 86 Q 80.8 85.3 80 87.5 L 85 91.5 L 83.5 92 L 79 88.5 L 78.5 86 Z " /><path fill="rgb(217,152,79)" stroke="rgb(217,152,79)" stroke-width="1" opacity="0.996078431372549" d="M 97.5 87 L 94.5 91 L 97.5 87 Z " /><path fill="rgb(217,152,79)" stroke="rgb(217,152,79)" stroke-width="1" opacity="0.996078431372549" d="M 103.5 89 L 102.5 91 L 103.5 89 Z " /><path fill="rgb(217,152,79)" stroke="rgb(217,152,79)" stroke-width="1" opacity="0.996078431372549" d="M 72.5 91 L 74.5 94 L 72.5 91 Z " /><path fill="rgb(217,152,79)" stroke="rgb(217,152,79)" stroke-width="1" opacity="0.996078431372549" d="M 86.5 92 L 90 92.5 L 86.5 93 L 86.5 92 Z " /><path fill="rgb(217,152,79)" stroke="rgb(217,152,79)" stroke-width="1" opacity="0.996078431372549" d="M 76.5 94 L 77.5 96 L 76.5 94 Z " /><path fill="rgb(217,152,79)" stroke="rgb(217,152,79)" stroke-width="1" opacity="0.996078431372549" d="M 48.5 95 Q 50.8 94.3 50 96.5 L 48.5 95 Z " /><path fill="rgb(217,152,79)" stroke="rgb(217,152,79)" stroke-width="1" opacity="0.996078431372549" d="M 82.5 97 L 85 97.5 L 82.5 98 L 82.5 97 Z " /><path fill="rgb(217,152,79)" stroke="rgb(217,152,79)" stroke-width="1" opacity="0.996078431372549" d="M 89.5 97 L 92 97.5 L 89.5 98 L 89.5 97 Z " /><path fill="rgb(217,152,79)" stroke="rgb(217,152,79)" stroke-width="1" opacity="0.996078431372549" d="M 45.5 129 L 46 131.5 L 44 130.5 L 45.5 129 Z " /><path fill="rgb(217,152,79)" stroke="rgb(217,152,79)" stroke-width="1" opacity="0.996078431372549" d="M 154.5 129 L 155.5 131 L 154.5 129 Z " /><path fill="rgb(217,152,79)" stroke="rgb(217,152,79)" stroke-width="1" opacity="0.996078431372549" d="M 117.5 133 Q 121.3 132.3 122 134.5 L 118.5 139 L 112.5 140 L 110 139 L 111.5 135 L 117.5 133 Z " /><path fill="rgb(217,152,79)" stroke="rgb(217,152,79)" stroke-width="1" opacity="0.996078431372549" d="M 83.5 135 L 90 135.5 L 83.5 136 L 83.5 135 Z " /><path fill="rgb(217,152,79)" stroke="rgb(217,152,79)" stroke-width="1" opacity="0.996078431372549" d="M 99.5 140 L 101.5 143 L 99.5 140 Z " /><path fill="rgb(217,152,79)" stroke="rgb(217,152,79)" stroke-width="1" opacity="0.996078431372549" d="M 127.5 141 L 126.5 143 L 127.5 141 Z " /><path fill="rgb(217,152,79)" stroke="rgb(217,152,79)" stroke-width="1" opacity="0.996078431372549" d="M 155.5 142 L 154.5 144 L 155.5 142 Z " /><path fill="rgb(217,152,79)" stroke="rgb(217,152,79)" stroke-width="1" opacity="0.996078431372549" d="M 152.5 144 L 151.5 146 L 152.5 144 Z " /><path fill="rgb(217,152,79)" stroke="rgb(217,152,79)" stroke-width="1" opacity="0.996078431372549" d="M 79.5 145 L 77.5 148 L 79.5 145 Z " /><path fill="rgb(217,152,79)" stroke="rgb(217,152,79)" stroke-width="1" opacity="0.996078431372549" d="M 91.5 145 L 92 147.5 L 88.5 150 L 88.5 149 L 91 147.5 L 91.5 145 Z " /><path fill="rgb(217,152,79)" stroke="rgb(217,152,79)" stroke-width="1" opacity="0.996078431372549" d="M 81.5 146 L 86 149.5 L 83.5 150 L 81.5 146 Z " /><path fill="rgb(217,152,79)" stroke="rgb(217,152,79)" stroke-width="1" opacity="0.996078431372549" d="M 114.5 146 L 117 146.5 L 114.5 147 L 114.5 146 Z " /><path fill="rgb(217,152,79)" stroke="rgb(217,152,79)" stroke-width="1" opacity="0.996078431372549" d="M 91.5 174 L 95.5 179 L 91.5 174 Z " /><path fill="rgb(233,205,188)" stroke="rgb(233,205,188)" stroke-width="1" opacity="1" d="M 45.5 34 L 48 35.5 L 43.5 39 L 43 37.5 L 45.5 34 Z " /><path fill="rgb(233,205,188)" stroke="rgb(233,205,188)" stroke-width="1" opacity="1" d="M 41.5 43 Q 46 47.3 46 55 L 48 55.5 L 45 60.5 L 44 74.5 L 45 75.5 L 45 83.5 L 49 94.5 L 47 93.5 Q 41.3 83.7 39 70.5 L 39 51.5 L 41.5 43 Z " /><path fill="rgb(233,205,188)" stroke="rgb(233,205,188)" stroke-width="1" opacity="1" d="M 180.5 45 L 182 49.5 L 178 66.5 L 168 84 L 165 85.5 L 156.5 95 L 144.5 102 L 144 100 Q 149.6 98.5 153 93.5 L 163 78.5 L 167 65.5 L 162.5 65 L 149 76.5 Q 139.3 88.8 133.5 105 L 127.5 106 Q 125.3 105.3 126 101.5 L 129 89.5 L 132 83.5 L 147.5 64 Q 161.2 51.7 180.5 45 Z " /><path fill="rgb(233,205,188)" stroke="rgb(233,205,188)" stroke-width="1" opacity="1" d="M 75.5 54 Q 77.8 53.3 77 55.5 L 79 60 L 74.5 61 L 65 68 L 63 62.5 Q 67.5 56.5 75.5 54 Z " /><path fill="rgb(233,205,188)" stroke="rgb(233,205,188)" stroke-width="1" opacity="1" d="M 86.5 65 L 87 66.5 L 79 75.5 Q 76.3 77.8 77 83.5 L 80.5 90 Q 83.5 93 89.5 93 Q 95.3 91.8 98 87.5 L 99 82.5 L 103.5 74 Q 107.3 76.3 106 83.5 L 99.5 94 Q 94.1 97.6 85.5 98 Q 75.5 96.5 71 89.5 L 70 78.5 Q 70.9 71.9 75.5 69 L 80.5 66 Q 85.3 67.3 86.5 65 Z " /><path fill="rgb(233,205,188)" stroke="rgb(233,205,188)" stroke-width="1" opacity="1" d="M 145.5 128 L 153.5 128 L 154 129.5 Q 158.9 132.1 158 140.5 L 149.5 147 L 145.5 148 Q 143.9 144.1 137.5 145 L 122.5 149 L 109 157.5 Q 109.8 160.1 106.5 159 L 105.5 160 L 81.5 160 L 55.5 155 L 39.5 148 L 37 145.5 L 37 140.5 L 41.5 135 Q 43.8 135.8 43 133.5 L 44.5 131 L 45 134.5 L 45 136.5 Q 46.2 144.3 51.5 148 Q 57.1 152.4 67.5 152 L 74.5 150 L 80 145.5 Q 83.7 142.1 83 136 L 97 135 L 101.5 143 L 106.5 146 L 116.5 147 Q 128.4 144.4 134 135.5 L 136.5 130 L 145.5 128 Z M 82 144 L 81 147 L 82 149 Q 84 151 90 150 Q 93 149 92 145 Q 85 146 82 144 Z " /><path fill="rgb(233,205,188)" stroke="rgb(233,205,188)" stroke-width="1" opacity="1" d="M 53.5 134 L 68 142 Q 69.1 144.7 66.5 144 L 64.5 145 L 59.5 144 L 54 140.5 L 53.5 134 Z " /><path fill="rgb(233,205,188)" stroke="rgb(233,205,188)" stroke-width="1" opacity="1" d="M 83.5 169 L 84 171 L 82 170.5 L 83.5 169 Z " /><path fill="rgb(233,205,188)" stroke="rgb(233,205,188)" stroke-width="1" opacity="1" d="M 98 170 L 104.5 170 L 105 171.5 L 104 176 L 101 174.5 Q 101.8 172.3 99.5 173 L 98 170 Z " /><path fill="rgb(233,205,188)" stroke="rgb(233,205,188)" stroke-width="1" opacity="1" d="M 89.5 175 L 91.5 175 L 98 181.5 L 92.5 188 L 90.5 189 Q 85.7 186.8 85 180.5 L 89.5 175 Z " /><path fill="rgb(5,8,12)" stroke="rgb(5,8,12)" stroke-width="1" opacity="1" d="M 80.5 32 L 83 32.5 L 80.5 33 L 80.5 32 Z " /><path fill="rgb(5,8,12)" stroke="rgb(5,8,12)" stroke-width="1" opacity="1" d="M 147.5 45 L 148.5 47 L 147.5 45 Z " /><path fill="rgb(5,8,12)" stroke="rgb(5,8,12)" stroke-width="1" opacity="1" d="M 139.5 71 L 138.5 73 L 139.5 71 Z " /><path fill="rgb(5,8,12)" stroke="rgb(5,8,12)" stroke-width="1" opacity="1" d="M 131.5 73 L 130.5 75 L 131.5 73 Z " /><path fill="rgb(5,8,12)" stroke="rgb(5,8,12)" stroke-width="1" opacity="1" d="M 49.5 99 L 50.5 101 L 49.5 99 Z " /><path fill="rgb(5,8,12)" stroke="rgb(5,8,12)" stroke-width="1" opacity="1" d="M 65.5 111 L 66.5 113 L 65.5 111 Z " /><path fill="rgb(5,8,12)" stroke="rgb(5,8,12)" stroke-width="1" opacity="1" d="M 71.5 114 L 74 114.5 L 71.5 115 L 71.5 114 Z " /><path fill="rgb(5,8,12)" stroke="rgb(5,8,12)" stroke-width="1" opacity="1" d="M 157.5 120 L 160 120.5 L 157.5 121 L 157.5 120 Z " /><path fill="rgb(5,8,12)" stroke="rgb(5,8,12)" stroke-width="1" opacity="1" d="M 149.5 121 L 152 121.5 L 149.5 122 L 149.5 121 Z " /><path fill="rgb(5,8,12)" stroke="rgb(5,8,12)" stroke-width="1" opacity="1" d="M 93.5 128 L 96 128.5 L 93.5 129 L 93.5 128 Z " /><path fill="rgb(5,8,12)" stroke="rgb(5,8,12)" stroke-width="1" opacity="1" d="M 76.5 134 L 77 136.5 L 76 136.5 L 76.5 134 Z " /><path fill="rgb(5,8,12)" stroke="rgb(5,8,12)" stroke-width="1" opacity="1" d="M 82.5 134 L 82 135.5 L 81.5 138 L 81 135.5 L 82.5 134 Z " /><path fill="rgb(5,8,12)" stroke="rgb(5,8,12)" stroke-width="1" opacity="1" d="M 74.5 141 L 73.5 143 L 74.5 141 Z " /><path fill="rgb(5,8,12)" stroke="rgb(5,8,12)" stroke-width="1" opacity="1" d="M 60.5 145 L 66 145.5 L 60.5 146 L 60.5 145 Z " /><path fill="rgb(5,8,12)" stroke="rgb(5,8,12)" stroke-width="1" opacity="1" d="M 138.5 153 L 140 156.5 L 139 156.5 L 138.5 153 Z " /><path fill="rgb(5,8,12)" stroke="rgb(5,8,12)" stroke-width="1" opacity="1" d="M 59.5 163 L 58.5 165 L 59.5 163 Z " /><path fill="rgb(5,8,12)" stroke="rgb(5,8,12)" stroke-width="1" opacity="1" d="M 107.5 163 L 107 164.5 Q 107.8 167.1 104.5 166 L 104.5 165 L 107.5 163 Z " /><path fill="rgb(5,8,12)" stroke="rgb(5,8,12)" stroke-width="1" opacity="1" d="M 111.5 168 L 112 170.5 L 111 170.5 L 111.5 168 Z " /><path fill="rgb(5,8,12)" stroke="rgb(5,8,12)" stroke-width="1" opacity="1" d="M 144.5 173 L 145.5 175 L 144.5 173 Z " /><path fill="rgb(5,8,12)" stroke="rgb(5,8,12)" stroke-width="1" opacity="1" d="M 152.5 180 L 153.5 182 L 152.5 180 Z " /><path fill="rgb(5,8,12)" stroke="rgb(5,8,12)" stroke-width="1" opacity="1" d="M 129.5 183 L 130 185.5 L 128 186.5 L 129.5 183 Z " /><path fill="rgb(5,8,12)" stroke="rgb(5,8,12)" stroke-width="1" opacity="1" d="M 122.5 190 L 125.5 194 L 122.5 190 Z " /><path fill="rgb(103,202,147)" stroke="rgb(103,202,147)" stroke-width="1" opacity="1" d="M 53 131 L 59.5 133 L 75 135 Q 76.3 141.4 71.5 143 L 68 144 Q 69.1 141.3 66.5 142 L 53.5 134 L 52.5 137 L 52 134.5 L 53 131 Z " /><path fill="rgb(103,202,147)" stroke="rgb(103,202,147)" stroke-width="1" opacity="1" d="M 111.5 155 L 109.5 158 L 111.5 155 Z " /><path fill="rgb(103,202,147)" stroke="rgb(103,202,147)" stroke-width="1" opacity="1" d="M 83.5 168 L 84.5 170 L 82 169.5 L 83.5 168 Z " /><path fill="rgb(103,202,147)" stroke="rgb(103,202,147)" stroke-width="1" opacity="1" d="M 97 169 L 102 169.5 L 97.5 171 L 97 169 Z " /><path fill="rgb(103,202,147)" stroke="rgb(103,202,147)" stroke-width="1" opacity="1" d="M 87.5 177 L 85 180.5 L 84.5 182 L 84 180.5 L 87.5 177 Z " /><path fill="rgb(33,50,77)" stroke="rgb(33,50,77)" stroke-width="1" opacity="0.996078431372549" d="M 90.5 32 L 102 32.5 L 90.5 33 L 90.5 32 Z " /><path fill="rgb(33,50,77)" stroke="rgb(33,50,77)" stroke-width="1" opacity="0.996078431372549" d="M 76.5 33 L 80 33.5 L 76.5 34 L 76.5 33 Z " /><path fill="rgb(33,50,77)" stroke="rgb(33,50,77)" stroke-width="1" opacity="0.996078431372549" d="M 108.5 33 L 111 33.5 L 108.5 34 L 108.5 33 Z " /><path fill="rgb(33,50,77)" stroke="rgb(33,50,77)" stroke-width="1" opacity="0.996078431372549" d="M 122.5 36 L 143.5 44 L 150 48.5 Q 150.8 50.8 148.5 50 L 148.5 52 L 147.5 51 L 142 56.5 L 140 60.5 L 146 56.5 L 132 70.5 L 129.5 75 L 128 74.5 L 128 72.5 L 137 62.5 L 137 59.5 L 122.5 44 L 120 42.5 L 123 41.5 L 124 37 L 122.5 36 Z " /><path fill="rgb(33,50,77)" stroke="rgb(33,50,77)" stroke-width="1" opacity="0.996078431372549" d="M 84.5 44 L 92 44.5 L 84.5 45 L 84.5 44 Z " /><path fill="rgb(33,50,77)" stroke="rgb(33,50,77)" stroke-width="1" opacity="0.996078431372549" d="M 108.5 44 L 106.5 47 L 108.5 44 Z " /><path fill="rgb(33,50,77)" stroke="rgb(33,50,77)" stroke-width="1" opacity="0.996078431372549" d="M 95.5 45 L 98 45.5 L 95.5 46 L 95.5 45 Z " /><path fill="rgb(33,50,77)" stroke="rgb(33,50,77)" stroke-width="1" opacity="0.996078431372549" d="M 57.5 106 L 61 108 L 62.5 111 L 75 116.5 L 65.5 117 L 54 113.5 L 56 113 L 57 108.5 Q 54.8 107.3 57.5 106 Z " /><path fill="rgb(33,50,77)" stroke="rgb(33,50,77)" stroke-width="1" opacity="0.996078431372549" d="M 160.5 107 L 163 107.5 L 160.5 108 L 160.5 107 Z " /><path fill="rgb(33,50,77)" stroke="rgb(33,50,77)" stroke-width="1" opacity="0.996078431372549" d="M 21.5 108 L 23 110.5 L 21 109.5 L 21.5 108 Z " /><path fill="rgb(33,50,77)" stroke="rgb(33,50,77)" stroke-width="1" opacity="0.996078431372549" d="M 153.5 108 L 156 108.5 L 153.5 109 L 153.5 108 Z " /><path fill="rgb(33,50,77)" stroke="rgb(33,50,77)" stroke-width="1" opacity="0.996078431372549" d="M 146.5 109 L 149 109.5 L 146.5 110 L 146.5 109 Z " /><path fill="rgb(33,50,77)" stroke="rgb(33,50,77)" stroke-width="1" opacity="0.996078431372549" d="M 182.5 109 L 181 111.5 L 176.5 119 L 160.5 119 L 159.5 120 L 132.5 123 L 132.5 122 L 174.5 111 L 179.5 111 L 182.5 109 Z " /><path fill="rgb(33,50,77)" stroke="rgb(33,50,77)" stroke-width="1" opacity="0.996078431372549" d="M 24.5 111 L 25.5 113 L 24.5 111 Z " /><path fill="rgb(33,50,77)" stroke="rgb(33,50,77)" stroke-width="1" opacity="0.996078431372549" d="M 29.5 114 L 32 115.5 L 30.5 116 L 29.5 114 Z " /><path fill="rgb(33,50,77)" stroke="rgb(33,50,77)" stroke-width="1" opacity="0.996078431372549" d="M 110.5 115 L 113 115.5 L 110.5 116 L 110.5 115 Z " /><path fill="rgb(33,50,77)" stroke="rgb(33,50,77)" stroke-width="1" opacity="0.996078431372549" d="M 100.5 116 L 105 116.5 L 100.5 117 L 100.5 116 Z " /><path fill="rgb(33,50,77)" stroke="rgb(33,50,77)" stroke-width="1" opacity="0.996078431372549" d="M 78.5 117 L 91 117.5 L 78.5 118 L 78.5 117 Z " /><path fill="rgb(33,50,77)" stroke="rgb(33,50,77)" stroke-width="1" opacity="0.996078431372549" d="M 123.5 124 L 126 124.5 L 123.5 125 L 123.5 124 Z " /><path fill="rgb(33,50,77)" stroke="rgb(33,50,77)" stroke-width="1" opacity="0.996078431372549" d="M 116.5 125 L 119 125.5 L 116.5 126 L 116.5 125 Z " /><path fill="rgb(33,50,77)" stroke="rgb(33,50,77)" stroke-width="1" opacity="0.996078431372549" d="M 64.5 126 L 68 126.5 L 64.5 127 L 64.5 126 Z " /><path fill="rgb(33,50,77)" stroke="rgb(33,50,77)" stroke-width="1" opacity="0.996078431372549" d="M 107.5 126 L 112 126.5 L 107.5 127 L 107.5 126 Z " /><path fill="rgb(33,50,77)" stroke="rgb(33,50,77)" stroke-width="1" opacity="0.996078431372549" d="M 71.5 127 L 76 127.5 L 71.5 128 L 71.5 127 Z " /><path fill="rgb(33,50,77)" stroke="rgb(33,50,77)" stroke-width="1" opacity="0.996078431372549" d="M 93.5 127 L 101 127.5 L 93.5 128 L 93.5 127 Z " /><path fill="rgb(33,50,77)" stroke="rgb(33,50,77)" stroke-width="1" opacity="0.996078431372549" d="M 136.5 153 L 135 155.5 Q 135.8 157.8 133.5 157 L 136.5 153 Z " /><path fill="rgb(33,50,77)" stroke="rgb(33,50,77)" stroke-width="1" opacity="0.996078431372549" d="M 132.5 158 L 122.5 169 L 116 163.5 L 117.5 164 Q 119.8 163.3 119 165.5 L 122.5 168 L 132.5 158 Z " /><path fill="rgb(33,50,77)" stroke="rgb(33,50,77)" stroke-width="1" opacity="0.996078431372549" d="M 138.5 161 L 139 169.5 L 144.5 175 L 156 185.5 L 159 190.5 L 157 190.5 Q 157.9 197.3 156 200 L 145.5 200 L 136.5 191 L 135 191 L 136 185 L 142 187 Q 141.9 181.4 137.5 179 L 135 179.5 L 135.5 181 Q 134.7 177.3 129.5 178 Q 127.3 178.8 128 182.5 L 129 184.5 Q 128 187 123.5 186 L 121 188.5 L 124.5 194 L 131 199.5 L 124 200 Q 119.9 185.5 112 173.5 L 112 169 L 122.5 176 Q 130 173 134 166.5 L 136 163.5 L 138.5 161 Z " /><path fill="rgb(33,50,77)" stroke="rgb(33,50,77)" stroke-width="1" opacity="0.996078431372549" d="M 59 164 L 75 166 L 74.5 171 Q 72.8 168.3 66.5 170 L 66.5 171 L 73 175.5 L 72 178 Q 69.3 176.9 70 179.5 L 67.5 181 L 60 174.5 Q 59.2 169.2 63 168.5 L 59 166 L 59 164 Z " /><path fill="rgb(33,50,77)" stroke="rgb(33,50,77)" stroke-width="1" opacity="0.996078431372549" d="M 111.5 175 L 112 187.5 L 111 187.5 L 111.5 175 Z " /><path fill="rgb(33,50,77)" stroke="rgb(33,50,77)" stroke-width="1" opacity="0.996078431372549" d="M 53.5 177 L 49.5 182 L 53.5 177 Z " /><path fill="rgb(33,50,77)" stroke="rgb(33,50,77)" stroke-width="1" opacity="0.996078431372549" d="M 58.5 178 Q 63.9 176.1 63 179.5 L 64 181.5 L 56 194.5 L 55 200 Q 49.6 201.5 48 198.5 Q 51 186 58.5 178 Z M 60 179 L 58 181 Q 57 183 60 182 L 60 179 Z " /><path fill="rgb(33,50,77)" stroke="rgb(33,50,77)" stroke-width="1" opacity="0.996078431372549" d="M 134.5 193 L 139.5 199 L 134.5 193 Z " /><path fill="rgb(33,50,77)" stroke="rgb(33,50,77)" stroke-width="1" opacity="0.996078431372549" d="M 112.5 194 L 113 196.5 L 112 196.5 L 112.5 194 Z " /><path fill="rgb(3,3,4)" stroke="rgb(3,3,4)" stroke-width="1" opacity="0.996078431372549" d="M 52.5 50 L 53 52.5 L 52 52.5 L 52.5 50 Z " /><path fill="rgb(3,3,4)" stroke="rgb(3,3,4)" stroke-width="1" opacity="0.996078431372549" d="M 162 50 L 166 50.5 L 162.5 53 L 162 50 Z " /><path fill="rgb(3,3,4)" stroke="rgb(3,3,4)" stroke-width="1" opacity="0.996078431372549" d="M 48.5 53 L 49.5 55 L 48.5 53 Z " /><path fill="rgb(3,3,4)" stroke="rgb(3,3,4)" stroke-width="1" opacity="0.996078431372549" d="M 173.5 78 L 174 80 L 172 79.5 L 173.5 78 Z " /><path fill="rgb(3,3,4)" stroke="rgb(3,3,4)" stroke-width="1" opacity="0.996078431372549" d="M 125.5 99 L 125 100.5 Q 123.7 105.2 126 106.5 L 124 105.5 Q 122.8 100.3 125.5 99 Z " /><path fill="rgb(3,3,4)" stroke="rgb(3,3,4)" stroke-width="1" opacity="0.996078431372549" d="M 62.5 108 L 64.5 111 L 62.5 108 Z " /><path fill="rgb(3,3,4)" stroke="rgb(3,3,4)" stroke-width="1" opacity="0.996078431372549" d="M 85.5 111 L 90 111.5 L 85.5 112 L 85.5 111 Z " /><path fill="rgb(3,3,4)" stroke="rgb(3,3,4)" stroke-width="1" opacity="0.996078431372549" d="M 103.5 115 L 106 115.5 L 103.5 116 L 103.5 115 Z " /><path fill="rgb(3,3,4)" stroke="rgb(3,3,4)" stroke-width="1" opacity="0.996078431372549" d="M 88.5 116 L 91 116.5 L 88.5 117 L 88.5 116 Z " /><path fill="rgb(3,3,4)" stroke="rgb(3,3,4)" stroke-width="1" opacity="0.996078431372549" d="M 72.5 128 L 75 128.5 L 72.5 129 L 72.5 128 Z " /><path fill="rgb(3,3,4)" stroke="rgb(3,3,4)" stroke-width="1" opacity="0.996078431372549" d="M 96.5 128 L 99 128.5 L 96.5 129 L 96.5 128 Z " /><path fill="rgb(3,3,4)" stroke="rgb(3,3,4)" stroke-width="1" opacity="0.996078431372549" d="M 49.5 143 L 51.5 146 L 49.5 143 Z " /><path fill="rgb(3,3,4)" stroke="rgb(3,3,4)" stroke-width="1" opacity="0.996078431372549" d="M 106.5 163 L 107.5 165 L 106.5 163 Z " /><path fill="rgb(3,3,4)" stroke="rgb(3,3,4)" stroke-width="1" opacity="0.996078431372549" d="M 60.5 167 Q 63.5 168.5 60.5 170 L 60.5 167 Z " /><path fill="rgb(3,3,4)" stroke="rgb(3,3,4)" stroke-width="1" opacity="0.996078431372549" d="M 110.5 176 L 111 183.5 L 110 183.5 L 110.5 176 Z " /><path fill="rgb(3,3,4)" stroke="rgb(3,3,4)" stroke-width="1" opacity="0.996078431372549" d="M 135.5 185 L 134.5 187 L 135.5 185 Z " /><path fill="rgb(3,3,4)" stroke="rgb(3,3,4)" stroke-width="1" opacity="0.996078431372549" d="M 105.5 186 L 106 188.5 L 105 188.5 L 105.5 186 Z " /><path fill="rgb(3,3,4)" stroke="rgb(3,3,4)" stroke-width="1" opacity="0.996078431372549" d="M 123.5 187 L 126 187.5 L 123.5 188 L 123.5 187 Z " /><path fill="rgb(3,3,4)" stroke="rgb(3,3,4)" stroke-width="1" opacity="0.996078431372549" d="M 130.5 197 L 131.5 199 L 130.5 197 Z " /><path fill="rgb(0,0,0)" stroke="rgb(0,0,0)" stroke-width="1" opacity="0" d="M 0 0 L 200 0 L 200 200 L 167.5 200 L 167 197.5 L 168 192.5 L 165 184.5 L 158 175 L 147 166.5 L 146 160.5 L 149.5 155 Q 158.9 152.9 164 146.5 L 166 143.5 L 166 132.5 L 164 127 L 179.5 127 L 182 126 L 190 110 Q 193 111.3 192 107.5 L 193 103 L 184.5 100 L 172.5 99 L 171.5 100 L 164 100 Q 162.8 96.3 168 98 L 168 95.5 L 180 81.5 L 186 69.5 L 189 58.5 L 190 44.5 L 188 38 L 174.5 39 L 158 46 Q 159.1 43.3 156.5 44 L 151.5 39 L 122.5 28 L 112.5 26 L 104.5 26 L 103.5 25 L 86.5 25 L 85.5 26 L 67.5 27 L 54.5 31 L 46.5 24 L 43.5 24 L 39 28.5 L 33 42.5 L 31 53.5 L 31 70.5 L 33 81.5 L 40 99 Q 42.7 97.9 42 100.5 L 42.5 102 L 23.5 93 L 16 101.5 L 12 111.5 L 14.5 115 L 24 120 Q 22.7 123.3 27.5 122 L 37 126 L 29 139.5 L 29 146.5 L 34.5 154 L 51 161 Q 49.4 163.1 50 168.5 L 51 169.5 L 41 179.5 L 37 186.5 L 37 197.5 L 38.5 200 L 0.5 200 L 0 199.5 L 0 0 Z " /><path fill="rgb(14,15,17)" stroke="rgb(14,15,17)" stroke-width="1" opacity="1" d="M 83.5 32 L 86 32.5 L 83.5 33 L 83.5 32 Z " /><path fill="rgb(14,15,17)" stroke="rgb(14,15,17)" stroke-width="1" opacity="1" d="M 50.5 41 L 49.5 43 L 50.5 41 Z " /><path fill="rgb(14,15,17)" stroke="rgb(14,15,17)" stroke-width="1" opacity="1" d="M 69.5 49 L 72 49.5 L 69.5 50 L 69.5 49 Z " /><path fill="rgb(14,15,17)" stroke="rgb(14,15,17)" stroke-width="1" opacity="1" d="M 146.5 56 L 142.5 61 L 146.5 56 Z " /><path fill="rgb(14,15,17)" stroke="rgb(14,15,17)" stroke-width="1" opacity="1" d="M 136.5 66 L 134.5 69 L 136.5 66 Z " /><path fill="rgb(14,15,17)" stroke="rgb(14,15,17)" stroke-width="1" opacity="1" d="M 141.5 69 L 140.5 71 L 141.5 69 Z " /><path fill="rgb(14,15,17)" stroke="rgb(14,15,17)" stroke-width="1" opacity="1" d="M 132.5 71 L 131.5 73 L 132.5 71 Z " /><path fill="rgb(14,15,17)" stroke="rgb(14,15,17)" stroke-width="1" opacity="1" d="M 127.5 79 L 128 80.5 L 123.5 87 L 124 85.5 Q 124.3 80.8 127.5 79 Z " /><path fill="rgb(14,15,17)" stroke="rgb(14,15,17)" stroke-width="1" opacity="1" d="M 169.5 83 L 167.5 86 L 169.5 83 Z " /><path fill="rgb(14,15,17)" stroke="rgb(14,15,17)" stroke-width="1" opacity="1" d="M 149.5 100 L 148.5 102 L 149.5 100 Z " /><path fill="rgb(14,15,17)" stroke="rgb(14,15,17)" stroke-width="1" opacity="1" d="M 113.5 102 L 112.5 104 L 113.5 102 Z " /><path fill="rgb(14,15,17)" stroke="rgb(14,15,17)" stroke-width="1" opacity="1" d="M 29.5 103 L 30.5 105 L 29.5 103 Z " /><path fill="rgb(14,15,17)" stroke="rgb(14,15,17)" stroke-width="1" opacity="1" d="M 56.5 105 L 59 106.5 L 57.5 106 L 56.5 105 Z " /><path fill="rgb(14,15,17)" stroke="rgb(14,15,17)" stroke-width="1" opacity="1" d="M 118.5 105 L 120 105.5 L 117 107.5 L 116.5 109 L 116 107.5 L 118.5 105 Z " /><path fill="rgb(14,15,17)" stroke="rgb(14,15,17)" stroke-width="1" opacity="1" d="M 166.5 106 L 171 106.5 L 166.5 107 L 166.5 106 Z " /><path fill="rgb(14,15,17)" stroke="rgb(14,15,17)" stroke-width="1" opacity="1" d="M 61.5 108 L 64.5 112 L 61 110 L 61.5 108 Z " /><path fill="rgb(14,15,17)" stroke="rgb(14,15,17)" stroke-width="1" opacity="1" d="M 20.5 109 L 21.5 111 L 20.5 109 Z " /><path fill="rgb(14,15,17)" stroke="rgb(14,15,17)" stroke-width="1" opacity="1" d="M 55.5 109 L 56 110.5 L 53.5 114 L 54 112.5 L 55.5 109 Z " /><path fill="rgb(14,15,17)" stroke="rgb(14,15,17)" stroke-width="1" opacity="1" d="M 74.5 115 L 78 116.5 L 76.5 117 L 74.5 115 Z " /><path fill="rgb(14,15,17)" stroke="rgb(14,15,17)" stroke-width="1" opacity="1" d="M 107.5 115 L 110 115.5 L 107.5 116 L 107.5 115 Z " /><path fill="rgb(14,15,17)" stroke="rgb(14,15,17)" stroke-width="1" opacity="1" d="M 93.5 116 L 97 116.5 L 93.5 117 L 93.5 116 Z " /><path fill="rgb(14,15,17)" stroke="rgb(14,15,17)" stroke-width="1" opacity="1" d="M 163.5 119 L 175 119.5 L 163.5 120 L 163.5 119 Z " /><path fill="rgb(14,15,17)" stroke="rgb(14,15,17)" stroke-width="1" opacity="1" d="M 153.5 120 L 157 120.5 L 153.5 121 L 153.5 120 Z " /><path fill="rgb(14,15,17)" stroke="rgb(14,15,17)" stroke-width="1" opacity="1" d="M 144.5 121 L 149 121.5 L 144.5 122 L 144.5 121 Z " /><path fill="rgb(14,15,17)" stroke="rgb(14,15,17)" stroke-width="1" opacity="1" d="M 132.5 123 L 135 123.5 L 132.5 124 L 132.5 123 Z " /><path fill="rgb(14,15,17)" stroke="rgb(14,15,17)" stroke-width="1" opacity="1" d="M 127.5 124 L 130 124.5 L 127.5 125 L 127.5 124 Z " /><path fill="rgb(14,15,17)" stroke="rgb(14,15,17)" stroke-width="1" opacity="1" d="M 113.5 126 L 116 126.5 L 113.5 127 L 113.5 126 Z " /><path fill="rgb(14,15,17)" stroke="rgb(14,15,17)" stroke-width="1" opacity="1" d="M 103.5 127 L 107 127.5 L 103.5 128 L 103.5 127 Z " /><path fill="rgb(14,15,17)" stroke="rgb(14,15,17)" stroke-width="1" opacity="1" d="M 154.5 127 L 155.5 129 L 154.5 127 Z " /><path fill="rgb(14,15,17)" stroke="rgb(14,15,17)" stroke-width="1" opacity="1" d="M 76.5 128 L 93 128.5 L 76.5 129 L 76.5 128 Z " /><path fill="rgb(14,15,17)" stroke="rgb(14,15,17)" stroke-width="1" opacity="1" d="M 117.5 132 L 121 132.5 L 117.5 133 L 117.5 132 Z " /><path fill="rgb(14,15,17)" stroke="rgb(14,15,17)" stroke-width="1" opacity="1" d="M 159.5 136 L 160 139.5 L 159 139.5 L 159.5 136 Z " /><path fill="rgb(14,15,17)" stroke="rgb(14,15,17)" stroke-width="1" opacity="1" d="M 130.5 137 L 128.5 140 L 130.5 137 Z " /><path fill="rgb(14,15,17)" stroke="rgb(14,15,17)" stroke-width="1" opacity="1" d="M 48.5 143 L 49.5 145 L 48.5 143 Z " /><path fill="rgb(14,15,17)" stroke="rgb(14,15,17)" stroke-width="1" opacity="1" d="M 112.5 145 L 115 145.5 L 112.5 146 L 112.5 145 Z " /><path fill="rgb(14,15,17)" stroke="rgb(14,15,17)" stroke-width="1" opacity="1" d="M 51.5 146 L 52.5 148 L 51.5 146 Z " /><path fill="rgb(14,15,17)" stroke="rgb(14,15,17)" stroke-width="1" opacity="1" d="M 134.5 152 Q 139.3 150.3 138 154.5 L 135 156.5 L 137 153 Q 133.7 153.8 134.5 152 Z " /><path fill="rgb(14,15,17)" stroke="rgb(14,15,17)" stroke-width="1" opacity="1" d="M 139.5 157 L 140 160.5 L 138 160.5 Q 138.8 162.8 136.5 162 Q 135.4 164.8 132 164 L 132 167.5 L 125.5 174 L 120.5 175 L 118 174 L 115.5 170 Q 112.9 170.7 114 168 L 112 168 L 112 165.5 L 113.5 163 L 120 167.5 L 120 170 L 126 170 L 126 166.5 L 130.5 161 L 133.5 159 L 139.5 157 Z " /><path fill="rgb(14,15,17)" stroke="rgb(14,15,17)" stroke-width="1" opacity="1" d="M 115.5 160 L 114.5 162 L 115.5 160 Z " /><path fill="rgb(14,15,17)" stroke="rgb(14,15,17)" stroke-width="1" opacity="1" d="M 67.5 164 L 70 164.5 L 67.5 165 L 67.5 164 Z " /><path fill="rgb(14,15,17)" stroke="rgb(14,15,17)" stroke-width="1" opacity="1" d="M 73.5 165 L 76 165.5 L 73.5 166 L 73.5 165 Z " /><path fill="rgb(14,15,17)" stroke="rgb(14,15,17)" stroke-width="1" opacity="1" d="M 85.5 166 L 96 166.5 L 85.5 167 L 85.5 166 Z " /><path fill="rgb(14,15,17)" stroke="rgb(14,15,17)" stroke-width="1" opacity="1" d="M 97.5 166 L 101 166.5 L 97.5 167 L 97.5 166 Z " /><path fill="rgb(14,15,17)" stroke="rgb(14,15,17)" stroke-width="1" opacity="1" d="M 61.5 167 Q 64.5 168.5 61.5 170 L 61.5 167 Z " /><path fill="rgb(14,15,17)" stroke="rgb(14,15,17)" stroke-width="1" opacity="1" d="M 140.5 170 L 142.5 173 L 140.5 170 Z " /><path fill="rgb(14,15,17)" stroke="rgb(14,15,17)" stroke-width="1" opacity="1" d="M 57.5 173 L 55.5 176 L 57.5 173 Z " /><path fill="rgb(14,15,17)" stroke="rgb(14,15,17)" stroke-width="1" opacity="1" d="M 146.5 175 L 155.5 185 L 146.5 175 Z " /><path fill="rgb(14,15,17)" stroke="rgb(14,15,17)" stroke-width="1" opacity="1" d="M 130.5 178 L 132 178.5 L 129.5 180 L 130.5 178 Z " /><path fill="rgb(14,15,17)" stroke="rgb(14,15,17)" stroke-width="1" opacity="1" d="M 133.5 179 L 135.5 182 L 133.5 179 Z " /><path fill="rgb(14,15,17)" stroke="rgb(14,15,17)" stroke-width="1" opacity="1" d="M 123.5 186 L 122.5 188 L 123.5 186 Z " /><path fill="rgb(14,15,17)" stroke="rgb(14,15,17)" stroke-width="1" opacity="1" d="M 156.5 186 L 157.5 188 L 156.5 186 Z " /><path fill="rgb(14,15,17)" stroke="rgb(14,15,17)" stroke-width="1" opacity="1" d="M 105.5 190 L 106 192.5 L 105 192.5 L 105.5 190 Z " /><path fill="rgb(14,15,17)" stroke="rgb(14,15,17)" stroke-width="1" opacity="1" d="M 111.5 190 L 112 193.5 L 111 193.5 L 111.5 190 Z " /><path fill="rgb(14,15,17)" stroke="rgb(14,15,17)" stroke-width="1" opacity="1" d="M 122.5 191 L 123.5 193 L 122.5 191 Z " /><path fill="rgb(14,15,17)" stroke="rgb(14,15,17)" stroke-width="1" opacity="1" d="M 160.5 193 L 161 195.5 L 160 195.5 L 160.5 193 Z " /><path fill="rgb(14,15,17)" stroke="rgb(14,15,17)" stroke-width="1" opacity="1" d="M 126.5 194 L 131.5 200 L 126.5 194 Z " /><path fill="rgb(14,15,17)" stroke="rgb(14,15,17)" stroke-width="1" opacity="1" d="M 45.5 196 L 46.5 198 L 45.5 196 Z " /><path fill="rgb(59,110,150)" stroke="rgb(59,110,150)" stroke-width="1" opacity="1" d="M 84.5 33 L 104.5 33 L 117 35.5 L 110.5 36 L 109.5 35 L 81.5 35 L 65 38 L 68 48.5 L 56 57 L 51 42 L 64.5 36 L 74.5 34 L 83.5 34 L 84.5 33 Z " /><path fill="rgb(59,110,150)" stroke="rgb(59,110,150)" stroke-width="1" opacity="1" d="M 118.5 36 L 121 36.5 L 118.5 37 L 118.5 36 Z " /><path fill="rgb(59,110,150)" stroke="rgb(59,110,150)" stroke-width="1" opacity="1" d="M 25.5 103 L 41.5 111 L 62.5 117 Q 67.3 115.8 68.5 118 L 94.5 118 L 95.5 117 L 114.5 116 L 158.5 108 L 179.5 107 L 183 108.5 L 181.5 110 L 150.5 112 L 149.5 113 L 122.5 116 L 96.5 121 L 62.5 122 L 35.5 115 L 23 107.5 Q 22.5 103.5 25.5 103 Z " /><path fill="rgb(59,110,150)" stroke="rgb(59,110,150)" stroke-width="1" opacity="1" d="M 131.5 154 L 130.5 156 L 118.5 164 L 117 160.5 L 131.5 154 Z " /><path fill="rgb(59,110,150)" stroke="rgb(59,110,150)" stroke-width="1" opacity="1" d="M 58.5 174 L 59 175.5 Q 51.8 184.8 47.5 197 L 44 191.5 L 46 186.5 L 54.5 177 L 58.5 174 Z " /><path fill="rgb(59,110,150)" stroke="rgb(59,110,150)" stroke-width="1" opacity="1" d="M 61.5 186 L 62 188.5 L 59 200 L 55 200 L 55 198.5 L 61.5 186 Z " /><path fill="rgb(59,110,150)" stroke="rgb(59,110,150)" stroke-width="1" opacity="1" d="M 134.5 191 L 144 199.5 L 141.5 200 L 134 192.5 L 134.5 191 Z " /></svg>