<svg width="200" height="200" version="1.1" xmlns="http://www.w3.org/2000/svg" desc="Created with imagetracer.js version 1.2.6" ><path fill="rgb(5,5,5)" stroke="rgb(5,5,5)" stroke-width="1" opacity="0.24313725490196078" d="M 162.5 6 L 163.5 8 L 162.5 6 Z " /><path fill="rgb(5,5,5)" stroke="rgb(5,5,5)" stroke-width="1" opacity="0.24313725490196078" d="M 161.5 8 L 157.5 13 L 161.5 8 Z " /><path fill="rgb(5,5,5)" stroke="rgb(5,5,5)" stroke-width="1" opacity="0.24313725490196078" d="M 164.5 10 L 165 19.5 L 164 19.5 L 164.5 10 Z " /><path fill="rgb(5,5,5)" stroke="rgb(5,5,5)" stroke-width="1" opacity="0.24313725490196078" d="M 141.5 15 L 150 15.5 L 141.5 16 L 141.5 15 Z " /><path fill="rgb(5,5,5)" stroke="rgb(5,5,5)" stroke-width="1" opacity="0.24313725490196078" d="M 133.5 16 L 139 16.5 L 130.5 18 L 130.5 17 L 133.5 16 Z " /><path fill="rgb(5,5,5)" stroke="rgb(5,5,5)" stroke-width="1" opacity="0.24313725490196078" d="M 127.5 18 L 129 18.5 L 124.5 21 L 125.5 19 L 127.5 18 Z " /><path fill="rgb(5,5,5)" stroke="rgb(5,5,5)" stroke-width="1" opacity="0.24313725490196078" d="M 122.5 21 L 118 26.5 L 116.5 30 L 116 28.5 L 122.5 21 Z " /><path fill="rgb(5,5,5)" stroke="rgb(5,5,5)" stroke-width="1" opacity="0.24313725490196078" d="M 163.5 22 L 164 24.5 L 163 24.5 L 163.5 22 Z " /><path fill="rgb(5,5,5)" stroke="rgb(5,5,5)" stroke-width="1" opacity="0.24313725490196078" d="M 160.5 31 L 155.5 37 L 160.5 31 Z " /><path fill="rgb(5,5,5)" stroke="rgb(5,5,5)" stroke-width="1" opacity="0.24313725490196078" d="M 116.5 32 L 117 36 L 110 35.5 L 116 35 L 116.5 32 Z " /><path fill="rgb(5,5,5)" stroke="rgb(5,5,5)" stroke-width="1" opacity="0.24313725490196078" d="M 106.5 36 L 109 36.5 L 106.5 37 L 106.5 36 Z " /><path fill="rgb(5,5,5)" stroke="rgb(5,5,5)" stroke-width="1" opacity="0.24313725490196078" d="M 153.5 37 L 152.5 39 L 151 38.5 L 153.5 37 Z " /><path fill="rgb(5,5,5)" stroke="rgb(5,5,5)" stroke-width="1" opacity="0.24313725490196078" d="M 100.5 38 L 102 38.5 L 91.5 44 L 92.5 42 L 100.5 38 Z " /><path fill="rgb(5,5,5)" stroke="rgb(5,5,5)" stroke-width="1" opacity="0.24313725490196078" d="M 148.5 39 L 150 39.5 L 147.5 41 L 148.5 39 Z " /><path fill="rgb(5,5,5)" stroke="rgb(5,5,5)" stroke-width="1" opacity="0.24313725490196078" d="M 151.5 42 L 152.5 44 L 151.5 42 Z " /><path fill="rgb(5,5,5)" stroke="rgb(5,5,5)" stroke-width="1" opacity="0.24313725490196078" d="M 89.5 44 L 88.5 46 L 83.5 49 L 85.5 46 L 89.5 44 Z " /><path fill="rgb(5,5,5)" stroke="rgb(5,5,5)" stroke-width="1" opacity="0.24313725490196078" d="M 154.5 44 L 155.5 46 L 154.5 44 Z " /><path fill="rgb(5,5,5)" stroke="rgb(5,5,5)" stroke-width="1" opacity="0.24313725490196078" d="M 81.5 49 L 80.5 51 L 70.5 55 L 70.5 54 L 81.5 49 Z " /><path fill="rgb(5,5,5)" stroke="rgb(5,5,5)" stroke-width="1" opacity="0.24313725490196078" d="M 160.5 50 L 165 55.5 L 163 54.5 L 160.5 50 Z " /><path fill="rgb(5,5,5)" stroke="rgb(5,5,5)" stroke-width="1" opacity="0.24313725490196078" d="M 61.5 55 L 68 55.5 L 61.5 56 L 61.5 55 Z " /><path fill="rgb(5,5,5)" stroke="rgb(5,5,5)" stroke-width="1" opacity="0.24313725490196078" d="M 57.5 56 L 60 56.5 L 57.5 57 L 57.5 56 Z " /><path fill="rgb(5,5,5)" stroke="rgb(5,5,5)" stroke-width="1" opacity="0.24313725490196078" d="M 51.5 58 L 53 58.5 Q 44.1 62.1 39 69.5 L 35.5 77 L 35 75.5 L 41 65 L 51.5 58 Z " /><path fill="rgb(5,5,5)" stroke="rgb(5,5,5)" stroke-width="1" opacity="0.24313725490196078" d="M 166.5 59 L 169 63.5 L 168 63.5 L 166.5 59 Z " /><path fill="rgb(5,5,5)" stroke="rgb(5,5,5)" stroke-width="1" opacity="0.24313725490196078" d="M 169.5 65 L 171 69.5 L 170 69.5 L 169.5 65 Z " /><path fill="rgb(5,5,5)" stroke="rgb(5,5,5)" stroke-width="1" opacity="0.24313725490196078" d="M 171.5 71 L 172 86.5 L 171 86.5 L 171.5 71 Z " /><path fill="rgb(5,5,5)" stroke="rgb(5,5,5)" stroke-width="1" opacity="0.24313725490196078" d="M 30 78 L 33.5 79 L 35 78.5 L 35 80 L 30 80 L 30 78 Z " /><path fill="rgb(5,5,5)" stroke="rgb(5,5,5)" stroke-width="1" opacity="0.24313725490196078" d="M 25.5 79 L 29 79.5 L 23.5 81 L 23.5 80 L 25.5 79 Z " /><path fill="rgb(5,5,5)" stroke="rgb(5,5,5)" stroke-width="1" opacity="0.24313725490196078" d="M 21.5 81 L 20.5 83 L 21.5 81 Z " /><path fill="rgb(5,5,5)" stroke="rgb(5,5,5)" stroke-width="1" opacity="0.24313725490196078" d="M 17.5 84 L 14 88.5 L 11.5 92 L 13 89.5 L 17.5 84 Z " /><path fill="rgb(5,5,5)" stroke="rgb(5,5,5)" stroke-width="1" opacity="0.24313725490196078" d="M 170.5 88 L 171 90.5 L 170 90.5 L 170.5 88 Z " /><path fill="rgb(5,5,5)" stroke="rgb(5,5,5)" stroke-width="1" opacity="0.24313725490196078" d="M 10.5 93 L 10 94.5 L 7.5 99 L 8 97.5 L 10.5 93 Z " /><path fill="rgb(5,5,5)" stroke="rgb(5,5,5)" stroke-width="1" opacity="0.24313725490196078" d="M 169.5 95 L 175 99.5 L 172.5 98 L 169.5 95 Z " /><path fill="rgb(5,5,5)" stroke="rgb(5,5,5)" stroke-width="1" opacity="0.24313725490196078" d="M 6.5 100 L 7 101.5 L 5.5 105 L 5 102.5 L 6.5 100 Z " /><path fill="rgb(5,5,5)" stroke="rgb(5,5,5)" stroke-width="1" opacity="0.24313725490196078" d="M 176.5 100 L 177.5 102 L 176.5 100 Z " /><path fill="rgb(5,5,5)" stroke="rgb(5,5,5)" stroke-width="1" opacity="0.24313725490196078" d="M 180.5 103 L 184 105.5 L 182.5 106 L 180.5 103 Z " /><path fill="rgb(5,5,5)" stroke="rgb(5,5,5)" stroke-width="1" opacity="0.24313725490196078" d="M 185.5 107 L 190.5 113 L 185.5 107 Z " /><path fill="rgb(5,5,5)" stroke="rgb(5,5,5)" stroke-width="1" opacity="0.24313725490196078" d="M 3.5 109 L 4 111.5 L 2.5 116 L 2 112.5 L 3.5 109 Z " /><path fill="rgb(5,5,5)" stroke="rgb(5,5,5)" stroke-width="1" opacity="0.24313725490196078" d="M 192.5 116 L 194 119.5 L 193 119.5 L 192.5 117 L 188 120.5 L 192.5 116 Z " /><path fill="rgb(5,5,5)" stroke="rgb(5,5,5)" stroke-width="1" opacity="0.24313725490196078" d="M 1.5 117 L 2 123.5 L 1 123.5 L 1.5 117 Z " /><path fill="rgb(5,5,5)" stroke="rgb(5,5,5)" stroke-width="1" opacity="0.24313725490196078" d="M 176.5 117 L 176 118.5 L 177 120.5 L 175 119.5 L 176.5 117 Z " /><path fill="rgb(5,5,5)" stroke="rgb(5,5,5)" stroke-width="1" opacity="0.24313725490196078" d="M 186.5 121 L 184.5 124 L 180.5 127 L 177 122.5 L 179 123.5 L 180.5 126 L 186.5 121 Z " /><path fill="rgb(5,5,5)" stroke="rgb(5,5,5)" stroke-width="1" opacity="0.24313725490196078" d="M 0.5 125 L 1 130.5 L 0 130.5 L 0.5 125 Z " /><path fill="rgb(5,5,5)" stroke="rgb(5,5,5)" stroke-width="1" opacity="0.24313725490196078" d="M 195.5 125 L 196 127.5 L 195 127.5 L 195.5 125 Z " /><path fill="rgb(5,5,5)" stroke="rgb(5,5,5)" stroke-width="1" opacity="0.24313725490196078" d="M 196.5 130 L 197 133.5 L 196 133.5 L 196.5 130 Z " /><path fill="rgb(5,5,5)" stroke="rgb(5,5,5)" stroke-width="1" opacity="0.24313725490196078" d="M 197.5 137 L 198 140.5 L 197 140.5 L 197.5 137 Z " /><path fill="rgb(5,5,5)" stroke="rgb(5,5,5)" stroke-width="1" opacity="0.24313725490196078" d="M 198.5 143 L 199 146.5 L 198 146.5 L 198.5 143 Z " /><path fill="rgb(5,5,5)" stroke="rgb(5,5,5)" stroke-width="1" opacity="0.24313725490196078" d="M 0.5 144 L 1 149.5 L 0 149.5 L 0.5 144 Z " /><path fill="rgb(5,5,5)" stroke="rgb(5,5,5)" stroke-width="1" opacity="0.24313725490196078" d="M 199.5 150 L 200 156 L 193 153.5 L 194.5 153 L 198.5 155 L 199.5 150 Z " /><path fill="rgb(5,5,5)" stroke="rgb(5,5,5)" stroke-width="1" opacity="0.24313725490196078" d="M 1.5 151 L 7 163.5 L 5 162.5 L 1 153.5 L 1.5 151 Z " /><path fill="rgb(5,5,5)" stroke="rgb(5,5,5)" stroke-width="1" opacity="0.24313725490196078" d="M 187 151 L 192 152.5 L 190.5 153 L 188 152 L 188 159 L 190.5 159 L 194.5 158 L 194.5 159 L 187 160 L 187 151 Z " /><path fill="rgb(5,5,5)" stroke="rgb(5,5,5)" stroke-width="1" opacity="0.24313725490196078" d="M 196.5 157 Q 201.1 155.7 199 161.5 L 198 161.5 Q 199.5 157.1 196.5 158 L 196.5 157 Z " /><path fill="rgb(5,5,5)" stroke="rgb(5,5,5)" stroke-width="1" opacity="0.24313725490196078" d="M 197.5 163 L 198 166.5 L 196.5 170 L 196 167.5 L 197.5 163 Z " /><path fill="rgb(5,5,5)" stroke="rgb(5,5,5)" stroke-width="1" opacity="0.24313725490196078" d="M 7.5 165 L 10.5 169 L 7.5 165 Z " /><path fill="rgb(5,5,5)" stroke="rgb(5,5,5)" stroke-width="1" opacity="0.24313725490196078" d="M 31.5 166 L 34 166.5 L 30.5 168 L 31.5 166 Z " /><path fill="rgb(5,5,5)" stroke="rgb(5,5,5)" stroke-width="1" opacity="0.24313725490196078" d="M 35.5 167 L 36 169.5 L 29.5 179 L 29 177.5 L 35.5 167 Z " /><path fill="rgb(5,5,5)" stroke="rgb(5,5,5)" stroke-width="1" opacity="0.24313725490196078" d="M 12.5 169 L 15 170.5 L 13.5 171 L 12.5 169 Z " /><path fill="rgb(5,5,5)" stroke="rgb(5,5,5)" stroke-width="1" opacity="0.24313725490196078" d="M 24.5 170 L 23.5 172 L 16 171.5 L 24.5 170 Z " /><path fill="rgb(5,5,5)" stroke="rgb(5,5,5)" stroke-width="1" opacity="0.24313725490196078" d="M 195.5 171 L 196 173.5 L 195 173.5 L 195.5 171 Z " /><path fill="rgb(5,5,5)" stroke="rgb(5,5,5)" stroke-width="1" opacity="0.24313725490196078" d="M 194.5 175 L 195 177.5 L 193.5 181 L 193 178.5 L 194.5 175 Z " /><path fill="rgb(5,5,5)" stroke="rgb(5,5,5)" stroke-width="1" opacity="0.24313725490196078" d="M 27.5 182 L 28 183.5 L 25.5 188 L 25 186.5 L 27.5 182 Z " /><path fill="rgb(5,5,5)" stroke="rgb(5,5,5)" stroke-width="1" opacity="0.24313725490196078" d="M 181.5 184 L 190 191.5 L 187 192 L 182.5 186 L 179 187.5 L 178 191.5 L 179 193.5 L 178 193.5 L 177 189.5 L 181.5 184 Z " /><path fill="rgb(5,5,5)" stroke="rgb(5,5,5)" stroke-width="1" opacity="0.24313725490196078" d="M 191.5 185 L 192 187.5 L 190.5 190 L 190 188.5 L 191.5 185 Z " /><path fill="rgb(5,5,5)" stroke="rgb(5,5,5)" stroke-width="1" opacity="0.24313725490196078" d="M 22.5 195 L 23 197.5 L 22 197.5 L 22.5 195 Z " /><path fill="rgb(0,0,0)" stroke="rgb(0,0,0)" stroke-width="1" opacity="0" d="M 0 0 L 200 0 L 200 149.5 L 199 149.5 L 197 130.5 L 194 117.5 L 192.5 116 L 180.5 126 L 176 118.5 L 191 112.5 L 184 107 Q 185.1 104.3 182.5 105 L 169 94.5 Q 174 86.5 172 71.5 L 164 53.5 L 154.5 44 L 148 40.5 Q 156.5 38 161 31.5 L 165 19.5 L 165 10.5 L 162.5 6 L 156.5 13 L 151.5 15 L 141.5 15 L 127.5 18 L 117 26.5 L 116 35 L 110.5 35 L 100.5 38 L 74.5 53 L 69.5 55 L 61.5 55 L 51.5 58 L 41 65 L 33.5 79 L 30.5 78 Q 18.7 80.2 13 88.5 L 5 102.5 L 2 112.5 L 0.5 125 L 0 0 Z " /><path fill="rgb(0,0,0)" stroke="rgb(0,0,0)" stroke-width="1" opacity="0" d="M 0.5 150 Q 2.7 162.3 10.5 169 Q 14.3 173.2 23.5 172 L 31.5 167 L 35 167 L 35 169.5 L 29 177.5 L 20.5 200 L 0 200 L 0.5 150 Z " /><path fill="rgb(0,0,0)" stroke="rgb(0,0,0)" stroke-width="1" opacity="0" d="M 188 152 L 200 156 L 200 200 L 181 200 L 178 189.5 L 180.5 186 L 182.5 186 L 187 190.5 Q 186.2 193.5 190 192 L 198 166.5 L 199 157 L 188 159 L 188 152 Z " /><path fill="rgb(4,4,3)" stroke="rgb(4,4,3)" stroke-width="1" opacity="0.9686274509803922" d="M 140.5 44 Q 144.9 42.5 144 45.5 L 142.5 45 Q 139.5 45.5 140.5 44 Z " /><path fill="rgb(4,4,3)" stroke="rgb(4,4,3)" stroke-width="1" opacity="0.9686274509803922" d="M 162.5 53 L 164 55.5 L 162 56 L 162.5 53 Z " /><path fill="rgb(4,4,3)" stroke="rgb(4,4,3)" stroke-width="1" opacity="0.9686274509803922" d="M 35.5 77 L 36 79.5 Q 32.8 80.9 34 86 Q 38 84.6 36 91.5 L 35 91.5 Q 34.8 86.8 31.5 85 L 29.5 84 L 19 91.5 L 12 102.5 L 8 114.5 L 6 144.5 L 8 154.5 L 14.5 164 L 18.5 166 Q 25.9 164.9 29.5 160 L 31 163.5 L 30 165.5 L 31.5 165 L 35 166.5 L 33.5 166 L 23.5 171 L 15.5 171 L 7 164.5 L 1 150.5 L 0 131.5 L 2 123.5 L 2 116.5 L 7 99.5 Q 11.6 89.6 19.5 83 L 29.5 79 L 35 80 L 35.5 77 Z " /><path fill="rgb(4,4,3)" stroke="rgb(4,4,3)" stroke-width="1" opacity="0.9686274509803922" d="M 168.5 92 Q 168.3 96.7 171.5 98 Q 182.6 103.4 190 112.5 L 175 118.5 L 180.5 127 L 192.5 117 L 196 128.5 L 197 140.5 L 199 147.5 L 199 154.5 L 197.5 154 L 187 151 L 187 160 L 190.5 160 L 198 158 L 195 174.5 L 190 191 L 181.5 184 L 176.5 191 L 176 189.5 L 176.5 188 L 175 187.5 L 175 182 Q 177.7 183.1 177 180.5 L 168 174.5 Q 167.1 171.5 171.5 173 L 178.5 175 L 186.5 182 L 190 176.5 L 189 174.5 L 192 165 L 179.5 167 L 172 164 L 174.5 160 Q 176.8 163 182 162 L 182 149 L 175 149 L 175 146.5 L 174 144 L 184.5 144 L 185.5 145 L 187.5 145 L 193 146 L 190 127 L 180.5 134 L 171 136 L 170 131 L 176 130 L 171.5 123 L 168 125.5 Q 168.7 128.1 166 127 L 165 123.5 L 173.5 113 L 181 110.5 L 174 106 L 174 104 L 172 104 Q 173.1 101.3 170.5 102 L 168 101 L 167 97.5 L 168.5 92 Z " /><path fill="rgb(4,4,3)" stroke="rgb(4,4,3)" stroke-width="1" opacity="0.9686274509803922" d="M 163 104 Q 166.8 102.5 166 105.5 L 165 110.5 L 157.5 120 L 156.5 118 L 154 119 L 155 116.5 L 153.5 116 Q 150.8 119.8 145 119 Q 143.9 116.3 146.5 117 L 153.5 114 L 163 106 L 163 104 Z " /><path fill="rgb(4,4,3)" stroke="rgb(4,4,3)" stroke-width="1" opacity="0.9686274509803922" d="M 144 122 L 150 122 L 150 124 Q 145.8 123 144.5 126 L 144 122 Z " /><path fill="rgb(4,4,3)" stroke="rgb(4,4,3)" stroke-width="1" opacity="0.9686274509803922" d="M 42 128 L 45 128.5 L 42 130.5 L 42 128 Z " /><path fill="rgb(4,4,3)" stroke="rgb(4,4,3)" stroke-width="1" opacity="0.9686274509803922" d="M 57.5 134 L 65.5 134 L 66 136 Q 63.6 134.3 57.5 135 L 57.5 134 Z " /><path fill="rgb(4,4,3)" stroke="rgb(4,4,3)" stroke-width="1" opacity="0.9686274509803922" d="M 138 134 L 142 134.5 L 138.5 136 L 138 134 Z " /><path fill="rgb(4,4,3)" stroke="rgb(4,4,3)" stroke-width="1" opacity="0.9686274509803922" d="M 35.5 170 L 36 171.5 L 32 174.5 L 35.5 170 Z " /><path fill="rgb(13,13,12)" stroke="rgb(13,13,12)" stroke-width="1" opacity="0.996078431372549" d="M 162.5 7 L 164 8.5 L 164 21.5 Q 162.4 32.4 154.5 37 L 147 40.5 L 160 49.5 Q 162.8 51.5 162 56 Q 165.8 54.5 165 57.5 L 171 70.5 L 171 72.5 L 171 86.5 L 170 92 Q 166.3 90.7 168 96.5 L 168 98.5 Q 169 102.3 166 101 L 166 104 L 163 104 Q 164.1 106.7 161.5 106 Q 156.2 115 145 117 Q 143.7 120.3 148.5 119 L 151.5 117 L 155.5 119 L 157 118.5 L 157.5 120 L 159.5 117 L 159 118.5 L 160.5 122 Q 162 119.5 163.5 123 L 165.5 122 L 165 123.5 L 166 127 Q 168.7 125.9 168 128.5 L 173 130.5 L 170 131 L 172 138.5 L 171.5 140 Q 173.8 139.3 173 141.5 L 175 149 L 181.5 149 L 182 150.5 L 180.5 150 L 176 150 L 176 157.5 L 175 160 L 181 161 L 181.5 158 L 182 162 Q 176.8 163 174.5 160 L 172 164 L 174 164.5 Q 167.3 164.3 165 168.5 L 166.5 171 L 171 172.5 L 168 173 L 171.5 178 L 173 178.5 L 172 180.5 L 173 183 L 175 183 L 175 188 L 176.5 188 L 176 189.5 L 179 194.5 L 180 200 Q 174.6 201.5 173 198.5 Q 167.1 179.9 156 166.5 L 169 157.5 L 170 150.5 Q 167.1 135.4 158.5 126 L 150 124 L 150 122 L 144 122 L 145 130.5 L 144 135 L 138 134 L 136.5 137 L 130.5 141 L 125.5 141 L 124.5 140 L 114.5 140 L 99.5 144 L 89.5 140 L 80.5 140 L 72.5 142 L 65 136.5 L 66 134 L 57 134.5 L 64 135.5 L 56 136 L 56 126 L 48.5 126 Q 46.5 128.8 42 128 L 42.5 131 L 44 130.5 L 39 139.5 L 35 157.5 L 36 161 L 42 163 L 43 169.5 L 37 177.5 L 27.5 200 Q 21.4 201.3 22 198.5 L 30 177.5 L 36 171.5 L 36 167.5 Q 35.5 164.5 31.5 165 L 30 165.5 L 31 162.5 L 29.5 160 L 26 162.5 L 30 158.5 L 30 151.5 L 33 138.5 L 41 123 Q 45.7 118.7 56 120 Q 57 116.2 54.5 115 Q 46.1 113.9 42 108.5 L 37 100.5 L 35 92.5 L 36 86 Q 32.3 87.3 34 81.5 L 36 79.5 L 36 75.5 L 39 69.5 L 46.5 62 L 56.5 57 L 58.5 57 L 74.5 54 L 102.5 38 L 109.5 36 L 117 36 L 116 30.5 L 123.5 21 L 133.5 17 L 153.5 15 L 162 8.5 L 162.5 7 Z M 157 19 L 151 22 L 140 22 L 129 25 L 123 31 L 123 35 L 125 36 L 138 36 L 139 37 L 142 37 L 153 31 L 155 29 L 158 21 Q 159 18 157 19 Z M 112 42 Q 101 44 94 50 L 91 50 L 91 52 L 79 59 L 70 62 L 62 62 L 48 69 Q 42 74 40 83 L 40 92 L 43 100 L 52 108 L 56 109 Q 55 101 57 98 L 71 94 L 77 94 L 83 92 L 113 92 L 114 93 L 131 94 L 144 97 L 145 98 L 145 110 L 153 107 Q 163 100 165 86 Q 167 72 162 65 L 162 63 L 161 62 L 158 58 Q 154 50 146 47 Q 143 48 144 44 L 140 45 Q 129 40 112 42 Z M 89 98 L 88 99 L 79 99 L 64 102 L 62 104 L 62 130 Q 70 130 75 136 L 77 135 L 94 135 L 99 138 L 103 138 L 117 134 Q 122 133 124 135 L 129 135 L 138 130 L 139 130 L 139 102 L 122 99 L 112 99 L 111 98 L 89 98 Z " /><path fill="rgb(13,13,12)" stroke="rgb(13,13,12)" stroke-width="1" opacity="0.996078431372549" d="M 29.5 84 L 34 87.5 L 31.5 86 L 29.5 85 L 27.5 86 L 27.5 85 L 29.5 84 Z " /><path fill="rgb(13,13,12)" stroke="rgb(13,13,12)" stroke-width="1" opacity="0.996078431372549" d="M 20.5 90 L 19.5 92 L 20.5 90 Z " /><path fill="rgb(13,13,12)" stroke="rgb(13,13,12)" stroke-width="1" opacity="0.996078431372549" d="M 169.5 101 L 172 102 L 171.5 104 L 169.5 101 Z " /><path fill="rgb(13,13,12)" stroke="rgb(13,13,12)" stroke-width="1" opacity="0.996078431372549" d="M 84.5 106 L 101.5 107 Q 109.5 109.5 114 115.5 L 115 121.5 L 114 124.5 L 110.5 129 L 108 128 L 107.5 130 L 97.5 130 L 96.5 131 L 77.5 131 L 72.5 130 L 66 125.5 L 66 118.5 L 69 113 L 71 113 Q 69.9 110.3 72.5 111 L 75.5 109 L 77 109.5 Q 76.2 106.9 79.5 108 L 84.5 106 Z M 85 112 L 74 117 Q 71 118 72 123 L 76 125 L 103 125 L 109 123 L 108 117 L 98 112 L 85 112 Z " /><path fill="rgb(13,13,12)" stroke="rgb(13,13,12)" stroke-width="1" opacity="0.996078431372549" d="M 165.5 106 L 166 108.5 L 165 108.5 L 165.5 106 Z " /><path fill="rgb(13,13,12)" stroke="rgb(13,13,12)" stroke-width="1" opacity="0.996078431372549" d="M 164.5 111 L 163.5 113 L 164.5 111 Z " /><path fill="rgb(13,13,12)" stroke="rgb(13,13,12)" stroke-width="1" opacity="0.996078431372549" d="M 8.5 114 L 9 116.5 L 8 116.5 L 8.5 114 Z " /><path fill="rgb(13,13,12)" stroke="rgb(13,13,12)" stroke-width="1" opacity="0.996078431372549" d="M 162.5 114 L 161.5 116 L 162.5 114 Z " /><path fill="rgb(13,13,12)" stroke="rgb(13,13,12)" stroke-width="1" opacity="0.996078431372549" d="M 171.5 114 L 169 117.5 L 167.5 120 L 168 118.5 L 171.5 114 Z " /><path fill="rgb(13,13,12)" stroke="rgb(13,13,12)" stroke-width="1" opacity="0.996078431372549" d="M 7.5 120 L 8 123.5 L 7 123.5 L 7.5 120 Z " /><path fill="rgb(13,13,12)" stroke="rgb(13,13,12)" stroke-width="1" opacity="0.996078431372549" d="M 170.5 123 L 174 125.5 L 171.5 124 L 168.5 126 L 170.5 123 Z " /><path fill="rgb(13,13,12)" stroke="rgb(13,13,12)" stroke-width="1" opacity="0.996078431372549" d="M 174.5 127 L 176 129.5 L 175 129.5 L 174.5 127 Z " /><path fill="rgb(13,13,12)" stroke="rgb(13,13,12)" stroke-width="1" opacity="0.996078431372549" d="M 188.5 127 L 190 127.5 L 185.5 131 L 188.5 127 Z " /><path fill="rgb(13,13,12)" stroke="rgb(13,13,12)" stroke-width="1" opacity="0.996078431372549" d="M 183.5 131 L 181.5 134 L 183.5 131 Z " /><path fill="rgb(13,13,12)" stroke="rgb(13,13,12)" stroke-width="1" opacity="0.996078431372549" d="M 6.5 134 L 7 136.5 L 6 136.5 L 6.5 134 Z " /><path fill="rgb(13,13,12)" stroke="rgb(13,13,12)" stroke-width="1" opacity="0.996078431372549" d="M 173.5 135 L 177 135.5 L 173.5 136 L 173.5 135 Z " /><path fill="rgb(13,13,12)" stroke="rgb(13,13,12)" stroke-width="1" opacity="0.996078431372549" d="M 176.5 143 L 183 143.5 L 176.5 144 L 176.5 143 Z " /><path fill="rgb(13,13,12)" stroke="rgb(13,13,12)" stroke-width="1" opacity="0.996078431372549" d="M 7.5 148 L 8 150.5 L 7 150.5 L 7.5 148 Z " /><path fill="rgb(13,13,12)" stroke="rgb(13,13,12)" stroke-width="1" opacity="0.996078431372549" d="M 8.5 153 L 10 156.5 L 9 156.5 L 8.5 153 Z " /><path fill="rgb(13,13,12)" stroke="rgb(13,13,12)" stroke-width="1" opacity="0.996078431372549" d="M 12.5 161 L 14.5 164 L 12.5 161 Z " /><path fill="rgb(13,13,12)" stroke="rgb(13,13,12)" stroke-width="1" opacity="0.996078431372549" d="M 175.5 165 L 179 166.5 L 176.5 167 L 175.5 165 Z " /><path fill="rgb(13,13,12)" stroke="rgb(13,13,12)" stroke-width="1" opacity="0.996078431372549" d="M 191.5 165 L 192 167.5 L 191 167.5 L 191.5 165 Z " /><path fill="rgb(13,13,12)" stroke="rgb(13,13,12)" stroke-width="1" opacity="0.996078431372549" d="M 172.5 173 L 178 174.5 L 175.5 175 L 172.5 174 L 172.5 173 Z " /><path fill="rgb(13,13,12)" stroke="rgb(13,13,12)" stroke-width="1" opacity="0.996078431372549" d="M 179.5 175 L 180.5 177 L 179.5 175 Z " /><path fill="rgb(13,13,12)" stroke="rgb(13,13,12)" stroke-width="1" opacity="0.996078431372549" d="M 188 176 L 190 176.5 L 188 177.5 L 188 176 Z " /><path fill="rgb(13,13,12)" stroke="rgb(13,13,12)" stroke-width="1" opacity="0.996078431372549" d="M 182.5 177 L 186.5 182 L 182.5 177 Z " /><path fill="rgb(13,13,12)" stroke="rgb(13,13,12)" stroke-width="1" opacity="0.996078431372549" d="M 174.5 179 L 177 180.5 L 176.5 182 L 176 180 L 174.5 179 Z " /><path fill="rgb(76,169,100)" stroke="rgb(76,169,100)" stroke-width="1" opacity="1" d="M 114.5 42 L 119 42.5 L 114.5 43 L 114.5 42 Z " /><path fill="rgb(76,169,100)" stroke="rgb(76,169,100)" stroke-width="1" opacity="1" d="M 109.5 43 L 119.5 44 L 122 46.5 Q 127.1 52.4 127 63.5 L 125.5 65 L 113.5 68 Q 109.1 73.4 102 75 Q 100.4 72.9 101 67.5 L 95 55.5 L 95 52 Q 101.1 53.8 103 50.5 L 101 46.5 L 109.5 43 Z M 110 44 L 110 45 L 113 45 L 110 44 Z " /><path fill="rgb(76,169,100)" stroke="rgb(76,169,100)" stroke-width="1" opacity="1" d="M 141.5 46 Q 150 48.5 155 54.5 Q 159.7 58.3 158 68.5 L 155.5 74 L 144 65.5 L 143 52.5 Q 140 50 141.5 46 Z " /><path fill="rgb(76,169,100)" stroke="rgb(76,169,100)" stroke-width="1" opacity="1" d="M 95.5 49 L 94.5 51 L 93 50.5 L 95.5 49 Z " /><path fill="rgb(76,169,100)" stroke="rgb(76,169,100)" stroke-width="1" opacity="1" d="M 75.5 60 Q 79.3 59 78 62 L 72 61.5 L 75.5 60 Z " /><path fill="rgb(76,169,100)" stroke="rgb(76,169,100)" stroke-width="1" opacity="1" d="M 67.5 62 L 71 62.5 L 67.5 63 L 67.5 62 Z " /><path fill="rgb(76,169,100)" stroke="rgb(76,169,100)" stroke-width="1" opacity="1" d="M 60.5 63 L 66 63.5 L 60.5 64 L 60.5 63 Z " /><path fill="rgb(76,169,100)" stroke="rgb(76,169,100)" stroke-width="1" opacity="1" d="M 81 66 Q 84 64.8 83 68.5 L 85 72.5 L 86 80.5 L 85 84 L 74.5 87 L 73.5 86 L 62.5 86 L 60.5 87 L 57 82.5 L 56 71.5 L 57 68 L 63.5 67 L 63 68.5 L 64 74 L 81 68 L 81 66 Z " /><path fill="rgb(76,169,100)" stroke="rgb(76,169,100)" stroke-width="1" opacity="1" d="M 114.5 74 L 119.5 75 L 122 74 Q 123.3 77.3 118.5 76 L 102.5 84 L 102 82 L 114.5 74 Z " /><path fill="rgb(76,169,100)" stroke="rgb(76,169,100)" stroke-width="1" opacity="1" d="M 146 80 L 151 80.5 L 146 84 L 146 80 Z " /><path fill="rgb(76,169,100)" stroke="rgb(76,169,100)" stroke-width="1" opacity="1" d="M 41.5 86 Q 43.7 94.8 50 99.5 L 49 104 Q 46.3 105.1 47 102.5 Q 40.4 97.3 41.5 86 Z " /><path fill="rgb(76,169,100)" stroke="rgb(76,169,100)" stroke-width="1" opacity="1" d="M 79.5 88 L 82 91.5 L 75.5 93 L 66 93 Q 64.5 89.2 67.5 90 L 73.5 92 L 77.5 90 L 79 90.5 L 79.5 88 Z " /><path fill="rgb(76,169,100)" stroke="rgb(76,169,100)" stroke-width="1" opacity="1" d="M 146 104 L 153 104.5 Q 150.9 108.1 146 108 L 146 104 Z " /><path fill="rgb(76,169,100)" stroke="rgb(76,169,100)" stroke-width="1" opacity="1" d="M 170 124 Q 172.7 122.9 172 125.5 L 174 129 Q 169.4 130.3 168 127.5 L 170 124 Z " /><path fill="rgb(76,169,100)" stroke="rgb(76,169,100)" stroke-width="1" opacity="1" d="M 187.5 129 L 186.5 131 L 187.5 129 Z " /><path fill="rgb(76,169,100)" stroke="rgb(76,169,100)" stroke-width="1" opacity="1" d="M 16.5 152 L 17.5 154 L 16.5 152 Z " /><path fill="rgb(76,169,100)" stroke="rgb(76,169,100)" stroke-width="1" opacity="1" d="M 159.5 174 L 165 181.5 Q 163 185 161 180.5 L 157 175.5 L 159.5 174 Z " /><path fill="rgb(76,169,100)" stroke="rgb(76,169,100)" stroke-width="1" opacity="1" d="M 45.5 177 L 50 179 L 42 200 L 37 200 L 37 196.5 L 40 195 L 39 189.5 L 39 187.5 L 45.5 177 Z " /><path fill="rgb(76,169,100)" stroke="rgb(76,169,100)" stroke-width="1" opacity="1" d="M 140.5 178 Q 144.3 177.3 145 179.5 L 151 192.5 L 152 200 L 145 200 L 145 197.5 L 139 182.5 L 139 180.5 L 140.5 178 Z " /><path fill="rgb(76,169,100)" stroke="rgb(76,169,100)" stroke-width="1" opacity="1" d="M 165.5 183 L 166 185 L 164 184.5 L 165.5 183 Z " /><path fill="rgb(76,169,100)" stroke="rgb(76,169,100)" stroke-width="1" opacity="1" d="M 61.5 185 L 65.5 186 L 67 185.5 L 66 187.5 L 67 189.5 L 65 200 L 58 200 L 58 192.5 L 61.5 185 Z " /><path fill="rgb(76,169,100)" stroke="rgb(76,169,100)" stroke-width="1" opacity="1" d="M 166.5 186 L 168 188.5 L 166 187.5 L 166.5 186 Z " /><path fill="rgb(76,169,100)" stroke="rgb(76,169,100)" stroke-width="1" opacity="1" d="M 119 189 L 124.5 189 L 125 190.5 L 127 193.5 Q 125.7 198.2 128 199.5 L 121.5 200 Q 118.1 196.1 119 189 Z " /><path fill="rgb(76,169,100)" stroke="rgb(76,169,100)" stroke-width="1" opacity="1" d="M 168.5 190 L 171 193.5 L 168 191.5 L 168.5 190 Z " /><path fill="rgb(75,52,54)" stroke="rgb(75,52,54)" stroke-width="1" opacity="0.996078431372549" d="M 139.5 22 L 142 22.5 L 139.5 23 L 139.5 22 Z " /><path fill="rgb(75,52,54)" stroke="rgb(75,52,54)" stroke-width="1" opacity="0.996078431372549" d="M 155.5 25 L 156 26.5 L 152.5 31 L 148.5 33 L 149.5 31 L 154 29 L 155.5 25 Z " /><path fill="rgb(75,52,54)" stroke="rgb(75,52,54)" stroke-width="1" opacity="0.996078431372549" d="M 123.5 34 L 124.5 36 L 123.5 34 Z " /><path fill="rgb(75,52,54)" stroke="rgb(75,52,54)" stroke-width="1" opacity="0.996078431372549" d="M 144.5 34 L 143.5 36 L 144.5 34 Z " /><path fill="rgb(75,52,54)" stroke="rgb(75,52,54)" stroke-width="1" opacity="0.996078431372549" d="M 120.5 42 L 130 42.5 L 120.5 43 L 120.5 42 Z " /><path fill="rgb(75,52,54)" stroke="rgb(75,52,54)" stroke-width="1" opacity="0.996078431372549" d="M 89.5 52 L 88.5 54 L 86.5 55 L 87.5 53 L 89.5 52 Z " /><path fill="rgb(75,52,54)" stroke="rgb(75,52,54)" stroke-width="1" opacity="0.996078431372549" d="M 156.5 56 L 157.5 58 L 156.5 56 Z " /><path fill="rgb(75,52,54)" stroke="rgb(75,52,54)" stroke-width="1" opacity="0.996078431372549" d="M 159.5 61 L 160.5 63 L 159.5 61 Z " /><path fill="rgb(75,52,54)" stroke="rgb(75,52,54)" stroke-width="1" opacity="0.996078431372549" d="M 47.5 69 L 46.5 71 L 47.5 69 Z " /><path fill="rgb(75,52,54)" stroke="rgb(75,52,54)" stroke-width="1" opacity="0.996078431372549" d="M 122.5 76 L 140.5 76 L 145 77 L 146 92.5 L 145 96.5 L 146 97.5 L 146 109.5 L 145 109.5 L 145 97.5 L 143.5 97 L 123.5 93 L 84 91.5 L 92.5 90 L 100.5 85 L 122.5 76 Z M 137 83 L 134 94 L 138 95 L 138 85 L 137 83 Z " /><path fill="rgb(75,52,54)" stroke="rgb(75,52,54)" stroke-width="1" opacity="0.996078431372549" d="M 164.5 80 L 165 85.5 L 164 85.5 L 164.5 80 Z " /><path fill="rgb(75,52,54)" stroke="rgb(75,52,54)" stroke-width="1" opacity="0.996078431372549" d="M 163.5 87 L 164 89.5 L 161.5 95 L 161 93.5 L 163.5 87 Z " /><path fill="rgb(75,52,54)" stroke="rgb(75,52,54)" stroke-width="1" opacity="0.996078431372549" d="M 40.5 89 L 41 91.5 L 40 91.5 L 40.5 89 Z " /><path fill="rgb(75,52,54)" stroke="rgb(75,52,54)" stroke-width="1" opacity="0.996078431372549" d="M 73.5 93 L 77 93.5 L 73.5 94 L 73.5 93 Z " /><path fill="rgb(75,52,54)" stroke="rgb(75,52,54)" stroke-width="1" opacity="0.996078431372549" d="M 65.5 94 L 70 94.5 L 61.5 97 L 61 95 L 65.5 94 Z " /><path fill="rgb(75,52,54)" stroke="rgb(75,52,54)" stroke-width="1" opacity="0.996078431372549" d="M 160.5 96 L 161 97.5 L 159 98.5 L 160.5 96 Z " /><path fill="rgb(75,52,54)" stroke="rgb(75,52,54)" stroke-width="1" opacity="0.996078431372549" d="M 27.5 97 L 32 98 Q 30.9 100.7 33.5 100 L 36 104.5 L 37 114.5 L 36 115.5 L 35 131.5 L 35 133.5 L 30.5 151 L 29.5 149 L 25.5 154 L 20.5 155 L 16 152 L 14 146.5 L 13 134.5 L 14 133.5 L 14 126.5 L 16 116.5 L 19 107.5 L 25.5 98 L 27.5 97 Z M 27 104 L 22 118 L 21 130 L 20 131 Q 18 141 21 147 L 24 148 L 28 136 L 30 125 L 30 107 L 29 106 Q 30 103 27 104 Z " /><path fill="rgb(75,52,54)" stroke="rgb(75,52,54)" stroke-width="1" opacity="0.996078431372549" d="M 57.5 97 L 59 97.5 L 57 98 L 56.5 100 L 56 98.5 L 57.5 97 Z " /><path fill="rgb(75,52,54)" stroke="rgb(75,52,54)" stroke-width="1" opacity="0.996078431372549" d="M 88.5 98 L 111 98.5 L 88.5 99 L 88.5 98 Z " /><path fill="rgb(75,52,54)" stroke="rgb(75,52,54)" stroke-width="1" opacity="0.996078431372549" d="M 43.5 99 L 44.5 101 L 43.5 99 Z " /><path fill="rgb(75,52,54)" stroke="rgb(75,52,54)" stroke-width="1" opacity="0.996078431372549" d="M 78.5 99 L 83 99.5 L 78.5 100 L 78.5 99 Z " /><path fill="rgb(75,52,54)" stroke="rgb(75,52,54)" stroke-width="1" opacity="0.996078431372549" d="M 117.5 99 L 122 99.5 L 117.5 100 L 117.5 99 Z " /><path fill="rgb(75,52,54)" stroke="rgb(75,52,54)" stroke-width="1" opacity="0.996078431372549" d="M 71.5 100 L 74 100.5 L 71.5 101 L 71.5 100 Z " /><path fill="rgb(75,52,54)" stroke="rgb(75,52,54)" stroke-width="1" opacity="0.996078431372549" d="M 126.5 100 L 130 100.5 L 126.5 101 L 126.5 100 Z " /><path fill="rgb(75,52,54)" stroke="rgb(75,52,54)" stroke-width="1" opacity="0.996078431372549" d="M 157.5 101 L 155.5 104 L 157.5 101 Z " /><path fill="rgb(75,52,54)" stroke="rgb(75,52,54)" stroke-width="1" opacity="0.996078431372549" d="M 63.5 102 L 62.5 104 L 63.5 102 Z " /><path fill="rgb(75,52,54)" stroke="rgb(75,52,54)" stroke-width="1" opacity="0.996078431372549" d="M 38.5 103 L 44.5 111 L 49 113.5 L 47 114 L 47 121 L 44.5 121 L 41 123 L 41 110.5 L 42 109.5 L 38.5 103 Z " /><path fill="rgb(75,52,54)" stroke="rgb(75,52,54)" stroke-width="1" opacity="0.996078431372549" d="M 153.5 105 L 152.5 107 L 153.5 105 Z " /><path fill="rgb(75,52,54)" stroke="rgb(75,52,54)" stroke-width="1" opacity="0.996078431372549" d="M 97.5 106 L 100 106.5 L 97.5 107 L 97.5 106 Z " /><path fill="rgb(75,52,54)" stroke="rgb(75,52,54)" stroke-width="1" opacity="0.996078431372549" d="M 178.5 108 L 179.5 110 L 178.5 108 Z " /><path fill="rgb(75,52,54)" stroke="rgb(75,52,54)" stroke-width="1" opacity="0.996078431372549" d="M 94.5 112 L 98 112.5 L 94.5 113 L 94.5 112 Z " /><path fill="rgb(75,52,54)" stroke="rgb(75,52,54)" stroke-width="1" opacity="0.996078431372549" d="M 111.5 112 L 113.5 115 L 111.5 112 Z " /><path fill="rgb(75,52,54)" stroke="rgb(75,52,54)" stroke-width="1" opacity="0.996078431372549" d="M 164.5 112 L 163.5 114 L 164.5 112 Z " /><path fill="rgb(75,52,54)" stroke="rgb(75,52,54)" stroke-width="1" opacity="0.996078431372549" d="M 173.5 112 L 172.5 114 L 173.5 112 Z " /><path fill="rgb(75,52,54)" stroke="rgb(75,52,54)" stroke-width="1" opacity="0.996078431372549" d="M 167.5 113 L 171 114.5 L 167.5 119 L 167 117 Q 164.3 118.1 165 115.5 L 167.5 113 Z " /><path fill="rgb(75,52,54)" stroke="rgb(75,52,54)" stroke-width="1" opacity="0.996078431372549" d="M 68.5 114 L 67.5 116 L 68.5 114 Z " /><path fill="rgb(75,52,54)" stroke="rgb(75,52,54)" stroke-width="1" opacity="0.996078431372549" d="M 54.5 115 L 55.5 117 L 54.5 115 Z " /><path fill="rgb(75,52,54)" stroke="rgb(75,52,54)" stroke-width="1" opacity="0.996078431372549" d="M 73.5 117 L 72.5 119 L 73.5 117 Z " /><path fill="rgb(75,52,54)" stroke="rgb(75,52,54)" stroke-width="1" opacity="0.996078431372549" d="M 50.5 119 L 54 119.5 L 50.5 120 L 50.5 119 Z " /><path fill="rgb(75,52,54)" stroke="rgb(75,52,54)" stroke-width="1" opacity="0.996078431372549" d="M 65.5 120 L 66 123.5 L 65 123.5 L 65.5 120 Z " /><path fill="rgb(75,52,54)" stroke="rgb(75,52,54)" stroke-width="1" opacity="0.996078431372549" d="M 138.5 120 L 139 129.5 L 138 129.5 L 138.5 120 Z " /><path fill="rgb(75,52,54)" stroke="rgb(75,52,54)" stroke-width="1" opacity="0.996078431372549" d="M 166.5 120 L 164.5 123 L 162 121.5 L 163.5 122 L 166.5 120 Z " /><path fill="rgb(75,52,54)" stroke="rgb(75,52,54)" stroke-width="1" opacity="0.996078431372549" d="M 7.5 124 L 8 127.5 L 7 127.5 L 7.5 124 Z " /><path fill="rgb(75,52,54)" stroke="rgb(75,52,54)" stroke-width="1" opacity="0.996078431372549" d="M 40.5 124 L 40 125.5 L 38.5 128 L 39 126.5 L 40.5 124 Z " /><path fill="rgb(75,52,54)" stroke="rgb(75,52,54)" stroke-width="1" opacity="0.996078431372549" d="M 94.5 124 L 103 124.5 L 94.5 125 L 94.5 124 Z " /><path fill="rgb(75,52,54)" stroke="rgb(75,52,54)" stroke-width="1" opacity="0.996078431372549" d="M 147.5 124 L 153 124.5 L 147.5 125 L 147.5 124 Z " /><path fill="rgb(75,52,54)" stroke="rgb(75,52,54)" stroke-width="1" opacity="0.996078431372549" d="M 113.5 126 L 112.5 128 L 113.5 126 Z " /><path fill="rgb(75,52,54)" stroke="rgb(75,52,54)" stroke-width="1" opacity="0.996078431372549" d="M 158.5 126 L 159.5 128 L 158.5 126 Z " /><path fill="rgb(75,52,54)" stroke="rgb(75,52,54)" stroke-width="1" opacity="0.996078431372549" d="M 46.5 127 L 44.5 130 L 46.5 127 Z " /><path fill="rgb(75,52,54)" stroke="rgb(75,52,54)" stroke-width="1" opacity="0.996078431372549" d="M 174.5 128 L 175 130 L 173 129.5 L 174.5 128 Z " /><path fill="rgb(75,52,54)" stroke="rgb(75,52,54)" stroke-width="1" opacity="0.996078431372549" d="M 97.5 130 L 102 130.5 L 97.5 131 L 97.5 130 Z " /><path fill="rgb(75,52,54)" stroke="rgb(75,52,54)" stroke-width="1" opacity="0.996078431372549" d="M 144.5 131 L 145 134.5 L 144 134.5 L 144.5 131 Z " /><path fill="rgb(75,52,54)" stroke="rgb(75,52,54)" stroke-width="1" opacity="0.996078431372549" d="M 81.5 134 L 89 134.5 L 81.5 135 L 81.5 134 Z " /><path fill="rgb(75,52,54)" stroke="rgb(75,52,54)" stroke-width="1" opacity="0.996078431372549" d="M 123.5 134 L 126 134.5 L 123.5 135 L 123.5 134 Z " /><path fill="rgb(75,52,54)" stroke="rgb(75,52,54)" stroke-width="1" opacity="0.996078431372549" d="M 180.5 134 L 179.5 136 L 174.5 137 L 174.5 136 L 180.5 134 Z " /><path fill="rgb(75,52,54)" stroke="rgb(75,52,54)" stroke-width="1" opacity="0.996078431372549" d="M 6.5 137 L 7 143.5 L 6 143.5 L 6.5 137 Z " /><path fill="rgb(75,52,54)" stroke="rgb(75,52,54)" stroke-width="1" opacity="0.996078431372549" d="M 68.5 138 L 71.5 142 L 68.5 138 Z " /><path fill="rgb(75,52,54)" stroke="rgb(75,52,54)" stroke-width="1" opacity="0.996078431372549" d="M 179.5 138 L 181 142.5 L 174 144 L 172 139.5 L 173.5 140 L 179.5 138 Z " /><path fill="rgb(75,52,54)" stroke="rgb(75,52,54)" stroke-width="1" opacity="0.996078431372549" d="M 132.5 139 L 131.5 141 L 132.5 139 Z " /><path fill="rgb(75,52,54)" stroke="rgb(75,52,54)" stroke-width="1" opacity="0.996078431372549" d="M 80.5 140 L 83 140.5 L 80.5 141 L 80.5 140 Z " /><path fill="rgb(75,52,54)" stroke="rgb(75,52,54)" stroke-width="1" opacity="0.996078431372549" d="M 183.5 143 L 186 143.5 L 183.5 144 L 183.5 143 Z " /><path fill="rgb(75,52,54)" stroke="rgb(75,52,54)" stroke-width="1" opacity="0.996078431372549" d="M 188.5 144 L 192 145.5 L 190.5 146 L 188.5 144 Z " /><path fill="rgb(75,52,54)" stroke="rgb(75,52,54)" stroke-width="1" opacity="0.996078431372549" d="M 169.5 150 L 170 152.5 L 169 152.5 L 169.5 150 Z " /><path fill="rgb(75,52,54)" stroke="rgb(75,52,54)" stroke-width="1" opacity="0.996078431372549" d="M 176 150 Q 180.6 148.8 182 151.5 L 181 161 L 175 160 L 175.5 158 L 180 160 Q 181.8 157.6 181 151.5 L 179.5 152 L 177.5 151 L 176.5 157 L 176 150 Z " /><path fill="rgb(75,52,54)" stroke="rgb(75,52,54)" stroke-width="1" opacity="0.996078431372549" d="M 29.5 155 L 30 158.5 L 29 158.5 L 29.5 155 Z " /><path fill="rgb(75,52,54)" stroke="rgb(75,52,54)" stroke-width="1" opacity="0.996078431372549" d="M 26.5 161 L 25.5 163 L 26.5 161 Z " /><path fill="rgb(75,52,54)" stroke="rgb(75,52,54)" stroke-width="1" opacity="0.996078431372549" d="M 158.5 163 L 157.5 165 L 158.5 163 Z " /><path fill="rgb(75,52,54)" stroke="rgb(75,52,54)" stroke-width="1" opacity="0.996078431372549" d="M 174.5 165 Q 176.2 168.3 182 167.5 L 176.5 168 L 174.5 165 Z " /><path fill="rgb(75,52,54)" stroke="rgb(75,52,54)" stroke-width="1" opacity="0.996078431372549" d="M 43.5 166 L 46.5 170 L 56.5 172 L 61 171 L 64.5 177 Q 67.7 179.3 74.5 178 L 79.5 182 L 85.5 182 L 93.5 178 L 107.5 177 L 117.5 182 L 125.5 182 L 139.5 171 L 151.5 171 L 155 168.5 Q 154.3 165.9 157 167 L 161 173.5 L 159.5 173 L 156 174 Q 157.1 176.7 154.5 176 Q 151.8 178.8 145.5 178 L 139 177 Q 138.4 182.4 133.5 185 Q 128 190 115.5 188 L 109 185 L 112 200 L 106 200 L 106 197.5 L 103 183 Q 92.5 182.7 87 188.5 L 87 193.5 L 85 200 L 79 200 L 79 197.5 L 81 188 L 77.5 188 L 72.5 185 L 68.5 185 L 60.5 182 L 56.5 178 L 46.5 177 L 40 173.5 Q 43.4 171.4 43.5 166 Z " /><path fill="rgb(75,52,54)" stroke="rgb(75,52,54)" stroke-width="1" opacity="0.996078431372549" d="M 165.5 169 L 166.5 171 L 165.5 169 Z " /><path fill="rgb(75,52,54)" stroke="rgb(75,52,54)" stroke-width="1" opacity="0.996078431372549" d="M 174 169 L 179 170 L 178 173.5 L 178.5 175 Q 176.3 172.3 171 172.5 L 174 172 L 174 169 Z " /><path fill="rgb(75,52,54)" stroke="rgb(75,52,54)" stroke-width="1" opacity="0.996078431372549" d="M 38.5 176 L 38 177.5 L 36.5 180 L 37 178.5 L 38.5 176 Z " /><path fill="rgb(75,52,54)" stroke="rgb(75,52,54)" stroke-width="1" opacity="0.996078431372549" d="M 172 179 L 176 180 L 174.5 183 Q 172.3 183.8 173 181.5 L 172 179 Z " /><path fill="rgb(75,52,54)" stroke="rgb(75,52,54)" stroke-width="1" opacity="0.996078431372549" d="M 187.5 179 L 186.5 181 L 187.5 179 Z " /><path fill="rgb(75,52,54)" stroke="rgb(75,52,54)" stroke-width="1" opacity="0.996078431372549" d="M 166.5 183 L 168 185.5 L 166 184.5 L 166.5 183 Z " /><path fill="rgb(230,149,57)" stroke="rgb(230,149,57)" stroke-width="1" opacity="1" d="M 147.5 23 L 148 25.5 L 147 25.5 L 147.5 23 Z " /><path fill="rgb(230,149,57)" stroke="rgb(230,149,57)" stroke-width="1" opacity="1" d="M 127.5 43 L 132 53.5 L 131 53.5 L 127.5 43 Z " /><path fill="rgb(230,149,57)" stroke="rgb(230,149,57)" stroke-width="1" opacity="1" d="M 130.5 43 L 134 45.5 L 137 54.5 L 136 54.5 L 132 44 L 130.5 43 Z " /><path fill="rgb(230,149,57)" stroke="rgb(230,149,57)" stroke-width="1" opacity="1" d="M 92.5 52 L 94 56 L 89.5 57 Q 86 55 90.5 53 L 92.5 52 Z " /><path fill="rgb(230,149,57)" stroke="rgb(230,149,57)" stroke-width="1" opacity="1" d="M 132.5 55 L 134 62 Q 138.9 63.8 137 57.5 L 138 57.5 Q 139.2 69.7 133.5 75 Q 129.1 76.5 130 73.5 L 132 69.5 L 133 60.5 Q 130.6 59.1 132.5 55 Z " /><path fill="rgb(230,149,57)" stroke="rgb(230,149,57)" stroke-width="1" opacity="1" d="M 84.5 59 L 85.5 61 L 84.5 59 Z " /><path fill="rgb(230,149,57)" stroke="rgb(230,149,57)" stroke-width="1" opacity="1" d="M 87.5 62 L 91 71.5 L 90 71.5 L 87.5 62 Z " /><path fill="rgb(230,149,57)" stroke="rgb(230,149,57)" stroke-width="1" opacity="1" d="M 92.5 62 L 95 70.5 L 94 70.5 L 92.5 62 Z " /><path fill="rgb(230,149,57)" stroke="rgb(230,149,57)" stroke-width="1" opacity="1" d="M 56.5 65 L 57 68.5 L 55 67.5 L 56.5 65 Z " /><path fill="rgb(230,149,57)" stroke="rgb(230,149,57)" stroke-width="1" opacity="1" d="M 51.5 67 L 52 69.5 L 51 69.5 L 51.5 67 Z " /><path fill="rgb(230,149,57)" stroke="rgb(230,149,57)" stroke-width="1" opacity="1" d="M 49.5 68 L 48.5 70 L 49.5 68 Z " /><path fill="rgb(230,149,57)" stroke="rgb(230,149,57)" stroke-width="1" opacity="1" d="M 163.5 71 L 164 73.5 L 161.5 77 L 162 75.5 L 163.5 71 Z " /><path fill="rgb(230,149,57)" stroke="rgb(230,149,57)" stroke-width="1" opacity="1" d="M 95.5 72 L 96 82.5 L 94 89 L 90.5 90 L 90 86.5 L 91 85.5 L 91.5 73 L 92.5 80 Q 96.3 78.3 95.5 72 Z " /><path fill="rgb(230,149,57)" stroke="rgb(230,149,57)" stroke-width="1" opacity="1" d="M 45.5 74 L 46 76.5 L 45 76.5 L 45.5 74 Z " /><path fill="rgb(230,149,57)" stroke="rgb(230,149,57)" stroke-width="1" opacity="1" d="M 49.5 74 Q 51.8 76.8 51 82.5 L 54 88.5 L 52 87.5 L 50 82.5 L 49.5 74 Z " /><path fill="rgb(230,149,57)" stroke="rgb(230,149,57)" stroke-width="1" opacity="1" d="M 46.5 78 L 47 81.5 L 46 81.5 L 46.5 78 Z " /><path fill="rgb(230,149,57)" stroke="rgb(230,149,57)" stroke-width="1" opacity="1" d="M 160.5 78 L 161 80 Q 163.7 81.1 163 78.5 L 164 78.5 Q 162.8 88.3 155.5 92 L 146.5 97 L 146 93 L 154 88 L 160.5 78 Z " /><path fill="rgb(230,149,57)" stroke="rgb(230,149,57)" stroke-width="1" opacity="1" d="M 47.5 83 Q 48.4 89.1 52.5 92 Q 54.3 88.3 56 91.5 L 58 94.5 L 59 97 L 51 93 L 47 85.5 L 47.5 83 Z " /><path fill="rgb(230,149,57)" stroke="rgb(230,149,57)" stroke-width="1" opacity="1" d="M 23.5 93 Q 25.8 93.8 25 97.5 L 22 100.5 L 17 110.5 L 13 128.5 L 13 145.5 L 16 152.5 L 14 158 Q 10.2 159.5 11 156.5 L 7 143.5 L 7 135.5 L 8 134.5 L 9 116.5 L 12 105 Q 14.7 106.1 14 103.5 L 23.5 93 Z " /><path fill="rgb(230,149,57)" stroke="rgb(230,149,57)" stroke-width="1" opacity="1" d="M 34 98 Q 37 96.8 36 100.5 Q 41.7 105.3 41 116.5 Q 38.3 118.2 40 124.5 L 36.5 129 L 36 125.5 L 37 124.5 L 37 106.5 L 34 98 Z " /><path fill="rgb(230,149,57)" stroke="rgb(230,149,57)" stroke-width="1" opacity="1" d="M 171.5 108 L 174.5 108 L 179 110.5 L 170 114 L 169 110.5 L 171.5 108 Z " /><path fill="rgb(230,149,57)" stroke="rgb(230,149,57)" stroke-width="1" opacity="1" d="M 82.5 113 L 84.5 114 L 85.5 113 L 97.5 113 Q 104.9 114.1 108 119.5 Q 109.8 124.8 104.5 123 L 103.5 124 Q 90.8 122.3 82.5 125 L 80.5 125 L 79 124.5 L 81 123.5 L 80 121.5 L 84 114 L 82.5 113 Z " /><path fill="rgb(230,149,57)" stroke="rgb(230,149,57)" stroke-width="1" opacity="1" d="M 75.5 116 L 73.5 119 L 75.5 116 Z " /><path fill="rgb(230,149,57)" stroke="rgb(230,149,57)" stroke-width="1" opacity="1" d="M 163.5 117 L 164 118.5 L 163.5 120 Q 166.1 119.3 165 122 L 162 120.5 L 163.5 117 Z " /><path fill="rgb(230,149,57)" stroke="rgb(230,149,57)" stroke-width="1" opacity="1" d="M 72.5 122 L 75 123.5 L 73.5 123 L 72.5 122 Z " /><path fill="rgb(230,149,57)" stroke="rgb(230,149,57)" stroke-width="1" opacity="1" d="M 172.5 137 Q 174.8 136.3 174 138.5 L 172.5 137 Z " /><path fill="rgb(230,149,57)" stroke="rgb(230,149,57)" stroke-width="1" opacity="1" d="M 187.5 137 L 190 143 L 192 143.5 L 187.5 144 L 182 142 Q 183.5 138.3 180.5 139 L 180.5 138 L 186 138.5 L 184 139.5 L 186.5 141 L 188 138.5 L 187.5 137 Z " /><path fill="rgb(230,149,57)" stroke="rgb(230,149,57)" stroke-width="1" opacity="1" d="M 27.5 153 L 26.5 155 L 27.5 153 Z " /><path fill="rgb(230,149,57)" stroke="rgb(230,149,57)" stroke-width="1" opacity="1" d="M 28.5 155 L 29 158.5 L 21.5 164 L 22 162.5 Q 19.9 156.7 24.5 158 L 28.5 155 Z " /><path fill="rgb(230,149,57)" stroke="rgb(230,149,57)" stroke-width="1" opacity="1" d="M 168.5 167 L 173.5 168 L 175 167.5 L 171.5 169 L 168 168 L 168 170 L 172 170 L 172 171.5 L 170.5 171 L 167 169.5 L 168.5 167 Z " /><path fill="rgb(230,149,57)" stroke="rgb(230,149,57)" stroke-width="1" opacity="1" d="M 180.5 170 L 187 173.5 L 188 176.5 L 187 179 L 180 174.5 L 183.5 174 L 186 175 Q 187.3 171.7 182.5 173 L 180 172 L 180.5 170 Z " /><path fill="rgb(230,149,57)" stroke="rgb(230,149,57)" stroke-width="1" opacity="1" d="M 36 182 Q 40.1 180.3 39 184.5 L 39 186.5 Q 39.7 189.5 36 188 L 36 182 Z " /><path fill="rgb(173,73,77)" stroke="rgb(173,73,77)" stroke-width="1" opacity="0.996078431372549" d="M 156.5 19 L 157 22.5 L 154 29 L 144.5 34 L 145 32.5 L 148 23 Q 153.4 22.7 156.5 19 Z " /><path fill="rgb(173,73,77)" stroke="rgb(173,73,77)" stroke-width="1" opacity="0.996078431372549" d="M 120.5 43 Q 127.5 41.5 127 44.5 L 132 54.5 L 133 64.5 L 130 75 Q 133.8 76 135 73.5 L 138 65.5 L 138 57.5 L 136 49.5 L 132 43.5 L 133.5 44 Q 138 43 139 45.5 Q 144.9 53.1 143 68.5 L 140 76 L 123.5 76 L 123 74.5 Q 128.7 69.2 127 56.5 L 120.5 43 Z " /><path fill="rgb(173,73,77)" stroke="rgb(173,73,77)" stroke-width="1" opacity="0.996078431372549" d="M 91.5 51 L 92 53 L 87.5 55 L 87.5 54 L 91.5 51 Z " /><path fill="rgb(173,73,77)" stroke="rgb(173,73,77)" stroke-width="1" opacity="0.996078431372549" d="M 94.5 54 Q 101.1 63.9 102 79.5 L 101 84.5 L 98.5 87 L 94.5 88 L 95 86.5 L 96 72.5 Q 94.2 62.6 90 56 Q 94.8 57.7 94.5 54 Z " /><path fill="rgb(173,73,77)" stroke="rgb(173,73,77)" stroke-width="1" opacity="0.996078431372549" d="M 83.5 56 L 84 58.5 L 91 72.5 L 91 85.5 L 88.5 91 Q 83.1 92.9 84 89.5 Q 87.1 84.1 86 74.5 Q 83.8 65.2 78 59.5 L 83.5 56 Z " /><path fill="rgb(173,73,77)" stroke="rgb(173,73,77)" stroke-width="1" opacity="0.996078431372549" d="M 158.5 60 L 164 70.5 L 160 79.5 L 154 88 L 146 93 L 146.5 97 Q 156.2 93.2 162 85.5 L 163.5 82 L 164 86.5 L 159.5 96 L 151.5 101 L 148 101 Q 149 104 146 103 L 145 93.5 Q 147.2 92.2 146 87.5 L 145.5 86 L 149 85 L 157 73.5 L 158.5 60 Z " /><path fill="rgb(173,73,77)" stroke="rgb(173,73,77)" stroke-width="1" opacity="0.996078431372549" d="M 56.5 64 L 58 64.5 L 55 66.5 L 56 74.5 L 55 77.5 Q 57.1 86.9 63.5 92 L 66 93.5 Q 64.8 96 61 95 Q 62 98 59 97 L 58 93 Q 55.3 94.1 56 91.5 L 52 85.5 L 50 73.5 L 52 66 L 56.5 64 Z " /><path fill="rgb(173,73,77)" stroke="rgb(173,73,77)" stroke-width="1" opacity="0.996078431372549" d="M 45.5 72 L 46 73.5 L 45 76.5 L 47 85.5 L 51 93 L 57 96.5 L 56 101 L 53.5 101 L 46 94.5 Q 41.7 89.3 41 80.5 L 45.5 72 Z " /><path fill="rgb(173,73,77)" stroke="rgb(173,73,77)" stroke-width="1" opacity="0.996078431372549" d="M 136.5 83 L 138 84.5 L 138 95 L 134 94 L 136.5 83 Z " /><path fill="rgb(173,73,77)" stroke="rgb(173,73,77)" stroke-width="1" opacity="0.996078431372549" d="M 36.5 106 L 37 110.5 L 36 110.5 L 36.5 106 Z " /><path fill="rgb(173,73,77)" stroke="rgb(173,73,77)" stroke-width="1" opacity="0.996078431372549" d="M 40.5 107 L 42 109.5 L 40 110 L 40.5 107 Z " /><path fill="rgb(173,73,77)" stroke="rgb(173,73,77)" stroke-width="1" opacity="0.996078431372549" d="M 168.5 111 L 170 113.5 L 169 113.5 L 168.5 111 Z " /><path fill="rgb(173,73,77)" stroke="rgb(173,73,77)" stroke-width="1" opacity="0.996078431372549" d="M 86.5 112 L 94 112.5 L 86.5 113 L 86.5 112 Z " /><path fill="rgb(173,73,77)" stroke="rgb(173,73,77)" stroke-width="1" opacity="0.996078431372549" d="M 166.5 112 L 165.5 114 L 166.5 112 Z " /><path fill="rgb(173,73,77)" stroke="rgb(173,73,77)" stroke-width="1" opacity="0.996078431372549" d="M 48.5 114 L 55 116 L 55 119 L 48 119 L 48.5 114 Z " /><path fill="rgb(173,73,77)" stroke="rgb(173,73,77)" stroke-width="1" opacity="0.996078431372549" d="M 36.5 115 L 37 124.5 L 36 124.5 L 36.5 115 Z " /><path fill="rgb(173,73,77)" stroke="rgb(173,73,77)" stroke-width="1" opacity="0.996078431372549" d="M 162.5 115 L 167 117 L 165.5 121 L 163 119.5 L 164 116 L 162.5 115 Z " /><path fill="rgb(173,73,77)" stroke="rgb(173,73,77)" stroke-width="1" opacity="0.996078431372549" d="M 105.5 116 Q 109.5 116.5 109 121.5 L 108 121.5 L 105.5 116 Z " /><path fill="rgb(173,73,77)" stroke="rgb(173,73,77)" stroke-width="1" opacity="0.996078431372549" d="M 40.5 117 L 41 123.5 L 40 123.5 L 40.5 117 Z " /><path fill="rgb(173,73,77)" stroke="rgb(173,73,77)" stroke-width="1" opacity="0.996078431372549" d="M 86.5 124 L 94 124.5 L 86.5 125 L 86.5 124 Z " /><path fill="rgb(173,73,77)" stroke="rgb(173,73,77)" stroke-width="1" opacity="0.996078431372549" d="M 35.5 128 L 38 128.5 L 35.5 132 L 35.5 128 Z " /><path fill="rgb(173,73,77)" stroke="rgb(173,73,77)" stroke-width="1" opacity="0.996078431372549" d="M 7.5 130 L 8 134.5 L 7 134.5 L 7.5 130 Z " /><path fill="rgb(173,73,77)" stroke="rgb(173,73,77)" stroke-width="1" opacity="0.996078431372549" d="M 177.5 136 Q 180.8 134.9 180 137.5 L 174.5 140 L 174 137 L 177.5 136 Z " /><path fill="rgb(173,73,77)" stroke="rgb(173,73,77)" stroke-width="1" opacity="0.996078431372549" d="M 186.5 138 Q 188.8 137.3 188 139.5 Q 186.7 142.3 185.5 140 L 184 139.5 L 186.5 138 Z " /><path fill="rgb(173,73,77)" stroke="rgb(173,73,77)" stroke-width="1" opacity="0.996078431372549" d="M 180 139 L 182 139 Q 180.5 142.8 183.5 142 L 183.5 143 L 180 141.5 L 180 139 Z " /><path fill="rgb(173,73,77)" stroke="rgb(173,73,77)" stroke-width="1" opacity="0.996078431372549" d="M 13.5 140 L 14 145.5 L 13 145.5 L 13.5 140 Z " /><path fill="rgb(173,73,77)" stroke="rgb(173,73,77)" stroke-width="1" opacity="0.996078431372549" d="M 28.5 159 L 27.5 161 L 28.5 159 Z " /><path fill="rgb(173,73,77)" stroke="rgb(173,73,77)" stroke-width="1" opacity="0.996078431372549" d="M 168.5 166 L 168.5 168 L 173.5 169 L 174.5 166 Q 175.8 169 180 168 L 180 172 L 181.5 172 L 186 173 Q 187.1 175.7 184.5 175 L 180.5 174 L 180.5 175 L 187 179.5 L 185.5 180 L 179 174.5 Q 180 170 177.5 169 L 174 169 Q 175.3 173.1 172 172 Q 173.3 168.7 168.5 170 Q 166.8 172.8 165 168.5 L 168.5 166 Z " /><path fill="rgb(173,73,77)" stroke="rgb(173,73,77)" stroke-width="1" opacity="0.996078431372549" d="M 40.5 174 L 45 176.5 L 39.5 185 L 39 182 L 36 182 L 36 188 Q 38.7 186.9 38 189.5 L 34 200 L 29 200 L 29 197.5 Q 32.9 183.9 40.5 174 Z " /><path fill="rgb(173,73,77)" stroke="rgb(173,73,77)" stroke-width="1" opacity="0.996078431372549" d="M 154.5 176 Q 159.5 175.5 160 179.5 L 170 193.5 Q 167.5 195 171 196.5 L 170.5 200 L 153 200 L 146 178 Q 151.5 178.8 154.5 176 Z " /><path fill="rgb(173,73,77)" stroke="rgb(173,73,77)" stroke-width="1" opacity="0.996078431372549" d="M 52.5 178 L 56.5 178 L 61 182.5 Q 57 189.8 57 200 L 43.5 200 L 43 196.5 L 49 182.5 L 52.5 178 Z " /><path fill="rgb(173,73,77)" stroke="rgb(173,73,77)" stroke-width="1" opacity="0.996078431372549" d="M 137.5 181 L 140 184.5 L 145 199.5 L 128 200 L 126 188 Q 133.8 187.3 137.5 181 Z " /><path fill="rgb(173,73,77)" stroke="rgb(173,73,77)" stroke-width="1" opacity="0.996078431372549" d="M 68 185 L 72.5 185 Q 75.2 188.7 81 188 L 79 200 L 65 199.5 L 68 185 Z " /><path fill="rgb(173,73,77)" stroke="rgb(173,73,77)" stroke-width="1" opacity="0.996078431372549" d="M 109 185 L 118 189.5 L 120 200 L 112 200 L 112 197.5 L 109 185 Z " /><path fill="rgb(244,214,110)" stroke="rgb(244,214,110)" stroke-width="1" opacity="1" d="M 141.5 28 L 144 28 L 144 33.5 L 141.5 36 L 131.5 36 L 128 34.5 L 129 32 L 132.5 30 L 141.5 28 Z " /><path fill="rgb(244,214,110)" stroke="rgb(244,214,110)" stroke-width="1" opacity="1" d="M 128 43 L 132 44 L 137 55.5 L 137 62 Q 133.3 63.5 134 60.5 L 132 51.5 L 128 43 Z " /><path fill="rgb(244,214,110)" stroke="rgb(244,214,110)" stroke-width="1" opacity="1" d="M 86.5 55 L 91 58.5 L 95 71.5 L 95 77.5 L 92 79.5 L 92 73.5 L 88 62 Q 85.3 63.1 86 60.5 Q 83.2 59.4 84 56 L 86.5 55 Z " /><path fill="rgb(244,214,110)" stroke="rgb(244,214,110)" stroke-width="1" opacity="1" d="M 50.5 68 L 51 71.5 L 49 76.5 L 51 85.5 L 54 90.5 Q 52 94 50 89.5 Q 45.8 83.2 46 72.5 L 47 70 L 50.5 68 Z " /><path fill="rgb(244,214,110)" stroke="rgb(244,214,110)" stroke-width="1" opacity="1" d="M 163.5 74 L 164 77.5 L 163 80 Q 160 81.3 161 77.5 L 163.5 74 Z " /><path fill="rgb(244,214,110)" stroke="rgb(244,214,110)" stroke-width="1" opacity="1" d="M 29.5 86 L 33 87 L 35 97.5 Q 33.3 100.8 31.5 97 L 26.5 96 L 25 96.5 L 23.5 93 L 13.5 105 L 13 103.5 Q 16.8 93.8 24.5 88 L 29.5 86 Z " /><path fill="rgb(244,214,110)" stroke="rgb(244,214,110)" stroke-width="1" opacity="1" d="M 167 102 L 178 109.5 L 176.5 110 Q 175.8 107.3 171.5 108 L 167.5 112 L 166 110.5 L 167 102 Z " /><path fill="rgb(244,214,110)" stroke="rgb(244,214,110)" stroke-width="1" opacity="1" d="M 84.5 113 L 84 114.5 L 80 122.5 L 80.5 124 Q 74 125 72 121.5 L 76.5 116 L 84.5 113 Z " /><path fill="rgb(244,214,110)" stroke="rgb(244,214,110)" stroke-width="1" opacity="1" d="M 162.5 116 L 164 116.5 L 161.5 120 Q 159.3 120.8 160 118.5 L 162.5 116 Z " /><path fill="rgb(244,214,110)" stroke="rgb(244,214,110)" stroke-width="1" opacity="1" d="M 188.5 129 L 190 131.5 L 191 142.5 L 190 142.5 L 187.5 137 L 186.5 138 L 180 138 Q 178.5 134.2 181.5 135 L 188.5 129 Z " /><path fill="rgb(244,214,110)" stroke="rgb(244,214,110)" stroke-width="1" opacity="1" d="M 28.5 152 L 29 154.5 Q 26.9 158.1 22 158 Q 23.3 162.6 20.5 164 L 16.5 164 L 12 159.5 L 14 156.5 L 15 153 L 20.5 156 L 23.5 156 L 28 153.5 L 28.5 152 Z " /><path fill="rgb(244,214,110)" stroke="rgb(244,214,110)" stroke-width="1" opacity="1" d="M 169.5 166 Q 175.3 164.3 174 168 Q 168.8 168.3 169.5 166 Z " /><path fill="rgb(244,214,110)" stroke="rgb(244,214,110)" stroke-width="1" opacity="1" d="M 189.5 166 L 190 169.5 L 187.5 176 L 185.5 172 L 180 169.5 L 189.5 166 Z " /><path fill="rgb(100,148,247)" stroke="rgb(100,148,247)" stroke-width="1" opacity="1" d="M 86.5 99 L 123.5 100 L 124.5 101 L 136.5 102 L 138 103.5 L 138 128.5 L 136.5 130 L 127.5 135 L 117 133 L 116 117.5 L 109.5 110 Q 101.1 103.9 85.5 105 Q 74.7 106.8 68 112 L 67.5 114 L 65 104 L 63 103.5 L 70.5 101 L 85.5 100 L 86.5 99 Z " /><path fill="rgb(94,100,75)" stroke="rgb(94,100,75)" stroke-width="1" opacity="0.996078431372549" d="M 142.5 22 L 148 22.5 L 142.5 23 L 142.5 22 Z " /><path fill="rgb(94,100,75)" stroke="rgb(94,100,75)" stroke-width="1" opacity="0.996078431372549" d="M 123.5 31 L 124 33.5 L 123 33.5 L 123.5 31 Z " /><path fill="rgb(94,100,75)" stroke="rgb(94,100,75)" stroke-width="1" opacity="0.996078431372549" d="M 125.5 35 L 129 35.5 L 125.5 36 L 125.5 35 Z " /><path fill="rgb(94,100,75)" stroke="rgb(94,100,75)" stroke-width="1" opacity="0.996078431372549" d="M 139.5 45 L 141 47.5 L 139 46.5 L 139.5 45 Z " /><path fill="rgb(94,100,75)" stroke="rgb(94,100,75)" stroke-width="1" opacity="0.996078431372549" d="M 63.5 62 L 67 62.5 L 63.5 63 L 63.5 62 Z " /><path fill="rgb(94,100,75)" stroke="rgb(94,100,75)" stroke-width="1" opacity="0.996078431372549" d="M 126.5 64 L 127 66.5 Q 125.8 73.3 121.5 77 L 115.5 78 L 101 85 L 102 77.5 L 101 75 Q 109 73.8 113.5 68 L 126.5 64 Z M 115 74 L 102 82 L 103 84 L 119 76 Q 123 77 122 74 L 120 75 L 115 74 Z " /><path fill="rgb(94,100,75)" stroke="rgb(94,100,75)" stroke-width="1" opacity="0.996078431372549" d="M 143.5 65 L 156 74 L 149 85 L 145 86 L 145 77 L 141.5 77 L 140 74.5 L 143.5 65 Z M 146 80 L 146 84 L 151 81 L 146 80 Z " /><path fill="rgb(94,100,75)" stroke="rgb(94,100,75)" stroke-width="1" opacity="0.996078431372549" d="M 55.5 75 L 56 77.5 L 55 77.5 L 55.5 75 Z " /><path fill="rgb(94,100,75)" stroke="rgb(94,100,75)" stroke-width="1" opacity="0.996078431372549" d="M 85.5 81 L 86 83.5 L 84 92 L 80 89.5 L 79.5 88 L 78.5 91 L 76.5 91 L 71.5 92 L 66 90 L 66 93 L 72.5 93 L 72.5 94 L 66.5 94 L 61 89.5 L 58 85.5 L 60.5 87 L 62.5 86 L 73.5 86 L 75.5 87 L 85 84 L 85.5 81 Z " /><path fill="rgb(94,100,75)" stroke="rgb(94,100,75)" stroke-width="1" opacity="0.996078431372549" d="M 40.5 84 L 41 88.5 L 40 88.5 L 40.5 84 Z " /><path fill="rgb(94,100,75)" stroke="rgb(94,100,75)" stroke-width="1" opacity="0.996078431372549" d="M 23.5 88 L 18.5 94 L 23.5 88 Z " /><path fill="rgb(94,100,75)" stroke="rgb(94,100,75)" stroke-width="1" opacity="0.996078431372549" d="M 76.5 92 L 80 92.5 L 76.5 93 L 76.5 92 Z " /><path fill="rgb(94,100,75)" stroke="rgb(94,100,75)" stroke-width="1" opacity="0.996078431372549" d="M 160.5 95 L 160 96.5 L 155 105 L 146.5 110 L 146 108 Q 150.9 108.1 153 104.5 L 146 103.5 L 148 103 Q 146.7 99.7 151.5 101 L 160.5 95 Z " /><path fill="rgb(94,100,75)" stroke="rgb(94,100,75)" stroke-width="1" opacity="0.996078431372549" d="M 47.5 96 L 56 102 L 56 108 L 52.5 108 L 48 104.5 L 50 99.5 L 47.5 96 Z " /><path fill="rgb(94,100,75)" stroke="rgb(94,100,75)" stroke-width="1" opacity="0.996078431372549" d="M 25.5 97 L 27 97.5 L 23.5 100 L 25.5 97 Z " /><path fill="rgb(94,100,75)" stroke="rgb(94,100,75)" stroke-width="1" opacity="0.996078431372549" d="M 30.5 97 L 34 99.5 L 32 100 Q 33.1 97.3 30.5 98 L 30.5 97 Z " /><path fill="rgb(94,100,75)" stroke="rgb(94,100,75)" stroke-width="1" opacity="0.996078431372549" d="M 45.5 101 L 46.5 103 L 45.5 101 Z " /><path fill="rgb(94,100,75)" stroke="rgb(94,100,75)" stroke-width="1" opacity="0.996078431372549" d="M 166.5 102 L 167 106.5 L 166 106.5 L 166.5 102 Z " /><path fill="rgb(94,100,75)" stroke="rgb(94,100,75)" stroke-width="1" opacity="0.996078431372549" d="M 27 104 Q 29.7 102.9 29 105.5 L 30 106.5 L 30 124.5 L 28 135.5 L 24 148 L 21 146.5 Q 18.4 140.6 20 130.5 L 21 129.5 L 22 117.5 L 27 104 Z " /><path fill="rgb(94,100,75)" stroke="rgb(94,100,75)" stroke-width="1" opacity="0.996078431372549" d="M 62.5 104 L 63 107.5 L 62 107.5 L 62.5 104 Z " /><path fill="rgb(94,100,75)" stroke="rgb(94,100,75)" stroke-width="1" opacity="0.996078431372549" d="M 173.5 105 L 174.5 107 L 173.5 105 Z " /><path fill="rgb(94,100,75)" stroke="rgb(94,100,75)" stroke-width="1" opacity="0.996078431372549" d="M 165.5 111 L 166.5 113 L 169 112 L 168.5 114 L 167.5 113 L 164.5 116 L 163 114.5 L 165.5 111 Z " /><path fill="rgb(94,100,75)" stroke="rgb(94,100,75)" stroke-width="1" opacity="0.996078431372549" d="M 47.5 114 L 48 119 L 50 119.5 L 47 120 L 47.5 114 Z " /><path fill="rgb(94,100,75)" stroke="rgb(94,100,75)" stroke-width="1" opacity="0.996078431372549" d="M 138.5 116 L 139 119.5 L 138 119.5 L 138.5 116 Z " /><path fill="rgb(94,100,75)" stroke="rgb(94,100,75)" stroke-width="1" opacity="0.996078431372549" d="M 161.5 116 L 160 118.5 Q 159.3 120.8 161.5 120 L 161.5 121 L 159 119.5 L 161.5 116 Z " /><path fill="rgb(94,100,75)" stroke="rgb(94,100,75)" stroke-width="1" opacity="0.996078431372549" d="M 8.5 119 L 9 121.5 L 8 121.5 L 8.5 119 Z " /><path fill="rgb(94,100,75)" stroke="rgb(94,100,75)" stroke-width="1" opacity="0.996078431372549" d="M 54.5 126 L 55.5 128 L 54.5 126 Z " /><path fill="rgb(94,100,75)" stroke="rgb(94,100,75)" stroke-width="1" opacity="0.996078431372549" d="M 188.5 128 L 189.5 130 L 188.5 128 Z " /><path fill="rgb(94,100,75)" stroke="rgb(94,100,75)" stroke-width="1" opacity="0.996078431372549" d="M 145 129 Q 149.6 127.8 151 130.5 L 149.5 134 L 145 135 L 145 129 Z " /><path fill="rgb(94,100,75)" stroke="rgb(94,100,75)" stroke-width="1" opacity="0.996078431372549" d="M 169.5 129 L 173 129.5 L 169.5 130 L 169.5 129 Z " /><path fill="rgb(94,100,75)" stroke="rgb(94,100,75)" stroke-width="1" opacity="0.996078431372549" d="M 13.5 130 L 14 133.5 L 13 133.5 L 13.5 130 Z " /><path fill="rgb(94,100,75)" stroke="rgb(94,100,75)" stroke-width="1" opacity="0.996078431372549" d="M 55.5 130 L 56 136 Q 52.2 137.5 53 134.5 L 53 132.5 Q 52.3 130.3 54.5 131 L 55.5 130 Z " /><path fill="rgb(94,100,75)" stroke="rgb(94,100,75)" stroke-width="1" opacity="0.996078431372549" d="M 82.5 131 L 90 131.5 L 82.5 132 L 82.5 131 Z " /><path fill="rgb(94,100,75)" stroke="rgb(94,100,75)" stroke-width="1" opacity="0.996078431372549" d="M 183.5 132 L 182.5 134 L 183.5 132 Z " /><path fill="rgb(94,100,75)" stroke="rgb(94,100,75)" stroke-width="1" opacity="0.996078431372549" d="M 172.5 138 L 173.5 140 L 172.5 138 Z " /><path fill="rgb(94,100,75)" stroke="rgb(94,100,75)" stroke-width="1" opacity="0.996078431372549" d="M 83.5 140 L 88 140.5 L 83.5 141 L 83.5 140 Z " /><path fill="rgb(94,100,75)" stroke="rgb(94,100,75)" stroke-width="1" opacity="0.996078431372549" d="M 127.5 141 L 131 141.5 L 127.5 142 L 127.5 141 Z " /><path fill="rgb(94,100,75)" stroke="rgb(94,100,75)" stroke-width="1" opacity="0.996078431372549" d="M 28.5 151 L 25.5 155 L 24 154.5 L 28.5 151 Z " /><path fill="rgb(94,100,75)" stroke="rgb(94,100,75)" stroke-width="1" opacity="0.996078431372549" d="M 177.5 151 L 179.5 152 L 181 151.5 Q 181.8 157.6 180 160 L 176 159 L 177.5 151 Z " /><path fill="rgb(94,100,75)" stroke="rgb(94,100,75)" stroke-width="1" opacity="0.996078431372549" d="M 17.5 152 L 19.5 155 L 17.5 152 Z " /><path fill="rgb(94,100,75)" stroke="rgb(94,100,75)" stroke-width="1" opacity="0.996078431372549" d="M 44.5 167 L 46.5 170 L 44.5 167 Z " /><path fill="rgb(94,100,75)" stroke="rgb(94,100,75)" stroke-width="1" opacity="0.996078431372549" d="M 154.5 168 L 153.5 170 L 154.5 168 Z " /><path fill="rgb(94,100,75)" stroke="rgb(94,100,75)" stroke-width="1" opacity="0.996078431372549" d="M 139.5 170 L 142 170.5 Q 135.8 172.3 132.5 177 L 136.5 172 L 139.5 170 Z " /><path fill="rgb(94,100,75)" stroke="rgb(94,100,75)" stroke-width="1" opacity="0.996078431372549" d="M 147.5 170 L 152 170.5 L 147.5 171 L 147.5 170 Z " /><path fill="rgb(94,100,75)" stroke="rgb(94,100,75)" stroke-width="1" opacity="0.996078431372549" d="M 52.5 171 L 57 171.5 L 52.5 172 L 52.5 171 Z " /><path fill="rgb(94,100,75)" stroke="rgb(94,100,75)" stroke-width="1" opacity="0.996078431372549" d="M 61.5 172 L 65 176.5 L 63 175.5 L 61.5 172 Z " /><path fill="rgb(94,100,75)" stroke="rgb(94,100,75)" stroke-width="1" opacity="0.996078431372549" d="M 158.5 173 L 161 174.5 L 158.5 175 L 157 175.5 L 163.5 183 L 165.5 182 L 164.5 185 L 168 186.5 L 166 186.5 L 167.5 189 L 169 188.5 L 170 191.5 L 169 191.5 L 168.5 190 L 167 190.5 L 156 174 L 158.5 173 Z " /><path fill="rgb(94,100,75)" stroke="rgb(94,100,75)" stroke-width="1" opacity="0.996078431372549" d="M 45.5 176 L 52 178.5 L 50.5 181 L 50 179 L 45.5 177 L 44 177.5 L 45.5 176 Z " /><path fill="rgb(94,100,75)" stroke="rgb(94,100,75)" stroke-width="1" opacity="0.996078431372549" d="M 100.5 176 L 107 176.5 L 100.5 177 L 100.5 176 Z " /><path fill="rgb(94,100,75)" stroke="rgb(94,100,75)" stroke-width="1" opacity="0.996078431372549" d="M 95.5 177 L 98 177.5 L 95.5 178 L 95.5 177 Z " /><path fill="rgb(94,100,75)" stroke="rgb(94,100,75)" stroke-width="1" opacity="0.996078431372549" d="M 108.5 177 L 111 177.5 L 108.5 178 L 108.5 177 Z " /><path fill="rgb(94,100,75)" stroke="rgb(94,100,75)" stroke-width="1" opacity="0.996078431372549" d="M 139 177 Q 144.4 175.5 146 178.5 L 147 181.5 L 145 180.5 L 143.5 178 Q 139.8 177.3 139 179.5 L 140 181.5 L 138 182 L 139 177 Z " /><path fill="rgb(94,100,75)" stroke="rgb(94,100,75)" stroke-width="1" opacity="0.996078431372549" d="M 112.5 178 L 113.5 180 L 112.5 178 Z " /><path fill="rgb(94,100,75)" stroke="rgb(94,100,75)" stroke-width="1" opacity="0.996078431372549" d="M 79.5 181 L 86 181.5 L 79.5 182 L 79.5 181 Z " /><path fill="rgb(94,100,75)" stroke="rgb(94,100,75)" stroke-width="1" opacity="0.996078431372549" d="M 61 182 L 68 184 L 68 188 L 66.5 188 L 67 186.5 L 66.5 185 L 64.5 185 Q 60.8 184.3 60 186.5 L 59.5 188 L 59 186.5 L 61 182 Z " /><path fill="rgb(94,100,75)" stroke="rgb(94,100,75)" stroke-width="1" opacity="0.996078431372549" d="M 147.5 183 L 149 186.5 L 148 186.5 L 147.5 183 Z " /><path fill="rgb(94,100,75)" stroke="rgb(94,100,75)" stroke-width="1" opacity="0.996078431372549" d="M 117.5 188 L 125.5 188 L 126 190.5 L 125 190.5 L 124.5 189 L 119 189 L 118.5 193 L 117.5 188 Z " /><path fill="rgb(94,100,75)" stroke="rgb(94,100,75)" stroke-width="1" opacity="0.996078431372549" d="M 66.5 190 L 67 192.5 L 66 192.5 L 66.5 190 Z " /><path fill="rgb(94,100,75)" stroke="rgb(94,100,75)" stroke-width="1" opacity="0.996078431372549" d="M 104.5 192 L 105 194.5 L 104 194.5 L 104.5 192 Z " /><path fill="rgb(94,100,75)" stroke="rgb(94,100,75)" stroke-width="1" opacity="0.996078431372549" d="M 168.5 193 L 172 195.5 L 173 200 Q 169.7 201.3 171 196.5 L 168.5 193 Z " /><path fill="rgb(234,221,196)" stroke="rgb(234,221,196)" stroke-width="1" opacity="1" d="M 140.5 23 L 147 23 L 147 26.5 L 144.5 32 L 144 28 L 135.5 29 L 129 32 L 127.5 35 L 124 33.5 Q 123.3 27.8 127.5 27 L 140.5 23 Z " /><path fill="rgb(234,221,196)" stroke="rgb(234,221,196)" stroke-width="1" opacity="1" d="M 47.5 147 L 48 150.5 L 47 150.5 L 47.5 147 Z " /><path fill="rgb(234,221,196)" stroke="rgb(234,221,196)" stroke-width="1" opacity="1" d="M 60.5 162 L 61 164.5 L 60 164.5 L 60.5 162 Z " /><path fill="rgb(229,228,231)" stroke="rgb(229,228,231)" stroke-width="1" opacity="1" d="M 115.5 124 L 117 133 L 99.5 137 L 94.5 134 L 81.5 133 L 74 135 Q 75.1 132.3 72.5 133 Q 70.5 129.8 66 130 L 66.5 127 Q 69.3 131.2 75.5 132 L 100.5 132 Q 102.3 129.3 108.5 131 L 114 128 L 115.5 124 Z " /><path fill="rgb(229,228,231)" stroke="rgb(229,228,231)" stroke-width="1" opacity="1" d="M 48.5 127 L 55 127 L 55 130 L 51 132.5 Q 50.5 136.5 53.5 137 L 64.5 137 L 71.5 143 L 75.5 143 Q 80.1 140.1 88.5 141 L 93.5 142 L 98.5 145 L 102.5 145 L 115.5 141 L 123.5 141 Q 125.3 143.8 131.5 142 L 138.5 137 L 154.5 136 L 153.5 138 Q 144 138 139 142.5 L 141 143 L 137.5 150 L 121.5 145 L 116.5 145 L 108 149.5 L 106.5 152 Q 104.8 149.2 99.5 150 L 79 166 L 74.5 173 L 70 163.5 L 69 150.5 L 66.5 147 Q 62.1 145.5 63 148.5 L 61 151.5 L 61 161.5 Q 58.5 163 60 168.5 L 58.5 170 L 54.5 171 Q 49.7 166.3 48 158.5 L 48 143.5 L 47 140 Q 42.9 138.3 44 142.5 L 42 146.5 L 40.5 162 Q 35.7 159.8 37 151.5 L 41 137.5 Q 43.3 130.8 48.5 127 Z " /><path fill="rgb(229,228,231)" stroke="rgb(229,228,231)" stroke-width="1" opacity="1" d="M 99.5 184 Q 103.7 182.7 102 187.5 L 105 200 L 87.5 200 L 87 196.5 Q 89.5 195 88 189.5 L 90.5 187 L 99.5 184 Z " /><path fill="rgb(186,197,208)" stroke="rgb(186,197,208)" stroke-width="1" opacity="1" d="M 63 104 Q 66.3 102.7 65 107.5 Q 67.8 109.2 67 114.5 L 64 121.5 L 66 129.5 L 64.5 129 L 63 128.5 L 63 104 Z " /><path fill="rgb(186,197,208)" stroke="rgb(186,197,208)" stroke-width="1" opacity="1" d="M 116.5 125 L 117 127.5 L 116 127.5 L 116.5 125 Z " /><path fill="rgb(186,197,208)" stroke="rgb(186,197,208)" stroke-width="1" opacity="1" d="M 147.5 125 Q 159 124 162 131.5 L 167 142.5 L 169 155.5 L 165.5 160 L 164 159.5 L 164 151.5 Q 161.7 150.3 163 145.5 L 159.5 138 Q 156.5 137.5 158 144.5 L 159 145.5 L 159 158.5 Q 157.5 166.1 152.5 170 Q 148.5 170.5 148 167.5 L 146 160.5 L 146 152.5 L 142.5 145 L 139.5 147 L 141 144.5 Q 141.8 142.3 139.5 143 L 139.5 142 Q 144.5 138 153.5 138 L 155 136.5 L 145.5 136 L 140.5 137 L 140.5 136 L 149.5 135 L 151 133.5 L 152 131.5 L 151 129 L 145 128 Q 143.9 125.3 146.5 126 L 147.5 125 Z " /><path fill="rgb(186,197,208)" stroke="rgb(186,197,208)" stroke-width="1" opacity="1" d="M 46.5 128 L 45.5 130 L 46.5 128 Z " /><path fill="rgb(186,197,208)" stroke="rgb(186,197,208)" stroke-width="1" opacity="1" d="M 53.5 130 L 52 132.5 L 53.5 136 L 55 136.5 L 53.5 137 Q 50.5 136.5 51 132.5 L 53.5 130 Z " /><path fill="rgb(186,197,208)" stroke="rgb(186,197,208)" stroke-width="1" opacity="1" d="M 71.5 130 L 73 130.5 L 71 131.5 L 71.5 133 Q 68.5 131.5 71.5 130 Z " /><path fill="rgb(186,197,208)" stroke="rgb(186,197,208)" stroke-width="1" opacity="1" d="M 96.5 131 L 101 131.5 L 96.5 132 L 96.5 131 Z " /><path fill="rgb(186,197,208)" stroke="rgb(186,197,208)" stroke-width="1" opacity="1" d="M 81.5 133 L 90 133.5 L 81.5 134 L 81.5 133 Z " /><path fill="rgb(186,197,208)" stroke="rgb(186,197,208)" stroke-width="1" opacity="1" d="M 96.5 135 L 99 136.5 L 97.5 136 L 96.5 135 Z " /><path fill="rgb(186,197,208)" stroke="rgb(186,197,208)" stroke-width="1" opacity="1" d="M 58.5 136 L 62 136.5 L 58.5 137 L 58.5 136 Z " /><path fill="rgb(186,197,208)" stroke="rgb(186,197,208)" stroke-width="1" opacity="1" d="M 67.5 138 L 69.5 141 L 67.5 138 Z " /><path fill="rgb(186,197,208)" stroke="rgb(186,197,208)" stroke-width="1" opacity="1" d="M 45.5 140 L 47 140.5 L 45 141 L 43.5 145 L 43 143.5 L 45.5 140 Z " /><path fill="rgb(186,197,208)" stroke="rgb(186,197,208)" stroke-width="1" opacity="1" d="M 132.5 140 L 131.5 142 L 132.5 140 Z " /><path fill="rgb(186,197,208)" stroke="rgb(186,197,208)" stroke-width="1" opacity="1" d="M 47.5 143 L 48 146.5 L 47 146.5 L 47.5 143 Z " /><path fill="rgb(186,197,208)" stroke="rgb(186,197,208)" stroke-width="1" opacity="1" d="M 116.5 145 L 121.5 145 L 137.5 150 L 139 149.5 L 138 151.5 L 138 163.5 L 136 172.5 L 129.5 179 Q 125.8 182.3 117.5 181 L 112 178 L 109 171.5 L 106 159.5 L 106 153.5 L 103.5 151 Q 98 150 97 153.5 Q 94.7 158.3 96 166.5 L 93 178 L 86.5 181 L 79.5 181 L 75 177.5 L 71 167.5 L 72 167.5 L 74.5 173 L 79 166 L 99.5 150 L 103.5 150 L 106.5 152 L 109.5 148 L 116.5 145 Z " /><path fill="rgb(186,197,208)" stroke="rgb(186,197,208)" stroke-width="1" opacity="1" d="M 42.5 146 L 43 150.5 L 42 150.5 L 42.5 146 Z " /><path fill="rgb(186,197,208)" stroke="rgb(186,197,208)" stroke-width="1" opacity="1" d="M 63.5 147 L 64 148.5 L 62 149.5 L 63.5 147 Z " /><path fill="rgb(186,197,208)" stroke="rgb(186,197,208)" stroke-width="1" opacity="1" d="M 66.5 147 Q 70 149 69 155.5 L 68 155.5 Q 68.6 149 66.5 147 Z " /><path fill="rgb(186,197,208)" stroke="rgb(186,197,208)" stroke-width="1" opacity="1" d="M 47.5 151 L 48 156.5 L 47 156.5 L 47.5 151 Z " /><path fill="rgb(186,197,208)" stroke="rgb(186,197,208)" stroke-width="1" opacity="1" d="M 61.5 151 L 62 158.5 L 61 158.5 L 61.5 151 Z " /><path fill="rgb(186,197,208)" stroke="rgb(186,197,208)" stroke-width="1" opacity="1" d="M 41.5 153 L 42 161.5 L 41 161.5 L 41.5 153 Z " /><path fill="rgb(186,197,208)" stroke="rgb(186,197,208)" stroke-width="1" opacity="1" d="M 36.5 155 Q 36.4 160.1 40 161.5 L 36 158.5 L 36.5 155 Z " /><path fill="rgb(186,197,208)" stroke="rgb(186,197,208)" stroke-width="1" opacity="1" d="M 48.5 159 L 49 161.5 L 48 161.5 L 48.5 159 Z " /><path fill="rgb(186,197,208)" stroke="rgb(186,197,208)" stroke-width="1" opacity="1" d="M 69.5 159 L 70 161.5 L 69 161.5 L 69.5 159 Z " /><path fill="rgb(186,197,208)" stroke="rgb(186,197,208)" stroke-width="1" opacity="1" d="M 49.5 163 L 54 170.5 L 52 171 L 49.5 163 Z " /><path fill="rgb(186,197,208)" stroke="rgb(186,197,208)" stroke-width="1" opacity="1" d="M 60.5 165 L 61 168.5 L 60 168.5 L 60.5 165 Z " /><path fill="rgb(186,197,208)" stroke="rgb(186,197,208)" stroke-width="1" opacity="1" d="M 56.5 170 L 59 170.5 L 56.5 171 L 56.5 170 Z " /><path fill="rgb(186,197,208)" stroke="rgb(186,197,208)" stroke-width="1" opacity="1" d="M 102.5 185 L 103 187.5 L 102 187.5 L 102.5 185 Z " /><path fill="rgb(186,197,208)" stroke="rgb(186,197,208)" stroke-width="1" opacity="1" d="M 89.5 187 L 88.5 189 L 89.5 187 Z " /><path fill="rgb(186,197,208)" stroke="rgb(186,197,208)" stroke-width="1" opacity="1" d="M 87.5 192 L 88 195.5 L 87 195.5 L 87.5 192 Z " /><path fill="rgb(112,133,145)" stroke="rgb(112,133,145)" stroke-width="1" opacity="0.996078431372549" d="M 126.5 27 L 125.5 29 L 126.5 27 Z " /><path fill="rgb(112,133,145)" stroke="rgb(112,133,145)" stroke-width="1" opacity="0.996078431372549" d="M 143.5 34 L 142.5 36 L 143.5 34 Z " /><path fill="rgb(112,133,145)" stroke="rgb(112,133,145)" stroke-width="1" opacity="0.996078431372549" d="M 113.5 43 Q 119.5 41.5 121 44.5 L 119.5 44 Q 112.1 43.1 108.5 46 L 109.5 44 L 113.5 43 Z " /><path fill="rgb(112,133,145)" stroke="rgb(112,133,145)" stroke-width="1" opacity="0.996078431372549" d="M 100.5 47 Q 103.1 46.2 102 49.5 Q 104.3 50.8 101.5 52 Q 94.5 50.5 95 53.5 L 92 51.5 L 100.5 47 Z " /><path fill="rgb(112,133,145)" stroke="rgb(112,133,145)" stroke-width="1" opacity="0.996078431372549" d="M 143.5 59 L 144 64.5 L 143 64.5 L 143.5 59 Z " /><path fill="rgb(112,133,145)" stroke="rgb(112,133,145)" stroke-width="1" opacity="0.996078431372549" d="M 78.5 60 L 82 65.5 L 81 68 L 64 74 L 63 68.5 L 63.5 67 L 57 68 L 58.5 64 L 65.5 64 Q 70.4 61.1 78 62 L 78.5 60 Z " /><path fill="rgb(112,133,145)" stroke="rgb(112,133,145)" stroke-width="1" opacity="0.996078431372549" d="M 83.5 99 L 86 99.5 L 83.5 100 L 83.5 99 Z " /><path fill="rgb(112,133,145)" stroke="rgb(112,133,145)" stroke-width="1" opacity="0.996078431372549" d="M 112.5 99 L 117 99.5 L 112.5 100 L 112.5 99 Z " /><path fill="rgb(112,133,145)" stroke="rgb(112,133,145)" stroke-width="1" opacity="0.996078431372549" d="M 137.5 102 L 139 103.5 L 139 115.5 L 138 115.5 L 138 103.5 L 137.5 102 Z " /><path fill="rgb(112,133,145)" stroke="rgb(112,133,145)" stroke-width="1" opacity="0.996078431372549" d="M 85.5 105 L 89 105.5 L 85.5 106 L 85.5 105 Z " /><path fill="rgb(112,133,145)" stroke="rgb(112,133,145)" stroke-width="1" opacity="0.996078431372549" d="M 91.5 105 L 96 105.5 L 91.5 106 L 91.5 105 Z " /><path fill="rgb(112,133,145)" stroke="rgb(112,133,145)" stroke-width="1" opacity="0.996078431372549" d="M 62.5 108 L 63 129 L 65 129.5 L 63.5 130 L 62 128.5 L 62.5 108 Z " /><path fill="rgb(112,133,145)" stroke="rgb(112,133,145)" stroke-width="1" opacity="0.996078431372549" d="M 71.5 110 L 70.5 112 L 71.5 110 Z " /><path fill="rgb(112,133,145)" stroke="rgb(112,133,145)" stroke-width="1" opacity="0.996078431372549" d="M 109.5 110 L 110.5 112 L 109.5 110 Z " /><path fill="rgb(112,133,145)" stroke="rgb(112,133,145)" stroke-width="1" opacity="0.996078431372549" d="M 68.5 112 L 69 113.5 L 67 114.5 L 68.5 112 Z " /><path fill="rgb(112,133,145)" stroke="rgb(112,133,145)" stroke-width="1" opacity="0.996078431372549" d="M 66.5 126 L 67.5 128 L 66.5 126 Z " /><path fill="rgb(112,133,145)" stroke="rgb(112,133,145)" stroke-width="1" opacity="0.996078431372549" d="M 157.5 126 L 160.5 130 L 157.5 126 Z " /><path fill="rgb(112,133,145)" stroke="rgb(112,133,145)" stroke-width="1" opacity="0.996078431372549" d="M 55.5 128 L 56 129.5 L 54 130.5 L 55.5 128 Z " /><path fill="rgb(112,133,145)" stroke="rgb(112,133,145)" stroke-width="1" opacity="0.996078431372549" d="M 145.5 128 L 149 128.5 L 145.5 129 L 145.5 128 Z " /><path fill="rgb(112,133,145)" stroke="rgb(112,133,145)" stroke-width="1" opacity="0.996078431372549" d="M 103.5 130 L 107 130.5 L 103.5 131 L 103.5 130 Z " /><path fill="rgb(112,133,145)" stroke="rgb(112,133,145)" stroke-width="1" opacity="0.996078431372549" d="M 77.5 131 L 82 131.5 L 77.5 132 L 77.5 131 Z " /><path fill="rgb(112,133,145)" stroke="rgb(112,133,145)" stroke-width="1" opacity="0.996078431372549" d="M 90.5 131 L 96 131.5 L 90.5 132 L 90.5 131 Z " /><path fill="rgb(112,133,145)" stroke="rgb(112,133,145)" stroke-width="1" opacity="0.996078431372549" d="M 72.5 133 L 73.5 135 L 72.5 133 Z " /><path fill="rgb(112,133,145)" stroke="rgb(112,133,145)" stroke-width="1" opacity="0.996078431372549" d="M 117.5 133 L 122 133.5 L 117.5 134 L 117.5 133 Z " /><path fill="rgb(112,133,145)" stroke="rgb(112,133,145)" stroke-width="1" opacity="0.996078431372549" d="M 150.5 133 L 149.5 135 L 147 134.5 L 150.5 133 Z " /><path fill="rgb(112,133,145)" stroke="rgb(112,133,145)" stroke-width="1" opacity="0.996078431372549" d="M 142.5 135 L 145 135.5 L 142.5 136 L 142.5 135 Z " /><path fill="rgb(112,133,145)" stroke="rgb(112,133,145)" stroke-width="1" opacity="0.996078431372549" d="M 55.5 136 L 58 136.5 L 55.5 137 L 55.5 136 Z " /><path fill="rgb(112,133,145)" stroke="rgb(112,133,145)" stroke-width="1" opacity="0.996078431372549" d="M 99.5 137 L 102 137.5 L 99.5 138 L 99.5 137 Z " /><path fill="rgb(112,133,145)" stroke="rgb(112,133,145)" stroke-width="1" opacity="0.996078431372549" d="M 134.5 138 L 133.5 140 L 134.5 138 Z " /><path fill="rgb(112,133,145)" stroke="rgb(112,133,145)" stroke-width="1" opacity="0.996078431372549" d="M 158 138 L 161 139.5 L 163 145.5 L 164 159.5 L 165 160.5 L 159.5 162 L 157.5 164 L 158 162.5 Q 160.3 155.8 159 145.5 L 158 144.5 L 158 138 Z " /><path fill="rgb(112,133,145)" stroke="rgb(112,133,145)" stroke-width="1" opacity="0.996078431372549" d="M 118.5 140 L 121 140.5 L 118.5 141 L 118.5 140 Z " /><path fill="rgb(112,133,145)" stroke="rgb(112,133,145)" stroke-width="1" opacity="0.996078431372549" d="M 45 141 L 47 141.5 L 47 156.5 L 52 171 Q 46.4 170.9 44 166.5 L 41 162.5 L 42 161.5 L 43 145.5 L 45 141 Z " /><path fill="rgb(112,133,145)" stroke="rgb(112,133,145)" stroke-width="1" opacity="0.996078431372549" d="M 72.5 142 L 75 142.5 L 72.5 143 L 72.5 142 Z " /><path fill="rgb(112,133,145)" stroke="rgb(112,133,145)" stroke-width="1" opacity="0.996078431372549" d="M 99.5 144 L 102 144.5 L 99.5 145 L 99.5 144 Z " /><path fill="rgb(112,133,145)" stroke="rgb(112,133,145)" stroke-width="1" opacity="0.996078431372549" d="M 141.5 145 L 144 146.5 L 146 152.5 L 147 164.5 L 150 169.5 L 142.5 171 L 139.5 170 L 136 172 L 138 163.5 L 138 151.5 L 139 147.5 L 141.5 145 Z " /><path fill="rgb(112,133,145)" stroke="rgb(112,133,145)" stroke-width="1" opacity="0.996078431372549" d="M 64 147 L 67 148.5 L 71 169.5 L 77 179.5 L 73.5 177 L 68.5 178 L 64 175.5 L 60.5 171 L 59 170.5 L 61 168.5 L 62 150.5 L 64 147 Z " /><path fill="rgb(112,133,145)" stroke="rgb(112,133,145)" stroke-width="1" opacity="0.996078431372549" d="M 99.5 151 Q 105 150 106 153.5 L 106 159.5 L 109 171.5 L 112 177.5 L 110.5 177 L 100.5 176 L 89.5 180 L 89.5 179 L 93 178 L 96 166.5 L 96 156.5 L 99.5 151 Z " /><path fill="rgb(112,133,145)" stroke="rgb(112,133,145)" stroke-width="1" opacity="0.996078431372549" d="M 36.5 159 L 37.5 161 L 36.5 159 Z " /><path fill="rgb(112,133,145)" stroke="rgb(112,133,145)" stroke-width="1" opacity="0.996078431372549" d="M 155.5 166 L 154.5 168 L 155.5 166 Z " /><path fill="rgb(112,133,145)" stroke="rgb(112,133,145)" stroke-width="1" opacity="0.996078431372549" d="M 131.5 177 L 130.5 179 L 131.5 177 Z " /><path fill="rgb(112,133,145)" stroke="rgb(112,133,145)" stroke-width="1" opacity="0.996078431372549" d="M 113.5 178 L 114.5 180 L 113.5 178 Z " /><path fill="rgb(112,133,145)" stroke="rgb(112,133,145)" stroke-width="1" opacity="0.996078431372549" d="M 119.5 181 L 124 181.5 L 119.5 182 L 119.5 181 Z " /><path fill="rgb(112,133,145)" stroke="rgb(112,133,145)" stroke-width="1" opacity="0.996078431372549" d="M 99.5 183 Q 103.9 181.5 103 184.5 L 101.5 184 Q 98.5 184.5 99.5 183 Z " /><path fill="rgb(112,133,145)" stroke="rgb(112,133,145)" stroke-width="1" opacity="0.996078431372549" d="M 38 188 L 40 188.5 L 39 191.5 L 40 195 L 37 196.5 Q 38.3 201.3 35 200 L 38 188 Z " /><path fill="rgb(112,133,145)" stroke="rgb(112,133,145)" stroke-width="1" opacity="0.996078431372549" d="M 87.5 189 L 88 191.5 L 87 191.5 L 87.5 189 Z " /><path fill="rgb(112,133,145)" stroke="rgb(112,133,145)" stroke-width="1" opacity="0.996078431372549" d="M 57.5 197 L 58 199.5 L 57 199.5 L 57.5 197 Z " /></svg>