<svg width="200" height="200" version="1.1" xmlns="http://www.w3.org/2000/svg" desc="Created with imagetracer.js version 1.2.6" ><path fill="rgb(0,0,0)" stroke="rgb(0,0,0)" stroke-width="1" opacity="0.09019607843137255" d="M 104.5 30 Q 110.3 29.3 111 33.5 L 112 35.5 L 110 34.5 L 107.5 31 Q 103.5 31.8 104.5 30 Z " /><path fill="rgb(0,0,0)" stroke="rgb(0,0,0)" stroke-width="1" opacity="0.09019607843137255" d="M 102.5 31 L 101 33.5 L 91.5 49 L 91 47.5 Q 95.3 37.8 102.5 31 Z " /><path fill="rgb(0,0,0)" stroke="rgb(0,0,0)" stroke-width="1" opacity="0.09019607843137255" d="M 112.5 37 L 119.5 52 L 127.5 47 L 130.5 47 Q 134.8 48.8 133 56.5 L 132 56.5 Q 133.8 49.8 130.5 48 L 127.5 48 L 118 53 L 112.5 37 Z " /><path fill="rgb(0,0,0)" stroke="rgb(0,0,0)" stroke-width="1" opacity="0.09019607843137255" d="M 78.5 44 L 81 44.5 L 76 47.5 L 74.5 54 L 74 49.5 L 78.5 44 Z " /><path fill="rgb(0,0,0)" stroke="rgb(0,0,0)" stroke-width="1" opacity="0.09019607843137255" d="M 82.5 45 L 88.5 50 L 91 50 L 90.5 52 Q 84.4 49.3 82.5 45 Z " /><path fill="rgb(0,0,0)" stroke="rgb(0,0,0)" stroke-width="1" opacity="0.09019607843137255" d="M 74.5 58 L 75 61 L 63 60.5 L 74 60 L 74.5 58 Z " /><path fill="rgb(0,0,0)" stroke="rgb(0,0,0)" stroke-width="1" opacity="0.09019607843137255" d="M 51.5 60 L 55 60.5 L 50 62.5 L 49.5 67 L 49 62.5 L 51.5 60 Z " /><path fill="rgb(0,0,0)" stroke="rgb(0,0,0)" stroke-width="1" opacity="0.09019607843137255" d="M 132.5 60 L 144.5 60 L 145.5 61 L 158.5 62 L 163 65.5 L 163 69.5 L 158.5 74 L 144 85.5 L 145 88.5 L 144 88.5 L 143 85.5 L 162 69.5 Q 163 65 160.5 64 L 144.5 61 L 132.5 61 L 132.5 60 Z " /><path fill="rgb(0,0,0)" stroke="rgb(0,0,0)" stroke-width="1" opacity="0.09019607843137255" d="M 50.5 68 L 58.5 78 L 61 79.5 Q 61.5 84.5 57.5 85 L 51.5 86 L 51.5 85 L 57.5 84 L 59 82.5 L 60 79 L 52 72.5 L 50.5 68 Z " /><path fill="rgb(0,0,0)" stroke="rgb(0,0,0)" stroke-width="1" opacity="0.09019607843137255" d="M 47.5 86 L 50 86.5 L 42.5 89 L 42.5 88 L 47.5 86 Z " /><path fill="rgb(0,0,0)" stroke="rgb(0,0,0)" stroke-width="1" opacity="0.09019607843137255" d="M 39.5 89 L 41 89.5 L 31.5 94 L 21 102 Q 17.3 109.5 16.5 121 L 16 115.5 L 18 106.5 L 23.5 99 L 39.5 89 Z " /><path fill="rgb(0,0,0)" stroke="rgb(0,0,0)" stroke-width="1" opacity="0.09019607843137255" d="M 157.5 93 L 161 94.5 L 159.5 95 L 157.5 93 Z " /><path fill="rgb(0,0,0)" stroke="rgb(0,0,0)" stroke-width="1" opacity="0.09019607843137255" d="M 162.5 95 L 170 99.5 L 168.5 99 Q 162.9 98.2 162.5 95 Z " /><path fill="rgb(0,0,0)" stroke="rgb(0,0,0)" stroke-width="1" opacity="0.09019607843137255" d="M 171.5 100 Q 185.5 106.5 195 117.5 L 196 125.5 L 188.5 147 L 188 145.5 L 194 129.5 L 195 119.5 L 187.5 111 L 172.5 102 L 171.5 100 Z " /><path fill="rgb(0,0,0)" stroke="rgb(0,0,0)" stroke-width="1" opacity="0.09019607843137255" d="M 15.5 122 L 17 135.5 L 19.5 139 L 23 140 L 22.5 142 L 17 137.5 L 15 130.5 L 15.5 122 Z " /><path fill="rgb(0,0,0)" stroke="rgb(0,0,0)" stroke-width="1" opacity="0.09019607843137255" d="M 21.5 143 L 22 150 L 12 157.5 Q 9.3 159.8 10 165.5 Q 12.9 175.1 20.5 180 L 27 182.5 L 24.5 183 L 14 174.5 Q 9 170.5 9 161.5 L 16.5 152 L 21 148.5 L 21.5 143 Z " /><path fill="rgb(0,0,0)" stroke="rgb(0,0,0)" stroke-width="1" opacity="0.09019607843137255" d="M 187.5 148 L 188 149.5 L 185.5 153 L 179 154 L 177.5 161 L 177 158.5 L 179.5 153 L 186 152 L 187.5 148 Z " /><path fill="rgb(0,0,0)" stroke="rgb(0,0,0)" stroke-width="1" opacity="0.09019607843137255" d="M 178.5 172 L 179 176.5 L 168.5 186 L 171.5 182 L 178 176.5 L 178.5 172 Z " /><path fill="rgb(0,0,0)" stroke="rgb(0,0,0)" stroke-width="1" opacity="0.09019607843137255" d="M 40.5 177 L 53 178.5 L 45.5 179 L 40.5 178 Q 37.3 183.8 28.5 184 L 28.5 183 L 34.5 182 L 40.5 177 Z " /><path fill="rgb(0,0,0)" stroke="rgb(0,0,0)" stroke-width="1" opacity="0.09019607843137255" d="M 54.5 179 L 64 179.5 L 47.5 182 L 41 187.5 L 40 195.5 L 43 199.5 L 40 197.5 L 39 189.5 L 45.5 182 L 54.5 179 Z " /><path fill="rgb(0,0,0)" stroke="rgb(0,0,0)" stroke-width="1" opacity="0.09019607843137255" d="M 123.5 183 L 132 184.5 L 126.5 185 L 123.5 184 L 123.5 183 Z " /><path fill="rgb(0,0,0)" stroke="rgb(0,0,0)" stroke-width="1" opacity="0.09019607843137255" d="M 122.5 185 L 125 186.5 L 122 187 L 122.5 185 Z " /><path fill="rgb(0,0,0)" stroke="rgb(0,0,0)" stroke-width="1" opacity="0.09019607843137255" d="M 133.5 185 L 145.5 185 L 148 187.5 Q 147.3 189.8 149.5 189 L 158 190.5 L 150.5 191 L 147 188.5 L 145.5 186 L 133.5 186 L 133.5 185 Z " /><path fill="rgb(0,0,0)" stroke="rgb(0,0,0)" stroke-width="1" opacity="0.09019607843137255" d="M 166.5 186 L 165.5 188 L 159.5 190 L 159.5 189 L 166.5 186 Z " /><path fill="rgb(0,0,0)" stroke="rgb(0,0,0)" stroke-width="1" opacity="0.09019607843137255" d="M 126.5 187 L 134 188.5 L 131.5 189 L 126.5 188 L 126.5 187 Z " /><path fill="rgb(0,0,0)" stroke="rgb(0,0,0)" stroke-width="1" opacity="0.09019607843137255" d="M 135.5 189 Q 141.9 189.7 144 194.5 L 143.5 196 L 140.5 192 L 135.5 190 L 135.5 189 Z " /><path fill="rgb(0,0,0)" stroke="rgb(0,0,0)" stroke-width="1" opacity="0" d="M 0 0 L 200 0 L 200 200 L 144.5 200 L 144 198.5 L 144 196.5 L 144 194.5 L 139.5 190 L 123 186 Q 121.8 183 125.5 184 L 133.5 186 L 145.5 186 L 147 187.5 L 148.5 190 L 157.5 191 Q 171.3 186.8 179 176.5 L 179 172.5 L 176 164.5 L 179 154 Q 184.7 155 187 151.5 L 195 129.5 L 196 119.5 L 187.5 110 L 158.5 93 L 145 89 L 144 85.5 L 163 69.5 Q 164 64 160.5 63 L 144.5 60 L 133 60 L 133 49.5 L 130.5 47 L 127.5 47 L 119.5 52 L 111 33.5 L 107.5 30 Q 101.1 30.1 99 34.5 Q 93 40.8 91 50 L 88.5 50 Q 85.5 45 78.5 44 L 74 49.5 L 74 60 L 51.5 60 L 49 62.5 L 50 69.5 L 58.5 79 Q 60.8 78.3 60 80.5 L 57.5 84 Q 33.4 87.9 20 102.5 Q 14.6 113.6 15 130.5 L 16 135.5 L 19.5 140 L 22 141.5 L 21 148.5 L 17.5 152 L 11 157.5 Q 8.3 159.8 9 165.5 L 11 170.5 L 20.5 181 Q 24.8 184.2 32.5 184 L 40.5 178 L 44.5 178 L 45.5 179 L 54 179.5 Q 44 180.5 40 187.5 L 39 195.5 L 42 199.5 L 0 200 L 0 0 Z " /><path fill="rgb(203,227,213)" stroke="rgb(203,227,213)" stroke-width="1" opacity="1" d="M 105.5 38 L 116.5 62 L 126 57 L 127 65.5 L 128.5 67 L 144.5 67 L 153 68.5 L 137 82.5 L 136 84.5 L 137 87 Q 133.7 84.9 125.5 86 Q 124.3 88.3 123 85.5 L 122 80 L 115.5 79 L 109.5 81 L 105.5 75 L 101.5 75 L 94.5 81 L 92.5 81 Q 91.1 77.4 85.5 78 Q 80.5 81.2 80 88 Q 75.9 89.3 77 86 L 73.5 86 L 68 83.5 L 69 79.5 L 57 67.5 L 57 66 L 77.5 68 L 82 64.5 L 80 54.5 Q 81.3 51.8 82.5 54 L 95 61 Q 96 45.9 105.5 38 Z " /><path fill="rgb(203,227,213)" stroke="rgb(203,227,213)" stroke-width="1" opacity="1" d="M 62.5 90 Q 66.3 88.8 65 92.5 L 66 94.5 L 63.5 100 Q 59.8 99.3 59 101.5 Q 60.3 106.8 57.5 108 L 49.5 98 L 47 98 L 47 103 L 41.5 103 L 38 102 Q 39.3 106.6 36.5 108 Q 32.5 107.5 32 110.5 L 32 119.5 Q 26.3 123.3 25 131.5 Q 27.2 132.8 24.5 134 L 23 132.5 L 23 118.5 L 26 107.5 L 31.5 102 L 46.5 94 L 62.5 90 Z " /><path fill="rgb(203,227,213)" stroke="rgb(203,227,213)" stroke-width="1" opacity="1" d="M 124.5 93 L 140 95 Q 141.3 98.3 136.5 97 L 133 98 Q 134.3 101.3 129.5 100 L 124.5 97 L 122 104 L 117.5 102 L 114.5 107 L 114 105.5 L 120 94 L 124.5 93 Z " /><path fill="rgb(203,227,213)" stroke="rgb(203,227,213)" stroke-width="1" opacity="1" d="M 130.5 117 L 136 121.5 L 129 126.5 Q 127.8 133.2 131 135.5 L 124.5 140 L 122 136.5 L 121 129.5 Q 123.9 121.4 130.5 117 Z " /><path fill="rgb(203,227,213)" stroke="rgb(203,227,213)" stroke-width="1" opacity="1" d="M 44.5 123 L 47 126.5 Q 43.4 129.4 45 137.5 L 42 142 L 38 139.5 L 38 131.5 L 44.5 123 Z " /><path fill="rgb(124,130,145)" stroke="rgb(124,130,145)" stroke-width="1" opacity="1" d="M 94.5 59 L 93.5 61 L 94.5 59 Z " /><path fill="rgb(124,130,145)" stroke="rgb(124,130,145)" stroke-width="1" opacity="1" d="M 57.5 68 L 58.5 70 L 57.5 68 Z " /><path fill="rgb(124,130,145)" stroke="rgb(124,130,145)" stroke-width="1" opacity="1" d="M 61.5 72 L 62.5 74 L 61.5 72 Z " /><path fill="rgb(124,130,145)" stroke="rgb(124,130,145)" stroke-width="1" opacity="1" d="M 149.5 72 L 148.5 74 L 149.5 72 Z " /><path fill="rgb(124,130,145)" stroke="rgb(124,130,145)" stroke-width="1" opacity="1" d="M 95.5 80 L 94.5 82 L 95.5 80 Z " /><path fill="rgb(124,130,145)" stroke="rgb(124,130,145)" stroke-width="1" opacity="1" d="M 120.5 80 L 121.5 82 L 120.5 80 Z " /><path fill="rgb(124,130,145)" stroke="rgb(124,130,145)" stroke-width="1" opacity="1" d="M 72.5 95 L 73 103 L 82 103.5 L 73.5 104 L 72 102.5 L 72.5 95 Z " /><path fill="rgb(124,130,145)" stroke="rgb(124,130,145)" stroke-width="1" opacity="1" d="M 100.5 97 L 110 98 L 108 103 L 89.5 103 L 89 100.5 L 88.5 99 L 99.5 98 L 100.5 97 Z " /><path fill="rgb(124,130,145)" stroke="rgb(124,130,145)" stroke-width="1" opacity="1" d="M 81.5 98 L 82 101.5 L 81 101.5 L 81.5 98 Z " /><path fill="rgb(124,130,145)" stroke="rgb(124,130,145)" stroke-width="1" opacity="1" d="M 162.5 103 L 163.5 105 L 162.5 103 Z " /><path fill="rgb(124,130,145)" stroke="rgb(124,130,145)" stroke-width="1" opacity="1" d="M 67.5 108 L 68.5 110 L 67.5 108 Z " /><path fill="rgb(124,130,145)" stroke="rgb(124,130,145)" stroke-width="1" opacity="1" d="M 133.5 108 L 137 108.5 L 133.5 109 L 133.5 108 Z " /><path fill="rgb(124,130,145)" stroke="rgb(124,130,145)" stroke-width="1" opacity="1" d="M 144.5 108 L 147 108.5 L 144.5 109 L 144.5 108 Z " /><path fill="rgb(124,130,145)" stroke="rgb(124,130,145)" stroke-width="1" opacity="1" d="M 171.5 108 Q 175 110 170.5 112 L 171.5 108 Z " /><path fill="rgb(124,130,145)" stroke="rgb(124,130,145)" stroke-width="1" opacity="1" d="M 152.5 111 L 156.5 116 L 152.5 111 Z " /><path fill="rgb(124,130,145)" stroke="rgb(124,130,145)" stroke-width="1" opacity="1" d="M 49.5 113 L 53 113.5 L 49.5 114 L 49.5 113 Z " /><path fill="rgb(124,130,145)" stroke="rgb(124,130,145)" stroke-width="1" opacity="1" d="M 57.5 113 L 61 113.5 L 57.5 114 L 57.5 113 Z " /><path fill="rgb(124,130,145)" stroke="rgb(124,130,145)" stroke-width="1" opacity="1" d="M 123.5 113 L 122.5 115 L 123.5 113 Z " /><path fill="rgb(124,130,145)" stroke="rgb(124,130,145)" stroke-width="1" opacity="1" d="M 169.5 113 L 169 114.5 L 164.5 123 L 165 121.5 L 169.5 113 Z " /><path fill="rgb(124,130,145)" stroke="rgb(124,130,145)" stroke-width="1" opacity="1" d="M 65.5 115 L 66.5 117 L 65.5 115 Z " /><path fill="rgb(124,130,145)" stroke="rgb(124,130,145)" stroke-width="1" opacity="1" d="M 41.5 116 L 40.5 118 L 41.5 116 Z " /><path fill="rgb(124,130,145)" stroke="rgb(124,130,145)" stroke-width="1" opacity="1" d="M 69.5 119 L 70.5 121 L 69.5 119 Z " /><path fill="rgb(124,130,145)" stroke="rgb(124,130,145)" stroke-width="1" opacity="1" d="M 37.5 120 L 35.5 123 L 37.5 120 Z " /><path fill="rgb(124,130,145)" stroke="rgb(124,130,145)" stroke-width="1" opacity="1" d="M 72.5 124 L 73.5 126 L 72.5 124 Z " /><path fill="rgb(124,130,145)" stroke="rgb(124,130,145)" stroke-width="1" opacity="1" d="M 160.5 124 L 162 128.5 L 160.5 131 L 160.5 124 Z " /><path fill="rgb(124,130,145)" stroke="rgb(124,130,145)" stroke-width="1" opacity="1" d="M 82.5 125 L 104 125.5 L 82.5 126 L 82.5 125 Z " /><path fill="rgb(124,130,145)" stroke="rgb(124,130,145)" stroke-width="1" opacity="1" d="M 77.5 126 L 81 126.5 L 77.5 127 L 77.5 126 Z " /><path fill="rgb(124,130,145)" stroke="rgb(124,130,145)" stroke-width="1" opacity="1" d="M 105.5 126 L 111 126.5 L 105.5 127 L 105.5 126 Z " /><path fill="rgb(124,130,145)" stroke="rgb(124,130,145)" stroke-width="1" opacity="1" d="M 112.5 127 L 115 127.5 L 112.5 128 L 112.5 127 Z " /><path fill="rgb(124,130,145)" stroke="rgb(124,130,145)" stroke-width="1" opacity="1" d="M 30.5 132 L 29.5 134 L 27 133.5 L 30.5 132 Z " /><path fill="rgb(124,130,145)" stroke="rgb(124,130,145)" stroke-width="1" opacity="1" d="M 84.5 163 L 90 170 L 86 172.5 L 88 177 Q 91.8 175.5 91 178.5 L 87 182.5 L 89 184.5 L 90 187.5 L 87.5 190 L 71.5 190 L 70.5 189 L 61.5 189 L 58 191.5 Q 55.9 197.3 60.5 196 L 68 199.5 L 59.5 200 Q 57.2 197.3 51.5 198 L 46 193.5 Q 45.5 188.5 49.5 188 L 52.5 187 L 72.5 187 L 83.5 189 L 86 188 L 86 183 L 84.5 183 L 72.5 180 L 70 177.5 L 69 174.5 L 81 166.5 Q 80.3 164.3 82.5 165 L 84.5 163 Z " /><path fill="rgb(0,0,0)" stroke="rgb(0,0,0)" stroke-width="1" opacity="0.8156862745098039" d="M 103.5 31 L 105 31.5 L 101.5 34 L 103.5 31 Z " /><path fill="rgb(0,0,0)" stroke="rgb(0,0,0)" stroke-width="1" opacity="0.8156862745098039" d="M 100.5 35 L 97.5 39 L 100.5 35 Z " /><path fill="rgb(0,0,0)" stroke="rgb(0,0,0)" stroke-width="1" opacity="0.8156862745098039" d="M 110.5 35 L 112 37.5 L 111 37.5 L 110.5 35 Z " /><path fill="rgb(0,0,0)" stroke="rgb(0,0,0)" stroke-width="1" opacity="0.8156862745098039" d="M 96.5 40 L 95.5 42 L 96.5 40 Z " /><path fill="rgb(0,0,0)" stroke="rgb(0,0,0)" stroke-width="1" opacity="0.8156862745098039" d="M 78.5 45 Q 83.3 44.3 84 47.5 L 81.5 46 Q 77.3 45.3 76.5 48 L 78.5 45 Z " /><path fill="rgb(0,0,0)" stroke="rgb(0,0,0)" stroke-width="1" opacity="0.8156862745098039" d="M 85.5 48 L 91 52.5 L 89.5 52 L 85.5 48 Z " /><path fill="rgb(0,0,0)" stroke="rgb(0,0,0)" stroke-width="1" opacity="0.8156862745098039" d="M 127.5 48 Q 131.3 47.3 132 49.5 L 130.5 49 Q 125.9 48.4 124.5 51 L 125.5 49 L 127.5 48 Z " /><path fill="rgb(0,0,0)" stroke="rgb(0,0,0)" stroke-width="1" opacity="0.8156862745098039" d="M 122.5 51 L 121.5 53 L 118.5 54 L 118.5 53 L 122.5 51 Z " /><path fill="rgb(0,0,0)" stroke="rgb(0,0,0)" stroke-width="1" opacity="0.8156862745098039" d="M 74.5 54 L 75 57.5 L 74 57.5 L 74.5 54 Z " /><path fill="rgb(0,0,0)" stroke="rgb(0,0,0)" stroke-width="1" opacity="0.8156862745098039" d="M 132.5 57 L 133 59.5 L 132 59.5 L 132.5 57 Z " /><path fill="rgb(0,0,0)" stroke="rgb(0,0,0)" stroke-width="1" opacity="0.8156862745098039" d="M 55.5 60 L 63 60.5 L 55.5 61 L 55.5 60 Z " /><path fill="rgb(0,0,0)" stroke="rgb(0,0,0)" stroke-width="1" opacity="0.8156862745098039" d="M 51.5 61 L 50.5 63 L 51.5 61 Z " /><path fill="rgb(0,0,0)" stroke="rgb(0,0,0)" stroke-width="1" opacity="0.8156862745098039" d="M 70.5 61 L 76 61.5 L 70.5 62 L 70.5 61 Z " /><path fill="rgb(0,0,0)" stroke="rgb(0,0,0)" stroke-width="1" opacity="0.8156862745098039" d="M 132.5 61 L 145 61.5 L 132.5 62 L 132.5 61 Z " /><path fill="rgb(0,0,0)" stroke="rgb(0,0,0)" stroke-width="1" opacity="0.8156862745098039" d="M 148.5 62 L 153 62.5 L 148.5 63 L 148.5 62 Z " /><path fill="rgb(0,0,0)" stroke="rgb(0,0,0)" stroke-width="1" opacity="0.8156862745098039" d="M 156.5 63 L 159 63.5 L 156.5 64 L 156.5 63 Z " /><path fill="rgb(0,0,0)" stroke="rgb(0,0,0)" stroke-width="1" opacity="0.8156862745098039" d="M 160.5 64 L 161.5 66 L 160.5 64 Z " /><path fill="rgb(0,0,0)" stroke="rgb(0,0,0)" stroke-width="1" opacity="0.8156862745098039" d="M 50.5 66 Q 53.3 73.3 59 77.5 L 53 72.5 L 50 67.5 L 50.5 66 Z " /><path fill="rgb(0,0,0)" stroke="rgb(0,0,0)" stroke-width="1" opacity="0.8156862745098039" d="M 161.5 68 L 162 69.5 L 158 72.5 L 161.5 68 Z " /><path fill="rgb(0,0,0)" stroke="rgb(0,0,0)" stroke-width="1" opacity="0.8156862745098039" d="M 156.5 73 L 152.5 78 L 156.5 73 Z " /><path fill="rgb(0,0,0)" stroke="rgb(0,0,0)" stroke-width="1" opacity="0.8156862745098039" d="M 60.5 78 L 62 81.5 L 58 84.5 Q 61.5 84 61 79.5 L 60.5 78 Z " /><path fill="rgb(0,0,0)" stroke="rgb(0,0,0)" stroke-width="1" opacity="0.8156862745098039" d="M 150.5 78 L 147.5 82 L 150.5 78 Z " /><path fill="rgb(0,0,0)" stroke="rgb(0,0,0)" stroke-width="1" opacity="0.8156862745098039" d="M 145.5 82 L 143.5 85 L 145.5 82 Z " /><path fill="rgb(0,0,0)" stroke="rgb(0,0,0)" stroke-width="1" opacity="0.8156862745098039" d="M 143.5 86 L 144 89 L 146 89.5 L 144.5 90 Q 142 89 143.5 86 Z " /><path fill="rgb(0,0,0)" stroke="rgb(0,0,0)" stroke-width="1" opacity="0.8156862745098039" d="M 41.5 89 L 43 89.5 L 39.5 91 L 39.5 90 L 41.5 89 Z " /><path fill="rgb(0,0,0)" stroke="rgb(0,0,0)" stroke-width="1" opacity="0.8156862745098039" d="M 33.5 93 L 32.5 95 L 23.5 102 L 28.5 96 L 33.5 93 Z " /><path fill="rgb(0,0,0)" stroke="rgb(0,0,0)" stroke-width="1" opacity="0.8156862745098039" d="M 160.5 95 L 163 96.5 L 161.5 96 L 160.5 95 Z " /><path fill="rgb(0,0,0)" stroke="rgb(0,0,0)" stroke-width="1" opacity="0.8156862745098039" d="M 168.5 99 L 177 104.5 L 175.5 104 Q 169.3 102.6 168.5 99 Z " /><path fill="rgb(0,0,0)" stroke="rgb(0,0,0)" stroke-width="1" opacity="0.8156862745098039" d="M 180.5 106 L 182.5 109 L 180.5 106 Z " /><path fill="rgb(0,0,0)" stroke="rgb(0,0,0)" stroke-width="1" opacity="0.8156862745098039" d="M 184.5 109 L 194 117.5 L 195 119.5 L 193 118.5 L 187.5 112 L 184.5 109 Z " /><path fill="rgb(0,0,0)" stroke="rgb(0,0,0)" stroke-width="1" opacity="0.8156862745098039" d="M 18.5 110 L 19 112.5 L 18 112.5 L 18.5 110 Z " /><path fill="rgb(0,0,0)" stroke="rgb(0,0,0)" stroke-width="1" opacity="0.8156862745098039" d="M 17.5 115 L 18 117.5 L 17 117.5 L 17.5 115 Z " /><path fill="rgb(0,0,0)" stroke="rgb(0,0,0)" stroke-width="1" opacity="0.8156862745098039" d="M 16.5 121 L 17 130.5 L 16 130.5 L 16.5 121 Z " /><path fill="rgb(0,0,0)" stroke="rgb(0,0,0)" stroke-width="1" opacity="0.8156862745098039" d="M 18.5 137 L 19.5 139 L 18.5 137 Z " /><path fill="rgb(0,0,0)" stroke="rgb(0,0,0)" stroke-width="1" opacity="0.8156862745098039" d="M 22.5 142 L 23 149.5 L 17.5 154 L 20.5 150 L 22 149.5 L 22.5 142 Z " /><path fill="rgb(0,0,0)" stroke="rgb(0,0,0)" stroke-width="1" opacity="0.8156862745098039" d="M 187.5 146 L 188 147.5 L 186 152 L 178.5 154 L 178 152 Q 184.3 153.5 186 149.5 L 187.5 146 Z " /><path fill="rgb(0,0,0)" stroke="rgb(0,0,0)" stroke-width="1" opacity="0.8156862745098039" d="M 15.5 154 L 12.5 158 L 15.5 154 Z " /><path fill="rgb(0,0,0)" stroke="rgb(0,0,0)" stroke-width="1" opacity="0.8156862745098039" d="M 10.5 161 L 11 165.5 L 10 165.5 L 10.5 161 Z " /><path fill="rgb(0,0,0)" stroke="rgb(0,0,0)" stroke-width="1" opacity="0.8156862745098039" d="M 11.5 167 L 15 172.5 L 12 170.5 L 11.5 167 Z " /><path fill="rgb(0,0,0)" stroke="rgb(0,0,0)" stroke-width="1" opacity="0.8156862745098039" d="M 15.5 174 L 23 180.5 L 21.5 180 L 15.5 174 Z " /><path fill="rgb(0,0,0)" stroke="rgb(0,0,0)" stroke-width="1" opacity="0.8156862745098039" d="M 177.5 175 L 178 176.5 L 172 181.5 L 177.5 175 Z " /><path fill="rgb(0,0,0)" stroke="rgb(0,0,0)" stroke-width="1" opacity="0.8156862745098039" d="M 40.5 176 L 43 176.5 L 38.5 179 L 40.5 176 Z " /><path fill="rgb(0,0,0)" stroke="rgb(0,0,0)" stroke-width="1" opacity="0.8156862745098039" d="M 45.5 177 L 49 177.5 L 45.5 178 L 45.5 177 Z " /><path fill="rgb(0,0,0)" stroke="rgb(0,0,0)" stroke-width="1" opacity="0.8156862745098039" d="M 53.5 178 L 63.5 178 L 65 179.5 L 64.5 181 L 57.5 181 L 57.5 180 L 64 179.5 L 53.5 179 L 53.5 178 Z " /><path fill="rgb(0,0,0)" stroke="rgb(0,0,0)" stroke-width="1" opacity="0.8156862745098039" d="M 36.5 179 L 34.5 182 L 33 181.5 L 36.5 179 Z " /><path fill="rgb(0,0,0)" stroke="rgb(0,0,0)" stroke-width="1" opacity="0.8156862745098039" d="M 50.5 181 L 53 181.5 L 50.5 182 L 50.5 181 Z " /><path fill="rgb(0,0,0)" stroke="rgb(0,0,0)" stroke-width="1" opacity="0.8156862745098039" d="M 27.5 182 L 32 182.5 L 27.5 183 L 27.5 182 Z " /><path fill="rgb(0,0,0)" stroke="rgb(0,0,0)" stroke-width="1" opacity="0.8156862745098039" d="M 170.5 182 L 167.5 186 L 165.5 187 L 166.5 185 L 170.5 182 Z " /><path fill="rgb(0,0,0)" stroke="rgb(0,0,0)" stroke-width="1" opacity="0.8156862745098039" d="M 45.5 183 L 42 187.5 L 40.5 191 L 40 189.5 L 45.5 183 Z " /><path fill="rgb(0,0,0)" stroke="rgb(0,0,0)" stroke-width="1" opacity="0.8156862745098039" d="M 126.5 183 L 129 183.5 L 126.5 184 L 126.5 183 Z " /><path fill="rgb(0,0,0)" stroke="rgb(0,0,0)" stroke-width="1" opacity="0.8156862745098039" d="M 122.5 184 L 122 185.5 L 121.5 187 L 121 185.5 L 122.5 184 Z " /><path fill="rgb(0,0,0)" stroke="rgb(0,0,0)" stroke-width="1" opacity="0.8156862745098039" d="M 132.5 184 L 145 184.5 L 132.5 185 L 132.5 184 Z " /><path fill="rgb(0,0,0)" stroke="rgb(0,0,0)" stroke-width="1" opacity="0.8156862745098039" d="M 146.5 185 L 147.5 187 L 146.5 185 Z " /><path fill="rgb(0,0,0)" stroke="rgb(0,0,0)" stroke-width="1" opacity="0.8156862745098039" d="M 123.5 187 L 126 187.5 L 123.5 188 L 123.5 187 Z " /><path fill="rgb(0,0,0)" stroke="rgb(0,0,0)" stroke-width="1" opacity="0.8156862745098039" d="M 128.5 188 L 131 188.5 L 128.5 189 L 128.5 188 Z " /><path fill="rgb(0,0,0)" stroke="rgb(0,0,0)" stroke-width="1" opacity="0.8156862745098039" d="M 132.5 189 L 137 190.5 L 135.5 191 L 132.5 190 L 132.5 189 Z " /><path fill="rgb(0,0,0)" stroke="rgb(0,0,0)" stroke-width="1" opacity="0.8156862745098039" d="M 155.5 189 L 159 189.5 L 155.5 190 L 155.5 189 Z " /><path fill="rgb(0,0,0)" stroke="rgb(0,0,0)" stroke-width="1" opacity="0.8156862745098039" d="M 140.5 192 L 142.5 195 L 140.5 192 Z " /><path fill="rgb(0,0,0)" stroke="rgb(0,0,0)" stroke-width="1" opacity="0.8156862745098039" d="M 143.5 196 L 144 198.5 L 143 198.5 L 143.5 196 Z " /><path fill="rgb(0,0,0)" stroke="rgb(0,0,0)" stroke-width="1" opacity="0.8156862745098039" d="M 41.5 197 L 43.5 200 L 41.5 197 Z " /><path fill="rgb(173,190,229)" stroke="rgb(173,190,229)" stroke-width="1" opacity="1" d="M 126.5 58 L 127 60.5 L 126 60.5 L 126.5 58 Z " /><path fill="rgb(173,190,229)" stroke="rgb(173,190,229)" stroke-width="1" opacity="1" d="M 64.5 66 L 67 66.5 L 64.5 67 L 64.5 66 Z " /><path fill="rgb(173,190,229)" stroke="rgb(173,190,229)" stroke-width="1" opacity="1" d="M 152.5 69 L 151.5 71 L 152.5 69 Z " /><path fill="rgb(173,190,229)" stroke="rgb(173,190,229)" stroke-width="1" opacity="1" d="M 105.5 75 L 106.5 77 L 105.5 75 Z " /><path fill="rgb(173,190,229)" stroke="rgb(173,190,229)" stroke-width="1" opacity="1" d="M 145.5 75 L 144.5 77 L 145.5 75 Z " /><path fill="rgb(173,190,229)" stroke="rgb(173,190,229)" stroke-width="1" opacity="1" d="M 99.5 76 L 98.5 78 L 99.5 76 Z " /><path fill="rgb(173,190,229)" stroke="rgb(173,190,229)" stroke-width="1" opacity="1" d="M 90.5 79 L 91.5 81 L 90.5 79 Z " /><path fill="rgb(173,190,229)" stroke="rgb(173,190,229)" stroke-width="1" opacity="1" d="M 83.5 80 L 82.5 82 L 83.5 80 Z " /><path fill="rgb(173,190,229)" stroke="rgb(173,190,229)" stroke-width="1" opacity="1" d="M 108.5 80 L 111 81.5 L 109.5 82 L 108.5 80 Z " /><path fill="rgb(173,190,229)" stroke="rgb(173,190,229)" stroke-width="1" opacity="1" d="M 59.5 90 L 62 90.5 L 59.5 91 L 59.5 90 Z " /><path fill="rgb(173,190,229)" stroke="rgb(173,190,229)" stroke-width="1" opacity="1" d="M 65.5 90 L 66 92.5 L 65 92.5 L 65.5 90 Z " /><path fill="rgb(173,190,229)" stroke="rgb(173,190,229)" stroke-width="1" opacity="1" d="M 121.5 93 L 124 93.5 L 121.5 94 L 121.5 93 Z " /><path fill="rgb(173,190,229)" stroke="rgb(173,190,229)" stroke-width="1" opacity="1" d="M 128.5 93 L 132 93.5 L 128.5 94 L 128.5 93 Z " /><path fill="rgb(173,190,229)" stroke="rgb(173,190,229)" stroke-width="1" opacity="1" d="M 134.5 94 L 138 94.5 L 134.5 95 L 134.5 94 Z " /><path fill="rgb(173,190,229)" stroke="rgb(173,190,229)" stroke-width="1" opacity="1" d="M 65.5 95 L 66 98.5 L 65 100.5 Q 67.3 101.8 66 106.5 L 68.5 110 L 71.5 111 L 72.5 110 L 99.5 109 L 100.5 110 L 111.5 110 L 113.5 106 L 115 106.5 L 114 104.5 L 116 104.5 L 115 102.5 L 117.5 102 L 122 104 L 124.5 97 Q 127.3 100.8 133 100 Q 131.8 97 135.5 98 L 140 97 Q 138.8 94 142.5 95 L 154 99.5 L 150 108 L 142.5 105 L 138.5 107 Q 137.8 103.2 132.5 104 Q 123.1 107.1 117 113.5 L 114 124 L 101.5 122 L 90.5 122 L 89.5 123 L 74 124 L 73 119 L 69 116.5 Q 69.8 114.3 67.5 115 Q 63.8 110.2 54.5 111 L 41.5 114 L 32 119 L 32 110.5 L 34.5 108 L 38 106.5 Q 35.9 100.7 40.5 102 L 47 103 L 47 98 L 49.5 98 L 57.5 108 L 60.5 100 Q 64.3 100.8 65 98.5 L 65.5 95 Z " /><path fill="rgb(173,190,229)" stroke="rgb(173,190,229)" stroke-width="1" opacity="1" d="M 118.5 97 L 117.5 99 L 118.5 97 Z " /><path fill="rgb(173,190,229)" stroke="rgb(173,190,229)" stroke-width="1" opacity="1" d="M 36.5 98 L 35.5 100 L 36.5 98 Z " /><path fill="rgb(173,190,229)" stroke="rgb(173,190,229)" stroke-width="1" opacity="1" d="M 33.5 100 L 32.5 102 L 33.5 100 Z " /><path fill="rgb(173,190,229)" stroke="rgb(173,190,229)" stroke-width="1" opacity="1" d="M 30.5 102 L 26.5 107 L 30.5 102 Z " /><path fill="rgb(173,190,229)" stroke="rgb(173,190,229)" stroke-width="1" opacity="1" d="M 24.5 110 L 25 112.5 L 24 112.5 L 24.5 110 Z " /><path fill="rgb(173,190,229)" stroke="rgb(173,190,229)" stroke-width="1" opacity="1" d="M 23.5 115 L 24 117.5 L 23 117.5 L 23.5 115 Z " /><path fill="rgb(173,190,229)" stroke="rgb(173,190,229)" stroke-width="1" opacity="1" d="M 22.5 120 L 23 131.5 L 22 131.5 L 22.5 120 Z " /><path fill="rgb(173,190,229)" stroke="rgb(173,190,229)" stroke-width="1" opacity="1" d="M 30.5 121 L 28.5 124 L 30.5 121 Z " /><path fill="rgb(1,1,0)" stroke="rgb(1,1,0)" stroke-width="1" opacity="0.996078431372549" d="M 105.5 31 L 109 32 L 118 54 L 127.5 49 L 130.5 49 L 132 50.5 L 132 62 L 155.5 63 L 159.5 64 L 162 66.5 L 157.5 73 L 143 84.5 Q 142 89 144.5 90 L 152.5 92 L 167.5 99 L 179.5 106 L 193 117.5 Q 195.6 118.9 195 123.5 L 188 145.5 L 183.5 152 Q 176.2 149.4 178 155.5 L 175 163.5 L 175 167.5 L 178 174.5 L 171.5 182 Q 164.9 189.4 151.5 190 L 148 187.5 L 146.5 185 L 144.5 184 L 123.5 183 L 121 187 L 137.5 191 L 143 195.5 L 143 200 L 138 200 Q 138.8 196.2 135.5 195 L 118.5 191 L 113.5 191 L 111 188.5 L 112 186 Q 116.7 186.8 118 182.5 Q 118.8 177.2 116 175.5 L 104.5 164 L 92.5 158 L 85.5 158 Q 74.4 161.4 68 169.5 L 67 173.5 L 72.5 181 L 83.5 183 L 85 184.5 L 83.5 188 L 62.5 185 L 61.5 186 L 51.5 186 L 46 189.5 L 45 194.5 Q 47.7 199.3 55 199.5 L 44.5 200 Q 40.1 197.9 40 191.5 L 46.5 183 Q 53.9 179.7 65 181 L 63.5 178 L 49.5 178 L 40.5 176 L 32.5 182 L 26.5 182 Q 19.1 179.4 15 173.5 L 11 166.5 L 11 160.5 L 16.5 154 L 23 149.5 L 23 139.5 L 20.5 139 L 17 133.5 L 17 118.5 L 19 108.5 L 22.5 102 L 34.5 93 Q 44.9 87.4 58.5 85 L 62 81.5 L 60.5 78 L 54 72.5 L 50 63.5 L 52.5 61 L 69.5 61 Q 70.8 63.3 75.5 62 L 75 60.5 Q 73.3 49.8 78.5 46 L 81.5 46 L 90.5 53 Q 94.5 40 103.5 32 L 105.5 31 Z M 106 37 Q 96 45 94 60 L 91 59 L 81 51 L 79 55 L 81 63 L 78 67 Q 71 65 61 66 L 56 65 L 58 71 L 62 73 L 68 81 L 66 85 Q 75 86 81 90 L 81 88 L 86 80 Q 92 79 93 83 L 95 83 L 104 76 Q 108 78 108 83 L 119 80 Q 122 82 122 87 L 136 87 L 137 88 Q 139 89 138 83 L 155 69 L 153 67 Q 146 69 145 66 L 130 66 Q 126 62 127 55 L 117 61 L 111 47 L 106 37 Z M 102 82 L 96 88 Q 89 89 88 85 L 85 90 L 88 102 L 89 104 L 109 104 Q 111 96 117 90 L 117 85 L 111 88 L 107 88 L 104 84 L 102 82 Z M 60 89 Q 43 92 32 100 L 24 108 L 21 123 L 22 134 L 24 135 L 31 135 L 36 124 Q 41 116 52 114 Q 60 113 65 116 Q 72 121 74 130 L 83 130 L 84 129 L 99 129 L 100 130 L 109 130 L 115 132 L 118 123 L 123 116 Q 128 111 136 109 Q 146 108 152 112 Q 157 116 159 123 L 159 137 L 176 144 L 181 148 L 183 146 L 190 125 L 190 122 L 187 117 L 176 109 L 156 98 L 132 92 Q 123 91 119 93 L 113 107 L 110 109 L 99 109 L 98 108 L 70 109 L 67 107 Q 69 101 66 100 L 67 96 Q 66 93 70 94 L 71 96 L 71 104 L 73 105 L 76 104 Q 81 103 83 105 L 82 97 L 71 90 L 60 89 Z M 136 114 L 130 116 Q 123 121 120 129 L 121 138 Q 125 144 134 145 L 140 145 L 146 143 L 154 135 L 155 131 L 153 121 Q 149 112 136 114 Z M 51 119 L 44 122 L 37 132 L 38 142 L 48 148 Q 58 149 64 144 L 68 140 L 70 133 L 65 123 Q 61 117 51 119 Z M 83 134 Q 81 137 76 135 L 71 144 L 64 150 L 54 153 Q 43 153 38 148 L 33 142 L 33 140 L 28 140 L 28 156 L 30 164 L 44 172 L 61 173 L 64 167 Q 72 157 86 153 L 93 153 L 100 155 L 109 161 L 120 173 L 122 177 L 129 179 Q 137 178 142 180 L 142 178 L 138 172 L 139 167 Q 145 157 158 154 Q 164 153 167 156 L 171 161 Q 174 157 173 149 L 157 141 L 155 141 L 149 147 L 140 150 L 129 149 L 123 146 L 117 139 L 110 135 L 83 134 Z M 23 155 L 17 159 L 15 164 L 17 169 L 25 176 L 33 177 L 35 174 L 29 169 L 24 162 Q 25 154 23 155 Z M 159 159 Q 149 161 144 169 Q 146 179 153 185 Q 167 183 173 174 L 170 168 L 162 159 L 159 159 Z " /><path fill="rgb(126,139,168)" stroke="rgb(126,139,168)" stroke-width="1" opacity="1" d="M 115.5 60 L 116.5 62 L 115.5 60 Z " /><path fill="rgb(126,139,168)" stroke="rgb(126,139,168)" stroke-width="1" opacity="1" d="M 59.5 70 L 60.5 72 L 59.5 70 Z " /><path fill="rgb(126,139,168)" stroke="rgb(126,139,168)" stroke-width="1" opacity="1" d="M 97.5 78 L 96.5 80 L 97.5 78 Z " /><path fill="rgb(126,139,168)" stroke="rgb(126,139,168)" stroke-width="1" opacity="1" d="M 116.5 79 L 119 79.5 L 116.5 80 L 116.5 79 Z " /><path fill="rgb(126,139,168)" stroke="rgb(126,139,168)" stroke-width="1" opacity="1" d="M 66 90 Q 75.6 91.2 81 97.5 L 82 102.5 L 73 103 L 73 95.5 L 70.5 93 Q 64.2 94.9 66 90 Z " /><path fill="rgb(126,139,168)" stroke="rgb(126,139,168)" stroke-width="1" opacity="1" d="M 153.5 98 L 172 109.5 Q 165 117 161.5 128 Q 160.1 116.4 152.5 111 Q 146.7 105.8 133.5 108 L 122 114.5 L 115 127 L 103.5 125 L 82.5 125 L 74 127 Q 71.9 119.4 65.5 115 Q 60.1 111.4 49.5 113 Q 39.5 115 35 122.5 L 29.5 133 L 26.5 134 L 26 129.5 L 32.5 119 L 47.5 112 L 59.5 111 L 69 115 L 71.5 119 Q 73.8 118.3 73 120.5 L 74 124 L 89.5 123 L 90.5 122 L 101.5 122 L 114 124 L 117 113.5 L 119.5 111 L 129.5 105 L 135.5 104 L 139.5 107 L 144.5 105 L 150 108 L 154 99.5 L 153.5 98 Z " /><path fill="rgb(126,139,168)" stroke="rgb(126,139,168)" stroke-width="1" opacity="1" d="M 100.5 109 L 112 109.5 L 100.5 110 L 100.5 109 Z " /><path fill="rgb(157,118,80)" stroke="rgb(157,118,80)" stroke-width="1" opacity="1" d="M 102.5 83 L 106.5 89 L 117 87 L 110.5 99 L 100.5 97 L 88 99 L 86 93.5 L 86 89.5 L 87 87 L 95.5 89 L 102.5 83 Z " /><path fill="rgb(157,118,80)" stroke="rgb(157,118,80)" stroke-width="1" opacity="1" d="M 91.5 103 L 108 103.5 L 91.5 104 L 91.5 103 Z " /><path fill="rgb(157,118,80)" stroke="rgb(157,118,80)" stroke-width="1" opacity="1" d="M 130.5 116 L 136 120.5 L 131.5 117 L 124.5 123 L 130.5 116 Z " /><path fill="rgb(157,118,80)" stroke="rgb(157,118,80)" stroke-width="1" opacity="1" d="M 44.5 122 L 48 126.5 L 46 129.5 L 45.5 138 L 45 129.5 L 47 125.5 L 44.5 123 L 41 125.5 L 44.5 122 Z " /><path fill="rgb(157,118,80)" stroke="rgb(157,118,80)" stroke-width="1" opacity="1" d="M 132.5 123 L 129.5 127 L 132.5 123 Z " /><path fill="rgb(157,118,80)" stroke="rgb(157,118,80)" stroke-width="1" opacity="1" d="M 40.5 127 L 39.5 129 L 40.5 127 Z " /><path fill="rgb(157,118,80)" stroke="rgb(157,118,80)" stroke-width="1" opacity="1" d="M 37.5 132 L 38 136.5 L 37 136.5 L 37.5 132 Z " /><path fill="rgb(157,118,80)" stroke="rgb(157,118,80)" stroke-width="1" opacity="1" d="M 121.5 132 L 122 135.5 L 121 135.5 L 121.5 132 Z " /><path fill="rgb(157,118,80)" stroke="rgb(157,118,80)" stroke-width="1" opacity="1" d="M 130.5 136 L 129.5 138 L 130.5 136 Z " /><path fill="rgb(157,118,80)" stroke="rgb(157,118,80)" stroke-width="1" opacity="1" d="M 43.5 139 L 42.5 141 L 43.5 139 Z " /><path fill="rgb(157,118,80)" stroke="rgb(157,118,80)" stroke-width="1" opacity="1" d="M 83.5 139 L 104.5 140 L 106 141.5 L 105 153 L 99.5 152 L 84.5 152 L 69.5 155 L 58.5 159 L 42.5 161 L 32.5 164 L 30 161.5 L 29 141 Q 32.8 139.5 32 142.5 L 39.5 151 L 47.5 154 L 54.5 154 L 67.5 149 L 70.5 149 L 77 144.5 L 79 140 L 83.5 139 Z " /><path fill="rgb(157,118,80)" stroke="rgb(157,118,80)" stroke-width="1" opacity="1" d="M 126.5 139 L 125.5 141 L 126.5 139 Z " /><path fill="rgb(157,118,80)" stroke="rgb(157,118,80)" stroke-width="1" opacity="1" d="M 38.5 140 L 42 142.5 L 40.5 143 L 38.5 140 Z " /><path fill="rgb(157,118,80)" stroke="rgb(157,118,80)" stroke-width="1" opacity="1" d="M 22.5 156 L 25 166.5 L 29.5 171 L 33 173.5 L 31.5 176 L 24.5 175 L 17 167.5 L 16 162.5 L 18.5 159 L 22.5 156 Z " /><path fill="rgb(37,36,34)" stroke="rgb(37,36,34)" stroke-width="1" opacity="0.996078431372549" d="M 102.5 40 L 101.5 42 L 102.5 40 Z " /><path fill="rgb(37,36,34)" stroke="rgb(37,36,34)" stroke-width="1" opacity="0.996078431372549" d="M 82.5 52 L 83.5 54 L 82.5 52 Z " /><path fill="rgb(37,36,34)" stroke="rgb(37,36,34)" stroke-width="1" opacity="0.996078431372549" d="M 79.5 54 L 80 56.5 L 79 56.5 L 79.5 54 Z " /><path fill="rgb(37,36,34)" stroke="rgb(37,36,34)" stroke-width="1" opacity="0.996078431372549" d="M 86.5 55 L 88.5 58 L 86.5 55 Z " /><path fill="rgb(37,36,34)" stroke="rgb(37,36,34)" stroke-width="1" opacity="0.996078431372549" d="M 56.5 65 L 60 65.5 L 56.5 66 L 56.5 65 Z " /><path fill="rgb(37,36,34)" stroke="rgb(37,36,34)" stroke-width="1" opacity="0.996078431372549" d="M 71.5 66 L 74 66.5 L 71.5 67 L 71.5 66 Z " /><path fill="rgb(37,36,34)" stroke="rgb(37,36,34)" stroke-width="1" opacity="0.996078431372549" d="M 130.5 66 L 136 66.5 L 130.5 67 L 130.5 66 Z " /><path fill="rgb(37,36,34)" stroke="rgb(37,36,34)" stroke-width="1" opacity="0.996078431372549" d="M 140.5 66 L 145 66.5 L 140.5 67 L 140.5 66 Z " /><path fill="rgb(37,36,34)" stroke="rgb(37,36,34)" stroke-width="1" opacity="0.996078431372549" d="M 150.5 67 L 153 67.5 L 150.5 68 L 150.5 67 Z " /><path fill="rgb(37,36,34)" stroke="rgb(37,36,34)" stroke-width="1" opacity="0.996078431372549" d="M 58.5 70 L 60.5 73 L 58.5 70 Z " /><path fill="rgb(37,36,34)" stroke="rgb(37,36,34)" stroke-width="1" opacity="0.996078431372549" d="M 152.5 70 L 150.5 73 L 152.5 70 Z " /><path fill="rgb(37,36,34)" stroke="rgb(37,36,34)" stroke-width="1" opacity="0.996078431372549" d="M 101.5 76 L 100.5 78 L 101.5 76 Z " /><path fill="rgb(37,36,34)" stroke="rgb(37,36,34)" stroke-width="1" opacity="0.996078431372549" d="M 104.5 76 L 106.5 79 L 104.5 76 Z " /><path fill="rgb(37,36,34)" stroke="rgb(37,36,34)" stroke-width="1" opacity="0.996078431372549" d="M 145.5 76 L 144.5 78 L 145.5 76 Z " /><path fill="rgb(37,36,34)" stroke="rgb(37,36,34)" stroke-width="1" opacity="0.996078431372549" d="M 86.5 79 L 89 79.5 L 86.5 80 L 86.5 79 Z " /><path fill="rgb(37,36,34)" stroke="rgb(37,36,34)" stroke-width="1" opacity="0.996078431372549" d="M 97.5 79 L 94.5 83 L 97.5 79 Z " /><path fill="rgb(37,36,34)" stroke="rgb(37,36,34)" stroke-width="1" opacity="0.996078431372549" d="M 119.5 80 L 120.5 82 L 119.5 80 Z " /><path fill="rgb(37,36,34)" stroke="rgb(37,36,34)" stroke-width="1" opacity="0.996078431372549" d="M 67.5 82 L 67.5 85 Q 65.3 85.8 66 83.5 L 67.5 82 Z " /><path fill="rgb(37,36,34)" stroke="rgb(37,36,34)" stroke-width="1" opacity="0.996078431372549" d="M 101.5 82 L 104 83.5 L 102.5 83 L 96.5 88 L 101.5 82 Z " /><path fill="rgb(37,36,34)" stroke="rgb(37,36,34)" stroke-width="1" opacity="0.996078431372549" d="M 137.5 83 L 138 85.5 L 137 85.5 L 137.5 83 Z " /><path fill="rgb(37,36,34)" stroke="rgb(37,36,34)" stroke-width="1" opacity="0.996078431372549" d="M 59.5 89 L 62 89.5 L 59.5 90 L 59.5 89 Z " /><path fill="rgb(37,36,34)" stroke="rgb(37,36,34)" stroke-width="1" opacity="0.996078431372549" d="M 115.5 91 L 114.5 93 L 115.5 91 Z " /><path fill="rgb(37,36,34)" stroke="rgb(37,36,34)" stroke-width="1" opacity="0.996078431372549" d="M 129.5 92 L 132 92.5 L 129.5 93 L 129.5 92 Z " /><path fill="rgb(37,36,34)" stroke="rgb(37,36,34)" stroke-width="1" opacity="0.996078431372549" d="M 113.5 94 L 112.5 96 L 113.5 94 Z " /><path fill="rgb(37,36,34)" stroke="rgb(37,36,34)" stroke-width="1" opacity="0.996078431372549" d="M 80.5 95 L 81.5 97 L 80.5 95 Z " /><path fill="rgb(37,36,34)" stroke="rgb(37,36,34)" stroke-width="1" opacity="0.996078431372549" d="M 71.5 96 L 72 104 L 75 104.5 L 72.5 105 L 71 103.5 L 71.5 96 Z " /><path fill="rgb(37,36,34)" stroke="rgb(37,36,34)" stroke-width="1" opacity="0.996078431372549" d="M 34.5 98 L 33.5 100 L 34.5 98 Z " /><path fill="rgb(37,36,34)" stroke="rgb(37,36,34)" stroke-width="1" opacity="0.996078431372549" d="M 87.5 98 L 88 100.5 L 87 100.5 L 87.5 98 Z " /><path fill="rgb(37,36,34)" stroke="rgb(37,36,34)" stroke-width="1" opacity="0.996078431372549" d="M 82.5 99 L 83 101.5 L 82 101.5 L 82.5 99 Z " /><path fill="rgb(37,36,34)" stroke="rgb(37,36,34)" stroke-width="1" opacity="0.996078431372549" d="M 31.5 100 L 30.5 102 L 31.5 100 Z " /><path fill="rgb(37,36,34)" stroke="rgb(37,36,34)" stroke-width="1" opacity="0.996078431372549" d="M 66.5 100 L 67 103.5 L 66 103.5 L 66.5 100 Z " /><path fill="rgb(37,36,34)" stroke="rgb(37,36,34)" stroke-width="1" opacity="0.996078431372549" d="M 161.5 101 L 163.5 104 L 161.5 101 Z " /><path fill="rgb(37,36,34)" stroke="rgb(37,36,34)" stroke-width="1" opacity="0.996078431372549" d="M 25.5 106 L 24.5 108 L 25.5 106 Z " /><path fill="rgb(37,36,34)" stroke="rgb(37,36,34)" stroke-width="1" opacity="0.996078431372549" d="M 67.5 107 Q 69.2 110.3 75 109.5 L 69.5 110 L 67.5 107 Z " /><path fill="rgb(37,36,34)" stroke="rgb(37,36,34)" stroke-width="1" opacity="0.996078431372549" d="M 112.5 107 L 111.5 109 L 110 108.5 L 112.5 107 Z " /><path fill="rgb(37,36,34)" stroke="rgb(37,36,34)" stroke-width="1" opacity="0.996078431372549" d="M 87.5 108 L 98 108.5 L 87.5 109 L 87.5 108 Z " /><path fill="rgb(37,36,34)" stroke="rgb(37,36,34)" stroke-width="1" opacity="0.996078431372549" d="M 175.5 109 L 176.5 111 L 175.5 109 Z " /><path fill="rgb(37,36,34)" stroke="rgb(37,36,34)" stroke-width="1" opacity="0.996078431372549" d="M 178.5 111 L 179.5 113 L 178.5 111 Z " /><path fill="rgb(37,36,34)" stroke="rgb(37,36,34)" stroke-width="1" opacity="0.996078431372549" d="M 126.5 112 L 125.5 114 L 126.5 112 Z " /><path fill="rgb(37,36,34)" stroke="rgb(37,36,34)" stroke-width="1" opacity="0.996078431372549" d="M 153.5 113 L 154.5 115 L 153.5 113 Z " /><path fill="rgb(37,36,34)" stroke="rgb(37,36,34)" stroke-width="1" opacity="0.996078431372549" d="M 182.5 114 L 183.5 116 L 182.5 114 Z " /><path fill="rgb(37,36,34)" stroke="rgb(37,36,34)" stroke-width="1" opacity="0.996078431372549" d="M 65.5 116 L 68.5 120 L 65.5 116 Z " /><path fill="rgb(37,36,34)" stroke="rgb(37,36,34)" stroke-width="1" opacity="0.996078431372549" d="M 122.5 116 L 120.5 119 L 122.5 116 Z " /><path fill="rgb(37,36,34)" stroke="rgb(37,36,34)" stroke-width="1" opacity="0.996078431372549" d="M 41.5 117 L 37.5 122 L 41.5 117 Z " /><path fill="rgb(37,36,34)" stroke="rgb(37,36,34)" stroke-width="1" opacity="0.996078431372549" d="M 151.5 119 L 152.5 121 L 151.5 119 Z " /><path fill="rgb(37,36,34)" stroke="rgb(37,36,34)" stroke-width="1" opacity="0.996078431372549" d="M 119.5 120 L 118.5 122 L 119.5 120 Z " /><path fill="rgb(37,36,34)" stroke="rgb(37,36,34)" stroke-width="1" opacity="0.996078431372549" d="M 125.5 120 L 124.5 122 L 125.5 120 Z " /><path fill="rgb(37,36,34)" stroke="rgb(37,36,34)" stroke-width="1" opacity="0.996078431372549" d="M 188.5 120 Q 190.8 120.8 190 124.5 L 189 124.5 L 188.5 120 Z " /><path fill="rgb(37,36,34)" stroke="rgb(37,36,34)" stroke-width="1" opacity="0.996078431372549" d="M 63.5 121 L 64.5 123 L 63.5 121 Z " /><path fill="rgb(37,36,34)" stroke="rgb(37,36,34)" stroke-width="1" opacity="0.996078431372549" d="M 21.5 122 L 22 130.5 L 21 130.5 L 21.5 122 Z " /><path fill="rgb(37,36,34)" stroke="rgb(37,36,34)" stroke-width="1" opacity="0.996078431372549" d="M 43.5 122 L 41.5 125 L 43.5 122 Z " /><path fill="rgb(37,36,34)" stroke="rgb(37,36,34)" stroke-width="1" opacity="0.996078431372549" d="M 35.5 124 L 34.5 126 L 35.5 124 Z " /><path fill="rgb(37,36,34)" stroke="rgb(37,36,34)" stroke-width="1" opacity="0.996078431372549" d="M 71.5 124 L 72.5 126 L 71.5 124 Z " /><path fill="rgb(37,36,34)" stroke="rgb(37,36,34)" stroke-width="1" opacity="0.996078431372549" d="M 159.5 124 L 160 133.5 L 159 133.5 L 159.5 124 Z " /><path fill="rgb(37,36,34)" stroke="rgb(37,36,34)" stroke-width="1" opacity="0.996078431372549" d="M 154.5 126 L 155 130.5 L 154 130.5 L 154.5 126 Z " /><path fill="rgb(37,36,34)" stroke="rgb(37,36,34)" stroke-width="1" opacity="0.996078431372549" d="M 115.5 128 L 116 130.5 L 114 131.5 L 115.5 128 Z " /><path fill="rgb(37,36,34)" stroke="rgb(37,36,34)" stroke-width="1" opacity="0.996078431372549" d="M 78.5 129 L 83 129.5 L 78.5 130 L 78.5 129 Z " /><path fill="rgb(37,36,34)" stroke="rgb(37,36,34)" stroke-width="1" opacity="0.996078431372549" d="M 99.5 129 L 107 129.5 L 99.5 130 L 99.5 129 Z " /><path fill="rgb(37,36,34)" stroke="rgb(37,36,34)" stroke-width="1" opacity="0.996078431372549" d="M 109.5 130 L 112 130.5 L 109.5 131 L 109.5 130 Z " /><path fill="rgb(37,36,34)" stroke="rgb(37,36,34)" stroke-width="1" opacity="0.996078431372549" d="M 120.5 131 L 121 134.5 L 120 134.5 L 120.5 131 Z " /><path fill="rgb(37,36,34)" stroke="rgb(37,36,34)" stroke-width="1" opacity="0.996078431372549" d="M 27.5 134 L 31 134.5 L 27.5 135 L 27.5 134 Z " /><path fill="rgb(37,36,34)" stroke="rgb(37,36,34)" stroke-width="1" opacity="0.996078431372549" d="M 82.5 134 L 102 134.5 L 82.5 135 L 82.5 134 Z " /><path fill="rgb(37,36,34)" stroke="rgb(37,36,34)" stroke-width="1" opacity="0.996078431372549" d="M 153.5 134 L 145.5 143 L 153.5 134 Z " /><path fill="rgb(37,36,34)" stroke="rgb(37,36,34)" stroke-width="1" opacity="0.996078431372549" d="M 75.5 135 L 78 135.5 L 74.5 137 L 75.5 135 Z " /><path fill="rgb(37,36,34)" stroke="rgb(37,36,34)" stroke-width="1" opacity="0.996078431372549" d="M 107.5 135 L 110 135.5 L 107.5 136 L 107.5 135 Z " /><path fill="rgb(37,36,34)" stroke="rgb(37,36,34)" stroke-width="1" opacity="0.996078431372549" d="M 159.5 136 L 162 137.5 L 160.5 138 L 159.5 136 Z " /><path fill="rgb(37,36,34)" stroke="rgb(37,36,34)" stroke-width="1" opacity="0.996078431372549" d="M 115.5 137 L 118 140.5 L 116 139.5 L 115.5 137 Z " /><path fill="rgb(37,36,34)" stroke="rgb(37,36,34)" stroke-width="1" opacity="0.996078431372549" d="M 67.5 139 L 63.5 144 L 67.5 139 Z " /><path fill="rgb(37,36,34)" stroke="rgb(37,36,34)" stroke-width="1" opacity="0.996078431372549" d="M 168.5 140 L 173 142.5 L 171.5 142 Q 167.8 141.8 168.5 140 Z " /><path fill="rgb(37,36,34)" stroke="rgb(37,36,34)" stroke-width="1" opacity="0.996078431372549" d="M 72.5 141 L 72 142.5 L 67.5 148 L 71 143.5 L 72.5 141 Z " /><path fill="rgb(37,36,34)" stroke="rgb(37,36,34)" stroke-width="1" opacity="0.996078431372549" d="M 154.5 141 L 165 144 L 164.5 146 L 155.5 142 L 144.5 150 L 134.5 151 L 134.5 150 Q 149.2 150.2 154.5 141 Z " /><path fill="rgb(37,36,34)" stroke="rgb(37,36,34)" stroke-width="1" opacity="0.996078431372549" d="M 118.5 142 L 121.5 146 L 118.5 142 Z " /><path fill="rgb(37,36,34)" stroke="rgb(37,36,34)" stroke-width="1" opacity="0.996078431372549" d="M 40.5 143 L 41.5 145 L 40.5 143 Z " /><path fill="rgb(37,36,34)" stroke="rgb(37,36,34)" stroke-width="1" opacity="0.996078431372549" d="M 61.5 144 L 60.5 146 L 61.5 144 Z " /><path fill="rgb(37,36,34)" stroke="rgb(37,36,34)" stroke-width="1" opacity="0.996078431372549" d="M 133.5 144 L 140 144.5 L 133.5 145 L 133.5 144 Z " /><path fill="rgb(37,36,34)" stroke="rgb(37,36,34)" stroke-width="1" opacity="0.996078431372549" d="M 176.5 144 L 181 147.5 L 179.5 148 L 176.5 144 Z " /><path fill="rgb(37,36,34)" stroke="rgb(37,36,34)" stroke-width="1" opacity="0.996078431372549" d="M 43.5 145 L 46 146.5 L 44.5 147 L 43.5 145 Z " /><path fill="rgb(37,36,34)" stroke="rgb(37,36,34)" stroke-width="1" opacity="0.996078431372549" d="M 123.5 146 L 126 147.5 L 124.5 148 L 123.5 146 Z " /><path fill="rgb(37,36,34)" stroke="rgb(37,36,34)" stroke-width="1" opacity="0.996078431372549" d="M 168.5 146 L 173 148.5 L 171.5 148 Q 167.8 147.8 168.5 146 Z " /><path fill="rgb(37,36,34)" stroke="rgb(37,36,34)" stroke-width="1" opacity="0.996078431372549" d="M 47.5 147 L 55 147.5 L 47.5 148 L 47.5 147 Z " /><path fill="rgb(37,36,34)" stroke="rgb(37,36,34)" stroke-width="1" opacity="0.996078431372549" d="M 38.5 148 L 39.5 150 L 38.5 148 Z " /><path fill="rgb(37,36,34)" stroke="rgb(37,36,34)" stroke-width="1" opacity="0.996078431372549" d="M 65.5 148 L 64.5 150 L 65.5 148 Z " /><path fill="rgb(37,36,34)" stroke="rgb(37,36,34)" stroke-width="1" opacity="0.996078431372549" d="M 130.5 149 L 133 149.5 L 130.5 150 L 130.5 149 Z " /><path fill="rgb(37,36,34)" stroke="rgb(37,36,34)" stroke-width="1" opacity="0.996078431372549" d="M 45.5 152 L 48 152.5 L 45.5 153 L 45.5 152 Z " /><path fill="rgb(37,36,34)" stroke="rgb(37,36,34)" stroke-width="1" opacity="0.996078431372549" d="M 54.5 152 L 57 152.5 L 54.5 153 L 54.5 152 Z " /><path fill="rgb(37,36,34)" stroke="rgb(37,36,34)" stroke-width="1" opacity="0.996078431372549" d="M 28.5 153 L 29 155.5 L 28 155.5 L 28.5 153 Z " /><path fill="rgb(37,36,34)" stroke="rgb(37,36,34)" stroke-width="1" opacity="0.996078431372549" d="M 93.5 153 L 97.5 153 L 103.5 156 L 119 169.5 L 123.5 176 Q 130.1 179.1 140 178 L 137 171.5 L 137 167.5 L 145.5 158 L 156.5 153 L 162.5 153 L 166 155.5 L 164.5 155 L 157.5 154 Q 144.9 156.9 139 166.5 L 138 171.5 L 142 177.5 L 142 180 Q 137.1 178.3 128.5 179 L 122 177 L 120 172.5 L 108.5 161 L 99.5 155 L 93.5 154 L 93.5 153 Z " /><path fill="rgb(37,36,34)" stroke="rgb(37,36,34)" stroke-width="1" opacity="0.996078431372549" d="M 79.5 154 L 82 154.5 Q 70.3 157.8 64 166.5 L 60.5 173 L 43.5 172 L 33 165.5 L 34.5 166 L 44.5 171 L 59.5 172 Q 62.8 163.8 69.5 159 L 79.5 154 Z " /><path fill="rgb(37,36,34)" stroke="rgb(37,36,34)" stroke-width="1" opacity="0.996078431372549" d="M 172.5 154 L 173 156.5 L 172 156.5 L 172.5 154 Z " /><path fill="rgb(37,36,34)" stroke="rgb(37,36,34)" stroke-width="1" opacity="0.996078431372549" d="M 22.5 155 Q 25.1 154.2 24 157.5 L 23 157.5 L 22.5 156 L 20 157.5 L 22.5 155 Z " /><path fill="rgb(37,36,34)" stroke="rgb(37,36,34)" stroke-width="1" opacity="0.996078431372549" d="M 85.5 158 L 88 158.5 L 85.5 159 L 85.5 158 Z " /><path fill="rgb(37,36,34)" stroke="rgb(37,36,34)" stroke-width="1" opacity="0.996078431372549" d="M 89.5 158 L 93 158.5 L 89.5 159 L 89.5 158 Z " /><path fill="rgb(37,36,34)" stroke="rgb(37,36,34)" stroke-width="1" opacity="0.996078431372549" d="M 168.5 158 L 171 159.5 L 171.5 158 L 172 159.5 L 170.5 161 L 168.5 158 Z " /><path fill="rgb(37,36,34)" stroke="rgb(37,36,34)" stroke-width="1" opacity="0.996078431372549" d="M 158.5 159 L 161.5 159 L 170 167.5 L 171 169.5 L 169 168.5 L 161.5 160 Q 157.5 160.8 158.5 159 Z " /><path fill="rgb(37,36,34)" stroke="rgb(37,36,34)" stroke-width="1" opacity="0.996078431372549" d="M 80.5 160 L 82 160.5 L 75.5 164 L 76.5 162 L 80.5 160 Z " /><path fill="rgb(37,36,34)" stroke="rgb(37,36,34)" stroke-width="1" opacity="0.996078431372549" d="M 152.5 161 L 154 161.5 L 151.5 163 L 152.5 161 Z " /><path fill="rgb(37,36,34)" stroke="rgb(37,36,34)" stroke-width="1" opacity="0.996078431372549" d="M 101.5 162 L 102.5 164 L 101.5 162 Z " /><path fill="rgb(37,36,34)" stroke="rgb(37,36,34)" stroke-width="1" opacity="0.996078431372549" d="M 30.5 163 L 31.5 165 L 30.5 163 Z " /><path fill="rgb(37,36,34)" stroke="rgb(37,36,34)" stroke-width="1" opacity="0.996078431372549" d="M 149.5 163 L 144.5 169 L 149.5 163 Z " /><path fill="rgb(37,36,34)" stroke="rgb(37,36,34)" stroke-width="1" opacity="0.996078431372549" d="M 73.5 164 L 72.5 166 L 73.5 164 Z " /><path fill="rgb(37,36,34)" stroke="rgb(37,36,34)" stroke-width="1" opacity="0.996078431372549" d="M 104.5 164 L 115.5 176 L 104.5 164 Z " /><path fill="rgb(37,36,34)" stroke="rgb(37,36,34)" stroke-width="1" opacity="0.996078431372549" d="M 25.5 165 L 28 168.5 L 25 166.5 L 25.5 165 Z " /><path fill="rgb(37,36,34)" stroke="rgb(37,36,34)" stroke-width="1" opacity="0.996078431372549" d="M 175.5 166 L 177 169.5 L 176 169.5 L 175.5 166 Z " /><path fill="rgb(37,36,34)" stroke="rgb(37,36,34)" stroke-width="1" opacity="0.996078431372549" d="M 17.5 168 L 24.5 176 L 17.5 168 Z " /><path fill="rgb(37,36,34)" stroke="rgb(37,36,34)" stroke-width="1" opacity="0.996078431372549" d="M 69.5 168 L 68.5 170 L 69.5 168 Z " /><path fill="rgb(37,36,34)" stroke="rgb(37,36,34)" stroke-width="1" opacity="0.996078431372549" d="M 29.5 169 L 31.5 172 L 29.5 169 Z " /><path fill="rgb(37,36,34)" stroke="rgb(37,36,34)" stroke-width="1" opacity="0.996078431372549" d="M 67.5 171 L 68 173.5 L 67 173.5 L 67.5 171 Z " /><path fill="rgb(37,36,34)" stroke="rgb(37,36,34)" stroke-width="1" opacity="0.996078431372549" d="M 33.5 172 L 35 174.5 L 31.5 177 L 31.5 176 L 34 174.5 L 33.5 172 Z " /><path fill="rgb(37,36,34)" stroke="rgb(37,36,34)" stroke-width="1" opacity="0.996078431372549" d="M 172.5 173 L 166.5 180 L 172.5 173 Z " /><path fill="rgb(37,36,34)" stroke="rgb(37,36,34)" stroke-width="1" opacity="0.996078431372549" d="M 116.5 177 L 118 179.5 L 117 179.5 L 116.5 177 Z " /><path fill="rgb(37,36,34)" stroke="rgb(37,36,34)" stroke-width="1" opacity="0.996078431372549" d="M 148.5 179 L 149.5 181 L 148.5 179 Z " /><path fill="rgb(37,36,34)" stroke="rgb(37,36,34)" stroke-width="1" opacity="0.996078431372549" d="M 164.5 180 L 163.5 182 L 164.5 180 Z " /><path fill="rgb(37,36,34)" stroke="rgb(37,36,34)" stroke-width="1" opacity="0.996078431372549" d="M 117.5 181 L 118 182.5 L 116 183.5 L 117.5 181 Z " /><path fill="rgb(37,36,34)" stroke="rgb(37,36,34)" stroke-width="1" opacity="0.996078431372549" d="M 150.5 182 Q 152 185 157 184.5 L 152.5 185 L 150.5 182 Z " /><path fill="rgb(37,36,34)" stroke="rgb(37,36,34)" stroke-width="1" opacity="0.996078431372549" d="M 84.5 183 L 86 186.5 L 84 187.5 L 85 184.5 L 84.5 183 Z " /><path fill="rgb(37,36,34)" stroke="rgb(37,36,34)" stroke-width="1" opacity="0.996078431372549" d="M 62.5 185 L 67 185.5 L 62.5 186 L 62.5 185 Z " /><path fill="rgb(37,36,34)" stroke="rgb(37,36,34)" stroke-width="1" opacity="0.996078431372549" d="M 51.5 186 L 54 186.5 L 51.5 187 L 51.5 186 Z " /><path fill="rgb(37,36,34)" stroke="rgb(37,36,34)" stroke-width="1" opacity="0.996078431372549" d="M 48.5 187 L 46.5 190 L 48.5 187 Z " /><path fill="rgb(37,36,34)" stroke="rgb(37,36,34)" stroke-width="1" opacity="0.996078431372549" d="M 78.5 187 L 81 187.5 L 78.5 188 L 78.5 187 Z " /><path fill="rgb(37,36,34)" stroke="rgb(37,36,34)" stroke-width="1" opacity="0.996078431372549" d="M 111.5 189 L 112.5 191 L 111.5 189 Z " /><path fill="rgb(37,36,34)" stroke="rgb(37,36,34)" stroke-width="1" opacity="0.996078431372549" d="M 115.5 191 L 119 191.5 L 115.5 192 L 115.5 191 Z " /><path fill="rgb(37,36,34)" stroke="rgb(37,36,34)" stroke-width="1" opacity="0.996078431372549" d="M 121.5 192 L 124 192.5 L 121.5 193 L 121.5 192 Z " /><path fill="rgb(37,36,34)" stroke="rgb(37,36,34)" stroke-width="1" opacity="0.996078431372549" d="M 45.5 193 L 49 197.5 L 45 194.5 L 45.5 193 Z " /><path fill="rgb(37,36,34)" stroke="rgb(37,36,34)" stroke-width="1" opacity="0.996078431372549" d="M 126.5 193 L 129 193.5 L 126.5 194 L 126.5 193 Z " /><path fill="rgb(37,36,34)" stroke="rgb(37,36,34)" stroke-width="1" opacity="0.996078431372549" d="M 134.5 195 L 137 196.5 L 135.5 196 L 134.5 195 Z " /><path fill="rgb(37,36,34)" stroke="rgb(37,36,34)" stroke-width="1" opacity="0.996078431372549" d="M 55.5 199 L 58 199.5 L 55.5 200 L 55.5 199 Z " /><path fill="rgb(96,105,61)" stroke="rgb(96,105,61)" stroke-width="1" opacity="1" d="M 136.5 66 L 140 66.5 L 136.5 67 L 136.5 66 Z " /><path fill="rgb(96,105,61)" stroke="rgb(96,105,61)" stroke-width="1" opacity="1" d="M 84.5 80 L 83.5 82 L 84.5 80 Z " /><path fill="rgb(96,105,61)" stroke="rgb(96,105,61)" stroke-width="1" opacity="1" d="M 104.5 86 L 106.5 89 L 104.5 86 Z " /><path fill="rgb(96,105,61)" stroke="rgb(96,105,61)" stroke-width="1" opacity="1" d="M 114.5 86 L 117 86.5 L 114.5 87 L 114.5 86 Z " /><path fill="rgb(96,105,61)" stroke="rgb(96,105,61)" stroke-width="1" opacity="1" d="M 92.5 88 L 96 88.5 L 92.5 89 L 92.5 88 Z " /><path fill="rgb(96,105,61)" stroke="rgb(96,105,61)" stroke-width="1" opacity="1" d="M 88.5 102 L 91 103.5 L 89.5 104 L 88.5 102 Z " /><path fill="rgb(96,105,61)" stroke="rgb(96,105,61)" stroke-width="1" opacity="1" d="M 137.5 114 Q 147.6 112.9 151 118.5 Q 155.5 123 154 133.5 L 144.5 143 Q 139.4 145.4 130.5 144 L 126 142 L 128.5 138 L 131 136.5 L 129 127.5 L 136 121.5 L 132 116.5 L 137.5 114 Z " /><path fill="rgb(96,105,61)" stroke="rgb(96,105,61)" stroke-width="1" opacity="1" d="M 128.5 117 L 126.5 120 L 128.5 117 Z " /><path fill="rgb(96,105,61)" stroke="rgb(96,105,61)" stroke-width="1" opacity="1" d="M 52.5 119 Q 61.5 118.5 65 123.5 L 69 130.5 L 69 135.5 Q 67.6 141.6 62.5 144 Q 57.7 148.7 46.5 147 L 41 143.5 L 44 138 L 46 137.5 L 46 129.5 L 48 125.5 Q 42.8 123.3 46.5 121 L 52.5 119 Z " /><path fill="rgb(96,105,61)" stroke="rgb(96,105,61)" stroke-width="1" opacity="1" d="M 78.5 135 L 106.5 135 L 116 138.5 L 121.5 146 Q 128.7 151.3 141.5 151 Q 150.5 148 156.5 142 L 164.5 146 L 166.5 146 L 173 149.5 L 173 153.5 L 170.5 160 L 168 156 L 162.5 153 L 156.5 153 Q 145.7 155.7 140 163.5 L 137 167.5 L 137 171.5 L 140 178 L 125.5 177 L 122 174.5 L 111.5 162 L 97.5 153 L 84 152.5 L 99.5 152 L 105 153 L 106 141.5 L 104.5 140 L 83.5 139 L 79 140 L 74.5 147 L 65.5 150 L 66.5 148 L 72 143.5 L 75.5 136 L 78.5 135 Z " /><path fill="rgb(96,105,61)" stroke="rgb(96,105,61)" stroke-width="1" opacity="1" d="M 29.5 140 L 33 141.5 Q 34.4 147.6 39.5 150 L 45 152.5 L 43.5 153 L 33 144.5 L 32 141 L 29 141.5 L 29 152.5 L 28 152.5 L 28 141.5 L 29.5 140 Z " /><path fill="rgb(96,105,61)" stroke="rgb(96,105,61)" stroke-width="1" opacity="1" d="M 47.5 153 L 55 153.5 L 47.5 154 L 47.5 153 Z " /><path fill="rgb(96,105,61)" stroke="rgb(96,105,61)" stroke-width="1" opacity="1" d="M 78.5 153 L 83 153.5 Q 69.6 156.1 63 165.5 L 59.5 172 L 44.5 171 L 30 162.5 L 32.5 164 L 33.5 163 L 58.5 159 L 78.5 153 Z " /><path fill="rgb(96,105,61)" stroke="rgb(96,105,61)" stroke-width="1" opacity="1" d="M 29.5 155 L 30 160.5 L 29 160.5 L 29.5 155 Z " /><path fill="rgb(96,105,61)" stroke="rgb(96,105,61)" stroke-width="1" opacity="1" d="M 28.5 169 L 29.5 171 L 28.5 169 Z " /><path fill="rgb(96,105,61)" stroke="rgb(96,105,61)" stroke-width="1" opacity="1" d="M 32.5 172 L 34 174.5 L 32 175.5 L 33 173.5 L 32.5 172 Z " /><path fill="rgb(96,105,61)" stroke="rgb(96,105,61)" stroke-width="1" opacity="1" d="M 28.5 176 L 31 176.5 L 28.5 177 L 28.5 176 Z " /><path fill="rgb(81,93,116)" stroke="rgb(81,93,116)" stroke-width="1" opacity="1" d="M 154.5 68 L 153.5 70 L 154.5 68 Z " /><path fill="rgb(81,93,116)" stroke="rgb(81,93,116)" stroke-width="1" opacity="1" d="M 63.5 74 L 67.5 79 L 63.5 74 Z " /><path fill="rgb(81,93,116)" stroke="rgb(81,93,116)" stroke-width="1" opacity="1" d="M 147.5 74 L 146.5 76 L 147.5 74 Z " /><path fill="rgb(81,93,116)" stroke="rgb(81,93,116)" stroke-width="1" opacity="1" d="M 90.5 80 L 91.5 82 L 90.5 80 Z " /><path fill="rgb(81,93,116)" stroke="rgb(81,93,116)" stroke-width="1" opacity="1" d="M 128.5 86 L 133 86.5 L 128.5 87 L 128.5 86 Z " /><path fill="rgb(81,93,116)" stroke="rgb(81,93,116)" stroke-width="1" opacity="1" d="M 123.5 92 L 129 92.5 L 123.5 93 L 123.5 92 Z " /><path fill="rgb(81,93,116)" stroke="rgb(81,93,116)" stroke-width="1" opacity="1" d="M 67.5 93 L 66.5 95 L 67.5 93 Z " /><path fill="rgb(81,93,116)" stroke="rgb(81,93,116)" stroke-width="1" opacity="1" d="M 160.5 101 L 161.5 103 L 160.5 101 Z " /><path fill="rgb(81,93,116)" stroke="rgb(81,93,116)" stroke-width="1" opacity="1" d="M 29.5 102 L 26.5 106 L 29.5 102 Z " /><path fill="rgb(81,93,116)" stroke="rgb(81,93,116)" stroke-width="1" opacity="1" d="M 137.5 108 L 144 108.5 L 137.5 109 L 137.5 108 Z " /><path fill="rgb(81,93,116)" stroke="rgb(81,93,116)" stroke-width="1" opacity="1" d="M 172.5 108 L 188 119.5 L 189 125.5 L 182 147 L 179.5 147 L 171.5 141 L 159 135.5 Q 164.1 120.6 173 109.5 L 172.5 108 Z " /><path fill="rgb(81,93,116)" stroke="rgb(81,93,116)" stroke-width="1" opacity="1" d="M 75.5 109 L 85 109.5 L 75.5 110 L 75.5 109 Z " /><path fill="rgb(81,93,116)" stroke="rgb(81,93,116)" stroke-width="1" opacity="1" d="M 151.5 111 L 152.5 113 L 151.5 111 Z " /><path fill="rgb(81,93,116)" stroke="rgb(81,93,116)" stroke-width="1" opacity="1" d="M 125.5 112 L 120.5 118 L 125.5 112 Z " /><path fill="rgb(81,93,116)" stroke="rgb(81,93,116)" stroke-width="1" opacity="1" d="M 53.5 113 L 57 113.5 L 53.5 114 L 53.5 113 Z " /><path fill="rgb(81,93,116)" stroke="rgb(81,93,116)" stroke-width="1" opacity="1" d="M 155.5 115 L 156.5 117 L 155.5 115 Z " /><path fill="rgb(81,93,116)" stroke="rgb(81,93,116)" stroke-width="1" opacity="1" d="M 67.5 117 L 68.5 119 L 67.5 117 Z " /><path fill="rgb(81,93,116)" stroke="rgb(81,93,116)" stroke-width="1" opacity="1" d="M 39.5 118 L 38.5 120 L 39.5 118 Z " /><path fill="rgb(81,93,116)" stroke="rgb(81,93,116)" stroke-width="1" opacity="1" d="M 119.5 119 L 118.5 121 L 119.5 119 Z " /><path fill="rgb(81,93,116)" stroke="rgb(81,93,116)" stroke-width="1" opacity="1" d="M 69.5 120 L 70.5 122 L 69.5 120 Z " /><path fill="rgb(81,93,116)" stroke="rgb(81,93,116)" stroke-width="1" opacity="1" d="M 36.5 122 L 34.5 125 L 36.5 122 Z " /><path fill="rgb(81,93,116)" stroke="rgb(81,93,116)" stroke-width="1" opacity="1" d="M 81.5 126 L 104.5 126 L 115 128 L 115.5 126 L 116 127.5 L 115 131 L 106.5 129 L 78.5 129 L 75.5 130 L 74.5 128 L 81.5 126 Z " /><path fill="rgb(81,93,116)" stroke="rgb(81,93,116)" stroke-width="1" opacity="1" d="M 24.5 134 L 27 134.5 L 24.5 135 L 24.5 134 Z " /><path fill="rgb(81,93,116)" stroke="rgb(81,93,116)" stroke-width="1" opacity="1" d="M 88.5 158 L 96.5 160 L 103.5 164 L 116 176.5 L 118 180.5 L 116 185 L 111 186 Q 110 189.8 112.5 191 L 130.5 194 L 138 197 L 137.5 200 L 68.5 200 L 64.5 197 L 58 196 Q 56.8 191.4 59.5 190 Q 63 187.5 70.5 189 L 71.5 190 L 87.5 190 L 90 186.5 L 87 182.5 L 91 177 Q 87.3 178.5 88 175.5 L 86 172.5 L 90 170 L 84.5 163 L 81 165 L 79.5 168 L 69 174.5 L 72 179.5 L 69 177.5 L 68 170.5 L 71.5 166 L 88.5 158 Z " /><path fill="rgb(81,93,116)" stroke="rgb(81,93,116)" stroke-width="1" opacity="1" d="M 157.5 160 L 161.5 160 L 169 167.5 L 172 173.5 Q 166.8 183.3 152.5 184 Q 146.6 178.4 144 169.5 Q 148.5 162.4 157.5 160 Z " /><path fill="rgb(81,93,116)" stroke="rgb(81,93,116)" stroke-width="1" opacity="1" d="M 77.5 181 L 80 181.5 L 77.5 182 L 77.5 181 Z " /><path fill="rgb(81,93,116)" stroke="rgb(81,93,116)" stroke-width="1" opacity="1" d="M 54.5 186 L 71 186.5 L 54.5 187 L 54.5 186 Z " /><path fill="rgb(81,93,116)" stroke="rgb(81,93,116)" stroke-width="1" opacity="1" d="M 49.5 187 L 52 187.5 L 46.5 191 L 49.5 187 Z " /><path fill="rgb(81,93,116)" stroke="rgb(81,93,116)" stroke-width="1" opacity="1" d="M 73.5 187 L 78 187.5 L 73.5 188 L 73.5 187 Z " /><path fill="rgb(81,93,116)" stroke="rgb(81,93,116)" stroke-width="1" opacity="1" d="M 80.5 188 L 84 188.5 L 80.5 189 L 80.5 188 Z " /><path fill="rgb(81,93,116)" stroke="rgb(81,93,116)" stroke-width="1" opacity="1" d="M 46.5 194 L 51 197.5 L 49.5 198 L 46.5 194 Z " /><path fill="rgb(81,93,116)" stroke="rgb(81,93,116)" stroke-width="1" opacity="1" d="M 52.5 198 L 56 198.5 L 52.5 199 L 52.5 198 Z " /></svg>