<svg width="200" height="200" version="1.1" xmlns="http://www.w3.org/2000/svg" desc="Created with imagetracer.js version 1.2.6" ><path fill="rgb(0,0,0)" stroke="rgb(0,0,0)" stroke-width="1" opacity="0" d="M 0 0 L 200 0 L 200 200 L 174.5 200 L 174 198.5 L 170 185.5 L 165 176.5 L 168 173.5 L 169 167.5 L 166 156.5 L 162 148.5 Q 170.1 143.1 168 127.5 L 167 126.5 L 167 118.5 L 166 117.5 L 165 106.5 L 162 96.5 L 162 84.5 L 161 83.5 L 160 71.5 L 153 53.5 L 145.5 42 L 138.5 41 Q 123.4 51.4 112 65.5 L 105.5 74 L 85.5 74 L 85 72.5 Q 81.7 52.3 69.5 41 L 62.5 39 L 53 47.5 Q 45.4 55.4 41 66.5 L 38 77.5 Q 39.5 85 37 88.5 L 38 90.5 L 33 107.5 L 32 119.5 L 26 129.5 L 25 137.5 L 29.5 144 L 40 149.5 Q 31.6 158.1 30 173.5 L 34 178.5 L 34 180.5 Q 28 188.8 26 200 L 0.5 200 L 0 199.5 L 0 0 Z " /><path fill="rgb(0,0,0)" stroke="rgb(0,0,0)" stroke-width="1" opacity="0.9529411764705882" d="M 61.5 40 L 63 40.5 L 53.5 49 L 61.5 40 Z " /><path fill="rgb(0,0,0)" stroke="rgb(0,0,0)" stroke-width="1" opacity="0.9529411764705882" d="M 64.5 40 L 67 40.5 L 64.5 41 L 64.5 40 Z " /><path fill="rgb(0,0,0)" stroke="rgb(0,0,0)" stroke-width="1" opacity="0.9529411764705882" d="M 68.5 41 L 72.5 46 L 68.5 41 Z " /><path fill="rgb(0,0,0)" stroke="rgb(0,0,0)" stroke-width="1" opacity="0.9529411764705882" d="M 140.5 41 Q 146.1 41.5 148 45.5 L 144.5 43 L 140.5 42 L 140.5 41 Z " /><path fill="rgb(0,0,0)" stroke="rgb(0,0,0)" stroke-width="1" opacity="0.9529411764705882" d="M 136.5 43 L 133.5 47 L 136.5 43 Z " /><path fill="rgb(0,0,0)" stroke="rgb(0,0,0)" stroke-width="1" opacity="0.9529411764705882" d="M 73.5 47 L 74.5 49 L 73.5 47 Z " /><path fill="rgb(0,0,0)" stroke="rgb(0,0,0)" stroke-width="1" opacity="0.9529411764705882" d="M 131.5 47 L 127.5 52 L 131.5 47 Z " /><path fill="rgb(0,0,0)" stroke="rgb(0,0,0)" stroke-width="1" opacity="0.9529411764705882" d="M 75.5 50 L 79 55.5 L 77 54.5 L 75.5 50 Z " /><path fill="rgb(0,0,0)" stroke="rgb(0,0,0)" stroke-width="1" opacity="0.9529411764705882" d="M 51.5 51 L 49.5 54 L 51.5 51 Z " /><path fill="rgb(0,0,0)" stroke="rgb(0,0,0)" stroke-width="1" opacity="0.9529411764705882" d="M 125.5 52 L 118.5 60 L 125.5 52 Z " /><path fill="rgb(0,0,0)" stroke="rgb(0,0,0)" stroke-width="1" opacity="0.9529411764705882" d="M 48.5 55 L 47.5 57 L 48.5 55 Z " /><path fill="rgb(0,0,0)" stroke="rgb(0,0,0)" stroke-width="1" opacity="0.9529411764705882" d="M 46.5 58 L 45.5 60 L 46.5 58 Z " /><path fill="rgb(0,0,0)" stroke="rgb(0,0,0)" stroke-width="1" opacity="0.9529411764705882" d="M 116.5 62 L 112 67.5 L 109.5 71 L 111 68.5 L 116.5 62 Z " /><path fill="rgb(0,0,0)" stroke="rgb(0,0,0)" stroke-width="1" opacity="0.9529411764705882" d="M 43.5 63 L 44 64.5 L 42.5 67 L 42 65.5 L 43.5 63 Z " /><path fill="rgb(0,0,0)" stroke="rgb(0,0,0)" stroke-width="1" opacity="0.9529411764705882" d="M 83.5 69 L 84 71.5 L 83 71.5 L 83.5 69 Z " /><path fill="rgb(0,0,0)" stroke="rgb(0,0,0)" stroke-width="1" opacity="0.9529411764705882" d="M 108.5 72 L 106.5 75 L 84 74.5 L 106.5 74 L 108.5 72 Z " /><path fill="rgb(0,0,0)" stroke="rgb(0,0,0)" stroke-width="1" opacity="0.9529411764705882" d="M 159.5 74 L 160 76.5 L 159 76.5 L 159.5 74 Z " /><path fill="rgb(0,0,0)" stroke="rgb(0,0,0)" stroke-width="1" opacity="0.9529411764705882" d="M 38.5 80 L 39 90.5 L 38 90.5 L 38.5 80 Z " /><path fill="rgb(0,0,0)" stroke="rgb(0,0,0)" stroke-width="1" opacity="0.9529411764705882" d="M 160.5 80 L 161 83.5 L 160 83.5 L 160.5 80 Z " /><path fill="rgb(0,0,0)" stroke="rgb(0,0,0)" stroke-width="1" opacity="0.9529411764705882" d="M 161.5 89 L 162 95.5 L 161 95.5 L 161.5 89 Z " /><path fill="rgb(0,0,0)" stroke="rgb(0,0,0)" stroke-width="1" opacity="0.9529411764705882" d="M 37.5 93 L 38 95.5 L 37 95.5 L 37.5 93 Z " /><path fill="rgb(0,0,0)" stroke="rgb(0,0,0)" stroke-width="1" opacity="0.9529411764705882" d="M 163.5 104 L 164 106.5 L 163 106.5 L 163.5 104 Z " /><path fill="rgb(0,0,0)" stroke="rgb(0,0,0)" stroke-width="1" opacity="0.9529411764705882" d="M 34.5 105 L 35 107.5 L 34 107.5 L 34.5 105 Z " /><path fill="rgb(0,0,0)" stroke="rgb(0,0,0)" stroke-width="1" opacity="0.9529411764705882" d="M 164.5 109 L 165 111.5 L 164 111.5 L 164.5 109 Z " /><path fill="rgb(0,0,0)" stroke="rgb(0,0,0)" stroke-width="1" opacity="0.9529411764705882" d="M 33.5 110 L 34 112.5 L 33 112.5 L 33.5 110 Z " /><path fill="rgb(0,0,0)" stroke="rgb(0,0,0)" stroke-width="1" opacity="0.9529411764705882" d="M 165.5 115 L 166 118.5 L 165 118.5 L 165.5 115 Z " /><path fill="rgb(0,0,0)" stroke="rgb(0,0,0)" stroke-width="1" opacity="0.9529411764705882" d="M 32.5 118 L 33 120.5 L 32 120.5 L 32.5 118 Z " /><path fill="rgb(0,0,0)" stroke="rgb(0,0,0)" stroke-width="1" opacity="0.9529411764705882" d="M 31.5 122 L 30.5 124 L 31.5 122 Z " /><path fill="rgb(0,0,0)" stroke="rgb(0,0,0)" stroke-width="1" opacity="0.9529411764705882" d="M 166.5 122 L 167 126.5 L 166 126.5 L 166.5 122 Z " /><path fill="rgb(0,0,0)" stroke="rgb(0,0,0)" stroke-width="1" opacity="0.9529411764705882" d="M 29.5 125 L 29 126.5 L 28.5 128 L 28 126.5 L 29.5 125 Z " /><path fill="rgb(0,0,0)" stroke="rgb(0,0,0)" stroke-width="1" opacity="0.9529411764705882" d="M 167.5 130 L 168 134.5 L 167 134.5 L 167.5 130 Z " /><path fill="rgb(0,0,0)" stroke="rgb(0,0,0)" stroke-width="1" opacity="0.9529411764705882" d="M 26.5 132 L 27 134.5 L 26 134.5 L 26.5 132 Z " /><path fill="rgb(0,0,0)" stroke="rgb(0,0,0)" stroke-width="1" opacity="0.9529411764705882" d="M 26.5 137 L 28 139.5 L 26 138.5 L 26.5 137 Z " /><path fill="rgb(0,0,0)" stroke="rgb(0,0,0)" stroke-width="1" opacity="0.9529411764705882" d="M 166.5 138 L 167 140.5 L 166 140.5 L 166.5 138 Z " /><path fill="rgb(0,0,0)" stroke="rgb(0,0,0)" stroke-width="1" opacity="0.9529411764705882" d="M 28.5 141 L 33 144.5 L 31.5 144 L 28.5 141 Z " /><path fill="rgb(0,0,0)" stroke="rgb(0,0,0)" stroke-width="1" opacity="0.9529411764705882" d="M 164.5 144 L 161.5 148 L 164.5 144 Z " /><path fill="rgb(0,0,0)" stroke="rgb(0,0,0)" stroke-width="1" opacity="0.9529411764705882" d="M 39.5 151 L 39 152.5 L 37.5 155 L 38 153.5 L 39.5 151 Z " /><path fill="rgb(0,0,0)" stroke="rgb(0,0,0)" stroke-width="1" opacity="0.9529411764705882" d="M 163.5 154 L 164.5 156 L 163.5 154 Z " /><path fill="rgb(0,0,0)" stroke="rgb(0,0,0)" stroke-width="1" opacity="0.9529411764705882" d="M 33.5 162 L 34 163.5 L 32.5 166 L 32 164.5 L 33.5 162 Z " /><path fill="rgb(0,0,0)" stroke="rgb(0,0,0)" stroke-width="1" opacity="0.9529411764705882" d="M 167.5 165 L 168 171.5 L 167 171.5 L 167.5 165 Z " /><path fill="rgb(0,0,0)" stroke="rgb(0,0,0)" stroke-width="1" opacity="0.9529411764705882" d="M 31.5 172 Q 31.9 177.1 36 178.5 L 31 174.5 L 31.5 172 Z " /><path fill="rgb(0,0,0)" stroke="rgb(0,0,0)" stroke-width="1" opacity="0.9529411764705882" d="M 165.5 179 L 168 183.5 L 167 183.5 L 165.5 179 Z " /><path fill="rgb(246,222,229)" stroke="rgb(246,222,229)" stroke-width="1" opacity="1" d="M 63.5 46 L 60.5 50 L 63.5 46 Z " /><path fill="rgb(246,222,229)" stroke="rgb(246,222,229)" stroke-width="1" opacity="1" d="M 55.5 55 L 54.5 57 L 55.5 55 Z " /><path fill="rgb(246,222,229)" stroke="rgb(246,222,229)" stroke-width="1" opacity="1" d="M 138.5 63 L 140.5 66 L 138.5 63 Z " /><path fill="rgb(246,222,229)" stroke="rgb(246,222,229)" stroke-width="1" opacity="1" d="M 120.5 66 L 118.5 69 L 120.5 66 Z " /><path fill="rgb(246,222,229)" stroke="rgb(246,222,229)" stroke-width="1" opacity="1" d="M 129.5 67 L 125.5 72 L 129.5 67 Z " /><path fill="rgb(246,222,229)" stroke="rgb(246,222,229)" stroke-width="1" opacity="1" d="M 152.5 71 L 153 88.5 L 152 88.5 L 152.5 71 Z " /><path fill="rgb(246,222,229)" stroke="rgb(246,222,229)" stroke-width="1" opacity="1" d="M 115.5 72 L 114.5 74 L 115.5 72 Z " /><path fill="rgb(246,222,229)" stroke="rgb(246,222,229)" stroke-width="1" opacity="1" d="M 53.5 73 L 54 75.5 L 53 75.5 L 53.5 73 Z " /><path fill="rgb(246,222,229)" stroke="rgb(246,222,229)" stroke-width="1" opacity="1" d="M 53.5 78 L 59 78.5 L 53.5 79 L 53.5 78 Z " /><path fill="rgb(246,222,229)" stroke="rgb(246,222,229)" stroke-width="1" opacity="1" d="M 63.5 78 L 67 78.5 L 63.5 79 L 63.5 78 Z " /><path fill="rgb(246,222,229)" stroke="rgb(246,222,229)" stroke-width="1" opacity="1" d="M 124.5 78 L 127 78.5 L 124.5 79 L 124.5 78 Z " /><path fill="rgb(246,222,229)" stroke="rgb(246,222,229)" stroke-width="1" opacity="1" d="M 151.5 91 L 152 94.5 L 151 94.5 L 151.5 91 Z " /><path fill="rgb(246,222,229)" stroke="rgb(246,222,229)" stroke-width="1" opacity="1" d="M 58.5 99 L 62 99.5 L 58.5 100 L 58.5 99 Z " /><path fill="rgb(246,222,229)" stroke="rgb(246,222,229)" stroke-width="1" opacity="1" d="M 149.5 99 L 150 102.5 L 149 102.5 L 149.5 99 Z " /><path fill="rgb(246,222,229)" stroke="rgb(246,222,229)" stroke-width="1" opacity="1" d="M 63.5 100 L 66.5 104 L 63.5 100 Z " /><path fill="rgb(246,222,229)" stroke="rgb(246,222,229)" stroke-width="1" opacity="1" d="M 53.5 103 L 53 104.5 L 52.5 106 L 52 104.5 L 53.5 103 Z " /><path fill="rgb(246,222,229)" stroke="rgb(246,222,229)" stroke-width="1" opacity="1" d="M 123.5 104 L 124.5 106 L 123.5 104 Z " /><path fill="rgb(246,222,229)" stroke="rgb(246,222,229)" stroke-width="1" opacity="1" d="M 67.5 105 L 71 111.5 L 70 111.5 L 67.5 105 Z " /><path fill="rgb(246,222,229)" stroke="rgb(246,222,229)" stroke-width="1" opacity="1" d="M 109.5 106 L 103.5 113 L 109.5 106 Z " /><path fill="rgb(246,222,229)" stroke="rgb(246,222,229)" stroke-width="1" opacity="1" d="M 152.5 110 L 153 112.5 L 152 112.5 L 152.5 110 Z " /><path fill="rgb(246,222,229)" stroke="rgb(246,222,229)" stroke-width="1" opacity="1" d="M 102.5 114 L 102 115.5 L 101.5 117 L 101 115.5 L 102.5 114 Z " /><path fill="rgb(246,222,229)" stroke="rgb(246,222,229)" stroke-width="1" opacity="1" d="M 51.5 116 L 53 118.5 L 51 117.5 L 51.5 116 Z " /><path fill="rgb(246,222,229)" stroke="rgb(246,222,229)" stroke-width="1" opacity="1" d="M 38.5 118 L 39 120.5 L 38 120.5 L 38.5 118 Z " /><path fill="rgb(246,222,229)" stroke="rgb(246,222,229)" stroke-width="1" opacity="1" d="M 70.5 120 L 69.5 122 L 70.5 120 Z " /><path fill="rgb(246,222,229)" stroke="rgb(246,222,229)" stroke-width="1" opacity="1" d="M 101.5 120 L 105 125.5 L 101 122.5 L 101.5 120 Z " /><path fill="rgb(246,222,229)" stroke="rgb(246,222,229)" stroke-width="1" opacity="1" d="M 125.5 120 L 122.5 124 L 125.5 120 Z " /><path fill="rgb(246,222,229)" stroke="rgb(246,222,229)" stroke-width="1" opacity="1" d="M 55.5 121 L 58 122.5 L 56.5 123 L 55.5 121 Z " /><path fill="rgb(246,222,229)" stroke="rgb(246,222,229)" stroke-width="1" opacity="1" d="M 155.5 121 L 156 124.5 L 155 124.5 L 155.5 121 Z " /><path fill="rgb(246,222,229)" stroke="rgb(246,222,229)" stroke-width="1" opacity="1" d="M 64.5 122 L 67 122.5 L 64.5 123 L 64.5 122 Z " /><path fill="rgb(246,222,229)" stroke="rgb(246,222,229)" stroke-width="1" opacity="1" d="M 91.5 125 L 93 127.5 L 91 128.5 L 92 126.5 L 91.5 125 Z " /><path fill="rgb(246,222,229)" stroke="rgb(246,222,229)" stroke-width="1" opacity="1" d="M 114.5 126 L 117 126.5 L 114.5 127 L 114.5 126 Z " /><path fill="rgb(246,222,229)" stroke="rgb(246,222,229)" stroke-width="1" opacity="1" d="M 156.5 127 L 157 132.5 L 156 132.5 L 156.5 127 Z " /><path fill="rgb(246,222,229)" stroke="rgb(246,222,229)" stroke-width="1" opacity="1" d="M 89.5 134 L 93.5 139 L 89.5 134 Z " /><path fill="rgb(246,222,229)" stroke="rgb(246,222,229)" stroke-width="1" opacity="1" d="M 154.5 136 L 153.5 138 L 154.5 136 Z " /><path fill="rgb(246,222,229)" stroke="rgb(246,222,229)" stroke-width="1" opacity="1" d="M 77.5 137 L 77 138.5 L 76.5 140 L 76 138.5 L 77.5 137 Z " /><path fill="rgb(246,222,229)" stroke="rgb(246,222,229)" stroke-width="1" opacity="1" d="M 77.5 141 L 80 141.5 L 77.5 142 L 77.5 141 Z " /><path fill="rgb(246,222,229)" stroke="rgb(246,222,229)" stroke-width="1" opacity="1" d="M 150.5 141 L 146.5 146 L 150.5 141 Z " /><path fill="rgb(246,222,229)" stroke="rgb(246,222,229)" stroke-width="1" opacity="1" d="M 90.5 151 L 94 151.5 L 90.5 152 L 90.5 151 Z " /><path fill="rgb(246,222,229)" stroke="rgb(246,222,229)" stroke-width="1" opacity="1" d="M 111.5 151 L 114 151.5 L 111.5 152 L 111.5 151 Z " /><path fill="rgb(253,234,240)" stroke="rgb(253,234,240)" stroke-width="1" opacity="1" d="M 137.5 50 L 136.5 52 L 137.5 50 Z " /><path fill="rgb(253,234,240)" stroke="rgb(253,234,240)" stroke-width="1" opacity="1" d="M 65.5 51 L 66.5 53 L 65.5 51 Z " /><path fill="rgb(253,234,240)" stroke="rgb(253,234,240)" stroke-width="1" opacity="1" d="M 57.5 53 L 56.5 55 L 57.5 53 Z " /><path fill="rgb(253,234,240)" stroke="rgb(253,234,240)" stroke-width="1" opacity="1" d="M 132.5 54 L 127.5 60 L 132.5 54 Z " /><path fill="rgb(253,234,240)" stroke="rgb(253,234,240)" stroke-width="1" opacity="1" d="M 125.5 61 L 124.5 63 L 125.5 61 Z " /><path fill="rgb(253,234,240)" stroke="rgb(253,234,240)" stroke-width="1" opacity="1" d="M 122.5 64 L 121.5 66 L 122.5 64 Z " /><path fill="rgb(253,234,240)" stroke="rgb(253,234,240)" stroke-width="1" opacity="1" d="M 131.5 65 L 130.5 67 L 131.5 65 Z " /><path fill="rgb(253,234,240)" stroke="rgb(253,234,240)" stroke-width="1" opacity="1" d="M 117.5 70 L 116.5 72 L 117.5 70 Z " /><path fill="rgb(253,234,240)" stroke="rgb(253,234,240)" stroke-width="1" opacity="1" d="M 144.5 75 L 145 77.5 L 144 77.5 L 144.5 75 Z " /><path fill="rgb(253,234,240)" stroke="rgb(253,234,240)" stroke-width="1" opacity="1" d="M 77.5 80 L 82 80.5 L 77.5 81 L 77.5 80 Z " /><path fill="rgb(253,234,240)" stroke="rgb(253,234,240)" stroke-width="1" opacity="1" d="M 101.5 80 L 104 80.5 L 101.5 81 L 101.5 80 Z " /><path fill="rgb(253,234,240)" stroke="rgb(253,234,240)" stroke-width="1" opacity="1" d="M 151.5 87 L 152 90.5 L 151 90.5 L 151.5 87 Z " /><path fill="rgb(253,234,240)" stroke="rgb(253,234,240)" stroke-width="1" opacity="1" d="M 56.5 99 L 58 99.5 L 55.5 101 L 56.5 99 Z " /><path fill="rgb(253,234,240)" stroke="rgb(253,234,240)" stroke-width="1" opacity="1" d="M 64.5 100 L 69 105.5 L 67 104.5 L 64.5 100 Z " /><path fill="rgb(253,234,240)" stroke="rgb(253,234,240)" stroke-width="1" opacity="1" d="M 53.5 102 L 52.5 104 L 53.5 102 Z " /><path fill="rgb(253,234,240)" stroke="rgb(253,234,240)" stroke-width="1" opacity="1" d="M 114.5 103 L 123 103.5 L 114.5 104 L 114.5 103 Z " /><path fill="rgb(253,234,240)" stroke="rgb(253,234,240)" stroke-width="1" opacity="1" d="M 111.5 104 L 113 104.5 Q 106.2 106.7 103 112.5 L 101.5 115 L 102 113.5 L 109.5 105 L 111.5 104 Z " /><path fill="rgb(253,234,240)" stroke="rgb(253,234,240)" stroke-width="1" opacity="1" d="M 125.5 106 L 127 108.5 L 126 108.5 L 125.5 106 Z " /><path fill="rgb(253,234,240)" stroke="rgb(253,234,240)" stroke-width="1" opacity="1" d="M 50.5 109 L 51 115.5 L 50 115.5 L 50.5 109 Z " /><path fill="rgb(253,234,240)" stroke="rgb(253,234,240)" stroke-width="1" opacity="1" d="M 127.5 110 L 128 117.5 L 127 117.5 L 127.5 110 Z " /><path fill="rgb(253,234,240)" stroke="rgb(253,234,240)" stroke-width="1" opacity="1" d="M 72.5 115 L 73 117.5 L 72 117.5 L 72.5 115 Z " /><path fill="rgb(253,234,240)" stroke="rgb(253,234,240)" stroke-width="1" opacity="1" d="M 100.5 116 L 101 121.5 L 100 121.5 L 100.5 116 Z " /><path fill="rgb(253,234,240)" stroke="rgb(253,234,240)" stroke-width="1" opacity="1" d="M 51.5 118 L 55.5 123 L 51.5 118 Z " /><path fill="rgb(253,234,240)" stroke="rgb(253,234,240)" stroke-width="1" opacity="1" d="M 57.5 123 L 65 123.5 L 57.5 124 L 57.5 123 Z " /><path fill="rgb(253,234,240)" stroke="rgb(253,234,240)" stroke-width="1" opacity="1" d="M 101.5 123 L 103.5 126 L 101.5 123 Z " /><path fill="rgb(253,234,240)" stroke="rgb(253,234,240)" stroke-width="1" opacity="1" d="M 37.5 124 L 36.5 126 L 37.5 124 Z " /><path fill="rgb(253,234,240)" stroke="rgb(253,234,240)" stroke-width="1" opacity="1" d="M 79.5 124 L 78.5 126 L 79.5 124 Z " /><path fill="rgb(253,234,240)" stroke="rgb(253,234,240)" stroke-width="1" opacity="1" d="M 155.5 125 L 156 128.5 L 155 128.5 L 155.5 125 Z " /><path fill="rgb(253,234,240)" stroke="rgb(253,234,240)" stroke-width="1" opacity="1" d="M 107.5 127 L 114 127.5 L 107.5 128 L 107.5 127 Z " /><path fill="rgb(253,234,240)" stroke="rgb(253,234,240)" stroke-width="1" opacity="1" d="M 84.5 129 L 88 129.5 L 84.5 130 L 84.5 129 Z " /><path fill="rgb(253,234,240)" stroke="rgb(253,234,240)" stroke-width="1" opacity="1" d="M 155.5 131 L 156 133.5 L 155 133.5 L 155.5 131 Z " /><path fill="rgb(253,234,240)" stroke="rgb(253,234,240)" stroke-width="1" opacity="1" d="M 82.5 132 L 87 132.5 L 82.5 133 L 82.5 132 Z " /><path fill="rgb(253,234,240)" stroke="rgb(253,234,240)" stroke-width="1" opacity="1" d="M 80.5 133 L 79.5 135 L 80.5 133 Z " /><path fill="rgb(253,234,240)" stroke="rgb(253,234,240)" stroke-width="1" opacity="1" d="M 88.5 133 L 95 138.5 L 94.5 140 L 89.5 134 L 88.5 133 Z " /><path fill="rgb(253,234,240)" stroke="rgb(253,234,240)" stroke-width="1" opacity="1" d="M 77.5 136 L 76.5 138 L 77.5 136 Z " /><path fill="rgb(253,234,240)" stroke="rgb(253,234,240)" stroke-width="1" opacity="1" d="M 152.5 138 L 148.5 143 L 152.5 138 Z " /><path fill="rgb(253,234,240)" stroke="rgb(253,234,240)" stroke-width="1" opacity="1" d="M 52.5 145 L 55 145.5 L 52.5 146 L 52.5 145 Z " /><path fill="rgb(253,234,240)" stroke="rgb(253,234,240)" stroke-width="1" opacity="1" d="M 78.5 150 L 82 150.5 L 78.5 151 L 78.5 150 Z " /><path fill="rgb(0,0,0)" stroke="rgb(0,0,0)" stroke-width="1" opacity="0.6039215686274509" d="M 62.5 39 L 66 39.5 L 62.5 40 L 62.5 39 Z " /><path fill="rgb(0,0,0)" stroke="rgb(0,0,0)" stroke-width="1" opacity="0.6039215686274509" d="M 60.5 40 L 53.5 48 L 60.5 40 Z " /><path fill="rgb(0,0,0)" stroke="rgb(0,0,0)" stroke-width="1" opacity="0.6039215686274509" d="M 69.5 41 L 72.5 45 L 69.5 41 Z " /><path fill="rgb(0,0,0)" stroke="rgb(0,0,0)" stroke-width="1" opacity="0.6039215686274509" d="M 138.5 41 L 140 41.5 L 137.5 43 L 138.5 41 Z " /><path fill="rgb(0,0,0)" stroke="rgb(0,0,0)" stroke-width="1" opacity="0.6039215686274509" d="M 145.5 42 L 147.5 45 L 145.5 42 Z " /><path fill="rgb(0,0,0)" stroke="rgb(0,0,0)" stroke-width="1" opacity="0.6039215686274509" d="M 135.5 43 L 132.5 47 L 135.5 43 Z " /><path fill="rgb(0,0,0)" stroke="rgb(0,0,0)" stroke-width="1" opacity="0.6039215686274509" d="M 73.5 46 L 74.5 48 L 73.5 46 Z " /><path fill="rgb(0,0,0)" stroke="rgb(0,0,0)" stroke-width="1" opacity="0.6039215686274509" d="M 148.5 46 L 149.5 48 L 148.5 46 Z " /><path fill="rgb(0,0,0)" stroke="rgb(0,0,0)" stroke-width="1" opacity="0.6039215686274509" d="M 130.5 47 L 126.5 52 L 130.5 47 Z " /><path fill="rgb(0,0,0)" stroke="rgb(0,0,0)" stroke-width="1" opacity="0.6039215686274509" d="M 52.5 49 L 49.5 53 L 52.5 49 Z " /><path fill="rgb(0,0,0)" stroke="rgb(0,0,0)" stroke-width="1" opacity="0.6039215686274509" d="M 75.5 49 L 76.5 51 L 75.5 49 Z " /><path fill="rgb(0,0,0)" stroke="rgb(0,0,0)" stroke-width="1" opacity="0.6039215686274509" d="M 48.5 54 L 47 56.5 L 45.5 59 L 46 57.5 L 48.5 54 Z " /><path fill="rgb(0,0,0)" stroke="rgb(0,0,0)" stroke-width="1" opacity="0.6039215686274509" d="M 154.5 58 L 156 61.5 L 155 61.5 L 154.5 58 Z " /><path fill="rgb(0,0,0)" stroke="rgb(0,0,0)" stroke-width="1" opacity="0.6039215686274509" d="M 117.5 60 L 112.5 66 L 117.5 60 Z " /><path fill="rgb(0,0,0)" stroke="rgb(0,0,0)" stroke-width="1" opacity="0.6039215686274509" d="M 110.5 68 L 109.5 70 L 110.5 68 Z " /><path fill="rgb(0,0,0)" stroke="rgb(0,0,0)" stroke-width="1" opacity="0.6039215686274509" d="M 108.5 71 L 106.5 74 L 108.5 71 Z " /><path fill="rgb(0,0,0)" stroke="rgb(0,0,0)" stroke-width="1" opacity="0.6039215686274509" d="M 159.5 71 L 160 73.5 L 159 73.5 L 159.5 71 Z " /><path fill="rgb(0,0,0)" stroke="rgb(0,0,0)" stroke-width="1" opacity="0.6039215686274509" d="M 160.5 76 L 161 79.5 L 160 79.5 L 160.5 76 Z " /><path fill="rgb(0,0,0)" stroke="rgb(0,0,0)" stroke-width="1" opacity="0.6039215686274509" d="M 38.5 77 L 39 79.5 L 38 79.5 L 38.5 77 Z " /><path fill="rgb(0,0,0)" stroke="rgb(0,0,0)" stroke-width="1" opacity="0.6039215686274509" d="M 161.5 84 L 162 88.5 L 161 88.5 L 161.5 84 Z " /><path fill="rgb(0,0,0)" stroke="rgb(0,0,0)" stroke-width="1" opacity="0.6039215686274509" d="M 162.5 97 L 163 99.5 L 162 99.5 L 162.5 97 Z " /><path fill="rgb(0,0,0)" stroke="rgb(0,0,0)" stroke-width="1" opacity="0.6039215686274509" d="M 164.5 106 L 165 108.5 L 164 108.5 L 164.5 106 Z " /><path fill="rgb(0,0,0)" stroke="rgb(0,0,0)" stroke-width="1" opacity="0.6039215686274509" d="M 33.5 107 L 34 109.5 L 33 109.5 L 33.5 107 Z " /><path fill="rgb(0,0,0)" stroke="rgb(0,0,0)" stroke-width="1" opacity="0.6039215686274509" d="M 165.5 112 L 166 114.5 L 165 114.5 L 165.5 112 Z " /><path fill="rgb(0,0,0)" stroke="rgb(0,0,0)" stroke-width="1" opacity="0.6039215686274509" d="M 32.5 113 L 33 117.5 L 32 117.5 L 32.5 113 Z " /><path fill="rgb(0,0,0)" stroke="rgb(0,0,0)" stroke-width="1" opacity="0.6039215686274509" d="M 166.5 118 L 167 121.5 L 166 121.5 L 166.5 118 Z " /><path fill="rgb(0,0,0)" stroke="rgb(0,0,0)" stroke-width="1" opacity="0.6039215686274509" d="M 31.5 120 L 32 121.5 L 30 122.5 L 31.5 120 Z " /><path fill="rgb(0,0,0)" stroke="rgb(0,0,0)" stroke-width="1" opacity="0.6039215686274509" d="M 29.5 124 L 28.5 126 L 29.5 124 Z " /><path fill="rgb(0,0,0)" stroke="rgb(0,0,0)" stroke-width="1" opacity="0.6039215686274509" d="M 27.5 127 L 28 128.5 L 26.5 132 L 26 129.5 L 27.5 127 Z " /><path fill="rgb(0,0,0)" stroke="rgb(0,0,0)" stroke-width="1" opacity="0.6039215686274509" d="M 167.5 127 L 168 129.5 L 167 129.5 L 167.5 127 Z " /><path fill="rgb(0,0,0)" stroke="rgb(0,0,0)" stroke-width="1" opacity="0.6039215686274509" d="M 25.5 134 L 26 137.5 L 25 137.5 L 25.5 134 Z " /><path fill="rgb(0,0,0)" stroke="rgb(0,0,0)" stroke-width="1" opacity="0.6039215686274509" d="M 167.5 135 L 168 138.5 L 167 138.5 L 167.5 135 Z " /><path fill="rgb(0,0,0)" stroke="rgb(0,0,0)" stroke-width="1" opacity="0.6039215686274509" d="M 26.5 139 L 30 143.5 L 27 141.5 L 26.5 139 Z " /><path fill="rgb(0,0,0)" stroke="rgb(0,0,0)" stroke-width="1" opacity="0.6039215686274509" d="M 164.5 145 L 162 148.5 L 161.5 150 L 161 148.5 L 164.5 145 Z " /><path fill="rgb(0,0,0)" stroke="rgb(0,0,0)" stroke-width="1" opacity="0.6039215686274509" d="M 39.5 150 L 38.5 152 L 39.5 150 Z " /><path fill="rgb(0,0,0)" stroke="rgb(0,0,0)" stroke-width="1" opacity="0.6039215686274509" d="M 162.5 151 L 165 154.5 L 163 153.5 L 162.5 151 Z " /><path fill="rgb(0,0,0)" stroke="rgb(0,0,0)" stroke-width="1" opacity="0.6039215686274509" d="M 36.5 155 L 35.5 157 L 36.5 155 Z " /><path fill="rgb(0,0,0)" stroke="rgb(0,0,0)" stroke-width="1" opacity="0.6039215686274509" d="M 168.5 167 L 169 169.5 L 168 169.5 L 168.5 167 Z " /><path fill="rgb(0,0,0)" stroke="rgb(0,0,0)" stroke-width="1" opacity="0.6039215686274509" d="M 30.5 169 L 31 173.5 L 30 173.5 L 30.5 169 Z " /><path fill="rgb(0,0,0)" stroke="rgb(0,0,0)" stroke-width="1" opacity="0.6039215686274509" d="M 167.5 172 L 168 173.5 L 165 175.5 L 167.5 172 Z " /><path fill="rgb(0,0,0)" stroke="rgb(0,0,0)" stroke-width="1" opacity="0.6039215686274509" d="M 31.5 175 L 35 179.5 L 34 179.5 L 31.5 175 Z " /><path fill="rgb(0,0,0)" stroke="rgb(0,0,0)" stroke-width="1" opacity="0.6039215686274509" d="M 165.5 177 L 167 179.5 L 165 178.5 L 165.5 177 Z " /><path fill="rgb(0,0,0)" stroke="rgb(0,0,0)" stroke-width="1" opacity="0.6039215686274509" d="M 168.5 183 L 170 186.5 L 169 186.5 L 168.5 183 Z " /><path fill="rgb(255,238,242)" stroke="rgb(255,238,242)" stroke-width="1" opacity="1" d="M 139.5 49 L 140 52 L 137 51.5 L 139.5 49 Z " /><path fill="rgb(255,238,242)" stroke="rgb(255,238,242)" stroke-width="1" opacity="1" d="M 144.5 52 L 146 56 Q 142.2 57.2 144.5 52 Z " /><path fill="rgb(255,238,242)" stroke="rgb(255,238,242)" stroke-width="1" opacity="1" d="M 119.5 68 L 120 72 L 117 71.5 L 119.5 68 Z " /><path fill="rgb(255,238,242)" stroke="rgb(255,238,242)" stroke-width="1" opacity="1" d="M 115.5 73 L 116 76 L 113 75.5 L 115.5 73 Z " /><path fill="rgb(255,238,242)" stroke="rgb(255,238,242)" stroke-width="1" opacity="1" d="M 111.5 78 L 112 80 L 110 79.5 L 111.5 78 Z " /><path fill="rgb(255,238,242)" stroke="rgb(255,238,242)" stroke-width="1" opacity="1" d="M 58.5 79 L 61 79.5 L 58.5 80 L 58.5 79 Z " /><path fill="rgb(255,238,242)" stroke="rgb(255,238,242)" stroke-width="1" opacity="1" d="M 43.5 96 L 44 100 L 42 99.5 L 43.5 96 Z " /><path fill="rgb(255,238,242)" stroke="rgb(255,238,242)" stroke-width="1" opacity="1" d="M 58.5 98 L 62 98.5 L 58.5 99 L 58.5 98 Z " /><path fill="rgb(255,238,242)" stroke="rgb(255,238,242)" stroke-width="1" opacity="1" d="M 39.5 116 L 40 119.5 L 39 119.5 L 39.5 116 Z " /><path fill="rgb(255,238,242)" stroke="rgb(255,238,242)" stroke-width="1" opacity="1" d="M 125.5 121 L 123.5 124 L 125.5 121 Z " /><path fill="rgb(255,238,242)" stroke="rgb(255,238,242)" stroke-width="1" opacity="1" d="M 82.5 123 L 85 123.5 L 82.5 124 L 82.5 123 Z " /><path fill="rgb(255,238,242)" stroke="rgb(255,238,242)" stroke-width="1" opacity="1" d="M 32.5 136 Q 37.3 134.3 36 138.5 L 36.5 140 L 32.5 136 Z " /><path fill="rgb(255,238,242)" stroke="rgb(255,238,242)" stroke-width="1" opacity="1" d="M 152 136 L 154 136.5 L 152 137.5 L 152 136 Z " /><path fill="rgb(255,238,242)" stroke="rgb(255,238,242)" stroke-width="1" opacity="1" d="M 41.5 139 L 44 140 L 43.5 143 L 40 142 L 41.5 139 Z " /><path fill="rgb(255,238,242)" stroke="rgb(255,238,242)" stroke-width="1" opacity="1" d="M 147.5 143 L 145.5 146 Q 142.9 146.7 144 144 L 147.5 143 Z " /><path fill="rgb(255,238,242)" stroke="rgb(255,238,242)" stroke-width="1" opacity="1" d="M 124 148 L 128 148.5 L 124 150 L 124 148 Z " /><path fill="rgb(255,238,243)" stroke="rgb(255,238,243)" stroke-width="1" opacity="1" d="M 62.5 48 L 64 48 L 64 52 L 65.5 52 L 73 67.5 L 76 81 L 100.5 80 Q 102.3 82.8 108.5 81 L 112 80 L 113.5 76 Q 118.1 77.2 116 72 L 120 72 L 120 67.5 L 135.5 52 L 140 52 L 140 48 L 141.5 48 Q 145.5 49.7 144 56 L 147 57.5 L 148 64 Q 151 62.8 150 66.5 L 152 69.5 L 152 85.5 Q 149.3 87.3 151 93.5 L 149 97.5 L 149 103.5 L 154 118.5 L 155 133.5 L 154 136 Q 151 134.8 152 138.5 L 146.5 144 L 144 144 Q 145.1 146.7 142.5 146 L 137.5 148 L 128.5 149 L 124 148 Q 125.4 152 118.5 150 L 108.5 152 L 97.5 152 L 96.5 151 L 82.5 151 L 81.5 150 L 61.5 148 L 54.5 145 L 44 143 Q 45.5 139.2 42.5 140 L 40.5 140 Q 36.8 140.8 36 138.5 L 36 136 L 32 136 L 32 134.5 L 38 124.5 L 40 116.5 L 39 114.5 L 42 100 Q 45.5 101.1 44 93.5 L 45 91.5 Q 42.5 90 44 84.5 L 49 65.5 L 58 52 Q 60.7 53.1 60 50.5 L 62.5 48 Z M 60 61 Q 52 66 53 79 L 59 80 L 68 79 L 66 70 L 62 63 Q 63 60 60 61 Z M 138 62 L 132 65 Q 123 69 122 79 L 143 84 L 145 78 Q 145 68 139 64 Q 140 61 138 62 Z M 59 98 L 57 99 Q 48 103 50 118 L 58 124 L 65 124 L 71 122 L 73 118 Q 72 109 68 104 Q 66 98 59 98 Z M 115 103 L 110 105 Q 100 109 100 123 L 108 128 L 116 128 L 124 124 L 128 119 L 128 111 L 125 104 Q 122 102 115 103 Z M 83 123 L 78 126 L 79 128 L 85 130 Q 91 131 93 128 L 92 124 L 83 123 Z M 83 132 L 75 139 L 78 142 Q 82 143 84 140 L 88 140 L 94 143 Q 96 142 95 139 Q 92 132 83 132 Z " /><path fill="rgb(236,200,210)" stroke="rgb(236,200,210)" stroke-width="1" opacity="1" d="M 64 46 L 68 48.5 L 75 60.5 L 78 69.5 L 78 74.5 L 80.5 79 L 82 79.5 L 77.5 80 L 76 78.5 L 73 64.5 L 64 46 Z " /><path fill="rgb(236,200,210)" stroke="rgb(236,200,210)" stroke-width="1" opacity="1" d="M 140.5 47 L 142 47.5 L 139.5 49 L 140.5 47 Z " /><path fill="rgb(236,200,210)" stroke="rgb(236,200,210)" stroke-width="1" opacity="1" d="M 59.5 50 L 57.5 53 L 59.5 50 Z " /><path fill="rgb(236,200,210)" stroke="rgb(236,200,210)" stroke-width="1" opacity="1" d="M 135.5 51 L 134.5 53 L 135.5 51 Z " /><path fill="rgb(236,200,210)" stroke="rgb(236,200,210)" stroke-width="1" opacity="1" d="M 129.5 56 L 122.5 64 L 129.5 56 Z " /><path fill="rgb(236,200,210)" stroke="rgb(236,200,210)" stroke-width="1" opacity="1" d="M 60.5 61 Q 65.7 68.1 67 78 L 59.5 79 L 53 78 L 55 68.5 L 60.5 61 Z " /><path fill="rgb(236,200,210)" stroke="rgb(236,200,210)" stroke-width="1" opacity="1" d="M 136.5 63 L 141 66.5 L 144 73.5 L 144 78.5 L 143 83 L 123 78 Q 124.6 70 131.5 66 L 136.5 63 Z " /><path fill="rgb(236,200,210)" stroke="rgb(236,200,210)" stroke-width="1" opacity="1" d="M 117.5 69 L 116.5 71 L 117.5 69 Z " /><path fill="rgb(236,200,210)" stroke="rgb(236,200,210)" stroke-width="1" opacity="1" d="M 153.5 74 Q 156 79.5 155 88.5 L 156 89.5 L 156 99.5 L 159 109.5 L 162 135.5 L 161 139.5 L 157.5 144 L 145.5 147 L 145.5 146 L 151 141.5 L 157 132.5 L 157 127.5 L 153 114.5 L 153 110.5 L 150 103.5 L 150 98.5 Q 154.5 89 153.5 74 Z " /><path fill="rgb(236,200,210)" stroke="rgb(236,200,210)" stroke-width="1" opacity="1" d="M 92.5 79 L 96 79.5 L 92.5 80 L 92.5 79 Z " /><path fill="rgb(236,200,210)" stroke="rgb(236,200,210)" stroke-width="1" opacity="1" d="M 83.5 80 L 86 80.5 L 83.5 81 L 83.5 80 Z " /><path fill="rgb(236,200,210)" stroke="rgb(236,200,210)" stroke-width="1" opacity="1" d="M 43.5 86 L 44 89.5 L 43 89.5 L 43.5 86 Z " /><path fill="rgb(236,200,210)" stroke="rgb(236,200,210)" stroke-width="1" opacity="1" d="M 57.5 100 L 62.5 100 L 67 104.5 L 72 116.5 L 68.5 122 L 58.5 123 L 53 119.5 Q 50 116.5 51 109.5 L 55.5 101 L 57.5 100 Z " /><path fill="rgb(236,200,210)" stroke="rgb(236,200,210)" stroke-width="1" opacity="1" d="M 115.5 104 Q 123.3 102.2 125 106.5 Q 127.7 109.8 127 116.5 L 121.5 124 L 113.5 127 L 108.5 127 L 102 122.5 L 101 117.5 Q 104 110 110.5 106 L 115.5 104 Z " /><path fill="rgb(236,200,210)" stroke="rgb(236,200,210)" stroke-width="1" opacity="1" d="M 38.5 114 L 39 117.5 L 38 117.5 L 38.5 114 Z " /><path fill="rgb(236,200,210)" stroke="rgb(236,200,210)" stroke-width="1" opacity="1" d="M 80.5 124 L 88 124.5 L 80 125 L 79.5 127 L 79 125.5 L 80.5 124 Z " /><path fill="rgb(236,200,210)" stroke="rgb(236,200,210)" stroke-width="1" opacity="1" d="M 91.5 127 L 90.5 129 L 83 128.5 L 91.5 127 Z " /><path fill="rgb(236,200,210)" stroke="rgb(236,200,210)" stroke-width="1" opacity="1" d="M 81.5 133 Q 91.3 132.7 94 139.5 Q 95.1 142.8 92.5 142 L 84.5 139 L 77 141 Q 77.1 135.4 81.5 133 Z " /><path fill="rgb(236,200,210)" stroke="rgb(236,200,210)" stroke-width="1" opacity="1" d="M 32.5 137 L 33.5 139 L 32.5 137 Z " /><path fill="rgb(236,200,210)" stroke="rgb(236,200,210)" stroke-width="1" opacity="1" d="M 134.5 148 L 137 148.5 L 134.5 149 L 134.5 148 Z " /><path fill="rgb(236,200,210)" stroke="rgb(236,200,210)" stroke-width="1" opacity="1" d="M 67.5 149 L 70 149.5 L 67.5 150 L 67.5 149 Z " /><path fill="rgb(236,200,210)" stroke="rgb(236,200,210)" stroke-width="1" opacity="1" d="M 128.5 149 L 131 149.5 L 128.5 150 L 128.5 149 Z " /><path fill="rgb(236,200,210)" stroke="rgb(236,200,210)" stroke-width="1" opacity="1" d="M 122.5 150 L 125 150.5 L 122.5 151 L 122.5 150 Z " /><path fill="rgb(236,200,210)" stroke="rgb(236,200,210)" stroke-width="1" opacity="1" d="M 83.5 151 L 90 151.5 L 83.5 152 L 83.5 151 Z " /><path fill="rgb(236,200,210)" stroke="rgb(236,200,210)" stroke-width="1" opacity="1" d="M 114.5 151 L 118 151.5 L 114.5 152 L 114.5 151 Z " /><path fill="rgb(236,200,210)" stroke="rgb(236,200,210)" stroke-width="1" opacity="1" d="M 98.5 152 L 108 152.5 L 98.5 153 L 98.5 152 Z " /><path fill="rgb(236,200,210)" stroke="rgb(236,200,210)" stroke-width="1" opacity="1" d="M 86.5 158 L 90 158.5 L 86.5 159 L 86.5 158 Z " /><path fill="rgb(190,160,158)" stroke="rgb(190,160,158)" stroke-width="1" opacity="1" d="M 62.5 46 L 61.5 48 L 62.5 46 Z " /><path fill="rgb(190,160,158)" stroke="rgb(190,160,158)" stroke-width="1" opacity="1" d="M 68.5 49 L 69.5 51 L 68.5 49 Z " /><path fill="rgb(190,160,158)" stroke="rgb(190,160,158)" stroke-width="1" opacity="1" d="M 137.5 49 L 136.5 51 L 137.5 49 Z " /><path fill="rgb(190,160,158)" stroke="rgb(190,160,158)" stroke-width="1" opacity="1" d="M 56.5 53 L 54.5 56 L 56.5 53 Z " /><path fill="rgb(190,160,158)" stroke="rgb(190,160,158)" stroke-width="1" opacity="1" d="M 132.5 53 L 130.5 56 L 132.5 53 Z " /><path fill="rgb(190,160,158)" stroke="rgb(190,160,158)" stroke-width="1" opacity="1" d="M 121.5 64 L 118.5 68 L 121.5 64 Z " /><path fill="rgb(190,160,158)" stroke="rgb(190,160,158)" stroke-width="1" opacity="1" d="M 115.5 71 L 114.5 73 L 115.5 71 Z " /><path fill="rgb(190,160,158)" stroke="rgb(190,160,158)" stroke-width="1" opacity="1" d="M 78.5 72 L 79 74.5 L 78 74.5 L 78.5 72 Z " /><path fill="rgb(190,160,158)" stroke="rgb(190,160,158)" stroke-width="1" opacity="1" d="M 154.5 76 L 155 78.5 L 154 78.5 L 154.5 76 Z " /><path fill="rgb(190,160,158)" stroke="rgb(190,160,158)" stroke-width="1" opacity="1" d="M 79.5 77 L 80.5 79 L 79.5 77 Z " /><path fill="rgb(190,160,158)" stroke="rgb(190,160,158)" stroke-width="1" opacity="1" d="M 110.5 78 L 109.5 80 L 110.5 78 Z " /><path fill="rgb(190,160,158)" stroke="rgb(190,160,158)" stroke-width="1" opacity="1" d="M 88.5 79 L 92 79.5 L 88.5 80 L 88.5 79 Z " /><path fill="rgb(190,160,158)" stroke="rgb(190,160,158)" stroke-width="1" opacity="1" d="M 98.5 79 L 102 79.5 L 98.5 80 L 98.5 79 Z " /><path fill="rgb(190,160,158)" stroke="rgb(190,160,158)" stroke-width="1" opacity="1" d="M 43.5 83 L 44 85.5 L 43 85.5 L 43.5 83 Z " /><path fill="rgb(190,160,158)" stroke="rgb(190,160,158)" stroke-width="1" opacity="1" d="M 155.5 83 L 156 88.5 L 155 88.5 L 155.5 83 Z " /><path fill="rgb(190,160,158)" stroke="rgb(190,160,158)" stroke-width="1" opacity="1" d="M 156.5 96 L 157 99.5 L 156 99.5 L 156.5 96 Z " /><path fill="rgb(190,160,158)" stroke="rgb(190,160,158)" stroke-width="1" opacity="1" d="M 159.5 112 L 160 114.5 L 159 114.5 L 159.5 112 Z " /><path fill="rgb(190,160,158)" stroke="rgb(190,160,158)" stroke-width="1" opacity="1" d="M 160.5 118 L 161 121.5 L 160 121.5 L 160.5 118 Z " /><path fill="rgb(190,160,158)" stroke="rgb(190,160,158)" stroke-width="1" opacity="1" d="M 80 125 L 89.5 125 L 92 126.5 L 90.5 128 L 82.5 128 L 80 127 L 80 125 Z " /><path fill="rgb(190,160,158)" stroke="rgb(190,160,158)" stroke-width="1" opacity="1" d="M 161.5 127 L 162 130.5 L 161 130.5 L 161.5 127 Z " /><path fill="rgb(190,160,158)" stroke="rgb(190,160,158)" stroke-width="1" opacity="1" d="M 31.5 134 L 32 136.5 L 31 136.5 L 31.5 134 Z " /><path fill="rgb(190,160,158)" stroke="rgb(190,160,158)" stroke-width="1" opacity="1" d="M 160.5 140 L 159.5 142 L 160.5 140 Z " /><path fill="rgb(190,160,158)" stroke="rgb(190,160,158)" stroke-width="1" opacity="1" d="M 52.5 146 L 55 146.5 L 52.5 147 L 52.5 146 Z " /><path fill="rgb(190,160,158)" stroke="rgb(190,160,158)" stroke-width="1" opacity="1" d="M 72.5 150 L 76 150.5 L 72.5 151 L 72.5 150 Z " /><path fill="rgb(190,160,158)" stroke="rgb(190,160,158)" stroke-width="1" opacity="1" d="M 80.5 151 L 83 151.5 L 80.5 152 L 80.5 151 Z " /><path fill="rgb(190,160,158)" stroke="rgb(190,160,158)" stroke-width="1" opacity="1" d="M 95.5 152 L 98 152.5 L 95.5 153 L 95.5 152 Z " /><path fill="rgb(190,160,158)" stroke="rgb(190,160,158)" stroke-width="1" opacity="1" d="M 108.5 152 L 111 152.5 L 108.5 153 L 108.5 152 Z " /><path fill="rgb(190,160,158)" stroke="rgb(190,160,158)" stroke-width="1" opacity="1" d="M 43 156 Q 46.8 154.5 46 157.5 L 49 167 L 38.5 173 L 37 170.5 L 43 156 Z " /><path fill="rgb(190,160,158)" stroke="rgb(190,160,158)" stroke-width="1" opacity="1" d="M 90.5 158 L 96 158.5 Q 93.3 160.8 87.5 160 L 87.5 159 L 90.5 158 Z " /><path fill="rgb(190,160,158)" stroke="rgb(190,160,158)" stroke-width="1" opacity="1" d="M 39 184 L 42 184 L 42 190.5 L 40 200 L 33.5 200 L 33 198.5 L 39 184 Z " /><path fill="rgb(190,160,158)" stroke="rgb(190,160,158)" stroke-width="1" opacity="1" d="M 55.5 184 L 60 187.5 L 63 193 L 67.5 194 L 79.5 191 L 82 192 L 80 200 L 42 199.5 L 50 194.5 Q 50.9 187.4 55.5 184 Z " /><path fill="rgb(190,160,158)" stroke="rgb(190,160,158)" stroke-width="1" opacity="1" d="M 120.5 186 L 122 186.5 L 121 188.5 L 123 200 L 110.5 200 L 110 198.5 L 111 195.5 L 120.5 186 Z " /><path fill="rgb(72,61,90)" stroke="rgb(72,61,90)" stroke-width="1" opacity="1" d="M 135.5 50 L 134.5 52 L 135.5 50 Z " /><path fill="rgb(72,61,90)" stroke="rgb(72,61,90)" stroke-width="1" opacity="1" d="M 57.5 51 L 56.5 53 L 57.5 51 Z " /><path fill="rgb(72,61,90)" stroke="rgb(72,61,90)" stroke-width="1" opacity="1" d="M 129.5 55 L 120.5 65 L 129.5 55 Z " /><path fill="rgb(72,61,90)" stroke="rgb(72,61,90)" stroke-width="1" opacity="1" d="M 53.5 56 L 52.5 58 L 53.5 56 Z " /><path fill="rgb(72,61,90)" stroke="rgb(72,61,90)" stroke-width="1" opacity="1" d="M 116.5 69 L 115.5 71 L 116.5 69 Z " /><path fill="rgb(72,61,90)" stroke="rgb(72,61,90)" stroke-width="1" opacity="1" d="M 156.5 89 L 157 92.5 L 156 92.5 L 156.5 89 Z " /><path fill="rgb(72,61,90)" stroke="rgb(72,61,90)" stroke-width="1" opacity="1" d="M 37.5 118 L 38 120.5 L 37 120.5 L 37.5 118 Z " /><path fill="rgb(72,61,90)" stroke="rgb(72,61,90)" stroke-width="1" opacity="1" d="M 162.5 131 L 163 134.5 L 162 134.5 L 162.5 131 Z " /><path fill="rgb(72,61,90)" stroke="rgb(72,61,90)" stroke-width="1" opacity="1" d="M 31.5 137 L 33.5 140 L 31.5 137 Z " /><path fill="rgb(72,61,90)" stroke="rgb(72,61,90)" stroke-width="1" opacity="1" d="M 152.5 151 Q 156.3 150.3 157 152.5 L 159 156.5 L 158 156.5 L 156 152 Q 151.6 153 152.5 151 Z " /><path fill="rgb(72,61,90)" stroke="rgb(72,61,90)" stroke-width="1" opacity="1" d="M 90.5 152 L 93 152.5 L 90.5 153 L 90.5 152 Z " /><path fill="rgb(72,61,90)" stroke="rgb(72,61,90)" stroke-width="1" opacity="1" d="M 112.5 152 L 115 152.5 L 112.5 153 L 112.5 152 Z " /><path fill="rgb(72,61,90)" stroke="rgb(72,61,90)" stroke-width="1" opacity="1" d="M 54.5 153 L 57 153.5 L 54.5 154 L 54.5 153 Z " /><path fill="rgb(72,61,90)" stroke="rgb(72,61,90)" stroke-width="1" opacity="1" d="M 144.5 153 L 148 153.5 L 144.5 154 L 144.5 153 Z " /><path fill="rgb(72,61,90)" stroke="rgb(72,61,90)" stroke-width="1" opacity="1" d="M 43.5 154 L 42.5 156 L 43.5 154 Z " /><path fill="rgb(72,61,90)" stroke="rgb(72,61,90)" stroke-width="1" opacity="1" d="M 58.5 154 L 62 154.5 L 58.5 155 L 58.5 154 Z " /><path fill="rgb(72,61,90)" stroke="rgb(72,61,90)" stroke-width="1" opacity="1" d="M 137.5 154 L 142 154.5 L 137.5 155 L 137.5 154 Z " /><path fill="rgb(72,61,90)" stroke="rgb(72,61,90)" stroke-width="1" opacity="1" d="M 63.5 155 L 67 155.5 L 63.5 156 L 63.5 155 Z " /><path fill="rgb(72,61,90)" stroke="rgb(72,61,90)" stroke-width="1" opacity="1" d="M 131.5 155 L 135 155.5 L 131.5 156 L 131.5 155 Z " /><path fill="rgb(72,61,90)" stroke="rgb(72,61,90)" stroke-width="1" opacity="1" d="M 69.5 156 L 71.5 156 L 76 160.5 L 71.5 157 Q 68.5 157.5 69.5 156 Z " /><path fill="rgb(72,61,90)" stroke="rgb(72,61,90)" stroke-width="1" opacity="1" d="M 124.5 156 L 129 156.5 L 124.5 157 L 124.5 156 Z " /><path fill="rgb(72,61,90)" stroke="rgb(72,61,90)" stroke-width="1" opacity="1" d="M 87.5 157 L 90 157.5 L 87.5 158 L 87.5 157 Z " /><path fill="rgb(72,61,90)" stroke="rgb(72,61,90)" stroke-width="1" opacity="1" d="M 117.5 157 L 123 157.5 L 117.5 158 L 117.5 157 Z " /><path fill="rgb(72,61,90)" stroke="rgb(72,61,90)" stroke-width="1" opacity="1" d="M 108.5 158 L 116 158.5 L 107.5 160 L 108.5 158 Z " /><path fill="rgb(72,61,90)" stroke="rgb(72,61,90)" stroke-width="1" opacity="1" d="M 105.5 160 L 104.5 162 L 99.5 164 L 99.5 163 L 105.5 160 Z " /><path fill="rgb(72,61,90)" stroke="rgb(72,61,90)" stroke-width="1" opacity="1" d="M 79.5 162 L 80.5 164 L 79.5 162 Z " /><path fill="rgb(72,61,90)" stroke="rgb(72,61,90)" stroke-width="1" opacity="1" d="M 96.5 164 L 98 164.5 L 92.5 166 L 92.5 165 L 96.5 164 Z " /><path fill="rgb(72,61,90)" stroke="rgb(72,61,90)" stroke-width="1" opacity="1" d="M 162.5 169 L 163 170.5 L 161 171.5 L 162.5 169 Z " /><path fill="rgb(72,61,90)" stroke="rgb(72,61,90)" stroke-width="1" opacity="1" d="M 132.5 175 L 147 175.5 L 132.5 176 L 132.5 175 Z " /><path fill="rgb(72,61,90)" stroke="rgb(72,61,90)" stroke-width="1" opacity="1" d="M 53.5 176 L 57 176.5 L 53.5 177 L 53.5 176 Z " /><path fill="rgb(72,61,90)" stroke="rgb(72,61,90)" stroke-width="1" opacity="1" d="M 111.5 176 L 129 176.5 L 111.5 177 L 111.5 176 Z " /><path fill="rgb(72,61,90)" stroke="rgb(72,61,90)" stroke-width="1" opacity="1" d="M 106.5 178 L 108.5 182 L 137 182.5 L 108.5 183 Q 104.8 181.8 106.5 178 Z " /><path fill="rgb(72,61,90)" stroke="rgb(72,61,90)" stroke-width="1" opacity="1" d="M 80.5 179 L 81 180.5 Q 79.3 184.8 71.5 183 L 71.5 182 Q 78.3 183.7 80 180.5 L 80.5 179 Z " /><path fill="rgb(72,61,90)" stroke="rgb(72,61,90)" stroke-width="1" opacity="1" d="M 157.5 179 L 160 179.5 L 157.5 180 L 157.5 179 Z " /><path fill="rgb(72,61,90)" stroke="rgb(72,61,90)" stroke-width="1" opacity="1" d="M 152.5 180 L 156 180.5 L 152.5 181 L 152.5 180 Z " /><path fill="rgb(72,61,90)" stroke="rgb(72,61,90)" stroke-width="1" opacity="1" d="M 44.5 181 L 47 181.5 L 44.5 182 L 44.5 181 Z " /><path fill="rgb(72,61,90)" stroke="rgb(72,61,90)" stroke-width="1" opacity="1" d="M 141.5 181 L 151 181.5 L 141.5 182 L 141.5 181 Z " /><path fill="rgb(72,61,90)" stroke="rgb(72,61,90)" stroke-width="1" opacity="1" d="M 160.5 181 L 164 187.5 L 163 187.5 L 160.5 181 Z " /><path fill="rgb(72,61,90)" stroke="rgb(72,61,90)" stroke-width="1" opacity="1" d="M 57.5 182 L 62 182.5 L 57.5 183 L 57.5 182 Z " /><path fill="rgb(0,0,1)" stroke="rgb(0,0,1)" stroke-width="1" opacity="1" d="M 63.5 40 L 67.5 41 L 73 46.5 L 80 58.5 L 84 75 L 106.5 75 L 109 72.5 Q 116.3 60.8 126.5 52 L 137.5 43 L 142.5 42 L 149 47.5 L 159 72.5 L 160 83.5 L 161 84.5 L 161 95.5 L 167 127.5 L 167 137.5 Q 166 144.5 161 147.5 L 161 150.5 Q 168 157.5 167 172.5 L 164 177.5 Q 170.7 187 173 200 L 168 200 L 168 197.5 Q 165.9 186.1 159.5 179 L 148.5 181 L 109.5 182 L 107 178.5 L 108.5 177 L 150.5 176 L 158.5 174 L 163 170.5 L 163 165.5 Q 160 162.5 160 156.5 L 155.5 151 L 150.5 151 L 146.5 153 L 134.5 154 L 127.5 156 L 107.5 158 L 94.5 165 L 85.5 165 Q 77.2 162.3 72.5 156 Q 57.9 154.6 46.5 150 L 43 153.5 L 35 171.5 L 41.5 176 L 69.5 178 Q 71.3 175.3 77.5 177 Q 81.8 178.7 79 180.5 L 78.5 182 L 52.5 182 L 51.5 181 L 40.5 180 L 36 186.5 L 30.5 200 Q 26.1 201.5 27 198.5 L 36 178.5 Q 31.2 176.3 31 169.5 L 35 158.5 L 41 148 Q 33.1 146.1 28 140.5 L 26 135.5 L 27 130.5 L 33 120.5 L 33 113.5 L 39 90.5 L 39 77.5 L 42 67.5 Q 48.7 51.2 61.5 41 L 63.5 40 Z M 63 45 Q 53 54 47 66 L 43 79 L 43 94 Q 37 105 37 122 L 31 132 L 31 138 L 35 141 L 44 145 L 63 150 L 85 152 L 86 153 L 100 153 L 101 154 L 117 153 L 138 149 L 144 149 L 160 144 L 163 137 L 162 121 L 157 99 L 157 86 L 156 85 L 155 74 L 147 53 L 142 46 L 133 52 Q 119 64 109 79 L 84 79 L 80 77 Q 78 58 68 46 L 63 45 Z M 82 157 L 83 159 L 89 161 L 98 159 Q 92 156 82 157 Z " /><path fill="rgb(107,90,150)" stroke="rgb(107,90,150)" stroke-width="1" opacity="1" d="M 66.5 46 L 67.5 48 L 66.5 46 Z " /><path fill="rgb(107,90,150)" stroke="rgb(107,90,150)" stroke-width="1" opacity="1" d="M 139.5 47 L 138.5 49 L 139.5 47 Z " /><path fill="rgb(107,90,150)" stroke="rgb(107,90,150)" stroke-width="1" opacity="1" d="M 142.5 47 L 143.5 49 L 142.5 47 Z " /><path fill="rgb(107,90,150)" stroke="rgb(107,90,150)" stroke-width="1" opacity="1" d="M 60.5 48 L 58.5 51 L 60.5 48 Z " /><path fill="rgb(107,90,150)" stroke="rgb(107,90,150)" stroke-width="1" opacity="1" d="M 156.5 93 L 157 95.5 L 156 95.5 L 156.5 93 Z " /><path fill="rgb(107,90,150)" stroke="rgb(107,90,150)" stroke-width="1" opacity="1" d="M 159.5 142 L 158.5 144 L 159.5 142 Z " /><path fill="rgb(107,90,150)" stroke="rgb(107,90,150)" stroke-width="1" opacity="1" d="M 46.5 151 L 58.5 155 L 71.5 157 Q 76.7 163.7 86.5 166 L 95.5 166 L 108.5 159 L 122.5 158 L 156 152 L 163 168.5 L 160.5 172 L 150.5 175 L 148.5 175 L 108.5 176 L 106 178.5 Q 105.5 182.5 108.5 183 L 136.5 183 L 137.5 182 L 150.5 182 L 160 180 Q 165 188.4 167 200 L 123.5 200 L 123 197.5 L 121 187.5 L 121.5 186 L 111 195.5 L 110 200 L 80.5 200 L 80 197.5 L 82 192 L 79.5 191 L 65.5 194 L 63 193 L 56.5 184 L 53 186.5 L 48.5 196 L 40 200 L 42 184 Q 38.3 182.5 39 185.5 L 32.5 200 L 32 198.5 L 40.5 181 L 56.5 182 L 57.5 183 L 78.5 183 L 81 179.5 L 80 177 L 45.5 176 L 38.5 174 L 36 171.5 Q 36.6 164.6 40.5 161 L 41 162.5 L 37 171.5 L 39.5 173 L 49 167 L 46 156 Q 41.9 154.3 43 158.5 L 41 159.5 L 46.5 151 Z " /><path fill="rgb(107,90,150)" stroke="rgb(107,90,150)" stroke-width="1" opacity="1" d="M 82.5 157 L 87 157.5 L 82.5 158 L 82.5 157 Z " /><path fill="rgb(28,24,33)" stroke="rgb(28,24,33)" stroke-width="1" opacity="1" d="M 62.5 45 L 59.5 49 L 62.5 45 Z " /><path fill="rgb(28,24,33)" stroke="rgb(28,24,33)" stroke-width="1" opacity="1" d="M 137.5 48 L 136.5 50 L 137.5 48 Z " /><path fill="rgb(28,24,33)" stroke="rgb(28,24,33)" stroke-width="1" opacity="1" d="M 69.5 49 L 70.5 51 L 69.5 49 Z " /><path fill="rgb(28,24,33)" stroke="rgb(28,24,33)" stroke-width="1" opacity="1" d="M 132.5 52 L 130.5 55 L 132.5 52 Z " /><path fill="rgb(28,24,33)" stroke="rgb(28,24,33)" stroke-width="1" opacity="1" d="M 55.5 53 L 54.5 55 L 55.5 53 Z " /><path fill="rgb(28,24,33)" stroke="rgb(28,24,33)" stroke-width="1" opacity="1" d="M 119.5 65 L 117.5 68 L 119.5 65 Z " /><path fill="rgb(28,24,33)" stroke="rgb(28,24,33)" stroke-width="1" opacity="1" d="M 114.5 71 L 113.5 73 L 114.5 71 Z " /><path fill="rgb(28,24,33)" stroke="rgb(28,24,33)" stroke-width="1" opacity="1" d="M 81.5 77 L 82.5 79 L 81.5 77 Z " /><path fill="rgb(28,24,33)" stroke="rgb(28,24,33)" stroke-width="1" opacity="1" d="M 110.5 77 L 109.5 79 L 110.5 77 Z " /><path fill="rgb(28,24,33)" stroke="rgb(28,24,33)" stroke-width="1" opacity="1" d="M 105.5 79 L 108 79.5 L 105.5 80 L 105.5 79 Z " /><path fill="rgb(28,24,33)" stroke="rgb(28,24,33)" stroke-width="1" opacity="1" d="M 156.5 85 L 157 88.5 L 156 88.5 L 156.5 85 Z " /><path fill="rgb(28,24,33)" stroke="rgb(28,24,33)" stroke-width="1" opacity="1" d="M 37.5 114 L 38 117.5 L 37 117.5 L 37.5 114 Z " /><path fill="rgb(28,24,33)" stroke="rgb(28,24,33)" stroke-width="1" opacity="1" d="M 161.5 120 L 162 122.5 L 161 122.5 L 161.5 120 Z " /><path fill="rgb(28,24,33)" stroke="rgb(28,24,33)" stroke-width="1" opacity="1" d="M 141.5 148 L 144 148.5 L 141.5 149 L 141.5 148 Z " /><path fill="rgb(28,24,33)" stroke="rgb(28,24,33)" stroke-width="1" opacity="1" d="M 122.5 151 L 125 151.5 L 122.5 152 L 122.5 151 Z " /><path fill="rgb(28,24,33)" stroke="rgb(28,24,33)" stroke-width="1" opacity="1" d="M 44.5 152 L 43.5 154 L 44.5 152 Z " /><path fill="rgb(28,24,33)" stroke="rgb(28,24,33)" stroke-width="1" opacity="1" d="M 85.5 152 L 90 152.5 L 85.5 153 L 85.5 152 Z " /><path fill="rgb(28,24,33)" stroke="rgb(28,24,33)" stroke-width="1" opacity="1" d="M 100.5 153 L 106 153.5 L 100.5 154 L 100.5 153 Z " /><path fill="rgb(28,24,33)" stroke="rgb(28,24,33)" stroke-width="1" opacity="1" d="M 141.5 153 L 144 153.5 L 141.5 154 L 141.5 153 Z " /><path fill="rgb(28,24,33)" stroke="rgb(28,24,33)" stroke-width="1" opacity="1" d="M 157.5 153 L 158.5 155 L 157.5 153 Z " /><path fill="rgb(28,24,33)" stroke="rgb(28,24,33)" stroke-width="1" opacity="1" d="M 134.5 154 L 137 154.5 L 134.5 155 L 134.5 154 Z " /><path fill="rgb(28,24,33)" stroke="rgb(28,24,33)" stroke-width="1" opacity="1" d="M 67.5 155 L 70 155.5 L 67.5 156 L 67.5 155 Z " /><path fill="rgb(28,24,33)" stroke="rgb(28,24,33)" stroke-width="1" opacity="1" d="M 128.5 155 L 131 155.5 L 128.5 156 L 128.5 155 Z " /><path fill="rgb(28,24,33)" stroke="rgb(28,24,33)" stroke-width="1" opacity="1" d="M 72.5 156 L 76.5 161 L 72.5 156 Z " /><path fill="rgb(28,24,33)" stroke="rgb(28,24,33)" stroke-width="1" opacity="1" d="M 121.5 156 L 124 156.5 L 121.5 157 L 121.5 156 Z " /><path fill="rgb(28,24,33)" stroke="rgb(28,24,33)" stroke-width="1" opacity="1" d="M 90.5 157 L 94 157.5 L 90.5 158 L 90.5 157 Z " /><path fill="rgb(28,24,33)" stroke="rgb(28,24,33)" stroke-width="1" opacity="1" d="M 113.5 157 L 117 157.5 L 113.5 158 L 113.5 157 Z " /><path fill="rgb(28,24,33)" stroke="rgb(28,24,33)" stroke-width="1" opacity="1" d="M 107.5 158 L 106.5 160 L 107.5 158 Z " /><path fill="rgb(28,24,33)" stroke="rgb(28,24,33)" stroke-width="1" opacity="1" d="M 88.5 160 L 92 160.5 L 88.5 161 L 88.5 160 Z " /><path fill="rgb(28,24,33)" stroke="rgb(28,24,33)" stroke-width="1" opacity="1" d="M 88.5 165 L 92 165.5 L 88.5 166 L 88.5 165 Z " /><path fill="rgb(28,24,33)" stroke="rgb(28,24,33)" stroke-width="1" opacity="1" d="M 147.5 175 L 151 175.5 L 147.5 176 L 147.5 175 Z " /><path fill="rgb(28,24,33)" stroke="rgb(28,24,33)" stroke-width="1" opacity="1" d="M 47.5 176 L 53 176.5 L 47.5 177 L 47.5 176 Z " /><path fill="rgb(28,24,33)" stroke="rgb(28,24,33)" stroke-width="1" opacity="1" d="M 129.5 176 L 137 176.5 L 129.5 177 L 129.5 176 Z " /><path fill="rgb(28,24,33)" stroke="rgb(28,24,33)" stroke-width="1" opacity="1" d="M 63.5 177 L 70 177.5 L 63.5 178 L 63.5 177 Z " /><path fill="rgb(28,24,33)" stroke="rgb(28,24,33)" stroke-width="1" opacity="1" d="M 78.5 177 L 79.5 179 L 78.5 177 Z " /><path fill="rgb(28,24,33)" stroke="rgb(28,24,33)" stroke-width="1" opacity="1" d="M 40.5 180 L 43 180.5 L 39.5 182 L 40.5 180 Z " /><path fill="rgb(28,24,33)" stroke="rgb(28,24,33)" stroke-width="1" opacity="1" d="M 107.5 180 L 108.5 182 L 107.5 180 Z " /><path fill="rgb(28,24,33)" stroke="rgb(28,24,33)" stroke-width="1" opacity="1" d="M 149.5 180 L 152 180.5 L 149.5 181 L 149.5 180 Z " /><path fill="rgb(28,24,33)" stroke="rgb(28,24,33)" stroke-width="1" opacity="1" d="M 160.5 180 L 161.5 182 L 160.5 180 Z " /><path fill="rgb(28,24,33)" stroke="rgb(28,24,33)" stroke-width="1" opacity="1" d="M 47.5 181 L 52 181.5 L 47.5 182 L 47.5 181 Z " /><path fill="rgb(28,24,33)" stroke="rgb(28,24,33)" stroke-width="1" opacity="1" d="M 132.5 181 L 141 181.5 L 132.5 182 L 132.5 181 Z " /><path fill="rgb(28,24,33)" stroke="rgb(28,24,33)" stroke-width="1" opacity="1" d="M 62.5 182 L 71 182.5 L 62.5 183 L 62.5 182 Z " /></svg>