<svg width="200" height="200" version="1.1" xmlns="http://www.w3.org/2000/svg" desc="Created with imagetracer.js version 1.2.6" ><path fill="rgb(0,0,0)" stroke="rgb(0,0,0)" stroke-width="1" opacity="0" d="M 0 0 L 200 0 L 200 200 L 184 199.5 L 189 195.5 L 190 193.5 L 190 116.5 L 186 115 Q 187.1 112.3 184.5 113 Q 173.8 110.2 166 104.5 Q 168.5 82.5 157.5 74 Q 150.8 72.8 148.5 76 Q 148.2 57.8 139.5 48 L 132.5 44 L 121.5 41 L 101.5 40 L 72.5 47 Q 58 52.5 49 63.5 L 46 68.5 L 45 87.5 L 46 88.5 L 47 103.5 L 23.5 121 L 10 124 L 10 193.5 Q 12.8 195.5 12 200 L 0.5 200 L 0 199.5 L 0 0 Z " /><path fill="rgb(0,0,0)" stroke="rgb(0,0,0)" stroke-width="1" opacity="0.2235294117647059" d="M 101.5 40 L 112 40.5 L 101.5 41 L 101.5 40 Z " /><path fill="rgb(0,0,0)" stroke="rgb(0,0,0)" stroke-width="1" opacity="0.2235294117647059" d="M 95.5 41 L 100 41.5 L 95.5 42 L 95.5 41 Z " /><path fill="rgb(0,0,0)" stroke="rgb(0,0,0)" stroke-width="1" opacity="0.2235294117647059" d="M 114.5 41 L 122 41.5 L 114.5 42 L 114.5 41 Z " /><path fill="rgb(0,0,0)" stroke="rgb(0,0,0)" stroke-width="1" opacity="0.2235294117647059" d="M 90.5 42 L 94 42.5 L 90.5 43 L 90.5 42 Z " /><path fill="rgb(0,0,0)" stroke="rgb(0,0,0)" stroke-width="1" opacity="0.2235294117647059" d="M 123.5 42 L 126 42.5 L 123.5 43 L 123.5 42 Z " /><path fill="rgb(0,0,0)" stroke="rgb(0,0,0)" stroke-width="1" opacity="0.2235294117647059" d="M 85.5 43 L 89 43.5 L 78.5 46 L 78.5 45 L 85.5 43 Z " /><path fill="rgb(0,0,0)" stroke="rgb(0,0,0)" stroke-width="1" opacity="0.2235294117647059" d="M 127.5 43 Q 136.5 44 141 49.5 Q 145.2 53.8 146 61.5 L 145 61.5 Q 143.6 51.4 136.5 47 L 127.5 44 L 127.5 43 Z " /><path fill="rgb(0,0,0)" stroke="rgb(0,0,0)" stroke-width="1" opacity="0.2235294117647059" d="M 72.5 47 L 74 47.5 Q 59.3 52.8 50 63.5 L 46.5 70 L 46 68.5 L 56.5 56 L 72.5 47 Z " /><path fill="rgb(0,0,0)" stroke="rgb(0,0,0)" stroke-width="1" opacity="0.2235294117647059" d="M 146.5 63 Q 149.1 67.9 148 76.5 L 147 76.5 L 146.5 63 Z " /><path fill="rgb(0,0,0)" stroke="rgb(0,0,0)" stroke-width="1" opacity="0.2235294117647059" d="M 151.5 74 Q 160.5 72.5 162 78.5 L 164 83.5 L 163 83.5 Q 161.8 77.8 157.5 75 L 149.5 76 L 149.5 75 L 151.5 74 Z " /><path fill="rgb(0,0,0)" stroke="rgb(0,0,0)" stroke-width="1" opacity="0.2235294117647059" d="M 45.5 75 L 46 87.5 L 45 87.5 L 45.5 75 Z " /><path fill="rgb(0,0,0)" stroke="rgb(0,0,0)" stroke-width="1" opacity="0.2235294117647059" d="M 164.5 85 L 165 87.5 L 164 87.5 L 164.5 85 Z " /><path fill="rgb(0,0,0)" stroke="rgb(0,0,0)" stroke-width="1" opacity="0.2235294117647059" d="M 165.5 89 L 166 94.5 L 165 94.5 L 165.5 89 Z " /><path fill="rgb(0,0,0)" stroke="rgb(0,0,0)" stroke-width="1" opacity="0.2235294117647059" d="M 46.5 90 L 47 97.5 L 46 97.5 L 46.5 90 Z " /><path fill="rgb(0,0,0)" stroke="rgb(0,0,0)" stroke-width="1" opacity="0.2235294117647059" d="M 47.5 100 L 48 103.5 Q 36.9 114.4 22.5 122 L 22.5 121 L 47 103.5 L 47.5 100 Z " /><path fill="rgb(0,0,0)" stroke="rgb(0,0,0)" stroke-width="1" opacity="0.2235294117647059" d="M 165.5 100 Q 164.9 104.6 167.5 106 L 178 110.5 L 176.5 111 L 165 106 L 165.5 100 Z " /><path fill="rgb(0,0,0)" stroke="rgb(0,0,0)" stroke-width="1" opacity="0.2235294117647059" d="M 179.5 111 L 186 113.5 L 184.5 114 L 179.5 112 L 179.5 111 Z " /><path fill="rgb(0,0,0)" stroke="rgb(0,0,0)" stroke-width="1" opacity="0.2235294117647059" d="M 16.5 122 L 21 122.5 L 16.5 123 L 16.5 122 Z " /><path fill="rgb(84,64,54)" stroke="rgb(84,64,54)" stroke-width="1" opacity="1" d="M 103.5 46 L 111 46.5 L 103.5 47 L 103.5 46 Z " /><path fill="rgb(84,64,54)" stroke="rgb(84,64,54)" stroke-width="1" opacity="1" d="M 96.5 47 L 100 47.5 L 96.5 48 L 96.5 47 Z " /><path fill="rgb(84,64,54)" stroke="rgb(84,64,54)" stroke-width="1" opacity="1" d="M 117.5 47 L 121 47.5 L 117.5 48 L 117.5 47 Z " /><path fill="rgb(84,64,54)" stroke="rgb(84,64,54)" stroke-width="1" opacity="1" d="M 91.5 48 L 95 48.5 L 91.5 49 L 91.5 48 Z " /><path fill="rgb(84,64,54)" stroke="rgb(84,64,54)" stroke-width="1" opacity="1" d="M 132.5 51 L 137 54.5 L 134.5 53 L 132.5 51 Z " /><path fill="rgb(84,64,54)" stroke="rgb(84,64,54)" stroke-width="1" opacity="1" d="M 138.5 58 L 140 62.5 L 139 62.5 L 138.5 58 Z " /><path fill="rgb(84,64,54)" stroke="rgb(84,64,54)" stroke-width="1" opacity="1" d="M 62.5 59 L 61.5 61 L 62.5 59 Z " /><path fill="rgb(84,64,54)" stroke="rgb(84,64,54)" stroke-width="1" opacity="1" d="M 140.5 64 L 141 67.5 L 140 67.5 L 140.5 64 Z " /><path fill="rgb(84,64,54)" stroke="rgb(84,64,54)" stroke-width="1" opacity="1" d="M 55.5 65 L 54.5 67 L 55.5 65 Z " /><path fill="rgb(84,64,54)" stroke="rgb(84,64,54)" stroke-width="1" opacity="1" d="M 141.5 69 L 142 75.5 L 141 75.5 L 141.5 69 Z " /><path fill="rgb(84,64,54)" stroke="rgb(84,64,54)" stroke-width="1" opacity="1" d="M 141.5 78 L 142 80.5 L 141 83.5 L 141.5 85 L 140 81.5 L 141.5 78 Z " /><path fill="rgb(84,64,54)" stroke="rgb(84,64,54)" stroke-width="1" opacity="1" d="M 51.5 84 L 52 86.5 L 51 86.5 L 51.5 84 Z " /><path fill="rgb(84,64,54)" stroke="rgb(84,64,54)" stroke-width="1" opacity="1" d="M 157.5 84 L 159 88.5 L 158 88.5 L 157.5 84 Z " /><path fill="rgb(84,64,54)" stroke="rgb(84,64,54)" stroke-width="1" opacity="1" d="M 115.5 89 Q 122.5 87.5 124 91.5 Q 125.2 99.2 122 102.5 L 113.5 111 L 101.5 117 L 89.5 117 Q 85.5 112 75.5 113 Q 72.6 116.6 64.5 115 Q 57.6 113.4 55 107.5 L 53 104.5 L 52 95.5 L 53 95.5 L 53.5 97 L 55.5 92 L 60.5 92 L 73.5 98 Q 75 95.5 76.5 99 L 82.5 99 Q 86.3 95.3 93.5 95 L 93.5 96 L 87.5 97 Q 84.7 100.7 78.5 101 L 74.5 100 L 75 101.5 L 74 105.5 L 75 112 L 82.5 112 L 90.5 116 L 99.5 116 L 104.5 115 L 112 111 Q 110.3 106.9 114.5 108 L 123 98.5 L 123 92.5 Q 121.5 88.8 116 90 Q 117.3 93.3 112.5 92 L 110.5 92 L 95.5 95 L 95.5 94 L 115.5 89 Z M 60 98 L 61 108 L 67 111 L 71 110 L 70 105 Q 67 98 60 98 Z " /><path fill="rgb(84,64,54)" stroke="rgb(84,64,54)" stroke-width="1" opacity="1" d="M 159.5 90 L 160 102.5 L 159 102.5 L 159.5 90 Z " /><path fill="rgb(84,64,54)" stroke="rgb(84,64,54)" stroke-width="1" opacity="1" d="M 108 96 Q 113.2 94.3 112 98 Q 106.8 99.7 108 96 Z " /><path fill="rgb(84,64,54)" stroke="rgb(84,64,54)" stroke-width="1" opacity="1" d="M 109.5 105 L 108.5 107 L 109.5 105 Z " /><path fill="rgb(84,64,54)" stroke="rgb(84,64,54)" stroke-width="1" opacity="1" d="M 157.5 106 L 156.5 108 L 157.5 106 Z " /><path fill="rgb(84,64,54)" stroke="rgb(84,64,54)" stroke-width="1" opacity="1" d="M 162.5 110 L 161.5 112 L 162.5 110 Z " /><path fill="rgb(84,64,54)" stroke="rgb(84,64,54)" stroke-width="1" opacity="1" d="M 146.5 111 L 146 112.5 Q 144.2 118.6 151.5 116 L 151.5 117 Q 146.3 118.3 145 115.5 Q 144.3 111.8 146.5 111 Z " /><path fill="rgb(84,64,54)" stroke="rgb(84,64,54)" stroke-width="1" opacity="1" d="M 159.5 112 L 158.5 114 L 156.5 115 L 157.5 113 L 159.5 112 Z " /><path fill="rgb(84,64,54)" stroke="rgb(84,64,54)" stroke-width="1" opacity="1" d="M 44.5 113 L 43.5 115 L 44.5 113 Z " /><path fill="rgb(84,64,54)" stroke="rgb(84,64,54)" stroke-width="1" opacity="1" d="M 54.5 114 L 55 122.5 L 54 122.5 L 54.5 114 Z " /><path fill="rgb(84,64,54)" stroke="rgb(84,64,54)" stroke-width="1" opacity="1" d="M 35.5 119 L 34.5 121 L 35.5 119 Z " /><path fill="rgb(84,64,54)" stroke="rgb(84,64,54)" stroke-width="1" opacity="1" d="M 140.5 123 L 144 124.5 L 142.5 124 Q 139.5 124.5 140.5 123 Z " /><path fill="rgb(84,64,54)" stroke="rgb(84,64,54)" stroke-width="1" opacity="1" d="M 138.5 124 L 139 125.5 L 133.5 132 L 131.5 133 L 132.5 131 L 136 128.5 L 138.5 124 Z " /><path fill="rgb(84,64,54)" stroke="rgb(84,64,54)" stroke-width="1" opacity="1" d="M 47.5 128 L 48 139.5 L 47 139.5 L 47.5 128 Z " /><path fill="rgb(84,64,54)" stroke="rgb(84,64,54)" stroke-width="1" opacity="1" d="M 10.5 129 L 13 129.5 L 10.5 130 L 10.5 129 Z " /><path fill="rgb(84,64,54)" stroke="rgb(84,64,54)" stroke-width="1" opacity="1" d="M 142.5 130 L 141 132.5 L 139.5 135 L 140 133.5 L 142.5 130 Z " /><path fill="rgb(84,64,54)" stroke="rgb(84,64,54)" stroke-width="1" opacity="1" d="M 129.5 133 L 127.5 136 L 129.5 133 Z " /><path fill="rgb(84,64,54)" stroke="rgb(84,64,54)" stroke-width="1" opacity="1" d="M 137.5 135 L 135.5 138 L 133.5 139 L 134.5 137 L 137.5 135 Z " /><path fill="rgb(84,64,54)" stroke="rgb(84,64,54)" stroke-width="1" opacity="1" d="M 123.5 137 L 122.5 139 L 123.5 137 Z " /><path fill="rgb(84,64,54)" stroke="rgb(84,64,54)" stroke-width="1" opacity="1" d="M 119.5 139 L 121 139.5 L 117.5 141 L 117.5 140 L 119.5 139 Z " /><path fill="rgb(84,64,54)" stroke="rgb(84,64,54)" stroke-width="1" opacity="1" d="M 131.5 139 L 129.5 142 L 120.5 146 L 120.5 145 L 131.5 139 Z " /><path fill="rgb(84,64,54)" stroke="rgb(84,64,54)" stroke-width="1" opacity="1" d="M 49.5 145 L 52 146.5 L 50.5 146 L 49.5 145 Z " /><path fill="rgb(84,64,54)" stroke="rgb(84,64,54)" stroke-width="1" opacity="1" d="M 67.5 145 L 71 145.5 L 67.5 146 L 67.5 145 Z " /><path fill="rgb(84,64,54)" stroke="rgb(84,64,54)" stroke-width="1" opacity="1" d="M 73.5 146 L 80 146.5 L 73.5 147 L 73.5 146 Z " /><path fill="rgb(84,64,54)" stroke="rgb(84,64,54)" stroke-width="1" opacity="1" d="M 99.5 146 L 102 146.5 L 99.5 147 L 99.5 146 Z " /><path fill="rgb(84,64,54)" stroke="rgb(84,64,54)" stroke-width="1" opacity="1" d="M 53.5 147 L 57 148.5 L 55.5 149 L 53.5 147 Z " /><path fill="rgb(84,64,54)" stroke="rgb(84,64,54)" stroke-width="1" opacity="1" d="M 115.5 147 L 117 147.5 L 113.5 149 L 113.5 148 L 115.5 147 Z " /><path fill="rgb(84,64,54)" stroke="rgb(84,64,54)" stroke-width="1" opacity="1" d="M 61.5 150 L 64 150.5 L 61.5 151 L 61.5 150 Z " /><path fill="rgb(84,64,54)" stroke="rgb(84,64,54)" stroke-width="1" opacity="1" d="M 65.5 151 L 70 151.5 L 65.5 152 L 65.5 151 Z " /><path fill="rgb(84,64,54)" stroke="rgb(84,64,54)" stroke-width="1" opacity="1" d="M 71.5 152 L 75 152.5 L 71.5 153 L 71.5 152 Z " /><path fill="rgb(84,64,54)" stroke="rgb(84,64,54)" stroke-width="1" opacity="1" d="M 99.5 152 L 103 152.5 L 99.5 153 L 99.5 152 Z " /><path fill="rgb(84,64,54)" stroke="rgb(84,64,54)" stroke-width="1" opacity="1" d="M 78.5 153 L 97 153.5 L 78.5 154 L 78.5 153 Z " /><path fill="rgb(117,75,59)" stroke="rgb(117,75,59)" stroke-width="1" opacity="1" d="M 100.5 47 L 103 47.5 L 97 52.5 L 89 68.5 L 88 73.5 L 88 95.5 L 86.5 97 Q 83.5 100 76.5 99 L 73 95.5 L 71 79.5 L 71 77.5 Q 69.8 73.8 73.5 75 L 85 68.5 L 80 55.5 L 88 51 Q 86.9 47.5 94.5 49 L 100.5 47 Z " /><path fill="rgb(117,75,59)" stroke="rgb(117,75,59)" stroke-width="1" opacity="1" d="M 132.5 52 L 137 55.5 L 141 68.5 L 141 80.5 L 140 83.5 L 144 85 Q 142.8 89.6 145.5 91 L 153.5 84 L 156 84 L 154.5 81 L 153 80.5 L 154.5 80 Q 161.3 87.3 159 103.5 L 155.5 108 L 145 112.5 Q 144.3 116.3 146.5 117 L 154.5 116 L 163.5 111 Q 161.7 113.5 166.5 116 L 173 121.5 L 170.5 125 L 160.5 133 L 157.5 132 L 154 138.5 L 154 141.5 L 141.5 154 L 139.5 155 L 135 138.5 L 141 133.5 L 145 126.5 L 142.5 123 L 138 124 L 133.5 131 L 121.5 138 L 117 131.5 L 115 121.5 L 115 109.5 Q 124.2 105.2 124 91.5 Q 122.5 87.5 115.5 89 L 114 89.5 L 115 76.5 L 117 70.5 L 126.5 57 L 132.5 52 Z " /><path fill="rgb(117,75,59)" stroke="rgb(117,75,59)" stroke-width="1" opacity="1" d="M 57.5 63 L 56.5 65 L 57.5 63 Z " /><path fill="rgb(117,75,59)" stroke="rgb(117,75,59)" stroke-width="1" opacity="1" d="M 51.5 79 L 52 83.5 L 51 83.5 L 51.5 79 Z " /><path fill="rgb(117,75,59)" stroke="rgb(117,75,59)" stroke-width="1" opacity="1" d="M 52.5 90 L 53 94.5 L 52 94.5 L 52.5 90 Z " /><path fill="rgb(117,75,59)" stroke="rgb(117,75,59)" stroke-width="1" opacity="1" d="M 56.5 91 L 59 91.5 L 56.5 92 L 56.5 91 Z " /><path fill="rgb(117,75,59)" stroke="rgb(117,75,59)" stroke-width="1" opacity="1" d="M 54.5 108 L 55 113.5 L 54 113.5 L 54.5 108 Z " /><path fill="rgb(117,75,59)" stroke="rgb(117,75,59)" stroke-width="1" opacity="1" d="M 56.5 109 L 59.5 113 L 56.5 109 Z " /><path fill="rgb(117,75,59)" stroke="rgb(117,75,59)" stroke-width="1" opacity="1" d="M 47.5 111 L 45.5 114 L 47.5 111 Z " /><path fill="rgb(117,75,59)" stroke="rgb(117,75,59)" stroke-width="1" opacity="1" d="M 75.5 113 L 81.5 113 L 90 117.5 L 90 140.5 L 93 146.5 L 80.5 147 L 79.5 146 L 64 144.5 Q 70.6 143.1 74 138.5 L 73 137.5 L 73 122.5 Q 75.5 121 74 115.5 L 73.5 114 L 75.5 113 Z " /><path fill="rgb(117,75,59)" stroke="rgb(117,75,59)" stroke-width="1" opacity="1" d="M 66.5 115 L 72 115.5 L 66.5 116 L 66.5 115 Z " /><path fill="rgb(117,75,59)" stroke="rgb(117,75,59)" stroke-width="1" opacity="1" d="M 48.5 117 L 49 123.5 L 48 123.5 L 48.5 117 Z " /><path fill="rgb(117,75,59)" stroke="rgb(117,75,59)" stroke-width="1" opacity="1" d="M 54.5 123 L 55 126.5 L 54 126.5 L 54.5 123 Z " /><path fill="rgb(117,75,59)" stroke="rgb(117,75,59)" stroke-width="1" opacity="1" d="M 47.5 127 L 47 128.5 Q 45.8 140 49 146 L 65.5 152 L 77.5 153 L 78.5 154 L 96.5 154 L 105 152 L 104 164.5 L 105 165.5 L 105 176 Q 101.6 177.7 94.5 177 L 93.5 176 L 82.5 176 L 74 169.5 L 69.5 162 L 38 145.5 L 39 136.5 L 47.5 127 Z " /><path fill="rgb(117,75,59)" stroke="rgb(117,75,59)" stroke-width="1" opacity="1" d="M 13.5 129 L 20 129.5 L 13.5 130 L 13.5 129 Z " /><path fill="rgb(117,75,59)" stroke="rgb(117,75,59)" stroke-width="1" opacity="1" d="M 54.5 140 L 55.5 142 L 54.5 140 Z " /><path fill="rgb(14,10,9)" stroke="rgb(14,10,9)" stroke-width="1" opacity="0.984313725490196" d="M 100.5 41 L 113.5 41 L 114.5 42 L 126.5 43 Q 136.9 45.1 142 52.5 Q 147.6 61.9 147.5 77 Q 150.5 74 157.5 75 L 164 84.5 L 166 99.5 L 165 106 L 190 116 L 190 121.5 L 188.5 122 L 162.5 110 L 155.5 115 L 146 116 Q 145 112.2 147.5 111 Q 154.4 110.4 158 106.5 Q 162 101.5 160 90.5 L 156 80 L 152.5 80 L 142.5 85 L 141 81.5 L 142 78.5 L 141 76.5 Q 143.5 75 142 69.5 L 140 60.5 L 134.5 52 L 120.5 47 L 103.5 46 L 86.5 49 L 73.5 53 Q 61.8 57.8 54 66.5 Q 49 73 51 86.5 L 52 87.5 L 52 96.5 L 54 105.5 L 54 142 L 62.5 145 L 73.5 147 L 94.5 147 L 95.5 148 Q 121.4 143.4 137 128.5 L 139 124 Q 142.8 123 144 125.5 Q 143.1 132.1 138.5 135 Q 123.9 145.9 104.5 152 Q 99.8 150.7 98.5 153 L 75.5 153 L 60.5 150 L 49 145 L 48 142.5 L 48 126.5 L 49 125.5 L 49 111 L 25.5 127 L 20.5 129 L 10 129 L 10 124 L 13.5 124 L 23.5 122 L 48 103.5 L 47 90.5 L 46 89.5 L 46 70.5 Q 49.6 62.1 56.5 57 L 74.5 47 L 100.5 41 Z " /><path fill="rgb(14,10,9)" stroke="rgb(14,10,9)" stroke-width="1" opacity="0.984313725490196" d="M 116 90 Q 121.5 88.8 123 92.5 L 123 98.5 L 114.5 108 L 112 108 Q 113.5 111.8 110.5 111 L 104.5 115 L 90.5 116 L 82.5 112 L 75 112 L 74 104.5 L 75 101.5 L 74.5 100 L 80.5 101 L 87.5 97 L 111.5 91 L 116 92 L 116 90 Z M 108 96 L 108 98 L 102 99 L 91 104 Q 91 110 96 112 Q 104 113 107 109 Q 111 106 112 101 Q 114 94 108 96 Z " /><path fill="rgb(199,150,122)" stroke="rgb(199,150,122)" stroke-width="1" opacity="0.9921568627450981" d="M 58.5 63 L 61 64.5 L 66 79 Q 57.8 77.1 53 70.5 L 58.5 63 Z " /><path fill="rgb(199,150,122)" stroke="rgb(199,150,122)" stroke-width="1" opacity="0.9921568627450981" d="M 61.5 98 L 70 104.5 L 71 108.5 Q 69.8 111.3 64.5 110 Q 58.9 108.1 60 99.5 L 61.5 98 Z " /><path fill="rgb(199,150,122)" stroke="rgb(199,150,122)" stroke-width="1" opacity="0.9921568627450981" d="M 106.5 98 Q 113.3 95.8 111 102.5 L 105.5 109 L 97.5 112 L 92 107.5 Q 90.5 103.1 93.5 104 L 106.5 98 Z " /><path fill="rgb(199,150,122)" stroke="rgb(199,150,122)" stroke-width="1" opacity="0.9921568627450981" d="M 35.5 120 Q 37.8 119.3 37 121.5 L 27.5 134 L 23 128.5 L 25.5 128 L 35.5 120 Z " /><path fill="rgb(199,150,122)" stroke="rgb(199,150,122)" stroke-width="1" opacity="0.9921568627450981" d="M 169.5 144 Q 172.6 145.4 172 150.5 L 156.5 160 L 149.5 161 L 149.5 160 Q 152.8 161.1 152 158.5 L 153 156.5 Q 150.3 154.7 154.5 153 L 169.5 144 Z " /><path fill="rgb(199,150,122)" stroke="rgb(199,150,122)" stroke-width="1" opacity="0.9921568627450981" d="M 56.5 168 L 57 169.5 L 47 185.5 L 44 191.5 L 44 194.5 L 48 199.5 L 24.5 200 L 25 198.5 L 27 193.5 Q 20.6 185.9 19 173.5 L 26.5 180 L 29 181.5 L 30.5 184 L 36.5 185 L 56.5 168 Z " /><path fill="rgb(148,106,87)" stroke="rgb(148,106,87)" stroke-width="1" opacity="0.996078431372549" d="M 85.5 50 L 88 50.5 L 83.5 53 L 82.5 51 L 85.5 50 Z " /><path fill="rgb(148,106,87)" stroke="rgb(148,106,87)" stroke-width="1" opacity="0.996078431372549" d="M 98.5 51 L 97.5 53 L 98.5 51 Z " /><path fill="rgb(148,106,87)" stroke="rgb(148,106,87)" stroke-width="1" opacity="0.996078431372549" d="M 75.5 53 L 77 53.5 L 76 56 Q 70.5 55.2 67.5 58 L 67.5 57 L 75.5 53 Z " /><path fill="rgb(148,106,87)" stroke="rgb(148,106,87)" stroke-width="1" opacity="0.996078431372549" d="M 81.5 53 L 80 55.5 L 83 63.5 L 82 63.5 L 79 55.5 L 81.5 53 Z " /><path fill="rgb(148,106,87)" stroke="rgb(148,106,87)" stroke-width="1" opacity="0.996078431372549" d="M 65.5 58 L 64.5 60 L 65.5 58 Z " /><path fill="rgb(148,106,87)" stroke="rgb(148,106,87)" stroke-width="1" opacity="0.996078431372549" d="M 62.5 60 L 61.5 62 L 62.5 60 Z " /><path fill="rgb(148,106,87)" stroke="rgb(148,106,87)" stroke-width="1" opacity="0.996078431372549" d="M 84.5 67 L 85 68.5 L 73.5 75 L 71 75 L 72 78.5 L 70.5 84 L 70 79.5 L 70 77.5 L 69 75.5 L 84 69 L 84.5 67 Z " /><path fill="rgb(148,106,87)" stroke="rgb(148,106,87)" stroke-width="1" opacity="0.996078431372549" d="M 53.5 71 L 52.5 73 L 53.5 71 Z " /><path fill="rgb(148,106,87)" stroke="rgb(148,106,87)" stroke-width="1" opacity="0.996078431372549" d="M 51.5 75 L 52 78.5 L 51 78.5 L 51.5 75 Z " /><path fill="rgb(148,106,87)" stroke="rgb(148,106,87)" stroke-width="1" opacity="0.996078431372549" d="M 114.5 82 L 115 84.5 L 114 84.5 L 114.5 82 Z " /><path fill="rgb(148,106,87)" stroke="rgb(148,106,87)" stroke-width="1" opacity="0.996078431372549" d="M 155.5 82 L 156 84 L 153.5 84 L 145.5 91 L 144 88.5 L 146.5 88 L 155.5 82 Z " /><path fill="rgb(148,106,87)" stroke="rgb(148,106,87)" stroke-width="1" opacity="0.996078431372549" d="M 52.5 83 L 53 89.5 L 52 89.5 L 52.5 83 Z " /><path fill="rgb(148,106,87)" stroke="rgb(148,106,87)" stroke-width="1" opacity="0.996078431372549" d="M 71.5 85 L 72 89.5 L 71 89.5 L 71.5 85 Z " /><path fill="rgb(148,106,87)" stroke="rgb(148,106,87)" stroke-width="1" opacity="0.996078431372549" d="M 55.5 91 L 54 93.5 L 53.5 96 L 53 92 L 55.5 91 Z " /><path fill="rgb(148,106,87)" stroke="rgb(148,106,87)" stroke-width="1" opacity="0.996078431372549" d="M 72.5 91 L 73 93.5 L 72 93.5 L 72.5 91 Z " /><path fill="rgb(148,106,87)" stroke="rgb(148,106,87)" stroke-width="1" opacity="0.996078431372549" d="M 54.5 107 L 59.5 113 L 62 114.5 L 60.5 114 L 55 109.5 L 54.5 107 Z " /><path fill="rgb(148,106,87)" stroke="rgb(148,106,87)" stroke-width="1" opacity="0.996078431372549" d="M 163.5 112 L 172 115.5 L 170.5 116 L 168.5 115 L 174 121.5 L 169.5 127 L 161.5 133 L 162.5 131 L 173 122.5 L 167.5 116 L 163.5 112 Z " /><path fill="rgb(148,106,87)" stroke="rgb(148,106,87)" stroke-width="1" opacity="0.996078431372549" d="M 44.5 114 L 43.5 116 L 44.5 114 Z " /><path fill="rgb(148,106,87)" stroke="rgb(148,106,87)" stroke-width="1" opacity="0.996078431372549" d="M 55.5 114 L 56 123.5 L 55 123.5 L 55.5 114 Z " /><path fill="rgb(148,106,87)" stroke="rgb(148,106,87)" stroke-width="1" opacity="0.996078431372549" d="M 63.5 115 L 66 115.5 L 63.5 116 L 63.5 115 Z " /><path fill="rgb(148,106,87)" stroke="rgb(148,106,87)" stroke-width="1" opacity="0.996078431372549" d="M 72.5 115 Q 74.8 114.3 74 116.5 L 72.5 115 Z " /><path fill="rgb(148,106,87)" stroke="rgb(148,106,87)" stroke-width="1" opacity="0.996078431372549" d="M 41.5 116 L 40.5 118 L 41.5 116 Z " /><path fill="rgb(148,106,87)" stroke="rgb(148,106,87)" stroke-width="1" opacity="0.996078431372549" d="M 68.5 116 L 71 116.5 L 68.5 117 L 68.5 116 Z " /><path fill="rgb(148,106,87)" stroke="rgb(148,106,87)" stroke-width="1" opacity="0.996078431372549" d="M 94.5 117 L 97 117.5 L 94.5 118 L 94.5 117 Z " /><path fill="rgb(148,106,87)" stroke="rgb(148,106,87)" stroke-width="1" opacity="0.996078431372549" d="M 38.5 118 L 37.5 120 L 38.5 118 Z " /><path fill="rgb(148,106,87)" stroke="rgb(148,106,87)" stroke-width="1" opacity="0.996078431372549" d="M 73.5 118 L 74 121.5 L 73 121.5 L 73.5 118 Z " /><path fill="rgb(148,106,87)" stroke="rgb(148,106,87)" stroke-width="1" opacity="0.996078431372549" d="M 181.5 119 L 187 121.5 L 185.5 121 Q 180.9 121.8 181.5 119 Z " /><path fill="rgb(148,106,87)" stroke="rgb(148,106,87)" stroke-width="1" opacity="0.996078431372549" d="M 72.5 125 L 73 135.5 L 72 135.5 L 72.5 125 Z " /><path fill="rgb(148,106,87)" stroke="rgb(148,106,87)" stroke-width="1" opacity="0.996078431372549" d="M 54.5 127 L 55 139.5 L 57 141.5 L 54 139.5 L 54.5 127 Z " /><path fill="rgb(148,106,87)" stroke="rgb(148,106,87)" stroke-width="1" opacity="0.996078431372549" d="M 44 128 Q 46.7 126.9 46 129.5 L 38.5 138 L 38 136.5 L 44 130.5 L 44 128 Z " /><path fill="rgb(148,106,87)" stroke="rgb(148,106,87)" stroke-width="1" opacity="0.996078431372549" d="M 157.5 132 L 157 133.5 L 156.5 135 L 156 133.5 L 157.5 132 Z " /><path fill="rgb(148,106,87)" stroke="rgb(148,106,87)" stroke-width="1" opacity="0.996078431372549" d="M 118.5 135 L 119.5 137 L 118.5 135 Z " /><path fill="rgb(148,106,87)" stroke="rgb(148,106,87)" stroke-width="1" opacity="0.996078431372549" d="M 73.5 138 L 72.5 140 L 73.5 138 Z " /><path fill="rgb(148,106,87)" stroke="rgb(148,106,87)" stroke-width="1" opacity="0.996078431372549" d="M 70.5 140 L 68.5 143 L 70.5 140 Z " /><path fill="rgb(148,106,87)" stroke="rgb(148,106,87)" stroke-width="1" opacity="0.996078431372549" d="M 37.5 142 L 38 144.5 L 37 144.5 L 37.5 142 Z " /><path fill="rgb(148,106,87)" stroke="rgb(148,106,87)" stroke-width="1" opacity="0.996078431372549" d="M 153.5 142 L 142.5 154 L 153.5 142 Z " /><path fill="rgb(148,106,87)" stroke="rgb(148,106,87)" stroke-width="1" opacity="0.996078431372549" d="M 61.5 143 L 64 143.5 L 61.5 144 L 61.5 143 Z " /><path fill="rgb(148,106,87)" stroke="rgb(148,106,87)" stroke-width="1" opacity="0.996078431372549" d="M 38.5 146 L 63.5 158 L 71 163.5 L 72 165.5 L 66.5 161 Q 58 155 46.5 152 L 39.5 148 L 38.5 146 Z " /><path fill="rgb(148,106,87)" stroke="rgb(148,106,87)" stroke-width="1" opacity="0.996078431372549" d="M 106.5 151 L 105.5 153 L 106.5 151 Z " /><path fill="rgb(148,106,87)" stroke="rgb(148,106,87)" stroke-width="1" opacity="0.996078431372549" d="M 140.5 154 L 140 155.5 Q 141.7 161.3 138 160 L 140.5 154 Z " /><path fill="rgb(148,106,87)" stroke="rgb(148,106,87)" stroke-width="1" opacity="0.996078431372549" d="M 104.5 159 L 105 164.5 L 104 164.5 L 104.5 159 Z " /><path fill="rgb(148,106,87)" stroke="rgb(148,106,87)" stroke-width="1" opacity="0.996078431372549" d="M 72.5 167 L 77.5 173 L 82.5 176 L 94 176.5 L 84.5 178 Q 77.1 175.4 73 169.5 L 72.5 167 Z " /><path fill="rgb(148,106,87)" stroke="rgb(148,106,87)" stroke-width="1" opacity="0.996078431372549" d="M 20.5 181 L 21 183.5 L 20 183.5 L 20.5 181 Z " /><path fill="rgb(148,106,87)" stroke="rgb(148,106,87)" stroke-width="1" opacity="0.996078431372549" d="M 11.5 195 L 18 199.5 L 12 200 L 11.5 195 Z " /><path fill="rgb(148,106,87)" stroke="rgb(148,106,87)" stroke-width="1" opacity="0.996078431372549" d="M 188.5 195 L 185.5 199 L 182.5 200 L 182.5 199 Q 185.5 199.7 184 196 L 187.5 196 L 188.5 195 Z " /><path fill="rgb(81,163,163)" stroke="rgb(81,163,163)" stroke-width="1" opacity="1" d="M 103.5 47 L 122.5 48 L 132 51 L 129.5 55 L 121 62.5 L 115 75.5 L 114 90 L 88 96 L 88 77.5 L 90 66.5 Q 92.7 55.7 100.5 50 Q 102.8 50.8 102 48.5 L 103.5 47 Z " /><path fill="rgb(81,163,163)" stroke="rgb(81,163,163)" stroke-width="1" opacity="1" d="M 114.5 110 L 116 128.5 L 118 135.5 L 121 138.5 L 103.5 146 L 94.5 147 Q 87.6 140.4 90 124.5 Q 92.2 123.3 91 118.5 L 92.5 117 L 97.5 118 L 105.5 116 L 114.5 110 Z " /><path fill="rgb(81,163,163)" stroke="rgb(81,163,163)" stroke-width="1" opacity="1" d="M 134.5 138 L 139 153.5 L 139 157.5 L 137 160.5 L 136 173.5 L 140 189.5 L 141 200 L 107.5 200 Q 106.4 199.9 107 194.5 L 104 179.5 L 105 178.5 L 105 155.5 L 107.5 151 Q 123.5 147 134.5 138 Z " /><path fill="rgb(149,107,88)" stroke="rgb(149,107,88)" stroke-width="1" opacity="1" d="M 80.5 52 L 83 52.5 L 79 55.5 L 84 69 L 69 75.5 L 71 78.5 L 70 83.5 L 73 97 L 63.5 92 L 55.5 91 L 53 92 L 52 73.5 L 54.5 72 Q 58.9 77.4 66 79 L 65 73.5 L 59 62.5 L 71.5 56 L 76 56 L 77.5 53 L 80.5 52 Z " /><path fill="rgb(149,107,88)" stroke="rgb(149,107,88)" stroke-width="1" opacity="1" d="M 153.5 81 Q 156.1 80.3 155 83 Q 149 84 145.5 89 L 144 86.5 L 153.5 81 Z " /><path fill="rgb(149,107,88)" stroke="rgb(149,107,88)" stroke-width="1" opacity="1" d="M 93.5 109 L 94.5 111 L 93.5 109 Z " /><path fill="rgb(149,107,88)" stroke="rgb(149,107,88)" stroke-width="1" opacity="1" d="M 55.5 110 L 63.5 116 L 70.5 117 L 72.5 116 Q 75.3 117.3 73 118.5 L 72 135.5 L 73 138.5 L 64.5 144 L 57.5 142 L 55 139.5 L 56 114.5 L 55.5 110 Z " /><path fill="rgb(149,107,88)" stroke="rgb(149,107,88)" stroke-width="1" opacity="1" d="M 46.5 113 L 48 113.5 L 48 124.5 L 47 128 Q 42.9 126.3 44 130.5 L 38 136.5 L 37 144.5 L 39.5 148 L 63.5 159 L 72 166.5 Q 73.4 172.6 78.5 175 L 85.5 178 L 86.5 177 L 94.5 177 L 96.5 178 L 98.5 177 L 100.5 178 L 104.5 176 L 105 177.5 L 104 180.5 L 105 181.5 L 105 188.5 L 107 200 L 48.5 200 L 45 196.5 L 44 191.5 L 57 168.5 L 54.5 170 L 36.5 185 L 32.5 185 L 29 182.5 L 27.5 180 L 19.5 173 L 19 176.5 L 21 180.5 L 20 183.5 L 22 183.5 L 27 194.5 L 23.5 200 L 18.5 200 L 11 194.5 L 10 191.5 L 10 130 L 21.5 130 L 24 129 L 27.5 134 Q 33.8 128.8 37 120.5 L 36.5 119 Q 38 121.5 39.5 118 L 46.5 113 Z " /><path fill="rgb(149,107,88)" stroke="rgb(149,107,88)" stroke-width="1" opacity="1" d="M 168.5 115 L 190 123.5 L 190 191.5 L 187.5 196 L 184 196 Q 185.5 199.7 182.5 199 L 181.5 200 L 141 200 L 140 188.5 L 136 173.5 L 136 166.5 L 138.5 160 Q 141.9 160.9 140 155.5 L 154 142.5 Q 154.6 135.6 158.5 132 L 162.5 133 L 174 122.5 L 168.5 115 Z M 170 144 L 155 153 Q 150 155 153 157 L 152 160 L 157 160 L 172 151 Q 173 145 170 144 Z M 150 160 L 150 161 L 152 161 L 150 160 Z " /><path fill="rgb(149,107,88)" stroke="rgb(149,107,88)" stroke-width="1" opacity="1" d="M 91.5 117 L 91 118.5 L 90.5 124 L 90 118.5 L 91.5 117 Z " /><path fill="rgb(149,107,88)" stroke="rgb(149,107,88)" stroke-width="1" opacity="1" d="M 92.5 145 L 93.5 147 L 92.5 145 Z " /></svg>