<svg width="200" height="200" version="1.1" xmlns="http://www.w3.org/2000/svg" desc="Created with imagetracer.js version 1.2.6" ><path fill="rgb(0,0,0)" stroke="rgb(0,0,0)" stroke-width="1" opacity="0" d="M 0 0 L 200 0 L 200 200 L 185.5 200 L 185 196.5 Q 181.4 194.6 182 188.5 Q 187.3 186.3 186 177.5 L 182 160.5 Q 178.2 149.8 169.5 144 L 157 139.5 L 153 133.5 L 161 121.5 L 168 102.5 L 171 85.5 L 171 78.5 L 172 77.5 L 172 60.5 L 169 43.5 L 164.5 39 L 155.5 37 L 139.5 37 L 138.5 38 L 129.5 38 L 118 40 Q 118.8 35.3 114.5 34 L 107.5 33 L 88.5 37 L 67.5 46 Q 51.4 55.4 40 69.5 L 24 95.5 L 19 109.5 L 17 124.5 L 20 140.5 L 30.5 153 L 33.5 155 Q 40.7 162.8 52 166.5 Q 41.8 181.1 37 200 L 0.5 200 L 0 199.5 L 0 0 Z " /><path fill="rgb(0,0,0)" stroke="rgb(0,0,0)" stroke-width="1" opacity="0.15294117647058825" d="M 103.5 34 L 106 34.5 L 103.5 35 L 103.5 34 Z " /><path fill="rgb(0,0,0)" stroke="rgb(0,0,0)" stroke-width="1" opacity="0.15294117647058825" d="M 115.5 35 L 116.5 37 L 115.5 35 Z " /><path fill="rgb(0,0,0)" stroke="rgb(0,0,0)" stroke-width="1" opacity="0.15294117647058825" d="M 132.5 38 L 137 38.5 L 132.5 39 L 132.5 38 Z " /><path fill="rgb(0,0,0)" stroke="rgb(0,0,0)" stroke-width="1" opacity="0.15294117647058825" d="M 156.5 38 L 159 38.5 L 156.5 39 L 156.5 38 Z " /><path fill="rgb(0,0,0)" stroke="rgb(0,0,0)" stroke-width="1" opacity="0.15294117647058825" d="M 56.5 54 L 55.5 56 L 56.5 54 Z " /><path fill="rgb(0,0,0)" stroke="rgb(0,0,0)" stroke-width="1" opacity="0.15294117647058825" d="M 170.5 55 L 171 57.5 L 170 57.5 L 170.5 55 Z " /><path fill="rgb(0,0,0)" stroke="rgb(0,0,0)" stroke-width="1" opacity="0.15294117647058825" d="M 50.5 59 L 46.5 64 L 50.5 59 Z " /><path fill="rgb(0,0,0)" stroke="rgb(0,0,0)" stroke-width="1" opacity="0.15294117647058825" d="M 171.5 66 L 172 71.5 L 171 71.5 L 171.5 66 Z " /><path fill="rgb(0,0,0)" stroke="rgb(0,0,0)" stroke-width="1" opacity="0.15294117647058825" d="M 41.5 69 L 39.5 72 L 41.5 69 Z " /><path fill="rgb(0,0,0)" stroke="rgb(0,0,0)" stroke-width="1" opacity="0.15294117647058825" d="M 37.5 74 L 36.5 76 L 37.5 74 Z " /><path fill="rgb(0,0,0)" stroke="rgb(0,0,0)" stroke-width="1" opacity="0.15294117647058825" d="M 170.5 79 L 171 81.5 L 170 81.5 L 170.5 79 Z " /><path fill="rgb(0,0,0)" stroke="rgb(0,0,0)" stroke-width="1" opacity="0.15294117647058825" d="M 169.5 87 L 170 89.5 L 169 89.5 L 169.5 87 Z " /><path fill="rgb(0,0,0)" stroke="rgb(0,0,0)" stroke-width="1" opacity="0.15294117647058825" d="M 18.5 116 L 19 118.5 L 18 118.5 L 18.5 116 Z " /><path fill="rgb(0,0,0)" stroke="rgb(0,0,0)" stroke-width="1" opacity="0.15294117647058825" d="M 18.5 127 L 19 130.5 L 18 130.5 L 18.5 127 Z " /><path fill="rgb(0,0,0)" stroke="rgb(0,0,0)" stroke-width="1" opacity="0.15294117647058825" d="M 155.5 129 L 154.5 131 L 155.5 129 Z " /><path fill="rgb(0,0,0)" stroke="rgb(0,0,0)" stroke-width="1" opacity="0.15294117647058825" d="M 153.5 135 L 154.5 137 L 153.5 135 Z " /><path fill="rgb(0,0,0)" stroke="rgb(0,0,0)" stroke-width="1" opacity="0.15294117647058825" d="M 23.5 144 L 26.5 148 L 23.5 144 Z " /><path fill="rgb(0,0,0)" stroke="rgb(0,0,0)" stroke-width="1" opacity="0.15294117647058825" d="M 171.5 146 L 174.5 150 L 171.5 146 Z " /><path fill="rgb(0,0,0)" stroke="rgb(0,0,0)" stroke-width="1" opacity="0.15294117647058825" d="M 32.5 153 L 34.5 156 L 32.5 153 Z " /><path fill="rgb(0,0,0)" stroke="rgb(0,0,0)" stroke-width="1" opacity="0.15294117647058825" d="M 37.5 157 L 38.5 159 L 37.5 157 Z " /><path fill="rgb(0,0,0)" stroke="rgb(0,0,0)" stroke-width="1" opacity="0.15294117647058825" d="M 183.5 186 L 182.5 188 L 183.5 186 Z " /><path fill="rgb(0,0,0)" stroke="rgb(0,0,0)" stroke-width="1" opacity="0.0784313725490196" d="M 53.5 56 L 51.5 59 L 53.5 56 Z " /><path fill="rgb(0,0,0)" stroke="rgb(0,0,0)" stroke-width="1" opacity="0.0784313725490196" d="M 171.5 62 L 172 65.5 L 171 65.5 L 171.5 62 Z " /><path fill="rgb(0,0,0)" stroke="rgb(0,0,0)" stroke-width="1" opacity="0.0784313725490196" d="M 45.5 64 L 42.5 68 L 45.5 64 Z " /><path fill="rgb(0,0,0)" stroke="rgb(0,0,0)" stroke-width="1" opacity="0.0784313725490196" d="M 171.5 72 L 172 75.5 L 171 75.5 L 171.5 72 Z " /><path fill="rgb(0,0,0)" stroke="rgb(0,0,0)" stroke-width="1" opacity="0.0784313725490196" d="M 175.5 150 L 176.5 152 L 175.5 150 Z " /><path fill="rgb(0,0,0)" stroke="rgb(0,0,0)" stroke-width="1" opacity="0.9882352941176471" d="M 102.5 35 L 113.5 35 L 116 37.5 L 117 42 L 131.5 39 L 159.5 39 Q 165.3 40.3 168 44.5 L 170 54.5 L 170 62.5 L 171 63.5 L 171 74.5 L 170 75.5 L 169 90.5 L 166 104.5 L 161 118.5 L 152 132.5 L 152 134.5 L 157.5 142 Q 168.6 142.9 174 149.5 L 181 161.5 L 184 173.5 L 184 184.5 L 180 188.5 L 180 190.5 Q 184 193.8 184 200 L 179 200 L 179 197.5 L 174.5 191 L 156.5 192 Q 145.5 194.5 137.5 200 L 132 200 L 133.5 197 L 144.5 191 L 157.5 187 L 173.5 186 L 180 181.5 L 176 161.5 L 167.5 150 L 160.5 147 L 144.5 146 L 120.5 153 Q 109.9 156.4 104 164.5 L 101 170.5 L 101 186.5 L 106 200 Q 101.3 201 100 197.5 L 97 190.5 L 97 185.5 L 95.5 184 L 74.5 200 L 67.5 200 L 67.5 199 L 96 177.5 Q 97.1 160.6 108.5 154 L 129.5 145 L 141.5 142 L 151 142 L 146.5 136 L 126.5 141 Q 115.5 147 101.5 150 L 64.5 164 L 57 169.5 Q 48.1 183.5 43 200 L 38 200 L 38 198.5 Q 44.3 180.3 54 165.5 Q 35.7 159.3 25 145.5 L 20 135.5 L 19 130.5 L 19 115.5 Q 29 76.5 56.5 55 Q 74.4 39.9 102.5 35 Z M 108 39 L 81 46 Q 67 52 57 61 Q 43 73 34 89 L 28 102 L 23 121 L 25 138 L 27 141 Q 38 156 59 162 L 116 141 L 128 123 L 133 109 Q 134 103 132 101 L 116 96 L 113 94 L 112 41 Q 111 38 108 39 Z M 132 44 L 122 46 L 117 49 L 117 79 L 118 80 L 118 92 Q 131 93 138 101 L 138 107 L 135 119 L 125 136 L 126 137 L 148 130 L 153 124 L 160 108 L 163 97 L 165 76 L 166 75 L 165 55 L 163 47 L 160 44 L 132 44 Z " /><path fill="rgb(0,0,0)" stroke="rgb(0,0,0)" stroke-width="1" opacity="0.9882352941176471" d="M 64.5 97 L 68 99.5 L 70 103.5 L 71 114.5 Q 68.9 124.4 61.5 129 L 50.5 134 L 37.5 134 L 31 129.5 L 31 126.5 L 34 120.5 L 46.5 108 Q 53.7 100.7 64.5 97 Z M 64 102 L 47 114 Q 39 118 36 128 L 40 130 L 49 130 L 60 125 L 66 116 Q 68 106 64 102 Z " /><path fill="rgb(130,111,77)" stroke="rgb(130,111,77)" stroke-width="1" opacity="1" d="M 110.5 40 L 111.5 42 L 110.5 40 Z " /><path fill="rgb(130,111,77)" stroke="rgb(130,111,77)" stroke-width="1" opacity="1" d="M 47.5 71 L 46.5 73 L 47.5 71 Z " /><path fill="rgb(130,111,77)" stroke="rgb(130,111,77)" stroke-width="1" opacity="1" d="M 112.5 94 L 113.5 96 L 112.5 94 Z " /><path fill="rgb(130,111,77)" stroke="rgb(130,111,77)" stroke-width="1" opacity="1" d="M 67.5 97 L 68.5 99 L 67.5 97 Z " /><path fill="rgb(130,111,77)" stroke="rgb(130,111,77)" stroke-width="1" opacity="1" d="M 52.5 102 L 51.5 104 L 52.5 102 Z " /><path fill="rgb(130,111,77)" stroke="rgb(130,111,77)" stroke-width="1" opacity="1" d="M 48.5 105 L 47.5 107 L 48.5 105 Z " /><path fill="rgb(130,111,77)" stroke="rgb(130,111,77)" stroke-width="1" opacity="1" d="M 71.5 109 L 72 113.5 L 71 113.5 L 71.5 109 Z " /><path fill="rgb(130,111,77)" stroke="rgb(130,111,77)" stroke-width="1" opacity="1" d="M 42.5 110 L 40.5 113 L 42.5 110 Z " /><path fill="rgb(130,111,77)" stroke="rgb(130,111,77)" stroke-width="1" opacity="1" d="M 30.5 127 L 31 129.5 L 30 129.5 L 30.5 127 Z " /><path fill="rgb(130,111,77)" stroke="rgb(130,111,77)" stroke-width="1" opacity="1" d="M 160.5 185 L 165 185.5 L 160.5 186 L 160.5 185 Z " /><path fill="rgb(130,111,77)" stroke="rgb(130,111,77)" stroke-width="1" opacity="1" d="M 94.5 186 L 97 190.5 L 93 193.5 L 87.5 200 L 77 199.5 L 94.5 186 Z " /><path fill="rgb(130,111,77)" stroke="rgb(130,111,77)" stroke-width="1" opacity="1" d="M 155.5 186 L 158 186.5 L 155.5 187 L 155.5 186 Z " /><path fill="rgb(130,111,77)" stroke="rgb(130,111,77)" stroke-width="1" opacity="1" d="M 135.5 194 L 134.5 196 L 135.5 194 Z " /><path fill="rgb(178,162,106)" stroke="rgb(178,162,106)" stroke-width="1" opacity="1" d="M 106.5 40 L 109 40.5 L 106.5 41 L 106.5 40 Z " /><path fill="rgb(178,162,106)" stroke="rgb(178,162,106)" stroke-width="1" opacity="1" d="M 106.5 42 Q 109.1 41.3 108 44 L 104 43.5 L 106.5 42 Z " /><path fill="rgb(178,162,106)" stroke="rgb(178,162,106)" stroke-width="1" opacity="1" d="M 111.5 89 L 112 93.5 L 111 93.5 L 111.5 89 Z " /><path fill="rgb(178,162,106)" stroke="rgb(178,162,106)" stroke-width="1" opacity="1" d="M 112.5 95 L 113.5 97 L 112.5 95 Z " /><path fill="rgb(178,162,106)" stroke="rgb(178,162,106)" stroke-width="1" opacity="1" d="M 70.5 100 Q 72.8 99.3 72 101.5 L 70.5 100 Z " /><path fill="rgb(178,162,106)" stroke="rgb(178,162,106)" stroke-width="1" opacity="1" d="M 51.5 102 L 50.5 104 L 51.5 102 Z " /><path fill="rgb(178,162,106)" stroke="rgb(178,162,106)" stroke-width="1" opacity="1" d="M 42.5 109 L 36.5 116 L 42.5 109 Z " /><path fill="rgb(178,162,106)" stroke="rgb(178,162,106)" stroke-width="1" opacity="1" d="M 58.5 111 L 59.5 113 L 57.5 113 L 55.5 114 L 56.5 112 L 58.5 111 Z " /><path fill="rgb(178,162,106)" stroke="rgb(178,162,106)" stroke-width="1" opacity="1" d="M 52.5 115 L 47.5 121 L 52.5 115 Z " /><path fill="rgb(178,162,106)" stroke="rgb(178,162,106)" stroke-width="1" opacity="1" d="M 24.5 119 L 25 121.5 L 24 121.5 L 24.5 119 Z " /><path fill="rgb(178,162,106)" stroke="rgb(178,162,106)" stroke-width="1" opacity="1" d="M 57.5 120 L 56.5 122 L 57.5 120 Z " /><path fill="rgb(178,162,106)" stroke="rgb(178,162,106)" stroke-width="1" opacity="1" d="M 45.5 123 L 45.5 125 L 49 125.5 L 45.5 126 Q 42.5 124.5 45.5 123 Z " /><path fill="rgb(178,162,106)" stroke="rgb(178,162,106)" stroke-width="1" opacity="1" d="M 67.5 124 L 66.5 126 L 67.5 124 Z " /><path fill="rgb(178,162,106)" stroke="rgb(178,162,106)" stroke-width="1" opacity="1" d="M 63.5 128 L 62.5 130 L 63.5 128 Z " /><path fill="rgb(178,162,106)" stroke="rgb(178,162,106)" stroke-width="1" opacity="1" d="M 31.5 131 L 32.5 133 L 31.5 131 Z " /><path fill="rgb(178,162,106)" stroke="rgb(178,162,106)" stroke-width="1" opacity="1" d="M 44.5 135 L 47 135.5 L 44.5 136 L 44.5 135 Z " /><path fill="rgb(178,162,106)" stroke="rgb(178,162,106)" stroke-width="1" opacity="1" d="M 29.5 141 L 31.5 144 L 29.5 141 Z " /><path fill="rgb(178,162,106)" stroke="rgb(178,162,106)" stroke-width="1" opacity="1" d="M 36.5 148 L 38.5 151 L 36.5 148 Z " /><path fill="rgb(178,162,106)" stroke="rgb(178,162,106)" stroke-width="1" opacity="1" d="M 167.5 151 L 169.5 154 L 167.5 151 Z " /><path fill="rgb(178,162,106)" stroke="rgb(178,162,106)" stroke-width="1" opacity="1" d="M 46.5 152 Q 48.8 151.3 48 153.5 L 46.5 152 Z " /><path fill="rgb(178,162,106)" stroke="rgb(178,162,106)" stroke-width="1" opacity="1" d="M 109.5 160 L 107.5 163 L 109.5 160 Z " /><path fill="rgb(178,162,106)" stroke="rgb(178,162,106)" stroke-width="1" opacity="1" d="M 101.5 174 L 102 177.5 L 101 177.5 L 101.5 174 Z " /><path fill="rgb(178,162,106)" stroke="rgb(178,162,106)" stroke-width="1" opacity="1" d="M 93.5 194 L 92.5 196 L 93.5 194 Z " /><path fill="rgb(60,54,44)" stroke="rgb(60,54,44)" stroke-width="1" opacity="1" d="M 134.5 44 L 137 44.5 L 134.5 45 L 134.5 44 Z " /><path fill="rgb(60,54,44)" stroke="rgb(60,54,44)" stroke-width="1" opacity="1" d="M 127.5 45 L 130 45.5 L 127.5 46 L 127.5 45 Z " /><path fill="rgb(60,54,44)" stroke="rgb(60,54,44)" stroke-width="1" opacity="1" d="M 160.5 45 L 163 46.5 L 161.5 46 L 160.5 45 Z " /><path fill="rgb(60,54,44)" stroke="rgb(60,54,44)" stroke-width="1" opacity="1" d="M 122.5 46 L 124 46.5 L 123 48.5 L 126.5 55 L 138.5 52 L 162.5 49 L 164 50.5 L 165 66.5 L 162 72.5 L 157 97.5 L 152.5 102 Q 150.3 101.3 151 103.5 L 138 131.5 L 138.5 133 L 126 136 L 136 117.5 L 139 101.5 L 136.5 98 L 118 90.5 L 118 59.5 Q 115.5 58 117 52.5 L 119.5 47 L 122.5 46 Z " /><path fill="rgb(60,54,44)" stroke="rgb(60,54,44)" stroke-width="1" opacity="1" d="M 164.5 75 L 165 79.5 L 164 79.5 L 164.5 75 Z " /><path fill="rgb(60,54,44)" stroke="rgb(60,54,44)" stroke-width="1" opacity="1" d="M 112.5 80 L 113 85.5 L 112 85.5 L 112.5 80 Z " /><path fill="rgb(60,54,44)" stroke="rgb(60,54,44)" stroke-width="1" opacity="1" d="M 163.5 84 L 164 87.5 L 163 87.5 L 163.5 84 Z " /><path fill="rgb(60,54,44)" stroke="rgb(60,54,44)" stroke-width="1" opacity="1" d="M 54.5 101 L 53.5 103 L 54.5 101 Z " /><path fill="rgb(60,54,44)" stroke="rgb(60,54,44)" stroke-width="1" opacity="1" d="M 63.5 103 Q 66.8 106.2 66 113.5 Q 64.2 121.1 58.5 125 Q 52.2 130.7 38.5 129 L 36 127.5 L 48.5 113 L 63.5 103 Z M 58 111 L 53 114 L 44 124 L 44 126 Q 51 127 55 124 L 60 119 L 61 115 L 60 113 Q 61 110 58 111 Z " /><path fill="rgb(60,54,44)" stroke="rgb(60,54,44)" stroke-width="1" opacity="1" d="M 45.5 108 L 43.5 111 L 45.5 108 Z " /><path fill="rgb(60,54,44)" stroke="rgb(60,54,44)" stroke-width="1" opacity="1" d="M 35.5 118 L 34.5 120 L 35.5 118 Z " /><path fill="rgb(60,54,44)" stroke="rgb(60,54,44)" stroke-width="1" opacity="1" d="M 152.5 122 L 151.5 124 L 152.5 122 Z " /><path fill="rgb(60,54,44)" stroke="rgb(60,54,44)" stroke-width="1" opacity="1" d="M 144.5 136 L 148 137.5 L 146.5 137 Q 143.5 137.5 144.5 136 Z " /><path fill="rgb(60,54,44)" stroke="rgb(60,54,44)" stroke-width="1" opacity="1" d="M 29.5 142 L 30.5 144 L 29.5 142 Z " /><path fill="rgb(60,54,44)" stroke="rgb(60,54,44)" stroke-width="1" opacity="1" d="M 36.5 149 L 37.5 151 L 36.5 149 Z " /><path fill="rgb(60,54,44)" stroke="rgb(60,54,44)" stroke-width="1" opacity="1" d="M 111.5 151 L 110.5 153 L 111.5 151 Z " /><path fill="rgb(60,54,44)" stroke="rgb(60,54,44)" stroke-width="1" opacity="1" d="M 105.5 155 L 102.5 159 L 105.5 155 Z " /><path fill="rgb(60,54,44)" stroke="rgb(60,54,44)" stroke-width="1" opacity="1" d="M 81.5 158 L 83 158.5 L 79.5 160 L 79.5 159 L 81.5 158 Z " /><path fill="rgb(60,54,44)" stroke="rgb(60,54,44)" stroke-width="1" opacity="1" d="M 108.5 160 L 107.5 162 L 108.5 160 Z " /><path fill="rgb(60,54,44)" stroke="rgb(60,54,44)" stroke-width="1" opacity="1" d="M 100.5 161 L 99.5 163 L 100.5 161 Z " /><path fill="rgb(60,54,44)" stroke="rgb(60,54,44)" stroke-width="1" opacity="1" d="M 59.5 167 L 58.5 169 L 59.5 167 Z " /><path fill="rgb(60,54,44)" stroke="rgb(60,54,44)" stroke-width="1" opacity="1" d="M 95.5 172 L 96 176.5 L 95 176.5 L 95.5 172 Z " /><path fill="rgb(60,54,44)" stroke="rgb(60,54,44)" stroke-width="1" opacity="1" d="M 93.5 178 L 92.5 180 L 93.5 178 Z " /><path fill="rgb(60,54,44)" stroke="rgb(60,54,44)" stroke-width="1" opacity="1" d="M 90.5 180 L 89.5 182 L 90.5 180 Z " /><path fill="rgb(60,54,44)" stroke="rgb(60,54,44)" stroke-width="1" opacity="1" d="M 86.5 183 L 85.5 185 L 86.5 183 Z " /><path fill="rgb(60,54,44)" stroke="rgb(60,54,44)" stroke-width="1" opacity="1" d="M 83.5 185 L 81.5 188 L 83.5 185 Z " /><path fill="rgb(60,54,44)" stroke="rgb(60,54,44)" stroke-width="1" opacity="1" d="M 167.5 185 L 173 185.5 L 167.5 186 L 167.5 185 Z " /><path fill="rgb(60,54,44)" stroke="rgb(60,54,44)" stroke-width="1" opacity="1" d="M 79.5 188 L 76.5 192 L 79.5 188 Z " /><path fill="rgb(60,54,44)" stroke="rgb(60,54,44)" stroke-width="1" opacity="1" d="M 85.5 191 L 84.5 193 L 85.5 191 Z " /><path fill="rgb(60,54,44)" stroke="rgb(60,54,44)" stroke-width="1" opacity="1" d="M 165.5 191 L 172 191.5 L 169 193.5 L 166.5 200 L 140 199.5 L 148.5 195 L 165.5 191 Z " /><path fill="rgb(60,54,44)" stroke="rgb(60,54,44)" stroke-width="1" opacity="1" d="M 174.5 191 L 175.5 193 L 174.5 191 Z " /><path fill="rgb(60,54,44)" stroke="rgb(60,54,44)" stroke-width="1" opacity="1" d="M 74.5 192 L 71.5 196 L 74.5 192 Z " /><path fill="rgb(60,54,44)" stroke="rgb(60,54,44)" stroke-width="1" opacity="1" d="M 76.5 198 L 75.5 200 L 76.5 198 Z " /><path fill="rgb(85,78,61)" stroke="rgb(85,78,61)" stroke-width="1" opacity="1" d="M 137.5 44 L 155.5 44 L 163 47.5 Q 163.8 49.8 161.5 49 L 160.5 50 L 138.5 52 L 126.5 55 L 123 47.5 L 124.5 46 L 136.5 45 L 137.5 44 Z " /><path fill="rgb(85,78,61)" stroke="rgb(85,78,61)" stroke-width="1" opacity="1" d="M 164.5 67 L 165 74.5 L 164 75.5 L 163 91.5 L 159 107.5 L 153 121.5 L 147.5 129 L 138 132 L 151 102 L 157 97.5 L 162 72.5 L 164.5 67 Z " /><path fill="rgb(85,78,61)" stroke="rgb(85,78,61)" stroke-width="1" opacity="1" d="M 112.5 90 L 113 93.5 L 112 93.5 L 112.5 90 Z " /><path fill="rgb(85,78,61)" stroke="rgb(85,78,61)" stroke-width="1" opacity="1" d="M 39.5 113 L 37.5 116 L 39.5 113 Z " /><path fill="rgb(85,78,61)" stroke="rgb(85,78,61)" stroke-width="1" opacity="1" d="M 52.5 114 L 47.5 120 L 52.5 114 Z " /><path fill="rgb(85,78,61)" stroke="rgb(85,78,61)" stroke-width="1" opacity="1" d="M 31.5 144 L 35.5 149 L 31.5 144 Z " /><path fill="rgb(85,78,61)" stroke="rgb(85,78,61)" stroke-width="1" opacity="1" d="M 101.5 181 L 102 184.5 L 101 184.5 L 101.5 181 Z " /><path fill="rgb(85,78,61)" stroke="rgb(85,78,61)" stroke-width="1" opacity="1" d="M 91.5 187 L 90.5 189 L 91.5 187 Z " /><path fill="rgb(85,78,61)" stroke="rgb(85,78,61)" stroke-width="1" opacity="1" d="M 87.5 190 L 86.5 192 L 87.5 190 Z " /><path fill="rgb(85,78,61)" stroke="rgb(85,78,61)" stroke-width="1" opacity="1" d="M 172.5 191 L 176 193.5 L 178 200 L 167 199.5 L 170.5 192 L 172.5 191 Z " /><path fill="rgb(85,78,61)" stroke="rgb(85,78,61)" stroke-width="1" opacity="1" d="M 83.5 193 L 82.5 195 L 83.5 193 Z " /><path fill="rgb(85,78,61)" stroke="rgb(85,78,61)" stroke-width="1" opacity="1" d="M 79.5 196 L 77.5 199 L 79.5 196 Z " /><path fill="rgb(85,78,61)" stroke="rgb(85,78,61)" stroke-width="1" opacity="1" d="M 133.5 196 L 131.5 199 L 133.5 196 Z " /><path fill="rgb(27,22,17)" stroke="rgb(27,22,17)" stroke-width="1" opacity="1" d="M 107.5 39 L 111 39.5 L 107.5 40 L 107.5 39 Z " /><path fill="rgb(27,22,17)" stroke="rgb(27,22,17)" stroke-width="1" opacity="1" d="M 131.5 44 L 134 44.5 L 131.5 45 L 131.5 44 Z " /><path fill="rgb(27,22,17)" stroke="rgb(27,22,17)" stroke-width="1" opacity="1" d="M 118.5 47 L 118 48.5 L 117.5 52 L 117 48.5 L 118.5 47 Z " /><path fill="rgb(27,22,17)" stroke="rgb(27,22,17)" stroke-width="1" opacity="1" d="M 164.5 54 L 165 57.5 L 164 57.5 L 164.5 54 Z " /><path fill="rgb(27,22,17)" stroke="rgb(27,22,17)" stroke-width="1" opacity="1" d="M 61.5 57 L 60.5 59 L 61.5 57 Z " /><path fill="rgb(27,22,17)" stroke="rgb(27,22,17)" stroke-width="1" opacity="1" d="M 117.5 59 L 118 78.5 L 117 78.5 L 117.5 59 Z " /><path fill="rgb(27,22,17)" stroke="rgb(27,22,17)" stroke-width="1" opacity="1" d="M 56.5 61 L 47.5 71 L 56.5 61 Z " /><path fill="rgb(27,22,17)" stroke="rgb(27,22,17)" stroke-width="1" opacity="1" d="M 165.5 65 L 166 74.5 L 165 74.5 L 165.5 65 Z " /><path fill="rgb(27,22,17)" stroke="rgb(27,22,17)" stroke-width="1" opacity="1" d="M 112.5 72 L 113 79.5 L 112 79.5 L 112.5 72 Z " /><path fill="rgb(27,22,17)" stroke="rgb(27,22,17)" stroke-width="1" opacity="1" d="M 43.5 75 L 42.5 77 L 43.5 75 Z " /><path fill="rgb(27,22,17)" stroke="rgb(27,22,17)" stroke-width="1" opacity="1" d="M 164.5 80 L 165 82.5 L 164 82.5 L 164.5 80 Z " /><path fill="rgb(27,22,17)" stroke="rgb(27,22,17)" stroke-width="1" opacity="1" d="M 112.5 86 L 113 88.5 L 112 88.5 L 112.5 86 Z " /><path fill="rgb(27,22,17)" stroke="rgb(27,22,17)" stroke-width="1" opacity="1" d="M 35.5 87 L 34.5 89 L 35.5 87 Z " /><path fill="rgb(27,22,17)" stroke="rgb(27,22,17)" stroke-width="1" opacity="1" d="M 163.5 88 L 164 90.5 L 163 90.5 L 163.5 88 Z " /><path fill="rgb(27,22,17)" stroke="rgb(27,22,17)" stroke-width="1" opacity="1" d="M 113.5 94 L 114.5 96 L 113.5 94 Z " /><path fill="rgb(27,22,17)" stroke="rgb(27,22,17)" stroke-width="1" opacity="1" d="M 162.5 94 L 163 96.5 L 162 96.5 L 162.5 94 Z " /><path fill="rgb(27,22,17)" stroke="rgb(27,22,17)" stroke-width="1" opacity="1" d="M 136.5 98 L 137.5 100 L 136.5 98 Z " /><path fill="rgb(27,22,17)" stroke="rgb(27,22,17)" stroke-width="1" opacity="1" d="M 56.5 100 L 55.5 102 L 56.5 100 Z " /><path fill="rgb(27,22,17)" stroke="rgb(27,22,17)" stroke-width="1" opacity="1" d="M 138.5 101 L 139 104.5 L 138 104.5 L 138.5 101 Z " /><path fill="rgb(27,22,17)" stroke="rgb(27,22,17)" stroke-width="1" opacity="1" d="M 63.5 102 L 65 104.5 L 64 104.5 L 63.5 103 L 61.5 104 L 61.5 103 L 63.5 102 Z " /><path fill="rgb(27,22,17)" stroke="rgb(27,22,17)" stroke-width="1" opacity="1" d="M 59.5 104 L 58.5 106 L 59.5 104 Z " /><path fill="rgb(27,22,17)" stroke="rgb(27,22,17)" stroke-width="1" opacity="1" d="M 48.5 106 L 47.5 108 L 48.5 106 Z " /><path fill="rgb(27,22,17)" stroke="rgb(27,22,17)" stroke-width="1" opacity="1" d="M 56.5 106 L 53.5 110 L 49.5 113 L 52.5 109 L 56.5 106 Z " /><path fill="rgb(27,22,17)" stroke="rgb(27,22,17)" stroke-width="1" opacity="1" d="M 137.5 107 L 138 110.5 L 137 110.5 L 137.5 107 Z " /><path fill="rgb(27,22,17)" stroke="rgb(27,22,17)" stroke-width="1" opacity="1" d="M 42.5 111 L 36.5 118 L 42.5 111 Z " /><path fill="rgb(27,22,17)" stroke="rgb(27,22,17)" stroke-width="1" opacity="1" d="M 136.5 112 L 137 114.5 L 136 114.5 L 136.5 112 Z " /><path fill="rgb(27,22,17)" stroke="rgb(27,22,17)" stroke-width="1" opacity="1" d="M 46.5 114 L 39 122.5 L 36.5 127 L 36 125.5 L 46.5 114 Z " /><path fill="rgb(27,22,17)" stroke="rgb(27,22,17)" stroke-width="1" opacity="1" d="M 64.5 117 L 65 118.5 L 63 119.5 L 64.5 117 Z " /><path fill="rgb(27,22,17)" stroke="rgb(27,22,17)" stroke-width="1" opacity="1" d="M 23.5 120 L 24 124.5 L 23 124.5 L 23.5 120 Z " /><path fill="rgb(27,22,17)" stroke="rgb(27,22,17)" stroke-width="1" opacity="1" d="M 62.5 121 L 59.5 125 L 62.5 121 Z " /><path fill="rgb(27,22,17)" stroke="rgb(27,22,17)" stroke-width="1" opacity="1" d="M 152.5 123 L 151.5 125 L 152.5 123 Z " /><path fill="rgb(27,22,17)" stroke="rgb(27,22,17)" stroke-width="1" opacity="1" d="M 57.5 125 L 56.5 127 L 55 126.5 L 57.5 125 Z " /><path fill="rgb(27,22,17)" stroke="rgb(27,22,17)" stroke-width="1" opacity="1" d="M 65.5 125 L 63.5 128 L 65.5 125 Z " /><path fill="rgb(27,22,17)" stroke="rgb(27,22,17)" stroke-width="1" opacity="1" d="M 131.5 125 L 131 126.5 L 129.5 129 L 130 127.5 L 131.5 125 Z " /><path fill="rgb(27,22,17)" stroke="rgb(27,22,17)" stroke-width="1" opacity="1" d="M 150.5 126 L 149.5 128 L 150.5 126 Z " /><path fill="rgb(27,22,17)" stroke="rgb(27,22,17)" stroke-width="1" opacity="1" d="M 124.5 127 L 123.5 129 L 124.5 127 Z " /><path fill="rgb(27,22,17)" stroke="rgb(27,22,17)" stroke-width="1" opacity="1" d="M 39.5 129 L 49 129.5 L 39.5 130 L 39.5 129 Z " /><path fill="rgb(27,22,17)" stroke="rgb(27,22,17)" stroke-width="1" opacity="1" d="M 128.5 130 L 128 131.5 L 126.5 134 L 127 132.5 L 128.5 130 Z " /><path fill="rgb(27,22,17)" stroke="rgb(27,22,17)" stroke-width="1" opacity="1" d="M 39.5 134 L 48 134.5 L 39.5 135 L 39.5 134 Z " /><path fill="rgb(27,22,17)" stroke="rgb(27,22,17)" stroke-width="1" opacity="1" d="M 131.5 134 L 134 134.5 L 131.5 135 L 131.5 134 Z " /><path fill="rgb(27,22,17)" stroke="rgb(27,22,17)" stroke-width="1" opacity="1" d="M 119.5 135 L 118.5 137 L 119.5 135 Z " /><path fill="rgb(27,22,17)" stroke="rgb(27,22,17)" stroke-width="1" opacity="1" d="M 117.5 138 L 115.5 141 L 117.5 138 Z " /><path fill="rgb(27,22,17)" stroke="rgb(27,22,17)" stroke-width="1" opacity="1" d="M 148.5 138 L 151 142 L 145 141.5 L 150 140.5 L 148.5 138 Z " /><path fill="rgb(27,22,17)" stroke="rgb(27,22,17)" stroke-width="1" opacity="1" d="M 27.5 140 L 28.5 142 L 27.5 140 Z " /><path fill="rgb(27,22,17)" stroke="rgb(27,22,17)" stroke-width="1" opacity="1" d="M 144.5 146 L 150 146.5 L 144.5 147 L 144.5 146 Z " /><path fill="rgb(27,22,17)" stroke="rgb(27,22,17)" stroke-width="1" opacity="1" d="M 151.5 146 L 155 146.5 L 151.5 147 L 151.5 146 Z " /><path fill="rgb(27,22,17)" stroke="rgb(27,22,17)" stroke-width="1" opacity="1" d="M 112.5 151 L 114 151.5 L 111.5 153 L 112.5 151 Z " /><path fill="rgb(27,22,17)" stroke="rgb(27,22,17)" stroke-width="1" opacity="1" d="M 169.5 152 L 171.5 155 L 169.5 152 Z " /><path fill="rgb(27,22,17)" stroke="rgb(27,22,17)" stroke-width="1" opacity="1" d="M 107.5 154 L 101.5 161 L 107.5 154 Z " /><path fill="rgb(27,22,17)" stroke="rgb(27,22,17)" stroke-width="1" opacity="1" d="M 110.5 158 L 109.5 160 L 110.5 158 Z " /><path fill="rgb(27,22,17)" stroke="rgb(27,22,17)" stroke-width="1" opacity="1" d="M 100.5 162 L 99.5 164 L 100.5 162 Z " /><path fill="rgb(27,22,17)" stroke="rgb(27,22,17)" stroke-width="1" opacity="1" d="M 106.5 162 L 104.5 165 L 106.5 162 Z " /><path fill="rgb(27,22,17)" stroke="rgb(27,22,17)" stroke-width="1" opacity="1" d="M 54.5 175 L 53.5 177 L 54.5 175 Z " /><path fill="rgb(27,22,17)" stroke="rgb(27,22,17)" stroke-width="1" opacity="1" d="M 95.5 177 L 94.5 179 L 95.5 177 Z " /><path fill="rgb(27,22,17)" stroke="rgb(27,22,17)" stroke-width="1" opacity="1" d="M 179.5 178 L 180 181.5 L 179 181.5 L 179.5 178 Z " /><path fill="rgb(27,22,17)" stroke="rgb(27,22,17)" stroke-width="1" opacity="1" d="M 91.5 180 L 90.5 182 L 91.5 180 Z " /><path fill="rgb(27,22,17)" stroke="rgb(27,22,17)" stroke-width="1" opacity="1" d="M 88.5 182 L 86.5 185 L 88.5 182 Z " /><path fill="rgb(27,22,17)" stroke="rgb(27,22,17)" stroke-width="1" opacity="1" d="M 94.5 184 L 93.5 186 L 94.5 184 Z " /><path fill="rgb(27,22,17)" stroke="rgb(27,22,17)" stroke-width="1" opacity="1" d="M 84.5 185 L 83.5 187 L 84.5 185 Z " /><path fill="rgb(27,22,17)" stroke="rgb(27,22,17)" stroke-width="1" opacity="1" d="M 96.5 185 L 97 187.5 L 96 187.5 L 96.5 185 Z " /><path fill="rgb(27,22,17)" stroke="rgb(27,22,17)" stroke-width="1" opacity="1" d="M 90.5 187 L 89.5 189 L 90.5 187 Z " /><path fill="rgb(27,22,17)" stroke="rgb(27,22,17)" stroke-width="1" opacity="1" d="M 80.5 188 L 78.5 191 L 80.5 188 Z " /><path fill="rgb(27,22,17)" stroke="rgb(27,22,17)" stroke-width="1" opacity="1" d="M 87.5 189 L 86.5 191 L 87.5 189 Z " /><path fill="rgb(27,22,17)" stroke="rgb(27,22,17)" stroke-width="1" opacity="1" d="M 161.5 191 L 165 191.5 L 161.5 192 L 161.5 191 Z " /><path fill="rgb(27,22,17)" stroke="rgb(27,22,17)" stroke-width="1" opacity="1" d="M 75.5 192 L 73.5 195 L 75.5 192 Z " /><path fill="rgb(27,22,17)" stroke="rgb(27,22,17)" stroke-width="1" opacity="1" d="M 83.5 192 L 81.5 195 L 83.5 192 Z " /><path fill="rgb(27,22,17)" stroke="rgb(27,22,17)" stroke-width="1" opacity="1" d="M 156.5 192 L 159 192.5 L 156.5 193 L 156.5 192 Z " /><path fill="rgb(27,22,17)" stroke="rgb(27,22,17)" stroke-width="1" opacity="1" d="M 70.5 196 L 68.5 199 L 70.5 196 Z " /><path fill="rgb(27,22,17)" stroke="rgb(27,22,17)" stroke-width="1" opacity="1" d="M 78.5 196 L 77.5 198 L 78.5 196 Z " /><path fill="rgb(27,22,17)" stroke="rgb(27,22,17)" stroke-width="1" opacity="1" d="M 144.5 196 L 146 196.5 L 138.5 200 L 138.5 199 L 144.5 196 Z " /><path fill="rgb(179,160,113)" stroke="rgb(179,160,113)" stroke-width="1" opacity="1" d="M 107.5 41 L 111 41.5 L 111 93.5 L 114 99.5 L 113 104 L 131.5 104 L 132 105.5 L 131 110.5 L 127.5 115 Q 115.5 122 106.5 132 Q 102.5 128.3 96 128 Q 96.9 135.1 93.5 139 L 86 139.5 L 88 143.5 L 85.5 146 L 69.5 153 L 64.5 158 L 57.5 160 L 51 157.5 L 51.5 156 Q 44.4 155.2 42 149.5 L 39 139.5 L 40.5 138 L 53.5 137 L 68 128.5 L 74 115.5 L 74 110.5 L 72 103 Q 69.3 104.1 70 101.5 L 72 101.5 Q 72.8 99.3 70.5 100 L 69 97 Q 66.9 95.4 61.5 96 Q 46.7 103.7 36 115.5 L 33.5 119 L 33 116.5 Q 35.7 114.2 35 108.5 L 41 98.5 L 60.5 76 L 66 76.5 Q 63.3 78.8 64 84.5 L 66.5 86 L 72.5 84 L 75 81.5 L 73 72.5 L 78 66.5 Q 75.4 65.1 76 60.5 L 81.5 54 L 85.5 57 L 88.5 57 Q 93.5 51.9 101 51 L 99 46.5 L 103.5 43 L 108 44 L 107.5 41 Z M 96 61 L 93 66 L 97 67 L 99 63 L 96 61 Z M 88 74 L 82 81 Q 80 87 88 84 L 92 77 Q 92 74 88 74 Z M 47 152 L 48 154 Q 49 151 47 152 Z " /><path fill="rgb(179,160,113)" stroke="rgb(179,160,113)" stroke-width="1" opacity="1" d="M 61.5 58 L 60.5 60 L 61.5 58 Z " /><path fill="rgb(179,160,113)" stroke="rgb(179,160,113)" stroke-width="1" opacity="1" d="M 55.5 63 L 50.5 69 L 55.5 63 Z " /><path fill="rgb(179,160,113)" stroke="rgb(179,160,113)" stroke-width="1" opacity="1" d="M 39.5 135 L 44 135.5 L 39.5 136 L 39.5 135 Z " /><path fill="rgb(179,160,113)" stroke="rgb(179,160,113)" stroke-width="1" opacity="1" d="M 32.5 144 L 35.5 148 L 32.5 144 Z " /><path fill="rgb(179,160,113)" stroke="rgb(179,160,113)" stroke-width="1" opacity="1" d="M 145.5 147 L 150 147.5 L 145.5 148 L 145.5 147 Z " /><path fill="rgb(179,160,113)" stroke="rgb(179,160,113)" stroke-width="1" opacity="1" d="M 151.5 147 L 154 147.5 L 151.5 148 L 151.5 147 Z " /><path fill="rgb(179,160,113)" stroke="rgb(179,160,113)" stroke-width="1" opacity="1" d="M 147.5 150 L 151.5 150 L 162 154.5 Q 160.9 157.8 163.5 157 Q 164.8 159.3 169.5 158 L 172 156.5 L 175 163.5 L 178 179 L 156.5 179 L 152.5 180 Q 134.3 185.3 122.5 197 L 127.5 190 L 123 189 Q 123.4 182.8 128 179.5 Q 123.8 175.5 117 175 L 119 166 Q 123.5 167.7 131.5 167 L 134 166 Q 135 159.8 132 156.5 L 147.5 150 Z M 146 156 L 141 158 Q 138 159 139 164 L 142 165 L 146 165 L 151 160 L 150 158 Q 151 154 146 156 Z M 138 168 L 135 169 L 137 172 Q 141 174 140 170 L 138 168 Z " /><path fill="rgb(179,160,113)" stroke="rgb(179,160,113)" stroke-width="1" opacity="1" d="M 95.5 192 L 100 199.5 L 90 200 L 95.5 192 Z " /><path fill="rgb(149,136,105)" stroke="rgb(149,136,105)" stroke-width="1" opacity="1" d="M 111.5 42 L 112 50.5 L 111 50.5 L 111.5 42 Z " /><path fill="rgb(149,136,105)" stroke="rgb(149,136,105)" stroke-width="1" opacity="1" d="M 111.5 58 L 112 83.5 L 111 83.5 L 111.5 58 Z " /><path fill="rgb(149,136,105)" stroke="rgb(149,136,105)" stroke-width="1" opacity="1" d="M 57.5 61 L 56.5 63 L 57.5 61 Z " /><path fill="rgb(149,136,105)" stroke="rgb(149,136,105)" stroke-width="1" opacity="1" d="M 49.5 69 L 48.5 71 L 49.5 69 Z " /><path fill="rgb(149,136,105)" stroke="rgb(149,136,105)" stroke-width="1" opacity="1" d="M 111.5 85 L 112 88.5 L 111 88.5 L 111.5 85 Z " /><path fill="rgb(149,136,105)" stroke="rgb(149,136,105)" stroke-width="1" opacity="1" d="M 45.5 107 L 43.5 110 L 45.5 107 Z " /><path fill="rgb(149,136,105)" stroke="rgb(149,136,105)" stroke-width="1" opacity="1" d="M 130.5 111 L 131 112.5 Q 124.9 128.4 114.5 140 L 66.5 157 L 64.5 159 L 69.5 153 L 85.5 146 L 88 143.5 L 86 139.5 L 93.5 139 L 95 137.5 L 96 128 Q 102.5 128.3 106.5 132 L 130 112.5 L 130.5 111 Z " /><path fill="rgb(149,136,105)" stroke="rgb(149,136,105)" stroke-width="1" opacity="1" d="M 35.5 117 L 33.5 120 L 35.5 117 Z " /><path fill="rgb(149,136,105)" stroke="rgb(149,136,105)" stroke-width="1" opacity="1" d="M 65.5 126 L 64.5 128 L 65.5 126 Z " /><path fill="rgb(149,136,105)" stroke="rgb(149,136,105)" stroke-width="1" opacity="1" d="M 176.5 168 L 177 170.5 L 176 170.5 L 176.5 168 Z " /><path fill="rgb(149,136,105)" stroke="rgb(149,136,105)" stroke-width="1" opacity="1" d="M 178.5 177 L 179 179.5 L 178 183 L 172.5 185 L 155.5 186 Q 141 189.7 131 197 L 129.5 200 L 122.5 200 L 122 197.5 Q 133.9 185.4 152.5 180 L 156.5 179 L 178 179 L 178.5 177 Z " /><path fill="rgb(149,136,105)" stroke="rgb(149,136,105)" stroke-width="1" opacity="1" d="M 95.5 191 L 97 191.5 L 93.5 194 L 95.5 191 Z " /><path fill="rgb(149,136,105)" stroke="rgb(149,136,105)" stroke-width="1" opacity="1" d="M 91.5 196 L 88.5 200 L 91.5 196 Z " /><path fill="rgb(0,0,0)" stroke="rgb(0,0,0)" stroke-width="1" opacity="0.43137254901960786" d="M 106.5 34 L 113 34.5 L 106.5 35 L 106.5 34 Z " /><path fill="rgb(0,0,0)" stroke="rgb(0,0,0)" stroke-width="1" opacity="0.43137254901960786" d="M 114.5 35 L 117 38.5 L 116 38.5 L 114.5 35 Z " /><path fill="rgb(0,0,0)" stroke="rgb(0,0,0)" stroke-width="1" opacity="0.43137254901960786" d="M 137.5 38 L 156 38.5 L 137.5 39 L 137.5 38 Z " /><path fill="rgb(0,0,0)" stroke="rgb(0,0,0)" stroke-width="1" opacity="0.43137254901960786" d="M 128.5 39 L 131 39.5 L 128.5 40 L 128.5 39 Z " /><path fill="rgb(0,0,0)" stroke="rgb(0,0,0)" stroke-width="1" opacity="0.43137254901960786" d="M 163.5 40 L 168 43.5 L 164.5 41 L 163.5 40 Z " /><path fill="rgb(0,0,0)" stroke="rgb(0,0,0)" stroke-width="1" opacity="0.43137254901960786" d="M 117.5 41 L 120 41.5 L 117.5 42 L 117.5 41 Z " /><path fill="rgb(0,0,0)" stroke="rgb(0,0,0)" stroke-width="1" opacity="0.43137254901960786" d="M 65.5 48 L 64.5 50 L 65.5 48 Z " /><path fill="rgb(0,0,0)" stroke="rgb(0,0,0)" stroke-width="1" opacity="0.43137254901960786" d="M 62.5 50 L 61.5 52 L 62.5 50 Z " /><path fill="rgb(0,0,0)" stroke="rgb(0,0,0)" stroke-width="1" opacity="0.43137254901960786" d="M 169.5 50 L 170 53.5 L 169 53.5 L 169.5 50 Z " /><path fill="rgb(0,0,0)" stroke="rgb(0,0,0)" stroke-width="1" opacity="0.43137254901960786" d="M 59.5 52 L 57.5 55 L 59.5 52 Z " /><path fill="rgb(0,0,0)" stroke="rgb(0,0,0)" stroke-width="1" opacity="0.43137254901960786" d="M 54.5 56 L 42.5 69 L 54.5 56 Z " /><path fill="rgb(0,0,0)" stroke="rgb(0,0,0)" stroke-width="1" opacity="0.43137254901960786" d="M 170.5 58 L 171 62.5 L 170 62.5 L 170.5 58 Z " /><path fill="rgb(0,0,0)" stroke="rgb(0,0,0)" stroke-width="1" opacity="0.43137254901960786" d="M 40.5 71 L 38.5 74 L 40.5 71 Z " /><path fill="rgb(0,0,0)" stroke="rgb(0,0,0)" stroke-width="1" opacity="0.43137254901960786" d="M 170.5 75 L 171 78.5 L 170 78.5 L 170.5 75 Z " /><path fill="rgb(0,0,0)" stroke="rgb(0,0,0)" stroke-width="1" opacity="0.43137254901960786" d="M 36.5 76 L 35.5 78 L 36.5 76 Z " /><path fill="rgb(0,0,0)" stroke="rgb(0,0,0)" stroke-width="1" opacity="0.43137254901960786" d="M 34.5 79 L 33.5 81 L 34.5 79 Z " /><path fill="rgb(0,0,0)" stroke="rgb(0,0,0)" stroke-width="1" opacity="0.43137254901960786" d="M 169.5 83 L 170 86.5 L 169 86.5 L 169.5 83 Z " /><path fill="rgb(0,0,0)" stroke="rgb(0,0,0)" stroke-width="1" opacity="0.43137254901960786" d="M 31.5 84 L 30.5 86 L 31.5 84 Z " /><path fill="rgb(0,0,0)" stroke="rgb(0,0,0)" stroke-width="1" opacity="0.43137254901960786" d="M 168.5 91 L 169 93.5 L 168 93.5 L 168.5 91 Z " /><path fill="rgb(0,0,0)" stroke="rgb(0,0,0)" stroke-width="1" opacity="0.43137254901960786" d="M 18.5 119 L 19 126.5 L 18 126.5 L 18.5 119 Z " /><path fill="rgb(0,0,0)" stroke="rgb(0,0,0)" stroke-width="1" opacity="0.43137254901960786" d="M 156.5 127 L 155.5 129 L 156.5 127 Z " /><path fill="rgb(0,0,0)" stroke="rgb(0,0,0)" stroke-width="1" opacity="0.43137254901960786" d="M 19.5 131 L 20 133.5 L 19 133.5 L 19.5 131 Z " /><path fill="rgb(0,0,0)" stroke="rgb(0,0,0)" stroke-width="1" opacity="0.43137254901960786" d="M 153.5 131 L 152.5 133 L 153.5 131 Z " /><path fill="rgb(0,0,0)" stroke="rgb(0,0,0)" stroke-width="1" opacity="0.43137254901960786" d="M 20.5 136 L 21 138.5 L 20 138.5 L 20.5 136 Z " /><path fill="rgb(0,0,0)" stroke="rgb(0,0,0)" stroke-width="1" opacity="0.43137254901960786" d="M 154.5 137 L 155.5 139 L 154.5 137 Z " /><path fill="rgb(0,0,0)" stroke="rgb(0,0,0)" stroke-width="1" opacity="0.43137254901960786" d="M 156.5 140 L 157.5 142 L 156.5 140 Z " /><path fill="rgb(0,0,0)" stroke="rgb(0,0,0)" stroke-width="1" opacity="0.43137254901960786" d="M 22.5 142 L 24.5 145 L 22.5 142 Z " /><path fill="rgb(0,0,0)" stroke="rgb(0,0,0)" stroke-width="1" opacity="0.43137254901960786" d="M 169.5 145 L 171.5 148 L 169.5 145 Z " /><path fill="rgb(0,0,0)" stroke="rgb(0,0,0)" stroke-width="1" opacity="0.43137254901960786" d="M 27.5 148 L 31.5 153 L 27.5 148 Z " /><path fill="rgb(0,0,0)" stroke="rgb(0,0,0)" stroke-width="1" opacity="0.43137254901960786" d="M 174.5 150 L 176.5 153 L 174.5 150 Z " /><path fill="rgb(0,0,0)" stroke="rgb(0,0,0)" stroke-width="1" opacity="0.43137254901960786" d="M 34.5 154 L 36.5 157 L 34.5 154 Z " /><path fill="rgb(0,0,0)" stroke="rgb(0,0,0)" stroke-width="1" opacity="0.43137254901960786" d="M 177.5 154 L 180 158.5 L 179 158.5 L 177.5 154 Z " /><path fill="rgb(0,0,0)" stroke="rgb(0,0,0)" stroke-width="1" opacity="0.43137254901960786" d="M 39.5 158 L 40.5 160 L 39.5 158 Z " /><path fill="rgb(0,0,0)" stroke="rgb(0,0,0)" stroke-width="1" opacity="0.43137254901960786" d="M 42.5 160 L 46 162.5 L 44.5 162 L 42.5 160 Z " /><path fill="rgb(0,0,0)" stroke="rgb(0,0,0)" stroke-width="1" opacity="0.43137254901960786" d="M 51.5 169 L 51 170.5 L 49.5 173 L 50 171.5 L 51.5 169 Z " /><path fill="rgb(0,0,0)" stroke="rgb(0,0,0)" stroke-width="1" opacity="0.43137254901960786" d="M 184.5 176 L 185 183.5 L 184 183.5 L 184.5 176 Z " /><path fill="rgb(0,0,0)" stroke="rgb(0,0,0)" stroke-width="1" opacity="0.43137254901960786" d="M 183.5 185 L 181 188.5 L 182 191.5 L 180 190.5 Q 179.5 185.5 183.5 185 Z " /><path fill="rgb(0,0,0)" stroke="rgb(0,0,0)" stroke-width="1" opacity="0.03137254901960784" d="M 139.5 37 L 156 37.5 L 139.5 38 L 139.5 37 Z " /><path fill="rgb(0,0,0)" stroke="rgb(0,0,0)" stroke-width="1" opacity="0.03137254901960784" d="M 59.5 51 L 58.5 53 L 59.5 51 Z " /><path fill="rgb(0,0,0)" stroke="rgb(0,0,0)" stroke-width="1" opacity="0.03137254901960784" d="M 170.5 51 L 171 53.5 L 170 53.5 L 170.5 51 Z " /><path fill="rgb(0,0,0)" stroke="rgb(0,0,0)" stroke-width="1" opacity="0.03137254901960784" d="M 41.5 68 L 40.5 70 L 41.5 68 Z " /><path fill="rgb(0,0,0)" stroke="rgb(0,0,0)" stroke-width="1" opacity="0.03137254901960784" d="M 17.5 120 L 18 124.5 L 17 124.5 L 17.5 120 Z " /><path fill="rgb(0,0,0)" stroke="rgb(0,0,0)" stroke-width="1" opacity="0.03137254901960784" d="M 155.5 130 L 154.5 132 L 155.5 130 Z " /><path fill="rgb(0,0,0)" stroke="rgb(0,0,0)" stroke-width="1" opacity="0.03137254901960784" d="M 25.5 147 L 30.5 153 L 25.5 147 Z " /><path fill="rgb(0,0,0)" stroke="rgb(0,0,0)" stroke-width="1" opacity="0.03137254901960784" d="M 39.5 159 L 40.5 161 L 39.5 159 Z " /><path fill="rgb(0,0,0)" stroke="rgb(0,0,0)" stroke-width="1" opacity="0.03137254901960784" d="M 185.5 177 L 186 179.5 L 185 179.5 L 185.5 177 Z " /><path fill="rgb(0,0,0)" stroke="rgb(0,0,0)" stroke-width="1" opacity="0.03137254901960784" d="M 185.5 181 L 186 183.5 L 185 183.5 L 185.5 181 Z " /><path fill="rgb(121,55,59)" stroke="rgb(121,55,59)" stroke-width="1" opacity="1" d="M 143.5 137 Q 148.3 136.3 149 139.5 Q 149.6 142.3 143.5 141 L 132.5 143 L 113.5 150 L 102 158.5 Q 94.7 165 95 178 Q 78.7 186.8 65.5 200 L 44 200 L 52 179.5 L 60.5 167 L 123.5 143 L 133.5 141 L 143.5 137 Z " /><path fill="rgb(239,223,137)" stroke="rgb(239,223,137)" stroke-width="1" opacity="1" d="M 103.5 41 L 107 41.5 L 99 46.5 L 101 51 Q 93.5 51.9 88.5 57 L 85.5 57 L 81.5 54 Q 76.2 56.3 76 63.5 L 78 67.5 L 73 72.5 L 73 75.5 L 75 81.5 L 72.5 84 L 65.5 86 Q 63 85 64 80.5 L 66 76.5 L 60.5 76 L 37 104.5 L 35 108.5 L 33 120.5 L 30 125.5 L 30 130.5 Q 34.9 137.7 48.5 136 Q 61.4 133.4 68 124.5 L 72 115.5 L 72 106.5 L 71 103.5 L 72 103.5 L 74 110.5 L 74 115.5 L 68 128.5 L 65.5 131 L 53.5 137 L 40.5 138 L 39 139.5 L 42 149.5 L 47.5 155 L 51 157.5 L 49.5 157 Q 36 151 28 139.5 L 25 133.5 L 24 124.5 L 27 107.5 L 36 87.5 Q 45.4 71.4 59.5 60 Q 76.5 45.5 103.5 41 Z " /><path fill="rgb(239,223,137)" stroke="rgb(239,223,137)" stroke-width="1" opacity="1" d="M 95.5 61 L 99 62.5 L 96.5 67 L 93 65.5 L 95.5 61 Z " /><path fill="rgb(239,223,137)" stroke="rgb(239,223,137)" stroke-width="1" opacity="1" d="M 87.5 74 Q 91.5 73.5 92 76.5 L 87.5 84 Q 80.2 86.6 82 80.5 L 87.5 74 Z " /><path fill="rgb(239,223,137)" stroke="rgb(239,223,137)" stroke-width="1" opacity="1" d="M 114 97 L 131 102 L 130.5 104 L 113 104 L 114 97 Z " /><path fill="rgb(239,223,137)" stroke="rgb(239,223,137)" stroke-width="1" opacity="1" d="M 58.5 112 L 60 115.5 L 54.5 123 Q 51.8 125.8 45.5 125 L 46 123.5 L 54.5 114 L 58.5 112 Z " /><path fill="rgb(239,223,137)" stroke="rgb(239,223,137)" stroke-width="1" opacity="1" d="M 150.5 147 L 151.5 148 L 162.5 149 L 171 155.5 L 169.5 158 Q 164.1 158.6 162 157 L 160.5 153 L 157.5 153 L 151.5 150 L 147.5 150 L 132 156.5 Q 135 159.8 134 166 Q 131 168 123.5 167 L 119 166 L 117 175 Q 123.8 175.5 128 179.5 Q 123.4 182.8 123 189 L 128 190.5 Q 121.9 193.5 121 200 L 108.5 200 L 106 197.5 L 102 186.5 L 102 171.5 Q 104.9 163.4 111.5 159 L 132.5 150 L 140.5 148 L 149.5 148 L 150.5 147 Z " /><path fill="rgb(239,223,137)" stroke="rgb(239,223,137)" stroke-width="1" opacity="1" d="M 145.5 156 Q 150.9 154.1 150 157.5 L 151 159.5 L 145.5 165 L 141.5 165 L 139 164 Q 137.8 159.4 140.5 158 L 145.5 156 Z " /><path fill="rgb(239,223,137)" stroke="rgb(239,223,137)" stroke-width="1" opacity="1" d="M 137.5 168 L 140 169.5 Q 141.3 173.7 136.5 172 L 135 169 L 137.5 168 Z " /></svg>