<svg width="200" height="200" version="1.1" xmlns="http://www.w3.org/2000/svg" desc="Created with imagetracer.js version 1.2.6" ><path fill="rgb(0,0,0)" stroke="rgb(0,0,0)" stroke-width="1" opacity="0" d="M 0 0 L 200 0 L 200 200 L 171.5 200 L 171 197.5 L 163 176.5 L 150 154 Q 170 151.8 180 138.5 L 187 123.5 Q 185.8 118.7 188 117.5 L 188 99.5 Q 184.5 87 176.5 79 L 167 71.5 L 167 62.5 L 164 48.5 Q 162.8 41.8 158.5 38 Q 135.6 41.1 123.5 55 L 89.5 55 L 88.5 56 L 80.5 56 L 76.5 51 L 61.5 41 L 55.5 38 L 50.5 38 L 42 47.5 Q 35.7 55.7 35 69.5 L 30.5 74 L 24 79.5 L 14 97.5 L 13 108.5 L 12 109.5 L 12 126.5 Q 14.6 140.4 23.5 148 L 38.5 157 L 45 158 L 45 160.5 L 37 174.5 L 32 191.5 L 31 200 L 0.5 200 L 0 199.5 L 0 0 Z " /><path fill="rgb(0,0,0)" stroke="rgb(0,0,0)" stroke-width="1" opacity="0.4392156862745098" d="M 50.5 38 Q 57.4 37.1 60 40.5 L 58.5 41 Q 56.5 38 50.5 39 L 44 44.5 L 50.5 38 Z " /><path fill="rgb(0,0,0)" stroke="rgb(0,0,0)" stroke-width="1" opacity="0.4392156862745098" d="M 158.5 38 L 159.5 40 L 158.5 38 Z " /><path fill="rgb(0,0,0)" stroke="rgb(0,0,0)" stroke-width="1" opacity="0.4392156862745098" d="M 150.5 39 L 153 39.5 L 148.5 41 L 148.5 40 L 150.5 39 Z " /><path fill="rgb(0,0,0)" stroke="rgb(0,0,0)" stroke-width="1" opacity="0.4392156862745098" d="M 160.5 41 L 162 43.5 L 161 43.5 L 160.5 41 Z " /><path fill="rgb(0,0,0)" stroke="rgb(0,0,0)" stroke-width="1" opacity="0.4392156862745098" d="M 142.5 42 L 144 42.5 L 133.5 48 L 134.5 46 L 142.5 42 Z " /><path fill="rgb(0,0,0)" stroke="rgb(0,0,0)" stroke-width="1" opacity="0.4392156862745098" d="M 65.5 43 L 66.5 45 L 65.5 43 Z " /><path fill="rgb(0,0,0)" stroke="rgb(0,0,0)" stroke-width="1" opacity="0.4392156862745098" d="M 68.5 45 L 71.5 49 L 68.5 45 Z " /><path fill="rgb(0,0,0)" stroke="rgb(0,0,0)" stroke-width="1" opacity="0.4392156862745098" d="M 43.5 46 L 42.5 48 L 43.5 46 Z " /><path fill="rgb(0,0,0)" stroke="rgb(0,0,0)" stroke-width="1" opacity="0.4392156862745098" d="M 131.5 48 L 129.5 51 L 131.5 48 Z " /><path fill="rgb(0,0,0)" stroke="rgb(0,0,0)" stroke-width="1" opacity="0.4392156862745098" d="M 163.5 48 L 164 50.5 L 163 50.5 L 163.5 48 Z " /><path fill="rgb(0,0,0)" stroke="rgb(0,0,0)" stroke-width="1" opacity="0.4392156862745098" d="M 73.5 49 L 74.5 51 L 73.5 49 Z " /><path fill="rgb(0,0,0)" stroke="rgb(0,0,0)" stroke-width="1" opacity="0.4392156862745098" d="M 76.5 51 L 78.5 54 L 76.5 51 Z " /><path fill="rgb(0,0,0)" stroke="rgb(0,0,0)" stroke-width="1" opacity="0.4392156862745098" d="M 127.5 51 L 123.5 56 L 117 55.5 Q 125.5 56.5 127.5 51 Z " /><path fill="rgb(0,0,0)" stroke="rgb(0,0,0)" stroke-width="1" opacity="0.4392156862745098" d="M 164.5 52 L 165 54.5 L 164 54.5 L 164.5 52 Z " /><path fill="rgb(0,0,0)" stroke="rgb(0,0,0)" stroke-width="1" opacity="0.4392156862745098" d="M 38.5 55 L 39 56.5 L 37.5 59 L 37 57.5 L 38.5 55 Z " /><path fill="rgb(0,0,0)" stroke="rgb(0,0,0)" stroke-width="1" opacity="0.4392156862745098" d="M 79.5 55 L 84 56.5 L 80.5 57 L 79.5 55 Z " /><path fill="rgb(0,0,0)" stroke="rgb(0,0,0)" stroke-width="1" opacity="0.4392156862745098" d="M 89.5 55 L 94 55.5 L 89.5 56 L 89.5 55 Z " /><path fill="rgb(0,0,0)" stroke="rgb(0,0,0)" stroke-width="1" opacity="0.4392156862745098" d="M 165.5 57 L 166 59.5 L 165 59.5 L 165.5 57 Z " /><path fill="rgb(0,0,0)" stroke="rgb(0,0,0)" stroke-width="1" opacity="0.4392156862745098" d="M 36.5 61 L 37 64.5 L 36 64.5 L 36.5 61 Z " /><path fill="rgb(0,0,0)" stroke="rgb(0,0,0)" stroke-width="1" opacity="0.4392156862745098" d="M 166.5 62 L 167 67.5 L 166 67.5 L 166.5 62 Z " /><path fill="rgb(0,0,0)" stroke="rgb(0,0,0)" stroke-width="1" opacity="0.4392156862745098" d="M 35.5 67 L 36 69.5 L 31 73.5 Q 35.1 72.1 35.5 67 Z " /><path fill="rgb(0,0,0)" stroke="rgb(0,0,0)" stroke-width="1" opacity="0.4392156862745098" d="M 167.5 72 L 175 78.5 L 171.5 76 L 167 74 L 167.5 72 Z " /><path fill="rgb(0,0,0)" stroke="rgb(0,0,0)" stroke-width="1" opacity="0.4392156862745098" d="M 29.5 74 L 24.5 80 L 29.5 74 Z " /><path fill="rgb(0,0,0)" stroke="rgb(0,0,0)" stroke-width="1" opacity="0.4392156862745098" d="M 176.5 79 L 178.5 82 L 176.5 79 Z " /><path fill="rgb(0,0,0)" stroke="rgb(0,0,0)" stroke-width="1" opacity="0.4392156862745098" d="M 23.5 81 L 22 83.5 L 20.5 86 L 21 84.5 L 23.5 81 Z " /><path fill="rgb(0,0,0)" stroke="rgb(0,0,0)" stroke-width="1" opacity="0.4392156862745098" d="M 179.5 83 L 180.5 85 L 179.5 83 Z " /><path fill="rgb(0,0,0)" stroke="rgb(0,0,0)" stroke-width="1" opacity="0.4392156862745098" d="M 181.5 86 L 186 94.5 L 185 94.5 L 181.5 86 Z " /><path fill="rgb(0,0,0)" stroke="rgb(0,0,0)" stroke-width="1" opacity="0.4392156862745098" d="M 19.5 87 L 19 88.5 L 15.5 96 L 15 94.5 L 19.5 87 Z " /><path fill="rgb(0,0,0)" stroke="rgb(0,0,0)" stroke-width="1" opacity="0.4392156862745098" d="M 14.5 97 L 15 99.5 L 14 99.5 L 14.5 97 Z " /><path fill="rgb(0,0,0)" stroke="rgb(0,0,0)" stroke-width="1" opacity="0.4392156862745098" d="M 187.5 99 L 188 101.5 L 187 101.5 L 187.5 99 Z " /><path fill="rgb(0,0,0)" stroke="rgb(0,0,0)" stroke-width="1" opacity="0.4392156862745098" d="M 13.5 102 L 14 104.5 L 13 104.5 L 13.5 102 Z " /><path fill="rgb(0,0,0)" stroke="rgb(0,0,0)" stroke-width="1" opacity="0.4392156862745098" d="M 12.5 109 L 13 111.5 L 12 111.5 L 12.5 109 Z " /><path fill="rgb(0,0,0)" stroke="rgb(0,0,0)" stroke-width="1" opacity="0.4392156862745098" d="M 186.5 120 L 187 123.5 L 186 123.5 L 186.5 120 Z " /><path fill="rgb(0,0,0)" stroke="rgb(0,0,0)" stroke-width="1" opacity="0.4392156862745098" d="M 12.5 124 L 13 126.5 L 12 126.5 L 12.5 124 Z " /><path fill="rgb(0,0,0)" stroke="rgb(0,0,0)" stroke-width="1" opacity="0.4392156862745098" d="M 185.5 125 L 186 127.5 L 184.5 130 L 184 128.5 L 185.5 125 Z " /><path fill="rgb(0,0,0)" stroke="rgb(0,0,0)" stroke-width="1" opacity="0.4392156862745098" d="M 183.5 131 L 183 132.5 L 181.5 135 L 182 133.5 L 183.5 131 Z " /><path fill="rgb(0,0,0)" stroke="rgb(0,0,0)" stroke-width="1" opacity="0.4392156862745098" d="M 15.5 135 L 22 144.5 L 18 141.5 L 15 136.5 L 15.5 135 Z " /><path fill="rgb(0,0,0)" stroke="rgb(0,0,0)" stroke-width="1" opacity="0.4392156862745098" d="M 180.5 136 L 180 137.5 L 173.5 145 L 179 138.5 L 180.5 136 Z " /><path fill="rgb(0,0,0)" stroke="rgb(0,0,0)" stroke-width="1" opacity="0.4392156862745098" d="M 171.5 145 L 170.5 147 L 171.5 145 Z " /><path fill="rgb(0,0,0)" stroke="rgb(0,0,0)" stroke-width="1" opacity="0.4392156862745098" d="M 22.5 146 L 23.5 148 L 22.5 146 Z " /><path fill="rgb(0,0,0)" stroke="rgb(0,0,0)" stroke-width="1" opacity="0.4392156862745098" d="M 168.5 147 L 167.5 149 L 163.5 151 L 164.5 149 L 168.5 147 Z " /><path fill="rgb(0,0,0)" stroke="rgb(0,0,0)" stroke-width="1" opacity="0.4392156862745098" d="M 25.5 148 L 27.5 151 L 25.5 148 Z " /><path fill="rgb(0,0,0)" stroke="rgb(0,0,0)" stroke-width="1" opacity="0.4392156862745098" d="M 29.5 151 L 40 156.5 L 38.5 157 L 30.5 153 L 29.5 151 Z " /><path fill="rgb(0,0,0)" stroke="rgb(0,0,0)" stroke-width="1" opacity="0.4392156862745098" d="M 152.5 153 L 155 153.5 L 152.5 154 L 152.5 153 Z " /><path fill="rgb(0,0,0)" stroke="rgb(0,0,0)" stroke-width="1" opacity="0.4392156862745098" d="M 148.5 154 Q 150.8 153.3 150 155.5 L 150.5 157 L 148.5 154 Z " /><path fill="rgb(0,0,0)" stroke="rgb(0,0,0)" stroke-width="1" opacity="0.4392156862745098" d="M 45 158 L 47 158.5 L 44.5 162 L 45 160.5 L 45 158 Z " /><path fill="rgb(0,0,0)" stroke="rgb(0,0,0)" stroke-width="1" opacity="0.4392156862745098" d="M 151.5 158 L 155 162.5 L 153 161.5 L 151.5 158 Z " /><path fill="rgb(0,0,0)" stroke="rgb(0,0,0)" stroke-width="1" opacity="0.4392156862745098" d="M 43.5 163 L 43 164.5 L 41.5 167 L 42 165.5 L 43.5 163 Z " /><path fill="rgb(0,0,0)" stroke="rgb(0,0,0)" stroke-width="1" opacity="0.4392156862745098" d="M 155.5 164 L 156.5 166 L 155.5 164 Z " /><path fill="rgb(0,0,0)" stroke="rgb(0,0,0)" stroke-width="1" opacity="0.4392156862745098" d="M 158.5 169 L 163 177.5 L 162 177.5 L 158.5 169 Z " /><path fill="rgb(0,0,0)" stroke="rgb(0,0,0)" stroke-width="1" opacity="0.4392156862745098" d="M 38.5 172 L 39 173.5 L 37.5 176 L 37 174.5 L 38.5 172 Z " /><path fill="rgb(0,0,0)" stroke="rgb(0,0,0)" stroke-width="1" opacity="0.4392156862745098" d="M 164.5 181 L 166 184.5 L 165 184.5 L 164.5 181 Z " /><path fill="rgb(0,0,0)" stroke="rgb(0,0,0)" stroke-width="1" opacity="0.4392156862745098" d="M 34.5 183 L 35 185.5 L 34 185.5 L 34.5 183 Z " /><path fill="rgb(0,0,0)" stroke="rgb(0,0,0)" stroke-width="1" opacity="0.4392156862745098" d="M 33.5 187 L 34 189.5 L 33 189.5 L 33.5 187 Z " /><path fill="rgb(0,0,0)" stroke="rgb(0,0,0)" stroke-width="1" opacity="0.4392156862745098" d="M 32.5 191 L 33 193.5 L 32 193.5 L 32.5 191 Z " /><path fill="rgb(0,0,0)" stroke="rgb(0,0,0)" stroke-width="1" opacity="0.4392156862745098" d="M 31.5 196 L 32 198.5 L 31 198.5 L 31.5 196 Z " /><path fill="rgb(121,85,77)" stroke="rgb(121,85,77)" stroke-width="1" opacity="1" d="M 52.5 44 L 55 44.5 Q 49.9 44.9 48.5 49 L 52.5 44 Z " /><path fill="rgb(121,85,77)" stroke="rgb(121,85,77)" stroke-width="1" opacity="1" d="M 154.5 44 L 157 45.5 L 155.5 45 L 154.5 44 Z " /><path fill="rgb(121,85,77)" stroke="rgb(121,85,77)" stroke-width="1" opacity="1" d="M 64.5 49 L 67.5 53 L 64.5 49 Z " /><path fill="rgb(121,85,77)" stroke="rgb(121,85,77)" stroke-width="1" opacity="1" d="M 135.5 52 L 134.5 54 L 135.5 52 Z " /><path fill="rgb(121,85,77)" stroke="rgb(121,85,77)" stroke-width="1" opacity="1" d="M 69.5 53 L 70.5 55 L 69.5 53 Z " /><path fill="rgb(121,85,77)" stroke="rgb(121,85,77)" stroke-width="1" opacity="1" d="M 131.5 55 L 126.5 61 L 131.5 55 Z " /><path fill="rgb(121,85,77)" stroke="rgb(121,85,77)" stroke-width="1" opacity="1" d="M 75.5 59 L 77.5 62 L 75.5 59 Z " /><path fill="rgb(121,85,77)" stroke="rgb(121,85,77)" stroke-width="1" opacity="1" d="M 104.5 60 L 114 60.5 L 104.5 61 L 104.5 60 Z " /><path fill="rgb(121,85,77)" stroke="rgb(121,85,77)" stroke-width="1" opacity="1" d="M 87.5 61 L 90 61.5 L 87.5 62 L 87.5 61 Z " /><path fill="rgb(121,85,77)" stroke="rgb(121,85,77)" stroke-width="1" opacity="1" d="M 121.5 61 L 125 61.5 L 121.5 62 L 121.5 61 Z " /><path fill="rgb(121,85,77)" stroke="rgb(121,85,77)" stroke-width="1" opacity="1" d="M 161.5 70 Q 160.7 76.3 164.5 78 Q 172 81 176 87.5 L 168.5 81 L 161 75.5 L 161.5 70 Z " /><path fill="rgb(121,85,77)" stroke="rgb(121,85,77)" stroke-width="1" opacity="1" d="M 40.5 71 L 41 72.5 L 39 73.5 L 40.5 71 Z " /><path fill="rgb(121,85,77)" stroke="rgb(121,85,77)" stroke-width="1" opacity="1" d="M 37.5 75 L 35.5 78 L 37.5 75 Z " /><path fill="rgb(121,85,77)" stroke="rgb(121,85,77)" stroke-width="1" opacity="1" d="M 32.5 79 L 31.5 81 L 32.5 79 Z " /><path fill="rgb(121,85,77)" stroke="rgb(121,85,77)" stroke-width="1" opacity="1" d="M 55.5 79 L 60 79.5 L 55.5 80 L 55.5 79 Z " /><path fill="rgb(121,85,77)" stroke="rgb(121,85,77)" stroke-width="1" opacity="1" d="M 67.5 79 L 70 79.5 L 67.5 80 L 67.5 79 Z " /><path fill="rgb(121,85,77)" stroke="rgb(121,85,77)" stroke-width="1" opacity="1" d="M 128.5 79 L 135 79.5 L 128.5 80 L 128.5 79 Z " /><path fill="rgb(121,85,77)" stroke="rgb(121,85,77)" stroke-width="1" opacity="1" d="M 123.5 80 L 126 80.5 L 123.5 81 L 123.5 80 Z " /><path fill="rgb(121,85,77)" stroke="rgb(121,85,77)" stroke-width="1" opacity="1" d="M 49.5 81 L 48.5 83 L 49.5 81 Z " /><path fill="rgb(121,85,77)" stroke="rgb(121,85,77)" stroke-width="1" opacity="1" d="M 116.5 82 L 119 82.5 L 116.5 83 L 116.5 82 Z " /><path fill="rgb(121,85,77)" stroke="rgb(121,85,77)" stroke-width="1" opacity="1" d="M 142.5 82 L 149 87.5 L 144.5 84 L 142.5 82 Z " /><path fill="rgb(121,85,77)" stroke="rgb(121,85,77)" stroke-width="1" opacity="1" d="M 46.5 83 L 45.5 85 L 46.5 83 Z " /><path fill="rgb(121,85,77)" stroke="rgb(121,85,77)" stroke-width="1" opacity="1" d="M 27.5 85 L 26.5 87 L 27.5 85 Z " /><path fill="rgb(121,85,77)" stroke="rgb(121,85,77)" stroke-width="1" opacity="1" d="M 127.5 85 L 130 85.5 L 127.5 86 L 127.5 85 Z " /><path fill="rgb(121,85,77)" stroke="rgb(121,85,77)" stroke-width="1" opacity="1" d="M 132.5 85 L 135 85.5 L 132.5 86 L 132.5 85 Z " /><path fill="rgb(121,85,77)" stroke="rgb(121,85,77)" stroke-width="1" opacity="1" d="M 89.5 86 L 94 86.5 L 89.5 87 L 89.5 86 Z " /><path fill="rgb(121,85,77)" stroke="rgb(121,85,77)" stroke-width="1" opacity="1" d="M 97.5 86 L 104 86.5 L 97.5 87 L 97.5 86 Z " /><path fill="rgb(121,85,77)" stroke="rgb(121,85,77)" stroke-width="1" opacity="1" d="M 43.5 87 L 42.5 89 L 43.5 87 Z " /><path fill="rgb(121,85,77)" stroke="rgb(121,85,77)" stroke-width="1" opacity="1" d="M 25.5 88 L 24.5 90 L 25.5 88 Z " /><path fill="rgb(121,85,77)" stroke="rgb(121,85,77)" stroke-width="1" opacity="1" d="M 149.5 89 L 151.5 92 L 149.5 89 Z " /><path fill="rgb(121,85,77)" stroke="rgb(121,85,77)" stroke-width="1" opacity="1" d="M 41.5 90 L 41 91.5 L 39.5 94 L 40 92.5 L 41.5 90 Z " /><path fill="rgb(121,85,77)" stroke="rgb(121,85,77)" stroke-width="1" opacity="1" d="M 177.5 91 L 180 95.5 L 179 95.5 L 177.5 91 Z " /><path fill="rgb(121,85,77)" stroke="rgb(121,85,77)" stroke-width="1" opacity="1" d="M 91.5 92 L 102 92.5 L 91.5 93 L 91.5 92 Z " /><path fill="rgb(121,85,77)" stroke="rgb(121,85,77)" stroke-width="1" opacity="1" d="M 38.5 95 L 39 96.5 L 37.5 99 L 37 97.5 L 38.5 95 Z " /><path fill="rgb(121,85,77)" stroke="rgb(121,85,77)" stroke-width="1" opacity="1" d="M 146.5 95 L 147.5 97 L 146.5 95 Z " /><path fill="rgb(121,85,77)" stroke="rgb(121,85,77)" stroke-width="1" opacity="1" d="M 74.5 98 L 77 98.5 L 74.5 99 L 74.5 98 Z " /><path fill="rgb(121,85,77)" stroke="rgb(121,85,77)" stroke-width="1" opacity="1" d="M 83.5 99 L 86 99.5 L 83.5 100 L 83.5 99 Z " /><path fill="rgb(121,85,77)" stroke="rgb(121,85,77)" stroke-width="1" opacity="1" d="M 103.5 99 L 106 99.5 L 103.5 100 L 103.5 99 Z " /><path fill="rgb(121,85,77)" stroke="rgb(121,85,77)" stroke-width="1" opacity="1" d="M 181.5 99 L 182 101.5 L 181 101.5 L 181.5 99 Z " /><path fill="rgb(121,85,77)" stroke="rgb(121,85,77)" stroke-width="1" opacity="1" d="M 118.5 102 L 121 102.5 L 118.5 103 L 118.5 102 Z " /><path fill="rgb(121,85,77)" stroke="rgb(121,85,77)" stroke-width="1" opacity="1" d="M 78.5 104 L 81 104.5 L 78.5 105 L 78.5 104 Z " /><path fill="rgb(121,85,77)" stroke="rgb(121,85,77)" stroke-width="1" opacity="1" d="M 107.5 104 L 110 104.5 L 107.5 105 L 107.5 104 Z " /><path fill="rgb(121,85,77)" stroke="rgb(121,85,77)" stroke-width="1" opacity="1" d="M 89.5 105 L 102 105.5 L 89.5 106 L 89.5 105 Z " /><path fill="rgb(121,85,77)" stroke="rgb(121,85,77)" stroke-width="1" opacity="1" d="M 182.5 105 L 183 112.5 L 182 112.5 L 182.5 105 Z " /><path fill="rgb(121,85,77)" stroke="rgb(121,85,77)" stroke-width="1" opacity="1" d="M 18.5 106 L 19 109.5 L 18 109.5 L 18.5 106 Z " /><path fill="rgb(121,85,77)" stroke="rgb(121,85,77)" stroke-width="1" opacity="1" d="M 40.5 106 L 41 108.5 L 40 108.5 L 40.5 106 Z " /><path fill="rgb(121,85,77)" stroke="rgb(121,85,77)" stroke-width="1" opacity="1" d="M 34.5 107 L 35 110.5 L 34 110.5 L 34.5 107 Z " /><path fill="rgb(121,85,77)" stroke="rgb(121,85,77)" stroke-width="1" opacity="1" d="M 55.5 112 L 54.5 114 L 55.5 112 Z " /><path fill="rgb(121,85,77)" stroke="rgb(121,85,77)" stroke-width="1" opacity="1" d="M 124.5 112 L 125.5 114 L 124.5 112 Z " /><path fill="rgb(121,85,77)" stroke="rgb(121,85,77)" stroke-width="1" opacity="1" d="M 39.5 113 L 40 119.5 L 39 119.5 L 39.5 113 Z " /><path fill="rgb(121,85,77)" stroke="rgb(121,85,77)" stroke-width="1" opacity="1" d="M 33.5 114 L 34 124.5 L 33 124.5 L 33.5 114 Z " /><path fill="rgb(121,85,77)" stroke="rgb(121,85,77)" stroke-width="1" opacity="1" d="M 17.5 115 L 18 121.5 L 17 121.5 L 17.5 115 Z " /><path fill="rgb(121,85,77)" stroke="rgb(121,85,77)" stroke-width="1" opacity="1" d="M 181.5 116 L 182 118.5 L 181 118.5 L 181.5 116 Z " /><path fill="rgb(121,85,77)" stroke="rgb(121,85,77)" stroke-width="1" opacity="1" d="M 126.5 117 L 125.5 119 L 126.5 117 Z " /><path fill="rgb(121,85,77)" stroke="rgb(121,85,77)" stroke-width="1" opacity="1" d="M 147.5 118 L 146.5 120 L 147.5 118 Z " /><path fill="rgb(121,85,77)" stroke="rgb(121,85,77)" stroke-width="1" opacity="1" d="M 153.5 119 L 152.5 121 L 153.5 119 Z " /><path fill="rgb(121,85,77)" stroke="rgb(121,85,77)" stroke-width="1" opacity="1" d="M 60.5 120 L 63 120.5 L 60.5 121 L 60.5 120 Z " /><path fill="rgb(121,85,77)" stroke="rgb(121,85,77)" stroke-width="1" opacity="1" d="M 180.5 121 L 181 123.5 L 180 123.5 L 180.5 121 Z " /><path fill="rgb(121,85,77)" stroke="rgb(121,85,77)" stroke-width="1" opacity="1" d="M 85.5 123 L 84.5 125 L 85.5 123 Z " /><path fill="rgb(121,85,77)" stroke="rgb(121,85,77)" stroke-width="1" opacity="1" d="M 93.5 123 L 94.5 125 L 93.5 123 Z " /><path fill="rgb(121,85,77)" stroke="rgb(121,85,77)" stroke-width="1" opacity="1" d="M 148.5 124 L 147.5 126 L 148.5 124 Z " /><path fill="rgb(121,85,77)" stroke="rgb(121,85,77)" stroke-width="1" opacity="1" d="M 82.5 125 L 81.5 127 L 82.5 125 Z " /><path fill="rgb(121,85,77)" stroke="rgb(121,85,77)" stroke-width="1" opacity="1" d="M 34.5 126 L 37 129.5 L 34 127.5 L 34.5 126 Z " /><path fill="rgb(121,85,77)" stroke="rgb(121,85,77)" stroke-width="1" opacity="1" d="M 131.5 126 L 130.5 128 L 131.5 126 Z " /><path fill="rgb(121,85,77)" stroke="rgb(121,85,77)" stroke-width="1" opacity="1" d="M 100.5 127 L 102.5 130 L 100.5 127 Z " /><path fill="rgb(121,85,77)" stroke="rgb(121,85,77)" stroke-width="1" opacity="1" d="M 87.5 128 L 86.5 130 L 87.5 128 Z " /><path fill="rgb(121,85,77)" stroke="rgb(121,85,77)" stroke-width="1" opacity="1" d="M 84.5 130 L 83.5 132 L 84.5 130 Z " /><path fill="rgb(121,85,77)" stroke="rgb(121,85,77)" stroke-width="1" opacity="1" d="M 135.5 130 L 132.5 134 L 135.5 130 Z " /><path fill="rgb(121,85,77)" stroke="rgb(121,85,77)" stroke-width="1" opacity="1" d="M 177.5 130 L 176.5 132 L 177.5 130 Z " /><path fill="rgb(121,85,77)" stroke="rgb(121,85,77)" stroke-width="1" opacity="1" d="M 78.5 131 L 82 132.5 L 79.5 133 L 78.5 131 Z " /><path fill="rgb(121,85,77)" stroke="rgb(121,85,77)" stroke-width="1" opacity="1" d="M 43.5 132 L 48 133.5 L 45.5 134 L 43.5 132 Z " /><path fill="rgb(121,85,77)" stroke="rgb(121,85,77)" stroke-width="1" opacity="1" d="M 58.5 133 L 61.5 137 L 58.5 133 Z " /><path fill="rgb(121,85,77)" stroke="rgb(121,85,77)" stroke-width="1" opacity="1" d="M 175.5 133 L 174.5 135 L 175.5 133 Z " /><path fill="rgb(121,85,77)" stroke="rgb(121,85,77)" stroke-width="1" opacity="1" d="M 126.5 134 L 127 137.5 L 126 137.5 L 126.5 134 Z " /><path fill="rgb(121,85,77)" stroke="rgb(121,85,77)" stroke-width="1" opacity="1" d="M 21.5 135 L 22.5 137 L 21.5 135 Z " /><path fill="rgb(121,85,77)" stroke="rgb(121,85,77)" stroke-width="1" opacity="1" d="M 51.5 135 L 52.5 137 L 51.5 135 Z " /><path fill="rgb(121,85,77)" stroke="rgb(121,85,77)" stroke-width="1" opacity="1" d="M 173.5 136 L 170.5 140 L 173.5 136 Z " /><path fill="rgb(121,85,77)" stroke="rgb(121,85,77)" stroke-width="1" opacity="1" d="M 54.5 137 L 56.5 140 L 54.5 137 Z " /><path fill="rgb(121,85,77)" stroke="rgb(121,85,77)" stroke-width="1" opacity="1" d="M 23.5 138 L 25.5 141 L 23.5 138 Z " /><path fill="rgb(121,85,77)" stroke="rgb(121,85,77)" stroke-width="1" opacity="1" d="M 168.5 140 L 167.5 142 L 168.5 140 Z " /><path fill="rgb(121,85,77)" stroke="rgb(121,85,77)" stroke-width="1" opacity="1" d="M 115.5 141 L 119 141.5 L 115.5 142 L 115.5 141 Z " /><path fill="rgb(121,85,77)" stroke="rgb(121,85,77)" stroke-width="1" opacity="1" d="M 78.5 142 L 88 142.5 L 78.5 143 L 78.5 142 Z " /><path fill="rgb(121,85,77)" stroke="rgb(121,85,77)" stroke-width="1" opacity="1" d="M 104.5 142 L 109 142.5 L 104.5 143 L 104.5 142 Z " /><path fill="rgb(121,85,77)" stroke="rgb(121,85,77)" stroke-width="1" opacity="1" d="M 165.5 142 L 164.5 144 L 162.5 145 L 163.5 143 L 165.5 142 Z " /><path fill="rgb(121,85,77)" stroke="rgb(121,85,77)" stroke-width="1" opacity="1" d="M 29.5 144 L 31.5 147 L 29.5 144 Z " /><path fill="rgb(121,85,77)" stroke="rgb(121,85,77)" stroke-width="1" opacity="1" d="M 121.5 146 L 126 146.5 L 121.5 147 L 121.5 146 Z " /><path fill="rgb(121,85,77)" stroke="rgb(121,85,77)" stroke-width="1" opacity="1" d="M 127.5 146 L 129 148.5 L 128 148.5 L 127.5 146 Z " /><path fill="rgb(121,85,77)" stroke="rgb(121,85,77)" stroke-width="1" opacity="1" d="M 64.5 147 L 75 147.5 L 64.5 148 L 64.5 147 Z " /><path fill="rgb(121,85,77)" stroke="rgb(121,85,77)" stroke-width="1" opacity="1" d="M 111.5 147 L 116 147.5 L 111.5 148 L 111.5 147 Z " /><path fill="rgb(121,85,77)" stroke="rgb(121,85,77)" stroke-width="1" opacity="1" d="M 153.5 147 L 156 147.5 L 153.5 148 L 153.5 147 Z " /><path fill="rgb(121,85,77)" stroke="rgb(121,85,77)" stroke-width="1" opacity="1" d="M 35.5 148 L 43 151.5 L 41.5 152 L 35.5 149 L 35.5 148 Z " /><path fill="rgb(121,85,77)" stroke="rgb(121,85,77)" stroke-width="1" opacity="1" d="M 82.5 148 L 106 148.5 L 82.5 149 L 82.5 148 Z " /><path fill="rgb(121,85,77)" stroke="rgb(121,85,77)" stroke-width="1" opacity="1" d="M 121.5 152 L 126 152.5 L 121.5 153 L 121.5 152 Z " /><path fill="rgb(121,85,77)" stroke="rgb(121,85,77)" stroke-width="1" opacity="1" d="M 51.5 153 L 55 153.5 L 51.5 154 L 51.5 153 Z " /><path fill="rgb(121,85,77)" stroke="rgb(121,85,77)" stroke-width="1" opacity="1" d="M 110.5 153 L 116 153.5 L 110.5 154 L 110.5 153 Z " /><path fill="rgb(121,85,77)" stroke="rgb(121,85,77)" stroke-width="1" opacity="1" d="M 62.5 154 L 67 154.5 L 62.5 155 L 62.5 154 Z " /><path fill="rgb(121,85,77)" stroke="rgb(121,85,77)" stroke-width="1" opacity="1" d="M 98.5 154 L 107 154.5 L 98.5 155 L 98.5 154 Z " /><path fill="rgb(121,85,77)" stroke="rgb(121,85,77)" stroke-width="1" opacity="1" d="M 141.5 156 L 142.5 158 L 141.5 156 Z " /><path fill="rgb(121,85,77)" stroke="rgb(121,85,77)" stroke-width="1" opacity="1" d="M 129.5 157 L 132 157.5 L 129.5 158 L 129.5 157 Z " /><path fill="rgb(121,85,77)" stroke="rgb(121,85,77)" stroke-width="1" opacity="1" d="M 120.5 158 L 123 158.5 L 120.5 159 L 120.5 158 Z " /><path fill="rgb(121,85,77)" stroke="rgb(121,85,77)" stroke-width="1" opacity="1" d="M 53.5 159 L 57 159.5 Q 51.9 159.4 50.5 163 L 53.5 159 Z " /><path fill="rgb(121,85,77)" stroke="rgb(121,85,77)" stroke-width="1" opacity="1" d="M 110.5 159 L 113 159.5 L 110.5 160 L 110.5 159 Z " /><path fill="rgb(121,85,77)" stroke="rgb(121,85,77)" stroke-width="1" opacity="1" d="M 63.5 160 L 69 160.5 L 63.5 161 L 63.5 160 Z " /><path fill="rgb(121,85,77)" stroke="rgb(121,85,77)" stroke-width="1" opacity="1" d="M 96.5 160 L 101 160.5 L 96.5 161 L 96.5 160 Z " /><path fill="rgb(121,85,77)" stroke="rgb(121,85,77)" stroke-width="1" opacity="1" d="M 145.5 160 L 150 165.5 L 148 164.5 L 145.5 160 Z " /><path fill="rgb(121,85,77)" stroke="rgb(121,85,77)" stroke-width="1" opacity="1" d="M 103.5 165 L 106 165.5 L 103.5 166 L 103.5 165 Z " /><path fill="rgb(121,85,77)" stroke="rgb(121,85,77)" stroke-width="1" opacity="1" d="M 48.5 166 L 47.5 168 L 48.5 166 Z " /><path fill="rgb(121,85,77)" stroke="rgb(121,85,77)" stroke-width="1" opacity="1" d="M 150.5 167 L 151.5 169 L 150.5 167 Z " /><path fill="rgb(121,85,77)" stroke="rgb(121,85,77)" stroke-width="1" opacity="1" d="M 76.5 170 L 75.5 172 L 76.5 170 Z " /><path fill="rgb(121,85,77)" stroke="rgb(121,85,77)" stroke-width="1" opacity="1" d="M 89.5 171 Q 111.6 168.4 121 178.5 L 127 188.5 L 129 200 L 123 200 L 123 195.5 Q 119.9 184.6 111.5 179 L 103.5 176 L 91.5 176 Q 80.6 177.6 76 185.5 Q 72 190.9 73 200 L 69 200 L 69 190.5 Q 71.9 181.4 78.5 176 L 89.5 171 Z " /><path fill="rgb(121,85,77)" stroke="rgb(121,85,77)" stroke-width="1" opacity="1" d="M 121.5 171 L 126.5 177 L 121.5 171 Z " /><path fill="rgb(121,85,77)" stroke="rgb(121,85,77)" stroke-width="1" opacity="1" d="M 154.5 174 L 157 178.5 L 156 178.5 L 154.5 174 Z " /><path fill="rgb(121,85,77)" stroke="rgb(121,85,77)" stroke-width="1" opacity="1" d="M 70.5 176 L 69.5 178 L 70.5 176 Z " /><path fill="rgb(121,85,77)" stroke="rgb(121,85,77)" stroke-width="1" opacity="1" d="M 159.5 184 L 161 187.5 L 160 187.5 L 159.5 184 Z " /><path fill="rgb(185,93,76)" stroke="rgb(185,93,76)" stroke-width="1" opacity="1" d="M 71.5 55 L 74.5 59 L 71.5 55 Z " /><path fill="rgb(185,93,76)" stroke="rgb(185,93,76)" stroke-width="1" opacity="1" d="M 58.5 57 L 62 57.5 L 53.5 60 L 53.5 59 L 58.5 57 Z " /><path fill="rgb(185,93,76)" stroke="rgb(185,93,76)" stroke-width="1" opacity="1" d="M 63.5 57 L 66 57.5 L 63.5 58 L 63.5 57 Z " /><path fill="rgb(185,93,76)" stroke="rgb(185,93,76)" stroke-width="1" opacity="1" d="M 146.5 57 L 149.5 61 Q 147.3 56.7 145 58.5 L 146.5 57 Z " /><path fill="rgb(185,93,76)" stroke="rgb(185,93,76)" stroke-width="1" opacity="1" d="M 69.5 58 L 72 58.5 L 69.5 59 L 69.5 58 Z " /><path fill="rgb(185,93,76)" stroke="rgb(185,93,76)" stroke-width="1" opacity="1" d="M 129.5 58 L 126.5 62 L 125 61.5 L 129.5 58 Z " /><path fill="rgb(185,93,76)" stroke="rgb(185,93,76)" stroke-width="1" opacity="1" d="M 144.5 60 L 142.5 63 L 144.5 60 Z " /><path fill="rgb(185,93,76)" stroke="rgb(185,93,76)" stroke-width="1" opacity="1" d="M 90.5 61 L 107 61.5 L 90.5 62 L 90.5 61 Z " /><path fill="rgb(185,93,76)" stroke="rgb(185,93,76)" stroke-width="1" opacity="1" d="M 110.5 61 L 121 61.5 L 110.5 62 L 110.5 61 Z " /><path fill="rgb(185,93,76)" stroke="rgb(185,93,76)" stroke-width="1" opacity="1" d="M 76 62 L 87.5 62 L 96 63.5 L 88.5 65 L 78.5 65 L 76 64 L 76 62 Z M 80 63 L 80 64 L 87 64 L 80 63 Z " /><path fill="rgb(185,93,76)" stroke="rgb(185,93,76)" stroke-width="1" opacity="1" d="M 99.5 63 L 126.5 63 L 127.5 64 L 136 64.5 L 122.5 65 L 121.5 64 L 99.5 64 L 99.5 63 Z " /><path fill="rgb(185,93,76)" stroke="rgb(185,93,76)" stroke-width="1" opacity="1" d="M 160.5 63 L 161 66.5 L 160 66.5 L 160.5 63 Z " /><path fill="rgb(185,93,76)" stroke="rgb(185,93,76)" stroke-width="1" opacity="1" d="M 141.5 64 L 140.5 66 L 139 65.5 L 141.5 64 Z " /><path fill="rgb(185,93,76)" stroke="rgb(185,93,76)" stroke-width="1" opacity="1" d="M 156.5 67 L 160.5 72 L 156.5 67 Z " /><path fill="rgb(185,93,76)" stroke="rgb(185,93,76)" stroke-width="1" opacity="1" d="M 49.5 68 L 50 72.5 L 48 73.5 L 49.5 68 Z " /><path fill="rgb(185,93,76)" stroke="rgb(185,93,76)" stroke-width="1" opacity="1" d="M 99.5 70 L 102 71.5 L 100.5 71 L 99.5 70 Z " /><path fill="rgb(185,93,76)" stroke="rgb(185,93,76)" stroke-width="1" opacity="1" d="M 40.5 73 L 36.5 78 L 40.5 73 Z " /><path fill="rgb(185,93,76)" stroke="rgb(185,93,76)" stroke-width="1" opacity="1" d="M 89.5 73 L 90 75.5 L 89 75.5 L 89.5 73 Z " /><path fill="rgb(185,93,76)" stroke="rgb(185,93,76)" stroke-width="1" opacity="1" d="M 46.5 74 L 45.5 76 L 42.5 78 L 44.5 75 L 46.5 74 Z " /><path fill="rgb(185,93,76)" stroke="rgb(185,93,76)" stroke-width="1" opacity="1" d="M 103.5 75 L 104 80 L 102 79.5 L 103.5 75 Z " /><path fill="rgb(185,93,76)" stroke="rgb(185,93,76)" stroke-width="1" opacity="1" d="M 34.5 78 L 28.5 85 L 34.5 78 Z " /><path fill="rgb(185,93,76)" stroke="rgb(185,93,76)" stroke-width="1" opacity="1" d="M 40.5 78 L 33.5 86 L 40.5 78 Z " /><path fill="rgb(185,93,76)" stroke="rgb(185,93,76)" stroke-width="1" opacity="1" d="M 76.5 80 Q 81.3 78.7 80 82 Q 75.8 82 76.5 80 Z " /><path fill="rgb(185,93,76)" stroke="rgb(185,93,76)" stroke-width="1" opacity="1" d="M 57.5 85 L 60 85.5 L 57.5 86 L 57.5 85 Z " /><path fill="rgb(185,93,76)" stroke="rgb(185,93,76)" stroke-width="1" opacity="1" d="M 27.5 86 L 26.5 88 L 27.5 86 Z " /><path fill="rgb(185,93,76)" stroke="rgb(185,93,76)" stroke-width="1" opacity="1" d="M 32.5 87 L 29 91.5 L 27.5 94 L 28 92.5 L 32.5 87 Z " /><path fill="rgb(185,93,76)" stroke="rgb(185,93,76)" stroke-width="1" opacity="1" d="M 50.5 88 L 49.5 90 L 50.5 88 Z " /><path fill="rgb(185,93,76)" stroke="rgb(185,93,76)" stroke-width="1" opacity="1" d="M 140.5 88 L 142.5 91 L 140.5 88 Z " /><path fill="rgb(185,93,76)" stroke="rgb(185,93,76)" stroke-width="1" opacity="1" d="M 25.5 89 L 25 90.5 L 23.5 93 L 24 91.5 L 25.5 89 Z " /><path fill="rgb(185,93,76)" stroke="rgb(185,93,76)" stroke-width="1" opacity="1" d="M 88.5 92 L 91 92.5 L 88.5 93 L 88.5 92 Z " /><path fill="rgb(185,93,76)" stroke="rgb(185,93,76)" stroke-width="1" opacity="1" d="M 102.5 92 L 105 92.5 L 102.5 93 L 102.5 92 Z " /><path fill="rgb(185,93,76)" stroke="rgb(185,93,76)" stroke-width="1" opacity="1" d="M 154 96 Q 157 94.8 156 98.5 L 156 100.5 L 155.5 102 L 154 96 Z " /><path fill="rgb(185,93,76)" stroke="rgb(185,93,76)" stroke-width="1" opacity="1" d="M 77.5 98 L 80 98.5 L 77.5 99 L 77.5 98 Z " /><path fill="rgb(185,93,76)" stroke="rgb(185,93,76)" stroke-width="1" opacity="1" d="M 24.5 99 L 25 101.5 L 22.5 107 L 22 105.5 L 24.5 99 Z " /><path fill="rgb(185,93,76)" stroke="rgb(185,93,76)" stroke-width="1" opacity="1" d="M 86.5 99 L 93 99.5 L 86.5 100 L 86.5 99 Z " /><path fill="rgb(185,93,76)" stroke="rgb(185,93,76)" stroke-width="1" opacity="1" d="M 99.5 99 L 103 99.5 L 99.5 100 L 99.5 99 Z " /><path fill="rgb(185,93,76)" stroke="rgb(185,93,76)" stroke-width="1" opacity="1" d="M 157.5 101 Q 160.6 102.4 160 107.5 L 159 107.5 L 157.5 101 Z " /><path fill="rgb(185,93,76)" stroke="rgb(185,93,76)" stroke-width="1" opacity="1" d="M 19.5 103 L 20 106.5 L 19 106.5 L 19.5 103 Z " /><path fill="rgb(185,93,76)" stroke="rgb(185,93,76)" stroke-width="1" opacity="1" d="M 156.5 103 L 157 113.5 L 156 113.5 L 156.5 103 Z " /><path fill="rgb(185,93,76)" stroke="rgb(185,93,76)" stroke-width="1" opacity="1" d="M 21.5 108 L 22 113.5 L 21 114.5 L 21 126.5 L 24 128 L 24 132.5 L 27 139 Q 29.7 137.9 29 140.5 Q 30.4 145 36 144 Q 37.8 148.5 32.5 147 L 29.5 143 Q 27.8 145.8 26 141.5 L 29 142.5 L 25.5 138 Q 24.3 140.3 23 137.5 L 25 137.5 L 21.5 130 L 20.5 132 L 20 130.5 L 21 127.5 L 20 127.5 L 19.5 129 L 19 127.5 L 20 126.5 L 20 112.5 L 21.5 108 Z " /><path fill="rgb(185,93,76)" stroke="rgb(185,93,76)" stroke-width="1" opacity="1" d="M 160.5 109 L 161 116.5 L 154 129 L 152 128.5 Q 160.6 123.1 160.5 109 Z " /><path fill="rgb(185,93,76)" stroke="rgb(185,93,76)" stroke-width="1" opacity="1" d="M 18.5 110 L 19 115.5 L 18 115.5 L 18.5 110 Z " /><path fill="rgb(185,93,76)" stroke="rgb(185,93,76)" stroke-width="1" opacity="1" d="M 153.5 120 L 147.5 127 L 144.5 128 L 144.5 127 Q 151 125.5 153.5 120 Z " /><path fill="rgb(185,93,76)" stroke="rgb(185,93,76)" stroke-width="1" opacity="1" d="M 18.5 121 L 19 124.5 L 18 124.5 L 18.5 121 Z " /><path fill="rgb(185,93,76)" stroke="rgb(185,93,76)" stroke-width="1" opacity="1" d="M 151.5 130 L 152 132 L 150 131.5 L 151.5 130 Z " /><path fill="rgb(185,93,76)" stroke="rgb(185,93,76)" stroke-width="1" opacity="1" d="M 148.5 132 L 147.5 134 L 143 136.5 L 145 140.5 L 146 148.5 L 145 148.5 L 142 135 L 148.5 132 Z " /><path fill="rgb(185,93,76)" stroke="rgb(185,93,76)" stroke-width="1" opacity="1" d="M 21.5 133 L 23 135.5 L 21 134.5 L 21.5 133 Z " /><path fill="rgb(185,93,76)" stroke="rgb(185,93,76)" stroke-width="1" opacity="1" d="M 46.5 134 L 47 135.5 L 45 140.5 L 44.5 152 L 44 140.5 L 46.5 134 Z " /><path fill="rgb(185,93,76)" stroke="rgb(185,93,76)" stroke-width="1" opacity="1" d="M 135.5 149 L 138 150.5 L 136.5 151 L 135.5 149 Z " /><path fill="rgb(185,93,76)" stroke="rgb(185,93,76)" stroke-width="1" opacity="1" d="M 104 152 L 108 152.5 L 104.5 154 L 104 152 Z " /><path fill="rgb(185,93,76)" stroke="rgb(185,93,76)" stroke-width="1" opacity="1" d="M 138.5 156 L 141 156.5 L 138.5 157 L 138.5 156 Z " /><path fill="rgb(185,93,76)" stroke="rgb(185,93,76)" stroke-width="1" opacity="1" d="M 123.5 158 L 126 158.5 L 123.5 159 L 123.5 158 Z " /><path fill="rgb(185,93,76)" stroke="rgb(185,93,76)" stroke-width="1" opacity="1" d="M 143.5 158 L 147 163.5 L 139.5 164 L 140.5 162 L 144 161 L 143.5 158 Z " /><path fill="rgb(185,93,76)" stroke="rgb(185,93,76)" stroke-width="1" opacity="1" d="M 113.5 159 L 117 159.5 L 113.5 160 L 113.5 159 Z " /><path fill="rgb(185,93,76)" stroke="rgb(185,93,76)" stroke-width="1" opacity="1" d="M 59.5 160 L 63 160.5 L 59.5 161 L 59.5 160 Z " /><path fill="rgb(185,93,76)" stroke="rgb(185,93,76)" stroke-width="1" opacity="1" d="M 101.5 160 L 108 160.5 L 101.5 161 L 101.5 160 Z " /><path fill="rgb(185,93,76)" stroke="rgb(185,93,76)" stroke-width="1" opacity="1" d="M 51.5 163 L 59 169.5 L 56.5 173 L 58 170.5 L 56.5 168 L 51.5 163 Z " /><path fill="rgb(185,93,76)" stroke="rgb(185,93,76)" stroke-width="1" opacity="1" d="M 93.5 164 L 101 164.5 L 93.5 165 L 93.5 164 Z " /><path fill="rgb(185,93,76)" stroke="rgb(185,93,76)" stroke-width="1" opacity="1" d="M 137.5 164 L 136 166.5 L 141 173.5 L 138 171.5 L 135 166.5 L 137.5 164 Z " /><path fill="rgb(185,93,76)" stroke="rgb(185,93,76)" stroke-width="1" opacity="1" d="M 47 168 Q 50 166.8 49 170.5 L 47 173.5 Q 47.6 179.6 45 182.5 L 42.5 200 L 42 192.5 L 46 173.5 L 45.5 172 L 47 172.5 L 46 170.5 L 47 168 Z " /><path fill="rgb(185,93,76)" stroke="rgb(185,93,76)" stroke-width="1" opacity="1" d="M 74.5 171 L 70.5 176 L 74.5 171 Z " /><path fill="rgb(185,93,76)" stroke="rgb(185,93,76)" stroke-width="1" opacity="1" d="M 123.5 172 L 124.5 174 L 123.5 172 Z " /><path fill="rgb(185,93,76)" stroke="rgb(185,93,76)" stroke-width="1" opacity="1" d="M 54.5 175 L 54 176.5 L 52.5 180 L 52 176 L 54.5 175 Z " /><path fill="rgb(185,93,76)" stroke="rgb(185,93,76)" stroke-width="1" opacity="1" d="M 141.5 175 L 146 182.5 L 149 198.5 L 147 199.5 Q 146.9 183.7 141.5 175 Z " /><path fill="rgb(185,93,76)" stroke="rgb(185,93,76)" stroke-width="1" opacity="1" d="M 68.5 178 L 67.5 180 L 68.5 178 Z " /><path fill="rgb(185,93,76)" stroke="rgb(185,93,76)" stroke-width="1" opacity="1" d="M 38.5 193 L 39 195.5 L 38 195.5 L 38.5 193 Z " /><path fill="rgb(185,93,76)" stroke="rgb(185,93,76)" stroke-width="1" opacity="1" d="M 48.5 193 L 49 199.5 L 48 199.5 L 48.5 193 Z " /><path fill="rgb(185,93,76)" stroke="rgb(185,93,76)" stroke-width="1" opacity="1" d="M 62.5 193 L 63 199.5 L 62 199.5 L 62.5 193 Z " /><path fill="rgb(185,93,76)" stroke="rgb(185,93,76)" stroke-width="1" opacity="1" d="M 37.5 197 L 38 199.5 L 37 199.5 L 37.5 197 Z " /><path fill="rgb(185,92,76)" stroke="rgb(185,92,76)" stroke-width="1" opacity="1" d="M 62.5 57 L 63.5 58 L 74.5 59 L 77 61.5 L 76 64 Q 79.6 66.3 88.5 65 L 98.5 63 L 99.5 64 L 121.5 64 L 122.5 65 L 138.5 65 L 140.5 66 L 146.5 58 L 152 62.5 Q 151.3 64.8 153.5 64 L 161 72.5 Q 160.3 78.3 164.5 79 Q 172 82 176 88.5 L 182 102.5 L 182 115.5 L 178 129.5 L 169.5 140 L 159.5 146 L 146 149 L 145 140.5 L 143 136.5 L 149.5 132 L 152 132 L 152 129 Q 154.7 130.1 154 127.5 Q 161.7 122.7 161 109.5 L 156 96 L 153 94.5 L 144.5 83 Q 138.9 78.6 128.5 79 L 105.5 86 L 94.5 87 Q 93 84.5 87.5 86 L 79 82.5 L 80 80 L 76 80.5 L 78 81.5 L 76.5 82 Q 69.6 76.9 55.5 79 Q 48.8 80.3 45 84.5 Q 32.3 97.8 33 124.5 L 36.5 130 L 46 134.5 Q 42.7 141.2 43.5 152 L 34 147.5 L 36 147 Q 37.8 142.5 32.5 144 L 29 139 Q 26.3 140.1 27 137.5 Q 23.1 134.5 24 128 L 21 126.5 L 21 114.5 L 25 98.5 Q 31.4 86.4 41.5 78 L 50 72.5 L 51 64.5 L 51 62.5 L 52.5 60 L 62.5 57 Z M 93 70 L 90 71 L 89 74 Q 88 79 90 81 L 93 82 L 101 82 L 104 80 Q 105 74 102 72 L 101 70 L 93 70 Z " /><path fill="rgb(185,92,76)" stroke="rgb(185,92,76)" stroke-width="1" opacity="1" d="M 126.5 146 L 129 152 L 105.5 154 L 105.5 153 L 108 152.5 L 104 152 Q 105.4 156 98.5 154 L 97.5 155 L 69.5 155 L 66.5 154 Q 62.1 155.5 63 152.5 L 64 148 L 79.5 148 L 80.5 149 L 82.5 149 L 105.5 149 L 106.5 148 L 115.5 148 L 126.5 146 Z " /><path fill="rgb(185,92,76)" stroke="rgb(185,92,76)" stroke-width="1" opacity="1" d="M 146.5 162 Q 158.4 178.1 165 199.5 L 148.5 200 L 149 198.5 L 146 182.5 L 136 166.5 L 138.5 164 L 147 163.5 L 146.5 162 Z " /><path fill="rgb(185,92,76)" stroke="rgb(185,92,76)" stroke-width="1" opacity="1" d="M 50.5 163 L 58 169.5 L 53.5 176 Q 50.1 175.1 52 180.5 L 49 187.5 L 48 200 L 43 200 L 43 193.5 L 49 168.5 L 49 166.5 L 50.5 163 Z " /><path fill="rgb(235,197,200)" stroke="rgb(235,197,200)" stroke-width="1" opacity="1" d="M 146.5 96 L 149 100.5 L 147.5 100 L 144.5 99 L 112.5 108 Q 107 106.5 105.5 109 L 82.5 109 L 67.5 106 L 60.5 106 L 54.5 103 L 50.5 103 Q 43.9 109.9 46 125.5 L 46.5 127 L 40 123.5 L 40 110.5 L 42 102.5 L 45.5 97 L 52.5 100 L 75.5 105 L 104.5 106 L 126.5 102 L 146.5 96 Z " /><path fill="rgb(235,197,200)" stroke="rgb(235,197,200)" stroke-width="1" opacity="1" d="M 90.5 115 L 96 117.5 L 94 122.5 L 94.5 124 L 88.5 121 L 84 122 L 83 117 L 90.5 115 Z " /><path fill="rgb(235,197,200)" stroke="rgb(235,197,200)" stroke-width="1" opacity="1" d="M 54.5 117 L 55.5 119 L 54.5 117 Z " /><path fill="rgb(235,197,200)" stroke="rgb(235,197,200)" stroke-width="1" opacity="1" d="M 69.5 117 L 68.5 119 L 69.5 117 Z " /><path fill="rgb(235,197,200)" stroke="rgb(235,197,200)" stroke-width="1" opacity="1" d="M 127.5 117 L 125.5 120 L 124 119.5 L 127.5 117 Z " /><path fill="rgb(235,197,200)" stroke="rgb(235,197,200)" stroke-width="1" opacity="1" d="M 147.5 117 L 145.5 120 L 147.5 117 Z " /><path fill="rgb(235,197,200)" stroke="rgb(235,197,200)" stroke-width="1" opacity="1" d="M 116.5 120 L 123 120.5 L 116.5 121 L 116.5 120 Z " /><path fill="rgb(235,197,200)" stroke="rgb(235,197,200)" stroke-width="1" opacity="1" d="M 96.5 124 L 97.5 126 L 96.5 124 Z " /><path fill="rgb(235,197,200)" stroke="rgb(235,197,200)" stroke-width="1" opacity="1" d="M 81.5 125 L 80.5 127 L 81.5 125 Z " /><path fill="rgb(235,197,200)" stroke="rgb(235,197,200)" stroke-width="1" opacity="1" d="M 101.5 127 Q 104.8 127.8 104 132.5 L 101.5 134 L 101.5 133 Q 104.5 133.9 103 129.5 L 101.5 127 Z " /><path fill="rgb(235,197,200)" stroke="rgb(235,197,200)" stroke-width="1" opacity="1" d="M 88.5 128 L 92 129.5 L 90.5 129 L 87.5 130 L 88.5 128 Z " /><path fill="rgb(235,197,200)" stroke="rgb(235,197,200)" stroke-width="1" opacity="1" d="M 77.5 129 L 79 132.5 L 77 131.5 L 77.5 129 Z " /><path fill="rgb(235,197,200)" stroke="rgb(235,197,200)" stroke-width="1" opacity="1" d="M 85.5 130 L 84.5 132 L 85.5 130 Z " /><path fill="rgb(235,197,200)" stroke="rgb(235,197,200)" stroke-width="1" opacity="1" d="M 56.5 131 L 57.5 133 L 56.5 131 Z " /><path fill="rgb(235,197,200)" stroke="rgb(235,197,200)" stroke-width="1" opacity="1" d="M 97.5 132 L 100 133.5 L 98.5 134 L 97.5 132 Z " /><path fill="rgb(235,197,200)" stroke="rgb(235,197,200)" stroke-width="1" opacity="1" d="M 59.5 133 L 69 140.5 L 64.5 141 L 59.5 133 Z " /><path fill="rgb(235,197,200)" stroke="rgb(235,197,200)" stroke-width="1" opacity="1" d="M 118.5 140 L 123 140.5 L 118.5 141 L 118.5 140 Z " /><path fill="rgb(235,197,200)" stroke="rgb(235,197,200)" stroke-width="1" opacity="1" d="M 70.5 141 L 79 141.5 L 70.5 142 L 70.5 141 Z " /><path fill="rgb(235,197,200)" stroke="rgb(235,197,200)" stroke-width="1" opacity="1" d="M 107.5 141 L 113 141.5 L 107.5 142 L 107.5 141 Z " /><path fill="rgb(235,197,200)" stroke="rgb(235,197,200)" stroke-width="1" opacity="1" d="M 90.5 142 L 96 142.5 L 90.5 143 L 90.5 142 Z " /><path fill="rgb(251,243,243)" stroke="rgb(251,243,243)" stroke-width="1" opacity="1" d="M 144.5 99 L 149 101.5 L 150 111.5 Q 148.8 117.3 144.5 120 L 130 126 L 125 136.5 L 126 140 L 107.5 141 L 106.5 142 L 79.5 142 L 78.5 141 L 69.5 141 L 63.5 135 L 46 125.5 Q 43.9 109.9 50.5 103 L 54.5 103 L 60.5 106 L 67.5 106 L 82.5 109 L 105.5 109 L 136.5 102 L 144.5 99 Z M 59 110 L 57 111 Q 53 112 54 118 L 60 121 Q 66 122 69 119 L 71 114 Q 68 108 59 110 Z M 117 110 L 111 114 L 112 118 L 117 121 L 126 120 Q 129 119 128 116 Q 125 110 117 110 Z M 91 115 L 83 117 L 84 122 L 86 123 L 78 127 L 77 132 L 81 134 L 89 129 L 99 134 L 103 134 Q 105 133 104 130 L 94 123 L 96 118 L 91 115 Z " /><path fill="rgb(251,243,243)" stroke="rgb(251,243,243)" stroke-width="1" opacity="1" d="M 88.5 183 L 93 184 Q 94.5 190.3 90.5 192 L 86.5 193 L 83 190.5 L 82 188.5 L 84.5 185 L 88.5 183 Z " /><path fill="rgb(95,135,175)" stroke="rgb(95,135,175)" stroke-width="1" opacity="1" d="M 150.5 107 L 151 109.5 L 150 109.5 L 150.5 107 Z " /><path fill="rgb(95,135,175)" stroke="rgb(95,135,175)" stroke-width="1" opacity="1" d="M 60.5 110 L 65 110.5 L 60.5 111 L 60.5 110 Z " /><path fill="rgb(95,135,175)" stroke="rgb(95,135,175)" stroke-width="1" opacity="1" d="M 39.5 120 L 40 122.5 L 39 122.5 L 39.5 120 Z " /><path fill="rgb(95,135,175)" stroke="rgb(95,135,175)" stroke-width="1" opacity="1" d="M 129.5 128 L 128.5 130 L 129.5 128 Z " /><path fill="rgb(95,135,175)" stroke="rgb(95,135,175)" stroke-width="1" opacity="1" d="M 67.5 141 L 70 141.5 L 67.5 142 L 67.5 141 Z " /><path fill="rgb(95,135,175)" stroke="rgb(95,135,175)" stroke-width="1" opacity="1" d="M 97.5 142 L 104 142.5 L 97.5 143 L 97.5 142 Z " /><path fill="rgb(95,135,175)" stroke="rgb(95,135,175)" stroke-width="1" opacity="1" d="M 91.5 176 Q 112.3 174.2 119 186.5 L 123 195.5 L 123 200 L 73.5 200 Q 72.3 199.8 73 193.5 Q 75 183.5 82.5 179 L 91.5 176 Z M 88 183 L 82 188 L 83 192 L 90 193 L 94 188 L 93 185 Q 92 182 88 183 Z " /><path fill="rgb(7,5,4)" stroke="rgb(7,5,4)" stroke-width="1" opacity="0.9921568627450981" d="M 155.5 38 Q 159.5 37.5 160 40.5 L 165 55.5 L 167 74 L 179 82.5 L 187 98.5 Q 189.3 105.2 188 115.5 L 184 130.5 Q 179.8 139.3 172.5 145 L 162.5 151 L 148 154.5 L 157 166.5 Q 165.7 181.3 171 199.5 L 165 200 Q 158.8 173 141.5 156 L 120.5 158 L 119.5 159 L 110.5 159 L 109.5 160 L 96.5 160 L 95.5 161 L 69.5 161 L 68.5 160 L 53.5 159 Q 39.3 174.1 37 200 L 31 199.5 L 37 176.5 L 47 158.5 Q 31.3 155.2 22 145.5 Q 15.8 138.7 13 128.5 L 12 112.5 L 15 96.5 Q 20.1 82.6 30.5 74 L 36 69.5 Q 37.4 48.4 50.5 39 L 55.5 39 L 64.5 43 L 79 54.5 L 80.5 57 L 93.5 56 L 94.5 55 L 116.5 55 Q 118 57.5 123.5 56 L 132.5 48 L 155.5 38 Z M 53 44 L 44 56 L 42 61 L 41 71 L 39 75 L 33 79 Q 25 86 21 96 L 17 116 L 18 128 L 23 139 Q 30 148 42 152 L 57 154 L 58 152 Q 60 143 57 140 Q 50 132 38 130 L 34 126 L 35 106 Q 38 94 44 87 L 51 81 L 61 79 L 71 80 L 90 87 L 104 87 L 127 80 Q 139 78 145 84 Q 154 91 156 105 Q 157 116 152 122 Q 146 128 136 130 L 132 134 L 133 146 L 137 151 L 156 148 L 171 140 L 180 127 L 183 113 L 182 100 L 176 88 Q 172 81 165 78 L 162 76 L 160 57 L 156 44 Q 136 48 126 61 L 115 61 L 114 60 L 88 61 L 87 62 L 79 62 L 65 49 L 53 44 Z M 56 85 L 52 87 L 48 92 L 57 95 L 84 100 L 106 100 L 142 92 L 143 89 L 135 85 L 128 85 L 106 92 L 88 92 L 69 85 L 56 85 Z M 147 95 L 131 100 L 107 105 L 82 105 Q 80 102 74 104 L 60 100 L 56 100 L 44 96 L 40 107 L 39 125 Q 49 127 58 133 L 62 138 L 62 140 L 66 142 L 78 142 L 79 143 L 109 143 L 110 142 L 126 141 L 127 140 L 128 131 L 133 126 L 147 120 L 150 116 L 151 112 Q 151 101 147 95 Z M 122 146 L 111 148 L 76 148 L 75 147 L 64 147 L 63 154 L 63 155 L 107 155 L 108 154 L 126 153 L 130 152 L 129 148 Q 128 144 122 146 Z " /><path fill="rgb(7,5,4)" stroke="rgb(7,5,4)" stroke-width="1" opacity="0.9921568627450981" d="M 58.5 111 Q 66.8 109.8 70 113.5 Q 70.8 117.3 68.5 118 Q 65.9 121.4 58.5 120 L 55 117.5 L 54 114.5 L 58.5 111 Z " /><path fill="rgb(7,5,4)" stroke="rgb(7,5,4)" stroke-width="1" opacity="0.9921568627450981" d="M 114.5 111 Q 124.6 109.4 127 115.5 L 124.5 119 L 116.5 120 L 112 116.5 Q 111.3 111.8 114.5 111 Z " /><path fill="rgb(7,5,4)" stroke="rgb(7,5,4)" stroke-width="1" opacity="0.9921568627450981" d="M 88.5 122 Q 97.9 124.1 103 130.5 L 101.5 133 L 91.5 128 L 87.5 128 L 82.5 132 L 79.5 132 Q 76.8 130.8 79 129.5 L 80.5 127 L 88.5 122 Z " /><path fill="rgb(7,5,4)" stroke="rgb(7,5,4)" stroke-width="1" opacity="0.9921568627450981" d="M 91.5 165 L 102.5 165 L 115.5 168 Q 123.7 171.3 128 178.5 Q 134.2 186.6 134 200 L 129 200 L 129 198.5 L 127 188.5 L 119.5 177 Q 109.9 168.6 89.5 171 Q 80.1 173.1 75 179.5 L 69 190.5 L 69 200 L 63 200 L 63 192.5 Q 65.8 179.3 74.5 172 Q 81.1 166.6 91.5 165 Z " /><path fill="rgb(215,172,94)" stroke="rgb(215,172,94)" stroke-width="1" opacity="1" d="M 52.5 45 L 61.5 48 L 74 58.5 L 72.5 59 L 65.5 57 L 58.5 57 Q 52.8 58.3 50 62.5 L 49 72.5 L 47.5 74 Q 38.5 78 33 85.5 L 28 91.5 L 21 108.5 Q 18.6 115.6 20 126.5 Q 23.1 136.9 30 143.5 L 25 139.5 Q 18.1 131.4 18 116.5 L 19 115.5 L 20 101.5 L 22 95.5 Q 26.8 84.8 35.5 78 L 41 73.5 L 42 70.5 L 41 68.5 L 43 59.5 L 48 49.5 L 52.5 45 Z " /><path fill="rgb(215,172,94)" stroke="rgb(215,172,94)" stroke-width="1" opacity="1" d="M 152.5 45 Q 156.9 43.5 156 46.5 L 160 59.5 L 161 70.5 L 146.5 57 L 145 58.5 L 140.5 65 L 127.5 64 L 126.5 63 L 88 62.5 L 106.5 62 L 109.5 61 L 110.5 62 L 126.5 62 L 132.5 55 L 152.5 45 Z " /><path fill="rgb(215,172,94)" stroke="rgb(215,172,94)" stroke-width="1" opacity="1" d="M 79.5 63 L 87 63.5 L 79.5 64 L 79.5 63 Z " /><path fill="rgb(215,172,94)" stroke="rgb(215,172,94)" stroke-width="1" opacity="1" d="M 93.5 70 Q 100 69 102 72.5 L 103 78.5 L 102 81 L 93.5 82 L 90 79.5 L 89 76.5 L 91.5 71 L 93.5 70 Z " /><path fill="rgb(215,172,94)" stroke="rgb(215,172,94)" stroke-width="1" opacity="1" d="M 60.5 85 L 69.5 86 L 88.5 93 L 104.5 93 L 126.5 86 L 135.5 86 L 142 90.5 L 118.5 97 L 93.5 100 L 92.5 99 L 72.5 98 L 49 92 L 52.5 87 L 60.5 85 Z " /><path fill="rgb(215,172,94)" stroke="rgb(215,172,94)" stroke-width="1" opacity="1" d="M 156.5 100 L 160 108.5 L 160 116.5 Q 156.9 126.4 149.5 132 L 142 135 L 145 149 L 136.5 150 Q 131.8 144.8 132 134.5 L 139.5 129 L 141.5 129 Q 150.4 127.4 154 120.5 Q 158.5 115 157 103.5 L 156.5 100 Z " /><path fill="rgb(215,172,94)" stroke="rgb(215,172,94)" stroke-width="1" opacity="1" d="M 84.5 105 L 88 105.5 L 84.5 106 L 84.5 105 Z " /><path fill="rgb(215,172,94)" stroke="rgb(215,172,94)" stroke-width="1" opacity="1" d="M 47.5 134 L 57 140.5 L 58 148.5 L 57 153 L 45 152 Q 43.3 140.5 47.5 134 Z " /><path fill="rgb(215,172,94)" stroke="rgb(215,172,94)" stroke-width="1" opacity="1" d="M 134.5 157 Q 142.3 155.3 144 159.5 Q 144.8 161.8 142.5 161 L 135 166.5 L 144 180.5 L 147 192.5 L 147 200 L 135.5 200 L 134 198.5 L 134 191.5 L 132 184.5 L 123.5 172 L 111.5 166 L 93.5 164 L 83.5 166 Q 75.1 169.1 70 175.5 Q 61.9 184.3 62 200 L 49 200 L 49 188.5 Q 51.9 176.9 59 169.5 L 51 162.5 Q 52.3 158.8 58.5 160 L 59.5 161 L 82.5 161 L 83.5 162 L 84.5 161 L 107.5 161 L 108.5 160 L 133.5 158 L 134.5 157 Z " /><path fill="rgb(215,172,94)" stroke="rgb(215,172,94)" stroke-width="1" opacity="1" d="M 46.5 171 L 47 172.5 L 43 185.5 L 42 200 Q 36.4 202.2 38 196.5 Q 40.5 182 46.5 171 Z " /></svg>