<svg width="200" height="200" version="1.1" xmlns="http://www.w3.org/2000/svg" desc="Created with imagetracer.js version 1.2.6" ><path fill="rgb(0,0,0)" stroke="rgb(0,0,0)" stroke-width="1" opacity="0.08235294117647059" d="M 92.5 19 L 106 19.5 L 92.5 20 L 92.5 19 Z " /><path fill="rgb(0,0,0)" stroke="rgb(0,0,0)" stroke-width="1" opacity="0.08235294117647059" d="M 78.5 20 L 90 20.5 L 71.5 22 L 71.5 21 Q 77 22.5 78.5 20 Z " /><path fill="rgb(0,0,0)" stroke="rgb(0,0,0)" stroke-width="1" opacity="0.08235294117647059" d="M 108.5 20 Q 118.7 18.8 125 21.5 L 120.5 22 L 119.5 21 L 108.5 21 L 108.5 20 Z " /><path fill="rgb(0,0,0)" stroke="rgb(0,0,0)" stroke-width="1" opacity="0.08235294117647059" d="M 64.5 22 L 70 22.5 L 58.5 25 L 58.5 24 L 64.5 22 Z " /><path fill="rgb(0,0,0)" stroke="rgb(0,0,0)" stroke-width="1" opacity="0.08235294117647059" d="M 126.5 22 L 129 22.5 L 126.5 23 L 126.5 22 Z " /><path fill="rgb(0,0,0)" stroke="rgb(0,0,0)" stroke-width="1" opacity="0.08235294117647059" d="M 130.5 23 L 133 23.5 L 130.5 24 L 130.5 23 Z " /><path fill="rgb(0,0,0)" stroke="rgb(0,0,0)" stroke-width="1" opacity="0.08235294117647059" d="M 134.5 24 L 144 26.5 L 141.5 27 L 134.5 25 L 134.5 24 Z " /><path fill="rgb(0,0,0)" stroke="rgb(0,0,0)" stroke-width="1" opacity="0.08235294117647059" d="M 55.5 25 L 57 25.5 L 51 29.5 L 49.5 37 L 49 33.5 L 51 27 L 55.5 25 Z " /><path fill="rgb(0,0,0)" stroke="rgb(0,0,0)" stroke-width="1" opacity="0.08235294117647059" d="M 145.5 27 L 155.5 31 L 175 44.5 L 174.5 48 Q 174.7 43.3 171.5 42 L 155.5 32 L 145.5 28 L 145.5 27 Z " /><path fill="rgb(0,0,0)" stroke="rgb(0,0,0)" stroke-width="1" opacity="0.08235294117647059" d="M 48.5 38 L 49 42.5 L 48 42.5 L 48.5 38 Z " /><path fill="rgb(0,0,0)" stroke="rgb(0,0,0)" stroke-width="1" opacity="0.08235294117647059" d="M 47.5 44 L 48 52.5 L 46.5 61 L 46 53.5 L 47 52.5 L 47.5 44 Z " /><path fill="rgb(0,0,0)" stroke="rgb(0,0,0)" stroke-width="1" opacity="0.08235294117647059" d="M 173.5 49 L 174 61.5 L 173 61.5 L 173.5 49 Z " /><path fill="rgb(0,0,0)" stroke="rgb(0,0,0)" stroke-width="1" opacity="0.08235294117647059" d="M 45.5 62 L 46 68.5 L 45 68.5 L 45.5 62 Z " /><path fill="rgb(0,0,0)" stroke="rgb(0,0,0)" stroke-width="1" opacity="0.08235294117647059" d="M 172.5 63 L 173 71.5 L 172 71.5 L 172.5 63 Z " /><path fill="rgb(0,0,0)" stroke="rgb(0,0,0)" stroke-width="1" opacity="0.08235294117647059" d="M 44.5 70 L 45 74.5 L 44 74.5 L 44.5 70 Z " /><path fill="rgb(0,0,0)" stroke="rgb(0,0,0)" stroke-width="1" opacity="0.08235294117647059" d="M 171.5 73 L 172 79.5 L 171 79.5 L 171.5 73 Z " /><path fill="rgb(0,0,0)" stroke="rgb(0,0,0)" stroke-width="1" opacity="0.08235294117647059" d="M 43.5 76 L 44 80.5 L 43 81.5 L 43 89.5 L 40.5 95 Q 32.9 91.6 20.5 93 L 14 98.5 L 20.5 92 L 33.5 92 L 41 94 L 43.5 76 Z " /><path fill="rgb(0,0,0)" stroke="rgb(0,0,0)" stroke-width="1" opacity="0.08235294117647059" d="M 170.5 81 L 171 86.5 L 170 86.5 L 170.5 81 Z " /><path fill="rgb(0,0,0)" stroke="rgb(0,0,0)" stroke-width="1" opacity="0.08235294117647059" d="M 169.5 88 L 170 94.5 L 169 94.5 L 169.5 88 Z " /><path fill="rgb(0,0,0)" stroke="rgb(0,0,0)" stroke-width="1" opacity="0.08235294117647059" d="M 168.5 96 L 169 102 Q 181.3 103 187 111.5 L 188 116.5 L 187 116.5 Q 186.8 109.3 181.5 107 L 168 101.5 L 168.5 96 Z " /><path fill="rgb(0,0,0)" stroke="rgb(0,0,0)" stroke-width="1" opacity="0.08235294117647059" d="M 13.5 100 L 14 101.5 L 12 104.5 L 11.5 114 L 11 104.5 L 13.5 100 Z " /><path fill="rgb(0,0,0)" stroke="rgb(0,0,0)" stroke-width="1" opacity="0.08235294117647059" d="M 13.5 118 L 21.5 128 L 24 129.5 L 22.5 129 L 17 124.5 L 13.5 118 Z " /><path fill="rgb(0,0,0)" stroke="rgb(0,0,0)" stroke-width="1" opacity="0.08235294117647059" d="M 187.5 120 L 188 124.5 Q 184.9 134.9 177.5 141 L 175.5 142 L 176.5 140 L 180 137.5 Q 186.4 131.4 187.5 120 Z " /><path fill="rgb(0,0,0)" stroke="rgb(0,0,0)" stroke-width="1" opacity="0.08235294117647059" d="M 25.5 130 L 28 131.5 L 26.5 132 L 25.5 130 Z " /><path fill="rgb(0,0,0)" stroke="rgb(0,0,0)" stroke-width="1" opacity="0.08235294117647059" d="M 29.5 132 L 36 134.5 L 35.5 136 L 35 134 Q 30.1 134.8 29.5 132 Z " /><path fill="rgb(0,0,0)" stroke="rgb(0,0,0)" stroke-width="1" opacity="0.08235294117647059" d="M 34.5 137 L 35 148.5 L 34 148.5 L 34.5 137 Z " /><path fill="rgb(0,0,0)" stroke="rgb(0,0,0)" stroke-width="1" opacity="0.08235294117647059" d="M 170.5 143 L 172 143.5 L 162 147.5 L 161.5 153 L 161 147.5 L 163.5 145 L 170.5 143 Z " /><path fill="rgb(0,0,0)" stroke="rgb(0,0,0)" stroke-width="1" opacity="0.08235294117647059" d="M 35.5 150 L 37 159.5 L 41 166.5 L 41 169.5 L 40 169.5 L 40 166.5 L 35 155.5 L 35.5 150 Z " /><path fill="rgb(0,0,0)" stroke="rgb(0,0,0)" stroke-width="1" opacity="0.08235294117647059" d="M 160.5 154 L 161 156.5 L 160 156.5 L 160.5 154 Z " /><path fill="rgb(0,0,0)" stroke="rgb(0,0,0)" stroke-width="1" opacity="0.08235294117647059" d="M 159.5 158 L 160 159.5 L 154.5 170 L 155 168.5 L 159.5 158 Z " /><path fill="rgb(0,0,0)" stroke="rgb(0,0,0)" stroke-width="1" opacity="0.08235294117647059" d="M 41.5 171 L 45 178 L 51 181.5 L 49.5 181 L 43 176.5 L 41.5 171 Z " /><path fill="rgb(0,0,0)" stroke="rgb(0,0,0)" stroke-width="1" opacity="0.08235294117647059" d="M 153.5 171 L 148.5 177 L 145 178.5 Q 150.5 184 153 192.5 L 152 192.5 L 144 178.5 L 153.5 171 Z " /><path fill="rgb(0,0,0)" stroke="rgb(0,0,0)" stroke-width="1" opacity="0.08235294117647059" d="M 52.5 182 L 55 183.5 L 47.5 197 L 47 195.5 L 54 183 L 52.5 182 Z " /><path fill="rgb(0,0,0)" stroke="rgb(0,0,0)" stroke-width="1" opacity="0.08235294117647059" d="M 153.5 194 L 156 199.5 L 155 199.5 L 153.5 194 Z " /><path fill="rgb(143,110,112)" stroke="rgb(143,110,112)" stroke-width="1" opacity="1" d="M 85.5 27 L 114 27.5 L 81.5 32 L 74.5 34 L 72 36.5 L 70 56.5 L 66 71.5 L 66 82 L 69.5 83 L 71.5 82 L 80 84 L 80 93.5 L 78 100 L 64.5 99 L 61.5 100 L 60.5 99 L 52.5 99 L 47 97 L 48 94.5 L 49 81 L 52 80.5 Q 49.5 79 51 73.5 L 53 66.5 L 54 50.5 L 57 35.5 L 60.5 31 L 68.5 29 L 84.5 28 L 85.5 27 Z " /><path fill="rgb(143,110,112)" stroke="rgb(143,110,112)" stroke-width="1" opacity="1" d="M 23.5 99 L 27.5 100 L 29.5 99 L 52.5 106 L 61.5 106 L 71.5 108 L 95.5 108 L 96.5 107 L 149.5 107 L 150.5 108 L 157 108 L 155.5 112 L 153.5 111 L 125.5 110 L 124.5 109 L 89.5 109 L 88.5 110 L 67.5 110 L 58.5 108 L 42.5 107 L 34.5 104 L 27.5 104 L 21 108.5 L 19.5 111 L 18 108.5 L 23.5 99 Z " /><path fill="rgb(143,110,112)" stroke="rgb(143,110,112)" stroke-width="1" opacity="1" d="M 65.5 129 L 89.5 129 L 90.5 130 L 112.5 132 L 134.5 137 L 152.5 143 L 156 145.5 L 155 152 L 123 161 L 122.5 163 Q 119.6 155.4 113.5 151 Q 107.7 146.3 95.5 148 L 86.5 153 L 72.5 146 L 64.5 146 L 56 153.5 Q 56.9 156.5 52.5 155 L 41 149 L 41 135.5 L 42.5 134 L 45.5 132 L 64.5 130 L 65.5 129 Z " /><path fill="rgb(143,110,112)" stroke="rgb(143,110,112)" stroke-width="1" opacity="1" d="M 41.5 150 L 42 152.5 L 41 152.5 L 41.5 150 Z " /><path fill="rgb(143,110,112)" stroke="rgb(143,110,112)" stroke-width="1" opacity="1" d="M 98.5 153 L 104 153.5 L 98.5 154 L 98.5 153 Z " /><path fill="rgb(143,110,112)" stroke="rgb(143,110,112)" stroke-width="1" opacity="1" d="M 92.5 155 L 91.5 157 L 92.5 155 Z " /><path fill="rgb(143,110,112)" stroke="rgb(143,110,112)" stroke-width="1" opacity="1" d="M 108.5 155 L 109.5 157 L 108.5 155 Z " /><path fill="rgb(143,110,112)" stroke="rgb(143,110,112)" stroke-width="1" opacity="1" d="M 61.5 156 L 60.5 158 L 61.5 156 Z " /><path fill="rgb(143,110,112)" stroke="rgb(143,110,112)" stroke-width="1" opacity="1" d="M 81.5 156 L 82.5 158 L 81.5 156 Z " /><path fill="rgb(143,110,112)" stroke="rgb(143,110,112)" stroke-width="1" opacity="1" d="M 89.5 157 L 88.5 159 L 89.5 157 Z " /><path fill="rgb(143,110,112)" stroke="rgb(143,110,112)" stroke-width="1" opacity="1" d="M 111.5 157 L 114.5 161 L 111.5 157 Z " /><path fill="rgb(143,110,112)" stroke="rgb(143,110,112)" stroke-width="1" opacity="1" d="M 43.5 158 L 45 160.5 L 43 159.5 L 43.5 158 Z " /><path fill="rgb(143,110,112)" stroke="rgb(143,110,112)" stroke-width="1" opacity="1" d="M 45.5 162 L 46.5 164 L 45.5 162 Z " /><path fill="rgb(143,110,112)" stroke="rgb(143,110,112)" stroke-width="1" opacity="1" d="M 56.5 166 L 54.5 169 L 56.5 166 Z " /><path fill="rgb(143,110,112)" stroke="rgb(143,110,112)" stroke-width="1" opacity="1" d="M 149.5 166 L 144.5 172 L 142.5 173 L 143.5 171 L 149.5 166 Z " /><path fill="rgb(143,110,112)" stroke="rgb(143,110,112)" stroke-width="1" opacity="1" d="M 118.5 167 L 119.5 169 L 118.5 167 Z " /><path fill="rgb(143,110,112)" stroke="rgb(143,110,112)" stroke-width="1" opacity="1" d="M 84.5 169 L 87 169.5 L 84.5 170 L 84.5 169 Z " /><path fill="rgb(143,110,112)" stroke="rgb(143,110,112)" stroke-width="1" opacity="1" d="M 128.5 169 L 132 169.5 L 128.5 170 L 128.5 169 Z " /><path fill="rgb(143,110,112)" stroke="rgb(143,110,112)" stroke-width="1" opacity="1" d="M 135.5 169 L 136.5 171 L 135.5 169 Z " /><path fill="rgb(143,110,112)" stroke="rgb(143,110,112)" stroke-width="1" opacity="1" d="M 82.5 170 L 80.5 173 L 82.5 170 Z " /><path fill="rgb(143,110,112)" stroke="rgb(143,110,112)" stroke-width="1" opacity="1" d="M 88.5 170 L 90.5 173 L 88.5 170 Z " /><path fill="rgb(143,110,112)" stroke="rgb(143,110,112)" stroke-width="1" opacity="1" d="M 120.5 170 L 123.5 174 L 120.5 170 Z " /><path fill="rgb(143,110,112)" stroke="rgb(143,110,112)" stroke-width="1" opacity="1" d="M 48.5 172 L 49.5 174 L 48.5 172 Z " /><path fill="rgb(143,110,112)" stroke="rgb(143,110,112)" stroke-width="1" opacity="1" d="M 78.5 173 L 77.5 175 L 78.5 173 Z " /><path fill="rgb(143,110,112)" stroke="rgb(143,110,112)" stroke-width="1" opacity="1" d="M 92.5 173 L 93.5 175 L 92.5 173 Z " /><path fill="rgb(143,110,112)" stroke="rgb(143,110,112)" stroke-width="1" opacity="1" d="M 51.5 174 L 52.5 176 L 51.5 174 Z " /><path fill="rgb(143,110,112)" stroke="rgb(143,110,112)" stroke-width="1" opacity="1" d="M 75.5 175 L 74.5 177 L 75.5 175 Z " /><path fill="rgb(143,110,112)" stroke="rgb(143,110,112)" stroke-width="1" opacity="1" d="M 127 175 L 129 175.5 L 127 176.5 L 127 175 Z " /><path fill="rgb(143,110,112)" stroke="rgb(143,110,112)" stroke-width="1" opacity="1" d="M 85.5 176 L 89 178.5 L 88 183 Q 85.2 181.1 79 182 L 81.5 178 L 85.5 176 Z " /><path fill="rgb(143,110,112)" stroke="rgb(143,110,112)" stroke-width="1" opacity="1" d="M 97.5 176 L 98.5 178 L 97.5 176 Z " /><path fill="rgb(143,110,112)" stroke="rgb(143,110,112)" stroke-width="1" opacity="1" d="M 100.5 178 L 101.5 180 L 100.5 178 Z " /><path fill="rgb(143,110,112)" stroke="rgb(143,110,112)" stroke-width="1" opacity="1" d="M 92.5 180 L 94.5 183 L 92.5 180 Z " /><path fill="rgb(143,110,112)" stroke="rgb(143,110,112)" stroke-width="1" opacity="1" d="M 106.5 181 L 113 181.5 L 106.5 182 L 106.5 181 Z " /><path fill="rgb(143,110,112)" stroke="rgb(143,110,112)" stroke-width="1" opacity="1" d="M 73 187 Q 77.1 185.3 76 189.5 L 74 191.5 L 73.5 200 L 70 193.5 L 73 187 Z " /><path fill="rgb(143,110,112)" stroke="rgb(143,110,112)" stroke-width="1" opacity="1" d="M 59.5 189 L 60 193.5 L 59 200 L 54 200 L 54 198.5 L 59.5 189 Z " /><path fill="rgb(47,45,56)" stroke="rgb(47,45,56)" stroke-width="1" opacity="1" d="M 84.5 26 L 113.5 26 L 120 27.5 L 108.5 29 L 108.5 28 L 114 27.5 L 85.5 27 L 84.5 28 L 63.5 30 L 58 33.5 L 54 50.5 L 54 58.5 L 51.5 73 L 51 67.5 L 53 58.5 L 54 41.5 L 56 33.5 L 58.5 31 L 68.5 28 L 75.5 28 L 84.5 26 Z " /><path fill="rgb(47,45,56)" stroke="rgb(47,45,56)" stroke-width="1" opacity="1" d="M 100.5 29 L 107 29.5 L 100.5 30 L 100.5 29 Z " /><path fill="rgb(47,45,56)" stroke="rgb(47,45,56)" stroke-width="1" opacity="1" d="M 92.5 30 L 99 30.5 L 92.5 31 L 92.5 30 Z " /><path fill="rgb(47,45,56)" stroke="rgb(47,45,56)" stroke-width="1" opacity="1" d="M 86.5 31 L 91 31.5 L 89 32 L 85 56.5 L 84 71.5 L 80.5 84 L 79.5 83 L 66 82 L 66 71.5 L 70 56.5 L 72 36.5 L 74.5 34 L 86.5 31 Z " /><path fill="rgb(47,45,56)" stroke="rgb(47,45,56)" stroke-width="1" opacity="1" d="M 50.5 74 L 52 80.5 L 49 81 L 50.5 74 Z " /><path fill="rgb(47,45,56)" stroke="rgb(47,45,56)" stroke-width="1" opacity="1" d="M 23.5 98 L 34.5 99 L 52.5 105 L 61.5 105 L 71.5 107 L 90.5 107 L 91.5 106 L 151.5 106 L 152.5 107 L 162.5 107 L 172.5 109 L 181 114.5 L 182 120.5 L 181 125 L 166.5 115 L 156 113 L 157 108 L 150.5 108 L 149.5 107 L 96.5 107 L 95.5 108 L 71.5 108 L 61.5 106 L 52.5 106 L 28.5 99 L 24.5 100 Q 22.8 97.3 21 101.5 L 18 109.5 Q 19.5 112.5 21 109.5 L 22.5 107 Q 25.7 102.7 34.5 104 Q 40.3 107.7 50 107.5 L 42.5 108 L 33.5 105 L 29.5 105 L 22 109.5 L 20 115 Q 16.3 116.3 18 110.5 L 17 107.5 Q 18.5 101 23.5 98 Z " /><path fill="rgb(47,45,56)" stroke="rgb(47,45,56)" stroke-width="1" opacity="1" d="M 51.5 108 L 59 108.5 L 51.5 109 L 51.5 108 Z " /><path fill="rgb(47,45,56)" stroke="rgb(47,45,56)" stroke-width="1" opacity="1" d="M 60.5 109 L 67 109.5 L 60.5 110 L 60.5 109 Z " /><path fill="rgb(47,45,56)" stroke="rgb(47,45,56)" stroke-width="1" opacity="1" d="M 89.5 109 L 125 109.5 L 89.5 110 L 89.5 109 Z " /><path fill="rgb(47,45,56)" stroke="rgb(47,45,56)" stroke-width="1" opacity="1" d="M 69.5 110 L 88 110.5 L 69.5 111 L 69.5 110 Z " /><path fill="rgb(47,45,56)" stroke="rgb(47,45,56)" stroke-width="1" opacity="1" d="M 127.5 110 L 136 110.5 L 127.5 111 L 127.5 110 Z " /><path fill="rgb(47,45,56)" stroke="rgb(47,45,56)" stroke-width="1" opacity="1" d="M 138.5 111 L 154 111.5 L 138.5 112 L 138.5 111 Z " /><path fill="rgb(47,45,56)" stroke="rgb(47,45,56)" stroke-width="1" opacity="1" d="M 40.5 142 L 41 144.5 L 40 144.5 L 40.5 142 Z " /><path fill="rgb(47,45,56)" stroke="rgb(47,45,56)" stroke-width="1" opacity="1" d="M 62.5 147 L 60.5 150 L 62.5 147 Z " /><path fill="rgb(47,45,56)" stroke="rgb(47,45,56)" stroke-width="1" opacity="1" d="M 67.5 151 L 71 151.5 L 67.5 152 L 67.5 151 Z " /><path fill="rgb(47,45,56)" stroke="rgb(47,45,56)" stroke-width="1" opacity="1" d="M 114.5 152 L 118.5 157 L 114.5 152 Z " /><path fill="rgb(47,45,56)" stroke="rgb(47,45,56)" stroke-width="1" opacity="1" d="M 63.5 153 L 62.5 155 L 63.5 153 Z " /><path fill="rgb(47,45,56)" stroke="rgb(47,45,56)" stroke-width="1" opacity="1" d="M 47.5 164 L 51 164.5 L 47.5 165 L 47.5 164 Z " /><path fill="rgb(47,45,56)" stroke="rgb(47,45,56)" stroke-width="1" opacity="1" d="M 132.5 169 L 135 169.5 L 132.5 170 L 132.5 169 Z " /><path fill="rgb(47,45,56)" stroke="rgb(47,45,56)" stroke-width="1" opacity="1" d="M 92.5 183 L 96 183.5 L 92.5 184 L 92.5 183 Z " /><path fill="rgb(47,45,56)" stroke="rgb(47,45,56)" stroke-width="1" opacity="1" d="M 59.5 188 Q 62.5 187.5 61 194.5 L 59.5 200 L 59 194.5 L 60 189.5 L 59 189.5 L 53.5 200 L 53 198.5 L 59.5 188 Z " /><path fill="rgb(0,0,0)" stroke="rgb(0,0,0)" stroke-width="1" opacity="0.8313725490196079" d="M 90.5 20 L 108 20.5 L 90.5 21 L 90.5 20 Z " /><path fill="rgb(0,0,0)" stroke="rgb(0,0,0)" stroke-width="1" opacity="0.8313725490196079" d="M 78.5 21 L 84 21.5 L 78.5 22 L 78.5 21 Z " /><path fill="rgb(0,0,0)" stroke="rgb(0,0,0)" stroke-width="1" opacity="0.8313725490196079" d="M 115.5 21 L 120 21.5 L 115.5 22 L 115.5 21 Z " /><path fill="rgb(0,0,0)" stroke="rgb(0,0,0)" stroke-width="1" opacity="0.8313725490196079" d="M 70.5 22 L 75 22.5 L 70.5 23 L 70.5 22 Z " /><path fill="rgb(0,0,0)" stroke="rgb(0,0,0)" stroke-width="1" opacity="0.8313725490196079" d="M 122.5 22 L 126 22.5 L 122.5 23 L 122.5 22 Z " /><path fill="rgb(0,0,0)" stroke="rgb(0,0,0)" stroke-width="1" opacity="0.8313725490196079" d="M 64.5 23 L 68 23.5 L 64.5 24 L 64.5 23 Z " /><path fill="rgb(0,0,0)" stroke="rgb(0,0,0)" stroke-width="1" opacity="0.8313725490196079" d="M 127.5 23 L 130 23.5 L 127.5 24 L 127.5 23 Z " /><path fill="rgb(0,0,0)" stroke="rgb(0,0,0)" stroke-width="1" opacity="0.8313725490196079" d="M 131.5 24 L 134 24.5 L 131.5 25 L 131.5 24 Z " /><path fill="rgb(0,0,0)" stroke="rgb(0,0,0)" stroke-width="1" opacity="0.8313725490196079" d="M 57.5 25 L 59 25.5 L 55.5 27 L 55.5 26 L 57.5 25 Z " /><path fill="rgb(0,0,0)" stroke="rgb(0,0,0)" stroke-width="1" opacity="0.8313725490196079" d="M 142.5 27 L 145 27.5 L 142.5 28 L 142.5 27 Z " /><path fill="rgb(0,0,0)" stroke="rgb(0,0,0)" stroke-width="1" opacity="0.8313725490196079" d="M 148.5 29 L 157 33.5 L 155.5 33 L 148.5 30 L 148.5 29 Z " /><path fill="rgb(0,0,0)" stroke="rgb(0,0,0)" stroke-width="1" opacity="0.8313725490196079" d="M 50.5 33 L 51 35.5 L 50 35.5 L 50.5 33 Z " /><path fill="rgb(0,0,0)" stroke="rgb(0,0,0)" stroke-width="1" opacity="0.8313725490196079" d="M 158.5 34 L 162 36.5 L 160.5 36 L 158.5 34 Z " /><path fill="rgb(0,0,0)" stroke="rgb(0,0,0)" stroke-width="1" opacity="0.8313725490196079" d="M 49.5 37 L 50 39.5 L 49 39.5 L 49.5 37 Z " /><path fill="rgb(0,0,0)" stroke="rgb(0,0,0)" stroke-width="1" opacity="0.8313725490196079" d="M 163.5 37 L 167 39.5 L 165.5 39 L 163.5 37 Z " /><path fill="rgb(0,0,0)" stroke="rgb(0,0,0)" stroke-width="1" opacity="0.8313725490196079" d="M 168.5 40 L 169.5 42 L 168.5 40 Z " /><path fill="rgb(0,0,0)" stroke="rgb(0,0,0)" stroke-width="1" opacity="0.8313725490196079" d="M 171.5 42 Q 175 43 174 48.5 L 173 48.5 Q 173.6 43 171.5 42 Z " /><path fill="rgb(0,0,0)" stroke="rgb(0,0,0)" stroke-width="1" opacity="0.8313725490196079" d="M 48.5 43 L 49 48.5 L 48 48.5 L 48.5 43 Z " /><path fill="rgb(0,0,0)" stroke="rgb(0,0,0)" stroke-width="1" opacity="0.8313725490196079" d="M 47.5 53 L 48 57.5 L 47 57.5 L 47.5 53 Z " /><path fill="rgb(0,0,0)" stroke="rgb(0,0,0)" stroke-width="1" opacity="0.8313725490196079" d="M 172.5 54 L 173 62.5 L 172 62.5 L 172.5 54 Z " /><path fill="rgb(0,0,0)" stroke="rgb(0,0,0)" stroke-width="1" opacity="0.8313725490196079" d="M 46.5 61 L 47 66.5 L 46 66.5 L 46.5 61 Z " /><path fill="rgb(0,0,0)" stroke="rgb(0,0,0)" stroke-width="1" opacity="0.8313725490196079" d="M 171.5 67 L 172 72.5 L 171 72.5 L 171.5 67 Z " /><path fill="rgb(0,0,0)" stroke="rgb(0,0,0)" stroke-width="1" opacity="0.8313725490196079" d="M 45.5 69 L 46 73.5 L 45 73.5 L 45.5 69 Z " /><path fill="rgb(0,0,0)" stroke="rgb(0,0,0)" stroke-width="1" opacity="0.8313725490196079" d="M 44.5 75 L 45 77.5 L 44 77.5 L 44.5 75 Z " /><path fill="rgb(0,0,0)" stroke="rgb(0,0,0)" stroke-width="1" opacity="0.8313725490196079" d="M 170.5 76 L 171 80.5 L 170 80.5 L 170.5 76 Z " /><path fill="rgb(0,0,0)" stroke="rgb(0,0,0)" stroke-width="1" opacity="0.8313725490196079" d="M 43.5 81 L 44 85.5 L 43 85.5 L 43.5 81 Z " /><path fill="rgb(0,0,0)" stroke="rgb(0,0,0)" stroke-width="1" opacity="0.8313725490196079" d="M 169.5 84 L 170 87.5 L 169 87.5 L 169.5 84 Z " /><path fill="rgb(0,0,0)" stroke="rgb(0,0,0)" stroke-width="1" opacity="0.8313725490196079" d="M 42.5 90 L 43 92.5 L 42 92.5 L 42.5 90 Z " /><path fill="rgb(0,0,0)" stroke="rgb(0,0,0)" stroke-width="1" opacity="0.8313725490196079" d="M 168.5 91 L 169 95.5 L 168 95.5 L 168.5 91 Z " /><path fill="rgb(0,0,0)" stroke="rgb(0,0,0)" stroke-width="1" opacity="0.8313725490196079" d="M 20.5 93 L 22 93.5 L 15 99.5 L 14.5 101 L 14 99.5 L 20.5 93 Z " /><path fill="rgb(0,0,0)" stroke="rgb(0,0,0)" stroke-width="1" opacity="0.8313725490196079" d="M 31.5 93 L 34 93.5 L 31.5 94 L 31.5 93 Z " /><path fill="rgb(0,0,0)" stroke="rgb(0,0,0)" stroke-width="1" opacity="0.8313725490196079" d="M 36.5 94 L 39 94.5 L 36.5 95 L 36.5 94 Z " /><path fill="rgb(0,0,0)" stroke="rgb(0,0,0)" stroke-width="1" opacity="0.8313725490196079" d="M 41.5 94 L 42 96 L 40 95.5 L 41.5 94 Z " /><path fill="rgb(0,0,0)" stroke="rgb(0,0,0)" stroke-width="1" opacity="0.8313725490196079" d="M 167.5 98 L 169 102.5 L 167 103 L 167.5 98 Z " /><path fill="rgb(0,0,0)" stroke="rgb(0,0,0)" stroke-width="1" opacity="0.8313725490196079" d="M 12.5 104 L 13 106.5 L 12 106.5 L 12.5 104 Z " /><path fill="rgb(0,0,0)" stroke="rgb(0,0,0)" stroke-width="1" opacity="0.8313725490196079" d="M 181.5 107 L 187 114.5 L 186 114.5 L 181.5 107 Z " /><path fill="rgb(0,0,0)" stroke="rgb(0,0,0)" stroke-width="1" opacity="0.8313725490196079" d="M 12.5 111 L 13 114.5 L 12 114.5 L 12.5 111 Z " /><path fill="rgb(0,0,0)" stroke="rgb(0,0,0)" stroke-width="1" opacity="0.8313725490196079" d="M 13.5 116 L 15 118.5 L 13 117.5 L 13.5 116 Z " /><path fill="rgb(0,0,0)" stroke="rgb(0,0,0)" stroke-width="1" opacity="0.8313725490196079" d="M 187.5 117 L 188 119.5 L 187 119.5 L 187.5 117 Z " /><path fill="rgb(0,0,0)" stroke="rgb(0,0,0)" stroke-width="1" opacity="0.8313725490196079" d="M 15.5 120 L 17.5 123 L 15.5 120 Z " /><path fill="rgb(0,0,0)" stroke="rgb(0,0,0)" stroke-width="1" opacity="0.8313725490196079" d="M 186.5 122 L 187 124.5 L 186 124.5 L 186.5 122 Z " /><path fill="rgb(0,0,0)" stroke="rgb(0,0,0)" stroke-width="1" opacity="0.8313725490196079" d="M 18.5 124 L 21.5 128 L 18.5 124 Z " /><path fill="rgb(0,0,0)" stroke="rgb(0,0,0)" stroke-width="1" opacity="0.8313725490196079" d="M 23.5 128 L 30 131.5 L 28.5 132 Q 23.9 130.8 23.5 128 Z " /><path fill="rgb(0,0,0)" stroke="rgb(0,0,0)" stroke-width="1" opacity="0.8313725490196079" d="M 183.5 131 L 183 132.5 L 180.5 136 L 182 133.5 L 183.5 131 Z " /><path fill="rgb(0,0,0)" stroke="rgb(0,0,0)" stroke-width="1" opacity="0.8313725490196079" d="M 35.5 136 L 36 149.5 L 35 149.5 L 35.5 136 Z " /><path fill="rgb(0,0,0)" stroke="rgb(0,0,0)" stroke-width="1" opacity="0.8313725490196079" d="M 179.5 137 L 177.5 140 L 171.5 143 L 171.5 142 L 179.5 137 Z " /><path fill="rgb(0,0,0)" stroke="rgb(0,0,0)" stroke-width="1" opacity="0.8313725490196079" d="M 161 145 L 163 145.5 L 161 146.5 L 161 145 Z " /><path fill="rgb(0,0,0)" stroke="rgb(0,0,0)" stroke-width="1" opacity="0.8313725490196079" d="M 160.5 151 L 161 153.5 L 160 153.5 L 160.5 151 Z " /><path fill="rgb(0,0,0)" stroke="rgb(0,0,0)" stroke-width="1" opacity="0.8313725490196079" d="M 36.5 153 L 37 155.5 L 36 155.5 L 36.5 153 Z " /><path fill="rgb(0,0,0)" stroke="rgb(0,0,0)" stroke-width="1" opacity="0.8313725490196079" d="M 39.5 163 Q 42.8 164.7 42 170.5 L 41 170.5 Q 41.5 164.7 39.5 163 Z " /><path fill="rgb(0,0,0)" stroke="rgb(0,0,0)" stroke-width="1" opacity="0.8313725490196079" d="M 154.5 168 L 154 169.5 L 148.5 176 L 146.5 177 L 147.5 175 L 153 170.5 L 154.5 168 Z " /><path fill="rgb(0,0,0)" stroke="rgb(0,0,0)" stroke-width="1" opacity="0.8313725490196079" d="M 43.5 174 L 44.5 176 L 43.5 174 Z " /><path fill="rgb(0,0,0)" stroke="rgb(0,0,0)" stroke-width="1" opacity="0.8313725490196079" d="M 144.5 177 L 144.5 180 Q 141.5 178.5 144.5 177 Z " /><path fill="rgb(0,0,0)" stroke="rgb(0,0,0)" stroke-width="1" opacity="0.8313725490196079" d="M 47.5 178 L 48.5 180 L 47.5 178 Z " /><path fill="rgb(0,0,0)" stroke="rgb(0,0,0)" stroke-width="1" opacity="0.8313725490196079" d="M 50.5 180 L 53 181.5 L 51.5 182 L 50.5 180 Z " /><path fill="rgb(0,0,0)" stroke="rgb(0,0,0)" stroke-width="1" opacity="0.8313725490196079" d="M 145.5 181 L 146.5 183 L 145.5 181 Z " /><path fill="rgb(0,0,0)" stroke="rgb(0,0,0)" stroke-width="1" opacity="0.8313725490196079" d="M 54.5 182 L 56 184.5 L 54 185.5 L 55 183.5 L 54.5 182 Z " /><path fill="rgb(0,0,0)" stroke="rgb(0,0,0)" stroke-width="1" opacity="0.8313725490196079" d="M 147.5 184 L 153 194.5 L 152 194.5 L 147.5 184 Z " /><path fill="rgb(0,0,0)" stroke="rgb(0,0,0)" stroke-width="1" opacity="0.8313725490196079" d="M 53.5 187 L 53 188.5 L 51.5 191 L 52 189.5 L 53.5 187 Z " /><path fill="rgb(0,0,0)" stroke="rgb(0,0,0)" stroke-width="1" opacity="0.8313725490196079" d="M 50.5 192 L 50 193.5 L 47.5 199 L 47 197.5 L 50.5 192 Z " /><path fill="rgb(0,0,0)" stroke="rgb(0,0,0)" stroke-width="1" opacity="0" d="M 0 0 L 200 0 L 200 200 L 156.5 200 L 156 198.5 L 149 183.5 L 145 178.5 L 154 171.5 L 159 162.5 L 162 152.5 L 162 147.5 L 163.5 146 Q 176.1 144.6 182 136.5 L 188 124.5 L 188 113.5 L 181.5 106 L 172.5 102 L 169 102 L 172 72.5 L 173 71.5 L 175 44.5 Q 161.1 31.4 140.5 25 L 119.5 20 L 92.5 19 L 91.5 20 L 78.5 20 L 77.5 21 L 64.5 22 L 51 27 L 47 44.5 L 45 69.5 L 42 81.5 Q 42.7 89.5 41 94 L 33.5 92 L 20.5 92 Q 13.9 96.4 11 104.5 L 11 113.5 Q 14.1 123.4 21.5 129 L 31.5 134 L 35 134 Q 32.9 138.8 34 148.5 L 36 159.5 Q 40.5 164 41 172.5 L 46.5 180 L 54 183 L 47 195.5 L 46 200 L 0.5 200 L 0 199.5 L 0 0 Z " /><path fill="rgb(155,59,51)" stroke="rgb(155,59,51)" stroke-width="1" opacity="1" d="M 76.5 83 Q 81.1 82.4 82.5 85 L 114.5 88 L 137.5 93 L 162 96 L 162 101 L 147.5 101 L 146.5 100 L 105.5 100 L 104.5 101 L 67.5 101 L 64 99.5 L 66.5 99 L 67.5 100 L 78 100 L 80 93.5 L 80 84 Q 75.6 85 76.5 83 Z " /><path fill="rgb(155,59,51)" stroke="rgb(155,59,51)" stroke-width="1" opacity="1" d="M 58.5 99 L 61 99.5 L 58.5 100 L 58.5 99 Z " /><path fill="rgb(155,59,51)" stroke="rgb(155,59,51)" stroke-width="1" opacity="1" d="M 73.5 186 L 86.5 189 L 102.5 189 L 103.5 188 L 111.5 188 Q 114.7 190.3 114 196.5 L 113 200 L 99.5 200 L 92.5 196 L 88.5 196 L 78.5 200 L 74 200 L 74 191.5 Q 76.8 190.4 76 187 Q 72.7 187.8 73.5 186 Z " /><path fill="rgb(42,40,49)" stroke="rgb(42,40,49)" stroke-width="1" opacity="1" d="M 115.5 28 L 120.5 28 L 146.5 35 L 167 47.5 L 165 73.5 L 162 92 Q 159.3 90.9 160 93.5 L 161 96 L 158.5 95 L 145.5 94 L 121.5 89 L 104 87 Q 105.6 82.1 100 84 L 99.5 86 L 91.5 86 L 81 84 L 84 71.5 L 85 56.5 L 89 32 L 91.5 31 L 98.5 31 L 115.5 28 Z " /><path fill="rgb(42,40,49)" stroke="rgb(42,40,49)" stroke-width="1" opacity="1" d="M 23.5 108 L 22.5 110 L 23.5 108 Z " /><path fill="rgb(42,40,49)" stroke="rgb(42,40,49)" stroke-width="1" opacity="1" d="M 66.5 110 L 69 110.5 L 66.5 111 L 66.5 110 Z " /><path fill="rgb(42,40,49)" stroke="rgb(42,40,49)" stroke-width="1" opacity="1" d="M 158.5 113 L 161 113.5 L 158.5 114 L 158.5 113 Z " /><path fill="rgb(42,40,49)" stroke="rgb(42,40,49)" stroke-width="1" opacity="1" d="M 178.5 124 L 179.5 126 L 178.5 124 Z " /><path fill="rgb(43,35,39)" stroke="rgb(43,35,39)" stroke-width="1" opacity="1" d="M 162.5 43 L 163.5 45 L 162.5 43 Z " /><path fill="rgb(43,35,39)" stroke="rgb(43,35,39)" stroke-width="1" opacity="1" d="M 167.5 47 L 168 51.5 L 167 51.5 L 167.5 47 Z " /><path fill="rgb(43,35,39)" stroke="rgb(43,35,39)" stroke-width="1" opacity="1" d="M 166.5 58 L 167 64.5 L 166 64.5 L 166.5 58 Z " /><path fill="rgb(43,35,39)" stroke="rgb(43,35,39)" stroke-width="1" opacity="1" d="M 165.5 69 L 166 73.5 L 165 73.5 L 165.5 69 Z " /><path fill="rgb(43,35,39)" stroke="rgb(43,35,39)" stroke-width="1" opacity="1" d="M 164.5 78 L 165 81.5 L 164 81.5 L 164.5 78 Z " /><path fill="rgb(43,35,39)" stroke="rgb(43,35,39)" stroke-width="1" opacity="1" d="M 163.5 85 L 164 89.5 L 163 89.5 L 163.5 85 Z " /><path fill="rgb(43,35,39)" stroke="rgb(43,35,39)" stroke-width="1" opacity="1" d="M 162.5 93 L 163 98.5 L 162 98.5 L 162.5 93 Z " /><path fill="rgb(43,35,39)" stroke="rgb(43,35,39)" stroke-width="1" opacity="1" d="M 21.5 99 L 20.5 101 L 21.5 99 Z " /><path fill="rgb(43,35,39)" stroke="rgb(43,35,39)" stroke-width="1" opacity="1" d="M 105.5 100 L 110 100.5 L 105.5 101 L 105.5 100 Z " /><path fill="rgb(43,35,39)" stroke="rgb(43,35,39)" stroke-width="1" opacity="1" d="M 138.5 100 L 147 100.5 L 138.5 101 L 138.5 100 Z " /><path fill="rgb(43,35,39)" stroke="rgb(43,35,39)" stroke-width="1" opacity="1" d="M 154.5 106 L 158 106.5 L 154.5 107 L 154.5 106 Z " /><path fill="rgb(43,35,39)" stroke="rgb(43,35,39)" stroke-width="1" opacity="1" d="M 20.5 117 L 21.5 119 L 20.5 117 Z " /><path fill="rgb(43,35,39)" stroke="rgb(43,35,39)" stroke-width="1" opacity="1" d="M 23.5 121 L 24.5 123 L 23.5 121 Z " /><path fill="rgb(43,35,39)" stroke="rgb(43,35,39)" stroke-width="1" opacity="1" d="M 70.5 122 L 82 122.5 L 70.5 123 L 70.5 122 Z " /><path fill="rgb(43,35,39)" stroke="rgb(43,35,39)" stroke-width="1" opacity="1" d="M 26.5 123 L 27.5 125 L 26.5 123 Z " /><path fill="rgb(43,35,39)" stroke="rgb(43,35,39)" stroke-width="1" opacity="1" d="M 61.5 123 L 66 123.5 L 61.5 124 L 61.5 123 Z " /><path fill="rgb(43,35,39)" stroke="rgb(43,35,39)" stroke-width="1" opacity="1" d="M 88.5 123 L 95 123.5 L 88.5 124 L 88.5 123 Z " /><path fill="rgb(43,35,39)" stroke="rgb(43,35,39)" stroke-width="1" opacity="1" d="M 53.5 124 L 58 124.5 L 53.5 125 L 53.5 124 Z " /><path fill="rgb(43,35,39)" stroke="rgb(43,35,39)" stroke-width="1" opacity="1" d="M 98.5 124 L 102 124.5 L 98.5 125 L 98.5 124 Z " /><path fill="rgb(43,35,39)" stroke="rgb(43,35,39)" stroke-width="1" opacity="1" d="M 47.5 125 L 50 125.5 L 47.5 126 L 47.5 125 Z " /><path fill="rgb(43,35,39)" stroke="rgb(43,35,39)" stroke-width="1" opacity="1" d="M 105.5 125 L 109 125.5 L 105.5 126 L 105.5 125 Z " /><path fill="rgb(43,35,39)" stroke="rgb(43,35,39)" stroke-width="1" opacity="1" d="M 45.5 126 L 44.5 128 L 42 127.5 L 45.5 126 Z " /><path fill="rgb(43,35,39)" stroke="rgb(43,35,39)" stroke-width="1" opacity="1" d="M 112.5 126 L 116 126.5 L 112.5 127 L 112.5 126 Z " /><path fill="rgb(43,35,39)" stroke="rgb(43,35,39)" stroke-width="1" opacity="1" d="M 118.5 127 L 121 127.5 L 118.5 128 L 118.5 127 Z " /><path fill="rgb(43,35,39)" stroke="rgb(43,35,39)" stroke-width="1" opacity="1" d="M 71.5 128 L 81 128.5 L 71.5 129 L 71.5 128 Z " /><path fill="rgb(43,35,39)" stroke="rgb(43,35,39)" stroke-width="1" opacity="1" d="M 123.5 128 L 126 128.5 L 123.5 129 L 123.5 128 Z " /><path fill="rgb(43,35,39)" stroke="rgb(43,35,39)" stroke-width="1" opacity="1" d="M 177.5 130 L 176.5 132 L 177.5 130 Z " /><path fill="rgb(43,35,39)" stroke="rgb(43,35,39)" stroke-width="1" opacity="1" d="M 45.5 131 L 44.5 133 L 45.5 131 Z " /><path fill="rgb(43,35,39)" stroke="rgb(43,35,39)" stroke-width="1" opacity="1" d="M 172.5 135 L 171.5 137 L 172.5 135 Z " /><path fill="rgb(43,35,39)" stroke="rgb(43,35,39)" stroke-width="1" opacity="1" d="M 40.5 139 L 41 141.5 L 40 141.5 L 40.5 139 Z " /><path fill="rgb(43,35,39)" stroke="rgb(43,35,39)" stroke-width="1" opacity="1" d="M 160.5 139 L 163 139.5 L 160.5 140 L 160.5 139 Z " /><path fill="rgb(43,35,39)" stroke="rgb(43,35,39)" stroke-width="1" opacity="1" d="M 59.5 150 L 58.5 152 L 59.5 150 Z " /><path fill="rgb(43,35,39)" stroke="rgb(43,35,39)" stroke-width="1" opacity="1" d="M 82.5 156 L 83.5 158 L 82.5 156 Z " /><path fill="rgb(43,35,39)" stroke="rgb(43,35,39)" stroke-width="1" opacity="1" d="M 148.5 168 L 146.5 171 L 148.5 168 Z " /><path fill="rgb(43,35,39)" stroke="rgb(43,35,39)" stroke-width="1" opacity="1" d="M 141.5 186 L 142.5 188 L 140.5 188 L 139 187.5 L 141.5 186 Z " /><path fill="rgb(43,35,39)" stroke="rgb(43,35,39)" stroke-width="1" opacity="1" d="M 110.5 187 L 113 188.5 L 111.5 188 L 110.5 187 Z " /><path fill="rgb(43,35,39)" stroke="rgb(43,35,39)" stroke-width="1" opacity="1" d="M 86.5 188 L 89 188.5 L 86.5 189 L 86.5 188 Z " /><path fill="rgb(43,35,39)" stroke="rgb(43,35,39)" stroke-width="1" opacity="1" d="M 143.5 189 L 144.5 191 L 143.5 189 Z " /><path fill="rgb(43,35,39)" stroke="rgb(43,35,39)" stroke-width="1" opacity="1" d="M 61.5 190 L 65 192.5 L 63.5 192 L 61.5 190 Z " /><path fill="rgb(43,35,39)" stroke="rgb(43,35,39)" stroke-width="1" opacity="1" d="M 132.5 190 L 134 190.5 L 128.5 193 L 128.5 192 L 132.5 190 Z " /><path fill="rgb(43,35,39)" stroke="rgb(43,35,39)" stroke-width="1" opacity="1" d="M 120.5 194 L 124 194.5 L 120.5 195 L 120.5 194 Z " /><path fill="rgb(43,35,39)" stroke="rgb(43,35,39)" stroke-width="1" opacity="1" d="M 88.5 196 L 93 196.5 L 88.5 197 L 88.5 196 Z " /><path fill="rgb(43,35,39)" stroke="rgb(43,35,39)" stroke-width="1" opacity="1" d="M 119.5 197 L 120 199.5 L 119 199.5 L 119.5 197 Z " /><path fill="rgb(41,39,47)" stroke="rgb(41,39,47)" stroke-width="1" opacity="1" d="M 120.5 27 L 124 28.5 L 121.5 29 L 120.5 27 Z " /><path fill="rgb(41,39,47)" stroke="rgb(41,39,47)" stroke-width="1" opacity="1" d="M 129.5 30 L 132 30.5 L 129.5 31 L 129.5 30 Z " /><path fill="rgb(41,39,47)" stroke="rgb(41,39,47)" stroke-width="1" opacity="1" d="M 153.5 38 L 154.5 40 L 153.5 38 Z " /><path fill="rgb(41,39,47)" stroke="rgb(41,39,47)" stroke-width="1" opacity="1" d="M 158.5 41 L 159.5 43 L 158.5 41 Z " /><path fill="rgb(41,39,47)" stroke="rgb(41,39,47)" stroke-width="1" opacity="1" d="M 161.5 43 L 162.5 45 L 161.5 43 Z " /><path fill="rgb(41,39,47)" stroke="rgb(41,39,47)" stroke-width="1" opacity="1" d="M 166.5 52 L 167 57.5 L 166 57.5 L 166.5 52 Z " /><path fill="rgb(41,39,47)" stroke="rgb(41,39,47)" stroke-width="1" opacity="1" d="M 165.5 65 L 166 68.5 L 165 68.5 L 165.5 65 Z " /><path fill="rgb(41,39,47)" stroke="rgb(41,39,47)" stroke-width="1" opacity="1" d="M 164.5 74 L 165 77.5 L 164 77.5 L 164.5 74 Z " /><path fill="rgb(41,39,47)" stroke="rgb(41,39,47)" stroke-width="1" opacity="1" d="M 163.5 82 L 164 84.5 L 163 84.5 L 163.5 82 Z " /><path fill="rgb(41,39,47)" stroke="rgb(41,39,47)" stroke-width="1" opacity="1" d="M 162.5 90 L 163 92.5 L 161.5 96 L 160 92 Q 162.8 93 162.5 90 Z " /><path fill="rgb(41,39,47)" stroke="rgb(41,39,47)" stroke-width="1" opacity="1" d="M 19.5 115 L 21.5 118 L 19.5 115 Z " /><path fill="rgb(41,39,47)" stroke="rgb(41,39,47)" stroke-width="1" opacity="1" d="M 22.5 119 L 25.5 123 L 22.5 119 Z " /><path fill="rgb(41,39,47)" stroke="rgb(41,39,47)" stroke-width="1" opacity="1" d="M 66.5 122 L 70 122.5 L 66.5 123 L 66.5 122 Z " /><path fill="rgb(41,39,47)" stroke="rgb(41,39,47)" stroke-width="1" opacity="1" d="M 82.5 122 L 88 122.5 L 82.5 123 L 82.5 122 Z " /><path fill="rgb(41,39,47)" stroke="rgb(41,39,47)" stroke-width="1" opacity="1" d="M 58.5 123 L 61 123.5 L 58.5 124 L 58.5 123 Z " /><path fill="rgb(41,39,47)" stroke="rgb(41,39,47)" stroke-width="1" opacity="1" d="M 95.5 123 L 98 123.5 L 95.5 124 L 95.5 123 Z " /><path fill="rgb(41,39,47)" stroke="rgb(41,39,47)" stroke-width="1" opacity="1" d="M 102.5 124 L 106 124.5 L 102.5 125 L 102.5 124 Z " /><path fill="rgb(41,39,47)" stroke="rgb(41,39,47)" stroke-width="1" opacity="1" d="M 176 124 L 179 125.5 Q 180.1 129.7 176 128 L 176 124 Z " /><path fill="rgb(41,39,47)" stroke="rgb(41,39,47)" stroke-width="1" opacity="1" d="M 109.5 125 L 112 125.5 L 109.5 126 L 109.5 125 Z " /><path fill="rgb(41,39,47)" stroke="rgb(41,39,47)" stroke-width="1" opacity="1" d="M 175.5 132 L 173.5 135 L 175.5 132 Z " /><path fill="rgb(41,39,47)" stroke="rgb(41,39,47)" stroke-width="1" opacity="1" d="M 162.5 138 L 165 138.5 L 162.5 139 L 162.5 138 Z " /><path fill="rgb(41,39,47)" stroke="rgb(41,39,47)" stroke-width="1" opacity="1" d="M 141.5 187 Q 146.6 192 148 200 L 120.5 200 L 120 195 L 127.5 194 L 141.5 187 Z " /><path fill="rgb(41,39,47)" stroke="rgb(41,39,47)" stroke-width="1" opacity="1" d="M 61.5 191 L 64 192 L 65 200 L 60 200 L 60 197.5 L 61.5 191 Z " /><path fill="rgb(42,40,48)" stroke="rgb(42,40,48)" stroke-width="1" opacity="1" d="M 100 84 Q 105.6 82.1 104 87 L 100 86 L 100 84 Z " /><path fill="rgb(42,40,48)" stroke="rgb(42,40,48)" stroke-width="1" opacity="1" d="M 29.5 105 L 37.5 106 L 41.5 108 L 49.5 108 L 66.5 111 L 87.5 111 L 88.5 110 L 125.5 110 L 126.5 111 L 136.5 111 L 137.5 112 L 155.5 112 L 171.5 118 L 178 123.5 L 176 124 L 176 128 L 177.5 128 L 177 129.5 L 171.5 136 L 159.5 139 L 147.5 134 L 117.5 126 L 98.5 124 L 97.5 123 L 88.5 123 L 87.5 122 L 66.5 122 L 65.5 123 L 46.5 125 L 39.5 128 L 27.5 124 L 22 118.5 L 20 113.5 L 25.5 107 L 29.5 105 Z " /><path fill="rgb(0,0,0)" stroke="rgb(0,0,0)" stroke-width="1" opacity="0.996078431372549" d="M 84.5 21 L 114.5 21 L 138.5 26 Q 158.6 32.4 173 44.5 L 172 66.5 L 171 67.5 L 171 75.5 L 170 76.5 L 170 83.5 L 169 84.5 L 167 103 Q 179 103.7 185 111.5 Q 188 114.5 187 121.5 Q 184.7 132.7 177.5 139 Q 171 144.3 161 145 Q 160.1 164.9 148.5 175 L 143 178.5 L 147 183.5 L 155 199.5 L 149 200 Q 146.5 188.2 138.5 181 L 132.5 183 L 126.5 183 L 118 186 L 119 188.5 L 119 200 L 114 200 L 114 189.5 L 113 187 L 106.5 187 L 105.5 188 L 84.5 188 L 73.5 186 Q 68.7 188.2 70 196.5 L 72 199.5 L 67.5 200 Q 63.8 197.8 65 190.5 L 67 185 L 63.5 184 L 58 188.5 L 51.5 200 L 47 199.5 L 56 183.5 L 45 176.5 Q 41.1 173.9 42 166.5 L 37 157.5 L 36 152.5 L 36 133 Q 24.1 131.6 18 123.5 Q 12 118.5 12 107.5 Q 13.8 98.3 20.5 94 Q 23.7 91.7 30.5 93 L 42 96 L 44 85.5 L 44 78.5 L 47 66.5 L 49 40.5 L 52 28 L 62.5 24 L 83.5 22 L 84.5 21 Z M 80 26 L 72 28 L 66 28 L 58 31 L 55 35 L 53 45 L 53 55 L 52 56 L 51 71 L 48 82 L 48 90 L 46 98 L 54 100 L 63 100 L 74 102 L 86 102 L 87 101 L 157 101 L 162 102 L 163 101 L 164 86 L 166 78 L 168 47 L 146 33 L 128 28 Q 121 29 119 26 L 80 26 Z M 23 98 L 17 106 Q 16 116 21 120 Q 26 127 38 129 L 45 129 L 49 126 L 61 125 L 62 124 L 71 124 L 72 123 L 94 124 L 95 125 L 116 127 Q 139 132 159 140 L 165 140 L 173 137 Q 179 132 182 124 Q 183 117 181 114 Q 176 108 168 107 Q 163 108 162 106 L 139 106 L 138 105 L 112 105 L 111 106 L 67 106 L 66 105 L 52 104 L 33 98 L 23 98 Z M 69 128 L 68 129 L 46 131 L 43 133 L 40 138 L 40 150 L 44 163 Q 45 166 52 165 L 57 154 L 65 147 L 73 147 L 86 153 L 95 149 Q 100 151 102 148 L 110 150 L 115 153 Q 121 160 125 169 Q 128 171 135 170 L 137 173 L 135 176 L 136 177 L 146 172 Q 152 167 154 160 L 157 144 L 134 136 L 117 132 L 97 130 L 96 129 L 87 129 L 86 128 L 69 128 Z M 67 151 L 65 152 L 60 157 L 56 167 L 53 169 L 47 169 L 47 172 Q 52 178 62 180 L 72 179 L 86 170 L 105 182 Q 122 183 130 176 L 126 174 Q 118 169 115 160 L 106 153 L 96 153 L 88 158 L 85 158 Q 80 153 72 151 L 67 151 Z M 86 175 L 79 180 Q 76 179 77 182 L 88 184 L 97 184 L 86 175 Z " /><path fill="rgb(0,0,0)" stroke="rgb(0,0,0)" stroke-width="1" opacity="0.996078431372549" d="M 87.5 197 Q 94.4 196.1 97 199.5 L 81.5 200 L 81.5 199 L 87.5 197 Z " /><path fill="rgb(212,201,202)" stroke="rgb(212,201,202)" stroke-width="1" opacity="1" d="M 41.5 149 L 55 155.5 L 50.5 164 Q 45.8 164.8 45 161.5 L 42 155.5 L 41.5 149 Z " /><path fill="rgb(212,201,202)" stroke="rgb(212,201,202)" stroke-width="1" opacity="1" d="M 66.5 152 L 71.5 152 Q 79.7 153.8 84.5 159 L 88.5 159 Q 92.8 152.3 105.5 154 L 115 161.5 L 123.5 174 L 127 175 Q 128.1 177.7 125.5 177 L 114.5 181 L 104.5 181 L 88.5 170 L 84.5 169 L 73.5 177 L 67.5 179 L 61.5 179 Q 52.9 177.1 48 171.5 Q 47.1 168.1 52.5 170 L 57 166.5 Q 58.9 157.9 64.5 153 L 66.5 152 Z " /><path fill="rgb(212,201,202)" stroke="rgb(212,201,202)" stroke-width="1" opacity="1" d="M 153.5 152 L 155 152.5 L 150 165.5 L 144.5 171 L 137.5 174 L 137 171.5 L 135.5 169 Q 127 171 125 166.5 L 123 161 L 143.5 156 L 153.5 152 Z " /><path fill="rgb(212,201,202)" stroke="rgb(212,201,202)" stroke-width="1" opacity="1" d="M 89.5 179 L 94 182.5 L 88 183 L 89.5 179 Z " /><path fill="rgb(22,18,20)" stroke="rgb(22,18,20)" stroke-width="1" opacity="0.996078431372549" d="M 79.5 26 L 82 26.5 L 79.5 27 L 79.5 26 Z " /><path fill="rgb(22,18,20)" stroke="rgb(22,18,20)" stroke-width="1" opacity="0.996078431372549" d="M 116.5 26 L 119 26.5 L 116.5 27 L 116.5 26 Z " /><path fill="rgb(22,18,20)" stroke="rgb(22,18,20)" stroke-width="1" opacity="0.996078431372549" d="M 125.5 28 L 128 28.5 L 125.5 29 L 125.5 28 Z " /><path fill="rgb(22,18,20)" stroke="rgb(22,18,20)" stroke-width="1" opacity="0.996078431372549" d="M 129.5 29 L 132 29.5 L 129.5 30 L 129.5 29 Z " /><path fill="rgb(22,18,20)" stroke="rgb(22,18,20)" stroke-width="1" opacity="0.996078431372549" d="M 153.5 37 L 154.5 39 L 153.5 37 Z " /><path fill="rgb(22,18,20)" stroke="rgb(22,18,20)" stroke-width="1" opacity="0.996078431372549" d="M 158.5 40 L 159.5 42 L 158.5 40 Z " /><path fill="rgb(22,18,20)" stroke="rgb(22,18,20)" stroke-width="1" opacity="0.996078431372549" d="M 163.5 43 L 164.5 45 L 163.5 43 Z " /><path fill="rgb(22,18,20)" stroke="rgb(22,18,20)" stroke-width="1" opacity="0.996078431372549" d="M 53.5 44 L 54 47.5 L 53 47.5 L 53.5 44 Z " /><path fill="rgb(22,18,20)" stroke="rgb(22,18,20)" stroke-width="1" opacity="0.996078431372549" d="M 166.5 45 L 167.5 47 L 166.5 45 Z " /><path fill="rgb(22,18,20)" stroke="rgb(22,18,20)" stroke-width="1" opacity="0.996078431372549" d="M 167.5 52 L 168 56.5 L 167 56.5 L 167.5 52 Z " /><path fill="rgb(22,18,20)" stroke="rgb(22,18,20)" stroke-width="1" opacity="0.996078431372549" d="M 51.5 63 L 52 65.5 L 51 65.5 L 51.5 63 Z " /><path fill="rgb(22,18,20)" stroke="rgb(22,18,20)" stroke-width="1" opacity="0.996078431372549" d="M 166.5 65 L 167 68.5 L 166 68.5 L 166.5 65 Z " /><path fill="rgb(22,18,20)" stroke="rgb(22,18,20)" stroke-width="1" opacity="0.996078431372549" d="M 165.5 74 L 166 77.5 L 165 77.5 L 165.5 74 Z " /><path fill="rgb(22,18,20)" stroke="rgb(22,18,20)" stroke-width="1" opacity="0.996078431372549" d="M 164.5 82 L 165 84.5 L 164 84.5 L 164.5 82 Z " /><path fill="rgb(22,18,20)" stroke="rgb(22,18,20)" stroke-width="1" opacity="0.996078431372549" d="M 163.5 90 L 164 92.5 L 163 92.5 L 163.5 90 Z " /><path fill="rgb(22,18,20)" stroke="rgb(22,18,20)" stroke-width="1" opacity="0.996078431372549" d="M 162.5 99 L 163 100.5 Q 162 103 157.5 102 L 157.5 101 Q 162.9 102.7 162.5 99 Z " /><path fill="rgb(22,18,20)" stroke="rgb(22,18,20)" stroke-width="1" opacity="0.996078431372549" d="M 110.5 100 L 138 100.5 L 110.5 101 L 110.5 100 Z " /><path fill="rgb(22,18,20)" stroke="rgb(22,18,20)" stroke-width="1" opacity="0.996078431372549" d="M 73.5 101 L 86 101.5 L 73.5 102 L 73.5 101 Z " /><path fill="rgb(22,18,20)" stroke="rgb(22,18,20)" stroke-width="1" opacity="0.996078431372549" d="M 54.5 104 L 57 104.5 L 54.5 105 L 54.5 104 Z " /><path fill="rgb(22,18,20)" stroke="rgb(22,18,20)" stroke-width="1" opacity="0.996078431372549" d="M 111.5 105 L 138 105.5 L 111.5 106 L 111.5 105 Z " /><path fill="rgb(22,18,20)" stroke="rgb(22,18,20)" stroke-width="1" opacity="0.996078431372549" d="M 74.5 106 L 86 106.5 L 74.5 107 L 74.5 106 Z " /><path fill="rgb(22,18,20)" stroke="rgb(22,18,20)" stroke-width="1" opacity="0.996078431372549" d="M 158.5 106 L 162 106.5 L 158.5 107 L 158.5 106 Z " /><path fill="rgb(22,18,20)" stroke="rgb(22,18,20)" stroke-width="1" opacity="0.996078431372549" d="M 165.5 107 L 168 107.5 L 165.5 108 L 165.5 107 Z " /><path fill="rgb(22,18,20)" stroke="rgb(22,18,20)" stroke-width="1" opacity="0.996078431372549" d="M 179.5 112 L 180.5 114 L 179.5 112 Z " /><path fill="rgb(22,18,20)" stroke="rgb(22,18,20)" stroke-width="1" opacity="0.996078431372549" d="M 18.5 115 L 19.5 117 L 18.5 115 Z " /><path fill="rgb(22,18,20)" stroke="rgb(22,18,20)" stroke-width="1" opacity="0.996078431372549" d="M 21.5 119 L 22.5 121 L 21.5 119 Z " /><path fill="rgb(22,18,20)" stroke="rgb(22,18,20)" stroke-width="1" opacity="0.996078431372549" d="M 25.5 123 L 26.5 125 L 25.5 123 Z " /><path fill="rgb(22,18,20)" stroke="rgb(22,18,20)" stroke-width="1" opacity="0.996078431372549" d="M 66.5 123 L 71 123.5 L 66.5 124 L 66.5 123 Z " /><path fill="rgb(22,18,20)" stroke="rgb(22,18,20)" stroke-width="1" opacity="0.996078431372549" d="M 81.5 123 L 88 123.5 L 81.5 124 L 81.5 123 Z " /><path fill="rgb(22,18,20)" stroke="rgb(22,18,20)" stroke-width="1" opacity="0.996078431372549" d="M 58.5 124 L 61 124.5 L 58.5 125 L 58.5 124 Z " /><path fill="rgb(22,18,20)" stroke="rgb(22,18,20)" stroke-width="1" opacity="0.996078431372549" d="M 94.5 124 L 98 124.5 L 94.5 125 L 94.5 124 Z " /><path fill="rgb(22,18,20)" stroke="rgb(22,18,20)" stroke-width="1" opacity="0.996078431372549" d="M 50.5 125 L 54 125.5 L 50.5 126 L 50.5 125 Z " /><path fill="rgb(22,18,20)" stroke="rgb(22,18,20)" stroke-width="1" opacity="0.996078431372549" d="M 102.5 125 L 105 125.5 L 102.5 126 L 102.5 125 Z " /><path fill="rgb(22,18,20)" stroke="rgb(22,18,20)" stroke-width="1" opacity="0.996078431372549" d="M 46.5 126 L 48 126.5 Q 46.3 129.8 40.5 129 L 40.5 128 Q 45.5 129 46.5 126 Z " /><path fill="rgb(22,18,20)" stroke="rgb(22,18,20)" stroke-width="1" opacity="0.996078431372549" d="M 109.5 126 L 112 126.5 L 109.5 127 L 109.5 126 Z " /><path fill="rgb(22,18,20)" stroke="rgb(22,18,20)" stroke-width="1" opacity="0.996078431372549" d="M 68.5 128 L 71 128.5 L 68.5 129 L 68.5 128 Z " /><path fill="rgb(22,18,20)" stroke="rgb(22,18,20)" stroke-width="1" opacity="0.996078431372549" d="M 81.5 128 L 86 128.5 L 81.5 129 L 81.5 128 Z " /><path fill="rgb(22,18,20)" stroke="rgb(22,18,20)" stroke-width="1" opacity="0.996078431372549" d="M 59.5 129 L 62 129.5 L 59.5 130 L 59.5 129 Z " /><path fill="rgb(22,18,20)" stroke="rgb(22,18,20)" stroke-width="1" opacity="0.996078431372549" d="M 177.5 131 L 172.5 137 L 177.5 131 Z " /><path fill="rgb(22,18,20)" stroke="rgb(22,18,20)" stroke-width="1" opacity="0.996078431372549" d="M 67.5 146 L 70 146.5 L 67.5 147 L 67.5 146 Z " /><path fill="rgb(22,18,20)" stroke="rgb(22,18,20)" stroke-width="1" opacity="0.996078431372549" d="M 40.5 147 L 41 149.5 L 40 149.5 L 40.5 147 Z " /><path fill="rgb(22,18,20)" stroke="rgb(22,18,20)" stroke-width="1" opacity="0.996078431372549" d="M 97.5 148 L 101 148.5 L 97.5 149 L 97.5 148 Z " /><path fill="rgb(22,18,20)" stroke="rgb(22,18,20)" stroke-width="1" opacity="0.996078431372549" d="M 102.5 148 L 105 148.5 L 102.5 149 L 102.5 148 Z " /><path fill="rgb(22,18,20)" stroke="rgb(22,18,20)" stroke-width="1" opacity="0.996078431372549" d="M 112.5 157 L 114.5 160 L 112.5 157 Z " /><path fill="rgb(22,18,20)" stroke="rgb(22,18,20)" stroke-width="1" opacity="0.996078431372549" d="M 118.5 157 L 119.5 159 L 118.5 157 Z " /><path fill="rgb(22,18,20)" stroke="rgb(22,18,20)" stroke-width="1" opacity="0.996078431372549" d="M 44.5 162 L 46.5 165 L 44.5 162 Z " /><path fill="rgb(22,18,20)" stroke="rgb(22,18,20)" stroke-width="1" opacity="0.996078431372549" d="M 52.5 163 L 51.5 165 L 52.5 163 Z " /><path fill="rgb(22,18,20)" stroke="rgb(22,18,20)" stroke-width="1" opacity="0.996078431372549" d="M 117.5 164 L 118.5 166 L 117.5 164 Z " /><path fill="rgb(22,18,20)" stroke="rgb(22,18,20)" stroke-width="1" opacity="0.996078431372549" d="M 47.5 169 L 50 169.5 L 47.5 170 L 47.5 169 Z " /><path fill="rgb(22,18,20)" stroke="rgb(22,18,20)" stroke-width="1" opacity="0.996078431372549" d="M 121.5 170 L 123.5 173 L 121.5 170 Z " /><path fill="rgb(22,18,20)" stroke="rgb(22,18,20)" stroke-width="1" opacity="0.996078431372549" d="M 129.5 175 L 128.5 177 L 129.5 175 Z " /><path fill="rgb(22,18,20)" stroke="rgb(22,18,20)" stroke-width="1" opacity="0.996078431372549" d="M 136.5 181 Q 140.5 180.5 141 183.5 L 145 189.5 L 143 188.5 L 141.5 186 L 127.5 193 L 120 194 L 119.5 197 Q 120 189.4 118 186 L 136.5 181 Z " /><path fill="rgb(22,18,20)" stroke="rgb(22,18,20)" stroke-width="1" opacity="0.996078431372549" d="M 87.5 183 L 90 183.5 L 87.5 184 L 87.5 183 Z " /><path fill="rgb(22,18,20)" stroke="rgb(22,18,20)" stroke-width="1" opacity="0.996078431372549" d="M 63.5 184 L 67 185 L 64.5 192 L 61 189.5 L 60.5 187 L 58 188.5 L 63.5 184 Z " /><path fill="rgb(22,18,20)" stroke="rgb(22,18,20)" stroke-width="1" opacity="0.996078431372549" d="M 81.5 187 L 84 187.5 L 81.5 188 L 81.5 187 Z " /><path fill="rgb(22,18,20)" stroke="rgb(22,18,20)" stroke-width="1" opacity="0.996078431372549" d="M 106.5 187 L 110 187.5 L 106.5 188 L 106.5 187 Z " /><path fill="rgb(22,18,20)" stroke="rgb(22,18,20)" stroke-width="1" opacity="0.996078431372549" d="M 89.5 188 L 101 188.5 L 89.5 189 L 89.5 188 Z " /><path fill="rgb(22,18,20)" stroke="rgb(22,18,20)" stroke-width="1" opacity="0.996078431372549" d="M 57.5 190 L 56.5 192 L 57.5 190 Z " /><path fill="rgb(22,18,20)" stroke="rgb(22,18,20)" stroke-width="1" opacity="0.996078431372549" d="M 146.5 193 L 149 198.5 L 148 198.5 L 146.5 193 Z " /><path fill="rgb(22,18,20)" stroke="rgb(22,18,20)" stroke-width="1" opacity="0.996078431372549" d="M 65.5 197 L 67 199.5 L 65 198.5 L 65.5 197 Z " /></svg>