<svg width="200" height="200" version="1.1" xmlns="http://www.w3.org/2000/svg" desc="Created with imagetracer.js version 1.2.6" ><path fill="rgb(0,0,0)" stroke="rgb(0,0,0)" stroke-width="1" opacity="0" d="M 0 0 L 200 0 L 200 200 L 191.5 200 L 191 198.5 L 192 195.5 L 188.5 189 L 186 187.5 Q 186.9 180.6 182.5 179 L 174 176.5 L 175 175.5 L 176 154.5 L 178 146.5 L 178 135.5 L 182 112.5 Q 180.5 105.6 175.5 102 L 155 93.5 L 160 86.5 L 161 77.5 L 163.5 75 L 166 73.5 Q 170.5 69 170 59.5 L 167 52.5 Q 170 50.5 169 44.5 L 164 35 L 152 30 L 148.5 24 L 146 22.5 L 146 17.5 L 140.5 11 L 132.5 9 L 125.5 12 L 124.5 11 L 116.5 11 L 111 14.5 Q 107.2 17.7 109 26.5 L 113 31.5 L 112 34.5 L 116.5 42 L 125.5 43 L 127.5 43 L 132 45 L 131 51.5 L 131.5 53 Q 125.8 54.3 123 58.5 L 119.5 65 Q 117.7 62.3 111.5 64 Q 102 65.5 97 71.5 L 92.5 81 L 83.5 81 L 82.5 80 L 51.5 80 L 49 81 L 40 105.5 L 40 109.5 L 37 118.5 L 33 139.5 L 30.5 163 Q 28.5 160 22.5 161 L 15 167.5 L 14 173.5 L 15 176 L 10 179.5 L 8 187.5 L 10 190.5 Q 6.4 192.4 7 198.5 L 7.5 200 L 0.5 200 L 0 199.5 L 0 0 Z " /><path fill="rgb(0,0,0)" stroke="rgb(0,0,0)" stroke-width="1" opacity="0.8431372549019608" d="M 132.5 10 L 136 10.5 L 132.5 11 L 132.5 10 Z " /><path fill="rgb(0,0,0)" stroke="rgb(0,0,0)" stroke-width="1" opacity="0.8431372549019608" d="M 141.5 13 L 143.5 16 L 141.5 13 Z " /><path fill="rgb(0,0,0)" stroke="rgb(0,0,0)" stroke-width="1" opacity="0.8431372549019608" d="M 145.5 23 L 146.5 25 L 145.5 23 Z " /><path fill="rgb(0,0,0)" stroke="rgb(0,0,0)" stroke-width="1" opacity="0.8431372549019608" d="M 110.5 26 L 113.5 30 L 110.5 26 Z " /><path fill="rgb(0,0,0)" stroke="rgb(0,0,0)" stroke-width="1" opacity="0.8431372549019608" d="M 151.5 31 L 154 31.5 L 151.5 32 L 151.5 31 Z " /><path fill="rgb(0,0,0)" stroke="rgb(0,0,0)" stroke-width="1" opacity="0.8431372549019608" d="M 113.5 32 L 114 34.5 L 113 34.5 L 113.5 32 Z " /><path fill="rgb(0,0,0)" stroke="rgb(0,0,0)" stroke-width="1" opacity="0.8431372549019608" d="M 160.5 34 L 164.5 39 L 160.5 34 Z " /><path fill="rgb(0,0,0)" stroke="rgb(0,0,0)" stroke-width="1" opacity="0.8431372549019608" d="M 114.5 37 L 115.5 39 L 114.5 37 Z " /><path fill="rgb(0,0,0)" stroke="rgb(0,0,0)" stroke-width="1" opacity="0.8431372549019608" d="M 165.5 40 L 166.5 42 L 165.5 40 Z " /><path fill="rgb(0,0,0)" stroke="rgb(0,0,0)" stroke-width="1" opacity="0.8431372549019608" d="M 128.5 41 L 130.5 44 L 128.5 41 Z " /><path fill="rgb(0,0,0)" stroke="rgb(0,0,0)" stroke-width="1" opacity="0.8431372549019608" d="M 167.5 47 L 168 49.5 L 167 49.5 L 167.5 47 Z " /><path fill="rgb(0,0,0)" stroke="rgb(0,0,0)" stroke-width="1" opacity="0.8431372549019608" d="M 130.5 54 L 133 54.5 L 130.5 55 L 130.5 54 Z " /><path fill="rgb(0,0,0)" stroke="rgb(0,0,0)" stroke-width="1" opacity="0.8431372549019608" d="M 126.5 56 L 125.5 58 L 126.5 56 Z " /><path fill="rgb(0,0,0)" stroke="rgb(0,0,0)" stroke-width="1" opacity="0.8431372549019608" d="M 168.5 60 L 169 64.5 L 168 64.5 L 168.5 60 Z " /><path fill="rgb(0,0,0)" stroke="rgb(0,0,0)" stroke-width="1" opacity="0.8431372549019608" d="M 111.5 65 L 119 65.5 L 111.5 66 L 111.5 65 Z " /><path fill="rgb(0,0,0)" stroke="rgb(0,0,0)" stroke-width="1" opacity="0.8431372549019608" d="M 166.5 70 L 165.5 72 L 166.5 70 Z " /><path fill="rgb(0,0,0)" stroke="rgb(0,0,0)" stroke-width="1" opacity="0.8431372549019608" d="M 162.5 74 L 161.5 76 L 162.5 74 Z " /><path fill="rgb(0,0,0)" stroke="rgb(0,0,0)" stroke-width="1" opacity="0.8431372549019608" d="M 94.5 80 L 95 81.5 L 91.5 83 L 91.5 82 Q 95 83 94.5 80 Z " /><path fill="rgb(0,0,0)" stroke="rgb(0,0,0)" stroke-width="1" opacity="0.8431372549019608" d="M 54.5 81 L 82 81.5 L 54.5 82 L 54.5 81 Z " /><path fill="rgb(0,0,0)" stroke="rgb(0,0,0)" stroke-width="1" opacity="0.8431372549019608" d="M 153.5 93 L 154.5 95 L 153.5 93 Z " /><path fill="rgb(0,0,0)" stroke="rgb(0,0,0)" stroke-width="1" opacity="0.8431372549019608" d="M 169.5 100 L 172 101.5 L 170.5 102 L 169.5 100 Z " /><path fill="rgb(0,0,0)" stroke="rgb(0,0,0)" stroke-width="1" opacity="0.8431372549019608" d="M 179.5 118 L 180 120.5 L 179 120.5 L 179.5 118 Z " /><path fill="rgb(0,0,0)" stroke="rgb(0,0,0)" stroke-width="1" opacity="0.8431372549019608" d="M 178.5 125 L 179 127.5 L 178 127.5 L 178.5 125 Z " /><path fill="rgb(0,0,0)" stroke="rgb(0,0,0)" stroke-width="1" opacity="0.8431372549019608" d="M 177.5 132 L 178 134.5 L 177 134.5 L 177.5 132 Z " /><path fill="rgb(0,0,0)" stroke="rgb(0,0,0)" stroke-width="1" opacity="0.8431372549019608" d="M 34.5 139 L 35 141.5 L 34 141.5 L 34.5 139 Z " /><path fill="rgb(0,0,0)" stroke="rgb(0,0,0)" stroke-width="1" opacity="0.8431372549019608" d="M 176.5 140 L 177 146.5 L 176 146.5 L 176.5 140 Z " /><path fill="rgb(0,0,0)" stroke="rgb(0,0,0)" stroke-width="1" opacity="0.8431372549019608" d="M 33.5 146 L 34 148.5 L 33 148.5 L 33.5 146 Z " /><path fill="rgb(0,0,0)" stroke="rgb(0,0,0)" stroke-width="1" opacity="0.8431372549019608" d="M 175.5 151 L 176 153.5 L 175 153.5 L 175.5 151 Z " /><path fill="rgb(0,0,0)" stroke="rgb(0,0,0)" stroke-width="1" opacity="0.8431372549019608" d="M 32.5 154 L 33 157.5 L 32 157.5 L 32.5 154 Z " /><path fill="rgb(0,0,0)" stroke="rgb(0,0,0)" stroke-width="1" opacity="0.8431372549019608" d="M 174.5 159 L 175 162.5 L 174 162.5 L 174.5 159 Z " /><path fill="rgb(0,0,0)" stroke="rgb(0,0,0)" stroke-width="1" opacity="0.8431372549019608" d="M 20.5 163 L 17.5 167 L 20.5 163 Z " /><path fill="rgb(0,0,0)" stroke="rgb(0,0,0)" stroke-width="1" opacity="0.8431372549019608" d="M 29.5 163 L 32 164.5 L 30.5 165 L 29.5 163 Z " /><path fill="rgb(0,0,0)" stroke="rgb(0,0,0)" stroke-width="1" opacity="0.8431372549019608" d="M 173.5 169 L 174 175.5 L 173 175.5 L 173.5 169 Z " /><path fill="rgb(0,0,0)" stroke="rgb(0,0,0)" stroke-width="1" opacity="0.8431372549019608" d="M 175.5 178 L 178 178.5 L 175.5 179 L 175.5 178 Z " /><path fill="rgb(0,0,0)" stroke="rgb(0,0,0)" stroke-width="1" opacity="0.8431372549019608" d="M 11.5 180 L 11 181.5 L 10.5 183 L 10 181.5 L 11.5 180 Z " /><path fill="rgb(0,0,0)" stroke="rgb(0,0,0)" stroke-width="1" opacity="0.8431372549019608" d="M 9.5 184 L 10 187.5 L 9 187.5 L 9.5 184 Z " /><path fill="rgb(0,0,0)" stroke="rgb(0,0,0)" stroke-width="1" opacity="0.8431372549019608" d="M 8.5 195 L 9 197.5 L 8 197.5 L 8.5 195 Z " /><path fill="rgb(0,0,0)" stroke="rgb(0,0,0)" stroke-width="1" opacity="0.8431372549019608" d="M 190.5 195 L 191 197.5 L 190 197.5 L 190.5 195 Z " /><path fill="rgb(0,0,0)" stroke="rgb(0,0,0)" stroke-width="1" opacity="0.996078431372549" d="M 130.5 11 Q 141.6 9.4 144 16.5 L 145 19.5 L 144 24 L 150 27.5 L 151.5 33 L 154.5 32 Q 161.7 33.8 165 39.5 L 168 46.5 L 165 54.5 Q 169.7 57.3 168 66.5 L 163.5 74 L 159 77.5 L 160 81.5 L 157 89.5 L 153 93.5 L 174.5 103 L 178 106.5 Q 180.9 110.1 180 117.5 L 178 123.5 L 178 125.5 L 173 179 Q 181.2 177.5 184 182.5 L 185 186.5 L 183.5 189 L 189 191.5 L 190 200 Q 183.6 202.3 186 194.5 L 178 190.5 L 180 184.5 Q 179.3 182.3 175.5 183 L 172 185.5 L 171 187.5 L 171 200 L 168 199.5 L 168 181.5 L 169 180.5 L 170 159.5 L 172 151.5 L 172 139.5 L 173 138.5 L 176 111.5 L 173.5 108 Q 167.3 102.6 158 101 L 155 118.5 L 155 128.5 L 153 133.5 L 153 147.5 L 151.5 149 L 149 147.5 Q 147.3 141.3 150 139.5 L 149 137.5 L 150 136.5 L 150 125.5 L 152 119.5 L 154 99 L 142.5 95 L 121.5 90 L 114.5 90 L 91.5 86 L 72.5 86 L 68.5 85 Q 66.8 87.8 60.5 86 L 56.5 86 Q 50.2 83.8 52 89.5 L 46 104.5 L 43 120.5 L 40 128.5 L 40 134.5 L 37 149.5 L 37 157.5 L 36 158.5 L 36 168.5 L 35 169.5 L 36 171.5 L 35 174.5 L 35 199.5 L 32 200 L 32 170.5 L 30.5 170 L 24.5 166 L 21 168.5 L 20 174.5 Q 23 175.8 22 180 L 16.5 180 L 16 181.5 Q 13.3 182.3 14 186.5 L 18 189 Q 19.5 192.8 16.5 192 Q 12.5 192.5 13 197.5 L 16 199.5 L 10.5 200 Q 8 199 9 194.5 L 12 188.5 L 10 188.5 L 10 183.5 L 14.5 177 L 17 175.5 Q 14.8 174.3 16 169.5 L 21.5 163 L 26.5 162 L 32 165 L 33 149.5 L 38 120.5 Q 41.5 113.5 42 103.5 L 50 82 L 53.5 81 L 54.5 82 L 90.5 82 L 93.5 83 L 95 81.5 L 96 75.5 L 100.5 70 L 108.5 66 L 120.5 66 L 122 64.5 Q 123.3 58.8 127.5 56 L 133 55 L 132 49.5 L 133 44 L 128.5 41 L 124.5 41 L 120.5 42 L 116 39.5 Q 112.6 36.9 114 29.5 L 110 25.5 L 110 19.5 L 113.5 14 Q 116.4 11.4 122.5 12 L 127.5 13 L 130.5 11 Z M 132 15 L 129 17 L 121 17 L 120 16 L 117 17 L 114 21 L 115 26 L 120 27 L 121 31 L 118 32 Q 117 37 121 38 L 126 37 L 129 32 L 133 34 L 131 38 L 135 40 L 137 40 L 140 42 L 140 45 L 136 49 L 136 52 L 143 60 L 144 61 L 141 61 L 135 58 L 131 59 L 126 64 L 125 71 L 124 72 L 119 70 Q 108 69 104 73 L 99 80 L 99 83 L 101 84 Q 105 83 107 85 L 127 87 L 139 90 L 141 92 Q 148 93 151 90 L 155 84 L 154 74 L 161 71 L 164 66 Q 165 61 163 60 Q 164 57 161 58 Q 156 56 159 55 Q 158 52 161 53 L 163 49 L 163 45 L 160 39 L 155 36 L 149 36 Q 147 39 145 35 L 146 30 L 140 27 L 141 20 L 137 15 L 132 15 Z " /><path fill="rgb(0,0,0)" stroke="rgb(0,0,0)" stroke-width="1" opacity="0.996078431372549" d="M 63.5 113 L 68.5 114 L 73 117.5 L 77 125.5 L 77 147.5 L 73.5 152 L 58.5 152 L 55 149.5 L 53 141.5 L 53 126.5 L 58 115 L 63.5 113 Z M 63 117 L 58 123 L 56 131 L 57 133 L 56 137 L 58 147 L 60 148 Q 66 146 68 149 L 73 148 L 74 146 L 74 132 L 72 123 Q 70 117 63 117 Z " /><path fill="rgb(0,0,0)" stroke="rgb(0,0,0)" stroke-width="1" opacity="0.996078431372549" d="M 107.5 117 Q 118.6 115.4 121 122.5 L 124 131.5 L 124 142.5 L 122 152.5 L 120.5 154 Q 102.7 156.3 95 148.5 L 96 133.5 Q 98.7 131.2 98 125.5 L 102.5 120 L 107.5 117 Z M 113 120 L 105 123 Q 98 131 99 147 L 106 150 L 117 150 L 118 151 L 120 145 Q 122 132 118 125 L 113 120 Z " /><path fill="rgb(0,0,0)" stroke="rgb(0,0,0)" stroke-width="1" opacity="0.996078431372549" d="M 148 158 Q 153.3 156.2 151 163.5 L 149 173.5 L 149 191.5 L 148 192.5 L 148 200 L 145 199.5 L 145 177.5 L 146 176.5 L 146 167.5 L 148 158 Z " /><path fill="rgb(0,0,0)" stroke="rgb(0,0,0)" stroke-width="1" opacity="0.996078431372549" d="M 57.5 160 L 66.5 160 L 67.5 161 L 69.5 160 L 72.5 161 L 109.5 162 L 110.5 163 L 120.5 163 L 123 165.5 Q 122.8 176.8 115.5 181 Q 108.6 186.1 98.5 188 L 86.5 188 L 72.5 185 L 60 176.5 L 56 169.5 L 56 161.5 L 57.5 160 Z M 62 163 L 59 164 L 59 168 L 63 175 L 75 182 L 83 184 L 100 184 L 113 179 Q 119 175 119 167 L 117 166 L 105 166 L 104 164 L 100 165 L 63 164 L 62 163 Z " /><path fill="rgb(0,0,0)" stroke="rgb(0,0,0)" stroke-width="1" opacity="0.12941176470588237" d="M 132.5 9 L 136 9.5 L 132.5 10 L 132.5 9 Z " /><path fill="rgb(0,0,0)" stroke="rgb(0,0,0)" stroke-width="1" opacity="0.12941176470588237" d="M 116.5 11 L 125 11.5 L 116.5 12 L 116.5 11 Z " /><path fill="rgb(0,0,0)" stroke="rgb(0,0,0)" stroke-width="1" opacity="0.12941176470588237" d="M 140.5 11 L 144.5 16 L 140.5 11 Z " /><path fill="rgb(0,0,0)" stroke="rgb(0,0,0)" stroke-width="1" opacity="0.12941176470588237" d="M 112.5 13 L 111.5 15 L 112.5 13 Z " /><path fill="rgb(0,0,0)" stroke="rgb(0,0,0)" stroke-width="1" opacity="0.12941176470588237" d="M 148.5 24 L 150.5 27 L 148.5 24 Z " /><path fill="rgb(0,0,0)" stroke="rgb(0,0,0)" stroke-width="1" opacity="0.12941176470588237" d="M 151.5 28 L 152 30 L 154 30.5 L 152.5 31 L 151.5 28 Z " /><path fill="rgb(0,0,0)" stroke="rgb(0,0,0)" stroke-width="1" opacity="0.12941176470588237" d="M 112.5 32 L 113 34.5 L 112 34.5 L 112.5 32 Z " /><path fill="rgb(0,0,0)" stroke="rgb(0,0,0)" stroke-width="1" opacity="0.12941176470588237" d="M 165.5 38 L 166.5 40 L 165.5 38 Z " /><path fill="rgb(0,0,0)" stroke="rgb(0,0,0)" stroke-width="1" opacity="0.12941176470588237" d="M 115.5 40 L 116.5 42 L 115.5 40 Z " /><path fill="rgb(0,0,0)" stroke="rgb(0,0,0)" stroke-width="1" opacity="0.12941176470588237" d="M 118.5 42 L 121 42.5 L 118.5 43 L 118.5 42 Z " /><path fill="rgb(0,0,0)" stroke="rgb(0,0,0)" stroke-width="1" opacity="0.12941176470588237" d="M 123.5 42 L 126 42.5 L 123.5 43 L 123.5 42 Z " /><path fill="rgb(0,0,0)" stroke="rgb(0,0,0)" stroke-width="1" opacity="0.12941176470588237" d="M 168.5 44 L 169 49.5 L 168 49.5 L 168.5 44 Z " /><path fill="rgb(0,0,0)" stroke="rgb(0,0,0)" stroke-width="1" opacity="0.12941176470588237" d="M 131.5 47 L 132 51.5 L 131 51.5 L 131.5 47 Z " /><path fill="rgb(0,0,0)" stroke="rgb(0,0,0)" stroke-width="1" opacity="0.12941176470588237" d="M 166.5 53 L 168 55.5 L 166 54.5 L 166.5 53 Z " /><path fill="rgb(0,0,0)" stroke="rgb(0,0,0)" stroke-width="1" opacity="0.12941176470588237" d="M 126.5 55 L 123.5 59 L 126.5 55 Z " /><path fill="rgb(0,0,0)" stroke="rgb(0,0,0)" stroke-width="1" opacity="0.12941176470588237" d="M 169.5 59 L 170 64.5 L 169 64.5 L 169.5 59 Z " /><path fill="rgb(0,0,0)" stroke="rgb(0,0,0)" stroke-width="1" opacity="0.12941176470588237" d="M 122.5 60 L 122 61.5 L 121.5 63 L 121 61.5 L 122.5 60 Z " /><path fill="rgb(0,0,0)" stroke="rgb(0,0,0)" stroke-width="1" opacity="0.12941176470588237" d="M 111.5 64 L 119 64.5 L 111.5 65 L 111.5 64 Z " /><path fill="rgb(0,0,0)" stroke="rgb(0,0,0)" stroke-width="1" opacity="0.12941176470588237" d="M 102.5 67 L 101.5 69 L 102.5 67 Z " /><path fill="rgb(0,0,0)" stroke="rgb(0,0,0)" stroke-width="1" opacity="0.12941176470588237" d="M 99.5 69 L 97.5 72 L 99.5 69 Z " /><path fill="rgb(0,0,0)" stroke="rgb(0,0,0)" stroke-width="1" opacity="0.12941176470588237" d="M 167.5 70 L 166.5 72 L 167.5 70 Z " /><path fill="rgb(0,0,0)" stroke="rgb(0,0,0)" stroke-width="1" opacity="0.12941176470588237" d="M 96.5 73 L 95.5 75 L 96.5 73 Z " /><path fill="rgb(0,0,0)" stroke="rgb(0,0,0)" stroke-width="1" opacity="0.12941176470588237" d="M 165.5 73 L 164.5 75 L 165.5 73 Z " /><path fill="rgb(0,0,0)" stroke="rgb(0,0,0)" stroke-width="1" opacity="0.12941176470588237" d="M 161.5 76 L 161 77.5 L 160.5 79 L 160 77.5 L 161.5 76 Z " /><path fill="rgb(0,0,0)" stroke="rgb(0,0,0)" stroke-width="1" opacity="0.12941176470588237" d="M 54.5 80 L 83 80.5 L 54.5 81 L 54.5 80 Z " /><path fill="rgb(0,0,0)" stroke="rgb(0,0,0)" stroke-width="1" opacity="0.12941176470588237" d="M 93.5 80 L 94 82 L 88 81.5 L 93.5 80 Z " /><path fill="rgb(0,0,0)" stroke="rgb(0,0,0)" stroke-width="1" opacity="0.12941176470588237" d="M 160.5 81 L 161 83.5 L 160 83.5 L 160.5 81 Z " /><path fill="rgb(0,0,0)" stroke="rgb(0,0,0)" stroke-width="1" opacity="0.12941176470588237" d="M 157.5 90 L 154.5 94 L 157.5 90 Z " /><path fill="rgb(0,0,0)" stroke="rgb(0,0,0)" stroke-width="1" opacity="0.12941176470588237" d="M 175.5 102 L 178.5 106 L 175.5 102 Z " /><path fill="rgb(0,0,0)" stroke="rgb(0,0,0)" stroke-width="1" opacity="0.12941176470588237" d="M 40.5 105 L 41 107.5 L 40 107.5 L 40.5 105 Z " /><path fill="rgb(0,0,0)" stroke="rgb(0,0,0)" stroke-width="1" opacity="0.12941176470588237" d="M 181.5 112 L 182 114.5 L 181 114.5 L 181.5 112 Z " /><path fill="rgb(0,0,0)" stroke="rgb(0,0,0)" stroke-width="1" opacity="0.12941176470588237" d="M 180.5 117 L 181 120.5 L 180 120.5 L 180.5 117 Z " /><path fill="rgb(0,0,0)" stroke="rgb(0,0,0)" stroke-width="1" opacity="0.12941176470588237" d="M 37.5 118 L 38 120.5 L 37 120.5 L 37.5 118 Z " /><path fill="rgb(0,0,0)" stroke="rgb(0,0,0)" stroke-width="1" opacity="0.12941176470588237" d="M 36.5 123 L 37 125.5 L 36 125.5 L 36.5 123 Z " /><path fill="rgb(0,0,0)" stroke="rgb(0,0,0)" stroke-width="1" opacity="0.12941176470588237" d="M 179.5 123 L 180 127.5 L 179 127.5 L 179.5 123 Z " /><path fill="rgb(0,0,0)" stroke="rgb(0,0,0)" stroke-width="1" opacity="0.12941176470588237" d="M 35.5 127 L 36 130.5 L 35 130.5 L 35.5 127 Z " /><path fill="rgb(0,0,0)" stroke="rgb(0,0,0)" stroke-width="1" opacity="0.12941176470588237" d="M 178.5 130 L 179 134.5 L 178 134.5 L 178.5 130 Z " /><path fill="rgb(0,0,0)" stroke="rgb(0,0,0)" stroke-width="1" opacity="0.12941176470588237" d="M 34.5 133 L 35 135.5 L 34 135.5 L 34.5 133 Z " /><path fill="rgb(0,0,0)" stroke="rgb(0,0,0)" stroke-width="1" opacity="0.12941176470588237" d="M 177.5 138 L 178 146.5 L 177 146.5 L 177.5 138 Z " /><path fill="rgb(0,0,0)" stroke="rgb(0,0,0)" stroke-width="1" opacity="0.12941176470588237" d="M 33.5 139 L 34 142.5 L 33 142.5 L 33.5 139 Z " /><path fill="rgb(0,0,0)" stroke="rgb(0,0,0)" stroke-width="1" opacity="0.12941176470588237" d="M 32.5 146 L 33 150.5 L 32 150.5 L 32.5 146 Z " /><path fill="rgb(0,0,0)" stroke="rgb(0,0,0)" stroke-width="1" opacity="0.12941176470588237" d="M 176.5 150 L 177 153.5 L 176 153.5 L 176.5 150 Z " /><path fill="rgb(0,0,0)" stroke="rgb(0,0,0)" stroke-width="1" opacity="0.12941176470588237" d="M 31.5 154 L 32 160.5 L 31 160.5 L 31.5 154 Z " /><path fill="rgb(0,0,0)" stroke="rgb(0,0,0)" stroke-width="1" opacity="0.12941176470588237" d="M 175.5 157 L 176 162.5 L 175 162.5 L 175.5 157 Z " /><path fill="rgb(0,0,0)" stroke="rgb(0,0,0)" stroke-width="1" opacity="0.12941176470588237" d="M 20.5 162 L 19.5 164 L 20.5 162 Z " /><path fill="rgb(0,0,0)" stroke="rgb(0,0,0)" stroke-width="1" opacity="0.12941176470588237" d="M 16.5 166 L 16 167.5 L 15.5 169 L 15 167.5 L 16.5 166 Z " /><path fill="rgb(0,0,0)" stroke="rgb(0,0,0)" stroke-width="1" opacity="0.12941176470588237" d="M 174.5 166 L 175 175.5 L 174 175.5 L 174.5 166 Z " /><path fill="rgb(0,0,0)" stroke="rgb(0,0,0)" stroke-width="1" opacity="0.12941176470588237" d="M 14.5 171 L 15 173.5 L 14 173.5 L 14.5 171 Z " /><path fill="rgb(0,0,0)" stroke="rgb(0,0,0)" stroke-width="1" opacity="0.12941176470588237" d="M 13.5 176 L 10.5 180 L 13.5 176 Z " /><path fill="rgb(0,0,0)" stroke="rgb(0,0,0)" stroke-width="1" opacity="0.12941176470588237" d="M 174.5 177 L 178 177.5 L 174.5 178 L 174.5 177 Z " /><path fill="rgb(0,0,0)" stroke="rgb(0,0,0)" stroke-width="1" opacity="0.12941176470588237" d="M 182.5 179 L 184.5 182 L 182.5 179 Z " /><path fill="rgb(0,0,0)" stroke="rgb(0,0,0)" stroke-width="1" opacity="0.12941176470588237" d="M 185.5 183 L 187 188.5 L 185 187.5 L 185.5 183 Z " /><path fill="rgb(0,0,0)" stroke="rgb(0,0,0)" stroke-width="1" opacity="0.12941176470588237" d="M 8.5 184 L 9 187.5 L 8 187.5 L 8.5 184 Z " /><path fill="rgb(0,0,0)" stroke="rgb(0,0,0)" stroke-width="1" opacity="0.12941176470588237" d="M 188.5 189 L 189.5 191 L 188.5 189 Z " /><path fill="rgb(0,0,0)" stroke="rgb(0,0,0)" stroke-width="1" opacity="0.12941176470588237" d="M 7.5 195 L 9 199.5 L 7 198.5 L 7.5 195 Z " /><path fill="rgb(0,0,0)" stroke="rgb(0,0,0)" stroke-width="1" opacity="0.12941176470588237" d="M 191.5 195 L 192 197.5 L 191 197.5 L 191.5 195 Z " /><path fill="rgb(107,54,41)" stroke="rgb(107,54,41)" stroke-width="1" opacity="1" d="M 117.5 18 Q 121.3 16.8 120 20.5 Q 122.5 22 119 23.5 Q 119.7 26.5 116 25 Q 114.5 19.6 117.5 18 Z " /><path fill="rgb(107,54,41)" stroke="rgb(107,54,41)" stroke-width="1" opacity="1" d="M 139.5 20 L 140 22.5 L 139 22.5 L 139.5 20 Z " /><path fill="rgb(107,54,41)" stroke="rgb(107,54,41)" stroke-width="1" opacity="1" d="M 138.5 25 L 139 27 L 129.5 32 L 125.5 36 L 129.5 31 L 131.5 31 L 138.5 25 Z " /><path fill="rgb(107,54,41)" stroke="rgb(107,54,41)" stroke-width="1" opacity="1" d="M 134.5 31 Q 138.3 30.3 139 32.5 Q 140.3 37.8 137.5 39 Q 133 40 132 37.5 L 134.5 31 Z " /><path fill="rgb(107,54,41)" stroke="rgb(107,54,41)" stroke-width="1" opacity="1" d="M 139.5 45 L 138.5 47 L 139.5 45 Z " /><path fill="rgb(107,54,41)" stroke="rgb(107,54,41)" stroke-width="1" opacity="1" d="M 157 47 L 162 48 L 158.5 53 L 157 47 Z " /><path fill="rgb(107,54,41)" stroke="rgb(107,54,41)" stroke-width="1" opacity="1" d="M 137.5 48 L 138 50.5 L 137 50.5 L 137.5 48 Z " /><path fill="rgb(107,54,41)" stroke="rgb(107,54,41)" stroke-width="1" opacity="1" d="M 154.5 54 L 158 54.5 L 154.5 55 L 154.5 54 Z " /><path fill="rgb(107,54,41)" stroke="rgb(107,54,41)" stroke-width="1" opacity="1" d="M 151.5 55 L 151 56.5 Q 151.4 62.9 147.5 65 L 144 62.5 L 145 58 L 151.5 55 Z " /><path fill="rgb(107,54,41)" stroke="rgb(107,54,41)" stroke-width="1" opacity="1" d="M 126.5 69 L 134.5 78 L 130.5 74 L 127.5 77 L 125.5 78 L 119.5 74 Q 118 76.5 112.5 75 L 111 76.5 L 109 84 Q 106.9 82.4 101.5 83 L 100 81.5 Q 100.5 76 104.5 74 Q 109 70 118.5 71 Q 119.5 74 124.5 73 Q 128.2 71 126.5 69 Z " /><path fill="rgb(107,54,41)" stroke="rgb(107,54,41)" stroke-width="1" opacity="1" d="M 150.5 78 L 153.5 82 L 155 81.5 L 150.5 89 L 142.5 91 L 137 81.5 L 138.5 82 Q 147.7 83.2 150.5 78 Z " /><path fill="rgb(107,54,41)" stroke="rgb(107,54,41)" stroke-width="1" opacity="1" d="M 22.5 168 L 22 169.5 L 21.5 171 L 21 169.5 L 22.5 168 Z " /><path fill="rgb(107,54,41)" stroke="rgb(107,54,41)" stroke-width="1" opacity="1" d="M 27.5 168 L 31 171.5 L 31 200 L 18.5 200 L 14 196.5 L 15.5 194 L 19 193 Q 20 188.3 16.5 187 L 15 186.5 L 15 184.5 L 17.5 181 Q 22 182 23 179.5 Q 22.3 176.9 25 178 L 25 173.5 L 30 171.5 L 27.5 168 Z " /><path fill="rgb(107,54,41)" stroke="rgb(107,54,41)" stroke-width="1" opacity="1" d="M 21.5 174 L 23 176.5 L 22 176.5 L 21.5 174 Z " /><path fill="rgb(107,54,41)" stroke="rgb(107,54,41)" stroke-width="1" opacity="1" d="M 64.5 174 L 65.5 176 L 64.5 174 Z " /><path fill="rgb(107,54,41)" stroke="rgb(107,54,41)" stroke-width="1" opacity="1" d="M 175.5 184 L 174.5 186 L 173 185.5 L 175.5 184 Z " /><path fill="rgb(107,54,41)" stroke="rgb(107,54,41)" stroke-width="1" opacity="1" d="M 178.5 184 Q 181.5 185.5 178.5 187 L 178.5 184 Z " /><path fill="rgb(107,54,41)" stroke="rgb(107,54,41)" stroke-width="1" opacity="1" d="M 172.5 187 L 176.5 189 L 178 188.5 L 177 190.5 L 179.5 193 L 185 194 L 185 200 L 172 200 L 172.5 187 Z " /><path fill="rgb(0,0,0)" stroke="rgb(0,0,0)" stroke-width="1" opacity="0.47058823529411764" d="M 139.5 11 L 140.5 13 L 139.5 11 Z " /><path fill="rgb(0,0,0)" stroke="rgb(0,0,0)" stroke-width="1" opacity="0.47058823529411764" d="M 113.5 13 L 110.5 17 L 113.5 13 Z " /><path fill="rgb(0,0,0)" stroke="rgb(0,0,0)" stroke-width="1" opacity="0.47058823529411764" d="M 145.5 18 L 146 22.5 L 145 22.5 L 145.5 18 Z " /><path fill="rgb(0,0,0)" stroke="rgb(0,0,0)" stroke-width="1" opacity="0.47058823529411764" d="M 109.5 19 L 110 25.5 L 109 25.5 L 109.5 19 Z " /><path fill="rgb(0,0,0)" stroke="rgb(0,0,0)" stroke-width="1" opacity="0.47058823529411764" d="M 147.5 24 L 150.5 28 L 147.5 24 Z " /><path fill="rgb(0,0,0)" stroke="rgb(0,0,0)" stroke-width="1" opacity="0.47058823529411764" d="M 110.5 27 L 114 31.5 L 113 31.5 L 110.5 27 Z " /><path fill="rgb(0,0,0)" stroke="rgb(0,0,0)" stroke-width="1" opacity="0.47058823529411764" d="M 161.5 34 L 164.5 38 L 161.5 34 Z " /><path fill="rgb(0,0,0)" stroke="rgb(0,0,0)" stroke-width="1" opacity="0.47058823529411764" d="M 114.5 38 L 117.5 42 L 114.5 38 Z " /><path fill="rgb(0,0,0)" stroke="rgb(0,0,0)" stroke-width="1" opacity="0.47058823529411764" d="M 165.5 39 L 166.5 41 L 165.5 39 Z " /><path fill="rgb(0,0,0)" stroke="rgb(0,0,0)" stroke-width="1" opacity="0.47058823529411764" d="M 126.5 41 L 130 43.5 L 127.5 42 L 126.5 41 Z " /><path fill="rgb(0,0,0)" stroke="rgb(0,0,0)" stroke-width="1" opacity="0.47058823529411764" d="M 131.5 44 Q 134.1 43.2 133 46.5 L 132 46.5 L 131.5 44 Z " /><path fill="rgb(0,0,0)" stroke="rgb(0,0,0)" stroke-width="1" opacity="0.47058823529411764" d="M 166.5 55 L 167.5 57 L 166.5 55 Z " /><path fill="rgb(0,0,0)" stroke="rgb(0,0,0)" stroke-width="1" opacity="0.47058823529411764" d="M 124.5 58 L 123.5 60 L 124.5 58 Z " /><path fill="rgb(0,0,0)" stroke="rgb(0,0,0)" stroke-width="1" opacity="0.47058823529411764" d="M 103.5 67 L 102.5 69 L 103.5 67 Z " /><path fill="rgb(0,0,0)" stroke="rgb(0,0,0)" stroke-width="1" opacity="0.47058823529411764" d="M 100.5 69 L 97.5 73 L 100.5 69 Z " /><path fill="rgb(0,0,0)" stroke="rgb(0,0,0)" stroke-width="1" opacity="0.47058823529411764" d="M 165.5 72 L 162.5 76 L 165.5 72 Z " /><path fill="rgb(0,0,0)" stroke="rgb(0,0,0)" stroke-width="1" opacity="0.47058823529411764" d="M 96.5 74 L 96 75.5 L 95.5 77 L 95 75.5 L 96.5 74 Z " /><path fill="rgb(0,0,0)" stroke="rgb(0,0,0)" stroke-width="1" opacity="0.47058823529411764" d="M 50.5 81 L 49.5 83 L 50.5 81 Z " /><path fill="rgb(0,0,0)" stroke="rgb(0,0,0)" stroke-width="1" opacity="0.47058823529411764" d="M 82.5 81 L 88 81.5 L 82.5 82 L 82.5 81 Z " /><path fill="rgb(0,0,0)" stroke="rgb(0,0,0)" stroke-width="1" opacity="0.47058823529411764" d="M 157.5 89 L 156.5 91 L 157.5 89 Z " /><path fill="rgb(0,0,0)" stroke="rgb(0,0,0)" stroke-width="1" opacity="0.47058823529411764" d="M 174.5 102 L 178.5 107 L 174.5 102 Z " /><path fill="rgb(0,0,0)" stroke="rgb(0,0,0)" stroke-width="1" opacity="0.47058823529411764" d="M 180.5 114 L 181 116.5 L 180 116.5 L 180.5 114 Z " /><path fill="rgb(0,0,0)" stroke="rgb(0,0,0)" stroke-width="1" opacity="0.47058823529411764" d="M 177.5 135 L 178 137.5 L 177 137.5 L 177.5 135 Z " /><path fill="rgb(0,0,0)" stroke="rgb(0,0,0)" stroke-width="1" opacity="0.47058823529411764" d="M 34.5 136 L 35 138.5 L 34 138.5 L 34.5 136 Z " /><path fill="rgb(0,0,0)" stroke="rgb(0,0,0)" stroke-width="1" opacity="0.47058823529411764" d="M 33.5 143 L 34 145.5 L 33 145.5 L 33.5 143 Z " /><path fill="rgb(0,0,0)" stroke="rgb(0,0,0)" stroke-width="1" opacity="0.47058823529411764" d="M 176.5 147 L 177 149.5 L 176 149.5 L 176.5 147 Z " /><path fill="rgb(0,0,0)" stroke="rgb(0,0,0)" stroke-width="1" opacity="0.47058823529411764" d="M 32.5 151 L 33 153.5 L 32 153.5 L 32.5 151 Z " /><path fill="rgb(0,0,0)" stroke="rgb(0,0,0)" stroke-width="1" opacity="0.47058823529411764" d="M 175.5 154 L 176 156.5 L 175 156.5 L 175.5 154 Z " /><path fill="rgb(0,0,0)" stroke="rgb(0,0,0)" stroke-width="1" opacity="0.47058823529411764" d="M 23.5 161 L 26 161.5 L 23.5 162 L 23.5 161 Z " /><path fill="rgb(0,0,0)" stroke="rgb(0,0,0)" stroke-width="1" opacity="0.47058823529411764" d="M 31.5 161 L 32 164 L 30 163.5 L 31.5 161 Z " /><path fill="rgb(0,0,0)" stroke="rgb(0,0,0)" stroke-width="1" opacity="0.47058823529411764" d="M 174.5 163 L 175 165.5 L 174 165.5 L 174.5 163 Z " /><path fill="rgb(0,0,0)" stroke="rgb(0,0,0)" stroke-width="1" opacity="0.47058823529411764" d="M 18.5 164 L 17.5 166 L 18.5 164 Z " /><path fill="rgb(0,0,0)" stroke="rgb(0,0,0)" stroke-width="1" opacity="0.47058823529411764" d="M 15.5 173 L 16 175.5 L 10 180.5 Q 14.9 178.9 15.5 173 Z " /><path fill="rgb(0,0,0)" stroke="rgb(0,0,0)" stroke-width="1" opacity="0.47058823529411764" d="M 173.5 176 L 175 178.5 L 173 179 L 173.5 176 Z " /><path fill="rgb(0,0,0)" stroke="rgb(0,0,0)" stroke-width="1" opacity="0.47058823529411764" d="M 181.5 179 L 182.5 181 L 181.5 179 Z " /><path fill="rgb(0,0,0)" stroke="rgb(0,0,0)" stroke-width="1" opacity="0.47058823529411764" d="M 187.5 189 L 189.5 192 L 187.5 189 Z " /><path fill="rgb(0,0,0)" stroke="rgb(0,0,0)" stroke-width="1" opacity="0.47058823529411764" d="M 10.5 190 L 11 191.5 L 9 192.5 L 10.5 190 Z " /><path fill="rgb(2,2,1)" stroke="rgb(2,2,1)" stroke-width="1" opacity="0.996078431372549" d="M 116.5 17 L 115.5 19 L 116.5 17 Z " /><path fill="rgb(2,2,1)" stroke="rgb(2,2,1)" stroke-width="1" opacity="0.996078431372549" d="M 124.5 17 L 128 17.5 L 124.5 18 L 124.5 17 Z " /><path fill="rgb(2,2,1)" stroke="rgb(2,2,1)" stroke-width="1" opacity="0.996078431372549" d="M 144.5 20 L 145 23.5 L 144 23.5 L 144.5 20 Z " /><path fill="rgb(2,2,1)" stroke="rgb(2,2,1)" stroke-width="1" opacity="0.996078431372549" d="M 144.5 28 L 145.5 30 L 144.5 28 Z " /><path fill="rgb(2,2,1)" stroke="rgb(2,2,1)" stroke-width="1" opacity="0.996078431372549" d="M 145.5 35 L 146.5 37 L 145.5 35 Z " /><path fill="rgb(2,2,1)" stroke="rgb(2,2,1)" stroke-width="1" opacity="0.996078431372549" d="M 148.5 36 L 151 36.5 L 148.5 37 L 148.5 36 Z " /><path fill="rgb(2,2,1)" stroke="rgb(2,2,1)" stroke-width="1" opacity="0.996078431372549" d="M 152.5 36 L 155 36.5 L 152.5 37 L 152.5 36 Z " /><path fill="rgb(2,2,1)" stroke="rgb(2,2,1)" stroke-width="1" opacity="0.996078431372549" d="M 120.5 37 L 124 37.5 L 120.5 38 L 120.5 37 Z " /><path fill="rgb(2,2,1)" stroke="rgb(2,2,1)" stroke-width="1" opacity="0.996078431372549" d="M 140.5 41 L 141 43.5 L 140 43.5 L 140.5 41 Z " /><path fill="rgb(2,2,1)" stroke="rgb(2,2,1)" stroke-width="1" opacity="0.996078431372549" d="M 136.5 48 L 138 52.5 L 136 51.5 L 136.5 48 Z " /><path fill="rgb(2,2,1)" stroke="rgb(2,2,1)" stroke-width="1" opacity="0.996078431372549" d="M 141.5 56 L 144 59.5 L 143 59.5 L 141.5 56 Z " /><path fill="rgb(2,2,1)" stroke="rgb(2,2,1)" stroke-width="1" opacity="0.996078431372549" d="M 132.5 58 L 135 58.5 L 132.5 59 L 132.5 58 Z " /><path fill="rgb(2,2,1)" stroke="rgb(2,2,1)" stroke-width="1" opacity="0.996078431372549" d="M 163.5 60 L 164 65.5 L 163 65.5 L 163.5 60 Z " /><path fill="rgb(2,2,1)" stroke="rgb(2,2,1)" stroke-width="1" opacity="0.996078431372549" d="M 125.5 66 L 126 69.5 L 125 69.5 L 125.5 66 Z " /><path fill="rgb(2,2,1)" stroke="rgb(2,2,1)" stroke-width="1" opacity="0.996078431372549" d="M 161.5 69 L 160.5 71 L 161.5 69 Z " /><path fill="rgb(2,2,1)" stroke="rgb(2,2,1)" stroke-width="1" opacity="0.996078431372549" d="M 155.5 71 L 154.5 73 L 155.5 71 Z " /><path fill="rgb(2,2,1)" stroke="rgb(2,2,1)" stroke-width="1" opacity="0.996078431372549" d="M 103.5 73 L 101.5 76 L 103.5 73 Z " /><path fill="rgb(2,2,1)" stroke="rgb(2,2,1)" stroke-width="1" opacity="0.996078431372549" d="M 68.5 85 L 72 85.5 L 68.5 86 L 68.5 85 Z " /><path fill="rgb(2,2,1)" stroke="rgb(2,2,1)" stroke-width="1" opacity="0.996078431372549" d="M 114.5 85 L 118 85.5 L 114.5 86 L 114.5 85 Z " /><path fill="rgb(2,2,1)" stroke="rgb(2,2,1)" stroke-width="1" opacity="0.996078431372549" d="M 86.5 86 L 92 86.5 L 86.5 87 L 86.5 86 Z " /><path fill="rgb(2,2,1)" stroke="rgb(2,2,1)" stroke-width="1" opacity="0.996078431372549" d="M 97.5 87 L 102 87.5 L 97.5 88 L 97.5 87 Z " /><path fill="rgb(2,2,1)" stroke="rgb(2,2,1)" stroke-width="1" opacity="0.996078431372549" d="M 105.5 88 L 108 88.5 L 105.5 89 L 105.5 88 Z " /><path fill="rgb(2,2,1)" stroke="rgb(2,2,1)" stroke-width="1" opacity="0.996078431372549" d="M 131.5 88 L 134 88.5 L 131.5 89 L 131.5 88 Z " /><path fill="rgb(2,2,1)" stroke="rgb(2,2,1)" stroke-width="1" opacity="0.996078431372549" d="M 139.5 90 L 144 91.5 L 140.5 92 L 139.5 90 Z " /><path fill="rgb(2,2,1)" stroke="rgb(2,2,1)" stroke-width="1" opacity="0.996078431372549" d="M 157.5 103 L 158 105.5 L 157 105.5 L 157.5 103 Z " /><path fill="rgb(2,2,1)" stroke="rgb(2,2,1)" stroke-width="1" opacity="0.996078431372549" d="M 152.5 110 L 153 112.5 L 152 112.5 L 152.5 110 Z " /><path fill="rgb(2,2,1)" stroke="rgb(2,2,1)" stroke-width="1" opacity="0.996078431372549" d="M 156.5 110 L 157 112.5 L 156 112.5 L 156.5 110 Z " /><path fill="rgb(2,2,1)" stroke="rgb(2,2,1)" stroke-width="1" opacity="0.996078431372549" d="M 64.5 113 L 67 113.5 L 64.5 114 L 64.5 113 Z " /><path fill="rgb(2,2,1)" stroke="rgb(2,2,1)" stroke-width="1" opacity="0.996078431372549" d="M 175.5 115 L 176 117.5 L 175 117.5 L 175.5 115 Z " /><path fill="rgb(2,2,1)" stroke="rgb(2,2,1)" stroke-width="1" opacity="0.996078431372549" d="M 57.5 116 L 56.5 118 L 57.5 116 Z " /><path fill="rgb(2,2,1)" stroke="rgb(2,2,1)" stroke-width="1" opacity="0.996078431372549" d="M 62.5 117 L 66 117.5 Q 60.9 117.4 59.5 121 L 62.5 117 Z " /><path fill="rgb(2,2,1)" stroke="rgb(2,2,1)" stroke-width="1" opacity="0.996078431372549" d="M 104.5 118 L 103.5 120 L 104.5 118 Z " /><path fill="rgb(2,2,1)" stroke="rgb(2,2,1)" stroke-width="1" opacity="0.996078431372549" d="M 117.5 118 L 120.5 122 L 117.5 118 Z " /><path fill="rgb(2,2,1)" stroke="rgb(2,2,1)" stroke-width="1" opacity="0.996078431372549" d="M 155.5 118 L 156 120.5 L 155 120.5 L 155.5 118 Z " /><path fill="rgb(2,2,1)" stroke="rgb(2,2,1)" stroke-width="1" opacity="0.996078431372549" d="M 70.5 121 L 72 123.5 L 71 123.5 L 70.5 121 Z " /><path fill="rgb(2,2,1)" stroke="rgb(2,2,1)" stroke-width="1" opacity="0.996078431372549" d="M 107.5 121 L 109 121.5 L 106.5 123 L 107.5 121 Z " /><path fill="rgb(2,2,1)" stroke="rgb(2,2,1)" stroke-width="1" opacity="0.996078431372549" d="M 114.5 121 L 117.5 125 L 114.5 121 Z " /><path fill="rgb(2,2,1)" stroke="rgb(2,2,1)" stroke-width="1" opacity="0.996078431372549" d="M 174.5 121 L 175 123.5 L 174 123.5 L 174.5 121 Z " /><path fill="rgb(2,2,1)" stroke="rgb(2,2,1)" stroke-width="1" opacity="0.996078431372549" d="M 104.5 123 L 103.5 125 L 104.5 123 Z " /><path fill="rgb(2,2,1)" stroke="rgb(2,2,1)" stroke-width="1" opacity="0.996078431372549" d="M 97.5 127 L 98 129.5 L 97 129.5 L 97.5 127 Z " /><path fill="rgb(2,2,1)" stroke="rgb(2,2,1)" stroke-width="1" opacity="0.996078431372549" d="M 40.5 128 L 41 131.5 L 40 131.5 L 40.5 128 Z " /><path fill="rgb(2,2,1)" stroke="rgb(2,2,1)" stroke-width="1" opacity="0.996078431372549" d="M 173.5 128 L 174 131.5 L 173 131.5 L 173.5 128 Z " /><path fill="rgb(2,2,1)" stroke="rgb(2,2,1)" stroke-width="1" opacity="0.996078431372549" d="M 77.5 129 L 78 145.5 L 77 145.5 L 77.5 129 Z " /><path fill="rgb(2,2,1)" stroke="rgb(2,2,1)" stroke-width="1" opacity="0.996078431372549" d="M 52.5 130 L 53 137.5 L 52 137.5 L 52.5 130 Z " /><path fill="rgb(2,2,1)" stroke="rgb(2,2,1)" stroke-width="1" opacity="0.996078431372549" d="M 73.5 131 L 74 145.5 L 73 145.5 L 73.5 131 Z " /><path fill="rgb(2,2,1)" stroke="rgb(2,2,1)" stroke-width="1" opacity="0.996078431372549" d="M 100.5 132 L 101 134.5 L 100 134.5 L 100.5 132 Z " /><path fill="rgb(2,2,1)" stroke="rgb(2,2,1)" stroke-width="1" opacity="0.996078431372549" d="M 153.5 133 L 154 137.5 L 153 137.5 L 153.5 133 Z " /><path fill="rgb(2,2,1)" stroke="rgb(2,2,1)" stroke-width="1" opacity="0.996078431372549" d="M 149.5 134 L 150 136.5 L 149 136.5 L 149.5 134 Z " /><path fill="rgb(2,2,1)" stroke="rgb(2,2,1)" stroke-width="1" opacity="0.996078431372549" d="M 172.5 135 L 173 138.5 L 172 138.5 L 172.5 135 Z " /><path fill="rgb(2,2,1)" stroke="rgb(2,2,1)" stroke-width="1" opacity="0.996078431372549" d="M 95.5 137 L 96 143.5 L 95 143.5 L 95.5 137 Z " /><path fill="rgb(2,2,1)" stroke="rgb(2,2,1)" stroke-width="1" opacity="0.996078431372549" d="M 99.5 137 L 100 143.5 L 99 143.5 L 99.5 137 Z " /><path fill="rgb(2,2,1)" stroke="rgb(2,2,1)" stroke-width="1" opacity="0.996078431372549" d="M 38.5 140 L 39 143.5 L 38 143.5 L 38.5 140 Z " /><path fill="rgb(2,2,1)" stroke="rgb(2,2,1)" stroke-width="1" opacity="0.996078431372549" d="M 57.5 141 L 58 144.5 L 57 144.5 L 57.5 141 Z " /><path fill="rgb(2,2,1)" stroke="rgb(2,2,1)" stroke-width="1" opacity="0.996078431372549" d="M 53.5 142 L 54 145.5 L 53 145.5 L 53.5 142 Z " /><path fill="rgb(2,2,1)" stroke="rgb(2,2,1)" stroke-width="1" opacity="0.996078431372549" d="M 119.5 142 L 120 144.5 L 119 144.5 L 119.5 142 Z " /><path fill="rgb(2,2,1)" stroke="rgb(2,2,1)" stroke-width="1" opacity="0.996078431372549" d="M 123.5 143 L 124 145.5 L 123 145.5 L 123.5 143 Z " /><path fill="rgb(2,2,1)" stroke="rgb(2,2,1)" stroke-width="1" opacity="0.996078431372549" d="M 171.5 147 L 172 151.5 L 171 151.5 L 171.5 147 Z " /><path fill="rgb(2,2,1)" stroke="rgb(2,2,1)" stroke-width="1" opacity="0.996078431372549" d="M 67.5 148 L 70 148.5 L 67.5 149 L 67.5 148 Z " /><path fill="rgb(2,2,1)" stroke="rgb(2,2,1)" stroke-width="1" opacity="0.996078431372549" d="M 118.5 148 L 119 149.5 L 117 150.5 L 118.5 148 Z " /><path fill="rgb(2,2,1)" stroke="rgb(2,2,1)" stroke-width="1" opacity="0.996078431372549" d="M 37.5 149 L 38 151.5 L 37 151.5 L 37.5 149 Z " /><path fill="rgb(2,2,1)" stroke="rgb(2,2,1)" stroke-width="1" opacity="0.996078431372549" d="M 95.5 149 L 96.5 151 L 95.5 149 Z " /><path fill="rgb(2,2,1)" stroke="rgb(2,2,1)" stroke-width="1" opacity="0.996078431372549" d="M 105.5 149 L 109 149.5 L 105.5 150 L 105.5 149 Z " /><path fill="rgb(2,2,1)" stroke="rgb(2,2,1)" stroke-width="1" opacity="0.996078431372549" d="M 63.5 152 L 72 152.5 L 63.5 153 L 63.5 152 Z " /><path fill="rgb(2,2,1)" stroke="rgb(2,2,1)" stroke-width="1" opacity="0.996078431372549" d="M 115.5 154 L 120 154.5 L 115.5 155 L 115.5 154 Z " /><path fill="rgb(2,2,1)" stroke="rgb(2,2,1)" stroke-width="1" opacity="0.996078431372549" d="M 170.5 155 L 171 158.5 L 170 158.5 L 170.5 155 Z " /><path fill="rgb(2,2,1)" stroke="rgb(2,2,1)" stroke-width="1" opacity="0.996078431372549" d="M 36.5 158 L 37 161.5 L 36 161.5 L 36.5 158 Z " /><path fill="rgb(2,2,1)" stroke="rgb(2,2,1)" stroke-width="1" opacity="0.996078431372549" d="M 56.5 160 L 56 161.5 L 55.5 168 L 55 161.5 L 56.5 160 Z " /><path fill="rgb(2,2,1)" stroke="rgb(2,2,1)" stroke-width="1" opacity="0.996078431372549" d="M 72.5 160 L 87 160.5 L 72.5 161 L 72.5 160 Z " /><path fill="rgb(2,2,1)" stroke="rgb(2,2,1)" stroke-width="1" opacity="0.996078431372549" d="M 96.5 161 L 104 161.5 L 96.5 162 L 96.5 161 Z " /><path fill="rgb(2,2,1)" stroke="rgb(2,2,1)" stroke-width="1" opacity="0.996078431372549" d="M 110.5 162 L 115 162.5 L 110.5 163 L 110.5 162 Z " /><path fill="rgb(2,2,1)" stroke="rgb(2,2,1)" stroke-width="1" opacity="0.996078431372549" d="M 121.5 163 L 122.5 165 L 121.5 163 Z " /><path fill="rgb(2,2,1)" stroke="rgb(2,2,1)" stroke-width="1" opacity="0.996078431372549" d="M 81.5 164 L 86 164.5 L 81.5 165 L 81.5 164 Z " /><path fill="rgb(2,2,1)" stroke="rgb(2,2,1)" stroke-width="1" opacity="0.996078431372549" d="M 100 164 Q 105.2 162.3 104 166 Q 98.8 167.7 100 164 Z " /><path fill="rgb(2,2,1)" stroke="rgb(2,2,1)" stroke-width="1" opacity="0.996078431372549" d="M 150.5 164 L 151 167.5 L 150 167.5 L 150.5 164 Z " /><path fill="rgb(2,2,1)" stroke="rgb(2,2,1)" stroke-width="1" opacity="0.996078431372549" d="M 169.5 164 L 170 171.5 L 169 171.5 L 169.5 164 Z " /><path fill="rgb(2,2,1)" stroke="rgb(2,2,1)" stroke-width="1" opacity="0.996078431372549" d="M 113.5 166 L 117 166.5 L 113.5 167 L 113.5 166 Z " /><path fill="rgb(2,2,1)" stroke="rgb(2,2,1)" stroke-width="1" opacity="0.996078431372549" d="M 22.5 167 L 21.5 169 L 22.5 167 Z " /><path fill="rgb(2,2,1)" stroke="rgb(2,2,1)" stroke-width="1" opacity="0.996078431372549" d="M 145.5 172 L 146 176.5 L 145 176.5 L 145.5 172 Z " /><path fill="rgb(2,2,1)" stroke="rgb(2,2,1)" stroke-width="1" opacity="0.996078431372549" d="M 149.5 173 L 150 176.5 L 149 176.5 L 149.5 173 Z " /><path fill="rgb(2,2,1)" stroke="rgb(2,2,1)" stroke-width="1" opacity="0.996078431372549" d="M 35.5 174 L 36 199.5 L 35 199.5 L 35.5 174 Z " /><path fill="rgb(2,2,1)" stroke="rgb(2,2,1)" stroke-width="1" opacity="0.996078431372549" d="M 58.5 174 L 59.5 176 L 58.5 174 Z " /><path fill="rgb(2,2,1)" stroke="rgb(2,2,1)" stroke-width="1" opacity="0.996078431372549" d="M 63.5 174 L 64.5 176 L 63.5 174 Z " /><path fill="rgb(2,2,1)" stroke="rgb(2,2,1)" stroke-width="1" opacity="0.996078431372549" d="M 116.5 174 L 112.5 179 L 116.5 174 Z " /><path fill="rgb(2,2,1)" stroke="rgb(2,2,1)" stroke-width="1" opacity="0.996078431372549" d="M 168.5 178 L 169 180.5 L 168 180.5 L 168.5 178 Z " /><path fill="rgb(2,2,1)" stroke="rgb(2,2,1)" stroke-width="1" opacity="0.996078431372549" d="M 173.5 184 L 172.5 186 L 173.5 184 Z " /><path fill="rgb(2,2,1)" stroke="rgb(2,2,1)" stroke-width="1" opacity="0.996078431372549" d="M 82.5 187 L 86 187.5 L 82.5 188 L 82.5 187 Z " /><path fill="rgb(2,2,1)" stroke="rgb(2,2,1)" stroke-width="1" opacity="0.996078431372549" d="M 171.5 187 L 172 199.5 L 171 199.5 L 171.5 187 Z " /><path fill="rgb(2,2,1)" stroke="rgb(2,2,1)" stroke-width="1" opacity="0.996078431372549" d="M 167.5 189 L 168 199.5 L 167 199.5 L 167.5 189 Z " /><path fill="rgb(2,2,1)" stroke="rgb(2,2,1)" stroke-width="1" opacity="0.996078431372549" d="M 18.5 190 L 19 191.5 L 15.5 194 L 16.5 192 Q 19 192.7 18.5 190 Z " /><path fill="rgb(2,2,1)" stroke="rgb(2,2,1)" stroke-width="1" opacity="0.996078431372549" d="M 148.5 192 L 149 199.5 L 148 199.5 L 148.5 192 Z " /><path fill="rgb(2,2,1)" stroke="rgb(2,2,1)" stroke-width="1" opacity="0.996078431372549" d="M 31.5 193 L 32 199.5 L 31 199.5 L 31.5 193 Z " /><path fill="rgb(2,2,1)" stroke="rgb(2,2,1)" stroke-width="1" opacity="0.996078431372549" d="M 184.5 193 L 185.5 195 L 184.5 193 Z " /><path fill="rgb(2,2,1)" stroke="rgb(2,2,1)" stroke-width="1" opacity="0.996078431372549" d="M 13.5 197 L 14.5 199 L 13.5 197 Z " /><path fill="rgb(106,158,75)" stroke="rgb(106,158,75)" stroke-width="1" opacity="1" d="M 152.5 101 L 153 103.5 L 152 103.5 L 152.5 101 Z " /><path fill="rgb(106,158,75)" stroke="rgb(106,158,75)" stroke-width="1" opacity="1" d="M 61.5 103 L 70 103.5 L 61.5 104 L 61.5 103 Z " /><path fill="rgb(106,158,75)" stroke="rgb(106,158,75)" stroke-width="1" opacity="1" d="M 58.5 104 L 60 104.5 L 52.5 110 L 56.5 105 L 58.5 104 Z " /><path fill="rgb(106,158,75)" stroke="rgb(106,158,75)" stroke-width="1" opacity="1" d="M 71.5 104 L 79 110.5 L 73.5 106 L 71.5 104 Z " /><path fill="rgb(106,158,75)" stroke="rgb(106,158,75)" stroke-width="1" opacity="1" d="M 110.5 104 Q 125.3 102.3 129 111.5 Q 133.3 116.7 134 125.5 L 133 125.5 Q 131.6 112.9 123.5 107 Q 119.5 103.5 110.5 105 L 110.5 104 Z " /><path fill="rgb(106,158,75)" stroke="rgb(106,158,75)" stroke-width="1" opacity="1" d="M 105.5 106 L 107 106.5 L 104.5 108 L 105.5 106 Z " /><path fill="rgb(106,158,75)" stroke="rgb(106,158,75)" stroke-width="1" opacity="1" d="M 151.5 106 L 152 109.5 L 151 109.5 L 151.5 106 Z " /><path fill="rgb(106,158,75)" stroke="rgb(106,158,75)" stroke-width="1" opacity="1" d="M 112.5 107 L 118 113.5 L 115.5 115 L 111 114 Q 109.5 108.6 112.5 107 Z " /><path fill="rgb(106,158,75)" stroke="rgb(106,158,75)" stroke-width="1" opacity="1" d="M 102.5 108 L 101.5 110 L 102.5 108 Z " /><path fill="rgb(106,158,75)" stroke="rgb(106,158,75)" stroke-width="1" opacity="1" d="M 51.5 111 L 51 112.5 L 49.5 116 L 49 114.5 L 51.5 111 Z " /><path fill="rgb(106,158,75)" stroke="rgb(106,158,75)" stroke-width="1" opacity="1" d="M 98.5 111 L 96 114.5 L 90.5 126 L 90 124.5 Q 92.4 115.9 98.5 111 Z " /><path fill="rgb(106,158,75)" stroke="rgb(106,158,75)" stroke-width="1" opacity="1" d="M 150.5 112 L 151 116.5 L 150 116.5 L 150.5 112 Z " /><path fill="rgb(106,158,75)" stroke="rgb(106,158,75)" stroke-width="1" opacity="1" d="M 48.5 117 L 49 118.5 L 47.5 122 L 47 119.5 L 48.5 117 Z " /><path fill="rgb(106,158,75)" stroke="rgb(106,158,75)" stroke-width="1" opacity="1" d="M 149.5 120 L 150 123.5 L 149 123.5 L 149.5 120 Z " /><path fill="rgb(106,158,75)" stroke="rgb(106,158,75)" stroke-width="1" opacity="1" d="M 46.5 123 L 47 126.5 Q 44.2 128.3 46 134.5 L 48 144.5 L 51 151.5 L 46 163.5 L 46 175.5 L 51 187.5 L 54 190.5 L 52.5 191 Q 46.3 186.3 43 178.5 L 41 169.5 L 41 157.5 L 42 152 Q 48.4 154.3 46 146.5 L 45 145.5 L 45 127.5 L 46.5 123 Z " /><path fill="rgb(106,158,75)" stroke="rgb(106,158,75)" stroke-width="1" opacity="1" d="M 83.5 123 L 84 125.5 L 83 125.5 L 83.5 123 Z " /><path fill="rgb(106,158,75)" stroke="rgb(106,158,75)" stroke-width="1" opacity="1" d="M 89.5 127 L 90 129.5 L 89 129.5 L 89.5 127 Z " /><path fill="rgb(106,158,75)" stroke="rgb(106,158,75)" stroke-width="1" opacity="1" d="M 134.5 127 L 136 133.5 L 136 143.5 L 135 143.5 L 134.5 127 Z " /><path fill="rgb(106,158,75)" stroke="rgb(106,158,75)" stroke-width="1" opacity="1" d="M 148.5 129 L 149 133.5 L 148 133.5 L 148.5 129 Z " /><path fill="rgb(106,158,75)" stroke="rgb(106,158,75)" stroke-width="1" opacity="1" d="M 84.5 130 L 85 137.5 L 84 137.5 L 84.5 130 Z " /><path fill="rgb(106,158,75)" stroke="rgb(106,158,75)" stroke-width="1" opacity="1" d="M 87.5 134 L 88 137.5 L 87 137.5 L 87.5 134 Z " /><path fill="rgb(106,158,75)" stroke="rgb(106,158,75)" stroke-width="1" opacity="1" d="M 147.5 138 L 148 155.5 L 146.5 158 L 146 156.5 L 147 155.5 L 147.5 138 Z " /><path fill="rgb(106,158,75)" stroke="rgb(106,158,75)" stroke-width="1" opacity="1" d="M 86.5 139 L 87 142 L 85 141.5 L 86.5 139 Z " /><path fill="rgb(106,158,75)" stroke="rgb(106,158,75)" stroke-width="1" opacity="1" d="M 133.5 151 L 134 153.5 L 133 153.5 L 133.5 151 Z " /><path fill="rgb(106,158,75)" stroke="rgb(106,158,75)" stroke-width="1" opacity="1" d="M 145.5 159 L 146 164.5 L 145 164.5 L 145.5 159 Z " /><path fill="rgb(106,158,75)" stroke="rgb(106,158,75)" stroke-width="1" opacity="1" d="M 136.5 160 L 137 164.5 L 134.5 177 L 134 173.5 L 135 172.5 L 135 163.5 L 136.5 160 Z " /><path fill="rgb(106,158,75)" stroke="rgb(106,158,75)" stroke-width="1" opacity="1" d="M 77.5 165 L 82 165.5 L 77.5 166 L 77.5 165 Z " /><path fill="rgb(106,158,75)" stroke="rgb(106,158,75)" stroke-width="1" opacity="1" d="M 100.5 167 L 101 169.5 L 100 169.5 L 100.5 167 Z " /><path fill="rgb(106,158,75)" stroke="rgb(106,158,75)" stroke-width="1" opacity="1" d="M 105.5 167 L 106 170.5 L 105 170.5 L 105.5 167 Z " /><path fill="rgb(106,158,75)" stroke="rgb(106,158,75)" stroke-width="1" opacity="1" d="M 144.5 168 L 145 172.5 L 144 172.5 L 144.5 168 Z " /><path fill="rgb(106,158,75)" stroke="rgb(106,158,75)" stroke-width="1" opacity="1" d="M 70.5 169 L 71 172 Q 76.2 174.1 75 169.5 L 76 169.5 L 75 172.5 L 76 173.5 L 76 180 L 71 179 L 70.5 169 Z " /><path fill="rgb(106,158,75)" stroke="rgb(106,158,75)" stroke-width="1" opacity="1" d="M 86 173 L 91 174 L 91 182.5 L 89.5 183 L 87.5 183 L 86 182.5 L 86 173 Z " /><path fill="rgb(106,158,75)" stroke="rgb(106,158,75)" stroke-width="1" opacity="1" d="M 105.5 174 L 106 176.5 L 107 180.5 L 101.5 182 L 101 175 L 105.5 174 Z " /><path fill="rgb(106,158,75)" stroke="rgb(106,158,75)" stroke-width="1" opacity="1" d="M 143.5 177 L 144 199.5 L 143 199.5 L 143.5 177 Z " /><path fill="rgb(106,158,75)" stroke="rgb(106,158,75)" stroke-width="1" opacity="1" d="M 130.5 185 L 122.5 194 L 130.5 185 Z " /><path fill="rgb(106,158,75)" stroke="rgb(106,158,75)" stroke-width="1" opacity="1" d="M 57.5 193 L 60 194.5 L 58.5 195 L 57.5 193 Z " /><path fill="rgb(106,158,75)" stroke="rgb(106,158,75)" stroke-width="1" opacity="1" d="M 119.5 194 L 121 194.5 Q 115.8 199.3 106.5 200 L 106.5 199 Q 115 198.5 119.5 194 Z " /><path fill="rgb(106,158,75)" stroke="rgb(106,158,75)" stroke-width="1" opacity="1" d="M 72.5 199 L 76 199.5 L 72.5 200 L 72.5 199 Z " /><path fill="rgb(40,52,36)" stroke="rgb(40,52,36)" stroke-width="1" opacity="1" d="M 118.5 17 Q 122.3 16.3 123 18.5 L 121 19 L 119.5 22 L 120 20.5 Q 121.1 17.2 118.5 18 L 118.5 17 Z " /><path fill="rgb(40,52,36)" stroke="rgb(40,52,36)" stroke-width="1" opacity="1" d="M 138.5 17 L 139.5 19 L 138.5 17 Z " /><path fill="rgb(40,52,36)" stroke="rgb(40,52,36)" stroke-width="1" opacity="1" d="M 116.5 18 L 116 19.5 L 115.5 24 L 115 19.5 L 116.5 18 Z " /><path fill="rgb(40,52,36)" stroke="rgb(40,52,36)" stroke-width="1" opacity="1" d="M 137.5 27 L 145 30.5 L 144 34.5 L 145 37 Q 147.8 38.9 154 38 Q 155.3 41.3 150.5 40 L 143.5 42 L 140.5 45 L 141 43.5 L 139.5 40 L 135 39.5 L 139 37.5 Q 140.3 32.3 137.5 31 L 132.5 32 L 135.5 28 L 137.5 27 Z " /><path fill="rgb(40,52,36)" stroke="rgb(40,52,36)" stroke-width="1" opacity="1" d="M 159.5 40 L 160.5 42 L 159.5 40 Z " /><path fill="rgb(40,52,36)" stroke="rgb(40,52,36)" stroke-width="1" opacity="1" d="M 152.5 55 L 158 55 L 158 57.5 L 161 59 L 160 64 Q 162.7 62.9 162 65.5 L 158.5 70 L 155.5 69 L 152.5 70 L 148 64.5 L 150 62.5 L 151 56.5 L 152.5 55 Z M 160 65 L 158 68 L 160 68 L 160 65 Z " /><path fill="rgb(40,52,36)" stroke="rgb(40,52,36)" stroke-width="1" opacity="1" d="M 142.5 56 L 144.5 59 L 142.5 56 Z " /><path fill="rgb(40,52,36)" stroke="rgb(40,52,36)" stroke-width="1" opacity="1" d="M 126.5 70 L 124.5 73 L 123 72.5 L 126.5 70 Z " /><path fill="rgb(40,52,36)" stroke="rgb(40,52,36)" stroke-width="1" opacity="1" d="M 106.5 72 L 105.5 74 L 106.5 72 Z " /><path fill="rgb(40,52,36)" stroke="rgb(40,52,36)" stroke-width="1" opacity="1" d="M 153.5 72 L 154 74.5 L 153 74.5 L 153.5 72 Z " /><path fill="rgb(40,52,36)" stroke="rgb(40,52,36)" stroke-width="1" opacity="1" d="M 103.5 74 L 102.5 76 L 103.5 74 Z " /><path fill="rgb(40,52,36)" stroke="rgb(40,52,36)" stroke-width="1" opacity="1" d="M 119.5 74 L 125.5 78 L 130.5 74 Q 137.4 79.6 141 88.5 L 139.5 89 L 136 88 L 135.5 83 L 134 87 L 122.5 85 L 119.5 83 Q 118.1 85.6 113.5 85 L 109 84 Q 109 78.2 112.5 75 Q 118 76.5 119.5 74 Z " /><path fill="rgb(40,52,36)" stroke="rgb(40,52,36)" stroke-width="1" opacity="1" d="M 104.5 83 L 107 83.5 L 104.5 84 L 104.5 83 Z " /><path fill="rgb(40,52,36)" stroke="rgb(40,52,36)" stroke-width="1" opacity="1" d="M 53.5 86 L 62 86.5 L 53.5 87 L 53.5 86 Z " /><path fill="rgb(40,52,36)" stroke="rgb(40,52,36)" stroke-width="1" opacity="1" d="M 75.5 86 L 80 86.5 L 75.5 87 L 75.5 86 Z " /><path fill="rgb(40,52,36)" stroke="rgb(40,52,36)" stroke-width="1" opacity="1" d="M 152.5 99 L 154 101.5 L 153 101.5 L 152.5 99 Z " /><path fill="rgb(40,52,36)" stroke="rgb(40,52,36)" stroke-width="1" opacity="1" d="M 169.5 106 L 170.5 108 L 169.5 106 Z " /><path fill="rgb(40,52,36)" stroke="rgb(40,52,36)" stroke-width="1" opacity="1" d="M 172.5 108 L 174.5 111 L 172.5 108 Z " /><path fill="rgb(40,52,36)" stroke="rgb(40,52,36)" stroke-width="1" opacity="1" d="M 61.5 112 L 66 112.5 L 61.5 113 L 61.5 112 Z " /><path fill="rgb(40,52,36)" stroke="rgb(40,52,36)" stroke-width="1" opacity="1" d="M 59.5 113 L 55.5 118 L 59.5 113 Z " /><path fill="rgb(40,52,36)" stroke="rgb(40,52,36)" stroke-width="1" opacity="1" d="M 68.5 113 L 71 114.5 L 69.5 114 L 68.5 113 Z " /><path fill="rgb(40,52,36)" stroke="rgb(40,52,36)" stroke-width="1" opacity="1" d="M 174.5 116 L 175 118.5 L 174 118.5 L 174.5 116 Z " /><path fill="rgb(40,52,36)" stroke="rgb(40,52,36)" stroke-width="1" opacity="1" d="M 104.5 117 L 103.5 119 L 104.5 117 Z " /><path fill="rgb(40,52,36)" stroke="rgb(40,52,36)" stroke-width="1" opacity="1" d="M 117.5 117 L 121.5 122 L 117.5 117 Z " /><path fill="rgb(40,52,36)" stroke="rgb(40,52,36)" stroke-width="1" opacity="1" d="M 63.5 118 Q 68.3 118.3 70 121.5 Q 74.9 130.1 73 145.5 Q 72.3 148.8 67.5 148 L 66.5 147 L 59 147 L 58 144.5 L 58 125.5 L 61 119 L 63.5 118 Z " /><path fill="rgb(40,52,36)" stroke="rgb(40,52,36)" stroke-width="1" opacity="1" d="M 108.5 122 Q 115.8 120.8 117 125.5 L 119 130.5 L 119 145.5 L 118 150 L 106.5 149 L 100 147 L 102 128.5 L 106.5 123 L 108.5 122 Z " /><path fill="rgb(40,52,36)" stroke="rgb(40,52,36)" stroke-width="1" opacity="1" d="M 96.5 127 L 97 129.5 L 96 129.5 L 96.5 127 Z " /><path fill="rgb(40,52,36)" stroke="rgb(40,52,36)" stroke-width="1" opacity="1" d="M 149.5 128 L 150 130.5 L 149 130.5 L 149.5 128 Z " /><path fill="rgb(40,52,36)" stroke="rgb(40,52,36)" stroke-width="1" opacity="1" d="M 124.5 129 L 125 131.5 L 124 131.5 L 124.5 129 Z " /><path fill="rgb(40,52,36)" stroke="rgb(40,52,36)" stroke-width="1" opacity="1" d="M 172.5 130 L 173 132.5 L 172 132.5 L 172.5 130 Z " /><path fill="rgb(40,52,36)" stroke="rgb(40,52,36)" stroke-width="1" opacity="1" d="M 78.5 131 L 79 137.5 L 78 137.5 L 78.5 131 Z " /><path fill="rgb(40,52,36)" stroke="rgb(40,52,36)" stroke-width="1" opacity="1" d="M 148.5 138 L 149 142.5 L 148 142.5 L 148.5 138 Z " /><path fill="rgb(40,52,36)" stroke="rgb(40,52,36)" stroke-width="1" opacity="1" d="M 171.5 138 L 172 141.5 L 171 141.5 L 171.5 138 Z " /><path fill="rgb(40,52,36)" stroke="rgb(40,52,36)" stroke-width="1" opacity="1" d="M 94.5 140 L 95 143.5 L 94 143.5 L 94.5 140 Z " /><path fill="rgb(40,52,36)" stroke="rgb(40,52,36)" stroke-width="1" opacity="1" d="M 52.5 142 L 53 144.5 L 52 144.5 L 52.5 142 Z " /><path fill="rgb(40,52,36)" stroke="rgb(40,52,36)" stroke-width="1" opacity="1" d="M 124.5 142 L 125 144.5 L 124 144.5 L 124.5 142 Z " /><path fill="rgb(40,52,36)" stroke="rgb(40,52,36)" stroke-width="1" opacity="1" d="M 153.5 147 L 154 148.5 L 152 149.5 L 153.5 147 Z " /><path fill="rgb(40,52,36)" stroke="rgb(40,52,36)" stroke-width="1" opacity="1" d="M 94.5 148 L 97 151.5 L 94 149.5 L 94.5 148 Z " /><path fill="rgb(40,52,36)" stroke="rgb(40,52,36)" stroke-width="1" opacity="1" d="M 123.5 148 L 124 150.5 L 123 150.5 L 123.5 148 Z " /><path fill="rgb(40,52,36)" stroke="rgb(40,52,36)" stroke-width="1" opacity="1" d="M 148.5 148 L 149.5 150 L 148.5 148 Z " /><path fill="rgb(40,52,36)" stroke="rgb(40,52,36)" stroke-width="1" opacity="1" d="M 54.5 150 L 55.5 152 L 54.5 150 Z " /><path fill="rgb(40,52,36)" stroke="rgb(40,52,36)" stroke-width="1" opacity="1" d="M 76.5 150 L 74.5 153 L 73 152.5 L 76.5 150 Z " /><path fill="rgb(40,52,36)" stroke="rgb(40,52,36)" stroke-width="1" opacity="1" d="M 57.5 152 L 60 152.5 L 57.5 153 L 57.5 152 Z " /><path fill="rgb(40,52,36)" stroke="rgb(40,52,36)" stroke-width="1" opacity="1" d="M 122.5 153 L 120.5 156 L 117 155.5 Q 121.3 155.8 122.5 153 Z " /><path fill="rgb(40,52,36)" stroke="rgb(40,52,36)" stroke-width="1" opacity="1" d="M 105.5 154 L 109 154.5 L 105.5 155 L 105.5 154 Z " /><path fill="rgb(40,52,36)" stroke="rgb(40,52,36)" stroke-width="1" opacity="1" d="M 169.5 157 L 170 159.5 L 169 159.5 L 169.5 157 Z " /><path fill="rgb(40,52,36)" stroke="rgb(40,52,36)" stroke-width="1" opacity="1" d="M 66.5 159 L 80 159.5 L 66.5 160 L 66.5 159 Z " /><path fill="rgb(40,52,36)" stroke="rgb(40,52,36)" stroke-width="1" opacity="1" d="M 95.5 160 L 100 160.5 L 95.5 161 L 95.5 160 Z " /><path fill="rgb(40,52,36)" stroke="rgb(40,52,36)" stroke-width="1" opacity="1" d="M 54.5 161 L 55 166.5 L 54 166.5 L 54.5 161 Z " /><path fill="rgb(40,52,36)" stroke="rgb(40,52,36)" stroke-width="1" opacity="1" d="M 108.5 161 L 113 161.5 L 108.5 162 L 108.5 161 Z " /><path fill="rgb(40,52,36)" stroke="rgb(40,52,36)" stroke-width="1" opacity="1" d="M 151.5 163 L 152 165.5 L 151 165.5 L 151.5 163 Z " /><path fill="rgb(40,52,36)" stroke="rgb(40,52,36)" stroke-width="1" opacity="1" d="M 60.5 164 L 66 164.5 L 60.5 165 L 60.5 164 Z " /><path fill="rgb(40,52,36)" stroke="rgb(40,52,36)" stroke-width="1" opacity="1" d="M 36.5 165 L 37 171.5 L 36 171.5 L 36.5 165 Z " /><path fill="rgb(40,52,36)" stroke="rgb(40,52,36)" stroke-width="1" opacity="1" d="M 86.5 165 L 96 165.5 L 86.5 166 L 86.5 165 Z " /><path fill="rgb(40,52,36)" stroke="rgb(40,52,36)" stroke-width="1" opacity="1" d="M 101.5 166 L 110 166.5 L 101.5 167 L 101.5 166 Z " /><path fill="rgb(40,52,36)" stroke="rgb(40,52,36)" stroke-width="1" opacity="1" d="M 145.5 167 L 146 169.5 L 145 169.5 L 145.5 167 Z " /><path fill="rgb(40,52,36)" stroke="rgb(40,52,36)" stroke-width="1" opacity="1" d="M 168.5 167 L 169 170.5 L 168 170.5 L 168.5 167 Z " /><path fill="rgb(40,52,36)" stroke="rgb(40,52,36)" stroke-width="1" opacity="1" d="M 123.5 168 L 124 170.5 L 123 170.5 L 123.5 168 Z " /><path fill="rgb(40,52,36)" stroke="rgb(40,52,36)" stroke-width="1" opacity="1" d="M 62.5 172 L 63.5 174 L 62.5 172 Z " /><path fill="rgb(40,52,36)" stroke="rgb(40,52,36)" stroke-width="1" opacity="1" d="M 57.5 174 L 58.5 176 L 57.5 174 Z " /><path fill="rgb(40,52,36)" stroke="rgb(40,52,36)" stroke-width="1" opacity="1" d="M 121.5 175 L 120.5 177 L 121.5 175 Z " /><path fill="rgb(40,52,36)" stroke="rgb(40,52,36)" stroke-width="1" opacity="1" d="M 59.5 177 L 61.5 180 L 59.5 177 Z " /><path fill="rgb(40,52,36)" stroke="rgb(40,52,36)" stroke-width="1" opacity="1" d="M 144.5 177 L 145 182.5 L 144 182.5 L 144.5 177 Z " /><path fill="rgb(40,52,36)" stroke="rgb(40,52,36)" stroke-width="1" opacity="1" d="M 119.5 178 L 117.5 181 L 119.5 178 Z " /><path fill="rgb(40,52,36)" stroke="rgb(40,52,36)" stroke-width="1" opacity="1" d="M 22.5 179 L 21.5 181 L 22.5 179 Z " /><path fill="rgb(40,52,36)" stroke="rgb(40,52,36)" stroke-width="1" opacity="1" d="M 63.5 180 L 64.5 182 L 63.5 180 Z " /><path fill="rgb(40,52,36)" stroke="rgb(40,52,36)" stroke-width="1" opacity="1" d="M 167.5 180 L 168 182.5 L 167 182.5 L 167.5 180 Z " /><path fill="rgb(40,52,36)" stroke="rgb(40,52,36)" stroke-width="1" opacity="1" d="M 115.5 181 L 114.5 183 L 115.5 181 Z " /><path fill="rgb(40,52,36)" stroke="rgb(40,52,36)" stroke-width="1" opacity="1" d="M 88.5 183 L 97 183.5 L 88.5 184 L 88.5 183 Z " /><path fill="rgb(40,52,36)" stroke="rgb(40,52,36)" stroke-width="1" opacity="1" d="M 112.5 183 L 111.5 185 L 112.5 183 Z " /><path fill="rgb(40,52,36)" stroke="rgb(40,52,36)" stroke-width="1" opacity="1" d="M 101.5 187 L 104 187.5 L 101.5 188 L 101.5 187 Z " /><path fill="rgb(40,52,36)" stroke="rgb(40,52,36)" stroke-width="1" opacity="1" d="M 83.5 188 L 87 188.5 L 83.5 189 L 83.5 188 Z " /><path fill="rgb(40,52,36)" stroke="rgb(40,52,36)" stroke-width="1" opacity="1" d="M 97.5 188 L 100 188.5 L 97.5 189 L 97.5 188 Z " /><path fill="rgb(40,52,36)" stroke="rgb(40,52,36)" stroke-width="1" opacity="1" d="M 149.5 188 L 150 199.5 L 149 199.5 L 149.5 188 Z " /><path fill="rgb(40,52,36)" stroke="rgb(40,52,36)" stroke-width="1" opacity="1" d="M 166.5 193 L 167 197.5 L 166 197.5 L 166.5 193 Z " /><path fill="rgb(114,120,49)" stroke="rgb(114,120,49)" stroke-width="1" opacity="1" d="M 129.5 17 L 128.5 19 L 124 18.5 L 129.5 17 Z " /><path fill="rgb(114,120,49)" stroke="rgb(114,120,49)" stroke-width="1" opacity="1" d="M 122.5 19 L 121.5 21 L 122.5 19 Z " /><path fill="rgb(114,120,49)" stroke="rgb(114,120,49)" stroke-width="1" opacity="1" d="M 122.5 28 L 123 30.5 L 121 31.5 L 122.5 28 Z " /><path fill="rgb(114,120,49)" stroke="rgb(114,120,49)" stroke-width="1" opacity="1" d="M 119.5 35 L 120.5 37 L 119.5 35 Z " /><path fill="rgb(114,120,49)" stroke="rgb(114,120,49)" stroke-width="1" opacity="1" d="M 151.5 40 Q 159.2 38.3 161 42.5 L 162 48 L 157 45.5 Q 157.5 41.5 154.5 41 Q 150.5 41.8 151.5 40 Z " /><path fill="rgb(114,120,49)" stroke="rgb(114,120,49)" stroke-width="1" opacity="1" d="M 139.5 53 L 140.5 55 L 139.5 53 Z " /><path fill="rgb(114,120,49)" stroke="rgb(114,120,49)" stroke-width="1" opacity="1" d="M 132.5 59 L 135 59.5 L 132.5 60 L 132.5 59 Z " /><path fill="rgb(114,120,49)" stroke="rgb(114,120,49)" stroke-width="1" opacity="1" d="M 146.5 64 L 151.5 70 L 146.5 64 Z " /><path fill="rgb(114,120,49)" stroke="rgb(114,120,49)" stroke-width="1" opacity="1" d="M 152.5 72 L 155 80.5 Q 153.5 83.5 152 80.5 L 151 77.5 L 152.5 72 Z " /><path fill="rgb(114,120,49)" stroke="rgb(114,120,49)" stroke-width="1" opacity="1" d="M 70.5 165 L 75 166 L 75 172 L 71 172 L 70.5 165 Z " /><path fill="rgb(114,120,49)" stroke="rgb(114,120,49)" stroke-width="1" opacity="1" d="M 82.5 165 L 91 167 L 91 174 L 88.5 174 L 86 173 L 86 166 L 82.5 166 L 82.5 165 Z " /><path fill="rgb(114,120,49)" stroke="rgb(114,120,49)" stroke-width="1" opacity="1" d="M 100.5 166 L 105 167 L 106 173.5 Q 104.8 176 101 175 Q 101.7 168.1 100.5 166 Z " /><path fill="rgb(114,120,49)" stroke="rgb(114,120,49)" stroke-width="1" opacity="1" d="M 36.5 193 L 37 199.5 L 36 199.5 L 36.5 193 Z " /><path fill="rgb(185,191,90)" stroke="rgb(185,191,90)" stroke-width="1" opacity="1" d="M 132.5 16 Q 137.6 15.4 139 18.5 Q 140.5 25.5 136.5 27 L 121.5 37 L 119 33.5 L 123 30.5 Q 123.5 26.5 120.5 26 Q 118.3 26.8 119 24.5 L 123.5 19 L 128.5 19 L 132.5 16 Z " /><path fill="rgb(185,191,90)" stroke="rgb(185,191,90)" stroke-width="1" opacity="1" d="M 148.5 41 Q 154.5 39.5 156 42.5 L 158 54 L 154.5 54 L 144.5 58 L 138 51.5 L 138 47.5 L 142.5 43 Q 147.1 43.6 148.5 41 Z " /><path fill="rgb(185,191,90)" stroke="rgb(185,191,90)" stroke-width="1" opacity="1" d="M 131.5 60 Q 146.6 60.4 152 70.5 Q 153.5 78.5 148.5 80 Q 145.5 83 138.5 82 L 136 81 L 135 77.5 L 126 67.5 L 129 61 L 131.5 60 Z " /><path fill="rgb(185,191,90)" stroke="rgb(185,191,90)" stroke-width="1" opacity="1" d="M 53 87 L 87.5 87 L 88.5 88 L 113.5 90 L 130.5 93 L 134.5 95 L 145.5 97 L 153 100.5 L 150 112.5 L 148 137.5 L 147 138.5 L 147 155.5 L 145 159.5 L 145 167.5 L 143 177.5 L 143 200 L 110 199.5 Q 124.1 196.1 131 185.5 L 136 172.5 L 137 160 L 132 157.5 L 136 143.5 L 136 133.5 L 132 116.5 L 122.5 105 L 110.5 104 Q 101 107.5 95 114.5 L 91 121.5 L 85.5 141 L 83 119.5 Q 80.6 109.9 73.5 105 Q 69.8 101.7 61.5 103 Q 55 104.5 52 109.5 L 47 119.5 L 45 127.5 L 45 145.5 L 46 152 Q 40 149.8 42 156.5 L 41 157.5 L 41 169.5 L 45 182.5 L 52.5 191 Q 60.2 197.4 72 199.5 L 37 200 L 37 160.5 L 38 159.5 L 39 143.5 L 47 105.5 L 52 93.5 L 53 87 Z " /><path fill="rgb(185,191,90)" stroke="rgb(185,191,90)" stroke-width="1" opacity="1" d="M 61 165 L 70 165 L 70 171.5 L 71 178 Q 65.6 177.4 63 172.5 L 61 165 Z " /><path fill="rgb(185,191,90)" stroke="rgb(185,191,90)" stroke-width="1" opacity="1" d="M 76.5 165 L 77.5 166 L 86 166 L 86 182.5 L 83.5 183 L 76 181 L 76 173.5 L 75 172.5 L 76 169.5 L 75 166.5 L 76.5 165 Z " /><path fill="rgb(185,191,90)" stroke="rgb(185,191,90)" stroke-width="1" opacity="1" d="M 91 166 L 100 166 L 100 169.5 L 101 170.5 L 101 182 Q 97.9 184 91 183 L 91 173.5 L 92 172.5 L 91 166 Z " /><path fill="rgb(185,191,90)" stroke="rgb(185,191,90)" stroke-width="1" opacity="1" d="M 106 167 L 118 168.5 L 111.5 178 L 106 180 L 105 175.5 L 106 174.5 L 106 167 Z " /><path fill="rgb(185,191,90)" stroke="rgb(185,191,90)" stroke-width="1" opacity="1" d="M 23.5 168 Q 29.3 167.3 30 171.5 L 25 173.5 Q 26.7 179.3 23 178 L 21 171.5 L 23.5 168 Z " /><path fill="rgb(185,191,90)" stroke="rgb(185,191,90)" stroke-width="1" opacity="1" d="M 17.5 182 L 17 183.5 L 15.5 186 L 16 184.5 L 17.5 182 Z " /><path fill="rgb(185,191,90)" stroke="rgb(185,191,90)" stroke-width="1" opacity="1" d="M 176.5 184 L 179 185.5 L 176.5 189 L 173 188 Q 171.9 185.3 174.5 186 L 176.5 184 Z " /><path fill="rgb(15,17,8)" stroke="rgb(15,17,8)" stroke-width="1" opacity="1" d="M 115.5 24 L 116.5 26 L 115.5 24 Z " /><path fill="rgb(15,17,8)" stroke="rgb(15,17,8)" stroke-width="1" opacity="1" d="M 139.5 24 L 140 26.5 L 139 26.5 L 139.5 24 Z " /><path fill="rgb(15,17,8)" stroke="rgb(15,17,8)" stroke-width="1" opacity="1" d="M 143.5 28 Q 146.5 28.5 146 32.5 L 145 32.5 L 143.5 28 Z " /><path fill="rgb(15,17,8)" stroke="rgb(15,17,8)" stroke-width="1" opacity="1" d="M 121.5 30 L 120.5 32 L 121.5 30 Z " /><path fill="rgb(15,17,8)" stroke="rgb(15,17,8)" stroke-width="1" opacity="1" d="M 127.5 34 L 126.5 36 L 127.5 34 Z " /><path fill="rgb(15,17,8)" stroke="rgb(15,17,8)" stroke-width="1" opacity="1" d="M 151.5 36 L 159 39.5 L 154 40 Q 155.1 36.5 147.5 38 L 147.5 37 L 151.5 36 Z " /><path fill="rgb(15,17,8)" stroke="rgb(15,17,8)" stroke-width="1" opacity="1" d="M 132.5 38 L 135 39.5 L 133.5 40 L 132.5 38 Z " /><path fill="rgb(15,17,8)" stroke="rgb(15,17,8)" stroke-width="1" opacity="1" d="M 161.5 50 L 159.5 53 L 161.5 50 Z " /><path fill="rgb(15,17,8)" stroke="rgb(15,17,8)" stroke-width="1" opacity="1" d="M 138.5 53 L 140.5 56 L 138.5 53 Z " /><path fill="rgb(15,17,8)" stroke="rgb(15,17,8)" stroke-width="1" opacity="1" d="M 158.5 56 L 159 58 L 163 59.5 Q 164.5 68.5 159.5 71 L 156.5 72 L 154.5 72 Q 151.9 72.7 153 70 L 155.5 69 L 158.5 70 L 159.5 68 L 158 67.5 L 159.5 65 L 160.5 68 L 162 64 Q 159.3 65.1 160 62.5 L 161 59 L 158 57.5 L 158.5 56 Z " /><path fill="rgb(15,17,8)" stroke="rgb(15,17,8)" stroke-width="1" opacity="1" d="M 130.5 59 L 127.5 63 L 130.5 59 Z " /><path fill="rgb(15,17,8)" stroke="rgb(15,17,8)" stroke-width="1" opacity="1" d="M 111.5 70 L 114 70.5 L 111.5 71 L 111.5 70 Z " /><path fill="rgb(15,17,8)" stroke="rgb(15,17,8)" stroke-width="1" opacity="1" d="M 116.5 70 L 120 71.5 L 118.5 71 Q 115.5 71.5 116.5 70 Z " /><path fill="rgb(15,17,8)" stroke="rgb(15,17,8)" stroke-width="1" opacity="1" d="M 125.5 70 L 124.5 72 L 125.5 70 Z " /><path fill="rgb(15,17,8)" stroke="rgb(15,17,8)" stroke-width="1" opacity="1" d="M 105.5 72 L 104.5 74 L 105.5 72 Z " /><path fill="rgb(15,17,8)" stroke="rgb(15,17,8)" stroke-width="1" opacity="1" d="M 101.5 76 L 100.5 78 L 101.5 76 Z " /><path fill="rgb(15,17,8)" stroke="rgb(15,17,8)" stroke-width="1" opacity="1" d="M 99.5 80 L 100 82.5 L 99 82.5 L 99.5 80 Z " /><path fill="rgb(15,17,8)" stroke="rgb(15,17,8)" stroke-width="1" opacity="1" d="M 101.5 83 L 104 83.5 L 101.5 84 L 101.5 83 Z " /><path fill="rgb(15,17,8)" stroke="rgb(15,17,8)" stroke-width="1" opacity="1" d="M 119.5 83 L 122.5 85 L 134 87 L 135.5 83 L 136 88 L 142 90.5 L 140.5 90 L 123.5 86 L 118.5 86 L 117 84.5 L 119.5 83 Z " /><path fill="rgb(15,17,8)" stroke="rgb(15,17,8)" stroke-width="1" opacity="1" d="M 108.5 84 L 113 84.5 L 108.5 85 L 108.5 84 Z " /><path fill="rgb(15,17,8)" stroke="rgb(15,17,8)" stroke-width="1" opacity="1" d="M 80.5 86 L 86 86.5 L 80.5 87 L 80.5 86 Z " /><path fill="rgb(15,17,8)" stroke="rgb(15,17,8)" stroke-width="1" opacity="1" d="M 94.5 87 L 97 87.5 L 94.5 88 L 94.5 87 Z " /><path fill="rgb(15,17,8)" stroke="rgb(15,17,8)" stroke-width="1" opacity="1" d="M 152.5 87 L 151.5 89 L 152.5 87 Z " /><path fill="rgb(15,17,8)" stroke="rgb(15,17,8)" stroke-width="1" opacity="1" d="M 146.5 90 L 148 90.5 L 144.5 92 L 144.5 91 L 146.5 90 Z " /><path fill="rgb(15,17,8)" stroke="rgb(15,17,8)" stroke-width="1" opacity="1" d="M 158 101 L 160 101.5 L 158 102.5 L 158 101 Z " /><path fill="rgb(15,17,8)" stroke="rgb(15,17,8)" stroke-width="1" opacity="1" d="M 157.5 106 L 158 108.5 L 157 108.5 L 157.5 106 Z " /><path fill="rgb(15,17,8)" stroke="rgb(15,17,8)" stroke-width="1" opacity="1" d="M 175.5 112 L 176 114.5 L 175 114.5 L 175.5 112 Z " /><path fill="rgb(15,17,8)" stroke="rgb(15,17,8)" stroke-width="1" opacity="1" d="M 156.5 113 L 157 115.5 L 156 115.5 L 156.5 113 Z " /><path fill="rgb(15,17,8)" stroke="rgb(15,17,8)" stroke-width="1" opacity="1" d="M 71.5 115 L 73.5 118 L 71.5 115 Z " /><path fill="rgb(15,17,8)" stroke="rgb(15,17,8)" stroke-width="1" opacity="1" d="M 151.5 115 L 152 117.5 L 151 117.5 L 151.5 115 Z " /><path fill="rgb(15,17,8)" stroke="rgb(15,17,8)" stroke-width="1" opacity="1" d="M 108.5 116 L 111 116.5 L 108.5 117 L 108.5 116 Z " /><path fill="rgb(15,17,8)" stroke="rgb(15,17,8)" stroke-width="1" opacity="1" d="M 68.5 119 L 69.5 121 L 68.5 119 Z " /><path fill="rgb(15,17,8)" stroke="rgb(15,17,8)" stroke-width="1" opacity="1" d="M 102.5 119 L 99.5 123 L 102.5 119 Z " /><path fill="rgb(15,17,8)" stroke="rgb(15,17,8)" stroke-width="1" opacity="1" d="M 60.5 120 L 60 121.5 L 59.5 123 L 59 121.5 L 60.5 120 Z " /><path fill="rgb(15,17,8)" stroke="rgb(15,17,8)" stroke-width="1" opacity="1" d="M 109.5 121 L 113.5 121 L 118 125.5 L 117.5 127 L 113.5 122 Q 108.5 123 109.5 121 Z " /><path fill="rgb(15,17,8)" stroke="rgb(15,17,8)" stroke-width="1" opacity="1" d="M 105.5 123 L 103.5 126 L 105.5 123 Z " /><path fill="rgb(15,17,8)" stroke="rgb(15,17,8)" stroke-width="1" opacity="1" d="M 173.5 125 L 174 127.5 L 173 127.5 L 173.5 125 Z " /><path fill="rgb(15,17,8)" stroke="rgb(15,17,8)" stroke-width="1" opacity="1" d="M 52.5 126 L 53 129.5 L 52 129.5 L 52.5 126 Z " /><path fill="rgb(15,17,8)" stroke="rgb(15,17,8)" stroke-width="1" opacity="1" d="M 77.5 126 L 78 128.5 L 77 128.5 L 77.5 126 Z " /><path fill="rgb(15,17,8)" stroke="rgb(15,17,8)" stroke-width="1" opacity="1" d="M 57.5 127 L 58 140.5 L 57 140.5 L 57.5 127 Z " /><path fill="rgb(15,17,8)" stroke="rgb(15,17,8)" stroke-width="1" opacity="1" d="M 72.5 127 L 73 129.5 L 72 129.5 L 72.5 127 Z " /><path fill="rgb(15,17,8)" stroke="rgb(15,17,8)" stroke-width="1" opacity="1" d="M 101.5 130 L 102 132.5 L 101 132.5 L 101.5 130 Z " /><path fill="rgb(15,17,8)" stroke="rgb(15,17,8)" stroke-width="1" opacity="1" d="M 149.5 131 L 150 133.5 L 149 133.5 L 149.5 131 Z " /><path fill="rgb(15,17,8)" stroke="rgb(15,17,8)" stroke-width="1" opacity="1" d="M 119.5 132 L 120 141.5 L 119 141.5 L 119.5 132 Z " /><path fill="rgb(15,17,8)" stroke="rgb(15,17,8)" stroke-width="1" opacity="1" d="M 124.5 132 L 125 141.5 L 124 141.5 L 124.5 132 Z " /><path fill="rgb(15,17,8)" stroke="rgb(15,17,8)" stroke-width="1" opacity="1" d="M 95.5 134 L 96 136.5 L 95 136.5 L 95.5 134 Z " /><path fill="rgb(15,17,8)" stroke="rgb(15,17,8)" stroke-width="1" opacity="1" d="M 100.5 135 L 101 138.5 L 100 138.5 L 100.5 135 Z " /><path fill="rgb(15,17,8)" stroke="rgb(15,17,8)" stroke-width="1" opacity="1" d="M 52.5 138 L 53 141.5 L 52 141.5 L 52.5 138 Z " /><path fill="rgb(15,17,8)" stroke="rgb(15,17,8)" stroke-width="1" opacity="1" d="M 153.5 138 L 154 146.5 L 153 146.5 L 153.5 138 Z " /><path fill="rgb(15,17,8)" stroke="rgb(15,17,8)" stroke-width="1" opacity="1" d="M 171.5 142 L 172 146.5 L 171 146.5 L 171.5 142 Z " /><path fill="rgb(15,17,8)" stroke="rgb(15,17,8)" stroke-width="1" opacity="1" d="M 148.5 143 L 149 147.5 L 148 147.5 L 148.5 143 Z " /><path fill="rgb(15,17,8)" stroke="rgb(15,17,8)" stroke-width="1" opacity="1" d="M 94.5 144 L 95 147.5 L 94 147.5 L 94.5 144 Z " /><path fill="rgb(15,17,8)" stroke="rgb(15,17,8)" stroke-width="1" opacity="1" d="M 72.5 146 L 71.5 148 L 72.5 146 Z " /><path fill="rgb(15,17,8)" stroke="rgb(15,17,8)" stroke-width="1" opacity="1" d="M 60.5 147 L 67 147.5 L 60.5 148 L 60.5 147 Z " /><path fill="rgb(15,17,8)" stroke="rgb(15,17,8)" stroke-width="1" opacity="1" d="M 109.5 149 L 114 149.5 L 109.5 150 L 109.5 149 Z " /><path fill="rgb(15,17,8)" stroke="rgb(15,17,8)" stroke-width="1" opacity="1" d="M 37.5 152 L 38 154.5 L 37 154.5 L 37.5 152 Z " /><path fill="rgb(15,17,8)" stroke="rgb(15,17,8)" stroke-width="1" opacity="1" d="M 60.5 152 L 63 152.5 L 60.5 153 L 60.5 152 Z " /><path fill="rgb(15,17,8)" stroke="rgb(15,17,8)" stroke-width="1" opacity="1" d="M 170.5 152 L 171 154.5 L 170 154.5 L 170.5 152 Z " /><path fill="rgb(15,17,8)" stroke="rgb(15,17,8)" stroke-width="1" opacity="1" d="M 109.5 154 L 115 154.5 L 109.5 155 L 109.5 154 Z " /><path fill="rgb(15,17,8)" stroke="rgb(15,17,8)" stroke-width="1" opacity="1" d="M 148.5 157 L 147.5 159 L 148.5 157 Z " /><path fill="rgb(15,17,8)" stroke="rgb(15,17,8)" stroke-width="1" opacity="1" d="M 150.5 157 Q 153 158 152 162.5 L 151 162.5 L 150.5 157 Z " /><path fill="rgb(15,17,8)" stroke="rgb(15,17,8)" stroke-width="1" opacity="1" d="M 57.5 159 L 66 159.5 L 57.5 160 L 57.5 159 Z " /><path fill="rgb(15,17,8)" stroke="rgb(15,17,8)" stroke-width="1" opacity="1" d="M 87.5 160 L 95 160.5 L 87.5 161 L 87.5 160 Z " /><path fill="rgb(15,17,8)" stroke="rgb(15,17,8)" stroke-width="1" opacity="1" d="M 169.5 160 L 170 163.5 L 169 163.5 L 169.5 160 Z " /><path fill="rgb(15,17,8)" stroke="rgb(15,17,8)" stroke-width="1" opacity="1" d="M 104.5 161 L 108 161.5 L 104.5 162 L 104.5 161 Z " /><path fill="rgb(15,17,8)" stroke="rgb(15,17,8)" stroke-width="1" opacity="1" d="M 36.5 162 L 37 164.5 L 36 164.5 L 36.5 162 Z " /><path fill="rgb(15,17,8)" stroke="rgb(15,17,8)" stroke-width="1" opacity="1" d="M 115.5 162 L 120 162.5 L 115.5 163 L 115.5 162 Z " /><path fill="rgb(15,17,8)" stroke="rgb(15,17,8)" stroke-width="1" opacity="1" d="M 146.5 162 L 147 164.5 L 146 164.5 L 146.5 162 Z " /><path fill="rgb(15,17,8)" stroke="rgb(15,17,8)" stroke-width="1" opacity="1" d="M 66.5 164 L 81 164.5 L 66.5 165 L 66.5 164 Z " /><path fill="rgb(15,17,8)" stroke="rgb(15,17,8)" stroke-width="1" opacity="1" d="M 96.5 165 L 100 165.5 L 96.5 166 L 96.5 165 Z " /><path fill="rgb(15,17,8)" stroke="rgb(15,17,8)" stroke-width="1" opacity="1" d="M 123.5 165 L 124 167.5 L 123 167.5 L 123.5 165 Z " /><path fill="rgb(15,17,8)" stroke="rgb(15,17,8)" stroke-width="1" opacity="1" d="M 110.5 166 L 113 166.5 L 110.5 167 L 110.5 166 Z " /><path fill="rgb(15,17,8)" stroke="rgb(15,17,8)" stroke-width="1" opacity="1" d="M 28.5 168 L 29.5 170 L 28.5 168 Z " /><path fill="rgb(15,17,8)" stroke="rgb(15,17,8)" stroke-width="1" opacity="1" d="M 150.5 168 L 151 170.5 L 150 170.5 L 150.5 168 Z " /><path fill="rgb(15,17,8)" stroke="rgb(15,17,8)" stroke-width="1" opacity="1" d="M 20.5 171 L 21 173.5 L 20 173.5 L 20.5 171 Z " /><path fill="rgb(15,17,8)" stroke="rgb(15,17,8)" stroke-width="1" opacity="1" d="M 31.5 171 L 32 192.5 L 31 192.5 L 31.5 171 Z " /><path fill="rgb(15,17,8)" stroke="rgb(15,17,8)" stroke-width="1" opacity="1" d="M 168.5 171 L 169 177.5 L 168 177.5 L 168.5 171 Z " /><path fill="rgb(15,17,8)" stroke="rgb(15,17,8)" stroke-width="1" opacity="1" d="M 59.5 176 L 62.5 180 L 59.5 176 Z " /><path fill="rgb(15,17,8)" stroke="rgb(15,17,8)" stroke-width="1" opacity="1" d="M 119.5 177 L 116.5 181 L 119.5 177 Z " /><path fill="rgb(15,17,8)" stroke="rgb(15,17,8)" stroke-width="1" opacity="1" d="M 149.5 177 L 150 187.5 L 149 187.5 L 149.5 177 Z " /><path fill="rgb(15,17,8)" stroke="rgb(15,17,8)" stroke-width="1" opacity="1" d="M 18.5 180 L 21 180.5 L 18.5 181 L 18.5 180 Z " /><path fill="rgb(15,17,8)" stroke="rgb(15,17,8)" stroke-width="1" opacity="1" d="M 16.5 181 L 15.5 183 L 16.5 181 Z " /><path fill="rgb(15,17,8)" stroke="rgb(15,17,8)" stroke-width="1" opacity="1" d="M 65.5 181 L 66.5 183 L 65.5 181 Z " /><path fill="rgb(15,17,8)" stroke="rgb(15,17,8)" stroke-width="1" opacity="1" d="M 83.5 183 L 88 183.5 L 83.5 184 L 83.5 183 Z " /><path fill="rgb(15,17,8)" stroke="rgb(15,17,8)" stroke-width="1" opacity="1" d="M 144.5 183 L 145 198.5 L 144 198.5 L 144.5 183 Z " /><path fill="rgb(15,17,8)" stroke="rgb(15,17,8)" stroke-width="1" opacity="1" d="M 167.5 183 L 168 188.5 L 167 188.5 L 167.5 183 Z " /><path fill="rgb(15,17,8)" stroke="rgb(15,17,8)" stroke-width="1" opacity="1" d="M 175.5 183 L 178 183.5 L 175.5 184 L 175.5 183 Z " /><path fill="rgb(15,17,8)" stroke="rgb(15,17,8)" stroke-width="1" opacity="1" d="M 14.5 184 L 16 187.5 L 14 186.5 L 14.5 184 Z " /><path fill="rgb(15,17,8)" stroke="rgb(15,17,8)" stroke-width="1" opacity="1" d="M 179.5 186 L 178.5 188 L 179.5 186 Z " /><path fill="rgb(15,17,8)" stroke="rgb(15,17,8)" stroke-width="1" opacity="1" d="M 87.5 188 L 93 188.5 L 87.5 189 L 87.5 188 Z " /><path fill="rgb(15,17,8)" stroke="rgb(15,17,8)" stroke-width="1" opacity="1" d="M 177.5 189 L 179.5 192 L 181 192.5 L 179.5 193 Q 175.9 191.9 177.5 189 Z " /><path fill="rgb(15,17,8)" stroke="rgb(15,17,8)" stroke-width="1" opacity="1" d="M 185.5 195 L 186 197.5 L 185 197.5 L 185.5 195 Z " /><path fill="rgb(15,17,8)" stroke="rgb(15,17,8)" stroke-width="1" opacity="1" d="M 15.5 198 L 16.5 200 L 15.5 198 Z " /><path fill="rgb(68,147,63)" stroke="rgb(68,147,63)" stroke-width="1" opacity="1" d="M 60.5 104 L 70.5 104 L 79 111.5 L 83 121.5 L 85 142 Q 88.3 143.3 87 138.5 L 92 121.5 L 100.5 110 L 109.5 105 L 119.5 105 L 128 111.5 L 134 126.5 L 135 146.5 L 132 159 L 136 160 L 133 180.5 Q 129.3 189.3 121.5 194 L 105.5 200 L 76.5 200 Q 63.3 197.3 54 192 L 46 175.5 L 46 163.5 L 51 150.5 Q 45.5 142 46 127.5 L 49 116.5 L 52 110.5 L 56.5 106 L 60.5 104 Z M 113 107 Q 109 109 111 114 L 116 115 L 118 114 L 113 107 Z M 62 112 L 60 113 Q 54 117 52 125 L 52 145 L 54 151 L 58 153 L 75 153 L 78 149 L 78 139 L 79 138 L 78 126 L 75 119 Q 72 111 62 112 Z M 108 116 L 105 117 L 96 128 L 95 140 L 94 141 L 94 150 L 99 153 L 106 155 L 121 156 L 123 154 L 125 145 Q 127 129 122 122 Q 119 114 108 116 Z M 55 159 L 54 162 Q 54 172 59 178 L 72 186 L 84 189 L 100 189 Q 111 187 118 181 Q 124 176 124 165 L 122 162 L 114 162 L 113 161 L 55 159 Z " /><path fill="rgb(68,147,63)" stroke="rgb(68,147,63)" stroke-width="1" opacity="1" d="M 72.5 165 L 75 165.5 L 72.5 166 L 72.5 165 Z " /><path fill="rgb(68,147,63)" stroke="rgb(68,147,63)" stroke-width="1" opacity="1" d="M 88.5 166 L 91 166.5 L 88.5 167 L 88.5 166 Z " /><path fill="rgb(88,130,30)" stroke="rgb(88,130,30)" stroke-width="1" opacity="1" d="M 62.5 86 L 69 86.5 L 62.5 87 L 62.5 86 Z " /><path fill="rgb(88,130,30)" stroke="rgb(88,130,30)" stroke-width="1" opacity="1" d="M 71.5 86 L 75 86.5 L 71.5 87 L 71.5 86 Z " /><path fill="rgb(88,130,30)" stroke="rgb(88,130,30)" stroke-width="1" opacity="1" d="M 159 102 Q 168.8 104.5 175 111.5 L 173 129.5 L 172 130.5 L 172 137.5 L 171 138.5 L 171 149.5 L 169 157.5 L 166 197.5 L 167 200 L 150 200 L 150 173.5 L 152 165.5 L 152 157 L 147 156.5 L 148.5 149 L 152.5 150 L 154 148.5 L 154 134.5 L 156 127.5 L 156 118.5 L 159 102 Z " /><path fill="rgb(88,130,30)" stroke="rgb(88,130,30)" stroke-width="1" opacity="1" d="M 36.5 172 L 37 192.5 L 36 192.5 L 36.5 172 Z " /><path fill="rgb(88,130,30)" stroke="rgb(88,130,30)" stroke-width="1" opacity="1" d="M 144.5 174 L 145 176.5 L 144 176.5 L 144.5 174 Z " /></svg>