<svg width="200" height="200" version="1.1" xmlns="http://www.w3.org/2000/svg" desc="Created with imagetracer.js version 1.2.6" ><path fill="rgb(0,0,0)" stroke="rgb(0,0,0)" stroke-width="1" opacity="0" d="M 0 0 L 200 0 L 200 200 L 181.5 200 L 181 198.5 L 170 168.5 L 163 154 Q 169.6 152.9 173 147.5 Q 180 140 178 123.5 L 176 116.5 L 171 110.5 L 171 108.5 Q 174.7 102.7 173 91.5 Q 170.1 77.4 159.5 71 L 150 66.5 L 150 58.5 L 148 48 L 144.5 47 L 124.5 57 L 106.5 38 L 104.5 37 L 101.5 38 L 87 51.5 L 85.5 54 L 70.5 41 L 66.5 41 L 64 45.5 L 61 64.5 L 59.5 66 L 47.5 67 L 36 75.5 L 31 83.5 L 29 90.5 L 29 105.5 L 30 109.5 L 24 117.5 L 20 126.5 L 19 137.5 Q 21.9 149.1 30.5 155 L 42 160.5 L 33 178.5 L 29 200 L 0.5 200 L 0 199.5 L 0 0 Z " /><path fill="rgb(99,180,78)" stroke="rgb(99,180,78)" stroke-width="1" opacity="1" d="M 101.5 46 L 100.5 48 L 101.5 46 Z " /><path fill="rgb(99,180,78)" stroke="rgb(99,180,78)" stroke-width="1" opacity="1" d="M 71.5 50 L 75.5 55 L 71.5 50 Z " /><path fill="rgb(99,180,78)" stroke="rgb(99,180,78)" stroke-width="1" opacity="1" d="M 92.5 55 L 90.5 58 L 92.5 55 Z " /><path fill="rgb(99,180,78)" stroke="rgb(99,180,78)" stroke-width="1" opacity="1" d="M 141.5 55 Q 144.3 54.4 143 60.5 L 142 60.5 L 141.5 56 L 139.5 57 L 139.5 56 L 141.5 55 Z " /><path fill="rgb(99,180,78)" stroke="rgb(99,180,78)" stroke-width="1" opacity="1" d="M 115.5 56 L 116.5 58 L 115.5 56 Z " /><path fill="rgb(99,180,78)" stroke="rgb(99,180,78)" stroke-width="1" opacity="1" d="M 135.5 58 L 136 60 L 134 59.5 L 135.5 58 Z " /><path fill="rgb(99,180,78)" stroke="rgb(99,180,78)" stroke-width="1" opacity="1" d="M 101.5 61 L 111 68.5 Q 111.5 72.5 108.5 73 L 102.5 77 L 94 70.5 L 94 68.5 L 101.5 61 Z " /><path fill="rgb(99,180,78)" stroke="rgb(99,180,78)" stroke-width="1" opacity="1" d="M 143.5 62 L 144 68 L 135.5 70 L 134.5 68 L 141.5 68 L 142 66.5 L 143.5 62 Z " /><path fill="rgb(99,180,78)" stroke="rgb(99,180,78)" stroke-width="1" opacity="1" d="M 53.5 72 L 57 72.5 L 53.5 73 L 53.5 72 Z " /><path fill="rgb(99,180,78)" stroke="rgb(99,180,78)" stroke-width="1" opacity="1" d="M 126.5 74 L 125.5 76 L 126.5 74 Z " /><path fill="rgb(99,180,78)" stroke="rgb(99,180,78)" stroke-width="1" opacity="1" d="M 45.5 75 L 44.5 77 L 45.5 75 Z " /><path fill="rgb(99,180,78)" stroke="rgb(99,180,78)" stroke-width="1" opacity="1" d="M 67.5 75 L 70.5 79 L 67.5 75 Z " /><path fill="rgb(99,180,78)" stroke="rgb(99,180,78)" stroke-width="1" opacity="1" d="M 155.5 76 L 156.5 78 L 155.5 76 Z " /><path fill="rgb(99,180,78)" stroke="rgb(99,180,78)" stroke-width="1" opacity="1" d="M 159.5 80 Q 167.3 86.2 167 100.5 Q 163.9 104.9 165 113.5 L 170 119.5 L 172 127.5 L 172 133.5 L 168.5 142 L 169 140.5 L 163 134.5 L 164 121.5 L 159 110.5 L 163 100.5 L 163 91.5 L 159.5 80 Z " /><path fill="rgb(99,180,78)" stroke="rgb(99,180,78)" stroke-width="1" opacity="1" d="M 127.5 81 L 124.5 85 L 127.5 81 Z " /><path fill="rgb(99,180,78)" stroke="rgb(99,180,78)" stroke-width="1" opacity="1" d="M 49.5 90 L 48.5 92 L 49.5 90 Z " /><path fill="rgb(99,180,78)" stroke="rgb(99,180,78)" stroke-width="1" opacity="1" d="M 141.5 90 L 145 90.5 L 141.5 91 L 141.5 90 Z " /><path fill="rgb(99,180,78)" stroke="rgb(99,180,78)" stroke-width="1" opacity="1" d="M 117.5 91 L 120 91.5 L 117.5 92 L 117.5 91 Z " /><path fill="rgb(99,180,78)" stroke="rgb(99,180,78)" stroke-width="1" opacity="1" d="M 137.5 92 L 135.5 95 L 137.5 92 Z " /><path fill="rgb(99,180,78)" stroke="rgb(99,180,78)" stroke-width="1" opacity="1" d="M 64.5 99 L 65 101.5 L 64 101.5 L 64.5 99 Z " /><path fill="rgb(99,180,78)" stroke="rgb(99,180,78)" stroke-width="1" opacity="1" d="M 35.5 101 L 36 103.5 L 35 103.5 L 35.5 101 Z " /><path fill="rgb(99,180,78)" stroke="rgb(99,180,78)" stroke-width="1" opacity="1" d="M 149.5 101 L 148.5 103 L 149.5 101 Z " /><path fill="rgb(99,180,78)" stroke="rgb(99,180,78)" stroke-width="1" opacity="1" d="M 50.5 102 L 51.5 104 L 50.5 102 Z " /><path fill="rgb(99,180,78)" stroke="rgb(99,180,78)" stroke-width="1" opacity="1" d="M 63.5 103 L 62.5 105 L 63.5 103 Z " /><path fill="rgb(99,180,78)" stroke="rgb(99,180,78)" stroke-width="1" opacity="1" d="M 57.5 105 L 61 105.5 L 57.5 106 L 57.5 105 Z " /><path fill="rgb(99,180,78)" stroke="rgb(99,180,78)" stroke-width="1" opacity="1" d="M 88.5 112 L 98 112.5 L 88.5 113 L 88.5 112 Z " /><path fill="rgb(99,180,78)" stroke="rgb(99,180,78)" stroke-width="1" opacity="1" d="M 78.5 113 L 81 113.5 L 78.5 114 L 78.5 113 Z " /><path fill="rgb(99,180,78)" stroke="rgb(99,180,78)" stroke-width="1" opacity="1" d="M 105.5 113 L 108 113.5 L 105.5 114 L 105.5 113 Z " /><path fill="rgb(99,180,78)" stroke="rgb(99,180,78)" stroke-width="1" opacity="1" d="M 25.5 131 L 26 135.5 L 25 135.5 L 25.5 131 Z " /><path fill="rgb(99,180,78)" stroke="rgb(99,180,78)" stroke-width="1" opacity="1" d="M 55.5 131 L 57.5 134 L 55.5 131 Z " /><path fill="rgb(99,180,78)" stroke="rgb(99,180,78)" stroke-width="1" opacity="1" d="M 124.5 133 L 127 133.5 L 124.5 134 L 124.5 133 Z " /><path fill="rgb(99,180,78)" stroke="rgb(99,180,78)" stroke-width="1" opacity="1" d="M 73.5 135 L 77 135.5 L 73.5 136 L 73.5 135 Z " /><path fill="rgb(99,180,78)" stroke="rgb(99,180,78)" stroke-width="1" opacity="1" d="M 91.5 135 L 94 135.5 L 91.5 136 L 91.5 135 Z " /><path fill="rgb(99,180,78)" stroke="rgb(99,180,78)" stroke-width="1" opacity="1" d="M 28.5 143 L 29.5 145 L 28.5 143 Z " /><path fill="rgb(99,180,78)" stroke="rgb(99,180,78)" stroke-width="1" opacity="1" d="M 167.5 143 L 164.5 147 L 167.5 143 Z " /><path fill="rgb(99,180,78)" stroke="rgb(99,180,78)" stroke-width="1" opacity="1" d="M 151.5 150 L 154 150.5 L 151.5 151 L 151.5 150 Z " /><path fill="rgb(99,180,78)" stroke="rgb(99,180,78)" stroke-width="1" opacity="1" d="M 79.5 157 L 82 160.5 L 81 160.5 L 79.5 157 Z " /><path fill="rgb(99,180,78)" stroke="rgb(99,180,78)" stroke-width="1" opacity="1" d="M 72.5 163 L 79 163.5 L 75.5 165 L 72.5 164 L 72.5 163 Z " /><path fill="rgb(99,180,78)" stroke="rgb(99,180,78)" stroke-width="1" opacity="1" d="M 81.5 166 L 84 166.5 L 81.5 167 L 81.5 166 Z " /><path fill="rgb(99,180,78)" stroke="rgb(99,180,78)" stroke-width="1" opacity="1" d="M 85.5 167 L 88 167.5 L 85.5 168 L 85.5 167 Z " /><path fill="rgb(99,180,78)" stroke="rgb(99,180,78)" stroke-width="1" opacity="1" d="M 90.5 168 L 94 168.5 L 90.5 169 L 90.5 168 Z " /><path fill="rgb(99,180,78)" stroke="rgb(99,180,78)" stroke-width="1" opacity="1" d="M 100.5 168 L 103 168.5 L 100.5 169 L 100.5 168 Z " /><path fill="rgb(99,180,78)" stroke="rgb(99,180,78)" stroke-width="1" opacity="1" d="M 96.5 178 L 100 179.5 L 98.5 180 L 96.5 178 Z " /><path fill="rgb(99,180,78)" stroke="rgb(99,180,78)" stroke-width="1" opacity="1" d="M 85.5 181 L 88 181.5 L 85.5 182 L 85.5 181 Z " /><path fill="rgb(99,180,78)" stroke="rgb(99,180,78)" stroke-width="1" opacity="1" d="M 80.5 182 L 83 182.5 L 80.5 183 L 80.5 182 Z " /><path fill="rgb(99,180,78)" stroke="rgb(99,180,78)" stroke-width="1" opacity="1" d="M 108.5 182 L 111 182.5 L 108.5 183 L 108.5 182 Z " /><path fill="rgb(99,180,78)" stroke="rgb(99,180,78)" stroke-width="1" opacity="1" d="M 112.5 183 L 116 183.5 L 112.5 184 L 112.5 183 Z " /><path fill="rgb(99,180,78)" stroke="rgb(99,180,78)" stroke-width="1" opacity="1" d="M 71.5 184 L 74 184.5 L 71.5 185 L 71.5 184 Z " /><path fill="rgb(99,180,78)" stroke="rgb(99,180,78)" stroke-width="1" opacity="1" d="M 118.5 184 L 121 184.5 L 118.5 185 L 118.5 184 Z " /><path fill="rgb(99,180,78)" stroke="rgb(99,180,78)" stroke-width="1" opacity="1" d="M 66.5 185 L 70 185.5 L 66.5 186 L 66.5 185 Z " /><path fill="rgb(99,180,78)" stroke="rgb(99,180,78)" stroke-width="1" opacity="1" d="M 123.5 185 L 127 185.5 L 123.5 186 L 123.5 185 Z " /><path fill="rgb(99,180,78)" stroke="rgb(99,180,78)" stroke-width="1" opacity="1" d="M 58.5 186 L 64 186.5 L 58.5 187 L 58.5 186 Z " /><path fill="rgb(99,180,78)" stroke="rgb(99,180,78)" stroke-width="1" opacity="1" d="M 129.5 186 L 132 186.5 L 129.5 187 L 129.5 186 Z " /><path fill="rgb(99,180,78)" stroke="rgb(99,180,78)" stroke-width="1" opacity="1" d="M 38 187 L 57 187.5 L 55 195 L 37.5 192 L 36 192.5 L 38 187 Z " /><path fill="rgb(99,180,78)" stroke="rgb(99,180,78)" stroke-width="1" opacity="1" d="M 134.5 187 L 138 187.5 L 134.5 188 L 134.5 187 Z " /><path fill="rgb(99,180,78)" stroke="rgb(99,180,78)" stroke-width="1" opacity="1" d="M 140.5 188 L 144.5 189 L 166.5 189 L 169.5 188 L 171 189.5 Q 160.2 194.4 145 194 Q 146 190.2 143.5 189 Q 139.5 189.8 140.5 188 Z " /><path fill="rgb(251,228,75)" stroke="rgb(251,228,75)" stroke-width="1" opacity="1" d="M 104.5 45 L 120.5 63 L 124.5 64 L 134 60 L 134 70.5 L 131.5 71 L 118 82.5 L 116.5 85 L 104.5 82 L 88.5 82 L 87.5 83 L 80 83 L 76 75.5 L 78 71.5 L 78 66.5 L 80.5 59 L 81 61 L 85 62 L 89.5 68 L 92.5 69 L 94 68.5 L 94 70.5 L 96.5 74 L 103.5 77 L 111 70.5 Q 111.8 64.8 107.5 64 L 102 61 L 104 53.5 L 103 50.5 L 104.5 45 Z " /><path fill="rgb(108,76,64)" stroke="rgb(108,76,64)" stroke-width="1" opacity="1" d="M 103.5 44 L 114 53.5 L 104.5 45 L 102.5 46 L 103.5 44 Z " /><path fill="rgb(108,76,64)" stroke="rgb(108,76,64)" stroke-width="1" opacity="1" d="M 96.5 50 L 93.5 54 L 96.5 50 Z " /><path fill="rgb(108,76,64)" stroke="rgb(108,76,64)" stroke-width="1" opacity="1" d="M 77.5 55 L 80.5 59 L 77.5 55 Z " /><path fill="rgb(108,76,64)" stroke="rgb(108,76,64)" stroke-width="1" opacity="1" d="M 89.5 58 L 88.5 60 L 89.5 58 Z " /><path fill="rgb(108,76,64)" stroke="rgb(108,76,64)" stroke-width="1" opacity="1" d="M 119.5 61 L 120.5 63 L 119.5 61 Z " /><path fill="rgb(108,76,64)" stroke="rgb(108,76,64)" stroke-width="1" opacity="1" d="M 122.5 63 L 125 63.5 L 122.5 64 L 122.5 63 Z " /><path fill="rgb(108,76,64)" stroke="rgb(108,76,64)" stroke-width="1" opacity="1" d="M 66.5 67 L 67.5 69 L 66.5 67 Z " /><path fill="rgb(108,76,64)" stroke="rgb(108,76,64)" stroke-width="1" opacity="1" d="M 70.5 70 L 75.5 76 L 70.5 70 Z " /><path fill="rgb(108,76,64)" stroke="rgb(108,76,64)" stroke-width="1" opacity="1" d="M 88.5 118 L 99 118.5 L 88.5 119 L 88.5 118 Z " /><path fill="rgb(108,76,64)" stroke="rgb(108,76,64)" stroke-width="1" opacity="1" d="M 105.5 119 L 108 119.5 L 105.5 120 L 105.5 119 Z " /><path fill="rgb(108,76,64)" stroke="rgb(108,76,64)" stroke-width="1" opacity="1" d="M 53.5 124 L 54 127.5 L 53 127.5 L 53.5 124 Z " /><path fill="rgb(108,76,64)" stroke="rgb(108,76,64)" stroke-width="1" opacity="1" d="M 60.5 124 L 59.5 126 L 60.5 124 Z " /><path fill="rgb(108,76,64)" stroke="rgb(108,76,64)" stroke-width="1" opacity="1" d="M 130.5 126 L 131.5 128 L 126 127.5 L 130.5 126 Z " /><path fill="rgb(108,76,64)" stroke="rgb(108,76,64)" stroke-width="1" opacity="1" d="M 113.5 128 L 118 128.5 L 113.5 129 L 113.5 128 Z " /><path fill="rgb(108,76,64)" stroke="rgb(108,76,64)" stroke-width="1" opacity="1" d="M 97.5 129 L 101 129.5 L 97.5 130 L 97.5 129 Z " /><path fill="rgb(108,76,64)" stroke="rgb(108,76,64)" stroke-width="1" opacity="1" d="M 138.5 131 L 137.5 133 L 138.5 131 Z " /><path fill="rgb(108,76,64)" stroke="rgb(108,76,64)" stroke-width="1" opacity="1" d="M 121.5 133 L 124 133.5 L 121.5 134 L 121.5 133 Z " /><path fill="rgb(108,76,64)" stroke="rgb(108,76,64)" stroke-width="1" opacity="1" d="M 61.5 134 L 65 134.5 L 61.5 135 L 61.5 134 Z " /><path fill="rgb(108,76,64)" stroke="rgb(108,76,64)" stroke-width="1" opacity="1" d="M 106.5 134 L 109 134.5 L 106.5 135 L 106.5 134 Z " /><path fill="rgb(108,76,64)" stroke="rgb(108,76,64)" stroke-width="1" opacity="1" d="M 77.5 135 L 91 135.5 L 77.5 136 L 77.5 135 Z " /><path fill="rgb(108,76,64)" stroke="rgb(108,76,64)" stroke-width="1" opacity="1" d="M 30.5 146 L 33.5 150 L 30.5 146 Z " /><path fill="rgb(108,76,64)" stroke="rgb(108,76,64)" stroke-width="1" opacity="1" d="M 147.5 152 L 145.5 155 L 147.5 152 Z " /><path fill="rgb(108,76,64)" stroke="rgb(108,76,64)" stroke-width="1" opacity="1" d="M 48.5 155 L 53 155.5 L 48.5 156 L 48.5 155 Z " /><path fill="rgb(108,76,64)" stroke="rgb(108,76,64)" stroke-width="1" opacity="1" d="M 69.5 157 L 79 157.5 L 69.5 158 L 69.5 157 Z " /><path fill="rgb(108,76,64)" stroke="rgb(108,76,64)" stroke-width="1" opacity="1" d="M 48.5 161 L 50 161.5 L 47.5 163 L 48.5 161 Z " /><path fill="rgb(108,76,64)" stroke="rgb(108,76,64)" stroke-width="1" opacity="1" d="M 80.5 161 L 79.5 163 L 80.5 161 Z " /><path fill="rgb(108,76,64)" stroke="rgb(108,76,64)" stroke-width="1" opacity="1" d="M 96.5 169 L 100 169.5 L 96.5 170 L 96.5 169 Z " /><path fill="rgb(108,76,64)" stroke="rgb(108,76,64)" stroke-width="1" opacity="1" d="M 59.5 180 L 62 180.5 L 59.5 181 L 59.5 180 Z " /><path fill="rgb(108,76,64)" stroke="rgb(108,76,64)" stroke-width="1" opacity="1" d="M 142.5 182 L 145 182.5 L 142.5 183 L 142.5 182 Z " /><path fill="rgb(108,76,64)" stroke="rgb(108,76,64)" stroke-width="1" opacity="1" d="M 164.5 182 L 167 182.5 L 164.5 183 L 164.5 182 Z " /><path fill="rgb(51,86,22)" stroke="rgb(51,86,22)" stroke-width="1" opacity="1" d="M 98.5 48 L 97.5 50 L 98.5 48 Z " /><path fill="rgb(51,86,22)" stroke="rgb(51,86,22)" stroke-width="1" opacity="1" d="M 114.5 54 L 115.5 56 L 114.5 54 Z " /><path fill="rgb(51,86,22)" stroke="rgb(51,86,22)" stroke-width="1" opacity="1" d="M 143.5 57 L 144 59.5 L 143 59.5 L 143.5 57 Z " /><path fill="rgb(51,86,22)" stroke="rgb(51,86,22)" stroke-width="1" opacity="1" d="M 144.5 67 L 143.5 69 L 144.5 67 Z " /><path fill="rgb(51,86,22)" stroke="rgb(51,86,22)" stroke-width="1" opacity="1" d="M 65.5 73 L 66.5 75 L 65.5 73 Z " /><path fill="rgb(51,86,22)" stroke="rgb(51,86,22)" stroke-width="1" opacity="1" d="M 43.5 76 L 42.5 78 L 43.5 76 Z " /><path fill="rgb(51,86,22)" stroke="rgb(51,86,22)" stroke-width="1" opacity="1" d="M 123.5 77 L 120.5 81 L 123.5 77 Z " /><path fill="rgb(51,86,22)" stroke="rgb(51,86,22)" stroke-width="1" opacity="1" d="M 158.5 78 L 162.5 83 L 158.5 78 Z " /><path fill="rgb(51,86,22)" stroke="rgb(51,86,22)" stroke-width="1" opacity="1" d="M 71.5 79 L 72.5 81 L 71.5 79 Z " /><path fill="rgb(51,86,22)" stroke="rgb(51,86,22)" stroke-width="1" opacity="1" d="M 129.5 79 L 128.5 81 L 129.5 79 Z " /><path fill="rgb(51,86,22)" stroke="rgb(51,86,22)" stroke-width="1" opacity="1" d="M 40.5 80 L 39.5 82 L 40.5 80 Z " /><path fill="rgb(51,86,22)" stroke="rgb(51,86,22)" stroke-width="1" opacity="1" d="M 91.5 82 L 94 82.5 L 91.5 83 L 91.5 82 Z " /><path fill="rgb(51,86,22)" stroke="rgb(51,86,22)" stroke-width="1" opacity="1" d="M 78.5 89 L 82 89.5 L 78.5 90 L 78.5 89 Z " /><path fill="rgb(51,86,22)" stroke="rgb(51,86,22)" stroke-width="1" opacity="1" d="M 121.5 89 L 120.5 91 L 121.5 89 Z " /><path fill="rgb(51,86,22)" stroke="rgb(51,86,22)" stroke-width="1" opacity="1" d="M 139.5 91 L 138.5 93 L 139.5 91 Z " /><path fill="rgb(51,86,22)" stroke="rgb(51,86,22)" stroke-width="1" opacity="1" d="M 166.5 91 L 167 93.5 L 166 93.5 L 166.5 91 Z " /><path fill="rgb(51,86,22)" stroke="rgb(51,86,22)" stroke-width="1" opacity="1" d="M 59.5 92 L 62.5 96 L 59.5 92 Z " /><path fill="rgb(51,86,22)" stroke="rgb(51,86,22)" stroke-width="1" opacity="1" d="M 148.5 92 L 149.5 94 L 148.5 92 Z " /><path fill="rgb(51,86,22)" stroke="rgb(51,86,22)" stroke-width="1" opacity="1" d="M 166.5 101 L 167 103.5 L 166 103.5 L 166.5 101 Z " /><path fill="rgb(51,86,22)" stroke="rgb(51,86,22)" stroke-width="1" opacity="1" d="M 147.5 102 L 146.5 104 L 147.5 102 Z " /><path fill="rgb(51,86,22)" stroke="rgb(51,86,22)" stroke-width="1" opacity="1" d="M 134.5 103 L 135.5 105 L 134.5 103 Z " /><path fill="rgb(51,86,22)" stroke="rgb(51,86,22)" stroke-width="1" opacity="1" d="M 165.5 105 L 166 107.5 L 165 107.5 L 165.5 105 Z " /><path fill="rgb(51,86,22)" stroke="rgb(51,86,22)" stroke-width="1" opacity="1" d="M 34.5 113 L 32.5 116 L 34.5 113 Z " /><path fill="rgb(51,86,22)" stroke="rgb(51,86,22)" stroke-width="1" opacity="1" d="M 165.5 113 L 167.5 116 L 165.5 113 Z " /><path fill="rgb(51,86,22)" stroke="rgb(51,86,22)" stroke-width="1" opacity="1" d="M 168.5 117 L 169.5 119 L 168.5 117 Z " /><path fill="rgb(51,86,22)" stroke="rgb(51,86,22)" stroke-width="1" opacity="1" d="M 56.5 120 L 55.5 122 L 56.5 120 Z " /><path fill="rgb(51,86,22)" stroke="rgb(51,86,22)" stroke-width="1" opacity="1" d="M 136.5 123 L 137.5 125 L 136.5 123 Z " /><path fill="rgb(51,86,22)" stroke="rgb(51,86,22)" stroke-width="1" opacity="1" d="M 171.5 123 L 172 126.5 L 171 126.5 L 171.5 123 Z " /><path fill="rgb(51,86,22)" stroke="rgb(51,86,22)" stroke-width="1" opacity="1" d="M 171.5 134 L 172 136.5 L 171 136.5 L 171.5 134 Z " /><path fill="rgb(51,86,22)" stroke="rgb(51,86,22)" stroke-width="1" opacity="1" d="M 38.5 186 L 45 186.5 L 38 187 L 37.5 189 L 37 187.5 L 38.5 186 Z " /><path fill="rgb(51,86,22)" stroke="rgb(51,86,22)" stroke-width="1" opacity="1" d="M 144.5 188 L 147 188.5 L 144.5 189 L 144.5 188 Z " /><path fill="rgb(51,86,22)" stroke="rgb(51,86,22)" stroke-width="1" opacity="1" d="M 162.5 188 L 167 188.5 L 162.5 189 L 162.5 188 Z " /><path fill="rgb(126,222,64)" stroke="rgb(126,222,64)" stroke-width="1" opacity="1" d="M 141.5 56 L 143 65.5 L 142 68 L 134 68 L 134 60.5 L 133.5 59 L 136 60 Q 134.9 57.3 137.5 58 L 141.5 56 Z " /><path fill="rgb(126,222,64)" stroke="rgb(126,222,64)" stroke-width="1" opacity="1" d="M 57.5 72 L 61 72.5 L 57.5 73 L 57.5 72 Z " /><path fill="rgb(126,222,64)" stroke="rgb(126,222,64)" stroke-width="1" opacity="1" d="M 65.5 74 L 66.5 76 L 65.5 74 Z " /><path fill="rgb(126,222,64)" stroke="rgb(126,222,64)" stroke-width="1" opacity="1" d="M 144.5 74 L 150 74.5 L 144.5 75 L 144.5 74 Z " /><path fill="rgb(126,222,64)" stroke="rgb(126,222,64)" stroke-width="1" opacity="1" d="M 43.5 77 L 42.5 79 L 43.5 77 Z " /><path fill="rgb(126,222,64)" stroke="rgb(126,222,64)" stroke-width="1" opacity="1" d="M 157.5 78 L 158.5 80 L 157.5 78 Z " /><path fill="rgb(126,222,64)" stroke="rgb(126,222,64)" stroke-width="1" opacity="1" d="M 130.5 79 L 128.5 82 L 130.5 79 Z " /><path fill="rgb(126,222,64)" stroke="rgb(126,222,64)" stroke-width="1" opacity="1" d="M 41.5 80 L 40.5 82 L 41.5 80 Z " /><path fill="rgb(126,222,64)" stroke="rgb(126,222,64)" stroke-width="1" opacity="1" d="M 124.5 85 L 123.5 87 L 124.5 85 Z " /><path fill="rgb(126,222,64)" stroke="rgb(126,222,64)" stroke-width="1" opacity="1" d="M 161.5 86 L 162 88.5 L 161 88.5 L 161.5 86 Z " /><path fill="rgb(126,222,64)" stroke="rgb(126,222,64)" stroke-width="1" opacity="1" d="M 75.5 88 L 76.5 90 L 75.5 88 Z " /><path fill="rgb(126,222,64)" stroke="rgb(126,222,64)" stroke-width="1" opacity="1" d="M 90.5 88 L 102 88.5 L 90.5 89 L 90.5 88 Z " /><path fill="rgb(126,222,64)" stroke="rgb(126,222,64)" stroke-width="1" opacity="1" d="M 51.5 89 L 56 89.5 L 51.5 90 L 51.5 89 Z " /><path fill="rgb(126,222,64)" stroke="rgb(126,222,64)" stroke-width="1" opacity="1" d="M 84.5 89 L 87 89.5 L 84.5 90 L 84.5 89 Z " /><path fill="rgb(126,222,64)" stroke="rgb(126,222,64)" stroke-width="1" opacity="1" d="M 78.5 90 L 81 90.5 L 78.5 91 L 78.5 90 Z " /><path fill="rgb(126,222,64)" stroke="rgb(126,222,64)" stroke-width="1" opacity="1" d="M 121.5 90 L 120.5 92 L 121.5 90 Z " /><path fill="rgb(126,222,64)" stroke="rgb(126,222,64)" stroke-width="1" opacity="1" d="M 59.5 91 L 62.5 95 L 59.5 91 Z " /><path fill="rgb(126,222,64)" stroke="rgb(126,222,64)" stroke-width="1" opacity="1" d="M 114.5 91 L 117 91.5 L 114.5 92 L 114.5 91 Z " /><path fill="rgb(126,222,64)" stroke="rgb(126,222,64)" stroke-width="1" opacity="1" d="M 148.5 91 L 150.5 94 L 148.5 91 Z " /><path fill="rgb(126,222,64)" stroke="rgb(126,222,64)" stroke-width="1" opacity="1" d="M 162.5 91 L 163 100.5 L 162 100.5 L 162.5 91 Z " /><path fill="rgb(126,222,64)" stroke="rgb(126,222,64)" stroke-width="1" opacity="1" d="M 35.5 94 L 36 100.5 L 35 100.5 L 35.5 94 Z " /><path fill="rgb(126,222,64)" stroke="rgb(126,222,64)" stroke-width="1" opacity="1" d="M 151.5 95 L 152 98.5 L 151 98.5 L 151.5 95 Z " /><path fill="rgb(126,222,64)" stroke="rgb(126,222,64)" stroke-width="1" opacity="1" d="M 48.5 101 L 49.5 103 L 48.5 101 Z " /><path fill="rgb(126,222,64)" stroke="rgb(126,222,64)" stroke-width="1" opacity="1" d="M 133.5 103 L 135.5 106 L 133.5 103 Z " /><path fill="rgb(126,222,64)" stroke="rgb(126,222,64)" stroke-width="1" opacity="1" d="M 36.5 105 L 37 108.5 L 36 108.5 L 36.5 105 Z " /><path fill="rgb(126,222,64)" stroke="rgb(126,222,64)" stroke-width="1" opacity="1" d="M 137.5 106 L 141 106.5 L 137.5 107 L 137.5 106 Z " /><path fill="rgb(126,222,64)" stroke="rgb(126,222,64)" stroke-width="1" opacity="1" d="M 158.5 111 L 160 113.5 L 158 112.5 L 158.5 111 Z " /><path fill="rgb(126,222,64)" stroke="rgb(126,222,64)" stroke-width="1" opacity="1" d="M 82.5 112 L 88 112.5 L 82.5 113 L 82.5 112 Z " /><path fill="rgb(126,222,64)" stroke="rgb(126,222,64)" stroke-width="1" opacity="1" d="M 98.5 112 L 105 112.5 L 98.5 113 L 98.5 112 Z " /><path fill="rgb(126,222,64)" stroke="rgb(126,222,64)" stroke-width="1" opacity="1" d="M 35.5 113 L 33.5 116 L 35.5 113 Z " /><path fill="rgb(126,222,64)" stroke="rgb(126,222,64)" stroke-width="1" opacity="1" d="M 75.5 113 L 78 113.5 L 75.5 114 L 75.5 113 Z " /><path fill="rgb(126,222,64)" stroke="rgb(126,222,64)" stroke-width="1" opacity="1" d="M 108.5 113 L 112 113.5 L 108.5 114 L 108.5 113 Z " /><path fill="rgb(126,222,64)" stroke="rgb(126,222,64)" stroke-width="1" opacity="1" d="M 70.5 114 L 73 114.5 L 70.5 115 L 70.5 114 Z " /><path fill="rgb(126,222,64)" stroke="rgb(126,222,64)" stroke-width="1" opacity="1" d="M 114.5 114 L 117 114.5 L 114.5 115 L 114.5 114 Z " /><path fill="rgb(126,222,64)" stroke="rgb(126,222,64)" stroke-width="1" opacity="1" d="M 118.5 115 L 121 115.5 L 118.5 116 L 118.5 115 Z " /><path fill="rgb(126,222,64)" stroke="rgb(126,222,64)" stroke-width="1" opacity="1" d="M 32.5 117 L 31.5 119 L 32.5 117 Z " /><path fill="rgb(126,222,64)" stroke="rgb(126,222,64)" stroke-width="1" opacity="1" d="M 55.5 120 L 54 122.5 L 53.5 124 L 53 122.5 L 55.5 120 Z " /><path fill="rgb(126,222,64)" stroke="rgb(126,222,64)" stroke-width="1" opacity="1" d="M 136.5 122 L 138.5 125 L 136.5 122 Z " /><path fill="rgb(126,222,64)" stroke="rgb(126,222,64)" stroke-width="1" opacity="1" d="M 163.5 127 L 164 129.5 L 163 129.5 L 163.5 127 Z " /><path fill="rgb(126,222,64)" stroke="rgb(126,222,64)" stroke-width="1" opacity="1" d="M 162.5 134 L 163.5 136 L 162.5 134 Z " /><path fill="rgb(126,222,64)" stroke="rgb(126,222,64)" stroke-width="1" opacity="1" d="M 37.5 192 L 37 193.5 L 36.5 195 L 36 193.5 L 37.5 192 Z " /><path fill="rgb(126,222,64)" stroke="rgb(126,222,64)" stroke-width="1" opacity="1" d="M 55.5 192 L 56 194.5 L 55 194.5 L 55.5 192 Z " /><path fill="rgb(126,222,64)" stroke="rgb(126,222,64)" stroke-width="1" opacity="1" d="M 160.5 192 L 163 192.5 L 160.5 193 L 160.5 192 Z " /><path fill="rgb(126,222,64)" stroke="rgb(126,222,64)" stroke-width="1" opacity="1" d="M 41.5 193 L 44 193.5 L 41.5 194 L 41.5 193 Z " /><path fill="rgb(126,222,64)" stroke="rgb(126,222,64)" stroke-width="1" opacity="1" d="M 154.5 193 L 157 193.5 L 154.5 194 L 154.5 193 Z " /><path fill="rgb(126,222,64)" stroke="rgb(126,222,64)" stroke-width="1" opacity="1" d="M 47.5 194 L 52 194.5 L 47.5 195 L 47.5 194 Z " /><path fill="rgb(213,77,83)" stroke="rgb(213,77,83)" stroke-width="1" opacity="1" d="M 81.5 119 L 104.5 119 Q 106 121.5 111.5 120 L 130 126.5 L 125.5 128 L 97.5 129 L 96.5 130 L 71.5 130 L 70.5 129 L 62.5 129 L 59 126.5 L 61.5 124 L 81.5 119 Z " /><path fill="rgb(213,77,83)" stroke="rgb(213,77,83)" stroke-width="1" opacity="1" d="M 155.5 156 L 161 164.5 L 168 181.5 L 163.5 183 L 145.5 183 L 111.5 177 L 104 174.5 L 146.5 161 L 155.5 156 Z " /><path fill="rgb(213,77,83)" stroke="rgb(213,77,83)" stroke-width="1" opacity="1" d="M 48.5 162 L 51.5 162 Q 67.7 170.3 88 174.5 L 58.5 181 L 40 181 L 41 175.5 L 48.5 162 Z " /><path fill="rgb(0,0,0)" stroke="rgb(0,0,0)" stroke-width="1" opacity="0.8549019607843137" d="M 101.5 39 L 99.5 42 L 101.5 39 Z " /><path fill="rgb(0,0,0)" stroke="rgb(0,0,0)" stroke-width="1" opacity="0.8549019607843137" d="M 108.5 41 L 120.5 54 L 108.5 41 Z " /><path fill="rgb(0,0,0)" stroke="rgb(0,0,0)" stroke-width="1" opacity="0.8549019607843137" d="M 70.5 42 L 75.5 48 L 70.5 42 Z " /><path fill="rgb(0,0,0)" stroke="rgb(0,0,0)" stroke-width="1" opacity="0.8549019607843137" d="M 96.5 43 L 87.5 53 L 96.5 43 Z " /><path fill="rgb(0,0,0)" stroke="rgb(0,0,0)" stroke-width="1" opacity="0.8549019607843137" d="M 143.5 48 Q 147.3 47.3 148 49.5 L 147.5 51 L 147 49 Q 142.6 50 143.5 48 Z " /><path fill="rgb(0,0,0)" stroke="rgb(0,0,0)" stroke-width="1" opacity="0.8549019607843137" d="M 78.5 49 L 83.5 55 L 78.5 49 Z " /><path fill="rgb(0,0,0)" stroke="rgb(0,0,0)" stroke-width="1" opacity="0.8549019607843137" d="M 63.5 51 L 64 53.5 L 63 53.5 L 63.5 51 Z " /><path fill="rgb(0,0,0)" stroke="rgb(0,0,0)" stroke-width="1" opacity="0.8549019607843137" d="M 133.5 52 L 135 52.5 L 128.5 56 L 129.5 54 L 133.5 52 Z " /><path fill="rgb(0,0,0)" stroke="rgb(0,0,0)" stroke-width="1" opacity="0.8549019607843137" d="M 148.5 54 L 149 58.5 L 148 58.5 L 148.5 54 Z " /><path fill="rgb(0,0,0)" stroke="rgb(0,0,0)" stroke-width="1" opacity="0.8549019607843137" d="M 121.5 55 L 125 57.5 L 123.5 58 L 121.5 55 Z " /><path fill="rgb(0,0,0)" stroke="rgb(0,0,0)" stroke-width="1" opacity="0.8549019607843137" d="M 62.5 57 L 63 59.5 L 62 59.5 L 62.5 57 Z " /><path fill="rgb(0,0,0)" stroke="rgb(0,0,0)" stroke-width="1" opacity="0.8549019607843137" d="M 61.5 62 L 62 64.5 L 61 64.5 L 61.5 62 Z " /><path fill="rgb(0,0,0)" stroke="rgb(0,0,0)" stroke-width="1" opacity="0.8549019607843137" d="M 149.5 63 L 151 68.5 L 149 67.5 L 149.5 63 Z " /><path fill="rgb(0,0,0)" stroke="rgb(0,0,0)" stroke-width="1" opacity="0.8549019607843137" d="M 49.5 67 L 52 67.5 L 49.5 68 L 49.5 67 Z " /><path fill="rgb(0,0,0)" stroke="rgb(0,0,0)" stroke-width="1" opacity="0.8549019607843137" d="M 46.5 68 L 48 68.5 L 43.5 71 L 44.5 69 L 46.5 68 Z " /><path fill="rgb(0,0,0)" stroke="rgb(0,0,0)" stroke-width="1" opacity="0.8549019607843137" d="M 152.5 69 L 158 71.5 L 156.5 71 L 152.5 70 L 152.5 69 Z " /><path fill="rgb(0,0,0)" stroke="rgb(0,0,0)" stroke-width="1" opacity="0.8549019607843137" d="M 41.5 71 L 37.5 76 L 41.5 71 Z " /><path fill="rgb(0,0,0)" stroke="rgb(0,0,0)" stroke-width="1" opacity="0.8549019607843137" d="M 159.5 72 L 167.5 81 L 159.5 72 Z " /><path fill="rgb(0,0,0)" stroke="rgb(0,0,0)" stroke-width="1" opacity="0.8549019607843137" d="M 35.5 78 L 34.5 80 L 35.5 78 Z " /><path fill="rgb(0,0,0)" stroke="rgb(0,0,0)" stroke-width="1" opacity="0.8549019607843137" d="M 30.5 88 L 31 90.5 L 30 90.5 L 30.5 88 Z " /><path fill="rgb(0,0,0)" stroke="rgb(0,0,0)" stroke-width="1" opacity="0.8549019607843137" d="M 172.5 94 L 173 99.5 L 172 99.5 L 172.5 94 Z " /><path fill="rgb(0,0,0)" stroke="rgb(0,0,0)" stroke-width="1" opacity="0.8549019607843137" d="M 29.5 95 L 30 100.5 L 29 100.5 L 29.5 95 Z " /><path fill="rgb(0,0,0)" stroke="rgb(0,0,0)" stroke-width="1" opacity="0.8549019607843137" d="M 171.5 103 L 172 105.5 L 171 105.5 L 171.5 103 Z " /><path fill="rgb(0,0,0)" stroke="rgb(0,0,0)" stroke-width="1" opacity="0.8549019607843137" d="M 30.5 105 L 31 109.5 L 30 109.5 L 30.5 105 Z " /><path fill="rgb(0,0,0)" stroke="rgb(0,0,0)" stroke-width="1" opacity="0.8549019607843137" d="M 170.5 107 Q 170.1 113 174 114.5 L 170 111.5 L 170.5 107 Z " /><path fill="rgb(0,0,0)" stroke="rgb(0,0,0)" stroke-width="1" opacity="0.8549019607843137" d="M 29.5 111 L 28 113.5 L 26.5 116 L 27 114.5 L 29.5 111 Z " /><path fill="rgb(0,0,0)" stroke="rgb(0,0,0)" stroke-width="1" opacity="0.8549019607843137" d="M 176.5 121 L 177 123.5 L 176 123.5 L 176.5 121 Z " /><path fill="rgb(0,0,0)" stroke="rgb(0,0,0)" stroke-width="1" opacity="0.8549019607843137" d="M 20.5 128 L 21 130.5 L 20 130.5 L 20.5 128 Z " /><path fill="rgb(0,0,0)" stroke="rgb(0,0,0)" stroke-width="1" opacity="0.8549019607843137" d="M 177.5 128 L 178 132.5 L 177 132.5 L 177.5 128 Z " /><path fill="rgb(0,0,0)" stroke="rgb(0,0,0)" stroke-width="1" opacity="0.8549019607843137" d="M 176.5 136 L 177 138.5 L 176 138.5 L 176.5 136 Z " /><path fill="rgb(0,0,0)" stroke="rgb(0,0,0)" stroke-width="1" opacity="0.8549019607843137" d="M 173.5 144 L 172.5 146 L 173.5 144 Z " /><path fill="rgb(0,0,0)" stroke="rgb(0,0,0)" stroke-width="1" opacity="0.8549019607843137" d="M 23.5 145 L 24.5 147 L 23.5 145 Z " /><path fill="rgb(0,0,0)" stroke="rgb(0,0,0)" stroke-width="1" opacity="0.8549019607843137" d="M 171.5 147 L 168.5 151 L 171.5 147 Z " /><path fill="rgb(0,0,0)" stroke="rgb(0,0,0)" stroke-width="1" opacity="0.8549019607843137" d="M 25.5 148 L 31.5 155 L 25.5 148 Z " /><path fill="rgb(0,0,0)" stroke="rgb(0,0,0)" stroke-width="1" opacity="0.8549019607843137" d="M 166.5 151 L 165.5 153 L 166.5 151 Z " /><path fill="rgb(0,0,0)" stroke="rgb(0,0,0)" stroke-width="1" opacity="0.8549019607843137" d="M 162.5 153 L 164 153.5 L 161.5 155 L 162.5 153 Z " /><path fill="rgb(0,0,0)" stroke="rgb(0,0,0)" stroke-width="1" opacity="0.8549019607843137" d="M 163.5 158 L 168 166.5 L 167 166.5 L 163.5 158 Z " /><path fill="rgb(0,0,0)" stroke="rgb(0,0,0)" stroke-width="1" opacity="0.8549019607843137" d="M 31.5 188 L 32 190.5 L 31 190.5 L 31.5 188 Z " /><path fill="rgb(0,0,0)" stroke="rgb(0,0,0)" stroke-width="1" opacity="0.8549019607843137" d="M 30.5 193 L 31 195.5 L 30 195.5 L 30.5 193 Z " /><path fill="rgb(134,242,62)" stroke="rgb(134,242,62)" stroke-width="1" opacity="1" d="M 52.5 73 L 62.5 73 L 71 79.5 L 76.5 90 L 80.5 91 Q 89.6 87.1 104.5 89 L 114.5 92 L 120.5 92 L 127.5 82 Q 134.7 73.7 151.5 75 L 159 80.5 Q 163.6 88.4 162 102.5 L 158 112.5 Q 163.4 117.1 164 126.5 L 163 127.5 L 163 134 L 147.5 127 L 139.5 125 L 136.5 122 L 120.5 115 L 104.5 112 L 82.5 112 L 60.5 117 L 53 122.5 L 51.5 125 Q 36.4 128.9 26.5 138 L 26 131.5 Q 29.4 119.4 37 111.5 L 37 105.5 L 36 104.5 L 36 91.5 Q 38.4 81.4 45.5 76 L 52.5 73 Z M 52 89 L 50 90 L 46 96 L 48 102 L 56 106 Q 62 107 64 105 L 65 103 Q 66 97 63 95 L 56 89 L 52 89 Z M 141 90 L 139 91 Q 132 94 133 104 L 138 107 L 148 104 L 152 99 L 151 94 Q 149 89 141 90 Z " /><path fill="rgb(134,242,62)" stroke="rgb(134,242,62)" stroke-width="1" opacity="1" d="M 169.5 190 L 174 199.5 L 145 200 L 145 194 L 156.5 194 L 166.5 192 L 169.5 190 Z " /><path fill="rgb(134,242,62)" stroke="rgb(134,242,62)" stroke-width="1" opacity="1" d="M 37 193 L 55 195 L 54 200 L 36.5 200 Q 35.5 200 36 195.5 L 37 193 Z " /><path fill="rgb(0,0,0)" stroke="rgb(0,0,0)" stroke-width="1" opacity="0.28627450980392155" d="M 101.5 38 L 103 38.5 L 97.5 43 L 101.5 38 Z " /><path fill="rgb(0,0,0)" stroke="rgb(0,0,0)" stroke-width="1" opacity="0.28627450980392155" d="M 106.5 38 L 120.5 53 L 106.5 38 Z " /><path fill="rgb(0,0,0)" stroke="rgb(0,0,0)" stroke-width="1" opacity="0.28627450980392155" d="M 66.5 41 L 68 41.5 L 66 42 L 65.5 44 L 65 42.5 L 66.5 41 Z " /><path fill="rgb(0,0,0)" stroke="rgb(0,0,0)" stroke-width="1" opacity="0.28627450980392155" d="M 69.5 41 L 78 48.5 L 70.5 42 L 69.5 41 Z " /><path fill="rgb(0,0,0)" stroke="rgb(0,0,0)" stroke-width="1" opacity="0.28627450980392155" d="M 95.5 43 L 87.5 52 L 95.5 43 Z " /><path fill="rgb(0,0,0)" stroke="rgb(0,0,0)" stroke-width="1" opacity="0.28627450980392155" d="M 80.5 50 L 85.5 54 L 87 53.5 L 84.5 55 L 80.5 50 Z " /><path fill="rgb(0,0,0)" stroke="rgb(0,0,0)" stroke-width="1" opacity="0.28627450980392155" d="M 136.5 50 L 138 50.5 L 134.5 52 L 134.5 51 L 136.5 50 Z " /><path fill="rgb(0,0,0)" stroke="rgb(0,0,0)" stroke-width="1" opacity="0.28627450980392155" d="M 148.5 50 L 149 53.5 L 148 53.5 L 148.5 50 Z " /><path fill="rgb(0,0,0)" stroke="rgb(0,0,0)" stroke-width="1" opacity="0.28627450980392155" d="M 62.5 54 L 63 56.5 L 62 56.5 L 62.5 54 Z " /><path fill="rgb(0,0,0)" stroke="rgb(0,0,0)" stroke-width="1" opacity="0.28627450980392155" d="M 121.5 54 L 123.5 57 L 121.5 54 Z " /><path fill="rgb(0,0,0)" stroke="rgb(0,0,0)" stroke-width="1" opacity="0.28627450980392155" d="M 128.5 54 L 127.5 56 L 125.5 57 L 126.5 55 L 128.5 54 Z " /><path fill="rgb(0,0,0)" stroke="rgb(0,0,0)" stroke-width="1" opacity="0.28627450980392155" d="M 149.5 58 L 150 62.5 L 149 62.5 L 149.5 58 Z " /><path fill="rgb(0,0,0)" stroke="rgb(0,0,0)" stroke-width="1" opacity="0.28627450980392155" d="M 61.5 59 L 62 61.5 L 61 61.5 L 61.5 59 Z " /><path fill="rgb(0,0,0)" stroke="rgb(0,0,0)" stroke-width="1" opacity="0.28627450980392155" d="M 60.5 65 L 59.5 67 L 51 66.5 L 59.5 66 L 60.5 65 Z " /><path fill="rgb(0,0,0)" stroke="rgb(0,0,0)" stroke-width="1" opacity="0.28627450980392155" d="M 150.5 67 L 153 68.5 L 151.5 69 L 150.5 67 Z " /><path fill="rgb(0,0,0)" stroke="rgb(0,0,0)" stroke-width="1" opacity="0.28627450980392155" d="M 43.5 69 L 42.5 71 L 43.5 69 Z " /><path fill="rgb(0,0,0)" stroke="rgb(0,0,0)" stroke-width="1" opacity="0.28627450980392155" d="M 157.5 70 L 168 79.5 L 159.5 72 L 157.5 70 Z " /><path fill="rgb(0,0,0)" stroke="rgb(0,0,0)" stroke-width="1" opacity="0.28627450980392155" d="M 40.5 71 L 37 75.5 L 34.5 79 L 36 76.5 L 40.5 71 Z " /><path fill="rgb(0,0,0)" stroke="rgb(0,0,0)" stroke-width="1" opacity="0.28627450980392155" d="M 168.5 81 L 170 83.5 L 169 83.5 L 168.5 81 Z " /><path fill="rgb(0,0,0)" stroke="rgb(0,0,0)" stroke-width="1" opacity="0.28627450980392155" d="M 32.5 82 L 32 83.5 L 31.5 85 L 31 83.5 L 32.5 82 Z " /><path fill="rgb(0,0,0)" stroke="rgb(0,0,0)" stroke-width="1" opacity="0.28627450980392155" d="M 29.5 90 L 30 94.5 L 29 94.5 L 29.5 90 Z " /><path fill="rgb(0,0,0)" stroke="rgb(0,0,0)" stroke-width="1" opacity="0.28627450980392155" d="M 172.5 91 L 173 93.5 L 172 93.5 L 172.5 91 Z " /><path fill="rgb(0,0,0)" stroke="rgb(0,0,0)" stroke-width="1" opacity="0.28627450980392155" d="M 172.5 100 L 173 103.5 L 172 103.5 L 172.5 100 Z " /><path fill="rgb(0,0,0)" stroke="rgb(0,0,0)" stroke-width="1" opacity="0.28627450980392155" d="M 29.5 101 L 30 105.5 L 29 105.5 L 29.5 101 Z " /><path fill="rgb(0,0,0)" stroke="rgb(0,0,0)" stroke-width="1" opacity="0.28627450980392155" d="M 29.5 110 L 27.5 113 L 29.5 110 Z " /><path fill="rgb(0,0,0)" stroke="rgb(0,0,0)" stroke-width="1" opacity="0.28627450980392155" d="M 171.5 111 L 176 117.5 L 175 117.5 L 171.5 111 Z " /><path fill="rgb(0,0,0)" stroke="rgb(0,0,0)" stroke-width="1" opacity="0.28627450980392155" d="M 25.5 116 L 25 117.5 L 23.5 121 L 23 119.5 L 25.5 116 Z " /><path fill="rgb(0,0,0)" stroke="rgb(0,0,0)" stroke-width="1" opacity="0.28627450980392155" d="M 177.5 123 L 178 127.5 L 177 127.5 L 177.5 123 Z " /><path fill="rgb(0,0,0)" stroke="rgb(0,0,0)" stroke-width="1" opacity="0.28627450980392155" d="M 21.5 124 L 22 125.5 L 20.5 128 L 20 126.5 L 21.5 124 Z " /><path fill="rgb(0,0,0)" stroke="rgb(0,0,0)" stroke-width="1" opacity="0.28627450980392155" d="M 19.5 130 L 20 137.5 L 19 137.5 L 19.5 130 Z " /><path fill="rgb(0,0,0)" stroke="rgb(0,0,0)" stroke-width="1" opacity="0.28627450980392155" d="M 177.5 133 L 178 136.5 L 177 136.5 L 177.5 133 Z " /><path fill="rgb(0,0,0)" stroke="rgb(0,0,0)" stroke-width="1" opacity="0.28627450980392155" d="M 176.5 139 L 177 140.5 L 168.5 152 L 166.5 153 L 167.5 151 L 172 147.5 L 176.5 139 Z " /><path fill="rgb(0,0,0)" stroke="rgb(0,0,0)" stroke-width="1" opacity="0.28627450980392155" d="M 21.5 142 Q 24.6 149.9 31 154.5 L 24 148.5 L 21 143.5 L 21.5 142 Z " /><path fill="rgb(0,0,0)" stroke="rgb(0,0,0)" stroke-width="1" opacity="0.28627450980392155" d="M 162.5 154 L 165 158.5 L 163 157.5 L 162.5 154 Z " /><path fill="rgb(0,0,0)" stroke="rgb(0,0,0)" stroke-width="1" opacity="0.28627450980392155" d="M 32.5 155 L 35 156.5 L 33.5 157 L 32.5 155 Z " /><path fill="rgb(0,0,0)" stroke="rgb(0,0,0)" stroke-width="1" opacity="0.28627450980392155" d="M 38.5 158 L 42 159.5 L 40.5 160 L 38.5 158 Z " /><path fill="rgb(0,0,0)" stroke="rgb(0,0,0)" stroke-width="1" opacity="0.28627450980392155" d="M 40.5 163 L 40 164.5 L 38.5 168 L 38 166.5 L 40.5 163 Z " /><path fill="rgb(0,0,0)" stroke="rgb(0,0,0)" stroke-width="1" opacity="0.28627450980392155" d="M 168.5 166 L 170 169.5 L 169 169.5 L 168.5 166 Z " /><path fill="rgb(0,0,0)" stroke="rgb(0,0,0)" stroke-width="1" opacity="0.28627450980392155" d="M 35.5 173 L 36 174.5 L 34.5 177 L 34 175.5 L 35.5 173 Z " /><path fill="rgb(0,0,0)" stroke="rgb(0,0,0)" stroke-width="1" opacity="0.28627450980392155" d="M 33.5 178 L 34 180.5 L 33 180.5 L 33.5 178 Z " /><path fill="rgb(0,0,0)" stroke="rgb(0,0,0)" stroke-width="1" opacity="0.28627450980392155" d="M 30.5 190 L 31 192.5 L 30 192.5 L 30.5 190 Z " /><path fill="rgb(0,0,0)" stroke="rgb(0,0,0)" stroke-width="1" opacity="0.28627450980392155" d="M 29.5 195 L 30 197.5 L 29 197.5 L 29.5 195 Z " /><path fill="rgb(38,31,19)" stroke="rgb(38,31,19)" stroke-width="1" opacity="1" d="M 101.5 45 L 99.5 48 L 101.5 45 Z " /><path fill="rgb(38,31,19)" stroke="rgb(38,31,19)" stroke-width="1" opacity="1" d="M 72.5 50 L 76.5 55 L 72.5 50 Z " /><path fill="rgb(38,31,19)" stroke="rgb(38,31,19)" stroke-width="1" opacity="1" d="M 92.5 54 L 90.5 57 L 92.5 54 Z " /><path fill="rgb(38,31,19)" stroke="rgb(38,31,19)" stroke-width="1" opacity="1" d="M 116.5 56 L 117.5 58 L 116.5 56 Z " /><path fill="rgb(38,31,19)" stroke="rgb(38,31,19)" stroke-width="1" opacity="1" d="M 87.5 60 L 86.5 62 L 87.5 60 Z " /><path fill="rgb(38,31,19)" stroke="rgb(38,31,19)" stroke-width="1" opacity="1" d="M 144.5 64 L 145 66.5 L 144 66.5 L 144.5 64 Z " /><path fill="rgb(38,31,19)" stroke="rgb(38,31,19)" stroke-width="1" opacity="1" d="M 146.5 73 L 150 73.5 L 146.5 74 L 146.5 73 Z " /><path fill="rgb(38,31,19)" stroke="rgb(38,31,19)" stroke-width="1" opacity="1" d="M 67.5 74 L 70.5 78 L 67.5 74 Z " /><path fill="rgb(38,31,19)" stroke="rgb(38,31,19)" stroke-width="1" opacity="1" d="M 75.5 76 L 76.5 78 L 75.5 76 Z " /><path fill="rgb(38,31,19)" stroke="rgb(38,31,19)" stroke-width="1" opacity="1" d="M 156.5 76 L 157.5 78 L 156.5 76 Z " /><path fill="rgb(38,31,19)" stroke="rgb(38,31,19)" stroke-width="1" opacity="1" d="M 41.5 78 L 40.5 80 L 41.5 78 Z " /><path fill="rgb(38,31,19)" stroke="rgb(38,31,19)" stroke-width="1" opacity="1" d="M 126.5 81 L 124.5 84 L 126.5 81 Z " /><path fill="rgb(38,31,19)" stroke="rgb(38,31,19)" stroke-width="1" opacity="1" d="M 94.5 82 L 99 82.5 L 94.5 83 L 94.5 82 Z " /><path fill="rgb(38,31,19)" stroke="rgb(38,31,19)" stroke-width="1" opacity="1" d="M 91.5 87 L 102 87.5 L 91.5 88 L 91.5 87 Z " /><path fill="rgb(38,31,19)" stroke="rgb(38,31,19)" stroke-width="1" opacity="1" d="M 49.5 91 L 48.5 93 L 49.5 91 Z " /><path fill="rgb(38,31,19)" stroke="rgb(38,31,19)" stroke-width="1" opacity="1" d="M 137.5 93 L 136.5 95 L 137.5 93 Z " /><path fill="rgb(38,31,19)" stroke="rgb(38,31,19)" stroke-width="1" opacity="1" d="M 34.5 95 L 35 99.5 L 34 99.5 L 34.5 95 Z " /><path fill="rgb(38,31,19)" stroke="rgb(38,31,19)" stroke-width="1" opacity="1" d="M 83.5 113 L 87 113.5 L 83.5 114 L 83.5 113 Z " /><path fill="rgb(38,31,19)" stroke="rgb(38,31,19)" stroke-width="1" opacity="1" d="M 99.5 113 L 103 113.5 L 99.5 114 L 99.5 113 Z " /><path fill="rgb(38,31,19)" stroke="rgb(38,31,19)" stroke-width="1" opacity="1" d="M 168.5 116 L 169.5 118 L 168.5 116 Z " /><path fill="rgb(38,31,19)" stroke="rgb(38,31,19)" stroke-width="1" opacity="1" d="M 83.5 118 L 88 118.5 L 83.5 119 L 83.5 118 Z " /><path fill="rgb(38,31,19)" stroke="rgb(38,31,19)" stroke-width="1" opacity="1" d="M 99.5 118 L 103 118.5 L 99.5 119 L 99.5 118 Z " /><path fill="rgb(38,31,19)" stroke="rgb(38,31,19)" stroke-width="1" opacity="1" d="M 76.5 119 L 79 119.5 L 76.5 120 L 76.5 119 Z " /><path fill="rgb(38,31,19)" stroke="rgb(38,31,19)" stroke-width="1" opacity="1" d="M 108.5 119 L 111 119.5 L 108.5 120 L 108.5 119 Z " /><path fill="rgb(38,31,19)" stroke="rgb(38,31,19)" stroke-width="1" opacity="1" d="M 131.5 126 L 132.5 128 L 131.5 126 Z " /><path fill="rgb(38,31,19)" stroke="rgb(38,31,19)" stroke-width="1" opacity="1" d="M 59.5 127 L 60.5 129 L 59.5 127 Z " /><path fill="rgb(38,31,19)" stroke="rgb(38,31,19)" stroke-width="1" opacity="1" d="M 118.5 128 L 123 128.5 L 118.5 129 L 118.5 128 Z " /><path fill="rgb(38,31,19)" stroke="rgb(38,31,19)" stroke-width="1" opacity="1" d="M 63.5 129 L 69 129.5 L 63.5 130 L 63.5 129 Z " /><path fill="rgb(38,31,19)" stroke="rgb(38,31,19)" stroke-width="1" opacity="1" d="M 101.5 129 L 109 129.5 L 101.5 130 L 101.5 129 Z " /><path fill="rgb(38,31,19)" stroke="rgb(38,31,19)" stroke-width="1" opacity="1" d="M 55.5 130 L 58.5 134 L 55.5 130 Z " /><path fill="rgb(38,31,19)" stroke="rgb(38,31,19)" stroke-width="1" opacity="1" d="M 77.5 130 L 90 130.5 L 77.5 131 L 77.5 130 Z " /><path fill="rgb(38,31,19)" stroke="rgb(38,31,19)" stroke-width="1" opacity="1" d="M 134.5 132 L 137 132.5 L 134.5 133 L 134.5 132 Z " /><path fill="rgb(38,31,19)" stroke="rgb(38,31,19)" stroke-width="1" opacity="1" d="M 114.5 133 L 120 133.5 L 114.5 134 L 114.5 133 Z " /><path fill="rgb(38,31,19)" stroke="rgb(38,31,19)" stroke-width="1" opacity="1" d="M 66.5 134 L 70 134.5 L 66.5 135 L 66.5 134 Z " /><path fill="rgb(38,31,19)" stroke="rgb(38,31,19)" stroke-width="1" opacity="1" d="M 98.5 134 L 104 134.5 L 98.5 135 L 98.5 134 Z " /><path fill="rgb(38,31,19)" stroke="rgb(38,31,19)" stroke-width="1" opacity="1" d="M 168.5 143 L 164.5 148 L 168.5 143 Z " /><path fill="rgb(38,31,19)" stroke="rgb(38,31,19)" stroke-width="1" opacity="1" d="M 148.5 152 L 146.5 155 L 148.5 152 Z " /><path fill="rgb(38,31,19)" stroke="rgb(38,31,19)" stroke-width="1" opacity="1" d="M 156.5 156 L 157.5 158 L 156.5 156 Z " /><path fill="rgb(38,31,19)" stroke="rgb(38,31,19)" stroke-width="1" opacity="1" d="M 64.5 157 L 68 157.5 L 64.5 158 L 64.5 157 Z " /><path fill="rgb(38,31,19)" stroke="rgb(38,31,19)" stroke-width="1" opacity="1" d="M 159.5 161 L 160.5 163 L 159.5 161 Z " /><path fill="rgb(38,31,19)" stroke="rgb(38,31,19)" stroke-width="1" opacity="1" d="M 69.5 162 L 75 162.5 L 70.5 164 L 69.5 162 Z " /><path fill="rgb(38,31,19)" stroke="rgb(38,31,19)" stroke-width="1" opacity="1" d="M 76.5 162 L 79 162.5 L 76.5 163 L 76.5 162 Z " /><path fill="rgb(38,31,19)" stroke="rgb(38,31,19)" stroke-width="1" opacity="1" d="M 87.5 173 L 90 174.5 L 88.5 174 L 87.5 173 Z " /><path fill="rgb(38,31,19)" stroke="rgb(38,31,19)" stroke-width="1" opacity="1" d="M 117.5 178 L 120 178.5 L 117.5 179 L 117.5 178 Z " /><path fill="rgb(38,31,19)" stroke="rgb(38,31,19)" stroke-width="1" opacity="1" d="M 62.5 180 L 65 180.5 L 62.5 181 L 62.5 180 Z " /><path fill="rgb(38,31,19)" stroke="rgb(38,31,19)" stroke-width="1" opacity="1" d="M 44.5 181 L 56 181.5 L 44.5 182 L 44.5 181 Z " /><path fill="rgb(38,31,19)" stroke="rgb(38,31,19)" stroke-width="1" opacity="1" d="M 133.5 181 L 136 181.5 L 133.5 182 L 133.5 181 Z " /><path fill="rgb(38,31,19)" stroke="rgb(38,31,19)" stroke-width="1" opacity="1" d="M 168.5 181 L 169 183 L 167 182.5 L 168.5 181 Z " /><path fill="rgb(38,31,19)" stroke="rgb(38,31,19)" stroke-width="1" opacity="1" d="M 139.5 182 L 142 182.5 L 139.5 183 L 139.5 182 Z " /><path fill="rgb(38,31,19)" stroke="rgb(38,31,19)" stroke-width="1" opacity="1" d="M 147.5 183 L 162 183.5 L 147.5 184 L 147.5 183 Z " /><path fill="rgb(38,31,19)" stroke="rgb(38,31,19)" stroke-width="1" opacity="1" d="M 45.5 186 L 56 186.5 L 45.5 187 L 45.5 186 Z " /><path fill="rgb(38,31,19)" stroke="rgb(38,31,19)" stroke-width="1" opacity="1" d="M 147.5 188 L 152 188.5 L 147.5 189 L 147.5 188 Z " /><path fill="rgb(38,31,19)" stroke="rgb(38,31,19)" stroke-width="1" opacity="1" d="M 156.5 188 L 162 188.5 L 156.5 189 L 156.5 188 Z " /><path fill="rgb(225,240,207)" stroke="rgb(225,240,207)" stroke-width="1" opacity="1" d="M 103.5 45 L 104 49.5 L 103 52.5 L 104 56.5 Q 101 64 94.5 68 L 93 68.5 L 93.5 70 L 85 63.5 L 99.5 48 L 103.5 45 Z " /><path fill="rgb(225,240,207)" stroke="rgb(225,240,207)" stroke-width="1" opacity="1" d="M 70.5 50 L 80 58.5 L 77 75 L 67 67.5 L 68 56.5 L 70.5 50 Z " /><path fill="rgb(225,240,207)" stroke="rgb(225,240,207)" stroke-width="1" opacity="1" d="M 103.5 61 L 104.5 63 L 103.5 61 Z " /><path fill="rgb(225,240,207)" stroke="rgb(225,240,207)" stroke-width="1" opacity="1" d="M 107.5 64 L 110.5 68 L 107.5 64 Z " /><path fill="rgb(225,240,207)" stroke="rgb(225,240,207)" stroke-width="1" opacity="1" d="M 94.5 71 L 96.5 74 L 94.5 71 Z " /><path fill="rgb(225,240,207)" stroke="rgb(225,240,207)" stroke-width="1" opacity="1" d="M 107.5 73 L 106.5 75 L 107.5 73 Z " /><path fill="rgb(225,240,207)" stroke="rgb(225,240,207)" stroke-width="1" opacity="1" d="M 52.5 124 L 53 128.5 L 57.5 134 L 59.5 135 L 72.5 135 L 73.5 136 L 93.5 136 L 94.5 135 L 110.5 135 L 111.5 134 L 137.5 133 L 140 130.5 L 139 125.5 L 141.5 125 Q 158.3 129.7 169 140.5 L 163.5 147 L 146 152 Q 147.1 154.7 144.5 154 L 107.5 167 L 94.5 169 L 76 164.5 L 81 163 L 82 159.5 L 79.5 157 L 62.5 157 L 54.5 155 L 46.5 155 L 34.5 150 L 30 145.5 Q 26.4 143.6 27 137.5 Q 37.5 128.5 52.5 124 Z " /><path fill="rgb(225,240,207)" stroke="rgb(225,240,207)" stroke-width="1" opacity="1" d="M 95.5 179 L 112.5 184 L 117.5 184 L 144 189 L 145 200 L 54.5 200 L 54 197.5 L 56 194.5 Q 54.5 188.5 57.5 187 L 69.5 186 L 95.5 179 Z " /><path fill="rgb(1,1,0)" stroke="rgb(1,1,0)" stroke-width="1" opacity="0.996078431372549" d="M 104.5 38 L 108 40.5 L 123.5 58 L 139.5 50 L 147 49 L 149 59.5 L 149 67.5 L 150.5 69 Q 162.7 71.8 168 81.5 L 172 91.5 L 172 102.5 Q 169.4 105.4 170 111.5 Q 178.7 118.3 177 135.5 Q 174.6 145.6 167.5 151 L 161 154.5 L 170 171.5 L 180 199.5 L 175 200 L 171 187 L 168.5 188 L 152.5 189 L 151.5 188 L 142.5 188 L 124.5 184 L 119.5 184 L 105.5 181 L 98.5 178 L 94.5 178 L 90.5 180 L 61.5 186 L 37 186 L 35 193.5 L 35 198.5 L 33.5 200 Q 28.3 201.8 30 196.5 L 35 176.5 L 43 159 Q 31 156.8 25 147.5 Q 19.7 142.3 20 131.5 Q 23.3 118.3 31 109.5 L 31 105.5 L 30 104.5 L 30 91.5 Q 32.9 77.9 42.5 71 Q 49.1 65.7 61 67 Q 63.6 59.9 64 49.5 L 67.5 42 L 69.5 42 L 83.5 55 L 85.5 55 Q 93.2 44.7 104.5 38 Z M 104 44 L 102 45 L 86 62 L 84 61 Q 81 62 82 60 L 70 48 L 66 63 L 66 68 L 70 70 L 81 84 Q 86 86 88 83 L 105 83 L 117 86 L 120 82 Q 128 71 145 69 L 144 56 L 143 54 L 125 63 L 120 62 L 118 58 L 104 44 Z M 51 72 L 45 75 L 38 83 L 34 96 L 35 108 L 36 109 L 35 113 L 31 117 L 25 130 Q 24 140 28 145 Q 33 152 44 155 L 64 157 L 65 158 L 79 158 L 80 160 Q 81 164 77 162 L 75 162 L 69 163 L 76 166 L 94 170 L 102 170 L 109 168 L 145 156 L 150 152 L 165 148 Q 170 144 172 138 L 172 123 L 165 111 L 167 105 L 167 91 L 164 84 Q 159 76 150 73 L 140 74 L 134 76 L 127 81 L 120 91 L 102 87 L 92 87 L 84 89 L 78 89 L 71 78 L 65 72 L 51 72 Z M 154 156 L 147 160 L 101 175 L 113 178 L 123 179 L 140 183 L 147 183 L 148 184 L 162 184 L 163 183 L 169 183 Q 165 169 158 158 Q 157 155 154 156 Z M 49 161 L 40 176 L 39 181 L 45 182 L 65 181 L 90 175 L 89 173 L 77 171 L 55 162 L 49 161 Z " /><path fill="rgb(1,1,0)" stroke="rgb(1,1,0)" stroke-width="1" opacity="0.996078431372549" d="M 52.5 90 Q 59.9 91.1 63 96.5 L 64 101.5 L 63 104 L 56.5 105 L 49 100.5 L 48 93.5 L 52.5 90 Z " /><path fill="rgb(1,1,0)" stroke="rgb(1,1,0)" stroke-width="1" opacity="0.996078431372549" d="M 141.5 91 Q 147.9 90.6 150 94.5 L 150 99.5 L 145.5 104 L 136.5 105 Q 133.4 103.6 134 98.5 L 139.5 92 L 141.5 91 Z " /><path fill="rgb(1,1,0)" stroke="rgb(1,1,0)" stroke-width="1" opacity="0.996078431372549" d="M 87.5 113 L 98.5 113 L 99.5 114 L 108.5 114 L 118.5 116 L 133.5 122 L 139 126.5 Q 140 131 137.5 132 L 133.5 133 L 98.5 134 L 97.5 135 L 70.5 135 L 69.5 134 L 59.5 134 L 54 128.5 Q 53.2 122.7 56.5 121 L 68.5 116 L 78.5 114 L 86.5 114 L 87.5 113 Z M 84 118 L 62 123 Q 59 123 59 128 L 64 130 L 77 130 L 78 131 L 109 130 L 110 129 L 123 129 L 124 128 L 133 128 L 126 123 L 111 119 L 84 118 Z " /></svg>