<svg width="200" height="200" version="1.1" xmlns="http://www.w3.org/2000/svg" desc="Created with imagetracer.js version 1.2.6" ><path fill="rgb(0,0,0)" stroke="rgb(0,0,0)" stroke-width="1" opacity="0.07058823529411765" d="M 93.5 47 L 122.5 47 L 128 48.5 L 123.5 49 L 122.5 48 L 93.5 48 L 92.5 49 L 81.5 50 L 68.5 54 Q 58.2 58.2 52 66.5 L 49 72.5 L 47 83 L 28.5 85 L 28.5 84 L 45.5 82 L 47 80.5 L 48 72.5 L 55.5 61 Q 63 54.5 73.5 51 L 93.5 47 Z " /><path fill="rgb(0,0,0)" stroke="rgb(0,0,0)" stroke-width="1" opacity="0.07058823529411765" d="M 129.5 49 L 139 51.5 L 137.5 52 L 129.5 50 L 129.5 49 Z " /><path fill="rgb(0,0,0)" stroke="rgb(0,0,0)" stroke-width="1" opacity="0.07058823529411765" d="M 140.5 52 L 157.5 60 L 166 67.5 Q 174.4 76.6 179 89.5 L 180 102.5 L 181 103.5 L 181 114.5 L 178 127 L 172 128 Q 171.3 139.6 167 148.5 L 157.5 160 L 149.5 164 L 144 164.5 L 146 168.5 L 145 168.5 L 143 163 Q 156.2 163.2 162 154.5 Q 170.4 144 171 127 Q 176.5 128.3 178 124.5 L 180 114.5 L 180 103.5 L 179 102.5 L 178 89.5 L 173 78.5 L 159.5 63 L 146.5 55 L 140.5 53 L 140.5 52 Z " /><path fill="rgb(0,0,0)" stroke="rgb(0,0,0)" stroke-width="1" opacity="0.07058823529411765" d="M 23.5 85 L 27 85.5 L 19.5 87 L 14 91.5 L 13 95.5 L 16.5 101 L 26.5 106 L 45 109 L 45 116.5 L 43 125.5 L 35 133.5 L 33 140.5 Q 34.3 146.3 38.5 149 L 59.5 157 L 63 157 L 57.5 171 L 57 169.5 L 62 158.5 L 44.5 153 Q 37.8 150.8 34 145.5 L 32 138.5 Q 34.5 129.5 42 125.5 L 44 110 L 23.5 106 L 14 99.5 L 12 93.5 L 15.5 88 L 23.5 85 Z " /><path fill="rgb(0,0,0)" stroke="rgb(0,0,0)" stroke-width="1" opacity="0.07058823529411765" d="M 146.5 170 L 149 175.5 L 148 175.5 L 146.5 170 Z " /><path fill="rgb(0,0,0)" stroke="rgb(0,0,0)" stroke-width="1" opacity="0.07058823529411765" d="M 56.5 172 L 57 173.5 L 53.5 183 L 53 180.5 L 56.5 172 Z " /><path fill="rgb(0,0,0)" stroke="rgb(0,0,0)" stroke-width="1" opacity="0.07058823529411765" d="M 149.5 177 L 159 199.5 L 157 198.5 L 156 193.5 L 149 178.5 L 149.5 177 Z " /><path fill="rgb(0,0,0)" stroke="rgb(0,0,0)" stroke-width="1" opacity="0.07058823529411765" d="M 52.5 184 L 53 186.5 L 49.5 198 L 49 194.5 L 52.5 184 Z " /><path fill="rgb(0,0,0)" stroke="rgb(0,0,0)" stroke-width="1" opacity="0" d="M 0 0 L 200 0 L 200 200 L 159.5 200 L 158 198.5 L 153 183.5 L 144 164.5 Q 157.9 162.9 164 153.5 Q 171.1 143.3 172 128 L 178 127 L 181 114.5 L 181 103.5 L 178 86.5 Q 172.2 73.3 162.5 64 Q 150.2 53.8 132.5 49 L 122.5 47 L 93.5 47 L 73.5 51 Q 61.9 54.9 54 62.5 L 48 72.5 L 47 80.5 L 45.5 82 L 23.5 85 L 14 89.5 L 12 95.5 L 17.5 103 L 26.5 107 L 44 110 L 42 125.5 L 34 133.5 L 32 140.5 Q 33.5 147 38.5 150 L 62 158.5 L 55 174.5 L 50 190.5 L 49 198.5 L 47.5 200 L 0.5 200 L 0 199.5 L 0 0 Z " /><path fill="rgb(221,101,52)" stroke="rgb(221,101,52)" stroke-width="1" opacity="1" d="M 96.5 54 L 121.5 54 L 131.5 56 L 143 60.5 L 141.5 61 L 133.5 58 L 122.5 56 L 106.5 56 L 93.5 59 Q 85.5 61.5 81 67.5 L 76 79.5 L 76 89.5 L 82.5 97 L 97 104 L 96.5 107 L 79.5 107 L 72.5 105 L 65.5 105 L 42.5 101 L 28.5 97 L 22 93.5 L 34.5 90 L 50.5 89 L 52 87.5 L 55 74.5 L 60.5 66 L 72.5 59 L 82.5 56 L 95.5 55 L 96.5 54 Z " /><path fill="rgb(221,101,52)" stroke="rgb(221,101,52)" stroke-width="1" opacity="1" d="M 65 168 L 76 170 L 81 183.5 L 83.5 186 Q 90.2 188.3 100.5 187 L 111.5 178 L 147 187 L 149 192.5 L 140.5 200 L 61 200 L 57 192.5 L 65 168 Z " /><path fill="rgb(175,69,33)" stroke="rgb(175,69,33)" stroke-width="1" opacity="1" d="M 103.5 53 L 111 53.5 L 103.5 54 L 103.5 53 Z " /><path fill="rgb(175,69,33)" stroke="rgb(175,69,33)" stroke-width="1" opacity="1" d="M 132.5 59 L 136 59.5 L 132.5 60 L 132.5 59 Z " /><path fill="rgb(175,69,33)" stroke="rgb(175,69,33)" stroke-width="1" opacity="1" d="M 145.5 61 Q 156 66 163 74.5 Q 169.8 82.2 173 93.5 L 174 116.5 L 173 121 L 143 118.5 L 153.5 118 L 154.5 119 L 165.5 119 L 172 120 L 173 116.5 L 173 100.5 L 170 87.5 L 165.5 80 Q 162.9 80.8 164 77.5 L 156.5 69 L 145 63 L 145.5 61 Z " /><path fill="rgb(175,69,33)" stroke="rgb(175,69,33)" stroke-width="1" opacity="1" d="M 83.5 66 L 84 68 L 82 67.5 L 83.5 66 Z " /><path fill="rgb(175,69,33)" stroke="rgb(175,69,33)" stroke-width="1" opacity="1" d="M 36.5 89 L 39 89.5 L 36.5 90 L 36.5 89 Z " /><path fill="rgb(175,69,33)" stroke="rgb(175,69,33)" stroke-width="1" opacity="1" d="M 22.5 92 L 22 93.5 Q 21.3 95.8 23.5 95 L 23.5 96 L 22 96.5 L 26.5 99 L 39 101.5 L 35.5 102 L 26.5 100 L 19 94.5 L 22.5 92 Z " /><path fill="rgb(175,69,33)" stroke="rgb(175,69,33)" stroke-width="1" opacity="1" d="M 40 101 L 45 102.5 L 40 103 L 40 101 Z " /><path fill="rgb(175,69,33)" stroke="rgb(175,69,33)" stroke-width="1" opacity="1" d="M 46.5 103 L 59.5 106 L 64 105 L 64.5 107 L 71.5 107 L 99.5 112 L 105.5 112 L 107 113.5 L 104.5 114 L 85.5 110 L 58.5 107 L 46.5 104 L 46.5 103 Z " /><path fill="rgb(175,69,33)" stroke="rgb(175,69,33)" stroke-width="1" opacity="1" d="M 112 112 L 116 112 Q 114.8 115 118.5 114 L 119.5 115 L 127.5 115 L 142 117.5 L 134.5 118 L 133.5 117 L 111 114.5 L 112 112 Z " /><path fill="rgb(175,69,33)" stroke="rgb(175,69,33)" stroke-width="1" opacity="1" d="M 69.5 159 L 72 159.5 L 69 160 L 66.5 167 L 66 164.5 L 69.5 159 Z " /><path fill="rgb(175,69,33)" stroke="rgb(175,69,33)" stroke-width="1" opacity="1" d="M 126.5 164 L 130 164.5 L 126.5 165 L 126.5 164 Z " /><path fill="rgb(175,69,33)" stroke="rgb(175,69,33)" stroke-width="1" opacity="1" d="M 136.5 164 L 143 178.5 L 142 178.5 L 136 165.5 L 136.5 164 Z " /><path fill="rgb(175,69,33)" stroke="rgb(175,69,33)" stroke-width="1" opacity="1" d="M 143.5 180 L 147 186.5 L 145 185.5 L 143.5 180 Z " /><path fill="rgb(177,70,34)" stroke="rgb(177,70,34)" stroke-width="1" opacity="1" d="M 92.5 54 L 96 54.5 L 92.5 55 L 92.5 54 Z " /><path fill="rgb(177,70,34)" stroke="rgb(177,70,34)" stroke-width="1" opacity="1" d="M 106.5 56 L 122.5 56 L 134 58.5 L 132 59.5 L 135.5 60 L 137.5 60 L 145 61 Q 143.9 63.7 146.5 63 Q 156.1 66.9 162 74.5 L 164 80 L 167 81.5 L 172 93.5 L 173 116.5 L 172 120 L 165.5 119 L 154.5 119 L 153.5 118 L 142.5 118 L 141.5 117 L 119.5 115 L 116 114 Q 117.2 110.3 112 112 Q 113.3 115.7 107.5 114 L 105.5 112 L 64 107 Q 65.3 103.7 60.5 105 L 58.5 106 L 40.5 101 L 38.5 101 L 26.5 99 L 22 96.5 L 24 95.5 L 22 94.5 L 23.5 94 L 34.5 99 L 52.5 103 L 72.5 105 L 79.5 107 L 97 107 Q 98.5 103.2 95.5 104 L 82.5 97 L 77 91.5 Q 74.3 87.7 76 79.5 Q 78.1 68.6 85.5 63 L 93.5 59 L 106.5 56 Z M 84 66 L 82 68 L 84 68 L 84 66 Z " /><path fill="rgb(177,70,34)" stroke="rgb(177,70,34)" stroke-width="1" opacity="1" d="M 51.5 87 L 50.5 89 L 51.5 87 Z " /><path fill="rgb(177,70,34)" stroke="rgb(177,70,34)" stroke-width="1" opacity="1" d="M 39.5 89 L 42 89.5 L 39.5 90 L 39.5 89 Z " /><path fill="rgb(177,70,34)" stroke="rgb(177,70,34)" stroke-width="1" opacity="1" d="M 69 160 Q 72.7 158.5 72 161.5 L 75 170 L 65 167.5 L 67 167 L 69 160 Z " /><path fill="rgb(177,70,34)" stroke="rgb(177,70,34)" stroke-width="1" opacity="1" d="M 130.5 164 Q 136.6 162.8 136 165.5 L 146 186.5 L 144.5 187 L 112 179 L 117.5 172 L 125.5 165 L 130.5 164 Z " /><path fill="rgb(200,155,124)" stroke="rgb(200,155,124)" stroke-width="1" opacity="1" d="M 52.5 112 L 69 115.5 L 63 119.5 L 62 125.5 Q 66.1 131.9 76.5 132 L 81 130 Q 82.6 119.8 75.5 117 L 74 116.5 L 79.5 116 L 80.5 117 L 86.5 117 L 99.5 120 L 127.5 123 L 128.5 124 L 165 127 L 161 143.5 L 152.5 155 L 142.5 158 L 109.5 158 L 108.5 157 L 97.5 157 L 96.5 156 L 82.5 155 L 59.5 151 L 45.5 146 L 40 142.5 L 39 138.5 L 43.5 133 L 47 130.5 Q 46.3 127.9 49 129 L 49 126.5 L 50 125.5 L 51 114.5 L 52.5 112 Z M 118 124 L 115 126 Q 110 127 111 134 Q 114 138 120 139 L 125 139 L 131 137 L 132 135 L 131 129 Q 128 122 118 124 Z " /><path fill="rgb(200,155,124)" stroke="rgb(200,155,124)" stroke-width="1" opacity="1" d="M 72 159 L 82 161 Q 83.4 171.4 90.5 177 L 93.5 178 Q 102.3 173.8 108 166.5 L 109.5 164 L 124.5 164 L 125 165.5 L 100.5 187 L 87.5 187 L 83.5 186 L 81 183.5 L 72 159 Z " /><path fill="rgb(200,155,124)" stroke="rgb(200,155,124)" stroke-width="1" opacity="1" d="M 56 193 Q 58.7 191.9 58 194.5 L 61 200 L 55 200 L 55 197.5 L 56 193 Z " /><path fill="rgb(200,155,124)" stroke="rgb(200,155,124)" stroke-width="1" opacity="1" d="M 147.5 193 Q 151.3 191.8 150 195.5 L 152 199.5 L 141.5 200 L 147.5 193 Z " /><path fill="rgb(13,7,4)" stroke="rgb(13,7,4)" stroke-width="1" opacity="1" d="M 91.5 53 L 97 53.5 L 91.5 54 L 91.5 53 Z " /><path fill="rgb(13,7,4)" stroke="rgb(13,7,4)" stroke-width="1" opacity="1" d="M 121.5 53 L 125 53.5 L 121.5 54 L 121.5 53 Z " /><path fill="rgb(13,7,4)" stroke="rgb(13,7,4)" stroke-width="1" opacity="1" d="M 84.5 54 L 88 54.5 L 84.5 55 L 84.5 54 Z " /><path fill="rgb(13,7,4)" stroke="rgb(13,7,4)" stroke-width="1" opacity="1" d="M 127.5 54 L 131 54.5 L 127.5 55 L 127.5 54 Z " /><path fill="rgb(13,7,4)" stroke="rgb(13,7,4)" stroke-width="1" opacity="1" d="M 63.5 62 L 62.5 64 L 63.5 62 Z " /><path fill="rgb(13,7,4)" stroke="rgb(13,7,4)" stroke-width="1" opacity="1" d="M 149.5 62 L 153 64.5 L 151.5 64 L 149.5 62 Z " /><path fill="rgb(13,7,4)" stroke="rgb(13,7,4)" stroke-width="1" opacity="1" d="M 59.5 65 L 57.5 68 L 59.5 65 Z " /><path fill="rgb(13,7,4)" stroke="rgb(13,7,4)" stroke-width="1" opacity="1" d="M 154.5 65 L 156.5 68 L 154.5 65 Z " /><path fill="rgb(13,7,4)" stroke="rgb(13,7,4)" stroke-width="1" opacity="1" d="M 158.5 68 L 162.5 73 L 158.5 68 Z " /><path fill="rgb(13,7,4)" stroke="rgb(13,7,4)" stroke-width="1" opacity="1" d="M 55.5 71 L 55 72.5 L 54.5 74 L 54 72.5 L 55.5 71 Z " /><path fill="rgb(13,7,4)" stroke="rgb(13,7,4)" stroke-width="1" opacity="1" d="M 163.5 74 L 165.5 77 L 163.5 74 Z " /><path fill="rgb(13,7,4)" stroke="rgb(13,7,4)" stroke-width="1" opacity="1" d="M 166.5 78 L 167.5 80 L 166.5 78 Z " /><path fill="rgb(13,7,4)" stroke="rgb(13,7,4)" stroke-width="1" opacity="1" d="M 169.5 83 L 172 87.5 L 171 87.5 L 169.5 83 Z " /><path fill="rgb(13,7,4)" stroke="rgb(13,7,4)" stroke-width="1" opacity="1" d="M 51.5 84 L 52 85.5 L 49 87.5 L 51.5 84 Z " /><path fill="rgb(13,7,4)" stroke="rgb(13,7,4)" stroke-width="1" opacity="1" d="M 36.5 88 L 43 88.5 L 36.5 89 L 36.5 88 Z " /><path fill="rgb(13,7,4)" stroke="rgb(13,7,4)" stroke-width="1" opacity="1" d="M 31.5 89 L 34 89.5 L 31.5 90 L 31.5 89 Z " /><path fill="rgb(13,7,4)" stroke="rgb(13,7,4)" stroke-width="1" opacity="1" d="M 26.5 90 L 29 90.5 L 26.5 91 L 26.5 90 Z " /><path fill="rgb(13,7,4)" stroke="rgb(13,7,4)" stroke-width="1" opacity="1" d="M 173.5 93 L 174 95.5 L 173 95.5 L 173.5 93 Z " /><path fill="rgb(13,7,4)" stroke="rgb(13,7,4)" stroke-width="1" opacity="1" d="M 19.5 96 L 25 99.5 L 23.5 100 L 19.5 96 Z " /><path fill="rgb(13,7,4)" stroke="rgb(13,7,4)" stroke-width="1" opacity="1" d="M 30.5 101 L 33 101.5 L 30.5 102 L 30.5 101 Z " /><path fill="rgb(13,7,4)" stroke="rgb(13,7,4)" stroke-width="1" opacity="1" d="M 174.5 101 L 175 117.5 L 174 117.5 L 174.5 101 Z " /><path fill="rgb(13,7,4)" stroke="rgb(13,7,4)" stroke-width="1" opacity="1" d="M 34.5 102 L 38 102.5 L 34.5 103 L 34.5 102 Z " /><path fill="rgb(13,7,4)" stroke="rgb(13,7,4)" stroke-width="1" opacity="1" d="M 39.5 103 L 43 103.5 L 39.5 104 L 39.5 103 Z " /><path fill="rgb(13,7,4)" stroke="rgb(13,7,4)" stroke-width="1" opacity="1" d="M 45.5 104 L 48 104.5 L 45.5 105 L 45.5 104 Z " /><path fill="rgb(13,7,4)" stroke="rgb(13,7,4)" stroke-width="1" opacity="1" d="M 52.5 106 L 56 106.5 L 52.5 107 L 52.5 106 Z " /><path fill="rgb(13,7,4)" stroke="rgb(13,7,4)" stroke-width="1" opacity="1" d="M 57.5 107 L 61 107.5 L 57.5 108 L 57.5 107 Z " /><path fill="rgb(13,7,4)" stroke="rgb(13,7,4)" stroke-width="1" opacity="1" d="M 64.5 108 L 68 108.5 L 64.5 109 L 64.5 108 Z " /><path fill="rgb(13,7,4)" stroke="rgb(13,7,4)" stroke-width="1" opacity="1" d="M 72.5 109 L 76 109.5 L 72.5 110 L 72.5 109 Z " /><path fill="rgb(13,7,4)" stroke="rgb(13,7,4)" stroke-width="1" opacity="1" d="M 50 110 L 53 110.5 L 50.5 112 L 50 110 Z " /><path fill="rgb(13,7,4)" stroke="rgb(13,7,4)" stroke-width="1" opacity="1" d="M 78.5 110 L 83 110.5 L 78.5 111 L 78.5 110 Z " /><path fill="rgb(13,7,4)" stroke="rgb(13,7,4)" stroke-width="1" opacity="1" d="M 55.5 111 L 58 111.5 L 55.5 112 L 55.5 111 Z " /><path fill="rgb(13,7,4)" stroke="rgb(13,7,4)" stroke-width="1" opacity="1" d="M 86.5 111 L 89 111.5 L 86.5 112 L 86.5 111 Z " /><path fill="rgb(13,7,4)" stroke="rgb(13,7,4)" stroke-width="1" opacity="1" d="M 61.5 112 L 65 112.5 L 61.5 113 L 61.5 112 Z " /><path fill="rgb(13,7,4)" stroke="rgb(13,7,4)" stroke-width="1" opacity="1" d="M 92.5 112 L 95 112.5 L 92.5 113 L 92.5 112 Z " /><path fill="rgb(13,7,4)" stroke="rgb(13,7,4)" stroke-width="1" opacity="1" d="M 68.5 113 L 73 113.5 L 68.5 114 L 68.5 113 Z " /><path fill="rgb(13,7,4)" stroke="rgb(13,7,4)" stroke-width="1" opacity="1" d="M 98.5 113 L 102 113.5 L 98.5 114 L 98.5 113 Z " /><path fill="rgb(13,7,4)" stroke="rgb(13,7,4)" stroke-width="1" opacity="1" d="M 76.5 114 L 80 114.5 L 76.5 115 L 76.5 114 Z " /><path fill="rgb(13,7,4)" stroke="rgb(13,7,4)" stroke-width="1" opacity="1" d="M 105.5 114 L 109 114.5 L 105.5 115 L 105.5 114 Z " /><path fill="rgb(13,7,4)" stroke="rgb(13,7,4)" stroke-width="1" opacity="1" d="M 49.5 115 L 50 117.5 L 49 117.5 L 49.5 115 Z " /><path fill="rgb(13,7,4)" stroke="rgb(13,7,4)" stroke-width="1" opacity="1" d="M 83.5 115 L 87 115.5 L 83.5 116 L 83.5 115 Z " /><path fill="rgb(13,7,4)" stroke="rgb(13,7,4)" stroke-width="1" opacity="1" d="M 112.5 115 L 116 115.5 L 112.5 116 L 112.5 115 Z " /><path fill="rgb(13,7,4)" stroke="rgb(13,7,4)" stroke-width="1" opacity="1" d="M 90.5 116 L 93 116.5 L 90.5 117 L 90.5 116 Z " /><path fill="rgb(13,7,4)" stroke="rgb(13,7,4)" stroke-width="1" opacity="1" d="M 119.5 116 L 123 116.5 L 119.5 117 L 119.5 116 Z " /><path fill="rgb(13,7,4)" stroke="rgb(13,7,4)" stroke-width="1" opacity="1" d="M 127.5 117 L 131 117.5 L 127.5 118 L 127.5 117 Z " /><path fill="rgb(13,7,4)" stroke="rgb(13,7,4)" stroke-width="1" opacity="1" d="M 102.5 118 L 106 118.5 L 102.5 119 L 102.5 118 Z " /><path fill="rgb(13,7,4)" stroke="rgb(13,7,4)" stroke-width="1" opacity="1" d="M 134.5 118 L 139 118.5 L 134.5 119 L 134.5 118 Z " /><path fill="rgb(13,7,4)" stroke="rgb(13,7,4)" stroke-width="1" opacity="1" d="M 109.5 119 L 113 119.5 L 109.5 120 L 109.5 119 Z " /><path fill="rgb(13,7,4)" stroke="rgb(13,7,4)" stroke-width="1" opacity="1" d="M 142.5 119 L 148 119.5 L 142.5 120 L 142.5 119 Z " /><path fill="rgb(13,7,4)" stroke="rgb(13,7,4)" stroke-width="1" opacity="1" d="M 116.5 120 L 121 120.5 L 116.5 121 L 116.5 120 Z " /><path fill="rgb(13,7,4)" stroke="rgb(13,7,4)" stroke-width="1" opacity="1" d="M 152.5 120 L 160 120.5 L 152.5 121 L 152.5 120 Z " /><path fill="rgb(13,7,4)" stroke="rgb(13,7,4)" stroke-width="1" opacity="1" d="M 48.5 121 L 49 123.5 L 48 123.5 L 48.5 121 Z " /><path fill="rgb(13,7,4)" stroke="rgb(13,7,4)" stroke-width="1" opacity="1" d="M 124.5 121 L 129 121.5 L 124.5 122 L 124.5 121 Z " /><path fill="rgb(13,7,4)" stroke="rgb(13,7,4)" stroke-width="1" opacity="1" d="M 166.5 121 L 171 121.5 L 166.5 122 L 166.5 121 Z " /><path fill="rgb(13,7,4)" stroke="rgb(13,7,4)" stroke-width="1" opacity="1" d="M 131.5 122 L 136 122.5 L 131.5 123 L 131.5 122 Z " /><path fill="rgb(13,7,4)" stroke="rgb(13,7,4)" stroke-width="1" opacity="1" d="M 139.5 123 L 143 123.5 L 139.5 124 L 139.5 123 Z " /><path fill="rgb(13,7,4)" stroke="rgb(13,7,4)" stroke-width="1" opacity="1" d="M 148.5 124 L 153 124.5 L 148.5 125 L 148.5 124 Z " /><path fill="rgb(13,7,4)" stroke="rgb(13,7,4)" stroke-width="1" opacity="1" d="M 160.5 125 Q 165.8 123.8 167 126.5 L 166.5 130 L 166 126 L 160.5 126 L 160.5 125 Z " /><path fill="rgb(13,7,4)" stroke="rgb(13,7,4)" stroke-width="1" opacity="1" d="M 45.5 130 L 44.5 132 L 45.5 130 Z " /><path fill="rgb(13,7,4)" stroke="rgb(13,7,4)" stroke-width="1" opacity="1" d="M 39.5 136 L 39 137.5 L 38.5 142 L 38 137.5 L 39.5 136 Z " /><path fill="rgb(13,7,4)" stroke="rgb(13,7,4)" stroke-width="1" opacity="1" d="M 41.5 144 L 42.5 146 L 41.5 144 Z " /><path fill="rgb(13,7,4)" stroke="rgb(13,7,4)" stroke-width="1" opacity="1" d="M 159.5 149 L 157.5 152 L 159.5 149 Z " /><path fill="rgb(13,7,4)" stroke="rgb(13,7,4)" stroke-width="1" opacity="1" d="M 63.5 152 L 66 152.5 L 63.5 153 L 63.5 152 Z " /><path fill="rgb(13,7,4)" stroke="rgb(13,7,4)" stroke-width="1" opacity="1" d="M 68.5 153 L 71 153.5 L 68.5 154 L 68.5 153 Z " /><path fill="rgb(13,7,4)" stroke="rgb(13,7,4)" stroke-width="1" opacity="1" d="M 74.5 154 L 77 154.5 L 74.5 155 L 74.5 154 Z " /><path fill="rgb(13,7,4)" stroke="rgb(13,7,4)" stroke-width="1" opacity="1" d="M 89.5 156 L 92 156.5 L 89.5 157 L 89.5 156 Z " /><path fill="rgb(13,7,4)" stroke="rgb(13,7,4)" stroke-width="1" opacity="1" d="M 96.5 157 L 102 157.5 L 96.5 158 L 96.5 157 Z " /><path fill="rgb(13,7,4)" stroke="rgb(13,7,4)" stroke-width="1" opacity="1" d="M 68.5 158 L 68 159.5 L 66.5 163 L 66 161.5 L 68.5 158 Z " /><path fill="rgb(13,7,4)" stroke="rgb(13,7,4)" stroke-width="1" opacity="1" d="M 71.5 158 L 76 158.5 L 71.5 159 L 71.5 158 Z " /><path fill="rgb(13,7,4)" stroke="rgb(13,7,4)" stroke-width="1" opacity="1" d="M 107.5 158 L 116 158.5 L 107.5 159 L 107.5 158 Z " /><path fill="rgb(13,7,4)" stroke="rgb(13,7,4)" stroke-width="1" opacity="1" d="M 133.5 158 L 143 158.5 L 133.5 159 L 133.5 158 Z " /><path fill="rgb(13,7,4)" stroke="rgb(13,7,4)" stroke-width="1" opacity="1" d="M 87 160 L 89 160.5 L 87.5 163 L 87 160 Z " /><path fill="rgb(13,7,4)" stroke="rgb(13,7,4)" stroke-width="1" opacity="1" d="M 93.5 161 L 98 161.5 L 93.5 162 L 93.5 161 Z " /><path fill="rgb(13,7,4)" stroke="rgb(13,7,4)" stroke-width="1" opacity="1" d="M 108.5 163 L 107.5 165 L 108.5 163 Z " /><path fill="rgb(13,7,4)" stroke="rgb(13,7,4)" stroke-width="1" opacity="1" d="M 102.5 164 L 99.5 168 L 102.5 164 Z " /><path fill="rgb(13,7,4)" stroke="rgb(13,7,4)" stroke-width="1" opacity="1" d="M 138.5 165 L 140 168.5 L 139 168.5 L 138.5 165 Z " /><path fill="rgb(13,7,4)" stroke="rgb(13,7,4)" stroke-width="1" opacity="1" d="M 64.5 166 L 65 167.5 L 63.5 170 L 63 168.5 L 64.5 166 Z " /><path fill="rgb(13,7,4)" stroke="rgb(13,7,4)" stroke-width="1" opacity="1" d="M 106.5 166 L 102.5 171 L 106.5 166 Z " /><path fill="rgb(13,7,4)" stroke="rgb(13,7,4)" stroke-width="1" opacity="1" d="M 96.5 169 L 95.5 171 L 96.5 169 Z " /><path fill="rgb(13,7,4)" stroke="rgb(13,7,4)" stroke-width="1" opacity="1" d="M 86.5 170 L 87.5 172 L 86.5 170 Z " /><path fill="rgb(13,7,4)" stroke="rgb(13,7,4)" stroke-width="1" opacity="1" d="M 91.5 170 L 94 171.5 L 92.5 172 L 91.5 170 Z " /><path fill="rgb(13,7,4)" stroke="rgb(13,7,4)" stroke-width="1" opacity="1" d="M 99.5 172 L 97.5 175 L 99.5 172 Z " /><path fill="rgb(13,7,4)" stroke="rgb(13,7,4)" stroke-width="1" opacity="1" d="M 141.5 172 L 143 175.5 L 142 175.5 L 141.5 172 Z " /><path fill="rgb(13,7,4)" stroke="rgb(13,7,4)" stroke-width="1" opacity="1" d="M 88.5 173 Q 89.2 176.8 94.5 176 L 96 175.5 Q 95.3 177.8 91.5 177 L 88.5 173 Z " /><path fill="rgb(13,7,4)" stroke="rgb(13,7,4)" stroke-width="1" opacity="1" d="M 145.5 181 L 147 184.5 L 146 184.5 L 145.5 181 Z " /><path fill="rgb(13,7,4)" stroke="rgb(13,7,4)" stroke-width="1" opacity="1" d="M 148.5 188 L 150 191.5 L 149 191.5 L 148.5 188 Z " /><path fill="rgb(64,35,22)" stroke="rgb(64,35,22)" stroke-width="1" opacity="1" d="M 97.5 53 L 103 53.5 L 97.5 54 L 97.5 53 Z " /><path fill="rgb(64,35,22)" stroke="rgb(64,35,22)" stroke-width="1" opacity="1" d="M 111.5 53 L 121 53.5 L 111.5 54 L 111.5 53 Z " /><path fill="rgb(64,35,22)" stroke="rgb(64,35,22)" stroke-width="1" opacity="1" d="M 146.5 61 L 150 63.5 L 148.5 63 L 146.5 61 Z " /><path fill="rgb(64,35,22)" stroke="rgb(64,35,22)" stroke-width="1" opacity="1" d="M 64.5 62 L 63.5 64 L 64.5 62 Z " /><path fill="rgb(64,35,22)" stroke="rgb(64,35,22)" stroke-width="1" opacity="1" d="M 61.5 64 L 57.5 69 L 61.5 64 Z " /><path fill="rgb(64,35,22)" stroke="rgb(64,35,22)" stroke-width="1" opacity="1" d="M 153.5 65 L 155.5 68 L 153.5 65 Z " /><path fill="rgb(64,35,22)" stroke="rgb(64,35,22)" stroke-width="1" opacity="1" d="M 157.5 68 L 162.5 74 L 157.5 68 Z " /><path fill="rgb(64,35,22)" stroke="rgb(64,35,22)" stroke-width="1" opacity="1" d="M 163.5 75 L 165.5 78 L 163.5 75 Z " /><path fill="rgb(64,35,22)" stroke="rgb(64,35,22)" stroke-width="1" opacity="1" d="M 53.5 77 L 54 79.5 L 53 79.5 L 53.5 77 Z " /><path fill="rgb(64,35,22)" stroke="rgb(64,35,22)" stroke-width="1" opacity="1" d="M 166.5 79 L 167.5 81 L 166.5 79 Z " /><path fill="rgb(64,35,22)" stroke="rgb(64,35,22)" stroke-width="1" opacity="1" d="M 51.5 86 L 50.5 88 L 51.5 86 Z " /><path fill="rgb(64,35,22)" stroke="rgb(64,35,22)" stroke-width="1" opacity="1" d="M 43.5 88 L 49 88.5 L 43.5 89 L 43.5 88 Z " /><path fill="rgb(64,35,22)" stroke="rgb(64,35,22)" stroke-width="1" opacity="1" d="M 19.5 95 L 21.5 98 L 19.5 95 Z " /><path fill="rgb(64,35,22)" stroke="rgb(64,35,22)" stroke-width="1" opacity="1" d="M 173.5 96 L 174 99.5 L 173 99.5 L 173.5 96 Z " /><path fill="rgb(64,35,22)" stroke="rgb(64,35,22)" stroke-width="1" opacity="1" d="M 43.5 103 L 46 103.5 L 43.5 104 L 43.5 103 Z " /><path fill="rgb(64,35,22)" stroke="rgb(64,35,22)" stroke-width="1" opacity="1" d="M 61.5 107 L 64 107.5 L 61.5 108 L 61.5 107 Z " /><path fill="rgb(64,35,22)" stroke="rgb(64,35,22)" stroke-width="1" opacity="1" d="M 68.5 108 L 72 108.5 L 68.5 109 L 68.5 108 Z " /><path fill="rgb(64,35,22)" stroke="rgb(64,35,22)" stroke-width="1" opacity="1" d="M 76.5 109 L 79 109.5 L 76.5 110 L 76.5 109 Z " /><path fill="rgb(64,35,22)" stroke="rgb(64,35,22)" stroke-width="1" opacity="1" d="M 83.5 110 L 86 110.5 L 83.5 111 L 83.5 110 Z " /><path fill="rgb(64,35,22)" stroke="rgb(64,35,22)" stroke-width="1" opacity="1" d="M 89.5 111 L 92 111.5 L 89.5 112 L 89.5 111 Z " /><path fill="rgb(64,35,22)" stroke="rgb(64,35,22)" stroke-width="1" opacity="1" d="M 50.5 112 L 51 114.5 L 50 114.5 L 50.5 112 Z " /><path fill="rgb(64,35,22)" stroke="rgb(64,35,22)" stroke-width="1" opacity="1" d="M 95.5 112 L 98 112.5 L 95.5 113 L 95.5 112 Z " /><path fill="rgb(64,35,22)" stroke="rgb(64,35,22)" stroke-width="1" opacity="1" d="M 65.5 113 L 68 113.5 L 65.5 114 L 65.5 113 Z " /><path fill="rgb(64,35,22)" stroke="rgb(64,35,22)" stroke-width="1" opacity="1" d="M 73.5 114 L 76 114.5 L 73.5 115 L 73.5 114 Z " /><path fill="rgb(64,35,22)" stroke="rgb(64,35,22)" stroke-width="1" opacity="1" d="M 80.5 115 L 83 115.5 L 80.5 116 L 80.5 115 Z " /><path fill="rgb(64,35,22)" stroke="rgb(64,35,22)" stroke-width="1" opacity="1" d="M 116.5 115 L 119 115.5 L 116.5 116 L 116.5 115 Z " /><path fill="rgb(64,35,22)" stroke="rgb(64,35,22)" stroke-width="1" opacity="1" d="M 87.5 116 L 90 116.5 L 87.5 117 L 87.5 116 Z " /><path fill="rgb(64,35,22)" stroke="rgb(64,35,22)" stroke-width="1" opacity="1" d="M 123.5 116 L 127 116.5 L 123.5 117 L 123.5 116 Z " /><path fill="rgb(64,35,22)" stroke="rgb(64,35,22)" stroke-width="1" opacity="1" d="M 93.5 117 L 96 117.5 L 93.5 118 L 93.5 117 Z " /><path fill="rgb(64,35,22)" stroke="rgb(64,35,22)" stroke-width="1" opacity="1" d="M 131.5 117 L 134 117.5 L 131.5 118 L 131.5 117 Z " /><path fill="rgb(64,35,22)" stroke="rgb(64,35,22)" stroke-width="1" opacity="1" d="M 99.5 118 L 102 118.5 L 99.5 119 L 99.5 118 Z " /><path fill="rgb(64,35,22)" stroke="rgb(64,35,22)" stroke-width="1" opacity="1" d="M 139.5 118 L 143 118.5 L 139.5 119 L 139.5 118 Z " /><path fill="rgb(64,35,22)" stroke="rgb(64,35,22)" stroke-width="1" opacity="1" d="M 106.5 119 L 109 119.5 L 106.5 120 L 106.5 119 Z " /><path fill="rgb(64,35,22)" stroke="rgb(64,35,22)" stroke-width="1" opacity="1" d="M 148.5 119 L 153 119.5 L 148.5 120 L 148.5 119 Z " /><path fill="rgb(64,35,22)" stroke="rgb(64,35,22)" stroke-width="1" opacity="1" d="M 160.5 120 L 165 120.5 L 160.5 121 L 160.5 120 Z " /><path fill="rgb(64,35,22)" stroke="rgb(64,35,22)" stroke-width="1" opacity="1" d="M 121.5 121 L 124 121.5 L 121.5 122 L 121.5 121 Z " /><path fill="rgb(64,35,22)" stroke="rgb(64,35,22)" stroke-width="1" opacity="1" d="M 128.5 122 L 131 122.5 L 128.5 123 L 128.5 122 Z " /><path fill="rgb(64,35,22)" stroke="rgb(64,35,22)" stroke-width="1" opacity="1" d="M 136.5 123 L 139 123.5 L 136.5 124 L 136.5 123 Z " /><path fill="rgb(64,35,22)" stroke="rgb(64,35,22)" stroke-width="1" opacity="1" d="M 144.5 124 L 148 124.5 L 144.5 125 L 144.5 124 Z " /><path fill="rgb(64,35,22)" stroke="rgb(64,35,22)" stroke-width="1" opacity="1" d="M 155.5 125 L 160 125.5 L 155.5 126 L 155.5 125 Z " /><path fill="rgb(64,35,22)" stroke="rgb(64,35,22)" stroke-width="1" opacity="1" d="M 47.5 128 L 46.5 130 L 47.5 128 Z " /><path fill="rgb(64,35,22)" stroke="rgb(64,35,22)" stroke-width="1" opacity="1" d="M 43.5 132 L 40.5 136 L 43.5 132 Z " /><path fill="rgb(64,35,22)" stroke="rgb(64,35,22)" stroke-width="1" opacity="1" d="M 39.5 142 L 40.5 144 L 39.5 142 Z " /><path fill="rgb(64,35,22)" stroke="rgb(64,35,22)" stroke-width="1" opacity="1" d="M 159.5 148 L 158.5 150 L 159.5 148 Z " /><path fill="rgb(64,35,22)" stroke="rgb(64,35,22)" stroke-width="1" opacity="1" d="M 156.5 152 L 155.5 154 L 156.5 152 Z " /><path fill="rgb(64,35,22)" stroke="rgb(64,35,22)" stroke-width="1" opacity="1" d="M 77.5 154 L 80 154.5 L 77.5 155 L 77.5 154 Z " /><path fill="rgb(64,35,22)" stroke="rgb(64,35,22)" stroke-width="1" opacity="1" d="M 92.5 156 L 95 156.5 L 92.5 157 L 92.5 156 Z " /><path fill="rgb(64,35,22)" stroke="rgb(64,35,22)" stroke-width="1" opacity="1" d="M 102.5 157 L 106 157.5 L 102.5 158 L 102.5 157 Z " /><path fill="rgb(64,35,22)" stroke="rgb(64,35,22)" stroke-width="1" opacity="1" d="M 69.5 158 L 71 158.5 L 68.5 160 L 69.5 158 Z " /><path fill="rgb(64,35,22)" stroke="rgb(64,35,22)" stroke-width="1" opacity="1" d="M 116.5 158 L 133 158.5 L 116.5 159 L 116.5 158 Z " /><path fill="rgb(64,35,22)" stroke="rgb(64,35,22)" stroke-width="1" opacity="1" d="M 81.5 160 L 83 162.5 L 82 162.5 L 81.5 160 Z " /><path fill="rgb(64,35,22)" stroke="rgb(64,35,22)" stroke-width="1" opacity="1" d="M 88 161 L 93 161.5 L 89 162 L 88.5 164 L 88 161 Z " /><path fill="rgb(64,35,22)" stroke="rgb(64,35,22)" stroke-width="1" opacity="1" d="M 96.5 162 Q 101.8 160.8 103 163.5 L 94.5 171 L 96.5 168 L 102 163.5 L 96.5 163 L 96.5 162 Z " /><path fill="rgb(64,35,22)" stroke="rgb(64,35,22)" stroke-width="1" opacity="1" d="M 109.5 163 L 107.5 166 L 109.5 163 Z " /><path fill="rgb(64,35,22)" stroke="rgb(64,35,22)" stroke-width="1" opacity="1" d="M 118.5 163 L 136.5 163 L 138 164.5 L 137.5 166 L 137 164 L 118.5 164 L 118.5 163 Z " /><path fill="rgb(64,35,22)" stroke="rgb(64,35,22)" stroke-width="1" opacity="1" d="M 89.5 165 L 93 170.5 L 91 169.5 L 89.5 165 Z " /><path fill="rgb(64,35,22)" stroke="rgb(64,35,22)" stroke-width="1" opacity="1" d="M 101.5 171 L 99.5 174 L 101.5 171 Z " /><path fill="rgb(64,35,22)" stroke="rgb(64,35,22)" stroke-width="1" opacity="1" d="M 143.5 178 L 145 181.5 L 144 181.5 L 143.5 178 Z " /><path fill="rgb(142,95,75)" stroke="rgb(142,95,75)" stroke-width="1" opacity="1" d="M 51 111 L 65.5 114 L 72.5 114 L 73.5 115 L 86.5 116 L 99.5 119 L 127.5 122 L 128.5 123 L 166 126 L 165.5 130 L 165 127 L 144.5 126 L 143.5 125 L 128.5 124 L 127.5 123 L 74.5 116 L 74.5 117 L 80 121.5 L 81 130 Q 78.7 132.6 72.5 132 Q 65.5 130.4 62 125.5 Q 61.1 117.6 66.5 116 L 69 115.5 L 52.5 112 L 51.5 114 L 51 111 Z " /><path fill="rgb(142,95,75)" stroke="rgb(142,95,75)" stroke-width="1" opacity="1" d="M 50.5 115 L 51 119.5 L 48.5 129 L 48 126.5 L 50.5 115 Z " /><path fill="rgb(142,95,75)" stroke="rgb(142,95,75)" stroke-width="1" opacity="1" d="M 117.5 124 Q 128.3 122.2 131 128.5 L 132 134.5 L 131 137 L 124.5 139 L 119.5 139 Q 113.8 137.8 111 133.5 Q 110.3 127.3 114.5 126 L 117.5 124 Z " /><path fill="rgb(142,95,75)" stroke="rgb(142,95,75)" stroke-width="1" opacity="1" d="M 46.5 130 L 44.5 133 L 46.5 130 Z " /><path fill="rgb(142,95,75)" stroke="rgb(142,95,75)" stroke-width="1" opacity="1" d="M 164.5 131 L 165 133.5 L 163.5 137 L 163 134.5 L 164.5 131 Z " /><path fill="rgb(142,95,75)" stroke="rgb(142,95,75)" stroke-width="1" opacity="1" d="M 162.5 138 L 163 140.5 Q 160.2 149.7 153.5 155 L 157 150.5 L 162.5 138 Z " /><path fill="rgb(142,95,75)" stroke="rgb(142,95,75)" stroke-width="1" opacity="1" d="M 87.5 155 L 90 155.5 L 87.5 156 L 87.5 155 Z " /><path fill="rgb(142,95,75)" stroke="rgb(142,95,75)" stroke-width="1" opacity="1" d="M 106.5 157 L 109 157.5 L 106.5 158 L 106.5 157 Z " /><path fill="rgb(142,95,75)" stroke="rgb(142,95,75)" stroke-width="1" opacity="1" d="M 78.5 160 L 81 160.5 L 78.5 161 L 78.5 160 Z " /><path fill="rgb(142,95,75)" stroke="rgb(142,95,75)" stroke-width="1" opacity="1" d="M 89 162 L 102 163.5 L 93.5 171 L 89 164.5 L 89 162 Z " /><path fill="rgb(142,95,75)" stroke="rgb(142,95,75)" stroke-width="1" opacity="1" d="M 110.5 163 L 118 163.5 L 110.5 164 L 110.5 163 Z " /><path fill="rgb(142,95,75)" stroke="rgb(142,95,75)" stroke-width="1" opacity="1" d="M 107.5 166 L 101.5 173 L 107.5 166 Z " /><path fill="rgb(142,95,75)" stroke="rgb(142,95,75)" stroke-width="1" opacity="1" d="M 85.5 170 L 86.5 172 L 85.5 170 Z " /><path fill="rgb(142,95,75)" stroke="rgb(142,95,75)" stroke-width="1" opacity="1" d="M 119.5 170 L 118.5 172 L 119.5 170 Z " /><path fill="rgb(142,95,75)" stroke="rgb(142,95,75)" stroke-width="1" opacity="1" d="M 87.5 173 L 90.5 177 L 87.5 173 Z " /><path fill="rgb(142,95,75)" stroke="rgb(142,95,75)" stroke-width="1" opacity="1" d="M 98.5 174 L 97.5 176 L 98.5 174 Z " /><path fill="rgb(0,0,0)" stroke="rgb(0,0,0)" stroke-width="1" opacity="0.9686274509803922" d="M 93.5 48 L 122.5 48 L 136.5 51 L 155.5 60 L 168 71.5 Q 174.5 79 178 89.5 L 179 102.5 L 180 103.5 L 180 114.5 L 178 124.5 L 175.5 127 Q 168.3 124.7 171 132.5 L 166 148.5 L 157.5 159 L 148.5 163 L 143 163 L 158 199.5 L 153.5 200 L 138 163 L 116.5 163 L 114.5 162 Q 113.2 164.2 108.5 163 L 107 164.5 L 100.5 172 L 94.5 176 L 91.5 176 Q 84.4 170.4 83 160 L 75.5 158 L 68.5 158 L 63 168.5 L 54 200 L 49 200 L 49 198.5 L 57 171.5 L 63 157 L 59.5 157 L 42.5 151 L 35 145.5 L 33 138.5 Q 35.5 129.5 43 125.5 L 45 116.5 L 45 109 L 26.5 106 L 15 99.5 L 13 93.5 L 17.5 88 L 32.5 84 L 47 83 L 49 72.5 L 52 66.5 L 59.5 59 L 73.5 52 L 93.5 48 Z M 92 53 L 74 57 L 60 65 L 54 73 L 51 86 L 49 88 L 37 88 L 27 90 L 21 92 L 18 95 L 19 97 L 27 101 L 50 105 L 58 108 L 72 109 L 79 111 L 86 111 L 99 114 L 127 117 L 135 119 L 142 119 L 143 120 L 173 122 L 175 118 L 175 102 L 175 100 L 172 87 L 163 73 Q 151 59 131 54 Q 126 55 125 53 L 92 53 Z M 50 110 L 48 127 L 38 138 L 38 142 L 43 146 L 59 152 L 75 155 L 96 157 L 97 158 L 107 158 L 108 159 L 143 159 Q 144 157 149 158 L 155 155 Q 160 151 163 144 L 167 127 L 166 125 L 144 124 L 129 121 L 99 118 L 93 116 L 59 112 L 50 110 Z M 87 160 L 87 163 L 93 172 L 100 168 L 104 163 L 98 161 L 90 161 L 87 160 Z " /></svg>