<svg width="200" height="200" version="1.1" xmlns="http://www.w3.org/2000/svg" desc="Created with imagetracer.js version 1.2.6" ><path fill="rgb(0,0,0)" stroke="rgb(0,0,0)" stroke-width="1" opacity="0.08235294117647059" d="M 105.5 30 Q 112.8 30.3 115 35.5 L 121 44.5 L 119 43.5 L 110.5 32 L 105.5 31 L 105.5 30 Z " /><path fill="rgb(0,0,0)" stroke="rgb(0,0,0)" stroke-width="1" opacity="0.08235294117647059" d="M 102.5 31 L 104 31.5 Q 86.7 39.2 75 52.5 L 71.5 57 L 62 54.5 L 65.5 54 L 71.5 56 L 81.5 45 L 102.5 31 Z " /><path fill="rgb(0,0,0)" stroke="rgb(0,0,0)" stroke-width="1" opacity="0.08235294117647059" d="M 130.5 42 Q 140.6 40.4 143 46.5 L 146 54.5 L 145 54.5 Q 143.8 47.8 139.5 44 L 130.5 43 L 130.5 42 Z " /><path fill="rgb(0,0,0)" stroke="rgb(0,0,0)" stroke-width="1" opacity="0.08235294117647059" d="M 126.5 43 L 129 43.5 L 126.5 44 L 126.5 43 Z " /><path fill="rgb(0,0,0)" stroke="rgb(0,0,0)" stroke-width="1" opacity="0.08235294117647059" d="M 122.5 44 L 125 44.5 L 122.5 45 L 122.5 44 Z " /><path fill="rgb(0,0,0)" stroke="rgb(0,0,0)" stroke-width="1" opacity="0.08235294117647059" d="M 40.5 47 L 58 52.5 L 55.5 53 L 40.5 48 L 40.5 47 Z " /><path fill="rgb(0,0,0)" stroke="rgb(0,0,0)" stroke-width="1" opacity="0.08235294117647059" d="M 37.5 48 L 39 48.5 Q 30.1 52.1 25 59.5 L 21.5 67 L 21 65.5 Q 24.6 56.1 32.5 51 L 37.5 48 Z " /><path fill="rgb(0,0,0)" stroke="rgb(0,0,0)" stroke-width="1" opacity="0.08235294117647059" d="M 146.5 56 L 147 60 L 150 60.5 L 147.5 61 Q 144.8 59.8 146.5 56 Z " /><path fill="rgb(0,0,0)" stroke="rgb(0,0,0)" stroke-width="1" opacity="0.08235294117647059" d="M 163.5 57 L 168.5 57 L 180 66.5 L 184 72.5 L 182 71.5 L 176.5 64 L 168.5 58 L 163.5 58 L 158.5 59 L 158.5 58 L 163.5 57 Z " /><path fill="rgb(0,0,0)" stroke="rgb(0,0,0)" stroke-width="1" opacity="0.08235294117647059" d="M 151.5 59 L 157 59.5 L 151.5 60 L 151.5 59 Z " /><path fill="rgb(0,0,0)" stroke="rgb(0,0,0)" stroke-width="1" opacity="0.08235294117647059" d="M 20.5 68 L 21 70.5 Q 17 77 19 89.5 L 20 93.5 L 19 93.5 Q 16.6 86.4 18 75.5 L 20.5 68 Z " /><path fill="rgb(0,0,0)" stroke="rgb(0,0,0)" stroke-width="1" opacity="0.08235294117647059" d="M 188.5 83 L 189 85.5 L 188 85.5 L 188.5 83 Z " /><path fill="rgb(0,0,0)" stroke="rgb(0,0,0)" stroke-width="1" opacity="0.08235294117647059" d="M 189.5 87 Q 192.3 93.7 191 104.5 L 190 104.5 L 189.5 87 Z " /><path fill="rgb(0,0,0)" stroke="rgb(0,0,0)" stroke-width="1" opacity="0.08235294117647059" d="M 20.5 95 Q 23.9 104.6 31.5 110 L 41 115.5 L 39.5 116 Q 30.1 111.4 24 103.5 L 20 96.5 L 20.5 95 Z " /><path fill="rgb(0,0,0)" stroke="rgb(0,0,0)" stroke-width="1" opacity="0.08235294117647059" d="M 189.5 106 L 190 108.5 L 187.5 112 L 188 110.5 L 189.5 106 Z " /><path fill="rgb(0,0,0)" stroke="rgb(0,0,0)" stroke-width="1" opacity="0.08235294117647059" d="M 185.5 114 L 179.5 121 L 163.5 129 L 163.5 128 Q 177.7 124.2 185.5 114 Z " /><path fill="rgb(0,0,0)" stroke="rgb(0,0,0)" stroke-width="1" opacity="0.08235294117647059" d="M 45.5 117 Q 47.8 116.3 47 118.5 L 52 124.5 Q 39.2 131.2 30.5 142 L 25.5 134 L 17.5 133 L 12 137.5 L 17.5 132 L 23.5 132 L 28 135.5 L 30.5 141 Q 38.3 130.3 51 124.5 L 45.5 117 Z " /><path fill="rgb(0,0,0)" stroke="rgb(0,0,0)" stroke-width="1" opacity="0.08235294117647059" d="M 158.5 129 L 162 129.5 L 154.5 131 L 154.5 130 L 158.5 129 Z " /><path fill="rgb(0,0,0)" stroke="rgb(0,0,0)" stroke-width="1" opacity="0.08235294117647059" d="M 149 130 L 152 130.5 L 149.5 132 L 149 130 Z " /><path fill="rgb(0,0,0)" stroke="rgb(0,0,0)" stroke-width="1" opacity="0.08235294117647059" d="M 52.5 131 L 53 140.5 L 52 140.5 L 52.5 131 Z " /><path fill="rgb(0,0,0)" stroke="rgb(0,0,0)" stroke-width="1" opacity="0.08235294117647059" d="M 50.5 132 L 49.5 134 L 37 144.5 L 36.5 146 L 36 144.5 L 50.5 132 Z " /><path fill="rgb(0,0,0)" stroke="rgb(0,0,0)" stroke-width="1" opacity="0.08235294117647059" d="M 148.5 133 L 149 135.5 L 146.5 140 L 147 138.5 L 148.5 133 Z " /><path fill="rgb(0,0,0)" stroke="rgb(0,0,0)" stroke-width="1" opacity="0.08235294117647059" d="M 11.5 139 L 12 140.5 Q 8.7 144.7 9.5 153 L 9 144.5 L 11.5 139 Z " /><path fill="rgb(0,0,0)" stroke="rgb(0,0,0)" stroke-width="1" opacity="0.08235294117647059" d="M 53.5 142 L 60 151.5 L 60 159.5 L 59 159.5 L 59 151.5 Q 53.4 148 53.5 142 Z " /><path fill="rgb(0,0,0)" stroke="rgb(0,0,0)" stroke-width="1" opacity="0.08235294117647059" d="M 144.5 143 L 145 144.5 L 143 145.5 L 144.5 143 Z " /><path fill="rgb(0,0,0)" stroke="rgb(0,0,0)" stroke-width="1" opacity="0.08235294117647059" d="M 38.5 146 Q 44.9 146.1 47 150.5 L 48 155.5 L 47 155.5 Q 47.7 149.3 43.5 148 L 38.5 147 L 38.5 146 Z " /><path fill="rgb(0,0,0)" stroke="rgb(0,0,0)" stroke-width="1" opacity="0.08235294117647059" d="M 10.5 154 L 13.5 158 L 18.5 159 L 20.5 158 L 20.5 159 L 15.5 160 L 10 155.5 L 10.5 154 Z " /><path fill="rgb(0,0,0)" stroke="rgb(0,0,0)" stroke-width="1" opacity="0.08235294117647059" d="M 24.5 156 L 26 157.5 L 27 163.5 L 30.5 167 L 33 167.5 L 30.5 168 Q 24.8 165.2 24.5 157 L 22.5 158 L 22.5 157 L 24.5 156 Z " /><path fill="rgb(0,0,0)" stroke="rgb(0,0,0)" stroke-width="1" opacity="0.08235294117647059" d="M 46.5 158 L 46 159.5 L 40.5 166 L 35.5 168 L 35.5 167 Q 42 165.5 45 160.5 L 46.5 158 Z " /><path fill="rgb(0,0,0)" stroke="rgb(0,0,0)" stroke-width="1" opacity="0.08235294117647059" d="M 136.5 160 L 137 161.5 L 135.5 164 L 135 162.5 L 136.5 160 Z " /><path fill="rgb(0,0,0)" stroke="rgb(0,0,0)" stroke-width="1" opacity="0.08235294117647059" d="M 58.5 161 L 59 163.5 L 58 163.5 L 58.5 161 Z " /><path fill="rgb(0,0,0)" stroke="rgb(0,0,0)" stroke-width="1" opacity="0.08235294117647059" d="M 57.5 165 L 58 170.5 L 57 170.5 L 57.5 165 Z " /><path fill="rgb(0,0,0)" stroke="rgb(0,0,0)" stroke-width="1" opacity="0.08235294117647059" d="M 134.5 165 L 135 166.5 L 132.5 173 L 132 170.5 L 134.5 165 Z " /><path fill="rgb(0,0,0)" stroke="rgb(0,0,0)" stroke-width="1" opacity="0.08235294117647059" d="M 56.5 172 L 57 192.5 L 59 199.5 L 58 199.5 L 56 192.5 L 56.5 172 Z " /><path fill="rgb(0,0,0)" stroke="rgb(0,0,0)" stroke-width="1" opacity="0.08235294117647059" d="M 131.5 174 L 132 176.5 L 131 176.5 L 131.5 174 Z " /><path fill="rgb(0,0,0)" stroke="rgb(0,0,0)" stroke-width="1" opacity="0.08235294117647059" d="M 130.5 178 L 131 181.5 L 130 185 L 132 185.5 L 129 186 L 130.5 178 Z " /><path fill="rgb(0,0,0)" stroke="rgb(0,0,0)" stroke-width="1" opacity="0.08235294117647059" d="M 133.5 186 L 138.5 186 L 147 188.5 L 144.5 189 L 138.5 187 L 133.5 187 L 133.5 186 Z " /><path fill="rgb(0,0,0)" stroke="rgb(0,0,0)" stroke-width="1" opacity="0.08235294117647059" d="M 148.5 189 Q 160.1 191.9 167 199.5 L 165.5 200 L 160.5 195 L 148.5 190 L 148.5 189 Z " /><path fill="rgb(0,0,0)" stroke="rgb(0,0,0)" stroke-width="1" opacity="0" d="M 0 0 L 200 0 L 200 200 L 167.5 200 Q 161.6 193.4 152.5 190 L 143.5 187 L 132.5 186 L 130 185 L 135 164.5 L 150.5 131 L 153.5 130 L 157.5 131 Q 176.1 127.1 186 114.5 Q 193 108 191 92.5 L 188 80.5 L 183 70.5 L 175.5 62 L 168.5 57 L 163.5 57 L 147 60 Q 146.9 48.5 139.5 43 L 130.5 42 L 121.5 45 L 110.5 31 L 105.5 30 L 93.5 36 L 73 53.5 L 71.5 56 L 40.5 47 Q 29.8 50.8 24 59.5 L 18 75.5 L 18 89.5 Q 21.1 103.9 31.5 111 Q 35.9 116.1 44.5 117 L 47 119.5 L 51 124.5 Q 38.3 130.3 30.5 141 L 25.5 133 L 17.5 132 Q 8.1 137.1 9 152.5 L 13.5 159 L 18.5 160 L 24.5 157 Q 24.8 165.2 30.5 168 L 37.5 168 L 46 160.5 L 48 152.5 L 43.5 147 L 37 146 L 43.5 138 L 51.5 132 Q 51 146 59 151.5 L 59 160.5 L 56 172.5 L 56 192.5 L 58 200 L 0.5 200 L 0 199.5 L 0 0 Z " /><path fill="rgb(131,103,66)" stroke="rgb(131,103,66)" stroke-width="1" opacity="1" d="M 104.5 38 Q 108.3 37.3 109 39.5 L 118.5 52 L 135.5 49 Q 140 53.3 140 61 L 127.5 61 L 120.5 58 L 109.5 56 L 88.5 55 L 80.5 57 L 84.5 52 L 104.5 38 Z " /><path fill="rgb(131,103,66)" stroke="rgb(131,103,66)" stroke-width="1" opacity="1" d="M 39.5 55 L 49.5 57 L 54.5 60 L 79.5 65 L 103.5 67 L 104.5 68 L 124.5 69 L 125.5 68 L 152.5 67 L 165.5 64 L 174 70.5 L 172.5 71 L 164.5 69 L 159.5 73 Q 156.9 69.1 149.5 70 L 132.5 73 L 115.5 73 L 112.5 72 L 110.5 73 L 109.5 72 L 86.5 70 L 85.5 69 L 79.5 69 L 61.5 65 L 50.5 64 L 44.5 68 L 42 68 L 39 61 L 29.5 66 L 30 64.5 L 36.5 57 L 39.5 55 Z " /><path fill="rgb(131,103,66)" stroke="rgb(131,103,66)" stroke-width="1" opacity="1" d="M 134.5 95 L 135.5 97 L 134.5 95 Z " /><path fill="rgb(131,103,66)" stroke="rgb(131,103,66)" stroke-width="1" opacity="1" d="M 73.5 102 L 74.5 104 L 73.5 102 Z " /><path fill="rgb(131,103,66)" stroke="rgb(131,103,66)" stroke-width="1" opacity="1" d="M 119.5 109 L 118.5 111 L 119.5 109 Z " /><path fill="rgb(131,103,66)" stroke="rgb(131,103,66)" stroke-width="1" opacity="1" d="M 60.5 128 L 59.5 130 L 60.5 128 Z " /><path fill="rgb(131,103,66)" stroke="rgb(131,103,66)" stroke-width="1" opacity="1" d="M 62.5 179 L 63 187.5 L 62 187.5 L 62.5 179 Z " /><path fill="rgb(0,0,0)" stroke="rgb(0,0,0)" stroke-width="1" opacity="0.807843137254902" d="M 104.5 31 L 109 31.5 L 102.5 33 L 102.5 32 L 104.5 31 Z " /><path fill="rgb(0,0,0)" stroke="rgb(0,0,0)" stroke-width="1" opacity="0.807843137254902" d="M 110.5 32 L 113.5 36 L 110.5 32 Z " /><path fill="rgb(0,0,0)" stroke="rgb(0,0,0)" stroke-width="1" opacity="0.807843137254902" d="M 98.5 34 L 97.5 36 L 98.5 34 Z " /><path fill="rgb(0,0,0)" stroke="rgb(0,0,0)" stroke-width="1" opacity="0.807843137254902" d="M 93.5 37 L 91.5 40 L 93.5 37 Z " /><path fill="rgb(0,0,0)" stroke="rgb(0,0,0)" stroke-width="1" opacity="0.807843137254902" d="M 114.5 37 L 116.5 40 L 114.5 37 Z " /><path fill="rgb(0,0,0)" stroke="rgb(0,0,0)" stroke-width="1" opacity="0.807843137254902" d="M 89.5 40 L 87.5 43 L 89.5 40 Z " /><path fill="rgb(0,0,0)" stroke="rgb(0,0,0)" stroke-width="1" opacity="0.807843137254902" d="M 117.5 41 L 120.5 45 L 124 45.5 L 120.5 46 L 117.5 41 Z " /><path fill="rgb(0,0,0)" stroke="rgb(0,0,0)" stroke-width="1" opacity="0.807843137254902" d="M 85.5 43 L 81.5 48 L 85.5 43 Z " /><path fill="rgb(0,0,0)" stroke="rgb(0,0,0)" stroke-width="1" opacity="0.807843137254902" d="M 129.5 43 L 133 43.5 L 129.5 44 L 129.5 43 Z " /><path fill="rgb(0,0,0)" stroke="rgb(0,0,0)" stroke-width="1" opacity="0.807843137254902" d="M 125.5 44 L 128 44.5 L 125.5 45 L 125.5 44 Z " /><path fill="rgb(0,0,0)" stroke="rgb(0,0,0)" stroke-width="1" opacity="0.807843137254902" d="M 139.5 44 L 140.5 46 L 139.5 44 Z " /><path fill="rgb(0,0,0)" stroke="rgb(0,0,0)" stroke-width="1" opacity="0.807843137254902" d="M 141.5 47 L 142.5 49 L 141.5 47 Z " /><path fill="rgb(0,0,0)" stroke="rgb(0,0,0)" stroke-width="1" opacity="0.807843137254902" d="M 39.5 48 L 43 48.5 Q 31 51 25.5 60 L 32.5 52 L 39.5 48 Z " /><path fill="rgb(0,0,0)" stroke="rgb(0,0,0)" stroke-width="1" opacity="0.807843137254902" d="M 79.5 48 L 75.5 53 L 79.5 48 Z " /><path fill="rgb(0,0,0)" stroke="rgb(0,0,0)" stroke-width="1" opacity="0.807843137254902" d="M 74.5 54 L 72.5 57 L 74.5 54 Z " /><path fill="rgb(0,0,0)" stroke="rgb(0,0,0)" stroke-width="1" opacity="0.807843137254902" d="M 145.5 55 L 146 57.5 L 145 57.5 L 145.5 55 Z " /><path fill="rgb(0,0,0)" stroke="rgb(0,0,0)" stroke-width="1" opacity="0.807843137254902" d="M 68.5 56 L 71 56.5 L 68.5 57 L 68.5 56 Z " /><path fill="rgb(0,0,0)" stroke="rgb(0,0,0)" stroke-width="1" opacity="0.807843137254902" d="M 157.5 59 L 161 59.5 L 157.5 60 L 157.5 59 Z " /><path fill="rgb(0,0,0)" stroke="rgb(0,0,0)" stroke-width="1" opacity="0.807843137254902" d="M 150.5 60 L 155 60.5 L 150.5 61 L 150.5 60 Z " /><path fill="rgb(0,0,0)" stroke="rgb(0,0,0)" stroke-width="1" opacity="0.807843137254902" d="M 171.5 60 L 174.5 64 L 171.5 60 Z " /><path fill="rgb(0,0,0)" stroke="rgb(0,0,0)" stroke-width="1" opacity="0.807843137254902" d="M 176.5 64 L 178.5 67 L 176.5 64 Z " /><path fill="rgb(0,0,0)" stroke="rgb(0,0,0)" stroke-width="1" opacity="0.807843137254902" d="M 179.5 68 L 181.5 71 L 179.5 68 Z " /><path fill="rgb(0,0,0)" stroke="rgb(0,0,0)" stroke-width="1" opacity="0.807843137254902" d="M 182.5 72 L 187 80.5 L 186 80.5 L 182.5 72 Z " /><path fill="rgb(0,0,0)" stroke="rgb(0,0,0)" stroke-width="1" opacity="0.807843137254902" d="M 19.5 75 L 20 78.5 L 19 78.5 L 19.5 75 Z " /><path fill="rgb(0,0,0)" stroke="rgb(0,0,0)" stroke-width="1" opacity="0.807843137254902" d="M 187.5 82 L 188 84.5 L 187 84.5 L 187.5 82 Z " /><path fill="rgb(0,0,0)" stroke="rgb(0,0,0)" stroke-width="1" opacity="0.807843137254902" d="M 19.5 85 L 20 89.5 L 19 89.5 L 19.5 85 Z " /><path fill="rgb(0,0,0)" stroke="rgb(0,0,0)" stroke-width="1" opacity="0.807843137254902" d="M 188.5 86 L 189 88.5 L 188 88.5 L 188.5 86 Z " /><path fill="rgb(0,0,0)" stroke="rgb(0,0,0)" stroke-width="1" opacity="0.807843137254902" d="M 20.5 92 L 21 94.5 L 20 94.5 L 20.5 92 Z " /><path fill="rgb(0,0,0)" stroke="rgb(0,0,0)" stroke-width="1" opacity="0.807843137254902" d="M 189.5 92 L 190 105.5 L 189 105.5 L 189.5 92 Z " /><path fill="rgb(0,0,0)" stroke="rgb(0,0,0)" stroke-width="1" opacity="0.807843137254902" d="M 23.5 100 L 25.5 103 L 23.5 100 Z " /><path fill="rgb(0,0,0)" stroke="rgb(0,0,0)" stroke-width="1" opacity="0.807843137254902" d="M 26.5 104 L 31.5 110 L 26.5 104 Z " /><path fill="rgb(0,0,0)" stroke="rgb(0,0,0)" stroke-width="1" opacity="0.807843137254902" d="M 33.5 110 L 35.5 113 L 33.5 110 Z " /><path fill="rgb(0,0,0)" stroke="rgb(0,0,0)" stroke-width="1" opacity="0.807843137254902" d="M 186.5 112 L 179.5 120 L 171.5 125 L 172.5 123 Q 181.2 119.2 186.5 112 Z " /><path fill="rgb(0,0,0)" stroke="rgb(0,0,0)" stroke-width="1" opacity="0.807843137254902" d="M 39.5 114 L 43 115.5 L 41.5 116 L 39.5 114 Z " /><path fill="rgb(0,0,0)" stroke="rgb(0,0,0)" stroke-width="1" opacity="0.807843137254902" d="M 44.5 116 L 47 116.5 L 44.5 117 L 44.5 116 Z " /><path fill="rgb(0,0,0)" stroke="rgb(0,0,0)" stroke-width="1" opacity="0.807843137254902" d="M 48.5 120 L 53 124.5 L 51.5 126 L 52 124.5 L 48.5 120 Z " /><path fill="rgb(0,0,0)" stroke="rgb(0,0,0)" stroke-width="1" opacity="0.807843137254902" d="M 47.5 127 L 46.5 129 L 47.5 127 Z " /><path fill="rgb(0,0,0)" stroke="rgb(0,0,0)" stroke-width="1" opacity="0.807843137254902" d="M 163.5 127 L 166 127.5 L 160.5 129 L 160.5 128 L 163.5 127 Z " /><path fill="rgb(0,0,0)" stroke="rgb(0,0,0)" stroke-width="1" opacity="0.807843137254902" d="M 44.5 129 L 42.5 132 L 44.5 129 Z " /><path fill="rgb(0,0,0)" stroke="rgb(0,0,0)" stroke-width="1" opacity="0.807843137254902" d="M 149.5 129 L 158 129.5 L 149 130 L 148.5 133 L 148 130.5 L 149.5 129 Z " /><path fill="rgb(0,0,0)" stroke="rgb(0,0,0)" stroke-width="1" opacity="0.807843137254902" d="M 52.5 130 Q 55.1 129.2 54 132.5 L 53 132.5 L 52.5 131 L 49.5 133 L 50.5 131 L 52.5 130 Z " /><path fill="rgb(0,0,0)" stroke="rgb(0,0,0)" stroke-width="1" opacity="0.807843137254902" d="M 40.5 132 L 30.5 143 L 29.5 141 L 30.5 142 L 40.5 132 Z " /><path fill="rgb(0,0,0)" stroke="rgb(0,0,0)" stroke-width="1" opacity="0.807843137254902" d="M 17.5 133 L 19 133.5 L 13 138.5 L 12.5 140 L 12 138.5 L 17.5 133 Z " /><path fill="rgb(0,0,0)" stroke="rgb(0,0,0)" stroke-width="1" opacity="0.807843137254902" d="M 47.5 133 L 45.5 136 L 47.5 133 Z " /><path fill="rgb(0,0,0)" stroke="rgb(0,0,0)" stroke-width="1" opacity="0.807843137254902" d="M 25.5 134 L 28 137.5 L 26 136.5 L 25.5 134 Z " /><path fill="rgb(0,0,0)" stroke="rgb(0,0,0)" stroke-width="1" opacity="0.807843137254902" d="M 43.5 136 L 36.5 144 L 43.5 136 Z " /><path fill="rgb(0,0,0)" stroke="rgb(0,0,0)" stroke-width="1" opacity="0.807843137254902" d="M 53.5 139 L 55 143.5 L 54 143.5 L 53.5 139 Z " /><path fill="rgb(0,0,0)" stroke="rgb(0,0,0)" stroke-width="1" opacity="0.807843137254902" d="M 10.5 144 L 11 146.5 L 10 146.5 L 10.5 144 Z " /><path fill="rgb(0,0,0)" stroke="rgb(0,0,0)" stroke-width="1" opacity="0.807843137254902" d="M 35.5 145 L 38 146.5 L 35 147 L 35.5 145 Z " /><path fill="rgb(0,0,0)" stroke="rgb(0,0,0)" stroke-width="1" opacity="0.807843137254902" d="M 55.5 145 L 60 150.5 L 57 148.5 L 55.5 145 Z " /><path fill="rgb(0,0,0)" stroke="rgb(0,0,0)" stroke-width="1" opacity="0.807843137254902" d="M 43.5 148 Q 47.7 149.3 47 155.5 L 46 155.5 L 46 152.5 L 43.5 148 Z " /><path fill="rgb(0,0,0)" stroke="rgb(0,0,0)" stroke-width="1" opacity="0.807843137254902" d="M 141.5 148 L 142 149.5 L 136.5 160 L 136 158.5 L 141.5 148 Z " /><path fill="rgb(0,0,0)" stroke="rgb(0,0,0)" stroke-width="1" opacity="0.807843137254902" d="M 10.5 151 L 11 153.5 L 10 153.5 L 10.5 151 Z " /><path fill="rgb(0,0,0)" stroke="rgb(0,0,0)" stroke-width="1" opacity="0.807843137254902" d="M 60.5 152 L 61 158.5 L 60 158.5 L 60.5 152 Z " /><path fill="rgb(0,0,0)" stroke="rgb(0,0,0)" stroke-width="1" opacity="0.807843137254902" d="M 11.5 155 L 13.5 158 L 11.5 155 Z " /><path fill="rgb(0,0,0)" stroke="rgb(0,0,0)" stroke-width="1" opacity="0.807843137254902" d="M 24.5 155 Q 26.8 154.3 26 156.5 L 23.5 157 L 20.5 158 L 20.5 157 L 24.5 155 Z " /><path fill="rgb(0,0,0)" stroke="rgb(0,0,0)" stroke-width="1" opacity="0.807843137254902" d="M 15.5 158 L 19 158.5 L 15.5 159 L 15.5 158 Z " /><path fill="rgb(0,0,0)" stroke="rgb(0,0,0)" stroke-width="1" opacity="0.807843137254902" d="M 44.5 160 L 40.5 165 L 44.5 160 Z " /><path fill="rgb(0,0,0)" stroke="rgb(0,0,0)" stroke-width="1" opacity="0.807843137254902" d="M 59.5 160 L 60 162.5 L 59 162.5 L 59.5 160 Z " /><path fill="rgb(0,0,0)" stroke="rgb(0,0,0)" stroke-width="1" opacity="0.807843137254902" d="M 27.5 163 L 32 166.5 L 30.5 167 L 27.5 163 Z " /><path fill="rgb(0,0,0)" stroke="rgb(0,0,0)" stroke-width="1" opacity="0.807843137254902" d="M 58.5 164 L 59 167.5 L 58 167.5 L 58.5 164 Z " /><path fill="rgb(0,0,0)" stroke="rgb(0,0,0)" stroke-width="1" opacity="0.807843137254902" d="M 38.5 165 L 37.5 167 L 36 166.5 L 38.5 165 Z " /><path fill="rgb(0,0,0)" stroke="rgb(0,0,0)" stroke-width="1" opacity="0.807843137254902" d="M 57.5 171 L 58 179.5 L 57 179.5 L 57.5 171 Z " /><path fill="rgb(0,0,0)" stroke="rgb(0,0,0)" stroke-width="1" opacity="0.807843137254902" d="M 130.5 175 L 131 177.5 L 130 177.5 L 130.5 175 Z " /><path fill="rgb(0,0,0)" stroke="rgb(0,0,0)" stroke-width="1" opacity="0.807843137254902" d="M 129.5 179 L 130 181.5 L 129 181.5 L 129.5 179 Z " /><path fill="rgb(0,0,0)" stroke="rgb(0,0,0)" stroke-width="1" opacity="0.807843137254902" d="M 128.5 184 L 129 186 L 133 186.5 L 129.5 187 L 128.5 184 Z " /><path fill="rgb(0,0,0)" stroke="rgb(0,0,0)" stroke-width="1" opacity="0.807843137254902" d="M 136.5 187 L 139 187.5 L 136.5 188 L 136.5 187 Z " /><path fill="rgb(0,0,0)" stroke="rgb(0,0,0)" stroke-width="1" opacity="0.807843137254902" d="M 57.5 188 L 58 192.5 L 57 192.5 L 57.5 188 Z " /><path fill="rgb(0,0,0)" stroke="rgb(0,0,0)" stroke-width="1" opacity="0.807843137254902" d="M 141.5 188 L 144 188.5 L 141.5 189 L 141.5 188 Z " /><path fill="rgb(0,0,0)" stroke="rgb(0,0,0)" stroke-width="1" opacity="0.807843137254902" d="M 145.5 189 L 148 189.5 L 145.5 190 L 145.5 189 Z " /><path fill="rgb(0,0,0)" stroke="rgb(0,0,0)" stroke-width="1" opacity="0.807843137254902" d="M 158.5 194 L 165 199.5 L 160.5 196 L 158.5 194 Z " /><path fill="rgb(21,21,12)" stroke="rgb(21,21,12)" stroke-width="1" opacity="0.996078431372549" d="M 101.5 38 L 100.5 40 L 101.5 38 Z " /><path fill="rgb(21,21,12)" stroke="rgb(21,21,12)" stroke-width="1" opacity="0.996078431372549" d="M 110.5 40 L 112.5 43 L 110.5 40 Z " /><path fill="rgb(21,21,12)" stroke="rgb(21,21,12)" stroke-width="1" opacity="0.996078431372549" d="M 96.5 41 L 94.5 44 L 96.5 41 Z " /><path fill="rgb(21,21,12)" stroke="rgb(21,21,12)" stroke-width="1" opacity="0.996078431372549" d="M 92.5 44 L 90.5 47 L 92.5 44 Z " /><path fill="rgb(21,21,12)" stroke="rgb(21,21,12)" stroke-width="1" opacity="0.996078431372549" d="M 113.5 44 L 114.5 46 L 113.5 44 Z " /><path fill="rgb(21,21,12)" stroke="rgb(21,21,12)" stroke-width="1" opacity="0.996078431372549" d="M 115.5 47 L 118.5 51 L 115.5 47 Z " /><path fill="rgb(21,21,12)" stroke="rgb(21,21,12)" stroke-width="1" opacity="0.996078431372549" d="M 87.5 48 L 85.5 51 L 87.5 48 Z " /><path fill="rgb(21,21,12)" stroke="rgb(21,21,12)" stroke-width="1" opacity="0.996078431372549" d="M 130.5 48 L 133 48.5 L 130.5 49 L 130.5 48 Z " /><path fill="rgb(21,21,12)" stroke="rgb(21,21,12)" stroke-width="1" opacity="0.996078431372549" d="M 82.5 52 L 79.5 56 L 82.5 52 Z " /><path fill="rgb(21,21,12)" stroke="rgb(21,21,12)" stroke-width="1" opacity="0.996078431372549" d="M 35.5 56 L 29.5 63 L 35.5 56 Z " /><path fill="rgb(21,21,12)" stroke="rgb(21,21,12)" stroke-width="1" opacity="0.996078431372549" d="M 53.5 57 L 56 58.5 L 54.5 58 L 53.5 57 Z " /><path fill="rgb(21,21,12)" stroke="rgb(21,21,12)" stroke-width="1" opacity="0.996078431372549" d="M 78.5 57 L 82 58.5 L 79.5 59 L 78.5 57 Z " /><path fill="rgb(21,21,12)" stroke="rgb(21,21,12)" stroke-width="1" opacity="0.996078431372549" d="M 85.5 59 L 90 59.5 L 85.5 60 L 85.5 59 Z " /><path fill="rgb(21,21,12)" stroke="rgb(21,21,12)" stroke-width="1" opacity="0.996078431372549" d="M 94.5 60 L 99 60.5 L 94.5 61 L 94.5 60 Z " /><path fill="rgb(21,21,12)" stroke="rgb(21,21,12)" stroke-width="1" opacity="0.996078431372549" d="M 67.5 61 L 70 61.5 L 67.5 62 L 67.5 61 Z " /><path fill="rgb(21,21,12)" stroke="rgb(21,21,12)" stroke-width="1" opacity="0.996078431372549" d="M 103.5 61 L 108 61.5 L 103.5 62 L 103.5 61 Z " /><path fill="rgb(21,21,12)" stroke="rgb(21,21,12)" stroke-width="1" opacity="0.996078431372549" d="M 114.5 62 L 126 62.5 L 114.5 63 L 114.5 62 Z " /><path fill="rgb(21,21,12)" stroke="rgb(21,21,12)" stroke-width="1" opacity="0.996078431372549" d="M 78.5 63 L 81 63.5 L 78.5 64 L 78.5 63 Z " /><path fill="rgb(21,21,12)" stroke="rgb(21,21,12)" stroke-width="1" opacity="0.996078431372549" d="M 164.5 63 L 167 63.5 L 164.5 64 L 164.5 63 Z " /><path fill="rgb(21,21,12)" stroke="rgb(21,21,12)" stroke-width="1" opacity="0.996078431372549" d="M 84.5 64 L 88 64.5 L 84.5 65 L 84.5 64 Z " /><path fill="rgb(21,21,12)" stroke="rgb(21,21,12)" stroke-width="1" opacity="0.996078431372549" d="M 158.5 64 L 161 64.5 L 158.5 65 L 158.5 64 Z " /><path fill="rgb(21,21,12)" stroke="rgb(21,21,12)" stroke-width="1" opacity="0.996078431372549" d="M 93.5 65 L 97 65.5 L 93.5 66 L 93.5 65 Z " /><path fill="rgb(21,21,12)" stroke="rgb(21,21,12)" stroke-width="1" opacity="0.996078431372549" d="M 151.5 65 L 155 65.5 L 151.5 66 L 151.5 65 Z " /><path fill="rgb(21,21,12)" stroke="rgb(21,21,12)" stroke-width="1" opacity="0.996078431372549" d="M 169.5 65 L 170.5 67 L 169.5 65 Z " /><path fill="rgb(21,21,12)" stroke="rgb(21,21,12)" stroke-width="1" opacity="0.996078431372549" d="M 102.5 66 L 107 66.5 L 102.5 67 L 102.5 66 Z " /><path fill="rgb(21,21,12)" stroke="rgb(21,21,12)" stroke-width="1" opacity="0.996078431372549" d="M 138.5 66 L 146 66.5 L 138.5 67 L 138.5 66 Z " /><path fill="rgb(21,21,12)" stroke="rgb(21,21,12)" stroke-width="1" opacity="0.996078431372549" d="M 113.5 67 L 129 67.5 L 113.5 68 L 113.5 67 Z " /><path fill="rgb(21,21,12)" stroke="rgb(21,21,12)" stroke-width="1" opacity="0.996078431372549" d="M 175.5 71 L 176.5 73 L 175.5 71 Z " /><path fill="rgb(21,21,12)" stroke="rgb(21,21,12)" stroke-width="1" opacity="0.996078431372549" d="M 24.5 76 L 25 79.5 L 24 79.5 L 24.5 76 Z " /><path fill="rgb(21,21,12)" stroke="rgb(21,21,12)" stroke-width="1" opacity="0.996078431372549" d="M 85.5 76 L 89 76.5 L 85.5 77 L 85.5 76 Z " /><path fill="rgb(21,21,12)" stroke="rgb(21,21,12)" stroke-width="1" opacity="0.996078431372549" d="M 104.5 76 L 109 76.5 L 104.5 77 L 104.5 76 Z " /><path fill="rgb(21,21,12)" stroke="rgb(21,21,12)" stroke-width="1" opacity="0.996078431372549" d="M 80.5 77 L 83 77.5 L 80.5 78 L 80.5 77 Z " /><path fill="rgb(21,21,12)" stroke="rgb(21,21,12)" stroke-width="1" opacity="0.996078431372549" d="M 86.5 81 L 89 81.5 L 86.5 82 L 86.5 81 Z " /><path fill="rgb(21,21,12)" stroke="rgb(21,21,12)" stroke-width="1" opacity="0.996078431372549" d="M 105.5 81 L 109 81.5 L 105.5 82 L 105.5 81 Z " /><path fill="rgb(21,21,12)" stroke="rgb(21,21,12)" stroke-width="1" opacity="0.996078431372549" d="M 130.5 83 L 131.5 85 L 130.5 83 Z " /><path fill="rgb(21,21,12)" stroke="rgb(21,21,12)" stroke-width="1" opacity="0.996078431372549" d="M 24.5 85 L 25 88.5 L 24 88.5 L 24.5 85 Z " /><path fill="rgb(21,21,12)" stroke="rgb(21,21,12)" stroke-width="1" opacity="0.996078431372549" d="M 60.5 85 L 53.5 93 L 60.5 85 Z " /><path fill="rgb(21,21,12)" stroke="rgb(21,21,12)" stroke-width="1" opacity="0.996078431372549" d="M 133.5 85 L 136.5 89 L 133.5 85 Z " /><path fill="rgb(21,21,12)" stroke="rgb(21,21,12)" stroke-width="1" opacity="0.996078431372549" d="M 127.5 87 L 128.5 89 L 127.5 87 Z " /><path fill="rgb(21,21,12)" stroke="rgb(21,21,12)" stroke-width="1" opacity="0.996078431372549" d="M 183.5 87 L 184 89.5 L 183 89.5 L 183.5 87 Z " /><path fill="rgb(21,21,12)" stroke="rgb(21,21,12)" stroke-width="1" opacity="0.996078431372549" d="M 63.5 89 L 61.5 92 L 63.5 89 Z " /><path fill="rgb(21,21,12)" stroke="rgb(21,21,12)" stroke-width="1" opacity="0.996078431372549" d="M 130.5 89 L 131.5 91 L 130.5 89 Z " /><path fill="rgb(21,21,12)" stroke="rgb(21,21,12)" stroke-width="1" opacity="0.996078431372549" d="M 138.5 91 L 142.5 96 L 138.5 91 Z " /><path fill="rgb(21,21,12)" stroke="rgb(21,21,12)" stroke-width="1" opacity="0.996078431372549" d="M 184.5 93 L 185 104.5 L 184 104.5 L 184.5 93 Z " /><path fill="rgb(21,21,12)" stroke="rgb(21,21,12)" stroke-width="1" opacity="0.996078431372549" d="M 52.5 94 L 51.5 96 L 52.5 94 Z " /><path fill="rgb(21,21,12)" stroke="rgb(21,21,12)" stroke-width="1" opacity="0.996078431372549" d="M 58.5 94 L 57.5 96 L 58.5 94 Z " /><path fill="rgb(21,21,12)" stroke="rgb(21,21,12)" stroke-width="1" opacity="0.996078431372549" d="M 135.5 95 L 138.5 99 L 135.5 95 Z " /><path fill="rgb(21,21,12)" stroke="rgb(21,21,12)" stroke-width="1" opacity="0.996078431372549" d="M 50.5 97 L 50 98.5 L 49.5 100 L 49 98.5 L 50.5 97 Z " /><path fill="rgb(21,21,12)" stroke="rgb(21,21,12)" stroke-width="1" opacity="0.996078431372549" d="M 28.5 98 L 29.5 100 L 28.5 98 Z " /><path fill="rgb(21,21,12)" stroke="rgb(21,21,12)" stroke-width="1" opacity="0.996078431372549" d="M 110.5 101 L 107.5 105 L 110.5 101 Z " /><path fill="rgb(21,21,12)" stroke="rgb(21,21,12)" stroke-width="1" opacity="0.996078431372549" d="M 31.5 102 L 34.5 106 L 31.5 102 Z " /><path fill="rgb(21,21,12)" stroke="rgb(21,21,12)" stroke-width="1" opacity="0.996078431372549" d="M 72.5 102 L 75 105.5 L 74 105.5 L 72.5 102 Z " /><path fill="rgb(21,21,12)" stroke="rgb(21,21,12)" stroke-width="1" opacity="0.996078431372549" d="M 61.5 104 L 62 106.5 L 61 106.5 L 61.5 104 Z " /><path fill="rgb(21,21,12)" stroke="rgb(21,21,12)" stroke-width="1" opacity="0.996078431372549" d="M 36.5 106 L 37.5 108 L 36.5 106 Z " /><path fill="rgb(21,21,12)" stroke="rgb(21,21,12)" stroke-width="1" opacity="0.996078431372549" d="M 39.5 108 L 42 109.5 L 40.5 110 L 39.5 108 Z " /><path fill="rgb(21,21,12)" stroke="rgb(21,21,12)" stroke-width="1" opacity="0.996078431372549" d="M 119.5 108 L 117.5 111 L 119.5 108 Z " /><path fill="rgb(21,21,12)" stroke="rgb(21,21,12)" stroke-width="1" opacity="0.996078431372549" d="M 147.5 108 L 148 110.5 L 147 110.5 L 147.5 108 Z " /><path fill="rgb(21,21,12)" stroke="rgb(21,21,12)" stroke-width="1" opacity="0.996078431372549" d="M 182.5 108 L 181.5 110 L 182.5 108 Z " /><path fill="rgb(21,21,12)" stroke="rgb(21,21,12)" stroke-width="1" opacity="0.996078431372549" d="M 46.5 109 L 47 110.5 L 45 111.5 L 46.5 109 Z " /><path fill="rgb(21,21,12)" stroke="rgb(21,21,12)" stroke-width="1" opacity="0.996078431372549" d="M 107.5 110 L 108.5 112 L 107.5 110 Z " /><path fill="rgb(21,21,12)" stroke="rgb(21,21,12)" stroke-width="1" opacity="0.996078431372549" d="M 180.5 111 L 177.5 115 L 180.5 111 Z " /><path fill="rgb(21,21,12)" stroke="rgb(21,21,12)" stroke-width="1" opacity="0.996078431372549" d="M 67.5 112 L 70 112.5 L 67.5 113 L 67.5 112 Z " /><path fill="rgb(21,21,12)" stroke="rgb(21,21,12)" stroke-width="1" opacity="0.996078431372549" d="M 110.5 112 L 113 112.5 L 110.5 113 L 110.5 112 Z " /><path fill="rgb(21,21,12)" stroke="rgb(21,21,12)" stroke-width="1" opacity="0.996078431372549" d="M 148.5 113 L 149 117.5 L 148 117.5 L 148.5 113 Z " /><path fill="rgb(21,21,12)" stroke="rgb(21,21,12)" stroke-width="1" opacity="0.996078431372549" d="M 143.5 114 L 144 117.5 L 143 117.5 L 143.5 114 Z " /><path fill="rgb(21,21,12)" stroke="rgb(21,21,12)" stroke-width="1" opacity="0.996078431372549" d="M 175.5 115 L 173.5 118 L 175.5 115 Z " /><path fill="rgb(21,21,12)" stroke="rgb(21,21,12)" stroke-width="1" opacity="0.996078431372549" d="M 171.5 118 L 170.5 120 L 171.5 118 Z " /><path fill="rgb(21,21,12)" stroke="rgb(21,21,12)" stroke-width="1" opacity="0.996078431372549" d="M 54.5 119 L 55.5 121 L 54.5 119 Z " /><path fill="rgb(21,21,12)" stroke="rgb(21,21,12)" stroke-width="1" opacity="0.996078431372549" d="M 120.5 121 L 121 123.5 L 120 123.5 L 120.5 121 Z " /><path fill="rgb(21,21,12)" stroke="rgb(21,21,12)" stroke-width="1" opacity="0.996078431372549" d="M 148.5 122 L 149 124 L 158 124.5 L 149.5 125 L 148.5 122 Z " /><path fill="rgb(21,21,12)" stroke="rgb(21,21,12)" stroke-width="1" opacity="0.996078431372549" d="M 99.5 123 L 102 123.5 L 99.5 124 L 99.5 123 Z " /><path fill="rgb(21,21,12)" stroke="rgb(21,21,12)" stroke-width="1" opacity="0.996078431372549" d="M 159.5 123 L 162 123.5 L 159.5 124 L 159.5 123 Z " /><path fill="rgb(21,21,12)" stroke="rgb(21,21,12)" stroke-width="1" opacity="0.996078431372549" d="M 72.5 124 L 76 124.5 L 72.5 125 L 72.5 124 Z " /><path fill="rgb(21,21,12)" stroke="rgb(21,21,12)" stroke-width="1" opacity="0.996078431372549" d="M 90.5 124 L 95 124.5 L 90.5 125 L 90.5 124 Z " /><path fill="rgb(21,21,12)" stroke="rgb(21,21,12)" stroke-width="1" opacity="0.996078431372549" d="M 67.5 128 L 70 128.5 L 67.5 129 L 67.5 128 Z " /><path fill="rgb(21,21,12)" stroke="rgb(21,21,12)" stroke-width="1" opacity="0.996078431372549" d="M 76.5 129 L 90 129.5 L 76.5 130 L 76.5 129 Z " /><path fill="rgb(21,21,12)" stroke="rgb(21,21,12)" stroke-width="1" opacity="0.996078431372549" d="M 19.5 138 L 17.5 141 L 19.5 138 Z " /><path fill="rgb(21,21,12)" stroke="rgb(21,21,12)" stroke-width="1" opacity="0.996078431372549" d="M 25.5 144 L 26.5 146 L 25.5 144 Z " /><path fill="rgb(21,21,12)" stroke="rgb(21,21,12)" stroke-width="1" opacity="0.996078431372549" d="M 25.5 148 L 24.5 150 L 25.5 148 Z " /><path fill="rgb(21,21,12)" stroke="rgb(21,21,12)" stroke-width="1" opacity="0.996078431372549" d="M 15.5 151 L 16 153 L 18 153.5 L 16.5 154 L 15.5 151 Z " /><path fill="rgb(21,21,12)" stroke="rgb(21,21,12)" stroke-width="1" opacity="0.996078431372549" d="M 32.5 151 L 37 151.5 L 32.5 152 L 32.5 151 Z " /><path fill="rgb(21,21,12)" stroke="rgb(21,21,12)" stroke-width="1" opacity="0.996078431372549" d="M 65.5 152 L 66 156.5 L 65 156.5 L 65.5 152 Z " /><path fill="rgb(21,21,12)" stroke="rgb(21,21,12)" stroke-width="1" opacity="0.996078431372549" d="M 30.5 153 L 31 156.5 L 30 156.5 L 30.5 153 Z " /><path fill="rgb(21,21,12)" stroke="rgb(21,21,12)" stroke-width="1" opacity="0.996078431372549" d="M 46.5 156 L 46 157.5 L 44.5 160 L 45 158.5 L 46.5 156 Z " /><path fill="rgb(21,21,12)" stroke="rgb(21,21,12)" stroke-width="1" opacity="0.996078431372549" d="M 39.5 158 L 37.5 161 L 39.5 158 Z " /><path fill="rgb(21,21,12)" stroke="rgb(21,21,12)" stroke-width="1" opacity="0.996078431372549" d="M 31.5 159 L 33 161.5 L 31 160.5 L 31.5 159 Z " /><path fill="rgb(21,21,12)" stroke="rgb(21,21,12)" stroke-width="1" opacity="0.996078431372549" d="M 62.5 171 L 63 174.5 L 62 174.5 L 62.5 171 Z " /><path fill="rgb(21,21,12)" stroke="rgb(21,21,12)" stroke-width="1" opacity="0.996078431372549" d="M 128.5 191 L 131 191.5 L 128.5 192 L 128.5 191 Z " /><path fill="rgb(21,21,12)" stroke="rgb(21,21,12)" stroke-width="1" opacity="0.996078431372549" d="M 133.5 192 L 138 192.5 L 133.5 193 L 133.5 192 Z " /><path fill="rgb(21,21,12)" stroke="rgb(21,21,12)" stroke-width="1" opacity="0.996078431372549" d="M 143.5 194 L 146 194.5 L 143.5 195 L 143.5 194 Z " /><path fill="rgb(21,21,12)" stroke="rgb(21,21,12)" stroke-width="1" opacity="0.996078431372549" d="M 150.5 196 L 157 199.5 L 155.5 199 L 150.5 197 L 150.5 196 Z " /><path fill="rgb(21,21,12)" stroke="rgb(21,21,12)" stroke-width="1" opacity="0.996078431372549" d="M 128.5 197 L 129 199.5 L 128 199.5 L 128.5 197 Z " /><path fill="rgb(108,82,58)" stroke="rgb(108,82,58)" stroke-width="1" opacity="1" d="M 109.5 40 L 110.5 42 L 109.5 40 Z " /><path fill="rgb(108,82,58)" stroke="rgb(108,82,58)" stroke-width="1" opacity="1" d="M 92.5 45 L 90.5 48 L 92.5 45 Z " /><path fill="rgb(108,82,58)" stroke="rgb(108,82,58)" stroke-width="1" opacity="1" d="M 86.5 50 L 85.5 52 L 86.5 50 Z " /><path fill="rgb(108,82,58)" stroke="rgb(108,82,58)" stroke-width="1" opacity="1" d="M 88.5 55 L 101 55.5 L 88.5 56 L 88.5 55 Z " /><path fill="rgb(108,82,58)" stroke="rgb(108,82,58)" stroke-width="1" opacity="1" d="M 81.5 56 L 84 56.5 L 81.5 57 L 81.5 56 Z " /><path fill="rgb(108,82,58)" stroke="rgb(108,82,58)" stroke-width="1" opacity="1" d="M 106.5 56 L 110 56.5 L 106.5 57 L 106.5 56 Z " /><path fill="rgb(108,82,58)" stroke="rgb(108,82,58)" stroke-width="1" opacity="1" d="M 34.5 58 L 31.5 62 L 34.5 58 Z " /><path fill="rgb(108,82,58)" stroke="rgb(108,82,58)" stroke-width="1" opacity="1" d="M 53.5 58 L 56 59.5 L 54.5 60 L 53.5 58 Z " /><path fill="rgb(108,82,58)" stroke="rgb(108,82,58)" stroke-width="1" opacity="1" d="M 37.5 61 Q 39.8 60.3 39 62.5 L 42 68 L 44.5 68 L 50.5 64 L 55.5 64 L 79.5 69 L 111.5 73 L 114.5 72 L 115.5 73 L 132.5 73 L 133.5 72 L 154.5 70 L 160.5 73 L 164.5 69 L 167.5 69 L 175 71 L 182 84.5 L 184 101.5 L 182 108.5 L 175.5 115 L 163.5 122 L 152.5 123 L 150 124 L 150 120.5 L 157 113.5 L 157 104.5 Q 155.4 95.6 148.5 92 L 125.5 80 L 112.5 76 Q 107.7 77.2 106.5 75 L 72.5 75 Q 56.7 77.7 48 87.5 Q 43.2 92.7 45 104.5 L 46 110 Q 35.4 108.1 30 99.5 L 26 92.5 L 25 77.5 L 28 66 L 30.5 66 L 37.5 61 Z " /><path fill="rgb(108,82,58)" stroke="rgb(108,82,58)" stroke-width="1" opacity="1" d="M 130.5 61 L 135 61.5 L 130.5 62 L 130.5 61 Z " /><path fill="rgb(108,82,58)" stroke="rgb(108,82,58)" stroke-width="1" opacity="1" d="M 79.5 64 L 82 64.5 L 79.5 65 L 79.5 64 Z " /><path fill="rgb(108,82,58)" stroke="rgb(108,82,58)" stroke-width="1" opacity="1" d="M 86.5 65 L 90 65.5 L 86.5 66 L 86.5 65 Z " /><path fill="rgb(108,82,58)" stroke="rgb(108,82,58)" stroke-width="1" opacity="1" d="M 157.5 65 L 160 65.5 L 157.5 66 L 157.5 65 Z " /><path fill="rgb(108,82,58)" stroke="rgb(108,82,58)" stroke-width="1" opacity="1" d="M 94.5 66 L 99 66.5 L 94.5 67 L 94.5 66 Z " /><path fill="rgb(108,82,58)" stroke="rgb(108,82,58)" stroke-width="1" opacity="1" d="M 149.5 66 L 153 66.5 L 149.5 67 L 149.5 66 Z " /><path fill="rgb(108,82,58)" stroke="rgb(108,82,58)" stroke-width="1" opacity="1" d="M 169.5 66 L 170.5 68 L 169.5 66 Z " /><path fill="rgb(108,82,58)" stroke="rgb(108,82,58)" stroke-width="1" opacity="1" d="M 104.5 67 L 109 67.5 L 104.5 68 L 104.5 67 Z " /><path fill="rgb(108,82,58)" stroke="rgb(108,82,58)" stroke-width="1" opacity="1" d="M 134.5 67 L 144 67.5 L 134.5 68 L 134.5 67 Z " /><path fill="rgb(108,82,58)" stroke="rgb(108,82,58)" stroke-width="1" opacity="1" d="M 117.5 68 L 125 68.5 L 117.5 69 L 117.5 68 Z " /><path fill="rgb(146,196,77)" stroke="rgb(146,196,77)" stroke-width="1" opacity="1" d="M 86.5 82 L 108.5 82 L 112.5 83 L 128.5 89 L 134 94.5 L 141 105.5 L 143 115.5 L 143 127.5 L 141 136.5 L 132.5 154 L 132 151.5 L 138 134.5 L 139 120.5 L 135 104.5 L 133 99.5 L 129.5 96 Q 116.7 86.3 95.5 85 L 94.5 86 L 80.5 86 L 64.5 91 L 64.5 90 Q 73.8 84.3 86.5 82 Z " /><path fill="rgb(146,196,77)" stroke="rgb(146,196,77)" stroke-width="1" opacity="1" d="M 61.5 92 L 58.5 96 L 61.5 92 Z " /><path fill="rgb(146,196,77)" stroke="rgb(146,196,77)" stroke-width="1" opacity="1" d="M 57.5 97 L 56.5 99 L 57.5 97 Z " /><path fill="rgb(146,196,77)" stroke="rgb(146,196,77)" stroke-width="1" opacity="1" d="M 65.5 99 L 69 99.5 L 65.5 100 L 65.5 99 Z " /><path fill="rgb(146,196,77)" stroke="rgb(146,196,77)" stroke-width="1" opacity="1" d="M 119.5 101 L 120.5 103 L 119.5 101 Z " /><path fill="rgb(146,196,77)" stroke="rgb(146,196,77)" stroke-width="1" opacity="1" d="M 60.5 104 L 61 106.5 L 60 106.5 L 60.5 104 Z " /><path fill="rgb(146,196,77)" stroke="rgb(146,196,77)" stroke-width="1" opacity="1" d="M 52.5 108 L 53 110.5 L 52 110.5 L 52.5 108 Z " /><path fill="rgb(146,196,77)" stroke="rgb(146,196,77)" stroke-width="1" opacity="1" d="M 75.5 108 L 76 109.5 L 73 111.5 L 75.5 108 Z " /><path fill="rgb(146,196,77)" stroke="rgb(146,196,77)" stroke-width="1" opacity="1" d="M 62.5 110 L 63.5 112 L 62.5 110 Z " /><path fill="rgb(146,196,77)" stroke="rgb(146,196,77)" stroke-width="1" opacity="1" d="M 106.5 110 L 108.5 113 L 106.5 110 Z " /><path fill="rgb(146,196,77)" stroke="rgb(146,196,77)" stroke-width="1" opacity="1" d="M 118.5 116 Q 124.3 115.2 126 118.5 Q 127.3 124.8 123.5 126 L 120 125.5 L 122 122.5 L 118.5 118 L 117 117.5 L 118.5 116 Z " /><path fill="rgb(146,196,77)" stroke="rgb(146,196,77)" stroke-width="1" opacity="1" d="M 53.5 117 L 54.5 119 L 53.5 117 Z " /><path fill="rgb(146,196,77)" stroke="rgb(146,196,77)" stroke-width="1" opacity="1" d="M 115.5 118 L 114.5 120 L 115.5 118 Z " /><path fill="rgb(146,196,77)" stroke="rgb(146,196,77)" stroke-width="1" opacity="1" d="M 64.5 122 L 67 122.5 L 64.5 123 L 64.5 122 Z " /><path fill="rgb(146,196,77)" stroke="rgb(146,196,77)" stroke-width="1" opacity="1" d="M 99.5 122 L 102 122.5 L 99.5 123 L 99.5 122 Z " /><path fill="rgb(146,196,77)" stroke="rgb(146,196,77)" stroke-width="1" opacity="1" d="M 71.5 123 L 75 123.5 L 71.5 124 L 71.5 123 Z " /><path fill="rgb(146,196,77)" stroke="rgb(146,196,77)" stroke-width="1" opacity="1" d="M 91.5 123 L 96 123.5 L 91.5 124 L 91.5 123 Z " /><path fill="rgb(146,196,77)" stroke="rgb(146,196,77)" stroke-width="1" opacity="1" d="M 61.5 128 L 64 128.5 L 61.5 129 L 61.5 128 Z " /><path fill="rgb(146,196,77)" stroke="rgb(146,196,77)" stroke-width="1" opacity="1" d="M 58.5 133 L 59 137.5 L 58 137.5 L 58.5 133 Z " /><path fill="rgb(146,196,77)" stroke="rgb(146,196,77)" stroke-width="1" opacity="1" d="M 122.5 185 L 123 188.5 L 122 188.5 L 122.5 185 Z " /><path fill="rgb(146,196,77)" stroke="rgb(146,196,77)" stroke-width="1" opacity="1" d="M 118.5 192 L 122 192 L 122 198.5 L 122.5 200 L 110.5 200 L 110 198.5 L 109 194 L 118.5 192 Z " /><path fill="rgb(59,87,43)" stroke="rgb(59,87,43)" stroke-width="1" opacity="0.996078431372549" d="M 108.5 61 L 112 61.5 L 108.5 62 L 108.5 61 Z " /><path fill="rgb(59,87,43)" stroke="rgb(59,87,43)" stroke-width="1" opacity="0.996078431372549" d="M 24.5 80 L 25 84.5 L 24 84.5 L 24.5 80 Z " /><path fill="rgb(59,87,43)" stroke="rgb(59,87,43)" stroke-width="1" opacity="0.996078431372549" d="M 89.5 81 L 92 81.5 L 89.5 82 L 89.5 81 Z " /><path fill="rgb(59,87,43)" stroke="rgb(59,87,43)" stroke-width="1" opacity="0.996078431372549" d="M 100.5 81 L 105 81.5 L 100.5 82 L 100.5 81 Z " /><path fill="rgb(59,87,43)" stroke="rgb(59,87,43)" stroke-width="1" opacity="0.996078431372549" d="M 58.5 86 L 55.5 90 L 58.5 86 Z " /><path fill="rgb(59,87,43)" stroke="rgb(59,87,43)" stroke-width="1" opacity="0.996078431372549" d="M 129.5 89 L 134.5 95 L 129.5 89 Z " /><path fill="rgb(59,87,43)" stroke="rgb(59,87,43)" stroke-width="1" opacity="0.996078431372549" d="M 137.5 89 L 140.5 93 L 137.5 89 Z " /><path fill="rgb(59,87,43)" stroke="rgb(59,87,43)" stroke-width="1" opacity="0.996078431372549" d="M 60.5 92 L 59.5 94 L 60.5 92 Z " /><path fill="rgb(59,87,43)" stroke="rgb(59,87,43)" stroke-width="1" opacity="0.996078431372549" d="M 113.5 100 L 116 100.5 L 113.5 101 L 113.5 100 Z " /><path fill="rgb(59,87,43)" stroke="rgb(59,87,43)" stroke-width="1" opacity="0.996078431372549" d="M 118.5 101 L 119.5 103 L 118.5 101 Z " /><path fill="rgb(59,87,43)" stroke="rgb(59,87,43)" stroke-width="1" opacity="0.996078431372549" d="M 106.5 106 L 107 108.5 L 106 108.5 L 106.5 106 Z " /><path fill="rgb(59,87,43)" stroke="rgb(59,87,43)" stroke-width="1" opacity="0.996078431372549" d="M 51.5 111 L 52 113.5 L 51 113.5 L 51.5 111 Z " /><path fill="rgb(59,87,43)" stroke="rgb(59,87,43)" stroke-width="1" opacity="0.996078431372549" d="M 116.5 118 L 115.5 120 L 116.5 118 Z " /><path fill="rgb(59,87,43)" stroke="rgb(59,87,43)" stroke-width="1" opacity="0.996078431372549" d="M 118.5 118 L 120.5 121 L 118.5 118 Z " /><path fill="rgb(59,87,43)" stroke="rgb(59,87,43)" stroke-width="1" opacity="0.996078431372549" d="M 143.5 118 L 144 125.5 L 143 125.5 L 143.5 118 Z " /><path fill="rgb(59,87,43)" stroke="rgb(59,87,43)" stroke-width="1" opacity="0.996078431372549" d="M 76.5 124 L 90 124.5 L 76.5 125 L 76.5 124 Z " /><path fill="rgb(59,87,43)" stroke="rgb(59,87,43)" stroke-width="1" opacity="0.996078431372549" d="M 20.5 138 L 23 139.5 L 27 148 L 18.5 153 L 16 153 L 15 147.5 Q 15.9 140.9 20.5 138 Z " /><path fill="rgb(59,87,43)" stroke="rgb(59,87,43)" stroke-width="1" opacity="0.996078431372549" d="M 31 152 Q 37.9 151 41 153 Q 42 159.4 36.5 161 L 33.5 162 Q 29.5 159.2 31 152 Z " /><path fill="rgb(59,87,43)" stroke="rgb(59,87,43)" stroke-width="1" opacity="0.996078431372549" d="M 122.5 192 L 123 195.5 L 122 195.5 L 122.5 192 Z " /><path fill="rgb(59,87,43)" stroke="rgb(59,87,43)" stroke-width="1" opacity="0.996078431372549" d="M 128 192 L 139.5 193 L 156 199.5 L 129 200 L 128 192 Z " /><path fill="rgb(82,67,53)" stroke="rgb(82,67,53)" stroke-width="1" opacity="1" d="M 107.5 37 L 109.5 40 L 107.5 37 Z " /><path fill="rgb(82,67,53)" stroke="rgb(82,67,53)" stroke-width="1" opacity="1" d="M 111.5 42 L 112.5 44 L 111.5 42 Z " /><path fill="rgb(82,67,53)" stroke="rgb(82,67,53)" stroke-width="1" opacity="1" d="M 89.5 47 L 87.5 50 L 89.5 47 Z " /><path fill="rgb(82,67,53)" stroke="rgb(82,67,53)" stroke-width="1" opacity="1" d="M 115.5 48 L 117.5 51 L 115.5 48 Z " /><path fill="rgb(82,67,53)" stroke="rgb(82,67,53)" stroke-width="1" opacity="1" d="M 119.5 51 L 122 51.5 L 119.5 52 L 119.5 51 Z " /><path fill="rgb(82,67,53)" stroke="rgb(82,67,53)" stroke-width="1" opacity="1" d="M 83.5 52 L 80.5 57 L 84.5 56 L 105.5 56 L 106.5 57 L 118.5 58 L 130 61.5 L 112.5 62 L 111.5 61 L 101.5 61 L 100.5 60 L 92.5 60 L 91.5 59 Q 83.5 59.7 79 58 L 83.5 52 Z " /><path fill="rgb(82,67,53)" stroke="rgb(82,67,53)" stroke-width="1" opacity="1" d="M 135.5 61 L 138 61.5 L 135.5 62 L 135.5 61 Z " /><path fill="rgb(82,67,53)" stroke="rgb(82,67,53)" stroke-width="1" opacity="1" d="M 109.5 67 L 112 67.5 L 109.5 68 L 109.5 67 Z " /><path fill="rgb(82,67,53)" stroke="rgb(82,67,53)" stroke-width="1" opacity="1" d="M 130.5 67 L 134 67.5 L 130.5 68 L 130.5 67 Z " /><path fill="rgb(82,67,53)" stroke="rgb(82,67,53)" stroke-width="1" opacity="1" d="M 172.5 68 L 174.5 71 L 172.5 68 Z " /><path fill="rgb(82,67,53)" stroke="rgb(82,67,53)" stroke-width="1" opacity="1" d="M 175.5 72 L 176.5 74 L 175.5 72 Z " /><path fill="rgb(82,67,53)" stroke="rgb(82,67,53)" stroke-width="1" opacity="1" d="M 25.5 74 L 26 76.5 L 25 76.5 L 25.5 74 Z " /><path fill="rgb(82,67,53)" stroke="rgb(82,67,53)" stroke-width="1" opacity="1" d="M 72.5 75 L 107 75.5 L 83.5 76 L 75.5 78 L 61.5 84 L 55 89.5 L 47 102.5 L 46.5 108 Q 43.4 103.2 45 93.5 L 51.5 84 Q 59.6 77.1 72.5 75 Z " /><path fill="rgb(82,67,53)" stroke="rgb(82,67,53)" stroke-width="1" opacity="1" d="M 177.5 75 L 180 78.5 L 178 77.5 L 177.5 75 Z " /><path fill="rgb(82,67,53)" stroke="rgb(82,67,53)" stroke-width="1" opacity="1" d="M 110.5 76 L 113 76.5 L 110.5 77 L 110.5 76 Z " /><path fill="rgb(82,67,53)" stroke="rgb(82,67,53)" stroke-width="1" opacity="1" d="M 92.5 81 L 97 81.5 L 92.5 82 L 92.5 81 Z " /><path fill="rgb(82,67,53)" stroke="rgb(82,67,53)" stroke-width="1" opacity="1" d="M 133.5 84 L 148.5 92 L 155 98.5 Q 158.1 103.9 157 113.5 L 150 120.5 L 149.5 124 L 149 112.5 L 146 100.5 L 133.5 84 Z " /><path fill="rgb(82,67,53)" stroke="rgb(82,67,53)" stroke-width="1" opacity="1" d="M 25.5 88 L 26 90.5 L 25 90.5 L 25.5 88 Z " /><path fill="rgb(82,67,53)" stroke="rgb(82,67,53)" stroke-width="1" opacity="1" d="M 183.5 91 L 184 96.5 L 183 96.5 L 183.5 91 Z " /><path fill="rgb(82,67,53)" stroke="rgb(82,67,53)" stroke-width="1" opacity="1" d="M 28.5 97 L 29.5 99 L 28.5 97 Z " /><path fill="rgb(82,67,53)" stroke="rgb(82,67,53)" stroke-width="1" opacity="1" d="M 31.5 101 L 34.5 105 L 31.5 101 Z " /><path fill="rgb(82,67,53)" stroke="rgb(82,67,53)" stroke-width="1" opacity="1" d="M 183.5 102 L 184 105.5 L 183 105.5 L 183.5 102 Z " /><path fill="rgb(82,67,53)" stroke="rgb(82,67,53)" stroke-width="1" opacity="1" d="M 37.5 106 L 38.5 108 L 37.5 106 Z " /><path fill="rgb(82,67,53)" stroke="rgb(82,67,53)" stroke-width="1" opacity="1" d="M 179.5 111 L 176.5 115 L 179.5 111 Z " /><path fill="rgb(82,67,53)" stroke="rgb(82,67,53)" stroke-width="1" opacity="1" d="M 174.5 115 L 173.5 117 L 174.5 115 Z " /><path fill="rgb(82,67,53)" stroke="rgb(82,67,53)" stroke-width="1" opacity="1" d="M 152.5 123 L 158 123.5 L 152.5 124 L 152.5 123 Z " /><path fill="rgb(0,0,0)" stroke="rgb(0,0,0)" stroke-width="1" opacity="0.996078431372549" d="M 104.5 32 L 109.5 32 L 114 36.5 L 120.5 46 L 136.5 43 L 141 46.5 Q 145.6 52.1 146 61 L 154.5 61 L 167.5 58 L 179 67.5 L 187 81.5 L 189 89.5 L 189 107.5 Q 186 115 179.5 119 L 166.5 127 L 159.5 129 L 149.5 129 L 148 130.5 L 147 137.5 L 132 168.5 L 128 185.5 L 129.5 187 L 135.5 187 L 148.5 190 Q 158.1 192.9 164 199.5 L 157.5 200 L 145.5 194 L 128 191 L 128 200 L 124 200 Q 121.8 196.4 123 187.5 L 130 161.5 L 142 136.5 L 144 127.5 L 144 114.5 L 139 98.5 L 130.5 89 L 125.5 86 L 108.5 81 L 86.5 81 L 69.5 86 Q 61.4 88.9 57 95.5 Q 50.4 101.9 51 115.5 L 55.5 121 L 72.5 125 L 94.5 125 L 95.5 124 L 106.5 123 L 118.5 119 Q 121.3 120.4 120 125 L 113.5 125 L 96.5 129 L 70.5 129 L 69.5 128 L 59 128 Q 56.7 131.6 58 140.5 L 65 150.5 L 65 160.5 L 63 164.5 Q 64.5 170 62 171.5 L 62 192.5 L 64 200 L 59 200 L 59 196.5 L 58 195.5 L 57 180.5 L 58 179.5 L 58 168.5 L 61 158.5 L 61 152.5 L 55 144.5 L 53 138.5 L 53 133.5 L 54 130 Q 43.1 134.4 36 143.5 L 35 147 Q 42.3 146 45 150.5 L 46 156.5 L 39.5 165 L 32.5 167 L 27 162.5 L 26 155 L 19.5 158 L 14.5 158 L 11 154.5 L 10 147.5 L 13 138.5 L 17.5 134 L 21.5 133 L 26 135.5 L 30.5 143 Q 39.6 131.6 53 124.5 Q 47.7 121.8 47 116 L 36.5 113 L 26 103.5 L 21 95.5 L 19 79.5 L 21 69.5 L 25 60.5 L 32.5 53 L 39.5 49 L 43.5 49 L 60.5 55 L 72.5 57 L 80.5 48 Q 90.4 37.9 104.5 32 Z M 107 36 L 97 41 L 83 52 L 78 58 L 80 59 Q 84 58 86 60 L 114 62 L 115 63 L 141 62 Q 142 52 136 48 L 131 48 L 120 51 L 109 37 L 107 36 Z M 40 54 L 36 56 L 29 63 L 24 77 L 25 94 L 31 103 Q 36 109 46 112 L 47 111 L 48 103 L 53 94 Q 58 86 68 82 L 79 78 L 90 76 L 112 77 L 133 85 L 145 101 L 149 119 L 148 123 L 150 125 L 158 125 L 165 123 L 178 115 L 185 105 L 185 94 L 183 84 L 177 73 L 167 63 L 151 66 L 139 66 L 138 67 L 108 67 L 107 66 L 89 65 L 70 61 L 64 61 L 57 59 L 55 57 L 40 54 Z M 20 138 L 15 146 Q 13 152 17 154 L 27 148 L 24 141 Q 23 138 20 138 Z M 33 151 L 30 154 L 31 161 L 33 162 L 38 161 L 42 156 L 41 152 L 33 151 Z " /><path fill="rgb(0,0,0)" stroke="rgb(0,0,0)" stroke-width="1" opacity="0.996078431372549" d="M 65.5 100 L 70.5 101 L 74 104.5 L 75 108.5 Q 73.5 113.5 65.5 112 Q 60.8 110.8 62 103.5 L 63 101 L 65.5 100 Z " /><path fill="rgb(0,0,0)" stroke="rgb(0,0,0)" stroke-width="1" opacity="0.996078431372549" d="M 111.5 101 Q 118 100 120 103.5 Q 121 110 116.5 111 L 109.5 112 Q 106 111 107 105.5 L 111.5 101 Z " /><path fill="rgb(251,252,165)" stroke="rgb(251,252,165)" stroke-width="1" opacity="1" d="M 114.5 126 Q 120.3 123.9 119 128.5 L 120 129.5 L 120 137.5 L 118 148.5 L 111 168.5 L 110 179.5 L 109 180.5 L 109 193.5 L 108 194.5 L 109 200 L 65.5 200 Q 64.5 200 65 195.5 L 63 190.5 L 63 172.5 Q 65.5 171 64 165.5 L 66 161.5 L 66 149.5 L 59 139.5 L 59 131.5 L 60 129 L 68.5 129 L 69.5 130 L 97.5 130 L 114.5 126 Z " /><path fill="rgb(194,228,68)" stroke="rgb(194,228,68)" stroke-width="1" opacity="1" d="M 95.5 85 Q 119.9 86.6 133 99.5 L 138 115.5 L 139 127.5 L 132 154.5 L 125 172.5 L 122 185.5 L 122 192 L 112.5 193 L 108.5 195 L 109 193.5 L 110 173.5 L 113 160.5 L 118 148.5 L 120 137.5 L 120 129.5 L 119 126 Q 124.5 127.3 126 123.5 Q 127.3 118.3 124.5 117 L 118.5 116 L 113.5 120 L 104.5 122 L 91.5 123 L 90.5 124 L 75.5 124 L 74.5 123 L 61.5 122 Q 55.8 120.8 53 116.5 L 52 111.5 Q 54.3 97.8 63.5 91 L 80.5 86 L 94.5 86 L 95.5 85 Z M 66 99 L 64 100 L 60 105 L 62 111 L 66 113 L 74 112 Q 77 111 76 105 Q 73 100 66 99 Z M 111 100 Q 105 102 106 111 L 112 114 L 118 112 Q 123 111 121 103 Q 118 99 111 100 Z " /></svg>