<svg width="200" height="200" version="1.1" xmlns="http://www.w3.org/2000/svg" desc="Created with imagetracer.js version 1.2.6" ><path fill="rgb(0,0,0)" stroke="rgb(0,0,0)" stroke-width="1" opacity="0.09019607843137255" d="M 75.5 17 Q 80.3 16.3 81 19.5 L 82 27.5 L 81 27.5 L 80 19.5 L 78.5 18 Q 73.8 17.3 73 20.5 L 64.5 34 L 65 32.5 L 75.5 17 Z " /><path fill="rgb(0,0,0)" stroke="rgb(0,0,0)" stroke-width="1" opacity="0.09019607843137255" d="M 82.5 29 L 83 32.5 L 82 32.5 L 82.5 29 Z " /><path fill="rgb(0,0,0)" stroke="rgb(0,0,0)" stroke-width="1" opacity="0.09019607843137255" d="M 83.5 34 L 87 49.5 L 86 49.5 L 83 37.5 L 83.5 34 Z " /><path fill="rgb(0,0,0)" stroke="rgb(0,0,0)" stroke-width="1" opacity="0.09019607843137255" d="M 179.5 34 Q 184.3 33.3 185 36.5 L 184.5 40 L 182.5 35 Q 178.5 35.7 179.5 34 Z " /><path fill="rgb(0,0,0)" stroke="rgb(0,0,0)" stroke-width="1" opacity="0.09019607843137255" d="M 63.5 35 L 63 36.5 L 59.5 43 L 60 41.5 L 63.5 35 Z " /><path fill="rgb(0,0,0)" stroke="rgb(0,0,0)" stroke-width="1" opacity="0.09019607843137255" d="M 177.5 35 L 176.5 37 L 177.5 35 Z " /><path fill="rgb(0,0,0)" stroke="rgb(0,0,0)" stroke-width="1" opacity="0.09019607843137255" d="M 174.5 37 L 172.5 40 L 169.5 42 L 171.5 39 L 174.5 37 Z " /><path fill="rgb(0,0,0)" stroke="rgb(0,0,0)" stroke-width="1" opacity="0.09019607843137255" d="M 106.5 41 L 110 42.5 L 108.5 43 L 106.5 42 L 88.5 55 L 90.5 52 L 106.5 41 Z " /><path fill="rgb(0,0,0)" stroke="rgb(0,0,0)" stroke-width="1" opacity="0.09019607843137255" d="M 167.5 42 L 164.5 46 L 144.5 62 L 140 64 L 139 58.5 L 140 58.5 L 141.5 63 L 167.5 42 Z " /><path fill="rgb(0,0,0)" stroke="rgb(0,0,0)" stroke-width="1" opacity="0.09019607843137255" d="M 58.5 44 L 58 45.5 L 56.5 49 L 56 47.5 L 58.5 44 Z " /><path fill="rgb(0,0,0)" stroke="rgb(0,0,0)" stroke-width="1" opacity="0.09019607843137255" d="M 110.5 44 L 111 46.5 L 110 46.5 L 110.5 44 Z " /><path fill="rgb(0,0,0)" stroke="rgb(0,0,0)" stroke-width="1" opacity="0.09019607843137255" d="M 182.5 44 L 183 45.5 L 178.5 60 L 178 57.5 L 182.5 44 Z " /><path fill="rgb(0,0,0)" stroke="rgb(0,0,0)" stroke-width="1" opacity="0.09019607843137255" d="M 132.5 47 Q 136.3 46.3 137 48.5 L 135.5 48 Q 130.9 47.4 129.5 50 L 130.5 48 L 132.5 47 Z " /><path fill="rgb(0,0,0)" stroke="rgb(0,0,0)" stroke-width="1" opacity="0.09019607843137255" d="M 127.5 50 L 126.5 52 L 115.5 61 L 112 51.5 L 113 51.5 L 115 59 L 127.5 50 Z " /><path fill="rgb(0,0,0)" stroke="rgb(0,0,0)" stroke-width="1" opacity="0.09019607843137255" d="M 137.5 50 L 138 52.5 L 137 52.5 L 137.5 50 Z " /><path fill="rgb(0,0,0)" stroke="rgb(0,0,0)" stroke-width="1" opacity="0.09019607843137255" d="M 54.5 52 L 55 53.5 L 51.5 60 L 51 58.5 L 54.5 52 Z " /><path fill="rgb(0,0,0)" stroke="rgb(0,0,0)" stroke-width="1" opacity="0.09019607843137255" d="M 138.5 54 L 139 56.5 L 138 56.5 L 138.5 54 Z " /><path fill="rgb(0,0,0)" stroke="rgb(0,0,0)" stroke-width="1" opacity="0.09019607843137255" d="M 50.5 61 L 51 62.5 L 48.5 67 L 48 65.5 L 50.5 61 Z " /><path fill="rgb(0,0,0)" stroke="rgb(0,0,0)" stroke-width="1" opacity="0.09019607843137255" d="M 177.5 61 L 178 63.5 L 176.5 67 L 176 64.5 L 177.5 61 Z " /><path fill="rgb(0,0,0)" stroke="rgb(0,0,0)" stroke-width="1" opacity="0.09019607843137255" d="M 47.5 68 L 48 69.5 L 45.5 74 L 45 72.5 L 47.5 68 Z " /><path fill="rgb(0,0,0)" stroke="rgb(0,0,0)" stroke-width="1" opacity="0.09019607843137255" d="M 175.5 68 L 176 70.5 L 175 70.5 L 175.5 68 Z " /><path fill="rgb(0,0,0)" stroke="rgb(0,0,0)" stroke-width="1" opacity="0.09019607843137255" d="M 174.5 72 L 175 74.5 L 174 74.5 L 174.5 72 Z " /><path fill="rgb(0,0,0)" stroke="rgb(0,0,0)" stroke-width="1" opacity="0.09019607843137255" d="M 44.5 75 L 45 76.5 L 43.5 79 L 43 77.5 L 44.5 75 Z " /><path fill="rgb(0,0,0)" stroke="rgb(0,0,0)" stroke-width="1" opacity="0.09019607843137255" d="M 173.5 76 L 174 79.5 L 171.5 88 L 171 84.5 L 173.5 76 Z " /><path fill="rgb(0,0,0)" stroke="rgb(0,0,0)" stroke-width="1" opacity="0.09019607843137255" d="M 42.5 80 L 43 81.5 L 41.5 84 L 41 82.5 L 42.5 80 Z " /><path fill="rgb(0,0,0)" stroke="rgb(0,0,0)" stroke-width="1" opacity="0.09019607843137255" d="M 40.5 85 L 41 86.5 L 36 99.5 L 36 102.5 L 32.5 107 L 24 112 L 17.5 125 L 17 123.5 Q 19.5 115 25.5 110 L 34 104.5 L 40.5 85 Z " /><path fill="rgb(0,0,0)" stroke="rgb(0,0,0)" stroke-width="1" opacity="0.09019607843137255" d="M 170.5 89 L 171 91.5 L 170 91.5 L 170.5 89 Z " /><path fill="rgb(0,0,0)" stroke="rgb(0,0,0)" stroke-width="1" opacity="0.09019607843137255" d="M 169.5 93 L 170 95.5 L 169 95.5 L 169.5 93 Z " /><path fill="rgb(0,0,0)" stroke="rgb(0,0,0)" stroke-width="1" opacity="0.09019607843137255" d="M 168.5 97 L 169 100.5 L 165.5 113 L 165 109.5 L 168.5 97 Z " /><path fill="rgb(0,0,0)" stroke="rgb(0,0,0)" stroke-width="1" opacity="0.09019607843137255" d="M 164.5 114 L 165 117.5 L 163.5 122 L 163 118.5 L 164.5 114 Z " /><path fill="rgb(0,0,0)" stroke="rgb(0,0,0)" stroke-width="1" opacity="0.09019607843137255" d="M 162.5 123 L 163 125.5 L 162 125.5 L 162.5 123 Z " /><path fill="rgb(0,0,0)" stroke="rgb(0,0,0)" stroke-width="1" opacity="0.09019607843137255" d="M 15.5 129 L 16 139.5 L 15 139.5 L 15.5 129 Z " /><path fill="rgb(0,0,0)" stroke="rgb(0,0,0)" stroke-width="1" opacity="0.09019607843137255" d="M 164.5 131 L 170 134.5 L 171 143.5 L 168.5 151 L 168 148.5 Q 171 144.5 170 136.5 L 169 134 Q 163.9 133.5 164.5 131 Z " /><path fill="rgb(0,0,0)" stroke="rgb(0,0,0)" stroke-width="1" opacity="0.09019607843137255" d="M 16.5 141 Q 19.2 151.7 28 156.5 L 25.5 163 L 25 159.5 L 27 156.5 L 18 147.5 Q 15 145 16.5 141 Z " /><path fill="rgb(0,0,0)" stroke="rgb(0,0,0)" stroke-width="1" opacity="0.09019607843137255" d="M 167.5 152 L 168 156.5 L 164.5 163 Q 161.9 162.2 163 165.5 L 162 170 L 170 171.5 L 167.5 172 L 160 170.5 L 162 163.5 L 166 159.5 L 167.5 152 Z " /><path fill="rgb(0,0,0)" stroke="rgb(0,0,0)" stroke-width="1" opacity="0.09019607843137255" d="M 25.5 170 Q 26.4 175.6 30.5 178 Q 39.3 183.4 52 184 L 42.5 200 L 43 198.5 L 51 185.5 L 33.5 181 L 26 174.5 L 25.5 170 Z " /><path fill="rgb(0,0,0)" stroke="rgb(0,0,0)" stroke-width="1" opacity="0.09019607843137255" d="M 171.5 172 Q 179.8 172.8 183 178.5 L 182.5 180 L 178.5 175 L 171.5 173 L 171.5 172 Z " /><path fill="rgb(0,0,0)" stroke="rgb(0,0,0)" stroke-width="1" opacity="0.09019607843137255" d="M 183.5 181 L 185 185.5 L 184 185.5 L 183.5 181 Z " /><path fill="rgb(0,0,0)" stroke="rgb(0,0,0)" stroke-width="1" opacity="0.09019607843137255" d="M 185.5 187 L 186 192.5 L 185 192.5 L 185.5 187 Z " /><path fill="rgb(0,0,0)" stroke="rgb(0,0,0)" stroke-width="1" opacity="0.09019607843137255" d="M 185.5 195 L 186 199.5 L 185 199.5 L 185.5 195 Z " /><path fill="rgb(0,0,0)" stroke="rgb(0,0,0)" stroke-width="1" opacity="0.8274509803921568" d="M 75.5 18 L 73.5 21 L 75.5 18 Z " /><path fill="rgb(0,0,0)" stroke="rgb(0,0,0)" stroke-width="1" opacity="0.8274509803921568" d="M 78.5 18 Q 80.8 18.8 80 22.5 L 79 22.5 L 78.5 18 Z " /><path fill="rgb(0,0,0)" stroke="rgb(0,0,0)" stroke-width="1" opacity="0.8274509803921568" d="M 72.5 22 L 72 23.5 L 68.5 29 L 69 27.5 L 72.5 22 Z " /><path fill="rgb(0,0,0)" stroke="rgb(0,0,0)" stroke-width="1" opacity="0.8274509803921568" d="M 81.5 28 L 82 30.5 L 81 30.5 L 81.5 28 Z " /><path fill="rgb(0,0,0)" stroke="rgb(0,0,0)" stroke-width="1" opacity="0.8274509803921568" d="M 67.5 30 L 66.5 32 L 67.5 30 Z " /><path fill="rgb(0,0,0)" stroke="rgb(0,0,0)" stroke-width="1" opacity="0.8274509803921568" d="M 65.5 33 L 65 34.5 L 63.5 37 L 64 35.5 L 65.5 33 Z " /><path fill="rgb(0,0,0)" stroke="rgb(0,0,0)" stroke-width="1" opacity="0.8274509803921568" d="M 82.5 33 L 83 35.5 L 82 35.5 L 82.5 33 Z " /><path fill="rgb(0,0,0)" stroke="rgb(0,0,0)" stroke-width="1" opacity="0.8274509803921568" d="M 178.5 35 L 180 35.5 L 173.5 40 L 175.5 37 L 178.5 35 Z " /><path fill="rgb(0,0,0)" stroke="rgb(0,0,0)" stroke-width="1" opacity="0.8274509803921568" d="M 182.5 35 Q 185 36 184 40.5 L 183 40.5 L 182.5 35 Z " /><path fill="rgb(0,0,0)" stroke="rgb(0,0,0)" stroke-width="1" opacity="0.8274509803921568" d="M 83.5 38 L 84 40.5 L 83 40.5 L 83.5 38 Z " /><path fill="rgb(0,0,0)" stroke="rgb(0,0,0)" stroke-width="1" opacity="0.8274509803921568" d="M 171.5 40 L 169.5 43 L 165.5 46 L 168.5 42 L 171.5 40 Z " /><path fill="rgb(0,0,0)" stroke="rgb(0,0,0)" stroke-width="1" opacity="0.8274509803921568" d="M 60.5 42 L 60 43.5 L 55.5 53 L 55 51.5 L 60.5 42 Z " /><path fill="rgb(0,0,0)" stroke="rgb(0,0,0)" stroke-width="1" opacity="0.8274509803921568" d="M 182.5 42 L 183 43.5 L 181.5 46 L 181 44.5 L 182.5 42 Z " /><path fill="rgb(0,0,0)" stroke="rgb(0,0,0)" stroke-width="1" opacity="0.8274509803921568" d="M 104.5 43 L 103.5 45 L 88.5 56 L 87 53.5 L 88 53.5 L 88.5 55 L 104.5 43 Z " /><path fill="rgb(0,0,0)" stroke="rgb(0,0,0)" stroke-width="1" opacity="0.8274509803921568" d="M 163.5 46 L 160.5 50 L 163.5 46 Z " /><path fill="rgb(0,0,0)" stroke="rgb(0,0,0)" stroke-width="1" opacity="0.8274509803921568" d="M 135.5 48 L 136.5 50 L 135.5 48 Z " /><path fill="rgb(0,0,0)" stroke="rgb(0,0,0)" stroke-width="1" opacity="0.8274509803921568" d="M 130.5 49 L 129.5 51 L 121.5 57 L 125.5 52 L 130.5 49 Z " /><path fill="rgb(0,0,0)" stroke="rgb(0,0,0)" stroke-width="1" opacity="0.8274509803921568" d="M 158.5 50 L 155.5 54 L 150.5 58 L 154.5 53 L 158.5 50 Z " /><path fill="rgb(0,0,0)" stroke="rgb(0,0,0)" stroke-width="1" opacity="0.8274509803921568" d="M 137.5 53 L 138 55.5 L 137 55.5 L 137.5 53 Z " /><path fill="rgb(0,0,0)" stroke="rgb(0,0,0)" stroke-width="1" opacity="0.8274509803921568" d="M 119.5 57 L 115.5 62 L 114 59.5 L 115 59.5 L 115.5 61 L 119.5 57 Z " /><path fill="rgb(0,0,0)" stroke="rgb(0,0,0)" stroke-width="1" opacity="0.8274509803921568" d="M 138.5 57 L 139 59.5 L 138 59.5 L 138.5 57 Z " /><path fill="rgb(0,0,0)" stroke="rgb(0,0,0)" stroke-width="1" opacity="0.8274509803921568" d="M 52.5 58 L 53 59.5 L 51.5 62 L 51 60.5 L 52.5 58 Z " /><path fill="rgb(0,0,0)" stroke="rgb(0,0,0)" stroke-width="1" opacity="0.8274509803921568" d="M 148.5 58 L 145.5 62 L 148.5 58 Z " /><path fill="rgb(0,0,0)" stroke="rgb(0,0,0)" stroke-width="1" opacity="0.8274509803921568" d="M 177.5 58 L 178 60.5 L 177 60.5 L 177.5 58 Z " /><path fill="rgb(0,0,0)" stroke="rgb(0,0,0)" stroke-width="1" opacity="0.8274509803921568" d="M 143.5 62 L 141.5 65 L 140 64.5 L 143.5 62 Z " /><path fill="rgb(0,0,0)" stroke="rgb(0,0,0)" stroke-width="1" opacity="0.8274509803921568" d="M 49.5 65 L 50 66.5 L 48.5 69 L 48 67.5 L 49.5 65 Z " /><path fill="rgb(0,0,0)" stroke="rgb(0,0,0)" stroke-width="1" opacity="0.8274509803921568" d="M 174.5 69 L 175 71.5 L 174 71.5 L 174.5 69 Z " /><path fill="rgb(0,0,0)" stroke="rgb(0,0,0)" stroke-width="1" opacity="0.8274509803921568" d="M 46.5 72 L 47 73.5 L 45.5 76 L 45 74.5 L 46.5 72 Z " /><path fill="rgb(0,0,0)" stroke="rgb(0,0,0)" stroke-width="1" opacity="0.8274509803921568" d="M 173.5 73 L 174 75.5 L 173 75.5 L 173.5 73 Z " /><path fill="rgb(0,0,0)" stroke="rgb(0,0,0)" stroke-width="1" opacity="0.8274509803921568" d="M 172.5 77 L 173 79.5 L 172 79.5 L 172.5 77 Z " /><path fill="rgb(0,0,0)" stroke="rgb(0,0,0)" stroke-width="1" opacity="0.8274509803921568" d="M 170.5 86 L 171 88.5 L 170 88.5 L 170.5 86 Z " /><path fill="rgb(0,0,0)" stroke="rgb(0,0,0)" stroke-width="1" opacity="0.8274509803921568" d="M 169.5 90 L 170 92.5 L 169 92.5 L 169.5 90 Z " /><path fill="rgb(0,0,0)" stroke="rgb(0,0,0)" stroke-width="1" opacity="0.8274509803921568" d="M 168.5 94 L 169 96.5 L 168 96.5 L 168.5 94 Z " /><path fill="rgb(0,0,0)" stroke="rgb(0,0,0)" stroke-width="1" opacity="0.8274509803921568" d="M 167.5 98 L 168 100.5 L 167 100.5 L 167.5 98 Z " /><path fill="rgb(0,0,0)" stroke="rgb(0,0,0)" stroke-width="1" opacity="0.8274509803921568" d="M 35.5 103 L 36 104.5 L 33 106.5 L 35.5 103 Z " /><path fill="rgb(0,0,0)" stroke="rgb(0,0,0)" stroke-width="1" opacity="0.8274509803921568" d="M 31.5 107 L 30.5 109 L 27.5 111 L 29.5 108 L 31.5 107 Z " /><path fill="rgb(0,0,0)" stroke="rgb(0,0,0)" stroke-width="1" opacity="0.8274509803921568" d="M 164.5 111 L 165 113.5 L 164 113.5 L 164.5 111 Z " /><path fill="rgb(0,0,0)" stroke="rgb(0,0,0)" stroke-width="1" opacity="0.8274509803921568" d="M 23.5 114 L 21.5 117 L 23.5 114 Z " /><path fill="rgb(0,0,0)" stroke="rgb(0,0,0)" stroke-width="1" opacity="0.8274509803921568" d="M 163.5 115 L 164 117.5 L 163 117.5 L 163.5 115 Z " /><path fill="rgb(0,0,0)" stroke="rgb(0,0,0)" stroke-width="1" opacity="0.8274509803921568" d="M 162.5 120 L 163 122.5 L 162 122.5 L 162.5 120 Z " /><path fill="rgb(0,0,0)" stroke="rgb(0,0,0)" stroke-width="1" opacity="0.8274509803921568" d="M 161.5 124 L 162 126.5 L 161 126.5 L 161.5 124 Z " /><path fill="rgb(0,0,0)" stroke="rgb(0,0,0)" stroke-width="1" opacity="0.8274509803921568" d="M 16.5 128 L 17 130.5 L 16 130.5 L 16.5 128 Z " /><path fill="rgb(0,0,0)" stroke="rgb(0,0,0)" stroke-width="1" opacity="0.8274509803921568" d="M 160.5 128 L 161 130.5 L 160 130.5 L 160.5 128 Z " /><path fill="rgb(0,0,0)" stroke="rgb(0,0,0)" stroke-width="1" opacity="0.8274509803921568" d="M 165.5 132 L 166.5 134 L 165.5 132 Z " /><path fill="rgb(0,0,0)" stroke="rgb(0,0,0)" stroke-width="1" opacity="0.8274509803921568" d="M 16.5 138 L 17 140.5 L 16 140.5 L 16.5 138 Z " /><path fill="rgb(0,0,0)" stroke="rgb(0,0,0)" stroke-width="1" opacity="0.8274509803921568" d="M 169.5 140 L 170 143.5 L 169 143.5 L 169.5 140 Z " /><path fill="rgb(0,0,0)" stroke="rgb(0,0,0)" stroke-width="1" opacity="0.8274509803921568" d="M 19.5 147 L 27.5 156 L 19.5 147 Z " /><path fill="rgb(0,0,0)" stroke="rgb(0,0,0)" stroke-width="1" opacity="0.8274509803921568" d="M 167.5 149 L 168 151.5 L 167 151.5 L 167.5 149 Z " /><path fill="rgb(0,0,0)" stroke="rgb(0,0,0)" stroke-width="1" opacity="0.8274509803921568" d="M 166.5 154 L 167 156.5 L 166 156.5 L 166.5 154 Z " /><path fill="rgb(0,0,0)" stroke="rgb(0,0,0)" stroke-width="1" opacity="0.8274509803921568" d="M 165.5 158 L 166 159.5 Q 161.9 160.9 161.5 166 L 161 162 L 165 159.5 L 165.5 158 Z " /><path fill="rgb(0,0,0)" stroke="rgb(0,0,0)" stroke-width="1" opacity="0.8274509803921568" d="M 25.5 163 L 26 169.5 L 25 169.5 L 25.5 163 Z " /><path fill="rgb(0,0,0)" stroke="rgb(0,0,0)" stroke-width="1" opacity="0.8274509803921568" d="M 160.5 168 L 161 169.5 L 159 170.5 L 160.5 168 Z " /><path fill="rgb(0,0,0)" stroke="rgb(0,0,0)" stroke-width="1" opacity="0.8274509803921568" d="M 26.5 171 L 31 177.5 L 27 174.5 L 26.5 171 Z " /><path fill="rgb(0,0,0)" stroke="rgb(0,0,0)" stroke-width="1" opacity="0.8274509803921568" d="M 164.5 171 L 167 171.5 L 164.5 172 L 164.5 171 Z " /><path fill="rgb(0,0,0)" stroke="rgb(0,0,0)" stroke-width="1" opacity="0.8274509803921568" d="M 168.5 172 L 171 172.5 L 168.5 173 L 168.5 172 Z " /><path fill="rgb(0,0,0)" stroke="rgb(0,0,0)" stroke-width="1" opacity="0.8274509803921568" d="M 175.5 174 L 182 178.5 L 183 181.5 L 182 181.5 L 178.5 176 Q 174.7 175.8 175.5 174 Z " /><path fill="rgb(0,0,0)" stroke="rgb(0,0,0)" stroke-width="1" opacity="0.8274509803921568" d="M 32.5 178 L 35 179.5 L 33.5 180 L 32.5 178 Z " /><path fill="rgb(0,0,0)" stroke="rgb(0,0,0)" stroke-width="1" opacity="0.8274509803921568" d="M 39.5 181 L 42 181.5 L 39.5 182 L 39.5 181 Z " /><path fill="rgb(0,0,0)" stroke="rgb(0,0,0)" stroke-width="1" opacity="0.8274509803921568" d="M 47.5 183 L 50 183.5 L 47.5 184 L 47.5 183 Z " /><path fill="rgb(0,0,0)" stroke="rgb(0,0,0)" stroke-width="1" opacity="0.8274509803921568" d="M 52.5 184 L 53 185.5 L 51 186.5 L 52.5 184 Z " /><path fill="rgb(0,0,0)" stroke="rgb(0,0,0)" stroke-width="1" opacity="0.8274509803921568" d="M 184.5 186 L 185 188.5 L 184 188.5 L 184.5 186 Z " /><path fill="rgb(0,0,0)" stroke="rgb(0,0,0)" stroke-width="1" opacity="0.8274509803921568" d="M 50.5 188 L 49.5 190 L 50.5 188 Z " /><path fill="rgb(0,0,0)" stroke="rgb(0,0,0)" stroke-width="1" opacity="0.8274509803921568" d="M 48.5 191 L 47.5 193 L 48.5 191 Z " /><path fill="rgb(0,0,0)" stroke="rgb(0,0,0)" stroke-width="1" opacity="0.8274509803921568" d="M 45.5 196 L 45 197.5 L 43.5 200 L 44 198.5 L 45.5 196 Z " /><path fill="rgb(0,0,0)" stroke="rgb(0,0,0)" stroke-width="1" opacity="0" d="M 0 0 L 200 0 L 200 200 L 186 200 L 186 187.5 L 183 178.5 L 178.5 174 L 166.5 170 L 162 170 L 163 163 L 166 161.5 L 171 143.5 L 171 136.5 L 168.5 133 L 161 129.5 L 165 117.5 L 165 113.5 L 169 100.5 L 176 67.5 L 185 36.5 Q 184.3 33.3 179.5 34 L 164.5 44 L 141.5 63 Q 138.3 58.3 138 50.5 L 135.5 47 L 130.5 48 L 115 59 L 110 42 L 106.5 41 L 88.5 54 L 81 24.5 L 81 19.5 L 78.5 17 Q 72.8 16.3 72 20.5 L 56 47.5 L 39 87.5 L 35 102.5 L 32.5 106 L 23 112.5 Q 17.3 119.3 15 129.5 L 15 139.5 Q 17.7 151.3 27 156.5 L 25 159.5 L 24 168.5 Q 25.1 175.9 30.5 179 Q 39 184 51 185.5 L 41.5 200 L 0.5 200 L 0 199.5 L 0 0 Z " /><path fill="rgb(240,91,94)" stroke="rgb(240,91,94)" stroke-width="1" opacity="1" d="M 161.5 69 L 162 70.5 Q 154.4 92.4 151 118.5 L 149.5 120 L 139.5 114 L 136.5 116 Q 127.9 108.6 115 105.5 L 126.5 90 L 138.5 98 L 161.5 69 Z " /><path fill="rgb(240,91,94)" stroke="rgb(240,91,94)" stroke-width="1" opacity="1" d="M 79.5 165 L 89.5 166 L 91 167.5 L 87.5 172 L 82.5 173 L 77 169.5 L 75 166.5 L 79.5 165 Z " /><path fill="rgb(240,91,94)" stroke="rgb(240,91,94)" stroke-width="1" opacity="1" d="M 94.5 173 L 93.5 175 L 94.5 173 Z " /><path fill="rgb(240,91,94)" stroke="rgb(240,91,94)" stroke-width="1" opacity="1" d="M 73.5 174 L 74.5 176 L 73.5 174 Z " /><path fill="rgb(240,91,94)" stroke="rgb(240,91,94)" stroke-width="1" opacity="1" d="M 78 188 L 91 188 L 91 199.5 L 90 199.5 L 90 193 L 86.5 193 Q 85 190.5 79.5 192 L 78 190.5 L 78 188 Z " /><path fill="rgb(240,91,94)" stroke="rgb(240,91,94)" stroke-width="1" opacity="1" d="M 77.5 192 L 78 194.5 L 77 194.5 L 77.5 192 Z " /><path fill="rgb(253,213,46)" stroke="rgb(253,213,46)" stroke-width="1" opacity="1" d="M 174.5 45 L 176 45.5 L 166 80.5 L 157 122.5 L 153.5 129 Q 148.3 130.3 147 127.5 L 141.5 119 L 138 116.5 L 139.5 114 L 149.5 120 L 152 114.5 L 155 95.5 L 162 69.5 L 157 73.5 L 138.5 98 L 126.5 90 L 114.5 106 L 89.5 99 L 66.5 97 L 65.5 98 L 55.5 98 L 49.5 100 L 49 97.5 Q 57.2 68.7 73.5 48 Q 78.2 62.8 86.5 74 L 100.5 59 L 102.5 58 L 104 62.5 L 114.5 77 L 133.5 61 L 138 74 Q 141.8 74.8 143 71.5 L 145.5 68 L 174.5 45 Z " /><path fill="rgb(253,213,46)" stroke="rgb(253,213,46)" stroke-width="1" opacity="1" d="M 78.5 191 L 90 193 L 90 200 L 77 200 L 78.5 191 Z " /><path fill="rgb(242,226,199)" stroke="rgb(242,226,199)" stroke-width="1" opacity="1" d="M 75.5 29 L 80 50.5 L 84 61.5 L 86.5 64 L 89.5 63 L 104.5 50 L 112 70 L 114.5 70 L 120 65.5 L 121.5 63 L 131.5 56 Q 134.3 57.4 133 62 L 128.5 64 L 114.5 77 L 104 62.5 L 102.5 58 L 89 70.5 L 86.5 74 Q 78.2 62.8 73.5 48 Q 56.1 69.5 49 100 L 42.5 102 L 42 99.5 L 61 52.5 Q 66.6 39.1 75.5 29 Z " /><path fill="rgb(242,226,199)" stroke="rgb(242,226,199)" stroke-width="1" opacity="1" d="M 51.5 126 L 53.5 126 L 67 137.5 L 64.5 141 L 51.5 142 Q 46 140 48 130.5 L 51.5 126 Z " /><path fill="rgb(242,226,199)" stroke="rgb(242,226,199)" stroke-width="1" opacity="1" d="M 113.5 133 L 116 134.5 L 116 141.5 L 114 145 Q 110.6 148.7 100.5 147 L 94 142.5 Q 92.1 137.1 95.5 138 L 113.5 133 Z " /><path fill="rgb(242,226,199)" stroke="rgb(242,226,199)" stroke-width="1" opacity="1" d="M 148.5 156 L 155 157 Q 156.6 159.1 156 164.5 L 154 170 Q 151.3 171.9 144.5 171 L 137.5 175 L 114.5 181 L 89.5 182 L 88.5 181 L 71.5 181 L 70.5 180 L 60.5 180 L 59.5 179 L 47.5 178 L 37.5 175 L 32 170.5 L 31 163.5 L 33.5 160 L 42.5 162 L 60.5 162 L 66 161 Q 67.8 170.5 74.5 176 Q 78 180 86.5 179 Q 92.3 177.8 95 173.5 L 99.5 165 Q 108.4 169.6 121.5 170 L 134.5 167 L 144 161 L 146.5 157 L 148.5 156 Z " /><path fill="rgb(37,43,52)" stroke="rgb(37,43,52)" stroke-width="1" opacity="0.996078431372549" d="M 75.5 27 L 74.5 29 L 75.5 27 Z " /><path fill="rgb(37,43,52)" stroke="rgb(37,43,52)" stroke-width="1" opacity="0.996078431372549" d="M 120.5 63 L 119.5 65 L 120.5 63 Z " /><path fill="rgb(37,43,52)" stroke="rgb(37,43,52)" stroke-width="1" opacity="0.996078431372549" d="M 82.5 104 L 85 104.5 L 82.5 105 L 82.5 104 Z " /><path fill="rgb(37,43,52)" stroke="rgb(37,43,52)" stroke-width="1" opacity="0.996078431372549" d="M 82.5 110 L 85 110.5 L 82.5 111 L 82.5 110 Z " /><path fill="rgb(37,43,52)" stroke="rgb(37,43,52)" stroke-width="1" opacity="0.996078431372549" d="M 130.5 118 L 131.5 120 L 130.5 118 Z " /><path fill="rgb(37,43,52)" stroke="rgb(37,43,52)" stroke-width="1" opacity="0.996078431372549" d="M 119.5 120 L 120.5 122 L 119.5 120 Z " /><path fill="rgb(37,43,52)" stroke="rgb(37,43,52)" stroke-width="1" opacity="0.996078431372549" d="M 134.5 121 L 135.5 123 L 134.5 121 Z " /><path fill="rgb(37,43,52)" stroke="rgb(37,43,52)" stroke-width="1" opacity="0.996078431372549" d="M 124.5 123 L 127.5 127 L 124.5 123 Z " /><path fill="rgb(37,43,52)" stroke="rgb(37,43,52)" stroke-width="1" opacity="0.996078431372549" d="M 139.5 126 L 140.5 128 L 139.5 126 Z " /><path fill="rgb(37,43,52)" stroke="rgb(37,43,52)" stroke-width="1" opacity="0.996078431372549" d="M 120.5 127 L 124.5 132 L 120.5 127 Z " /><path fill="rgb(37,43,52)" stroke="rgb(37,43,52)" stroke-width="1" opacity="0.996078431372549" d="M 27.5 128 L 28 130.5 L 27 130.5 L 27.5 128 Z " /><path fill="rgb(37,43,52)" stroke="rgb(37,43,52)" stroke-width="1" opacity="0.996078431372549" d="M 21.5 132 L 22 136.5 L 21 136.5 L 21.5 132 Z " /><path fill="rgb(37,43,52)" stroke="rgb(37,43,52)" stroke-width="1" opacity="0.996078431372549" d="M 27.5 133 L 28 135.5 L 27 135.5 L 27.5 133 Z " /><path fill="rgb(37,43,52)" stroke="rgb(37,43,52)" stroke-width="1" opacity="0.996078431372549" d="M 143.5 136 L 144 138.5 L 143 138.5 L 143.5 136 Z " /><path fill="rgb(37,43,52)" stroke="rgb(37,43,52)" stroke-width="1" opacity="0.996078431372549" d="M 134.5 140 L 135 142.5 L 134 142.5 L 134.5 140 Z " /><path fill="rgb(37,43,52)" stroke="rgb(37,43,52)" stroke-width="1" opacity="0.996078431372549" d="M 64.5 141 L 70 141.5 L 64.5 142 L 64.5 141 Z " /><path fill="rgb(37,43,52)" stroke="rgb(37,43,52)" stroke-width="1" opacity="0.996078431372549" d="M 24.5 144 L 27.5 148 L 24.5 144 Z " /><path fill="rgb(37,43,52)" stroke="rgb(37,43,52)" stroke-width="1" opacity="0.996078431372549" d="M 33.5 144 L 34.5 146 L 33.5 144 Z " /><path fill="rgb(37,43,52)" stroke="rgb(37,43,52)" stroke-width="1" opacity="0.996078431372549" d="M 75.5 147 L 78 147.5 L 75.5 148 L 75.5 147 Z " /><path fill="rgb(37,43,52)" stroke="rgb(37,43,52)" stroke-width="1" opacity="0.996078431372549" d="M 149.5 148 L 153 149.5 L 149 150 L 149.5 148 Z " /><path fill="rgb(37,43,52)" stroke="rgb(37,43,52)" stroke-width="1" opacity="0.996078431372549" d="M 29.5 149 L 31.5 152 L 29.5 149 Z " /><path fill="rgb(37,43,52)" stroke="rgb(37,43,52)" stroke-width="1" opacity="0.996078431372549" d="M 130.5 151 L 128.5 154 L 130.5 151 Z " /><path fill="rgb(37,43,52)" stroke="rgb(37,43,52)" stroke-width="1" opacity="0.996078431372549" d="M 157.5 151 L 161 153.5 L 161.5 151 L 162 153.5 L 160.5 155 L 157.5 151 Z " /><path fill="rgb(37,43,52)" stroke="rgb(37,43,52)" stroke-width="1" opacity="0.996078431372549" d="M 34.5 152 L 35.5 154 L 34.5 152 Z " /><path fill="rgb(37,43,52)" stroke="rgb(37,43,52)" stroke-width="1" opacity="0.996078431372549" d="M 126.5 154 L 125.5 156 L 124 155.5 L 126.5 154 Z " /><path fill="rgb(37,43,52)" stroke="rgb(37,43,52)" stroke-width="1" opacity="0.996078431372549" d="M 41.5 155 L 46 155.5 L 41.5 156 L 41.5 155 Z " /><path fill="rgb(37,43,52)" stroke="rgb(37,43,52)" stroke-width="1" opacity="0.996078431372549" d="M 57.5 155 L 61 155.5 L 57.5 156 L 57.5 155 Z " /><path fill="rgb(37,43,52)" stroke="rgb(37,43,52)" stroke-width="1" opacity="0.996078431372549" d="M 82.5 155 L 85 155.5 L 82.5 156 L 82.5 155 Z " /><path fill="rgb(37,43,52)" stroke="rgb(37,43,52)" stroke-width="1" opacity="0.996078431372549" d="M 111.5 155 L 114 155.5 L 111.5 156 L 111.5 155 Z " /><path fill="rgb(37,43,52)" stroke="rgb(37,43,52)" stroke-width="1" opacity="0.996078431372549" d="M 119.5 156 L 122 156.5 L 119.5 157 L 119.5 156 Z " /><path fill="rgb(37,43,52)" stroke="rgb(37,43,52)" stroke-width="1" opacity="0.996078431372549" d="M 138.5 156 L 137.5 158 L 138.5 156 Z " /><path fill="rgb(37,43,52)" stroke="rgb(37,43,52)" stroke-width="1" opacity="0.996078431372549" d="M 154.5 156 L 155.5 158 L 154.5 156 Z " /><path fill="rgb(37,43,52)" stroke="rgb(37,43,52)" stroke-width="1" opacity="0.996078431372549" d="M 143.5 159 L 142.5 161 L 143.5 159 Z " /><path fill="rgb(37,43,52)" stroke="rgb(37,43,52)" stroke-width="1" opacity="0.996078431372549" d="M 63.5 160 L 66 160.5 L 63.5 161 L 63.5 160 Z " /><path fill="rgb(37,43,52)" stroke="rgb(37,43,52)" stroke-width="1" opacity="0.996078431372549" d="M 80.5 161 L 84 161.5 L 80.5 162 L 80.5 161 Z " /><path fill="rgb(37,43,52)" stroke="rgb(37,43,52)" stroke-width="1" opacity="0.996078431372549" d="M 156.5 161 L 157 164.5 L 156 164.5 L 156.5 161 Z " /><path fill="rgb(37,43,52)" stroke="rgb(37,43,52)" stroke-width="1" opacity="0.996078431372549" d="M 87.5 162 L 90 162.5 L 87.5 163 L 87.5 162 Z " /><path fill="rgb(37,43,52)" stroke="rgb(37,43,52)" stroke-width="1" opacity="0.996078431372549" d="M 116.5 163 L 123 163.5 L 116.5 164 L 116.5 163 Z " /><path fill="rgb(37,43,52)" stroke="rgb(37,43,52)" stroke-width="1" opacity="0.996078431372549" d="M 73.5 164 L 74.5 166 L 73.5 164 Z " /><path fill="rgb(37,43,52)" stroke="rgb(37,43,52)" stroke-width="1" opacity="0.996078431372549" d="M 95.5 171 L 91.5 176 L 95.5 171 Z " /><path fill="rgb(37,43,52)" stroke="rgb(37,43,52)" stroke-width="1" opacity="0.996078431372549" d="M 73.5 173 L 75.5 176 L 73.5 173 Z " /><path fill="rgb(37,43,52)" stroke="rgb(37,43,52)" stroke-width="1" opacity="0.996078431372549" d="M 63.5 180 L 67 180.5 L 63.5 181 L 63.5 180 Z " /><path fill="rgb(37,43,52)" stroke="rgb(37,43,52)" stroke-width="1" opacity="0.996078431372549" d="M 133.5 182 L 132.5 184 L 133.5 182 Z " /><path fill="rgb(37,43,52)" stroke="rgb(37,43,52)" stroke-width="1" opacity="0.996078431372549" d="M 120.5 185 L 122 185.5 L 117.5 189 L 120.5 185 Z " /><path fill="rgb(37,43,52)" stroke="rgb(37,43,52)" stroke-width="1" opacity="0.996078431372549" d="M 133.5 185 L 134.5 187 L 133.5 185 Z " /><path fill="rgb(37,43,52)" stroke="rgb(37,43,52)" stroke-width="1" opacity="0.996078431372549" d="M 69.5 186 L 72 186.5 L 69.5 187 L 69.5 186 Z " /><path fill="rgb(37,43,52)" stroke="rgb(37,43,52)" stroke-width="1" opacity="0.996078431372549" d="M 103.5 187 L 107 187.5 L 103.5 188 L 103.5 187 Z " /><path fill="rgb(37,43,52)" stroke="rgb(37,43,52)" stroke-width="1" opacity="0.996078431372549" d="M 128.5 188 L 129.5 190 L 128.5 188 Z " /><path fill="rgb(37,43,52)" stroke="rgb(37,43,52)" stroke-width="1" opacity="0.996078431372549" d="M 179.5 189 L 180 191.5 L 179 191.5 L 179.5 189 Z " /><path fill="rgb(92,208,212)" stroke="rgb(92,208,212)" stroke-width="1" opacity="1" d="M 39.5 110 L 42 114 Q 35 114.6 31.5 120 L 29 119 L 30 115 L 39.5 110 Z " /><path fill="rgb(92,208,212)" stroke="rgb(92,208,212)" stroke-width="1" opacity="1" d="M 64.5 115 L 82.5 116 L 98.5 119 L 115.5 125 L 124 131.5 Q 128.2 135.8 128 144.5 L 124.5 149 Q 121 151.5 113.5 150 L 103 147.5 Q 111 148.1 114 145 L 116 141.5 L 116 134.5 L 113.5 133 L 94 138 Q 92.8 144 97 145.5 L 95.5 145 L 76.5 141 L 65 140.5 L 67 137.5 L 53.5 126 L 51.5 126 Q 46.3 128.8 48 138.5 L 50.5 142 L 41.5 142 L 35 139 L 33 133.5 L 33 129.5 L 38.5 122 L 47.5 118 L 64.5 115 Z " /><path fill="rgb(92,208,212)" stroke="rgb(92,208,212)" stroke-width="1" opacity="1" d="M 155.5 136 L 164 138 Q 165.5 141.8 162.5 141 L 154 139 L 155.5 136 Z " /><path fill="rgb(53,65,87)" stroke="rgb(53,65,87)" stroke-width="1" opacity="1" d="M 63.5 103 L 68 103.5 L 63.5 104 L 63.5 103 Z " /><path fill="rgb(53,65,87)" stroke="rgb(53,65,87)" stroke-width="1" opacity="1" d="M 72.5 103 L 75 103.5 L 72.5 104 L 72.5 103 Z " /><path fill="rgb(53,65,87)" stroke="rgb(53,65,87)" stroke-width="1" opacity="1" d="M 55.5 104 L 58 104.5 L 55.5 105 L 55.5 104 Z " /><path fill="rgb(53,65,87)" stroke="rgb(53,65,87)" stroke-width="1" opacity="1" d="M 76 104 L 93.5 106 L 120.5 114 L 129.5 118 L 139 125.5 Q 144.7 133.3 144 147.5 L 140.5 154 Q 138.3 153.3 139 155.5 Q 132.3 164.8 114.5 163 L 95.5 157 L 84.5 155 L 57.5 155 L 56.5 156 L 46.5 156 L 36.5 154 L 28 149 L 22 139.5 L 22 128.5 L 23 128.5 Q 21.8 133.1 27 131 L 27 135.5 Q 28.8 142.7 34.5 146 L 40.5 148 L 58.5 148 L 59.5 147 L 74.5 147 L 90.5 150 L 106.5 155 L 121.5 157 Q 128.1 156.1 131 151.5 Q 134.7 147.7 135 140.5 Q 132.3 129.3 124.5 123 L 117.5 119 L 100.5 113 L 84.5 110 L 68 109.5 L 76 109 L 76 104 Z " /><path fill="rgb(53,65,87)" stroke="rgb(53,65,87)" stroke-width="1" opacity="1" d="M 61.5 109 L 67 109.5 L 61.5 110 L 61.5 109 Z " /><path fill="rgb(53,65,87)" stroke="rgb(53,65,87)" stroke-width="1" opacity="1" d="M 30.5 114 L 29.5 116 L 30.5 114 Z " /><path fill="rgb(53,65,87)" stroke="rgb(53,65,87)" stroke-width="1" opacity="1" d="M 27.5 118 L 26.5 120 L 27.5 118 Z " /><path fill="rgb(53,65,87)" stroke="rgb(53,65,87)" stroke-width="1" opacity="1" d="M 35.5 125 L 34.5 127 L 35.5 125 Z " /><path fill="rgb(53,65,87)" stroke="rgb(53,65,87)" stroke-width="1" opacity="1" d="M 149.5 135 L 150 137.5 L 149 137.5 L 149.5 135 Z " /><path fill="rgb(53,65,87)" stroke="rgb(53,65,87)" stroke-width="1" opacity="1" d="M 163.5 137 L 164.5 139 L 163.5 137 Z " /><path fill="rgb(53,65,87)" stroke="rgb(53,65,87)" stroke-width="1" opacity="1" d="M 150 139 L 158.5 140 L 164 142.5 L 160.5 154 Q 157.1 149.1 150 149 L 150 139 Z " /><path fill="rgb(53,65,87)" stroke="rgb(53,65,87)" stroke-width="1" opacity="1" d="M 70.5 141 L 75 141.5 L 70.5 142 L 70.5 141 Z " /><path fill="rgb(53,65,87)" stroke="rgb(53,65,87)" stroke-width="1" opacity="1" d="M 128.5 141 L 129 143.5 L 128 143.5 L 128.5 141 Z " /><path fill="rgb(53,65,87)" stroke="rgb(53,65,87)" stroke-width="1" opacity="1" d="M 45.5 142 L 54 142.5 L 45.5 143 L 45.5 142 Z " /><path fill="rgb(53,65,87)" stroke="rgb(53,65,87)" stroke-width="1" opacity="1" d="M 48.5 161 L 53 161.5 L 48.5 162 L 48.5 161 Z " /><path fill="rgb(53,65,87)" stroke="rgb(53,65,87)" stroke-width="1" opacity="1" d="M 73 161 L 92 163 Q 93.8 167.9 87.5 166 L 86.5 165 L 76.5 165 Q 74.7 167.8 73 163.5 L 73 161 Z " /><path fill="rgb(53,65,87)" stroke="rgb(53,65,87)" stroke-width="1" opacity="1" d="M 160.5 176 L 164 176.5 L 160.5 177 L 160.5 176 Z " /><path fill="rgb(53,65,87)" stroke="rgb(53,65,87)" stroke-width="1" opacity="1" d="M 143.5 178 L 144.5 179 L 164.5 181 L 177 186 Q 179.7 189 180 195.5 L 179 200 L 168.5 200 Q 165.9 193.6 156.5 194 Q 150.7 195.3 148.5 200 L 141.5 200 L 133 183.5 L 143 180 L 143.5 178 Z " /><path fill="rgb(53,65,87)" stroke="rgb(53,65,87)" stroke-width="1" opacity="1" d="M 175.5 180 L 176.5 182 L 175.5 180 Z " /><path fill="rgb(53,65,87)" stroke="rgb(53,65,87)" stroke-width="1" opacity="1" d="M 122.5 185 Q 127.3 184.3 128 187.5 Q 130.8 189.2 130 194.5 L 126.5 200 L 126 198 L 115.5 195 L 114 195.5 Q 115.5 189 120.5 186 L 122.5 185 Z " /><path fill="rgb(53,65,87)" stroke="rgb(53,65,87)" stroke-width="1" opacity="1" d="M 61 186 L 78 187.5 L 77 190 L 61 188 L 61 186 Z " /><path fill="rgb(53,65,87)" stroke="rgb(53,65,87)" stroke-width="1" opacity="1" d="M 107.5 187 Q 111.9 185.5 111 188.5 L 109 193 Q 102.5 190.9 92 192 L 92.5 188 L 106.5 188 L 107.5 187 Z " /><path fill="rgb(53,65,87)" stroke="rgb(53,65,87)" stroke-width="1" opacity="1" d="M 53.5 193 L 54.5 195 L 53.5 193 Z " /><path fill="rgb(53,65,87)" stroke="rgb(53,65,87)" stroke-width="1" opacity="1" d="M 52.5 195 L 51.5 197 L 52.5 195 Z " /><path fill="rgb(0,0,0)" stroke="rgb(0,0,0)" stroke-width="1" opacity="0.996078431372549" d="M 67.5 31 L 66.5 33 L 67.5 31 Z " /><path fill="rgb(0,0,0)" stroke="rgb(0,0,0)" stroke-width="1" opacity="0.996078431372549" d="M 180.5 35 L 183 36.5 L 181.5 36 L 180.5 35 Z " /><path fill="rgb(0,0,0)" stroke="rgb(0,0,0)" stroke-width="1" opacity="0.996078431372549" d="M 80 36 Q 84.9 34.4 83 40 Q 78.1 41.6 80 36 Z " /><path fill="rgb(0,0,0)" stroke="rgb(0,0,0)" stroke-width="1" opacity="0.996078431372549" d="M 63.5 37 L 64 40 L 62 39.5 L 63.5 37 Z " /><path fill="rgb(0,0,0)" stroke="rgb(0,0,0)" stroke-width="1" opacity="0.996078431372549" d="M 175.5 38 L 174.5 40 L 175.5 38 Z " /><path fill="rgb(0,0,0)" stroke="rgb(0,0,0)" stroke-width="1" opacity="0.996078431372549" d="M 172.5 40 L 171.5 42 L 172.5 40 Z " /><path fill="rgb(0,0,0)" stroke="rgb(0,0,0)" stroke-width="1" opacity="0.996078431372549" d="M 83.5 41 L 84 43.5 L 83 43.5 L 83.5 41 Z " /><path fill="rgb(0,0,0)" stroke="rgb(0,0,0)" stroke-width="1" opacity="0.996078431372549" d="M 105.5 43 L 109 43.5 L 104.5 45 L 105.5 43 Z " /><path fill="rgb(0,0,0)" stroke="rgb(0,0,0)" stroke-width="1" opacity="0.996078431372549" d="M 168.5 43 L 168 44.5 Q 169.8 50.2 163.5 48 L 162 48.5 L 168.5 43 Z " /><path fill="rgb(0,0,0)" stroke="rgb(0,0,0)" stroke-width="1" opacity="0.996078431372549" d="M 59.5 45 L 60 48 L 58 47.5 L 59.5 45 Z " /><path fill="rgb(0,0,0)" stroke="rgb(0,0,0)" stroke-width="1" opacity="0.996078431372549" d="M 84.5 45 L 85 47.5 L 84 47.5 L 84.5 45 Z " /><path fill="rgb(0,0,0)" stroke="rgb(0,0,0)" stroke-width="1" opacity="0.996078431372549" d="M 99.5 47 L 98.5 49 L 99.5 47 Z " /><path fill="rgb(0,0,0)" stroke="rgb(0,0,0)" stroke-width="1" opacity="0.996078431372549" d="M 179.5 48 L 180 50.5 L 178 51.5 L 179.5 48 Z " /><path fill="rgb(0,0,0)" stroke="rgb(0,0,0)" stroke-width="1" opacity="0.996078431372549" d="M 131.5 49 L 132 52 Q 126 50 128 56 L 123.5 56 L 125.5 53 L 131.5 49 Z " /><path fill="rgb(0,0,0)" stroke="rgb(0,0,0)" stroke-width="1" opacity="0.996078431372549" d="M 95.5 50 L 94.5 52 L 95.5 50 Z " /><path fill="rgb(0,0,0)" stroke="rgb(0,0,0)" stroke-width="1" opacity="0.996078431372549" d="M 159.5 50 L 156.5 54 L 159.5 50 Z " /><path fill="rgb(0,0,0)" stroke="rgb(0,0,0)" stroke-width="1" opacity="0.996078431372549" d="M 84 52 Q 88.1 50.3 87 54.5 L 87.5 56 Q 81.8 57.6 84 52 Z " /><path fill="rgb(0,0,0)" stroke="rgb(0,0,0)" stroke-width="1" opacity="0.996078431372549" d="M 55.5 53 L 56 56 L 54 55.5 L 55.5 53 Z " /><path fill="rgb(0,0,0)" stroke="rgb(0,0,0)" stroke-width="1" opacity="0.996078431372549" d="M 90.5 54 L 89.5 56 L 90.5 54 Z " /><path fill="rgb(0,0,0)" stroke="rgb(0,0,0)" stroke-width="1" opacity="0.996078431372549" d="M 154.5 54 L 153.5 56 L 154.5 54 Z " /><path fill="rgb(0,0,0)" stroke="rgb(0,0,0)" stroke-width="1" opacity="0.996078431372549" d="M 112.5 55 L 114 60 Q 109.9 61.2 112.5 55 Z " /><path fill="rgb(0,0,0)" stroke="rgb(0,0,0)" stroke-width="1" opacity="0.996078431372549" d="M 120.5 57 L 120 58.5 Q 120.8 60.8 118.5 60 L 117 60.5 L 120.5 57 Z " /><path fill="rgb(0,0,0)" stroke="rgb(0,0,0)" stroke-width="1" opacity="0.996078431372549" d="M 149.5 58 L 148.5 60 L 149.5 58 Z " /><path fill="rgb(0,0,0)" stroke="rgb(0,0,0)" stroke-width="1" opacity="0.996078431372549" d="M 52.5 60 L 53 61.5 L 50.5 65 L 51 63.5 L 52.5 60 Z " /><path fill="rgb(0,0,0)" stroke="rgb(0,0,0)" stroke-width="1" opacity="0.996078431372549" d="M 144.5 62 L 141.5 66 L 140 65.5 L 144.5 62 Z " /><path fill="rgb(0,0,0)" stroke="rgb(0,0,0)" stroke-width="1" opacity="0.996078431372549" d="M 43.5 81 L 44 88 Q 40.3 89.5 41 86.5 L 43.5 81 Z " /><path fill="rgb(0,0,0)" stroke="rgb(0,0,0)" stroke-width="1" opacity="0.996078431372549" d="M 38.5 95 Q 41 96.2 40 100 Q 36.3 101.5 37 98.5 L 38.5 95 Z " /><path fill="rgb(0,0,0)" stroke="rgb(0,0,0)" stroke-width="1" opacity="0.996078431372549" d="M 36.5 101 L 37 104.5 L 34 106.5 Q 36.8 105.3 36.5 101 Z " /><path fill="rgb(0,0,0)" stroke="rgb(0,0,0)" stroke-width="1" opacity="0.996078431372549" d="M 164 104 Q 167 102.8 166 106.5 L 164 107.5 L 164 104 Z " /><path fill="rgb(0,0,0)" stroke="rgb(0,0,0)" stroke-width="1" opacity="0.996078431372549" d="M 26.5 111 L 24.5 114 L 26.5 111 Z " /><path fill="rgb(0,0,0)" stroke="rgb(0,0,0)" stroke-width="1" opacity="0.996078431372549" d="M 22.5 116 L 21.5 118 L 22.5 116 Z " /><path fill="rgb(0,0,0)" stroke="rgb(0,0,0)" stroke-width="1" opacity="0.996078431372549" d="M 159.5 129 L 160 131 L 162 131.5 L 160.5 132 L 159.5 129 Z " /><path fill="rgb(0,0,0)" stroke="rgb(0,0,0)" stroke-width="1" opacity="0.996078431372549" d="M 16.5 131 L 17 137.5 L 16 137.5 L 16.5 131 Z " /><path fill="rgb(0,0,0)" stroke="rgb(0,0,0)" stroke-width="1" opacity="0.996078431372549" d="M 164.5 132 L 165.5 134 L 164.5 132 Z " /><path fill="rgb(0,0,0)" stroke="rgb(0,0,0)" stroke-width="1" opacity="0.996078431372549" d="M 167.5 134 L 168.5 136 L 167.5 134 Z " /><path fill="rgb(0,0,0)" stroke="rgb(0,0,0)" stroke-width="1" opacity="0.996078431372549" d="M 18.5 144 Q 21.1 143.2 20 146.5 L 20.5 148 L 18.5 144 Z " /><path fill="rgb(0,0,0)" stroke="rgb(0,0,0)" stroke-width="1" opacity="0.996078431372549" d="M 166.5 151 L 167 153.5 L 166 153.5 L 166.5 151 Z " /><path fill="rgb(0,0,0)" stroke="rgb(0,0,0)" stroke-width="1" opacity="0.996078431372549" d="M 28.5 155 L 29 157.5 L 27.5 160 L 27 158.5 L 28.5 155 Z " /><path fill="rgb(0,0,0)" stroke="rgb(0,0,0)" stroke-width="1" opacity="0.996078431372549" d="M 164 156 Q 166.7 154.9 166 157.5 L 164.5 160 L 164 156 Z " /><path fill="rgb(0,0,0)" stroke="rgb(0,0,0)" stroke-width="1" opacity="0.996078431372549" d="M 26 164 Q 29.7 162.8 28 168 Q 24.3 169.2 26 164 Z " /><path fill="rgb(0,0,0)" stroke="rgb(0,0,0)" stroke-width="1" opacity="0.996078431372549" d="M 160.5 166 L 161 167.5 L 159.5 170 L 159 168.5 L 160.5 166 Z " /><path fill="rgb(0,0,0)" stroke="rgb(0,0,0)" stroke-width="1" opacity="0.996078431372549" d="M 159.5 171 Q 164 170 165 172.5 L 163.5 172 Q 158.5 173 159.5 171 Z " /><path fill="rgb(0,0,0)" stroke="rgb(0,0,0)" stroke-width="1" opacity="0.996078431372549" d="M 28.5 174 L 32 176 L 31.5 178 L 28.5 174 Z " /><path fill="rgb(0,0,0)" stroke="rgb(0,0,0)" stroke-width="1" opacity="0.996078431372549" d="M 178.5 176 L 179.5 178 L 178.5 176 Z " /><path fill="rgb(0,0,0)" stroke="rgb(0,0,0)" stroke-width="1" opacity="0.996078431372549" d="M 50.5 183 Q 54.9 181.5 54 184.5 L 52.5 184 Q 49.5 184.5 50.5 183 Z " /><path fill="rgb(0,0,0)" stroke="rgb(0,0,0)" stroke-width="1" opacity="0.996078431372549" d="M 52.5 186 L 51.5 188 L 52.5 186 Z " /><path fill="rgb(0,0,0)" stroke="rgb(0,0,0)" stroke-width="1" opacity="0.996078431372549" d="M 184.5 189 L 185 198.5 L 184 198.5 L 184.5 189 Z " /><path fill="rgb(0,0,0)" stroke="rgb(0,0,0)" stroke-width="1" opacity="0.996078431372549" d="M 46.5 195 Q 49 196.2 48 200 L 44 199.5 L 46.5 195 Z " /><path fill="rgb(30,28,23)" stroke="rgb(30,28,23)" stroke-width="1" opacity="0.996078431372549" d="M 174.5 44 L 173.5 46 L 174.5 44 Z " /><path fill="rgb(30,28,23)" stroke="rgb(30,28,23)" stroke-width="1" opacity="0.996078431372549" d="M 170.5 47 L 169.5 49 L 170.5 47 Z " /><path fill="rgb(30,28,23)" stroke="rgb(30,28,23)" stroke-width="1" opacity="0.996078431372549" d="M 166.5 50 L 164.5 53 L 166.5 50 Z " /><path fill="rgb(30,28,23)" stroke="rgb(30,28,23)" stroke-width="1" opacity="0.996078431372549" d="M 161.5 54 L 159.5 57 L 161.5 54 Z " /><path fill="rgb(30,28,23)" stroke="rgb(30,28,23)" stroke-width="1" opacity="0.996078431372549" d="M 92.5 58 L 89.5 62 L 92.5 58 Z " /><path fill="rgb(30,28,23)" stroke="rgb(30,28,23)" stroke-width="1" opacity="0.996078431372549" d="M 156.5 58 L 154.5 61 L 156.5 58 Z " /><path fill="rgb(30,28,23)" stroke="rgb(30,28,23)" stroke-width="1" opacity="0.996078431372549" d="M 122.5 61 L 121.5 63 L 122.5 61 Z " /><path fill="rgb(30,28,23)" stroke="rgb(30,28,23)" stroke-width="1" opacity="0.996078431372549" d="M 151.5 62 L 149.5 65 L 151.5 62 Z " /><path fill="rgb(30,28,23)" stroke="rgb(30,28,23)" stroke-width="1" opacity="0.996078431372549" d="M 145.5 67 L 143.5 70 L 145.5 67 Z " /><path fill="rgb(30,28,23)" stroke="rgb(30,28,23)" stroke-width="1" opacity="0.996078431372549" d="M 57.5 98 L 62 98.5 L 57.5 99 L 57.5 98 Z " /><path fill="rgb(30,28,23)" stroke="rgb(30,28,23)" stroke-width="1" opacity="0.996078431372549" d="M 77.5 98 L 81 98.5 L 77.5 99 L 77.5 98 Z " /><path fill="rgb(30,28,23)" stroke="rgb(30,28,23)" stroke-width="1" opacity="0.996078431372549" d="M 91.5 100 L 94 100.5 L 91.5 101 L 91.5 100 Z " /><path fill="rgb(30,28,23)" stroke="rgb(30,28,23)" stroke-width="1" opacity="0.996078431372549" d="M 134.5 114 L 136.5 117 L 134.5 114 Z " /><path fill="rgb(30,28,23)" stroke="rgb(30,28,23)" stroke-width="1" opacity="0.996078431372549" d="M 139.5 118 L 140.5 120 L 139.5 118 Z " /><path fill="rgb(30,28,23)" stroke="rgb(30,28,23)" stroke-width="1" opacity="0.996078431372549" d="M 33.5 119 L 32.5 121 L 33.5 119 Z " /><path fill="rgb(30,28,23)" stroke="rgb(30,28,23)" stroke-width="1" opacity="0.996078431372549" d="M 132.5 119 L 133.5 121 L 132.5 119 Z " /><path fill="rgb(30,28,23)" stroke="rgb(30,28,23)" stroke-width="1" opacity="0.996078431372549" d="M 143.5 122 L 144.5 124 L 143.5 122 Z " /><path fill="rgb(30,28,23)" stroke="rgb(30,28,23)" stroke-width="1" opacity="0.996078431372549" d="M 137.5 123 L 139.5 126 L 137.5 123 Z " /><path fill="rgb(30,28,23)" stroke="rgb(30,28,23)" stroke-width="1" opacity="0.996078431372549" d="M 128.5 128 L 129.5 130 L 128.5 128 Z " /><path fill="rgb(30,28,23)" stroke="rgb(30,28,23)" stroke-width="1" opacity="0.996078431372549" d="M 149.5 129 L 152 129.5 L 149.5 130 L 149.5 129 Z " /><path fill="rgb(30,28,23)" stroke="rgb(30,28,23)" stroke-width="1" opacity="0.996078431372549" d="M 34.5 138 L 35.5 140 L 34.5 138 Z " /><path fill="rgb(30,28,23)" stroke="rgb(30,28,23)" stroke-width="1" opacity="0.996078431372549" d="M 30.5 141 L 32.5 144 L 30.5 141 Z " /><path fill="rgb(30,28,23)" stroke="rgb(30,28,23)" stroke-width="1" opacity="0.996078431372549" d="M 144.5 142 L 145 144.5 L 144 144.5 L 144.5 142 Z " /><path fill="rgb(30,28,23)" stroke="rgb(30,28,23)" stroke-width="1" opacity="0.996078431372549" d="M 141.5 153 L 139.5 156 L 141.5 153 Z " /><path fill="rgb(30,28,23)" stroke="rgb(30,28,23)" stroke-width="1" opacity="0.996078431372549" d="M 161.5 154 L 160.5 156 L 161.5 154 Z " /><path fill="rgb(30,28,23)" stroke="rgb(30,28,23)" stroke-width="1" opacity="0.996078431372549" d="M 72.5 160 L 79 160.5 L 72.5 161 L 72.5 160 Z " /><path fill="rgb(30,28,23)" stroke="rgb(30,28,23)" stroke-width="1" opacity="0.996078431372549" d="M 84.5 161 L 87 161.5 L 84.5 162 L 84.5 161 Z " /><path fill="rgb(30,28,23)" stroke="rgb(30,28,23)" stroke-width="1" opacity="0.996078431372549" d="M 30.5 164 L 31 167.5 L 30 167.5 L 30.5 164 Z " /><path fill="rgb(30,28,23)" stroke="rgb(30,28,23)" stroke-width="1" opacity="0.996078431372549" d="M 76.5 169 L 78.5 172 L 76.5 169 Z " /><path fill="rgb(30,28,23)" stroke="rgb(30,28,23)" stroke-width="1" opacity="0.996078431372549" d="M 90.5 169 L 88.5 172 L 90.5 169 Z " /><path fill="rgb(30,28,23)" stroke="rgb(30,28,23)" stroke-width="1" opacity="0.996078431372549" d="M 96.5 182 L 100 182.5 L 96.5 183 L 96.5 182 Z " /><path fill="rgb(30,28,23)" stroke="rgb(30,28,23)" stroke-width="1" opacity="0.996078431372549" d="M 124.5 184 L 128 186.5 L 125.5 185 L 124.5 184 Z " /><path fill="rgb(30,28,23)" stroke="rgb(30,28,23)" stroke-width="1" opacity="0.996078431372549" d="M 94.5 187 L 103 187.5 L 94.5 188 L 94.5 187 Z " /><path fill="rgb(10,11,12)" stroke="rgb(10,11,12)" stroke-width="1" opacity="0.996078431372549" d="M 94.5 56 L 93.5 58 L 94.5 56 Z " /><path fill="rgb(10,11,12)" stroke="rgb(10,11,12)" stroke-width="1" opacity="0.996078431372549" d="M 125.5 58 L 123.5 61 L 125.5 58 Z " /><path fill="rgb(10,11,12)" stroke="rgb(10,11,12)" stroke-width="1" opacity="0.996078431372549" d="M 134 60 Q 137.7 58.6 136 64.5 L 135 64.5 L 134 60 Z " /><path fill="rgb(10,11,12)" stroke="rgb(10,11,12)" stroke-width="1" opacity="0.996078431372549" d="M 147.5 65 L 146.5 67 L 147.5 65 Z " /><path fill="rgb(10,11,12)" stroke="rgb(10,11,12)" stroke-width="1" opacity="0.996078431372549" d="M 65.5 102 L 73 102.5 L 65.5 103 L 65.5 102 Z " /><path fill="rgb(10,11,12)" stroke="rgb(10,11,12)" stroke-width="1" opacity="0.996078431372549" d="M 56.5 103 L 59 103.5 L 56.5 104 L 56.5 103 Z " /><path fill="rgb(10,11,12)" stroke="rgb(10,11,12)" stroke-width="1" opacity="0.996078431372549" d="M 77.5 103 L 81 103.5 L 77.5 104 L 77.5 103 Z " /><path fill="rgb(10,11,12)" stroke="rgb(10,11,12)" stroke-width="1" opacity="0.996078431372549" d="M 59.5 110 L 63 110.5 L 59.5 111 L 59.5 110 Z " /><path fill="rgb(10,11,12)" stroke="rgb(10,11,12)" stroke-width="1" opacity="0.996078431372549" d="M 75.5 110 L 81 110.5 L 75.5 111 L 75.5 110 Z " /><path fill="rgb(10,11,12)" stroke="rgb(10,11,12)" stroke-width="1" opacity="0.996078431372549" d="M 65.5 114 L 73 114.5 L 65.5 115 L 65.5 114 Z " /><path fill="rgb(10,11,12)" stroke="rgb(10,11,12)" stroke-width="1" opacity="0.996078431372549" d="M 27.5 117 L 25.5 120 L 27.5 117 Z " /><path fill="rgb(10,11,12)" stroke="rgb(10,11,12)" stroke-width="1" opacity="0.996078431372549" d="M 141.5 120 L 142.5 122 L 141.5 120 Z " /><path fill="rgb(10,11,12)" stroke="rgb(10,11,12)" stroke-width="1" opacity="0.996078431372549" d="M 135.5 121 L 136.5 123 L 135.5 121 Z " /><path fill="rgb(10,11,12)" stroke="rgb(10,11,12)" stroke-width="1" opacity="0.996078431372549" d="M 123.5 123 L 127.5 128 L 123.5 123 Z " /><path fill="rgb(10,11,12)" stroke="rgb(10,11,12)" stroke-width="1" opacity="0.996078431372549" d="M 129.5 130 L 130.5 132 L 129.5 130 Z " /><path fill="rgb(10,11,12)" stroke="rgb(10,11,12)" stroke-width="1" opacity="0.996078431372549" d="M 151.5 134 L 154 134.5 L 151.5 135 L 151.5 134 Z " /><path fill="rgb(10,11,12)" stroke="rgb(10,11,12)" stroke-width="1" opacity="0.996078431372549" d="M 144.5 139 L 145 141.5 L 144 141.5 L 144.5 139 Z " /><path fill="rgb(10,11,12)" stroke="rgb(10,11,12)" stroke-width="1" opacity="0.996078431372549" d="M 149.5 141 L 150 146.5 L 149 146.5 L 149.5 141 Z " /><path fill="rgb(10,11,12)" stroke="rgb(10,11,12)" stroke-width="1" opacity="0.996078431372549" d="M 23.5 144 L 30.5 152 L 23.5 144 Z " /><path fill="rgb(10,11,12)" stroke="rgb(10,11,12)" stroke-width="1" opacity="0.996078431372549" d="M 144.5 145 L 145 147.5 L 144 147.5 L 144.5 145 Z " /><path fill="rgb(10,11,12)" stroke="rgb(10,11,12)" stroke-width="1" opacity="0.996078431372549" d="M 61.5 146 L 74 146.5 L 61.5 147 L 61.5 146 Z " /><path fill="rgb(10,11,12)" stroke="rgb(10,11,12)" stroke-width="1" opacity="0.996078431372549" d="M 43.5 147 L 56 147.5 L 43.5 148 L 43.5 147 Z " /><path fill="rgb(10,11,12)" stroke="rgb(10,11,12)" stroke-width="1" opacity="0.996078431372549" d="M 130.5 150 L 128.5 153 L 130.5 150 Z " /><path fill="rgb(10,11,12)" stroke="rgb(10,11,12)" stroke-width="1" opacity="0.996078431372549" d="M 157.5 152 L 159.5 155 L 157.5 152 Z " /><path fill="rgb(10,11,12)" stroke="rgb(10,11,12)" stroke-width="1" opacity="0.996078431372549" d="M 34.5 153 L 35.5 155 L 34.5 153 Z " /><path fill="rgb(10,11,12)" stroke="rgb(10,11,12)" stroke-width="1" opacity="0.996078431372549" d="M 63.5 155 L 68 155.5 L 63.5 156 L 63.5 155 Z " /><path fill="rgb(10,11,12)" stroke="rgb(10,11,12)" stroke-width="1" opacity="0.996078431372549" d="M 71.5 155 L 80 155.5 L 71.5 156 L 71.5 155 Z " /><path fill="rgb(10,11,12)" stroke="rgb(10,11,12)" stroke-width="1" opacity="0.996078431372549" d="M 115.5 155 L 118 155.5 L 115.5 156 L 115.5 155 Z " /><path fill="rgb(10,11,12)" stroke="rgb(10,11,12)" stroke-width="1" opacity="0.996078431372549" d="M 161.5 155 L 160.5 157 L 161.5 155 Z " /><path fill="rgb(10,11,12)" stroke="rgb(10,11,12)" stroke-width="1" opacity="0.996078431372549" d="M 47.5 156 L 57 156.5 L 47.5 157 L 47.5 156 Z " /><path fill="rgb(10,11,12)" stroke="rgb(10,11,12)" stroke-width="1" opacity="0.996078431372549" d="M 85.5 156 L 88 156.5 L 85.5 157 L 85.5 156 Z " /><path fill="rgb(10,11,12)" stroke="rgb(10,11,12)" stroke-width="1" opacity="0.996078431372549" d="M 138.5 157 L 137.5 159 L 138.5 157 Z " /><path fill="rgb(10,11,12)" stroke="rgb(10,11,12)" stroke-width="1" opacity="0.996078431372549" d="M 41.5 160 L 44 160.5 L 41.5 161 L 41.5 160 Z " /><path fill="rgb(10,11,12)" stroke="rgb(10,11,12)" stroke-width="1" opacity="0.996078431372549" d="M 59.5 160 L 62 160.5 L 59.5 161 L 59.5 160 Z " /><path fill="rgb(10,11,12)" stroke="rgb(10,11,12)" stroke-width="1" opacity="0.996078431372549" d="M 79.5 160 L 82 160.5 L 79.5 161 L 79.5 160 Z " /><path fill="rgb(10,11,12)" stroke="rgb(10,11,12)" stroke-width="1" opacity="0.996078431372549" d="M 92.5 162 L 93.5 164 L 92.5 162 Z " /><path fill="rgb(10,11,12)" stroke="rgb(10,11,12)" stroke-width="1" opacity="0.996078431372549" d="M 71.5 170 L 72.5 172 L 71.5 170 Z " /><path fill="rgb(10,11,12)" stroke="rgb(10,11,12)" stroke-width="1" opacity="0.996078431372549" d="M 82.5 173 L 85 173.5 L 82.5 174 L 82.5 173 Z " /><path fill="rgb(10,11,12)" stroke="rgb(10,11,12)" stroke-width="1" opacity="0.996078431372549" d="M 146.5 176 L 151 176.5 L 146.5 177 L 146.5 176 Z " /><path fill="rgb(10,11,12)" stroke="rgb(10,11,12)" stroke-width="1" opacity="0.996078431372549" d="M 88.5 182 L 96 182.5 L 88.5 183 L 88.5 182 Z " /><path fill="rgb(10,11,12)" stroke="rgb(10,11,12)" stroke-width="1" opacity="0.996078431372549" d="M 100.5 182 L 106 182.5 L 100.5 183 L 100.5 182 Z " /><path fill="rgb(10,11,12)" stroke="rgb(10,11,12)" stroke-width="1" opacity="0.996078431372549" d="M 63.5 185 L 69 185.5 L 63.5 186 L 63.5 185 Z " /><path fill="rgb(10,11,12)" stroke="rgb(10,11,12)" stroke-width="1" opacity="0.996078431372549" d="M 119.5 185 L 118.5 187 L 119.5 185 Z " /><path fill="rgb(10,11,12)" stroke="rgb(10,11,12)" stroke-width="1" opacity="0.996078431372549" d="M 74.5 186 L 87 186.5 L 74.5 187 L 74.5 186 Z " /><path fill="rgb(10,11,12)" stroke="rgb(10,11,12)" stroke-width="1" opacity="0.996078431372549" d="M 108.5 186 L 112 186.5 L 108.5 187 L 108.5 186 Z " /><path fill="rgb(10,11,12)" stroke="rgb(10,11,12)" stroke-width="1" opacity="0.996078431372549" d="M 59.5 188 L 60 191.5 L 59 191.5 L 59.5 188 Z " /><path fill="rgb(10,11,12)" stroke="rgb(10,11,12)" stroke-width="1" opacity="0.996078431372549" d="M 54.5 191 L 53.5 193 L 54.5 191 Z " /><path fill="rgb(10,11,12)" stroke="rgb(10,11,12)" stroke-width="1" opacity="0.996078431372549" d="M 133.5 198 L 134.5 200 L 132 199.5 L 133.5 198 Z " /><path fill="rgb(101,100,104)" stroke="rgb(101,100,104)" stroke-width="1" opacity="1" d="M 75.5 28 L 73.5 31 L 75.5 28 Z " /><path fill="rgb(101,100,104)" stroke="rgb(101,100,104)" stroke-width="1" opacity="1" d="M 72.5 32 L 71.5 34 L 72.5 32 Z " /><path fill="rgb(101,100,104)" stroke="rgb(101,100,104)" stroke-width="1" opacity="1" d="M 172.5 46 L 171.5 48 L 172.5 46 Z " /><path fill="rgb(101,100,104)" stroke="rgb(101,100,104)" stroke-width="1" opacity="1" d="M 168.5 49 L 167.5 51 L 168.5 49 Z " /><path fill="rgb(101,100,104)" stroke="rgb(101,100,104)" stroke-width="1" opacity="1" d="M 103.5 50 L 102.5 52 L 103.5 50 Z " /><path fill="rgb(101,100,104)" stroke="rgb(101,100,104)" stroke-width="1" opacity="1" d="M 99.5 53 L 98.5 55 L 99.5 53 Z " /><path fill="rgb(101,100,104)" stroke="rgb(101,100,104)" stroke-width="1" opacity="1" d="M 163.5 53 L 162.5 55 L 163.5 53 Z " /><path fill="rgb(101,100,104)" stroke="rgb(101,100,104)" stroke-width="1" opacity="1" d="M 131.5 55 L 132.5 57 L 131.5 55 Z " /><path fill="rgb(101,100,104)" stroke="rgb(101,100,104)" stroke-width="1" opacity="1" d="M 95.5 56 L 89.5 63 L 95.5 56 Z " /><path fill="rgb(101,100,104)" stroke="rgb(101,100,104)" stroke-width="1" opacity="1" d="M 129.5 56 L 128.5 58 L 129.5 56 Z " /><path fill="rgb(101,100,104)" stroke="rgb(101,100,104)" stroke-width="1" opacity="1" d="M 158.5 57 L 157.5 59 L 158.5 57 Z " /><path fill="rgb(101,100,104)" stroke="rgb(101,100,104)" stroke-width="1" opacity="1" d="M 125.5 59 L 122.5 63 L 125.5 59 Z " /><path fill="rgb(101,100,104)" stroke="rgb(101,100,104)" stroke-width="1" opacity="1" d="M 153.5 61 L 152.5 63 L 153.5 61 Z " /><path fill="rgb(101,100,104)" stroke="rgb(101,100,104)" stroke-width="1" opacity="1" d="M 119.5 65 L 118.5 67 L 119.5 65 Z " /><path fill="rgb(101,100,104)" stroke="rgb(101,100,104)" stroke-width="1" opacity="1" d="M 148.5 65 L 146.5 68 L 148.5 65 Z " /><path fill="rgb(101,100,104)" stroke="rgb(101,100,104)" stroke-width="1" opacity="1" d="M 142.5 71 L 140.5 74 L 142.5 71 Z " /><path fill="rgb(101,100,104)" stroke="rgb(101,100,104)" stroke-width="1" opacity="1" d="M 66.5 97 L 74 97.5 L 66.5 98 L 66.5 97 Z " /><path fill="rgb(101,100,104)" stroke="rgb(101,100,104)" stroke-width="1" opacity="1" d="M 68.5 103 L 76 104 L 76 109 L 61.5 109 L 45.5 112 L 42.5 114 L 40 110.5 L 48.5 106 L 58.5 104 L 67.5 104 L 68.5 103 Z " /><path fill="rgb(101,100,104)" stroke="rgb(101,100,104)" stroke-width="1" opacity="1" d="M 37.5 110 L 39 110.5 L 34.5 113 L 35.5 111 L 37.5 110 Z " /><path fill="rgb(101,100,104)" stroke="rgb(101,100,104)" stroke-width="1" opacity="1" d="M 32.5 113 L 31.5 115 L 32.5 113 Z " /><path fill="rgb(101,100,104)" stroke="rgb(101,100,104)" stroke-width="1" opacity="1" d="M 39.5 114 L 41 114.5 L 36.5 117 L 37.5 115 L 39.5 114 Z " /><path fill="rgb(101,100,104)" stroke="rgb(101,100,104)" stroke-width="1" opacity="1" d="M 73.5 115 L 77 115.5 L 73.5 116 L 73.5 115 Z " /><path fill="rgb(101,100,104)" stroke="rgb(101,100,104)" stroke-width="1" opacity="1" d="M 29.5 116 L 29 117.5 Q 28.3 119.8 30.5 119 L 31.5 120 L 35 117.5 L 30 121 L 27 127.5 L 27 131 Q 21.4 133.2 23 127.5 L 29.5 116 Z " /><path fill="rgb(101,100,104)" stroke="rgb(101,100,104)" stroke-width="1" opacity="1" d="M 137.5 116 L 138.5 118 L 137.5 116 Z " /><path fill="rgb(101,100,104)" stroke="rgb(101,100,104)" stroke-width="1" opacity="1" d="M 141.5 119 L 142.5 121 L 141.5 119 Z " /><path fill="rgb(101,100,104)" stroke="rgb(101,100,104)" stroke-width="1" opacity="1" d="M 154.5 128 L 153.5 130 L 152 129.5 L 154.5 128 Z " /><path fill="rgb(101,100,104)" stroke="rgb(101,100,104)" stroke-width="1" opacity="1" d="M 124.5 132 L 125.5 134 L 124.5 132 Z " /><path fill="rgb(101,100,104)" stroke="rgb(101,100,104)" stroke-width="1" opacity="1" d="M 150 135 L 153.5 136 L 155.5 135 L 154 137.5 Q 153.3 139.8 155.5 139 L 155.5 140 L 150 139 L 150 135 Z " /><path fill="rgb(101,100,104)" stroke="rgb(101,100,104)" stroke-width="1" opacity="1" d="M 158.5 136 L 161 136.5 L 158.5 137 L 158.5 136 Z " /><path fill="rgb(101,100,104)" stroke="rgb(101,100,104)" stroke-width="1" opacity="1" d="M 127.5 137 L 128 139.5 L 127 139.5 L 127.5 137 Z " /><path fill="rgb(101,100,104)" stroke="rgb(101,100,104)" stroke-width="1" opacity="1" d="M 159.5 140 L 164 141.5 L 162.5 142 L 159.5 141 L 159.5 140 Z " /><path fill="rgb(101,100,104)" stroke="rgb(101,100,104)" stroke-width="1" opacity="1" d="M 59.5 141 L 62 141.5 L 59.5 142 L 59.5 141 Z " /><path fill="rgb(101,100,104)" stroke="rgb(101,100,104)" stroke-width="1" opacity="1" d="M 149.5 155 L 153 155.5 L 149.5 156 L 149.5 155 Z " /><path fill="rgb(101,100,104)" stroke="rgb(101,100,104)" stroke-width="1" opacity="1" d="M 146.5 156 L 144.5 159 L 146.5 156 Z " /><path fill="rgb(101,100,104)" stroke="rgb(101,100,104)" stroke-width="1" opacity="1" d="M 43.5 161 L 48 161.5 L 43.5 162 L 43.5 161 Z " /><path fill="rgb(101,100,104)" stroke="rgb(101,100,104)" stroke-width="1" opacity="1" d="M 53.5 161 L 60 161.5 L 53.5 162 L 53.5 161 Z " /><path fill="rgb(101,100,104)" stroke="rgb(101,100,104)" stroke-width="1" opacity="1" d="M 140.5 162 L 139.5 164 L 140.5 162 Z " /><path fill="rgb(101,100,104)" stroke="rgb(101,100,104)" stroke-width="1" opacity="1" d="M 76.5 165 L 79 165.5 L 76.5 166 L 76.5 165 Z " /><path fill="rgb(101,100,104)" stroke="rgb(101,100,104)" stroke-width="1" opacity="1" d="M 68.5 167 L 69.5 169 L 68.5 167 Z " /><path fill="rgb(101,100,104)" stroke="rgb(101,100,104)" stroke-width="1" opacity="1" d="M 31.5 169 L 35 173.5 L 31 170.5 L 31.5 169 Z " /><path fill="rgb(101,100,104)" stroke="rgb(101,100,104)" stroke-width="1" opacity="1" d="M 117.5 169 L 121 169.5 L 117.5 170 L 117.5 169 Z " /><path fill="rgb(101,100,104)" stroke="rgb(101,100,104)" stroke-width="1" opacity="1" d="M 70.5 170 L 71.5 172 L 70.5 170 Z " /><path fill="rgb(101,100,104)" stroke="rgb(101,100,104)" stroke-width="1" opacity="1" d="M 140.5 173 L 139.5 175 L 138 174.5 L 140.5 173 Z " /><path fill="rgb(101,100,104)" stroke="rgb(101,100,104)" stroke-width="1" opacity="1" d="M 76.5 176 L 77.5 178 L 76.5 176 Z " /><path fill="rgb(101,100,104)" stroke="rgb(101,100,104)" stroke-width="1" opacity="1" d="M 90.5 176 L 89.5 178 L 88 177.5 L 90.5 176 Z " /><path fill="rgb(101,100,104)" stroke="rgb(101,100,104)" stroke-width="1" opacity="1" d="M 155.5 176 L 169.5 178 L 177 182.5 L 179 188.5 L 177 187.5 Q 177.8 185.3 175.5 186 L 164.5 181 L 144 178.5 L 146.5 177 L 154.5 177 L 155.5 176 Z " /><path fill="rgb(101,100,104)" stroke="rgb(101,100,104)" stroke-width="1" opacity="1" d="M 80.5 178 L 86 178.5 L 80.5 179 L 80.5 178 Z " /><path fill="rgb(101,100,104)" stroke="rgb(101,100,104)" stroke-width="1" opacity="1" d="M 68.5 180 L 71 180.5 L 68.5 181 L 68.5 180 Z " /><path fill="rgb(101,100,104)" stroke="rgb(101,100,104)" stroke-width="1" opacity="1" d="M 77.5 181 L 88 181.5 L 77.5 182 L 77.5 181 Z " /><path fill="rgb(101,100,104)" stroke="rgb(101,100,104)" stroke-width="1" opacity="1" d="M 106.5 181 L 111 181.5 L 106.5 182 L 106.5 181 Z " /><path fill="rgb(101,100,104)" stroke="rgb(101,100,104)" stroke-width="1" opacity="1" d="M 78.5 187 L 91.5 187 L 92 192 L 104.5 192 L 108 193 L 105.5 200 L 91 200 L 91 188 L 78 188 L 77 200 L 62.5 200 L 61 198.5 L 60 188 L 77 190 L 78.5 187 Z " /><path fill="rgb(101,100,104)" stroke="rgb(101,100,104)" stroke-width="1" opacity="1" d="M 53.5 194 Q 56.3 195.4 55 200 L 50 199.5 L 53.5 194 Z " /><path fill="rgb(101,100,104)" stroke="rgb(101,100,104)" stroke-width="1" opacity="1" d="M 156.5 194 Q 165.4 193.6 168 199.5 L 149.5 200 L 153.5 195 L 156.5 194 Z " /><path fill="rgb(101,100,104)" stroke="rgb(101,100,104)" stroke-width="1" opacity="1" d="M 115.5 195 L 126 198 L 125.5 200 L 113 200 L 115.5 195 Z " /><path fill="rgb(0,0,0)" stroke="rgb(0,0,0)" stroke-width="1" opacity="1" d="M 75.5 19 Q 81.6 17.2 79 24.5 L 82 36 Q 78.3 34.8 80 40 Q 84.5 38.3 83 43.5 L 86 52 Q 82.3 50.8 84 56 L 89.5 56 L 101.5 46 L 109 44 L 112 54.5 L 112 60 L 114 60 Q 112.9 62.7 115.5 62 L 120 60 L 122.5 56 L 128 56 L 128 52 L 132 52 Q 130.4 47.1 136 49 L 140 66 L 161.5 49 L 168 48 Q 167 43.3 170.5 42 L 177.5 37 L 181.5 36 Q 183.8 36.8 183 40.5 L 178 51.5 L 178 53.5 L 166 104 Q 162.7 102.7 164 107.5 L 164 109.5 L 162 122.5 L 159 130.5 Q 159.8 132.8 163.5 132 L 169 136.5 L 169 143.5 L 166 151.5 L 166 156 L 164 156 L 164 161 L 162.5 161 L 159 168.5 L 159 172 L 164.5 173 L 166.5 173 L 176.5 175 L 181 178 Q 185.5 186 184 200 L 180 199.5 L 180 187.5 L 178 181.5 L 175.5 179 L 166.5 176 L 146.5 176 Q 140.6 181.6 131 182 L 140 199.5 L 135.5 200 Q 133.5 196 131.5 200 Q 127.1 201.5 128 198.5 L 131 191.5 L 125.5 184 Q 120 183.5 118 186.5 L 112 200 L 107 199.5 L 112 186 L 107.5 187 L 87.5 187 L 86.5 186 L 69.5 186 L 68.5 185 L 60 185 L 59 191.5 L 61 199.5 L 56 200 Q 56.9 194.3 54.5 191 L 48.5 200 L 47 194.5 L 54 183 L 48.5 182 L 46.5 182 L 32 178 Q 33.1 175.3 30.5 176 L 26 168.5 L 28 168 L 28 164 L 26.5 164 L 27 162.5 L 29 155 L 21 148.5 L 20 144 Q 17 145.3 18 141.5 L 17 140.5 L 17 128.5 Q 20 116.5 28.5 110 L 37 104.5 L 37 100 Q 41.5 101.8 40 96.5 L 39 93.5 L 41 88 L 44 88 L 44 80.5 L 49 67.5 L 53 61.5 L 54 56 Q 57.3 57.3 56 52.5 L 58 48 Q 61.3 49.3 60 44.5 L 62 40 Q 65.3 41.3 64 36.5 L 75.5 19 Z M 76 27 Q 65 40 58 57 L 41 100 L 42 104 L 51 100 L 64 99 L 65 98 L 84 99 L 104 103 L 123 109 L 139 118 Q 145 122 146 129 Q 149 131 155 130 L 158 123 L 163 97 L 165 93 L 165 89 L 177 43 L 148 65 L 142 72 L 138 73 L 136 68 L 136 61 L 134 60 L 133 54 L 126 58 L 119 66 L 114 70 L 106 49 Q 95 53 89 62 L 85 62 L 79 43 L 77 29 L 76 27 Z M 66 102 L 65 103 L 57 103 L 48 105 L 33 112 Q 24 118 21 130 Q 20 139 23 145 L 36 155 L 47 156 L 48 157 L 68 156 L 69 155 L 96 158 L 114 164 L 126 164 L 138 159 Q 143 155 145 148 L 145 140 L 141 127 L 132 118 L 110 109 L 89 104 L 66 102 Z M 148 134 L 149 137 L 149 150 L 156 151 L 161 157 L 162 156 L 165 137 L 160 135 L 148 134 Z M 148 155 L 146 156 L 144 159 L 134 166 L 121 169 L 98 164 L 95 172 Q 92 176 86 178 Q 79 179 77 176 Q 69 170 67 160 L 60 160 L 59 161 L 45 161 Q 43 159 38 160 L 34 158 L 30 163 L 31 172 L 37 176 L 47 179 L 59 180 L 60 181 L 71 181 L 72 182 L 88 182 L 89 183 L 106 183 L 107 182 L 116 182 L 126 180 L 139 176 L 147 171 Q 148 173 153 172 Q 159 169 157 159 Q 156 154 148 155 Z M 71 160 L 75 169 L 83 174 L 88 173 Q 92 170 94 164 L 89 161 L 71 160 Z " /><path fill="rgb(0,0,0)" stroke="rgb(0,0,0)" stroke-width="1" opacity="1" d="M 63.5 110 L 84.5 111 L 100.5 114 L 122.5 123 L 129 129.5 Q 133.5 134 134 142.5 Q 132.6 150.6 126.5 154 Q 124.2 156.7 118.5 156 L 80.5 147 L 61.5 146 L 60.5 147 L 40.5 147 Q 33.6 145.4 30 140.5 Q 26.9 136.1 28 127.5 L 35.5 118 L 46.5 113 L 63.5 110 Z M 66 114 L 65 115 L 57 115 L 48 117 L 39 121 L 32 130 L 33 138 Q 36 142 43 143 L 58 143 L 59 142 L 77 142 L 88 145 L 93 145 L 100 148 L 114 151 Q 121 153 125 150 L 129 145 L 128 136 L 126 133 L 118 125 L 99 118 L 83 115 L 66 114 Z " /></svg>