<svg width="200" height="200" version="1.1" xmlns="http://www.w3.org/2000/svg" desc="Created with imagetracer.js version 1.2.6" ><path fill="rgb(0,0,0)" stroke="rgb(0,0,0)" stroke-width="1" opacity="0" d="M 0 0 L 200 0 L 200 200 Q 197.3 201.1 198 198.5 L 187.5 187 L 181 184 L 180 180.5 L 179 164.5 L 175 153 L 159.5 142 L 140 136 L 140 130.5 L 137 124.5 L 127 111.5 L 133 104.5 L 133 102 L 139.5 101 L 151.5 101 L 156 104.5 L 159.5 109 Q 166 109 169 105.5 Q 168.1 92.9 159.5 88 L 148 84.5 L 153 77.5 L 154 71.5 L 151 60.5 L 145.5 55 Q 140 50 127.5 52 L 119 57.5 L 116 68 L 110.5 67 L 99.5 67 L 93.5 69 L 88.5 69 L 81 72 Q 80.3 64.5 74.5 61 Q 71.2 57.8 63.5 59 Q 56.1 61.6 52 67.5 L 49 72.5 L 48 80.5 Q 49.8 90.2 56.5 95 L 63 96 L 61.5 99 L 53.5 100 L 51.5 99 Q 45 100.5 42 105.5 L 40 112.5 L 43.5 118 L 47.5 119 L 58.5 113 L 71 111 Q 70 117.4 75.5 119 L 80 120 L 79 124.5 L 73.5 133 L 52.5 136 L 43 141.5 L 27.5 172 Q 19.4 172.4 17 178.5 Q 9 187.5 4.5 200 Q 0 200.5 0 199.5 L 0 0 Z " /><path fill="rgb(252,237,228)" stroke="rgb(252,237,228)" stroke-width="1" opacity="1" d="M 129.5 58 Q 141.7 56.3 145 63.5 L 143 75.5 L 138 83 Q 127.8 79.9 122 71.5 Q 120.8 62.8 125.5 60 L 129.5 58 Z M 132 65 L 127 71 L 128 75 L 132 77 L 136 76 Q 139 75 138 69 Q 137 64 132 65 Z " /><path fill="rgb(252,237,228)" stroke="rgb(252,237,228)" stroke-width="1" opacity="1" d="M 63.5 66 Q 69.3 65.3 70 69.5 L 73 77.5 L 70 80.5 L 65.5 90 Q 58.6 90.9 57 86.5 Q 53.7 82.8 55 74.5 L 61.5 67 L 63.5 66 Z M 63 73 L 60 74 L 59 77 L 60 83 L 66 84 Q 70 83 69 76 Q 68 72 63 73 Z " /><path fill="rgb(252,237,228)" stroke="rgb(252,237,228)" stroke-width="1" opacity="1" d="M 93.5 74 L 98 74.5 L 85 79 Q 83.9 76.3 86.5 77 L 93.5 74 Z " /><path fill="rgb(252,237,228)" stroke="rgb(252,237,228)" stroke-width="1" opacity="1" d="M 97.5 98 L 106 99.5 L 104 103.5 Q 105.5 106.5 111.5 105 L 114.5 101 L 122 105.5 L 119.5 109 L 109.5 114 L 102.5 115 L 102.5 114 Q 106.5 114.5 107 111.5 L 105.5 108 L 100.5 110 L 97.5 109 L 92.5 110 L 90.5 109 L 89 111.5 L 90 114 L 96.5 115 L 98.5 114 L 101 115.5 L 86.5 116 L 79.5 114 L 77 111.5 Q 76.5 106.5 80.5 106 L 87.5 107 L 91 104.5 L 91 102 Q 88 103 89 100 L 97.5 98 Z M 96 105 Q 93 107 96 108 Q 100 109 101 107 Q 102 104 96 105 Z " /><path fill="rgb(252,237,228)" stroke="rgb(252,237,228)" stroke-width="1" opacity="1" d="M 121.5 115 L 124 118.5 L 121 116.5 L 121.5 115 Z " /><path fill="rgb(252,237,228)" stroke="rgb(252,237,228)" stroke-width="1" opacity="1" d="M 87.5 123 Q 89.8 123.8 89 127.5 L 87 132 L 82 132 L 82 130.5 L 87.5 123 Z " /><path fill="rgb(252,237,228)" stroke="rgb(252,237,228)" stroke-width="1" opacity="1" d="M 112.5 125 L 117 127.5 L 117 133 L 114.5 133 L 112 131.5 L 113 126.5 L 112.5 125 Z " /><path fill="rgb(126,135,103)" stroke="rgb(126,135,103)" stroke-width="1" opacity="1" d="M 125.5 59 L 123.5 62 L 125.5 59 Z " /><path fill="rgb(126,135,103)" stroke="rgb(126,135,103)" stroke-width="1" opacity="1" d="M 70.5 65 L 71.5 67 L 70.5 65 Z " /><path fill="rgb(126,135,103)" stroke="rgb(126,135,103)" stroke-width="1" opacity="1" d="M 121.5 67 L 122 70.5 L 121 70.5 L 121.5 67 Z " /><path fill="rgb(126,135,103)" stroke="rgb(126,135,103)" stroke-width="1" opacity="1" d="M 147.5 68 L 148 70.5 L 147 70.5 L 147.5 68 Z " /><path fill="rgb(126,135,103)" stroke="rgb(126,135,103)" stroke-width="1" opacity="1" d="M 147.5 72 L 148 74.5 L 147 74.5 L 147.5 72 Z " /><path fill="rgb(126,135,103)" stroke="rgb(126,135,103)" stroke-width="1" opacity="1" d="M 104 73 L 111.5 73 L 112 74.5 Q 107.6 78.7 107 86 L 94 85.5 L 99.5 75 Q 105.3 76.7 104 73 Z " /><path fill="rgb(126,135,103)" stroke="rgb(126,135,103)" stroke-width="1" opacity="1" d="M 116.5 74 L 124 83.5 L 126 93 L 110 84.5 L 113 76 L 117 75.5 L 116.5 74 Z " /><path fill="rgb(126,135,103)" stroke="rgb(126,135,103)" stroke-width="1" opacity="1" d="M 83.5 78 Q 86.3 79.3 84 80.5 Q 82.5 86 85 87.5 L 82.5 89 Q 79.8 86.2 80.5 80 L 79 80.5 L 83.5 78 Z " /><path fill="rgb(126,135,103)" stroke="rgb(126,135,103)" stroke-width="1" opacity="1" d="M 137.5 83 L 140 83.5 L 137.5 84 L 137.5 83 Z " /><path fill="rgb(126,135,103)" stroke="rgb(126,135,103)" stroke-width="1" opacity="1" d="M 74.5 86 L 76 90 L 79 90.5 L 74 93.5 L 72.5 97 L 72 90.5 L 74.5 86 Z " /><path fill="rgb(126,135,103)" stroke="rgb(126,135,103)" stroke-width="1" opacity="1" d="M 95.5 91 L 102 91.5 L 95.5 92 L 95.5 91 Z " /><path fill="rgb(126,135,103)" stroke="rgb(126,135,103)" stroke-width="1" opacity="1" d="M 116.5 94 L 118.5 97 L 116.5 94 Z " /><path fill="rgb(126,135,103)" stroke="rgb(126,135,103)" stroke-width="1" opacity="1" d="M 120.5 97 L 121.5 99 L 120.5 97 Z " /><path fill="rgb(126,135,103)" stroke="rgb(126,135,103)" stroke-width="1" opacity="1" d="M 126.5 100 Q 128.8 99.3 128 101.5 L 126.5 100 Z " /><path fill="rgb(126,135,103)" stroke="rgb(126,135,103)" stroke-width="1" opacity="1" d="M 126.5 103 L 122.5 108 L 126.5 103 Z " /><path fill="rgb(126,135,103)" stroke="rgb(126,135,103)" stroke-width="1" opacity="1" d="M 51.5 105 Q 55.5 104.5 56 107.5 L 52.5 110 L 53.5 108 L 55 107.5 L 51.5 106 L 51.5 105 Z " /><path fill="rgb(126,135,103)" stroke="rgb(126,135,103)" stroke-width="1" opacity="1" d="M 49.5 106 L 47.5 109 L 49.5 106 Z " /><path fill="rgb(126,135,103)" stroke="rgb(126,135,103)" stroke-width="1" opacity="1" d="M 75.5 106 L 76 110.5 L 75 110.5 L 75.5 106 Z " /><path fill="rgb(126,135,103)" stroke="rgb(126,135,103)" stroke-width="1" opacity="1" d="M 46.5 110 L 48 112.5 L 46 113 L 46.5 110 Z " /><path fill="rgb(126,135,103)" stroke="rgb(126,135,103)" stroke-width="1" opacity="1" d="M 50.5 110 L 49.5 112 L 50.5 110 Z " /><path fill="rgb(126,135,103)" stroke="rgb(126,135,103)" stroke-width="1" opacity="1" d="M 121.5 114 L 123.5 117 L 121.5 114 Z " /><path fill="rgb(126,135,103)" stroke="rgb(126,135,103)" stroke-width="1" opacity="1" d="M 88.5 116 L 93 116.5 L 88.5 117 L 88.5 116 Z " /><path fill="rgb(126,135,103)" stroke="rgb(126,135,103)" stroke-width="1" opacity="1" d="M 97.5 116 L 100 116.5 L 97.5 117 L 97.5 116 Z " /><path fill="rgb(126,135,103)" stroke="rgb(126,135,103)" stroke-width="1" opacity="1" d="M 118.5 116 L 117.5 118 L 116 117.5 L 118.5 116 Z " /><path fill="rgb(126,135,103)" stroke="rgb(126,135,103)" stroke-width="1" opacity="1" d="M 127.5 122 L 130.5 126 L 127.5 122 Z " /><path fill="rgb(126,135,103)" stroke="rgb(126,135,103)" stroke-width="1" opacity="1" d="M 85.5 124 L 84.5 126 L 85.5 124 Z " /><path fill="rgb(126,135,103)" stroke="rgb(126,135,103)" stroke-width="1" opacity="1" d="M 108.5 125 L 111 125.5 L 107.5 127 L 108.5 125 Z " /><path fill="rgb(126,135,103)" stroke="rgb(126,135,103)" stroke-width="1" opacity="1" d="M 92.5 126 L 96 128.5 L 95.5 131 L 93.5 127 L 92.5 126 Z " /><path fill="rgb(126,135,103)" stroke="rgb(126,135,103)" stroke-width="1" opacity="1" d="M 89.5 129 L 88.5 131 L 89.5 129 Z " /><path fill="rgb(126,135,103)" stroke="rgb(126,135,103)" stroke-width="1" opacity="1" d="M 81.5 132 L 84 132.5 L 81.5 133 L 81.5 132 Z " /><path fill="rgb(126,135,103)" stroke="rgb(126,135,103)" stroke-width="1" opacity="1" d="M 115.5 133 L 118 133.5 L 115.5 134 L 115.5 133 Z " /><path fill="rgb(126,135,103)" stroke="rgb(126,135,103)" stroke-width="1" opacity="1" d="M 126.5 134 L 129 134.5 L 126.5 135 L 126.5 134 Z " /><path fill="rgb(10,9,9)" stroke="rgb(10,9,9)" stroke-width="1" opacity="0.9803921568627451" d="M 127.5 52 L 139.5 52 Q 146.9 54.6 151 60.5 L 154 72.5 L 153 77.5 L 148 84.5 Q 160.7 85.8 166 94.5 L 169 101.5 L 169 105.5 Q 166 109 159.5 109 L 153.5 102 L 151.5 101 L 139.5 101 L 133 102 L 133 104.5 L 127 111.5 L 137 124.5 L 140 130.5 L 140 136 L 159.5 142 L 175 153 L 179 164.5 L 180 180.5 L 181 184 Q 191.2 187.4 197 196.5 L 198 200 L 190.5 200 L 190 198.5 Q 184.8 188.8 170.5 188 L 161 194.5 L 158 200 L 152.5 200 L 152 198.5 L 161.5 187 L 166 184.5 L 164.5 183 L 158.5 183 L 137.5 179 L 103.5 177 L 102.5 176 L 68.5 175 L 67.5 176 L 36.5 176 Q 35 178.5 29.5 177 Q 21.5 178 19 184.5 L 10.5 200 Q 5.1 201.9 6 198.5 Q 10.8 182.3 22.5 173 Q 27.6 173.6 29 170.5 L 40 145.5 L 45.5 139 L 52.5 136 L 68.5 134 L 75 131.5 L 80 120 Q 73.6 119.8 71 114.5 Q 72.8 109.3 67.5 111 L 58.5 113 Q 54.1 118.1 45.5 119 L 41 115.5 L 40 111.5 Q 41.1 104.1 46.5 101 L 52.5 99 Q 53.8 101.3 58.5 100 L 63 97.5 Q 63.9 94.1 58.5 96 L 52 90.5 Q 48.2 85.8 48 77.5 Q 49.7 66.7 57.5 62 L 63.5 59 L 70.5 59 L 79 65.5 L 81 72 L 88.5 69 L 93.5 69 L 99.5 67 L 110.5 67 L 116 68 Q 116.1 59.4 121.5 55 L 127.5 52 Z M 129 57 L 127 58 L 121 66 L 122 74 Q 128 82 141 84 L 148 76 Q 150 67 146 63 Q 142 55 129 57 Z M 66 64 L 60 67 L 54 75 Q 52 85 57 89 Q 60 92 67 91 Q 69 82 76 77 Q 77 70 74 68 Q 72 63 66 64 Z M 103 72 L 102 73 L 94 73 L 85 76 L 79 80 L 72 90 L 69 100 L 62 105 L 51 105 L 49 106 Q 45 108 46 113 L 49 113 L 59 107 Q 66 108 69 105 Q 73 102 74 95 L 80 90 L 94 86 Q 106 84 115 87 L 130 96 L 141 96 L 142 95 L 154 96 L 160 101 Q 159 103 163 102 L 162 99 L 154 91 L 137 89 L 125 83 Q 120 80 118 74 L 103 72 Z M 92 91 L 81 95 L 75 106 L 75 112 L 78 114 L 86 117 Q 98 119 107 116 L 125 107 L 128 103 L 128 100 L 122 98 Q 118 93 111 91 L 92 91 Z M 122 114 Q 110 123 88 122 Q 82 126 80 133 L 87 133 L 88 132 Q 90 133 89 131 Q 90 127 95 128 L 94 132 Q 97 134 105 133 L 110 126 L 112 128 L 111 133 Q 112 135 118 134 Q 120 133 119 129 L 123 127 L 124 130 L 123 134 L 125 135 L 135 136 L 133 129 L 123 116 Q 124 113 122 114 Z M 89 137 L 88 138 L 78 138 L 77 139 L 66 139 L 50 143 L 43 151 L 35 170 L 36 171 L 45 171 L 47 159 Q 51 151 61 149 Q 70 148 75 152 L 80 161 L 80 170 L 88 170 L 89 171 L 105 171 L 108 172 L 107 169 L 107 161 L 111 154 L 117 149 L 124 147 L 133 148 L 137 150 Q 142 154 143 163 L 140 175 L 154 176 L 153 164 L 157 162 L 159 167 Q 158 174 160 177 L 170 180 L 174 180 L 175 181 L 174 169 L 170 158 L 158 148 L 155 147 L 157 154 L 157 159 L 153 160 L 149 144 L 132 140 L 115 139 L 114 138 L 101 138 L 100 137 L 95 138 L 89 137 Z M 121 153 L 117 155 L 112 162 L 113 170 L 120 173 Q 126 171 128 174 L 135 173 L 138 165 L 135 156 L 132 153 L 121 153 Z M 61 154 L 53 158 Q 50 161 50 169 L 55 171 L 74 170 L 75 169 Q 76 161 73 158 Q 70 152 61 154 Z " /><path fill="rgb(10,9,9)" stroke="rgb(10,9,9)" stroke-width="1" opacity="0.9803921568627451" d="M 110.5 97 L 114 98.5 Q 114.8 103.3 111.5 104 L 107.5 105 L 105 104 L 104 101.5 L 110.5 97 Z " /><path fill="rgb(10,9,9)" stroke="rgb(10,9,9)" stroke-width="1" opacity="0.9803921568627451" d="M 82 99 L 90 102 L 88.5 106 Q 82.3 107.3 81 103.5 L 82 99 Z " /><path fill="rgb(10,9,9)" stroke="rgb(10,9,9)" stroke-width="1" opacity="0.9803921568627451" d="M 104.5 109 Q 107.3 110.2 105 111.5 Q 105.8 113.8 103.5 113 L 99.5 114 L 96.5 113 L 92.5 114 Q 88 112 91.5 110 L 95.5 111 L 104.5 109 Z " /><path fill="rgb(10,9,9)" stroke="rgb(10,9,9)" stroke-width="1" opacity="0.9803921568627451" d="M 35.5 191 L 84.5 191 L 85.5 192 L 101.5 192 L 102.5 193 L 119.5 193 L 120.5 194 L 134.5 195 L 138 197.5 L 139 199.5 L 127.5 200 L 126.5 199 L 97.5 198 L 96.5 197 L 37.5 196 L 35 197 L 33.5 200 L 28 199.5 L 33.5 192 L 35.5 191 Z " /><path fill="rgb(229,195,171)" stroke="rgb(229,195,171)" stroke-width="1" opacity="1" d="M 131.5 57 L 136 57.5 L 131.5 58 L 131.5 57 Z " /><path fill="rgb(229,195,171)" stroke="rgb(229,195,171)" stroke-width="1" opacity="1" d="M 142.5 60 L 144.5 63 L 142.5 60 Z " /><path fill="rgb(229,195,171)" stroke="rgb(229,195,171)" stroke-width="1" opacity="1" d="M 145.5 64 Q 148.7 67.3 147 75.5 L 142.5 82 L 138 83 L 143 75.5 L 145.5 64 Z " /><path fill="rgb(229,195,171)" stroke="rgb(229,195,171)" stroke-width="1" opacity="1" d="M 64.5 65 L 69.5 65 L 73 67 L 76 74.5 L 70.5 81 L 73 77.5 Q 71.8 69.7 66.5 66 Q 63.5 66.5 64.5 65 Z " /><path fill="rgb(229,195,171)" stroke="rgb(229,195,171)" stroke-width="1" opacity="1" d="M 131.5 65 Q 137.3 64.3 138 68.5 Q 139.3 74.8 135.5 76 L 131.5 77 L 128 74.5 L 127 70.5 L 131.5 65 Z " /><path fill="rgb(229,195,171)" stroke="rgb(229,195,171)" stroke-width="1" opacity="1" d="M 60.5 67 L 57.5 71 L 60.5 67 Z " /><path fill="rgb(229,195,171)" stroke="rgb(229,195,171)" stroke-width="1" opacity="1" d="M 122.5 72 L 128.5 79 L 122.5 72 Z " /><path fill="rgb(229,195,171)" stroke="rgb(229,195,171)" stroke-width="1" opacity="1" d="M 62.5 73 Q 67.6 72.4 69 75.5 Q 70.3 82.8 65.5 84 L 60 83 L 59 76.5 L 60 74 L 62.5 73 Z " /><path fill="rgb(229,195,171)" stroke="rgb(229,195,171)" stroke-width="1" opacity="1" d="M 96.5 73 L 103.5 73 L 104 75 Q 99.4 73.8 98 76.5 L 94.5 85 Q 89.9 84.4 88.5 87 L 87.5 86 L 85 87.5 L 85 79.5 L 86.5 79 L 89.5 77 Q 91 79.5 92.5 76 L 98 74.5 L 96.5 73 Z " /><path fill="rgb(229,195,171)" stroke="rgb(229,195,171)" stroke-width="1" opacity="1" d="M 115.5 74 L 116.5 76 L 114 75.5 L 115.5 74 Z " /><path fill="rgb(229,195,171)" stroke="rgb(229,195,171)" stroke-width="1" opacity="1" d="M 54.5 76 L 55 80.5 L 54 80.5 L 54.5 76 Z " /><path fill="rgb(229,195,171)" stroke="rgb(229,195,171)" stroke-width="1" opacity="1" d="M 130.5 79 L 131.5 81 L 130.5 79 Z " /><path fill="rgb(229,195,171)" stroke="rgb(229,195,171)" stroke-width="1" opacity="1" d="M 80.5 80 L 81 88.5 L 77 90 Q 78 87 75 88 L 75 85.5 L 78.5 81 L 80.5 80 Z " /><path fill="rgb(229,195,171)" stroke="rgb(229,195,171)" stroke-width="1" opacity="1" d="M 57.5 87 L 58.5 89 L 57.5 87 Z " /><path fill="rgb(229,195,171)" stroke="rgb(229,195,171)" stroke-width="1" opacity="1" d="M 66.5 89 L 65.5 91 L 62 90.5 L 66.5 89 Z " /><path fill="rgb(229,195,171)" stroke="rgb(229,195,171)" stroke-width="1" opacity="1" d="M 90.5 92 L 110.5 92 L 127 101.5 L 120.5 109 L 122 106.5 L 120.5 104 L 114 100.5 Q 114.8 96.8 112.5 96 L 106.5 99 L 100.5 99 L 97.5 98 L 87.5 101 L 82.5 99 Q 80 100 81 104.5 L 81.5 106 L 77 109.5 L 78 112.5 L 76 111.5 L 76 105.5 L 80.5 96 L 90.5 92 Z " /><path fill="rgb(229,195,171)" stroke="rgb(229,195,171)" stroke-width="1" opacity="1" d="M 104.5 103 L 105.5 105 L 104.5 103 Z " /><path fill="rgb(229,195,171)" stroke="rgb(229,195,171)" stroke-width="1" opacity="1" d="M 90.5 104 L 89.5 106 L 90.5 104 Z " /><path fill="rgb(229,195,171)" stroke="rgb(229,195,171)" stroke-width="1" opacity="1" d="M 95.5 105 L 95.5 108 Q 92.5 106.5 95.5 105 Z " /><path fill="rgb(229,195,171)" stroke="rgb(229,195,171)" stroke-width="1" opacity="1" d="M 50.5 106 Q 54.3 105.3 55 107.5 L 47 112 Q 46.3 107.3 50.5 106 Z " /><path fill="rgb(229,195,171)" stroke="rgb(229,195,171)" stroke-width="1" opacity="1" d="M 90.5 109 L 90 110.5 L 89.5 112 L 89 110.5 L 90.5 109 Z " /><path fill="rgb(229,195,171)" stroke="rgb(229,195,171)" stroke-width="1" opacity="1" d="M 97.5 109 L 100 109.5 L 97.5 110 L 97.5 109 Z " /><path fill="rgb(229,195,171)" stroke="rgb(229,195,171)" stroke-width="1" opacity="1" d="M 106.5 109 L 107 111.5 L 106 111.5 L 106.5 109 Z " /><path fill="rgb(229,195,171)" stroke="rgb(229,195,171)" stroke-width="1" opacity="1" d="M 99.5 114 L 105 115.5 L 101.5 116 L 99.5 114 Z " /><path fill="rgb(229,195,171)" stroke="rgb(229,195,171)" stroke-width="1" opacity="1" d="M 120.5 115 L 122.5 118 Q 123.7 115.8 125 118.5 L 133 129.5 L 134 135 L 124 134 L 124 127.5 L 122.5 126 Q 118.5 125.5 118 128.5 L 117.5 133 Q 118.4 127.6 115.5 126 L 112.5 125 L 112.5 127 L 108.5 125 L 104.5 132 L 95 131.5 L 96 128.5 L 92.5 126 L 90 127 L 87.5 132 L 87 130.5 Q 89.6 129.1 89 124.5 L 88 122 L 105.5 122 L 117.5 118 L 120.5 115 Z " /><path fill="rgb(229,195,171)" stroke="rgb(229,195,171)" stroke-width="1" opacity="1" d="M 93.5 116 L 97 116.5 L 93.5 117 L 93.5 116 Z " /><path fill="rgb(207,73,92)" stroke="rgb(207,73,92)" stroke-width="1" opacity="1" d="M 96.5 105 Q 100.3 104.3 101 106.5 L 96.5 108 Q 93.5 106.5 96.5 105 Z " /><path fill="rgb(207,73,92)" stroke="rgb(207,73,92)" stroke-width="1" opacity="1" d="M 84.5 138 L 103.5 138 L 104.5 139 L 125.5 140 L 142.5 143 L 148 145.5 L 146.5 146 L 145.5 145 L 130.5 144 L 122.5 142 L 111.5 142 L 102.5 148 L 98.5 149 L 94 142 L 78.5 143 L 74 146 L 75 150.5 L 73.5 150 Q 69.5 147 61.5 148 Q 52.9 149.9 48 155.5 Q 43.5 160.3 45 170 L 36.5 170 L 36 168.5 L 44 150.5 L 49.5 144 L 63.5 140 L 83.5 139 L 84.5 138 Z " /><path fill="rgb(207,73,92)" stroke="rgb(207,73,92)" stroke-width="1" opacity="1" d="M 123.5 153 L 130 153.5 L 123.5 154 L 123.5 153 Z " /><path fill="rgb(207,73,92)" stroke="rgb(207,73,92)" stroke-width="1" opacity="1" d="M 57.5 156 L 56.5 158 L 57.5 156 Z " /><path fill="rgb(207,73,92)" stroke="rgb(207,73,92)" stroke-width="1" opacity="1" d="M 70.5 156 L 71.5 158 L 70.5 156 Z " /><path fill="rgb(207,73,92)" stroke="rgb(207,73,92)" stroke-width="1" opacity="1" d="M 112.5 163 L 113 165.5 L 112 165.5 L 112.5 163 Z " /><path fill="rgb(207,73,92)" stroke="rgb(207,73,92)" stroke-width="1" opacity="1" d="M 51.5 164 L 53 169.5 L 51 170 L 51.5 164 Z " /><path fill="rgb(207,73,92)" stroke="rgb(207,73,92)" stroke-width="1" opacity="1" d="M 43.5 176 L 86.5 176 L 87.5 177 L 103 177.5 L 96.5 179 L 82.5 179 L 81.5 180 L 46.5 181 L 45.5 182 Q 36.5 181 32 183 L 35 191 L 29 195.5 L 26.5 200 L 12 199.5 Q 16.3 186.8 25.5 179 L 34.5 177 L 42.5 177 L 43.5 176 Z " /><path fill="rgb(207,73,92)" stroke="rgb(207,73,92)" stroke-width="1" opacity="1" d="M 36 197 L 73.5 197 L 74.5 198 L 99.5 198 L 100.5 199 L 118 199.5 L 35.5 200 L 36 198.5 L 36 197 Z " /><path fill="rgb(154,61,75)" stroke="rgb(154,61,75)" stroke-width="1" opacity="1" d="M 104.5 138 L 110 138.5 L 104.5 139 L 104.5 138 Z " /><path fill="rgb(154,61,75)" stroke="rgb(154,61,75)" stroke-width="1" opacity="1" d="M 115.5 139 L 121 139.5 L 115.5 140 L 115.5 139 Z " /><path fill="rgb(154,61,75)" stroke="rgb(154,61,75)" stroke-width="1" opacity="1" d="M 126.5 140 L 129 140.5 L 126.5 141 L 126.5 140 Z " /><path fill="rgb(154,61,75)" stroke="rgb(154,61,75)" stroke-width="1" opacity="1" d="M 133.5 141 L 136 141.5 L 133.5 142 L 133.5 141 Z " /><path fill="rgb(154,61,75)" stroke="rgb(154,61,75)" stroke-width="1" opacity="1" d="M 84.5 142 L 93.5 142 L 94 143.5 L 98.5 149 L 102.5 148 L 111.5 142 L 122.5 142 L 123.5 143 L 138.5 144 L 147.5 146 L 147.5 144 L 149 145.5 L 149 149.5 L 153 160.5 L 153 173.5 L 154 174.5 L 150.5 176 L 141 174 Q 143.9 169.1 143 159.5 L 137.5 150 Q 132 145 119.5 147 L 110 153.5 Q 105 157.5 106 167.5 L 107 171 L 80 169.5 Q 82.5 168 81 162.5 Q 79.8 155.8 75.5 152 L 73 150.5 L 74 146 L 78.5 143 Q 83.2 144.3 84.5 142 Z " /><path fill="rgb(154,61,75)" stroke="rgb(154,61,75)" stroke-width="1" opacity="1" d="M 46.5 147 L 45.5 149 L 46.5 147 Z " /><path fill="rgb(154,61,75)" stroke="rgb(154,61,75)" stroke-width="1" opacity="1" d="M 61.5 148 L 69 148.5 L 61.5 149 L 61.5 148 Z " /><path fill="rgb(154,61,75)" stroke="rgb(154,61,75)" stroke-width="1" opacity="1" d="M 42.5 153 L 43 154.5 L 41 155.5 L 42.5 153 Z " /><path fill="rgb(154,61,75)" stroke="rgb(154,61,75)" stroke-width="1" opacity="1" d="M 50.5 153 L 48.5 156 L 50.5 153 Z " /><path fill="rgb(154,61,75)" stroke="rgb(154,61,75)" stroke-width="1" opacity="1" d="M 62.5 154 L 68 154.5 L 62.5 155 L 62.5 154 Z " /><path fill="rgb(154,61,75)" stroke="rgb(154,61,75)" stroke-width="1" opacity="1" d="M 118.5 154 L 116.5 157 L 118.5 154 Z " /><path fill="rgb(154,61,75)" stroke="rgb(154,61,75)" stroke-width="1" opacity="1" d="M 47.5 157 L 47 158.5 L 46.5 160 L 46 158.5 L 47.5 157 Z " /><path fill="rgb(154,61,75)" stroke="rgb(154,61,75)" stroke-width="1" opacity="1" d="M 55.5 157 L 52.5 161 L 55.5 157 Z " /><path fill="rgb(154,61,75)" stroke="rgb(154,61,75)" stroke-width="1" opacity="1" d="M 36.5 170 L 41 170.5 L 36.5 171 L 36.5 170 Z " /><path fill="rgb(154,61,75)" stroke="rgb(154,61,75)" stroke-width="1" opacity="1" d="M 39.5 176 L 43 176.5 L 39.5 177 L 39.5 176 Z " /><path fill="rgb(154,61,75)" stroke="rgb(154,61,75)" stroke-width="1" opacity="1" d="M 87.5 176 L 99 176.5 L 87.5 177 L 87.5 176 Z " /><path fill="rgb(154,61,75)" stroke="rgb(154,61,75)" stroke-width="1" opacity="1" d="M 31.5 177 L 34 177.5 L 31.5 178 L 31.5 177 Z " /><path fill="rgb(154,61,75)" stroke="rgb(154,61,75)" stroke-width="1" opacity="1" d="M 103.5 177 L 110.5 177 L 119.5 179 L 130.5 179 L 131.5 180 L 141.5 180 L 148.5 182 L 162.5 183 L 165 184.5 L 156 191.5 L 150.5 200 L 139.5 200 L 139 198.5 L 136.5 195 L 124.5 194 L 123.5 193 L 93.5 192 L 92.5 191 L 65.5 191 L 64.5 190 L 62.5 191 L 61.5 190 L 44.5 190 L 43.5 191 L 35 191 L 32 183 Q 36.5 181 45.5 182 L 46.5 181 L 59.5 181 L 60.5 180 L 96.5 179 L 103.5 177 Z " /><path fill="rgb(154,61,75)" stroke="rgb(154,61,75)" stroke-width="1" opacity="1" d="M 24.5 179 L 22.5 182 L 24.5 179 Z " /><path fill="rgb(154,61,75)" stroke="rgb(154,61,75)" stroke-width="1" opacity="1" d="M 20.5 184 L 18.5 187 L 20.5 184 Z " /><path fill="rgb(154,61,75)" stroke="rgb(154,61,75)" stroke-width="1" opacity="1" d="M 17.5 188 L 16.5 190 L 17.5 188 Z " /><path fill="rgb(154,61,75)" stroke="rgb(154,61,75)" stroke-width="1" opacity="1" d="M 30.5 194 L 29.5 196 L 30.5 194 Z " /><path fill="rgb(154,61,75)" stroke="rgb(154,61,75)" stroke-width="1" opacity="1" d="M 40.5 196 L 65 196.5 L 40.5 197 L 40.5 196 Z " /><path fill="rgb(154,61,75)" stroke="rgb(154,61,75)" stroke-width="1" opacity="1" d="M 74.5 197 L 93 197.5 L 74.5 198 L 74.5 197 Z " /><path fill="rgb(154,61,75)" stroke="rgb(154,61,75)" stroke-width="1" opacity="1" d="M 35.5 198 L 34.5 200 L 35.5 198 Z " /><path fill="rgb(154,61,75)" stroke="rgb(154,61,75)" stroke-width="1" opacity="1" d="M 100.5 198 L 109 198.5 L 100.5 199 L 100.5 198 Z " /><path fill="rgb(154,61,75)" stroke="rgb(154,61,75)" stroke-width="1" opacity="1" d="M 118.5 199 L 125 199.5 L 118.5 200 L 118.5 199 Z " /><path fill="rgb(245,215,88)" stroke="rgb(245,215,88)" stroke-width="1" opacity="1" d="M 84.5 80 L 85 86.5 L 84 86.5 L 84.5 80 Z " /><path fill="rgb(245,215,88)" stroke="rgb(245,215,88)" stroke-width="1" opacity="1" d="M 91.5 85 L 94 85.5 L 91.5 86 L 91.5 85 Z " /><path fill="rgb(245,215,88)" stroke="rgb(245,215,88)" stroke-width="1" opacity="1" d="M 120.5 154 L 131.5 154 L 136 158.5 L 137 166.5 L 135 172 Q 131.4 174.3 122.5 173 Q 115.9 172.1 113 167.5 Q 111.6 157.1 118.5 155 L 120.5 154 Z " /><path fill="rgb(245,215,88)" stroke="rgb(245,215,88)" stroke-width="1" opacity="1" d="M 61.5 155 Q 71.9 153.6 74 160.5 L 75 166.5 L 72.5 170 L 53.5 170 L 52 168.5 Q 50.7 160.2 55.5 158 L 61.5 155 Z " /><path fill="rgb(75,56,59)" stroke="rgb(75,56,59)" stroke-width="1" opacity="0.996078431372549" d="M 143.5 60 L 145.5 63 L 143.5 60 Z " /><path fill="rgb(75,56,59)" stroke="rgb(75,56,59)" stroke-width="1" opacity="0.996078431372549" d="M 71.5 65 L 73.5 68 L 71.5 65 Z " /><path fill="rgb(75,56,59)" stroke="rgb(75,56,59)" stroke-width="1" opacity="0.996078431372549" d="M 59.5 67 L 56.5 71 L 59.5 67 Z " /><path fill="rgb(75,56,59)" stroke="rgb(75,56,59)" stroke-width="1" opacity="0.996078431372549" d="M 102.5 72 L 108 72.5 L 102.5 73 L 102.5 72 Z " /><path fill="rgb(75,56,59)" stroke="rgb(75,56,59)" stroke-width="1" opacity="0.996078431372549" d="M 112.5 73 L 114 75.5 L 110 84.5 L 113 86.5 L 111.5 87 L 107 86 Q 108 78.2 112.5 73 Z " /><path fill="rgb(75,56,59)" stroke="rgb(75,56,59)" stroke-width="1" opacity="0.996078431372549" d="M 122.5 73 L 128.5 80 L 122.5 73 Z " /><path fill="rgb(75,56,59)" stroke="rgb(75,56,59)" stroke-width="1" opacity="0.996078431372549" d="M 75.5 76 L 71.5 81 L 75.5 76 Z " /><path fill="rgb(75,56,59)" stroke="rgb(75,56,59)" stroke-width="1" opacity="0.996078431372549" d="M 84.5 76 L 82.5 79 L 81 78.5 L 84.5 76 Z " /><path fill="rgb(75,56,59)" stroke="rgb(75,56,59)" stroke-width="1" opacity="0.996078431372549" d="M 118.5 76 L 119.5 78 L 118.5 76 Z " /><path fill="rgb(75,56,59)" stroke="rgb(75,56,59)" stroke-width="1" opacity="0.996078431372549" d="M 120.5 79 Q 125.4 85.1 133.5 88 L 147.5 91 L 153.5 91 L 162 98.5 L 163 102 Q 159.2 103.5 160 100.5 L 153.5 96 L 141.5 95 L 140.5 96 L 129.5 96 L 123 92.5 L 124.5 93 Q 127.5 93.9 126 89.5 Q 124.4 82.1 120.5 79 Z " /><path fill="rgb(75,56,59)" stroke="rgb(75,56,59)" stroke-width="1" opacity="0.996078431372549" d="M 78.5 80 L 75.5 84 L 78.5 80 Z " /><path fill="rgb(75,56,59)" stroke="rgb(75,56,59)" stroke-width="1" opacity="0.996078431372549" d="M 90.5 86 L 93 86.5 L 90.5 87 L 90.5 86 Z " /><path fill="rgb(75,56,59)" stroke="rgb(75,56,59)" stroke-width="1" opacity="0.996078431372549" d="M 57.5 88 L 58.5 90 L 57.5 88 Z " /><path fill="rgb(75,56,59)" stroke="rgb(75,56,59)" stroke-width="1" opacity="0.996078431372549" d="M 120.5 90 L 121.5 92 L 120.5 90 Z " /><path fill="rgb(75,56,59)" stroke="rgb(75,56,59)" stroke-width="1" opacity="0.996078431372549" d="M 76.5 91 L 74.5 94 L 76.5 91 Z " /><path fill="rgb(75,56,59)" stroke="rgb(75,56,59)" stroke-width="1" opacity="0.996078431372549" d="M 91.5 91 L 95 91.5 L 91.5 92 L 91.5 91 Z " /><path fill="rgb(75,56,59)" stroke="rgb(75,56,59)" stroke-width="1" opacity="0.996078431372549" d="M 104.5 91 L 111 91.5 L 104.5 92 L 104.5 91 Z " /><path fill="rgb(75,56,59)" stroke="rgb(75,56,59)" stroke-width="1" opacity="0.996078431372549" d="M 71.5 92 L 72.5 97 L 73.5 95 L 74 96.5 Q 72.8 102.3 68.5 105 Q 65.5 108 58.5 107 L 55.5 109 L 54.5 105 L 61.5 105 L 69 99.5 L 71.5 92 Z " /><path fill="rgb(75,56,59)" stroke="rgb(75,56,59)" stroke-width="1" opacity="0.996078431372549" d="M 118.5 95 L 119.5 97 L 118.5 95 Z " /><path fill="rgb(75,56,59)" stroke="rgb(75,56,59)" stroke-width="1" opacity="0.996078431372549" d="M 112.5 96 L 113.5 98 L 112.5 96 Z " /><path fill="rgb(75,56,59)" stroke="rgb(75,56,59)" stroke-width="1" opacity="0.996078431372549" d="M 106.5 99 L 105.5 101 L 106.5 99 Z " /><path fill="rgb(75,56,59)" stroke="rgb(75,56,59)" stroke-width="1" opacity="0.996078431372549" d="M 81.5 104 L 82.5 106 L 81.5 104 Z " /><path fill="rgb(75,56,59)" stroke="rgb(75,56,59)" stroke-width="1" opacity="0.996078431372549" d="M 125.5 105 L 124.5 107 L 125.5 105 Z " /><path fill="rgb(75,56,59)" stroke="rgb(75,56,59)" stroke-width="1" opacity="0.996078431372549" d="M 48.5 106 L 47.5 108 L 48.5 106 Z " /><path fill="rgb(75,56,59)" stroke="rgb(75,56,59)" stroke-width="1" opacity="0.996078431372549" d="M 84.5 106 L 87 106.5 L 84.5 107 L 84.5 106 Z " /><path fill="rgb(75,56,59)" stroke="rgb(75,56,59)" stroke-width="1" opacity="0.996078431372549" d="M 51.5 110 L 50.5 112 L 51.5 110 Z " /><path fill="rgb(75,56,59)" stroke="rgb(75,56,59)" stroke-width="1" opacity="0.996078431372549" d="M 75.5 111 L 77.5 114 L 75.5 111 Z " /><path fill="rgb(75,56,59)" stroke="rgb(75,56,59)" stroke-width="1" opacity="0.996078431372549" d="M 90.5 112 L 91.5 114 L 90.5 112 Z " /><path fill="rgb(75,56,59)" stroke="rgb(75,56,59)" stroke-width="1" opacity="0.996078431372549" d="M 85.5 116 L 88 116.5 L 85.5 117 L 85.5 116 Z " /><path fill="rgb(75,56,59)" stroke="rgb(75,56,59)" stroke-width="1" opacity="0.996078431372549" d="M 100.5 116 L 103 116.5 L 100.5 117 L 100.5 116 Z " /><path fill="rgb(75,56,59)" stroke="rgb(75,56,59)" stroke-width="1" opacity="0.996078431372549" d="M 124.5 117 L 125.5 119 L 124.5 117 Z " /><path fill="rgb(75,56,59)" stroke="rgb(75,56,59)" stroke-width="1" opacity="0.996078431372549" d="M 126.5 120 L 128.5 123 L 126.5 120 Z " /><path fill="rgb(75,56,59)" stroke="rgb(75,56,59)" stroke-width="1" opacity="0.996078431372549" d="M 108.5 126 L 107.5 128 L 108.5 126 Z " /><path fill="rgb(75,56,59)" stroke="rgb(75,56,59)" stroke-width="1" opacity="0.996078431372549" d="M 120.5 126 L 122 126.5 L 119.5 128 L 120.5 126 Z " /><path fill="rgb(75,56,59)" stroke="rgb(75,56,59)" stroke-width="1" opacity="0.996078431372549" d="M 91.5 127 L 94 127.5 L 90.5 129 L 91.5 127 Z " /><path fill="rgb(75,56,59)" stroke="rgb(75,56,59)" stroke-width="1" opacity="0.996078431372549" d="M 118.5 130 L 119 132.5 L 118 132.5 L 118.5 130 Z " /><path fill="rgb(75,56,59)" stroke="rgb(75,56,59)" stroke-width="1" opacity="0.996078431372549" d="M 123.5 131 L 124 134 L 126 134.5 L 124.5 135 Q 122 134 123.5 131 Z " /><path fill="rgb(75,56,59)" stroke="rgb(75,56,59)" stroke-width="1" opacity="0.996078431372549" d="M 84.5 132 L 87 132.5 L 84.5 133 L 84.5 132 Z " /><path fill="rgb(75,56,59)" stroke="rgb(75,56,59)" stroke-width="1" opacity="0.996078431372549" d="M 96.5 132 L 105 132.5 L 96.5 133 L 96.5 132 Z " /><path fill="rgb(75,56,59)" stroke="rgb(75,56,59)" stroke-width="1" opacity="0.996078431372549" d="M 134.5 132 L 135 136 L 131 135.5 L 134 135 L 134.5 132 Z " /><path fill="rgb(75,56,59)" stroke="rgb(75,56,59)" stroke-width="1" opacity="0.996078431372549" d="M 112.5 133 L 115 133.5 L 112.5 134 L 112.5 133 Z " /><path fill="rgb(75,56,59)" stroke="rgb(75,56,59)" stroke-width="1" opacity="0.996078431372549" d="M 95.5 137 L 100 137.5 L 95.5 138 L 95.5 137 Z " /><path fill="rgb(75,56,59)" stroke="rgb(75,56,59)" stroke-width="1" opacity="0.996078431372549" d="M 77.5 138 L 82 138.5 L 77.5 139 L 77.5 138 Z " /><path fill="rgb(75,56,59)" stroke="rgb(75,56,59)" stroke-width="1" opacity="0.996078431372549" d="M 110.5 138 L 114 138.5 L 110.5 139 L 110.5 138 Z " /><path fill="rgb(75,56,59)" stroke="rgb(75,56,59)" stroke-width="1" opacity="0.996078431372549" d="M 65.5 139 L 69 139.5 L 65.5 140 L 65.5 139 Z " /><path fill="rgb(75,56,59)" stroke="rgb(75,56,59)" stroke-width="1" opacity="0.996078431372549" d="M 121.5 139 L 124 139.5 L 121.5 140 L 121.5 139 Z " /><path fill="rgb(75,56,59)" stroke="rgb(75,56,59)" stroke-width="1" opacity="0.996078431372549" d="M 129.5 140 L 132 140.5 L 129.5 141 L 129.5 140 Z " /><path fill="rgb(75,56,59)" stroke="rgb(75,56,59)" stroke-width="1" opacity="0.996078431372549" d="M 49.5 143 L 45.5 148 L 49.5 143 Z " /><path fill="rgb(75,56,59)" stroke="rgb(75,56,59)" stroke-width="1" opacity="0.996078431372549" d="M 155.5 146 L 170 157.5 L 174 168.5 L 175 180.5 L 173.5 180 L 169.5 180 L 160 177 Q 158 174 159 166.5 L 156.5 162 L 153.5 163 L 152 158.5 L 153 158.5 Q 152.2 161.1 155.5 160 Q 158.3 158.8 157 153.5 L 155.5 146 Z " /><path fill="rgb(75,56,59)" stroke="rgb(75,56,59)" stroke-width="1" opacity="0.996078431372549" d="M 119.5 147 L 123 147.5 L 119.5 148 L 119.5 147 Z " /><path fill="rgb(75,56,59)" stroke="rgb(75,56,59)" stroke-width="1" opacity="0.996078431372549" d="M 128.5 147 L 132 147.5 L 128.5 148 L 128.5 147 Z " /><path fill="rgb(75,56,59)" stroke="rgb(75,56,59)" stroke-width="1" opacity="0.996078431372549" d="M 133.5 148 L 136 149.5 L 134.5 149 L 133.5 148 Z " /><path fill="rgb(75,56,59)" stroke="rgb(75,56,59)" stroke-width="1" opacity="0.996078431372549" d="M 44.5 149 L 43.5 151 L 44.5 149 Z " /><path fill="rgb(75,56,59)" stroke="rgb(75,56,59)" stroke-width="1" opacity="0.996078431372549" d="M 115.5 149 L 114.5 151 L 115.5 149 Z " /><path fill="rgb(75,56,59)" stroke="rgb(75,56,59)" stroke-width="1" opacity="0.996078431372549" d="M 72.5 150 L 73.5 152 L 72.5 150 Z " /><path fill="rgb(75,56,59)" stroke="rgb(75,56,59)" stroke-width="1" opacity="0.996078431372549" d="M 137.5 150 L 138.5 152 L 137.5 150 Z " /><path fill="rgb(75,56,59)" stroke="rgb(75,56,59)" stroke-width="1" opacity="0.996078431372549" d="M 52.5 152 L 48.5 157 L 52.5 152 Z " /><path fill="rgb(75,56,59)" stroke="rgb(75,56,59)" stroke-width="1" opacity="0.996078431372549" d="M 75.5 152 L 76.5 154 L 75.5 152 Z " /><path fill="rgb(75,56,59)" stroke="rgb(75,56,59)" stroke-width="1" opacity="0.996078431372549" d="M 111.5 152 L 111 153.5 L 107.5 160 L 107 158.5 L 111.5 152 Z " /><path fill="rgb(75,56,59)" stroke="rgb(75,56,59)" stroke-width="1" opacity="0.996078431372549" d="M 139.5 153 L 142 157.5 L 141 157.5 L 139.5 153 Z " /><path fill="rgb(75,56,59)" stroke="rgb(75,56,59)" stroke-width="1" opacity="0.996078431372549" d="M 133.5 154 L 134.5 156 L 133.5 154 Z " /><path fill="rgb(75,56,59)" stroke="rgb(75,56,59)" stroke-width="1" opacity="0.996078431372549" d="M 70.5 155 L 72.5 158 L 70.5 155 Z " /><path fill="rgb(75,56,59)" stroke="rgb(75,56,59)" stroke-width="1" opacity="0.996078431372549" d="M 77.5 155 L 80 159.5 L 79 159.5 L 77.5 155 Z " /><path fill="rgb(75,56,59)" stroke="rgb(75,56,59)" stroke-width="1" opacity="0.996078431372549" d="M 116.5 155 L 114.5 158 L 116.5 155 Z " /><path fill="rgb(75,56,59)" stroke="rgb(75,56,59)" stroke-width="1" opacity="0.996078431372549" d="M 142.5 159 L 143 161.5 L 142 161.5 L 142.5 159 Z " /><path fill="rgb(75,56,59)" stroke="rgb(75,56,59)" stroke-width="1" opacity="0.996078431372549" d="M 106.5 161 L 107 167.5 L 106 167.5 L 106.5 161 Z " /><path fill="rgb(75,56,59)" stroke="rgb(75,56,59)" stroke-width="1" opacity="0.996078431372549" d="M 80.5 162 L 81 168.5 L 80 168.5 L 80.5 162 Z " /><path fill="rgb(75,56,59)" stroke="rgb(75,56,59)" stroke-width="1" opacity="0.996078431372549" d="M 137.5 162 L 138 164.5 L 137 164.5 L 137.5 162 Z " /><path fill="rgb(75,56,59)" stroke="rgb(75,56,59)" stroke-width="1" opacity="0.996078431372549" d="M 45.5 163 L 46 165.5 L 45 165.5 L 45.5 163 Z " /><path fill="rgb(75,56,59)" stroke="rgb(75,56,59)" stroke-width="1" opacity="0.996078431372549" d="M 50.5 165 L 51 168.5 L 50 168.5 L 50.5 165 Z " /><path fill="rgb(75,56,59)" stroke="rgb(75,56,59)" stroke-width="1" opacity="0.996078431372549" d="M 107.5 169 L 108 172 L 105 171.5 L 107 171 L 107.5 169 Z " /><path fill="rgb(75,56,59)" stroke="rgb(75,56,59)" stroke-width="1" opacity="0.996078431372549" d="M 113.5 169 L 114.5 171 L 113.5 169 Z " /><path fill="rgb(75,56,59)" stroke="rgb(75,56,59)" stroke-width="1" opacity="0.996078431372549" d="M 153.5 169 L 154 173.5 L 153 173.5 L 153.5 169 Z " /><path fill="rgb(75,56,59)" stroke="rgb(75,56,59)" stroke-width="1" opacity="0.996078431372549" d="M 41.5 170 L 45 170.5 L 41.5 171 L 41.5 170 Z " /><path fill="rgb(75,56,59)" stroke="rgb(75,56,59)" stroke-width="1" opacity="0.996078431372549" d="M 54.5 170 L 61 170.5 L 54.5 171 L 54.5 170 Z " /><path fill="rgb(75,56,59)" stroke="rgb(75,56,59)" stroke-width="1" opacity="0.996078431372549" d="M 88.5 170 L 98 170.5 L 88.5 171 L 88.5 170 Z " /><path fill="rgb(75,56,59)" stroke="rgb(75,56,59)" stroke-width="1" opacity="0.996078431372549" d="M 127.5 173 L 132 173.5 L 127.5 174 L 127.5 173 Z " /><path fill="rgb(75,56,59)" stroke="rgb(75,56,59)" stroke-width="1" opacity="0.996078431372549" d="M 140.5 173 L 143 174.5 L 140 175 L 140.5 173 Z " /><path fill="rgb(75,56,59)" stroke="rgb(75,56,59)" stroke-width="1" opacity="0.996078431372549" d="M 68.5 175 L 83 175.5 L 68.5 176 L 68.5 175 Z " /><path fill="rgb(75,56,59)" stroke="rgb(75,56,59)" stroke-width="1" opacity="0.996078431372549" d="M 147.5 175 L 150 175.5 L 147.5 176 L 147.5 175 Z " /><path fill="rgb(75,56,59)" stroke="rgb(75,56,59)" stroke-width="1" opacity="0.996078431372549" d="M 36.5 176 L 39 176.5 L 36.5 177 L 36.5 176 Z " /><path fill="rgb(75,56,59)" stroke="rgb(75,56,59)" stroke-width="1" opacity="0.996078431372549" d="M 99.5 176 L 103 176.5 L 99.5 177 L 99.5 176 Z " /><path fill="rgb(75,56,59)" stroke="rgb(75,56,59)" stroke-width="1" opacity="0.996078431372549" d="M 111.5 177 L 115 177.5 L 111.5 178 L 111.5 177 Z " /><path fill="rgb(75,56,59)" stroke="rgb(75,56,59)" stroke-width="1" opacity="0.996078431372549" d="M 119.5 178 L 127 178.5 L 119.5 179 L 119.5 178 Z " /><path fill="rgb(75,56,59)" stroke="rgb(75,56,59)" stroke-width="1" opacity="0.996078431372549" d="M 131.5 179 L 138 179.5 L 131.5 180 L 131.5 179 Z " /><path fill="rgb(75,56,59)" stroke="rgb(75,56,59)" stroke-width="1" opacity="0.996078431372549" d="M 142.5 180 L 145 180.5 L 142.5 181 L 142.5 180 Z " /><path fill="rgb(75,56,59)" stroke="rgb(75,56,59)" stroke-width="1" opacity="0.996078431372549" d="M 148.5 181 L 152 181.5 L 148.5 182 L 148.5 181 Z " /><path fill="rgb(75,56,59)" stroke="rgb(75,56,59)" stroke-width="1" opacity="0.996078431372549" d="M 21.5 182 L 19.5 185 L 21.5 182 Z " /><path fill="rgb(75,56,59)" stroke="rgb(75,56,59)" stroke-width="1" opacity="0.996078431372549" d="M 155.5 182 L 158 182.5 L 155.5 183 L 155.5 182 Z " /><path fill="rgb(75,56,59)" stroke="rgb(75,56,59)" stroke-width="1" opacity="0.996078431372549" d="M 163.5 183 L 166 184.5 L 164.5 184 L 163.5 183 Z " /><path fill="rgb(75,56,59)" stroke="rgb(75,56,59)" stroke-width="1" opacity="0.996078431372549" d="M 163.5 185 L 162.5 187 L 163.5 185 Z " /><path fill="rgb(75,56,59)" stroke="rgb(75,56,59)" stroke-width="1" opacity="0.996078431372549" d="M 17.5 187 L 16.5 189 L 17.5 187 Z " /><path fill="rgb(75,56,59)" stroke="rgb(75,56,59)" stroke-width="1" opacity="0.996078431372549" d="M 159.5 188 L 156.5 192 L 159.5 188 Z " /><path fill="rgb(75,56,59)" stroke="rgb(75,56,59)" stroke-width="1" opacity="0.996078431372549" d="M 170.5 188 Q 184.8 188.8 190 198.5 L 189.5 200 L 158 200 L 162.5 193 L 170.5 188 Z " /><path fill="rgb(75,56,59)" stroke="rgb(75,56,59)" stroke-width="1" opacity="0.996078431372549" d="M 44.5 190 L 62 190.5 L 44.5 191 L 44.5 190 Z " /><path fill="rgb(75,56,59)" stroke="rgb(75,56,59)" stroke-width="1" opacity="0.996078431372549" d="M 85.5 191 L 93 191.5 L 85.5 192 L 85.5 191 Z " /><path fill="rgb(75,56,59)" stroke="rgb(75,56,59)" stroke-width="1" opacity="0.996078431372549" d="M 32.5 192 L 31.5 194 L 32.5 192 Z " /><path fill="rgb(75,56,59)" stroke="rgb(75,56,59)" stroke-width="1" opacity="0.996078431372549" d="M 102.5 192 L 109 192.5 L 102.5 193 L 102.5 192 Z " /><path fill="rgb(75,56,59)" stroke="rgb(75,56,59)" stroke-width="1" opacity="0.996078431372549" d="M 120.5 193 L 124 193.5 L 120.5 194 L 120.5 193 Z " /><path fill="rgb(75,56,59)" stroke="rgb(75,56,59)" stroke-width="1" opacity="0.996078431372549" d="M 155.5 193 L 153.5 196 L 155.5 193 Z " /><path fill="rgb(75,56,59)" stroke="rgb(75,56,59)" stroke-width="1" opacity="0.996078431372549" d="M 130.5 194 L 133 194.5 L 130.5 195 L 130.5 194 Z " /><path fill="rgb(75,56,59)" stroke="rgb(75,56,59)" stroke-width="1" opacity="0.996078431372549" d="M 135.5 195 L 138 196.5 L 136.5 196 L 135.5 195 Z " /><path fill="rgb(75,56,59)" stroke="rgb(75,56,59)" stroke-width="1" opacity="0.996078431372549" d="M 37.5 196 L 40 196.5 L 37.5 197 L 37.5 196 Z " /><path fill="rgb(75,56,59)" stroke="rgb(75,56,59)" stroke-width="1" opacity="0.996078431372549" d="M 65.5 196 L 71 196.5 L 65.5 197 L 65.5 196 Z " /><path fill="rgb(75,56,59)" stroke="rgb(75,56,59)" stroke-width="1" opacity="0.996078431372549" d="M 93.5 197 L 97 197.5 L 93.5 198 L 93.5 197 Z " /><path fill="rgb(75,56,59)" stroke="rgb(75,56,59)" stroke-width="1" opacity="0.996078431372549" d="M 109.5 198 L 114 198.5 L 109.5 199 L 109.5 198 Z " /></svg>