<svg width="200" height="200" version="1.1" xmlns="http://www.w3.org/2000/svg" desc="Created with imagetracer.js version 1.2.6" ><path fill="rgb(0,0,0)" stroke="rgb(0,0,0)" stroke-width="1" opacity="0.07058823529411765" d="M 9.5 32 L 8.5 34 L 9.5 32 Z " /><path fill="rgb(0,0,0)" stroke="rgb(0,0,0)" stroke-width="1" opacity="0.07058823529411765" d="M 11.5 34 L 12.5 36 L 11.5 34 Z " /><path fill="rgb(0,0,0)" stroke="rgb(0,0,0)" stroke-width="1" opacity="0.07058823529411765" d="M 14.5 39 L 17 45.5 L 16 45.5 L 14.5 39 Z " /><path fill="rgb(0,0,0)" stroke="rgb(0,0,0)" stroke-width="1" opacity="0.07058823529411765" d="M 3.5 42 L 4 43.5 L 0.5 50 L 0 48.5 L 3.5 42 Z " /><path fill="rgb(0,0,0)" stroke="rgb(0,0,0)" stroke-width="1" opacity="0.07058823529411765" d="M 17.5 47 L 19 51.5 L 18 51.5 L 17.5 47 Z " /><path fill="rgb(0,0,0)" stroke="rgb(0,0,0)" stroke-width="1" opacity="0.07058823529411765" d="M 19.5 53 L 20 55.5 L 19 55.5 L 19.5 53 Z " /><path fill="rgb(0,0,0)" stroke="rgb(0,0,0)" stroke-width="1" opacity="0.07058823529411765" d="M 20.5 57 L 21 59.5 L 20 59.5 L 20.5 57 Z " /><path fill="rgb(0,0,0)" stroke="rgb(0,0,0)" stroke-width="1" opacity="0.07058823529411765" d="M 21.5 61 L 23 66.5 L 22 66.5 L 21.5 61 Z " /><path fill="rgb(0,0,0)" stroke="rgb(0,0,0)" stroke-width="1" opacity="0.07058823529411765" d="M 27.5 64 L 36 66 L 41 75.5 L 39 76 Q 38.5 69.2 33.5 66 L 27.5 65 L 27.5 64 Z " /><path fill="rgb(0,0,0)" stroke="rgb(0,0,0)" stroke-width="1" opacity="0.07058823529411765" d="M 199.5 64 L 198 66.5 L 193.5 72 L 182 70.5 L 189.5 70 L 193.5 71 L 199.5 64 Z " /><path fill="rgb(0,0,0)" stroke="rgb(0,0,0)" stroke-width="1" opacity="0.07058823529411765" d="M 179.5 71 L 181 71.5 L 173 77.5 L 172.5 79 L 172 77.5 L 175.5 73 L 179.5 71 Z " /><path fill="rgb(0,0,0)" stroke="rgb(0,0,0)" stroke-width="1" opacity="0.07058823529411765" d="M 44.5 73 Q 54.5 72.5 58 78.5 L 60 83 L 76.5 77 L 85.5 77 L 98 82.5 L 95.5 83 L 85.5 78 L 76.5 78 Q 66.9 79.9 60.5 85 L 56 77 L 49.5 74 L 44.5 74 L 42.5 75 L 42.5 74 L 44.5 73 Z " /><path fill="rgb(0,0,0)" stroke="rgb(0,0,0)" stroke-width="1" opacity="0.07058823529411765" d="M 113.5 77 L 123 77.5 L 109.5 79 L 109.5 78 L 113.5 77 Z " /><path fill="rgb(0,0,0)" stroke="rgb(0,0,0)" stroke-width="1" opacity="0.07058823529411765" d="M 124.5 78 L 127.5 78 L 143.5 86 L 154.5 78 L 162.5 78 L 171 82 L 171.5 80 L 172 83 L 162.5 79 L 154.5 79 L 145 85.5 Q 145.8 87.8 143.5 87 L 127.5 79 L 124.5 79 L 124.5 78 Z " /><path fill="rgb(0,0,0)" stroke="rgb(0,0,0)" stroke-width="1" opacity="0.07058823529411765" d="M 104.5 79 L 108 79.5 L 99.5 82 L 99.5 81 L 104.5 79 Z " /><path fill="rgb(0,0,0)" stroke="rgb(0,0,0)" stroke-width="1" opacity="0.07058823529411765" d="M 6.5 92 L 9 93.5 Q 9.5 99.1 13.5 101 L 20.5 102 L 25 101 Q 24.8 107.9 30 110.5 Q 25.8 116.3 27 127.5 L 29 132.5 L 27 131.5 L 26 118.5 L 29 110.5 Q 24.2 108 24 102 L 14.5 103 L 10 100 L 8 93 L 0.5 96 L 0.5 95 L 6.5 92 Z " /><path fill="rgb(0,0,0)" stroke="rgb(0,0,0)" stroke-width="1" opacity="0.07058823529411765" d="M 198.5 102 L 198 103.5 Q 198.8 105.8 196.5 105 L 193 107.5 L 198.5 102 Z " /><path fill="rgb(0,0,0)" stroke="rgb(0,0,0)" stroke-width="1" opacity="0.07058823529411765" d="M 180 107 L 188.5 109 L 191.5 108 L 191.5 109 L 185.5 110 L 181.5 108 L 174.5 116 L 170 118.5 L 169.5 126 L 169 117 Q 175.6 115.9 179 110.5 L 180 107 Z " /><path fill="rgb(0,0,0)" stroke="rgb(0,0,0)" stroke-width="1" opacity="0.07058823529411765" d="M 168.5 127 L 169 136.5 L 167.5 139 L 167 137.5 L 168 136.5 L 168.5 127 Z " /><path fill="rgb(0,0,0)" stroke="rgb(0,0,0)" stroke-width="1" opacity="0.07058823529411765" d="M 30.5 136 L 39 143 L 38.5 152 L 38 144.5 L 35.5 142 L 32 139.5 L 30.5 136 Z " /><path fill="rgb(0,0,0)" stroke="rgb(0,0,0)" stroke-width="1" opacity="0.07058823529411765" d="M 165.5 142 L 165 143.5 L 162.5 147 L 143.5 154 L 143.5 153 L 152.5 149 L 156.5 149 L 164 144.5 L 165.5 142 Z " /><path fill="rgb(0,0,0)" stroke="rgb(0,0,0)" stroke-width="1" opacity="0.07058823529411765" d="M 39.5 153 L 45.5 160 L 55 162.5 L 51.5 163 Q 43.4 161.6 40 155.5 L 39.5 153 Z " /><path fill="rgb(0,0,0)" stroke="rgb(0,0,0)" stroke-width="1" opacity="0.07058823529411765" d="M 140.5 154 L 142 154.5 L 131.5 158 L 131.5 157 L 140.5 154 Z " /><path fill="rgb(0,0,0)" stroke="rgb(0,0,0)" stroke-width="1" opacity="0.07058823529411765" d="M 129.5 158 L 139 171.5 L 137 170.5 L 129 159.5 L 129.5 158 Z " /><path fill="rgb(0,0,0)" stroke="rgb(0,0,0)" stroke-width="1" opacity="0.07058823529411765" d="M 56.5 163 L 65 164 L 55.5 184 L 55 182.5 L 64 165.5 Q 61.9 163.1 56.5 164 L 56.5 163 Z " /><path fill="rgb(0,0,0)" stroke="rgb(0,0,0)" stroke-width="1" opacity="0.07058823529411765" d="M 139.5 173 Q 146.2 182.8 150 195.5 L 149 195.5 L 139.5 173 Z " /><path fill="rgb(0,0,0)" stroke="rgb(0,0,0)" stroke-width="1" opacity="0.07058823529411765" d="M 51.5 194 L 52 195.5 L 49.5 200 L 50 198.5 L 51.5 194 Z " /><path fill="rgb(0,0,0)" stroke="rgb(0,0,0)" stroke-width="1" opacity="0" d="M 0 0 L 199.5 0 L 200 0.5 L 200 63.5 L 193.5 71 L 182.5 70 L 174 74.5 L 171 82 L 162.5 78 L 154.5 78 L 143.5 86 L 127.5 78 L 113.5 77 L 95.5 82 L 85.5 77 L 76.5 77 L 60 83 L 55.5 76 Q 52.3 72.2 44.5 73 L 40.5 75 L 36 66 L 27.5 64 L 23.5 66 L 16 41.5 L 9.5 32 L 0.5 48 L 0 0 Z " /><path fill="rgb(0,0,0)" stroke="rgb(0,0,0)" stroke-width="1" opacity="0" d="M 6.5 93 Q 9.1 92.2 8 95.5 L 10 100 L 14.5 103 L 20.5 103 L 24 102 Q 24.2 108 29 110.5 Q 24.8 116.3 26 127.5 L 27 131.5 L 34.5 142 L 38 144.5 L 38 151.5 L 45.5 161 L 56.5 164 L 61.5 164 L 64 165.5 L 56 179.5 Q 54 191.5 48.5 200 L 0 200 L 0 96 L 6.5 93 Z " /><path fill="rgb(0,0,0)" stroke="rgb(0,0,0)" stroke-width="1" opacity="0" d="M 199.5 102 L 200 200 L 151.5 200 L 151 198.5 Q 143.6 174.6 130 158 L 139.5 156 L 152.5 150 L 156.5 150 L 165 144.5 L 169 136.5 L 170 118.5 L 171.5 117 Q 177.6 115.6 180 110.5 L 181.5 108 L 188.5 110 L 198 105 L 199.5 102 Z " /><path fill="rgb(0,0,0)" stroke="rgb(0,0,0)" stroke-width="1" opacity="0.803921568627451" d="M 5.5 39 L 6 40.5 L 4.5 43 L 4 41.5 L 5.5 39 Z " /><path fill="rgb(0,0,0)" stroke="rgb(0,0,0)" stroke-width="1" opacity="0.803921568627451" d="M 15.5 44 L 17 47.5 L 16 47.5 L 15.5 44 Z " /><path fill="rgb(0,0,0)" stroke="rgb(0,0,0)" stroke-width="1" opacity="0.803921568627451" d="M 18.5 52 L 19 54.5 L 18 54.5 L 18.5 52 Z " /><path fill="rgb(0,0,0)" stroke="rgb(0,0,0)" stroke-width="1" opacity="0.803921568627451" d="M 19.5 56 L 20 58.5 L 19 58.5 L 19.5 56 Z " /><path fill="rgb(0,0,0)" stroke="rgb(0,0,0)" stroke-width="1" opacity="0.803921568627451" d="M 26.5 65 L 31 65.5 L 26.5 66 L 26.5 65 Z " /><path fill="rgb(0,0,0)" stroke="rgb(0,0,0)" stroke-width="1" opacity="0.803921568627451" d="M 199.5 65 L 198.5 67 L 199.5 65 Z " /><path fill="rgb(0,0,0)" stroke="rgb(0,0,0)" stroke-width="1" opacity="0.803921568627451" d="M 32.5 66 L 37 69.5 L 33.5 67 L 32.5 66 Z " /><path fill="rgb(0,0,0)" stroke="rgb(0,0,0)" stroke-width="1" opacity="0.803921568627451" d="M 197.5 68 L 193.5 73 L 191 72.5 Q 196.1 72.1 197.5 68 Z " /><path fill="rgb(0,0,0)" stroke="rgb(0,0,0)" stroke-width="1" opacity="0.803921568627451" d="M 181.5 71 L 190 71.5 L 181.5 72 L 181.5 71 Z " /><path fill="rgb(0,0,0)" stroke="rgb(0,0,0)" stroke-width="1" opacity="0.803921568627451" d="M 177.5 73 L 174 77.5 L 172.5 81 L 172 79.5 L 177.5 73 Z " /><path fill="rgb(0,0,0)" stroke="rgb(0,0,0)" stroke-width="1" opacity="0.803921568627451" d="M 38.5 74 L 39 76 L 42.5 75 L 42.5 76 L 39.5 77 L 38.5 74 Z " /><path fill="rgb(0,0,0)" stroke="rgb(0,0,0)" stroke-width="1" opacity="0.803921568627451" d="M 44.5 74 L 50 74.5 L 44.5 75 L 44.5 74 Z " /><path fill="rgb(0,0,0)" stroke="rgb(0,0,0)" stroke-width="1" opacity="0.803921568627451" d="M 51.5 75 L 54 76.5 L 52.5 76 L 51.5 75 Z " /><path fill="rgb(0,0,0)" stroke="rgb(0,0,0)" stroke-width="1" opacity="0.803921568627451" d="M 76.5 78 L 86 78.5 L 76.5 79 L 76.5 78 Z " /><path fill="rgb(0,0,0)" stroke="rgb(0,0,0)" stroke-width="1" opacity="0.803921568627451" d="M 113.5 78 L 124 78.5 L 113.5 79 L 113.5 78 Z " /><path fill="rgb(0,0,0)" stroke="rgb(0,0,0)" stroke-width="1" opacity="0.803921568627451" d="M 56.5 79 L 60 83.5 L 58 82.5 L 56.5 79 Z " /><path fill="rgb(0,0,0)" stroke="rgb(0,0,0)" stroke-width="1" opacity="0.803921568627451" d="M 108.5 79 L 111 79.5 L 108.5 80 L 108.5 79 Z " /><path fill="rgb(0,0,0)" stroke="rgb(0,0,0)" stroke-width="1" opacity="0.803921568627451" d="M 126.5 79 L 130 80.5 L 128.5 81 L 126.5 79 Z " /><path fill="rgb(0,0,0)" stroke="rgb(0,0,0)" stroke-width="1" opacity="0.803921568627451" d="M 154.5 79 L 163 79.5 L 154.5 80 L 154.5 79 Z " /><path fill="rgb(0,0,0)" stroke="rgb(0,0,0)" stroke-width="1" opacity="0.803921568627451" d="M 104.5 80 L 107 80.5 L 104.5 81 L 104.5 80 Z " /><path fill="rgb(0,0,0)" stroke="rgb(0,0,0)" stroke-width="1" opacity="0.803921568627451" d="M 164.5 80 L 169 82.5 L 167.5 82 Q 163.8 81.7 164.5 80 Z " /><path fill="rgb(0,0,0)" stroke="rgb(0,0,0)" stroke-width="1" opacity="0.803921568627451" d="M 93.5 81 L 94.5 83 L 93.5 81 Z " /><path fill="rgb(0,0,0)" stroke="rgb(0,0,0)" stroke-width="1" opacity="0.803921568627451" d="M 150.5 81 L 149.5 83 L 150.5 81 Z " /><path fill="rgb(0,0,0)" stroke="rgb(0,0,0)" stroke-width="1" opacity="0.803921568627451" d="M 98.5 82 L 100 82.5 L 96.5 84 L 96.5 83 L 98.5 82 Z " /><path fill="rgb(0,0,0)" stroke="rgb(0,0,0)" stroke-width="1" opacity="0.803921568627451" d="M 63.5 83 L 62.5 85 L 60.5 86 L 61.5 84 L 63.5 83 Z " /><path fill="rgb(0,0,0)" stroke="rgb(0,0,0)" stroke-width="1" opacity="0.803921568627451" d="M 147.5 83 L 145.5 86 L 147.5 83 Z " /><path fill="rgb(0,0,0)" stroke="rgb(0,0,0)" stroke-width="1" opacity="0.803921568627451" d="M 7.5 91 Q 9.8 90.3 9 92.5 L 7.5 91 Z " /><path fill="rgb(0,0,0)" stroke="rgb(0,0,0)" stroke-width="1" opacity="0.803921568627451" d="M 10.5 97 L 13.5 101 L 10.5 97 Z " /><path fill="rgb(0,0,0)" stroke="rgb(0,0,0)" stroke-width="1" opacity="0.803921568627451" d="M 22.5 100 L 25 100.5 L 22.5 101 L 22.5 100 Z " /><path fill="rgb(0,0,0)" stroke="rgb(0,0,0)" stroke-width="1" opacity="0.803921568627451" d="M 15.5 101 L 21 101.5 L 15.5 102 L 15.5 101 Z " /><path fill="rgb(0,0,0)" stroke="rgb(0,0,0)" stroke-width="1" opacity="0.803921568627451" d="M 198.5 101 L 200 101.5 L 195.5 105 L 198.5 101 Z " /><path fill="rgb(0,0,0)" stroke="rgb(0,0,0)" stroke-width="1" opacity="0.803921568627451" d="M 26.5 106 L 29.5 110 L 26.5 106 Z " /><path fill="rgb(0,0,0)" stroke="rgb(0,0,0)" stroke-width="1" opacity="0.803921568627451" d="M 180.5 106 L 180 107.5 L 179.5 109 L 179 107.5 L 180.5 106 Z " /><path fill="rgb(0,0,0)" stroke="rgb(0,0,0)" stroke-width="1" opacity="0.803921568627451" d="M 193.5 106 L 192.5 108 L 191 107.5 L 193.5 106 Z " /><path fill="rgb(0,0,0)" stroke="rgb(0,0,0)" stroke-width="1" opacity="0.803921568627451" d="M 185.5 108 L 189 108.5 L 185.5 109 L 185.5 108 Z " /><path fill="rgb(0,0,0)" stroke="rgb(0,0,0)" stroke-width="1" opacity="0.803921568627451" d="M 178.5 110 L 174.5 115 L 178.5 110 Z " /><path fill="rgb(0,0,0)" stroke="rgb(0,0,0)" stroke-width="1" opacity="0.803921568627451" d="M 28.5 114 L 29 116.5 L 28 116.5 L 28.5 114 Z " /><path fill="rgb(0,0,0)" stroke="rgb(0,0,0)" stroke-width="1" opacity="0.803921568627451" d="M 27.5 118 L 28 127.5 L 27 127.5 L 27.5 118 Z " /><path fill="rgb(0,0,0)" stroke="rgb(0,0,0)" stroke-width="1" opacity="0.803921568627451" d="M 168.5 121 L 169 126.5 L 168 126.5 L 168.5 121 Z " /><path fill="rgb(0,0,0)" stroke="rgb(0,0,0)" stroke-width="1" opacity="0.803921568627451" d="M 29.5 133 L 38 142.5 L 30 135.5 L 29.5 133 Z " /><path fill="rgb(0,0,0)" stroke="rgb(0,0,0)" stroke-width="1" opacity="0.803921568627451" d="M 166.5 138 L 167 139.5 L 164.5 143 L 165 141.5 L 166.5 138 Z " /><path fill="rgb(0,0,0)" stroke="rgb(0,0,0)" stroke-width="1" opacity="0.803921568627451" d="M 163.5 144 L 162.5 146 L 160.5 147 L 161.5 145 L 163.5 144 Z " /><path fill="rgb(0,0,0)" stroke="rgb(0,0,0)" stroke-width="1" opacity="0.803921568627451" d="M 154.5 148 L 157 148.5 L 154.5 149 L 154.5 148 Z " /><path fill="rgb(0,0,0)" stroke="rgb(0,0,0)" stroke-width="1" opacity="0.803921568627451" d="M 39.5 151 L 41 153.5 L 39 152.5 L 39.5 151 Z " /><path fill="rgb(0,0,0)" stroke="rgb(0,0,0)" stroke-width="1" opacity="0.803921568627451" d="M 41.5 155 L 49 160.5 L 47.5 161 L 41.5 155 Z " /><path fill="rgb(0,0,0)" stroke="rgb(0,0,0)" stroke-width="1" opacity="0.803921568627451" d="M 129.5 157 L 131 157.5 L 129 158 L 135 166.5 L 132 164.5 L 127 158.5 L 129.5 157 Z " /><path fill="rgb(0,0,0)" stroke="rgb(0,0,0)" stroke-width="1" opacity="0.803921568627451" d="M 51.5 161 L 54 161.5 L 51.5 162 L 51.5 161 Z " /><path fill="rgb(0,0,0)" stroke="rgb(0,0,0)" stroke-width="1" opacity="0.803921568627451" d="M 55.5 162 L 59 162.5 L 55.5 163 L 55.5 162 Z " /><path fill="rgb(0,0,0)" stroke="rgb(0,0,0)" stroke-width="1" opacity="0.803921568627451" d="M 62.5 163 Q 67.3 161.3 66 165.5 L 64 166.5 L 65 164 Q 61.7 164.8 62.5 163 Z " /><path fill="rgb(0,0,0)" stroke="rgb(0,0,0)" stroke-width="1" opacity="0.803921568627451" d="M 63.5 168 L 63 169.5 L 61.5 172 L 62 170.5 L 63.5 168 Z " /><path fill="rgb(0,0,0)" stroke="rgb(0,0,0)" stroke-width="1" opacity="0.803921568627451" d="M 135.5 168 L 136.5 170 L 135.5 168 Z " /><path fill="rgb(0,0,0)" stroke="rgb(0,0,0)" stroke-width="1" opacity="0.803921568627451" d="M 137.5 171 L 144 183.5 L 143 183.5 L 137.5 171 Z " /><path fill="rgb(0,0,0)" stroke="rgb(0,0,0)" stroke-width="1" opacity="0.803921568627451" d="M 56.5 182 L 57 183.5 L 55.5 186 L 55 184.5 L 56.5 182 Z " /><path fill="rgb(0,0,0)" stroke="rgb(0,0,0)" stroke-width="1" opacity="0.996078431372549" d="M 3.5 45 L 4 48 L 2 47.5 L 3.5 45 Z " /><path fill="rgb(0,0,0)" stroke="rgb(0,0,0)" stroke-width="1" opacity="0.996078431372549" d="M 16.5 48 L 18 52.5 L 16 51.5 L 16.5 48 Z " /><path fill="rgb(0,0,0)" stroke="rgb(0,0,0)" stroke-width="1" opacity="0.996078431372549" d="M 20.5 62 L 22.5 67 L 24 67.5 L 20 68 L 20.5 62 Z " /><path fill="rgb(0,0,0)" stroke="rgb(0,0,0)" stroke-width="1" opacity="0.996078431372549" d="M 28 66 Q 33 65.2 35 68.5 L 33.5 68 Q 26.6 70 28 66 Z " /><path fill="rgb(0,0,0)" stroke="rgb(0,0,0)" stroke-width="1" opacity="0.996078431372549" d="M 199.5 66 L 198.5 68 L 199.5 66 Z " /><path fill="rgb(0,0,0)" stroke="rgb(0,0,0)" stroke-width="1" opacity="0.996078431372549" d="M 36.5 70 Q 36.7 75.3 40 77.5 L 37.5 76 L 36 75.5 L 36.5 70 Z " /><path fill="rgb(0,0,0)" stroke="rgb(0,0,0)" stroke-width="1" opacity="0.996078431372549" d="M 195.5 71 L 194.5 73 L 195.5 71 Z " /><path fill="rgb(0,0,0)" stroke="rgb(0,0,0)" stroke-width="1" opacity="0.996078431372549" d="M 180.5 72 L 184 72.5 L 180.5 73 L 180.5 72 Z " /><path fill="rgb(0,0,0)" stroke="rgb(0,0,0)" stroke-width="1" opacity="0.996078431372549" d="M 188.5 72 L 191 72.5 L 188.5 73 L 188.5 72 Z " /><path fill="rgb(0,0,0)" stroke="rgb(0,0,0)" stroke-width="1" opacity="0.996078431372549" d="M 48.5 75 L 51 75.5 L 48.5 76 L 48.5 75 Z " /><path fill="rgb(0,0,0)" stroke="rgb(0,0,0)" stroke-width="1" opacity="0.996078431372549" d="M 54.5 77 L 55.5 79 L 54.5 77 Z " /><path fill="rgb(0,0,0)" stroke="rgb(0,0,0)" stroke-width="1" opacity="0.996078431372549" d="M 84.5 79 L 87 79.5 L 84.5 80 L 84.5 79 Z " /><path fill="rgb(0,0,0)" stroke="rgb(0,0,0)" stroke-width="1" opacity="0.996078431372549" d="M 111.5 79 L 114 79.5 L 111.5 80 L 111.5 79 Z " /><path fill="rgb(0,0,0)" stroke="rgb(0,0,0)" stroke-width="1" opacity="0.996078431372549" d="M 123.5 79 L 133 82.5 Q 131.8 85 128 84 Q 129.5 80.2 126.5 81 L 123.5 80 L 123.5 79 Z " /><path fill="rgb(0,0,0)" stroke="rgb(0,0,0)" stroke-width="1" opacity="0.996078431372549" d="M 107.5 80 L 110 80.5 L 108 81 Q 109.6 85.9 104 84 L 103 81.5 L 107.5 80 Z " /><path fill="rgb(0,0,0)" stroke="rgb(0,0,0)" stroke-width="1" opacity="0.996078431372549" d="M 68.5 81 L 70 81.5 L 68 82 Q 69.3 85.3 64.5 84 L 63 84.5 L 68.5 81 Z " /><path fill="rgb(0,0,0)" stroke="rgb(0,0,0)" stroke-width="1" opacity="0.996078431372549" d="M 91.5 81 L 96 83.5 L 92 84 L 91.5 81 Z " /><path fill="rgb(0,0,0)" stroke="rgb(0,0,0)" stroke-width="1" opacity="0.996078431372549" d="M 151.5 81 L 152 84 L 148 83.5 L 151.5 81 Z " /><path fill="rgb(0,0,0)" stroke="rgb(0,0,0)" stroke-width="1" opacity="0.996078431372549" d="M 172.5 81 L 173 83.5 L 170.5 85 L 169.5 83 L 172 84 L 172.5 81 Z " /><path fill="rgb(0,0,0)" stroke="rgb(0,0,0)" stroke-width="1" opacity="0.996078431372549" d="M 100.5 82 L 99.5 84 L 98 83.5 L 100.5 82 Z " /><path fill="rgb(0,0,0)" stroke="rgb(0,0,0)" stroke-width="1" opacity="0.996078431372549" d="M 58.5 83 L 59.5 85 L 58.5 83 Z " /><path fill="rgb(0,0,0)" stroke="rgb(0,0,0)" stroke-width="1" opacity="0.996078431372549" d="M 8.5 90 L 9.5 92 L 8.5 90 Z " /><path fill="rgb(0,0,0)" stroke="rgb(0,0,0)" stroke-width="1" opacity="0.996078431372549" d="M 13.5 99 L 16 100.5 L 14.5 101 L 13.5 99 Z " /><path fill="rgb(0,0,0)" stroke="rgb(0,0,0)" stroke-width="1" opacity="0.996078431372549" d="M 24.5 99 Q 27.5 98.1 26 102.5 L 25 102.5 L 24.5 99 Z " /><path fill="rgb(0,0,0)" stroke="rgb(0,0,0)" stroke-width="1" opacity="0.996078431372549" d="M 183.5 107 L 188 107.5 L 183.5 108 L 183.5 107 Z " /><path fill="rgb(0,0,0)" stroke="rgb(0,0,0)" stroke-width="1" opacity="0.996078431372549" d="M 29.5 108 L 31 110.5 L 30 110.5 L 29.5 108 Z " /><path fill="rgb(0,0,0)" stroke="rgb(0,0,0)" stroke-width="1" opacity="0.996078431372549" d="M 176 108 Q 179.7 106.5 179 109.5 L 176 111.5 L 176 108 Z " /><path fill="rgb(0,0,0)" stroke="rgb(0,0,0)" stroke-width="1" opacity="0.996078431372549" d="M 174.5 113 L 173.5 115 L 174.5 113 Z " /><path fill="rgb(0,0,0)" stroke="rgb(0,0,0)" stroke-width="1" opacity="0.996078431372549" d="M 171.5 114 L 172 116 L 169 117.5 Q 169.8 121.3 167.5 122 L 168 120.5 Q 166.1 115.1 169.5 116 L 171.5 114 Z " /><path fill="rgb(0,0,0)" stroke="rgb(0,0,0)" stroke-width="1" opacity="0.996078431372549" d="M 28.5 117 L 29 121.5 L 28 121.5 L 28.5 117 Z " /><path fill="rgb(0,0,0)" stroke="rgb(0,0,0)" stroke-width="1" opacity="0.996078431372549" d="M 167.5 124 L 168 134.5 L 167 134.5 L 167.5 124 Z " /><path fill="rgb(0,0,0)" stroke="rgb(0,0,0)" stroke-width="1" opacity="0.996078431372549" d="M 28.5 125 L 29 129.5 L 28 129.5 L 28.5 125 Z " /><path fill="rgb(0,0,0)" stroke="rgb(0,0,0)" stroke-width="1" opacity="0.996078431372549" d="M 29.5 131 L 32 132 L 32 136 Q 37.6 133.8 36 139.5 L 31 135.5 L 29.5 131 Z " /><path fill="rgb(0,0,0)" stroke="rgb(0,0,0)" stroke-width="1" opacity="0.996078431372549" d="M 38.5 142 Q 41.8 143.8 40 150.5 L 39 150.5 Q 39.6 143.8 38.5 142 Z " /><path fill="rgb(0,0,0)" stroke="rgb(0,0,0)" stroke-width="1" opacity="0.996078431372549" d="M 163.5 143 L 162.5 145 L 163.5 143 Z " /><path fill="rgb(0,0,0)" stroke="rgb(0,0,0)" stroke-width="1" opacity="0.996078431372549" d="M 148 148 L 154 148.5 L 147.5 151 L 148 149.5 L 148 148 Z " /><path fill="rgb(0,0,0)" stroke="rgb(0,0,0)" stroke-width="1" opacity="0.996078431372549" d="M 136 152 L 144 152.5 L 136 155 L 136 152 Z " /><path fill="rgb(0,0,0)" stroke="rgb(0,0,0)" stroke-width="1" opacity="0.996078431372549" d="M 41.5 154 L 43.5 157 L 41.5 154 Z " /><path fill="rgb(0,0,0)" stroke="rgb(0,0,0)" stroke-width="1" opacity="0.996078431372549" d="M 127.5 157 L 129 157.5 L 127 158.5 L 131.5 164 Q 126.3 165.8 128 160.5 Q 124.3 158.8 127.5 157 Z " /><path fill="rgb(0,0,0)" stroke="rgb(0,0,0)" stroke-width="1" opacity="0.996078431372549" d="M 49.5 160 L 52 160.5 L 49.5 161 L 49.5 160 Z " /><path fill="rgb(0,0,0)" stroke="rgb(0,0,0)" stroke-width="1" opacity="0.996078431372549" d="M 59.5 162 L 63 162.5 L 59.5 163 L 59.5 162 Z " /><path fill="rgb(0,0,0)" stroke="rgb(0,0,0)" stroke-width="1" opacity="0.996078431372549" d="M 133.5 166 L 134.5 168 L 133.5 166 Z " /><path fill="rgb(0,0,0)" stroke="rgb(0,0,0)" stroke-width="1" opacity="0.996078431372549" d="M 135.5 169 L 136.5 171 L 135.5 169 Z " /><path fill="rgb(0,0,0)" stroke="rgb(0,0,0)" stroke-width="1" opacity="1" d="M 9.5 33 L 13 37.5 L 16 51.5 L 18 53.5 L 20 60.5 L 20 68 L 27.5 66 L 28 68 L 36 69 L 36 75.5 L 37.5 76 Q 39 79.5 40.5 77 L 47.5 75 L 52.5 76 L 57 80.5 L 60.5 86 L 68 84 Q 66.9 81.3 69.5 82 Q 74 78 83.5 79 L 88.5 80 L 92 82.5 L 92.5 84 L 99.5 84 Q 100.6 81.3 104 82 Q 102.8 85.7 108 84 Q 106.5 80.2 109.5 81 Q 113.9 77.9 122.5 79 L 128 81 Q 126.3 85.5 131.5 84 L 133.5 83 L 144.5 88 L 147 84 L 152 84 Q 150.3 79.9 154.5 81 Q 156 78.5 161.5 80 L 171.5 85 L 175 76.5 L 177.5 74 L 187.5 72 Q 189 74.5 194.5 73 L 199.5 67 L 200 72.5 L 195 79 L 189.5 76 L 181.5 76 L 177 80.5 Q 177 87 173.5 90 L 162.5 84 L 155.5 84 L 149 88.5 L 147 93 L 123.5 83 L 113.5 83 L 98.5 88 L 94.5 88 Q 89.6 81.4 76.5 83 L 58 91 L 53 81 L 49.5 79 L 45.5 79 L 35.5 84 L 34 80.5 L 35 78.5 L 33 72.5 L 30.5 70 L 19.5 73 L 18 71.5 L 14 53.5 L 9.5 43 L 5 52.5 L 1.5 56 Q -1.9 56.9 0 51.5 L 2 48 Q 5.3 49.3 4 44.5 L 9.5 33 Z " /><path fill="rgb(0,0,0)" stroke="rgb(0,0,0)" stroke-width="1" opacity="1" d="M 10.5 83 L 14 84.5 L 13 92.5 L 16.5 97 L 20.5 97 L 29 94 L 30 103.5 L 36 109.5 L 32 119.5 L 32 127.5 Q 34.6 134.9 40.5 139 L 43 140.5 Q 40.9 153.1 48.5 156 L 68.5 160 L 99.5 160 L 124.5 155 L 144.5 148 L 150.5 144 L 153.5 145 L 161 140.5 L 164 131.5 L 162 127.5 Q 165 124.5 164 117.5 L 167.5 112 Q 173.1 111.6 175 107.5 Q 175.3 102.8 178.5 101 L 188.5 104 L 197.5 96 L 200 96 L 200 99.5 L 193.5 106 L 188.5 108 L 179 106 Q 180.1 109.3 176 108 L 176 113 L 174.5 113 L 169.5 116 Q 166.1 115.1 168 120.5 L 168 122.5 L 167 124.5 L 167 136.5 L 160.5 146 Q 156.3 149.5 148 148 L 146.5 151 L 136 152 Q 137.7 156.1 133.5 155 L 126 158.5 Q 129 159.8 128 164 Q 131.8 163 133 165.5 L 140 176.5 L 140 180 Q 142.7 178.9 142 181.5 L 150 199.5 L 145 200 L 144 194.5 L 134 173.5 L 123.5 161 L 120.5 160 L 119.5 161 L 109.5 161 L 98.5 164 L 71 164 L 65 174.5 L 65 179 Q 62.3 177.9 63 180.5 L 54.5 200 L 51 199.5 L 58 179.5 L 67 163 L 64.5 162 L 62.5 162 L 55.5 162 L 44 158 L 40 151.5 L 40 143.5 L 38.5 142 L 36 140.5 L 36 136 L 32 136 L 32 132 L 30.5 132 L 29 130.5 L 28 122.5 L 31 109.5 L 27 106.5 L 26 99 L 16.5 101 L 11 97.5 L 9 92.5 Q 11.3 91.3 8.5 90 L 0 94 Q -1 90.2 1.5 89 Q 7.6 87.6 10.5 83 Z " /><path fill="rgb(185,236,113)" stroke="rgb(185,236,113)" stroke-width="1" opacity="1" d="M 51.5 104 Q 66.2 101.8 71 109.5 Q 75.8 114.7 74 126.5 L 66.5 136 L 59.5 138 L 50.5 138 Q 43.8 136.8 40 132.5 Q 35.7 128.3 37 118.5 Q 39.1 111.1 44.5 107 L 51.5 104 Z " /><path fill="rgb(185,236,113)" stroke="rgb(185,236,113)" stroke-width="1" opacity="1" d="M 112.5 104 Q 127.2 101.8 132 109.5 Q 136.8 114.7 135 126.5 L 127.5 136 L 120.5 138 L 114.5 138 L 106.5 136 L 102 132.5 Q 97.3 127.7 99 116.5 L 105.5 107 L 112.5 104 Z " /><path fill="rgb(185,236,113)" stroke="rgb(185,236,113)" stroke-width="1" opacity="1" d="M 85.5 134 L 91 134.5 L 85.5 135 L 85.5 134 Z " /><path fill="rgb(185,236,113)" stroke="rgb(185,236,113)" stroke-width="1" opacity="1" d="M 93.5 138 L 97 142.5 L 96 142.5 L 95.5 141 L 94 141.5 L 95 140.5 L 93.5 138 Z " /><path fill="rgb(185,236,113)" stroke="rgb(185,236,113)" stroke-width="1" opacity="1" d="M 141.5 138 L 140.5 140 L 141.5 138 Z " /><path fill="rgb(185,236,113)" stroke="rgb(185,236,113)" stroke-width="1" opacity="1" d="M 80.5 139 L 78.5 142 L 80.5 139 Z " /><path fill="rgb(185,236,113)" stroke="rgb(185,236,113)" stroke-width="1" opacity="1" d="M 85.5 140 L 88 140.5 L 85.5 141 L 85.5 140 Z " /><path fill="rgb(185,236,113)" stroke="rgb(185,236,113)" stroke-width="1" opacity="1" d="M 80.5 142 L 77.5 146 L 80.5 142 Z " /><path fill="rgb(185,236,113)" stroke="rgb(185,236,113)" stroke-width="1" opacity="1" d="M 98.5 143 Q 100.8 142.3 100 144.5 L 98.5 143 Z " /><path fill="rgb(185,236,113)" stroke="rgb(185,236,113)" stroke-width="1" opacity="1" d="M 148.5 143 L 151 143.5 L 148.5 144 L 148.5 143 Z " /><path fill="rgb(185,236,113)" stroke="rgb(185,236,113)" stroke-width="1" opacity="1" d="M 146.5 144 L 145.5 146 L 146.5 144 Z " /><path fill="rgb(185,236,113)" stroke="rgb(185,236,113)" stroke-width="1" opacity="1" d="M 75.5 149 L 76 152.5 L 75 152.5 L 75.5 149 Z " /><path fill="rgb(185,236,113)" stroke="rgb(185,236,113)" stroke-width="1" opacity="1" d="M 46.5 152 L 48.5 155 L 46.5 152 Z " /><path fill="rgb(185,236,113)" stroke="rgb(185,236,113)" stroke-width="1" opacity="1" d="M 76.5 154 L 77.5 156 L 76.5 154 Z " /><path fill="rgb(185,236,113)" stroke="rgb(185,236,113)" stroke-width="1" opacity="1" d="M 82.5 157 L 85 157.5 L 82.5 158 L 82.5 157 Z " /><path fill="rgb(185,236,113)" stroke="rgb(185,236,113)" stroke-width="1" opacity="1" d="M 87.5 157 L 95 157.5 L 87.5 158 L 87.5 157 Z " /><path fill="rgb(185,236,113)" stroke="rgb(185,236,113)" stroke-width="1" opacity="1" d="M 112.5 163 L 112 164.5 L 106.5 176 L 106 173 L 103 171.5 L 112.5 163 Z " /><path fill="rgb(185,236,113)" stroke="rgb(185,236,113)" stroke-width="1" opacity="1" d="M 93.5 165 L 100 165.5 L 95.5 169 L 92.5 169 L 90.5 166 L 93.5 165 Z " /><path fill="rgb(185,236,113)" stroke="rgb(185,236,113)" stroke-width="1" opacity="1" d="M 79 166 L 88 173.5 L 84.5 178 L 86 175.5 Q 86.5 171.5 83.5 171 L 80.5 173 L 79 166 Z " /><path fill="rgb(185,236,113)" stroke="rgb(185,236,113)" stroke-width="1" opacity="1" d="M 133.5 176 L 144 200 L 139 200 L 139 198.5 L 132.5 191 L 131 191.5 L 133.5 176 Z " /><path fill="rgb(185,236,113)" stroke="rgb(185,236,113)" stroke-width="1" opacity="1" d="M 131.5 196 L 132 198.5 L 131 198.5 L 131.5 196 Z " /><path fill="rgb(185,236,113)" stroke="rgb(185,236,113)" stroke-width="1" opacity="1" d="M 57.5 197 Q 60.1 196.2 59 199.5 L 58 199.5 L 57.5 197 Z " /><path fill="rgb(57,39,48)" stroke="rgb(57,39,48)" stroke-width="1" opacity="0.996078431372549" d="M 4.5 54 L 3.5 56 L 4.5 54 Z " /><path fill="rgb(57,39,48)" stroke="rgb(57,39,48)" stroke-width="1" opacity="0.996078431372549" d="M 15.5 62 L 16 64.5 L 15 64.5 L 15.5 62 Z " /><path fill="rgb(57,39,48)" stroke="rgb(57,39,48)" stroke-width="1" opacity="0.996078431372549" d="M 17.5 71 L 18 73 L 20 73.5 L 18.5 74 L 17.5 71 Z " /><path fill="rgb(57,39,48)" stroke="rgb(57,39,48)" stroke-width="1" opacity="0.996078431372549" d="M 197.5 76 L 195.5 79 L 197.5 76 Z " /><path fill="rgb(57,39,48)" stroke="rgb(57,39,48)" stroke-width="1" opacity="0.996078431372549" d="M 179.5 78 L 178.5 80 L 179.5 78 Z " /><path fill="rgb(57,39,48)" stroke="rgb(57,39,48)" stroke-width="1" opacity="0.996078431372549" d="M 192.5 78 L 193.5 80 L 192.5 78 Z " /><path fill="rgb(57,39,48)" stroke="rgb(57,39,48)" stroke-width="1" opacity="0.996078431372549" d="M 50.5 80 L 53.5 84 L 50.5 80 Z " /><path fill="rgb(57,39,48)" stroke="rgb(57,39,48)" stroke-width="1" opacity="0.996078431372549" d="M 79.5 83 L 83 83.5 L 79.5 84 L 79.5 83 Z " /><path fill="rgb(57,39,48)" stroke="rgb(57,39,48)" stroke-width="1" opacity="0.996078431372549" d="M 117.5 83 L 120 83.5 L 117.5 84 L 117.5 83 Z " /><path fill="rgb(57,39,48)" stroke="rgb(57,39,48)" stroke-width="1" opacity="0.996078431372549" d="M 157.5 84 L 160 84.5 L 157.5 85 L 157.5 84 Z " /><path fill="rgb(57,39,48)" stroke="rgb(57,39,48)" stroke-width="1" opacity="0.996078431372549" d="M 6.5 85 L 5.5 87 L 6.5 85 Z " /><path fill="rgb(57,39,48)" stroke="rgb(57,39,48)" stroke-width="1" opacity="0.996078431372549" d="M 152.5 86 L 151.5 88 L 152.5 86 Z " /><path fill="rgb(57,39,48)" stroke="rgb(57,39,48)" stroke-width="1" opacity="0.996078431372549" d="M 133.5 88 L 137 89.5 L 135.5 90 L 133.5 88 Z " /><path fill="rgb(57,39,48)" stroke="rgb(57,39,48)" stroke-width="1" opacity="0.996078431372549" d="M 149.5 89 L 148.5 91 L 149.5 89 Z " /><path fill="rgb(57,39,48)" stroke="rgb(57,39,48)" stroke-width="1" opacity="0.996078431372549" d="M 175.5 89 L 174.5 91 L 173 90.5 L 175.5 89 Z " /><path fill="rgb(57,39,48)" stroke="rgb(57,39,48)" stroke-width="1" opacity="0.996078431372549" d="M 57.5 90 L 58.5 92 L 57.5 90 Z " /><path fill="rgb(57,39,48)" stroke="rgb(57,39,48)" stroke-width="1" opacity="0.996078431372549" d="M 14.5 92 L 17 95.5 L 14 93.5 L 14.5 92 Z " /><path fill="rgb(57,39,48)" stroke="rgb(57,39,48)" stroke-width="1" opacity="0.996078431372549" d="M 147.5 92 L 146.5 94 L 147.5 92 Z " /><path fill="rgb(57,39,48)" stroke="rgb(57,39,48)" stroke-width="1" opacity="0.996078431372549" d="M 26.5 93 L 30 94.5 L 28.5 94 Q 25.5 94.5 26.5 93 Z " /><path fill="rgb(57,39,48)" stroke="rgb(57,39,48)" stroke-width="1" opacity="0.996078431372549" d="M 49.5 94 L 63 94.5 L 60 95 Q 59 98.8 61.5 100 Q 70.9 100.1 75 105.5 Q 80.3 111.7 81 122.5 Q 78.5 124 80 129.5 L 74.5 138 L 65.5 142 L 55.5 143 L 44.5 141 L 35 132.5 Q 31.2 127.8 33 117.5 L 36 108.5 L 41.5 103 Q 44.1 103.8 43 100.5 L 39.5 99 L 37 100.5 Q 41.2 95.2 49.5 94 Z M 53 103 L 45 106 L 39 112 L 36 119 Q 34 129 39 133 L 43 136 L 54 139 L 63 138 L 68 136 Q 73 132 75 125 L 75 118 L 72 110 L 63 103 L 53 103 Z " /><path fill="rgb(57,39,48)" stroke="rgb(57,39,48)" stroke-width="1" opacity="0.996078431372549" d="M 110.5 94 L 117 94.5 L 116 99 L 126.5 100 L 136 105.5 Q 141.5 112 142 123.5 L 140 131.5 L 136.5 136 L 125.5 142 L 108.5 142 Q 107.3 139.8 106 142.5 L 105.5 146 Q 97.5 143.5 93 137.5 L 90 133.5 L 92 133.5 L 91 128 L 85 129 L 86 118.5 L 84 113.5 Q 84.8 111.3 88.5 112 L 92.5 114 L 96 112.5 L 96 110.5 L 101 104.5 L 97 101.5 Q 101.9 95.9 110.5 94 Z M 113 103 L 106 106 Q 100 109 98 117 Q 97 126 100 132 L 105 136 L 113 138 Q 123 140 129 136 Q 134 132 136 125 L 136 118 L 132 109 Q 127 101 113 103 Z " /><path fill="rgb(57,39,48)" stroke="rgb(57,39,48)" stroke-width="1" opacity="0.996078431372549" d="M 121.5 94 L 125 94.5 L 121.5 95 L 121.5 94 Z " /><path fill="rgb(57,39,48)" stroke="rgb(57,39,48)" stroke-width="1" opacity="0.996078431372549" d="M 126.5 95 L 129 95.5 L 126.5 96 L 126.5 95 Z " /><path fill="rgb(57,39,48)" stroke="rgb(57,39,48)" stroke-width="1" opacity="0.996078431372549" d="M 196.5 95 L 194.5 98 L 196.5 95 Z " /><path fill="rgb(57,39,48)" stroke="rgb(57,39,48)" stroke-width="1" opacity="0.996078431372549" d="M 74.5 98 L 80.5 105 L 74.5 98 Z " /><path fill="rgb(57,39,48)" stroke="rgb(57,39,48)" stroke-width="1" opacity="0.996078431372549" d="M 135.5 98 L 141.5 105 L 135.5 98 Z " /><path fill="rgb(57,39,48)" stroke="rgb(57,39,48)" stroke-width="1" opacity="0.996078431372549" d="M 178.5 100 L 181 100.5 L 178.5 101 L 178.5 100 Z " /><path fill="rgb(57,39,48)" stroke="rgb(57,39,48)" stroke-width="1" opacity="0.996078431372549" d="M 35.5 101 L 34 103.5 Q 34.8 105.8 32.5 105 L 35.5 101 Z " /><path fill="rgb(57,39,48)" stroke="rgb(57,39,48)" stroke-width="1" opacity="0.996078431372549" d="M 190.5 101 L 189.5 103 L 188 102.5 L 190.5 101 Z " /><path fill="rgb(57,39,48)" stroke="rgb(57,39,48)" stroke-width="1" opacity="0.996078431372549" d="M 95.5 102 L 95 103.5 L 93 108 L 89 107.5 L 94 104.5 L 95.5 102 Z " /><path fill="rgb(57,39,48)" stroke="rgb(57,39,48)" stroke-width="1" opacity="0.996078431372549" d="M 176.5 102 L 175.5 104 L 176.5 102 Z " /><path fill="rgb(57,39,48)" stroke="rgb(57,39,48)" stroke-width="1" opacity="0.996078431372549" d="M 144.5 105 L 147 105.5 L 144.5 106 L 144.5 105 Z " /><path fill="rgb(57,39,48)" stroke="rgb(57,39,48)" stroke-width="1" opacity="0.996078431372549" d="M 81.5 106 L 82.5 108 L 81.5 106 Z " /><path fill="rgb(57,39,48)" stroke="rgb(57,39,48)" stroke-width="1" opacity="0.996078431372549" d="M 161.5 110 L 166 112.5 L 164.5 112 Q 160.7 111.8 161.5 110 Z " /><path fill="rgb(57,39,48)" stroke="rgb(57,39,48)" stroke-width="1" opacity="0.996078431372549" d="M 145 111 Q 157.1 111.8 164 118.5 L 161.5 128 L 156.5 127 L 155 127.5 L 157 122 L 146 128 L 147 118.5 L 145 111 Z " /><path fill="rgb(57,39,48)" stroke="rgb(57,39,48)" stroke-width="1" opacity="0.996078431372549" d="M 152.5 130 L 150.5 133 L 152.5 130 Z " /><path fill="rgb(57,39,48)" stroke="rgb(57,39,48)" stroke-width="1" opacity="0.996078431372549" d="M 144.5 133 L 143.5 135 L 144.5 133 Z " /><path fill="rgb(57,39,48)" stroke="rgb(57,39,48)" stroke-width="1" opacity="0.996078431372549" d="M 141.5 137 L 139.5 140 L 141.5 137 Z " /><path fill="rgb(57,39,48)" stroke="rgb(57,39,48)" stroke-width="1" opacity="0.996078431372549" d="M 80.5 138 L 77.5 142 L 80.5 138 Z " /><path fill="rgb(57,39,48)" stroke="rgb(57,39,48)" stroke-width="1" opacity="0.996078431372549" d="M 136.5 141 L 135.5 143 L 136.5 141 Z " /><path fill="rgb(57,39,48)" stroke="rgb(57,39,48)" stroke-width="1" opacity="0.996078431372549" d="M 147.5 144 L 146.5 146 L 147.5 144 Z " /><path fill="rgb(57,39,48)" stroke="rgb(57,39,48)" stroke-width="1" opacity="0.996078431372549" d="M 53.5 147 L 62 147.5 L 53.5 148 L 53.5 147 Z " /><path fill="rgb(57,39,48)" stroke="rgb(57,39,48)" stroke-width="1" opacity="0.996078431372549" d="M 114.5 147 L 117 147.5 L 114.5 148 L 114.5 147 Z " /><path fill="rgb(57,39,48)" stroke="rgb(57,39,48)" stroke-width="1" opacity="0.996078431372549" d="M 119.5 147 L 122 147.5 L 119.5 148 L 119.5 147 Z " /><path fill="rgb(57,39,48)" stroke="rgb(57,39,48)" stroke-width="1" opacity="0.996078431372549" d="M 46.5 153 L 47.5 155 L 46.5 153 Z " /><path fill="rgb(57,39,48)" stroke="rgb(57,39,48)" stroke-width="1" opacity="0.996078431372549" d="M 93.5 159 L 96 159.5 L 93.5 160 L 93.5 159 Z " /><path fill="rgb(57,39,48)" stroke="rgb(57,39,48)" stroke-width="1" opacity="0.996078431372549" d="M 120.5 161 Q 126.6 162.4 129 167.5 L 126 188.5 L 129.5 190 L 131 189.5 L 131 200 L 126 200 L 126 190.5 L 124.5 189 L 107.5 185 L 98.5 195 L 91.5 199 L 83 191.5 L 77.5 182 L 65 179 L 71 165 L 74 166.5 L 77 179.5 L 80.5 184 L 87 184 Q 85.5 180.3 88.5 181 L 93.5 177 L 100 180 L 99 182.5 L 106.5 185 L 114 174.5 L 120.5 161 Z M 93 179 L 90 181 L 89 183 L 98 183 L 99 182 Q 98 178 93 179 Z M 90 189 L 93 192 L 96 190 L 90 189 Z " /><path fill="rgb(57,39,48)" stroke="rgb(57,39,48)" stroke-width="1" opacity="0.996078431372549" d="M 103.5 163 L 99.5 168 L 103.5 163 Z " /><path fill="rgb(57,39,48)" stroke="rgb(57,39,48)" stroke-width="1" opacity="0.996078431372549" d="M 92.5 164 L 97 164.5 L 92.5 165 L 92.5 164 Z " /><path fill="rgb(57,39,48)" stroke="rgb(57,39,48)" stroke-width="1" opacity="0.996078431372549" d="M 78.5 165 L 79 167.5 L 78 167.5 L 78.5 165 Z " /><path fill="rgb(57,39,48)" stroke="rgb(57,39,48)" stroke-width="1" opacity="0.996078431372549" d="M 81.5 165 L 82.5 167 L 81.5 165 Z " /><path fill="rgb(57,39,48)" stroke="rgb(57,39,48)" stroke-width="1" opacity="0.996078431372549" d="M 107.5 166 L 104.5 170 L 107.5 166 Z " /><path fill="rgb(57,39,48)" stroke="rgb(57,39,48)" stroke-width="1" opacity="0.996078431372549" d="M 89.5 167 L 90.5 169 L 89.5 167 Z " /><path fill="rgb(57,39,48)" stroke="rgb(57,39,48)" stroke-width="1" opacity="0.996078431372549" d="M 83.5 168 L 86.5 172 L 83.5 168 Z " /><path fill="rgb(57,39,48)" stroke="rgb(57,39,48)" stroke-width="1" opacity="0.996078431372549" d="M 97.5 168 L 96.5 170 L 95 169.5 L 97.5 168 Z " /><path fill="rgb(57,39,48)" stroke="rgb(57,39,48)" stroke-width="1" opacity="0.996078431372549" d="M 79.5 170 L 80 172.5 L 79 172.5 L 79.5 170 Z " /><path fill="rgb(57,39,48)" stroke="rgb(57,39,48)" stroke-width="1" opacity="0.996078431372549" d="M 102.5 170 L 101.5 172 L 102.5 170 Z " /><path fill="rgb(57,39,48)" stroke="rgb(57,39,48)" stroke-width="1" opacity="0.996078431372549" d="M 88.5 172 L 90 174.5 L 89 174.5 L 88.5 172 Z " /><path fill="rgb(57,39,48)" stroke="rgb(57,39,48)" stroke-width="1" opacity="0.996078431372549" d="M 99.5 172 L 98.5 174 L 99.5 172 Z " /><path fill="rgb(57,39,48)" stroke="rgb(57,39,48)" stroke-width="1" opacity="0.996078431372549" d="M 109.5 172 L 109 173.5 L 107.5 176 L 108 174.5 L 109.5 172 Z " /><path fill="rgb(57,39,48)" stroke="rgb(57,39,48)" stroke-width="1" opacity="0.996078431372549" d="M 132 174 L 134 174.5 L 132.5 177 L 132 174 Z " /><path fill="rgb(57,39,48)" stroke="rgb(57,39,48)" stroke-width="1" opacity="0.996078431372549" d="M 87.5 175 L 85.5 178 L 87.5 175 Z " /><path fill="rgb(57,39,48)" stroke="rgb(57,39,48)" stroke-width="1" opacity="0.996078431372549" d="M 64.5 180 L 65 183.5 L 64 184.5 L 64 200 L 59 200 L 59 193.5 Q 56.5 192 60 190.5 L 62 182.5 L 64.5 180 Z " /><path fill="rgb(57,39,48)" stroke="rgb(57,39,48)" stroke-width="1" opacity="0.996078431372549" d="M 131.5 180 L 132 183.5 L 131 183.5 L 131.5 180 Z " /><path fill="rgb(243,221,204)" stroke="rgb(243,221,204)" stroke-width="1" opacity="1" d="M 157.5 127 Q 161.5 126.5 162 129.5 Q 163.2 139.2 157.5 142 L 151.5 144 L 148.5 143 L 138.5 149 L 110.5 157 L 99.5 158 L 98.5 159 L 69.5 159 L 49.5 155 L 45 150.5 L 44 147 L 49.5 148 L 65.5 148 Q 75.2 145.7 81 139.5 L 83 135 L 90.5 135 L 93 137.5 L 96 141.5 L 94.5 141 L 85.5 140 Q 79.8 141.3 77 145.5 L 75 152.5 L 77.5 156 Q 83.3 159.7 94.5 158 Q 95.7 155.8 100.5 157 L 104 153.5 Q 105.2 145.7 100 144.5 L 101.5 145 Q 109.8 149.8 124.5 148 Q 135.4 145.4 142 138.5 L 144 134 Q 151.1 135.8 153 131.5 L 155.5 128 L 157.5 127 Z " /><path fill="rgb(243,221,204)" stroke="rgb(243,221,204)" stroke-width="1" opacity="1" d="M 83.5 171 Q 86.5 171.5 86 175.5 L 82 178 L 81 172 L 83.5 171 Z " /><path fill="rgb(243,221,204)" stroke="rgb(243,221,204)" stroke-width="1" opacity="1" d="M 102.5 172 L 106 173 L 106 177 L 104.5 177 L 100 175 Q 98.9 172.3 101.5 173 L 102.5 172 Z " /><path fill="rgb(243,221,204)" stroke="rgb(243,221,204)" stroke-width="1" opacity="1" d="M 132.5 191 Q 138.2 193.9 139 200 L 132 200 L 132 196.5 L 131 192.5 L 132.5 191 Z " /><path fill="rgb(149,73,69)" stroke="rgb(149,73,69)" stroke-width="1" opacity="0.996078431372549" d="M 9.5 45 L 13 53.5 L 17 72.5 L 18.5 74 L 26.5 71 L 30.5 71 Q 35.3 75.7 34.5 86 L 42.5 81 L 49.5 80 Q 55.6 84.4 58.5 92 L 72.5 85 L 85.5 84 L 94.5 89 L 98.5 89 L 112.5 84 L 122.5 84 L 146.5 94 L 150 88 L 155.5 85 L 162.5 85 L 174.5 91 L 176 89.5 L 178 80.5 L 180.5 78 L 189.5 77 L 194.5 80 L 199.5 74 L 200 95 Q 195.3 94 194 97.5 L 191.5 101 L 186.5 103 L 178.5 100 L 171.5 110 L 165.5 112 L 150.5 106 L 142.5 105 Q 137.9 97.6 128.5 95 Q 121.4 92.6 110.5 94 Q 100.2 96.7 94 103.5 L 91.5 107 L 82.5 107 L 81 105.5 L 74.5 98 L 62.5 94 L 49.5 94 L 39.5 98 L 31 104 L 30 94.5 L 28.5 93 L 17.5 96 Q 12.7 93.8 14 85.5 L 14 83.5 Q 14.8 80.9 11.5 82 L 0.5 89 L 0 56 Q 3.8 57 5 54.5 L 9.5 45 Z " /><path fill="rgb(149,73,69)" stroke="rgb(149,73,69)" stroke-width="1" opacity="0.996078431372549" d="M 52.5 103 L 62.5 103 L 72 109.5 L 71.5 111 L 68.5 107 Q 63.7 102.3 52.5 104 L 52.5 103 Z " /><path fill="rgb(149,73,69)" stroke="rgb(149,73,69)" stroke-width="1" opacity="0.996078431372549" d="M 112.5 103 Q 127.2 100.8 132 108.5 L 129.5 107 Q 124.3 102.2 112.5 104 Q 105.6 105.5 102 110.5 Q 97.3 115.3 99 126.5 L 103.5 134 L 106 135.5 L 104.5 136 Q 96.2 131.3 98 116.5 Q 99.8 109.3 105.5 106 L 112.5 103 Z " /><path fill="rgb(149,73,69)" stroke="rgb(149,73,69)" stroke-width="1" opacity="0.996078431372549" d="M 48.5 104 L 51 104.5 Q 44.2 105.7 41 110.5 L 37 118.5 L 37 126.5 L 41.5 134 L 44 135.5 L 42.5 136 L 36 127.5 L 36 118.5 L 39 111.5 L 44.5 106 L 48.5 104 Z " /><path fill="rgb(149,73,69)" stroke="rgb(149,73,69)" stroke-width="1" opacity="0.996078431372549" d="M 132.5 110 L 134 112.5 L 133 112.5 L 132.5 110 Z " /><path fill="rgb(149,73,69)" stroke="rgb(149,73,69)" stroke-width="1" opacity="0.996078431372549" d="M 74.5 117 L 75 124.5 L 74 124.5 L 74.5 117 Z " /><path fill="rgb(149,73,69)" stroke="rgb(149,73,69)" stroke-width="1" opacity="0.996078431372549" d="M 135.5 117 L 136 124.5 L 135 124.5 L 135.5 117 Z " /><path fill="rgb(149,73,69)" stroke="rgb(149,73,69)" stroke-width="1" opacity="0.996078431372549" d="M 160.5 127 L 161.5 129 L 160.5 127 Z " /><path fill="rgb(149,73,69)" stroke="rgb(149,73,69)" stroke-width="1" opacity="0.996078431372549" d="M 154.5 128 L 153.5 130 L 154.5 128 Z " /><path fill="rgb(149,73,69)" stroke="rgb(149,73,69)" stroke-width="1" opacity="0.996078431372549" d="M 71.5 131 L 67.5 136 L 71.5 131 Z " /><path fill="rgb(149,73,69)" stroke="rgb(149,73,69)" stroke-width="1" opacity="0.996078431372549" d="M 132.5 131 L 128.5 136 L 132.5 131 Z " /><path fill="rgb(149,73,69)" stroke="rgb(149,73,69)" stroke-width="1" opacity="0.996078431372549" d="M 145.5 133 L 150 133.5 L 145.5 134 L 145.5 133 Z " /><path fill="rgb(149,73,69)" stroke="rgb(149,73,69)" stroke-width="1" opacity="0.996078431372549" d="M 83.5 134 L 85 134.5 L 82.5 136 L 83.5 134 Z " /><path fill="rgb(149,73,69)" stroke="rgb(149,73,69)" stroke-width="1" opacity="0.996078431372549" d="M 91.5 135 L 92.5 137 L 91.5 135 Z " /><path fill="rgb(149,73,69)" stroke="rgb(149,73,69)" stroke-width="1" opacity="0.996078431372549" d="M 143.5 135 L 142.5 137 L 143.5 135 Z " /><path fill="rgb(149,73,69)" stroke="rgb(149,73,69)" stroke-width="1" opacity="0.996078431372549" d="M 107.5 136 L 110 136.5 L 107.5 137 L 107.5 136 Z " /><path fill="rgb(149,73,69)" stroke="rgb(149,73,69)" stroke-width="1" opacity="0.996078431372549" d="M 60.5 137 L 63 137.5 L 60.5 138 L 60.5 137 Z " /><path fill="rgb(149,73,69)" stroke="rgb(149,73,69)" stroke-width="1" opacity="0.996078431372549" d="M 121.5 137 L 124 137.5 L 121.5 138 L 121.5 137 Z " /><path fill="rgb(149,73,69)" stroke="rgb(149,73,69)" stroke-width="1" opacity="0.996078431372549" d="M 53.5 138 L 57 138.5 L 53.5 139 L 53.5 138 Z " /><path fill="rgb(149,73,69)" stroke="rgb(149,73,69)" stroke-width="1" opacity="0.996078431372549" d="M 88.5 140 L 97.5 143 L 99 142.5 Q 96.8 143.8 99.5 145 L 103 147.5 L 104 153.5 L 99.5 157 L 87.5 157 L 85.5 158 L 80.5 157 L 76 153.5 L 76 147.5 L 81.5 142 L 88.5 140 Z " /><path fill="rgb(149,73,69)" stroke="rgb(149,73,69)" stroke-width="1" opacity="0.996078431372549" d="M 138.5 140 L 137.5 142 L 138.5 140 Z " /><path fill="rgb(149,73,69)" stroke="rgb(149,73,69)" stroke-width="1" opacity="0.996078431372549" d="M 159.5 140 L 158.5 142 L 159.5 140 Z " /><path fill="rgb(149,73,69)" stroke="rgb(149,73,69)" stroke-width="1" opacity="0.996078431372549" d="M 76.5 142 L 75.5 144 L 76.5 142 Z " /><path fill="rgb(149,73,69)" stroke="rgb(149,73,69)" stroke-width="1" opacity="0.996078431372549" d="M 50.5 147 L 53 147.5 L 50.5 148 L 50.5 147 Z " /><path fill="rgb(149,73,69)" stroke="rgb(149,73,69)" stroke-width="1" opacity="0.996078431372549" d="M 62.5 147 L 65 147.5 L 62.5 148 L 62.5 147 Z " /><path fill="rgb(149,73,69)" stroke="rgb(149,73,69)" stroke-width="1" opacity="0.996078431372549" d="M 111.5 147 L 114 147.5 L 111.5 148 L 111.5 147 Z " /><path fill="rgb(149,73,69)" stroke="rgb(149,73,69)" stroke-width="1" opacity="0.996078431372549" d="M 65.5 158 L 68 158.5 L 65.5 159 L 65.5 158 Z " /><path fill="rgb(149,73,69)" stroke="rgb(149,73,69)" stroke-width="1" opacity="0.996078431372549" d="M 74.5 159 L 93 159.5 L 74.5 160 L 74.5 159 Z " /><path fill="rgb(149,73,69)" stroke="rgb(149,73,69)" stroke-width="1" opacity="0.996078431372549" d="M 112.5 162 Q 114.8 161.3 114 163.5 L 112.5 166 L 111 163.5 L 112.5 162 Z " /><path fill="rgb(149,73,69)" stroke="rgb(149,73,69)" stroke-width="1" opacity="0.996078431372549" d="M 97.5 164 L 102 164.5 L 96.5 169 L 97.5 167 L 100 165.5 Q 96.7 165.6 97.5 164 Z " /><path fill="rgb(149,73,69)" stroke="rgb(149,73,69)" stroke-width="1" opacity="0.996078431372549" d="M 79.5 165 L 83 167.5 L 80.5 166 L 79.5 165 Z " /><path fill="rgb(149,73,69)" stroke="rgb(149,73,69)" stroke-width="1" opacity="0.996078431372549" d="M 88 165 L 93 165.5 L 90 166.5 L 91.5 169 L 88 167 L 88 165 Z " /><path fill="rgb(149,73,69)" stroke="rgb(149,73,69)" stroke-width="1" opacity="0.996078431372549" d="M 109.5 165 L 105.5 170 L 109.5 165 Z " /><path fill="rgb(149,73,69)" stroke="rgb(149,73,69)" stroke-width="1" opacity="0.996078431372549" d="M 111.5 167 L 111 168.5 L 108.5 173 L 109 171.5 L 111.5 167 Z " /><path fill="rgb(149,73,69)" stroke="rgb(149,73,69)" stroke-width="1" opacity="0.996078431372549" d="M 103.5 170 L 102.5 172 L 103.5 170 Z " /><path fill="rgb(149,73,69)" stroke="rgb(149,73,69)" stroke-width="1" opacity="0.996078431372549" d="M 87.5 172 L 89 174.5 L 88 174.5 L 87.5 172 Z " /><path fill="rgb(149,73,69)" stroke="rgb(149,73,69)" stroke-width="1" opacity="0.996078431372549" d="M 100.5 172 L 98.5 175 L 100.5 172 Z " /><path fill="rgb(149,73,69)" stroke="rgb(149,73,69)" stroke-width="1" opacity="0.996078431372549" d="M 106.5 176 L 105.5 178 L 104 177.5 L 106.5 176 Z " /><path fill="rgb(149,73,69)" stroke="rgb(149,73,69)" stroke-width="1" opacity="0.996078431372549" d="M 132.5 177 L 133 179.5 L 132 179.5 L 132.5 177 Z " /><path fill="rgb(149,73,69)" stroke="rgb(149,73,69)" stroke-width="1" opacity="0.996078431372549" d="M 65 179 Q 73.7 179 79 183.5 Q 81.5 191.5 87.5 196 L 92.5 199 L 104 189.5 L 107.5 185 L 121.5 188 L 126 190.5 L 126 199.5 L 125.5 200 L 64 200 L 64 184.5 L 65 179 Z " /><path fill="rgb(149,73,69)" stroke="rgb(149,73,69)" stroke-width="1" opacity="0.996078431372549" d="M 92.5 179 Q 97.6 178.4 99 181.5 L 97.5 183 L 88.5 183 L 89.5 181 L 92.5 179 Z " /><path fill="rgb(149,73,69)" stroke="rgb(149,73,69)" stroke-width="1" opacity="0.996078431372549" d="M 131.5 184 L 132 187.5 L 131 187.5 L 131.5 184 Z " /><path fill="rgb(149,73,69)" stroke="rgb(149,73,69)" stroke-width="1" opacity="0.996078431372549" d="M 89.5 189 L 96 189.5 L 92.5 192 L 89.5 189 Z " /><path fill="rgb(149,73,69)" stroke="rgb(149,73,69)" stroke-width="1" opacity="0.996078431372549" d="M 58.5 193 L 59 197 Q 56.3 198.1 57 195.5 L 58.5 193 Z " /><path fill="rgb(7,3,3)" stroke="rgb(7,3,3)" stroke-width="1" opacity="0.9725490196078431" d="M 4.5 53 L 2.5 56 L 4.5 53 Z " /><path fill="rgb(7,3,3)" stroke="rgb(7,3,3)" stroke-width="1" opacity="0.9725490196078431" d="M 197.5 75 L 195.5 78 L 197.5 75 Z " /><path fill="rgb(7,3,3)" stroke="rgb(7,3,3)" stroke-width="1" opacity="0.9725490196078431" d="M 12.5 82 L 13.5 84 L 12.5 82 Z " /><path fill="rgb(7,3,3)" stroke="rgb(7,3,3)" stroke-width="1" opacity="0.9725490196078431" d="M 34.5 83 L 35.5 85 L 34.5 83 Z " /><path fill="rgb(7,3,3)" stroke="rgb(7,3,3)" stroke-width="1" opacity="0.9725490196078431" d="M 151.5 86 L 149.5 89 L 151.5 86 Z " /><path fill="rgb(7,3,3)" stroke="rgb(7,3,3)" stroke-width="1" opacity="0.9725490196078431" d="M 196.5 96 L 195.5 98 L 196.5 96 Z " /><path fill="rgb(7,3,3)" stroke="rgb(7,3,3)" stroke-width="1" opacity="0.9725490196078431" d="M 185.5 103 L 189 103.5 L 185.5 104 L 185.5 103 Z " /><path fill="rgb(7,3,3)" stroke="rgb(7,3,3)" stroke-width="1" opacity="0.9725490196078431" d="M 163.5 131 L 164 133.5 L 163 133.5 L 163.5 131 Z " /><path fill="rgb(7,3,3)" stroke="rgb(7,3,3)" stroke-width="1" opacity="0.9725490196078431" d="M 151.5 144 L 154 144.5 L 151.5 145 L 151.5 144 Z " /><path fill="rgb(7,3,3)" stroke="rgb(7,3,3)" stroke-width="1" opacity="0.9725490196078431" d="M 109.5 161 L 112 161.5 L 109.5 162 L 109.5 161 Z " /><path fill="rgb(7,3,3)" stroke="rgb(7,3,3)" stroke-width="1" opacity="0.9725490196078431" d="M 71.5 164 L 75 164.5 L 71.5 165 L 71.5 164 Z " /><path fill="rgb(7,3,3)" stroke="rgb(7,3,3)" stroke-width="1" opacity="0.9725490196078431" d="M 81.5 164 L 84 164.5 L 81.5 165 L 81.5 164 Z " /><path fill="rgb(7,3,3)" stroke="rgb(7,3,3)" stroke-width="1" opacity="0.9725490196078431" d="M 127.5 165 L 128.5 167 L 127.5 165 Z " /><path fill="rgb(7,3,3)" stroke="rgb(7,3,3)" stroke-width="1" opacity="0.9725490196078431" d="M 132.5 172 L 133.5 174 L 132.5 172 Z " /><path fill="rgb(21,16,33)" stroke="rgb(21,16,33)" stroke-width="1" opacity="0.996078431372549" d="M 46.5 79 L 49 79.5 L 46.5 80 L 46.5 79 Z " /><path fill="rgb(21,16,33)" stroke="rgb(21,16,33)" stroke-width="1" opacity="0.996078431372549" d="M 39.5 82 L 38.5 84 L 39.5 82 Z " /><path fill="rgb(21,16,33)" stroke="rgb(21,16,33)" stroke-width="1" opacity="0.996078431372549" d="M 114.5 83 L 117 83.5 L 114.5 84 L 114.5 83 Z " /><path fill="rgb(21,16,33)" stroke="rgb(21,16,33)" stroke-width="1" opacity="0.996078431372549" d="M 8.5 84 L 7.5 86 L 8.5 84 Z " /><path fill="rgb(21,16,33)" stroke="rgb(21,16,33)" stroke-width="1" opacity="0.996078431372549" d="M 13.5 87 L 14 90.5 L 13 90.5 L 13.5 87 Z " /><path fill="rgb(21,16,33)" stroke="rgb(21,16,33)" stroke-width="1" opacity="0.996078431372549" d="M 117.5 94 L 132.5 97 L 141.5 105 L 148.5 106 L 165.5 113 L 167 112.5 L 163.5 118 Q 156.6 111.7 145 111 L 147 118.5 L 147 124.5 L 146 128 L 157 122 Q 156.4 129.9 149.5 133 Q 144.3 131.8 143 134.5 L 137.5 141 L 128.5 146 L 117.5 148 L 106 146 Q 105 142.2 107.5 141 L 108.5 142 L 125.5 142 Q 133.3 139.8 138 134.5 Q 142.2 129.2 142 119.5 Q 140.2 109.8 134.5 104 L 126.5 100 L 116 99 Q 115 95.2 117.5 94 Z " /><path fill="rgb(21,16,33)" stroke="rgb(21,16,33)" stroke-width="1" opacity="0.996078431372549" d="M 60 95 Q 75.2 95.1 81 105.5 L 82.5 108 Q 83.8 105.8 88.5 107 L 93 108 L 96.5 102 L 101 104.5 L 94.5 114 L 90.5 112 L 88.5 112 Q 84.8 111.3 84 113.5 Q 86.9 117.1 86 124.5 L 85 129 L 91 128 L 92 133.5 L 89.5 134 Q 82.5 132.5 81 136.5 L 75.5 143 L 65.5 147 L 48.5 147 L 44 146 L 43.5 149 L 43 141 L 59.5 143 L 71.5 140 L 77 135.5 L 80 129.5 L 81 119.5 Q 79.2 109.8 73.5 104 L 60 98.5 L 60 95 Z " /><path fill="rgb(21,16,33)" stroke="rgb(21,16,33)" stroke-width="1" opacity="0.996078431372549" d="M 194.5 98 L 192.5 101 L 194.5 98 Z " /><path fill="rgb(21,16,33)" stroke="rgb(21,16,33)" stroke-width="1" opacity="0.996078431372549" d="M 39.5 99 L 43 100.5 Q 44.1 103.8 41.5 103 L 35.5 109 L 33 106.5 L 36.5 101 L 39.5 99 Z " /><path fill="rgb(21,16,33)" stroke="rgb(21,16,33)" stroke-width="1" opacity="0.996078431372549" d="M 30.5 103 L 31.5 105 L 30.5 103 Z " /><path fill="rgb(21,16,33)" stroke="rgb(21,16,33)" stroke-width="1" opacity="0.996078431372549" d="M 173.5 108 L 171.5 111 L 173.5 108 Z " /><path fill="rgb(21,16,33)" stroke="rgb(21,16,33)" stroke-width="1" opacity="0.996078431372549" d="M 32.5 120 L 33 125.5 L 32 125.5 L 32.5 120 Z " /><path fill="rgb(21,16,33)" stroke="rgb(21,16,33)" stroke-width="1" opacity="0.996078431372549" d="M 35.5 133 L 39.5 138 L 35.5 133 Z " /><path fill="rgb(21,16,33)" stroke="rgb(21,16,33)" stroke-width="1" opacity="0.996078431372549" d="M 69.5 159 L 72 159.5 L 69.5 160 L 69.5 159 Z " /><path fill="rgb(21,16,33)" stroke="rgb(21,16,33)" stroke-width="1" opacity="0.996078431372549" d="M 112.5 161 L 120 161.5 Q 115.1 175.1 106.5 185 L 99 182.5 L 100 180 L 93.5 177 L 87 181 L 87 184 L 80.5 184 L 77 179.5 L 73 165.5 L 78.5 164 L 78 165.5 Q 78.2 174.3 82.5 179 L 90 175 L 88.5 172 L 83 167.5 L 82 165.5 Q 84.7 162.7 91.5 164 L 91.5 165 L 87 165.5 Q 88.6 170.9 96.5 170 L 103 164.5 L 101 163.5 L 102.5 163 L 104.5 163 L 111 162 L 108.5 166 L 98 173.5 L 99.5 176 L 107 178 L 115 162.5 Q 111.7 162.6 112.5 161 Z " /><path fill="rgb(21,16,33)" stroke="rgb(21,16,33)" stroke-width="1" opacity="0.996078431372549" d="M 124.5 162 L 126.5 165 L 124.5 162 Z " /><path fill="rgb(21,16,33)" stroke="rgb(21,16,33)" stroke-width="1" opacity="0.996078431372549" d="M 129.5 168 L 133 173.5 L 130 187.5 Q 132.3 188.8 129.5 190 L 126 188.5 Q 126.3 176.8 129.5 168 Z " /><path fill="rgb(21,16,33)" stroke="rgb(21,16,33)" stroke-width="1" opacity="0.996078431372549" d="M 64.5 179 L 63.5 181 L 64.5 179 Z " /><path fill="rgb(21,16,33)" stroke="rgb(21,16,33)" stroke-width="1" opacity="0.996078431372549" d="M 59.5 190 L 58.5 192 L 59.5 190 Z " /></svg>