<svg width="200" height="200" version="1.1" xmlns="http://www.w3.org/2000/svg" desc="Created with imagetracer.js version 1.2.6" ><path fill="rgb(0,0,0)" stroke="rgb(0,0,0)" stroke-width="1" opacity="0" d="M 0 0 L 200 0 L 200 200 L 191 200 L 191 196.5 Q 181.2 171.8 163.5 155 L 156 149.5 Q 167.5 145 174 135.5 L 176 127.5 L 174 116.5 Q 169 112.5 169 103.5 Q 171.2 102.2 170 97.5 L 167 80.5 L 163 71.5 L 158.5 67 L 151.5 67 L 141.5 71 L 127.5 83 L 118 79.5 Q 123.9 71.4 123 56.5 L 117 37.5 Q 113.1 26.4 105.5 19 L 96 26.5 L 92.5 31 Q 90.3 30.3 91 32.5 L 78 47.5 L 74 56.5 L 73 66.5 L 76 77.5 L 78 79.5 L 73.5 81 Q 63.5 69.5 45.5 66 L 39 71.5 L 31 89.5 L 28 112.5 L 20 126.5 L 20 137.5 L 27.5 148 L 39 154.5 L 29 163.5 L 15 184.5 L 11 200 L 0.5 200 L 0 199.5 L 0 0 Z " /><path fill="rgb(0,0,0)" stroke="rgb(0,0,0)" stroke-width="1" opacity="0.9803921568627451" d="M 43.5 68 L 41.5 71 L 43.5 68 Z " /><path fill="rgb(0,0,0)" stroke="rgb(0,0,0)" stroke-width="1" opacity="0.9803921568627451" d="M 67.5 77 L 68.5 79 L 67.5 77 Z " /><path fill="rgb(0,0,0)" stroke="rgb(0,0,0)" stroke-width="1" opacity="0.9803921568627451" d="M 133.5 78 L 128.5 84 L 133.5 78 Z " /><path fill="rgb(0,0,0)" stroke="rgb(0,0,0)" stroke-width="1" opacity="0.9803921568627451" d="M 167.5 89 L 168 91.5 L 167 91.5 L 167.5 89 Z " /><path fill="rgb(0,0,0)" stroke="rgb(0,0,0)" stroke-width="1" opacity="0.9803921568627451" d="M 172.5 118 L 174 120.5 L 172 119.5 L 172.5 118 Z " /><path fill="rgb(0,0,0)" stroke="rgb(0,0,0)" stroke-width="1" opacity="0.9803921568627451" d="M 23.5 122 L 24 123.5 L 22 124.5 L 23.5 122 Z " /><path fill="rgb(0,0,0)" stroke="rgb(0,0,0)" stroke-width="1" opacity="0.9803921568627451" d="M 171.5 136 L 170.5 138 L 171.5 136 Z " /><path fill="rgb(0,0,0)" stroke="rgb(0,0,0)" stroke-width="1" opacity="0.9803921568627451" d="M 167.5 140 L 165.5 143 L 167.5 140 Z " /><path fill="rgb(0,0,0)" stroke="rgb(0,0,0)" stroke-width="1" opacity="0.9803921568627451" d="M 154.5 148 L 155 150.5 L 154 150.5 L 154.5 148 Z " /><path fill="rgb(0,0,0)" stroke="rgb(0,0,0)" stroke-width="1" opacity="0.9803921568627451" d="M 40.5 153 L 41 154.5 L 39 155.5 L 40.5 153 Z " /><path fill="rgb(0,0,0)" stroke="rgb(0,0,0)" stroke-width="1" opacity="0.9803921568627451" d="M 159.5 153 L 161.5 156 Q 159.3 156.8 160 154.5 L 159.5 153 Z " /><path fill="rgb(0,0,0)" stroke="rgb(0,0,0)" stroke-width="1" opacity="0.9803921568627451" d="M 170.5 164 L 171.5 166 L 170.5 164 Z " /><path fill="rgb(0,0,0)" stroke="rgb(0,0,0)" stroke-width="1" opacity="0.9803921568627451" d="M 28.5 166 L 27.5 168 L 28.5 166 Z " /><path fill="rgb(0,0,0)" stroke="rgb(0,0,0)" stroke-width="1" opacity="0.9803921568627451" d="M 173.5 168 L 174.5 170 L 173.5 168 Z " /><path fill="rgb(0,0,0)" stroke="rgb(0,0,0)" stroke-width="1" opacity="0.9803921568627451" d="M 24.5 171 L 23.5 173 L 24.5 171 Z " /><path fill="rgb(0,0,0)" stroke="rgb(0,0,0)" stroke-width="1" opacity="0.9803921568627451" d="M 19.5 179 L 18.5 181 L 19.5 179 Z " /><path fill="rgb(195,22,1)" stroke="rgb(195,22,1)" stroke-width="1" opacity="0.9176470588235294" d="M 104.5 19 L 109 22.5 L 117 37.5 L 122 52.5 L 123 65.5 L 121 73.5 L 114 86 L 105.5 87 L 108 83.5 L 115 69.5 L 116 56.5 Q 111.8 41 105 29 L 103.5 29 L 94 38.5 L 83 52.5 L 80 64.5 L 82 73.5 L 92 89 L 81 86 Q 80.3 80.4 76 77.5 L 73 64.5 Q 75.8 62.7 74 56.5 L 78 47.5 L 91 31 L 96 27.5 L 97.5 25 L 101 23.5 L 104.5 19 Z " /><path fill="rgb(8,1,1)" stroke="rgb(8,1,1)" stroke-width="1" opacity="0.32941176470588235" d="M 45.5 66 L 49 66.5 L 45.5 67 L 45.5 66 Z " /><path fill="rgb(8,1,1)" stroke="rgb(8,1,1)" stroke-width="1" opacity="0.32941176470588235" d="M 43.5 67 L 39.5 72 L 43.5 67 Z " /><path fill="rgb(8,1,1)" stroke="rgb(8,1,1)" stroke-width="1" opacity="0.32941176470588235" d="M 157.5 67 L 160 68.5 L 158.5 68 L 157.5 67 Z " /><path fill="rgb(8,1,1)" stroke="rgb(8,1,1)" stroke-width="1" opacity="0.32941176470588235" d="M 58.5 70 L 59.5 72 L 58.5 70 Z " /><path fill="rgb(8,1,1)" stroke="rgb(8,1,1)" stroke-width="1" opacity="0.32941176470588235" d="M 161.5 70 L 162.5 72 L 161.5 70 Z " /><path fill="rgb(8,1,1)" stroke="rgb(8,1,1)" stroke-width="1" opacity="0.32941176470588235" d="M 141.5 71 L 140.5 73 L 141.5 71 Z " /><path fill="rgb(8,1,1)" stroke="rgb(8,1,1)" stroke-width="1" opacity="0.32941176470588235" d="M 38.5 73 L 37.5 75 L 38.5 73 Z " /><path fill="rgb(8,1,1)" stroke="rgb(8,1,1)" stroke-width="1" opacity="0.32941176470588235" d="M 63.5 73 L 64.5 75 L 63.5 73 Z " /><path fill="rgb(8,1,1)" stroke="rgb(8,1,1)" stroke-width="1" opacity="0.32941176470588235" d="M 138.5 73 L 137.5 75 L 138.5 73 Z " /><path fill="rgb(8,1,1)" stroke="rgb(8,1,1)" stroke-width="1" opacity="0.32941176470588235" d="M 66.5 75 L 67.5 77 L 66.5 75 Z " /><path fill="rgb(8,1,1)" stroke="rgb(8,1,1)" stroke-width="1" opacity="0.32941176470588235" d="M 135.5 75 L 128.5 83 L 135.5 75 Z " /><path fill="rgb(8,1,1)" stroke="rgb(8,1,1)" stroke-width="1" opacity="0.32941176470588235" d="M 70.5 78 L 73.5 82 L 70.5 78 Z " /><path fill="rgb(8,1,1)" stroke="rgb(8,1,1)" stroke-width="1" opacity="0.32941176470588235" d="M 117.5 79 L 118.5 81 Q 115.7 81.7 117.5 79 Z " /><path fill="rgb(8,1,1)" stroke="rgb(8,1,1)" stroke-width="1" opacity="0.32941176470588235" d="M 121.5 81 L 124 81.5 L 121.5 82 L 121.5 81 Z " /><path fill="rgb(8,1,1)" stroke="rgb(8,1,1)" stroke-width="1" opacity="0.32941176470588235" d="M 167.5 83 L 168 85.5 L 167 85.5 L 167.5 83 Z " /><path fill="rgb(8,1,1)" stroke="rgb(8,1,1)" stroke-width="1" opacity="0.32941176470588235" d="M 168.5 88 L 169 91.5 L 168 91.5 L 168.5 88 Z " /><path fill="rgb(8,1,1)" stroke="rgb(8,1,1)" stroke-width="1" opacity="0.32941176470588235" d="M 31.5 89 L 32 91.5 L 31 91.5 L 31.5 89 Z " /><path fill="rgb(8,1,1)" stroke="rgb(8,1,1)" stroke-width="1" opacity="0.32941176470588235" d="M 30.5 94 L 31 96.5 L 30 96.5 L 30.5 94 Z " /><path fill="rgb(8,1,1)" stroke="rgb(8,1,1)" stroke-width="1" opacity="0.32941176470588235" d="M 169.5 97 L 170 102.5 L 169 102.5 L 169.5 97 Z " /><path fill="rgb(8,1,1)" stroke="rgb(8,1,1)" stroke-width="1" opacity="0.32941176470588235" d="M 29.5 99 L 30 103.5 L 29 103.5 L 29.5 99 Z " /><path fill="rgb(8,1,1)" stroke="rgb(8,1,1)" stroke-width="1" opacity="0.32941176470588235" d="M 28.5 108 L 29 112.5 L 27 113.5 L 28.5 108 Z " /><path fill="rgb(8,1,1)" stroke="rgb(8,1,1)" stroke-width="1" opacity="0.32941176470588235" d="M 20.5 126 L 21 128.5 L 20 128.5 L 20.5 126 Z " /><path fill="rgb(8,1,1)" stroke="rgb(8,1,1)" stroke-width="1" opacity="0.32941176470588235" d="M 175.5 127 L 176 129.5 L 175 129.5 L 175.5 127 Z " /><path fill="rgb(8,1,1)" stroke="rgb(8,1,1)" stroke-width="1" opacity="0.32941176470588235" d="M 173.5 135 L 172.5 137 L 173.5 135 Z " /><path fill="rgb(8,1,1)" stroke="rgb(8,1,1)" stroke-width="1" opacity="0.32941176470588235" d="M 166.5 142 L 164.5 145 L 166.5 142 Z " /><path fill="rgb(8,1,1)" stroke="rgb(8,1,1)" stroke-width="1" opacity="0.32941176470588235" d="M 24.5 144 L 27.5 148 L 24.5 144 Z " /><path fill="rgb(8,1,1)" stroke="rgb(8,1,1)" stroke-width="1" opacity="0.32941176470588235" d="M 160.5 146 L 159.5 148 L 158 147.5 L 160.5 146 Z " /><path fill="rgb(8,1,1)" stroke="rgb(8,1,1)" stroke-width="1" opacity="0.32941176470588235" d="M 156.5 148 L 156.5 151 Q 153.5 149.5 156.5 148 Z " /><path fill="rgb(8,1,1)" stroke="rgb(8,1,1)" stroke-width="1" opacity="0.32941176470588235" d="M 30.5 149 L 37 152.5 L 35.5 153 Q 30.9 151.8 30.5 149 Z " /><path fill="rgb(8,1,1)" stroke="rgb(8,1,1)" stroke-width="1" opacity="0.32941176470588235" d="M 158.5 151 L 160.5 154 L 158.5 151 Z " /><path fill="rgb(8,1,1)" stroke="rgb(8,1,1)" stroke-width="1" opacity="0.32941176470588235" d="M 37.5 155 L 29.5 164 L 37.5 155 Z " /><path fill="rgb(8,1,1)" stroke="rgb(8,1,1)" stroke-width="1" opacity="0.32941176470588235" d="M 163.5 155 L 168.5 161 L 163.5 155 Z " /><path fill="rgb(8,1,1)" stroke="rgb(8,1,1)" stroke-width="1" opacity="0.32941176470588235" d="M 171.5 164 L 173.5 167 L 171.5 164 Z " /><path fill="rgb(8,1,1)" stroke="rgb(8,1,1)" stroke-width="1" opacity="0.32941176470588235" d="M 27.5 166 L 24.5 170 L 27.5 166 Z " /><path fill="rgb(8,1,1)" stroke="rgb(8,1,1)" stroke-width="1" opacity="0.32941176470588235" d="M 174.5 168 L 176.5 171 L 174.5 168 Z " /><path fill="rgb(8,1,1)" stroke="rgb(8,1,1)" stroke-width="1" opacity="0.32941176470588235" d="M 177.5 172 L 178.5 174 L 177.5 172 Z " /><path fill="rgb(8,1,1)" stroke="rgb(8,1,1)" stroke-width="1" opacity="0.32941176470588235" d="M 21.5 174 L 20.5 176 L 21.5 174 Z " /><path fill="rgb(8,1,1)" stroke="rgb(8,1,1)" stroke-width="1" opacity="0.32941176470588235" d="M 179.5 175 L 180.5 177 L 179.5 175 Z " /><path fill="rgb(8,1,1)" stroke="rgb(8,1,1)" stroke-width="1" opacity="0.32941176470588235" d="M 182.5 180 L 183.5 182 L 182.5 180 Z " /><path fill="rgb(8,1,1)" stroke="rgb(8,1,1)" stroke-width="1" opacity="0.32941176470588235" d="M 11.5 197 L 12 199.5 L 11 199.5 L 11.5 197 Z " /><path fill="rgb(27,19,13)" stroke="rgb(27,19,13)" stroke-width="1" opacity="0.9921568627450981" d="M 45.5 73 L 44.5 75 L 45.5 73 Z " /><path fill="rgb(27,19,13)" stroke="rgb(27,19,13)" stroke-width="1" opacity="0.9921568627450981" d="M 156.5 73 L 157.5 75 L 156.5 73 Z " /><path fill="rgb(27,19,13)" stroke="rgb(27,19,13)" stroke-width="1" opacity="0.9921568627450981" d="M 43.5 76 L 42.5 78 L 43.5 76 Z " /><path fill="rgb(27,19,13)" stroke="rgb(27,19,13)" stroke-width="1" opacity="0.9921568627450981" d="M 64.5 81 L 65.5 83 L 64.5 81 Z " /><path fill="rgb(27,19,13)" stroke="rgb(27,19,13)" stroke-width="1" opacity="0.9921568627450981" d="M 137.5 81 L 133.5 86 L 137.5 81 Z " /><path fill="rgb(27,19,13)" stroke="rgb(27,19,13)" stroke-width="1" opacity="0.9921568627450981" d="M 162.5 88 L 163 90.5 L 162 90.5 L 162.5 88 Z " /><path fill="rgb(27,19,13)" stroke="rgb(27,19,13)" stroke-width="1" opacity="0.9921568627450981" d="M 35.5 107 L 36 111.5 L 35 111.5 L 35.5 107 Z " /><path fill="rgb(27,19,13)" stroke="rgb(27,19,13)" stroke-width="1" opacity="0.9921568627450981" d="M 162.5 108 L 163 111.5 L 162 111.5 L 162.5 108 Z " /><path fill="rgb(27,19,13)" stroke="rgb(27,19,13)" stroke-width="1" opacity="0.9921568627450981" d="M 168.5 110 L 170.5 113 L 168.5 110 Z " /><path fill="rgb(27,19,13)" stroke="rgb(27,19,13)" stroke-width="1" opacity="0.9921568627450981" d="M 163.5 113 L 165.5 116 L 163.5 113 Z " /><path fill="rgb(27,19,13)" stroke="rgb(27,19,13)" stroke-width="1" opacity="0.9921568627450981" d="M 34.5 114 L 33.5 116 L 34.5 114 Z " /><path fill="rgb(27,19,13)" stroke="rgb(27,19,13)" stroke-width="1" opacity="0.9921568627450981" d="M 59.5 117 L 58.5 119 L 59.5 117 Z " /><path fill="rgb(27,19,13)" stroke="rgb(27,19,13)" stroke-width="1" opacity="0.9921568627450981" d="M 62.5 118 L 63.5 120 L 62.5 118 Z " /><path fill="rgb(27,19,13)" stroke="rgb(27,19,13)" stroke-width="1" opacity="0.9921568627450981" d="M 57.5 121 L 58 124.5 L 57 124.5 L 57.5 121 Z " /><path fill="rgb(27,19,13)" stroke="rgb(27,19,13)" stroke-width="1" opacity="0.9921568627450981" d="M 67.5 122 L 68.5 124 L 67.5 122 Z " /><path fill="rgb(27,19,13)" stroke="rgb(27,19,13)" stroke-width="1" opacity="0.9921568627450981" d="M 115.5 126 L 120 129.5 L 118.5 130 L 115.5 126 Z " /><path fill="rgb(27,19,13)" stroke="rgb(27,19,13)" stroke-width="1" opacity="0.9921568627450981" d="M 126.5 127 L 125.5 129 L 126.5 127 Z " /><path fill="rgb(27,19,13)" stroke="rgb(27,19,13)" stroke-width="1" opacity="0.9921568627450981" d="M 166.5 134 L 163.5 138 L 166.5 134 Z " /><path fill="rgb(27,19,13)" stroke="rgb(27,19,13)" stroke-width="1" opacity="0.9921568627450981" d="M 27.5 138 L 28.5 140 L 27.5 138 Z " /><path fill="rgb(27,19,13)" stroke="rgb(27,19,13)" stroke-width="1" opacity="0.9921568627450981" d="M 161.5 138 L 159.5 141 L 161.5 138 Z " /><path fill="rgb(27,19,13)" stroke="rgb(27,19,13)" stroke-width="1" opacity="0.9921568627450981" d="M 32.5 143 L 33.5 145 L 32.5 143 Z " /><path fill="rgb(27,19,13)" stroke="rgb(27,19,13)" stroke-width="1" opacity="0.9921568627450981" d="M 52.5 151 L 56 151.5 L 52.5 152 L 52.5 151 Z " /><path fill="rgb(27,19,13)" stroke="rgb(27,19,13)" stroke-width="1" opacity="0.9921568627450981" d="M 126.5 151 L 129 151.5 L 126.5 152 L 126.5 151 Z " /><path fill="rgb(27,19,13)" stroke="rgb(27,19,13)" stroke-width="1" opacity="0.9921568627450981" d="M 59.5 152 L 63 152.5 L 59.5 153 L 59.5 152 Z " /><path fill="rgb(27,19,13)" stroke="rgb(27,19,13)" stroke-width="1" opacity="0.9921568627450981" d="M 119.5 152 L 123 152.5 L 119.5 153 L 119.5 152 Z " /><path fill="rgb(27,19,13)" stroke="rgb(27,19,13)" stroke-width="1" opacity="0.9921568627450981" d="M 66.5 153 L 69 153.5 L 66.5 154 L 66.5 153 Z " /><path fill="rgb(27,19,13)" stroke="rgb(27,19,13)" stroke-width="1" opacity="0.9921568627450981" d="M 113.5 153 L 116 153.5 L 113.5 154 L 113.5 153 Z " /><path fill="rgb(27,19,13)" stroke="rgb(27,19,13)" stroke-width="1" opacity="0.9921568627450981" d="M 150.5 153 L 151.5 155 L 150.5 153 Z " /><path fill="rgb(27,19,13)" stroke="rgb(27,19,13)" stroke-width="1" opacity="0.9921568627450981" d="M 75.5 154 L 80 154.5 L 75.5 155 L 75.5 154 Z " /><path fill="rgb(27,19,13)" stroke="rgb(27,19,13)" stroke-width="1" opacity="0.9921568627450981" d="M 103.5 154 L 108 154.5 L 103.5 155 L 103.5 154 Z " /><path fill="rgb(27,19,13)" stroke="rgb(27,19,13)" stroke-width="1" opacity="0.9921568627450981" d="M 153.5 155 L 156.5 159 L 153.5 155 Z " /><path fill="rgb(27,19,13)" stroke="rgb(27,19,13)" stroke-width="1" opacity="0.9921568627450981" d="M 46.5 156 L 45.5 158 L 46.5 156 Z " /><path fill="rgb(27,19,13)" stroke="rgb(27,19,13)" stroke-width="1" opacity="0.9921568627450981" d="M 50.5 156 L 53 156.5 L 50.5 157 L 50.5 156 Z " /><path fill="rgb(27,19,13)" stroke="rgb(27,19,13)" stroke-width="1" opacity="0.9921568627450981" d="M 129.5 156 L 132 156.5 L 129.5 157 L 129.5 156 Z " /><path fill="rgb(27,19,13)" stroke="rgb(27,19,13)" stroke-width="1" opacity="0.9921568627450981" d="M 56.5 157 L 60 157.5 L 56.5 158 L 56.5 157 Z " /><path fill="rgb(27,19,13)" stroke="rgb(27,19,13)" stroke-width="1" opacity="0.9921568627450981" d="M 123.5 157 L 126 157.5 L 123.5 158 L 123.5 157 Z " /><path fill="rgb(27,19,13)" stroke="rgb(27,19,13)" stroke-width="1" opacity="0.9921568627450981" d="M 43.5 158 L 41.5 161 L 43.5 158 Z " /><path fill="rgb(27,19,13)" stroke="rgb(27,19,13)" stroke-width="1" opacity="0.9921568627450981" d="M 64.5 158 L 67 158.5 L 64.5 159 L 64.5 158 Z " /><path fill="rgb(27,19,13)" stroke="rgb(27,19,13)" stroke-width="1" opacity="0.9921568627450981" d="M 115.5 158 L 119 158.5 L 115.5 159 L 115.5 158 Z " /><path fill="rgb(27,19,13)" stroke="rgb(27,19,13)" stroke-width="1" opacity="0.9921568627450981" d="M 72.5 159 L 78 159.5 L 72.5 160 L 72.5 159 Z " /><path fill="rgb(27,19,13)" stroke="rgb(27,19,13)" stroke-width="1" opacity="0.9921568627450981" d="M 105.5 159 L 110 159.5 L 105.5 160 L 105.5 159 Z " /><path fill="rgb(27,19,13)" stroke="rgb(27,19,13)" stroke-width="1" opacity="0.9921568627450981" d="M 158.5 159 L 165.5 167 L 158.5 159 Z " /><path fill="rgb(27,19,13)" stroke="rgb(27,19,13)" stroke-width="1" opacity="0.9921568627450981" d="M 34.5 167 L 31.5 171 L 34.5 167 Z " /><path fill="rgb(27,19,13)" stroke="rgb(27,19,13)" stroke-width="1" opacity="0.9921568627450981" d="M 166.5 168 L 169.5 172 L 166.5 168 Z " /><path fill="rgb(27,19,13)" stroke="rgb(27,19,13)" stroke-width="1" opacity="0.9921568627450981" d="M 47.5 171 L 48 173.5 L 46 174.5 L 47.5 171 Z " /><path fill="rgb(27,19,13)" stroke="rgb(27,19,13)" stroke-width="1" opacity="0.9921568627450981" d="M 28.5 174 L 27.5 176 L 28.5 174 Z " /><path fill="rgb(27,19,13)" stroke="rgb(27,19,13)" stroke-width="1" opacity="0.9921568627450981" d="M 171.5 174 L 172.5 176 L 171.5 174 Z " /><path fill="rgb(27,19,13)" stroke="rgb(27,19,13)" stroke-width="1" opacity="0.9921568627450981" d="M 45.5 176 L 44 178.5 L 43.5 180 L 43 178.5 L 45.5 176 Z " /><path fill="rgb(27,19,13)" stroke="rgb(27,19,13)" stroke-width="1" opacity="0.9921568627450981" d="M 26.5 177 L 25.5 179 L 26.5 177 Z " /><path fill="rgb(27,19,13)" stroke="rgb(27,19,13)" stroke-width="1" opacity="0.9921568627450981" d="M 173.5 177 L 174.5 179 L 173.5 177 Z " /><path fill="rgb(27,19,13)" stroke="rgb(27,19,13)" stroke-width="1" opacity="0.9921568627450981" d="M 176.5 182 L 177.5 184 L 176.5 182 Z " /><path fill="rgb(27,19,13)" stroke="rgb(27,19,13)" stroke-width="1" opacity="0.9921568627450981" d="M 35.5 185 L 36 186.5 L 34 187.5 L 35.5 185 Z " /><path fill="rgb(27,19,13)" stroke="rgb(27,19,13)" stroke-width="1" opacity="0.9921568627450981" d="M 32.5 191 L 33 192.5 L 31.5 195 L 31 193.5 L 32.5 191 Z " /><path fill="rgb(27,19,13)" stroke="rgb(27,19,13)" stroke-width="1" opacity="0.9921568627450981" d="M 139.5 192 L 141 195.5 L 140 200 L 137 198.5 L 135 193.5 L 137 194.5 Q 136.2 197.5 140 196 L 139.5 192 Z " /><path fill="rgb(27,19,13)" stroke="rgb(27,19,13)" stroke-width="1" opacity="0.9921568627450981" d="M 35.5 193 L 36 194.5 L 33.5 200 L 33 198.5 L 35.5 193 Z " /><path fill="rgb(250,225,199)" stroke="rgb(250,225,199)" stroke-width="1" opacity="0.996078431372549" d="M 46.5 74 Q 52.2 73.3 54.5 76 L 68 85.5 L 70 88.5 L 62.5 93 Q 58.8 85.8 49.5 84 L 46 89.5 L 44 105.5 L 37.5 112 Q 34.1 112.9 36 107.5 L 37 106.5 L 38 91.5 Q 40.4 80.9 46.5 74 Z " /><path fill="rgb(250,225,199)" stroke="rgb(250,225,199)" stroke-width="1" opacity="0.996078431372549" d="M 152.5 74 Q 156.3 73.3 157 75.5 L 162 91.5 L 162 107.5 Q 160.8 110.3 159.5 108 L 154 103.5 L 155 97.5 L 152 85 Q 141.3 85.6 136.5 93 L 132 91 L 133 87.5 L 140.5 80 L 152.5 74 Z " /><path fill="rgb(250,225,199)" stroke="rgb(250,225,199)" stroke-width="1" opacity="0.996078431372549" d="M 81.5 87 L 86.5 88 L 92.5 93 L 94.5 93 L 98.5 89 L 112.5 87 L 118 89 Q 119.1 91.7 116.5 91 L 100 98.5 L 108 107.5 L 109 111 L 92.5 102 L 78.5 112 Q 75.8 110.8 78 109.5 L 85.5 100 Q 87.8 100.8 87 98.5 L 79.5 93 L 75 92 Q 73.5 88.3 76.5 89 L 81.5 87 Z " /><path fill="rgb(250,225,199)" stroke="rgb(250,225,199)" stroke-width="1" opacity="0.996078431372549" d="M 123.5 102 Q 132.5 103.5 137 109.5 L 135.5 112 Q 120.3 117.3 108.5 126 L 105.5 126 L 100 119.5 L 123.5 102 Z " /><path fill="rgb(250,225,199)" stroke="rgb(250,225,199)" stroke-width="1" opacity="0.996078431372549" d="M 59.5 103 L 64.5 103 L 70 107.5 L 79 118.5 L 79 120.5 L 72.5 126 L 51 109.5 L 59.5 103 Z " /><path fill="rgb(250,225,199)" stroke="rgb(250,225,199)" stroke-width="1" opacity="0.996078431372549" d="M 84.5 127 L 101.5 128 L 108.5 131 L 114 136.5 Q 118.4 141.9 117 152 L 104.5 154 L 78.5 154 L 77.5 153 Q 69.5 153.7 65 152 L 64 145.5 Q 65.9 136.4 72.5 132 L 84.5 127 Z M 83 130 L 82 131 Q 78 130 80 135 L 87 140 L 92 139 L 97 133 L 94 130 L 83 130 Z " /><path fill="rgb(250,225,199)" stroke="rgb(250,225,199)" stroke-width="1" opacity="0.996078431372549" d="M 139.5 129 Q 150.5 129.5 156 135.5 L 158 139.5 L 152.5 143 L 134 149 Q 130.3 145.6 132 135.5 L 136.5 130 L 139.5 129 Z " /><path fill="rgb(250,225,199)" stroke="rgb(250,225,199)" stroke-width="1" opacity="0.996078431372549" d="M 39.5 132 Q 49.3 130.3 52 135.5 Q 54.5 139 53 146.5 L 50.5 150 L 39.5 147 L 30 140.5 Q 29.3 136.8 31.5 136 L 39.5 132 Z " /><path fill="rgb(250,225,199)" stroke="rgb(250,225,199)" stroke-width="1" opacity="0.996078431372549" d="M 85.5 170 Q 92.7 169.3 95.5 173 Q 96.8 170.8 101.5 172 L 105 174 Q 103.8 177 107.5 176 L 111.5 175 L 114.5 176 L 125 183.5 Q 124.2 186.1 127.5 185 L 132 188.5 L 136 200 L 43 199.5 Q 46.6 186.6 55.5 179 Q 63.4 177.4 67.5 172 L 72.5 171 Q 73.9 173.6 78.5 173 L 85.5 170 Z " /><path fill="rgb(230,77,44)" stroke="rgb(230,77,44)" stroke-width="1" opacity="0.996078431372549" d="M 100.5 22 L 101 23.5 L 98.5 25 L 100.5 22 Z " /><path fill="rgb(230,77,44)" stroke="rgb(230,77,44)" stroke-width="1" opacity="0.996078431372549" d="M 103.5 29 Q 105.8 28.3 105 30.5 L 114 49.5 L 116 56.5 L 116 65.5 Q 112.9 78.4 105 86.5 L 105.5 88 Q 102.9 88.8 104 85.5 Q 111.1 77.1 109 59.5 L 107 51.5 L 101.5 43 Q 99.3 42.3 100 44.5 Q 92 51 89 62.5 L 89 79.5 L 93 88.5 L 90.5 90 L 90.5 89 Q 92.8 89.8 92 87.5 L 84 77.5 L 80 64.5 L 83 52.5 L 103.5 29 Z " /><path fill="rgb(230,77,44)" stroke="rgb(230,77,44)" stroke-width="1" opacity="0.996078431372549" d="M 108.5 86 L 112 86.5 L 108.5 87 L 108.5 86 Z " /><path fill="rgb(64,11,4)" stroke="rgb(64,11,4)" stroke-width="1" opacity="0.9058823529411765" d="M 115.5 83 L 114.5 85 L 115.5 83 Z " /><path fill="rgb(220,141,78)" stroke="rgb(220,141,78)" stroke-width="1" opacity="1" d="M 100 43 L 104 45.5 L 109 59.5 L 109 73.5 L 104 88 L 98.5 89 L 94.5 93 L 92.5 93 L 89.5 89 L 91.5 90 L 93 87.5 L 89 79.5 L 89 62.5 L 92 54.5 L 100 43 Z " /><path fill="rgb(220,141,78)" stroke="rgb(220,141,78)" stroke-width="1" opacity="1" d="M 49.5 84 L 52 84.5 L 47.5 87 L 49.5 84 Z " /><path fill="rgb(220,141,78)" stroke="rgb(220,141,78)" stroke-width="1" opacity="1" d="M 55.5 86 L 63.5 93 L 70 88.5 L 68.5 86 Q 69 89.5 73.5 89 L 76.5 88 L 76.5 89 Q 73.5 88.2 75 92 L 79.5 93 L 87 98.5 Q 87.8 100.8 85.5 100 L 77 110.5 Q 78.8 113.8 80.5 110 L 93.5 102 L 109 111 L 108 107.5 L 100 98.5 L 103.5 96 L 118 91 Q 119.1 88.3 116.5 89 L 113 87.5 L 116.5 87 L 130.5 91 L 132.5 91 L 136.5 93 L 138 92.5 Q 135.8 93.8 138.5 95 L 140.5 95 L 152.5 104 L 153.5 103 L 158.5 108 L 160.5 109 L 162 108.5 Q 162.8 110.8 160.5 110 L 159 109.5 L 162 118.5 L 162 127.5 L 157 134.5 L 157 136.5 L 159 139.5 L 157 140.5 L 158 138.5 L 154.5 134 Q 149.1 129.4 139.5 129 L 133 133.5 Q 130.3 137.3 132 145.5 L 134 148.5 L 132.5 148 L 121.5 150 L 117.5 152 Q 117.9 136.6 108.5 131 L 96.5 127 L 84.5 127 L 72.5 132 L 68 136.5 Q 64 140.5 64 148.5 L 65 152 L 51 149.5 Q 54.8 146.3 53 137.5 L 49.5 133 Q 46.3 130.7 39.5 132 L 30 137.5 L 29.5 140 Q 25.6 136.2 27 128 L 29 127.5 L 28 125.5 L 36 112 L 44 105.5 L 44.5 103 L 46.5 103 L 62 93.5 L 55.5 86 Z M 124 102 L 100 120 L 101 122 L 106 126 L 108 126 L 109 130 L 117 135 Q 129 137 134 131 L 138 125 Q 139 117 136 114 L 137 110 Q 132 103 124 102 Z M 60 103 L 51 110 L 56 112 L 57 114 L 53 112 L 50 116 Q 48 126 52 131 L 58 135 Q 66 136 69 133 L 72 129 L 71 126 L 73 126 L 79 121 L 79 119 L 70 108 L 65 103 L 60 103 Z " /><path fill="rgb(220,141,78)" stroke="rgb(220,141,78)" stroke-width="1" opacity="1" d="M 78.5 87 L 81 87.5 L 78.5 88 L 78.5 87 Z " /><path fill="rgb(220,141,78)" stroke="rgb(220,141,78)" stroke-width="1" opacity="1" d="M 153.5 90 L 154 93.5 L 153 93.5 L 153.5 90 Z " /><path fill="rgb(220,141,78)" stroke="rgb(220,141,78)" stroke-width="1" opacity="1" d="M 45.5 94 L 46 96.5 L 45 96.5 L 45.5 94 Z " /><path fill="rgb(220,141,78)" stroke="rgb(220,141,78)" stroke-width="1" opacity="1" d="M 154.5 97 L 155 101.5 L 154 101.5 L 154.5 97 Z " /><path fill="rgb(220,141,78)" stroke="rgb(220,141,78)" stroke-width="1" opacity="1" d="M 36.5 104 L 37 106.5 L 36 106.5 L 36.5 104 Z " /><path fill="rgb(220,141,78)" stroke="rgb(220,141,78)" stroke-width="1" opacity="1" d="M 44.5 159 L 46.5 159 Q 53.9 166.6 64.5 171 L 71 171.5 L 67.5 172 Q 63.4 177.4 55.5 179 L 51 183.5 L 42.5 200 L 35.5 200 L 35 198.5 Q 40.9 183.4 50 171.5 L 48 166 L 45 164.5 L 46 162.5 L 44.5 159 Z " /><path fill="rgb(220,141,78)" stroke="rgb(220,141,78)" stroke-width="1" opacity="1" d="M 38.5 165 L 36 168.5 L 32 176 Q 35 175 34 178 L 37 178 L 37 179.5 Q 29.7 187.6 28 200 L 18 199.5 L 22 186.5 L 29 174 L 32 172.5 L 38.5 165 Z " /><path fill="rgb(220,141,78)" stroke="rgb(220,141,78)" stroke-width="1" opacity="1" d="M 85.5 169 Q 92.7 168.3 95.5 172 Q 96.8 169.8 101.5 171 L 107.5 175 L 111.5 174 L 113.5 174 L 124.5 182 L 136 182 Q 137.5 185.8 134.5 185 L 132 186 L 131.5 188 Q 129.6 184.4 125 185 L 121.5 180 L 113.5 175 L 111.5 175 L 105 176 Q 106.1 173.3 103.5 174 Q 102.3 170.8 96.5 172 L 94.5 173 Q 92.2 169.2 85.5 170 Q 82.3 173.3 75.5 173 L 72 170.5 L 73.5 171 L 78.5 172 L 85.5 169 Z " /><path fill="rgb(220,141,78)" stroke="rgb(220,141,78)" stroke-width="1" opacity="1" d="M 150.5 185 Q 165.6 186.9 174 195.5 L 176 200 L 143.5 200 L 143 196.5 L 142 193 L 145 191.5 L 147.5 187 L 150.5 185 Z " /><path fill="rgb(0,0,0)" stroke="rgb(0,0,0)" stroke-width="1" opacity="0.803921568627451" d="M 153.5 67 L 157 67.5 L 153.5 68 L 153.5 67 Z " /><path fill="rgb(0,0,0)" stroke="rgb(0,0,0)" stroke-width="1" opacity="0.803921568627451" d="M 54.5 69 L 59 71.5 L 57.5 71 Q 53.8 70.7 54.5 69 Z " /><path fill="rgb(0,0,0)" stroke="rgb(0,0,0)" stroke-width="1" opacity="0.803921568627451" d="M 146.5 69 L 148 69.5 L 144.5 71 L 144.5 70 L 146.5 69 Z " /><path fill="rgb(0,0,0)" stroke="rgb(0,0,0)" stroke-width="1" opacity="0.803921568627451" d="M 40.5 71 L 39.5 73 L 40.5 71 Z " /><path fill="rgb(0,0,0)" stroke="rgb(0,0,0)" stroke-width="1" opacity="0.803921568627451" d="M 142.5 71 L 141.5 73 L 142.5 71 Z " /><path fill="rgb(0,0,0)" stroke="rgb(0,0,0)" stroke-width="1" opacity="0.803921568627451" d="M 62.5 73 L 63.5 75 L 62.5 73 Z " /><path fill="rgb(0,0,0)" stroke="rgb(0,0,0)" stroke-width="1" opacity="0.803921568627451" d="M 139.5 73 L 138.5 75 L 139.5 73 Z " /><path fill="rgb(0,0,0)" stroke="rgb(0,0,0)" stroke-width="1" opacity="0.803921568627451" d="M 38.5 74 L 38 75.5 L 36.5 79 L 36 77.5 L 38.5 74 Z " /><path fill="rgb(0,0,0)" stroke="rgb(0,0,0)" stroke-width="1" opacity="0.803921568627451" d="M 65.5 75 L 66.5 77 L 65.5 75 Z " /><path fill="rgb(0,0,0)" stroke="rgb(0,0,0)" stroke-width="1" opacity="0.803921568627451" d="M 136.5 75 L 134.5 78 L 136.5 75 Z " /><path fill="rgb(0,0,0)" stroke="rgb(0,0,0)" stroke-width="1" opacity="0.803921568627451" d="M 68.5 77 L 70.5 80 L 68.5 77 Z " /><path fill="rgb(0,0,0)" stroke="rgb(0,0,0)" stroke-width="1" opacity="0.803921568627451" d="M 74.5 81 L 77 81.5 L 74.5 82 L 74.5 81 Z " /><path fill="rgb(0,0,0)" stroke="rgb(0,0,0)" stroke-width="1" opacity="0.803921568627451" d="M 167.5 86 L 168 88.5 L 167 88.5 L 167.5 86 Z " /><path fill="rgb(0,0,0)" stroke="rgb(0,0,0)" stroke-width="1" opacity="0.803921568627451" d="M 31.5 92 L 32 94.5 L 31 94.5 L 31.5 92 Z " /><path fill="rgb(0,0,0)" stroke="rgb(0,0,0)" stroke-width="1" opacity="0.803921568627451" d="M 168.5 92 L 169 106.5 L 168 106.5 L 168.5 92 Z " /><path fill="rgb(0,0,0)" stroke="rgb(0,0,0)" stroke-width="1" opacity="0.803921568627451" d="M 30.5 97 L 31 100.5 L 30 100.5 L 30.5 97 Z " /><path fill="rgb(0,0,0)" stroke="rgb(0,0,0)" stroke-width="1" opacity="0.803921568627451" d="M 29.5 104 L 30 110.5 L 29 110.5 L 29.5 104 Z " /><path fill="rgb(0,0,0)" stroke="rgb(0,0,0)" stroke-width="1" opacity="0.803921568627451" d="M 170.5 113 L 171.5 115 L 170.5 113 Z " /><path fill="rgb(0,0,0)" stroke="rgb(0,0,0)" stroke-width="1" opacity="0.803921568627451" d="M 27.5 114 L 26.5 116 L 27.5 114 Z " /><path fill="rgb(0,0,0)" stroke="rgb(0,0,0)" stroke-width="1" opacity="0.803921568627451" d="M 174.5 122 L 175 131.5 L 174 131.5 L 174.5 122 Z " /><path fill="rgb(0,0,0)" stroke="rgb(0,0,0)" stroke-width="1" opacity="0.803921568627451" d="M 20.5 129 L 21 135.5 L 20 135.5 L 20.5 129 Z " /><path fill="rgb(0,0,0)" stroke="rgb(0,0,0)" stroke-width="1" opacity="0.803921568627451" d="M 173.5 133 L 174 134.5 L 172 135.5 L 173.5 133 Z " /><path fill="rgb(0,0,0)" stroke="rgb(0,0,0)" stroke-width="1" opacity="0.803921568627451" d="M 171.5 137 L 167.5 142 L 171.5 137 Z " /><path fill="rgb(0,0,0)" stroke="rgb(0,0,0)" stroke-width="1" opacity="0.803921568627451" d="M 23.5 142 L 29.5 149 L 23.5 142 Z " /><path fill="rgb(0,0,0)" stroke="rgb(0,0,0)" stroke-width="1" opacity="0.803921568627451" d="M 164.5 143 L 163.5 145 L 164.5 143 Z " /><path fill="rgb(0,0,0)" stroke="rgb(0,0,0)" stroke-width="1" opacity="0.803921568627451" d="M 157.5 151 L 158.5 153 L 157.5 151 Z " /><path fill="rgb(0,0,0)" stroke="rgb(0,0,0)" stroke-width="1" opacity="0.803921568627451" d="M 39.5 153 L 40 154.5 L 28 165.5 L 39.5 153 Z " /><path fill="rgb(0,0,0)" stroke="rgb(0,0,0)" stroke-width="1" opacity="0.803921568627451" d="M 161.5 154 L 170.5 164 L 161.5 154 Z " /><path fill="rgb(0,0,0)" stroke="rgb(0,0,0)" stroke-width="1" opacity="0.803921568627451" d="M 172.5 166 L 173.5 168 L 172.5 166 Z " /><path fill="rgb(0,0,0)" stroke="rgb(0,0,0)" stroke-width="1" opacity="0.803921568627451" d="M 26.5 168 L 23.5 172 L 26.5 168 Z " /><path fill="rgb(0,0,0)" stroke="rgb(0,0,0)" stroke-width="1" opacity="0.803921568627451" d="M 175.5 170 L 176.5 172 L 175.5 170 Z " /><path fill="rgb(0,0,0)" stroke="rgb(0,0,0)" stroke-width="1" opacity="0.803921568627451" d="M 177.5 173 L 178.5 175 L 177.5 173 Z " /><path fill="rgb(0,0,0)" stroke="rgb(0,0,0)" stroke-width="1" opacity="0.803921568627451" d="M 21.5 175 L 20.5 177 L 21.5 175 Z " /><path fill="rgb(0,0,0)" stroke="rgb(0,0,0)" stroke-width="1" opacity="0.803921568627451" d="M 179.5 176 L 180.5 178 L 179.5 176 Z " /><path fill="rgb(0,0,0)" stroke="rgb(0,0,0)" stroke-width="1" opacity="0.803921568627451" d="M 19.5 178 L 18.5 180 L 19.5 178 Z " /><path fill="rgb(0,0,0)" stroke="rgb(0,0,0)" stroke-width="1" opacity="0.803921568627451" d="M 182.5 181 L 185 184.5 L 183 183.5 L 182.5 181 Z " /><path fill="rgb(0,0,0)" stroke="rgb(0,0,0)" stroke-width="1" opacity="0.803921568627451" d="M 12.5 195 L 13 197.5 L 12 197.5 L 12.5 195 Z " /><path fill="rgb(99,57,43)" stroke="rgb(99,57,43)" stroke-width="1" opacity="0.996078431372549" d="M 153.5 73 L 156 73.5 L 153.5 74 L 153.5 73 Z " /><path fill="rgb(99,57,43)" stroke="rgb(99,57,43)" stroke-width="1" opacity="0.996078431372549" d="M 139.5 80 L 138.5 82 L 139.5 80 Z " /><path fill="rgb(99,57,43)" stroke="rgb(99,57,43)" stroke-width="1" opacity="0.996078431372549" d="M 68.5 85 L 70.5 88 L 68.5 85 Z " /><path fill="rgb(99,57,43)" stroke="rgb(99,57,43)" stroke-width="1" opacity="0.996078431372549" d="M 162.5 91 L 163 93.5 L 162 93.5 L 162.5 91 Z " /><path fill="rgb(99,57,43)" stroke="rgb(99,57,43)" stroke-width="1" opacity="0.996078431372549" d="M 164.5 115 L 165.5 117 L 164.5 115 Z " /><path fill="rgb(99,57,43)" stroke="rgb(99,57,43)" stroke-width="1" opacity="0.996078431372549" d="M 59.5 116 L 58.5 118 L 59.5 116 Z " /><path fill="rgb(99,57,43)" stroke="rgb(99,57,43)" stroke-width="1" opacity="0.996078431372549" d="M 124.5 117 Q 127.8 115.9 127 118.5 L 128 120.5 L 127 120.5 L 125.5 118 L 124.5 117 Z " /><path fill="rgb(99,57,43)" stroke="rgb(99,57,43)" stroke-width="1" opacity="0.996078431372549" d="M 57.5 119 L 58 120.5 L 56.5 124 L 56 121.5 L 57.5 119 Z " /><path fill="rgb(99,57,43)" stroke="rgb(99,57,43)" stroke-width="1" opacity="0.996078431372549" d="M 65.5 120 L 66.5 122 L 65.5 120 Z " /><path fill="rgb(99,57,43)" stroke="rgb(99,57,43)" stroke-width="1" opacity="0.996078431372549" d="M 115.5 122 L 114.5 124 L 115.5 122 Z " /><path fill="rgb(99,57,43)" stroke="rgb(99,57,43)" stroke-width="1" opacity="0.996078431372549" d="M 128.5 122 L 129 125.5 L 125.5 130 L 124 129.5 L 127 127.5 L 128.5 122 Z " /><path fill="rgb(99,57,43)" stroke="rgb(99,57,43)" stroke-width="1" opacity="0.996078431372549" d="M 168.5 123 L 169 126.5 L 168 126.5 L 168.5 123 Z " /><path fill="rgb(99,57,43)" stroke="rgb(99,57,43)" stroke-width="1" opacity="0.996078431372549" d="M 57.5 125 L 61.5 130 L 66 130.5 L 61.5 131 L 57 126.5 L 57.5 125 Z " /><path fill="rgb(99,57,43)" stroke="rgb(99,57,43)" stroke-width="1" opacity="0.996078431372549" d="M 70.5 125 L 71 126.5 L 68.5 130 L 67 129.5 L 69 129 L 70.5 125 Z " /><path fill="rgb(99,57,43)" stroke="rgb(99,57,43)" stroke-width="1" opacity="0.996078431372549" d="M 114.5 125 L 117 128.5 L 114 126.5 L 114.5 125 Z " /><path fill="rgb(99,57,43)" stroke="rgb(99,57,43)" stroke-width="1" opacity="0.996078431372549" d="M 84.5 130 L 92 130.5 L 84.5 131 L 84.5 130 Z " /><path fill="rgb(99,57,43)" stroke="rgb(99,57,43)" stroke-width="1" opacity="0.996078431372549" d="M 119.5 130 L 123 130.5 L 119.5 131 L 119.5 130 Z " /><path fill="rgb(99,57,43)" stroke="rgb(99,57,43)" stroke-width="1" opacity="0.996078431372549" d="M 81.5 131 L 80.5 133 L 81.5 131 Z " /><path fill="rgb(99,57,43)" stroke="rgb(99,57,43)" stroke-width="1" opacity="0.996078431372549" d="M 167.5 132 L 162.5 138 L 167.5 132 Z " /><path fill="rgb(99,57,43)" stroke="rgb(99,57,43)" stroke-width="1" opacity="0.996078431372549" d="M 80.5 134 L 82.5 137 L 80.5 134 Z " /><path fill="rgb(99,57,43)" stroke="rgb(99,57,43)" stroke-width="1" opacity="0.996078431372549" d="M 95.5 134 L 94.5 136 L 95.5 134 Z " /><path fill="rgb(99,57,43)" stroke="rgb(99,57,43)" stroke-width="1" opacity="0.996078431372549" d="M 159.5 139 L 158.5 141 L 159.5 139 Z " /><path fill="rgb(99,57,43)" stroke="rgb(99,57,43)" stroke-width="1" opacity="0.996078431372549" d="M 29.5 140 L 31.5 143 L 29.5 140 Z " /><path fill="rgb(99,57,43)" stroke="rgb(99,57,43)" stroke-width="1" opacity="0.996078431372549" d="M 133.5 149 L 136 149.5 L 133.5 150 L 133.5 149 Z " /><path fill="rgb(99,57,43)" stroke="rgb(99,57,43)" stroke-width="1" opacity="0.996078431372549" d="M 128.5 150 L 131 150.5 L 128.5 151 L 128.5 150 Z " /><path fill="rgb(99,57,43)" stroke="rgb(99,57,43)" stroke-width="1" opacity="0.996078431372549" d="M 56.5 151 L 59 151.5 L 56.5 152 L 56.5 151 Z " /><path fill="rgb(99,57,43)" stroke="rgb(99,57,43)" stroke-width="1" opacity="0.996078431372549" d="M 122.5 151 L 126 151.5 L 122.5 152 L 122.5 151 Z " /><path fill="rgb(99,57,43)" stroke="rgb(99,57,43)" stroke-width="1" opacity="0.996078431372549" d="M 146.5 152 L 151 154.5 L 149.5 154 Q 145.7 153.7 146.5 152 Z " /><path fill="rgb(99,57,43)" stroke="rgb(99,57,43)" stroke-width="1" opacity="0.996078431372549" d="M 69.5 153 L 72 153.5 L 69.5 154 L 69.5 153 Z " /><path fill="rgb(99,57,43)" stroke="rgb(99,57,43)" stroke-width="1" opacity="0.996078431372549" d="M 80.5 154 L 84 154.5 L 80.5 155 L 80.5 154 Z " /><path fill="rgb(99,57,43)" stroke="rgb(99,57,43)" stroke-width="1" opacity="0.996078431372549" d="M 96.5 154 L 103 154.5 L 96.5 155 L 96.5 154 Z " /><path fill="rgb(99,57,43)" stroke="rgb(99,57,43)" stroke-width="1" opacity="0.996078431372549" d="M 152.5 155 L 166 167.5 L 171 173.5 L 168.5 174 Q 162 173 160 176.5 L 157.5 181 L 152 182 Q 153.1 184.7 150.5 184 L 144 189.5 L 140 195.5 L 142 195.5 L 141 198.5 L 143 198.5 Q 143.7 201.5 140 200 Q 141.9 194.4 137 196 L 136.5 198 L 136 196.5 L 137 194.5 L 135 194.5 L 135.5 193 Q 133.3 193.8 134 191.5 L 133 186 Q 138.6 188.2 137 182.5 L 140 179.5 Q 138.5 172.5 142.5 171 Q 146.3 171.8 147 169.5 L 149.5 165 L 152 163.5 L 151 158.5 L 152.5 155 Z " /><path fill="rgb(99,57,43)" stroke="rgb(99,57,43)" stroke-width="1" opacity="0.996078431372549" d="M 47.5 156 L 50 156.5 L 47.5 157 L 47.5 156 Z " /><path fill="rgb(99,57,43)" stroke="rgb(99,57,43)" stroke-width="1" opacity="0.996078431372549" d="M 53.5 157 L 56 157.5 L 53.5 158 L 53.5 157 Z " /><path fill="rgb(99,57,43)" stroke="rgb(99,57,43)" stroke-width="1" opacity="0.996078431372549" d="M 126.5 157 L 129 157.5 L 126.5 158 L 126.5 157 Z " /><path fill="rgb(99,57,43)" stroke="rgb(99,57,43)" stroke-width="1" opacity="0.996078431372549" d="M 44.5 158 L 43.5 160 L 44.5 158 Z " /><path fill="rgb(99,57,43)" stroke="rgb(99,57,43)" stroke-width="1" opacity="0.996078431372549" d="M 59.5 158 L 64 158.5 L 59.5 159 L 59.5 158 Z " /><path fill="rgb(99,57,43)" stroke="rgb(99,57,43)" stroke-width="1" opacity="0.996078431372549" d="M 119.5 158 L 123 158.5 L 119.5 159 L 119.5 158 Z " /><path fill="rgb(99,57,43)" stroke="rgb(99,57,43)" stroke-width="1" opacity="0.996078431372549" d="M 67.5 159 L 72 159.5 L 67.5 160 L 67.5 159 Z " /><path fill="rgb(99,57,43)" stroke="rgb(99,57,43)" stroke-width="1" opacity="0.996078431372549" d="M 110.5 159 L 116 159.5 L 110.5 160 L 110.5 159 Z " /><path fill="rgb(99,57,43)" stroke="rgb(99,57,43)" stroke-width="1" opacity="0.996078431372549" d="M 76.5 160 L 107 160.5 L 76.5 161 L 76.5 160 Z " /><path fill="rgb(99,57,43)" stroke="rgb(99,57,43)" stroke-width="1" opacity="0.996078431372549" d="M 40.5 161 L 35.5 167 L 40.5 161 Z " /><path fill="rgb(99,57,43)" stroke="rgb(99,57,43)" stroke-width="1" opacity="0.996078431372549" d="M 43.5 162 L 45.5 167 L 48 168.5 L 49 173.5 L 36.5 194 L 35 193.5 L 36 196.5 L 35 196.5 L 34.5 195 L 34 197.5 L 35 199.5 L 34 199.5 L 33.5 198 L 33 200 L 29.5 199 L 28 199.5 Q 30.9 187.4 38 179.5 L 38 177 L 34 176 L 35 171.5 L 43.5 162 Z M 48 171 L 47 174 L 48 174 L 48 171 Z " /><path fill="rgb(99,57,43)" stroke="rgb(99,57,43)" stroke-width="1" opacity="0.996078431372549" d="M 32.5 170 L 29.5 174 L 32.5 170 Z " /><path fill="rgb(99,57,43)" stroke="rgb(99,57,43)" stroke-width="1" opacity="0.996078431372549" d="M 171.5 175 L 172.5 177 L 171.5 175 Z " /><path fill="rgb(99,57,43)" stroke="rgb(99,57,43)" stroke-width="1" opacity="0.996078431372549" d="M 173.5 178 L 174.5 180 L 173.5 178 Z " /><path fill="rgb(99,57,43)" stroke="rgb(99,57,43)" stroke-width="1" opacity="0.996078431372549" d="M 176.5 183 L 177.5 185 L 176.5 183 Z " /><path fill="rgb(99,57,43)" stroke="rgb(99,57,43)" stroke-width="1" opacity="0.996078431372549" d="M 183.5 196 L 185 199.5 L 184 199.5 L 183.5 196 Z " /><path fill="rgb(168,103,66)" stroke="rgb(168,103,66)" stroke-width="1" opacity="0.996078431372549" d="M 46.5 73 L 45.5 75 L 46.5 73 Z " /><path fill="rgb(168,103,66)" stroke="rgb(168,103,66)" stroke-width="1" opacity="0.996078431372549" d="M 63.5 81 L 64.5 83 L 63.5 81 Z " /><path fill="rgb(168,103,66)" stroke="rgb(168,103,66)" stroke-width="1" opacity="0.996078431372549" d="M 137.5 82 L 133.5 87 L 137.5 82 Z " /><path fill="rgb(168,103,66)" stroke="rgb(168,103,66)" stroke-width="1" opacity="0.996078431372549" d="M 49.5 85 L 54.5 86 L 62 93.5 L 45.5 104 L 45 97.5 L 47 87.5 L 49.5 85 Z " /><path fill="rgb(168,103,66)" stroke="rgb(168,103,66)" stroke-width="1" opacity="0.996078431372549" d="M 149.5 85 L 152 86.5 L 154 94.5 L 154 102.5 Q 151.7 106.2 149.5 101 L 137 93.5 L 138 91 L 140 91 Q 138.9 88.3 141.5 89 L 149.5 85 Z " /><path fill="rgb(168,103,66)" stroke="rgb(168,103,66)" stroke-width="1" opacity="0.996078431372549" d="M 112.5 86 L 115 86.5 L 112.5 87 L 112.5 86 Z " /><path fill="rgb(168,103,66)" stroke="rgb(168,103,66)" stroke-width="1" opacity="0.996078431372549" d="M 131.5 89 L 130.5 91 L 128 90.5 L 131.5 89 Z " /><path fill="rgb(168,103,66)" stroke="rgb(168,103,66)" stroke-width="1" opacity="0.996078431372549" d="M 162.5 94 L 163 105.5 L 162 105.5 L 162.5 94 Z " /><path fill="rgb(168,103,66)" stroke="rgb(168,103,66)" stroke-width="1" opacity="0.996078431372549" d="M 36.5 100 L 37 103.5 L 36 103.5 L 36.5 100 Z " /><path fill="rgb(168,103,66)" stroke="rgb(168,103,66)" stroke-width="1" opacity="0.996078431372549" d="M 159.5 109 L 162 110 L 162 112.5 L 168 121.5 L 169 128.5 L 168 131.5 L 160.5 139 L 157 136.5 L 157 134.5 L 162 127.5 L 162 118.5 L 159.5 109 Z " /><path fill="rgb(168,103,66)" stroke="rgb(168,103,66)" stroke-width="1" opacity="0.996078431372549" d="M 169.5 110 L 170.5 112 L 169.5 110 Z " /><path fill="rgb(168,103,66)" stroke="rgb(168,103,66)" stroke-width="1" opacity="0.996078431372549" d="M 52.5 112 L 59 115.5 L 56 123.5 L 61.5 131 Q 67.7 131.7 70 128.5 L 71.5 126 L 72 128.5 L 69 133 Q 65.8 136 57.5 135 L 52 130.5 Q 48.2 125.8 50 115.5 L 52.5 112 Z " /><path fill="rgb(168,103,66)" stroke="rgb(168,103,66)" stroke-width="1" opacity="0.996078431372549" d="M 134.5 112 Q 136.8 111.3 136 113.5 Q 139.2 116.8 138 124.5 L 133.5 131 Q 128.5 136.5 116.5 135 L 109 129.5 L 108 126 L 113.5 123 Q 113.3 127.7 116.5 129 Q 117.9 131.6 122.5 131 L 128 127.5 L 129 122.5 L 126 116.5 L 134.5 112 Z " /><path fill="rgb(168,103,66)" stroke="rgb(168,103,66)" stroke-width="1" opacity="0.996078431372549" d="M 63.5 118 L 64.5 120 L 63.5 118 Z " /><path fill="rgb(168,103,66)" stroke="rgb(168,103,66)" stroke-width="1" opacity="0.996078431372549" d="M 68.5 122 L 70.5 125 L 68.5 122 Z " /><path fill="rgb(168,103,66)" stroke="rgb(168,103,66)" stroke-width="1" opacity="0.996078431372549" d="M 26.5 130 L 27 133.5 L 26 133.5 L 26.5 130 Z " /><path fill="rgb(168,103,66)" stroke="rgb(168,103,66)" stroke-width="1" opacity="0.996078431372549" d="M 95.5 131 L 97 133.5 L 96 133.5 L 95.5 131 Z " /><path fill="rgb(168,103,66)" stroke="rgb(168,103,66)" stroke-width="1" opacity="0.996078431372549" d="M 93.5 136 L 91.5 139 L 93.5 136 Z " /><path fill="rgb(168,103,66)" stroke="rgb(168,103,66)" stroke-width="1" opacity="0.996078431372549" d="M 86.5 139 L 89 139.5 L 86.5 140 L 86.5 139 Z " /><path fill="rgb(168,103,66)" stroke="rgb(168,103,66)" stroke-width="1" opacity="0.996078431372549" d="M 33.5 143 L 34.5 145 L 33.5 143 Z " /><path fill="rgb(168,103,66)" stroke="rgb(168,103,66)" stroke-width="1" opacity="0.996078431372549" d="M 129.5 148 Q 134.3 146.7 133 150 L 118.5 152 L 118.5 151 L 129.5 148 Z " /><path fill="rgb(168,103,66)" stroke="rgb(168,103,66)" stroke-width="1" opacity="0.996078431372549" d="M 52.5 150 L 55 150.5 L 52.5 151 L 52.5 150 Z " /><path fill="rgb(168,103,66)" stroke="rgb(168,103,66)" stroke-width="1" opacity="0.996078431372549" d="M 59.5 151 L 62 151.5 L 59.5 152 L 59.5 151 Z " /><path fill="rgb(168,103,66)" stroke="rgb(168,103,66)" stroke-width="1" opacity="0.996078431372549" d="M 65.5 152 L 68 152.5 L 65.5 153 L 65.5 152 Z " /><path fill="rgb(168,103,66)" stroke="rgb(168,103,66)" stroke-width="1" opacity="0.996078431372549" d="M 72.5 153 L 77 153.5 L 72.5 154 L 72.5 153 Z " /><path fill="rgb(168,103,66)" stroke="rgb(168,103,66)" stroke-width="1" opacity="0.996078431372549" d="M 106.5 153 L 111 153.5 L 106.5 154 L 106.5 153 Z " /><path fill="rgb(168,103,66)" stroke="rgb(168,103,66)" stroke-width="1" opacity="0.996078431372549" d="M 145.5 153 L 152 155 L 151 161.5 L 152 163.5 L 148 166.5 L 145.5 171 Q 140.8 170.3 140 173.5 L 140 179.5 Q 136 180.9 137 186 L 134 185.5 L 136 185 L 135.5 182 L 124.5 182 L 113.5 174 L 111.5 174 L 106.5 175 Q 104.6 169.9 96.5 171 L 94.5 172 Q 92.2 168.2 85.5 169 Q 82.5 172 76.5 172 L 72.5 170 Q 70.8 172.8 64.5 171 L 45 158.5 Q 46.5 155.5 52.5 157 L 59.5 159 L 75.5 160 L 76.5 161 L 106.5 161 L 107.5 160 L 115.5 160 L 116.5 159 L 133.5 157 L 145.5 153 Z " /><path fill="rgb(168,103,66)" stroke="rgb(168,103,66)" stroke-width="1" opacity="0.996078431372549" d="M 84.5 154 L 96 154.5 L 84.5 155 L 84.5 154 Z " /><path fill="rgb(168,103,66)" stroke="rgb(168,103,66)" stroke-width="1" opacity="0.996078431372549" d="M 42.5 160 Q 45.8 158.9 45 161.5 L 45 163.5 L 46.5 166 Q 48.8 165.3 48 167.5 L 49 169.5 L 48 169.5 L 46.5 167 L 44 165.5 L 43.5 162 L 35 171.5 L 34 176 L 38 177 L 36.5 181 L 37 179.5 Q 37.7 176.5 34 178 L 34 176 Q 31.3 177.1 32 174.5 L 36 168.5 L 33 169.5 L 42.5 160 Z " /><path fill="rgb(168,103,66)" stroke="rgb(168,103,66)" stroke-width="1" opacity="0.996078431372549" d="M 31.5 172 L 30.5 174 L 31.5 172 Z " /><path fill="rgb(168,103,66)" stroke="rgb(168,103,66)" stroke-width="1" opacity="0.996078431372549" d="M 169.5 173 Q 179.3 184.5 184 200 L 176.5 200 L 176 198.5 L 170.5 192 L 157.5 186 L 150.5 185 L 146 188.5 L 143.5 193 Q 141.3 192.3 142 194.5 L 141 194.5 L 148.5 185 L 152 184 Q 150.9 181.3 153.5 182 L 159 179.5 L 161.5 175 L 169.5 173 Z " /><path fill="rgb(168,103,66)" stroke="rgb(168,103,66)" stroke-width="1" opacity="0.996078431372549" d="M 48.5 174 L 47.5 176 L 48.5 174 Z " /><path fill="rgb(168,103,66)" stroke="rgb(168,103,66)" stroke-width="1" opacity="0.996078431372549" d="M 34.5 184 L 33.5 186 L 34.5 184 Z " /><path fill="rgb(168,103,66)" stroke="rgb(168,103,66)" stroke-width="1" opacity="0.996078431372549" d="M 132.5 186 L 133 189.5 L 132 189.5 L 132.5 186 Z " /><path fill="rgb(168,103,66)" stroke="rgb(168,103,66)" stroke-width="1" opacity="0.996078431372549" d="M 32.5 187 L 33 188.5 L 30.5 193 L 30 191.5 L 32.5 187 Z " /><path fill="rgb(0,0,0)" stroke="rgb(0,0,0)" stroke-width="1" opacity="0.996078431372549" d="M 44.5 68 L 53.5 69 Q 64.5 74 72.5 82 L 76.5 82 Q 77.8 79.8 79 82.5 L 81 85.5 L 71.5 88 Q 62.6 76.9 47.5 72 L 44 74.5 L 37 90.5 L 35 113.5 Q 27.7 120.7 25 132.5 Q 26.6 141.4 33.5 145 L 52.5 152 L 58.5 152 L 66.5 154 L 74.5 154 L 75.5 155 L 107.5 155 L 108.5 154 L 128.5 152 L 146.5 147 L 159.5 141 L 167 134.5 L 170 127.5 Q 167.7 126.2 169 121.5 L 163 112.5 L 163 88.5 L 159 76.5 L 156.5 73 Q 140.9 75.4 133 85.5 L 130.5 89 L 115 86 L 117.5 81 L 128.5 84 Q 137.4 70.4 157.5 68 L 161 70 L 167 86.5 Q 165.7 91.3 168 92.5 L 168 110.5 L 172 115.5 Q 171 120.5 174 121.5 L 174 132.5 L 168.5 140 L 156.5 148 L 154 148 Q 152.5 151.8 155.5 151 L 160 154.5 Q 159.2 157.1 162.5 156 Q 180.9 173.6 191 199.5 L 185 200 Q 176.7 175.1 158.5 159 L 150.5 153 L 145.5 152 L 133.5 156 L 115.5 158 L 114.5 159 L 78.5 160 L 77.5 159 L 67.5 159 L 66.5 158 L 46.5 156 L 31 170.5 L 24 180.5 L 16.5 200 Q 11.1 201.9 12 198.5 Q 19.4 171.4 38.5 156 L 41 154.5 Q 41.8 152.3 39.5 153 Q 29.6 149.9 24 142.5 L 21 134.5 L 21 129.5 L 25 118.5 L 30 111.5 Q 29.8 94.3 35 82.5 L 39 73.5 L 44.5 68 Z " /><path fill="rgb(0,0,0)" stroke="rgb(0,0,0)" stroke-width="1" opacity="0.996078431372549" d="M 60.5 117 L 70 124 L 67.5 129 L 63.5 130 L 59 127.5 L 58 119.5 L 60.5 117 Z " /><path fill="rgb(0,0,0)" stroke="rgb(0,0,0)" stroke-width="1" opacity="0.996078431372549" d="M 124.5 118 Q 126.8 117.3 126 119.5 L 128 123.5 L 124.5 129 L 120.5 130 L 115 125.5 Q 113.9 122.2 116.5 123 L 124.5 118 Z " /><path fill="rgb(0,0,0)" stroke="rgb(0,0,0)" stroke-width="1" opacity="0.996078431372549" d="M 84.5 131 Q 92.7 129.9 96 132 L 92.5 137 Q 91.1 139.6 86.5 139 L 81 134.5 Q 79.8 130.8 83.5 132 L 84.5 131 Z " /></svg>