<svg width="200" height="200" version="1.1" xmlns="http://www.w3.org/2000/svg" desc="Created with imagetracer.js version 1.2.6" ><path fill="rgb(0,0,0)" stroke="rgb(0,0,0)" stroke-width="1" opacity="0.08627450980392157" d="M 155.5 37 L 162 38 L 164 46.5 L 163 46.5 Q 162.8 40.8 159.5 38 Q 153 37 152 41.5 Q 148.3 46.8 147.5 55 L 147 50.5 Q 149.1 41.6 155.5 37 Z " /><path fill="rgb(0,0,0)" stroke="rgb(0,0,0)" stroke-width="1" opacity="0.08627450980392157" d="M 71.5 40 Q 77 39 78 42.5 Q 81.5 46.5 80 55.5 L 77 65.5 L 80.5 71 L 87 66.5 L 98.5 54 L 108.5 51 L 113 53.5 Q 117.7 59.6 119 68 L 129 70 L 131.5 65 L 137.5 64 L 146 68 L 146.5 56 L 147 70.5 L 143.5 68 L 137.5 65 L 133.5 65 L 128.5 71 L 121.5 70 L 118 67.5 Q 116.5 58 110.5 53 L 105.5 52 Q 94.8 55.8 89 64.5 L 86 70 L 80.5 72 L 76 63.5 Q 80.2 57.7 79 46.5 L 75.5 41 L 72.5 41 Q 58.4 56.4 38.5 66 L 30 74.5 L 26.5 81 L 26 79.5 L 35.5 67 Q 55.2 57.2 70 42.5 L 71.5 40 Z " /><path fill="rgb(0,0,0)" stroke="rgb(0,0,0)" stroke-width="1" opacity="0.08627450980392157" d="M 164.5 48 Q 169.4 60.1 179.5 67 L 189 75.5 L 195 86.5 L 196 98.5 L 193 105.5 L 196 112.5 L 196 116.5 Q 194.5 123 189.5 126 L 184 129.5 L 184 131.5 L 178.5 137 L 176 136.5 Q 181.5 136 183 131.5 L 184 127 Q 189.9 126.1 193 121.5 Q 195.6 118.6 195 112.5 L 192 105.5 Q 196.2 100.7 195 90.5 Q 191.9 76.1 181.5 69 L 171 60.5 Q 165.5 55.3 164.5 48 Z " /><path fill="rgb(0,0,0)" stroke="rgb(0,0,0)" stroke-width="1" opacity="0.08627450980392157" d="M 25.5 82 L 26 84.5 L 25 85.5 L 25 94.5 L 28 100.5 L 28 103.5 Q 25.2 105.2 26 110.5 L 29 115.5 L 27.5 118 L 27 116.5 L 27 114.5 Q 24.3 112.2 25 106.5 Q 27.6 105.1 27 100.5 Q 22.5 96 24 85.5 L 25.5 82 Z " /><path fill="rgb(0,0,0)" stroke="rgb(0,0,0)" stroke-width="1" opacity="0.08627450980392157" d="M 26.5 119 L 29 129.5 L 28 129.5 Q 24.9 125.6 26.5 119 Z " /><path fill="rgb(0,0,0)" stroke="rgb(0,0,0)" stroke-width="1" opacity="0.08627450980392157" d="M 29.5 131 L 31 134.5 L 28 139.5 L 23 155.5 L 22 175.5 L 25 188.5 L 30 199.5 L 29 199.5 L 22 181.5 L 21 161.5 L 23 151.5 L 30 132.5 L 29.5 131 Z " /><path fill="rgb(0,0,0)" stroke="rgb(0,0,0)" stroke-width="1" opacity="0.08627450980392157" d="M 172.5 137 L 191 155.5 L 193 159.5 L 191 158.5 L 190 155.5 L 172.5 137 Z " /><path fill="rgb(0,0,0)" stroke="rgb(0,0,0)" stroke-width="1" opacity="0.08627450980392157" d="M 193.5 161 L 197 169.5 L 197 177.5 L 196 177.5 L 196 169.5 L 193.5 161 Z " /><path fill="rgb(0,0,0)" stroke="rgb(0,0,0)" stroke-width="1" opacity="0.08627450980392157" d="M 185.5 178 L 190.5 183 L 192.5 183 L 195.5 179 L 196 180.5 Q 195.5 184.5 190.5 184 L 186.5 181 Q 187.3 192.8 183.5 200 L 183 197.5 L 185 192.5 L 185.5 178 Z " /><path fill="rgb(0,0,0)" stroke="rgb(0,0,0)" stroke-width="1" opacity="0" d="M 0 0 L 200 0 L 200 200 L 184.5 200 L 184 197.5 L 186 192.5 L 186.5 181 L 192.5 184 Q 198.6 180.6 197 169.5 L 191 155.5 L 173 137.5 L 178.5 137 L 184 131.5 Q 183.5 127.5 186.5 127 L 194 121.5 Q 196.6 118.6 196 112.5 L 193 105.5 Q 197.2 100.7 196 90.5 L 193 81.5 L 180.5 67 L 169 56.5 Q 163 49.2 162 38 L 155.5 37 Q 149.1 41.6 147 50.5 L 146 68 L 137.5 64 L 133.5 64 L 130 66.5 L 129 70 L 119 68 Q 117.6 58.3 111.5 52 L 105.5 51 L 98.5 54 L 87 65.5 L 83.5 70 L 80.5 71 L 77 63.5 Q 81.2 57.7 80 46.5 L 75.5 40 Q 71 39 70 41.5 L 64.5 48 Q 51.4 58.9 35.5 67 L 31 71.5 L 24 85.5 L 24 94.5 L 27 100.5 L 27 103.5 Q 24.2 105.2 25 110.5 L 28 115.5 Q 25.2 118.2 26 124.5 L 30 134.5 L 27 139.5 L 22 155.5 L 21 175.5 L 25 191.5 L 29 200 L 0.5 200 L 0 199.5 L 0 0 Z " /><path fill="rgb(0,0,0)" stroke="rgb(0,0,0)" stroke-width="1" opacity="0.9607843137254902" d="M 155.5 38 Q 160 37 161 39.5 Q 164.5 56 175.5 65 L 188 75.5 L 194 86.5 L 195 98.5 L 192 105.5 L 195 112.5 L 195 116.5 Q 193.8 122.3 189.5 125 L 184 127 Q 183.8 133.4 178.5 136 L 172 137.5 L 190 155.5 L 193 160.5 L 196 169.5 L 196 178.5 L 192.5 183 L 190.5 183 L 185.5 178 L 185 192.5 L 183 200 L 178 200 L 178 197.5 L 181 184.5 L 180 183.5 L 180 175.5 L 181 173 L 185.5 172 L 190.5 176 L 191 169.5 L 186 158.5 L 168 140.5 L 166 136.5 L 168.5 132 Q 177.3 133.8 179 128.5 Q 178 123 181.5 122 Q 187.7 122.7 189 118.5 L 190 112.5 L 187 105.5 Q 191.2 100.7 190 90.5 Q 186.7 78.3 177.5 72 L 166 62.5 L 156.5 45 L 154 48.5 L 152 56.5 L 152 69.5 L 153 72.5 L 148 76.5 Q 148.8 78.8 146.5 78 Q 143 72 135.5 70 Q 132 73.2 132 79 Q 126.9 79.8 125.5 75 L 120.5 74 L 115 75 L 111 61.5 L 107.5 57 Q 97 60.1 92 68.5 L 89 75 L 83.5 77 L 81.5 76 L 75 77 L 74 71 L 70 72 L 68 67.5 L 74 55.5 L 74 48 L 58.5 60 L 37 73 L 31 82.5 L 30 94.5 L 33 101 L 29 103.5 Q 29 112.5 34 116.5 Q 30.1 120.6 31 129.5 L 36 134.5 L 35 135.5 L 27 159.5 L 27 176.5 L 31 191.5 L 36 199.5 L 30 200 L 23 181.5 L 22 161.5 L 24 151.5 L 31 132.5 Q 26 128.5 27 118.5 L 29 115.5 Q 25.2 113.3 26 106.5 Q 28.6 105.1 28 100.5 Q 23.5 96 25 85.5 Q 28.7 72.7 38.5 66 Q 58.4 56.4 72.5 41 L 75.5 41 Q 80.8 44.8 79 55.5 L 76 65.5 L 80.5 72 L 86 70 Q 89.6 61.6 97.5 56 Q 101.3 52.3 108.5 52 L 113 55.5 L 119.5 69 L 128.5 71 L 133.5 65 L 137.5 65 L 146.5 71 L 148 50.5 Q 149.8 42.3 155.5 38 Z " /><path fill="rgb(72,160,102)" stroke="rgb(72,160,102)" stroke-width="1" opacity="0.996078431372549" d="M 156.5 47 Q 162.1 62.9 174.5 72 L 182 77.5 Q 189.6 83.9 189 98.5 L 188 101 Q 183.5 102.8 185 97.5 Q 182.8 96.3 184 91.5 L 181.5 88 L 179 86.5 L 178 80.5 L 175.5 78 L 169.5 77 Q 168.3 79.3 167 76.5 L 166 70.5 Q 160.3 66.2 158 58.5 L 156 52.5 L 156.5 47 Z " /><path fill="rgb(72,160,102)" stroke="rgb(72,160,102)" stroke-width="1" opacity="0.996078431372549" d="M 71.5 50 Q 74.1 49.2 73 52.5 L 66.5 61 L 56 69.5 L 52.5 75 L 50.5 74 L 47 75 L 43.5 83 Q 37.5 81.5 36 84.5 Q 34.7 96.3 38 103.5 L 35 101.5 Q 29.8 97.2 31 86.5 Q 33.8 77.3 40.5 72 Q 58.7 63.7 71.5 50 Z " /><path fill="rgb(72,160,102)" stroke="rgb(72,160,102)" stroke-width="1" opacity="0.996078431372549" d="M 102.5 60 L 104 60.5 Q 96 74.8 93 93 L 88 89.5 L 86 84.5 Q 89.2 70.7 98.5 63 L 102.5 60 Z " /><path fill="rgb(72,160,102)" stroke="rgb(72,160,102)" stroke-width="1" opacity="0.996078431372549" d="M 72.5 72 L 73 73.5 L 61 88.5 L 57 99.5 L 56.5 106 Q 52.6 101.4 54 91.5 Q 57.9 81.4 66.5 76 L 72.5 72 Z " /><path fill="rgb(72,160,102)" stroke="rgb(72,160,102)" stroke-width="1" opacity="0.996078431372549" d="M 139.5 73 L 146 78.5 L 152 87.5 L 152 91.5 L 151 95 L 148 93.5 L 139 74.5 L 139.5 73 Z " /><path fill="rgb(72,160,102)" stroke="rgb(72,160,102)" stroke-width="1" opacity="0.996078431372549" d="M 87.5 114 L 89.5 117 L 87.5 114 Z " /><path fill="rgb(72,160,102)" stroke="rgb(72,160,102)" stroke-width="1" opacity="0.996078431372549" d="M 99.5 116 L 98.5 118 L 99.5 116 Z " /><path fill="rgb(72,160,102)" stroke="rgb(72,160,102)" stroke-width="1" opacity="0.996078431372549" d="M 96.5 118 L 95.5 120 L 96.5 118 Z " /><path fill="rgb(72,160,102)" stroke="rgb(72,160,102)" stroke-width="1" opacity="0.996078431372549" d="M 106.5 118 L 107.5 120 L 106.5 118 Z " /><path fill="rgb(72,160,102)" stroke="rgb(72,160,102)" stroke-width="1" opacity="0.996078431372549" d="M 110.5 121 L 111.5 123 L 110.5 121 Z " /><path fill="rgb(72,160,102)" stroke="rgb(72,160,102)" stroke-width="1" opacity="0.996078431372549" d="M 126.5 139 L 127 141.5 L 126 141.5 L 126.5 139 Z " /><path fill="rgb(72,160,102)" stroke="rgb(72,160,102)" stroke-width="1" opacity="0.996078431372549" d="M 60.5 147 L 64.5 152 L 60.5 147 Z " /><path fill="rgb(72,160,102)" stroke="rgb(72,160,102)" stroke-width="1" opacity="0.996078431372549" d="M 89.5 176 L 78 188.5 L 76 193.5 L 77 196 Q 84.3 197.3 86 191.5 Q 85.3 189.3 87.5 190 L 89 191.5 L 80.5 200 L 73 200 L 73 184.5 L 75.5 178 L 81.5 181 L 84.5 181 L 89.5 176 Z " /><path fill="rgb(72,160,102)" stroke="rgb(72,160,102)" stroke-width="1" opacity="0.996078431372549" d="M 105.5 177 L 107.5 178 L 109 177.5 L 109 186.5 L 112 199.5 L 100.5 200 L 100.5 199 L 103 197.5 L 103 194.5 L 93 184.5 L 95.5 182 L 101.5 181 L 105.5 177 Z " /><path fill="rgb(72,160,102)" stroke="rgb(72,160,102)" stroke-width="1" opacity="0.996078431372549" d="M 155.5 195 L 156.5 197 L 155.5 195 Z " /><path fill="rgb(72,160,102)" stroke="rgb(72,160,102)" stroke-width="1" opacity="0.996078431372549" d="M 93.5 197 Q 97.5 196.5 98 199.5 L 91.5 200 L 93.5 197 Z " /><path fill="rgb(28,59,36)" stroke="rgb(28,59,36)" stroke-width="1" opacity="1" d="M 72.5 48 L 74 48.5 L 68.5 53 L 72.5 48 Z " /><path fill="rgb(28,59,36)" stroke="rgb(28,59,36)" stroke-width="1" opacity="1" d="M 108.5 59 L 109.5 61 L 108.5 59 Z " /><path fill="rgb(28,59,36)" stroke="rgb(28,59,36)" stroke-width="1" opacity="1" d="M 152.5 60 L 153 65.5 L 152 65.5 L 152.5 60 Z " /><path fill="rgb(28,59,36)" stroke="rgb(28,59,36)" stroke-width="1" opacity="1" d="M 98.5 62 L 95.5 66 L 98.5 62 Z " /><path fill="rgb(28,59,36)" stroke="rgb(28,59,36)" stroke-width="1" opacity="1" d="M 166.5 63 L 170.5 68 L 166.5 63 Z " /><path fill="rgb(28,59,36)" stroke="rgb(28,59,36)" stroke-width="1" opacity="1" d="M 65.5 69 L 63.5 72 L 65.5 69 Z " /><path fill="rgb(28,59,36)" stroke="rgb(28,59,36)" stroke-width="1" opacity="1" d="M 40.5 71 L 39.5 73 L 40.5 71 Z " /><path fill="rgb(28,59,36)" stroke="rgb(28,59,36)" stroke-width="1" opacity="1" d="M 153.5 71 L 154 73.5 L 153 73.5 L 153.5 71 Z " /><path fill="rgb(28,59,36)" stroke="rgb(28,59,36)" stroke-width="1" opacity="1" d="M 61.5 72 L 52.5 82 L 61.5 72 Z " /><path fill="rgb(28,59,36)" stroke="rgb(28,59,36)" stroke-width="1" opacity="1" d="M 141.5 73 L 148.5 81 L 141.5 73 Z " /><path fill="rgb(28,59,36)" stroke="rgb(28,59,36)" stroke-width="1" opacity="1" d="M 67.5 74 L 66.5 76 L 67.5 74 Z " /><path fill="rgb(28,59,36)" stroke="rgb(28,59,36)" stroke-width="1" opacity="1" d="M 179.5 74 L 181.5 77 L 179.5 74 Z " /><path fill="rgb(28,59,36)" stroke="rgb(28,59,36)" stroke-width="1" opacity="1" d="M 36.5 75 L 35.5 77 L 36.5 75 Z " /><path fill="rgb(28,59,36)" stroke="rgb(28,59,36)" stroke-width="1" opacity="1" d="M 62.5 78 L 59.5 82 L 62.5 78 Z " /><path fill="rgb(28,59,36)" stroke="rgb(28,59,36)" stroke-width="1" opacity="1" d="M 80 78 Q 82.7 76.9 82 79.5 L 80.5 84 L 80 78 Z " /><path fill="rgb(28,59,36)" stroke="rgb(28,59,36)" stroke-width="1" opacity="1" d="M 75.5 80 L 76 83.5 L 75 83.5 L 75.5 80 Z " /><path fill="rgb(28,59,36)" stroke="rgb(28,59,36)" stroke-width="1" opacity="1" d="M 131.5 80 L 132 82.5 L 131 82.5 L 131.5 80 Z " /><path fill="rgb(28,59,36)" stroke="rgb(28,59,36)" stroke-width="1" opacity="1" d="M 50.5 85 L 50 86.5 L 49.5 88 L 49 86.5 L 50.5 85 Z " /><path fill="rgb(28,59,36)" stroke="rgb(28,59,36)" stroke-width="1" opacity="1" d="M 85.5 85 L 86 88.5 L 85 88.5 L 85.5 85 Z " /><path fill="rgb(28,59,36)" stroke="rgb(28,59,36)" stroke-width="1" opacity="1" d="M 114.5 85 L 115 87.5 L 114 87.5 L 114.5 85 Z " /><path fill="rgb(28,59,36)" stroke="rgb(28,59,36)" stroke-width="1" opacity="1" d="M 48.5 89 L 49 91.5 L 48 91.5 L 48.5 89 Z " /><path fill="rgb(28,59,36)" stroke="rgb(28,59,36)" stroke-width="1" opacity="1" d="M 131.5 91 L 132 93.5 L 131 93.5 L 131.5 91 Z " /><path fill="rgb(28,59,36)" stroke="rgb(28,59,36)" stroke-width="1" opacity="1" d="M 154.5 91 L 155 93.5 L 154 93.5 L 154.5 91 Z " /><path fill="rgb(28,59,36)" stroke="rgb(28,59,36)" stroke-width="1" opacity="1" d="M 72.5 92 L 72 93.5 L 71.5 95 L 71 93.5 L 72.5 92 Z " /><path fill="rgb(28,59,36)" stroke="rgb(28,59,36)" stroke-width="1" opacity="1" d="M 112.5 92 L 113 93.5 L 111 94.5 L 112.5 92 Z " /><path fill="rgb(28,59,36)" stroke="rgb(28,59,36)" stroke-width="1" opacity="1" d="M 161.5 92 L 160.5 94 L 161.5 92 Z " /><path fill="rgb(28,59,36)" stroke="rgb(28,59,36)" stroke-width="1" opacity="1" d="M 189.5 92 L 190 95.5 L 189 95.5 L 189.5 92 Z " /><path fill="rgb(28,59,36)" stroke="rgb(28,59,36)" stroke-width="1" opacity="1" d="M 85.5 95 L 86 97.5 L 85 97.5 L 85.5 95 Z " /><path fill="rgb(28,59,36)" stroke="rgb(28,59,36)" stroke-width="1" opacity="1" d="M 70.5 96 L 67.5 100 L 70.5 96 Z " /><path fill="rgb(28,59,36)" stroke="rgb(28,59,36)" stroke-width="1" opacity="1" d="M 32.5 98 L 33.5 100 L 32.5 98 Z " /><path fill="rgb(28,59,36)" stroke="rgb(28,59,36)" stroke-width="1" opacity="1" d="M 53.5 98 L 54 100.5 L 53 100.5 L 53.5 98 Z " /><path fill="rgb(28,59,36)" stroke="rgb(28,59,36)" stroke-width="1" opacity="1" d="M 109.5 98 L 108.5 100 L 109.5 98 Z " /><path fill="rgb(28,59,36)" stroke="rgb(28,59,36)" stroke-width="1" opacity="1" d="M 48.5 99 L 49 100.5 L 47 101.5 L 48.5 99 Z " /><path fill="rgb(28,59,36)" stroke="rgb(28,59,36)" stroke-width="1" opacity="1" d="M 134.5 100 L 142.5 109 L 134.5 100 Z " /><path fill="rgb(28,59,36)" stroke="rgb(28,59,36)" stroke-width="1" opacity="1" d="M 65.5 101 L 62.5 105 L 65.5 101 Z " /><path fill="rgb(28,59,36)" stroke="rgb(28,59,36)" stroke-width="1" opacity="1" d="M 107.5 101 L 98.5 111 L 107.5 101 Z " /><path fill="rgb(28,59,36)" stroke="rgb(28,59,36)" stroke-width="1" opacity="1" d="M 87.5 103 L 89 105.5 L 87 104.5 L 87.5 103 Z " /><path fill="rgb(28,59,36)" stroke="rgb(28,59,36)" stroke-width="1" opacity="1" d="M 130.5 103 L 132.5 106 L 130.5 103 Z " /><path fill="rgb(28,59,36)" stroke="rgb(28,59,36)" stroke-width="1" opacity="1" d="M 111.5 104 L 110.5 106 L 111.5 104 Z " /><path fill="rgb(28,59,36)" stroke="rgb(28,59,36)" stroke-width="1" opacity="1" d="M 45.5 105 L 44.5 107 L 45.5 105 Z " /><path fill="rgb(28,59,36)" stroke="rgb(28,59,36)" stroke-width="1" opacity="1" d="M 60.5 105 L 59.5 107 L 60.5 105 Z " /><path fill="rgb(28,59,36)" stroke="rgb(28,59,36)" stroke-width="1" opacity="1" d="M 50.5 107 L 51.5 109 L 49 108.5 L 50.5 107 Z " /><path fill="rgb(28,59,36)" stroke="rgb(28,59,36)" stroke-width="1" opacity="1" d="M 65.5 108 L 64.5 110 L 65.5 108 Z " /><path fill="rgb(28,59,36)" stroke="rgb(28,59,36)" stroke-width="1" opacity="1" d="M 144.5 109 L 147 109.5 Q 144.9 112.8 144.5 109 Z " /><path fill="rgb(28,59,36)" stroke="rgb(28,59,36)" stroke-width="1" opacity="1" d="M 91.5 110 L 92.5 112 L 91.5 110 Z " /><path fill="rgb(28,59,36)" stroke="rgb(28,59,36)" stroke-width="1" opacity="1" d="M 106.5 110 L 109 113.5 L 106 111.5 L 106.5 110 Z " /><path fill="rgb(28,59,36)" stroke="rgb(28,59,36)" stroke-width="1" opacity="1" d="M 138.5 111 L 139.5 113 L 138.5 111 Z " /><path fill="rgb(28,59,36)" stroke="rgb(28,59,36)" stroke-width="1" opacity="1" d="M 55.5 112 L 59 112.5 L 55.5 113 L 55.5 112 Z " /><path fill="rgb(28,59,36)" stroke="rgb(28,59,36)" stroke-width="1" opacity="1" d="M 79.5 112 L 78.5 114 L 79.5 112 Z " /><path fill="rgb(28,59,36)" stroke="rgb(28,59,36)" stroke-width="1" opacity="1" d="M 95.5 112 L 94.5 114 L 93 113.5 L 95.5 112 Z " /><path fill="rgb(28,59,36)" stroke="rgb(28,59,36)" stroke-width="1" opacity="1" d="M 86.5 113 L 85.5 115 L 86.5 113 Z " /><path fill="rgb(28,59,36)" stroke="rgb(28,59,36)" stroke-width="1" opacity="1" d="M 144.5 115 L 147 116.5 L 145.5 116 L 144.5 115 Z " /><path fill="rgb(28,59,36)" stroke="rgb(28,59,36)" stroke-width="1" opacity="1" d="M 107.5 118 L 108.5 120 L 107.5 118 Z " /><path fill="rgb(28,59,36)" stroke="rgb(28,59,36)" stroke-width="1" opacity="1" d="M 119.5 126 L 120.5 128 L 119.5 126 Z " /><path fill="rgb(28,59,36)" stroke="rgb(28,59,36)" stroke-width="1" opacity="1" d="M 126.5 134 L 127 136.5 L 126 136.5 L 126.5 134 Z " /><path fill="rgb(28,59,36)" stroke="rgb(28,59,36)" stroke-width="1" opacity="1" d="M 131.5 136 L 132 140.5 L 131 140.5 L 131.5 136 Z " /><path fill="rgb(28,59,36)" stroke="rgb(28,59,36)" stroke-width="1" opacity="1" d="M 52.5 140 L 53 150.5 L 52 150.5 L 52.5 140 Z " /><path fill="rgb(28,59,36)" stroke="rgb(28,59,36)" stroke-width="1" opacity="1" d="M 127.5 142 L 128 144.5 L 127 144.5 L 127.5 142 Z " /><path fill="rgb(28,59,36)" stroke="rgb(28,59,36)" stroke-width="1" opacity="1" d="M 61.5 149 L 63.5 152 L 61.5 149 Z " /><path fill="rgb(28,59,36)" stroke="rgb(28,59,36)" stroke-width="1" opacity="1" d="M 177.5 150 L 178.5 152 L 177.5 150 Z " /><path fill="rgb(28,59,36)" stroke="rgb(28,59,36)" stroke-width="1" opacity="1" d="M 128.5 152 L 127.5 154 L 128.5 152 Z " /><path fill="rgb(28,59,36)" stroke="rgb(28,59,36)" stroke-width="1" opacity="1" d="M 58.5 153 L 60.5 156 L 58.5 153 Z " /><path fill="rgb(28,59,36)" stroke="rgb(28,59,36)" stroke-width="1" opacity="1" d="M 181.5 154 L 183.5 157 L 181.5 154 Z " /><path fill="rgb(28,59,36)" stroke="rgb(28,59,36)" stroke-width="1" opacity="1" d="M 58.5 156 L 59 158.5 L 58 158.5 L 58.5 156 Z " /><path fill="rgb(28,59,36)" stroke="rgb(28,59,36)" stroke-width="1" opacity="1" d="M 118.5 161 L 119.5 163 L 118.5 161 Z " /><path fill="rgb(28,59,36)" stroke="rgb(28,59,36)" stroke-width="1" opacity="1" d="M 86.5 162 Q 88.8 161.3 88 163.5 L 86.5 162 Z " /><path fill="rgb(28,59,36)" stroke="rgb(28,59,36)" stroke-width="1" opacity="1" d="M 71.5 163 L 69.5 166 L 71.5 163 Z " /><path fill="rgb(28,59,36)" stroke="rgb(28,59,36)" stroke-width="1" opacity="1" d="M 100.5 164 L 99.5 166 L 100.5 164 Z " /><path fill="rgb(28,59,36)" stroke="rgb(28,59,36)" stroke-width="1" opacity="1" d="M 120.5 164 L 121.5 166 L 120.5 164 Z " /><path fill="rgb(28,59,36)" stroke="rgb(28,59,36)" stroke-width="1" opacity="1" d="M 91.5 165 L 90.5 167 L 89 166.5 L 91.5 165 Z " /><path fill="rgb(28,59,36)" stroke="rgb(28,59,36)" stroke-width="1" opacity="1" d="M 83.5 166 L 84.5 168 L 83.5 166 Z " /><path fill="rgb(28,59,36)" stroke="rgb(28,59,36)" stroke-width="1" opacity="1" d="M 110.5 168 L 111 169.5 L 110 176 Q 104.6 174.5 103 177.5 L 101.5 180 L 97.5 181 L 95.5 180 L 91 184.5 L 98.5 192 L 101 193.5 L 102 196.5 Q 101.3 198.8 97.5 198 L 94.5 195 L 89.5 200 L 83 199.5 L 87.5 194 L 90 192.5 L 88.5 189 L 86.5 189 L 79.5 195 Q 77.3 194.3 78 190.5 L 84.5 183 L 91 177.5 Q 92.3 173.8 88.5 175 L 87 178 L 81.5 180 Q 80.5 176 74.5 177 L 73 177.5 L 74 171 L 77.5 172 L 79.5 171 L 83.5 174 L 86.5 170 L 88 173 Q 91.4 173.8 92.5 171 L 98.5 176 L 101 171 L 107.5 171 L 108 169 L 109.5 169 L 110.5 168 Z " /><path fill="rgb(28,59,36)" stroke="rgb(28,59,36)" stroke-width="1" opacity="1" d="M 123.5 169 L 124.5 171 L 123.5 169 Z " /><path fill="rgb(28,59,36)" stroke="rgb(28,59,36)" stroke-width="1" opacity="1" d="M 64.5 173 L 63.5 175 L 62 174.5 L 64.5 173 Z " /><path fill="rgb(28,59,36)" stroke="rgb(28,59,36)" stroke-width="1" opacity="1" d="M 68.5 176 L 69 177.5 L 67 178.5 L 68.5 176 Z " /><path fill="rgb(28,59,36)" stroke="rgb(28,59,36)" stroke-width="1" opacity="1" d="M 72.5 180 L 73 183.5 L 72 183.5 L 72.5 180 Z " /><path fill="rgb(28,59,36)" stroke="rgb(28,59,36)" stroke-width="1" opacity="1" d="M 110.5 182 L 111 186.5 L 110 186.5 L 110.5 182 Z " /><path fill="rgb(28,59,36)" stroke="rgb(28,59,36)" stroke-width="1" opacity="1" d="M 143.5 187 L 144.5 189 L 143.5 187 Z " /><path fill="rgb(28,59,36)" stroke="rgb(28,59,36)" stroke-width="1" opacity="1" d="M 150.5 189 L 151.5 191 L 150.5 189 Z " /><path fill="rgb(28,59,36)" stroke="rgb(28,59,36)" stroke-width="1" opacity="1" d="M 65.5 190 L 66.5 192 L 65.5 190 Z " /><path fill="rgb(28,59,36)" stroke="rgb(28,59,36)" stroke-width="1" opacity="1" d="M 54.5 191 L 56 191.5 L 54 192 L 53.5 194 L 53 192.5 L 54.5 191 Z " /><path fill="rgb(28,59,36)" stroke="rgb(28,59,36)" stroke-width="1" opacity="1" d="M 149.5 196 L 150.5 198 L 149.5 196 Z " /><path fill="rgb(28,59,36)" stroke="rgb(28,59,36)" stroke-width="1" opacity="1" d="M 155.5 196 L 156.5 198 L 155.5 196 Z " /><path fill="rgb(28,59,36)" stroke="rgb(28,59,36)" stroke-width="1" opacity="1" d="M 54.5 197 L 55.5 199 L 54.5 197 Z " /><path fill="rgb(28,59,36)" stroke="rgb(28,59,36)" stroke-width="1" opacity="1" d="M 61.5 198 L 62.5 200 L 61.5 198 Z " /><path fill="rgb(107,56,59)" stroke="rgb(107,56,59)" stroke-width="1" opacity="0.996078431372549" d="M 170.5 87 L 175 87.5 L 170.5 88 L 170.5 87 Z " /><path fill="rgb(107,56,59)" stroke="rgb(107,56,59)" stroke-width="1" opacity="0.996078431372549" d="M 171.5 92 L 174 92.5 L 171.5 93 L 171.5 92 Z " /><path fill="rgb(107,56,59)" stroke="rgb(107,56,59)" stroke-width="1" opacity="0.996078431372549" d="M 167.5 93 L 169 93.5 L 164.5 97 L 167.5 93 Z " /><path fill="rgb(107,56,59)" stroke="rgb(107,56,59)" stroke-width="1" opacity="0.996078431372549" d="M 175.5 93 L 179 97.5 L 178 97.5 L 175.5 93 Z " /><path fill="rgb(107,56,59)" stroke="rgb(107,56,59)" stroke-width="1" opacity="0.996078431372549" d="M 152.5 100 L 150.5 103 L 152.5 100 Z " /><path fill="rgb(107,56,59)" stroke="rgb(107,56,59)" stroke-width="1" opacity="0.996078431372549" d="M 179.5 100 L 180 105 L 186 106.5 L 184 107.5 Q 186.8 109.3 185 115.5 L 180.5 122 Q 177.5 121.1 179 125.5 L 178 125.5 Q 179 121.8 176 123 L 174.5 127 L 171 125.5 Q 170.8 120.8 167.5 119 L 164 118 Q 162.9 112.5 165.5 110 Q 165.3 116.7 169.5 119 Q 172.8 120.1 172 117.5 L 172 115.5 L 171 110.5 L 174 105.5 L 170.5 104 L 166.5 109 L 166 107.5 Q 167.8 101.3 177.5 103 L 179 103.5 L 179.5 100 Z " /><path fill="rgb(107,56,59)" stroke="rgb(107,56,59)" stroke-width="1" opacity="0.996078431372549" d="M 158.5 103 L 161 103.5 L 158.5 104 L 158.5 103 Z " /><path fill="rgb(107,56,59)" stroke="rgb(107,56,59)" stroke-width="1" opacity="0.996078431372549" d="M 32.5 107 L 34.5 110 L 32.5 107 Z " /><path fill="rgb(107,56,59)" stroke="rgb(107,56,59)" stroke-width="1" opacity="0.996078431372549" d="M 32.5 110 L 34.5 113 L 32.5 110 Z " /><path fill="rgb(107,56,59)" stroke="rgb(107,56,59)" stroke-width="1" opacity="0.996078431372549" d="M 151.5 111 L 152 115.5 L 151 115.5 L 151.5 111 Z " /><path fill="rgb(107,56,59)" stroke="rgb(107,56,59)" stroke-width="1" opacity="0.996078431372549" d="M 103.5 115 L 105.5 118 L 103.5 115 Z " /><path fill="rgb(107,56,59)" stroke="rgb(107,56,59)" stroke-width="1" opacity="0.996078431372549" d="M 39.5 116 L 37 119.5 L 35 125 L 33 125 L 33 120 L 39.5 116 Z " /><path fill="rgb(107,56,59)" stroke="rgb(107,56,59)" stroke-width="1" opacity="0.996078431372549" d="M 34.5 117 L 33.5 119 L 34.5 117 Z " /><path fill="rgb(107,56,59)" stroke="rgb(107,56,59)" stroke-width="1" opacity="0.996078431372549" d="M 90.5 117 L 92.5 120 L 90.5 117 Z " /><path fill="rgb(107,56,59)" stroke="rgb(107,56,59)" stroke-width="1" opacity="0.996078431372549" d="M 152.5 117 L 157 120.5 L 155.5 121 L 152.5 117 Z " /><path fill="rgb(107,56,59)" stroke="rgb(107,56,59)" stroke-width="1" opacity="0.996078431372549" d="M 187.5 118 L 185.5 121 L 187.5 118 Z " /><path fill="rgb(107,56,59)" stroke="rgb(107,56,59)" stroke-width="1" opacity="0.996078431372549" d="M 148.5 120 L 151.5 124 L 148.5 120 Z " /><path fill="rgb(107,56,59)" stroke="rgb(107,56,59)" stroke-width="1" opacity="0.996078431372549" d="M 158.5 121 Q 162.5 120.5 163 123.5 L 162.5 125 L 160.5 122 Q 157.5 122.5 158.5 121 Z " /><path fill="rgb(107,56,59)" stroke="rgb(107,56,59)" stroke-width="1" opacity="0.996078431372549" d="M 157.5 126 L 158.5 128 L 157.5 126 Z " /><path fill="rgb(107,56,59)" stroke="rgb(107,56,59)" stroke-width="1" opacity="0.996078431372549" d="M 163.5 126 L 167 130.5 L 163 127.5 L 163.5 126 Z " /><path fill="rgb(107,56,59)" stroke="rgb(107,56,59)" stroke-width="1" opacity="0.996078431372549" d="M 64.5 130 Q 74.7 129.8 79 135.5 L 80 141 Q 77.7 143.6 71.5 143 L 72 141.5 Q 72.9 138.5 68.5 140 L 67 140.5 L 63 131.5 L 64.5 130 Z M 77 134 Q 75 137 78 136 L 77 134 Z " /><path fill="rgb(107,56,59)" stroke="rgb(107,56,59)" stroke-width="1" opacity="0.996078431372549" d="M 159.5 130 L 160.5 132 L 159.5 130 Z " /><path fill="rgb(107,56,59)" stroke="rgb(107,56,59)" stroke-width="1" opacity="0.996078431372549" d="M 115.5 131 Q 120.9 130.4 123 132 L 118.5 141 L 116 140 Q 117.8 144.5 112.5 143 L 108.5 144 L 103 140.5 Q 102.4 135.4 105.5 134 L 115.5 131 Z " /><path fill="rgb(107,56,59)" stroke="rgb(107,56,59)" stroke-width="1" opacity="0.996078431372549" d="M 127.5 145 L 128 146.5 L 124 149.5 L 127.5 145 Z " /><path fill="rgb(107,56,59)" stroke="rgb(107,56,59)" stroke-width="1" opacity="0.996078431372549" d="M 93 162 L 95 162.5 L 92 164.5 L 93 162 Z " /><path fill="rgb(107,56,59)" stroke="rgb(107,56,59)" stroke-width="1" opacity="0.996078431372549" d="M 27.5 164 L 28 172.5 L 27 172.5 L 27.5 164 Z " /><path fill="rgb(107,56,59)" stroke="rgb(107,56,59)" stroke-width="1" opacity="0.996078431372549" d="M 117.5 169 L 116.5 171 L 117.5 169 Z " /><path fill="rgb(107,56,59)" stroke="rgb(107,56,59)" stroke-width="1" opacity="0.996078431372549" d="M 115.5 182 L 116 185.5 L 115 185.5 L 115.5 182 Z " /><path fill="rgb(43,122,79)" stroke="rgb(43,122,79)" stroke-width="1" opacity="1" d="M 155.5 48 L 158 58.5 Q 160.3 66.2 166 70.5 Q 165.5 76 168.5 78 L 173.5 77 L 178 80.5 Q 177.5 86 180.5 88 L 183 89.5 L 184 93.5 L 183 93.5 L 179.5 89 Q 176.5 86 169.5 87 L 160 92 L 159 85.5 L 154 74.5 L 153 56.5 L 155.5 48 Z " /><path fill="rgb(43,122,79)" stroke="rgb(43,122,79)" stroke-width="1" opacity="1" d="M 72.5 53 L 73 54.5 Q 70.7 64.2 64.5 70 L 52 81.5 Q 45.8 86.8 48 100.5 L 43.5 107 L 38 105 L 36 96.5 L 36 84.5 L 37.5 83 Q 43.5 84.5 45 81.5 L 47 75 L 50.5 74 L 52.5 75 L 59.5 66 L 70 57.5 L 72.5 53 Z " /><path fill="rgb(43,122,79)" stroke="rgb(43,122,79)" stroke-width="1" opacity="1" d="M 66.5 54 L 65.5 56 L 66.5 54 Z " /><path fill="rgb(43,122,79)" stroke="rgb(43,122,79)" stroke-width="1" opacity="1" d="M 61.5 58 L 60.5 60 L 61.5 58 Z " /><path fill="rgb(43,122,79)" stroke="rgb(43,122,79)" stroke-width="1" opacity="1" d="M 106.5 58 Q 114.9 66.6 115 83.5 Q 111.3 101.3 98.5 110 L 93 113 L 88 104.5 L 85 91.5 L 86.5 85 Q 87.4 90.6 91.5 93 Q 94.5 93.9 93 89.5 L 101 65.5 L 104 60.5 L 103.5 59 L 106.5 58 Z " /><path fill="rgb(43,122,79)" stroke="rgb(43,122,79)" stroke-width="1" opacity="1" d="M 100.5 61 L 99.5 63 L 100.5 61 Z " /><path fill="rgb(43,122,79)" stroke="rgb(43,122,79)" stroke-width="1" opacity="1" d="M 95.5 66 L 93.5 69 L 95.5 66 Z " /><path fill="rgb(43,122,79)" stroke="rgb(43,122,79)" stroke-width="1" opacity="1" d="M 173.5 70 L 174.5 72 L 173.5 70 Z " /><path fill="rgb(43,122,79)" stroke="rgb(43,122,79)" stroke-width="1" opacity="1" d="M 136.5 71 L 141 73.5 L 139 73.5 L 149.5 95 Q 152.1 95.8 151 92.5 L 152.5 88 L 155 96.5 Q 148.5 101.5 145.5 110 L 135 100.5 Q 130.6 94.9 131 84.5 L 133 76.5 L 136.5 71 Z " /><path fill="rgb(43,122,79)" stroke="rgb(43,122,79)" stroke-width="1" opacity="1" d="M 73.5 72 Q 76 77.5 75 86.5 Q 71.3 97.8 62.5 104 L 56.5 107 L 57 105.5 L 57 99.5 L 60 90.5 L 73.5 72 Z " /><path fill="rgb(43,122,79)" stroke="rgb(43,122,79)" stroke-width="1" opacity="1" d="M 177.5 73 L 178.5 75 L 177.5 73 Z " /><path fill="rgb(43,122,79)" stroke="rgb(43,122,79)" stroke-width="1" opacity="1" d="M 68.5 74 L 67.5 76 L 68.5 74 Z " /><path fill="rgb(43,122,79)" stroke="rgb(43,122,79)" stroke-width="1" opacity="1" d="M 35.5 77 L 34.5 79 L 35.5 77 Z " /><path fill="rgb(43,122,79)" stroke="rgb(43,122,79)" stroke-width="1" opacity="1" d="M 64.5 77 L 58.5 84 L 64.5 77 Z " /><path fill="rgb(43,122,79)" stroke="rgb(43,122,79)" stroke-width="1" opacity="1" d="M 182.5 78 L 183.5 80 L 182.5 78 Z " /><path fill="rgb(43,122,79)" stroke="rgb(43,122,79)" stroke-width="1" opacity="1" d="M 146.5 79 L 148.5 82 L 146.5 79 Z " /><path fill="rgb(43,122,79)" stroke="rgb(43,122,79)" stroke-width="1" opacity="1" d="M 89.5 175 L 91 176.5 L 79 188.5 L 77 193.5 Q 77.8 195.8 81.5 195 L 86.5 189 L 90 190 L 90 191.5 L 81.5 200 L 89 191.5 L 87.5 190 Q 85.3 189.3 86 191.5 Q 84.3 197.2 77 196 L 76 192.5 L 85 181.5 L 81 180.5 Q 87.9 180.4 89.5 175 Z " /><path fill="rgb(43,122,79)" stroke="rgb(43,122,79)" stroke-width="1" opacity="1" d="M 105.5 176 L 108 177.5 L 106.5 178 L 105.5 177 L 101 180.5 L 105.5 176 Z " /><path fill="rgb(43,122,79)" stroke="rgb(43,122,79)" stroke-width="1" opacity="1" d="M 109.5 176 L 110 186.5 L 109 186.5 L 109.5 176 Z " /><path fill="rgb(43,122,79)" stroke="rgb(43,122,79)" stroke-width="1" opacity="1" d="M 74 177 Q 78.7 176 80 179.5 L 77.5 178 L 74 179.5 L 73.5 184 L 73 179.5 L 74 177 Z " /><path fill="rgb(43,122,79)" stroke="rgb(43,122,79)" stroke-width="1" opacity="1" d="M 95.5 181 L 100 181.5 Q 94.5 181 93 184.5 L 103 194.5 L 103 197.5 L 101 198.5 L 102 194.5 L 92 184.5 L 92 183 L 95.5 181 Z " /><path fill="rgb(43,122,79)" stroke="rgb(43,122,79)" stroke-width="1" opacity="1" d="M 72.5 185 L 73 199.5 L 72 199.5 L 72.5 185 Z " /><path fill="rgb(43,122,79)" stroke="rgb(43,122,79)" stroke-width="1" opacity="1" d="M 110.5 189 L 111 193.5 L 110 193.5 L 110.5 189 Z " /><path fill="rgb(43,122,79)" stroke="rgb(43,122,79)" stroke-width="1" opacity="1" d="M 111.5 195 L 112 198.5 L 111 198.5 L 111.5 195 Z " /><path fill="rgb(43,122,79)" stroke="rgb(43,122,79)" stroke-width="1" opacity="1" d="M 93.5 196 L 100 199.5 L 98.5 200 Q 98 196.5 93.5 197 L 90 199.5 L 93.5 196 Z " /><path fill="rgb(16,24,17)" stroke="rgb(16,24,17)" stroke-width="1" opacity="1" d="M 66.5 53 L 64.5 56 L 66.5 53 Z " /><path fill="rgb(16,24,17)" stroke="rgb(16,24,17)" stroke-width="1" opacity="1" d="M 73.5 53 L 74 55.5 L 73 55.5 L 73.5 53 Z " /><path fill="rgb(16,24,17)" stroke="rgb(16,24,17)" stroke-width="1" opacity="1" d="M 152.5 56 L 153 59.5 L 152 59.5 L 152.5 56 Z " /><path fill="rgb(16,24,17)" stroke="rgb(16,24,17)" stroke-width="1" opacity="1" d="M 61.5 57 L 60.5 59 L 61.5 57 Z " /><path fill="rgb(16,24,17)" stroke="rgb(16,24,17)" stroke-width="1" opacity="1" d="M 106.5 57 L 109 58.5 L 107.5 58 L 106.5 57 Z " /><path fill="rgb(16,24,17)" stroke="rgb(16,24,17)" stroke-width="1" opacity="1" d="M 100.5 60 L 99.5 62 L 100.5 60 Z " /><path fill="rgb(16,24,17)" stroke="rgb(16,24,17)" stroke-width="1" opacity="1" d="M 164.5 60 L 165.5 62 L 164.5 60 Z " /><path fill="rgb(16,24,17)" stroke="rgb(16,24,17)" stroke-width="1" opacity="1" d="M 94.5 66 L 92.5 69 L 94.5 66 Z " /><path fill="rgb(16,24,17)" stroke="rgb(16,24,17)" stroke-width="1" opacity="1" d="M 152.5 66 L 153 69.5 L 152 69.5 L 152.5 66 Z " /><path fill="rgb(16,24,17)" stroke="rgb(16,24,17)" stroke-width="1" opacity="1" d="M 66.5 69 L 70 70.5 L 71 72.5 L 59 81.5 L 54 88.5 L 53 100.5 L 57.5 108 L 71 96.5 Q 75.8 90.8 76 80.5 L 75 77 L 82.5 76 L 84.5 76 L 87.5 75 L 88 76.5 L 85 85.5 L 85 97.5 L 87 104.5 L 93 114 Q 102.1 110.1 108 101.5 L 115 87.5 L 115 75 L 120.5 74 L 120 75.5 L 120 86.5 L 118 93.5 L 106 111.5 Q 117.2 122.2 132 128 L 131 140.5 Q 137.7 176.8 158 199.5 L 152.5 200 Q 136.3 180.2 128.5 152 L 117 159.5 Q 130 175.5 135 199.5 L 130 200 Q 126.8 181.9 117.5 169 Q 115.3 168.3 116 170.5 L 115 171.5 L 115 187.5 L 118 199.5 L 113 200 L 110 181.5 L 110 170.5 L 114 163.5 Q 112.5 159.5 105.5 161 L 90.5 173 L 88 173 L 82 164.5 L 82 162 L 79.5 162 L 75 166.5 L 72 180.5 L 72 200 L 67 200 L 67 198.5 Q 65.6 195.8 61 197 L 62 199.5 L 56 200 L 53 194.5 L 54 192 L 58.5 191 Q 60.2 193.8 66.5 192 L 64 188.5 Q 57.6 180.4 55 168.5 L 53 157.5 L 53 140.5 L 52 138.5 L 55 126.5 L 57.5 123 Q 73.7 119 84 110 L 81 101.5 L 79.5 89 Q 75.8 101.3 66.5 108 L 60.5 112 L 54.5 112 L 50.5 107 L 35.5 134 Q 29.5 132.5 31 123.5 L 33 124.5 Q 32.3 127.1 35 126 L 42 112 Q 35.8 111.6 32.5 107 Q 29.8 108.2 32 109.5 L 35 116 L 32 114.5 L 29 107.5 L 29 103.5 L 33.5 100 L 38.5 106 L 44.5 107 L 49 99.5 Q 46.5 98 48 92.5 Q 51.5 78.5 62.5 72 L 66.5 69 Z M 82 77 L 80 79 L 81 84 L 82 80 L 82 77 Z M 87 113 Q 76 123 60 127 L 58 133 Q 60 139 57 141 L 60 149 L 69 155 L 83 158 L 102 158 L 116 155 Q 124 153 128 147 L 126 132 L 103 114 L 95 119 L 93 119 L 87 113 Z M 59 153 Q 58 165 62 174 Q 61 176 64 175 L 73 162 Q 63 160 59 153 Z M 87 162 L 89 166 Q 88 168 91 167 L 95 162 L 92 163 L 87 162 Z M 68 178 L 66 184 L 68 185 L 68 178 Z " /><path fill="rgb(16,24,17)" stroke="rgb(16,24,17)" stroke-width="1" opacity="1" d="M 173.5 69 L 174.5 71 L 173.5 69 Z " /><path fill="rgb(16,24,17)" stroke="rgb(16,24,17)" stroke-width="1" opacity="1" d="M 135.5 70 L 137 70.5 L 134.5 72 L 135.5 70 Z " /><path fill="rgb(16,24,17)" stroke="rgb(16,24,17)" stroke-width="1" opacity="1" d="M 177.5 72 L 178.5 74 L 177.5 72 Z " /><path fill="rgb(16,24,17)" stroke="rgb(16,24,17)" stroke-width="1" opacity="1" d="M 152.5 73 L 158 85.5 L 160 94.5 L 157.5 98 L 155.5 99 L 154 88.5 L 147 78.5 L 150.5 74 L 152.5 73 Z " /><path fill="rgb(16,24,17)" stroke="rgb(16,24,17)" stroke-width="1" opacity="1" d="M 127.5 77 L 132 79.5 L 131 80.5 L 131 93.5 Q 134.1 104 142.5 109 L 145.5 111 L 147 110.5 L 146.5 116 Q 137.6 113.4 133 106.5 Q 124.5 99 126 81.5 L 127.5 77 Z " /><path fill="rgb(16,24,17)" stroke="rgb(16,24,17)" stroke-width="1" opacity="1" d="M 182.5 77 L 184.5 80 L 182.5 77 Z " /><path fill="rgb(16,24,17)" stroke="rgb(16,24,17)" stroke-width="1" opacity="1" d="M 189.5 96 L 190 98.5 L 189 98.5 L 189.5 96 Z " /><path fill="rgb(16,24,17)" stroke="rgb(16,24,17)" stroke-width="1" opacity="1" d="M 189.5 112 L 190 115.5 L 189 115.5 L 189.5 112 Z " /><path fill="rgb(16,24,17)" stroke="rgb(16,24,17)" stroke-width="1" opacity="1" d="M 188.5 118 L 186.5 121 L 188.5 118 Z " /><path fill="rgb(16,24,17)" stroke="rgb(16,24,17)" stroke-width="1" opacity="1" d="M 180.5 122 L 179.5 124 L 180.5 122 Z " /><path fill="rgb(16,24,17)" stroke="rgb(16,24,17)" stroke-width="1" opacity="1" d="M 168.5 131 L 167.5 133 L 168.5 131 Z " /><path fill="rgb(16,24,17)" stroke="rgb(16,24,17)" stroke-width="1" opacity="1" d="M 169.5 142 L 176.5 150 L 169.5 142 Z " /><path fill="rgb(16,24,17)" stroke="rgb(16,24,17)" stroke-width="1" opacity="1" d="M 184.5 157 L 185.5 159 L 184.5 157 Z " /><path fill="rgb(16,24,17)" stroke="rgb(16,24,17)" stroke-width="1" opacity="1" d="M 27.5 159 L 28 161.5 L 27 161.5 L 27.5 159 Z " /><path fill="rgb(249,232,227)" stroke="rgb(249,232,227)" stroke-width="1" opacity="0.996078431372549" d="M 168.5 94 Q 172.3 92.8 171 96.5 L 165.5 105 L 163 103.5 Q 163.3 96.3 168.5 94 Z " /><path fill="rgb(249,232,227)" stroke="rgb(249,232,227)" stroke-width="1" opacity="0.996078431372549" d="M 85.5 115 L 87.5 115 L 93.5 121 L 102.5 115 Q 108.5 122.8 118 126 Q 119.4 130 112.5 128 L 108 130 L 106.5 133 L 103 135.5 L 102 140.5 Q 104.8 145.8 114.5 144 L 124 136.5 L 123 134.5 L 124.5 132 L 126 135.5 L 127 147 L 112.5 155 L 101.5 157 L 82.5 157 L 68.5 154 L 60 146.5 L 58 137.5 L 60.5 131 L 63.5 129 L 61 132.5 L 61 136 Q 65.1 134.3 64 138.5 Q 66.9 143.1 73.5 144 L 77.5 143 L 81 139.5 Q 80.6 134 76.5 132 L 72 129.5 L 70.5 127 Q 66.8 128 68 125 Q 78.3 122 85.5 115 Z " /><path fill="rgb(249,232,227)" stroke="rgb(249,232,227)" stroke-width="1" opacity="0.996078431372549" d="M 38.5 131 L 39 133.5 L 33 151.5 Q 34.5 157 32 158.5 L 32 180.5 L 33 181.5 L 34 192.5 L 33 192.5 L 28 176.5 L 28 159.5 Q 31.5 143.5 38.5 131 Z " /><path fill="rgb(249,232,227)" stroke="rgb(249,232,227)" stroke-width="1" opacity="0.996078431372549" d="M 132 139 L 135 140.5 L 136 148.5 L 139 157.5 L 148 177.5 L 158 191.5 L 166 199.5 L 159.5 200 Q 138.1 176.6 132 139 Z " /><path fill="rgb(249,232,227)" stroke="rgb(249,232,227)" stroke-width="1" opacity="0.996078431372549" d="M 116.5 176 L 127 199.5 L 119.5 200 L 118 198.5 L 116 188.5 L 116.5 176 Z " /><path fill="rgb(87,183,44)" stroke="rgb(87,183,44)" stroke-width="1" opacity="1" d="M 120 75 L 122 75.5 L 120.5 78 L 120 75 Z " /><path fill="rgb(87,183,44)" stroke="rgb(87,183,44)" stroke-width="1" opacity="1" d="M 125.5 76 L 126.5 78 L 125.5 76 Z " /><path fill="rgb(87,183,44)" stroke="rgb(87,183,44)" stroke-width="1" opacity="1" d="M 125.5 81 L 126 83.5 L 125 83.5 L 125.5 81 Z " /><path fill="rgb(87,183,44)" stroke="rgb(87,183,44)" stroke-width="1" opacity="1" d="M 119.5 90 Q 120.8 93 125 92 L 125.5 90 Q 125.3 97.3 128 101.5 L 138.5 113 L 146 117.5 L 153.5 126 L 158 127 L 162.5 135 L 166 137.5 Q 168.2 145.7 175 149.5 L 164.5 150 L 143.5 144 L 132 136.5 Q 130.9 133.2 133.5 134 L 138.5 135 L 141 131.5 Q 120.9 124.1 107 110.5 Q 116.4 103.4 119.5 90 Z " /><path fill="rgb(87,183,44)" stroke="rgb(87,183,44)" stroke-width="1" opacity="1" d="M 78.5 94 L 83 108.5 L 71.5 117 L 57.5 122 L 55 124.5 L 52 134.5 L 52 156.5 L 56 175.5 L 65 192 L 61 191.5 L 63 190.5 L 57 185.5 Q 50.5 177.5 48 165.5 Q 49.2 160.8 47 159.5 L 47 141.5 L 49 130.5 L 56 113 L 62.5 112 L 75 100.5 L 78.5 94 Z " /><path fill="rgb(87,183,44)" stroke="rgb(87,183,44)" stroke-width="1" opacity="1" d="M 50.5 108 L 51.5 110 L 49 109.5 L 50.5 108 Z " /><path fill="rgb(87,183,44)" stroke="rgb(87,183,44)" stroke-width="1" opacity="1" d="M 176.5 150 L 177.5 152 L 176.5 150 Z " /><path fill="rgb(87,183,44)" stroke="rgb(87,183,44)" stroke-width="1" opacity="1" d="M 164.5 154 L 168.5 159 L 164.5 154 Z " /><path fill="rgb(87,183,44)" stroke="rgb(87,183,44)" stroke-width="1" opacity="1" d="M 180.5 154 L 184.5 159 L 180.5 154 Z " /><path fill="rgb(87,183,44)" stroke="rgb(87,183,44)" stroke-width="1" opacity="1" d="M 38.5 156 L 40 156.5 L 38 157 L 37.5 159 L 37 157.5 L 38.5 156 Z " /><path fill="rgb(87,183,44)" stroke="rgb(87,183,44)" stroke-width="1" opacity="1" d="M 41.5 156 L 43 158.5 L 42 158.5 L 41.5 156 Z " /><path fill="rgb(87,183,44)" stroke="rgb(87,183,44)" stroke-width="1" opacity="1" d="M 170.5 159 L 172.5 162 L 170.5 159 Z " /><path fill="rgb(87,183,44)" stroke="rgb(87,183,44)" stroke-width="1" opacity="1" d="M 42.5 160 L 43 167.5 L 42 167.5 L 42.5 160 Z " /><path fill="rgb(87,183,44)" stroke="rgb(87,183,44)" stroke-width="1" opacity="1" d="M 162.5 160 L 164.5 163 L 162.5 160 Z " /><path fill="rgb(87,183,44)" stroke="rgb(87,183,44)" stroke-width="1" opacity="1" d="M 104.5 162 L 103.5 164 L 104.5 162 Z " /><path fill="rgb(87,183,44)" stroke="rgb(87,183,44)" stroke-width="1" opacity="1" d="M 166.5 163 L 167.5 165 L 166.5 163 Z " /><path fill="rgb(87,183,44)" stroke="rgb(87,183,44)" stroke-width="1" opacity="1" d="M 172.5 164 L 171.5 166 L 169 165.5 L 172.5 164 Z " /><path fill="rgb(87,183,44)" stroke="rgb(87,183,44)" stroke-width="1" opacity="1" d="M 111.5 166 L 110.5 168 L 111.5 166 Z " /><path fill="rgb(87,183,44)" stroke="rgb(87,183,44)" stroke-width="1" opacity="1" d="M 178.5 167 L 182 168.5 L 180.5 168 L 177 169.5 L 176.5 171 L 176 169.5 L 178.5 167 Z " /><path fill="rgb(87,183,44)" stroke="rgb(87,183,44)" stroke-width="1" opacity="1" d="M 108.5 168 L 107.5 170 L 108.5 168 Z " /><path fill="rgb(87,183,44)" stroke="rgb(87,183,44)" stroke-width="1" opacity="1" d="M 37.5 169 Q 37 176.5 41.5 179 L 44 177.5 L 44.5 174 Q 46.1 181.9 52 185.5 L 46.5 181 L 44 183.5 L 46 188.5 L 55 199.5 L 45.5 200 Q 36.1 189 37.5 169 Z " /><path fill="rgb(87,183,44)" stroke="rgb(87,183,44)" stroke-width="1" opacity="1" d="M 183.5 169 L 186 170.5 L 184.5 171 L 183.5 169 Z " /><path fill="rgb(87,183,44)" stroke="rgb(87,183,44)" stroke-width="1" opacity="1" d="M 178.5 174 L 179 176.5 L 178 176.5 L 178.5 174 Z " /><path fill="rgb(87,183,44)" stroke="rgb(87,183,44)" stroke-width="1" opacity="1" d="M 179.5 181 L 180 188.5 L 179 188.5 L 179.5 181 Z " /><path fill="rgb(87,183,44)" stroke="rgb(87,183,44)" stroke-width="1" opacity="1" d="M 54.5 188 L 55.5 190 L 54.5 188 Z " /><path fill="rgb(87,183,44)" stroke="rgb(87,183,44)" stroke-width="1" opacity="1" d="M 36.5 198 L 37.5 200 L 36.5 198 Z " /><path fill="rgb(211,98,99)" stroke="rgb(211,98,99)" stroke-width="1" opacity="0.996078431372549" d="M 169.5 93 Q 176.8 91.8 178 96.5 L 179 103.5 L 177.5 103 Q 167.8 101.3 166 107.5 L 164 112.5 L 164 118 L 170 121.5 L 172.5 127 L 176 125.5 Q 175 121.8 178 123 Q 179 128.7 175.5 131 L 171.5 132 L 167.5 131 L 164 127.5 Q 163.8 122.8 160.5 121 Q 154.1 120.9 152 116.5 Q 150.8 107.8 155.5 105 L 160.5 104 L 162.5 102 L 164.5 105 L 168 102.5 L 171 94 L 169.5 93 Z " /><path fill="rgb(211,98,99)" stroke="rgb(211,98,99)" stroke-width="1" opacity="0.996078431372549" d="M 167.5 94 L 164.5 98 L 167.5 94 Z " /><path fill="rgb(211,98,99)" stroke="rgb(211,98,99)" stroke-width="1" opacity="0.996078431372549" d="M 184.5 107 L 187 108.5 L 189 115.5 L 184.5 121 L 182 120.5 Q 186.3 117.3 185 108.5 L 184.5 107 Z " /><path fill="rgb(211,98,99)" stroke="rgb(211,98,99)" stroke-width="1" opacity="0.996078431372549" d="M 32.5 108 Q 35.2 112.6 41 112 Q 40.6 116.7 36.5 119 L 33.5 120 L 35 117.5 L 36 114.5 L 32 109.5 L 32.5 108 Z " /><path fill="rgb(211,98,99)" stroke="rgb(211,98,99)" stroke-width="1" opacity="0.996078431372549" d="M 67.5 125 L 68 127 L 72 128.5 L 73.5 131 L 80 135.5 L 79.5 137 L 76.5 133 L 69.5 130 L 64.5 130 L 63 132.5 L 67 141 L 71 142.5 L 69.5 143 L 64 138.5 Q 65.1 134.3 61 136 L 61 132.5 L 61.5 131 L 59.5 132 L 59 130.5 L 60 128 L 67.5 125 Z M 62 129 L 62 131 L 64 130 L 62 129 Z " /><path fill="rgb(211,98,99)" stroke="rgb(211,98,99)" stroke-width="1" opacity="0.996078431372549" d="M 118.5 127 L 126 132.5 L 125.5 135 L 124.5 132 L 123 135.5 L 124 136.5 L 119.5 141 L 120 139.5 L 123 132 Q 120.9 130.4 115.5 131 L 107.5 133 L 104 135.5 L 103 140.5 L 104.5 143 Q 101.3 142.3 102 137.5 L 105.5 133 L 108 131.5 Q 107.3 129.3 109.5 130 L 112.5 128 Q 117.3 129.3 118.5 127 Z " /><path fill="rgb(211,98,99)" stroke="rgb(211,98,99)" stroke-width="1" opacity="0.996078431372549" d="M 78.5 141 L 77.5 143 L 76 142.5 L 78.5 141 Z " /><path fill="rgb(211,98,99)" stroke="rgb(211,98,99)" stroke-width="1" opacity="0.996078431372549" d="M 117.5 141 L 116.5 143 L 117.5 141 Z " /><path fill="rgb(211,98,99)" stroke="rgb(211,98,99)" stroke-width="1" opacity="0.996078431372549" d="M 112.5 143 L 115 143.5 L 112.5 144 L 112.5 143 Z " /><path fill="rgb(211,98,99)" stroke="rgb(211,98,99)" stroke-width="1" opacity="0.996078431372549" d="M 125.5 147 L 122.5 151 L 125.5 147 Z " /><path fill="rgb(211,98,99)" stroke="rgb(211,98,99)" stroke-width="1" opacity="0.996078431372549" d="M 78.5 156 L 82 156.5 L 78.5 157 L 78.5 156 Z " /><path fill="rgb(211,98,99)" stroke="rgb(211,98,99)" stroke-width="1" opacity="0.996078431372549" d="M 102.5 156 L 105 156.5 L 102.5 157 L 102.5 156 Z " /><path fill="rgb(211,98,99)" stroke="rgb(211,98,99)" stroke-width="1" opacity="0.996078431372549" d="M 88.5 163 L 93 163.5 L 89 166 L 88.5 163 Z " /><path fill="rgb(211,98,99)" stroke="rgb(211,98,99)" stroke-width="1" opacity="0.996078431372549" d="M 117.5 170 Q 126.7 182.2 129 200 L 126 198.5 L 116.5 176 L 115.5 182 L 115 174.5 L 117.5 170 Z " /><path fill="rgb(211,98,99)" stroke="rgb(211,98,99)" stroke-width="1" opacity="0.996078431372549" d="M 67.5 180 L 68 183.5 L 66 182.5 L 67.5 180 Z " /><path fill="rgb(211,98,99)" stroke="rgb(211,98,99)" stroke-width="1" opacity="0.996078431372549" d="M 62 197 Q 67.6 195.1 66 200 L 62 198.5 L 62 197 Z " /><path fill="rgb(48,105,42)" stroke="rgb(48,105,42)" stroke-width="1" opacity="1" d="M 73.5 49 L 74 51.5 L 73 51.5 L 73.5 49 Z " /><path fill="rgb(48,105,42)" stroke="rgb(48,105,42)" stroke-width="1" opacity="1" d="M 171.5 68 L 172.5 70 L 171.5 68 Z " /><path fill="rgb(48,105,42)" stroke="rgb(48,105,42)" stroke-width="1" opacity="1" d="M 63.5 70 L 62.5 72 L 63.5 70 Z " /><path fill="rgb(48,105,42)" stroke="rgb(48,105,42)" stroke-width="1" opacity="1" d="M 38.5 73 L 37.5 75 L 38.5 73 Z " /><path fill="rgb(48,105,42)" stroke="rgb(48,105,42)" stroke-width="1" opacity="1" d="M 120.5 79 L 121 81.5 L 120 81.5 L 120.5 79 Z " /><path fill="rgb(48,105,42)" stroke="rgb(48,105,42)" stroke-width="1" opacity="1" d="M 125.5 85 L 126 88.5 L 125 88.5 L 125.5 85 Z " /><path fill="rgb(48,105,42)" stroke="rgb(48,105,42)" stroke-width="1" opacity="1" d="M 30.5 88 L 31 91.5 L 30 91.5 L 30.5 88 Z " /><path fill="rgb(48,105,42)" stroke="rgb(48,105,42)" stroke-width="1" opacity="1" d="M 164.5 89 L 163.5 91 L 164.5 89 Z " /><path fill="rgb(48,105,42)" stroke="rgb(48,105,42)" stroke-width="1" opacity="1" d="M 179.5 89 L 182.5 93 L 179.5 89 Z " /><path fill="rgb(48,105,42)" stroke="rgb(48,105,42)" stroke-width="1" opacity="1" d="M 53.5 94 L 54 97.5 L 53 97.5 L 53.5 94 Z " /><path fill="rgb(48,105,42)" stroke="rgb(48,105,42)" stroke-width="1" opacity="1" d="M 73.5 101 L 68.5 107 L 73.5 101 Z " /><path fill="rgb(48,105,42)" stroke="rgb(48,105,42)" stroke-width="1" opacity="1" d="M 149.5 103 L 148.5 105 L 149.5 103 Z " /><path fill="rgb(48,105,42)" stroke="rgb(48,105,42)" stroke-width="1" opacity="1" d="M 90.5 108 L 91.5 110 L 90.5 108 Z " /><path fill="rgb(48,105,42)" stroke="rgb(48,105,42)" stroke-width="1" opacity="1" d="M 108.5 108 L 107.5 110 L 108.5 108 Z " /><path fill="rgb(48,105,42)" stroke="rgb(48,105,42)" stroke-width="1" opacity="1" d="M 52.5 110 L 53.5 112 L 52.5 110 Z " /><path fill="rgb(48,105,42)" stroke="rgb(48,105,42)" stroke-width="1" opacity="1" d="M 97.5 110 L 96.5 112 L 97.5 110 Z " /><path fill="rgb(48,105,42)" stroke="rgb(48,105,42)" stroke-width="1" opacity="1" d="M 132 129 L 140 131.5 Q 138.3 135.5 132 134 L 132 129 Z " /><path fill="rgb(48,105,42)" stroke="rgb(48,105,42)" stroke-width="1" opacity="1" d="M 161.5 133 L 162.5 135 L 161.5 133 Z " /><path fill="rgb(48,105,42)" stroke="rgb(48,105,42)" stroke-width="1" opacity="1" d="M 170.5 144 L 172.5 147 L 170.5 144 Z " /><path fill="rgb(48,105,42)" stroke="rgb(48,105,42)" stroke-width="1" opacity="1" d="M 179.5 152 L 180.5 154 L 179.5 152 Z " /><path fill="rgb(48,105,42)" stroke="rgb(48,105,42)" stroke-width="1" opacity="1" d="M 126.5 154 L 125.5 156 L 126.5 154 Z " /><path fill="rgb(48,105,42)" stroke="rgb(48,105,42)" stroke-width="1" opacity="1" d="M 162 155 Q 165.8 154.3 167 157.5 Q 166.3 159.8 168.5 159 L 172 163.5 Q 170.8 166.3 169.5 164 L 162 158.5 L 162 155 Z " /><path fill="rgb(48,105,42)" stroke="rgb(48,105,42)" stroke-width="1" opacity="1" d="M 61.5 156 L 62.5 158 L 61.5 156 Z " /><path fill="rgb(48,105,42)" stroke="rgb(48,105,42)" stroke-width="1" opacity="1" d="M 39 157 L 42 158.5 Q 40.3 169.7 44 175.5 L 40 177 Q 41 171.8 38 169.5 L 38 159.5 L 39 157 Z " /><path fill="rgb(48,105,42)" stroke="rgb(48,105,42)" stroke-width="1" opacity="1" d="M 64.5 158 L 70 160.5 L 67.5 161 L 64.5 158 Z " /><path fill="rgb(48,105,42)" stroke="rgb(48,105,42)" stroke-width="1" opacity="1" d="M 59.5 160 L 60 162.5 L 59 162.5 L 59.5 160 Z " /><path fill="rgb(48,105,42)" stroke="rgb(48,105,42)" stroke-width="1" opacity="1" d="M 111.5 161 L 112.5 163 L 111.5 161 Z " /><path fill="rgb(48,105,42)" stroke="rgb(48,105,42)" stroke-width="1" opacity="1" d="M 78.5 163 L 76.5 166 L 78.5 163 Z " /><path fill="rgb(48,105,42)" stroke="rgb(48,105,42)" stroke-width="1" opacity="1" d="M 120.5 163 L 121.5 165 L 120.5 163 Z " /><path fill="rgb(48,105,42)" stroke="rgb(48,105,42)" stroke-width="1" opacity="1" d="M 113.5 164 L 112.5 166 L 113.5 164 Z " /><path fill="rgb(48,105,42)" stroke="rgb(48,105,42)" stroke-width="1" opacity="1" d="M 60.5 165 L 61 167.5 L 60 167.5 L 60.5 165 Z " /><path fill="rgb(48,105,42)" stroke="rgb(48,105,42)" stroke-width="1" opacity="1" d="M 68.5 166 L 67.5 168 L 68.5 166 Z " /><path fill="rgb(48,105,42)" stroke="rgb(48,105,42)" stroke-width="1" opacity="1" d="M 95.5 168 L 94 170.5 L 97 174.5 L 93 171.5 L 95.5 168 Z " /><path fill="rgb(48,105,42)" stroke="rgb(48,105,42)" stroke-width="1" opacity="1" d="M 178 168 L 180 168 L 180 172 L 181.5 172 L 183.5 171 L 183.5 172 L 179.5 175 Q 177.1 172.7 178 168 Z " /><path fill="rgb(48,105,42)" stroke="rgb(48,105,42)" stroke-width="1" opacity="1" d="M 66.5 169 L 65.5 171 L 66.5 169 Z " /><path fill="rgb(48,105,42)" stroke="rgb(48,105,42)" stroke-width="1" opacity="1" d="M 80.5 171 L 83.5 173 L 86 171.5 L 82.5 174 L 80.5 171 Z " /><path fill="rgb(48,105,42)" stroke="rgb(48,105,42)" stroke-width="1" opacity="1" d="M 64.5 172 L 63.5 174 L 62 173.5 L 64.5 172 Z " /><path fill="rgb(48,105,42)" stroke="rgb(48,105,42)" stroke-width="1" opacity="1" d="M 187.5 172 L 190 173.5 L 190.5 172 L 191 175 L 187.5 172 Z " /><path fill="rgb(48,105,42)" stroke="rgb(48,105,42)" stroke-width="1" opacity="1" d="M 99.5 174 L 98.5 176 L 99.5 174 Z " /><path fill="rgb(48,105,42)" stroke="rgb(48,105,42)" stroke-width="1" opacity="1" d="M 88.5 175 L 87.5 177 L 88.5 175 Z " /><path fill="rgb(48,105,42)" stroke="rgb(48,105,42)" stroke-width="1" opacity="1" d="M 104.5 176 L 103.5 178 L 104.5 176 Z " /><path fill="rgb(48,105,42)" stroke="rgb(48,105,42)" stroke-width="1" opacity="1" d="M 106.5 176 L 109 176.5 L 106.5 177 L 106.5 176 Z " /><path fill="rgb(48,105,42)" stroke="rgb(48,105,42)" stroke-width="1" opacity="1" d="M 137.5 176 L 139 178.5 L 137 177.5 L 137.5 176 Z " /><path fill="rgb(48,105,42)" stroke="rgb(48,105,42)" stroke-width="1" opacity="1" d="M 78.5 177 L 80.5 180 L 78.5 177 Z " /><path fill="rgb(48,105,42)" stroke="rgb(48,105,42)" stroke-width="1" opacity="1" d="M 90.5 177 L 85.5 183 L 90.5 177 Z " /><path fill="rgb(48,105,42)" stroke="rgb(48,105,42)" stroke-width="1" opacity="1" d="M 85.5 178 L 84.5 180 L 85.5 178 Z " /><path fill="rgb(48,105,42)" stroke="rgb(48,105,42)" stroke-width="1" opacity="1" d="M 95.5 180 L 97 180.5 L 93.5 183 L 95.5 180 Z " /><path fill="rgb(48,105,42)" stroke="rgb(48,105,42)" stroke-width="1" opacity="1" d="M 48.5 183 L 54.5 190 L 57 190.5 L 50.5 192 L 45 184 L 48.5 183 Z " /><path fill="rgb(48,105,42)" stroke="rgb(48,105,42)" stroke-width="1" opacity="1" d="M 91.5 184 L 98.5 192 L 91.5 184 Z " /><path fill="rgb(48,105,42)" stroke="rgb(48,105,42)" stroke-width="1" opacity="1" d="M 82.5 185 L 79.5 189 L 82.5 185 Z " /><path fill="rgb(48,105,42)" stroke="rgb(48,105,42)" stroke-width="1" opacity="1" d="M 84.5 191 L 81.5 195 L 84.5 191 Z " /><path fill="rgb(48,105,42)" stroke="rgb(48,105,42)" stroke-width="1" opacity="1" d="M 145.5 191 L 146.5 193 L 145.5 191 Z " /><path fill="rgb(48,105,42)" stroke="rgb(48,105,42)" stroke-width="1" opacity="1" d="M 77.5 192 L 79 194.5 L 77 193.5 L 77.5 192 Z " /><path fill="rgb(48,105,42)" stroke="rgb(48,105,42)" stroke-width="1" opacity="1" d="M 89.5 192 L 88.5 194 L 89.5 192 Z " /><path fill="rgb(48,105,42)" stroke="rgb(48,105,42)" stroke-width="1" opacity="1" d="M 147.5 194 L 148.5 196 L 147.5 194 Z " /><path fill="rgb(48,105,42)" stroke="rgb(48,105,42)" stroke-width="1" opacity="1" d="M 85.5 196 L 82.5 200 L 85.5 196 Z " /><path fill="rgb(48,105,42)" stroke="rgb(48,105,42)" stroke-width="1" opacity="1" d="M 101.5 197 L 100.5 199 L 98 198.5 L 101.5 197 Z " /><path fill="rgb(48,105,42)" stroke="rgb(48,105,42)" stroke-width="1" opacity="1" d="M 149.5 197 L 150.5 199 L 149.5 197 Z " /><path fill="rgb(86,29,39)" stroke="rgb(86,29,39)" stroke-width="1" opacity="1" d="M 168.5 88 Q 179.3 86.2 182 92.5 L 184 99.5 L 186.5 102 Q 188.8 101.3 188 103.5 L 187 106 L 180 105 L 179 96.5 L 175.5 93 L 171.5 92 L 167.5 93 L 164 96.5 L 162 103 L 154 105 L 151 111.5 L 151 115.5 L 155.5 121 L 162 123.5 Q 162.5 129.1 166.5 131 L 168 131.5 L 165.5 136 L 161 132.5 L 157.5 126 Q 149.6 125 147 118.5 L 147 108.5 L 154.5 99 L 159 96.5 L 164.5 90 L 168.5 88 Z " /><path fill="rgb(86,29,39)" stroke="rgb(86,29,39)" stroke-width="1" opacity="1" d="M 170.5 104 L 174 105.5 Q 170.4 107.4 171 113.5 L 173 116.5 L 172 119 Q 168.2 119.8 167 116.5 L 166 109.5 L 170.5 104 Z " /><path fill="rgb(86,29,39)" stroke="rgb(86,29,39)" stroke-width="1" opacity="1" d="M 186.5 107 L 187.5 109 L 186.5 107 Z " /><path fill="rgb(86,29,39)" stroke="rgb(86,29,39)" stroke-width="1" opacity="1" d="M 38.5 118 L 37.5 120 L 38.5 118 Z " /><path fill="rgb(86,29,39)" stroke="rgb(86,29,39)" stroke-width="1" opacity="1" d="M 32.5 120 L 33 123.5 L 32 123.5 L 32.5 120 Z " /><path fill="rgb(86,29,39)" stroke="rgb(86,29,39)" stroke-width="1" opacity="1" d="M 181.5 121 L 184 121.5 L 181.5 122 L 181.5 121 Z " /><path fill="rgb(86,29,39)" stroke="rgb(86,29,39)" stroke-width="1" opacity="1" d="M 177.5 129 L 176.5 131 L 177.5 129 Z " /><path fill="rgb(86,29,39)" stroke="rgb(86,29,39)" stroke-width="1" opacity="1" d="M 76.5 134 L 77.5 136 Q 74.7 136.7 76.5 134 Z " /><path fill="rgb(86,29,39)" stroke="rgb(86,29,39)" stroke-width="1" opacity="1" d="M 68.5 140 Q 73.3 138.7 72 142 Q 67.8 142.1 68.5 140 Z " /><path fill="rgb(86,29,39)" stroke="rgb(86,29,39)" stroke-width="1" opacity="1" d="M 116 140 L 118 140.5 L 116 141.5 L 116 140 Z " /><path fill="rgb(86,29,39)" stroke="rgb(86,29,39)" stroke-width="1" opacity="1" d="M 82.5 157 L 88 157.5 L 82.5 158 L 82.5 157 Z " /><path fill="rgb(86,29,39)" stroke="rgb(86,29,39)" stroke-width="1" opacity="1" d="M 90.5 157 L 102 157.5 L 90.5 158 L 90.5 157 Z " /><path fill="rgb(52,132,37)" stroke="rgb(52,132,37)" stroke-width="1" opacity="1" d="M 79.5 92 L 80 96.5 L 79 96.5 L 78 93.5 L 79.5 92 Z " /><path fill="rgb(52,132,37)" stroke="rgb(52,132,37)" stroke-width="1" opacity="1" d="M 114.5 101 L 113.5 103 L 114.5 101 Z " /><path fill="rgb(52,132,37)" stroke="rgb(52,132,37)" stroke-width="1" opacity="1" d="M 130.5 104 L 138.5 113 L 130.5 104 Z " /><path fill="rgb(52,132,37)" stroke="rgb(52,132,37)" stroke-width="1" opacity="1" d="M 111.5 105 L 109.5 108 L 111.5 105 Z " /><path fill="rgb(52,132,37)" stroke="rgb(52,132,37)" stroke-width="1" opacity="1" d="M 67.5 107 L 65.5 110 L 67.5 107 Z " /><path fill="rgb(52,132,37)" stroke="rgb(52,132,37)" stroke-width="1" opacity="1" d="M 83.5 108 L 81.5 111 L 83.5 108 Z " /><path fill="rgb(52,132,37)" stroke="rgb(52,132,37)" stroke-width="1" opacity="1" d="M 107.5 111 L 110.5 115 L 107.5 111 Z " /><path fill="rgb(52,132,37)" stroke="rgb(52,132,37)" stroke-width="1" opacity="1" d="M 78.5 112 L 77.5 114 L 78.5 112 Z " /><path fill="rgb(52,132,37)" stroke="rgb(52,132,37)" stroke-width="1" opacity="1" d="M 121.5 121 L 122.5 123 L 121.5 121 Z " /><path fill="rgb(52,132,37)" stroke="rgb(52,132,37)" stroke-width="1" opacity="1" d="M 132.5 128 L 137 129.5 L 134.5 130 L 132.5 128 Z " /><path fill="rgb(52,132,37)" stroke="rgb(52,132,37)" stroke-width="1" opacity="1" d="M 138.5 130 L 141 131.5 L 138.5 135 L 134 134.5 Q 138.7 134.7 140 131.5 L 138.5 130 Z " /><path fill="rgb(52,132,37)" stroke="rgb(52,132,37)" stroke-width="1" opacity="1" d="M 168.5 142 L 169.5 144 L 168.5 142 Z " /><path fill="rgb(52,132,37)" stroke="rgb(52,132,37)" stroke-width="1" opacity="1" d="M 173.5 147 L 175.5 150 L 173.5 147 Z " /><path fill="rgb(52,132,37)" stroke="rgb(52,132,37)" stroke-width="1" opacity="1" d="M 52.5 153 L 53 156.5 L 52 156.5 L 52.5 153 Z " /><path fill="rgb(52,132,37)" stroke="rgb(52,132,37)" stroke-width="1" opacity="1" d="M 127.5 154 Q 130.1 153.2 129 156.5 Q 136.3 181.7 151 199.5 L 136.5 200 L 135 198.5 L 134 191.5 L 129 177.5 L 118 159 L 127.5 154 Z " /><path fill="rgb(52,132,37)" stroke="rgb(52,132,37)" stroke-width="1" opacity="1" d="M 59.5 155 Q 63.1 160.8 71 161 L 71 163.5 L 63.5 173 Q 60.9 173.8 62 170.5 L 59 159.5 L 59.5 155 Z " /><path fill="rgb(52,132,37)" stroke="rgb(52,132,37)" stroke-width="1" opacity="1" d="M 161.5 155 L 162 157.5 L 161 157.5 L 161.5 155 Z " /><path fill="rgb(52,132,37)" stroke="rgb(52,132,37)" stroke-width="1" opacity="1" d="M 40.5 156 L 41.5 158 L 40.5 156 Z " /><path fill="rgb(52,132,37)" stroke="rgb(52,132,37)" stroke-width="1" opacity="1" d="M 38.5 157 L 39 158.5 L 38 159.5 L 37.5 169 L 37 159.5 L 38.5 157 Z " /><path fill="rgb(52,132,37)" stroke="rgb(52,132,37)" stroke-width="1" opacity="1" d="M 162.5 159 L 165.5 163 L 162.5 159 Z " /><path fill="rgb(52,132,37)" stroke="rgb(52,132,37)" stroke-width="1" opacity="1" d="M 169.5 159 L 173 163.5 L 171 164.5 L 172 162.5 L 169.5 159 Z " /><path fill="rgb(52,132,37)" stroke="rgb(52,132,37)" stroke-width="1" opacity="1" d="M 53.5 161 L 54 163.5 L 53 163.5 L 53.5 161 Z " /><path fill="rgb(52,132,37)" stroke="rgb(52,132,37)" stroke-width="1" opacity="1" d="M 167.5 163 L 170 164.5 L 168.5 165 L 167.5 163 Z " /><path fill="rgb(52,132,37)" stroke="rgb(52,132,37)" stroke-width="1" opacity="1" d="M 42.5 168 L 43 170.5 L 42 170.5 L 42.5 168 Z " /><path fill="rgb(52,132,37)" stroke="rgb(52,132,37)" stroke-width="1" opacity="1" d="M 180.5 168 L 184 170.5 L 180 172 L 180.5 168 Z " /><path fill="rgb(52,132,37)" stroke="rgb(52,132,37)" stroke-width="1" opacity="1" d="M 177.5 169 L 178 171.5 L 177 171.5 L 177.5 169 Z " /><path fill="rgb(52,132,37)" stroke="rgb(52,132,37)" stroke-width="1" opacity="1" d="M 38.5 170 Q 40.9 172.3 40 177 L 43.5 176 L 44 177.5 L 41.5 179 Q 36.5 176.7 38.5 170 Z " /><path fill="rgb(52,132,37)" stroke="rgb(52,132,37)" stroke-width="1" opacity="1" d="M 46.5 181 L 48 184 Q 44.2 182.5 45 185.5 L 50.5 192 Q 54.3 190.8 53 194.5 L 46 188.5 L 44 183.5 L 46.5 181 Z " /><path fill="rgb(52,132,37)" stroke="rgb(52,132,37)" stroke-width="1" opacity="1" d="M 49.5 184 L 54.5 190 L 49.5 184 Z " /><path fill="rgb(52,132,37)" stroke="rgb(52,132,37)" stroke-width="1" opacity="1" d="M 61.5 185 L 62.5 187 L 61.5 185 Z " /><path fill="rgb(52,132,37)" stroke="rgb(52,132,37)" stroke-width="1" opacity="1" d="M 54.5 198 L 55.5 200 L 54.5 198 Z " /><path fill="rgb(147,236,77)" stroke="rgb(147,236,77)" stroke-width="1" opacity="1" d="M 121 76 Q 124.8 75 126 77.5 L 125 92 Q 121.2 93 120 90.5 L 121 76 Z " /><path fill="rgb(147,236,77)" stroke="rgb(147,236,77)" stroke-width="1" opacity="1" d="M 50.5 109 L 52 112 L 56 113 L 51 124.5 L 48 135.5 Q 49.2 140.3 47 141.5 L 47 159.5 L 49 169.5 L 53 179.5 L 60.5 189 L 63 190.5 L 59.5 191 L 52 186.5 L 45 176.5 Q 41.4 169.6 43 157.5 L 41.5 156 Q 37.8 155.3 37 157.5 L 37 178.5 L 40 190.5 L 45 199.5 L 38.5 200 L 34 194.5 Q 35.2 189.8 33 188.5 Q 34.8 182.2 32 180.5 L 32 158.5 L 35 143.5 L 39 133.5 L 39 129.5 L 50.5 109 Z " /><path fill="rgb(147,236,77)" stroke="rgb(147,236,77)" stroke-width="1" opacity="1" d="M 132.5 137 L 137.5 141 L 148.5 146 L 164.5 150 L 175.5 150 L 180 153.5 Q 188.4 160.1 190 173.5 L 185.5 170 L 178.5 167 L 176 170.5 Q 181.3 177.8 179 192.5 L 175.5 200 L 166.5 200 L 158 191.5 L 144 169.5 L 136 148.5 L 135 140.5 L 133.5 139 Q 130.7 139.7 132.5 137 Z M 161 154 L 160 157 L 162 161 Q 165 165 172 166 Q 174 165 173 162 L 165 154 L 161 154 Z " /><path fill="rgb(147,236,77)" stroke="rgb(147,236,77)" stroke-width="1" opacity="1" d="M 109.5 161 L 112 162.5 Q 112.8 167.3 109.5 168 L 107 169.5 L 106.5 171 L 101.5 170 L 98.5 175 L 94 171.5 L 96.5 168 L 105.5 162 L 109.5 161 Z " /><path fill="rgb(147,236,77)" stroke="rgb(147,236,77)" stroke-width="1" opacity="1" d="M 80.5 163 Q 84.3 165.7 85 171.5 L 82 173 L 81.5 171 L 75 171 L 75 168.5 L 78.5 164 L 80.5 163 Z " /></svg>