<svg width="200" height="200" version="1.1" xmlns="http://www.w3.org/2000/svg" desc="Created with imagetracer.js version 1.2.6" ><path fill="rgb(0,0,0)" stroke="rgb(0,0,0)" stroke-width="1" opacity="0.058823529411764705" d="M 90.5 45 L 97 45.5 L 90.5 46 L 78.5 50 L 78.5 49 L 90.5 45 Z " /><path fill="rgb(0,0,0)" stroke="rgb(0,0,0)" stroke-width="1" opacity="0.058823529411764705" d="M 112.5 45 L 117 45.5 L 112.5 46 L 112.5 45 Z " /><path fill="rgb(0,0,0)" stroke="rgb(0,0,0)" stroke-width="1" opacity="0.058823529411764705" d="M 118.5 46 L 127.5 48 L 139.5 57 L 142.5 57 L 154.5 63 L 169 75.5 Q 176.8 83.7 181 95.5 L 180 95.5 Q 174 80 162.5 70 L 154.5 64 L 142.5 58 L 139.5 58 L 132.5 52 Q 127.3 47.7 118.5 47 L 118.5 46 Z " /><path fill="rgb(0,0,0)" stroke="rgb(0,0,0)" stroke-width="1" opacity="0.058823529411764705" d="M 68.5 54 L 66.5 57 L 57 65.5 L 49 81.5 L 42.5 89 L 36.5 93 L 38.5 90 L 44 87 L 48 81.5 L 55 66.5 L 66.5 55 L 68.5 54 Z " /><path fill="rgb(0,0,0)" stroke="rgb(0,0,0)" stroke-width="1" opacity="0.058823529411764705" d="M 34.5 93 L 31.5 97 L 23 104.5 L 18.5 114 L 18 111.5 Q 22.7 101.2 31.5 95 L 34.5 93 Z " /><path fill="rgb(0,0,0)" stroke="rgb(0,0,0)" stroke-width="1" opacity="0.058823529411764705" d="M 182.5 100 L 183 102.5 L 182 102.5 L 182.5 100 Z " /><path fill="rgb(0,0,0)" stroke="rgb(0,0,0)" stroke-width="1" opacity="0.058823529411764705" d="M 183.5 104 L 184 119.5 L 183 119.5 L 183.5 104 Z " /><path fill="rgb(0,0,0)" stroke="rgb(0,0,0)" stroke-width="1" opacity="0.058823529411764705" d="M 17.5 116 L 18 120.5 L 17 120.5 L 17.5 116 Z " /><path fill="rgb(0,0,0)" stroke="rgb(0,0,0)" stroke-width="1" opacity="0.058823529411764705" d="M 182.5 121 L 183 123.5 L 182 123.5 L 182.5 121 Z " /><path fill="rgb(0,0,0)" stroke="rgb(0,0,0)" stroke-width="1" opacity="0.058823529411764705" d="M 18.5 122 L 19 126.5 L 18 126.5 L 18.5 122 Z " /><path fill="rgb(0,0,0)" stroke="rgb(0,0,0)" stroke-width="1" opacity="0.058823529411764705" d="M 181.5 125 L 182 126.5 L 176.5 138 L 176 136.5 L 181.5 125 Z " /><path fill="rgb(0,0,0)" stroke="rgb(0,0,0)" stroke-width="1" opacity="0.058823529411764705" d="M 19.5 128 L 23 137.5 L 31 150.5 L 30 150.5 L 20 133.5 L 19.5 128 Z " /><path fill="rgb(0,0,0)" stroke="rgb(0,0,0)" stroke-width="1" opacity="0.058823529411764705" d="M 175.5 139 L 176 141.5 L 174.5 145 L 174 141.5 L 175.5 139 Z " /><path fill="rgb(0,0,0)" stroke="rgb(0,0,0)" stroke-width="1" opacity="0.058823529411764705" d="M 174.5 148 L 176 154.5 L 184 167.5 L 186 176.5 L 185 176.5 L 184 170.5 L 175 154.5 L 174.5 148 Z " /><path fill="rgb(0,0,0)" stroke="rgb(0,0,0)" stroke-width="1" opacity="0.058823529411764705" d="M 31.5 152 L 32 154.5 L 31 154.5 L 31.5 152 Z " /><path fill="rgb(0,0,0)" stroke="rgb(0,0,0)" stroke-width="1" opacity="0.058823529411764705" d="M 30.5 156 L 31 157.5 Q 23.4 163.4 21.5 175 L 21 170.5 L 30.5 156 Z " /><path fill="rgb(0,0,0)" stroke="rgb(0,0,0)" stroke-width="1" opacity="0.058823529411764705" d="M 21.5 177 Q 21.5 185 25 189.5 L 24 189.5 Q 19.7 185 21.5 177 Z " /><path fill="rgb(0,0,0)" stroke="rgb(0,0,0)" stroke-width="1" opacity="0.058823529411764705" d="M 186.5 178 L 187 185.5 L 186 185.5 L 186.5 178 Z " /><path fill="rgb(0,0,0)" stroke="rgb(0,0,0)" stroke-width="1" opacity="0.058823529411764705" d="M 185.5 187 L 186 189.5 L 184.5 192 L 184 190.5 L 185.5 187 Z " /><path fill="rgb(0,0,0)" stroke="rgb(0,0,0)" stroke-width="1" opacity="0.058823529411764705" d="M 26.5 190 L 27 193 L 35 199.5 L 33.5 200 L 28.5 194 L 26 192.5 L 26.5 190 Z " /><path fill="rgb(0,0,0)" stroke="rgb(0,0,0)" stroke-width="1" opacity="0.058823529411764705" d="M 183.5 193 L 183 194.5 L 179.5 200 L 180 198.5 L 183.5 193 Z " /><path fill="rgb(0,0,0)" stroke="rgb(0,0,0)" stroke-width="1" opacity="0" d="M 0 0 L 200 0 L 200 200 L 180 199.5 Q 187.6 193.1 187 178.5 L 184 167.5 L 176 154.5 L 174 145.5 L 184 119.5 L 184 104.5 Q 177.7 80.3 160.5 67 L 142.5 57 L 139.5 57 Q 133 49 121.5 46 L 116.5 45 L 90.5 45 L 76.5 50 L 75 49.5 Q 75.8 51.8 73.5 51 Q 61.9 56.4 55 66.5 L 48 81.5 L 44 87 Q 31.1 93.4 22 104.5 Q 16.7 109.7 17 120.5 L 20 133.5 L 29 147.5 Q 31.7 149.8 31 155.5 L 21 170.5 L 21 182.5 L 24 190 Q 27 188.8 26 192.5 L 32 197.5 L 33 199.5 L 0 200 L 0 0 Z " /><path fill="rgb(254,252,245)" stroke="rgb(254,252,245)" stroke-width="1" opacity="1" d="M 92.5 53 L 114.5 53 L 127 57.5 Q 126.5 60.5 122.5 60 L 121.5 59 L 111.5 59 L 110.5 60 L 102.5 60 L 93.5 63 Q 84.8 67.3 79 74.5 Q 79.7 77.1 77 76 Q 76 68.5 79 65 Q 68.5 67.6 63 76.5 Q 59.4 90.4 49.5 98 L 35.5 106 L 30 111.5 L 28.5 114 Q 26.3 114.8 27 112.5 L 38.5 100 Q 49.3 95.8 55 86.5 Q 59.8 69.8 72.5 61 L 84.5 55 L 92.5 53 Z " /><path fill="rgb(254,252,245)" stroke="rgb(254,252,245)" stroke-width="1" opacity="1" d="M 148.5 71 L 151.5 71 L 159 77.5 L 157.5 77 L 149.5 73 L 148.5 71 Z " /><path fill="rgb(254,252,245)" stroke="rgb(254,252,245)" stroke-width="1" opacity="1" d="M 67 123 Q 76.2 121.4 79 127.5 L 80 131.5 L 78.5 133 L 70.5 133 L 67 129.5 L 66 125.5 L 67 123 Z " /><path fill="rgb(254,252,245)" stroke="rgb(254,252,245)" stroke-width="1" opacity="1" d="M 149.5 123 Q 152.8 121.9 152 124.5 Q 150.6 127.6 145.5 127 L 147.5 124 L 149.5 123 Z " /><path fill="rgb(254,252,245)" stroke="rgb(254,252,245)" stroke-width="1" opacity="1" d="M 120.5 124 Q 125.9 123.4 128 125 Q 128.4 130.7 124.5 133 Q 121 135.5 113.5 134 L 112 130.5 L 115.5 126 L 120.5 124 Z " /><path fill="rgb(254,252,245)" stroke="rgb(254,252,245)" stroke-width="1" opacity="1" d="M 57.5 128 L 58 129.5 Q 55.7 130.8 57 135.5 L 60.5 141 L 63 142.5 L 61.5 143 L 55 138.5 L 54 133.5 L 57.5 128 Z " /><path fill="rgb(251,242,214)" stroke="rgb(251,242,214)" stroke-width="1" opacity="1" d="M 126.5 58 L 125.5 60 L 126.5 58 Z " /><path fill="rgb(251,242,214)" stroke="rgb(251,242,214)" stroke-width="1" opacity="1" d="M 111.5 59 L 121.5 59 L 123 60.5 L 111 75.5 L 114.5 77 L 127 77 L 127 79.5 L 121 89.5 L 120 97 L 135.5 86 Q 139.5 83 146.5 83 L 150 80.5 L 147.5 77 L 143 74.5 L 147.5 71 L 159.5 78 L 164 82.5 L 173 96.5 L 174 104.5 L 171.5 111 Q 168.6 102.4 162.5 97 L 158.5 96 Q 156 97 157 101.5 Q 165.3 107.2 166 120.5 L 164.5 123 L 159.5 117 Q 155.5 113.5 146.5 115 L 144.5 115 L 138.5 114 L 126 106.5 L 120.5 99 Q 116.5 98.5 116 101.5 L 116 105 L 110 105 Q 111.6 102.9 111 97.5 Q 109.5 91 104.5 88 L 100.5 87 L 98 88 L 98 93.5 L 99.5 94 Q 103.9 95.6 103 102.5 Q 101.8 105 98 104 Q 97.9 98.4 93.5 96 L 86.5 93 L 81.5 93 L 70.5 98 L 53.5 113 L 39.5 118 L 35.5 118 L 36 116.5 L 40.5 111 L 46 107.5 Q 46.8 103.8 44.5 103 L 41 102.5 Q 50.5 99 56 91.5 L 63 76.5 L 71.5 68 L 80.5 64 L 80.5 65 Q 78.3 64.3 79 66.5 Q 75.6 69.3 77 76 Q 79.7 77.1 79 74.5 Q 84.8 67.3 93.5 63 L 102.5 60 L 110.5 60 L 111.5 59 Z " /><path fill="rgb(251,242,214)" stroke="rgb(251,242,214)" stroke-width="1" opacity="1" d="M 35.5 106 L 30.5 112 L 35.5 106 Z " /><path fill="rgb(251,242,214)" stroke="rgb(251,242,214)" stroke-width="1" opacity="1" d="M 29.5 113 L 29 114.5 L 28.5 116 L 27.5 114 L 29.5 113 Z " /><path fill="rgb(251,242,214)" stroke="rgb(251,242,214)" stroke-width="1" opacity="1" d="M 152.5 123 L 153 124.5 L 149.5 127 L 149.5 126 L 152 124.5 L 152.5 123 Z " /><path fill="rgb(251,242,214)" stroke="rgb(251,242,214)" stroke-width="1" opacity="1" d="M 144.5 127 L 148 127.5 L 144.5 128 L 144.5 127 Z " /><path fill="rgb(251,242,214)" stroke="rgb(251,242,214)" stroke-width="1" opacity="1" d="M 58.5 128 L 59 129.5 L 57.5 136 L 57 130.5 L 58.5 128 Z " /><path fill="rgb(251,242,214)" stroke="rgb(251,242,214)" stroke-width="1" opacity="1" d="M 73.5 133 L 76 133.5 L 73.5 134 L 73.5 133 Z " /><path fill="rgb(251,242,214)" stroke="rgb(251,242,214)" stroke-width="1" opacity="1" d="M 59.5 139 L 60.5 141 L 59.5 139 Z " /><path fill="rgb(251,242,214)" stroke="rgb(251,242,214)" stroke-width="1" opacity="1" d="M 62.5 141 L 63.5 143 L 62.5 141 Z " /><path fill="rgb(236,232,223)" stroke="rgb(236,232,223)" stroke-width="1" opacity="1" d="M 102.5 52 L 110 52.5 L 102.5 53 L 102.5 52 Z " /><path fill="rgb(236,232,223)" stroke="rgb(236,232,223)" stroke-width="1" opacity="1" d="M 69.5 63 L 63.5 70 L 69.5 63 Z " /><path fill="rgb(236,232,223)" stroke="rgb(236,232,223)" stroke-width="1" opacity="1" d="M 158.5 76 L 159.5 78 L 158.5 76 Z " /><path fill="rgb(236,232,223)" stroke="rgb(236,232,223)" stroke-width="1" opacity="1" d="M 54.5 86 L 53.5 88 L 54.5 86 Z " /><path fill="rgb(236,232,223)" stroke="rgb(236,232,223)" stroke-width="1" opacity="1" d="M 45.5 95 L 44.5 97 L 45.5 95 Z " /><path fill="rgb(236,232,223)" stroke="rgb(236,232,223)" stroke-width="1" opacity="1" d="M 42.5 97 L 41.5 99 L 42.5 97 Z " /><path fill="rgb(236,232,223)" stroke="rgb(236,232,223)" stroke-width="1" opacity="1" d="M 34.5 103 L 29.5 109 L 34.5 103 Z " /><path fill="rgb(236,232,223)" stroke="rgb(236,232,223)" stroke-width="1" opacity="1" d="M 26.5 113 L 28 115.5 L 26 114.5 L 26.5 113 Z " /><path fill="rgb(236,232,223)" stroke="rgb(236,232,223)" stroke-width="1" opacity="1" d="M 56.5 129 L 55.5 131 L 56.5 129 Z " /><path fill="rgb(194,166,102)" stroke="rgb(194,166,102)" stroke-width="1" opacity="0.996078431372549" d="M 94.5 52 L 97 52.5 L 94.5 53 L 94.5 52 Z " /><path fill="rgb(194,166,102)" stroke="rgb(194,166,102)" stroke-width="1" opacity="0.996078431372549" d="M 129.5 58 L 130.5 60 L 129.5 58 Z " /><path fill="rgb(194,166,102)" stroke="rgb(194,166,102)" stroke-width="1" opacity="0.996078431372549" d="M 68.5 63 L 64.5 68 L 68.5 63 Z " /><path fill="rgb(194,166,102)" stroke="rgb(194,166,102)" stroke-width="1" opacity="0.996078431372549" d="M 154.5 72 L 155.5 74 L 154.5 72 Z " /><path fill="rgb(194,166,102)" stroke="rgb(194,166,102)" stroke-width="1" opacity="0.996078431372549" d="M 163.5 81 L 165.5 84 L 163.5 81 Z " /><path fill="rgb(194,166,102)" stroke="rgb(194,166,102)" stroke-width="1" opacity="0.996078431372549" d="M 100.5 88 Q 106.1 88.5 108 92.5 Q 110.7 95.8 110 102.5 L 107.5 106 L 104 106 L 104 98.5 L 99 92.5 L 99 89.5 L 100.5 88 Z " /><path fill="rgb(194,166,102)" stroke="rgb(194,166,102)" stroke-width="1" opacity="0.996078431372549" d="M 44.5 95 L 43.5 97 L 44.5 95 Z " /><path fill="rgb(194,166,102)" stroke="rgb(194,166,102)" stroke-width="1" opacity="0.996078431372549" d="M 74.5 96 L 73.5 98 L 74.5 96 Z " /><path fill="rgb(194,166,102)" stroke="rgb(194,166,102)" stroke-width="1" opacity="0.996078431372549" d="M 159.5 97 L 167 103.5 L 172 115.5 L 172 124.5 L 171 127 L 168.5 128 Q 165.3 127.3 166 122.5 L 167 117.5 L 165 110.5 L 159 102.5 L 158 98.5 L 159.5 97 Z " /><path fill="rgb(194,166,102)" stroke="rgb(194,166,102)" stroke-width="1" opacity="0.996078431372549" d="M 118.5 100 Q 122.5 99.5 123 102.5 L 128.5 110 Q 135.1 114.9 145 116.5 L 139.5 122 L 138.5 121 Q 126.1 117.9 119 109.5 Q 116 107.5 117 101.5 L 118.5 100 Z " /><path fill="rgb(194,166,102)" stroke="rgb(194,166,102)" stroke-width="1" opacity="0.996078431372549" d="M 68.5 102 L 65.5 106 L 68.5 102 Z " /><path fill="rgb(194,166,102)" stroke="rgb(194,166,102)" stroke-width="1" opacity="0.996078431372549" d="M 78.5 102 L 72.5 109 L 78.5 102 Z " /><path fill="rgb(194,166,102)" stroke="rgb(194,166,102)" stroke-width="1" opacity="0.996078431372549" d="M 88.5 102 L 91.5 106 L 88.5 102 Z " /><path fill="rgb(194,166,102)" stroke="rgb(194,166,102)" stroke-width="1" opacity="0.996078431372549" d="M 96.5 103 L 97 104.5 L 95 105.5 L 96.5 103 Z " /><path fill="rgb(194,166,102)" stroke="rgb(194,166,102)" stroke-width="1" opacity="0.996078431372549" d="M 32.5 104 L 29.5 108 L 32.5 104 Z " /><path fill="rgb(194,166,102)" stroke="rgb(194,166,102)" stroke-width="1" opacity="0.996078431372549" d="M 40.5 104 Q 44.3 103.3 45 105.5 L 42.5 109 L 35 115.5 L 34 123.5 L 32.5 125 L 29 122.5 Q 29.1 110.1 37.5 106 L 40.5 104 Z " /><path fill="rgb(194,166,102)" stroke="rgb(194,166,102)" stroke-width="1" opacity="0.996078431372549" d="M 63.5 108 L 59.5 113 L 63.5 108 Z " /><path fill="rgb(194,166,102)" stroke="rgb(194,166,102)" stroke-width="1" opacity="0.996078431372549" d="M 71.5 110 L 68.5 114 L 71.5 110 Z " /><path fill="rgb(194,166,102)" stroke="rgb(194,166,102)" stroke-width="1" opacity="0.996078431372549" d="M 57.5 113 L 56.5 115 L 57.5 113 Z " /><path fill="rgb(194,166,102)" stroke="rgb(194,166,102)" stroke-width="1" opacity="0.996078431372549" d="M 148.5 115 L 154 115.5 L 148.5 116 L 148.5 115 Z " /><path fill="rgb(194,166,102)" stroke="rgb(194,166,102)" stroke-width="1" opacity="0.996078431372549" d="M 42.5 119 L 44 119.5 L 41.5 121 L 42.5 119 Z " /><path fill="rgb(194,166,102)" stroke="rgb(194,166,102)" stroke-width="1" opacity="0.996078431372549" d="M 25.5 121 L 26 123.5 L 25 123.5 L 25.5 121 Z " /><path fill="rgb(194,166,102)" stroke="rgb(194,166,102)" stroke-width="1" opacity="0.996078431372549" d="M 59.5 121 L 58.5 123 L 59.5 121 Z " /><path fill="rgb(194,166,102)" stroke="rgb(194,166,102)" stroke-width="1" opacity="0.996078431372549" d="M 40.5 122 L 42.5 126 Q 49.5 124.5 49 127.5 Q 45.1 130.1 46 137.5 L 52.5 147 L 67.5 153 L 78 154 L 78 156.5 L 68 175.5 L 62 200 L 47.5 200 L 36 190.5 L 38 181.5 L 48 166.5 L 49 158.5 L 39 142.5 L 38 131.5 L 40.5 122 Z " /><path fill="rgb(194,166,102)" stroke="rgb(194,166,102)" stroke-width="1" opacity="0.996078431372549" d="M 149.5 122 L 153 122.5 L 149.5 123 L 149.5 122 Z " /><path fill="rgb(194,166,102)" stroke="rgb(194,166,102)" stroke-width="1" opacity="0.996078431372549" d="M 164.5 127 L 165 130.5 L 164 130.5 L 164.5 127 Z " /><path fill="rgb(194,166,102)" stroke="rgb(194,166,102)" stroke-width="1" opacity="0.996078431372549" d="M 29.5 134 L 30.5 136 L 29.5 134 Z " /><path fill="rgb(194,166,102)" stroke="rgb(194,166,102)" stroke-width="1" opacity="0.996078431372549" d="M 162.5 136 L 161.5 138 L 162.5 136 Z " /><path fill="rgb(194,166,102)" stroke="rgb(194,166,102)" stroke-width="1" opacity="0.996078431372549" d="M 142.5 137 L 150 137.5 L 142.5 138 L 142.5 137 Z " /><path fill="rgb(194,166,102)" stroke="rgb(194,166,102)" stroke-width="1" opacity="0.996078431372549" d="M 32.5 139 L 33.5 141 L 32.5 139 Z " /><path fill="rgb(194,166,102)" stroke="rgb(194,166,102)" stroke-width="1" opacity="0.996078431372549" d="M 158.5 140 L 156 143.5 L 154 151.5 Q 155.8 160.8 162.5 165 L 170 170.5 Q 174.5 175 174 184.5 L 171 194.5 L 172.5 195 L 175 193.5 L 167.5 200 L 143 200 L 143 191.5 L 138 174.5 L 125 152.5 L 133.5 150 L 142.5 145 L 153.5 144 L 158.5 140 Z " /><path fill="rgb(194,166,102)" stroke="rgb(194,166,102)" stroke-width="1" opacity="0.996078431372549" d="M 34.5 142 L 35.5 144 L 34.5 142 Z " /><path fill="rgb(194,166,102)" stroke="rgb(194,166,102)" stroke-width="1" opacity="0.996078431372549" d="M 166.5 144 L 167 147.5 L 166 147.5 L 166.5 144 Z " /><path fill="rgb(194,166,102)" stroke="rgb(194,166,102)" stroke-width="1" opacity="0.996078431372549" d="M 120.5 145 L 123 145.5 L 120.5 146 L 120.5 145 Z " /><path fill="rgb(194,166,102)" stroke="rgb(194,166,102)" stroke-width="1" opacity="0.996078431372549" d="M 111.5 146 L 115 146.5 L 111.5 147 L 111.5 146 Z " /><path fill="rgb(194,166,102)" stroke="rgb(194,166,102)" stroke-width="1" opacity="0.996078431372549" d="M 82.5 147 L 88 147.5 L 82.5 148 L 82.5 147 Z " /><path fill="rgb(194,166,102)" stroke="rgb(194,166,102)" stroke-width="1" opacity="0.996078431372549" d="M 89.5 147 L 102 147.5 L 89.5 148 L 89.5 147 Z " /><path fill="rgb(194,166,102)" stroke="rgb(194,166,102)" stroke-width="1" opacity="0.996078431372549" d="M 113.5 154 Q 118 153 119 155.5 L 121 158.5 L 112.5 161 L 107 161 L 108 163.5 L 106 162.5 L 113.5 154 Z " /><path fill="rgb(194,166,102)" stroke="rgb(194,166,102)" stroke-width="1" opacity="0.996078431372549" d="M 87.5 155 L 89.5 155 L 94 159.5 L 89.5 161 L 84.5 160 L 83 160.5 L 87.5 155 Z " /><path fill="rgb(194,166,102)" stroke="rgb(194,166,102)" stroke-width="1" opacity="0.996078431372549" d="M 36.5 161 L 35.5 163 L 36.5 161 Z " /><path fill="rgb(194,166,102)" stroke="rgb(194,166,102)" stroke-width="1" opacity="0.996078431372549" d="M 82.5 162 L 86 166.5 L 84 167.5 L 85 165.5 L 82 164 L 77 178.5 L 77 182.5 L 78 185.5 L 77 185.5 L 75.5 182 Q 73.3 182.8 74 180.5 L 82.5 162 Z " /><path fill="rgb(194,166,102)" stroke="rgb(194,166,102)" stroke-width="1" opacity="0.996078431372549" d="M 94.5 162 L 91.5 166 L 94.5 162 Z " /><path fill="rgb(194,166,102)" stroke="rgb(194,166,102)" stroke-width="1" opacity="0.996078431372549" d="M 119.5 163 L 118.5 165 L 119.5 163 Z " /><path fill="rgb(194,166,102)" stroke="rgb(194,166,102)" stroke-width="1" opacity="0.996078431372549" d="M 34.5 164 L 32.5 167 L 34.5 164 Z " /><path fill="rgb(194,166,102)" stroke="rgb(194,166,102)" stroke-width="1" opacity="0.996078431372549" d="M 100.5 164 L 99.5 166 L 100.5 164 Z " /><path fill="rgb(194,166,102)" stroke="rgb(194,166,102)" stroke-width="1" opacity="0.996078431372549" d="M 89.5 167 L 88.5 169 L 89.5 167 Z " /><path fill="rgb(194,166,102)" stroke="rgb(194,166,102)" stroke-width="1" opacity="0.996078431372549" d="M 98.5 167 L 96.5 170 L 98.5 167 Z " /><path fill="rgb(194,166,102)" stroke="rgb(194,166,102)" stroke-width="1" opacity="0.996078431372549" d="M 101.5 167 L 105 169.5 L 103.5 170 L 101.5 167 Z " /><path fill="rgb(194,166,102)" stroke="rgb(194,166,102)" stroke-width="1" opacity="0.996078431372549" d="M 112.5 169 L 111.5 171 L 112.5 169 Z " /><path fill="rgb(194,166,102)" stroke="rgb(194,166,102)" stroke-width="1" opacity="0.996078431372549" d="M 110.5 172 L 109.5 174 L 110.5 172 Z " /><path fill="rgb(194,166,102)" stroke="rgb(194,166,102)" stroke-width="1" opacity="0.996078431372549" d="M 84.5 173 L 85.5 175 L 84.5 173 Z " /><path fill="rgb(194,166,102)" stroke="rgb(194,166,102)" stroke-width="1" opacity="0.996078431372549" d="M 28.5 174 L 29 178.5 L 28 178.5 L 28.5 174 Z " /><path fill="rgb(194,166,102)" stroke="rgb(194,166,102)" stroke-width="1" opacity="0.996078431372549" d="M 108.5 175 L 108.5 178 Q 105.5 176.5 108.5 175 Z " /><path fill="rgb(194,166,102)" stroke="rgb(194,166,102)" stroke-width="1" opacity="0.996078431372549" d="M 99 176 L 101 176.5 L 99 177.5 L 99 176 Z " /><path fill="rgb(194,166,102)" stroke="rgb(194,166,102)" stroke-width="1" opacity="0.996078431372549" d="M 85.5 179 L 86 197.5 L 87 200 L 83 199.5 L 83 187.5 L 85.5 179 Z " /><path fill="rgb(194,166,102)" stroke="rgb(194,166,102)" stroke-width="1" opacity="0.996078431372549" d="M 129.5 183 Q 133.9 181.5 133 184.5 L 136 193.5 L 136 200 L 130.5 200 L 130 198.5 L 131 197.5 L 131 184 L 129.5 183 Z " /><path fill="rgb(194,166,102)" stroke="rgb(194,166,102)" stroke-width="1" opacity="0.996078431372549" d="M 75.5 193 L 76 196.5 L 75 196.5 L 75.5 193 Z " /><path fill="rgb(194,166,102)" stroke="rgb(194,166,102)" stroke-width="1" opacity="0.996078431372549" d="M 123.5 197 L 124 199.5 L 123 199.5 L 123.5 197 Z " /><path fill="rgb(249,226,196)" stroke="rgb(249,226,196)" stroke-width="1" opacity="1" d="M 123.5 60 L 120.5 64 L 123.5 60 Z " /><path fill="rgb(249,226,196)" stroke="rgb(249,226,196)" stroke-width="1" opacity="1" d="M 118.5 66 L 117.5 68 L 118.5 66 Z " /><path fill="rgb(249,226,196)" stroke="rgb(249,226,196)" stroke-width="1" opacity="1" d="M 143.5 73 L 142.5 75 L 143.5 73 Z " /><path fill="rgb(249,226,196)" stroke="rgb(249,226,196)" stroke-width="1" opacity="1" d="M 114.5 76 L 118 76.5 L 114.5 77 L 114.5 76 Z " /><path fill="rgb(249,226,196)" stroke="rgb(249,226,196)" stroke-width="1" opacity="1" d="M 147.5 77 L 149.5 80 L 147.5 77 Z " /><path fill="rgb(249,226,196)" stroke="rgb(249,226,196)" stroke-width="1" opacity="1" d="M 164.5 83 L 165.5 85 L 164.5 83 Z " /><path fill="rgb(249,226,196)" stroke="rgb(249,226,196)" stroke-width="1" opacity="1" d="M 100.5 87 L 103 87.5 L 100.5 88 L 100.5 87 Z " /><path fill="rgb(249,226,196)" stroke="rgb(249,226,196)" stroke-width="1" opacity="1" d="M 122.5 95 L 121.5 97 L 120 96.5 L 122.5 95 Z " /><path fill="rgb(249,226,196)" stroke="rgb(249,226,196)" stroke-width="1" opacity="1" d="M 158.5 96 L 161 96.5 L 157.5 98 L 158.5 96 Z " /><path fill="rgb(249,226,196)" stroke="rgb(249,226,196)" stroke-width="1" opacity="1" d="M 162.5 97 L 165.5 101 L 162.5 97 Z " /><path fill="rgb(249,226,196)" stroke="rgb(249,226,196)" stroke-width="1" opacity="1" d="M 70.5 98 L 66.5 103 L 57.5 111 L 65.5 102 L 70.5 98 Z " /><path fill="rgb(249,226,196)" stroke="rgb(249,226,196)" stroke-width="1" opacity="1" d="M 157.5 101 L 159.5 104 L 157.5 101 Z " /><path fill="rgb(249,226,196)" stroke="rgb(249,226,196)" stroke-width="1" opacity="1" d="M 44.5 103 L 45.5 105 L 44.5 103 Z " /><path fill="rgb(249,226,196)" stroke="rgb(249,226,196)" stroke-width="1" opacity="1" d="M 124.5 104 L 125.5 106 L 124.5 104 Z " /><path fill="rgb(249,226,196)" stroke="rgb(249,226,196)" stroke-width="1" opacity="1" d="M 109.5 105 L 112 105.5 L 109.5 106 L 109.5 105 Z " /><path fill="rgb(249,226,196)" stroke="rgb(249,226,196)" stroke-width="1" opacity="1" d="M 161.5 106 L 162.5 108 L 161.5 106 Z " /><path fill="rgb(249,226,196)" stroke="rgb(249,226,196)" stroke-width="1" opacity="1" d="M 45.5 107 L 44.5 109 L 45.5 107 Z " /><path fill="rgb(249,226,196)" stroke="rgb(249,226,196)" stroke-width="1" opacity="1" d="M 128.5 108 L 129.5 110 L 128.5 108 Z " /><path fill="rgb(249,226,196)" stroke="rgb(249,226,196)" stroke-width="1" opacity="1" d="M 42.5 109 L 41.5 111 L 42.5 109 Z " /><path fill="rgb(249,226,196)" stroke="rgb(249,226,196)" stroke-width="1" opacity="1" d="M 99.5 110 L 116.5 110 L 130 118.5 L 118.5 119 L 110 124.5 Q 106.3 126.8 107 133.5 L 111.5 138 L 116.5 139 L 125.5 137 L 131 132.5 L 133 125 L 138 124 L 137 121.5 L 139 122.5 Q 138.5 126.5 141.5 127 L 147.5 128 L 153 124.5 L 153.5 123 Q 158 124 157 130.5 L 153.5 135 Q 149.8 138.3 141.5 137 L 130.5 143 L 118.5 146 L 108.5 146 L 107.5 147 L 76.5 147 L 67.5 145 L 59 138.5 L 58 130.5 L 59 125.5 L 58.5 124 L 60.5 126 L 63 124.5 L 62 129.5 L 66.5 135 L 76.5 138 L 84 133.5 L 85 129.5 Q 82.8 122.8 77.5 119 Q 75.3 119.8 76 117.5 L 75.5 116 L 86.5 112 L 98.5 111 L 99.5 110 Z M 149 128 L 146 132 L 148 135 L 152 134 L 153 132 L 153 130 Q 154 126 149 128 Z " /><path fill="rgb(249,226,196)" stroke="rgb(249,226,196)" stroke-width="1" opacity="1" d="M 55.5 111 L 54.5 113 L 55.5 111 Z " /><path fill="rgb(249,226,196)" stroke="rgb(249,226,196)" stroke-width="1" opacity="1" d="M 51.5 113 L 53 113.5 L 49.5 115 L 49.5 114 L 51.5 113 Z " /><path fill="rgb(249,226,196)" stroke="rgb(249,226,196)" stroke-width="1" opacity="1" d="M 35.5 118 L 38 118.5 L 35.5 119 L 35.5 118 Z " /><path fill="rgb(249,226,196)" stroke="rgb(249,226,196)" stroke-width="1" opacity="1" d="M 115.5 134 L 121 134.5 L 115.5 135 L 115.5 134 Z " /><path fill="rgb(233,155,15)" stroke="rgb(233,155,15)" stroke-width="1" opacity="1" d="M 68.5 117 Q 77.1 117.9 81 123.5 Q 84.6 125.4 84 131.5 L 81.5 135 Q 78.6 137.6 72.5 137 Q 66.8 135.8 64 131.5 L 63 125.5 L 64 123 L 60 121.5 Q 59.3 119.3 61.5 120 L 63.5 118 L 68.5 117 Z M 68 122 L 66 124 Q 65 132 71 134 Q 79 136 81 132 L 79 127 Q 76 121 68 122 Z " /><path fill="rgb(233,155,15)" stroke="rgb(233,155,15)" stroke-width="1" opacity="1" d="M 121.5 119 L 127.5 119 L 137 122.5 L 132 125 Q 133.1 131.7 128.5 134 Q 123.8 137.8 115.5 138 L 111.5 137 L 108 133.5 L 108 129.5 L 111 124 L 121.5 119 Z M 123 123 L 115 126 L 111 131 Q 111 135 114 135 Q 121 137 125 134 Q 130 132 128 124 L 123 123 Z " /><path fill="rgb(60,69,73)" stroke="rgb(60,69,73)" stroke-width="1" opacity="0.996078431372549" d="M 76.5 50 L 78 50.5 L 69.5 55 L 70.5 53 L 76.5 50 Z " /><path fill="rgb(60,69,73)" stroke="rgb(60,69,73)" stroke-width="1" opacity="0.996078431372549" d="M 101.5 51 L 111 51.5 L 101.5 52 L 101.5 51 Z " /><path fill="rgb(60,69,73)" stroke="rgb(60,69,73)" stroke-width="1" opacity="0.996078431372549" d="M 91.5 52 L 94 52.5 L 91.5 53 L 91.5 52 Z " /><path fill="rgb(60,69,73)" stroke="rgb(60,69,73)" stroke-width="1" opacity="0.996078431372549" d="M 114.5 52 L 117 52.5 L 114.5 53 L 114.5 52 Z " /><path fill="rgb(60,69,73)" stroke="rgb(60,69,73)" stroke-width="1" opacity="0.996078431372549" d="M 127.5 56 L 128.5 58 L 127.5 56 Z " /><path fill="rgb(60,69,73)" stroke="rgb(60,69,73)" stroke-width="1" opacity="0.996078431372549" d="M 131.5 59 L 134.5 63 L 131.5 59 Z " /><path fill="rgb(60,69,73)" stroke="rgb(60,69,73)" stroke-width="1" opacity="0.996078431372549" d="M 70.5 61 L 69.5 63 L 70.5 61 Z " /><path fill="rgb(60,69,73)" stroke="rgb(60,69,73)" stroke-width="1" opacity="0.996078431372549" d="M 63.5 68 L 61.5 71 L 63.5 68 Z " /><path fill="rgb(60,69,73)" stroke="rgb(60,69,73)" stroke-width="1" opacity="0.996078431372549" d="M 152.5 70 L 153.5 72 L 152.5 70 Z " /><path fill="rgb(60,69,73)" stroke="rgb(60,69,73)" stroke-width="1" opacity="0.996078431372549" d="M 156.5 73 L 164.5 82 L 156.5 73 Z " /><path fill="rgb(60,69,73)" stroke="rgb(60,69,73)" stroke-width="1" opacity="0.996078431372549" d="M 166.5 84 L 167.5 86 L 166.5 84 Z " /><path fill="rgb(60,69,73)" stroke="rgb(60,69,73)" stroke-width="1" opacity="0.996078431372549" d="M 52.5 87 L 45.5 95 L 52.5 87 Z " /><path fill="rgb(60,69,73)" stroke="rgb(60,69,73)" stroke-width="1" opacity="0.996078431372549" d="M 168.5 87 L 169.5 89 L 168.5 87 Z " /><path fill="rgb(60,69,73)" stroke="rgb(60,69,73)" stroke-width="1" opacity="0.996078431372549" d="M 80.5 94 L 87 94.5 L 80.5 95 L 80.5 94 Z " /><path fill="rgb(60,69,73)" stroke="rgb(60,69,73)" stroke-width="1" opacity="0.996078431372549" d="M 42.5 96 L 41.5 98 L 42.5 96 Z " /><path fill="rgb(60,69,73)" stroke="rgb(60,69,73)" stroke-width="1" opacity="0.996078431372549" d="M 93.5 97 L 94.5 99 L 93.5 97 Z " /><path fill="rgb(60,69,73)" stroke="rgb(60,69,73)" stroke-width="1" opacity="0.996078431372549" d="M 39.5 98 L 38.5 100 L 39.5 98 Z " /><path fill="rgb(60,69,73)" stroke="rgb(60,69,73)" stroke-width="1" opacity="0.996078431372549" d="M 72.5 98 L 69.5 102 L 72.5 98 Z " /><path fill="rgb(60,69,73)" stroke="rgb(60,69,73)" stroke-width="1" opacity="0.996078431372549" d="M 36.5 100 L 33.5 104 L 36.5 100 Z " /><path fill="rgb(60,69,73)" stroke="rgb(60,69,73)" stroke-width="1" opacity="0.996078431372549" d="M 82.5 100 L 86 100.5 L 82.5 101 L 82.5 100 Z " /><path fill="rgb(60,69,73)" stroke="rgb(60,69,73)" stroke-width="1" opacity="0.996078431372549" d="M 77.5 102 L 73.5 107 L 77.5 102 Z " /><path fill="rgb(60,69,73)" stroke="rgb(60,69,73)" stroke-width="1" opacity="0.996078431372549" d="M 89.5 102 Q 90 105.5 94.5 105 L 96 104.5 L 92.5 106 L 89.5 102 Z " /><path fill="rgb(60,69,73)" stroke="rgb(60,69,73)" stroke-width="1" opacity="0.996078431372549" d="M 66.5 105 L 64.5 108 L 66.5 105 Z " /><path fill="rgb(60,69,73)" stroke="rgb(60,69,73)" stroke-width="1" opacity="0.996078431372549" d="M 176.5 105 L 177 118.5 L 176 118.5 L 176.5 105 Z " /><path fill="rgb(60,69,73)" stroke="rgb(60,69,73)" stroke-width="1" opacity="0.996078431372549" d="M 28.5 108 L 27.5 110 L 28.5 108 Z " /><path fill="rgb(60,69,73)" stroke="rgb(60,69,73)" stroke-width="1" opacity="0.996078431372549" d="M 63.5 109 L 61.5 112 L 63.5 109 Z " /><path fill="rgb(60,69,73)" stroke="rgb(60,69,73)" stroke-width="1" opacity="0.996078431372549" d="M 71.5 109 L 69.5 112 L 71.5 109 Z " /><path fill="rgb(60,69,73)" stroke="rgb(60,69,73)" stroke-width="1" opacity="0.996078431372549" d="M 58.5 113 L 57.5 115 L 58.5 113 Z " /><path fill="rgb(60,69,73)" stroke="rgb(60,69,73)" stroke-width="1" opacity="0.996078431372549" d="M 67.5 114 L 65.5 117 L 67.5 114 Z " /><path fill="rgb(60,69,73)" stroke="rgb(60,69,73)" stroke-width="1" opacity="0.996078431372549" d="M 24.5 116 L 25 120.5 L 24 120.5 L 24.5 116 Z " /><path fill="rgb(60,69,73)" stroke="rgb(60,69,73)" stroke-width="1" opacity="0.996078431372549" d="M 145.5 116 L 147 116.5 L 141 121.5 Q 139.3 126.8 144.5 125 L 147 123.5 Q 146.3 126.8 141.5 126 Q 139.3 125.3 140 121.5 L 145.5 116 Z " /><path fill="rgb(60,69,73)" stroke="rgb(60,69,73)" stroke-width="1" opacity="0.996078431372549" d="M 63.5 117 L 61.5 120 L 63.5 117 Z " /><path fill="rgb(60,69,73)" stroke="rgb(60,69,73)" stroke-width="1" opacity="0.996078431372549" d="M 159.5 118 L 161.5 121 L 159.5 118 Z " /><path fill="rgb(60,69,73)" stroke="rgb(60,69,73)" stroke-width="1" opacity="0.996078431372549" d="M 44.5 119 L 47 119.5 L 44.5 120 L 44.5 119 Z " /><path fill="rgb(60,69,73)" stroke="rgb(60,69,73)" stroke-width="1" opacity="0.996078431372549" d="M 42.5 120 L 41.5 122 L 42.5 120 Z " /><path fill="rgb(60,69,73)" stroke="rgb(60,69,73)" stroke-width="1" opacity="0.996078431372549" d="M 59.5 120 L 58.5 122 L 59.5 120 Z " /><path fill="rgb(60,69,73)" stroke="rgb(60,69,73)" stroke-width="1" opacity="0.996078431372549" d="M 155.5 123 L 156.5 125 L 155.5 123 Z " /><path fill="rgb(60,69,73)" stroke="rgb(60,69,73)" stroke-width="1" opacity="0.996078431372549" d="M 41.5 124 L 44 125.5 L 42.5 126 L 41.5 124 Z " /><path fill="rgb(60,69,73)" stroke="rgb(60,69,73)" stroke-width="1" opacity="0.996078431372549" d="M 47.5 125 Q 50.8 123.9 50 126.5 L 48.5 126 L 47.5 125 Z " /><path fill="rgb(60,69,73)" stroke="rgb(60,69,73)" stroke-width="1" opacity="0.996078431372549" d="M 157.5 126 L 158 131.5 L 157 131.5 L 157.5 126 Z " /><path fill="rgb(60,69,73)" stroke="rgb(60,69,73)" stroke-width="1" opacity="0.996078431372549" d="M 48.5 128 L 48 129.5 L 47.5 131 L 47 129.5 L 48.5 128 Z " /><path fill="rgb(60,69,73)" stroke="rgb(60,69,73)" stroke-width="1" opacity="0.996078431372549" d="M 46.5 132 L 47 137.5 L 46 137.5 L 46.5 132 Z " /><path fill="rgb(60,69,73)" stroke="rgb(60,69,73)" stroke-width="1" opacity="0.996078431372549" d="M 156.5 133 L 154.5 136 L 156.5 133 Z " /><path fill="rgb(60,69,73)" stroke="rgb(60,69,73)" stroke-width="1" opacity="0.996078431372549" d="M 160.5 138 L 159.5 140 L 160.5 138 Z " /><path fill="rgb(60,69,73)" stroke="rgb(60,69,73)" stroke-width="1" opacity="0.996078431372549" d="M 47.5 139 L 49 141.5 L 47 140.5 L 47.5 139 Z " /><path fill="rgb(60,69,73)" stroke="rgb(60,69,73)" stroke-width="1" opacity="0.996078431372549" d="M 54.5 139 L 55.5 141 L 54.5 139 Z " /><path fill="rgb(60,69,73)" stroke="rgb(60,69,73)" stroke-width="1" opacity="0.996078431372549" d="M 57.5 141 L 58.5 143 L 57.5 141 Z " /><path fill="rgb(60,69,73)" stroke="rgb(60,69,73)" stroke-width="1" opacity="0.996078431372549" d="M 156.5 141 L 155.5 143 L 152.5 144 L 152.5 143 L 156.5 141 Z " /><path fill="rgb(60,69,73)" stroke="rgb(60,69,73)" stroke-width="1" opacity="0.996078431372549" d="M 167.5 141 L 168 144.5 L 167 144.5 L 167.5 141 Z " /><path fill="rgb(60,69,73)" stroke="rgb(60,69,73)" stroke-width="1" opacity="0.996078431372549" d="M 34.5 143 L 35.5 145 L 34.5 143 Z " /><path fill="rgb(60,69,73)" stroke="rgb(60,69,73)" stroke-width="1" opacity="0.996078431372549" d="M 49.5 143 L 52.5 147 L 49.5 143 Z " /><path fill="rgb(60,69,73)" stroke="rgb(60,69,73)" stroke-width="1" opacity="0.996078431372549" d="M 142.5 144 L 151 144.5 L 142.5 145 L 141.5 146 L 142.5 144 Z " /><path fill="rgb(60,69,73)" stroke="rgb(60,69,73)" stroke-width="1" opacity="0.996078431372549" d="M 115.5 146 L 120 146.5 L 115.5 147 L 115.5 146 Z " /><path fill="rgb(60,69,73)" stroke="rgb(60,69,73)" stroke-width="1" opacity="0.996078431372549" d="M 75.5 147 L 82 147.5 L 75.5 148 L 75.5 147 Z " /><path fill="rgb(60,69,73)" stroke="rgb(60,69,73)" stroke-width="1" opacity="0.996078431372549" d="M 102.5 147 L 110 147.5 L 102.5 148 L 102.5 147 Z " /><path fill="rgb(60,69,73)" stroke="rgb(60,69,73)" stroke-width="1" opacity="0.996078431372549" d="M 56.5 148 L 60 149.5 L 58.5 150 L 56.5 148 Z " /><path fill="rgb(60,69,73)" stroke="rgb(60,69,73)" stroke-width="1" opacity="0.996078431372549" d="M 167.5 148 L 168 151.5 L 167 151.5 L 167.5 148 Z " /><path fill="rgb(60,69,73)" stroke="rgb(60,69,73)" stroke-width="1" opacity="0.996078431372549" d="M 38.5 152 L 39 156.5 L 38 156.5 L 38.5 152 Z " /><path fill="rgb(60,69,73)" stroke="rgb(60,69,73)" stroke-width="1" opacity="0.996078431372549" d="M 67.5 152 L 70 152.5 L 67.5 153 L 67.5 152 Z " /><path fill="rgb(60,69,73)" stroke="rgb(60,69,73)" stroke-width="1" opacity="0.996078431372549" d="M 72.5 153 L 77 153.5 L 72.5 154 L 72.5 153 Z " /><path fill="rgb(60,69,73)" stroke="rgb(60,69,73)" stroke-width="1" opacity="0.996078431372549" d="M 112.5 153 L 115 153.5 L 106 161.5 L 107.5 164 L 113 168.5 L 107 178 L 116.5 173 L 115 175.5 L 117 183.5 L 117 200 L 87.5 200 L 87 198.5 L 86 197.5 L 85.5 179 L 84.5 182 L 84 178.5 L 85 175 L 92.5 179 L 92 177.5 L 89 168.5 L 90 166 L 95 162.5 L 89.5 155 L 85.5 157 L 87.5 154 L 98.5 155 L 99.5 154 L 111.5 154 L 112.5 153 Z M 101 164 L 94 172 L 98 173 L 100 178 L 101 175 L 106 171 L 104 169 L 101 164 Z " /><path fill="rgb(60,69,73)" stroke="rgb(60,69,73)" stroke-width="1" opacity="0.996078431372549" d="M 117.5 153 L 118.5 155 L 117.5 153 Z " /><path fill="rgb(60,69,73)" stroke="rgb(60,69,73)" stroke-width="1" opacity="0.996078431372549" d="M 125.5 153 L 126.5 155 L 125.5 153 Z " /><path fill="rgb(60,69,73)" stroke="rgb(60,69,73)" stroke-width="1" opacity="0.996078431372549" d="M 119.5 156 L 120.5 158 L 119.5 156 Z " /><path fill="rgb(60,69,73)" stroke="rgb(60,69,73)" stroke-width="1" opacity="0.996078431372549" d="M 127.5 156 L 130 159.5 L 128 158.5 L 127.5 156 Z " /><path fill="rgb(60,69,73)" stroke="rgb(60,69,73)" stroke-width="1" opacity="0.996078431372549" d="M 77.5 157 L 76.5 159 L 77.5 157 Z " /><path fill="rgb(60,69,73)" stroke="rgb(60,69,73)" stroke-width="1" opacity="0.996078431372549" d="M 84.5 158 L 83.5 160 L 84.5 158 Z " /><path fill="rgb(60,69,73)" stroke="rgb(60,69,73)" stroke-width="1" opacity="0.996078431372549" d="M 122.5 160 L 130 173.5 L 134 184.5 L 133 184.5 Q 133.9 181.5 129.5 183 Q 127.5 185.8 123 185 L 122.5 188 Q 122.6 179.2 120 174 L 118 173.5 L 120 172.5 L 117 166.5 L 122.5 160 Z " /><path fill="rgb(60,69,73)" stroke="rgb(60,69,73)" stroke-width="1" opacity="0.996078431372549" d="M 171.5 161 L 172.5 163 L 171.5 161 Z " /><path fill="rgb(60,69,73)" stroke="rgb(60,69,73)" stroke-width="1" opacity="0.996078431372549" d="M 34.5 163 L 33.5 165 L 34.5 163 Z " /><path fill="rgb(60,69,73)" stroke="rgb(60,69,73)" stroke-width="1" opacity="0.996078431372549" d="M 81.5 163 L 85 165.5 L 77.5 183 L 77 178.5 L 81 166.5 L 80.5 165 L 82 165.5 L 81.5 163 Z " /><path fill="rgb(60,69,73)" stroke="rgb(60,69,73)" stroke-width="1" opacity="0.996078431372549" d="M 131.5 163 L 134 166.5 L 132 165.5 L 131.5 163 Z " /><path fill="rgb(60,69,73)" stroke="rgb(60,69,73)" stroke-width="1" opacity="0.996078431372549" d="M 31.5 167 L 30.5 169 L 31.5 167 Z " /><path fill="rgb(60,69,73)" stroke="rgb(60,69,73)" stroke-width="1" opacity="0.996078431372549" d="M 77.5 171 L 78 172.5 L 74.5 180 L 74 178.5 L 77.5 171 Z " /><path fill="rgb(60,69,73)" stroke="rgb(60,69,73)" stroke-width="1" opacity="0.996078431372549" d="M 136.5 172 L 138 175.5 L 137 175.5 L 136.5 172 Z " /><path fill="rgb(60,69,73)" stroke="rgb(60,69,73)" stroke-width="1" opacity="0.996078431372549" d="M 179.5 178 L 180 184.5 L 179 184.5 L 179.5 178 Z " /><path fill="rgb(60,69,73)" stroke="rgb(60,69,73)" stroke-width="1" opacity="0.996078431372549" d="M 66.5 181 L 67 183.5 L 66 183.5 L 66.5 181 Z " /><path fill="rgb(60,69,73)" stroke="rgb(60,69,73)" stroke-width="1" opacity="0.996078431372549" d="M 83.5 183 L 84 186.5 L 83 186.5 L 83.5 183 Z " /><path fill="rgb(60,69,73)" stroke="rgb(60,69,73)" stroke-width="1" opacity="0.996078431372549" d="M 140.5 183 L 141 185.5 L 140 185.5 L 140.5 183 Z " /><path fill="rgb(60,69,73)" stroke="rgb(60,69,73)" stroke-width="1" opacity="0.996078431372549" d="M 30.5 185 L 31.5 187 L 30.5 185 Z " /><path fill="rgb(60,69,73)" stroke="rgb(60,69,73)" stroke-width="1" opacity="0.996078431372549" d="M 33.5 188 L 35.5 191 L 33.5 188 Z " /><path fill="rgb(60,69,73)" stroke="rgb(60,69,73)" stroke-width="1" opacity="0.996078431372549" d="M 38.5 192 L 41.5 196 L 38.5 192 Z " /><path fill="rgb(60,69,73)" stroke="rgb(60,69,73)" stroke-width="1" opacity="0.996078431372549" d="M 63.5 192 L 64 194.5 L 63 194.5 L 63.5 192 Z " /><path fill="rgb(60,69,73)" stroke="rgb(60,69,73)" stroke-width="1" opacity="0.996078431372549" d="M 82.5 195 L 83 199.5 L 82 199.5 L 82.5 195 Z " /><path fill="rgb(60,69,73)" stroke="rgb(60,69,73)" stroke-width="1" opacity="0.996078431372549" d="M 62.5 196 L 63 199.5 L 62 199.5 L 62.5 196 Z " /><path fill="rgb(60,69,73)" stroke="rgb(60,69,73)" stroke-width="1" opacity="0.996078431372549" d="M 44.5 197 L 46.5 200 L 44.5 197 Z " /><path fill="rgb(60,69,73)" stroke="rgb(60,69,73)" stroke-width="1" opacity="0.996078431372549" d="M 136.5 197 L 137 199.5 L 136 199.5 L 136.5 197 Z " /><path fill="rgb(60,69,73)" stroke="rgb(60,69,73)" stroke-width="1" opacity="0.996078431372549" d="M 170.5 197 L 168.5 200 L 170.5 197 Z " /><path fill="rgb(239,200,157)" stroke="rgb(239,200,157)" stroke-width="1" opacity="1" d="M 120.5 64 L 119.5 66 L 120.5 64 Z " /><path fill="rgb(239,200,157)" stroke="rgb(239,200,157)" stroke-width="1" opacity="1" d="M 118.5 76 L 124 76.5 L 118.5 77 L 118.5 76 Z " /><path fill="rgb(239,200,157)" stroke="rgb(239,200,157)" stroke-width="1" opacity="1" d="M 99.5 88 L 99 89.5 Q 98.3 93.8 101 94.5 L 98 92.5 Q 97.3 88.8 99.5 88 Z " /><path fill="rgb(239,200,157)" stroke="rgb(239,200,157)" stroke-width="1" opacity="1" d="M 120.5 93 L 121 95.5 L 120 95.5 L 120.5 93 Z " /><path fill="rgb(239,200,157)" stroke="rgb(239,200,157)" stroke-width="1" opacity="1" d="M 158.5 97 L 158 98.5 L 159 101.5 L 157 100.5 L 158.5 97 Z " /><path fill="rgb(239,200,157)" stroke="rgb(239,200,157)" stroke-width="1" opacity="1" d="M 161.5 97 L 165.5 102 L 161.5 97 Z " /><path fill="rgb(239,200,157)" stroke="rgb(239,200,157)" stroke-width="1" opacity="1" d="M 71.5 98 L 68.5 102 L 71.5 98 Z " /><path fill="rgb(239,200,157)" stroke="rgb(239,200,157)" stroke-width="1" opacity="1" d="M 103.5 98 L 104 106 L 108.5 105 L 111.5 106 L 116 105 L 116.5 102 Q 116.3 108.2 120 110.5 L 118.5 110 L 90.5 111 L 77.5 115 L 73.5 118 L 66 116.5 L 79.5 102 L 85.5 101 L 91.5 106 L 95.5 106 Q 97.2 102.5 103 104 L 103.5 98 Z " /><path fill="rgb(239,200,157)" stroke="rgb(239,200,157)" stroke-width="1" opacity="1" d="M 121.5 100 L 122.5 102 L 121.5 100 Z " /><path fill="rgb(239,200,157)" stroke="rgb(239,200,157)" stroke-width="1" opacity="1" d="M 41.5 103 L 45 104.5 L 43.5 104 Q 40.5 104.5 41.5 103 Z " /><path fill="rgb(239,200,157)" stroke="rgb(239,200,157)" stroke-width="1" opacity="1" d="M 39.5 104 L 38.5 106 L 39.5 104 Z " /><path fill="rgb(239,200,157)" stroke="rgb(239,200,157)" stroke-width="1" opacity="1" d="M 124.5 105 L 128.5 110 L 124.5 105 Z " /><path fill="rgb(239,200,157)" stroke="rgb(239,200,157)" stroke-width="1" opacity="1" d="M 161.5 105 L 162.5 107 L 161.5 105 Z " /><path fill="rgb(239,200,157)" stroke="rgb(239,200,157)" stroke-width="1" opacity="1" d="M 64.5 106 L 63.5 108 L 64.5 106 Z " /><path fill="rgb(239,200,157)" stroke="rgb(239,200,157)" stroke-width="1" opacity="1" d="M 35.5 107 L 32.5 111 L 35.5 107 Z " /><path fill="rgb(239,200,157)" stroke="rgb(239,200,157)" stroke-width="1" opacity="1" d="M 44.5 107 L 43.5 109 L 44.5 107 Z " /><path fill="rgb(239,200,157)" stroke="rgb(239,200,157)" stroke-width="1" opacity="1" d="M 41.5 109 L 40.5 111 L 41.5 109 Z " /><path fill="rgb(239,200,157)" stroke="rgb(239,200,157)" stroke-width="1" opacity="1" d="M 36.5 114 L 35.5 116 L 36.5 114 Z " /><path fill="rgb(239,200,157)" stroke="rgb(239,200,157)" stroke-width="1" opacity="1" d="M 124.5 114 L 125.5 116 L 124.5 114 Z " /><path fill="rgb(239,200,157)" stroke="rgb(239,200,157)" stroke-width="1" opacity="1" d="M 28.5 117 L 29 121.5 L 28 121.5 L 28.5 117 Z " /><path fill="rgb(239,200,157)" stroke="rgb(239,200,157)" stroke-width="1" opacity="1" d="M 34.5 117 L 35 119.5 L 34 119.5 L 34.5 117 Z " /><path fill="rgb(239,200,157)" stroke="rgb(239,200,157)" stroke-width="1" opacity="1" d="M 166.5 117 L 167 121.5 L 166 121.5 L 166.5 117 Z " /><path fill="rgb(239,200,157)" stroke="rgb(239,200,157)" stroke-width="1" opacity="1" d="M 131.5 118 L 130.5 120 L 131.5 118 Z " /><path fill="rgb(239,200,157)" stroke="rgb(239,200,157)" stroke-width="1" opacity="1" d="M 77.5 119 L 78.5 121 L 77.5 119 Z " /><path fill="rgb(239,200,157)" stroke="rgb(239,200,157)" stroke-width="1" opacity="1" d="M 133.5 119 L 137.5 122 Q 138.8 119.7 140 122.5 L 139.5 124 L 138.5 122 L 137.5 124 L 135.5 121 Q 131.5 122 133.5 119 Z " /><path fill="rgb(239,200,157)" stroke="rgb(239,200,157)" stroke-width="1" opacity="1" d="M 34.5 121 L 35 123.5 L 33 124.5 L 34.5 121 Z " /><path fill="rgb(239,200,157)" stroke="rgb(239,200,157)" stroke-width="1" opacity="1" d="M 59.5 122 L 62 123 Q 63.3 126 59.5 125 Q 56.5 123.5 59.5 122 Z " /><path fill="rgb(239,200,157)" stroke="rgb(239,200,157)" stroke-width="1" opacity="1" d="M 29.5 123 L 30.5 125 L 29.5 123 Z " /><path fill="rgb(239,200,157)" stroke="rgb(239,200,157)" stroke-width="1" opacity="1" d="M 111.5 123 L 110.5 125 L 111.5 123 Z " /><path fill="rgb(239,200,157)" stroke="rgb(239,200,157)" stroke-width="1" opacity="1" d="M 62.5 126 L 63 129.5 L 62 129.5 L 62.5 126 Z " /><path fill="rgb(239,200,157)" stroke="rgb(239,200,157)" stroke-width="1" opacity="1" d="M 132.5 126 L 133 128.5 L 132 128.5 L 132.5 126 Z " /><path fill="rgb(239,200,157)" stroke="rgb(239,200,157)" stroke-width="1" opacity="1" d="M 166.5 126 L 167.5 128 L 166.5 126 Z " /><path fill="rgb(239,200,157)" stroke="rgb(239,200,157)" stroke-width="1" opacity="1" d="M 38.5 128 L 39 130.5 L 38 130.5 L 38.5 128 Z " /><path fill="rgb(239,200,157)" stroke="rgb(239,200,157)" stroke-width="1" opacity="1" d="M 148.5 128 Q 152.3 127.3 153 129.5 L 152 134 L 147 135 L 146 131.5 L 148.5 128 Z " /><path fill="rgb(239,200,157)" stroke="rgb(239,200,157)" stroke-width="1" opacity="1" d="M 63.5 131 L 66.5 135 L 63.5 131 Z " /><path fill="rgb(239,200,157)" stroke="rgb(239,200,157)" stroke-width="1" opacity="1" d="M 126.5 131 L 125.5 133 L 126.5 131 Z " /><path fill="rgb(239,200,157)" stroke="rgb(239,200,157)" stroke-width="1" opacity="1" d="M 130.5 132 L 128.5 135 L 130.5 132 Z " /><path fill="rgb(239,200,157)" stroke="rgb(239,200,157)" stroke-width="1" opacity="1" d="M 83.5 133 L 81.5 136 L 83.5 133 Z " /><path fill="rgb(239,200,157)" stroke="rgb(239,200,157)" stroke-width="1" opacity="1" d="M 155.5 133 L 154.5 135 L 155.5 133 Z " /><path fill="rgb(239,200,157)" stroke="rgb(239,200,157)" stroke-width="1" opacity="1" d="M 73.5 137 L 76 137.5 L 73.5 138 L 73.5 137 Z " /><path fill="rgb(239,200,157)" stroke="rgb(239,200,157)" stroke-width="1" opacity="1" d="M 38.5 138 L 39 140.5 L 38 140.5 L 38.5 138 Z " /><path fill="rgb(239,200,157)" stroke="rgb(239,200,157)" stroke-width="1" opacity="1" d="M 161.5 138 L 159.5 141 L 161.5 138 Z " /><path fill="rgb(239,200,157)" stroke="rgb(239,200,157)" stroke-width="1" opacity="1" d="M 46.5 155 L 47.5 157 L 46.5 155 Z " /><path fill="rgb(239,200,157)" stroke="rgb(239,200,157)" stroke-width="1" opacity="1" d="M 48.5 158 L 49 163.5 L 48 163.5 L 48.5 158 Z " /><path fill="rgb(239,200,157)" stroke="rgb(239,200,157)" stroke-width="1" opacity="1" d="M 157.5 159 L 158.5 161 L 157.5 159 Z " /><path fill="rgb(239,200,157)" stroke="rgb(239,200,157)" stroke-width="1" opacity="1" d="M 32.5 167 L 31.5 169 L 32.5 167 Z " /><path fill="rgb(239,200,157)" stroke="rgb(239,200,157)" stroke-width="1" opacity="1" d="M 46.5 168 L 45.5 170 L 46.5 168 Z " /><path fill="rgb(239,200,157)" stroke="rgb(239,200,157)" stroke-width="1" opacity="1" d="M 44.5 171 L 42.5 174 L 44.5 171 Z " /><path fill="rgb(239,200,157)" stroke="rgb(239,200,157)" stroke-width="1" opacity="1" d="M 170.5 171 L 171.5 173 L 170.5 171 Z " /><path fill="rgb(239,200,157)" stroke="rgb(239,200,157)" stroke-width="1" opacity="1" d="M 74.5 183 Q 76.8 182.3 76 184.5 L 75 189.5 L 72 194.5 L 72 200 Q 69 201.3 70 197.5 Q 72.3 196.3 71 191.5 L 73 188.5 L 73 184.5 L 74.5 183 Z " /><path fill="rgb(239,200,157)" stroke="rgb(239,200,157)" stroke-width="1" opacity="1" d="M 173.5 185 L 174 188.5 L 173 188.5 L 173.5 185 Z " /><path fill="rgb(239,200,157)" stroke="rgb(239,200,157)" stroke-width="1" opacity="1" d="M 36.5 186 L 38 190.5 L 36.5 190 L 34 188.5 L 36 188.5 L 36.5 186 Z " /><path fill="rgb(0,0,0)" stroke="rgb(0,0,0)" stroke-width="1" opacity="0.984313725490196" d="M 97.5 45 L 111.5 45 L 124.5 48 Q 133.6 51.4 139.5 58 L 142.5 58 L 154.5 64 L 167 74.5 Q 175.7 83.8 181 96.5 Q 184.9 105.6 183 120.5 L 174 141.5 L 174 151.5 L 184 170.5 L 186 177.5 L 186 186.5 Q 184.1 195.1 178.5 200 L 169 199.5 Q 179.6 194.1 180 178.5 L 169 156.5 L 167 145.5 Q 169.6 132.1 176 122.5 Q 178.3 115.8 177 105.5 Q 171.4 84.6 156.5 73 L 140.5 64 L 135.5 63 L 123.5 54 L 110.5 51 L 101.5 51 L 100.5 52 L 91.5 52 L 79.5 56 Q 67.9 60.9 61 70.5 L 54 85.5 L 43.5 96 Q 33.2 100.7 27 109.5 L 24 116.5 L 24 120.5 L 27 131.5 L 37 147.5 L 38 157.5 L 28 172.5 L 28 180.5 Q 29.8 187.7 35.5 191 L 46 199.5 L 35.5 200 L 27 193 L 27 190 Q 24.3 191.1 25 188.5 L 22 182.5 L 21 175.5 L 22 170.5 L 31 157.5 L 32 152.5 L 21 133.5 L 18 121.5 L 18 114.5 Q 21.8 103.3 30.5 97 L 47 84.5 L 57 65.5 L 65.5 57 L 80.5 49 L 97.5 45 Z " /><path fill="rgb(0,0,0)" stroke="rgb(0,0,0)" stroke-width="1" opacity="0.984313725490196" d="M 78.5 95 Q 92.1 92.9 96 100.5 Q 96.8 104.3 94.5 105 L 92.5 105 L 85.5 100 L 82.5 100 Q 76 101.5 73 106.5 L 64.5 117 L 58 121.5 Q 57.2 128.7 53 132.5 L 53 137.5 L 55.5 141 L 66.5 146 L 75.5 148 L 109.5 148 L 110.5 147 L 124.5 146 L 142.5 138 L 150.5 138 L 157 133.5 L 158 126.5 L 155.5 123 L 148.5 122 Q 146.4 125.9 141 125 Q 140 118.6 145.5 117 L 154.5 116 L 162 121.5 Q 164.6 124.4 164 130.5 Q 162.9 137.9 157.5 141 Q 153 145.5 142.5 144 Q 136 150.2 125 151 L 125 153.5 L 136 171.5 L 143 193.5 L 143 195.5 L 143 200 L 137 200 L 134 183.5 L 130 173.5 L 117.5 153 L 90.5 155 L 87.5 154 L 83 159.5 L 75 175.5 L 72 184.5 L 70 200 L 63 200 L 63 195.5 L 69 174.5 L 79 154 L 60.5 150 L 53.5 147 L 49 142.5 Q 45.8 139.2 47 131.5 L 50 125 L 44.5 126 L 41 123.5 L 43.5 120 Q 56.8 117.8 64 109.5 L 74.5 97 L 78.5 95 Z " /><path fill="rgb(0,0,0)" stroke="rgb(0,0,0)" stroke-width="1" opacity="0.984313725490196" d="M 82.5 173 L 85 174 L 83 183.5 L 83 194.5 L 82 200 L 76 200 L 76 192.5 L 78 187.5 L 79 177.5 L 82.5 173 Z " /><path fill="rgb(0,0,0)" stroke="rgb(0,0,0)" stroke-width="1" opacity="0.984313725490196" d="M 117.5 173 L 120 174 L 122 180.5 L 123 189.5 L 123 191.5 L 123 200 L 117 200 L 117 183.5 L 115 175.5 L 117.5 173 Z " /><path fill="rgb(245,218,74)" stroke="rgb(245,218,74)" stroke-width="1" opacity="1" d="M 127.5 58 L 135.5 64 Q 144 65 149 69.5 L 142 74.5 L 150 80.5 L 136.5 85 L 121.5 96 L 121 90.5 L 128 77 L 112 75.5 L 124.5 60 L 127.5 58 Z " /><path fill="rgb(245,218,74)" stroke="rgb(245,218,74)" stroke-width="1" opacity="1" d="M 65.5 117 L 68 117.5 L 65.5 118 L 65.5 117 Z " /><path fill="rgb(245,218,74)" stroke="rgb(245,218,74)" stroke-width="1" opacity="1" d="M 70.5 117 L 73 117.5 L 70.5 118 L 70.5 117 Z " /><path fill="rgb(245,218,74)" stroke="rgb(245,218,74)" stroke-width="1" opacity="1" d="M 79.5 121 L 80.5 123 L 79.5 121 Z " /><path fill="rgb(245,218,74)" stroke="rgb(245,218,74)" stroke-width="1" opacity="1" d="M 113.5 122 L 112.5 124 L 113.5 122 Z " /><path fill="rgb(245,218,74)" stroke="rgb(245,218,74)" stroke-width="1" opacity="1" d="M 62.5 123 Q 64.8 122.3 64 124.5 L 62.5 123 Z " /><path fill="rgb(245,218,74)" stroke="rgb(245,218,74)" stroke-width="1" opacity="1" d="M 81.5 124 L 82.5 126 L 81.5 124 Z " /><path fill="rgb(245,218,74)" stroke="rgb(245,218,74)" stroke-width="1" opacity="1" d="M 110.5 125 L 109.5 127 L 110.5 125 Z " /><path fill="rgb(245,218,74)" stroke="rgb(245,218,74)" stroke-width="1" opacity="1" d="M 107.5 130 L 108 132.5 L 107 132.5 L 107.5 130 Z " /><path fill="rgb(245,218,74)" stroke="rgb(245,218,74)" stroke-width="1" opacity="1" d="M 108.5 134 L 110.5 137 L 108.5 134 Z " /><path fill="rgb(245,218,74)" stroke="rgb(245,218,74)" stroke-width="1" opacity="1" d="M 127.5 134 L 126.5 136 L 127.5 134 Z " /><path fill="rgb(245,218,74)" stroke="rgb(245,218,74)" stroke-width="1" opacity="1" d="M 118.5 137 L 121 137.5 L 118.5 138 L 118.5 137 Z " /><path fill="rgb(245,218,74)" stroke="rgb(245,218,74)" stroke-width="1" opacity="1" d="M 117.5 159 Q 121.3 158.3 122 160.5 L 120.5 163 L 118 164.5 L 116 167.5 L 119 171.5 L 107.5 178 L 109 175.5 L 113 168.5 L 107 161 Q 113.6 161.9 117.5 159 Z " /><path fill="rgb(245,218,74)" stroke="rgb(245,218,74)" stroke-width="1" opacity="1" d="M 84.5 160 L 91.5 161 L 93.5 160 L 95 161.5 L 88 168.5 L 89 169.5 L 92 178 L 82 171.5 L 86 165.5 L 83 161.5 L 84.5 160 Z " /><path fill="rgb(245,218,74)" stroke="rgb(245,218,74)" stroke-width="1" opacity="1" d="M 100.5 165 L 103.5 170 L 106 170.5 L 101 174.5 Q 101.7 177.1 99 176 L 96.5 172 Q 93.9 172.7 95 170 L 99 167.5 L 100.5 165 Z " /><path fill="rgb(245,218,74)" stroke="rgb(245,218,74)" stroke-width="1" opacity="1" d="M 76.5 183 L 77 188.5 Q 74 192.8 75 200 Q 69.8 201.8 72 194.5 L 75 189.5 Q 74.3 184.8 76.5 183 Z " /><path fill="rgb(245,218,74)" stroke="rgb(245,218,74)" stroke-width="1" opacity="1" d="M 128.5 184 L 131 184.5 L 131 197.5 L 130 200 L 124 200 L 124 197.5 L 124 193.5 L 123 186 L 128.5 184 Z " /><path fill="rgb(224,210,168)" stroke="rgb(224,210,168)" stroke-width="1" opacity="1" d="M 97.5 52 L 102 52.5 L 97.5 53 L 97.5 52 Z " /><path fill="rgb(224,210,168)" stroke="rgb(224,210,168)" stroke-width="1" opacity="1" d="M 71.5 61 L 70.5 63 L 71.5 61 Z " /><path fill="rgb(224,210,168)" stroke="rgb(224,210,168)" stroke-width="1" opacity="1" d="M 156.5 74 L 157.5 76 L 156.5 74 Z " /><path fill="rgb(224,210,168)" stroke="rgb(224,210,168)" stroke-width="1" opacity="1" d="M 160.5 78 L 162.5 81 L 160.5 78 Z " /><path fill="rgb(224,210,168)" stroke="rgb(224,210,168)" stroke-width="1" opacity="1" d="M 52.5 88 L 46.5 95 L 52.5 88 Z " /><path fill="rgb(224,210,168)" stroke="rgb(224,210,168)" stroke-width="1" opacity="1" d="M 82.5 93 L 86 93.5 L 82.5 94 L 82.5 93 Z " /><path fill="rgb(224,210,168)" stroke="rgb(224,210,168)" stroke-width="1" opacity="1" d="M 94.5 97 L 95.5 99 L 94.5 97 Z " /><path fill="rgb(224,210,168)" stroke="rgb(224,210,168)" stroke-width="1" opacity="1" d="M 36.5 101 L 35.5 103 L 36.5 101 Z " /><path fill="rgb(224,210,168)" stroke="rgb(224,210,168)" stroke-width="1" opacity="1" d="M 174.5 101 Q 177.2 107.3 176 117.5 L 167 139.5 L 166 149.5 L 168 157.5 L 177 172.5 L 179 183.5 L 172.5 195 L 172 192.5 Q 175.8 187.8 174 177.5 Q 171.9 169.6 165.5 166 L 159 161.5 L 155 154.5 L 155 146.5 L 158.5 141 L 162 138.5 L 164 135.5 L 165 126.5 L 163 122.5 L 166 122.5 Q 165 127 167.5 128 Q 171.5 128.5 172 125.5 L 172 113.5 L 171 112.5 Q 174.6 108.6 174.5 101 Z " /><path fill="rgb(224,210,168)" stroke="rgb(224,210,168)" stroke-width="1" opacity="1" d="M 67.5 102 L 63 107.5 L 59.5 112 L 48.5 118 L 42.5 119 L 40 121.5 Q 40.8 126.8 38 128.5 L 38 140.5 Q 41.4 150.6 48 157.5 L 48 165.5 L 40 176.5 L 35.5 189 L 32 186.5 L 29 180.5 L 29 173.5 L 38 160.5 L 39 149.5 L 27 128.5 L 25 117.5 L 26.5 115 L 29 116.5 L 28 121.5 L 30.5 125 Q 34.3 125.8 35 123.5 L 34 120.5 L 54.5 113 L 67.5 102 Z " /><path fill="rgb(224,210,168)" stroke="rgb(224,210,168)" stroke-width="1" opacity="1" d="M 39.5 111 L 37.5 114 L 39.5 111 Z " /><path fill="rgb(224,210,168)" stroke="rgb(224,210,168)" stroke-width="1" opacity="1" d="M 120.5 111 L 123.5 115 L 120.5 111 Z " /><path fill="rgb(224,210,168)" stroke="rgb(224,210,168)" stroke-width="1" opacity="1" d="M 159.5 117 L 161.5 120 L 159.5 117 Z " /><path fill="rgb(224,210,168)" stroke="rgb(224,210,168)" stroke-width="1" opacity="1" d="M 154.5 123 L 155.5 125 L 154.5 123 Z " /><path fill="rgb(224,210,168)" stroke="rgb(224,210,168)" stroke-width="1" opacity="1" d="M 146.5 124 L 145.5 126 L 146.5 124 Z " /><path fill="rgb(224,210,168)" stroke="rgb(224,210,168)" stroke-width="1" opacity="1" d="M 54.5 138 L 56.5 141 L 54.5 138 Z " /><path fill="rgb(224,210,168)" stroke="rgb(224,210,168)" stroke-width="1" opacity="1" d="M 74.5 182 L 76 182.5 L 73.5 184 L 74.5 182 Z " /></svg>