<svg width="200" height="200" version="1.1" xmlns="http://www.w3.org/2000/svg" desc="Created with imagetracer.js version 1.2.6" ><path fill="rgb(0,0,0)" stroke="rgb(0,0,0)" stroke-width="1" opacity="0" d="M 0 0 L 200 0 L 200 200 L 137 199.5 L 141 196.5 Q 144.2 192.2 144 184.5 Q 141.6 171.4 133.5 164 L 132 163.5 L 134.5 161 L 140.5 160 L 154.5 154 L 164 146.5 Q 168.7 141.7 167 130.5 L 166 127 Q 177.9 126.1 183 117.5 L 184 110.5 Q 183.1 103.9 178.5 101 L 169 95.5 Q 184.5 79 185 47.5 L 184 46.5 L 183 34.5 L 181 30 L 175.5 31 L 166.5 36 L 148.5 51 L 144.5 52 L 134.5 47 L 123.5 44 L 110.5 43 L 109.5 42 L 100.5 42 L 94 39.5 Q 91.6 26.9 82.5 21 L 77.5 22 L 70 29.5 L 62.5 46 Q 49.5 49 42 57.5 L 42 60.5 L 50 76.5 L 52 88 L 39.5 87 L 38.5 86 L 24.5 86 L 15 91.5 Q 11.8 94.8 13 102.5 Q 15.5 110.5 21.5 115 L 33.5 122 L 41 124.5 L 32 138.5 L 32 145.5 Q 33.6 152.4 39.5 155 Q 52 163 71 164.5 L 60 174.5 L 56 181.5 L 56 189.5 L 61.5 197 L 66 199.5 L 0 200 L 0 0 Z " /><path fill="rgb(226,174,167)" stroke="rgb(226,174,167)" stroke-width="1" opacity="1" d="M 80.5 30 Q 82.8 29.3 82 31.5 L 87 40.5 L 84.5 42 L 74.5 43 L 75 41.5 L 76 36.5 L 75 35.5 L 80.5 30 Z " /><path fill="rgb(226,174,167)" stroke="rgb(226,174,167)" stroke-width="1" opacity="1" d="M 74.5 37 L 74 38.5 L 73.5 40 L 73 38.5 L 74.5 37 Z " /><path fill="rgb(226,174,167)" stroke="rgb(226,174,167)" stroke-width="1" opacity="1" d="M 175.5 39 L 174.5 41 L 172.5 42 L 173.5 40 L 175.5 39 Z " /><path fill="rgb(226,174,167)" stroke="rgb(226,174,167)" stroke-width="1" opacity="1" d="M 72.5 41 L 73 43.5 L 72 43.5 L 72.5 41 Z " /><path fill="rgb(226,174,167)" stroke="rgb(226,174,167)" stroke-width="1" opacity="1" d="M 170.5 42 L 169.5 44 L 170.5 42 Z " /><path fill="rgb(226,174,167)" stroke="rgb(226,174,167)" stroke-width="1" opacity="1" d="M 176.5 42 L 177 59.5 L 176 59.5 L 176.5 42 Z " /><path fill="rgb(226,174,167)" stroke="rgb(226,174,167)" stroke-width="1" opacity="1" d="M 167.5 44 L 166.5 46 L 167.5 44 Z " /><path fill="rgb(226,174,167)" stroke="rgb(226,174,167)" stroke-width="1" opacity="1" d="M 163.5 47 L 162.5 49 L 163.5 47 Z " /><path fill="rgb(226,174,167)" stroke="rgb(226,174,167)" stroke-width="1" opacity="1" d="M 157.5 52 L 155.5 55 L 157.5 52 Z " /><path fill="rgb(226,174,167)" stroke="rgb(226,174,167)" stroke-width="1" opacity="1" d="M 162.5 62 L 165 62 L 165 67.5 Q 158.6 93.6 139.5 107 L 138 106.5 L 138 97.5 Q 142.5 78 155.5 67 L 162.5 62 Z " /><path fill="rgb(226,174,167)" stroke="rgb(226,174,167)" stroke-width="1" opacity="1" d="M 145.5 64 L 143.5 67 L 145.5 64 Z " /><path fill="rgb(226,174,167)" stroke="rgb(226,174,167)" stroke-width="1" opacity="1" d="M 139.5 72 L 138.5 74 L 139.5 72 Z " /><path fill="rgb(226,174,167)" stroke="rgb(226,174,167)" stroke-width="1" opacity="1" d="M 171.5 76 L 172 77.5 L 170.5 80 L 170 78.5 L 171.5 76 Z " /><path fill="rgb(226,174,167)" stroke="rgb(226,174,167)" stroke-width="1" opacity="1" d="M 167.5 84 L 166.5 86 L 167.5 84 Z " /><path fill="rgb(226,174,167)" stroke="rgb(226,174,167)" stroke-width="1" opacity="1" d="M 73.5 85 L 76 85.5 L 73.5 86 L 73.5 85 Z " /><path fill="rgb(226,174,167)" stroke="rgb(226,174,167)" stroke-width="1" opacity="1" d="M 165.5 87 L 163.5 90 L 165.5 87 Z " /><path fill="rgb(226,174,167)" stroke="rgb(226,174,167)" stroke-width="1" opacity="1" d="M 162.5 91 L 160.5 94 L 162.5 91 Z " /><path fill="rgb(226,174,167)" stroke="rgb(226,174,167)" stroke-width="1" opacity="1" d="M 157.5 97 L 151.5 104 L 157.5 97 Z " /><path fill="rgb(226,174,167)" stroke="rgb(226,174,167)" stroke-width="1" opacity="1" d="M 67.5 98 L 71 98.5 L 67.5 99 L 67.5 98 Z " /><path fill="rgb(226,174,167)" stroke="rgb(226,174,167)" stroke-width="1" opacity="1" d="M 83.5 98 L 87 98.5 L 83.5 99 L 83.5 98 Z " /><path fill="rgb(226,174,167)" stroke="rgb(226,174,167)" stroke-width="1" opacity="1" d="M 130.5 99 L 131 106.5 L 130 106.5 L 130.5 99 Z " /><path fill="rgb(226,174,167)" stroke="rgb(226,174,167)" stroke-width="1" opacity="1" d="M 148.5 107 L 144.5 112 L 148.5 107 Z " /><path fill="rgb(226,174,167)" stroke="rgb(226,174,167)" stroke-width="1" opacity="1" d="M 130.5 108 L 131 110.5 L 130 110.5 L 130.5 108 Z " /><path fill="rgb(226,174,167)" stroke="rgb(226,174,167)" stroke-width="1" opacity="1" d="M 129.5 113 L 122.5 121 L 102.5 132 L 89.5 136 L 77.5 137 L 70.5 133 L 66.5 133 L 59 136.5 L 58.5 138 L 49.5 136 L 45 133.5 L 48 127 L 71.5 129 L 72.5 128 L 85.5 128 L 101.5 125 L 123.5 117 L 125 117.5 L 126.5 115 L 129.5 113 Z " /><path fill="rgb(226,174,167)" stroke="rgb(226,174,167)" stroke-width="1" opacity="1" d="M 144.5 115 L 146.5 118 L 144.5 115 Z " /><path fill="rgb(226,174,167)" stroke="rgb(226,174,167)" stroke-width="1" opacity="1" d="M 148.5 118 L 153.5 124 L 148.5 118 Z " /><path fill="rgb(226,174,167)" stroke="rgb(226,174,167)" stroke-width="1" opacity="1" d="M 156.5 128 Q 159.9 130.6 159 137.5 L 153.5 145 Q 141.5 154 122.5 156 L 122.5 155 L 130.5 152 L 151 136.5 L 156.5 128 Z " /><path fill="rgb(226,174,167)" stroke="rgb(226,174,167)" stroke-width="1" opacity="1" d="M 133.5 134 L 136 137.5 L 135 137.5 L 133.5 134 Z " /><path fill="rgb(226,174,167)" stroke="rgb(226,174,167)" stroke-width="1" opacity="1" d="M 41.5 137 L 40.5 139 L 41.5 137 Z " /><path fill="rgb(226,174,167)" stroke="rgb(226,174,167)" stroke-width="1" opacity="1" d="M 114.5 138 L 115.5 140 L 114.5 138 Z " /><path fill="rgb(226,174,167)" stroke="rgb(226,174,167)" stroke-width="1" opacity="1" d="M 59.5 139 L 62 140.5 L 60.5 141 L 59.5 139 Z " /><path fill="rgb(226,174,167)" stroke="rgb(226,174,167)" stroke-width="1" opacity="1" d="M 64.5 141 L 72 142.5 L 66.5 143 L 64.5 141 Z " /><path fill="rgb(226,174,167)" stroke="rgb(226,174,167)" stroke-width="1" opacity="1" d="M 91.5 141 L 98.5 141 L 99 142.5 Q 101.8 144.3 97.5 146 L 92.5 147 L 89 142 L 91.5 141 Z M 93 142 L 91 143 L 91 144 Q 93 143 92 146 Q 97 147 98 144 Q 99 141 93 142 Z " /><path fill="rgb(226,174,167)" stroke="rgb(226,174,167)" stroke-width="1" opacity="1" d="M 120.5 141 L 129 141.5 L 120.5 142 L 120.5 141 Z " /><path fill="rgb(226,174,167)" stroke="rgb(226,174,167)" stroke-width="1" opacity="1" d="M 39.5 143 L 44 148.5 L 39 144.5 L 39.5 143 Z " /><path fill="rgb(226,174,167)" stroke="rgb(226,174,167)" stroke-width="1" opacity="1" d="M 63.5 155 L 67 155.5 L 63.5 156 L 63.5 155 Z " /><path fill="rgb(226,174,167)" stroke="rgb(226,174,167)" stroke-width="1" opacity="1" d="M 68.5 156 L 72 156.5 L 68.5 157 L 68.5 156 Z " /><path fill="rgb(226,174,167)" stroke="rgb(226,174,167)" stroke-width="1" opacity="1" d="M 75.5 157 L 78 157.5 L 75.5 158 L 75.5 157 Z " /><path fill="rgb(226,174,167)" stroke="rgb(226,174,167)" stroke-width="1" opacity="1" d="M 113.5 157 L 116 157.5 L 113.5 158 L 113.5 157 Z " /><path fill="rgb(226,174,167)" stroke="rgb(226,174,167)" stroke-width="1" opacity="1" d="M 90.5 158 L 96 158.5 L 90.5 159 L 90.5 158 Z " /><path fill="rgb(226,174,167)" stroke="rgb(226,174,167)" stroke-width="1" opacity="1" d="M 93.5 194 L 96 194.5 Q 94 199 92 195.5 L 93.5 194 Z " /><path fill="rgb(0,0,0)" stroke="rgb(0,0,0)" stroke-width="1" opacity="0.34509803921568627" d="M 82.5 21 L 88.5 28 L 82.5 21 Z " /><path fill="rgb(0,0,0)" stroke="rgb(0,0,0)" stroke-width="1" opacity="0.34509803921568627" d="M 77.5 22 L 71 29.5 L 69.5 32 L 70 30.5 L 77.5 22 Z " /><path fill="rgb(0,0,0)" stroke="rgb(0,0,0)" stroke-width="1" opacity="0.34509803921568627" d="M 89.5 29 L 92 32.5 L 90 31.5 L 89.5 29 Z " /><path fill="rgb(0,0,0)" stroke="rgb(0,0,0)" stroke-width="1" opacity="0.34509803921568627" d="M 175.5 31 L 178 31.5 L 175.5 32 L 175.5 31 Z " /><path fill="rgb(0,0,0)" stroke="rgb(0,0,0)" stroke-width="1" opacity="0.34509803921568627" d="M 68.5 33 L 68 34.5 L 65.5 40 L 65 38.5 L 68.5 33 Z " /><path fill="rgb(0,0,0)" stroke="rgb(0,0,0)" stroke-width="1" opacity="0.34509803921568627" d="M 171.5 33 L 170.5 35 L 171.5 33 Z " /><path fill="rgb(0,0,0)" stroke="rgb(0,0,0)" stroke-width="1" opacity="0.34509803921568627" d="M 92.5 34 L 94 37.5 L 93 37.5 L 92.5 34 Z " /><path fill="rgb(0,0,0)" stroke="rgb(0,0,0)" stroke-width="1" opacity="0.34509803921568627" d="M 182.5 34 L 183 37.5 L 182 37.5 L 182.5 34 Z " /><path fill="rgb(0,0,0)" stroke="rgb(0,0,0)" stroke-width="1" opacity="0.34509803921568627" d="M 166.5 36 L 164.5 39 L 161.5 41 L 163.5 38 L 166.5 36 Z " /><path fill="rgb(0,0,0)" stroke="rgb(0,0,0)" stroke-width="1" opacity="0.34509803921568627" d="M 183.5 39 L 184 43.5 L 183 43.5 L 183.5 39 Z " /><path fill="rgb(0,0,0)" stroke="rgb(0,0,0)" stroke-width="1" opacity="0.34509803921568627" d="M 94.5 40 L 100 41.5 L 95.5 42 L 94.5 40 Z " /><path fill="rgb(0,0,0)" stroke="rgb(0,0,0)" stroke-width="1" opacity="0.34509803921568627" d="M 64.5 41 L 65 44.5 L 63 45.5 L 64.5 41 Z " /><path fill="rgb(0,0,0)" stroke="rgb(0,0,0)" stroke-width="1" opacity="0.34509803921568627" d="M 159.5 41 L 157.5 44 L 159.5 41 Z " /><path fill="rgb(0,0,0)" stroke="rgb(0,0,0)" stroke-width="1" opacity="0.34509803921568627" d="M 106.5 42 L 110 42.5 L 106.5 43 L 106.5 42 Z " /><path fill="rgb(0,0,0)" stroke="rgb(0,0,0)" stroke-width="1" opacity="0.34509803921568627" d="M 114.5 43 L 118 43.5 L 114.5 44 L 114.5 43 Z " /><path fill="rgb(0,0,0)" stroke="rgb(0,0,0)" stroke-width="1" opacity="0.34509803921568627" d="M 120.5 44 L 124 44.5 L 120.5 45 L 120.5 44 Z " /><path fill="rgb(0,0,0)" stroke="rgb(0,0,0)" stroke-width="1" opacity="0.34509803921568627" d="M 125.5 45 L 128 45.5 L 125.5 46 L 125.5 45 Z " /><path fill="rgb(0,0,0)" stroke="rgb(0,0,0)" stroke-width="1" opacity="0.34509803921568627" d="M 154.5 45 L 149.5 51 L 154.5 45 Z " /><path fill="rgb(0,0,0)" stroke="rgb(0,0,0)" stroke-width="1" opacity="0.34509803921568627" d="M 184.5 47 L 185 55.5 L 184 55.5 L 184.5 47 Z " /><path fill="rgb(0,0,0)" stroke="rgb(0,0,0)" stroke-width="1" opacity="0.34509803921568627" d="M 51.5 50 L 53 50.5 L 50.5 52 L 51.5 50 Z " /><path fill="rgb(0,0,0)" stroke="rgb(0,0,0)" stroke-width="1" opacity="0.34509803921568627" d="M 143.5 51 L 146.5 52 L 148 51.5 L 144.5 53 L 143.5 51 Z " /><path fill="rgb(0,0,0)" stroke="rgb(0,0,0)" stroke-width="1" opacity="0.34509803921568627" d="M 46.5 53 L 43 57.5 L 44 61.5 L 42 60.5 L 42 57.5 L 46.5 53 Z " /><path fill="rgb(0,0,0)" stroke="rgb(0,0,0)" stroke-width="1" opacity="0.34509803921568627" d="M 183.5 59 L 184 62.5 L 183 62.5 L 183.5 59 Z " /><path fill="rgb(0,0,0)" stroke="rgb(0,0,0)" stroke-width="1" opacity="0.34509803921568627" d="M 182.5 65 L 183 67.5 L 182 67.5 L 182.5 65 Z " /><path fill="rgb(0,0,0)" stroke="rgb(0,0,0)" stroke-width="1" opacity="0.34509803921568627" d="M 178.5 78 L 179 79.5 L 176.5 84 L 176 82.5 L 178.5 78 Z " /><path fill="rgb(0,0,0)" stroke="rgb(0,0,0)" stroke-width="1" opacity="0.34509803921568627" d="M 51.5 82 L 52 85.5 L 51 85.5 L 51.5 82 Z " /><path fill="rgb(0,0,0)" stroke="rgb(0,0,0)" stroke-width="1" opacity="0.34509803921568627" d="M 175.5 85 L 175 86.5 L 170.5 93 L 172 90.5 L 175.5 85 Z " /><path fill="rgb(0,0,0)" stroke="rgb(0,0,0)" stroke-width="1" opacity="0.34509803921568627" d="M 24.5 86 L 28 86.5 L 24.5 87 L 24.5 86 Z " /><path fill="rgb(0,0,0)" stroke="rgb(0,0,0)" stroke-width="1" opacity="0.34509803921568627" d="M 34.5 86 L 39 86.5 L 34.5 87 L 34.5 86 Z " /><path fill="rgb(0,0,0)" stroke="rgb(0,0,0)" stroke-width="1" opacity="0.34509803921568627" d="M 21.5 87 L 23 87.5 L 18.5 90 L 19.5 88 L 21.5 87 Z " /><path fill="rgb(0,0,0)" stroke="rgb(0,0,0)" stroke-width="1" opacity="0.34509803921568627" d="M 42.5 87 L 46 87.5 L 42.5 88 L 42.5 87 Z " /><path fill="rgb(0,0,0)" stroke="rgb(0,0,0)" stroke-width="1" opacity="0.34509803921568627" d="M 49.5 88 L 52 88.5 L 49.5 89 L 49.5 88 Z " /><path fill="rgb(0,0,0)" stroke="rgb(0,0,0)" stroke-width="1" opacity="0.34509803921568627" d="M 16.5 90 L 16 91.5 L 14.5 94 L 15 92.5 L 16.5 90 Z " /><path fill="rgb(0,0,0)" stroke="rgb(0,0,0)" stroke-width="1" opacity="0.34509803921568627" d="M 169.5 94 L 169.5 96 L 174 98.5 L 172.5 98 L 168 97 L 169.5 94 Z " /><path fill="rgb(0,0,0)" stroke="rgb(0,0,0)" stroke-width="1" opacity="0.34509803921568627" d="M 13.5 95 L 14 102.5 L 13 102.5 L 13.5 95 Z " /><path fill="rgb(0,0,0)" stroke="rgb(0,0,0)" stroke-width="1" opacity="0.34509803921568627" d="M 175.5 99 L 176.5 101 L 175.5 99 Z " /><path fill="rgb(0,0,0)" stroke="rgb(0,0,0)" stroke-width="1" opacity="0.34509803921568627" d="M 178.5 101 L 181.5 105 L 178.5 101 Z " /><path fill="rgb(0,0,0)" stroke="rgb(0,0,0)" stroke-width="1" opacity="0.34509803921568627" d="M 14.5 104 L 17 108.5 L 15 107.5 L 14.5 104 Z " /><path fill="rgb(0,0,0)" stroke="rgb(0,0,0)" stroke-width="1" opacity="0.34509803921568627" d="M 17.5 110 L 21.5 115 L 17.5 110 Z " /><path fill="rgb(0,0,0)" stroke="rgb(0,0,0)" stroke-width="1" opacity="0.34509803921568627" d="M 183.5 110 L 184 114.5 L 183 114.5 L 183.5 110 Z " /><path fill="rgb(0,0,0)" stroke="rgb(0,0,0)" stroke-width="1" opacity="0.34509803921568627" d="M 23.5 115 L 24.5 117 L 23.5 115 Z " /><path fill="rgb(0,0,0)" stroke="rgb(0,0,0)" stroke-width="1" opacity="0.34509803921568627" d="M 182.5 116 L 183 117.5 L 176 123.5 L 182.5 116 Z " /><path fill="rgb(0,0,0)" stroke="rgb(0,0,0)" stroke-width="1" opacity="0.34509803921568627" d="M 26.5 117 L 29 118.5 L 27.5 119 L 26.5 117 Z " /><path fill="rgb(0,0,0)" stroke="rgb(0,0,0)" stroke-width="1" opacity="0.34509803921568627" d="M 30.5 119 L 35 121.5 L 33.5 122 L 30.5 119 Z " /><path fill="rgb(0,0,0)" stroke="rgb(0,0,0)" stroke-width="1" opacity="0.34509803921568627" d="M 40.5 125 L 41 126.5 L 37.5 131 L 39 128.5 L 40.5 125 Z " /><path fill="rgb(0,0,0)" stroke="rgb(0,0,0)" stroke-width="1" opacity="0.34509803921568627" d="M 165.5 126 L 166 128.5 L 165 128.5 L 165.5 126 Z " /><path fill="rgb(0,0,0)" stroke="rgb(0,0,0)" stroke-width="1" opacity="0.34509803921568627" d="M 36.5 132 L 34.5 135 L 36.5 132 Z " /><path fill="rgb(0,0,0)" stroke="rgb(0,0,0)" stroke-width="1" opacity="0.34509803921568627" d="M 163.5 146 L 160.5 150 L 163.5 146 Z " /><path fill="rgb(0,0,0)" stroke="rgb(0,0,0)" stroke-width="1" opacity="0.34509803921568627" d="M 33.5 148 L 34.5 150 L 33.5 148 Z " /><path fill="rgb(0,0,0)" stroke="rgb(0,0,0)" stroke-width="1" opacity="0.34509803921568627" d="M 158.5 150 L 157.5 152 L 158.5 150 Z " /><path fill="rgb(0,0,0)" stroke="rgb(0,0,0)" stroke-width="1" opacity="0.34509803921568627" d="M 155.5 152 L 154.5 154 L 151.5 155 L 151.5 154 L 155.5 152 Z " /><path fill="rgb(0,0,0)" stroke="rgb(0,0,0)" stroke-width="1" opacity="0.34509803921568627" d="M 38.5 153 L 39.5 155 L 38.5 153 Z " /><path fill="rgb(0,0,0)" stroke="rgb(0,0,0)" stroke-width="1" opacity="0.34509803921568627" d="M 41.5 155 L 45 157.5 L 43.5 157 L 41.5 155 Z " /><path fill="rgb(0,0,0)" stroke="rgb(0,0,0)" stroke-width="1" opacity="0.34509803921568627" d="M 146.5 156 L 148 156.5 L 144.5 158 L 144.5 157 L 146.5 156 Z " /><path fill="rgb(0,0,0)" stroke="rgb(0,0,0)" stroke-width="1" opacity="0.34509803921568627" d="M 56.5 161 L 59 161.5 L 56.5 162 L 56.5 161 Z " /><path fill="rgb(0,0,0)" stroke="rgb(0,0,0)" stroke-width="1" opacity="0.34509803921568627" d="M 133.5 161 L 132.5 163 L 133.5 161 Z " /><path fill="rgb(0,0,0)" stroke="rgb(0,0,0)" stroke-width="1" opacity="0.34509803921568627" d="M 60.5 162 L 64 162.5 L 60.5 163 L 60.5 162 Z " /><path fill="rgb(0,0,0)" stroke="rgb(0,0,0)" stroke-width="1" opacity="0.34509803921568627" d="M 65.5 163 L 70 163.5 L 65.5 164 L 65.5 163 Z " /><path fill="rgb(0,0,0)" stroke="rgb(0,0,0)" stroke-width="1" opacity="0.34509803921568627" d="M 71.5 164 L 68.5 168 L 71.5 164 Z " /><path fill="rgb(0,0,0)" stroke="rgb(0,0,0)" stroke-width="1" opacity="0.34509803921568627" d="M 133.5 164 L 135.5 167 L 133.5 164 Z " /><path fill="rgb(0,0,0)" stroke="rgb(0,0,0)" stroke-width="1" opacity="0.34509803921568627" d="M 65.5 169 L 60.5 175 L 65.5 169 Z " /><path fill="rgb(0,0,0)" stroke="rgb(0,0,0)" stroke-width="1" opacity="0.34509803921568627" d="M 59.5 176 L 58.5 178 L 59.5 176 Z " /><path fill="rgb(0,0,0)" stroke="rgb(0,0,0)" stroke-width="1" opacity="0.34509803921568627" d="M 56.5 181 L 57 183.5 L 56 183.5 L 56.5 181 Z " /><path fill="rgb(0,0,0)" stroke="rgb(0,0,0)" stroke-width="1" opacity="0.34509803921568627" d="M 143.5 184 L 144 188.5 L 143 188.5 L 143.5 184 Z " /><path fill="rgb(0,0,0)" stroke="rgb(0,0,0)" stroke-width="1" opacity="0.34509803921568627" d="M 56.5 187 L 57 189.5 L 56 189.5 L 56.5 187 Z " /><path fill="rgb(0,0,0)" stroke="rgb(0,0,0)" stroke-width="1" opacity="0.34509803921568627" d="M 58.5 193 L 61.5 197 L 58.5 193 Z " /><path fill="rgb(0,0,0)" stroke="rgb(0,0,0)" stroke-width="1" opacity="0.34509803921568627" d="M 140.5 196 L 138.5 199 L 140.5 196 Z " /><path fill="rgb(0,0,0)" stroke="rgb(0,0,0)" stroke-width="1" opacity="0.34509803921568627" d="M 65.5 198 Q 67.8 197.3 67 199.5 L 65.5 198 Z " /><path fill="rgb(46,109,176)" stroke="rgb(46,109,176)" stroke-width="1" opacity="1" d="M 81.5 49 L 104.5 49 L 105.5 50 L 120.5 51 L 134.5 55 L 141 58.5 Q 134.3 63.8 130.5 72 L 108.5 72 L 87 76 L 88 83 L 79.5 85 L 59 85 L 58 80.5 L 59 78.5 L 51 59.5 L 60.5 54 L 81.5 49 Z " /><path fill="rgb(46,109,176)" stroke="rgb(46,109,176)" stroke-width="1" opacity="1" d="M 152.5 56 L 146.5 63 L 152.5 56 Z " /><path fill="rgb(46,109,176)" stroke="rgb(46,109,176)" stroke-width="1" opacity="1" d="M 26.5 93 L 35.5 93 L 47.5 96 L 60.5 96 L 66.5 99 L 87 99 L 86 104.5 L 92.5 105 L 123 98 L 123 108.5 L 121.5 109 L 104.5 116 L 90.5 119 Q 85.8 117.8 84.5 120 L 55.5 120 L 39.5 116 L 23 105.5 Q 20.2 102.8 21 96.5 L 26.5 93 Z " /><path fill="rgb(46,109,176)" stroke="rgb(46,109,176)" stroke-width="1" opacity="1" d="M 162.5 103 Q 171.7 102.8 175 108.5 L 176 112.5 L 171.5 118 L 163.5 120 Q 156.6 118.4 154 112.5 L 162.5 103 Z " /><path fill="rgb(46,109,176)" stroke="rgb(46,109,176)" stroke-width="1" opacity="1" d="M 151.5 104 L 150.5 106 L 151.5 104 Z " /><path fill="rgb(46,109,176)" stroke="rgb(46,109,176)" stroke-width="1" opacity="1" d="M 100.5 158 L 104 158.5 L 100.5 159 L 100.5 158 Z " /><path fill="rgb(46,109,176)" stroke="rgb(46,109,176)" stroke-width="1" opacity="1" d="M 68.5 176 L 72.5 180 L 74.5 180 L 84.5 178 Q 87.8 179.2 87 183 L 75.5 191 L 68.5 192 L 64 188.5 L 64 181.5 L 68.5 176 Z " /><path fill="rgb(46,109,176)" stroke="rgb(46,109,176)" stroke-width="1" opacity="1" d="M 124.5 178 Q 132.5 176.5 135 180.5 L 136 189.5 Q 132 197 119.5 196 L 107 191 L 108 183.5 L 110.5 181 L 124.5 178 Z " /><path fill="rgb(46,109,176)" stroke="rgb(46,109,176)" stroke-width="1" opacity="1" d="M 93.5 193 L 92.5 195 L 91 194.5 L 93.5 193 Z " /><path fill="rgb(46,109,176)" stroke="rgb(46,109,176)" stroke-width="1" opacity="1" d="M 96.5 194 L 93.5 198 L 92.5 196 L 93.5 197 L 96.5 194 Z " /><path fill="rgb(46,109,176)" stroke="rgb(46,109,176)" stroke-width="1" opacity="1" d="M 83.5 195 L 87 199.5 L 76.5 200 L 76.5 199 L 83.5 195 Z " /><path fill="rgb(46,109,176)" stroke="rgb(46,109,176)" stroke-width="1" opacity="1" d="M 104.5 198 L 105.5 200 L 102 199.5 L 104.5 198 Z " /><path fill="rgb(207,142,61)" stroke="rgb(207,142,61)" stroke-width="1" opacity="1" d="M 79.5 30 L 77.5 33 L 79.5 30 Z " /><path fill="rgb(207,142,61)" stroke="rgb(207,142,61)" stroke-width="1" opacity="1" d="M 83.5 33 L 84.5 35 L 83.5 33 Z " /><path fill="rgb(207,142,61)" stroke="rgb(207,142,61)" stroke-width="1" opacity="1" d="M 159.5 50 L 158.5 52 L 159.5 50 Z " /><path fill="rgb(207,142,61)" stroke="rgb(207,142,61)" stroke-width="1" opacity="1" d="M 111.5 79 L 127.5 79 L 128 80.5 L 123.5 91 L 87.5 99 L 88 97.5 Q 86.6 87.9 89 84 L 86 83.5 L 111.5 79 Z " /><path fill="rgb(207,142,61)" stroke="rgb(207,142,61)" stroke-width="1" opacity="1" d="M 59 85 L 73 85.5 L 63 86 L 63 96.5 L 64 97.5 L 62.5 97 L 60 95.5 L 59 85 Z " /><path fill="rgb(207,142,61)" stroke="rgb(207,142,61)" stroke-width="1" opacity="1" d="M 159.5 95 L 158.5 97 L 159.5 95 Z " /><path fill="rgb(207,142,61)" stroke="rgb(207,142,61)" stroke-width="1" opacity="1" d="M 48.5 126 L 51 126.5 L 48.5 127 L 48.5 126 Z " /><path fill="rgb(207,142,61)" stroke="rgb(207,142,61)" stroke-width="1" opacity="1" d="M 82.5 127 L 86 127.5 L 82.5 128 L 82.5 127 Z " /><path fill="rgb(207,142,61)" stroke="rgb(207,142,61)" stroke-width="1" opacity="1" d="M 64.5 128 L 72 128.5 L 64.5 129 L 64.5 128 Z " /><path fill="rgb(207,142,61)" stroke="rgb(207,142,61)" stroke-width="1" opacity="1" d="M 44.5 133 L 43.5 135 L 44.5 133 Z " /><path fill="rgb(207,142,61)" stroke="rgb(207,142,61)" stroke-width="1" opacity="1" d="M 68.5 133 L 71 133.5 L 68.5 134 L 68.5 133 Z " /><path fill="rgb(207,142,61)" stroke="rgb(207,142,61)" stroke-width="1" opacity="1" d="M 76.5 136 L 77.5 138 L 76.5 136 Z " /><path fill="rgb(207,142,61)" stroke="rgb(207,142,61)" stroke-width="1" opacity="1" d="M 157.5 140 L 156.5 142 L 157.5 140 Z " /><path fill="rgb(207,142,61)" stroke="rgb(207,142,61)" stroke-width="1" opacity="1" d="M 92.5 142 Q 98.6 140.8 98 143.5 Q 96.7 147 92 146 Q 93.1 143.3 90.5 144 L 90.5 143 L 92.5 142 Z " /><path fill="rgb(207,142,61)" stroke="rgb(207,142,61)" stroke-width="1" opacity="1" d="M 152.5 145 L 151.5 147 L 152.5 145 Z " /><path fill="rgb(207,142,61)" stroke="rgb(207,142,61)" stroke-width="1" opacity="1" d="M 121.5 156 L 124 156.5 L 121.5 157 L 121.5 156 Z " /><path fill="rgb(207,142,61)" stroke="rgb(207,142,61)" stroke-width="1" opacity="1" d="M 83.5 158 L 90 158.5 L 83.5 159 L 83.5 158 Z " /><path fill="rgb(207,142,61)" stroke="rgb(207,142,61)" stroke-width="1" opacity="1" d="M 96.5 158 L 100 158.5 L 96.5 159 L 96.5 158 Z " /><path fill="rgb(207,142,61)" stroke="rgb(207,142,61)" stroke-width="1" opacity="1" d="M 117.5 164 L 122.5 165 L 129 169 Q 130.3 172.3 125.5 171 Q 123.7 168.3 117.5 170 L 116.5 172 L 119 172.5 L 115 173 Q 114.1 167 117.5 164 Z " /><path fill="rgb(207,142,61)" stroke="rgb(207,142,61)" stroke-width="1" opacity="1" d="M 105.5 165 Q 112.3 162.8 110 169.5 L 107.5 176 L 96.5 172 L 87 172 Q 85.8 167.4 88.5 166 Q 96.3 164.7 98.5 169 L 105.5 165 Z " /><path fill="rgb(207,142,61)" stroke="rgb(207,142,61)" stroke-width="1" opacity="1" d="M 80.5 167 L 81 172 Q 77.3 173.5 78 170.5 L 76 171.5 L 76.5 173 L 74 171.5 L 80.5 167 Z " /><path fill="rgb(207,142,61)" stroke="rgb(207,142,61)" stroke-width="1" opacity="1" d="M 85.5 178 L 87.5 178 Q 92 177 93 179.5 L 91.5 179 L 86.5 180 L 85.5 178 Z " /><path fill="rgb(207,142,61)" stroke="rgb(207,142,61)" stroke-width="1" opacity="1" d="M 96.5 185 L 100 187.5 L 98.5 188 L 95 186.5 L 96.5 185 Z " /><path fill="rgb(207,142,61)" stroke="rgb(207,142,61)" stroke-width="1" opacity="1" d="M 107.5 185 L 108 187.5 L 107 191 L 101 188.5 Q 102.4 185.8 107 187 L 107.5 185 Z " /><path fill="rgb(253,231,223)" stroke="rgb(253,231,223)" stroke-width="1" opacity="1" d="M 76.5 35 L 76 36.5 Q 76.6 41.6 73.5 43 L 73 40.5 L 76.5 35 Z " /><path fill="rgb(253,231,223)" stroke="rgb(253,231,223)" stroke-width="1" opacity="1" d="M 175.5 40 L 176 62.5 L 170 80.5 L 160 95 Q 157.3 93.9 158 96.5 L 143 113.5 L 146.5 118 L 156 126.5 Q 154.1 135.6 147.5 140 L 130.5 152 L 118.5 157 Q 113.8 155.8 112.5 158 L 78.5 158 L 56.5 154 L 47.5 151 L 40 144.5 L 39 141.5 L 44.5 134 L 53.5 137 L 57.5 137 L 59 138.5 L 60.5 141 Q 65.1 140.4 66.5 143 L 71.5 143 L 78 141 Q 75.8 135 82.5 137 L 102.5 132 L 118.5 124 L 125 118.5 L 124.5 117 L 125.5 118 L 130 113.5 L 131 110.5 L 131 92.5 L 135 80.5 Q 141.8 64.8 154.5 55 L 175.5 40 Z M 163 62 L 156 67 Q 143 78 138 98 L 138 107 L 140 107 Q 159 94 165 68 L 165 62 L 163 62 Z M 122 132 L 117 134 Q 113 134 114 139 L 121 142 L 129 142 L 134 140 L 136 137 L 132 133 L 122 132 Z M 92 141 L 89 142 L 93 147 L 98 146 Q 102 144 99 143 L 99 141 L 92 141 Z " /><path fill="rgb(0,0,0)" stroke="rgb(0,0,0)" stroke-width="1" opacity="0.8392156862745098" d="M 80.5 21 L 83 22.5 L 81.5 22 L 80.5 21 Z " /><path fill="rgb(0,0,0)" stroke="rgb(0,0,0)" stroke-width="1" opacity="0.8392156862745098" d="M 74.5 26 L 71.5 30 L 74.5 26 Z " /><path fill="rgb(0,0,0)" stroke="rgb(0,0,0)" stroke-width="1" opacity="0.8392156862745098" d="M 87.5 27 L 88.5 29 L 87.5 27 Z " /><path fill="rgb(0,0,0)" stroke="rgb(0,0,0)" stroke-width="1" opacity="0.8392156862745098" d="M 178.5 31 L 181 31.5 L 178.5 32 L 178.5 31 Z " /><path fill="rgb(0,0,0)" stroke="rgb(0,0,0)" stroke-width="1" opacity="0.8392156862745098" d="M 174.5 32 L 177 32.5 L 171.5 35 L 172.5 33 L 174.5 32 Z " /><path fill="rgb(0,0,0)" stroke="rgb(0,0,0)" stroke-width="1" opacity="0.8392156862745098" d="M 167.5 36 L 166.5 38 L 167.5 36 Z " /><path fill="rgb(0,0,0)" stroke="rgb(0,0,0)" stroke-width="1" opacity="0.8392156862745098" d="M 93.5 38 L 95 41.5 L 93 42 L 93.5 38 Z " /><path fill="rgb(0,0,0)" stroke="rgb(0,0,0)" stroke-width="1" opacity="0.8392156862745098" d="M 160.5 41 L 158.5 44 L 160.5 41 Z " /><path fill="rgb(0,0,0)" stroke="rgb(0,0,0)" stroke-width="1" opacity="0.8392156862745098" d="M 101.5 42 L 106 42.5 L 101.5 43 L 101.5 42 Z " /><path fill="rgb(0,0,0)" stroke="rgb(0,0,0)" stroke-width="1" opacity="0.8392156862745098" d="M 110.5 43 L 114 43.5 L 110.5 44 L 110.5 43 Z " /><path fill="rgb(0,0,0)" stroke="rgb(0,0,0)" stroke-width="1" opacity="0.8392156862745098" d="M 117.5 44 L 120 44.5 L 117.5 45 L 117.5 44 Z " /><path fill="rgb(0,0,0)" stroke="rgb(0,0,0)" stroke-width="1" opacity="0.8392156862745098" d="M 156.5 44 L 152.5 49 L 156.5 44 Z " /><path fill="rgb(0,0,0)" stroke="rgb(0,0,0)" stroke-width="1" opacity="0.8392156862745098" d="M 183.5 44 L 184 58.5 L 183 58.5 L 183.5 44 Z " /><path fill="rgb(0,0,0)" stroke="rgb(0,0,0)" stroke-width="1" opacity="0.8392156862745098" d="M 64.5 45 L 63.5 47 L 62 46.5 L 64.5 45 Z " /><path fill="rgb(0,0,0)" stroke="rgb(0,0,0)" stroke-width="1" opacity="0.8392156862745098" d="M 134.5 48 L 138 49.5 L 136.5 50 L 134.5 48 Z " /><path fill="rgb(0,0,0)" stroke="rgb(0,0,0)" stroke-width="1" opacity="0.8392156862745098" d="M 148.5 51 L 148 52.5 Q 148.8 55.1 145.5 54 L 145.5 53 L 148.5 51 Z " /><path fill="rgb(0,0,0)" stroke="rgb(0,0,0)" stroke-width="1" opacity="0.8392156862745098" d="M 47.5 53 L 45.5 56 L 47.5 53 Z " /><path fill="rgb(0,0,0)" stroke="rgb(0,0,0)" stroke-width="1" opacity="0.8392156862745098" d="M 182.5 62 L 183 64.5 L 182 64.5 L 182.5 62 Z " /><path fill="rgb(0,0,0)" stroke="rgb(0,0,0)" stroke-width="1" opacity="0.8392156862745098" d="M 51.5 79 L 52 81.5 L 51 81.5 L 51.5 79 Z " /><path fill="rgb(0,0,0)" stroke="rgb(0,0,0)" stroke-width="1" opacity="0.8392156862745098" d="M 175.5 83 L 176 84.5 L 174 85.5 L 175.5 83 Z " /><path fill="rgb(0,0,0)" stroke="rgb(0,0,0)" stroke-width="1" opacity="0.8392156862745098" d="M 52.5 85 L 53 88.5 L 52 88.5 L 52.5 85 Z " /><path fill="rgb(0,0,0)" stroke="rgb(0,0,0)" stroke-width="1" opacity="0.8392156862745098" d="M 28.5 86 L 34 86.5 L 28.5 87 L 28.5 86 Z " /><path fill="rgb(0,0,0)" stroke="rgb(0,0,0)" stroke-width="1" opacity="0.8392156862745098" d="M 23.5 87 L 26 87.5 L 23.5 88 L 23.5 87 Z " /><path fill="rgb(0,0,0)" stroke="rgb(0,0,0)" stroke-width="1" opacity="0.8392156862745098" d="M 38.5 87 L 42 87.5 L 38.5 88 L 38.5 87 Z " /><path fill="rgb(0,0,0)" stroke="rgb(0,0,0)" stroke-width="1" opacity="0.8392156862745098" d="M 173.5 87 L 172.5 89 L 173.5 87 Z " /><path fill="rgb(0,0,0)" stroke="rgb(0,0,0)" stroke-width="1" opacity="0.8392156862745098" d="M 43.5 88 L 49 88.5 L 43.5 89 L 43.5 88 Z " /><path fill="rgb(0,0,0)" stroke="rgb(0,0,0)" stroke-width="1" opacity="0.8392156862745098" d="M 17.5 90 L 16.5 92 L 17.5 90 Z " /><path fill="rgb(0,0,0)" stroke="rgb(0,0,0)" stroke-width="1" opacity="0.8392156862745098" d="M 15.5 93 L 15 94.5 L 14.5 96 L 14 94.5 L 15.5 93 Z " /><path fill="rgb(0,0,0)" stroke="rgb(0,0,0)" stroke-width="1" opacity="0.8392156862745098" d="M 177.5 101 L 181.5 106 L 177.5 101 Z " /><path fill="rgb(0,0,0)" stroke="rgb(0,0,0)" stroke-width="1" opacity="0.8392156862745098" d="M 17.5 109 L 22.5 115 L 17.5 109 Z " /><path fill="rgb(0,0,0)" stroke="rgb(0,0,0)" stroke-width="1" opacity="0.8392156862745098" d="M 182.5 113 L 183 115.5 L 182 115.5 L 182.5 113 Z " /><path fill="rgb(0,0,0)" stroke="rgb(0,0,0)" stroke-width="1" opacity="0.8392156862745098" d="M 24.5 115 L 25.5 117 L 24.5 115 Z " /><path fill="rgb(0,0,0)" stroke="rgb(0,0,0)" stroke-width="1" opacity="0.8392156862745098" d="M 181.5 117 L 180.5 119 L 181.5 117 Z " /><path fill="rgb(0,0,0)" stroke="rgb(0,0,0)" stroke-width="1" opacity="0.8392156862745098" d="M 176.5 122 L 175.5 124 L 172.5 125 L 172.5 124 L 176.5 122 Z " /><path fill="rgb(0,0,0)" stroke="rgb(0,0,0)" stroke-width="1" opacity="0.8392156862745098" d="M 40.5 123 Q 42.8 122.3 42 124.5 L 40.5 123 Z " /><path fill="rgb(0,0,0)" stroke="rgb(0,0,0)" stroke-width="1" opacity="0.8392156862745098" d="M 38.5 130 L 37.5 132 L 38.5 130 Z " /><path fill="rgb(0,0,0)" stroke="rgb(0,0,0)" stroke-width="1" opacity="0.8392156862745098" d="M 36.5 133 L 35 135.5 L 33.5 139 L 33 137.5 L 36.5 133 Z " /><path fill="rgb(0,0,0)" stroke="rgb(0,0,0)" stroke-width="1" opacity="0.8392156862745098" d="M 32.5 140 L 33 144.5 L 32 144.5 L 32.5 140 Z " /><path fill="rgb(0,0,0)" stroke="rgb(0,0,0)" stroke-width="1" opacity="0.8392156862745098" d="M 163.5 145 L 159.5 150 L 163.5 145 Z " /><path fill="rgb(0,0,0)" stroke="rgb(0,0,0)" stroke-width="1" opacity="0.8392156862745098" d="M 33.5 146 L 36 150.5 L 35 150.5 L 33.5 146 Z " /><path fill="rgb(0,0,0)" stroke="rgb(0,0,0)" stroke-width="1" opacity="0.8392156862745098" d="M 157.5 150 L 156.5 152 L 157.5 150 Z " /><path fill="rgb(0,0,0)" stroke="rgb(0,0,0)" stroke-width="1" opacity="0.8392156862745098" d="M 37.5 152 L 41 154.5 L 38.5 153 L 37.5 152 Z " /><path fill="rgb(0,0,0)" stroke="rgb(0,0,0)" stroke-width="1" opacity="0.8392156862745098" d="M 44.5 156 L 47 157.5 L 45.5 158 L 44.5 156 Z " /><path fill="rgb(0,0,0)" stroke="rgb(0,0,0)" stroke-width="1" opacity="0.8392156862745098" d="M 142.5 157 L 144 157.5 L 140.5 159 L 140.5 158 L 142.5 157 Z " /><path fill="rgb(0,0,0)" stroke="rgb(0,0,0)" stroke-width="1" opacity="0.8392156862745098" d="M 132.5 161 L 132 162.5 L 137 168.5 L 130 162.5 L 132.5 161 Z " /><path fill="rgb(0,0,0)" stroke="rgb(0,0,0)" stroke-width="1" opacity="0.8392156862745098" d="M 64.5 162 L 67 162.5 L 64.5 163 L 64.5 162 Z " /><path fill="rgb(0,0,0)" stroke="rgb(0,0,0)" stroke-width="1" opacity="0.8392156862745098" d="M 70.5 163 L 74 164.5 L 69.5 168 L 71.5 164 L 70.5 163 Z " /><path fill="rgb(0,0,0)" stroke="rgb(0,0,0)" stroke-width="1" opacity="0.8392156862745098" d="M 67.5 168 L 60.5 176 L 67.5 168 Z " /><path fill="rgb(0,0,0)" stroke="rgb(0,0,0)" stroke-width="1" opacity="0.8392156862745098" d="M 137.5 170 L 138.5 172 L 137.5 170 Z " /><path fill="rgb(0,0,0)" stroke="rgb(0,0,0)" stroke-width="1" opacity="0.8392156862745098" d="M 139.5 173 L 141 175.5 L 139 174.5 L 139.5 173 Z " /><path fill="rgb(0,0,0)" stroke="rgb(0,0,0)" stroke-width="1" opacity="0.8392156862745098" d="M 142.5 181 L 143 184.5 L 142 184.5 L 142.5 181 Z " /><path fill="rgb(0,0,0)" stroke="rgb(0,0,0)" stroke-width="1" opacity="0.8392156862745098" d="M 56.5 184 L 57 186.5 L 56 186.5 L 56.5 184 Z " /><path fill="rgb(0,0,0)" stroke="rgb(0,0,0)" stroke-width="1" opacity="0.8392156862745098" d="M 142.5 188 L 143 190.5 L 142 190.5 L 142.5 188 Z " /><path fill="rgb(0,0,0)" stroke="rgb(0,0,0)" stroke-width="1" opacity="0.8392156862745098" d="M 58.5 192 L 62.5 197 L 58.5 192 Z " /><path fill="rgb(0,0,0)" stroke="rgb(0,0,0)" stroke-width="1" opacity="0.8392156862745098" d="M 140.5 195 L 137.5 199 L 140.5 195 Z " /><path fill="rgb(44,57,87)" stroke="rgb(44,57,87)" stroke-width="1" opacity="1" d="M 79.5 29 L 82 29.5 L 79.5 30 L 79.5 29 Z " /><path fill="rgb(44,57,87)" stroke="rgb(44,57,87)" stroke-width="1" opacity="1" d="M 76.5 33 L 75.5 35 L 76.5 33 Z " /><path fill="rgb(44,57,87)" stroke="rgb(44,57,87)" stroke-width="1" opacity="1" d="M 172.5 40 L 171.5 42 L 172.5 40 Z " /><path fill="rgb(44,57,87)" stroke="rgb(44,57,87)" stroke-width="1" opacity="1" d="M 71.5 41 L 72 43.5 L 71 43.5 L 71.5 41 Z " /><path fill="rgb(44,57,87)" stroke="rgb(44,57,87)" stroke-width="1" opacity="1" d="M 80.5 42 L 84 42.5 L 80.5 43 L 80.5 42 Z " /><path fill="rgb(44,57,87)" stroke="rgb(44,57,87)" stroke-width="1" opacity="1" d="M 169.5 42 L 168.5 44 L 169.5 42 Z " /><path fill="rgb(44,57,87)" stroke="rgb(44,57,87)" stroke-width="1" opacity="1" d="M 74.5 43 L 77 43.5 L 74.5 44 L 74.5 43 Z " /><path fill="rgb(44,57,87)" stroke="rgb(44,57,87)" stroke-width="1" opacity="1" d="M 177.5 45 L 178 57.5 L 177 57.5 L 177.5 45 Z " /><path fill="rgb(44,57,87)" stroke="rgb(44,57,87)" stroke-width="1" opacity="1" d="M 91.5 48 L 100 48.5 L 91.5 49 L 91.5 48 Z " /><path fill="rgb(44,57,87)" stroke="rgb(44,57,87)" stroke-width="1" opacity="1" d="M 78.5 49 L 81 49.5 L 78.5 50 L 78.5 49 Z " /><path fill="rgb(44,57,87)" stroke="rgb(44,57,87)" stroke-width="1" opacity="1" d="M 105.5 49 L 110 49.5 L 105.5 50 L 105.5 49 Z " /><path fill="rgb(44,57,87)" stroke="rgb(44,57,87)" stroke-width="1" opacity="1" d="M 72.5 50 L 75 50.5 L 72.5 51 L 72.5 50 Z " /><path fill="rgb(44,57,87)" stroke="rgb(44,57,87)" stroke-width="1" opacity="1" d="M 114.5 50 L 118 50.5 L 114.5 51 L 114.5 50 Z " /><path fill="rgb(44,57,87)" stroke="rgb(44,57,87)" stroke-width="1" opacity="1" d="M 157.5 51 L 153.5 56 L 157.5 51 Z " /><path fill="rgb(44,57,87)" stroke="rgb(44,57,87)" stroke-width="1" opacity="1" d="M 51.5 58 L 51 59.5 L 50.5 61 L 50 59.5 L 51.5 58 Z " /><path fill="rgb(44,57,87)" stroke="rgb(44,57,87)" stroke-width="1" opacity="1" d="M 141.5 58 L 136 64.5 L 132.5 70 L 133 68.5 L 141.5 58 Z " /><path fill="rgb(44,57,87)" stroke="rgb(44,57,87)" stroke-width="1" opacity="1" d="M 176.5 61 L 177 63.5 L 176 63.5 L 176.5 61 Z " /><path fill="rgb(44,57,87)" stroke="rgb(44,57,87)" stroke-width="1" opacity="1" d="M 145.5 63 L 144.5 65 L 145.5 63 Z " /><path fill="rgb(44,57,87)" stroke="rgb(44,57,87)" stroke-width="1" opacity="1" d="M 141.5 68 L 140.5 70 L 141.5 68 Z " /><path fill="rgb(44,57,87)" stroke="rgb(44,57,87)" stroke-width="1" opacity="1" d="M 131.5 71 L 131 72.5 L 127.5 79 L 111.5 79 L 88 83 L 87 76 L 108.5 72 L 130.5 72 L 131.5 71 Z " /><path fill="rgb(44,57,87)" stroke="rgb(44,57,87)" stroke-width="1" opacity="1" d="M 139.5 71 L 138.5 73 L 139.5 71 Z " /><path fill="rgb(44,57,87)" stroke="rgb(44,57,87)" stroke-width="1" opacity="1" d="M 57.5 76 L 59 79.5 L 58 79.5 L 57.5 76 Z " /><path fill="rgb(44,57,87)" stroke="rgb(44,57,87)" stroke-width="1" opacity="1" d="M 58.5 81 L 59 86.5 L 58 86.5 L 58.5 81 Z " /><path fill="rgb(44,57,87)" stroke="rgb(44,57,87)" stroke-width="1" opacity="1" d="M 169.5 82 L 169 83.5 L 166.5 87 L 168 84.5 L 169.5 82 Z " /><path fill="rgb(44,57,87)" stroke="rgb(44,57,87)" stroke-width="1" opacity="1" d="M 165.5 88 L 164.5 90 L 165.5 88 Z " /><path fill="rgb(44,57,87)" stroke="rgb(44,57,87)" stroke-width="1" opacity="1" d="M 120.5 91 Q 125.8 89.3 124 94.5 L 123 97.5 L 124 98.5 L 124 108.5 L 123 108.5 L 123 98.5 L 119.5 98 L 98.5 104 L 86.5 105 L 87 103.5 Q 86 99 88.5 98 L 99.5 97 L 120.5 91 Z " /><path fill="rgb(44,57,87)" stroke="rgb(44,57,87)" stroke-width="1" opacity="1" d="M 130.5 92 L 131 95.5 L 130 95.5 L 130.5 92 Z " /><path fill="rgb(44,57,87)" stroke="rgb(44,57,87)" stroke-width="1" opacity="1" d="M 161.5 93 L 160.5 95 L 161.5 93 Z " /><path fill="rgb(44,57,87)" stroke="rgb(44,57,87)" stroke-width="1" opacity="1" d="M 42.5 94 L 45 94.5 L 42.5 95 L 42.5 94 Z " /><path fill="rgb(44,57,87)" stroke="rgb(44,57,87)" stroke-width="1" opacity="1" d="M 58.5 94 Q 61.1 93.3 60 96 L 54 95.5 L 58.5 94 Z " /><path fill="rgb(44,57,87)" stroke="rgb(44,57,87)" stroke-width="1" opacity="1" d="M 47.5 95 L 53 95.5 L 47.5 96 L 47.5 95 Z " /><path fill="rgb(44,57,87)" stroke="rgb(44,57,87)" stroke-width="1" opacity="1" d="M 20.5 97 Q 20.5 104 24.5 107 L 39 115.5 L 37.5 116 L 22 105.5 Q 18.9 102.5 20.5 97 Z " /><path fill="rgb(44,57,87)" stroke="rgb(44,57,87)" stroke-width="1" opacity="1" d="M 156.5 99 L 152.5 104 L 156.5 99 Z " /><path fill="rgb(44,57,87)" stroke="rgb(44,57,87)" stroke-width="1" opacity="1" d="M 166.5 103 L 169 103.5 L 166.5 104 L 166.5 103 Z " /><path fill="rgb(44,57,87)" stroke="rgb(44,57,87)" stroke-width="1" opacity="1" d="M 160.5 105 L 154 112.5 L 159.5 119 L 153 112.5 L 160.5 105 Z " /><path fill="rgb(44,57,87)" stroke="rgb(44,57,87)" stroke-width="1" opacity="1" d="M 172.5 105 L 174.5 108 L 172.5 105 Z " /><path fill="rgb(44,57,87)" stroke="rgb(44,57,87)" stroke-width="1" opacity="1" d="M 121.5 109 L 120.5 111 L 117.5 112 L 117.5 111 L 121.5 109 Z " /><path fill="rgb(44,57,87)" stroke="rgb(44,57,87)" stroke-width="1" opacity="1" d="M 114.5 112 L 116 112.5 L 108.5 115 L 108.5 114 L 114.5 112 Z " /><path fill="rgb(44,57,87)" stroke="rgb(44,57,87)" stroke-width="1" opacity="1" d="M 175.5 113 L 176 114.5 L 172 117.5 L 175.5 113 Z " /><path fill="rgb(44,57,87)" stroke="rgb(44,57,87)" stroke-width="1" opacity="1" d="M 126.5 114 L 125.5 116 L 126.5 114 Z " /><path fill="rgb(44,57,87)" stroke="rgb(44,57,87)" stroke-width="1" opacity="1" d="M 144.5 114 L 146.5 117 L 144.5 114 Z " /><path fill="rgb(44,57,87)" stroke="rgb(44,57,87)" stroke-width="1" opacity="1" d="M 101.5 116 L 104 116.5 L 101.5 117 L 101.5 116 Z " /><path fill="rgb(44,57,87)" stroke="rgb(44,57,87)" stroke-width="1" opacity="1" d="M 43.5 117 L 55 119.5 L 50.5 120 L 43.5 118 L 43.5 117 Z " /><path fill="rgb(44,57,87)" stroke="rgb(44,57,87)" stroke-width="1" opacity="1" d="M 96.5 117 L 100 117.5 L 91.5 119 L 91.5 118 L 96.5 117 Z " /><path fill="rgb(44,57,87)" stroke="rgb(44,57,87)" stroke-width="1" opacity="1" d="M 169.5 118 L 171 118.5 L 166.5 120 L 166.5 119 L 169.5 118 Z " /><path fill="rgb(44,57,87)" stroke="rgb(44,57,87)" stroke-width="1" opacity="1" d="M 85.5 119 L 90 119.5 L 85.5 120 L 85.5 119 Z " /><path fill="rgb(44,57,87)" stroke="rgb(44,57,87)" stroke-width="1" opacity="1" d="M 56.5 120 L 83 120.5 L 56.5 121 L 56.5 120 Z " /><path fill="rgb(44,57,87)" stroke="rgb(44,57,87)" stroke-width="1" opacity="1" d="M 86.5 126 L 90 126.5 L 86.5 127 L 86.5 126 Z " /><path fill="rgb(44,57,87)" stroke="rgb(44,57,87)" stroke-width="1" opacity="1" d="M 56.5 127 L 63 127.5 L 56.5 128 L 56.5 127 Z " /><path fill="rgb(44,57,87)" stroke="rgb(44,57,87)" stroke-width="1" opacity="1" d="M 74.5 127 L 82 127.5 L 74.5 128 L 74.5 127 Z " /><path fill="rgb(44,57,87)" stroke="rgb(44,57,87)" stroke-width="1" opacity="1" d="M 45.5 131 L 44.5 133 L 45.5 131 Z " /><path fill="rgb(44,57,87)" stroke="rgb(44,57,87)" stroke-width="1" opacity="1" d="M 159.5 133 L 160 135.5 L 159 135.5 L 159.5 133 Z " /><path fill="rgb(44,57,87)" stroke="rgb(44,57,87)" stroke-width="1" opacity="1" d="M 41.5 136 L 40.5 138 L 41.5 136 Z " /><path fill="rgb(44,57,87)" stroke="rgb(44,57,87)" stroke-width="1" opacity="1" d="M 59.5 137 L 61 139.5 L 59 138.5 L 59.5 137 Z " /><path fill="rgb(44,57,87)" stroke="rgb(44,57,87)" stroke-width="1" opacity="1" d="M 77.5 138 L 78 139.5 L 76 140.5 L 77.5 138 Z " /><path fill="rgb(44,57,87)" stroke="rgb(44,57,87)" stroke-width="1" opacity="1" d="M 67.5 141 L 74 141.5 L 67.5 142 L 67.5 141 Z " /><path fill="rgb(44,57,87)" stroke="rgb(44,57,87)" stroke-width="1" opacity="1" d="M 156.5 142 L 155.5 144 L 156.5 142 Z " /><path fill="rgb(44,57,87)" stroke="rgb(44,57,87)" stroke-width="1" opacity="1" d="M 39.5 145 L 42.5 149 L 39.5 145 Z " /><path fill="rgb(44,57,87)" stroke="rgb(44,57,87)" stroke-width="1" opacity="1" d="M 64.5 156 L 67 156.5 L 64.5 157 L 64.5 156 Z " /><path fill="rgb(44,57,87)" stroke="rgb(44,57,87)" stroke-width="1" opacity="1" d="M 124.5 156 L 127 156.5 L 124.5 157 L 124.5 156 Z " /><path fill="rgb(44,57,87)" stroke="rgb(44,57,87)" stroke-width="1" opacity="1" d="M 71.5 157 L 74 157.5 L 71.5 158 L 71.5 157 Z " /><path fill="rgb(44,57,87)" stroke="rgb(44,57,87)" stroke-width="1" opacity="1" d="M 78.5 158 L 83 158.5 L 78.5 159 L 78.5 158 Z " /><path fill="rgb(44,57,87)" stroke="rgb(44,57,87)" stroke-width="1" opacity="1" d="M 104.5 158 L 113 158.5 L 104.5 159 L 104.5 158 Z " /><path fill="rgb(44,57,87)" stroke="rgb(44,57,87)" stroke-width="1" opacity="1" d="M 83.5 166 L 84 170 Q 79.5 171.5 81 167 L 83.5 166 Z " /><path fill="rgb(44,57,87)" stroke="rgb(44,57,87)" stroke-width="1" opacity="1" d="M 129.5 170 L 135 179.5 L 133.5 179 L 124.5 178 L 120.5 179 Q 119.1 175 114 176 Q 112.2 171.1 118.5 173 L 129.5 170 Z " /><path fill="rgb(44,57,87)" stroke="rgb(44,57,87)" stroke-width="1" opacity="1" d="M 73.5 172 L 76.5 173 L 80.5 172 L 80 173.5 Q 77.8 179.8 83.5 178 L 83.5 179 L 72.5 180 L 69 175.5 L 73.5 172 Z " /><path fill="rgb(44,57,87)" stroke="rgb(44,57,87)" stroke-width="1" opacity="1" d="M 66.5 178 L 64.5 181 L 66.5 178 Z " /><path fill="rgb(44,57,87)" stroke="rgb(44,57,87)" stroke-width="1" opacity="1" d="M 135.5 181 L 136 183.5 L 135 183.5 L 135.5 181 Z " /><path fill="rgb(44,57,87)" stroke="rgb(44,57,87)" stroke-width="1" opacity="1" d="M 63.5 182 L 64 187.5 L 63 187.5 L 63.5 182 Z " /><path fill="rgb(44,57,87)" stroke="rgb(44,57,87)" stroke-width="1" opacity="1" d="M 87.5 182 L 89 182.5 L 76.5 191 L 78.5 188 L 87.5 182 Z " /><path fill="rgb(44,57,87)" stroke="rgb(44,57,87)" stroke-width="1" opacity="1" d="M 64.5 189 L 65.5 191 L 64.5 189 Z " /><path fill="rgb(44,57,87)" stroke="rgb(44,57,87)" stroke-width="1" opacity="1" d="M 135.5 190 L 135 191.5 Q 135.8 193.8 133.5 193 L 127.5 196 L 127.5 195 Q 133.4 194.4 135.5 190 Z " /><path fill="rgb(44,57,87)" stroke="rgb(44,57,87)" stroke-width="1" opacity="1" d="M 107.5 191 L 119 195.5 L 116.5 196 L 107.5 192 L 107.5 191 Z " /><path fill="rgb(44,57,87)" stroke="rgb(44,57,87)" stroke-width="1" opacity="1" d="M 87.5 192 L 92 192.5 L 91 194.5 L 93.5 198 Q 94 194.5 98.5 195 L 104 197 Q 105.1 199.7 102.5 199 L 101.5 200 L 87.5 200 L 83.5 195 L 75.5 200 L 76.5 198 L 87.5 192 Z " /><path fill="rgb(44,57,87)" stroke="rgb(44,57,87)" stroke-width="1" opacity="1" d="M 105.5 198 L 109 199.5 L 106.5 200 L 105.5 198 Z " /><path fill="rgb(250,233,98)" stroke="rgb(250,233,98)" stroke-width="1" opacity="1" d="M 83.5 84 Q 89.6 82.8 89 85.5 L 88 86.5 L 88 98 L 82.5 99 L 71.5 99 Q 70 96.5 64.5 98 L 63 96.5 L 63 86 L 75.5 86 L 83.5 84 Z " /><path fill="rgb(250,233,98)" stroke="rgb(250,233,98)" stroke-width="1" opacity="1" d="M 77.5 170 L 78 172 L 76 171.5 L 77.5 170 Z " /><path fill="rgb(250,233,98)" stroke="rgb(250,233,98)" stroke-width="1" opacity="1" d="M 117.5 170 L 125 170.5 L 116.5 172 L 117.5 170 Z " /><path fill="rgb(250,233,98)" stroke="rgb(250,233,98)" stroke-width="1" opacity="1" d="M 86.5 178 L 92 179.5 L 88.5 182 L 86.5 178 Z " /><path fill="rgb(250,233,98)" stroke="rgb(250,233,98)" stroke-width="1" opacity="1" d="M 108.5 181 L 110 181.5 L 108 182 L 107 187 L 100.5 188 L 97 185.5 L 108.5 181 Z " /><path fill="rgb(22,21,28)" stroke="rgb(22,21,28)" stroke-width="1" opacity="1" d="M 78.5 30 L 77.5 32 L 78.5 30 Z " /><path fill="rgb(22,21,28)" stroke="rgb(22,21,28)" stroke-width="1" opacity="1" d="M 82.5 30 L 83.5 32 L 82.5 30 Z " /><path fill="rgb(22,21,28)" stroke="rgb(22,21,28)" stroke-width="1" opacity="1" d="M 84.5 33 L 85.5 35 L 84.5 33 Z " /><path fill="rgb(22,21,28)" stroke="rgb(22,21,28)" stroke-width="1" opacity="1" d="M 70.5 43 L 73 44.5 L 71.5 45 L 70.5 43 Z " /><path fill="rgb(22,21,28)" stroke="rgb(22,21,28)" stroke-width="1" opacity="1" d="M 167.5 43 L 166.5 45 L 167.5 43 Z " /><path fill="rgb(22,21,28)" stroke="rgb(22,21,28)" stroke-width="1" opacity="1" d="M 163.5 46 L 162.5 48 L 163.5 46 Z " /><path fill="rgb(22,21,28)" stroke="rgb(22,21,28)" stroke-width="1" opacity="1" d="M 82.5 48 L 91 48.5 L 82.5 49 L 82.5 48 Z " /><path fill="rgb(22,21,28)" stroke="rgb(22,21,28)" stroke-width="1" opacity="1" d="M 100.5 48 L 105 48.5 L 100.5 49 L 100.5 48 Z " /><path fill="rgb(22,21,28)" stroke="rgb(22,21,28)" stroke-width="1" opacity="1" d="M 75.5 49 L 78 49.5 L 75.5 50 L 75.5 49 Z " /><path fill="rgb(22,21,28)" stroke="rgb(22,21,28)" stroke-width="1" opacity="1" d="M 110.5 49 L 113 49.5 L 110.5 50 L 110.5 49 Z " /><path fill="rgb(22,21,28)" stroke="rgb(22,21,28)" stroke-width="1" opacity="1" d="M 177.5 58 L 178 61.5 L 177 61.5 L 177.5 58 Z " /><path fill="rgb(22,21,28)" stroke="rgb(22,21,28)" stroke-width="1" opacity="1" d="M 141.5 59 L 140.5 61 L 141.5 59 Z " /><path fill="rgb(22,21,28)" stroke="rgb(22,21,28)" stroke-width="1" opacity="1" d="M 137.5 63 L 136.5 65 L 137.5 63 Z " /><path fill="rgb(22,21,28)" stroke="rgb(22,21,28)" stroke-width="1" opacity="1" d="M 143.5 65 L 142.5 67 L 143.5 65 Z " /><path fill="rgb(22,21,28)" stroke="rgb(22,21,28)" stroke-width="1" opacity="1" d="M 135.5 66 L 134.5 68 L 135.5 66 Z " /><path fill="rgb(22,21,28)" stroke="rgb(22,21,28)" stroke-width="1" opacity="1" d="M 133.5 69 L 132.5 71 L 133.5 69 Z " /><path fill="rgb(22,21,28)" stroke="rgb(22,21,28)" stroke-width="1" opacity="1" d="M 57.5 78 L 58 81.5 L 57 81.5 L 57.5 78 Z " /><path fill="rgb(22,21,28)" stroke="rgb(22,21,28)" stroke-width="1" opacity="1" d="M 127.5 81 L 128 82.5 L 124.5 92 L 124 90.5 L 127.5 81 Z " /><path fill="rgb(22,21,28)" stroke="rgb(22,21,28)" stroke-width="1" opacity="1" d="M 58.5 87 L 59 90.5 L 58 90.5 L 58.5 87 Z " /><path fill="rgb(22,21,28)" stroke="rgb(22,21,28)" stroke-width="1" opacity="1" d="M 164.5 90 L 162.5 93 L 164.5 90 Z " /><path fill="rgb(22,21,28)" stroke="rgb(22,21,28)" stroke-width="1" opacity="1" d="M 27.5 92 L 34 92.5 L 27.5 93 L 27.5 92 Z " /><path fill="rgb(22,21,28)" stroke="rgb(22,21,28)" stroke-width="1" opacity="1" d="M 38.5 93 L 41 93.5 L 38.5 94 L 38.5 93 Z " /><path fill="rgb(22,21,28)" stroke="rgb(22,21,28)" stroke-width="1" opacity="1" d="M 58.5 93 L 57.5 95 L 55 94.5 L 58.5 93 Z " /><path fill="rgb(22,21,28)" stroke="rgb(22,21,28)" stroke-width="1" opacity="1" d="M 123.5 95 L 124 97.5 L 123 97.5 L 123.5 95 Z " /><path fill="rgb(22,21,28)" stroke="rgb(22,21,28)" stroke-width="1" opacity="1" d="M 129.5 97 L 130 106.5 L 129 106.5 L 129.5 97 Z " /><path fill="rgb(22,21,28)" stroke="rgb(22,21,28)" stroke-width="1" opacity="1" d="M 158.5 97 L 157.5 99 L 158.5 97 Z " /><path fill="rgb(22,21,28)" stroke="rgb(22,21,28)" stroke-width="1" opacity="1" d="M 161 102 L 167 102.5 L 162.5 103 L 153.5 112 L 161 103.5 L 161 102 Z " /><path fill="rgb(22,21,28)" stroke="rgb(22,21,28)" stroke-width="1" opacity="1" d="M 152.5 104 L 146 111.5 L 145.5 114 L 145 111.5 L 152.5 104 Z " /><path fill="rgb(22,21,28)" stroke="rgb(22,21,28)" stroke-width="1" opacity="1" d="M 124.5 106 L 125 108.5 L 121.5 111 L 122.5 109 Q 125.4 109.7 124.5 106 Z " /><path fill="rgb(22,21,28)" stroke="rgb(22,21,28)" stroke-width="1" opacity="1" d="M 26.5 109 L 27.5 111 L 26.5 109 Z " /><path fill="rgb(22,21,28)" stroke="rgb(22,21,28)" stroke-width="1" opacity="1" d="M 129.5 109 L 130 111.5 L 127 113.5 L 129.5 109 Z " /><path fill="rgb(22,21,28)" stroke="rgb(22,21,28)" stroke-width="1" opacity="1" d="M 29.5 111 L 30.5 113 L 29.5 111 Z " /><path fill="rgb(22,21,28)" stroke="rgb(22,21,28)" stroke-width="1" opacity="1" d="M 176.5 111 L 177 114.5 L 169.5 120 L 169.5 119 L 176 114.5 L 176.5 111 Z " /><path fill="rgb(22,21,28)" stroke="rgb(22,21,28)" stroke-width="1" opacity="1" d="M 153.5 113 L 158.5 119 L 153.5 113 Z " /><path fill="rgb(22,21,28)" stroke="rgb(22,21,28)" stroke-width="1" opacity="1" d="M 148.5 117 L 153.5 123 L 148.5 117 Z " /><path fill="rgb(22,21,28)" stroke="rgb(22,21,28)" stroke-width="1" opacity="1" d="M 90.5 119 L 94 119.5 L 90.5 120 L 90.5 119 Z " /><path fill="rgb(22,21,28)" stroke="rgb(22,21,28)" stroke-width="1" opacity="1" d="M 53.5 120 L 56 120.5 L 53.5 121 L 53.5 120 Z " /><path fill="rgb(22,21,28)" stroke="rgb(22,21,28)" stroke-width="1" opacity="1" d="M 83.5 120 L 88 120.5 L 83.5 121 L 83.5 120 Z " /><path fill="rgb(22,21,28)" stroke="rgb(22,21,28)" stroke-width="1" opacity="1" d="M 162.5 120 L 166 120.5 L 162.5 121 L 162.5 120 Z " /><path fill="rgb(22,21,28)" stroke="rgb(22,21,28)" stroke-width="1" opacity="1" d="M 60.5 121 L 79 121.5 L 60.5 122 L 60.5 121 Z " /><path fill="rgb(22,21,28)" stroke="rgb(22,21,28)" stroke-width="1" opacity="1" d="M 48.5 125 L 51 125.5 L 47.5 127 L 48.5 125 Z " /><path fill="rgb(22,21,28)" stroke="rgb(22,21,28)" stroke-width="1" opacity="1" d="M 89.5 125 L 93 125.5 L 89.5 126 L 89.5 125 Z " /><path fill="rgb(22,21,28)" stroke="rgb(22,21,28)" stroke-width="1" opacity="1" d="M 53.5 126 L 56 126.5 L 53.5 127 L 53.5 126 Z " /><path fill="rgb(22,21,28)" stroke="rgb(22,21,28)" stroke-width="1" opacity="1" d="M 63.5 127 L 74 127.5 L 63.5 128 L 63.5 127 Z " /><path fill="rgb(22,21,28)" stroke="rgb(22,21,28)" stroke-width="1" opacity="1" d="M 45.5 130 L 44.5 132 L 45.5 130 Z " /><path fill="rgb(22,21,28)" stroke="rgb(22,21,28)" stroke-width="1" opacity="1" d="M 43.5 133 L 42.5 135 L 43.5 133 Z " /><path fill="rgb(22,21,28)" stroke="rgb(22,21,28)" stroke-width="1" opacity="1" d="M 63.5 134 L 71 134.5 L 63.5 135 L 63.5 134 Z " /><path fill="rgb(22,21,28)" stroke="rgb(22,21,28)" stroke-width="1" opacity="1" d="M 117.5 134 L 116 136.5 L 115.5 139 L 115 136.5 L 117.5 134 Z " /><path fill="rgb(22,21,28)" stroke="rgb(22,21,28)" stroke-width="1" opacity="1" d="M 75.5 136 L 76.5 138 L 75.5 136 Z " /><path fill="rgb(22,21,28)" stroke="rgb(22,21,28)" stroke-width="1" opacity="1" d="M 134.5 137 L 133.5 139 L 131.5 140 L 132.5 138 L 134.5 137 Z " /><path fill="rgb(22,21,28)" stroke="rgb(22,21,28)" stroke-width="1" opacity="1" d="M 60.5 138 L 61.5 140 L 60.5 138 Z " /><path fill="rgb(22,21,28)" stroke="rgb(22,21,28)" stroke-width="1" opacity="1" d="M 154.5 144 L 153.5 146 L 154.5 144 Z " /><path fill="rgb(22,21,28)" stroke="rgb(22,21,28)" stroke-width="1" opacity="1" d="M 113.5 158 L 117 158.5 L 113.5 159 L 113.5 158 Z " /><path fill="rgb(22,21,28)" stroke="rgb(22,21,28)" stroke-width="1" opacity="1" d="M 83.5 159 L 96 159.5 L 83.5 160 L 83.5 159 Z " /><path fill="rgb(22,21,28)" stroke="rgb(22,21,28)" stroke-width="1" opacity="1" d="M 114.5 163 L 118 163.5 L 116 164 L 114 176 L 106.5 177 L 101 174.5 L 103.5 174 L 107.5 176 L 109 174.5 L 110 165 L 107 164.5 L 114.5 163 Z " /><path fill="rgb(22,21,28)" stroke="rgb(22,21,28)" stroke-width="1" opacity="1" d="M 120.5 164 L 124 165.5 L 122.5 165 Q 119.5 165.5 120.5 164 Z " /><path fill="rgb(22,21,28)" stroke="rgb(22,21,28)" stroke-width="1" opacity="1" d="M 83.5 165 L 105 165.5 L 97.5 169 Q 95.3 164 87 166 L 87 172 L 95.5 172 L 95.5 173 L 81.5 173 Q 80.5 173 81 177.5 L 80 177.5 L 81 170 Q 85.5 171.8 84 166.5 L 82.5 167 L 80 166.5 L 83.5 165 Z " /><path fill="rgb(22,21,28)" stroke="rgb(22,21,28)" stroke-width="1" opacity="1" d="M 125.5 166 L 127.5 169 L 125.5 166 Z " /><path fill="rgb(22,21,28)" stroke="rgb(22,21,28)" stroke-width="1" opacity="1" d="M 77.5 168 L 76.5 170 L 77.5 168 Z " /><path fill="rgb(22,21,28)" stroke="rgb(22,21,28)" stroke-width="1" opacity="1" d="M 74.5 170 L 73.5 172 L 74.5 170 Z " /><path fill="rgb(22,21,28)" stroke="rgb(22,21,28)" stroke-width="1" opacity="1" d="M 130.5 171 L 134 175.5 L 133 175.5 L 130.5 171 Z " /><path fill="rgb(22,21,28)" stroke="rgb(22,21,28)" stroke-width="1" opacity="1" d="M 97.5 173 L 100 173.5 L 97.5 174 L 97.5 173 Z " /><path fill="rgb(22,21,28)" stroke="rgb(22,21,28)" stroke-width="1" opacity="1" d="M 69.5 174 L 65.5 179 L 69.5 174 Z " /><path fill="rgb(22,21,28)" stroke="rgb(22,21,28)" stroke-width="1" opacity="1" d="M 117.5 176 L 119.5 179 L 117.5 176 Z " /><path fill="rgb(22,21,28)" stroke="rgb(22,21,28)" stroke-width="1" opacity="1" d="M 93 178 L 95 178.5 L 92 180.5 L 93 178 Z " /><path fill="rgb(22,21,28)" stroke="rgb(22,21,28)" stroke-width="1" opacity="1" d="M 115.5 179 L 118 179.5 L 115.5 180 L 115.5 179 Z " /><path fill="rgb(22,21,28)" stroke="rgb(22,21,28)" stroke-width="1" opacity="1" d="M 136.5 182 L 137 189.5 L 136 189.5 L 136.5 182 Z " /><path fill="rgb(22,21,28)" stroke="rgb(22,21,28)" stroke-width="1" opacity="1" d="M 85.5 184 L 87 184.5 L 83.5 187 L 85.5 184 Z " /><path fill="rgb(22,21,28)" stroke="rgb(22,21,28)" stroke-width="1" opacity="1" d="M 96.5 184 L 95.5 187 L 97 187.5 L 95.5 188 L 93 186.5 L 96.5 184 Z " /><path fill="rgb(22,21,28)" stroke="rgb(22,21,28)" stroke-width="1" opacity="1" d="M 99.5 188 L 107 191.5 L 105.5 192 L 99.5 189 L 99.5 188 Z " /><path fill="rgb(22,21,28)" stroke="rgb(22,21,28)" stroke-width="1" opacity="1" d="M 78.5 189 L 77.5 191 L 78.5 189 Z " /><path fill="rgb(22,21,28)" stroke="rgb(22,21,28)" stroke-width="1" opacity="1" d="M 87.5 191 Q 92 190 93 192.5 L 91.5 192 Q 86.5 191 85.5 194 L 87.5 191 Z " /><path fill="rgb(22,21,28)" stroke="rgb(22,21,28)" stroke-width="1" opacity="1" d="M 68.5 192 L 74 192.5 L 68.5 193 L 68.5 192 Z " /><path fill="rgb(22,21,28)" stroke="rgb(22,21,28)" stroke-width="1" opacity="1" d="M 96.5 193 L 97.5 195 L 96.5 193 Z " /><path fill="rgb(22,21,28)" stroke="rgb(22,21,28)" stroke-width="1" opacity="1" d="M 133.5 193 L 132.5 195 L 133.5 193 Z " /><path fill="rgb(22,21,28)" stroke="rgb(22,21,28)" stroke-width="1" opacity="1" d="M 118.5 196 L 128 196.5 L 118.5 197 L 118.5 196 Z " /><path fill="rgb(22,21,28)" stroke="rgb(22,21,28)" stroke-width="1" opacity="1" d="M 75.5 198 L 74.5 200 L 75.5 198 Z " /><path fill="rgb(0,0,0)" stroke="rgb(0,0,0)" stroke-width="1" opacity="0.996078431372549" d="M 77.5 23 L 78 26 L 75 25.5 L 77.5 23 Z " /><path fill="rgb(0,0,0)" stroke="rgb(0,0,0)" stroke-width="1" opacity="0.996078431372549" d="M 84.5 24 L 91 33.5 L 90 33.5 L 89.5 32 L 84 32 L 84.5 24 Z " /><path fill="rgb(0,0,0)" stroke="rgb(0,0,0)" stroke-width="1" opacity="0.996078431372549" d="M 71.5 30 L 72 32 L 70 31.5 L 71.5 30 Z " /><path fill="rgb(0,0,0)" stroke="rgb(0,0,0)" stroke-width="1" opacity="0.996078431372549" d="M 182.5 40 L 183 42.5 L 182 42.5 L 182.5 40 Z " /><path fill="rgb(0,0,0)" stroke="rgb(0,0,0)" stroke-width="1" opacity="0.996078431372549" d="M 96 42 Q 100.6 40.8 102 43.5 L 96 44 L 96 42 Z " /><path fill="rgb(0,0,0)" stroke="rgb(0,0,0)" stroke-width="1" opacity="0.996078431372549" d="M 182.5 59 L 183 61.5 L 182 61.5 L 182.5 59 Z " /><path fill="rgb(0,0,0)" stroke="rgb(0,0,0)" stroke-width="1" opacity="0.996078431372549" d="M 45.5 63 L 47 65.5 L 46 65.5 L 45.5 63 Z " /><path fill="rgb(0,0,0)" stroke="rgb(0,0,0)" stroke-width="1" opacity="0.996078431372549" d="M 180.5 68 L 181 70.5 L 180 70.5 L 180.5 68 Z " /><path fill="rgb(0,0,0)" stroke="rgb(0,0,0)" stroke-width="1" opacity="0.996078431372549" d="M 36 87 L 43 88.5 L 42 92 L 36 92 L 36 87 Z " /><path fill="rgb(0,0,0)" stroke="rgb(0,0,0)" stroke-width="1" opacity="0.996078431372549" d="M 170.5 90 L 171 91.5 L 168.5 95 L 168 92 Q 170.8 93 170.5 90 Z " /><path fill="rgb(0,0,0)" stroke="rgb(0,0,0)" stroke-width="1" opacity="0.996078431372549" d="M 14.5 96 L 15 98 L 18 98 L 18 104 Q 14.3 105.5 15 102.5 Q 12.4 100.9 14.5 96 Z " /><path fill="rgb(0,0,0)" stroke="rgb(0,0,0)" stroke-width="1" opacity="0.996078431372549" d="M 177.5 102 L 178.5 104 L 177.5 102 Z " /><path fill="rgb(0,0,0)" stroke="rgb(0,0,0)" stroke-width="1" opacity="0.996078431372549" d="M 180.5 105 L 182 107.5 L 181 107.5 L 180.5 105 Z " /><path fill="rgb(0,0,0)" stroke="rgb(0,0,0)" stroke-width="1" opacity="0.996078431372549" d="M 182.5 109 L 183 112.5 L 182 112.5 L 182.5 109 Z " /><path fill="rgb(0,0,0)" stroke="rgb(0,0,0)" stroke-width="1" opacity="0.996078431372549" d="M 26.5 111 L 30 112.5 L 28.5 113 L 26.5 111 Z " /><path fill="rgb(0,0,0)" stroke="rgb(0,0,0)" stroke-width="1" opacity="0.996078431372549" d="M 26.5 116 L 29 117.5 L 27.5 117 L 26.5 116 Z " /><path fill="rgb(0,0,0)" stroke="rgb(0,0,0)" stroke-width="1" opacity="0.996078431372549" d="M 30.5 118 L 35 120.5 L 33.5 120 Q 29.7 119.8 30.5 118 Z " /><path fill="rgb(0,0,0)" stroke="rgb(0,0,0)" stroke-width="1" opacity="0.996078431372549" d="M 166.5 134 L 167 136.5 L 166 136.5 L 166.5 134 Z " /><path fill="rgb(0,0,0)" stroke="rgb(0,0,0)" stroke-width="1" opacity="0.996078431372549" d="M 36 146 Q 40.7 145 42 148.5 Q 43.8 154.2 37.5 152 Q 34.8 150.6 36 146 Z " /><path fill="rgb(0,0,0)" stroke="rgb(0,0,0)" stroke-width="1" opacity="0.996078431372549" d="M 153.5 146 L 156 146 L 156 152 L 151.5 154 L 151.5 152 Q 148.5 152.9 150 148.5 L 153.5 146 Z " /><path fill="rgb(0,0,0)" stroke="rgb(0,0,0)" stroke-width="1" opacity="0.996078431372549" d="M 72 158 L 78 159 L 78 164 L 72 164 L 72 158 Z " /><path fill="rgb(0,0,0)" stroke="rgb(0,0,0)" stroke-width="1" opacity="0.996078431372549" d="M 138.5 158 L 140 158.5 L 136.5 160 L 136.5 159 L 138.5 158 Z " /><path fill="rgb(0,0,0)" stroke="rgb(0,0,0)" stroke-width="1" opacity="0.996078431372549" d="M 67.5 162 L 70 162.5 L 67.5 163 L 67.5 162 Z " /><path fill="rgb(0,0,0)" stroke="rgb(0,0,0)" stroke-width="1" opacity="0.996078431372549" d="M 129.5 162 L 130.5 164 L 129.5 162 Z " /><path fill="rgb(0,0,0)" stroke="rgb(0,0,0)" stroke-width="1" opacity="0.996078431372549" d="M 68.5 168 L 67.5 170 L 68.5 168 Z " /><path fill="rgb(0,0,0)" stroke="rgb(0,0,0)" stroke-width="1" opacity="0.996078431372549" d="M 133.5 172 L 135 175.5 L 134 175.5 L 133.5 172 Z " /><path fill="rgb(0,0,0)" stroke="rgb(0,0,0)" stroke-width="1" opacity="0.996078431372549" d="M 142.5 185 L 143 187.5 L 142 187.5 L 142.5 185 Z " /><path fill="rgb(0,0,0)" stroke="rgb(0,0,0)" stroke-width="1" opacity="0.996078431372549" d="M 58.5 191 L 59.5 193 L 58.5 191 Z " /><path fill="rgb(0,0,0)" stroke="rgb(0,0,0)" stroke-width="1" opacity="1" d="M 80.5 22 L 84 23 L 83.5 31 Q 80.2 24.7 77 31.5 L 71 39.5 L 70 43.5 L 72.5 45 L 88 42 L 86 34.5 L 84 32.5 L 90 32 L 93 37.5 L 93 42 Q 97.3 41 96.5 44 L 101.5 44 Q 102.8 41.7 107.5 43 L 108.5 44 L 126.5 46 L 148 54 L 150.5 50 L 162.5 40 L 168 38 Q 166.8 35 170.5 36 L 174.5 33 L 181 32 L 183 43.5 L 183 58.5 L 180 68.5 L 180 73.5 L 172 90 L 168 92 L 168 95 Q 165 94 166 97 Q 172.9 97.3 177 101.5 L 178.5 104 Q 180.8 103.3 180 105.5 Q 183.6 108.4 182 116.5 L 177.5 122 L 168.5 126 L 164 126 Q 166.9 130.9 166 140.5 L 161.5 147 Q 159.3 146.3 160 148.5 L 156.5 151 L 156 146 L 154 145.5 L 160 137.5 L 160 132.5 Q 156.1 122.9 148.5 117 L 144 113.5 L 146 113.5 L 146 111.5 L 159 96 Q 161.7 97.1 161 94.5 Q 169.4 86.9 174 75.5 L 178 61.5 L 178 43.5 L 177 38 Q 156.4 48.6 142 66.5 Q 134.6 75.1 131 87.5 L 129 97.5 L 129 106.5 L 130 108.5 L 125.5 115 L 119.5 118 L 95.5 125 L 89.5 125 L 83.5 127 L 56.5 127 L 48.5 125 L 39 138.5 L 38 143.5 L 39 146 Q 34.9 144.3 36 148.5 L 34 147.5 L 33 139.5 L 40 129.5 L 42 123 L 36.5 122 L 33.5 119 L 25 116 L 24.5 114 L 23.5 115 L 20 111.5 L 18 108.5 L 15 104.5 L 18 104 L 18 98 Q 13.5 99.8 15 94.5 L 18.5 90 L 27.5 87 L 36 87 L 36 92 L 42 92 L 42.5 89 L 53 89 L 53 83.5 L 50 72.5 L 47 67.5 L 47 64.5 L 44 61.5 L 44 56 L 65 45.5 Q 66.2 37 70 32 Q 73 33.3 72 29.5 Q 73.3 25.3 78 26 Q 76.5 22.3 79.5 23 L 80.5 22 Z M 83 48 L 82 49 L 71 50 L 59 54 L 50 60 L 57 77 L 59 93 L 55 95 L 48 95 L 34 92 Q 24 91 20 97 Q 19 102 21 104 L 21 106 L 23 106 Q 22 109 25 108 Q 28 110 27 112 L 29 111 L 28 113 L 45 119 L 61 122 L 79 122 L 80 121 L 94 120 L 113 115 L 125 109 L 124 106 L 124 93 L 126 90 L 129 78 L 138 63 L 141 61 L 142 57 L 120 50 L 106 49 L 105 48 L 83 48 Z M 161 102 L 153 112 L 153 114 L 163 121 L 171 120 L 177 115 L 176 109 Q 172 101 161 102 Z " /><path fill="rgb(0,0,0)" stroke="rgb(0,0,0)" stroke-width="1" opacity="1" d="M 120.5 133 Q 128.2 132.2 132 134 L 134 138 Q 130.5 141.2 122.5 141 L 116 139 Q 115.3 135.2 118.5 134 L 120.5 133 Z " /><path fill="rgb(0,0,0)" stroke="rgb(0,0,0)" stroke-width="1" opacity="1" d="M 61.5 135 L 73.5 135 L 77 138.5 Q 77.8 140.8 75.5 140 L 74.5 141 L 65.5 141 L 60 137.5 L 61.5 135 Z " /><path fill="rgb(0,0,0)" stroke="rgb(0,0,0)" stroke-width="1" opacity="1" d="M 42.5 149 L 54.5 155 L 72 158 L 72 163 L 70.5 163 L 53.5 160 L 41.5 155 L 39 152.5 L 42 152 L 42.5 149 Z " /><path fill="rgb(0,0,0)" stroke="rgb(0,0,0)" stroke-width="1" opacity="1" d="M 148.5 149 L 150 149 Q 148.5 152.7 151.5 152 L 150.5 154 L 129 162.5 L 137 169.5 L 136.5 171 Q 139.1 170.2 138 173.5 Q 143.7 178.8 142 191.5 L 137.5 198 L 134.5 200 L 110.5 200 L 96.5 193 L 93.5 193 L 91.5 191 L 87.5 191 L 73.5 200 L 68 200 Q 69.3 197 65.5 198 L 62 195.5 L 60 192.5 Q 55.3 190.8 57 182.5 Q 59.9 174.4 66.5 170 L 71.5 166 L 74 166 Q 72.8 162.3 78 164 L 78 159 L 82.5 159 L 83.5 160 L 95.5 160 L 96.5 159 L 116.5 159 L 122.5 157 L 128.5 157 L 148.5 149 Z M 115 163 L 107 165 L 84 165 L 75 170 L 73 173 L 70 174 Q 64 178 62 185 L 64 191 L 69 193 L 74 193 L 86 185 Q 88 186 87 183 L 93 181 L 95 178 L 81 178 L 81 173 L 97 173 L 107 177 L 112 176 Q 118 175 119 179 L 99 183 L 93 187 L 119 197 Q 128 198 133 195 L 137 190 Q 138 182 135 178 L 135 176 L 134 173 L 133 173 L 130 169 L 123 164 L 115 163 Z " /></svg>