<svg width="200" height="200" version="1.1" xmlns="http://www.w3.org/2000/svg" desc="Created with imagetracer.js version 1.2.6" ><path fill="rgb(0,0,0)" stroke="rgb(0,0,0)" stroke-width="1" opacity="0" d="M 0 0 L 200 0 L 200 195.5 L 199 195.5 Q 192.1 174.4 180 158.5 L 179 122.5 L 178 121.5 L 178 110.5 L 177 109.5 L 176 92.5 L 175 91.5 L 174 80.5 L 170.5 74 L 157.5 73 L 156.5 72 L 142.5 72 L 141.5 71 L 109 71 Q 108.1 63 102.5 59 Q 98.2 55.3 88.5 57 L 83 60 Q 79.5 64.1 79 71 L 41.5 73 L 40.5 74 L 32.5 74 L 26 76 L 25 78.5 L 25 93.5 L 24 94.5 L 24 121.5 L 23 122.5 L 23 131.5 L 24 132.5 L 24 159.5 Q 11.1 177.7 4 200 L 0 199.5 L 0 0 Z " /><path fill="rgb(0,0,0)" stroke="rgb(0,0,0)" stroke-width="1" opacity="0.23921568627450981" d="M 88.5 57 L 91 57.5 L 88.5 58 L 88.5 57 Z " /><path fill="rgb(0,0,0)" stroke="rgb(0,0,0)" stroke-width="1" opacity="0.23921568627450981" d="M 97.5 57 Q 103.3 58.3 106 62.5 L 109 71 L 142 71.5 L 109.5 72 L 106 64.5 L 100.5 59 Q 96.8 58.7 97.5 57 Z " /><path fill="rgb(0,0,0)" stroke="rgb(0,0,0)" stroke-width="1" opacity="0.23921568627450981" d="M 86.5 58 L 85.5 60 L 86.5 58 Z " /><path fill="rgb(0,0,0)" stroke="rgb(0,0,0)" stroke-width="1" opacity="0.23921568627450981" d="M 82.5 62 L 81.5 64 L 82.5 62 Z " /><path fill="rgb(0,0,0)" stroke="rgb(0,0,0)" stroke-width="1" opacity="0.23921568627450981" d="M 79.5 68 L 80 72 L 68 71.5 L 79 71 L 79.5 68 Z " /><path fill="rgb(0,0,0)" stroke="rgb(0,0,0)" stroke-width="1" opacity="0.23921568627450981" d="M 51.5 72 L 64 72.5 L 51.5 73 L 51.5 72 Z " /><path fill="rgb(0,0,0)" stroke="rgb(0,0,0)" stroke-width="1" opacity="0.23921568627450981" d="M 146.5 72 L 157 72.5 L 146.5 73 L 146.5 72 Z " /><path fill="rgb(0,0,0)" stroke="rgb(0,0,0)" stroke-width="1" opacity="0.23921568627450981" d="M 41.5 73 L 50 73.5 L 41.5 74 L 41.5 73 Z " /><path fill="rgb(0,0,0)" stroke="rgb(0,0,0)" stroke-width="1" opacity="0.23921568627450981" d="M 158.5 73 L 165 73.5 L 158.5 74 L 158.5 73 Z " /><path fill="rgb(0,0,0)" stroke="rgb(0,0,0)" stroke-width="1" opacity="0.23921568627450981" d="M 32.5 74 L 39 74.5 L 32.5 75 L 32.5 74 Z " /><path fill="rgb(0,0,0)" stroke="rgb(0,0,0)" stroke-width="1" opacity="0.23921568627450981" d="M 166.5 74 Q 171 73 172 75.5 L 170.5 75 Q 165.5 76 166.5 74 Z " /><path fill="rgb(0,0,0)" stroke="rgb(0,0,0)" stroke-width="1" opacity="0.23921568627450981" d="M 28.5 75 L 31 75.5 L 26.5 77 L 26.5 76 L 28.5 75 Z " /><path fill="rgb(0,0,0)" stroke="rgb(0,0,0)" stroke-width="1" opacity="0.23921568627450981" d="M 172.5 77 L 174 83.5 L 173 83.5 L 172.5 77 Z " /><path fill="rgb(0,0,0)" stroke="rgb(0,0,0)" stroke-width="1" opacity="0.23921568627450981" d="M 25.5 78 L 26 87.5 L 25 87.5 L 25.5 78 Z " /><path fill="rgb(0,0,0)" stroke="rgb(0,0,0)" stroke-width="1" opacity="0.23921568627450981" d="M 174.5 86 L 175 90.5 L 174 90.5 L 174.5 86 Z " /><path fill="rgb(0,0,0)" stroke="rgb(0,0,0)" stroke-width="1" opacity="0.23921568627450981" d="M 175.5 92 L 176 98.5 L 175 98.5 L 175.5 92 Z " /><path fill="rgb(0,0,0)" stroke="rgb(0,0,0)" stroke-width="1" opacity="0.23921568627450981" d="M 24.5 94 L 25 105.5 L 24 105.5 L 24.5 94 Z " /><path fill="rgb(0,0,0)" stroke="rgb(0,0,0)" stroke-width="1" opacity="0.23921568627450981" d="M 176.5 101 L 177 108.5 L 176 108.5 L 176.5 101 Z " /><path fill="rgb(0,0,0)" stroke="rgb(0,0,0)" stroke-width="1" opacity="0.23921568627450981" d="M 177.5 110 L 178 120.5 L 177 120.5 L 177.5 110 Z " /><path fill="rgb(0,0,0)" stroke="rgb(0,0,0)" stroke-width="1" opacity="0.23921568627450981" d="M 23.5 122 L 24 131.5 L 23 131.5 L 23.5 122 Z " /><path fill="rgb(0,0,0)" stroke="rgb(0,0,0)" stroke-width="1" opacity="0.23921568627450981" d="M 178.5 122 L 179 138.5 L 178 138.5 L 178.5 122 Z " /><path fill="rgb(0,0,0)" stroke="rgb(0,0,0)" stroke-width="1" opacity="0.23921568627450981" d="M 179.5 146 L 180 158.5 Q 189.8 171.2 196 187.5 L 195 187.5 Q 188.8 171.2 179 158.5 L 179.5 146 Z " /><path fill="rgb(0,0,0)" stroke="rgb(0,0,0)" stroke-width="1" opacity="0.23921568627450981" d="M 23.5 160 L 24 161.5 L 9.5 188 L 9 186.5 L 23.5 160 Z " /><path fill="rgb(0,0,0)" stroke="rgb(0,0,0)" stroke-width="1" opacity="0.23921568627450981" d="M 8.5 189 L 9 190.5 L 4.5 200 L 4 198.5 L 8.5 189 Z " /><path fill="rgb(0,0,0)" stroke="rgb(0,0,0)" stroke-width="1" opacity="0.23921568627450981" d="M 196.5 189 L 198 192.5 L 197 192.5 L 196.5 189 Z " /><path fill="rgb(0,0,0)" stroke="rgb(0,0,0)" stroke-width="1" opacity="0.23921568627450981" d="M 198.5 194 L 200 198.5 L 199 198.5 L 198.5 194 Z " /><path fill="rgb(249,226,169)" stroke="rgb(249,226,169)" stroke-width="1" opacity="1" d="M 90.5 77 L 100 78.5 L 96 80 Q 97.3 76.7 92.5 78 L 90 79 L 88.5 82 Q 83.2 82.7 82.5 79 L 78.5 79 L 77.5 80 L 68.5 80 L 61.5 82 L 40.5 84 L 36 86.5 Q 36.6 91.1 34 92.5 L 33 106.5 L 32 107.5 L 32 128 Q 28.5 129.1 30 121.5 L 31 120.5 L 31 92.5 L 32 91.5 L 32 82.5 L 33.5 81 L 48.5 80 L 49.5 79 L 61.5 79 L 62.5 78 L 89.5 78 L 90.5 77 Z " /><path fill="rgb(249,226,169)" stroke="rgb(249,226,169)" stroke-width="1" opacity="1" d="M 109.5 77 L 113 77.5 L 109.5 78 L 109.5 77 Z " /><path fill="rgb(249,226,169)" stroke="rgb(249,226,169)" stroke-width="1" opacity="1" d="M 31.5 142 L 34.5 143 L 90 143.5 L 60.5 144 L 59.5 145 L 42.5 145 L 41.5 146 L 34 146 L 33 148.5 L 31.5 182 L 31 147.5 L 30 143.5 L 31.5 142 Z " /><path fill="rgb(247,180,120)" stroke="rgb(247,180,120)" stroke-width="1" opacity="1" d="M 78.5 77 L 90 77.5 L 78.5 78 L 78.5 77 Z " /><path fill="rgb(247,180,120)" stroke="rgb(247,180,120)" stroke-width="1" opacity="1" d="M 96.5 77 L 108.5 77 L 110 78.5 L 95.5 84 L 49.5 86 L 48.5 87 L 40.5 87 L 39 88.5 L 38 93.5 L 38 124.5 L 40.5 128 L 48 128 L 48 133.5 L 47 136 L 32.5 136 L 30 135 L 30 128.5 L 32 127.5 L 32 107.5 L 33 106.5 L 34 92.5 L 37.5 85 L 46.5 83 L 61.5 82 L 68.5 80 L 82.5 79 Q 83.3 82.8 88.5 82 L 90 79 L 96.5 77 Z M 96 78 L 96 80 L 100 79 L 96 78 Z " /><path fill="rgb(247,180,120)" stroke="rgb(247,180,120)" stroke-width="1" opacity="1" d="M 113.5 77 L 128.5 77 L 136 78.5 L 119.5 79 Q 118.2 76.7 113.5 78 L 113.5 77 Z " /><path fill="rgb(247,180,120)" stroke="rgb(247,180,120)" stroke-width="1" opacity="1" d="M 58.5 78 L 62 78.5 L 58.5 79 L 58.5 78 Z " /><path fill="rgb(247,180,120)" stroke="rgb(247,180,120)" stroke-width="1" opacity="1" d="M 45.5 79 L 49 79.5 L 45.5 80 L 45.5 79 Z " /><path fill="rgb(247,180,120)" stroke="rgb(247,180,120)" stroke-width="1" opacity="1" d="M 35.5 80 L 38 80.5 L 35.5 81 L 35.5 80 Z " /><path fill="rgb(247,180,120)" stroke="rgb(247,180,120)" stroke-width="1" opacity="1" d="M 30.5 116 L 31 120.5 L 30 120.5 L 30.5 116 Z " /><path fill="rgb(247,180,120)" stroke="rgb(247,180,120)" stroke-width="1" opacity="1" d="M 34.5 142 L 54 142.5 L 34.5 143 L 34.5 142 Z " /><path fill="rgb(247,180,120)" stroke="rgb(247,180,120)" stroke-width="1" opacity="1" d="M 84.5 142 L 114 143.5 L 95.5 148 L 42.5 148 L 38 150.5 L 38 172.5 L 39.5 173 L 47 176 L 45.5 179 L 36 186.5 L 35 200 Q 31.3 201.3 33 195.5 L 32 194.5 L 32 183.5 L 31 182.5 L 32 181.5 L 33 148.5 L 34 146 L 41.5 146 L 42.5 145 L 59.5 145 L 60.5 144 L 90 143.5 L 84.5 143 L 84.5 142 Z " /><path fill="rgb(247,180,120)" stroke="rgb(247,180,120)" stroke-width="1" opacity="1" d="M 30.5 147 L 31 161.5 L 30 161.5 L 30.5 147 Z " /><path fill="rgb(247,180,120)" stroke="rgb(247,180,120)" stroke-width="1" opacity="1" d="M 50.5 190 Q 57.8 188.8 59 193.5 L 54.5 200 L 46.5 200 L 45 198.5 L 48.5 191 L 50.5 190 Z " /><path fill="rgb(247,180,120)" stroke="rgb(247,180,120)" stroke-width="1" opacity="1" d="M 84.5 191 L 88 193.5 Q 88.8 197.3 86.5 198 L 84 198 L 83.5 200 L 78.5 200 L 82 195.5 Q 81.5 191.5 84.5 191 Z " /><path fill="rgb(192,83,59)" stroke="rgb(192,83,59)" stroke-width="1" opacity="1" d="M 142.5 78 L 143 80 L 148.5 81 L 157.5 81 L 160.5 83 L 161.5 82 L 168 82 L 169 91.5 L 165 108.5 Q 168.5 110.2 167 116 L 164 115.5 L 166 115 L 165.5 110 L 150 110 L 150 116 L 161.5 116 L 161 117.5 L 160 121 L 167 121.5 L 151.5 122 L 150 123.5 Q 149.3 127.3 151.5 128 L 165.5 128 L 166.5 127 L 165.5 129 L 151.5 129 L 149 128 L 149 130 Q 146.3 128.9 147 131.5 L 146 131.5 L 145 127.5 L 143 82.5 L 142.5 78 Z M 150 98 L 150 104 L 166 104 Q 167 104 166 100 L 165 98 L 150 98 Z " /><path fill="rgb(192,83,59)" stroke="rgb(192,83,59)" stroke-width="1" opacity="1" d="M 150.5 78 L 153 78.5 L 150.5 79 L 150.5 78 Z " /><path fill="rgb(192,83,59)" stroke="rgb(192,83,59)" stroke-width="1" opacity="1" d="M 160.5 79 L 163 79.5 L 160.5 80 L 160.5 79 Z " /><path fill="rgb(192,83,59)" stroke="rgb(192,83,59)" stroke-width="1" opacity="1" d="M 108.5 80 Q 118.8 78.8 124 81 L 122 84.5 L 122.5 86 L 119.5 85 L 94 84.5 L 105.5 83 L 108 84 Q 109.1 81.3 106.5 82 L 106.5 81 L 108.5 80 Z " /><path fill="rgb(192,83,59)" stroke="rgb(192,83,59)" stroke-width="1" opacity="1" d="M 137.5 82 L 138 90.5 L 137 90.5 L 137.5 82 Z " /><path fill="rgb(192,83,59)" stroke="rgb(192,83,59)" stroke-width="1" opacity="1" d="M 169.5 95 L 170 97.5 L 169 97.5 L 169.5 95 Z " /><path fill="rgb(192,83,59)" stroke="rgb(192,83,59)" stroke-width="1" opacity="1" d="M 138.5 96 L 139 106.5 L 138 106.5 L 138.5 96 Z " /><path fill="rgb(192,83,59)" stroke="rgb(192,83,59)" stroke-width="1" opacity="1" d="M 170.5 104 L 171 107.5 L 170 107.5 L 170.5 104 Z " /><path fill="rgb(192,83,59)" stroke="rgb(192,83,59)" stroke-width="1" opacity="1" d="M 128.5 110 L 129 112.5 L 128 112.5 L 128.5 110 Z " /><path fill="rgb(192,83,59)" stroke="rgb(192,83,59)" stroke-width="1" opacity="1" d="M 139.5 112 L 140 123.5 L 139 123.5 L 139.5 112 Z " /><path fill="rgb(192,83,59)" stroke="rgb(192,83,59)" stroke-width="1" opacity="1" d="M 171.5 114 L 172 118.5 L 171 118.5 L 171.5 114 Z " /><path fill="rgb(192,83,59)" stroke="rgb(192,83,59)" stroke-width="1" opacity="1" d="M 128.5 125 L 127.5 127 L 128.5 125 Z " /><path fill="rgb(192,83,59)" stroke="rgb(192,83,59)" stroke-width="1" opacity="1" d="M 96.5 127 L 114 127.5 Q 111.1 132.1 104.5 133 Q 102.5 130 96.5 131 L 84.5 134 L 78.5 134 L 75.5 136 L 48 136 L 49 128 L 95.5 128 L 96.5 127 Z M 55 134 L 55 135 L 60 135 L 55 134 Z " /><path fill="rgb(192,83,59)" stroke="rgb(192,83,59)" stroke-width="1" opacity="1" d="M 172.5 128 L 173 133.5 L 172 133.5 L 172.5 128 Z " /><path fill="rgb(192,83,59)" stroke="rgb(192,83,59)" stroke-width="1" opacity="1" d="M 140.5 130 L 141 136 L 138 135.5 L 140 135 L 140.5 130 Z " /><path fill="rgb(192,83,59)" stroke="rgb(192,83,59)" stroke-width="1" opacity="1" d="M 148.5 135 L 155 135.5 L 148.5 136 L 148.5 135 Z " /><path fill="rgb(192,83,59)" stroke="rgb(192,83,59)" stroke-width="1" opacity="1" d="M 157.5 141 L 173 141 L 173 149 L 165.5 145 L 157.5 145 L 151 149.5 L 148 157.5 L 148 163.5 L 153 174.5 L 166 194.5 L 156 198 L 155.5 200 L 146 200 L 146 142.5 L 146.5 142 L 156.5 142 L 157.5 141 Z " /><path fill="rgb(192,83,59)" stroke="rgb(192,83,59)" stroke-width="1" opacity="1" d="M 140.5 146 L 141 153.5 L 140 153.5 L 140.5 146 Z " /><path fill="rgb(192,83,59)" stroke="rgb(192,83,59)" stroke-width="1" opacity="1" d="M 42.5 173 L 97.5 174 L 98.5 173 L 125.5 173 L 125.5 174 L 114.5 174 L 114 176 Q 117.8 175 119 177.5 L 121 182 L 123 182.5 L 108 185 Q 106.4 187.1 107 192.5 L 108 193.5 L 108 200 L 99.5 200 L 98 198.5 L 94 191 L 91 192.5 L 90 195.5 L 93 199.5 L 85.5 200 L 85.5 199 L 89 197.5 L 89 194.5 L 86 190 L 83 191.5 L 77.5 200 L 65 200 L 65 194.5 L 61.5 188 L 60 188.5 L 60 195.5 L 61 197.5 L 60 200 L 55 199.5 L 59 196.5 Q 60 191 56.5 190 L 51.5 189 L 45 192.5 L 46 194.5 L 45 200 Q 41.6 200.8 40.5 198 L 40 200 L 36 200 L 36 190.5 L 38 185.5 L 41.5 182 L 48 182 L 48 178.5 L 49 176 L 42.5 174 L 42.5 173 Z " /><path fill="rgb(192,83,59)" stroke="rgb(192,83,59)" stroke-width="1" opacity="1" d="M 140.5 186 L 141 199.5 L 140 199.5 L 140.5 186 Z " /><path fill="rgb(192,83,59)" stroke="rgb(192,83,59)" stroke-width="1" opacity="1" d="M 134.5 193 L 135 196.5 L 134 196.5 L 134.5 193 Z " /><path fill="rgb(221,122,83)" stroke="rgb(221,122,83)" stroke-width="1" opacity="1" d="M 110.5 78 L 135.5 79 L 137 80.5 L 140 135 L 122.5 135 L 121.5 136 L 76.5 136 L 76.5 135 L 101.5 131 L 106.5 133 L 112.5 128 L 121.5 128 Q 122.8 125.7 127.5 127 L 129 125.5 L 130 119.5 L 129 118.5 L 129 103.5 L 128 102.5 Q 129 92 127 86 L 122 84.5 L 124 81 Q 118.8 78.8 108.5 80 L 106 81.5 L 108 82 Q 109.1 84.7 106.5 84 L 102.5 83 Q 101.2 85.3 96.5 84 L 96.5 83 L 99.5 83 L 110.5 78 Z " /><path fill="rgb(221,122,83)" stroke="rgb(221,122,83)" stroke-width="1" opacity="1" d="M 143.5 78 L 144.5 79 L 164.5 80 L 167 81.5 L 159.5 83 L 157.5 81 L 148.5 81 L 143 80 L 143.5 78 Z " /><path fill="rgb(221,122,83)" stroke="rgb(221,122,83)" stroke-width="1" opacity="1" d="M 48.5 129 L 49 132.5 L 48 132.5 L 48.5 129 Z " /><path fill="rgb(221,122,83)" stroke="rgb(221,122,83)" stroke-width="1" opacity="1" d="M 54.5 134 L 60 134.5 L 54.5 135 L 54.5 134 Z " /><path fill="rgb(221,122,83)" stroke="rgb(221,122,83)" stroke-width="1" opacity="1" d="M 102.5 142 L 136.5 143 L 140 142 L 140 153.5 L 141 154.5 L 141 185.5 L 140 186.5 L 140 200 L 135 200 L 135 188.5 L 131.5 183 Q 124 184 121 182 L 117.5 176 Q 112.7 177.3 114 174 L 129.5 174 L 132 173 L 132 149.5 L 130.5 148 L 126.5 147 L 102.5 147 Q 101.2 149.3 96.5 148 L 96.5 147 L 114 143.5 L 102.5 143 L 102.5 142 Z " /><path fill="rgb(221,122,83)" stroke="rgb(221,122,83)" stroke-width="1" opacity="1" d="M 45.5 175 L 49 176 L 48 182 Q 40 180.3 38 185.5 L 36.5 190 L 36 186.5 L 47 177.5 Q 47.8 175.3 45.5 176 L 45.5 175 Z " /><path fill="rgb(221,122,83)" stroke="rgb(221,122,83)" stroke-width="1" opacity="1" d="M 51.5 189 L 54 189.5 L 51.5 190 L 51.5 189 Z " /><path fill="rgb(221,122,83)" stroke="rgb(221,122,83)" stroke-width="1" opacity="1" d="M 56.5 190 L 58.5 193 L 56.5 190 Z " /><path fill="rgb(221,122,83)" stroke="rgb(221,122,83)" stroke-width="1" opacity="1" d="M 84.5 190 L 86 190.5 L 83.5 192 L 84.5 190 Z " /><path fill="rgb(221,122,83)" stroke="rgb(221,122,83)" stroke-width="1" opacity="1" d="M 35.5 194 L 36 199.5 L 35 199.5 L 35.5 194 Z " /><path fill="rgb(221,122,83)" stroke="rgb(221,122,83)" stroke-width="1" opacity="1" d="M 81.5 194 L 82 195.5 L 79 197.5 L 81.5 194 Z " /><path fill="rgb(221,122,83)" stroke="rgb(221,122,83)" stroke-width="1" opacity="1" d="M 88.5 194 L 89 197.5 L 84.5 200 L 84 198 L 88 196.5 L 88.5 194 Z " /><path fill="rgb(221,122,83)" stroke="rgb(221,122,83)" stroke-width="1" opacity="1" d="M 32.5 195 L 33 197.5 L 32 197.5 L 32.5 195 Z " /><path fill="rgb(221,122,83)" stroke="rgb(221,122,83)" stroke-width="1" opacity="1" d="M 58.5 195 L 59 196.5 L 56 198.5 L 58.5 195 Z " /><path fill="rgb(43,90,94)" stroke="rgb(43,90,94)" stroke-width="1" opacity="1" d="M 102.5 68 L 103 70.5 L 102 70.5 L 102.5 68 Z " /><path fill="rgb(43,90,94)" stroke="rgb(43,90,94)" stroke-width="1" opacity="1" d="M 88.5 71 L 93 71.5 L 88.5 72 L 88.5 71 Z " /><path fill="rgb(43,90,94)" stroke="rgb(43,90,94)" stroke-width="1" opacity="1" d="M 70.5 77 L 73 77.5 L 70.5 78 L 70.5 77 Z " /><path fill="rgb(43,90,94)" stroke="rgb(43,90,94)" stroke-width="1" opacity="1" d="M 70.5 85 L 92 85.5 L 89 87 Q 90.1 89.7 87.5 89 L 87.5 90 L 106 90.5 L 85.5 91 L 83.5 91 Q 78.8 92.2 77.5 90 L 76.5 91 L 45.5 92 L 44 93.5 Q 45.3 98.3 43 99.5 L 43 123 L 52 123.5 L 49 128 L 40.5 128 L 40 126.5 L 38 122.5 L 38 96.5 Q 40.5 95 39 89.5 L 40.5 88 L 42.5 87 L 53.5 87 L 54.5 86 L 69.5 86 L 70.5 85 Z " /><path fill="rgb(43,90,94)" stroke="rgb(43,90,94)" stroke-width="1" opacity="1" d="M 118.5 91 L 122 92.5 L 121.5 94 L 121 92 Q 117.7 92.8 118.5 91 Z " /><path fill="rgb(43,90,94)" stroke="rgb(43,90,94)" stroke-width="1" opacity="1" d="M 53.5 102 Q 57.5 101.5 58 104.5 Q 58.8 109.3 55.5 110 Q 50.8 110.8 50 107.5 Q 49.3 103.8 51.5 103 L 53.5 102 Z " /><path fill="rgb(43,90,94)" stroke="rgb(43,90,94)" stroke-width="1" opacity="1" d="M 107.5 102 L 106.5 104 L 107.5 102 Z " /><path fill="rgb(43,90,94)" stroke="rgb(43,90,94)" stroke-width="1" opacity="1" d="M 122.5 102 L 123 106.5 L 122 106.5 L 122.5 102 Z " /><path fill="rgb(43,90,94)" stroke="rgb(43,90,94)" stroke-width="1" opacity="1" d="M 106.5 107 L 107.5 109 L 106.5 107 Z " /><path fill="rgb(43,90,94)" stroke="rgb(43,90,94)" stroke-width="1" opacity="1" d="M 113.5 107 L 112.5 109 L 113.5 107 Z " /><path fill="rgb(43,90,94)" stroke="rgb(43,90,94)" stroke-width="1" opacity="1" d="M 123.5 119 L 124 120.5 Q 122.5 123.5 116.5 122 L 116.5 121 Q 123.7 122.5 123.5 119 Z " /><path fill="rgb(43,90,94)" stroke="rgb(43,90,94)" stroke-width="1" opacity="1" d="M 53.5 122 L 79 122.5 L 53.5 123 L 53.5 122 Z " /><path fill="rgb(43,90,94)" stroke="rgb(43,90,94)" stroke-width="1" opacity="1" d="M 54.5 148 L 80 148.5 L 54.5 149 L 54.5 148 Z " /><path fill="rgb(43,90,94)" stroke="rgb(43,90,94)" stroke-width="1" opacity="1" d="M 157.5 151 L 155.5 154 L 157.5 151 Z " /><path fill="rgb(43,90,94)" stroke="rgb(43,90,94)" stroke-width="1" opacity="1" d="M 166.5 152 L 169.5 156 L 166.5 152 Z " /><path fill="rgb(43,90,94)" stroke="rgb(43,90,94)" stroke-width="1" opacity="1" d="M 169.5 159 L 173 167 L 166 169 L 163 163.5 L 169.5 159 Z " /><path fill="rgb(43,90,94)" stroke="rgb(43,90,94)" stroke-width="1" opacity="1" d="M 172.5 159 L 173.5 161 L 172.5 159 Z " /><path fill="rgb(43,90,94)" stroke="rgb(43,90,94)" stroke-width="1" opacity="1" d="M 174.5 162 L 176.5 165 Q 172.1 166.1 174.5 162 Z " /><path fill="rgb(43,90,94)" stroke="rgb(43,90,94)" stroke-width="1" opacity="1" d="M 156.5 168 L 157.5 170 L 156.5 168 Z " /><path fill="rgb(43,90,94)" stroke="rgb(43,90,94)" stroke-width="1" opacity="1" d="M 24.5 171 L 23.5 173 L 24.5 171 Z " /><path fill="rgb(43,90,94)" stroke="rgb(43,90,94)" stroke-width="1" opacity="1" d="M 131.5 171 L 130.5 173 L 131.5 171 Z " /><path fill="rgb(43,90,94)" stroke="rgb(43,90,94)" stroke-width="1" opacity="1" d="M 158.5 171 L 159.5 173 L 158.5 171 Z " /><path fill="rgb(43,90,94)" stroke="rgb(43,90,94)" stroke-width="1" opacity="1" d="M 184.5 178 L 188 184.5 L 186 185 L 184.5 178 Z " /><path fill="rgb(43,90,94)" stroke="rgb(43,90,94)" stroke-width="1" opacity="1" d="M 181.5 179 L 183 179.5 L 182.5 181 Q 185.5 180.1 184 184.5 L 184.5 186 L 178 189 L 175 182.5 L 181.5 179 Z " /><path fill="rgb(43,90,94)" stroke="rgb(43,90,94)" stroke-width="1" opacity="1" d="M 112.5 184 L 125.5 184 L 126 185.5 L 127 189 L 114.5 189 L 113 190.5 L 113 200 L 108 200 L 108 186.5 L 109.5 185 L 112.5 184 Z " /><path fill="rgb(43,90,94)" stroke="rgb(43,90,94)" stroke-width="1" opacity="1" d="M 167.5 186 L 168.5 188 L 167.5 186 Z " /><path fill="rgb(43,90,94)" stroke="rgb(43,90,94)" stroke-width="1" opacity="1" d="M 24.5 188 L 26 191.5 L 24 190.5 L 24.5 188 Z " /><path fill="rgb(43,90,94)" stroke="rgb(43,90,94)" stroke-width="1" opacity="1" d="M 170.5 191 L 171.5 193 L 170.5 191 Z " /><path fill="rgb(99,166,166)" stroke="rgb(99,166,166)" stroke-width="1" opacity="1" d="M 94.5 63 L 102 68.5 L 101.5 71 L 94.5 71 L 95 69.5 L 96 65.5 L 94.5 63 Z " /><path fill="rgb(99,166,166)" stroke="rgb(99,166,166)" stroke-width="1" opacity="1" d="M 62.5 91 L 68 91.5 L 62.5 92 L 62.5 91 Z " /><path fill="rgb(99,166,166)" stroke="rgb(99,166,166)" stroke-width="1" opacity="1" d="M 108.5 91 L 115 91.5 L 108.5 92 L 108.5 91 Z " /><path fill="rgb(99,166,166)" stroke="rgb(99,166,166)" stroke-width="1" opacity="1" d="M 46.5 92 L 52 92.5 L 46.5 93 L 46.5 92 Z " /><path fill="rgb(99,166,166)" stroke="rgb(99,166,166)" stroke-width="1" opacity="1" d="M 120.5 92 L 121 100.5 L 122 101.5 L 122 117.5 L 123 119.5 L 121.5 121 L 53.5 122 L 63.5 111 L 66.5 109 L 78.5 97 L 81.5 96 L 99.5 95 L 100.5 94 L 112.5 94 L 120.5 92 Z M 109 101 L 105 106 L 106 109 L 112 110 Q 115 109 114 104 Q 113 100 109 101 Z " /><path fill="rgb(99,166,166)" stroke="rgb(99,166,166)" stroke-width="1" opacity="1" d="M 56.5 102 L 57.5 104 L 56.5 102 Z " /><path fill="rgb(99,166,166)" stroke="rgb(99,166,166)" stroke-width="1" opacity="1" d="M 43.5 104 L 44 119.5 L 43 119.5 L 43.5 104 Z " /><path fill="rgb(99,166,166)" stroke="rgb(99,166,166)" stroke-width="1" opacity="1" d="M 57.5 108 L 56.5 110 L 57.5 108 Z " /><path fill="rgb(99,166,166)" stroke="rgb(99,166,166)" stroke-width="1" opacity="1" d="M 44.5 122 L 51 122.5 L 44.5 123 L 44.5 122 Z " /><path fill="rgb(99,166,166)" stroke="rgb(99,166,166)" stroke-width="1" opacity="1" d="M 159 151 Q 168 150.7 171 157.5 L 162.5 163 Q 157.6 159.5 159 151 Z " /><path fill="rgb(99,166,166)" stroke="rgb(99,166,166)" stroke-width="1" opacity="1" d="M 159.5 166 L 158.5 168 L 159.5 166 Z " /><path fill="rgb(99,166,166)" stroke="rgb(99,166,166)" stroke-width="1" opacity="1" d="M 174.5 166 Q 178.5 165.5 179 168.5 L 183 178 Q 177.2 177.4 174.5 182 L 168 171 L 164 173.5 L 162.5 177 L 162 175.5 L 166.5 170 L 174.5 166 Z " /><path fill="rgb(99,166,166)" stroke="rgb(99,166,166)" stroke-width="1" opacity="1" d="M 24.5 175 L 25 180.5 L 24 180.5 L 24.5 175 Z " /><path fill="rgb(99,166,166)" stroke="rgb(99,166,166)" stroke-width="1" opacity="1" d="M 20.5 179 L 23 180.5 L 21.5 181 L 20.5 179 Z " /><path fill="rgb(99,166,166)" stroke="rgb(99,166,166)" stroke-width="1" opacity="1" d="M 164.5 180 L 165.5 182 L 164.5 180 Z " /><path fill="rgb(99,166,166)" stroke="rgb(99,166,166)" stroke-width="1" opacity="1" d="M 167.5 185 L 168.5 187 L 167.5 185 Z " /><path fill="rgb(99,166,166)" stroke="rgb(99,166,166)" stroke-width="1" opacity="1" d="M 185.5 186 L 189 187.5 L 193 200 L 189.5 199 L 183 200 L 180 191 Q 175.3 190.3 174 194.5 L 173.5 196 L 173 194.5 L 176 190 L 179.5 190 L 185.5 186 Z " /><path fill="rgb(99,166,166)" stroke="rgb(99,166,166)" stroke-width="1" opacity="1" d="M 20.5 188 L 23 189.5 L 21.5 189 L 20.5 188 Z " /><path fill="rgb(99,166,166)" stroke="rgb(99,166,166)" stroke-width="1" opacity="1" d="M 114.5 189 L 126 189.5 L 114.5 190 L 114.5 189 Z " /><path fill="rgb(99,166,166)" stroke="rgb(99,166,166)" stroke-width="1" opacity="1" d="M 23.5 191 L 25 192.5 Q 24.4 197.9 26 200 L 19 199.5 L 23.5 191 Z " /><path fill="rgb(99,166,166)" stroke="rgb(99,166,166)" stroke-width="1" opacity="1" d="M 125.5 195 L 124 197.5 Q 124.8 199.8 122.5 199 L 121 199.5 L 125.5 195 Z " /><path fill="rgb(68,142,141)" stroke="rgb(68,142,141)" stroke-width="1" opacity="1" d="M 88.5 64 L 86.5 67 L 88.5 64 Z " /><path fill="rgb(68,142,141)" stroke="rgb(68,142,141)" stroke-width="1" opacity="1" d="M 98.5 64 L 101.5 68 L 98.5 64 Z " /><path fill="rgb(68,142,141)" stroke="rgb(68,142,141)" stroke-width="1" opacity="1" d="M 85.5 68 L 86 71 L 88 71.5 L 86.5 72 Q 84 71 85.5 68 Z " /><path fill="rgb(68,142,141)" stroke="rgb(68,142,141)" stroke-width="1" opacity="1" d="M 58.5 91 L 62 91.5 L 58.5 92 L 58.5 91 Z " /><path fill="rgb(68,142,141)" stroke="rgb(68,142,141)" stroke-width="1" opacity="1" d="M 115.5 91 L 118 91.5 L 115.5 92 L 115.5 91 Z " /><path fill="rgb(68,142,141)" stroke="rgb(68,142,141)" stroke-width="1" opacity="1" d="M 45.5 92 L 44.5 94 L 45.5 92 Z " /><path fill="rgb(68,142,141)" stroke="rgb(68,142,141)" stroke-width="1" opacity="1" d="M 121.5 94 L 122 100.5 L 121 100.5 L 121.5 94 Z " /><path fill="rgb(68,142,141)" stroke="rgb(68,142,141)" stroke-width="1" opacity="1" d="M 43.5 99 L 44 103.5 L 43 103.5 L 43.5 99 Z " /><path fill="rgb(68,142,141)" stroke="rgb(68,142,141)" stroke-width="1" opacity="1" d="M 108.5 101 Q 113.3 100.3 114 103.5 L 111.5 102 Q 107.5 102.7 108.5 101 Z " /><path fill="rgb(68,142,141)" stroke="rgb(68,142,141)" stroke-width="1" opacity="1" d="M 122.5 107 L 123 117.5 L 122 117.5 L 122.5 107 Z " /><path fill="rgb(68,142,141)" stroke="rgb(68,142,141)" stroke-width="1" opacity="1" d="M 43.5 120 L 44 122.5 L 43 122.5 L 43.5 120 Z " /><path fill="rgb(68,142,141)" stroke="rgb(68,142,141)" stroke-width="1" opacity="1" d="M 81.5 121 L 116 121.5 L 81.5 122 L 81.5 121 Z " /><path fill="rgb(68,142,141)" stroke="rgb(68,142,141)" stroke-width="1" opacity="1" d="M 170 158 Q 172.7 156.9 172 159.5 Q 175 160.8 174 165 L 178 166.5 L 176.5 166 L 173.5 167 Q 169.2 164.2 170 158 Z " /><path fill="rgb(68,142,141)" stroke="rgb(68,142,141)" stroke-width="1" opacity="1" d="M 167.5 159 L 169 159.5 L 166.5 161 L 167.5 159 Z " /><path fill="rgb(68,142,141)" stroke="rgb(68,142,141)" stroke-width="1" opacity="1" d="M 164.5 161 L 163 163.5 L 164 164.5 L 166 169 L 169.5 168 L 168.5 170 Q 163.5 169.5 163 173.5 L 161.5 176 L 157 168.5 L 160 166.5 L 164.5 161 Z " /><path fill="rgb(68,142,141)" stroke="rgb(68,142,141)" stroke-width="1" opacity="1" d="M 24.5 172 L 25 174.5 L 24 174.5 L 24.5 172 Z " /><path fill="rgb(68,142,141)" stroke="rgb(68,142,141)" stroke-width="1" opacity="1" d="M 181.5 173 L 182.5 175 L 181.5 173 Z " /><path fill="rgb(68,142,141)" stroke="rgb(68,142,141)" stroke-width="1" opacity="1" d="M 183.5 176 L 186 185 L 189 186.5 L 187.5 186 L 179.5 190 L 176 190 L 172.5 195 L 169 187.5 Q 173.3 179.4 183 178 L 183.5 176 Z M 182 179 L 175 183 L 178 189 L 185 186 L 184 185 Q 185 180 183 181 L 183 180 L 182 179 Z " /><path fill="rgb(68,142,141)" stroke="rgb(68,142,141)" stroke-width="1" opacity="1" d="M 19 180 L 25 181 L 24 190.5 Q 27.3 191.8 26 197.5 L 25 197.5 L 25 192.5 L 21.5 188 Q 17.8 188.8 17 186.5 L 19 180 Z " /><path fill="rgb(68,142,141)" stroke="rgb(68,142,141)" stroke-width="1" opacity="1" d="M 126 189 L 129 190.5 L 129 200 L 122.5 200 L 122.5 199 Q 124.8 199.8 124 197.5 Q 127.8 195.6 126 189 Z " /><path fill="rgb(68,142,141)" stroke="rgb(68,142,141)" stroke-width="1" opacity="1" d="M 113.5 190 L 114 199.5 L 113 199.5 L 113.5 190 Z " /><path fill="rgb(177,111,88)" stroke="rgb(177,111,88)" stroke-width="1" opacity="1" d="M 73.5 77 L 78 77.5 L 73.5 78 L 73.5 77 Z " /><path fill="rgb(177,111,88)" stroke="rgb(177,111,88)" stroke-width="1" opacity="1" d="M 129.5 77 Q 135.5 75.5 137 78.5 L 135.5 78 L 129.5 78 L 129.5 77 Z " /><path fill="rgb(177,111,88)" stroke="rgb(177,111,88)" stroke-width="1" opacity="1" d="M 55.5 78 L 58 78.5 L 55.5 79 L 55.5 78 Z " /><path fill="rgb(177,111,88)" stroke="rgb(177,111,88)" stroke-width="1" opacity="1" d="M 144.5 78 L 150 78.5 L 144.5 79 L 144.5 78 Z " /><path fill="rgb(177,111,88)" stroke="rgb(177,111,88)" stroke-width="1" opacity="1" d="M 81.5 84 L 94 84.5 L 81.5 85 L 81.5 84 Z " /><path fill="rgb(177,111,88)" stroke="rgb(177,111,88)" stroke-width="1" opacity="1" d="M 65.5 85 L 70 85.5 L 65.5 86 L 65.5 85 Z " /><path fill="rgb(177,111,88)" stroke="rgb(177,111,88)" stroke-width="1" opacity="1" d="M 31.5 86 L 32 89.5 L 31 89.5 L 31.5 86 Z " /><path fill="rgb(177,111,88)" stroke="rgb(177,111,88)" stroke-width="1" opacity="1" d="M 49.5 86 L 53 86.5 L 49.5 87 L 49.5 86 Z " /><path fill="rgb(177,111,88)" stroke="rgb(177,111,88)" stroke-width="1" opacity="1" d="M 40.5 87 L 39.5 89 L 40.5 87 Z " /><path fill="rgb(177,111,88)" stroke="rgb(177,111,88)" stroke-width="1" opacity="1" d="M 127.5 90 L 128 96.5 L 127 96.5 L 127.5 90 Z " /><path fill="rgb(177,111,88)" stroke="rgb(177,111,88)" stroke-width="1" opacity="1" d="M 168.5 92 L 170 98.5 L 170 107.5 L 171 108.5 L 171 118.5 L 172 119.5 L 172 135 L 148.5 135 L 147.5 136 L 146 132.5 L 147 130 L 149 130 Q 147.9 127.3 150.5 128 L 151.5 129 L 165.5 129 L 167 127.5 L 167 121 L 160.5 121 L 160 119.5 L 162.5 116 Q 169.7 118.3 167 110.5 L 165 107.5 L 167 103.5 L 168.5 92 Z " /><path fill="rgb(177,111,88)" stroke="rgb(177,111,88)" stroke-width="1" opacity="1" d="M 30.5 103 L 31 115.5 L 30 115.5 L 30.5 103 Z " /><path fill="rgb(177,111,88)" stroke="rgb(177,111,88)" stroke-width="1" opacity="1" d="M 128.5 103 L 129 109.5 L 128 109.5 L 128.5 103 Z " /><path fill="rgb(177,111,88)" stroke="rgb(177,111,88)" stroke-width="1" opacity="1" d="M 129.5 119 L 130 123.5 L 129 123.5 L 129.5 119 Z " /><path fill="rgb(177,111,88)" stroke="rgb(177,111,88)" stroke-width="1" opacity="1" d="M 114.5 127 L 122 127.5 L 114.5 128 L 114.5 127 Z " /><path fill="rgb(177,111,88)" stroke="rgb(177,111,88)" stroke-width="1" opacity="1" d="M 122.5 135 L 138 135.5 L 122.5 136 L 122.5 135 Z " /><path fill="rgb(177,111,88)" stroke="rgb(177,111,88)" stroke-width="1" opacity="1" d="M 54.5 142 L 84 142.5 L 54.5 143 L 54.5 142 Z " /><path fill="rgb(177,111,88)" stroke="rgb(177,111,88)" stroke-width="1" opacity="1" d="M 95.5 142 L 102 142.5 L 95.5 143 L 95.5 142 Z " /><path fill="rgb(177,111,88)" stroke="rgb(177,111,88)" stroke-width="1" opacity="1" d="M 117.5 142 L 120 142.5 L 117.5 143 L 117.5 142 Z " /><path fill="rgb(177,111,88)" stroke="rgb(177,111,88)" stroke-width="1" opacity="1" d="M 122.5 142 L 137 142.5 L 122.5 143 L 122.5 142 Z " /><path fill="rgb(177,111,88)" stroke="rgb(177,111,88)" stroke-width="1" opacity="1" d="M 140.5 143 L 141 145.5 L 140 145.5 L 140.5 143 Z " /><path fill="rgb(177,111,88)" stroke="rgb(177,111,88)" stroke-width="1" opacity="1" d="M 102.5 147 L 127 147.5 L 102.5 148 L 102.5 147 Z " /><path fill="rgb(177,111,88)" stroke="rgb(177,111,88)" stroke-width="1" opacity="1" d="M 42.5 148 L 54 148.5 L 42.5 149 L 42.5 148 Z " /><path fill="rgb(177,111,88)" stroke="rgb(177,111,88)" stroke-width="1" opacity="1" d="M 39.5 149 L 38.5 151 L 39.5 149 Z " /><path fill="rgb(177,111,88)" stroke="rgb(177,111,88)" stroke-width="1" opacity="1" d="M 30.5 162 L 31 170.5 L 30 170.5 L 30.5 162 Z " /><path fill="rgb(177,111,88)" stroke="rgb(177,111,88)" stroke-width="1" opacity="1" d="M 38.5 171 L 39.5 173 L 38.5 171 Z " /><path fill="rgb(177,111,88)" stroke="rgb(177,111,88)" stroke-width="1" opacity="1" d="M 126.5 173 L 130 173.5 L 126.5 174 L 126.5 173 Z " /><path fill="rgb(177,111,88)" stroke="rgb(177,111,88)" stroke-width="1" opacity="1" d="M 117.5 183 L 126 183.5 L 117.5 184 L 117.5 183 Z " /><path fill="rgb(177,111,88)" stroke="rgb(177,111,88)" stroke-width="1" opacity="1" d="M 127.5 183 Q 133 182 134 185.5 L 131.5 184 Q 126.5 185 127.5 183 Z " /><path fill="rgb(177,111,88)" stroke="rgb(177,111,88)" stroke-width="1" opacity="1" d="M 31.5 184 L 32 187.5 L 31 187.5 L 31.5 184 Z " /><path fill="rgb(177,111,88)" stroke="rgb(177,111,88)" stroke-width="1" opacity="1" d="M 107.5 187 L 108 192.5 L 107 192.5 L 107.5 187 Z " /><path fill="rgb(177,111,88)" stroke="rgb(177,111,88)" stroke-width="1" opacity="1" d="M 134.5 188 L 135 192.5 L 134 192.5 L 134.5 188 Z " /><path fill="rgb(177,111,88)" stroke="rgb(177,111,88)" stroke-width="1" opacity="1" d="M 164.5 195 Q 166.8 194.3 166 196.5 L 168 199.5 L 156 200 Q 154.8 197 158.5 198 L 164.5 195 Z " /><path fill="rgb(23,8,4)" stroke="rgb(23,8,4)" stroke-width="1" opacity="0.9882352941176471" d="M 91.5 57 Q 102.3 57.3 106 64.5 L 109.5 72 L 145.5 72 L 146.5 73 L 165.5 74 L 172 76.5 L 175 91.5 L 176 108.5 L 177 109.5 L 178 138.5 L 179 139.5 L 179 158.5 Q 192.3 176.2 200 199.5 L 194 200 L 191 189.5 L 179 166.5 L 165.5 151 L 159.5 150 L 155 153.5 L 153 160.5 L 154 165.5 L 170 190.5 L 174 200 Q 169.4 201.3 168 198.5 L 149 166.5 L 149 155.5 Q 150.3 149.8 154.5 147 Q 157.4 144.4 163.5 145 L 172.5 150 L 173 141 L 146 141 L 146 199.5 L 141 200 L 141 190.5 L 142 189.5 L 142 150.5 L 141 149.5 L 141 142 L 30.5 142 L 30 142.5 L 30 178.5 L 31 179.5 L 31 192.5 L 32 193.5 L 32 200 L 27 200 L 27 197.5 L 26 196.5 L 25 171 Q 22.3 169.9 23 172.5 L 9.5 200 Q 4.1 201.9 5 198.5 Q 12.5 178 24 161.5 L 24 106.5 L 25 105.5 L 25 88.5 L 26 87.5 L 26 77 L 31.5 75 Q 37.7 76.8 39.5 74 L 80 72 Q 79.5 63.7 84.5 60 L 91.5 57 Z M 92 62 L 88 64 Q 84 66 85 72 L 102 72 L 103 71 L 102 67 L 96 62 L 92 62 Z M 65 77 L 64 78 L 50 78 L 49 79 L 32 80 L 31 83 L 31 96 L 30 97 L 30 137 L 122 137 L 123 136 L 141 136 L 139 92 L 138 91 L 138 78 L 138 77 L 65 77 Z M 141 78 L 143 88 L 145 135 L 147 136 L 164 136 L 165 135 L 173 135 L 172 111 L 171 110 L 171 101 L 170 100 L 168 82 L 165 79 L 141 78 Z " /><path fill="rgb(23,8,4)" stroke="rgb(23,8,4)" stroke-width="1" opacity="0.9882352941176471" d="M 151.5 98 L 165 98 L 165 103 Q 160.5 105 151.5 104 Q 149.3 103.3 150 99.5 L 151.5 98 Z " /><path fill="rgb(23,8,4)" stroke="rgb(23,8,4)" stroke-width="1" opacity="0.9882352941176471" d="M 151 110 L 164.5 110 L 165 111.5 L 166 115 L 151 116 L 151 110 Z " /><path fill="rgb(23,8,4)" stroke="rgb(23,8,4)" stroke-width="1" opacity="0.9882352941176471" d="M 153.5 122 L 166 122 L 166 127 Q 160.7 129.2 151 128 L 151 123 L 152.5 123 L 153.5 122 Z " /><path fill="rgb(23,8,4)" stroke="rgb(23,8,4)" stroke-width="1" opacity="0.9882352941176471" d="M 61.5 189 Q 65.9 192.6 65 200 L 60 199.5 L 61 195.5 L 60 193.5 L 61.5 189 Z " /><path fill="rgb(23,8,4)" stroke="rgb(23,8,4)" stroke-width="1" opacity="0.9882352941176471" d="M 92.5 191 L 98 200 Q 93.4 201.3 92 198.5 L 90 194.5 L 92.5 191 Z " /><path fill="rgb(35,230,126)" stroke="rgb(35,230,126)" stroke-width="1" opacity="1" d="M 44 153 L 60 153 L 60 169 L 44 169 L 44 153 Z " /><path fill="rgb(35,230,126)" stroke="rgb(35,230,126)" stroke-width="1" opacity="1" d="M 66 153 L 82 153 L 82 169 L 66 169 L 66 153 Z " /><path fill="rgb(35,230,126)" stroke="rgb(35,230,126)" stroke-width="1" opacity="1" d="M 88 153 L 104 153 L 104 169 L 88 169 L 88 153 Z " /><path fill="rgb(41,43,54)" stroke="rgb(41,43,54)" stroke-width="1" opacity="0.996078431372549" d="M 87.5 64 L 86.5 66 L 87.5 64 Z " /><path fill="rgb(41,43,54)" stroke="rgb(41,43,54)" stroke-width="1" opacity="0.996078431372549" d="M 93.5 71 L 102 71.5 L 93.5 72 L 93.5 71 Z " /><path fill="rgb(41,43,54)" stroke="rgb(41,43,54)" stroke-width="1" opacity="0.996078431372549" d="M 64.5 77 L 70 77.5 L 64.5 78 L 64.5 77 Z " /><path fill="rgb(41,43,54)" stroke="rgb(41,43,54)" stroke-width="1" opacity="0.996078431372549" d="M 137.5 77 L 138 81.5 L 137 81.5 L 137.5 77 Z " /><path fill="rgb(41,43,54)" stroke="rgb(41,43,54)" stroke-width="1" opacity="0.996078431372549" d="M 49.5 78 L 54 78.5 L 49.5 79 L 49.5 78 Z " /><path fill="rgb(41,43,54)" stroke="rgb(41,43,54)" stroke-width="1" opacity="0.996078431372549" d="M 153.5 78 L 157 78.5 L 153.5 79 L 153.5 78 Z " /><path fill="rgb(41,43,54)" stroke="rgb(41,43,54)" stroke-width="1" opacity="0.996078431372549" d="M 39.5 79 L 42 79.5 L 39.5 80 L 39.5 79 Z " /><path fill="rgb(41,43,54)" stroke="rgb(41,43,54)" stroke-width="1" opacity="0.996078431372549" d="M 31.5 82 L 32 85.5 L 31 85.5 L 31.5 82 Z " /><path fill="rgb(41,43,54)" stroke="rgb(41,43,54)" stroke-width="1" opacity="0.996078431372549" d="M 142.5 82 L 143 86.5 L 142 86.5 L 142.5 82 Z " /><path fill="rgb(41,43,54)" stroke="rgb(41,43,54)" stroke-width="1" opacity="0.996078431372549" d="M 92.5 85 L 119.5 85 Q 120.8 87.2 125.5 86 L 127 87.5 L 129 124.5 L 126.5 127 L 49 128 L 52.5 123 L 122.5 122 L 124 120.5 L 123 118.5 L 122 92.5 L 120.5 91 L 87 89.5 L 89 89 Q 87.9 86.3 90.5 87 L 92.5 85 Z " /><path fill="rgb(41,43,54)" stroke="rgb(41,43,54)" stroke-width="1" opacity="0.996078431372549" d="M 168.5 86 L 169 88.5 L 168 88.5 L 168.5 86 Z " /><path fill="rgb(41,43,54)" stroke="rgb(41,43,54)" stroke-width="1" opacity="0.996078431372549" d="M 138.5 91 L 139 95.5 L 138 95.5 L 138.5 91 Z " /><path fill="rgb(41,43,54)" stroke="rgb(41,43,54)" stroke-width="1" opacity="0.996078431372549" d="M 169.5 92 L 170 94.5 L 169 94.5 L 169.5 92 Z " /><path fill="rgb(41,43,54)" stroke="rgb(41,43,54)" stroke-width="1" opacity="0.996078431372549" d="M 143.5 95 L 144 101.5 L 143 101.5 L 143.5 95 Z " /><path fill="rgb(41,43,54)" stroke="rgb(41,43,54)" stroke-width="1" opacity="0.996078431372549" d="M 30.5 96 L 31 100.5 L 30 100.5 L 30.5 96 Z " /><path fill="rgb(41,43,54)" stroke="rgb(41,43,54)" stroke-width="1" opacity="0.996078431372549" d="M 165.5 99 L 166 104 L 162 103.5 L 165 103 L 165.5 99 Z " /><path fill="rgb(41,43,54)" stroke="rgb(41,43,54)" stroke-width="1" opacity="0.996078431372549" d="M 170.5 100 L 171 103.5 L 170 103.5 L 170.5 100 Z " /><path fill="rgb(41,43,54)" stroke="rgb(41,43,54)" stroke-width="1" opacity="0.996078431372549" d="M 108.5 102 Q 112.3 101.3 113 103.5 L 114 106.5 Q 113.3 109.8 108.5 109 Q 105.5 108.5 106 104.5 L 108.5 102 Z " /><path fill="rgb(41,43,54)" stroke="rgb(41,43,54)" stroke-width="1" opacity="0.996078431372549" d="M 139.5 106 L 140 111.5 L 139 111.5 L 139.5 106 Z " /><path fill="rgb(41,43,54)" stroke="rgb(41,43,54)" stroke-width="1" opacity="0.996078431372549" d="M 150.5 110 L 151 115.5 L 150 115.5 L 150.5 110 Z " /><path fill="rgb(41,43,54)" stroke="rgb(41,43,54)" stroke-width="1" opacity="0.996078431372549" d="M 171.5 110 L 172 113.5 L 171 113.5 L 171.5 110 Z " /><path fill="rgb(41,43,54)" stroke="rgb(41,43,54)" stroke-width="1" opacity="0.996078431372549" d="M 144.5 111 L 145 116.5 L 144 116.5 L 144.5 111 Z " /><path fill="rgb(41,43,54)" stroke="rgb(41,43,54)" stroke-width="1" opacity="0.996078431372549" d="M 157.5 115 L 164 115.5 L 157.5 116 L 157.5 115 Z " /><path fill="rgb(41,43,54)" stroke="rgb(41,43,54)" stroke-width="1" opacity="0.996078431372549" d="M 151.5 122 L 153 122.5 L 151 123 L 150.5 127 L 150 123.5 L 151.5 122 Z " /><path fill="rgb(41,43,54)" stroke="rgb(41,43,54)" stroke-width="1" opacity="0.996078431372549" d="M 166.5 122 L 167 126.5 L 163.5 128 L 163.5 127 L 166 127 L 166.5 122 Z " /><path fill="rgb(41,43,54)" stroke="rgb(41,43,54)" stroke-width="1" opacity="0.996078431372549" d="M 172.5 123 L 173 127.5 L 172 127.5 L 172.5 123 Z " /><path fill="rgb(41,43,54)" stroke="rgb(41,43,54)" stroke-width="1" opacity="0.996078431372549" d="M 140.5 124 L 141 129.5 L 140 129.5 L 140.5 124 Z " /><path fill="rgb(41,43,54)" stroke="rgb(41,43,54)" stroke-width="1" opacity="0.996078431372549" d="M 145.5 128 L 146 134.5 L 145 134.5 L 145.5 128 Z " /><path fill="rgb(41,43,54)" stroke="rgb(41,43,54)" stroke-width="1" opacity="0.996078431372549" d="M 155.5 135 L 164 135.5 L 155.5 136 L 155.5 135 Z " /><path fill="rgb(41,43,54)" stroke="rgb(41,43,54)" stroke-width="1" opacity="0.996078431372549" d="M 30.5 136 L 122 136.5 L 30.5 137 L 30.5 136 Z " /><path fill="rgb(41,43,54)" stroke="rgb(41,43,54)" stroke-width="1" opacity="0.996078431372549" d="M 146.5 141 L 157 141.5 L 146.5 142 L 146.5 141 Z " /><path fill="rgb(41,43,54)" stroke="rgb(41,43,54)" stroke-width="1" opacity="0.996078431372549" d="M 153.5 147 L 151.5 150 L 153.5 147 Z " /><path fill="rgb(41,43,54)" stroke="rgb(41,43,54)" stroke-width="1" opacity="0.996078431372549" d="M 169.5 147 L 170.5 149 L 169.5 147 Z " /><path fill="rgb(41,43,54)" stroke="rgb(41,43,54)" stroke-width="1" opacity="0.996078431372549" d="M 80.5 148 L 129.5 148 L 131 149.5 L 132 151.5 L 132 170.5 L 129.5 173 L 66.5 174 L 65.5 173 L 40.5 173 L 38 170.5 L 38 151.5 L 40.5 149 L 79.5 149 L 80.5 148 Z M 44 153 L 44 169 L 60 169 L 60 153 L 44 153 Z M 66 153 L 66 169 L 82 169 L 82 153 L 66 153 Z M 88 153 L 88 169 L 104 169 L 104 153 L 88 153 Z " /><path fill="rgb(41,43,54)" stroke="rgb(41,43,54)" stroke-width="1" opacity="0.996078431372549" d="M 141.5 150 L 142 189.5 L 141 189.5 L 141.5 150 Z " /><path fill="rgb(41,43,54)" stroke="rgb(41,43,54)" stroke-width="1" opacity="0.996078431372549" d="M 148.5 157 L 149 163.5 L 148 163.5 L 148.5 157 Z " /><path fill="rgb(41,43,54)" stroke="rgb(41,43,54)" stroke-width="1" opacity="0.996078431372549" d="M 172.5 158 L 173.5 160 L 172.5 158 Z " /><path fill="rgb(41,43,54)" stroke="rgb(41,43,54)" stroke-width="1" opacity="0.996078431372549" d="M 174.5 161 L 175.5 163 L 174.5 161 Z " /><path fill="rgb(41,43,54)" stroke="rgb(41,43,54)" stroke-width="1" opacity="0.996078431372549" d="M 177.5 165 L 178.5 167 L 177.5 165 Z " /><path fill="rgb(41,43,54)" stroke="rgb(41,43,54)" stroke-width="1" opacity="0.996078431372549" d="M 30.5 173 L 31 178.5 L 30 178.5 L 30.5 173 Z " /><path fill="rgb(41,43,54)" stroke="rgb(41,43,54)" stroke-width="1" opacity="0.996078431372549" d="M 153.5 174 L 154.5 176 L 153.5 174 Z " /><path fill="rgb(41,43,54)" stroke="rgb(41,43,54)" stroke-width="1" opacity="0.996078431372549" d="M 155.5 177 L 156.5 179 L 155.5 177 Z " /><path fill="rgb(41,43,54)" stroke="rgb(41,43,54)" stroke-width="1" opacity="0.996078431372549" d="M 25.5 184 L 26 190.5 L 25 190.5 L 25.5 184 Z " /><path fill="rgb(41,43,54)" stroke="rgb(41,43,54)" stroke-width="1" opacity="0.996078431372549" d="M 126 184 L 133 185 L 134 187.5 Q 133.1 195.9 135 200 Q 130.4 201.3 129 198.5 L 129 189.5 L 127 189 L 127 186.5 L 126 184 Z " /><path fill="rgb(41,43,54)" stroke="rgb(41,43,54)" stroke-width="1" opacity="0.996078431372549" d="M 160.5 185 L 161.5 187 L 160.5 185 Z " /><path fill="rgb(41,43,54)" stroke="rgb(41,43,54)" stroke-width="1" opacity="0.996078431372549" d="M 31.5 188 L 32 192.5 L 31 192.5 L 31.5 188 Z " /><path fill="rgb(41,43,54)" stroke="rgb(41,43,54)" stroke-width="1" opacity="0.996078431372549" d="M 60 188 L 63 189.5 L 61 189.5 L 60.5 193 L 60 188 Z " /><path fill="rgb(41,43,54)" stroke="rgb(41,43,54)" stroke-width="1" opacity="0.996078431372549" d="M 164.5 192 L 165.5 194 L 164.5 192 Z " /><path fill="rgb(41,43,54)" stroke="rgb(41,43,54)" stroke-width="1" opacity="0.996078431372549" d="M 26.5 197 L 27 199.5 L 26 199.5 L 26.5 197 Z " /><path fill="rgb(41,43,54)" stroke="rgb(41,43,54)" stroke-width="1" opacity="0.996078431372549" d="M 40.5 198 L 41.5 200 L 40.5 198 Z " /><path fill="rgb(106,211,197)" stroke="rgb(106,211,197)" stroke-width="1" opacity="1" d="M 91.5 63 Q 95.5 62.5 96 65.5 L 93.5 71 L 86 71 L 86 67.5 L 91.5 63 Z " /><path fill="rgb(106,211,197)" stroke="rgb(106,211,197)" stroke-width="1" opacity="1" d="M 68.5 91 L 107.5 91 L 108.5 92 L 120 92.5 L 112.5 94 L 100.5 94 L 99.5 95 L 81.5 96 L 78.5 97 L 66.5 109 L 65 109 Q 66.1 111.7 63.5 111 L 52.5 122 L 44 122 L 44 96.5 L 45 93 L 51.5 93 L 52.5 92 L 67.5 92 L 68.5 91 Z M 53 102 L 50 103 L 49 106 L 50 109 L 54 111 L 57 110 Q 59 109 58 104 Q 57 101 53 102 Z " /><path fill="rgb(106,211,197)" stroke="rgb(106,211,197)" stroke-width="1" opacity="1" d="M 157.5 152 Q 160.3 151.4 159 157.5 L 162 163.5 L 157.5 168 L 156 166.5 L 154 160.5 L 157.5 152 Z " /><path fill="rgb(106,211,197)" stroke="rgb(106,211,197)" stroke-width="1" opacity="1" d="M 166.5 171 Q 168.8 170.3 168 172.5 L 174 182.5 L 169.5 187 L 167 184.5 L 163 175.5 L 166.5 171 Z " /><path fill="rgb(106,211,197)" stroke="rgb(106,211,197)" stroke-width="1" opacity="1" d="M 23.5 173 L 24 180.5 L 22.5 180 Q 19.9 180.8 21 177.5 L 23.5 173 Z " /><path fill="rgb(106,211,197)" stroke="rgb(106,211,197)" stroke-width="1" opacity="1" d="M 16 188 Q 21 187.2 23 190.5 L 18.5 200 L 12 200 L 12 196.5 L 16 188 Z " /><path fill="rgb(106,211,197)" stroke="rgb(106,211,197)" stroke-width="1" opacity="1" d="M 114 190 L 126 190 L 126 194.5 L 120.5 200 L 114 200 L 114 190 Z " /><path fill="rgb(106,211,197)" stroke="rgb(106,211,197)" stroke-width="1" opacity="1" d="M 177.5 191 Q 181.3 189.8 180 193.5 L 183 200 L 175.5 200 L 175 198.5 L 174 194.5 L 177.5 191 Z " /></svg>