<svg width="200" height="200" version="1.1" xmlns="http://www.w3.org/2000/svg" desc="Created with imagetracer.js version 1.2.6" ><path fill="rgb(0,0,0)" stroke="rgb(0,0,0)" stroke-width="1" opacity="0.08235294117647059" d="M 114.5 15 L 117 15.5 L 114.5 16 L 114.5 15 Z " /><path fill="rgb(0,0,0)" stroke="rgb(0,0,0)" stroke-width="1" opacity="0.08235294117647059" d="M 102.5 20 L 104 20.5 L 101.5 22 L 102.5 20 Z " /><path fill="rgb(0,0,0)" stroke="rgb(0,0,0)" stroke-width="1" opacity="0.08235294117647059" d="M 99.5 22 L 98.5 24 L 99.5 22 Z " /><path fill="rgb(0,0,0)" stroke="rgb(0,0,0)" stroke-width="1" opacity="0.08235294117647059" d="M 96.5 24 L 95.5 26 L 92.5 28 L 94.5 25 L 96.5 24 Z " /><path fill="rgb(0,0,0)" stroke="rgb(0,0,0)" stroke-width="1" opacity="0.08235294117647059" d="M 115.5 24 L 116 25.5 L 114.5 28 L 114 26.5 L 115.5 24 Z " /><path fill="rgb(0,0,0)" stroke="rgb(0,0,0)" stroke-width="1" opacity="0.08235294117647059" d="M 90.5 28 L 89.5 30 L 90.5 28 Z " /><path fill="rgb(0,0,0)" stroke="rgb(0,0,0)" stroke-width="1" opacity="0.08235294117647059" d="M 113.5 29 L 114 30.5 L 112.5 33 L 112 31.5 L 113.5 29 Z " /><path fill="rgb(0,0,0)" stroke="rgb(0,0,0)" stroke-width="1" opacity="0.08235294117647059" d="M 87.5 30 L 86.5 32 L 87.5 30 Z " /><path fill="rgb(0,0,0)" stroke="rgb(0,0,0)" stroke-width="1" opacity="0.08235294117647059" d="M 84.5 32 L 82.5 35 L 79.5 37 L 81.5 34 L 84.5 32 Z " /><path fill="rgb(0,0,0)" stroke="rgb(0,0,0)" stroke-width="1" opacity="0.08235294117647059" d="M 167.5 35 L 169 35.5 L 163.5 38 L 163.5 37 L 167.5 35 Z " /><path fill="rgb(0,0,0)" stroke="rgb(0,0,0)" stroke-width="1" opacity="0.08235294117647059" d="M 77.5 37 L 75.5 40 L 71.5 43 L 74.5 39 L 77.5 37 Z " /><path fill="rgb(0,0,0)" stroke="rgb(0,0,0)" stroke-width="1" opacity="0.08235294117647059" d="M 109.5 39 L 110 40.5 L 108.5 43 L 108 41.5 L 109.5 39 Z " /><path fill="rgb(0,0,0)" stroke="rgb(0,0,0)" stroke-width="1" opacity="0.08235294117647059" d="M 159.5 39 L 158.5 41 L 154.5 43 L 155.5 41 L 159.5 39 Z " /><path fill="rgb(0,0,0)" stroke="rgb(0,0,0)" stroke-width="1" opacity="0.08235294117647059" d="M 69.5 43 L 66.5 47 L 69.5 43 Z " /><path fill="rgb(0,0,0)" stroke="rgb(0,0,0)" stroke-width="1" opacity="0.08235294117647059" d="M 150.5 44 L 149.5 46 L 144.5 49 L 145.5 47 L 150.5 44 Z " /><path fill="rgb(0,0,0)" stroke="rgb(0,0,0)" stroke-width="1" opacity="0.08235294117647059" d="M 178.5 45 L 179 46.5 L 175.5 53 L 175 51.5 L 178.5 45 Z " /><path fill="rgb(0,0,0)" stroke="rgb(0,0,0)" stroke-width="1" opacity="0.08235294117647059" d="M 64.5 47 L 59.5 53 L 64.5 47 Z " /><path fill="rgb(0,0,0)" stroke="rgb(0,0,0)" stroke-width="1" opacity="0.08235294117647059" d="M 142.5 49 L 140.5 52 L 137.5 54 L 139.5 51 L 142.5 49 Z " /><path fill="rgb(0,0,0)" stroke="rgb(0,0,0)" stroke-width="1" opacity="0.08235294117647059" d="M 57.5 53 L 54 57.5 L 53.5 59 L 53 57.5 L 57.5 53 Z " /><path fill="rgb(0,0,0)" stroke="rgb(0,0,0)" stroke-width="1" opacity="0.08235294117647059" d="M 135.5 54 L 133.5 57 L 129.5 60 L 132.5 56 L 135.5 54 Z " /><path fill="rgb(0,0,0)" stroke="rgb(0,0,0)" stroke-width="1" opacity="0.08235294117647059" d="M 127.5 60 L 124.5 64 L 127.5 60 Z " /><path fill="rgb(0,0,0)" stroke="rgb(0,0,0)" stroke-width="1" opacity="0.08235294117647059" d="M 171.5 61 L 171 62.5 L 169.5 66 L 169 64.5 L 171.5 61 Z " /><path fill="rgb(0,0,0)" stroke="rgb(0,0,0)" stroke-width="1" opacity="0.08235294117647059" d="M 53.5 62 L 54 64.5 L 53 64.5 L 53.5 62 Z " /><path fill="rgb(0,0,0)" stroke="rgb(0,0,0)" stroke-width="1" opacity="0.08235294117647059" d="M 122.5 64 L 122 65.5 L 121.5 67 L 121 65.5 L 122.5 64 Z " /><path fill="rgb(0,0,0)" stroke="rgb(0,0,0)" stroke-width="1" opacity="0.08235294117647059" d="M 54.5 67 L 55 71.5 L 50.5 77 L 51 75.5 Q 54.7 73.2 54.5 67 Z " /><path fill="rgb(0,0,0)" stroke="rgb(0,0,0)" stroke-width="1" opacity="0.08235294117647059" d="M 168.5 67 L 169 68.5 L 167.5 71 L 167 69.5 L 168.5 67 Z " /><path fill="rgb(0,0,0)" stroke="rgb(0,0,0)" stroke-width="1" opacity="0.08235294117647059" d="M 120.5 68 L 121 70.5 L 120 70.5 L 120.5 68 Z " /><path fill="rgb(0,0,0)" stroke="rgb(0,0,0)" stroke-width="1" opacity="0.08235294117647059" d="M 108.5 70 L 115 72.5 L 113.5 73 L 108.5 71 L 108.5 70 Z " /><path fill="rgb(0,0,0)" stroke="rgb(0,0,0)" stroke-width="1" opacity="0.08235294117647059" d="M 116.5 73 L 118.5 74 L 120 73.5 Q 120.8 75.8 118.5 75 L 116.5 73 Z " /><path fill="rgb(0,0,0)" stroke="rgb(0,0,0)" stroke-width="1" opacity="0.08235294117647059" d="M 164.5 77 L 165 78.5 L 162.5 83 L 162 81.5 L 164.5 77 Z " /><path fill="rgb(0,0,0)" stroke="rgb(0,0,0)" stroke-width="1" opacity="0.08235294117647059" d="M 49.5 78 L 48.5 80 L 49.5 78 Z " /><path fill="rgb(0,0,0)" stroke="rgb(0,0,0)" stroke-width="1" opacity="0.08235294117647059" d="M 47.5 81 L 43.5 86 L 29 99.5 L 26.5 103 L 28 100.5 L 42.5 85 L 47.5 81 Z " /><path fill="rgb(0,0,0)" stroke="rgb(0,0,0)" stroke-width="1" opacity="0.08235294117647059" d="M 164.5 89 L 165 91.5 L 164 91.5 L 164.5 89 Z " /><path fill="rgb(0,0,0)" stroke="rgb(0,0,0)" stroke-width="1" opacity="0.08235294117647059" d="M 164.5 94 L 165 95.5 L 163.5 98 L 163 96.5 L 164.5 94 Z " /><path fill="rgb(0,0,0)" stroke="rgb(0,0,0)" stroke-width="1" opacity="0.08235294117647059" d="M 25.5 104 L 23.5 107 L 25.5 104 Z " /><path fill="rgb(0,0,0)" stroke="rgb(0,0,0)" stroke-width="1" opacity="0.08235294117647059" d="M 22.5 108 L 23 110.5 L 22 110.5 L 22.5 108 Z " /><path fill="rgb(0,0,0)" stroke="rgb(0,0,0)" stroke-width="1" opacity="0.08235294117647059" d="M 174.5 108 L 175 112.5 L 174 112.5 L 174.5 108 Z " /><path fill="rgb(0,0,0)" stroke="rgb(0,0,0)" stroke-width="1" opacity="0.08235294117647059" d="M 23.5 113 L 27 120.5 L 25 119.5 Q 22 117 23.5 113 Z " /><path fill="rgb(0,0,0)" stroke="rgb(0,0,0)" stroke-width="1" opacity="0.08235294117647059" d="M 173.5 114 L 174 116.5 L 171.5 122 L 171 120.5 L 173.5 114 Z " /><path fill="rgb(0,0,0)" stroke="rgb(0,0,0)" stroke-width="1" opacity="0.08235294117647059" d="M 186.5 118 L 189 119.5 L 187.5 119 L 183.5 122 L 186.5 118 Z " /><path fill="rgb(0,0,0)" stroke="rgb(0,0,0)" stroke-width="1" opacity="0.08235294117647059" d="M 189.5 121 L 191 124.5 L 190 124.5 L 189.5 121 Z " /><path fill="rgb(0,0,0)" stroke="rgb(0,0,0)" stroke-width="1" opacity="0.08235294117647059" d="M 27.5 122 L 32 127.5 L 28 124.5 L 27.5 122 Z " /><path fill="rgb(0,0,0)" stroke="rgb(0,0,0)" stroke-width="1" opacity="0.08235294117647059" d="M 19.5 123 L 34.5 139 L 35.5 137 L 36 140.5 L 27 132.5 L 19.5 123 Z " /><path fill="rgb(0,0,0)" stroke="rgb(0,0,0)" stroke-width="1" opacity="0.08235294117647059" d="M 170.5 123 L 171 124.5 L 169.5 127 L 169 125.5 L 170.5 123 Z " /><path fill="rgb(0,0,0)" stroke="rgb(0,0,0)" stroke-width="1" opacity="0.08235294117647059" d="M 182.5 123 L 181.5 125 L 182.5 123 Z " /><path fill="rgb(0,0,0)" stroke="rgb(0,0,0)" stroke-width="1" opacity="0.08235294117647059" d="M 180.5 126 L 177.5 130 L 180.5 126 Z " /><path fill="rgb(0,0,0)" stroke="rgb(0,0,0)" stroke-width="1" opacity="0.08235294117647059" d="M 191.5 126 L 192 128.5 L 191 128.5 L 191.5 126 Z " /><path fill="rgb(0,0,0)" stroke="rgb(0,0,0)" stroke-width="1" opacity="0.08235294117647059" d="M 167.5 130 L 167 131.5 L 158.5 143 L 162 138.5 L 167.5 130 Z " /><path fill="rgb(0,0,0)" stroke="rgb(0,0,0)" stroke-width="1" opacity="0.08235294117647059" d="M 192.5 130 L 193 132.5 L 192 132.5 L 192.5 130 Z " /><path fill="rgb(0,0,0)" stroke="rgb(0,0,0)" stroke-width="1" opacity="0.08235294117647059" d="M 34.5 131 L 35 135.5 L 34 135.5 L 34.5 131 Z " /><path fill="rgb(0,0,0)" stroke="rgb(0,0,0)" stroke-width="1" opacity="0.08235294117647059" d="M 176.5 131 L 165.5 143 L 160.5 147 L 165.5 141 L 176.5 131 Z " /><path fill="rgb(0,0,0)" stroke="rgb(0,0,0)" stroke-width="1" opacity="0.08235294117647059" d="M 193.5 136 L 194 139.5 L 193 139.5 L 193.5 136 Z " /><path fill="rgb(0,0,0)" stroke="rgb(0,0,0)" stroke-width="1" opacity="0.08235294117647059" d="M 194.5 144 L 195 148.5 L 194 148.5 L 194.5 144 Z " /><path fill="rgb(0,0,0)" stroke="rgb(0,0,0)" stroke-width="1" opacity="0.08235294117647059" d="M 11.5 152 L 12 157.5 L 11 157.5 L 11.5 152 Z " /><path fill="rgb(0,0,0)" stroke="rgb(0,0,0)" stroke-width="1" opacity="0.08235294117647059" d="M 12.5 162 L 13 164.5 L 12 164.5 L 12.5 162 Z " /><path fill="rgb(0,0,0)" stroke="rgb(0,0,0)" stroke-width="1" opacity="0.08235294117647059" d="M 195.5 165 L 196 167.5 L 195 167.5 L 195.5 165 Z " /><path fill="rgb(0,0,0)" stroke="rgb(0,0,0)" stroke-width="1" opacity="0.08235294117647059" d="M 13.5 168 L 14 170.5 L 13 170.5 L 13.5 168 Z " /><path fill="rgb(0,0,0)" stroke="rgb(0,0,0)" stroke-width="1" opacity="0.08235294117647059" d="M 14.5 173 L 15 175.5 L 14 175.5 L 14.5 173 Z " /><path fill="rgb(0,0,0)" stroke="rgb(0,0,0)" stroke-width="1" opacity="0.08235294117647059" d="M 194.5 174 L 195 176.5 L 194 176.5 L 194.5 174 Z " /><path fill="rgb(0,0,0)" stroke="rgb(0,0,0)" stroke-width="1" opacity="0.08235294117647059" d="M 15.5 177 L 16 179.5 L 15 179.5 L 15.5 177 Z " /><path fill="rgb(0,0,0)" stroke="rgb(0,0,0)" stroke-width="1" opacity="0.08235294117647059" d="M 193.5 180 L 194 182.5 L 193 182.5 L 193.5 180 Z " /><path fill="rgb(0,0,0)" stroke="rgb(0,0,0)" stroke-width="1" opacity="0.08235294117647059" d="M 192.5 185 L 193 187.5 L 192 187.5 L 192.5 185 Z " /><path fill="rgb(0,0,0)" stroke="rgb(0,0,0)" stroke-width="1" opacity="0.08235294117647059" d="M 20.5 193 L 21 195.5 L 19 196.5 L 20.5 193 Z " /><path fill="rgb(0,0,0)" stroke="rgb(0,0,0)" stroke-width="1" opacity="0.996078431372549" d="M 100.5 23 L 100 24.5 Q 101.6 30.2 96 28 L 97.5 25 L 100.5 23 Z " /><path fill="rgb(0,0,0)" stroke="rgb(0,0,0)" stroke-width="1" opacity="0.996078431372549" d="M 90.5 30 Q 93.1 29.3 92 32 L 89 31.5 L 90.5 30 Z " /><path fill="rgb(0,0,0)" stroke="rgb(0,0,0)" stroke-width="1" opacity="0.996078431372549" d="M 127.5 62 L 128 64 L 126 63.5 L 127.5 62 Z " /><path fill="rgb(0,0,0)" stroke="rgb(0,0,0)" stroke-width="1" opacity="0.996078431372549" d="M 98.5 72 L 101 72.5 L 98.5 73 L 98.5 72 Z " /><path fill="rgb(0,0,0)" stroke="rgb(0,0,0)" stroke-width="1" opacity="0.996078431372549" d="M 115.5 74 L 116.5 76 L 115.5 74 Z " /><path fill="rgb(0,0,0)" stroke="rgb(0,0,0)" stroke-width="1" opacity="0.996078431372549" d="M 52.5 76 L 51.5 78 L 52.5 76 Z " /><path fill="rgb(0,0,0)" stroke="rgb(0,0,0)" stroke-width="1" opacity="0.996078431372549" d="M 160 80 L 162 80.5 L 161 82.5 L 161.5 84 L 160 84 L 160 80 Z " /><path fill="rgb(0,0,0)" stroke="rgb(0,0,0)" stroke-width="1" opacity="0.996078431372549" d="M 45.5 85 L 44.5 87 L 45.5 85 Z " /><path fill="rgb(0,0,0)" stroke="rgb(0,0,0)" stroke-width="1" opacity="0.996078431372549" d="M 33.5 96 L 32.5 98 L 33.5 96 Z " /><path fill="rgb(0,0,0)" stroke="rgb(0,0,0)" stroke-width="1" opacity="0.996078431372549" d="M 26 116 Q 29.3 114.7 28 119.5 L 27 119.5 L 26 116 Z " /><path fill="rgb(0,0,0)" stroke="rgb(0,0,0)" stroke-width="1" opacity="0.996078431372549" d="M 15.5 120 L 18 124 Q 15 125.3 16 121.5 L 15.5 120 Z " /><path fill="rgb(0,0,0)" stroke="rgb(0,0,0)" stroke-width="1" opacity="0.996078431372549" d="M 188.5 121 L 189 123.5 L 188 123.5 L 188.5 121 Z " /><path fill="rgb(0,0,0)" stroke="rgb(0,0,0)" stroke-width="1" opacity="0.996078431372549" d="M 12.5 122 L 13 124.5 L 12 124.5 L 12.5 122 Z " /><path fill="rgb(0,0,0)" stroke="rgb(0,0,0)" stroke-width="1" opacity="0.996078431372549" d="M 22.5 128 L 23.5 130 L 22.5 128 Z " /><path fill="rgb(0,0,0)" stroke="rgb(0,0,0)" stroke-width="1" opacity="0.996078431372549" d="M 180.5 128 L 179.5 130 L 180.5 128 Z " /><path fill="rgb(0,0,0)" stroke="rgb(0,0,0)" stroke-width="1" opacity="0.996078431372549" d="M 36.5 133 L 37 136.5 L 36 136.5 L 36.5 133 Z " /><path fill="rgb(0,0,0)" stroke="rgb(0,0,0)" stroke-width="1" opacity="0.996078431372549" d="M 176.5 133 L 176 134.5 Q 176.8 136.8 174.5 136 L 172 140 L 168.5 142 L 176.5 133 Z " /><path fill="rgb(0,0,0)" stroke="rgb(0,0,0)" stroke-width="1" opacity="0.996078431372549" d="M 28.5 135 L 31.5 139 L 28.5 135 Z " /><path fill="rgb(0,0,0)" stroke="rgb(0,0,0)" stroke-width="1" opacity="0.996078431372549" d="M 159.5 139 L 157.5 142 L 159.5 139 Z " /><path fill="rgb(0,0,0)" stroke="rgb(0,0,0)" stroke-width="1" opacity="0.996078431372549" d="M 192.5 140 L 193 143.5 L 192 143.5 L 192.5 140 Z " /><path fill="rgb(0,0,0)" stroke="rgb(0,0,0)" stroke-width="1" opacity="0.996078431372549" d="M 37.5 142 L 38 144 L 36 143.5 L 37.5 142 Z " /><path fill="rgb(0,0,0)" stroke="rgb(0,0,0)" stroke-width="1" opacity="0.996078431372549" d="M 12.5 148 L 13 150.5 L 12 150.5 L 12.5 148 Z " /><path fill="rgb(0,0,0)" stroke="rgb(0,0,0)" stroke-width="1" opacity="0.996078431372549" d="M 14.5 166 Q 16.8 167.8 16 172.5 L 15 172.5 L 14.5 166 Z " /><path fill="rgb(0,0,0)" stroke="rgb(0,0,0)" stroke-width="1" opacity="0.996078431372549" d="M 192 172 Q 194.7 170.9 194 173.5 L 192.5 176 L 192 172 Z " /><path fill="rgb(0,0,0)" stroke="rgb(0,0,0)" stroke-width="1" opacity="0" d="M 0 0 L 200 0 L 200 200 L 188 199.5 L 193 187.5 L 196 165.5 L 195 164.5 L 195 144.5 L 194 143.5 L 193 130.5 Q 191.8 122.8 187.5 118 L 183 121.5 Q 176.6 133.1 166.5 141 L 159.5 147 L 158 143.5 Q 166.7 136.2 171 124.5 L 175 112.5 L 175 102.5 L 171.5 100 L 162 102 L 165 95.5 L 165 89.5 L 163 81.5 L 179 46.5 L 183 32.5 L 179.5 32 L 167.5 35 L 148.5 45 L 121 65.5 L 120 72.5 L 118.5 74 L 109.5 70 L 101.5 70 L 99 71 L 108 43.5 L 119 16 L 114.5 15 L 94.5 25 Q 71.9 39.4 53 57.5 L 54 71.5 L 43.5 85 L 28 99.5 L 23 106.5 L 22 110.5 Q 24.3 121.7 31.5 128 Q 33.8 127.3 33 129.5 L 35 138.5 L 28 132.5 L 14.5 118 Q 10.8 116.8 12 120.5 L 11 121.5 L 11 157.5 L 12 158.5 L 14 175.5 L 20 195.5 L 18 200 L 0.5 200 L 0 199.5 L 0 0 Z " /><path fill="rgb(0,0,0)" stroke="rgb(0,0,0)" stroke-width="1" opacity="0.6549019607843137" d="M 100.5 22 L 99.5 24 L 100.5 22 Z " /><path fill="rgb(0,0,0)" stroke="rgb(0,0,0)" stroke-width="1" opacity="0.6549019607843137" d="M 97.5 24 L 96.5 26 L 97.5 24 Z " /><path fill="rgb(0,0,0)" stroke="rgb(0,0,0)" stroke-width="1" opacity="0.6549019607843137" d="M 94.5 26 L 93.5 28 L 94.5 26 Z " /><path fill="rgb(0,0,0)" stroke="rgb(0,0,0)" stroke-width="1" opacity="0.6549019607843137" d="M 91.5 28 L 90.5 30 L 91.5 28 Z " /><path fill="rgb(0,0,0)" stroke="rgb(0,0,0)" stroke-width="1" opacity="0.6549019607843137" d="M 88.5 30 L 87.5 32 L 88.5 30 Z " /><path fill="rgb(0,0,0)" stroke="rgb(0,0,0)" stroke-width="1" opacity="0.6549019607843137" d="M 85.5 32 L 83.5 35 L 85.5 32 Z " /><path fill="rgb(0,0,0)" stroke="rgb(0,0,0)" stroke-width="1" opacity="0.6549019607843137" d="M 180.5 32 Q 183.1 31.2 182 34.5 L 181 34.5 L 180.5 32 Z " /><path fill="rgb(0,0,0)" stroke="rgb(0,0,0)" stroke-width="1" opacity="0.6549019607843137" d="M 81.5 35 L 80.5 37 L 81.5 35 Z " /><path fill="rgb(0,0,0)" stroke="rgb(0,0,0)" stroke-width="1" opacity="0.6549019607843137" d="M 78.5 37 L 77.5 39 L 78.5 37 Z " /><path fill="rgb(0,0,0)" stroke="rgb(0,0,0)" stroke-width="1" opacity="0.6549019607843137" d="M 162.5 38 L 164 38.5 L 159.5 41 L 160.5 39 L 162.5 38 Z " /><path fill="rgb(0,0,0)" stroke="rgb(0,0,0)" stroke-width="1" opacity="0.6549019607843137" d="M 74.5 40 L 72.5 43 L 74.5 40 Z " /><path fill="rgb(0,0,0)" stroke="rgb(0,0,0)" stroke-width="1" opacity="0.6549019607843137" d="M 70.5 43 L 68.5 46 L 70.5 43 Z " /><path fill="rgb(0,0,0)" stroke="rgb(0,0,0)" stroke-width="1" opacity="0.6549019607843137" d="M 153.5 43 L 152.5 45 L 150.5 46 L 151.5 44 L 153.5 43 Z " /><path fill="rgb(0,0,0)" stroke="rgb(0,0,0)" stroke-width="1" opacity="0.6549019607843137" d="M 148.5 46 L 147.5 48 L 148.5 46 Z " /><path fill="rgb(0,0,0)" stroke="rgb(0,0,0)" stroke-width="1" opacity="0.6549019607843137" d="M 65.5 47 L 61.5 52 L 65.5 47 Z " /><path fill="rgb(0,0,0)" stroke="rgb(0,0,0)" stroke-width="1" opacity="0.6549019607843137" d="M 143.5 49 L 142.5 51 L 143.5 49 Z " /><path fill="rgb(0,0,0)" stroke="rgb(0,0,0)" stroke-width="1" opacity="0.6549019607843137" d="M 139.5 52 L 138.5 54 L 139.5 52 Z " /><path fill="rgb(0,0,0)" stroke="rgb(0,0,0)" stroke-width="1" opacity="0.6549019607843137" d="M 174.5 52 L 175 53.5 L 173.5 56 L 173 54.5 L 174.5 52 Z " /><path fill="rgb(0,0,0)" stroke="rgb(0,0,0)" stroke-width="1" opacity="0.6549019607843137" d="M 58.5 53 L 54.5 58 L 58.5 53 Z " /><path fill="rgb(0,0,0)" stroke="rgb(0,0,0)" stroke-width="1" opacity="0.6549019607843137" d="M 136.5 54 L 135.5 56 L 136.5 54 Z " /><path fill="rgb(0,0,0)" stroke="rgb(0,0,0)" stroke-width="1" opacity="0.6549019607843137" d="M 132.5 57 L 130.5 60 L 132.5 57 Z " /><path fill="rgb(0,0,0)" stroke="rgb(0,0,0)" stroke-width="1" opacity="0.6549019607843137" d="M 53.5 59 L 54 61.5 L 53 61.5 L 53.5 59 Z " /><path fill="rgb(0,0,0)" stroke="rgb(0,0,0)" stroke-width="1" opacity="0.6549019607843137" d="M 128.5 60 L 125.5 64 L 128.5 60 Z " /><path fill="rgb(0,0,0)" stroke="rgb(0,0,0)" stroke-width="1" opacity="0.6549019607843137" d="M 171.5 60 L 170.5 62 L 171.5 60 Z " /><path fill="rgb(0,0,0)" stroke="rgb(0,0,0)" stroke-width="1" opacity="0.6549019607843137" d="M 54.5 64 L 55 66.5 L 54 66.5 L 54.5 64 Z " /><path fill="rgb(0,0,0)" stroke="rgb(0,0,0)" stroke-width="1" opacity="0.6549019607843137" d="M 123.5 64 L 122.5 66 L 123.5 64 Z " /><path fill="rgb(0,0,0)" stroke="rgb(0,0,0)" stroke-width="1" opacity="0.6549019607843137" d="M 103.5 70 L 108 70.5 L 103.5 71 L 103.5 70 Z " /><path fill="rgb(0,0,0)" stroke="rgb(0,0,0)" stroke-width="1" opacity="0.6549019607843137" d="M 98.5 71 L 102 71.5 L 98.5 72 L 98.5 71 Z " /><path fill="rgb(0,0,0)" stroke="rgb(0,0,0)" stroke-width="1" opacity="0.6549019607843137" d="M 120.5 71 L 121 73.5 L 120 73.5 L 120.5 71 Z " /><path fill="rgb(0,0,0)" stroke="rgb(0,0,0)" stroke-width="1" opacity="0.6549019607843137" d="M 53.5 73 L 52.5 75 L 53.5 73 Z " /><path fill="rgb(0,0,0)" stroke="rgb(0,0,0)" stroke-width="1" opacity="0.6549019607843137" d="M 117.5 74 L 120 75 L 119.5 77 L 117.5 74 Z " /><path fill="rgb(0,0,0)" stroke="rgb(0,0,0)" stroke-width="1" opacity="0.6549019607843137" d="M 51.5 76 L 50.5 78 L 51.5 76 Z " /><path fill="rgb(0,0,0)" stroke="rgb(0,0,0)" stroke-width="1" opacity="0.6549019607843137" d="M 49.5 79 L 49 80.5 L 44.5 86 L 48 81.5 L 49.5 79 Z " /><path fill="rgb(0,0,0)" stroke="rgb(0,0,0)" stroke-width="1" opacity="0.6549019607843137" d="M 42.5 86 L 40.5 89 L 42.5 86 Z " /><path fill="rgb(0,0,0)" stroke="rgb(0,0,0)" stroke-width="1" opacity="0.6549019607843137" d="M 163.5 87 L 164 89.5 L 163 89.5 L 163.5 87 Z " /><path fill="rgb(0,0,0)" stroke="rgb(0,0,0)" stroke-width="1" opacity="0.6549019607843137" d="M 32.5 96 L 29.5 100 L 32.5 96 Z " /><path fill="rgb(0,0,0)" stroke="rgb(0,0,0)" stroke-width="1" opacity="0.6549019607843137" d="M 28.5 101 L 26.5 104 L 28.5 101 Z " /><path fill="rgb(0,0,0)" stroke="rgb(0,0,0)" stroke-width="1" opacity="0.6549019607843137" d="M 162.5 102 L 166 102.5 L 162.5 103 L 162.5 102 Z " /><path fill="rgb(0,0,0)" stroke="rgb(0,0,0)" stroke-width="1" opacity="0.6549019607843137" d="M 174.5 103 L 175 107.5 L 174 107.5 L 174.5 103 Z " /><path fill="rgb(0,0,0)" stroke="rgb(0,0,0)" stroke-width="1" opacity="0.6549019607843137" d="M 173.5 111 L 174 113.5 L 173 113.5 L 173.5 111 Z " /><path fill="rgb(0,0,0)" stroke="rgb(0,0,0)" stroke-width="1" opacity="0.6549019607843137" d="M 13.5 118 L 19 122.5 L 14.5 119 L 12.5 120 L 13.5 118 Z " /><path fill="rgb(0,0,0)" stroke="rgb(0,0,0)" stroke-width="1" opacity="0.6549019607843137" d="M 27.5 121 L 28.5 123 L 27.5 121 Z " /><path fill="rgb(0,0,0)" stroke="rgb(0,0,0)" stroke-width="1" opacity="0.6549019607843137" d="M 184.5 121 L 183.5 123 L 184.5 121 Z " /><path fill="rgb(0,0,0)" stroke="rgb(0,0,0)" stroke-width="1" opacity="0.6549019607843137" d="M 29.5 124 L 32.5 128 L 29.5 124 Z " /><path fill="rgb(0,0,0)" stroke="rgb(0,0,0)" stroke-width="1" opacity="0.6549019607843137" d="M 182.5 124 L 181.5 126 L 182.5 124 Z " /><path fill="rgb(0,0,0)" stroke="rgb(0,0,0)" stroke-width="1" opacity="0.6549019607843137" d="M 11.5 126 L 12 151.5 L 11 151.5 L 11.5 126 Z " /><path fill="rgb(0,0,0)" stroke="rgb(0,0,0)" stroke-width="1" opacity="0.6549019607843137" d="M 21.5 126 L 26.5 132 L 21.5 126 Z " /><path fill="rgb(0,0,0)" stroke="rgb(0,0,0)" stroke-width="1" opacity="0.6549019607843137" d="M 168.5 126 L 169 127.5 L 166.5 131 L 167 129.5 L 168.5 126 Z " /><path fill="rgb(0,0,0)" stroke="rgb(0,0,0)" stroke-width="1" opacity="0.6549019607843137" d="M 180.5 127 L 177.5 131 L 180.5 127 Z " /><path fill="rgb(0,0,0)" stroke="rgb(0,0,0)" stroke-width="1" opacity="0.6549019607843137" d="M 165.5 132 L 164.5 134 L 165.5 132 Z " /><path fill="rgb(0,0,0)" stroke="rgb(0,0,0)" stroke-width="1" opacity="0.6549019607843137" d="M 35.5 133 L 36 136.5 L 35 136.5 L 35.5 133 Z " /><path fill="rgb(0,0,0)" stroke="rgb(0,0,0)" stroke-width="1" opacity="0.6549019607843137" d="M 175.5 133 L 168.5 141 L 175.5 133 Z " /><path fill="rgb(0,0,0)" stroke="rgb(0,0,0)" stroke-width="1" opacity="0.6549019607843137" d="M 192.5 133 L 193 136.5 L 192 136.5 L 192.5 133 Z " /><path fill="rgb(0,0,0)" stroke="rgb(0,0,0)" stroke-width="1" opacity="0.6549019607843137" d="M 28.5 134 L 35.5 142 L 28.5 134 Z " /><path fill="rgb(0,0,0)" stroke="rgb(0,0,0)" stroke-width="1" opacity="0.6549019607843137" d="M 163.5 135 L 162.5 137 L 163.5 135 Z " /><path fill="rgb(0,0,0)" stroke="rgb(0,0,0)" stroke-width="1" opacity="0.6549019607843137" d="M 161.5 138 L 158 142.5 L 157.5 145 L 157 142.5 L 161.5 138 Z " /><path fill="rgb(0,0,0)" stroke="rgb(0,0,0)" stroke-width="1" opacity="0.6549019607843137" d="M 193.5 140 L 194 144.5 L 193 144.5 L 193.5 140 Z " /><path fill="rgb(0,0,0)" stroke="rgb(0,0,0)" stroke-width="1" opacity="0.6549019607843137" d="M 164.5 143 L 162.5 146 L 164.5 143 Z " /><path fill="rgb(0,0,0)" stroke="rgb(0,0,0)" stroke-width="1" opacity="0.6549019607843137" d="M 158.5 146 L 159.5 148 Q 156.7 148.7 158.5 146 Z " /><path fill="rgb(0,0,0)" stroke="rgb(0,0,0)" stroke-width="1" opacity="0.6549019607843137" d="M 194.5 149 L 195 164.5 L 194 164.5 L 194.5 149 Z " /><path fill="rgb(0,0,0)" stroke="rgb(0,0,0)" stroke-width="1" opacity="0.6549019607843137" d="M 12.5 156 L 13 161.5 L 12 161.5 L 12.5 156 Z " /><path fill="rgb(0,0,0)" stroke="rgb(0,0,0)" stroke-width="1" opacity="0.6549019607843137" d="M 13.5 164 L 14 167.5 L 13 167.5 L 13.5 164 Z " /><path fill="rgb(0,0,0)" stroke="rgb(0,0,0)" stroke-width="1" opacity="0.6549019607843137" d="M 194.5 169 L 195 173.5 L 194 173.5 L 194.5 169 Z " /><path fill="rgb(0,0,0)" stroke="rgb(0,0,0)" stroke-width="1" opacity="0.6549019607843137" d="M 14.5 170 L 15 172.5 L 14 172.5 L 14.5 170 Z " /><path fill="rgb(0,0,0)" stroke="rgb(0,0,0)" stroke-width="1" opacity="0.6549019607843137" d="M 193.5 177 L 194 179.5 L 193 179.5 L 193.5 177 Z " /><path fill="rgb(0,0,0)" stroke="rgb(0,0,0)" stroke-width="1" opacity="0.6549019607843137" d="M 192.5 182 L 193 184.5 L 192 184.5 L 192.5 182 Z " /><path fill="rgb(0,0,0)" stroke="rgb(0,0,0)" stroke-width="1" opacity="0.6549019607843137" d="M 188.5 196 L 189 197.5 L 187.5 200 L 187 198.5 L 188.5 196 Z " /><path fill="rgb(79,49,37)" stroke="rgb(79,49,37)" stroke-width="1" opacity="1" d="M 100.5 43 L 99.5 45 L 100.5 43 Z " /><path fill="rgb(79,49,37)" stroke="rgb(79,49,37)" stroke-width="1" opacity="1" d="M 74.5 48 L 73.5 50 L 74.5 48 Z " /><path fill="rgb(79,49,37)" stroke="rgb(79,49,37)" stroke-width="1" opacity="1" d="M 169.5 48 L 168.5 50 L 169.5 48 Z " /><path fill="rgb(79,49,37)" stroke="rgb(79,49,37)" stroke-width="1" opacity="1" d="M 61.5 67 L 62 69.5 L 61 69.5 L 61.5 67 Z " /><path fill="rgb(79,49,37)" stroke="rgb(79,49,37)" stroke-width="1" opacity="1" d="M 125.5 80 L 123.5 83 L 125.5 80 Z " /><path fill="rgb(79,49,37)" stroke="rgb(79,49,37)" stroke-width="1" opacity="1" d="M 157.5 86 L 158 88.5 L 157 88.5 L 157.5 86 Z " /><path fill="rgb(79,49,37)" stroke="rgb(79,49,37)" stroke-width="1" opacity="1" d="M 45.5 92 L 44.5 94 L 45.5 92 Z " /><path fill="rgb(79,49,37)" stroke="rgb(79,49,37)" stroke-width="1" opacity="1" d="M 142.5 119 L 137.5 125 L 142.5 119 Z " /><path fill="rgb(79,49,37)" stroke="rgb(79,49,37)" stroke-width="1" opacity="1" d="M 23.5 138 L 24.5 140 L 23.5 138 Z " /><path fill="rgb(79,49,37)" stroke="rgb(79,49,37)" stroke-width="1" opacity="1" d="M 179.5 138 L 172.5 146 L 179.5 138 Z " /><path fill="rgb(79,49,37)" stroke="rgb(79,49,37)" stroke-width="1" opacity="1" d="M 41.5 140 L 42 144.5 L 41 144.5 L 41.5 140 Z " /><path fill="rgb(79,49,37)" stroke="rgb(79,49,37)" stroke-width="1" opacity="1" d="M 187.5 147 L 188 153.5 L 187 153.5 L 187.5 147 Z " /><path fill="rgb(79,49,37)" stroke="rgb(79,49,37)" stroke-width="1" opacity="1" d="M 18.5 149 L 19 153.5 L 18 153.5 L 18.5 149 Z " /><path fill="rgb(79,49,37)" stroke="rgb(79,49,37)" stroke-width="1" opacity="1" d="M 135.5 153 L 134.5 155 L 135.5 153 Z " /><path fill="rgb(79,49,37)" stroke="rgb(79,49,37)" stroke-width="1" opacity="1" d="M 112.5 170 L 106.5 177 L 112.5 170 Z " /><path fill="rgb(79,49,37)" stroke="rgb(79,49,37)" stroke-width="1" opacity="1" d="M 119.5 171 L 118.5 173 L 119.5 171 Z " /><path fill="rgb(79,49,37)" stroke="rgb(79,49,37)" stroke-width="1" opacity="1" d="M 99.5 173 L 98.5 175 L 99.5 173 Z " /><path fill="rgb(79,49,37)" stroke="rgb(79,49,37)" stroke-width="1" opacity="1" d="M 155.5 174 L 156 181.5 L 155 181.5 L 155.5 174 Z " /><path fill="rgb(79,49,37)" stroke="rgb(79,49,37)" stroke-width="1" opacity="1" d="M 67.5 177 L 66.5 179 L 67.5 177 Z " /><path fill="rgb(79,49,37)" stroke="rgb(79,49,37)" stroke-width="1" opacity="1" d="M 86.5 178 L 90 178.5 L 86.5 179 L 86.5 178 Z " /><path fill="rgb(79,49,37)" stroke="rgb(79,49,37)" stroke-width="1" opacity="1" d="M 43.5 179 L 40.5 183 L 43.5 179 Z " /><path fill="rgb(79,49,37)" stroke="rgb(79,49,37)" stroke-width="1" opacity="1" d="M 102.5 179 L 101.5 181 L 102.5 179 Z " /><path fill="rgb(79,49,37)" stroke="rgb(79,49,37)" stroke-width="1" opacity="1" d="M 77.5 180 L 79.5 183 L 77.5 180 Z " /><path fill="rgb(79,49,37)" stroke="rgb(79,49,37)" stroke-width="1" opacity="1" d="M 25.5 186 L 26.5 188 L 25.5 186 Z " /><path fill="rgb(79,49,37)" stroke="rgb(79,49,37)" stroke-width="1" opacity="1" d="M 64.5 186 L 65 189.5 L 64 189.5 L 64.5 186 Z " /><path fill="rgb(79,49,37)" stroke="rgb(79,49,37)" stroke-width="1" opacity="1" d="M 161.5 186 L 162 188.5 L 161 188.5 L 161.5 186 Z " /><path fill="rgb(79,49,37)" stroke="rgb(79,49,37)" stroke-width="1" opacity="1" d="M 57.5 194 L 58 196.5 L 57 196.5 L 57.5 194 Z " /><path fill="rgb(0,0,0)" stroke="rgb(0,0,0)" stroke-width="1" opacity="1" d="M 114.5 16 L 118 17.5 Q 111.8 24.9 110 36 Q 106.7 34.7 108 39.5 L 97 71.5 L 100.5 73 L 105.5 71 Q 114.5 72.5 119.5 78 L 121 76.5 L 122 67.5 L 125.5 64 Q 128.8 65.1 128 62.5 Q 140.3 51.3 155.5 43 L 174.5 34 L 181 33 L 178 44.5 L 161.5 80 L 160 80 L 160 84 Q 163.3 82.7 162 87.5 Q 164.8 89.2 163 95.5 L 159 104.5 L 160.5 104 L 172.5 101 Q 175.3 102.3 174 107.5 L 170 122.5 L 162 136.5 L 157 141.5 L 157 146.5 Q 159.8 151.8 162.5 146 L 172 140 L 174.5 136 Q 176.8 136.8 176 134.5 L 186.5 120 Q 189.5 119.1 188 123.5 L 190 126.5 L 192 135.5 L 192 143.5 L 194 152.5 L 194 172 Q 190.7 170.7 192 175.5 L 193 179.5 L 189 194.5 L 185.5 200 L 180 199.5 L 184 192.5 L 188 177.5 L 188 143.5 L 186 132 L 181 135.5 L 170.5 147 L 162.5 153 L 160 153 L 160 161.5 L 162 171.5 L 177 199.5 L 171.5 200 L 163 184 Q 159.5 182.9 161 190.5 L 159 200 L 153 200 L 153 196.5 L 156 185.5 L 156 168.5 L 152 147 L 139.5 151 L 134 154.5 L 129 168.5 L 107.5 200 L 102 199.5 L 106 191.5 L 123 167.5 L 127 158 L 115 165.5 L 106.5 176 L 94.5 184 L 86.5 185 Q 79.9 184.1 77 179.5 L 75.5 177 L 66.5 177 L 66 178.5 L 64 183.5 Q 65.3 194.4 63 200 L 58 200 L 58 188.5 L 60 177.5 L 58.5 176 L 47.5 174 L 30 192.5 L 26 200 L 19 199.5 L 22 192.5 L 17 180.5 L 16 168.5 L 14 165.5 L 13 148.5 L 12 147.5 L 12 136.5 L 12 134.5 L 13 119 Q 15.7 117.9 15 120.5 L 16 124 L 19 124 Q 17.9 126.7 20.5 126 L 36.5 144 Q 38.8 144.8 38 142.5 L 37 139.5 L 36 130.5 L 29 122.5 L 28 116 Q 23.5 117.8 25 112.5 L 24 107.5 Q 29.3 104 31 98 L 34 96.5 L 40.5 89 L 48 83.5 L 57 70.5 Q 54 66.5 55 58.5 L 57 55 L 62 53 L 63.5 50 L 87.5 32 L 92 32 Q 90.5 28.3 93.5 29 Q 95 25.5 96.5 28 Q 101.8 29.8 100 24.5 L 114.5 16 Z M 107 26 L 95 35 L 84 41 L 62 59 Q 63 61 60 60 L 61 67 L 61 73 L 52 88 L 42 95 L 30 110 Q 29 115 32 118 L 36 120 L 38 123 L 41 137 Q 43 153 38 162 Q 46 172 65 172 L 67 172 L 70 173 L 84 171 L 102 166 Q 120 159 134 148 L 140 147 L 154 140 Q 167 129 169 107 L 164 107 L 159 109 L 144 118 L 132 131 L 130 137 L 126 138 L 127 133 L 132 124 Q 138 115 149 110 Q 157 105 159 94 L 157 85 L 158 75 L 168 52 Q 167 49 170 50 L 173 41 L 159 47 L 140 59 L 137 63 L 130 67 L 127 71 L 125 81 L 121 84 L 114 79 L 108 77 Q 101 76 100 80 L 93 79 L 91 78 L 91 73 L 97 57 L 98 50 L 108 27 L 107 26 Z M 17 132 L 19 165 L 22 179 L 25 186 Q 24 189 27 188 L 42 172 Q 43 169 41 170 L 35 165 L 34 160 L 36 156 Q 37 149 35 149 L 22 136 L 17 132 Z M 102 170 L 86 175 Q 81 173 82 177 L 86 179 L 95 178 L 104 171 L 102 170 Z " /><path fill="rgb(0,0,0)" stroke="rgb(0,0,0)" stroke-width="1" opacity="0.9490196078431372" d="M 95.5 26 L 94.5 28 L 95.5 26 Z " /><path fill="rgb(0,0,0)" stroke="rgb(0,0,0)" stroke-width="1" opacity="0.9490196078431372" d="M 92.5 28 L 91.5 30 L 92.5 28 Z " /><path fill="rgb(0,0,0)" stroke="rgb(0,0,0)" stroke-width="1" opacity="0.9490196078431372" d="M 89.5 30 L 88.5 32 L 89.5 30 Z " /><path fill="rgb(0,0,0)" stroke="rgb(0,0,0)" stroke-width="1" opacity="0.9490196078431372" d="M 86.5 32 L 85.5 34 L 86.5 32 Z " /><path fill="rgb(0,0,0)" stroke="rgb(0,0,0)" stroke-width="1" opacity="0.9490196078431372" d="M 79.5 37 L 78.5 39 L 79.5 37 Z " /><path fill="rgb(0,0,0)" stroke="rgb(0,0,0)" stroke-width="1" opacity="0.9490196078431372" d="M 76.5 39 L 74.5 42 L 76.5 39 Z " /><path fill="rgb(0,0,0)" stroke="rgb(0,0,0)" stroke-width="1" opacity="0.9490196078431372" d="M 71.5 43 L 70.5 45 L 71.5 43 Z " /><path fill="rgb(0,0,0)" stroke="rgb(0,0,0)" stroke-width="1" opacity="0.9490196078431372" d="M 67.5 46 L 65.5 49 L 67.5 46 Z " /><path fill="rgb(0,0,0)" stroke="rgb(0,0,0)" stroke-width="1" opacity="0.9490196078431372" d="M 144.5 49 L 143.5 51 L 144.5 49 Z " /><path fill="rgb(0,0,0)" stroke="rgb(0,0,0)" stroke-width="1" opacity="0.9490196078431372" d="M 141.5 51 L 140.5 53 L 141.5 51 Z " /><path fill="rgb(0,0,0)" stroke="rgb(0,0,0)" stroke-width="1" opacity="0.9490196078431372" d="M 60.5 52 L 58.5 55 L 60.5 52 Z " /><path fill="rgb(0,0,0)" stroke="rgb(0,0,0)" stroke-width="1" opacity="0.9490196078431372" d="M 134.5 56 L 132.5 59 L 134.5 56 Z " /><path fill="rgb(0,0,0)" stroke="rgb(0,0,0)" stroke-width="1" opacity="0.9490196078431372" d="M 55.5 57 L 55 58.5 L 54.5 60 L 54 58.5 L 55.5 57 Z " /><path fill="rgb(0,0,0)" stroke="rgb(0,0,0)" stroke-width="1" opacity="0.9490196078431372" d="M 171.5 58 L 172 59.5 L 170 60.5 L 171.5 58 Z " /><path fill="rgb(0,0,0)" stroke="rgb(0,0,0)" stroke-width="1" opacity="0.9490196078431372" d="M 129.5 60 L 128.5 62 L 129.5 60 Z " /><path fill="rgb(0,0,0)" stroke="rgb(0,0,0)" stroke-width="1" opacity="0.9490196078431372" d="M 124.5 64 L 122.5 67 L 124.5 64 Z " /><path fill="rgb(0,0,0)" stroke="rgb(0,0,0)" stroke-width="1" opacity="0.9490196078431372" d="M 55.5 66 L 56 68.5 L 55 68.5 L 55.5 66 Z " /><path fill="rgb(0,0,0)" stroke="rgb(0,0,0)" stroke-width="1" opacity="0.9490196078431372" d="M 97.5 69 L 98 71.5 L 97 71.5 L 97.5 69 Z " /><path fill="rgb(0,0,0)" stroke="rgb(0,0,0)" stroke-width="1" opacity="0.9490196078431372" d="M 55.5 71 L 54.5 73 L 55.5 71 Z " /><path fill="rgb(0,0,0)" stroke="rgb(0,0,0)" stroke-width="1" opacity="0.9490196078431372" d="M 116.5 74 L 119.5 78 L 116.5 74 Z " /><path fill="rgb(0,0,0)" stroke="rgb(0,0,0)" stroke-width="1" opacity="0.9490196078431372" d="M 43.5 86 L 42.5 88 L 43.5 86 Z " /><path fill="rgb(0,0,0)" stroke="rgb(0,0,0)" stroke-width="1" opacity="0.9490196078431372" d="M 39.5 89 L 33.5 96 L 39.5 89 Z " /><path fill="rgb(0,0,0)" stroke="rgb(0,0,0)" stroke-width="1" opacity="0.9490196078431372" d="M 30.5 99 L 29.5 101 L 30.5 99 Z " /><path fill="rgb(0,0,0)" stroke="rgb(0,0,0)" stroke-width="1" opacity="0.9490196078431372" d="M 27.5 103 L 24.5 107 L 27.5 103 Z " /><path fill="rgb(0,0,0)" stroke="rgb(0,0,0)" stroke-width="1" opacity="0.9490196078431372" d="M 173.5 108 L 174 110.5 L 173 110.5 L 173.5 108 Z " /><path fill="rgb(0,0,0)" stroke="rgb(0,0,0)" stroke-width="1" opacity="0.9490196078431372" d="M 186.5 119 L 188 119.5 L 185.5 121 L 186.5 119 Z " /><path fill="rgb(0,0,0)" stroke="rgb(0,0,0)" stroke-width="1" opacity="0.9490196078431372" d="M 18.5 123 L 20.5 126 L 18.5 123 Z " /><path fill="rgb(0,0,0)" stroke="rgb(0,0,0)" stroke-width="1" opacity="0.9490196078431372" d="M 29.5 123 L 34.5 129 L 29.5 123 Z " /><path fill="rgb(0,0,0)" stroke="rgb(0,0,0)" stroke-width="1" opacity="0.9490196078431372" d="M 182.5 125 L 181.5 127 L 182.5 125 Z " /><path fill="rgb(0,0,0)" stroke="rgb(0,0,0)" stroke-width="1" opacity="0.9490196078431372" d="M 24.5 130 L 27.5 134 L 24.5 130 Z " /><path fill="rgb(0,0,0)" stroke="rgb(0,0,0)" stroke-width="1" opacity="0.9490196078431372" d="M 35.5 130 L 36 132.5 L 35 132.5 L 35.5 130 Z " /><path fill="rgb(0,0,0)" stroke="rgb(0,0,0)" stroke-width="1" opacity="0.9490196078431372" d="M 178.5 130 L 176.5 133 L 178.5 130 Z " /><path fill="rgb(0,0,0)" stroke="rgb(0,0,0)" stroke-width="1" opacity="0.9490196078431372" d="M 165.5 131 L 164.5 133 L 165.5 131 Z " /><path fill="rgb(0,0,0)" stroke="rgb(0,0,0)" stroke-width="1" opacity="0.9490196078431372" d="M 36.5 137 L 37 143 L 32 139.5 L 36 141.5 L 36.5 137 Z " /><path fill="rgb(0,0,0)" stroke="rgb(0,0,0)" stroke-width="1" opacity="0.9490196078431372" d="M 161.5 137 L 160.5 139 L 161.5 137 Z " /><path fill="rgb(0,0,0)" stroke="rgb(0,0,0)" stroke-width="1" opacity="0.9490196078431372" d="M 192.5 137 L 193 139.5 L 192 139.5 L 192.5 137 Z " /><path fill="rgb(0,0,0)" stroke="rgb(0,0,0)" stroke-width="1" opacity="0.9490196078431372" d="M 167.5 141 L 163.5 146 L 167.5 141 Z " /><path fill="rgb(0,0,0)" stroke="rgb(0,0,0)" stroke-width="1" opacity="0.9490196078431372" d="M 193.5 145 L 194 149.5 L 193 149.5 L 193.5 145 Z " /><path fill="rgb(0,0,0)" stroke="rgb(0,0,0)" stroke-width="1" opacity="0.9490196078431372" d="M 161.5 146 L 160.5 148 L 161.5 146 Z " /><path fill="rgb(0,0,0)" stroke="rgb(0,0,0)" stroke-width="1" opacity="0.9490196078431372" d="M 12.5 151 L 13 155.5 L 12 155.5 L 12.5 151 Z " /><path fill="rgb(0,0,0)" stroke="rgb(0,0,0)" stroke-width="1" opacity="0.9490196078431372" d="M 13.5 161 L 14 163.5 L 13 163.5 L 13.5 161 Z " /><path fill="rgb(0,0,0)" stroke="rgb(0,0,0)" stroke-width="1" opacity="0.9490196078431372" d="M 194.5 165 L 195 168.5 L 194 168.5 L 194.5 165 Z " /><path fill="rgb(0,0,0)" stroke="rgb(0,0,0)" stroke-width="1" opacity="0.9490196078431372" d="M 193.5 174 L 194 176.5 L 193 176.5 L 193.5 174 Z " /><path fill="rgb(0,0,0)" stroke="rgb(0,0,0)" stroke-width="1" opacity="0.9490196078431372" d="M 21.5 192 L 22 194.5 L 21 194.5 L 21.5 192 Z " /><path fill="rgb(201,137,80)" stroke="rgb(201,137,80)" stroke-width="1" opacity="1" d="M 104.5 28 L 106 28.5 L 103.5 34 Q 98 31 104.5 28 Z " /><path fill="rgb(201,137,80)" stroke="rgb(201,137,80)" stroke-width="1" opacity="1" d="M 94.5 35 L 99.5 36 L 102 38.5 L 98.5 45 L 94.5 43 L 93 46.5 L 97 53.5 L 93.5 63 Q 89.8 57.7 82.5 56 Q 78.3 57.7 81 59.5 Q 80.3 61.8 82.5 61 L 88 64 L 90 72 L 73.5 80 L 71.5 75 L 67 74.5 L 69 68.5 L 70 58.5 L 75.5 52 L 85 44.5 Q 84.3 42.3 86.5 43 L 95 36.5 L 94.5 35 Z M 90 41 L 86 45 L 91 46 L 92 43 L 90 41 Z M 76 54 L 72 58 Q 73 60 78 59 L 79 57 L 76 54 Z " /><path fill="rgb(201,137,80)" stroke="rgb(201,137,80)" stroke-width="1" opacity="1" d="M 87.5 39 L 85.5 42 L 87.5 39 Z " /><path fill="rgb(201,137,80)" stroke="rgb(201,137,80)" stroke-width="1" opacity="1" d="M 171.5 42 L 171 43.5 L 168.5 49 L 164.5 47 L 162 50.5 Q 165.2 52.8 164 59.5 L 162 66 L 155.5 62 L 153 63 L 154 68 Q 156.7 66.9 156 69.5 Q 158.5 71 157 76.5 Q 154.7 77.8 156 82.5 L 158 92.5 L 156 91.5 Q 155.2 84.3 149.5 82 L 146.5 83 L 147.5 81 Q 150.3 81.6 149 75.5 L 148 71.5 L 152 63.5 L 161 52.5 L 161 49.5 L 164.5 45 L 166.5 46 L 166.5 44 L 168 44.5 Q 167.2 41.9 170.5 43 L 171.5 42 Z " /><path fill="rgb(201,137,80)" stroke="rgb(201,137,80)" stroke-width="1" opacity="1" d="M 80.5 44 L 82 44.5 L 79.5 46 L 80.5 44 Z " /><path fill="rgb(201,137,80)" stroke="rgb(201,137,80)" stroke-width="1" opacity="1" d="M 75.5 48 L 74.5 50 L 75.5 48 Z " /><path fill="rgb(201,137,80)" stroke="rgb(201,137,80)" stroke-width="1" opacity="1" d="M 151.5 52 L 150.5 54 L 151.5 52 Z " /><path fill="rgb(201,137,80)" stroke="rgb(201,137,80)" stroke-width="1" opacity="1" d="M 69.5 53 L 71 53.5 L 68.5 55 L 69.5 53 Z " /><path fill="rgb(201,137,80)" stroke="rgb(201,137,80)" stroke-width="1" opacity="1" d="M 64.5 57 L 63.5 59 L 64.5 57 Z " /><path fill="rgb(201,137,80)" stroke="rgb(201,137,80)" stroke-width="1" opacity="1" d="M 139.5 60 L 137.5 63 L 139.5 60 Z " /><path fill="rgb(201,137,80)" stroke="rgb(201,137,80)" stroke-width="1" opacity="1" d="M 133.5 65 L 132.5 67 L 133.5 65 Z " /><path fill="rgb(201,137,80)" stroke="rgb(201,137,80)" stroke-width="1" opacity="1" d="M 127.5 73 L 128 75.5 L 127 75.5 L 127.5 73 Z " /><path fill="rgb(201,137,80)" stroke="rgb(201,137,80)" stroke-width="1" opacity="1" d="M 126.5 77 L 127 79.5 L 126 79.5 L 126.5 77 Z " /><path fill="rgb(201,137,80)" stroke="rgb(201,137,80)" stroke-width="1" opacity="1" d="M 59.5 78 L 58.5 80 L 59.5 78 Z " /><path fill="rgb(201,137,80)" stroke="rgb(201,137,80)" stroke-width="1" opacity="1" d="M 145.5 85 L 152 93.5 L 153 103.5 L 148.5 109 L 142.5 113 L 140 112.5 L 143 111 L 144 107.5 Q 143 104 137.5 105 L 133.5 107 L 134.5 105 L 139 104 L 140 101.5 L 137.5 98 L 127.5 100 L 127.5 99 L 145.5 85 Z " /><path fill="rgb(201,137,80)" stroke="rgb(201,137,80)" stroke-width="1" opacity="1" d="M 117.5 86 L 117 87.5 Q 117.8 89.8 115.5 89 L 117.5 86 Z " /><path fill="rgb(201,137,80)" stroke="rgb(201,137,80)" stroke-width="1" opacity="1" d="M 99.5 87 L 101 87.5 L 98 100.5 L 98 111 L 85.5 116 L 80 107.5 L 95.5 90 L 99.5 87 Z " /><path fill="rgb(201,137,80)" stroke="rgb(201,137,80)" stroke-width="1" opacity="1" d="M 48.5 91 L 50 91.5 L 41 110.5 L 44 116.5 L 41 123.5 L 41.5 125 L 39 124.5 L 36.5 119 L 33 116.5 L 31 109.5 L 44.5 94 L 48.5 91 Z " /><path fill="rgb(201,137,80)" stroke="rgb(201,137,80)" stroke-width="1" opacity="1" d="M 125.5 96 L 126 97.5 L 123.5 101 L 123 99.5 L 125.5 96 Z " /><path fill="rgb(201,137,80)" stroke="rgb(201,137,80)" stroke-width="1" opacity="1" d="M 52.5 116 L 54.5 119 Q 52.8 115.9 51 117.5 L 52.5 116 Z " /><path fill="rgb(201,137,80)" stroke="rgb(201,137,80)" stroke-width="1" opacity="1" d="M 77.5 117 L 78.5 119 L 77.5 117 Z " /><path fill="rgb(201,137,80)" stroke="rgb(201,137,80)" stroke-width="1" opacity="1" d="M 71.5 120 L 69.5 123 L 67 122.5 L 71.5 120 Z " /><path fill="rgb(201,137,80)" stroke="rgb(201,137,80)" stroke-width="1" opacity="1" d="M 64.5 122 L 63.5 124 L 64.5 122 Z " /><path fill="rgb(201,137,80)" stroke="rgb(201,137,80)" stroke-width="1" opacity="1" d="M 84.5 124 L 88 124.5 L 84.5 125 L 84.5 124 Z " /><path fill="rgb(201,137,80)" stroke="rgb(201,137,80)" stroke-width="1" opacity="1" d="M 105.5 124 L 108.5 128 L 105.5 124 Z " /><path fill="rgb(201,137,80)" stroke="rgb(201,137,80)" stroke-width="1" opacity="1" d="M 104.5 131 L 105.5 133 L 104.5 131 Z " /><path fill="rgb(201,137,80)" stroke="rgb(201,137,80)" stroke-width="1" opacity="1" d="M 90.5 135 L 85.5 141 L 90.5 135 Z " /><path fill="rgb(201,137,80)" stroke="rgb(201,137,80)" stroke-width="1" opacity="1" d="M 98.5 135 L 101 135.5 L 98.5 136 L 98.5 135 Z " /><path fill="rgb(201,137,80)" stroke="rgb(201,137,80)" stroke-width="1" opacity="1" d="M 155.5 136 L 154.5 138 L 155.5 136 Z " /><path fill="rgb(201,137,80)" stroke="rgb(201,137,80)" stroke-width="1" opacity="1" d="M 55.5 137 L 56.5 139 L 55.5 137 Z " /><path fill="rgb(201,137,80)" stroke="rgb(201,137,80)" stroke-width="1" opacity="1" d="M 123.5 137 L 124.5 139 L 123.5 137 Z " /><path fill="rgb(201,137,80)" stroke="rgb(201,137,80)" stroke-width="1" opacity="1" d="M 92.5 138 L 88.5 143 L 92.5 138 Z " /><path fill="rgb(201,137,80)" stroke="rgb(201,137,80)" stroke-width="1" opacity="1" d="M 49.5 139 L 55 139.5 L 48.5 141 L 49.5 139 Z " /><path fill="rgb(201,137,80)" stroke="rgb(201,137,80)" stroke-width="1" opacity="1" d="M 56.5 141 L 57.5 143 L 56.5 141 Z " /><path fill="rgb(201,137,80)" stroke="rgb(201,137,80)" stroke-width="1" opacity="1" d="M 47.5 143 L 48 146.5 L 47 146.5 L 47.5 143 Z " /><path fill="rgb(201,137,80)" stroke="rgb(201,137,80)" stroke-width="1" opacity="1" d="M 101.5 149 L 100.5 151 L 101.5 149 Z " /><path fill="rgb(201,137,80)" stroke="rgb(201,137,80)" stroke-width="1" opacity="1" d="M 54.5 152 L 58 152.5 L 54.5 153 L 54.5 152 Z " /><path fill="rgb(201,137,80)" stroke="rgb(201,137,80)" stroke-width="1" opacity="1" d="M 54.5 155 L 59 155.5 L 54.5 156 L 54.5 155 Z " /><path fill="rgb(201,137,80)" stroke="rgb(201,137,80)" stroke-width="1" opacity="1" d="M 40.5 162 L 41.5 164 L 40.5 162 Z " /><path fill="rgb(201,137,80)" stroke="rgb(201,137,80)" stroke-width="1" opacity="1" d="M 62.5 171 L 71 171.5 L 62.5 172 L 62.5 171 Z " /><path fill="rgb(201,137,80)" stroke="rgb(201,137,80)" stroke-width="1" opacity="1" d="M 95.5 173 L 98 173.5 Q 94.8 178.3 86.5 178 L 84 176.5 L 95.5 173 Z " /><path fill="rgb(201,137,80)" stroke="rgb(201,137,80)" stroke-width="1" opacity="1" d="M 48.5 175 L 53 176.5 Q 41.9 186.2 36 200 L 27 199.5 L 39.5 184 L 44 180.5 L 48.5 175 Z " /><path fill="rgb(201,137,80)" stroke="rgb(201,137,80)" stroke-width="1" opacity="1" d="M 138.5 177 L 140 200 L 123.5 200 L 123 198.5 L 138.5 177 Z " /><path fill="rgb(201,137,80)" stroke="rgb(201,137,80)" stroke-width="1" opacity="1" d="M 65 184 L 98.5 193 L 104 193 L 101 200 L 64.5 200 L 64 198.5 L 65 197.5 L 65 184 Z " /><path fill="rgb(143,67,68)" stroke="rgb(143,67,68)" stroke-width="1" opacity="1" d="M 102.5 29 L 101 31.5 L 104 34.5 L 103 35.5 Q 104.1 38.8 101.5 38 Q 100.3 35 96 36 L 97.5 33 L 102.5 29 Z " /><path fill="rgb(143,67,68)" stroke="rgb(143,67,68)" stroke-width="1" opacity="1" d="M 89.5 41 L 92 42.5 L 91 46 L 86 44.5 L 89.5 41 Z " /><path fill="rgb(143,67,68)" stroke="rgb(143,67,68)" stroke-width="1" opacity="1" d="M 170.5 42 L 171.5 44 L 170.5 42 Z " /><path fill="rgb(143,67,68)" stroke="rgb(143,67,68)" stroke-width="1" opacity="1" d="M 94.5 43 L 99 45.5 L 96.5 53 L 93 44.5 L 94.5 43 Z " /><path fill="rgb(143,67,68)" stroke="rgb(143,67,68)" stroke-width="1" opacity="1" d="M 164.5 47 L 168 48 L 165 54.5 L 164.5 59 Q 164.8 52.8 162 49.5 L 164.5 47 Z " /><path fill="rgb(143,67,68)" stroke="rgb(143,67,68)" stroke-width="1" opacity="1" d="M 72.5 50 L 70.5 53 L 72.5 50 Z " /><path fill="rgb(143,67,68)" stroke="rgb(143,67,68)" stroke-width="1" opacity="1" d="M 75.5 54 L 79 56.5 L 78 59 Q 73.4 60.3 72 57.5 L 75.5 54 Z " /><path fill="rgb(143,67,68)" stroke="rgb(143,67,68)" stroke-width="1" opacity="1" d="M 66.5 55 L 65.5 57 L 66.5 55 Z " /><path fill="rgb(143,67,68)" stroke="rgb(143,67,68)" stroke-width="1" opacity="1" d="M 82.5 56 Q 89.5 57.6 93 62.5 L 90.5 72 L 88 64 L 81 61 L 80 58.5 L 82.5 56 Z " /><path fill="rgb(143,67,68)" stroke="rgb(143,67,68)" stroke-width="1" opacity="1" d="M 155.5 62 L 161 66.5 L 157.5 74 L 156 68 Q 153.3 69.1 154 66.5 L 153 63 L 155.5 62 Z " /><path fill="rgb(143,67,68)" stroke="rgb(143,67,68)" stroke-width="1" opacity="1" d="M 130.5 67 L 129.5 69 L 130.5 67 Z " /><path fill="rgb(143,67,68)" stroke="rgb(143,67,68)" stroke-width="1" opacity="1" d="M 71.5 75 L 73 77.5 L 72 77.5 L 71.5 75 Z " /><path fill="rgb(143,67,68)" stroke="rgb(143,67,68)" stroke-width="1" opacity="1" d="M 103.5 78 L 107.5 78 L 113 80 Q 114.1 82.7 111.5 82 Q 108.3 83.8 108 88.5 L 111 90.5 L 109 95.5 Q 110 98 114.5 97 L 118.5 95 L 119 99 L 125 101.5 L 123 102 L 123 106 L 124.5 106 L 129.5 107 L 133.5 105 L 133.5 107 L 135.5 106 L 135 107.5 L 134 109.5 L 135 112 L 137.5 113 L 140.5 111 L 141 113.5 L 139.5 115 L 133 120.5 L 127.5 130 L 125 126 L 122 124.5 L 126 121.5 L 125 118 L 118.5 118 L 111 120 L 110 115 L 106 115 L 106 110 L 104.5 110 L 102.5 109 L 96.5 112 L 96.5 111 L 98 110.5 L 98 100.5 L 101 87.5 L 99.5 87 L 84 101.5 L 81 107 Q 78.3 108.1 79 105.5 L 78 103 Q 72.5 101.8 71 105.5 L 64.5 120 L 56.5 110 L 52 110 Q 53.7 114.1 49.5 113 L 47.5 113 Q 45.3 112.3 46 114.5 L 42.5 122 L 42 120.5 L 44 114.5 L 41 109.5 L 50 91.5 Q 47.8 90.3 50.5 89 L 53 87.5 L 57.5 79 L 61.5 83 L 63.5 83 L 66.5 81 L 67 84.5 Q 63.3 85.2 64 90.5 L 66.5 92 Q 75 82.5 89.5 79 L 88 81.5 L 90.5 85 L 93.5 85 L 103.5 78 Z " /><path fill="rgb(143,67,68)" stroke="rgb(143,67,68)" stroke-width="1" opacity="1" d="M 147.5 82 L 149.5 82 L 155 87.5 L 156.5 92 L 157.5 90 L 158 91.5 L 158 93.5 L 152.5 105 L 153 103.5 L 152 93.5 L 146 85.5 L 146 83.5 L 147.5 82 Z " /><path fill="rgb(143,67,68)" stroke="rgb(143,67,68)" stroke-width="1" opacity="1" d="M 115.5 87 L 115.5 90 L 112.5 91 L 115.5 87 Z " /><path fill="rgb(143,67,68)" stroke="rgb(143,67,68)" stroke-width="1" opacity="1" d="M 120.5 87 L 124 87.5 L 120.5 88 L 120.5 87 Z " /><path fill="rgb(143,67,68)" stroke="rgb(143,67,68)" stroke-width="1" opacity="1" d="M 126.5 90 L 127 92.5 L 126 92.5 L 126.5 90 Z " /><path fill="rgb(143,67,68)" stroke="rgb(143,67,68)" stroke-width="1" opacity="1" d="M 47.5 91 L 45.5 94 L 47.5 91 Z " /><path fill="rgb(143,67,68)" stroke="rgb(143,67,68)" stroke-width="1" opacity="1" d="M 42.5 95 L 38.5 100 L 42.5 95 Z " /><path fill="rgb(143,67,68)" stroke="rgb(143,67,68)" stroke-width="1" opacity="1" d="M 133.5 98 Q 138 97 139 99.5 L 137.5 99 Q 132.5 100 133.5 98 Z " /><path fill="rgb(143,67,68)" stroke="rgb(143,67,68)" stroke-width="1" opacity="1" d="M 36.5 102 L 34.5 105 L 36.5 102 Z " /><path fill="rgb(143,67,68)" stroke="rgb(143,67,68)" stroke-width="1" opacity="1" d="M 136.5 104 L 141.5 105 L 144 107.5 L 143.5 109 L 141.5 106 Q 136 107 136.5 104 Z " /><path fill="rgb(143,67,68)" stroke="rgb(143,67,68)" stroke-width="1" opacity="1" d="M 33.5 106 L 31.5 109 L 33.5 106 Z " /><path fill="rgb(143,67,68)" stroke="rgb(143,67,68)" stroke-width="1" opacity="1" d="M 81.5 110 L 84 113.5 L 82 112.5 L 81.5 110 Z " /><path fill="rgb(143,67,68)" stroke="rgb(143,67,68)" stroke-width="1" opacity="1" d="M 31.5 113 L 35.5 119 L 38 120.5 L 36.5 120 L 32 116.5 L 31.5 113 Z " /><path fill="rgb(143,67,68)" stroke="rgb(143,67,68)" stroke-width="1" opacity="1" d="M 75.5 113 L 76.5 115 L 75.5 113 Z " /><path fill="rgb(143,67,68)" stroke="rgb(143,67,68)" stroke-width="1" opacity="1" d="M 84.5 115 L 87.5 116 L 89 115.5 L 85.5 117 L 84.5 115 Z " /><path fill="rgb(143,67,68)" stroke="rgb(143,67,68)" stroke-width="1" opacity="1" d="M 104.5 116 L 105 120.5 L 104 120.5 L 104.5 116 Z " /><path fill="rgb(143,67,68)" stroke="rgb(143,67,68)" stroke-width="1" opacity="1" d="M 145.5 117 L 144.5 119 L 145.5 117 Z " /><path fill="rgb(143,67,68)" stroke="rgb(143,67,68)" stroke-width="1" opacity="1" d="M 96.5 118 L 98 118.5 L 95.5 120 L 96.5 118 Z " /><path fill="rgb(143,67,68)" stroke="rgb(143,67,68)" stroke-width="1" opacity="1" d="M 55.5 119 L 58.5 123 L 55.5 119 Z " /><path fill="rgb(143,67,68)" stroke="rgb(143,67,68)" stroke-width="1" opacity="1" d="M 64.5 121 L 66 121.5 L 60.5 124 L 60.5 123 L 64.5 121 Z " /><path fill="rgb(143,67,68)" stroke="rgb(143,67,68)" stroke-width="1" opacity="1" d="M 80.5 121 L 81.5 123 L 80.5 121 Z " /><path fill="rgb(143,67,68)" stroke="rgb(143,67,68)" stroke-width="1" opacity="1" d="M 89.5 122 L 88.5 124 L 89.5 122 Z " /><path fill="rgb(143,67,68)" stroke="rgb(143,67,68)" stroke-width="1" opacity="1" d="M 116.5 125 Q 120.9 123.5 120 126.5 L 118.5 126 Q 115.5 126.5 116.5 125 Z " /><path fill="rgb(143,67,68)" stroke="rgb(143,67,68)" stroke-width="1" opacity="1" d="M 47.5 126 L 46.5 128 L 44 127.5 L 47.5 126 Z " /><path fill="rgb(143,67,68)" stroke="rgb(143,67,68)" stroke-width="1" opacity="1" d="M 109.5 127 L 112 127.5 L 109.5 128 L 109.5 127 Z " /><path fill="rgb(143,67,68)" stroke="rgb(143,67,68)" stroke-width="1" opacity="1" d="M 100.5 131 Q 105.3 130.3 106 133.5 Q 106 143.4 103 149 L 97.5 152 L 89.5 154 L 82 150.5 L 83 143.5 L 92.5 134 L 100.5 131 Z M 99 135 L 93 138 L 86 146 L 86 149 L 89 150 L 98 149 Q 104 147 102 137 L 99 135 Z " /><path fill="rgb(143,67,68)" stroke="rgb(143,67,68)" stroke-width="1" opacity="1" d="M 121.5 133 L 122.5 135 L 121.5 133 Z " /><path fill="rgb(143,67,68)" stroke="rgb(143,67,68)" stroke-width="1" opacity="1" d="M 184.5 133 L 187 144.5 L 187 159.5 L 188 164.5 L 187 165.5 L 187 177.5 L 185 186.5 L 178.5 200 L 163 171.5 L 161 154 L 168.5 150 L 184 134.5 L 184.5 133 Z " /><path fill="rgb(143,67,68)" stroke="rgb(143,67,68)" stroke-width="1" opacity="1" d="M 18 134 Q 20.7 132.9 20 135.5 L 33.5 150 Q 36.9 149.1 35 154.5 L 33 160.5 L 35 166.5 L 37.5 169 L 41 171.5 L 26.5 186 L 25 184.5 L 19 156.5 L 18 134 Z " /><path fill="rgb(143,67,68)" stroke="rgb(143,67,68)" stroke-width="1" opacity="1" d="M 157.5 134 L 156.5 136 L 157.5 134 Z " /><path fill="rgb(143,67,68)" stroke="rgb(143,67,68)" stroke-width="1" opacity="1" d="M 48.5 136 L 52.5 136 L 60 141.5 L 63 147.5 L 63 152.5 L 60.5 155 L 51.5 155 L 46 150.5 L 45 142.5 L 46 138.5 L 48.5 136 Z M 50 139 L 47 144 L 48 149 L 55 153 Q 60 154 61 150 L 58 143 Q 57 138 50 139 Z " /><path fill="rgb(143,67,68)" stroke="rgb(143,67,68)" stroke-width="1" opacity="1" d="M 123.5 136 L 128 138.5 L 125.5 139 L 123.5 136 Z " /><path fill="rgb(143,67,68)" stroke="rgb(143,67,68)" stroke-width="1" opacity="1" d="M 153.5 138 L 152.5 140 L 153.5 138 Z " /><path fill="rgb(143,67,68)" stroke="rgb(143,67,68)" stroke-width="1" opacity="1" d="M 41.5 145 L 42 150.5 L 41 150.5 L 41.5 145 Z " /><path fill="rgb(143,67,68)" stroke="rgb(143,67,68)" stroke-width="1" opacity="1" d="M 149.5 148 Q 151.8 147.3 151 149.5 L 153 154.5 L 154 166.5 L 155 167.5 L 155 185.5 L 152 200 L 140 200 L 140 188.5 L 139 187.5 L 138.5 177 Q 128.7 187.1 123 200 L 109 199.5 L 129 170.5 L 136.5 153 Q 144.6 152.1 149.5 148 Z " /><path fill="rgb(143,67,68)" stroke="rgb(143,67,68)" stroke-width="1" opacity="1" d="M 124.5 160 L 125 161.5 L 105 193 L 98.5 193 L 65 183.5 L 67 178 L 75.5 178 L 76 179.5 Q 79.4 186.1 89.5 186 L 100.5 182 L 114 169.5 L 117.5 164 L 124.5 160 Z " /><path fill="rgb(143,67,68)" stroke="rgb(143,67,68)" stroke-width="1" opacity="1" d="M 42.5 164 L 43.5 166 L 42.5 164 Z " /><path fill="rgb(143,67,68)" stroke="rgb(143,67,68)" stroke-width="1" opacity="1" d="M 100.5 171 L 102 171.5 L 97.5 175 L 97.5 173 L 96 172.5 L 100.5 171 Z " /><path fill="rgb(143,67,68)" stroke="rgb(143,67,68)" stroke-width="1" opacity="1" d="M 48.5 174 L 46.5 177 L 48.5 174 Z " /><path fill="rgb(143,67,68)" stroke="rgb(143,67,68)" stroke-width="1" opacity="1" d="M 89.5 174 L 92 174.5 L 89.5 175 L 89.5 174 Z " /><path fill="rgb(143,67,68)" stroke="rgb(143,67,68)" stroke-width="1" opacity="1" d="M 85.5 175 L 88 175.5 L 85.5 176 L 85.5 175 Z " /><path fill="rgb(143,67,68)" stroke="rgb(143,67,68)" stroke-width="1" opacity="1" d="M 53.5 176 L 59 177 L 57 187.5 L 57 200 L 36.5 200 L 36 198.5 Q 43 185.5 53.5 176 Z " /><path fill="rgb(143,67,68)" stroke="rgb(143,67,68)" stroke-width="1" opacity="1" d="M 83.5 176 L 86 177.5 L 84.5 178 L 83.5 176 Z " /><path fill="rgb(143,67,68)" stroke="rgb(143,67,68)" stroke-width="1" opacity="1" d="M 90.5 177 L 93 177.5 L 90.5 178 L 90.5 177 Z " /><path fill="rgb(143,67,68)" stroke="rgb(143,67,68)" stroke-width="1" opacity="1" d="M 43.5 180 L 40.5 184 L 43.5 180 Z " /><path fill="rgb(143,67,68)" stroke="rgb(143,67,68)" stroke-width="1" opacity="1" d="M 162.5 186 L 169 197.5 L 169 200 L 160 200 L 160 196.5 L 162.5 186 Z " /><path fill="rgb(143,67,68)" stroke="rgb(143,67,68)" stroke-width="1" opacity="1" d="M 33.5 190 L 30.5 194 L 33.5 190 Z " /><path fill="rgb(143,67,68)" stroke="rgb(143,67,68)" stroke-width="1" opacity="1" d="M 64.5 193 L 65 197.5 L 64 197.5 L 64.5 193 Z " /><path fill="rgb(143,67,68)" stroke="rgb(143,67,68)" stroke-width="1" opacity="1" d="M 29.5 195 L 28.5 197 L 29.5 195 Z " /><path fill="rgb(143,67,68)" stroke="rgb(143,67,68)" stroke-width="1" opacity="1" d="M 27.5 198 L 26.5 200 L 27.5 198 Z " /><path fill="rgb(96,41,48)" stroke="rgb(96,41,48)" stroke-width="1" opacity="1" d="M 89.5 72 Q 92.5 71.1 91 75.5 L 90 77.5 L 98 81.5 L 93.5 85 L 90.5 85 L 88 81.5 L 89.5 79 L 80.5 82 L 65.5 92 Q 63.3 91.3 64 87.5 Q 67.8 86.8 67 81.5 L 65.5 82 L 61.5 83 L 59 79.5 Q 62.8 75.3 70.5 75 L 73 80 L 89.5 72 Z " /><path fill="rgb(96,41,48)" stroke="rgb(96,41,48)" stroke-width="1" opacity="1" d="M 104.5 77 L 107 77.5 L 104.5 78 L 104.5 77 Z " /><path fill="rgb(96,41,48)" stroke="rgb(96,41,48)" stroke-width="1" opacity="1" d="M 113.5 80 L 114 82 L 119 84.5 L 112 90.5 L 113.5 91 Q 116.4 86.9 124.5 88 Q 127.3 89.3 126 94.5 L 122.5 100 L 119 99 L 118.5 95 Q 116.2 97.7 110.5 97 L 109 93.5 L 111 90.5 L 108 88.5 Q 108.3 83.8 111.5 82 Q 114 82.7 113.5 80 Z " /><path fill="rgb(96,41,48)" stroke="rgb(96,41,48)" stroke-width="1" opacity="1" d="M 132.5 99 Q 137.8 97.8 139 100.5 L 137.5 104 L 129.5 107 L 125.5 107 L 123 106 L 123 102 L 124.5 102 L 132.5 99 Z " /><path fill="rgb(96,41,48)" stroke="rgb(96,41,48)" stroke-width="1" opacity="1" d="M 37.5 100 L 36.5 102 L 37.5 100 Z " /><path fill="rgb(96,41,48)" stroke="rgb(96,41,48)" stroke-width="1" opacity="1" d="M 73.5 103 Q 78.9 101.1 78 104.5 L 85.5 117 L 103.5 109 L 106 110 L 106 115 L 110 115 L 110 116.5 L 111 120 L 118.5 118 L 125 118 L 126 121.5 L 122 124.5 L 125 126 L 128 130.5 L 124.5 137 L 119 127.5 L 120 125 Q 115.5 124.2 113.5 127 L 108.5 127 Q 103.5 124.2 105 116 L 101.5 116 L 87.5 124 L 84.5 124 L 80 120.5 L 75.5 113 L 73 114.5 L 69.5 122 L 64.5 121 Q 63.8 123.8 59.5 123 L 54 116 Q 50.3 114.5 51 117.5 L 46.5 127 Q 42.8 127.8 42 125.5 L 42 122.5 L 46 113 L 48.5 112 L 52 113 Q 50.2 108.1 56.5 110 L 64.5 120 Q 67 109.5 73.5 103 Z " /><path fill="rgb(96,41,48)" stroke="rgb(96,41,48)" stroke-width="1" opacity="1" d="M 136.5 106 Q 141.8 104.8 143 107.5 L 141.5 111 L 137.5 113 L 135 112 L 134 109.5 L 136.5 106 Z " /><path fill="rgb(96,41,48)" stroke="rgb(96,41,48)" stroke-width="1" opacity="1" d="M 151.5 106 L 150.5 108 L 151.5 106 Z " /><path fill="rgb(96,41,48)" stroke="rgb(96,41,48)" stroke-width="1" opacity="1" d="M 138.5 115 L 133.5 121 L 138.5 115 Z " /><path fill="rgb(96,41,48)" stroke="rgb(96,41,48)" stroke-width="1" opacity="1" d="M 33.5 118 L 34.5 120 L 33.5 118 Z " /><path fill="rgb(96,41,48)" stroke="rgb(96,41,48)" stroke-width="1" opacity="1" d="M 183.5 134 L 180.5 138 L 183.5 134 Z " /><path fill="rgb(96,41,48)" stroke="rgb(96,41,48)" stroke-width="1" opacity="1" d="M 20.5 135 L 22.5 138 L 20.5 135 Z " /><path fill="rgb(96,41,48)" stroke="rgb(96,41,48)" stroke-width="1" opacity="1" d="M 186.5 141 L 187 143.5 L 186 143.5 L 186.5 141 Z " /><path fill="rgb(96,41,48)" stroke="rgb(96,41,48)" stroke-width="1" opacity="1" d="M 27.5 143 L 33.5 150 L 27.5 143 Z " /><path fill="rgb(96,41,48)" stroke="rgb(96,41,48)" stroke-width="1" opacity="1" d="M 18.5 146 L 19 148.5 L 18 148.5 L 18.5 146 Z " /><path fill="rgb(96,41,48)" stroke="rgb(96,41,48)" stroke-width="1" opacity="1" d="M 171.5 146 L 168.5 150 L 171.5 146 Z " /><path fill="rgb(96,41,48)" stroke="rgb(96,41,48)" stroke-width="1" opacity="1" d="M 35.5 150 L 36 152.5 L 35 152.5 L 35.5 150 Z " /><path fill="rgb(96,41,48)" stroke="rgb(96,41,48)" stroke-width="1" opacity="1" d="M 165.5 151 L 164.5 153 L 165.5 151 Z " /><path fill="rgb(96,41,48)" stroke="rgb(96,41,48)" stroke-width="1" opacity="1" d="M 187.5 154 L 188 159.5 L 187 159.5 L 187.5 154 Z " /><path fill="rgb(96,41,48)" stroke="rgb(96,41,48)" stroke-width="1" opacity="1" d="M 19.5 157 L 20 159.5 L 19 159.5 L 19.5 157 Z " /><path fill="rgb(96,41,48)" stroke="rgb(96,41,48)" stroke-width="1" opacity="1" d="M 153.5 157 L 154 159.5 L 153 159.5 L 153.5 157 Z " /><path fill="rgb(96,41,48)" stroke="rgb(96,41,48)" stroke-width="1" opacity="1" d="M 33.5 158 L 34 160.5 L 33 160.5 L 33.5 158 Z " /><path fill="rgb(96,41,48)" stroke="rgb(96,41,48)" stroke-width="1" opacity="1" d="M 154.5 164 L 155 166.5 L 154 166.5 L 154.5 164 Z " /><path fill="rgb(96,41,48)" stroke="rgb(96,41,48)" stroke-width="1" opacity="1" d="M 187.5 165 L 188 172.5 L 187 172.5 L 187.5 165 Z " /><path fill="rgb(96,41,48)" stroke="rgb(96,41,48)" stroke-width="1" opacity="1" d="M 35.5 166 L 37.5 169 L 35.5 166 Z " /><path fill="rgb(96,41,48)" stroke="rgb(96,41,48)" stroke-width="1" opacity="1" d="M 128.5 170 L 127.5 172 L 128.5 170 Z " /><path fill="rgb(96,41,48)" stroke="rgb(96,41,48)" stroke-width="1" opacity="1" d="M 99.5 171 L 100.5 173 L 99.5 171 Z " /><path fill="rgb(96,41,48)" stroke="rgb(96,41,48)" stroke-width="1" opacity="1" d="M 40.5 172 L 26.5 187 L 25.5 185 L 26.5 186 L 40.5 172 Z " /><path fill="rgb(96,41,48)" stroke="rgb(96,41,48)" stroke-width="1" opacity="1" d="M 124.5 176 L 123.5 178 L 124.5 176 Z " /><path fill="rgb(96,41,48)" stroke="rgb(96,41,48)" stroke-width="1" opacity="1" d="M 165.5 176 L 166.5 178 L 165.5 176 Z " /><path fill="rgb(96,41,48)" stroke="rgb(96,41,48)" stroke-width="1" opacity="1" d="M 45.5 177 L 44.5 179 L 45.5 177 Z " /><path fill="rgb(96,41,48)" stroke="rgb(96,41,48)" stroke-width="1" opacity="1" d="M 113.5 179 L 112.5 181 L 113.5 179 Z " /><path fill="rgb(96,41,48)" stroke="rgb(96,41,48)" stroke-width="1" opacity="1" d="M 39.5 183 L 33.5 190 L 39.5 183 Z " /><path fill="rgb(96,41,48)" stroke="rgb(96,41,48)" stroke-width="1" opacity="1" d="M 119.5 183 L 118.5 185 L 119.5 183 Z " /><path fill="rgb(96,41,48)" stroke="rgb(96,41,48)" stroke-width="1" opacity="1" d="M 86.5 185 L 90 185.5 L 86.5 186 L 86.5 185 Z " /><path fill="rgb(96,41,48)" stroke="rgb(96,41,48)" stroke-width="1" opacity="1" d="M 57.5 187 L 58 193.5 L 57 193.5 L 57.5 187 Z " /><path fill="rgb(96,41,48)" stroke="rgb(96,41,48)" stroke-width="1" opacity="1" d="M 64.5 190 L 65 192.5 L 64 192.5 L 64.5 190 Z " /><path fill="rgb(219,178,108)" stroke="rgb(219,178,108)" stroke-width="1" opacity="1" d="M 94.5 36 L 91.5 40 L 91.5 37 Q 93 39.5 94.5 36 Z " /><path fill="rgb(219,178,108)" stroke="rgb(219,178,108)" stroke-width="1" opacity="1" d="M 87.5 40 L 89 40.5 L 85 43 L 80.5 49 L 76.5 52 L 79.5 48 L 83 45.5 L 82 43 L 87.5 40 Z " /><path fill="rgb(219,178,108)" stroke="rgb(219,178,108)" stroke-width="1" opacity="1" d="M 167.5 44 L 166.5 46 L 165 45.5 L 167.5 44 Z " /><path fill="rgb(219,178,108)" stroke="rgb(219,178,108)" stroke-width="1" opacity="1" d="M 162.5 46 L 163 47.5 Q 160.3 48.3 161 52.5 L 152.5 63 Q 146.8 63.7 144.5 61 L 139.5 62 L 141.5 59 L 147.5 55 L 153 59.5 L 153.5 61 L 160 51 L 155 50.5 L 162.5 46 Z " /><path fill="rgb(219,178,108)" stroke="rgb(219,178,108)" stroke-width="1" opacity="1" d="M 71.5 52 L 74 53.5 L 70.5 58 L 64.5 59 L 67.5 55 L 71 54 L 71.5 52 Z " /><path fill="rgb(219,178,108)" stroke="rgb(219,178,108)" stroke-width="1" opacity="1" d="M 68.5 62 L 69 68.5 L 68 68.5 L 68.5 62 Z " /><path fill="rgb(219,178,108)" stroke="rgb(219,178,108)" stroke-width="1" opacity="1" d="M 150.5 66 L 150 67.5 L 147.5 74 L 147 71.5 L 150.5 66 Z " /><path fill="rgb(219,178,108)" stroke="rgb(219,178,108)" stroke-width="1" opacity="1" d="M 129.5 69 L 131.5 71 L 141.5 74 L 146 78.5 L 144.5 82 L 141.5 82 L 134.5 77 L 128 76 L 129.5 69 Z " /><path fill="rgb(219,178,108)" stroke="rgb(219,178,108)" stroke-width="1" opacity="1" d="M 67.5 72 L 68 73.5 L 66 74.5 L 67.5 72 Z " /><path fill="rgb(219,178,108)" stroke="rgb(219,178,108)" stroke-width="1" opacity="1" d="M 61.5 74 L 60.5 76 L 61.5 74 Z " /><path fill="rgb(219,178,108)" stroke="rgb(219,178,108)" stroke-width="1" opacity="1" d="M 148.5 75 L 149 78.5 L 148 78.5 L 148.5 75 Z " /><path fill="rgb(219,178,108)" stroke="rgb(219,178,108)" stroke-width="1" opacity="1" d="M 59.5 77 L 61 77.5 L 58.5 79 L 59.5 77 Z " /><path fill="rgb(219,178,108)" stroke="rgb(219,178,108)" stroke-width="1" opacity="1" d="M 125.5 81 L 124.5 83 L 125.5 81 Z " /><path fill="rgb(219,178,108)" stroke="rgb(219,178,108)" stroke-width="1" opacity="1" d="M 145.5 84 L 143.5 87 L 145.5 84 Z " /><path fill="rgb(219,178,108)" stroke="rgb(219,178,108)" stroke-width="1" opacity="1" d="M 118.5 86 L 119 88 L 117 87.5 L 118.5 86 Z " /><path fill="rgb(219,178,108)" stroke="rgb(219,178,108)" stroke-width="1" opacity="1" d="M 121.5 86 L 124 86.5 L 121.5 87 L 121.5 86 Z " /><path fill="rgb(219,178,108)" stroke="rgb(219,178,108)" stroke-width="1" opacity="1" d="M 125.5 87 L 126.5 89 L 125.5 87 Z " /><path fill="rgb(219,178,108)" stroke="rgb(219,178,108)" stroke-width="1" opacity="1" d="M 141.5 87 L 139.5 90 L 132.5 96 L 138.5 89 L 141.5 87 Z " /><path fill="rgb(219,178,108)" stroke="rgb(219,178,108)" stroke-width="1" opacity="1" d="M 130.5 96 L 128.5 99 L 126.5 100 L 125 99.5 L 124.5 101 L 124 99.5 L 127.5 98 L 130.5 96 Z " /><path fill="rgb(219,178,108)" stroke="rgb(219,178,108)" stroke-width="1" opacity="1" d="M 103.5 117 L 104 119.5 L 103 119.5 L 103.5 117 Z " /><path fill="rgb(219,178,108)" stroke="rgb(219,178,108)" stroke-width="1" opacity="1" d="M 80.5 122 L 81.5 124 L 80.5 122 Z " /><path fill="rgb(219,178,108)" stroke="rgb(219,178,108)" stroke-width="1" opacity="1" d="M 60.5 124 L 63 124.5 L 60.5 125 L 60.5 124 Z " /><path fill="rgb(219,178,108)" stroke="rgb(219,178,108)" stroke-width="1" opacity="1" d="M 48.5 126 L 47.5 128 L 48.5 126 Z " /><path fill="rgb(219,178,108)" stroke="rgb(219,178,108)" stroke-width="1" opacity="1" d="M 157.5 133 L 156.5 135 L 157.5 133 Z " /><path fill="rgb(219,178,108)" stroke="rgb(219,178,108)" stroke-width="1" opacity="1" d="M 125.5 139 L 128 139.5 L 125.5 140 L 125.5 139 Z " /><path fill="rgb(219,178,108)" stroke="rgb(219,178,108)" stroke-width="1" opacity="1" d="M 84.5 141 L 83.5 143 L 84.5 141 Z " /><path fill="rgb(219,178,108)" stroke="rgb(219,178,108)" stroke-width="1" opacity="1" d="M 62.5 153 L 61.5 155 L 62.5 153 Z " /><path fill="rgb(219,178,108)" stroke="rgb(219,178,108)" stroke-width="1" opacity="1" d="M 120.5 154 L 119.5 156 L 120.5 154 Z " /><path fill="rgb(243,226,70)" stroke="rgb(243,226,70)" stroke-width="1" opacity="1" d="M 93.5 36 L 90.5 40 L 88 39.5 L 93.5 36 Z " /><path fill="rgb(243,226,70)" stroke="rgb(243,226,70)" stroke-width="1" opacity="1" d="M 81.5 45 L 83 45.5 L 74.5 53 L 72 53 L 73.5 50 L 81.5 45 Z " /><path fill="rgb(243,226,70)" stroke="rgb(243,226,70)" stroke-width="1" opacity="1" d="M 154.5 51 Q 160.6 49.8 160 52.5 L 153.5 61 L 150.5 57 L 148 55.5 L 154.5 51 Z " /><path fill="rgb(243,226,70)" stroke="rgb(243,226,70)" stroke-width="1" opacity="1" d="M 66.5 58 L 70 58.5 Q 66.5 62.5 68 71.5 L 65.5 75 L 60.5 77 L 62 74.5 L 63 69.5 L 61 61.5 L 66.5 58 Z " /><path fill="rgb(243,226,70)" stroke="rgb(243,226,70)" stroke-width="1" opacity="1" d="M 144.5 61 L 152 63.5 L 147 73.5 L 149 79.5 L 142.5 87 L 125.5 100 L 126 98.5 L 127 88.5 L 121.5 86 L 119.5 87 L 120.5 85 L 126 81.5 L 127 76 L 134.5 77 L 141.5 82 L 144.5 82 L 146 78.5 L 141.5 74 L 130 69.5 Q 129.3 67.3 131.5 68 L 135 66 Q 133.9 63.3 136.5 64 L 138.5 62 Q 143.2 63.3 144.5 61 Z " /><path fill="rgb(243,226,70)" stroke="rgb(243,226,70)" stroke-width="1" opacity="1" d="M 96.5 136 Q 101 135 102 137.5 Q 103 145.5 98.5 148 L 89.5 150 L 86 147.5 L 87 144.5 L 94.5 137 L 96.5 136 Z " /><path fill="rgb(243,226,70)" stroke="rgb(243,226,70)" stroke-width="1" opacity="1" d="M 49.5 140 L 54.5 140 L 59 144.5 L 60 150.5 Q 58.5 153.5 52.5 152 L 49 149.5 L 48 141.5 L 49.5 140 Z " /><path fill="rgb(234,185,156)" stroke="rgb(234,185,156)" stroke-width="1" opacity="1" d="M 163.5 108 L 168 109.5 Q 164.1 128.1 152.5 139 L 140.5 145 L 132.5 147 L 117.5 157 L 102.5 164 L 75.5 171 L 59.5 171 L 50.5 169 Q 43.8 166.8 40 161.5 L 42 152.5 L 42 137.5 L 39 125.5 Q 40.5 122.5 42 125.5 L 43.5 128 L 45.5 129 L 49 126.5 L 52.5 117 L 56 122 L 62.5 125 Q 63.8 121.8 69.5 123 L 72 120.5 L 74 115 L 77 116.5 L 81.5 124 L 87.5 125 L 102.5 117 Q 103.4 124.6 108.5 128 L 111.5 129 L 117.5 126 Q 119.1 135.4 125.5 140 L 130 139 Q 132.7 126.6 142.5 120 Q 151.1 112.1 163.5 108 Z M 99 131 L 91 135 L 83 143 L 82 152 L 87 154 L 93 154 L 101 151 Q 105 148 106 142 L 106 131 L 99 131 Z M 48 136 L 45 142 Q 44 149 47 153 L 54 156 L 62 155 L 64 152 Q 62 150 63 146 L 61 143 L 55 136 L 48 136 Z " /><path fill="rgb(35,20,17)" stroke="rgb(35,20,17)" stroke-width="1" opacity="0.996078431372549" d="M 102.5 28 L 99.5 32 L 102.5 28 Z " /><path fill="rgb(35,20,17)" stroke="rgb(35,20,17)" stroke-width="1" opacity="0.996078431372549" d="M 89.5 37 L 88.5 39 L 89.5 37 Z " /><path fill="rgb(35,20,17)" stroke="rgb(35,20,17)" stroke-width="1" opacity="0.996078431372549" d="M 100.5 44 L 100 45.5 L 99.5 47 L 99 45.5 L 100.5 44 Z " /><path fill="rgb(35,20,17)" stroke="rgb(35,20,17)" stroke-width="1" opacity="0.996078431372549" d="M 69.5 52 L 68.5 54 L 69.5 52 Z " /><path fill="rgb(35,20,17)" stroke="rgb(35,20,17)" stroke-width="1" opacity="0.996078431372549" d="M 64.5 56 L 62.5 59 L 64.5 56 Z " /><path fill="rgb(35,20,17)" stroke="rgb(35,20,17)" stroke-width="1" opacity="0.996078431372549" d="M 139.5 59 L 137.5 62 L 139.5 59 Z " /><path fill="rgb(35,20,17)" stroke="rgb(35,20,17)" stroke-width="1" opacity="0.996078431372549" d="M 133.5 64 L 132.5 66 L 133.5 64 Z " /><path fill="rgb(35,20,17)" stroke="rgb(35,20,17)" stroke-width="1" opacity="0.996078431372549" d="M 129.5 67 L 128.5 69 L 129.5 67 Z " /><path fill="rgb(35,20,17)" stroke="rgb(35,20,17)" stroke-width="1" opacity="0.996078431372549" d="M 59.5 75 L 58.5 77 L 59.5 75 Z " /><path fill="rgb(35,20,17)" stroke="rgb(35,20,17)" stroke-width="1" opacity="0.996078431372549" d="M 113.5 79 L 115.5 82 L 113.5 79 Z " /><path fill="rgb(35,20,17)" stroke="rgb(35,20,17)" stroke-width="1" opacity="0.996078431372549" d="M 156.5 79 L 157 81.5 L 156 81.5 L 156.5 79 Z " /><path fill="rgb(35,20,17)" stroke="rgb(35,20,17)" stroke-width="1" opacity="0.996078431372549" d="M 117.5 82 L 118.5 84 L 117.5 82 Z " /><path fill="rgb(35,20,17)" stroke="rgb(35,20,17)" stroke-width="1" opacity="0.996078431372549" d="M 47.5 90 L 46.5 92 L 47.5 90 Z " /><path fill="rgb(35,20,17)" stroke="rgb(35,20,17)" stroke-width="1" opacity="0.996078431372549" d="M 41.5 95 L 38.5 99 L 41.5 95 Z " /><path fill="rgb(35,20,17)" stroke="rgb(35,20,17)" stroke-width="1" opacity="0.996078431372549" d="M 154.5 103 L 152.5 106 L 154.5 103 Z " /><path fill="rgb(35,20,17)" stroke="rgb(35,20,17)" stroke-width="1" opacity="0.996078431372549" d="M 166.5 107 L 169 107.5 L 166.5 108 L 166.5 107 Z " /><path fill="rgb(35,20,17)" stroke="rgb(35,20,17)" stroke-width="1" opacity="0.996078431372549" d="M 139.5 115 L 133.5 122 L 139.5 115 Z " /><path fill="rgb(35,20,17)" stroke="rgb(35,20,17)" stroke-width="1" opacity="0.996078431372549" d="M 136.5 125 L 135.5 127 L 136.5 125 Z " /><path fill="rgb(35,20,17)" stroke="rgb(35,20,17)" stroke-width="1" opacity="0.996078431372549" d="M 17 132 L 22 135.5 L 18 133.5 L 17.5 146 L 17 132 Z " /><path fill="rgb(35,20,17)" stroke="rgb(35,20,17)" stroke-width="1" opacity="0.996078431372549" d="M 184.5 132 L 186 132.5 L 181.5 136 L 184.5 132 Z " /><path fill="rgb(35,20,17)" stroke="rgb(35,20,17)" stroke-width="1" opacity="0.996078431372549" d="M 157.5 135 L 153.5 140 L 157.5 135 Z " /><path fill="rgb(35,20,17)" stroke="rgb(35,20,17)" stroke-width="1" opacity="0.996078431372549" d="M 186.5 136 L 187 138.5 L 186 138.5 L 186.5 136 Z " /><path fill="rgb(35,20,17)" stroke="rgb(35,20,17)" stroke-width="1" opacity="0.996078431372549" d="M 25.5 140 L 33.5 149 L 25.5 140 Z " /><path fill="rgb(35,20,17)" stroke="rgb(35,20,17)" stroke-width="1" opacity="0.996078431372549" d="M 187.5 143 L 188 146.5 L 187 146.5 L 187.5 143 Z " /><path fill="rgb(35,20,17)" stroke="rgb(35,20,17)" stroke-width="1" opacity="0.996078431372549" d="M 169.5 147 L 167.5 150 L 169.5 147 Z " /><path fill="rgb(35,20,17)" stroke="rgb(35,20,17)" stroke-width="1" opacity="0.996078431372549" d="M 164.5 151 L 163.5 153 L 164.5 151 Z " /><path fill="rgb(35,20,17)" stroke="rgb(35,20,17)" stroke-width="1" opacity="0.996078431372549" d="M 18.5 154 L 19 157.5 L 18 157.5 L 18.5 154 Z " /><path fill="rgb(35,20,17)" stroke="rgb(35,20,17)" stroke-width="1" opacity="0.996078431372549" d="M 125.5 158 Q 127.8 157.3 127 159.5 L 124 159.5 L 125.5 158 Z " /><path fill="rgb(35,20,17)" stroke="rgb(35,20,17)" stroke-width="1" opacity="0.996078431372549" d="M 160.5 158 L 161 161.5 L 160 161.5 L 160.5 158 Z " /><path fill="rgb(35,20,17)" stroke="rgb(35,20,17)" stroke-width="1" opacity="0.996078431372549" d="M 34.5 160 L 35 162.5 L 34 162.5 L 34.5 160 Z " /><path fill="rgb(35,20,17)" stroke="rgb(35,20,17)" stroke-width="1" opacity="0.996078431372549" d="M 38.5 160 L 42 164.5 L 38 161.5 L 38.5 160 Z " /><path fill="rgb(35,20,17)" stroke="rgb(35,20,17)" stroke-width="1" opacity="0.996078431372549" d="M 154.5 160 L 155 162.5 L 154 162.5 L 154.5 160 Z " /><path fill="rgb(35,20,17)" stroke="rgb(35,20,17)" stroke-width="1" opacity="0.996078431372549" d="M 19.5 162 L 20 164.5 L 19 164.5 L 19.5 162 Z " /><path fill="rgb(35,20,17)" stroke="rgb(35,20,17)" stroke-width="1" opacity="0.996078431372549" d="M 36.5 166 L 38.5 169 L 36.5 166 Z " /><path fill="rgb(35,20,17)" stroke="rgb(35,20,17)" stroke-width="1" opacity="0.996078431372549" d="M 113.5 168 L 112.5 170 L 113.5 168 Z " /><path fill="rgb(35,20,17)" stroke="rgb(35,20,17)" stroke-width="1" opacity="0.996078431372549" d="M 155.5 168 L 156 173.5 L 155 173.5 L 155.5 168 Z " /><path fill="rgb(35,20,17)" stroke="rgb(35,20,17)" stroke-width="1" opacity="0.996078431372549" d="M 104.5 169 L 101.5 173 L 101.5 170 Q 103 172.5 104.5 169 Z " /><path fill="rgb(35,20,17)" stroke="rgb(35,20,17)" stroke-width="1" opacity="0.996078431372549" d="M 128.5 169 L 127.5 171 L 128.5 169 Z " /><path fill="rgb(35,20,17)" stroke="rgb(35,20,17)" stroke-width="1" opacity="0.996078431372549" d="M 40.5 173 L 27.5 187 L 40.5 173 Z " /><path fill="rgb(35,20,17)" stroke="rgb(35,20,17)" stroke-width="1" opacity="0.996078431372549" d="M 118.5 173 L 117.5 175 L 118.5 173 Z " /><path fill="rgb(35,20,17)" stroke="rgb(35,20,17)" stroke-width="1" opacity="0.996078431372549" d="M 46.5 175 L 45.5 177 L 46.5 175 Z " /><path fill="rgb(35,20,17)" stroke="rgb(35,20,17)" stroke-width="1" opacity="0.996078431372549" d="M 82.5 175 L 84 177.5 L 82 176.5 L 82.5 175 Z " /><path fill="rgb(35,20,17)" stroke="rgb(35,20,17)" stroke-width="1" opacity="0.996078431372549" d="M 124.5 175 L 123.5 177 L 124.5 175 Z " /><path fill="rgb(35,20,17)" stroke="rgb(35,20,17)" stroke-width="1" opacity="0.996078431372549" d="M 187.5 175 L 188 177.5 L 187 177.5 L 187.5 175 Z " /><path fill="rgb(35,20,17)" stroke="rgb(35,20,17)" stroke-width="1" opacity="0.996078431372549" d="M 105.5 176 L 103.5 179 L 105.5 176 Z " /><path fill="rgb(35,20,17)" stroke="rgb(35,20,17)" stroke-width="1" opacity="0.996078431372549" d="M 122.5 178 L 121.5 180 L 122.5 178 Z " /><path fill="rgb(35,20,17)" stroke="rgb(35,20,17)" stroke-width="1" opacity="0.996078431372549" d="M 100.5 180 L 99.5 182 L 100.5 180 Z " /><path fill="rgb(35,20,17)" stroke="rgb(35,20,17)" stroke-width="1" opacity="0.996078431372549" d="M 113.5 180 L 112.5 182 L 113.5 180 Z " /><path fill="rgb(35,20,17)" stroke="rgb(35,20,17)" stroke-width="1" opacity="0.996078431372549" d="M 119.5 182 L 118.5 184 L 119.5 182 Z " /><path fill="rgb(35,20,17)" stroke="rgb(35,20,17)" stroke-width="1" opacity="0.996078431372549" d="M 155.5 182 L 156 185.5 L 155 185.5 L 155.5 182 Z " /><path fill="rgb(35,20,17)" stroke="rgb(35,20,17)" stroke-width="1" opacity="0.996078431372549" d="M 58.5 183 L 59 187.5 L 58 187.5 L 58.5 183 Z " /><path fill="rgb(35,20,17)" stroke="rgb(35,20,17)" stroke-width="1" opacity="0.996078431372549" d="M 64.5 183 L 65 185.5 L 64 185.5 L 64.5 183 Z " /><path fill="rgb(35,20,17)" stroke="rgb(35,20,17)" stroke-width="1" opacity="0.996078431372549" d="M 111.5 183 L 110.5 185 L 111.5 183 Z " /><path fill="rgb(35,20,17)" stroke="rgb(35,20,17)" stroke-width="1" opacity="0.996078431372549" d="M 89.5 184 L 92 184.5 L 89.5 185 L 89.5 184 Z " /><path fill="rgb(35,20,17)" stroke="rgb(35,20,17)" stroke-width="1" opacity="0.996078431372549" d="M 161 184 L 163 184.5 L 161 185.5 L 161 184 Z " /><path fill="rgb(35,20,17)" stroke="rgb(35,20,17)" stroke-width="1" opacity="0.996078431372549" d="M 169.5 184 L 170.5 186 L 169.5 184 Z " /><path fill="rgb(35,20,17)" stroke="rgb(35,20,17)" stroke-width="1" opacity="0.996078431372549" d="M 117.5 185 L 116.5 187 L 117.5 185 Z " /><path fill="rgb(35,20,17)" stroke="rgb(35,20,17)" stroke-width="1" opacity="0.996078431372549" d="M 109.5 186 L 108.5 188 L 109.5 186 Z " /><path fill="rgb(35,20,17)" stroke="rgb(35,20,17)" stroke-width="1" opacity="0.996078431372549" d="M 115.5 188 L 114.5 190 L 115.5 188 Z " /><path fill="rgb(35,20,17)" stroke="rgb(35,20,17)" stroke-width="1" opacity="0.996078431372549" d="M 31.5 191 L 30.5 193 L 31.5 191 Z " /><path fill="rgb(35,20,17)" stroke="rgb(35,20,17)" stroke-width="1" opacity="0.996078431372549" d="M 113.5 191 L 112.5 193 L 113.5 191 Z " /><path fill="rgb(35,20,17)" stroke="rgb(35,20,17)" stroke-width="1" opacity="0.996078431372549" d="M 110.5 196 L 109.5 198 L 110.5 196 Z " /><path fill="rgb(35,20,17)" stroke="rgb(35,20,17)" stroke-width="1" opacity="0.996078431372549" d="M 57.5 197 L 58 199.5 L 57 199.5 L 57.5 197 Z " /><path fill="rgb(35,20,17)" stroke="rgb(35,20,17)" stroke-width="1" opacity="0.996078431372549" d="M 63.5 197 L 64 199.5 L 63 199.5 L 63.5 197 Z " /><path fill="rgb(35,20,17)" stroke="rgb(35,20,17)" stroke-width="1" opacity="0.996078431372549" d="M 181.5 197 L 180.5 199 L 181.5 197 Z " /></svg>