<svg xmlns="http://www.w3.org/2000/svg" width="200" height="200"><path stroke="#000" d="m75.5 29 .5 2-3.5 2zm43 1q4.8-1.7 3.5 2.5l-2.5 5.5-.5-1.5 2-5.5q-3.3.8-2.5-1Zm-5 1 2.5.5-2.5.5zm-6 1 2.5.5L98.5 37l1-2zm-29 1 6 7zm18 4-1 2-2 1 1-2zm-51 4 7.5.5-7.5.5zm-3 1 1.5.5-4.5 2.5 1-2zm12 0q2.3-.7 1.5 1.5l2 3h-1zm93 1 1.5.5-2 .5-2.5 6-.5-1.5zm4 0 3.5 1.5-1.5-.5q-3 .5-2-1Zm-85 1 .5 1.5q-3 4.3-2 11.5l-2-.5zm-29 1-1 2-4 3 3-4zm119 0 2.5 1.5-1.5-.5zm4 2 4.5 3.5-2.5-1.5zm-102 1q.2 5.3 3.5 7.5l-1.5.5-1.5-1.5zm68 0 2.5.5-5.5 1.5v-1zm-11 1 1 3 5-2v1l-7 3-.5-1.5zm15 0 2.5 2.5 1 5-1 2.5 2 .5-3.5.5.5-1.5q1-7.8-1.5-9.5Zm-100 1L23 58.5 21.5 61l-.5-1.5zm113 1 .5 1.5-2.5 5.5-.5-1.5zm25 2 4 5zm-28 6 .5 1.5-2.5 1.5-2.5-1.5zm33 0 2 3zm-164 2 10 2 1.5-.5-1 2.5-6.5-3h-4l-1.5.5zm167 2 2.5 3.5-2-1zm-169 1 .5 5.5H7zm172 4 1.5 3.5h-1zm2 5 .5 11 8 1.5-2.5.5-6.5-1zm-172 3 1.5 3.5L8.5 83 8 81.5l2-3zm0 12 1.5 2.5-2-1zm182 0q3 1.5 1.5 7.5h-1q.5-6-.5-7.5Zm-180 4 6.5 7.5-3.5 7.5-.5-2.5q2.6-1.4 2-6-4.5-2.5-4.5-6.5Zm179 5-3 4zm-5 4 1.5 4.5h-1zm2 6 1.5 5.5h-1zm-174 1 1.5 7.5h-1zm176 6 .5 2.5h-1zM91 115q3.8-1 5 1.5l-5 .5zm99.5 3 2 3 1.5.5-1.5.5-2.5-1zm-178 4 1.5.5-3.5 1.5v-1zm182 1 3.5 7.5h-1zm-185 2-.5 1.5L.5 146l-.5-2.5z" opacity=".067"/><path stroke="#000" d="m74.5 31 3.5 1.5-1.5-.5q-4.5-.5-5 3zm42 0q5.4-1.9 4.5 1.5l-1.5-.5q-4 .8-3-1Zm-38 3 5 6zm21 2 1.5.5-4.5 2.5 1-2zm-5 3-1 2-2 1 1-2zm-7 2 2.5 1.5-1.5.5zm-43 1 2.5.5-4.5 1.5v-1zm7 0q5-.5 5.5 3.5l1 4h-1q-.2-4.7-3.5-6.5-3 .5-2-1Zm-11 2-1 2-6 4 2-3zm107 0 .5 1.5-3.5 6.5-.5-1.5zm8 1q10.7 4.8 17.5 13.5l3 4-5-4-4.5-5.5-10-6zm-89 1 .5 2.5h-1zm49 0 .5 2.5-1.5 3.5-.5-2.5zm11 3q4.8-.7 5.5 2.5l-2.5-1.5q-4 .8-3-1Zm-95 1L24 58.5 21.5 62l1.5-2.5zm34 0 .5 3.5h-1zm57 0 2.5.5-4.5 1.5v-1zm-64 1 1.5 4.5-2-1zm59 1 1.5.5-4.5 2.5-1-2h2zm-55 4 2.5 1.5-1.5.5zm69 0 .5 2.5h-1zm11 0 .5 1.5-2.5 4.5.5-1.5zm-12 4 5.5.5-5.5.5zm-121 2h4l6.5 3.5-1.5.5q-3-3.9-9.5-3-1.1 8.9 2 14.5h-1q-3-5-2-14zm168 4 1.5 2.5h-1zm2 4q2.6 2.4 1.5 8.5h-1zm1 13 .5 2 6 .5-5.5.5zm8 3 2.5 1.5 1 2zm-177 5 1 2zm180 2 .5 2.5-7 5.5-.5 2-.5-1.5 6-5zm-178 1 5.5 5.5-1 1-1.5 2.5.5-1.5 1-2zm2 10 .5 2.5-1.5 5.5-.5-4.5zm170 0 1.5 4.5h-1zm3 9 .5 2.5h-1zm-173 1 .5 2.5h-1zm74.5 0 4 .5-3 .5q-1.3 3.7 4.5 2v1q-4.5 1-5.5-1.5zm-73.5 4 .5 3.5q-.5 3-4.5 2.5v-1l3.5-1zm177 4 2.5 4.5-2-1zm-183 2 .5 1.5-2 1z" opacity=".808"/><path stroke="#000" d="M0 0h200v133.5h-1l-5-12.5-3-1.5-5-18.5 5-3.5V96l2-.5v-6l-3-4.5-8-1-1-13.5q-4.6-10.4-12.5-17.5l-15-10h-6l-8 17-6.5-1 1-2.5-1-5-2.5-2.5-4-1-10 4-.5-4.5 6-17.5-17.5 3-15 9Q82 39 78 32.5l-2-3-4 3-7 14-1 9.5-4-2.5L56 42q-3.4-1.7-10.5-1Q30.1 47.1 21 59.5L19.5 63l-10-2Q6 63 7 69.5l3 10q-3.2 1.3-2 7 2.3 7.7 8 12v3q-3.5 3.5-3 11l3 7-1 2.5-5 1-9.5 20z" opacity="0"/><path fill="#80e95e" stroke="#80e95e" d="m123.5 58-.5 1.5-5.5 9.5-2.5-7zM60 63q2.7-1.1 2 1.5l1 5h-1zm45.5 4q3.3-1.1 2.5 1.5l3 6-9.5 6.5-.5-1.5q5.1-1.9 4-10-2.2-1.2.5-2.5Zm23 4 .5 6h-2.5L112 85l1.5-3zm21 1 2.5.5-1 5-2.5 2.5q-2.2-.7-1.5 1.5l-7 12-2 7v5l-2.5 3.5q-5.8 1.7-4.5-2l4-2.5 3-6 5-18zm-12 1 .5 2.5h-1zm-115 5q2.8 1.3.5 2.5L22 85l-7 1 5.5-7zm12 2H42v6.5L40.5 88h-8L29 85.5l2.5-4.5zm129 4q2 3 8 2l2.5-1.5-1 6.5h-8.5l-1.5-1.5zm-90 2 1.5 5.5-3 2-1-6.5zm109 5 4.5 1q1.3 3-2.5 2l-5.5 2 1.5-4zm-71 10 3.5 2.5q1.7 4.8-2.5 3.5-1.3-2.2-6-1l-1.5-1.5zm-86 4 3.5 1.5-7 2.5 1.5-3zm138 3q6.2-.6 8.5 2v3h-6.5l-2.5-1-1-2.5zm25 44q4-.5 4.5 2.5.5 4-2.5 4.5-4 .5-4.5-2.5-.5-4 2.5-4.5Z"/><path fill="#55a538" stroke="#55a538" d="m50.5 48 1 2zm73 9v3l-2.5-1.5zm-90 1-2 3zm84 2-1 2zm3 5-1 2zm-57 2 .5 3.5h-1zm39 1 2.5 1.5v5L99.5 82l-10 2H81l-3-5.5 2.5-.5q1.8 2.7 8 1l9.5-3 1-6zm16 0-1 2z"/><path fill="#55a538" stroke="#55a538" d="m128.5 70 1.5.5v9L114.5 94q-7.2-1.2-9.5 2.5l1 5.5 2 .5-3 2 1.5 1.5 8.5 1q1-4.2-2-5.5l3 2q0 7.5-3.5 11.5h-9l-.5-1.5q-3.4-6.6-13.5-6.5-9.3 2.7-15 9h-10l-1 1-1.5-2.5 7-9v-4l-3-7v-4l4.5-3.5 2 7 1.5-.5-4 4v3q.8 2.3 4.5 1.5l6.5-6.5q-.7-3.7 1.5-4.5h10l11-3 8-4 2 1q6.3-6 15.5-8l-.5-6-2.5 1.5zm-94 3q6-1.5 7.5 1.5l1 6.5h7v-2.5l1-1-1.5-2.5q7.3-.6 10.5 2l1 3.5-6.5 5.5-7 2h-6l.5-1.5V80h-7.5l-4 2 .5-1.5-2-5zM71 73l3 1.5 1 3.5q-3.8 1.5-3-1.5zm80.5 0 .5 2.5h-1zm-5 2-1 2zm-38 1-1 2zm11 1-2 3zm31 1 .5 1.5q-2.9 4.6-2 13l1.5 1.5 13.5 3v7.5l2.5 2.5 4.5 2.5-1.5-.5-6-1q-2.7 1.3-.5 2.5-.7 2.3 1.5 1.5 1.5 2.5 7 1l1.5-.5-.5 8.5-5.5-1-3.5-6q-4.4-3.1-13-2l-21 5-3.5-1.5 4.5-8.5.5 2q4.6 1.3 6-1.5l2-11-1-2h1l.5 1.5 7.5-16z"/><path fill="#55a538" stroke="#55a538" d="M162.5 79q7.5 0 10.5 4.5l-1.5 2.5q-6 1-8-2l-.5 5.5.5 1.5-7.5-3q-1.2-4.6 1.5-6l5.5 2zm-144 1-2 3zm97 0-1 2zm-98 5q5.4-1.9 4.5 1.5L33.5 95l10 1 14-4v1L55 94.5l-1 3 3 12-3.5 6.5-11-5h-9l-3.5 2.5-1 5.5q-4.6 1.3-6-1.5l-2-10 3.5-2.5v1l-2.5 1.5q-.7 2.3 1.5 1.5l5.5-2.5-.5-1.5 5 1 2.5-3.5-3.5-3.5-8.5-1-8-11.5zm156 1 .5 2.5h-1zm-99 1 .5 3.5h-1z"/><path fill="#55a538" stroke="#55a538" d="m34.5 88 5.5.5-5.5.5zm133 3 5.5.5-5.5.5zm16 0 2.5.5-2.5.5zm-5 4 1 2q-2.8.7-1-2Zm-44 9-2 3zm53 48-1 2zm4 0 1 2zm-5 5 1 2zm6 0-1 2zm-117 17 5.5.5-5.5.5zm20 15 .5 2.5h-1z"/><path fill="#eec23b" stroke="#eec23b" d="m107.5 41 1.5 3.5q-2.9 3.6-2 11l-3.5 4.5-.5-2q-3.7 1.5-3-1.5l2-11 2.5-3.5zm-31 1 5 5q4.8.3 6.5 3.5L82.5 52 79 51l-4-7.5zm-27 6 2.5 2.5L55 68l-14-1v6h-6.5q-1.3 2.3-6 1L24 71.5 30 61l11.5-9zm116 86 16.5 1q2.6 3.6 2 10l-5.5-1H161l-1-9zm-94 41q15.8-2.7 20.5 5.5 4.3 4.2 3 14l-3 5.5H62.5l-3.5-2.5-1-9q2.3-6.7 7.5-10.5zm-1.5 4-2 1-3 4 3 3 4-1q3-1 2-6z"/><path fill="#4e472e" stroke="#4e472e" d="m110.5 39 .5 2.5h-1zm-9 4-2 3-3.5 1v3h5v6h-5v-6h-2.5l-5 1-2-3q.8 2.7 5 2z" opacity=".996"/><path fill="#4e472e" stroke="#4e472e" d="m73.5 47 .5 3h4v6h-5v1.5l-1 2 1 3.5 3.5 2L90 66q-2.3-6.4 5.5-4l2 1 4-3h2l3-2 1.5 8h-4q1.1 2.7-1.5 2L99 70l-1 6-9.5 3h-7l-3-1v2L75 78l-2.5-5-1.5-.5v-16zm34 3 .5 6.5h-1zm51 20 6.5 2.5-1 2 1 3-3 2 1 4.5-5.5-2-1.5.5 1-2v-2l2-7zm-9 1-2 3zm-12 1-1 2zm-80 1 1.5 3.5h-1zM42 74q7.2-1.5 9 3.5L50 81h-7v-2.5zm79.5 1-1 2zm17 0-1 2zm-108 3 .5 2.5h-1zm30 0 1 2zm19 3 1 2zm48 0-4 5zm-70 2-1 2zm-35 3 3 4zm18 2 2.5.5-2.5.5zm-22 3 5 6zm131 1 1 2zm-111 3 5.5.5-5.5.5zm68 0-1 2zm20 0-1 2zm45 3 3.5.5q-1.2 2.7-2.5.5zm-103 3 .5 4.5-3 2q3-1.5 2.5-6.5Zm58 1-1 2zm38 1 1.5 2.5-2-1zm-134 2 3.5.5-3.5.5zm146.5 0 2 .5-2 1zm-87.5 2 4.5.5-4.5.5zm90 0-1 2zm-158 2 .5 3.5h-1zm159 1-.5 1.5-.5 1.5-.5-1.5zm-30 2 8.5.5-8.5.5zm13 2 2 3zm-134 1 .5 3.5h-1zm74 0 5.5.5-5.5.5zm-39 1 4.5.5-4.5.5zm62 0 2.5.5-2.5.5zm-87 2 1 2zm129 2 3.5.5-3.5.5zm-90 3 7.5.5-7.5.5zm36 0 10.5.5-10.5.5zm28 1 4.5.5-4.5.5zm-94 1 3.5.5-3.5.5zm106 0 16 1 1 1h11l6.5 2.5q8.1 17.2 11 38.5-4.6 1.3-6-1.5l-2-8 1-5-4-1.5-1.5-3q-6.2 1.8-8-1h-22l-1.5-1.5q.9-7.9-2.5-11.5h-5l-5-3-20-1h-2l-10-3-7.5-.5 49.5-1.5zm6.5 9-2 2q3 1 1 7 10 4 25 2l-2-8-2-3zm-130.5-7 2.5.5-2.5.5zm-14 2 2.5.5-2.5.5zm32 0 2.5.5-8.5 3.5-5 4-3-1-2.5 1 1 2.5-3 2 .5-1.5-14 3-2.5 2.5-1 13-5 8 .5 1.5-2-1-4 1-1.5-2.5h2q5.2-19.8 18.5-31.5zm24 2 3.5.5-3.5.5zm14 1 16.5.5-.5 1.5 5-1 4.5 1q-1.1 2.7 1.5 2l2.5 1q-1.1 2.7 1.5 2v1h-7l-11-5-7-2h-6z" opacity=".996"/><path fill="#4e472e" stroke="#4e472e" d="m132.5 135 3.5 2.5-1.5-.5zm-97 2-1 2zm105 3 1 2zm3 2 8 9zm-117 2-5 6zm94 2q12.4.1 16.5 8.5 14.1 15.8 13 45.5h-7v-17.5q-1.9-10.1-7-17h2q.8-2.6-2.5-1.5zm27.5 42-1 6h1zM33.5 147l-1 2zm32 1 3.5.5-4 .5-.5 4-.5-3.5zm75 0 1 2zm-69 4 1 2zm14 0 .5 1.5-2 1zm68 0 1 2zm-135 1-1 2zm137 2 1 2zm-139 1-1 2zm67 0-1 2zm75 3 1 2zm-119 2 4.5 3.5-3.5-2.5q-2.2-.7-1.5 1.5l-2 1zm121 1 1.5 2.5h-1zm-45 1 3.5 1v2q2.7-1.1 2 1.5l-2.5 1.5v-1l1.5-.5-4.5-3.5-3.5 2.5zm55 2 2.5.5-2.5.5zm-133 1 1 2zm147 0 2.5.5-2.5.5zm-108 1 3.5.5-3.5.5zm-37 2 .5 2.5h-1zm6 0 .5 2.5h-1zm16 3-1 2zm-23 1-1 2zm57 0 1 2zm85 0 5.5.5-5.5.5zM1 175q4.6-1.2 6 1.5L5.5 184l-1-2q-3.6 3.4-4 10L0 179.5zm122.5 0q2.3-.7 1.5 1.5zm73.5 0q5.2-1.8 3 5.5h-1zm-107.5 2 2 3zm23 0 3 4zm13 2 .5 1.5-2 1zm-93 1 2.5.5-2.5.5zm-28 7 .5 2.5H4zm53 3 .5 4.5h-1zm106 0 .5 2.5h-1zm8 2 .5 3.5h-1zm-161 5 .5 2.5h-1z" opacity=".996"/><path fill="#1c2519" stroke="#1c2519" d="m75.5 41 4.5 3.5-3.5-2.5zm-27 6 3.5.5-3.5.5zm-9 5-2 3zm32 1 .5 2.5h-1zm88 0 1 2zm-125 3-1 2zm90 0 1 2zm40 1 2 3zm-133 2-5 6zm116 1v3q-2.2.8-1.5-1.5zm8 0 2.5 1.5-1.5-.5zm-42 2q3-.9 1.5 3.5l2 5-7.5 6.5 1.5-2.5-3-9.5zm45 1 .5 3.5h-1zm-88 1 .5 11.5h-1zm50 2-1 2zm9 3q2.3-.7 1.5 1.5zm28 0 1.5 4.5-2.5 5.5-.5-2.5zm-142 1-.5 1.5-.5 1.5-.5-1.5zm137 1 .5 2.5h-1zm-14 1 1.5 3.5h-1zm-112 1 3 4zm97 0-1 2zm23 1-1 2zm28 0 .5 3.5h-1zm-115 2 2 3zm59 1-1 2zm12 0 .5 2.5-3 2zm-59 1q6.3-1.2 7.5 2.5L76.5 79q-6 1.3-5-1Zm-10 2-4 5zm52 1-1 2zm37 0 .5 3.5h-1zm-71 1 1 2zm3 2 4.5.5-4.5.5zm26 0 1.5.5-5.5 2.5v-1zm47 0 .5 2.5h-1zm19 0 .5 3.5h-1zm-102 1 2.5.5-2.5.5zm50 1-8 9-5.5-.5 5.5-.5zm10 0 1.5.5-2.5 3.5-2.5-.5zm-64 1 1.5.5-3.5 2.5zm81 0 .5 4.5h-1zm-106 1 4.5.5-4.5.5zm-9 1 3.5.5-3.5.5zm51 1 5.5.5-5.5.5zm-27 1 .5 7.5-3 1.5-.5 2-1.5-5.5 2.5-3.5q2.5.7 2-2Zm7 0 .5 2.5h-1zm121 0 1.5 2.5-2 1 1-2zm-17 1 2.5.5-2.5.5zm-150 1 4 5zm132 0 2.5.5-2.5.5zm27 0 .5 1.5-1 2 .5 1.5-4 2 2.5-3.5zm-133 1 3.5.5-3.5.5zm28 0-3 4zm82 0 2.5.5-2.5.5zm-28 1 2.5.5-2.5.5zm-48 1-1 2zm84 0 7 2 2-1v1q-3-.8-1.5 3h-2v3.5l2 4-1.5-.5-3.5-1-2-4.5zm-138 2 2.5.5-2.5.5zm51 1-1 2zm-43 1 1 2zm37 0 3.5 1.5-2.5.5zm44 1 1 2zm8 1 1.5 5.5-2 1zm4 1-2 3zm-102 1 3.5.5-3.5.5zm109 0-2 3zm-111 1-1 2zm45 0-1 2zm-2 3-1 2zm-8 1-.5 1.5-2.5 4.5.5-1.5zm40 0 2.5 1.5-1.5-.5zm18 0 .5 1.5-1.5 2.5-.5-1.5zm-33 1-1 2zm46 0-.5 1.5-1.5 2.5.5-1.5zm-89 1 2.5.5-2.5.5zm-8 1-.5 1.5-.5 1.5-.5-1.5zm48 0-3 4zm66 1 3.5.5-3.5.5zm34 0 .5 7 2 .5-1.5.5q-3.4-1.9-1-8Zm-66 1-1 2-3.5-.5zm27 0 2.5.5-2.5.5zm33 0 .5 6.5-3.5 1.5v-1h2.5zm-104 2 5.5.5-5.5.5zm64 0 2.5.5-2.5.5zm31 0 1 2zM36 117q3.8-1 5 1.5l-1.5-.5q-3.3-1.1-2.5 1.5h-1zm147.5 1 .5 2.5h-1zm-159 1 5.5.5-5.5.5zm142 0 1 2zm-93 4 4.5.5-4.5.5zm52 0 5.5.5-5.5.5zm22 1 6.5.5-6.5.5zm-102 1 2.5.5-2.5.5zm116 0 5.5.5-5.5.5zm10 1 4.5.5-4.5.5zm-144 1 2.5.5-2.5.5zm156 0 3.5.5-3.5.5zm-74 1 2.5.5-2.5.5zm-94 1-1 2zm54 2 2.5.5-2.5.5zm7 0 2.5.5-2.5.5zm-34 2 1.5.5-2.5 1.5zm-3 2-1 2zm-3 2-1 2zm-3 2-1 2zm106 1 1 2zm-110 2-3 4zm113 0 2 3zm-107 3-1 2zm103 1 1 2zm-114 1-5 6zm40.5 2h5v1.5l2.5 3.5q6.3 1.3 7.5-2.5l.5-1.5H86l-4.5 8-8 2-7.5-4.5zm-35.5 1-1 2zm114 0 6 7zm8 1 3 4zm-133 3-1 2zm5 3-1 2zm133 0 1 2zm42 0 .5 2.5h-1zm-183 1-1 2zm23.5 4 5 3.5 1 8-3.5 5.5-6 2-3.5-1.5 2-4.5q3.8 1 5-1.5l1-4-3-4zm76.5 2 4.5 3.5-2 .5-1 5.5 1 2.5q5.4-1.5 7 1.5.8 3.8-1.5 4.5h-5l-6.5-5.5-1-6zm21 0q2.3-.7 1.5 1.5zm18 0 1.5 2.5h-1zm8 1 7.5.5-7.5.5zm14 1 7.5.5-7.5.5zm15 1 3.5.5-3.5.5zm-109 1 2.5.5-2.5.5zm82.5 4 10 .5-8.5.5-1 1zm21.5 1 2.5.5-2.5.5zm-182 1q5.3-1.7 3.5 3.5H7q1.3-3.7-2.5-2.5zm55 0-3 4zm135 0 2.5.5-2.5.5zm-189 10 .5 2.5H5zm46 4 .5 2.5h-1zm96 0 .5 5.5h-1zm-143 2 .5 9.5H4zm6 0 .5 2.5h-1zm41 3 .5 3.5h-1zm113 0 .5 5.5h-1zm7 3 .5 3.5h-1z" opacity=".996"/><path stroke="#000" d="M74.5 32H77v6l-7-.5zm38 0h7l.5 2.5-1 3.5h-5v-5h-1.5zm-17 7 .5 5h-6v-2zm-48 3 3.5.5-3.5.5zm-6 2 .5 6h-5.5l-.5-1.5zm13 0 3.5 7.5h-1q.7-3-3-1.5zm105 4 1 2zm-127 2L30 53.5q1.3 3.8-2.5 2.5zm98 1q2.5 1.2 1.5 5l-2-.5v-2zM112 52l2 .5-.5 2.5q-3 .7-1.5-3Zm-46.5 2 .5 8h-6v-6l5 2zm74 8 2.5.5-2.5.5zm-130 1 2.5.5-2.5.5zM9 68h3v6q-2.7 1.1-2-1.5zm171.5 11 .5 3.5h-1zm-171 7q4.6-1.3 2.5 4.5h-1zm3.5 6q7.5-2.7 5 5.5l-5-4zm6.5 7 .5 2-2-.5zm-2 3 .5 2-2-.5zM88 114q3-1 2 2-3 1-2-2Zm-72 2q4-1.4 2 5.5l-3 2q2.7-.7 2-5zm80 0q3-1 2 2-3 1-2-2Zm52.5 2 2.5.5-2.5.5zm5 0q5.3-1.2 6.5 1.5l-4.5.5zm32.5 4h6.5l.5 1.5-1 4.5-6-1z" opacity=".996"/><path stroke="#000" d="m77.5 33 4.5 7h2.5l6 4H96q-1.2-4.6 1.5-6l12-5h4.5v5q5.2-2.1 4 2.5l-2 2-2 9.5q-3.3-1.1-2 3h3.5l10-5h4.5l1 4.5v2l-1 4.5q6.9-.7 11.5 2l.5-2.5 2-8q3.7-3.1 4-8.5l6.5 1 13.5 9v2q2.7-1.1 2 1.5 11.8 7.9 10 28.5h7.5l2.5 2.5q-.7 2.6 2 1.5v2.5l-5.5 7.5-2.5 1.5 6 20.5q-6.4-2.1-4 5h-9.5l-10-2-35-1-1-1h-57l-1 1h-11l-1 1h-15l-9 2h-2l-19 2-1.5 1.5Q4.3 146.3.5 168L0 147.5 11 124q5.5 1.3 7-2.5v-5q-3 1-2-4l-1-3 1-5.5h2v-3q3 1 2-2l-2-.5V92h-6v-6q-4.9 1.6-3-4 4 1.4 2-5.5L10 74h2v-6q-4.9 1.6-3-4l3.5-1 7.5 3q-1-3 2-2v-2.5l4.5-5.5q4.8 1.7 3.5-2.5l6-5 .5 1.5H42v-5.5l1.5-.5 1-1H54v7q3.8-1.5 3 1.5l1 4.5 2 .5v9l3.5 6.5.5-5.5-2-4.5 4-.5v-12L70 38h7zm32.5 6q-12 4-19 11-4 1-3-2l-6-2-7-5-4 13v10l-1 1v11l1 1v2h6l2 4 4 2 19-3 12-8q7-5 11-15 2-2 0-3l-17 9-1-3 2-16 3-6zm-61 8-14 9q-10 5-12 17h3l4 5-2 8 7 4 13-1 6-2 8-6-7-15v-6l-3-10q1-5-3-3Zm102 3-5 13 8-3 4 3-2 21-1 1 1 4 14 4 4-1 1-4V75l-8-15q-6-8-16-10Zm-21 19-19 15-17 6q-8-1-13 1 0 7-6 10-4 1-5-1l5-7v-8l-6 2-4 5 3 9v4q-5 3-6 11v1h13q5-7 15-9h4l7 3 1 4 2 1h9q5-3 3-13-2-4-8-2-3-1-2-5 2-2 9-1l16-15-1-3q-1-5 1-6 1-3-1-2ZM16 70l-2 2 2 3 2-4zm134 1-5 5-8 19v3q-3 8-10 14l-2 5h11l14-4q9-1 14 2l2 5 5 2 3-1-1-10q-5-3-4-10h4q5-5 14-6l1-2q-2-3-7-2l-5 7-3-1-2 1-21-5v-7l3-12q1-5-3-3Zm-14 1-1 3 1 2 3-1q2 1 1-2zM24 77q-7 1-9 7v4l4 6 5 4 9 2 2 3-1 2q-5 1-6-1l-5 1-3 5 2 8q2 4 8 2l1-6 6-3 7 1 10 5 4-7q1-5-2-6-2-5 2-4l1-1v-8l-14 4q-16 1-22-8l1-4zm109 9-4 4h3l2-3zm-6 9-5 8 1 6 7-11q1-5-3-3Zm50 10 2 6v9q1 2 5 1l-4-14zm-89 9 2 4h8v-2q-3-3-10-2Zm-52 3q-2 4 2 3h2q2 1 1-1-1-3-5-2Zm113 1v1h2zm5 0 2 2h4q-1-3-6-2Zm38 6q2.7-1.1 2 1.5l6 13v23h-1l-2-11-8-22.5-2-.5 1.5-.5 3.5 1z"/><path stroke="#000" d="m80.5 125 28 3 18 5q14.5 6.5 24.5 17.5l11.5 15.5 28 1 9.5 2v6h-2.5l-9-2-23.5-1 5 15.5 1 12.5h-6v-6.5q-2.7-15.8-9-28L143.5 150l-20-13-14-4-13-1-1-1-1 1h-15l-1-1h-9l-11 2-8 3q-12.9 6.1-22.5 15.5l-10 13-5 12-3 14v9.5H5v-12.5L8 174l-8 1v-5.5l1.5-.5q1.8-2.7 8-1l2.5-2.5 4-8 9-11.5 15.5-11 15-7 10-2h14z"/><path stroke="#000" d="M73.5 168q15.5-1 22.5 6.5l5 10 1 9-3.5 6.5q-6.1 1.3-5.5-1.5 4.5-2.5 3-11-1.8-7.7-7.5-11.5-5.4-3.6-16-2-9.1 2.4-13.5 9.5-3 4-2 12l3 4-6.5.5-1.5-1.5-1-7 4-12 6.5-6.5z"/><path fill="#888c92" stroke="#888c92" d="m152.5 55 9.5 8.5 5.5 9.5 5 1 1.5-.5-1 2q2.7 1.8 1 8h-1q1.1-3.3-1.5-2.5l-4.5-2.5q1.3-6.2-2.5-7.5l-5.5-1 1-5.5-4.5-5.5-7.5 2 1.5-5q1.5 2.5 3-1Zm11 2 1 2zm-70 66 2.5.5-2.5.5zm-26 1 4.5.5-3.5 1.5zm63 0q8-1 12.5 1.5l-7.5.5-5-1zm-76 1 4.5.5-4.5.5zm-10 1 2.5.5-2.5.5zm-7 1 1.5.5-2 1 3 1-18.5 3.5-6.5 6.5Q7.4 148.9 3.5 162l-.5-2.5 6-17 7.5-12.5 11-1 1-1h8zm43 5 2.5.5-2.5.5zm34 3q2.3-.7 1.5 1.5zm4 1v3q-3-1.5 0-3Zm-44 2q5.8.3 8.5 3.5l-1 2.5-9.5 2-1.5-3-3.5-1-1.5.5 4.5-3.5zm49 3 2 3zm-87 4-1 2zm41 1q2.8-.6 1.5 5.5-1.2 2.8-6.5 1.5-2.7-1.4-1.5-6zm60 0 1 2-7.5-.5zm-31 1-1.5 2.5-1.5 2.5.5-1.5zm7 0-.5 1.5-1.5 2.5.5-1.5z"/><path fill="#888c92" stroke="#888c92" d="M61.5 149q4.6-1.3 2.5 4.5l4.5 5.5 8 2 6.5-2 4.5-8 10 1 2.5 2.5-1 2 2-1 1.5-2.5-.5 1.5L91.5 170l-9-3h-9Q63 169 57 175.5q-6 5.4-6 15.5l-23-.5 2-.5 1.5-10q.8 2.8 5 2 5.8-1.2 8.5-5.5l1-9-3.5-5.5-9.5-1.5 7.5-.5 17.5-6q-2.1-5.2 2.5-4zm61 0 6 7zm-93 2-3 4zm80 3-.5 1.5-1 2 5.5 4.5 3.5.5-5 3q-2.7 2.3-2 8l4.5 7.5q2.7 2.8 9 2l6-5-2.5 3.5v9l4 9.5-31-.5q3.8-3.2 3-11l-6-14z"/><path fill="#888c92" stroke="#888c92" d="m31.5 161-.5 1.5q1 5.5-2.5 6.5-2.2-.7-1.5 1.5l-1.5 2.5-.5-5.5 4.5-5.5zm90 1q6.4.7 8.5 5.5l1 3-1.5-.5-6.5-2.5zm-2 7 2.5 1.5 1.5 2.5 1.5-.5q-.7 3.3-5.5 2.5-2.2-.7-1.5-4.5zm-88 3 1 2zm7 0-1 2zm-13 2 1.5 2.5-2-1zm105 0 .5 2.5h-1zm12 10 .5 2.5h-1zm-131 6 12.5.5-12.5.5zm0 6 6.5.5-6.5.5zm131 0 .5 3.5h-1zM24 197l28 1-.5 2H24z"/><path fill="#b0b2b6" stroke="#b0b2b6" d="m157.5 53 1 2zm-7 1q3 1.5 0 3zm4 1 7 8zm6 0 7 8zm2 9 1 2zm3 5 2 3 3.5 1.5-1.5.5-4.5-3.5zm-93 55 3.5.5-3.5.5zm37 0h20l5.5 1.5-38.5.5v-1h12zm-50 1 1.5.5-1.5 1.5-10 1q-1.5-2.5-3 1l-9.5-.5 2.5-1.5 19-1zm33 0 2.5.5-2.5.5zm-23 7 2.5.5-2.5.5zm8 0 2.5.5-2.5.5zm39 4q12.8 2.7 20.5 10.5l-7.5.5q-4.9-6.6-13-10zm-45 2 2.5.5-2.5.5zm5 0 2.5.5-2.5.5zm-15 1 5.5 2.5-3 7.5-6 1v4h-1.5l-5 3q-7.5-.5-11 3h-7l-3 2 9-10 13-7 5-1 2.5-2.5zm8 0-1 2zm13 1 3 2 9.5 1 1.5 4 7.5 2-4.5 8-.5-1.5q2.8-1.7-1.5-3.5L87 151l-2-9zm26 0 1 2zm0 3-1 2zm-31 2-1 2-4.5-.5zm38 0 1.5.5-2.5 1.5zm-9 1-1 2zm13 1 1 2zm-9 6q5.8 1.3 8.5 5.5 1.8 6.1-5.5 3.5l-5.5-4.5zm-86 4-1 2zm105 0 2 3zm-101 5-2 3zm98 1 3 4zm-102 6q-.9 8.9 5 11 2.8-.6 1.5 5.5l-1.5 4.5-9.5-5.5 4-9zm14 0 .5 2.5h-1zm83 0 2.5 1.5-.5 2.5zm-90 1 2.5 3.5-3-2zm98.5 7 5 1q1.5 7.2-3.5 9l-2.5 1.5 7 4 1 7.5h-6v-2.5q-5.6-4.4-4-16zm12.5 10 .5 8.5h-1zm-118 3 3.5.5-3.5.5zm-7.5 7h7v3h-7z"/><path fill="#dcdbe3" stroke="#dcdbe3" d="M152.5 51q9.7 4.3 15.5 12.5l5 10.5-7-3.5q-3.5-10-11.5-15.5-4.4 1.5-3.5-1.5zm-76 73 32.5.5-12.5.5-1 1-1-1h-18zm-15 1 4.5.5-4.5.5zm11 7 18 2 13 4 5.5 3.5-4 7.5-6.5-1-3.5-2.5q1.3-4.2-3.5-2.5-1.2-2.2-6-1l-7-4h-7l-6 3-4-2-4 5-5 1-10 5L26 164.5q-2.9 3.6-2 11l-4 9 9 5-17 .5q3.3-28 21.5-42l20-12z"/><path fill="#dcdbe3" stroke="#dcdbe3" d="m73.5 145 3.5.5-3.5.5zm42 1q8.8 3.3 13.5 10.5 14.8 13.9 13 43.5-7.5 2.8-5-5.5l-2.5-3.5-5.5-2.5 6-5q1.3-6.1-1.5-5.5l-2.5-1q2-10.7-4.5-14l-7.5-2q.8-4.7-3.5-6l-4.5-1zm-81 21 3.5 1v5h-1.5l-2 1q-3-.5-2.5-4.5zm35 12 4.5 1q1 4.7-2.5 6l-4 1-2.5-3.5 2.5-3.5zM11 197h6v3h-6z"/><path fill="#6f5759" stroke="#6f5759" d="m109.5 40 .5 2.5-2 1zm-7 3 .5 1.5-1 5.5h-6v6h4q-1.1 3.3 3 2v2.5l-1.5-.5-5 3-6.5-1v4h-8.5L73 63l-1-4.5 1-2.5h5v-6q-5.6 2.2-4-3.5l1.5-2.5 3.5 7 4.5 1L96 50q-1.5-3.8 1.5-3zm-67 13-1 2zm71 0 .5 1.5-3 2zm46 3 3.5.5-3.5.5zm13 0 1 2zm-137 4-1 2zM41 67l13.5 1 1.5-.5q-.6 6.2 2 8.5-3.4.8-4.5-2l-5 1-1-1H41zm117.5 1 .5 2 3 .5-2.5.5zm6 3 2.5 2.5q-1.3 4.8 1 6l-1.5.5-2.5-1.5 1-3v-2zm-137 2 2.5 1.5-1.5.5zm142 7 3.5 1-.5 2zm5 0 .5 2.5h-1zm-48 16q3.3-1.1 2.5 1.5l-5.5 8.5-.5-4.5zm52 10 4.5 14h-3v-8.5zm-141 12 2.5 1.5-1.5.5zm49 5 6.5.5-6.5.5zm10 0 17.5.5-17.5.5zm-32 1 2.5.5-2.5.5zm75 0 2.5.5-2.5.5zm-68 1 6.5.5-6.5.5zm72 0 10.5.5-10.5.5zm-102 1 2.5.5-2.5.5zm57 0 33.5.5-33.5.5zm-65 1 3.5.5-3.5.5zm-8 1 2.5.5-2.5.5zm24 0 3.5.5-3.5.5zm-9 1 7.5.5-13.5 1.5v-1q4.8 1.3 6-1Zm-25 1-1 2zm13 1 4.5.5-8.5 1.5v-1zm95 0 20 1 5 3q5.3-1.2 6.5 1.5l1 10 1.5 1.5h22q1.8 2.8 8 1l1.5 1.5q.8 2.3-1.5 1.5-2.5 1-1.5 5.5 1.4 2.8 6 1.5l2 8-32-2-8.5-13q-2.2.8-1.5-1.5l-8.5-8.5-9-6-11-4zm-40 1 2.5.5-2.5.5zm-62 1 1.5.5-7 6-2.5 3.5 1.5-2.5zm69 0 2.5.5-2.5.5zm12 0 3.5.5-3.5.5zm58 1 4.5.5-5.5 1.5zm11 0 9.5.5-9.5.5zm-74 1 4.5 1.5-1.5.5-3-1zm15 0 2.5 1.5-1.5-.5zm-78 1 2.5.5-16 13L9.5 167q-2.2.8-1.5-1.5l5-7q-1.6-11.1 3.5-15.5l14-3 1.5-1.5q-.7-2.2 1.5-1.5zm82 1 15 11h8l10.5 9.5 8 14 4 11 2 17.5h-14v-14.5q-2.3-13.7-8-24L130.5 148q-3-3-10-2l1 3-6-4-3.5 3.5L98 174l-7-3.5 16-23 3-7.5-2-.5 1.5-.5q1.7 2.8 8 1v-1q-2.8.7-1-2Z"/><path fill="#6f5759" stroke="#6f5759" d="m160.5 140 .5 2.5h-1zm-93 2 3.5 1 1 3.5-1 2.5-5.5-1-1.5.5zm14.5 0 3 1.5 2 8h-1q1.1-3.3-1.5-2.5l-5 2-1.5-5.5 4-1.5zm102.5 0 .5 2.5h-1zm-172 2-1 2zm156 0 10.5.5-10.5.5zm-137 5-1 2zm-23 2-.5 1.5-1.5 3.5-.5-1.5zm65 2 3.5.5-3.5.5zm12 1-1 2zm-60 1-1 2zm40 0 3 4zm64 1 2 3zm-126 2 1.5 2.5H4zm78 0 1.5.5-3.5 1.5v-1zm-8 2 3.5.5-3.5.5zm-41 1 6.5.5q-3 1.3-2 5.5h-5v1.5l-1 4 3 2-2 5.5-5-2.5-2-4 2-4.5 4-2.5q-1-4.5 1.5-5.5ZM2 162l2 .5-1.5 3.5zm40.5 0 1 2zm74.5 0q3.8-1 5 1.5l2.5 5.5q5.1-.6 6.5 2.5.1 8.1-5.5 10.5l.5-1.5-1-5.5-5.5 1-1-2 4 1q4.3-1.7 1.5-3.5l-1.5-2.5-2.5-.5 1-2.5h-2zm-2.5 1-2 3zm-41 4 2.5.5-2.5.5zm7 0 2.5.5-2.5.5zm30 2 .5 4.5h-1z"/><path fill="#6f5759" stroke="#6f5759" d="m118.5 169-.5 1.5-.5 2.5-.5-2.5zm48 4h13l1 1h11l5.5 1 3 6.5V200h-27.5l-.5-.5v-7zm-108 1-1 2zm-58 1 .5 3.5H0zm44 1-3 4zm53 0 1 2zm-33 2-3 4zm49 1 1 2zm-80 2 3.5.5-3.5.5zm-29 1 .5 4.5-1 1V200H0v-7.5zm114 0 5.5.5-5.5.5zm-16 6 .5 5.5h-1zM11 191h39.5l.5.5v6.5l-32.5-1-1-1H11z"/></svg>