<svg xmlns="http://www.w3.org/2000/svg" width="200" height="200"><path stroke="#000" d="M0 0h126.5q1 0 .5 4.5L117.5 15l-8 3-5.5-3.5-1-5 1-2-1.5-1.5h-8Q85.8 8.8 81 15.5q-.9 6.6-5.5 9.5l-5 2-6.5-3.5-1.5-3.5L50 30.5l-9 15-1 11 3 9v6L39.5 76l-4 1-10-4-2.5 4.5v11l4 7v6q-1.5 6-10.5 4.5l-6.5-4.5q1.5-4.4-1.5-3.5L1 106.5.5 109zm134.5 0H200v112.5l-4-3q-3.3-3.7-2-12 2.5-1.5 1-7l-4.5-9.5-4 2-9 1-8.5-5.5-2-10 2-7-1-3v-12L164 36l-10.5 1-1.5-1.5v-6l-3-12L141 4l-6.5-3z" opacity="0"/><path stroke="#000" d="M99.5 34h16l11 2q12 3 18.5 11.5l4 10V74q7.3-.1 10 5.5 3.8 4.7 2 15l-2 6 28.5 20.5 4 1 1-1h7.5q2.8 7.5-5.5 5-1.7 2.7-8 1l-29-21h-3q-2.2 4-7.5 4l-2 13.5-3.5 5.5-18 10-15 4-10 2h-22l-17-4-8.5-7.5-1-5 1-1v-22l-2.5 1.5-23 18-6 3-1-1h-13L0 128v-6h8.5q1.3-2.2 6-1 1.3 2.3 6 1L51 97.5l-1-37 1-5 4.5-6.5 18-9 13-4 12-1zm3.5 5-1 1-17 2q-15 4-25 11l-4 6v72l7 5 19 4q31 0 51-12l6-7 3-14 9-4 3-4 2-7-1-8-5-5h-4l-5 2-2-3 5-4q2-15-3-22-5-9-16-11l-11-1-1-1z"/><path fill="#241a11" stroke="#241a11" d="m96.5 34 2.5.5-2.5.5zm20 0 2.5.5-2.5.5zm-14 5 10.5.5-10.5.5zm39 4 2 3zm-79 8-1 2zm-3 2-1 2zm84 7 .5 13.5-2 1 1-1zm6 1 .5 9.5h-1zm-9 14-1 2zm16 1 1 2zm-18 2 1.5 2.5-2-1zm7 1 4.5.5-4.5.5zm-95 3 .5 13.5h-1zm103 0 1.5 2.5h-1zm2 4 .5 5.5h-1zm6 1 .5 4.5h-1zm-105 10 .5 21.5h-1zm97 0 .5 1.5-2 1zm-105 2-1 2zm111 0 2.5 3.5-3-2zm-8 2-1 2zm-107 1-1 2zm119 1 1 2zm-19 1 2.5.5-2.5.5zm-2 1-.5 1.5-.5 1.5-.5-1.5zm-103 1-1 2zm115 0-1 2zm-107 1-1 2zm113 1 1 2zm10 0 1 2zm-135 1-1 2zm8 1-2 3zm97 0 .5 2.5h-1zm23 0 1 2zm-113 2 .5 15.5h-1zm-20 1-1 2zm8 1-1 2zm132 1 1 2zm10 0 1 2zm-154 1-1 2zm7 2-1 2zm-12 2-1 2zm156 0 1 2zm19 0 3.5.5-3.5.5zm-190 1 2.5.5-2.5.5zm9 0 2.5.5-2.5.5zm14 0-1 2zm160 0 2.5.5-2.5.5zm-52 1-1 2zm47 3 1 2zm-162 1-1 2zm111 0-1 2zm-117 1 2.5.5-2.5.5zm34 2 .5 2.5h-1zm90 0-1 2zm-84 1 1 2zm3 3 1 2zm56 1 2.5.5-2.5.5zm-63 1 3 4zm55 1 2.5.5-2.5.5zm-37 1 2.5.5-2.5.5zm32 0 2.5.5-2.5.5zm-27 1 2.5.5-2.5.5zm21 0 3.5.5-3.5.5zm-15 1 11.5.5-11.5.5zm32 2 2.5.5-2.5.5zm-49 1 2.5.5-2.5.5zm45 0 2.5.5-2.5.5zm-41 1 2.5.5-2.5.5zm36 0 3.5.5-3.5.5zm-31 1 2.5.5-2.5.5zm26 0 3.5.5-3.5.5zm-21 1 18.5.5-18.5.5z"/><path fill="#faad0e" stroke="#faad0e" d="M127 0q2.7-1.1 2 1.5-2.5 9.1-9.5 13.5l-8 4h-4l-4.5-3.5-1-8.5q-14.4-.1-20 9.5-.9 6.6-5.5 9.5-2.3 2.7-8 2L64 26l-1-4q-7.6 2.4-12 9.5l-8 13-2 11 4 14-3 6.5q-2.3 2.6-8.5 2l-7-4q-3.3 3.2-2.5 10.5l2 8 2 2v7l-3.5 4.5q-3.2 2.3-10 1l-4.5-3.5L8.5 99l-7 9-.5-1.5L8.5 98q3-.9 1.5 3.5 2.9 5.6 12.5 4.5 6-1.5 4.5-10.5l-4-7v-9l1-3 1.5-3.5 11 4 5.5-3.5 1-8-2-4-1-10q2.3-1.3 1-6l5-10L57.5 23l5-3 3 5 5 2 6.5-3.5 4-8 5.5-5.5q4.7-5.3 16-4l1.5 2.5-1 4 3.5 4.5 4 1q10.4-3.1 15.5-11.5zm4.5 0 9.5 4 8 13.5 3 12v6l1.5 1.5 10.5-1 1 2.5-2.5-1.5-9 1-2.5-1q-2.3-3.6-1-12.5l-2-7q-4-9-11.5-14.5l-5-2zm34 40 2.5 6.5v8l1 1-1 3 1 4-2 8q2.3 1.3 1 6l2.5 3.5q3 4 10 4l10-3q5.2 4.8 4.5 15.5l-1 1v8l6 9-5-4-3-8 1-1v-15l-2.5-3.5-8 2h-7l-6.5-4.5q-4.5-4.5-3-15l1-1v-15z" opacity=".388"/><path fill="#f8aa11" stroke="#f8aa11" d="M129 0q9.9 2.3 15 10.5l5 10 1 14 1 2.5q2.4 1.8 8.5 1l3-1 3.5 5.5 1 22-1 1v9l4.5 7.5q3.2 4.3 12 3l8-2 2.5 3.5v15l-1 2 1 4 7 8v3.5l-5.5 1q-7.4-2.6-11.5-8.5l-1-7-2.5-3.5-4 3h-3l-4.5-2-1-6.5-1.5-1.5q-4.8 1.7-3.5-2.5l1-4-2-7-6-7v-7l3-10v-6l-1-2.5-5.5 1q-7.4-2.6-11.5-8.5l-1-2v-12l-4.5-7.5q-3.7-1.2-2.5 2.5l-6.5 7.5q-4.3 3.2-12 3l-20-6q-10 4-16 12l-5 2h-8L60 38q1.1-2.7-1.5-2-4.2 2.8-2.5 11.5-5.3 3.7-7 11v29L45.5 91l-3 1-2-1-1.5 1.5-1 9-7.5 9.5q-5.4 4.6-15 5l-3.5-1-1 5-11 1 1-12.5L8.5 99l4 7q3.2 2.3 10 1l4.5-3.5 1-9-3-5-1-10 2.5-5.5q3.2 4.3 11 4l4.5-2 3-8.5q-3.6-5.4-4-14Q44.7 33.7 58.5 24l4.5-2 1 4q2.3 2.6 8.5 2l6.5-4.5 3-7 6.5-6.5 9-3h4.5q-1.5 8.2 3.5 11l6 1q9.3-3.2 14.5-10.5z" opacity=".996"/><path fill="#ad8550" stroke="#ad8550" d="m115.5 33 2.5.5-2.5.5zm6.5 19h6.5l8.5 2.5-7 8 7 7-4.5 4.5-2.5 1.5 5 4-8 13 2 5-4 5v7l2 11-2-1-7-16 8-9 1-12-2.5-4.5-3.5-.5 5-6-7-3zm-50.5 9-1 2-1.5-.5zm79 3 .5 4.5h-1zm-87 7 .5 2.5h-1zm-4 9 2.5.5-2.5.5zm-2 2 .5 4.5h-1zm-8 1 .5 7.5h-1zm27 9 1 2zm-28 6-1 2zm28 0-1 2zm84 2 1 2zm-116 1-1 2zm-5 4-1 2zm128 0 1 2zm-110 2 .5 9.5h-1zm-22 1-1 2zm-5 4-1 2zm12 0-1 2zm135 0 1 2zm-30 2 1.5 1.5 3 12 3.5 4.5 1.5.5-7 7v2l3 7.5-16.5 5-1.5-1.5q0-9.5-3-16l13-10zm-121 1-2 3zm-5 4-1 2zm-10 1 5.5.5-5.5.5zm178 0 2.5.5-2.5.5zm-161 3-1 2zm-2 19 1 2zm13 9 1 2zm3 2 1 2zm3 0 1.5 3.5-2-1zm154 5-1 2zm-180 2 .5 2-2-.5zm33 0 1 2zm3 2 1 2zm3 2 1 2zm-40 1 .5 3.5h-1zm43 1 1 2zm16 5 2.5.5-2.5.5zm-60 1 .5 3.5h-1zm-13 6 .5 2.5-1 1V200l-4-.5v-16zm12 2 .5 6.5h-1zm-5 5 .5 2.5h-1z"/><path fill="#674435" stroke="#674435" d="m101.5 33 12.5.5-12.5.5zm-4 7 3.5.5-3.5.5zm18 0 2.5.5-2.5.5zm24 1 1 2zm-4 5 1 2zm9 0 1 2zm-39 9q3-.9 1.5 3.5l-1 1V74q-4.9-1.7-13.5-1l.5 1.5 9.5 12.5 11-6 10-3 2.5 3.5 1 6-2 8-6.5 7.5-9.5 4-8 19 11-3-2 11.5-1.5 1.5-13 3h-7l.5-1.5 1-4v-21q-2.5-1.5-1-7l-1.5-1.5h-4l-7 3h-7l-6.5-4.5q-5.7-6.8-5-20 .8-2.2 4.5-1.5l22 9 .5-1.5-2-4q1.2-2.5 5-1.5-1-15.7 8.5-22zM116 85q-12 3-19 10v3l5 4h7l5-2q6-3 4-13zm-53 2q-1 7 2 11 2 4 10 3l4-6-10-8zm86.5-29 .5 2.5h-1zm-93 1 .5 2.5h-1zm0 16 .5 21.5h-1zm84 6 2.5.5-2.5.5zm13 2q3 3 1.5 10.5l-5.5 9.5q-5.7.3-8.5 3.5l-1 8.5q-2.7 1.1-2-1.5-3.3-4.7-2-14l2-9.5h3q-1.1-2.7 1.5-2l4-4q5.5 1.5 7-1Zm-107 17-1 2zm-5 4-1 2zm8 2q2.8-.6 1.5 5.5h-1zm-12 1-1 2zm8 2-1 2zm127 0 1 2zm-140 2-1 2zm136 3 1 2zm-132 2-1 2zm146 0 1 2zm-159 2-1 2zm33 1 .5 10.5h-1zm119 0 1 2zm-144 1-1 2zm162 0 2.5.5-2.5.5zm-166 3-1 2zm22 1 .5 5.5h-1zm147 2 3.5.5-3.5.5zm-189 1 8.5.5-8.5.5zm136 0-2 3zm-93 5 1.5 2.5-2-1zm10 1 2.5 1.5-1.5.5zm-8 3 1 2zm26 2 3.5.5-3.5.5zm-22 1 4 3 18 4h18l18.5-4 2 15-32.5 3-11-14-14.5-1zm-9 12h6l10 3v-2q4.5-1 5.5 1.5l3.5 5.5q11.7 2.3 18.5 9.5l-3 .5q1.3 3.3-3.5 2l-7-4L46 155zm-31 1q3.8-.7 4.5 1.5v4l-4 5-5 14-1 23.5H4v-14.5l3-15 4-8v-3zm183 22 .5 26-14-.5 5-9-2-7z"/><path fill="#c78e1f" stroke="#c78e1f" d="m140.5 41 4 5zm15 33 1 2zm7 13 .5 3.5h-1z"/><path fill="#d2a885" stroke="#d2a885" d="M105.5 40q5.3-1.2 6.5 1.5l-4.5 4.5h-5l-5 2h-5l-9 3h-4L73 54.5l-1 6-1.5 1.5-8.5-1 2 20-4.5-1-2.5 1.5v-23l3.5-4.5 6-4 15-6 15-3h8zm29 6 2 3zm-5 6 2.5.5-2.5.5zm-72 35L59 97.5q4.2 2.8 5 9L57.5 128l-.5-10.5 1-1v-9l-1-1zm6 1 .5 2.5h-1zm-14 3 .5 2.5h-1zm0 16 .5 4.5-6.5 14.5-5-8-.5 2.5 2 8-1.5-.5-10.5-3.5zm108 0 1 2zm-4 1-1 2zm7 1 1 2zm-137 18L44 138l7 11.5-5 2-1.5 3.5-21-14-8 3-5.5-4.5q.9-3.4-4.5-1.5L0 140v-11h4.5l1-1h17zm131 3 1 2zm13 13 4.5 5.5-8.5 2.5-5 4 2.5-3.5v-2zm-120 13L82 170.5 70.5 172l-22-14zm-29 6 .5 2.5-2 8-1 14 3 13.5h-8v-11.5l1-1 1-13zm-14 15-1 2zm-2 3-1 2z"/><path fill="#946a57" stroke="#946a57" d="m137.5 48 1 2zm-31 4 .5 3q-8.4 2.8-14 9.5L88.5 75l-.5-3.5q2.7-9.3 10.5-13.5l7.5-4.5zm-50 18 .5 4.5h-1zm89 10 4.5.5-4.5.5zm-80 1 2.5 1.5-1.5.5zm86 0 1.5 3h-6.5l-5.5 4-.5 2-.5-1.5 6.5-5.5 5.5-.5zm-11 1-.5 1.5-.5 1.5-.5-1.5zM82 83l2 .5v2l1 4h-1l-.5-1.5-3 1v-1q3.8 1.3 2.5-2.5zm-10.5 1 5.5 2.5-1.5.5-4-2zm52 13-1 2zm-59 7 1 2zm19 0q4.5-1 5.5 1.5l-.5 3.5-.5-4-10.5 2v-1zm-12 3 4.5.5-4.5.5zm77 3-.5 1.5-.5 2.5-.5-2.5zm-59 2 .5 16.5h-1zm-40 3 .5 8.5h-1zm0 15q.1 5.9 4 8l4.5 3.5 1 2-2-1-2.5-3.5-3-2-1.5.5 1-2h-2v-2zm8 0 2 3zm32 1 .5 2.5-2.5 5.5-5.5-.5q4.6.6 6-2zm-28 2 3.5 1.5-1.5.5zm5 2 13.5 2.5-4.5.5-9-2zm-15 4 1 2zm-35 12q4.5-1 5.5 1.5.6 5.4-1 7.5l-2.5 1 2.5-3.5q1-4.5-1.5-5.5-4.7-.7-5.5 2.5l-2.5 4.5-.5-1.5zm40 0q4.3-.7 5 2 1.3-2.2 2.5.5l-2.5.5-5-2zm135 9 1.5.5-3.5 2.5zm-6 5-1 2zM88 169h4v1.5q-1.7-1.6-3.5 1.5-6.1 1.3-5.5-1.5l1.5.5q4.8 1.3 3.5-2Zm91.5 1-1 2zm20 2 .5 1.5-11 10 2 8-5.5 8.5.5-1.5 3-6v-5l-1-5zm-25 2-2 3zm-6 5-2 3zm-115 8-1 2zm-9 1 2 3zm5 0 1 2zm18 5 1 2zm4 3 1 2z"/><path fill="#ad5f31" stroke="#ad5f31" d="M114.5 52h7l.5 2.5-3 14 7 3-6.5 7.5-9.5 3-2-4.5 6-.5 5-23.5-4.5-.5zm22 3 5.5 3.5-11 42 7 19-4.5 6.5q-6.4 5.9-16.5 7l2-19-7 2 2-9.5 1.5-1.5 3.5-1 6.5 16 .5-9.5q-2.7-1.8-1-8l4-5v-2l-2-3 8-13-5-4 7-6-7-7 4-4zm-87 18 .5 7.5h-1z"/><path fill="#ad5f31" stroke="#ad5f31" d="m138.5 85 .5 3.5h-1zm-113 40-1 2zm131 8 7.5 6.5-2 8.5q-2.7-1.1-2 1.5l-2.5-1.5-4 1-3.5-9.5zm-24 2 .5 2.5 2 15 2 2-13.5 4.5-.5-18.5zm-75 9 2.5 1.5-1.5-.5zm140 16-3 4-1.5-.5zm-9 2-1 2zm-6 5-1 2zm-73 4 2.5.5-2.5.5zm67 1-1 2zm-134 13q2.3-.7 1.5 1.5zm5 6 1 2z"/><path fill="#ed6e44" stroke="#ed6e44" d="M112.5 41q6.8-1.7 8.5 1.5V45q3.7-1.5 3 1.5l-2.5 5.5h-7l-7.5 2v-7.5zm27 12q2.6-.8 1.5 2.5l1 2-2.5-1.5-2.5-1.5zm-101 65 16 26 5.5 2.5 2 4-9.5.5-8.5-13-19-10 1.5-3h3l10.5 4zm121 0h2l6.5 6.5q-.7 2.6 2 1.5-.7-5.3 2.5-8l14.5 10.5-24.5 18.5.5-1.5 1-6-7-7 7-7-1.5-2.5-5.5-2.5zm40 22 .5 17.5-7 5.5-.5-4-29.5 24.5 9 16.5h-26.5l-.5-1.5 4-9.5q-6.4.8-10-2.5l34.5-33.5 16-4zm-196 9 2.5.5-4 9.5 8 2-3 7.5-1 7-1.5 1.5-4.5 1v-26.5l1.5-1.5zm100 21h4l2 2h5l8.5 2-1.5 3-5.5 3q2.9 11.2 10 19.5l-49.5.5-13-10h-3l-9 5-2.5-1-5-7.5 1.5.5 6 3q3.8-4.7 11-6l21 13h7l8.5-2-6-24 6.5 1z"/><path fill="#956b58" stroke="#956b58" d="M104.5 46h2.5v5.5l-2.5 3.5Q95.1 58.6 90 66.5l-2 5V83h-5.5l-.5 1.5 2 4-1.5-.5h-3l-14-7-1.5.5 1-2L62 61l8.5 2L74 53zm-45 8-1 2zm85 27q6-1.5 7.5 1.5l-5.5.5-6.5 5.5-.5 1.5-.5-4.5 2.5-3.5zm-78 17 1 2zm-2 7q3.5 3.5 11 3l8-3H88l1 4.5v19l1 2-3.5 7.5h-6l-15-3-5-2-3.5-3.5zm91 1 1.5.5-2.5 1.5zm-107 10 .5 17.5 4.5 5.5 3.5 2.5 1 2-2.5.5L44 125.5zm-41 22 9 7q3-3 9-3l43 30h11l3-1q1.3 2.2 6 1 1.8-3.7 3.5-.5l6 23.5-13.5 2-24-14-10 6-9-5 2.5 3.5 7.5 8.5 11-6 12.5 9.5-56 .5-2-9.5v-14l1-1 1-13 3-5v-5q-1-2.5-5.5-1.5l-5.5 6.5v2.5l-8-1 3-11-5.5 2-.5-8.5zm192 21 .5 12.5-12 11 1 10-4.5 7.5h-11l-1.5-1.5-8-15 24.5-20.5 4.5-2 .5 4z"/><path fill="#a43f2b" stroke="#a43f2b" d="m111.5 53 7.5.5-5 23.5-6 .5 3 5-9.5 3.5L92 73.5l9.5-.5 4.5 1V59.5l2.5-5.5zm31 5 .5 14.5-5 5v2l2 3q-2.6 1.4-2 6v2l-2 9v9l3 9-2-1-6-17zm-25 45-1 2zm-3 2-.5 1.5-2 9.5 7-2-1 3.5-1 15 .5 1.5-8 2 .5-1.5 2-11.5-11 3 7-16.5 2.5-2.5zm22 17-1 2zm-13 17-.5 1.5v18l-1.5 1.5-12 5-2.5 2.5 2 3-2.5-1.5-9 3q-7.5-2-11-8L71 158l-3.5-6q-4.5 1-5.5-1.5l-2-5.5q9.9-1.6 15 2.5l1 3 8.5 9.5 32.5-3-2-15zm31 9 3.5.5-3.5.5zm5 4-1 2z"/><path fill="#76340a" stroke="#76340a" d="m49.5 62 .5 10.5h-1zm93 11-1 2zm16 5 1 2zm-50 5 1.5.5-7.5 3.5v-1zm53 1 .5 2.5h-1zm-159 37 3.5.5-3.5.5zm133 3-1 2zm18 25q6.1-1.2 5.5 1.5 2.7 1.8-1.5 3.5l-28 9-14 7-6 1-2.5-3.5 2.5-2.5 13-6h3zm-67 15 1 2z"/><path fill="#f5d36d" stroke="#f5d36d" d="M132 19q3.8-.7 5 2.5l2 5v12l1 2-2.5-1.5-10-4-10-2h-20l-18 4 4-5 10-6h3l4 3 17 3q8.5-1.5 12.5-7.5zM58.5 36l3 2q2.5 3 8.5 2.5L56 47q-1.7-8 2.5-11Zm62.5 6q11.4 1.2 18 8.5l1 2q-.7 2.3-4.5 1.5l-4-2-9.5-.5 2-6.5q-4.5 1.5-3-3Zm25.5 4q1.8 3.2 7 3l3.5-1q1.8 2.4 1 8.5l-3 10-.5 7.5-4.5-1 1-9.5-2-11-3-5zm-32 40 2.5.5v9q-4.1 6.4-14.5 6.5L99 99.5 97 94q6.9-5.4 17.5-8ZM64 87q9.5.8 14 7.5.5 5-3.5 5.5l-4 1-5.5-4.5zm-15.5 1 1.5 8.5L27.5 115l-8 6h-2l-6.5-1 1-5 6.5 1q11.8-2.2 17.5-10.5 3.9-4.1 3-13l1.5-1.5 3 1zM162 94q3.8-1 5 1.5l1 6.5 7.5 2 4-3 2.5 3.5 1 7 5.5 5.5 5.5 2.5-5.5.5-27.5-19.5zm-6.5 13 16.5 11.5-2 7.5q-2.7 1.1-2-1.5l-6.5-6.5h-2l-2 3 6.5 3.5-6.5 7.5-4.5-3.5-5-17.5q5.3 0 7.5-4Zm41 20 3.5.5v12l-10.5 9.5-16 4-34.5 33.5q3.6 3.3 10 2.5l-4 11h-18.5l-1.5-1.5-9-16V180l7-4.5q.9-3-3.5-1.5l-6.5-2.5 30.5-12.5 15-4 5-4 8.5-2.5-4-4v-2l16.5-12.5zm-193 50-.5 1.5L.5 183l-.5-5z"/></svg>