<svg xmlns="http://www.w3.org/2000/svg" width="200" height="200"><path stroke="#000" d="m162.5 0 1.5.5-4.5 3.5zm23 0-1 2zm-69 3-1 2zm67 0-3 4zm-95 1 1.5.5L85.5 8zm68 1-1 2-4 3 3-4zm-43 2-.5 1.5-3.5 4.5 2.5-3.5zm-31 2-1 2zm96 0-1 2zm-30 1 1.5.5-4 3zm-71 3-2 3-.5-2zm31 1-2 3zm66 0-2 3zm-102 3-2 3-1.5-.5zm33 1-1 2zm66 0-1 2zm-32 1-2 3zm-36 2-1 2zm66 0-1 2zm-53 2-1 2zm-15 1-1 2zm12 1-1 2zm19 0-2 3zm-22 2-3 4-5 4 4-5zm19 2 .5 5.5h-1zm49 0 1.5.5-4.5 2.5 1-2zm-17 3 .5 1.5-1.5 2.5-.5-2.5zm11 0 1.5.5-5.5 3.5 2-3zm-73 2 1 2q-2.8.7-1-2Zm29 2 .5 7.5h-1zm34 2-1 2zm19 0 .5 1.5-4 3zm-68 5-.5 1.5-2.5 4.5.5-1.5zm64 1 .5 2-2-.5zm-2 3-1 2zm-48 1 .5 7.5h-1zm-18 2 .5 1.5q-2.7 1.1-2 4.5l-2-.5zm62 3-1 2zm-122 2 4.5 1q-1.1 2.7 1.5 2 3.6 5.4 10.5 7.5-1.7 3.3-3.5-.5l-11-9h-2zm22 0 .5 2.5-2 1zm98 1 .5 2-2-.5zm-44 2-5 6-.5-2h2q-1.1-2.7 1.5-2zm-82 1-8 9 4.5-5.5q-.7-2.2 1.5-1.5zm124 0 .5 3q-2.7-1.1-2 1.5l-3.5 4.5 1.5-2.5zm-99 2-1 2zm33.5 1 12 2.5-3.5.5-1-1H102zm-67.5 7L33 71.5 31.5 74l-.5-1.5zm127 0-.5 1.5-1.5 2.5.5-1.5zm-4 6-1 2zm-128 1-.5 1.5-1.5 2.5-.5-1.5zm126 2 .5 2q-2.7-1.1-2 1.5h-1zm-129 3-1 2zm127 2 1 2zm-129 1 .5 1.5-2 1zm133 4 2.5 3.5-2-1zm31 4 .5 1.5-1.5 2.5-.5-1.5zm-25 1 4.5.5-5.5 1.5zm-144 1-2 3zm167 3 .5 1.5-3.5 4.5 1.5-2.5zm-172 4-.5 1.5-1.5 3.5-.5-1.5zm168 3-1 2zm-173 8 .5 1.5-1.5 3.5-.5-2.5zm161 6-.5 1.5-.5 6.5-.5-6.5zm-164 4 .5 3.5H6zm-1 5L7 142.5H6q-2.7-6-.5-15.5Zm164 3 5.5 9 4 .5-5 .5v-2.5l-5-6zm11 10 3.5 4.5h-1zm-176 8 5.5.5-5.5.5zm183 1 4.5.5-4.5.5zm6 1 3.5.5-3.5.5zm-192 1 .5 6.5H1zm1 8 2.5 9.5H4l-2-6zm3 11 .5 2.5H5zm-1 4 .5 4.5H4zm194 3 .5 2.5h-1zm-192 7 3.5 4.5v6H9v-6l-3-.5z" opacity=".047"/><path fill="#e1a74d" stroke="#e1a74d" d="M83.5 17q2.6-.7 1.5 2l-3-.5zm-6 5 12 2 1.5 1.5 2 16 3 4v4h-1L89.5 43l-8-3-5 2-2.5-5.5L73 25zm69 0 6.5 2v6.5l1 1v9l-2.5.5-10-3q-2 2.8-6.5 2l1-7.5 7.5-8.5zm-70 22L89 50.5l2 4.5 3 1.5-6.5 5.5-8.5-4.5-3-11zm59 0h8l10.5 4q-1.5 3.7 1.5 3 2.8 1.3.5 2.5l-1 9-1.5 2.5-5-6-6-3-3 1-4.5-1-1 4 3.5 2 6 1 3.5 3.5 3 7-3.5 4.5q-2.6.8-1.5-2.5l-5.5-9.5-2-1-11.5 3 9-12.5-1-1v-9zm-57 16 1.5.5-1 3q3.8 1.7.5 3.5h-2l-4 1 .5-1.5zm-1 30-1 2zm5 2 .5 1.5-2 1zm-8 3-.5 1.5-1.5 2.5.5-1.5zm9 1 2.5 3.5-2 1 1-2zm-23 1 7.5 6.5-4.5 9.5-8 1-4.5-5.5q3-7.5 9.5-11.5Zm11 3 .5 1.5-2 1zm27 0 3.5 1.5 2.5 3.5 3.5 1-3 5.5 1 5.5-12.5 5-8.5-3.5 3-8v-4l2-3.5zM95 110l-4 5v2h5l1-2q0-5-2-5Zm-12.5-9-1 2-2 1 1-2zm81 5 2.5.5-2.5 4.5-1.5-.5-2 5.5q-6.4 2.3-4-5.5zm-86 3 .5 2.5h-1zm-31 8 .5 11.5 2 5-2-1-3-5q2.8-1.7 1-8zm29 1 .5 2.5h-1zm-1 4 .5 2.5h-1zm-2 6 2.5.5-2.5.5zm18 3q.1 5.9 4 8 3.8 4.3 12.5 3.5L88.5 149h-14l-14-4-3.5-2.5 3.5-1.5 2 1 9.5-2q-1.5-3.7 1.5-3l2 1zm29 4-1 2zm-74 12 2 3zm62 3 2.5.5q-2.1 3.3-2.5-.5Zm-98 5 5.5 2.5-4.5 6.5-2.5-7.5zm174 0 3.5.5-3.5.5zm-4 1-2 3zm9 0-.5 1.5q-.2 4.8-3.5 6.5l.5-1.5z"/><path fill="#e1a74d" stroke="#e1a74d" d="m194.5 157 1.5.5-2 .5-8 14.5 5.5 3.5 1.5-.5-16.5 19.5-5.5 3-.5 2h-21l-8.5-4v-4h1.5l7 2q2.3-.7 1.5-4.5l-2-8 1.5.5q4.8 2.3 13 1l6-2-6 7-2.5 1.5-1 3 3.5 3.5 1-1 7.5-5v-2h2v-2q2.7 1.1 2-1.5l7-9.5q3.3 1.3 2-3.5zm3 1 .5 5.5h-1zm-78 1 .5 1.5q-1.5 6.5-6.5 9.5l-3 2-.5-4.5zm56 2-1 2zM60 165q4.9-.1 7 3.5 5.5 5.5 8 14l-1.5-.5-9.5-7.5z"/><path fill="#e1a74d" stroke="#e1a74d" d="m183.5 165-.5 1.5-1.5 2.5.5-1.5zm-8 1 1 2zm-97 5 2 3zm-35 15 .5 6.5q-.7 2.3-4.5 1.5v-1H43zm76 4-.5 1.5-.5 2.5-.5-2.5zm5 2 .5 1.5-2 6.5q-7.5 2.5-5-5 4.6 1.3 6-1.5z"/><path stroke="#000" d="m0 0 95 .5L88.5 4l-10 9-3.5 1-1.5 3-4.5 2.5q-3.8 3.2-2 12l4 17v8L65.5 65h-2L54 58q1.1-2.7-1.5-2l-3-1-9.5 6-13 17.5q-5.4 15.1-15 26l-6 18-1 17 4 8-7 1.5q-1.7 2.4-1 8.5l4 12v4l-1 5 2 9.5 3 .5V200H.5l-.5-.5zm119.5 0 42.5.5-16 12-2.5 3.5L130 27.5l-2 9-1 20-3.5 3.5q-2.6-.7-1.5 2h-2q1.5 3.8-1.5 3h-2l-7-2h-5l-1.5-1.5 3-5.5q3 1.3 2-2.5l14-26 1-6.5-6.5 2-16 12q-2.7-1.2-1.5-6.5zm67 0h13l.5.5V151l-8.5-2h-5l-1.5-1.5q-.4-5.5-4.5-7.5l-5.5-1-5-7.5v-12l9.5-11.5q2.3.8 1.5-1.5 7.4-5.9 8-17.5h-6.5l-12 4h-7l-2 2q-2.2-.7-1.5-4.5l-7-8 1-2.5q3 1.3 2-2.5l9-12 1-3.5h2v-4q3 1.3 2-2.5l6-9.5q3 1.3 2-2.5l4-4 4-12.5-15.5 6-10 7-.5-3.5 6-11zm13 176 .5 4.5h-1z" opacity="0"/><path stroke="#000" d="m118.5 0-3 4zm-24 1-1 2-3 2 2-3zm68 0-2 3zm21 1-2 3zm-25 2-1 2zm-44 1-2 3zm-27 1-1 2zm67 1-2 3zm25 0-2.5 3.5-2.5 3.5 1.5-2.5zm-95 1-3 4-3 2 2-3zm27 1-2 3zm39 1-4 5-6 4 1-2zm-42 3-1 2zm-34 3-1 2zm97 1-1 2zm-102 3-2 3zm34 0-1 2zm36 0-1 2zm30 0-1.5 2.5-2.5 3.5 1.5-2.5zm-48 1 1.5 2.5h-1l-.5-1.5-5 3 1-2zm15 1-3 4zm-35 1-1 2zm13 2-1 2zm-15 1-.5 1.5-.5 1.5-.5-1.5zm12 1-2 3zm53 0-1 2zm-66 3 .5 3.5h-1zm64 0-1 2zm-56 1-3 4zm64 3-1 2zm-69 1-1 2-1.5-.5zm58 2 1.5 3.5-2 .5zm6 0-1 2-2 1 1-2zm-50 2-1 2zm65 0-1 2zm-3 4-1 2zm-49 1 .5 7.5h-1zm47 2-1 2zm-66 3-1 2zm64 0-1.5 2.5-1.5 2.5.5-1.5zm-102 1 .5 4.5h-1zm35 4-.5 1.5-3.5 6.5.5-1.5zm63 1-1 2zm-118 1 2 3zm76 0-.5 1.5-8.5 9.5-2.5-.5 2.5-.5 7.5-7.5zm-82 2-2 3zm122 0-.5 1.5-1.5 2.5.5-1.5zm-111 2 3 4zm11 3-1 2zm-28 1-4 5zm23 1 1 2zm50 0 2.5.5-2.5.5zm51 0-1 2zm-2 3-1 2zm-127 2-1 2zm124 3-2.5 3.5-2.5 3.5 1.5-2.5zm-127 1-.5 1.5-1.5 2.5.5-1.5zm-5 8-.5 1.5-.5 1.5-.5-1.5zm127 2 3 4zm-129 2-.5 1.5-1.5 2.5.5-1.5zm160 3q5.8-2.1 4.5 2.5h-1q.9-3-3.5-1.5zm-25 3 2.5 3.5-2 .5zm-140 3-2 3zm-3 4-1 2zm168 1-1 2zm-2 3-1.5 2.5-2.5 3.5 1.5-2.5zm-169 1 .5 1.5-1.5 2.5-.5-1.5zm161 9-5.5 6.5-.5 1.5-.5-1.5zm-167 8 .5 2.5H7zm-1 5 .5 2.5H6zm163 0 .5 3.5h-1zm1 8 3.5 4.5h-1zm8 6 4.5 3.5-3.5-2.5zm-175 9 1.5.5-2.5 1.5zm192 2 3.5.5-3.5.5zm-190 22 .5 7.5H5zm194 2-1 2zm-193 7 3.5 5.5-3-2zm3 13 .5 4.5H9z" opacity=".498"/><path fill="#505493" stroke="#505493" d="M48.5 63H51q-1.1 2.7 1.5 2l3.5 5-6 1q-1.1 2.7 1.5 2l6.5 5.5-7 2.5v10.5L49.5 93l-3 1-9 9q-5.2-1.2-6.5 1.5-5.4 6.6-7 17v2l-7 14-1.5 8.5q-5.2-5.7-3.5-18.5l5-17q9.1-11.9 15-27zM98 70q9.9-1.6 15 2.5l-12.5.5-2.5-1zm-19.5 3 2.5.5q-1.2 3.3-5 2.5 1.3 4.6-1.5 6L68 79l1.5-3zm55 0 .5 1.5-9.5 10.5-5 4-8.5 3.5 6.5 1.5 3.5 3.5 4.5 12.5 5-10 7 5 4-10 4.5 2.5 2 11-2.5-1.5q-3.4-.9-1.5 4.5l-2.5 1.5-5.5-2-3 7.5-2 10v16l1 1v18q2.9 12.1 10 20l-1.5-.5-4.5-3.5-5-10-3-10-1-5v-15l-4-23-4-10L107.5 90l-9 3 .5-1.5 5.5-8.5zm-46 1-1 2zm88 29-1 2zm-2 3-2 3zm-65 36 .5 3.5h-1zm-86 18 .5 5.5-7 10q1.1 6.1-1.5 8.5-3.9-2.1-3.5-8.5zm100 11 2.5 13h-5v-4.5zm-77 3 .5 4.5-4 1.5zm60 9 6.5 5.5-1 11.5-49-.5 6-7.5 3-1.5q-.8-2.6 2.5-1.5l7 4h5zm88 3 3.5 14h-6v-4.5q-2.2-1.2-1-6zm-177 9 4.5 3.5v1.5h-5z"/><path stroke="#000" d="m165.5 0-1 2-1.5-.5zm18 0 .5 1.5-2 1zm-91 3-1 2zm67 1-2 3-7.5 5.5q.8 2.3-1.5 1.5l3-4zm-70 1-2 3zm91 0-2 3-.5-2zm-95 3 .5 2-2-.5zm90 3-1 2zm-95 1-1 2zm-3 2-4 5-5.5 4.5v2l-.5 2.5-.5-2.5v-2l5.5-5.5zm96 0-3.5 4.5-1.5 2.5.5-1.5zm-67 1-1.5 2.5-1.5 2.5.5-1.5zm39 0-1 2zm-4 3-1 2zm25 5-1 2zm-51 2-1 2zm17 1-.5 1.5-1.5 7.5-.5-5.5zm-20 1-3 4-5 4 4-5zm50 2-1 2zm18 0-1 2zm-3 2-1 2-1.5-.5zm-4 2-1 2-6 3v-1zm-75 1 1.5 3.5-2 .5zm4 1-1 2zm14 1-.5 1.5-1.5 2.5.5-1.5zm13 1 .5 4.5h-1zm51 1-1 2zM112 41l2 .5-5.5 8.5.5-1.5zm66.5 0-1 2zm-3 4-1 2zm-2 3-1 2zm-66 3-.5 1.5-1.5 2.5.5-1.5zm21 1 .5 3.5h-1zm42 0-.5 1.5-1.5 2.5.5-1.5zm-98 4 .5 3q-2.7-1.1-2 1.5L64.5 68 60 64.5l3.5 2.5 4.5-3.5zm-18 3 2 3zm-12 2-.5 1.5-2.5 3.5.5-1.5zm122 1-.5 1.5-1.5 2.5.5-1.5zm-63 2 6.5.5-6.5.5zm20 0 .5 4-3-1.5zm-84 3L36 69.5 32.5 74l2.5-3.5zm124 0-1.5 2.5-.5 1.5-.5-1.5zm-120 2-1 2zm117 3-1 2zm-4 5-1 2zm-125 1-.5 1.5-1.5 2.5.5-1.5zm126 9 1 2zm-132 2-1 2zm134 1 1 2zm8 4 2.5.5-2.5.5zm19 5-1.5 2.5-.5 1.5-.5-1.5zm-168 1-1 2zm161 9-2 3zm-9 12 .5 3.5h-1zm-162 8 .5 8.5H6zm164 6 2 3zm3 4 4.5 1.5-3.5.5zm-163 9 .5 2-6-.5zm173 0q2.3-.7 1.5 1.5zm-180 2-.5 1.5-.5 5.5-.5-5.5zm184 0 3.5.5-3.5.5zm-181 21 .5 2.5H6zm2 14 1 2zm2 3 .5 5.5h-1z" opacity=".929"/><path fill="#3fbf8c" stroke="#3fbf8c" d="m55.5 122 10.5 9.5 1 2-5.5 2.5-4.5-2-3-10.5zm57 5 2.5.5-5.5 6.5q-2.3 2.7-8 2l-2.5-1 1.5-3z"/><path stroke="#000" d="M98.5 0q5.3-1.5 3.5 3l-11.5 8-4.5 1v2h-2q1.1 2.7-1.5 2L80 17v2h-2q1.1 2.7-1.5 2-6 1.5-4.5 10.5l6 27-8 11 3.5.5 7-3h5l5.5-4.5 3-5.5 2.5-1 1 4 2.5-2.5 8-16.5q3 1.3 2-2.5l3-5-1.5.5-3.5 2.5q.8 2.3-1.5 1.5-2.9 4.6-10 5L94 39.5l-1-15 3-1.5v-2.5L112.5 0l5.5.5-14 17-3 6.5q-3-1.2-2 2.5l-1 1V38l6.5-3 12-10 5-2-.5 1.5-1 5-6 11.5q-3-1.2-2 2.5-7.5 9.2-11 21.5h8.5l12.5 3v-4.5l7-8v-13l1-1 1-12 5.5-6.5 11-9h2.5l1.5-3 11-9 4-2h5l-1 2H168q1.1 2.7-1.5 2l-21 18H143l-8 10.5-3 23 1 2-9 11 3.5.5 10-2 4.5 3.5 4.5 10.5L162 59.5V57l2-.5q-2.5-1.5 1-3l2-3 7-11-1.5-.5-10 5-3.5 3.5-1.5 3.5-2.5-1.5-1-11q2.3-1.2 1-6l6.5-9.5q2.6.8 1.5-2.5L172 8h2V6q2.7 1.1 2-1.5l3.5-4.5q4.4-1.5 3.5 1.5L179.5 6q-2.6-.8-1.5 2.5l-9 10-8 12q-2.9 3.9-2 10.5l10.5-4 15-9 .5 2.5-16 23-1 3.5q-2.7-1.1-2 1.5l-7 13-6 7-1 5q6.5 4.8 8 12.5l7.5-1 15-5h5.5l-6 13.5-10.5 12.5H168v8.5l1 4-1 2 6.5 10.5h5.5v2q2.7-1.1 2 1.5l2 3q-2.2 1.3.5 2.5l14 2 1.5 1.5v21q-3.5.5-3 5l3 7v13h-1l-4-14-1.5-1.5-7 8-.5-6q3 1.3 2-2.5l5-6 5-10 1-9-3.5-2.5-14-2-5.5 4.5-11 17.5-11.5 4-5-3-.5 7.5 2 7.5-3.5 1-2.5-1q1.1-3.3-3-2l-2.5 4-.5-2-2-.5 1-4-3.5-4.5-2.5-1.5-3-4-2-9.5q-3 1.3-2-2.5h-1l-5 16v8.5q-3.7-1.2-2 4h-3l1-7q3.3 1.3 2-3.5l-1-3 1-2-1.5-3.5q-1.4 4-6.5 3v-4h1.5l8.5-7.5 5-11.5q3 1.3 2-2.5h1l1 7 2 4v5l3 7.5q2.7-1.1 2 1.5l8.5 9.5 4 1-.5-1.5V184l-2-.5v-7q-4.6-7.9-3-22l1-3.5 3 1.5v13l1 6.5q3-1 2 2h2.5q1.5 2.5 7 1l5.5-3 5-10q2.7 1.1 2-1.5l5.5-8.5 4.5-2.5-2.5-4.5-13 2-6-2-2.5-2.5-3-6-2-11-1-21.5q-3.7 1.3-2-4.5l-3-7q2.5-1.5-1-3l-2-8-6.5-9.5-25 8h-9l1-2 8-2 5.5-4.5-8.5-3.5H96l1 11.5-1 1v11l1 2.5q3.3-3 11.5-2l13.5 22.5 3 16 1 15.5h-4v-9.5l-1-1-1-13-2-3.5q-8.8.7-14.5 6h-3l-4 3H90q1.5 3.8-1.5 3l-3 2-7.5 1-1.5 3-4.5-1v-2q-3.7 1.5-3-1.5l-1.5-2.5-1 2-4.5-6q-2.7 1.1-2-1.5l-6-4-4.5-5.5q-4.4-1.5-3.5 1.5l-2 3v9L41.5 139q-.7-2.7-5-2l-1.5.5 2-15 5-11.5 2-.5q-2.5-1.5 1-3-.7-2.6 2-1.5v-2.5l4.5-5.5H54q-1.5-3.8 1.5-3l5-6 5 4 4.5 1v-2.5l13-20q-1.3-2.7-2.5-.5l-15 4-5.5-7h-2.5l-7-6h-2l-6 6H38q-1.1-2.7 1.5-2l4-5q2.3.8 1.5-1.5l5.5-3.5 14 12q5-3.4 6.5-9 3 1.3 2-2.5l-1-1-1-13-3-10v-9l4.5-4.5 11-9H86q-1.1-2.7 1.5-2zM88 68l-1 7-10 14q1 2-2 1 1 5-3 7 1 3-2 2v3l-2-1q-4 1-2-3l-8-2q1 5-3 6-3-1-2 3l-3 1q-1 6 4 8-1 3 3 2l5 6v2h4l8 6h6l34-14h2l-1-4-7-11v-3l-2-1-14 4V89l1-1-1-19h-1zm62 21q-1 7 3 12l2-3q1-6-3-7 1-3-2-2Zm31 4-1 2-10 2-2 2h-4l-6 4-2-1-3 4 3 16q1 2 3 0h3q-2-4 2-3l18-22zm-17 30-7 6q-1 7 3 11 3 3 9 2l-4-6z"/><path stroke="#000" d="m35.5 71 .5 6.5-5 5L21 104q-4.5-1.7-3 3.5l-3 5-3 10-1 16 1 1v6.5h2.5l6.5 6.5 2 6-5 4-4 5v2.5q-2.7-1.1-2 1.5-3.6 3.1-2 10.5 2.7-1.1 2 1.5l9.5 8.5h2l2.5-2.5 2-7.5q5-.6 7.5-5H38l4-7.5v-5l-5-11-1-7 2 1q-.5 4 2.5 4.5H42v5.5l2 .5v2.5q3 3 2 10l-4 7.5-3 1.5-1.5 2.5-1.5.5v7l2 5.5q-3-1-2 2h-3.5l-4.5-2q2.2 5.6-3.5 4l-9-6-3.5 1v6h-2l1-11.5q-5.8-3.7-5-14l1-3-4-13v-7q1.9-3.2 8-1.5l-4-10.5v-13l6-20.5q3.3 1.3 2-3.5l9-13 7-14zM7 154l1 8 2 3q-1 2 2 1l2-4h2l1-5-4-3zm25 33-2 4 3 1zm25.5-27 6 1 2-1 4 2 12.5 1.5-1 4.5-16.5-2q-1.2-3-5.5-2v5h1.5l-.5 1.5q-2.6 7.3 3.5 5.5 8.8 9.1 22.5 12-1.2-3 2.5-2l13-7 2.5.5 1 2-9.5 6.5-12 5-13-6-4.5-4.5q.8-3.7-1.5-4.5l-3 1-1.5-3-3 1.5-2.5 8.5-1.5-9.5 3-6-2-8.5zM51 188q3.7-1.3 2 4.5l.5 1.5H51z"/><path fill="#be7b3c" stroke="#be7b3c" d="m106.5 0 4.5.5L96 21q-2.7-1.1-2 1.5L91.5 28l-2-4L78 22q-1.1-2.7 1.5-2zM84 17l-2 2h3q1-3-1-2Zm90.5-17q3.3-1.1 2.5 1.5-13.3 14.2-23.5 31.5l-.5-2.5V24h-2.5l-3.5-1 5.5-7zm-98 22-2 3zm69 0-1 2zm-53 7 .5 7.5h-1zm45 1-1 2zm-63 7 .5 2.5h-1zm35 0-1.5 2.5L99 57l-3.5-1-6.5 8-8.5 3q1.6-1.7-1.5-3.5l1-3-1.5-.5-1.5.5 1-2.5q6.5.3 10.5 4l5.5-5.5-1.5-1.5q-2.2.8-1.5-1.5L87.5 49q-7.8-1.7-12.5-6.5l.5-1.5 3 1 3-2q9.3 1.8 13.5 8.5l.5 1.5.5-4.5-1.5-2.5q1.2 2.3 6 1z"/><path fill="#be7b3c" stroke="#be7b3c" d="m93.5 38 .5 3.5h-1zm48 0 12.5 3v7h-2.5l-8-4h-8l-1.5.5 1-4.5q4.5.8 6.5-2Z"/><path fill="#be7b3c" stroke="#be7b3c" d="m170.5 41 1.5.5L149.5 75l.5-1.5-3-7-3.5-3.5-6-1-3.5-2-1-2.5h2l-1-2 1.5.5 6 1h2l6.5 3.5 3.5 4.5 3.5-12.5-.5-1.5 3.5-1.5q-1.1-3.3 1.5-2.5zm-38 18-1 2zm-56 3-2 3zm63 4 2 3zm-48 4 .5 11.5-1 1V102l2 .5-3 .5-2 3.5v4l-3 8 9.5 3.5 2-1v1L75 130l-1-4.5 2-5 2-13 2.5-4.5 5.5-3.5-2.5-3.5q-2.2.8-1.5-1.5L89 74h2zm57 6-1.5 2.5-.5 1.5-1-2zm31 21-1 2zm-121 1-4 5zm44 0q4-.5 4.5 2.5l7 13-10.5 5.5 1-2q3.4.9 1.5-4.5l-1-2 3-4.5-6-3.5-2-3zm-39 1 1 2zm91 9q2.3 1.8 1.5 6.5h-1z"/><path fill="#be7b3c" stroke="#be7b3c" d="M94.5 110q3 .5 2.5 4.5l-1 2.5h-5v-2.5zm73 2-2 3zm-120 3 .5 2.5-2-1zm9 0 3 4zm99.5 1 2 .5-2 1zm4.5 2-2 3q-2.2.8-1.5-1.5 1.8 1.6 3.5-1.5Zm-60 1 1.5.5-3.5 1.5v-1zm-56 5 .5 2.5h-1zm3 2 .5 2.5h-1zm72 4 .5 2.5v2l-2.5 2.5.5-1.5zm-27 6 2 3zm-21 2 .5 2-3-.5zm-12 2 3.5 1.5-1.5.5zm38 0 4.5 1.5-2.5.5zm7 1 3.5.5-3.5.5zm15 13q2.8-.6 1.5 5.5l-2.5.5-8.5 7.5q1.3 5.3-1.5 6.5l-21 12-6 1-2.5-1q.8-3.4-2-4.5l4-8-6-5 6.5-.5 3 1 19-5zm70 2 4.5 1.5-8 12-1 5.5q-2.7-1.1-2 1.5l-7 9.5h-2v2h-2q1.1 2.7-1.5 2l-7 6-3.5-4.5 2.5-3.5 7.5-6.5-2.5-.5q-4.3 3.7-14 2l-4.5-2.5.5-1.5 1 1h8l9.5-6.5 5.5-10.5 3 5 5 1zm-174 1 .5 1.5-3 2zm161 2-1 2zm-164 3-2 3zm46.5 2 2 .5-2 1zm56.5 4-1 2zm-3 2-1 2zm-54 7 2.5 2.5-3.5 3.5-.5-1.5zm55 0 .5 3-3-.5zm78 0-1.5 2.5-6.5 8.5.5-1.5zm-149 8q5.4-.6 7.5 1v8h-6.5l.5-1.5q1.5-7-1.5-6.5zm82.5 5q4.9-.1 7 3.5l1 4-.5 2.5h-9l-.5-1.5zm21.5 3 3.5.5-3.5.5zm29 2-4 5-.5-2z"/><path fill="#100d0e" stroke="#100d0e" d="m176.5 3-3 4zm-11 2-2 3zm-5 4-1 2zm11 0-1 2zm-83 2-3 4-1.5-.5zm65 3-3 4zm-71 2-1 2zm82 2-1 2zm-88 3-1 2zm86 0 .5 2-2-.5zM143 22l2 .5-4 3zm-70.5 6 .5 3.5h-1zm85 0-1 2zm-20 1-1 2zm-44 2 .5 3.5h-1zm19 2-.5 1.5-.5 1.5-1-1-2.5 1.5zm42 1 .5 3.5h-1zm-44 3-.5 1.5-1.5 2.5.5-1.5zm-7 3-1 2zm51 1 .5 4.5h-1zm-59 1 1 2zm5 0-1 2zm66 0 1.5.5-2.5 1.5zm5 1-2 3zm-38 2 .5 6.5h-1zm28 0-1.5 2.5-.5 1.5-.5-1.5zm5 5-1 2zm-73 8-2 3zm3.5 0 2 .5-2 1zm-48.5 4-6 7zm6 3 2 3zm86 3 1 2zm-82 1 1 2zm-19 3-1 2zm22 0 4.5 3.5-2.5-1.5zm73 0 3.5 2.5-1.5.5zm-61 1 2.5.5-2.5.5zm40 0-1 2-1.5-.5zm-34 3-1 2zm25 0 1.5.5-5.5 3.5 2-3zm44 2-1 2zm-71 1-1 2zm-2 3-.5 1.5-1.5 2.5.5-1.5zm-3 5-1 2zm-12 1 1.5.5-7.5 6.5zm90 1 2 3zm-87 1 1 2zm44 0 1 2zm-38 2-1 2-2.5-.5zm84 1 1 2zm-62 1 1.5 7.5-2-1zm60 1 .5 2.5h-1zm-101 3-1 2zm56 0 2.5 3.5-2-1zm6 0 1 2zm-89 1-1 2zm24 3-1 2zm68 1 1 2zm-95 1-2 3zm25 1-1 2zm108 0 .5 2.5h-1zm-36 1 1 2zm-75 4-.5 1.5-2.5 4.5.5-1.5zm107 0 .5 4.5h-1zm-35 3 1.5 2.5-2-1zm53 0-2 3zm-119 2 5.5 4.5-4.5-3.5zm102 2 .5 4.5h-1zm-35 2 2.5.5 1 3h-1q.8-2.2-1.5-1.5zm-58 4 4.5 3.5-1.5.5zm105 1-1 2zm-3 2-1 2zm-8 1 .5 3.5h-1zm-140 1 .5 3.5h-1zm109 1 .5 2.5h-1zm37 0 .5 3.5h-1zm-89 4 3.5 1-.5 2zm57 0 .5 2.5h-1zm-114 2 .5 2.5h-1zm147 0 1.5 2.5-2-1zm7 1 1.5 2.5h-1zm-131 2 .5 4.5h-1zm1.5 0 6 1.5v2l1 4 7.5 7.5 10.5 5 .5 2 1.5-.5q.8 2.3-1.5 1.5l-5.5-2q1.3 3-2.5 2l-8.5-5-.5 3-.5-4.5q-5.7-4.3-8-12zm85.5 0 .5 3.5h-1zm39 1 1 2zm8 1-1 2-4.5-.5zm-42 4 .5 6.5h-1zm48 1q4-.5 4.5 2.5l-2.5-1.5q-3 .5-2-1Zm-53 1 3.5 1.5q1.3 6.3-2.5 7.5-1.5-3.5-3-1l-12 7H105q1.3 3-2.5 2l-4 2-15 3-1.5-3.5 1.5-1.5 8-1 14-5 12-7zm48 0 2.5.5-2.5.5zm-152 2 5.5 6.5h-1zm160 2-1 2-1.5-.5zm-141 1 .5 2.5h-1zm105 0-.5 1.5-.5 2.5-.5-2.5zm3 0 1.5 1.5v11h-1v-11zm29 2 .5 1.5-4.5 5.5.5-1.5zm-157 4 .5 1.5-2 1zm22 1 1 2zm130 3-1 2zm-149 1-4 5zm121 0 .5 4.5h-1zm33 0-.5 1.5-.5 1.5-.5-1.5zm-162 2-1 2zm35 1 .5 3.5h-1zm8 1 .5 4.5h-1zm111 0-.5 1.5-1.5 2.5.5-1.5zm-19 3 3.5 4.5-4-3zm-34 2-1 2zm29 0 .5 3.5h-1zm20 0-1 2zm-123 3-2 3zm113 0 4.5.5-4.5.5zm-141 2 .5 3.5h-1zm55 0 1 2zm38 1 .5 2-2-.5zm39 0 .5 2.5h-1zm6 0 1 2q-2.8.7-1-2Zm-115 1-1 2zm8 0-1.5 2.5-1.5 2.5-.5-1.5zm69 0 3.5 4.5v5l-2.5-1.5-5.5-3.5 2-.5q-1.5-3.8 1.5-3zm18 0 1 2zM61 179l2 .5-1 2.5q-3.7-1.2-2 4l4.5-3-9 10-.5-2 3-1.5q.9-3-3.5-1.5l1.5-2.5.5-3.5 1 2zm3.5 0 .5 2.5h-1zm71 0 5 6zm8 2 1.5 6-3-1.5h2zm-116 1-.5 1.5-.5 1.5-.5-1.5zm39 1 1 2zm52 0 .5 5.5h-1zm14 0 4 5zm-95 1 1 2-2 1-.5-1.5zm156 0 1 2-1-1-2.5 1.5zm-178 1 4 5zm17 4 .5 3-3-1.5h2zm104 0-.5 1.5v4l-2 .5v2.5h-1zm53 0-2 3zm-168 1 2.5 1.5-1.5.5zm29 0 .5 2.5h-1zm67 0 .5 10h-6v-6.5l1.5.5h3.5zm24 0 2.5 1.5-1.5-.5zm9 1-1 2zm29 2 .5 5 5.5-4-5 6-7.5-.5zm-141 1 1 2zm3 0q6.8-1.7 8.5 1.5l-2 .5v2q3.7-1.5 3 1.5l-1.5-.5-13 1v-1q5.4 1.9 4.5-1.5l1-2zm96.5 0q2.7-1.1 2 1.5l7 4-9 .5zm-108.5 1 5.5 3q1 3-2 2 1.1-2.7-1.5-2l-1.5-.5-.5 1.5zm-7 2 1 2zm31.5 1q3-1 2 2-3 1-2-2Z" opacity=".996"/><path fill="#020202" stroke="#020202" d="m102 0 3 .5-3 1.5zm8.5 2-2 3zM168 2l2 .5-2 1zm-3.5 41-1 2-1.5-.5zm-32 7 .5 5.5h-1zm34 7 .5 1.5-2.5 3.5.5-1.5zm-129 11 4.5.5-5.5 7.5-.5-6.5zm20 0q3.3-1.1 2.5 1.5l1.5 2.5zm14 0 2.5 1.5-1.5.5-2.5-.5zM88 68q3-1.2 2 2.5l-3 2zm8 0h11.5l2.5 1.5-1.5.5-1-1H97l-.5 5zm58.5 1-1 2zm-73 1 1 2-3.5-.5zm34 1-1 2zM66 74l5 .5-5 1.5zm26.5 0 .5 13.5h-1zm4 6 .5 11.5h-1zm4.5 0 8 .5-6.5 2.5zm39.5 0 1.5 2.5h-1zm-108 1-.5 1.5-1.5 2.5.5-1.5zm74 9 1 2-3.5-.5zm38 0 1 2zm-88 3-1 2zm-3 2 .5 3-3-.5zm4.5 1 2 .5-2 1zm123.5 0-1 2zm-118 2q3.8-1.2 2.5 2.5zm49 1 1 2zm41 0-1 2zM18 104l2 .5-2 1zm130.5 0q2.8-.6 1.5 5.5h-1zm-94 10 1 2q-2.8.7-1-2Zm110 2 .5 1.5-3 1.5q1.7 4.1-2.5 3zm3.5 0 3 .5-3 2zm-11.5 3 .5 2.5h-1zm-37 3 .5 3.5h-1zm-61 1 1 2z" opacity=".996"/><path fill="#020202" stroke="#020202" d="m163.5 123 .5 5.5h-1zM90 128l6 .5-5.5 2.5zm-12 6 3 .5-2.5 1.5zm47.5 2 .5 2.5h-1zm-89 1q3.8-.7 4.5 1.5l-1.5-.5q-5.7-1.8-3.5 4.5l5 9-3-2-1.5-3.5-1.5.5v-8zm-24 5 1.5 4q-3.8 1.2-1.5-4Zm165 3 1 2zm-53 1q3.4-.9 1.5 4.5l1 4h-1zm-82 7q2.5 1.2 1.5 5-4.1 1.2-1.5-5Zm82 0 .5 2q-2.7-1.1-2 1.5h-1zm16 2 .5 6.5h-1zm33 0-1 2zm-157 4-.5 1.5-.5 1.5-.5-1.5zm39.5 0 3 .5-4.5 2.5v-1q2.6.7 1.5-2Zm114.5 0-.5 1.5-.5 1.5-.5-1.5zm-151 2-1 2zm-6 1-1 2zm69 1-.5 1.5 1 3-2 .5q-1-3.8 1.5-5Zm59 5 .5 2.5h-1zm-86 2-1 2zm5 0 4.5 6.5-1.5-.5H60zm70 0 1.5 2.5-2-1zm12 4q2.3 1.8 1.5 6.5h-1zm-35 1 .5 3 2 .5-2 .5q1.7 4.1-2.5 3l-1.5.5v-2q-.7-3.7 1.5-4.5zm7 0 1.5 3.5-1 4 1 4.5q-3.5 1.1-2-6.5l1-2zm-74 3-1 2zm22 0 3.5 1.5q1.5 4.4-1.5 3.5l-4.5 3v-4q2.7 1.1 2-1.5zm2.5 1-1 3h1zm-12.5 0 2 7 1-2 .5 1.5-1.5 2.5q4.4-1.5 3.5 1.5l-3 1.5q.9 6.2-1 9h-3v-2q-4.1 1.3-3-2 3 1.3 2-2.5l1.5.5 2.5-.5-1-5.5q-3.7 1.3-2-4.5zM36 182q2.7-1.1 2 1.5l-2 1zm112.5 0 .5 2.5h-1zm-136 1 3 4zm121 0 1 2zm12 1 1.5 3.5-2 .5zm42 0 .5 2-2-.5zm-46 1 1 2zm44 2 1.5 5.5-7 5.5v-5.5zm-160 1 .5 1.5-2 1zm-5 2 1 2zm96 0 .5 3.5h-1zm19.5 2 2 .5v7.5q-3.8 1-5-1.5l1-3.5q3.3 1.1 2-3Zm-124 2h3v6h-3zm16.5 1 .5 3.5h-1zm7.5 0 3.5 1 2.5-1-1 4-5.5 1-.5-2-2-.5 3-.5z" opacity=".996"/><path fill="#f8dbaa" stroke="#f8dbaa" d="m90.5 71-.5 1.5-9 22 4 5-6 4-5 19v5.5q-11.1-4.1-18-13.5 6.5.5 9-3l3-8.5 4-1.5 7-15zm85 26 3.5.5q-6.6 12.4-17.5 20.5l-3 2-1.5-2.5 3-1.5 2-5q2.7 1.1 2-1.5l2-3-2.5-.5-8.5 4-1-3.5 8.5-5.5zm-131 31 12 22 1-7 17 6h14l14-4 5-3 .5 7.5-1 2.5 3-1.5 7-13.5 2.5-1q2.4 3.1 1.5 9.5-10.8 9.2-25.5 14.5l-8 2h-14l-8-2-17.5-9-6-9.5v-3zm137 27 6.5 1.5-7.5 12.5-6.5-3q1.4-7.3 7.5-11Zm12.5 3h3v7.5l-5.5 10.5-5.5-3.5zm-127.5 9q10.8.3 14.5 7.5l-4 7 2 3-1.5.5-3.5-3.5-3-8q-4.5-2.5-4.5-6.5Zm0 8 1 2zm-25 11 1.5.5v6.5q-5.2 2.1-4-2.5l-1-2zm79 4q3.8-.7 4.5 1.5l-2.5 3.5-4.5-.5z"/><path fill="#462924" stroke="#462924" d="m105.5 0-2 3-2 1 1-2zm68 0-2 3-3 2 2-3zm-63 1-2 3zm66 1-3 4zm-77 2-2 3zm67 1-2 3zm-71 2-1 2zm77 0-2.5 3.5-3.5 4.5 2.5-3.5zm-10 1-1 2zm-70 1-2 3-4 3 3-4zm12 0-2 3zm54 2-2 3zm-58 3-1 2zm54 0-1 2zm11 2-2 3zm-85 2-1 2zm17 0-1 2zm52 0-3 4zm13 2-1 2zm-88 3-1 2zm86 0-2 3zm-20 3-2 3zm-47 9 .5 2.5h-1zm17 0 .5 2-2.5 1zm24 3 .5 5.5h-1zm-29 1-2 3zm-11 2 1.5 2.5-2-1zm75 0-1 2zm-68 1-1 2zm70 0-1 2zm-96 1 .5 2.5h-1zm31 0-1 2zm56 2-1 2zm5 3-2 3zm-13 1 1 2zm5 0-1 2zm-57 1-1 2zm31 2 .5 2.5h-1zm31 0-.5 1.5-1.5 2.5.5-1.5zm-74 9-1 2zm40 0-4 5zm29 0-1 2zm-2 3-1 2zm-76 2 2.5.5-2.5.5zm57 0 1 2zm-66 1 2.5 1.5-1.5.5zm57 0 2.5.5-2.5.5zm25 1-1.5 2.5-.5 1.5-.5-1.5zm-3 5-1.5 2.5-2.5 3.5 1.5-2.5zm-6 6 1 2zm-54 3 .5 11.5h-1zm-30 15 1 2zm42 0q3.3-1.1 2.5 1.5l.5 1.5zm4 4 2.5 3.5-2-1zm70 0-1 2zm-67 5 2.5 3.5-2-1zm-60 3 5 6zm-2.5 7 7 5.5q-2.2 1.3-1 6l4.5 7.5 6 1 2.5-1 .5-2 4.5 3.5-4.5 3.5h-9l-2 2-7.5-8.5-2-14zm12.5 3 2 3zm56 0v2q2.3-.7 1.5 1.5l2 6-3 8-2.5 2.5-5 3-1-1-11-1-5.5-4.5 1-6.5 16.5-7h2q2.3.8 1.5-1.5 1.8 1.6 3.5-1.5Zm-1.5 7-17 8 6 3 5-2 6-7zm44.5-6-1 2zm-39 12 .5 2.5h-1zm1 10 .5 3.5h-1zm-1 11q2.3.8 1.5 4.5h-1zm-112 1 3.5.5-4.5 1.5zm110 0-1 2zm-105 1 1 2zm175 0 2.5.5-2.5.5zm-10 1-1 2zm-65 1-1 2-4 2 1-2zm84 0 1.5 3.5h-1zm-183 3-1 2zm80 5 2.5.5-5.5 1.5v-1zm23 1-1 2zm-35 2 2.5.5-2.5.5zm87 2-1 2zm-2 3-3 4zm-60 1-1 2zm86 1-1 2zm-135 1 2 3zm54 1-1 2zm50 0-1 2-1.5-.5zm-95 1 2 3zm124 0-1 2zm-131 2-3 4zm52 0q2.3-.7 1.5 1.5zM50 182l2 .5-1.5 7.5-.5-4-2-.5 2-.5zm138.5 0-1 2zm-4 5-12 13zm-65 1-1 2zm-89 1 1 2zm100 2 1 2zm11 0 1.5.5-2 .5-.5 2-.5-1.5zm-103 2 2.5 1.5-1.5.5zm102 2 1 2z"/><path fill="#2e2e44" stroke="#2e2e44" d="m53.5 65 7.5 6 1.5 3 6.5 2.5-1 2.5 6.5 3 1.5-.5L68.5 93q-4.4 1.5-3.5-1.5L60.5 88Q46.1 99.6 38 117.5l-3 9-1 16 2 11 4 7 1 9-6.5 8.5-8.5 5.5-2 7.5-12-8.5 3 1 1-8 7-10 1-9q-1.4-6.1-6.5-8.5l-2.5-1.5 4-14 6-10-1-2q2.2-10.8 8.5-17.5h5q5-7.5 13.5-11.5v-10l2.5-.5 4.5-2.5-8-5.5q-1.2-3 2.5-2l3.5-1zm-11 4-2 3zm56 0 7.5.5-8 .5q-1.1 2.7 1.5 2l1 1h12v-2q2.3-.7 1.5 1.5-3 3.5-9.5 3.5l-4.5 3.5 2.5 4.5 1.5-.5-6.5 9.5-.5-18.5v-2z"/><path fill="#2e2e44" stroke="#2e2e44" d="m108.5 70 2.5.5-2.5.5zm-29 2q3.3-1.1 2.5 1.5L76.5 80l-.5-4q3.8.8 5-2.5zm55 1 6.5 9.5 5 14-1.5-.5-3-1-4 10-7-5-5 10-3.5-10.5-4.5-5.5-6.5-1.5 8.5-3.5L133 76.5zm-97 2-1 2zm-2 3-1 2zm115 12 4.5 6.5-3 2zm-123 2-.5 1.5-2.5 4.5.5-1.5zm88 10 1 2zm32 0 .5 2.5h-1zm-30 3 1 2zm26.5 2 3.5 2 1-2 3.5 28.5q2.3 6.8 7.5 10.5l12 1 5-1 2.5 4-6 3.5-9 15-4.5 4.5-9 1-4.5-5.5v-16l-1.5-1.5q-3.7-.7-4.5 1.5v14l4 19-1.5-.5-2.5-1.5v-2l-8-18-1-35 2-10 3-7.5 6.5 2q2.8-1.4 1.5-6Zm17.5 11-1 2zm-50 3 1.5.5-2.5 1.5z"/><path fill="#2e2e44" stroke="#2e2e44" d="M162.5 125q.4 9 3.5 14 3-1 2 2-6.3 1.5-8-2.5l-3-10zm-101 2 2 3zm-50 5 .5 2.5h-1zm38 2 7.5 8.5v5.5q-2.7 1.1-2-1.5zm22 3-1 2zm45 0-.5 1.5-7.5 12.5-.5-4.5 1-4-.5-1.5q1.5 2.5 3-1zm10 2 .5 4.5h-1zm-65 1 2.5.5-2.5.5zm66 15 .5 2.5h-1zM45 156l9 5.5v11L50 185l-10.5 1-1.5-2.5 3.5-4.5 3 1q2.5-1 1.5-5.5h-2l4-8-2-2zm-23.5 4-1 2zm57 2 2.5.5-2.5.5zm51 1 .5 2.5h-1zm-111 1-2.5 3.5-2.5 3.5 1.5-2.5zm105 3 4.5 11.5 9 10q-3 1.3-2 5.5-3.8 1.5-3-1.5l-3.5-2.5-9.5-.5v-2l.5-7.5.5 4h5v-4.5l-3-10zm-111 5-.5 1.5-.5 1.5-.5-1.5zm31 4-1 2zm22 7 7.5 5.5-2 .5-1.5 3q-2.2-.7-1.5 1.5l-6.5 6.5H56l-1-6.5zm41 0 6.5 4-.5 6q.3-7.3-5-9zm-4 1-1 2-1.5-.5zm91 1 1.5 2.5h-1l-.5-1.5-3.5 2.5zm-97 2-1 2zm99 2 .5 2.5h-1zm-6 1 1.5 10-10-.5zm7 3 .5 2.5h-1zM15 194l3 1.5h-2l-.5 4.5zm96.5 0 .5 5.5h-1zm-92 2q2.8 4.5 10.5 3l.5-2 2.5 1-.5 2H21zm22 3 6.5.5-6.5.5z"/></svg>