<svg xmlns="http://www.w3.org/2000/svg" width="200" height="200"><path fill="#000103" stroke="#000103" d="m97.5 36 9.5.5-9.5.5zm11 0 5.5.5-5.5.5zm-16 1 3.5.5q-19 3-28 16L63.5 64l-.5-3.5L71.5 48q7.8-8.2 21-11Zm23 0 7.5 2.5-1.5.5-6-2zm9 3 3.5 1.5-1.5.5zm21 0 10.5.5-10.5.5zm-7 1 4.5.5-4.5.5zm-7 1 2.5.5-2.5.5zm29 0 5.5 3.5-2.5-1.5q-3.7-.2-3-2Zm7 4q6.4 3.6 8.5 11.5h-1l-2-5zm9 13 .5 2.5h-1zm-136 5 2.5.5q-6.8 1.2-10 6L30.5 76l-.5-1.5 4-7.5zm10 0q7.2.3 11 4l1-3 .5 4h-2.5l-4-3-6-1zm127 0 .5 6.5h-1zm-3 10-1 2zm-145 3 .5 4.5h-1zm143 3q2.3-.7 1.5 1.5l2 5h-1zm-144 4 .5 2.5L16.5 104l-.5-1.5q8.6-6.9 12.5-18.5Zm148 5 .5 2.5-1 2 2.5-1.5 3.5.5-7.5 4.5-6.5-1 .5-4 6 4q2.8-1.2.5-2.5zm-10 3 .5 8.5h-1zm-151 13 .5 3.5h-1zm0 5 1.5 7.5 5 10-1.5 4.5-.5-3.5 1-3q-6.4-5.4-5.5-15.5Zm4 23 .5 4.5-1.5 8.5-.5-7.5zm31 3q2.3 2.8 1.5 8.5h-1zm-33 14 .5 2.5h-1zm168.5 0q3.7-1.5 3 1.5v2l1 5-2 5.5-2-.5q3.6-1.9 3-8zm-167.5 7q-.5 7 3.5 9.5l-2-1q-3.4-2.5-1.5-8.5Zm169 8 2.5 6.5h-1zm-165 3 6.5 7.5-5-4zm168 5 .5 5.5h-1zM24 176l2 .5-2 1zm165.5 4 .5 2.5-1 3q3.2 2.3 2 9h-1v-6l-2-5zm0 16 .5 2.5-2 1z" opacity=".051"/><path stroke="#000" d="M0 0h200v105.5l-2-1-6-14.5q-5.8-1.5-7.5 2h-6l-4 4-.5-2q2.7 1.1 2-1.5l1-3-3-9.5q-2.7 1.1-2-1.5l3.5-4.5q2.6.8 1.5-2.5 2.5-1.5 1-7l-4-12-6.5-6.5-12-6h-10l-8 2h-9l-15-6h-16l-12 3Q76 42.5 70 49.5l-7 11-1.5 7.5q-6.3-6.2-21-4L34 67l-3 4.5-4 17-11 14-1 12 6 13-3 11q1.4 8.9-1 14l1 1v9l10 13-4 .5q1.1 2.7-1.5 2L8 186v6.5l2 7.5H.5l-.5-.5z" opacity="0"/><path stroke="#000" d="m167.5 91 .5 5 4 .5-2 1 .5 1.5-3.5 1zm31 52 1.5.5V200l-11-.5q2.9-3.6 2-11l-2-5q2.7-3.3 2-10l-2-7-2-2 3-6v-3l-2-3 1-2.5-3-.5z" opacity="0"/><path fill="#070506" stroke="#070506" d="m96.5 37 4.5.5-4.5.5zm15 0 3.5.5-3.5.5zm8 2 11.5 3.5-4.5.5-7-3zm-34 1 1.5.5-5.5 2.5v-1zm58 1 5.5.5-5.5.5zm7 0 6.5.5-6.5.5zm-16 1 6.5.5-6.5.5zm24 0 3.5 1.5-1.5.5zm-79 1-1 2zm84 1 1 2zm-87 1-3 4zm90 1 7.5 8.5-2-1zm-95 4-3 4zm-4 5-1 2zm107 1 1.5 4.5h-1zm2 6 .5 9.5-1.5 2.5-.5-1.5 1-1zm-133 2 6.5.5-6.5.5zm20 0 .5 3.5h-1zm-27 3-3 4zm22 0 3.5 2.5-1.5.5zm-28 9 .5 3.5h-1zm142 5 2.5 4.5h-1zm-143 1 .5 3.5h-1zm146 5 .5 4.5h-1zm-149 4-1 2zm143 1 4.5 2.5-2.5.5zm-145 2-2 3zm-3 4-3.5 4.5-1.5 3.5-.5-1.5zm144 0 .5 3.5h-1zm-149 14 .5 2.5h-1zm4 11 1 2zm29 11q2.8 1.2.5 2.5l-.5 4.5zm-30 4 .5 2.5h-1zm159 1 5.5 7.5-2 .5zm-126 2 .5 6.5h-1l-2-5h1l.5 2.5zm-34 5 .5 10.5h-1zm165 2 2.5 1.5-.5 1.5zm3 4q3.1 1.4 2.5 6.5l-1.5 2.5-.5-1.5 1-4zm-167 9 1.5 2.5-2-1zm167 3 1.5 3.5h-1zm-165 1 3.5 4.5-3-2zm4 6 3 4zm164 1 .5 7.5h-1zm-1 9 .5 1.5-1.5 2.5-.5-1.5zm1 7 .5 7.5-2.5 4.5-.5-1.5q3.4-3.1 2.5-10.5Z" opacity=".918"/><path fill="#5d4640" stroke="#5d4640" d="m101.5 43 8.5.5-8.5.5zm5 5q7.2.9 9.5 6.5l2 4.5h-4v1.5q3.3 4.8 11.5 4.5l1-1 11-1 3.5-3.5 1-5.5q6-1.2 8.5 2 2.6-3.4 10-2l6 4 1.5-.5 2 8v8l3 4-1.5-.5-6-4h-6q-3 .5-2.5 4.5l1 2.5q-4.7.5-7 4.5.8 2.6-2.5 1.5l-4.5-2q1.3-3.3-3.5-2l-3 2-7.5-1.5 2-.5-6.5-13q-.9 5.6-5 8-3 3-10 2l-10-12-6-2-8 4-4.5 4.5q2.3 1.3-.5 2.5l-4 3 1.5-2.5 7.5-8.5 3.5-1.5-6.5-1.5-3 1 .5-1.5 6-9.5 9.5-5zm55 3 1 2zm-87 5-1 2zm-5 13 .5 1.5-3.5 2.5v-1l2.5-1.5z" opacity=".996"/><path fill="#5d4640" stroke="#5d4640" d="M87.5 72q6.9-.9 8.5 3.5l-.5 2.5-1.5-4-6.5-1-2 1v-1zm-49 3q1.3 2.2 6 1l5 4h6v-1L53 77.5l5.5-.5q10.1 2.4 15.5 9.5l-1 2 .5 1.5q-4.1-3.9-13-3l-10 3-14 9 1.5-2.5-1-1-1.5-5.5-1.5.5 2-2 2-8v-2zm58 5 .5 3.5h-1zm1 5 .5 3.5h-1zm38 2-.5 1.5-.5 1.5-.5-1.5zm-37 3 3.5 6.5-3-2zm-68 7-1 2zm-2 3-4 5zm7 0-9 10-3.5-1.5 4.5-.5zm6 4 .5 1.5-5.5 4.5zm55 2 1 2zm73 33 3 4zm-20 8-4 5zm-32 3q2.3-.7 1.5 1.5zm24 5-1 2zm27 1 7.5 2 1 6.5-2.5 3.5-16.5 13-8 12.5-1 6.5-23-.5q2.8-.7 2-5l-.5-1.5 2.5 1 .5 3 .5-2q5.4 1.5 7-1.5l5-14-1-2.5 2-.5V170l-8-.5 7.5-5.5h6l6.5-3v3h6v-5.5l1.5-.5zm-5.5 8v9l3-2-3-1zm4 0v4q3 1 2-2l3-1zm-19 12 1 3-1 2 3 1v-6zm8 0-1 3h1zm25.5-6q2.3 2.8 1.5 8.5l-2-1-2-5z" opacity=".996"/><path fill="#5d4640" stroke="#5d4640" d="m134.5 172 3 2v1l-4.5-1.5zm-98 10 1 2zm92 0 1.5.5-1 2.5-3-.5z" opacity=".996"/><path stroke="#000" d="M101.5 37q16.3-.8 25 6h14l9-2 13 3 9.5 8.5 4 9v10l-1 2.5-4-1.5q.7-13.5-5-19.5l-11.5-6h-9l-9 2h-8l-16-6h-15Q82.3 45.8 74 55.5q-4.8 4.7-5 14L66.5 72 63 69.5l3-12 6-8.5 15.5-9z" opacity=".996"/><path stroke="#000" d="M42.5 65q14.7-1.7 19.5 6.5 1.8 5.3-3.5 3.5l-6-4-8-1-6.5 3.5-4 17q-4.5 9.5-12 16v6l2.5 4.5q5.2-12.8 16-20 9.5-7.5 25-9l7.5 3 1 2.5q-.7 2.3-4.5 1.5-2.5-3.2-8.5-2l1 6.5-2 4 5 6-4.5 3.5-.5-2-2.5-1-2.5 6.5v2q-4.8 5.2-3 17l1 2.5 5 3.5q-1.4 10.4 4.5 13.5h9l23-4 30-9 32-15 5.5-5.5 1-9-4-7.5q-2.6-2.7-9.5-2l-5.5 3.5-2 5.5-2.5 1q-3.2-1.7-1.5-8.5-3.2-2-3-6.5l10.5 1q2.7-2.8 9-2l5.5 2v-7.5l1.5-.5 2-1q3.3 1.7 2.5 7.5-2.2 1.3-1 6l3 6v14l-3 4.5-5.5 4-20.5 9q-1.1 2.7 1.5 2l4 1q8.7-9.3 22-14l12.5 10.5 3 6.5 2 .5-1 1 3 3 2 7-2 7q4.5 4.5 3 15l-2 4q3.6 2.9 2 11l-2 4.5-8-.5q4.4-2.1 5-8l-3-8q3.8-2.3 3-9l-5-11 3-4v-4L172 140l-6.5-4q-14.6 6.9-24.5 18.5l-12 17-4 12v6l-2 8 1 2.5h-6v-13.5l3-11 5-10 13-17.5-6.5-2h-5l-28 10-10 1-17 4h-8l-1 1-11.5-6.5q.8-2.2-1.5-1.5L44 143.5l-1-14 4-4 5-18.5q-5.6.7-8.5 5H40l-1-2.5 3.5-4.5q5.3-4 13.5-4v-5h-1.5q-13.9 5.1-21.5 16.5l-2 7 8 7-1.5 5.5-3.5-2.5q.8-2.2-1.5-1.5l-1.5-3-3 1.5-3 12v13l-1 1 2 10L41.5 179 70 195.5l-2.5 4.5H62q1.5-3.8-1.5-3Q42 189 29 175.5l-10-15v-19l3-12v-5q-6.1-5.9-6-18l11-15 3-6 1-10 6.5-8.5zm7.5 69q-2 9 2 14h1l-1-10zm110.5-60q9 0 11.5 6.5 4.3 4.4 3 13.5-3.8 1-5-1.5-.1-8.4-5.5-11.5l-5.5-3.5z" opacity=".996"/><path stroke="#000" d="M82.5 77q6.3-1.2 7.5 2.5l2 11 8.5 11.5 2.5 1.5-2.5 5.5-8.5-7.5-6-11-1-7.5-6 4.5q.8 4.8-2.5 5.5-2.2.8-1.5-1.5-2.2-1.2-1-6l3-5.5z" opacity=".996"/><path fill="#503e38" stroke="#503e38" d="m164.5 53 2 3zm-73 12 2 1h2l5 1 6.5 6.5 3.5 5.5h6l7.5-5.5 1.5-4.5 6.5 13q-9.5.8-15 6.5l-1 2V102l-3.5 1-2.5-6-8 1-4-8.5-2-14-2.5-2.5-6-1-3.5 2.5q.8 2.3-1.5 1.5l-5 4 3-4 2.5-1.5-1-1 4.5-4.5 5.5-2.5zm-29 5 1 2zm97 3-1.5 2.5q-.5 4 2.5 4.5l6.5 4.5q.8 2.6-2.5 1.5l-2-1-4.5 1q2.1 3.3 1 11.5l-1.5-.5-6-1q-5.7 3.3-16 2-3.5-1-2.5-6.5l3-5.5 4-1.5q-2.2-1.2.5-2.5h3.5q-1.1 2.7 1.5 2l5.5 2 3.5-5 3.5-1-1-4.5zm11 0 2 3zm-133 7 .5 2.5-1.5 2.5-.5-1.5zm23 7 6.5.5-6.5.5zm-3 1 1.5.5-5.5 1.5v-1zm-16 7-1 2zm-4 1q3.5 2-1 4zm56 7 2 3zm-43 4q2.3-.7 1.5 1.5zM23 109l3.5 1 1.5-.5-3.5 5.5q-2.7-1.4-1.5-6Zm9.5 11 1 2zm76 33 4 5zm60 19-2 3zm10 1 2.5 3.5-5 3q.8 2.6-2.5 1.5l-1.5-1.5zm-38 3 1 2zm2 3 .5 2.5h-1zm-15.5 1 4 2.5-1 3.5-2-.5 2-3-1.5-.5-2.5 1.5zm41.5 2 2.5 4.5-13 8.5 1-3.5zm10.5 9h4v3.5l-3.5 3.5-3 2h-13l2-3 7-3 4 2zm-41.5 2-1 2z" opacity=".996"/><path fill="#411a26" stroke="#411a26" d="m146.5 47 7.5.5-7.5.5zm16 4 1 2zm-101 19 3.5 1.5h-2l-.5 2.5zm105 4 1 2zm3 2 2 3zm-133 4 .5 2.5h-1zm7 14-1 2zm-15 5-1 2zm62 0 1 2zm-68 8 .5 3.5h-1zm5 3-1 2zm-4 4 1 2zm157 46-.5 1.5-1 3 3 5-2 .5-8 9.5 4 1.5 2.5-4h2.5v2q2.7-1.1 2 1.5-3 1-2 6l2 4.5h-4v1.5l-2.5 3.5-6-2-8 6H149v-3.5l4-9 12.5-12.5 10.5-8.5zM169 182l-10 10-1 3 13-8zm-39.5-11 .5 2 5 1.5-.5 1.5 3-1 4.5 3.5v5l-6.5 11.5-11.5-2 1-9.5zm-2.5 9-1 5 4 1 1-3zm55.5 15-2 3zm-4 3-1 2z" opacity=".996"/><path fill="#f0d6b8" stroke="#f0d6b8" d="m52.5 98 1.5.5-4.5 2.5 1-2zm133 2q4.1 2.7 3.5 8l-9 5.5q.5 5-3.5 5.5l-4.5-12zm-32 5h2l5.5 5.5 1 7-4.5 7.5-18 9-5 1-4 3-25 9-12 3-15 1-9.5-6.5 1.5-3.5q9.9-.6 13.5-7.5 4.5-5.7 3-16.5l9.5 5h4.5q-1 4.7 2.5 6 12.8 1.8 20-2l12.5-10.5 1.5-2.5q2.3 3.2 9 2l1.5-.5q-3 1-2 6 .5 3 4.5 2.5l4.5-3.5 2-7q-1-3.5-6.5-2.5l-1.5.5z"/><path fill="#f0d6b8" stroke="#f0d6b8" d="M123.5 109q2.7 1.2.5 2.5-.4 5.6-4.5 7.5l-5 2-5.5-2.5 1-3.5zm-86 1 3 4 5-2 .5 4q-2.7-1.1-2 1.5-3.9 2.1-3 7.5h-3q1.1-2.7-1.5-2l-4.5-5.5zm136 10 1.5.5-7.5 4.5.5-1.5q-.8-2.6 2.5-1.5zm-109 7q7-.7 10.5 1l-2 6q-8.8 2-11-3.5l-1-2zm-1 14 2.5.5-2.5.5zm-30 41 3.5 1.5.5 2.5h2l2.5 1.5-3.5.5-10 7-5.5 2q1.5 4.5-3 3l-3-8.5z"/><path fill="#87f3f4" stroke="#87f3f4" d="m130.5 83 7.5 1.5-4 3-2 6 5 12v8l-8.5 9.5-11 5h-14l-2.5-2.5v-15q1.5-9 7.5-13.5 3-.9 1.5 3.5l2.5 3.5 4.5-3.5q-2.5-12 4.5-14.5zm-7.5 21-14 6q-6 2-5 11l8 5q7 1 11-3l4-4 3-9-1-4q1-3-6-2Zm-68.5-6 .5 2-2-.5zm131 1 1 2h-2l-12.5 6 4.5 12 5-7 7.5-4 .5-2 10.5 19.5v8.5l-9.5 5H187l-4.5-9-8 4-7-5H165l2.5-4 3.5-2.5-2-1 6-2.5v-3.5l-4-8zm-104 2q6.8 8.7 5.5 25.5-2.2 8.3-8.5 12.5l-12 3q-1.5-2.5-7-1l-5.5-4.5-1-10 5-10-1-4.5h2q-1.1 2.7 1.5 2l9-6 .5 2.5v2l1.5 2.5h3l3.5-2zM66 122q-7 1-10 6l3 8 7 3q7 1 10-2l4-5-1-5-4-4-7-1z"/><path fill="#87f3f4" stroke="#87f3f4" d="m187.5 102 1.5 2.5h-1zm-138 6 1.5.5-5 17-1.5 1.5-4.5-1.5 4-9.5h2v-5.5l1.5-.5zm74 0q3.8-1.2 2.5 2.5l-5 9.5q-2.6 2.7-9.5 2l-3.5-2.5v-3l4.5-4.5zm.5 1-14 6-1 4 6 2 5-2q4-2 4-7 2-2 0-3Zm-58.5 17q7.6-1.1 10.5 2.5.8 4.8-2.5 5.5l-.5-1.5q2.8-1.1 2-4.5l-9.5-1zm-4 1 2.5.5-3 1 4.5 5.5 6.5.5-6.5.5-4.5-3.5-1-3zm89 9 1.5.5-9.5 6.5-1-2zM65 166l5.5 1 1-1h8l8.5 7.5-1 2 1 2-4 14v4l-2.5 4.5-12.5-.5q3.7-4.3 3-11.5H58.5l-4.5-2 6-10 10.5 4H75l1-6-11-5.5zm-33.5 16 1.5.5-7.5 4.5 1-2zm66.5 2q2.7-1.1 2 1.5l3.5 3.5H115v11H95.5l.5-1.5v-6zm-59.5 4h4l13 8 5.5 1-.5 3H23q-1.5-3.8 1.5-3z"/><path fill="#24cfd5" stroke="#24cfd5" d="m132.5 83 3.5.5-3.5.5zm-12 3-2 3zm-4 6 .5 5.5h-1zm60 11-1 2zm-54 1q7-1.5 6.5 1.5l1 4-3 9-4.5 4.5q-3.2 3.8-11 3l-7.5-5.5q-1.5-9 4.5-10.5zm1.5 4-11 4-5 5v3l4 2q6 1 9-2l5-9q1-4-2-3Zm25.5-4 4.5.5-4 3-3 7.5h-5v-1.5l2-5 3.5-3.5zm40 0 2.5 4.5-2-1zm-124 18h2l7 1 4.5 3.5 1 5-4.5 5.5q-3 3-10 2l-6.5-3-3-8.5q2.9-4.6 9.5-5.5Zm.5 4-6 3 1 3 5 3 8-1q3-1 2-5-3-4-10-3Zm98.5 2 .5 2-2-.5zm16 2 3.5 1.5 1 2-3.5-2.5zm-2 1-1 2zm-139 3q3.8-1.2 2.5 2.5 2.5 1.5 1 7l3 6-2-1-4-9zm159 0 1.5.5-6.5 3.5 1-2zm-46.5 1 2 .5-2 1zm-5.5 3 2 1 1.5-.5-5.5 4.5 2.5-3.5zm45 0-1 2-3.5-.5zm-51 3 1 2zm-13 6q7.3-.8 10.5 2.5l-2.5 1.5-7-2zm-81 4L59 161.5q.8 2.3-1.5 1.5l-8.5-7.5zM67 161h4.5l6.5 4.5-10.5 1.5-2.5-1.5zm-2.5 6 1.5 2.5-2 .5zm-36 16-1 2zm-3 2-1 2zm18 3 1 2zm5 3 1 2z"/><path fill="#b3a292" stroke="#b3a292" d="M99.5 44q10.3-1.8 15.5 1.5L96.5 49l-5 3-11 3-7 5 .5-1.5 5.5-6.5 11-6zm26 5 2 1h11l3-1v1l-11 2-5-2zm-83 23h9L66 78.5l-1.5.5q-3.2-3.8-12-2v2h-3l-3-3-6.5-2.5zm41 12q3.2 17.8 16 26l2-1-.5 1.5-1 9 1 2.5h-4.5l-9.5-5-2-10.5-3.5-5.5-1.5 7.5-4.5 5.5-4 1q-2.9-1.6-2-7l-3 2-5.5-6.5q2.7-2.3 2-8l-.5-1.5 10 3 6.5-4.5q.6-5.9 4.5-8.5Zm52 2-1 2zm-86 13 1 2q-1.5-2.5-3 1l-1.5-.5zm107 6 4 5zm-5 1-1 2zm-114 3 1 2-1-1-2.5 1.5zm113 1q5.5-1 6.5 2.5v3l-4.5 6.5-4 1q-3.5-1-2.5-6.5zm-105 1-1 2zm-6 1 3.5 1.5-2.5.5zm-5 1-1 2zm-2 6 5.5 4.5-1.5.5zm138 12 1 2zm-5 6 8.5 7.5 4 7-8.5-7.5-7 2-18.5 12q1.1 2.7-1.5 2l-6.5 5.5-2.5 3.5.5-1.5 4-8 14.5-14.5zM59 141l10 1q-.7 4.7 3.5 6 3.8 4.2 13 3l5-1v1l-18 2-1 1h-8q-6.3-3-4.5-13Zm54 11h4v7l-4-1-1-3.5zm-31.5 15 1 2zm-17 3h3l8.5 4-1 6h-4.5l-9.5-4zm21 0 2 3zm3 4 10.5 9.5-3 9v6l-1.5 1.5-12.5-.5 2-4 4-19q-2.2-1.2.5-2.5Zm-29 3-1 2zm-2 3-3.5 4.5-.5 1.5-.5-1.5zm-19 4 1 2zm62 1 1 2zm-41 3H72v4.5l-1.5 3.5-2-3-9-4zm52 0q5.3-1.2 6.5 1.5l-1 1v9.5l-2-.5V189h-3.5z"/><path fill="#1b62a1" stroke="#1b62a1" d="M186.5 90h5.5v2.5l8 15v16h-1L187 99h-2.5l-13.5 7v3.5l4 8-6.5 4.5.5-1.5v-10q-2.8-2.7-2-9l4-3-.5-1.5 3-1q1.5 2.5 3-1zm-157 36 8.5 7.5-3 .5-4 11.5v2l-1 15 1 3-3-2q-4.5-5.5-3-17l1-1 1-13zm12 2 1.5.5-1 5.5-3-.5zm11 1 .5 2.5h-1zm127 2q5-.5 5.5 3.5l2 5.5h3.5l9.5-5v7.5l-1.5.5-12 6-10-13-2.5-1.5zm-23 2 1.5.5-2.5 1.5zm-117 2 2.5 9.5-2-1zm3 11 2 3 1.5-.5-.5 1.5 1.5.5-1 1 3 3 5.5 6.5 4.5 2 .5-2q1 3 6 2l1.5-.5-2.5 4.5q-3.2-4.1-10.5-3 1.5-3.8-1.5-3l-1.5-3q-4.1 1.7-3-2.5l-6-8zm84 1 2 2 6.5 1v2.5l-5.5 6.5q-2.2-.7-1.5 1.5l-2 1q.6-4.6-2-6zm-54 14 1 2zm7 4 1 2zm4 3 1 2zm-57 8h2l4.5 4.5-16 9.5q-.6 6.4 2 10h-8.5l-.5-2.5q-3-4.2-2-11.5zm21.5 0 3 .5-3 2zm44.5 0 3 4zm16 12 2.5.5-2.5.5z" opacity=".961"/><path fill="#1a1f2c" stroke="#1a1f2c" d="m78.5 51-4 5zm92 13 .5 7.5h-1zm-126 6 3.5.5-3.5.5zm24 0-1 2zm-29 2-1 2zm120 2-.5 1.5 2 4-3-2zm-77 2 4.5.5q-6.2-.2-8.5 3.5l2-3zm86 0 2 3zm-80 1 1 2zm76 4 2 3zm5 8 .5 2.5h-1zm-5 1 1 2zM73 91l2 .5-2 1zm86.5 1 .5 7-2-.5zm-65 2 1 2zm-56 4-7 8zm59 0 3 4zm-71 3-1 2zm18 0-1 2zm122 0-.5 1.5-.5 1.5-.5-1.5zm-105 4 1 2zm84 0-1 2zm15 3 1 2zm-18 2 .5 1.5-2.5 1.5v-1q2.5.7 2-2Zm-108 1-1 2zm128 1 .5 2.5h-1zm-139 3 1 2zm11 7 1 2zm8.5 5 2 .5-2 1zm120.5 1-1 4q-3.5-2 1-4Zm-125 2 .5 3-3-1.5h2zm-12 2 .5 2.5h-1zm144 0 1 2zm3 2 4 5zm-8 2 2.5 1.5-1.5-.5zm-122 1 .5 2.5h-1zm-18 1 .5 3.5h-1zm124 1-2 3zm7 2-1 2zm-98 1 .5 6.5h-1zm95 1-2 3zm-31 5q3.3-1.1 2.5 1.5l-1 2.5-6 2 1-5zm-76 1 1 2zm92 0-4 5zm40 1 1 2zm-118 2 3.5 2.5-1.5.5zm83 0-2 3zm-37 1 4.5 3.5q.8 2.3-1.5 1.5l-5 1-4.5-3.5zm-38 1 3.5.5-3.5.5zm65 1-2 3zm-38 1 2.5.5-2.5.5zm-6 1 4.5.5-9.5 1.5v-1zm49 1-1 2zm-59 1H83q-1.1 2.7 1.5 2l2 3-7 1-2.5-1v-2q-5.2 1.7-4-2zm51 0-2 3zm-104 2 2.5 3.5-3-2zm109 1-1 2zm-8 1-1 2zm-68 2q1.1 2.8 4.5 2-3.2 11.1-12 17.5l.5 1.5-4.5-3.5 1.5-3.5 2.5-1.5zm-30 1 2 3zm94 4-.5 1.5-.5 1.5-.5-1.5zm-84 6 2 3zm-7 2 3 4zm12 2 2.5 1.5-1.5.5zm74 3 .5 2.5h-1zm65 8 .5 2.5h-1zm-60 3 .5 3.5h-1zm56 4-1 2z" opacity=".996"/><path fill="#26486e" stroke="#26486e" d="m87.5 73 6.5 1 2 4.5 2 14 4.5 5.5q4.4-1.5 3.5 1.5l-3.5 3.5-6.5-6.5q-4.8-5.7-5-16L88.5 77 84 76q-1.2-3 2.5-2zM159 86h8.5l.5 1.5 1 3.5-2.5 1q-1.4-3.2-6.5-2l-.5 2zM55.5 98l.5 1.5-2.5 1.5v-1q2.5.7 2-2Zm111 4 .5 2.5h-1zm-15 1 2.5.5-2.5.5zm-14 2 .5 6.5h-1zm31 5 .5 10.5h-1zm-109 2 1 2zm-30 13 3 4zm23 1 .5 2.5h-1zM39 128l2 .5q-2.9 3.6-2 11 2.6 9.9 9 16v2.5q3.7-1.5 3 1.5l3 1.5q-1.8 5.3 5.5 3l4.5 2.5-2.5.5q-1.8-3.7-3.5-.5L50.5 179l-2.5 1.5-.5 1.5L32 169.5l-3-4h2q-2.4-5.1-1-14l2-5v-2l3-10.5 4-1.5zm9 48v3l3-2z" opacity=".996"/><path fill="#26486e" stroke="#26486e" d="m42.5 129 .5 5.5h-1zm-8 1 2 3zm133 0 2.5 1.5-1.5-.5zm-7 1 1.5.5-3.5 1.5v-1zm-108 1 .5 2.5h-1zm102 2 .5 1.5-2 1zm22 2 1 2zm-25 1-1 2zm-108 3 .5 2.5h-1zm96 1 1 2zm7 0-1 2zm-121 1 .5 3.5h-1zm19 3 1.5 2.5-2-1zm81 2 .5 2.5-2 7q2.8 1.3 2.5 5.5l1.5-3 2.5-1-2.5 3.5-6 10-4 12-.5 5.5-1-1h-8l-3 1-4.5-3.5q.8-2.2-1.5-1.5l-7-8L80 165.5l7-2-4-2.5q-1.4-4 5.5-2l12-3 4 3h4l3-2 5.5 3 1-6 6-2zm59 0 1 2zm-137 4 2 3zm86 3-1 2zm-73 7 5 1 1.5-.5q-1 2.5-5.5 1.5zm14 1q3.3-1.1 2.5 1.5l-1.5-.5zm-13 11-.5 1.5-1.5 2.5.5-1.5zm-32 3 4 5zm28 3-2 3zm-4 4-1 2zm64 8 .5 8.5h-1z" opacity=".996"/><path fill="#8a5d58" stroke="#8a5d58" d="m96.5 44 2.5.5-2.5.5zm19 1 11 5 5-1v1l-4.5.5 7.5 1.5 5-1 4-3h11q8.1 2.4 12.5 8.5l-.5 1.5q-3.1-5.4-13-4l-4 2q-1.7-3.5-7.5-2 .3 6.5-4.5 9l-15 2-6-2-2.5-2.5V59h4v-1.5l-7.5-8.5-4-1q-1.3 2.2-6 1v-1h5zm-29 2 1.5.5-3.5 1.5v-1zm10 2 2.5.5L87 55l-7 10.5 2.5.5 4-1 3.5 1.5q-7.5 2.5-11 9L73.5 86 65 79.5l.5-1.5-2 1-1-3-1.5-.5 2-.5q-1.5-3.8 1.5-3l3 1 2.5-2.5q-1-9 3.5-12.5h2z"/><path fill="#8a5d58" stroke="#8a5d58" d="m133.5 49 5.5.5-5.5.5zm-52 1-1 2zm-3 2-3 4zm-35 19 6.5.5-6.5.5zM39 74l5 1.5-5 .5zm6.5 2 4 3h3v-2l3.5 2.5-6.5.5zm14 1 2.5.5-2.5.5zm-24 13 1.5 7.5-9.5 10.5q-5.4 1.9-4.5-1.5Q31 100 35.5 90Zm43 2-1 2zm-16 3 .5 4.5h-1zm26 2 1 2zm2 3 1 2zm-46 2 1.5.5-3.5 2.5zm113 3 1 2zm-94 1 1 2zm35 2 1 2zm-54 3-1 2zm115 12-1 2zM40 126q3-1 2 2-3 1-2-2Zm117.5 15-1 2zm9 3h3l8 8 1.5-.5 3 6-4.5 6.5-1.5-6-7.5-2-6.5 2 1 12 3 .5-3.5 2.5-.5-9h-6q1.5-3.8-1.5-3l-5 3-5 1h-2l-6.5 4.5 8 .5v7h-3q1.3-3-2.5-2l-2.5-1q1.1-2.7-1.5-2l-4 1 .5-1.5 2.5-5.5 1 2 4-5 5.5-3q-1.1-2.7 1.5-2l10-8zm8 1 1 2zm2 3 1 2zm-116 3 2 3zm55 0h2.5v6.5h-1q1.3-6.1-1.5-5.5zm-36 1 2.5.5-2.5.5zm33 0 .5 1.5v2l-.5 1.5-3-4zm32 0-2 3zm-72 1 2.5.5-2.5.5zm42 5 2.5 1.5-1.5.5zm21 5-1 2z"/><path fill="#8a5d58" stroke="#8a5d58" d="m167 164 5 .5-3 1.5q1 3-2 2zm-19 12h3v6l-3-1.5 1-2zm7.5 0 .5 2.5h-1zM124 193l4 1.5q.8 4.8-2.5 5.5l-1.5-.5z"/></svg>