<svg xmlns="http://www.w3.org/2000/svg" width="200" height="200"><path fill="#170f13" stroke="#170f13" d="m42.5 31 1.5 2.5-2-1zm119 1q2.3-.7 1.5 1.5zm-3 2-1 2zm-66 3-1 2zm30 0 3 4zm31 1-2 3zm-65 2-1 2zm-48 2 .5 2.5h-1zm88 1 2 3zm17 2-8 9zm-64 2-1 2zm24 0 2.5.5-2.5.5zm26 0 1.5 3.5-8 7 7-7v-2zm-22 1 1 2zm-7 1-2 3zm-63 1 .5 3.5h-1zm73 0 1 2zm-34 2q-.1 5.1 3.5 6.5l-4-3zm20 0-2 3zm17 0 3 4zm-21 3-2 3zm10 0-1 2zm5 0 1 2zm-9 3-1 2zm-26 1 5 6zm15 0-1 2zm-26 1-1 2zm52 0 3 4zm39 0 1.5.5-2 .5-.5 2-.5-1.5zm-58 1-1 2zm50 0-1 2zm-17 1-2 3zm32 1 1 2zm-69 1-1 2zm73 3 1 2zm-48 1-1 2zm7 0-1 2zm12 4-5 6zm-86 1 .5 2.5h-1zm6 2 .5 3.5h-1zm87 0-1 2zm26 1 .5 11.5h-1zm-31 3-2 3zm-11 1-1 2zm-76 4 .5 5.5h-1zm56 0-.5 1.5-.5 1.5-.5-1.5zm15 0-1 2zm-85 1 1 2zm93 0-2 3zm-11 1-1 2zm-4 3-1 2zm-68 1 1 2zm10 0 .5 3.5h-1zm65 1-1 2zm-85 1 .5 3.5h-1zm131 0 .5 2.5h-1zM109 93l2 .5-2 1zm-58.5 1 1 2zm68 0-1 2zm-73 3 1 2zm69 0-2 3zm-66 4 1 2zm60 1-1 2zm37 1 2 3zm22 1 .5 2.5h-1zm-64 2-4 5zm45 1 2 3zm-85 1 2 3zm77 0-1 2zm-49 1-6 7zm79 2-1 2zm-111 2 1 2zm35 1-6 7zm80 0 1 2zm-112 1 1 2zm10 0 1 2zm64 0-1 2zm9 1-2 3zm-70 1 1 2zm76 1-2 3zm-10 3-3 4zm36 0 .5 10.5h-1zm-30 2-2 3zm-70 2 3.5.5-3.5.5zm53 1-1 2zm3 4-1 2zm9 1 6 7zm-16 2-1 2zm-43 1 1 2zm45 0-3 4-2 1 .5-1.5.5-1.5 1 1zm8 1 1.5.5-15.5 12.5 2-3zm-84 1 1 2zm-7 2 1.5.5-2.5 1.5zm23 0-1 2zm73 1 4 5zm-66 1-1 2zm75 0 1 2zm-107 1-3 4zm5 0 1 2zm15 1-1 2zm49 0-1 2zm-41 1-1 2zm-21 1 1 2zm96 1 1 2zm25 2-2 3zm-133 1-.5 1.5-1.5 3.5-.5-1.5zm15 0 4 5zm67 0-1 2zm28 0 1 2zm8 1q1.5 4.5 9 3l2.5-1.5-1 4 1 2.5-5.5-1-1 3zm-51 1 .5 2-3-.5zm11 1-1 2zm34 0 1 2zm-90 2 2 3zm37 0 2.5.5-2.5.5zm16 0-1 2zm-24 2 2.5.5-2.5.5zm65 3 1 2zm-81 2 3.5 1.5-1.5.5zm90 0 .5 3.5h-1zm-73 1 3.5.5-3.5.5zm66 0 .5 1.5-2 1zm-76 1 7.5.5-7.5.5zm82 3-1 2zm-132 4 .5 6.5h-1zm112 0-1 2zm-101 2 3.5 1.5-1.5.5zm-3 1 1.5.5-2.5 1.5zm113 1 2 3zm-116 1-1 2zm-3 2-1 2zm14 0 4 5zm83 0-1 2zm17 0 1 2zm-6 1-1 2-4 2 1-2zm14 0 1 1H169q-.9 5.4 3 7.5l-2.5-1.5-9.5 1 2 5.5h-1q-2.4-8.6-6.5-13.5Zm-112 4 3 4zm22 0 .5 6.5h-1zm51 0 1.5.5-2 .5-.5 2-.5-1.5zm-62 1 1 2zm98 2 1 2zm-104 1 2 3zm13 1 1 2zm22 0 2.5.5-2.5.5zm33 0 .5 1.5-1.5 1.5h-13v-1h13zm-27 1 8.5.5-8.5.5zm-37 1 1 2zm20 1 .5 4.5 4 6-5.5.5-6.5-4.5 1.5-.5 3 2q3.2-2.3 3-8Zm53 1 .5 1.5-2 1zm-45 2 2.5.5-2.5.5zm5 1 5.5.5-5.5.5zm93 0 1 2zm-83 1 12.5.5-12.5.5zm17 0 7.5.5-7.5.5zm46 1 1.5 3.5h-1zm22 1 1 2z" opacity=".996"/><path stroke="#000" d="M0 0h200v200h-10.5l-1.5-1.5-12-18-2-27q11.5-10 10-33l-2-7-5.5-6.5-3.5-1 3-16.5v-14q-2-11-9.5-16.5l-7.5-4.5 9-18 3-14-2.5-1.5q-18 9-31 23l-9-10q-7.8-7.7-23-8Q85.7 29.7 76 43.5L72.5 49l-4-2-9.5 7.5-3.5 5.5-2.5-7.5v-5l-6-31-2.5-3.5q-4-.5-4.5 2.5l-5 19-1 14-1 1v10l-1 1v11l-2 3v10l1 1 1 18 10 29q-9.7 9.8-15 24l-3 11-1 11 1 5 3.5 3.5q3-.9 1.5 3.5l-3 9.5H.5l-.5-.5z" opacity=".004"/><path fill="#9845c4" stroke="#9845c4" d="m160.5 34-.5 1.5q-6.5 17-17.5 29.5l-13 7-.5-5.5 1-4L151.5 41zm-118 2 1.5 1.5v5l2 6 2 18-4.5 7.5-3.5-5.5v-17l1-1z" opacity=".996"/><path stroke="#000" d="m44.5 13 1 2zm-3 1-.5 1.5-.5 1.5-.5-1.5zm5 2 .5 3.5h-1zm-7 2 .5 2.5h-1zm8 3 .5 3.5h-1zm121 0 2.5 1.5-.5 2.5-.5-3zm-130 1 .5 2.5-1.5 3.5-.5-2.5zm126 1-1 2-5 3 1-2zm-116 3 .5 3.5h-1zm57 0 5.5.5-5.5.5zm64 0 .5 3.5-2.5 7.5-.5-2.5zm-70 1 3.5.5-8.5 2.5v-1zm14 0 2.5.5-2.5.5zm4 1 3.5 1.5-1.5.5zm39 0-2 3-5 4 4-5zm-120 1 .5 3.5h-1zm56 1-1 2-2 1 1-2zm30 0 4.5 3.5-2.5-1.5zm-73 1 .5 2.5h-1zm38 2-2 3zm-52 1 .5 4.5h-1zm93 0 9 10 10-9-9 10-4.5-3.5zm-78 1 .5 4.5h-1zm33 1-7 8zm-49 5 .5 5.5h-1zm17 0 .5 3.5h-1zm24 4-.5 1.5-1 3.5-5.5-2-4 3 2-3 4-1q1.8 3.7 3.5.5zm-23 2 .5 3.5h-1zm109 1-.5 1.5-2 5 .5 1.5q-2.6.8-1.5-2.5zm-128 1 .5 7.5h-1zm29 2L60 54.5 55.5 61q-2.6.8-1.5-2.5h1l.5 1.5zm-9 2 .5 3.5h-1zm110 4 1 2zm3 2q5.3 3.8 7.5 10.5h-1zm-134 1 .5 11.5-2 1 1-1zm142 11 .5 2.5h-1zm-144 3 .5 10.5h-1zm145 1 .5 14.5h-1zm-144 13 .5 9.5h-1zm143 3 .5 4.5h-1zm-1 6 .5 3.5h-1zm-141 2 .5 4.5h-1zm140 3 .5 3.5h-1zm-139 3 .5 2.5h-1zm141 1 5.5 4.5-3.5-2.5zm-140 3 1.5 5.5h-1zm146 3 1.5 2.5h-1zm3 8 .5 13.5h-1zm-145 2 2.5 5.5h-1zm1 13-1 2zm143 0 .5 2.5h-1zm-145 3-1 2zm-2 3-.5 1.5-1.5 2.5.5-1.5zm145 1 .5 1.5-5.5 8.5 1.5-2.5zm-149 6-.5 1.5-.5 1.5-.5-1.5zm-3 6 .5 1.5-2.5 6.5-.5-2.5zm145 1 .5 2.5h-1zm1 5 .5 8.5h-1zm-149 3 .5 2.5h-1zm-1 4 .5 4.5h-1zm151 5 .5 7.5h-1zm-152 2 .5 4.5h-1zm153 7 1 2zm-152 1 3 4 3.5.5-1.5 3.5-.5-3-5-3.5zm154 2 6.5 8.5-3-2zm-151 10 .5 2.5h-1zm158 0 2.5 3.5-2-1z" opacity=".843"/><path stroke="#000" d="m42 13 4 2.5L54.5 63l9-12 7-3 3.5 2 5.5-9q2.3.8 1.5-1.5L93.5 30l10-3h9l3 2h2q10.6 3.4 16.5 11.5l3.5 4.5 11-10 4.5-2q-1.1-2.7 1.5-2l8-6h2.5q-1.1-2.7 1.5-2l3.5-1-3 15.5-9 18 3.5 1.5 8.5 6.5q7.5 8.5 5 27l-2 11-2 4.5h2.5l6.5 5.5 3 7v16l-2 7-8 16 1 1v10l1 1v11l7 9 1 3.5q2.7-1.1 2 1.5l3 5.5h-5.5l-.5-1.5-12-15-1-5q2.8-1.7 1-8l-1-1-1-18q11.9-8.6 10-31l-4.5-8.5-4.5-1-2-9.5 3-11v-15L163.5 64l-8-5-2.5 3.5q3.3 1.3 2 7l-12 32 1.5 2.5-8.5 1q1.3 4.1-2 3l8-16.5 7-19-1.5-.5-36 27-24 22-6 4h-4L56 110.5 36.5 83l-.5 3.5 1 1v10l3 14q3 3 3 9l9 16v3.5q3.8-1.5 3 1.5l2 3.5 3.5 1 15-12 5-1 7 5 16.5 6-1 3.5 1 2-1.5-.5-23-10h-3L66 147.5l-1 3.5 14.5 6 3-1 2 1 11-2 4.5 1q1.7 4.1-2.5 3l-4 2h-17l-11-4-12.5-9.5-6-10.5-3 1.5-11 19-3 10v9l2.5 1.5 9-6 3.5 2.5 7.5 8.5 12.5 6v-8.5l1.5-.5 11 6 8 2 30 1q2.8-1.2.5-2.5l-1-3 3.5-2.5 9-2q13.3-9.5 29.5-15v-3.5l-4-7-15-19 2-4-3-4 10-12-1.5-2.5h2.5q-1.3 4.1 2 3l1.5-3 .5 5.5-10 11-1 3 3 1.5 1.5 3q2.3-.7 1.5 1.5l12 16 1 6.5q4.9-1.8 3 4.5l-12 8v2.5q2.7-1.1 2 1.5l6 8 1 5q4.4 4.1 5 10.5-4.6 1.3-6-1.5l-5-12-7-11.5-25 11 2 5.5-6.5 2.5h-23l-1-1h-9L71 189l-1 7-5.5-1-16.5-9.5q.8-2.2-1.5-1.5l-6.5-5q-5.5 9.1-8 21h-5v-2.5l4-11q-4.7.2-6-3-2.3-3.2-1-10l5-20q5.3-12.7 14-22l-2-2v-3l-4-8-5-22v-2L31 73l2-.5v-15l1-1v-9l2-7 1-12zm1 17-4 18v9l-1 1v14l6 14q-1 3 2 2l5 9 2-1-1-2-1-23-2-6v-6l-4-23zm120 1-13 10q-27 21-42 54l1 1 21-16 8-8q3 1 2-1l4-3-1-1q12-15 20-33zm-57 1q-13 2-20 10-7 4-8 14l8 6 5-2 15-12q6 1 9 5 2-1 1 2l8 6 9-10-4-8q-5-7-13-10zm0 22L87 68h-2L71 55h-2q-9 6-13 17l1 24 2 9q8 9 20 15l5-2 10-10h2l5-7 8-19 11-17-11-11z"/><path stroke="#000" d="m143.5 108 .5 2.5h-1zm-16 12 .5 4 3 .5-2.5 3.5-.5-4q-2.7 1.1-2-1.5zm0 16 .5 4-4-.5zM104 156l3 .5-2.5 1.5z"/><path fill="#a2d247" stroke="#a2d247" d="m68.5 67 14 13h3l16-10 5-1 5.5 4.5-7 13-5 14L86.5 114l-8 5q-10.9-5.6-18.5-14.5l-2-9v-17zm69 49q2.3-.7 1.5 1.5l2 3-13.5 14.5-.5-1.5zm-60 24 26.5 10.5-11.5 4.5h-15l-7-2-4.5-3.5z"/><path fill="#b46a70" stroke="#b46a70" d="m68.5 56 1.5.5-6.5 5.5zm36 0-2 3zm5 0 3 4zm-9 3-1 2zm-4 3-2 3zm-19 1 4 5zm52 1 .5 1.5q-2.2 1.3-1 6l1.5-.5 12-6-10 11-21 16 .5-1.5q6.4-15.6 17.5-26.5Zm-81 2 1.5 7.5 1 19-2-1-8-14-1-8h1l2.5 4.5zm12 0-.5 1.5-1.5 3.5-.5-1.5zm31 0-1 2zm24 3-1 2zm-2 3-1 2zm-56 4 .5 2.5h-1zm84 33 1 2zm2 8-2 3zm20 41q4.5-.5 4.5.5v15l1 3.5q-3.8 1-5-1.5l-1-9 2-4z"/><path fill="#5f4bc7" stroke="#5f4bc7" d="M101.5 34q9.5-1.5 15 1l12.5 9.5q1.3 4.2-3.5 2.5l-12 3q-2.3-3.8-9-3l-19 14-6.5-6.5v-2L87.5 42zm54 27 9.5 6.5 4 10v10L166.5 98q-2-9.7-6.5-16l-7-4.5 4-12zm16 52 3.5 2.5 2 7v8l-2 9-5.5 8.5q-2.2.8-1.5-1.5 4-3.5 3-12l-1.5-1.5q-6.7 1.8-8.5-1.5v-6l3-6.5 5-1zm2 76 7.5 10.5-5 .5z"/><path fill="#d85f4d" stroke="#d85f4d" d="M105.5 56h3l9.5 8.5-5.5 8.5-6-4h-3l-14 9-7 2-14-13-10 11-1.5-4.5Q60.4 62.9 68.5 57h2l11 11 5 2zm40 19 .5 1.5-8 21-2 2v3l-10 19q-6.5 13-16.5 22.5l-7-1-25-11-18 13q-9.6-10.9-15.5-25.5l-4-13-2-17 2 1q7.6 13.4 18.5 23.5l16 11 7 1 10-7 27-24zm-5 35 2.5 1.5 2 4-5 4-1-3.5-2-.5zm4 80 10.5 9.5-25.5.5-3.5-2.5q-.7-2.2 1.5-1.5zm-108 2 3.5 1.5-3.5 6.5q-4.2 1.3-2.5-3.5z"/><path fill="#423772" stroke="#423772" d="m103.5 33 8.5.5-8.5.5zm-61 1 1.5 2.5-2-1zm117 0 1 2-2.5-.5zm-66 3-1 2zm28 0 2 3zm34 0-2 3zm-65 2-2 3zm-49 1 .5 2.5h-1zm117 0-1 2zm-73 3-2 3zm63 0-16 17zm-103 2 .5 2.5h-1zm84 0 2.5 5.5-8.5 8.5-4-4-9.5-6.5 1.5.5 5 1 4-2 8.5-1zm-89 2 .5 3.5h-1zm41 1-1 2zm20 1-2 3zm52 0-1 2zm-107 2 .5 2.5h-1zm51 1-2 3zm-18 3 4 5zm-40 1 .5 9.5h-1zm53 0-1 2zm-45 1 .5 2.5h-1zm41 2-1 2zm58 1-1 2zm8 1 1.5 2.5-2-1zm6 2 1 2zm-4 2 .5 2.5h-1zm9 3 1 2zm3 6 .5 2.5h-1zm-15 4 6.5 4 7 16.5q-1.6 10.6 2.5 15.5l.5-2 2 .5-3 5.5-5 1-3 6.5v6l1.5 1.5q6.8-1.7 8.5 1.5v6l-3 7.5 2.5-1-2 3q-3.2 2.3-10 1-5.9-11.6-15.5-19.5v-2l11-15-10-15 5-9zm15 10 .5 3.5h-1zm-1 6 .5 2.5h-1zm9 25 .5 2.5h-1zm0 12 .5 3.5h-1zm-4 13-1 2zm-127 41 2 3q-4.4 1.5-3.5-1.5zm119 0q8-1.5 9.5 3.5l-1 2 3 9.5h-9.5l-.5-2.5-6-11zm-112 5 10.5 5-1 5H39.5l-.5-1.5 3.5-6.5 7 2zm36 4 1 1H101l2 4.5-12 .5-3-4.5zm89 0 1 2zm-56 2q5-.5 5.5 3.5l-15.5.5v-1zm58 1 1 2z" opacity=".996"/><path fill="#604e55" stroke="#604e55" d="m70.5 56 6 7zm43 3 2 3zm-20 5-1 2zm35 0-1 2zm-89 2 .5 3.5h-1zm103 0-2 3zm-20 6-1 2zm-10 2-1 2zm19 2-1 2zm-5 4-1 2zm-76 1 .5 4.5h-1zm72 2-1 2zm-4 3-1 2zm-4 3-1 2zm-56 7 .5 2.5h-1zm38 8-1 2zm44 5-1 2zm-55 5-2 3zm60 1-1 2zm-4 5-2 3zm-89 15 1 2zm85 1q11.8 11.5 18.5 27l-29.5 15 1.5-2.5 6-11-1.5.5-5.5-2.5 6-22zm-92 3 11 14 12 7 9.5 3.5 8 14.5-9.5 1q-1.2-2.2-6-1l-6.5 2.5v6.5h-2.5L49 177.5 45 163h-3.5l-8.5 7.5-1.5 2.5-.5-2.5q3.7-19.3 14.5-31.5Zm34 16 7.5.5-7.5.5zm85 2 2.5.5-2.5.5zm-1 8-.5 1.5q-.8 7.3 2.5 10.5l2.5.5-2.5.5-1-1h-8l-3.5-3.5q-.7-2.2 1.5-1.5zm5 0 .5 8.5h-1zm-128 28 .5 2.5-2.5 4.5-.5-2.5zm84 3q2.3-.7 1.5 1.5l1.5 2.5z"/><path fill="#4c333b" stroke="#4c333b" d="m42.5 33 1 2zm118 0 1 2zm-34 8 1 2zm24 0-1 2zm-31 14 3 4zm-52 1-3 4zm44 1 1 2zm20 3-1 2zm-51 5 1 2zm83 0 1 2zm-73 1-1 2zm36 0-1 2zm-77 2 .5 2.5h-1zm35 0 2.5.5-2.5.5zm55 1-2 3zm-100 1 .5 2.5h-1zm84 0-1 2zm22 4q2.3-.7 1.5 1.5l-4 1zm-95 2 .5 4.5h-1zm61 0-1 2zm30 1-2 3zm-12 1-1 2zm-72 3 .5 5.5h-1zm67 1-1 2zm9 1-3 4zm-96 3 5.5 7.5-3-2-1.5-2.5-1 3zm14 4 .5 4.5h-1zm73 0-1 2zm-12 1-1 2zm8 2-1 2zm19 0 .5 1.5-1.5 2.5-.5-1.5zm-96 2 1 2zm-5 1 .5 3.5h-1zm78 0-1 2zm-71 2 2 3zm92 0-.5 1.5-.5 1.5-.5-1.5zm-26 2-3 4zm33 1 1 2zm-105 1 .5 2.5h-1zm59 0-1 2zm-48 2 2 3zm56 0-4 5zm-46 1 2 3zm34 1-2 3zm-40 3 4 5zm44 2-7 8zm-37 4 1 2zm3 2 1 2zm3 2 4.5 3.5-1.5-.5zm20 2-2 3zm-14 2 1 2zm64 2-8 9zm-15 2-1 2zm-45 5 2.5.5-2.5.5zm42 0-1 2zm-2 3-2 3zm19 1-3.5 4.5-6 22 5.5 2.5 1.5-.5-7 12 .5 1.5q-1.5-2.5-3 1l-9 2-1.5 1.5 1 5.5-29.5-1-18.5-7.5q2.8-2.2 8.5-1.5l3 1 1-1H86l-9-15.5 2.5-.5q1.8 2.8 8 1l17-4 8-4q13.4-8.1 24-19Zm2 0 2 3zm11 2 1 2zm-103 1 1 2zm20 0-2 3zm48 0-3.5 4.5q.8 2.6-2.5 1.5v-1zm-59 1 1 2zm86 0 6.5 7.5-3-2zm-93 2 1 2zm14 0-2 3zm-5 1 1 2zm-16 1-1 2zm9 1 2 3zm17 2-1 2zm-14 2 3 4zm95 0 1 2zm11 2 6.5.5-6.5.5zm-9 1 1 2zm-92 1 3.5 2.5-2.5-1.5zm5 3 1 2zm99 0q3 1.5 0 3zm-130 7 .5 2.5h-1zm9 0q5.3-1.7 3.5 3.5l4 11 4 4-7-6-1-3.5-3.5-1-10 6-.5-3.5 5.5-6.5zm-10 4 .5 2.5h-1zm129 0-1 2zm-3 2-1 2-3.5 1 3.5 5 8.5.5-9.5.5-3.5-5.5zm-13 7 4.5 3.5 10 20-3.5.5-11-10-17 6h-6l-11 4h-7l-2.5-5h17.5l6.5-3.5-2-4zm-79 3-1 2zm-24 1 3.5 6-2 .5q.8 2.3 4.5 1.5l-1-3 5.5 4.5-2.5 4.5-7-2-3 1-3-1-1.5.5q1.7-7.8 6.5-12.5Zm13 2 1 2zm112 2 3.5.5-3.5.5zm-6 1 3.5.5-3.5.5zm-88 5 7 3 8.5 1 3 6H76.5l-1.5-1.5-3-5zm17 4 4.5.5-4.5.5zm-26 1 6.5 4.5-6.5.5-1.5-2.5zm-30 2 .5 2.5h-1z" opacity=".996"/><path fill="#020201" stroke="#020201" d="m42.5 30 1 2zm63 2 5.5.5-5.5.5zm50 4-1 2zm-65 2-1 2zm36 2 2 3zm23 1-3 4zm-64 1-3 4zm-46 5 .5 2.5h-1zm65 1-1 2zm-34 7 3 4zm49 1 2 3zm8 0-4 5zm7 0-3 4zm-96 1 .5 14.5h-1zm74 0 2 3zm-21 1-1 2zm-9 1 1 2zm73 0 1 2zm-99 1-2 3zm107 4 2 3zm-82 1 1 2zm45 0-1 2zm29 0 .5 2.5h-1zm-15 4-.5 1.5q.8 2.3-1.5 1.5zm-90 1 .5 2.5h-1zm66 0-1 2zm-4 6-1 2zm28 1-1 2zm-10 1-1 2zm-79 2 .5 3.5h-1zm74 2-1 2zm-89 1q2.8 1.3.5 2.5l-.5 1.5zm96 0-1 2zm-88 3 1 2q-2.8.7-1-2Zm83 1-1 2zm-10 1-1 2zm52 0 .5 2.5h-1zm-56 3-1 2zm7 1-1 2zm-68 2 .5 1.5-2 1zm59 5-2 3zm32 0 1.5 3.5-2-1zm-93 4 2 3zm47 1-1.5 2.5q.8 2.3-1.5 1.5zm8 0-1 2zm30 0 3 1q1.5-2.5 7-1l6.5 7.5-2 3.5q-3.3 1.1-2-3h-2.5l1.5 2.5-.5 1.5q-3.2-2.3-3-8h-2l-2.5 1.5-7 14.5q-5.6-2.2-4 3.5v2l-4 8 .5 2.5q5.7 1.8 3.5-4.5l6-5 2.5-3.5q4 .5 3.5 5.5l-2 2 5.5 6.5-7-6q-12.6 12.9-29 22l-3.5-1-1.5 3q-4.2 1.1-2.5-3h-4v-2l10-2v-2q-2.7 1.1-2-1.5l-1-2 1-2.5 6.5 1 4-5q2.6.8 1.5-2.5l9.5-14.5 2.5 1-1-4.5 6-11.5q4.1 1.7 3-2.5zm-81 4 1 2zm46 0-5 6zm-34 3 1 2zm107 1 1 2zm-21 1 .5 2.5h-1zm-68 3-1 2zm2 5-1 2zm62 0-1 2zm-75 1 1 2zm71 4-2 3z" opacity=".992"/><path fill="#020201" stroke="#020201" d="m141.5 130 1.5 2.5-2-1zm-91 4 1 2zm94 0 1 2zm-71 1-1 2zm-28 2 1.5.5-2.5 1.5zm7 0 1.5 3q-3.5 1.1-1.5-3Zm95 0 2 3zm-100 2 1 2zm19 1-2 3zm85 2 1 2zm-90 2-1 2zm92 1 1 2zm-86 1-1 2zm101 4-.5 1.5-.5 3.5-.5-3.5zm-11 1 1 2zm-94 4 1 2zm97 2 .5 2 2 .5-3 .5zm8 2 .5 2.5h-1zm-91 2 12.5.5-12.5.5zm76 9-2 3zm16 0 .5 4.5h-1zm-133 4-1 2zm-3 2-1 2zm8 3 6.5 5.5-1.5.5zm10 2 1 2zm105 0 1 2zm-80 3 2.5 1.5-1.5.5zm96 2 3 4zm-87 1 2.5.5-2.5.5zm31 0-1 2zm-21 1 5.5.5-5.5.5zm-21 2 2.5.5-2.5.5zm16 3 3.5.5-3.5.5zm17 1 3.5.5-3.5.5zm-41 1 2.5 1.5-1.5.5z" opacity=".992"/></svg>