<svg xmlns="http://www.w3.org/2000/svg" width="200" height="200"><path stroke="#000" d="m164.5 26 3.5.5-3.5.5zm6 0q4.8.3 6.5 3.5l1 5h-1q.6-5.1-2.5-6.5l-4-1zm-12 2 1.5.5-12 8L137.5 55l-2 1 4.5-5.5Q143.5 39 151.5 32zm19 9 .5 2.5-1 5 11 10 1 3h-1q-1.6-6.9-7.5-9.5l-4.5-3.5zm-95 9q9.3-1.4 11.5 4.5L90.5 48l-8-1q-6 6.5-17 8v-1q11-1.5 17-8Zm12 6 .5 2 2 .5-1.5.5zm4 1 2.5.5-2.5.5zm10 0 3.5.5-3.5.5zm5 1 2.5.5-2.5.5zm-56 2 2.5.5q-12.3 3.7-19 13L37.5 77l-.5-1.5q3.6-9.4 11.5-14.5zm66 1 4.5.5-4.5.5zm66 2 1.5 4.5h-1zm2 6 .5 2.5h-1zm1 5 .5 4.5h-1zm-156 8 .5 2.5h-1zm156 6 .5 3.5h-1zm-156 4 .5 2.5-7.5 12.5-.5-1.5zm155 2 .5 2.5h-1zm-2 7 .5 1.5-3 5 5 4 1 2-2-1-2.5-3.5-2.5-1.5zm-161 7 .5 4.5h-1zm0 9 .5 3.5h-1zm1 5q2.6 9.9 10 15 2.6-.8 1.5 2.5l-1.5 2.5-.5-1.5 1-2Q30.5 129 29.5 118Zm164 1 .5 2.5-2.5 3.5-2.5-.5 4-3zm-14 6 1.5.5-8.5 7.5zm-8 9-.5 1.5-1.5 2.5.5-1.5zm-133 5 .5 5.5h-1zm128 4-.5 1.5-8.5 11.5-4 3 9.5-10.5zm-127 3 4 6 5.5 3.5-1.5-.5-7.5-5.5zm13 11 6.5 2.5-2.5.5-4-2zm99 2-1 2-6 2v-1zm-91 1 2.5.5-2.5.5zm5 1q3.8-.7 4.5 1.5l-2 1 .5-1.5q-4 .8-3-1Zm75 2 2.5.5-2.5.5zm-12 1 8.5.5-6 1 10 6-2.5-1.5q-7.3-1.9-10-6Zm-72 5-1 2-4 2 1-2zm-7 4-2 3zm95 0 3.5 2.5-1.5-.5zm-99 3-2 3zm104 0 1 2zm3 2 2 3zm-112 2-10 11zm116 1 1 2zm3 2 3 4zm7 6 2 3zm4 3 3 4zm-142 1-2.5 3.5-1.5 2.5.5-1.5zm147 3 1.5 3.5-2-1z" opacity=".063"/><path stroke="#000" d="M0 0h200v200h-22.5l-1.5-1.5q1.1-3.3-1.5-2.5-18.7-18.3-43.5-30.5l17.5-3.5 11.5-8.5q7.5-8.5 12-20l7.5-7.5q3.8-2.7 12-1l1.5-1.5q2.7-3.8 1-12l-5.5-7.5-1.5-.5 3-5 3-11v-17l-5-16-7.5-7.5-3.5-2.5 1-13-3.5-4.5q-3.2-2.3-10-1-11.2 2.8-17.5 10.5l-7 14-5.5 5.5-12 1-11-4h-13L95 54q-.4-4.7-4.5-7l-8-1-9 6-16 4-6 3L40 69.5q-5.8 6.7-4 21-5.5 5.5-8 14v12q3.3 12.2 12 19-2.8 2.7-2 9 1.5 6.5 6.5 9.5l12 6 12.5 2.5q-23.6 9.9-39 28-5 3.5-6 9.5H.5l-.5-.5z" opacity="0"/><path fill="#c44936" stroke="#c44936" d="m157.5 37-1 2zm11 4 .5 3.5h-1zm2 8 3 4zm6 5 1 2zm-88 4 .5 2.5h-1zm14 2 4.5.5-4.5.5zm-59 21 .5 5.5h-1zm1 8 .5 3.5h-1zm21 4-1 2zm-23 1-1 2zm45 3 3.5.5-3.5.5zm-33 3 .5 2.5h-1zm8 0 .5 2.5h-1zm44 5 3 4zm-18 2 3.5.5-3.5.5zm-8 2 3.5.5-3.5.5zm21 1 5 6zm52 0 1 2zm3 2 1 2zm-42 2 4 5zm45 0 2 3zm-113 6-1 2zm127 0-1 2zm-135 1 1 2zm76 3 2 3zm24 1 2.5.5-2.5.5zm30 0-2 3zm-3 4-1 2zm-88 26 4.5.5-4.5.5zm13 0 2.5.5-2.5.5zm6 6 3.5.5-3.5.5zm-11 1 1 2zm5 2 .5 2.5-.5 1.5q2.3-.7 1.5 1.5l-3-2zm5 3 2.5.5q-2.1 3.3-2.5-.5Zm32 6 4.5 2.5-2 1 1.5 2.5q-4.1-2.3-4-6Zm-72 4-1 2zm79 3 1 2zm10 1 1 2zm3 2 1 2zm-8 1 1 2zm-90 1-2 3zm11 0 1 2zm90 0 1 2zm-107 1-1 2zm111 2 1 2zm-115 3-1 2zm121 2 3 4zm-123 1-1 2zm127 4 1 2z"/><path fill="#125d8d" stroke="#125d8d" d="m107.5 160 3.5 1.5q9.5 12 15 28l-7.5 4.5H116l-3-12-2.5-1-2.5 1-1 3.5 4 14-30.5.5.5-1.5v-8q-2.8-1.7-2-7 3-3 3-9-.7-2.2-4.5-1.5L73 183l-11-2v-1.5l8.5-8.5 9-7 11 7h3l7.5-2q1.1-2.7-1.5-2l-1.5.5zM91 175v3l-4 4q-5-1-4 2l4 1 3 5q-2 5 2 4l1-5q2-5 8-5-6-1-8-5 1-5-2-4Z"/><path fill="#125d8d" stroke="#125d8d" d="m82.5 162 2.5.5-3.5 1.5z"/><path fill="#f79046" stroke="#f79046" d="M165.5 34q3.3-1.1 2.5 1.5-2.2 4.8-10.5 3.5l1-2zm-12 18q3.8 3.3 2.5 11.5l-3.5 4.5q-5.8 4.2-17 3-1.2-2.2-6-1l-4.5-2.5 3.5-.5 4 1 11-2 6.5-6.5zm-68 2 2.5 2.5q-1.5 6 1.5 7.5l11-3h10l4.5 1.5q-17.2-.7-26 7l15.5 1.5 1.5 1.5L96 75q-1.1 2.7 1.5 2 9 1.5 13.5 7.5l-.5 1.5-7-3-16-1q-12.8 2.7-20 11L66 90.5l4-7.5q-6.3 1.8-10 7.5l-4.5 9.5-.5-4.5 4-9q-.7-3.2-5.5-2.5L41 105.5l-1 10 4 10-6-5-2-6.5 3-.5V104l-2-.5 5.5-8.5q2.3.8 1.5-1.5l1-4-1-1v-9l1.5.5q3.8.8 4.5-1.5l3-6.5 7.5-4 4 3L84 57.5l-1-2zm-4 2-1 2zm87 7q5.6-.1 7.5 3.5l1 7-2 5.5-5 1v-7h-5.5l-6 3-1.5-2.5 7-6 2.5-3.5zm-109 1 1.5.5-4.5 2.5 1-2zm-5 3-1 2zm-3 2-3 4zm70 28q6.8 9.2 21 11l2.5-1 1-2.5-1-3 2 1 3.5 6.5 10.5 7.5-1.5 1.5h-13q-15.7-5.2-24.5-17.5zm11.5 10 1 2 9 4 12 1 1 1h1l-8-7-5 1zm43 2q7.6-1.1 10 4.5l-1.5.5-8.5-2zm-81.5 1 3.5.5-3.5.5zm-34 2-1 2zm44 2 1 2zm-44 7 2.5.5-2.5.5zm48 4-1 2zm-54 6 1.5 2.5h-1zm76 1-3 4zm-26 5 .5 2.5h-1zm-51 42 1.5.5Q49.9 188 41 191l4.5-6zm84 0q14.8 5.7 24.5 16.5l-2.5.5q-4.1-4.4-12-5l-8.5-7.5zm-72 13 5 1 3.5-1q.8 5-2.5 7l-2 1H60l-1-2.5 7-4zm55 1q2.4 2.3 1.5 7h-4v-1.5l-1-3z"/><path fill="#dc4b38" stroke="#dc4b38" d="M168 34q3-1 2 2h-2l-.5 4h-11v-1q9 1.5 11.5-3.5zm-14.5 16 3.5 6.5v6h-1q1.1-7.6-2.5-10.5l-1.5.5zm-4 9-1 2zm18 3q7.9-.9 9.5 4.5l-.5 3.5q.2-4.7-3-6l-5-1-4.5 3.5-4.5 5.5-2.5 1.5 1 2-2 .5-1-2.5 5-4q-.7-2.2 1.5-1.5l2.5-4zm-64 1h12l1 1h2l8.5 2.5-2 1q3.2 3.3 10 3l-5.5.5q-3-3.9-9.5-3 1.8-5.2-5.5-3l-1-1h-10L96 66l-.5 2h-2l-1.5.5 13.5 1.5 2.5 2.5q.9 3-3.5 1.5v-1l1.5-.5-1.5-1.5L89 69.5l4.5-3.5zm52 1 .5 4-6.5 2v-1l5.5-3.5z"/><path fill="#dc4b38" stroke="#dc4b38" d="m129.5 67 3.5.5-3.5.5zm16 3 2.5.5-2.5.5zm-9 1 6.5.5-6.5.5zm28 2h5.5v7h2.5l1.5-.5-1.5 2.5-3.5-1v-7h-5q1.3 3.7-4.5 2v-1zm-66 1 4.5.5-5 1q1.3 2.8 2.5.5h3.5q-1.5 3.7 1.5 3l6.5 5.5q1.1 3.3-1.5 2.5l-2.5-1.5 1.5-.5 1.5.5-3.5-4.5L96 77q-1.1-2.7 1.5-2zm-11 8 7.5.5-7.5.5zm-19 1q2.3-.7 1.5 1.5l-4 7 .5 1.5q-2.6.8-1.5-2.5l1-2.5q-3.7-1.2-2 4h-4v1.5l-2 2-2.5 8.5-1.5-4.5h2q2.1-9.9 9.5-14.5zm15 0 2.5.5-2.5.5zm15 0 5.5.5-5.5.5zm-45 1-2 3zm27 0 1.5.5-2 .5q1.8 5.3-5.5 3L72 92l-2.5 1 5-6zm49 7 3 4-2.5-1zm-82 4-1 2zm73 0 3.5 1-.5 3-2.5-1.5 1 3 10.5 10.5 14 7 12.5.5-2.5 1.5-1.5-.5-1.5 2.5-3-2-5-1-5-3H136l-2.5-4q-7.8 2.7-5.5-4.5-1.6-4.7-8-3.5zm21 0 6.5 8.5h-1l-1.5-2.5-1 2-3.5-6.5zm-96 3-.5 1.5v4.5q-2.7-1.1-2 1.5l-2 1z"/><path fill="#dc4b38" stroke="#dc4b38" d="m125.5 99 6.5 1-.5 5zm18.5 5 2 .5-1.5 2.5zm-103.5 4 .5 7.5h-1zm70 0q2.3-.7 1.5 1.5zm66 0 1.5.5-2 .5-.5 2-.5-1.5zm-59 8q3.8-1.2 2.5 2.5zm-76 1 .5 2.5h-1zm14 5 .5 2-2-.5zm4.5 0 5 .5q-1.2 2.5-5 1.5zm-16.5 2q3-.8 1.5 3l-2-.5zm25 0 3.5 2.5q.9 3-3.5 1.5l-2 1v-1H68zm42 1q3-.8 1.5 3-5.2-2.1-4 2.5h2l-4.5 3.5v-2q-2.6-.8-1.5 2.5l.5 1.5q-4.8 1.7-3.5-2.5l3-1.5 4.5-6zm-49 2 3.5.5-6 1.5-.5 5-.5-2-4-1.5h2q-1.4-4.6 4.5-2.5zm8 2 1 2zm43 0 3.5.5-3.5.5zm-38 2 1.5 5.5-1.5-.5-2.5-1.5-1-2zm50 0q3.8-.7 4.5 1.5l-.5 1.5-.5-2h-4q1.9 5.6-3 4-2.1-5.2 2.5-4zm-69 5 .5 2.5h-1zm71 1 .5 2.5-2.5 3.5-.5-3q3.1 1.1 2.5-3Zm-7 3 .5 5-4-1q-1.1-2.7 1.5-2zm-48 1 .5 1.5-3.5 1.5-2.5-1.5zm31 0 1 2zm4.5 2 5 .5-5 1.5zm-13.5 2 1.5 2.5-3 2 2-3zM82 146l8 .5-7 2 .5 1.5zm3.5 4 4.5.5-4.5.5zm45 26q2.3-.7 1.5 1.5zm5.5 2 2 .5v2l1 2-1.5-.5-2.5-1.5zm7.5 9 3 4zm-99 2-.5 1.5-3.5 5.5-3.5-.5 3.5-4.5zm107 3 8 4h3.5l1 4q-5.2 2.1-4-2.5l-2.5-2.5q-4.6.6-6-2z"/><path fill="#dc4a38" stroke="#dc4a38" d="m168 36 2 .5-2 8q1.3 5.8 5.5 8.5l4.5 3.5 1 7-1.5 6.5q.1-5.6-4-7l-6-1-3.5 2-2.5 4q-2.2-.7-1.5 1.5l-5 4 1 2.5h7.5q-.8-3.5 5.5-2v7h2.5l1.5.5 2.5-3.5-1.5 2.5q-1.6 8.9-8.5 12.5l-11 6-6.5 1-.5 2-6-7-.5 1.5 4 7-1 3.5q-7.8.9-12-2 2.8-7.5-5.5-5l-2.5-1q1.7-4.1-2.5-3l-1.5-.5v8.5h4.5q4.8 1.6 3.5 8 6.3-1.5 8 2.5-.9 3.4 4.5 1.5l5 3 6.5 1q1.7 4.1-2.5 3l-13 3q-9.9-1.8-16.5-6 2.2-5.6-3.5-4l-6-7 1.5.5q.8-2.6-2.5-1.5-7-9.5-22-11l-5 1-7 4H70q1.6-2.1 1-7.5L70 92q2.7 1.1 2-1.5 1.7-4 8-2.5-1.5-3.8 1.5-3 5.4-3.6 16-2 1.5 2.5 7 1l7.5 3v-2.5l-4.5-4.5-3.5-1q1.8-4.5-3.5-3-1.2 2.3-2.5-.5l10-1.5-2.5-4L92 68.5l2.5-1.5 1.5.5q-.8-2.6 2.5-1.5 5.1-3.4 15-2l6.5 1q-1.8 4.9 4.5 3l5 3 13 1 13.5-4 1-11.5-3.5-6.5-1.5.5 3-10.5h12.5zm-37 56q-2 3 1 2zm16.5-31-3 4zM64 88q2.7-1.1 2 1.5l-3 7-1 7-1.5 1.5-4 1q-2.8-1.2-.5-2.5v-3l4-8.5q6 2 4-4ZM45.5 99l.5 8.5 3 12.5-4 1.5q1 3.8-2 2.5l-2-7.5v-9l2-3.5h2zm130 12 1 2zm0 7-1 2-8.5 7.5-5.5 10.5-1.5-.5 1 2-2 1q.5-12.5 8.5-17.5zM56 122q5.3-1.2 4.5 2h3l2-1 2.5 1v4h5v1.5l1 2.5q-3.7 1.5-3-1.5-3-3.5-9.5-3.5l-5.5 1-.5 3q-3.3-2-2.5-7 4.1 1.3 3-2Zm56 3 4 1.5.5 1.5h2l5.5 2v2h4v1.5q-3.2 1.5-2 6.5h-2q1.5 3.7-1.5 3l-2.5 1 1-8q4.9 1.6 3-4-4.2 1-3.5-2h-4l-4-1-4 2-.5-3q5.6 1.9 4-3Zm-8.5 6 2.5 1.5-1.5 2.5z"/><path fill="#dc4a38" stroke="#dc4a38" d="M56 132q2.7-1.1 2 1.5 1.3 5.8 5.5 8.5l4.5 1.5-4.5.5-7.5-4.5-1-4zm17 4q3-1.2 2 2.5l-2-1zm28 0 3 .5-1 2 4 5-1.5-.5-3.5-2.5zm-27.5 4-1 2zm39 3 5.5 1.5-7.5.5v-1zm-22 3q4.8-1.3 3.5 2-3.1-.7-2.5 2h-7l-1-2q5.3.8 7-2Zm41.5 30 4 1q1.7 4.1-2.5 3zm5.5 6 1 2zm-91 6-2 3zm102 4 6 3h3l2.5 2.5v2.5h-8v-2.5zM36 196h5v1.5l-1 2.5h-5v-1.5z"/><path fill="#cb7751" stroke="#cb7751" d="m86.5 54 1 2zm-7 3-1 2-1.5-.5zm9 4 .5 2 2 .5-1.5.5zm-32 4-1 2zm-3 2-1 2zm-6 6-1 2zm-7 24-1 2zm99 10 2.5.5-2.5.5zm10 0 1 2zm-57 1 1 2zm-57 1 .5 3.5h-1zm36 0-1 2zm-13 5-1 2zm48 2 7.5 7.5-1.5 1.5.5-1.5zm-52 6-1.5 2.5-.5 3.5-.5-3.5zm-13 2 1 2zm31 3 1 2zm34 0-4 5zm-38 2 2 3zm65 3 9.5.5-9.5.5zm-6 2-.5 1.5-.5 1.5-.5-1.5zm-67 4 2 3zm-5 1 2 3zm64 0-2 3zm29 1-1 2zm-83 4 2.5.5-2.5.5zm69 0 3.5.5-3.5.5zm-24 1 6.5.5-6.5.5zm-16 3-1 2zm-32 5 2.5.5-2.5.5zm43 0 3.5.5-3.5.5zm-37 1 4.5.5-4.5.5zm28 0 4.5.5-4.5.5zm-14 1 7.5.5-7.5.5zm7.5 7 9 .5-3.5 4.5-5.5-3.5zm-2.5 3 1 2zm7 3 1 2q-1.5-2.5-3 1l-2.5-1.5 1.5.5zm-38 9-1 2zm-5 3-1 2zm14 2 2.5.5-2.5.5zm-2 1-2 3zm4 6q5.5-1 6.5 2.5l-2.5-1.5h-4q-2.5 4.5-7.5 5l-.5 2-.5-1.5zm58 1 3.5 10h-7v-4.5l-1-3.5z"/><path fill="#f1d9bd" stroke="#f1d9bd" d="M82.5 56q2.3-.7 1.5 1.5L63.5 71l-4-3-6.5 4-4.5 8q-4.4 1.5-3.5-1.5l7.5-9.5q8.5-6.5 22-8zM37 104l2 .5v9.5h-3v-6.5zm90.5 0 5 3 11 2 5-1 8.5 6.5-1.5.5-1-1h-8l-9-3-10-6zm-38 4 5 3h3l2-1 4.5 3.5 9 10q-8.6 1.9-12 9l-1 6 2 4.5q5.1 4.2 16.5 3 5.8-1.2 8.5-5.5v-4l4.5-4.5 1 1h12l4.5-1 1 6.5q-3.2 5.8-11.5 6.5l-4-1q-9.9 6.1-23 9l-15 1-1 1h-22l-19-4-8.5-6.5v-5q4.8-4.2 6.5-11.5l2.5 6.5-1 3 3.5 4.5 7 3h4l6.5-4.5 1-8-7.5-9.5-6-2h-5l-5 3-1.5-3.5 3.5-4.5h3l5-5h3l4 1 4-3q1 3 6 2zm1.5 37-1 1h-9q-1 4 3 5 6 1 10-1l2-3q-1-3-5-2Z"/><path fill="#f1d9bd" stroke="#f1d9bd" d="M62.5 128q5.9.6 8.5 4.5l2 7q-2 3.5-8.5 2.5-5.9-2.6-5.5-11.5zm50 2q6.8-1.7 8.5 1.5l-1 7-3.5 3.5-9 1-2.5-1q-1.7-8 3.5-10zm-30 33q3.8-.7 4.5 1.5l4 6-2.5-1.5-8.5-4.5zm9 2 3.5 1-2.5 4zm8 2q2.6-.7 1.5 2l-4.5 1 1-2zm-8.5 8q3.3-1.3 2 3.5 2.4 4.1 8 5-5.6.9-8 5l-1 5.5q-3.7 1.3-2-4.5l-3.5-4.5-3.5-1q-1.3-3.3 3.5-2l4.5-4.5zm-29 6 4 .5-4.5 2.5.5-1.5zm5.5 9q4.5-1 5.5 1.5L62.5 195v-1l3.5-1z"/><path fill="#bf2525" stroke="#bf2525" d="m155.5 39-.5 1.5-4 16-7.5 8.5-7 2h-8l-5.5-1.5 12.5-1.5 9.5-6.5zm23 17q9.1 9.9 6.5 31.5-2.5 11.5-9 19l.5 1.5q-3-.9-1.5 3.5l11 4q.9 3.4-4.5 1.5l-4 2-2-1v2l-2-1-11.5 8.5q-4.4 5.6-4 16l-9.5 9.5-11 4h-7l-3.5-1.5 7.5-3.5h9q8.1-2.9 12.5-9.5 2.5-3.5 1-11l-1-2 13-11 1-5-19.5-12.5-2.5 1.5q-1.3-4.2 3.5-2.5 13-4 20.5-13.5l5-10 2-17zm-125 29-1 2zm13 8q4.4-1.5 3.5 1.5l1 4h-1q.8-3.7-1.5-4.5-3 .5-2-1Zm-19 3 .5 10.5 5 10-2.5 4.5-1.5-1.5-3-12v-9zm16 1 .5 2.5h-1zm20 1 3.5.5-3.5.5zm7 0 3.5.5-3.5.5zm5 1 6.5 3.5-1.5-.5-5-2zm-26 2q1.5 2.5 7 1l1.5-.5-4 6 .5 1.5-2-1-3.5 2.5 2-3zm-7 2 2.5 6.5-5.5 2.5-4.5-5.5q5.4-.1 7.5-3.5Zm41 0 2 3zm-19 2h8l7.5 4.5-1.5-.5-4.5 1q1.1-2.7-1.5-2l-4-1q-2.2 3-7.5 2l1.5-3zm24 3 5 6zm43 0 1 2zm-93 5-1 2zm56 2 2 3zm-7 1 1 2zm12 3 1 2zm39 0-1 2z"/><path fill="#bf2525" stroke="#bf2525" d="m155.5 121-1 2-1.5-.5zm16 1-2 3zm-25 2 2.5.5-2.5.5zm-30 1 1 2zm15 0 2.5.5-2.5.5zm10 0 2.5.5-2.5.5zm-16 5 6.5 1.5-3.5.5-3-1zm1 42 1 2q1.3-2.2 2.5.5l-2.5.5-1.5-1.5zm6 7 1 2zm-87 11-1 2zm90 2 6.5 5.5q1.3 4.2-3.5 2.5zm12 0 1 2zm2 3 1 2zm-99 2 .5 3-2-.5z"/><path fill="#791310" stroke="#791310" d="m165.5 33 2.5.5-2.5.5zm4 0q2.3.8 1.5 4.5h-1zm-16 8-1.5 2.5-6.5 12.5.5-1.5 5-11zm17 7 4 5zm-85 5 2.5 1.5-1.5-.5zm91 0 4 5zm-95 2-1 2zm63 2-3 4zm-37 3 3.5.5-3.5.5zm26 3 2.5.5-2.5.5zm50 0 .5 2.5h-1zm-61 1 7.5.5-7.5.5zm-67 1-1 2zm-3 2-1 2zm132 0 .5 2.5h-1zm-137 5-1 2zm138 0 .5 13.5h-1zm-131 13 3.5 1.5v3l-4 7v8l5 8q-.7 3.3-5.5 2.5-7.7-4.8-5.5-19.5 1.5-6.9 6.5-10.5Zm130 3 .5 2.5h-1zM65 94q3.8-1 5 1.5l-1 7 2 6-3.5 2.5-3.5-2.5-1-8zm22.5 4 7 1 13.5 8.5 8.5 10.5 15 8h12l11-3 7.5-5-3.5-5-9.5-6.5-1-3 3.5-2.5q7.7 7.8 18.5 12.5l-1 5-7.5 7.5-12 6-4-1-1 1h-12q-15.6-2.9-23.5-13.5l-7.5-8.5-9-5h-8l-3.5 2.5q.8 2.3-1.5 1.5l-3 1q-4.3-1.7-1.5-3.5-.5-5 3.5-5.5zm97 12 1 2zm2 3 .5 5-6-.5 5-.5zm-138 7 2.5 1.5-1.5-.5zm126 0-8 9zm-135 3 4 5zm6 0 .5 4.5h-1zm111 8 .5 4.5h-1zm8 1-1 2zm-14 2 .5 3.5h-1zm6 4 .5 2.5h-1zm3 3-1 2zm-4 1-1 2zm2 2-8 9zm-7 3-1 2zm-16 4 9.5.5-9.5.5-4 2v-1zm-60 4 2.5.5-2.5.5zm52 0 3.5 1.5-4 .5zm12 1 2.5.5-2.5.5zm-6 1 3.5.5-3.5.5zm-40 4 3.5.5-3.5.5zm8 0 4.5.5-10.5 8.5 1.5-2.5zm-14 1q5.7-1.8 3.5 4.5l.5 1.5q-4.1-2.3-4-6Zm37.5 8 4 2.5h-2l7.5 8.5 13.5 10.5 4 6v2.5h-8.5l-.5-2.5-6.5-5.5.5 1.5 2 6-2-1-5-15z"/><path fill="#791310" stroke="#791310" d="m129.5 173 2.5 1.5-1.5.5zm-73 3 1.5 1.5-4 4 1 9q-3.5 3-3.5 9.5l-1-3-2 3h-7l-.5-2.5q6.3-11.7 16-20zm-7 5-1 2zm16 2h7l.5 2.5-1 3.5h-4.5q-2.5 4.4-7.5 5l.5-8 1.5.5 1.5-2.5zm-20 1-1 2zm107 2 1 2zm-111 2-2 3zm115 1 3 4zm-82 3 .5 3.5h-1zm-37 1-1 2zm91 2 1.5 3.5h-1zm36 2 2 3zm-130 1-1 2zm38 0-1 2z"/><path fill="#010000" stroke="#010000" d="M166.5 27q7.6-1.1 9.5 3.5l1 7-2 6 3.5 4.5 7.5 6.5 2 3 4 15v13l-3 12-4 6 6 5q3.2 3.3 2 11l-3.5 4.5h-9l-8.5 7.5-9 16-7.5 8.5q-5.8 5.2-15 7h-14l-2-1 1 2q27.6 12.9 48.5 32.5l2 3-8.5.5-15-14-28.5-16q7.8 12.9 13 29.5l-7 .5q-6.6-23.2-20.5-40l-27 2L62 179.5l-2 4v11l-1 5.5h-7v-4.5q3.8-2.3 3-9l-1-5 4-5.5q-11.1 5.2-19 14.5l-6.5 9.5-7.5-.5 2-4L39.5 182l9-7L73 161.5 61.5 160l-11-4-9.5-7.5-2-7 3-8.5-8-6.5q-5.7-6.8-5-20 2.2-9.3 8-15-1.5-9.5 1-15 3.6-9.4 11.5-14.5l7-4 16-4 12-7h3l5.5 4.5 1 4.5q5.3-3 15.5-2l12 4h11q6.1-1.4 8.5-6.5Q144.5 40 152.5 33zm-.5 6-7 3q-10 7-14 21-4 6-12 7h-11l-11-4h-10l-10 3q-3-1-2-6l-2-4-11 6-16 4-7 4q-7 4-10 13v9l1 1v3q-6 5-9 14l1 12 8 9h2v-5l4-2 2 4q-1 10-7 16l1 5 10 6 19 4h20l1-1 15-1q13-3 23-9 4-1 6 1l7-3 4-5-1-7 6-1 1 7-3 8-9 6q-13-2-17 4-3-1-2 2l7 1q10 0 17-5 11-9 16-23l10-10q4-3 11-2l-1-6q-3-5-9-4v-2l7-12 2-8V73l-2-9-3-6-5-5-7-7 2-11q-1-3-5-2Z" opacity=".996"/><path fill="#010000" stroke="#010000" d="M77.5 173q3.8-.7 4.5 1.5v3l-3 6v4q3.6 2.9 2 11-1.7 3.3-8.5 1.5l1.5-2.5 1-5-1-2.5q-3.3 1.3-2-3.5l2-8zm33 8 2.5 1 4 14.5v2q.6 2.8-5.5 1.5l-1.5-1.5v-4l-3-9 1-3.5z" opacity=".996"/><path stroke="#000" d="m163.5 27 2.5.5-2.5.5zm11 1 1 2zm-20 3-1 2zm-3 2-3 4zm-4 5-1 2zm29 7 2 3zm-94 2 1.5.5-5.5 3.5 2-3zm8 1 3.5 4.5h-1zm90 0 7.5 8.5-2-1zm-40 3-1 2zm-39 2 6.5.5-6.5.5zm-7 1 1 2q-2.8.7-1-2Zm3 0 2.5.5-2.5.5zm13 0 2.5.5-2.5.5zm-47 1 3.5.5-3.5.5zm73 0-1 2-1.5-.5zm-8 2 4.5.5-4.5.5zm-77 3-1 2zm-3 2-7 8zm142 2 .5 2.5h-1zm1 4 .5 3.5h-1zm1 7 .5 8.5h-1zm-156 6 .5 6.5h-1zm155 5 .5 3.5h-1zm-155 5-1 2zm154 0 .5 2.5h-1zm-156 3-1 2zm152 8v3q-3-1.5 0-3Zm-157 1 .5 2.5h-1zm159 2 2 3zm-160 4 .5 3.5h-1zm163 0 1.5 2.5h-1zm2 4 .5 5.5h-1zm-164 2 .5 2.5h-1zm163 5 .5 1.5-3 2zm-160 4 1 2zm148 0 8.5.5-8.5.5zm-2 1-6 7zm-144 2 5 6zm137 6-1 2zm-2 3-.5 1.5-3.5 6.5.5-1.5zm-130 2 .5 2.5h-1zm0 5 .5 2.5h-1zm125 2-1 2zm-2 3-3 4zm-121 1 2 3zm7 5 1 2zm106 2-2 3-2 1 1-2zm-91 4 3.5.5-3.5.5zm6 1 3.5.5-3.5 2.5zm55 1 2 1 13.5.5-11.5.5-1 1zm17 0 2.5.5-2.5.5zm-74 2-1 2-10 5 1-2zm62 1 1 2zm5 3 5.5 3.5-1.5-.5q-4-.5-4-3Zm-82 4-1 2-2 1 1-2zm91 1 1 2zm-97 3-1 2zm102 0 1 2zm3 2 2 3zm-109 1-2 3zm113 2 1 2zm3 2 2 3zm5 4 3 4zm-130 1-4 5zm136 4 2 3zm-144 6-1 2z" opacity=".686"/></svg>