<svg xmlns="http://www.w3.org/2000/svg" width="200" height="200"><path fill="#050505" stroke="#050505" d="m162.5 6 1 2zm-1 2-4 5zm3 2 .5 9.5h-1zm-23 5 8.5.5-8.5.5zm-8 1 5.5.5-8.5 1.5v-1zm-6 2 1.5.5-4.5 2.5 1-2zm-5 3-4.5 5.5-1.5 3.5-.5-1.5zm41 1 .5 2.5h-1zm-3 9-5 6zm-44 1 .5 4-7-.5 6-.5zm-10 4 2.5.5-2.5.5zm47 1-1 2-1.5-.5zm-53 1 1.5.5L91.5 44l1-2zm48 1 1.5.5-2.5 1.5zm3 3 1 2zm-62 2-1 2-5 3 2-3zm65 0 1 2zm-73 5-1 2-10 4v-1zm79 1 4.5 5.5-2-1zm-99 5 6.5.5-6.5.5zm-4 1 2.5.5-2.5.5zm-6 2 1.5.5q-8.9 3.6-14 11L35.5 77l-.5-1.5L41 65zm115 1 2.5 4.5h-1zm3 6 1.5 4.5h-1zm2 6 .5 15.5h-1zM30 78l3.5 1 1.5-.5V80h-5zm-4.5 1 3.5.5-5.5 1.5v-1zm-4 2-1 2zm-4 3L14 88.5 11.5 92l1.5-2.5zm153 4 .5 2.5h-1zm-160 5-.5 1.5L7.5 99l.5-1.5zm159 2 5.5 4.5-2.5-1.5zm-163 5 .5 1.5-1.5 3.5-.5-2.5zm170 0 1 2zm4 3 3.5 2.5-1.5.5zm5 4 5 6zm-182 2 .5 2.5-1.5 4.5-.5-3.5zm189 7 1.5 3.5h-1l-.5-2.5-4.5 3.5zm-191 1 .5 6.5H1zm175 0-.5 1.5 1 2-2-1zm10 4-2 3-4 3-3.5-4.5 2 1 1.5 2.5zm-186 4 .5 5.5H0zm195 0 .5 2.5h-1zm1 5 .5 3.5h-1zm1 7 .5 3.5h-1zm1 6 .5 3.5h-1zm-198 1 .5 5.5H0zm199 6 .5 6-7-2.5 1.5-.5 4 2zm-198 1L7 163.5l-2-1-4-9zm185.5 0 5 1.5-1.5.5-2.5-1v7h2.5l4-1v1l-7.5 1zm9.5 6q4.6-1.3 2.5 4.5h-1q1.5-4.4-1.5-3.5zm1 6 .5 3.5-1.5 3.5-.5-2.5zm-190 2 3 4zm24 1 2.5.5-3.5 1.5zm4 1 .5 2.5-6.5 9.5-.5-1.5zm-23 2 2.5 1.5-1.5.5zm12 1-1 2-7.5-.5zm171 1 .5 2.5h-1zm-1 4 .5 2.5-1.5 3.5-.5-2.5zm-167 7 .5 1.5-2.5 4.5-.5-1.5zm154 2 8.5 7.5-3 .5-4.5-6-3.5 1.5-1 4 1 2h-1l-1-4zm10 1 .5 2.5-1.5 2.5-.5-1.5zm-169 10 .5 2.5h-1z" opacity=".243"/><path stroke="#000" d="M0 0h200v149.5h-1l-2-19-3-13-1.5-1.5-12 10-4.5-7.5 15-6-7-5.5q1.1-2.7-1.5-2L169 94.5q5-8 3-23l-8-18-9.5-9.5-6.5-3.5q8.5-2.5 13-9l4-12v-9L162.5 6l-6 7-5 2h-10l-14 3-10.5 8.5-1 8.5h-5.5l-10 3-26 15-5 2h-8l-10 3L41 65l-7.5 14-3-1Q18.7 80.2 13 88.5l-8 14-3 10L.5 125zm.5 150q2.2 12.3 10 19 3.8 4.2 13 3l8-5H35v2.5l-6 8-8.5 22.5H0zm187.5 2 12 4v44h-19l-3-10.5 2.5-3.5h2l4.5 4.5q-.8 3 3 1.5l8-25.5 1-9.5-11 2z" opacity="0"/><path fill="#040403" stroke="#040403" d="M140.5 44q4.4-1.5 3.5 1.5l-1.5-.5q-3 .5-2-1Zm22 9 1.5 2.5-2 .5zm-127 24 .5 2.5q-3.2 1.4-2 6.5 4-1.4 2 5.5h-1q-.2-4.7-3.5-6.5l-2-1L19 91.5l-7 11-4 12-2 30 2 10 6.5 9.5 4 2q7.4-1.1 11-6l1.5 3.5-1 2 1.5-.5 3.5 1.5-1.5-.5-10 5h-8L7 164.5l-6-14-1-19 2-8v-7l5-17q4.6-9.9 12.5-16.5l10-4 5.5 1zm133 15q-.2 4.7 3 6 11.1 5.4 18.5 14.5l-15 6 5.5 8.5 12-10 3.5 11.5 1 12 2 7v7l-1.5-.5-10.5-3v9h3.5l7.5-2-3 16.5-5 16.5-8.5-7-5 7-.5-1.5.5-1.5-1.5-.5V182q2.7 1.1 2-1.5l-9-6q-.9-3 3.5-1.5l7 2 8 7 3.5-5.5-1-2 3-9.5-12.5 2-7.5-3 2.5-4q2.3 3 7.5 2v-13h-7v-2.5l-1-2.5h10.5l1 1h2l5.5 1-3-19-9.5 7-9.5 2-1-5 6-1-4.5-7-3.5 2.5q.7 2.6-2 1.5l-1-3.5 8.5-10.5 7.5-2.5-7-4.5v-2h-2q1.1-2.7-1.5-2l-2.5-1-1-3.5z" opacity=".969"/><path fill="#040403" stroke="#040403" d="M163 104q3.8-1.5 3 1.5l-1 5-7.5 9.5-1-2-2.5 1 1-2.5-1.5-.5q-2.7 3.8-8.5 3-1.1-2.7 1.5-2l7-3 9.5-8zm-19 18h6v2q-4.2-1-5.5 2zm-102 6 3 .5-3 2zm15.5 6h8l.5 2q-2.4-1.7-8.5-1zm80.5 0 4 .5-3.5 1.5zM35.5 170l.5 1.5-4 3z" opacity=".969"/><path fill="#0d0d0c" stroke="#0d0d0c" d="m162.5 7 1.5 1.5v13q-1.6 10.9-9.5 15.5l-7.5 3.5 13 9q2.8 2 2 6.5 3.8-1.5 3 1.5l6 13v16l-1 5.5q-3.7-1.3-2 4.5v2q1 3.8-2 2.5v3h-3q1.1 2.7-1.5 2-5.3 9-16.5 11-1.3 3.3 3.5 2l3-2 4 2 1.5-.5.5 1.5 2-3-.5 1.5 1.5 3.5q1.5-2.5 3 1l2-1-.5 1.5 1 3.5q2.7-1.1 2 1.5l5 2-3 .5 2 7.5-.5 1.5q2.3-.7 1.5 1.5l2 7.5h6.5l.5 1.5-1.5-.5H176v7.5l-1 2.5 6 1 .5-3 .5 4q-5.2 1-7.5-2l-2.5 4 2 .5q-6.7-.2-9 4l1.5 2.5 4.5 1.5-3 .5 3.5 5 1.5.5-1 2 1 2.5h2v5h1.5l-.5 1.5 3 5 1 5.5q-5.4 1.5-7-1.5-5.9-18.6-17-32l13-9 1-7q-2.9-15.1-11.5-24.5l-8.5-2v-2h-6l1 8.5-1 4.5-6-1-1.5 3-6 4h-5l-1-1h-10l-15 4-10-4h-9l-8 2-7.5-5.5 1-2.5-9 .5 7 1-8 .5v-10h-7.5q-2 2.8-6.5 2l.5 3 1.5-.5-5 9-4 18 1 3.5 6 2 1 6.5-6 8-9.5 22.5q-6.1 1.3-5.5-1.5l8-21 6-6v-4q-.5-3-4.5-2.5l-1.5.5 1-3-1.5-2.5-3.5 2.5 4-4v-7l3-13 8-15.5q4.7-4.3 15-3 1-3.8-1.5-5-8.4-1.1-12.5-6.5l-5-8-2-8 1-6.5q-3.7 1.3-2-4.5l2-2v-4l3-6 7.5-7.5 10-5h2l16-3 28-16 7-2h7.5l-1-5.5 7.5-9.5 10-4 20-2 8.5-6.5zM157 19l-6 3h-11l-11 3-6 6v4l2 1h13l1 1h3l11-6 2-2 3-8q1-3-1-2Zm-45 23q-11 2-18 8h-3v2l-12 7-9 3h-8l-14 7q-6 5-8 14v9l3 8 9 8 4 1q-1-8 1-11l14-4h6l6-2h30l1 1 17 1 13 3 1 1v12l8-3q10-7 12-21t-3-21v-2l-1-1-3-4q-4-8-12-11-3 1-2-3l-4 1q-11-5-28-3ZM89 98l-1 1h-9l-15 3-2 2v26q8 0 13 6l2-1h17l5 3h4l14-4q5-1 7 1h5l9-5h1v-28l-17-3h-10l-1-1z" opacity=".996"/><path fill="#0d0d0c" stroke="#0d0d0c" d="m29.5 84 4.5 3.5-2.5-1.5-2-1-2 1v-1zm-9 6-1 2zm149 11 2.5 1-.5 2zm-85 5 17 1q8 2.5 12.5 8.5l1 6-1 3-3.5 4.5-2.5-1-.5 2h-10l-1 1h-19l-5-1-6.5-4.5v-7l3-5.5h2q-1.1-2.7 1.5-2l3-2 1.5.5q-.8-2.6 2.5-1.5zm.5 6-11 5q-3 1-2 6l4 2h27l6-2-1-6-10-5zm80.5-6 .5 2.5h-1zm-1 5-1 2zm-156 3 .5 2.5H8zm154 0-1 2zm9 0-2.5 3.5-1.5 2.5.5-1.5zm-164 6 .5 3.5H7zm163 3 3.5 2.5-2.5-1.5-3 2zm4 4 1.5 2.5h-1zm14 0 1.5.5-4.5 3.5zm-5 4-2 3zm-177 3 .5 2.5H6zm167 1 3.5.5-3.5.5zm3 8 6.5.5-6.5.5zm-169 5 .5 2.5H7zm1 5 1.5 3.5H9zm4 8 2 3zm163 4 3.5 1.5-2.5.5zm16 0 .5 2.5h-1zm-19 8 5.5 1.5-2.5.5-3-1zm7 2 1 2zm8.5 1 2 .5-2 1zm-5.5 1 4 5zm-8 2 2.5 1.5-.5 1.5-.5-2z" opacity=".996"/><path fill="#4ca964" stroke="#4ca964" d="m114.5 42 4.5.5-4.5.5zm-5 1 10 1 2.5 2.5q5.1 5.9 5 17l-1.5 1.5-12 3q-4.4 5.4-11.5 7-1.6-2.1-1-7.5l-6-12V52q6.1 1.8 8-1.5l-2-4zm.5 1v1h3zm31.5 2q8.5 2.5 13.5 8.5 4.7 3.8 3 14l-2.5 5.5-11.5-8.5-1-13q-3-2.5-1.5-6.5Zm-46 3-1 2-1.5-.5zm-20 11q3.8-1 2.5 2l-6-.5zm-8 2 3.5.5-3.5.5zm-7 1 5.5.5-5.5.5zM81 66q3-1.2 2 2.5l2 4 1 8-1 3.5-10.5 3-1-1h-11l-2 1-3.5-4.5-1-11 1-3.5 6.5-1-.5 1.5 1 5.5 17-6zm33.5 8 5 1 2.5-1q1.3 3.3-3.5 2l-16 8-.5-2zm31.5 6 5 .5-5 3.5zM41.5 86q2.2 8.8 8.5 13.5l-1 4.5q-2.7 1.1-2-1.5-6.6-5.2-5.5-16.5Zm38 2 2.5 3.5-6.5 1.5H66q-1.5-3.8 1.5-3l6 2 4-2 1.5.5zm66.5 16 7 .5q-2.1 3.6-7 3.5zm24 20q2.7-1.1 2 1.5l2 3.5q-4.6 1.3-6-1.5zm17.5 5-1 2zm-171 23 1 2zm143 22 5.5 7.5q-2 3.5-4-1l-4-5zm-114 3 4.5 2-8 21h-5v-3.5l3-1.5-1-5.5v-2zm95 1q3.8-.7 4.5 1.5l6 13 1 7.5h-7v-2.5l-6-15v-2zm25 5 .5 2-2-.5zm-104 2 4 1 1.5-.5-1 2 1 2-2 10.5h-7v-7.5zm105 1 1.5 2.5-2-1zm-47.5 3h5.5l.5 1.5 2 3q-1.3 4.7 1 6l-6.5.5q-3.4-3.9-2.5-11Zm49.5 1 2.5 3.5-3-2z"/><path fill="#4b3436" stroke="#4b3436" d="m139.5 22 2.5.5-2.5.5zm16 3 .5 1.5-3.5 4.5-4 2 1-2 4.5-2zm-32 9 1 2zm21 0-1 2zm-24 8 9.5.5-9.5.5zm-31 10-1 2-2 1 1-2zm67 4 1 2zm3 5 1 2zm-112 8-1 2zm75 7h18l4.5 1 1 15.5-1 4 1 1v12h-1v-12l-1.5-.5-20-4L84 91.5l8.5-1.5 8-5zm14.5 7-3 11 4 1V85zm27.5-3 .5 5.5h-1zm-1 7 .5 2.5-2.5 5.5-.5-1.5zm-123 2 .5 2.5h-1zm33 4 3.5.5-3.5.5zm-8 1 4.5.5-8.5 2.5-.5-2zm95 2 .5 1.5-2 1zm-133 1 4.5 1q-1.1 2.7 1.5 2l2.5 4.5 1 10-1 1-1 16v2L30.5 151l-1-2-4 5-5 1-4.5-3-2-5.5-1-12 1-1v-7l2-10 3-9 6.5-9.5zm-.5 7-5 14-1 12-1 1q-2 10 1 16l3 1 4-12 2-11v-18l-1-1q1-3-2-2Zm30.5-7 1.5.5-2 .5-.5 2-.5-1.5z" opacity=".996"/><path fill="#4b3436" stroke="#4b3436" d="m88.5 98 22.5.5-22.5.5zm-45 1 1 2zm35 0 4.5.5-4.5.5zm39 0 4.5.5-4.5.5zm-46 1 2.5.5-2.5.5zm55 0 3.5.5-3.5.5zm31 1-2 3zm-94 1-1 2zm-25 1 6 8 4.5 2.5-2 .5v7h-2.5l-3.5 2v-12.5l1-1zm115 2-1 2zm-56 1 2.5.5-2.5.5zm81 2 1 2zm-84 4 3.5.5-3.5.5zm17 0 2 3zm53 0-1 2zm9 0-1 2zm-6 1 3.5 1.5-3.5 4.5-.5-2q-2.7 1.1-2-1.5zm-99 1-1 2zm-14 1 1 2zm19 2-1 2zm-23 2 3.5.5-3.5.5zm15 1 .5 3.5h-1zm73 0 .5 9.5h-1zm28 0-2 3-2.5-1.5 1.5.5zm-159 4 .5 3.5H7zm33 0-.5 1.5-1.5 2.5.5-1.5zm54 0 8.5.5-8.5.5zm53 0 5.5.5-5.5.5zm-34 2-1 2zm45 0 1 2zm-112 1-2 3zm128 1 .5 2-2-.5zm-77 2 4.5.5-4.5.5zm47 1 .5 3.5h-1zm-63 3 7.5.5-7.5.5zm42 0 2.5.5-2.5.5zm57 0-1 2-5 1v-1zm-174 3 .5 6.5H6zm62 1 3 4zm111 0 1.5 4.5-7 1.5-2-4.5 1.5.5zm-47 1-1 2zm-52 1 2.5.5-2.5.5zm103 3 2.5.5-2.5.5zm5 1 3.5 1.5-1.5.5zm-19 6 .5 2.5h-1zm6.5 0q4.6-1.2 6 1.5l-1 9.5-6-1 .5-2 4.5 2q1.8-2.4 1-8.5l-1.5.5-2-1-1 6zm-146.5 5 .5 3.5h-1zm-3 6-1 2zm132 2-1 2zm16 2q1.7 3.3 7.5 2.5l-5.5.5zm-131 1 3 4 10 2 4.5-1 3.5 6q3.2 2.3 10 1l5 4h6l8-4 14-1 10 5h8l14-11h12l3.5-2.5q-.7-2.6 2-1.5l4 6.5-1.5-.5-3.5 1q1.1 2.7-1.5 2-2.7 2.8-9 2l-6.5-1q-.6 5.4-5.5 8-5.5 5-18 3l-6.5-3 3 15h-6v-2.5l-3-14.5q-10.5-.3-16 5.5v5l-2 6.5h-6v-2.5l2-9.5h-3.5l-5-3h-4l-8-3-4-4-10-1-6.5-3.5q3.4-2.1 3.5-7.5Zm122 3 1 2zm8.5 0 5 1-1 3.5.5 1.5q-2.2-2.7-7.5-2.5l3-.5zm-135.5 7-.5 1.5-1.5 2.5.5-1.5zm133.5 3 4 1-1.5 3q-2.2.8-1.5-1.5zm15.5 0-1 2zm-21 4 1.5 2.5-2-1z" opacity=".996"/><path fill="#e69539" stroke="#e69539" d="m147.5 23 .5 2.5h-1zm-20 20 4.5 10.5h-1zm3 0 3.5 2.5 3 9h-1L132 44zm-38 9 1.5 4-4.5 1q-3.5-2 1-4zm40 3 1.5 7q4.9 1.8 3-4.5h1q1.2 12.2-4.5 17.5-4.4 1.5-3.5-1.5l2-4 1-9q-2.4-1.4-.5-5.5Zm-48 4 1 2zm3 3 3.5 9.5h-1zm5 0 2.5 8.5h-1zm-36 3 .5 3.5-2-1zm-5 2 .5 2.5h-1zm-2 1-1 2zm114 3 .5 2.5-2.5 3.5.5-1.5zm-68 1 .5 10.5-2 6.5-3.5 1-.5-3.5 1-1 .5-12.5 1 7q3.8-1.7 3-8Zm-50 2 .5 2.5h-1zm4 0q2.3 2.8 1.5 8.5l3 6-2-1-2-5zm-3 4 .5 3.5h-1zm114 0 .5 2q2.7 1.1 2-1.5h1q-1.2 9.8-8.5 13.5l-9 5-.5-4 8-5z"/><path fill="#e69539" stroke="#e69539" d="M47.5 83q.9 6.1 5 9 1.8-3.7 3.5-.5l2 3 1 2.5-8-4-4-7.5zm-24 10q2.3.8 1.5 4.5l-3 3-5 10-4 18v17l3 7-2 5.5q-3.8 1.5-3-1.5l-4-13v-8l1-1 1-18 3-11.5q2.7 1.1 2-1.5zM34 98q3-1.2 2 2.5 5.7 4.8 5 16-2.7 1.7-1 8l-3.5 4.5-.5-3.5 1-1v-18zm137.5 10h3l4.5 2.5-9 3.5-1-3.5zm-89 5 2 1 1-1h12q7.4 1.1 10.5 6.5 1.8 5.3-3.5 3.5l-1 1q-12.7-1.7-21 1h-2l-1.5-.5 2-1-1-2 4-7.5zm-7 3-2 3zm88 1 .5 1.5-.5 1.5q2.6-.7 1.5 2l-3-1.5zm-91 5 2.5 1.5-1.5-.5zm100 15q2.3-.7 1.5 1.5zm15 0 2.5 6 2 .5-4.5.5-5.5-2q1.5-3.7-1.5-3v-1l5.5.5-2 1 2.5 1.5 1.5-2.5zm-160 16-1 2zm1 2 .5 3.5-7.5 5.5.5-1.5q-2.1-5.8 2.5-4.5zm140 12 5 1 1.5-.5-3.5 1.5-3.5-1v2h4v1.5l-1.5-.5-3.5-1.5zm12 3 6.5 3.5 1 3-1 2.5-7-4.5 3.5-.5 2.5 1q1.3-3.3-3.5-2l-2.5-1zM36 182q4.1-1.7 3 2.5v2q.7 3-3 1.5z"/><path fill="#ad494d" stroke="#ad494d" d="m156.5 19 .5 3.5-3 6.5-9.5 5 .5-1.5 3-9.5q5.4-.3 8.5-4Zm-36 24q7-1.5 6.5 1.5l5 10 1 10-3 10.5q3.8 1 5-1.5l3-8v-8l-2-8-4-6 1.5.5q4.5-1 5.5 1.5 5.9 7.6 4 23l-3 7.5h-16.5l-.5-1.5q5.7-5.3 4-18zm-29 8 .5 2-4.5 2v-1zm3 3q6.6 9.9 7.5 25.5l-1 5-2.5 2.5-4 1 .5-1.5 1-14q-1.8-9.9-6-16.5 4.8 1.7 4.5-2Zm-11 2 .5 2.5 7 14v13L88.5 91q-5.4 1.9-4.5-1.5 3.1-5.4 2-15-2.2-9.3-8-15zm75 4 5.5 10.5-4 9-6 8.5-8 5 .5 4q9.7-3.8 15.5-11.5l1.5-3.5.5 4.5-4.5 9.5-8 5H148q1 3-2 2l-1-9.5q2.2-1.3 1-6l-.5-1.5 3.5-1 8-11.5zm-102 4 1.5.5-3 2 1 8-1 3q2.1 9.4 8.5 14.5l2.5 1.5Q64.8 96 61 95q1 3-2 2l-1-4q-2.7 1.1-2-1.5l-4-6-2-12 2-7.5z" opacity=".996"/><path fill="#ad494d" stroke="#ad494d" d="m45.5 72 .5 1.5-1 3 2 9 4 7.5 6 3.5-1 4.5h-2.5L46 94.5q-4.3-5.2-5-14zm91 11 1.5 1.5V95l-4-1zm-100 23 .5 4.5h-1zm4 1 1.5 2.5-2 .5zm128 4 1.5 2.5h-1zm-82 1 7.5.5-7.5.5zm80 0-1 2zm-118 2 6.5 2v3h-7zm-12 1 .5 9.5h-1zm126 0 4.5 2-1.5 4-2.5-1.5 1-3.5zm-57 1q4 .5 3.5 5.5h-1zm-65 1 .5 6.5h-1zm46 7 7.5.5-7.5.5zm-51 4 2.5.5-2.5 3.5zm-28 2 .5 4.5H7zm170 6q3.3-1.1 2.5 1.5l-5.5 2.5-.5-3zm9 2q2.3-.7 1.5 1.5-1.3 2.8-2.5.5l-1.5-.5zm-6.5 1h2q-1.5 3.8 1.5 3v1l-3.5-1.5zm-166.5 1 .5 5.5h-1zm15 19-1 2zm140 7v2l5 1 1-3q1.3 3 5.5 2v4h1.5l4.5 1q1.1 2.7-1.5 2l-4-1v1l6.5 4.5-1.5.5-6.5-5.5q1-4.5-1.5-5.5H174q1.3 4.1-2 3 1.3-3.3-3.5-2-1.7 2.8-3.5-1.5zm-128 8 4.5 2.5-5.5 8.5-.5-3h-3v6q2.7-1.1 2 1.5L34 200h-5v-2.5q3.9-13.6 11.5-23.5Zm114 2q5-.5 5.5 3.5l10 14q-2.5 1.5 1 3l-.5 3.5H153l-7-22q5.5.8 8.5-2Zm-102 2h4l4.5 4.5q-4 7.3-4 17.5H43.5l-.5-3.5 6-14zm85 3 2.5 3.5 5 15-17 .5-2-12q7.8-.7 11.5-7ZM68 185h4.5q2.7 3.7 8.5 3l-2 12-14-.5zm41 0 9 4.5 2 10.5h-8v-2.5z" opacity=".996"/><path fill="#f4d66e" stroke="#f4d66e" d="M141.5 28h2.5v5.5l-2.5 2.5h-10l-3.5-1.5 1-2.5 3.5-2zM128 43l4 1 5 11.5V62q-3.7 1.5-3-1.5l-2-9zM86.5 55l4.5 3.5 4 13v6l-3 2v-6L88 62q-2.7 1.1-2-1.5-2.8-1.1-2-4.5zm-36 13 .5 3.5-2 5 2 9 3 5q-2 3.5-4-1-4.2-6.3-4-17l1-2.5zm113 6 .5 3.5-1 2.5q-3 1.3-2-2.5zm-134 12 3.5 1 2 10.5q-1.7 3.3-3.5-.5l-5-1-1.5.5-1.5-3.5-10 12-.5-1.5q3.8-9.7 11.5-15.5zM167 102l11 7.5-1.5.5q-.7-2.7-5-2l-4 4-1.5-1.5zm-82.5 11-.5 1.5-4 8 .5 1.5q-6.5 1-8.5-2.5l4.5-5.5zm78 3 1.5.5-2.5 3.5q-2.2.8-1.5-1.5zm26 13 1.5 2.5 1 11h-1l-2.5-5.5-1 1H180q-1.5-3.8 1.5-3zm-160 23 .5 2.5q-2.1 3.6-7 3.5 1.3 4.6-1.5 6h-4l-4.5-4.5 2-3 1-3.5 5.5 3h3l4.5-2.5zm141 14q5.8-1.7 4.5 2-5.2.3-4.5-2Zm20 0 .5 3.5-2.5 6.5-2-4-5.5-2.5z"/><path fill="#6494f7" stroke="#6494f7" d="m86.5 99 37 1 1 1 12 1 1.5 1.5v25l-1.5 1.5-9 5-10.5-2-1-15.5-6.5-7.5q-8.4-6.1-24-5-10.8 1.8-17.5 7l-.5 2-2.5-10-2-.5 7.5-2.5 15-1z"/><path fill="#5e644b" stroke="#5e644b" d="m142.5 22 5.5.5-5.5.5zm-19 9 .5 2.5h-1zm2 4 3.5.5-3.5.5zm14 10 1.5 2.5-2-1zm-76 17 3.5.5-3.5.5zm63 2 .5 2.5q-1.2 6.8-5.5 10.5l-6 1-14.5 7 1-7.5-1-2.5q8-1.2 12.5-7zM115 74l-13 8 1 2 16-8q4 1 3-2l-2 1zm28.5-9 12.5 9-7 11-4 1v-9h-3.5l-1.5-2.5zm2.5 15v4l5-3zm-90.5-5 .5 2.5h-1zm30 6 .5 2.5-2 8.5-4-2.5-.5-1.5-1 3h-2l-5 1-5.5-2v3h6.5v1h-6L61 89.5l-3-4 2.5 1.5 2-1h11l2 1 9.5-3zm-45 3 .5 4.5h-1zm-17 4-5 6z" opacity=".996"/><path fill="#5e644b" stroke="#5e644b" d="m76.5 92 3.5.5-3.5.5zm84 3-.5 1.5-5 8.5-8.5 5-.5-2q4.9.1 7-3.5l-7-1 2-.5q-1.3-3.3 3.5-2zm-113 1 8.5 6v6h-3.5l-4.5-3.5 2-5zm-22 1 1.5.5-3.5 2.5zm5 0 3.5 2.5-2 .5q1.1-2.7-1.5-2zm15 4 1 2zm121 1 .5 4.5h-1zM27 104q2.7-1.1 2 1.5l1 1v18l-2 11-4 12.5-3-1.5q-2.6-5.9-1-16l1-1 1-12zm35.5 0 .5 3.5h-1zm111 1 1 2zm-8 6 1 2 2.5-1-.5 2-1-1-3 3-1.5-1.5zm-118 3 .5 5 2 .5-3 .5zm91 2 .5 3.5h-1zm23 0-1.5 2.5q-.7 2.3 1.5 1.5v1l-2.5-1.5zm-153 3 .5 2.5H8zm46 7 1 2zm134 2 1 2zm-43.5 1q4.6-1.2 6 1.5l-1.5 3.5-4.5 1zm24.5 0 3.5.5-3.5.5zm-156 1 .5 3.5h-1zm42 0 .5 6q-3.8 1.5-3-1.5v-2q-.7-2.2 1.5-1.5zm27 1 7.5.5-7.5.5zm101 1-1 2zm-11 6 1 2zm-89 2 4.5.5-4.5.5zm44 1 3.5.5-3.5.5zm-99 10-3 4-1.5-.5zm149 0 2 1 1.5-.5q.8 6.1-1 8.5l-4-1zm-160 1 2 3zm27 15 2 3zm110 1-1 2zm-15 2 2.5.5q-6.2 1.8-9.5 6.5l4-5zm8 0 4.5.5-4.5.5zm-95 1 4.5.5-4.5.5zm9 1 3.5 4.5-2-1zm97 1 2.5 1.5-2.5.5-1.5.5 6.5 7.5 2-1-1 3 3.5 1.5h-2l1.5 2.5 1.5-.5 1 3h-1l-.5-1.5-1.5.5-11-16.5zm-113 3 6.5 2.5-1.5 2.5-.5-2-4.5-2-1.5.5zm55 0 6.5.5-6.5.5zm-5 1 2.5.5-2.5.5zm13 0 2.5.5-2.5.5zm30.5 0q5.4-1.5 7 1.5l1 3-2-1-1.5-2.5q-3.7-.7-4.5 1.5l1 2-2 .5zm-26.5 1 1 2zm-33 3 6.5.5-6.5.5zM61 182l7 2v4h-1.5l.5-1.5-.5-1.5h-2q-3.7-.7-4.5 1.5l-.5 1.5-.5-1.5zm86.5 1 1.5 3.5h-1zm-30 5h8l.5 2.5h-1l-.5-1.5H119l-.5 4zm-51 2 .5 2.5h-1zm38 2 .5 2.5h-1zm64 1 3.5 2.5 1 4.5q-3.3 1.3-2-3.5z" opacity=".996"/><path fill="#eaddc4" stroke="#eaddc4" d="M140.5 23h6.5v3.5l-2.5 5.5-.5-4-8.5 1-6.5 3-1.5 3-3.5-1.5q-.7-5.7 3.5-6.5zm-93 124 .5 3.5h-1zm13 15 .5 2.5h-1z"/><path fill="#e5e4e7" stroke="#e5e4e7" d="m115.5 124 1.5 9-17.5 4-5-3-13-1-7.5 2q1.1-2.7-1.5-2-2-3.2-6.5-3l.5-3q2.8 4.2 9 5h25q1.8-2.7 8-1l5.5-3z"/><path fill="#e5e4e7" stroke="#e5e4e7" d="M48.5 127H55v3l-4 2.5q-.5 4 2.5 4.5h11l7 6h4q4.6-2.9 13-2l5 1 5 3h4l13-4h8q1.8 2.8 8 1l7-5 16-1-1 2q-9.5 0-14.5 4.5l2 .5-3.5 7-16-5h-5l-8.5 4.5-1.5 2.5q-1.7-2.8-7-2L79 166l-4.5 7-4.5-9.5-1-13-2.5-3.5q-4.4-1.5-3.5 1.5l-2 3v10q-2.5 1.5-1 7l-1.5 1.5-4 1q-4.8-4.7-6.5-12.5v-15l-1-3.5q-4.1-1.7-3 2.5l-2 4-1.5 15.5q-4.8-2.2-3.5-10.5l4-14q2.3-6.7 7.5-10.5Zm51 57q4.2-1.3 2.5 3.5l3 12.5H87.5l-.5-3.5q2.5-1.5 1-7l2.5-2.5z"/><path fill="#bac5d0" stroke="#bac5d0" d="M63 104q3.3-1.3 2 3.5 2.8 1.7 2 7l-3 7 2 8-1.5-.5-1.5-.5zm53.5 21 .5 2.5h-1zm31 0q11.5-1 14.5 6.5l5 11 2 13-3.5 4.5-1.5-.5v-8q-2.3-1.2-1-6l-3.5-7.5q-3-.5-1.5 6.5l1 1v13q-1.5 7.6-6.5 11.5-4 .5-4.5-2.5l-2-7v-8l-3.5-7.5-3 2 1.5-2.5q.8-2.2-1.5-1.5v-1q5-4 14-4l1.5-1.5-9.5-.5-5 1v-1l9-1 1.5-1.5 1-2-1-2.5-6-1q-1.1-2.7 1.5-2zm-101 3-1 2zm7 2-1.5 2.5 1.5 3.5 1.5.5-1.5.5q-3-.5-2.5-4.5zm18 0 1.5.5-2 1 .5 1.5q-3-1.5 0-3Zm25 1 4.5.5-4.5.5zm-15 2 8.5.5-8.5.5zm15 2 2.5 1.5-1.5-.5zm-38 1 3.5.5-3.5.5zm9 2 2 3zm-22 2 1.5.5-2 .5-1.5 4-.5-1.5zm87 0-1 2zm-85 3 .5 3.5h-1zm69 2h5l16 5 1.5-.5-1 2v12l-2 9-6.5 6.5q-3.7 3.3-12 2l-5.5-3-3-6.5-3-12v-6l-2.5-2.5q-5.5-1-6.5 2.5-2.3 4.8-1 13L93 178l-6.5 3h-7l-4.5-3.5-4-10h1l2.5 5.5 4.5-7 20.5-16h4l3 2 3-4zm-74 1 .5 4.5h-1zm21 1 .5 1.5-2 1zm3 0q3.5 2 2.5 8.5h-1q.6-6.5-1.5-8.5Zm-19 4 .5 5.5h-1zm14 0 .5 7.5h-1zm-20 2 .5 8.5h-1zm-5 2q-.1 5.1 3.5 6.5l-4-3zm12 4 .5 2.5h-1zm21 0 .5 2.5h-1zm-20 4 4.5 7.5-2 .5zm11 2 .5 3.5h-1zm-4 5 2.5.5-2.5.5zm46 15 .5 2.5h-1zm-13 2-1 2zm-2 5 .5 3.5h-1z"/><path fill="#708591" stroke="#708591" d="m126.5 27-1 2zm17 7-1 2zm-30 9q6-1.5 7.5 1.5l-1.5-.5q-7.4-.9-11 2l1-2zm-13 4q2.6-.8 1.5 2.5 2.3 1.3-.5 2.5-7-1.5-6.5 1.5l-3-2zm43 12 .5 5.5h-1zm-65 1 3.5 5.5-1 2.5-17 6-1-5.5.5-1.5-6.5 1 1.5-4h7q4.9-2.9 12.5-2zm5 39 2.5.5-2.5.5zm29 0 4.5.5-4.5.5zm25 3 1.5 1.5v12h-1v-12zm-52 3 3.5.5-3.5.5zm6 0 4.5.5-4.5.5zm-29 3 .5 21 2 .5-1.5.5-1.5-1.5zm9 2-1 2zm38 0 1 2zm-41 2 .5 1.5-2 1zm-2 14 1 2zm91 0 3 4zm-102 2 .5 1.5-2 1zm90 0 3.5.5-3.5.5zm-42 2 3.5.5-3.5.5zm-26 1 4.5.5-4.5.5zm13 0 5.5.5-5.5.5zm-18 2 1 2zm45 0 4.5.5-4.5.5zm33 0-1 2-2.5-.5zm-8 2 2.5.5-2.5.5zm-87 1 2.5.5-2.5.5zm44 1 2.5.5-2.5.5zm35 1-1 2zm23.5 0 3 1.5 2 6 1 14 1 1-5.5 1.5-2 2 .5-1.5q2.3-6.7 1-17l-1-1zm-39.5 2 2.5.5-2.5.5zM45 141l2 .5v15l5 14.5q-5.6-.1-8-4.5l-3-4 1-1 1-16zm27.5 1 2.5.5-2.5.5zm27 2 2.5.5-2.5.5zm42 1 2.5 1.5 2 6 1 12 3 5-7.5 1.5-3-1-3.5 2 2-8.5v-12l1-4zM64 147l3 1.5 4 21 6 10-3.5-2.5-5 1-4.5-2.5-3.5-4.5-1.5-.5 2-2 1-18zm35.5 4q5.5-1 6.5 2.5v6l3 12 3 6-1.5-.5-10-1-11 4v-1l3.5-1 3-11.5v-10zm-63 8 1 2zm119 7-1 2zm-24 11-1 2zm-18 1 1 2zm6 3 4.5.5-4.5.5zm-20 2q4.4-1.5 3.5 1.5l-1.5-.5q-3 .5-2-1ZM38 188l2 .5-1 3 1 3.5-3 1.5q1.3 4.8-2 3.5zm49.5 1 .5 2.5h-1zm-30 8 .5 2.5h-1z" opacity=".996"/></svg>