<svg xmlns="http://www.w3.org/2000/svg" width="200" height="200"><path stroke="#000" d="m114.5 15 2.5.5-2.5.5zm-12 5 1.5.5-2.5 1.5zm-3 2-1 2zm-3 2-1 2-3 2 2-3zm19 0 .5 1.5-1.5 2.5-.5-1.5zm-25 4-1 2zm23 1 .5 1.5-1.5 2.5-.5-1.5zm-26 1-1 2zm-3 2-2 3-3 2 2-3zm83 3 1.5.5-5.5 2.5v-1zm-90 2-2 3-4 3 3-4zm32 2 .5 1.5-1.5 2.5-.5-1.5zm50 0-1 2-4 2 1-2zm-90 4-3 4zm81 1-1 2-5 3 1-2zm28 1 .5 1.5-3.5 6.5-.5-1.5zm-114 2-5 6zm78 2-2 3-3 2 2-3zm-85 4L54 57.5l-.5 1.5-.5-1.5zm78 1-2 3-4 3 3-4zm-8 6-3 4zm44 1-.5 1.5-1.5 3.5-.5-1.5zm-118 1 .5 2.5h-1zm69 2-.5 1.5-.5 1.5-.5-1.5zm-68 3 .5 4.5-4.5 5.5.5-1.5q3.7-2.3 3.5-8.5Zm114 0 .5 1.5-1.5 2.5-.5-1.5zm-48 1 .5 2.5h-1zm-12 2 6.5 2.5-1.5.5-5-2zm8 3 2 1 1.5-.5q.8 2.3-1.5 1.5zm48 4 .5 1.5-2.5 4.5-.5-1.5zm-115 1-1 2zm-2 3-4 5L29 99.5l-2.5 3.5 1.5-2.5L42.5 85zm117 8 .5 2.5h-1zm0 5 .5 1.5-1.5 2.5-.5-1.5zm-139 10-2 3zm-3 4 .5 2.5h-1zm152 0 .5 4.5h-1zm-151 5 3.5 7.5-2-1q-3-2.5-1.5-6.5Zm150 1 .5 2.5-2.5 5.5-.5-1.5zm13 4 2.5 1.5-1.5-.5-4 3zm3 3 1.5 3.5h-1zm-162 1 4.5 5.5-4-3zm-8 1 15 16 1-2 .5 3.5-9-8zm151 0 .5 1.5-1.5 2.5-.5-1.5zm12 0-1 2zm-2 3-3 4zm11 0 .5 2.5h-1zm-24 4-.5 1.5-8.5 11.5 3.5-4.5zm25 0 .5 2.5h-1zm-158 1 .5 4.5h-1zm142 0-11 12-5 4 5-6zm17 5 .5 3.5h-1zm1 8 .5 4.5h-1zm-183 8 .5 5.5h-1zm1 10 .5 2.5h-1zm183 3 .5 2.5h-1zm-182 3 .5 2.5h-1zm1 5 .5 2.5h-1zm180 1 .5 2.5h-1zm-179 3 .5 2.5h-1zm178 3 .5 2.5h-1zm-1 5 .5 2.5h-1zm-172 8 .5 2.5-2 1z" opacity=".082"/><path stroke="#000" d="m100.5 23-.5 1.5q1.6 5.7-4 3.5l1.5-3zm-10 7q2.6-.7 1.5 2l-3-.5zm37 32 .5 2-2-.5zm-29 10 2.5.5-2.5.5zm17 2 1 2zm-63 2-1 2zM160 80l2 .5-1 2 .5 1.5H160zM45.5 85l-1 2zm-12 11-1 2zM26 116q3.3-1.3 2 3.5h-1zm-10.5 4 2.5 4q-3 1.3-2-2.5zm173 1 .5 2.5h-1zm-176 1 .5 2.5h-1zm10 6 1 2zm158 0-1 2zm-144 5 .5 3.5h-1zm140 0-.5 1.5q.8 2.3-1.5 1.5l-2.5 4-3.5 2zm-148 2 3 4zm131 4-2 3zm33 1 .5 3.5h-1zm-155 2 .5 2-2-.5zm-25 6 .5 2.5h-1zm2 18q2.3 1.8 1.5 6.5h-1zm177.5 6q2.7-1.1 2 1.5l-1.5 2.5z" opacity=".996"/><path stroke="#000" d="M0 0h200v200l-12-.5 5-12 3-22-1-1v-20l-1-1-1-13q-1.2-7.7-5.5-12.5l-4.5 3.5q-6.4 11.6-16.5 19.5l-7 6-1.5-3.5q8.7-7.3 13-19l4-12v-10l-3.5-2.5-9.5 2 3-6.5v-6l-2-8 16-35 4-14-3.5-.5-12 3-19 10L121 65.5l-1 7-1.5 1.5-9-4h-8L99 71l9-27.5L119 16l-4.5-1-20 10Q71.9 39.4 53 57.5l1 14L43.5 85 28 99.5l-5 7-1 4q2.3 11.2 9.5 17.5 2.3-.7 1.5 1.5l2 9-7-6L14.5 118q-3.7-1.2-2.5 2.5l-1 1v36l1 1 2 17 6 20-2 4.5H.5l-.5-.5z" opacity="0"/><path stroke="#000" d="m100.5 22-1 2zm-3 2-1 2zm-3 2-1 2zm-3 2-1 2zm-3 2-1 2zm-3 2-2 3zm95 0q2.6-.8 1.5 2.5h-1zm-99 3-1 2zm-3 2-1 2zm84 1 1.5.5-4.5 2.5 1-2zm-88 2-2 3zm-4 3-2 3zm83 0-1 2-2 1 1-2zm-5 3-1 2zm-83 1-4 5zm78 2-1 2zm-4 3-1 2zm35 0 .5 1.5-1.5 2.5-.5-1.5zm-116 1-4 5zm78 1-1 2zm-4 3-2 3zm-79 2 .5 2.5h-1zm75 1-3 4zm43 0-1 2zm-117 4 .5 2.5h-1zm69 0-1 2zm-20 6 4.5.5-4.5.5zm-5 1 3.5.5-3.5.5zm22 0 .5 2.5h-1zm-67 2-1 2zm64 1 2.5 1-.5 2zm-66 2-1 2zm-2 3-.5 1.5-4.5 5.5 3.5-4.5zm-7 7-2 3zm121 1 .5 2.5h-1zm-131 9-3 4zm-4 5-2 3zm134 1 3.5.5-3.5.5zm12 1 .5 4.5h-1zm-1 8 .5 2.5h-1zm-160 7 5.5 4.5-4.5-3.5-2 1zm14 3 1 2zm157 0-1 2zm-155 3 3 4zm153 0-1 2zm-171 2 .5 25.5h-1zm10 0 5 6zm147 0 .5 1.5-2.5 3.5.5-1.5zm12 1-3 4zm-15 5-1 2zm-130 1 .5 3.5h-1zm140 0-7 8zm17 0 .5 3.5h-1zm-164 1 7 8zm135 1-1 2zm-2 3-3.5 4.5-.5 2.5-.5-2.5zm32 2 .5 4.5h-1zm-29 3-2 3zm-6 3 1 2q-2.8.7-1-2Zm36 3 .5 15.5h-1zm-182 7 .5 5.5h-1zm1 8 .5 3.5h-1zm181 5 .5 4.5h-1zm-180 1 .5 2.5h-1zm179 7 .5 2.5h-1zm-1 5 .5 2.5h-1zm-4 14 .5 1.5-1.5 2.5-.5-1.5z" opacity=".655"/><path fill="#4f3125" stroke="#4f3125" d="m100.5 43-1 2zm-26 5-1 2zm95 0-1 2zm-108 19 .5 2.5h-1zm64 13-2 3zm32 6 .5 2.5h-1zm-112 6-1 2zm97 27-5 6zm-119 19 1 2zm156 0-7 8zm-138 2 .5 4.5h-1zm146 7 .5 6.5h-1zm-169 2 .5 4.5h-1zm117 4-1 2zm-23 17-6 7zm7 1-1 2zm-20 2-1 2zm56 1 .5 7.5h-1zm-88 3-1 2zm19 1 3.5.5-3.5.5zm-43 1-3 4zm59 0-1 2zm-25 1 2 3zm-52 6 1 2zm39 0 .5 3.5h-1zm97 0 .5 2.5h-1zm-104 8 .5 2.5h-1z"/><path stroke="#000" d="m114.5 16 3.5 1.5q-6.2 7.4-8 18.5-3.3-1.3-2 3.5l-11 32 3.5 1.5 5-2q9 1.5 14 7l1.5-1.5 1-9 3.5-3.5q3.3 1.1 2.5-1.5 12.3-11.2 27.5-19.5l19-9 6.5-1-3 11.5L161.5 80H160v4q3.3-1.3 2 3.5 2.8 1.7 1 8l-4 9 1.5-.5 12-3q2.8 1.3 1.5 6.5l-4 15-8 14-5 5v5q2.8 5.3 5.5-.5l9.5-6 2.5-4q2.3.8 1.5-1.5l10.5-14.5q3-.9 1.5 3.5l2 3 2 9v8l2 9V172q-3.3-1.3-2 3.5l1 4-4 15-3.5 5.5-5.5-.5 4-7 4-15v-34l-2-11.5-5 3.5-10.5 11.5-8 6H160v8.5l2 10 15 28-5.5.5-8.5-16q-3.5-1.1-2 6.5l-2 9.5h-6v-3.5l3-11v-17l-4-21.5-12.5 4-5.5 3.5-5 14-21.5 31.5-5.5-.5 4-8 17-24 4-9.5-12 7.5-8.5 10.5-12 8-8 1q-6.6-.9-9.5-5.5l-1.5-2.5h-9l-.5 1.5-2 5q1.3 10.9-1 16.5h-5v-11.5l2-11-1.5-1.5-11-2L30 192.5l-4 7.5-7-.5 3-7-5-12-1-12-2-3-1-17-1-1v-13l1-15.5q2.7-1.1 2 1.5l1 3.5h3q-1.1 2.7 1.5 2l16 18q2.3.8 1.5-1.5l-1-3-1-9-7-8-1-6.5q-4.5 1.8-3-3.5l-1-5q5.3-3.5 7-9.5l3-1.5 6.5-7.5 7.5-5.5 9-13q-3-4-2-12l2-3.5 5-2 1.5-3 24-18H92q-1.5-3.7 1.5-3 1.5-3.5 3-1 5.3 1.8 3.5-3.5zM107 26l-12 9-11 6-22 18q1 2-2 1l1 7v6l-9 15-10 7-12 15q-1 5 2 8l4 2 2 3 3 14q2 16-3 25 8 10 27 10h2l3 1 14-2 18-5q18-7 32-18l6-1 14-7q13-11 15-33h-5l-5 2-15 9-12 13-2 6-4 1 1-5 5-9q6-9 17-14 8-5 10-16l-2-9 1-10 10-23q-1-3 2-2l3-9-14 6-19 12-3 4-7 4-3 4-2 10-4 3-7-5-6-2q-7-1-8 3l-7-1-2-1v-5l6-16 1-7 10-23zM17 132l2 33 3 14 3 7q-1 3 2 2l15-16q1-3-1-2l-6-5-1-5 2-4q1-7-1-7l-13-13zm85 38-16 5q-5-2-4 2l4 2 9-1 9-7z"/><path stroke="#000" d="m95.5 26-1 2zm-3 2-1 2zm-3 2-1 2zm-3 2-1 2zm-7 5-1 2zm-3 2-2 3zm-5 4-1 2zm-4 3-2 3zm77 3-1 2zm-3 2-1 2zm-81 1-2 3zm74 4-2 3zm-79 1-.5 1.5-.5 1.5-.5-1.5zm116 1 .5 1.5-2 1zm-42 2-1 2zm-5 4-2 3zm-69 2 .5 2.5h-1zm42 3 .5 2.5h-1zm-42 2-1 2zm61 3 3 4zm-73 12-1 2zm-4 3-6 7zm-9 10-1 2zm-3 4-3 4zm146 5 .5 2.5h-1zm13 11 1.5.5-2.5 1.5zm-168 4 2 3zm11 0 5 6zm153 2-1 2zm-158 5 3 4zm11 0 .5 2.5h-1zm143 0-2 3zm-13 1-1 2zm-129 6 .5 6-5-3.5 4 2zm125 0-1 2zm31 0 .5 2.5h-1zm-25 4-4 5zm26 4 .5 4.5h-1zm-32 1-1 2zm-149 5 .5 4.5h-1zm1 10 .5 2.5h-1zm181 4 .5 3.5h-1zm-1 9 .5 2.5h-1zm-172 18 .5 2.5h-1z" opacity=".949"/><path fill="#c98950" stroke="#c98950" d="m104.5 28 1.5.5-2.5 5.5q-5.5-3 1-6Zm-10 7 5 1 2.5 2.5-3.5 6.5-4-2-1.5 3.5 4 7-3.5 9.5q-3.7-5.3-11-7-4.2 1.7-1.5 3.5-.7 2.3 1.5 1.5l5.5 3 2 8-16.5 8-2-5-4.5-.5 2-6 1-10 5.5-6.5 9.5-7.5q-.7-2.2 1.5-1.5l8.5-6.5zM90 41l-4 4 5 1 1-3zM76 54l-4 4q1 2 6 1l1-2zm11.5-15-2 3zm84 3-.5 1.5-2.5 5.5-4-2-2.5 3.5q3.2 2.3 2 9l-2 6.5-6.5-4-2.5 1 1 5q2.7-1.1 2 1.5 2.5 1.5 1 7-2.3 1.3-1 6l2 10-2-1q-.8-7.2-6.5-9.5l-3 1 1-2q2.8.6 1.5-5.5l-1-4 4-8 9-11v-3l3.5-4.5 2 1v-2l1.5.5q-.8-2.6 2.5-1.5zm-91 2 1.5.5-2.5 1.5zm-5 4-1 2zm76 4-1 2zm-82 1 1.5.5-2.5 1.5zm-5 4-1 2zm75 3-2 3zm-6 5-1 2zm-6 8 .5 2.5h-1zm-1 4 .5 2.5h-1zm-67 1-1 2zm86 7 6.5 8.5 1 10-4.5 5.5-6 4-2.5-.5 3-1.5 1-3.5q-1-3.5-6.5-2.5l-4 2 1-2 4.5-1 1-2.5-2.5-3.5-10 2v-1zm-28 1-.5 1.5q.8 2.3-1.5 1.5zm-18 1 1.5.5-3 13V111l-12.5 5-5.5-8.5L95.5 90zm-51 4 1.5.5-9 19 3 6-3 7 .5 1.5-2.5-.5-2.5-5.5-3.5-2.5-2-7L44.5 94zm77 5 .5 1.5-2.5 3.5-.5-1.5zm-73 20 2 3q-1.7-3.1-3.5-1.5zm25 1 1 2zm-6 3-2 3-2.5-.5zm-7 2-1 2zm20 2 3.5.5-3.5.5zm21 0 3 4zm-1 7 1 2zm-14 4-5 6zm8 0 2.5.5-2.5.5zm57 1-1 2zm-100 1 1 2zm68 0 1 2zm-31 1-4 5zm-43 1 5.5.5-6.5 1.5zm7 2 1 2zm-9 2 .5 3.5h-1zm54 6-1 2zm-47 3 3.5.5-3.5.5zm0 3 4.5.5-4.5.5zm-14 7 1 2zm22 9 8.5.5-8.5.5zm33 2 2.5.5q-3.2 4.8-11.5 4.5l-2.5-1.5zm-47 2 4.5 1.5q-11.1 9.7-17 23.5l-9-.5L39.5 184l4.5-3.5zm90 2 1.5 23h-16.5l-.5-1.5zM65 184l33.5 9h5.5l-3 7H64.5l-.5-1.5 1-1z"/><path fill="#8f4344" stroke="#8f4344" d="m102.5 29-1.5 2.5 3 3-1 1q1.1 3.3-1.5 2.5-1.2-3-5.5-2l1.5-3zm-13 12 2.5 1.5-1 3.5-5-1.5zm81 1 1 2zm-76 1 4.5 2.5-2.5 7.5-3.5-8.5zm70 4 3.5 1-3 6.5-.5 4.5q.3-6.2-2.5-9.5zm-92 3-2 3zm3 4 3.5 2.5-1 2.5q-4.6 1.3-6-1.5zm-9 1-1 2zm16 1q7 1.6 10.5 6.5L90.5 72 88 64l-7-3-1-2.5zm73 6 5.5 4.5-3.5 7.5-1.5-6q-2.7 1.1-2-1.5l-1-3.5zm-25 5-1 2zm-59 8 1.5 2.5h-1zm32 3h4l5.5 2q1.1 2.7-1.5 2-3.2 1.8-3.5 6.5l3 2-2 5q1 2.5 5.5 1.5l4-2 .5 4 6 2.5-2 .5v4h1.5l5 1 4-2v2l2-1-.5 1.5-1 2 1 2.5 2.5 1 3-2 .5 2.5-1.5 1.5-6.5 5.5-5.5 9.5-2.5-4-3-1.5 4-3-1-3.5h-6.5l-7.5 2-1-5h-4v-5h-1.5l-2-1-6 3v-1l1.5-.5v-10l3-13-1.5-.5L84 101.5l-3 5.5q-2.7 1.1-2-1.5l-1-2.5q-5.5-1.2-7 2.5L64.5 120l-8-10H52q1.7 4.1-2.5 3h-2q-2.2-.7-1.5 1.5l-3.5 7.5-.5-1.5 2-6-3-5 9-18q-2.2-1.2.5-2.5l2.5-1.5 4.5-8.5 4 4h2l3-2 .5 3.5q-3.7.7-3 6l2.5 1.5q8.5-9.5 23-13L88 81.5l2.5 3.5h3zm44 4h2l5.5 5.5 1.5 4.5 1-2 .5 1.5v2l-5.5 11.5.5-1.5-1-10-6-8v-2z"/><path fill="#8f4344" stroke="#8f4344" d="M115.5 87v3l-3 1zm5 0 3.5.5-3.5.5zm6 3 .5 2.5h-1zm-79 1-2 3zm-5 4-4 5zm91 3q4.5-1 5.5 1.5l-1.5-.5q-5 1-4-1Zm-97 4-2 3zm100 2 5 1 2.5 2.5-.5 1.5-2-3q-5.5 1-5-2Zm-103 2-2 3zm48 4 2.5 3.5-2-1zm-50 3 4 6 2.5 1.5-1.5-.5-4.5-3.5zm44 0 1 2zm9 2 3 1 1.5-.5-3.5 1.5zm20 1 .5 4.5h-1zm41 1-1 2zm-49 1 1.5.5-2.5 1.5zm-41 1 3 4zm9 2 1.5.5-5.5 2.5v-1zm16 0 1 2zm9 1-1 2zm27 3q4.4-1.5 3.5 1.5l-1.5-.5q-3 .5-2-1Zm-69 1-1 2-2.5-.5zm62 1 2.5.5-2.5.5zm-9 4q4.8-.7 5.5 2.5 0 9.9-3 15.5l-5.5 3-8 2-7.5-3.5 1-7 9.5-9.5zm-1.5 4-6 3-7 8v3l3 1 9-1q6-2 4-12zm22.5-2 1 2zm63 0 2.5 11.5v15l1 5-1 1v12l-2 9-6.5 13.5-15.5-28.5-2-17.5 7.5-4 15.5-15.5zM18 134q2.7-1.1 2 1.5L33.5 150q3.4-.9 1.5 4.5l-2 6 2 6 2.5 2.5 3.5 2.5L26.5 186l-1.5-1.5-6-28zm139.5 0-1 2zm-109 2h4l7.5 5.5 3 6v5l-2.5 2.5h-9l-5.5-4.5-1-8 1-4zm1.5 3-3 5 1 5 7 4q5 1 6-3l-3-7q-1-5-8-4Zm73.5-3 4.5 2.5-2.5.5zm30 2-1 2zm-112 7 .5 5.5h-1zm108 3q2.3-.7 1.5 1.5l2 5 1 12 1 1v18l-3 14.5h-12v-11.5l-1-1-.5-10.5q-9.8 10.1-15.5 23l-14-.5 20-29 7.5-17.5q8.1-.9 13-5Zm-25 12 .5 1.5-20 31.5h-6.5L65 183.5l2-5.5h8.5l.5 1.5q3.4 6.6 13.5 6.5l11-4 13.5-12.5 3.5-5.5zm-82 4 1 2z"/><path fill="#8f4344" stroke="#8f4344" d="m100.5 171 1.5.5-4.5 3.5v-2l-1.5-.5zm-52 3-2 3zm41 0 2.5.5-2.5.5zm-4 1 2.5.5-2.5.5zm-32 1 5.5 1-2 10.5V200H36.5l-.5-1.5q7-13 17.5-22.5Zm30 0 2.5 1.5-1.5.5zm7 1 2.5.5-2.5.5zm-47 3-3 4zm119 6 6.5 11.5v2.5h-9v-3.5zm-129 4-3 4zm31 3 .5 4.5h-1zm-35 2-1 2zm-2 3-1 2z"/><path fill="#602930" stroke="#602930" d="M89.5 72q3-.9 1.5 3.5l-1 2 8 4-4.5 3.5h-3L88 81.5l1.5-2.5-9 3-15 10q-2.2-.7-1.5-4.5 3.8-.7 3-6l-1.5.5-4 1-2.5-3.5q3.8-4.2 11.5-4.5l2.5 5zm15 5 2.5.5-2.5.5zm9 3 .5 2 5 2.5-7 6 1.5.5q2.9-4.1 11-3 2.8 1.3 1.5 6.5l-3.5 5.5-3.5-1-.5-4q-2.3 2.7-8 2l-1.5-3.5 2-3-3-2q.3-4.7 3.5-6.5 2.5.7 2-2Zm19 19q5.3-1.2 6.5 1.5l-1.5 3.5-8 3h-4l-2.5-1v-4h1.5zm-95 1-1 2zm36 3q5.4-1.9 4.5 1.5l7.5 12.5 18-8 2.5 1v5h4v1.5l1 3.5 7.5-2h6.5l1 3.5-4 3 3 1.5 3 4.5-3.5 6.5-5.5-9.5 1-2.5q-4.5-.8-6.5 2h-5q-5-2.8-3.5-11h-3.5l-14 8h-3l-4.5-3.5-4.5-7.5-2.5 1.5-3.5 7.5-5-1q-.7 2.8-5 2l-5.5-7q-3.7-1.5-3 1.5l-4.5 9.5q-3.7.8-4.5-1.5v-3l4-9.5 2.5-1 3.5 1q-1.8-4.9 4.5-3l8 10q2.5-10.5 9-17Zm63 3q5.3-1.2 6.5 1.5l-1.5 3.5-4 2-2.5-1-1-2.5zm15 0-1 2zm-13 9-5 6zm-105 3 1 2zm150 16-3 4zm-163 1 2 3zm166 6 .5 2.5h-1zm-159 2 6 7zm-9 3 .5 2.5h-1zm153 0-3 4zm-136 4 .5 2.5h-1zm130 1-1 2zm22 3 .5 5.5h-1zm-168 3 .5 2.5h-1zm134 0 .5 2.5h-1zm-120 1 .5 2.5h-1zm121 6 .5 2.5h-1zm33 1 .5 7.5h-1zm-152 1 2 3zm93 4-1 2zm-29 1 1 2zm-59 1-14 15-1-2 1 1zm84 4-1 2zm41 0 1 2zm-120 1-1 2zm68 2-1 2zm-74 4-6 7zm80 0-1 2zm-33 2 3.5.5-3.5.5zm-29 2 .5 6.5h-1zm7 3 .5 2.5h-1z"/><path fill="#dbb26c" stroke="#dbb26c" d="m94.5 36-3 4v-3q1.5 2.5 3-1Zm-7 4 1.5.5-4 2.5-4.5 6-4 3 3-4 3.5-2.5-1-2.5zm80 4-1 2-1.5-.5zm-5 2 .5 1.5q-2.7.8-2 5L152.5 63q-5.7.7-8-2l-5 1 2-3 6-4 5.5 4.5.5 1.5 6.5-10-5-.5zm-91 6 2.5 1.5-3.5 4.5-6 1 3-4 3.5-1zm-3 10 .5 6.5h-1zm82 4-.5 1.5-2.5 6.5-.5-2.5zm-21 3 2 2 10 3 4.5 4.5-1.5 3.5h-3l-7-5-6.5-1zm-62 3 .5 1.5-2 1zm-6 2-1 2zm87 1 .5 3.5h-1zm-89 2 1.5.5-2.5 1.5zm66 4-1 2zm20 3-2 3zm-27 2 .5 2-2-.5zm3 0 2.5.5-2.5.5zm4 1 1 2zm16 0-2 3-7 6 6-7zm-11 9-2 3-2 1-1.5-.5-.5 1.5-.5-1.5 3.5-1.5zm-27 21 .5 2.5h-1zm-23 5 1 2zm-20 2 2.5.5-2.5.5zm-12 2-1 2zm109 7-1 2zm-32 6 2.5.5-2.5.5zm-41 2-1 2zm-22 12-1 2zm58 1-1 2z"/><path fill="#f3e246" stroke="#f3e246" d="m93.5 36-3 4-2.5-.5zm-12 9 1.5.5-8.5 7.5H72l1.5-3zm73 6q6.1-1.2 5.5 1.5l-6.5 8.5-3-4-2.5-1.5zm-88 7 3.5.5q-3.5 4-2 13L65.5 75l-5 2 1.5-2.5 1-5-2-8zm78 3 7.5 2.5-5 10 2 6-6.5 7.5-17 13 .5-1.5 1-10-5.5-2.5-2 1 1-2 5.5-3.5 1-5.5 7.5 1 7 5h3l1.5-3.5-4.5-4.5-11.5-4.5q-.7-2.2 1.5-1.5l3.5-2q-1.1-2.7 1.5-2l2-2q4.7 1.3 6-1Zm-48 75q4.5-1 5.5 1.5 1 8-3.5 10.5l-9 2-3.5-2.5 1-3 7.5-7.5zm-47 4h5l4.5 4.5 1 6q-1.5 3-7.5 1.5l-3.5-2.5-1-8z"/><path fill="#eab99c" stroke="#eab99c" d="m163.5 108 4.5 1.5q-3.9 18.6-15.5 29.5l-12 6-8 2-15 10-15 7-27 7h-16l-9-2q-6.7-2.2-10.5-7.5l2-9v-15l-3-12q1.5-3 3 0l1.5 2.5 2 1 3.5-2.5 3.5-9.5 3.5 5 6.5 3q1.3-3.2 7-2l2.5-2.5 2-5.5 3 1.5 4.5 7.5 6 1 15-8q.9 7.6 6 11l3 1 6-3q1.6 9.4 8 14l4.5-1q2.7-12.4 12.5-19 8.6-7.9 21-12ZM99 131l-8 4-8 8-1 9 5 2h6l8-3q4-3 5-9v-11zm-51 5-3 6q-1 7 2 11l7 3 8-1 2-3q-2-2-1-6l-2-3-6-7z"/><path fill="#231411" stroke="#231411" d="m102.5 28-3 4zm-13 9-1 2zm11 7-.5 1.5-.5 1.5-.5-1.5zm-31 8-1 2zm-5 4-2 3zm75 3-2 3zm-6 5-1 2zm-4 3-1 2zm-70 8-1 2zm54 4 2 3zm43 0 .5 2.5h-1zm-39 3 1 2zm-70 8-1 2zm-6 5-3 4zm113 8-2 3zm12 4 2.5.5-2.5.5zm-27 8-6 7zm-3 10-1 2zM17 132l5 3.5-4-2-.5 12.5zm167.5 0 1.5.5-4.5 3.5zm-27 3-4 5zm29 1 .5 2.5h-1zm-161 4 8 9zm162 3 .5 3.5h-1zm-18 4-2 3zm-5 4-1 2zm-146 3 .5 3.5h-1zm107 4q2.3-.7 1.5 1.5h-3zm35 0 .5 3.5h-1zm-126 2 .5 2.5h-1zm4 0 3.5 4.5-4-3zm116 0 .5 2.5h-1zm-135 2 .5 2.5h-1zm17 4 2 3zm77 2-1 2zm42 0 .5 5.5h-1zm-51 1-3 4v-3q1.5 2.5 3-1Zm24 0-1 2zm-88 4-13 14zm78 0-1 2zm-72 2-1 2zm36 0 1.5 2.5-2-1zm42 0-1 2zm63 0 .5 2.5h-1zm-82 1-2 3zm17 2-1 2zm-22 2-1 2zm13 0-1 2zm6 2-1 2zm36 0 .5 3.5h-1zm-97 1 .5 4.5h-1zm6 0 .5 2.5h-1zm47 0-1 2zm-22 1 2.5.5-2.5.5zm71.5 0 2 .5-2 1zm8.5 0 1 2zm-52 1-1 2zm-8 1-1 2zm6 2-1 2zm-84 3-1 2zm82 0-1 2zm-3 5-1 2zm-53 1 .5 2.5h-1zm6 0 .5 2.5h-1zm118 0-1 2z" opacity=".996"/></svg>